STARTFONT 2.1
FONT NanoSquare-9px
SIZE 9 75 75
FONTBOUNDINGBOX 8 11 -1 -3
STARTPROPERTIES 5
PIXEL_SIZE 9
FONT_ASCENT 8
FONT_DESCENT 3
CHARSET_REGISTRY "ISO10646"
CHARSET_ENCODING "1"
ENDPROPERTIES
CHARS 496
STARTCHAR space
ENCODING 32
SWIDTH 556 0
DWIDTH 5 0
BBX 1 1 0 0
BITMAP
00
ENDCHAR
STARTCHAR exclam
ENCODING 33
SWIDTH 222 0
DWIDTH 2 0
BBX 1 4 0 0
BITMAP
80
80
00
80
ENDCHAR
STARTCHAR quotedbl
ENCODING 34
SWIDTH 444 0
DWIDTH 4 0
BBX 3 2 0 3
BITMAP
A0
A0
ENDCHAR
STARTCHAR numbersign
ENCODING 35
SWIDTH 667 0
DWIDTH 6 0
BBX 5 5 0 0
BITMAP
50
F8
50
F8
50
ENDCHAR
STARTCHAR dollar
ENCODING 36
SWIDTH 444 0
DWIDTH 4 0
BBX 3 6 0 -1
BITMAP
40
E0
C0
60
E0
40
ENDCHAR
STARTCHAR percent
ENCODING 37
SWIDTH 556 0
DWIDTH 5 0
BBX 4 4 0 0
BITMAP
90
20
40
90
ENDCHAR
STARTCHAR ampersand
ENCODING 38
SWIDTH 556 0
DWIDTH 5 0
BBX 4 4 0 0
BITMAP
C0
E0
A0
D0
ENDCHAR
STARTCHAR quotesingle
ENCODING 39
SWIDTH 222 0
DWIDTH 2 0
BBX 1 2 0 3
BITMAP
80
80
ENDCHAR
STARTCHAR parenleft
ENCODING 40
SWIDTH 333 0
DWIDTH 3 0
BBX 2 4 0 0
BITMAP
40
80
80
40
ENDCHAR
STARTCHAR parenright
ENCODING 41
SWIDTH 333 0
DWIDTH 3 0
BBX 2 4 0 0
BITMAP
80
40
40
80
ENDCHAR
STARTCHAR asterisk
ENCODING 42
SWIDTH 444 0
DWIDTH 4 0
BBX 3 3 0 2
BITMAP
A0
40
A0
ENDCHAR
STARTCHAR plus
ENCODING 43
SWIDTH 444 0
DWIDTH 4 0
BBX 3 3 0 0
BITMAP
40
E0
40
ENDCHAR
STARTCHAR comma
ENCODING 44
SWIDTH 222 0
DWIDTH 2 0
BBX 1 2 0 -1
BITMAP
80
80
ENDCHAR
STARTCHAR hyphen
ENCODING 45
SWIDTH 444 0
DWIDTH 4 0
BBX 3 1 0 1
BITMAP
E0
ENDCHAR
STARTCHAR period
ENCODING 46
SWIDTH 222 0
DWIDTH 2 0
BBX 1 1 0 0
BITMAP
80
ENDCHAR
STARTCHAR slash
ENCODING 47
SWIDTH 333 0
DWIDTH 3 0
BBX 2 4 0 0
BITMAP
40
40
80
80
ENDCHAR
STARTCHAR zero
ENCODING 48
SWIDTH 444 0
DWIDTH 4 0
BBX 3 4 0 0
BITMAP
E0
A0
A0
E0
ENDCHAR
STARTCHAR one
ENCODING 49
SWIDTH 444 0
DWIDTH 4 0
BBX 3 4 0 0
BITMAP
C0
40
40
E0
ENDCHAR
STARTCHAR two
ENCODING 50
SWIDTH 444 0
DWIDTH 4 0
BBX 3 4 0 0
BITMAP
E0
20
C0
E0
ENDCHAR
STARTCHAR three
ENCODING 51
SWIDTH 444 0
DWIDTH 4 0
BBX 3 4 0 0
BITMAP
E0
60
20
E0
ENDCHAR
STARTCHAR four
ENCODING 52
SWIDTH 444 0
DWIDTH 4 0
BBX 3 4 0 0
BITMAP
A0
E0
20
20
ENDCHAR
STARTCHAR five
ENCODING 53
SWIDTH 444 0
DWIDTH 4 0
BBX 3 4 0 0
BITMAP
E0
80
60
E0
ENDCHAR
STARTCHAR six
ENCODING 54
SWIDTH 444 0
DWIDTH 4 0
BBX 3 4 0 0
BITMAP
E0
80
E0
E0
ENDCHAR
STARTCHAR seven
ENCODING 55
SWIDTH 444 0
DWIDTH 4 0
BBX 3 4 0 0
BITMAP
E0
20
20
20
ENDCHAR
STARTCHAR eight
ENCODING 56
SWIDTH 444 0
DWIDTH 4 0
BBX 3 4 0 0
BITMAP
E0
E0
A0
E0
ENDCHAR
STARTCHAR nine
ENCODING 57
SWIDTH 444 0
DWIDTH 4 0
BBX 3 4 0 0
BITMAP
E0
E0
20
E0
ENDCHAR
STARTCHAR colon
ENCODING 58
SWIDTH 222 0
DWIDTH 2 0
BBX 1 4 0 0
BITMAP
80
00
00
80
ENDCHAR
STARTCHAR semicolon
ENCODING 59
SWIDTH 222 0
DWIDTH 2 0
BBX 1 5 0 -1
BITMAP
80
00
00
80
80
ENDCHAR
STARTCHAR less
ENCODING 60
SWIDTH 444 0
DWIDTH 4 0
BBX 3 3 0 0
BITMAP
60
80
60
ENDCHAR
STARTCHAR equal
ENCODING 61
SWIDTH 444 0
DWIDTH 4 0
BBX 3 3 0 0
BITMAP
E0
00
E0
ENDCHAR
STARTCHAR greater
ENCODING 62
SWIDTH 444 0
DWIDTH 4 0
BBX 3 3 0 0
BITMAP
C0
20
C0
ENDCHAR
STARTCHAR question
ENCODING 63
SWIDTH 444 0
DWIDTH 4 0
BBX 3 4 0 0
BITMAP
E0
20
00
40
ENDCHAR
STARTCHAR at
ENCODING 64
SWIDTH 444 0
DWIDTH 4 0
BBX 3 4 0 0
BITMAP
E0
A0
80
E0
ENDCHAR
STARTCHAR A
ENCODING 65
SWIDTH 444 0
DWIDTH 4 0
BBX 3 4 0 0
BITMAP
E0
A0
E0
A0
ENDCHAR
STARTCHAR B
ENCODING 66
SWIDTH 444 0
DWIDTH 4 0
BBX 3 4 0 0
BITMAP
C0
E0
A0
E0
ENDCHAR
STARTCHAR C
ENCODING 67
SWIDTH 444 0
DWIDTH 4 0
BBX 3 4 0 0
BITMAP
E0
80
80
E0
ENDCHAR
STARTCHAR D
ENCODING 68
SWIDTH 444 0
DWIDTH 4 0
BBX 3 4 0 0
BITMAP
C0
A0
A0
E0
ENDCHAR
STARTCHAR E
ENCODING 69
SWIDTH 444 0
DWIDTH 4 0
BBX 3 4 0 0
BITMAP
E0
C0
80
E0
ENDCHAR
STARTCHAR F
ENCODING 70
SWIDTH 444 0
DWIDTH 4 0
BBX 3 4 0 0
BITMAP
E0
80
C0
80
ENDCHAR
STARTCHAR G
ENCODING 71
SWIDTH 444 0
DWIDTH 4 0
BBX 3 4 0 0
BITMAP
E0
80
A0
E0
ENDCHAR
STARTCHAR H
ENCODING 72
SWIDTH 444 0
DWIDTH 4 0
BBX 3 4 0 0
BITMAP
A0
E0
A0
A0
ENDCHAR
STARTCHAR I
ENCODING 73
SWIDTH 444 0
DWIDTH 4 0
BBX 3 4 0 0
BITMAP
E0
40
40
E0
ENDCHAR
STARTCHAR J
ENCODING 74
SWIDTH 444 0
DWIDTH 4 0
BBX 3 4 0 0
BITMAP
E0
40
40
C0
ENDCHAR
STARTCHAR K
ENCODING 75
SWIDTH 444 0
DWIDTH 4 0
BBX 3 4 0 0
BITMAP
A0
C0
A0
A0
ENDCHAR
STARTCHAR L
ENCODING 76
SWIDTH 444 0
DWIDTH 4 0
BBX 3 4 0 0
BITMAP
80
80
80
E0
ENDCHAR
STARTCHAR M
ENCODING 77
SWIDTH 444 0
DWIDTH 4 0
BBX 3 4 0 0
BITMAP
E0
E0
A0
A0
ENDCHAR
STARTCHAR N
ENCODING 78
SWIDTH 444 0
DWIDTH 4 0
BBX 3 4 0 0
BITMAP
C0
A0
A0
A0
ENDCHAR
STARTCHAR O
ENCODING 79
SWIDTH 444 0
DWIDTH 4 0
BBX 3 4 0 0
BITMAP
E0
A0
A0
E0
ENDCHAR
STARTCHAR P
ENCODING 80
SWIDTH 444 0
DWIDTH 4 0
BBX 3 4 0 0
BITMAP
E0
A0
E0
80
ENDCHAR
STARTCHAR Q
ENCODING 81
SWIDTH 444 0
DWIDTH 4 0
BBX 3 5 0 -1
BITMAP
E0
A0
A0
E0
20
ENDCHAR
STARTCHAR R
ENCODING 82
SWIDTH 444 0
DWIDTH 4 0
BBX 3 4 0 0
BITMAP
E0
A0
C0
A0
ENDCHAR
STARTCHAR S
ENCODING 83
SWIDTH 444 0
DWIDTH 4 0
BBX 3 4 0 0
BITMAP
E0
80
60
E0
ENDCHAR
STARTCHAR T
ENCODING 84
SWIDTH 444 0
DWIDTH 4 0
BBX 3 4 0 0
BITMAP
E0
40
40
40
ENDCHAR
STARTCHAR U
ENCODING 85
SWIDTH 444 0
DWIDTH 4 0
BBX 3 4 0 0
BITMAP
A0
A0
A0
E0
ENDCHAR
STARTCHAR V
ENCODING 86
SWIDTH 444 0
DWIDTH 4 0
BBX 3 4 0 0
BITMAP
A0
A0
A0
C0
ENDCHAR
STARTCHAR W
ENCODING 87
SWIDTH 444 0
DWIDTH 4 0
BBX 3 4 0 0
BITMAP
A0
A0
E0
E0
ENDCHAR
STARTCHAR X
ENCODING 88
SWIDTH 444 0
DWIDTH 4 0
BBX 3 4 0 0
BITMAP
A0
40
A0
A0
ENDCHAR
STARTCHAR Y
ENCODING 89
SWIDTH 444 0
DWIDTH 4 0
BBX 3 4 0 0
BITMAP
A0
E0
40
40
ENDCHAR
STARTCHAR Z
ENCODING 90
SWIDTH 444 0
DWIDTH 4 0
BBX 3 4 0 0
BITMAP
E0
20
C0
E0
ENDCHAR
STARTCHAR bracketleft
ENCODING 91
SWIDTH 333 0
DWIDTH 3 0
BBX 2 4 0 0
BITMAP
C0
80
80
C0
ENDCHAR
STARTCHAR backslash
ENCODING 92
SWIDTH 333 0
DWIDTH 3 0
BBX 2 4 0 0
BITMAP
80
80
40
40
ENDCHAR
STARTCHAR bracketright
ENCODING 93
SWIDTH 333 0
DWIDTH 3 0
BBX 2 4 0 0
BITMAP
C0
40
40
C0
ENDCHAR
STARTCHAR asciicircum
ENCODING 94
SWIDTH 444 0
DWIDTH 4 0
BBX 3 2 0 3
BITMAP
40
A0
ENDCHAR
STARTCHAR underscore
ENCODING 95
SWIDTH 444 0
DWIDTH 4 0
BBX 3 1 0 0
BITMAP
E0
ENDCHAR
STARTCHAR grave
ENCODING 96
SWIDTH 333 0
DWIDTH 3 0
BBX 2 2 0 3
BITMAP
80
40
ENDCHAR
STARTCHAR a
ENCODING 97
SWIDTH 444 0
DWIDTH 4 0
BBX 3 4 0 0
BITMAP
E0
A0
E0
A0
ENDCHAR
STARTCHAR b
ENCODING 98
SWIDTH 444 0
DWIDTH 4 0
BBX 3 4 0 0
BITMAP
C0
E0
A0
E0
ENDCHAR
STARTCHAR c
ENCODING 99
SWIDTH 444 0
DWIDTH 4 0
BBX 3 4 0 0
BITMAP
E0
80
80
E0
ENDCHAR
STARTCHAR d
ENCODING 100
SWIDTH 444 0
DWIDTH 4 0
BBX 3 4 0 0
BITMAP
C0
A0
A0
C0
ENDCHAR
STARTCHAR e
ENCODING 101
SWIDTH 444 0
DWIDTH 4 0
BBX 3 4 0 0
BITMAP
E0
C0
80
E0
ENDCHAR
STARTCHAR f
ENCODING 102
SWIDTH 444 0
DWIDTH 4 0
BBX 3 4 0 0
BITMAP
E0
80
C0
80
ENDCHAR
STARTCHAR g
ENCODING 103
SWIDTH 444 0
DWIDTH 4 0
BBX 3 4 0 0
BITMAP
E0
80
A0
E0
ENDCHAR
STARTCHAR h
ENCODING 104
SWIDTH 444 0
DWIDTH 4 0
BBX 3 4 0 0
BITMAP
A0
E0
A0
A0
ENDCHAR
STARTCHAR i
ENCODING 105
SWIDTH 222 0
DWIDTH 2 0
BBX 1 4 0 0
BITMAP
80
80
80
80
ENDCHAR
STARTCHAR j
ENCODING 106
SWIDTH 444 0
DWIDTH 4 0
BBX 3 4 0 0
BITMAP
20
20
20
E0
ENDCHAR
STARTCHAR k
ENCODING 107
SWIDTH 444 0
DWIDTH 4 0
BBX 3 4 0 0
BITMAP
A0
C0
A0
A0
ENDCHAR
STARTCHAR l
ENCODING 108
SWIDTH 444 0
DWIDTH 4 0
BBX 3 4 0 0
BITMAP
80
80
80
E0
ENDCHAR
STARTCHAR m
ENCODING 109
SWIDTH 444 0
DWIDTH 4 0
BBX 3 4 0 0
BITMAP
E0
E0
A0
A0
ENDCHAR
STARTCHAR n
ENCODING 110
SWIDTH 444 0
DWIDTH 4 0
BBX 3 4 0 0
BITMAP
C0
A0
A0
A0
ENDCHAR
STARTCHAR o
ENCODING 111
SWIDTH 444 0
DWIDTH 4 0
BBX 3 4 0 0
BITMAP
E0
A0
A0
E0
ENDCHAR
STARTCHAR p
ENCODING 112
SWIDTH 444 0
DWIDTH 4 0
BBX 3 4 0 0
BITMAP
E0
A0
E0
80
ENDCHAR
STARTCHAR q
ENCODING 113
SWIDTH 444 0
DWIDTH 4 0
BBX 3 5 0 -1
BITMAP
E0
A0
A0
E0
40
ENDCHAR
STARTCHAR r
ENCODING 114
SWIDTH 444 0
DWIDTH 4 0
BBX 3 4 0 0
BITMAP
E0
A0
C0
A0
ENDCHAR
STARTCHAR s
ENCODING 115
SWIDTH 444 0
DWIDTH 4 0
BBX 3 4 0 0
BITMAP
E0
80
60
E0
ENDCHAR
STARTCHAR t
ENCODING 116
SWIDTH 444 0
DWIDTH 4 0
BBX 3 4 0 0
BITMAP
E0
40
40
40
ENDCHAR
STARTCHAR u
ENCODING 117
SWIDTH 444 0
DWIDTH 4 0
BBX 3 4 0 0
BITMAP
A0
A0
A0
E0
ENDCHAR
STARTCHAR v
ENCODING 118
SWIDTH 444 0
DWIDTH 4 0
BBX 3 4 0 0
BITMAP
A0
A0
A0
C0
ENDCHAR
STARTCHAR w
ENCODING 119
SWIDTH 444 0
DWIDTH 4 0
BBX 3 4 0 0
BITMAP
A0
A0
E0
E0
ENDCHAR
STARTCHAR x
ENCODING 120
SWIDTH 444 0
DWIDTH 4 0
BBX 3 4 0 0
BITMAP
A0
40
40
A0
ENDCHAR
STARTCHAR y
ENCODING 121
SWIDTH 444 0
DWIDTH 4 0
BBX 3 4 0 0
BITMAP
A0
E0
40
40
ENDCHAR
STARTCHAR z
ENCODING 122
SWIDTH 444 0
DWIDTH 4 0
BBX 3 4 0 0
BITMAP
E0
20
C0
E0
ENDCHAR
STARTCHAR braceleft
ENCODING 123
SWIDTH 333 0
DWIDTH 3 0
BBX 3 5 -1 -1
BITMAP
60
40
C0
40
60
ENDCHAR
STARTCHAR bar
ENCODING 124
SWIDTH 222 0
DWIDTH 2 0
BBX 1 4 0 0
BITMAP
80
80
80
80
ENDCHAR
STARTCHAR braceright
ENCODING 125
SWIDTH 444 0
DWIDTH 4 0
BBX 3 5 0 -1
BITMAP
C0
40
60
40
C0
ENDCHAR
STARTCHAR asciitilde
ENCODING 126
SWIDTH 556 0
DWIDTH 5 0
BBX 4 2 0 1
BITMAP
D0
B0
ENDCHAR
STARTCHAR uni00A0
ENCODING 160
SWIDTH 556 0
DWIDTH 5 0
BBX 1 1 0 0
BITMAP
00
ENDCHAR
STARTCHAR exclamdown
ENCODING 161
SWIDTH 222 0
DWIDTH 2 0
BBX 1 4 0 0
BITMAP
80
00
80
80
ENDCHAR
STARTCHAR cent
ENCODING 162
SWIDTH 444 0
DWIDTH 4 0
BBX 3 6 0 -1
BITMAP
40
E0
80
80
E0
40
ENDCHAR
STARTCHAR sterling
ENCODING 163
SWIDTH 444 0
DWIDTH 4 0
BBX 3 5 0 0
BITMAP
60
40
E0
40
E0
ENDCHAR
STARTCHAR currency
ENCODING 164
SWIDTH 556 0
DWIDTH 5 0
BBX 4 4 0 0
BITMAP
90
60
60
90
ENDCHAR
STARTCHAR yen
ENCODING 165
SWIDTH 556 0
DWIDTH 5 0
BBX 5 4 -1 0
BITMAP
50
70
F8
20
ENDCHAR
STARTCHAR brokenbar
ENCODING 166
SWIDTH 222 0
DWIDTH 2 0
BBX 1 6 0 -1
BITMAP
80
80
00
00
80
80
ENDCHAR
STARTCHAR section
ENCODING 167
SWIDTH 444 0
DWIDTH 4 0
BBX 3 7 0 0
BITMAP
E0
80
60
E0
A0
60
E0
ENDCHAR
STARTCHAR dieresis
ENCODING 168
SWIDTH 444 0
DWIDTH 4 0
BBX 3 1 0 3
BITMAP
A0
ENDCHAR
STARTCHAR copyright
ENCODING 169
SWIDTH 667 0
DWIDTH 6 0
BBX 5 5 0 0
BITMAP
70
88
B8
88
70
ENDCHAR
STARTCHAR ordfeminine
ENCODING 170
SWIDTH 444 0
DWIDTH 4 0
BBX 3 4 0 3
BITMAP
E0
A0
E0
A0
ENDCHAR
STARTCHAR guillemotleft
ENCODING 171
SWIDTH 667 0
DWIDTH 6 0
BBX 5 4 0 0
BITMAP
48
90
90
48
ENDCHAR
STARTCHAR logicalnot
ENCODING 172
SWIDTH 444 0
DWIDTH 4 0
BBX 3 2 0 1
BITMAP
E0
20
ENDCHAR
STARTCHAR registered
ENCODING 174
SWIDTH 667 0
DWIDTH 6 0
BBX 5 5 0 0
BITMAP
70
98
98
A8
70
ENDCHAR
STARTCHAR macron
ENCODING 175
SWIDTH 444 0
DWIDTH 4 0
BBX 3 1 0 3
BITMAP
E0
ENDCHAR
STARTCHAR degree
ENCODING 176
SWIDTH 444 0
DWIDTH 4 0
BBX 3 3 0 3
BITMAP
E0
A0
E0
ENDCHAR
STARTCHAR plusminus
ENCODING 177
SWIDTH 444 0
DWIDTH 4 0
BBX 3 5 0 0
BITMAP
40
E0
40
00
E0
ENDCHAR
STARTCHAR uni00B2
ENCODING 178
SWIDTH 444 0
DWIDTH 4 0
BBX 3 4 0 3
BITMAP
E0
20
C0
E0
ENDCHAR
STARTCHAR uni00B3
ENCODING 179
SWIDTH 444 0
DWIDTH 4 0
BBX 3 4 0 3
BITMAP
E0
60
20
E0
ENDCHAR
STARTCHAR acute
ENCODING 180
SWIDTH 333 0
DWIDTH 3 0
BBX 2 2 0 3
BITMAP
40
80
ENDCHAR
STARTCHAR mu
ENCODING 181
SWIDTH 444 0
DWIDTH 4 0
BBX 3 6 0 -2
BITMAP
A0
A0
A0
E0
80
80
ENDCHAR
STARTCHAR paragraph
ENCODING 182
SWIDTH 556 0
DWIDTH 5 0
BBX 4 5 0 0
BITMAP
70
D0
D0
50
50
ENDCHAR
STARTCHAR periodcentered
ENCODING 183
SWIDTH 222 0
DWIDTH 2 0
BBX 1 1 0 1
BITMAP
80
ENDCHAR
STARTCHAR cedilla
ENCODING 184
SWIDTH 556 0
DWIDTH 5 0
BBX 2 3 2 -3
BITMAP
80
40
80
ENDCHAR
STARTCHAR uni00B9
ENCODING 185
SWIDTH 444 0
DWIDTH 4 0
BBX 3 4 0 3
BITMAP
C0
40
40
E0
ENDCHAR
STARTCHAR ordmasculine
ENCODING 186
SWIDTH 444 0
DWIDTH 4 0
BBX 3 4 0 3
BITMAP
E0
A0
A0
E0
ENDCHAR
STARTCHAR guillemotright
ENCODING 187
SWIDTH 667 0
DWIDTH 6 0
BBX 5 4 0 0
BITMAP
90
48
48
90
ENDCHAR
STARTCHAR onequarter
ENCODING 188
SWIDTH 667 0
DWIDTH 6 0
BBX 5 5 0 0
BITMAP
C0
50
28
58
88
ENDCHAR
STARTCHAR onehalf
ENCODING 189
SWIDTH 667 0
DWIDTH 6 0
BBX 5 5 0 0
BITMAP
C0
50
20
50
98
ENDCHAR
STARTCHAR questiondown
ENCODING 191
SWIDTH 444 0
DWIDTH 4 0
BBX 3 4 0 0
BITMAP
40
00
80
E0
ENDCHAR
STARTCHAR Agrave
ENCODING 192
SWIDTH 444 0
DWIDTH 4 0
BBX 3 7 0 0
BITMAP
40
40
00
E0
A0
E0
A0
ENDCHAR
STARTCHAR Aacute
ENCODING 193
SWIDTH 444 0
DWIDTH 4 0
BBX 3 7 0 0
BITMAP
40
40
00
E0
A0
E0
A0
ENDCHAR
STARTCHAR Acircumflex
ENCODING 194
SWIDTH 444 0
DWIDTH 4 0
BBX 3 7 0 0
BITMAP
40
A0
00
E0
A0
E0
A0
ENDCHAR
STARTCHAR Atilde
ENCODING 195
SWIDTH 444 0
DWIDTH 4 0
BBX 4 7 -1 0
BITMAP
A0
50
00
70
50
70
50
ENDCHAR
STARTCHAR Adieresis
ENCODING 196
SWIDTH 444 0
DWIDTH 4 0
BBX 3 6 0 0
BITMAP
A0
00
E0
A0
E0
A0
ENDCHAR
STARTCHAR Aring
ENCODING 197
SWIDTH 444 0
DWIDTH 4 0
BBX 3 6 0 0
BITMAP
E0
A0
E0
A0
E0
A0
ENDCHAR
STARTCHAR AE
ENCODING 198
SWIDTH 667 0
DWIDTH 6 0
BBX 5 4 0 0
BITMAP
F8
B0
E0
B8
ENDCHAR
STARTCHAR Ccedilla
ENCODING 199
SWIDTH 444 0
DWIDTH 4 0
BBX 3 7 0 -3
BITMAP
E0
80
80
E0
40
20
40
ENDCHAR
STARTCHAR Egrave
ENCODING 200
SWIDTH 444 0
DWIDTH 4 0
BBX 3 7 0 0
BITMAP
80
40
00
E0
C0
80
E0
ENDCHAR
STARTCHAR Eacute
ENCODING 201
SWIDTH 444 0
DWIDTH 4 0
BBX 3 7 0 0
BITMAP
20
40
00
E0
C0
80
E0
ENDCHAR
STARTCHAR Ecircumflex
ENCODING 202
SWIDTH 444 0
DWIDTH 4 0
BBX 3 7 0 0
BITMAP
40
A0
00
E0
C0
80
E0
ENDCHAR
STARTCHAR Edieresis
ENCODING 203
SWIDTH 444 0
DWIDTH 4 0
BBX 3 6 0 0
BITMAP
A0
00
E0
C0
80
E0
ENDCHAR
STARTCHAR Igrave
ENCODING 204
SWIDTH 444 0
DWIDTH 4 0
BBX 3 7 0 0
BITMAP
80
40
00
E0
40
40
E0
ENDCHAR
STARTCHAR Iacute
ENCODING 205
SWIDTH 444 0
DWIDTH 4 0
BBX 3 7 0 0
BITMAP
20
40
00
E0
40
40
E0
ENDCHAR
STARTCHAR Icircumflex
ENCODING 206
SWIDTH 444 0
DWIDTH 4 0
BBX 3 7 0 0
BITMAP
40
A0
00
E0
40
40
E0
ENDCHAR
STARTCHAR Idieresis
ENCODING 207
SWIDTH 444 0
DWIDTH 4 0
BBX 3 6 0 0
BITMAP
A0
00
E0
40
40
E0
ENDCHAR
STARTCHAR Eth
ENCODING 208
SWIDTH 444 0
DWIDTH 4 0
BBX 4 4 -1 0
BITMAP
60
D0
50
70
ENDCHAR
STARTCHAR Ntilde
ENCODING 209
SWIDTH 444 0
DWIDTH 4 0
BBX 4 7 -1 0
BITMAP
A0
50
00
60
50
50
50
ENDCHAR
STARTCHAR Ograve
ENCODING 210
SWIDTH 444 0
DWIDTH 4 0
BBX 3 7 0 0
BITMAP
80
40
00
E0
A0
A0
E0
ENDCHAR
STARTCHAR Oacute
ENCODING 211
SWIDTH 444 0
DWIDTH 4 0
BBX 3 7 0 0
BITMAP
20
40
00
E0
A0
A0
E0
ENDCHAR
STARTCHAR Ocircumflex
ENCODING 212
SWIDTH 444 0
DWIDTH 4 0
BBX 3 7 0 0
BITMAP
40
A0
00
E0
A0
A0
E0
ENDCHAR
STARTCHAR Otilde
ENCODING 213
SWIDTH 444 0
DWIDTH 4 0
BBX 4 7 -1 0
BITMAP
A0
50
00
70
50
50
70
ENDCHAR
STARTCHAR Odieresis
ENCODING 214
SWIDTH 444 0
DWIDTH 4 0
BBX 3 6 0 0
BITMAP
A0
00
E0
A0
A0
E0
ENDCHAR
STARTCHAR multiply
ENCODING 215
SWIDTH 444 0
DWIDTH 4 0
BBX 3 3 0 0
BITMAP
A0
40
A0
ENDCHAR
STARTCHAR Oslash
ENCODING 216
SWIDTH 556 0
DWIDTH 5 0
BBX 5 5 -1 -1
BITMAP
78
50
70
70
80
ENDCHAR
STARTCHAR Ugrave
ENCODING 217
SWIDTH 444 0
DWIDTH 4 0
BBX 3 7 0 0
BITMAP
80
40
00
A0
A0
A0
E0
ENDCHAR
STARTCHAR Uacute
ENCODING 218
SWIDTH 444 0
DWIDTH 4 0
BBX 3 7 0 0
BITMAP
20
40
00
A0
A0
A0
E0
ENDCHAR
STARTCHAR Ucircumflex
ENCODING 219
SWIDTH 444 0
DWIDTH 4 0
BBX 3 7 0 0
BITMAP
40
A0
00
A0
A0
A0
E0
ENDCHAR
STARTCHAR Udieresis
ENCODING 220
SWIDTH 444 0
DWIDTH 4 0
BBX 3 6 0 0
BITMAP
A0
00
A0
A0
A0
E0
ENDCHAR
STARTCHAR Yacute
ENCODING 221
SWIDTH 444 0
DWIDTH 4 0
BBX 3 7 0 0
BITMAP
20
40
00
A0
E0
40
40
ENDCHAR
STARTCHAR Thorn
ENCODING 222
SWIDTH 444 0
DWIDTH 4 0
BBX 3 4 0 0
BITMAP
80
E0
E0
80
ENDCHAR
STARTCHAR germandbls
ENCODING 223
SWIDTH 556 0
DWIDTH 5 0
BBX 4 5 0 0
BITMAP
C0
A0
A0
90
A0
ENDCHAR
STARTCHAR agrave
ENCODING 224
SWIDTH 444 0
DWIDTH 4 0
BBX 3 7 0 0
BITMAP
80
40
00
E0
A0
E0
A0
ENDCHAR
STARTCHAR aacute
ENCODING 225
SWIDTH 444 0
DWIDTH 4 0
BBX 3 7 0 0
BITMAP
20
40
00
E0
A0
E0
A0
ENDCHAR
STARTCHAR acircumflex
ENCODING 226
SWIDTH 444 0
DWIDTH 4 0
BBX 3 7 0 0
BITMAP
40
A0
00
E0
A0
E0
A0
ENDCHAR
STARTCHAR atilde
ENCODING 227
SWIDTH 444 0
DWIDTH 4 0
BBX 4 7 -1 0
BITMAP
A0
50
00
70
50
70
50
ENDCHAR
STARTCHAR adieresis
ENCODING 228
SWIDTH 444 0
DWIDTH 4 0
BBX 3 6 0 0
BITMAP
A0
00
E0
A0
E0
A0
ENDCHAR
STARTCHAR aring
ENCODING 229
SWIDTH 444 0
DWIDTH 4 0
BBX 3 8 0 0
BITMAP
E0
A0
E0
00
E0
A0
E0
A0
ENDCHAR
STARTCHAR ae
ENCODING 230
SWIDTH 667 0
DWIDTH 6 0
BBX 5 4 0 0
BITMAP
F8
B0
E0
B8
ENDCHAR
STARTCHAR ccedilla
ENCODING 231
SWIDTH 444 0
DWIDTH 4 0
BBX 3 7 0 -3
BITMAP
E0
80
80
E0
40
20
40
ENDCHAR
STARTCHAR egrave
ENCODING 232
SWIDTH 444 0
DWIDTH 4 0
BBX 3 7 0 0
BITMAP
80
40
00
E0
C0
80
E0
ENDCHAR
STARTCHAR eacute
ENCODING 233
SWIDTH 444 0
DWIDTH 4 0
BBX 3 7 0 0
BITMAP
20
40
00
E0
C0
80
E0
ENDCHAR
STARTCHAR ecircumflex
ENCODING 234
SWIDTH 444 0
DWIDTH 4 0
BBX 3 7 0 0
BITMAP
40
A0
00
E0
C0
80
E0
ENDCHAR
STARTCHAR edieresis
ENCODING 235
SWIDTH 444 0
DWIDTH 4 0
BBX 3 6 0 0
BITMAP
A0
00
E0
C0
80
E0
ENDCHAR
STARTCHAR igrave
ENCODING 236
SWIDTH 444 0
DWIDTH 4 0
BBX 3 7 0 0
BITMAP
80
40
00
E0
40
40
E0
ENDCHAR
STARTCHAR iacute
ENCODING 237
SWIDTH 444 0
DWIDTH 4 0
BBX 3 7 0 0
BITMAP
20
40
00
E0
40
40
E0
ENDCHAR
STARTCHAR icircumflex
ENCODING 238
SWIDTH 444 0
DWIDTH 4 0
BBX 3 7 0 0
BITMAP
40
A0
00
E0
40
40
E0
ENDCHAR
STARTCHAR idieresis
ENCODING 239
SWIDTH 444 0
DWIDTH 4 0
BBX 3 6 0 0
BITMAP
A0
00
E0
40
40
E0
ENDCHAR
STARTCHAR eth
ENCODING 240
SWIDTH 444 0
DWIDTH 4 0
BBX 3 6 0 0
BITMAP
A0
40
20
E0
A0
E0
ENDCHAR
STARTCHAR ntilde
ENCODING 241
SWIDTH 444 0
DWIDTH 4 0
BBX 4 7 -1 0
BITMAP
A0
50
00
60
50
50
50
ENDCHAR
STARTCHAR ograve
ENCODING 242
SWIDTH 444 0
DWIDTH 4 0
BBX 3 7 0 0
BITMAP
80
40
00
E0
A0
A0
E0
ENDCHAR
STARTCHAR oacute
ENCODING 243
SWIDTH 444 0
DWIDTH 4 0
BBX 3 7 0 0
BITMAP
20
40
00
E0
A0
A0
E0
ENDCHAR
STARTCHAR ocircumflex
ENCODING 244
SWIDTH 444 0
DWIDTH 4 0
BBX 3 7 0 0
BITMAP
40
A0
00
E0
A0
A0
E0
ENDCHAR
STARTCHAR otilde
ENCODING 245
SWIDTH 444 0
DWIDTH 4 0
BBX 4 7 -1 0
BITMAP
A0
50
00
70
50
50
70
ENDCHAR
STARTCHAR odieresis
ENCODING 246
SWIDTH 444 0
DWIDTH 4 0
BBX 3 6 0 0
BITMAP
A0
00
E0
A0
A0
E0
ENDCHAR
STARTCHAR divide
ENCODING 247
SWIDTH 444 0
DWIDTH 4 0
BBX 3 5 0 0
BITMAP
40
00
E0
00
40
ENDCHAR
STARTCHAR oslash
ENCODING 248
SWIDTH 556 0
DWIDTH 5 0
BBX 5 5 -1 0
BITMAP
08
70
70
50
F0
ENDCHAR
STARTCHAR ugrave
ENCODING 249
SWIDTH 444 0
DWIDTH 4 0
BBX 3 7 0 0
BITMAP
80
40
00
A0
A0
A0
E0
ENDCHAR
STARTCHAR uacute
ENCODING 250
SWIDTH 444 0
DWIDTH 4 0
BBX 3 7 0 0
BITMAP
20
40
00
A0
A0
A0
E0
ENDCHAR
STARTCHAR ucircumflex
ENCODING 251
SWIDTH 444 0
DWIDTH 4 0
BBX 3 7 0 0
BITMAP
40
A0
00
A0
A0
A0
E0
ENDCHAR
STARTCHAR udieresis
ENCODING 252
SWIDTH 444 0
DWIDTH 4 0
BBX 3 6 0 0
BITMAP
A0
00
A0
A0
A0
E0
ENDCHAR
STARTCHAR yacute
ENCODING 253
SWIDTH 444 0
DWIDTH 4 0
BBX 3 7 0 0
BITMAP
60
C0
00
A0
E0
40
40
ENDCHAR
STARTCHAR thorn
ENCODING 254
SWIDTH 444 0
DWIDTH 4 0
BBX 3 6 0 -1
BITMAP
80
E0
A0
A0
E0
80
ENDCHAR
STARTCHAR ydieresis
ENCODING 255
SWIDTH 444 0
DWIDTH 4 0
BBX 3 6 0 0
BITMAP
A0
00
A0
E0
40
40
ENDCHAR
STARTCHAR Amacron
ENCODING 256
SWIDTH 444 0
DWIDTH 4 0
BBX 3 6 0 0
BITMAP
E0
00
E0
A0
E0
A0
ENDCHAR
STARTCHAR amacron
ENCODING 257
SWIDTH 444 0
DWIDTH 4 0
BBX 3 6 0 0
BITMAP
E0
00
E0
A0
E0
A0
ENDCHAR
STARTCHAR Abreve
ENCODING 258
SWIDTH 444 0
DWIDTH 4 0
BBX 3 7 0 0
BITMAP
A0
E0
00
E0
A0
E0
A0
ENDCHAR
STARTCHAR abreve
ENCODING 259
SWIDTH 444 0
DWIDTH 4 0
BBX 3 7 0 0
BITMAP
A0
E0
00
E0
A0
E0
A0
ENDCHAR
STARTCHAR Aogonek
ENCODING 260
SWIDTH 444 0
DWIDTH 4 0
BBX 3 7 0 -3
BITMAP
E0
A0
E0
A0
20
40
20
ENDCHAR
STARTCHAR aogonek
ENCODING 261
SWIDTH 444 0
DWIDTH 4 0
BBX 3 7 0 -3
BITMAP
E0
A0
E0
A0
20
40
20
ENDCHAR
STARTCHAR Cacute
ENCODING 262
SWIDTH 444 0
DWIDTH 4 0
BBX 3 7 0 0
BITMAP
20
40
00
E0
80
80
E0
ENDCHAR
STARTCHAR cacute
ENCODING 263
SWIDTH 444 0
DWIDTH 4 0
BBX 3 7 0 0
BITMAP
20
40
00
E0
80
80
E0
ENDCHAR
STARTCHAR Ccircumflex
ENCODING 264
SWIDTH 444 0
DWIDTH 4 0
BBX 3 7 0 0
BITMAP
40
A0
00
E0
80
80
E0
ENDCHAR
STARTCHAR ccircumflex
ENCODING 265
SWIDTH 444 0
DWIDTH 4 0
BBX 3 7 0 0
BITMAP
40
A0
00
E0
80
80
E0
ENDCHAR
STARTCHAR Cdotaccent
ENCODING 266
SWIDTH 444 0
DWIDTH 4 0
BBX 3 6 0 0
BITMAP
40
00
E0
80
80
E0
ENDCHAR
STARTCHAR cdotaccent
ENCODING 267
SWIDTH 444 0
DWIDTH 4 0
BBX 3 6 0 0
BITMAP
40
00
E0
80
80
E0
ENDCHAR
STARTCHAR Ccaron
ENCODING 268
SWIDTH 444 0
DWIDTH 4 0
BBX 3 7 0 0
BITMAP
A0
40
00
E0
80
80
E0
ENDCHAR
STARTCHAR ccaron
ENCODING 269
SWIDTH 444 0
DWIDTH 4 0
BBX 3 7 0 0
BITMAP
A0
40
00
E0
80
80
E0
ENDCHAR
STARTCHAR Dcaron
ENCODING 270
SWIDTH 444 0
DWIDTH 4 0
BBX 3 7 0 0
BITMAP
A0
E0
00
C0
A0
A0
E0
ENDCHAR
STARTCHAR dcaron
ENCODING 271
SWIDTH 667 0
DWIDTH 6 0
BBX 5 4 0 0
BITMAP
C8
A8
A0
E0
ENDCHAR
STARTCHAR Dcroat
ENCODING 272
SWIDTH 444 0
DWIDTH 4 0
BBX 4 4 -1 0
BITMAP
60
D0
50
70
ENDCHAR
STARTCHAR dcroat
ENCODING 273
SWIDTH 444 0
DWIDTH 4 0
BBX 4 4 -1 0
BITMAP
60
D0
50
60
ENDCHAR
STARTCHAR Emacron
ENCODING 274
SWIDTH 444 0
DWIDTH 4 0
BBX 3 6 0 0
BITMAP
E0
00
E0
C0
80
E0
ENDCHAR
STARTCHAR emacron
ENCODING 275
SWIDTH 444 0
DWIDTH 4 0
BBX 3 6 0 0
BITMAP
E0
00
E0
C0
80
E0
ENDCHAR
STARTCHAR Ebreve
ENCODING 276
SWIDTH 444 0
DWIDTH 4 0
BBX 3 7 0 0
BITMAP
A0
E0
00
E0
C0
80
E0
ENDCHAR
STARTCHAR ebreve
ENCODING 277
SWIDTH 444 0
DWIDTH 4 0
BBX 3 7 0 0
BITMAP
A0
E0
00
E0
C0
80
E0
ENDCHAR
STARTCHAR Edotaccent
ENCODING 278
SWIDTH 444 0
DWIDTH 4 0
BBX 3 6 0 0
BITMAP
40
00
E0
C0
80
E0
ENDCHAR
STARTCHAR edotaccent
ENCODING 279
SWIDTH 444 0
DWIDTH 4 0
BBX 3 6 0 0
BITMAP
40
00
E0
C0
80
E0
ENDCHAR
STARTCHAR Eogonek
ENCODING 280
SWIDTH 444 0
DWIDTH 4 0
BBX 3 7 0 -3
BITMAP
E0
C0
80
E0
20
40
20
ENDCHAR
STARTCHAR eogonek
ENCODING 281
SWIDTH 444 0
DWIDTH 4 0
BBX 3 7 0 -3
BITMAP
E0
C0
80
E0
20
40
20
ENDCHAR
STARTCHAR Ecaron
ENCODING 282
SWIDTH 444 0
DWIDTH 4 0
BBX 3 7 0 0
BITMAP
A0
40
00
E0
C0
80
E0
ENDCHAR
STARTCHAR ecaron
ENCODING 283
SWIDTH 444 0
DWIDTH 4 0
BBX 3 7 0 0
BITMAP
A0
40
00
E0
C0
80
E0
ENDCHAR
STARTCHAR Gcircumflex
ENCODING 284
SWIDTH 444 0
DWIDTH 4 0
BBX 3 7 0 0
BITMAP
E0
A0
00
E0
80
A0
E0
ENDCHAR
STARTCHAR gcircumflex
ENCODING 285
SWIDTH 444 0
DWIDTH 4 0
BBX 3 7 0 0
BITMAP
40
A0
00
E0
80
A0
E0
ENDCHAR
STARTCHAR Gbreve
ENCODING 286
SWIDTH 444 0
DWIDTH 4 0
BBX 3 7 0 0
BITMAP
A0
E0
00
E0
80
A0
E0
ENDCHAR
STARTCHAR gbreve
ENCODING 287
SWIDTH 444 0
DWIDTH 4 0
BBX 3 7 0 0
BITMAP
A0
E0
00
E0
80
A0
E0
ENDCHAR
STARTCHAR Gdotaccent
ENCODING 288
SWIDTH 444 0
DWIDTH 4 0
BBX 3 6 0 0
BITMAP
40
00
E0
80
A0
E0
ENDCHAR
STARTCHAR gdotaccent
ENCODING 289
SWIDTH 444 0
DWIDTH 4 0
BBX 3 6 0 0
BITMAP
40
00
E0
80
A0
E0
ENDCHAR
STARTCHAR uni0122
ENCODING 290
SWIDTH 444 0
DWIDTH 4 0
BBX 3 7 0 -3
BITMAP
E0
80
A0
E0
00
40
40
ENDCHAR
STARTCHAR uni0123
ENCODING 291
SWIDTH 444 0
DWIDTH 4 0
BBX 3 7 0 0
BITMAP
40
40
00
E0
80
A0
E0
ENDCHAR
STARTCHAR Hcircumflex
ENCODING 292
SWIDTH 444 0
DWIDTH 4 0
BBX 3 7 0 0
BITMAP
E0
A0
00
A0
E0
A0
A0
ENDCHAR
STARTCHAR hcircumflex
ENCODING 293
SWIDTH 444 0
DWIDTH 4 0
BBX 3 7 0 0
BITMAP
E0
A0
00
A0
E0
A0
A0
ENDCHAR
STARTCHAR Hbar
ENCODING 294
SWIDTH 556 0
DWIDTH 5 0
BBX 5 4 -1 0
BITMAP
50
F8
70
50
ENDCHAR
STARTCHAR hbar
ENCODING 295
SWIDTH 556 0
DWIDTH 5 0
BBX 5 4 -1 0
BITMAP
50
F8
70
50
ENDCHAR
STARTCHAR Itilde
ENCODING 296
SWIDTH 444 0
DWIDTH 4 0
BBX 4 7 -1 0
BITMAP
A0
50
00
70
20
20
70
ENDCHAR
STARTCHAR itilde
ENCODING 297
SWIDTH 444 0
DWIDTH 4 0
BBX 4 7 -1 0
BITMAP
A0
50
00
70
20
20
70
ENDCHAR
STARTCHAR Imacron
ENCODING 298
SWIDTH 444 0
DWIDTH 4 0
BBX 3 6 0 0
BITMAP
E0
00
E0
40
40
E0
ENDCHAR
STARTCHAR imacron
ENCODING 299
SWIDTH 444 0
DWIDTH 4 0
BBX 3 6 0 0
BITMAP
E0
00
E0
40
40
E0
ENDCHAR
STARTCHAR Ibreve
ENCODING 300
SWIDTH 444 0
DWIDTH 4 0
BBX 3 7 0 0
BITMAP
A0
E0
00
E0
40
40
E0
ENDCHAR
STARTCHAR ibreve
ENCODING 301
SWIDTH 444 0
DWIDTH 4 0
BBX 3 7 0 0
BITMAP
A0
E0
00
E0
40
40
E0
ENDCHAR
STARTCHAR Iogonek
ENCODING 302
SWIDTH 444 0
DWIDTH 4 0
BBX 3 7 0 -3
BITMAP
E0
40
40
E0
40
80
40
ENDCHAR
STARTCHAR iogonek
ENCODING 303
SWIDTH 444 0
DWIDTH 4 0
BBX 3 7 0 -3
BITMAP
E0
40
40
E0
40
80
40
ENDCHAR
STARTCHAR Idotaccent
ENCODING 304
SWIDTH 444 0
DWIDTH 4 0
BBX 3 6 0 0
BITMAP
40
00
E0
40
40
E0
ENDCHAR
STARTCHAR dotlessi
ENCODING 305
SWIDTH 222 0
DWIDTH 2 0
BBX 1 4 0 0
BITMAP
80
80
80
80
ENDCHAR
STARTCHAR IJ
ENCODING 306
SWIDTH 889 0
DWIDTH 8 0
BBX 7 4 0 0
BITMAP
EE
44
44
EC
ENDCHAR
STARTCHAR ij
ENCODING 307
SWIDTH 667 0
DWIDTH 6 0
BBX 5 4 0 0
BITMAP
88
88
88
B8
ENDCHAR
STARTCHAR Jcircumflex
ENCODING 308
SWIDTH 444 0
DWIDTH 4 0
BBX 3 7 0 0
BITMAP
E0
A0
00
E0
40
40
C0
ENDCHAR
STARTCHAR jcircumflex
ENCODING 309
SWIDTH 444 0
DWIDTH 4 0
BBX 3 7 0 0
BITMAP
40
A0
00
E0
40
40
C0
ENDCHAR
STARTCHAR uni0136
ENCODING 310
SWIDTH 444 0
DWIDTH 4 0
BBX 3 7 0 -3
BITMAP
A0
C0
A0
A0
00
40
40
ENDCHAR
STARTCHAR uni0137
ENCODING 311
SWIDTH 444 0
DWIDTH 4 0
BBX 3 7 0 -3
BITMAP
A0
C0
A0
A0
00
40
40
ENDCHAR
STARTCHAR kgreenlandic
ENCODING 312
SWIDTH 444 0
DWIDTH 4 0
BBX 3 3 0 0
BITMAP
A0
C0
A0
ENDCHAR
STARTCHAR Lacute
ENCODING 313
SWIDTH 444 0
DWIDTH 4 0
BBX 3 7 0 0
BITMAP
60
C0
00
80
80
80
E0
ENDCHAR
STARTCHAR lacute
ENCODING 314
SWIDTH 333 0
DWIDTH 3 0
BBX 2 7 0 0
BITMAP
40
80
00
80
80
80
80
ENDCHAR
STARTCHAR uni013B
ENCODING 315
SWIDTH 444 0
DWIDTH 4 0
BBX 3 7 0 -3
BITMAP
80
80
80
E0
00
40
40
ENDCHAR
STARTCHAR uni013C
ENCODING 316
SWIDTH 444 0
DWIDTH 4 0
BBX 3 7 0 -3
BITMAP
80
80
80
E0
00
40
40
ENDCHAR
STARTCHAR Lcaron
ENCODING 317
SWIDTH 444 0
DWIDTH 4 0
BBX 3 4 0 0
BITMAP
A0
A0
80
E0
ENDCHAR
STARTCHAR lcaron
ENCODING 318
SWIDTH 444 0
DWIDTH 4 0
BBX 3 4 0 0
BITMAP
A0
A0
80
E0
ENDCHAR
STARTCHAR Ldot
ENCODING 319
SWIDTH 444 0
DWIDTH 4 0
BBX 3 4 0 0
BITMAP
80
A0
80
E0
ENDCHAR
STARTCHAR ldot
ENCODING 320
SWIDTH 444 0
DWIDTH 4 0
BBX 3 4 0 0
BITMAP
80
A0
80
E0
ENDCHAR
STARTCHAR Lslash
ENCODING 321
SWIDTH 444 0
DWIDTH 4 0
BBX 4 4 -1 0
BITMAP
50
60
40
F0
ENDCHAR
STARTCHAR lslash
ENCODING 322
SWIDTH 444 0
DWIDTH 4 0
BBX 4 4 -1 0
BITMAP
50
60
40
F0
ENDCHAR
STARTCHAR Nacute
ENCODING 323
SWIDTH 444 0
DWIDTH 4 0
BBX 3 7 0 0
BITMAP
60
C0
00
C0
A0
A0
A0
ENDCHAR
STARTCHAR nacute
ENCODING 324
SWIDTH 444 0
DWIDTH 4 0
BBX 3 7 0 0
BITMAP
60
C0
00
C0
A0
A0
A0
ENDCHAR
STARTCHAR uni0145
ENCODING 325
SWIDTH 444 0
DWIDTH 4 0
BBX 3 7 0 -3
BITMAP
C0
A0
A0
A0
00
40
40
ENDCHAR
STARTCHAR uni0146
ENCODING 326
SWIDTH 444 0
DWIDTH 4 0
BBX 3 7 0 -3
BITMAP
C0
A0
A0
A0
00
40
40
ENDCHAR
STARTCHAR Ncaron
ENCODING 327
SWIDTH 444 0
DWIDTH 4 0
BBX 3 7 0 0
BITMAP
A0
E0
00
C0
A0
A0
A0
ENDCHAR
STARTCHAR ncaron
ENCODING 328
SWIDTH 444 0
DWIDTH 4 0
BBX 3 7 0 0
BITMAP
A0
40
00
C0
A0
A0
A0
ENDCHAR
STARTCHAR napostrophe
ENCODING 329
SWIDTH 444 0
DWIDTH 4 0
BBX 4 7 -1 0
BITMAP
80
80
00
60
50
50
50
ENDCHAR
STARTCHAR Eng
ENCODING 330
SWIDTH 444 0
DWIDTH 4 0
BBX 3 6 0 -2
BITMAP
C0
A0
A0
A0
20
40
ENDCHAR
STARTCHAR eng
ENCODING 331
SWIDTH 444 0
DWIDTH 4 0
BBX 3 6 0 -2
BITMAP
C0
A0
A0
A0
20
40
ENDCHAR
STARTCHAR Omacron
ENCODING 332
SWIDTH 444 0
DWIDTH 4 0
BBX 3 6 0 0
BITMAP
E0
00
E0
A0
A0
E0
ENDCHAR
STARTCHAR omacron
ENCODING 333
SWIDTH 444 0
DWIDTH 4 0
BBX 3 6 0 0
BITMAP
E0
00
E0
A0
A0
E0
ENDCHAR
STARTCHAR Obreve
ENCODING 334
SWIDTH 444 0
DWIDTH 4 0
BBX 3 7 0 0
BITMAP
A0
E0
00
E0
A0
A0
E0
ENDCHAR
STARTCHAR obreve
ENCODING 335
SWIDTH 444 0
DWIDTH 4 0
BBX 3 7 0 0
BITMAP
A0
E0
00
E0
A0
A0
E0
ENDCHAR
STARTCHAR Ohungarumlaut
ENCODING 336
SWIDTH 444 0
DWIDTH 4 0
BBX 3 7 0 0
BITMAP
A0
A0
00
E0
A0
A0
E0
ENDCHAR
STARTCHAR ohungarumlaut
ENCODING 337
SWIDTH 444 0
DWIDTH 4 0
BBX 3 7 0 0
BITMAP
A0
A0
00
E0
A0
A0
E0
ENDCHAR
STARTCHAR OE
ENCODING 338
SWIDTH 667 0
DWIDTH 6 0
BBX 5 4 0 0
BITMAP
F8
B0
A0
F8
ENDCHAR
STARTCHAR oe
ENCODING 339
SWIDTH 667 0
DWIDTH 6 0
BBX 5 4 0 0
BITMAP
F8
B0
A0
F8
ENDCHAR
STARTCHAR Racute
ENCODING 340
SWIDTH 444 0
DWIDTH 4 0
BBX 3 7 0 0
BITMAP
40
40
00
E0
A0
C0
A0
ENDCHAR
STARTCHAR racute
ENCODING 341
SWIDTH 444 0
DWIDTH 4 0
BBX 3 7 0 0
BITMAP
40
40
00
E0
A0
C0
A0
ENDCHAR
STARTCHAR uni0156
ENCODING 342
SWIDTH 444 0
DWIDTH 4 0
BBX 3 7 0 -3
BITMAP
E0
A0
C0
A0
00
40
40
ENDCHAR
STARTCHAR uni0157
ENCODING 343
SWIDTH 444 0
DWIDTH 4 0
BBX 3 7 0 -3
BITMAP
E0
A0
C0
A0
00
40
40
ENDCHAR
STARTCHAR Rcaron
ENCODING 344
SWIDTH 444 0
DWIDTH 4 0
BBX 3 7 0 0
BITMAP
A0
40
00
E0
A0
C0
A0
ENDCHAR
STARTCHAR rcaron
ENCODING 345
SWIDTH 444 0
DWIDTH 4 0
BBX 3 7 0 0
BITMAP
A0
40
00
E0
A0
C0
A0
ENDCHAR
STARTCHAR Sacute
ENCODING 346
SWIDTH 444 0
DWIDTH 4 0
BBX 3 7 0 0
BITMAP
20
40
00
E0
80
60
E0
ENDCHAR
STARTCHAR sacute
ENCODING 347
SWIDTH 444 0
DWIDTH 4 0
BBX 3 7 0 0
BITMAP
20
40
00
E0
80
60
E0
ENDCHAR
STARTCHAR Scircumflex
ENCODING 348
SWIDTH 444 0
DWIDTH 4 0
BBX 3 7 0 0
BITMAP
40
A0
00
E0
80
60
E0
ENDCHAR
STARTCHAR scircumflex
ENCODING 349
SWIDTH 444 0
DWIDTH 4 0
BBX 3 7 0 0
BITMAP
40
A0
00
E0
80
60
E0
ENDCHAR
STARTCHAR Scedilla
ENCODING 350
SWIDTH 444 0
DWIDTH 4 0
BBX 3 7 0 -3
BITMAP
E0
80
60
E0
00
40
40
ENDCHAR
STARTCHAR scedilla
ENCODING 351
SWIDTH 444 0
DWIDTH 4 0
BBX 3 7 0 -3
BITMAP
E0
80
60
E0
40
20
40
ENDCHAR
STARTCHAR Scaron
ENCODING 352
SWIDTH 444 0
DWIDTH 4 0
BBX 3 7 0 0
BITMAP
A0
40
00
E0
80
60
E0
ENDCHAR
STARTCHAR scaron
ENCODING 353
SWIDTH 444 0
DWIDTH 4 0
BBX 3 7 0 0
BITMAP
A0
40
00
E0
80
60
E0
ENDCHAR
STARTCHAR uni0162
ENCODING 354
SWIDTH 444 0
DWIDTH 4 0
BBX 3 6 0 -2
BITMAP
E0
40
40
40
20
40
ENDCHAR
STARTCHAR uni0163
ENCODING 355
SWIDTH 444 0
DWIDTH 4 0
BBX 3 6 0 -2
BITMAP
E0
40
40
40
20
40
ENDCHAR
STARTCHAR Tcaron
ENCODING 356
SWIDTH 444 0
DWIDTH 4 0
BBX 3 7 0 0
BITMAP
A0
E0
00
E0
40
40
40
ENDCHAR
STARTCHAR tcaron
ENCODING 357
SWIDTH 667 0
DWIDTH 6 0
BBX 5 4 0 0
BITMAP
E8
48
40
40
ENDCHAR
STARTCHAR Tbar
ENCODING 358
SWIDTH 444 0
DWIDTH 4 0
BBX 3 4 0 0
BITMAP
E0
40
E0
40
ENDCHAR
STARTCHAR tbar
ENCODING 359
SWIDTH 444 0
DWIDTH 4 0
BBX 3 4 0 0
BITMAP
E0
40
E0
40
ENDCHAR
STARTCHAR Utilde
ENCODING 360
SWIDTH 444 0
DWIDTH 4 0
BBX 4 7 -1 0
BITMAP
A0
50
00
50
50
50
70
ENDCHAR
STARTCHAR utilde
ENCODING 361
SWIDTH 444 0
DWIDTH 4 0
BBX 4 7 -1 0
BITMAP
A0
50
00
50
50
50
70
ENDCHAR
STARTCHAR Umacron
ENCODING 362
SWIDTH 444 0
DWIDTH 4 0
BBX 3 6 0 0
BITMAP
E0
00
A0
A0
A0
E0
ENDCHAR
STARTCHAR umacron
ENCODING 363
SWIDTH 444 0
DWIDTH 4 0
BBX 3 6 0 0
BITMAP
E0
00
A0
A0
A0
E0
ENDCHAR
STARTCHAR Ubreve
ENCODING 364
SWIDTH 444 0
DWIDTH 4 0
BBX 3 7 0 0
BITMAP
A0
E0
00
A0
A0
A0
E0
ENDCHAR
STARTCHAR ubreve
ENCODING 365
SWIDTH 444 0
DWIDTH 4 0
BBX 3 7 0 0
BITMAP
A0
E0
00
A0
A0
A0
E0
ENDCHAR
STARTCHAR Uring
ENCODING 366
SWIDTH 444 0
DWIDTH 4 0
BBX 3 8 0 0
BITMAP
E0
A0
E0
00
A0
A0
A0
E0
ENDCHAR
STARTCHAR uring
ENCODING 367
SWIDTH 444 0
DWIDTH 4 0
BBX 3 8 0 0
BITMAP
E0
A0
E0
00
A0
A0
A0
E0
ENDCHAR
STARTCHAR Uhungarumlaut
ENCODING 368
SWIDTH 444 0
DWIDTH 4 0
BBX 3 7 0 0
BITMAP
A0
A0
00
A0
A0
A0
E0
ENDCHAR
STARTCHAR uhungarumlaut
ENCODING 369
SWIDTH 444 0
DWIDTH 4 0
BBX 3 7 0 0
BITMAP
A0
A0
00
A0
A0
A0
E0
ENDCHAR
STARTCHAR Uogonek
ENCODING 370
SWIDTH 444 0
DWIDTH 4 0
BBX 3 7 0 -3
BITMAP
A0
A0
A0
E0
20
40
20
ENDCHAR
STARTCHAR uogonek
ENCODING 371
SWIDTH 444 0
DWIDTH 4 0
BBX 3 7 0 -3
BITMAP
A0
A0
A0
E0
20
40
20
ENDCHAR
STARTCHAR Wcircumflex
ENCODING 372
SWIDTH 444 0
DWIDTH 4 0
BBX 3 7 0 0
BITMAP
40
A0
00
A0
A0
E0
E0
ENDCHAR
STARTCHAR wcircumflex
ENCODING 373
SWIDTH 444 0
DWIDTH 4 0
BBX 3 7 0 0
BITMAP
40
A0
00
A0
A0
E0
E0
ENDCHAR
STARTCHAR Ycircumflex
ENCODING 374
SWIDTH 444 0
DWIDTH 4 0
BBX 3 7 0 0
BITMAP
40
A0
00
A0
E0
40
40
ENDCHAR
STARTCHAR ycircumflex
ENCODING 375
SWIDTH 444 0
DWIDTH 4 0
BBX 3 7 0 0
BITMAP
40
A0
00
A0
E0
40
40
ENDCHAR
STARTCHAR Ydieresis
ENCODING 376
SWIDTH 444 0
DWIDTH 4 0
BBX 3 6 0 0
BITMAP
A0
00
A0
E0
40
40
ENDCHAR
STARTCHAR Zacute
ENCODING 377
SWIDTH 444 0
DWIDTH 4 0
BBX 3 7 0 0
BITMAP
20
40
00
E0
20
C0
E0
ENDCHAR
STARTCHAR zacute
ENCODING 378
SWIDTH 444 0
DWIDTH 4 0
BBX 3 7 0 0
BITMAP
20
40
00
E0
20
C0
E0
ENDCHAR
STARTCHAR Zdotaccent
ENCODING 379
SWIDTH 444 0
DWIDTH 4 0
BBX 3 6 0 0
BITMAP
40
00
E0
20
C0
E0
ENDCHAR
STARTCHAR zdotaccent
ENCODING 380
SWIDTH 444 0
DWIDTH 4 0
BBX 3 6 0 0
BITMAP
40
00
E0
20
C0
E0
ENDCHAR
STARTCHAR Zcaron
ENCODING 381
SWIDTH 444 0
DWIDTH 4 0
BBX 3 7 0 0
BITMAP
A0
40
00
E0
20
C0
E0
ENDCHAR
STARTCHAR zcaron
ENCODING 382
SWIDTH 444 0
DWIDTH 4 0
BBX 3 7 0 0
BITMAP
A0
40
00
E0
20
C0
E0
ENDCHAR
STARTCHAR longs
ENCODING 383
SWIDTH 333 0
DWIDTH 3 0
BBX 2 4 0 0
BITMAP
C0
80
80
80
ENDCHAR
STARTCHAR florin
ENCODING 402
SWIDTH 444 0
DWIDTH 4 0
BBX 3 5 0 -1
BITMAP
60
40
E0
40
C0
ENDCHAR
STARTCHAR uni0218
ENCODING 536
SWIDTH 444 0
DWIDTH 4 0
BBX 3 7 0 -3
BITMAP
E0
80
60
E0
00
40
40
ENDCHAR
STARTCHAR uni0219
ENCODING 537
SWIDTH 444 0
DWIDTH 4 0
BBX 3 7 0 -3
BITMAP
E0
80
60
E0
00
40
40
ENDCHAR
STARTCHAR uni021A
ENCODING 538
SWIDTH 444 0
DWIDTH 4 0
BBX 3 7 0 -3
BITMAP
E0
40
40
40
00
40
40
ENDCHAR
STARTCHAR uni021B
ENCODING 539
SWIDTH 444 0
DWIDTH 4 0
BBX 3 7 0 -3
BITMAP
E0
40
40
40
00
40
40
ENDCHAR
STARTCHAR uni0251
ENCODING 593
SWIDTH 444 0
DWIDTH 4 0
BBX 3 4 0 0
BITMAP
60
A0
A0
60
ENDCHAR
STARTCHAR uni0259
ENCODING 601
SWIDTH 444 0
DWIDTH 4 0
BBX 3 4 0 0
BITMAP
E0
20
60
E0
ENDCHAR
STARTCHAR uni025B
ENCODING 603
SWIDTH 444 0
DWIDTH 4 0
BBX 3 4 0 0
BITMAP
60
C0
80
60
ENDCHAR
STARTCHAR circumflex
ENCODING 710
SWIDTH 444 0
DWIDTH 4 0
BBX 3 2 0 5
BITMAP
40
A0
ENDCHAR
STARTCHAR caron
ENCODING 711
SWIDTH 444 0
DWIDTH 4 0
BBX 3 2 0 5
BITMAP
A0
40
ENDCHAR
STARTCHAR breve
ENCODING 728
SWIDTH 444 0
DWIDTH 4 0
BBX 3 2 0 5
BITMAP
A0
E0
ENDCHAR
STARTCHAR dotaccent
ENCODING 729
SWIDTH 333 0
DWIDTH 3 0
BBX 1 1 1 5
BITMAP
80
ENDCHAR
STARTCHAR ring
ENCODING 730
SWIDTH 444 0
DWIDTH 4 0
BBX 3 3 0 4
BITMAP
E0
A0
E0
ENDCHAR
STARTCHAR ogonek
ENCODING 731
SWIDTH 444 0
DWIDTH 4 0
BBX 3 3 0 -3
BITMAP
40
80
E0
ENDCHAR
STARTCHAR tilde
ENCODING 732
SWIDTH 444 0
DWIDTH 4 0
BBX 3 2 0 5
BITMAP
60
C0
ENDCHAR
STARTCHAR hungarumlaut
ENCODING 733
SWIDTH 444 0
DWIDTH 4 0
BBX 3 2 0 5
BITMAP
A0
A0
ENDCHAR
STARTCHAR uni037C
ENCODING 892
SWIDTH 444 0
DWIDTH 4 0
BBX 3 5 0 -1
BITMAP
E0
80
A0
80
E0
ENDCHAR
STARTCHAR uni037D
ENCODING 893
SWIDTH 444 0
DWIDTH 4 0
BBX 3 5 0 -1
BITMAP
E0
20
A0
20
E0
ENDCHAR
STARTCHAR uni037E
ENCODING 894
SWIDTH 222 0
DWIDTH 2 0
BBX 1 5 0 -1
BITMAP
80
00
00
80
80
ENDCHAR
STARTCHAR Alpha
ENCODING 913
SWIDTH 444 0
DWIDTH 4 0
BBX 3 4 0 0
BITMAP
E0
A0
E0
A0
ENDCHAR
STARTCHAR Beta
ENCODING 914
SWIDTH 444 0
DWIDTH 4 0
BBX 3 4 0 0
BITMAP
C0
E0
A0
E0
ENDCHAR
STARTCHAR Gamma
ENCODING 915
SWIDTH 444 0
DWIDTH 4 0
BBX 3 4 0 0
BITMAP
E0
80
80
80
ENDCHAR
STARTCHAR uni0394
ENCODING 916
SWIDTH 444 0
DWIDTH 4 0
BBX 3 4 0 0
BITMAP
40
40
A0
E0
ENDCHAR
STARTCHAR Epsilon
ENCODING 917
SWIDTH 444 0
DWIDTH 4 0
BBX 3 4 0 0
BITMAP
E0
C0
80
E0
ENDCHAR
STARTCHAR Zeta
ENCODING 918
SWIDTH 444 0
DWIDTH 4 0
BBX 3 4 0 0
BITMAP
E0
20
C0
E0
ENDCHAR
STARTCHAR Eta
ENCODING 919
SWIDTH 444 0
DWIDTH 4 0
BBX 3 4 0 0
BITMAP
A0
E0
A0
A0
ENDCHAR
STARTCHAR Theta
ENCODING 920
SWIDTH 444 0
DWIDTH 4 0
BBX 3 4 0 0
BITMAP
E0
E0
A0
E0
ENDCHAR
STARTCHAR Iota
ENCODING 921
SWIDTH 444 0
DWIDTH 4 0
BBX 3 4 0 0
BITMAP
E0
40
40
E0
ENDCHAR
STARTCHAR Kappa
ENCODING 922
SWIDTH 444 0
DWIDTH 4 0
BBX 3 4 0 0
BITMAP
A0
C0
A0
A0
ENDCHAR
STARTCHAR Lambda
ENCODING 923
SWIDTH 444 0
DWIDTH 4 0
BBX 3 4 0 0
BITMAP
40
A0
A0
A0
ENDCHAR
STARTCHAR Mu
ENCODING 924
SWIDTH 444 0
DWIDTH 4 0
BBX 3 4 0 0
BITMAP
E0
E0
A0
A0
ENDCHAR
STARTCHAR Nu
ENCODING 925
SWIDTH 444 0
DWIDTH 4 0
BBX 3 4 0 0
BITMAP
C0
A0
A0
A0
ENDCHAR
STARTCHAR Xi
ENCODING 926
SWIDTH 444 0
DWIDTH 4 0
BBX 3 4 0 0
BITMAP
E0
40
00
E0
ENDCHAR
STARTCHAR Omicron
ENCODING 927
SWIDTH 444 0
DWIDTH 4 0
BBX 3 4 0 0
BITMAP
E0
A0
A0
E0
ENDCHAR
STARTCHAR Pi
ENCODING 928
SWIDTH 444 0
DWIDTH 4 0
BBX 3 4 0 0
BITMAP
E0
A0
A0
A0
ENDCHAR
STARTCHAR Rho
ENCODING 929
SWIDTH 444 0
DWIDTH 4 0
BBX 3 4 0 0
BITMAP
E0
A0
E0
80
ENDCHAR
STARTCHAR Sigma
ENCODING 931
SWIDTH 444 0
DWIDTH 4 0
BBX 3 5 0 0
BITMAP
E0
80
40
80
E0
ENDCHAR
STARTCHAR Tau
ENCODING 932
SWIDTH 444 0
DWIDTH 4 0
BBX 3 4 0 0
BITMAP
E0
40
40
40
ENDCHAR
STARTCHAR Upsilon
ENCODING 933
SWIDTH 444 0
DWIDTH 4 0
BBX 3 4 0 0
BITMAP
A0
E0
40
40
ENDCHAR
STARTCHAR Phi
ENCODING 934
SWIDTH 444 0
DWIDTH 4 0
BBX 3 5 0 0
BITMAP
40
E0
A0
E0
40
ENDCHAR
STARTCHAR Chi
ENCODING 935
SWIDTH 444 0
DWIDTH 4 0
BBX 3 4 0 0
BITMAP
A0
40
40
A0
ENDCHAR
STARTCHAR Psi
ENCODING 936
SWIDTH 444 0
DWIDTH 4 0
BBX 3 5 0 0
BITMAP
40
A0
E0
40
40
ENDCHAR
STARTCHAR uni03A9
ENCODING 937
SWIDTH 444 0
DWIDTH 4 0
BBX 3 4 0 0
BITMAP
E0
A0
40
A0
ENDCHAR
STARTCHAR Iotadieresis
ENCODING 938
SWIDTH 444 0
DWIDTH 4 0
BBX 3 6 0 0
BITMAP
A0
00
E0
40
40
E0
ENDCHAR
STARTCHAR Upsilondieresis
ENCODING 939
SWIDTH 444 0
DWIDTH 4 0
BBX 3 6 0 0
BITMAP
A0
00
A0
E0
40
40
ENDCHAR
STARTCHAR alphatonos
ENCODING 940
SWIDTH 444 0
DWIDTH 4 0
BBX 3 7 0 0
BITMAP
20
40
00
E0
A0
E0
A0
ENDCHAR
STARTCHAR epsilontonos
ENCODING 941
SWIDTH 444 0
DWIDTH 4 0
BBX 3 7 0 0
BITMAP
20
40
00
E0
C0
80
E0
ENDCHAR
STARTCHAR etatonos
ENCODING 942
SWIDTH 444 0
DWIDTH 4 0
BBX 3 7 0 0
BITMAP
20
40
00
A0
E0
A0
A0
ENDCHAR
STARTCHAR iotatonos
ENCODING 943
SWIDTH 444 0
DWIDTH 4 0
BBX 3 8 0 0
BITMAP
20
40
00
E0
40
40
40
E0
ENDCHAR
STARTCHAR alpha
ENCODING 945
SWIDTH 444 0
DWIDTH 4 0
BBX 3 4 0 0
BITMAP
E0
A0
E0
A0
ENDCHAR
STARTCHAR beta
ENCODING 946
SWIDTH 444 0
DWIDTH 4 0
BBX 3 4 0 0
BITMAP
C0
E0
A0
E0
ENDCHAR
STARTCHAR gamma
ENCODING 947
SWIDTH 444 0
DWIDTH 4 0
BBX 3 4 0 0
BITMAP
E0
80
80
80
ENDCHAR
STARTCHAR delta
ENCODING 948
SWIDTH 444 0
DWIDTH 4 0
BBX 3 4 0 0
BITMAP
40
40
A0
E0
ENDCHAR
STARTCHAR epsilon
ENCODING 949
SWIDTH 444 0
DWIDTH 4 0
BBX 3 4 0 0
BITMAP
E0
C0
80
E0
ENDCHAR
STARTCHAR zeta
ENCODING 950
SWIDTH 444 0
DWIDTH 4 0
BBX 3 4 0 0
BITMAP
E0
20
C0
E0
ENDCHAR
STARTCHAR eta
ENCODING 951
SWIDTH 444 0
DWIDTH 4 0
BBX 3 4 0 0
BITMAP
A0
E0
A0
A0
ENDCHAR
STARTCHAR theta
ENCODING 952
SWIDTH 444 0
DWIDTH 4 0
BBX 3 4 0 0
BITMAP
E0
E0
A0
E0
ENDCHAR
STARTCHAR lambda
ENCODING 955
SWIDTH 444 0
DWIDTH 4 0
BBX 3 4 0 0
BITMAP
80
40
40
A0
ENDCHAR
STARTCHAR pi
ENCODING 960
SWIDTH 333 0
DWIDTH 3 0
BBX 3 4 0 0
BITMAP
E0
A0
A0
A0
ENDCHAR
STARTCHAR phi
ENCODING 966
SWIDTH 444 0
DWIDTH 4 0
BBX 3 4 0 -1
BITMAP
A0
A0
E0
40
ENDCHAR
STARTCHAR chi
ENCODING 967
SWIDTH 444 0
DWIDTH 4 0
BBX 3 4 0 0
BITMAP
A0
40
40
A0
ENDCHAR
STARTCHAR phi1
ENCODING 981
SWIDTH 444 0
DWIDTH 4 0
BBX 3 5 0 0
BITMAP
40
E0
A0
E0
40
ENDCHAR
STARTCHAR uni0E3F
ENCODING 3647
SWIDTH 444 0
DWIDTH 4 0
BBX 3 6 0 -1
BITMAP
40
C0
E0
A0
E0
40
ENDCHAR
STARTCHAR uni1D05
ENCODING 7429
SWIDTH 444 0
DWIDTH 4 0
BBX 3 3 0 0
BITMAP
C0
A0
E0
ENDCHAR
STARTCHAR uni1E9E
ENCODING 7838
SWIDTH 222 0
DWIDTH 2 0
BBX 1 1 0 0
BITMAP
00
ENDCHAR
STARTCHAR quoteleft
ENCODING 8216
SWIDTH 222 0
DWIDTH 2 0
BBX 1 2 0 3
BITMAP
80
80
ENDCHAR
STARTCHAR quoteright
ENCODING 8217
SWIDTH 222 0
DWIDTH 2 0
BBX 1 2 0 3
BITMAP
80
80
ENDCHAR
STARTCHAR quotedblleft
ENCODING 8220
SWIDTH 444 0
DWIDTH 4 0
BBX 3 2 0 3
BITMAP
A0
A0
ENDCHAR
STARTCHAR quotedblright
ENCODING 8221
SWIDTH 444 0
DWIDTH 4 0
BBX 3 2 0 3
BITMAP
A0
A0
ENDCHAR
STARTCHAR dagger
ENCODING 8224
SWIDTH 444 0
DWIDTH 4 0
BBX 3 4 0 0
BITMAP
40
E0
40
40
ENDCHAR
STARTCHAR daggerdbl
ENCODING 8225
SWIDTH 444 0
DWIDTH 4 0
BBX 3 5 0 -1
BITMAP
40
E0
40
E0
40
ENDCHAR
STARTCHAR bullet
ENCODING 8226
SWIDTH 333 0
DWIDTH 3 0
BBX 2 2 0 1
BITMAP
C0
C0
ENDCHAR
STARTCHAR ellipsis
ENCODING 8230
SWIDTH 444 0
DWIDTH 4 0
BBX 3 1 0 0
BITMAP
A0
ENDCHAR
STARTCHAR guilsinglleft
ENCODING 8249
SWIDTH 333 0
DWIDTH 3 0
BBX 2 4 0 0
BITMAP
40
80
80
40
ENDCHAR
STARTCHAR guilsinglright
ENCODING 8250
SWIDTH 333 0
DWIDTH 3 0
BBX 2 4 0 0
BITMAP
80
40
40
80
ENDCHAR
STARTCHAR uni2070
ENCODING 8304
SWIDTH 444 0
DWIDTH 4 0
BBX 3 3 0 2
BITMAP
E0
A0
E0
ENDCHAR
STARTCHAR uni2074
ENCODING 8308
SWIDTH 444 0
DWIDTH 4 0
BBX 3 3 0 2
BITMAP
A0
E0
20
ENDCHAR
STARTCHAR uni2075
ENCODING 8309
SWIDTH 444 0
DWIDTH 4 0
BBX 3 3 0 2
BITMAP
60
40
C0
ENDCHAR
STARTCHAR uni2076
ENCODING 8310
SWIDTH 444 0
DWIDTH 4 0
BBX 3 3 0 2
BITMAP
E0
80
E0
ENDCHAR
STARTCHAR uni2077
ENCODING 8311
SWIDTH 444 0
DWIDTH 4 0
BBX 3 3 0 2
BITMAP
E0
20
40
ENDCHAR
STARTCHAR uni2078
ENCODING 8312
SWIDTH 444 0
DWIDTH 4 0
BBX 3 4 0 2
BITMAP
40
E0
A0
E0
ENDCHAR
STARTCHAR uni2079
ENCODING 8313
SWIDTH 444 0
DWIDTH 4 0
BBX 3 3 0 2
BITMAP
E0
20
E0
ENDCHAR
STARTCHAR uni207A
ENCODING 8314
SWIDTH 444 0
DWIDTH 4 0
BBX 3 3 0 1
BITMAP
40
E0
40
ENDCHAR
STARTCHAR uni207B
ENCODING 8315
SWIDTH 444 0
DWIDTH 4 0
BBX 3 1 0 3
BITMAP
E0
ENDCHAR
STARTCHAR uni207C
ENCODING 8316
SWIDTH 444 0
DWIDTH 4 0
BBX 3 3 0 1
BITMAP
E0
00
E0
ENDCHAR
STARTCHAR uni207D
ENCODING 8317
SWIDTH 333 0
DWIDTH 3 0
BBX 2 3 0 2
BITMAP
C0
80
C0
ENDCHAR
STARTCHAR uni207E
ENCODING 8318
SWIDTH 333 0
DWIDTH 3 0
BBX 2 3 0 2
BITMAP
C0
40
C0
ENDCHAR
STARTCHAR uni207F
ENCODING 8319
SWIDTH 444 0
DWIDTH 4 0
BBX 3 2 0 3
BITMAP
E0
A0
ENDCHAR
STARTCHAR uni2080
ENCODING 8320
SWIDTH 444 0
DWIDTH 4 0
BBX 3 3 0 -1
BITMAP
E0
A0
E0
ENDCHAR
STARTCHAR uni2081
ENCODING 8321
SWIDTH 444 0
DWIDTH 4 0
BBX 3 3 0 -1
BITMAP
C0
40
E0
ENDCHAR
STARTCHAR uni2082
ENCODING 8322
SWIDTH 444 0
DWIDTH 4 0
BBX 3 3 0 -1
BITMAP
C0
40
60
ENDCHAR
STARTCHAR uni2083
ENCODING 8323
SWIDTH 444 0
DWIDTH 4 0
BBX 3 3 0 -1
BITMAP
E0
60
E0
ENDCHAR
STARTCHAR uni2084
ENCODING 8324
SWIDTH 444 0
DWIDTH 4 0
BBX 3 3 0 -1
BITMAP
A0
E0
20
ENDCHAR
STARTCHAR uni2085
ENCODING 8325
SWIDTH 444 0
DWIDTH 4 0
BBX 3 3 0 -1
BITMAP
60
40
C0
ENDCHAR
STARTCHAR uni2086
ENCODING 8326
SWIDTH 444 0
DWIDTH 4 0
BBX 3 3 0 -1
BITMAP
E0
80
E0
ENDCHAR
STARTCHAR uni2087
ENCODING 8327
SWIDTH 444 0
DWIDTH 4 0
BBX 3 3 0 -1
BITMAP
E0
20
40
ENDCHAR
STARTCHAR uni2088
ENCODING 8328
SWIDTH 444 0
DWIDTH 4 0
BBX 3 4 0 -1
BITMAP
40
E0
A0
E0
ENDCHAR
STARTCHAR uni2089
ENCODING 8329
SWIDTH 444 0
DWIDTH 4 0
BBX 3 3 0 -1
BITMAP
E0
20
E0
ENDCHAR
STARTCHAR uni208D
ENCODING 8333
SWIDTH 333 0
DWIDTH 3 0
BBX 2 3 0 -1
BITMAP
C0
80
C0
ENDCHAR
STARTCHAR uni208E
ENCODING 8334
SWIDTH 333 0
DWIDTH 3 0
BBX 2 3 0 -1
BITMAP
C0
40
C0
ENDCHAR
STARTCHAR colonmonetary
ENCODING 8353
SWIDTH 444 0
DWIDTH 4 0
BBX 3 6 0 -1
BITMAP
40
E0
80
80
E0
40
ENDCHAR
STARTCHAR lira
ENCODING 8356
SWIDTH 222 0
DWIDTH 2 0
BBX 1 1 0 0
BITMAP
00
ENDCHAR
STARTCHAR uni20A6
ENCODING 8358
SWIDTH 556 0
DWIDTH 5 0
BBX 5 4 -1 0
BITMAP
60
50
F8
50
ENDCHAR
STARTCHAR uni20A9
ENCODING 8361
SWIDTH 556 0
DWIDTH 5 0
BBX 5 4 -1 0
BITMAP
50
D8
70
70
ENDCHAR
STARTCHAR uni20AA
ENCODING 8362
SWIDTH 667 0
DWIDTH 6 0
BBX 5 4 0 0
BITMAP
E8
88
A8
B8
ENDCHAR
STARTCHAR dong
ENCODING 8363
SWIDTH 222 0
DWIDTH 2 0
BBX 1 1 0 0
BITMAP
00
ENDCHAR
STARTCHAR Euro
ENCODING 8364
SWIDTH 556 0
DWIDTH 5 0
BBX 5 4 -1 0
BITMAP
70
F8
40
70
ENDCHAR
STARTCHAR uni20AD
ENCODING 8365
SWIDTH 222 0
DWIDTH 2 0
BBX 1 1 0 0
BITMAP
00
ENDCHAR
STARTCHAR uni20AE
ENCODING 8366
SWIDTH 444 0
DWIDTH 4 0
BBX 3 4 0 0
BITMAP
E0
40
E0
40
ENDCHAR
STARTCHAR uni20B1
ENCODING 8369
SWIDTH 444 0
DWIDTH 4 0
BBX 4 4 -1 0
BITMAP
70
D0
70
40
ENDCHAR
STARTCHAR uni20B2
ENCODING 8370
SWIDTH 444 0
DWIDTH 4 0
BBX 3 6 0 -1
BITMAP
40
E0
80
A0
E0
40
ENDCHAR
STARTCHAR uni20B3
ENCODING 8371
SWIDTH 556 0
DWIDTH 5 0
BBX 5 4 -1 0
BITMAP
70
50
F8
50
ENDCHAR
STARTCHAR uni20B5
ENCODING 8373
SWIDTH 444 0
DWIDTH 4 0
BBX 3 6 0 -1
BITMAP
40
E0
80
80
E0
40
ENDCHAR
STARTCHAR uni20B9
ENCODING 8377
SWIDTH 444 0
DWIDTH 4 0
BBX 3 4 0 0
BITMAP
E0
40
80
40
ENDCHAR
STARTCHAR uni20BA
ENCODING 8378
SWIDTH 444 0
DWIDTH 4 0
BBX 4 4 -1 0
BITMAP
60
C0
50
70
ENDCHAR
STARTCHAR uni20BD
ENCODING 8381
SWIDTH 444 0
DWIDTH 4 0
BBX 4 4 -1 0
BITMAP
70
50
F0
40
ENDCHAR
STARTCHAR uni2113
ENCODING 8467
SWIDTH 444 0
DWIDTH 4 0
BBX 3 4 0 0
BITMAP
60
E0
40
60
ENDCHAR
STARTCHAR uni2117
ENCODING 8471
SWIDTH 667 0
DWIDTH 6 0
BBX 5 5 0 0
BITMAP
70
88
88
B8
70
ENDCHAR
STARTCHAR uni2120
ENCODING 8480
SWIDTH 778 0
DWIDTH 7 0
BBX 6 4 0 2
BITMAP
60
5C
DC
14
ENDCHAR
STARTCHAR trademark
ENCODING 8482
SWIDTH 778 0
DWIDTH 7 0
BBX 6 4 0 2
BITMAP
E0
5C
5C
14
ENDCHAR
STARTCHAR Omega
ENCODING 8486
SWIDTH 444 0
DWIDTH 4 0
BBX 3 4 0 0
BITMAP
E0
A0
40
A0
ENDCHAR
STARTCHAR estimated
ENCODING 8494
SWIDTH 444 0
DWIDTH 4 0
BBX 3 4 0 0
BITMAP
E0
A0
C0
E0
ENDCHAR
STARTCHAR arrowleft
ENCODING 8592
SWIDTH 556 0
DWIDTH 5 0
BBX 4 3 0 1
BITMAP
40
F0
40
ENDCHAR
STARTCHAR arrowup
ENCODING 8593
SWIDTH 444 0
DWIDTH 4 0
BBX 3 4 0 0
BITMAP
40
E0
40
40
ENDCHAR
STARTCHAR arrowright
ENCODING 8594
SWIDTH 556 0
DWIDTH 5 0
BBX 4 3 0 1
BITMAP
20
F0
20
ENDCHAR
STARTCHAR arrowdown
ENCODING 8595
SWIDTH 444 0
DWIDTH 4 0
BBX 3 4 0 0
BITMAP
40
40
E0
40
ENDCHAR
STARTCHAR uni2198
ENCODING 8600
SWIDTH 222 0
DWIDTH 2 0
BBX 1 1 0 0
BITMAP
00
ENDCHAR
STARTCHAR partialdiff
ENCODING 8706
SWIDTH 444 0
DWIDTH 4 0
BBX 3 4 0 0
BITMAP
E0
60
A0
E0
ENDCHAR
STARTCHAR Delta
ENCODING 8710
SWIDTH 444 0
DWIDTH 4 0
BBX 3 4 0 0
BITMAP
40
A0
A0
E0
ENDCHAR
STARTCHAR product
ENCODING 8719
SWIDTH 444 0
DWIDTH 4 0
BBX 3 4 0 0
BITMAP
E0
A0
A0
A0
ENDCHAR
STARTCHAR summation
ENCODING 8721
SWIDTH 444 0
DWIDTH 4 0
BBX 3 4 0 0
BITMAP
E0
40
80
E0
ENDCHAR
STARTCHAR minus
ENCODING 8722
SWIDTH 222 0
DWIDTH 2 0
BBX 1 1 0 0
BITMAP
00
ENDCHAR
STARTCHAR infinity
ENCODING 8734
SWIDTH 667 0
DWIDTH 6 0
BBX 5 3 0 1
BITMAP
D8
A8
D8
ENDCHAR
STARTCHAR integral
ENCODING 8747
SWIDTH 444 0
DWIDTH 4 0
BBX 3 5 0 -1
BITMAP
60
40
40
40
C0
ENDCHAR
STARTCHAR approxequal
ENCODING 8776
SWIDTH 222 0
DWIDTH 2 0
BBX 1 1 0 0
BITMAP
00
ENDCHAR
STARTCHAR notequal
ENCODING 8800
SWIDTH 444 0
DWIDTH 4 0
BBX 3 5 0 0
BITMAP
20
E0
40
E0
80
ENDCHAR
STARTCHAR equivalence
ENCODING 8801
SWIDTH 444 0
DWIDTH 4 0
BBX 3 5 0 0
BITMAP
E0
00
E0
00
E0
ENDCHAR
STARTCHAR lessequal
ENCODING 8804
SWIDTH 444 0
DWIDTH 4 0
BBX 3 5 0 -1
BITMAP
60
80
60
00
E0
ENDCHAR
STARTCHAR greaterequal
ENCODING 8805
SWIDTH 444 0
DWIDTH 4 0
BBX 3 5 0 -1
BITMAP
C0
20
C0
00
E0
ENDCHAR
STARTCHAR block
ENCODING 9608
SWIDTH 444 0
DWIDTH 4 0
BBX 3 4 0 0
BITMAP
E0
E0
E0
E0
ENDCHAR
STARTCHAR filledbox
ENCODING 9632
SWIDTH 444 0
DWIDTH 4 0
BBX 3 4 0 0
BITMAP
E0
E0
E0
E0
ENDCHAR
STARTCHAR H22073
ENCODING 9633
SWIDTH 444 0
DWIDTH 4 0
BBX 3 4 0 0
BITMAP
E0
A0
A0
E0
ENDCHAR
STARTCHAR H18543
ENCODING 9642
SWIDTH 444 0
DWIDTH 4 0
BBX 3 3 0 1
BITMAP
E0
E0
E0
ENDCHAR
STARTCHAR H18551
ENCODING 9643
SWIDTH 444 0
DWIDTH 4 0
BBX 3 3 0 1
BITMAP
E0
A0
E0
ENDCHAR
STARTCHAR triagup
ENCODING 9650
SWIDTH 444 0
DWIDTH 4 0
BBX 3 4 0 0
BITMAP
40
40
E0
E0
ENDCHAR
STARTCHAR uni25B3
ENCODING 9651
SWIDTH 444 0
DWIDTH 4 0
BBX 3 4 0 0
BITMAP
40
40
A0
E0
ENDCHAR
STARTCHAR uni25B6
ENCODING 9654
SWIDTH 444 0
DWIDTH 4 0
BBX 3 4 0 0
BITMAP
80
E0
C0
80
ENDCHAR
STARTCHAR uni25B7
ENCODING 9655
SWIDTH 444 0
DWIDTH 4 0
BBX 3 4 0 0
BITMAP
80
E0
C0
80
ENDCHAR
STARTCHAR triagdn
ENCODING 9660
SWIDTH 444 0
DWIDTH 4 0
BBX 3 4 0 0
BITMAP
E0
E0
40
40
ENDCHAR
STARTCHAR uni25BD
ENCODING 9661
SWIDTH 444 0
DWIDTH 4 0
BBX 3 4 0 0
BITMAP
E0
A0
40
40
ENDCHAR
STARTCHAR uni25C0
ENCODING 9664
SWIDTH 444 0
DWIDTH 4 0
BBX 3 4 0 0
BITMAP
20
E0
60
20
ENDCHAR
STARTCHAR uni25C1
ENCODING 9665
SWIDTH 444 0
DWIDTH 4 0
BBX 3 4 0 0
BITMAP
20
E0
60
20
ENDCHAR
STARTCHAR uni25C6
ENCODING 9670
SWIDTH 444 0
DWIDTH 4 0
BBX 3 4 0 0
BITMAP
40
E0
E0
40
ENDCHAR
STARTCHAR lozenge
ENCODING 9674
SWIDTH 444 0
DWIDTH 4 0
BBX 3 4 0 0
BITMAP
40
A0
A0
40
ENDCHAR
STARTCHAR circle
ENCODING 9675
SWIDTH 444 0
DWIDTH 4 0
BBX 3 4 0 0
BITMAP
40
A0
A0
40
ENDCHAR
STARTCHAR uni25CC
ENCODING 9676
SWIDTH 444 0
DWIDTH 4 0
BBX 3 3 0 0
BITMAP
A0
00
A0
ENDCHAR
STARTCHAR invsmileface
ENCODING 9787
SWIDTH 444 0
DWIDTH 4 0
BBX 3 4 0 0
BITMAP
A0
00
A0
E0
ENDCHAR
STARTCHAR female
ENCODING 9792
SWIDTH 444 0
DWIDTH 4 0
BBX 3 6 0 -1
BITMAP
E0
A0
E0
40
E0
40
ENDCHAR
STARTCHAR male
ENCODING 9794
SWIDTH 667 0
DWIDTH 6 0
BBX 5 5 0 0
BITMAP
78
18
E8
A8
E0
ENDCHAR
STARTCHAR spade
ENCODING 9824
SWIDTH 444 0
DWIDTH 4 0
BBX 3 4 0 0
BITMAP
40
E0
40
E0
ENDCHAR
STARTCHAR club
ENCODING 9827
SWIDTH 444 0
DWIDTH 4 0
BBX 3 4 0 0
BITMAP
40
00
00
A0
ENDCHAR
STARTCHAR heart
ENCODING 9829
SWIDTH 444 0
DWIDTH 4 0
BBX 3 4 0 0
BITMAP
A0
E0
E0
40
ENDCHAR
STARTCHAR diamond
ENCODING 9830
SWIDTH 444 0
DWIDTH 4 0
BBX 3 4 0 0
BITMAP
40
E0
E0
40
ENDCHAR
STARTCHAR musicalnote
ENCODING 9834
SWIDTH 444 0
DWIDTH 4 0
BBX 3 4 0 0
BITMAP
60
40
C0
C0
ENDCHAR
STARTCHAR musicalnotedbl
ENCODING 9835
SWIDTH 667 0
DWIDTH 6 0
BBX 5 4 0 0
BITMAP
78
48
D8
D8
ENDCHAR
STARTCHAR uni266C
ENCODING 9836
SWIDTH 667 0
DWIDTH 6 0
BBX 5 6 0 0
BITMAP
78
48
78
48
D8
D8
ENDCHAR
STARTCHAR uni2713
ENCODING 10003
SWIDTH 444 0
DWIDTH 4 0
BBX 4 4 -1 0
BITMAP
10
20
A0
40
ENDCHAR
STARTCHAR uni2C64
ENCODING 11364
SWIDTH 444 0
DWIDTH 4 0
BBX 3 6 0 -2
BITMAP
E0
A0
C0
A0
80
C0
ENDCHAR
STARTCHAR uni2C6D
ENCODING 11373
SWIDTH 444 0
DWIDTH 4 0
BBX 3 4 0 0
BITMAP
60
A0
A0
E0
ENDCHAR
STARTCHAR uni2C6E
ENCODING 11374
SWIDTH 444 0
DWIDTH 4 0
BBX 3 6 0 -2
BITMAP
E0
E0
A0
A0
20
60
ENDCHAR
STARTCHAR uni2C6F
ENCODING 11375
SWIDTH 444 0
DWIDTH 4 0
BBX 3 4 0 0
BITMAP
A0
E0
A0
E0
ENDCHAR
STARTCHAR uni2C70
ENCODING 11376
SWIDTH 444 0
DWIDTH 4 0
BBX 3 4 0 0
BITMAP
E0
A0
A0
C0
ENDCHAR
STARTCHAR uni3000
ENCODING 12288
SWIDTH 1778 0
DWIDTH 16 0
BBX 1 1 0 0
BITMAP
00
ENDCHAR
STARTCHAR uniA71D
ENCODING 42781
SWIDTH 222 0
DWIDTH 2 0
BBX 1 4 0 2
BITMAP
80
80
00
80
ENDCHAR
STARTCHAR uniA78A
ENCODING 42890
SWIDTH 222 0
DWIDTH 2 0
BBX 1 1 0 0
BITMAP
00
ENDCHAR
STARTCHAR uniA78D
ENCODING 42893
SWIDTH 444 0
DWIDTH 4 0
BBX 3 4 0 0
BITMAP
A0
E0
20
20
ENDCHAR
STARTCHAR uniFFFD
ENCODING 65533
SWIDTH 444 0
DWIDTH 4 0
BBX 3 4 0 0
BITMAP
E0
20
00
40
ENDCHAR
STARTCHAR .notdef
ENCODING -1
SWIDTH 111 0
DWIDTH 1 0
BBX 1 1 0 0
BITMAP
00
ENDCHAR
STARTCHAR glyph00001
ENCODING -1
SWIDTH 111 0
DWIDTH 1 0
BBX 1 1 0 0
BITMAP
00
ENDCHAR
ENDFONT
