STARTFONT 2.1
FONT NanoSquareO-11px
SIZE 11 75 75
FONTBOUNDINGBOX 12 11 -1 -2
STARTPROPERTIES 5
PIXEL_SIZE 11
FONT_ASCENT 9
FONT_DESCENT 2
CHARSET_REGISTRY "ISO10646"
CHARSET_ENCODING "1"
ENDPROPERTIES
CHARS 125
STARTCHAR space
ENCODING 32
SWIDTH 455 0
DWIDTH 5 0
BBX 1 1 0 0
BITMAP
00
ENDCHAR
STARTCHAR exclam
ENCODING 33
SWIDTH 364 0
DWIDTH 4 0
BBX 3 6 0 0
BITMAP
E0
A0
A0
E0
A0
E0
ENDCHAR
STARTCHAR quotedbl
ENCODING 34
SWIDTH 545 0
DWIDTH 6 0
BBX 5 4 0 4
BITMAP
F8
A8
A8
F8
ENDCHAR
STARTCHAR numbersign
ENCODING 35
SWIDTH 727 0
DWIDTH 8 0
BBX 7 7 0 0
BITMAP
7C
D6
82
D6
82
D6
7C
ENDCHAR
STARTCHAR dollar
ENCODING 36
SWIDTH 545 0
DWIDTH 6 0
BBX 5 8 0 -1
BITMAP
70
D8
88
98
C8
88
D8
70
ENDCHAR
STARTCHAR percent
ENCODING 37
SWIDTH 636 0
DWIDTH 7 0
BBX 6 6 0 0
BITMAP
EC
B4
E8
5C
B4
DC
ENDCHAR
STARTCHAR ampersand
ENCODING 38
SWIDTH 636 0
DWIDTH 7 0
BBX 6 6 0 0
BITMAP
F0
98
88
AC
94
FC
ENDCHAR
STARTCHAR quotesingle
ENCODING 39
SWIDTH 364 0
DWIDTH 4 0
BBX 3 4 0 4
BITMAP
E0
A0
A0
E0
ENDCHAR
STARTCHAR parenleft
ENCODING 40
SWIDTH 455 0
DWIDTH 5 0
BBX 4 6 0 0
BITMAP
70
D0
A0
A0
D0
70
ENDCHAR
STARTCHAR parenright
ENCODING 41
SWIDTH 455 0
DWIDTH 5 0
BBX 4 6 0 0
BITMAP
E0
B0
50
50
B0
E0
ENDCHAR
STARTCHAR asterisk
ENCODING 42
SWIDTH 545 0
DWIDTH 6 0
BBX 5 5 0 2
BITMAP
F8
A8
D8
A8
F8
ENDCHAR
STARTCHAR plus
ENCODING 43
SWIDTH 545 0
DWIDTH 6 0
BBX 5 5 0 0
BITMAP
70
D8
88
D8
70
ENDCHAR
STARTCHAR comma
ENCODING 44
SWIDTH 364 0
DWIDTH 4 0
BBX 3 4 0 -1
BITMAP
E0
A0
A0
E0
ENDCHAR
STARTCHAR hyphen
ENCODING 45
SWIDTH 545 0
DWIDTH 6 0
BBX 5 3 0 2
BITMAP
F8
88
F8
ENDCHAR
STARTCHAR period
ENCODING 46
SWIDTH 364 0
DWIDTH 4 0
BBX 3 3 0 0
BITMAP
E0
A0
E0
ENDCHAR
STARTCHAR slash
ENCODING 47
SWIDTH 455 0
DWIDTH 5 0
BBX 4 6 0 0
BITMAP
70
50
50
A0
A0
E0
ENDCHAR
STARTCHAR zero
ENCODING 48
SWIDTH 545 0
DWIDTH 6 0
BBX 5 6 0 0
BITMAP
F8
88
A8
A8
88
F8
ENDCHAR
STARTCHAR one
ENCODING 49
SWIDTH 545 0
DWIDTH 6 0
BBX 5 6 0 0
BITMAP
F0
90
50
58
88
F8
ENDCHAR
STARTCHAR two
ENCODING 50
SWIDTH 545 0
DWIDTH 6 0
BBX 5 6 0 0
BITMAP
F8
88
E8
98
88
F8
ENDCHAR
STARTCHAR three
ENCODING 51
SWIDTH 545 0
DWIDTH 6 0
BBX 5 6 0 0
BITMAP
F8
88
48
68
88
F8
ENDCHAR
STARTCHAR four
ENCODING 52
SWIDTH 545 0
DWIDTH 6 0
BBX 5 6 0 0
BITMAP
F8
A8
88
E8
28
38
ENDCHAR
STARTCHAR five
ENCODING 53
SWIDTH 545 0
DWIDTH 6 0
BBX 5 6 0 0
BITMAP
F8
88
B8
C8
88
F8
ENDCHAR
STARTCHAR six
ENCODING 54
SWIDTH 545 0
DWIDTH 6 0
BBX 5 6 0 0
BITMAP
F8
88
B8
88
88
F8
ENDCHAR
STARTCHAR seven
ENCODING 55
SWIDTH 545 0
DWIDTH 6 0
BBX 5 6 0 0
BITMAP
F8
88
E8
28
28
38
ENDCHAR
STARTCHAR eight
ENCODING 56
SWIDTH 545 0
DWIDTH 6 0
BBX 5 6 0 0
BITMAP
F8
88
88
A8
88
F8
ENDCHAR
STARTCHAR nine
ENCODING 57
SWIDTH 545 0
DWIDTH 6 0
BBX 5 6 0 0
BITMAP
F8
88
88
E8
88
F8
ENDCHAR
STARTCHAR colon
ENCODING 58
SWIDTH 364 0
DWIDTH 4 0
BBX 3 7 0 0
BITMAP
E0
A0
E0
00
E0
A0
E0
ENDCHAR
STARTCHAR semicolon
ENCODING 59
SWIDTH 364 0
DWIDTH 4 0
BBX 3 9 0 -2
BITMAP
E0
A0
E0
00
00
E0
A0
A0
E0
ENDCHAR
STARTCHAR less
ENCODING 60
SWIDTH 455 0
DWIDTH 5 0
BBX 4 5 0 0
BITMAP
70
D0
B0
D0
70
ENDCHAR
STARTCHAR equal
ENCODING 61
SWIDTH 455 0
DWIDTH 5 0
BBX 4 5 0 0
BITMAP
F0
90
F0
90
F0
ENDCHAR
STARTCHAR greater
ENCODING 62
SWIDTH 455 0
DWIDTH 5 0
BBX 4 5 0 0
BITMAP
E0
B0
D0
B0
E0
ENDCHAR
STARTCHAR question
ENCODING 63
SWIDTH 545 0
DWIDTH 6 0
BBX 5 6 0 0
BITMAP
F8
88
E8
78
50
70
ENDCHAR
STARTCHAR at
ENCODING 64
SWIDTH 636 0
DWIDTH 7 0
BBX 6 6 0 0
BITMAP
FC
84
A4
BC
84
FC
ENDCHAR
STARTCHAR A
ENCODING 65
SWIDTH 545 0
DWIDTH 6 0
BBX 5 6 0 0
BITMAP
F8
88
A8
88
A8
F8
ENDCHAR
STARTCHAR B
ENCODING 66
SWIDTH 545 0
DWIDTH 6 0
BBX 5 6 0 0
BITMAP
F0
98
88
A8
88
F8
ENDCHAR
STARTCHAR C
ENCODING 67
SWIDTH 545 0
DWIDTH 6 0
BBX 5 6 0 0
BITMAP
F8
88
B8
B8
88
F8
ENDCHAR
STARTCHAR D
ENCODING 68
SWIDTH 545 0
DWIDTH 6 0
BBX 5 6 0 0
BITMAP
F0
98
A8
A8
98
F0
ENDCHAR
STARTCHAR E
ENCODING 69
SWIDTH 545 0
DWIDTH 6 0
BBX 5 6 0 0
BITMAP
F8
88
98
B8
88
F8
ENDCHAR
STARTCHAR F
ENCODING 70
SWIDTH 545 0
DWIDTH 6 0
BBX 5 6 0 0
BITMAP
F8
88
B8
90
B0
E0
ENDCHAR
STARTCHAR G
ENCODING 71
SWIDTH 545 0
DWIDTH 6 0
BBX 5 6 0 0
BITMAP
F8
88
B8
A8
88
F8
ENDCHAR
STARTCHAR H
ENCODING 72
SWIDTH 545 0
DWIDTH 6 0
BBX 5 6 0 0
BITMAP
F8
A8
88
A8
A8
F8
ENDCHAR
STARTCHAR I
ENCODING 73
SWIDTH 545 0
DWIDTH 6 0
BBX 5 6 0 0
BITMAP
F8
88
50
50
88
F8
ENDCHAR
STARTCHAR J
ENCODING 74
SWIDTH 545 0
DWIDTH 6 0
BBX 5 6 0 0
BITMAP
F8
88
58
50
90
F0
ENDCHAR
STARTCHAR K
ENCODING 75
SWIDTH 545 0
DWIDTH 6 0
BBX 5 6 0 0
BITMAP
F8
A8
98
A8
A8
F8
ENDCHAR
STARTCHAR L
ENCODING 76
SWIDTH 545 0
DWIDTH 6 0
BBX 5 6 0 0
BITMAP
E0
A0
A0
B8
88
F8
ENDCHAR
STARTCHAR M
ENCODING 77
SWIDTH 545 0
DWIDTH 6 0
BBX 5 6 0 0
BITMAP
F8
88
88
A8
A8
F8
ENDCHAR
STARTCHAR N
ENCODING 78
SWIDTH 545 0
DWIDTH 6 0
BBX 5 6 0 0
BITMAP
F0
98
A8
A8
A8
F8
ENDCHAR
STARTCHAR O
ENCODING 79
SWIDTH 545 0
DWIDTH 6 0
BBX 5 6 0 0
BITMAP
F8
88
A8
A8
88
F8
ENDCHAR
STARTCHAR P
ENCODING 80
SWIDTH 545 0
DWIDTH 6 0
BBX 5 6 0 0
BITMAP
F8
88
A8
88
B8
E0
ENDCHAR
STARTCHAR Q
ENCODING 81
SWIDTH 545 0
DWIDTH 6 0
BBX 5 7 0 -1
BITMAP
F8
88
A8
A8
88
E8
38
ENDCHAR
STARTCHAR R
ENCODING 82
SWIDTH 545 0
DWIDTH 6 0
BBX 5 6 0 0
BITMAP
F8
88
A8
98
A8
F8
ENDCHAR
STARTCHAR S
ENCODING 83
SWIDTH 545 0
DWIDTH 6 0
BBX 5 6 0 0
BITMAP
F8
88
B8
C8
88
F8
ENDCHAR
STARTCHAR T
ENCODING 84
SWIDTH 545 0
DWIDTH 6 0
BBX 5 6 0 0
BITMAP
F8
88
D8
50
50
70
ENDCHAR
STARTCHAR U
ENCODING 85
SWIDTH 545 0
DWIDTH 6 0
BBX 5 6 0 0
BITMAP
F8
A8
A8
A8
88
F8
ENDCHAR
STARTCHAR V
ENCODING 86
SWIDTH 545 0
DWIDTH 6 0
BBX 5 6 0 0
BITMAP
F8
A8
A8
A8
D8
70
ENDCHAR
STARTCHAR W
ENCODING 87
SWIDTH 545 0
DWIDTH 6 0
BBX 5 6 0 0
BITMAP
F8
A8
A8
88
88
F8
ENDCHAR
STARTCHAR X
ENCODING 88
SWIDTH 545 0
DWIDTH 6 0
BBX 5 6 0 0
BITMAP
F8
A8
D8
A8
A8
F8
ENDCHAR
STARTCHAR Y
ENCODING 89
SWIDTH 545 0
DWIDTH 6 0
BBX 5 6 0 0
BITMAP
F8
A8
88
D8
50
70
ENDCHAR
STARTCHAR Z
ENCODING 90
SWIDTH 545 0
DWIDTH 6 0
BBX 5 6 0 0
BITMAP
F8
88
E8
98
88
F8
ENDCHAR
STARTCHAR bracketleft
ENCODING 91
SWIDTH 455 0
DWIDTH 5 0
BBX 4 6 0 0
BITMAP
F0
90
A0
A0
90
F0
ENDCHAR
STARTCHAR backslash
ENCODING 92
SWIDTH 636 0
DWIDTH 7 0
BBX 6 6 0 0
BITMAP
C0
A0
50
28
14
0C
ENDCHAR
STARTCHAR bracketright
ENCODING 93
SWIDTH 455 0
DWIDTH 5 0
BBX 4 6 0 0
BITMAP
F0
90
D0
D0
90
F0
ENDCHAR
STARTCHAR asciicircum
ENCODING 94
SWIDTH 545 0
DWIDTH 6 0
BBX 5 4 0 4
BITMAP
70
D8
A8
F8
ENDCHAR
STARTCHAR underscore
ENCODING 95
SWIDTH 727 0
DWIDTH 8 0
BBX 7 3 0 0
BITMAP
FE
82
FE
ENDCHAR
STARTCHAR grave
ENCODING 96
SWIDTH 455 0
DWIDTH 5 0
BBX 4 4 0 4
BITMAP
C0
A0
50
30
ENDCHAR
STARTCHAR a
ENCODING 97
SWIDTH 545 0
DWIDTH 6 0
BBX 5 6 0 0
BITMAP
F8
88
A8
88
A8
F8
ENDCHAR
STARTCHAR b
ENCODING 98
SWIDTH 545 0
DWIDTH 6 0
BBX 5 6 0 0
BITMAP
F0
98
88
A8
88
F8
ENDCHAR
STARTCHAR c
ENCODING 99
SWIDTH 545 0
DWIDTH 6 0
BBX 5 6 0 0
BITMAP
F8
88
B8
B8
88
F8
ENDCHAR
STARTCHAR d
ENCODING 100
SWIDTH 545 0
DWIDTH 6 0
BBX 5 6 0 0
BITMAP
F0
98
A8
A8
98
F0
ENDCHAR
STARTCHAR e
ENCODING 101
SWIDTH 545 0
DWIDTH 6 0
BBX 5 6 0 0
BITMAP
F8
88
98
B8
88
F8
ENDCHAR
STARTCHAR f
ENCODING 102
SWIDTH 545 0
DWIDTH 6 0
BBX 5 6 0 0
BITMAP
F8
88
B8
90
B0
E0
ENDCHAR
STARTCHAR g
ENCODING 103
SWIDTH 545 0
DWIDTH 6 0
BBX 5 6 0 0
BITMAP
F8
88
B8
A8
88
F8
ENDCHAR
STARTCHAR h
ENCODING 104
SWIDTH 545 0
DWIDTH 6 0
BBX 5 6 0 0
BITMAP
F8
A8
88
A8
A8
F8
ENDCHAR
STARTCHAR i
ENCODING 105
SWIDTH 545 0
DWIDTH 6 0
BBX 5 6 0 0
BITMAP
F8
88
50
50
88
F8
ENDCHAR
STARTCHAR j
ENCODING 106
SWIDTH 545 0
DWIDTH 6 0
BBX 5 6 0 0
BITMAP
38
28
28
E8
88
F8
ENDCHAR
STARTCHAR k
ENCODING 107
SWIDTH 545 0
DWIDTH 6 0
BBX 5 6 0 0
BITMAP
F8
A8
98
A8
A8
F8
ENDCHAR
STARTCHAR l
ENCODING 108
SWIDTH 545 0
DWIDTH 6 0
BBX 5 6 0 0
BITMAP
E0
A0
A0
B8
88
F8
ENDCHAR
STARTCHAR m
ENCODING 109
SWIDTH 545 0
DWIDTH 6 0
BBX 5 6 0 0
BITMAP
F8
88
88
A8
A8
F8
ENDCHAR
STARTCHAR n
ENCODING 110
SWIDTH 545 0
DWIDTH 6 0
BBX 5 6 0 0
BITMAP
F0
98
A8
A8
A8
F8
ENDCHAR
STARTCHAR o
ENCODING 111
SWIDTH 545 0
DWIDTH 6 0
BBX 5 6 0 0
BITMAP
F8
88
A8
A8
88
F8
ENDCHAR
STARTCHAR p
ENCODING 112
SWIDTH 545 0
DWIDTH 6 0
BBX 5 6 0 0
BITMAP
F8
88
A8
88
B8
E0
ENDCHAR
STARTCHAR q
ENCODING 113
SWIDTH 545 0
DWIDTH 6 0
BBX 5 7 0 -1
BITMAP
F8
88
A8
A8
88
D8
70
ENDCHAR
STARTCHAR r
ENCODING 114
SWIDTH 545 0
DWIDTH 6 0
BBX 5 6 0 0
BITMAP
F8
88
A8
98
A8
F8
ENDCHAR
STARTCHAR s
ENCODING 115
SWIDTH 545 0
DWIDTH 6 0
BBX 5 6 0 0
BITMAP
F8
88
B8
C8
88
F8
ENDCHAR
STARTCHAR t
ENCODING 116
SWIDTH 545 0
DWIDTH 6 0
BBX 5 6 0 0
BITMAP
F8
88
D8
50
50
70
ENDCHAR
STARTCHAR u
ENCODING 117
SWIDTH 545 0
DWIDTH 6 0
BBX 5 6 0 0
BITMAP
F8
A8
A8
A8
88
F8
ENDCHAR
STARTCHAR v
ENCODING 118
SWIDTH 545 0
DWIDTH 6 0
BBX 5 6 0 0
BITMAP
F8
A8
A8
A8
D8
70
ENDCHAR
STARTCHAR w
ENCODING 119
SWIDTH 545 0
DWIDTH 6 0
BBX 5 6 0 0
BITMAP
F8
A8
A8
88
88
F8
ENDCHAR
STARTCHAR x
ENCODING 120
SWIDTH 545 0
DWIDTH 6 0
BBX 5 6 0 0
BITMAP
F8
A8
D8
A8
A8
F8
ENDCHAR
STARTCHAR y
ENCODING 121
SWIDTH 545 0
DWIDTH 6 0
BBX 5 6 0 0
BITMAP
F8
A8
88
D8
50
70
ENDCHAR
STARTCHAR z
ENCODING 122
SWIDTH 545 0
DWIDTH 6 0
BBX 5 6 0 0
BITMAP
F8
88
E8
98
88
F8
ENDCHAR
STARTCHAR braceleft
ENCODING 123
SWIDTH 545 0
DWIDTH 6 0
BBX 5 7 0 0
BITMAP
78
48
D0
90
D0
48
78
ENDCHAR
STARTCHAR bar
ENCODING 124
SWIDTH 364 0
DWIDTH 4 0
BBX 3 6 0 0
BITMAP
E0
A0
A0
A0
A0
E0
ENDCHAR
STARTCHAR braceright
ENCODING 125
SWIDTH 545 0
DWIDTH 6 0
BBX 5 7 0 0
BITMAP
F0
90
58
48
58
90
F0
ENDCHAR
STARTCHAR asciitilde
ENCODING 126
SWIDTH 636 0
DWIDTH 7 0
BBX 6 4 0 1
BITMAP
FC
94
A4
FC
ENDCHAR
STARTCHAR uni00A0
ENCODING 160
SWIDTH 455 0
DWIDTH 5 0
BBX 1 1 0 0
BITMAP
00
ENDCHAR
STARTCHAR exclamdown
ENCODING 161
SWIDTH 364 0
DWIDTH 4 0
BBX 3 6 0 -2
BITMAP
E0
A0
E0
A0
A0
E0
ENDCHAR
STARTCHAR cent
ENCODING 162
SWIDTH 545 0
DWIDTH 6 0
BBX 5 8 0 -1
BITMAP
70
D8
88
B0
B0
88
D8
70
ENDCHAR
STARTCHAR sterling
ENCODING 163
SWIDTH 636 0
DWIDTH 7 0
BBX 7 6 -1 0
BITMAP
7C
E6
82
DE
44
7C
ENDCHAR
STARTCHAR currency
ENCODING 164
SWIDTH 636 0
DWIDTH 7 0
BBX 6 6 0 0
BITMAP
FC
B4
CC
CC
B4
FC
ENDCHAR
STARTCHAR brokenbar
ENCODING 166
SWIDTH 364 0
DWIDTH 4 0
BBX 3 10 0 -2
BITMAP
E0
A0
A0
E0
00
00
E0
A0
A0
E0
ENDCHAR
STARTCHAR section
ENCODING 167
SWIDTH 545 0
DWIDTH 6 0
BBX 5 9 0 0
BITMAP
F8
88
B8
C8
88
A8
C8
88
F8
ENDCHAR
STARTCHAR dieresis
ENCODING 168
SWIDTH 545 0
DWIDTH 6 0
BBX 5 3 0 5
BITMAP
F8
A8
F8
ENDCHAR
STARTCHAR copyright
ENCODING 169
SWIDTH 636 0
DWIDTH 7 0
BBX 6 6 0 0
BITMAP
FC
84
BC
BC
84
FC
ENDCHAR
STARTCHAR degree
ENCODING 176
SWIDTH 545 0
DWIDTH 6 0
BBX 5 5 0 2
BITMAP
F8
88
A8
88
F8
ENDCHAR
STARTCHAR uni00B9
ENCODING 185
SWIDTH 545 0
DWIDTH 6 0
BBX 5 5 0 2
BITMAP
F0
90
D8
88
F8
ENDCHAR
STARTCHAR AE
ENCODING 198
SWIDTH 727 0
DWIDTH 8 0
BBX 7 6 0 0
BITMAP
FE
82
A6
8E
A2
FE
ENDCHAR
STARTCHAR ae
ENCODING 230
SWIDTH 727 0
DWIDTH 8 0
BBX 7 6 0 0
BITMAP
FE
82
A6
8E
A2
FE
ENDCHAR
STARTCHAR divide
ENCODING 247
SWIDTH 545 0
DWIDTH 6 0
BBX 5 7 0 0
BITMAP
70
50
F8
88
F8
50
70
ENDCHAR
STARTCHAR IJ
ENCODING 306
SWIDTH 1091 0
DWIDTH 12 0
BBX 11 6 0 0
BITMAP
FBE0
8A20
5160
5140
8A40
FBC0
ENDCHAR
STARTCHAR ij
ENCODING 307
SWIDTH 1091 0
DWIDTH 12 0
BBX 11 6 0 0
BITMAP
F8E0
88A0
50A0
53A0
8A20
FBE0
ENDCHAR
STARTCHAR OE
ENCODING 338
SWIDTH 727 0
DWIDTH 8 0
BBX 7 6 0 0
BITMAP
FE
82
A6
AE
82
FE
ENDCHAR
STARTCHAR oe
ENCODING 339
SWIDTH 727 0
DWIDTH 8 0
BBX 7 6 0 0
BITMAP
FE
82
A6
AE
82
FE
ENDCHAR
STARTCHAR uni0251
ENCODING 593
SWIDTH 545 0
DWIDTH 6 0
BBX 5 6 0 0
BITMAP
78
C8
A8
A8
C8
78
ENDCHAR
STARTCHAR uni0259
ENCODING 601
SWIDTH 545 0
DWIDTH 6 0
BBX 5 6 0 0
BITMAP
F8
88
E8
C8
88
F8
ENDCHAR
STARTCHAR uni025B
ENCODING 603
SWIDTH 545 0
DWIDTH 6 0
BBX 5 6 0 0
BITMAP
78
C8
98
B8
C8
78
ENDCHAR
STARTCHAR Euro
ENCODING 8364
SWIDTH 545 0
DWIDTH 6 0
BBX 5 6 0 0
BITMAP
F8
88
B0
B0
88
F8
ENDCHAR
STARTCHAR trademark
ENCODING 8482
SWIDTH 909 0
DWIDTH 10 0
BBX 9 5 0 3
BITMAP
FF80
8880
D880
5A80
7F80
ENDCHAR
STARTCHAR infinity
ENCODING 8734
SWIDTH 727 0
DWIDTH 8 0
BBX 7 5 0 0
BITMAP
FE
92
AA
92
FE
ENDCHAR
STARTCHAR equivalence
ENCODING 8801
SWIDTH 545 0
DWIDTH 6 0
BBX 5 7 0 0
BITMAP
F8
88
F8
88
F8
88
F8
ENDCHAR
STARTCHAR block
ENCODING 9608
SWIDTH 545 0
DWIDTH 6 0
BBX 5 6 0 0
BITMAP
F8
F8
F8
F8
F8
F8
ENDCHAR
STARTCHAR invsmileface
ENCODING 9787
SWIDTH 545 0
DWIDTH 6 0
BBX 5 6 0 0
BITMAP
F8
A8
F8
A8
88
F8
ENDCHAR
STARTCHAR uni3000
ENCODING 12288
SWIDTH 1455 0
DWIDTH 16 0
BBX 1 1 0 0
BITMAP
00
ENDCHAR
STARTCHAR .notdef
ENCODING -1
SWIDTH 91 0
DWIDTH 1 0
BBX 1 1 0 0
BITMAP
00
ENDCHAR
STARTCHAR glyph00001
ENCODING -1
SWIDTH 91 0
DWIDTH 1 0
BBX 1 1 0 0
BITMAP
00
ENDCHAR
ENDFONT
