STARTFONT 2.1
FONT Superwide-10px
SIZE 10 75 75
FONTBOUNDINGBOX 10 10 -1 -2
STARTPROPERTIES 5
PIXEL_SIZE 10
FONT_ASCENT 8
FONT_DESCENT 2
CHARSET_REGISTRY "ISO10646"
CHARSET_ENCODING "1"
ENDPROPERTIES
CHARS 106
STARTCHAR space
ENCODING 32
SWIDTH 500 0
DWIDTH 5 0
BBX 1 1 0 0
BITMAP
00
ENDCHAR
STARTCHAR exclam
ENCODING 33
SWIDTH 300 0
DWIDTH 3 0
BBX 2 7 0 0
BITMAP
40
C0
C0
C0
00
C0
C0
ENDCHAR
STARTCHAR quotedbl
ENCODING 34
SWIDTH 400 0
DWIDTH 4 0
BBX 3 2 0 5
BITMAP
A0
A0
ENDCHAR
STARTCHAR numbersign
ENCODING 35
SWIDTH 700 0
DWIDTH 7 0
BBX 6 5 0 0
BITMAP
48
FC
48
FC
48
ENDCHAR
STARTCHAR dollar
ENCODING 36
SWIDTH 800 0
DWIDTH 8 0
BBX 7 9 0 -1
BITMAP
08
7C
CA
C8
7C
12
D2
7C
10
ENDCHAR
STARTCHAR percent
ENCODING 37
SWIDTH 600 0
DWIDTH 6 0
BBX 5 6 0 0
BITMAP
D8
D8
30
60
D8
D8
ENDCHAR
STARTCHAR ampersand
ENCODING 38
SWIDTH 800 0
DWIDTH 8 0
BBX 7 7 0 0
BITMAP
78
C4
C0
FE
C4
C4
78
ENDCHAR
STARTCHAR quotesingle
ENCODING 39
SWIDTH 200 0
DWIDTH 2 0
BBX 1 2 0 5
BITMAP
80
80
ENDCHAR
STARTCHAR parenleft
ENCODING 40
SWIDTH 500 0
DWIDTH 5 0
BBX 4 7 0 0
BITMAP
70
C0
C0
C0
C0
C0
70
ENDCHAR
STARTCHAR parenright
ENCODING 41
SWIDTH 500 0
DWIDTH 5 0
BBX 4 7 0 0
BITMAP
E0
30
30
30
30
30
E0
ENDCHAR
STARTCHAR asterisk
ENCODING 42
SWIDTH 500 0
DWIDTH 5 0
BBX 3 4 1 3
BITMAP
40
E0
40
A0
ENDCHAR
STARTCHAR plus
ENCODING 43
SWIDTH 600 0
DWIDTH 6 0
BBX 5 5 0 1
BITMAP
20
20
F8
20
20
ENDCHAR
STARTCHAR comma
ENCODING 44
SWIDTH 300 0
DWIDTH 3 0
BBX 2 4 0 -2
BITMAP
C0
C0
40
80
ENDCHAR
STARTCHAR hyphen
ENCODING 45
SWIDTH 500 0
DWIDTH 5 0
BBX 4 1 0 3
BITMAP
F0
ENDCHAR
STARTCHAR period
ENCODING 46
SWIDTH 200 0
DWIDTH 2 0
BBX 1 1 0 0
BITMAP
80
ENDCHAR
STARTCHAR slash
ENCODING 47
SWIDTH 700 0
DWIDTH 7 0
BBX 6 7 0 0
BITMAP
04
0C
18
30
60
C0
80
ENDCHAR
STARTCHAR zero
ENCODING 48
SWIDTH 800 0
DWIDTH 8 0
BBX 7 7 0 0
BITMAP
7C
C2
C6
CA
D2
E2
7C
ENDCHAR
STARTCHAR one
ENCODING 49
SWIDTH 700 0
DWIDTH 7 0
BBX 6 7 0 0
BITMAP
F0
30
30
30
30
30
FC
ENDCHAR
STARTCHAR two
ENCODING 50
SWIDTH 700 0
DWIDTH 7 0
BBX 6 7 0 0
BITMAP
78
8C
18
30
60
C0
FC
ENDCHAR
STARTCHAR three
ENCODING 51
SWIDTH 700 0
DWIDTH 7 0
BBX 6 7 0 0
BITMAP
F8
0C
0C
78
0C
0C
F8
ENDCHAR
STARTCHAR four
ENCODING 52
SWIDTH 700 0
DWIDTH 7 0
BBX 6 7 0 0
BITMAP
C4
C4
C4
FC
04
04
04
ENDCHAR
STARTCHAR five
ENCODING 53
SWIDTH 700 0
DWIDTH 7 0
BBX 6 7 0 0
BITMAP
FC
C0
C0
F8
0C
0C
F8
ENDCHAR
STARTCHAR six
ENCODING 54
SWIDTH 700 0
DWIDTH 7 0
BBX 6 7 0 0
BITMAP
78
C4
C0
F8
C4
C4
78
ENDCHAR
STARTCHAR seven
ENCODING 55
SWIDTH 700 0
DWIDTH 7 0
BBX 6 7 0 0
BITMAP
FC
0C
0C
18
30
60
C0
ENDCHAR
STARTCHAR eight
ENCODING 56
SWIDTH 700 0
DWIDTH 7 0
BBX 6 7 0 0
BITMAP
78
C4
78
C4
C4
C4
78
ENDCHAR
STARTCHAR nine
ENCODING 57
SWIDTH 700 0
DWIDTH 7 0
BBX 6 7 0 0
BITMAP
78
8C
8C
7C
0C
8C
78
ENDCHAR
STARTCHAR colon
ENCODING 58
SWIDTH 300 0
DWIDTH 3 0
BBX 2 6 0 0
BITMAP
C0
C0
00
00
C0
C0
ENDCHAR
STARTCHAR semicolon
ENCODING 59
SWIDTH 300 0
DWIDTH 3 0
BBX 2 8 0 -2
BITMAP
C0
C0
00
00
C0
C0
40
80
ENDCHAR
STARTCHAR less
ENCODING 60
SWIDTH 600 0
DWIDTH 6 0
BBX 5 5 0 1
BITMAP
18
70
C0
70
18
ENDCHAR
STARTCHAR equal
ENCODING 61
SWIDTH 600 0
DWIDTH 6 0
BBX 5 3 0 3
BITMAP
F8
00
F8
ENDCHAR
STARTCHAR greater
ENCODING 62
SWIDTH 600 0
DWIDTH 6 0
BBX 5 5 0 1
BITMAP
C0
70
18
70
C0
ENDCHAR
STARTCHAR question
ENCODING 63
SWIDTH 700 0
DWIDTH 7 0
BBX 6 7 0 0
BITMAP
78
C4
C4
08
30
00
30
ENDCHAR
STARTCHAR at
ENCODING 64
SWIDTH 1000 0
DWIDTH 10 0
BBX 8 8 1 0
BITMAP
3C
42
9D
A5
A5
9F
40
3C
ENDCHAR
STARTCHAR A
ENCODING 65
SWIDTH 800 0
DWIDTH 8 0
BBX 7 7 0 0
BITMAP
7C
C2
C2
FE
C2
C2
C2
ENDCHAR
STARTCHAR B
ENCODING 66
SWIDTH 800 0
DWIDTH 8 0
BBX 7 7 0 0
BITMAP
FC
C2
C2
FC
C2
C2
FC
ENDCHAR
STARTCHAR C
ENCODING 67
SWIDTH 800 0
DWIDTH 8 0
BBX 7 7 0 0
BITMAP
7E
C0
C0
C0
C0
C0
7E
ENDCHAR
STARTCHAR D
ENCODING 68
SWIDTH 800 0
DWIDTH 8 0
BBX 7 7 0 0
BITMAP
FC
C2
C2
C2
C2
C2
FC
ENDCHAR
STARTCHAR E
ENCODING 69
SWIDTH 800 0
DWIDTH 8 0
BBX 7 7 0 0
BITMAP
7E
C0
C0
F0
C0
C0
7E
ENDCHAR
STARTCHAR F
ENCODING 70
SWIDTH 800 0
DWIDTH 8 0
BBX 7 7 0 0
BITMAP
7E
C0
C0
F0
C0
C0
C0
ENDCHAR
STARTCHAR G
ENCODING 71
SWIDTH 800 0
DWIDTH 8 0
BBX 7 7 0 0
BITMAP
7E
C0
C0
CE
C2
C2
7E
ENDCHAR
STARTCHAR H
ENCODING 72
SWIDTH 800 0
DWIDTH 8 0
BBX 7 7 0 0
BITMAP
42
C2
C2
FE
C2
C2
C2
ENDCHAR
STARTCHAR I
ENCODING 73
SWIDTH 300 0
DWIDTH 3 0
BBX 2 7 0 0
BITMAP
40
C0
C0
C0
C0
C0
C0
ENDCHAR
STARTCHAR J
ENCODING 74
SWIDTH 700 0
DWIDTH 7 0
BBX 6 7 0 0
BITMAP
FC
30
30
30
30
B0
60
ENDCHAR
STARTCHAR K
ENCODING 75
SWIDTH 700 0
DWIDTH 7 0
BBX 6 7 0 0
BITMAP
C4
C8
D0
E8
C4
C4
C4
ENDCHAR
STARTCHAR L
ENCODING 76
SWIDTH 700 0
DWIDTH 7 0
BBX 6 7 0 0
BITMAP
40
C0
C0
C0
C0
C0
FC
ENDCHAR
STARTCHAR M
ENCODING 77
SWIDTH 700 0
DWIDTH 7 0
BBX 6 7 0 0
BITMAP
44
EC
D4
C4
C4
C4
C4
ENDCHAR
STARTCHAR N
ENCODING 78
SWIDTH 700 0
DWIDTH 7 0
BBX 6 7 0 0
BITMAP
44
E4
D4
CC
C4
C4
C4
ENDCHAR
STARTCHAR O
ENCODING 79
SWIDTH 800 0
DWIDTH 8 0
BBX 7 7 0 0
BITMAP
7C
C2
C2
C2
C2
C2
7C
ENDCHAR
STARTCHAR P
ENCODING 80
SWIDTH 800 0
DWIDTH 8 0
BBX 7 7 0 0
BITMAP
7C
C2
C2
FC
C0
C0
C0
ENDCHAR
STARTCHAR Q
ENCODING 81
SWIDTH 800 0
DWIDTH 8 0
BBX 7 7 0 0
BITMAP
7C
C2
C2
C2
CA
C6
7E
ENDCHAR
STARTCHAR R
ENCODING 82
SWIDTH 800 0
DWIDTH 8 0
BBX 7 7 0 0
BITMAP
7C
C2
C2
FC
C2
C2
C2
ENDCHAR
STARTCHAR S
ENCODING 83
SWIDTH 800 0
DWIDTH 8 0
BBX 7 7 0 0
BITMAP
7E
C0
C0
7C
06
06
FC
ENDCHAR
STARTCHAR T
ENCODING 84
SWIDTH 800 0
DWIDTH 8 0
BBX 7 7 0 0
BITMAP
FE
10
10
10
10
10
10
ENDCHAR
STARTCHAR U
ENCODING 85
SWIDTH 800 0
DWIDTH 8 0
BBX 7 7 0 0
BITMAP
42
C2
C2
C2
C2
C2
7C
ENDCHAR
STARTCHAR V
ENCODING 86
SWIDTH 800 0
DWIDTH 8 0
BBX 7 7 0 0
BITMAP
C2
C2
C2
C2
64
64
38
ENDCHAR
STARTCHAR W
ENCODING 87
SWIDTH 700 0
DWIDTH 7 0
BBX 6 7 0 0
BITMAP
C4
C4
C4
C4
D4
EC
44
ENDCHAR
STARTCHAR X
ENCODING 88
SWIDTH 700 0
DWIDTH 7 0
BBX 6 7 0 0
BITMAP
C4
C4
C4
38
C4
C4
C4
ENDCHAR
STARTCHAR Y
ENCODING 89
SWIDTH 700 0
DWIDTH 7 0
BBX 6 7 0 0
BITMAP
C4
C4
C4
78
30
30
30
ENDCHAR
STARTCHAR Z
ENCODING 90
SWIDTH 700 0
DWIDTH 7 0
BBX 6 7 0 0
BITMAP
FC
0C
0C
18
30
60
FC
ENDCHAR
STARTCHAR bracketleft
ENCODING 91
SWIDTH 500 0
DWIDTH 5 0
BBX 4 7 0 0
BITMAP
F0
C0
C0
C0
C0
C0
F0
ENDCHAR
STARTCHAR backslash
ENCODING 92
SWIDTH 700 0
DWIDTH 7 0
BBX 6 7 0 0
BITMAP
80
C0
60
30
18
0C
04
ENDCHAR
STARTCHAR bracketright
ENCODING 93
SWIDTH 500 0
DWIDTH 5 0
BBX 4 7 0 0
BITMAP
F0
30
30
30
30
30
F0
ENDCHAR
STARTCHAR asciicircum
ENCODING 94
SWIDTH 600 0
DWIDTH 6 0
BBX 5 3 0 5
BITMAP
20
70
C8
ENDCHAR
STARTCHAR underscore
ENCODING 95
SWIDTH 700 0
DWIDTH 7 0
BBX 6 1 0 0
BITMAP
FC
ENDCHAR
STARTCHAR grave
ENCODING 96
SWIDTH 400 0
DWIDTH 4 0
BBX 2 2 1 5
BITMAP
80
40
ENDCHAR
STARTCHAR a
ENCODING 97
SWIDTH 800 0
DWIDTH 8 0
BBX 7 5 0 0
BITMAP
7C
C2
FE
C2
C2
ENDCHAR
STARTCHAR b
ENCODING 98
SWIDTH 800 0
DWIDTH 8 0
BBX 7 5 0 0
BITMAP
FC
C2
FC
C2
FC
ENDCHAR
STARTCHAR c
ENCODING 99
SWIDTH 800 0
DWIDTH 8 0
BBX 7 5 0 0
BITMAP
7E
C0
C0
C0
7E
ENDCHAR
STARTCHAR d
ENCODING 100
SWIDTH 800 0
DWIDTH 8 0
BBX 7 5 0 0
BITMAP
FC
C2
C2
C2
FC
ENDCHAR
STARTCHAR e
ENCODING 101
SWIDTH 800 0
DWIDTH 8 0
BBX 7 5 0 0
BITMAP
7E
C0
F8
C0
7E
ENDCHAR
STARTCHAR f
ENCODING 102
SWIDTH 800 0
DWIDTH 8 0
BBX 7 5 0 0
BITMAP
7E
C0
F8
C0
C0
ENDCHAR
STARTCHAR g
ENCODING 103
SWIDTH 800 0
DWIDTH 8 0
BBX 7 5 0 0
BITMAP
7E
C0
DE
C2
7E
ENDCHAR
STARTCHAR h
ENCODING 104
SWIDTH 800 0
DWIDTH 8 0
BBX 7 5 0 0
BITMAP
42
C2
FE
C2
C2
ENDCHAR
STARTCHAR i
ENCODING 105
SWIDTH 300 0
DWIDTH 3 0
BBX 2 5 0 0
BITMAP
40
C0
C0
C0
C0
ENDCHAR
STARTCHAR j
ENCODING 106
SWIDTH 800 0
DWIDTH 8 0
BBX 7 5 0 0
BITMAP
FE
18
18
18
F0
ENDCHAR
STARTCHAR k
ENCODING 107
SWIDTH 800 0
DWIDTH 8 0
BBX 7 5 0 0
BITMAP
C2
C2
FC
C2
C2
ENDCHAR
STARTCHAR l
ENCODING 108
SWIDTH 800 0
DWIDTH 8 0
BBX 7 5 0 0
BITMAP
40
C0
C0
C0
FE
ENDCHAR
STARTCHAR m
ENCODING 109
SWIDTH 800 0
DWIDTH 8 0
BBX 7 5 0 0
BITMAP
C2
F6
CA
CA
C2
ENDCHAR
STARTCHAR n
ENCODING 110
SWIDTH 800 0
DWIDTH 8 0
BBX 7 5 0 0
BITMAP
42
E2
DA
C6
C2
ENDCHAR
STARTCHAR o
ENCODING 111
SWIDTH 800 0
DWIDTH 8 0
BBX 7 5 0 0
BITMAP
7C
C2
C2
C2
7C
ENDCHAR
STARTCHAR p
ENCODING 112
SWIDTH 800 0
DWIDTH 8 0
BBX 7 5 0 0
BITMAP
7C
C2
FC
C0
C0
ENDCHAR
STARTCHAR q
ENCODING 113
SWIDTH 800 0
DWIDTH 8 0
BBX 7 5 0 0
BITMAP
7C
C2
C2
C6
7E
ENDCHAR
STARTCHAR r
ENCODING 114
SWIDTH 800 0
DWIDTH 8 0
BBX 7 5 0 0
BITMAP
7C
C2
FC
C2
C2
ENDCHAR
STARTCHAR s
ENCODING 115
SWIDTH 700 0
DWIDTH 7 0
BBX 6 5 0 0
BITMAP
7C
C0
F8
0C
FC
ENDCHAR
STARTCHAR t
ENCODING 116
SWIDTH 700 0
DWIDTH 7 0
BBX 6 5 0 0
BITMAP
FC
30
30
30
30
ENDCHAR
STARTCHAR u
ENCODING 117
SWIDTH 800 0
DWIDTH 8 0
BBX 7 5 0 0
BITMAP
42
C2
C2
C2
7C
ENDCHAR
STARTCHAR v
ENCODING 118
SWIDTH 800 0
DWIDTH 8 0
BBX 7 5 0 0
BITMAP
C2
C2
C2
44
38
ENDCHAR
STARTCHAR w
ENCODING 119
SWIDTH 800 0
DWIDTH 8 0
BBX 7 5 0 0
BITMAP
C2
C2
C2
CA
76
ENDCHAR
STARTCHAR x
ENCODING 120
SWIDTH 800 0
DWIDTH 8 0
BBX 7 5 0 0
BITMAP
C2
C2
3C
C2
C2
ENDCHAR
STARTCHAR y
ENCODING 121
SWIDTH 800 0
DWIDTH 8 0
BBX 7 5 0 0
BITMAP
C2
C2
7E
02
FC
ENDCHAR
STARTCHAR z
ENCODING 122
SWIDTH 700 0
DWIDTH 7 0
BBX 6 5 0 0
BITMAP
FC
18
30
60
FC
ENDCHAR
STARTCHAR braceleft
ENCODING 123
SWIDTH 500 0
DWIDTH 5 0
BBX 4 7 0 0
BITMAP
30
40
40
80
40
40
30
ENDCHAR
STARTCHAR bar
ENCODING 124
SWIDTH 200 0
DWIDTH 2 0
BBX 1 7 0 0
BITMAP
80
80
80
80
80
80
80
ENDCHAR
STARTCHAR braceright
ENCODING 125
SWIDTH 500 0
DWIDTH 5 0
BBX 4 7 0 0
BITMAP
C0
20
20
10
20
20
C0
ENDCHAR
STARTCHAR asciitilde
ENCODING 126
SWIDTH 700 0
DWIDTH 7 0
BBX 6 2 0 3
BITMAP
30
CC
ENDCHAR
STARTCHAR uni00A0
ENCODING 160
SWIDTH 500 0
DWIDTH 5 0
BBX 1 1 0 0
BITMAP
00
ENDCHAR
STARTCHAR exclamdown
ENCODING 161
SWIDTH 300 0
DWIDTH 3 0
BBX 2 7 0 0
BITMAP
C0
C0
00
C0
C0
C0
40
ENDCHAR
STARTCHAR cent
ENCODING 162
SWIDTH 800 0
DWIDTH 8 0
BBX 7 7 0 -1
BITMAP
08
7C
CA
D8
D2
7C
10
ENDCHAR
STARTCHAR sterling
ENCODING 163
SWIDTH 800 0
DWIDTH 8 0
BBX 7 7 0 0
BITMAP
3C
60
60
F8
60
60
FE
ENDCHAR
STARTCHAR yen
ENCODING 165
SWIDTH 800 0
DWIDTH 8 0
BBX 8 7 -1 0
BITMAP
62
62
62
FF
18
FF
18
ENDCHAR
STARTCHAR section
ENCODING 167
SWIDTH 800 0
DWIDTH 8 0
BBX 7 7 0 0
BITMAP
7E
C0
7C
C2
7C
06
FC
ENDCHAR
STARTCHAR copyright
ENCODING 169
SWIDTH 1000 0
DWIDTH 10 0
BBX 8 8 1 0
BITMAP
3C
42
9D
B1
B1
9D
42
3C
ENDCHAR
STARTCHAR Euro
ENCODING 8364
SWIDTH 800 0
DWIDTH 8 0
BBX 8 7 -1 0
BITMAP
3F
60
FC
60
FC
60
3F
ENDCHAR
STARTCHAR uni3000
ENCODING 12288
SWIDTH 1600 0
DWIDTH 16 0
BBX 1 1 0 0
BITMAP
00
ENDCHAR
STARTCHAR .notdef
ENCODING -1
SWIDTH 100 0
DWIDTH 1 0
BBX 1 1 0 0
BITMAP
00
ENDCHAR
STARTCHAR glyph00001
ENCODING -1
SWIDTH 100 0
DWIDTH 1 0
BBX 1 1 0 0
BITMAP
00
ENDCHAR
ENDFONT
