STARTFONT 2.1
FONT ChibiMono-11px
SIZE 11 75 75
FONTBOUNDINGBOX 5 10 0 -2
STARTPROPERTIES 5
PIXEL_SIZE 11
FONT_ASCENT 8
FONT_DESCENT 2
CHARSET_REGISTRY "ISO10646"
CHARSET_ENCODING "1"
ENDPROPERTIES
CHARS 518
STARTCHAR space
ENCODING 32
SWIDTH 455 0
DWIDTH 5 0
BBX 1 1 0 0
BITMAP
00
ENDCHAR
STARTCHAR exclam
ENCODING 33
SWIDTH 455 0
DWIDTH 5 0
BBX 2 5 1 0
BITMAP
C0
C0
C0
00
C0
ENDCHAR
STARTCHAR quotedbl
ENCODING 34
SWIDTH 455 0
DWIDTH 5 0
BBX 3 2 0 3
BITMAP
A0
A0
ENDCHAR
STARTCHAR numbersign
ENCODING 35
SWIDTH 455 0
DWIDTH 5 0
BBX 4 5 0 0
BITMAP
50
F0
50
F0
A0
ENDCHAR
STARTCHAR dollar
ENCODING 36
SWIDTH 455 0
DWIDTH 5 0
BBX 4 7 0 -1
BITMAP
60
F0
80
F0
10
F0
60
ENDCHAR
STARTCHAR percent
ENCODING 37
SWIDTH 455 0
DWIDTH 5 0
BBX 4 5 0 0
BITMAP
B0
30
60
C0
D0
ENDCHAR
STARTCHAR ampersand
ENCODING 38
SWIDTH 455 0
DWIDTH 5 0
BBX 4 7 0 -1
BITMAP
60
F0
C0
F0
C0
F0
60
ENDCHAR
STARTCHAR quotesingle
ENCODING 39
SWIDTH 455 0
DWIDTH 5 0
BBX 2 3 1 2
BITMAP
C0
C0
C0
ENDCHAR
STARTCHAR parenleft
ENCODING 40
SWIDTH 455 0
DWIDTH 5 0
BBX 3 5 0 0
BITMAP
60
C0
C0
C0
60
ENDCHAR
STARTCHAR parenright
ENCODING 41
SWIDTH 455 0
DWIDTH 5 0
BBX 3 5 0 0
BITMAP
C0
60
60
60
C0
ENDCHAR
STARTCHAR asterisk
ENCODING 42
SWIDTH 455 0
DWIDTH 5 0
BBX 4 3 0 2
BITMAP
D0
60
B0
ENDCHAR
STARTCHAR plus
ENCODING 43
SWIDTH 455 0
DWIDTH 5 0
BBX 4 3 0 1
BITMAP
60
F0
60
ENDCHAR
STARTCHAR comma
ENCODING 44
SWIDTH 455 0
DWIDTH 5 0
BBX 3 3 0 -1
BITMAP
60
60
E0
ENDCHAR
STARTCHAR hyphen
ENCODING 45
SWIDTH 455 0
DWIDTH 5 0
BBX 4 1 0 2
BITMAP
F0
ENDCHAR
STARTCHAR period
ENCODING 46
SWIDTH 455 0
DWIDTH 5 0
BBX 2 2 1 0
BITMAP
C0
C0
ENDCHAR
STARTCHAR slash
ENCODING 47
SWIDTH 455 0
DWIDTH 5 0
BBX 3 5 0 0
BITMAP
60
60
E0
C0
C0
ENDCHAR
STARTCHAR zero
ENCODING 48
SWIDTH 455 0
DWIDTH 5 0
BBX 4 5 0 0
BITMAP
60
B0
B0
B0
60
ENDCHAR
STARTCHAR one
ENCODING 49
SWIDTH 455 0
DWIDTH 5 0
BBX 4 5 0 0
BITMAP
60
E0
60
60
F0
ENDCHAR
STARTCHAR two
ENCODING 50
SWIDTH 455 0
DWIDTH 5 0
BBX 4 5 0 0
BITMAP
60
B0
30
C0
F0
ENDCHAR
STARTCHAR three
ENCODING 51
SWIDTH 455 0
DWIDTH 5 0
BBX 4 5 0 0
BITMAP
E0
30
E0
30
E0
ENDCHAR
STARTCHAR four
ENCODING 52
SWIDTH 455 0
DWIDTH 5 0
BBX 4 5 0 0
BITMAP
30
B0
F0
30
30
ENDCHAR
STARTCHAR five
ENCODING 53
SWIDTH 455 0
DWIDTH 5 0
BBX 4 5 0 0
BITMAP
F0
80
F0
30
E0
ENDCHAR
STARTCHAR six
ENCODING 54
SWIDTH 455 0
DWIDTH 5 0
BBX 4 5 0 0
BITMAP
F0
80
F0
B0
F0
ENDCHAR
STARTCHAR seven
ENCODING 55
SWIDTH 455 0
DWIDTH 5 0
BBX 4 5 0 0
BITMAP
F0
30
60
60
60
ENDCHAR
STARTCHAR eight
ENCODING 56
SWIDTH 455 0
DWIDTH 5 0
BBX 4 5 0 0
BITMAP
60
B0
60
B0
60
ENDCHAR
STARTCHAR nine
ENCODING 57
SWIDTH 455 0
DWIDTH 5 0
BBX 4 5 0 0
BITMAP
60
B0
F0
30
E0
ENDCHAR
STARTCHAR colon
ENCODING 58
SWIDTH 455 0
DWIDTH 5 0
BBX 2 5 1 0
BITMAP
C0
C0
00
C0
C0
ENDCHAR
STARTCHAR semicolon
ENCODING 59
SWIDTH 455 0
DWIDTH 5 0
BBX 3 6 0 -1
BITMAP
60
60
00
60
60
E0
ENDCHAR
STARTCHAR less
ENCODING 60
SWIDTH 455 0
DWIDTH 5 0
BBX 4 5 0 0
BITMAP
30
60
C0
60
30
ENDCHAR
STARTCHAR equal
ENCODING 61
SWIDTH 455 0
DWIDTH 5 0
BBX 4 3 0 1
BITMAP
F0
00
F0
ENDCHAR
STARTCHAR greater
ENCODING 62
SWIDTH 455 0
DWIDTH 5 0
BBX 4 5 0 0
BITMAP
C0
60
30
60
C0
ENDCHAR
STARTCHAR question
ENCODING 63
SWIDTH 455 0
DWIDTH 5 0
BBX 4 5 0 0
BITMAP
F0
30
70
00
60
ENDCHAR
STARTCHAR at
ENCODING 64
SWIDTH 455 0
DWIDTH 5 0
BBX 4 5 0 0
BITMAP
F0
B0
B0
80
F0
ENDCHAR
STARTCHAR A
ENCODING 65
SWIDTH 455 0
DWIDTH 5 0
BBX 4 5 0 0
BITMAP
F0
B0
F0
B0
B0
ENDCHAR
STARTCHAR B
ENCODING 66
SWIDTH 455 0
DWIDTH 5 0
BBX 4 5 0 0
BITMAP
E0
A0
F0
B0
F0
ENDCHAR
STARTCHAR C
ENCODING 67
SWIDTH 455 0
DWIDTH 5 0
BBX 4 5 0 0
BITMAP
F0
B0
80
B0
F0
ENDCHAR
STARTCHAR D
ENCODING 68
SWIDTH 455 0
DWIDTH 5 0
BBX 4 5 0 0
BITMAP
E0
B0
B0
B0
E0
ENDCHAR
STARTCHAR E
ENCODING 69
SWIDTH 455 0
DWIDTH 5 0
BBX 4 5 0 0
BITMAP
F0
C0
F0
C0
F0
ENDCHAR
STARTCHAR F
ENCODING 70
SWIDTH 455 0
DWIDTH 5 0
BBX 4 5 0 0
BITMAP
F0
B0
80
F0
80
ENDCHAR
STARTCHAR G
ENCODING 71
SWIDTH 455 0
DWIDTH 5 0
BBX 4 5 0 0
BITMAP
F0
80
B0
B0
F0
ENDCHAR
STARTCHAR H
ENCODING 72
SWIDTH 455 0
DWIDTH 5 0
BBX 4 5 0 0
BITMAP
B0
B0
F0
B0
B0
ENDCHAR
STARTCHAR I
ENCODING 73
SWIDTH 455 0
DWIDTH 5 0
BBX 4 5 0 0
BITMAP
F0
60
60
60
F0
ENDCHAR
STARTCHAR J
ENCODING 74
SWIDTH 455 0
DWIDTH 5 0
BBX 4 5 0 0
BITMAP
30
30
30
B0
F0
ENDCHAR
STARTCHAR K
ENCODING 75
SWIDTH 455 0
DWIDTH 5 0
BBX 4 5 0 0
BITMAP
B0
B0
E0
B0
B0
ENDCHAR
STARTCHAR L
ENCODING 76
SWIDTH 455 0
DWIDTH 5 0
BBX 4 5 0 0
BITMAP
80
80
80
B0
F0
ENDCHAR
STARTCHAR M
ENCODING 77
SWIDTH 455 0
DWIDTH 5 0
BBX 4 5 0 0
BITMAP
90
F0
F0
B0
B0
ENDCHAR
STARTCHAR N
ENCODING 78
SWIDTH 455 0
DWIDTH 5 0
BBX 4 5 0 0
BITMAP
E0
B0
B0
B0
B0
ENDCHAR
STARTCHAR O
ENCODING 79
SWIDTH 455 0
DWIDTH 5 0
BBX 4 5 0 0
BITMAP
F0
B0
B0
B0
F0
ENDCHAR
STARTCHAR P
ENCODING 80
SWIDTH 455 0
DWIDTH 5 0
BBX 4 5 0 0
BITMAP
F0
B0
B0
F0
80
ENDCHAR
STARTCHAR Q
ENCODING 81
SWIDTH 455 0
DWIDTH 5 0
BBX 4 6 0 -1
BITMAP
F0
B0
B0
B0
E0
30
ENDCHAR
STARTCHAR R
ENCODING 82
SWIDTH 455 0
DWIDTH 5 0
BBX 4 5 0 0
BITMAP
F0
B0
B0
E0
B0
ENDCHAR
STARTCHAR S
ENCODING 83
SWIDTH 455 0
DWIDTH 5 0
BBX 4 5 0 0
BITMAP
F0
80
F0
30
F0
ENDCHAR
STARTCHAR T
ENCODING 84
SWIDTH 455 0
DWIDTH 5 0
BBX 4 5 0 0
BITMAP
F0
20
20
60
60
ENDCHAR
STARTCHAR U
ENCODING 85
SWIDTH 455 0
DWIDTH 5 0
BBX 4 5 0 0
BITMAP
B0
B0
B0
B0
F0
ENDCHAR
STARTCHAR V
ENCODING 86
SWIDTH 455 0
DWIDTH 5 0
BBX 4 5 0 0
BITMAP
B0
B0
B0
E0
40
ENDCHAR
STARTCHAR W
ENCODING 87
SWIDTH 455 0
DWIDTH 5 0
BBX 4 5 0 0
BITMAP
B0
B0
B0
F0
B0
ENDCHAR
STARTCHAR X
ENCODING 88
SWIDTH 455 0
DWIDTH 5 0
BBX 4 5 0 0
BITMAP
D0
D0
60
B0
B0
ENDCHAR
STARTCHAR Y
ENCODING 89
SWIDTH 455 0
DWIDTH 5 0
BBX 4 5 0 0
BITMAP
B0
B0
F0
60
60
ENDCHAR
STARTCHAR Z
ENCODING 90
SWIDTH 455 0
DWIDTH 5 0
BBX 4 5 0 0
BITMAP
F0
30
60
80
F0
ENDCHAR
STARTCHAR bracketleft
ENCODING 91
SWIDTH 455 0
DWIDTH 5 0
BBX 3 5 0 0
BITMAP
E0
C0
C0
C0
E0
ENDCHAR
STARTCHAR backslash
ENCODING 92
SWIDTH 455 0
DWIDTH 5 0
BBX 3 5 0 0
BITMAP
C0
C0
E0
60
60
ENDCHAR
STARTCHAR bracketright
ENCODING 93
SWIDTH 455 0
DWIDTH 5 0
BBX 3 5 0 0
BITMAP
E0
60
60
60
E0
ENDCHAR
STARTCHAR asciicircum
ENCODING 94
SWIDTH 455 0
DWIDTH 5 0
BBX 4 2 0 3
BITMAP
60
B0
ENDCHAR
STARTCHAR underscore
ENCODING 95
SWIDTH 455 0
DWIDTH 5 0
BBX 4 1 0 0
BITMAP
F0
ENDCHAR
STARTCHAR grave
ENCODING 96
SWIDTH 455 0
DWIDTH 5 0
BBX 3 2 1 3
BITMAP
C0
60
ENDCHAR
STARTCHAR a
ENCODING 97
SWIDTH 455 0
DWIDTH 5 0
BBX 4 4 0 0
BITMAP
F0
30
B0
F0
ENDCHAR
STARTCHAR b
ENCODING 98
SWIDTH 455 0
DWIDTH 5 0
BBX 4 5 0 0
BITMAP
80
F0
B0
B0
F0
ENDCHAR
STARTCHAR c
ENCODING 99
SWIDTH 455 0
DWIDTH 5 0
BBX 4 4 0 0
BITMAP
F0
C0
C0
F0
ENDCHAR
STARTCHAR d
ENCODING 100
SWIDTH 455 0
DWIDTH 5 0
BBX 4 5 0 0
BITMAP
30
F0
B0
B0
F0
ENDCHAR
STARTCHAR e
ENCODING 101
SWIDTH 455 0
DWIDTH 5 0
BBX 4 4 0 0
BITMAP
F0
B0
C0
F0
ENDCHAR
STARTCHAR f
ENCODING 102
SWIDTH 455 0
DWIDTH 5 0
BBX 4 5 0 0
BITMAP
F0
C0
F0
C0
C0
ENDCHAR
STARTCHAR g
ENCODING 103
SWIDTH 455 0
DWIDTH 5 0
BBX 4 5 0 -1
BITMAP
F0
B0
F0
10
F0
ENDCHAR
STARTCHAR h
ENCODING 104
SWIDTH 455 0
DWIDTH 5 0
BBX 4 5 0 0
BITMAP
80
F0
B0
B0
B0
ENDCHAR
STARTCHAR i
ENCODING 105
SWIDTH 455 0
DWIDTH 5 0
BBX 4 6 0 0
BITMAP
60
00
E0
60
60
F0
ENDCHAR
STARTCHAR j
ENCODING 106
SWIDTH 455 0
DWIDTH 5 0
BBX 4 7 0 -1
BITMAP
30
00
30
30
30
B0
F0
ENDCHAR
STARTCHAR k
ENCODING 107
SWIDTH 455 0
DWIDTH 5 0
BBX 4 5 0 0
BITMAP
80
B0
E0
B0
B0
ENDCHAR
STARTCHAR l
ENCODING 108
SWIDTH 455 0
DWIDTH 5 0
BBX 4 5 0 0
BITMAP
E0
60
60
60
F0
ENDCHAR
STARTCHAR m
ENCODING 109
SWIDTH 455 0
DWIDTH 5 0
BBX 4 4 0 0
BITMAP
B0
F0
B0
B0
ENDCHAR
STARTCHAR n
ENCODING 110
SWIDTH 455 0
DWIDTH 5 0
BBX 4 4 0 0
BITMAP
E0
B0
B0
B0
ENDCHAR
STARTCHAR o
ENCODING 111
SWIDTH 455 0
DWIDTH 5 0
BBX 4 4 0 0
BITMAP
F0
B0
B0
F0
ENDCHAR
STARTCHAR p
ENCODING 112
SWIDTH 455 0
DWIDTH 5 0
BBX 4 5 0 -1
BITMAP
F0
B0
B0
F0
80
ENDCHAR
STARTCHAR q
ENCODING 113
SWIDTH 455 0
DWIDTH 5 0
BBX 4 5 0 -1
BITMAP
F0
B0
B0
F0
30
ENDCHAR
STARTCHAR r
ENCODING 114
SWIDTH 455 0
DWIDTH 5 0
BBX 4 4 0 0
BITMAP
F0
B0
80
80
ENDCHAR
STARTCHAR s
ENCODING 115
SWIDTH 455 0
DWIDTH 5 0
BBX 4 4 0 0
BITMAP
F0
80
70
F0
ENDCHAR
STARTCHAR t
ENCODING 116
SWIDTH 455 0
DWIDTH 5 0
BBX 4 5 0 0
BITMAP
60
F0
60
60
70
ENDCHAR
STARTCHAR u
ENCODING 117
SWIDTH 455 0
DWIDTH 5 0
BBX 4 4 0 0
BITMAP
B0
B0
B0
F0
ENDCHAR
STARTCHAR v
ENCODING 118
SWIDTH 455 0
DWIDTH 5 0
BBX 4 4 0 0
BITMAP
B0
B0
E0
40
ENDCHAR
STARTCHAR w
ENCODING 119
SWIDTH 455 0
DWIDTH 5 0
BBX 4 4 0 0
BITMAP
B0
B0
F0
B0
ENDCHAR
STARTCHAR x
ENCODING 120
SWIDTH 455 0
DWIDTH 5 0
BBX 4 4 0 0
BITMAP
B0
60
B0
B0
ENDCHAR
STARTCHAR y
ENCODING 121
SWIDTH 455 0
DWIDTH 5 0
BBX 4 5 0 -1
BITMAP
B0
B0
F0
30
F0
ENDCHAR
STARTCHAR z
ENCODING 122
SWIDTH 455 0
DWIDTH 5 0
BBX 4 4 0 0
BITMAP
F0
30
C0
F0
ENDCHAR
STARTCHAR braceleft
ENCODING 123
SWIDTH 455 0
DWIDTH 5 0
BBX 4 5 0 0
BITMAP
70
60
E0
60
70
ENDCHAR
STARTCHAR bar
ENCODING 124
SWIDTH 455 0
DWIDTH 5 0
BBX 2 7 1 -1
BITMAP
C0
C0
C0
C0
C0
C0
C0
ENDCHAR
STARTCHAR braceright
ENCODING 125
SWIDTH 455 0
DWIDTH 5 0
BBX 4 5 0 0
BITMAP
E0
60
70
60
E0
ENDCHAR
STARTCHAR asciitilde
ENCODING 126
SWIDTH 455 0
DWIDTH 5 0
BBX 4 2 0 2
BITMAP
D0
B0
ENDCHAR
STARTCHAR uni00A0
ENCODING 160
SWIDTH 455 0
DWIDTH 5 0
BBX 1 1 0 0
BITMAP
00
ENDCHAR
STARTCHAR exclamdown
ENCODING 161
SWIDTH 455 0
DWIDTH 5 0
BBX 2 5 1 -1
BITMAP
C0
00
C0
C0
C0
ENDCHAR
STARTCHAR cent
ENCODING 162
SWIDTH 455 0
DWIDTH 5 0
BBX 4 6 0 -1
BITMAP
20
F0
C0
C0
F0
40
ENDCHAR
STARTCHAR sterling
ENCODING 163
SWIDTH 455 0
DWIDTH 5 0
BBX 4 5 0 0
BITMAP
70
60
F0
40
F0
ENDCHAR
STARTCHAR currency
ENCODING 164
SWIDTH 455 0
DWIDTH 5 0
BBX 4 4 0 0
BITMAP
90
60
60
90
ENDCHAR
STARTCHAR yen
ENCODING 165
SWIDTH 455 0
DWIDTH 5 0
BBX 4 5 0 0
BITMAP
B0
F0
60
F0
60
ENDCHAR
STARTCHAR brokenbar
ENCODING 166
SWIDTH 455 0
DWIDTH 5 0
BBX 2 7 1 -1
BITMAP
C0
C0
C0
00
C0
C0
C0
ENDCHAR
STARTCHAR section
ENCODING 167
SWIDTH 455 0
DWIDTH 5 0
BBX 4 7 0 -1
BITMAP
F0
C0
F0
90
F0
30
F0
ENDCHAR
STARTCHAR copyright
ENCODING 169
SWIDTH 455 0
DWIDTH 5 0
BBX 4 5 0 0
BITMAP
F0
90
B0
90
F0
ENDCHAR
STARTCHAR ordfeminine
ENCODING 170
SWIDTH 455 0
DWIDTH 5 0
BBX 4 4 0 1
BITMAP
70
B0
B0
F0
ENDCHAR
STARTCHAR guillemotleft
ENCODING 171
SWIDTH 455 0
DWIDTH 5 0
BBX 4 3 0 0
BITMAP
50
A0
50
ENDCHAR
STARTCHAR logicalnot
ENCODING 172
SWIDTH 455 0
DWIDTH 5 0
BBX 4 2 0 1
BITMAP
F0
30
ENDCHAR
STARTCHAR registered
ENCODING 174
SWIDTH 455 0
DWIDTH 5 0
BBX 4 5 0 0
BITMAP
F0
90
B0
B0
F0
ENDCHAR
STARTCHAR degree
ENCODING 176
SWIDTH 455 0
DWIDTH 5 0
BBX 4 3 0 2
BITMAP
F0
B0
F0
ENDCHAR
STARTCHAR plusminus
ENCODING 177
SWIDTH 455 0
DWIDTH 5 0
BBX 4 5 0 0
BITMAP
60
F0
60
00
F0
ENDCHAR
STARTCHAR uni00B2
ENCODING 178
SWIDTH 455 0
DWIDTH 5 0
BBX 4 4 0 1
BITMAP
F0
30
E0
F0
ENDCHAR
STARTCHAR uni00B3
ENCODING 179
SWIDTH 455 0
DWIDTH 5 0
BBX 4 4 0 1
BITMAP
F0
70
30
F0
ENDCHAR
STARTCHAR mu
ENCODING 181
SWIDTH 455 0
DWIDTH 5 0
BBX 4 5 0 -1
BITMAP
B0
B0
B0
F0
C0
ENDCHAR
STARTCHAR paragraph
ENCODING 182
SWIDTH 455 0
DWIDTH 5 0
BBX 4 6 0 -1
BITMAP
70
D0
D0
50
50
50
ENDCHAR
STARTCHAR periodcentered
ENCODING 183
SWIDTH 455 0
DWIDTH 5 0
BBX 2 1 1 2
BITMAP
C0
ENDCHAR
STARTCHAR uni00B9
ENCODING 185
SWIDTH 455 0
DWIDTH 5 0
BBX 4 4 0 1
BITMAP
60
E0
60
F0
ENDCHAR
STARTCHAR ordmasculine
ENCODING 186
SWIDTH 455 0
DWIDTH 5 0
BBX 4 4 0 1
BITMAP
70
B0
B0
E0
ENDCHAR
STARTCHAR guillemotright
ENCODING 187
SWIDTH 455 0
DWIDTH 5 0
BBX 4 3 0 0
BITMAP
A0
50
A0
ENDCHAR
STARTCHAR questiondown
ENCODING 191
SWIDTH 455 0
DWIDTH 5 0
BBX 4 5 0 -1
BITMAP
30
00
F0
C0
F0
ENDCHAR
STARTCHAR Agrave
ENCODING 192
SWIDTH 455 0
DWIDTH 5 0
BBX 4 7 0 0
BITMAP
80
40
00
F0
B0
F0
B0
ENDCHAR
STARTCHAR Aacute
ENCODING 193
SWIDTH 455 0
DWIDTH 5 0
BBX 4 7 0 0
BITMAP
20
40
00
F0
B0
F0
B0
ENDCHAR
STARTCHAR Acircumflex
ENCODING 194
SWIDTH 455 0
DWIDTH 5 0
BBX 4 7 0 0
BITMAP
40
A0
00
F0
B0
F0
B0
ENDCHAR
STARTCHAR Atilde
ENCODING 195
SWIDTH 455 0
DWIDTH 5 0
BBX 4 7 0 0
BITMAP
D0
B0
00
F0
B0
F0
B0
ENDCHAR
STARTCHAR Adieresis
ENCODING 196
SWIDTH 455 0
DWIDTH 5 0
BBX 4 6 0 0
BITMAP
90
00
F0
B0
F0
B0
ENDCHAR
STARTCHAR Aring
ENCODING 197
SWIDTH 455 0
DWIDTH 5 0
BBX 4 6 0 0
BITMAP
70
50
F0
B0
F0
B0
ENDCHAR
STARTCHAR AE
ENCODING 198
SWIDTH 455 0
DWIDTH 5 0
BBX 4 5 0 0
BITMAP
70
A0
F0
A0
B0
ENDCHAR
STARTCHAR Ccedilla
ENCODING 199
SWIDTH 455 0
DWIDTH 5 0
BBX 4 7 0 -2
BITMAP
F0
B0
80
B0
F0
60
E0
ENDCHAR
STARTCHAR Egrave
ENCODING 200
SWIDTH 455 0
DWIDTH 5 0
BBX 4 7 0 0
BITMAP
40
20
00
F0
E0
C0
F0
ENDCHAR
STARTCHAR Eacute
ENCODING 201
SWIDTH 455 0
DWIDTH 5 0
BBX 4 7 0 0
BITMAP
20
40
00
F0
E0
C0
F0
ENDCHAR
STARTCHAR Ecircumflex
ENCODING 202
SWIDTH 455 0
DWIDTH 5 0
BBX 4 7 0 0
BITMAP
20
50
00
F0
E0
C0
F0
ENDCHAR
STARTCHAR Edieresis
ENCODING 203
SWIDTH 455 0
DWIDTH 5 0
BBX 4 6 0 0
BITMAP
90
00
F0
E0
C0
F0
ENDCHAR
STARTCHAR Igrave
ENCODING 204
SWIDTH 455 0
DWIDTH 5 0
BBX 4 7 0 0
BITMAP
40
20
00
F0
60
60
F0
ENDCHAR
STARTCHAR Iacute
ENCODING 205
SWIDTH 455 0
DWIDTH 5 0
BBX 4 7 0 0
BITMAP
20
40
00
F0
60
60
F0
ENDCHAR
STARTCHAR Icircumflex
ENCODING 206
SWIDTH 455 0
DWIDTH 5 0
BBX 4 7 0 0
BITMAP
40
A0
00
F0
60
60
F0
ENDCHAR
STARTCHAR Idieresis
ENCODING 207
SWIDTH 455 0
DWIDTH 5 0
BBX 4 6 0 0
BITMAP
90
00
F0
60
60
F0
ENDCHAR
STARTCHAR Eth
ENCODING 208
SWIDTH 455 0
DWIDTH 5 0
BBX 4 5 0 0
BITMAP
E0
D0
F0
D0
E0
ENDCHAR
STARTCHAR Ntilde
ENCODING 209
SWIDTH 455 0
DWIDTH 5 0
BBX 4 7 0 0
BITMAP
D0
B0
00
E0
D0
D0
D0
ENDCHAR
STARTCHAR Ograve
ENCODING 210
SWIDTH 455 0
DWIDTH 5 0
BBX 4 7 0 0
BITMAP
80
40
00
F0
B0
B0
F0
ENDCHAR
STARTCHAR Oacute
ENCODING 211
SWIDTH 455 0
DWIDTH 5 0
BBX 4 7 0 0
BITMAP
20
40
00
F0
B0
B0
F0
ENDCHAR
STARTCHAR Ocircumflex
ENCODING 212
SWIDTH 455 0
DWIDTH 5 0
BBX 4 7 0 0
BITMAP
40
A0
00
F0
B0
B0
F0
ENDCHAR
STARTCHAR Otilde
ENCODING 213
SWIDTH 455 0
DWIDTH 5 0
BBX 4 7 0 0
BITMAP
D0
B0
00
F0
B0
B0
F0
ENDCHAR
STARTCHAR Odieresis
ENCODING 214
SWIDTH 455 0
DWIDTH 5 0
BBX 4 6 0 0
BITMAP
90
00
F0
B0
B0
F0
ENDCHAR
STARTCHAR multiply
ENCODING 215
SWIDTH 455 0
DWIDTH 5 0
BBX 4 3 0 1
BITMAP
D0
60
D0
ENDCHAR
STARTCHAR Oslash
ENCODING 216
SWIDTH 455 0
DWIDTH 5 0
BBX 4 7 0 -1
BITMAP
10
E0
D0
D0
D0
70
80
ENDCHAR
STARTCHAR Ugrave
ENCODING 217
SWIDTH 455 0
DWIDTH 5 0
BBX 4 7 0 0
BITMAP
80
40
00
B0
B0
B0
F0
ENDCHAR
STARTCHAR Uacute
ENCODING 218
SWIDTH 455 0
DWIDTH 5 0
BBX 4 7 0 0
BITMAP
20
40
00
B0
B0
B0
F0
ENDCHAR
STARTCHAR Ucircumflex
ENCODING 219
SWIDTH 455 0
DWIDTH 5 0
BBX 4 7 0 0
BITMAP
40
A0
00
B0
B0
B0
F0
ENDCHAR
STARTCHAR Udieresis
ENCODING 220
SWIDTH 455 0
DWIDTH 5 0
BBX 4 6 0 0
BITMAP
A0
00
B0
B0
B0
F0
ENDCHAR
STARTCHAR Yacute
ENCODING 221
SWIDTH 455 0
DWIDTH 5 0
BBX 4 7 0 0
BITMAP
20
40
00
B0
B0
60
60
ENDCHAR
STARTCHAR Thorn
ENCODING 222
SWIDTH 455 0
DWIDTH 5 0
BBX 4 5 0 0
BITMAP
80
F0
B0
F0
80
ENDCHAR
STARTCHAR germandbls
ENCODING 223
SWIDTH 455 0
DWIDTH 5 0
BBX 4 5 0 0
BITMAP
F0
B0
A0
B0
B0
ENDCHAR
STARTCHAR agrave
ENCODING 224
SWIDTH 455 0
DWIDTH 5 0
BBX 4 6 0 0
BITMAP
40
20
00
70
D0
F0
ENDCHAR
STARTCHAR aacute
ENCODING 225
SWIDTH 455 0
DWIDTH 5 0
BBX 4 6 0 0
BITMAP
10
20
00
70
D0
F0
ENDCHAR
STARTCHAR acircumflex
ENCODING 226
SWIDTH 455 0
DWIDTH 5 0
BBX 4 6 0 0
BITMAP
20
50
00
70
D0
F0
ENDCHAR
STARTCHAR atilde
ENCODING 227
SWIDTH 455 0
DWIDTH 5 0
BBX 4 6 0 0
BITMAP
D0
B0
00
70
D0
F0
ENDCHAR
STARTCHAR adieresis
ENCODING 228
SWIDTH 455 0
DWIDTH 5 0
BBX 4 5 0 0
BITMAP
50
00
70
D0
F0
ENDCHAR
STARTCHAR aring
ENCODING 229
SWIDTH 455 0
DWIDTH 5 0
BBX 4 5 0 0
BITMAP
70
50
70
D0
F0
ENDCHAR
STARTCHAR ae
ENCODING 230
SWIDTH 455 0
DWIDTH 5 0
BBX 4 4 0 0
BITMAP
F0
70
A0
F0
ENDCHAR
STARTCHAR ccedilla
ENCODING 231
SWIDTH 455 0
DWIDTH 5 0
BBX 4 6 0 -2
BITMAP
F0
C0
C0
F0
60
E0
ENDCHAR
STARTCHAR egrave
ENCODING 232
SWIDTH 455 0
DWIDTH 5 0
BBX 4 6 0 0
BITMAP
C0
60
00
E0
A0
F0
ENDCHAR
STARTCHAR eacute
ENCODING 233
SWIDTH 455 0
DWIDTH 5 0
BBX 4 6 0 0
BITMAP
60
C0
00
E0
A0
F0
ENDCHAR
STARTCHAR ecircumflex
ENCODING 234
SWIDTH 455 0
DWIDTH 5 0
BBX 4 6 0 0
BITMAP
40
A0
00
E0
A0
F0
ENDCHAR
STARTCHAR edieresis
ENCODING 235
SWIDTH 455 0
DWIDTH 5 0
BBX 4 5 0 0
BITMAP
A0
00
E0
A0
F0
ENDCHAR
STARTCHAR igrave
ENCODING 236
SWIDTH 455 0
DWIDTH 5 0
BBX 4 6 0 0
BITMAP
C0
60
00
E0
60
F0
ENDCHAR
STARTCHAR iacute
ENCODING 237
SWIDTH 455 0
DWIDTH 5 0
BBX 4 6 0 0
BITMAP
30
60
00
E0
60
F0
ENDCHAR
STARTCHAR icircumflex
ENCODING 238
SWIDTH 455 0
DWIDTH 5 0
BBX 4 6 0 0
BITMAP
40
A0
00
E0
60
F0
ENDCHAR
STARTCHAR idieresis
ENCODING 239
SWIDTH 455 0
DWIDTH 5 0
BBX 4 5 0 0
BITMAP
A0
00
E0
60
F0
ENDCHAR
STARTCHAR eth
ENCODING 240
SWIDTH 455 0
DWIDTH 5 0
BBX 4 5 0 0
BITMAP
D0
20
70
B0
F0
ENDCHAR
STARTCHAR ntilde
ENCODING 241
SWIDTH 455 0
DWIDTH 5 0
BBX 4 6 0 0
BITMAP
D0
B0
00
E0
B0
B0
ENDCHAR
STARTCHAR ograve
ENCODING 242
SWIDTH 455 0
DWIDTH 5 0
BBX 4 6 0 0
BITMAP
80
40
00
F0
B0
F0
ENDCHAR
STARTCHAR oacute
ENCODING 243
SWIDTH 455 0
DWIDTH 5 0
BBX 4 6 0 0
BITMAP
20
40
00
F0
B0
F0
ENDCHAR
STARTCHAR ocircumflex
ENCODING 244
SWIDTH 455 0
DWIDTH 5 0
BBX 4 6 0 0
BITMAP
40
A0
00
F0
B0
F0
ENDCHAR
STARTCHAR otilde
ENCODING 245
SWIDTH 455 0
DWIDTH 5 0
BBX 4 6 0 0
BITMAP
D0
B0
00
F0
B0
F0
ENDCHAR
STARTCHAR odieresis
ENCODING 246
SWIDTH 455 0
DWIDTH 5 0
BBX 4 5 0 0
BITMAP
A0
00
F0
B0
F0
ENDCHAR
STARTCHAR divide
ENCODING 247
SWIDTH 455 0
DWIDTH 5 0
BBX 3 5 0 0
BITMAP
40
00
E0
00
40
ENDCHAR
STARTCHAR oslash
ENCODING 248
SWIDTH 455 0
DWIDTH 5 0
BBX 4 6 0 -1
BITMAP
10
E0
D0
D0
70
80
ENDCHAR
STARTCHAR ugrave
ENCODING 249
SWIDTH 455 0
DWIDTH 5 0
BBX 4 6 0 0
BITMAP
40
20
00
D0
D0
70
ENDCHAR
STARTCHAR uacute
ENCODING 250
SWIDTH 455 0
DWIDTH 5 0
BBX 4 6 0 0
BITMAP
10
20
00
D0
D0
70
ENDCHAR
STARTCHAR ucircumflex
ENCODING 251
SWIDTH 455 0
DWIDTH 5 0
BBX 4 6 0 0
BITMAP
20
50
00
D0
D0
70
ENDCHAR
STARTCHAR udieresis
ENCODING 252
SWIDTH 455 0
DWIDTH 5 0
BBX 4 5 0 0
BITMAP
50
00
D0
D0
70
ENDCHAR
STARTCHAR yacute
ENCODING 253
SWIDTH 455 0
DWIDTH 5 0
BBX 4 8 0 -1
BITMAP
20
40
00
B0
B0
F0
30
F0
ENDCHAR
STARTCHAR thorn
ENCODING 254
SWIDTH 455 0
DWIDTH 5 0
BBX 4 6 0 -1
BITMAP
C0
E0
D0
D0
E0
C0
ENDCHAR
STARTCHAR ydieresis
ENCODING 255
SWIDTH 455 0
DWIDTH 5 0
BBX 4 7 0 -1
BITMAP
A0
00
B0
B0
F0
30
F0
ENDCHAR
STARTCHAR Amacron
ENCODING 256
SWIDTH 455 0
DWIDTH 5 0
BBX 4 6 0 0
BITMAP
F0
00
F0
B0
F0
B0
ENDCHAR
STARTCHAR amacron
ENCODING 257
SWIDTH 455 0
DWIDTH 5 0
BBX 4 5 0 0
BITMAP
F0
00
70
D0
F0
ENDCHAR
STARTCHAR Abreve
ENCODING 258
SWIDTH 455 0
DWIDTH 5 0
BBX 4 7 0 0
BITMAP
90
F0
00
F0
B0
F0
B0
ENDCHAR
STARTCHAR abreve
ENCODING 259
SWIDTH 455 0
DWIDTH 5 0
BBX 4 6 0 0
BITMAP
90
F0
00
70
D0
F0
ENDCHAR
STARTCHAR Emacron
ENCODING 274
SWIDTH 455 0
DWIDTH 5 0
BBX 4 6 0 0
BITMAP
F0
00
F0
E0
C0
F0
ENDCHAR
STARTCHAR emacron
ENCODING 275
SWIDTH 455 0
DWIDTH 5 0
BBX 4 5 0 0
BITMAP
F0
00
E0
A0
F0
ENDCHAR
STARTCHAR Imacron
ENCODING 298
SWIDTH 455 0
DWIDTH 5 0
BBX 4 6 0 0
BITMAP
F0
00
F0
60
60
F0
ENDCHAR
STARTCHAR imacron
ENCODING 299
SWIDTH 455 0
DWIDTH 5 0
BBX 4 5 0 0
BITMAP
E0
00
E0
60
F0
ENDCHAR
STARTCHAR Idotaccent
ENCODING 304
SWIDTH 455 0
DWIDTH 5 0
BBX 4 6 0 0
BITMAP
60
00
F0
60
60
F0
ENDCHAR
STARTCHAR dotlessi
ENCODING 305
SWIDTH 455 0
DWIDTH 5 0
BBX 4 4 0 0
BITMAP
E0
60
60
F0
ENDCHAR
STARTCHAR Lslash
ENCODING 321
SWIDTH 455 0
DWIDTH 5 0
BBX 4 5 0 0
BITMAP
60
70
E0
60
70
ENDCHAR
STARTCHAR lslash
ENCODING 322
SWIDTH 455 0
DWIDTH 5 0
BBX 4 5 0 0
BITMAP
E0
70
E0
60
70
ENDCHAR
STARTCHAR Eng
ENCODING 330
SWIDTH 455 0
DWIDTH 5 0
BBX 4 7 0 -2
BITMAP
E0
B0
B0
B0
B0
30
60
ENDCHAR
STARTCHAR eng
ENCODING 331
SWIDTH 455 0
DWIDTH 5 0
BBX 4 6 0 -2
BITMAP
E0
B0
B0
B0
30
60
ENDCHAR
STARTCHAR Omacron
ENCODING 332
SWIDTH 455 0
DWIDTH 5 0
BBX 4 7 0 0
BITMAP
F0
00
F0
B0
B0
B0
F0
ENDCHAR
STARTCHAR omacron
ENCODING 333
SWIDTH 455 0
DWIDTH 5 0
BBX 4 6 0 0
BITMAP
F0
00
F0
B0
B0
F0
ENDCHAR
STARTCHAR Ohungarumlaut
ENCODING 336
SWIDTH 455 0
DWIDTH 5 0
BBX 4 8 0 0
BITMAP
50
A0
00
F0
B0
B0
B0
F0
ENDCHAR
STARTCHAR ohungarumlaut
ENCODING 337
SWIDTH 455 0
DWIDTH 5 0
BBX 4 7 0 0
BITMAP
50
A0
00
F0
B0
B0
F0
ENDCHAR
STARTCHAR OE
ENCODING 338
SWIDTH 455 0
DWIDTH 5 0
BBX 4 5 0 0
BITMAP
F0
A0
B0
A0
F0
ENDCHAR
STARTCHAR oe
ENCODING 339
SWIDTH 455 0
DWIDTH 5 0
BBX 4 4 0 0
BITMAP
F0
B0
A0
F0
ENDCHAR
STARTCHAR Scaron
ENCODING 352
SWIDTH 455 0
DWIDTH 5 0
BBX 4 6 0 0
BITMAP
A0
40
F0
C0
30
F0
ENDCHAR
STARTCHAR scaron
ENCODING 353
SWIDTH 455 0
DWIDTH 5 0
BBX 4 6 0 0
BITMAP
A0
40
00
70
60
E0
ENDCHAR
STARTCHAR Umacron
ENCODING 362
SWIDTH 455 0
DWIDTH 5 0
BBX 4 7 0 0
BITMAP
F0
00
B0
B0
B0
B0
F0
ENDCHAR
STARTCHAR umacron
ENCODING 363
SWIDTH 455 0
DWIDTH 5 0
BBX 4 6 0 0
BITMAP
F0
00
B0
B0
B0
70
ENDCHAR
STARTCHAR Uring
ENCODING 366
SWIDTH 455 0
DWIDTH 5 0
BBX 4 7 0 0
BITMAP
E0
A0
E0
B0
B0
B0
F0
ENDCHAR
STARTCHAR uring
ENCODING 367
SWIDTH 455 0
DWIDTH 5 0
BBX 4 7 0 0
BITMAP
E0
A0
E0
00
B0
B0
70
ENDCHAR
STARTCHAR Uhungarumlaut
ENCODING 368
SWIDTH 455 0
DWIDTH 5 0
BBX 4 7 0 0
BITMAP
50
A0
00
B0
B0
B0
F0
ENDCHAR
STARTCHAR uhungarumlaut
ENCODING 369
SWIDTH 455 0
DWIDTH 5 0
BBX 4 6 0 0
BITMAP
50
A0
00
D0
D0
70
ENDCHAR
STARTCHAR Ydieresis
ENCODING 376
SWIDTH 455 0
DWIDTH 5 0
BBX 4 6 0 0
BITMAP
A0
00
B0
B0
60
60
ENDCHAR
STARTCHAR Zcaron
ENCODING 381
SWIDTH 455 0
DWIDTH 5 0
BBX 4 6 0 0
BITMAP
A0
40
F0
30
C0
F0
ENDCHAR
STARTCHAR zcaron
ENCODING 382
SWIDTH 455 0
DWIDTH 5 0
BBX 4 6 0 0
BITMAP
A0
40
00
E0
60
70
ENDCHAR
STARTCHAR longs
ENCODING 383
SWIDTH 455 0
DWIDTH 5 0
BBX 3 4 0 0
BITMAP
60
C0
C0
C0
ENDCHAR
STARTCHAR uni0181
ENCODING 385
SWIDTH 455 0
DWIDTH 5 0
BBX 4 5 0 0
BITMAP
F0
D0
60
50
70
ENDCHAR
STARTCHAR uni0186
ENCODING 390
SWIDTH 455 0
DWIDTH 5 0
BBX 4 5 0 0
BITMAP
F0
D0
10
D0
F0
ENDCHAR
STARTCHAR uni018F
ENCODING 399
SWIDTH 455 0
DWIDTH 5 0
BBX 4 5 0 0
BITMAP
70
10
F0
D0
F0
ENDCHAR
STARTCHAR florin
ENCODING 402
SWIDTH 455 0
DWIDTH 5 0
BBX 4 6 0 -1
BITMAP
70
60
F0
60
60
E0
ENDCHAR
STARTCHAR Ohorn
ENCODING 416
SWIDTH 455 0
DWIDTH 5 0
BBX 4 5 0 0
BITMAP
D0
B0
A0
A0
E0
ENDCHAR
STARTCHAR ohorn
ENCODING 417
SWIDTH 455 0
DWIDTH 5 0
BBX 4 5 0 0
BITMAP
10
F0
A0
A0
E0
ENDCHAR
STARTCHAR uni01A9
ENCODING 425
SWIDTH 455 0
DWIDTH 5 0
BBX 4 5 0 0
BITMAP
F0
C0
60
C0
F0
ENDCHAR
STARTCHAR uni01C0
ENCODING 448
SWIDTH 455 0
DWIDTH 5 0
BBX 2 5 1 0
BITMAP
C0
C0
C0
C0
C0
ENDCHAR
STARTCHAR uni01C1
ENCODING 449
SWIDTH 455 0
DWIDTH 5 0
BBX 4 5 0 0
BITMAP
90
90
90
90
90
ENDCHAR
STARTCHAR uni01C2
ENCODING 450
SWIDTH 455 0
DWIDTH 5 0
BBX 4 5 0 0
BITMAP
60
F0
60
F0
60
ENDCHAR
STARTCHAR uni01C3
ENCODING 451
SWIDTH 455 0
DWIDTH 5 0
BBX 4 5 0 0
BITMAP
60
F0
60
00
60
ENDCHAR
STARTCHAR uni0241
ENCODING 577
SWIDTH 455 0
DWIDTH 5 0
BBX 4 5 0 0
BITMAP
F0
10
70
60
60
ENDCHAR
STARTCHAR uni0242
ENCODING 578
SWIDTH 455 0
DWIDTH 5 0
BBX 4 4 0 0
BITMAP
F0
30
60
60
ENDCHAR
STARTCHAR uni0254
ENCODING 596
SWIDTH 455 0
DWIDTH 5 0
BBX 4 4 0 0
BITMAP
F0
30
30
F0
ENDCHAR
STARTCHAR uni0259
ENCODING 601
SWIDTH 455 0
DWIDTH 5 0
BBX 4 4 0 0
BITMAP
F0
30
D0
F0
ENDCHAR
STARTCHAR uni025B
ENCODING 603
SWIDTH 455 0
DWIDTH 5 0
BBX 4 4 0 0
BITMAP
F0
60
C0
F0
ENDCHAR
STARTCHAR uni025C
ENCODING 604
SWIDTH 455 0
DWIDTH 5 0
BBX 4 4 0 0
BITMAP
F0
60
30
F0
ENDCHAR
STARTCHAR uni0262
ENCODING 610
SWIDTH 455 0
DWIDTH 5 0
BBX 4 4 0 0
BITMAP
F0
80
B0
F0
ENDCHAR
STARTCHAR uni0268
ENCODING 616
SWIDTH 455 0
DWIDTH 5 0
BBX 4 6 0 0
BITMAP
60
00
60
F0
60
60
ENDCHAR
STARTCHAR uni026A
ENCODING 618
SWIDTH 455 0
DWIDTH 5 0
BBX 4 4 0 0
BITMAP
F0
60
60
F0
ENDCHAR
STARTCHAR uni0274
ENCODING 628
SWIDTH 455 0
DWIDTH 5 0
BBX 4 4 0 0
BITMAP
D0
D0
B0
B0
ENDCHAR
STARTCHAR uni0279
ENCODING 633
SWIDTH 455 0
DWIDTH 5 0
BBX 4 4 0 0
BITMAP
10
D0
D0
F0
ENDCHAR
STARTCHAR uni027E
ENCODING 638
SWIDTH 455 0
DWIDTH 5 0
BBX 4 4 0 0
BITMAP
30
60
60
F0
ENDCHAR
STARTCHAR uni028C
ENCODING 652
SWIDTH 455 0
DWIDTH 5 0
BBX 4 4 0 0
BITMAP
40
E0
B0
B0
ENDCHAR
STARTCHAR uni028D
ENCODING 653
SWIDTH 455 0
DWIDTH 5 0
BBX 4 4 0 0
BITMAP
D0
F0
D0
D0
ENDCHAR
STARTCHAR uni028E
ENCODING 654
SWIDTH 455 0
DWIDTH 5 0
BBX 4 5 0 0
BITMAP
F0
C0
F0
D0
D0
ENDCHAR
STARTCHAR uni028F
ENCODING 655
SWIDTH 455 0
DWIDTH 5 0
BBX 4 4 0 0
BITMAP
D0
D0
60
60
ENDCHAR
STARTCHAR uni0294
ENCODING 660
SWIDTH 455 0
DWIDTH 5 0
BBX 4 5 0 0
BITMAP
F0
10
70
60
60
ENDCHAR
STARTCHAR uni0295
ENCODING 661
SWIDTH 455 0
DWIDTH 5 0
BBX 4 5 0 0
BITMAP
F0
80
E0
60
60
ENDCHAR
STARTCHAR uni0296
ENCODING 662
SWIDTH 455 0
DWIDTH 5 0
BBX 4 5 0 0
BITMAP
60
60
70
10
F0
ENDCHAR
STARTCHAR uni02B0
ENCODING 688
SWIDTH 455 0
DWIDTH 5 0
BBX 4 3 0 2
BITMAP
80
F0
90
ENDCHAR
STARTCHAR uni02B1
ENCODING 689
SWIDTH 455 0
DWIDTH 5 0
BBX 4 4 0 2
BITMAP
C0
80
F0
90
ENDCHAR
STARTCHAR uni02C8
ENCODING 712
SWIDTH 455 0
DWIDTH 5 0
BBX 2 3 1 3
BITMAP
C0
C0
C0
ENDCHAR
STARTCHAR uni02CC
ENCODING 716
SWIDTH 455 0
DWIDTH 5 0
BBX 2 3 1 -1
BITMAP
C0
C0
C0
ENDCHAR
STARTCHAR uni037B
ENCODING 891
SWIDTH 455 0
DWIDTH 5 0
BBX 4 4 0 0
BITMAP
F0
30
30
F0
ENDCHAR
STARTCHAR uni037E
ENCODING 894
SWIDTH 455 0
DWIDTH 5 0
BBX 3 6 0 -1
BITMAP
60
60
00
60
60
E0
ENDCHAR
STARTCHAR anoteleia
ENCODING 903
SWIDTH 455 0
DWIDTH 5 0
BBX 2 1 1 2
BITMAP
C0
ENDCHAR
STARTCHAR Alpha
ENCODING 913
SWIDTH 455 0
DWIDTH 5 0
BBX 4 5 0 0
BITMAP
F0
B0
F0
B0
B0
ENDCHAR
STARTCHAR Beta
ENCODING 914
SWIDTH 455 0
DWIDTH 5 0
BBX 4 5 0 0
BITMAP
E0
A0
F0
D0
F0
ENDCHAR
STARTCHAR Gamma
ENCODING 915
SWIDTH 455 0
DWIDTH 5 0
BBX 4 5 0 0
BITMAP
F0
C0
C0
C0
C0
ENDCHAR
STARTCHAR uni0394
ENCODING 916
SWIDTH 455 0
DWIDTH 5 0
BBX 4 5 0 0
BITMAP
60
60
B0
B0
F0
ENDCHAR
STARTCHAR Epsilon
ENCODING 917
SWIDTH 455 0
DWIDTH 5 0
BBX 4 5 0 0
BITMAP
F0
C0
F0
C0
F0
ENDCHAR
STARTCHAR Zeta
ENCODING 918
SWIDTH 455 0
DWIDTH 5 0
BBX 4 5 0 0
BITMAP
F0
30
60
C0
F0
ENDCHAR
STARTCHAR Eta
ENCODING 919
SWIDTH 455 0
DWIDTH 5 0
BBX 4 5 0 0
BITMAP
B0
B0
F0
B0
B0
ENDCHAR
STARTCHAR Theta
ENCODING 920
SWIDTH 455 0
DWIDTH 5 0
BBX 4 5 0 0
BITMAP
70
B0
F0
B0
E0
ENDCHAR
STARTCHAR Iota
ENCODING 921
SWIDTH 455 0
DWIDTH 5 0
BBX 4 5 0 0
BITMAP
F0
60
60
60
F0
ENDCHAR
STARTCHAR Kappa
ENCODING 922
SWIDTH 455 0
DWIDTH 5 0
BBX 4 5 0 0
BITMAP
B0
B0
E0
B0
B0
ENDCHAR
STARTCHAR Lambda
ENCODING 923
SWIDTH 455 0
DWIDTH 5 0
BBX 4 5 0 0
BITMAP
60
60
B0
B0
B0
ENDCHAR
STARTCHAR Mu
ENCODING 924
SWIDTH 455 0
DWIDTH 5 0
BBX 4 5 0 0
BITMAP
B0
F0
B0
B0
B0
ENDCHAR
STARTCHAR Nu
ENCODING 925
SWIDTH 455 0
DWIDTH 5 0
BBX 4 5 0 0
BITMAP
E0
B0
B0
B0
B0
ENDCHAR
STARTCHAR Xi
ENCODING 926
SWIDTH 455 0
DWIDTH 5 0
BBX 4 5 0 0
BITMAP
F0
00
60
00
F0
ENDCHAR
STARTCHAR Omicron
ENCODING 927
SWIDTH 455 0
DWIDTH 5 0
BBX 4 5 0 0
BITMAP
F0
B0
B0
B0
F0
ENDCHAR
STARTCHAR Pi
ENCODING 928
SWIDTH 455 0
DWIDTH 5 0
BBX 4 5 0 0
BITMAP
F0
B0
B0
B0
B0
ENDCHAR
STARTCHAR Rho
ENCODING 929
SWIDTH 455 0
DWIDTH 5 0
BBX 4 5 0 0
BITMAP
F0
B0
F0
C0
C0
ENDCHAR
STARTCHAR Sigma
ENCODING 931
SWIDTH 455 0
DWIDTH 5 0
BBX 4 5 0 0
BITMAP
F0
C0
60
C0
F0
ENDCHAR
STARTCHAR Tau
ENCODING 932
SWIDTH 455 0
DWIDTH 5 0
BBX 4 5 0 0
BITMAP
F0
60
60
60
60
ENDCHAR
STARTCHAR Upsilon
ENCODING 933
SWIDTH 455 0
DWIDTH 5 0
BBX 4 5 0 0
BITMAP
B0
B0
F0
60
60
ENDCHAR
STARTCHAR Phi
ENCODING 934
SWIDTH 455 0
DWIDTH 5 0
BBX 4 5 0 0
BITMAP
20
F0
B0
F0
40
ENDCHAR
STARTCHAR Chi
ENCODING 935
SWIDTH 455 0
DWIDTH 5 0
BBX 4 5 0 0
BITMAP
D0
D0
60
B0
B0
ENDCHAR
STARTCHAR Psi
ENCODING 936
SWIDTH 455 0
DWIDTH 5 0
BBX 4 5 0 0
BITMAP
90
B0
F0
60
60
ENDCHAR
STARTCHAR uni03A9
ENCODING 937
SWIDTH 455 0
DWIDTH 5 0
BBX 4 5 0 0
BITMAP
F0
B0
B0
60
B0
ENDCHAR
STARTCHAR alpha
ENCODING 945
SWIDTH 455 0
DWIDTH 5 0
BBX 4 4 0 0
BITMAP
70
B0
B0
F0
ENDCHAR
STARTCHAR beta
ENCODING 946
SWIDTH 455 0
DWIDTH 5 0
BBX 4 6 0 -1
BITMAP
F0
B0
A0
B0
B0
80
ENDCHAR
STARTCHAR gamma
ENCODING 947
SWIDTH 455 0
DWIDTH 5 0
BBX 4 5 0 -1
BITMAP
B0
B0
B0
60
60
ENDCHAR
STARTCHAR delta
ENCODING 948
SWIDTH 455 0
DWIDTH 5 0
BBX 4 5 0 0
BITMAP
70
60
F0
B0
F0
ENDCHAR
STARTCHAR epsilon
ENCODING 949
SWIDTH 455 0
DWIDTH 5 0
BBX 4 4 0 0
BITMAP
F0
60
C0
F0
ENDCHAR
STARTCHAR zeta
ENCODING 950
SWIDTH 455 0
DWIDTH 5 0
BBX 4 6 0 -1
BITMAP
E0
60
C0
C0
70
30
ENDCHAR
STARTCHAR eta
ENCODING 951
SWIDTH 455 0
DWIDTH 5 0
BBX 4 5 0 -1
BITMAP
E0
B0
B0
B0
30
ENDCHAR
STARTCHAR theta
ENCODING 952
SWIDTH 455 0
DWIDTH 5 0
BBX 4 5 0 0
BITMAP
70
B0
F0
B0
E0
ENDCHAR
STARTCHAR iota
ENCODING 953
SWIDTH 455 0
DWIDTH 5 0
BBX 3 4 1 0
BITMAP
C0
C0
C0
60
ENDCHAR
STARTCHAR kappa
ENCODING 954
SWIDTH 455 0
DWIDTH 5 0
BBX 4 4 0 0
BITMAP
B0
E0
B0
B0
ENDCHAR
STARTCHAR lambda
ENCODING 955
SWIDTH 455 0
DWIDTH 5 0
BBX 4 5 0 0
BITMAP
C0
60
F0
B0
B0
ENDCHAR
STARTCHAR uni03BC
ENCODING 956
SWIDTH 455 0
DWIDTH 5 0
BBX 4 5 0 -1
BITMAP
D0
D0
D0
F0
C0
ENDCHAR
STARTCHAR nu
ENCODING 957
SWIDTH 455 0
DWIDTH 5 0
BBX 4 4 0 0
BITMAP
B0
B0
70
60
ENDCHAR
STARTCHAR xi
ENCODING 958
SWIDTH 455 0
DWIDTH 5 0
BBX 4 6 0 -1
BITMAP
F0
40
F0
C0
F0
30
ENDCHAR
STARTCHAR omicron
ENCODING 959
SWIDTH 455 0
DWIDTH 5 0
BBX 4 4 0 0
BITMAP
F0
B0
B0
F0
ENDCHAR
STARTCHAR pi
ENCODING 960
SWIDTH 455 0
DWIDTH 5 0
BBX 4 4 0 0
BITMAP
F0
B0
B0
B0
ENDCHAR
STARTCHAR rho
ENCODING 961
SWIDTH 455 0
DWIDTH 5 0
BBX 4 5 0 -1
BITMAP
F0
D0
D0
F0
C0
ENDCHAR
STARTCHAR sigma1
ENCODING 962
SWIDTH 455 0
DWIDTH 5 0
BBX 4 5 0 -1
BITMAP
F0
C0
C0
F0
30
ENDCHAR
STARTCHAR sigma
ENCODING 963
SWIDTH 455 0
DWIDTH 5 0
BBX 4 4 0 0
BITMAP
F0
A0
B0
F0
ENDCHAR
STARTCHAR tau
ENCODING 964
SWIDTH 455 0
DWIDTH 5 0
BBX 4 4 0 0
BITMAP
F0
60
60
70
ENDCHAR
STARTCHAR upsilon
ENCODING 965
SWIDTH 455 0
DWIDTH 5 0
BBX 4 4 0 0
BITMAP
D0
D0
D0
60
ENDCHAR
STARTCHAR phi
ENCODING 966
SWIDTH 455 0
DWIDTH 5 0
BBX 4 5 0 -1
BITMAP
B0
D0
D0
60
40
ENDCHAR
STARTCHAR chi
ENCODING 967
SWIDTH 455 0
DWIDTH 5 0
BBX 4 5 0 -1
BITMAP
D0
60
60
60
B0
ENDCHAR
STARTCHAR psi
ENCODING 968
SWIDTH 455 0
DWIDTH 5 0
BBX 4 5 0 -1
BITMAP
20
B0
F0
20
20
ENDCHAR
STARTCHAR omega
ENCODING 969
SWIDTH 455 0
DWIDTH 5 0
BBX 4 4 0 0
BITMAP
90
90
B0
F0
ENDCHAR
STARTCHAR uni03CF
ENCODING 975
SWIDTH 455 0
DWIDTH 5 0
BBX 4 7 0 -2
BITMAP
B0
B0
E0
B0
B0
30
60
ENDCHAR
STARTCHAR uni03D7
ENCODING 983
SWIDTH 455 0
DWIDTH 5 0
BBX 4 6 0 -2
BITMAP
B0
E0
B0
B0
30
60
ENDCHAR
STARTCHAR uni03D8
ENCODING 984
SWIDTH 455 0
DWIDTH 5 0
BBX 4 5 0 0
BITMAP
F0
B0
B0
F0
60
ENDCHAR
STARTCHAR uni03D9
ENCODING 985
SWIDTH 455 0
DWIDTH 5 0
BBX 4 5 0 -1
BITMAP
F0
B0
B0
F0
60
ENDCHAR
STARTCHAR uni03DA
ENCODING 986
SWIDTH 455 0
DWIDTH 5 0
BBX 4 5 0 0
BITMAP
60
D0
C0
70
30
ENDCHAR
STARTCHAR uni03DB
ENCODING 987
SWIDTH 455 0
DWIDTH 5 0
BBX 4 5 0 -1
BITMAP
70
C0
C0
70
10
ENDCHAR
STARTCHAR uni03DC
ENCODING 988
SWIDTH 455 0
DWIDTH 5 0
BBX 4 5 0 0
BITMAP
F0
80
F0
D0
C0
ENDCHAR
STARTCHAR uni03DD
ENCODING 989
SWIDTH 455 0
DWIDTH 5 0
BBX 4 5 0 -1
BITMAP
F0
80
F0
D0
C0
ENDCHAR
STARTCHAR uni03DE
ENCODING 990
SWIDTH 455 0
DWIDTH 5 0
BBX 4 5 0 0
BITMAP
E0
C0
F0
30
70
ENDCHAR
STARTCHAR uni03DF
ENCODING 991
SWIDTH 455 0
DWIDTH 5 0
BBX 4 6 0 -1
BITMAP
E0
80
F0
F0
30
70
ENDCHAR
STARTCHAR uni03E0
ENCODING 992
SWIDTH 455 0
DWIDTH 5 0
BBX 4 5 0 0
BITMAP
E0
30
70
30
70
ENDCHAR
STARTCHAR uni03E1
ENCODING 993
SWIDTH 455 0
DWIDTH 5 0
BBX 4 6 0 -1
BITMAP
E0
30
70
30
70
30
ENDCHAR
STARTCHAR uni03F0
ENCODING 1008
SWIDTH 455 0
DWIDTH 5 0
BBX 4 4 0 0
BITMAP
D0
50
A0
B0
ENDCHAR
STARTCHAR uni03F1
ENCODING 1009
SWIDTH 455 0
DWIDTH 5 0
BBX 4 6 0 -2
BITMAP
60
B0
B0
E0
80
70
ENDCHAR
STARTCHAR uni03F2
ENCODING 1010
SWIDTH 455 0
DWIDTH 5 0
BBX 4 4 0 0
BITMAP
F0
C0
C0
F0
ENDCHAR
STARTCHAR uni03F7
ENCODING 1015
SWIDTH 455 0
DWIDTH 5 0
BBX 4 5 0 0
BITMAP
80
F0
B0
F0
80
ENDCHAR
STARTCHAR uni03F8
ENCODING 1016
SWIDTH 455 0
DWIDTH 5 0
BBX 4 6 0 -1
BITMAP
80
F0
B0
B0
F0
80
ENDCHAR
STARTCHAR uni03F9
ENCODING 1017
SWIDTH 455 0
DWIDTH 5 0
BBX 4 5 0 0
BITMAP
F0
B0
80
B0
F0
ENDCHAR
STARTCHAR uni03FD
ENCODING 1021
SWIDTH 455 0
DWIDTH 5 0
BBX 4 5 0 0
BITMAP
F0
D0
10
D0
F0
ENDCHAR
STARTCHAR uni0401
ENCODING 1025
SWIDTH 455 0
DWIDTH 5 0
BBX 4 6 0 0
BITMAP
50
00
F0
E0
C0
F0
ENDCHAR
STARTCHAR uni0402
ENCODING 1026
SWIDTH 455 0
DWIDTH 5 0
BBX 4 5 0 0
BITMAP
E0
80
F0
90
B0
ENDCHAR
STARTCHAR uni0404
ENCODING 1028
SWIDTH 455 0
DWIDTH 5 0
BBX 4 5 0 0
BITMAP
70
C0
F0
C0
70
ENDCHAR
STARTCHAR uni0405
ENCODING 1029
SWIDTH 455 0
DWIDTH 5 0
BBX 4 5 0 0
BITMAP
F0
80
F0
30
F0
ENDCHAR
STARTCHAR uni0406
ENCODING 1030
SWIDTH 455 0
DWIDTH 5 0
BBX 4 5 0 0
BITMAP
F0
60
60
60
F0
ENDCHAR
STARTCHAR uni0407
ENCODING 1031
SWIDTH 455 0
DWIDTH 5 0
BBX 4 6 0 0
BITMAP
90
00
F0
60
60
F0
ENDCHAR
STARTCHAR uni0408
ENCODING 1032
SWIDTH 455 0
DWIDTH 5 0
BBX 4 5 0 0
BITMAP
30
30
30
B0
F0
ENDCHAR
STARTCHAR uni0409
ENCODING 1033
SWIDTH 455 0
DWIDTH 5 0
BBX 4 5 0 0
BITMAP
60
A0
B0
B0
B0
ENDCHAR
STARTCHAR uni040A
ENCODING 1034
SWIDTH 455 0
DWIDTH 5 0
BBX 4 5 0 0
BITMAP
A0
A0
F0
B0
B0
ENDCHAR
STARTCHAR uni040B
ENCODING 1035
SWIDTH 455 0
DWIDTH 5 0
BBX 4 5 0 0
BITMAP
E0
40
70
50
50
ENDCHAR
STARTCHAR uni040E
ENCODING 1038
SWIDTH 455 0
DWIDTH 5 0
BBX 4 7 0 0
BITMAP
90
F0
00
B0
F0
30
E0
ENDCHAR
STARTCHAR uni040F
ENCODING 1039
SWIDTH 455 0
DWIDTH 5 0
BBX 4 6 0 -1
BITMAP
B0
B0
B0
B0
F0
60
ENDCHAR
STARTCHAR uni0410
ENCODING 1040
SWIDTH 455 0
DWIDTH 5 0
BBX 4 5 0 0
BITMAP
F0
B0
F0
B0
B0
ENDCHAR
STARTCHAR uni0411
ENCODING 1041
SWIDTH 455 0
DWIDTH 5 0
BBX 4 5 0 0
BITMAP
F0
C0
F0
B0
F0
ENDCHAR
STARTCHAR uni0412
ENCODING 1042
SWIDTH 455 0
DWIDTH 5 0
BBX 4 5 0 0
BITMAP
E0
A0
F0
B0
F0
ENDCHAR
STARTCHAR uni0413
ENCODING 1043
SWIDTH 455 0
DWIDTH 5 0
BBX 4 5 0 0
BITMAP
F0
C0
C0
C0
C0
ENDCHAR
STARTCHAR uni0414
ENCODING 1044
SWIDTH 455 0
DWIDTH 5 0
BBX 4 6 0 -1
BITMAP
70
D0
D0
D0
F0
90
ENDCHAR
STARTCHAR uni0415
ENCODING 1045
SWIDTH 455 0
DWIDTH 5 0
BBX 4 5 0 0
BITMAP
F0
C0
F0
C0
F0
ENDCHAR
STARTCHAR uni0416
ENCODING 1046
SWIDTH 455 0
DWIDTH 5 0
BBX 4 5 0 0
BITMAP
90
F0
60
F0
90
ENDCHAR
STARTCHAR uni0417
ENCODING 1047
SWIDTH 455 0
DWIDTH 5 0
BBX 4 5 0 0
BITMAP
F0
30
60
30
F0
ENDCHAR
STARTCHAR uni0418
ENCODING 1048
SWIDTH 455 0
DWIDTH 5 0
BBX 4 5 0 0
BITMAP
B0
B0
B0
B0
E0
ENDCHAR
STARTCHAR uni0419
ENCODING 1049
SWIDTH 455 0
DWIDTH 5 0
BBX 4 6 0 0
BITMAP
90
F0
00
B0
B0
E0
ENDCHAR
STARTCHAR uni041A
ENCODING 1050
SWIDTH 455 0
DWIDTH 5 0
BBX 4 5 0 0
BITMAP
B0
B0
E0
B0
B0
ENDCHAR
STARTCHAR uni041B
ENCODING 1051
SWIDTH 455 0
DWIDTH 5 0
BBX 4 5 0 0
BITMAP
70
50
50
50
D0
ENDCHAR
STARTCHAR uni041C
ENCODING 1052
SWIDTH 455 0
DWIDTH 5 0
BBX 4 5 0 0
BITMAP
90
F0
F0
B0
B0
ENDCHAR
STARTCHAR uni041D
ENCODING 1053
SWIDTH 455 0
DWIDTH 5 0
BBX 4 5 0 0
BITMAP
B0
B0
F0
B0
B0
ENDCHAR
STARTCHAR uni041E
ENCODING 1054
SWIDTH 455 0
DWIDTH 5 0
BBX 4 5 0 0
BITMAP
F0
B0
B0
B0
F0
ENDCHAR
STARTCHAR uni041F
ENCODING 1055
SWIDTH 455 0
DWIDTH 5 0
BBX 4 5 0 0
BITMAP
F0
B0
B0
B0
B0
ENDCHAR
STARTCHAR uni0420
ENCODING 1056
SWIDTH 455 0
DWIDTH 5 0
BBX 4 5 0 0
BITMAP
F0
B0
B0
F0
80
ENDCHAR
STARTCHAR uni0421
ENCODING 1057
SWIDTH 455 0
DWIDTH 5 0
BBX 4 5 0 0
BITMAP
F0
B0
80
B0
F0
ENDCHAR
STARTCHAR uni0422
ENCODING 1058
SWIDTH 455 0
DWIDTH 5 0
BBX 4 5 0 0
BITMAP
F0
60
60
60
60
ENDCHAR
STARTCHAR uni0423
ENCODING 1059
SWIDTH 455 0
DWIDTH 5 0
BBX 4 5 0 0
BITMAP
B0
B0
F0
30
E0
ENDCHAR
STARTCHAR uni0424
ENCODING 1060
SWIDTH 455 0
DWIDTH 5 0
BBX 4 5 0 0
BITMAP
20
F0
B0
F0
40
ENDCHAR
STARTCHAR uni0425
ENCODING 1061
SWIDTH 455 0
DWIDTH 5 0
BBX 4 5 0 0
BITMAP
D0
D0
60
B0
B0
ENDCHAR
STARTCHAR uni0426
ENCODING 1062
SWIDTH 455 0
DWIDTH 5 0
BBX 4 6 0 -1
BITMAP
D0
D0
D0
D0
F0
30
ENDCHAR
STARTCHAR uni0427
ENCODING 1063
SWIDTH 455 0
DWIDTH 5 0
BBX 4 5 0 0
BITMAP
B0
B0
70
30
30
ENDCHAR
STARTCHAR uni0428
ENCODING 1064
SWIDTH 455 0
DWIDTH 5 0
BBX 4 5 0 0
BITMAP
90
90
B0
B0
F0
ENDCHAR
STARTCHAR uni0429
ENCODING 1065
SWIDTH 455 0
DWIDTH 5 0
BBX 4 5 0 0
BITMAP
90
90
B0
F0
30
ENDCHAR
STARTCHAR uni042A
ENCODING 1066
SWIDTH 455 0
DWIDTH 5 0
BBX 4 5 0 0
BITMAP
E0
60
70
50
70
ENDCHAR
STARTCHAR uni042B
ENCODING 1067
SWIDTH 455 0
DWIDTH 5 0
BBX 4 5 0 0
BITMAP
90
90
D0
F0
D0
ENDCHAR
STARTCHAR uni042C
ENCODING 1068
SWIDTH 455 0
DWIDTH 5 0
BBX 4 5 0 0
BITMAP
80
80
F0
B0
F0
ENDCHAR
STARTCHAR uni042D
ENCODING 1069
SWIDTH 455 0
DWIDTH 5 0
BBX 4 5 0 0
BITMAP
E0
30
F0
30
E0
ENDCHAR
STARTCHAR uni042E
ENCODING 1070
SWIDTH 455 0
DWIDTH 5 0
BBX 4 5 0 0
BITMAP
B0
B0
D0
B0
B0
ENDCHAR
STARTCHAR uni042F
ENCODING 1071
SWIDTH 455 0
DWIDTH 5 0
BBX 4 5 0 0
BITMAP
F0
B0
B0
70
B0
ENDCHAR
STARTCHAR uni0430
ENCODING 1072
SWIDTH 455 0
DWIDTH 5 0
BBX 4 4 0 0
BITMAP
F0
30
B0
F0
ENDCHAR
STARTCHAR uni0431
ENCODING 1073
SWIDTH 455 0
DWIDTH 5 0
BBX 4 5 0 0
BITMAP
60
C0
F0
D0
F0
ENDCHAR
STARTCHAR uni0432
ENCODING 1074
SWIDTH 455 0
DWIDTH 5 0
BBX 4 4 0 0
BITMAP
E0
B0
D0
F0
ENDCHAR
STARTCHAR uni0433
ENCODING 1075
SWIDTH 455 0
DWIDTH 5 0
BBX 4 4 0 0
BITMAP
F0
C0
C0
C0
ENDCHAR
STARTCHAR uni0434
ENCODING 1076
SWIDTH 455 0
DWIDTH 5 0
BBX 4 5 0 -1
BITMAP
70
50
50
F0
D0
ENDCHAR
STARTCHAR uni0435
ENCODING 1077
SWIDTH 455 0
DWIDTH 5 0
BBX 4 4 0 0
BITMAP
F0
B0
C0
F0
ENDCHAR
STARTCHAR uni0436
ENCODING 1078
SWIDTH 455 0
DWIDTH 5 0
BBX 4 4 0 0
BITMAP
B0
E0
70
D0
ENDCHAR
STARTCHAR uni0437
ENCODING 1079
SWIDTH 455 0
DWIDTH 5 0
BBX 4 4 0 0
BITMAP
E0
70
30
E0
ENDCHAR
STARTCHAR uni0438
ENCODING 1080
SWIDTH 455 0
DWIDTH 5 0
BBX 4 4 0 0
BITMAP
B0
B0
B0
E0
ENDCHAR
STARTCHAR uni0439
ENCODING 1081
SWIDTH 455 0
DWIDTH 5 0
BBX 4 6 0 0
BITMAP
90
F0
00
B0
B0
E0
ENDCHAR
STARTCHAR uni043A
ENCODING 1082
SWIDTH 455 0
DWIDTH 5 0
BBX 4 4 0 0
BITMAP
B0
E0
B0
B0
ENDCHAR
STARTCHAR uni043B
ENCODING 1083
SWIDTH 455 0
DWIDTH 5 0
BBX 4 4 0 0
BITMAP
70
50
50
D0
ENDCHAR
STARTCHAR uni043C
ENCODING 1084
SWIDTH 455 0
DWIDTH 5 0
BBX 4 4 0 0
BITMAP
F0
F0
B0
B0
ENDCHAR
STARTCHAR uni043D
ENCODING 1085
SWIDTH 455 0
DWIDTH 5 0
BBX 4 4 0 0
BITMAP
B0
F0
B0
B0
ENDCHAR
STARTCHAR uni043E
ENCODING 1086
SWIDTH 455 0
DWIDTH 5 0
BBX 4 4 0 0
BITMAP
F0
B0
B0
F0
ENDCHAR
STARTCHAR uni043F
ENCODING 1087
SWIDTH 455 0
DWIDTH 5 0
BBX 4 4 0 0
BITMAP
F0
B0
B0
B0
ENDCHAR
STARTCHAR uni0440
ENCODING 1088
SWIDTH 455 0
DWIDTH 5 0
BBX 4 5 0 -1
BITMAP
F0
B0
B0
F0
80
ENDCHAR
STARTCHAR uni0441
ENCODING 1089
SWIDTH 455 0
DWIDTH 5 0
BBX 4 4 0 0
BITMAP
F0
C0
C0
F0
ENDCHAR
STARTCHAR uni0442
ENCODING 1090
SWIDTH 455 0
DWIDTH 5 0
BBX 4 4 0 0
BITMAP
F0
60
60
60
ENDCHAR
STARTCHAR uni0443
ENCODING 1091
SWIDTH 455 0
DWIDTH 5 0
BBX 4 5 0 -1
BITMAP
D0
D0
D0
70
E0
ENDCHAR
STARTCHAR uni0444
ENCODING 1092
SWIDTH 455 0
DWIDTH 5 0
BBX 4 6 0 -1
BITMAP
60
F0
B0
B0
F0
60
ENDCHAR
STARTCHAR uni0445
ENCODING 1093
SWIDTH 455 0
DWIDTH 5 0
BBX 4 4 0 0
BITMAP
B0
60
B0
B0
ENDCHAR
STARTCHAR uni0446
ENCODING 1094
SWIDTH 455 0
DWIDTH 5 0
BBX 4 5 0 -1
BITMAP
D0
D0
D0
F0
30
ENDCHAR
STARTCHAR uni0447
ENCODING 1095
SWIDTH 455 0
DWIDTH 5 0
BBX 4 4 0 0
BITMAP
D0
D0
70
30
ENDCHAR
STARTCHAR uni0448
ENCODING 1096
SWIDTH 455 0
DWIDTH 5 0
BBX 4 4 0 0
BITMAP
90
B0
B0
F0
ENDCHAR
STARTCHAR uni0449
ENCODING 1097
SWIDTH 455 0
DWIDTH 5 0
BBX 4 5 0 -1
BITMAP
90
B0
B0
F0
30
ENDCHAR
STARTCHAR uni044A
ENCODING 1098
SWIDTH 455 0
DWIDTH 5 0
BBX 4 4 0 0
BITMAP
C0
70
50
70
ENDCHAR
STARTCHAR uni044B
ENCODING 1099
SWIDTH 455 0
DWIDTH 5 0
BBX 4 4 0 0
BITMAP
90
90
D0
D0
ENDCHAR
STARTCHAR uni044C
ENCODING 1100
SWIDTH 455 0
DWIDTH 5 0
BBX 4 4 0 0
BITMAP
80
F0
B0
F0
ENDCHAR
STARTCHAR uni044D
ENCODING 1101
SWIDTH 455 0
DWIDTH 5 0
BBX 4 4 0 0
BITMAP
F0
70
30
F0
ENDCHAR
STARTCHAR uni044E
ENCODING 1102
SWIDTH 455 0
DWIDTH 5 0
BBX 4 4 0 0
BITMAP
B0
D0
D0
B0
ENDCHAR
STARTCHAR uni044F
ENCODING 1103
SWIDTH 455 0
DWIDTH 5 0
BBX 4 4 0 0
BITMAP
F0
B0
70
B0
ENDCHAR
STARTCHAR uni0451
ENCODING 1105
SWIDTH 455 0
DWIDTH 5 0
BBX 4 6 0 0
BITMAP
A0
00
F0
B0
C0
F0
ENDCHAR
STARTCHAR uni0452
ENCODING 1106
SWIDTH 455 0
DWIDTH 5 0
BBX 4 8 0 -2
BITMAP
C0
E0
C0
F0
D0
D0
10
30
ENDCHAR
STARTCHAR uni0454
ENCODING 1108
SWIDTH 455 0
DWIDTH 5 0
BBX 4 4 0 0
BITMAP
70
E0
C0
70
ENDCHAR
STARTCHAR uni0455
ENCODING 1109
SWIDTH 455 0
DWIDTH 5 0
BBX 4 4 0 0
BITMAP
F0
80
70
F0
ENDCHAR
STARTCHAR uni0456
ENCODING 1110
SWIDTH 455 0
DWIDTH 5 0
BBX 4 6 0 0
BITMAP
60
00
E0
60
60
F0
ENDCHAR
STARTCHAR uni0457
ENCODING 1111
SWIDTH 455 0
DWIDTH 5 0
BBX 4 6 0 0
BITMAP
90
00
E0
60
60
F0
ENDCHAR
STARTCHAR uni0458
ENCODING 1112
SWIDTH 455 0
DWIDTH 5 0
BBX 4 7 0 -1
BITMAP
30
00
30
30
30
B0
F0
ENDCHAR
STARTCHAR uni0459
ENCODING 1113
SWIDTH 455 0
DWIDTH 5 0
BBX 4 4 0 0
BITMAP
60
A0
B0
B0
ENDCHAR
STARTCHAR uni045A
ENCODING 1114
SWIDTH 455 0
DWIDTH 5 0
BBX 4 4 0 0
BITMAP
A0
E0
B0
B0
ENDCHAR
STARTCHAR uni045B
ENCODING 1115
SWIDTH 455 0
DWIDTH 5 0
BBX 4 5 0 0
BITMAP
E0
C0
F0
D0
D0
ENDCHAR
STARTCHAR uni045E
ENCODING 1118
SWIDTH 455 0
DWIDTH 5 0
BBX 4 8 0 -1
BITMAP
90
F0
00
B0
B0
F0
30
F0
ENDCHAR
STARTCHAR uni045F
ENCODING 1119
SWIDTH 455 0
DWIDTH 5 0
BBX 4 5 0 -1
BITMAP
B0
B0
B0
F0
60
ENDCHAR
STARTCHAR uni0490
ENCODING 1168
SWIDTH 455 0
DWIDTH 5 0
BBX 4 6 0 0
BITMAP
30
F0
80
80
80
80
ENDCHAR
STARTCHAR uni0491
ENCODING 1169
SWIDTH 455 0
DWIDTH 5 0
BBX 4 5 0 0
BITMAP
30
F0
80
80
80
ENDCHAR
STARTCHAR uni04D4
ENCODING 1236
SWIDTH 455 0
DWIDTH 5 0
BBX 4 5 0 0
BITMAP
70
A0
F0
A0
B0
ENDCHAR
STARTCHAR uni04D5
ENCODING 1237
SWIDTH 455 0
DWIDTH 5 0
BBX 4 4 0 0
BITMAP
F0
70
A0
F0
ENDCHAR
STARTCHAR uni04D8
ENCODING 1240
SWIDTH 455 0
DWIDTH 5 0
BBX 4 5 0 0
BITMAP
E0
30
F0
B0
E0
ENDCHAR
STARTCHAR uni04D9
ENCODING 1241
SWIDTH 455 0
DWIDTH 5 0
BBX 4 4 0 0
BITMAP
F0
30
D0
F0
ENDCHAR
STARTCHAR uni05BE
ENCODING 1470
SWIDTH 455 0
DWIDTH 5 0
BBX 4 1 0 3
BITMAP
F0
ENDCHAR
STARTCHAR uni05C0
ENCODING 1472
SWIDTH 455 0
DWIDTH 5 0
BBX 2 7 1 -1
BITMAP
C0
C0
C0
C0
C0
C0
C0
ENDCHAR
STARTCHAR uni05C3
ENCODING 1475
SWIDTH 455 0
DWIDTH 5 0
BBX 2 3 1 0
BITMAP
C0
00
C0
ENDCHAR
STARTCHAR uni05C6
ENCODING 1478
SWIDTH 455 0
DWIDTH 5 0
BBX 2 4 1 0
BITMAP
40
80
80
C0
ENDCHAR
STARTCHAR uni05D0
ENCODING 1488
SWIDTH 455 0
DWIDTH 5 0
BBX 4 4 0 0
BITMAP
90
50
A0
90
ENDCHAR
STARTCHAR uni05D1
ENCODING 1489
SWIDTH 455 0
DWIDTH 5 0
BBX 4 4 0 0
BITMAP
E0
20
20
F0
ENDCHAR
STARTCHAR uni05D2
ENCODING 1490
SWIDTH 455 0
DWIDTH 5 0
BBX 4 4 0 0
BITMAP
60
20
20
D0
ENDCHAR
STARTCHAR uni05D3
ENCODING 1491
SWIDTH 455 0
DWIDTH 5 0
BBX 4 4 0 0
BITMAP
F0
20
20
20
ENDCHAR
STARTCHAR uni05D4
ENCODING 1492
SWIDTH 455 0
DWIDTH 5 0
BBX 4 4 0 0
BITMAP
F0
10
90
90
ENDCHAR
STARTCHAR uni05D5
ENCODING 1493
SWIDTH 455 0
DWIDTH 5 0
BBX 1 4 1 0
BITMAP
80
80
80
80
ENDCHAR
STARTCHAR uni05D6
ENCODING 1494
SWIDTH 455 0
DWIDTH 5 0
BBX 2 4 0 0
BITMAP
C0
40
80
80
ENDCHAR
STARTCHAR uni05D7
ENCODING 1495
SWIDTH 455 0
DWIDTH 5 0
BBX 4 4 0 0
BITMAP
E0
90
90
90
ENDCHAR
STARTCHAR uni05D8
ENCODING 1496
SWIDTH 455 0
DWIDTH 5 0
BBX 4 4 0 0
BITMAP
A0
90
90
60
ENDCHAR
STARTCHAR uni05D9
ENCODING 1497
SWIDTH 455 0
DWIDTH 5 0
BBX 1 2 1 2
BITMAP
80
80
ENDCHAR
STARTCHAR uni05DA
ENCODING 1498
SWIDTH 455 0
DWIDTH 5 0
BBX 4 5 0 -1
BITMAP
E0
10
10
10
10
ENDCHAR
STARTCHAR uni05DB
ENCODING 1499
SWIDTH 455 0
DWIDTH 5 0
BBX 4 4 0 0
BITMAP
E0
10
10
E0
ENDCHAR
STARTCHAR uni05DC
ENCODING 1500
SWIDTH 455 0
DWIDTH 5 0
BBX 4 5 0 0
BITMAP
80
F0
10
20
40
ENDCHAR
STARTCHAR uni05DD
ENCODING 1501
SWIDTH 455 0
DWIDTH 5 0
BBX 4 4 0 0
BITMAP
E0
90
90
F0
ENDCHAR
STARTCHAR uni05DE
ENCODING 1502
SWIDTH 455 0
DWIDTH 5 0
BBX 4 4 0 0
BITMAP
A0
50
90
B0
ENDCHAR
STARTCHAR uni05DF
ENCODING 1503
SWIDTH 455 0
DWIDTH 5 0
BBX 2 5 2 -1
BITMAP
80
40
40
40
40
ENDCHAR
STARTCHAR uni05E0
ENCODING 1504
SWIDTH 455 0
DWIDTH 5 0
BBX 2 4 1 0
BITMAP
80
40
40
C0
ENDCHAR
STARTCHAR uni05E1
ENCODING 1505
SWIDTH 455 0
DWIDTH 5 0
BBX 4 4 0 0
BITMAP
E0
50
90
60
ENDCHAR
STARTCHAR uni05E2
ENCODING 1506
SWIDTH 455 0
DWIDTH 5 0
BBX 4 4 0 0
BITMAP
90
90
50
E0
ENDCHAR
STARTCHAR uni05E3
ENCODING 1507
SWIDTH 455 0
DWIDTH 5 0
BBX 4 5 0 -1
BITMAP
E0
D0
10
10
10
ENDCHAR
STARTCHAR uni05E4
ENCODING 1508
SWIDTH 455 0
DWIDTH 5 0
BBX 4 4 0 0
BITMAP
E0
D0
10
E0
ENDCHAR
STARTCHAR uni05E5
ENCODING 1509
SWIDTH 455 0
DWIDTH 5 0
BBX 4 5 0 -1
BITMAP
90
D0
60
40
40
ENDCHAR
STARTCHAR uni05E6
ENCODING 1510
SWIDTH 455 0
DWIDTH 5 0
BBX 4 4 0 0
BITMAP
90
50
20
F0
ENDCHAR
STARTCHAR uni05E7
ENCODING 1511
SWIDTH 455 0
DWIDTH 5 0
BBX 4 5 0 -1
BITMAP
F0
10
A0
80
80
ENDCHAR
STARTCHAR uni05E8
ENCODING 1512
SWIDTH 455 0
DWIDTH 5 0
BBX 4 4 0 0
BITMAP
E0
10
10
10
ENDCHAR
STARTCHAR uni05E9
ENCODING 1513
SWIDTH 455 0
DWIDTH 5 0
BBX 4 4 0 0
BITMAP
D0
D0
90
E0
ENDCHAR
STARTCHAR uni05EA
ENCODING 1514
SWIDTH 455 0
DWIDTH 5 0
BBX 4 4 0 0
BITMAP
E0
50
50
D0
ENDCHAR
STARTCHAR uni05F0
ENCODING 1520
SWIDTH 455 0
DWIDTH 5 0
BBX 4 4 0 0
BITMAP
90
90
90
90
ENDCHAR
STARTCHAR uni05F1
ENCODING 1521
SWIDTH 455 0
DWIDTH 5 0
BBX 4 4 0 0
BITMAP
90
90
10
10
ENDCHAR
STARTCHAR uni05F2
ENCODING 1522
SWIDTH 455 0
DWIDTH 5 0
BBX 4 2 0 2
BITMAP
90
90
ENDCHAR
STARTCHAR uni05F3
ENCODING 1523
SWIDTH 455 0
DWIDTH 5 0
BBX 3 3 0 1
BITMAP
60
60
C0
ENDCHAR
STARTCHAR uni2000
ENCODING 8192
SWIDTH 455 0
DWIDTH 5 0
BBX 1 1 0 0
BITMAP
00
ENDCHAR
STARTCHAR uni2001
ENCODING 8193
SWIDTH 455 0
DWIDTH 5 0
BBX 1 1 0 0
BITMAP
00
ENDCHAR
STARTCHAR uni2002
ENCODING 8194
SWIDTH 455 0
DWIDTH 5 0
BBX 1 1 0 0
BITMAP
00
ENDCHAR
STARTCHAR uni2003
ENCODING 8195
SWIDTH 455 0
DWIDTH 5 0
BBX 1 1 0 0
BITMAP
00
ENDCHAR
STARTCHAR uni2004
ENCODING 8196
SWIDTH 455 0
DWIDTH 5 0
BBX 1 1 0 0
BITMAP
00
ENDCHAR
STARTCHAR uni2005
ENCODING 8197
SWIDTH 455 0
DWIDTH 5 0
BBX 1 1 0 0
BITMAP
00
ENDCHAR
STARTCHAR uni2006
ENCODING 8198
SWIDTH 455 0
DWIDTH 5 0
BBX 1 1 0 0
BITMAP
00
ENDCHAR
STARTCHAR uni2007
ENCODING 8199
SWIDTH 455 0
DWIDTH 5 0
BBX 1 1 0 0
BITMAP
00
ENDCHAR
STARTCHAR uni2008
ENCODING 8200
SWIDTH 455 0
DWIDTH 5 0
BBX 1 1 0 0
BITMAP
00
ENDCHAR
STARTCHAR uni2009
ENCODING 8201
SWIDTH 455 0
DWIDTH 5 0
BBX 1 1 0 0
BITMAP
00
ENDCHAR
STARTCHAR uni200A
ENCODING 8202
SWIDTH 455 0
DWIDTH 5 0
BBX 1 1 0 0
BITMAP
00
ENDCHAR
STARTCHAR dagger
ENCODING 8224
SWIDTH 455 0
DWIDTH 5 0
BBX 4 5 0 0
BITMAP
60
F0
60
60
60
ENDCHAR
STARTCHAR daggerdbl
ENCODING 8225
SWIDTH 455 0
DWIDTH 5 0
BBX 4 5 0 0
BITMAP
60
F0
60
F0
60
ENDCHAR
STARTCHAR bullet
ENCODING 8226
SWIDTH 455 0
DWIDTH 5 0
BBX 2 2 1 1
BITMAP
C0
C0
ENDCHAR
STARTCHAR ellipsis
ENCODING 8230
SWIDTH 455 0
DWIDTH 5 0
BBX 5 1 0 0
BITMAP
A8
ENDCHAR
STARTCHAR perthousand
ENCODING 8240
SWIDTH 455 0
DWIDTH 5 0
BBX 4 6 0 -1
BITMAP
B0
30
60
D0
C0
10
ENDCHAR
STARTCHAR guilsinglleft
ENCODING 8249
SWIDTH 455 0
DWIDTH 5 0
BBX 2 3 1 0
BITMAP
40
80
40
ENDCHAR
STARTCHAR guilsinglright
ENCODING 8250
SWIDTH 455 0
DWIDTH 5 0
BBX 2 3 1 0
BITMAP
80
40
80
ENDCHAR
STARTCHAR exclamdbl
ENCODING 8252
SWIDTH 455 0
DWIDTH 5 0
BBX 4 5 0 0
BITMAP
D0
D0
D0
00
D0
ENDCHAR
STARTCHAR uni203D
ENCODING 8253
SWIDTH 455 0
DWIDTH 5 0
BBX 4 5 0 0
BITMAP
F0
70
60
00
60
ENDCHAR
STARTCHAR uni204A
ENCODING 8266
SWIDTH 455 0
DWIDTH 5 0
BBX 4 4 0 0
BITMAP
F0
30
60
60
ENDCHAR
STARTCHAR uni20A6
ENCODING 8358
SWIDTH 455 0
DWIDTH 5 0
BBX 4 5 0 0
BITMAP
C0
F0
A0
F0
A0
ENDCHAR
STARTCHAR uni20A9
ENCODING 8361
SWIDTH 455 0
DWIDTH 5 0
BBX 4 5 0 0
BITMAP
90
F0
90
F0
F0
ENDCHAR
STARTCHAR uni20AA
ENCODING 8362
SWIDTH 455 0
DWIDTH 5 0
BBX 4 5 0 0
BITMAP
D0
D0
90
B0
B0
ENDCHAR
STARTCHAR dong
ENCODING 8363
SWIDTH 455 0
DWIDTH 5 0
BBX 4 7 0 -2
BITMAP
70
30
F0
B0
F0
00
F0
ENDCHAR
STARTCHAR Euro
ENCODING 8364
SWIDTH 455 0
DWIDTH 5 0
BBX 4 5 0 0
BITMAP
70
60
F0
60
70
ENDCHAR
STARTCHAR uni20AD
ENCODING 8365
SWIDTH 455 0
DWIDTH 5 0
BBX 4 5 0 0
BITMAP
D0
E0
F0
E0
D0
ENDCHAR
STARTCHAR uni20AE
ENCODING 8366
SWIDTH 455 0
DWIDTH 5 0
BBX 4 5 0 0
BITMAP
F0
70
E0
70
E0
ENDCHAR
STARTCHAR uni20B0
ENCODING 8368
SWIDTH 455 0
DWIDTH 5 0
BBX 4 6 0 -1
BITMAP
30
50
D0
60
60
E0
ENDCHAR
STARTCHAR uni20B1
ENCODING 8369
SWIDTH 455 0
DWIDTH 5 0
BBX 4 5 0 0
BITMAP
F0
50
F0
40
40
ENDCHAR
STARTCHAR uni20B2
ENCODING 8370
SWIDTH 455 0
DWIDTH 5 0
BBX 4 7 0 -1
BITMAP
60
F0
80
B0
B0
F0
60
ENDCHAR
STARTCHAR uni20B3
ENCODING 8371
SWIDTH 455 0
DWIDTH 5 0
BBX 4 5 0 0
BITMAP
20
F0
50
F0
50
ENDCHAR
STARTCHAR uni20B4
ENCODING 8372
SWIDTH 455 0
DWIDTH 5 0
BBX 4 5 0 0
BITMAP
E0
60
F0
60
70
ENDCHAR
STARTCHAR uni20B5
ENCODING 8373
SWIDTH 455 0
DWIDTH 5 0
BBX 4 7 0 -1
BITMAP
60
F0
C0
C0
C0
F0
60
ENDCHAR
STARTCHAR uni20B8
ENCODING 8376
SWIDTH 455 0
DWIDTH 5 0
BBX 4 5 0 0
BITMAP
F0
00
F0
60
60
ENDCHAR
STARTCHAR uni20B9
ENCODING 8377
SWIDTH 455 0
DWIDTH 5 0
BBX 4 5 0 0
BITMAP
F0
20
70
40
60
ENDCHAR
STARTCHAR uni20BA
ENCODING 8378
SWIDTH 455 0
DWIDTH 5 0
BBX 4 5 0 0
BITMAP
C0
80
C0
90
E0
ENDCHAR
STARTCHAR uni20BD
ENCODING 8381
SWIDTH 455 0
DWIDTH 5 0
BBX 4 6 0 -1
BITMAP
70
50
F0
40
E0
40
ENDCHAR
STARTCHAR uni20BF
ENCODING 8383
SWIDTH 455 0
DWIDTH 5 0
BBX 4 7 0 -1
BITMAP
A0
E0
A0
F0
B0
F0
A0
ENDCHAR
STARTCHAR uni20C0
ENCODING 8384
SWIDTH 455 0
DWIDTH 5 0
BBX 4 5 0 0
BITMAP
F0
C0
F0
00
F0
ENDCHAR
STARTCHAR trademark
ENCODING 8482
SWIDTH 455 0
DWIDTH 5 0
BBX 4 4 0 2
BITMAP
E0
40
30
30
ENDCHAR
STARTCHAR aleph
ENCODING 8501
SWIDTH 455 0
DWIDTH 5 0
BBX 4 4 0 0
BITMAP
90
50
A0
90
ENDCHAR
STARTCHAR uni2136
ENCODING 8502
SWIDTH 455 0
DWIDTH 5 0
BBX 4 4 0 0
BITMAP
E0
20
20
F0
ENDCHAR
STARTCHAR uni2137
ENCODING 8503
SWIDTH 455 0
DWIDTH 5 0
BBX 4 4 0 0
BITMAP
C0
20
20
D0
ENDCHAR
STARTCHAR uni2138
ENCODING 8504
SWIDTH 455 0
DWIDTH 5 0
BBX 4 4 0 0
BITMAP
F0
20
20
20
ENDCHAR
STARTCHAR emptyset
ENCODING 8709
SWIDTH 455 0
DWIDTH 5 0
BBX 4 4 0 0
BITMAP
D0
A0
50
B0
ENDCHAR
STARTCHAR radical
ENCODING 8730
SWIDTH 455 0
DWIDTH 5 0
BBX 4 5 0 0
BITMAP
30
20
20
A0
40
ENDCHAR
STARTCHAR orthogonal
ENCODING 8735
SWIDTH 455 0
DWIDTH 5 0
BBX 4 4 0 0
BITMAP
80
E0
A0
F0
ENDCHAR
STARTCHAR angle
ENCODING 8736
SWIDTH 455 0
DWIDTH 5 0
BBX 4 4 0 0
BITMAP
10
20
40
F0
ENDCHAR
STARTCHAR approxequal
ENCODING 8776
SWIDTH 455 0
DWIDTH 5 0
BBX 4 5 0 0
BITMAP
D0
B0
00
D0
B0
ENDCHAR
STARTCHAR notequal
ENCODING 8800
SWIDTH 455 0
DWIDTH 5 0
BBX 4 5 0 0
BITMAP
10
F0
60
F0
80
ENDCHAR
STARTCHAR lessequal
ENCODING 8804
SWIDTH 455 0
DWIDTH 5 0
BBX 2 5 1 0
BITMAP
80
40
80
00
C0
ENDCHAR
STARTCHAR greaterequal
ENCODING 8805
SWIDTH 455 0
DWIDTH 5 0
BBX 2 5 1 0
BITMAP
40
80
40
00
C0
ENDCHAR
STARTCHAR block
ENCODING 9608
SWIDTH 455 0
DWIDTH 5 0
BBX 5 9 0 -2
BITMAP
F8
F8
F8
F8
F8
F8
F8
F8
F8
ENDCHAR
STARTCHAR female
ENCODING 9792
SWIDTH 455 0
DWIDTH 5 0
BBX 4 6 0 -1
BITMAP
F0
90
F0
60
F0
60
ENDCHAR
STARTCHAR male
ENCODING 9794
SWIDTH 455 0
DWIDTH 5 0
BBX 4 5 0 0
BITMAP
70
30
D0
A0
E0
ENDCHAR
STARTCHAR spade
ENCODING 9824
SWIDTH 455 0
DWIDTH 5 0
BBX 4 5 0 0
BITMAP
20
70
F0
20
70
ENDCHAR
STARTCHAR club
ENCODING 9827
SWIDTH 455 0
DWIDTH 5 0
BBX 4 5 0 0
BITMAP
60
F0
F0
60
F0
ENDCHAR
STARTCHAR heart
ENCODING 9829
SWIDTH 455 0
DWIDTH 5 0
BBX 4 5 0 0
BITMAP
D0
F0
F0
70
20
ENDCHAR
STARTCHAR diamond
ENCODING 9830
SWIDTH 455 0
DWIDTH 5 0
BBX 4 5 0 0
BITMAP
20
70
F0
70
20
ENDCHAR
STARTCHAR musicalnote
ENCODING 9834
SWIDTH 455 0
DWIDTH 5 0
BBX 4 5 0 0
BITMAP
70
50
40
C0
C0
ENDCHAR
STARTCHAR uni2713
ENCODING 10003
SWIDTH 455 0
DWIDTH 5 0
BBX 4 3 0 1
BITMAP
10
A0
40
ENDCHAR
STARTCHAR uni27E8
ENCODING 10216
SWIDTH 455 0
DWIDTH 5 0
BBX 4 6 0 -1
BITMAP
30
60
C0
C0
60
30
ENDCHAR
STARTCHAR uni27E9
ENCODING 10217
SWIDTH 455 0
DWIDTH 5 0
BBX 4 6 0 -1
BITMAP
C0
60
30
30
60
C0
ENDCHAR
STARTCHAR uni2E18
ENCODING 11800
SWIDTH 455 0
DWIDTH 5 0
BBX 4 5 0 -1
BITMAP
60
00
60
E0
F0
ENDCHAR
STARTCHAR uni3000
ENCODING 12288
SWIDTH 455 0
DWIDTH 5 0
BBX 1 1 0 0
BITMAP
00
ENDCHAR
STARTCHAR uniFFFD
ENCODING 65533
SWIDTH 455 0
DWIDTH 5 0
BBX 5 10 0 -2
BITMAP
F8
F8
F8
08
C8
88
F8
98
F8
F8
ENDCHAR
STARTCHAR .notdef
ENCODING -1
SWIDTH 91 0
DWIDTH 1 0
BBX 1 1 0 0
BITMAP
00
ENDCHAR
STARTCHAR glyph00001
ENCODING -1
SWIDTH 91 0
DWIDTH 1 0
BBX 1 1 0 0
BITMAP
00
ENDCHAR
ENDFONT
