STARTFONT 2.1
FONT -TakWolf-Retro Pixel Thick-Bold-R-Normal-Sans Serif-16-160-75-75-P-74-ISO10646-1
SIZE 16 75 75
FONTBOUNDINGBOX 16 20 0 -5
STARTPROPERTIES 22
FOUNDRY "TakWolf"
FAMILY_NAME "Retro Pixel Thick"
WEIGHT_NAME "Bold"
SLANT "R"
SETWIDTH_NAME "Normal"
ADD_STYLE_NAME "Sans Serif"
PIXEL_SIZE 16
POINT_SIZE 160
RESOLUTION_X 75
RESOLUTION_Y 75
SPACING "P"
AVERAGE_WIDTH 74
CHARSET_REGISTRY "ISO10646"
CHARSET_ENCODING "1"
DEFAULT_CHAR -1
FONT_ASCENT 15
FONT_DESCENT 5
X_HEIGHT 7
CAP_HEIGHT 10
FONT_VERSION "2026.08.11"
COPYRIGHT "Copyright (c) 2023, TakWolf (https://takwolf.com)"
LICENSE "This Font Software is licensed under the SIL Open Font License, Version 1.1"
ENDPROPERTIES
CHARS 111
STARTCHAR .notdef
ENCODING -1
SWIDTH 625 0
DWIDTH 10 0
BBX 10 20 0 -5
BITMAP
0000
0000
FF80
8080
8080
8080
8080
8080
8080
8080
8080
8080
8080
8080
8080
8080
8080
FF80
0000
0000
ENDCHAR
STARTCHAR u0020
ENCODING 32
SWIDTH 250 0
DWIDTH 4 0
BBX 4 20 0 -5
BITMAP
00
00
00
00
00
00
00
00
00
00
00
00
00
00
00
00
00
00
00
00
ENDCHAR
STARTCHAR u0021
ENCODING 33
SWIDTH 438 0
DWIDTH 7 0
BBX 7 20 0 -5
BITMAP
00
00
00
00
00
30
78
78
78
30
30
30
00
30
30
00
00
00
00
00
ENDCHAR
STARTCHAR u0022
ENCODING 34
SWIDTH 500 0
DWIDTH 8 0
BBX 8 20 0 -5
BITMAP
00
00
00
00
00
6C
6C
6C
00
00
00
00
00
00
00
00
00
00
00
00
ENDCHAR
STARTCHAR u0023
ENCODING 35
SWIDTH 500 0
DWIDTH 8 0
BBX 8 20 0 -5
BITMAP
00
00
00
00
00
6C
6C
FE
FE
6C
6C
FE
FE
6C
6C
00
00
00
00
00
ENDCHAR
STARTCHAR u0024
ENCODING 36
SWIDTH 500 0
DWIDTH 8 0
BBX 8 20 0 -5
BITMAP
00
00
00
10
10
7C
FE
C6
C0
F8
3E
06
C6
FE
7C
10
10
00
00
00
ENDCHAR
STARTCHAR u0025
ENCODING 37
SWIDTH 563 0
DWIDTH 9 0
BBX 9 20 0 -5
BITMAP
0000
0000
0000
0000
0000
6600
9600
9C00
6C00
1800
1800
3600
3900
6900
6600
0000
0000
0000
0000
0000
ENDCHAR
STARTCHAR u0026
ENCODING 38
SWIDTH 500 0
DWIDTH 8 0
BBX 8 20 0 -5
BITMAP
00
00
00
00
00
38
7C
6C
7C
38
76
FE
DC
FE
76
00
00
00
00
00
ENDCHAR
STARTCHAR u0027
ENCODING 39
SWIDTH 313 0
DWIDTH 5 0
BBX 5 20 0 -5
BITMAP
00
00
00
00
00
60
60
60
00
00
00
00
00
00
00
00
00
00
00
00
ENDCHAR
STARTCHAR u0028
ENCODING 40
SWIDTH 375 0
DWIDTH 6 0
BBX 6 20 0 -5
BITMAP
00
00
00
00
00
30
70
60
60
60
60
60
60
60
60
60
70
30
00
00
ENDCHAR
STARTCHAR u0029
ENCODING 41
SWIDTH 375 0
DWIDTH 6 0
BBX 6 20 0 -5
BITMAP
00
00
00
00
00
60
70
30
30
30
30
30
30
30
30
30
70
60
00
00
ENDCHAR
STARTCHAR u002A
ENCODING 42
SWIDTH 438 0
DWIDTH 7 0
BBX 7 20 0 -5
BITMAP
00
00
00
00
00
00
00
30
B4
78
78
B4
30
00
00
00
00
00
00
00
ENDCHAR
STARTCHAR u002B
ENCODING 43
SWIDTH 438 0
DWIDTH 7 0
BBX 7 20 0 -5
BITMAP
00
00
00
00
00
00
00
30
30
FC
FC
30
30
00
00
00
00
00
00
00
ENDCHAR
STARTCHAR u002C
ENCODING 44
SWIDTH 313 0
DWIDTH 5 0
BBX 5 20 0 -5
BITMAP
00
00
00
00
00
00
00
00
00
00
00
00
00
60
60
20
40
00
00
00
ENDCHAR
STARTCHAR u002D
ENCODING 45
SWIDTH 438 0
DWIDTH 7 0
BBX 7 20 0 -5
BITMAP
00
00
00
00
00
00
00
00
00
FC
FC
00
00
00
00
00
00
00
00
00
ENDCHAR
STARTCHAR u002E
ENCODING 46
SWIDTH 313 0
DWIDTH 5 0
BBX 5 20 0 -5
BITMAP
00
00
00
00
00
00
00
00
00
00
00
00
00
60
60
00
00
00
00
00
ENDCHAR
STARTCHAR u002F
ENCODING 47
SWIDTH 438 0
DWIDTH 7 0
BBX 7 20 0 -5
BITMAP
00
00
00
00
00
0C
0C
18
18
18
30
30
30
60
60
60
C0
C0
00
00
ENDCHAR
STARTCHAR u0030
ENCODING 48
SWIDTH 500 0
DWIDTH 8 0
BBX 8 20 0 -5
BITMAP
00
00
00
00
00
7C
FE
C6
C6
D6
D6
C6
C6
FE
7C
00
00
00
00
00
ENDCHAR
STARTCHAR u0031
ENCODING 49
SWIDTH 500 0
DWIDTH 8 0
BBX 8 20 0 -5
BITMAP
00
00
00
00
00
18
78
78
18
18
18
18
18
7E
7E
00
00
00
00
00
ENDCHAR
STARTCHAR u0032
ENCODING 50
SWIDTH 500 0
DWIDTH 8 0
BBX 8 20 0 -5
BITMAP
00
00
00
00
00
7C
FE
C6
06
0E
3C
78
E0
FE
FE
00
00
00
00
00
ENDCHAR
STARTCHAR u0033
ENCODING 51
SWIDTH 500 0
DWIDTH 8 0
BBX 8 20 0 -5
BITMAP
00
00
00
00
00
7C
FE
C6
06
1C
1C
06
C6
FE
7C
00
00
00
00
00
ENDCHAR
STARTCHAR u0034
ENCODING 52
SWIDTH 500 0
DWIDTH 8 0
BBX 8 20 0 -5
BITMAP
00
00
00
00
00
0C
1C
3C
3C
6C
CC
FE
FE
0C
0C
00
00
00
00
00
ENDCHAR
STARTCHAR u0035
ENCODING 53
SWIDTH 500 0
DWIDTH 8 0
BBX 8 20 0 -5
BITMAP
00
00
00
00
00
FE
FE
C0
C0
FC
FE
06
C6
FE
7C
00
00
00
00
00
ENDCHAR
STARTCHAR u0036
ENCODING 54
SWIDTH 500 0
DWIDTH 8 0
BBX 8 20 0 -5
BITMAP
00
00
00
00
00
7C
FE
C6
C0
FC
FE
C6
C6
FE
7C
00
00
00
00
00
ENDCHAR
STARTCHAR u0037
ENCODING 55
SWIDTH 500 0
DWIDTH 8 0
BBX 8 20 0 -5
BITMAP
00
00
00
00
00
FE
FE
C6
0E
0C
18
18
18
18
18
00
00
00
00
00
ENDCHAR
STARTCHAR u0038
ENCODING 56
SWIDTH 500 0
DWIDTH 8 0
BBX 8 20 0 -5
BITMAP
00
00
00
00
00
7C
FE
C6
C6
7C
7C
C6
C6
FE
7C
00
00
00
00
00
ENDCHAR
STARTCHAR u0039
ENCODING 57
SWIDTH 500 0
DWIDTH 8 0
BBX 8 20 0 -5
BITMAP
00
00
00
00
00
7C
FE
C6
C6
FE
7E
06
C6
FE
7C
00
00
00
00
00
ENDCHAR
STARTCHAR u003A
ENCODING 58
SWIDTH 313 0
DWIDTH 5 0
BBX 5 20 0 -5
BITMAP
00
00
00
00
00
00
00
00
60
60
00
00
00
60
60
00
00
00
00
00
ENDCHAR
STARTCHAR u003B
ENCODING 59
SWIDTH 313 0
DWIDTH 5 0
BBX 5 20 0 -5
BITMAP
00
00
00
00
00
00
00
00
60
60
00
00
00
60
60
20
40
00
00
00
ENDCHAR
STARTCHAR u003C
ENCODING 60
SWIDTH 438 0
DWIDTH 7 0
BBX 7 20 0 -5
BITMAP
00
00
00
00
00
00
00
0C
3C
F0
C0
F0
3C
0C
00
00
00
00
00
00
ENDCHAR
STARTCHAR u003D
ENCODING 61
SWIDTH 438 0
DWIDTH 7 0
BBX 7 20 0 -5
BITMAP
00
00
00
00
00
00
00
FC
FC
00
00
FC
FC
00
00
00
00
00
00
00
ENDCHAR
STARTCHAR u003E
ENCODING 62
SWIDTH 438 0
DWIDTH 7 0
BBX 7 20 0 -5
BITMAP
00
00
00
00
00
00
00
C0
F0
3C
0C
3C
F0
C0
00
00
00
00
00
00
ENDCHAR
STARTCHAR u003F
ENCODING 63
SWIDTH 438 0
DWIDTH 7 0
BBX 7 20 0 -5
BITMAP
00
00
00
00
00
78
FC
CC
1C
38
30
30
00
30
30
00
00
00
00
00
ENDCHAR
STARTCHAR u0040
ENCODING 64
SWIDTH 625 0
DWIDTH 10 0
BBX 10 20 0 -5
BITMAP
0000
0000
0000
0000
0000
3E00
7F00
C180
CF80
D980
D980
D980
DF00
C000
7F00
3F00
0000
0000
0000
0000
ENDCHAR
STARTCHAR u0041
ENCODING 65
SWIDTH 500 0
DWIDTH 8 0
BBX 8 20 0 -5
BITMAP
00
00
00
00
00
7C
FE
C6
C6
C6
FE
FE
C6
C6
C6
00
00
00
00
00
ENDCHAR
STARTCHAR u0042
ENCODING 66
SWIDTH 500 0
DWIDTH 8 0
BBX 8 20 0 -5
BITMAP
00
00
00
00
00
FC
FE
C6
C6
FC
FC
C6
C6
FE
FC
00
00
00
00
00
ENDCHAR
STARTCHAR u0043
ENCODING 67
SWIDTH 500 0
DWIDTH 8 0
BBX 8 20 0 -5
BITMAP
00
00
00
00
00
7C
FE
C6
C0
C0
C0
C0
C6
FE
7C
00
00
00
00
00
ENDCHAR
STARTCHAR u0044
ENCODING 68
SWIDTH 500 0
DWIDTH 8 0
BBX 8 20 0 -5
BITMAP
00
00
00
00
00
FC
FE
C6
C6
C6
C6
C6
C6
FE
FC
00
00
00
00
00
ENDCHAR
STARTCHAR u0045
ENCODING 69
SWIDTH 500 0
DWIDTH 8 0
BBX 8 20 0 -5
BITMAP
00
00
00
00
00
FE
FE
C0
C0
FC
FC
C0
C0
FE
FE
00
00
00
00
00
ENDCHAR
STARTCHAR u0046
ENCODING 70
SWIDTH 500 0
DWIDTH 8 0
BBX 8 20 0 -5
BITMAP
00
00
00
00
00
FE
FE
C0
C0
FC
FC
C0
C0
C0
C0
00
00
00
00
00
ENDCHAR
STARTCHAR u0047
ENCODING 71
SWIDTH 500 0
DWIDTH 8 0
BBX 8 20 0 -5
BITMAP
00
00
00
00
00
7C
FE
C6
C0
C0
CE
CE
C6
FE
7C
00
00
00
00
00
ENDCHAR
STARTCHAR u0048
ENCODING 72
SWIDTH 500 0
DWIDTH 8 0
BBX 8 20 0 -5
BITMAP
00
00
00
00
00
C6
C6
C6
C6
FE
FE
C6
C6
C6
C6
00
00
00
00
00
ENDCHAR
STARTCHAR u0049
ENCODING 73
SWIDTH 313 0
DWIDTH 5 0
BBX 5 20 0 -5
BITMAP
00
00
00
00
00
F0
F0
60
60
60
60
60
60
F0
F0
00
00
00
00
00
ENDCHAR
STARTCHAR u004A
ENCODING 74
SWIDTH 500 0
DWIDTH 8 0
BBX 8 20 0 -5
BITMAP
00
00
00
00
00
06
06
06
06
06
06
C6
C6
FE
7C
00
00
00
00
00
ENDCHAR
STARTCHAR u004B
ENCODING 75
SWIDTH 500 0
DWIDTH 8 0
BBX 8 20 0 -5
BITMAP
00
00
00
00
00
C6
CE
DC
F8
F0
F0
F8
DC
CE
C6
00
00
00
00
00
ENDCHAR
STARTCHAR u004C
ENCODING 76
SWIDTH 438 0
DWIDTH 7 0
BBX 7 20 0 -5
BITMAP
00
00
00
00
00
C0
C0
C0
C0
C0
C0
C0
C0
FC
FC
00
00
00
00
00
ENDCHAR
STARTCHAR u004D
ENCODING 77
SWIDTH 625 0
DWIDTH 10 0
BBX 10 20 0 -5
BITMAP
0000
0000
0000
0000
0000
C180
E380
F780
FF80
DD80
C980
C180
C180
C180
C180
0000
0000
0000
0000
0000
ENDCHAR
STARTCHAR u004E
ENCODING 78
SWIDTH 563 0
DWIDTH 9 0
BBX 9 20 0 -5
BITMAP
0000
0000
0000
0000
0000
C300
C300
E300
F300
FB00
DF00
CF00
C700
C300
C300
0000
0000
0000
0000
0000
ENDCHAR
STARTCHAR u004F
ENCODING 79
SWIDTH 500 0
DWIDTH 8 0
BBX 8 20 0 -5
BITMAP
00
00
00
00
00
7C
FE
C6
C6
C6
C6
C6
C6
FE
7C
00
00
00
00
00
ENDCHAR
STARTCHAR u0050
ENCODING 80
SWIDTH 500 0
DWIDTH 8 0
BBX 8 20 0 -5
BITMAP
00
00
00
00
00
FC
FE
C6
C6
C6
FE
FC
C0
C0
C0
00
00
00
00
00
ENDCHAR
STARTCHAR u0051
ENCODING 81
SWIDTH 500 0
DWIDTH 8 0
BBX 8 20 0 -5
BITMAP
00
00
00
00
00
7C
FE
C6
C6
C6
C6
DE
DC
FE
76
00
00
00
00
00
ENDCHAR
STARTCHAR u0052
ENCODING 82
SWIDTH 500 0
DWIDTH 8 0
BBX 8 20 0 -5
BITMAP
00
00
00
00
00
FC
FE
C6
C6
FE
FC
CC
CE
C6
C6
00
00
00
00
00
ENDCHAR
STARTCHAR u0053
ENCODING 83
SWIDTH 500 0
DWIDTH 8 0
BBX 8 20 0 -5
BITMAP
00
00
00
00
00
7C
FE
C6
C0
F8
3E
06
C6
FE
7C
00
00
00
00
00
ENDCHAR
STARTCHAR u0054
ENCODING 84
SWIDTH 563 0
DWIDTH 9 0
BBX 9 20 0 -5
BITMAP
0000
0000
0000
0000
0000
FF00
FF00
1800
1800
1800
1800
1800
1800
1800
1800
0000
0000
0000
0000
0000
ENDCHAR
STARTCHAR u0055
ENCODING 85
SWIDTH 500 0
DWIDTH 8 0
BBX 8 20 0 -5
BITMAP
00
00
00
00
00
C6
C6
C6
C6
C6
C6
C6
C6
FE
7C
00
00
00
00
00
ENDCHAR
STARTCHAR u0056
ENCODING 86
SWIDTH 500 0
DWIDTH 8 0
BBX 8 20 0 -5
BITMAP
00
00
00
00
00
C6
C6
C6
C6
C6
C6
EE
7C
38
10
00
00
00
00
00
ENDCHAR
STARTCHAR u0057
ENCODING 87
SWIDTH 625 0
DWIDTH 10 0
BBX 10 20 0 -5
BITMAP
0000
0000
0000
0000
0000
C180
C180
C180
C180
C980
DD80
FF80
F780
E380
C180
0000
0000
0000
0000
0000
ENDCHAR
STARTCHAR u0058
ENCODING 88
SWIDTH 500 0
DWIDTH 8 0
BBX 8 20 0 -5
BITMAP
00
00
00
00
00
C6
C6
EE
7C
38
38
7C
EE
C6
C6
00
00
00
00
00
ENDCHAR
STARTCHAR u0059
ENCODING 89
SWIDTH 563 0
DWIDTH 9 0
BBX 9 20 0 -5
BITMAP
0000
0000
0000
0000
0000
C300
C300
E700
6600
7E00
3C00
1800
1800
1800
1800
0000
0000
0000
0000
0000
ENDCHAR
STARTCHAR u005A
ENCODING 90
SWIDTH 500 0
DWIDTH 8 0
BBX 8 20 0 -5
BITMAP
00
00
00
00
00
FE
FE
0E
1E
3C
78
F0
E0
FE
FE
00
00
00
00
00
ENDCHAR
STARTCHAR u005B
ENCODING 91
SWIDTH 438 0
DWIDTH 7 0
BBX 7 20 0 -5
BITMAP
00
00
00
00
00
78
78
60
60
60
60
60
60
60
60
60
78
78
00
00
ENDCHAR
STARTCHAR u005C
ENCODING 92
SWIDTH 438 0
DWIDTH 7 0
BBX 7 20 0 -5
BITMAP
00
00
00
00
00
C0
C0
60
60
60
30
30
30
18
18
18
0C
0C
00
00
ENDCHAR
STARTCHAR u005D
ENCODING 93
SWIDTH 438 0
DWIDTH 7 0
BBX 7 20 0 -5
BITMAP
00
00
00
00
00
78
78
18
18
18
18
18
18
18
18
18
78
78
00
00
ENDCHAR
STARTCHAR u005E
ENCODING 94
SWIDTH 375 0
DWIDTH 6 0
BBX 6 20 0 -5
BITMAP
00
00
00
00
00
20
70
F8
D8
00
00
00
00
00
00
00
00
00
00
00
ENDCHAR
STARTCHAR u005F
ENCODING 95
SWIDTH 500 0
DWIDTH 8 0
BBX 8 20 0 -5
BITMAP
00
00
00
00
00
00
00
00
00
00
00
00
00
00
00
00
FE
FE
00
00
ENDCHAR
STARTCHAR u0060
ENCODING 96
SWIDTH 313 0
DWIDTH 5 0
BBX 5 20 0 -5
BITMAP
00
00
00
00
00
C0
60
30
00
00
00
00
00
00
00
00
00
00
00
00
ENDCHAR
STARTCHAR u0061
ENCODING 97
SWIDTH 500 0
DWIDTH 8 0
BBX 8 20 0 -5
BITMAP
00
00
00
00
00
00
00
00
7C
7E
06
7E
C6
FE
7E
00
00
00
00
00
ENDCHAR
STARTCHAR u0062
ENCODING 98
SWIDTH 500 0
DWIDTH 8 0
BBX 8 20 0 -5
BITMAP
00
00
00
00
00
C0
C0
C0
FC
FE
C6
C6
C6
FE
FC
00
00
00
00
00
ENDCHAR
STARTCHAR u0063
ENCODING 99
SWIDTH 500 0
DWIDTH 8 0
BBX 8 20 0 -5
BITMAP
00
00
00
00
00
00
00
00
7C
FE
C6
C0
C6
FE
7C
00
00
00
00
00
ENDCHAR
STARTCHAR u0064
ENCODING 100
SWIDTH 500 0
DWIDTH 8 0
BBX 8 20 0 -5
BITMAP
00
00
00
00
00
06
06
06
7E
FE
C6
C6
C6
FE
7E
00
00
00
00
00
ENDCHAR
STARTCHAR u0065
ENCODING 101
SWIDTH 500 0
DWIDTH 8 0
BBX 8 20 0 -5
BITMAP
00
00
00
00
00
00
00
00
7C
FE
C6
FE
C0
FC
7C
00
00
00
00
00
ENDCHAR
STARTCHAR u0066
ENCODING 102
SWIDTH 375 0
DWIDTH 6 0
BBX 6 20 0 -5
BITMAP
00
00
00
00
00
38
78
60
F8
F8
60
60
60
60
60
00
00
00
00
00
ENDCHAR
STARTCHAR u0067
ENCODING 103
SWIDTH 500 0
DWIDTH 8 0
BBX 8 20 0 -5
BITMAP
00
00
00
00
00
00
00
00
7E
FE
C6
C6
C6
FE
7E
06
7E
7C
00
00
ENDCHAR
STARTCHAR u0068
ENCODING 104
SWIDTH 500 0
DWIDTH 8 0
BBX 8 20 0 -5
BITMAP
00
00
00
00
00
C0
C0
C0
FC
FE
C6
C6
C6
C6
C6
00
00
00
00
00
ENDCHAR
STARTCHAR u0069
ENCODING 105
SWIDTH 313 0
DWIDTH 5 0
BBX 5 20 0 -5
BITMAP
00
00
00
00
00
60
60
00
E0
E0
60
60
60
F0
F0
00
00
00
00
00
ENDCHAR
STARTCHAR u006A
ENCODING 106
SWIDTH 313 0
DWIDTH 5 0
BBX 5 20 0 -5
BITMAP
00
00
00
00
00
30
30
00
F0
F0
30
30
30
30
30
30
F0
E0
00
00
ENDCHAR
STARTCHAR u006B
ENCODING 107
SWIDTH 500 0
DWIDTH 8 0
BBX 8 20 0 -5
BITMAP
00
00
00
00
00
C0
C0
C0
C6
CE
FC
F8
DC
CE
C6
00
00
00
00
00
ENDCHAR
STARTCHAR u006C
ENCODING 108
SWIDTH 375 0
DWIDTH 6 0
BBX 6 20 0 -5
BITMAP
00
00
00
00
00
E0
E0
60
60
60
60
60
60
78
38
00
00
00
00
00
ENDCHAR
STARTCHAR u006D
ENCODING 109
SWIDTH 563 0
DWIDTH 9 0
BBX 9 20 0 -5
BITMAP
0000
0000
0000
0000
0000
0000
0000
0000
EE00
FF00
DB00
DB00
DB00
DB00
DB00
0000
0000
0000
0000
0000
ENDCHAR
STARTCHAR u006E
ENCODING 110
SWIDTH 500 0
DWIDTH 8 0
BBX 8 20 0 -5
BITMAP
00
00
00
00
00
00
00
00
FC
FE
C6
C6
C6
C6
C6
00
00
00
00
00
ENDCHAR
STARTCHAR u006F
ENCODING 111
SWIDTH 500 0
DWIDTH 8 0
BBX 8 20 0 -5
BITMAP
00
00
00
00
00
00
00
00
7C
FE
C6
C6
C6
FE
7C
00
00
00
00
00
ENDCHAR
STARTCHAR u0070
ENCODING 112
SWIDTH 500 0
DWIDTH 8 0
BBX 8 20 0 -5
BITMAP
00
00
00
00
00
00
00
00
FC
FE
C6
C6
C6
FE
FC
C0
C0
C0
00
00
ENDCHAR
STARTCHAR u0071
ENCODING 113
SWIDTH 500 0
DWIDTH 8 0
BBX 8 20 0 -5
BITMAP
00
00
00
00
00
00
00
00
7E
FE
C6
C6
C6
FE
7E
06
06
06
00
00
ENDCHAR
STARTCHAR u0072
ENCODING 114
SWIDTH 438 0
DWIDTH 7 0
BBX 7 20 0 -5
BITMAP
00
00
00
00
00
00
00
00
DC
FC
F0
C0
C0
C0
C0
00
00
00
00
00
ENDCHAR
STARTCHAR u0073
ENCODING 115
SWIDTH 500 0
DWIDTH 8 0
BBX 8 20 0 -5
BITMAP
00
00
00
00
00
00
00
00
7E
FE
C0
7C
06
FE
FC
00
00
00
00
00
ENDCHAR
STARTCHAR u0074
ENCODING 116
SWIDTH 375 0
DWIDTH 6 0
BBX 6 20 0 -5
BITMAP
00
00
00
00
00
60
60
60
F8
F8
60
60
60
78
38
00
00
00
00
00
ENDCHAR
STARTCHAR u0075
ENCODING 117
SWIDTH 500 0
DWIDTH 8 0
BBX 8 20 0 -5
BITMAP
00
00
00
00
00
00
00
00
C6
C6
C6
C6
C6
FE
7E
00
00
00
00
00
ENDCHAR
STARTCHAR u0076
ENCODING 118
SWIDTH 500 0
DWIDTH 8 0
BBX 8 20 0 -5
BITMAP
00
00
00
00
00
00
00
00
C6
C6
C6
EE
7C
38
10
00
00
00
00
00
ENDCHAR
STARTCHAR u0077
ENCODING 119
SWIDTH 563 0
DWIDTH 9 0
BBX 9 20 0 -5
BITMAP
0000
0000
0000
0000
0000
0000
0000
0000
DB00
DB00
DB00
DB00
FF00
FF00
6600
0000
0000
0000
0000
0000
ENDCHAR
STARTCHAR u0078
ENCODING 120
SWIDTH 500 0
DWIDTH 8 0
BBX 8 20 0 -5
BITMAP
00
00
00
00
00
00
00
00
C6
EE
7C
38
7C
EE
C6
00
00
00
00
00
ENDCHAR
STARTCHAR u0079
ENCODING 121
SWIDTH 500 0
DWIDTH 8 0
BBX 8 20 0 -5
BITMAP
00
00
00
00
00
00
00
00
C6
C6
C6
C6
C6
FE
7E
06
7E
7C
00
00
ENDCHAR
STARTCHAR u007A
ENCODING 122
SWIDTH 500 0
DWIDTH 8 0
BBX 8 20 0 -5
BITMAP
00
00
00
00
00
00
00
00
FE
FE
1C
38
70
FE
FE
00
00
00
00
00
ENDCHAR
STARTCHAR u007B
ENCODING 123
SWIDTH 438 0
DWIDTH 7 0
BBX 7 20 0 -5
BITMAP
00
00
00
00
00
18
38
30
30
30
70
60
70
30
30
30
38
18
00
00
ENDCHAR
STARTCHAR u007C
ENCODING 124
SWIDTH 313 0
DWIDTH 5 0
BBX 5 20 0 -5
BITMAP
00
00
00
00
00
60
60
60
60
60
60
60
60
60
60
60
60
60
00
00
ENDCHAR
STARTCHAR u007D
ENCODING 125
SWIDTH 438 0
DWIDTH 7 0
BBX 7 20 0 -5
BITMAP
00
00
00
00
00
60
70
30
30
30
38
18
38
30
30
30
70
60
00
00
ENDCHAR
STARTCHAR u007E
ENCODING 126
SWIDTH 500 0
DWIDTH 8 0
BBX 8 20 0 -5
BITMAP
00
00
00
00
00
00
00
00
76
FE
DC
00
00
00
00
00
00
00
00
00
ENDCHAR
STARTCHAR u00A1
ENCODING 161
SWIDTH 438 0
DWIDTH 7 0
BBX 7 20 0 -5
BITMAP
00
00
00
00
00
00
00
00
30
30
00
30
30
30
78
78
78
30
00
00
ENDCHAR
STARTCHAR u00A6
ENCODING 166
SWIDTH 313 0
DWIDTH 5 0
BBX 5 20 0 -5
BITMAP
00
00
00
00
00
60
60
60
60
60
60
00
60
60
60
60
60
60
00
00
ENDCHAR
STARTCHAR u00B1
ENCODING 177
SWIDTH 438 0
DWIDTH 7 0
BBX 7 20 0 -5
BITMAP
00
00
00
00
00
00
30
30
FC
FC
30
30
FC
FC
00
00
00
00
00
00
ENDCHAR
STARTCHAR u00B6
ENCODING 182
SWIDTH 563 0
DWIDTH 9 0
BBX 9 20 0 -5
BITMAP
0000
0000
0000
0000
0000
3F00
7A00
FA00
FA00
FA00
7A00
3A00
1A00
1A00
1A00
1A00
1A00
1A00
0000
0000
ENDCHAR
STARTCHAR u00B7
ENCODING 183
SWIDTH 313 0
DWIDTH 5 0
BBX 5 20 0 -5
BITMAP
00
00
00
00
00
00
00
00
00
60
60
00
00
00
00
00
00
00
00
00
ENDCHAR
STARTCHAR u00BF
ENCODING 191
SWIDTH 438 0
DWIDTH 7 0
BBX 7 20 0 -5
BITMAP
00
00
00
00
00
00
00
00
30
30
00
30
30
70
E0
CC
FC
78
00
00
ENDCHAR
STARTCHAR u00D7
ENCODING 215
SWIDTH 438 0
DWIDTH 7 0
BBX 7 20 0 -5
BITMAP
00
00
00
00
00
00
00
CC
78
30
30
78
CC
00
00
00
00
00
00
00
ENDCHAR
STARTCHAR u00F7
ENCODING 247
SWIDTH 438 0
DWIDTH 7 0
BBX 7 20 0 -5
BITMAP
00
00
00
00
00
00
30
30
00
FC
FC
00
30
30
00
00
00
00
00
00
ENDCHAR
STARTCHAR u2018
ENCODING 8216
SWIDTH 313 0
DWIDTH 5 0
BBX 5 20 0 -5
BITMAP
00
00
00
00
00
20
40
60
60
00
00
00
00
00
00
00
00
00
00
00
ENDCHAR
STARTCHAR u2019
ENCODING 8217
SWIDTH 313 0
DWIDTH 5 0
BBX 5 20 0 -5
BITMAP
00
00
00
00
00
60
60
20
40
00
00
00
00
00
00
00
00
00
00
00
ENDCHAR
STARTCHAR u201C
ENCODING 8220
SWIDTH 500 0
DWIDTH 8 0
BBX 8 20 0 -5
BITMAP
00
00
00
00
00
24
48
6C
6C
00
00
00
00
00
00
00
00
00
00
00
ENDCHAR
STARTCHAR u201D
ENCODING 8221
SWIDTH 500 0
DWIDTH 8 0
BBX 8 20 0 -5
BITMAP
00
00
00
00
00
6C
6C
24
48
00
00
00
00
00
00
00
00
00
00
00
ENDCHAR
STARTCHAR u204B
ENCODING 8267
SWIDTH 563 0
DWIDTH 9 0
BBX 9 20 0 -5
BITMAP
0000
0000
0000
0000
0000
FC00
5E00
5F00
5F00
5F00
5E00
5C00
5800
5800
5800
5800
5800
5800
0000
0000
ENDCHAR
STARTCHAR u204C
ENCODING 8268
SWIDTH 500 0
DWIDTH 8 0
BBX 8 20 0 -5
BITMAP
00
00
00
00
00
00
3E
7A
FA
FA
FA
7A
3E
00
00
00
00
00
00
00
ENDCHAR
STARTCHAR u204D
ENCODING 8269
SWIDTH 500 0
DWIDTH 8 0
BBX 8 20 0 -5
BITMAP
00
00
00
00
00
00
F8
BC
BE
BE
BE
BC
F8
00
00
00
00
00
00
00
ENDCHAR
ENDFONT
