STARTFONT 2.1
FONT Thin Sans-8px
SIZE 8 75 75
FONTBOUNDINGBOX 10 19 0 -4
STARTPROPERTIES 5
PIXEL_SIZE 8
FONT_ASCENT 15
FONT_DESCENT 4
CHARSET_REGISTRY "ISO10646"
CHARSET_ENCODING "1"
ENDPROPERTIES
CHARS 245
STARTCHAR uni000D
ENCODING 13
SWIDTH 125 0
DWIDTH 1 0
BBX 1 1 0 0
BITMAP
00
ENDCHAR
STARTCHAR space
ENCODING 32
SWIDTH 375 0
DWIDTH 3 0
BBX 1 1 0 0
BITMAP
00
ENDCHAR
STARTCHAR exclam
ENCODING 33
SWIDTH 375 0
DWIDTH 3 0
BBX 2 10 0 0
BITMAP
C0
C0
C0
C0
C0
C0
C0
00
C0
C0
ENDCHAR
STARTCHAR quotedbl
ENCODING 34
SWIDTH 750 0
DWIDTH 6 0
BBX 5 3 0 9
BITMAP
D8
D8
D8
ENDCHAR
STARTCHAR numbersign
ENCODING 35
SWIDTH 1000 0
DWIDTH 8 0
BBX 7 9 0 0
BITMAP
6C
6C
FE
FE
6C
FE
FE
6C
6C
ENDCHAR
STARTCHAR dollar
ENCODING 36
SWIDTH 875 0
DWIDTH 7 0
BBX 6 12 0 -1
BITMAP
30
7C
FC
C0
C0
F8
7C
0C
0C
FC
F8
30
ENDCHAR
STARTCHAR percent
ENCODING 37
SWIDTH 875 0
DWIDTH 7 0
BBX 6 10 0 0
BITMAP
CC
DC
18
38
30
30
70
60
EC
CC
ENDCHAR
STARTCHAR ampersand
ENCODING 38
SWIDTH 1000 0
DWIDTH 8 0
BBX 7 10 0 0
BITMAP
18
7E
FE
D8
D8
D8
D8
FE
7E
18
ENDCHAR
STARTCHAR quotesingle
ENCODING 39
SWIDTH 500 0
DWIDTH 4 0
BBX 3 4 0 10
BITMAP
60
E0
C0
C0
ENDCHAR
STARTCHAR parenleft
ENCODING 40
SWIDTH 500 0
DWIDTH 4 0
BBX 3 14 0 -1
BITMAP
60
E0
C0
C0
C0
C0
C0
C0
C0
C0
C0
C0
E0
60
ENDCHAR
STARTCHAR parenright
ENCODING 41
SWIDTH 500 0
DWIDTH 4 0
BBX 3 14 0 -1
BITMAP
C0
E0
60
60
60
60
60
60
60
60
60
60
E0
C0
ENDCHAR
STARTCHAR asterisk
ENCODING 42
SWIDTH 500 0
DWIDTH 4 0
BBX 3 4 0 6
BITMAP
40
E0
40
A0
ENDCHAR
STARTCHAR plus
ENCODING 43
SWIDTH 875 0
DWIDTH 7 0
BBX 6 6 0 1
BITMAP
30
30
FC
FC
30
30
ENDCHAR
STARTCHAR comma
ENCODING 44
SWIDTH 500 0
DWIDTH 4 0
BBX 3 3 0 -3
BITMAP
60
E0
C0
ENDCHAR
STARTCHAR hyphen
ENCODING 45
SWIDTH 625 0
DWIDTH 5 0
BBX 4 2 0 3
BITMAP
F0
F0
ENDCHAR
STARTCHAR period
ENCODING 46
SWIDTH 375 0
DWIDTH 3 0
BBX 2 2 0 0
BITMAP
C0
C0
ENDCHAR
STARTCHAR slash
ENCODING 47
SWIDTH 625 0
DWIDTH 5 0
BBX 4 10 0 0
BITMAP
30
30
30
70
60
60
E0
C0
C0
C0
ENDCHAR
STARTCHAR zero
ENCODING 48
SWIDTH 875 0
DWIDTH 7 0
BBX 6 10 0 0
BITMAP
78
FC
CC
CC
CC
CC
CC
CC
FC
78
ENDCHAR
STARTCHAR one
ENCODING 49
SWIDTH 875 0
DWIDTH 7 0
BBX 6 10 0 0
BITMAP
30
70
F0
F0
30
30
30
30
FC
FC
ENDCHAR
STARTCHAR two
ENCODING 50
SWIDTH 875 0
DWIDTH 7 0
BBX 6 10 0 0
BITMAP
78
FC
CC
0C
1C
38
70
E0
FC
FC
ENDCHAR
STARTCHAR three
ENCODING 51
SWIDTH 875 0
DWIDTH 7 0
BBX 6 10 0 0
BITMAP
78
FC
CC
0C
38
3C
0C
CC
FC
78
ENDCHAR
STARTCHAR four
ENCODING 52
SWIDTH 875 0
DWIDTH 7 0
BBX 6 10 0 0
BITMAP
CC
CC
CC
CC
FC
7C
0C
0C
0C
0C
ENDCHAR
STARTCHAR five
ENCODING 53
SWIDTH 875 0
DWIDTH 7 0
BBX 6 10 0 0
BITMAP
FC
FC
C0
C0
F8
FC
0C
CC
FC
78
ENDCHAR
STARTCHAR six
ENCODING 54
SWIDTH 875 0
DWIDTH 7 0
BBX 6 10 0 0
BITMAP
78
F8
C0
C0
F8
FC
CC
CC
FC
78
ENDCHAR
STARTCHAR seven
ENCODING 55
SWIDTH 875 0
DWIDTH 7 0
BBX 6 10 0 0
BITMAP
FC
FC
0C
0C
18
18
38
30
30
30
ENDCHAR
STARTCHAR eight
ENCODING 56
SWIDTH 875 0
DWIDTH 7 0
BBX 6 10 0 0
BITMAP
78
FC
CC
CC
FC
FC
CC
CC
FC
78
ENDCHAR
STARTCHAR nine
ENCODING 57
SWIDTH 875 0
DWIDTH 7 0
BBX 6 10 0 0
BITMAP
78
FC
CC
CC
FC
7C
0C
0C
7C
78
ENDCHAR
STARTCHAR colon
ENCODING 58
SWIDTH 375 0
DWIDTH 3 0
BBX 2 7 0 0
BITMAP
C0
C0
00
00
00
C0
C0
ENDCHAR
STARTCHAR semicolon
ENCODING 59
SWIDTH 500 0
DWIDTH 4 0
BBX 3 9 0 -2
BITMAP
60
60
00
00
00
00
60
E0
C0
ENDCHAR
STARTCHAR less
ENCODING 60
SWIDTH 750 0
DWIDTH 6 0
BBX 5 8 0 0
BITMAP
18
38
70
E0
E0
70
38
18
ENDCHAR
STARTCHAR equal
ENCODING 61
SWIDTH 875 0
DWIDTH 7 0
BBX 6 5 0 2
BITMAP
FC
FC
00
FC
FC
ENDCHAR
STARTCHAR greater
ENCODING 62
SWIDTH 750 0
DWIDTH 6 0
BBX 5 8 0 0
BITMAP
C0
E0
70
38
38
70
E0
C0
ENDCHAR
STARTCHAR question
ENCODING 63
SWIDTH 875 0
DWIDTH 7 0
BBX 6 10 0 0
BITMAP
78
FC
CC
CC
1C
38
30
00
30
30
ENDCHAR
STARTCHAR at
ENCODING 64
SWIDTH 1375 0
DWIDTH 11 0
BBX 10 12 0 -2
BITMAP
3F00
4080
9E40
9F40
8340
9F40
BF40
B340
BFC0
9F80
4000
3F80
ENDCHAR
STARTCHAR A
ENCODING 65
SWIDTH 875 0
DWIDTH 7 0
BBX 6 10 0 0
BITMAP
78
FC
CC
CC
FC
FC
CC
CC
CC
CC
ENDCHAR
STARTCHAR B
ENCODING 66
SWIDTH 875 0
DWIDTH 7 0
BBX 6 10 0 0
BITMAP
F8
FC
CC
CC
FC
FC
CC
CC
FC
F8
ENDCHAR
STARTCHAR C
ENCODING 67
SWIDTH 875 0
DWIDTH 7 0
BBX 6 10 0 0
BITMAP
7C
FC
C0
C0
C0
C0
C0
C0
FC
7C
ENDCHAR
STARTCHAR D
ENCODING 68
SWIDTH 875 0
DWIDTH 7 0
BBX 6 10 0 0
BITMAP
F8
FC
CC
CC
CC
CC
CC
CC
FC
F8
ENDCHAR
STARTCHAR E
ENCODING 69
SWIDTH 875 0
DWIDTH 7 0
BBX 6 10 0 0
BITMAP
7C
FC
C0
C0
F0
F0
C0
C0
FC
7C
ENDCHAR
STARTCHAR F
ENCODING 70
SWIDTH 875 0
DWIDTH 7 0
BBX 6 10 0 0
BITMAP
7C
FC
C0
C0
F0
F0
C0
C0
C0
C0
ENDCHAR
STARTCHAR G
ENCODING 71
SWIDTH 875 0
DWIDTH 7 0
BBX 6 10 0 0
BITMAP
7C
FC
C0
C0
DC
DC
CC
CC
FC
78
ENDCHAR
STARTCHAR H
ENCODING 72
SWIDTH 875 0
DWIDTH 7 0
BBX 6 10 0 0
BITMAP
CC
CC
CC
CC
FC
FC
CC
CC
CC
CC
ENDCHAR
STARTCHAR I
ENCODING 73
SWIDTH 875 0
DWIDTH 7 0
BBX 6 10 0 0
BITMAP
FC
FC
30
30
30
30
30
30
FC
FC
ENDCHAR
STARTCHAR J
ENCODING 74
SWIDTH 875 0
DWIDTH 7 0
BBX 6 10 0 0
BITMAP
0C
0C
0C
0C
0C
0C
0C
CC
FC
78
ENDCHAR
STARTCHAR K
ENCODING 75
SWIDTH 875 0
DWIDTH 7 0
BBX 6 10 0 0
BITMAP
CC
CC
CC
DC
F8
F0
F8
DC
CC
CC
ENDCHAR
STARTCHAR L
ENCODING 76
SWIDTH 875 0
DWIDTH 7 0
BBX 6 10 0 0
BITMAP
C0
C0
C0
C0
C0
C0
C0
C0
FC
7C
ENDCHAR
STARTCHAR M
ENCODING 77
SWIDTH 1375 0
DWIDTH 11 0
BBX 10 10 0 0
BITMAP
FF80
FFC0
CCC0
CCC0
CCC0
CCC0
CCC0
CCC0
CCC0
CCC0
ENDCHAR
STARTCHAR N
ENCODING 78
SWIDTH 875 0
DWIDTH 7 0
BBX 6 10 0 0
BITMAP
F8
FC
CC
CC
CC
CC
CC
CC
CC
CC
ENDCHAR
STARTCHAR O
ENCODING 79
SWIDTH 875 0
DWIDTH 7 0
BBX 6 10 0 0
BITMAP
78
FC
CC
CC
CC
CC
CC
CC
FC
78
ENDCHAR
STARTCHAR P
ENCODING 80
SWIDTH 875 0
DWIDTH 7 0
BBX 6 10 0 0
BITMAP
F8
FC
CC
CC
FC
F8
C0
C0
C0
C0
ENDCHAR
STARTCHAR Q
ENCODING 81
SWIDTH 1000 0
DWIDTH 8 0
BBX 7 10 0 0
BITMAP
78
FC
CC
CC
CC
CC
CC
DC
FE
7E
ENDCHAR
STARTCHAR R
ENCODING 82
SWIDTH 875 0
DWIDTH 7 0
BBX 6 10 0 0
BITMAP
F8
FC
CC
CC
FC
F8
DC
CC
CC
CC
ENDCHAR
STARTCHAR S
ENCODING 83
SWIDTH 875 0
DWIDTH 7 0
BBX 6 10 0 0
BITMAP
7C
FC
C0
C0
F8
7C
0C
0C
FC
F8
ENDCHAR
STARTCHAR T
ENCODING 84
SWIDTH 875 0
DWIDTH 7 0
BBX 6 10 0 0
BITMAP
FC
FC
30
30
30
30
30
30
30
30
ENDCHAR
STARTCHAR U
ENCODING 85
SWIDTH 875 0
DWIDTH 7 0
BBX 6 10 0 0
BITMAP
CC
CC
CC
CC
CC
CC
CC
CC
FC
78
ENDCHAR
STARTCHAR V
ENCODING 86
SWIDTH 875 0
DWIDTH 7 0
BBX 6 10 0 0
BITMAP
CC
CC
CC
CC
CC
CC
CC
FC
78
30
ENDCHAR
STARTCHAR W
ENCODING 87
SWIDTH 1375 0
DWIDTH 11 0
BBX 10 10 0 0
BITMAP
CCC0
CCC0
CCC0
CCC0
CCC0
CCC0
CCC0
CCC0
FFC0
FF80
ENDCHAR
STARTCHAR X
ENCODING 88
SWIDTH 875 0
DWIDTH 7 0
BBX 6 10 0 0
BITMAP
CC
CC
CC
FC
78
78
FC
CC
CC
CC
ENDCHAR
STARTCHAR Y
ENCODING 89
SWIDTH 875 0
DWIDTH 7 0
BBX 6 10 0 0
BITMAP
CC
CC
CC
CC
FC
78
30
30
30
30
ENDCHAR
STARTCHAR Z
ENCODING 90
SWIDTH 875 0
DWIDTH 7 0
BBX 6 10 0 0
BITMAP
FC
FC
0C
1C
38
70
E0
C0
FC
FC
ENDCHAR
STARTCHAR bracketleft
ENCODING 91
SWIDTH 750 0
DWIDTH 6 0
BBX 5 14 0 -1
BITMAP
F8
F8
C0
C0
C0
C0
C0
C0
C0
C0
C0
C0
F8
F8
ENDCHAR
STARTCHAR backslash
ENCODING 92
SWIDTH 625 0
DWIDTH 5 0
BBX 4 10 0 0
BITMAP
C0
C0
C0
E0
60
60
70
30
30
30
ENDCHAR
STARTCHAR bracketright
ENCODING 93
SWIDTH 750 0
DWIDTH 6 0
BBX 5 14 0 -1
BITMAP
F8
F8
18
18
18
18
18
18
18
18
18
18
F8
F8
ENDCHAR
STARTCHAR asciicircum
ENCODING 94
SWIDTH 1125 0
DWIDTH 9 0
BBX 8 10 0 0
BITMAP
18
18
3C
3C
7E
66
E7
C3
C3
C3
ENDCHAR
STARTCHAR underscore
ENCODING 95
SWIDTH 1125 0
DWIDTH 9 0
BBX 8 2 0 0
BITMAP
FF
FF
ENDCHAR
STARTCHAR grave
ENCODING 96
SWIDTH 500 0
DWIDTH 4 0
BBX 3 5 0 7
BITMAP
C0
C0
E0
60
60
ENDCHAR
STARTCHAR a
ENCODING 97
SWIDTH 875 0
DWIDTH 7 0
BBX 6 8 0 0
BITMAP
78
7C
0C
7C
FC
CC
FC
7C
ENDCHAR
STARTCHAR b
ENCODING 98
SWIDTH 875 0
DWIDTH 7 0
BBX 6 10 0 0
BITMAP
C0
C0
F8
FC
CC
CC
CC
CC
FC
F8
ENDCHAR
STARTCHAR c
ENCODING 99
SWIDTH 875 0
DWIDTH 7 0
BBX 6 8 0 0
BITMAP
7C
FC
C0
C0
C0
C0
FC
7C
ENDCHAR
STARTCHAR d
ENCODING 100
SWIDTH 875 0
DWIDTH 7 0
BBX 6 10 0 0
BITMAP
0C
0C
7C
FC
CC
CC
CC
CC
FC
7C
ENDCHAR
STARTCHAR e
ENCODING 101
SWIDTH 875 0
DWIDTH 7 0
BBX 6 8 0 0
BITMAP
78
FC
CC
FC
F8
C0
FC
7C
ENDCHAR
STARTCHAR f
ENCODING 102
SWIDTH 750 0
DWIDTH 6 0
BBX 5 10 0 0
BITMAP
78
F8
C0
C0
F0
F0
C0
C0
C0
C0
ENDCHAR
STARTCHAR g
ENCODING 103
SWIDTH 875 0
DWIDTH 7 0
BBX 6 12 0 -4
BITMAP
78
FC
CC
CC
CC
CC
FC
7C
0C
CC
FC
78
ENDCHAR
STARTCHAR h
ENCODING 104
SWIDTH 875 0
DWIDTH 7 0
BBX 6 10 0 0
BITMAP
C0
C0
F8
FC
CC
CC
CC
CC
CC
CC
ENDCHAR
STARTCHAR i
ENCODING 105
SWIDTH 375 0
DWIDTH 3 0
BBX 2 8 0 0
BITMAP
C0
C0
00
C0
C0
C0
C0
C0
ENDCHAR
STARTCHAR j
ENCODING 106
SWIDTH 875 0
DWIDTH 7 0
BBX 6 12 0 -4
BITMAP
0C
0C
00
0C
0C
0C
0C
0C
0C
CC
FC
78
ENDCHAR
STARTCHAR k
ENCODING 107
SWIDTH 875 0
DWIDTH 7 0
BBX 6 10 0 0
BITMAP
C0
C0
CC
DC
F8
F0
F8
DC
CC
CC
ENDCHAR
STARTCHAR l
ENCODING 108
SWIDTH 625 0
DWIDTH 5 0
BBX 4 10 0 0
BITMAP
C0
C0
C0
C0
C0
C0
C0
C0
F0
70
ENDCHAR
STARTCHAR m
ENCODING 109
SWIDTH 1375 0
DWIDTH 11 0
BBX 10 8 0 0
BITMAP
FF80
FFC0
CCC0
CCC0
CCC0
CCC0
CCC0
CCC0
ENDCHAR
STARTCHAR n
ENCODING 110
SWIDTH 875 0
DWIDTH 7 0
BBX 6 8 0 0
BITMAP
F8
FC
CC
CC
CC
CC
CC
CC
ENDCHAR
STARTCHAR o
ENCODING 111
SWIDTH 875 0
DWIDTH 7 0
BBX 6 8 0 0
BITMAP
78
FC
CC
CC
CC
CC
FC
78
ENDCHAR
STARTCHAR p
ENCODING 112
SWIDTH 875 0
DWIDTH 7 0
BBX 6 12 0 -4
BITMAP
78
FC
CC
CC
CC
CC
FC
F8
C0
C0
C0
C0
ENDCHAR
STARTCHAR q
ENCODING 113
SWIDTH 875 0
DWIDTH 7 0
BBX 6 12 0 -4
BITMAP
78
FC
CC
CC
CC
CC
FC
7C
0C
0C
0C
0C
ENDCHAR
STARTCHAR r
ENCODING 114
SWIDTH 875 0
DWIDTH 7 0
BBX 6 8 0 0
BITMAP
DC
FC
70
60
60
60
60
60
ENDCHAR
STARTCHAR s
ENCODING 115
SWIDTH 875 0
DWIDTH 7 0
BBX 6 8 0 0
BITMAP
7C
FC
C0
F8
7C
0C
FC
F8
ENDCHAR
STARTCHAR t
ENCODING 116
SWIDTH 875 0
DWIDTH 7 0
BBX 6 10 0 0
BITMAP
30
30
FC
FC
30
30
30
30
3C
1C
ENDCHAR
STARTCHAR u
ENCODING 117
SWIDTH 875 0
DWIDTH 7 0
BBX 6 8 0 0
BITMAP
CC
CC
CC
CC
CC
CC
FC
78
ENDCHAR
STARTCHAR v
ENCODING 118
SWIDTH 875 0
DWIDTH 7 0
BBX 6 8 0 0
BITMAP
CC
CC
CC
CC
CC
FC
78
30
ENDCHAR
STARTCHAR w
ENCODING 119
SWIDTH 1375 0
DWIDTH 11 0
BBX 10 8 0 0
BITMAP
CCC0
CCC0
CCC0
CCC0
CCC0
CCC0
FFC0
FF80
ENDCHAR
STARTCHAR x
ENCODING 120
SWIDTH 875 0
DWIDTH 7 0
BBX 6 8 0 0
BITMAP
CC
CC
FC
78
78
FC
CC
CC
ENDCHAR
STARTCHAR y
ENCODING 121
SWIDTH 875 0
DWIDTH 7 0
BBX 6 12 0 -4
BITMAP
CC
CC
CC
CC
CC
CC
FC
7C
0C
CC
FC
78
ENDCHAR
STARTCHAR z
ENCODING 122
SWIDTH 875 0
DWIDTH 7 0
BBX 6 8 0 0
BITMAP
FC
FC
18
38
70
60
FC
FC
ENDCHAR
STARTCHAR braceleft
ENCODING 123
SWIDTH 625 0
DWIDTH 5 0
BBX 4 14 0 -1
BITMAP
30
70
60
60
60
60
E0
E0
E0
60
60
60
70
30
ENDCHAR
STARTCHAR bar
ENCODING 124
SWIDTH 375 0
DWIDTH 3 0
BBX 2 11 0 0
BITMAP
C0
C0
C0
C0
C0
C0
C0
C0
C0
C0
C0
ENDCHAR
STARTCHAR braceright
ENCODING 125
SWIDTH 625 0
DWIDTH 5 0
BBX 4 14 0 -1
BITMAP
C0
E0
60
60
60
60
70
70
70
60
60
60
E0
C0
ENDCHAR
STARTCHAR asciitilde
ENCODING 126
SWIDTH 1125 0
DWIDTH 9 0
BBX 8 4 0 3
BITMAP
70
FB
DF
0E
ENDCHAR
STARTCHAR exclamdown
ENCODING 161
SWIDTH 375 0
DWIDTH 3 0
BBX 2 10 0 -2
BITMAP
C0
C0
00
C0
C0
C0
C0
C0
C0
C0
ENDCHAR
STARTCHAR cent
ENCODING 162
SWIDTH 1250 0
DWIDTH 10 0
BBX 9 10 0 0
BITMAP
7C00
FE00
C600
EE00
7C00
7D80
EF80
C700
FF80
7D80
ENDCHAR
STARTCHAR sterling
ENCODING 163
SWIDTH 1125 0
DWIDTH 9 0
BBX 8 10 0 0
BITMAP
7E
FF
C3
E0
78
38
70
60
FF
FF
ENDCHAR
STARTCHAR currency
ENCODING 164
SWIDTH 1375 0
DWIDTH 11 0
BBX 10 10 0 0
BITMAP
CCC0
FFC0
7380
6180
C0C0
C0C0
6180
7380
FFC0
CCC0
ENDCHAR
STARTCHAR yen
ENCODING 165
SWIDTH 875 0
DWIDTH 7 0
BBX 6 10 0 0
BITMAP
CC
CC
CC
CC
FC
78
30
78
30
30
ENDCHAR
STARTCHAR brokenbar
ENCODING 166
SWIDTH 375 0
DWIDTH 3 0
BBX 2 11 0 0
BITMAP
C0
C0
C0
C0
C0
00
C0
C0
C0
C0
C0
ENDCHAR
STARTCHAR section
ENCODING 167
SWIDTH 875 0
DWIDTH 7 0
BBX 6 9 0 0
BITMAP
78
C4
F0
78
CC
78
3C
8C
78
ENDCHAR
STARTCHAR dieresis
ENCODING 168
SWIDTH 750 0
DWIDTH 6 0
BBX 5 2 0 9
BITMAP
D8
D8
ENDCHAR
STARTCHAR copyright
ENCODING 169
SWIDTH 1375 0
DWIDTH 11 0
BBX 10 10 0 0
BITMAP
0C00
3300
4080
4C80
9040
9040
4C80
4080
3300
0C00
ENDCHAR
STARTCHAR ordfeminine
ENCODING 170
SWIDTH 750 0
DWIDTH 6 0
BBX 5 4 0 8
BITMAP
60
90
90
68
ENDCHAR
STARTCHAR guillemotleft
ENCODING 171
SWIDTH 1125 0
DWIDTH 9 0
BBX 8 6 0 0
BITMAP
33
77
EE
EE
77
33
ENDCHAR
STARTCHAR logicalnot
ENCODING 172
SWIDTH 1000 0
DWIDTH 8 0
BBX 7 5 0 0
BITMAP
FC
FE
06
06
06
ENDCHAR
STARTCHAR registered
ENCODING 174
SWIDTH 1375 0
DWIDTH 11 0
BBX 10 10 0 0
BITMAP
0C00
3300
4080
4C80
8A40
8C40
4A80
4080
3300
0C00
ENDCHAR
STARTCHAR macron
ENCODING 175
SWIDTH 1250 0
DWIDTH 10 0
BBX 9 2 0 11
BITMAP
FF80
FF80
ENDCHAR
STARTCHAR degree
ENCODING 176
SWIDTH 750 0
DWIDTH 6 0
BBX 5 5 0 5
BITMAP
70
F8
D8
F8
70
ENDCHAR
STARTCHAR plusminus
ENCODING 177
SWIDTH 875 0
DWIDTH 7 0
BBX 6 9 0 0
BITMAP
30
30
FC
FC
30
30
00
FC
FC
ENDCHAR
STARTCHAR uni00B2
ENCODING 178
SWIDTH 500 0
DWIDTH 4 0
BBX 3 5 0 7
BITMAP
40
A0
20
40
E0
ENDCHAR
STARTCHAR uni00B3
ENCODING 179
SWIDTH 500 0
DWIDTH 4 0
BBX 3 5 0 7
BITMAP
C0
20
60
20
C0
ENDCHAR
STARTCHAR acute
ENCODING 180
SWIDTH 500 0
DWIDTH 4 0
BBX 3 5 0 7
BITMAP
60
60
E0
C0
C0
ENDCHAR
STARTCHAR mu
ENCODING 181
SWIDTH 875 0
DWIDTH 7 0
BBX 6 10 0 -4
BITMAP
CC
CC
CC
FC
F8
C0
C0
C0
C0
C0
ENDCHAR
STARTCHAR paragraph
ENCODING 182
SWIDTH 1125 0
DWIDTH 9 0
BBX 8 10 0 0
BITMAP
3F
7D
FD
FD
FD
7D
3D
0D
0D
0D
ENDCHAR
STARTCHAR periodcentered
ENCODING 183
SWIDTH 375 0
DWIDTH 3 0
BBX 2 2 0 4
BITMAP
C0
C0
ENDCHAR
STARTCHAR cedilla
ENCODING 184
SWIDTH 625 0
DWIDTH 5 0
BBX 4 3 0 -2
BITMAP
30
F0
E0
ENDCHAR
STARTCHAR uni00B9
ENCODING 185
SWIDTH 500 0
DWIDTH 4 0
BBX 3 5 0 7
BITMAP
40
C0
40
40
E0
ENDCHAR
STARTCHAR ordmasculine
ENCODING 186
SWIDTH 625 0
DWIDTH 5 0
BBX 4 4 0 8
BITMAP
60
90
90
60
ENDCHAR
STARTCHAR guillemotright
ENCODING 187
SWIDTH 1125 0
DWIDTH 9 0
BBX 8 6 0 0
BITMAP
CC
EE
77
77
EE
CC
ENDCHAR
STARTCHAR onequarter
ENCODING 188
SWIDTH 1375 0
DWIDTH 11 0
BBX 10 10 0 0
BITMAP
4180
C380
4300
4700
0E00
1C00
1980
3A80
73C0
6080
ENDCHAR
STARTCHAR onehalf
ENCODING 189
SWIDTH 1375 0
DWIDTH 11 0
BBX 10 10 0 0
BITMAP
4180
C380
4300
4700
0E00
1C00
1980
3A40
7080
63C0
ENDCHAR
STARTCHAR threequarters
ENCODING 190
SWIDTH 1375 0
DWIDTH 11 0
BBX 10 10 0 0
BITMAP
C180
2380
6300
2700
CE00
1C00
1980
3A80
73C0
6080
ENDCHAR
STARTCHAR questiondown
ENCODING 191
SWIDTH 875 0
DWIDTH 7 0
BBX 6 10 0 -2
BITMAP
30
30
00
30
70
E0
CC
CC
FC
78
ENDCHAR
STARTCHAR Agrave
ENCODING 192
SWIDTH 875 0
DWIDTH 7 0
BBX 6 14 0 0
BITMAP
60
70
30
00
78
FC
CC
CC
FC
FC
CC
CC
CC
CC
ENDCHAR
STARTCHAR Aacute
ENCODING 193
SWIDTH 875 0
DWIDTH 7 0
BBX 6 14 0 0
BITMAP
18
38
30
00
78
FC
CC
CC
FC
FC
CC
CC
CC
CC
ENDCHAR
STARTCHAR Acircumflex
ENCODING 194
SWIDTH 875 0
DWIDTH 7 0
BBX 6 14 0 0
BITMAP
30
78
58
00
78
FC
CC
CC
FC
FC
CC
CC
CC
CC
ENDCHAR
STARTCHAR Atilde
ENCODING 195
SWIDTH 875 0
DWIDTH 7 0
BBX 6 15 0 0
BITMAP
60
F4
BC
18
00
78
FC
CC
CC
FC
FC
CC
CC
CC
CC
ENDCHAR
STARTCHAR Adieresis
ENCODING 196
SWIDTH 875 0
DWIDTH 7 0
BBX 6 13 0 0
BITMAP
6C
6C
00
78
FC
CC
CC
FC
FC
CC
CC
CC
CC
ENDCHAR
STARTCHAR Aring
ENCODING 197
SWIDTH 875 0
DWIDTH 7 0
BBX 6 15 0 0
BITMAP
30
48
48
30
00
78
FC
CC
CC
FC
FC
CC
CC
CC
CC
ENDCHAR
STARTCHAR AE
ENCODING 198
SWIDTH 1375 0
DWIDTH 11 0
BBX 10 10 0 0
BITMAP
7FC0
FFC0
CC00
CC00
FF00
FF00
CC00
CC00
CFC0
CFC0
ENDCHAR
STARTCHAR Ccedilla
ENCODING 199
SWIDTH 875 0
DWIDTH 7 0
BBX 6 13 0 -3
BITMAP
7C
FC
C0
C0
C0
C0
C0
C0
FC
7C
18
78
70
ENDCHAR
STARTCHAR Egrave
ENCODING 200
SWIDTH 875 0
DWIDTH 7 0
BBX 6 14 0 0
BITMAP
60
70
30
00
7C
FC
C0
C0
F0
F0
C0
C0
FC
7C
ENDCHAR
STARTCHAR Eacute
ENCODING 201
SWIDTH 875 0
DWIDTH 7 0
BBX 6 14 0 0
BITMAP
18
38
30
00
7C
FC
C0
C0
F0
F0
C0
C0
FC
7C
ENDCHAR
STARTCHAR Ecircumflex
ENCODING 202
SWIDTH 875 0
DWIDTH 7 0
BBX 6 14 0 0
BITMAP
30
78
58
00
7C
FC
C0
C0
F0
F0
C0
C0
FC
7C
ENDCHAR
STARTCHAR Edieresis
ENCODING 203
SWIDTH 875 0
DWIDTH 7 0
BBX 6 13 0 0
BITMAP
6C
6C
00
7C
FC
C0
C0
F0
F0
C0
C0
FC
7C
ENDCHAR
STARTCHAR Igrave
ENCODING 204
SWIDTH 875 0
DWIDTH 7 0
BBX 6 14 0 0
BITMAP
60
70
30
00
FC
FC
30
30
30
30
30
30
FC
FC
ENDCHAR
STARTCHAR Iacute
ENCODING 205
SWIDTH 875 0
DWIDTH 7 0
BBX 6 14 0 0
BITMAP
18
38
30
00
FC
FC
30
30
30
30
30
30
FC
FC
ENDCHAR
STARTCHAR Icircumflex
ENCODING 206
SWIDTH 875 0
DWIDTH 7 0
BBX 6 14 0 0
BITMAP
30
78
58
00
FC
FC
30
30
30
30
30
30
FC
FC
ENDCHAR
STARTCHAR Idieresis
ENCODING 207
SWIDTH 875 0
DWIDTH 7 0
BBX 6 13 0 0
BITMAP
6C
6C
00
FC
FC
30
30
30
30
30
30
FC
FC
ENDCHAR
STARTCHAR Eth
ENCODING 208
SWIDTH 1000 0
DWIDTH 8 0
BBX 7 10 0 0
BITMAP
7C
7E
66
66
F6
F6
66
66
7E
7C
ENDCHAR
STARTCHAR Ntilde
ENCODING 209
SWIDTH 875 0
DWIDTH 7 0
BBX 6 15 0 0
BITMAP
60
F4
BC
18
00
F8
FC
CC
CC
CC
CC
CC
CC
CC
CC
ENDCHAR
STARTCHAR Ograve
ENCODING 210
SWIDTH 875 0
DWIDTH 7 0
BBX 6 14 0 0
BITMAP
60
70
30
00
78
FC
CC
CC
CC
CC
CC
CC
FC
78
ENDCHAR
STARTCHAR Oacute
ENCODING 211
SWIDTH 875 0
DWIDTH 7 0
BBX 6 14 0 0
BITMAP
18
38
30
00
78
FC
CC
CC
CC
CC
CC
CC
FC
78
ENDCHAR
STARTCHAR Ocircumflex
ENCODING 212
SWIDTH 875 0
DWIDTH 7 0
BBX 6 14 0 0
BITMAP
30
78
58
00
78
FC
CC
CC
CC
CC
CC
CC
FC
78
ENDCHAR
STARTCHAR Otilde
ENCODING 213
SWIDTH 875 0
DWIDTH 7 0
BBX 6 15 0 0
BITMAP
60
F4
BC
18
00
78
FC
CC
CC
CC
CC
CC
CC
FC
78
ENDCHAR
STARTCHAR Odieresis
ENCODING 214
SWIDTH 875 0
DWIDTH 7 0
BBX 6 13 0 0
BITMAP
6C
6C
00
78
FC
CC
CC
CC
CC
CC
CC
FC
78
ENDCHAR
STARTCHAR multiply
ENCODING 215
SWIDTH 875 0
DWIDTH 7 0
BBX 6 8 0 0
BITMAP
CC
CC
FC
78
78
FC
CC
CC
ENDCHAR
STARTCHAR Oslash
ENCODING 216
SWIDTH 1125 0
DWIDTH 9 0
BBX 8 10 0 0
BITMAP
7E
FF
C7
CB
CB
D3
D3
E3
FF
7E
ENDCHAR
STARTCHAR Ugrave
ENCODING 217
SWIDTH 875 0
DWIDTH 7 0
BBX 6 14 0 0
BITMAP
60
70
30
00
CC
CC
CC
CC
CC
CC
CC
CC
FC
78
ENDCHAR
STARTCHAR Uacute
ENCODING 218
SWIDTH 875 0
DWIDTH 7 0
BBX 6 14 0 0
BITMAP
18
38
30
00
CC
CC
CC
CC
CC
CC
CC
CC
FC
78
ENDCHAR
STARTCHAR Ucircumflex
ENCODING 219
SWIDTH 875 0
DWIDTH 7 0
BBX 6 14 0 0
BITMAP
30
78
58
00
CC
CC
CC
CC
CC
CC
CC
CC
FC
78
ENDCHAR
STARTCHAR Udieresis
ENCODING 220
SWIDTH 875 0
DWIDTH 7 0
BBX 6 13 0 0
BITMAP
CC
CC
00
CC
CC
CC
CC
CC
CC
CC
CC
FC
78
ENDCHAR
STARTCHAR Yacute
ENCODING 221
SWIDTH 875 0
DWIDTH 7 0
BBX 6 14 0 0
BITMAP
18
38
30
00
CC
CC
CC
CC
FC
78
30
30
30
30
ENDCHAR
STARTCHAR Thorn
ENCODING 222
SWIDTH 875 0
DWIDTH 7 0
BBX 6 10 0 0
BITMAP
C0
C0
F8
FC
CC
CC
FC
F8
C0
C0
ENDCHAR
STARTCHAR germandbls
ENCODING 223
SWIDTH 1125 0
DWIDTH 9 0
BBX 8 11 0 0
BITMAP
7C
FE
C6
C6
DE
DC
CE
C7
C3
DF
DE
ENDCHAR
STARTCHAR agrave
ENCODING 224
SWIDTH 875 0
DWIDTH 7 0
BBX 6 12 0 0
BITMAP
60
70
30
00
78
7C
0C
7C
FC
CC
FC
7C
ENDCHAR
STARTCHAR aacute
ENCODING 225
SWIDTH 875 0
DWIDTH 7 0
BBX 6 12 0 0
BITMAP
18
38
30
00
78
7C
0C
7C
FC
CC
FC
7C
ENDCHAR
STARTCHAR acircumflex
ENCODING 226
SWIDTH 875 0
DWIDTH 7 0
BBX 6 12 0 0
BITMAP
30
78
58
00
78
7C
0C
7C
FC
CC
FC
7C
ENDCHAR
STARTCHAR atilde
ENCODING 227
SWIDTH 875 0
DWIDTH 7 0
BBX 6 13 0 0
BITMAP
60
F4
BC
18
00
78
7C
0C
7C
FC
CC
FC
7C
ENDCHAR
STARTCHAR adieresis
ENCODING 228
SWIDTH 875 0
DWIDTH 7 0
BBX 6 11 0 0
BITMAP
6C
6C
00
78
7C
0C
7C
FC
CC
FC
7C
ENDCHAR
STARTCHAR aring
ENCODING 229
SWIDTH 875 0
DWIDTH 7 0
BBX 6 13 0 0
BITMAP
18
24
24
18
00
78
7C
0C
7C
FC
CC
FC
7C
ENDCHAR
STARTCHAR ae
ENCODING 230
SWIDTH 1375 0
DWIDTH 11 0
BBX 10 8 0 0
BITMAP
7F80
7FC0
0CC0
7FC0
FF80
CC00
FFC0
7FC0
ENDCHAR
STARTCHAR ccedilla
ENCODING 231
SWIDTH 875 0
DWIDTH 7 0
BBX 6 11 0 -3
BITMAP
7C
FC
C0
C0
C0
C0
FC
7C
18
78
70
ENDCHAR
STARTCHAR egrave
ENCODING 232
SWIDTH 875 0
DWIDTH 7 0
BBX 6 12 0 0
BITMAP
60
70
30
00
78
FC
CC
FC
F8
C0
FC
7C
ENDCHAR
STARTCHAR eacute
ENCODING 233
SWIDTH 875 0
DWIDTH 7 0
BBX 6 12 0 0
BITMAP
18
38
30
00
78
FC
CC
FC
F8
C0
FC
7C
ENDCHAR
STARTCHAR ecircumflex
ENCODING 234
SWIDTH 875 0
DWIDTH 7 0
BBX 6 12 0 0
BITMAP
30
78
58
00
78
FC
CC
FC
F8
C0
FC
7C
ENDCHAR
STARTCHAR edieresis
ENCODING 235
SWIDTH 875 0
DWIDTH 7 0
BBX 6 11 0 0
BITMAP
6C
6C
00
78
FC
CC
FC
F8
C0
FC
7C
ENDCHAR
STARTCHAR igrave
ENCODING 236
SWIDTH 500 0
DWIDTH 4 0
BBX 3 9 0 0
BITMAP
C0
E0
60
00
60
60
60
60
60
ENDCHAR
STARTCHAR iacute
ENCODING 237
SWIDTH 500 0
DWIDTH 4 0
BBX 3 9 0 0
BITMAP
60
E0
C0
00
C0
C0
C0
C0
C0
ENDCHAR
STARTCHAR icircumflex
ENCODING 238
SWIDTH 625 0
DWIDTH 5 0
BBX 4 9 0 0
BITMAP
60
F0
B0
00
60
60
60
60
60
ENDCHAR
STARTCHAR idieresis
ENCODING 239
SWIDTH 750 0
DWIDTH 6 0
BBX 5 8 0 0
BITMAP
D8
D8
00
60
60
60
60
60
ENDCHAR
STARTCHAR eth
ENCODING 240
SWIDTH 875 0
DWIDTH 7 0
BBX 6 10 0 0
BITMAP
34
38
5C
0C
7C
FC
CC
CC
FC
78
ENDCHAR
STARTCHAR ntilde
ENCODING 241
SWIDTH 875 0
DWIDTH 7 0
BBX 6 13 0 0
BITMAP
60
F4
BC
18
00
F8
FC
CC
CC
CC
CC
CC
CC
ENDCHAR
STARTCHAR ograve
ENCODING 242
SWIDTH 875 0
DWIDTH 7 0
BBX 6 12 0 0
BITMAP
60
70
30
00
78
FC
CC
CC
CC
CC
FC
78
ENDCHAR
STARTCHAR oacute
ENCODING 243
SWIDTH 875 0
DWIDTH 7 0
BBX 6 12 0 0
BITMAP
18
38
30
00
78
FC
CC
CC
CC
CC
FC
78
ENDCHAR
STARTCHAR ocircumflex
ENCODING 244
SWIDTH 875 0
DWIDTH 7 0
BBX 6 12 0 0
BITMAP
30
78
58
00
78
FC
CC
CC
CC
CC
FC
78
ENDCHAR
STARTCHAR otilde
ENCODING 245
SWIDTH 875 0
DWIDTH 7 0
BBX 6 13 0 0
BITMAP
60
F4
BC
18
00
78
FC
CC
CC
CC
CC
FC
78
ENDCHAR
STARTCHAR odieresis
ENCODING 246
SWIDTH 875 0
DWIDTH 7 0
BBX 6 11 0 0
BITMAP
6C
6C
00
78
FC
CC
CC
CC
CC
FC
78
ENDCHAR
STARTCHAR divide
ENCODING 247
SWIDTH 875 0
DWIDTH 7 0
BBX 6 8 0 0
BITMAP
30
30
00
FC
FC
00
30
30
ENDCHAR
STARTCHAR oslash
ENCODING 248
SWIDTH 1125 0
DWIDTH 9 0
BBX 8 8 0 0
BITMAP
7E
FF
C7
CB
D3
E3
FF
7E
ENDCHAR
STARTCHAR ugrave
ENCODING 249
SWIDTH 875 0
DWIDTH 7 0
BBX 6 12 0 0
BITMAP
60
70
30
00
CC
CC
CC
CC
CC
CC
FC
78
ENDCHAR
STARTCHAR uacute
ENCODING 250
SWIDTH 875 0
DWIDTH 7 0
BBX 6 12 0 0
BITMAP
18
38
30
00
CC
CC
CC
CC
CC
CC
FC
78
ENDCHAR
STARTCHAR ucircumflex
ENCODING 251
SWIDTH 875 0
DWIDTH 7 0
BBX 6 12 0 0
BITMAP
30
78
58
00
CC
CC
CC
CC
CC
CC
FC
78
ENDCHAR
STARTCHAR udieresis
ENCODING 252
SWIDTH 875 0
DWIDTH 7 0
BBX 6 11 0 0
BITMAP
CC
CC
00
CC
CC
CC
CC
CC
CC
FC
78
ENDCHAR
STARTCHAR yacute
ENCODING 253
SWIDTH 875 0
DWIDTH 7 0
BBX 6 16 0 -4
BITMAP
18
38
30
00
CC
CC
CC
CC
CC
CC
FC
7C
0C
CC
FC
78
ENDCHAR
STARTCHAR ydieresis
ENCODING 255
SWIDTH 875 0
DWIDTH 7 0
BBX 6 15 0 -4
BITMAP
CC
CC
00
CC
CC
CC
CC
CC
CC
FC
7C
0C
CC
FC
78
ENDCHAR
STARTCHAR dotlessi
ENCODING 305
SWIDTH 375 0
DWIDTH 3 0
BBX 2 5 0 0
BITMAP
C0
C0
C0
C0
C0
ENDCHAR
STARTCHAR Lslash
ENCODING 321
SWIDTH 1000 0
DWIDTH 8 0
BBX 7 10 0 0
BITMAP
60
60
60
60
F0
F0
60
60
7E
3E
ENDCHAR
STARTCHAR lslash
ENCODING 322
SWIDTH 750 0
DWIDTH 6 0
BBX 5 10 0 0
BITMAP
60
60
60
60
F0
F0
60
60
78
38
ENDCHAR
STARTCHAR OE
ENCODING 338
SWIDTH 1375 0
DWIDTH 11 0
BBX 10 10 0 0
BITMAP
7FC0
FFC0
CC00
CC00
CF00
CF00
CC00
CC00
FFC0
7FC0
ENDCHAR
STARTCHAR oe
ENCODING 339
SWIDTH 1375 0
DWIDTH 11 0
BBX 10 8 0 0
BITMAP
7F80
FFC0
CCC0
CFC0
CF80
CC00
FFC0
7FC0
ENDCHAR
STARTCHAR Scaron
ENCODING 352
SWIDTH 875 0
DWIDTH 7 0
BBX 6 14 0 0
BITMAP
58
78
30
00
7C
FC
C0
C0
F8
7C
0C
0C
FC
F8
ENDCHAR
STARTCHAR scaron
ENCODING 353
SWIDTH 875 0
DWIDTH 7 0
BBX 6 12 0 0
BITMAP
58
78
30
00
7C
FC
C0
F8
7C
0C
FC
F8
ENDCHAR
STARTCHAR Ydieresis
ENCODING 376
SWIDTH 875 0
DWIDTH 7 0
BBX 6 13 0 0
BITMAP
CC
CC
00
CC
CC
CC
CC
FC
78
30
30
30
30
ENDCHAR
STARTCHAR Zcaron
ENCODING 381
SWIDTH 875 0
DWIDTH 7 0
BBX 6 14 0 0
BITMAP
58
78
30
00
FC
FC
0C
1C
38
70
E0
C0
FC
FC
ENDCHAR
STARTCHAR zcaron
ENCODING 382
SWIDTH 875 0
DWIDTH 7 0
BBX 6 12 0 0
BITMAP
58
78
30
00
FC
FC
18
38
70
60
FC
FC
ENDCHAR
STARTCHAR florin
ENCODING 402
SWIDTH 875 0
DWIDTH 7 0
BBX 6 12 0 0
BITMAP
78
FC
CC
C0
C0
F0
F0
C0
C0
C0
C0
C0
ENDCHAR
STARTCHAR circumflex
ENCODING 710
SWIDTH 625 0
DWIDTH 5 0
BBX 4 3 0 10
BITMAP
B0
F0
60
ENDCHAR
STARTCHAR caron
ENCODING 711
SWIDTH 625 0
DWIDTH 5 0
BBX 4 3 0 10
BITMAP
60
F0
B0
ENDCHAR
STARTCHAR uni02C9
ENCODING 713
SWIDTH 1000 0
DWIDTH 8 0
BBX 7 2 0 11
BITMAP
FE
FE
ENDCHAR
STARTCHAR breve
ENCODING 728
SWIDTH 750 0
DWIDTH 6 0
BBX 5 3 0 10
BITMAP
70
F8
D8
ENDCHAR
STARTCHAR dotaccent
ENCODING 729
SWIDTH 375 0
DWIDTH 3 0
BBX 2 2 0 11
BITMAP
C0
C0
ENDCHAR
STARTCHAR ring
ENCODING 730
SWIDTH 625 0
DWIDTH 5 0
BBX 4 4 0 10
BITMAP
60
90
90
60
ENDCHAR
STARTCHAR ogonek
ENCODING 731
SWIDTH 750 0
DWIDTH 6 0
BBX 5 5 0 -2
BITMAP
60
E0
D8
F8
70
ENDCHAR
STARTCHAR tilde
ENCODING 732
SWIDTH 875 0
DWIDTH 7 0
BBX 6 4 0 8
BITMAP
60
F4
BC
18
ENDCHAR
STARTCHAR hungarumlaut
ENCODING 733
SWIDTH 875 0
DWIDTH 7 0
BBX 6 5 0 9
BITMAP
6C
6C
FC
D8
D8
ENDCHAR
STARTCHAR pi
ENCODING 960
SWIDTH 1000 0
DWIDTH 8 0
BBX 7 8 0 0
BITMAP
FE
FE
6C
6C
6C
6C
EE
CE
ENDCHAR
STARTCHAR endash
ENCODING 8211
SWIDTH 875 0
DWIDTH 7 0
BBX 6 2 0 3
BITMAP
FC
FC
ENDCHAR
STARTCHAR emdash
ENCODING 8212
SWIDTH 1125 0
DWIDTH 9 0
BBX 8 2 0 3
BITMAP
FF
FF
ENDCHAR
STARTCHAR quoteleft
ENCODING 8216
SWIDTH 500 0
DWIDTH 4 0
BBX 3 4 0 10
BITMAP
60
E0
C0
C0
ENDCHAR
STARTCHAR quoteright
ENCODING 8217
SWIDTH 500 0
DWIDTH 4 0
BBX 3 4 0 10
BITMAP
60
60
E0
C0
ENDCHAR
STARTCHAR quotesinglbase
ENCODING 8218
SWIDTH 500 0
DWIDTH 4 0
BBX 3 4 0 -2
BITMAP
60
60
E0
C0
ENDCHAR
STARTCHAR quotedblleft
ENCODING 8220
SWIDTH 875 0
DWIDTH 7 0
BBX 6 4 0 10
BITMAP
6C
FC
D8
D8
ENDCHAR
STARTCHAR quotedblright
ENCODING 8221
SWIDTH 875 0
DWIDTH 7 0
BBX 6 4 0 10
BITMAP
6C
6C
FC
D8
ENDCHAR
STARTCHAR quotedblbase
ENCODING 8222
SWIDTH 875 0
DWIDTH 7 0
BBX 6 4 0 -2
BITMAP
6C
6C
FC
D8
ENDCHAR
STARTCHAR dagger
ENCODING 8224
SWIDTH 875 0
DWIDTH 7 0
BBX 6 10 0 0
BITMAP
30
30
FC
FC
30
30
30
30
30
30
ENDCHAR
STARTCHAR daggerdbl
ENCODING 8225
SWIDTH 875 0
DWIDTH 7 0
BBX 6 10 0 0
BITMAP
30
30
FC
FC
30
30
FC
FC
30
30
ENDCHAR
STARTCHAR bullet
ENCODING 8226
SWIDTH 625 0
DWIDTH 5 0
BBX 4 4 0 2
BITMAP
60
F0
F0
60
ENDCHAR
STARTCHAR ellipsis
ENCODING 8230
SWIDTH 1125 0
DWIDTH 9 0
BBX 8 2 0 0
BITMAP
DB
DB
ENDCHAR
STARTCHAR perthousand
ENCODING 8240
SWIDTH 1250 0
DWIDTH 10 0
BBX 9 10 0 0
BITMAP
CC00
DC00
1800
3800
3000
3000
7000
6000
ED80
CD80
ENDCHAR
STARTCHAR guilsinglleft
ENCODING 8249
SWIDTH 625 0
DWIDTH 5 0
BBX 4 6 0 0
BITMAP
30
70
E0
E0
70
30
ENDCHAR
STARTCHAR guilsinglright
ENCODING 8250
SWIDTH 625 0
DWIDTH 5 0
BBX 4 6 0 0
BITMAP
C0
E0
70
70
E0
C0
ENDCHAR
STARTCHAR Euro
ENCODING 8364
SWIDTH 1000 0
DWIDTH 8 0
BBX 7 10 0 0
BITMAP
3E
7E
60
60
F8
60
F8
60
7E
3E
ENDCHAR
STARTCHAR uni2113
ENCODING 8467
SWIDTH 750 0
DWIDTH 6 0
BBX 5 10 0 0
BITMAP
70
F8
C8
C8
C8
F0
C0
C0
F8
78
ENDCHAR
STARTCHAR trademark
ENCODING 8482
SWIDTH 1125 0
DWIDTH 9 0
BBX 8 5 0 3
BITMAP
F1
5B
55
51
51
ENDCHAR
STARTCHAR Omega
ENCODING 8486
SWIDTH 1125 0
DWIDTH 9 0
BBX 8 9 0 0
BITMAP
3C
7E
E7
C3
C3
C3
66
E7
E7
ENDCHAR
STARTCHAR estimated
ENCODING 8494
SWIDTH 1125 0
DWIDTH 9 0
BBX 8 8 0 0
BITMAP
3C
7E
E7
E7
FE
E0
7E
3E
ENDCHAR
STARTCHAR partialdiff
ENCODING 8706
SWIDTH 875 0
DWIDTH 7 0
BBX 6 10 0 0
BITMAP
70
78
1C
0C
7C
FC
CC
CC
FC
78
ENDCHAR
STARTCHAR Delta
ENCODING 8710
SWIDTH 1375 0
DWIDTH 11 0
BBX 10 10 0 0
BITMAP
0C00
0C00
1600
1600
2300
2300
4180
4180
80C0
FFC0
ENDCHAR
STARTCHAR product
ENCODING 8719
SWIDTH 1250 0
DWIDTH 10 0
BBX 9 13 0 -1
BITMAP
FF80
FF80
6300
6300
6300
6300
6300
6300
6300
6300
6300
6300
6300
ENDCHAR
STARTCHAR summation
ENCODING 8721
SWIDTH 1250 0
DWIDTH 10 0
BBX 9 13 0 -1
BITMAP
FF80
FF80
E000
7000
3800
1C00
0C00
1C00
3800
7000
E000
FF80
FF80
ENDCHAR
STARTCHAR radical
ENCODING 8730
SWIDTH 1125 0
DWIDTH 9 0
BBX 8 14 0 -1
BITMAP
0F
1F
18
18
18
18
18
18
D8
F8
78
78
38
18
ENDCHAR
STARTCHAR infinity
ENCODING 8734
SWIDTH 1250 0
DWIDTH 10 0
BBX 9 5 0 2
BITMAP
7700
FF80
DD80
FF80
7700
ENDCHAR
STARTCHAR integral
ENCODING 8747
SWIDTH 1125 0
DWIDTH 9 0
BBX 8 16 0 -3
BITMAP
0E
1F
1B
18
18
18
18
18
18
18
18
18
18
D8
F8
70
ENDCHAR
STARTCHAR approxequal
ENCODING 8776
SWIDTH 875 0
DWIDTH 7 0
BBX 6 6 0 2
BITMAP
64
FC
98
64
FC
98
ENDCHAR
STARTCHAR notequal
ENCODING 8800
SWIDTH 875 0
DWIDTH 7 0
BBX 6 7 0 1
BITMAP
18
FC
FC
30
FC
FC
60
ENDCHAR
STARTCHAR lessequal
ENCODING 8804
SWIDTH 875 0
DWIDTH 7 0
BBX 6 9 0 0
BITMAP
18
38
70
70
38
18
00
FC
FC
ENDCHAR
STARTCHAR greaterequal
ENCODING 8805
SWIDTH 875 0
DWIDTH 7 0
BBX 6 9 0 0
BITMAP
60
70
38
38
70
60
00
FC
FC
ENDCHAR
STARTCHAR lozenge
ENCODING 9674
SWIDTH 1125 0
DWIDTH 9 0
BBX 8 8 0 0
BITMAP
18
3C
7E
E7
E7
7E
3C
18
ENDCHAR
STARTCHAR uniFB01
ENCODING 64257
SWIDTH 875 0
DWIDTH 7 0
BBX 6 10 0 0
BITMAP
78
F8
C0
C0
FC
FC
CC
CC
CC
CC
ENDCHAR
STARTCHAR uniFB02
ENCODING 64258
SWIDTH 1250 0
DWIDTH 10 0
BBX 9 10 0 0
BITMAP
7E00
FE00
C600
C600
F600
F600
C600
C600
C780
C380
ENDCHAR
STARTCHAR .notdef
ENCODING -1
SWIDTH 125 0
DWIDTH 1 0
BBX 1 1 0 0
BITMAP
00
ENDCHAR
ENDFONT
