STARTFONT 2.1
FONT font-05-8px
SIZE 8 75 75
FONTBOUNDINGBOX 14 8 -6 0
STARTPROPERTIES 3
PIXEL_SIZE 8
FONT_ASCENT 8
FONT_DESCENT 0
ENDPROPERTIES
CHARS 218
STARTCHAR uni0020
ENCODING 32
SWIDTH 1000 0
DWIDTH 8 0
BBX 1 1 0 0
BITMAP
00
ENDCHAR
STARTCHAR uni0021
ENCODING 33
SWIDTH 1000 0
DWIDTH 8 0
BBX 3 7 2 1
BITMAP
E0
E0
E0
C0
C0
00
C0
ENDCHAR
STARTCHAR uni0022
ENCODING 34
SWIDTH 1000 0
DWIDTH 8 0
BBX 5 3 1 5
BITMAP
D8
D8
D8
ENDCHAR
STARTCHAR uni0023
ENCODING 35
SWIDTH 1000 0
DWIDTH 8 0
BBX 7 7 0 1
BITMAP
6C
FE
6C
6C
6C
FE
6C
ENDCHAR
STARTCHAR uni0024
ENCODING 36
SWIDTH 1000 0
DWIDTH 8 0
BBX 7 7 0 1
BITMAP
10
7C
D0
7C
16
FC
10
ENDCHAR
STARTCHAR uni0025
ENCODING 37
SWIDTH 1000 0
DWIDTH 8 0
BBX 7 7 0 1
BITMAP
62
A4
C8
10
26
4A
8C
ENDCHAR
STARTCHAR uni0026
ENCODING 38
SWIDTH 1000 0
DWIDTH 8 0
BBX 7 7 0 1
BITMAP
70
D8
D8
70
DA
CC
7E
ENDCHAR
STARTCHAR uni0027
ENCODING 39
SWIDTH 1000 0
DWIDTH 8 0
BBX 2 3 2 5
BITMAP
C0
C0
C0
ENDCHAR
STARTCHAR uni0028
ENCODING 40
SWIDTH 1000 0
DWIDTH 8 0
BBX 4 7 2 1
BITMAP
30
60
C0
C0
C0
60
30
ENDCHAR
STARTCHAR uni0029
ENCODING 41
SWIDTH 1000 0
DWIDTH 8 0
BBX 4 7 1 1
BITMAP
C0
60
30
30
30
60
C0
ENDCHAR
STARTCHAR uni002A
ENCODING 42
SWIDTH 1000 0
DWIDTH 8 0
BBX 7 5 0 2
BITMAP
6C
38
FE
38
6C
ENDCHAR
STARTCHAR uni002B
ENCODING 43
SWIDTH 1000 0
DWIDTH 8 0
BBX 6 5 1 2
BITMAP
30
30
FC
30
30
ENDCHAR
STARTCHAR uni002C
ENCODING 44
SWIDTH 1000 0
DWIDTH 8 0
BBX 3 3 1 0
BITMAP
60
60
C0
ENDCHAR
STARTCHAR uni002D
ENCODING 45
SWIDTH 1000 0
DWIDTH 8 0
BBX 6 1 1 4
BITMAP
FC
ENDCHAR
STARTCHAR uni002E
ENCODING 46
SWIDTH 1000 0
DWIDTH 8 0
BBX 2 2 2 1
BITMAP
C0
C0
ENDCHAR
STARTCHAR uni002F
ENCODING 47
SWIDTH 1000 0
DWIDTH 8 0
BBX 7 7 0 1
BITMAP
02
04
08
10
20
40
80
ENDCHAR
STARTCHAR uni0030
ENCODING 48
SWIDTH 1000 0
DWIDTH 8 0
BBX 7 7 0 1
BITMAP
38
4C
C6
C6
C6
64
38
ENDCHAR
STARTCHAR uni0031
ENCODING 49
SWIDTH 1000 0
DWIDTH 8 0
BBX 6 7 1 1
BITMAP
30
70
30
30
30
30
FC
ENDCHAR
STARTCHAR uni0032
ENCODING 50
SWIDTH 1000 0
DWIDTH 8 0
BBX 7 7 0 1
BITMAP
7C
C6
0E
3C
78
E0
FE
ENDCHAR
STARTCHAR uni0033
ENCODING 51
SWIDTH 1000 0
DWIDTH 8 0
BBX 7 7 0 1
BITMAP
7E
0C
18
3C
06
C6
7C
ENDCHAR
STARTCHAR uni0034
ENCODING 52
SWIDTH 1000 0
DWIDTH 8 0
BBX 7 7 0 1
BITMAP
1C
3C
6C
CC
FE
0C
0C
ENDCHAR
STARTCHAR uni0035
ENCODING 53
SWIDTH 1000 0
DWIDTH 8 0
BBX 7 7 0 1
BITMAP
FC
C0
FC
06
06
C6
7C
ENDCHAR
STARTCHAR uni0036
ENCODING 54
SWIDTH 1000 0
DWIDTH 8 0
BBX 7 7 0 1
BITMAP
3C
60
C0
FC
C6
C6
7C
ENDCHAR
STARTCHAR uni0037
ENCODING 55
SWIDTH 1000 0
DWIDTH 8 0
BBX 7 7 0 1
BITMAP
FE
C6
0C
18
30
30
30
ENDCHAR
STARTCHAR uni0038
ENCODING 56
SWIDTH 1000 0
DWIDTH 8 0
BBX 7 7 0 1
BITMAP
78
C4
E4
78
9E
86
7C
ENDCHAR
STARTCHAR uni0039
ENCODING 57
SWIDTH 1000 0
DWIDTH 8 0
BBX 7 7 0 1
BITMAP
7C
C6
C6
7E
06
0C
78
ENDCHAR
STARTCHAR uni003A
ENCODING 58
SWIDTH 1000 0
DWIDTH 8 0
BBX 2 5 2 2
BITMAP
C0
C0
00
C0
C0
ENDCHAR
STARTCHAR uni003B
ENCODING 59
SWIDTH 1000 0
DWIDTH 8 0
BBX 3 6 1 1
BITMAP
60
60
00
60
60
C0
ENDCHAR
STARTCHAR uni003C
ENCODING 60
SWIDTH 1000 0
DWIDTH 8 0
BBX 5 7 1 1
BITMAP
18
30
60
C0
60
30
18
ENDCHAR
STARTCHAR uni003D
ENCODING 61
SWIDTH 1000 0
DWIDTH 8 0
BBX 7 3 0 3
BITMAP
FE
00
FE
ENDCHAR
STARTCHAR uni003E
ENCODING 62
SWIDTH 1000 0
DWIDTH 8 0
BBX 5 7 1 1
BITMAP
C0
60
30
18
30
60
C0
ENDCHAR
STARTCHAR uni003F
ENCODING 63
SWIDTH 1000 0
DWIDTH 8 0
BBX 7 7 0 1
BITMAP
7C
FE
C6
0C
38
00
38
ENDCHAR
STARTCHAR uni0040
ENCODING 64
SWIDTH 1000 0
DWIDTH 8 0
BBX 7 7 0 1
BITMAP
7C
82
BA
AA
BE
80
7C
ENDCHAR
STARTCHAR uni0041
ENCODING 65
SWIDTH 1000 0
DWIDTH 8 0
BBX 7 7 0 1
BITMAP
38
6C
C6
C6
FE
C6
C6
ENDCHAR
STARTCHAR uni0042
ENCODING 66
SWIDTH 1000 0
DWIDTH 8 0
BBX 7 7 0 1
BITMAP
FC
C6
C6
FC
C6
C6
FC
ENDCHAR
STARTCHAR uni0043
ENCODING 67
SWIDTH 1000 0
DWIDTH 8 0
BBX 7 7 0 1
BITMAP
3C
66
C0
C0
C0
66
3C
ENDCHAR
STARTCHAR uni0044
ENCODING 68
SWIDTH 1000 0
DWIDTH 8 0
BBX 7 7 0 1
BITMAP
F8
CC
C6
C6
C6
CC
F8
ENDCHAR
STARTCHAR uni0045
ENCODING 69
SWIDTH 1000 0
DWIDTH 8 0
BBX 7 7 0 1
BITMAP
FE
C0
C0
FC
C0
C0
FE
ENDCHAR
STARTCHAR uni0046
ENCODING 70
SWIDTH 1000 0
DWIDTH 8 0
BBX 7 7 0 1
BITMAP
FE
C0
C0
FC
C0
C0
C0
ENDCHAR
STARTCHAR uni0047
ENCODING 71
SWIDTH 1000 0
DWIDTH 8 0
BBX 7 7 0 1
BITMAP
3E
60
C0
CE
C6
66
3E
ENDCHAR
STARTCHAR uni0048
ENCODING 72
SWIDTH 1000 0
DWIDTH 8 0
BBX 7 7 0 1
BITMAP
C6
C6
C6
FE
C6
C6
C6
ENDCHAR
STARTCHAR uni0049
ENCODING 73
SWIDTH 1000 0
DWIDTH 8 0
BBX 6 7 1 1
BITMAP
FC
30
30
30
30
30
FC
ENDCHAR
STARTCHAR uni004A
ENCODING 74
SWIDTH 1000 0
DWIDTH 8 0
BBX 7 7 0 1
BITMAP
06
06
06
06
06
C6
7C
ENDCHAR
STARTCHAR uni004B
ENCODING 75
SWIDTH 1000 0
DWIDTH 8 0
BBX 7 7 0 1
BITMAP
C6
CC
D8
F0
F8
DC
CE
ENDCHAR
STARTCHAR uni004C
ENCODING 76
SWIDTH 1000 0
DWIDTH 8 0
BBX 6 7 1 1
BITMAP
C0
C0
C0
C0
C0
C0
FC
ENDCHAR
STARTCHAR uni004D
ENCODING 77
SWIDTH 1000 0
DWIDTH 8 0
BBX 7 7 0 1
BITMAP
C6
EE
FE
D6
D6
C6
C6
ENDCHAR
STARTCHAR uni004E
ENCODING 78
SWIDTH 1000 0
DWIDTH 8 0
BBX 7 7 0 1
BITMAP
C6
E6
F6
DE
CE
C6
C6
ENDCHAR
STARTCHAR uni004F
ENCODING 79
SWIDTH 1000 0
DWIDTH 8 0
BBX 7 7 0 1
BITMAP
7C
C6
C6
C6
C6
C6
7C
ENDCHAR
STARTCHAR uni0050
ENCODING 80
SWIDTH 1000 0
DWIDTH 8 0
BBX 7 7 0 1
BITMAP
FC
C6
C6
C6
FC
C0
C0
ENDCHAR
STARTCHAR uni0051
ENCODING 81
SWIDTH 1000 0
DWIDTH 8 0
BBX 7 7 0 1
BITMAP
7C
C6
C6
C6
DE
CC
7A
ENDCHAR
STARTCHAR uni0052
ENCODING 82
SWIDTH 1000 0
DWIDTH 8 0
BBX 7 7 0 1
BITMAP
FC
C6
C6
CE
F8
DC
CE
ENDCHAR
STARTCHAR uni0053
ENCODING 83
SWIDTH 1000 0
DWIDTH 8 0
BBX 7 7 0 1
BITMAP
7C
C6
C0
7C
06
C6
7C
ENDCHAR
STARTCHAR uni0054
ENCODING 84
SWIDTH 1000 0
DWIDTH 8 0
BBX 6 7 1 1
BITMAP
FC
30
30
30
30
30
30
ENDCHAR
STARTCHAR uni0055
ENCODING 85
SWIDTH 1000 0
DWIDTH 8 0
BBX 7 7 0 1
BITMAP
C6
C6
C6
C6
C6
C6
7C
ENDCHAR
STARTCHAR uni0056
ENCODING 86
SWIDTH 1000 0
DWIDTH 8 0
BBX 7 7 0 1
BITMAP
C6
C6
C6
EE
7C
38
10
ENDCHAR
STARTCHAR uni0057
ENCODING 87
SWIDTH 1000 0
DWIDTH 8 0
BBX 7 7 0 1
BITMAP
D6
D6
D6
D6
FE
EE
44
ENDCHAR
STARTCHAR uni0058
ENCODING 88
SWIDTH 1000 0
DWIDTH 8 0
BBX 7 7 0 1
BITMAP
C6
C6
6C
38
6C
C6
C6
ENDCHAR
STARTCHAR uni0059
ENCODING 89
SWIDTH 1000 0
DWIDTH 8 0
BBX 6 7 1 1
BITMAP
CC
CC
CC
78
30
30
30
ENDCHAR
STARTCHAR uni005A
ENCODING 90
SWIDTH 1000 0
DWIDTH 8 0
BBX 7 7 0 1
BITMAP
FE
0E
1C
38
70
E0
FE
ENDCHAR
STARTCHAR uni005B
ENCODING 91
SWIDTH 1000 0
DWIDTH 8 0
BBX 4 7 2 1
BITMAP
F0
C0
C0
C0
C0
C0
F0
ENDCHAR
STARTCHAR uni005C
ENCODING 92
SWIDTH 1000 0
DWIDTH 8 0
BBX 7 7 0 1
BITMAP
80
40
20
10
08
04
02
ENDCHAR
STARTCHAR uni005D
ENCODING 93
SWIDTH 1000 0
DWIDTH 8 0
BBX 4 7 1 1
BITMAP
F0
30
30
30
30
30
F0
ENDCHAR
STARTCHAR uni005E
ENCODING 94
SWIDTH 1000 0
DWIDTH 8 0
BBX 5 2 1 6
BITMAP
70
D8
ENDCHAR
STARTCHAR uni005F
ENCODING 95
SWIDTH 1000 0
DWIDTH 8 0
BBX 7 1 0 0
BITMAP
FE
ENDCHAR
STARTCHAR uni0060
ENCODING 96
SWIDTH 1000 0
DWIDTH 8 0
BBX 2 2 3 6
BITMAP
80
40
ENDCHAR
STARTCHAR uni0061
ENCODING 97
SWIDTH 1000 0
DWIDTH 8 0
BBX 7 5 0 1
BITMAP
7C
06
7E
C6
7E
ENDCHAR
STARTCHAR uni0062
ENCODING 98
SWIDTH 1000 0
DWIDTH 8 0
BBX 7 7 0 1
BITMAP
C0
C0
FC
C6
C6
C6
7C
ENDCHAR
STARTCHAR uni0063
ENCODING 99
SWIDTH 1000 0
DWIDTH 8 0
BBX 7 5 0 1
BITMAP
7E
C0
C0
C0
7E
ENDCHAR
STARTCHAR uni0064
ENCODING 100
SWIDTH 1000 0
DWIDTH 8 0
BBX 7 7 0 1
BITMAP
06
06
7E
C6
C6
C6
7E
ENDCHAR
STARTCHAR uni0065
ENCODING 101
SWIDTH 1000 0
DWIDTH 8 0
BBX 7 5 0 1
BITMAP
7C
C6
FE
C0
7C
ENDCHAR
STARTCHAR uni0066
ENCODING 102
SWIDTH 1000 0
DWIDTH 8 0
BBX 6 7 1 1
BITMAP
1C
30
FC
30
30
30
30
ENDCHAR
STARTCHAR uni0067
ENCODING 103
SWIDTH 1000 0
DWIDTH 8 0
BBX 7 6 0 0
BITMAP
7E
C6
C6
7E
06
7C
ENDCHAR
STARTCHAR uni0068
ENCODING 104
SWIDTH 1000 0
DWIDTH 8 0
BBX 7 7 0 1
BITMAP
C0
C0
FC
C6
C6
C6
C6
ENDCHAR
STARTCHAR uni0069
ENCODING 105
SWIDTH 1000 0
DWIDTH 8 0
BBX 6 7 1 1
BITMAP
30
00
70
30
30
30
FC
ENDCHAR
STARTCHAR uni006A
ENCODING 106
SWIDTH 1000 0
DWIDTH 8 0
BBX 5 8 1 0
BITMAP
18
00
38
18
18
18
18
F0
ENDCHAR
STARTCHAR uni006B
ENCODING 107
SWIDTH 1000 0
DWIDTH 8 0
BBX 7 7 0 1
BITMAP
C0
C0
C6
CC
F8
CC
C6
ENDCHAR
STARTCHAR uni006C
ENCODING 108
SWIDTH 1000 0
DWIDTH 8 0
BBX 6 7 1 1
BITMAP
70
30
30
30
30
30
FC
ENDCHAR
STARTCHAR uni006D
ENCODING 109
SWIDTH 1000 0
DWIDTH 8 0
BBX 7 5 0 1
BITMAP
FC
B6
B6
B6
B6
ENDCHAR
STARTCHAR uni006E
ENCODING 110
SWIDTH 1000 0
DWIDTH 8 0
BBX 7 5 0 1
BITMAP
FC
C6
C6
C6
C6
ENDCHAR
STARTCHAR uni006F
ENCODING 111
SWIDTH 1000 0
DWIDTH 8 0
BBX 7 5 0 1
BITMAP
7C
C6
C6
C6
7C
ENDCHAR
STARTCHAR uni0070
ENCODING 112
SWIDTH 1000 0
DWIDTH 8 0
BBX 7 6 0 0
BITMAP
FC
C6
C6
FC
C0
C0
ENDCHAR
STARTCHAR uni0071
ENCODING 113
SWIDTH 1000 0
DWIDTH 8 0
BBX 7 6 0 0
BITMAP
7E
C6
C6
7E
06
06
ENDCHAR
STARTCHAR uni0072
ENCODING 114
SWIDTH 1000 0
DWIDTH 8 0
BBX 6 5 1 1
BITMAP
DC
E0
C0
C0
C0
ENDCHAR
STARTCHAR uni0073
ENCODING 115
SWIDTH 1000 0
DWIDTH 8 0
BBX 7 5 0 1
BITMAP
7C
C0
7C
06
FC
ENDCHAR
STARTCHAR uni0074
ENCODING 116
SWIDTH 1000 0
DWIDTH 8 0
BBX 6 7 1 1
BITMAP
30
30
FC
30
30
30
30
ENDCHAR
STARTCHAR uni0075
ENCODING 117
SWIDTH 1000 0
DWIDTH 8 0
BBX 7 5 0 1
BITMAP
C6
C6
C6
C6
7E
ENDCHAR
STARTCHAR uni0076
ENCODING 118
SWIDTH 1000 0
DWIDTH 8 0
BBX 6 5 1 1
BITMAP
CC
CC
CC
78
30
ENDCHAR
STARTCHAR uni0077
ENCODING 119
SWIDTH 1000 0
DWIDTH 8 0
BBX 7 5 0 1
BITMAP
D6
D6
D6
D6
6C
ENDCHAR
STARTCHAR uni0078
ENCODING 120
SWIDTH 1000 0
DWIDTH 8 0
BBX 7 5 0 1
BITMAP
C6
6C
38
6C
C6
ENDCHAR
STARTCHAR uni0079
ENCODING 121
SWIDTH 1000 0
DWIDTH 8 0
BBX 7 6 0 0
BITMAP
C6
C6
C6
7E
06
7C
ENDCHAR
STARTCHAR uni007A
ENCODING 122
SWIDTH 1000 0
DWIDTH 8 0
BBX 7 5 0 1
BITMAP
FE
1C
38
70
FE
ENDCHAR
STARTCHAR uni007B
ENCODING 123
SWIDTH 1000 0
DWIDTH 8 0
BBX 4 7 2 1
BITMAP
30
60
60
C0
60
60
30
ENDCHAR
STARTCHAR uni007C
ENCODING 124
SWIDTH 1000 0
DWIDTH 8 0
BBX 2 7 3 1
BITMAP
C0
C0
C0
C0
C0
C0
C0
ENDCHAR
STARTCHAR uni007D
ENCODING 125
SWIDTH 1000 0
DWIDTH 8 0
BBX 4 7 1 1
BITMAP
C0
60
60
30
60
60
C0
ENDCHAR
STARTCHAR uni007E
ENCODING 126
SWIDTH 1000 0
DWIDTH 8 0
BBX 7 3 0 3
BITMAP
70
BA
1C
ENDCHAR
STARTCHAR uni00A0
ENCODING 160
SWIDTH 1000 0
DWIDTH 8 0
BBX 1 1 0 0
BITMAP
00
ENDCHAR
STARTCHAR uni00A1
ENCODING 161
SWIDTH 1000 0
DWIDTH 8 0
BBX 3 7 2 1
BITMAP
60
00
60
60
E0
E0
E0
ENDCHAR
STARTCHAR uni00A2
ENCODING 162
SWIDTH 1000 0
DWIDTH 8 0
BBX 7 7 0 1
BITMAP
10
7C
D6
D0
D6
7C
10
ENDCHAR
STARTCHAR uni00A3
ENCODING 163
SWIDTH 1000 0
DWIDTH 8 0
BBX 7 7 0 1
BITMAP
3C
66
60
FC
60
60
FE
ENDCHAR
STARTCHAR uni00A4
ENCODING 164
SWIDTH 1000 0
DWIDTH 8 0
BBX 6 5 1 2
BITMAP
B4
48
48
48
B4
ENDCHAR
STARTCHAR uni00A5
ENCODING 165
SWIDTH 1000 0
DWIDTH 8 0
BBX 6 7 1 1
BITMAP
CC
CC
78
FC
30
FC
30
ENDCHAR
STARTCHAR uni00A6
ENCODING 166
SWIDTH 1000 0
DWIDTH 8 0
BBX 2 7 3 1
BITMAP
C0
C0
C0
00
C0
C0
C0
ENDCHAR
STARTCHAR uni00A7
ENCODING 167
SWIDTH 1000 0
DWIDTH 8 0
BBX 6 7 1 1
BITMAP
78
CC
F0
48
3C
CC
78
ENDCHAR
STARTCHAR uni00A8
ENCODING 168
SWIDTH 1000 0
DWIDTH 8 0
BBX 5 1 1 7
BITMAP
D8
ENDCHAR
STARTCHAR uni00A9
ENCODING 169
SWIDTH 1000 0
DWIDTH 8 0
BBX 8 8 0 0
BITMAP
3C
42
99
A1
A1
99
42
3C
ENDCHAR
STARTCHAR uni00AA
ENCODING 170
SWIDTH 1000 0
DWIDTH 8 0
BBX 5 4 1 4
BITMAP
F0
78
D8
78
ENDCHAR
STARTCHAR uni00AB
ENCODING 171
SWIDTH 1000 0
DWIDTH 8 0
BBX 7 5 0 2
BITMAP
36
6C
D8
6C
36
ENDCHAR
STARTCHAR uni00AC
ENCODING 172
SWIDTH 1000 0
DWIDTH 8 0
BBX 6 3 1 3
BITMAP
FC
0C
0C
ENDCHAR
STARTCHAR uni00AD
ENCODING 173
SWIDTH 1000 0
DWIDTH 8 0
BBX 6 1 1 4
BITMAP
FC
ENDCHAR
STARTCHAR uni00AE
ENCODING 174
SWIDTH 1000 0
DWIDTH 8 0
BBX 8 8 0 0
BITMAP
3C
42
B9
A5
B9
A5
42
3C
ENDCHAR
STARTCHAR uni00AF
ENCODING 175
SWIDTH 1000 0
DWIDTH 8 0
BBX 5 1 1 7
BITMAP
F8
ENDCHAR
STARTCHAR uni00B0
ENCODING 176
SWIDTH 1000 0
DWIDTH 8 0
BBX 3 3 2 5
BITMAP
40
A0
40
ENDCHAR
STARTCHAR uni00B1
ENCODING 177
SWIDTH 1000 0
DWIDTH 8 0
BBX 6 7 1 1
BITMAP
30
30
FC
30
30
00
FC
ENDCHAR
STARTCHAR uni00B2
ENCODING 178
SWIDTH 1000 0
DWIDTH 8 0
BBX 4 4 2 4
BITMAP
E0
30
60
F0
ENDCHAR
STARTCHAR uni00B3
ENCODING 179
SWIDTH 1000 0
DWIDTH 8 0
BBX 4 4 2 4
BITMAP
F0
60
30
E0
ENDCHAR
STARTCHAR uni00B4
ENCODING 180
SWIDTH 1000 0
DWIDTH 8 0
BBX 2 2 3 6
BITMAP
40
80
ENDCHAR
STARTCHAR uni00B5
ENCODING 181
SWIDTH 1000 0
DWIDTH 8 0
BBX 7 6 0 0
BITMAP
CC
CC
CC
CC
F6
C0
ENDCHAR
STARTCHAR uni00B6
ENCODING 182
SWIDTH 1000 0
DWIDTH 8 0
BBX 6 7 1 1
BITMAP
7C
D4
94
D4
7C
14
14
ENDCHAR
STARTCHAR uni00B7
ENCODING 183
SWIDTH 1000 0
DWIDTH 8 0
BBX 2 2 2 3
BITMAP
C0
C0
ENDCHAR
STARTCHAR uni00B8
ENCODING 184
SWIDTH 1000 0
DWIDTH 8 0
BBX 3 2 2 0
BITMAP
20
C0
ENDCHAR
STARTCHAR uni00B9
ENCODING 185
SWIDTH 1000 0
DWIDTH 8 0
BBX 4 4 2 4
BITMAP
60
E0
60
F0
ENDCHAR
STARTCHAR uni00BA
ENCODING 186
SWIDTH 1000 0
DWIDTH 8 0
BBX 5 4 1 4
BITMAP
70
D8
D8
70
ENDCHAR
STARTCHAR uni00BB
ENCODING 187
SWIDTH 1000 0
DWIDTH 8 0
BBX 7 5 0 2
BITMAP
D8
6C
36
6C
D8
ENDCHAR
STARTCHAR uni00BC
ENCODING 188
SWIDTH 1000 0
DWIDTH 8 0
BBX 7 7 0 1
BITMAP
42
C4
48
52
26
4E
82
ENDCHAR
STARTCHAR uni00BD
ENCODING 189
SWIDTH 1000 0
DWIDTH 8 0
BBX 7 7 0 1
BITMAP
42
C4
48
56
22
44
8E
ENDCHAR
STARTCHAR uni00BE
ENCODING 190
SWIDTH 1000 0
DWIDTH 8 0
BBX 7 7 0 1
BITMAP
E2
44
28
D2
26
4E
82
ENDCHAR
STARTCHAR uni00BF
ENCODING 191
SWIDTH 1000 0
DWIDTH 8 0
BBX 7 7 0 1
BITMAP
38
00
38
60
C6
FE
7C
ENDCHAR
STARTCHAR uni00C0
ENCODING 192
SWIDTH 1000 0
DWIDTH 8 0
BBX 7 7 0 1
BITMAP
20
10
38
6C
C6
FE
C6
ENDCHAR
STARTCHAR uni00C1
ENCODING 193
SWIDTH 1000 0
DWIDTH 8 0
BBX 7 7 0 1
BITMAP
08
10
38
6C
C6
FE
C6
ENDCHAR
STARTCHAR uni00C2
ENCODING 194
SWIDTH 1000 0
DWIDTH 8 0
BBX 7 7 0 1
BITMAP
38
6C
38
6C
C6
FE
C6
ENDCHAR
STARTCHAR uni00C3
ENCODING 195
SWIDTH 1000 0
DWIDTH 8 0
BBX 7 7 0 1
BITMAP
34
58
38
6C
C6
FE
C6
ENDCHAR
STARTCHAR uni00C4
ENCODING 196
SWIDTH 1000 0
DWIDTH 8 0
BBX 7 7 0 1
BITMAP
6C
00
38
6C
C6
FE
C6
ENDCHAR
STARTCHAR uni00C5
ENCODING 197
SWIDTH 1000 0
DWIDTH 8 0
BBX 7 7 0 1
BITMAP
10
28
38
6C
C6
FE
C6
ENDCHAR
STARTCHAR uni00C6
ENCODING 198
SWIDTH 1000 0
DWIDTH 8 0
BBX 7 7 0 1
BITMAP
3E
78
D8
DE
F8
D8
DE
ENDCHAR
STARTCHAR uni00C7
ENCODING 199
SWIDTH 1000 0
DWIDTH 8 0
BBX 7 8 0 0
BITMAP
3C
66
C0
C0
66
3C
08
30
ENDCHAR
STARTCHAR uni00C8
ENCODING 200
SWIDTH 1000 0
DWIDTH 8 0
BBX 7 7 0 1
BITMAP
20
10
FE
C0
FC
C0
FE
ENDCHAR
STARTCHAR uni00C9
ENCODING 201
SWIDTH 1000 0
DWIDTH 8 0
BBX 7 7 0 1
BITMAP
08
10
FE
C0
FC
C0
FE
ENDCHAR
STARTCHAR uni00CA
ENCODING 202
SWIDTH 1000 0
DWIDTH 8 0
BBX 7 7 0 1
BITMAP
38
6C
FE
C0
FC
C0
FE
ENDCHAR
STARTCHAR uni00CB
ENCODING 203
SWIDTH 1000 0
DWIDTH 8 0
BBX 7 7 0 1
BITMAP
6C
00
FE
C0
FC
C0
FE
ENDCHAR
STARTCHAR uni00CC
ENCODING 204
SWIDTH 1000 0
DWIDTH 8 0
BBX 6 7 1 1
BITMAP
20
10
FC
30
30
30
FC
ENDCHAR
STARTCHAR uni00CD
ENCODING 205
SWIDTH 1000 0
DWIDTH 8 0
BBX 6 7 1 1
BITMAP
10
20
FC
30
30
30
FC
ENDCHAR
STARTCHAR uni00CE
ENCODING 206
SWIDTH 1000 0
DWIDTH 8 0
BBX 6 7 1 1
BITMAP
30
78
FC
30
30
30
FC
ENDCHAR
STARTCHAR uni00CF
ENCODING 207
SWIDTH 1000 0
DWIDTH 8 0
BBX 6 7 1 1
BITMAP
CC
00
FC
30
30
30
FC
ENDCHAR
STARTCHAR uni00D0
ENCODING 208
SWIDTH 1000 0
DWIDTH 8 0
BBX 7 7 0 1
BITMAP
78
6C
66
F6
66
6C
78
ENDCHAR
STARTCHAR uni00D1
ENCODING 209
SWIDTH 1000 0
DWIDTH 8 0
BBX 7 7 0 1
BITMAP
34
58
E6
F6
FE
DE
CE
ENDCHAR
STARTCHAR uni00D2
ENCODING 210
SWIDTH 1000 0
DWIDTH 8 0
BBX 7 7 0 1
BITMAP
20
10
7C
C6
C6
C6
7C
ENDCHAR
STARTCHAR uni00D3
ENCODING 211
SWIDTH 1000 0
DWIDTH 8 0
BBX 7 7 0 1
BITMAP
08
10
7C
C6
C6
C6
7C
ENDCHAR
STARTCHAR uni00D4
ENCODING 212
SWIDTH 1000 0
DWIDTH 8 0
BBX 7 7 0 1
BITMAP
38
6C
7C
C6
C6
C6
7C
ENDCHAR
STARTCHAR uni00D5
ENCODING 213
SWIDTH 1000 0
DWIDTH 8 0
BBX 7 7 0 1
BITMAP
34
58
7C
C6
C6
C6
7C
ENDCHAR
STARTCHAR uni00D6
ENCODING 214
SWIDTH 1000 0
DWIDTH 8 0
BBX 7 7 0 1
BITMAP
6C
00
7C
C6
C6
C6
7C
ENDCHAR
STARTCHAR uni00D7
ENCODING 215
SWIDTH 1000 0
DWIDTH 8 0
BBX 5 5 1 2
BITMAP
88
50
20
50
88
ENDCHAR
STARTCHAR uni00D8
ENCODING 216
SWIDTH 1000 0
DWIDTH 8 0
BBX 7 7 0 1
BITMAP
7C
C6
CE
D6
E6
C6
7C
ENDCHAR
STARTCHAR uni00D9
ENCODING 217
SWIDTH 1000 0
DWIDTH 8 0
BBX 7 7 0 1
BITMAP
20
10
C6
C6
C6
C6
7C
ENDCHAR
STARTCHAR uni00DA
ENCODING 218
SWIDTH 1000 0
DWIDTH 8 0
BBX 7 7 0 1
BITMAP
08
10
C6
C6
C6
C6
7C
ENDCHAR
STARTCHAR uni00DB
ENCODING 219
SWIDTH 1000 0
DWIDTH 8 0
BBX 7 7 0 1
BITMAP
38
6C
00
C6
C6
C6
7C
ENDCHAR
STARTCHAR uni00DC
ENCODING 220
SWIDTH 1000 0
DWIDTH 8 0
BBX 7 7 0 1
BITMAP
6C
00
C6
C6
C6
C6
7C
ENDCHAR
STARTCHAR uni00DD
ENCODING 221
SWIDTH 1000 0
DWIDTH 8 0
BBX 6 7 1 1
BITMAP
10
20
CC
CC
78
30
30
ENDCHAR
STARTCHAR uni00DE
ENCODING 222
SWIDTH 1000 0
DWIDTH 8 0
BBX 7 7 0 1
BITMAP
C0
FC
C6
C6
C6
FC
C0
ENDCHAR
STARTCHAR uni00DF
ENCODING 223
SWIDTH 1000 0
DWIDTH 8 0
BBX 6 7 1 1
BITMAP
78
CC
CC
D8
CC
EC
D8
ENDCHAR
STARTCHAR uni00E0
ENCODING 224
SWIDTH 1000 0
DWIDTH 8 0
BBX 7 7 0 1
BITMAP
20
10
7C
06
7E
C6
7E
ENDCHAR
STARTCHAR uni00E1
ENCODING 225
SWIDTH 1000 0
DWIDTH 8 0
BBX 7 7 0 1
BITMAP
08
10
7C
06
7E
C6
7E
ENDCHAR
STARTCHAR uni00E2
ENCODING 226
SWIDTH 1000 0
DWIDTH 8 0
BBX 7 7 0 1
BITMAP
38
6C
7C
06
7E
C6
7E
ENDCHAR
STARTCHAR uni00E3
ENCODING 227
SWIDTH 1000 0
DWIDTH 8 0
BBX 7 7 0 1
BITMAP
34
58
7C
06
7E
C6
7E
ENDCHAR
STARTCHAR uni00E4
ENCODING 228
SWIDTH 1000 0
DWIDTH 8 0
BBX 7 7 0 1
BITMAP
6C
00
7C
06
7E
C6
7E
ENDCHAR
STARTCHAR uni00E5
ENCODING 229
SWIDTH 1000 0
DWIDTH 8 0
BBX 7 7 0 1
BITMAP
10
28
7C
06
7E
C6
7E
ENDCHAR
STARTCHAR uni00E6
ENCODING 230
SWIDTH 1000 0
DWIDTH 8 0
BBX 7 5 0 1
BITMAP
7C
16
7E
D0
7C
ENDCHAR
STARTCHAR uni00E7
ENCODING 231
SWIDTH 1000 0
DWIDTH 8 0
BBX 7 6 0 0
BITMAP
7E
C0
C0
7E
08
30
ENDCHAR
STARTCHAR uni00E8
ENCODING 232
SWIDTH 1000 0
DWIDTH 8 0
BBX 7 7 0 1
BITMAP
20
10
7C
C6
FE
C0
7C
ENDCHAR
STARTCHAR uni00E9
ENCODING 233
SWIDTH 1000 0
DWIDTH 8 0
BBX 7 7 0 1
BITMAP
08
10
7C
C6
FE
C0
7C
ENDCHAR
STARTCHAR uni00EA
ENCODING 234
SWIDTH 1000 0
DWIDTH 8 0
BBX 7 7 0 1
BITMAP
38
6C
7C
C6
FE
C0
7C
ENDCHAR
STARTCHAR uni00EB
ENCODING 235
SWIDTH 1000 0
DWIDTH 8 0
BBX 7 7 0 1
BITMAP
6C
00
7C
C6
FE
C0
7C
ENDCHAR
STARTCHAR uni00EC
ENCODING 236
SWIDTH 1000 0
DWIDTH 8 0
BBX 6 7 1 1
BITMAP
40
20
00
70
30
30
FC
ENDCHAR
STARTCHAR uni00ED
ENCODING 237
SWIDTH 1000 0
DWIDTH 8 0
BBX 6 7 1 1
BITMAP
10
20
00
70
30
30
FC
ENDCHAR
STARTCHAR uni00EE
ENCODING 238
SWIDTH 1000 0
DWIDTH 8 0
BBX 6 7 1 1
BITMAP
70
D8
00
70
30
30
FC
ENDCHAR
STARTCHAR uni00EF
ENCODING 239
SWIDTH 1000 0
DWIDTH 8 0
BBX 6 7 1 1
BITMAP
D8
00
70
30
30
30
FC
ENDCHAR
STARTCHAR uni00F0
ENCODING 240
SWIDTH 1000 0
DWIDTH 8 0
BBX 7 7 0 1
BITMAP
64
78
98
7C
C6
C6
7C
ENDCHAR
STARTCHAR uni00F1
ENCODING 241
SWIDTH 1000 0
DWIDTH 8 0
BBX 7 7 0 1
BITMAP
34
58
FC
C6
C6
C6
C6
ENDCHAR
STARTCHAR uni00F2
ENCODING 242
SWIDTH 1000 0
DWIDTH 8 0
BBX 7 7 0 1
BITMAP
20
10
7C
C6
C6
C6
7C
ENDCHAR
STARTCHAR uni00F3
ENCODING 243
SWIDTH 1000 0
DWIDTH 8 0
BBX 7 7 0 1
BITMAP
08
10
7C
C6
C6
C6
7C
ENDCHAR
STARTCHAR uni00F4
ENCODING 244
SWIDTH 1000 0
DWIDTH 8 0
BBX 7 7 0 1
BITMAP
38
6C
7C
C6
C6
C6
7C
ENDCHAR
STARTCHAR uni00F5
ENCODING 245
SWIDTH 1000 0
DWIDTH 8 0
BBX 7 7 0 1
BITMAP
34
58
7C
C6
C6
C6
7C
ENDCHAR
STARTCHAR uni00F6
ENCODING 246
SWIDTH 1000 0
DWIDTH 8 0
BBX 7 7 0 1
BITMAP
6C
00
7C
C6
C6
C6
7C
ENDCHAR
STARTCHAR uni00F7
ENCODING 247
SWIDTH 1000 0
DWIDTH 8 0
BBX 6 5 1 2
BITMAP
30
00
FC
00
30
ENDCHAR
STARTCHAR uni00F8
ENCODING 248
SWIDTH 1000 0
DWIDTH 8 0
BBX 7 5 0 1
BITMAP
7C
CE
D6
E6
7C
ENDCHAR
STARTCHAR uni00F9
ENCODING 249
SWIDTH 1000 0
DWIDTH 8 0
BBX 7 7 0 1
BITMAP
20
10
C6
C6
C6
C6
7E
ENDCHAR
STARTCHAR uni00FA
ENCODING 250
SWIDTH 1000 0
DWIDTH 8 0
BBX 7 7 0 1
BITMAP
08
10
C6
C6
C6
C6
7E
ENDCHAR
STARTCHAR uni00FB
ENCODING 251
SWIDTH 1000 0
DWIDTH 8 0
BBX 7 7 0 1
BITMAP
38
6C
00
C6
C6
C6
7E
ENDCHAR
STARTCHAR uni00FC
ENCODING 252
SWIDTH 1000 0
DWIDTH 8 0
BBX 7 7 0 1
BITMAP
6C
00
C6
C6
C6
C6
7E
ENDCHAR
STARTCHAR uni00FD
ENCODING 253
SWIDTH 1000 0
DWIDTH 8 0
BBX 7 8 0 0
BITMAP
08
10
C6
C6
C6
7E
06
7C
ENDCHAR
STARTCHAR uni00FE
ENCODING 254
SWIDTH 1000 0
DWIDTH 8 0
BBX 7 8 0 0
BITMAP
C0
C0
FC
C6
C6
FC
C0
C0
ENDCHAR
STARTCHAR uni00FF
ENCODING 255
SWIDTH 1000 0
DWIDTH 8 0
BBX 7 8 0 0
BITMAP
6C
00
C6
C6
C6
7E
06
7C
ENDCHAR
STARTCHAR uni0131
ENCODING 305
SWIDTH 1000 0
DWIDTH 8 0
BBX 6 5 1 1
BITMAP
70
30
30
30
FC
ENDCHAR
STARTCHAR uni0152
ENCODING 338
SWIDTH 1000 0
DWIDTH 8 0
BBX 7 7 0 1
BITMAP
7E
D8
D8
DE
D8
D8
7E
ENDCHAR
STARTCHAR uni0153
ENCODING 339
SWIDTH 1000 0
DWIDTH 8 0
BBX 7 5 0 1
BITMAP
7C
D6
DE
D0
7C
ENDCHAR
STARTCHAR uni02BC
ENCODING 700
SWIDTH 1000 0
DWIDTH 8 0
BBX 2 3 0 5
BITMAP
C0
C0
80
ENDCHAR
STARTCHAR uni02C6
ENCODING 710
SWIDTH 1000 0
DWIDTH 8 0
BBX 5 2 1 6
BITMAP
70
D8
ENDCHAR
STARTCHAR uni02DA
ENCODING 730
SWIDTH 1000 0
DWIDTH 8 0
BBX 5 3 1 5
BITMAP
70
D8
70
ENDCHAR
STARTCHAR uni02DC
ENCODING 732
SWIDTH 1000 0
DWIDTH 8 0
BBX 5 2 1 6
BITMAP
68
B0
ENDCHAR
STARTCHAR uni0300
ENCODING 768
SWIDTH 0 0
DWIDTH 0 0
BBX 2 2 -6 6
BITMAP
80
40
ENDCHAR
STARTCHAR uni0301
ENCODING 769
SWIDTH 0 0
DWIDTH 0 0
BBX 2 2 -5 6
BITMAP
40
80
ENDCHAR
STARTCHAR uni2013
ENCODING 8211
SWIDTH 1000 0
DWIDTH 8 0
BBX 7 1 0 4
BITMAP
FE
ENDCHAR
STARTCHAR uni2014
ENCODING 8212
SWIDTH 1000 0
DWIDTH 8 0
BBX 8 1 0 4
BITMAP
FF
ENDCHAR
STARTCHAR uni2018
ENCODING 8216
SWIDTH 1000 0
DWIDTH 8 0
BBX 3 3 2 5
BITMAP
60
C0
C0
ENDCHAR
STARTCHAR uni2019
ENCODING 8217
SWIDTH 1000 0
DWIDTH 8 0
BBX 3 3 2 5
BITMAP
60
60
C0
ENDCHAR
STARTCHAR uni201A
ENCODING 8218
SWIDTH 1000 0
DWIDTH 8 0
BBX 3 3 2 1
BITMAP
60
60
C0
ENDCHAR
STARTCHAR uni201C
ENCODING 8220
SWIDTH 1000 0
DWIDTH 8 0
BBX 6 3 1 5
BITMAP
6C
D8
D8
ENDCHAR
STARTCHAR uni201D
ENCODING 8221
SWIDTH 1000 0
DWIDTH 8 0
BBX 6 3 1 5
BITMAP
6C
6C
D8
ENDCHAR
STARTCHAR uni201E
ENCODING 8222
SWIDTH 1000 0
DWIDTH 8 0
BBX 6 3 0 1
BITMAP
6C
6C
D8
ENDCHAR
STARTCHAR uni2022
ENCODING 8226
SWIDTH 1000 0
DWIDTH 8 0
BBX 4 4 2 2
BITMAP
60
F0
F0
60
ENDCHAR
STARTCHAR uni2026
ENCODING 8230
SWIDTH 1000 0
DWIDTH 8 0
BBX 7 2 0 1
BITMAP
92
92
ENDCHAR
STARTCHAR uni2039
ENCODING 8249
SWIDTH 1000 0
DWIDTH 8 0
BBX 4 5 2 2
BITMAP
30
60
C0
60
30
ENDCHAR
STARTCHAR uni203A
ENCODING 8250
SWIDTH 1000 0
DWIDTH 8 0
BBX 4 5 1 2
BITMAP
C0
60
30
60
C0
ENDCHAR
STARTCHAR uni2044
ENCODING 8260
SWIDTH 1000 0
DWIDTH 8 0
BBX 7 7 0 1
BITMAP
02
04
08
10
20
40
80
ENDCHAR
STARTCHAR uni20AC
ENCODING 8364
SWIDTH 1000 0
DWIDTH 8 0
BBX 7 7 0 1
BITMAP
1C
36
F8
60
F8
36
1C
ENDCHAR
STARTCHAR uni2122
ENCODING 8482
SWIDTH 1000 0
DWIDTH 8 0
BBX 6 4 1 4
BITMAP
FC
5C
54
54
ENDCHAR
STARTCHAR uni2191
ENCODING 8593
SWIDTH 1000 0
DWIDTH 8 0
BBX 7 8 0 0
BITMAP
10
38
7C
FE
38
38
38
38
ENDCHAR
STARTCHAR uni2193
ENCODING 8595
SWIDTH 1000 0
DWIDTH 8 0
BBX 7 8 0 0
BITMAP
38
38
38
38
FE
7C
38
10
ENDCHAR
STARTCHAR uni2215
ENCODING 8725
SWIDTH 1000 0
DWIDTH 8 0
BBX 7 7 0 1
BITMAP
02
04
08
10
20
40
80
ENDCHAR
ENDFONT
