STARTFONT 2.1
FONT Bm437_Cordata_PPC-400-32px
SIZE 32 75 75
FONTBOUNDINGBOX 16 32 0 -8
STARTPROPERTIES 3
PIXEL_SIZE 32
FONT_ASCENT 24
FONT_DESCENT 8
ENDPROPERTIES
CHARS 295
STARTCHAR uni0000
ENCODING 0
SWIDTH 500 0
DWIDTH 16 0
BBX 16 32 0 -8
BITMAP
0000
0000
0000
0000
0000
0000
0000
0000
0000
0000
0000
0000
0000
0000
0000
0000
0000
0000
0000
0000
0000
0000
0000
0000
0000
0000
0000
0000
0000
0000
0000
0000
ENDCHAR
STARTCHAR uni0001
ENCODING 1
SWIDTH 500 0
DWIDTH 16 0
BBX 16 32 0 -8
BITMAP
0000
0000
1FF8
1FF8
381C
381C
300C
300C
366C
366C
300C
300C
300C
300C
300C
300C
37EC
37EC
318C
318C
381C
381C
1FF8
1FF8
0000
0000
0000
0000
0000
0000
0000
0000
ENDCHAR
STARTCHAR uni0002
ENCODING 2
SWIDTH 500 0
DWIDTH 16 0
BBX 16 32 0 -8
BITMAP
0000
0000
0FF0
0FF0
3FFC
3FFC
3FFC
3FFC
399C
399C
3FFC
3FFC
3FFC
3FFC
3FFC
3FFC
381C
381C
3E7C
3E7C
3FFC
3FFC
0FF0
0FF0
0000
0000
0000
0000
0000
0000
0000
0000
ENDCHAR
STARTCHAR uni0003
ENCODING 3
SWIDTH 500 0
DWIDTH 16 0
BBX 16 32 0 -8
BITMAP
0000
0000
0000
0000
0E70
0E70
1FF8
1FF8
3FFC
3FFC
3FFC
3FFC
3FFC
3FFC
1FF8
1FF8
0FF0
0FF0
07E0
07E0
03C0
03C0
0180
0180
0000
0000
0000
0000
0000
0000
0000
0000
ENDCHAR
STARTCHAR uni0004
ENCODING 4
SWIDTH 500 0
DWIDTH 16 0
BBX 16 32 0 -8
BITMAP
0000
0000
0000
0000
0180
0180
03C0
03C0
0FF0
0FF0
1FF8
1FF8
3FFC
3FFC
1FF8
1FF8
0FF0
0FF0
03C0
03C0
0180
0180
0000
0000
0000
0000
0000
0000
0000
0000
0000
0000
ENDCHAR
STARTCHAR uni0005
ENCODING 5
SWIDTH 500 0
DWIDTH 16 0
BBX 16 32 0 -8
BITMAP
0000
0000
03C0
03C0
07E0
07E0
07E0
07E0
03C0
03C0
399C
399C
7E7E
7E7E
7E7E
7E7E
399C
399C
03C0
03C0
03C0
03C0
07E0
07E0
0000
0000
0000
0000
0000
0000
0000
0000
ENDCHAR
STARTCHAR uni0006
ENCODING 6
SWIDTH 500 0
DWIDTH 16 0
BBX 16 32 0 -8
BITMAP
0000
0000
0180
0180
03C0
03C0
07E0
07E0
0FF0
0FF0
1FF8
1FF8
3FFC
3FFC
3FFC
3FFC
1FF8
1FF8
0180
0180
0180
0180
07E0
07E0
0000
0000
0000
0000
0000
0000
0000
0000
ENDCHAR
STARTCHAR uni0007
ENCODING 7
SWIDTH 500 0
DWIDTH 16 0
BBX 16 32 0 -8
BITMAP
0000
0000
0000
0000
0000
0000
0000
0000
0000
0000
0000
0000
07E0
07E0
0FF0
0FF0
0FF0
0FF0
07E0
07E0
0000
0000
0000
0000
0000
0000
0000
0000
0000
0000
0000
0000
ENDCHAR
STARTCHAR uni0008
ENCODING 8
SWIDTH 500 0
DWIDTH 16 0
BBX 16 32 0 -8
BITMAP
FFFF
FFFF
FFFF
FFFF
FFFF
FFFF
FFFF
FFFF
FFFF
FFFF
FFFF
FFFF
F81F
F81F
F00F
F00F
F00F
F00F
F81F
F81F
FFFF
FFFF
FFFF
FFFF
FFFF
FFFF
FFFF
FFFF
FFFF
FFFF
FFFF
FFFF
ENDCHAR
STARTCHAR uni0009
ENCODING 9
SWIDTH 500 0
DWIDTH 16 0
BBX 16 32 0 -8
BITMAP
0000
0000
0000
0000
0000
0000
0000
0000
0000
0000
07E0
07E0
1C38
1C38
300C
300C
300C
300C
1C38
1C38
07E0
07E0
0000
0000
0000
0000
0000
0000
0000
0000
0000
0000
ENDCHAR
STARTCHAR uni000A
ENCODING 10
SWIDTH 500 0
DWIDTH 16 0
BBX 16 32 0 -8
BITMAP
FFFF
FFFF
FFFF
FFFF
FFFF
FFFF
FFFF
FFFF
FFFF
FFFF
F81F
F81F
E7E7
E7E7
CFF3
CFF3
CFF3
CFF3
E7E7
E7E7
F81F
F81F
FFFF
FFFF
FFFF
FFFF
FFFF
FFFF
FFFF
FFFF
FFFF
FFFF
ENDCHAR
STARTCHAR uni000B
ENCODING 11
SWIDTH 500 0
DWIDTH 16 0
BBX 16 32 0 -8
BITMAP
0000
0000
03F0
03F0
00D8
00D8
0180
0180
0300
0300
0600
0600
0FC0
0FC0
1C70
1C70
3018
3018
3018
3018
1C70
1C70
07C0
07C0
0000
0000
0000
0000
0000
0000
0000
0000
ENDCHAR
STARTCHAR uni000C
ENCODING 12
SWIDTH 500 0
DWIDTH 16 0
BBX 16 32 0 -8
BITMAP
0000
0000
07E0
07E0
1C38
1C38
300C
300C
300C
300C
1C38
1C38
07E0
07E0
0180
0180
0180
0180
0FF0
0FF0
0180
0180
0180
0180
0000
0000
0000
0000
0000
0000
0000
0000
ENDCHAR
STARTCHAR uni000D
ENCODING 13
SWIDTH 500 0
DWIDTH 16 0
BBX 16 32 0 -8
BITMAP
0000
0000
01F0
01F0
0198
0198
018C
018C
018C
018C
0198
0198
0180
0180
0180
0180
1F80
1F80
3F80
3F80
3F80
3F80
1F00
1F00
0000
0000
0000
0000
0000
0000
0000
0000
ENDCHAR
STARTCHAR uni000E
ENCODING 14
SWIDTH 500 0
DWIDTH 16 0
BBX 16 32 0 -8
BITMAP
0000
0000
07C0
07C0
0670
0670
0618
0618
060C
060C
060C
060C
1E0C
1E0C
3E0C
3E0C
3E3C
3E3C
1C7C
1C7C
007C
007C
0038
0038
0000
0000
0000
0000
0000
0000
0000
0000
ENDCHAR
STARTCHAR uni000F
ENCODING 15
SWIDTH 500 0
DWIDTH 16 0
BBX 16 32 0 -8
BITMAP
0000
0000
0180
0180
0180
0180
0180
0180
399C
399C
03C0
03C0
3E7C
3E7C
03C0
03C0
399C
399C
0180
0180
0180
0180
0180
0180
0000
0000
0000
0000
0000
0000
0000
0000
ENDCHAR
STARTCHAR uni0010
ENCODING 16
SWIDTH 500 0
DWIDTH 16 0
BBX 16 32 0 -8
BITMAP
0000
0000
3000
3000
3C00
3C00
3F00
3F00
3FC0
3FC0
3FF0
3FF0
3FFC
3FFC
3FF0
3FF0
3FC0
3FC0
3F00
3F00
3C00
3C00
3000
3000
0000
0000
0000
0000
0000
0000
0000
0000
ENDCHAR
STARTCHAR uni0011
ENCODING 17
SWIDTH 500 0
DWIDTH 16 0
BBX 16 32 0 -8
BITMAP
0000
0000
000C
000C
003C
003C
00FC
00FC
03FC
03FC
0FFC
0FFC
3FFC
3FFC
0FFC
0FFC
03FC
03FC
00FC
00FC
003C
003C
000C
000C
0000
0000
0000
0000
0000
0000
0000
0000
ENDCHAR
STARTCHAR uni0012
ENCODING 18
SWIDTH 500 0
DWIDTH 16 0
BBX 16 32 0 -8
BITMAP
0000
0000
0180
0180
03C0
03C0
07E0
07E0
1FF8
1FF8
0180
0180
0180
0180
0180
0180
1FF8
1FF8
07E0
07E0
03C0
03C0
0180
0180
0000
0000
0000
0000
0000
0000
0000
0000
ENDCHAR
STARTCHAR uni0013
ENCODING 19
SWIDTH 500 0
DWIDTH 16 0
BBX 16 32 0 -8
BITMAP
0000
0000
1818
1818
1818
1818
1818
1818
1818
1818
1818
1818
1818
1818
1818
1818
1818
1818
0000
0000
1818
1818
1818
1818
0000
0000
0000
0000
0000
0000
0000
0000
ENDCHAR
STARTCHAR uni0014
ENCODING 20
SWIDTH 500 0
DWIDTH 16 0
BBX 16 32 0 -8
BITMAP
0000
0000
0FFE
0FFE
38CC
38CC
70CC
70CC
70CC
70CC
38CC
38CC
0FCC
0FCC
00CC
00CC
00CC
00CC
00CC
00CC
00CC
00CC
00CC
00CC
0000
0000
0000
0000
0000
0000
0000
0000
ENDCHAR
STARTCHAR uni0015
ENCODING 21
SWIDTH 500 0
DWIDTH 16 0
BBX 16 32 0 -8
BITMAP
03F0
03F0
0618
0618
0300
0300
0380
0380
07C0
07C0
0C60
0C60
1830
1830
1818
1818
0C0C
0C0C
060C
060C
0318
0318
01F0
01F0
00E0
00E0
0060
0060
0C30
0C30
07E0
07E0
ENDCHAR
STARTCHAR uni0016
ENCODING 22
SWIDTH 500 0
DWIDTH 16 0
BBX 16 32 0 -8
BITMAP
0000
0000
0000
0000
0000
0000
0000
0000
0000
0000
0000
0000
0000
0000
0000
0000
3FFC
3FFC
3FFC
3FFC
3FFC
3FFC
3FFC
3FFC
0000
0000
0000
0000
0000
0000
0000
0000
ENDCHAR
STARTCHAR uni0017
ENCODING 23
SWIDTH 500 0
DWIDTH 16 0
BBX 16 32 0 -8
BITMAP
0000
0000
0180
0180
03C0
03C0
07E0
07E0
1FF8
1FF8
0180
0180
0180
0180
0180
0180
1FF8
1FF8
07E0
07E0
03C0
03C0
0180
0180
1FF8
1FF8
0000
0000
0000
0000
0000
0000
ENDCHAR
STARTCHAR uni0018
ENCODING 24
SWIDTH 500 0
DWIDTH 16 0
BBX 16 32 0 -8
BITMAP
0000
0000
0180
0180
03C0
03C0
07E0
07E0
1FF8
1FF8
0180
0180
0180
0180
0180
0180
0180
0180
0180
0180
0180
0180
0180
0180
0000
0000
0000
0000
0000
0000
0000
0000
ENDCHAR
STARTCHAR uni0019
ENCODING 25
SWIDTH 500 0
DWIDTH 16 0
BBX 16 32 0 -8
BITMAP
0000
0000
0180
0180
0180
0180
0180
0180
0180
0180
0180
0180
0180
0180
0180
0180
1FF8
1FF8
07E0
07E0
03C0
03C0
0180
0180
0000
0000
0000
0000
0000
0000
0000
0000
ENDCHAR
STARTCHAR uni001A
ENCODING 26
SWIDTH 500 0
DWIDTH 16 0
BBX 16 32 0 -8
BITMAP
0000
0000
0000
0000
0000
0000
0300
0300
00C0
00C0
0030
0030
3FFC
3FFC
0030
0030
00C0
00C0
0300
0300
0000
0000
0000
0000
0000
0000
0000
0000
0000
0000
0000
0000
ENDCHAR
STARTCHAR uni001B
ENCODING 27
SWIDTH 500 0
DWIDTH 16 0
BBX 16 32 0 -8
BITMAP
0000
0000
0000
0000
0000
0000
00C0
00C0
0300
0300
0C00
0C00
3FFC
3FFC
0C00
0C00
0300
0300
00C0
00C0
0000
0000
0000
0000
0000
0000
0000
0000
0000
0000
0000
0000
ENDCHAR
STARTCHAR uni001C
ENCODING 28
SWIDTH 500 0
DWIDTH 16 0
BBX 16 32 0 -8
BITMAP
0000
0000
0000
0000
0000
0000
0000
0000
3000
3000
3000
3000
3000
3000
3000
3000
3FFC
3FFC
0000
0000
0000
0000
0000
0000
0000
0000
0000
0000
0000
0000
0000
0000
ENDCHAR
STARTCHAR uni001D
ENCODING 29
SWIDTH 500 0
DWIDTH 16 0
BBX 16 32 0 -8
BITMAP
0000
0000
0000
0000
0000
0000
0000
0000
0660
0660
1E78
1E78
7FFE
7FFE
1E78
1E78
0660
0660
0000
0000
0000
0000
0000
0000
0000
0000
0000
0000
0000
0000
0000
0000
ENDCHAR
STARTCHAR uni001E
ENCODING 30
SWIDTH 500 0
DWIDTH 16 0
BBX 16 32 0 -8
BITMAP
0000
0000
0000
0000
0000
0000
0180
0180
03C0
03C0
07E0
07E0
0FF0
0FF0
1FF8
1FF8
3FFC
3FFC
7FFE
7FFE
0000
0000
0000
0000
0000
0000
0000
0000
0000
0000
0000
0000
ENDCHAR
STARTCHAR uni001F
ENCODING 31
SWIDTH 500 0
DWIDTH 16 0
BBX 16 32 0 -8
BITMAP
0000
0000
0000
0000
0000
0000
7FFE
7FFE
3FFC
3FFC
1FF8
1FF8
0FF0
0FF0
07E0
07E0
03C0
03C0
0180
0180
0000
0000
0000
0000
0000
0000
0000
0000
0000
0000
0000
0000
ENDCHAR
STARTCHAR space
ENCODING 32
SWIDTH 500 0
DWIDTH 16 0
BBX 16 32 0 -8
BITMAP
0000
0000
0000
0000
0000
0000
0000
0000
0000
0000
0000
0000
0000
0000
0000
0000
0000
0000
0000
0000
0000
0000
0000
0000
0000
0000
0000
0000
0000
0000
0000
0000
ENDCHAR
STARTCHAR exclam
ENCODING 33
SWIDTH 500 0
DWIDTH 16 0
BBX 16 32 0 -8
BITMAP
0000
0000
0180
0180
03C0
03C0
03C0
03C0
03C0
03C0
03C0
03C0
0180
0180
0180
0180
0180
0180
0000
0000
0180
0180
0180
0180
0000
0000
0000
0000
0000
0000
0000
0000
ENDCHAR
STARTCHAR quotedbl
ENCODING 34
SWIDTH 500 0
DWIDTH 16 0
BBX 16 32 0 -8
BITMAP
0000
0000
1C38
1C38
1C38
1C38
0C30
0C30
0C30
0C30
0000
0000
0000
0000
0000
0000
0000
0000
0000
0000
0000
0000
0000
0000
0000
0000
0000
0000
0000
0000
0000
0000
ENDCHAR
STARTCHAR numbersign
ENCODING 35
SWIDTH 500 0
DWIDTH 16 0
BBX 16 32 0 -8
BITMAP
0000
0000
0033
0033
0066
0066
00CC
00CC
0FFE
0FFE
0330
0330
0660
0660
0CC0
0CC0
7FF0
7FF0
3300
3300
6600
6600
CC00
CC00
0000
0000
0000
0000
0000
0000
0000
0000
ENDCHAR
STARTCHAR dollar
ENCODING 36
SWIDTH 500 0
DWIDTH 16 0
BBX 16 32 0 -8
BITMAP
0000
0000
0180
0180
0FF0
0FF0
399E
399E
7180
7180
3980
3980
07F0
07F0
019C
019C
018E
018E
799C
799C
0FF0
0FF0
0180
0180
0000
0000
0000
0000
0000
0000
0000
0000
ENDCHAR
STARTCHAR percent
ENCODING 37
SWIDTH 500 0
DWIDTH 16 0
BBX 16 32 0 -8
BITMAP
0006
0006
01FC
01FC
3F18
3F18
6630
6630
6660
6660
3CC0
3CC0
0180
0180
033C
033C
0666
0666
0C66
0C66
183C
183C
3000
3000
6000
6000
0000
0000
0000
0000
0000
0000
ENDCHAR
STARTCHAR ampersand
ENCODING 38
SWIDTH 500 0
DWIDTH 16 0
BBX 16 32 0 -8
BITMAP
0000
0000
0FC0
0FC0
1860
1860
1860
1860
19C0
19C0
0F06
0F06
1E1E
1E1E
3330
3330
60C0
60C0
60C0
60C0
60E6
60E6
3F3E
3F3E
0000
0000
0000
0000
0000
0000
0000
0000
ENDCHAR
STARTCHAR quotesingle
ENCODING 39
SWIDTH 500 0
DWIDTH 16 0
BBX 16 32 0 -8
BITMAP
0000
0000
01C0
01C0
01C0
01C0
0180
0180
0300
0300
0000
0000
0000
0000
0000
0000
0000
0000
0000
0000
0000
0000
0000
0000
0000
0000
0000
0000
0000
0000
0000
0000
ENDCHAR
STARTCHAR parenleft
ENCODING 40
SWIDTH 500 0
DWIDTH 16 0
BBX 16 32 0 -8
BITMAP
0000
0000
0060
0060
00C0
00C0
0180
0180
0300
0300
0600
0600
0600
0600
0600
0600
0600
0600
0600
0600
0300
0300
0180
0180
00C0
00C0
0060
0060
0000
0000
0000
0000
ENDCHAR
STARTCHAR parenright
ENCODING 41
SWIDTH 500 0
DWIDTH 16 0
BBX 16 32 0 -8
BITMAP
0000
0000
0600
0600
0300
0300
0180
0180
00C0
00C0
0060
0060
0060
0060
0060
0060
0060
0060
0060
0060
00C0
00C0
0180
0180
0300
0300
0600
0600
0000
0000
0000
0000
ENDCHAR
STARTCHAR asterisk
ENCODING 42
SWIDTH 500 0
DWIDTH 16 0
BBX 16 32 0 -8
BITMAP
0000
0000
0000
0000
0C30
0C30
0660
0660
03C0
03C0
7FFE
7FFE
03C0
03C0
0660
0660
0C30
0C30
0000
0000
0000
0000
0000
0000
0000
0000
0000
0000
0000
0000
0000
0000
ENDCHAR
STARTCHAR plus
ENCODING 43
SWIDTH 500 0
DWIDTH 16 0
BBX 16 32 0 -8
BITMAP
0000
0000
0000
0000
0000
0000
0180
0180
0180
0180
0180
0180
7FFE
7FFE
0180
0180
0180
0180
0180
0180
0000
0000
0000
0000
0000
0000
0000
0000
0000
0000
0000
0000
ENDCHAR
STARTCHAR comma
ENCODING 44
SWIDTH 500 0
DWIDTH 16 0
BBX 16 32 0 -8
BITMAP
0000
0000
0000
0000
0000
0000
0000
0000
0000
0000
0000
0000
0000
0000
0000
0000
0000
0000
0000
0000
03C0
03C0
03C0
03C0
0180
0180
0300
0300
0600
0600
0000
0000
ENDCHAR
STARTCHAR hyphen
ENCODING 45
SWIDTH 500 0
DWIDTH 16 0
BBX 16 32 0 -8
BITMAP
0000
0000
0000
0000
0000
0000
0000
0000
0000
0000
0000
0000
0000
0000
0000
0000
3FFC
3FFC
0000
0000
0000
0000
0000
0000
0000
0000
0000
0000
0000
0000
0000
0000
ENDCHAR
STARTCHAR period
ENCODING 46
SWIDTH 500 0
DWIDTH 16 0
BBX 16 32 0 -8
BITMAP
0000
0000
0000
0000
0000
0000
0000
0000
0000
0000
0000
0000
0000
0000
0000
0000
0000
0000
0000
0000
03C0
03C0
03C0
03C0
0000
0000
0000
0000
0000
0000
0000
0000
ENDCHAR
STARTCHAR slash
ENCODING 47
SWIDTH 500 0
DWIDTH 16 0
BBX 16 32 0 -8
BITMAP
0006
0006
000C
000C
0018
0018
0030
0030
0060
0060
00C0
00C0
0180
0180
0300
0300
0600
0600
0C00
0C00
1800
1800
3000
3000
6000
6000
0000
0000
0000
0000
0000
0000
ENDCHAR
STARTCHAR zero
ENCODING 48
SWIDTH 500 0
DWIDTH 16 0
BBX 16 32 0 -8
BITMAP
000C
000C
07F8
07F8
1C38
1C38
306C
306C
30CC
30CC
318C
318C
330C
330C
360C
360C
3C0C
3C0C
380C
380C
3C38
3C38
67E0
67E0
0000
0000
0000
0000
0000
0000
0000
0000
ENDCHAR
STARTCHAR one
ENCODING 49
SWIDTH 500 0
DWIDTH 16 0
BBX 16 32 0 -8
BITMAP
0000
0000
0380
0380
0780
0780
0D80
0D80
0180
0180
0180
0180
0180
0180
0180
0180
0180
0180
0180
0180
0180
0180
0180
0180
0000
0000
0000
0000
0000
0000
0000
0000
ENDCHAR
STARTCHAR two
ENCODING 50
SWIDTH 500 0
DWIDTH 16 0
BBX 16 32 0 -8
BITMAP
0000
0000
07E0
07E0
1C38
1C38
380C
380C
000C
000C
0018
0018
0060
0060
0180
0180
0600
0600
180C
180C
300C
300C
3FFC
3FFC
0000
0000
0000
0000
0000
0000
0000
0000
ENDCHAR
STARTCHAR three
ENCODING 51
SWIDTH 500 0
DWIDTH 16 0
BBX 16 32 0 -8
BITMAP
0000
0000
3FFC
3FFC
3038
3038
00E0
00E0
0380
0380
0FE0
0FE0
0038
0038
001C
001C
001C
001C
0038
0038
01E0
01E0
0F00
0F00
7800
7800
0000
0000
0000
0000
0000
0000
ENDCHAR
STARTCHAR four
ENCODING 52
SWIDTH 500 0
DWIDTH 16 0
BBX 16 32 0 -8
BITMAP
0000
0000
00E0
00E0
01E0
01E0
0360
0360
0660
0660
0C60
0C60
1860
1860
3060
3060
7FFC
7FFC
0060
0060
0060
0060
0060
0060
0060
0060
0000
0000
0000
0000
0000
0000
ENDCHAR
STARTCHAR five
ENCODING 53
SWIDTH 500 0
DWIDTH 16 0
BBX 16 32 0 -8
BITMAP
0000
0000
3FFC
3FFC
3000
3000
3000
3000
3000
3000
3FE0
3FE0
3838
3838
001C
001C
001C
001C
0038
0038
01E0
01E0
0F00
0F00
7800
7800
0000
0000
0000
0000
0000
0000
ENDCHAR
STARTCHAR six
ENCODING 54
SWIDTH 500 0
DWIDTH 16 0
BBX 16 32 0 -8
BITMAP
00F0
00F0
0380
0380
0E00
0E00
1C00
1C00
3800
3800
3FE0
3FE0
3838
3838
300C
300C
300C
300C
300C
300C
1C38
1C38
07E0
07E0
0000
0000
0000
0000
0000
0000
0000
0000
ENDCHAR
STARTCHAR seven
ENCODING 55
SWIDTH 500 0
DWIDTH 16 0
BBX 16 32 0 -8
BITMAP
0000
0000
3FFC
3FFC
300C
300C
000C
000C
0018
0018
0030
0030
0060
0060
00C0
00C0
0180
0180
0180
0180
0180
0180
0180
0180
0000
0000
0000
0000
0000
0000
0000
0000
ENDCHAR
STARTCHAR eight
ENCODING 56
SWIDTH 500 0
DWIDTH 16 0
BBX 16 32 0 -8
BITMAP
0000
0000
07E0
07E0
1818
1818
300C
300C
300C
300C
1818
1818
0FF0
0FF0
1818
1818
300C
300C
300C
300C
1818
1818
07E0
07E0
0000
0000
0000
0000
0000
0000
0000
0000
ENDCHAR
STARTCHAR nine
ENCODING 57
SWIDTH 500 0
DWIDTH 16 0
BBX 16 32 0 -8
BITMAP
0000
0000
07E0
07E0
1C38
1C38
300C
300C
300C
300C
300C
300C
1C1C
1C1C
07FC
07FC
001C
001C
0038
0038
0070
0070
01C0
01C0
0F00
0F00
0000
0000
0000
0000
0000
0000
ENDCHAR
STARTCHAR colon
ENCODING 58
SWIDTH 500 0
DWIDTH 16 0
BBX 16 32 0 -8
BITMAP
0000
0000
0000
0000
0000
0000
0000
0000
0000
0000
03C0
03C0
03C0
03C0
0000
0000
0000
0000
0000
0000
03C0
03C0
03C0
03C0
0000
0000
0000
0000
0000
0000
0000
0000
ENDCHAR
STARTCHAR semicolon
ENCODING 59
SWIDTH 500 0
DWIDTH 16 0
BBX 16 32 0 -8
BITMAP
0000
0000
0000
0000
0000
0000
0000
0000
0000
0000
03C0
03C0
03C0
03C0
0000
0000
0000
0000
0000
0000
03C0
03C0
03C0
03C0
0180
0180
0300
0300
0600
0600
0000
0000
ENDCHAR
STARTCHAR less
ENCODING 60
SWIDTH 500 0
DWIDTH 16 0
BBX 16 32 0 -8
BITMAP
0000
0000
000C
000C
0030
0030
00C0
00C0
0300
0300
0C00
0C00
3000
3000
0C00
0C00
0300
0300
00C0
00C0
0030
0030
000C
000C
0000
0000
0000
0000
0000
0000
0000
0000
ENDCHAR
STARTCHAR equal
ENCODING 61
SWIDTH 500 0
DWIDTH 16 0
BBX 16 32 0 -8
BITMAP
0000
0000
0000
0000
0000
0000
0000
0000
0000
0000
3FFC
3FFC
0000
0000
0000
0000
3FFC
3FFC
0000
0000
0000
0000
0000
0000
0000
0000
0000
0000
0000
0000
0000
0000
ENDCHAR
STARTCHAR greater
ENCODING 62
SWIDTH 500 0
DWIDTH 16 0
BBX 16 32 0 -8
BITMAP
0000
0000
3000
3000
0C00
0C00
0300
0300
00C0
00C0
0030
0030
000C
000C
0030
0030
00C0
00C0
0300
0300
0C00
0C00
3000
3000
0000
0000
0000
0000
0000
0000
0000
0000
ENDCHAR
STARTCHAR question
ENCODING 63
SWIDTH 500 0
DWIDTH 16 0
BBX 16 32 0 -8
BITMAP
0000
0000
0FF0
0FF0
381C
381C
380E
380E
000C
000C
0018
0018
0060
0060
0180
0180
0180
0180
0000
0000
0180
0180
0180
0180
0000
0000
0000
0000
0000
0000
0000
0000
ENDCHAR
STARTCHAR at
ENCODING 64
SWIDTH 500 0
DWIDTH 16 0
BBX 16 32 0 -8
BITMAP
0000
0000
07E0
07E0
1C38
1C38
380C
380C
31FC
31FC
330C
330C
330C
330C
330C
330C
31F8
31F8
3000
3000
1C1C
1C1C
07F8
07F8
0000
0000
0000
0000
0000
0000
0000
0000
ENDCHAR
STARTCHAR A
ENCODING 65
SWIDTH 500 0
DWIDTH 16 0
BBX 16 32 0 -8
BITMAP
0000
0000
0F80
0F80
03C0
03C0
0660
0660
0660
0660
0C30
0C30
0C30
0C30
1818
1818
1FF8
1FF8
300C
300C
300C
300C
781E
781E
0000
0000
0000
0000
0000
0000
0000
0000
ENDCHAR
STARTCHAR B
ENCODING 66
SWIDTH 500 0
DWIDTH 16 0
BBX 16 32 0 -8
BITMAP
0000
0000
7FF0
7FF0
1818
1818
180C
180C
180C
180C
1818
1818
1FF0
1FF0
1818
1818
180C
180C
180C
180C
1818
1818
7FF0
7FF0
0000
0000
0000
0000
0000
0000
0000
0000
ENDCHAR
STARTCHAR C
ENCODING 67
SWIDTH 500 0
DWIDTH 16 0
BBX 16 32 0 -8
BITMAP
0000
0000
03FE
03FE
0E06
0E06
1806
1806
3000
3000
3000
3000
3000
3000
3000
3000
3006
3006
1806
1806
0E0C
0E0C
03F8
03F8
0000
0000
0000
0000
0000
0000
0000
0000
ENDCHAR
STARTCHAR D
ENCODING 68
SWIDTH 500 0
DWIDTH 16 0
BBX 16 32 0 -8
BITMAP
0000
0000
7FC0
7FC0
1870
1870
1818
1818
180C
180C
180C
180C
180C
180C
180C
180C
180C
180C
1818
1818
1870
1870
7FC0
7FC0
0000
0000
0000
0000
0000
0000
0000
0000
ENDCHAR
STARTCHAR E
ENCODING 69
SWIDTH 500 0
DWIDTH 16 0
BBX 16 32 0 -8
BITMAP
0000
0000
7FFC
7FFC
180C
180C
180C
180C
1800
1800
18C0
18C0
1FC0
1FC0
18C0
18C0
1800
1800
180C
180C
180C
180C
7FFC
7FFC
0000
0000
0000
0000
0000
0000
0000
0000
ENDCHAR
STARTCHAR F
ENCODING 70
SWIDTH 500 0
DWIDTH 16 0
BBX 16 32 0 -8
BITMAP
0000
0000
7FFC
7FFC
180C
180C
180C
180C
1800
1800
18C0
18C0
1FC0
1FC0
18C0
18C0
1800
1800
1800
1800
1800
1800
7E00
7E00
0000
0000
0000
0000
0000
0000
0000
0000
ENDCHAR
STARTCHAR G
ENCODING 71
SWIDTH 500 0
DWIDTH 16 0
BBX 16 32 0 -8
BITMAP
0000
0000
03FC
03FC
0E0C
0E0C
180C
180C
3000
3000
3000
3000
3000
3000
307E
307E
300C
300C
180C
180C
0E0C
0E0C
03FC
03FC
0000
0000
0000
0000
0000
0000
0000
0000
ENDCHAR
STARTCHAR H
ENCODING 72
SWIDTH 500 0
DWIDTH 16 0
BBX 16 32 0 -8
BITMAP
0000
0000
781E
781E
300C
300C
300C
300C
300C
300C
300C
300C
3FFC
3FFC
300C
300C
300C
300C
300C
300C
300C
300C
781E
781E
0000
0000
0000
0000
0000
0000
0000
0000
ENDCHAR
STARTCHAR I
ENCODING 73
SWIDTH 500 0
DWIDTH 16 0
BBX 16 32 0 -8
BITMAP
0000
0000
0FF0
0FF0
0180
0180
0180
0180
0180
0180
0180
0180
0180
0180
0180
0180
0180
0180
0180
0180
0180
0180
0FF0
0FF0
0000
0000
0000
0000
0000
0000
0000
0000
ENDCHAR
STARTCHAR J
ENCODING 74
SWIDTH 500 0
DWIDTH 16 0
BBX 16 32 0 -8
BITMAP
0000
0000
01FE
01FE
0030
0030
0030
0030
0030
0030
0030
0030
0030
0030
0030
0030
6030
6030
6030
6030
3070
3070
0FC0
0FC0
0000
0000
0000
0000
0000
0000
0000
0000
ENDCHAR
STARTCHAR K
ENCODING 75
SWIDTH 500 0
DWIDTH 16 0
BBX 16 32 0 -8
BITMAP
0000
0000
783E
783E
3038
3038
30E0
30E0
3380
3380
3F00
3F00
3F80
3F80
30C0
30C0
3060
3060
3030
3030
301C
301C
783E
783E
0000
0000
0000
0000
0000
0000
0000
0000
ENDCHAR
STARTCHAR L
ENCODING 76
SWIDTH 500 0
DWIDTH 16 0
BBX 16 32 0 -8
BITMAP
0000
0000
7E00
7E00
1800
1800
1800
1800
1800
1800
1800
1800
1800
1800
1800
1800
1800
1800
180C
180C
181C
181C
7FFC
7FFC
0000
0000
0000
0000
0000
0000
0000
0000
ENDCHAR
STARTCHAR M
ENCODING 77
SWIDTH 500 0
DWIDTH 16 0
BBX 16 32 0 -8
BITMAP
0000
0000
781E
781E
3C3C
3C3C
366C
366C
37EC
37EC
33CC
33CC
318C
318C
300C
300C
300C
300C
300C
300C
300C
300C
781E
781E
0000
0000
0000
0000
0000
0000
0000
0000
ENDCHAR
STARTCHAR N
ENCODING 78
SWIDTH 500 0
DWIDTH 16 0
BBX 16 32 0 -8
BITMAP
0000
0000
781E
781E
3C0C
3C0C
3E0C
3E0C
370C
370C
338C
338C
31CC
31CC
30EC
30EC
307C
307C
303C
303C
301C
301C
780C
780C
0000
0000
0000
0000
0000
0000
0000
0000
ENDCHAR
STARTCHAR O
ENCODING 79
SWIDTH 500 0
DWIDTH 16 0
BBX 16 32 0 -8
BITMAP
0000
0000
07E0
07E0
1C38
1C38
300C
300C
6006
6006
6006
6006
6006
6006
6006
6006
6006
6006
300C
300C
1C38
1C38
07E0
07E0
0000
0000
0000
0000
0000
0000
0000
0000
ENDCHAR
STARTCHAR P
ENCODING 80
SWIDTH 500 0
DWIDTH 16 0
BBX 16 32 0 -8
BITMAP
0000
0000
7FE0
7FE0
3038
3038
301C
301C
301C
301C
3038
3038
3FE0
3FE0
3000
3000
3000
3000
3000
3000
3000
3000
7800
7800
0000
0000
0000
0000
0000
0000
0000
0000
ENDCHAR
STARTCHAR Q
ENCODING 81
SWIDTH 500 0
DWIDTH 16 0
BBX 16 32 0 -8
BITMAP
0000
0000
07E0
07E0
1C38
1C38
300C
300C
6006
6006
6006
6006
6006
6006
6006
6006
6006
6006
338C
338C
1CF8
1CF8
07E0
07E0
0030
0030
001C
001C
0000
0000
0000
0000
ENDCHAR
STARTCHAR R
ENCODING 82
SWIDTH 500 0
DWIDTH 16 0
BBX 16 32 0 -8
BITMAP
0000
0000
7FF0
7FF0
3018
3018
300C
300C
300C
300C
3018
3018
3FF0
3FF0
3060
3060
3030
3030
3018
3018
3018
3018
781E
781E
0000
0000
0000
0000
0000
0000
0000
0000
ENDCHAR
STARTCHAR S
ENCODING 83
SWIDTH 500 0
DWIDTH 16 0
BBX 16 32 0 -8
BITMAP
0000
0000
07F8
07F8
1C38
1C38
3818
3818
3800
3800
1E00
1E00
03C0
03C0
0078
0078
001C
001C
301C
301C
3C38
3C38
3FE0
3FE0
0000
0000
0000
0000
0000
0000
0000
0000
ENDCHAR
STARTCHAR T
ENCODING 84
SWIDTH 500 0
DWIDTH 16 0
BBX 16 32 0 -8
BITMAP
0000
0000
7FFE
7FFE
718E
718E
6186
6186
0180
0180
0180
0180
0180
0180
0180
0180
0180
0180
0180
0180
0180
0180
07E0
07E0
0000
0000
0000
0000
0000
0000
0000
0000
ENDCHAR
STARTCHAR U
ENCODING 85
SWIDTH 500 0
DWIDTH 16 0
BBX 16 32 0 -8
BITMAP
0000
0000
781E
781E
300C
300C
300C
300C
300C
300C
300C
300C
300C
300C
300C
300C
300C
300C
300C
300C
1C38
1C38
07E0
07E0
0000
0000
0000
0000
0000
0000
0000
0000
ENDCHAR
STARTCHAR V
ENCODING 86
SWIDTH 500 0
DWIDTH 16 0
BBX 16 32 0 -8
BITMAP
0000
0000
781E
781E
300C
300C
300C
300C
1818
1818
1818
1818
0C30
0C30
0C30
0C30
0660
0660
0660
0660
03C0
03C0
0180
0180
0000
0000
0000
0000
0000
0000
0000
0000
ENDCHAR
STARTCHAR W
ENCODING 87
SWIDTH 500 0
DWIDTH 16 0
BBX 16 32 0 -8
BITMAP
0000
0000
781E
781E
300C
300C
300C
300C
300C
300C
300C
300C
318C
318C
33CC
33CC
37EC
37EC
366C
366C
3C3C
3C3C
381C
381C
0000
0000
0000
0000
0000
0000
0000
0000
ENDCHAR
STARTCHAR X
ENCODING 88
SWIDTH 500 0
DWIDTH 16 0
BBX 16 32 0 -8
BITMAP
0000
0000
7C3E
7C3E
1818
1818
0C30
0C30
0660
0660
03C0
03C0
0180
0180
03C0
03C0
0660
0660
0C30
0C30
1818
1818
7C3E
7C3E
0000
0000
0000
0000
0000
0000
0000
0000
ENDCHAR
STARTCHAR Y
ENCODING 89
SWIDTH 500 0
DWIDTH 16 0
BBX 16 32 0 -8
BITMAP
0000
0000
7C3E
7C3E
1818
1818
0C30
0C30
0660
0660
03C0
03C0
0180
0180
0180
0180
0180
0180
0180
0180
0180
0180
07E0
07E0
0000
0000
0000
0000
0000
0000
0000
0000
ENDCHAR
STARTCHAR Z
ENCODING 90
SWIDTH 500 0
DWIDTH 16 0
BBX 16 32 0 -8
BITMAP
0000
0000
3FFC
3FFC
3818
3818
3030
3030
0060
0060
00C0
00C0
0180
0180
0300
0300
0600
0600
0C0C
0C0C
181C
181C
3FFC
3FFC
0000
0000
0000
0000
0000
0000
0000
0000
ENDCHAR
STARTCHAR bracketleft
ENCODING 91
SWIDTH 500 0
DWIDTH 16 0
BBX 16 32 0 -8
BITMAP
0FF0
0FF0
0C00
0C00
0C00
0C00
0C00
0C00
0C00
0C00
0C00
0C00
0C00
0C00
0C00
0C00
0C00
0C00
0C00
0C00
0C00
0C00
0C00
0C00
0FF0
0FF0
0000
0000
0000
0000
0000
0000
ENDCHAR
STARTCHAR backslash
ENCODING 92
SWIDTH 500 0
DWIDTH 16 0
BBX 16 32 0 -8
BITMAP
6000
6000
3000
3000
1800
1800
0C00
0C00
0600
0600
0300
0300
0180
0180
00C0
00C0
0060
0060
0030
0030
0018
0018
000C
000C
0006
0006
0000
0000
0000
0000
0000
0000
ENDCHAR
STARTCHAR bracketright
ENCODING 93
SWIDTH 500 0
DWIDTH 16 0
BBX 16 32 0 -8
BITMAP
0FF0
0FF0
0030
0030
0030
0030
0030
0030
0030
0030
0030
0030
0030
0030
0030
0030
0030
0030
0030
0030
0030
0030
0030
0030
0FF0
0FF0
0000
0000
0000
0000
0000
0000
ENDCHAR
STARTCHAR asciicircum
ENCODING 94
SWIDTH 500 0
DWIDTH 16 0
BBX 16 32 0 -8
BITMAP
0000
0000
0180
0180
0660
0660
1818
1818
0000
0000
0000
0000
0000
0000
0000
0000
0000
0000
0000
0000
0000
0000
0000
0000
0000
0000
0000
0000
0000
0000
0000
0000
ENDCHAR
STARTCHAR underscore
ENCODING 95
SWIDTH 500 0
DWIDTH 16 0
BBX 16 32 0 -8
BITMAP
0000
0000
0000
0000
0000
0000
0000
0000
0000
0000
0000
0000
0000
0000
0000
0000
0000
0000
0000
0000
0000
0000
0000
0000
0000
0000
0000
0000
0000
0000
3FFC
3FFC
ENDCHAR
STARTCHAR grave
ENCODING 96
SWIDTH 500 0
DWIDTH 16 0
BBX 16 32 0 -8
BITMAP
0000
0000
0380
0380
0380
0380
0180
0180
00C0
00C0
0000
0000
0000
0000
0000
0000
0000
0000
0000
0000
0000
0000
0000
0000
0000
0000
0000
0000
0000
0000
0000
0000
ENDCHAR
STARTCHAR a
ENCODING 97
SWIDTH 500 0
DWIDTH 16 0
BBX 16 32 0 -8
BITMAP
0000
0000
0000
0000
0000
0000
0000
0000
1FE0
1FE0
7070
7070
0030
0030
0FF0
0FF0
3830
3830
6030
6030
7076
7076
1FDE
1FDE
0000
0000
0000
0000
0000
0000
0000
0000
ENDCHAR
STARTCHAR b
ENCODING 98
SWIDTH 500 0
DWIDTH 16 0
BBX 16 32 0 -8
BITMAP
0000
0000
7800
7800
1800
1800
1800
1800
1BE0
1BE0
1E38
1E38
180C
180C
180C
180C
180C
180C
180C
180C
1E38
1E38
1BE0
1BE0
0000
0000
0000
0000
0000
0000
0000
0000
ENDCHAR
STARTCHAR c
ENCODING 99
SWIDTH 500 0
DWIDTH 16 0
BBX 16 32 0 -8
BITMAP
0000
0000
0000
0000
0000
0000
0000
0000
07F0
07F0
1C3C
1C3C
300C
300C
3000
3000
3000
3000
3000
3000
1C1C
1C1C
07E0
07E0
0000
0000
0000
0000
0000
0000
0000
0000
ENDCHAR
STARTCHAR d
ENCODING 100
SWIDTH 500 0
DWIDTH 16 0
BBX 16 32 0 -8
BITMAP
0000
0000
0078
0078
0018
0018
0018
0018
07D8
07D8
1C78
1C78
3018
3018
3018
3018
3018
3018
3018
3018
1C78
1C78
07EE
07EE
0000
0000
0000
0000
0000
0000
0000
0000
ENDCHAR
STARTCHAR e
ENCODING 101
SWIDTH 500 0
DWIDTH 16 0
BBX 16 32 0 -8
BITMAP
0000
0000
0000
0000
0000
0000
0000
0000
07E0
07E0
1C38
1C38
300C
300C
3FFC
3FFC
3000
3000
3000
3000
1C1C
1C1C
07F0
07F0
0000
0000
0000
0000
0000
0000
0000
0000
ENDCHAR
STARTCHAR f
ENCODING 102
SWIDTH 500 0
DWIDTH 16 0
BBX 16 32 0 -8
BITMAP
0000
0000
01F8
01F8
039C
039C
031C
031C
0300
0300
1FE0
1FE0
0300
0300
0300
0300
0300
0300
0300
0300
0300
0300
1FE0
1FE0
0000
0000
0000
0000
0000
0000
0000
0000
ENDCHAR
STARTCHAR g
ENCODING 103
SWIDTH 500 0
DWIDTH 16 0
BBX 16 32 0 -8
BITMAP
0000
0000
0000
0000
0000
0000
0000
0000
07FC
07FC
1C3C
1C3C
1830
1830
1C70
1C70
0FC0
0FC0
3800
3800
3000
3000
1FF0
1FF0
381C
381C
700E
700E
381C
381C
0FF0
0FF0
ENDCHAR
STARTCHAR h
ENCODING 104
SWIDTH 500 0
DWIDTH 16 0
BBX 16 32 0 -8
BITMAP
0000
0000
7000
7000
3000
3000
3000
3000
37E0
37E0
3C38
3C38
380C
380C
300C
300C
300C
300C
300C
300C
300C
300C
781E
781E
0000
0000
0000
0000
0000
0000
0000
0000
ENDCHAR
STARTCHAR i
ENCODING 105
SWIDTH 500 0
DWIDTH 16 0
BBX 16 32 0 -8
BITMAP
0000
0000
0380
0380
0380
0380
0000
0000
0F80
0F80
0180
0180
0180
0180
0180
0180
0180
0180
0180
0180
0180
0180
0FF0
0FF0
0000
0000
0000
0000
0000
0000
0000
0000
ENDCHAR
STARTCHAR j
ENCODING 106
SWIDTH 500 0
DWIDTH 16 0
BBX 16 32 0 -8
BITMAP
0000
0000
00E0
00E0
00E0
00E0
0000
0000
07E0
07E0
0060
0060
0060
0060
0060
0060
0060
0060
0060
0060
0060
0060
0060
0060
7060
7060
70E0
70E0
39C0
39C0
1F80
1F80
ENDCHAR
STARTCHAR k
ENCODING 107
SWIDTH 500 0
DWIDTH 16 0
BBX 16 32 0 -8
BITMAP
0000
0000
7000
7000
3000
3000
3000
3000
307C
307C
3070
3070
31C0
31C0
3780
3780
3CC0
3CC0
3060
3060
3030
3030
787C
787C
0000
0000
0000
0000
0000
0000
0000
0000
ENDCHAR
STARTCHAR l
ENCODING 108
SWIDTH 500 0
DWIDTH 16 0
BBX 16 32 0 -8
BITMAP
0000
0000
0F80
0F80
0180
0180
0180
0180
0180
0180
0180
0180
0180
0180
0180
0180
0180
0180
0180
0180
0180
0180
0FF0
0FF0
0000
0000
0000
0000
0000
0000
0000
0000
ENDCHAR
STARTCHAR m
ENCODING 109
SWIDTH 500 0
DWIDTH 16 0
BBX 16 32 0 -8
BITMAP
0000
0000
0000
0000
0000
0000
0000
0000
6E78
6E78
39CC
39CC
318C
318C
318C
318C
318C
318C
318C
318C
318C
318C
7BDE
7BDE
0000
0000
0000
0000
0000
0000
0000
0000
ENDCHAR
STARTCHAR n
ENCODING 110
SWIDTH 500 0
DWIDTH 16 0
BBX 16 32 0 -8
BITMAP
0000
0000
0000
0000
0000
0000
0000
0000
77F0
77F0
1C1C
1C1C
180C
180C
180C
180C
180C
180C
180C
180C
180C
180C
3C1E
3C1E
0000
0000
0000
0000
0000
0000
0000
0000
ENDCHAR
STARTCHAR o
ENCODING 111
SWIDTH 500 0
DWIDTH 16 0
BBX 16 32 0 -8
BITMAP
0000
0000
0000
0000
0000
0000
0000
0000
07E0
07E0
1C38
1C38
300C
300C
300C
300C
300C
300C
300C
300C
1C38
1C38
07E0
07E0
0000
0000
0000
0000
0000
0000
0000
0000
ENDCHAR
STARTCHAR p
ENCODING 112
SWIDTH 500 0
DWIDTH 16 0
BBX 16 32 0 -8
BITMAP
0000
0000
0000
0000
0000
0000
0000
0000
77E0
77E0
3C38
3C38
300C
300C
300C
300C
300C
300C
300C
300C
3C38
3C38
37E0
37E0
3000
3000
3000
3000
3000
3000
7800
7800
ENDCHAR
STARTCHAR q
ENCODING 113
SWIDTH 500 0
DWIDTH 16 0
BBX 16 32 0 -8
BITMAP
0000
0000
0000
0000
0000
0000
0000
0000
07EC
07EC
1C3C
1C3C
301C
301C
300C
300C
300C
300C
300C
300C
1C3C
1C3C
07EC
07EC
000C
000C
000C
000C
000C
000C
001E
001E
ENDCHAR
STARTCHAR r
ENCODING 114
SWIDTH 500 0
DWIDTH 16 0
BBX 16 32 0 -8
BITMAP
0000
0000
0000
0000
0000
0000
0000
0000
77F8
77F8
1C1C
1C1C
1800
1800
1800
1800
1800
1800
1800
1800
1800
1800
7E00
7E00
0000
0000
0000
0000
0000
0000
0000
0000
ENDCHAR
STARTCHAR s
ENCODING 115
SWIDTH 500 0
DWIDTH 16 0
BBX 16 32 0 -8
BITMAP
0000
0000
0000
0000
0000
0000
0000
0000
0FE0
0FE0
3838
3838
3800
3800
0FE0
0FE0
0038
0038
001C
001C
3838
3838
0FE0
0FE0
0000
0000
0000
0000
0000
0000
0000
0000
ENDCHAR
STARTCHAR t
ENCODING 116
SWIDTH 500 0
DWIDTH 16 0
BBX 16 32 0 -8
BITMAP
0000
0000
0600
0600
0600
0600
0600
0600
7FF0
7FF0
0600
0600
0600
0600
0600
0600
0600
0600
0618
0618
0738
0738
01E0
01E0
0000
0000
0000
0000
0000
0000
0000
0000
ENDCHAR
STARTCHAR u
ENCODING 117
SWIDTH 500 0
DWIDTH 16 0
BBX 16 32 0 -8
BITMAP
0000
0000
0000
0000
0000
0000
0000
0000
701C
701C
300C
300C
300C
300C
300C
300C
300C
300C
301C
301C
183C
183C
0FEE
0FEE
0000
0000
0000
0000
0000
0000
0000
0000
ENDCHAR
STARTCHAR v
ENCODING 118
SWIDTH 500 0
DWIDTH 16 0
BBX 16 32 0 -8
BITMAP
0000
0000
0000
0000
0000
0000
0000
0000
781E
781E
300C
300C
300C
300C
1818
1818
0C30
0C30
0660
0660
03C0
03C0
0180
0180
0000
0000
0000
0000
0000
0000
0000
0000
ENDCHAR
STARTCHAR w
ENCODING 119
SWIDTH 500 0
DWIDTH 16 0
BBX 16 32 0 -8
BITMAP
0000
0000
0000
0000
0000
0000
0000
0000
F00F
F00F
6006
6006
6006
6006
318C
318C
318C
318C
1998
1998
1BD8
1BD8
0E70
0E70
0000
0000
0000
0000
0000
0000
0000
0000
ENDCHAR
STARTCHAR x
ENCODING 120
SWIDTH 500 0
DWIDTH 16 0
BBX 16 32 0 -8
BITMAP
0000
0000
0000
0000
0000
0000
0000
0000
7C3E
7C3E
381C
381C
0E70
0E70
03C0
03C0
07E0
07E0
0E70
0E70
381C
381C
7C3E
7C3E
0000
0000
0000
0000
0000
0000
0000
0000
ENDCHAR
STARTCHAR y
ENCODING 121
SWIDTH 500 0
DWIDTH 16 0
BBX 16 32 0 -8
BITMAP
0000
0000
0000
0000
0000
0000
0000
0000
7C3E
7C3E
1818
1818
0C18
0C18
0630
0630
0330
0330
01E0
01E0
00E0
00E0
00C0
00C0
30C0
30C0
3180
3180
1F00
1F00
0000
0000
ENDCHAR
STARTCHAR z
ENCODING 122
SWIDTH 500 0
DWIDTH 16 0
BBX 16 32 0 -8
BITMAP
0000
0000
0000
0000
0000
0000
0000
0000
3FFC
3FFC
301C
301C
3038
3038
00E0
00E0
0380
0380
0E0C
0E0C
380C
380C
3FFC
3FFC
0000
0000
0000
0000
0000
0000
0000
0000
ENDCHAR
STARTCHAR braceleft
ENCODING 123
SWIDTH 500 0
DWIDTH 16 0
BBX 16 32 0 -8
BITMAP
01F0
01F0
0380
0380
0300
0300
0300
0300
0300
0300
0700
0700
1E00
1E00
0700
0700
0300
0300
0300
0300
0300
0300
0380
0380
01F0
01F0
0000
0000
0000
0000
0000
0000
ENDCHAR
STARTCHAR bar
ENCODING 124
SWIDTH 500 0
DWIDTH 16 0
BBX 16 32 0 -8
BITMAP
0180
0180
0180
0180
0180
0180
0180
0180
0180
0180
0180
0180
0000
0000
0180
0180
0180
0180
0180
0180
0180
0180
0180
0180
0180
0180
0000
0000
0000
0000
0000
0000
ENDCHAR
STARTCHAR braceright
ENCODING 125
SWIDTH 500 0
DWIDTH 16 0
BBX 16 32 0 -8
BITMAP
0F80
0F80
01C0
01C0
00C0
00C0
00C0
00C0
00C0
00C0
00E0
00E0
0078
0078
00E0
00E0
00C0
00C0
00C0
00C0
00C0
00C0
01C0
01C0
0F80
0F80
0000
0000
0000
0000
0000
0000
ENDCHAR
STARTCHAR asciitilde
ENCODING 126
SWIDTH 500 0
DWIDTH 16 0
BBX 16 32 0 -8
BITMAP
1E00
1E00
73CE
73CE
0078
0078
0000
0000
0000
0000
0000
0000
0000
0000
0000
0000
0000
0000
0000
0000
0000
0000
0000
0000
0000
0000
0000
0000
0000
0000
0000
0000
ENDCHAR
STARTCHAR uni007F
ENCODING 127
SWIDTH 500 0
DWIDTH 16 0
BBX 16 32 0 -8
BITMAP
0000
0000
0000
0000
0000
0000
0180
0180
03C0
03C0
0660
0660
0C30
0C30
1818
1818
300C
300C
300C
300C
3FFC
3FFC
0000
0000
0000
0000
0000
0000
0000
0000
0000
0000
ENDCHAR
STARTCHAR uni00A0
ENCODING 160
SWIDTH 500 0
DWIDTH 16 0
BBX 16 32 0 -8
BITMAP
0000
0000
0000
0000
0000
0000
0000
0000
0000
0000
0000
0000
0000
0000
0000
0000
0000
0000
0000
0000
0000
0000
0000
0000
0000
0000
0000
0000
0000
0000
0000
0000
ENDCHAR
STARTCHAR exclamdown
ENCODING 161
SWIDTH 500 0
DWIDTH 16 0
BBX 16 32 0 -8
BITMAP
0000
0000
0180
0180
0180
0180
0000
0000
0180
0180
0180
0180
0180
0180
03C0
03C0
07E0
07E0
07E0
07E0
03C0
03C0
0180
0180
0000
0000
0000
0000
0000
0000
0000
0000
ENDCHAR
STARTCHAR cent
ENCODING 162
SWIDTH 500 0
DWIDTH 16 0
BBX 16 32 0 -8
BITMAP
0000
0000
0180
0180
0180
0180
0180
0180
07E0
07E0
1C38
1C38
300C
300C
3000
3000
3000
3000
300C
300C
1C38
1C38
07E0
07E0
0180
0180
0180
0180
0180
0180
0000
0000
ENDCHAR
STARTCHAR sterling
ENCODING 163
SWIDTH 500 0
DWIDTH 16 0
BBX 16 32 0 -8
BITMAP
0000
0000
01F0
01F0
071C
071C
0600
0600
0600
0600
1F80
1F80
0600
0600
0600
0600
1E00
1E00
6600
6600
670C
670C
3FF8
3FF8
0000
0000
0000
0000
0000
0000
0000
0000
ENDCHAR
STARTCHAR yen
ENCODING 165
SWIDTH 500 0
DWIDTH 16 0
BBX 16 32 0 -8
BITMAP
0000
0000
0000
0000
6006
6006
1818
1818
0660
0660
0180
0180
1FF8
1FF8
0180
0180
1FF8
1FF8
0180
0180
0180
0180
0180
0180
0000
0000
0000
0000
0000
0000
0000
0000
ENDCHAR
STARTCHAR section
ENCODING 167
SWIDTH 500 0
DWIDTH 16 0
BBX 16 32 0 -8
BITMAP
03F0
03F0
0618
0618
0300
0300
0380
0380
07C0
07C0
0C60
0C60
1830
1830
1818
1818
0C0C
0C0C
060C
060C
0318
0318
01F0
01F0
00E0
00E0
0060
0060
0C30
0C30
07E0
07E0
ENDCHAR
STARTCHAR ordfeminine
ENCODING 170
SWIDTH 500 0
DWIDTH 16 0
BBX 16 32 0 -8
BITMAP
0000
0000
03E0
03E0
0C30
0C30
0C30
0C30
0C30
0C30
03F8
03F8
0000
0000
0FF8
0FF8
0000
0000
0000
0000
0000
0000
0000
0000
0000
0000
0000
0000
0000
0000
0000
0000
ENDCHAR
STARTCHAR guillemotleft
ENCODING 171
SWIDTH 500 0
DWIDTH 16 0
BBX 16 32 0 -8
BITMAP
0000
0000
0000
0000
0000
0000
0000
0000
030C
030C
0C30
0C30
30C0
30C0
0C30
0C30
030C
030C
0000
0000
0000
0000
0000
0000
0000
0000
0000
0000
0000
0000
0000
0000
ENDCHAR
STARTCHAR logicalnot
ENCODING 172
SWIDTH 500 0
DWIDTH 16 0
BBX 16 32 0 -8
BITMAP
0000
0000
0000
0000
0000
0000
0000
0000
0000
0000
0000
0000
3FFC
3FFC
000C
000C
000C
000C
000C
000C
000C
000C
0000
0000
0000
0000
0000
0000
0000
0000
0000
0000
ENDCHAR
STARTCHAR degree
ENCODING 176
SWIDTH 500 0
DWIDTH 16 0
BBX 16 32 0 -8
BITMAP
0000
0000
0780
0780
1860
1860
3030
3030
1860
1860
0780
0780
0000
0000
0000
0000
0000
0000
0000
0000
0000
0000
0000
0000
0000
0000
0000
0000
0000
0000
0000
0000
ENDCHAR
STARTCHAR plusminus
ENCODING 177
SWIDTH 500 0
DWIDTH 16 0
BBX 16 32 0 -8
BITMAP
0000
0000
0000
0000
0180
0180
0180
0180
0180
0180
3FFC
3FFC
0180
0180
0180
0180
0180
0180
0000
0000
3FFC
3FFC
0000
0000
0000
0000
0000
0000
0000
0000
0000
0000
ENDCHAR
STARTCHAR uni00B2
ENCODING 178
SWIDTH 500 0
DWIDTH 16 0
BBX 16 32 0 -8
BITMAP
0000
0000
0F80
0F80
3060
3060
0180
0180
0600
0600
1800
1800
3FC0
3FC0
0000
0000
0000
0000
0000
0000
0000
0000
0000
0000
0000
0000
0000
0000
0000
0000
0000
0000
ENDCHAR
STARTCHAR mu
ENCODING 181
SWIDTH 500 0
DWIDTH 16 0
BBX 16 32 0 -8
BITMAP
0000
0000
0000
0000
0000
0000
0000
0000
0000
0000
0C18
0C18
0C18
0C18
0C18
0C18
0C18
0C18
0C18
0C18
0E38
0E38
0FFC
0FFC
0C00
0C00
1800
1800
3000
3000
0000
0000
ENDCHAR
STARTCHAR paragraph
ENCODING 182
SWIDTH 500 0
DWIDTH 16 0
BBX 16 32 0 -8
BITMAP
0000
0000
0FFE
0FFE
38CC
38CC
70CC
70CC
70CC
70CC
38CC
38CC
0FCC
0FCC
00CC
00CC
00CC
00CC
00CC
00CC
00CC
00CC
00CC
00CC
0000
0000
0000
0000
0000
0000
0000
0000
ENDCHAR
STARTCHAR periodcentered
ENCODING 183
SWIDTH 500 0
DWIDTH 16 0
BBX 16 32 0 -8
BITMAP
0000
0000
0000
0000
0000
0000
0000
0000
0000
0000
0000
0000
0000
0000
0000
0000
03C0
03C0
0000
0000
0000
0000
0000
0000
0000
0000
0000
0000
0000
0000
0000
0000
ENDCHAR
STARTCHAR ordmasculine
ENCODING 186
SWIDTH 500 0
DWIDTH 16 0
BBX 16 32 0 -8
BITMAP
0000
0000
03E0
03E0
0C18
0C18
0C18
0C18
0C18
0C18
03E0
03E0
0000
0000
0FF8
0FF8
0000
0000
0000
0000
0000
0000
0000
0000
0000
0000
0000
0000
0000
0000
0000
0000
ENDCHAR
STARTCHAR guillemotright
ENCODING 187
SWIDTH 500 0
DWIDTH 16 0
BBX 16 32 0 -8
BITMAP
0000
0000
0000
0000
0000
0000
0000
0000
30C0
30C0
0C30
0C30
030C
030C
0C30
0C30
30C0
30C0
0000
0000
0000
0000
0000
0000
0000
0000
0000
0000
0000
0000
0000
0000
ENDCHAR
STARTCHAR onequarter
ENCODING 188
SWIDTH 500 0
DWIDTH 16 0
BBX 16 32 0 -8
BITMAP
0000
0000
1C00
1C00
0C00
0C00
0C0C
0C0C
0C30
0C30
00C0
00C0
0318
0318
0C38
0C38
30D8
30D8
01FC
01FC
0018
0018
0018
0018
0000
0000
0000
0000
0000
0000
0000
0000
ENDCHAR
STARTCHAR onehalf
ENCODING 189
SWIDTH 500 0
DWIDTH 16 0
BBX 16 32 0 -8
BITMAP
0000
0000
1C00
1C00
0C00
0C00
0C0C
0C0C
0C30
0C30
00C0
00C0
0300
0300
0C70
0C70
318C
318C
0018
0018
0060
0060
00FC
00FC
0000
0000
0000
0000
0000
0000
0000
0000
ENDCHAR
STARTCHAR questiondown
ENCODING 191
SWIDTH 500 0
DWIDTH 16 0
BBX 16 32 0 -8
BITMAP
0000
0000
0180
0180
0180
0180
0000
0000
0180
0180
0180
0180
0300
0300
0C00
0C00
300C
300C
300C
300C
300C
300C
1FF0
1FF0
0000
0000
0000
0000
0000
0000
0000
0000
ENDCHAR
STARTCHAR Adieresis
ENCODING 196
SWIDTH 500 0
DWIDTH 16 0
BBX 16 32 0 -8
BITMAP
381C
381C
03C0
03C0
0660
0660
0C30
0C30
1818
1818
300C
300C
300C
300C
3FFC
3FFC
300C
300C
300C
300C
300C
300C
300C
300C
0000
0000
0000
0000
0000
0000
0000
0000
ENDCHAR
STARTCHAR Aring
ENCODING 197
SWIDTH 500 0
DWIDTH 16 0
BBX 16 32 0 -8
BITMAP
03C0
03C0
0C30
0C30
03C0
03C0
0000
0000
03C0
03C0
0660
0660
0C30
0C30
1818
1818
1FF8
1FF8
1818
1818
1818
1818
1818
1818
0000
0000
0000
0000
0000
0000
0000
0000
ENDCHAR
STARTCHAR AE
ENCODING 198
SWIDTH 500 0
DWIDTH 16 0
BBX 16 32 0 -8
BITMAP
0000
0000
03FE
03FE
06C0
06C0
0CC0
0CC0
18C0
18C0
30FE
30FE
7FC0
7FC0
60C0
60C0
60C0
60C0
60C0
60C0
60C0
60C0
60FE
60FE
0000
0000
0000
0000
0000
0000
0000
0000
ENDCHAR
STARTCHAR Ccedilla
ENCODING 199
SWIDTH 500 0
DWIDTH 16 0
BBX 16 32 0 -8
BITMAP
0000
0000
03FC
03FC
0E1C
0E1C
180C
180C
300C
300C
3000
3000
3000
3000
3000
3000
300C
300C
180C
180C
0E38
0E38
03F0
03F0
0030
0030
0018
0018
0018
0018
03F0
03F0
ENDCHAR
STARTCHAR Eacute
ENCODING 201
SWIDTH 500 0
DWIDTH 16 0
BBX 16 32 0 -8
BITMAP
0000
0000
0060
0060
0180
0180
0600
0600
0000
0000
1FF0
1FF0
1800
1800
1800
1800
1FF0
1FF0
1800
1800
1800
1800
1FF0
1FF0
0000
0000
0000
0000
0000
0000
0000
0000
ENDCHAR
STARTCHAR Ntilde
ENCODING 209
SWIDTH 500 0
DWIDTH 16 0
BBX 16 32 0 -8
BITMAP
0600
0600
1998
1998
0060
0060
0000
0000
3C0C
3C0C
360C
360C
330C
330C
318C
318C
30CC
30CC
306C
306C
303C
303C
301C
301C
0000
0000
0000
0000
0000
0000
0000
0000
ENDCHAR
STARTCHAR Odieresis
ENCODING 214
SWIDTH 500 0
DWIDTH 16 0
BBX 16 32 0 -8
BITMAP
1C38
1C38
0000
0000
07E0
07E0
1C38
1C38
300C
300C
300C
300C
300C
300C
300C
300C
300C
300C
300C
300C
1C38
1C38
07E0
07E0
0000
0000
0000
0000
0000
0000
0000
0000
ENDCHAR
STARTCHAR Udieresis
ENCODING 220
SWIDTH 500 0
DWIDTH 16 0
BBX 16 32 0 -8
BITMAP
0000
0000
1C38
1C38
0000
0000
300C
300C
300C
300C
300C
300C
300C
300C
300C
300C
300C
300C
300C
300C
1818
1818
07E0
07E0
0000
0000
0000
0000
0000
0000
0000
0000
ENDCHAR
STARTCHAR germandbls
ENCODING 223
SWIDTH 500 0
DWIDTH 16 0
BBX 16 32 0 -8
BITMAP
0000
0000
0000
0000
0000
0000
1FC0
1FC0
3030
3030
3018
3018
3FF0
3FF0
3018
3018
3018
3018
3018
3018
3FF0
3FF0
3000
3000
3000
3000
0000
0000
0000
0000
0000
0000
ENDCHAR
STARTCHAR agrave
ENCODING 224
SWIDTH 500 0
DWIDTH 16 0
BBX 16 32 0 -8
BITMAP
0C00
0C00
0300
0300
00C0
00C0
0000
0000
1FE0
1FE0
7070
7070
0030
0030
0FF0
0FF0
3830
3830
6030
6030
7076
7076
1FDE
1FDE
0000
0000
0000
0000
0000
0000
0000
0000
ENDCHAR
STARTCHAR aacute
ENCODING 225
SWIDTH 500 0
DWIDTH 16 0
BBX 16 32 0 -8
BITMAP
00C0
00C0
0300
0300
0C00
0C00
0000
0000
1FE0
1FE0
7070
7070
0030
0030
0FF0
0FF0
3830
3830
6030
6030
7076
7076
1FDE
1FDE
0000
0000
0000
0000
0000
0000
0000
0000
ENDCHAR
STARTCHAR acircumflex
ENCODING 226
SWIDTH 500 0
DWIDTH 16 0
BBX 16 32 0 -8
BITMAP
0300
0300
0CC0
0CC0
3030
3030
0000
0000
1FE0
1FE0
7070
7070
0030
0030
0FF0
0FF0
3830
3830
6030
6030
7076
7076
1FDE
1FDE
0000
0000
0000
0000
0000
0000
0000
0000
ENDCHAR
STARTCHAR adieresis
ENCODING 228
SWIDTH 500 0
DWIDTH 16 0
BBX 16 32 0 -8
BITMAP
0000
0000
0000
0000
3870
3870
0000
0000
1FE0
1FE0
7070
7070
0030
0030
0FF0
0FF0
3830
3830
6030
6030
7076
7076
1FDE
1FDE
0000
0000
0000
0000
0000
0000
0000
0000
ENDCHAR
STARTCHAR aring
ENCODING 229
SWIDTH 500 0
DWIDTH 16 0
BBX 16 32 0 -8
BITMAP
0780
0780
1860
1860
0780
0780
0000
0000
1FE0
1FE0
7070
7070
0030
0030
0FF0
0FF0
3830
3830
6030
6030
7076
7076
1FDE
1FDE
0000
0000
0000
0000
0000
0000
0000
0000
ENDCHAR
STARTCHAR ae
ENCODING 230
SWIDTH 500 0
DWIDTH 16 0
BBX 16 32 0 -8
BITMAP
0000
0000
0000
0000
0000
0000
0000
0000
7E78
7E78
0186
0186
0186
0186
1FFE
1FFE
6180
6180
6180
6180
6180
6180
1E7E
1E7E
0000
0000
0000
0000
0000
0000
0000
0000
ENDCHAR
STARTCHAR ccedilla
ENCODING 231
SWIDTH 500 0
DWIDTH 16 0
BBX 16 32 0 -8
BITMAP
0000
0000
0000
0000
0000
0000
0000
0000
07E0
07E0
1C38
1C38
300C
300C
3000
3000
3000
3000
300C
300C
1C38
1C38
07E0
07E0
00E0
00E0
0030
0030
0030
0030
03E0
03E0
ENDCHAR
STARTCHAR egrave
ENCODING 232
SWIDTH 500 0
DWIDTH 16 0
BBX 16 32 0 -8
BITMAP
0600
0600
0180
0180
0060
0060
0000
0000
07E0
07E0
1C38
1C38
300C
300C
3FFC
3FFC
3000
3000
3000
3000
1C1C
1C1C
07F0
07F0
0000
0000
0000
0000
0000
0000
0000
0000
ENDCHAR
STARTCHAR eacute
ENCODING 233
SWIDTH 500 0
DWIDTH 16 0
BBX 16 32 0 -8
BITMAP
0060
0060
0180
0180
0600
0600
0000
0000
07E0
07E0
1C38
1C38
300C
300C
3FFC
3FFC
3000
3000
3000
3000
1C1C
1C1C
07F0
07F0
0000
0000
0000
0000
0000
0000
0000
0000
ENDCHAR
STARTCHAR ecircumflex
ENCODING 234
SWIDTH 500 0
DWIDTH 16 0
BBX 16 32 0 -8
BITMAP
0180
0180
0660
0660
1818
1818
0000
0000
07E0
07E0
1C38
1C38
300C
300C
3FFC
3FFC
3000
3000
3000
3000
1C1C
1C1C
07F0
07F0
0000
0000
0000
0000
0000
0000
0000
0000
ENDCHAR
STARTCHAR edieresis
ENCODING 235
SWIDTH 500 0
DWIDTH 16 0
BBX 16 32 0 -8
BITMAP
0000
0000
0000
0000
1C38
1C38
0000
0000
07E0
07E0
1C38
1C38
300C
300C
3FFC
3FFC
3000
3000
3000
3000
1C1C
1C1C
07F0
07F0
0000
0000
0000
0000
0000
0000
0000
0000
ENDCHAR
STARTCHAR igrave
ENCODING 236
SWIDTH 500 0
DWIDTH 16 0
BBX 16 32 0 -8
BITMAP
1800
1800
0600
0600
0180
0180
0000
0000
0F80
0F80
0180
0180
0180
0180
0180
0180
0180
0180
0180
0180
0180
0180
0FF0
0FF0
0000
0000
0000
0000
0000
0000
0000
0000
ENDCHAR
STARTCHAR iacute
ENCODING 237
SWIDTH 500 0
DWIDTH 16 0
BBX 16 32 0 -8
BITMAP
0180
0180
0600
0600
1800
1800
0000
0000
0F80
0F80
0180
0180
0180
0180
0180
0180
0180
0180
0180
0180
0180
0180
0FF0
0FF0
0000
0000
0000
0000
0000
0000
0000
0000
ENDCHAR
STARTCHAR icircumflex
ENCODING 238
SWIDTH 500 0
DWIDTH 16 0
BBX 16 32 0 -8
BITMAP
0300
0300
0CC0
0CC0
3030
3030
0000
0000
0F80
0F80
0180
0180
0180
0180
0180
0180
0180
0180
0180
0180
0180
0180
0FF0
0FF0
0000
0000
0000
0000
0000
0000
0000
0000
ENDCHAR
STARTCHAR idieresis
ENCODING 239
SWIDTH 500 0
DWIDTH 16 0
BBX 16 32 0 -8
BITMAP
0000
0000
0000
0000
38E0
38E0
0000
0000
0F80
0F80
0180
0180
0180
0180
0180
0180
0180
0180
0180
0180
0180
0180
0FF0
0FF0
0000
0000
0000
0000
0000
0000
0000
0000
ENDCHAR
STARTCHAR ntilde
ENCODING 241
SWIDTH 500 0
DWIDTH 16 0
BBX 16 32 0 -8
BITMAP
0600
0600
1998
1998
0060
0060
0000
0000
77F0
77F0
1C1C
1C1C
180C
180C
180C
180C
180C
180C
180C
180C
180C
180C
3C1E
3C1E
0000
0000
0000
0000
0000
0000
0000
0000
ENDCHAR
STARTCHAR ograve
ENCODING 242
SWIDTH 500 0
DWIDTH 16 0
BBX 16 32 0 -8
BITMAP
0600
0600
0180
0180
0060
0060
0000
0000
07E0
07E0
1C38
1C38
300C
300C
300C
300C
300C
300C
300C
300C
1C38
1C38
07E0
07E0
0000
0000
0000
0000
0000
0000
0000
0000
ENDCHAR
STARTCHAR oacute
ENCODING 243
SWIDTH 500 0
DWIDTH 16 0
BBX 16 32 0 -8
BITMAP
0060
0060
0180
0180
0600
0600
0000
0000
07E0
07E0
1C38
1C38
300C
300C
300C
300C
300C
300C
300C
300C
1C38
1C38
07E0
07E0
0000
0000
0000
0000
0000
0000
0000
0000
ENDCHAR
STARTCHAR ocircumflex
ENCODING 244
SWIDTH 500 0
DWIDTH 16 0
BBX 16 32 0 -8
BITMAP
0180
0180
0660
0660
1818
1818
0000
0000
07E0
07E0
1C38
1C38
300C
300C
300C
300C
300C
300C
300C
300C
1C38
1C38
07E0
07E0
0000
0000
0000
0000
0000
0000
0000
0000
ENDCHAR
STARTCHAR odieresis
ENCODING 246
SWIDTH 500 0
DWIDTH 16 0
BBX 16 32 0 -8
BITMAP
0000
0000
0000
0000
1C38
1C38
0000
0000
07E0
07E0
1C38
1C38
300C
300C
300C
300C
300C
300C
300C
300C
1C38
1C38
07E0
07E0
0000
0000
0000
0000
0000
0000
0000
0000
ENDCHAR
STARTCHAR divide
ENCODING 247
SWIDTH 500 0
DWIDTH 16 0
BBX 16 32 0 -8
BITMAP
0000
0000
0000
0000
0000
0000
0000
0000
03C0
03C0
03C0
03C0
0000
0000
3FFC
3FFC
0000
0000
03C0
03C0
03C0
03C0
0000
0000
0000
0000
0000
0000
0000
0000
0000
0000
ENDCHAR
STARTCHAR ugrave
ENCODING 249
SWIDTH 500 0
DWIDTH 16 0
BBX 16 32 0 -8
BITMAP
0600
0600
0180
0180
0060
0060
0000
0000
701C
701C
300C
300C
300C
300C
300C
300C
300C
300C
301C
301C
183C
183C
0FEE
0FEE
0000
0000
0000
0000
0000
0000
0000
0000
ENDCHAR
STARTCHAR uacute
ENCODING 250
SWIDTH 500 0
DWIDTH 16 0
BBX 16 32 0 -8
BITMAP
0060
0060
0180
0180
0600
0600
0000
0000
701C
701C
300C
300C
300C
300C
300C
300C
300C
300C
301C
301C
183C
183C
0FEE
0FEE
0000
0000
0000
0000
0000
0000
0000
0000
ENDCHAR
STARTCHAR ucircumflex
ENCODING 251
SWIDTH 500 0
DWIDTH 16 0
BBX 16 32 0 -8
BITMAP
0180
0180
0660
0660
1818
1818
0000
0000
701C
701C
300C
300C
300C
300C
300C
300C
300C
300C
301C
301C
183C
183C
0FEE
0FEE
0000
0000
0000
0000
0000
0000
0000
0000
ENDCHAR
STARTCHAR udieresis
ENCODING 252
SWIDTH 500 0
DWIDTH 16 0
BBX 16 32 0 -8
BITMAP
0000
0000
0000
0000
1C70
1C70
0000
0000
701C
701C
300C
300C
300C
300C
300C
300C
300C
300C
301C
301C
183C
183C
0FEE
0FEE
0000
0000
0000
0000
0000
0000
0000
0000
ENDCHAR
STARTCHAR ydieresis
ENCODING 255
SWIDTH 500 0
DWIDTH 16 0
BBX 16 32 0 -8
BITMAP
0000
0000
0000
0000
1C38
1C38
0000
0000
7C3E
7C3E
1818
1818
0C18
0C18
0630
0630
0330
0330
01E0
01E0
00E0
00E0
00C0
00C0
30C0
30C0
3180
3180
1F00
1F00
0000
0000
ENDCHAR
STARTCHAR florin
ENCODING 402
SWIDTH 500 0
DWIDTH 16 0
BBX 16 32 0 -8
BITMAP
0000
0000
00F0
00F0
019C
019C
0180
0180
0180
0180
0180
0180
0180
0180
0FF0
0FF0
0180
0180
0180
0180
0180
0180
0180
0180
0180
0180
3980
3980
0F00
0F00
0000
0000
ENDCHAR
STARTCHAR Gamma
ENCODING 915
SWIDTH 500 0
DWIDTH 16 0
BBX 16 32 0 -8
BITMAP
0000
0000
3FFC
3FFC
300C
300C
3000
3000
3000
3000
3000
3000
3000
3000
3000
3000
3000
3000
3000
3000
3000
3000
3000
3000
0000
0000
0000
0000
0000
0000
0000
0000
ENDCHAR
STARTCHAR Theta
ENCODING 920
SWIDTH 500 0
DWIDTH 16 0
BBX 16 32 0 -8
BITMAP
0000
0000
03C0
03C0
0E70
0E70
1818
1818
300C
300C
300C
300C
3FFC
3FFC
300C
300C
300C
300C
1818
1818
0E70
0E70
03C0
03C0
0000
0000
0000
0000
0000
0000
0000
0000
ENDCHAR
STARTCHAR Sigma
ENCODING 931
SWIDTH 500 0
DWIDTH 16 0
BBX 16 32 0 -8
BITMAP
0000
0000
3FFC
3FFC
300C
300C
1800
1800
0C00
0C00
0600
0600
0300
0300
0600
0600
0C00
0C00
1800
1800
300C
300C
3FFC
3FFC
0000
0000
0000
0000
0000
0000
0000
0000
ENDCHAR
STARTCHAR Phi
ENCODING 934
SWIDTH 500 0
DWIDTH 16 0
BBX 16 32 0 -8
BITMAP
0000
0000
3FFC
3FFC
0180
0180
0180
0180
0FF0
0FF0
1998
1998
318C
318C
1998
1998
0FF0
0FF0
0180
0180
0180
0180
3FFC
3FFC
0000
0000
0000
0000
0000
0000
0000
0000
ENDCHAR
STARTCHAR uni03A9
ENCODING 937
SWIDTH 500 0
DWIDTH 16 0
BBX 16 32 0 -8
BITMAP
0000
0000
07E0
07E0
1C38
1C38
300C
300C
300C
300C
300C
300C
1818
1818
0C30
0C30
0660
0660
0660
0660
0660
0660
3E7C
3E7C
0000
0000
0000
0000
0000
0000
0000
0000
ENDCHAR
STARTCHAR alpha
ENCODING 945
SWIDTH 500 0
DWIDTH 16 0
BBX 16 32 0 -8
BITMAP
0000
0000
0000
0000
0000
0000
0000
0000
07CC
07CC
1C78
1C78
3030
3030
3030
3030
3030
3030
3030
3030
1C78
1C78
07CC
07CC
0000
0000
0000
0000
0000
0000
0000
0000
ENDCHAR
STARTCHAR delta
ENCODING 948
SWIDTH 500 0
DWIDTH 16 0
BBX 16 32 0 -8
BITMAP
0000
0000
03E0
03E0
0638
0638
0600
0600
0300
0300
01C0
01C0
0070
0070
0FF8
0FF8
381C
381C
300C
300C
381C
381C
0FF0
0FF0
0000
0000
0000
0000
0000
0000
0000
0000
ENDCHAR
STARTCHAR epsilon
ENCODING 949
SWIDTH 500 0
DWIDTH 16 0
BBX 16 32 0 -8
BITMAP
0000
0000
00F0
00F0
0380
0380
0600
0600
0C00
0C00
0C00
0C00
0FF0
0FF0
0C00
0C00
0C00
0C00
0600
0600
0380
0380
00F0
00F0
0000
0000
0000
0000
0000
0000
0000
0000
ENDCHAR
STARTCHAR pi
ENCODING 960
SWIDTH 500 0
DWIDTH 16 0
BBX 16 32 0 -8
BITMAP
0000
0000
0000
0000
0000
0000
0000
0000
1FFC
1FFC
3330
3330
0330
0330
0330
0330
0330
0330
0330
0330
0330
0330
0330
0330
0000
0000
0000
0000
0000
0000
0000
0000
ENDCHAR
STARTCHAR sigma
ENCODING 963
SWIDTH 500 0
DWIDTH 16 0
BBX 16 32 0 -8
BITMAP
0000
0000
0000
0000
0000
0000
0000
0000
07FE
07FE
1C70
1C70
3018
3018
3018
3018
3018
3018
3018
3018
1C70
1C70
07C0
07C0
0000
0000
0000
0000
0000
0000
0000
0000
ENDCHAR
STARTCHAR tau
ENCODING 964
SWIDTH 500 0
DWIDTH 16 0
BBX 16 32 0 -8
BITMAP
0000
0000
0000
0000
0000
0000
0000
0000
1F3C
1F3C
31E0
31E0
00C0
00C0
00C0
00C0
00C0
00C0
00C0
00C0
00C0
00C0
0060
0060
0000
0000
0000
0000
0000
0000
0000
0000
ENDCHAR
STARTCHAR phi
ENCODING 966
SWIDTH 500 0
DWIDTH 16 0
BBX 16 32 0 -8
BITMAP
0000
0000
0000
0000
0018
0018
0030
0030
0FF0
0FF0
38CC
38CC
318C
318C
330C
330C
361C
361C
0FF0
0FF0
1800
1800
3000
3000
0000
0000
0000
0000
0000
0000
0000
0000
ENDCHAR
STARTCHAR bullet
ENCODING 8226
SWIDTH 500 0
DWIDTH 16 0
BBX 16 32 0 -8
BITMAP
0000
0000
0000
0000
0000
0000
0000
0000
0000
0000
0000
0000
07E0
07E0
0FF0
0FF0
0FF0
0FF0
07E0
07E0
0000
0000
0000
0000
0000
0000
0000
0000
0000
0000
0000
0000
ENDCHAR
STARTCHAR exclamdbl
ENCODING 8252
SWIDTH 500 0
DWIDTH 16 0
BBX 16 32 0 -8
BITMAP
0000
0000
1818
1818
1818
1818
1818
1818
1818
1818
1818
1818
1818
1818
1818
1818
1818
1818
0000
0000
1818
1818
1818
1818
0000
0000
0000
0000
0000
0000
0000
0000
ENDCHAR
STARTCHAR uni207F
ENCODING 8319
SWIDTH 500 0
DWIDTH 16 0
BBX 16 32 0 -8
BITMAP
0000
0000
3BE0
3BE0
0E38
0E38
0C18
0C18
0C18
0C18
0C18
0C18
0C18
0C18
0000
0000
0000
0000
0000
0000
0000
0000
0000
0000
0000
0000
0000
0000
0000
0000
0000
0000
ENDCHAR
STARTCHAR peseta
ENCODING 8359
SWIDTH 500 0
DWIDTH 16 0
BBX 16 32 0 -8
BITMAP
0000
0000
3F80
3F80
30E0
30E0
3070
3070
30E0
30E0
3F80
3F80
3030
3030
3030
3030
30FC
30FC
3030
3030
3030
3030
301C
301C
0000
0000
0000
0000
0000
0000
0000
0000
ENDCHAR
STARTCHAR arrowleft
ENCODING 8592
SWIDTH 500 0
DWIDTH 16 0
BBX 16 32 0 -8
BITMAP
0000
0000
0000
0000
0000
0000
00C0
00C0
0300
0300
0C00
0C00
3FFC
3FFC
0C00
0C00
0300
0300
00C0
00C0
0000
0000
0000
0000
0000
0000
0000
0000
0000
0000
0000
0000
ENDCHAR
STARTCHAR arrowup
ENCODING 8593
SWIDTH 500 0
DWIDTH 16 0
BBX 16 32 0 -8
BITMAP
0000
0000
0180
0180
03C0
03C0
07E0
07E0
1FF8
1FF8
0180
0180
0180
0180
0180
0180
0180
0180
0180
0180
0180
0180
0180
0180
0000
0000
0000
0000
0000
0000
0000
0000
ENDCHAR
STARTCHAR arrowright
ENCODING 8594
SWIDTH 500 0
DWIDTH 16 0
BBX 16 32 0 -8
BITMAP
0000
0000
0000
0000
0000
0000
0300
0300
00C0
00C0
0030
0030
3FFC
3FFC
0030
0030
00C0
00C0
0300
0300
0000
0000
0000
0000
0000
0000
0000
0000
0000
0000
0000
0000
ENDCHAR
STARTCHAR arrowdown
ENCODING 8595
SWIDTH 500 0
DWIDTH 16 0
BBX 16 32 0 -8
BITMAP
0000
0000
0180
0180
0180
0180
0180
0180
0180
0180
0180
0180
0180
0180
0180
0180
1FF8
1FF8
07E0
07E0
03C0
03C0
0180
0180
0000
0000
0000
0000
0000
0000
0000
0000
ENDCHAR
STARTCHAR arrowboth
ENCODING 8596
SWIDTH 500 0
DWIDTH 16 0
BBX 16 32 0 -8
BITMAP
0000
0000
0000
0000
0000
0000
0000
0000
0660
0660
1E78
1E78
7FFE
7FFE
1E78
1E78
0660
0660
0000
0000
0000
0000
0000
0000
0000
0000
0000
0000
0000
0000
0000
0000
ENDCHAR
STARTCHAR arrowupdn
ENCODING 8597
SWIDTH 500 0
DWIDTH 16 0
BBX 16 32 0 -8
BITMAP
0000
0000
0180
0180
03C0
03C0
07E0
07E0
1FF8
1FF8
0180
0180
0180
0180
0180
0180
1FF8
1FF8
07E0
07E0
03C0
03C0
0180
0180
0000
0000
0000
0000
0000
0000
0000
0000
ENDCHAR
STARTCHAR arrowupdnbse
ENCODING 8616
SWIDTH 500 0
DWIDTH 16 0
BBX 16 32 0 -8
BITMAP
0000
0000
0180
0180
03C0
03C0
07E0
07E0
1FF8
1FF8
0180
0180
0180
0180
0180
0180
1FF8
1FF8
07E0
07E0
03C0
03C0
0180
0180
1FF8
1FF8
0000
0000
0000
0000
0000
0000
ENDCHAR
STARTCHAR uni2219
ENCODING 8729
SWIDTH 500 0
DWIDTH 16 0
BBX 16 32 0 -8
BITMAP
0000
0000
0000
0000
0000
0000
0000
0000
0000
0000
0000
0000
0000
0000
03C0
03C0
03C0
03C0
0000
0000
0000
0000
0000
0000
0000
0000
0000
0000
0000
0000
0000
0000
ENDCHAR
STARTCHAR radical
ENCODING 8730
SWIDTH 500 0
DWIDTH 16 0
BBX 16 32 0 -8
BITMAP
0000
0000
00FC
00FC
00C0
00C0
00C0
00C0
00C0
00C0
00C0
00C0
00C0
00C0
00C0
00C0
30C0
30C0
0CC0
0CC0
03C0
03C0
00C0
00C0
0000
0000
0000
0000
0000
0000
0000
0000
ENDCHAR
STARTCHAR infinity
ENCODING 8734
SWIDTH 500 0
DWIDTH 16 0
BBX 16 32 0 -8
BITMAP
0000
0000
0000
0000
0000
0000
0000
0000
1E78
1E78
73CE
73CE
6186
6186
73CE
73CE
1E78
1E78
0000
0000
0000
0000
0000
0000
0000
0000
0000
0000
0000
0000
0000
0000
ENDCHAR
STARTCHAR orthogonal
ENCODING 8735
SWIDTH 500 0
DWIDTH 16 0
BBX 16 32 0 -8
BITMAP
0000
0000
0000
0000
0000
0000
0000
0000
3000
3000
3000
3000
3000
3000
3000
3000
3FFC
3FFC
0000
0000
0000
0000
0000
0000
0000
0000
0000
0000
0000
0000
0000
0000
ENDCHAR
STARTCHAR intersection
ENCODING 8745
SWIDTH 500 0
DWIDTH 16 0
BBX 16 32 0 -8
BITMAP
0000
0000
0000
0000
0000
0000
07E0
07E0
1C38
1C38
300C
300C
300C
300C
300C
300C
300C
300C
300C
300C
300C
300C
300C
300C
0000
0000
0000
0000
0000
0000
0000
0000
ENDCHAR
STARTCHAR approxequal
ENCODING 8776
SWIDTH 500 0
DWIDTH 16 0
BBX 16 32 0 -8
BITMAP
0000
0000
0000
0000
0000
0000
0000
0000
0E00
0E00
318C
318C
0070
0070
0000
0000
0E00
0E00
318C
318C
0070
0070
0000
0000
0000
0000
0000
0000
0000
0000
0000
0000
ENDCHAR
STARTCHAR equivalence
ENCODING 8801
SWIDTH 500 0
DWIDTH 16 0
BBX 16 32 0 -8
BITMAP
0000
0000
0000
0000
3FFC
3FFC
0000
0000
0000
0000
0000
0000
3FFC
3FFC
0000
0000
0000
0000
0000
0000
3FFC
3FFC
0000
0000
0000
0000
0000
0000
0000
0000
0000
0000
ENDCHAR
STARTCHAR lessequal
ENCODING 8804
SWIDTH 500 0
DWIDTH 16 0
BBX 16 32 0 -8
BITMAP
0000
0000
001C
001C
00E0
00E0
0380
0380
0E00
0E00
3800
3800
0E00
0E00
0380
0380
00E0
00E0
001C
001C
0000
0000
3FFC
3FFC
0000
0000
0000
0000
0000
0000
0000
0000
ENDCHAR
STARTCHAR greaterequal
ENCODING 8805
SWIDTH 500 0
DWIDTH 16 0
BBX 16 32 0 -8
BITMAP
0000
0000
3800
3800
0700
0700
01C0
01C0
0070
0070
001C
001C
0070
0070
01C0
01C0
0700
0700
3800
3800
0000
0000
3FFC
3FFC
0000
0000
0000
0000
0000
0000
0000
0000
ENDCHAR
STARTCHAR house
ENCODING 8962
SWIDTH 500 0
DWIDTH 16 0
BBX 16 32 0 -8
BITMAP
0000
0000
0000
0000
0000
0000
0180
0180
03C0
03C0
0660
0660
0C30
0C30
1818
1818
300C
300C
300C
300C
3FFC
3FFC
0000
0000
0000
0000
0000
0000
0000
0000
0000
0000
ENDCHAR
STARTCHAR revlogicalnot
ENCODING 8976
SWIDTH 500 0
DWIDTH 16 0
BBX 16 32 0 -8
BITMAP
0000
0000
0000
0000
0000
0000
0000
0000
0000
0000
0000
0000
3FFC
3FFC
3000
3000
3000
3000
3000
3000
3000
3000
0000
0000
0000
0000
0000
0000
0000
0000
0000
0000
ENDCHAR
STARTCHAR integraltp
ENCODING 8992
SWIDTH 500 0
DWIDTH 16 0
BBX 16 32 0 -8
BITMAP
0000
0000
0000
0000
00F8
00F8
018C
018C
0180
0180
0180
0180
0180
0180
0180
0180
0180
0180
0180
0180
0180
0180
0180
0180
0180
0180
0180
0180
0180
0180
0180
0180
ENDCHAR
STARTCHAR integralbt
ENCODING 8993
SWIDTH 500 0
DWIDTH 16 0
BBX 16 32 0 -8
BITMAP
0180
0180
0180
0180
0180
0180
0180
0180
0180
0180
0180
0180
0180
0180
0180
0180
0180
0180
0180
0180
0180
0180
0180
0180
3180
3180
1F00
1F00
0000
0000
0000
0000
ENDCHAR
STARTCHAR SF100000
ENCODING 9472
SWIDTH 500 0
DWIDTH 16 0
BBX 16 32 0 -8
BITMAP
0000
0000
0000
0000
0000
0000
0000
0000
0000
0000
0000
0000
0000
0000
0000
0000
FFFF
FFFF
0000
0000
0000
0000
0000
0000
0000
0000
0000
0000
0000
0000
0000
0000
ENDCHAR
STARTCHAR SF110000
ENCODING 9474
SWIDTH 500 0
DWIDTH 16 0
BBX 16 32 0 -8
BITMAP
0180
0180
0180
0180
0180
0180
0180
0180
0180
0180
0180
0180
0180
0180
0180
0180
0180
0180
0180
0180
0180
0180
0180
0180
0180
0180
0180
0180
0180
0180
0180
0180
ENDCHAR
STARTCHAR SF010000
ENCODING 9484
SWIDTH 500 0
DWIDTH 16 0
BBX 16 32 0 -8
BITMAP
0000
0000
0000
0000
0000
0000
0000
0000
0000
0000
0000
0000
0000
0000
0000
0000
01FF
01FF
0180
0180
0180
0180
0180
0180
0180
0180
0180
0180
0180
0180
0180
0180
ENDCHAR
STARTCHAR SF030000
ENCODING 9488
SWIDTH 500 0
DWIDTH 16 0
BBX 16 32 0 -8
BITMAP
0000
0000
0000
0000
0000
0000
0000
0000
0000
0000
0000
0000
0000
0000
0000
0000
FF80
FF80
0180
0180
0180
0180
0180
0180
0180
0180
0180
0180
0180
0180
0180
0180
ENDCHAR
STARTCHAR SF020000
ENCODING 9492
SWIDTH 500 0
DWIDTH 16 0
BBX 16 32 0 -8
BITMAP
0180
0180
0180
0180
0180
0180
0180
0180
0180
0180
0180
0180
0180
0180
0180
0180
01FF
01FF
0000
0000
0000
0000
0000
0000
0000
0000
0000
0000
0000
0000
0000
0000
ENDCHAR
STARTCHAR SF040000
ENCODING 9496
SWIDTH 500 0
DWIDTH 16 0
BBX 16 32 0 -8
BITMAP
0180
0180
0180
0180
0180
0180
0180
0180
0180
0180
0180
0180
0180
0180
0180
0180
FF80
FF80
0000
0000
0000
0000
0000
0000
0000
0000
0000
0000
0000
0000
0000
0000
ENDCHAR
STARTCHAR SF080000
ENCODING 9500
SWIDTH 500 0
DWIDTH 16 0
BBX 16 32 0 -8
BITMAP
0180
0180
0180
0180
0180
0180
0180
0180
0180
0180
0180
0180
0180
0180
0180
0180
01FF
01FF
0180
0180
0180
0180
0180
0180
0180
0180
0180
0180
0180
0180
0180
0180
ENDCHAR
STARTCHAR SF090000
ENCODING 9508
SWIDTH 500 0
DWIDTH 16 0
BBX 16 32 0 -8
BITMAP
0180
0180
0180
0180
0180
0180
0180
0180
0180
0180
0180
0180
0180
0180
0180
0180
FF80
FF80
0180
0180
0180
0180
0180
0180
0180
0180
0180
0180
0180
0180
0180
0180
ENDCHAR
STARTCHAR SF060000
ENCODING 9516
SWIDTH 500 0
DWIDTH 16 0
BBX 16 32 0 -8
BITMAP
0000
0000
0000
0000
0000
0000
0000
0000
0000
0000
0000
0000
0000
0000
0000
0000
FFFF
FFFF
0180
0180
0180
0180
0180
0180
0180
0180
0180
0180
0180
0180
0180
0180
ENDCHAR
STARTCHAR SF070000
ENCODING 9524
SWIDTH 500 0
DWIDTH 16 0
BBX 16 32 0 -8
BITMAP
0180
0180
0180
0180
0180
0180
0180
0180
0180
0180
0180
0180
0180
0180
0180
0180
FFFF
FFFF
0000
0000
0000
0000
0000
0000
0000
0000
0000
0000
0000
0000
0000
0000
ENDCHAR
STARTCHAR SF050000
ENCODING 9532
SWIDTH 500 0
DWIDTH 16 0
BBX 16 32 0 -8
BITMAP
0180
0180
0180
0180
0180
0180
0180
0180
0180
0180
0180
0180
0180
0180
0180
0180
FFFF
FFFF
0180
0180
0180
0180
0180
0180
0180
0180
0180
0180
0180
0180
0180
0180
ENDCHAR
STARTCHAR SF430000
ENCODING 9552
SWIDTH 500 0
DWIDTH 16 0
BBX 16 32 0 -8
BITMAP
0000
0000
0000
0000
0000
0000
0000
0000
0000
0000
0000
0000
FFFF
FFFF
0000
0000
FFFF
FFFF
0000
0000
0000
0000
0000
0000
0000
0000
0000
0000
0000
0000
0000
0000
ENDCHAR
STARTCHAR SF240000
ENCODING 9553
SWIDTH 500 0
DWIDTH 16 0
BBX 16 32 0 -8
BITMAP
0660
0660
0660
0660
0660
0660
0660
0660
0660
0660
0660
0660
0660
0660
0660
0660
0660
0660
0660
0660
0660
0660
0660
0660
0660
0660
0660
0660
0660
0660
0660
0660
ENDCHAR
STARTCHAR SF510000
ENCODING 9554
SWIDTH 500 0
DWIDTH 16 0
BBX 16 32 0 -8
BITMAP
0000
0000
0000
0000
0000
0000
0000
0000
0000
0000
0000
0000
01FF
01FF
0180
0180
01FF
01FF
0180
0180
0180
0180
0180
0180
0180
0180
0180
0180
0180
0180
0180
0180
ENDCHAR
STARTCHAR SF520000
ENCODING 9555
SWIDTH 500 0
DWIDTH 16 0
BBX 16 32 0 -8
BITMAP
0000
0000
0000
0000
0000
0000
0000
0000
0000
0000
0000
0000
0000
0000
0000
0000
07FF
07FF
0660
0660
0660
0660
0660
0660
0660
0660
0660
0660
0660
0660
0660
0660
ENDCHAR
STARTCHAR SF390000
ENCODING 9556
SWIDTH 500 0
DWIDTH 16 0
BBX 16 32 0 -8
BITMAP
0000
0000
0000
0000
0000
0000
0000
0000
0000
0000
0000
0000
07FF
07FF
0600
0600
067F
067F
0660
0660
0660
0660
0660
0660
0660
0660
0660
0660
0660
0660
0660
0660
ENDCHAR
STARTCHAR SF220000
ENCODING 9557
SWIDTH 500 0
DWIDTH 16 0
BBX 16 32 0 -8
BITMAP
0000
0000
0000
0000
0000
0000
0000
0000
0000
0000
0000
0000
FF80
FF80
0180
0180
FF80
FF80
0180
0180
0180
0180
0180
0180
0180
0180
0180
0180
0180
0180
0180
0180
ENDCHAR
STARTCHAR SF210000
ENCODING 9558
SWIDTH 500 0
DWIDTH 16 0
BBX 16 32 0 -8
BITMAP
0000
0000
0000
0000
0000
0000
0000
0000
0000
0000
0000
0000
0000
0000
0000
0000
FFE0
FFE0
0660
0660
0660
0660
0660
0660
0660
0660
0660
0660
0660
0660
0660
0660
ENDCHAR
STARTCHAR SF250000
ENCODING 9559
SWIDTH 500 0
DWIDTH 16 0
BBX 16 32 0 -8
BITMAP
0000
0000
0000
0000
0000
0000
0000
0000
0000
0000
0000
0000
FFE0
FFE0
0060
0060
FE60
FE60
0660
0660
0660
0660
0660
0660
0660
0660
0660
0660
0660
0660
0660
0660
ENDCHAR
STARTCHAR SF500000
ENCODING 9560
SWIDTH 500 0
DWIDTH 16 0
BBX 16 32 0 -8
BITMAP
0180
0180
0180
0180
0180
0180
0180
0180
0180
0180
0180
0180
01FF
01FF
0180
0180
01FF
01FF
0000
0000
0000
0000
0000
0000
0000
0000
0000
0000
0000
0000
0000
0000
ENDCHAR
STARTCHAR SF490000
ENCODING 9561
SWIDTH 500 0
DWIDTH 16 0
BBX 16 32 0 -8
BITMAP
0660
0660
0660
0660
0660
0660
0660
0660
0660
0660
0660
0660
0660
0660
0660
0660
07FF
07FF
0000
0000
0000
0000
0000
0000
0000
0000
0000
0000
0000
0000
0000
0000
ENDCHAR
STARTCHAR SF380000
ENCODING 9562
SWIDTH 500 0
DWIDTH 16 0
BBX 16 32 0 -8
BITMAP
0660
0660
0660
0660
0660
0660
0660
0660
0660
0660
0660
0660
067F
067F
0600
0600
07FF
07FF
0000
0000
0000
0000
0000
0000
0000
0000
0000
0000
0000
0000
0000
0000
ENDCHAR
STARTCHAR SF280000
ENCODING 9563
SWIDTH 500 0
DWIDTH 16 0
BBX 16 32 0 -8
BITMAP
0180
0180
0180
0180
0180
0180
0180
0180
0180
0180
0180
0180
FF80
FF80
0180
0180
FF80
FF80
0000
0000
0000
0000
0000
0000
0000
0000
0000
0000
0000
0000
0000
0000
ENDCHAR
STARTCHAR SF270000
ENCODING 9564
SWIDTH 500 0
DWIDTH 16 0
BBX 16 32 0 -8
BITMAP
0660
0660
0660
0660
0660
0660
0660
0660
0660
0660
0660
0660
0660
0660
0660
0660
FFE0
FFE0
0000
0000
0000
0000
0000
0000
0000
0000
0000
0000
0000
0000
0000
0000
ENDCHAR
STARTCHAR SF260000
ENCODING 9565
SWIDTH 500 0
DWIDTH 16 0
BBX 16 32 0 -8
BITMAP
0660
0660
0660
0660
0660
0660
0660
0660
0660
0660
0660
0660
FE60
FE60
0060
0060
FFE0
FFE0
0000
0000
0000
0000
0000
0000
0000
0000
0000
0000
0000
0000
0000
0000
ENDCHAR
STARTCHAR SF360000
ENCODING 9566
SWIDTH 500 0
DWIDTH 16 0
BBX 16 32 0 -8
BITMAP
0180
0180
0180
0180
0180
0180
0180
0180
0180
0180
0180
0180
01FF
01FF
0180
0180
01FF
01FF
0180
0180
0180
0180
0180
0180
0180
0180
0180
0180
0180
0180
0180
0180
ENDCHAR
STARTCHAR SF370000
ENCODING 9567
SWIDTH 500 0
DWIDTH 16 0
BBX 16 32 0 -8
BITMAP
0660
0660
0660
0660
0660
0660
0660
0660
0660
0660
0660
0660
0660
0660
0660
0660
067F
067F
0660
0660
0660
0660
0660
0660
0660
0660
0660
0660
0660
0660
0660
0660
ENDCHAR
STARTCHAR SF420000
ENCODING 9568
SWIDTH 500 0
DWIDTH 16 0
BBX 16 32 0 -8
BITMAP
0660
0660
0660
0660
0660
0660
0660
0660
0660
0660
0660
0660
067F
067F
0600
0600
067F
067F
0660
0660
0660
0660
0660
0660
0660
0660
0660
0660
0660
0660
0660
0660
ENDCHAR
STARTCHAR SF190000
ENCODING 9569
SWIDTH 500 0
DWIDTH 16 0
BBX 16 32 0 -8
BITMAP
0180
0180
0180
0180
0180
0180
0180
0180
0180
0180
0180
0180
FF80
FF80
0180
0180
FF80
FF80
0180
0180
0180
0180
0180
0180
0180
0180
0180
0180
0180
0180
0180
0180
ENDCHAR
STARTCHAR SF200000
ENCODING 9570
SWIDTH 500 0
DWIDTH 16 0
BBX 16 32 0 -8
BITMAP
0660
0660
0660
0660
0660
0660
0660
0660
0660
0660
0660
0660
0660
0660
0660
0660
FE60
FE60
0660
0660
0660
0660
0660
0660
0660
0660
0660
0660
0660
0660
0660
0660
ENDCHAR
STARTCHAR SF230000
ENCODING 9571
SWIDTH 500 0
DWIDTH 16 0
BBX 16 32 0 -8
BITMAP
0660
0660
0660
0660
0660
0660
0660
0660
0660
0660
0660
0660
FE60
FE60
0060
0060
FE60
FE60
0660
0660
0660
0660
0660
0660
0660
0660
0660
0660
0660
0660
0660
0660
ENDCHAR
STARTCHAR SF470000
ENCODING 9572
SWIDTH 500 0
DWIDTH 16 0
BBX 16 32 0 -8
BITMAP
0000
0000
0000
0000
0000
0000
0000
0000
0000
0000
0000
0000
FFFF
FFFF
0000
0000
FFFF
FFFF
0180
0180
0180
0180
0180
0180
0180
0180
0180
0180
0180
0180
0180
0180
ENDCHAR
STARTCHAR SF480000
ENCODING 9573
SWIDTH 500 0
DWIDTH 16 0
BBX 16 32 0 -8
BITMAP
0000
0000
0000
0000
0000
0000
0000
0000
0000
0000
0000
0000
0000
0000
0000
0000
FFFF
FFFF
0660
0660
0660
0660
0660
0660
0660
0660
0660
0660
0660
0660
0660
0660
ENDCHAR
STARTCHAR SF410000
ENCODING 9574
SWIDTH 500 0
DWIDTH 16 0
BBX 16 32 0 -8
BITMAP
0000
0000
0000
0000
0000
0000
0000
0000
0000
0000
0000
0000
FFFF
FFFF
0000
0000
FE7F
FE7F
0660
0660
0660
0660
0660
0660
0660
0660
0660
0660
0660
0660
0660
0660
ENDCHAR
STARTCHAR SF450000
ENCODING 9575
SWIDTH 500 0
DWIDTH 16 0
BBX 16 32 0 -8
BITMAP
0180
0180
0180
0180
0180
0180
0180
0180
0180
0180
0180
0180
FFFF
FFFF
0000
0000
FFFF
FFFF
0000
0000
0000
0000
0000
0000
0000
0000
0000
0000
0000
0000
0000
0000
ENDCHAR
STARTCHAR SF460000
ENCODING 9576
SWIDTH 500 0
DWIDTH 16 0
BBX 16 32 0 -8
BITMAP
0660
0660
0660
0660
0660
0660
0660
0660
0660
0660
0660
0660
0660
0660
0660
0660
FFFF
FFFF
0000
0000
0000
0000
0000
0000
0000
0000
0000
0000
0000
0000
0000
0000
ENDCHAR
STARTCHAR SF400000
ENCODING 9577
SWIDTH 500 0
DWIDTH 16 0
BBX 16 32 0 -8
BITMAP
0660
0660
0660
0660
0660
0660
0660
0660
0660
0660
0660
0660
FE7F
FE7F
0000
0000
FFFF
FFFF
0000
0000
0000
0000
0000
0000
0000
0000
0000
0000
0000
0000
0000
0000
ENDCHAR
STARTCHAR SF540000
ENCODING 9578
SWIDTH 500 0
DWIDTH 16 0
BBX 16 32 0 -8
BITMAP
0180
0180
0180
0180
0180
0180
0180
0180
0180
0180
0180
0180
FFFF
FFFF
0180
0180
FFFF
FFFF
0180
0180
0180
0180
0180
0180
0180
0180
0180
0180
0180
0180
0180
0180
ENDCHAR
STARTCHAR SF530000
ENCODING 9579
SWIDTH 500 0
DWIDTH 16 0
BBX 16 32 0 -8
BITMAP
0660
0660
0660
0660
0660
0660
0660
0660
0660
0660
0660
0660
0660
0660
0660
0660
FFFF
FFFF
0660
0660
0660
0660
0660
0660
0660
0660
0660
0660
0660
0660
0660
0660
ENDCHAR
STARTCHAR SF440000
ENCODING 9580
SWIDTH 500 0
DWIDTH 16 0
BBX 16 32 0 -8
BITMAP
0660
0660
0660
0660
0660
0660
0660
0660
0660
0660
0660
0660
FE7F
FE7F
0000
0000
FE7F
FE7F
0660
0660
0660
0660
0660
0660
0660
0660
0660
0660
0660
0660
0660
0660
ENDCHAR
STARTCHAR upblock
ENCODING 9600
SWIDTH 500 0
DWIDTH 16 0
BBX 16 32 0 -8
BITMAP
FFFF
FFFF
FFFF
FFFF
FFFF
FFFF
FFFF
FFFF
FFFF
FFFF
FFFF
FFFF
FFFF
FFFF
FFFF
FFFF
0000
0000
0000
0000
0000
0000
0000
0000
0000
0000
0000
0000
0000
0000
0000
0000
ENDCHAR
STARTCHAR dnblock
ENCODING 9604
SWIDTH 500 0
DWIDTH 16 0
BBX 16 32 0 -8
BITMAP
0000
0000
0000
0000
0000
0000
0000
0000
0000
0000
0000
0000
0000
0000
0000
0000
FFFF
FFFF
FFFF
FFFF
FFFF
FFFF
FFFF
FFFF
FFFF
FFFF
FFFF
FFFF
FFFF
FFFF
FFFF
FFFF
ENDCHAR
STARTCHAR block
ENCODING 9608
SWIDTH 500 0
DWIDTH 16 0
BBX 16 32 0 -8
BITMAP
FFFF
FFFF
FFFF
FFFF
FFFF
FFFF
FFFF
FFFF
FFFF
FFFF
FFFF
FFFF
FFFF
FFFF
FFFF
FFFF
FFFF
FFFF
FFFF
FFFF
FFFF
FFFF
FFFF
FFFF
FFFF
FFFF
FFFF
FFFF
FFFF
FFFF
FFFF
FFFF
ENDCHAR
STARTCHAR lfblock
ENCODING 9612
SWIDTH 500 0
DWIDTH 16 0
BBX 16 32 0 -8
BITMAP
FF00
FF00
FF00
FF00
FF00
FF00
FF00
FF00
FF00
FF00
FF00
FF00
FF00
FF00
FF00
FF00
FF00
FF00
FF00
FF00
FF00
FF00
FF00
FF00
FF00
FF00
FF00
FF00
FF00
FF00
FF00
FF00
ENDCHAR
STARTCHAR rtblock
ENCODING 9616
SWIDTH 500 0
DWIDTH 16 0
BBX 16 32 0 -8
BITMAP
00FF
00FF
00FF
00FF
00FF
00FF
00FF
00FF
00FF
00FF
00FF
00FF
00FF
00FF
00FF
00FF
00FF
00FF
00FF
00FF
00FF
00FF
00FF
00FF
00FF
00FF
00FF
00FF
00FF
00FF
00FF
00FF
ENDCHAR
STARTCHAR ltshade
ENCODING 9617
SWIDTH 500 0
DWIDTH 16 0
BBX 16 32 0 -8
BITMAP
0606
0606
6060
6060
0606
0606
6060
6060
0606
0606
6060
6060
0606
0606
6060
6060
0606
0606
6060
6060
0606
0606
6060
6060
0606
0606
6060
6060
0606
0606
6060
6060
ENDCHAR
STARTCHAR shade
ENCODING 9618
SWIDTH 500 0
DWIDTH 16 0
BBX 16 32 0 -8
BITMAP
3333
3333
CCCC
CCCC
3333
3333
CCCC
CCCC
3333
3333
CCCC
CCCC
3333
3333
CCCC
CCCC
3333
3333
CCCC
CCCC
3333
3333
CCCC
CCCC
3333
3333
CCCC
CCCC
3333
3333
CCCC
CCCC
ENDCHAR
STARTCHAR dkshade
ENCODING 9619
SWIDTH 500 0
DWIDTH 16 0
BBX 16 32 0 -8
BITMAP
E738
E738
1CE7
1CE7
E738
E738
1CE7
1CE7
E738
E738
1CE7
1CE7
E738
E738
1CE7
1CE7
E738
E738
1CE7
1CE7
E738
E738
1CE7
1CE7
E738
E738
1CE7
1CE7
E738
E738
1CE7
1CE7
ENDCHAR
STARTCHAR filledbox
ENCODING 9632
SWIDTH 500 0
DWIDTH 16 0
BBX 16 32 0 -8
BITMAP
0000
0000
0000
0000
0000
0000
0000
0000
0FF0
0FF0
0FF0
0FF0
0FF0
0FF0
0FF0
0FF0
0FF0
0FF0
0FF0
0FF0
0FF0
0FF0
0000
0000
0000
0000
0000
0000
0000
0000
0000
0000
ENDCHAR
STARTCHAR filledrect
ENCODING 9644
SWIDTH 500 0
DWIDTH 16 0
BBX 16 32 0 -8
BITMAP
0000
0000
0000
0000
0000
0000
0000
0000
0000
0000
0000
0000
0000
0000
0000
0000
3FFC
3FFC
3FFC
3FFC
3FFC
3FFC
3FFC
3FFC
0000
0000
0000
0000
0000
0000
0000
0000
ENDCHAR
STARTCHAR triagup
ENCODING 9650
SWIDTH 500 0
DWIDTH 16 0
BBX 16 32 0 -8
BITMAP
0000
0000
0000
0000
0000
0000
0180
0180
03C0
03C0
07E0
07E0
0FF0
0FF0
1FF8
1FF8
3FFC
3FFC
7FFE
7FFE
0000
0000
0000
0000
0000
0000
0000
0000
0000
0000
0000
0000
ENDCHAR
STARTCHAR triagrt
ENCODING 9658
SWIDTH 500 0
DWIDTH 16 0
BBX 16 32 0 -8
BITMAP
0000
0000
3000
3000
3C00
3C00
3F00
3F00
3FC0
3FC0
3FF0
3FF0
3FFC
3FFC
3FF0
3FF0
3FC0
3FC0
3F00
3F00
3C00
3C00
3000
3000
0000
0000
0000
0000
0000
0000
0000
0000
ENDCHAR
STARTCHAR triagdn
ENCODING 9660
SWIDTH 500 0
DWIDTH 16 0
BBX 16 32 0 -8
BITMAP
0000
0000
0000
0000
0000
0000
7FFE
7FFE
3FFC
3FFC
1FF8
1FF8
0FF0
0FF0
07E0
07E0
03C0
03C0
0180
0180
0000
0000
0000
0000
0000
0000
0000
0000
0000
0000
0000
0000
ENDCHAR
STARTCHAR triaglf
ENCODING 9668
SWIDTH 500 0
DWIDTH 16 0
BBX 16 32 0 -8
BITMAP
0000
0000
000C
000C
003C
003C
00FC
00FC
03FC
03FC
0FFC
0FFC
3FFC
3FFC
0FFC
0FFC
03FC
03FC
00FC
00FC
003C
003C
000C
000C
0000
0000
0000
0000
0000
0000
0000
0000
ENDCHAR
STARTCHAR circle
ENCODING 9675
SWIDTH 500 0
DWIDTH 16 0
BBX 16 32 0 -8
BITMAP
0000
0000
0000
0000
0000
0000
0000
0000
0000
0000
07E0
07E0
1C38
1C38
300C
300C
300C
300C
1C38
1C38
07E0
07E0
0000
0000
0000
0000
0000
0000
0000
0000
0000
0000
ENDCHAR
STARTCHAR invbullet
ENCODING 9688
SWIDTH 500 0
DWIDTH 16 0
BBX 16 32 0 -8
BITMAP
FFFF
FFFF
FFFF
FFFF
FFFF
FFFF
FFFF
FFFF
FFFF
FFFF
FFFF
FFFF
F81F
F81F
F00F
F00F
F00F
F00F
F81F
F81F
FFFF
FFFF
FFFF
FFFF
FFFF
FFFF
FFFF
FFFF
FFFF
FFFF
FFFF
FFFF
ENDCHAR
STARTCHAR invcircle
ENCODING 9689
SWIDTH 500 0
DWIDTH 16 0
BBX 16 32 0 -8
BITMAP
FFFF
FFFF
FFFF
FFFF
FFFF
FFFF
FFFF
FFFF
FFFF
FFFF
F81F
F81F
E7E7
E7E7
CFF3
CFF3
CFF3
CFF3
E7E7
E7E7
F81F
F81F
FFFF
FFFF
FFFF
FFFF
FFFF
FFFF
FFFF
FFFF
FFFF
FFFF
ENDCHAR
STARTCHAR smileface
ENCODING 9786
SWIDTH 500 0
DWIDTH 16 0
BBX 16 32 0 -8
BITMAP
0000
0000
1FF8
1FF8
381C
381C
300C
300C
366C
366C
300C
300C
300C
300C
300C
300C
37EC
37EC
318C
318C
381C
381C
1FF8
1FF8
0000
0000
0000
0000
0000
0000
0000
0000
ENDCHAR
STARTCHAR invsmileface
ENCODING 9787
SWIDTH 500 0
DWIDTH 16 0
BBX 16 32 0 -8
BITMAP
0000
0000
0FF0
0FF0
3FFC
3FFC
3FFC
3FFC
399C
399C
3FFC
3FFC
3FFC
3FFC
3FFC
3FFC
381C
381C
3E7C
3E7C
3FFC
3FFC
0FF0
0FF0
0000
0000
0000
0000
0000
0000
0000
0000
ENDCHAR
STARTCHAR sun
ENCODING 9788
SWIDTH 500 0
DWIDTH 16 0
BBX 16 32 0 -8
BITMAP
0000
0000
0180
0180
0180
0180
0180
0180
399C
399C
03C0
03C0
3E7C
3E7C
03C0
03C0
399C
399C
0180
0180
0180
0180
0180
0180
0000
0000
0000
0000
0000
0000
0000
0000
ENDCHAR
STARTCHAR female
ENCODING 9792
SWIDTH 500 0
DWIDTH 16 0
BBX 16 32 0 -8
BITMAP
0000
0000
07E0
07E0
1C38
1C38
300C
300C
300C
300C
1C38
1C38
07E0
07E0
0180
0180
0180
0180
0FF0
0FF0
0180
0180
0180
0180
0000
0000
0000
0000
0000
0000
0000
0000
ENDCHAR
STARTCHAR male
ENCODING 9794
SWIDTH 500 0
DWIDTH 16 0
BBX 16 32 0 -8
BITMAP
0000
0000
03F0
03F0
00D8
00D8
0180
0180
0300
0300
0600
0600
0FC0
0FC0
1C70
1C70
3018
3018
3018
3018
1C70
1C70
07C0
07C0
0000
0000
0000
0000
0000
0000
0000
0000
ENDCHAR
STARTCHAR spade
ENCODING 9824
SWIDTH 500 0
DWIDTH 16 0
BBX 16 32 0 -8
BITMAP
0000
0000
0180
0180
03C0
03C0
07E0
07E0
0FF0
0FF0
1FF8
1FF8
3FFC
3FFC
3FFC
3FFC
1FF8
1FF8
0180
0180
0180
0180
07E0
07E0
0000
0000
0000
0000
0000
0000
0000
0000
ENDCHAR
STARTCHAR club
ENCODING 9827
SWIDTH 500 0
DWIDTH 16 0
BBX 16 32 0 -8
BITMAP
0000
0000
03C0
03C0
07E0
07E0
07E0
07E0
03C0
03C0
399C
399C
7E7E
7E7E
7E7E
7E7E
399C
399C
03C0
03C0
03C0
03C0
07E0
07E0
0000
0000
0000
0000
0000
0000
0000
0000
ENDCHAR
STARTCHAR heart
ENCODING 9829
SWIDTH 500 0
DWIDTH 16 0
BBX 16 32 0 -8
BITMAP
0000
0000
0000
0000
0E70
0E70
1FF8
1FF8
3FFC
3FFC
3FFC
3FFC
3FFC
3FFC
1FF8
1FF8
0FF0
0FF0
07E0
07E0
03C0
03C0
0180
0180
0000
0000
0000
0000
0000
0000
0000
0000
ENDCHAR
STARTCHAR diamond
ENCODING 9830
SWIDTH 500 0
DWIDTH 16 0
BBX 16 32 0 -8
BITMAP
0000
0000
0000
0000
0180
0180
03C0
03C0
0FF0
0FF0
1FF8
1FF8
3FFC
3FFC
1FF8
1FF8
0FF0
0FF0
03C0
03C0
0180
0180
0000
0000
0000
0000
0000
0000
0000
0000
0000
0000
ENDCHAR
STARTCHAR musicalnote
ENCODING 9834
SWIDTH 500 0
DWIDTH 16 0
BBX 16 32 0 -8
BITMAP
0000
0000
01F0
01F0
0198
0198
018C
018C
018C
018C
0198
0198
0180
0180
0180
0180
1F80
1F80
3F80
3F80
3F80
3F80
1F00
1F00
0000
0000
0000
0000
0000
0000
0000
0000
ENDCHAR
STARTCHAR musicalnotedbl
ENCODING 9835
SWIDTH 500 0
DWIDTH 16 0
BBX 16 32 0 -8
BITMAP
0000
0000
07C0
07C0
0670
0670
0618
0618
060C
060C
060C
060C
1E0C
1E0C
3E0C
3E0C
3E3C
3E3C
1C7C
1C7C
007C
007C
0038
0038
0000
0000
0000
0000
0000
0000
0000
0000
ENDCHAR
STARTCHAR uni3044
ENCODING 12356
SWIDTH 500 0
DWIDTH 16 0
BBX 16 32 0 -8
BITMAP
0000
0000
0000
0000
0000
0000
0000
0000
0000
0000
0000
0000
0000
0000
0000
0000
0000
0000
0000
0000
0000
0000
0000
0000
0000
0000
0000
0000
0000
0000
0000
0000
ENDCHAR
STARTCHAR uni3046
ENCODING 12358
SWIDTH 500 0
DWIDTH 16 0
BBX 16 32 0 -8
BITMAP
0000
0000
0000
0000
0000
0000
0000
0000
0000
0000
0000
0000
0000
0000
0000
0000
0000
0000
0000
0000
0000
0000
0000
0000
0000
0000
0000
0000
0000
0000
0000
0000
ENDCHAR
STARTCHAR uni304B
ENCODING 12363
SWIDTH 500 0
DWIDTH 16 0
BBX 16 32 0 -8
BITMAP
0000
0000
0000
0000
0000
0000
0000
0000
0000
0000
0000
0000
0000
0000
0000
0000
0000
0000
0000
0000
0000
0000
0000
0000
0000
0000
0000
0000
0000
0000
0000
0000
ENDCHAR
STARTCHAR uni3057
ENCODING 12375
SWIDTH 500 0
DWIDTH 16 0
BBX 16 32 0 -8
BITMAP
0000
0000
0000
0000
0000
0000
0000
0000
0000
0000
0000
0000
0000
0000
0000
0000
0000
0000
0000
0000
0000
0000
0000
0000
0000
0000
0000
0000
0000
0000
0000
0000
ENDCHAR
STARTCHAR uni306E
ENCODING 12398
SWIDTH 500 0
DWIDTH 16 0
BBX 16 32 0 -8
BITMAP
0000
0000
0000
0000
0000
0000
0000
0000
0000
0000
0000
0000
0000
0000
0000
0000
0000
0000
0000
0000
0000
0000
0000
0000
0000
0000
0000
0000
0000
0000
0000
0000
ENDCHAR
STARTCHAR uni3093
ENCODING 12435
SWIDTH 500 0
DWIDTH 16 0
BBX 16 32 0 -8
BITMAP
0000
0000
0000
0000
0000
0000
0000
0000
0000
0000
0000
0000
0000
0000
0000
0000
0000
0000
0000
0000
0000
0000
0000
0000
0000
0000
0000
0000
0000
0000
0000
0000
ENDCHAR
STARTCHAR .notdef
ENCODING -1
SWIDTH 500 0
DWIDTH 16 0
BBX 15 20 1 0
BITMAP
FFFE
8002
8002
8002
8002
8002
8002
8002
8002
8002
8002
8002
8002
8002
8002
8002
8002
8002
8002
FFFE
ENDCHAR
ENDFONT
