STARTFONT 2.1
FONT innerlight_localization-16px
SIZE 16 75 75
FONTBOUNDINGBOX 15 16 -1 -4
STARTPROPERTIES 5
PIXEL_SIZE 16
FONT_ASCENT 12
FONT_DESCENT 4
CHARSET_REGISTRY "ISO10646"
CHARSET_ENCODING "1"
ENDPROPERTIES
CHARS 321
STARTCHAR space
ENCODING 32
SWIDTH 312 0
DWIDTH 5 0
BBX 1 1 0 0
BITMAP
00
ENDCHAR
STARTCHAR exclam
ENCODING 33
SWIDTH 312 0
DWIDTH 5 0
BBX 2 11 2 0
BITMAP
40
40
40
40
40
40
40
40
00
00
C0
ENDCHAR
STARTCHAR quotedbl
ENCODING 34
SWIDTH 375 0
DWIDTH 6 0
BBX 5 4 0 7
BITMAP
D8
D8
48
90
ENDCHAR
STARTCHAR numbersign
ENCODING 35
SWIDTH 750 0
DWIDTH 12 0
BBX 11 12 0 0
BITMAP
0880
0880
0880
7FE0
1100
1100
2200
2200
FF80
4400
4400
4400
ENDCHAR
STARTCHAR dollar
ENCODING 36
SWIDTH 688 0
DWIDTH 11 0
BBX 9 13 1 -1
BITMAP
0800
3E00
4900
8800
8800
4800
3E00
0900
8880
8880
4900
3E00
0800
ENDCHAR
STARTCHAR percent
ENCODING 37
SWIDTH 750 0
DWIDTH 12 0
BBX 10 10 1 1
BITMAP
0100
6200
9200
9400
6400
0800
0980
1240
1240
2180
ENDCHAR
STARTCHAR ampersand
ENCODING 38
SWIDTH 688 0
DWIDTH 11 0
BBX 9 11 1 0
BITMAP
3800
4400
4400
4400
2400
5880
8500
8200
8200
8500
7880
ENDCHAR
STARTCHAR quotesingle
ENCODING 39
SWIDTH 188 0
DWIDTH 3 0
BBX 2 3 0 7
BITMAP
C0
40
80
ENDCHAR
STARTCHAR parenleft
ENCODING 40
SWIDTH 312 0
DWIDTH 5 0
BBX 3 14 1 -2
BITMAP
20
40
40
80
80
80
80
80
80
80
80
40
40
20
ENDCHAR
STARTCHAR parenright
ENCODING 41
SWIDTH 312 0
DWIDTH 5 0
BBX 3 14 1 -2
BITMAP
80
40
40
20
20
20
20
20
20
20
20
40
40
80
ENDCHAR
STARTCHAR asterisk
ENCODING 42
SWIDTH 375 0
DWIDTH 6 0
BBX 5 4 0 7
BITMAP
A8
70
70
A8
ENDCHAR
STARTCHAR plus
ENCODING 43
SWIDTH 500 0
DWIDTH 8 0
BBX 5 5 2 3
BITMAP
20
20
F8
20
20
ENDCHAR
STARTCHAR comma
ENCODING 44
SWIDTH 250 0
DWIDTH 4 0
BBX 2 3 1 -2
BITMAP
C0
40
80
ENDCHAR
STARTCHAR hyphen
ENCODING 45
SWIDTH 312 0
DWIDTH 5 0
BBX 3 1 1 4
BITMAP
E0
ENDCHAR
STARTCHAR period
ENCODING 46
SWIDTH 250 0
DWIDTH 4 0
BBX 2 1 1 0
BITMAP
C0
ENDCHAR
STARTCHAR slash
ENCODING 47
SWIDTH 375 0
DWIDTH 6 0
BBX 5 12 0 0
BITMAP
08
08
10
10
10
20
20
20
40
40
80
80
ENDCHAR
STARTCHAR zero
ENCODING 48
SWIDTH 562 0
DWIDTH 9 0
BBX 7 11 1 0
BITMAP
38
44
82
82
82
82
82
82
82
44
38
ENDCHAR
STARTCHAR one
ENCODING 49
SWIDTH 438 0
DWIDTH 7 0
BBX 4 11 2 0
BITMAP
20
60
A0
20
20
20
20
20
20
20
70
ENDCHAR
STARTCHAR two
ENCODING 50
SWIDTH 562 0
DWIDTH 9 0
BBX 7 11 1 0
BITMAP
38
44
82
02
02
04
18
20
40
80
FE
ENDCHAR
STARTCHAR three
ENCODING 51
SWIDTH 562 0
DWIDTH 9 0
BBX 7 11 1 0
BITMAP
78
84
04
04
08
30
0C
02
82
84
78
ENDCHAR
STARTCHAR four
ENCODING 52
SWIDTH 562 0
DWIDTH 9 0
BBX 8 11 0 0
BITMAP
04
0C
14
14
24
24
44
FF
04
04
04
ENDCHAR
STARTCHAR five
ENCODING 53
SWIDTH 562 0
DWIDTH 9 0
BBX 7 11 1 0
BITMAP
7C
40
40
40
78
04
02
82
82
44
38
ENDCHAR
STARTCHAR six
ENCODING 54
SWIDTH 562 0
DWIDTH 9 0
BBX 7 11 1 0
BITMAP
38
44
82
80
B8
C4
82
82
82
44
38
ENDCHAR
STARTCHAR seven
ENCODING 55
SWIDTH 500 0
DWIDTH 8 0
BBX 6 11 1 0
BITMAP
FC
04
04
08
08
10
10
20
20
20
20
ENDCHAR
STARTCHAR eight
ENCODING 56
SWIDTH 562 0
DWIDTH 9 0
BBX 7 11 1 0
BITMAP
38
44
44
44
38
44
82
82
82
44
38
ENDCHAR
STARTCHAR nine
ENCODING 57
SWIDTH 562 0
DWIDTH 9 0
BBX 7 11 1 0
BITMAP
38
44
82
82
46
3A
02
02
82
44
38
ENDCHAR
STARTCHAR colon
ENCODING 58
SWIDTH 250 0
DWIDTH 4 0
BBX 2 7 1 0
BITMAP
C0
00
00
00
00
00
C0
ENDCHAR
STARTCHAR semicolon
ENCODING 59
SWIDTH 250 0
DWIDTH 4 0
BBX 2 10 1 -2
BITMAP
C0
C0
00
00
00
00
C0
C0
40
80
ENDCHAR
STARTCHAR less
ENCODING 60
SWIDTH 562 0
DWIDTH 9 0
BBX 7 7 1 2
BITMAP
06
18
60
80
60
18
06
ENDCHAR
STARTCHAR equal
ENCODING 61
SWIDTH 500 0
DWIDTH 8 0
BBX 6 4 1 4
BITMAP
FC
00
00
FC
ENDCHAR
STARTCHAR greater
ENCODING 62
SWIDTH 562 0
DWIDTH 9 0
BBX 7 7 1 2
BITMAP
C0
30
0C
02
0C
30
C0
ENDCHAR
STARTCHAR question
ENCODING 63
SWIDTH 562 0
DWIDTH 9 0
BBX 7 11 1 0
BITMAP
7C
82
82
02
04
08
10
10
00
00
30
ENDCHAR
STARTCHAR at
ENCODING 64
SWIDTH 875 0
DWIDTH 14 0
BBX 11 12 2 -2
BITMAP
1F00
2080
4E40
9120
8120
8F20
9120
9140
8F80
4000
2020
1FC0
ENDCHAR
STARTCHAR A
ENCODING 65
SWIDTH 750 0
DWIDTH 12 0
BBX 11 11 0 0
BITMAP
0400
0A00
0A00
1100
1100
2080
3F80
2080
4040
4040
C060
ENDCHAR
STARTCHAR B
ENCODING 66
SWIDTH 625 0
DWIDTH 10 0
BBX 9 11 0 0
BITMAP
FE00
4100
4100
4100
7E00
4100
4080
4080
4080
4100
FE00
ENDCHAR
STARTCHAR C
ENCODING 67
SWIDTH 688 0
DWIDTH 11 0
BBX 9 11 1 0
BITMAP
3E00
4100
8080
8000
8000
8000
8000
8000
8080
4100
3E00
ENDCHAR
STARTCHAR D
ENCODING 68
SWIDTH 688 0
DWIDTH 11 0
BBX 10 11 0 0
BITMAP
FE00
4100
4080
4040
4040
4040
4040
4040
4080
4100
FE00
ENDCHAR
STARTCHAR E
ENCODING 69
SWIDTH 562 0
DWIDTH 9 0
BBX 8 11 0 0
BITMAP
FF
41
40
40
42
7E
42
40
40
41
FF
ENDCHAR
STARTCHAR F
ENCODING 70
SWIDTH 625 0
DWIDTH 10 0
BBX 9 11 0 0
BITMAP
FF80
4080
4000
4000
4100
7F00
4100
4000
4000
4000
E000
ENDCHAR
STARTCHAR G
ENCODING 71
SWIDTH 750 0
DWIDTH 12 0
BBX 10 11 1 0
BITMAP
3F00
4080
80C0
8000
8000
83C0
8240
8040
8040
4080
3F00
ENDCHAR
STARTCHAR H
ENCODING 72
SWIDTH 750 0
DWIDTH 12 0
BBX 11 11 0 0
BITMAP
E0E0
4040
4040
4040
7FC0
4040
4040
4040
4040
4040
E0E0
ENDCHAR
STARTCHAR I
ENCODING 73
SWIDTH 250 0
DWIDTH 4 0
BBX 3 11 0 0
BITMAP
E0
40
40
40
40
40
40
40
40
40
E0
ENDCHAR
STARTCHAR J
ENCODING 74
SWIDTH 562 0
DWIDTH 9 0
BBX 8 11 0 0
BITMAP
0F
02
02
02
02
02
02
82
82
44
38
ENDCHAR
STARTCHAR K
ENCODING 75
SWIDTH 688 0
DWIDTH 11 0
BBX 10 11 0 0
BITMAP
C180
4200
4400
4800
7000
4800
4400
4200
4100
4080
E0C0
ENDCHAR
STARTCHAR L
ENCODING 76
SWIDTH 500 0
DWIDTH 8 0
BBX 7 11 0 0
BITMAP
E0
40
40
40
40
40
40
40
40
42
FE
ENDCHAR
STARTCHAR M
ENCODING 77
SWIDTH 875 0
DWIDTH 14 0
BBX 13 11 0 0
BITMAP
6030
6030
5050
5050
5050
4890
4890
4890
4510
4510
C238
ENDCHAR
STARTCHAR N
ENCODING 78
SWIDTH 688 0
DWIDTH 11 0
BBX 10 11 0 0
BITMAP
C1C0
6080
5080
5080
4880
4880
4480
4480
4280
4280
E1C0
ENDCHAR
STARTCHAR O
ENCODING 79
SWIDTH 750 0
DWIDTH 12 0
BBX 11 11 0 0
BITMAP
1F00
2080
4040
8020
8020
8020
8020
8020
4040
2080
1F00
ENDCHAR
STARTCHAR P
ENCODING 80
SWIDTH 562 0
DWIDTH 9 0
BBX 8 11 0 0
BITMAP
FC
42
41
41
42
7C
40
40
40
40
E0
ENDCHAR
STARTCHAR Q
ENCODING 81
SWIDTH 812 0
DWIDTH 13 0
BBX 12 12 0 -1
BITMAP
3F80
4040
4040
8020
8020
8020
8020
8020
4340
40C0
3F80
0070
ENDCHAR
STARTCHAR R
ENCODING 82
SWIDTH 750 0
DWIDTH 12 0
BBX 11 11 0 0
BITMAP
FF00
4080
4080
4080
4080
7F00
4200
4100
4080
4040
E0E0
ENDCHAR
STARTCHAR S
ENCODING 83
SWIDTH 688 0
DWIDTH 11 0
BBX 10 11 0 0
BITMAP
1F00
2080
4080
4000
2000
1F00
0080
C040
4040
2080
1F00
ENDCHAR
STARTCHAR T
ENCODING 84
SWIDTH 625 0
DWIDTH 10 0
BBX 9 11 0 0
BITMAP
FF80
8880
0800
0800
0800
0800
0800
0800
0800
0800
1C00
ENDCHAR
STARTCHAR U
ENCODING 85
SWIDTH 750 0
DWIDTH 12 0
BBX 11 11 0 0
BITMAP
E0E0
4040
4040
4040
4040
4040
4040
4040
4040
2080
1F00
ENDCHAR
STARTCHAR V
ENCODING 86
SWIDTH 750 0
DWIDTH 12 0
BBX 11 11 0 0
BITMAP
C060
4040
4040
2080
2080
2080
1100
1100
0A00
0A00
0400
ENDCHAR
STARTCHAR W
ENCODING 87
SWIDTH 938 0
DWIDTH 15 0
BBX 14 11 0 0
BITMAP
C004
4104
4284
4284
2288
2288
2448
1450
1450
1450
0820
ENDCHAR
STARTCHAR X
ENCODING 88
SWIDTH 688 0
DWIDTH 11 0
BBX 10 11 0 0
BITMAP
C0C0
2100
1200
1200
0C00
0C00
1200
1200
2100
4080
C0C0
ENDCHAR
STARTCHAR Y
ENCODING 89
SWIDTH 625 0
DWIDTH 10 0
BBX 9 11 0 0
BITMAP
C180
2200
2200
1400
1400
0800
0800
0800
0800
0800
1C00
ENDCHAR
STARTCHAR Z
ENCODING 90
SWIDTH 625 0
DWIDTH 10 0
BBX 9 11 0 0
BITMAP
7F80
4100
0200
0400
0400
0800
1000
1000
2000
4080
FF80
ENDCHAR
STARTCHAR bracketleft
ENCODING 91
SWIDTH 312 0
DWIDTH 5 0
BBX 3 14 1 -3
BITMAP
E0
80
80
80
80
80
80
80
80
80
80
80
80
E0
ENDCHAR
STARTCHAR backslash
ENCODING 92
SWIDTH 375 0
DWIDTH 6 0
BBX 5 12 0 0
BITMAP
80
80
40
40
40
20
20
20
10
10
08
08
ENDCHAR
STARTCHAR bracketright
ENCODING 93
SWIDTH 250 0
DWIDTH 4 0
BBX 3 14 0 -3
BITMAP
E0
20
20
20
20
20
20
20
20
20
20
20
20
E0
ENDCHAR
STARTCHAR asciicircum
ENCODING 94
SWIDTH 438 0
DWIDTH 7 0
BBX 5 5 1 6
BITMAP
20
50
50
88
88
ENDCHAR
STARTCHAR underscore
ENCODING 95
SWIDTH 625 0
DWIDTH 10 0
BBX 9 1 0 -3
BITMAP
FF80
ENDCHAR
STARTCHAR grave
ENCODING 96
SWIDTH 250 0
DWIDTH 4 0
BBX 2 3 1 8
BITMAP
C0
40
40
ENDCHAR
STARTCHAR a
ENCODING 97
SWIDTH 500 0
DWIDTH 8 0
BBX 6 7 1 0
BITMAP
70
88
08
78
88
88
7C
ENDCHAR
STARTCHAR b
ENCODING 98
SWIDTH 500 0
DWIDTH 8 0
BBX 6 10 1 0
BITMAP
80
80
80
80
B0
C8
84
84
C8
B0
ENDCHAR
STARTCHAR c
ENCODING 99
SWIDTH 500 0
DWIDTH 8 0
BBX 6 7 1 0
BITMAP
38
44
80
80
80
44
38
ENDCHAR
STARTCHAR d
ENCODING 100
SWIDTH 500 0
DWIDTH 8 0
BBX 6 10 1 0
BITMAP
04
04
04
04
34
4C
84
84
4C
34
ENDCHAR
STARTCHAR e
ENCODING 101
SWIDTH 500 0
DWIDTH 8 0
BBX 6 7 1 0
BITMAP
78
84
84
F8
80
84
78
ENDCHAR
STARTCHAR f
ENCODING 102
SWIDTH 438 0
DWIDTH 7 0
BBX 5 10 1 0
BITMAP
30
48
40
40
E0
40
40
40
40
40
ENDCHAR
STARTCHAR g
ENCODING 103
SWIDTH 438 0
DWIDTH 7 0
BBX 5 9 1 -2
BITMAP
78
88
88
88
78
08
08
88
70
ENDCHAR
STARTCHAR h
ENCODING 104
SWIDTH 438 0
DWIDTH 7 0
BBX 5 10 1 0
BITMAP
80
80
80
80
B0
C8
88
88
88
88
ENDCHAR
STARTCHAR i
ENCODING 105
SWIDTH 250 0
DWIDTH 4 0
BBX 2 7 1 0
BITMAP
80
00
80
80
80
80
40
ENDCHAR
STARTCHAR j
ENCODING 106
SWIDTH 188 0
DWIDTH 3 0
BBX 3 12 -1 -3
BITMAP
20
00
20
20
20
20
20
20
20
20
A0
40
ENDCHAR
STARTCHAR k
ENCODING 107
SWIDTH 500 0
DWIDTH 8 0
BBX 6 9 1 0
BITMAP
80
80
88
90
A0
E0
90
88
84
ENDCHAR
STARTCHAR l
ENCODING 108
SWIDTH 250 0
DWIDTH 4 0
BBX 2 10 1 0
BITMAP
80
80
80
80
80
80
80
80
80
40
ENDCHAR
STARTCHAR m
ENCODING 109
SWIDTH 688 0
DWIDTH 11 0
BBX 9 7 1 0
BITMAP
B300
CC80
8880
8880
8880
8880
8880
ENDCHAR
STARTCHAR n
ENCODING 110
SWIDTH 562 0
DWIDTH 9 0
BBX 7 7 1 0
BITMAP
B8
C4
84
84
84
84
82
ENDCHAR
STARTCHAR o
ENCODING 111
SWIDTH 500 0
DWIDTH 8 0
BBX 7 7 0 0
BITMAP
38
44
82
82
82
44
38
ENDCHAR
STARTCHAR p
ENCODING 112
SWIDTH 500 0
DWIDTH 8 0
BBX 6 10 1 -3
BITMAP
B8
C4
84
84
C4
B8
80
80
80
80
ENDCHAR
STARTCHAR q
ENCODING 113
SWIDTH 562 0
DWIDTH 9 0
BBX 7 10 1 -3
BITMAP
74
8C
84
84
8C
74
04
04
04
02
ENDCHAR
STARTCHAR r
ENCODING 114
SWIDTH 312 0
DWIDTH 5 0
BBX 3 7 1 0
BITMAP
A0
C0
80
80
80
80
80
ENDCHAR
STARTCHAR s
ENCODING 115
SWIDTH 438 0
DWIDTH 7 0
BBX 5 7 1 0
BITMAP
70
88
80
70
08
88
70
ENDCHAR
STARTCHAR t
ENCODING 116
SWIDTH 312 0
DWIDTH 5 0
BBX 4 8 0 0
BITMAP
40
E0
40
40
40
40
40
30
ENDCHAR
STARTCHAR u
ENCODING 117
SWIDTH 562 0
DWIDTH 9 0
BBX 7 7 1 0
BITMAP
84
84
84
84
84
8C
72
ENDCHAR
STARTCHAR v
ENCODING 118
SWIDTH 438 0
DWIDTH 7 0
BBX 5 7 1 0
BITMAP
88
88
88
88
50
50
20
ENDCHAR
STARTCHAR w
ENCODING 119
SWIDTH 688 0
DWIDTH 11 0
BBX 9 7 1 0
BITMAP
8880
8880
8880
8880
5500
5500
2200
ENDCHAR
STARTCHAR x
ENCODING 120
SWIDTH 438 0
DWIDTH 7 0
BBX 5 7 1 0
BITMAP
88
50
50
20
50
50
88
ENDCHAR
STARTCHAR y
ENCODING 121
SWIDTH 438 0
DWIDTH 7 0
BBX 5 10 1 -3
BITMAP
88
88
88
88
78
08
08
08
88
70
ENDCHAR
STARTCHAR z
ENCODING 122
SWIDTH 438 0
DWIDTH 7 0
BBX 6 7 0 0
BITMAP
FC
08
10
20
40
80
FC
ENDCHAR
STARTCHAR braceleft
ENCODING 123
SWIDTH 375 0
DWIDTH 6 0
BBX 5 14 0 -3
BITMAP
18
20
20
20
20
40
80
40
20
20
20
20
20
18
ENDCHAR
STARTCHAR bar
ENCODING 124
SWIDTH 250 0
DWIDTH 4 0
BBX 1 14 2 -3
BITMAP
80
80
80
80
80
80
80
80
80
80
80
80
80
80
ENDCHAR
STARTCHAR braceright
ENCODING 125
SWIDTH 375 0
DWIDTH 6 0
BBX 5 14 0 -3
BITMAP
C0
20
20
20
20
10
08
10
20
20
20
20
20
C0
ENDCHAR
STARTCHAR asciitilde
ENCODING 126
SWIDTH 562 0
DWIDTH 9 0
BBX 7 3 1 4
BITMAP
62
92
8C
ENDCHAR
STARTCHAR uni00A0
ENCODING 160
SWIDTH 312 0
DWIDTH 5 0
BBX 1 1 0 0
BITMAP
00
ENDCHAR
STARTCHAR exclamdown
ENCODING 161
SWIDTH 250 0
DWIDTH 4 0
BBX 2 11 1 -3
BITMAP
C0
00
00
40
40
40
40
40
40
40
40
ENDCHAR
STARTCHAR cent
ENCODING 162
SWIDTH 500 0
DWIDTH 8 0
BBX 6 11 1 -2
BITMAP
10
10
38
54
90
90
90
54
38
10
10
ENDCHAR
STARTCHAR sterling
ENCODING 163
SWIDTH 562 0
DWIDTH 9 0
BBX 8 11 0 0
BITMAP
3C
42
41
40
20
78
20
20
40
40
FE
ENDCHAR
STARTCHAR currency
ENCODING 164
SWIDTH 562 0
DWIDTH 9 0
BBX 7 7 1 2
BITMAP
BA
44
82
82
82
44
BA
ENDCHAR
STARTCHAR yen
ENCODING 165
SWIDTH 625 0
DWIDTH 10 0
BBX 9 11 0 0
BITMAP
C180
2200
2200
1400
1400
0800
3E00
0800
3E00
0800
1C00
ENDCHAR
STARTCHAR brokenbar
ENCODING 166
SWIDTH 188 0
DWIDTH 3 0
BBX 1 14 1 -3
BITMAP
80
80
80
80
80
00
00
00
00
80
80
80
80
80
ENDCHAR
STARTCHAR section
ENCODING 167
SWIDTH 562 0
DWIDTH 9 0
BBX 7 14 1 -3
BITMAP
78
84
80
C0
70
88
84
42
22
14
08
84
84
78
ENDCHAR
STARTCHAR dieresis
ENCODING 168
SWIDTH 375 0
DWIDTH 6 0
BBX 5 1 0 10
BITMAP
D8
ENDCHAR
STARTCHAR copyright
ENCODING 169
SWIDTH 812 0
DWIDTH 13 0
BBX 12 12 0 0
BITMAP
1F80
2040
4020
4720
8890
9010
9010
9010
48A0
4720
2040
1F80
ENDCHAR
STARTCHAR ordfeminine
ENCODING 170
SWIDTH 438 0
DWIDTH 7 0
BBX 6 7 0 5
BITMAP
70
88
08
78
88
88
7C
ENDCHAR
STARTCHAR guillemotleft
ENCODING 171
SWIDTH 500 0
DWIDTH 8 0
BBX 6 9 1 0
BITMAP
24
24
48
48
90
48
48
24
24
ENDCHAR
STARTCHAR logicalnot
ENCODING 172
SWIDTH 562 0
DWIDTH 9 0
BBX 7 4 1 4
BITMAP
FE
02
02
02
ENDCHAR
STARTCHAR registered
ENCODING 174
SWIDTH 812 0
DWIDTH 13 0
BBX 12 12 0 0
BITMAP
1F80
2040
4020
5E20
9110
9110
9E10
9210
5120
50A0
2040
1F80
ENDCHAR
STARTCHAR degree
ENCODING 176
SWIDTH 375 0
DWIDTH 6 0
BBX 4 4 1 8
BITMAP
60
90
90
60
ENDCHAR
STARTCHAR plusminus
ENCODING 177
SWIDTH 562 0
DWIDTH 9 0
BBX 7 9 1 0
BITMAP
10
10
10
FE
10
10
10
00
FE
ENDCHAR
STARTCHAR uni00B2
ENCODING 178
SWIDTH 375 0
DWIDTH 6 0
BBX 5 6 0 6
BITMAP
70
88
08
30
40
F8
ENDCHAR
STARTCHAR uni00B3
ENCODING 179
SWIDTH 375 0
DWIDTH 6 0
BBX 5 7 0 5
BITMAP
70
88
08
30
08
88
70
ENDCHAR
STARTCHAR acute
ENCODING 180
SWIDTH 312 0
DWIDTH 5 0
BBX 2 3 2 9
BITMAP
C0
C0
80
ENDCHAR
STARTCHAR uni00B5
ENCODING 181
SWIDTH 562 0
DWIDTH 9 0
BBX 7 11 1 -3
BITMAP
82
82
82
82
82
82
C6
BA
80
80
80
ENDCHAR
STARTCHAR paragraph
ENCODING 182
SWIDTH 562 0
DWIDTH 9 0
BBX 8 14 0 -3
BITMAP
7F
F2
F2
F2
F2
72
12
12
12
12
12
12
12
12
ENDCHAR
STARTCHAR periodcentered
ENCODING 183
SWIDTH 312 0
DWIDTH 5 0
BBX 2 1 2 5
BITMAP
C0
ENDCHAR
STARTCHAR cedilla
ENCODING 184
SWIDTH 312 0
DWIDTH 5 0
BBX 3 4 1 -3
BITMAP
40
60
20
E0
ENDCHAR
STARTCHAR uni00B9
ENCODING 185
SWIDTH 375 0
DWIDTH 6 0
BBX 3 6 2 5
BITMAP
40
C0
40
40
40
E0
ENDCHAR
STARTCHAR ordmasculine
ENCODING 186
SWIDTH 375 0
DWIDTH 6 0
BBX 5 6 0 6
BITMAP
70
88
88
88
88
70
ENDCHAR
STARTCHAR guillemotright
ENCODING 187
SWIDTH 500 0
DWIDTH 8 0
BBX 6 9 1 0
BITMAP
90
90
48
48
24
48
48
90
90
ENDCHAR
STARTCHAR onequarter
ENCODING 188
SWIDTH 875 0
DWIDTH 14 0
BBX 11 12 2 -1
BITMAP
4100
C100
4200
4400
4400
E800
0880
1180
2280
47E0
4080
0080
ENDCHAR
STARTCHAR onehalf
ENCODING 189
SWIDTH 875 0
DWIDTH 14 0
BBX 11 11 2 0
BITMAP
4100
C100
4200
4400
4400
E8C0
0920
1020
2040
4080
41E0
ENDCHAR
STARTCHAR threequarters
ENCODING 190
SWIDTH 875 0
DWIDTH 14 0
BBX 12 13 1 -1
BITMAP
6000
9080
1080
6100
1200
9200
6400
0440
08C0
1140
23F0
2040
0040
ENDCHAR
STARTCHAR questiondown
ENCODING 191
SWIDTH 562 0
DWIDTH 9 0
BBX 7 11 1 -3
BITMAP
18
00
10
10
10
20
40
80
82
82
7C
ENDCHAR
STARTCHAR Agrave
ENCODING 192
SWIDTH 750 0
DWIDTH 12 0
BBX 11 13 0 -1
BITMAP
1800
0800
0400
0A00
0A00
1100
1100
2080
3F80
2080
4040
4040
C060
ENDCHAR
STARTCHAR Aacute
ENCODING 193
SWIDTH 750 0
DWIDTH 12 0
BBX 11 13 0 -1
BITMAP
0300
0200
0400
0A00
0A00
1100
1100
2080
3F80
2080
4040
4040
C060
ENDCHAR
STARTCHAR Acircumflex
ENCODING 194
SWIDTH 750 0
DWIDTH 12 0
BBX 11 14 0 -2
BITMAP
0400
0A00
0000
0400
0A00
0A00
1100
1100
2080
3F80
2080
4040
4040
C060
ENDCHAR
STARTCHAR Atilde
ENCODING 195
SWIDTH 750 0
DWIDTH 12 0
BBX 11 13 0 -1
BITMAP
0C80
1300
0400
0A00
0A00
1100
1100
2080
3F80
2080
4040
4040
C060
ENDCHAR
STARTCHAR Adieresis
ENCODING 196
SWIDTH 750 0
DWIDTH 12 0
BBX 11 13 0 -1
BITMAP
0A00
0000
0400
0A00
0A00
1100
1100
2080
3F80
2080
4040
4040
C060
ENDCHAR
STARTCHAR Aring
ENCODING 197
SWIDTH 750 0
DWIDTH 12 0
BBX 11 13 0 -1
BITMAP
0400
0A00
0400
0A00
0A00
1100
1100
2080
3F80
2080
4040
4040
C060
ENDCHAR
STARTCHAR AE
ENCODING 198
SWIDTH 938 0
DWIDTH 15 0
BBX 14 11 0 0
BITMAP
03FC
0484
0480
0880
0888
10F8
1F88
2080
2080
4084
E0FC
ENDCHAR
STARTCHAR Ccedilla
ENCODING 199
SWIDTH 688 0
DWIDTH 11 0
BBX 9 14 1 -3
BITMAP
3E00
4100
8080
8000
8000
8000
8000
8000
8080
4100
3E00
0800
0400
1800
ENDCHAR
STARTCHAR Egrave
ENCODING 200
SWIDTH 562 0
DWIDTH 9 0
BBX 8 14 0 -2
BITMAP
30
10
00
FF
41
40
40
42
7E
42
40
40
41
FF
ENDCHAR
STARTCHAR Eacute
ENCODING 201
SWIDTH 562 0
DWIDTH 9 0
BBX 8 16 0 -4
BITMAP
10
00
FF
41
40
40
42
7E
42
40
40
41
FF
00
00
18
ENDCHAR
STARTCHAR Ecircumflex
ENCODING 202
SWIDTH 562 0
DWIDTH 9 0
BBX 8 15 0 -4
BITMAP
FF
41
40
40
42
7E
42
40
40
41
FF
00
00
08
14
ENDCHAR
STARTCHAR Edieresis
ENCODING 203
SWIDTH 562 0
DWIDTH 9 0
BBX 8 13 0 -1
BITMAP
14
00
FF
41
40
40
42
7E
42
40
40
41
FF
ENDCHAR
STARTCHAR Igrave
ENCODING 204
SWIDTH 250 0
DWIDTH 4 0
BBX 3 14 0 -2
BITMAP
C0
40
00
E0
40
40
40
40
40
40
40
40
40
E0
ENDCHAR
STARTCHAR Iacute
ENCODING 205
SWIDTH 250 0
DWIDTH 4 0
BBX 3 14 0 -2
BITMAP
60
40
00
E0
40
40
40
40
40
40
40
40
40
E0
ENDCHAR
STARTCHAR Icircumflex
ENCODING 206
SWIDTH 250 0
DWIDTH 4 0
BBX 3 14 0 -2
BITMAP
40
A0
00
E0
40
40
40
40
40
40
40
40
40
E0
ENDCHAR
STARTCHAR Idieresis
ENCODING 207
SWIDTH 250 0
DWIDTH 4 0
BBX 3 13 0 -1
BITMAP
A0
00
E0
40
40
40
40
40
40
40
40
40
E0
ENDCHAR
STARTCHAR Eth
ENCODING 208
SWIDTH 688 0
DWIDTH 11 0
BBX 10 11 0 0
BITMAP
FE00
4100
4080
4040
4040
F840
4040
4040
4080
4100
FE00
ENDCHAR
STARTCHAR Ntilde
ENCODING 209
SWIDTH 688 0
DWIDTH 11 0
BBX 10 14 0 -2
BITMAP
1900
2600
0000
C1C0
6080
5080
5080
4880
4880
4480
4480
4280
4280
E1C0
ENDCHAR
STARTCHAR Ograve
ENCODING 210
SWIDTH 750 0
DWIDTH 12 0
BBX 11 14 0 -2
BITMAP
0C00
0400
0000
1F00
2080
4040
8020
8020
8020
8020
8020
4040
2080
1F00
ENDCHAR
STARTCHAR Oacute
ENCODING 211
SWIDTH 750 0
DWIDTH 12 0
BBX 11 14 0 -2
BITMAP
0600
0400
0000
1F00
2080
4040
8020
8020
8020
8020
8020
4040
2080
1F00
ENDCHAR
STARTCHAR Ocircumflex
ENCODING 212
SWIDTH 750 0
DWIDTH 12 0
BBX 11 14 0 -2
BITMAP
0400
0A00
0000
1F00
2080
4040
8020
8020
8020
8020
8020
4040
2080
1F00
ENDCHAR
STARTCHAR Otilde
ENCODING 213
SWIDTH 750 0
DWIDTH 12 0
BBX 11 14 0 -3
BITMAP
0C80
1300
0000
1F00
2080
4040
8020
8020
8020
8020
8020
4040
2080
1F00
ENDCHAR
STARTCHAR Odieresis
ENCODING 214
SWIDTH 750 0
DWIDTH 12 0
BBX 11 13 0 -2
BITMAP
0A00
0000
1F00
2080
4040
8020
8020
8020
8020
8020
4040
2080
1F00
ENDCHAR
STARTCHAR multiply
ENCODING 215
SWIDTH 500 0
DWIDTH 8 0
BBX 5 5 2 3
BITMAP
88
50
20
50
88
ENDCHAR
STARTCHAR Oslash
ENCODING 216
SWIDTH 812 0
DWIDTH 13 0
BBX 12 12 0 -1
BITMAP
1F10
20A0
4040
80A0
8120
8220
8420
8820
5040
2080
5F00
8000
ENDCHAR
STARTCHAR Ugrave
ENCODING 217
SWIDTH 750 0
DWIDTH 12 0
BBX 11 13 0 -1
BITMAP
0C00
0400
E0E0
4040
4040
4040
4040
4040
4040
4040
4040
2080
1F00
ENDCHAR
STARTCHAR Uacute
ENCODING 218
SWIDTH 750 0
DWIDTH 12 0
BBX 11 13 0 -1
BITMAP
0600
0400
E0E0
4040
4040
4040
4040
4040
4040
4040
4040
2080
1F00
ENDCHAR
STARTCHAR Ucircumflex
ENCODING 219
SWIDTH 750 0
DWIDTH 12 0
BBX 11 14 0 -2
BITMAP
0400
0A00
0000
E0E0
4040
4040
4040
4040
4040
4040
4040
4040
2080
1F00
ENDCHAR
STARTCHAR Udieresis
ENCODING 220
SWIDTH 750 0
DWIDTH 12 0
BBX 11 13 0 -1
BITMAP
0A00
0000
E0E0
4040
4040
4040
4040
4040
4040
4040
4040
2080
1F00
ENDCHAR
STARTCHAR Yacute
ENCODING 221
SWIDTH 625 0
DWIDTH 10 0
BBX 9 13 0 -1
BITMAP
0C00
0800
C180
2200
2200
1400
1400
0800
0800
0800
0800
0800
1C00
ENDCHAR
STARTCHAR Thorn
ENCODING 222
SWIDTH 625 0
DWIDTH 10 0
BBX 9 11 0 0
BITMAP
4000
4000
7E00
4100
4080
4080
4100
7E00
4000
4000
E000
ENDCHAR
STARTCHAR germandbls
ENCODING 223
SWIDTH 625 0
DWIDTH 10 0
BBX 9 11 0 0
BITMAP
3C00
4200
4200
4400
4800
4800
4600
4100
4080
4880
E700
ENDCHAR
STARTCHAR agrave
ENCODING 224
SWIDTH 500 0
DWIDTH 8 0
BBX 6 11 1 0
BITMAP
60
20
00
00
70
88
08
78
88
88
7C
ENDCHAR
STARTCHAR aacute
ENCODING 225
SWIDTH 500 0
DWIDTH 8 0
BBX 6 10 1 0
BITMAP
18
10
00
70
88
08
78
88
88
7C
ENDCHAR
STARTCHAR acircumflex
ENCODING 226
SWIDTH 500 0
DWIDTH 8 0
BBX 6 10 1 0
BITMAP
20
50
00
70
88
08
78
88
88
7C
ENDCHAR
STARTCHAR atilde
ENCODING 227
SWIDTH 500 0
DWIDTH 8 0
BBX 6 10 1 0
BITMAP
64
98
00
70
88
08
78
88
88
7C
ENDCHAR
STARTCHAR adieresis
ENCODING 228
SWIDTH 500 0
DWIDTH 8 0
BBX 6 10 1 0
BITMAP
50
00
00
70
88
08
78
88
88
7C
ENDCHAR
STARTCHAR aring
ENCODING 229
SWIDTH 500 0
DWIDTH 8 0
BBX 6 11 1 0
BITMAP
20
50
20
00
70
88
08
78
88
88
7C
ENDCHAR
STARTCHAR ae
ENCODING 230
SWIDTH 812 0
DWIDTH 13 0
BBX 11 7 1 0
BITMAP
73C0
8C20
0C20
7FE0
8C00
8C20
7BC0
ENDCHAR
STARTCHAR ccedilla
ENCODING 231
SWIDTH 500 0
DWIDTH 8 0
BBX 6 10 1 -3
BITMAP
38
44
80
80
80
44
38
20
10
60
ENDCHAR
STARTCHAR egrave
ENCODING 232
SWIDTH 500 0
DWIDTH 8 0
BBX 6 10 1 0
BITMAP
60
20
00
78
84
84
F8
80
84
78
ENDCHAR
STARTCHAR eacute
ENCODING 233
SWIDTH 500 0
DWIDTH 8 0
BBX 6 10 1 0
BITMAP
30
20
00
78
84
84
F8
80
84
78
ENDCHAR
STARTCHAR ecircumflex
ENCODING 234
SWIDTH 500 0
DWIDTH 8 0
BBX 6 10 1 0
BITMAP
20
50
00
78
84
84
F8
80
84
78
ENDCHAR
STARTCHAR edieresis
ENCODING 235
SWIDTH 500 0
DWIDTH 8 0
BBX 6 10 1 0
BITMAP
50
00
00
78
84
84
F8
80
84
78
ENDCHAR
STARTCHAR igrave
ENCODING 236
SWIDTH 250 0
DWIDTH 4 0
BBX 2 10 1 0
BITMAP
C0
40
00
40
40
40
40
40
40
40
ENDCHAR
STARTCHAR iacute
ENCODING 237
SWIDTH 312 0
DWIDTH 5 0
BBX 2 11 2 0
BITMAP
C0
80
00
00
80
80
80
80
80
80
80
ENDCHAR
STARTCHAR icircumflex
ENCODING 238
SWIDTH 312 0
DWIDTH 5 0
BBX 3 10 1 0
BITMAP
40
A0
00
40
40
40
40
40
40
40
ENDCHAR
STARTCHAR idieresis
ENCODING 239
SWIDTH 312 0
DWIDTH 5 0
BBX 3 10 1 0
BITMAP
A0
00
00
40
40
40
40
40
40
40
ENDCHAR
STARTCHAR eth
ENCODING 240
SWIDTH 562 0
DWIDTH 9 0
BBX 7 12 1 0
BITMAP
24
18
28
04
3C
44
82
82
82
82
44
38
ENDCHAR
STARTCHAR ntilde
ENCODING 241
SWIDTH 562 0
DWIDTH 9 0
BBX 7 11 1 0
BITMAP
64
98
00
00
B8
C4
84
84
84
84
82
ENDCHAR
STARTCHAR ograve
ENCODING 242
SWIDTH 500 0
DWIDTH 8 0
BBX 7 11 0 0
BITMAP
30
10
00
00
38
44
82
82
82
44
38
ENDCHAR
STARTCHAR oacute
ENCODING 243
SWIDTH 500 0
DWIDTH 8 0
BBX 7 11 0 0
BITMAP
18
10
00
00
38
44
82
82
82
44
38
ENDCHAR
STARTCHAR ocircumflex
ENCODING 244
SWIDTH 500 0
DWIDTH 8 0
BBX 7 10 0 0
BITMAP
10
28
00
38
44
82
82
82
44
38
ENDCHAR
STARTCHAR otilde
ENCODING 245
SWIDTH 500 0
DWIDTH 8 0
BBX 7 10 0 0
BITMAP
32
4C
00
38
44
82
82
82
44
38
ENDCHAR
STARTCHAR odieresis
ENCODING 246
SWIDTH 500 0
DWIDTH 8 0
BBX 7 10 0 0
BITMAP
28
00
00
38
44
82
82
82
44
38
ENDCHAR
STARTCHAR divide
ENCODING 247
SWIDTH 562 0
DWIDTH 9 0
BBX 7 5 1 3
BITMAP
10
00
FE
00
10
ENDCHAR
STARTCHAR oslash
ENCODING 248
SWIDTH 500 0
DWIDTH 8 0
BBX 7 7 0 0
BITMAP
3A
44
8A
92
A2
44
F8
ENDCHAR
STARTCHAR ugrave
ENCODING 249
SWIDTH 562 0
DWIDTH 9 0
BBX 7 11 1 0
BITMAP
60
20
00
00
84
84
84
84
84
8C
72
ENDCHAR
STARTCHAR uacute
ENCODING 250
SWIDTH 562 0
DWIDTH 9 0
BBX 7 11 1 0
BITMAP
30
20
00
00
84
84
84
84
84
8C
72
ENDCHAR
STARTCHAR ucircumflex
ENCODING 251
SWIDTH 562 0
DWIDTH 9 0
BBX 7 10 1 0
BITMAP
20
50
00
84
84
84
84
84
8C
72
ENDCHAR
STARTCHAR udieresis
ENCODING 252
SWIDTH 562 0
DWIDTH 9 0
BBX 7 10 1 0
BITMAP
50
00
00
84
84
84
84
84
8C
72
ENDCHAR
STARTCHAR yacute
ENCODING 253
SWIDTH 438 0
DWIDTH 7 0
BBX 5 13 1 -3
BITMAP
30
20
00
88
88
88
88
78
08
08
08
88
70
ENDCHAR
STARTCHAR thorn
ENCODING 254
SWIDTH 562 0
DWIDTH 9 0
BBX 7 14 1 -3
BITMAP
80
80
80
80
B8
C4
82
82
82
C4
B8
80
80
80
ENDCHAR
STARTCHAR ydieresis
ENCODING 255
SWIDTH 438 0
DWIDTH 7 0
BBX 5 13 1 -3
BITMAP
50
00
00
88
88
88
88
78
08
08
08
88
70
ENDCHAR
STARTCHAR Amacron
ENCODING 256
SWIDTH 750 0
DWIDTH 12 0
BBX 11 13 0 -1
BITMAP
0E00
0000
0400
0A00
0A00
1100
1100
2080
3F80
2080
4040
4040
C060
ENDCHAR
STARTCHAR amacron
ENCODING 257
SWIDTH 500 0
DWIDTH 8 0
BBX 6 10 1 0
BITMAP
78
00
00
70
88
08
78
88
88
7C
ENDCHAR
STARTCHAR Abreve
ENCODING 258
SWIDTH 750 0
DWIDTH 12 0
BBX 11 14 0 -2
BITMAP
1200
0C00
0000
0400
0A00
0A00
1100
1100
2080
3F80
2080
4040
4040
C060
ENDCHAR
STARTCHAR abreve
ENCODING 259
SWIDTH 500 0
DWIDTH 8 0
BBX 6 10 1 0
BITMAP
48
30
00
70
88
08
78
88
88
7C
ENDCHAR
STARTCHAR Aogonek
ENCODING 260
SWIDTH 750 0
DWIDTH 12 0
BBX 11 14 0 -3
BITMAP
0400
0A00
0A00
1100
1100
2080
3F80
2080
4040
4040
C060
0080
00A0
0040
ENDCHAR
STARTCHAR aogonek
ENCODING 261
SWIDTH 562 0
DWIDTH 9 0
BBX 7 10 1 -3
BITMAP
70
88
08
78
88
88
7E
04
08
06
ENDCHAR
STARTCHAR Cacute
ENCODING 262
SWIDTH 688 0
DWIDTH 11 0
BBX 9 13 1 -1
BITMAP
0400
0800
3E00
4100
8080
8000
8000
8000
8000
8000
8080
4100
3E00
ENDCHAR
STARTCHAR cacute
ENCODING 263
SWIDTH 500 0
DWIDTH 8 0
BBX 6 11 1 0
BITMAP
18
10
00
00
38
44
80
80
80
44
38
ENDCHAR
STARTCHAR Ccircumflex
ENCODING 264
SWIDTH 688 0
DWIDTH 11 0
BBX 9 14 1 -2
BITMAP
0800
1400
0000
3E00
4100
8080
8000
8000
8000
8000
8000
8080
4100
3E00
ENDCHAR
STARTCHAR ccircumflex
ENCODING 265
SWIDTH 500 0
DWIDTH 8 0
BBX 6 11 1 0
BITMAP
10
28
00
00
38
44
80
80
80
44
38
ENDCHAR
STARTCHAR Cdotaccent
ENCODING 266
SWIDTH 688 0
DWIDTH 11 0
BBX 9 13 1 -2
BITMAP
0800
0000
3E00
4100
8080
8000
8000
8000
8000
8000
8080
4100
3E00
ENDCHAR
STARTCHAR cdotaccent
ENCODING 267
SWIDTH 500 0
DWIDTH 8 0
BBX 6 11 1 0
BITMAP
10
00
00
00
38
44
80
80
80
44
38
ENDCHAR
STARTCHAR Ccaron
ENCODING 268
SWIDTH 688 0
DWIDTH 11 0
BBX 9 14 1 -2
BITMAP
1400
0800
0000
3E00
4100
8080
8000
8000
8000
8000
8000
8080
4100
3E00
ENDCHAR
STARTCHAR ccaron
ENCODING 269
SWIDTH 500 0
DWIDTH 8 0
BBX 6 11 1 0
BITMAP
28
10
00
00
38
44
80
80
80
44
38
ENDCHAR
STARTCHAR Dcaron
ENCODING 270
SWIDTH 688 0
DWIDTH 11 0
BBX 10 14 0 -2
BITMAP
1400
0800
0000
FE00
4100
4080
4040
4040
4040
4040
4040
4080
4100
FE00
ENDCHAR
STARTCHAR dcaron
ENCODING 271
SWIDTH 688 0
DWIDTH 11 0
BBX 9 11 1 0
BITMAP
0180
0480
0500
0400
0400
3400
4C00
8400
8400
4C00
3400
ENDCHAR
STARTCHAR Dcroat
ENCODING 272
SWIDTH 688 0
DWIDTH 11 0
BBX 10 11 0 0
BITMAP
FE00
4100
4080
4040
4040
F840
4040
4040
4080
4100
FE00
ENDCHAR
STARTCHAR dcroat
ENCODING 273
SWIDTH 562 0
DWIDTH 9 0
BBX 7 10 1 0
BITMAP
04
1E
04
04
34
4C
84
84
4C
34
ENDCHAR
STARTCHAR Emacron
ENCODING 274
SWIDTH 562 0
DWIDTH 9 0
BBX 8 13 0 -1
BITMAP
3C
00
FF
41
40
40
42
7E
42
40
40
41
FF
ENDCHAR
STARTCHAR emacron
ENCODING 275
SWIDTH 500 0
DWIDTH 8 0
BBX 6 10 1 0
BITMAP
78
00
00
78
84
84
F8
80
84
78
ENDCHAR
STARTCHAR Ebreve
ENCODING 276
SWIDTH 562 0
DWIDTH 9 0
BBX 8 14 0 -2
BITMAP
12
0C
00
FF
41
40
40
42
7E
42
40
40
41
FF
ENDCHAR
STARTCHAR ebreve
ENCODING 277
SWIDTH 500 0
DWIDTH 8 0
BBX 6 10 1 0
BITMAP
48
30
00
78
84
84
F8
80
84
78
ENDCHAR
STARTCHAR Edotaccent
ENCODING 278
SWIDTH 562 0
DWIDTH 9 0
BBX 8 13 0 -1
BITMAP
08
00
FF
41
40
40
42
7E
42
40
40
41
FF
ENDCHAR
STARTCHAR edotaccent
ENCODING 279
SWIDTH 500 0
DWIDTH 8 0
BBX 6 9 1 0
BITMAP
20
00
78
84
84
F8
80
84
78
ENDCHAR
STARTCHAR Eogonek
ENCODING 280
SWIDTH 625 0
DWIDTH 10 0
BBX 9 14 0 -3
BITMAP
FF00
4100
4000
4000
4200
7E00
4200
4000
4000
4000
FF80
0100
0200
0180
ENDCHAR
STARTCHAR eogonek
ENCODING 281
SWIDTH 562 0
DWIDTH 9 0
BBX 7 10 1 -3
BITMAP
78
84
84
F8
80
84
78
08
12
1C
ENDCHAR
STARTCHAR Ecaron
ENCODING 282
SWIDTH 562 0
DWIDTH 9 0
BBX 8 14 0 -2
BITMAP
14
08
00
FF
41
40
40
42
7E
42
40
40
41
FF
ENDCHAR
STARTCHAR ecaron
ENCODING 283
SWIDTH 500 0
DWIDTH 8 0
BBX 6 11 1 0
BITMAP
50
20
00
00
78
84
84
F8
80
84
78
ENDCHAR
STARTCHAR Gcircumflex
ENCODING 284
SWIDTH 750 0
DWIDTH 12 0
BBX 10 14 1 -2
BITMAP
0800
1400
0000
3F00
4080
80C0
8000
8000
83C0
8240
8040
8040
4080
3F00
ENDCHAR
STARTCHAR gcircumflex
ENCODING 285
SWIDTH 438 0
DWIDTH 7 0
BBX 5 12 1 -2
BITMAP
20
50
00
78
88
88
88
78
08
08
88
70
ENDCHAR
STARTCHAR Gbreve
ENCODING 286
SWIDTH 750 0
DWIDTH 12 0
BBX 10 14 1 -2
BITMAP
1200
0C00
0000
3F00
4080
80C0
8000
8000
83C0
8240
8040
8040
4080
3F00
ENDCHAR
STARTCHAR gbreve
ENCODING 287
SWIDTH 438 0
DWIDTH 7 0
BBX 5 12 1 -2
BITMAP
48
30
00
78
88
88
88
78
08
08
88
70
ENDCHAR
STARTCHAR Gdotaccent
ENCODING 288
SWIDTH 750 0
DWIDTH 12 0
BBX 10 13 1 -1
BITMAP
0800
0000
3F00
4080
8040
8000
8000
83C0
8240
8040
8040
4080
3F00
ENDCHAR
STARTCHAR gdotaccent
ENCODING 289
SWIDTH 438 0
DWIDTH 7 0
BBX 5 12 1 -2
BITMAP
20
00
00
78
88
88
88
78
08
08
88
70
ENDCHAR
STARTCHAR Gcommaaccent
ENCODING 290
SWIDTH 750 0
DWIDTH 12 0
BBX 10 15 1 -4
BITMAP
3F00
4080
8040
8000
8000
83C0
8240
8040
8040
4080
3F00
0000
0600
0200
0400
ENDCHAR
STARTCHAR gcommaaccent
ENCODING 291
SWIDTH 438 0
DWIDTH 7 0
BBX 5 12 1 -2
BITMAP
20
30
00
78
88
88
88
78
08
08
88
70
ENDCHAR
STARTCHAR Hcircumflex
ENCODING 292
SWIDTH 750 0
DWIDTH 12 0
BBX 11 14 0 -2
BITMAP
0400
0A00
0000
E0E0
4040
4040
4040
7FC0
4040
4040
4040
4040
4040
E0E0
ENDCHAR
STARTCHAR hcircumflex
ENCODING 293
SWIDTH 438 0
DWIDTH 7 0
BBX 5 12 1 0
BITMAP
10
28
80
80
80
80
B0
C8
88
88
88
88
ENDCHAR
STARTCHAR Hbar
ENCODING 294
SWIDTH 750 0
DWIDTH 12 0
BBX 11 11 0 0
BITMAP
E0E0
4040
FFE0
4040
7FC0
4040
4040
4040
4040
4040
E0E0
ENDCHAR
STARTCHAR hbar
ENCODING 295
SWIDTH 438 0
DWIDTH 7 0
BBX 6 10 0 0
BITMAP
40
E0
40
40
58
64
44
44
44
44
ENDCHAR
STARTCHAR Itilde
ENCODING 296
SWIDTH 375 0
DWIDTH 6 0
BBX 6 14 -1 -2
BITMAP
64
98
00
70
20
20
20
20
20
20
20
20
20
70
ENDCHAR
STARTCHAR itilde
ENCODING 297
SWIDTH 375 0
DWIDTH 6 0
BBX 6 8 -1 0
BITMAP
64
98
00
20
20
20
20
10
ENDCHAR
STARTCHAR Imacron
ENCODING 298
SWIDTH 250 0
DWIDTH 4 0
BBX 3 13 0 -2
BITMAP
E0
00
E0
40
40
40
40
40
40
40
40
40
E0
ENDCHAR
STARTCHAR imacron
ENCODING 299
SWIDTH 250 0
DWIDTH 4 0
BBX 3 7 0 0
BITMAP
E0
00
40
40
40
40
20
ENDCHAR
STARTCHAR Ibreve
ENCODING 300
SWIDTH 312 0
DWIDTH 5 0
BBX 4 14 0 -2
BITMAP
90
60
00
E0
40
40
40
40
40
40
40
40
40
E0
ENDCHAR
STARTCHAR ibreve
ENCODING 301
SWIDTH 312 0
DWIDTH 5 0
BBX 4 8 0 0
BITMAP
90
60
00
40
40
40
40
20
ENDCHAR
STARTCHAR Iogonek
ENCODING 302
SWIDTH 312 0
DWIDTH 5 0
BBX 4 14 0 -3
BITMAP
E0
40
40
40
40
40
40
40
40
40
E0
40
90
E0
ENDCHAR
STARTCHAR iogonek
ENCODING 303
SWIDTH 312 0
DWIDTH 5 0
BBX 4 10 0 -3
BITMAP
40
00
40
40
40
40
20
40
90
60
ENDCHAR
STARTCHAR Idotaccent
ENCODING 304
SWIDTH 250 0
DWIDTH 4 0
BBX 3 13 0 -1
BITMAP
40
00
E0
40
40
40
40
40
40
40
40
40
E0
ENDCHAR
STARTCHAR dotlessi
ENCODING 305
SWIDTH 250 0
DWIDTH 4 0
BBX 1 7 2 0
BITMAP
80
80
80
80
80
80
80
ENDCHAR
STARTCHAR IJ
ENCODING 306
SWIDTH 812 0
DWIDTH 13 0
BBX 11 11 1 0
BITMAP
E1E0
4040
4040
4040
4040
4040
4040
5040
5040
4880
E700
ENDCHAR
STARTCHAR ij
ENCODING 307
SWIDTH 438 0
DWIDTH 7 0
BBX 5 12 1 -3
BITMAP
08
80
08
88
88
88
88
88
48
08
28
10
ENDCHAR
STARTCHAR Jcircumflex
ENCODING 308
SWIDTH 562 0
DWIDTH 9 0
BBX 8 14 0 -2
BITMAP
02
05
00
07
02
02
02
02
02
02
82
82
44
38
ENDCHAR
STARTCHAR jcircumflex
ENCODING 309
SWIDTH 250 0
DWIDTH 4 0
BBX 4 13 -1 -3
BITMAP
20
50
00
20
20
20
20
20
20
20
20
A0
40
ENDCHAR
STARTCHAR Kcommaaccent
ENCODING 310
SWIDTH 688 0
DWIDTH 11 0
BBX 10 14 0 -3
BITMAP
C180
4200
4400
4800
7000
4800
4400
4200
4100
4080
E0C0
0000
0C00
0400
ENDCHAR
STARTCHAR kcommaaccent
ENCODING 311
SWIDTH 500 0
DWIDTH 8 0
BBX 6 12 1 -3
BITMAP
80
80
88
90
A0
E0
90
88
84
00
30
10
ENDCHAR
STARTCHAR kgreenlandic
ENCODING 312
SWIDTH 500 0
DWIDTH 8 0
BBX 6 8 1 0
BITMAP
88
90
A0
C0
E0
90
88
84
ENDCHAR
STARTCHAR Lacute
ENCODING 313
SWIDTH 500 0
DWIDTH 8 0
BBX 7 14 0 -2
BITMAP
60
40
00
E0
40
40
40
40
40
40
40
40
42
FE
ENDCHAR
STARTCHAR lacute
ENCODING 314
SWIDTH 250 0
DWIDTH 4 0
BBX 2 11 1 0
BITMAP
C0
80
00
80
80
80
80
80
80
80
80
ENDCHAR
STARTCHAR Lcommaaccent
ENCODING 315
SWIDTH 500 0
DWIDTH 8 0
BBX 7 14 0 -3
BITMAP
E0
40
40
40
40
40
40
40
40
42
FE
00
18
08
ENDCHAR
STARTCHAR lcommaaccent
ENCODING 316
SWIDTH 250 0
DWIDTH 4 0
BBX 2 13 1 -3
BITMAP
80
80
80
80
80
80
80
80
80
40
00
C0
40
ENDCHAR
STARTCHAR Lcaron
ENCODING 317
SWIDTH 500 0
DWIDTH 8 0
BBX 7 11 0 0
BITMAP
E6
42
40
40
40
40
40
40
40
42
FE
ENDCHAR
STARTCHAR lcaron
ENCODING 318
SWIDTH 375 0
DWIDTH 6 0
BBX 4 11 1 0
BITMAP
30
90
80
80
80
80
80
80
80
80
40
ENDCHAR
STARTCHAR Ldot
ENCODING 319
SWIDTH 500 0
DWIDTH 8 0
BBX 7 11 0 0
BITMAP
E0
40
40
40
40
48
40
40
40
42
FE
ENDCHAR
STARTCHAR ldot
ENCODING 320
SWIDTH 312 0
DWIDTH 5 0
BBX 3 10 1 0
BITMAP
80
80
80
80
A0
80
80
80
80
40
ENDCHAR
STARTCHAR Lslash
ENCODING 321
SWIDTH 500 0
DWIDTH 8 0
BBX 8 11 -1 0
BITMAP
70
20
20
24
28
30
60
A0
20
21
7F
ENDCHAR
STARTCHAR lslash
ENCODING 322
SWIDTH 312 0
DWIDTH 5 0
BBX 5 10 -1 0
BITMAP
20
20
28
30
20
60
A0
20
20
10
ENDCHAR
STARTCHAR Nacute
ENCODING 323
SWIDTH 688 0
DWIDTH 11 0
BBX 10 14 0 -2
BITMAP
0C00
0400
0000
C1C0
6080
5080
5080
4880
4880
4480
4480
4280
4280
E1C0
ENDCHAR
STARTCHAR nacute
ENCODING 324
SWIDTH 562 0
DWIDTH 9 0
BBX 7 10 1 0
BITMAP
30
20
00
B8
C4
84
84
84
84
82
ENDCHAR
STARTCHAR Ncommaaccent
ENCODING 325
SWIDTH 688 0
DWIDTH 11 0
BBX 10 14 0 -3
BITMAP
C1C0
6080
5080
5080
4880
4880
4480
4480
4280
4280
E1C0
0000
0C00
0400
ENDCHAR
STARTCHAR ncommaaccent
ENCODING 326
SWIDTH 562 0
DWIDTH 9 0
BBX 7 10 1 -3
BITMAP
B8
C4
84
84
84
84
82
00
30
10
ENDCHAR
STARTCHAR Ncaron
ENCODING 327
SWIDTH 688 0
DWIDTH 11 0
BBX 10 14 0 -2
BITMAP
1100
0E00
0000
C1C0
6080
5080
5080
4880
4880
4480
4480
4280
4280
E1C0
ENDCHAR
STARTCHAR ncaron
ENCODING 328
SWIDTH 562 0
DWIDTH 9 0
BBX 7 10 1 0
BITMAP
28
10
00
B8
C4
84
84
84
84
82
ENDCHAR
STARTCHAR napostrophe
ENCODING 329
SWIDTH 562 0
DWIDTH 9 0
BBX 9 10 -1 0
BITMAP
C000
4000
0000
2E00
3100
2100
2100
2100
2100
2080
ENDCHAR
STARTCHAR Eng
ENCODING 330
SWIDTH 688 0
DWIDTH 11 0
BBX 10 13 0 -2
BITMAP
C1C0
6080
5080
5080
4880
4880
4480
4480
4280
4280
E180
0080
0300
ENDCHAR
STARTCHAR eng
ENCODING 331
SWIDTH 500 0
DWIDTH 8 0
BBX 6 10 1 -3
BITMAP
B8
C4
84
84
84
84
84
04
14
08
ENDCHAR
STARTCHAR Omacron
ENCODING 332
SWIDTH 750 0
DWIDTH 12 0
BBX 11 13 0 -3
BITMAP
0F00
0000
1F00
2080
4040
8020
8020
8020
8020
8020
4040
2080
1F00
ENDCHAR
STARTCHAR omacron
ENCODING 333
SWIDTH 500 0
DWIDTH 8 0
BBX 7 9 0 0
BITMAP
7C
00
38
44
82
82
82
44
38
ENDCHAR
STARTCHAR Obreve
ENCODING 334
SWIDTH 750 0
DWIDTH 12 0
BBX 11 14 0 -3
BITMAP
0900
0600
0000
1F00
2080
4040
8020
8020
8020
8020
8020
4040
2080
1F00
ENDCHAR
STARTCHAR obreve
ENCODING 335
SWIDTH 500 0
DWIDTH 8 0
BBX 7 10 0 0
BITMAP
44
38
00
38
44
82
82
82
44
38
ENDCHAR
STARTCHAR Ohungarumlaut
ENCODING 336
SWIDTH 750 0
DWIDTH 12 0
BBX 11 14 0 -3
BITMAP
1B00
1200
0000
1F00
2080
4040
8020
8020
8020
8020
8020
4040
2080
1F00
ENDCHAR
STARTCHAR ohungarumlaut
ENCODING 337
SWIDTH 500 0
DWIDTH 8 0
BBX 7 10 0 0
BITMAP
6C
48
00
38
44
82
82
82
44
38
ENDCHAR
STARTCHAR OE
ENCODING 338
SWIDTH 875 0
DWIDTH 14 0
BBX 13 11 0 0
BITMAP
1FF8
2208
4200
8200
8220
83E0
8220
8200
4200
2208
1FF8
ENDCHAR
STARTCHAR oe
ENCODING 339
SWIDTH 812 0
DWIDTH 13 0
BBX 12 7 0 0
BITMAP
39E0
4610
8210
83E0
8200
4610
39E0
ENDCHAR
STARTCHAR Racute
ENCODING 340
SWIDTH 750 0
DWIDTH 12 0
BBX 11 14 0 -2
BITMAP
0C00
0800
0000
FF00
4080
4080
4080
4080
7F00
4200
4100
4080
4040
E0E0
ENDCHAR
STARTCHAR racute
ENCODING 341
SWIDTH 312 0
DWIDTH 5 0
BBX 3 10 1 0
BITMAP
60
40
00
A0
C0
80
80
80
80
80
ENDCHAR
STARTCHAR Rcommaaccent
ENCODING 342
SWIDTH 750 0
DWIDTH 12 0
BBX 11 14 0 -3
BITMAP
FF00
4080
4080
4080
4080
7F00
4200
4100
4080
4040
E0E0
0000
0600
0200
ENDCHAR
STARTCHAR rcommaaccent
ENCODING 343
SWIDTH 312 0
DWIDTH 5 0
BBX 3 10 1 -3
BITMAP
A0
C0
80
80
80
80
80
00
C0
40
ENDCHAR
STARTCHAR Rcaron
ENCODING 344
SWIDTH 750 0
DWIDTH 12 0
BBX 11 14 0 -2
BITMAP
1200
0C00
0000
FF00
4080
4080
4080
4080
7F00
4200
4100
4080
4040
E0E0
ENDCHAR
STARTCHAR rcaron
ENCODING 345
SWIDTH 312 0
DWIDTH 5 0
BBX 3 10 1 0
BITMAP
A0
40
00
A0
C0
80
80
80
80
80
ENDCHAR
STARTCHAR Sacute
ENCODING 346
SWIDTH 688 0
DWIDTH 11 0
BBX 10 14 0 -2
BITMAP
0600
0400
0000
1F00
2080
4080
4000
2000
1F00
0080
C040
4040
2080
1F00
ENDCHAR
STARTCHAR sacute
ENCODING 347
SWIDTH 438 0
DWIDTH 7 0
BBX 5 10 1 0
BITMAP
30
20
00
70
88
80
70
08
88
70
ENDCHAR
STARTCHAR Scircumflex
ENCODING 348
SWIDTH 688 0
DWIDTH 11 0
BBX 10 14 0 -2
BITMAP
0400
0A00
0000
1F00
2080
4080
4000
2000
1F00
0080
C040
4040
2080
1F00
ENDCHAR
STARTCHAR scircumflex
ENCODING 349
SWIDTH 438 0
DWIDTH 7 0
BBX 5 10 1 0
BITMAP
20
50
00
70
88
80
70
08
88
70
ENDCHAR
STARTCHAR Scedilla
ENCODING 350
SWIDTH 688 0
DWIDTH 11 0
BBX 10 14 0 -3
BITMAP
1F00
2080
4080
4000
2000
1F00
0080
C040
4040
2080
1F00
0400
1200
0C00
ENDCHAR
STARTCHAR scedilla
ENCODING 351
SWIDTH 438 0
DWIDTH 7 0
BBX 5 10 1 -3
BITMAP
70
88
80
70
08
88
70
20
90
60
ENDCHAR
STARTCHAR Scaron
ENCODING 352
SWIDTH 688 0
DWIDTH 11 0
BBX 10 14 0 -2
BITMAP
0A00
0400
0000
1F00
2080
4080
4000
2000
1F00
0080
C040
4040
2080
1F00
ENDCHAR
STARTCHAR scaron
ENCODING 353
SWIDTH 438 0
DWIDTH 7 0
BBX 5 10 1 0
BITMAP
50
20
00
70
88
80
70
08
88
70
ENDCHAR
STARTCHAR Tcommaaccent
ENCODING 354
SWIDTH 625 0
DWIDTH 10 0
BBX 9 14 0 -3
BITMAP
FF80
8880
0800
0800
0800
0800
0800
0800
0800
0800
0800
0800
2400
1800
ENDCHAR
STARTCHAR tcommaaccent
ENCODING 355
SWIDTH 312 0
DWIDTH 5 0
BBX 4 11 0 -3
BITMAP
40
E0
40
40
40
40
40
30
20
90
60
ENDCHAR
STARTCHAR Tcaron
ENCODING 356
SWIDTH 625 0
DWIDTH 10 0
BBX 9 14 0 -2
BITMAP
1400
0800
0000
FF80
8880
0800
0800
0800
0800
0800
0800
0800
0800
1C00
ENDCHAR
STARTCHAR tcaron
ENCODING 357
SWIDTH 375 0
DWIDTH 6 0
BBX 5 10 0 0
BITMAP
18
08
40
E0
40
40
40
40
40
30
ENDCHAR
STARTCHAR Tbar
ENCODING 358
SWIDTH 625 0
DWIDTH 10 0
BBX 9 11 0 0
BITMAP
FF80
8880
0800
0800
0800
3E00
0800
0800
0800
0800
1C00
ENDCHAR
STARTCHAR tbar
ENCODING 359
SWIDTH 312 0
DWIDTH 5 0
BBX 4 8 0 0
BITMAP
40
E0
40
40
E0
40
40
30
ENDCHAR
STARTCHAR Utilde
ENCODING 360
SWIDTH 750 0
DWIDTH 12 0
BBX 11 14 0 -2
BITMAP
1900
2600
0000
E0E0
4040
4040
4040
4040
4040
4040
4040
4040
2080
1F00
ENDCHAR
STARTCHAR utilde
ENCODING 361
SWIDTH 562 0
DWIDTH 9 0
BBX 7 10 1 0
BITMAP
64
98
00
84
84
84
84
84
8C
72
ENDCHAR
STARTCHAR Umacron
ENCODING 362
SWIDTH 750 0
DWIDTH 12 0
BBX 11 13 0 -1
BITMAP
1F00
0000
E0E0
4040
4040
4040
4040
4040
4040
4040
4040
2080
1F00
ENDCHAR
STARTCHAR umacron
ENCODING 363
SWIDTH 688 0
DWIDTH 11 0
BBX 10 11 0 0
BITMAP
1F00
2080
4080
4000
2000
1F00
0080
C040
4040
2080
1F00
ENDCHAR
STARTCHAR Ubreve
ENCODING 364
SWIDTH 750 0
DWIDTH 12 0
BBX 11 13 0 -1
BITMAP
1200
0C00
E0E0
4040
4040
4040
4040
4040
4040
4040
4040
2080
1F00
ENDCHAR
STARTCHAR ubreve
ENCODING 365
SWIDTH 562 0
DWIDTH 9 0
BBX 7 10 1 0
BITMAP
48
30
00
84
84
84
84
84
8C
72
ENDCHAR
STARTCHAR Uring
ENCODING 366
SWIDTH 750 0
DWIDTH 12 0
BBX 11 14 0 -2
BITMAP
0400
0A00
0400
E0E0
4040
4040
4040
4040
4040
4040
4040
4040
2080
1F00
ENDCHAR
STARTCHAR uring
ENCODING 367
SWIDTH 562 0
DWIDTH 9 0
BBX 7 10 1 0
BITMAP
10
28
10
84
84
84
84
84
8C
72
ENDCHAR
STARTCHAR Uhungarumlaut
ENCODING 368
SWIDTH 750 0
DWIDTH 12 0
BBX 11 13 0 -1
BITMAP
1B00
1200
E0E0
4040
4040
4040
4040
4040
4040
4040
4040
2080
1F00
ENDCHAR
STARTCHAR uhungarumlaut
ENCODING 369
SWIDTH 562 0
DWIDTH 9 0
BBX 7 10 1 0
BITMAP
6C
48
00
84
84
84
84
84
8C
72
ENDCHAR
STARTCHAR Uogonek
ENCODING 370
SWIDTH 750 0
DWIDTH 12 0
BBX 11 14 0 -4
BITMAP
E0E0
4040
4040
4040
4040
4040
4040
4040
4040
2080
1F00
0400
0500
0200
ENDCHAR
STARTCHAR uogonek
ENCODING 371
SWIDTH 625 0
DWIDTH 10 0
BBX 8 10 1 -3
BITMAP
84
84
84
84
84
8C
72
04
09
06
ENDCHAR
STARTCHAR Wcircumflex
ENCODING 372
SWIDTH 938 0
DWIDTH 15 0
BBX 14 13 0 -1
BITMAP
0100
0280
C004
4104
4284
4284
2288
2288
2448
1450
1450
1450
0820
ENDCHAR
STARTCHAR wcircumflex
ENCODING 373
SWIDTH 688 0
DWIDTH 11 0
BBX 9 10 1 0
BITMAP
0800
1400
0000
8880
8880
8880
8880
5500
5500
2200
ENDCHAR
STARTCHAR Ycircumflex
ENCODING 374
SWIDTH 625 0
DWIDTH 10 0
BBX 9 13 0 -1
BITMAP
0800
1400
C180
2200
2200
1400
1400
0800
0800
0800
0800
0800
1C00
ENDCHAR
STARTCHAR ycircumflex
ENCODING 375
SWIDTH 438 0
DWIDTH 7 0
BBX 5 13 1 -3
BITMAP
20
50
00
88
88
88
88
78
08
08
08
88
70
ENDCHAR
STARTCHAR Ydieresis
ENCODING 376
SWIDTH 625 0
DWIDTH 10 0
BBX 9 12 0 0
BITMAP
1400
C180
2200
2200
1400
1400
0800
0800
0800
0800
0800
1C00
ENDCHAR
STARTCHAR Zacute
ENCODING 377
SWIDTH 625 0
DWIDTH 10 0
BBX 9 14 0 -2
BITMAP
0C00
0800
0000
7F80
4100
0200
0400
0400
0800
1000
1000
2000
4080
FF80
ENDCHAR
STARTCHAR zacute
ENCODING 378
SWIDTH 438 0
DWIDTH 7 0
BBX 6 10 0 0
BITMAP
30
20
00
FC
08
10
20
40
80
FC
ENDCHAR
STARTCHAR Zdotaccent
ENCODING 379
SWIDTH 625 0
DWIDTH 10 0
BBX 9 13 0 -1
BITMAP
0800
0000
7F80
4100
0200
0400
0400
0800
1000
1000
2000
4080
FF80
ENDCHAR
STARTCHAR zdotaccent
ENCODING 380
SWIDTH 438 0
DWIDTH 7 0
BBX 6 10 0 0
BITMAP
20
00
00
FC
08
10
20
40
80
FC
ENDCHAR
STARTCHAR Zcaron
ENCODING 381
SWIDTH 625 0
DWIDTH 10 0
BBX 9 14 0 -2
BITMAP
1200
0C00
0000
7F80
4100
0200
0400
0400
0800
1000
1000
2000
4080
FF80
ENDCHAR
STARTCHAR zcaron
ENCODING 382
SWIDTH 438 0
DWIDTH 7 0
BBX 6 10 0 0
BITMAP
28
10
00
FC
08
10
20
40
80
FC
ENDCHAR
STARTCHAR Euro
ENCODING 8364
SWIDTH 688 0
DWIDTH 11 0
BBX 10 11 0 0
BITMAP
1F00
2080
4040
4000
FC00
4000
FC00
4000
4040
2080
1F00
ENDCHAR
STARTCHAR uni3000
ENCODING 12288
SWIDTH 1000 0
DWIDTH 16 0
BBX 1 1 0 0
BITMAP
00
ENDCHAR
STARTCHAR .notdef
ENCODING -1
SWIDTH 375 0
DWIDTH 6 0
BBX 4 11 1 0
BITMAP
F0
90
90
90
90
90
90
90
90
90
F0
ENDCHAR
STARTCHAR .null
ENCODING -1
SWIDTH 0 0
DWIDTH 0 0
BBX 1 1 0 0
BITMAP
00
ENDCHAR
STARTCHAR nonmarkingreturn
ENCODING -1
SWIDTH 312 0
DWIDTH 5 0
BBX 1 1 0 0
BITMAP
00
ENDCHAR
ENDFONT
