STARTFONT 2.1
FONT innerlightv2-16px
SIZE 16 75 75
FONTBOUNDINGBOX 15 15 -1 -3
STARTPROPERTIES 5
PIXEL_SIZE 16
FONT_ASCENT 12
FONT_DESCENT 3
CHARSET_REGISTRY "ISO10646"
CHARSET_ENCODING "1"
ENDPROPERTIES
CHARS 110
STARTCHAR space
ENCODING 32
SWIDTH 312 0
DWIDTH 5 0
BBX 1 1 0 0
BITMAP
00
ENDCHAR
STARTCHAR exclam
ENCODING 33
SWIDTH 312 0
DWIDTH 5 0
BBX 2 11 2 0
BITMAP
40
40
40
40
40
40
40
40
00
00
C0
ENDCHAR
STARTCHAR quotedbl
ENCODING 34
SWIDTH 375 0
DWIDTH 6 0
BBX 5 4 0 7
BITMAP
D8
D8
48
90
ENDCHAR
STARTCHAR numbersign
ENCODING 35
SWIDTH 750 0
DWIDTH 12 0
BBX 11 12 0 0
BITMAP
0880
0880
0880
7FE0
1100
1100
2200
2200
FF80
4400
4400
4400
ENDCHAR
STARTCHAR dollar
ENCODING 36
SWIDTH 688 0
DWIDTH 11 0
BBX 9 13 1 -1
BITMAP
0800
3E00
4900
8800
8800
4800
3E00
0900
8880
8880
4900
3E00
0800
ENDCHAR
STARTCHAR percent
ENCODING 37
SWIDTH 750 0
DWIDTH 12 0
BBX 10 10 1 1
BITMAP
0100
6200
9200
9400
6400
0800
0980
1240
1240
2180
ENDCHAR
STARTCHAR ampersand
ENCODING 38
SWIDTH 688 0
DWIDTH 11 0
BBX 9 11 1 0
BITMAP
3800
4400
4400
4400
2400
5880
8500
8200
8200
8500
7880
ENDCHAR
STARTCHAR quotesingle
ENCODING 39
SWIDTH 188 0
DWIDTH 3 0
BBX 2 3 0 7
BITMAP
C0
40
80
ENDCHAR
STARTCHAR parenleft
ENCODING 40
SWIDTH 312 0
DWIDTH 5 0
BBX 3 14 1 -2
BITMAP
20
40
40
80
80
80
80
80
80
80
80
40
40
20
ENDCHAR
STARTCHAR parenright
ENCODING 41
SWIDTH 312 0
DWIDTH 5 0
BBX 3 14 1 -2
BITMAP
80
40
40
20
20
20
20
20
20
20
20
40
40
80
ENDCHAR
STARTCHAR asterisk
ENCODING 42
SWIDTH 375 0
DWIDTH 6 0
BBX 5 4 0 7
BITMAP
A8
70
70
A8
ENDCHAR
STARTCHAR plus
ENCODING 43
SWIDTH 500 0
DWIDTH 8 0
BBX 5 5 2 3
BITMAP
20
20
F8
20
20
ENDCHAR
STARTCHAR comma
ENCODING 44
SWIDTH 250 0
DWIDTH 4 0
BBX 2 3 1 -2
BITMAP
C0
40
80
ENDCHAR
STARTCHAR hyphen
ENCODING 45
SWIDTH 312 0
DWIDTH 5 0
BBX 3 1 1 4
BITMAP
E0
ENDCHAR
STARTCHAR period
ENCODING 46
SWIDTH 250 0
DWIDTH 4 0
BBX 2 1 1 0
BITMAP
C0
ENDCHAR
STARTCHAR slash
ENCODING 47
SWIDTH 375 0
DWIDTH 6 0
BBX 5 12 0 0
BITMAP
08
08
10
10
10
20
20
20
40
40
80
80
ENDCHAR
STARTCHAR zero
ENCODING 48
SWIDTH 562 0
DWIDTH 9 0
BBX 7 11 1 0
BITMAP
38
44
82
82
82
82
82
82
82
44
38
ENDCHAR
STARTCHAR one
ENCODING 49
SWIDTH 438 0
DWIDTH 7 0
BBX 4 11 2 0
BITMAP
20
60
A0
20
20
20
20
20
20
20
70
ENDCHAR
STARTCHAR two
ENCODING 50
SWIDTH 562 0
DWIDTH 9 0
BBX 7 11 1 0
BITMAP
38
44
82
02
02
04
18
20
40
80
FE
ENDCHAR
STARTCHAR three
ENCODING 51
SWIDTH 562 0
DWIDTH 9 0
BBX 7 11 1 0
BITMAP
78
84
04
04
08
30
0C
02
82
84
78
ENDCHAR
STARTCHAR four
ENCODING 52
SWIDTH 562 0
DWIDTH 9 0
BBX 8 11 0 0
BITMAP
04
0C
14
14
24
24
44
FF
04
04
04
ENDCHAR
STARTCHAR five
ENCODING 53
SWIDTH 562 0
DWIDTH 9 0
BBX 7 11 1 0
BITMAP
7C
40
40
40
78
04
02
82
82
44
38
ENDCHAR
STARTCHAR six
ENCODING 54
SWIDTH 562 0
DWIDTH 9 0
BBX 7 11 1 0
BITMAP
38
44
82
80
B8
C4
82
82
82
44
38
ENDCHAR
STARTCHAR seven
ENCODING 55
SWIDTH 500 0
DWIDTH 8 0
BBX 6 11 1 0
BITMAP
FC
04
04
08
08
10
10
20
20
20
20
ENDCHAR
STARTCHAR eight
ENCODING 56
SWIDTH 562 0
DWIDTH 9 0
BBX 7 11 1 0
BITMAP
38
44
44
44
38
44
82
82
82
44
38
ENDCHAR
STARTCHAR nine
ENCODING 57
SWIDTH 562 0
DWIDTH 9 0
BBX 7 11 1 0
BITMAP
38
44
82
82
46
3A
02
02
82
44
38
ENDCHAR
STARTCHAR colon
ENCODING 58
SWIDTH 250 0
DWIDTH 4 0
BBX 2 7 1 0
BITMAP
C0
00
00
00
00
00
C0
ENDCHAR
STARTCHAR semicolon
ENCODING 59
SWIDTH 250 0
DWIDTH 4 0
BBX 2 10 1 -2
BITMAP
C0
C0
00
00
00
00
C0
C0
40
80
ENDCHAR
STARTCHAR less
ENCODING 60
SWIDTH 562 0
DWIDTH 9 0
BBX 7 7 1 2
BITMAP
06
18
60
80
60
18
06
ENDCHAR
STARTCHAR equal
ENCODING 61
SWIDTH 500 0
DWIDTH 8 0
BBX 6 4 1 4
BITMAP
FC
00
00
FC
ENDCHAR
STARTCHAR greater
ENCODING 62
SWIDTH 562 0
DWIDTH 9 0
BBX 7 7 1 2
BITMAP
C0
30
0C
02
0C
30
C0
ENDCHAR
STARTCHAR question
ENCODING 63
SWIDTH 562 0
DWIDTH 9 0
BBX 7 11 1 0
BITMAP
7C
82
82
02
04
08
10
10
00
00
30
ENDCHAR
STARTCHAR at
ENCODING 64
SWIDTH 875 0
DWIDTH 14 0
BBX 11 12 2 -2
BITMAP
1F00
2080
4E40
9120
8120
8F20
9120
9140
8F80
4000
2020
1FC0
ENDCHAR
STARTCHAR A
ENCODING 65
SWIDTH 750 0
DWIDTH 12 0
BBX 11 11 0 0
BITMAP
0400
0A00
0A00
1100
1100
2080
3F80
2080
4040
4040
C060
ENDCHAR
STARTCHAR B
ENCODING 66
SWIDTH 625 0
DWIDTH 10 0
BBX 9 11 0 0
BITMAP
FE00
4100
4100
4100
7E00
4100
4080
4080
4080
4100
FE00
ENDCHAR
STARTCHAR C
ENCODING 67
SWIDTH 688 0
DWIDTH 11 0
BBX 9 11 1 0
BITMAP
3E00
4100
8080
8000
8000
8000
8000
8000
8080
4100
3E00
ENDCHAR
STARTCHAR D
ENCODING 68
SWIDTH 688 0
DWIDTH 11 0
BBX 10 11 0 0
BITMAP
FE00
4100
4080
4040
4040
4040
4040
4040
4080
4100
FE00
ENDCHAR
STARTCHAR E
ENCODING 69
SWIDTH 562 0
DWIDTH 9 0
BBX 8 11 0 0
BITMAP
FF
41
40
40
42
7E
42
40
40
41
FF
ENDCHAR
STARTCHAR F
ENCODING 70
SWIDTH 625 0
DWIDTH 10 0
BBX 9 11 0 0
BITMAP
FF80
4080
4000
4000
4100
7F00
4100
4000
4000
4000
E000
ENDCHAR
STARTCHAR G
ENCODING 71
SWIDTH 750 0
DWIDTH 12 0
BBX 10 11 1 0
BITMAP
3F00
4080
8040
8000
8000
83C0
8240
8040
8040
4080
3F00
ENDCHAR
STARTCHAR H
ENCODING 72
SWIDTH 750 0
DWIDTH 12 0
BBX 11 11 0 0
BITMAP
E0E0
4040
4040
4040
7FC0
4040
4040
4040
4040
4040
E0E0
ENDCHAR
STARTCHAR I
ENCODING 73
SWIDTH 250 0
DWIDTH 4 0
BBX 3 11 0 0
BITMAP
E0
40
40
40
40
40
40
40
40
40
E0
ENDCHAR
STARTCHAR J
ENCODING 74
SWIDTH 562 0
DWIDTH 9 0
BBX 8 11 0 0
BITMAP
0F
02
02
02
02
02
02
82
82
44
38
ENDCHAR
STARTCHAR K
ENCODING 75
SWIDTH 688 0
DWIDTH 11 0
BBX 10 11 0 0
BITMAP
C100
4200
4400
4800
7000
4800
4400
4200
4100
4080
E0C0
ENDCHAR
STARTCHAR L
ENCODING 76
SWIDTH 500 0
DWIDTH 8 0
BBX 7 11 0 0
BITMAP
E0
40
40
40
40
40
40
40
40
42
FE
ENDCHAR
STARTCHAR M
ENCODING 77
SWIDTH 875 0
DWIDTH 14 0
BBX 13 11 0 0
BITMAP
6030
6030
5050
5050
5050
4890
4890
4890
4510
4510
C238
ENDCHAR
STARTCHAR N
ENCODING 78
SWIDTH 625 0
DWIDTH 10 0
BBX 9 11 0 0
BITMAP
4080
6080
5080
5080
4880
4880
4480
4480
4280
4280
E180
ENDCHAR
STARTCHAR O
ENCODING 79
SWIDTH 750 0
DWIDTH 12 0
BBX 11 11 0 0
BITMAP
1F00
2080
4040
8020
8020
8020
8020
8020
4040
2080
1F00
ENDCHAR
STARTCHAR P
ENCODING 80
SWIDTH 562 0
DWIDTH 9 0
BBX 8 11 0 0
BITMAP
FC
42
41
41
42
7C
40
40
40
40
E0
ENDCHAR
STARTCHAR Q
ENCODING 81
SWIDTH 812 0
DWIDTH 13 0
BBX 12 12 0 -1
BITMAP
3F80
4040
4040
8020
8020
8020
8020
8020
4340
40C0
3F80
0070
ENDCHAR
STARTCHAR R
ENCODING 82
SWIDTH 750 0
DWIDTH 12 0
BBX 11 11 0 0
BITMAP
FF00
4080
4080
4080
4080
7F00
4200
4100
4080
4040
E0E0
ENDCHAR
STARTCHAR S
ENCODING 83
SWIDTH 688 0
DWIDTH 11 0
BBX 10 11 0 0
BITMAP
1F00
2080
4000
4000
2000
1F00
0080
C040
4040
2080
1F00
ENDCHAR
STARTCHAR T
ENCODING 84
SWIDTH 625 0
DWIDTH 10 0
BBX 9 11 0 0
BITMAP
FF80
8880
0800
0800
0800
0800
0800
0800
0800
0800
1C00
ENDCHAR
STARTCHAR U
ENCODING 85
SWIDTH 750 0
DWIDTH 12 0
BBX 11 11 0 0
BITMAP
E0E0
4040
4040
4040
4040
4040
4040
4040
4040
2080
1F00
ENDCHAR
STARTCHAR V
ENCODING 86
SWIDTH 750 0
DWIDTH 12 0
BBX 11 11 0 0
BITMAP
C060
4040
4040
2080
2080
2080
1100
1100
0A00
0A00
0400
ENDCHAR
STARTCHAR W
ENCODING 87
SWIDTH 938 0
DWIDTH 15 0
BBX 14 11 0 0
BITMAP
C004
4104
4284
4284
2288
2288
2448
1450
1450
1450
0820
ENDCHAR
STARTCHAR X
ENCODING 88
SWIDTH 688 0
DWIDTH 11 0
BBX 10 11 0 0
BITMAP
C0C0
2100
1200
1200
0C00
0C00
1200
1200
2100
4080
C0C0
ENDCHAR
STARTCHAR Y
ENCODING 89
SWIDTH 625 0
DWIDTH 10 0
BBX 9 11 0 0
BITMAP
C180
2200
2200
1400
1400
0800
0800
0800
0800
0800
1C00
ENDCHAR
STARTCHAR Z
ENCODING 90
SWIDTH 625 0
DWIDTH 10 0
BBX 9 11 0 0
BITMAP
7F80
4100
0200
0400
0400
0800
1000
1000
2000
4080
FF80
ENDCHAR
STARTCHAR bracketleft
ENCODING 91
SWIDTH 312 0
DWIDTH 5 0
BBX 3 14 1 -3
BITMAP
E0
80
80
80
80
80
80
80
80
80
80
80
80
E0
ENDCHAR
STARTCHAR backslash
ENCODING 92
SWIDTH 375 0
DWIDTH 6 0
BBX 5 12 0 0
BITMAP
80
80
40
40
40
20
20
20
10
10
08
08
ENDCHAR
STARTCHAR bracketright
ENCODING 93
SWIDTH 250 0
DWIDTH 4 0
BBX 3 14 0 -3
BITMAP
E0
20
20
20
20
20
20
20
20
20
20
20
20
E0
ENDCHAR
STARTCHAR asciicircum
ENCODING 94
SWIDTH 438 0
DWIDTH 7 0
BBX 5 5 1 6
BITMAP
20
50
50
88
88
ENDCHAR
STARTCHAR underscore
ENCODING 95
SWIDTH 625 0
DWIDTH 10 0
BBX 9 1 0 -3
BITMAP
FF80
ENDCHAR
STARTCHAR grave
ENCODING 96
SWIDTH 250 0
DWIDTH 4 0
BBX 2 3 1 8
BITMAP
C0
40
40
ENDCHAR
STARTCHAR a
ENCODING 97
SWIDTH 500 0
DWIDTH 8 0
BBX 6 7 1 0
BITMAP
70
88
08
78
88
88
7C
ENDCHAR
STARTCHAR b
ENCODING 98
SWIDTH 500 0
DWIDTH 8 0
BBX 6 10 1 0
BITMAP
80
80
80
80
B0
C8
84
84
C8
B0
ENDCHAR
STARTCHAR c
ENCODING 99
SWIDTH 500 0
DWIDTH 8 0
BBX 6 7 1 0
BITMAP
38
44
80
80
80
44
38
ENDCHAR
STARTCHAR d
ENCODING 100
SWIDTH 500 0
DWIDTH 8 0
BBX 6 10 1 0
BITMAP
04
04
04
04
34
4C
84
84
4C
34
ENDCHAR
STARTCHAR e
ENCODING 101
SWIDTH 500 0
DWIDTH 8 0
BBX 6 7 1 0
BITMAP
78
84
84
F8
80
84
78
ENDCHAR
STARTCHAR f
ENCODING 102
SWIDTH 438 0
DWIDTH 7 0
BBX 5 10 1 0
BITMAP
30
48
40
40
E0
40
40
40
40
40
ENDCHAR
STARTCHAR g
ENCODING 103
SWIDTH 438 0
DWIDTH 7 0
BBX 5 9 1 -2
BITMAP
70
88
88
88
78
08
08
88
70
ENDCHAR
STARTCHAR h
ENCODING 104
SWIDTH 438 0
DWIDTH 7 0
BBX 5 10 1 0
BITMAP
80
80
80
80
B0
C8
88
88
88
88
ENDCHAR
STARTCHAR i
ENCODING 105
SWIDTH 250 0
DWIDTH 4 0
BBX 2 7 1 0
BITMAP
80
00
80
80
80
80
40
ENDCHAR
STARTCHAR j
ENCODING 106
SWIDTH 188 0
DWIDTH 3 0
BBX 3 12 -1 -3
BITMAP
20
00
20
20
20
20
20
20
20
20
A0
40
ENDCHAR
STARTCHAR k
ENCODING 107
SWIDTH 500 0
DWIDTH 8 0
BBX 6 9 1 0
BITMAP
80
80
88
90
A0
E0
90
88
84
ENDCHAR
STARTCHAR l
ENCODING 108
SWIDTH 250 0
DWIDTH 4 0
BBX 2 10 1 0
BITMAP
80
80
80
80
80
80
80
80
80
40
ENDCHAR
STARTCHAR m
ENCODING 109
SWIDTH 688 0
DWIDTH 11 0
BBX 9 7 1 0
BITMAP
B300
CC80
8880
8880
8880
8880
8880
ENDCHAR
STARTCHAR n
ENCODING 110
SWIDTH 562 0
DWIDTH 9 0
BBX 7 7 1 0
BITMAP
B8
C4
84
84
84
84
82
ENDCHAR
STARTCHAR o
ENCODING 111
SWIDTH 500 0
DWIDTH 8 0
BBX 7 7 0 0
BITMAP
38
44
82
82
82
44
38
ENDCHAR
STARTCHAR p
ENCODING 112
SWIDTH 500 0
DWIDTH 8 0
BBX 6 10 1 -3
BITMAP
B8
C4
84
84
C4
B8
80
80
80
80
ENDCHAR
STARTCHAR q
ENCODING 113
SWIDTH 562 0
DWIDTH 9 0
BBX 7 10 1 -3
BITMAP
74
8C
84
84
8C
74
04
04
04
02
ENDCHAR
STARTCHAR r
ENCODING 114
SWIDTH 312 0
DWIDTH 5 0
BBX 3 7 1 0
BITMAP
A0
C0
80
80
80
80
80
ENDCHAR
STARTCHAR s
ENCODING 115
SWIDTH 438 0
DWIDTH 7 0
BBX 5 7 1 0
BITMAP
70
88
80
70
08
88
70
ENDCHAR
STARTCHAR t
ENCODING 116
SWIDTH 312 0
DWIDTH 5 0
BBX 4 8 0 0
BITMAP
40
E0
40
40
40
40
40
30
ENDCHAR
STARTCHAR u
ENCODING 117
SWIDTH 562 0
DWIDTH 9 0
BBX 7 7 1 0
BITMAP
84
84
84
84
84
8C
72
ENDCHAR
STARTCHAR v
ENCODING 118
SWIDTH 438 0
DWIDTH 7 0
BBX 5 7 1 0
BITMAP
88
88
88
88
50
50
20
ENDCHAR
STARTCHAR w
ENCODING 119
SWIDTH 688 0
DWIDTH 11 0
BBX 9 7 1 0
BITMAP
8880
8880
8880
8880
5500
5500
2200
ENDCHAR
STARTCHAR x
ENCODING 120
SWIDTH 438 0
DWIDTH 7 0
BBX 5 7 1 0
BITMAP
88
50
50
20
50
50
88
ENDCHAR
STARTCHAR y
ENCODING 121
SWIDTH 438 0
DWIDTH 7 0
BBX 5 10 1 -3
BITMAP
88
88
88
88
78
08
08
08
88
70
ENDCHAR
STARTCHAR z
ENCODING 122
SWIDTH 438 0
DWIDTH 7 0
BBX 6 7 0 0
BITMAP
FC
08
10
20
40
80
FC
ENDCHAR
STARTCHAR braceleft
ENCODING 123
SWIDTH 375 0
DWIDTH 6 0
BBX 5 14 0 -3
BITMAP
18
20
20
20
20
40
80
40
20
20
20
20
20
18
ENDCHAR
STARTCHAR bar
ENCODING 124
SWIDTH 250 0
DWIDTH 4 0
BBX 1 14 2 -3
BITMAP
80
80
80
80
80
80
80
80
80
80
80
80
80
80
ENDCHAR
STARTCHAR braceright
ENCODING 125
SWIDTH 375 0
DWIDTH 6 0
BBX 5 14 0 -3
BITMAP
C0
20
20
20
20
10
08
10
20
20
20
20
20
C0
ENDCHAR
STARTCHAR asciitilde
ENCODING 126
SWIDTH 562 0
DWIDTH 9 0
BBX 7 3 1 4
BITMAP
62
92
8C
ENDCHAR
STARTCHAR uni00A0
ENCODING 160
SWIDTH 312 0
DWIDTH 5 0
BBX 1 1 0 0
BITMAP
00
ENDCHAR
STARTCHAR exclamdown
ENCODING 161
SWIDTH 250 0
DWIDTH 4 0
BBX 2 11 1 -3
BITMAP
C0
00
00
40
40
40
40
40
40
40
40
ENDCHAR
STARTCHAR cent
ENCODING 162
SWIDTH 500 0
DWIDTH 8 0
BBX 6 11 1 -2
BITMAP
10
10
38
54
90
90
90
54
38
10
10
ENDCHAR
STARTCHAR sterling
ENCODING 163
SWIDTH 562 0
DWIDTH 9 0
BBX 8 11 0 0
BITMAP
3C
42
41
40
20
78
20
20
40
40
FE
ENDCHAR
STARTCHAR currency
ENCODING 164
SWIDTH 562 0
DWIDTH 9 0
BBX 7 7 1 2
BITMAP
BA
44
82
82
82
44
BA
ENDCHAR
STARTCHAR yen
ENCODING 165
SWIDTH 625 0
DWIDTH 10 0
BBX 9 11 0 0
BITMAP
C180
2200
2200
1400
1400
0800
3E00
0800
3E00
0800
1C00
ENDCHAR
STARTCHAR brokenbar
ENCODING 166
SWIDTH 188 0
DWIDTH 3 0
BBX 1 14 1 -3
BITMAP
80
80
80
80
80
00
00
00
00
80
80
80
80
80
ENDCHAR
STARTCHAR section
ENCODING 167
SWIDTH 562 0
DWIDTH 9 0
BBX 7 14 1 -3
BITMAP
78
84
80
C0
70
88
84
42
22
14
08
84
84
78
ENDCHAR
STARTCHAR dieresis
ENCODING 168
SWIDTH 375 0
DWIDTH 6 0
BBX 5 1 0 10
BITMAP
D8
ENDCHAR
STARTCHAR copyright
ENCODING 169
SWIDTH 812 0
DWIDTH 13 0
BBX 12 12 0 0
BITMAP
1F80
2040
4020
4720
8890
9010
9010
9010
48A0
4720
2040
1F80
ENDCHAR
STARTCHAR Euro
ENCODING 8364
SWIDTH 688 0
DWIDTH 11 0
BBX 10 11 0 0
BITMAP
1F00
2080
4040
4000
FC00
4000
FC00
4000
4040
2080
1F00
ENDCHAR
STARTCHAR uni3000
ENCODING 12288
SWIDTH 1000 0
DWIDTH 16 0
BBX 1 1 0 0
BITMAP
00
ENDCHAR
STARTCHAR .notdef
ENCODING -1
SWIDTH 375 0
DWIDTH 6 0
BBX 4 11 1 0
BITMAP
F0
90
90
90
90
90
90
90
90
90
F0
ENDCHAR
STARTCHAR .null
ENCODING -1
SWIDTH 0 0
DWIDTH 0 0
BBX 1 1 0 0
BITMAP
00
ENDCHAR
STARTCHAR nonmarkingreturn
ENCODING -1
SWIDTH 312 0
DWIDTH 5 0
BBX 1 1 0 0
BITMAP
00
ENDCHAR
ENDFONT
