STARTFONT 2.1
FONT -efont-Shinonome Gothic-Medium-R-Normal--18-180-75-75-P-180-ISO10646-1
SIZE 18 75 75
FONTBOUNDINGBOX 9 18 0 -2
STARTPROPERTIES 16
FOUNDRY "efont"
FAMILY_NAME "Shinonome Gothic"
WEIGHT_NAME "Medium"
SLANT "R"
SETWIDTH_NAME "Normal"
PIXEL_SIZE 18
POINT_SIZE 180
RESOLUTION_X 75
RESOLUTION_Y 75
SPACING "P"
CHARSET_REGISTRY "ISO10646"
CHARSET_ENCODING "1"
COPYRIGHT "Public Domain"
NOTICE "Shinonome font, The Electronic Font Open Laboratory. Public Domain. Rebuilt to Unicode BDF by Free & Open Source Bitmap (Pixel) Fonts."
FONT_ASCENT 16
FONT_DESCENT 2
ENDPROPERTIES
CHARS 284
STARTCHAR 01
ENCODING 1
SWIDTH 500 0
DWIDTH 9 0
BBX 9 18 0 -2
BITMAP
0800
0800
1C00
1C00
1C00
3E00
3E00
7F00
7F00
3E00
3E00
1C00
1C00
1C00
0800
0800
0000
0000
ENDCHAR
STARTCHAR 02
ENCODING 2
SWIDTH 500 0
DWIDTH 9 0
BBX 9 18 0 -2
BITMAP
AA80
5500
AA80
5500
AA80
5500
AA80
5500
AA80
5500
AA80
5500
AA80
5500
AA80
5500
0000
0000
ENDCHAR
STARTCHAR 03
ENCODING 3
SWIDTH 500 0
DWIDTH 9 0
BBX 9 18 0 -2
BITMAP
4400
4400
4400
4400
7C00
4400
4400
4400
0000
0F80
0200
0200
0200
0200
0200
0200
0200
0000
ENDCHAR
STARTCHAR 04
ENCODING 4
SWIDTH 500 0
DWIDTH 9 0
BBX 9 18 0 -2
BITMAP
7E00
4000
4000
7800
4000
4000
4000
4000
0000
1F80
1000
1000
1E00
1000
1000
1000
1000
0000
ENDCHAR
STARTCHAR 05
ENCODING 5
SWIDTH 500 0
DWIDTH 9 0
BBX 9 18 0 -2
BITMAP
7800
8400
8000
8000
8000
8000
8400
7800
0000
3E00
2100
2100
3E00
2400
2200
2200
2100
0000
ENDCHAR
STARTCHAR 06
ENCODING 6
SWIDTH 500 0
DWIDTH 9 0
BBX 9 18 0 -2
BITMAP
4000
4000
4000
4000
4000
4000
4000
7E00
0000
1F80
1000
1000
1F00
1000
1000
1000
1000
0000
ENDCHAR
STARTCHAR 07
ENCODING 7
SWIDTH 500 0
DWIDTH 9 0
BBX 9 18 0 -2
BITMAP
0000
0000
1800
2400
4200
4200
2400
1800
0000
0000
0000
0000
0000
0000
0000
0000
0000
0000
ENDCHAR
STARTCHAR 8
ENCODING 8
SWIDTH 500 0
DWIDTH 9 0
BBX 9 18 0 -2
BITMAP
0000
0000
0000
0000
0800
0800
0800
7F00
0800
0800
0800
0000
0000
0000
7F00
0000
0000
0000
ENDCHAR
STARTCHAR 9
ENCODING 9
SWIDTH 500 0
DWIDTH 9 0
BBX 9 18 0 -2
BITMAP
C200
C200
A200
A200
9200
9200
8A00
8A00
8600
2000
2000
2000
2000
2000
2000
2000
3F00
0000
ENDCHAR
STARTCHAR a
ENCODING 10
SWIDTH 500 0
DWIDTH 9 0
BBX 9 18 0 -2
BITMAP
8800
8800
8800
8800
8800
5000
5000
2000
0000
1F00
0400
0400
0400
0400
0400
0400
0400
0000
ENDCHAR
STARTCHAR b
ENCODING 11
SWIDTH 500 0
DWIDTH 9 0
BBX 9 18 0 -2
BITMAP
0800
0800
0800
0800
0800
0800
0800
0800
0800
F800
0000
0000
0000
0000
0000
0000
0000
0000
ENDCHAR
STARTCHAR c
ENCODING 12
SWIDTH 500 0
DWIDTH 9 0
BBX 9 18 0 -2
BITMAP
0000
0000
0000
0000
0000
0000
0000
0000
0000
F800
0800
0800
0800
0800
0800
0800
0800
0800
ENDCHAR
STARTCHAR d
ENCODING 13
SWIDTH 500 0
DWIDTH 9 0
BBX 9 18 0 -2
BITMAP
0000
0000
0000
0000
0000
0000
0000
0000
0000
0F80
0800
0800
0800
0800
0800
0800
0800
0800
ENDCHAR
STARTCHAR e
ENCODING 14
SWIDTH 500 0
DWIDTH 9 0
BBX 9 18 0 -2
BITMAP
0800
0800
0800
0800
0800
0800
0800
0800
0800
0F80
0000
0000
0000
0000
0000
0000
0000
0000
ENDCHAR
STARTCHAR f
ENCODING 15
SWIDTH 500 0
DWIDTH 9 0
BBX 9 18 0 -2
BITMAP
0800
0800
0800
0800
0800
0800
0800
0800
0800
FF80
0800
0800
0800
0800
0800
0800
0800
0800
ENDCHAR
STARTCHAR 10
ENCODING 16
SWIDTH 500 0
DWIDTH 9 0
BBX 9 18 0 -2
BITMAP
0000
0000
FF80
0000
0000
0000
0000
0000
0000
0000
0000
0000
0000
0000
0000
0000
0000
0000
ENDCHAR
STARTCHAR 11
ENCODING 17
SWIDTH 500 0
DWIDTH 9 0
BBX 9 18 0 -2
BITMAP
0000
0000
0000
0000
0000
FF80
0000
0000
0000
0000
0000
0000
0000
0000
0000
0000
0000
0000
ENDCHAR
STARTCHAR 12
ENCODING 18
SWIDTH 500 0
DWIDTH 9 0
BBX 9 18 0 -2
BITMAP
0000
0000
0000
0000
0000
0000
0000
0000
0000
FF80
0000
0000
0000
0000
0000
0000
0000
0000
ENDCHAR
STARTCHAR 13
ENCODING 19
SWIDTH 500 0
DWIDTH 9 0
BBX 9 18 0 -2
BITMAP
0000
0000
0000
0000
0000
0000
0000
0000
0000
0000
0000
0000
FF80
0000
0000
0000
0000
0000
ENDCHAR
STARTCHAR 14
ENCODING 20
SWIDTH 500 0
DWIDTH 9 0
BBX 9 18 0 -2
BITMAP
0000
0000
0000
0000
0000
0000
0000
0000
0000
0000
0000
0000
0000
0000
0000
0000
FF80
0000
ENDCHAR
STARTCHAR 15
ENCODING 21
SWIDTH 500 0
DWIDTH 9 0
BBX 9 18 0 -2
BITMAP
0800
0800
0800
0800
0800
0800
0800
0800
0800
0F80
0800
0800
0800
0800
0800
0800
0800
0800
ENDCHAR
STARTCHAR 16
ENCODING 22
SWIDTH 500 0
DWIDTH 9 0
BBX 9 18 0 -2
BITMAP
0800
0800
0800
0800
0800
0800
0800
0800
0800
F800
0800
0800
0800
0800
0800
0800
0800
0800
ENDCHAR
STARTCHAR 17
ENCODING 23
SWIDTH 500 0
DWIDTH 9 0
BBX 9 18 0 -2
BITMAP
0800
0800
0800
0800
0800
0800
0800
0800
0800
FF80
0000
0000
0000
0000
0000
0000
0000
0000
ENDCHAR
STARTCHAR 18
ENCODING 24
SWIDTH 500 0
DWIDTH 9 0
BBX 9 18 0 -2
BITMAP
0000
0000
0000
0000
0000
0000
0000
0000
0000
FF80
0800
0800
0800
0800
0800
0800
0800
0800
ENDCHAR
STARTCHAR 19
ENCODING 25
SWIDTH 500 0
DWIDTH 9 0
BBX 9 18 0 -2
BITMAP
0800
0800
0800
0800
0800
0800
0800
0800
0800
0800
0800
0800
0800
0800
0800
0800
0800
0800
ENDCHAR
STARTCHAR 1a
ENCODING 26
SWIDTH 500 0
DWIDTH 9 0
BBX 9 18 0 -2
BITMAP
0000
0000
0300
0C00
3000
C000
3000
0C00
0300
0000
0000
FF00
0000
0000
FF00
0000
0000
0000
ENDCHAR
STARTCHAR 1b
ENCODING 27
SWIDTH 500 0
DWIDTH 9 0
BBX 9 18 0 -2
BITMAP
0000
0000
C000
3000
0C00
0300
0C00
3000
C000
0000
0000
FF00
0000
0000
FF00
0000
0000
0000
ENDCHAR
STARTCHAR 1c
ENCODING 28
SWIDTH 500 0
DWIDTH 9 0
BBX 9 18 0 -2
BITMAP
0000
0000
0000
0000
0000
0000
0000
0000
FF00
2400
2400
2400
2400
2400
4400
8300
0000
0000
ENDCHAR
STARTCHAR 1d
ENCODING 29
SWIDTH 500 0
DWIDTH 9 0
BBX 9 18 0 -2
BITMAP
0000
0000
0000
0000
0000
0100
0200
FF00
0800
1000
FF00
4000
8000
0000
0000
0000
0000
0000
ENDCHAR
STARTCHAR 1e
ENCODING 30
SWIDTH 500 0
DWIDTH 9 0
BBX 9 18 0 -2
BITMAP
0000
0000
0000
0000
1C00
2200
2000
2000
2000
2000
FE00
2000
2000
2000
7C00
A300
4000
0000
ENDCHAR
STARTCHAR 1f
ENCODING 31
SWIDTH 500 0
DWIDTH 9 0
BBX 9 18 0 -2
BITMAP
0000
0000
0000
0000
0000
0000
0000
0000
0000
0800
0000
0000
0000
0000
0000
0000
0000
0000
ENDCHAR
STARTCHAR 20
ENCODING 32
SWIDTH 500 0
DWIDTH 9 0
BBX 9 18 0 -2
BITMAP
0000
0000
0000
0000
0000
0000
0000
0000
0000
0000
0000
0000
0000
0000
0000
0000
0000
0000
ENDCHAR
STARTCHAR 21
ENCODING 33
SWIDTH 500 0
DWIDTH 9 0
BBX 9 18 0 -2
BITMAP
0000
0800
1C00
1C00
1C00
1C00
1C00
0800
0800
0800
0800
0800
0000
0000
0000
0800
0800
0000
ENDCHAR
STARTCHAR 22
ENCODING 34
SWIDTH 500 0
DWIDTH 9 0
BBX 9 18 0 -2
BITMAP
0000
6600
6600
2200
2200
4400
0000
0000
0000
0000
0000
0000
0000
0000
0000
0000
0000
0000
ENDCHAR
STARTCHAR 23
ENCODING 35
SWIDTH 500 0
DWIDTH 9 0
BBX 9 18 0 -2
BITMAP
0000
1200
1200
1200
1200
7F80
1200
2400
2400
2400
2400
FF00
2400
4800
4800
4800
4800
0000
ENDCHAR
STARTCHAR 24
ENCODING 36
SWIDTH 500 0
DWIDTH 9 0
BBX 9 18 0 -2
BITMAP
0800
3C00
4A00
8900
8900
8900
8800
4800
3C00
0A00
0900
8900
8900
8900
4A00
3C00
0800
0800
ENDCHAR
STARTCHAR 25
ENCODING 37
SWIDTH 500 0
DWIDTH 9 0
BBX 9 18 0 -2
BITMAP
0080
6080
9100
9100
9200
9200
9400
6400
0800
0800
1300
1480
2480
2480
4480
4480
8300
8000
ENDCHAR
STARTCHAR 26
ENCODING 38
SWIDTH 500 0
DWIDTH 9 0
BBX 9 18 0 -2
BITMAP
0000
1800
2400
4200
4200
4400
2800
1000
2800
4400
8400
8280
8100
8280
4400
3800
0000
0000
ENDCHAR
STARTCHAR 27
ENCODING 39
SWIDTH 500 0
DWIDTH 9 0
BBX 9 18 0 -2
BITMAP
0000
6000
6000
2000
2000
4000
0000
0000
0000
0000
0000
0000
0000
0000
0000
0000
0000
0000
ENDCHAR
STARTCHAR 28
ENCODING 40
SWIDTH 500 0
DWIDTH 9 0
BBX 9 18 0 -2
BITMAP
0200
0400
0800
1000
1000
2000
2000
2000
2000
2000
2000
2000
2000
1000
1000
0800
0400
0200
ENDCHAR
STARTCHAR 29
ENCODING 41
SWIDTH 500 0
DWIDTH 9 0
BBX 9 18 0 -2
BITMAP
4000
2000
1000
0800
0800
0400
0400
0400
0400
0400
0400
0400
0400
0800
0800
1000
2000
4000
ENDCHAR
STARTCHAR 2a
ENCODING 42
SWIDTH 500 0
DWIDTH 9 0
BBX 9 18 0 -2
BITMAP
0000
0000
0000
0000
0000
0800
4900
2A00
1C00
2A00
4900
0800
0000
0000
0000
0000
0000
0000
ENDCHAR
STARTCHAR 2b
ENCODING 43
SWIDTH 500 0
DWIDTH 9 0
BBX 9 18 0 -2
BITMAP
0000
0000
0000
0000
0800
0800
0800
0800
7F00
0800
0800
0800
0800
0000
0000
0000
0000
0000
ENDCHAR
STARTCHAR 2c
ENCODING 44
SWIDTH 500 0
DWIDTH 9 0
BBX 9 18 0 -2
BITMAP
0000
0000
0000
0000
0000
0000
0000
0000
0000
0000
0000
0000
0000
6000
6000
2000
2000
4000
ENDCHAR
STARTCHAR 2d
ENCODING 45
SWIDTH 500 0
DWIDTH 9 0
BBX 9 18 0 -2
BITMAP
0000
0000
0000
0000
0000
0000
0000
0000
7F00
0000
0000
0000
0000
0000
0000
0000
0000
0000
ENDCHAR
STARTCHAR 2e
ENCODING 46
SWIDTH 500 0
DWIDTH 9 0
BBX 9 18 0 -2
BITMAP
0000
0000
0000
0000
0000
0000
0000
0000
0000
0000
0000
0000
0000
0000
6000
6000
0000
0000
ENDCHAR
STARTCHAR 2f
ENCODING 47
SWIDTH 500 0
DWIDTH 9 0
BBX 9 18 0 -2
BITMAP
0100
0100
0200
0200
0400
0400
0800
0800
1000
1000
2000
2000
4000
4000
8000
8000
0000
0000
ENDCHAR
STARTCHAR 30
ENCODING 48
SWIDTH 500 0
DWIDTH 9 0
BBX 9 18 0 -2
BITMAP
0000
1C00
2200
2200
4100
4100
4100
4100
4100
4100
4100
4100
4100
2200
2200
1C00
0000
0000
ENDCHAR
STARTCHAR 31
ENCODING 49
SWIDTH 500 0
DWIDTH 9 0
BBX 9 18 0 -2
BITMAP
0000
0800
0800
1800
2800
4800
0800
0800
0800
0800
0800
0800
0800
0800
0800
0800
0000
0000
ENDCHAR
STARTCHAR 32
ENCODING 50
SWIDTH 500 0
DWIDTH 9 0
BBX 9 18 0 -2
BITMAP
0000
1C00
2200
4100
4100
4100
4100
0100
0200
0200
0400
0800
1000
2000
4000
7F00
0000
0000
ENDCHAR
STARTCHAR 33
ENCODING 51
SWIDTH 500 0
DWIDTH 9 0
BBX 9 18 0 -2
BITMAP
0000
1C00
2200
4100
4100
0100
0100
0200
1C00
0200
0100
0100
4100
4100
2200
1C00
0000
0000
ENDCHAR
STARTCHAR 34
ENCODING 52
SWIDTH 500 0
DWIDTH 9 0
BBX 9 18 0 -2
BITMAP
0000
0400
0C00
0C00
1400
2400
2400
4400
4400
8400
FF00
0400
0400
0400
0400
0400
0000
0000
ENDCHAR
STARTCHAR 35
ENCODING 53
SWIDTH 500 0
DWIDTH 9 0
BBX 9 18 0 -2
BITMAP
0000
3E00
2000
2000
2000
4000
4000
5C00
6200
0100
0100
4100
4100
4100
2200
1C00
0000
0000
ENDCHAR
STARTCHAR 36
ENCODING 54
SWIDTH 500 0
DWIDTH 9 0
BBX 9 18 0 -2
BITMAP
0000
1C00
2200
4100
4000
4000
4000
5C00
6200
4100
4100
4100
4100
4100
2200
1C00
0000
0000
ENDCHAR
STARTCHAR 37
ENCODING 55
SWIDTH 500 0
DWIDTH 9 0
BBX 9 18 0 -2
BITMAP
0000
FF00
0100
0200
0200
0400
0800
0800
0800
0800
1000
1000
1000
1000
1000
1000
0000
0000
ENDCHAR
STARTCHAR 38
ENCODING 56
SWIDTH 500 0
DWIDTH 9 0
BBX 9 18 0 -2
BITMAP
0000
1C00
2200
4100
4100
4100
4100
2200
1C00
2200
4100
4100
4100
4100
2200
1C00
0000
0000
ENDCHAR
STARTCHAR 39
ENCODING 57
SWIDTH 500 0
DWIDTH 9 0
BBX 9 18 0 -2
BITMAP
0000
1C00
2200
4100
4100
4100
4100
4100
2300
1D00
0100
0100
4100
4100
2200
1C00
0000
0000
ENDCHAR
STARTCHAR 3a
ENCODING 58
SWIDTH 500 0
DWIDTH 9 0
BBX 9 18 0 -2
BITMAP
0000
0000
0000
0000
1800
1800
0000
0000
0000
0000
0000
0000
1800
1800
0000
0000
0000
0000
ENDCHAR
STARTCHAR 3b
ENCODING 59
SWIDTH 500 0
DWIDTH 9 0
BBX 9 18 0 -2
BITMAP
0000
0000
0000
0000
1800
1800
0000
0000
0000
0000
0000
0000
1800
1800
0800
0800
1000
0000
ENDCHAR
STARTCHAR 3c
ENCODING 60
SWIDTH 500 0
DWIDTH 9 0
BBX 9 18 0 -2
BITMAP
0000
0000
0100
0200
0400
0800
1000
2000
4000
2000
1000
0800
0400
0200
0100
0000
0000
0000
ENDCHAR
STARTCHAR 3d
ENCODING 61
SWIDTH 500 0
DWIDTH 9 0
BBX 9 18 0 -2
BITMAP
0000
0000
0000
0000
0000
0000
FF00
0000
0000
0000
FF00
0000
0000
0000
0000
0000
0000
0000
ENDCHAR
STARTCHAR 3e
ENCODING 62
SWIDTH 500 0
DWIDTH 9 0
BBX 9 18 0 -2
BITMAP
0000
0000
4000
2000
1000
0800
0400
0200
0100
0200
0400
0800
1000
2000
4000
0000
0000
0000
ENDCHAR
STARTCHAR 3f
ENCODING 63
SWIDTH 500 0
DWIDTH 9 0
BBX 9 18 0 -2
BITMAP
0000
1C00
2200
4100
4100
4100
0100
0200
0400
0800
0800
0800
0000
0000
0000
0800
0800
0000
ENDCHAR
STARTCHAR 40
ENCODING 64
SWIDTH 500 0
DWIDTH 9 0
BBX 9 18 0 -2
BITMAP
0000
0000
1C00
2200
4100
4100
9C80
A280
A280
A280
A280
9D80
4000
4100
2200
1C00
0000
0000
ENDCHAR
STARTCHAR 41
ENCODING 65
SWIDTH 500 0
DWIDTH 9 0
BBX 9 18 0 -2
BITMAP
0800
0800
1400
1400
1400
2200
2200
2200
4100
4100
7F00
4100
8080
8080
8080
8080
0000
0000
ENDCHAR
STARTCHAR 42
ENCODING 66
SWIDTH 500 0
DWIDTH 9 0
BBX 9 18 0 -2
BITMAP
0000
F800
8400
8200
8200
8200
8200
8400
FC00
8200
8100
8100
8100
8100
8200
FC00
0000
0000
ENDCHAR
STARTCHAR 43
ENCODING 67
SWIDTH 500 0
DWIDTH 9 0
BBX 9 18 0 -2
BITMAP
0000
3C00
4200
4200
8100
8000
8000
8000
8000
8000
8000
8000
8100
4200
4200
3C00
0000
0000
ENDCHAR
STARTCHAR 44
ENCODING 68
SWIDTH 500 0
DWIDTH 9 0
BBX 9 18 0 -2
BITMAP
0000
F000
8C00
8200
8200
8100
8100
8100
8100
8100
8100
8100
8200
8200
8C00
F000
0000
0000
ENDCHAR
STARTCHAR 45
ENCODING 69
SWIDTH 500 0
DWIDTH 9 0
BBX 9 18 0 -2
BITMAP
0000
FF00
8000
8000
8000
8000
8000
8000
FE00
8000
8000
8000
8000
8000
8000
FF00
0000
0000
ENDCHAR
STARTCHAR 46
ENCODING 70
SWIDTH 500 0
DWIDTH 9 0
BBX 9 18 0 -2
BITMAP
0000
FF00
8000
8000
8000
8000
8000
8000
FE00
8000
8000
8000
8000
8000
8000
8000
0000
0000
ENDCHAR
STARTCHAR 47
ENCODING 71
SWIDTH 500 0
DWIDTH 9 0
BBX 9 18 0 -2
BITMAP
0000
1C00
2200
4100
4000
8000
8000
8000
8F00
8100
8100
8100
4100
4100
2300
1D00
0000
0000
ENDCHAR
STARTCHAR 48
ENCODING 72
SWIDTH 500 0
DWIDTH 9 0
BBX 9 18 0 -2
BITMAP
0000
8100
8100
8100
8100
8100
8100
8100
FF00
8100
8100
8100
8100
8100
8100
8100
0000
0000
ENDCHAR
STARTCHAR 49
ENCODING 73
SWIDTH 500 0
DWIDTH 9 0
BBX 9 18 0 -2
BITMAP
0000
3E00
0800
0800
0800
0800
0800
0800
0800
0800
0800
0800
0800
0800
0800
3E00
0000
0000
ENDCHAR
STARTCHAR 4a
ENCODING 74
SWIDTH 500 0
DWIDTH 9 0
BBX 9 18 0 -2
BITMAP
0000
0100
0100
0100
0100
0100
0100
0100
0100
0100
0100
0100
4100
4100
2200
1C00
0000
0000
ENDCHAR
STARTCHAR 4b
ENCODING 75
SWIDTH 500 0
DWIDTH 9 0
BBX 9 18 0 -2
BITMAP
0000
8100
8200
8400
8400
8800
9000
B000
C800
8800
8400
8400
8200
8200
8100
8100
0000
0000
ENDCHAR
STARTCHAR 4c
ENCODING 76
SWIDTH 500 0
DWIDTH 9 0
BBX 9 18 0 -2
BITMAP
0000
8000
8000
8000
8000
8000
8000
8000
8000
8000
8000
8000
8000
8000
8000
FF00
0000
0000
ENDCHAR
STARTCHAR 4d
ENCODING 77
SWIDTH 500 0
DWIDTH 9 0
BBX 9 18 0 -2
BITMAP
0000
8100
8100
8100
C300
C300
C300
C300
A500
A500
A500
A500
9900
9900
9900
9900
0000
0000
ENDCHAR
STARTCHAR 4e
ENCODING 78
SWIDTH 500 0
DWIDTH 9 0
BBX 9 18 0 -2
BITMAP
0000
8100
C100
C100
A100
A100
9100
9100
8900
8900
8900
8500
8500
8300
8300
8100
0000
0000
ENDCHAR
STARTCHAR 4f
ENCODING 79
SWIDTH 500 0
DWIDTH 9 0
BBX 9 18 0 -2
BITMAP
0000
3C00
4200
8100
8100
8100
8100
8100
8100
8100
8100
8100
8100
8100
4200
3C00
0000
0000
ENDCHAR
STARTCHAR 50
ENCODING 80
SWIDTH 500 0
DWIDTH 9 0
BBX 9 18 0 -2
BITMAP
0000
FC00
8200
8100
8100
8100
8100
8200
FC00
8000
8000
8000
8000
8000
8000
8000
0000
0000
ENDCHAR
STARTCHAR 51
ENCODING 81
SWIDTH 500 0
DWIDTH 9 0
BBX 9 18 0 -2
BITMAP
0000
3C00
4200
4200
8100
8100
8100
8100
8100
8100
8100
BD00
C300
4200
4200
3C00
0400
0300
ENDCHAR
STARTCHAR 52
ENCODING 82
SWIDTH 500 0
DWIDTH 9 0
BBX 9 18 0 -2
BITMAP
0000
FC00
8200
8100
8100
8100
8100
8200
FC00
8400
8400
8200
8200
8200
8100
8100
0000
0000
ENDCHAR
STARTCHAR 53
ENCODING 83
SWIDTH 500 0
DWIDTH 9 0
BBX 9 18 0 -2
BITMAP
0000
3C00
4200
8100
8100
8100
8000
6000
1C00
0200
0100
8100
8100
8100
4200
3C00
0000
0000
ENDCHAR
STARTCHAR 54
ENCODING 84
SWIDTH 500 0
DWIDTH 9 0
BBX 9 18 0 -2
BITMAP
0000
FF80
0800
0800
0800
0800
0800
0800
0800
0800
0800
0800
0800
0800
0800
0800
0000
0000
ENDCHAR
STARTCHAR 55
ENCODING 85
SWIDTH 500 0
DWIDTH 9 0
BBX 9 18 0 -2
BITMAP
0000
8100
8100
8100
8100
8100
8100
8100
8100
8100
8100
8100
8100
4200
4200
3C00
0000
0000
ENDCHAR
STARTCHAR 56
ENCODING 86
SWIDTH 500 0
DWIDTH 9 0
BBX 9 18 0 -2
BITMAP
0000
8100
8100
8100
8100
4200
4200
4200
4200
2400
2400
2400
2400
1800
1800
1800
0000
0000
ENDCHAR
STARTCHAR 57
ENCODING 87
SWIDTH 500 0
DWIDTH 9 0
BBX 9 18 0 -2
BITMAP
0000
8880
8880
8880
8880
8880
5500
5500
5500
5500
5500
2200
2200
2200
2200
2200
0000
0000
ENDCHAR
STARTCHAR 58
ENCODING 88
SWIDTH 500 0
DWIDTH 9 0
BBX 9 18 0 -2
BITMAP
0000
8100
8100
4200
4200
2400
2400
1800
1800
1800
2400
2400
4200
4200
8100
8100
0000
0000
ENDCHAR
STARTCHAR 59
ENCODING 89
SWIDTH 500 0
DWIDTH 9 0
BBX 9 18 0 -2
BITMAP
0000
8200
8200
8200
4400
4400
4400
2800
2800
2800
1000
1000
1000
1000
1000
1000
0000
0000
ENDCHAR
STARTCHAR 5a
ENCODING 90
SWIDTH 500 0
DWIDTH 9 0
BBX 9 18 0 -2
BITMAP
0000
FF00
0100
0200
0400
0400
0800
0800
1000
1000
2000
2000
4000
4000
8000
FF00
0000
0000
ENDCHAR
STARTCHAR 5b
ENCODING 91
SWIDTH 500 0
DWIDTH 9 0
BBX 9 18 0 -2
BITMAP
1F00
1000
1000
1000
1000
1000
1000
1000
1000
1000
1000
1000
1000
1000
1000
1000
1F00
0000
ENDCHAR
STARTCHAR 5c
ENCODING 92
SWIDTH 500 0
DWIDTH 9 0
BBX 9 18 0 -2
BITMAP
4000
4000
2000
2000
1000
1000
0800
0800
0400
0400
0200
0200
0100
0100
0080
0080
0000
0000
ENDCHAR
STARTCHAR 5d
ENCODING 93
SWIDTH 500 0
DWIDTH 9 0
BBX 9 18 0 -2
BITMAP
7C00
0400
0400
0400
0400
0400
0400
0400
0400
0400
0400
0400
0400
0400
0400
0400
7C00
0000
ENDCHAR
STARTCHAR 5e
ENCODING 94
SWIDTH 500 0
DWIDTH 9 0
BBX 9 18 0 -2
BITMAP
0000
1800
2400
4200
8100
0000
0000
0000
0000
0000
0000
0000
0000
0000
0000
0000
0000
0000
ENDCHAR
STARTCHAR 5f
ENCODING 95
SWIDTH 500 0
DWIDTH 9 0
BBX 9 18 0 -2
BITMAP
0000
0000
0000
0000
0000
0000
0000
0000
0000
0000
0000
0000
0000
0000
0000
FF80
0000
0000
ENDCHAR
STARTCHAR 60
ENCODING 96
SWIDTH 500 0
DWIDTH 9 0
BBX 9 18 0 -2
BITMAP
3000
3000
2000
2000
1000
0000
0000
0000
0000
0000
0000
0000
0000
0000
0000
0000
0000
0000
ENDCHAR
STARTCHAR 61
ENCODING 97
SWIDTH 500 0
DWIDTH 9 0
BBX 9 18 0 -2
BITMAP
0000
0000
0000
0000
0000
0000
0000
3E00
4100
0100
0100
3F00
4100
4100
4300
3D00
0000
0000
ENDCHAR
STARTCHAR 62
ENCODING 98
SWIDTH 500 0
DWIDTH 9 0
BBX 9 18 0 -2
BITMAP
0000
8000
8000
8000
8000
8000
8000
BC00
C200
8100
8100
8100
8100
8100
C200
BC00
0000
0000
ENDCHAR
STARTCHAR 63
ENCODING 99
SWIDTH 500 0
DWIDTH 9 0
BBX 9 18 0 -2
BITMAP
0000
0000
0000
0000
0000
0000
0000
3C00
4200
8100
8000
8000
8000
8100
4200
3C00
0000
0000
ENDCHAR
STARTCHAR 64
ENCODING 100
SWIDTH 500 0
DWIDTH 9 0
BBX 9 18 0 -2
BITMAP
0000
0100
0100
0100
0100
0100
0100
3D00
4300
8100
8100
8100
8100
8100
4300
3D00
0000
0000
ENDCHAR
STARTCHAR 65
ENCODING 101
SWIDTH 500 0
DWIDTH 9 0
BBX 9 18 0 -2
BITMAP
0000
0000
0000
0000
0000
0000
0000
3C00
4200
8100
8100
FF00
8000
8100
4200
3C00
0000
0000
ENDCHAR
STARTCHAR 66
ENCODING 102
SWIDTH 500 0
DWIDTH 9 0
BBX 9 18 0 -2
BITMAP
0000
0000
0600
0900
1000
1000
1000
7E00
1000
1000
1000
1000
1000
1000
1000
1000
0000
0000
ENDCHAR
STARTCHAR 67
ENCODING 103
SWIDTH 500 0
DWIDTH 9 0
BBX 9 18 0 -2
BITMAP
0000
0000
0000
0000
0000
0000
0000
1D00
2200
2200
2200
1C00
2000
3C00
4200
4100
4100
3E00
ENDCHAR
STARTCHAR 68
ENCODING 104
SWIDTH 500 0
DWIDTH 9 0
BBX 9 18 0 -2
BITMAP
0000
4000
4000
4000
4000
4000
4000
5C00
6200
4100
4100
4100
4100
4100
4100
4100
0000
0000
ENDCHAR
STARTCHAR 69
ENCODING 105
SWIDTH 500 0
DWIDTH 9 0
BBX 9 18 0 -2
BITMAP
0000
0000
0000
0800
0800
0000
0000
1800
0800
0800
0800
0800
0800
0800
0800
0800
0000
0000
ENDCHAR
STARTCHAR 6a
ENCODING 106
SWIDTH 500 0
DWIDTH 9 0
BBX 9 18 0 -2
BITMAP
0000
0000
0000
0200
0200
0000
0000
0200
0200
0200
0200
0200
0200
0200
0200
0200
4400
3800
ENDCHAR
STARTCHAR 6b
ENCODING 107
SWIDTH 500 0
DWIDTH 9 0
BBX 9 18 0 -2
BITMAP
0000
4000
4000
4000
4000
4000
4000
4200
4400
4800
5000
7000
4800
4400
4200
4100
0000
0000
ENDCHAR
STARTCHAR 6c
ENCODING 108
SWIDTH 500 0
DWIDTH 9 0
BBX 9 18 0 -2
BITMAP
0000
3800
0800
0800
0800
0800
0800
0800
0800
0800
0800
0800
0800
0800
0800
0800
0000
0000
ENDCHAR
STARTCHAR 6d
ENCODING 109
SWIDTH 500 0
DWIDTH 9 0
BBX 9 18 0 -2
BITMAP
0000
0000
0000
0000
0000
0000
0000
A600
D900
9100
9100
9100
9100
9100
9100
9100
0000
0000
ENDCHAR
STARTCHAR 6e
ENCODING 110
SWIDTH 500 0
DWIDTH 9 0
BBX 9 18 0 -2
BITMAP
0000
0000
0000
0000
0000
0000
0000
4C00
5200
6100
4100
4100
4100
4100
4100
4100
0000
0000
ENDCHAR
STARTCHAR 6f
ENCODING 111
SWIDTH 500 0
DWIDTH 9 0
BBX 9 18 0 -2
BITMAP
0000
0000
0000
0000
0000
0000
0000
3C00
4200
8100
8100
8100
8100
8100
4200
3C00
0000
0000
ENDCHAR
STARTCHAR 70
ENCODING 112
SWIDTH 500 0
DWIDTH 9 0
BBX 9 18 0 -2
BITMAP
0000
0000
0000
0000
0000
0000
0000
BC00
C200
8100
8100
8100
8100
C200
BC00
8000
8000
8000
ENDCHAR
STARTCHAR 71
ENCODING 113
SWIDTH 500 0
DWIDTH 9 0
BBX 9 18 0 -2
BITMAP
0000
0000
0000
0000
0000
0000
0000
3D00
4300
8100
8100
8100
8100
4300
3D00
0100
0100
0100
ENDCHAR
STARTCHAR 72
ENCODING 114
SWIDTH 500 0
DWIDTH 9 0
BBX 9 18 0 -2
BITMAP
0000
0000
0000
0000
0000
0000
0000
4C00
5200
6000
4000
4000
4000
4000
4000
4000
0000
0000
ENDCHAR
STARTCHAR 73
ENCODING 115
SWIDTH 500 0
DWIDTH 9 0
BBX 9 18 0 -2
BITMAP
0000
0000
0000
0000
0000
0000
0000
3E00
4100
4100
4000
3E00
0100
4100
4100
3E00
0000
0000
ENDCHAR
STARTCHAR 74
ENCODING 116
SWIDTH 500 0
DWIDTH 9 0
BBX 9 18 0 -2
BITMAP
0000
0000
0000
0000
1000
1000
1000
7E00
1000
1000
1000
1000
1000
1000
1100
0E00
0000
0000
ENDCHAR
STARTCHAR 75
ENCODING 117
SWIDTH 500 0
DWIDTH 9 0
BBX 9 18 0 -2
BITMAP
0000
0000
0000
0000
0000
0000
0000
4100
4100
4100
4100
4100
4100
4100
2300
1D00
0000
0000
ENDCHAR
STARTCHAR 76
ENCODING 118
SWIDTH 500 0
DWIDTH 9 0
BBX 9 18 0 -2
BITMAP
0000
0000
0000
0000
0000
0000
0000
4100
4100
4100
2200
2200
1400
1400
0800
0800
0000
0000
ENDCHAR
STARTCHAR 77
ENCODING 119
SWIDTH 500 0
DWIDTH 9 0
BBX 9 18 0 -2
BITMAP
0000
0000
0000
0000
0000
0000
0000
4900
4900
4900
5500
5500
5500
2200
2200
2200
0000
0000
ENDCHAR
STARTCHAR 78
ENCODING 120
SWIDTH 500 0
DWIDTH 9 0
BBX 9 18 0 -2
BITMAP
0000
0000
0000
0000
0000
0000
0000
4100
2200
2200
1400
0800
1400
2200
2200
4100
0000
0000
ENDCHAR
STARTCHAR 79
ENCODING 121
SWIDTH 500 0
DWIDTH 9 0
BBX 9 18 0 -2
BITMAP
0000
0000
0000
0000
0000
0000
0000
8100
4200
4200
2400
2400
1800
0800
1000
1000
2000
C000
ENDCHAR
STARTCHAR 7a
ENCODING 122
SWIDTH 500 0
DWIDTH 9 0
BBX 9 18 0 -2
BITMAP
0000
0000
0000
0000
0000
0000
0000
FF00
0200
0400
0800
1000
2000
4000
8000
FF00
0000
0000
ENDCHAR
STARTCHAR 7b
ENCODING 123
SWIDTH 500 0
DWIDTH 9 0
BBX 9 18 0 -2
BITMAP
0200
0400
0800
0800
0800
0800
0800
0800
3000
0800
0800
0800
0800
0800
0800
0800
0400
0200
ENDCHAR
STARTCHAR 7c
ENCODING 124
SWIDTH 500 0
DWIDTH 9 0
BBX 9 18 0 -2
BITMAP
0800
0800
0800
0800
0800
0800
0800
0800
0800
0800
0800
0800
0800
0800
0800
0800
0800
0800
ENDCHAR
STARTCHAR 7d
ENCODING 125
SWIDTH 500 0
DWIDTH 9 0
BBX 9 18 0 -2
BITMAP
4000
2000
1000
1000
1000
1000
1000
1000
0C00
1000
1000
1000
1000
1000
1000
1000
2000
4000
ENDCHAR
STARTCHAR 7e
ENCODING 126
SWIDTH 500 0
DWIDTH 9 0
BBX 9 18 0 -2
BITMAP
0000
0000
7000
8900
0600
0000
0000
0000
0000
0000
0000
0000
0000
0000
0000
0000
0000
0000
ENDCHAR
STARTCHAR a1
ENCODING 161
SWIDTH 500 0
DWIDTH 9 0
BBX 9 18 0 -2
BITMAP
0000
0800
0800
0000
0000
0000
0000
0800
0800
0800
0800
1C00
1C00
1C00
1C00
1C00
0800
0000
ENDCHAR
STARTCHAR a2
ENCODING 162
SWIDTH 500 0
DWIDTH 9 0
BBX 9 18 0 -2
BITMAP
0000
0800
0800
3C00
4A00
4900
8900
8800
8800
8800
8800
8800
8900
4900
4A00
3C00
0800
0800
ENDCHAR
STARTCHAR a3
ENCODING 163
SWIDTH 500 0
DWIDTH 9 0
BBX 9 18 0 -2
BITMAP
0000
0000
0000
0000
1C00
2200
2000
2000
2000
2000
FE00
2000
2000
2000
7C00
A300
4000
0000
ENDCHAR
STARTCHAR a4
ENCODING 164
SWIDTH 500 0
DWIDTH 9 0
BBX 9 18 0 -2
BITMAP
0000
0000
0000
0000
0000
4200
3C00
2400
2400
3C00
4200
0000
0000
0000
0000
0000
0000
0000
ENDCHAR
STARTCHAR a5
ENCODING 165
SWIDTH 500 0
DWIDTH 9 0
BBX 9 18 0 -2
BITMAP
4100
4100
4100
2200
2200
2200
1400
1400
7F00
0800
7F00
0800
0800
0800
0800
0800
0000
0000
ENDCHAR
STARTCHAR a6
ENCODING 166
SWIDTH 500 0
DWIDTH 9 0
BBX 9 18 0 -2
BITMAP
0000
0800
0800
0800
0800
0800
0000
0000
0000
0000
0800
0800
0800
0800
0800
0800
0000
0000
ENDCHAR
STARTCHAR a7
ENCODING 167
SWIDTH 500 0
DWIDTH 9 0
BBX 9 18 0 -2
BITMAP
0000
1C00
2200
4100
4000
2000
1C00
2200
4100
2200
1C00
0200
0100
4100
2200
1C00
0000
0000
ENDCHAR
STARTCHAR a8
ENCODING 168
SWIDTH 500 0
DWIDTH 9 0
BBX 9 18 0 -2
BITMAP
0000
2200
2200
2200
0000
0000
0000
0000
0000
0000
0000
0000
0000
0000
0000
0000
0000
0000
ENDCHAR
STARTCHAR a9
ENCODING 169
SWIDTH 500 0
DWIDTH 9 0
BBX 9 18 0 -2
BITMAP
0000
0000
3E00
4100
8080
9C80
A280
A080
A080
A080
A280
A280
9C80
8080
4100
3E00
0000
0000
ENDCHAR
STARTCHAR aa
ENCODING 170
SWIDTH 500 0
DWIDTH 9 0
BBX 9 18 0 -2
BITMAP
0000
3C00
4200
0200
3E00
4200
4600
3A00
0000
7E00
0000
0000
0000
0000
0000
0000
0000
0000
ENDCHAR
STARTCHAR ab
ENCODING 171
SWIDTH 500 0
DWIDTH 9 0
BBX 9 18 0 -2
BITMAP
0000
0000
0000
0480
0900
1200
2400
4800
9000
4800
2400
1200
0900
0480
0000
0000
0000
0000
ENDCHAR
STARTCHAR ac
ENCODING 172
SWIDTH 500 0
DWIDTH 9 0
BBX 9 18 0 -2
BITMAP
0000
0000
0000
0000
0000
0000
0000
7F00
0100
0100
0100
0000
0000
0000
0000
0000
0000
0000
ENDCHAR
STARTCHAR ad
ENCODING 173
SWIDTH 500 0
DWIDTH 9 0
BBX 9 18 0 -2
BITMAP
0000
0000
0000
0000
0000
0000
0000
0000
FF00
0000
0000
0000
0000
0000
0000
0000
0000
0000
ENDCHAR
STARTCHAR ae
ENCODING 174
SWIDTH 500 0
DWIDTH 9 0
BBX 9 18 0 -2
BITMAP
0000
0000
3E00
4100
8180
BC80
A280
A280
A280
BC80
A480
A280
A280
A280
4100
3E00
0000
0000
ENDCHAR
STARTCHAR af
ENCODING 175
SWIDTH 500 0
DWIDTH 9 0
BBX 9 18 0 -2
BITMAP
0000
FF00
0000
0000
0000
0000
0000
0000
0000
0000
0000
0000
0000
0000
0000
0000
0000
0000
ENDCHAR
STARTCHAR b0
ENCODING 176
SWIDTH 500 0
DWIDTH 9 0
BBX 9 18 0 -2
BITMAP
0000
3C00
4200
4200
4200
4200
3C00
0000
0000
0000
0000
0000
0000
0000
0000
0000
0000
0000
ENDCHAR
STARTCHAR b1
ENCODING 177
SWIDTH 500 0
DWIDTH 9 0
BBX 9 18 0 -2
BITMAP
0000
0000
0000
0000
0800
0800
0800
7F00
0800
0800
0800
0000
0000
7F00
0000
0000
0000
0000
ENDCHAR
STARTCHAR b2
ENCODING 178
SWIDTH 500 0
DWIDTH 9 0
BBX 9 18 0 -2
BITMAP
0000
1C00
2200
0200
0400
0800
1000
2000
3E00
0000
0000
0000
0000
0000
0000
0000
0000
0000
ENDCHAR
STARTCHAR b3
ENCODING 179
SWIDTH 500 0
DWIDTH 9 0
BBX 9 18 0 -2
BITMAP
0000
1C00
2200
0200
0400
0C00
0200
2200
1C00
0000
0000
0000
0000
0000
0000
0000
0000
0000
ENDCHAR
STARTCHAR b4
ENCODING 180
SWIDTH 500 0
DWIDTH 9 0
BBX 9 18 0 -2
BITMAP
0000
0C00
1800
1000
2000
0000
0000
0000
0000
0000
0000
0000
0000
0000
0000
0000
0000
0000
ENDCHAR
STARTCHAR b5
ENCODING 181
SWIDTH 500 0
DWIDTH 9 0
BBX 9 18 0 -2
BITMAP
0000
0000
0000
0000
0000
0000
0000
0000
2100
2100
2100
4200
4200
4200
6600
5900
8080
8000
ENDCHAR
STARTCHAR b6
ENCODING 182
SWIDTH 500 0
DWIDTH 9 0
BBX 9 18 0 -2
BITMAP
0000
1E00
3E00
3A00
3A00
3A00
3A00
1A00
0A00
0A00
0A00
0A00
0A00
0A00
0A00
0A00
0000
0000
ENDCHAR
STARTCHAR b7
ENCODING 183
SWIDTH 500 0
DWIDTH 9 0
BBX 9 18 0 -2
BITMAP
0000
0000
0000
0000
0000
0000
1800
1800
0000
0000
0000
0000
0000
0000
0000
0000
0000
0000
ENDCHAR
STARTCHAR b8
ENCODING 184
SWIDTH 500 0
DWIDTH 9 0
BBX 9 18 0 -2
BITMAP
0000
0000
0000
0000
0000
0000
0000
0000
0000
0000
0000
0000
0000
0000
0C00
1800
2000
0000
ENDCHAR
STARTCHAR b9
ENCODING 185
SWIDTH 500 0
DWIDTH 9 0
BBX 9 18 0 -2
BITMAP
0000
0800
1800
0800
0800
0800
0800
0800
0000
0000
0000
0000
0000
0000
0000
0000
0000
0000
ENDCHAR
STARTCHAR ba
ENCODING 186
SWIDTH 500 0
DWIDTH 9 0
BBX 9 18 0 -2
BITMAP
0000
1C00
2200
2200
2200
2200
2200
1C00
0000
3E00
0000
0000
0000
0000
0000
0000
0000
0000
ENDCHAR
STARTCHAR bb
ENCODING 187
SWIDTH 500 0
DWIDTH 9 0
BBX 9 18 0 -2
BITMAP
0000
0000
0000
9000
4800
2400
1200
0900
0480
0900
1200
2400
4800
9000
0000
0000
0000
0000
ENDCHAR
STARTCHAR bc
ENCODING 188
SWIDTH 500 0
DWIDTH 9 0
BBX 9 18 0 -2
BITMAP
0000
4100
C200
4200
4400
4400
4800
4800
1100
1300
2300
2500
4900
4F80
8100
8100
0000
0000
ENDCHAR
STARTCHAR bd
ENCODING 189
SWIDTH 500 0
DWIDTH 9 0
BBX 9 18 0 -2
BITMAP
0000
4100
C200
4200
4400
4400
4800
4800
1600
1900
2100
2200
4400
4800
8800
8F00
0000
0000
ENDCHAR
STARTCHAR be
ENCODING 190
SWIDTH 500 0
DWIDTH 9 0
BBX 9 18 0 -2
BITMAP
0000
6000
9100
1100
3200
6200
1400
9400
6900
0B00
1300
1500
2900
2F80
4100
4100
0000
0000
ENDCHAR
STARTCHAR bf
ENCODING 191
SWIDTH 500 0
DWIDTH 9 0
BBX 9 18 0 -2
BITMAP
0000
0800
0800
0000
0000
0000
0800
0800
0800
0400
0200
4100
4100
4100
4100
2200
1C00
0000
ENDCHAR
STARTCHAR c0
ENCODING 192
SWIDTH 500 0
DWIDTH 9 0
BBX 9 18 0 -2
BITMAP
2000
1000
0800
1800
1800
2400
2400
2400
4200
4200
7E00
8100
8100
8100
8100
8100
0000
0000
ENDCHAR
STARTCHAR c1
ENCODING 193
SWIDTH 500 0
DWIDTH 9 0
BBX 9 18 0 -2
BITMAP
0400
0800
1000
1800
1800
2400
2400
2400
4200
4200
7E00
8100
8100
8100
8100
8100
0000
0000
ENDCHAR
STARTCHAR c2
ENCODING 194
SWIDTH 500 0
DWIDTH 9 0
BBX 9 18 0 -2
BITMAP
1800
2400
4200
1800
1800
2400
2400
2400
4200
4200
7E00
8100
8100
8100
8100
8100
0000
0000
ENDCHAR
STARTCHAR c3
ENCODING 195
SWIDTH 500 0
DWIDTH 9 0
BBX 9 18 0 -2
BITMAP
3200
4C00
0000
1800
1800
2400
2400
2400
4200
4200
7E00
8100
8100
8100
8100
8100
0000
0000
ENDCHAR
STARTCHAR c4
ENCODING 196
SWIDTH 500 0
DWIDTH 9 0
BBX 9 18 0 -2
BITMAP
2400
2400
0000
1800
1800
2400
2400
2400
4200
4200
7E00
8100
8100
8100
8100
8100
0000
0000
ENDCHAR
STARTCHAR c5
ENCODING 197
SWIDTH 500 0
DWIDTH 9 0
BBX 9 18 0 -2
BITMAP
1800
2400
2400
1800
1800
1800
2400
2400
2400
4200
4200
7E00
8100
8100
8100
8100
8100
0000
ENDCHAR
STARTCHAR c6
ENCODING 198
SWIDTH 500 0
DWIDTH 9 0
BBX 9 18 0 -2
BITMAP
0000
0000
1F80
1800
2800
2800
2800
2800
4F00
4800
7800
8800
8800
8800
8800
8F80
0000
0000
ENDCHAR
STARTCHAR c7
ENCODING 199
SWIDTH 500 0
DWIDTH 9 0
BBX 9 18 0 -2
BITMAP
0000
1C00
2200
4100
4000
8000
8000
8000
8000
8000
8000
8100
4100
4100
2200
1C00
0800
1800
ENDCHAR
STARTCHAR c8
ENCODING 200
SWIDTH 500 0
DWIDTH 9 0
BBX 9 18 0 -2
BITMAP
2000
1800
0000
FF00
8000
8000
8000
8000
8000
FE00
8000
8000
8000
8000
8000
FF00
0000
0000
ENDCHAR
STARTCHAR c9
ENCODING 201
SWIDTH 500 0
DWIDTH 9 0
BBX 9 18 0 -2
BITMAP
0400
1800
0000
FF00
8000
8000
8000
8000
8000
FE00
8000
8000
8000
8000
8000
FF00
0000
0000
ENDCHAR
STARTCHAR ca
ENCODING 202
SWIDTH 500 0
DWIDTH 9 0
BBX 9 18 0 -2
BITMAP
1800
2400
4200
FF00
8000
8000
8000
8000
8000
FE00
8000
8000
8000
8000
8000
FF00
0000
0000
ENDCHAR
STARTCHAR cb
ENCODING 203
SWIDTH 500 0
DWIDTH 9 0
BBX 9 18 0 -2
BITMAP
2400
2400
0000
FF00
8000
8000
8000
8000
8000
FE00
8000
8000
8000
8000
8000
FF00
0000
0000
ENDCHAR
STARTCHAR cc
ENCODING 204
SWIDTH 500 0
DWIDTH 9 0
BBX 9 18 0 -2
BITMAP
1000
0800
0400
1C00
0800
0800
0800
0800
0800
0800
0800
0800
0800
0800
0800
1C00
0000
0000
ENDCHAR
STARTCHAR cd
ENCODING 205
SWIDTH 500 0
DWIDTH 9 0
BBX 9 18 0 -2
BITMAP
0400
0800
1000
1C00
0800
0800
0800
0800
0800
0800
0800
0800
0800
0800
0800
1C00
0000
0000
ENDCHAR
STARTCHAR ce
ENCODING 206
SWIDTH 500 0
DWIDTH 9 0
BBX 9 18 0 -2
BITMAP
0800
1400
2200
1C00
0800
0800
0800
0800
0800
0800
0800
0800
0800
0800
0800
1C00
0000
0000
ENDCHAR
STARTCHAR cf
ENCODING 207
SWIDTH 500 0
DWIDTH 9 0
BBX 9 18 0 -2
BITMAP
1400
1400
0000
1C00
0800
0800
0800
0800
0800
0800
0800
0800
0800
0800
0800
1C00
0000
0000
ENDCHAR
STARTCHAR d0
ENCODING 208
SWIDTH 500 0
DWIDTH 9 0
BBX 9 18 0 -2
BITMAP
0000
7000
4800
4400
4200
4200
4100
4100
F100
4100
4100
4200
4200
4400
4800
7000
0000
0000
ENDCHAR
STARTCHAR d1
ENCODING 209
SWIDTH 500 0
DWIDTH 9 0
BBX 9 18 0 -2
BITMAP
3200
4C00
8100
C100
C100
A100
A100
9100
9100
8900
8900
8500
8500
8300
8300
8100
0000
0000
ENDCHAR
STARTCHAR d2
ENCODING 210
SWIDTH 500 0
DWIDTH 9 0
BBX 9 18 0 -2
BITMAP
2000
1000
0800
0000
3C00
4200
8100
8100
8100
8100
8100
8100
8100
8100
4200
3C00
0000
0000
ENDCHAR
STARTCHAR d3
ENCODING 211
SWIDTH 500 0
DWIDTH 9 0
BBX 9 18 0 -2
BITMAP
0400
0800
1000
0000
3C00
4200
8100
8100
8100
8100
8100
8100
8100
8100
4200
3C00
0000
0000
ENDCHAR
STARTCHAR d4
ENCODING 212
SWIDTH 500 0
DWIDTH 9 0
BBX 9 18 0 -2
BITMAP
1800
2400
4200
0000
3C00
4200
8100
8100
8100
8100
8100
8100
8100
8100
4200
3C00
0000
0000
ENDCHAR
STARTCHAR d5
ENCODING 213
SWIDTH 500 0
DWIDTH 9 0
BBX 9 18 0 -2
BITMAP
3200
4C00
0000
0000
3C00
4200
8100
8100
8100
8100
8100
8100
8100
8100
4200
3C00
0000
0000
ENDCHAR
STARTCHAR d6
ENCODING 214
SWIDTH 500 0
DWIDTH 9 0
BBX 9 18 0 -2
BITMAP
0000
2400
2400
0000
3C00
4200
8100
8100
8100
8100
8100
8100
8100
8100
4200
3C00
0000
0000
ENDCHAR
STARTCHAR d7
ENCODING 215
SWIDTH 500 0
DWIDTH 9 0
BBX 9 18 0 -2
BITMAP
0000
0000
0000
0000
8080
4100
2200
1400
0800
1400
2200
4100
8080
0000
0000
0000
0000
0000
ENDCHAR
STARTCHAR d8
ENCODING 216
SWIDTH 500 0
DWIDTH 9 0
BBX 9 18 0 -2
BITMAP
0100
0100
3E00
4200
8500
8500
8500
8900
8900
9100
9100
A100
A100
A100
4200
7C00
8000
8000
ENDCHAR
STARTCHAR d9
ENCODING 217
SWIDTH 500 0
DWIDTH 9 0
BBX 9 18 0 -2
BITMAP
2000
1000
0800
8100
8100
8100
8100
8100
8100
8100
8100
8100
8100
8100
4200
3C00
0000
0000
ENDCHAR
STARTCHAR da
ENCODING 218
SWIDTH 500 0
DWIDTH 9 0
BBX 9 18 0 -2
BITMAP
0400
0800
1000
8100
8100
8100
8100
8100
8100
8100
8100
8100
8100
8100
4200
3C00
0000
0000
ENDCHAR
STARTCHAR db
ENCODING 219
SWIDTH 500 0
DWIDTH 9 0
BBX 9 18 0 -2
BITMAP
1800
2400
4200
0000
8000
8100
8100
8100
8100
8100
8100
8100
8100
8100
4200
3C00
0000
0000
ENDCHAR
STARTCHAR dc
ENCODING 220
SWIDTH 500 0
DWIDTH 9 0
BBX 9 18 0 -2
BITMAP
3200
4C00
0000
8100
8100
8100
8100
8100
8100
8100
8100
8100
8100
8100
4200
3C00
0000
0000
ENDCHAR
STARTCHAR dd
ENCODING 221
SWIDTH 500 0
DWIDTH 9 0
BBX 9 18 0 -2
BITMAP
0400
0800
1000
4100
4100
4100
2200
2200
1400
1400
0800
0800
0800
0800
0800
0800
0000
0000
ENDCHAR
STARTCHAR de
ENCODING 222
SWIDTH 500 0
DWIDTH 9 0
BBX 9 18 0 -2
BITMAP
8000
8000
FC00
8200
8100
8100
8100
8200
FC00
8000
8000
8000
8000
8000
8000
8000
0000
0000
ENDCHAR
STARTCHAR df
ENCODING 223
SWIDTH 500 0
DWIDTH 9 0
BBX 9 18 0 -2
BITMAP
0000
3C00
4200
8100
8100
8100
8200
BC00
8200
8100
8100
8100
8100
8200
8400
B800
0000
0000
ENDCHAR
STARTCHAR e0
ENCODING 224
SWIDTH 500 0
DWIDTH 9 0
BBX 9 18 0 -2
BITMAP
0000
0000
1000
0800
0400
0000
0000
3E00
4100
0100
1D00
2300
4100
4100
4300
3D00
0000
0000
ENDCHAR
STARTCHAR e1
ENCODING 225
SWIDTH 500 0
DWIDTH 9 0
BBX 9 18 0 -2
BITMAP
0000
0000
0200
0400
0800
0000
0000
3E00
4100
0100
1D00
2300
4100
4100
4300
3D00
0000
0000
ENDCHAR
STARTCHAR e2
ENCODING 226
SWIDTH 500 0
DWIDTH 9 0
BBX 9 18 0 -2
BITMAP
0000
0000
0800
1400
2200
0000
0000
3E00
4100
0100
1D00
2300
4100
4100
4300
3D00
0000
0000
ENDCHAR
STARTCHAR e3
ENCODING 227
SWIDTH 500 0
DWIDTH 9 0
BBX 9 18 0 -2
BITMAP
0000
0000
1900
2600
0000
0000
0000
3E00
4100
0100
1D00
2300
4100
4100
4300
3D00
0000
0000
ENDCHAR
STARTCHAR e4
ENCODING 228
SWIDTH 500 0
DWIDTH 9 0
BBX 9 18 0 -2
BITMAP
0000
0000
0000
2200
2200
0000
0000
3E00
4100
0100
1D00
2300
4100
4100
4300
3D00
0000
0000
ENDCHAR
STARTCHAR e5
ENCODING 229
SWIDTH 500 0
DWIDTH 9 0
BBX 9 18 0 -2
BITMAP
0000
0000
0800
1400
0800
0000
0000
3E00
4100
0100
1D00
2300
4100
4100
4300
3D00
0000
0000
ENDCHAR
STARTCHAR e6
ENCODING 230
SWIDTH 500 0
DWIDTH 9 0
BBX 9 18 0 -2
BITMAP
0000
0000
0000
0000
0000
0000
0000
6700
9880
0880
0880
7F80
8800
8880
9880
6700
0000
0000
ENDCHAR
STARTCHAR e7
ENCODING 231
SWIDTH 500 0
DWIDTH 9 0
BBX 9 18 0 -2
BITMAP
0000
0000
0000
0000
0000
0000
0000
3C00
4200
8100
8000
8000
8100
4200
3C00
0800
0800
1000
ENDCHAR
STARTCHAR e8
ENCODING 232
SWIDTH 500 0
DWIDTH 9 0
BBX 9 18 0 -2
BITMAP
0000
0000
2000
1000
0800
0000
0000
3C00
4200
8100
8100
FF00
8000
8100
4200
3C00
0000
0000
ENDCHAR
STARTCHAR e9
ENCODING 233
SWIDTH 500 0
DWIDTH 9 0
BBX 9 18 0 -2
BITMAP
0000
0000
0400
0800
1000
0000
0000
3C00
4200
8100
8100
FF00
8000
8100
4200
3C00
0000
0000
ENDCHAR
STARTCHAR ea
ENCODING 234
SWIDTH 500 0
DWIDTH 9 0
BBX 9 18 0 -2
BITMAP
0000
0000
1000
2800
4400
0000
0000
3C00
4200
8100
8100
FF00
8000
8100
4200
3C00
0000
0000
ENDCHAR
STARTCHAR eb
ENCODING 235
SWIDTH 500 0
DWIDTH 9 0
BBX 9 18 0 -2
BITMAP
0000
0000
0000
4400
4400
0000
0000
3C00
4200
8100
8100
FF00
8000
8100
4200
3C00
0000
0000
ENDCHAR
STARTCHAR ec
ENCODING 236
SWIDTH 500 0
DWIDTH 9 0
BBX 9 18 0 -2
BITMAP
0000
0000
2000
1000
0800
0000
0000
1800
0800
0800
0800
0800
0800
0800
0800
0800
0000
0000
ENDCHAR
STARTCHAR ed
ENCODING 237
SWIDTH 500 0
DWIDTH 9 0
BBX 9 18 0 -2
BITMAP
0000
0000
0400
0800
1000
0000
0000
1800
0800
0800
0800
0800
0800
0800
0800
0800
0000
0000
ENDCHAR
STARTCHAR ee
ENCODING 238
SWIDTH 500 0
DWIDTH 9 0
BBX 9 18 0 -2
BITMAP
0000
0000
0800
1400
2200
0000
0000
1800
0800
0800
0800
0800
0800
0800
0800
0800
0000
0000
ENDCHAR
STARTCHAR ef
ENCODING 239
SWIDTH 500 0
DWIDTH 9 0
BBX 9 18 0 -2
BITMAP
0000
0000
0000
2400
2400
0000
0000
1800
0800
0800
0800
0800
0800
0800
0800
0800
0000
0000
ENDCHAR
STARTCHAR f0
ENCODING 240
SWIDTH 500 0
DWIDTH 9 0
BBX 9 18 0 -2
BITMAP
0000
0000
6200
1400
1800
2800
4400
3E00
4300
8100
8100
8100
8100
8100
4200
3C00
0000
0000
ENDCHAR
STARTCHAR f1
ENCODING 241
SWIDTH 500 0
DWIDTH 9 0
BBX 9 18 0 -2
BITMAP
0000
0000
0000
3200
4C00
0000
0000
5C00
6200
4100
4100
4100
4100
4100
4100
4100
0000
0000
ENDCHAR
STARTCHAR f2
ENCODING 242
SWIDTH 500 0
DWIDTH 9 0
BBX 9 18 0 -2
BITMAP
0000
0000
2000
1000
0800
0000
0000
3C00
4200
8100
8100
8100
8100
8100
4200
3C00
0000
0000
ENDCHAR
STARTCHAR f3
ENCODING 243
SWIDTH 500 0
DWIDTH 9 0
BBX 9 18 0 -2
BITMAP
0000
0000
0400
0800
1000
0000
0000
3C00
4200
8100
8100
8100
8100
8100
4200
3C00
0000
0000
ENDCHAR
STARTCHAR f4
ENCODING 244
SWIDTH 500 0
DWIDTH 9 0
BBX 9 18 0 -2
BITMAP
0000
0000
1800
2400
4200
0000
0000
3C00
4200
8100
8100
8100
8100
8100
4200
3C00
0000
0000
ENDCHAR
STARTCHAR f5
ENCODING 245
SWIDTH 500 0
DWIDTH 9 0
BBX 9 18 0 -2
BITMAP
0000
0000
3200
4C00
0000
0000
0000
3C00
4200
8100
8100
8100
8100
8100
4200
3C00
0000
0000
ENDCHAR
STARTCHAR f6
ENCODING 246
SWIDTH 500 0
DWIDTH 9 0
BBX 9 18 0 -2
BITMAP
0000
0000
4200
4200
0000
0000
0000
3C00
4200
8100
8100
8100
8100
8100
4200
3C00
0000
0000
ENDCHAR
STARTCHAR f7
ENCODING 247
SWIDTH 500 0
DWIDTH 9 0
BBX 9 18 0 -2
BITMAP
0000
0000
0000
0000
0000
0000
1800
0000
0000
FF00
0000
0000
1800
0000
0000
0000
0000
0000
ENDCHAR
STARTCHAR f8
ENCODING 248
SWIDTH 500 0
DWIDTH 9 0
BBX 9 18 0 -2
BITMAP
0000
0000
0000
0000
0000
0000
0100
3E00
4600
8900
8900
9100
A100
A100
4200
BC00
0000
0000
ENDCHAR
STARTCHAR f9
ENCODING 249
SWIDTH 500 0
DWIDTH 9 0
BBX 9 18 0 -2
BITMAP
0000
0000
0000
1000
0800
0400
0000
4100
4100
4100
4100
4100
4100
4100
4300
3D00
0000
0000
ENDCHAR
STARTCHAR fa
ENCODING 250
SWIDTH 500 0
DWIDTH 9 0
BBX 9 18 0 -2
BITMAP
0000
0000
0400
0800
1000
0000
0000
4100
4100
4100
4100
4100
4100
4100
4300
3D00
0000
0000
ENDCHAR
STARTCHAR fb
ENCODING 251
SWIDTH 500 0
DWIDTH 9 0
BBX 9 18 0 -2
BITMAP
0000
0000
0800
1400
2200
0000
0000
4100
4100
4100
4100
4100
4100
4100
4300
3D00
0000
0000
ENDCHAR
STARTCHAR fc
ENCODING 252
SWIDTH 500 0
DWIDTH 9 0
BBX 9 18 0 -2
BITMAP
0000
0000
2200
2200
0000
0000
0000
4100
4100
4100
4100
4100
4100
4100
4300
3D00
0000
0000
ENDCHAR
STARTCHAR fd
ENCODING 253
SWIDTH 500 0
DWIDTH 9 0
BBX 9 18 0 -2
BITMAP
0000
0000
0400
0800
1000
0000
0000
8100
4200
4200
2400
2400
0800
1800
1000
1000
2000
C000
ENDCHAR
STARTCHAR fe
ENCODING 254
SWIDTH 500 0
DWIDTH 9 0
BBX 9 18 0 -2
BITMAP
0000
0000
0000
0000
8000
8000
8000
BC00
C200
8100
8100
8100
8100
C200
BC00
8000
8000
8000
ENDCHAR
STARTCHAR ff
ENCODING 255
SWIDTH 500 0
DWIDTH 9 0
BBX 9 18 0 -2
BITMAP
0000
0000
0000
2200
2200
0000
0000
8100
4200
4200
2400
2400
1800
1800
1000
1000
2000
C000
ENDCHAR
STARTCHAR a1
ENCODING 65377
SWIDTH 500 0
DWIDTH 9 0
BBX 9 18 0 -2
BITMAP
0000
0000
0000
0000
0000
0000
0000
0000
0000
0000
0000
0000
0000
3000
4800
4800
3000
0000
ENDCHAR
STARTCHAR a2
ENCODING 65378
SWIDTH 500 0
DWIDTH 9 0
BBX 9 18 0 -2
BITMAP
0000
3F00
2000
2000
2000
2000
2000
2000
2000
2000
2000
0000
0000
0000
0000
0000
0000
0000
ENDCHAR
STARTCHAR a3
ENCODING 65379
SWIDTH 500 0
DWIDTH 9 0
BBX 9 18 0 -2
BITMAP
0000
0000
0000
0000
0000
0000
0000
0800
0800
0800
0800
0800
0800
0800
0800
0800
F800
0000
ENDCHAR
STARTCHAR a4
ENCODING 65380
SWIDTH 500 0
DWIDTH 9 0
BBX 9 18 0 -2
BITMAP
0000
0000
0000
0000
0000
0000
0000
0000
0000
0000
0000
0000
0000
0000
2000
1000
1000
0000
ENDCHAR
STARTCHAR a5
ENCODING 65381
SWIDTH 500 0
DWIDTH 9 0
BBX 9 18 0 -2
BITMAP
0000
0000
0000
0000
0000
0000
0000
0000
1800
1800
0000
0000
0000
0000
0000
0000
0000
0000
ENDCHAR
STARTCHAR a6
ENCODING 65382
SWIDTH 500 0
DWIDTH 9 0
BBX 9 18 0 -2
BITMAP
0000
0000
7F00
0100
0100
0100
0100
7F00
0100
0200
0200
0400
0800
1000
2000
4000
0000
0000
ENDCHAR
STARTCHAR a7
ENCODING 65383
SWIDTH 500 0
DWIDTH 9 0
BBX 9 18 0 -2
BITMAP
0000
0000
0000
0000
0000
0000
0000
0000
7F00
0100
0A00
0C00
0800
0800
1000
1000
2000
0000
ENDCHAR
STARTCHAR a8
ENCODING 65384
SWIDTH 500 0
DWIDTH 9 0
BBX 9 18 0 -2
BITMAP
0000
0000
0000
0000
0000
0000
0000
0600
0400
0800
1800
2800
4800
0800
0800
0800
0800
0000
ENDCHAR
STARTCHAR a9
ENCODING 65385
SWIDTH 500 0
DWIDTH 9 0
BBX 9 18 0 -2
BITMAP
0000
0000
0000
0000
0000
0000
0000
0800
0800
7F00
4100
4100
4100
0200
0400
0800
1000
0000
ENDCHAR
STARTCHAR aa
ENCODING 65386
SWIDTH 500 0
DWIDTH 9 0
BBX 9 18 0 -2
BITMAP
0000
0000
0000
0000
0000
0000
0000
0000
0000
3E00
0800
0800
0800
0800
0800
7F00
0000
0000
ENDCHAR
STARTCHAR ab
ENCODING 65387
SWIDTH 500 0
DWIDTH 9 0
BBX 9 18 0 -2
BITMAP
0000
0000
0000
0000
0000
0000
0000
0800
0800
FF00
0800
0800
1800
2800
4800
8800
1800
0000
ENDCHAR
STARTCHAR ac
ENCODING 65388
SWIDTH 500 0
DWIDTH 9 0
BBX 9 18 0 -2
BITMAP
0000
0000
0000
0000
0000
0000
0000
0000
0000
2000
2700
3900
5200
0800
0800
0400
0000
0000
ENDCHAR
STARTCHAR ad
ENCODING 65389
SWIDTH 500 0
DWIDTH 9 0
BBX 9 18 0 -2
BITMAP
0000
0000
0000
0000
0000
0000
0000
0000
0000
7C00
0400
0400
0400
0400
FF00
0000
0000
0000
ENDCHAR
STARTCHAR ae
ENCODING 65390
SWIDTH 500 0
DWIDTH 9 0
BBX 9 18 0 -2
BITMAP
0000
0000
0000
0000
0000
0000
0000
0000
7E00
0200
0200
7E00
0200
0200
0200
7E00
0000
0000
ENDCHAR
STARTCHAR af
ENCODING 65391
SWIDTH 500 0
DWIDTH 9 0
BBX 9 18 0 -2
BITMAP
0000
0000
0000
0000
0000
0000
0000
1100
4900
2900
2100
0200
0200
0400
0800
1000
0000
0000
ENDCHAR
STARTCHAR b0
ENCODING 65392
SWIDTH 500 0
DWIDTH 9 0
BBX 9 18 0 -2
BITMAP
0000
0000
0000
0000
0000
0000
0000
3E00
0000
0000
0000
0000
0000
0000
0000
0000
0000
0000
ENDCHAR
STARTCHAR b1
ENCODING 65393
SWIDTH 500 0
DWIDTH 9 0
BBX 9 18 0 -2
BITMAP
0000
0000
FF00
0100
0100
0100
1100
1200
1200
1400
1000
2000
2000
2000
4000
8000
0000
0000
ENDCHAR
STARTCHAR b2
ENCODING 65394
SWIDTH 500 0
DWIDTH 9 0
BBX 9 18 0 -2
BITMAP
0000
0100
0100
0200
0200
0400
0800
1800
2800
4800
8800
0800
0800
0800
0800
0800
0000
0000
ENDCHAR
STARTCHAR b3
ENCODING 65395
SWIDTH 500 0
DWIDTH 9 0
BBX 9 18 0 -2
BITMAP
0000
1000
1000
1000
FF00
8100
8100
8100
8100
0100
0200
0200
0400
0800
1000
2000
0000
0000
ENDCHAR
STARTCHAR b4
ENCODING 65396
SWIDTH 500 0
DWIDTH 9 0
BBX 9 18 0 -2
BITMAP
0000
0000
0000
7F00
0800
0800
0800
0800
0800
0800
0800
0800
0800
0800
FF80
0000
0000
0000
ENDCHAR
STARTCHAR b5
ENCODING 65397
SWIDTH 500 0
DWIDTH 9 0
BBX 9 18 0 -2
BITMAP
0000
0000
0800
0800
FF00
0800
0800
1800
1800
2800
2800
4800
8800
8800
0800
0800
0000
0000
ENDCHAR
STARTCHAR b6
ENCODING 65398
SWIDTH 500 0
DWIDTH 9 0
BBX 9 18 0 -2
BITMAP
0000
1000
1000
1000
FF00
1100
1100
1100
1100
1100
2100
2100
2100
2100
4100
8600
0000
0000
ENDCHAR
STARTCHAR b7
ENCODING 65399
SWIDTH 500 0
DWIDTH 9 0
BBX 9 18 0 -2
BITMAP
0000
0000
2000
2000
2200
FC00
1000
1000
1000
0F00
F800
0800
0800
0400
0400
0400
0000
0000
ENDCHAR
STARTCHAR b8
ENCODING 65400
SWIDTH 500 0
DWIDTH 9 0
BBX 9 18 0 -2
BITMAP
0000
0000
2000
3F00
2100
2100
2100
4100
4200
8200
0400
0400
0800
1000
2000
4000
0000
0000
ENDCHAR
STARTCHAR b9
ENCODING 65401
SWIDTH 500 0
DWIDTH 9 0
BBX 9 18 0 -2
BITMAP
0000
0000
4000
4000
7F00
4400
4400
4400
8400
0400
0400
0800
0800
1000
2000
4000
0000
0000
ENDCHAR
STARTCHAR ba
ENCODING 65402
SWIDTH 500 0
DWIDTH 9 0
BBX 9 18 0 -2
BITMAP
0000
0000
0000
FF00
0100
0100
0100
0100
0100
0100
0100
0100
0100
FF00
0100
0000
0000
0000
ENDCHAR
STARTCHAR bb
ENCODING 65403
SWIDTH 500 0
DWIDTH 9 0
BBX 9 18 0 -2
BITMAP
0000
0000
2200
2200
2200
2200
FF00
2200
2200
2200
2200
0200
0400
0800
1000
2000
0000
0000
ENDCHAR
STARTCHAR bc
ENCODING 65404
SWIDTH 500 0
DWIDTH 9 0
BBX 9 18 0 -2
BITMAP
0000
0000
6000
1000
0000
0000
0000
C100
2100
0200
0200
0400
0800
1000
2000
C000
0000
0000
ENDCHAR
STARTCHAR bd
ENCODING 65405
SWIDTH 500 0
DWIDTH 9 0
BBX 9 18 0 -2
BITMAP
0000
0000
0000
FF00
0100
0100
0200
0200
0400
0400
0C00
1200
1200
2100
4100
8080
0000
0000
ENDCHAR
STARTCHAR be
ENCODING 65406
SWIDTH 500 0
DWIDTH 9 0
BBX 9 18 0 -2
BITMAP
0000
0000
4000
4000
4000
4000
4F00
7100
C200
4400
4000
4000
4000
4000
4000
3F00
0000
0000
ENDCHAR
STARTCHAR bf
ENCODING 65407
SWIDTH 500 0
DWIDTH 9 0
BBX 9 18 0 -2
BITMAP
0000
0000
0100
8100
8100
4100
4100
4100
0200
0200
0400
0400
0800
1000
2000
4000
0000
0000
ENDCHAR
STARTCHAR c0
ENCODING 65408
SWIDTH 500 0
DWIDTH 9 0
BBX 9 18 0 -2
BITMAP
0000
2000
2000
3F00
2100
2100
4100
6100
5200
8A00
0400
0400
0800
1000
2000
4000
0000
0000
ENDCHAR
STARTCHAR c1
ENCODING 65409
SWIDTH 500 0
DWIDTH 9 0
BBX 9 18 0 -2
BITMAP
0000
0100
0600
7800
0800
0800
0800
FF80
0800
0800
0800
0800
0800
1000
2000
4000
0000
0000
ENDCHAR
STARTCHAR c2
ENCODING 65410
SWIDTH 500 0
DWIDTH 9 0
BBX 9 18 0 -2
BITMAP
0000
0000
2000
2100
A100
9100
9100
4100
4200
0200
0400
0400
0800
1000
2000
4000
0000
0000
ENDCHAR
STARTCHAR c3
ENCODING 65411
SWIDTH 500 0
DWIDTH 9 0
BBX 9 18 0 -2
BITMAP
0000
0000
7E00
0000
0000
0000
0000
FF00
0800
0800
0800
0800
0800
1000
2000
4000
0000
0000
ENDCHAR
STARTCHAR c4
ENCODING 65412
SWIDTH 500 0
DWIDTH 9 0
BBX 9 18 0 -2
BITMAP
0000
2000
2000
2000
2000
3000
3800
2400
2200
2100
2100
2000
2000
2000
2000
2000
0000
0000
ENDCHAR
STARTCHAR c5
ENCODING 65413
SWIDTH 500 0
DWIDTH 9 0
BBX 9 18 0 -2
BITMAP
0000
0000
0800
0800
0800
FF00
0800
0800
0800
0800
0800
0800
1000
1000
2000
4000
0000
0000
ENDCHAR
STARTCHAR c6
ENCODING 65414
SWIDTH 500 0
DWIDTH 9 0
BBX 9 18 0 -2
BITMAP
0000
0000
0000
7E00
0000
0000
0000
0000
0000
0000
0000
0000
0000
FF00
0000
0000
0000
0000
ENDCHAR
STARTCHAR c7
ENCODING 65415
SWIDTH 500 0
DWIDTH 9 0
BBX 9 18 0 -2
BITMAP
0000
0000
7F00
0100
0100
0100
2200
1200
0C00
0400
0A00
1100
1000
2000
4000
8000
0000
0000
ENDCHAR
STARTCHAR c8
ENCODING 65416
SWIDTH 500 0
DWIDTH 9 0
BBX 9 18 0 -2
BITMAP
0000
1000
1000
1000
FE00
0200
0200
0400
0800
1400
3200
5100
9000
1000
1000
1000
0000
0000
ENDCHAR
STARTCHAR c9
ENCODING 65417
SWIDTH 500 0
DWIDTH 9 0
BBX 9 18 0 -2
BITMAP
0000
0100
0100
0100
0200
0200
0200
0200
0400
0400
0800
1000
2000
4000
8000
0000
0000
0000
ENDCHAR
STARTCHAR ca
ENCODING 65418
SWIDTH 500 0
DWIDTH 9 0
BBX 9 18 0 -2
BITMAP
0000
0000
0000
0C00
0400
2200
2200
2200
2100
2100
2100
2100
4100
4100
4100
8100
0000
0000
ENDCHAR
STARTCHAR cb
ENCODING 65419
SWIDTH 500 0
DWIDTH 9 0
BBX 9 18 0 -2
BITMAP
0000
4000
4000
4000
4000
4100
4E00
7000
4000
4000
4000
4000
4000
4000
4000
3F00
0000
0000
ENDCHAR
STARTCHAR cc
ENCODING 65420
SWIDTH 500 0
DWIDTH 9 0
BBX 9 18 0 -2
BITMAP
0000
0000
FF00
0100
0100
0100
0100
0100
0200
0200
0400
0400
0800
1000
2000
4000
0000
0000
ENDCHAR
STARTCHAR cd
ENCODING 65421
SWIDTH 500 0
DWIDTH 9 0
BBX 9 18 0 -2
BITMAP
0000
0000
0000
2000
2000
3000
5000
4800
8400
8400
0200
0100
0080
0000
0000
0000
0000
0000
ENDCHAR
STARTCHAR ce
ENCODING 65422
SWIDTH 500 0
DWIDTH 9 0
BBX 9 18 0 -2
BITMAP
0000
1000
1000
1000
1000
FF00
1000
1000
5400
5200
5200
5200
9100
9100
1000
3000
0000
0000
ENDCHAR
STARTCHAR cf
ENCODING 65423
SWIDTH 500 0
DWIDTH 9 0
BBX 9 18 0 -2
BITMAP
0000
0000
0000
FF00
0100
0100
0100
0200
0200
4400
2800
1800
0800
0400
0200
0000
0000
0000
ENDCHAR
STARTCHAR d0
ENCODING 65424
SWIDTH 500 0
DWIDTH 9 0
BBX 9 18 0 -2
BITMAP
0000
0000
3000
0C00
0200
0000
0000
3000
0C00
0200
0000
0000
7000
0C00
0200
0100
0000
0000
ENDCHAR
STARTCHAR d1
ENCODING 65425
SWIDTH 500 0
DWIDTH 9 0
BBX 9 18 0 -2
BITMAP
0000
0000
1000
1000
1000
1000
1000
1000
2000
2200
2200
2100
4700
9900
E100
0000
0000
0000
ENDCHAR
STARTCHAR d2
ENCODING 65426
SWIDTH 500 0
DWIDTH 9 0
BBX 9 18 0 -2
BITMAP
0000
0200
0200
0200
0200
0200
6200
1400
0C00
0600
0900
1000
1000
2000
4000
8000
0000
0000
ENDCHAR
STARTCHAR d3
ENCODING 65427
SWIDTH 500 0
DWIDTH 9 0
BBX 9 18 0 -2
BITMAP
0000
0000
0000
FF00
2000
2000
2000
2000
FF00
2000
2000
2000
2000
2000
1000
0F00
0000
0000
ENDCHAR
STARTCHAR d4
ENCODING 65428
SWIDTH 500 0
DWIDTH 9 0
BBX 9 18 0 -2
BITMAP
0000
2000
2000
2000
2780
1880
3080
D100
1100
0A00
0800
0800
0400
0400
0200
0200
0000
0000
ENDCHAR
STARTCHAR d5
ENCODING 65429
SWIDTH 500 0
DWIDTH 9 0
BBX 9 18 0 -2
BITMAP
0000
0000
0000
0000
0000
7E00
0200
0200
0200
0200
0200
0200
0200
0200
FF80
0000
0000
0000
ENDCHAR
STARTCHAR d6
ENCODING 65430
SWIDTH 500 0
DWIDTH 9 0
BBX 9 18 0 -2
BITMAP
0000
0000
FF00
0100
0100
0100
0100
0100
7F00
0100
0100
0100
0100
0100
0100
FF00
0000
0000
ENDCHAR
STARTCHAR d7
ENCODING 65431
SWIDTH 500 0
DWIDTH 9 0
BBX 9 18 0 -2
BITMAP
0000
0000
7E00
0000
0000
0000
0000
FF00
0100
0100
0200
0200
0400
0800
1000
6000
0000
0000
ENDCHAR
STARTCHAR d8
ENCODING 65432
SWIDTH 500 0
DWIDTH 9 0
BBX 9 18 0 -2
BITMAP
0000
0000
4200
4200
4200
4200
4200
4200
4200
4200
0200
0400
0400
0800
1000
2000
0000
0000
ENDCHAR
STARTCHAR d9
ENCODING 65433
SWIDTH 500 0
DWIDTH 9 0
BBX 9 18 0 -2
BITMAP
0000
0000
0000
0800
2800
2800
2800
2800
2800
2880
2880
4900
4900
4A00
4C00
8800
0000
0000
ENDCHAR
STARTCHAR da
ENCODING 65434
SWIDTH 500 0
DWIDTH 9 0
BBX 9 18 0 -2
BITMAP
0000
0000
4000
4000
4000
4000
4000
4000
4000
4100
4200
4200
4400
4800
5000
6000
0000
0000
ENDCHAR
STARTCHAR db
ENCODING 65435
SWIDTH 500 0
DWIDTH 9 0
BBX 9 18 0 -2
BITMAP
0000
0000
0000
FF00
8100
8100
8100
8100
8100
8100
8100
8100
8100
FF00
8100
0000
0000
0000
ENDCHAR
STARTCHAR dc
ENCODING 65436
SWIDTH 500 0
DWIDTH 9 0
BBX 9 18 0 -2
BITMAP
0000
0000
0000
FF00
8100
8100
8100
8100
8100
0100
0200
0200
0400
0800
1000
2000
0000
0000
ENDCHAR
STARTCHAR dd
ENCODING 65437
SWIDTH 500 0
DWIDTH 9 0
BBX 9 18 0 -2
BITMAP
0000
0000
0000
0000
C000
2000
1100
0100
0100
0200
0200
0400
0800
1000
2000
C000
0000
0000
ENDCHAR
STARTCHAR de
ENCODING 65438
SWIDTH 500 0
DWIDTH 9 0
BBX 9 18 0 -2
BITMAP
0000
5000
2800
2800
0000
0000
0000
0000
0000
0000
0000
0000
0000
0000
0000
0000
0000
0000
ENDCHAR
STARTCHAR df
ENCODING 65439
SWIDTH 500 0
DWIDTH 9 0
BBX 9 18 0 -2
BITMAP
0000
3000
4800
4800
3000
0000
0000
0000
0000
0000
0000
0000
0000
0000
0000
0000
0000
0000
ENDCHAR
ENDFONT
