STARTFONT 2.1
FONT Bm437_Paradise132_7x9-12px
SIZE 12 75 75
FONTBOUNDINGBOX 7 11 0 -2
STARTPROPERTIES 3
PIXEL_SIZE 12
FONT_ASCENT 10
FONT_DESCENT 2
ENDPROPERTIES
CHARS 295
STARTCHAR uni0000
ENCODING 0
SWIDTH 583 0
DWIDTH 7 0
BBX 7 9 0 -2
BITMAP
00
00
00
00
00
00
00
00
00
ENDCHAR
STARTCHAR uni0001
ENCODING 1
SWIDTH 583 0
DWIDTH 7 0
BBX 7 9 0 -2
BITMAP
38
44
6C
44
7C
54
38
00
00
ENDCHAR
STARTCHAR uni0002
ENCODING 2
SWIDTH 583 0
DWIDTH 7 0
BBX 7 9 0 -2
BITMAP
38
7C
54
7C
44
6C
38
00
00
ENDCHAR
STARTCHAR uni0003
ENCODING 3
SWIDTH 583 0
DWIDTH 7 0
BBX 7 9 0 -2
BITMAP
00
28
7C
7C
7C
38
10
00
00
ENDCHAR
STARTCHAR uni0004
ENCODING 4
SWIDTH 583 0
DWIDTH 7 0
BBX 7 9 0 -2
BITMAP
00
10
38
7C
38
10
00
00
00
ENDCHAR
STARTCHAR uni0005
ENCODING 5
SWIDTH 583 0
DWIDTH 7 0
BBX 7 9 0 -2
BITMAP
10
28
44
44
38
10
38
00
00
ENDCHAR
STARTCHAR uni0006
ENCODING 6
SWIDTH 583 0
DWIDTH 7 0
BBX 7 9 0 -2
BITMAP
10
38
7C
7C
10
10
38
00
00
ENDCHAR
STARTCHAR uni0007
ENCODING 7
SWIDTH 583 0
DWIDTH 7 0
BBX 7 9 0 -2
BITMAP
00
00
00
10
10
00
00
00
00
ENDCHAR
STARTCHAR uni0008
ENCODING 8
SWIDTH 583 0
DWIDTH 7 0
BBX 7 9 0 -2
BITMAP
7C
7C
7C
6C
6C
7C
7C
7C
7C
ENDCHAR
STARTCHAR uni0009
ENCODING 9
SWIDTH 583 0
DWIDTH 7 0
BBX 7 9 0 -2
BITMAP
00
00
38
44
44
44
38
00
00
ENDCHAR
STARTCHAR uni000A
ENCODING 10
SWIDTH 583 0
DWIDTH 7 0
BBX 7 9 0 -2
BITMAP
7C
7C
4C
04
04
4C
7C
00
00
ENDCHAR
STARTCHAR uni000B
ENCODING 11
SWIDTH 583 0
DWIDTH 7 0
BBX 7 9 0 -2
BITMAP
1C
14
20
78
44
44
38
00
00
ENDCHAR
STARTCHAR uni000C
ENCODING 12
SWIDTH 583 0
DWIDTH 7 0
BBX 7 9 0 -2
BITMAP
38
44
44
28
10
7C
10
00
00
ENDCHAR
STARTCHAR uni000D
ENCODING 13
SWIDTH 583 0
DWIDTH 7 0
BBX 7 9 0 -2
BITMAP
3C
24
3C
20
20
20
40
00
00
ENDCHAR
STARTCHAR uni000E
ENCODING 14
SWIDTH 583 0
DWIDTH 7 0
BBX 7 9 0 -2
BITMAP
3C
24
3C
24
24
28
40
00
00
ENDCHAR
STARTCHAR uni000F
ENCODING 15
SWIDTH 583 0
DWIDTH 7 0
BBX 7 9 0 -2
BITMAP
10
54
28
44
28
54
10
00
00
ENDCHAR
STARTCHAR uni0010
ENCODING 16
SWIDTH 583 0
DWIDTH 7 0
BBX 7 9 0 -2
BITMAP
40
60
70
7C
70
60
40
00
00
ENDCHAR
STARTCHAR uni0011
ENCODING 17
SWIDTH 583 0
DWIDTH 7 0
BBX 7 9 0 -2
BITMAP
04
0C
1C
7C
1C
0C
04
00
00
ENDCHAR
STARTCHAR uni0012
ENCODING 18
SWIDTH 583 0
DWIDTH 7 0
BBX 7 9 0 -2
BITMAP
10
38
7C
10
7C
38
10
00
00
ENDCHAR
STARTCHAR uni0013
ENCODING 19
SWIDTH 583 0
DWIDTH 7 0
BBX 7 9 0 -2
BITMAP
24
24
24
24
24
00
24
00
00
ENDCHAR
STARTCHAR uni0014
ENCODING 20
SWIDTH 583 0
DWIDTH 7 0
BBX 7 9 0 -2
BITMAP
3C
54
54
3C
14
14
14
00
00
ENDCHAR
STARTCHAR uni0015
ENCODING 21
SWIDTH 583 0
DWIDTH 7 0
BBX 7 9 0 -2
BITMAP
18
20
10
28
10
08
30
00
00
ENDCHAR
STARTCHAR uni0016
ENCODING 22
SWIDTH 583 0
DWIDTH 7 0
BBX 7 9 0 -2
BITMAP
00
00
00
00
7C
7C
00
00
00
ENDCHAR
STARTCHAR uni0017
ENCODING 23
SWIDTH 583 0
DWIDTH 7 0
BBX 7 9 0 -2
BITMAP
10
38
7C
10
7C
38
7C
00
00
ENDCHAR
STARTCHAR uni0018
ENCODING 24
SWIDTH 583 0
DWIDTH 7 0
BBX 7 9 0 -2
BITMAP
10
38
7C
10
10
10
10
00
00
ENDCHAR
STARTCHAR uni0019
ENCODING 25
SWIDTH 583 0
DWIDTH 7 0
BBX 7 9 0 -2
BITMAP
10
10
10
10
7C
38
10
00
00
ENDCHAR
STARTCHAR uni001A
ENCODING 26
SWIDTH 583 0
DWIDTH 7 0
BBX 7 9 0 -2
BITMAP
00
10
18
7C
18
10
00
00
00
ENDCHAR
STARTCHAR uni001B
ENCODING 27
SWIDTH 583 0
DWIDTH 7 0
BBX 7 9 0 -2
BITMAP
00
10
30
7C
30
10
00
00
00
ENDCHAR
STARTCHAR uni001C
ENCODING 28
SWIDTH 583 0
DWIDTH 7 0
BBX 7 9 0 -2
BITMAP
00
00
40
40
7C
00
00
00
00
ENDCHAR
STARTCHAR uni001D
ENCODING 29
SWIDTH 583 0
DWIDTH 7 0
BBX 7 9 0 -2
BITMAP
00
00
28
7C
28
00
00
00
00
ENDCHAR
STARTCHAR uni001E
ENCODING 30
SWIDTH 583 0
DWIDTH 7 0
BBX 7 9 0 -2
BITMAP
00
00
00
10
38
7C
7C
00
00
ENDCHAR
STARTCHAR uni001F
ENCODING 31
SWIDTH 583 0
DWIDTH 7 0
BBX 7 9 0 -2
BITMAP
00
00
00
7C
7C
38
10
00
00
ENDCHAR
STARTCHAR space
ENCODING 32
SWIDTH 583 0
DWIDTH 7 0
BBX 7 9 0 -2
BITMAP
00
00
00
00
00
00
00
00
00
ENDCHAR
STARTCHAR exclam
ENCODING 33
SWIDTH 583 0
DWIDTH 7 0
BBX 7 9 0 -2
BITMAP
10
38
38
38
10
00
10
00
00
ENDCHAR
STARTCHAR quotedbl
ENCODING 34
SWIDTH 583 0
DWIDTH 7 0
BBX 7 9 0 -2
BITMAP
00
28
6C
6C
28
28
00
00
00
ENDCHAR
STARTCHAR numbersign
ENCODING 35
SWIDTH 583 0
DWIDTH 7 0
BBX 7 9 0 -2
BITMAP
28
28
7C
28
7C
28
28
00
00
ENDCHAR
STARTCHAR dollar
ENCODING 36
SWIDTH 583 0
DWIDTH 7 0
BBX 7 9 0 -2
BITMAP
10
38
54
40
38
04
54
38
10
ENDCHAR
STARTCHAR percent
ENCODING 37
SWIDTH 583 0
DWIDTH 7 0
BBX 7 9 0 -2
BITMAP
00
00
44
08
10
20
44
00
00
ENDCHAR
STARTCHAR ampersand
ENCODING 38
SWIDTH 583 0
DWIDTH 7 0
BBX 7 9 0 -2
BITMAP
30
48
30
4C
48
48
34
00
00
ENDCHAR
STARTCHAR quotesingle
ENCODING 39
SWIDTH 583 0
DWIDTH 7 0
BBX 7 9 0 -2
BITMAP
08
08
08
10
00
00
00
00
00
ENDCHAR
STARTCHAR parenleft
ENCODING 40
SWIDTH 583 0
DWIDTH 7 0
BBX 7 9 0 -2
BITMAP
08
10
20
20
20
10
08
00
00
ENDCHAR
STARTCHAR parenright
ENCODING 41
SWIDTH 583 0
DWIDTH 7 0
BBX 7 9 0 -2
BITMAP
20
10
08
08
08
10
20
00
00
ENDCHAR
STARTCHAR asterisk
ENCODING 42
SWIDTH 583 0
DWIDTH 7 0
BBX 7 9 0 -2
BITMAP
00
00
48
30
78
30
48
00
00
ENDCHAR
STARTCHAR plus
ENCODING 43
SWIDTH 583 0
DWIDTH 7 0
BBX 7 9 0 -2
BITMAP
00
00
10
10
7C
10
10
00
00
ENDCHAR
STARTCHAR comma
ENCODING 44
SWIDTH 583 0
DWIDTH 7 0
BBX 7 9 0 -2
BITMAP
00
00
00
00
00
0C
0C
18
00
ENDCHAR
STARTCHAR hyphen
ENCODING 45
SWIDTH 583 0
DWIDTH 7 0
BBX 7 9 0 -2
BITMAP
00
00
00
7C
00
00
00
00
00
ENDCHAR
STARTCHAR period
ENCODING 46
SWIDTH 583 0
DWIDTH 7 0
BBX 7 9 0 -2
BITMAP
00
00
00
00
00
04
04
00
00
ENDCHAR
STARTCHAR slash
ENCODING 47
SWIDTH 583 0
DWIDTH 7 0
BBX 7 9 0 -2
BITMAP
00
00
04
08
10
20
40
00
00
ENDCHAR
STARTCHAR zero
ENCODING 48
SWIDTH 583 0
DWIDTH 7 0
BBX 7 9 0 -2
BITMAP
38
44
44
54
44
44
38
00
00
ENDCHAR
STARTCHAR one
ENCODING 49
SWIDTH 583 0
DWIDTH 7 0
BBX 7 9 0 -2
BITMAP
08
18
28
08
08
08
1C
00
00
ENDCHAR
STARTCHAR two
ENCODING 50
SWIDTH 583 0
DWIDTH 7 0
BBX 7 9 0 -2
BITMAP
38
44
04
08
10
20
7C
00
00
ENDCHAR
STARTCHAR three
ENCODING 51
SWIDTH 583 0
DWIDTH 7 0
BBX 7 9 0 -2
BITMAP
38
44
04
18
04
44
38
00
00
ENDCHAR
STARTCHAR four
ENCODING 52
SWIDTH 583 0
DWIDTH 7 0
BBX 7 9 0 -2
BITMAP
08
18
28
78
08
08
1C
00
00
ENDCHAR
STARTCHAR five
ENCODING 53
SWIDTH 583 0
DWIDTH 7 0
BBX 7 9 0 -2
BITMAP
7C
40
40
78
04
44
38
00
00
ENDCHAR
STARTCHAR six
ENCODING 54
SWIDTH 583 0
DWIDTH 7 0
BBX 7 9 0 -2
BITMAP
38
40
40
78
44
44
38
00
00
ENDCHAR
STARTCHAR seven
ENCODING 55
SWIDTH 583 0
DWIDTH 7 0
BBX 7 9 0 -2
BITMAP
7C
44
04
08
10
10
10
00
00
ENDCHAR
STARTCHAR eight
ENCODING 56
SWIDTH 583 0
DWIDTH 7 0
BBX 7 9 0 -2
BITMAP
38
44
44
38
44
44
38
00
00
ENDCHAR
STARTCHAR nine
ENCODING 57
SWIDTH 583 0
DWIDTH 7 0
BBX 7 9 0 -2
BITMAP
38
44
44
3C
04
04
38
00
00
ENDCHAR
STARTCHAR colon
ENCODING 58
SWIDTH 583 0
DWIDTH 7 0
BBX 7 9 0 -2
BITMAP
00
10
00
00
00
10
00
00
00
ENDCHAR
STARTCHAR semicolon
ENCODING 59
SWIDTH 583 0
DWIDTH 7 0
BBX 7 9 0 -2
BITMAP
00
08
00
00
08
08
10
00
00
ENDCHAR
STARTCHAR less
ENCODING 60
SWIDTH 583 0
DWIDTH 7 0
BBX 7 9 0 -2
BITMAP
08
10
20
40
20
10
08
00
00
ENDCHAR
STARTCHAR equal
ENCODING 61
SWIDTH 583 0
DWIDTH 7 0
BBX 7 9 0 -2
BITMAP
00
00
7C
00
7C
00
00
00
00
ENDCHAR
STARTCHAR greater
ENCODING 62
SWIDTH 583 0
DWIDTH 7 0
BBX 7 9 0 -2
BITMAP
40
20
10
08
10
20
40
00
00
ENDCHAR
STARTCHAR question
ENCODING 63
SWIDTH 583 0
DWIDTH 7 0
BBX 7 9 0 -2
BITMAP
38
44
04
08
10
00
10
00
00
ENDCHAR
STARTCHAR at
ENCODING 64
SWIDTH 583 0
DWIDTH 7 0
BBX 7 9 0 -2
BITMAP
38
44
5C
5C
58
40
38
00
00
ENDCHAR
STARTCHAR A
ENCODING 65
SWIDTH 583 0
DWIDTH 7 0
BBX 7 9 0 -2
BITMAP
10
28
44
44
7C
44
44
00
00
ENDCHAR
STARTCHAR B
ENCODING 66
SWIDTH 583 0
DWIDTH 7 0
BBX 7 9 0 -2
BITMAP
78
44
44
78
44
44
78
00
00
ENDCHAR
STARTCHAR C
ENCODING 67
SWIDTH 583 0
DWIDTH 7 0
BBX 7 9 0 -2
BITMAP
38
44
40
40
40
44
38
00
00
ENDCHAR
STARTCHAR D
ENCODING 68
SWIDTH 583 0
DWIDTH 7 0
BBX 7 9 0 -2
BITMAP
78
44
44
44
44
44
78
00
00
ENDCHAR
STARTCHAR E
ENCODING 69
SWIDTH 583 0
DWIDTH 7 0
BBX 7 9 0 -2
BITMAP
7C
40
40
78
40
40
7C
00
00
ENDCHAR
STARTCHAR F
ENCODING 70
SWIDTH 583 0
DWIDTH 7 0
BBX 7 9 0 -2
BITMAP
7C
40
40
70
40
40
40
00
00
ENDCHAR
STARTCHAR G
ENCODING 71
SWIDTH 583 0
DWIDTH 7 0
BBX 7 9 0 -2
BITMAP
38
44
40
4C
44
44
38
00
00
ENDCHAR
STARTCHAR H
ENCODING 72
SWIDTH 583 0
DWIDTH 7 0
BBX 7 9 0 -2
BITMAP
44
44
44
7C
44
44
44
00
00
ENDCHAR
STARTCHAR I
ENCODING 73
SWIDTH 583 0
DWIDTH 7 0
BBX 7 9 0 -2
BITMAP
38
10
10
10
10
10
38
00
00
ENDCHAR
STARTCHAR J
ENCODING 74
SWIDTH 583 0
DWIDTH 7 0
BBX 7 9 0 -2
BITMAP
1C
08
08
08
08
48
30
00
00
ENDCHAR
STARTCHAR K
ENCODING 75
SWIDTH 583 0
DWIDTH 7 0
BBX 7 9 0 -2
BITMAP
44
48
50
60
50
48
44
00
00
ENDCHAR
STARTCHAR L
ENCODING 76
SWIDTH 583 0
DWIDTH 7 0
BBX 7 9 0 -2
BITMAP
40
40
40
40
40
44
7C
00
00
ENDCHAR
STARTCHAR M
ENCODING 77
SWIDTH 583 0
DWIDTH 7 0
BBX 7 9 0 -2
BITMAP
44
6C
54
54
44
44
44
00
00
ENDCHAR
STARTCHAR N
ENCODING 78
SWIDTH 583 0
DWIDTH 7 0
BBX 7 9 0 -2
BITMAP
44
64
54
4C
44
44
44
00
00
ENDCHAR
STARTCHAR O
ENCODING 79
SWIDTH 583 0
DWIDTH 7 0
BBX 7 9 0 -2
BITMAP
10
28
44
44
44
28
10
00
00
ENDCHAR
STARTCHAR P
ENCODING 80
SWIDTH 583 0
DWIDTH 7 0
BBX 7 9 0 -2
BITMAP
78
24
24
38
20
20
70
00
00
ENDCHAR
STARTCHAR Q
ENCODING 81
SWIDTH 583 0
DWIDTH 7 0
BBX 7 9 0 -2
BITMAP
38
44
44
44
44
54
38
0C
00
ENDCHAR
STARTCHAR R
ENCODING 82
SWIDTH 583 0
DWIDTH 7 0
BBX 7 9 0 -2
BITMAP
78
44
44
78
50
48
44
00
00
ENDCHAR
STARTCHAR S
ENCODING 83
SWIDTH 583 0
DWIDTH 7 0
BBX 7 9 0 -2
BITMAP
38
44
20
10
08
44
38
00
00
ENDCHAR
STARTCHAR T
ENCODING 84
SWIDTH 583 0
DWIDTH 7 0
BBX 7 9 0 -2
BITMAP
7C
54
10
10
10
10
38
00
00
ENDCHAR
STARTCHAR U
ENCODING 85
SWIDTH 583 0
DWIDTH 7 0
BBX 7 9 0 -2
BITMAP
44
44
44
44
44
44
38
00
00
ENDCHAR
STARTCHAR V
ENCODING 86
SWIDTH 583 0
DWIDTH 7 0
BBX 7 9 0 -2
BITMAP
44
44
44
44
44
28
10
00
00
ENDCHAR
STARTCHAR W
ENCODING 87
SWIDTH 583 0
DWIDTH 7 0
BBX 7 9 0 -2
BITMAP
44
44
44
44
54
54
28
00
00
ENDCHAR
STARTCHAR X
ENCODING 88
SWIDTH 583 0
DWIDTH 7 0
BBX 7 9 0 -2
BITMAP
44
44
28
10
28
44
44
00
00
ENDCHAR
STARTCHAR Y
ENCODING 89
SWIDTH 583 0
DWIDTH 7 0
BBX 7 9 0 -2
BITMAP
44
44
44
28
10
10
38
00
00
ENDCHAR
STARTCHAR Z
ENCODING 90
SWIDTH 583 0
DWIDTH 7 0
BBX 7 9 0 -2
BITMAP
7C
44
08
10
20
44
7C
00
00
ENDCHAR
STARTCHAR bracketleft
ENCODING 91
SWIDTH 583 0
DWIDTH 7 0
BBX 7 9 0 -2
BITMAP
38
20
20
20
20
20
38
00
00
ENDCHAR
STARTCHAR backslash
ENCODING 92
SWIDTH 583 0
DWIDTH 7 0
BBX 7 9 0 -2
BITMAP
00
40
20
10
08
04
00
00
00
ENDCHAR
STARTCHAR bracketright
ENCODING 93
SWIDTH 583 0
DWIDTH 7 0
BBX 7 9 0 -2
BITMAP
38
08
08
08
08
08
38
00
00
ENDCHAR
STARTCHAR asciicircum
ENCODING 94
SWIDTH 583 0
DWIDTH 7 0
BBX 7 9 0 -2
BITMAP
10
28
44
00
00
00
00
00
00
ENDCHAR
STARTCHAR underscore
ENCODING 95
SWIDTH 583 0
DWIDTH 7 0
BBX 7 9 0 -2
BITMAP
00
00
00
00
00
00
7C
00
00
ENDCHAR
STARTCHAR grave
ENCODING 96
SWIDTH 583 0
DWIDTH 7 0
BBX 7 9 0 -2
BITMAP
20
20
10
00
00
00
00
00
00
ENDCHAR
STARTCHAR a
ENCODING 97
SWIDTH 583 0
DWIDTH 7 0
BBX 7 9 0 -2
BITMAP
00
00
38
04
3C
44
3A
00
00
ENDCHAR
STARTCHAR b
ENCODING 98
SWIDTH 583 0
DWIDTH 7 0
BBX 7 9 0 -2
BITMAP
60
20
20
38
24
24
38
00
00
ENDCHAR
STARTCHAR c
ENCODING 99
SWIDTH 583 0
DWIDTH 7 0
BBX 7 9 0 -2
BITMAP
00
00
38
44
40
44
38
00
00
ENDCHAR
STARTCHAR d
ENCODING 100
SWIDTH 583 0
DWIDTH 7 0
BBX 7 9 0 -2
BITMAP
18
08
08
38
48
48
34
00
00
ENDCHAR
STARTCHAR e
ENCODING 101
SWIDTH 583 0
DWIDTH 7 0
BBX 7 9 0 -2
BITMAP
00
00
38
44
7C
40
38
00
00
ENDCHAR
STARTCHAR f
ENCODING 102
SWIDTH 583 0
DWIDTH 7 0
BBX 7 9 0 -2
BITMAP
18
24
20
70
20
20
70
00
00
ENDCHAR
STARTCHAR g
ENCODING 103
SWIDTH 583 0
DWIDTH 7 0
BBX 7 9 0 -2
BITMAP
00
00
34
48
48
38
08
48
30
ENDCHAR
STARTCHAR h
ENCODING 104
SWIDTH 583 0
DWIDTH 7 0
BBX 7 9 0 -2
BITMAP
60
20
20
38
24
24
64
00
00
ENDCHAR
STARTCHAR i
ENCODING 105
SWIDTH 583 0
DWIDTH 7 0
BBX 7 9 0 -2
BITMAP
00
10
00
30
10
10
38
00
00
ENDCHAR
STARTCHAR j
ENCODING 106
SWIDTH 583 0
DWIDTH 7 0
BBX 7 9 0 -2
BITMAP
00
04
00
04
04
04
24
18
00
ENDCHAR
STARTCHAR k
ENCODING 107
SWIDTH 583 0
DWIDTH 7 0
BBX 7 9 0 -2
BITMAP
20
20
24
28
30
28
24
00
00
ENDCHAR
STARTCHAR l
ENCODING 108
SWIDTH 583 0
DWIDTH 7 0
BBX 7 9 0 -2
BITMAP
30
10
10
10
10
10
38
00
00
ENDCHAR
STARTCHAR m
ENCODING 109
SWIDTH 583 0
DWIDTH 7 0
BBX 7 9 0 -2
BITMAP
00
00
6C
54
54
44
44
00
00
ENDCHAR
STARTCHAR n
ENCODING 110
SWIDTH 583 0
DWIDTH 7 0
BBX 7 9 0 -2
BITMAP
00
00
58
24
24
24
24
00
00
ENDCHAR
STARTCHAR o
ENCODING 111
SWIDTH 583 0
DWIDTH 7 0
BBX 7 9 0 -2
BITMAP
00
00
38
44
44
44
38
00
00
ENDCHAR
STARTCHAR p
ENCODING 112
SWIDTH 583 0
DWIDTH 7 0
BBX 7 9 0 -2
BITMAP
00
00
78
24
24
38
20
20
70
ENDCHAR
STARTCHAR q
ENCODING 113
SWIDTH 583 0
DWIDTH 7 0
BBX 7 9 0 -2
BITMAP
00
00
34
48
48
38
08
08
1C
ENDCHAR
STARTCHAR r
ENCODING 114
SWIDTH 583 0
DWIDTH 7 0
BBX 7 9 0 -2
BITMAP
00
00
58
24
20
20
70
00
00
ENDCHAR
STARTCHAR s
ENCODING 115
SWIDTH 583 0
DWIDTH 7 0
BBX 7 9 0 -2
BITMAP
00
00
38
40
38
04
38
00
00
ENDCHAR
STARTCHAR t
ENCODING 116
SWIDTH 583 0
DWIDTH 7 0
BBX 7 9 0 -2
BITMAP
20
20
70
20
20
24
18
00
00
ENDCHAR
STARTCHAR u
ENCODING 117
SWIDTH 583 0
DWIDTH 7 0
BBX 7 9 0 -2
BITMAP
00
00
44
44
44
44
3A
00
00
ENDCHAR
STARTCHAR v
ENCODING 118
SWIDTH 583 0
DWIDTH 7 0
BBX 7 9 0 -2
BITMAP
00
00
44
44
44
28
10
00
00
ENDCHAR
STARTCHAR w
ENCODING 119
SWIDTH 583 0
DWIDTH 7 0
BBX 7 9 0 -2
BITMAP
00
00
44
44
54
7C
28
00
00
ENDCHAR
STARTCHAR x
ENCODING 120
SWIDTH 583 0
DWIDTH 7 0
BBX 7 9 0 -2
BITMAP
00
00
44
28
10
28
44
00
00
ENDCHAR
STARTCHAR y
ENCODING 121
SWIDTH 583 0
DWIDTH 7 0
BBX 7 9 0 -2
BITMAP
00
00
44
44
3C
04
04
38
00
ENDCHAR
STARTCHAR z
ENCODING 122
SWIDTH 583 0
DWIDTH 7 0
BBX 7 9 0 -2
BITMAP
00
00
7C
08
10
20
7C
00
00
ENDCHAR
STARTCHAR braceleft
ENCODING 123
SWIDTH 583 0
DWIDTH 7 0
BBX 7 9 0 -2
BITMAP
0C
10
10
20
10
10
0C
00
00
ENDCHAR
STARTCHAR bar
ENCODING 124
SWIDTH 583 0
DWIDTH 7 0
BBX 7 9 0 -2
BITMAP
10
10
10
00
10
10
10
00
00
ENDCHAR
STARTCHAR braceright
ENCODING 125
SWIDTH 583 0
DWIDTH 7 0
BBX 7 9 0 -2
BITMAP
30
08
08
04
08
08
30
00
00
ENDCHAR
STARTCHAR asciitilde
ENCODING 126
SWIDTH 583 0
DWIDTH 7 0
BBX 7 9 0 -2
BITMAP
28
50
00
00
00
00
00
00
00
ENDCHAR
STARTCHAR uni007F
ENCODING 127
SWIDTH 583 0
DWIDTH 7 0
BBX 7 9 0 -2
BITMAP
00
00
10
28
44
44
7C
00
00
ENDCHAR
STARTCHAR uni00A0
ENCODING 160
SWIDTH 583 0
DWIDTH 7 0
BBX 7 9 0 -2
BITMAP
00
00
00
00
00
00
00
00
00
ENDCHAR
STARTCHAR exclamdown
ENCODING 161
SWIDTH 583 0
DWIDTH 7 0
BBX 7 9 0 -2
BITMAP
10
00
10
38
38
38
10
00
00
ENDCHAR
STARTCHAR cent
ENCODING 162
SWIDTH 583 0
DWIDTH 7 0
BBX 7 9 0 -2
BITMAP
00
10
38
54
40
54
38
00
00
ENDCHAR
STARTCHAR sterling
ENCODING 163
SWIDTH 583 0
DWIDTH 7 0
BBX 7 9 0 -2
BITMAP
08
14
10
38
10
70
7C
00
00
ENDCHAR
STARTCHAR yen
ENCODING 165
SWIDTH 583 0
DWIDTH 7 0
BBX 7 9 0 -2
BITMAP
44
28
10
38
10
38
10
00
00
ENDCHAR
STARTCHAR section
ENCODING 167
SWIDTH 583 0
DWIDTH 7 0
BBX 7 9 0 -2
BITMAP
18
20
10
28
10
08
30
00
00
ENDCHAR
STARTCHAR ordfeminine
ENCODING 170
SWIDTH 583 0
DWIDTH 7 0
BBX 7 9 0 -2
BITMAP
30
08
38
48
34
00
7C
00
00
ENDCHAR
STARTCHAR guillemotleft
ENCODING 171
SWIDTH 583 0
DWIDTH 7 0
BBX 7 9 0 -2
BITMAP
00
14
28
50
28
14
00
00
00
ENDCHAR
STARTCHAR logicalnot
ENCODING 172
SWIDTH 583 0
DWIDTH 7 0
BBX 7 9 0 -2
BITMAP
00
00
00
00
7C
04
04
00
00
ENDCHAR
STARTCHAR degree
ENCODING 176
SWIDTH 583 0
DWIDTH 7 0
BBX 7 9 0 -2
BITMAP
00
00
18
24
18
00
00
00
00
ENDCHAR
STARTCHAR plusminus
ENCODING 177
SWIDTH 583 0
DWIDTH 7 0
BBX 7 9 0 -2
BITMAP
10
10
7C
10
10
00
7C
00
00
ENDCHAR
STARTCHAR uni00B2
ENCODING 178
SWIDTH 583 0
DWIDTH 7 0
BBX 7 9 0 -2
BITMAP
00
30
48
10
20
78
00
00
00
ENDCHAR
STARTCHAR mu
ENCODING 181
SWIDTH 583 0
DWIDTH 7 0
BBX 7 9 0 -2
BITMAP
24
24
24
38
20
20
40
00
00
ENDCHAR
STARTCHAR paragraph
ENCODING 182
SWIDTH 583 0
DWIDTH 7 0
BBX 7 9 0 -2
BITMAP
3C
54
54
3C
14
14
14
00
00
ENDCHAR
STARTCHAR periodcentered
ENCODING 183
SWIDTH 583 0
DWIDTH 7 0
BBX 7 9 0 -2
BITMAP
00
00
00
00
18
18
00
00
00
ENDCHAR
STARTCHAR ordmasculine
ENCODING 186
SWIDTH 583 0
DWIDTH 7 0
BBX 7 9 0 -2
BITMAP
00
38
44
44
38
00
7C
00
00
ENDCHAR
STARTCHAR guillemotright
ENCODING 187
SWIDTH 583 0
DWIDTH 7 0
BBX 7 9 0 -2
BITMAP
00
50
28
14
28
50
00
00
00
ENDCHAR
STARTCHAR onequarter
ENCODING 188
SWIDTH 583 0
DWIDTH 7 0
BBX 7 9 0 -2
BITMAP
40
48
54
2C
54
3C
04
04
00
ENDCHAR
STARTCHAR onehalf
ENCODING 189
SWIDTH 583 0
DWIDTH 7 0
BBX 7 9 0 -2
BITMAP
40
48
50
20
58
24
10
3C
00
ENDCHAR
STARTCHAR questiondown
ENCODING 191
SWIDTH 583 0
DWIDTH 7 0
BBX 7 9 0 -2
BITMAP
10
00
10
20
40
44
38
00
00
ENDCHAR
STARTCHAR Adieresis
ENCODING 196
SWIDTH 583 0
DWIDTH 7 0
BBX 7 9 0 -2
BITMAP
44
38
44
44
7C
44
44
00
00
ENDCHAR
STARTCHAR Aring
ENCODING 197
SWIDTH 583 0
DWIDTH 7 0
BBX 7 9 0 -2
BITMAP
10
28
38
44
7C
44
44
00
00
ENDCHAR
STARTCHAR AE
ENCODING 198
SWIDTH 583 0
DWIDTH 7 0
BBX 7 9 0 -2
BITMAP
1C
30
50
7C
50
50
5C
00
00
ENDCHAR
STARTCHAR Ccedilla
ENCODING 199
SWIDTH 583 0
DWIDTH 7 0
BBX 7 9 0 -2
BITMAP
38
44
40
44
38
04
38
00
00
ENDCHAR
STARTCHAR Eacute
ENCODING 201
SWIDTH 583 0
DWIDTH 7 0
BBX 7 9 0 -2
BITMAP
10
20
7C
40
78
40
7C
00
00
ENDCHAR
STARTCHAR Ntilde
ENCODING 209
SWIDTH 583 0
DWIDTH 7 0
BBX 7 9 0 -2
BITMAP
14
28
44
64
54
4C
44
00
00
ENDCHAR
STARTCHAR Odieresis
ENCODING 214
SWIDTH 583 0
DWIDTH 7 0
BBX 7 9 0 -2
BITMAP
44
00
38
44
44
44
38
00
00
ENDCHAR
STARTCHAR Udieresis
ENCODING 220
SWIDTH 583 0
DWIDTH 7 0
BBX 7 9 0 -2
BITMAP
24
00
42
42
42
42
3C
00
00
ENDCHAR
STARTCHAR germandbls
ENCODING 223
SWIDTH 583 0
DWIDTH 7 0
BBX 7 9 0 -2
BITMAP
38
44
78
44
44
78
40
00
00
ENDCHAR
STARTCHAR agrave
ENCODING 224
SWIDTH 583 0
DWIDTH 7 0
BBX 7 9 0 -2
BITMAP
20
10
38
04
3C
44
3A
00
00
ENDCHAR
STARTCHAR aacute
ENCODING 225
SWIDTH 583 0
DWIDTH 7 0
BBX 7 9 0 -2
BITMAP
08
10
38
04
7C
44
3A
00
00
ENDCHAR
STARTCHAR acircumflex
ENCODING 226
SWIDTH 583 0
DWIDTH 7 0
BBX 7 9 0 -2
BITMAP
10
28
38
04
3C
44
3A
00
00
ENDCHAR
STARTCHAR adieresis
ENCODING 228
SWIDTH 583 0
DWIDTH 7 0
BBX 7 9 0 -2
BITMAP
44
00
38
04
3C
44
3A
00
00
ENDCHAR
STARTCHAR aring
ENCODING 229
SWIDTH 583 0
DWIDTH 7 0
BBX 7 9 0 -2
BITMAP
10
28
10
38
04
3C
44
3A
00
ENDCHAR
STARTCHAR ae
ENCODING 230
SWIDTH 583 0
DWIDTH 7 0
BBX 7 9 0 -2
BITMAP
00
00
68
14
3C
50
2C
00
00
ENDCHAR
STARTCHAR ccedilla
ENCODING 231
SWIDTH 583 0
DWIDTH 7 0
BBX 7 9 0 -2
BITMAP
00
38
44
40
44
38
04
38
00
ENDCHAR
STARTCHAR egrave
ENCODING 232
SWIDTH 583 0
DWIDTH 7 0
BBX 7 9 0 -2
BITMAP
20
10
38
44
7C
40
38
00
00
ENDCHAR
STARTCHAR eacute
ENCODING 233
SWIDTH 583 0
DWIDTH 7 0
BBX 7 9 0 -2
BITMAP
10
20
38
44
7C
40
38
00
00
ENDCHAR
STARTCHAR ecircumflex
ENCODING 234
SWIDTH 583 0
DWIDTH 7 0
BBX 7 9 0 -2
BITMAP
10
28
38
44
7C
40
38
00
00
ENDCHAR
STARTCHAR edieresis
ENCODING 235
SWIDTH 583 0
DWIDTH 7 0
BBX 7 9 0 -2
BITMAP
44
00
38
44
7C
40
38
00
00
ENDCHAR
STARTCHAR igrave
ENCODING 236
SWIDTH 583 0
DWIDTH 7 0
BBX 7 9 0 -2
BITMAP
20
10
30
10
10
10
38
00
00
ENDCHAR
STARTCHAR iacute
ENCODING 237
SWIDTH 583 0
DWIDTH 7 0
BBX 7 9 0 -2
BITMAP
10
20
30
10
10
10
38
00
00
ENDCHAR
STARTCHAR icircumflex
ENCODING 238
SWIDTH 583 0
DWIDTH 7 0
BBX 7 9 0 -2
BITMAP
10
28
30
10
10
10
38
00
00
ENDCHAR
STARTCHAR idieresis
ENCODING 239
SWIDTH 583 0
DWIDTH 7 0
BBX 7 9 0 -2
BITMAP
48
00
30
10
10
10
38
00
00
ENDCHAR
STARTCHAR ntilde
ENCODING 241
SWIDTH 583 0
DWIDTH 7 0
BBX 7 9 0 -2
BITMAP
28
50
58
24
24
24
24
00
00
ENDCHAR
STARTCHAR ograve
ENCODING 242
SWIDTH 583 0
DWIDTH 7 0
BBX 7 9 0 -2
BITMAP
40
20
10
38
44
44
38
00
00
ENDCHAR
STARTCHAR oacute
ENCODING 243
SWIDTH 583 0
DWIDTH 7 0
BBX 7 9 0 -2
BITMAP
08
10
38
44
44
44
38
00
00
ENDCHAR
STARTCHAR ocircumflex
ENCODING 244
SWIDTH 583 0
DWIDTH 7 0
BBX 7 9 0 -2
BITMAP
10
28
38
44
44
44
38
00
00
ENDCHAR
STARTCHAR odieresis
ENCODING 246
SWIDTH 583 0
DWIDTH 7 0
BBX 7 9 0 -2
BITMAP
44
00
38
44
44
44
38
00
00
ENDCHAR
STARTCHAR divide
ENCODING 247
SWIDTH 583 0
DWIDTH 7 0
BBX 7 9 0 -2
BITMAP
00
10
00
7C
00
10
00
00
00
ENDCHAR
STARTCHAR ugrave
ENCODING 249
SWIDTH 583 0
DWIDTH 7 0
BBX 7 9 0 -2
BITMAP
20
10
44
44
44
44
3A
00
00
ENDCHAR
STARTCHAR uacute
ENCODING 250
SWIDTH 583 0
DWIDTH 7 0
BBX 7 9 0 -2
BITMAP
08
10
44
44
44
44
3A
00
00
ENDCHAR
STARTCHAR ucircumflex
ENCODING 251
SWIDTH 583 0
DWIDTH 7 0
BBX 7 9 0 -2
BITMAP
10
28
44
44
44
44
3A
00
00
ENDCHAR
STARTCHAR udieresis
ENCODING 252
SWIDTH 583 0
DWIDTH 7 0
BBX 7 9 0 -2
BITMAP
44
00
44
44
44
44
3A
00
00
ENDCHAR
STARTCHAR ydieresis
ENCODING 255
SWIDTH 583 0
DWIDTH 7 0
BBX 7 9 0 -2
BITMAP
44
00
44
44
3C
04
04
38
00
ENDCHAR
STARTCHAR florin
ENCODING 402
SWIDTH 583 0
DWIDTH 7 0
BBX 7 9 0 -2
BITMAP
08
14
10
38
10
10
50
20
00
ENDCHAR
STARTCHAR Gamma
ENCODING 915
SWIDTH 583 0
DWIDTH 7 0
BBX 7 9 0 -2
BITMAP
7C
44
40
40
40
40
40
00
00
ENDCHAR
STARTCHAR Theta
ENCODING 920
SWIDTH 583 0
DWIDTH 7 0
BBX 7 9 0 -2
BITMAP
10
28
44
7C
44
28
10
00
00
ENDCHAR
STARTCHAR Sigma
ENCODING 931
SWIDTH 583 0
DWIDTH 7 0
BBX 7 9 0 -2
BITMAP
7C
44
20
10
20
44
7C
00
00
ENDCHAR
STARTCHAR Phi
ENCODING 934
SWIDTH 583 0
DWIDTH 7 0
BBX 7 9 0 -2
BITMAP
7C
10
28
44
28
10
7C
00
00
ENDCHAR
STARTCHAR uni03A9
ENCODING 937
SWIDTH 583 0
DWIDTH 7 0
BBX 7 9 0 -2
BITMAP
10
28
44
44
28
28
6C
00
00
ENDCHAR
STARTCHAR alpha
ENCODING 945
SWIDTH 583 0
DWIDTH 7 0
BBX 7 9 0 -2
BITMAP
00
34
48
48
48
34
00
00
00
ENDCHAR
STARTCHAR delta
ENCODING 948
SWIDTH 583 0
DWIDTH 7 0
BBX 7 9 0 -2
BITMAP
1C
20
10
38
44
44
38
00
00
ENDCHAR
STARTCHAR epsilon
ENCODING 949
SWIDTH 583 0
DWIDTH 7 0
BBX 7 9 0 -2
BITMAP
1C
20
40
78
40
20
1C
00
00
ENDCHAR
STARTCHAR pi
ENCODING 960
SWIDTH 583 0
DWIDTH 7 0
BBX 7 9 0 -2
BITMAP
3C
28
28
28
28
28
28
00
00
ENDCHAR
STARTCHAR sigma
ENCODING 963
SWIDTH 583 0
DWIDTH 7 0
BBX 7 9 0 -2
BITMAP
00
3C
48
48
48
48
30
00
00
ENDCHAR
STARTCHAR tau
ENCODING 964
SWIDTH 583 0
DWIDTH 7 0
BBX 7 9 0 -2
BITMAP
34
48
08
08
08
08
08
00
00
ENDCHAR
STARTCHAR phi
ENCODING 966
SWIDTH 583 0
DWIDTH 7 0
BBX 7 9 0 -2
BITMAP
04
38
4C
54
64
38
40
00
00
ENDCHAR
STARTCHAR bullet
ENCODING 8226
SWIDTH 583 0
DWIDTH 7 0
BBX 7 9 0 -2
BITMAP
00
00
00
10
10
00
00
00
00
ENDCHAR
STARTCHAR exclamdbl
ENCODING 8252
SWIDTH 583 0
DWIDTH 7 0
BBX 7 9 0 -2
BITMAP
24
24
24
24
24
00
24
00
00
ENDCHAR
STARTCHAR uni207F
ENCODING 8319
SWIDTH 583 0
DWIDTH 7 0
BBX 7 9 0 -2
BITMAP
58
24
24
24
24
24
00
00
00
ENDCHAR
STARTCHAR peseta
ENCODING 8359
SWIDTH 583 0
DWIDTH 7 0
BBX 7 9 0 -2
BITMAP
78
44
7C
48
5C
48
4C
00
00
ENDCHAR
STARTCHAR arrowleft
ENCODING 8592
SWIDTH 583 0
DWIDTH 7 0
BBX 7 9 0 -2
BITMAP
00
10
30
7C
30
10
00
00
00
ENDCHAR
STARTCHAR arrowup
ENCODING 8593
SWIDTH 583 0
DWIDTH 7 0
BBX 7 9 0 -2
BITMAP
10
38
7C
10
10
10
10
00
00
ENDCHAR
STARTCHAR arrowright
ENCODING 8594
SWIDTH 583 0
DWIDTH 7 0
BBX 7 9 0 -2
BITMAP
00
10
18
7C
18
10
00
00
00
ENDCHAR
STARTCHAR arrowdown
ENCODING 8595
SWIDTH 583 0
DWIDTH 7 0
BBX 7 9 0 -2
BITMAP
10
10
10
10
7C
38
10
00
00
ENDCHAR
STARTCHAR arrowboth
ENCODING 8596
SWIDTH 583 0
DWIDTH 7 0
BBX 7 9 0 -2
BITMAP
00
00
28
7C
28
00
00
00
00
ENDCHAR
STARTCHAR arrowupdn
ENCODING 8597
SWIDTH 583 0
DWIDTH 7 0
BBX 7 9 0 -2
BITMAP
10
38
7C
10
7C
38
10
00
00
ENDCHAR
STARTCHAR arrowupdnbse
ENCODING 8616
SWIDTH 583 0
DWIDTH 7 0
BBX 7 9 0 -2
BITMAP
10
38
7C
10
7C
38
7C
00
00
ENDCHAR
STARTCHAR uni2219
ENCODING 8729
SWIDTH 583 0
DWIDTH 7 0
BBX 7 9 0 -2
BITMAP
00
00
18
3C
18
00
00
00
00
ENDCHAR
STARTCHAR radical
ENCODING 8730
SWIDTH 583 0
DWIDTH 7 0
BBX 7 9 0 -2
BITMAP
0C
08
08
08
48
28
18
00
00
ENDCHAR
STARTCHAR infinity
ENCODING 8734
SWIDTH 583 0
DWIDTH 7 0
BBX 7 9 0 -2
BITMAP
00
00
3C
42
3C
42
3C
00
00
ENDCHAR
STARTCHAR orthogonal
ENCODING 8735
SWIDTH 583 0
DWIDTH 7 0
BBX 7 9 0 -2
BITMAP
00
00
40
40
7C
00
00
00
00
ENDCHAR
STARTCHAR intersection
ENCODING 8745
SWIDTH 583 0
DWIDTH 7 0
BBX 7 9 0 -2
BITMAP
3C
42
42
42
42
42
42
00
00
ENDCHAR
STARTCHAR approxequal
ENCODING 8776
SWIDTH 583 0
DWIDTH 7 0
BBX 7 9 0 -2
BITMAP
00
00
34
48
00
34
48
00
00
ENDCHAR
STARTCHAR equivalence
ENCODING 8801
SWIDTH 583 0
DWIDTH 7 0
BBX 7 9 0 -2
BITMAP
00
7C
00
7C
00
7C
00
00
00
ENDCHAR
STARTCHAR lessequal
ENCODING 8804
SWIDTH 583 0
DWIDTH 7 0
BBX 7 9 0 -2
BITMAP
08
10
20
10
08
00
7C
00
00
ENDCHAR
STARTCHAR greaterequal
ENCODING 8805
SWIDTH 583 0
DWIDTH 7 0
BBX 7 9 0 -2
BITMAP
20
10
08
10
20
00
7C
00
00
ENDCHAR
STARTCHAR house
ENCODING 8962
SWIDTH 583 0
DWIDTH 7 0
BBX 7 9 0 -2
BITMAP
00
00
10
28
44
44
7C
00
00
ENDCHAR
STARTCHAR revlogicalnot
ENCODING 8976
SWIDTH 583 0
DWIDTH 7 0
BBX 7 9 0 -2
BITMAP
00
00
00
00
7C
40
40
00
00
ENDCHAR
STARTCHAR integraltp
ENCODING 8992
SWIDTH 583 0
DWIDTH 7 0
BBX 7 9 0 -2
BITMAP
18
24
20
20
20
20
20
00
00
ENDCHAR
STARTCHAR integralbt
ENCODING 8993
SWIDTH 583 0
DWIDTH 7 0
BBX 7 9 0 -2
BITMAP
04
04
04
04
04
24
18
00
00
ENDCHAR
STARTCHAR SF100000
ENCODING 9472
SWIDTH 583 0
DWIDTH 7 0
BBX 7 9 0 -2
BITMAP
00
00
00
00
FE
00
00
00
00
ENDCHAR
STARTCHAR SF110000
ENCODING 9474
SWIDTH 583 0
DWIDTH 7 0
BBX 7 9 0 -2
BITMAP
10
10
10
10
10
10
10
10
10
ENDCHAR
STARTCHAR SF010000
ENCODING 9484
SWIDTH 583 0
DWIDTH 7 0
BBX 7 9 0 -2
BITMAP
00
00
00
00
1E
10
10
10
10
ENDCHAR
STARTCHAR SF030000
ENCODING 9488
SWIDTH 583 0
DWIDTH 7 0
BBX 7 9 0 -2
BITMAP
00
00
00
00
F0
10
10
10
10
ENDCHAR
STARTCHAR SF020000
ENCODING 9492
SWIDTH 583 0
DWIDTH 7 0
BBX 7 9 0 -2
BITMAP
10
10
10
10
1E
00
00
00
00
ENDCHAR
STARTCHAR SF040000
ENCODING 9496
SWIDTH 583 0
DWIDTH 7 0
BBX 7 9 0 -2
BITMAP
10
10
10
10
F0
00
00
00
00
ENDCHAR
STARTCHAR SF080000
ENCODING 9500
SWIDTH 583 0
DWIDTH 7 0
BBX 7 9 0 -2
BITMAP
10
10
10
10
1E
10
10
10
10
ENDCHAR
STARTCHAR SF090000
ENCODING 9508
SWIDTH 583 0
DWIDTH 7 0
BBX 7 9 0 -2
BITMAP
10
10
10
10
F0
10
10
10
10
ENDCHAR
STARTCHAR SF060000
ENCODING 9516
SWIDTH 583 0
DWIDTH 7 0
BBX 7 9 0 -2
BITMAP
00
00
00
00
FE
10
10
10
10
ENDCHAR
STARTCHAR SF070000
ENCODING 9524
SWIDTH 583 0
DWIDTH 7 0
BBX 7 9 0 -2
BITMAP
10
10
10
10
FE
00
00
00
00
ENDCHAR
STARTCHAR SF050000
ENCODING 9532
SWIDTH 583 0
DWIDTH 7 0
BBX 7 9 0 -2
BITMAP
10
10
10
10
FE
10
10
10
10
ENDCHAR
STARTCHAR SF430000
ENCODING 9552
SWIDTH 583 0
DWIDTH 7 0
BBX 7 9 0 -2
BITMAP
00
00
00
FE
00
FE
00
00
00
ENDCHAR
STARTCHAR SF240000
ENCODING 9553
SWIDTH 583 0
DWIDTH 7 0
BBX 7 9 0 -2
BITMAP
14
14
14
14
14
14
14
14
14
ENDCHAR
STARTCHAR SF510000
ENCODING 9554
SWIDTH 583 0
DWIDTH 7 0
BBX 7 9 0 -2
BITMAP
00
00
00
1E
10
1E
10
10
10
ENDCHAR
STARTCHAR SF520000
ENCODING 9555
SWIDTH 583 0
DWIDTH 7 0
BBX 7 9 0 -2
BITMAP
00
00
00
00
1E
14
14
14
14
ENDCHAR
STARTCHAR SF390000
ENCODING 9556
SWIDTH 583 0
DWIDTH 7 0
BBX 7 9 0 -2
BITMAP
00
00
00
1E
10
16
14
14
14
ENDCHAR
STARTCHAR SF220000
ENCODING 9557
SWIDTH 583 0
DWIDTH 7 0
BBX 7 9 0 -2
BITMAP
00
00
00
F0
10
F0
10
10
10
ENDCHAR
STARTCHAR SF210000
ENCODING 9558
SWIDTH 583 0
DWIDTH 7 0
BBX 7 9 0 -2
BITMAP
00
00
00
00
FC
14
14
14
14
ENDCHAR
STARTCHAR SF250000
ENCODING 9559
SWIDTH 583 0
DWIDTH 7 0
BBX 7 9 0 -2
BITMAP
00
00
00
FC
04
F4
14
14
14
ENDCHAR
STARTCHAR SF500000
ENCODING 9560
SWIDTH 583 0
DWIDTH 7 0
BBX 7 9 0 -2
BITMAP
10
10
10
1E
10
1E
00
00
00
ENDCHAR
STARTCHAR SF490000
ENCODING 9561
SWIDTH 583 0
DWIDTH 7 0
BBX 7 9 0 -2
BITMAP
14
14
14
14
1E
00
00
00
00
ENDCHAR
STARTCHAR SF380000
ENCODING 9562
SWIDTH 583 0
DWIDTH 7 0
BBX 7 9 0 -2
BITMAP
14
14
14
16
10
1E
00
00
00
ENDCHAR
STARTCHAR SF280000
ENCODING 9563
SWIDTH 583 0
DWIDTH 7 0
BBX 7 9 0 -2
BITMAP
10
10
10
F0
10
F0
00
00
00
ENDCHAR
STARTCHAR SF270000
ENCODING 9564
SWIDTH 583 0
DWIDTH 7 0
BBX 7 9 0 -2
BITMAP
14
14
14
14
FC
00
00
00
00
ENDCHAR
STARTCHAR SF260000
ENCODING 9565
SWIDTH 583 0
DWIDTH 7 0
BBX 7 9 0 -2
BITMAP
14
14
14
F4
04
FC
00
00
00
ENDCHAR
STARTCHAR SF360000
ENCODING 9566
SWIDTH 583 0
DWIDTH 7 0
BBX 7 9 0 -2
BITMAP
10
10
10
1E
10
1E
10
10
10
ENDCHAR
STARTCHAR SF370000
ENCODING 9567
SWIDTH 583 0
DWIDTH 7 0
BBX 7 9 0 -2
BITMAP
14
14
14
14
16
14
14
14
14
ENDCHAR
STARTCHAR SF420000
ENCODING 9568
SWIDTH 583 0
DWIDTH 7 0
BBX 7 9 0 -2
BITMAP
14
14
14
16
10
16
14
14
14
ENDCHAR
STARTCHAR SF190000
ENCODING 9569
SWIDTH 583 0
DWIDTH 7 0
BBX 7 9 0 -2
BITMAP
10
10
10
F0
10
F0
10
10
10
ENDCHAR
STARTCHAR SF200000
ENCODING 9570
SWIDTH 583 0
DWIDTH 7 0
BBX 7 9 0 -2
BITMAP
14
14
14
14
F4
14
14
14
14
ENDCHAR
STARTCHAR SF230000
ENCODING 9571
SWIDTH 583 0
DWIDTH 7 0
BBX 7 9 0 -2
BITMAP
14
14
14
F4
04
F4
14
14
14
ENDCHAR
STARTCHAR SF470000
ENCODING 9572
SWIDTH 583 0
DWIDTH 7 0
BBX 7 9 0 -2
BITMAP
00
00
00
FE
00
FE
10
10
10
ENDCHAR
STARTCHAR SF480000
ENCODING 9573
SWIDTH 583 0
DWIDTH 7 0
BBX 7 9 0 -2
BITMAP
00
00
00
00
FE
14
14
14
14
ENDCHAR
STARTCHAR SF410000
ENCODING 9574
SWIDTH 583 0
DWIDTH 7 0
BBX 7 9 0 -2
BITMAP
00
00
00
FE
00
F6
14
14
14
ENDCHAR
STARTCHAR SF450000
ENCODING 9575
SWIDTH 583 0
DWIDTH 7 0
BBX 7 9 0 -2
BITMAP
10
10
10
FE
00
FE
00
00
00
ENDCHAR
STARTCHAR SF460000
ENCODING 9576
SWIDTH 583 0
DWIDTH 7 0
BBX 7 9 0 -2
BITMAP
14
14
14
14
FE
00
00
00
00
ENDCHAR
STARTCHAR SF400000
ENCODING 9577
SWIDTH 583 0
DWIDTH 7 0
BBX 7 9 0 -2
BITMAP
14
14
14
F6
00
FE
00
00
00
ENDCHAR
STARTCHAR SF540000
ENCODING 9578
SWIDTH 583 0
DWIDTH 7 0
BBX 7 9 0 -2
BITMAP
10
10
10
FE
10
FE
10
10
10
ENDCHAR
STARTCHAR SF530000
ENCODING 9579
SWIDTH 583 0
DWIDTH 7 0
BBX 7 9 0 -2
BITMAP
14
14
14
14
FE
14
14
14
14
ENDCHAR
STARTCHAR SF440000
ENCODING 9580
SWIDTH 583 0
DWIDTH 7 0
BBX 7 9 0 -2
BITMAP
14
14
14
F6
00
F6
14
14
14
ENDCHAR
STARTCHAR upblock
ENCODING 9600
SWIDTH 583 0
DWIDTH 7 0
BBX 7 9 0 -2
BITMAP
FE
FE
FE
FE
FE
00
00
00
00
ENDCHAR
STARTCHAR dnblock
ENCODING 9604
SWIDTH 583 0
DWIDTH 7 0
BBX 7 9 0 -2
BITMAP
00
00
00
00
FE
FE
FE
FE
FE
ENDCHAR
STARTCHAR block
ENCODING 9608
SWIDTH 583 0
DWIDTH 7 0
BBX 7 9 0 -2
BITMAP
FE
FE
FE
FE
FE
FE
FE
FE
FE
ENDCHAR
STARTCHAR lfblock
ENCODING 9612
SWIDTH 583 0
DWIDTH 7 0
BBX 7 9 0 -2
BITMAP
F0
F0
F0
F0
F0
F0
F0
F0
F0
ENDCHAR
STARTCHAR rtblock
ENCODING 9616
SWIDTH 583 0
DWIDTH 7 0
BBX 7 9 0 -2
BITMAP
0E
0E
0E
0E
0E
0E
0E
0E
0E
ENDCHAR
STARTCHAR ltshade
ENCODING 9617
SWIDTH 583 0
DWIDTH 7 0
BBX 7 9 0 -2
BITMAP
10
44
10
44
10
44
10
44
10
ENDCHAR
STARTCHAR shade
ENCODING 9618
SWIDTH 583 0
DWIDTH 7 0
BBX 7 9 0 -2
BITMAP
54
AA
54
AA
54
AA
54
AA
54
ENDCHAR
STARTCHAR dkshade
ENCODING 9619
SWIDTH 583 0
DWIDTH 7 0
BBX 7 9 0 -2
BITMAP
DC
76
DC
76
DC
76
DC
76
DC
ENDCHAR
STARTCHAR filledbox
ENCODING 9632
SWIDTH 583 0
DWIDTH 7 0
BBX 7 9 0 -2
BITMAP
00
00
7E
7E
7E
7E
7E
00
00
ENDCHAR
STARTCHAR filledrect
ENCODING 9644
SWIDTH 583 0
DWIDTH 7 0
BBX 7 9 0 -2
BITMAP
00
00
00
00
7C
7C
00
00
00
ENDCHAR
STARTCHAR triagup
ENCODING 9650
SWIDTH 583 0
DWIDTH 7 0
BBX 7 9 0 -2
BITMAP
00
00
00
10
38
7C
7C
00
00
ENDCHAR
STARTCHAR triagrt
ENCODING 9658
SWIDTH 583 0
DWIDTH 7 0
BBX 7 9 0 -2
BITMAP
40
60
70
7C
70
60
40
00
00
ENDCHAR
STARTCHAR triagdn
ENCODING 9660
SWIDTH 583 0
DWIDTH 7 0
BBX 7 9 0 -2
BITMAP
00
00
00
7C
7C
38
10
00
00
ENDCHAR
STARTCHAR triaglf
ENCODING 9668
SWIDTH 583 0
DWIDTH 7 0
BBX 7 9 0 -2
BITMAP
04
0C
1C
7C
1C
0C
04
00
00
ENDCHAR
STARTCHAR circle
ENCODING 9675
SWIDTH 583 0
DWIDTH 7 0
BBX 7 9 0 -2
BITMAP
00
00
38
44
44
44
38
00
00
ENDCHAR
STARTCHAR invbullet
ENCODING 9688
SWIDTH 583 0
DWIDTH 7 0
BBX 7 9 0 -2
BITMAP
7C
7C
7C
6C
6C
7C
7C
7C
7C
ENDCHAR
STARTCHAR invcircle
ENCODING 9689
SWIDTH 583 0
DWIDTH 7 0
BBX 7 9 0 -2
BITMAP
7C
7C
4C
04
04
4C
7C
00
00
ENDCHAR
STARTCHAR smileface
ENCODING 9786
SWIDTH 583 0
DWIDTH 7 0
BBX 7 9 0 -2
BITMAP
38
44
6C
44
7C
54
38
00
00
ENDCHAR
STARTCHAR invsmileface
ENCODING 9787
SWIDTH 583 0
DWIDTH 7 0
BBX 7 9 0 -2
BITMAP
38
7C
54
7C
44
6C
38
00
00
ENDCHAR
STARTCHAR sun
ENCODING 9788
SWIDTH 583 0
DWIDTH 7 0
BBX 7 9 0 -2
BITMAP
10
54
28
44
28
54
10
00
00
ENDCHAR
STARTCHAR female
ENCODING 9792
SWIDTH 583 0
DWIDTH 7 0
BBX 7 9 0 -2
BITMAP
38
44
44
28
10
7C
10
00
00
ENDCHAR
STARTCHAR male
ENCODING 9794
SWIDTH 583 0
DWIDTH 7 0
BBX 7 9 0 -2
BITMAP
1C
14
20
78
44
44
38
00
00
ENDCHAR
STARTCHAR spade
ENCODING 9824
SWIDTH 583 0
DWIDTH 7 0
BBX 7 9 0 -2
BITMAP
10
38
7C
7C
10
10
38
00
00
ENDCHAR
STARTCHAR club
ENCODING 9827
SWIDTH 583 0
DWIDTH 7 0
BBX 7 9 0 -2
BITMAP
10
28
44
44
38
10
38
00
00
ENDCHAR
STARTCHAR heart
ENCODING 9829
SWIDTH 583 0
DWIDTH 7 0
BBX 7 9 0 -2
BITMAP
00
28
7C
7C
7C
38
10
00
00
ENDCHAR
STARTCHAR diamond
ENCODING 9830
SWIDTH 583 0
DWIDTH 7 0
BBX 7 9 0 -2
BITMAP
00
10
38
7C
38
10
00
00
00
ENDCHAR
STARTCHAR musicalnote
ENCODING 9834
SWIDTH 583 0
DWIDTH 7 0
BBX 7 9 0 -2
BITMAP
3C
24
3C
20
20
20
40
00
00
ENDCHAR
STARTCHAR musicalnotedbl
ENCODING 9835
SWIDTH 583 0
DWIDTH 7 0
BBX 7 9 0 -2
BITMAP
3C
24
3C
24
24
28
40
00
00
ENDCHAR
STARTCHAR uni3044
ENCODING 12356
SWIDTH 583 0
DWIDTH 7 0
BBX 7 9 0 -2
BITMAP
00
00
00
00
00
00
00
00
00
ENDCHAR
STARTCHAR uni3046
ENCODING 12358
SWIDTH 583 0
DWIDTH 7 0
BBX 7 9 0 -2
BITMAP
00
00
00
00
00
00
00
00
00
ENDCHAR
STARTCHAR uni304B
ENCODING 12363
SWIDTH 583 0
DWIDTH 7 0
BBX 7 9 0 -2
BITMAP
00
00
00
00
00
00
00
00
00
ENDCHAR
STARTCHAR uni3057
ENCODING 12375
SWIDTH 583 0
DWIDTH 7 0
BBX 7 9 0 -2
BITMAP
00
00
00
00
00
00
00
00
00
ENDCHAR
STARTCHAR uni306E
ENCODING 12398
SWIDTH 583 0
DWIDTH 7 0
BBX 7 9 0 -2
BITMAP
00
00
00
00
00
00
00
00
00
ENDCHAR
STARTCHAR uni3093
ENCODING 12435
SWIDTH 583 0
DWIDTH 7 0
BBX 7 9 0 -2
BITMAP
00
00
00
00
00
00
00
00
00
ENDCHAR
STARTCHAR .notdef
ENCODING -1
SWIDTH 583 0
DWIDTH 7 0
BBX 6 9 1 0
BITMAP
FC
84
84
84
84
84
84
84
FC
ENDCHAR
ENDFONT
