STARTFONT 2.1
FONT Pixel Den of Snakes Four Player Regular 8x8 Mono-16px
SIZE 16 75 75
FONTBOUNDINGBOX 7 7 0 0
STARTPROPERTIES 5
PIXEL_SIZE 16
FONT_ASCENT 16
FONT_DESCENT 0
CHARSET_REGISTRY "ISO10646"
CHARSET_ENCODING "1"
ENDPROPERTIES
CHARS 76
STARTCHAR uni000D
ENCODING 13
SWIDTH 500 0
DWIDTH 8 0
BBX 1 1 0 0
BITMAP
00
ENDCHAR
STARTCHAR space
ENCODING 32
SWIDTH 500 0
DWIDTH 8 0
BBX 1 1 0 0
BITMAP
00
ENDCHAR
STARTCHAR exclam
ENCODING 33
SWIDTH 500 0
DWIDTH 8 0
BBX 2 6 2 1
BITMAP
C0
C0
C0
C0
00
C0
ENDCHAR
STARTCHAR parenleft
ENCODING 40
SWIDTH 500 0
DWIDTH 8 0
BBX 3 6 2 1
BITMAP
60
C0
C0
C0
C0
60
ENDCHAR
STARTCHAR parenright
ENCODING 41
SWIDTH 500 0
DWIDTH 8 0
BBX 3 6 3 1
BITMAP
C0
60
60
60
60
C0
ENDCHAR
STARTCHAR plus
ENCODING 43
SWIDTH 500 0
DWIDTH 8 0
BBX 6 5 1 1
BITMAP
30
30
FC
30
30
ENDCHAR
STARTCHAR hyphen
ENCODING 45
SWIDTH 500 0
DWIDTH 8 0
BBX 4 1 2 3
BITMAP
F0
ENDCHAR
STARTCHAR period
ENCODING 46
SWIDTH 500 0
DWIDTH 8 0
BBX 2 1 2 1
BITMAP
C0
ENDCHAR
STARTCHAR slash
ENCODING 47
SWIDTH 500 0
DWIDTH 8 0
BBX 6 6 1 1
BITMAP
04
0C
18
30
60
C0
ENDCHAR
STARTCHAR zero
ENCODING 48
SWIDTH 500 0
DWIDTH 8 0
BBX 6 6 1 1
BITMAP
78
CC
EC
DC
4C
38
ENDCHAR
STARTCHAR one
ENCODING 49
SWIDTH 500 0
DWIDTH 8 0
BBX 3 6 2 1
BITMAP
60
E0
60
60
60
20
ENDCHAR
STARTCHAR two
ENCODING 50
SWIDTH 500 0
DWIDTH 8 0
BBX 6 6 1 1
BITMAP
78
8C
1C
78
E0
F8
ENDCHAR
STARTCHAR three
ENCODING 51
SWIDTH 500 0
DWIDTH 8 0
BBX 6 6 1 1
BITMAP
FC
0C
78
0C
0C
78
ENDCHAR
STARTCHAR four
ENCODING 52
SWIDTH 500 0
DWIDTH 8 0
BBX 6 6 1 1
BITMAP
D0
D8
D8
D8
7C
18
ENDCHAR
STARTCHAR five
ENCODING 53
SWIDTH 500 0
DWIDTH 8 0
BBX 6 6 1 1
BITMAP
F8
C0
F8
0C
4C
38
ENDCHAR
STARTCHAR six
ENCODING 54
SWIDTH 500 0
DWIDTH 8 0
BBX 6 6 1 1
BITMAP
F8
C0
F8
CC
CC
7C
ENDCHAR
STARTCHAR seven
ENCODING 55
SWIDTH 500 0
DWIDTH 8 0
BBX 6 6 1 1
BITMAP
FC
0C
18
30
60
60
ENDCHAR
STARTCHAR eight
ENCODING 56
SWIDTH 500 0
DWIDTH 8 0
BBX 6 6 1 1
BITMAP
F8
CC
FC
CC
CC
7C
ENDCHAR
STARTCHAR nine
ENCODING 57
SWIDTH 500 0
DWIDTH 8 0
BBX 6 6 1 1
BITMAP
F8
CC
CC
7C
0C
0C
ENDCHAR
STARTCHAR colon
ENCODING 58
SWIDTH 500 0
DWIDTH 8 0
BBX 2 5 2 2
BITMAP
C0
00
00
00
C0
ENDCHAR
STARTCHAR question
ENCODING 63
SWIDTH 500 0
DWIDTH 8 0
BBX 5 6 2 1
BITMAP
F0
D8
18
70
00
60
ENDCHAR
STARTCHAR A
ENCODING 65
SWIDTH 500 0
DWIDTH 8 0
BBX 6 6 1 1
BITMAP
F8
CC
CC
CC
DC
4C
ENDCHAR
STARTCHAR B
ENCODING 66
SWIDTH 500 0
DWIDTH 8 0
BBX 6 6 1 1
BITMAP
F0
C8
F8
CC
CC
7C
ENDCHAR
STARTCHAR C
ENCODING 67
SWIDTH 500 0
DWIDTH 8 0
BBX 6 6 1 1
BITMAP
7C
C0
C0
C0
60
38
ENDCHAR
STARTCHAR D
ENCODING 68
SWIDTH 500 0
DWIDTH 8 0
BBX 6 6 1 1
BITMAP
F8
0C
CC
CC
D8
F0
ENDCHAR
STARTCHAR E
ENCODING 69
SWIDTH 500 0
DWIDTH 8 0
BBX 6 6 1 1
BITMAP
7C
C0
F0
C0
C0
78
ENDCHAR
STARTCHAR F
ENCODING 70
SWIDTH 500 0
DWIDTH 8 0
BBX 6 6 1 1
BITMAP
FC
C0
F0
C0
C0
40
ENDCHAR
STARTCHAR G
ENCODING 71
SWIDTH 500 0
DWIDTH 8 0
BBX 6 6 1 1
BITMAP
7C
C0
C0
DC
CC
64
ENDCHAR
STARTCHAR H
ENCODING 72
SWIDTH 500 0
DWIDTH 8 0
BBX 6 6 1 1
BITMAP
C8
CC
CC
FC
CC
44
ENDCHAR
STARTCHAR I
ENCODING 73
SWIDTH 500 0
DWIDTH 8 0
BBX 4 6 2 1
BITMAP
C0
60
60
60
60
30
ENDCHAR
STARTCHAR J
ENCODING 74
SWIDTH 500 0
DWIDTH 8 0
BBX 6 6 1 1
BITMAP
FC
00
30
30
30
E0
ENDCHAR
STARTCHAR K
ENCODING 75
SWIDTH 500 0
DWIDTH 8 0
BBX 6 6 1 1
BITMAP
CC
D8
E0
F0
D8
4C
ENDCHAR
STARTCHAR L
ENCODING 76
SWIDTH 500 0
DWIDTH 8 0
BBX 5 6 1 1
BITMAP
80
C0
C0
C0
C0
78
ENDCHAR
STARTCHAR M
ENCODING 77
SWIDTH 500 0
DWIDTH 8 0
BBX 6 6 1 1
BITMAP
C4
EC
FC
D4
C4
44
ENDCHAR
STARTCHAR N
ENCODING 78
SWIDTH 500 0
DWIDTH 8 0
BBX 6 6 1 1
BITMAP
C4
E4
F4
DC
CC
44
ENDCHAR
STARTCHAR O
ENCODING 79
SWIDTH 500 0
DWIDTH 8 0
BBX 6 6 1 1
BITMAP
78
CC
CC
CC
4C
38
ENDCHAR
STARTCHAR P
ENCODING 80
SWIDTH 500 0
DWIDTH 8 0
BBX 6 6 1 1
BITMAP
F8
CC
CC
D8
C0
40
ENDCHAR
STARTCHAR Q
ENCODING 81
SWIDTH 500 0
DWIDTH 8 0
BBX 6 6 1 1
BITMAP
F8
CC
CC
D4
D8
6C
ENDCHAR
STARTCHAR R
ENCODING 82
SWIDTH 500 0
DWIDTH 8 0
BBX 6 6 1 1
BITMAP
F8
CC
CC
F8
D8
4C
ENDCHAR
STARTCHAR S
ENCODING 83
SWIDTH 500 0
DWIDTH 8 0
BBX 6 6 1 1
BITMAP
3C
60
70
38
1C
F8
ENDCHAR
STARTCHAR T
ENCODING 84
SWIDTH 500 0
DWIDTH 8 0
BBX 6 6 1 1
BITMAP
FC
30
30
30
30
10
ENDCHAR
STARTCHAR U
ENCODING 85
SWIDTH 500 0
DWIDTH 8 0
BBX 6 6 1 1
BITMAP
C8
CC
CC
CC
4C
3C
ENDCHAR
STARTCHAR V
ENCODING 86
SWIDTH 500 0
DWIDTH 8 0
BBX 6 6 1 1
BITMAP
CC
D8
F0
E0
C0
80
ENDCHAR
STARTCHAR W
ENCODING 87
SWIDTH 500 0
DWIDTH 8 0
BBX 6 6 1 1
BITMAP
84
C4
C4
D4
FC
6C
ENDCHAR
STARTCHAR X
ENCODING 88
SWIDTH 500 0
DWIDTH 8 0
BBX 6 6 1 1
BITMAP
C4
E8
70
38
5C
8C
ENDCHAR
STARTCHAR Y
ENCODING 89
SWIDTH 500 0
DWIDTH 8 0
BBX 6 6 1 1
BITMAP
CC
5C
38
70
E0
C0
ENDCHAR
STARTCHAR Z
ENCODING 90
SWIDTH 500 0
DWIDTH 8 0
BBX 6 6 1 1
BITMAP
7C
1C
38
70
E0
FC
ENDCHAR
STARTCHAR backslash
ENCODING 92
SWIDTH 500 0
DWIDTH 8 0
BBX 6 6 1 1
BITMAP
80
C0
60
30
18
0C
ENDCHAR
STARTCHAR underscore
ENCODING 95
SWIDTH 500 0
DWIDTH 8 0
BBX 6 1 1 1
BITMAP
FC
ENDCHAR
STARTCHAR a
ENCODING 97
SWIDTH 500 0
DWIDTH 8 0
BBX 6 6 1 1
BITMAP
F8
CC
CC
CC
DC
4C
ENDCHAR
STARTCHAR b
ENCODING 98
SWIDTH 500 0
DWIDTH 8 0
BBX 6 6 1 1
BITMAP
F0
C8
F8
CC
CC
7C
ENDCHAR
STARTCHAR c
ENCODING 99
SWIDTH 500 0
DWIDTH 8 0
BBX 6 6 1 1
BITMAP
7C
C0
C0
C0
60
38
ENDCHAR
STARTCHAR d
ENCODING 100
SWIDTH 500 0
DWIDTH 8 0
BBX 6 6 1 1
BITMAP
F8
0C
CC
CC
D8
F0
ENDCHAR
STARTCHAR e
ENCODING 101
SWIDTH 500 0
DWIDTH 8 0
BBX 6 6 1 1
BITMAP
7C
C0
F0
C0
C0
78
ENDCHAR
STARTCHAR f
ENCODING 102
SWIDTH 500 0
DWIDTH 8 0
BBX 6 6 1 1
BITMAP
FC
C0
F0
C0
C0
40
ENDCHAR
STARTCHAR g
ENCODING 103
SWIDTH 500 0
DWIDTH 8 0
BBX 6 6 1 1
BITMAP
7C
C0
C0
DC
CC
64
ENDCHAR
STARTCHAR h
ENCODING 104
SWIDTH 500 0
DWIDTH 8 0
BBX 6 6 1 1
BITMAP
C8
CC
CC
FC
CC
44
ENDCHAR
STARTCHAR i
ENCODING 105
SWIDTH 500 0
DWIDTH 8 0
BBX 4 6 2 1
BITMAP
C0
60
60
60
60
30
ENDCHAR
STARTCHAR j
ENCODING 106
SWIDTH 500 0
DWIDTH 8 0
BBX 6 6 1 1
BITMAP
FC
00
30
30
30
E0
ENDCHAR
STARTCHAR k
ENCODING 107
SWIDTH 500 0
DWIDTH 8 0
BBX 6 6 1 1
BITMAP
CC
D8
E0
F0
D8
4C
ENDCHAR
STARTCHAR l
ENCODING 108
SWIDTH 500 0
DWIDTH 8 0
BBX 5 6 1 1
BITMAP
80
C0
C0
C0
C0
78
ENDCHAR
STARTCHAR m
ENCODING 109
SWIDTH 500 0
DWIDTH 8 0
BBX 6 6 1 1
BITMAP
C4
EC
FC
D4
C4
44
ENDCHAR
STARTCHAR n
ENCODING 110
SWIDTH 500 0
DWIDTH 8 0
BBX 6 6 1 1
BITMAP
C4
E4
F4
DC
CC
44
ENDCHAR
STARTCHAR o
ENCODING 111
SWIDTH 500 0
DWIDTH 8 0
BBX 6 6 1 1
BITMAP
78
CC
CC
CC
4C
38
ENDCHAR
STARTCHAR p
ENCODING 112
SWIDTH 500 0
DWIDTH 8 0
BBX 6 6 1 1
BITMAP
F8
CC
CC
D8
C0
40
ENDCHAR
STARTCHAR q
ENCODING 113
SWIDTH 500 0
DWIDTH 8 0
BBX 6 6 1 1
BITMAP
F8
CC
CC
D4
D8
6C
ENDCHAR
STARTCHAR r
ENCODING 114
SWIDTH 500 0
DWIDTH 8 0
BBX 6 6 1 1
BITMAP
F8
CC
CC
F8
D8
4C
ENDCHAR
STARTCHAR s
ENCODING 115
SWIDTH 500 0
DWIDTH 8 0
BBX 6 6 1 1
BITMAP
3C
60
70
38
1C
F8
ENDCHAR
STARTCHAR t
ENCODING 116
SWIDTH 500 0
DWIDTH 8 0
BBX 6 6 1 1
BITMAP
FC
30
30
30
30
10
ENDCHAR
STARTCHAR u
ENCODING 117
SWIDTH 500 0
DWIDTH 8 0
BBX 6 6 1 1
BITMAP
C8
CC
CC
CC
4C
3C
ENDCHAR
STARTCHAR v
ENCODING 118
SWIDTH 500 0
DWIDTH 8 0
BBX 6 6 1 1
BITMAP
CC
D8
F0
E0
C0
80
ENDCHAR
STARTCHAR w
ENCODING 119
SWIDTH 500 0
DWIDTH 8 0
BBX 6 6 1 1
BITMAP
84
C4
C4
D4
FC
6C
ENDCHAR
STARTCHAR x
ENCODING 120
SWIDTH 500 0
DWIDTH 8 0
BBX 6 6 1 1
BITMAP
C4
E8
70
38
5C
8C
ENDCHAR
STARTCHAR y
ENCODING 121
SWIDTH 500 0
DWIDTH 8 0
BBX 6 6 1 1
BITMAP
CC
5C
38
70
E0
C0
ENDCHAR
STARTCHAR z
ENCODING 122
SWIDTH 500 0
DWIDTH 8 0
BBX 6 6 1 1
BITMAP
7C
1C
38
70
E0
FC
ENDCHAR
STARTCHAR .notdef
ENCODING -1
SWIDTH 500 0
DWIDTH 8 0
BBX 1 1 0 0
BITMAP
00
ENDCHAR
ENDFONT
