STARTFONT 2.1
FONT Pixel Den of Snakes Four Player Heavy 8x8 Mono-16px
SIZE 16 75 75
FONTBOUNDINGBOX 8 7 0 0
STARTPROPERTIES 5
PIXEL_SIZE 16
FONT_ASCENT 16
FONT_DESCENT 0
CHARSET_REGISTRY "ISO10646"
CHARSET_ENCODING "1"
ENDPROPERTIES
CHARS 76
STARTCHAR uni000D
ENCODING 13
SWIDTH 500 0
DWIDTH 8 0
BBX 1 1 0 0
BITMAP
00
ENDCHAR
STARTCHAR space
ENCODING 32
SWIDTH 500 0
DWIDTH 8 0
BBX 1 1 0 0
BITMAP
00
ENDCHAR
STARTCHAR exclam
ENCODING 33
SWIDTH 500 0
DWIDTH 8 0
BBX 3 6 2 1
BITMAP
E0
E0
E0
E0
00
E0
ENDCHAR
STARTCHAR parenleft
ENCODING 40
SWIDTH 500 0
DWIDTH 8 0
BBX 4 6 2 1
BITMAP
70
E0
E0
E0
E0
70
ENDCHAR
STARTCHAR parenright
ENCODING 41
SWIDTH 500 0
DWIDTH 8 0
BBX 4 6 3 1
BITMAP
E0
70
70
70
70
E0
ENDCHAR
STARTCHAR plus
ENCODING 43
SWIDTH 500 0
DWIDTH 8 0
BBX 7 5 1 1
BITMAP
38
38
FE
38
38
ENDCHAR
STARTCHAR hyphen
ENCODING 45
SWIDTH 500 0
DWIDTH 8 0
BBX 5 1 2 3
BITMAP
F8
ENDCHAR
STARTCHAR period
ENCODING 46
SWIDTH 500 0
DWIDTH 8 0
BBX 3 1 2 1
BITMAP
E0
ENDCHAR
STARTCHAR slash
ENCODING 47
SWIDTH 500 0
DWIDTH 8 0
BBX 7 6 1 1
BITMAP
06
0E
1C
38
70
E0
ENDCHAR
STARTCHAR zero
ENCODING 48
SWIDTH 500 0
DWIDTH 8 0
BBX 7 6 1 1
BITMAP
7C
EE
EE
EE
6E
3C
ENDCHAR
STARTCHAR one
ENCODING 49
SWIDTH 500 0
DWIDTH 8 0
BBX 4 6 2 1
BITMAP
70
F0
70
70
70
30
ENDCHAR
STARTCHAR two
ENCODING 50
SWIDTH 500 0
DWIDTH 8 0
BBX 7 6 1 1
BITMAP
7C
CE
1E
7C
F0
FC
ENDCHAR
STARTCHAR three
ENCODING 51
SWIDTH 500 0
DWIDTH 8 0
BBX 7 6 1 1
BITMAP
FE
0E
7C
0E
0E
7C
ENDCHAR
STARTCHAR four
ENCODING 52
SWIDTH 500 0
DWIDTH 8 0
BBX 7 6 1 1
BITMAP
D8
DC
DC
DC
7E
1C
ENDCHAR
STARTCHAR five
ENCODING 53
SWIDTH 500 0
DWIDTH 8 0
BBX 7 6 1 1
BITMAP
FC
E0
FC
0E
6E
3C
ENDCHAR
STARTCHAR six
ENCODING 54
SWIDTH 500 0
DWIDTH 8 0
BBX 7 6 1 1
BITMAP
FC
E0
FC
EE
EE
7E
ENDCHAR
STARTCHAR seven
ENCODING 55
SWIDTH 500 0
DWIDTH 8 0
BBX 7 6 1 1
BITMAP
FE
0E
1C
38
70
70
ENDCHAR
STARTCHAR eight
ENCODING 56
SWIDTH 500 0
DWIDTH 8 0
BBX 7 6 1 1
BITMAP
FC
EE
FE
EE
EE
7E
ENDCHAR
STARTCHAR nine
ENCODING 57
SWIDTH 500 0
DWIDTH 8 0
BBX 7 6 1 1
BITMAP
FC
EE
EE
7E
0E
0E
ENDCHAR
STARTCHAR colon
ENCODING 58
SWIDTH 500 0
DWIDTH 8 0
BBX 3 5 2 2
BITMAP
E0
00
00
00
E0
ENDCHAR
STARTCHAR question
ENCODING 63
SWIDTH 500 0
DWIDTH 8 0
BBX 5 6 2 1
BITMAP
F0
F8
18
70
00
70
ENDCHAR
STARTCHAR A
ENCODING 65
SWIDTH 500 0
DWIDTH 8 0
BBX 7 6 1 1
BITMAP
FC
EE
EE
EE
FE
6E
ENDCHAR
STARTCHAR B
ENCODING 66
SWIDTH 500 0
DWIDTH 8 0
BBX 7 6 1 1
BITMAP
F8
EC
FC
EE
EE
7E
ENDCHAR
STARTCHAR C
ENCODING 67
SWIDTH 500 0
DWIDTH 8 0
BBX 7 6 1 1
BITMAP
7E
E0
E0
E0
70
3C
ENDCHAR
STARTCHAR D
ENCODING 68
SWIDTH 500 0
DWIDTH 8 0
BBX 7 6 1 1
BITMAP
FC
0E
EE
EE
FC
F8
ENDCHAR
STARTCHAR E
ENCODING 69
SWIDTH 500 0
DWIDTH 8 0
BBX 7 6 1 1
BITMAP
7E
E0
F8
E0
E0
7C
ENDCHAR
STARTCHAR F
ENCODING 70
SWIDTH 500 0
DWIDTH 8 0
BBX 7 6 1 1
BITMAP
FE
E0
F8
E0
E0
60
ENDCHAR
STARTCHAR G
ENCODING 71
SWIDTH 500 0
DWIDTH 8 0
BBX 7 6 1 1
BITMAP
7E
E0
E0
EE
EE
76
ENDCHAR
STARTCHAR H
ENCODING 72
SWIDTH 500 0
DWIDTH 8 0
BBX 7 6 1 1
BITMAP
EC
EE
EE
FE
EE
66
ENDCHAR
STARTCHAR I
ENCODING 73
SWIDTH 500 0
DWIDTH 8 0
BBX 5 6 2 1
BITMAP
E0
70
70
70
70
38
ENDCHAR
STARTCHAR J
ENCODING 74
SWIDTH 500 0
DWIDTH 8 0
BBX 7 6 1 1
BITMAP
FE
00
38
38
38
F0
ENDCHAR
STARTCHAR K
ENCODING 75
SWIDTH 500 0
DWIDTH 8 0
BBX 7 6 1 1
BITMAP
EE
FC
F0
F8
FC
6E
ENDCHAR
STARTCHAR L
ENCODING 76
SWIDTH 500 0
DWIDTH 8 0
BBX 6 6 1 1
BITMAP
C0
E0
E0
E0
E0
7C
ENDCHAR
STARTCHAR M
ENCODING 77
SWIDTH 500 0
DWIDTH 8 0
BBX 7 6 1 1
BITMAP
C6
EE
FE
D6
C6
46
ENDCHAR
STARTCHAR N
ENCODING 78
SWIDTH 500 0
DWIDTH 8 0
BBX 7 6 1 1
BITMAP
E6
F6
FE
FE
EE
66
ENDCHAR
STARTCHAR O
ENCODING 79
SWIDTH 500 0
DWIDTH 8 0
BBX 7 6 1 1
BITMAP
7C
EE
EE
EE
6E
3C
ENDCHAR
STARTCHAR P
ENCODING 80
SWIDTH 500 0
DWIDTH 8 0
BBX 7 6 1 1
BITMAP
FC
EE
EE
FC
E0
60
ENDCHAR
STARTCHAR Q
ENCODING 81
SWIDTH 500 0
DWIDTH 8 0
BBX 7 6 1 1
BITMAP
FC
CE
CE
D6
D8
6C
ENDCHAR
STARTCHAR R
ENCODING 82
SWIDTH 500 0
DWIDTH 8 0
BBX 7 6 1 1
BITMAP
FC
EE
EE
FC
FC
6E
ENDCHAR
STARTCHAR S
ENCODING 83
SWIDTH 500 0
DWIDTH 8 0
BBX 7 6 1 1
BITMAP
3E
70
78
3C
1E
FC
ENDCHAR
STARTCHAR T
ENCODING 84
SWIDTH 500 0
DWIDTH 8 0
BBX 7 6 1 1
BITMAP
FE
38
38
38
38
18
ENDCHAR
STARTCHAR U
ENCODING 85
SWIDTH 500 0
DWIDTH 8 0
BBX 7 6 1 1
BITMAP
EC
EE
EE
EE
6E
3E
ENDCHAR
STARTCHAR V
ENCODING 86
SWIDTH 500 0
DWIDTH 8 0
BBX 7 6 1 1
BITMAP
CE
DC
F8
F0
E0
C0
ENDCHAR
STARTCHAR W
ENCODING 87
SWIDTH 500 0
DWIDTH 8 0
BBX 7 6 1 1
BITMAP
86
C6
C6
D6
FE
6E
ENDCHAR
STARTCHAR X
ENCODING 88
SWIDTH 500 0
DWIDTH 8 0
BBX 7 6 1 1
BITMAP
C6
EE
7C
38
7C
EE
ENDCHAR
STARTCHAR Y
ENCODING 89
SWIDTH 500 0
DWIDTH 8 0
BBX 7 6 1 1
BITMAP
EE
7E
3C
78
F0
E0
ENDCHAR
STARTCHAR Z
ENCODING 90
SWIDTH 500 0
DWIDTH 8 0
BBX 7 6 1 1
BITMAP
7E
1E
3C
78
F0
FE
ENDCHAR
STARTCHAR backslash
ENCODING 92
SWIDTH 500 0
DWIDTH 8 0
BBX 7 6 1 1
BITMAP
C0
E0
70
38
1C
0E
ENDCHAR
STARTCHAR underscore
ENCODING 95
SWIDTH 500 0
DWIDTH 8 0
BBX 7 1 1 1
BITMAP
FE
ENDCHAR
STARTCHAR a
ENCODING 97
SWIDTH 500 0
DWIDTH 8 0
BBX 7 6 1 1
BITMAP
FC
EE
EE
EE
FE
6E
ENDCHAR
STARTCHAR b
ENCODING 98
SWIDTH 500 0
DWIDTH 8 0
BBX 7 6 1 1
BITMAP
F8
EC
FC
EE
EE
7E
ENDCHAR
STARTCHAR c
ENCODING 99
SWIDTH 500 0
DWIDTH 8 0
BBX 7 6 1 1
BITMAP
7E
E0
E0
E0
70
3C
ENDCHAR
STARTCHAR d
ENCODING 100
SWIDTH 500 0
DWIDTH 8 0
BBX 7 6 1 1
BITMAP
FC
0E
EE
EE
FC
F8
ENDCHAR
STARTCHAR e
ENCODING 101
SWIDTH 500 0
DWIDTH 8 0
BBX 7 6 1 1
BITMAP
7E
E0
F8
E0
E0
7C
ENDCHAR
STARTCHAR f
ENCODING 102
SWIDTH 500 0
DWIDTH 8 0
BBX 7 6 1 1
BITMAP
FE
E0
F8
E0
E0
60
ENDCHAR
STARTCHAR g
ENCODING 103
SWIDTH 500 0
DWIDTH 8 0
BBX 7 6 1 1
BITMAP
7E
E0
E0
EE
EE
76
ENDCHAR
STARTCHAR h
ENCODING 104
SWIDTH 500 0
DWIDTH 8 0
BBX 7 6 1 1
BITMAP
EC
EE
EE
FE
EE
66
ENDCHAR
STARTCHAR i
ENCODING 105
SWIDTH 500 0
DWIDTH 8 0
BBX 5 6 2 1
BITMAP
E0
70
70
70
70
38
ENDCHAR
STARTCHAR j
ENCODING 106
SWIDTH 500 0
DWIDTH 8 0
BBX 7 6 1 1
BITMAP
FE
00
38
38
38
F0
ENDCHAR
STARTCHAR k
ENCODING 107
SWIDTH 500 0
DWIDTH 8 0
BBX 7 6 1 1
BITMAP
EE
FC
F0
F8
FC
6E
ENDCHAR
STARTCHAR l
ENCODING 108
SWIDTH 500 0
DWIDTH 8 0
BBX 6 6 1 1
BITMAP
C0
E0
E0
E0
E0
7C
ENDCHAR
STARTCHAR m
ENCODING 109
SWIDTH 500 0
DWIDTH 8 0
BBX 7 6 1 1
BITMAP
C6
EE
FE
D6
C6
46
ENDCHAR
STARTCHAR n
ENCODING 110
SWIDTH 500 0
DWIDTH 8 0
BBX 7 6 1 1
BITMAP
E6
F6
FE
FE
EE
66
ENDCHAR
STARTCHAR o
ENCODING 111
SWIDTH 500 0
DWIDTH 8 0
BBX 7 6 1 1
BITMAP
7C
EE
EE
EE
6E
3C
ENDCHAR
STARTCHAR p
ENCODING 112
SWIDTH 500 0
DWIDTH 8 0
BBX 7 6 1 1
BITMAP
FC
EE
EE
FC
E0
60
ENDCHAR
STARTCHAR q
ENCODING 113
SWIDTH 500 0
DWIDTH 8 0
BBX 7 6 1 1
BITMAP
FC
CE
CE
D6
D8
6C
ENDCHAR
STARTCHAR r
ENCODING 114
SWIDTH 500 0
DWIDTH 8 0
BBX 7 6 1 1
BITMAP
FC
EE
EE
FC
FC
6E
ENDCHAR
STARTCHAR s
ENCODING 115
SWIDTH 500 0
DWIDTH 8 0
BBX 7 6 1 1
BITMAP
3E
70
78
3C
1E
FC
ENDCHAR
STARTCHAR t
ENCODING 116
SWIDTH 500 0
DWIDTH 8 0
BBX 7 6 1 1
BITMAP
FE
38
38
38
38
18
ENDCHAR
STARTCHAR u
ENCODING 117
SWIDTH 500 0
DWIDTH 8 0
BBX 7 6 1 1
BITMAP
EC
EE
EE
EE
6E
3E
ENDCHAR
STARTCHAR v
ENCODING 118
SWIDTH 500 0
DWIDTH 8 0
BBX 7 6 1 1
BITMAP
CE
DC
F8
F0
E0
C0
ENDCHAR
STARTCHAR w
ENCODING 119
SWIDTH 500 0
DWIDTH 8 0
BBX 7 6 1 1
BITMAP
86
C6
C6
D6
FE
6E
ENDCHAR
STARTCHAR x
ENCODING 120
SWIDTH 500 0
DWIDTH 8 0
BBX 7 6 1 1
BITMAP
C6
EE
7C
38
7C
EE
ENDCHAR
STARTCHAR y
ENCODING 121
SWIDTH 500 0
DWIDTH 8 0
BBX 7 6 1 1
BITMAP
EE
7E
3C
78
F0
E0
ENDCHAR
STARTCHAR z
ENCODING 122
SWIDTH 500 0
DWIDTH 8 0
BBX 7 6 1 1
BITMAP
7E
1E
3C
78
F0
FE
ENDCHAR
STARTCHAR .notdef
ENCODING -1
SWIDTH 500 0
DWIDTH 8 0
BBX 1 1 0 0
BITMAP
00
ENDCHAR
ENDFONT
