STARTFONT 2.1
FONT Pixel Den of Snakes Four Player Heavy Invert Block 8x8 Mono-16px
SIZE 16 75 75
FONTBOUNDINGBOX 8 8 0 0
STARTPROPERTIES 5
PIXEL_SIZE 16
FONT_ASCENT 16
FONT_DESCENT 0
CHARSET_REGISTRY "ISO10646"
CHARSET_ENCODING "1"
ENDPROPERTIES
CHARS 76
STARTCHAR uni000D
ENCODING 13
SWIDTH 500 0
DWIDTH 8 0
BBX 1 1 0 0
BITMAP
00
ENDCHAR
STARTCHAR space
ENCODING 32
SWIDTH 500 0
DWIDTH 8 0
BBX 1 1 0 0
BITMAP
00
ENDCHAR
STARTCHAR exclam
ENCODING 33
SWIDTH 500 0
DWIDTH 8 0
BBX 8 8 0 0
BITMAP
FF
C7
C7
C7
C7
FF
C7
FF
ENDCHAR
STARTCHAR parenleft
ENCODING 40
SWIDTH 500 0
DWIDTH 8 0
BBX 8 8 0 0
BITMAP
FF
E3
C7
C7
C7
C7
E3
FF
ENDCHAR
STARTCHAR parenright
ENCODING 41
SWIDTH 500 0
DWIDTH 8 0
BBX 8 8 0 0
BITMAP
FF
E3
F1
F1
F1
F1
E3
FF
ENDCHAR
STARTCHAR plus
ENCODING 43
SWIDTH 500 0
DWIDTH 8 0
BBX 8 8 0 0
BITMAP
FF
FF
E3
E3
80
E3
E3
FF
ENDCHAR
STARTCHAR hyphen
ENCODING 45
SWIDTH 500 0
DWIDTH 8 0
BBX 8 8 0 0
BITMAP
FF
FF
FF
FF
C1
FF
FF
FF
ENDCHAR
STARTCHAR period
ENCODING 46
SWIDTH 500 0
DWIDTH 8 0
BBX 8 8 0 0
BITMAP
FF
FF
FF
FF
FF
FF
C7
FF
ENDCHAR
STARTCHAR slash
ENCODING 47
SWIDTH 500 0
DWIDTH 8 0
BBX 8 8 0 0
BITMAP
FF
FC
F8
F1
E3
C7
8F
FF
ENDCHAR
STARTCHAR zero
ENCODING 48
SWIDTH 500 0
DWIDTH 8 0
BBX 8 8 0 0
BITMAP
FF
C1
88
88
88
C8
E1
FF
ENDCHAR
STARTCHAR one
ENCODING 49
SWIDTH 500 0
DWIDTH 8 0
BBX 8 8 0 0
BITMAP
FF
E3
C3
E3
E3
E3
F3
FF
ENDCHAR
STARTCHAR two
ENCODING 50
SWIDTH 500 0
DWIDTH 8 0
BBX 8 8 0 0
BITMAP
FF
C1
98
F0
C1
87
81
FF
ENDCHAR
STARTCHAR three
ENCODING 51
SWIDTH 500 0
DWIDTH 8 0
BBX 8 8 0 0
BITMAP
FF
80
F8
C1
F8
F8
C1
FF
ENDCHAR
STARTCHAR four
ENCODING 52
SWIDTH 500 0
DWIDTH 8 0
BBX 8 8 0 0
BITMAP
FF
93
91
91
91
C0
F1
FF
ENDCHAR
STARTCHAR five
ENCODING 53
SWIDTH 500 0
DWIDTH 8 0
BBX 8 8 0 0
BITMAP
FF
81
8F
81
F8
C8
E1
FF
ENDCHAR
STARTCHAR six
ENCODING 54
SWIDTH 500 0
DWIDTH 8 0
BBX 8 8 0 0
BITMAP
FF
81
8F
81
88
88
C0
FF
ENDCHAR
STARTCHAR seven
ENCODING 55
SWIDTH 500 0
DWIDTH 8 0
BBX 8 8 0 0
BITMAP
FF
80
F8
F1
E3
C7
C7
FF
ENDCHAR
STARTCHAR eight
ENCODING 56
SWIDTH 500 0
DWIDTH 8 0
BBX 8 8 0 0
BITMAP
FF
81
88
80
88
88
C0
FF
ENDCHAR
STARTCHAR nine
ENCODING 57
SWIDTH 500 0
DWIDTH 8 0
BBX 8 8 0 0
BITMAP
FF
81
88
88
C0
F8
F8
FF
ENDCHAR
STARTCHAR colon
ENCODING 58
SWIDTH 500 0
DWIDTH 8 0
BBX 8 8 0 0
BITMAP
FF
C7
FF
FF
FF
C7
FF
FF
ENDCHAR
STARTCHAR question
ENCODING 63
SWIDTH 500 0
DWIDTH 8 0
BBX 8 8 0 0
BITMAP
FF
C3
C1
F9
E3
FF
E3
FF
ENDCHAR
STARTCHAR A
ENCODING 65
SWIDTH 500 0
DWIDTH 8 0
BBX 8 8 0 0
BITMAP
FF
81
88
88
88
80
C8
FF
ENDCHAR
STARTCHAR B
ENCODING 66
SWIDTH 500 0
DWIDTH 8 0
BBX 8 8 0 0
BITMAP
FF
83
89
81
88
88
C0
FF
ENDCHAR
STARTCHAR C
ENCODING 67
SWIDTH 500 0
DWIDTH 8 0
BBX 8 8 0 0
BITMAP
FF
C0
8F
8F
8F
C7
E1
FF
ENDCHAR
STARTCHAR D
ENCODING 68
SWIDTH 500 0
DWIDTH 8 0
BBX 8 8 0 0
BITMAP
FF
81
F8
88
88
81
83
FF
ENDCHAR
STARTCHAR E
ENCODING 69
SWIDTH 500 0
DWIDTH 8 0
BBX 8 8 0 0
BITMAP
FF
C0
8F
83
8F
8F
C1
FF
ENDCHAR
STARTCHAR F
ENCODING 70
SWIDTH 500 0
DWIDTH 8 0
BBX 8 8 0 0
BITMAP
FF
80
8F
83
8F
8F
CF
FF
ENDCHAR
STARTCHAR G
ENCODING 71
SWIDTH 500 0
DWIDTH 8 0
BBX 8 8 0 0
BITMAP
FF
C0
8F
8F
88
88
C4
FF
ENDCHAR
STARTCHAR H
ENCODING 72
SWIDTH 500 0
DWIDTH 8 0
BBX 8 8 0 0
BITMAP
FF
89
88
88
80
88
CC
FF
ENDCHAR
STARTCHAR I
ENCODING 73
SWIDTH 500 0
DWIDTH 8 0
BBX 8 8 0 0
BITMAP
FF
C7
E3
E3
E3
E3
F1
FF
ENDCHAR
STARTCHAR J
ENCODING 74
SWIDTH 500 0
DWIDTH 8 0
BBX 8 8 0 0
BITMAP
FF
80
FF
E3
E3
E3
87
FF
ENDCHAR
STARTCHAR K
ENCODING 75
SWIDTH 500 0
DWIDTH 8 0
BBX 8 8 0 0
BITMAP
FF
88
81
87
83
81
C8
FF
ENDCHAR
STARTCHAR L
ENCODING 76
SWIDTH 500 0
DWIDTH 8 0
BBX 8 8 0 0
BITMAP
FF
9F
8F
8F
8F
8F
C1
FF
ENDCHAR
STARTCHAR M
ENCODING 77
SWIDTH 500 0
DWIDTH 8 0
BBX 8 8 0 0
BITMAP
FF
9C
88
80
94
9C
DC
FF
ENDCHAR
STARTCHAR N
ENCODING 78
SWIDTH 500 0
DWIDTH 8 0
BBX 8 8 0 0
BITMAP
FF
8C
84
80
80
88
CC
FF
ENDCHAR
STARTCHAR O
ENCODING 79
SWIDTH 500 0
DWIDTH 8 0
BBX 8 8 0 0
BITMAP
FF
C1
88
88
88
C8
E1
FF
ENDCHAR
STARTCHAR P
ENCODING 80
SWIDTH 500 0
DWIDTH 8 0
BBX 8 8 0 0
BITMAP
FF
81
88
88
81
8F
CF
FF
ENDCHAR
STARTCHAR Q
ENCODING 81
SWIDTH 500 0
DWIDTH 8 0
BBX 8 8 0 0
BITMAP
FF
81
98
98
94
93
C9
FF
ENDCHAR
STARTCHAR R
ENCODING 82
SWIDTH 500 0
DWIDTH 8 0
BBX 8 8 0 0
BITMAP
FF
81
88
88
81
81
C8
FF
ENDCHAR
STARTCHAR S
ENCODING 83
SWIDTH 500 0
DWIDTH 8 0
BBX 8 8 0 0
BITMAP
FF
E0
C7
C3
E1
F0
81
FF
ENDCHAR
STARTCHAR T
ENCODING 84
SWIDTH 500 0
DWIDTH 8 0
BBX 8 8 0 0
BITMAP
FF
80
E3
E3
E3
E3
F3
FF
ENDCHAR
STARTCHAR U
ENCODING 85
SWIDTH 500 0
DWIDTH 8 0
BBX 8 8 0 0
BITMAP
FF
89
88
88
88
C8
E0
FF
ENDCHAR
STARTCHAR V
ENCODING 86
SWIDTH 500 0
DWIDTH 8 0
BBX 8 8 0 0
BITMAP
FF
98
91
83
87
8F
9F
FF
ENDCHAR
STARTCHAR W
ENCODING 87
SWIDTH 500 0
DWIDTH 8 0
BBX 8 8 0 0
BITMAP
FF
BC
9C
9C
94
80
C8
FF
ENDCHAR
STARTCHAR X
ENCODING 88
SWIDTH 500 0
DWIDTH 8 0
BBX 8 8 0 0
BITMAP
FF
9C
88
C1
E3
C1
88
FF
ENDCHAR
STARTCHAR Y
ENCODING 89
SWIDTH 500 0
DWIDTH 8 0
BBX 8 8 0 0
BITMAP
FF
88
C0
E1
C3
87
8F
FF
ENDCHAR
STARTCHAR Z
ENCODING 90
SWIDTH 500 0
DWIDTH 8 0
BBX 8 8 0 0
BITMAP
FF
C0
F0
E1
C3
87
80
FF
ENDCHAR
STARTCHAR backslash
ENCODING 92
SWIDTH 500 0
DWIDTH 8 0
BBX 8 8 0 0
BITMAP
FF
9F
8F
C7
E3
F1
F8
FF
ENDCHAR
STARTCHAR underscore
ENCODING 95
SWIDTH 500 0
DWIDTH 8 0
BBX 8 8 0 0
BITMAP
FF
FF
FF
FF
FF
FF
80
FF
ENDCHAR
STARTCHAR a
ENCODING 97
SWIDTH 500 0
DWIDTH 8 0
BBX 8 8 0 0
BITMAP
FF
81
88
88
88
80
C8
FF
ENDCHAR
STARTCHAR b
ENCODING 98
SWIDTH 500 0
DWIDTH 8 0
BBX 8 8 0 0
BITMAP
FF
83
89
81
88
88
C0
FF
ENDCHAR
STARTCHAR c
ENCODING 99
SWIDTH 500 0
DWIDTH 8 0
BBX 8 8 0 0
BITMAP
FF
C0
8F
8F
8F
C7
E1
FF
ENDCHAR
STARTCHAR d
ENCODING 100
SWIDTH 500 0
DWIDTH 8 0
BBX 8 8 0 0
BITMAP
FF
81
F8
88
88
81
83
FF
ENDCHAR
STARTCHAR e
ENCODING 101
SWIDTH 500 0
DWIDTH 8 0
BBX 8 8 0 0
BITMAP
FF
C0
8F
83
8F
8F
C1
FF
ENDCHAR
STARTCHAR f
ENCODING 102
SWIDTH 500 0
DWIDTH 8 0
BBX 8 8 0 0
BITMAP
FF
80
8F
83
8F
8F
CF
FF
ENDCHAR
STARTCHAR g
ENCODING 103
SWIDTH 500 0
DWIDTH 8 0
BBX 8 8 0 0
BITMAP
FF
C0
8F
8F
88
88
C4
FF
ENDCHAR
STARTCHAR h
ENCODING 104
SWIDTH 500 0
DWIDTH 8 0
BBX 8 8 0 0
BITMAP
FF
89
88
88
80
88
CC
FF
ENDCHAR
STARTCHAR i
ENCODING 105
SWIDTH 500 0
DWIDTH 8 0
BBX 8 8 0 0
BITMAP
FF
C7
E3
E3
E3
E3
F1
FF
ENDCHAR
STARTCHAR j
ENCODING 106
SWIDTH 500 0
DWIDTH 8 0
BBX 8 8 0 0
BITMAP
FF
80
FF
E3
E3
E3
87
FF
ENDCHAR
STARTCHAR k
ENCODING 107
SWIDTH 500 0
DWIDTH 8 0
BBX 8 8 0 0
BITMAP
FF
88
81
87
83
81
C8
FF
ENDCHAR
STARTCHAR l
ENCODING 108
SWIDTH 500 0
DWIDTH 8 0
BBX 8 8 0 0
BITMAP
FF
9F
8F
8F
8F
8F
C1
FF
ENDCHAR
STARTCHAR m
ENCODING 109
SWIDTH 500 0
DWIDTH 8 0
BBX 8 8 0 0
BITMAP
FF
9C
88
80
94
9C
DC
FF
ENDCHAR
STARTCHAR n
ENCODING 110
SWIDTH 500 0
DWIDTH 8 0
BBX 8 8 0 0
BITMAP
FF
8C
84
80
80
88
CC
FF
ENDCHAR
STARTCHAR o
ENCODING 111
SWIDTH 500 0
DWIDTH 8 0
BBX 8 8 0 0
BITMAP
FF
C1
88
88
88
C8
E1
FF
ENDCHAR
STARTCHAR p
ENCODING 112
SWIDTH 500 0
DWIDTH 8 0
BBX 8 8 0 0
BITMAP
FF
81
88
88
81
8F
CF
FF
ENDCHAR
STARTCHAR q
ENCODING 113
SWIDTH 500 0
DWIDTH 8 0
BBX 8 8 0 0
BITMAP
FF
81
98
98
94
93
C9
FF
ENDCHAR
STARTCHAR r
ENCODING 114
SWIDTH 500 0
DWIDTH 8 0
BBX 8 8 0 0
BITMAP
FF
81
88
88
81
81
C8
FF
ENDCHAR
STARTCHAR s
ENCODING 115
SWIDTH 500 0
DWIDTH 8 0
BBX 8 8 0 0
BITMAP
FF
E0
C7
C3
E1
F0
81
FF
ENDCHAR
STARTCHAR t
ENCODING 116
SWIDTH 500 0
DWIDTH 8 0
BBX 8 8 0 0
BITMAP
FF
80
E3
E3
E3
E3
F3
FF
ENDCHAR
STARTCHAR u
ENCODING 117
SWIDTH 500 0
DWIDTH 8 0
BBX 8 8 0 0
BITMAP
FF
89
88
88
88
C8
E0
FF
ENDCHAR
STARTCHAR v
ENCODING 118
SWIDTH 500 0
DWIDTH 8 0
BBX 8 8 0 0
BITMAP
FF
98
91
83
87
8F
9F
FF
ENDCHAR
STARTCHAR w
ENCODING 119
SWIDTH 500 0
DWIDTH 8 0
BBX 8 8 0 0
BITMAP
FF
BC
9C
9C
94
80
C8
FF
ENDCHAR
STARTCHAR x
ENCODING 120
SWIDTH 500 0
DWIDTH 8 0
BBX 8 8 0 0
BITMAP
FF
9C
88
C1
E3
C1
88
FF
ENDCHAR
STARTCHAR y
ENCODING 121
SWIDTH 500 0
DWIDTH 8 0
BBX 8 8 0 0
BITMAP
FF
88
C0
E1
C3
87
8F
FF
ENDCHAR
STARTCHAR z
ENCODING 122
SWIDTH 500 0
DWIDTH 8 0
BBX 8 8 0 0
BITMAP
FF
C0
F0
E1
C3
87
80
FF
ENDCHAR
STARTCHAR .notdef
ENCODING -1
SWIDTH 500 0
DWIDTH 8 0
BBX 1 1 0 0
BITMAP
00
ENDCHAR
ENDFONT
