STARTFONT 2.1
FONT Pixel Den of Snakes Four Player Outline 8x8 Mono-16px
SIZE 16 75 75
FONTBOUNDINGBOX 8 8 0 0
STARTPROPERTIES 5
PIXEL_SIZE 16
FONT_ASCENT 16
FONT_DESCENT 0
CHARSET_REGISTRY "ISO10646"
CHARSET_ENCODING "1"
ENDPROPERTIES
CHARS 76
STARTCHAR uni000D
ENCODING 13
SWIDTH 500 0
DWIDTH 8 0
BBX 1 1 0 0
BITMAP
00
ENDCHAR
STARTCHAR space
ENCODING 32
SWIDTH 500 0
DWIDTH 8 0
BBX 1 1 0 0
BITMAP
00
ENDCHAR
STARTCHAR exclam
ENCODING 33
SWIDTH 500 0
DWIDTH 8 0
BBX 4 8 1 0
BITMAP
F0
90
90
90
90
F0
90
F0
ENDCHAR
STARTCHAR parenleft
ENCODING 40
SWIDTH 500 0
DWIDTH 8 0
BBX 5 8 1 0
BITMAP
78
C8
98
90
90
98
C8
78
ENDCHAR
STARTCHAR parenright
ENCODING 41
SWIDTH 500 0
DWIDTH 8 0
BBX 5 8 2 0
BITMAP
F0
98
C8
48
48
C8
98
F0
ENDCHAR
STARTCHAR plus
ENCODING 43
SWIDTH 500 0
DWIDTH 8 0
BBX 8 7 0 0
BITMAP
3C
24
E7
81
E7
24
3C
ENDCHAR
STARTCHAR hyphen
ENCODING 45
SWIDTH 500 0
DWIDTH 8 0
BBX 6 3 1 2
BITMAP
FC
84
FC
ENDCHAR
STARTCHAR period
ENCODING 46
SWIDTH 500 0
DWIDTH 8 0
BBX 4 3 1 0
BITMAP
F0
90
F0
ENDCHAR
STARTCHAR slash
ENCODING 47
SWIDTH 500 0
DWIDTH 8 0
BBX 8 8 0 0
BITMAP
07
0D
19
33
66
CC
98
F0
ENDCHAR
STARTCHAR zero
ENCODING 48
SWIDTH 500 0
DWIDTH 8 0
BBX 8 8 0 0
BITMAP
7E
C3
99
89
91
D9
63
3E
ENDCHAR
STARTCHAR one
ENCODING 49
SWIDTH 500 0
DWIDTH 8 0
BBX 5 8 1 0
BITMAP
78
C8
88
C8
48
48
68
38
ENDCHAR
STARTCHAR two
ENCODING 50
SWIDTH 500 0
DWIDTH 8 0
BBX 8 8 0 0
BITMAP
7E
C3
B9
F1
C3
8E
82
FE
ENDCHAR
STARTCHAR three
ENCODING 51
SWIDTH 500 0
DWIDTH 8 0
BBX 8 8 0 0
BITMAP
FF
81
F9
43
79
79
43
7E
ENDCHAR
STARTCHAR four
ENCODING 52
SWIDTH 500 0
DWIDTH 8 0
BBX 8 8 0 0
BITMAP
FC
96
92
92
93
C1
73
1E
ENDCHAR
STARTCHAR five
ENCODING 53
SWIDTH 500 0
DWIDTH 8 0
BBX 8 8 0 0
BITMAP
FE
82
9E
83
F9
59
63
3E
ENDCHAR
STARTCHAR six
ENCODING 54
SWIDTH 500 0
DWIDTH 8 0
BBX 8 8 0 0
BITMAP
FE
82
9E
83
99
99
C1
7F
ENDCHAR
STARTCHAR seven
ENCODING 55
SWIDTH 500 0
DWIDTH 8 0
BBX 8 8 0 0
BITMAP
FF
81
F9
33
66
4C
48
78
ENDCHAR
STARTCHAR eight
ENCODING 56
SWIDTH 500 0
DWIDTH 8 0
BBX 8 8 0 0
BITMAP
FE
83
99
81
99
99
C1
7F
ENDCHAR
STARTCHAR nine
ENCODING 57
SWIDTH 500 0
DWIDTH 8 0
BBX 8 8 0 0
BITMAP
FE
83
99
99
C1
79
09
0F
ENDCHAR
STARTCHAR colon
ENCODING 58
SWIDTH 500 0
DWIDTH 8 0
BBX 4 7 1 1
BITMAP
F0
90
F0
00
F0
90
F0
ENDCHAR
STARTCHAR question
ENCODING 63
SWIDTH 500 0
DWIDTH 8 0
BBX 7 8 1 0
BITMAP
FC
86
92
F2
46
7C
48
78
ENDCHAR
STARTCHAR A
ENCODING 65
SWIDTH 500 0
DWIDTH 8 0
BBX 8 8 0 0
BITMAP
FE
83
99
99
99
91
D9
7F
ENDCHAR
STARTCHAR B
ENCODING 66
SWIDTH 500 0
DWIDTH 8 0
BBX 8 8 0 0
BITMAP
FC
86
9A
83
99
99
C1
7F
ENDCHAR
STARTCHAR C
ENCODING 67
SWIDTH 500 0
DWIDTH 8 0
BBX 8 8 0 0
BITMAP
7F
C1
9F
90
98
CE
62
3E
ENDCHAR
STARTCHAR D
ENCODING 68
SWIDTH 500 0
DWIDTH 8 0
BBX 8 8 0 0
BITMAP
FE
83
F9
99
99
93
86
FC
ENDCHAR
STARTCHAR E
ENCODING 69
SWIDTH 500 0
DWIDTH 8 0
BBX 8 8 0 0
BITMAP
7F
C1
9F
84
9C
9E
C2
7E
ENDCHAR
STARTCHAR F
ENCODING 70
SWIDTH 500 0
DWIDTH 8 0
BBX 8 8 0 0
BITMAP
FF
81
9F
84
9C
90
D0
70
ENDCHAR
STARTCHAR G
ENCODING 71
SWIDTH 500 0
DWIDTH 8 0
BBX 8 8 0 0
BITMAP
7F
C1
9F
9F
91
99
CD
7F
ENDCHAR
STARTCHAR H
ENCODING 72
SWIDTH 500 0
DWIDTH 8 0
BBX 8 8 0 0
BITMAP
FE
9B
99
99
81
99
DD
77
ENDCHAR
STARTCHAR I
ENCODING 73
SWIDTH 500 0
DWIDTH 8 0
BBX 6 8 1 0
BITMAP
F0
98
C8
48
48
4C
64
3C
ENDCHAR
STARTCHAR J
ENCODING 74
SWIDTH 500 0
DWIDTH 8 0
BBX 8 8 0 0
BITMAP
FF
81
FF
24
24
E4
8C
F8
ENDCHAR
STARTCHAR K
ENCODING 75
SWIDTH 500 0
DWIDTH 8 0
BBX 8 8 0 0
BITMAP
FF
99
93
8E
86
93
D9
7F
ENDCHAR
STARTCHAR L
ENCODING 76
SWIDTH 500 0
DWIDTH 8 0
BBX 7 8 0 0
BITMAP
E0
B0
90
90
90
9E
C2
7E
ENDCHAR
STARTCHAR M
ENCODING 77
SWIDTH 500 0
DWIDTH 8 0
BBX 8 8 0 0
BITMAP
F7
9D
89
81
95
9D
D5
77
ENDCHAR
STARTCHAR N
ENCODING 78
SWIDTH 500 0
DWIDTH 8 0
BBX 8 8 0 0
BITMAP
F7
9D
8D
85
91
99
DD
77
ENDCHAR
STARTCHAR O
ENCODING 79
SWIDTH 500 0
DWIDTH 8 0
BBX 8 8 0 0
BITMAP
7E
C3
99
99
99
D9
63
3E
ENDCHAR
STARTCHAR P
ENCODING 80
SWIDTH 500 0
DWIDTH 8 0
BBX 8 8 0 0
BITMAP
FE
83
99
99
93
9E
D0
70
ENDCHAR
STARTCHAR Q
ENCODING 81
SWIDTH 500 0
DWIDTH 8 0
BBX 8 8 0 0
BITMAP
FE
83
99
99
95
93
C9
7F
ENDCHAR
STARTCHAR R
ENCODING 82
SWIDTH 500 0
DWIDTH 8 0
BBX 8 8 0 0
BITMAP
FE
83
99
99
83
93
D9
7F
ENDCHAR
STARTCHAR S
ENCODING 83
SWIDTH 500 0
DWIDTH 8 0
BBX 8 8 0 0
BITMAP
3F
61
4F
46
63
F1
83
FE
ENDCHAR
STARTCHAR T
ENCODING 84
SWIDTH 500 0
DWIDTH 8 0
BBX 8 8 0 0
BITMAP
FF
81
E7
24
24
24
34
1C
ENDCHAR
STARTCHAR U
ENCODING 85
SWIDTH 500 0
DWIDTH 8 0
BBX 8 8 0 0
BITMAP
FE
9B
99
99
99
D9
61
3F
ENDCHAR
STARTCHAR V
ENCODING 86
SWIDTH 500 0
DWIDTH 8 0
BBX 8 8 0 0
BITMAP
FF
99
93
86
8C
98
B0
E0
ENDCHAR
STARTCHAR W
ENCODING 87
SWIDTH 500 0
DWIDTH 8 0
BBX 8 8 0 0
BITMAP
E7
B5
95
9D
95
81
C9
7F
ENDCHAR
STARTCHAR X
ENCODING 88
SWIDTH 500 0
DWIDTH 8 0
BBX 8 8 0 0
BITMAP
F7
9D
8B
C6
63
D1
B9
EF
ENDCHAR
STARTCHAR Y
ENCODING 89
SWIDTH 500 0
DWIDTH 8 0
BBX 8 8 0 0
BITMAP
FF
99
D1
63
C6
8C
98
F0
ENDCHAR
STARTCHAR Z
ENCODING 90
SWIDTH 500 0
DWIDTH 8 0
BBX 8 8 0 0
BITMAP
7F
41
71
63
C6
8F
81
FF
ENDCHAR
STARTCHAR backslash
ENCODING 92
SWIDTH 500 0
DWIDTH 8 0
BBX 8 8 0 0
BITMAP
E0
B0
98
CC
66
33
19
0F
ENDCHAR
STARTCHAR underscore
ENCODING 95
SWIDTH 500 0
DWIDTH 8 0
BBX 8 3 0 0
BITMAP
FF
81
FF
ENDCHAR
STARTCHAR a
ENCODING 97
SWIDTH 500 0
DWIDTH 8 0
BBX 8 8 0 0
BITMAP
FE
83
99
99
99
91
D9
7F
ENDCHAR
STARTCHAR b
ENCODING 98
SWIDTH 500 0
DWIDTH 8 0
BBX 8 8 0 0
BITMAP
FC
86
9A
83
99
99
C1
7F
ENDCHAR
STARTCHAR c
ENCODING 99
SWIDTH 500 0
DWIDTH 8 0
BBX 8 8 0 0
BITMAP
7F
C1
9F
90
98
CE
62
3E
ENDCHAR
STARTCHAR d
ENCODING 100
SWIDTH 500 0
DWIDTH 8 0
BBX 8 8 0 0
BITMAP
FE
83
F9
99
99
93
86
FC
ENDCHAR
STARTCHAR e
ENCODING 101
SWIDTH 500 0
DWIDTH 8 0
BBX 8 8 0 0
BITMAP
7F
C1
9F
84
9C
9E
C2
7E
ENDCHAR
STARTCHAR f
ENCODING 102
SWIDTH 500 0
DWIDTH 8 0
BBX 8 8 0 0
BITMAP
FF
81
9F
84
9C
90
D0
70
ENDCHAR
STARTCHAR g
ENCODING 103
SWIDTH 500 0
DWIDTH 8 0
BBX 8 8 0 0
BITMAP
7F
C1
9F
9F
91
99
CD
7F
ENDCHAR
STARTCHAR h
ENCODING 104
SWIDTH 500 0
DWIDTH 8 0
BBX 8 8 0 0
BITMAP
FE
9B
99
99
81
99
DD
77
ENDCHAR
STARTCHAR i
ENCODING 105
SWIDTH 500 0
DWIDTH 8 0
BBX 6 8 1 0
BITMAP
F0
98
C8
48
48
4C
64
3C
ENDCHAR
STARTCHAR j
ENCODING 106
SWIDTH 500 0
DWIDTH 8 0
BBX 8 8 0 0
BITMAP
FF
81
FF
24
24
E4
8C
F8
ENDCHAR
STARTCHAR k
ENCODING 107
SWIDTH 500 0
DWIDTH 8 0
BBX 8 8 0 0
BITMAP
FF
99
93
8E
86
93
D9
7F
ENDCHAR
STARTCHAR l
ENCODING 108
SWIDTH 500 0
DWIDTH 8 0
BBX 7 8 0 0
BITMAP
E0
B0
90
90
90
9E
C2
7E
ENDCHAR
STARTCHAR m
ENCODING 109
SWIDTH 500 0
DWIDTH 8 0
BBX 8 8 0 0
BITMAP
F7
9D
89
81
95
9D
D5
77
ENDCHAR
STARTCHAR n
ENCODING 110
SWIDTH 500 0
DWIDTH 8 0
BBX 8 8 0 0
BITMAP
F7
9D
8D
85
91
99
DD
77
ENDCHAR
STARTCHAR o
ENCODING 111
SWIDTH 500 0
DWIDTH 8 0
BBX 8 8 0 0
BITMAP
7E
C3
99
99
99
D9
63
3E
ENDCHAR
STARTCHAR p
ENCODING 112
SWIDTH 500 0
DWIDTH 8 0
BBX 8 8 0 0
BITMAP
FE
83
99
99
93
9E
D0
70
ENDCHAR
STARTCHAR q
ENCODING 113
SWIDTH 500 0
DWIDTH 8 0
BBX 8 8 0 0
BITMAP
FE
83
99
99
95
93
C9
7F
ENDCHAR
STARTCHAR r
ENCODING 114
SWIDTH 500 0
DWIDTH 8 0
BBX 8 8 0 0
BITMAP
FE
83
99
99
83
93
D9
7F
ENDCHAR
STARTCHAR s
ENCODING 115
SWIDTH 500 0
DWIDTH 8 0
BBX 8 8 0 0
BITMAP
3F
61
4F
46
63
F1
83
FE
ENDCHAR
STARTCHAR t
ENCODING 116
SWIDTH 500 0
DWIDTH 8 0
BBX 8 8 0 0
BITMAP
FF
81
E7
24
24
24
34
1C
ENDCHAR
STARTCHAR u
ENCODING 117
SWIDTH 500 0
DWIDTH 8 0
BBX 8 8 0 0
BITMAP
FE
9B
99
99
99
D9
61
3F
ENDCHAR
STARTCHAR v
ENCODING 118
SWIDTH 500 0
DWIDTH 8 0
BBX 8 8 0 0
BITMAP
FF
99
93
86
8C
98
B0
E0
ENDCHAR
STARTCHAR w
ENCODING 119
SWIDTH 500 0
DWIDTH 8 0
BBX 8 8 0 0
BITMAP
E7
B5
95
9D
95
81
C9
7F
ENDCHAR
STARTCHAR x
ENCODING 120
SWIDTH 500 0
DWIDTH 8 0
BBX 8 8 0 0
BITMAP
F7
9D
8B
C6
63
D1
B9
EF
ENDCHAR
STARTCHAR y
ENCODING 121
SWIDTH 500 0
DWIDTH 8 0
BBX 8 8 0 0
BITMAP
FF
99
D1
63
C6
8C
98
F0
ENDCHAR
STARTCHAR z
ENCODING 122
SWIDTH 500 0
DWIDTH 8 0
BBX 8 8 0 0
BITMAP
7F
41
71
63
C6
8F
81
FF
ENDCHAR
STARTCHAR .notdef
ENCODING -1
SWIDTH 500 0
DWIDTH 8 0
BBX 1 1 0 0
BITMAP
00
ENDCHAR
ENDFONT
