STARTFONT 2.1
FONT Pixel Den of Snakes Four Player Invert Block 8x8 Mono-16px
SIZE 16 75 75
FONTBOUNDINGBOX 8 8 0 0
STARTPROPERTIES 5
PIXEL_SIZE 16
FONT_ASCENT 16
FONT_DESCENT 0
CHARSET_REGISTRY "ISO10646"
CHARSET_ENCODING "1"
ENDPROPERTIES
CHARS 76
STARTCHAR uni000D
ENCODING 13
SWIDTH 500 0
DWIDTH 8 0
BBX 1 1 0 0
BITMAP
00
ENDCHAR
STARTCHAR space
ENCODING 32
SWIDTH 500 0
DWIDTH 8 0
BBX 1 1 0 0
BITMAP
00
ENDCHAR
STARTCHAR exclam
ENCODING 33
SWIDTH 500 0
DWIDTH 8 0
BBX 8 8 0 0
BITMAP
FF
CF
CF
CF
CF
FF
CF
FF
ENDCHAR
STARTCHAR parenleft
ENCODING 40
SWIDTH 500 0
DWIDTH 8 0
BBX 8 8 0 0
BITMAP
FF
E7
CF
CF
CF
CF
E7
FF
ENDCHAR
STARTCHAR parenright
ENCODING 41
SWIDTH 500 0
DWIDTH 8 0
BBX 8 8 0 0
BITMAP
FF
E7
F3
F3
F3
F3
E7
FF
ENDCHAR
STARTCHAR plus
ENCODING 43
SWIDTH 500 0
DWIDTH 8 0
BBX 8 8 0 0
BITMAP
FF
FF
E7
E7
81
E7
E7
FF
ENDCHAR
STARTCHAR hyphen
ENCODING 45
SWIDTH 500 0
DWIDTH 8 0
BBX 8 8 0 0
BITMAP
FF
FF
FF
FF
C3
FF
FF
FF
ENDCHAR
STARTCHAR period
ENCODING 46
SWIDTH 500 0
DWIDTH 8 0
BBX 8 8 0 0
BITMAP
FF
FF
FF
FF
FF
FF
CF
FF
ENDCHAR
STARTCHAR slash
ENCODING 47
SWIDTH 500 0
DWIDTH 8 0
BBX 8 8 0 0
BITMAP
FF
FD
F9
F3
E7
CF
9F
FF
ENDCHAR
STARTCHAR zero
ENCODING 48
SWIDTH 500 0
DWIDTH 8 0
BBX 8 8 0 0
BITMAP
FF
C3
99
89
91
D9
E3
FF
ENDCHAR
STARTCHAR one
ENCODING 49
SWIDTH 500 0
DWIDTH 8 0
BBX 8 8 0 0
BITMAP
FF
E7
C7
E7
E7
E7
F7
FF
ENDCHAR
STARTCHAR two
ENCODING 50
SWIDTH 500 0
DWIDTH 8 0
BBX 8 8 0 0
BITMAP
FF
C3
B9
F1
C3
8F
83
FF
ENDCHAR
STARTCHAR three
ENCODING 51
SWIDTH 500 0
DWIDTH 8 0
BBX 8 8 0 0
BITMAP
FF
81
F9
C3
F9
F9
C3
FF
ENDCHAR
STARTCHAR four
ENCODING 52
SWIDTH 500 0
DWIDTH 8 0
BBX 8 8 0 0
BITMAP
FF
97
93
93
93
C1
F3
FF
ENDCHAR
STARTCHAR five
ENCODING 53
SWIDTH 500 0
DWIDTH 8 0
BBX 8 8 0 0
BITMAP
FF
83
9F
83
F9
D9
E3
FF
ENDCHAR
STARTCHAR six
ENCODING 54
SWIDTH 500 0
DWIDTH 8 0
BBX 8 8 0 0
BITMAP
FF
83
9F
83
99
99
C1
FF
ENDCHAR
STARTCHAR seven
ENCODING 55
SWIDTH 500 0
DWIDTH 8 0
BBX 8 8 0 0
BITMAP
FF
81
F9
F3
E7
CF
CF
FF
ENDCHAR
STARTCHAR eight
ENCODING 56
SWIDTH 500 0
DWIDTH 8 0
BBX 8 8 0 0
BITMAP
FF
83
99
81
99
99
C1
FF
ENDCHAR
STARTCHAR nine
ENCODING 57
SWIDTH 500 0
DWIDTH 8 0
BBX 8 8 0 0
BITMAP
FF
83
99
99
C1
F9
F9
FF
ENDCHAR
STARTCHAR colon
ENCODING 58
SWIDTH 500 0
DWIDTH 8 0
BBX 8 8 0 0
BITMAP
FF
CF
FF
FF
FF
CF
FF
FF
ENDCHAR
STARTCHAR question
ENCODING 63
SWIDTH 500 0
DWIDTH 8 0
BBX 8 8 0 0
BITMAP
FF
C3
C9
F9
E3
FF
E7
FF
ENDCHAR
STARTCHAR A
ENCODING 65
SWIDTH 500 0
DWIDTH 8 0
BBX 8 8 0 0
BITMAP
FF
83
99
99
99
91
D9
FF
ENDCHAR
STARTCHAR B
ENCODING 66
SWIDTH 500 0
DWIDTH 8 0
BBX 8 8 0 0
BITMAP
FF
87
9B
83
99
99
C1
FF
ENDCHAR
STARTCHAR C
ENCODING 67
SWIDTH 500 0
DWIDTH 8 0
BBX 8 8 0 0
BITMAP
FF
C1
9F
9F
9F
CF
E3
FF
ENDCHAR
STARTCHAR D
ENCODING 68
SWIDTH 500 0
DWIDTH 8 0
BBX 8 8 0 0
BITMAP
FF
83
F9
99
99
93
87
FF
ENDCHAR
STARTCHAR E
ENCODING 69
SWIDTH 500 0
DWIDTH 8 0
BBX 8 8 0 0
BITMAP
FF
C1
9F
87
9F
9F
C3
FF
ENDCHAR
STARTCHAR F
ENCODING 70
SWIDTH 500 0
DWIDTH 8 0
BBX 8 8 0 0
BITMAP
FF
81
9F
87
9F
9F
DF
FF
ENDCHAR
STARTCHAR G
ENCODING 71
SWIDTH 500 0
DWIDTH 8 0
BBX 8 8 0 0
BITMAP
FF
C1
9F
9F
91
99
CD
FF
ENDCHAR
STARTCHAR H
ENCODING 72
SWIDTH 500 0
DWIDTH 8 0
BBX 8 8 0 0
BITMAP
FF
9B
99
99
81
99
DD
FF
ENDCHAR
STARTCHAR I
ENCODING 73
SWIDTH 500 0
DWIDTH 8 0
BBX 8 8 0 0
BITMAP
FF
CF
E7
E7
E7
E7
F3
FF
ENDCHAR
STARTCHAR J
ENCODING 74
SWIDTH 500 0
DWIDTH 8 0
BBX 8 8 0 0
BITMAP
FF
81
FF
E7
E7
E7
8F
FF
ENDCHAR
STARTCHAR K
ENCODING 75
SWIDTH 500 0
DWIDTH 8 0
BBX 8 8 0 0
BITMAP
FF
99
93
8F
87
93
D9
FF
ENDCHAR
STARTCHAR L
ENCODING 76
SWIDTH 500 0
DWIDTH 8 0
BBX 8 8 0 0
BITMAP
FF
BF
9F
9F
9F
9F
C3
FF
ENDCHAR
STARTCHAR M
ENCODING 77
SWIDTH 500 0
DWIDTH 8 0
BBX 8 8 0 0
BITMAP
FF
9D
89
81
95
9D
DD
FF
ENDCHAR
STARTCHAR N
ENCODING 78
SWIDTH 500 0
DWIDTH 8 0
BBX 8 8 0 0
BITMAP
FF
9D
8D
85
91
99
DD
FF
ENDCHAR
STARTCHAR O
ENCODING 79
SWIDTH 500 0
DWIDTH 8 0
BBX 8 8 0 0
BITMAP
FF
C3
99
99
99
D9
E3
FF
ENDCHAR
STARTCHAR P
ENCODING 80
SWIDTH 500 0
DWIDTH 8 0
BBX 8 8 0 0
BITMAP
FF
83
99
99
93
9F
DF
FF
ENDCHAR
STARTCHAR Q
ENCODING 81
SWIDTH 500 0
DWIDTH 8 0
BBX 8 8 0 0
BITMAP
FF
83
99
99
95
93
C9
FF
ENDCHAR
STARTCHAR R
ENCODING 82
SWIDTH 500 0
DWIDTH 8 0
BBX 8 8 0 0
BITMAP
FF
83
99
99
83
93
D9
FF
ENDCHAR
STARTCHAR S
ENCODING 83
SWIDTH 500 0
DWIDTH 8 0
BBX 8 8 0 0
BITMAP
FF
E1
CF
C7
E3
F1
83
FF
ENDCHAR
STARTCHAR T
ENCODING 84
SWIDTH 500 0
DWIDTH 8 0
BBX 8 8 0 0
BITMAP
FF
81
E7
E7
E7
E7
F7
FF
ENDCHAR
STARTCHAR U
ENCODING 85
SWIDTH 500 0
DWIDTH 8 0
BBX 8 8 0 0
BITMAP
FF
9B
99
99
99
D9
E1
FF
ENDCHAR
STARTCHAR V
ENCODING 86
SWIDTH 500 0
DWIDTH 8 0
BBX 8 8 0 0
BITMAP
FF
99
93
87
8F
9F
BF
FF
ENDCHAR
STARTCHAR W
ENCODING 87
SWIDTH 500 0
DWIDTH 8 0
BBX 8 8 0 0
BITMAP
FF
BD
9D
9D
95
81
C9
FF
ENDCHAR
STARTCHAR X
ENCODING 88
SWIDTH 500 0
DWIDTH 8 0
BBX 8 8 0 0
BITMAP
FF
9D
8B
C7
E3
D1
B9
FF
ENDCHAR
STARTCHAR Y
ENCODING 89
SWIDTH 500 0
DWIDTH 8 0
BBX 8 8 0 0
BITMAP
FF
99
D1
E3
C7
8F
9F
FF
ENDCHAR
STARTCHAR Z
ENCODING 90
SWIDTH 500 0
DWIDTH 8 0
BBX 8 8 0 0
BITMAP
FF
C1
F1
E3
C7
8F
81
FF
ENDCHAR
STARTCHAR backslash
ENCODING 92
SWIDTH 500 0
DWIDTH 8 0
BBX 8 8 0 0
BITMAP
FF
BF
9F
CF
E7
F3
F9
FF
ENDCHAR
STARTCHAR underscore
ENCODING 95
SWIDTH 500 0
DWIDTH 8 0
BBX 8 8 0 0
BITMAP
FF
FF
FF
FF
FF
FF
81
FF
ENDCHAR
STARTCHAR a
ENCODING 97
SWIDTH 500 0
DWIDTH 8 0
BBX 8 8 0 0
BITMAP
FF
83
99
99
99
91
D9
FF
ENDCHAR
STARTCHAR b
ENCODING 98
SWIDTH 500 0
DWIDTH 8 0
BBX 8 8 0 0
BITMAP
FF
87
9B
83
99
99
C1
FF
ENDCHAR
STARTCHAR c
ENCODING 99
SWIDTH 500 0
DWIDTH 8 0
BBX 8 8 0 0
BITMAP
FF
C1
9F
9F
9F
CF
E3
FF
ENDCHAR
STARTCHAR d
ENCODING 100
SWIDTH 500 0
DWIDTH 8 0
BBX 8 8 0 0
BITMAP
FF
83
F9
99
99
93
87
FF
ENDCHAR
STARTCHAR e
ENCODING 101
SWIDTH 500 0
DWIDTH 8 0
BBX 8 8 0 0
BITMAP
FF
C1
9F
87
9F
9F
C3
FF
ENDCHAR
STARTCHAR f
ENCODING 102
SWIDTH 500 0
DWIDTH 8 0
BBX 8 8 0 0
BITMAP
FF
81
9F
87
9F
9F
DF
FF
ENDCHAR
STARTCHAR g
ENCODING 103
SWIDTH 500 0
DWIDTH 8 0
BBX 8 8 0 0
BITMAP
FF
C1
9F
9F
91
99
CD
FF
ENDCHAR
STARTCHAR h
ENCODING 104
SWIDTH 500 0
DWIDTH 8 0
BBX 8 8 0 0
BITMAP
FF
9B
99
99
81
99
DD
FF
ENDCHAR
STARTCHAR i
ENCODING 105
SWIDTH 500 0
DWIDTH 8 0
BBX 8 8 0 0
BITMAP
FF
CF
E7
E7
E7
E7
F3
FF
ENDCHAR
STARTCHAR j
ENCODING 106
SWIDTH 500 0
DWIDTH 8 0
BBX 8 8 0 0
BITMAP
FF
81
FF
E7
E7
E7
8F
FF
ENDCHAR
STARTCHAR k
ENCODING 107
SWIDTH 500 0
DWIDTH 8 0
BBX 8 8 0 0
BITMAP
FF
99
93
8F
87
93
D9
FF
ENDCHAR
STARTCHAR l
ENCODING 108
SWIDTH 500 0
DWIDTH 8 0
BBX 8 8 0 0
BITMAP
FF
BF
9F
9F
9F
9F
C3
FF
ENDCHAR
STARTCHAR m
ENCODING 109
SWIDTH 500 0
DWIDTH 8 0
BBX 8 8 0 0
BITMAP
FF
9D
89
81
95
9D
DD
FF
ENDCHAR
STARTCHAR n
ENCODING 110
SWIDTH 500 0
DWIDTH 8 0
BBX 8 8 0 0
BITMAP
FF
9D
8D
85
91
99
DD
FF
ENDCHAR
STARTCHAR o
ENCODING 111
SWIDTH 500 0
DWIDTH 8 0
BBX 8 8 0 0
BITMAP
FF
C3
99
99
99
D9
E3
FF
ENDCHAR
STARTCHAR p
ENCODING 112
SWIDTH 500 0
DWIDTH 8 0
BBX 8 8 0 0
BITMAP
FF
83
99
99
93
9F
DF
FF
ENDCHAR
STARTCHAR q
ENCODING 113
SWIDTH 500 0
DWIDTH 8 0
BBX 8 8 0 0
BITMAP
FF
83
99
99
95
93
C9
FF
ENDCHAR
STARTCHAR r
ENCODING 114
SWIDTH 500 0
DWIDTH 8 0
BBX 8 8 0 0
BITMAP
FF
83
99
99
83
93
D9
FF
ENDCHAR
STARTCHAR s
ENCODING 115
SWIDTH 500 0
DWIDTH 8 0
BBX 8 8 0 0
BITMAP
FF
E1
CF
C7
E3
F1
83
FF
ENDCHAR
STARTCHAR t
ENCODING 116
SWIDTH 500 0
DWIDTH 8 0
BBX 8 8 0 0
BITMAP
FF
81
E7
E7
E7
E7
F7
FF
ENDCHAR
STARTCHAR u
ENCODING 117
SWIDTH 500 0
DWIDTH 8 0
BBX 8 8 0 0
BITMAP
FF
9B
99
99
99
D9
E1
FF
ENDCHAR
STARTCHAR v
ENCODING 118
SWIDTH 500 0
DWIDTH 8 0
BBX 8 8 0 0
BITMAP
FF
99
93
87
8F
9F
BF
FF
ENDCHAR
STARTCHAR w
ENCODING 119
SWIDTH 500 0
DWIDTH 8 0
BBX 8 8 0 0
BITMAP
FF
BD
9D
9D
95
81
C9
FF
ENDCHAR
STARTCHAR x
ENCODING 120
SWIDTH 500 0
DWIDTH 8 0
BBX 8 8 0 0
BITMAP
FF
9D
8B
C7
E3
D1
B9
FF
ENDCHAR
STARTCHAR y
ENCODING 121
SWIDTH 500 0
DWIDTH 8 0
BBX 8 8 0 0
BITMAP
FF
99
D1
E3
C7
8F
9F
FF
ENDCHAR
STARTCHAR z
ENCODING 122
SWIDTH 500 0
DWIDTH 8 0
BBX 8 8 0 0
BITMAP
FF
C1
F1
E3
C7
8F
81
FF
ENDCHAR
STARTCHAR .notdef
ENCODING -1
SWIDTH 500 0
DWIDTH 8 0
BBX 1 1 0 0
BITMAP
00
ENDCHAR
ENDFONT
