STARTFONT 2.1
FONT IllusionBook-Regular-12px
SIZE 12 75 75
FONTBOUNDINGBOX 13 15 -1 -3
STARTPROPERTIES 3
PIXEL_SIZE 12
FONT_ASCENT 9
FONT_DESCENT 3
ENDPROPERTIES
CHARS 789
STARTCHAR uni0020
ENCODING 32
SWIDTH 250 0
DWIDTH 3 0
BBX 1 1 0 0
BITMAP
00
ENDCHAR
STARTCHAR uni0021
ENCODING 33
SWIDTH 250 0
DWIDTH 3 0
BBX 1 8 1 0
BITMAP
80
80
80
80
80
80
00
80
ENDCHAR
STARTCHAR uni0022
ENCODING 34
SWIDTH 417 0
DWIDTH 5 0
BBX 4 3 0 6
BITMAP
50
50
A0
ENDCHAR
STARTCHAR uni0023
ENCODING 35
SWIDTH 500 0
DWIDTH 6 0
BBX 5 8 0 0
BITMAP
50
50
F8
50
50
F8
50
50
ENDCHAR
STARTCHAR uni0024
ENCODING 36
SWIDTH 500 0
DWIDTH 6 0
BBX 5 10 0 -1
BITMAP
20
78
A8
A0
60
30
28
A8
F0
20
ENDCHAR
STARTCHAR uni0025
ENCODING 37
SWIDTH 667 0
DWIDTH 8 0
BBX 7 8 0 0
BITMAP
44
A8
A8
50
14
2A
2A
44
ENDCHAR
STARTCHAR uni0026
ENCODING 38
SWIDTH 667 0
DWIDTH 8 0
BBX 7 8 0 0
BITMAP
30
48
48
30
52
8C
88
76
ENDCHAR
STARTCHAR uni0027
ENCODING 39
SWIDTH 250 0
DWIDTH 3 0
BBX 2 3 0 6
BITMAP
40
40
80
ENDCHAR
STARTCHAR uni0028
ENCODING 40
SWIDTH 333 0
DWIDTH 4 0
BBX 3 11 0 -2
BITMAP
20
40
40
80
80
80
80
80
40
40
20
ENDCHAR
STARTCHAR uni0029
ENCODING 41
SWIDTH 333 0
DWIDTH 4 0
BBX 3 11 0 -2
BITMAP
80
40
40
20
20
20
20
20
40
40
80
ENDCHAR
STARTCHAR uni002A
ENCODING 42
SWIDTH 500 0
DWIDTH 6 0
BBX 5 5 0 1
BITMAP
20
A8
70
A8
20
ENDCHAR
STARTCHAR uni002B
ENCODING 43
SWIDTH 500 0
DWIDTH 6 0
BBX 5 5 0 1
BITMAP
20
20
F8
20
20
ENDCHAR
STARTCHAR uni002C
ENCODING 44
SWIDTH 250 0
DWIDTH 3 0
BBX 2 3 0 -1
BITMAP
40
40
80
ENDCHAR
STARTCHAR uni002D
ENCODING 45
SWIDTH 500 0
DWIDTH 6 0
BBX 5 1 0 3
BITMAP
F8
ENDCHAR
STARTCHAR uni002E
ENCODING 46
SWIDTH 167 0
DWIDTH 2 0
BBX 1 1 0 0
BITMAP
80
ENDCHAR
STARTCHAR uni002F
ENCODING 47
SWIDTH 500 0
DWIDTH 6 0
BBX 5 10 0 -1
BITMAP
08
08
10
10
20
20
40
40
80
80
ENDCHAR
STARTCHAR uni0030
ENCODING 48
SWIDTH 500 0
DWIDTH 6 0
BBX 5 8 0 0
BITMAP
70
88
88
88
88
88
88
70
ENDCHAR
STARTCHAR uni0031
ENCODING 49
SWIDTH 333 0
DWIDTH 4 0
BBX 3 8 0 0
BITMAP
40
C0
40
40
40
40
40
E0
ENDCHAR
STARTCHAR uni0032
ENCODING 50
SWIDTH 500 0
DWIDTH 6 0
BBX 5 8 0 0
BITMAP
70
88
08
10
20
40
88
F8
ENDCHAR
STARTCHAR uni0033
ENCODING 51
SWIDTH 500 0
DWIDTH 6 0
BBX 5 8 0 0
BITMAP
F8
88
10
30
08
08
88
70
ENDCHAR
STARTCHAR uni0034
ENCODING 52
SWIDTH 500 0
DWIDTH 6 0
BBX 5 8 0 0
BITMAP
20
20
50
50
90
F8
10
38
ENDCHAR
STARTCHAR uni0035
ENCODING 53
SWIDTH 500 0
DWIDTH 6 0
BBX 5 8 0 0
BITMAP
F8
80
80
F0
08
08
88
70
ENDCHAR
STARTCHAR uni0036
ENCODING 54
SWIDTH 500 0
DWIDTH 6 0
BBX 5 8 0 0
BITMAP
30
40
80
F0
88
88
88
70
ENDCHAR
STARTCHAR uni0037
ENCODING 55
SWIDTH 500 0
DWIDTH 6 0
BBX 5 8 0 0
BITMAP
F8
88
08
10
10
20
20
20
ENDCHAR
STARTCHAR uni0038
ENCODING 56
SWIDTH 500 0
DWIDTH 6 0
BBX 5 8 0 0
BITMAP
70
88
88
70
88
88
88
70
ENDCHAR
STARTCHAR uni0039
ENCODING 57
SWIDTH 500 0
DWIDTH 6 0
BBX 5 8 0 0
BITMAP
70
88
88
88
78
08
10
60
ENDCHAR
STARTCHAR uni003A
ENCODING 58
SWIDTH 167 0
DWIDTH 2 0
BBX 1 4 0 1
BITMAP
80
00
00
80
ENDCHAR
STARTCHAR uni003B
ENCODING 59
SWIDTH 250 0
DWIDTH 3 0
BBX 2 6 0 -1
BITMAP
40
00
00
40
40
80
ENDCHAR
STARTCHAR uni003C
ENCODING 60
SWIDTH 500 0
DWIDTH 6 0
BBX 5 5 0 1
BITMAP
08
30
C0
30
08
ENDCHAR
STARTCHAR uni003D
ENCODING 61
SWIDTH 500 0
DWIDTH 6 0
BBX 5 3 0 2
BITMAP
F8
00
F8
ENDCHAR
STARTCHAR uni003E
ENCODING 62
SWIDTH 500 0
DWIDTH 6 0
BBX 5 5 0 1
BITMAP
80
60
18
60
80
ENDCHAR
STARTCHAR uni003F
ENCODING 63
SWIDTH 417 0
DWIDTH 5 0
BBX 4 9 0 0
BITMAP
C0
20
10
10
10
60
40
00
40
ENDCHAR
STARTCHAR uni0040
ENCODING 64
SWIDTH 667 0
DWIDTH 8 0
BBX 7 8 0 0
BITMAP
38
44
9A
8A
AA
BC
40
3C
ENDCHAR
STARTCHAR uni0041
ENCODING 65
SWIDTH 667 0
DWIDTH 8 0
BBX 7 8 0 0
BITMAP
10
10
28
28
38
44
44
EE
ENDCHAR
STARTCHAR uni0042
ENCODING 66
SWIDTH 500 0
DWIDTH 6 0
BBX 5 8 0 0
BITMAP
F0
48
48
70
48
48
48
F0
ENDCHAR
STARTCHAR uni0043
ENCODING 67
SWIDTH 500 0
DWIDTH 6 0
BBX 5 8 0 0
BITMAP
38
48
80
80
80
80
48
30
ENDCHAR
STARTCHAR uni0044
ENCODING 68
SWIDTH 583 0
DWIDTH 7 0
BBX 6 8 0 0
BITMAP
F0
48
44
44
44
44
48
F0
ENDCHAR
STARTCHAR uni0045
ENCODING 69
SWIDTH 500 0
DWIDTH 6 0
BBX 5 8 0 0
BITMAP
F8
48
40
70
50
40
48
F8
ENDCHAR
STARTCHAR uni0046
ENCODING 70
SWIDTH 500 0
DWIDTH 6 0
BBX 5 8 0 0
BITMAP
F8
48
40
70
50
40
40
E0
ENDCHAR
STARTCHAR uni0047
ENCODING 71
SWIDTH 583 0
DWIDTH 7 0
BBX 6 8 0 0
BITMAP
38
48
80
80
9C
88
48
30
ENDCHAR
STARTCHAR uni0048
ENCODING 72
SWIDTH 667 0
DWIDTH 8 0
BBX 7 8 0 0
BITMAP
EE
44
44
7C
44
44
44
EE
ENDCHAR
STARTCHAR uni0049
ENCODING 73
SWIDTH 333 0
DWIDTH 4 0
BBX 3 8 0 0
BITMAP
E0
40
40
40
40
40
40
E0
ENDCHAR
STARTCHAR uni004A
ENCODING 74
SWIDTH 333 0
DWIDTH 4 0
BBX 4 10 -1 -2
BITMAP
70
20
20
20
20
20
20
20
A0
C0
ENDCHAR
STARTCHAR uni004B
ENCODING 75
SWIDTH 583 0
DWIDTH 7 0
BBX 6 8 0 0
BITMAP
EC
48
50
60
50
50
48
EC
ENDCHAR
STARTCHAR uni004C
ENCODING 76
SWIDTH 500 0
DWIDTH 6 0
BBX 5 8 0 0
BITMAP
E0
40
40
40
40
40
48
F8
ENDCHAR
STARTCHAR uni004D
ENCODING 77
SWIDTH 833 0
DWIDTH 10 0
BBX 9 8 0 0
BITMAP
E380
6300
5500
5500
5500
4900
4900
E380
ENDCHAR
STARTCHAR uni004E
ENCODING 78
SWIDTH 667 0
DWIDTH 8 0
BBX 7 8 0 0
BITMAP
CE
64
64
54
54
4C
4C
E4
ENDCHAR
STARTCHAR uni004F
ENCODING 79
SWIDTH 667 0
DWIDTH 8 0
BBX 7 8 0 0
BITMAP
38
44
82
82
82
82
44
38
ENDCHAR
STARTCHAR uni0050
ENCODING 80
SWIDTH 500 0
DWIDTH 6 0
BBX 5 8 0 0
BITMAP
F0
48
48
48
70
40
40
E0
ENDCHAR
STARTCHAR uni0051
ENCODING 81
SWIDTH 667 0
DWIDTH 8 0
BBX 12 11 0 -3
BITMAP
3800
4400
8200
8200
8200
8200
4400
3800
0400
0310
00E0
ENDCHAR
STARTCHAR uni0052
ENCODING 82
SWIDTH 583 0
DWIDTH 7 0
BBX 6 8 0 0
BITMAP
F0
48
48
48
70
50
48
EC
ENDCHAR
STARTCHAR uni0053
ENCODING 83
SWIDTH 583 0
DWIDTH 7 0
BBX 5 8 0 0
BITMAP
68
98
80
60
10
08
C8
B0
ENDCHAR
STARTCHAR uni0054
ENCODING 84
SWIDTH 500 0
DWIDTH 6 0
BBX 5 8 0 0
BITMAP
F8
A8
20
20
20
20
20
70
ENDCHAR
STARTCHAR uni0055
ENCODING 85
SWIDTH 667 0
DWIDTH 8 0
BBX 7 8 0 0
BITMAP
EE
44
44
44
44
44
44
38
ENDCHAR
STARTCHAR uni0056
ENCODING 86
SWIDTH 667 0
DWIDTH 8 0
BBX 7 8 0 0
BITMAP
EE
44
44
28
28
28
10
10
ENDCHAR
STARTCHAR uni0057
ENCODING 87
SWIDTH 833 0
DWIDTH 10 0
BBX 9 8 0 0
BITMAP
E380
4100
4900
4900
5500
5500
2200
2200
ENDCHAR
STARTCHAR uni0058
ENCODING 88
SWIDTH 667 0
DWIDTH 8 0
BBX 7 8 0 0
BITMAP
EE
44
28
10
10
28
44
EE
ENDCHAR
STARTCHAR uni0059
ENCODING 89
SWIDTH 667 0
DWIDTH 8 0
BBX 7 8 0 0
BITMAP
EE
44
28
28
10
10
10
38
ENDCHAR
STARTCHAR uni005A
ENCODING 90
SWIDTH 583 0
DWIDTH 7 0
BBX 5 8 0 0
BITMAP
F8
88
10
20
20
40
88
F8
ENDCHAR
STARTCHAR uni005B
ENCODING 91
SWIDTH 250 0
DWIDTH 3 0
BBX 2 11 0 -2
BITMAP
C0
80
80
80
80
80
80
80
80
80
C0
ENDCHAR
STARTCHAR uni005C
ENCODING 92
SWIDTH 500 0
DWIDTH 6 0
BBX 5 10 0 -1
BITMAP
80
80
40
40
20
20
10
10
08
08
ENDCHAR
STARTCHAR uni005D
ENCODING 93
SWIDTH 250 0
DWIDTH 3 0
BBX 2 11 0 -2
BITMAP
C0
40
40
40
40
40
40
40
40
40
C0
ENDCHAR
STARTCHAR uni005E
ENCODING 94
SWIDTH 333 0
DWIDTH 4 0
BBX 3 2 0 6
BITMAP
40
A0
ENDCHAR
STARTCHAR uni005F
ENCODING 95
SWIDTH 500 0
DWIDTH 6 0
BBX 5 1 0 0
BITMAP
F8
ENDCHAR
STARTCHAR uni0060
ENCODING 96
SWIDTH 250 0
DWIDTH 3 0
BBX 2 2 0 6
BITMAP
80
40
ENDCHAR
STARTCHAR uni0061
ENCODING 97
SWIDTH 417 0
DWIDTH 5 0
BBX 4 6 0 0
BITMAP
60
90
30
50
90
70
ENDCHAR
STARTCHAR uni0062
ENCODING 98
SWIDTH 500 0
DWIDTH 6 0
BBX 5 9 -1 0
BITMAP
C0
40
40
58
68
48
48
48
70
ENDCHAR
STARTCHAR uni0063
ENCODING 99
SWIDTH 417 0
DWIDTH 5 0
BBX 4 6 0 0
BITMAP
70
90
80
80
90
60
ENDCHAR
STARTCHAR uni0064
ENCODING 100
SWIDTH 500 0
DWIDTH 6 0
BBX 5 9 0 0
BITMAP
30
10
10
70
90
90
90
B0
58
ENDCHAR
STARTCHAR uni0065
ENCODING 101
SWIDTH 417 0
DWIDTH 5 0
BBX 4 6 0 0
BITMAP
70
90
E0
80
90
60
ENDCHAR
STARTCHAR uni0066
ENCODING 102
SWIDTH 417 0
DWIDTH 5 0
BBX 4 9 0 0
BITMAP
30
50
40
F0
40
40
40
40
E0
ENDCHAR
STARTCHAR uni0067
ENCODING 103
SWIDTH 500 0
DWIDTH 6 0
BBX 5 9 0 -3
BITMAP
68
90
90
90
60
80
70
88
F0
ENDCHAR
STARTCHAR uni0068
ENCODING 104
SWIDTH 583 0
DWIDTH 7 0
BBX 6 9 0 0
BITMAP
C0
40
40
58
68
48
48
48
EC
ENDCHAR
STARTCHAR uni0069
ENCODING 105
SWIDTH 333 0
DWIDTH 4 0
BBX 3 8 0 0
BITMAP
40
00
C0
40
40
40
40
E0
ENDCHAR
STARTCHAR uni006A
ENCODING 106
SWIDTH 333 0
DWIDTH 4 0
BBX 3 11 -1 -3
BITMAP
20
00
60
20
20
20
20
20
20
A0
C0
ENDCHAR
STARTCHAR uni006B
ENCODING 107
SWIDTH 500 0
DWIDTH 6 0
BBX 5 9 0 0
BITMAP
C0
40
40
58
50
60
50
50
D8
ENDCHAR
STARTCHAR uni006C
ENCODING 108
SWIDTH 333 0
DWIDTH 4 0
BBX 3 9 0 0
BITMAP
C0
40
40
40
40
40
40
40
E0
ENDCHAR
STARTCHAR uni006D
ENCODING 109
SWIDTH 833 0
DWIDTH 10 0
BBX 9 6 0 0
BITMAP
DB00
6D00
4900
4900
4900
DB80
ENDCHAR
STARTCHAR uni006E
ENCODING 110
SWIDTH 583 0
DWIDTH 7 0
BBX 6 6 0 0
BITMAP
D8
68
48
48
48
DC
ENDCHAR
STARTCHAR uni006F
ENCODING 111
SWIDTH 417 0
DWIDTH 5 0
BBX 4 6 0 0
BITMAP
60
90
90
90
90
60
ENDCHAR
STARTCHAR uni0070
ENCODING 112
SWIDTH 500 0
DWIDTH 6 0
BBX 5 9 0 -3
BITMAP
D8
68
48
48
48
70
40
40
E0
ENDCHAR
STARTCHAR uni0071
ENCODING 113
SWIDTH 500 0
DWIDTH 6 0
BBX 5 9 0 -3
BITMAP
D8
B0
90
90
90
70
10
10
38
ENDCHAR
STARTCHAR uni0072
ENCODING 114
SWIDTH 500 0
DWIDTH 6 0
BBX 5 6 0 0
BITMAP
D8
68
40
40
40
E0
ENDCHAR
STARTCHAR uni0073
ENCODING 115
SWIDTH 417 0
DWIDTH 5 0
BBX 4 6 0 0
BITMAP
70
90
40
20
90
E0
ENDCHAR
STARTCHAR uni0074
ENCODING 116
SWIDTH 417 0
DWIDTH 5 0
BBX 4 7 0 0
BITMAP
40
F0
40
40
40
50
30
ENDCHAR
STARTCHAR uni0075
ENCODING 117
SWIDTH 583 0
DWIDTH 7 0
BBX 6 6 0 0
BITMAP
D8
48
48
48
58
2C
ENDCHAR
STARTCHAR uni0076
ENCODING 118
SWIDTH 500 0
DWIDTH 6 0
BBX 5 6 0 0
BITMAP
D8
48
48
48
50
60
ENDCHAR
STARTCHAR uni0077
ENCODING 119
SWIDTH 667 0
DWIDTH 8 0
BBX 7 6 0 0
BITMAP
EE
44
54
54
28
28
ENDCHAR
STARTCHAR uni0078
ENCODING 120
SWIDTH 500 0
DWIDTH 6 0
BBX 5 6 0 0
BITMAP
D8
50
20
20
50
D8
ENDCHAR
STARTCHAR uni0079
ENCODING 121
SWIDTH 583 0
DWIDTH 7 0
BBX 7 9 -1 -3
BITMAP
6E
24
24
28
18
10
10
A0
C0
ENDCHAR
STARTCHAR uni007A
ENCODING 122
SWIDTH 500 0
DWIDTH 6 0
BBX 4 6 0 0
BITMAP
F0
90
20
40
90
F0
ENDCHAR
STARTCHAR uni007B
ENCODING 123
SWIDTH 333 0
DWIDTH 4 0
BBX 3 11 0 -2
BITMAP
20
40
40
40
40
80
40
40
40
40
20
ENDCHAR
STARTCHAR uni007C
ENCODING 124
SWIDTH 167 0
DWIDTH 2 0
BBX 1 11 0 -2
BITMAP
80
80
80
80
80
80
80
80
80
80
80
ENDCHAR
STARTCHAR uni007D
ENCODING 125
SWIDTH 333 0
DWIDTH 4 0
BBX 3 11 0 -2
BITMAP
80
40
40
40
40
20
40
40
40
40
80
ENDCHAR
STARTCHAR uni007E
ENCODING 126
SWIDTH 583 0
DWIDTH 7 0
BBX 6 2 0 7
BITMAP
64
98
ENDCHAR
STARTCHAR uni00A1
ENCODING 161
SWIDTH 250 0
DWIDTH 3 0
BBX 1 8 1 -2
BITMAP
80
00
80
80
80
80
80
80
ENDCHAR
STARTCHAR uni00A2
ENCODING 162
SWIDTH 500 0
DWIDTH 6 0
BBX 5 8 0 -1
BITMAP
20
78
A8
A0
A0
A8
70
20
ENDCHAR
STARTCHAR uni00A3
ENCODING 163
SWIDTH 583 0
DWIDTH 7 0
BBX 6 8 0 0
BITMAP
1C
24
20
78
20
20
44
FC
ENDCHAR
STARTCHAR uni00A4
ENCODING 164
SWIDTH 583 0
DWIDTH 7 0
BBX 6 6 0 1
BITMAP
B4
48
84
84
48
B4
ENDCHAR
STARTCHAR uni00A5
ENCODING 165
SWIDTH 667 0
DWIDTH 8 0
BBX 7 8 0 0
BITMAP
EE
44
28
28
10
7C
10
38
ENDCHAR
STARTCHAR uni00A6
ENCODING 166
SWIDTH 167 0
DWIDTH 2 0
BBX 1 11 0 -2
BITMAP
80
80
80
80
80
00
80
80
80
80
80
ENDCHAR
STARTCHAR uni00A7
ENCODING 167
SWIDTH 500 0
DWIDTH 6 0
BBX 5 9 0 -1
BITMAP
68
98
80
60
50
30
08
C8
B0
ENDCHAR
STARTCHAR uni00A8
ENCODING 168
SWIDTH 333 0
DWIDTH 4 0
BBX 3 1 0 6
BITMAP
A0
ENDCHAR
STARTCHAR uni00A9
ENCODING 169
SWIDTH 750 0
DWIDTH 9 0
BBX 8 8 0 0
BITMAP
3C
42
99
A1
A5
99
42
3C
ENDCHAR
STARTCHAR uni00AA
ENCODING 170
SWIDTH 500 0
DWIDTH 6 0
BBX 5 5 0 4
BITMAP
60
10
70
90
68
ENDCHAR
STARTCHAR uni00AB
ENCODING 171
SWIDTH 583 0
DWIDTH 7 0
BBX 6 5 0 1
BITMAP
24
48
90
48
24
ENDCHAR
STARTCHAR uni00AC
ENCODING 172
SWIDTH 500 0
DWIDTH 6 0
BBX 5 2 0 2
BITMAP
F8
08
ENDCHAR
STARTCHAR uni00AD
ENCODING 173
SWIDTH 417 0
DWIDTH 5 0
BBX 3 1 1 3
BITMAP
E0
ENDCHAR
STARTCHAR uni00AE
ENCODING 174
SWIDTH 750 0
DWIDTH 9 0
BBX 8 8 0 0
BITMAP
3C
42
B9
A5
B9
A5
42
3C
ENDCHAR
STARTCHAR uni00AF
ENCODING 175
SWIDTH 333 0
DWIDTH 4 0
BBX 3 1 0 6
BITMAP
E0
ENDCHAR
STARTCHAR uni00B0
ENCODING 176
SWIDTH 417 0
DWIDTH 5 0
BBX 3 3 1 6
BITMAP
40
A0
40
ENDCHAR
STARTCHAR uni00B1
ENCODING 177
SWIDTH 500 0
DWIDTH 6 0
BBX 5 6 0 1
BITMAP
20
20
F8
20
20
F8
ENDCHAR
STARTCHAR uni00B2
ENCODING 178
SWIDTH 333 0
DWIDTH 4 0
BBX 3 5 0 4
BITMAP
C0
20
40
80
E0
ENDCHAR
STARTCHAR uni00B3
ENCODING 179
SWIDTH 333 0
DWIDTH 4 0
BBX 3 5 0 4
BITMAP
E0
20
40
20
C0
ENDCHAR
STARTCHAR uni00B4
ENCODING 180
SWIDTH 250 0
DWIDTH 3 0
BBX 2 2 0 6
BITMAP
40
80
ENDCHAR
STARTCHAR uni00B5
ENCODING 181
SWIDTH 583 0
DWIDTH 7 0
BBX 6 9 0 -3
BITMAP
D8
48
48
48
58
6C
40
40
40
ENDCHAR
STARTCHAR uni00B6
ENCODING 182
SWIDTH 583 0
DWIDTH 7 0
BBX 6 8 0 0
BITMAP
7C
E8
E8
68
28
28
28
28
ENDCHAR
STARTCHAR uni00B7
ENCODING 183
SWIDTH 167 0
DWIDTH 2 0
BBX 1 1 0 3
BITMAP
80
ENDCHAR
STARTCHAR uni00B8
ENCODING 184
SWIDTH 250 0
DWIDTH 3 0
BBX 2 2 0 -2
BITMAP
40
80
ENDCHAR
STARTCHAR uni00B9
ENCODING 185
SWIDTH 333 0
DWIDTH 4 0
BBX 3 5 0 4
BITMAP
C0
40
40
40
E0
ENDCHAR
STARTCHAR uni00BA
ENCODING 186
SWIDTH 417 0
DWIDTH 5 0
BBX 3 3 1 6
BITMAP
40
A0
40
ENDCHAR
STARTCHAR uni00BB
ENCODING 187
SWIDTH 583 0
DWIDTH 7 0
BBX 6 5 0 1
BITMAP
90
48
24
48
90
ENDCHAR
STARTCHAR uni00BC
ENCODING 188
SWIDTH 667 0
DWIDTH 8 0
BBX 7 8 0 0
BITMAP
C4
48
48
50
16
2A
2E
42
ENDCHAR
STARTCHAR uni00BD
ENCODING 189
SWIDTH 667 0
DWIDTH 8 0
BBX 7 8 0 0
BITMAP
C4
48
48
50
16
22
24
46
ENDCHAR
STARTCHAR uni00BE
ENCODING 190
SWIDTH 667 0
DWIDTH 8 0
BBX 7 9 0 0
BITMAP
E0
24
48
28
D0
16
2A
2E
42
ENDCHAR
STARTCHAR uni00BF
ENCODING 191
SWIDTH 417 0
DWIDTH 5 0
BBX 4 9 0 -3
BITMAP
20
00
20
60
80
80
80
40
30
ENDCHAR
STARTCHAR uni00C0
ENCODING 192
SWIDTH 667 0
DWIDTH 8 0
BBX 7 11 0 0
BITMAP
20
10
00
10
10
28
28
38
44
44
EE
ENDCHAR
STARTCHAR uni00C1
ENCODING 193
SWIDTH 667 0
DWIDTH 8 0
BBX 7 11 0 0
BITMAP
08
10
00
10
10
28
28
38
44
44
EE
ENDCHAR
STARTCHAR uni00C2
ENCODING 194
SWIDTH 667 0
DWIDTH 8 0
BBX 7 11 0 0
BITMAP
10
28
00
10
10
28
28
38
44
44
EE
ENDCHAR
STARTCHAR uni00C3
ENCODING 195
SWIDTH 667 0
DWIDTH 8 0
BBX 7 11 0 0
BITMAP
34
58
00
10
10
28
28
38
44
44
EE
ENDCHAR
STARTCHAR uni00C4
ENCODING 196
SWIDTH 667 0
DWIDTH 8 0
BBX 7 10 0 0
BITMAP
28
00
10
10
28
28
38
44
44
EE
ENDCHAR
STARTCHAR uni00C5
ENCODING 197
SWIDTH 667 0
DWIDTH 8 0
BBX 7 10 0 0
BITMAP
10
28
10
10
28
28
38
44
44
EE
ENDCHAR
STARTCHAR uni00C6
ENCODING 198
SWIDTH 750 0
DWIDTH 9 0
BBX 8 8 0 0
BITMAP
3F
19
28
2E
3A
48
49
DF
ENDCHAR
STARTCHAR uni00C7
ENCODING 199
SWIDTH 500 0
DWIDTH 6 0
BBX 5 10 0 -2
BITMAP
38
48
80
80
80
80
48
30
10
20
ENDCHAR
STARTCHAR uni00C8
ENCODING 200
SWIDTH 500 0
DWIDTH 6 0
BBX 5 11 0 0
BITMAP
40
20
00
F8
48
40
70
50
40
48
F8
ENDCHAR
STARTCHAR uni00C9
ENCODING 201
SWIDTH 500 0
DWIDTH 6 0
BBX 5 11 0 0
BITMAP
10
20
00
F8
48
40
70
50
40
48
F8
ENDCHAR
STARTCHAR uni00CA
ENCODING 202
SWIDTH 500 0
DWIDTH 6 0
BBX 5 11 0 0
BITMAP
20
50
00
F8
48
40
70
50
40
48
F8
ENDCHAR
STARTCHAR uni00CB
ENCODING 203
SWIDTH 500 0
DWIDTH 6 0
BBX 5 10 0 0
BITMAP
50
00
F8
48
40
70
50
40
48
F8
ENDCHAR
STARTCHAR uni00CC
ENCODING 204
SWIDTH 333 0
DWIDTH 4 0
BBX 3 11 0 0
BITMAP
80
40
00
E0
40
40
40
40
40
40
E0
ENDCHAR
STARTCHAR uni00CD
ENCODING 205
SWIDTH 333 0
DWIDTH 4 0
BBX 3 11 0 0
BITMAP
20
40
00
E0
40
40
40
40
40
40
E0
ENDCHAR
STARTCHAR uni00CE
ENCODING 206
SWIDTH 333 0
DWIDTH 4 0
BBX 3 11 0 0
BITMAP
40
A0
00
E0
40
40
40
40
40
40
E0
ENDCHAR
STARTCHAR uni00CF
ENCODING 207
SWIDTH 333 0
DWIDTH 4 0
BBX 3 10 0 0
BITMAP
A0
00
E0
40
40
40
40
40
40
E0
ENDCHAR
STARTCHAR uni00D0
ENCODING 208
SWIDTH 583 0
DWIDTH 7 0
BBX 6 8 0 0
BITMAP
F0
48
44
E4
44
44
48
F0
ENDCHAR
STARTCHAR uni00D1
ENCODING 209
SWIDTH 667 0
DWIDTH 8 0
BBX 7 11 0 0
BITMAP
34
58
00
CE
64
64
54
54
4C
4C
E4
ENDCHAR
STARTCHAR uni00D2
ENCODING 210
SWIDTH 667 0
DWIDTH 8 0
BBX 7 11 0 0
BITMAP
20
10
00
38
44
82
82
82
82
44
38
ENDCHAR
STARTCHAR uni00D3
ENCODING 211
SWIDTH 667 0
DWIDTH 8 0
BBX 7 11 0 0
BITMAP
08
10
00
38
44
82
82
82
82
44
38
ENDCHAR
STARTCHAR uni00D4
ENCODING 212
SWIDTH 667 0
DWIDTH 8 0
BBX 7 11 0 0
BITMAP
10
28
00
38
44
82
82
82
82
44
38
ENDCHAR
STARTCHAR uni00D5
ENCODING 213
SWIDTH 667 0
DWIDTH 8 0
BBX 7 11 0 0
BITMAP
34
58
00
38
44
82
82
82
82
44
38
ENDCHAR
STARTCHAR uni00D6
ENCODING 214
SWIDTH 667 0
DWIDTH 8 0
BBX 7 10 0 0
BITMAP
28
00
38
44
82
82
82
82
44
38
ENDCHAR
STARTCHAR uni00D7
ENCODING 215
SWIDTH 500 0
DWIDTH 6 0
BBX 5 5 0 1
BITMAP
88
50
20
50
88
ENDCHAR
STARTCHAR uni00D8
ENCODING 216
SWIDTH 667 0
DWIDTH 8 0
BBX 7 8 0 0
BITMAP
3A
44
8A
92
92
A2
44
B8
ENDCHAR
STARTCHAR uni00D9
ENCODING 217
SWIDTH 667 0
DWIDTH 8 0
BBX 7 11 0 0
BITMAP
20
10
00
EE
44
44
44
44
44
44
38
ENDCHAR
STARTCHAR uni00DA
ENCODING 218
SWIDTH 667 0
DWIDTH 8 0
BBX 7 11 0 0
BITMAP
08
10
00
EE
44
44
44
44
44
44
38
ENDCHAR
STARTCHAR uni00DB
ENCODING 219
SWIDTH 667 0
DWIDTH 8 0
BBX 7 11 0 0
BITMAP
10
28
00
EE
44
44
44
44
44
44
38
ENDCHAR
STARTCHAR uni00DC
ENCODING 220
SWIDTH 667 0
DWIDTH 8 0
BBX 7 10 0 0
BITMAP
28
00
EE
44
44
44
44
44
44
38
ENDCHAR
STARTCHAR uni00DD
ENCODING 221
SWIDTH 667 0
DWIDTH 8 0
BBX 7 11 0 0
BITMAP
08
10
00
EE
44
28
28
10
10
10
38
ENDCHAR
STARTCHAR uni00DE
ENCODING 222
SWIDTH 500 0
DWIDTH 6 0
BBX 5 8 0 0
BITMAP
E0
40
70
48
48
70
40
E0
ENDCHAR
STARTCHAR uni00DF
ENCODING 223
SWIDTH 583 0
DWIDTH 7 0
BBX 6 9 0 0
BITMAP
30
48
48
D0
50
48
44
64
D8
ENDCHAR
STARTCHAR uni00E0
ENCODING 224
SWIDTH 417 0
DWIDTH 5 0
BBX 4 9 0 0
BITMAP
40
20
00
60
90
30
50
90
70
ENDCHAR
STARTCHAR uni00E1
ENCODING 225
SWIDTH 417 0
DWIDTH 5 0
BBX 4 9 0 0
BITMAP
20
40
00
60
90
30
50
90
70
ENDCHAR
STARTCHAR uni00E2
ENCODING 226
SWIDTH 417 0
DWIDTH 5 0
BBX 4 9 0 0
BITMAP
20
50
00
60
90
30
50
90
70
ENDCHAR
STARTCHAR uni00E3
ENCODING 227
SWIDTH 417 0
DWIDTH 5 0
BBX 4 9 0 0
BITMAP
50
A0
00
60
90
30
50
90
70
ENDCHAR
STARTCHAR uni00E4
ENCODING 228
SWIDTH 417 0
DWIDTH 5 0
BBX 4 8 0 0
BITMAP
90
00
60
90
30
50
90
70
ENDCHAR
STARTCHAR uni00E5
ENCODING 229
SWIDTH 417 0
DWIDTH 5 0
BBX 4 10 0 0
BITMAP
40
A0
40
00
60
90
30
50
90
70
ENDCHAR
STARTCHAR uni00E6
ENCODING 230
SWIDTH 667 0
DWIDTH 8 0
BBX 7 6 0 0
BITMAP
6C
92
3C
50
92
6C
ENDCHAR
STARTCHAR uni00E7
ENCODING 231
SWIDTH 417 0
DWIDTH 5 0
BBX 4 8 0 -2
BITMAP
70
90
80
80
90
60
20
40
ENDCHAR
STARTCHAR uni00E8
ENCODING 232
SWIDTH 417 0
DWIDTH 5 0
BBX 4 9 0 0
BITMAP
40
20
00
70
90
E0
80
90
60
ENDCHAR
STARTCHAR uni00E9
ENCODING 233
SWIDTH 417 0
DWIDTH 5 0
BBX 4 9 0 0
BITMAP
20
40
00
70
90
E0
80
90
60
ENDCHAR
STARTCHAR uni00EA
ENCODING 234
SWIDTH 417 0
DWIDTH 5 0
BBX 4 9 0 0
BITMAP
20
50
00
70
90
E0
80
90
60
ENDCHAR
STARTCHAR uni00EB
ENCODING 235
SWIDTH 417 0
DWIDTH 5 0
BBX 4 8 0 0
BITMAP
90
00
70
90
E0
80
90
60
ENDCHAR
STARTCHAR uni00EC
ENCODING 236
SWIDTH 333 0
DWIDTH 4 0
BBX 3 9 0 0
BITMAP
80
40
00
C0
40
40
40
40
E0
ENDCHAR
STARTCHAR uni00ED
ENCODING 237
SWIDTH 333 0
DWIDTH 4 0
BBX 3 9 0 0
BITMAP
20
40
00
C0
40
40
40
40
E0
ENDCHAR
STARTCHAR uni00EE
ENCODING 238
SWIDTH 333 0
DWIDTH 4 0
BBX 3 9 0 0
BITMAP
40
A0
00
C0
40
40
40
40
E0
ENDCHAR
STARTCHAR uni00EF
ENCODING 239
SWIDTH 333 0
DWIDTH 4 0
BBX 3 8 0 0
BITMAP
A0
00
C0
40
40
40
40
E0
ENDCHAR
STARTCHAR uni00F0
ENCODING 240
SWIDTH 417 0
DWIDTH 5 0
BBX 4 10 0 0
BITMAP
D0
20
D0
10
70
90
90
90
90
60
ENDCHAR
STARTCHAR uni00F1
ENCODING 241
SWIDTH 583 0
DWIDTH 7 0
BBX 6 9 0 0
BITMAP
28
50
00
D8
68
48
48
48
DC
ENDCHAR
STARTCHAR uni00F2
ENCODING 242
SWIDTH 417 0
DWIDTH 5 0
BBX 4 9 0 0
BITMAP
40
20
00
60
90
90
90
90
60
ENDCHAR
STARTCHAR uni00F3
ENCODING 243
SWIDTH 417 0
DWIDTH 5 0
BBX 4 9 0 0
BITMAP
20
40
00
60
90
90
90
90
60
ENDCHAR
STARTCHAR uni00F4
ENCODING 244
SWIDTH 417 0
DWIDTH 5 0
BBX 4 9 0 0
BITMAP
40
A0
00
60
90
90
90
90
60
ENDCHAR
STARTCHAR uni00F5
ENCODING 245
SWIDTH 417 0
DWIDTH 5 0
BBX 4 9 0 0
BITMAP
50
A0
00
60
90
90
90
90
60
ENDCHAR
STARTCHAR uni00F6
ENCODING 246
SWIDTH 417 0
DWIDTH 5 0
BBX 4 8 0 0
BITMAP
90
00
60
90
90
90
90
60
ENDCHAR
STARTCHAR uni00F7
ENCODING 247
SWIDTH 500 0
DWIDTH 6 0
BBX 5 5 0 1
BITMAP
20
00
F8
00
20
ENDCHAR
STARTCHAR uni00F8
ENCODING 248
SWIDTH 583 0
DWIDTH 7 0
BBX 6 6 0 0
BITMAP
34
48
58
68
48
B0
ENDCHAR
STARTCHAR uni00F9
ENCODING 249
SWIDTH 583 0
DWIDTH 7 0
BBX 6 9 0 0
BITMAP
40
20
00
D8
48
48
48
58
2C
ENDCHAR
STARTCHAR uni00FA
ENCODING 250
SWIDTH 583 0
DWIDTH 7 0
BBX 6 9 0 0
BITMAP
10
20
00
D8
48
48
48
58
2C
ENDCHAR
STARTCHAR uni00FB
ENCODING 251
SWIDTH 583 0
DWIDTH 7 0
BBX 6 9 0 0
BITMAP
20
50
00
D8
48
48
48
58
2C
ENDCHAR
STARTCHAR uni00FC
ENCODING 252
SWIDTH 583 0
DWIDTH 7 0
BBX 6 8 0 0
BITMAP
50
00
D8
48
48
48
58
2C
ENDCHAR
STARTCHAR uni00FD
ENCODING 253
SWIDTH 583 0
DWIDTH 7 0
BBX 7 12 -1 -3
BITMAP
08
10
00
6E
24
24
28
18
10
10
A0
C0
ENDCHAR
STARTCHAR uni00FE
ENCODING 254
SWIDTH 500 0
DWIDTH 6 0
BBX 5 12 0 -3
BITMAP
C0
40
40
58
68
48
48
48
70
40
40
E0
ENDCHAR
STARTCHAR uni00FF
ENCODING 255
SWIDTH 583 0
DWIDTH 7 0
BBX 7 11 -1 -3
BITMAP
24
00
6E
24
24
28
18
10
10
A0
C0
ENDCHAR
STARTCHAR uni0100
ENCODING 256
SWIDTH 667 0
DWIDTH 8 0
BBX 7 10 0 0
BITMAP
38
00
10
10
28
28
38
44
44
EE
ENDCHAR
STARTCHAR uni0101
ENCODING 257
SWIDTH 417 0
DWIDTH 5 0
BBX 4 8 0 0
BITMAP
F0
00
60
90
30
50
90
70
ENDCHAR
STARTCHAR uni0102
ENCODING 258
SWIDTH 667 0
DWIDTH 8 0
BBX 7 11 0 0
BITMAP
44
38
00
10
10
28
28
38
44
44
EE
ENDCHAR
STARTCHAR uni0103
ENCODING 259
SWIDTH 417 0
DWIDTH 5 0
BBX 4 9 0 0
BITMAP
90
60
00
60
90
30
50
90
70
ENDCHAR
STARTCHAR uni0104
ENCODING 260
SWIDTH 667 0
DWIDTH 8 0
BBX 7 10 0 -2
BITMAP
10
10
28
28
38
44
44
EE
04
02
ENDCHAR
STARTCHAR uni0105
ENCODING 261
SWIDTH 417 0
DWIDTH 5 0
BBX 5 8 0 -2
BITMAP
60
90
30
50
90
70
10
08
ENDCHAR
STARTCHAR uni0106
ENCODING 262
SWIDTH 500 0
DWIDTH 6 0
BBX 5 11 0 0
BITMAP
08
10
00
38
48
80
80
80
80
48
30
ENDCHAR
STARTCHAR uni0107
ENCODING 263
SWIDTH 417 0
DWIDTH 5 0
BBX 4 9 0 0
BITMAP
10
20
00
70
90
80
80
90
60
ENDCHAR
STARTCHAR uni0108
ENCODING 264
SWIDTH 500 0
DWIDTH 6 0
BBX 5 11 0 0
BITMAP
10
28
00
38
48
80
80
80
80
48
30
ENDCHAR
STARTCHAR uni0109
ENCODING 265
SWIDTH 417 0
DWIDTH 5 0
BBX 4 9 0 0
BITMAP
20
50
00
70
90
80
80
90
60
ENDCHAR
STARTCHAR uni010A
ENCODING 266
SWIDTH 500 0
DWIDTH 6 0
BBX 5 10 0 0
BITMAP
10
00
38
48
80
80
80
80
48
30
ENDCHAR
STARTCHAR uni010B
ENCODING 267
SWIDTH 417 0
DWIDTH 5 0
BBX 4 8 0 0
BITMAP
20
00
70
90
80
80
90
60
ENDCHAR
STARTCHAR uni010C
ENCODING 268
SWIDTH 500 0
DWIDTH 6 0
BBX 5 11 0 0
BITMAP
28
10
00
38
48
80
80
80
80
48
30
ENDCHAR
STARTCHAR uni010D
ENCODING 269
SWIDTH 417 0
DWIDTH 5 0
BBX 4 9 0 0
BITMAP
50
20
00
70
90
80
80
90
60
ENDCHAR
STARTCHAR uni010E
ENCODING 270
SWIDTH 583 0
DWIDTH 7 0
BBX 6 11 0 0
BITMAP
50
20
00
F0
48
44
44
44
44
48
F0
ENDCHAR
STARTCHAR uni010F
ENCODING 271
SWIDTH 667 0
DWIDTH 8 0
BBX 7 9 0 0
BITMAP
32
12
14
70
90
90
90
B0
58
ENDCHAR
STARTCHAR uni0110
ENCODING 272
SWIDTH 583 0
DWIDTH 7 0
BBX 6 8 0 0
BITMAP
F0
48
44
E4
44
44
48
F0
ENDCHAR
STARTCHAR uni0111
ENCODING 273
SWIDTH 500 0
DWIDTH 6 0
BBX 5 9 0 0
BITMAP
10
78
10
70
90
90
90
B0
58
ENDCHAR
STARTCHAR uni0112
ENCODING 274
SWIDTH 500 0
DWIDTH 6 0
BBX 5 10 0 0
BITMAP
70
00
F8
48
40
70
50
40
48
F8
ENDCHAR
STARTCHAR uni0113
ENCODING 275
SWIDTH 417 0
DWIDTH 5 0
BBX 4 8 0 0
BITMAP
70
00
70
90
E0
80
90
60
ENDCHAR
STARTCHAR uni0114
ENCODING 276
SWIDTH 500 0
DWIDTH 6 0
BBX 5 11 0 0
BITMAP
88
70
00
F8
48
40
70
50
40
48
F8
ENDCHAR
STARTCHAR uni0115
ENCODING 277
SWIDTH 417 0
DWIDTH 5 0
BBX 4 9 0 0
BITMAP
90
60
00
70
90
E0
80
90
60
ENDCHAR
STARTCHAR uni0116
ENCODING 278
SWIDTH 500 0
DWIDTH 6 0
BBX 5 11 0 0
BITMAP
20
00
00
F8
48
40
70
50
40
48
F8
ENDCHAR
STARTCHAR uni0117
ENCODING 279
SWIDTH 417 0
DWIDTH 5 0
BBX 4 9 0 0
BITMAP
20
00
00
70
90
E0
80
90
60
ENDCHAR
STARTCHAR uni0118
ENCODING 280
SWIDTH 500 0
DWIDTH 6 0
BBX 5 10 0 -2
BITMAP
F8
48
40
70
50
40
48
F8
10
08
ENDCHAR
STARTCHAR uni0119
ENCODING 281
SWIDTH 417 0
DWIDTH 5 0
BBX 4 8 0 -2
BITMAP
70
90
E0
80
90
60
20
10
ENDCHAR
STARTCHAR uni011A
ENCODING 282
SWIDTH 500 0
DWIDTH 6 0
BBX 5 11 0 0
BITMAP
50
20
00
F8
48
40
70
50
40
48
F8
ENDCHAR
STARTCHAR uni011B
ENCODING 283
SWIDTH 417 0
DWIDTH 5 0
BBX 4 9 0 0
BITMAP
50
20
00
70
90
E0
80
90
60
ENDCHAR
STARTCHAR uni011C
ENCODING 284
SWIDTH 583 0
DWIDTH 7 0
BBX 6 11 0 0
BITMAP
10
28
00
38
48
80
80
9C
88
48
30
ENDCHAR
STARTCHAR uni011D
ENCODING 285
SWIDTH 500 0
DWIDTH 6 0
BBX 5 12 0 -3
BITMAP
20
50
00
68
90
90
90
60
80
70
88
F0
ENDCHAR
STARTCHAR uni011E
ENCODING 286
SWIDTH 583 0
DWIDTH 7 0
BBX 6 11 0 0
BITMAP
48
30
00
38
48
80
80
9C
88
48
30
ENDCHAR
STARTCHAR uni011F
ENCODING 287
SWIDTH 500 0
DWIDTH 6 0
BBX 5 12 0 -3
BITMAP
90
60
00
68
90
90
90
60
80
70
88
F0
ENDCHAR
STARTCHAR uni0120
ENCODING 288
SWIDTH 583 0
DWIDTH 7 0
BBX 6 10 0 0
BITMAP
10
00
38
48
80
80
9C
88
48
30
ENDCHAR
STARTCHAR uni0121
ENCODING 289
SWIDTH 500 0
DWIDTH 6 0
BBX 5 11 0 -3
BITMAP
20
00
68
90
90
90
60
80
70
88
F0
ENDCHAR
STARTCHAR uni0122
ENCODING 290
SWIDTH 583 0
DWIDTH 7 0
BBX 6 11 0 -3
BITMAP
38
48
80
80
9C
88
48
30
00
10
20
ENDCHAR
STARTCHAR uni0123
ENCODING 291
SWIDTH 500 0
DWIDTH 6 0
BBX 5 12 0 -3
BITMAP
10
20
00
68
90
90
90
60
80
70
88
F0
ENDCHAR
STARTCHAR uni0124
ENCODING 292
SWIDTH 667 0
DWIDTH 8 0
BBX 7 11 0 0
BITMAP
10
28
00
EE
44
44
7C
44
44
44
EE
ENDCHAR
STARTCHAR uni0125
ENCODING 293
SWIDTH 583 0
DWIDTH 7 0
BBX 6 12 0 0
BITMAP
40
A0
00
C0
40
40
58
68
48
48
48
EC
ENDCHAR
STARTCHAR uni0126
ENCODING 294
SWIDTH 667 0
DWIDTH 8 0
BBX 7 8 0 0
BITMAP
EE
44
FE
44
7C
44
44
EE
ENDCHAR
STARTCHAR uni0127
ENCODING 295
SWIDTH 583 0
DWIDTH 7 0
BBX 6 9 0 0
BITMAP
40
F0
40
58
68
48
48
48
EC
ENDCHAR
STARTCHAR uni0128
ENCODING 296
SWIDTH 333 0
DWIDTH 4 0
BBX 5 11 -1 0
BITMAP
68
B0
00
70
20
20
20
20
20
20
70
ENDCHAR
STARTCHAR uni0129
ENCODING 297
SWIDTH 333 0
DWIDTH 4 0
BBX 5 9 -1 0
BITMAP
68
B0
00
20
60
20
20
20
70
ENDCHAR
STARTCHAR uni012A
ENCODING 298
SWIDTH 333 0
DWIDTH 4 0
BBX 3 10 0 0
BITMAP
E0
00
E0
40
40
40
40
40
40
E0
ENDCHAR
STARTCHAR uni012B
ENCODING 299
SWIDTH 333 0
DWIDTH 4 0
BBX 3 8 0 0
BITMAP
E0
00
40
C0
40
40
40
E0
ENDCHAR
STARTCHAR uni012C
ENCODING 300
SWIDTH 333 0
DWIDTH 4 0
BBX 5 11 -1 0
BITMAP
88
70
00
70
20
20
20
20
20
20
70
ENDCHAR
STARTCHAR uni012D
ENCODING 301
SWIDTH 333 0
DWIDTH 4 0
BBX 4 9 0 0
BITMAP
90
60
00
40
C0
40
40
40
E0
ENDCHAR
STARTCHAR uni012E
ENCODING 302
SWIDTH 333 0
DWIDTH 4 0
BBX 3 10 0 -2
BITMAP
E0
40
40
40
40
40
40
E0
40
20
ENDCHAR
STARTCHAR uni012F
ENCODING 303
SWIDTH 333 0
DWIDTH 4 0
BBX 3 10 0 -2
BITMAP
40
00
C0
40
40
40
40
E0
40
20
ENDCHAR
STARTCHAR uni0130
ENCODING 304
SWIDTH 333 0
DWIDTH 4 0
BBX 3 10 0 0
BITMAP
40
00
E0
40
40
40
40
40
40
E0
ENDCHAR
STARTCHAR uni0131
ENCODING 305
SWIDTH 333 0
DWIDTH 4 0
BBX 3 6 0 0
BITMAP
C0
40
40
40
40
E0
ENDCHAR
STARTCHAR uni0132
ENCODING 306
SWIDTH 667 0
DWIDTH 8 0
BBX 7 10 0 -2
BITMAP
EE
44
44
44
44
44
44
E4
14
18
ENDCHAR
STARTCHAR uni0133
ENCODING 307
SWIDTH 500 0
DWIDTH 6 0
BBX 5 11 0 -3
BITMAP
48
00
D8
48
48
48
48
E8
08
28
30
ENDCHAR
STARTCHAR uni0134
ENCODING 308
SWIDTH 333 0
DWIDTH 4 0
BBX 4 13 -1 -2
BITMAP
20
50
00
70
20
20
20
20
20
20
20
A0
C0
ENDCHAR
STARTCHAR uni0135
ENCODING 309
SWIDTH 250 0
DWIDTH 3 0
BBX 4 12 -1 -3
BITMAP
20
50
00
60
20
20
20
20
20
20
A0
C0
ENDCHAR
STARTCHAR uni0136
ENCODING 310
SWIDTH 583 0
DWIDTH 7 0
BBX 6 11 0 -3
BITMAP
EC
48
50
60
50
50
48
EC
00
10
20
ENDCHAR
STARTCHAR uni0137
ENCODING 311
SWIDTH 500 0
DWIDTH 6 0
BBX 5 12 0 -3
BITMAP
C0
40
40
58
50
60
50
50
D8
00
20
40
ENDCHAR
STARTCHAR uni0138
ENCODING 312
SWIDTH 583 0
DWIDTH 7 0
BBX 6 6 0 0
BITMAP
CC
50
60
50
50
CC
ENDCHAR
STARTCHAR uni0139
ENCODING 313
SWIDTH 500 0
DWIDTH 6 0
BBX 5 11 0 0
BITMAP
20
40
00
E0
40
40
40
40
40
48
F8
ENDCHAR
STARTCHAR uni013A
ENCODING 314
SWIDTH 333 0
DWIDTH 4 0
BBX 3 12 0 0
BITMAP
20
40
00
C0
40
40
40
40
40
40
40
E0
ENDCHAR
STARTCHAR uni013B
ENCODING 315
SWIDTH 500 0
DWIDTH 6 0
BBX 5 11 0 -3
BITMAP
E0
40
40
40
40
40
48
F8
00
40
80
ENDCHAR
STARTCHAR uni013C
ENCODING 316
SWIDTH 333 0
DWIDTH 4 0
BBX 3 12 0 -3
BITMAP
C0
40
40
40
40
40
40
40
E0
00
40
80
ENDCHAR
STARTCHAR uni013D
ENCODING 317
SWIDTH 500 0
DWIDTH 6 0
BBX 5 8 0 0
BITMAP
E8
48
50
40
40
40
48
F8
ENDCHAR
STARTCHAR uni013E
ENCODING 318
SWIDTH 500 0
DWIDTH 6 0
BBX 5 9 0 0
BITMAP
C8
48
50
40
40
40
40
40
E0
ENDCHAR
STARTCHAR uni013F
ENCODING 319
SWIDTH 500 0
DWIDTH 6 0
BBX 5 8 0 0
BITMAP
E0
40
40
50
40
40
48
F8
ENDCHAR
STARTCHAR uni0140
ENCODING 320
SWIDTH 333 0
DWIDTH 4 0
BBX 4 9 0 0
BITMAP
C0
40
40
40
50
40
40
40
E0
ENDCHAR
STARTCHAR uni0141
ENCODING 321
SWIDTH 500 0
DWIDTH 6 0
BBX 5 8 0 0
BITMAP
E0
40
40
60
C0
40
48
F8
ENDCHAR
STARTCHAR uni0142
ENCODING 322
SWIDTH 333 0
DWIDTH 4 0
BBX 3 9 0 0
BITMAP
C0
40
40
60
C0
40
40
40
E0
ENDCHAR
STARTCHAR uni0143
ENCODING 323
SWIDTH 667 0
DWIDTH 8 0
BBX 7 11 0 0
BITMAP
08
10
00
CE
64
64
54
54
4C
4C
E4
ENDCHAR
STARTCHAR uni0144
ENCODING 324
SWIDTH 583 0
DWIDTH 7 0
BBX 6 9 0 0
BITMAP
10
20
00
D8
68
48
48
48
DC
ENDCHAR
STARTCHAR uni0145
ENCODING 325
SWIDTH 667 0
DWIDTH 8 0
BBX 7 11 0 -3
BITMAP
CE
64
64
54
54
4C
4C
E4
00
10
20
ENDCHAR
STARTCHAR uni0146
ENCODING 326
SWIDTH 583 0
DWIDTH 7 0
BBX 6 9 0 -3
BITMAP
D8
68
48
48
48
DC
00
20
40
ENDCHAR
STARTCHAR uni0147
ENCODING 327
SWIDTH 667 0
DWIDTH 8 0
BBX 7 11 0 0
BITMAP
28
10
00
CE
64
64
54
54
4C
4C
E4
ENDCHAR
STARTCHAR uni0148
ENCODING 328
SWIDTH 583 0
DWIDTH 7 0
BBX 6 9 0 0
BITMAP
50
20
00
D8
68
48
48
48
DC
ENDCHAR
STARTCHAR uni0149
ENCODING 329
SWIDTH 833 0
DWIDTH 10 0
BBX 9 8 0 0
BITMAP
4000
4000
9B00
0D00
0900
0900
0900
1B80
ENDCHAR
STARTCHAR uni014A
ENCODING 330
SWIDTH 667 0
DWIDTH 8 0
BBX 7 10 0 -2
BITMAP
CE
64
64
54
54
4C
4C
C4
14
18
ENDCHAR
STARTCHAR uni014B
ENCODING 331
SWIDTH 500 0
DWIDTH 6 0
BBX 5 9 0 -3
BITMAP
D8
68
48
48
48
E8
08
28
30
ENDCHAR
STARTCHAR uni014C
ENCODING 332
SWIDTH 667 0
DWIDTH 8 0
BBX 7 10 0 0
BITMAP
38
00
38
44
82
82
82
82
44
38
ENDCHAR
STARTCHAR uni014D
ENCODING 333
SWIDTH 417 0
DWIDTH 5 0
BBX 4 8 0 0
BITMAP
F0
00
60
90
90
90
90
60
ENDCHAR
STARTCHAR uni014E
ENCODING 334
SWIDTH 667 0
DWIDTH 8 0
BBX 7 11 0 0
BITMAP
44
38
00
38
44
82
82
82
82
44
38
ENDCHAR
STARTCHAR uni014F
ENCODING 335
SWIDTH 417 0
DWIDTH 5 0
BBX 4 9 0 0
BITMAP
90
60
00
60
90
90
90
90
60
ENDCHAR
STARTCHAR uni0150
ENCODING 336
SWIDTH 667 0
DWIDTH 8 0
BBX 7 11 0 0
BITMAP
24
48
00
38
44
82
82
82
82
44
38
ENDCHAR
STARTCHAR uni0151
ENCODING 337
SWIDTH 417 0
DWIDTH 5 0
BBX 5 9 0 0
BITMAP
48
90
00
60
90
90
90
90
60
ENDCHAR
STARTCHAR uni0152
ENCODING 338
SWIDTH 833 0
DWIDTH 10 0
BBX 9 8 0 0
BITMAP
3780
4C80
8400
8700
8500
8400
4C80
3780
ENDCHAR
STARTCHAR uni0153
ENCODING 339
SWIDTH 667 0
DWIDTH 8 0
BBX 7 6 0 0
BITMAP
6C
92
9C
90
92
6C
ENDCHAR
STARTCHAR uni0154
ENCODING 340
SWIDTH 583 0
DWIDTH 7 0
BBX 6 11 0 0
BITMAP
10
20
00
F0
48
48
48
70
50
48
EC
ENDCHAR
STARTCHAR uni0155
ENCODING 341
SWIDTH 500 0
DWIDTH 6 0
BBX 5 9 0 0
BITMAP
10
20
00
D8
68
40
40
40
E0
ENDCHAR
STARTCHAR uni0156
ENCODING 342
SWIDTH 583 0
DWIDTH 7 0
BBX 6 11 0 -3
BITMAP
F0
48
48
48
70
50
48
EC
00
10
20
ENDCHAR
STARTCHAR uni0157
ENCODING 343
SWIDTH 500 0
DWIDTH 6 0
BBX 5 9 0 -3
BITMAP
D8
68
40
40
40
E0
00
40
80
ENDCHAR
STARTCHAR uni0158
ENCODING 344
SWIDTH 583 0
DWIDTH 7 0
BBX 6 11 0 0
BITMAP
50
20
00
F0
48
48
48
70
50
48
EC
ENDCHAR
STARTCHAR uni0159
ENCODING 345
SWIDTH 500 0
DWIDTH 6 0
BBX 5 9 0 0
BITMAP
50
20
00
D8
68
40
40
40
E0
ENDCHAR
STARTCHAR uni015A
ENCODING 346
SWIDTH 500 0
DWIDTH 6 0
BBX 5 11 0 0
BITMAP
10
20
00
68
98
80
60
10
08
C8
B0
ENDCHAR
STARTCHAR uni015B
ENCODING 347
SWIDTH 417 0
DWIDTH 5 0
BBX 4 9 0 0
BITMAP
10
20
00
70
90
40
20
90
E0
ENDCHAR
STARTCHAR uni015C
ENCODING 348
SWIDTH 583 0
DWIDTH 7 0
BBX 5 11 0 0
BITMAP
20
50
00
68
98
80
60
10
08
C8
B0
ENDCHAR
STARTCHAR uni015D
ENCODING 349
SWIDTH 500 0
DWIDTH 6 0
BBX 4 9 1 0
BITMAP
20
50
00
70
90
40
20
90
E0
ENDCHAR
STARTCHAR uni015E
ENCODING 350
SWIDTH 500 0
DWIDTH 6 0
BBX 5 10 0 -2
BITMAP
68
98
80
60
10
08
C8
B0
20
40
ENDCHAR
STARTCHAR uni015F
ENCODING 351
SWIDTH 417 0
DWIDTH 5 0
BBX 4 8 0 -2
BITMAP
70
90
40
20
90
E0
20
40
ENDCHAR
STARTCHAR uni0160
ENCODING 352
SWIDTH 500 0
DWIDTH 6 0
BBX 5 11 0 0
BITMAP
50
20
00
68
98
80
60
10
08
C8
B0
ENDCHAR
STARTCHAR uni0161
ENCODING 353
SWIDTH 417 0
DWIDTH 5 0
BBX 4 9 0 0
BITMAP
50
20
00
70
90
40
20
90
E0
ENDCHAR
STARTCHAR uni0162
ENCODING 354
SWIDTH 500 0
DWIDTH 6 0
BBX 5 10 0 -2
BITMAP
F8
A8
20
20
20
20
20
70
20
40
ENDCHAR
STARTCHAR uni0163
ENCODING 355
SWIDTH 417 0
DWIDTH 5 0
BBX 4 9 0 -2
BITMAP
40
F0
40
40
40
50
30
20
40
ENDCHAR
STARTCHAR uni0164
ENCODING 356
SWIDTH 500 0
DWIDTH 6 0
BBX 5 11 0 0
BITMAP
50
20
00
F8
A8
20
20
20
20
20
70
ENDCHAR
STARTCHAR uni0165
ENCODING 357
SWIDTH 417 0
DWIDTH 5 0
BBX 6 9 0 0
BITMAP
04
04
48
F0
40
40
40
50
30
ENDCHAR
STARTCHAR uni0166
ENCODING 358
SWIDTH 500 0
DWIDTH 6 0
BBX 5 8 0 0
BITMAP
F8
A8
20
20
70
20
20
70
ENDCHAR
STARTCHAR uni0167
ENCODING 359
SWIDTH 417 0
DWIDTH 5 0
BBX 4 7 0 0
BITMAP
40
F0
40
F0
40
50
30
ENDCHAR
STARTCHAR uni0168
ENCODING 360
SWIDTH 667 0
DWIDTH 8 0
BBX 7 11 0 0
BITMAP
34
58
00
EE
44
44
44
44
44
44
38
ENDCHAR
STARTCHAR uni0169
ENCODING 361
SWIDTH 583 0
DWIDTH 7 0
BBX 6 9 0 0
BITMAP
68
B0
00
D8
48
48
48
58
2C
ENDCHAR
STARTCHAR uni016A
ENCODING 362
SWIDTH 667 0
DWIDTH 8 0
BBX 7 10 0 0
BITMAP
38
00
EE
44
44
44
44
44
44
38
ENDCHAR
STARTCHAR uni016B
ENCODING 363
SWIDTH 583 0
DWIDTH 7 0
BBX 6 8 0 0
BITMAP
70
00
D8
48
48
48
58
2C
ENDCHAR
STARTCHAR uni016C
ENCODING 364
SWIDTH 667 0
DWIDTH 8 0
BBX 7 11 0 0
BITMAP
44
38
00
EE
44
44
44
44
44
44
38
ENDCHAR
STARTCHAR uni016D
ENCODING 365
SWIDTH 583 0
DWIDTH 7 0
BBX 6 9 0 0
BITMAP
48
30
00
D8
48
48
48
58
2C
ENDCHAR
STARTCHAR uni016E
ENCODING 366
SWIDTH 667 0
DWIDTH 8 0
BBX 7 12 0 0
BITMAP
10
28
10
00
EE
44
44
44
44
44
44
38
ENDCHAR
STARTCHAR uni016F
ENCODING 367
SWIDTH 583 0
DWIDTH 7 0
BBX 6 10 0 0
BITMAP
20
50
20
00
D8
48
48
48
58
2C
ENDCHAR
STARTCHAR uni0170
ENCODING 368
SWIDTH 667 0
DWIDTH 8 0
BBX 7 11 0 0
BITMAP
24
48
00
EE
44
44
44
44
44
44
38
ENDCHAR
STARTCHAR uni0171
ENCODING 369
SWIDTH 583 0
DWIDTH 7 0
BBX 6 9 0 0
BITMAP
24
48
00
D8
48
48
48
58
2C
ENDCHAR
STARTCHAR uni0172
ENCODING 370
SWIDTH 667 0
DWIDTH 8 0
BBX 7 10 0 -2
BITMAP
EE
44
44
44
44
44
44
38
10
08
ENDCHAR
STARTCHAR uni0173
ENCODING 371
SWIDTH 583 0
DWIDTH 7 0
BBX 6 8 0 -2
BITMAP
D8
48
48
48
58
2C
08
04
ENDCHAR
STARTCHAR uni0174
ENCODING 372
SWIDTH 833 0
DWIDTH 10 0
BBX 9 11 0 0
BITMAP
0800
1400
0000
E380
4100
4900
4900
5500
5500
2200
2200
ENDCHAR
STARTCHAR uni0175
ENCODING 373
SWIDTH 667 0
DWIDTH 8 0
BBX 7 9 0 0
BITMAP
10
28
00
EE
44
54
54
28
28
ENDCHAR
STARTCHAR uni0176
ENCODING 374
SWIDTH 667 0
DWIDTH 8 0
BBX 7 11 0 0
BITMAP
10
28
00
EE
44
28
28
10
10
10
38
ENDCHAR
STARTCHAR uni0177
ENCODING 375
SWIDTH 583 0
DWIDTH 7 0
BBX 7 12 -1 -3
BITMAP
10
28
00
6E
24
24
28
18
10
10
A0
C0
ENDCHAR
STARTCHAR uni0178
ENCODING 376
SWIDTH 667 0
DWIDTH 8 0
BBX 7 10 0 0
BITMAP
28
00
EE
44
28
28
10
10
10
38
ENDCHAR
STARTCHAR uni0179
ENCODING 377
SWIDTH 583 0
DWIDTH 7 0
BBX 5 11 0 0
BITMAP
10
20
00
F8
88
10
20
20
40
88
F8
ENDCHAR
STARTCHAR uni017A
ENCODING 378
SWIDTH 500 0
DWIDTH 6 0
BBX 4 9 0 0
BITMAP
20
40
00
F0
90
20
40
90
F0
ENDCHAR
STARTCHAR uni017B
ENCODING 379
SWIDTH 583 0
DWIDTH 7 0
BBX 5 10 0 0
BITMAP
20
00
F8
88
10
20
20
40
88
F8
ENDCHAR
STARTCHAR uni017C
ENCODING 380
SWIDTH 500 0
DWIDTH 6 0
BBX 4 8 0 0
BITMAP
20
00
F0
90
20
40
90
F0
ENDCHAR
STARTCHAR uni017D
ENCODING 381
SWIDTH 583 0
DWIDTH 7 0
BBX 5 11 0 0
BITMAP
50
20
00
F8
88
10
20
20
40
88
F8
ENDCHAR
STARTCHAR uni017E
ENCODING 382
SWIDTH 500 0
DWIDTH 6 0
BBX 4 9 0 0
BITMAP
50
20
00
F0
90
20
40
90
F0
ENDCHAR
STARTCHAR uni017F
ENCODING 383
SWIDTH 333 0
DWIDTH 4 0
BBX 4 9 0 0
BITMAP
30
50
40
C0
40
40
40
40
E0
ENDCHAR
STARTCHAR uni0192
ENCODING 402
SWIDTH 667 0
DWIDTH 8 0
BBX 7 12 0 -3
BITMAP
06
0A
08
08
3C
10
10
10
10
20
A0
C0
ENDCHAR
STARTCHAR uni0218
ENCODING 536
SWIDTH 583 0
DWIDTH 7 0
BBX 5 11 0 -3
BITMAP
68
98
80
60
10
08
C8
B0
00
20
40
ENDCHAR
STARTCHAR uni0219
ENCODING 537
SWIDTH 417 0
DWIDTH 5 0
BBX 4 9 0 -3
BITMAP
70
90
40
20
90
E0
00
20
40
ENDCHAR
STARTCHAR uni021A
ENCODING 538
SWIDTH 500 0
DWIDTH 6 0
BBX 5 11 0 -3
BITMAP
F8
A8
20
20
20
20
20
70
00
20
40
ENDCHAR
STARTCHAR uni021B
ENCODING 539
SWIDTH 417 0
DWIDTH 5 0
BBX 4 10 0 -3
BITMAP
40
F0
40
40
40
50
30
00
20
40
ENDCHAR
STARTCHAR uni02C6
ENCODING 710
SWIDTH 333 0
DWIDTH 4 0
BBX 3 2 0 6
BITMAP
40
A0
ENDCHAR
STARTCHAR uni02C7
ENCODING 711
SWIDTH 333 0
DWIDTH 4 0
BBX 3 2 0 6
BITMAP
A0
40
ENDCHAR
STARTCHAR uni02D8
ENCODING 728
SWIDTH 417 0
DWIDTH 5 0
BBX 4 2 0 6
BITMAP
90
60
ENDCHAR
STARTCHAR uni02D9
ENCODING 729
SWIDTH 167 0
DWIDTH 2 0
BBX 1 1 0 6
BITMAP
80
ENDCHAR
STARTCHAR uni02DA
ENCODING 730
SWIDTH 333 0
DWIDTH 4 0
BBX 3 3 0 6
BITMAP
40
A0
40
ENDCHAR
STARTCHAR uni02DB
ENCODING 731
SWIDTH 250 0
DWIDTH 3 0
BBX 2 2 0 -2
BITMAP
80
40
ENDCHAR
STARTCHAR uni02DC
ENCODING 732
SWIDTH 500 0
DWIDTH 6 0
BBX 5 3 0 6
BITMAP
40
A8
10
ENDCHAR
STARTCHAR uni02DD
ENCODING 733
SWIDTH 500 0
DWIDTH 6 0
BBX 5 2 0 6
BITMAP
48
90
ENDCHAR
STARTCHAR uni037A
ENCODING 890
SWIDTH 333 0
DWIDTH 4 0
BBX 2 3 1 -3
BITMAP
80
80
40
ENDCHAR
STARTCHAR uni0384
ENCODING 900
SWIDTH 250 0
DWIDTH 3 0
BBX 2 3 0 6
BITMAP
40
40
80
ENDCHAR
STARTCHAR uni0385
ENCODING 901
SWIDTH 333 0
DWIDTH 4 0
BBX 3 3 0 6
BITMAP
40
40
A0
ENDCHAR
STARTCHAR uni0386
ENCODING 902
SWIDTH 667 0
DWIDTH 8 0
BBX 7 9 0 0
BITMAP
40
50
90
28
28
38
44
44
EE
ENDCHAR
STARTCHAR uni0388
ENCODING 904
SWIDTH 833 0
DWIDTH 10 0
BBX 8 9 0 0
BITMAP
40
5F
89
08
0E
0A
08
09
1F
ENDCHAR
STARTCHAR uni0389
ENCODING 905
SWIDTH 917 0
DWIDTH 11 0
BBX 10 9 0 0
BITMAP
4000
5DC0
8880
0880
0F80
0880
0880
0880
1DC0
ENDCHAR
STARTCHAR uni038A
ENCODING 906
SWIDTH 583 0
DWIDTH 7 0
BBX 6 9 0 0
BITMAP
40
5C
88
08
08
08
08
08
1C
ENDCHAR
STARTCHAR uni038C
ENCODING 908
SWIDTH 833 0
DWIDTH 10 0
BBX 9 9 0 0
BITMAP
4000
4E00
9100
2080
2080
2080
2080
1100
0E00
ENDCHAR
STARTCHAR uni038E
ENCODING 910
SWIDTH 917 0
DWIDTH 11 0
BBX 10 9 0 0
BITMAP
4000
5DC0
8880
0500
0500
0200
0200
0200
0700
ENDCHAR
STARTCHAR uni038F
ENCODING 911
SWIDTH 833 0
DWIDTH 10 0
BBX 9 9 0 0
BITMAP
4000
4E00
9100
2080
2080
2080
2080
1100
3B80
ENDCHAR
STARTCHAR uni0390
ENCODING 912
SWIDTH 417 0
DWIDTH 5 0
BBX 4 10 0 0
BITMAP
40
40
A0
00
40
40
40
40
50
30
ENDCHAR
STARTCHAR uni0391
ENCODING 913
SWIDTH 667 0
DWIDTH 8 0
BBX 7 8 0 0
BITMAP
10
10
28
28
38
44
44
EE
ENDCHAR
STARTCHAR uni0392
ENCODING 914
SWIDTH 500 0
DWIDTH 6 0
BBX 5 8 0 0
BITMAP
F0
48
48
70
48
48
48
F0
ENDCHAR
STARTCHAR uni0393
ENCODING 915
SWIDTH 500 0
DWIDTH 6 0
BBX 5 8 0 0
BITMAP
F8
48
40
40
40
40
40
E0
ENDCHAR
STARTCHAR uni0394
ENCODING 916
SWIDTH 500 0
DWIDTH 6 0
BBX 5 8 0 0
BITMAP
20
20
50
50
50
88
88
F8
ENDCHAR
STARTCHAR uni0395
ENCODING 917
SWIDTH 583 0
DWIDTH 7 0
BBX 5 8 0 0
BITMAP
F8
48
40
70
50
40
48
F8
ENDCHAR
STARTCHAR uni0396
ENCODING 918
SWIDTH 583 0
DWIDTH 7 0
BBX 5 8 0 0
BITMAP
F8
88
10
20
20
40
88
F8
ENDCHAR
STARTCHAR uni0397
ENCODING 919
SWIDTH 667 0
DWIDTH 8 0
BBX 7 8 0 0
BITMAP
EE
44
44
7C
44
44
44
EE
ENDCHAR
STARTCHAR uni0398
ENCODING 920
SWIDTH 667 0
DWIDTH 8 0
BBX 7 8 0 0
BITMAP
38
44
82
BA
82
82
44
38
ENDCHAR
STARTCHAR uni0399
ENCODING 921
SWIDTH 333 0
DWIDTH 4 0
BBX 3 8 0 0
BITMAP
E0
40
40
40
40
40
40
E0
ENDCHAR
STARTCHAR uni039A
ENCODING 922
SWIDTH 583 0
DWIDTH 7 0
BBX 6 8 0 0
BITMAP
EC
48
50
60
50
50
48
EC
ENDCHAR
STARTCHAR uni039B
ENCODING 923
SWIDTH 667 0
DWIDTH 8 0
BBX 7 8 0 0
BITMAP
10
10
28
28
28
44
44
EE
ENDCHAR
STARTCHAR uni039C
ENCODING 924
SWIDTH 833 0
DWIDTH 10 0
BBX 9 8 0 0
BITMAP
E380
6300
5500
5500
5500
4900
4900
E380
ENDCHAR
STARTCHAR uni039D
ENCODING 925
SWIDTH 667 0
DWIDTH 8 0
BBX 7 8 0 0
BITMAP
CE
64
64
54
54
4C
4C
E4
ENDCHAR
STARTCHAR uni039E
ENCODING 926
SWIDTH 667 0
DWIDTH 8 0
BBX 6 8 0 0
BITMAP
FC
84
00
78
00
00
84
FC
ENDCHAR
STARTCHAR uni039F
ENCODING 927
SWIDTH 667 0
DWIDTH 8 0
BBX 7 8 0 0
BITMAP
38
44
82
82
82
82
44
38
ENDCHAR
STARTCHAR uni03A0
ENCODING 928
SWIDTH 667 0
DWIDTH 8 0
BBX 7 8 0 0
BITMAP
FE
44
44
44
44
44
44
EE
ENDCHAR
STARTCHAR uni03A1
ENCODING 929
SWIDTH 500 0
DWIDTH 6 0
BBX 5 8 0 0
BITMAP
F0
48
48
48
70
40
40
E0
ENDCHAR
STARTCHAR uni03A3
ENCODING 931
SWIDTH 583 0
DWIDTH 7 0
BBX 5 8 0 0
BITMAP
F8
88
40
30
20
40
88
F8
ENDCHAR
STARTCHAR uni03A4
ENCODING 932
SWIDTH 500 0
DWIDTH 6 0
BBX 5 8 0 0
BITMAP
F8
A8
20
20
20
20
20
70
ENDCHAR
STARTCHAR uni03A5
ENCODING 933
SWIDTH 667 0
DWIDTH 8 0
BBX 7 8 0 0
BITMAP
EE
44
28
28
10
10
10
38
ENDCHAR
STARTCHAR uni03A6
ENCODING 934
SWIDTH 667 0
DWIDTH 8 0
BBX 7 8 0 0
BITMAP
10
7C
92
92
92
92
7C
10
ENDCHAR
STARTCHAR uni03A7
ENCODING 935
SWIDTH 667 0
DWIDTH 8 0
BBX 7 8 0 0
BITMAP
EE
44
28
10
10
28
44
EE
ENDCHAR
STARTCHAR uni03A8
ENCODING 936
SWIDTH 667 0
DWIDTH 8 0
BBX 7 8 0 0
BITMAP
92
54
54
54
38
10
10
38
ENDCHAR
STARTCHAR uni03A9
ENCODING 937
SWIDTH 667 0
DWIDTH 8 0
BBX 7 8 0 0
BITMAP
38
44
82
82
82
82
44
EE
ENDCHAR
STARTCHAR uni03AA
ENCODING 938
SWIDTH 333 0
DWIDTH 4 0
BBX 3 10 0 0
BITMAP
A0
00
E0
40
40
40
40
40
40
E0
ENDCHAR
STARTCHAR uni03AB
ENCODING 939
SWIDTH 667 0
DWIDTH 8 0
BBX 7 10 0 0
BITMAP
28
00
EE
44
28
28
10
10
10
38
ENDCHAR
STARTCHAR uni03AC
ENCODING 940
SWIDTH 500 0
DWIDTH 6 0
BBX 5 10 0 0
BITMAP
20
20
40
00
68
90
90
90
B0
58
ENDCHAR
STARTCHAR uni03AD
ENCODING 941
SWIDTH 417 0
DWIDTH 5 0
BBX 4 10 0 0
BITMAP
20
20
40
00
70
90
40
80
90
60
ENDCHAR
STARTCHAR uni03AE
ENCODING 942
SWIDTH 500 0
DWIDTH 6 0
BBX 5 13 0 -3
BITMAP
10
10
20
00
D8
68
48
48
48
48
08
08
08
ENDCHAR
STARTCHAR uni03AF
ENCODING 943
SWIDTH 333 0
DWIDTH 4 0
BBX 3 10 0 0
BITMAP
40
40
80
00
80
80
80
80
A0
60
ENDCHAR
STARTCHAR uni03B0
ENCODING 944
SWIDTH 500 0
DWIDTH 6 0
BBX 5 10 0 0
BITMAP
20
20
50
00
D0
48
48
48
48
30
ENDCHAR
STARTCHAR uni03B1
ENCODING 945
SWIDTH 500 0
DWIDTH 6 0
BBX 5 6 0 0
BITMAP
68
90
90
90
B0
58
ENDCHAR
STARTCHAR uni03B2
ENCODING 946
SWIDTH 500 0
DWIDTH 6 0
BBX 5 12 0 -3
BITMAP
60
90
90
A0
A0
90
88
C8
B0
80
80
80
ENDCHAR
STARTCHAR uni03B3
ENCODING 947
SWIDTH 583 0
DWIDTH 7 0
BBX 6 9 0 -3
BITMAP
6C
A4
28
28
10
10
28
28
10
ENDCHAR
STARTCHAR uni03B4
ENCODING 948
SWIDTH 417 0
DWIDTH 5 0
BBX 4 9 0 0
BITMAP
70
90
40
20
50
90
90
90
60
ENDCHAR
STARTCHAR uni03B5
ENCODING 949
SWIDTH 417 0
DWIDTH 5 0
BBX 4 6 0 0
BITMAP
70
90
40
80
90
60
ENDCHAR
STARTCHAR uni03B6
ENCODING 950
SWIDTH 417 0
DWIDTH 5 0
BBX 4 11 0 -2
BITMAP
80
70
20
40
80
80
80
60
10
10
20
ENDCHAR
STARTCHAR uni03B7
ENCODING 951
SWIDTH 500 0
DWIDTH 6 0
BBX 5 9 0 -3
BITMAP
D8
68
48
48
48
48
08
08
08
ENDCHAR
STARTCHAR uni03B8
ENCODING 952
SWIDTH 417 0
DWIDTH 5 0
BBX 4 9 0 0
BITMAP
60
90
90
90
F0
90
90
90
60
ENDCHAR
STARTCHAR uni03B9
ENCODING 953
SWIDTH 333 0
DWIDTH 4 0
BBX 3 6 0 0
BITMAP
80
80
80
80
A0
60
ENDCHAR
STARTCHAR uni03BA
ENCODING 954
SWIDTH 583 0
DWIDTH 7 0
BBX 6 6 0 0
BITMAP
CC
54
60
60
50
4C
ENDCHAR
STARTCHAR uni03BB
ENCODING 955
SWIDTH 500 0
DWIDTH 6 0
BBX 5 9 0 0
BITMAP
C0
A0
20
20
50
50
50
90
88
ENDCHAR
STARTCHAR uni03BC
ENCODING 956
SWIDTH 583 0
DWIDTH 7 0
BBX 6 9 0 -3
BITMAP
D8
48
48
48
58
6C
40
40
40
ENDCHAR
STARTCHAR uni03BD
ENCODING 957
SWIDTH 583 0
DWIDTH 7 0
BBX 6 6 0 0
BITMAP
6C
A4
24
24
28
30
ENDCHAR
STARTCHAR uni03BE
ENCODING 958
SWIDTH 417 0
DWIDTH 5 0
BBX 4 11 0 -2
BITMAP
80
70
20
40
60
80
80
60
10
10
20
ENDCHAR
STARTCHAR uni03BF
ENCODING 959
SWIDTH 417 0
DWIDTH 5 0
BBX 4 6 0 0
BITMAP
60
90
90
90
90
60
ENDCHAR
STARTCHAR uni03C0
ENCODING 960
SWIDTH 583 0
DWIDTH 7 0
BBX 6 6 0 0
BITMAP
7C
A8
28
28
28
4C
ENDCHAR
STARTCHAR uni03C1
ENCODING 961
SWIDTH 417 0
DWIDTH 5 0
BBX 4 9 0 -3
BITMAP
60
90
90
90
90
E0
80
80
80
ENDCHAR
STARTCHAR uni03C2
ENCODING 962
SWIDTH 417 0
DWIDTH 5 0
BBX 4 8 0 -2
BITMAP
30
40
80
80
80
70
10
20
ENDCHAR
STARTCHAR uni03C3
ENCODING 963
SWIDTH 500 0
DWIDTH 6 0
BBX 5 6 0 0
BITMAP
78
90
90
90
90
60
ENDCHAR
STARTCHAR uni03C4
ENCODING 964
SWIDTH 583 0
DWIDTH 7 0
BBX 6 6 0 0
BITMAP
7C
90
20
20
28
10
ENDCHAR
STARTCHAR uni03C5
ENCODING 965
SWIDTH 500 0
DWIDTH 6 0
BBX 5 6 0 0
BITMAP
D0
48
48
48
48
30
ENDCHAR
STARTCHAR uni03C6
ENCODING 966
SWIDTH 500 0
DWIDTH 6 0
BBX 5 11 0 -3
BITMAP
20
20
70
A8
A8
A8
A8
70
20
20
20
ENDCHAR
STARTCHAR uni03C7
ENCODING 967
SWIDTH 583 0
DWIDTH 7 0
BBX 6 9 0 -3
BITMAP
C4
A8
28
10
20
20
50
54
8C
ENDCHAR
STARTCHAR uni03C8
ENCODING 968
SWIDTH 583 0
DWIDTH 7 0
BBX 6 11 0 -3
BITMAP
10
10
94
54
54
54
54
38
10
10
10
ENDCHAR
STARTCHAR uni03C9
ENCODING 969
SWIDTH 667 0
DWIDTH 8 0
BBX 7 6 0 0
BITMAP
44
82
92
92
92
6C
ENDCHAR
STARTCHAR uni03CA
ENCODING 970
SWIDTH 333 0
DWIDTH 4 0
BBX 4 8 -1 0
BITMAP
A0
00
40
40
40
40
50
30
ENDCHAR
STARTCHAR uni03CB
ENCODING 971
SWIDTH 500 0
DWIDTH 6 0
BBX 5 8 0 0
BITMAP
50
00
D0
48
48
48
48
30
ENDCHAR
STARTCHAR uni03CC
ENCODING 972
SWIDTH 417 0
DWIDTH 5 0
BBX 4 10 0 0
BITMAP
20
20
40
00
60
90
90
90
90
60
ENDCHAR
STARTCHAR uni03CD
ENCODING 973
SWIDTH 500 0
DWIDTH 6 0
BBX 5 10 0 0
BITMAP
10
10
20
00
D0
48
48
48
48
30
ENDCHAR
STARTCHAR uni03CE
ENCODING 974
SWIDTH 667 0
DWIDTH 8 0
BBX 7 10 0 0
BITMAP
08
08
10
00
44
82
92
92
92
6C
ENDCHAR
STARTCHAR uni0401
ENCODING 1025
SWIDTH 500 0
DWIDTH 6 0
BBX 5 10 0 0
BITMAP
50
00
F8
48
40
70
50
40
48
F8
ENDCHAR
STARTCHAR uni0402
ENCODING 1026
SWIDTH 667 0
DWIDTH 8 0
BBX 7 10 0 -2
BITMAP
FC
A4
20
2C
32
22
22
72
04
08
ENDCHAR
STARTCHAR uni0403
ENCODING 1027
SWIDTH 500 0
DWIDTH 6 0
BBX 5 11 0 0
BITMAP
20
40
00
F8
48
40
40
40
40
40
E0
ENDCHAR
STARTCHAR uni0404
ENCODING 1028
SWIDTH 500 0
DWIDTH 6 0
BBX 5 8 0 0
BITMAP
38
48
80
F0
80
80
48
30
ENDCHAR
STARTCHAR uni0405
ENCODING 1029
SWIDTH 583 0
DWIDTH 7 0
BBX 5 8 0 0
BITMAP
68
98
80
60
10
08
C8
B0
ENDCHAR
STARTCHAR uni0406
ENCODING 1030
SWIDTH 333 0
DWIDTH 4 0
BBX 3 8 0 0
BITMAP
E0
40
40
40
40
40
40
E0
ENDCHAR
STARTCHAR uni0407
ENCODING 1031
SWIDTH 333 0
DWIDTH 4 0
BBX 3 10 0 0
BITMAP
A0
00
E0
40
40
40
40
40
40
E0
ENDCHAR
STARTCHAR uni0408
ENCODING 1032
SWIDTH 333 0
DWIDTH 4 0
BBX 4 10 -1 -2
BITMAP
70
20
20
20
20
20
20
20
A0
C0
ENDCHAR
STARTCHAR uni0409
ENCODING 1033
SWIDTH 833 0
DWIDTH 10 0
BBX 9 8 0 0
BITMAP
7E00
2400
2400
2700
2480
2480
A480
CF00
ENDCHAR
STARTCHAR uni040A
ENCODING 1034
SWIDTH 833 0
DWIDTH 10 0
BBX 9 8 0 0
BITMAP
EE00
4400
4400
7F00
4480
4480
4480
EF00
ENDCHAR
STARTCHAR uni040B
ENCODING 1035
SWIDTH 750 0
DWIDTH 9 0
BBX 8 8 0 0
BITMAP
FC
A4
20
2C
32
22
22
77
ENDCHAR
STARTCHAR uni040C
ENCODING 1036
SWIDTH 667 0
DWIDTH 8 0
BBX 7 11 0 0
BITMAP
08
10
00
E6
48
48
70
50
48
48
E6
ENDCHAR
STARTCHAR uni040D
ENCODING 1037
SWIDTH 667 0
DWIDTH 8 0
BBX 7 11 0 0
BITMAP
20
10
00
E6
4C
4C
54
54
64
64
CE
ENDCHAR
STARTCHAR uni040E
ENCODING 1038
SWIDTH 667 0
DWIDTH 8 0
BBX 7 11 0 0
BITMAP
44
38
00
EE
44
44
28
28
10
50
60
ENDCHAR
STARTCHAR uni040F
ENCODING 1039
SWIDTH 667 0
DWIDTH 8 0
BBX 7 10 0 -2
BITMAP
EE
44
44
44
44
44
44
FE
10
10
ENDCHAR
STARTCHAR uni0410
ENCODING 1040
SWIDTH 667 0
DWIDTH 8 0
BBX 7 8 0 0
BITMAP
10
10
28
28
38
44
44
EE
ENDCHAR
STARTCHAR uni0411
ENCODING 1041
SWIDTH 500 0
DWIDTH 6 0
BBX 5 8 0 0
BITMAP
F8
48
40
70
48
48
48
F0
ENDCHAR
STARTCHAR uni0412
ENCODING 1042
SWIDTH 500 0
DWIDTH 6 0
BBX 5 8 0 0
BITMAP
F0
48
48
70
48
48
48
F0
ENDCHAR
STARTCHAR uni0413
ENCODING 1043
SWIDTH 500 0
DWIDTH 6 0
BBX 5 8 0 0
BITMAP
F8
48
40
40
40
40
40
E0
ENDCHAR
STARTCHAR uni0414
ENCODING 1044
SWIDTH 667 0
DWIDTH 8 0
BBX 7 10 0 -2
BITMAP
7E
24
24
24
24
24
44
FE
82
82
ENDCHAR
STARTCHAR uni0415
ENCODING 1045
SWIDTH 500 0
DWIDTH 6 0
BBX 5 8 0 0
BITMAP
F8
48
40
70
50
40
48
F8
ENDCHAR
STARTCHAR uni0416
ENCODING 1046
SWIDTH 833 0
DWIDTH 10 0
BBX 9 8 0 0
BITMAP
DD80
4900
2A00
1C00
2A00
4900
4900
DD80
ENDCHAR
STARTCHAR uni0417
ENCODING 1047
SWIDTH 500 0
DWIDTH 6 0
BBX 5 8 0 0
BITMAP
F0
88
08
30
08
08
88
70
ENDCHAR
STARTCHAR uni0418
ENCODING 1048
SWIDTH 667 0
DWIDTH 8 0
BBX 7 8 0 0
BITMAP
E6
4C
4C
54
54
64
64
CE
ENDCHAR
STARTCHAR uni0419
ENCODING 1049
SWIDTH 667 0
DWIDTH 8 0
BBX 7 11 0 0
BITMAP
44
38
00
E6
4C
4C
54
54
64
64
CE
ENDCHAR
STARTCHAR uni041A
ENCODING 1050
SWIDTH 667 0
DWIDTH 8 0
BBX 7 8 0 0
BITMAP
E6
48
48
70
50
48
48
E6
ENDCHAR
STARTCHAR uni041B
ENCODING 1051
SWIDTH 667 0
DWIDTH 8 0
BBX 7 8 0 0
BITMAP
7E
24
24
24
24
24
A4
CE
ENDCHAR
STARTCHAR uni041C
ENCODING 1052
SWIDTH 833 0
DWIDTH 10 0
BBX 9 8 0 0
BITMAP
E380
6300
5500
5500
5500
4900
4900
E380
ENDCHAR
STARTCHAR uni041D
ENCODING 1053
SWIDTH 667 0
DWIDTH 8 0
BBX 7 8 0 0
BITMAP
EE
44
44
7C
44
44
44
EE
ENDCHAR
STARTCHAR uni041E
ENCODING 1054
SWIDTH 667 0
DWIDTH 8 0
BBX 7 8 0 0
BITMAP
38
44
82
82
82
82
44
38
ENDCHAR
STARTCHAR uni041F
ENCODING 1055
SWIDTH 667 0
DWIDTH 8 0
BBX 7 8 0 0
BITMAP
FE
44
44
44
44
44
44
EE
ENDCHAR
STARTCHAR uni0420
ENCODING 1056
SWIDTH 500 0
DWIDTH 6 0
BBX 5 8 0 0
BITMAP
F0
48
48
48
70
40
40
E0
ENDCHAR
STARTCHAR uni0421
ENCODING 1057
SWIDTH 500 0
DWIDTH 6 0
BBX 5 8 0 0
BITMAP
38
48
80
80
80
80
48
30
ENDCHAR
STARTCHAR uni0422
ENCODING 1058
SWIDTH 500 0
DWIDTH 6 0
BBX 5 8 0 0
BITMAP
F8
A8
20
20
20
20
20
70
ENDCHAR
STARTCHAR uni0423
ENCODING 1059
SWIDTH 667 0
DWIDTH 8 0
BBX 7 8 0 0
BITMAP
EE
44
44
28
28
10
50
60
ENDCHAR
STARTCHAR uni0424
ENCODING 1060
SWIDTH 667 0
DWIDTH 8 0
BBX 7 8 0 0
BITMAP
10
7C
92
92
92
92
7C
10
ENDCHAR
STARTCHAR uni0425
ENCODING 1061
SWIDTH 667 0
DWIDTH 8 0
BBX 7 8 0 0
BITMAP
EE
44
28
10
10
28
44
EE
ENDCHAR
STARTCHAR uni0426
ENCODING 1062
SWIDTH 667 0
DWIDTH 8 0
BBX 7 10 0 -2
BITMAP
EE
44
44
44
44
44
44
FE
02
02
ENDCHAR
STARTCHAR uni0427
ENCODING 1063
SWIDTH 667 0
DWIDTH 8 0
BBX 7 8 0 0
BITMAP
EE
44
44
4C
34
04
04
0E
ENDCHAR
STARTCHAR uni0428
ENCODING 1064
SWIDTH 833 0
DWIDTH 10 0
BBX 9 8 0 0
BITMAP
DB80
4900
4900
4900
4900
4900
4900
FF80
ENDCHAR
STARTCHAR uni0429
ENCODING 1065
SWIDTH 833 0
DWIDTH 10 0
BBX 9 10 0 -2
BITMAP
DB80
4900
4900
4900
4900
4900
4900
FF80
0080
0080
ENDCHAR
STARTCHAR uni042A
ENCODING 1066
SWIDTH 583 0
DWIDTH 7 0
BBX 6 8 0 0
BITMAP
F0
A0
20
38
24
24
24
78
ENDCHAR
STARTCHAR uni042B
ENCODING 1067
SWIDTH 750 0
DWIDTH 9 0
BBX 8 8 0 0
BITMAP
E7
42
42
72
4A
4A
4A
F3
ENDCHAR
STARTCHAR uni042C
ENCODING 1068
SWIDTH 500 0
DWIDTH 6 0
BBX 5 8 0 0
BITMAP
E0
40
40
70
48
48
48
F0
ENDCHAR
STARTCHAR uni042D
ENCODING 1069
SWIDTH 500 0
DWIDTH 6 0
BBX 5 8 0 0
BITMAP
E0
90
08
78
08
08
90
E0
ENDCHAR
STARTCHAR uni042E
ENCODING 1070
SWIDTH 833 0
DWIDTH 10 0
BBX 9 8 0 0
BITMAP
E600
4900
5080
7080
5080
5080
4900
E600
ENDCHAR
STARTCHAR uni042F
ENCODING 1071
SWIDTH 583 0
DWIDTH 7 0
BBX 6 8 0 0
BITMAP
3C
48
48
48
38
28
48
DC
ENDCHAR
STARTCHAR uni0430
ENCODING 1072
SWIDTH 417 0
DWIDTH 5 0
BBX 4 6 0 0
BITMAP
60
90
30
50
90
70
ENDCHAR
STARTCHAR uni0431
ENCODING 1073
SWIDTH 500 0
DWIDTH 6 0
BBX 4 9 0 0
BITMAP
10
60
80
B0
D0
90
90
90
60
ENDCHAR
STARTCHAR uni0432
ENCODING 1074
SWIDTH 500 0
DWIDTH 6 0
BBX 5 6 0 0
BITMAP
F0
48
70
48
48
F0
ENDCHAR
STARTCHAR uni0433
ENCODING 1075
SWIDTH 500 0
DWIDTH 6 0
BBX 5 6 0 0
BITMAP
F8
48
40
40
40
E0
ENDCHAR
STARTCHAR uni0434
ENCODING 1076
SWIDTH 583 0
DWIDTH 7 0
BBX 6 7 0 -1
BITMAP
7C
28
28
28
48
FC
84
ENDCHAR
STARTCHAR uni0435
ENCODING 1077
SWIDTH 417 0
DWIDTH 5 0
BBX 4 6 0 0
BITMAP
70
90
E0
80
90
60
ENDCHAR
STARTCHAR uni0436
ENCODING 1078
SWIDTH 833 0
DWIDTH 10 0
BBX 9 6 0 0
BITMAP
DD80
2A00
1C00
2A00
4900
DD80
ENDCHAR
STARTCHAR uni0437
ENCODING 1079
SWIDTH 417 0
DWIDTH 5 0
BBX 4 6 0 0
BITMAP
E0
90
20
10
90
60
ENDCHAR
STARTCHAR uni0438
ENCODING 1080
SWIDTH 583 0
DWIDTH 7 0
BBX 6 6 0 0
BITMAP
DC
48
58
68
48
DC
ENDCHAR
STARTCHAR uni0439
ENCODING 1081
SWIDTH 583 0
DWIDTH 7 0
BBX 6 9 0 0
BITMAP
48
30
00
DC
48
58
68
48
DC
ENDCHAR
STARTCHAR uni043A
ENCODING 1082
SWIDTH 583 0
DWIDTH 7 0
BBX 6 6 0 0
BITMAP
CC
50
60
50
50
CC
ENDCHAR
STARTCHAR uni043B
ENCODING 1083
SWIDTH 667 0
DWIDTH 8 0
BBX 7 6 0 0
BITMAP
7E
24
24
24
A4
CE
ENDCHAR
STARTCHAR uni043C
ENCODING 1084
SWIDTH 667 0
DWIDTH 8 0
BBX 7 6 0 0
BITMAP
C6
6C
54
54
44
EE
ENDCHAR
STARTCHAR uni043D
ENCODING 1085
SWIDTH 583 0
DWIDTH 7 0
BBX 6 6 0 0
BITMAP
DC
48
78
48
48
DC
ENDCHAR
STARTCHAR uni043E
ENCODING 1086
SWIDTH 417 0
DWIDTH 5 0
BBX 4 6 0 0
BITMAP
60
90
90
90
90
60
ENDCHAR
STARTCHAR uni043F
ENCODING 1087
SWIDTH 583 0
DWIDTH 7 0
BBX 6 6 0 0
BITMAP
FC
48
48
48
48
DC
ENDCHAR
STARTCHAR uni0440
ENCODING 1088
SWIDTH 500 0
DWIDTH 6 0
BBX 5 9 0 -3
BITMAP
D8
68
48
48
48
70
40
40
E0
ENDCHAR
STARTCHAR uni0441
ENCODING 1089
SWIDTH 417 0
DWIDTH 5 0
BBX 4 6 0 0
BITMAP
70
90
80
80
90
60
ENDCHAR
STARTCHAR uni0442
ENCODING 1090
SWIDTH 500 0
DWIDTH 6 0
BBX 5 6 0 0
BITMAP
F8
A8
20
20
20
70
ENDCHAR
STARTCHAR uni0443
ENCODING 1091
SWIDTH 583 0
DWIDTH 7 0
BBX 7 9 -1 -3
BITMAP
6E
24
24
28
18
10
10
A0
C0
ENDCHAR
STARTCHAR uni0444
ENCODING 1092
SWIDTH 500 0
DWIDTH 6 0
BBX 5 12 0 -3
BITMAP
60
20
20
70
A8
A8
A8
A8
70
20
20
70
ENDCHAR
STARTCHAR uni0445
ENCODING 1093
SWIDTH 500 0
DWIDTH 6 0
BBX 5 6 0 0
BITMAP
D8
50
20
20
50
D8
ENDCHAR
STARTCHAR uni0446
ENCODING 1094
SWIDTH 583 0
DWIDTH 7 0
BBX 6 7 0 -1
BITMAP
DC
48
48
48
48
FC
04
ENDCHAR
STARTCHAR uni0447
ENCODING 1095
SWIDTH 583 0
DWIDTH 7 0
BBX 6 6 0 0
BITMAP
DC
48
48
38
08
1C
ENDCHAR
STARTCHAR uni0448
ENCODING 1096
SWIDTH 833 0
DWIDTH 10 0
BBX 9 6 0 0
BITMAP
DB80
4900
4900
4900
4900
FF80
ENDCHAR
STARTCHAR uni0449
ENCODING 1097
SWIDTH 833 0
DWIDTH 10 0
BBX 9 7 0 -1
BITMAP
DB80
4900
4900
4900
4900
FF80
0080
ENDCHAR
STARTCHAR uni044A
ENCODING 1098
SWIDTH 583 0
DWIDTH 7 0
BBX 6 6 0 0
BITMAP
F0
A0
38
24
24
78
ENDCHAR
STARTCHAR uni044B
ENCODING 1099
SWIDTH 667 0
DWIDTH 8 0
BBX 7 6 0 0
BITMAP
EE
44
64
54
54
E6
ENDCHAR
STARTCHAR uni044C
ENCODING 1100
SWIDTH 500 0
DWIDTH 6 0
BBX 5 6 0 0
BITMAP
E0
40
70
48
48
F0
ENDCHAR
STARTCHAR uni044D
ENCODING 1101
SWIDTH 417 0
DWIDTH 5 0
BBX 4 6 0 0
BITMAP
E0
90
30
10
90
60
ENDCHAR
STARTCHAR uni044E
ENCODING 1102
SWIDTH 667 0
DWIDTH 8 0
BBX 7 6 0 0
BITMAP
CC
52
72
52
52
CC
ENDCHAR
STARTCHAR uni044F
ENCODING 1103
SWIDTH 583 0
DWIDTH 7 0
BBX 6 6 0 0
BITMAP
3C
48
48
38
48
DC
ENDCHAR
STARTCHAR uni0450
ENCODING 1104
SWIDTH 417 0
DWIDTH 5 0
BBX 4 9 0 0
BITMAP
40
20
00
70
90
E0
80
90
60
ENDCHAR
STARTCHAR uni0451
ENCODING 1105
SWIDTH 417 0
DWIDTH 5 0
BBX 4 8 0 0
BITMAP
90
00
70
90
E0
80
90
60
ENDCHAR
STARTCHAR uni0452
ENCODING 1106
SWIDTH 500 0
DWIDTH 6 0
BBX 5 12 0 -3
BITMAP
40
E0
40
58
68
48
48
48
E8
08
28
30
ENDCHAR
STARTCHAR uni0453
ENCODING 1107
SWIDTH 500 0
DWIDTH 6 0
BBX 5 9 0 0
BITMAP
20
40
00
F8
48
40
40
40
E0
ENDCHAR
STARTCHAR uni0454
ENCODING 1108
SWIDTH 417 0
DWIDTH 5 0
BBX 4 6 0 0
BITMAP
70
90
C0
80
90
60
ENDCHAR
STARTCHAR uni0455
ENCODING 1109
SWIDTH 417 0
DWIDTH 5 0
BBX 4 6 0 0
BITMAP
70
90
40
20
90
E0
ENDCHAR
STARTCHAR uni0456
ENCODING 1110
SWIDTH 333 0
DWIDTH 4 0
BBX 3 8 0 0
BITMAP
40
00
C0
40
40
40
40
E0
ENDCHAR
STARTCHAR uni0457
ENCODING 1111
SWIDTH 333 0
DWIDTH 4 0
BBX 3 8 0 0
BITMAP
A0
00
C0
40
40
40
40
E0
ENDCHAR
STARTCHAR uni0458
ENCODING 1112
SWIDTH 333 0
DWIDTH 4 0
BBX 3 11 -1 -3
BITMAP
20
00
60
20
20
20
20
20
20
A0
C0
ENDCHAR
STARTCHAR uni0459
ENCODING 1113
SWIDTH 833 0
DWIDTH 10 0
BBX 9 6 0 0
BITMAP
7E00
2400
2700
2480
A480
CF00
ENDCHAR
STARTCHAR uni045A
ENCODING 1114
SWIDTH 750 0
DWIDTH 9 0
BBX 8 6 0 0
BITMAP
DC
48
7E
49
49
DE
ENDCHAR
STARTCHAR uni045B
ENCODING 1115
SWIDTH 583 0
DWIDTH 7 0
BBX 6 9 0 0
BITMAP
40
E0
40
58
68
48
48
48
EC
ENDCHAR
STARTCHAR uni045C
ENCODING 1116
SWIDTH 583 0
DWIDTH 7 0
BBX 6 9 0 0
BITMAP
10
20
00
CC
50
60
50
50
CC
ENDCHAR
STARTCHAR uni045D
ENCODING 1117
SWIDTH 583 0
DWIDTH 7 0
BBX 6 9 0 0
BITMAP
20
10
00
DC
48
58
68
48
DC
ENDCHAR
STARTCHAR uni045E
ENCODING 1118
SWIDTH 500 0
DWIDTH 6 0
BBX 7 12 -1 -3
BITMAP
24
18
00
6E
24
24
28
18
10
10
A0
C0
ENDCHAR
STARTCHAR uni045F
ENCODING 1119
SWIDTH 583 0
DWIDTH 7 0
BBX 6 7 0 -1
BITMAP
DC
48
48
48
48
FC
10
ENDCHAR
STARTCHAR uni1E02
ENCODING 7682
SWIDTH 500 0
DWIDTH 6 0
BBX 5 10 0 0
BITMAP
20
00
F0
48
48
70
48
48
48
F0
ENDCHAR
STARTCHAR uni1E03
ENCODING 7683
SWIDTH 500 0
DWIDTH 6 0
BBX 5 9 -1 0
BITMAP
C0
50
40
58
68
48
48
48
70
ENDCHAR
STARTCHAR uni1E0A
ENCODING 7690
SWIDTH 583 0
DWIDTH 7 0
BBX 6 10 0 0
BITMAP
20
00
F0
48
44
44
44
44
48
F0
ENDCHAR
STARTCHAR uni1E0B
ENCODING 7691
SWIDTH 500 0
DWIDTH 6 0
BBX 5 9 0 0
BITMAP
10
50
10
70
90
90
90
B0
58
ENDCHAR
STARTCHAR uni1E1E
ENCODING 7710
SWIDTH 500 0
DWIDTH 6 0
BBX 5 10 0 0
BITMAP
20
00
F8
48
40
70
50
40
40
E0
ENDCHAR
STARTCHAR uni1E1F
ENCODING 7711
SWIDTH 417 0
DWIDTH 5 0
BBX 4 11 0 0
BITMAP
20
00
30
50
40
F0
40
40
40
40
E0
ENDCHAR
STARTCHAR uni1E40
ENCODING 7744
SWIDTH 833 0
DWIDTH 10 0
BBX 9 10 0 0
BITMAP
0800
0000
E380
6300
5500
5500
5500
4900
4900
E380
ENDCHAR
STARTCHAR uni1E41
ENCODING 7745
SWIDTH 833 0
DWIDTH 10 0
BBX 9 8 0 0
BITMAP
0800
0000
DB00
6D00
4900
4900
4900
DB80
ENDCHAR
STARTCHAR uni1E56
ENCODING 7766
SWIDTH 500 0
DWIDTH 6 0
BBX 5 10 0 0
BITMAP
20
00
F0
48
48
48
70
40
40
E0
ENDCHAR
STARTCHAR uni1E57
ENCODING 7767
SWIDTH 500 0
DWIDTH 6 0
BBX 5 11 0 -3
BITMAP
20
00
D8
68
48
48
48
70
40
40
E0
ENDCHAR
STARTCHAR uni1E60
ENCODING 7776
SWIDTH 583 0
DWIDTH 7 0
BBX 5 10 0 0
BITMAP
20
00
68
98
80
60
10
08
C8
B0
ENDCHAR
STARTCHAR uni1E61
ENCODING 7777
SWIDTH 417 0
DWIDTH 5 0
BBX 4 8 0 0
BITMAP
20
00
70
90
40
20
90
E0
ENDCHAR
STARTCHAR uni1E6A
ENCODING 7786
SWIDTH 500 0
DWIDTH 6 0
BBX 5 10 0 0
BITMAP
20
00
F8
A8
20
20
20
20
20
70
ENDCHAR
STARTCHAR uni1E6B
ENCODING 7787
SWIDTH 417 0
DWIDTH 5 0
BBX 4 9 0 0
BITMAP
40
00
40
F0
40
40
40
50
30
ENDCHAR
STARTCHAR uni1E80
ENCODING 7808
SWIDTH 833 0
DWIDTH 10 0
BBX 9 11 0 0
BITMAP
1000
0800
0000
E380
4100
4900
4900
5500
5500
2200
2200
ENDCHAR
STARTCHAR uni1E81
ENCODING 7809
SWIDTH 667 0
DWIDTH 8 0
BBX 7 9 0 0
BITMAP
20
10
00
EE
44
54
54
28
28
ENDCHAR
STARTCHAR uni1E82
ENCODING 7810
SWIDTH 833 0
DWIDTH 10 0
BBX 9 11 0 0
BITMAP
0400
0800
0000
E380
4100
4900
4900
5500
5500
2200
2200
ENDCHAR
STARTCHAR uni1E83
ENCODING 7811
SWIDTH 667 0
DWIDTH 8 0
BBX 7 9 0 0
BITMAP
08
10
00
EE
44
54
54
28
28
ENDCHAR
STARTCHAR uni1E84
ENCODING 7812
SWIDTH 833 0
DWIDTH 10 0
BBX 9 10 0 0
BITMAP
1400
0000
E380
4100
4900
4900
5500
5500
2200
2200
ENDCHAR
STARTCHAR uni1E85
ENCODING 7813
SWIDTH 667 0
DWIDTH 8 0
BBX 7 8 0 0
BITMAP
28
00
EE
44
54
54
28
28
ENDCHAR
STARTCHAR uni1EF2
ENCODING 7922
SWIDTH 667 0
DWIDTH 8 0
BBX 7 11 0 0
BITMAP
20
10
00
EE
44
28
28
10
10
10
38
ENDCHAR
STARTCHAR uni1EF3
ENCODING 7923
SWIDTH 583 0
DWIDTH 7 0
BBX 7 12 -1 -3
BITMAP
20
10
00
6E
24
24
28
18
10
10
A0
C0
ENDCHAR
STARTCHAR uni2013
ENCODING 8211
SWIDTH 500 0
DWIDTH 6 0
BBX 6 1 0 3
BITMAP
FC
ENDCHAR
STARTCHAR uni2014
ENCODING 8212
SWIDTH 1000 0
DWIDTH 12 0
BBX 12 1 0 3
BITMAP
FFF0
ENDCHAR
STARTCHAR uni2015
ENCODING 8213
SWIDTH 917 0
DWIDTH 11 0
BBX 10 1 0 3
BITMAP
FFC0
ENDCHAR
STARTCHAR uni2018
ENCODING 8216
SWIDTH 250 0
DWIDTH 3 0
BBX 2 3 0 6
BITMAP
40
80
80
ENDCHAR
STARTCHAR uni2019
ENCODING 8217
SWIDTH 250 0
DWIDTH 3 0
BBX 2 3 0 6
BITMAP
40
40
80
ENDCHAR
STARTCHAR uni201A
ENCODING 8218
SWIDTH 250 0
DWIDTH 3 0
BBX 2 3 0 -1
BITMAP
40
40
80
ENDCHAR
STARTCHAR uni201C
ENCODING 8220
SWIDTH 417 0
DWIDTH 5 0
BBX 4 3 0 6
BITMAP
50
A0
A0
ENDCHAR
STARTCHAR uni201D
ENCODING 8221
SWIDTH 417 0
DWIDTH 5 0
BBX 4 3 0 6
BITMAP
50
50
A0
ENDCHAR
STARTCHAR uni201E
ENCODING 8222
SWIDTH 417 0
DWIDTH 5 0
BBX 4 3 0 -1
BITMAP
50
50
A0
ENDCHAR
STARTCHAR uni2020
ENCODING 8224
SWIDTH 500 0
DWIDTH 6 0
BBX 5 8 0 0
BITMAP
20
20
F8
20
20
20
20
20
ENDCHAR
STARTCHAR uni2021
ENCODING 8225
SWIDTH 500 0
DWIDTH 6 0
BBX 5 8 0 0
BITMAP
20
20
F8
20
20
F8
20
20
ENDCHAR
STARTCHAR uni2022
ENCODING 8226
SWIDTH 250 0
DWIDTH 3 0
BBX 2 2 0 3
BITMAP
C0
C0
ENDCHAR
STARTCHAR uni2026
ENCODING 8230
SWIDTH 500 0
DWIDTH 6 0
BBX 5 1 0 0
BITMAP
A8
ENDCHAR
STARTCHAR uni2030
ENCODING 8240
SWIDTH 833 0
DWIDTH 10 0
BBX 9 8 0 0
BITMAP
4400
A800
A800
5000
1500
2A80
2A80
4500
ENDCHAR
STARTCHAR uni2039
ENCODING 8249
SWIDTH 333 0
DWIDTH 4 0
BBX 3 5 0 1
BITMAP
20
40
80
40
20
ENDCHAR
STARTCHAR uni203A
ENCODING 8250
SWIDTH 333 0
DWIDTH 4 0
BBX 3 5 0 1
BITMAP
80
40
20
40
80
ENDCHAR
STARTCHAR uni20AC
ENCODING 8364
SWIDTH 583 0
DWIDTH 7 0
BBX 6 8 0 0
BITMAP
1C
24
F0
40
F0
40
24
18
ENDCHAR
STARTCHAR uni20AF
ENCODING 8367
SWIDTH 1000 0
DWIDTH 12 0
BBX 11 11 0 -3
BITMAP
3C00
4200
0900
0900
1160
51A0
A2A0
5CC0
0080
0100
0100
ENDCHAR
STARTCHAR uni2116
ENCODING 8470
SWIDTH 917 0
DWIDTH 11 0
BBX 10 8 0 0
BITMAP
C600
64C0
6540
5540
5580
4C00
4DC0
C400
ENDCHAR
STARTCHAR uni2122
ENCODING 8482
SWIDTH 750 0
DWIDTH 9 0
BBX 8 4 0 5
BITMAP
F1
5B
55
51
ENDCHAR
STARTCHAR uni221A
ENCODING 8730
SWIDTH 667 0
DWIDTH 8 0
BBX 7 9 0 0
BITMAP
02
04
04
08
C8
50
50
20
20
ENDCHAR
STARTCHAR uni221E
ENCODING 8734
SWIDTH 833 0
DWIDTH 10 0
BBX 9 5 0 1
BITMAP
6300
9480
8880
9480
6300
ENDCHAR
STARTCHAR uni222B
ENCODING 8747
SWIDTH 667 0
DWIDTH 8 0
BBX 7 12 0 -3
BITMAP
06
0A
08
08
08
10
10
10
10
20
A0
C0
ENDCHAR
STARTCHAR uni2248
ENCODING 8776
SWIDTH 583 0
DWIDTH 7 0
BBX 6 5 0 1
BITMAP
64
98
00
64
98
ENDCHAR
STARTCHAR uni2260
ENCODING 8800
SWIDTH 500 0
DWIDTH 6 0
BBX 5 5 0 1
BITMAP
10
F8
20
F8
40
ENDCHAR
STARTCHAR uni2264
ENCODING 8804
SWIDTH 500 0
DWIDTH 6 0
BBX 5 7 0 0
BITMAP
08
30
C0
30
08
00
F8
ENDCHAR
STARTCHAR uni2265
ENCODING 8805
SWIDTH 500 0
DWIDTH 6 0
BBX 5 7 0 0
BITMAP
80
60
18
60
80
00
F8
ENDCHAR
STARTCHAR uniE000
ENCODING 57344
SWIDTH 500 0
DWIDTH 6 0
BBX 5 6 0 0
BITMAP
70
88
88
88
88
70
ENDCHAR
STARTCHAR uniE001
ENCODING 57345
SWIDTH 333 0
DWIDTH 4 0
BBX 3 6 0 0
BITMAP
C0
40
40
40
40
E0
ENDCHAR
STARTCHAR uniE002
ENCODING 57346
SWIDTH 417 0
DWIDTH 5 0
BBX 4 6 0 0
BITMAP
70
90
20
40
90
F0
ENDCHAR
STARTCHAR uniE003
ENCODING 57347
SWIDTH 417 0
DWIDTH 5 0
BBX 4 8 0 -2
BITMAP
F0
90
20
60
10
10
20
C0
ENDCHAR
STARTCHAR uniE004
ENCODING 57348
SWIDTH 500 0
DWIDTH 6 0
BBX 5 8 0 -2
BITMAP
08
10
20
50
90
F8
10
10
ENDCHAR
STARTCHAR uniE005
ENCODING 57349
SWIDTH 417 0
DWIDTH 5 0
BBX 4 8 0 -2
BITMAP
F0
80
E0
10
10
10
20
C0
ENDCHAR
STARTCHAR uniE006
ENCODING 57350
SWIDTH 500 0
DWIDTH 6 0
BBX 5 8 0 0
BITMAP
18
20
40
80
E0
90
90
60
ENDCHAR
STARTCHAR uniE007
ENCODING 57351
SWIDTH 500 0
DWIDTH 6 0
BBX 5 8 0 -2
BITMAP
F8
88
10
10
20
20
40
40
ENDCHAR
STARTCHAR uniE008
ENCODING 57352
SWIDTH 500 0
DWIDTH 6 0
BBX 5 8 0 0
BITMAP
70
88
50
20
50
88
88
70
ENDCHAR
STARTCHAR uniE009
ENCODING 57353
SWIDTH 417 0
DWIDTH 5 0
BBX 5 8 -1 -2
BITMAP
30
48
48
38
08
10
20
C0
ENDCHAR
STARTCHAR uniE00A
ENCODING 57354
SWIDTH 667 0
DWIDTH 8 0
BBX 7 9 0 0
BITMAP
36
4A
48
D8
48
48
48
48
DC
ENDCHAR
STARTCHAR uniE00B
ENCODING 57355
SWIDTH 583 0
DWIDTH 7 0
BBX 6 9 0 0
BITMAP
38
48
40
D8
48
48
48
48
DC
ENDCHAR
STARTCHAR uniE00C
ENCODING 57356
SWIDTH 833 0
DWIDTH 10 0
BBX 9 9 0 0
BITMAP
3700
4900
4800
DB00
4900
4900
4900
4900
DB80
ENDCHAR
STARTCHAR uniE00D
ENCODING 57357
SWIDTH 583 0
DWIDTH 7 0
BBX 6 9 0 0
BITMAP
38
48
48
C8
48
48
48
48
DC
ENDCHAR
STARTCHAR uniE00E
ENCODING 57358
SWIDTH 833 0
DWIDTH 10 0
BBX 9 9 0 0
BITMAP
3700
4900
4900
D900
4900
4900
4900
4900
DB80
ENDCHAR
STARTCHAR uniE00F
ENCODING 57359
SWIDTH 833 0
DWIDTH 10 0
BBX 9 8 0 0
BITMAP
0E00
1200
7780
9200
8200
8200
9280
6180
ENDCHAR
STARTCHAR uniE010
ENCODING 57360
SWIDTH 833 0
DWIDTH 10 0
BBX 9 12 0 -3
BITMAP
0C00
1400
1400
7580
9680
4480
2480
9480
E700
0400
0400
0E00
ENDCHAR
STARTCHAR uniE011
ENCODING 57361
SWIDTH 667 0
DWIDTH 8 0
BBX 7 7 0 0
BITMAP
10
10
28
28
7C
44
EE
ENDCHAR
STARTCHAR uniE012
ENCODING 57362
SWIDTH 500 0
DWIDTH 6 0
BBX 5 7 0 0
BITMAP
F0
48
48
70
48
48
F0
ENDCHAR
STARTCHAR uniE013
ENCODING 57363
SWIDTH 500 0
DWIDTH 6 0
BBX 5 7 0 0
BITMAP
38
48
80
80
80
48
30
ENDCHAR
STARTCHAR uniE014
ENCODING 57364
SWIDTH 583 0
DWIDTH 7 0
BBX 6 7 0 0
BITMAP
F0
48
44
44
44
48
F0
ENDCHAR
STARTCHAR uniE015
ENCODING 57365
SWIDTH 500 0
DWIDTH 6 0
BBX 5 7 0 0
BITMAP
F8
48
40
70
40
48
F8
ENDCHAR
STARTCHAR uniE016
ENCODING 57366
SWIDTH 500 0
DWIDTH 6 0
BBX 5 7 0 0
BITMAP
F8
48
40
70
40
40
E0
ENDCHAR
STARTCHAR uniE017
ENCODING 57367
SWIDTH 583 0
DWIDTH 7 0
BBX 6 7 0 0
BITMAP
38
48
80
9C
88
48
30
ENDCHAR
STARTCHAR uniE018
ENCODING 57368
SWIDTH 583 0
DWIDTH 7 0
BBX 6 7 0 0
BITMAP
DC
48
48
78
48
48
DC
ENDCHAR
STARTCHAR uniE019
ENCODING 57369
SWIDTH 333 0
DWIDTH 4 0
BBX 3 7 0 0
BITMAP
E0
40
40
40
40
40
E0
ENDCHAR
STARTCHAR uniE01A
ENCODING 57370
SWIDTH 417 0
DWIDTH 5 0
BBX 4 9 -1 -2
BITMAP
70
20
20
20
20
20
20
A0
C0
ENDCHAR
STARTCHAR uniE01B
ENCODING 57371
SWIDTH 583 0
DWIDTH 7 0
BBX 6 7 0 0
BITMAP
EC
48
50
60
50
48
EC
ENDCHAR
STARTCHAR uniE01C
ENCODING 57372
SWIDTH 500 0
DWIDTH 6 0
BBX 5 7 0 0
BITMAP
E0
40
40
40
40
48
F8
ENDCHAR
STARTCHAR uniE01D
ENCODING 57373
SWIDTH 667 0
DWIDTH 8 0
BBX 7 7 0 0
BITMAP
C6
6C
6C
54
54
44
EE
ENDCHAR
STARTCHAR uniE01E
ENCODING 57374
SWIDTH 667 0
DWIDTH 8 0
BBX 7 7 0 0
BITMAP
CE
64
64
54
4C
4C
E4
ENDCHAR
STARTCHAR uniE01F
ENCODING 57375
SWIDTH 583 0
DWIDTH 7 0
BBX 6 7 0 0
BITMAP
30
48
84
84
84
48
30
ENDCHAR
STARTCHAR uniE020
ENCODING 57376
SWIDTH 500 0
DWIDTH 6 0
BBX 5 7 0 0
BITMAP
F0
48
48
70
40
40
E0
ENDCHAR
STARTCHAR uniE021
ENCODING 57377
SWIDTH 583 0
DWIDTH 7 0
BBX 11 10 0 -3
BITMAP
3000
4800
8400
8400
8400
4800
3000
0800
0620
01C0
ENDCHAR
STARTCHAR uniE022
ENCODING 57378
SWIDTH 583 0
DWIDTH 7 0
BBX 6 7 0 0
BITMAP
F0
48
48
70
50
48
EC
ENDCHAR
STARTCHAR uniE023
ENCODING 57379
SWIDTH 583 0
DWIDTH 7 0
BBX 5 7 0 0
BITMAP
68
98
80
70
08
C8
B0
ENDCHAR
STARTCHAR uniE024
ENCODING 57380
SWIDTH 500 0
DWIDTH 6 0
BBX 5 7 0 0
BITMAP
F8
A8
20
20
20
20
70
ENDCHAR
STARTCHAR uniE025
ENCODING 57381
SWIDTH 583 0
DWIDTH 7 0
BBX 6 7 0 0
BITMAP
DC
48
48
48
48
48
30
ENDCHAR
STARTCHAR uniE026
ENCODING 57382
SWIDTH 667 0
DWIDTH 8 0
BBX 7 7 0 0
BITMAP
EE
44
44
28
28
10
10
ENDCHAR
STARTCHAR uniE027
ENCODING 57383
SWIDTH 667 0
DWIDTH 8 0
BBX 7 7 0 0
BITMAP
EE
44
54
54
54
28
28
ENDCHAR
STARTCHAR uniE028
ENCODING 57384
SWIDTH 667 0
DWIDTH 8 0
BBX 7 7 0 0
BITMAP
EE
44
28
10
28
44
EE
ENDCHAR
STARTCHAR uniE029
ENCODING 57385
SWIDTH 667 0
DWIDTH 8 0
BBX 7 7 0 0
BITMAP
EE
44
28
10
10
10
38
ENDCHAR
STARTCHAR uniE02A
ENCODING 57386
SWIDTH 583 0
DWIDTH 7 0
BBX 5 7 0 0
BITMAP
F8
88
10
20
40
88
F8
ENDCHAR
STARTCHAR uniE02B
ENCODING 57387
SWIDTH 1000 0
DWIDTH 12 0
BBX 11 7 0 0
BITMAP
69A0
9A60
8200
71C0
0820
CB20
B2C0
ENDCHAR
STARTCHAR uniE02C
ENCODING 57388
SWIDTH 750 0
DWIDTH 9 0
BBX 8 7 0 0
BITMAP
3F
19
28
2E
78
49
DF
ENDCHAR
STARTCHAR uniE02D
ENCODING 57389
SWIDTH 750 0
DWIDTH 9 0
BBX 8 7 0 0
BITMAP
3F
49
88
8E
88
49
3F
ENDCHAR
STARTCHAR uniE02E
ENCODING 57390
SWIDTH 833 0
DWIDTH 10 0
BBX 9 7 0 0
BITMAP
FB80
4900
4100
7100
4100
4100
E380
ENDCHAR
STARTCHAR uniE02F
ENCODING 57391
SWIDTH 1000 0
DWIDTH 12 0
BBX 11 7 0 0
BITMAP
FB80
4900
4100
7100
4100
4120
E3E0
ENDCHAR
STARTCHAR uniE030
ENCODING 57392
SWIDTH 667 0
DWIDTH 8 0
BBX 7 9 0 -2
BITMAP
CE
64
64
54
4C
4C
C4
14
18
ENDCHAR
STARTCHAR uniE031
ENCODING 57393
SWIDTH 583 0
DWIDTH 7 0
BBX 6 7 0 0
BITMAP
F0
48
44
E4
44
48
F0
ENDCHAR
STARTCHAR uniE032
ENCODING 57394
SWIDTH 583 0
DWIDTH 7 0
BBX 6 7 0 0
BITMAP
34
48
94
B4
A4
48
B0
ENDCHAR
STARTCHAR uniE033
ENCODING 57395
SWIDTH 500 0
DWIDTH 6 0
BBX 5 7 0 0
BITMAP
E0
40
70
48
70
40
E0
ENDCHAR
STARTCHAR uniE034
ENCODING 57396
SWIDTH 583 0
DWIDTH 7 0
BBX 6 7 0 0
BITMAP
20
50
50
64
A8
90
6C
ENDCHAR
STARTCHAR uniE035
ENCODING 57397
SWIDTH 167 0
DWIDTH 2 0
BBX 1 7 0 0
BITMAP
80
80
80
80
80
00
80
ENDCHAR
STARTCHAR uniE036
ENCODING 57398
SWIDTH 167 0
DWIDTH 2 0
BBX 1 7 0 -1
BITMAP
80
00
80
80
80
80
80
ENDCHAR
STARTCHAR uniE037
ENCODING 57399
SWIDTH 417 0
DWIDTH 5 0
BBX 4 8 0 0
BITMAP
C0
20
10
10
60
40
00
40
ENDCHAR
STARTCHAR uniE038
ENCODING 57400
SWIDTH 417 0
DWIDTH 5 0
BBX 4 8 0 -2
BITMAP
20
00
20
60
80
80
40
30
ENDCHAR
STARTCHAR uniE039
ENCODING 57401
SWIDTH 667 0
DWIDTH 8 0
BBX 7 10 0 0
BITMAP
08
10
00
10
10
28
28
7C
44
EE
ENDCHAR
STARTCHAR uniE03A
ENCODING 57402
SWIDTH 667 0
DWIDTH 8 0
BBX 7 10 0 0
BITMAP
20
10
00
10
10
28
28
7C
44
EE
ENDCHAR
STARTCHAR uniE03B
ENCODING 57403
SWIDTH 667 0
DWIDTH 8 0
BBX 7 10 0 0
BITMAP
10
28
00
10
10
28
28
7C
44
EE
ENDCHAR
STARTCHAR uniE03C
ENCODING 57404
SWIDTH 667 0
DWIDTH 8 0
BBX 7 10 0 0
BITMAP
34
58
00
10
10
28
28
7C
44
EE
ENDCHAR
STARTCHAR uniE03D
ENCODING 57405
SWIDTH 667 0
DWIDTH 8 0
BBX 7 9 0 0
BITMAP
28
00
10
10
28
28
7C
44
EE
ENDCHAR
STARTCHAR uniE03E
ENCODING 57406
SWIDTH 667 0
DWIDTH 8 0
BBX 7 9 0 0
BITMAP
10
28
10
10
28
28
7C
44
EE
ENDCHAR
STARTCHAR uniE03F
ENCODING 57407
SWIDTH 667 0
DWIDTH 8 0
BBX 7 9 0 0
BITMAP
38
00
10
10
28
28
7C
44
EE
ENDCHAR
STARTCHAR uniE040
ENCODING 57408
SWIDTH 667 0
DWIDTH 8 0
BBX 7 10 0 0
BITMAP
44
38
00
10
10
28
28
7C
44
EE
ENDCHAR
STARTCHAR uniE041
ENCODING 57409
SWIDTH 667 0
DWIDTH 8 0
BBX 7 9 0 -2
BITMAP
10
10
28
28
7C
44
EE
04
02
ENDCHAR
STARTCHAR uniE042
ENCODING 57410
SWIDTH 500 0
DWIDTH 6 0
BBX 5 9 0 -2
BITMAP
38
48
80
80
80
48
30
20
40
ENDCHAR
STARTCHAR uniE043
ENCODING 57411
SWIDTH 500 0
DWIDTH 6 0
BBX 5 10 0 0
BITMAP
10
20
00
38
48
80
80
80
48
30
ENDCHAR
STARTCHAR uniE044
ENCODING 57412
SWIDTH 500 0
DWIDTH 6 0
BBX 5 10 0 0
BITMAP
10
28
00
38
48
80
80
80
48
30
ENDCHAR
STARTCHAR uniE045
ENCODING 57413
SWIDTH 500 0
DWIDTH 6 0
BBX 5 10 0 0
BITMAP
10
00
00
38
48
80
80
80
48
30
ENDCHAR
STARTCHAR uniE046
ENCODING 57414
SWIDTH 500 0
DWIDTH 6 0
BBX 5 10 0 0
BITMAP
28
10
00
38
48
80
80
80
48
30
ENDCHAR
STARTCHAR uniE047
ENCODING 57415
SWIDTH 583 0
DWIDTH 7 0
BBX 6 10 0 0
BITMAP
50
20
00
F0
48
44
44
44
48
F0
ENDCHAR
STARTCHAR uniE048
ENCODING 57416
SWIDTH 583 0
DWIDTH 7 0
BBX 6 7 0 0
BITMAP
F0
48
44
E4
44
48
F0
ENDCHAR
STARTCHAR uniE049
ENCODING 57417
SWIDTH 500 0
DWIDTH 6 0
BBX 5 10 0 0
BITMAP
40
20
00
F8
48
40
70
40
48
F8
ENDCHAR
STARTCHAR uniE04A
ENCODING 57418
SWIDTH 500 0
DWIDTH 6 0
BBX 5 10 0 0
BITMAP
10
20
00
F8
48
40
70
40
48
F8
ENDCHAR
STARTCHAR uniE04B
ENCODING 57419
SWIDTH 500 0
DWIDTH 6 0
BBX 5 10 0 0
BITMAP
20
50
00
F8
48
40
70
40
48
F8
ENDCHAR
STARTCHAR uniE04C
ENCODING 57420
SWIDTH 500 0
DWIDTH 6 0
BBX 5 9 0 0
BITMAP
50
00
F8
48
40
70
40
48
F8
ENDCHAR
STARTCHAR uniE04D
ENCODING 57421
SWIDTH 500 0
DWIDTH 6 0
BBX 5 9 0 0
BITMAP
70
00
F8
48
40
70
40
48
F8
ENDCHAR
STARTCHAR uniE04E
ENCODING 57422
SWIDTH 500 0
DWIDTH 6 0
BBX 5 10 0 0
BITMAP
48
30
00
F8
48
40
70
40
48
F8
ENDCHAR
STARTCHAR uniE04F
ENCODING 57423
SWIDTH 500 0
DWIDTH 6 0
BBX 5 10 0 0
BITMAP
20
00
00
F8
48
40
70
40
48
F8
ENDCHAR
STARTCHAR uniE050
ENCODING 57424
SWIDTH 500 0
DWIDTH 6 0
BBX 5 9 0 -2
BITMAP
F8
48
40
70
40
48
F8
20
10
ENDCHAR
STARTCHAR uniE051
ENCODING 57425
SWIDTH 500 0
DWIDTH 6 0
BBX 5 10 0 0
BITMAP
50
20
00
F8
48
40
70
40
48
F8
ENDCHAR
STARTCHAR uniE052
ENCODING 57426
SWIDTH 583 0
DWIDTH 7 0
BBX 6 10 0 0
BITMAP
10
28
00
38
48
80
9C
88
48
30
ENDCHAR
STARTCHAR uniE053
ENCODING 57427
SWIDTH 583 0
DWIDTH 7 0
BBX 6 10 0 0
BITMAP
48
30
00
38
48
80
9C
88
48
30
ENDCHAR
STARTCHAR uniE054
ENCODING 57428
SWIDTH 583 0
DWIDTH 7 0
BBX 6 9 0 0
BITMAP
10
00
38
48
80
9C
88
48
30
ENDCHAR
STARTCHAR uniE055
ENCODING 57429
SWIDTH 583 0
DWIDTH 7 0
BBX 6 10 0 -3
BITMAP
38
48
80
9C
88
48
30
00
10
20
ENDCHAR
STARTCHAR uniE056
ENCODING 57430
SWIDTH 583 0
DWIDTH 7 0
BBX 6 10 0 0
BITMAP
50
20
00
DC
48
48
78
48
48
DC
ENDCHAR
STARTCHAR uniE057
ENCODING 57431
SWIDTH 583 0
DWIDTH 7 0
BBX 6 7 0 0
BITMAP
DC
48
FC
48
78
48
DC
ENDCHAR
STARTCHAR uniE058
ENCODING 57432
SWIDTH 333 0
DWIDTH 4 0
BBX 3 10 0 0
BITMAP
80
40
00
E0
40
40
40
40
40
E0
ENDCHAR
STARTCHAR uniE059
ENCODING 57433
SWIDTH 333 0
DWIDTH 4 0
BBX 3 10 0 0
BITMAP
20
40
00
E0
40
40
40
40
40
E0
ENDCHAR
STARTCHAR uniE05A
ENCODING 57434
SWIDTH 333 0
DWIDTH 4 0
BBX 3 10 0 0
BITMAP
40
A0
00
E0
40
40
40
40
40
E0
ENDCHAR
STARTCHAR uniE05B
ENCODING 57435
SWIDTH 333 0
DWIDTH 4 0
BBX 3 9 0 0
BITMAP
A0
00
E0
40
40
40
40
40
E0
ENDCHAR
STARTCHAR uniE05C
ENCODING 57436
SWIDTH 333 0
DWIDTH 4 0
BBX 5 10 -1 0
BITMAP
68
B0
00
70
20
20
20
20
20
70
ENDCHAR
STARTCHAR uniE05D
ENCODING 57437
SWIDTH 333 0
DWIDTH 4 0
BBX 3 9 0 0
BITMAP
E0
00
E0
40
40
40
40
40
E0
ENDCHAR
STARTCHAR uniE05E
ENCODING 57438
SWIDTH 333 0
DWIDTH 4 0
BBX 5 10 -1 0
BITMAP
88
70
00
70
20
20
20
20
20
70
ENDCHAR
STARTCHAR uniE05F
ENCODING 57439
SWIDTH 333 0
DWIDTH 4 0
BBX 3 9 0 -2
BITMAP
E0
40
40
40
40
40
E0
40
20
ENDCHAR
STARTCHAR uniE060
ENCODING 57440
SWIDTH 333 0
DWIDTH 4 0
BBX 3 9 0 0
BITMAP
40
00
E0
40
40
40
40
40
E0
ENDCHAR
STARTCHAR uniE061
ENCODING 57441
SWIDTH 667 0
DWIDTH 8 0
BBX 7 9 0 -2
BITMAP
EE
44
44
44
44
44
E4
14
18
ENDCHAR
STARTCHAR uniE062
ENCODING 57442
SWIDTH 417 0
DWIDTH 5 0
BBX 5 12 -1 -2
BITMAP
10
28
00
70
20
20
20
20
20
20
A0
C0
ENDCHAR
STARTCHAR uniE063
ENCODING 57443
SWIDTH 583 0
DWIDTH 7 0
BBX 6 10 0 -3
BITMAP
EC
48
50
60
50
48
EC
00
10
20
ENDCHAR
STARTCHAR uniE064
ENCODING 57444
SWIDTH 500 0
DWIDTH 6 0
BBX 5 10 0 0
BITMAP
20
40
00
E0
40
40
40
40
48
F8
ENDCHAR
STARTCHAR uniE065
ENCODING 57445
SWIDTH 500 0
DWIDTH 6 0
BBX 5 10 0 -3
BITMAP
E0
40
40
40
40
48
F8
00
20
40
ENDCHAR
STARTCHAR uniE066
ENCODING 57446
SWIDTH 500 0
DWIDTH 6 0
BBX 6 8 0 0
BITMAP
04
E4
48
40
40
40
48
F8
ENDCHAR
STARTCHAR uniE067
ENCODING 57447
SWIDTH 500 0
DWIDTH 6 0
BBX 5 7 0 0
BITMAP
E0
40
40
50
40
48
F8
ENDCHAR
STARTCHAR uniE068
ENCODING 57448
SWIDTH 500 0
DWIDTH 6 0
BBX 5 7 0 0
BITMAP
E0
40
60
C0
40
48
F8
ENDCHAR
STARTCHAR uniE069
ENCODING 57449
SWIDTH 667 0
DWIDTH 8 0
BBX 7 10 0 0
BITMAP
08
10
00
CE
64
64
54
4C
4C
E4
ENDCHAR
STARTCHAR uniE06A
ENCODING 57450
SWIDTH 667 0
DWIDTH 8 0
BBX 7 10 0 -3
BITMAP
CE
64
64
54
4C
4C
E4
00
10
20
ENDCHAR
STARTCHAR uniE06B
ENCODING 57451
SWIDTH 667 0
DWIDTH 8 0
BBX 7 10 0 0
BITMAP
28
10
00
CE
64
64
54
4C
4C
E4
ENDCHAR
STARTCHAR uniE06C
ENCODING 57452
SWIDTH 583 0
DWIDTH 7 0
BBX 6 10 0 0
BITMAP
20
10
00
30
48
84
84
84
48
30
ENDCHAR
STARTCHAR uniE06D
ENCODING 57453
SWIDTH 583 0
DWIDTH 7 0
BBX 6 10 0 0
BITMAP
10
20
00
30
48
84
84
84
48
30
ENDCHAR
STARTCHAR uniE06E
ENCODING 57454
SWIDTH 583 0
DWIDTH 7 0
BBX 6 10 0 0
BITMAP
10
28
00
30
48
84
84
84
48
30
ENDCHAR
STARTCHAR uniE06F
ENCODING 57455
SWIDTH 583 0
DWIDTH 7 0
BBX 6 10 0 0
BITMAP
28
50
00
30
48
84
84
84
48
30
ENDCHAR
STARTCHAR uniE070
ENCODING 57456
SWIDTH 583 0
DWIDTH 7 0
BBX 6 9 0 0
BITMAP
48
00
30
48
84
84
84
48
30
ENDCHAR
STARTCHAR uniE071
ENCODING 57457
SWIDTH 583 0
DWIDTH 7 0
BBX 6 9 0 0
BITMAP
78
00
30
48
84
84
84
48
30
ENDCHAR
STARTCHAR uniE072
ENCODING 57458
SWIDTH 583 0
DWIDTH 7 0
BBX 6 10 0 0
BITMAP
48
30
00
30
48
84
84
84
48
30
ENDCHAR
STARTCHAR uniE073
ENCODING 57459
SWIDTH 583 0
DWIDTH 7 0
BBX 6 10 0 0
BITMAP
24
48
00
30
48
84
84
84
48
30
ENDCHAR
STARTCHAR uniE074
ENCODING 57460
SWIDTH 583 0
DWIDTH 7 0
BBX 6 10 0 0
BITMAP
10
20
00
F0
48
48
70
50
48
EC
ENDCHAR
STARTCHAR uniE075
ENCODING 57461
SWIDTH 583 0
DWIDTH 7 0
BBX 6 10 0 -3
BITMAP
F0
48
48
70
50
48
EC
00
10
20
ENDCHAR
STARTCHAR uniE076
ENCODING 57462
SWIDTH 583 0
DWIDTH 7 0
BBX 6 10 0 0
BITMAP
50
20
00
F0
48
48
70
50
48
EC
ENDCHAR
STARTCHAR uniE077
ENCODING 57463
SWIDTH 500 0
DWIDTH 6 0
BBX 5 10 0 0
BITMAP
10
20
00
68
98
80
70
08
C8
B0
ENDCHAR
STARTCHAR uniE078
ENCODING 57464
SWIDTH 500 0
DWIDTH 6 0
BBX 5 10 0 0
BITMAP
20
50
00
68
98
80
70
08
C8
B0
ENDCHAR
STARTCHAR uniE079
ENCODING 57465
SWIDTH 500 0
DWIDTH 6 0
BBX 5 9 0 -2
BITMAP
68
98
80
70
08
C8
B0
20
40
ENDCHAR
STARTCHAR uniE07A
ENCODING 57466
SWIDTH 500 0
DWIDTH 6 0
BBX 5 10 0 0
BITMAP
50
20
00
68
98
80
70
08
C8
B0
ENDCHAR
STARTCHAR uniE07B
ENCODING 57467
SWIDTH 500 0
DWIDTH 6 0
BBX 5 10 0 -3
BITMAP
68
98
80
70
08
C8
B0
00
20
40
ENDCHAR
STARTCHAR uniE07C
ENCODING 57468
SWIDTH 500 0
DWIDTH 6 0
BBX 5 9 0 -2
BITMAP
F8
A8
20
20
20
20
70
20
40
ENDCHAR
STARTCHAR uniE07D
ENCODING 57469
SWIDTH 500 0
DWIDTH 6 0
BBX 5 10 0 0
BITMAP
50
20
00
F8
A8
20
20
20
20
70
ENDCHAR
STARTCHAR uniE07E
ENCODING 57470
SWIDTH 500 0
DWIDTH 6 0
BBX 5 7 0 0
BITMAP
F8
A8
20
70
20
20
70
ENDCHAR
STARTCHAR uniE07F
ENCODING 57471
SWIDTH 500 0
DWIDTH 6 0
BBX 5 10 0 -3
BITMAP
F8
A8
20
20
20
20
70
00
20
40
ENDCHAR
STARTCHAR uniE080
ENCODING 57472
SWIDTH 583 0
DWIDTH 7 0
BBX 6 10 0 0
BITMAP
20
10
00
DC
48
48
48
48
48
30
ENDCHAR
STARTCHAR uniE081
ENCODING 57473
SWIDTH 583 0
DWIDTH 7 0
BBX 6 10 0 0
BITMAP
10
20
00
DC
48
48
48
48
48
30
ENDCHAR
STARTCHAR uniE082
ENCODING 57474
SWIDTH 583 0
DWIDTH 7 0
BBX 6 10 0 0
BITMAP
20
50
00
DC
48
48
48
48
48
30
ENDCHAR
STARTCHAR uniE083
ENCODING 57475
SWIDTH 583 0
DWIDTH 7 0
BBX 6 9 0 0
BITMAP
48
00
DC
48
48
48
48
48
30
ENDCHAR
STARTCHAR uniE084
ENCODING 57476
SWIDTH 583 0
DWIDTH 7 0
BBX 6 10 0 0
BITMAP
28
50
00
DC
48
48
48
48
48
30
ENDCHAR
STARTCHAR uniE085
ENCODING 57477
SWIDTH 583 0
DWIDTH 7 0
BBX 6 10 0 0
BITMAP
48
30
00
DC
48
48
48
48
48
30
ENDCHAR
STARTCHAR uniE086
ENCODING 57478
SWIDTH 583 0
DWIDTH 7 0
BBX 6 11 0 0
BITMAP
20
50
20
00
DC
48
48
48
48
48
30
ENDCHAR
STARTCHAR uniE087
ENCODING 57479
SWIDTH 583 0
DWIDTH 7 0
BBX 6 10 0 0
BITMAP
24
48
00
DC
48
48
48
48
48
30
ENDCHAR
STARTCHAR uniE088
ENCODING 57480
SWIDTH 583 0
DWIDTH 7 0
BBX 6 9 0 -2
BITMAP
DC
48
48
48
48
48
30
10
08
ENDCHAR
STARTCHAR uniE089
ENCODING 57481
SWIDTH 667 0
DWIDTH 8 0
BBX 7 10 0 0
BITMAP
10
28
00
EE
44
54
54
54
28
28
ENDCHAR
STARTCHAR uniE08A
ENCODING 57482
SWIDTH 667 0
DWIDTH 8 0
BBX 7 10 0 0
BITMAP
10
28
00
EE
44
28
10
10
10
38
ENDCHAR
STARTCHAR uniE08B
ENCODING 57483
SWIDTH 667 0
DWIDTH 8 0
BBX 7 9 0 0
BITMAP
28
00
EE
44
28
10
10
10
38
ENDCHAR
STARTCHAR uniE08C
ENCODING 57484
SWIDTH 500 0
DWIDTH 6 0
BBX 5 10 0 0
BITMAP
10
20
00
F8
88
10
20
40
88
F8
ENDCHAR
STARTCHAR uniE08D
ENCODING 57485
SWIDTH 500 0
DWIDTH 6 0
BBX 5 9 0 0
BITMAP
20
00
F8
88
10
20
40
88
F8
ENDCHAR
STARTCHAR uniE08E
ENCODING 57486
SWIDTH 500 0
DWIDTH 6 0
BBX 5 10 0 0
BITMAP
50
20
00
F8
88
10
20
40
88
F8
ENDCHAR
STARTCHAR uniE08F
ENCODING 57487
SWIDTH 667 0
DWIDTH 8 0
BBX 7 7 0 0
BITMAP
10
10
28
28
7C
44
EE
ENDCHAR
STARTCHAR uniE090
ENCODING 57488
SWIDTH 500 0
DWIDTH 6 0
BBX 5 7 0 0
BITMAP
F0
48
48
70
48
48
F0
ENDCHAR
STARTCHAR uniE091
ENCODING 57489
SWIDTH 500 0
DWIDTH 6 0
BBX 5 7 0 0
BITMAP
F8
48
40
40
40
40
E0
ENDCHAR
STARTCHAR uniE092
ENCODING 57490
SWIDTH 500 0
DWIDTH 6 0
BBX 5 7 0 0
BITMAP
20
20
50
50
88
88
F8
ENDCHAR
STARTCHAR uniE093
ENCODING 57491
SWIDTH 500 0
DWIDTH 6 0
BBX 5 7 0 0
BITMAP
F8
48
40
70
40
48
F8
ENDCHAR
STARTCHAR uniE094
ENCODING 57492
SWIDTH 500 0
DWIDTH 6 0
BBX 5 7 0 0
BITMAP
F8
88
10
20
40
88
F8
ENDCHAR
STARTCHAR uniE095
ENCODING 57493
SWIDTH 583 0
DWIDTH 7 0
BBX 6 7 0 0
BITMAP
DC
48
48
78
48
48
DC
ENDCHAR
STARTCHAR uniE096
ENCODING 57494
SWIDTH 583 0
DWIDTH 7 0
BBX 6 7 0 0
BITMAP
30
48
84
B4
84
48
30
ENDCHAR
STARTCHAR uniE097
ENCODING 57495
SWIDTH 333 0
DWIDTH 4 0
BBX 3 7 0 0
BITMAP
E0
40
40
40
40
40
E0
ENDCHAR
STARTCHAR uniE098
ENCODING 57496
SWIDTH 583 0
DWIDTH 7 0
BBX 6 7 0 0
BITMAP
EC
48
50
60
50
48
EC
ENDCHAR
STARTCHAR uniE099
ENCODING 57497
SWIDTH 583 0
DWIDTH 7 0
BBX 7 7 0 0
BITMAP
10
10
28
28
44
44
EE
ENDCHAR
STARTCHAR uniE09A
ENCODING 57498
SWIDTH 667 0
DWIDTH 8 0
BBX 7 7 0 0
BITMAP
C6
6C
6C
54
54
44
EE
ENDCHAR
STARTCHAR uniE09B
ENCODING 57499
SWIDTH 667 0
DWIDTH 8 0
BBX 7 7 0 0
BITMAP
CE
64
64
54
4C
4C
E4
ENDCHAR
STARTCHAR uniE09C
ENCODING 57500
SWIDTH 500 0
DWIDTH 6 0
BBX 5 7 0 0
BITMAP
F8
88
00
70
00
88
F8
ENDCHAR
STARTCHAR uniE09D
ENCODING 57501
SWIDTH 583 0
DWIDTH 7 0
BBX 6 7 0 0
BITMAP
30
48
84
84
84
48
30
ENDCHAR
STARTCHAR uniE09E
ENCODING 57502
SWIDTH 583 0
DWIDTH 7 0
BBX 6 7 0 0
BITMAP
FC
48
48
48
48
48
DC
ENDCHAR
STARTCHAR uniE09F
ENCODING 57503
SWIDTH 500 0
DWIDTH 6 0
BBX 5 7 0 0
BITMAP
F0
48
48
70
40
40
E0
ENDCHAR
STARTCHAR uniE0A0
ENCODING 57504
SWIDTH 500 0
DWIDTH 6 0
BBX 5 7 0 0
BITMAP
F8
88
40
20
40
88
F8
ENDCHAR
STARTCHAR uniE0A1
ENCODING 57505
SWIDTH 500 0
DWIDTH 6 0
BBX 5 7 0 0
BITMAP
F8
A8
20
20
20
20
70
ENDCHAR
STARTCHAR uniE0A2
ENCODING 57506
SWIDTH 667 0
DWIDTH 8 0
BBX 7 7 0 0
BITMAP
EE
44
28
10
10
10
38
ENDCHAR
STARTCHAR uniE0A3
ENCODING 57507
SWIDTH 500 0
DWIDTH 6 0
BBX 5 7 0 0
BITMAP
20
70
A8
A8
A8
70
20
ENDCHAR
STARTCHAR uniE0A4
ENCODING 57508
SWIDTH 667 0
DWIDTH 8 0
BBX 7 7 0 0
BITMAP
EE
44
28
10
28
44
EE
ENDCHAR
STARTCHAR uniE0A5
ENCODING 57509
SWIDTH 667 0
DWIDTH 8 0
BBX 7 7 0 0
BITMAP
92
54
54
54
38
10
38
ENDCHAR
STARTCHAR uniE0A6
ENCODING 57510
SWIDTH 583 0
DWIDTH 7 0
BBX 6 7 0 0
BITMAP
30
48
84
84
84
48
CC
ENDCHAR
STARTCHAR uniE0A7
ENCODING 57511
SWIDTH 667 0
DWIDTH 8 0
BBX 7 7 0 0
BITMAP
10
10
28
28
7C
44
EE
ENDCHAR
STARTCHAR uniE0A8
ENCODING 57512
SWIDTH 500 0
DWIDTH 6 0
BBX 5 7 0 0
BITMAP
F8
48
40
70
40
48
F8
ENDCHAR
STARTCHAR uniE0A9
ENCODING 57513
SWIDTH 583 0
DWIDTH 7 0
BBX 6 7 0 0
BITMAP
DC
48
48
78
48
48
DC
ENDCHAR
STARTCHAR uniE0AA
ENCODING 57514
SWIDTH 333 0
DWIDTH 4 0
BBX 3 7 0 0
BITMAP
E0
40
40
40
40
40
E0
ENDCHAR
STARTCHAR uniE0AB
ENCODING 57515
SWIDTH 583 0
DWIDTH 7 0
BBX 6 7 0 0
BITMAP
30
48
84
84
84
48
30
ENDCHAR
STARTCHAR uniE0AC
ENCODING 57516
SWIDTH 667 0
DWIDTH 8 0
BBX 7 7 0 0
BITMAP
EE
44
28
10
10
10
38
ENDCHAR
STARTCHAR uniE0AD
ENCODING 57517
SWIDTH 583 0
DWIDTH 7 0
BBX 6 7 0 0
BITMAP
30
48
84
84
84
48
CC
ENDCHAR
STARTCHAR uniE0AE
ENCODING 57518
SWIDTH 333 0
DWIDTH 4 0
BBX 3 9 0 0
BITMAP
A0
00
E0
40
40
40
40
40
E0
ENDCHAR
STARTCHAR uniE0AF
ENCODING 57519
SWIDTH 333 0
DWIDTH 4 0
BBX 3 9 0 0
BITMAP
A0
00
E0
40
40
40
40
40
E0
ENDCHAR
STARTCHAR uniE0B0
ENCODING 57520
SWIDTH 667 0
DWIDTH 8 0
BBX 7 9 0 0
BITMAP
28
00
EE
44
28
10
10
10
38
ENDCHAR
STARTCHAR uniE0B1
ENCODING 57521
SWIDTH 667 0
DWIDTH 8 0
BBX 7 9 0 0
BITMAP
28
00
EE
44
28
10
10
10
38
ENDCHAR
STARTCHAR uniE0B2
ENCODING 57522
SWIDTH 500 0
DWIDTH 6 0
BBX 5 9 0 0
BITMAP
50
00
F8
48
40
70
40
48
F8
ENDCHAR
STARTCHAR uniE0B3
ENCODING 57523
SWIDTH 667 0
DWIDTH 8 0
BBX 7 9 0 -2
BITMAP
FC
A4
20
2C
32
22
72
04
08
ENDCHAR
STARTCHAR uniE0B4
ENCODING 57524
SWIDTH 500 0
DWIDTH 6 0
BBX 5 10 0 0
BITMAP
10
20
00
F8
48
40
40
40
40
E0
ENDCHAR
STARTCHAR uniE0B5
ENCODING 57525
SWIDTH 500 0
DWIDTH 6 0
BBX 5 7 0 0
BITMAP
38
48
80
F0
80
48
30
ENDCHAR
STARTCHAR uniE0B6
ENCODING 57526
SWIDTH 583 0
DWIDTH 7 0
BBX 5 7 0 0
BITMAP
68
98
80
70
08
C8
B0
ENDCHAR
STARTCHAR uniE0B7
ENCODING 57527
SWIDTH 333 0
DWIDTH 4 0
BBX 3 7 0 0
BITMAP
E0
40
40
40
40
40
E0
ENDCHAR
STARTCHAR uniE0B8
ENCODING 57528
SWIDTH 333 0
DWIDTH 4 0
BBX 3 9 0 0
BITMAP
A0
00
E0
40
40
40
40
40
E0
ENDCHAR
STARTCHAR uniE0B9
ENCODING 57529
SWIDTH 417 0
DWIDTH 5 0
BBX 4 9 0 -2
BITMAP
70
20
20
20
20
20
20
A0
C0
ENDCHAR
STARTCHAR uniE0BA
ENCODING 57530
SWIDTH 750 0
DWIDTH 9 0
BBX 8 7 0 0
BITMAP
7C
28
28
2E
29
A9
CE
ENDCHAR
STARTCHAR uniE0BB
ENCODING 57531
SWIDTH 750 0
DWIDTH 9 0
BBX 8 7 0 0
BITMAP
DC
48
48
7E
49
49
DE
ENDCHAR
STARTCHAR uniE0BC
ENCODING 57532
SWIDTH 750 0
DWIDTH 9 0
BBX 8 7 0 0
BITMAP
FC
A4
20
2C
32
22
77
ENDCHAR
STARTCHAR uniE0BD
ENCODING 57533
SWIDTH 583 0
DWIDTH 7 0
BBX 6 10 0 0
BITMAP
08
10
00
EC
48
50
60
50
48
EC
ENDCHAR
STARTCHAR uniE0BE
ENCODING 57534
SWIDTH 667 0
DWIDTH 8 0
BBX 7 10 0 0
BITMAP
20
10
00
E6
4C
4C
54
64
64
CE
ENDCHAR
STARTCHAR uniE0BF
ENCODING 57535
SWIDTH 667 0
DWIDTH 8 0
BBX 7 10 0 0
BITMAP
44
38
00
EE
44
28
28
10
50
60
ENDCHAR
STARTCHAR uniE0C0
ENCODING 57536
SWIDTH 583 0
DWIDTH 7 0
BBX 6 8 0 -1
BITMAP
DC
48
48
48
48
48
FC
10
ENDCHAR
STARTCHAR uniE0C1
ENCODING 57537
SWIDTH 667 0
DWIDTH 8 0
BBX 7 7 0 0
BITMAP
10
10
28
28
7C
44
EE
ENDCHAR
STARTCHAR uniE0C2
ENCODING 57538
SWIDTH 500 0
DWIDTH 6 0
BBX 5 7 0 0
BITMAP
F8
48
40
70
48
48
F0
ENDCHAR
STARTCHAR uniE0C3
ENCODING 57539
SWIDTH 500 0
DWIDTH 6 0
BBX 5 7 0 0
BITMAP
F0
48
48
70
48
48
F0
ENDCHAR
STARTCHAR uniE0C4
ENCODING 57540
SWIDTH 500 0
DWIDTH 6 0
BBX 5 7 0 0
BITMAP
F8
48
40
40
40
40
E0
ENDCHAR
STARTCHAR uniE0C5
ENCODING 57541
SWIDTH 583 0
DWIDTH 7 0
BBX 6 8 0 -1
BITMAP
7C
28
28
28
28
48
FC
84
ENDCHAR
STARTCHAR uniE0C6
ENCODING 57542
SWIDTH 500 0
DWIDTH 6 0
BBX 5 7 0 0
BITMAP
F8
48
40
70
40
48
F8
ENDCHAR
STARTCHAR uniE0C7
ENCODING 57543
SWIDTH 833 0
DWIDTH 10 0
BBX 9 7 0 0
BITMAP
DD80
4900
2A00
1C00
2A00
4900
DD80
ENDCHAR
STARTCHAR uniE0C8
ENCODING 57544
SWIDTH 500 0
DWIDTH 6 0
BBX 5 7 0 0
BITMAP
B0
C8
08
30
08
88
70
ENDCHAR
STARTCHAR uniE0C9
ENCODING 57545
SWIDTH 667 0
DWIDTH 8 0
BBX 7 7 0 0
BITMAP
E6
4C
4C
54
64
64
CE
ENDCHAR
STARTCHAR uniE0CA
ENCODING 57546
SWIDTH 667 0
DWIDTH 8 0
BBX 7 10 0 0
BITMAP
44
38
00
E6
4C
4C
54
64
64
CE
ENDCHAR
STARTCHAR uniE0CB
ENCODING 57547
SWIDTH 583 0
DWIDTH 7 0
BBX 6 7 0 0
BITMAP
EC
48
50
60
50
48
EC
ENDCHAR
STARTCHAR uniE0CC
ENCODING 57548
SWIDTH 583 0
DWIDTH 7 0
BBX 6 7 0 0
BITMAP
7C
28
28
28
28
A8
CC
ENDCHAR
STARTCHAR uniE0CD
ENCODING 57549
SWIDTH 667 0
DWIDTH 8 0
BBX 7 7 0 0
BITMAP
C6
6C
6C
54
54
44
EE
ENDCHAR
STARTCHAR uniE0CE
ENCODING 57550
SWIDTH 583 0
DWIDTH 7 0
BBX 6 7 0 0
BITMAP
DC
48
48
78
48
48
DC
ENDCHAR
STARTCHAR uniE0CF
ENCODING 57551
SWIDTH 583 0
DWIDTH 7 0
BBX 6 7 0 0
BITMAP
30
48
84
84
84
48
30
ENDCHAR
STARTCHAR uniE0D0
ENCODING 57552
SWIDTH 583 0
DWIDTH 7 0
BBX 6 7 0 0
BITMAP
FC
48
48
48
48
48
DC
ENDCHAR
STARTCHAR uniE0D1
ENCODING 57553
SWIDTH 500 0
DWIDTH 6 0
BBX 5 7 0 0
BITMAP
F0
48
48
70
40
40
E0
ENDCHAR
STARTCHAR uniE0D2
ENCODING 57554
SWIDTH 500 0
DWIDTH 6 0
BBX 5 7 0 0
BITMAP
38
48
80
80
80
48
30
ENDCHAR
STARTCHAR uniE0D3
ENCODING 57555
SWIDTH 500 0
DWIDTH 6 0
BBX 5 7 0 0
BITMAP
F8
A8
20
20
20
20
70
ENDCHAR
STARTCHAR uniE0D4
ENCODING 57556
SWIDTH 667 0
DWIDTH 8 0
BBX 7 7 0 0
BITMAP
EE
44
28
28
10
50
60
ENDCHAR
STARTCHAR uniE0D5
ENCODING 57557
SWIDTH 500 0
DWIDTH 6 0
BBX 5 7 0 0
BITMAP
20
70
A8
A8
A8
70
20
ENDCHAR
STARTCHAR uniE0D6
ENCODING 57558
SWIDTH 667 0
DWIDTH 8 0
BBX 7 7 0 0
BITMAP
EE
44
28
10
28
44
EE
ENDCHAR
STARTCHAR uniE0D7
ENCODING 57559
SWIDTH 583 0
DWIDTH 7 0
BBX 6 8 0 -1
BITMAP
DC
48
48
48
48
48
FC
04
ENDCHAR
STARTCHAR uniE0D8
ENCODING 57560
SWIDTH 583 0
DWIDTH 7 0
BBX 6 7 0 0
BITMAP
DC
48
48
38
08
08
1C
ENDCHAR
STARTCHAR uniE0D9
ENCODING 57561
SWIDTH 833 0
DWIDTH 10 0
BBX 9 7 0 0
BITMAP
DB80
4900
4900
4900
4900
4900
FF80
ENDCHAR
STARTCHAR uniE0DA
ENCODING 57562
SWIDTH 833 0
DWIDTH 10 0
BBX 9 8 0 -1
BITMAP
DB80
4900
4900
4900
4900
4900
FF80
0080
ENDCHAR
STARTCHAR uniE0DB
ENCODING 57563
SWIDTH 583 0
DWIDTH 7 0
BBX 6 7 0 0
BITMAP
F0
A0
20
38
24
24
78
ENDCHAR
STARTCHAR uniE0DC
ENCODING 57564
SWIDTH 750 0
DWIDTH 9 0
BBX 8 7 0 0
BITMAP
E7
42
42
72
4A
4A
F3
ENDCHAR
STARTCHAR uniE0DD
ENCODING 57565
SWIDTH 500 0
DWIDTH 6 0
BBX 5 7 0 0
BITMAP
E0
40
40
70
48
48
F0
ENDCHAR
STARTCHAR uniE0DE
ENCODING 57566
SWIDTH 500 0
DWIDTH 6 0
BBX 5 7 0 0
BITMAP
E0
90
08
78
08
90
E0
ENDCHAR
STARTCHAR uniE0DF
ENCODING 57567
SWIDTH 667 0
DWIDTH 8 0
BBX 7 7 0 0
BITMAP
CC
52
52
72
52
52
CC
ENDCHAR
STARTCHAR uniE0E0
ENCODING 57568
SWIDTH 583 0
DWIDTH 7 0
BBX 6 7 0 0
BITMAP
3C
48
48
38
28
48
DC
ENDCHAR
STARTCHAR uniE0E1
ENCODING 57569
SWIDTH 417 0
DWIDTH 5 0
BBX 4 9 0 -1
BITMAP
70
20
20
20
20
20
20
A0
C0
ENDCHAR
STARTCHAR uniE0E2
ENCODING 57570
SWIDTH 417 0
DWIDTH 5 0
BBX 4 12 0 -1
BITMAP
20
50
00
70
20
20
20
20
20
20
A0
C0
ENDCHAR
STARTCHAR uniE0E3
ENCODING 57571
SWIDTH 417 0
DWIDTH 5 0
BBX 4 9 0 -1
BITMAP
70
20
20
20
20
20
20
A0
C0
ENDCHAR
STARTCHAR uniE0E4
ENCODING 57572
SWIDTH 417 0
DWIDTH 5 0
BBX 4 7 0 0
BITMAP
70
20
20
20
20
A0
C0
ENDCHAR
STARTCHAR uniE0E5
ENCODING 57573
SWIDTH 417 0
DWIDTH 5 0
BBX 4 10 0 0
BITMAP
20
50
00
70
20
20
20
20
A0
C0
ENDCHAR
STARTCHAR uniE0E6
ENCODING 57574
SWIDTH 417 0
DWIDTH 5 0
BBX 4 7 0 0
BITMAP
70
20
20
20
20
A0
C0
ENDCHAR
STARTCHAR uniE0E7
ENCODING 57575
SWIDTH 500 0
DWIDTH 6 0
BBX 5 8 0 0
BITMAP
70
88
98
A8
C8
88
88
70
ENDCHAR
STARTCHAR uniE0E8
ENCODING 57576
SWIDTH 667 0
DWIDTH 8 0
BBX 7 10 0 0
BITMAP
34
58
00
CE
64
64
54
4C
4C
E4
ENDCHAR
STARTCHAR uniE0E9
ENCODING 57577
SWIDTH 667 0
DWIDTH 8 0
BBX 12 11 0 -3
BITMAP
3800
4400
8200
8200
8200
8200
4400
3800
0400
0310
00E0
ENDCHAR
STARTCHAR uniE0EA
ENCODING 57578
SWIDTH 583 0
DWIDTH 7 0
BBX 11 10 0 -3
BITMAP
3000
4800
8400
8400
8400
4800
3000
0800
0620
01C0
ENDCHAR
STARTCHAR uniFB00
ENCODING 64256
SWIDTH 667 0
DWIDTH 8 0
BBX 7 9 0 0
BITMAP
36
4A
48
FE
48
48
48
48
DC
ENDCHAR
STARTCHAR uniFB01
ENCODING 64257
SWIDTH 583 0
DWIDTH 7 0
BBX 6 9 0 0
BITMAP
38
48
40
F8
48
48
48
48
DC
ENDCHAR
STARTCHAR uniFB02
ENCODING 64258
SWIDTH 583 0
DWIDTH 7 0
BBX 6 9 0 0
BITMAP
38
48
48
F8
48
48
48
48
DC
ENDCHAR
STARTCHAR uniFB03
ENCODING 64259
SWIDTH 833 0
DWIDTH 10 0
BBX 9 9 0 0
BITMAP
3700
4900
4800
FF00
4900
4900
4900
4900
DB80
ENDCHAR
STARTCHAR uniFB04
ENCODING 64260
SWIDTH 833 0
DWIDTH 10 0
BBX 9 9 0 0
BITMAP
3700
4900
4900
FF00
4900
4900
4900
4900
DB80
ENDCHAR
STARTCHAR uniFB05
ENCODING 64261
SWIDTH 667 0
DWIDTH 8 0
BBX 7 9 0 0
BITMAP
38
48
48
DE
48
48
48
4A
E6
ENDCHAR
STARTCHAR uniFB06
ENCODING 64262
SWIDTH 833 0
DWIDTH 10 0
BBX 9 9 0 0
BITMAP
0E00
1200
1200
7780
9200
4200
2200
9280
E180
ENDCHAR
ENDFONT
