STARTFONT 2.1
FONT Bm437_IBM_PS-55_re-32px
SIZE 32 75 75
FONTBOUNDINGBOX 13 29 0 -5
STARTPROPERTIES 3
PIXEL_SIZE 32
FONT_ASCENT 27
FONT_DESCENT 5
ENDPROPERTIES
CHARS 295
STARTCHAR uni0000
ENCODING 0
SWIDTH 406 0
DWIDTH 13 0
BBX 13 29 0 -5
BITMAP
0000
0000
0000
0000
0000
0000
0000
0000
0000
0000
0000
0000
0000
0000
0000
0000
0000
0000
0000
0000
0000
0000
0000
0000
0000
0000
0000
0000
0000
ENDCHAR
STARTCHAR uni0001
ENCODING 1
SWIDTH 406 0
DWIDTH 13 0
BBX 13 29 0 -5
BITMAP
0000
0000
0000
0000
0000
0000
0000
0FC0
1860
3030
2010
2CD0
2CD0
2010
2850
2CD0
2790
3030
1860
0FC0
0000
0000
0000
0000
0000
0000
0000
0000
0000
ENDCHAR
STARTCHAR uni0002
ENCODING 2
SWIDTH 406 0
DWIDTH 13 0
BBX 13 29 0 -5
BITMAP
0000
0000
0000
0000
0000
0000
0000
0FC0
1FE0
3FF0
3FF0
3330
3330
3FF0
37B0
3330
3870
3FF0
1FE0
0FC0
0000
0000
0000
0000
0000
0000
0000
0000
0000
ENDCHAR
STARTCHAR uni0003
ENCODING 3
SWIDTH 406 0
DWIDTH 13 0
BBX 13 29 0 -5
BITMAP
0000
0000
0000
0000
0000
0000
0000
0000
38E0
7DF0
7FF0
7FF0
7FF0
3FE0
3FE0
1FC0
0F80
0700
0200
0200
0000
0000
0000
0000
0000
0000
0000
0000
0000
ENDCHAR
STARTCHAR uni0004
ENCODING 4
SWIDTH 406 0
DWIDTH 13 0
BBX 13 29 0 -5
BITMAP
0000
0000
0000
0000
0000
0000
0000
0200
0200
0700
0700
0F80
0F80
1FC0
1FC0
0F80
0F80
0700
0700
0200
0200
0000
0000
0000
0000
0000
0000
0000
0000
ENDCHAR
STARTCHAR uni0005
ENCODING 5
SWIDTH 406 0
DWIDTH 13 0
BBX 13 29 0 -5
BITMAP
0000
0000
0000
0000
0000
0000
0000
0700
0F80
0F80
0F80
0700
3AE0
7FF0
7FF0
7FF0
3AE0
0200
0700
0F80
0000
0000
0000
0000
0000
0000
0000
0000
0000
ENDCHAR
STARTCHAR uni0006
ENCODING 6
SWIDTH 406 0
DWIDTH 13 0
BBX 13 29 0 -5
BITMAP
0000
0000
0000
0000
0000
0000
0000
0200
0700
0F80
1FC0
3FE0
3FE0
7FF0
7FF0
7FF0
3AE0
0200
0700
0F80
0000
0000
0000
0000
0000
0000
0000
0000
0000
ENDCHAR
STARTCHAR uni0007
ENCODING 7
SWIDTH 406 0
DWIDTH 13 0
BBX 13 29 0 -5
BITMAP
0000
0000
0000
0000
0000
0000
0000
0000
0000
0000
0780
0FC0
1FE0
1FE0
1FE0
1FE0
0FC0
0780
0000
0000
0000
0000
0000
0000
0000
0000
0000
0000
0000
ENDCHAR
STARTCHAR uni0008
ENCODING 8
SWIDTH 406 0
DWIDTH 13 0
BBX 13 29 0 -5
BITMAP
7FF8
7FF8
7FF8
7FF8
7FF8
7FF8
7FF8
7FF8
7FF8
7FF8
7878
7038
6018
6018
6018
6018
7038
7878
7FF8
7FF8
7FF8
7FF8
7FF8
7FF8
7FF8
7FF8
7FF8
7FF8
0000
ENDCHAR
STARTCHAR uni0009
ENCODING 9
SWIDTH 406 0
DWIDTH 13 0
BBX 13 29 0 -5
BITMAP
0000
0000
0000
0000
0000
0000
0000
0000
0000
0000
0780
0840
1020
1020
1020
1020
0840
0780
0000
0000
0000
0000
0000
0000
0000
0000
0000
0000
0000
ENDCHAR
STARTCHAR uni000A
ENCODING 10
SWIDTH 406 0
DWIDTH 13 0
BBX 13 29 0 -5
BITMAP
7FF8
7FF8
7FF8
7FF8
7FF8
7FF8
7FF8
7FF8
7FF8
7FF8
7878
77B8
6FD8
6FD8
6FD8
6FD8
77B8
7878
7FF8
7FF8
7FF8
7FF8
7FF8
7FF8
7FF8
7FF8
7FF8
7FF8
0000
ENDCHAR
STARTCHAR uni000B
ENCODING 11
SWIDTH 406 0
DWIDTH 13 0
BBX 13 29 0 -5
BITMAP
0000
0000
0000
0000
0000
0000
01F0
0070
0070
00D0
00D0
0190
0F80
1980
30C0
30C0
30C0
30C0
30C0
30C0
30C0
1980
0F00
0000
0000
0000
0000
0000
0000
ENDCHAR
STARTCHAR uni000C
ENCODING 12
SWIDTH 406 0
DWIDTH 13 0
BBX 13 29 0 -5
BITMAP
0000
0000
0000
0000
0000
0000
0780
0CC0
1860
1860
3030
3030
3030
1860
1860
0CC0
0780
0300
0300
0FC0
0FC0
0300
0300
0000
0000
0000
0000
0000
0000
ENDCHAR
STARTCHAR uni000D
ENCODING 13
SWIDTH 406 0
DWIDTH 13 0
BBX 13 29 0 -5
BITMAP
0000
0000
0000
0000
0200
0200
0300
0300
0380
03C0
02E0
0260
0230
0230
0210
0210
0210
0210
0220
0E00
1C00
3C00
3800
3000
0000
0000
0000
0000
0000
ENDCHAR
STARTCHAR uni000E
ENCODING 14
SWIDTH 406 0
DWIDTH 13 0
BBX 13 29 0 -5
BITMAP
0000
0000
0000
0000
0600
07C0
07F0
05F0
0430
0410
0410
0410
0410
0410
0410
0410
0410
1C10
3810
7870
70E0
61E0
01C0
0180
0000
0000
0000
0000
0000
ENDCHAR
STARTCHAR uni000F
ENCODING 15
SWIDTH 406 0
DWIDTH 13 0
BBX 13 29 0 -5
BITMAP
0000
0000
0000
0000
0000
0000
0000
0000
0200
4210
6230
3760
18C0
1040
7070
1040
18C0
3760
6230
4210
0200
0000
0000
0000
0000
0000
0000
0000
0000
ENDCHAR
STARTCHAR uni0010
ENCODING 16
SWIDTH 406 0
DWIDTH 13 0
BBX 13 29 0 -5
BITMAP
0000
0000
0000
0000
2000
3000
3800
3C00
3E00
3F00
3F80
3FC0
3FE0
3FF0
3FE0
3FC0
3F80
3F00
3E00
3C00
3800
3000
2000
0000
0000
0000
0000
0000
0000
ENDCHAR
STARTCHAR uni0011
ENCODING 17
SWIDTH 406 0
DWIDTH 13 0
BBX 13 29 0 -5
BITMAP
0000
0000
0000
0000
0010
0030
0070
00F0
01F0
03F0
07F0
0FF0
1FF0
3FF0
1FF0
0FF0
07F0
03F0
01F0
00F0
0070
0030
0010
0000
0000
0000
0000
0000
0000
ENDCHAR
STARTCHAR uni0012
ENCODING 18
SWIDTH 406 0
DWIDTH 13 0
BBX 13 29 0 -5
BITMAP
0000
0000
0000
0000
0000
0300
0780
0FC0
1B60
0300
0300
0300
0300
0300
0300
0300
0300
0300
0300
1B60
0FC0
0780
0300
0000
0000
0000
0000
0000
0000
ENDCHAR
STARTCHAR uni0013
ENCODING 19
SWIDTH 406 0
DWIDTH 13 0
BBX 13 29 0 -5
BITMAP
0000
0000
0000
0840
1CE0
1CE0
1CE0
1CE0
1CE0
1CE0
1CE0
1CE0
0840
0840
0840
0840
0840
0840
0840
0000
0000
0840
1CE0
1CE0
0840
0000
0000
0000
0000
ENDCHAR
STARTCHAR uni0014
ENCODING 20
SWIDTH 406 0
DWIDTH 13 0
BBX 13 29 0 -5
BITMAP
0000
0000
0000
0000
0FF8
3E60
7E60
7E60
7E60
7E60
7E60
3E60
1E60
0660
0660
0660
0660
0660
0660
0660
0660
0660
0660
0660
0000
0000
0000
0000
0000
ENDCHAR
STARTCHAR uni0015
ENCODING 21
SWIDTH 406 0
DWIDTH 13 0
BBX 13 29 0 -5
BITMAP
0000
0000
0000
0780
0C40
1860
1860
1800
0C00
0600
0700
0D80
18C0
1860
1860
0C60
0660
03C0
0180
00C0
0060
1860
1860
08C0
0780
0000
0000
0000
0000
ENDCHAR
STARTCHAR uni0016
ENCODING 22
SWIDTH 406 0
DWIDTH 13 0
BBX 13 29 0 -5
BITMAP
0000
0000
0000
0000
0000
0000
0000
0000
0000
0000
0000
0000
0000
0000
3FF0
3FF0
3FF0
3FF0
3FF0
3FF0
3FF0
0000
0000
0000
0000
0000
0000
0000
0000
ENDCHAR
STARTCHAR uni0017
ENCODING 23
SWIDTH 406 0
DWIDTH 13 0
BBX 13 29 0 -5
BITMAP
0000
0000
0000
0000
0000
0300
0780
0FC0
1B60
0300
0300
0300
0300
0300
0300
0300
0300
1B60
0FC0
0780
0300
0000
1FE0
1FE0
0000
0000
0000
0000
0000
ENDCHAR
STARTCHAR uni0018
ENCODING 24
SWIDTH 406 0
DWIDTH 13 0
BBX 13 29 0 -5
BITMAP
0000
0000
0000
0000
0000
0300
0780
0FC0
1B60
0300
0300
0300
0300
0300
0300
0300
0300
0300
0300
0300
0300
0300
0300
0000
0000
0000
0000
0000
0000
ENDCHAR
STARTCHAR uni0019
ENCODING 25
SWIDTH 406 0
DWIDTH 13 0
BBX 13 29 0 -5
BITMAP
0000
0000
0000
0000
0000
0300
0300
0300
0300
0300
0300
0300
0300
0300
0300
0300
0300
0300
0300
1B60
0FC0
0780
0300
0000
0000
0000
0000
0000
0000
ENDCHAR
STARTCHAR uni001A
ENCODING 26
SWIDTH 406 0
DWIDTH 13 0
BBX 13 29 0 -5
BITMAP
0000
0000
0000
0000
0000
0000
0000
0000
0000
0000
0040
0060
0030
7FF8
7FF8
0030
0060
0040
0000
0000
0000
0000
0000
0000
0000
0000
0000
0000
0000
ENDCHAR
STARTCHAR uni001B
ENCODING 27
SWIDTH 406 0
DWIDTH 13 0
BBX 13 29 0 -5
BITMAP
0000
0000
0000
0000
0000
0000
0000
0000
0000
0000
0800
1800
3000
7FF8
7FF8
3000
1800
0800
0000
0000
0000
0000
0000
0000
0000
0000
0000
0000
0000
ENDCHAR
STARTCHAR uni001C
ENCODING 28
SWIDTH 406 0
DWIDTH 13 0
BBX 13 29 0 -5
BITMAP
0000
0000
0000
0000
0000
0000
0000
0000
0000
2000
2000
2000
2000
2000
2000
2000
2000
2000
3FF0
0000
0000
0000
0000
0000
0000
0000
0000
0000
0000
ENDCHAR
STARTCHAR uni001D
ENCODING 29
SWIDTH 406 0
DWIDTH 13 0
BBX 13 29 0 -5
BITMAP
0000
0000
0000
0000
0000
0000
0000
0000
0000
0000
0840
1860
3030
7FF8
7FF8
3030
1860
0840
0000
0000
0000
0000
0000
0000
0000
0000
0000
0000
0000
ENDCHAR
STARTCHAR uni001E
ENCODING 30
SWIDTH 406 0
DWIDTH 13 0
BBX 13 29 0 -5
BITMAP
0000
0000
0000
0000
0000
0000
0000
0000
0000
0200
0700
0700
0F80
0F80
1FC0
1FC0
3FE0
3FE0
3FE0
0000
0000
0000
0000
0000
0000
0000
0000
0000
0000
ENDCHAR
STARTCHAR uni001F
ENCODING 31
SWIDTH 406 0
DWIDTH 13 0
BBX 13 29 0 -5
BITMAP
0000
0000
0000
0000
0000
0000
0000
0000
0000
3FE0
3FE0
3FE0
1FC0
1FC0
0F80
0F80
0700
0700
0200
0000
0000
0000
0000
0000
0000
0000
0000
0000
0000
ENDCHAR
STARTCHAR space
ENCODING 32
SWIDTH 406 0
DWIDTH 13 0
BBX 13 29 0 -5
BITMAP
0000
0000
0000
0000
0000
0000
0000
0000
0000
0000
0000
0000
0000
0000
0000
0000
0000
0000
0000
0000
0000
0000
0000
0000
0000
0000
0000
0000
0000
ENDCHAR
STARTCHAR exclam
ENCODING 33
SWIDTH 406 0
DWIDTH 13 0
BBX 13 29 0 -5
BITMAP
0000
0000
0000
0100
0380
0380
0380
0380
0380
0380
0380
0380
0100
0100
0100
0100
0100
0100
0100
0000
0000
0100
0380
0380
0100
0000
0000
0000
0000
ENDCHAR
STARTCHAR quotedbl
ENCODING 34
SWIDTH 406 0
DWIDTH 13 0
BBX 13 29 0 -5
BITMAP
0000
0000
0000
0000
1CE0
1CE0
1CE0
0840
0840
0840
0000
0000
0000
0000
0000
0000
0000
0000
0000
0000
0000
0000
0000
0000
0000
0000
0000
0000
0000
ENDCHAR
STARTCHAR numbersign
ENCODING 35
SWIDTH 406 0
DWIDTH 13 0
BBX 13 29 0 -5
BITMAP
0000
0000
0000
0000
0000
0000
00C0
18C0
18C0
18F0
1FC0
78C0
18C0
18C0
18C0
18F0
1FC0
78C0
18C0
18C0
18C0
18C0
1800
0000
0000
0000
0000
0000
0000
ENDCHAR
STARTCHAR dollar
ENCODING 36
SWIDTH 406 0
DWIDTH 13 0
BBX 13 29 0 -5
BITMAP
0000
0000
0000
0000
0300
0300
1FE0
3330
6318
6318
6300
6300
3300
1F00
07C0
03E0
0330
0318
6318
6318
6318
3330
1FE0
0300
0300
0000
0000
0000
0000
ENDCHAR
STARTCHAR percent
ENCODING 37
SWIDTH 406 0
DWIDTH 13 0
BBX 13 29 0 -5
BITMAP
0000
0000
0000
0000
1800
2410
6630
6620
6660
6640
66C0
2580
1900
0300
0200
0600
04C0
0D20
1B30
1330
3330
2330
6330
4120
00C0
0000
0000
0000
0000
ENDCHAR
STARTCHAR ampersand
ENCODING 38
SWIDTH 406 0
DWIDTH 13 0
BBX 13 29 0 -5
BITMAP
0000
0000
0000
0000
0E00
1100
2100
2100
2100
3200
1400
1800
1C00
2400
2600
6200
6338
6190
6190
60E0
6060
60E0
33B0
1E18
0000
0000
0000
0000
0000
ENDCHAR
STARTCHAR quotesingle
ENCODING 39
SWIDTH 406 0
DWIDTH 13 0
BBX 13 29 0 -5
BITMAP
0000
0000
0000
0000
0380
0380
0380
0380
0100
0100
0100
0000
0000
0000
0000
0000
0000
0000
0000
0000
0000
0000
0000
0000
0000
0000
0000
0000
0000
ENDCHAR
STARTCHAR parenleft
ENCODING 40
SWIDTH 406 0
DWIDTH 13 0
BBX 13 29 0 -5
BITMAP
0000
0000
0010
0020
0040
00C0
0080
0180
0180
0300
0300
0300
0300
0300
0300
0300
0300
0300
0300
0180
0180
0080
00C0
0040
0020
0010
0000
0000
0000
ENDCHAR
STARTCHAR parenright
ENCODING 41
SWIDTH 406 0
DWIDTH 13 0
BBX 13 29 0 -5
BITMAP
0000
0000
2000
1000
0800
0C00
0400
0600
0600
0300
0300
0300
0300
0300
0300
0300
0300
0300
0300
0600
0600
0400
0C00
0800
1000
2000
0000
0000
0000
ENDCHAR
STARTCHAR asterisk
ENCODING 42
SWIDTH 406 0
DWIDTH 13 0
BBX 13 29 0 -5
BITMAP
0000
0000
0000
0000
0000
0000
0200
0700
0700
6230
7270
3260
0880
0000
0000
0880
3260
7270
6230
0700
0700
0200
0000
0000
0000
0000
0000
0000
0000
ENDCHAR
STARTCHAR plus
ENCODING 43
SWIDTH 406 0
DWIDTH 13 0
BBX 13 29 0 -5
BITMAP
0000
0000
0000
0000
0000
0000
0000
0000
0000
0300
0300
0300
0300
3FF0
3FF0
0300
0300
0300
0300
0000
0000
0000
0000
0000
0000
0000
0000
0000
0000
ENDCHAR
STARTCHAR comma
ENCODING 44
SWIDTH 406 0
DWIDTH 13 0
BBX 13 29 0 -5
BITMAP
0000
0000
0000
0000
0000
0000
0000
0000
0000
0000
0000
0000
0000
0000
0000
0000
0000
0000
0000
0600
0F00
0F00
0700
0300
0600
0C00
0000
0000
0000
ENDCHAR
STARTCHAR hyphen
ENCODING 45
SWIDTH 406 0
DWIDTH 13 0
BBX 13 29 0 -5
BITMAP
0000
0000
0000
0000
0000
0000
0000
0000
0000
0000
0000
0000
0000
3FF0
3FF0
0000
0000
0000
0000
0000
0000
0000
0000
0000
0000
0000
0000
0000
0000
ENDCHAR
STARTCHAR period
ENCODING 46
SWIDTH 406 0
DWIDTH 13 0
BBX 13 29 0 -5
BITMAP
0000
0000
0000
0000
0000
0000
0000
0000
0000
0000
0000
0000
0000
0000
0000
0000
0000
0000
0000
0000
0600
0F00
0F00
0600
0000
0000
0000
0000
0000
ENDCHAR
STARTCHAR slash
ENCODING 47
SWIDTH 406 0
DWIDTH 13 0
BBX 13 29 0 -5
BITMAP
0000
0000
0000
0010
0030
0020
0060
0040
00C0
0080
0180
0100
0300
0200
0600
0400
0C00
0800
1800
1000
3000
2000
6000
4000
0000
0000
0000
0000
0000
ENDCHAR
STARTCHAR zero
ENCODING 48
SWIDTH 406 0
DWIDTH 13 0
BBX 13 29 0 -5
BITMAP
0000
0000
0000
0000
0700
0D80
18C0
18C0
3060
3060
6030
6030
6030
6030
6030
6030
6030
6030
3060
3060
18C0
18C0
0D80
0700
0000
0000
0000
0000
0000
ENDCHAR
STARTCHAR one
ENCODING 49
SWIDTH 406 0
DWIDTH 13 0
BBX 13 29 0 -5
BITMAP
0000
0000
0000
0000
0300
0F00
3F00
0300
0300
0300
0300
0300
0300
0300
0300
0300
0300
0300
0300
0300
0300
0300
0300
1FE0
0000
0000
0000
0000
0000
ENDCHAR
STARTCHAR two
ENCODING 50
SWIDTH 406 0
DWIDTH 13 0
BBX 13 29 0 -5
BITMAP
0000
0000
0000
0000
0F80
18C0
3060
7030
7030
3030
0030
0060
0060
00C0
0180
0300
0600
0C00
1800
3800
3010
7010
7FF0
7FF0
0000
0000
0000
0000
0000
ENDCHAR
STARTCHAR three
ENCODING 51
SWIDTH 406 0
DWIDTH 13 0
BBX 13 29 0 -5
BITMAP
0000
0000
0000
0000
0780
1CE0
3870
3830
1830
0030
0060
00C0
0180
0700
01C0
0060
0030
0030
0030
3030
7030
7070
38E0
1F80
0000
0000
0000
0000
0000
ENDCHAR
STARTCHAR four
ENCODING 52
SWIDTH 406 0
DWIDTH 13 0
BBX 13 29 0 -5
BITMAP
0000
0000
0000
0000
00C0
01C0
01C0
03C0
02C0
06C0
04C0
0CC0
08C0
18C0
10C0
30C0
20C0
60C0
7FF8
00C0
00C0
00C0
00C0
03F0
0000
0000
0000
0000
0000
ENDCHAR
STARTCHAR five
ENCODING 53
SWIDTH 406 0
DWIDTH 13 0
BBX 13 29 0 -5
BITMAP
0000
0000
0000
0000
3FE0
3FE0
3000
3000
3000
3000
3000
3380
34C0
3860
2060
0030
0030
0030
0030
3030
7060
7060
38C0
1F80
0000
0000
0000
0000
0000
ENDCHAR
STARTCHAR six
ENCODING 54
SWIDTH 406 0
DWIDTH 13 0
BBX 13 29 0 -5
BITMAP
0000
0000
0000
0000
0F80
19C0
30E0
30E0
60C0
6000
6000
6780
68C0
7060
6060
6030
6030
6030
6030
6030
3060
3060
18C0
0F80
0000
0000
0000
0000
0000
ENDCHAR
STARTCHAR seven
ENCODING 55
SWIDTH 406 0
DWIDTH 13 0
BBX 13 29 0 -5
BITMAP
0000
0000
0000
0000
3FF0
7FF0
6030
4020
4060
0040
00C0
0080
0180
0180
0300
0300
0300
0600
0600
0600
0600
0600
0600
0600
0000
0000
0000
0000
0000
ENDCHAR
STARTCHAR eight
ENCODING 56
SWIDTH 406 0
DWIDTH 13 0
BBX 13 29 0 -5
BITMAP
0000
0000
0000
0000
0F80
18C0
3060
3060
3060
3060
18C0
0D80
0700
0F80
18C0
3060
6030
6030
6030
6030
6030
3060
18C0
0F80
0000
0000
0000
0000
0000
ENDCHAR
STARTCHAR nine
ENCODING 57
SWIDTH 406 0
DWIDTH 13 0
BBX 13 29 0 -5
BITMAP
0000
0000
0000
0000
0F80
18C0
3060
3060
6030
6030
6030
6030
6030
3030
3070
18B0
0F30
0030
0030
1830
3860
3860
1CC0
0F80
0000
0000
0000
0000
0000
ENDCHAR
STARTCHAR colon
ENCODING 58
SWIDTH 406 0
DWIDTH 13 0
BBX 13 29 0 -5
BITMAP
0000
0000
0000
0000
0000
0000
0000
0000
0300
0780
0780
0300
0000
0000
0000
0000
0300
0780
0780
0300
0000
0000
0000
0000
0000
0000
0000
0000
0000
ENDCHAR
STARTCHAR semicolon
ENCODING 59
SWIDTH 406 0
DWIDTH 13 0
BBX 13 29 0 -5
BITMAP
0000
0000
0000
0000
0000
0000
0000
0000
0300
0780
0780
0300
0000
0000
0000
0000
0300
0780
0780
0380
0180
0300
0600
0000
0000
0000
0000
0000
0000
ENDCHAR
STARTCHAR less
ENCODING 60
SWIDTH 406 0
DWIDTH 13 0
BBX 13 29 0 -5
BITMAP
0000
0000
0000
0000
0000
0030
0060
00C0
0180
0300
0600
0C00
1800
3000
6000
3000
1800
0C00
0600
0300
0180
00C0
0060
0030
0000
0000
0000
0000
0000
ENDCHAR
STARTCHAR equal
ENCODING 61
SWIDTH 406 0
DWIDTH 13 0
BBX 13 29 0 -5
BITMAP
0000
0000
0000
0000
0000
0000
0000
0000
0000
0000
3FF0
3FF0
0000
0000
0000
0000
3FF0
3FF0
0000
0000
0000
0000
0000
0000
0000
0000
0000
0000
0000
ENDCHAR
STARTCHAR greater
ENCODING 62
SWIDTH 406 0
DWIDTH 13 0
BBX 13 29 0 -5
BITMAP
0000
0000
0000
0000
0000
6000
3000
1800
0C00
0600
0300
0180
00C0
0060
0030
0060
00C0
0180
0300
0600
0C00
1800
3000
6000
0000
0000
0000
0000
0000
ENDCHAR
STARTCHAR question
ENCODING 63
SWIDTH 406 0
DWIDTH 13 0
BBX 13 29 0 -5
BITMAP
0000
0000
0000
0000
07C0
0C60
1830
3830
3830
1030
0060
0060
00C0
0080
0180
0100
0100
0100
0100
0000
0000
0100
0380
0380
0100
0000
0000
0000
0000
ENDCHAR
STARTCHAR at
ENCODING 64
SWIDTH 406 0
DWIDTH 13 0
BBX 13 29 0 -5
BITMAP
0000
0000
0000
0000
0F80
1040
2020
4010
4790
4CD0
58D0
58D0
58D0
58D0
58D0
58D0
58D0
5FD0
4E60
4000
4000
2010
1020
0FC0
0000
0000
0000
0000
0000
ENDCHAR
STARTCHAR A
ENCODING 65
SWIDTH 406 0
DWIDTH 13 0
BBX 13 29 0 -5
BITMAP
0000
0000
0000
0000
0300
0300
0580
0580
0480
0480
0CC0
0CC0
0840
0840
1860
1860
1FE0
1860
1020
3030
3030
3030
3030
7878
0000
0000
0000
0000
0000
ENDCHAR
STARTCHAR B
ENCODING 66
SWIDTH 406 0
DWIDTH 13 0
BBX 13 29 0 -5
BITMAP
0000
0000
0000
0000
7F00
3180
30C0
3060
3060
3060
3060
30C0
3180
3F00
31C0
3060
3060
3030
3030
3030
3060
3060
30C0
7F80
0000
0000
0000
0000
0000
ENDCHAR
STARTCHAR C
ENCODING 67
SWIDTH 406 0
DWIDTH 13 0
BBX 13 29 0 -5
BITMAP
0000
0000
0000
0000
0F90
18F0
3070
3030
6010
6000
6000
6000
6000
6000
6000
6000
6000
6000
6000
6030
3030
3060
18C0
0F80
0000
0000
0000
0000
0000
ENDCHAR
STARTCHAR D
ENCODING 68
SWIDTH 406 0
DWIDTH 13 0
BBX 13 29 0 -5
BITMAP
0000
0000
0000
0000
7F00
3180
30C0
3060
3060
3030
3030
3030
3030
3030
3030
3030
3030
3030
3030
3060
3060
30C0
3180
7F00
0000
0000
0000
0000
0000
ENDCHAR
STARTCHAR E
ENCODING 69
SWIDTH 406 0
DWIDTH 13 0
BBX 13 29 0 -5
BITMAP
0000
0000
0000
0000
7FF0
3070
3030
3010
3010
3000
3080
3080
3180
3F80
3180
3080
3080
3000
3000
3010
3010
3030
3070
7FF0
0000
0000
0000
0000
0000
ENDCHAR
STARTCHAR F
ENCODING 70
SWIDTH 406 0
DWIDTH 13 0
BBX 13 29 0 -5
BITMAP
0000
0000
0000
0000
7FF0
3070
3030
3010
3010
3000
3080
3080
3180
3F80
3180
3080
3080
3000
3000
3000
3000
3000
3000
7800
0000
0000
0000
0000
0000
ENDCHAR
STARTCHAR G
ENCODING 71
SWIDTH 406 0
DWIDTH 13 0
BBX 13 29 0 -5
BITMAP
0000
0000
0000
0000
0F20
19E0
3060
3020
6020
6000
6000
6000
6000
60F0
6060
6060
6060
6060
6060
6060
30E0
31E0
1B60
0E60
0000
0000
0000
0000
0000
ENDCHAR
STARTCHAR H
ENCODING 72
SWIDTH 406 0
DWIDTH 13 0
BBX 13 29 0 -5
BITMAP
0000
0000
0000
0000
78F0
3060
3060
3060
3060
3060
3060
3060
3060
3FE0
3060
3060
3060
3060
3060
3060
3060
3060
3060
78F0
0000
0000
0000
0000
0000
ENDCHAR
STARTCHAR I
ENCODING 73
SWIDTH 406 0
DWIDTH 13 0
BBX 13 29 0 -5
BITMAP
0000
0000
0000
0000
1FE0
0300
0300
0300
0300
0300
0300
0300
0300
0300
0300
0300
0300
0300
0300
0300
0300
0300
0300
1FE0
0000
0000
0000
0000
0000
ENDCHAR
STARTCHAR J
ENCODING 74
SWIDTH 406 0
DWIDTH 13 0
BBX 13 29 0 -5
BITMAP
0000
0000
0000
0000
03F0
00C0
00C0
00C0
00C0
00C0
00C0
00C0
00C0
00C0
00C0
00C0
00C0
00C0
30C0
78C0
70C0
60C0
3380
1F00
0000
0000
0000
0000
0000
ENDCHAR
STARTCHAR K
ENCODING 75
SWIDTH 406 0
DWIDTH 13 0
BBX 13 29 0 -5
BITMAP
0000
0000
0000
0000
79F0
30C0
30C0
3180
3180
3300
3300
3600
3600
3E00
3E00
3B00
3B00
3180
3180
30C0
30C0
3060
3060
78F8
0000
0000
0000
0000
0000
ENDCHAR
STARTCHAR L
ENCODING 76
SWIDTH 406 0
DWIDTH 13 0
BBX 13 29 0 -5
BITMAP
0000
0000
0000
0000
7800
3000
3000
3000
3000
3000
3000
3000
3000
3000
3000
3000
3000
3000
3000
3010
3010
3030
3070
7FF0
0000
0000
0000
0000
0000
ENDCHAR
STARTCHAR M
ENCODING 77
SWIDTH 406 0
DWIDTH 13 0
BBX 13 29 0 -5
BITMAP
0000
0000
0000
0000
7038
3030
3030
3030
3870
3870
3870
3870
3CF0
34B0
34B0
37B0
3330
3330
3330
3030
3030
3030
3030
7878
0000
0000
0000
0000
0000
ENDCHAR
STARTCHAR N
ENCODING 78
SWIDTH 406 0
DWIDTH 13 0
BBX 13 29 0 -5
BITMAP
0000
0000
0000
0000
70F0
3060
3060
3860
3860
3860
3C60
3460
3660
3260
3360
3160
31E0
30E0
30E0
30E0
3060
3060
3020
7820
0000
0000
0000
0000
0000
ENDCHAR
STARTCHAR O
ENCODING 79
SWIDTH 406 0
DWIDTH 13 0
BBX 13 29 0 -5
BITMAP
0000
0000
0000
0000
0F80
18C0
3060
6030
6030
6030
6030
6030
6030
6030
6030
6030
6030
6030
6030
6030
6030
3060
18C0
0F80
0000
0000
0000
0000
0000
ENDCHAR
STARTCHAR P
ENCODING 80
SWIDTH 406 0
DWIDTH 13 0
BBX 13 29 0 -5
BITMAP
0000
0000
0000
0000
7F00
31C0
3060
3060
3030
3030
3030
3060
3060
31C0
3F00
3000
3000
3000
3000
3000
3000
3000
3000
7800
0000
0000
0000
0000
0000
ENDCHAR
STARTCHAR Q
ENCODING 81
SWIDTH 406 0
DWIDTH 13 0
BBX 13 29 0 -5
BITMAP
0000
0000
0000
0000
0F80
18C0
3060
6030
6030
6030
6030
6030
6030
6030
6030
6030
6030
6030
6030
6630
6330
31B0
18E0
0F60
0038
0000
0000
0000
0000
ENDCHAR
STARTCHAR R
ENCODING 82
SWIDTH 406 0
DWIDTH 13 0
BBX 13 29 0 -5
BITMAP
0000
0000
0000
0000
7F00
31C0
30C0
3060
3060
3060
3060
30C0
31C0
3F00
3600
3600
3300
3300
3180
3180
30C0
30C0
3060
78F0
0000
0000
0000
0000
0000
ENDCHAR
STARTCHAR S
ENCODING 83
SWIDTH 406 0
DWIDTH 13 0
BBX 13 29 0 -5
BITMAP
0000
0000
0000
0000
0F20
39E0
60E0
6060
6020
7000
3800
1C00
0E00
0700
0380
01C0
00E0
0070
4030
6030
7030
7860
6CC0
4780
0000
0000
0000
0000
0000
ENDCHAR
STARTCHAR T
ENCODING 84
SWIDTH 406 0
DWIDTH 13 0
BBX 13 29 0 -5
BITMAP
0000
0000
0000
0000
7FF8
7338
6318
4308
4308
0300
0300
0300
0300
0300
0300
0300
0300
0300
0300
0300
0300
0300
0300
0FC0
0000
0000
0000
0000
0000
ENDCHAR
STARTCHAR U
ENCODING 85
SWIDTH 406 0
DWIDTH 13 0
BBX 13 29 0 -5
BITMAP
0000
0000
0000
0000
78F0
3060
3060
3060
3060
3060
3060
3060
3060
3060
3060
3060
3060
3060
3060
3060
3060
3060
18C0
0F80
0000
0000
0000
0000
0000
ENDCHAR
STARTCHAR V
ENCODING 86
SWIDTH 406 0
DWIDTH 13 0
BBX 13 29 0 -5
BITMAP
0000
0000
0000
0000
78F0
3060
3060
3060
3060
3060
18C0
18C0
18C0
18C0
18C0
18C0
0D80
0D80
0D80
0D80
0700
0700
0700
0200
0000
0000
0000
0000
0000
ENDCHAR
STARTCHAR W
ENCODING 87
SWIDTH 406 0
DWIDTH 13 0
BBX 13 29 0 -5
BITMAP
0000
0000
0000
0000
7878
3030
3030
3030
3030
3030
3030
3030
1320
1320
1320
1320
1320
1B60
1B60
1B60
0CC0
0CC0
0CC0
0CC0
0000
0000
0000
0000
0000
ENDCHAR
STARTCHAR X
ENCODING 88
SWIDTH 406 0
DWIDTH 13 0
BBX 13 29 0 -5
BITMAP
0000
0000
0000
0000
7878
3030
3030
1860
1860
0CC0
0CC0
0780
0780
0300
0300
0780
0780
0CC0
0CC0
1860
1860
3030
3030
7878
0000
0000
0000
0000
0000
ENDCHAR
STARTCHAR Y
ENCODING 89
SWIDTH 406 0
DWIDTH 13 0
BBX 13 29 0 -5
BITMAP
0000
0000
0000
0000
7878
3030
3030
1860
1860
1860
0CC0
0CC0
0CC0
0780
0780
0300
0300
0300
0300
0300
0300
0300
0300
0FC0
0000
0000
0000
0000
0000
ENDCHAR
STARTCHAR Z
ENCODING 90
SWIDTH 406 0
DWIDTH 13 0
BBX 13 29 0 -5
BITMAP
0000
0000
0000
0000
7FE0
7060
60E0
40C0
4180
0180
0300
0300
0600
0600
0C00
0C00
1800
1800
3000
3010
6010
6030
6070
7FF0
0000
0000
0000
0000
0000
ENDCHAR
STARTCHAR bracketleft
ENCODING 91
SWIDTH 406 0
DWIDTH 13 0
BBX 13 29 0 -5
BITMAP
0000
0000
03F0
0200
0200
0200
0200
0200
0200
0200
0200
0200
0200
0200
0200
0200
0200
0200
0200
0200
0200
0200
0200
0200
0200
03F0
0000
0000
0000
ENDCHAR
STARTCHAR backslash
ENCODING 92
SWIDTH 406 0
DWIDTH 13 0
BBX 13 29 0 -5
BITMAP
0000
0000
0000
4000
4000
6000
2000
3000
1000
1800
0800
0C00
0400
0600
0200
0300
0100
0180
0080
00C0
0040
0060
0020
0030
0018
0000
0000
0000
0000
ENDCHAR
STARTCHAR bracketright
ENCODING 93
SWIDTH 406 0
DWIDTH 13 0
BBX 13 29 0 -5
BITMAP
0000
0000
3F00
0100
0100
0100
0100
0100
0100
0100
0100
0100
0100
0100
0100
0100
0100
0100
0100
0100
0100
0100
0100
0100
0100
3F00
0000
0000
0000
ENDCHAR
STARTCHAR asciicircum
ENCODING 94
SWIDTH 406 0
DWIDTH 13 0
BBX 13 29 0 -5
BITMAP
0000
0000
0000
0300
0780
0CC0
1860
3030
2010
0000
0000
0000
0000
0000
0000
0000
0000
0000
0000
0000
0000
0000
0000
0000
0000
0000
0000
0000
0000
ENDCHAR
STARTCHAR underscore
ENCODING 95
SWIDTH 406 0
DWIDTH 13 0
BBX 13 29 0 -5
BITMAP
0000
0000
0000
0000
0000
0000
0000
0000
0000
0000
0000
0000
0000
0000
0000
0000
0000
0000
0000
0000
0000
0000
0000
0000
0000
7FF8
0000
0000
0000
ENDCHAR
STARTCHAR grave
ENCODING 96
SWIDTH 406 0
DWIDTH 13 0
BBX 13 29 0 -5
BITMAP
0000
0000
0C00
1E00
0780
00E0
0000
0000
0000
0000
0000
0000
0000
0000
0000
0000
0000
0000
0000
0000
0000
0000
0000
0000
0000
0000
0000
0000
0000
ENDCHAR
STARTCHAR a
ENCODING 97
SWIDTH 406 0
DWIDTH 13 0
BBX 13 29 0 -5
BITMAP
0000
0000
0000
0000
0000
0000
0000
0000
0000
0000
0000
1F80
30C0
7860
3060
0060
07E0
1C60
3060
6060
6060
6060
71E0
1F30
0000
0000
0000
0000
0000
ENDCHAR
STARTCHAR b
ENCODING 98
SWIDTH 406 0
DWIDTH 13 0
BBX 13 29 0 -5
BITMAP
0000
0000
0000
0000
7000
3000
3000
3000
3000
3000
3000
3780
3CC0
3860
3060
3030
3030
3030
3030
3030
3060
3860
3CC0
6780
0000
0000
0000
0000
0000
ENDCHAR
STARTCHAR c
ENCODING 99
SWIDTH 406 0
DWIDTH 13 0
BBX 13 29 0 -5
BITMAP
0000
0000
0000
0000
0000
0000
0000
0000
0000
0000
0000
0F80
18E0
3070
30F0
6060
6000
6000
6000
6000
3000
3030
1860
0FC0
0000
0000
0000
0000
0000
ENDCHAR
STARTCHAR d
ENCODING 100
SWIDTH 406 0
DWIDTH 13 0
BBX 13 29 0 -5
BITMAP
0000
0000
0000
0000
0070
0030
0030
0030
0030
0030
0030
0FB0
18F0
3070
3030
6030
6030
6030
6030
6030
3030
3070
18F0
0F90
0000
0000
0000
0000
0000
ENDCHAR
STARTCHAR e
ENCODING 101
SWIDTH 406 0
DWIDTH 13 0
BBX 13 29 0 -5
BITMAP
0000
0000
0000
0000
0000
0000
0000
0000
0000
0000
0000
0F80
18C0
3060
3060
6030
6030
7FF0
6000
6000
3000
3030
1860
0FC0
0000
0000
0000
0000
0000
ENDCHAR
STARTCHAR f
ENCODING 102
SWIDTH 406 0
DWIDTH 13 0
BBX 13 29 0 -5
BITMAP
0000
0000
0000
0000
03E0
0670
0C70
0C20
0C00
0C00
0C00
7F80
0C00
0C00
0C00
0C00
0C00
0C00
0C00
0C00
0C00
0C00
0C00
3F00
0000
0000
0000
0000
0000
ENDCHAR
STARTCHAR g
ENCODING 103
SWIDTH 406 0
DWIDTH 13 0
BBX 13 29 0 -5
BITMAP
0000
0000
0000
0000
0000
0000
0000
0000
0000
0000
0000
1F30
31F0
60C0
60C0
60C0
3180
1F00
3000
3C00
67C0
60E0
6030
6030
3060
1FC0
0000
0000
0000
ENDCHAR
STARTCHAR h
ENCODING 104
SWIDTH 406 0
DWIDTH 13 0
BBX 13 29 0 -5
BITMAP
0000
0000
0000
0000
7000
3000
3000
3000
3000
3000
3000
3380
36C0
3C60
3860
3060
3060
3060
3060
3060
3060
3060
3060
78F0
0000
0000
0000
0000
0000
ENDCHAR
STARTCHAR i
ENCODING 105
SWIDTH 406 0
DWIDTH 13 0
BBX 13 29 0 -5
BITMAP
0000
0000
0000
0000
0300
0780
0780
0300
0000
0000
0000
0F00
0300
0300
0300
0300
0300
0300
0300
0300
0300
0300
0300
0FC0
0000
0000
0000
0000
0000
ENDCHAR
STARTCHAR j
ENCODING 106
SWIDTH 406 0
DWIDTH 13 0
BBX 13 29 0 -5
BITMAP
0000
0000
0000
0000
0180
03C0
03C0
0180
0000
0000
0000
03C0
00C0
00C0
00C0
00C0
00C0
00C0
00C0
00C0
00C0
30C0
78C0
70C0
3180
1F00
0000
0000
0000
ENDCHAR
STARTCHAR k
ENCODING 107
SWIDTH 406 0
DWIDTH 13 0
BBX 13 29 0 -5
BITMAP
0000
0000
0000
0000
7000
3000
3000
3000
3000
3000
3000
31F0
30C0
3180
3300
3600
3F00
3B00
3180
3180
30C0
30C0
3060
78F0
0000
0000
0000
0000
0000
ENDCHAR
STARTCHAR l
ENCODING 108
SWIDTH 406 0
DWIDTH 13 0
BBX 13 29 0 -5
BITMAP
0000
0000
0000
0000
0F00
0300
0300
0300
0300
0300
0300
0300
0300
0300
0300
0300
0300
0300
0300
0300
0300
0300
0300
0FC0
0000
0000
0000
0000
0000
ENDCHAR
STARTCHAR m
ENCODING 109
SWIDTH 406 0
DWIDTH 13 0
BBX 13 29 0 -5
BITMAP
0000
0000
0000
0000
0000
0000
0000
0000
0000
0000
0000
76E0
3FF0
3330
3330
3330
3330
3330
3330
3330
3330
3330
3330
7BB8
0000
0000
0000
0000
0000
ENDCHAR
STARTCHAR n
ENCODING 110
SWIDTH 406 0
DWIDTH 13 0
BBX 13 29 0 -5
BITMAP
0000
0000
0000
0000
0000
0000
0000
0000
0000
0000
0000
7380
36C0
3C60
3860
3060
3060
3060
3060
3060
3060
3060
3060
78F0
0000
0000
0000
0000
0000
ENDCHAR
STARTCHAR o
ENCODING 111
SWIDTH 406 0
DWIDTH 13 0
BBX 13 29 0 -5
BITMAP
0000
0000
0000
0000
0000
0000
0000
0000
0000
0000
0000
0F80
18C0
3060
3060
6030
6030
6030
6030
6030
3060
3060
18C0
0F80
0000
0000
0000
0000
0000
ENDCHAR
STARTCHAR p
ENCODING 112
SWIDTH 406 0
DWIDTH 13 0
BBX 13 29 0 -5
BITMAP
0000
0000
0000
0000
0000
0000
0000
0000
0000
0000
0000
7780
3CC0
3860
3060
3030
3030
3030
3060
3860
3CC0
3780
3000
3000
3000
7800
0000
0000
0000
ENDCHAR
STARTCHAR q
ENCODING 113
SWIDTH 406 0
DWIDTH 13 0
BBX 13 29 0 -5
BITMAP
0000
0000
0000
0000
0000
0000
0000
0000
0000
0000
0000
0F20
19E0
30E0
3060
6060
6060
6060
3060
30E0
19E0
0F60
0060
0060
0060
00F0
0000
0000
0000
ENDCHAR
STARTCHAR r
ENCODING 114
SWIDTH 406 0
DWIDTH 13 0
BBX 13 29 0 -5
BITMAP
0000
0000
0000
0000
0000
0000
0000
0000
0000
0000
0000
73C0
3660
3C70
3860
3000
3000
3000
3000
3000
3000
3000
3000
7800
0000
0000
0000
0000
0000
ENDCHAR
STARTCHAR s
ENCODING 115
SWIDTH 406 0
DWIDTH 13 0
BBX 13 29 0 -5
BITMAP
0000
0000
0000
0000
0000
0000
0000
0000
0000
0000
0000
1F80
30E0
6060
6020
7000
3C00
0F80
01E0
0070
4030
6030
7060
1FC0
0000
0000
0000
0000
0000
ENDCHAR
STARTCHAR t
ENCODING 116
SWIDTH 406 0
DWIDTH 13 0
BBX 13 29 0 -5
BITMAP
0000
0000
0000
0000
0000
0000
0400
0C00
0C00
0C00
0C00
7FE0
0C00
0C00
0C00
0C00
0C00
0C00
0C00
0C00
0C30
0C30
0660
03C0
0000
0000
0000
0000
0000
ENDCHAR
STARTCHAR u
ENCODING 117
SWIDTH 406 0
DWIDTH 13 0
BBX 13 29 0 -5
BITMAP
0000
0000
0000
0000
0000
0000
0000
0000
0000
0000
0000
70E0
3060
3060
3060
3060
3060
3060
3060
3060
30E0
31E0
1B60
0E70
0000
0000
0000
0000
0000
ENDCHAR
STARTCHAR v
ENCODING 118
SWIDTH 406 0
DWIDTH 13 0
BBX 13 29 0 -5
BITMAP
0000
0000
0000
0000
0000
0000
0000
0000
0000
0000
0000
78F0
3060
3060
18C0
18C0
18C0
0D80
0D80
0D80
0700
0700
0700
0200
0000
0000
0000
0000
0000
ENDCHAR
STARTCHAR w
ENCODING 119
SWIDTH 406 0
DWIDTH 13 0
BBX 13 29 0 -5
BITMAP
0000
0000
0000
0000
0000
0000
0000
0000
0000
0000
0000
7878
3030
3030
3330
3330
1B60
1B60
1B60
1FE0
0CC0
0CC0
0CC0
0CC0
0000
0000
0000
0000
0000
ENDCHAR
STARTCHAR x
ENCODING 120
SWIDTH 406 0
DWIDTH 13 0
BBX 13 29 0 -5
BITMAP
0000
0000
0000
0000
0000
0000
0000
0000
0000
0000
0000
78F0
3060
3060
18C0
0D80
0700
0700
0700
0D80
18C0
3060
3060
78F0
0000
0000
0000
0000
0000
ENDCHAR
STARTCHAR y
ENCODING 121
SWIDTH 406 0
DWIDTH 13 0
BBX 13 29 0 -5
BITMAP
0000
0000
0000
0000
0000
0000
0000
0000
0000
0000
0000
78F0
3060
1860
18C0
0CC0
0CC0
0780
0780
0380
0300
0300
0300
6600
6600
3C00
0000
0000
0000
ENDCHAR
STARTCHAR z
ENCODING 122
SWIDTH 406 0
DWIDTH 13 0
BBX 13 29 0 -5
BITMAP
0000
0000
0000
0000
0000
0000
0000
0000
0000
0000
0000
3FF0
2030
2060
00C0
0180
0300
0600
0C00
1800
3010
6010
6030
7FF0
0000
0000
0000
0000
0000
ENDCHAR
STARTCHAR braceleft
ENCODING 123
SWIDTH 406 0
DWIDTH 13 0
BBX 13 29 0 -5
BITMAP
0000
0000
00F0
0180
0300
0300
0300
0300
0300
0300
0300
0300
0600
0C00
0C00
0600
0300
0300
0300
0300
0300
0300
0300
0300
0180
00F0
0000
0000
0000
ENDCHAR
STARTCHAR bar
ENCODING 124
SWIDTH 406 0
DWIDTH 13 0
BBX 13 29 0 -5
BITMAP
0000
0000
0300
0300
0300
0300
0300
0300
0300
0300
0300
0300
0300
0300
0300
0300
0300
0300
0300
0300
0300
0300
0300
0300
0300
0300
0000
0000
0000
ENDCHAR
STARTCHAR braceright
ENCODING 125
SWIDTH 406 0
DWIDTH 13 0
BBX 13 29 0 -5
BITMAP
0000
0000
3C00
0600
0300
0300
0300
0300
0300
0300
0300
0300
0180
00C0
00C0
0180
0300
0300
0300
0300
0300
0300
0300
0300
0600
3C00
0000
0000
0000
ENDCHAR
STARTCHAR asciitilde
ENCODING 126
SWIDTH 406 0
DWIDTH 13 0
BBX 13 29 0 -5
BITMAP
0000
0000
0000
0000
0000
0000
0000
0000
0000
0000
0000
1800
6400
4400
4600
0208
0318
0130
00C0
0000
0000
0000
0000
0000
0000
0000
0000
0000
0000
ENDCHAR
STARTCHAR uni007F
ENCODING 127
SWIDTH 406 0
DWIDTH 13 0
BBX 13 29 0 -5
BITMAP
0000
0000
0000
0000
0000
0000
0000
0000
0200
0200
0700
0500
0D80
0880
18C0
1040
3060
2020
2020
3FE0
0000
0000
0000
0000
0000
0000
0000
0000
0000
ENDCHAR
STARTCHAR uni00A0
ENCODING 160
SWIDTH 406 0
DWIDTH 13 0
BBX 13 29 0 -5
BITMAP
0000
0000
0000
0000
0000
0000
0000
0000
0000
0000
0000
0000
0000
0000
0000
0000
0000
0000
0000
0000
0000
0000
0000
0000
0000
0000
0000
0000
0000
ENDCHAR
STARTCHAR exclamdown
ENCODING 161
SWIDTH 406 0
DWIDTH 13 0
BBX 13 29 0 -5
BITMAP
0000
0000
0000
0100
0380
0380
0100
0000
0000
0100
0100
0100
0100
0100
0100
0100
0380
0380
0380
0380
0380
0380
0380
0380
0100
0000
0000
0000
0000
ENDCHAR
STARTCHAR cent
ENCODING 162
SWIDTH 406 0
DWIDTH 13 0
BBX 13 29 0 -5
BITMAP
0000
0000
0000
0000
0000
0000
0080
0080
0F80
19E0
3170
3170
6360
6200
6200
6200
6600
3400
3430
1C60
0FC0
0800
0800
0000
0000
0000
0000
0000
0000
ENDCHAR
STARTCHAR sterling
ENCODING 163
SWIDTH 406 0
DWIDTH 13 0
BBX 13 29 0 -5
BITMAP
0000
0000
0000
0000
0780
0CC0
0860
18E0
18C0
1800
1800
1800
1800
7FC0
0C00
0C00
0C00
0C00
0C00
3C00
6610
6630
6FE0
39C0
0000
0000
0000
0000
0000
ENDCHAR
STARTCHAR yen
ENCODING 165
SWIDTH 406 0
DWIDTH 13 0
BBX 13 29 0 -5
BITMAP
0000
0000
0000
0000
7878
3030
1860
1860
1860
0CC0
0CC0
0780
0780
7FF8
0300
0300
0300
0300
7FF8
0300
0300
0300
0300
0FC0
0000
0000
0000
0000
0000
ENDCHAR
STARTCHAR section
ENCODING 167
SWIDTH 406 0
DWIDTH 13 0
BBX 13 29 0 -5
BITMAP
0000
0000
0000
0780
0C40
1860
1860
1800
0C00
0600
0700
0D80
18C0
1860
1860
0C60
0660
03C0
0180
00C0
0060
1860
1860
08C0
0780
0000
0000
0000
0000
ENDCHAR
STARTCHAR ordfeminine
ENCODING 170
SWIDTH 406 0
DWIDTH 13 0
BBX 13 29 0 -5
BITMAP
0000
0000
0000
0000
0F80
18C0
18C0
03C0
0CC0
18C0
18C0
19C0
0F60
0000
1FE0
0000
0000
0000
0000
0000
0000
0000
0000
0000
0000
0000
0000
0000
0000
ENDCHAR
STARTCHAR guillemotleft
ENCODING 171
SWIDTH 406 0
DWIDTH 13 0
BBX 13 29 0 -5
BITMAP
0000
0000
0000
0000
0000
0000
0000
0000
0000
0210
0420
0840
18C0
3180
3180
18C0
0840
0420
0210
0000
0000
0000
0000
0000
0000
0000
0000
0000
0000
ENDCHAR
STARTCHAR logicalnot
ENCODING 172
SWIDTH 406 0
DWIDTH 13 0
BBX 13 29 0 -5
BITMAP
0000
0000
0000
0000
0000
0000
0000
0000
0000
0000
0000
3FF0
0010
0010
0010
0010
0010
0010
0010
0000
0000
0000
0000
0000
0000
0000
0000
0000
0000
ENDCHAR
STARTCHAR degree
ENCODING 176
SWIDTH 406 0
DWIDTH 13 0
BBX 13 29 0 -5
BITMAP
0000
0000
0F00
1080
2040
2040
2040
2040
1080
0F00
0000
0000
0000
0000
0000
0000
0000
0000
0000
0000
0000
0000
0000
0000
0000
0000
0000
0000
0000
ENDCHAR
STARTCHAR plusminus
ENCODING 177
SWIDTH 406 0
DWIDTH 13 0
BBX 13 29 0 -5
BITMAP
0000
0000
0000
0000
0000
0000
0000
0300
0300
0300
0300
3FF0
3FF0
0300
0300
0300
0300
0000
0000
3FF0
3FF0
0000
0000
0000
0000
0000
0000
0000
0000
ENDCHAR
STARTCHAR uni00B2
ENCODING 178
SWIDTH 406 0
DWIDTH 13 0
BBX 13 29 0 -5
BITMAP
0000
0000
0000
0F00
1180
3180
3180
0300
0600
0C00
1880
1880
3F80
3F80
0000
0000
0000
0000
0000
0000
0000
0000
0000
0000
0000
0000
0000
0000
0000
ENDCHAR
STARTCHAR mu
ENCODING 181
SWIDTH 406 0
DWIDTH 13 0
BBX 13 29 0 -5
BITMAP
0000
0000
0000
0000
0000
0000
0000
0000
0000
0000
0000
38E0
1860
1860
1860
1860
1860
1860
1860
1860
1860
1860
1CE0
1F70
1800
3800
0000
0000
0000
ENDCHAR
STARTCHAR paragraph
ENCODING 182
SWIDTH 406 0
DWIDTH 13 0
BBX 13 29 0 -5
BITMAP
0000
0000
0000
0000
0FF8
3E60
7E60
7E60
7E60
7E60
7E60
3E60
1E60
0660
0660
0660
0660
0660
0660
0660
0660
0660
0660
0660
0000
0000
0000
0000
0000
ENDCHAR
STARTCHAR periodcentered
ENCODING 183
SWIDTH 406 0
DWIDTH 13 0
BBX 13 29 0 -5
BITMAP
0000
0000
0000
0000
0000
0000
0000
0000
0000
0000
0000
0000
0300
0780
0780
0300
0000
0000
0000
0000
0000
0000
0000
0000
0000
0000
0000
0000
0000
ENDCHAR
STARTCHAR ordmasculine
ENCODING 186
SWIDTH 406 0
DWIDTH 13 0
BBX 13 29 0 -5
BITMAP
0000
0000
0000
0000
0780
0CC0
1860
1860
1860
1860
1860
0CC0
0780
0000
1FE0
0000
0000
0000
0000
0000
0000
0000
0000
0000
0000
0000
0000
0000
0000
ENDCHAR
STARTCHAR guillemotright
ENCODING 187
SWIDTH 406 0
DWIDTH 13 0
BBX 13 29 0 -5
BITMAP
0000
0000
0000
0000
0000
0000
0000
0000
0000
2100
1080
0840
0C60
0630
0630
0C60
0840
1080
2100
0000
0000
0000
0000
0000
0000
0000
0000
0000
0000
ENDCHAR
STARTCHAR onequarter
ENCODING 188
SWIDTH 406 0
DWIDTH 13 0
BBX 13 29 0 -5
BITMAP
0000
0000
0000
1810
3830
1820
1860
1840
18C0
1880
1980
3D00
0300
0200
0600
0460
0CE0
09E0
1960
1360
3260
27F0
6060
4060
00F0
0000
0000
0000
0000
ENDCHAR
STARTCHAR onehalf
ENCODING 189
SWIDTH 406 0
DWIDTH 13 0
BBX 13 29 0 -5
BITMAP
0000
0000
0000
1810
3830
1820
1860
1840
18C0
1880
1980
3D00
0300
0200
0600
04E0
0D30
0B30
1B30
1060
30C0
2180
6190
43F0
03F0
0000
0000
0000
0000
ENDCHAR
STARTCHAR questiondown
ENCODING 191
SWIDTH 406 0
DWIDTH 13 0
BBX 13 29 0 -5
BITMAP
0000
0000
0000
0000
0200
0700
0700
0200
0000
0000
0200
0200
0200
0200
0600
0400
0C00
1800
1800
3020
3070
3070
3060
18C0
0F80
0000
0000
0000
0000
ENDCHAR
STARTCHAR Adieresis
ENCODING 196
SWIDTH 406 0
DWIDTH 13 0
BBX 13 29 0 -5
BITMAP
0000
0000
0840
1CE0
1CE0
0840
0000
0300
0300
0300
0780
0580
0580
0DC0
08C0
08C0
18E0
1060
1FE0
1060
3070
2030
2030
7070
0000
0000
0000
0000
0000
ENDCHAR
STARTCHAR Aring
ENCODING 197
SWIDTH 406 0
DWIDTH 13 0
BBX 13 29 0 -5
BITMAP
0000
0000
0300
0480
0CC0
0CC0
0480
0300
0300
0300
0780
0580
0580
0DC0
08C0
08C0
18E0
1060
1FE0
1060
3070
2030
2030
7070
0000
0000
0000
0000
0000
ENDCHAR
STARTCHAR AE
ENCODING 198
SWIDTH 406 0
DWIDTH 13 0
BBX 13 29 0 -5
BITMAP
0000
0000
0000
0000
03F8
0398
0388
0788
0580
0580
0D90
0990
09B0
09F0
19B0
1190
1F90
1180
1180
3180
2188
2188
2198
73F8
0000
0000
0000
0000
0000
ENDCHAR
STARTCHAR Ccedilla
ENCODING 199
SWIDTH 406 0
DWIDTH 13 0
BBX 13 29 0 -5
BITMAP
0000
0000
0000
0000
0F90
18F0
3070
3030
6010
6000
6000
6000
6000
6000
6000
6000
6000
6000
6030
3030
3060
18C0
0F80
0300
0180
0700
0000
0000
0000
ENDCHAR
STARTCHAR Eacute
ENCODING 201
SWIDTH 406 0
DWIDTH 13 0
BBX 13 29 0 -5
BITMAP
0000
0000
00C0
01C0
0380
0600
0000
7FF0
3070
3030
3010
3010
3080
3080
3180
3F80
3180
3080
3080
3010
3010
3030
3070
7FF0
0000
0000
0000
0000
0000
ENDCHAR
STARTCHAR Ntilde
ENCODING 209
SWIDTH 406 0
DWIDTH 13 0
BBX 13 29 0 -5
BITMAP
0000
0000
1E20
2720
23C0
0000
0000
70F0
3060
3860
3860
3C60
3460
3660
3260
3360
3160
31E0
30E0
30E0
3060
3060
3020
7820
0000
0000
0000
0000
0000
ENDCHAR
STARTCHAR Odieresis
ENCODING 214
SWIDTH 406 0
DWIDTH 13 0
BBX 13 29 0 -5
BITMAP
0000
0000
1040
38E0
38E0
1040
0000
0F80
18C0
3060
6030
6030
6030
6030
6030
6030
6030
6030
6030
6030
6030
3060
18C0
0F80
0000
0000
0000
0000
0000
ENDCHAR
STARTCHAR Udieresis
ENCODING 220
SWIDTH 406 0
DWIDTH 13 0
BBX 13 29 0 -5
BITMAP
0000
0000
1040
38E0
38E0
1040
0000
78F0
3060
3060
3060
3060
3060
3060
3060
3060
3060
3060
3060
3060
3060
3060
18C0
0F80
0000
0000
0000
0000
0000
ENDCHAR
STARTCHAR germandbls
ENCODING 223
SWIDTH 406 0
DWIDTH 13 0
BBX 13 29 0 -5
BITMAP
0000
0000
0000
0000
0700
0D80
18C0
18C0
3060
3060
3060
3040
3080
3380
30C0
3060
3030
3030
3030
3030
3060
3660
36C0
7B80
0000
0000
0000
0000
0000
ENDCHAR
STARTCHAR agrave
ENCODING 224
SWIDTH 406 0
DWIDTH 13 0
BBX 13 29 0 -5
BITMAP
0000
0000
0000
0000
0000
1800
1C00
0E00
0300
0000
0000
1F80
30C0
7860
3060
0060
07E0
1C60
3060
6060
6060
6060
71E0
1F30
0000
0000
0000
0000
0000
ENDCHAR
STARTCHAR aacute
ENCODING 225
SWIDTH 406 0
DWIDTH 13 0
BBX 13 29 0 -5
BITMAP
0000
0000
0000
0000
0000
00C0
01C0
0380
0600
0000
0000
1F80
30C0
7860
3060
0060
07E0
1C60
3060
6060
6060
6060
71E0
1F30
0000
0000
0000
0000
0000
ENDCHAR
STARTCHAR acircumflex
ENCODING 226
SWIDTH 406 0
DWIDTH 13 0
BBX 13 29 0 -5
BITMAP
0000
0000
0000
0000
0000
0200
0700
0D80
18C0
0000
0000
1F80
30C0
7860
3060
0060
07E0
1C60
3060
6060
6060
6060
71E0
1F30
0000
0000
0000
0000
0000
ENDCHAR
STARTCHAR adieresis
ENCODING 228
SWIDTH 406 0
DWIDTH 13 0
BBX 13 29 0 -5
BITMAP
0000
0000
0000
0000
0000
1080
39C0
39C0
1080
0000
0000
1F80
30C0
7860
3060
0060
07E0
1C60
3060
6060
6060
6060
71E0
1F30
0000
0000
0000
0000
0000
ENDCHAR
STARTCHAR aring
ENCODING 229
SWIDTH 406 0
DWIDTH 13 0
BBX 13 29 0 -5
BITMAP
0000
0000
0000
0000
0600
0900
1980
1980
0900
0600
0000
1F80
30C0
7860
3060
0060
07E0
1C60
3060
6060
6060
6060
71E0
1F30
0000
0000
0000
0000
0000
ENDCHAR
STARTCHAR ae
ENCODING 230
SWIDTH 406 0
DWIDTH 13 0
BBX 13 29 0 -5
BITMAP
0000
0000
0000
0000
0000
0000
0000
0000
0000
0000
0000
38C0
6D60
6660
0630
0630
1E30
37F0
6600
6600
6600
6630
2720
1DC0
0000
0000
0000
0000
0000
ENDCHAR
STARTCHAR ccedilla
ENCODING 231
SWIDTH 406 0
DWIDTH 13 0
BBX 13 29 0 -5
BITMAP
0000
0000
0000
0000
0000
0000
0000
0000
0000
0000
0000
0F80
18E0
3070
30F0
6060
6000
6000
6000
3000
3030
1860
0FC0
0300
0180
0700
0000
0000
0000
ENDCHAR
STARTCHAR egrave
ENCODING 232
SWIDTH 406 0
DWIDTH 13 0
BBX 13 29 0 -5
BITMAP
0000
0000
0000
0000
0000
1800
1C00
0E00
0300
0000
0000
0F80
18C0
3060
3060
6030
6030
7FF0
6000
6000
3000
3030
1860
0FC0
0000
0000
0000
0000
0000
ENDCHAR
STARTCHAR eacute
ENCODING 233
SWIDTH 406 0
DWIDTH 13 0
BBX 13 29 0 -5
BITMAP
0000
0000
0000
0000
0000
00C0
01C0
0380
0600
0000
0000
0F80
18C0
3060
3060
6030
6030
7FF0
6000
6000
3000
3030
1860
0FC0
0000
0000
0000
0000
0000
ENDCHAR
STARTCHAR ecircumflex
ENCODING 234
SWIDTH 406 0
DWIDTH 13 0
BBX 13 29 0 -5
BITMAP
0000
0000
0000
0000
0000
0200
0700
0D80
18C0
0000
0000
0F80
18C0
3060
3060
6030
6030
7FF0
6000
6000
3000
3030
1860
0FC0
0000
0000
0000
0000
0000
ENDCHAR
STARTCHAR edieresis
ENCODING 235
SWIDTH 406 0
DWIDTH 13 0
BBX 13 29 0 -5
BITMAP
0000
0000
0000
0000
0000
0840
1CE0
1CE0
0840
0000
0000
0F80
18C0
3060
3060
6030
6030
7FF0
6000
6000
3000
3030
1860
0FC0
0000
0000
0000
0000
0000
ENDCHAR
STARTCHAR igrave
ENCODING 236
SWIDTH 406 0
DWIDTH 13 0
BBX 13 29 0 -5
BITMAP
0000
0000
0000
0000
0000
1800
1C00
0E00
0300
0000
0000
0F00
0300
0300
0300
0300
0300
0300
0300
0300
0300
0300
0300
0FC0
0000
0000
0000
0000
0000
ENDCHAR
STARTCHAR iacute
ENCODING 237
SWIDTH 406 0
DWIDTH 13 0
BBX 13 29 0 -5
BITMAP
0000
0000
0000
0000
0000
00C0
01C0
0380
0600
0000
0000
0F00
0300
0300
0300
0300
0300
0300
0300
0300
0300
0300
0300
0FC0
0000
0000
0000
0000
0000
ENDCHAR
STARTCHAR icircumflex
ENCODING 238
SWIDTH 406 0
DWIDTH 13 0
BBX 13 29 0 -5
BITMAP
0000
0000
0000
0000
0000
0200
0700
0D80
18C0
0000
0000
0F00
0300
0300
0300
0300
0300
0300
0300
0300
0300
0300
0300
0FC0
0000
0000
0000
0000
0000
ENDCHAR
STARTCHAR idieresis
ENCODING 239
SWIDTH 406 0
DWIDTH 13 0
BBX 13 29 0 -5
BITMAP
0000
0000
0000
0000
0000
0840
1CE0
1CE0
0840
0000
0000
0F00
0300
0300
0300
0300
0300
0300
0300
0300
0300
0300
0300
0FC0
0000
0000
0000
0000
0000
ENDCHAR
STARTCHAR ntilde
ENCODING 241
SWIDTH 406 0
DWIDTH 13 0
BBX 13 29 0 -5
BITMAP
0000
0000
0000
0000
0000
1E20
2720
23C0
0000
0000
0000
7380
36C0
3C60
3860
3060
3060
3060
3060
3060
3060
3060
3060
78F0
0000
0000
0000
0000
0000
ENDCHAR
STARTCHAR ograve
ENCODING 242
SWIDTH 406 0
DWIDTH 13 0
BBX 13 29 0 -5
BITMAP
0000
0000
0000
0000
0000
1800
1C00
0E00
0300
0000
0000
0F80
18C0
3060
3060
6030
6030
6030
6030
6030
3060
3060
18C0
0F80
0000
0000
0000
0000
0000
ENDCHAR
STARTCHAR oacute
ENCODING 243
SWIDTH 406 0
DWIDTH 13 0
BBX 13 29 0 -5
BITMAP
0000
0000
0000
0000
0000
00C0
01C0
0380
0600
0000
0000
0F80
18C0
3060
3060
6030
6030
6030
6030
6030
3060
3060
18C0
0F80
0000
0000
0000
0000
0000
ENDCHAR
STARTCHAR ocircumflex
ENCODING 244
SWIDTH 406 0
DWIDTH 13 0
BBX 13 29 0 -5
BITMAP
0000
0000
0000
0000
0000
0200
0700
0D80
18C0
0000
0000
0F80
18C0
3060
3060
6030
6030
6030
6030
6030
3060
3060
18C0
0F80
0000
0000
0000
0000
0000
ENDCHAR
STARTCHAR odieresis
ENCODING 246
SWIDTH 406 0
DWIDTH 13 0
BBX 13 29 0 -5
BITMAP
0000
0000
0000
0000
0000
1080
39C0
39C0
1080
0000
0000
0F80
18C0
3060
3060
6030
6030
6030
6030
6030
3060
3060
18C0
0F80
0000
0000
0000
0000
0000
ENDCHAR
STARTCHAR divide
ENCODING 247
SWIDTH 406 0
DWIDTH 13 0
BBX 13 29 0 -5
BITMAP
0000
0000
0000
0000
0000
0000
0000
0300
0780
0780
0300
0000
0000
3FF0
3FF0
0000
0000
0300
0780
0780
0300
0000
0000
0000
0000
0000
0000
0000
0000
ENDCHAR
STARTCHAR ugrave
ENCODING 249
SWIDTH 406 0
DWIDTH 13 0
BBX 13 29 0 -5
BITMAP
0000
0000
0000
0000
0000
1800
1C00
0E00
0300
0000
0000
70E0
3060
3060
3060
3060
3060
3060
3060
3060
30E0
31E0
1B60
0E70
0000
0000
0000
0000
0000
ENDCHAR
STARTCHAR uacute
ENCODING 250
SWIDTH 406 0
DWIDTH 13 0
BBX 13 29 0 -5
BITMAP
0000
0000
0000
0000
0000
00C0
01C0
0380
0600
0000
0000
70E0
3060
3060
3060
3060
3060
3060
3060
3060
30E0
31E0
1B60
0E70
0000
0000
0000
0000
0000
ENDCHAR
STARTCHAR ucircumflex
ENCODING 251
SWIDTH 406 0
DWIDTH 13 0
BBX 13 29 0 -5
BITMAP
0000
0000
0000
0000
0000
0200
0700
0D80
18C0
0000
0000
70E0
3060
3060
3060
3060
3060
3060
3060
3060
30E0
31E0
1B60
0E70
0000
0000
0000
0000
0000
ENDCHAR
STARTCHAR udieresis
ENCODING 252
SWIDTH 406 0
DWIDTH 13 0
BBX 13 29 0 -5
BITMAP
0000
0000
0000
0000
0000
1080
39C0
39C0
1080
0000
0000
70E0
3060
3060
3060
3060
3060
3060
3060
3060
30E0
31E0
1B60
0E70
0000
0000
0000
0000
0000
ENDCHAR
STARTCHAR ydieresis
ENCODING 255
SWIDTH 406 0
DWIDTH 13 0
BBX 13 29 0 -5
BITMAP
0000
0000
0000
0000
0000
0840
1CE0
1CE0
0840
0000
0000
78F0
3060
1860
18C0
0CC0
0CC0
0780
0780
0380
0300
0300
0300
6600
6600
3C00
0000
0000
0000
ENDCHAR
STARTCHAR florin
ENCODING 402
SWIDTH 406 0
DWIDTH 13 0
BBX 13 29 0 -5
BITMAP
0000
0000
0000
0000
00E0
01B0
0330
0300
0300
0300
1FE0
0300
0300
0300
0300
0300
0300
0300
0300
0300
0300
0300
3300
3600
1C00
0000
0000
0000
0000
ENDCHAR
STARTCHAR Gamma
ENCODING 915
SWIDTH 406 0
DWIDTH 13 0
BBX 13 29 0 -5
BITMAP
0000
0000
0000
0000
7FF0
3070
3030
3010
3010
3000
3000
3000
3000
3000
3000
3000
3000
3000
3000
3000
3000
3000
3000
7800
0000
0000
0000
0000
0000
ENDCHAR
STARTCHAR Theta
ENCODING 920
SWIDTH 406 0
DWIDTH 13 0
BBX 13 29 0 -5
BITMAP
0000
0000
0000
0000
0F80
18C0
3060
6030
6030
6030
6030
6030
68B0
6FB0
6FB0
68B0
6030
6030
6030
6030
6030
3060
18C0
0F80
0000
0000
0000
0000
0000
ENDCHAR
STARTCHAR Sigma
ENCODING 931
SWIDTH 406 0
DWIDTH 13 0
BBX 13 29 0 -5
BITMAP
0000
0000
0000
0000
7FF0
6070
6030
3010
3010
1800
0C00
0600
0300
0180
0300
0600
0C00
1800
3010
3010
6030
6070
7FF0
7FF0
0000
0000
0000
0000
0000
ENDCHAR
STARTCHAR Phi
ENCODING 934
SWIDTH 406 0
DWIDTH 13 0
BBX 13 29 0 -5
BITMAP
0000
0000
0000
0000
1FE0
0300
0300
0300
0FC0
1B60
3330
3330
3330
3330
3330
3330
3330
3330
1B60
0FC0
0300
0300
0300
1FE0
0000
0000
0000
0000
0000
ENDCHAR
STARTCHAR uni03A9
ENCODING 937
SWIDTH 406 0
DWIDTH 13 0
BBX 13 29 0 -5
BITMAP
0000
0000
0000
0000
0F80
18C0
3060
3060
6030
6030
6030
6030
6030
6030
6030
6030
3060
3060
18C0
0880
0880
4890
78F0
78F0
0000
0000
0000
0000
0000
ENDCHAR
STARTCHAR alpha
ENCODING 945
SWIDTH 406 0
DWIDTH 13 0
BBX 13 29 0 -5
BITMAP
0000
0000
0000
0000
0000
0000
0000
0000
0000
0000
0000
0E40
19C0
30C0
30C0
60C0
60C0
60C0
60C0
60C0
30C0
30C0
19D0
0E60
0000
0000
0000
0000
0000
ENDCHAR
STARTCHAR delta
ENCODING 948
SWIDTH 406 0
DWIDTH 13 0
BBX 13 29 0 -5
BITMAP
0000
0000
0000
0000
03C0
0660
0C70
0C70
0C60
0600
0300
0F80
18C0
3060
3060
6030
6030
6030
6030
6030
3060
3060
18C0
0F80
0000
0000
0000
0000
0000
ENDCHAR
STARTCHAR epsilon
ENCODING 949
SWIDTH 406 0
DWIDTH 13 0
BBX 13 29 0 -5
BITMAP
0000
0000
0000
0000
0000
0000
07F0
1C00
3000
6000
6000
6000
6000
7FF0
6000
6000
6000
6000
6000
3000
1C00
07F0
0000
0000
0000
0000
0000
0000
0000
ENDCHAR
STARTCHAR pi
ENCODING 960
SWIDTH 406 0
DWIDTH 13 0
BBX 13 29 0 -5
BITMAP
0000
0000
0000
0000
0000
0000
0000
0000
0000
0000
0010
3FF0
7FF0
4CC0
0CC0
0CC0
0CC0
0CC0
0CC0
0CC0
0CC0
6CC0
6CD0
3870
0000
0000
0000
0000
0000
ENDCHAR
STARTCHAR sigma
ENCODING 963
SWIDTH 406 0
DWIDTH 13 0
BBX 13 29 0 -5
BITMAP
0000
0000
0000
0000
0000
0000
0000
0000
0000
0000
0010
03F0
0FF0
1980
30C0
30C0
6060
6060
6060
6060
30C0
30C0
1980
0F00
0000
0000
0000
0000
0000
ENDCHAR
STARTCHAR tau
ENCODING 964
SWIDTH 406 0
DWIDTH 13 0
BBX 13 29 0 -5
BITMAP
0000
0000
0000
0000
0000
0000
0000
0000
0000
0000
0010
3FF0
7FF0
4600
0600
0600
0600
0600
0600
0600
0600
06C0
06C0
0380
0000
0000
0000
0000
0000
ENDCHAR
STARTCHAR phi
ENCODING 966
SWIDTH 406 0
DWIDTH 13 0
BBX 13 29 0 -5
BITMAP
0000
0000
0000
0000
0000
0000
0080
0080
0F80
19C0
3160
3160
6330
6230
6230
6230
6630
3460
3460
1CC0
0F80
0800
0800
0000
0000
0000
0000
0000
0000
ENDCHAR
STARTCHAR bullet
ENCODING 8226
SWIDTH 406 0
DWIDTH 13 0
BBX 13 29 0 -5
BITMAP
0000
0000
0000
0000
0000
0000
0000
0000
0000
0000
0780
0FC0
1FE0
1FE0
1FE0
1FE0
0FC0
0780
0000
0000
0000
0000
0000
0000
0000
0000
0000
0000
0000
ENDCHAR
STARTCHAR exclamdbl
ENCODING 8252
SWIDTH 406 0
DWIDTH 13 0
BBX 13 29 0 -5
BITMAP
0000
0000
0000
0840
1CE0
1CE0
1CE0
1CE0
1CE0
1CE0
1CE0
1CE0
0840
0840
0840
0840
0840
0840
0840
0000
0000
0840
1CE0
1CE0
0840
0000
0000
0000
0000
ENDCHAR
STARTCHAR uni207F
ENCODING 8319
SWIDTH 406 0
DWIDTH 13 0
BBX 13 29 0 -5
BITMAP
0000
0000
0000
3B80
1DC0
18C0
18C0
18C0
18C0
18C0
18C0
18C0
18C0
3DE0
0000
0000
0000
0000
0000
0000
0000
0000
0000
0000
0000
0000
0000
0000
0000
ENDCHAR
STARTCHAR peseta
ENCODING 8359
SWIDTH 406 0
DWIDTH 13 0
BBX 13 29 0 -5
BITMAP
0000
0000
0000
0000
7F00
31C0
3060
3060
3030
3030
3030
3060
3060
31C0
3F00
3000
3080
3180
3180
37F0
3180
3180
31B0
79B0
00E0
0000
0000
0000
0000
ENDCHAR
STARTCHAR arrowleft
ENCODING 8592
SWIDTH 406 0
DWIDTH 13 0
BBX 13 29 0 -5
BITMAP
0000
0000
0000
0000
0000
0000
0000
0000
0000
0000
0800
1800
3000
7FF8
7FF8
3000
1800
0800
0000
0000
0000
0000
0000
0000
0000
0000
0000
0000
0000
ENDCHAR
STARTCHAR arrowup
ENCODING 8593
SWIDTH 406 0
DWIDTH 13 0
BBX 13 29 0 -5
BITMAP
0000
0000
0000
0000
0000
0300
0780
0FC0
1B60
0300
0300
0300
0300
0300
0300
0300
0300
0300
0300
0300
0300
0300
0300
0000
0000
0000
0000
0000
0000
ENDCHAR
STARTCHAR arrowright
ENCODING 8594
SWIDTH 406 0
DWIDTH 13 0
BBX 13 29 0 -5
BITMAP
0000
0000
0000
0000
0000
0000
0000
0000
0000
0000
0040
0060
0030
7FF8
7FF8
0030
0060
0040
0000
0000
0000
0000
0000
0000
0000
0000
0000
0000
0000
ENDCHAR
STARTCHAR arrowdown
ENCODING 8595
SWIDTH 406 0
DWIDTH 13 0
BBX 13 29 0 -5
BITMAP
0000
0000
0000
0000
0000
0300
0300
0300
0300
0300
0300
0300
0300
0300
0300
0300
0300
0300
0300
1B60
0FC0
0780
0300
0000
0000
0000
0000
0000
0000
ENDCHAR
STARTCHAR arrowboth
ENCODING 8596
SWIDTH 406 0
DWIDTH 13 0
BBX 13 29 0 -5
BITMAP
0000
0000
0000
0000
0000
0000
0000
0000
0000
0000
0840
1860
3030
7FF8
7FF8
3030
1860
0840
0000
0000
0000
0000
0000
0000
0000
0000
0000
0000
0000
ENDCHAR
STARTCHAR arrowupdn
ENCODING 8597
SWIDTH 406 0
DWIDTH 13 0
BBX 13 29 0 -5
BITMAP
0000
0000
0000
0000
0000
0300
0780
0FC0
1B60
0300
0300
0300
0300
0300
0300
0300
0300
0300
0300
1B60
0FC0
0780
0300
0000
0000
0000
0000
0000
0000
ENDCHAR
STARTCHAR arrowupdnbse
ENCODING 8616
SWIDTH 406 0
DWIDTH 13 0
BBX 13 29 0 -5
BITMAP
0000
0000
0000
0000
0000
0300
0780
0FC0
1B60
0300
0300
0300
0300
0300
0300
0300
0300
1B60
0FC0
0780
0300
0000
1FE0
1FE0
0000
0000
0000
0000
0000
ENDCHAR
STARTCHAR uni2219
ENCODING 8729
SWIDTH 406 0
DWIDTH 13 0
BBX 13 29 0 -5
BITMAP
0000
0000
0000
0000
0000
0000
0000
0000
0000
0000
0000
0300
0780
0FC0
0FC0
0780
0300
0000
0000
0000
0000
0000
0000
0000
0000
0000
0000
0000
0000
ENDCHAR
STARTCHAR radical
ENCODING 8730
SWIDTH 406 0
DWIDTH 13 0
BBX 13 29 0 -5
BITMAP
0000
0000
0000
0078
0060
0060
0060
0060
00C0
00C0
00C0
00C0
00C0
10C0
3180
7980
5980
1980
0D80
0D80
0580
0780
0300
0300
0100
0000
0000
0000
0000
ENDCHAR
STARTCHAR infinity
ENCODING 8734
SWIDTH 406 0
DWIDTH 13 0
BBX 13 29 0 -5
BITMAP
0000
0000
0000
0000
0000
0000
0000
0000
0000
0000
1C60
36B0
6318
6318
6318
6318
6318
35B0
18E0
0000
0000
0000
0000
0000
0000
0000
0000
0000
0000
ENDCHAR
STARTCHAR orthogonal
ENCODING 8735
SWIDTH 406 0
DWIDTH 13 0
BBX 13 29 0 -5
BITMAP
0000
0000
0000
0000
0000
0000
0000
0000
0000
2000
2000
2000
2000
2000
2000
2000
2000
2000
3FF0
0000
0000
0000
0000
0000
0000
0000
0000
0000
0000
ENDCHAR
STARTCHAR intersection
ENCODING 8745
SWIDTH 406 0
DWIDTH 13 0
BBX 13 29 0 -5
BITMAP
0000
0000
0000
0000
0780
0CC0
1860
1860
3030
3030
3030
3030
3030
3030
3030
3030
3030
3030
3030
3030
3030
3030
3030
3030
0000
0000
0000
0000
0000
ENDCHAR
STARTCHAR approxequal
ENCODING 8776
SWIDTH 406 0
DWIDTH 13 0
BBX 13 29 0 -5
BITMAP
0000
0000
0000
0000
0000
0000
0000
0000
0C00
1600
2310
2310
01A0
00C0
0C00
1600
2310
2310
01A0
00C0
0000
0000
0000
0000
0000
0000
0000
0000
0000
ENDCHAR
STARTCHAR equivalence
ENCODING 8801
SWIDTH 406 0
DWIDTH 13 0
BBX 13 29 0 -5
BITMAP
0000
0000
0000
0000
0000
0000
0000
0000
0000
3FF0
3FF0
0000
0000
3FF0
3FF0
0000
0000
3FF0
3FF0
0000
0000
0000
0000
0000
0000
0000
0000
0000
0000
ENDCHAR
STARTCHAR lessequal
ENCODING 8804
SWIDTH 406 0
DWIDTH 13 0
BBX 13 29 0 -5
BITMAP
0000
0000
0000
0000
0000
0060
00C0
0180
0300
0600
0C00
1800
3000
1800
0C00
0600
0300
0180
00C0
0060
0000
0000
3FF0
0000
0000
0000
0000
0000
0000
ENDCHAR
STARTCHAR greaterequal
ENCODING 8805
SWIDTH 406 0
DWIDTH 13 0
BBX 13 29 0 -5
BITMAP
0000
0000
0000
0000
0000
1800
0C00
0600
0300
0180
00C0
0060
0030
0060
00C0
0180
0300
0600
0C00
1800
0000
0000
3FF0
0000
0000
0000
0000
0000
0000
ENDCHAR
STARTCHAR house
ENCODING 8962
SWIDTH 406 0
DWIDTH 13 0
BBX 13 29 0 -5
BITMAP
0000
0000
0000
0000
0000
0000
0000
0000
0200
0200
0700
0500
0D80
0880
18C0
1040
3060
2020
2020
3FE0
0000
0000
0000
0000
0000
0000
0000
0000
0000
ENDCHAR
STARTCHAR revlogicalnot
ENCODING 8976
SWIDTH 406 0
DWIDTH 13 0
BBX 13 29 0 -5
BITMAP
0000
0000
0000
0000
0000
0000
0000
0000
0000
0000
0000
3FF0
2000
2000
2000
2000
2000
2000
2000
0000
0000
0000
0000
0000
0000
0000
0000
0000
0000
ENDCHAR
STARTCHAR integraltp
ENCODING 8992
SWIDTH 406 0
DWIDTH 13 0
BBX 13 29 0 -5
BITMAP
0000
0000
00E0
01B0
0138
0338
0310
0300
0300
0300
0300
0300
0300
0300
0300
0300
0300
0300
0300
0300
0300
0300
0300
0300
0300
0300
0300
0300
0300
ENDCHAR
STARTCHAR integralbt
ENCODING 8993
SWIDTH 406 0
DWIDTH 13 0
BBX 13 29 0 -5
BITMAP
0300
0300
0300
0300
0300
0300
0300
0300
0300
0300
0300
0300
0300
0300
0300
0300
0300
0300
0300
0300
0300
2300
7300
7200
3600
1C00
0000
0000
0000
ENDCHAR
STARTCHAR SF100000
ENCODING 9472
SWIDTH 406 0
DWIDTH 13 0
BBX 13 29 0 -5
BITMAP
0000
0000
0000
0000
0000
0000
0000
0000
0000
0000
0000
0000
0000
0000
FFF8
0000
0000
0000
0000
0000
0000
0000
0000
0000
0000
0000
0000
0000
0000
ENDCHAR
STARTCHAR SF110000
ENCODING 9474
SWIDTH 406 0
DWIDTH 13 0
BBX 13 29 0 -5
BITMAP
0200
0200
0200
0200
0200
0200
0200
0200
0200
0200
0200
0200
0200
0200
0200
0200
0200
0200
0200
0200
0200
0200
0200
0200
0200
0200
0200
0200
0200
ENDCHAR
STARTCHAR SF010000
ENCODING 9484
SWIDTH 406 0
DWIDTH 13 0
BBX 13 29 0 -5
BITMAP
0000
0000
0000
0000
0000
0000
0000
0000
0000
0000
0000
0000
0000
0000
03F8
0200
0200
0200
0200
0200
0200
0200
0200
0200
0200
0200
0200
0200
0200
ENDCHAR
STARTCHAR SF030000
ENCODING 9488
SWIDTH 406 0
DWIDTH 13 0
BBX 13 29 0 -5
BITMAP
0000
0000
0000
0000
0000
0000
0000
0000
0000
0000
0000
0000
0000
0000
FE00
0200
0200
0200
0200
0200
0200
0200
0200
0200
0200
0200
0200
0200
0200
ENDCHAR
STARTCHAR SF020000
ENCODING 9492
SWIDTH 406 0
DWIDTH 13 0
BBX 13 29 0 -5
BITMAP
0200
0200
0200
0200
0200
0200
0200
0200
0200
0200
0200
0200
0200
0200
03F8
0000
0000
0000
0000
0000
0000
0000
0000
0000
0000
0000
0000
0000
0000
ENDCHAR
STARTCHAR SF040000
ENCODING 9496
SWIDTH 406 0
DWIDTH 13 0
BBX 13 29 0 -5
BITMAP
0200
0200
0200
0200
0200
0200
0200
0200
0200
0200
0200
0200
0200
0200
FE00
0000
0000
0000
0000
0000
0000
0000
0000
0000
0000
0000
0000
0000
0000
ENDCHAR
STARTCHAR SF080000
ENCODING 9500
SWIDTH 406 0
DWIDTH 13 0
BBX 13 29 0 -5
BITMAP
0200
0200
0200
0200
0200
0200
0200
0200
0200
0200
0200
0200
0200
0200
03F8
0200
0200
0200
0200
0200
0200
0200
0200
0200
0200
0200
0200
0200
0200
ENDCHAR
STARTCHAR SF090000
ENCODING 9508
SWIDTH 406 0
DWIDTH 13 0
BBX 13 29 0 -5
BITMAP
0200
0200
0200
0200
0200
0200
0200
0200
0200
0200
0200
0200
0200
0200
FE00
0200
0200
0200
0200
0200
0200
0200
0200
0200
0200
0200
0200
0200
0200
ENDCHAR
STARTCHAR SF060000
ENCODING 9516
SWIDTH 406 0
DWIDTH 13 0
BBX 13 29 0 -5
BITMAP
0000
0000
0000
0000
0000
0000
0000
0000
0000
0000
0000
0000
0000
0000
FFF8
0200
0200
0200
0200
0200
0200
0200
0200
0200
0200
0200
0200
0200
0200
ENDCHAR
STARTCHAR SF070000
ENCODING 9524
SWIDTH 406 0
DWIDTH 13 0
BBX 13 29 0 -5
BITMAP
0200
0200
0200
0200
0200
0200
0200
0200
0200
0200
0200
0200
0200
0200
FFF8
0000
0000
0000
0000
0000
0000
0000
0000
0000
0000
0000
0000
0000
0000
ENDCHAR
STARTCHAR SF050000
ENCODING 9532
SWIDTH 406 0
DWIDTH 13 0
BBX 13 29 0 -5
BITMAP
0200
0200
0200
0200
0200
0200
0200
0200
0200
0200
0200
0200
0200
0200
FFF8
0200
0200
0200
0200
0200
0200
0200
0200
0200
0200
0200
0200
0200
0200
ENDCHAR
STARTCHAR SF430000
ENCODING 9552
SWIDTH 406 0
DWIDTH 13 0
BBX 13 29 0 -5
BITMAP
0000
0000
0000
0000
0000
0000
0000
0000
0000
0000
0000
0000
0000
FFF8
0000
FFF8
0000
0000
0000
0000
0000
0000
0000
0000
0000
0000
0000
0000
0000
ENDCHAR
STARTCHAR SF240000
ENCODING 9553
SWIDTH 406 0
DWIDTH 13 0
BBX 13 29 0 -5
BITMAP
0500
0500
0500
0500
0500
0500
0500
0500
0500
0500
0500
0500
0500
0500
0500
0500
0500
0500
0500
0500
0500
0500
0500
0500
0500
0500
0500
0500
0500
ENDCHAR
STARTCHAR SF510000
ENCODING 9554
SWIDTH 406 0
DWIDTH 13 0
BBX 13 29 0 -5
BITMAP
0000
0000
0000
0000
0000
0000
0000
0000
0000
0000
0000
0000
0000
03F8
0200
03F8
0200
0200
0200
0200
0200
0200
0200
0200
0200
0200
0200
0200
0200
ENDCHAR
STARTCHAR SF520000
ENCODING 9555
SWIDTH 406 0
DWIDTH 13 0
BBX 13 29 0 -5
BITMAP
0000
0000
0000
0000
0000
0000
0000
0000
0000
0000
0000
0000
0000
0000
07F8
0500
0500
0500
0500
0500
0500
0500
0500
0500
0500
0500
0500
0500
0500
ENDCHAR
STARTCHAR SF390000
ENCODING 9556
SWIDTH 406 0
DWIDTH 13 0
BBX 13 29 0 -5
BITMAP
0000
0000
0000
0000
0000
0000
0000
0000
0000
0000
0000
0000
0000
07F8
0400
05F8
0500
0500
0500
0500
0500
0500
0500
0500
0500
0500
0500
0500
0500
ENDCHAR
STARTCHAR SF220000
ENCODING 9557
SWIDTH 406 0
DWIDTH 13 0
BBX 13 29 0 -5
BITMAP
0000
0000
0000
0000
0000
0000
0000
0000
0000
0000
0000
0000
0000
FE00
0200
FE00
0200
0200
0200
0200
0200
0200
0200
0200
0200
0200
0200
0200
0200
ENDCHAR
STARTCHAR SF210000
ENCODING 9558
SWIDTH 406 0
DWIDTH 13 0
BBX 13 29 0 -5
BITMAP
0000
0000
0000
0000
0000
0000
0000
0000
0000
0000
0000
0000
0000
0000
FF00
0500
0500
0500
0500
0500
0500
0500
0500
0500
0500
0500
0500
0500
0500
ENDCHAR
STARTCHAR SF250000
ENCODING 9559
SWIDTH 406 0
DWIDTH 13 0
BBX 13 29 0 -5
BITMAP
0000
0000
0000
0000
0000
0000
0000
0000
0000
0000
0000
0000
0000
FF00
0100
FD00
0500
0500
0500
0500
0500
0500
0500
0500
0500
0500
0500
0500
0500
ENDCHAR
STARTCHAR SF500000
ENCODING 9560
SWIDTH 406 0
DWIDTH 13 0
BBX 13 29 0 -5
BITMAP
0200
0200
0200
0200
0200
0200
0200
0200
0200
0200
0200
0200
0200
03F8
0200
03F8
0000
0000
0000
0000
0000
0000
0000
0000
0000
0000
0000
0000
0000
ENDCHAR
STARTCHAR SF490000
ENCODING 9561
SWIDTH 406 0
DWIDTH 13 0
BBX 13 29 0 -5
BITMAP
0500
0500
0500
0500
0500
0500
0500
0500
0500
0500
0500
0500
0500
0500
07F8
0000
0000
0000
0000
0000
0000
0000
0000
0000
0000
0000
0000
0000
0000
ENDCHAR
STARTCHAR SF380000
ENCODING 9562
SWIDTH 406 0
DWIDTH 13 0
BBX 13 29 0 -5
BITMAP
0500
0500
0500
0500
0500
0500
0500
0500
0500
0500
0500
0500
0500
05F8
0400
07F8
0000
0000
0000
0000
0000
0000
0000
0000
0000
0000
0000
0000
0000
ENDCHAR
STARTCHAR SF280000
ENCODING 9563
SWIDTH 406 0
DWIDTH 13 0
BBX 13 29 0 -5
BITMAP
0200
0200
0200
0200
0200
0200
0200
0200
0200
0200
0200
0200
0200
FE00
0200
FE00
0000
0000
0000
0000
0000
0000
0000
0000
0000
0000
0000
0000
0000
ENDCHAR
STARTCHAR SF270000
ENCODING 9564
SWIDTH 406 0
DWIDTH 13 0
BBX 13 29 0 -5
BITMAP
0500
0500
0500
0500
0500
0500
0500
0500
0500
0500
0500
0500
0500
0500
FF00
0000
0000
0000
0000
0000
0000
0000
0000
0000
0000
0000
0000
0000
0000
ENDCHAR
STARTCHAR SF260000
ENCODING 9565
SWIDTH 406 0
DWIDTH 13 0
BBX 13 29 0 -5
BITMAP
0500
0500
0500
0500
0500
0500
0500
0500
0500
0500
0500
0500
0500
FD00
0100
FF00
0000
0000
0000
0000
0000
0000
0000
0000
0000
0000
0000
0000
0000
ENDCHAR
STARTCHAR SF360000
ENCODING 9566
SWIDTH 406 0
DWIDTH 13 0
BBX 13 29 0 -5
BITMAP
0200
0200
0200
0200
0200
0200
0200
0200
0200
0200
0200
0200
0200
03F8
0200
03F8
0200
0200
0200
0200
0200
0200
0200
0200
0200
0200
0200
0200
0200
ENDCHAR
STARTCHAR SF370000
ENCODING 9567
SWIDTH 406 0
DWIDTH 13 0
BBX 13 29 0 -5
BITMAP
0500
0500
0500
0500
0500
0500
0500
0500
0500
0500
0500
0500
0500
0500
05F8
0500
0500
0500
0500
0500
0500
0500
0500
0500
0500
0500
0500
0500
0500
ENDCHAR
STARTCHAR SF420000
ENCODING 9568
SWIDTH 406 0
DWIDTH 13 0
BBX 13 29 0 -5
BITMAP
0500
0500
0500
0500
0500
0500
0500
0500
0500
0500
0500
0500
0500
05F8
0400
05F8
0500
0500
0500
0500
0500
0500
0500
0500
0500
0500
0500
0500
0500
ENDCHAR
STARTCHAR SF190000
ENCODING 9569
SWIDTH 406 0
DWIDTH 13 0
BBX 13 29 0 -5
BITMAP
0200
0200
0200
0200
0200
0200
0200
0200
0200
0200
0200
0200
0200
FE00
0200
FE00
0200
0200
0200
0200
0200
0200
0200
0200
0200
0200
0200
0200
0200
ENDCHAR
STARTCHAR SF200000
ENCODING 9570
SWIDTH 406 0
DWIDTH 13 0
BBX 13 29 0 -5
BITMAP
0500
0500
0500
0500
0500
0500
0500
0500
0500
0500
0500
0500
0500
0500
FD00
0500
0500
0500
0500
0500
0500
0500
0500
0500
0500
0500
0500
0500
0500
ENDCHAR
STARTCHAR SF230000
ENCODING 9571
SWIDTH 406 0
DWIDTH 13 0
BBX 13 29 0 -5
BITMAP
0500
0500
0500
0500
0500
0500
0500
0500
0500
0500
0500
0500
0500
FD00
0100
FD00
0500
0500
0500
0500
0500
0500
0500
0500
0500
0500
0500
0500
0500
ENDCHAR
STARTCHAR SF470000
ENCODING 9572
SWIDTH 406 0
DWIDTH 13 0
BBX 13 29 0 -5
BITMAP
0000
0000
0000
0000
0000
0000
0000
0000
0000
0000
0000
0000
0000
FFF8
0000
FFF8
0200
0200
0200
0200
0200
0200
0200
0200
0200
0200
0200
0200
0200
ENDCHAR
STARTCHAR SF480000
ENCODING 9573
SWIDTH 406 0
DWIDTH 13 0
BBX 13 29 0 -5
BITMAP
0000
0000
0000
0000
0000
0000
0000
0000
0000
0000
0000
0000
0000
0000
FFF8
0500
0500
0500
0500
0500
0500
0500
0500
0500
0500
0500
0500
0500
0500
ENDCHAR
STARTCHAR SF410000
ENCODING 9574
SWIDTH 406 0
DWIDTH 13 0
BBX 13 29 0 -5
BITMAP
0000
0000
0000
0000
0000
0000
0000
0000
0000
0000
0000
0000
0000
FFF8
0000
FDF8
0500
0500
0500
0500
0500
0500
0500
0500
0500
0500
0500
0500
0500
ENDCHAR
STARTCHAR SF450000
ENCODING 9575
SWIDTH 406 0
DWIDTH 13 0
BBX 13 29 0 -5
BITMAP
0200
0200
0200
0200
0200
0200
0200
0200
0200
0200
0200
0200
0200
FFF8
0000
FFF8
0000
0000
0000
0000
0000
0000
0000
0000
0000
0000
0000
0000
0000
ENDCHAR
STARTCHAR SF460000
ENCODING 9576
SWIDTH 406 0
DWIDTH 13 0
BBX 13 29 0 -5
BITMAP
0500
0500
0500
0500
0500
0500
0500
0500
0500
0500
0500
0500
0500
0500
FFF8
0000
0000
0000
0000
0000
0000
0000
0000
0000
0000
0000
0000
0000
0000
ENDCHAR
STARTCHAR SF400000
ENCODING 9577
SWIDTH 406 0
DWIDTH 13 0
BBX 13 29 0 -5
BITMAP
0500
0500
0500
0500
0500
0500
0500
0500
0500
0500
0500
0500
0500
FDF8
0000
FFF8
0000
0000
0000
0000
0000
0000
0000
0000
0000
0000
0000
0000
0000
ENDCHAR
STARTCHAR SF540000
ENCODING 9578
SWIDTH 406 0
DWIDTH 13 0
BBX 13 29 0 -5
BITMAP
0200
0200
0200
0200
0200
0200
0200
0200
0200
0200
0200
0200
0200
FFF8
0000
FFF8
0200
0200
0200
0200
0200
0200
0200
0200
0200
0200
0200
0200
0200
ENDCHAR
STARTCHAR SF530000
ENCODING 9579
SWIDTH 406 0
DWIDTH 13 0
BBX 13 29 0 -5
BITMAP
0500
0500
0500
0500
0500
0500
0500
0500
0500
0500
0500
0500
0500
0500
FDF8
0500
0500
0500
0500
0500
0500
0500
0500
0500
0500
0500
0500
0500
0500
ENDCHAR
STARTCHAR SF440000
ENCODING 9580
SWIDTH 406 0
DWIDTH 13 0
BBX 13 29 0 -5
BITMAP
0500
0500
0500
0500
0500
0500
0500
0500
0500
0500
0500
0500
0500
FDF8
0000
FDF8
0500
0500
0500
0500
0500
0500
0500
0500
0500
0500
0500
0500
0500
ENDCHAR
STARTCHAR upblock
ENCODING 9600
SWIDTH 406 0
DWIDTH 13 0
BBX 13 29 0 -5
BITMAP
FFF8
FFF8
FFF8
FFF8
FFF8
FFF8
FFF8
FFF8
FFF8
FFF8
FFF8
FFF8
FFF8
FFF8
0000
0000
0000
0000
0000
0000
0000
0000
0000
0000
0000
0000
0000
0000
0000
ENDCHAR
STARTCHAR dnblock
ENCODING 9604
SWIDTH 406 0
DWIDTH 13 0
BBX 13 29 0 -5
BITMAP
0000
0000
0000
0000
0000
0000
0000
0000
0000
0000
0000
0000
0000
0000
FFF8
FFF8
FFF8
FFF8
FFF8
FFF8
FFF8
FFF8
FFF8
FFF8
FFF8
FFF8
FFF8
FFF8
FFF8
ENDCHAR
STARTCHAR block
ENCODING 9608
SWIDTH 406 0
DWIDTH 13 0
BBX 13 29 0 -5
BITMAP
FFF8
FFF8
FFF8
FFF8
FFF8
FFF8
FFF8
FFF8
FFF8
FFF8
FFF8
FFF8
FFF8
FFF8
FFF8
FFF8
FFF8
FFF8
FFF8
FFF8
FFF8
FFF8
FFF8
FFF8
FFF8
FFF8
FFF8
FFF8
FFF8
ENDCHAR
STARTCHAR lfblock
ENCODING 9612
SWIDTH 406 0
DWIDTH 13 0
BBX 13 29 0 -5
BITMAP
FE00
FE00
FE00
FE00
FE00
FE00
FE00
FE00
FE00
FE00
FE00
FE00
FE00
FE00
FE00
FE00
FE00
FE00
FE00
FE00
FE00
FE00
FE00
FE00
FE00
FE00
FE00
FE00
FE00
ENDCHAR
STARTCHAR rtblock
ENCODING 9616
SWIDTH 406 0
DWIDTH 13 0
BBX 13 29 0 -5
BITMAP
01F8
01F8
01F8
01F8
01F8
01F8
01F8
01F8
01F8
01F8
01F8
01F8
01F8
01F8
01F8
01F8
01F8
01F8
01F8
01F8
01F8
01F8
01F8
01F8
01F8
01F8
01F8
01F8
01F8
ENDCHAR
STARTCHAR ltshade
ENCODING 9617
SWIDTH 406 0
DWIDTH 13 0
BBX 13 29 0 -5
BITMAP
0888
4440
2220
1110
0888
4440
2220
1110
0888
4440
2220
1110
0888
4440
2220
1110
0888
4440
2220
1110
0888
4440
2220
1110
0888
4440
2220
1110
0000
ENDCHAR
STARTCHAR shade
ENCODING 9618
SWIDTH 406 0
DWIDTH 13 0
BBX 13 29 0 -5
BITMAP
5550
2AA8
5550
2AA8
5550
2AA8
5550
2AA8
5550
2AA8
5550
2AA8
5550
2AA8
5550
2AA8
5550
2AA8
5550
2AA8
5550
2AA8
5550
2AA8
5550
2AA8
5550
2AA8
0000
ENDCHAR
STARTCHAR dkshade
ENCODING 9619
SWIDTH 406 0
DWIDTH 13 0
BBX 13 29 0 -5
BITMAP
3BB8
5DD8
6EE8
7770
3BB8
5DD8
6EE8
7770
3BB8
5DD8
6EE8
7770
3BB8
5DD8
6EE8
7770
3BB8
5DD8
6EE8
7770
3BB8
5DD8
6EE8
7770
3BB8
5DD8
6EE8
7770
0000
ENDCHAR
STARTCHAR filledbox
ENCODING 9632
SWIDTH 406 0
DWIDTH 13 0
BBX 13 29 0 -5
BITMAP
0000
0000
0000
0000
0000
0000
0000
0000
0000
1FC0
1FC0
1FC0
1FC0
1FC0
1FC0
1FC0
1FC0
1FC0
1FC0
1FC0
0000
0000
0000
0000
0000
0000
0000
0000
0000
ENDCHAR
STARTCHAR filledrect
ENCODING 9644
SWIDTH 406 0
DWIDTH 13 0
BBX 13 29 0 -5
BITMAP
0000
0000
0000
0000
0000
0000
0000
0000
0000
0000
0000
0000
0000
0000
3FF0
3FF0
3FF0
3FF0
3FF0
3FF0
3FF0
0000
0000
0000
0000
0000
0000
0000
0000
ENDCHAR
STARTCHAR triagup
ENCODING 9650
SWIDTH 406 0
DWIDTH 13 0
BBX 13 29 0 -5
BITMAP
0000
0000
0000
0000
0000
0000
0000
0000
0000
0200
0700
0700
0F80
0F80
1FC0
1FC0
3FE0
3FE0
3FE0
0000
0000
0000
0000
0000
0000
0000
0000
0000
0000
ENDCHAR
STARTCHAR triagrt
ENCODING 9658
SWIDTH 406 0
DWIDTH 13 0
BBX 13 29 0 -5
BITMAP
0000
0000
0000
0000
2000
3000
3800
3C00
3E00
3F00
3F80
3FC0
3FE0
3FF0
3FE0
3FC0
3F80
3F00
3E00
3C00
3800
3000
2000
0000
0000
0000
0000
0000
0000
ENDCHAR
STARTCHAR triagdn
ENCODING 9660
SWIDTH 406 0
DWIDTH 13 0
BBX 13 29 0 -5
BITMAP
0000
0000
0000
0000
0000
0000
0000
0000
0000
3FE0
3FE0
3FE0
1FC0
1FC0
0F80
0F80
0700
0700
0200
0000
0000
0000
0000
0000
0000
0000
0000
0000
0000
ENDCHAR
STARTCHAR triaglf
ENCODING 9668
SWIDTH 406 0
DWIDTH 13 0
BBX 13 29 0 -5
BITMAP
0000
0000
0000
0000
0010
0030
0070
00F0
01F0
03F0
07F0
0FF0
1FF0
3FF0
1FF0
0FF0
07F0
03F0
01F0
00F0
0070
0030
0010
0000
0000
0000
0000
0000
0000
ENDCHAR
STARTCHAR circle
ENCODING 9675
SWIDTH 406 0
DWIDTH 13 0
BBX 13 29 0 -5
BITMAP
0000
0000
0000
0000
0000
0000
0000
0000
0000
0000
0780
0840
1020
1020
1020
1020
0840
0780
0000
0000
0000
0000
0000
0000
0000
0000
0000
0000
0000
ENDCHAR
STARTCHAR invbullet
ENCODING 9688
SWIDTH 406 0
DWIDTH 13 0
BBX 13 29 0 -5
BITMAP
7FF8
7FF8
7FF8
7FF8
7FF8
7FF8
7FF8
7FF8
7FF8
7FF8
7878
7038
6018
6018
6018
6018
7038
7878
7FF8
7FF8
7FF8
7FF8
7FF8
7FF8
7FF8
7FF8
7FF8
7FF8
0000
ENDCHAR
STARTCHAR invcircle
ENCODING 9689
SWIDTH 406 0
DWIDTH 13 0
BBX 13 29 0 -5
BITMAP
7FF8
7FF8
7FF8
7FF8
7FF8
7FF8
7FF8
7FF8
7FF8
7FF8
7878
77B8
6FD8
6FD8
6FD8
6FD8
77B8
7878
7FF8
7FF8
7FF8
7FF8
7FF8
7FF8
7FF8
7FF8
7FF8
7FF8
0000
ENDCHAR
STARTCHAR smileface
ENCODING 9786
SWIDTH 406 0
DWIDTH 13 0
BBX 13 29 0 -5
BITMAP
0000
0000
0000
0000
0000
0000
0000
0FC0
1860
3030
2010
2CD0
2CD0
2010
2850
2CD0
2790
3030
1860
0FC0
0000
0000
0000
0000
0000
0000
0000
0000
0000
ENDCHAR
STARTCHAR invsmileface
ENCODING 9787
SWIDTH 406 0
DWIDTH 13 0
BBX 13 29 0 -5
BITMAP
0000
0000
0000
0000
0000
0000
0000
0FC0
1FE0
3FF0
3FF0
3330
3330
3FF0
37B0
3330
3870
3FF0
1FE0
0FC0
0000
0000
0000
0000
0000
0000
0000
0000
0000
ENDCHAR
STARTCHAR sun
ENCODING 9788
SWIDTH 406 0
DWIDTH 13 0
BBX 13 29 0 -5
BITMAP
0000
0000
0000
0000
0000
0000
0000
0000
0200
4210
6230
3760
18C0
1040
7070
1040
18C0
3760
6230
4210
0200
0000
0000
0000
0000
0000
0000
0000
0000
ENDCHAR
STARTCHAR female
ENCODING 9792
SWIDTH 406 0
DWIDTH 13 0
BBX 13 29 0 -5
BITMAP
0000
0000
0000
0000
0000
0000
0780
0CC0
1860
1860
3030
3030
3030
1860
1860
0CC0
0780
0300
0300
0FC0
0FC0
0300
0300
0000
0000
0000
0000
0000
0000
ENDCHAR
STARTCHAR male
ENCODING 9794
SWIDTH 406 0
DWIDTH 13 0
BBX 13 29 0 -5
BITMAP
0000
0000
0000
0000
0000
0000
01F0
0070
0070
00D0
00D0
0190
0F80
1980
30C0
30C0
30C0
30C0
30C0
30C0
30C0
1980
0F00
0000
0000
0000
0000
0000
0000
ENDCHAR
STARTCHAR spade
ENCODING 9824
SWIDTH 406 0
DWIDTH 13 0
BBX 13 29 0 -5
BITMAP
0000
0000
0000
0000
0000
0000
0000
0200
0700
0F80
1FC0
3FE0
3FE0
7FF0
7FF0
7FF0
3AE0
0200
0700
0F80
0000
0000
0000
0000
0000
0000
0000
0000
0000
ENDCHAR
STARTCHAR club
ENCODING 9827
SWIDTH 406 0
DWIDTH 13 0
BBX 13 29 0 -5
BITMAP
0000
0000
0000
0000
0000
0000
0000
0700
0F80
0F80
0F80
0700
3AE0
7FF0
7FF0
7FF0
3AE0
0200
0700
0F80
0000
0000
0000
0000
0000
0000
0000
0000
0000
ENDCHAR
STARTCHAR heart
ENCODING 9829
SWIDTH 406 0
DWIDTH 13 0
BBX 13 29 0 -5
BITMAP
0000
0000
0000
0000
0000
0000
0000
0000
38E0
7DF0
7FF0
7FF0
7FF0
3FE0
3FE0
1FC0
0F80
0700
0200
0200
0000
0000
0000
0000
0000
0000
0000
0000
0000
ENDCHAR
STARTCHAR diamond
ENCODING 9830
SWIDTH 406 0
DWIDTH 13 0
BBX 13 29 0 -5
BITMAP
0000
0000
0000
0000
0000
0000
0000
0200
0200
0700
0700
0F80
0F80
1FC0
1FC0
0F80
0F80
0700
0700
0200
0200
0000
0000
0000
0000
0000
0000
0000
0000
ENDCHAR
STARTCHAR musicalnote
ENCODING 9834
SWIDTH 406 0
DWIDTH 13 0
BBX 13 29 0 -5
BITMAP
0000
0000
0000
0000
0200
0200
0300
0300
0380
03C0
02E0
0260
0230
0230
0210
0210
0210
0210
0220
0E00
1C00
3C00
3800
3000
0000
0000
0000
0000
0000
ENDCHAR
STARTCHAR musicalnotedbl
ENCODING 9835
SWIDTH 406 0
DWIDTH 13 0
BBX 13 29 0 -5
BITMAP
0000
0000
0000
0000
0600
07C0
07F0
05F0
0430
0410
0410
0410
0410
0410
0410
0410
0410
1C10
3810
7870
70E0
61E0
01C0
0180
0000
0000
0000
0000
0000
ENDCHAR
STARTCHAR uni3044
ENCODING 12356
SWIDTH 406 0
DWIDTH 13 0
BBX 13 29 0 -5
BITMAP
0000
0000
0000
0000
0000
0000
0000
0000
0000
0000
0000
0000
0000
0000
0000
0000
0000
0000
0000
0000
0000
0000
0000
0000
0000
0000
0000
0000
0000
ENDCHAR
STARTCHAR uni3046
ENCODING 12358
SWIDTH 406 0
DWIDTH 13 0
BBX 13 29 0 -5
BITMAP
0000
0000
0000
0000
0000
0000
0000
0000
0000
0000
0000
0000
0000
0000
0000
0000
0000
0000
0000
0000
0000
0000
0000
0000
0000
0000
0000
0000
0000
ENDCHAR
STARTCHAR uni304B
ENCODING 12363
SWIDTH 406 0
DWIDTH 13 0
BBX 13 29 0 -5
BITMAP
0000
0000
0000
0000
0000
0000
0000
0000
0000
0000
0000
0000
0000
0000
0000
0000
0000
0000
0000
0000
0000
0000
0000
0000
0000
0000
0000
0000
0000
ENDCHAR
STARTCHAR uni3057
ENCODING 12375
SWIDTH 406 0
DWIDTH 13 0
BBX 13 29 0 -5
BITMAP
0000
0000
0000
0000
0000
0000
0000
0000
0000
0000
0000
0000
0000
0000
0000
0000
0000
0000
0000
0000
0000
0000
0000
0000
0000
0000
0000
0000
0000
ENDCHAR
STARTCHAR uni306E
ENCODING 12398
SWIDTH 406 0
DWIDTH 13 0
BBX 13 29 0 -5
BITMAP
0000
0000
0000
0000
0000
0000
0000
0000
0000
0000
0000
0000
0000
0000
0000
0000
0000
0000
0000
0000
0000
0000
0000
0000
0000
0000
0000
0000
0000
ENDCHAR
STARTCHAR uni3093
ENCODING 12435
SWIDTH 406 0
DWIDTH 13 0
BBX 13 29 0 -5
BITMAP
0000
0000
0000
0000
0000
0000
0000
0000
0000
0000
0000
0000
0000
0000
0000
0000
0000
0000
0000
0000
0000
0000
0000
0000
0000
0000
0000
0000
0000
ENDCHAR
STARTCHAR .notdef
ENCODING -1
SWIDTH 406 0
DWIDTH 13 0
BBX 12 22 1 0
BITMAP
FFF0
8010
8010
8010
8010
8010
8010
8010
8010
8010
8010
8010
8010
8010
8010
8010
8010
8010
8010
8010
8010
FFF0
ENDCHAR
ENDFONT
