STARTFONT 2.1
FONT Bm437_ApricotPortable-8px
SIZE 8 75 75
FONTBOUNDINGBOX 8 8 0 -1
STARTPROPERTIES 3
PIXEL_SIZE 8
FONT_ASCENT 7
FONT_DESCENT 1
ENDPROPERTIES
CHARS 295
STARTCHAR uni0000
ENCODING 0
SWIDTH 1000 0
DWIDTH 8 0
BBX 8 8 0 -1
BITMAP
00
00
00
00
00
00
00
00
ENDCHAR
STARTCHAR uni0001
ENCODING 1
SWIDTH 1000 0
DWIDTH 8 0
BBX 8 8 0 -1
BITMAP
7C
82
AA
92
82
BA
82
7C
ENDCHAR
STARTCHAR uni0002
ENCODING 2
SWIDTH 1000 0
DWIDTH 8 0
BBX 8 8 0 -1
BITMAP
7C
FE
D6
EE
FE
C6
FE
7C
ENDCHAR
STARTCHAR uni0003
ENCODING 3
SWIDTH 1000 0
DWIDTH 8 0
BBX 8 8 0 -1
BITMAP
6C
FE
FE
FE
7C
38
10
00
ENDCHAR
STARTCHAR uni0004
ENCODING 4
SWIDTH 1000 0
DWIDTH 8 0
BBX 8 8 0 -1
BITMAP
10
38
7C
FE
7C
38
10
00
ENDCHAR
STARTCHAR uni0005
ENCODING 5
SWIDTH 1000 0
DWIDTH 8 0
BBX 8 8 0 -1
BITMAP
38
7C
38
FE
FE
7C
10
7C
ENDCHAR
STARTCHAR uni0006
ENCODING 6
SWIDTH 1000 0
DWIDTH 8 0
BBX 8 8 0 -1
BITMAP
10
38
7C
FE
FE
7C
10
FE
ENDCHAR
STARTCHAR uni0007
ENCODING 7
SWIDTH 1000 0
DWIDTH 8 0
BBX 8 8 0 -1
BITMAP
00
00
00
38
7C
7C
7C
38
ENDCHAR
STARTCHAR uni0008
ENCODING 8
SWIDTH 1000 0
DWIDTH 8 0
BBX 8 8 0 -1
BITMAP
FE
FE
FE
C6
82
82
82
C6
ENDCHAR
STARTCHAR uni0009
ENCODING 9
SWIDTH 1000 0
DWIDTH 8 0
BBX 8 8 0 -1
BITMAP
00
00
00
38
44
44
44
38
ENDCHAR
STARTCHAR uni000A
ENCODING 10
SWIDTH 1000 0
DWIDTH 8 0
BBX 8 8 0 -1
BITMAP
FE
FE
FE
C6
BA
BA
BA
C6
ENDCHAR
STARTCHAR uni000B
ENCODING 11
SWIDTH 1000 0
DWIDTH 8 0
BBX 8 8 0 -1
BITMAP
3E
1E
10
20
7C
82
82
7C
ENDCHAR
STARTCHAR uni000C
ENCODING 12
SWIDTH 1000 0
DWIDTH 8 0
BBX 8 8 0 -1
BITMAP
3E
41
41
3E
08
7F
08
08
ENDCHAR
STARTCHAR uni000D
ENCODING 13
SWIDTH 1000 0
DWIDTH 8 0
BBX 8 8 0 -1
BITMAP
3E
22
3E
20
20
20
40
00
ENDCHAR
STARTCHAR uni000E
ENCODING 14
SWIDTH 1000 0
DWIDTH 8 0
BBX 8 8 0 -1
BITMAP
3E
22
3E
22
22
22
44
00
ENDCHAR
STARTCHAR uni000F
ENCODING 15
SWIDTH 1000 0
DWIDTH 8 0
BBX 8 8 0 -1
BITMAP
18
7E
18
3C
42
3C
18
7E
ENDCHAR
STARTCHAR uni0010
ENCODING 16
SWIDTH 1000 0
DWIDTH 8 0
BBX 8 8 0 -1
BITMAP
80
C0
E0
F0
F8
F0
E0
C0
ENDCHAR
STARTCHAR uni0011
ENCODING 17
SWIDTH 1000 0
DWIDTH 8 0
BBX 8 8 0 -1
BITMAP
02
06
0E
1E
3E
1E
0E
06
ENDCHAR
STARTCHAR uni0012
ENCODING 18
SWIDTH 1000 0
DWIDTH 8 0
BBX 8 8 0 -1
BITMAP
10
38
54
92
10
92
54
38
ENDCHAR
STARTCHAR uni0013
ENCODING 19
SWIDTH 1000 0
DWIDTH 8 0
BBX 8 8 0 -1
BITMAP
28
28
28
28
28
28
00
28
ENDCHAR
STARTCHAR uni0014
ENCODING 20
SWIDTH 1000 0
DWIDTH 8 0
BBX 8 8 0 -1
BITMAP
74
94
94
94
74
14
14
14
ENDCHAR
STARTCHAR uni0015
ENCODING 21
SWIDTH 1000 0
DWIDTH 8 0
BBX 8 8 0 -1
BITMAP
78
84
40
7C
82
82
7C
84
ENDCHAR
STARTCHAR uni0016
ENCODING 22
SWIDTH 1000 0
DWIDTH 8 0
BBX 8 8 0 -1
BITMAP
00
00
00
00
FF
FF
FF
FF
ENDCHAR
STARTCHAR uni0017
ENCODING 23
SWIDTH 1000 0
DWIDTH 8 0
BBX 8 8 0 -1
BITMAP
10
38
54
92
10
92
54
38
ENDCHAR
STARTCHAR uni0018
ENCODING 24
SWIDTH 1000 0
DWIDTH 8 0
BBX 8 8 0 -1
BITMAP
10
38
54
92
10
10
10
10
ENDCHAR
STARTCHAR uni0019
ENCODING 25
SWIDTH 1000 0
DWIDTH 8 0
BBX 8 8 0 -1
BITMAP
10
10
10
10
10
92
54
38
ENDCHAR
STARTCHAR uni001A
ENCODING 26
SWIDTH 1000 0
DWIDTH 8 0
BBX 8 8 0 -1
BITMAP
00
10
08
04
FE
04
08
10
ENDCHAR
STARTCHAR uni001B
ENCODING 27
SWIDTH 1000 0
DWIDTH 8 0
BBX 8 8 0 -1
BITMAP
00
10
20
40
FE
40
20
10
ENDCHAR
STARTCHAR uni001C
ENCODING 28
SWIDTH 1000 0
DWIDTH 8 0
BBX 8 8 0 -1
BITMAP
00
00
00
00
40
40
40
7F
ENDCHAR
STARTCHAR uni001D
ENCODING 29
SWIDTH 1000 0
DWIDTH 8 0
BBX 8 8 0 -1
BITMAP
00
00
6C
C6
FE
C6
6C
00
ENDCHAR
STARTCHAR uni001E
ENCODING 30
SWIDTH 1000 0
DWIDTH 8 0
BBX 8 8 0 -1
BITMAP
10
38
7C
FE
00
00
00
00
ENDCHAR
STARTCHAR uni001F
ENCODING 31
SWIDTH 1000 0
DWIDTH 8 0
BBX 8 8 0 -1
BITMAP
00
00
00
00
FE
7C
38
10
ENDCHAR
STARTCHAR space
ENCODING 32
SWIDTH 1000 0
DWIDTH 8 0
BBX 8 8 0 -1
BITMAP
00
00
00
00
00
00
00
00
ENDCHAR
STARTCHAR exclam
ENCODING 33
SWIDTH 1000 0
DWIDTH 8 0
BBX 8 8 0 -1
BITMAP
08
08
08
08
08
00
08
00
ENDCHAR
STARTCHAR quotedbl
ENCODING 34
SWIDTH 1000 0
DWIDTH 8 0
BBX 8 8 0 -1
BITMAP
12
24
48
00
00
00
00
00
ENDCHAR
STARTCHAR numbersign
ENCODING 35
SWIDTH 1000 0
DWIDTH 8 0
BBX 8 8 0 -1
BITMAP
14
14
7F
14
7F
14
14
00
ENDCHAR
STARTCHAR dollar
ENCODING 36
SWIDTH 1000 0
DWIDTH 8 0
BBX 8 8 0 -1
BITMAP
08
3F
48
3E
09
7E
08
00
ENDCHAR
STARTCHAR percent
ENCODING 37
SWIDTH 1000 0
DWIDTH 8 0
BBX 8 8 0 -1
BITMAP
21
52
24
08
12
25
42
00
ENDCHAR
STARTCHAR ampersand
ENCODING 38
SWIDTH 1000 0
DWIDTH 8 0
BBX 8 8 0 -1
BITMAP
18
24
24
38
45
42
3D
00
ENDCHAR
STARTCHAR quotesingle
ENCODING 39
SWIDTH 1000 0
DWIDTH 8 0
BBX 8 8 0 -1
BITMAP
04
08
10
00
00
00
00
00
ENDCHAR
STARTCHAR parenleft
ENCODING 40
SWIDTH 1000 0
DWIDTH 8 0
BBX 8 8 0 -1
BITMAP
04
08
10
10
10
08
04
00
ENDCHAR
STARTCHAR parenright
ENCODING 41
SWIDTH 1000 0
DWIDTH 8 0
BBX 8 8 0 -1
BITMAP
10
08
04
04
04
08
10
00
ENDCHAR
STARTCHAR asterisk
ENCODING 42
SWIDTH 1000 0
DWIDTH 8 0
BBX 8 8 0 -1
BITMAP
00
22
1C
7F
1C
22
00
00
ENDCHAR
STARTCHAR plus
ENCODING 43
SWIDTH 1000 0
DWIDTH 8 0
BBX 8 8 0 -1
BITMAP
00
08
08
3E
08
08
00
00
ENDCHAR
STARTCHAR comma
ENCODING 44
SWIDTH 1000 0
DWIDTH 8 0
BBX 8 8 0 -1
BITMAP
00
00
00
00
18
18
08
10
ENDCHAR
STARTCHAR hyphen
ENCODING 45
SWIDTH 1000 0
DWIDTH 8 0
BBX 8 8 0 -1
BITMAP
00
00
00
3C
00
00
00
00
ENDCHAR
STARTCHAR period
ENCODING 46
SWIDTH 1000 0
DWIDTH 8 0
BBX 8 8 0 -1
BITMAP
00
00
00
00
00
18
18
00
ENDCHAR
STARTCHAR slash
ENCODING 47
SWIDTH 1000 0
DWIDTH 8 0
BBX 8 8 0 -1
BITMAP
01
02
04
08
10
20
40
00
ENDCHAR
STARTCHAR zero
ENCODING 48
SWIDTH 1000 0
DWIDTH 8 0
BBX 8 8 0 -1
BITMAP
3C
42
46
4A
52
62
3C
00
ENDCHAR
STARTCHAR one
ENCODING 49
SWIDTH 1000 0
DWIDTH 8 0
BBX 8 8 0 -1
BITMAP
08
18
08
08
08
08
1C
00
ENDCHAR
STARTCHAR two
ENCODING 50
SWIDTH 1000 0
DWIDTH 8 0
BBX 8 8 0 -1
BITMAP
3C
42
02
3C
40
40
7E
00
ENDCHAR
STARTCHAR three
ENCODING 51
SWIDTH 1000 0
DWIDTH 8 0
BBX 8 8 0 -1
BITMAP
3C
42
02
1C
02
42
3C
00
ENDCHAR
STARTCHAR four
ENCODING 52
SWIDTH 1000 0
DWIDTH 8 0
BBX 8 8 0 -1
BITMAP
0C
14
24
44
7E
04
04
00
ENDCHAR
STARTCHAR five
ENCODING 53
SWIDTH 1000 0
DWIDTH 8 0
BBX 8 8 0 -1
BITMAP
7E
40
78
04
02
44
38
00
ENDCHAR
STARTCHAR six
ENCODING 54
SWIDTH 1000 0
DWIDTH 8 0
BBX 8 8 0 -1
BITMAP
1C
20
40
7C
42
42
3C
00
ENDCHAR
STARTCHAR seven
ENCODING 55
SWIDTH 1000 0
DWIDTH 8 0
BBX 8 8 0 -1
BITMAP
7E
42
04
08
10
10
10
00
ENDCHAR
STARTCHAR eight
ENCODING 56
SWIDTH 1000 0
DWIDTH 8 0
BBX 8 8 0 -1
BITMAP
3C
42
42
3C
42
42
3C
00
ENDCHAR
STARTCHAR nine
ENCODING 57
SWIDTH 1000 0
DWIDTH 8 0
BBX 8 8 0 -1
BITMAP
3C
42
42
3E
02
02
3C
00
ENDCHAR
STARTCHAR colon
ENCODING 58
SWIDTH 1000 0
DWIDTH 8 0
BBX 8 8 0 -1
BITMAP
00
18
18
00
18
18
00
00
ENDCHAR
STARTCHAR semicolon
ENCODING 59
SWIDTH 1000 0
DWIDTH 8 0
BBX 8 8 0 -1
BITMAP
00
18
18
00
18
18
08
10
ENDCHAR
STARTCHAR less
ENCODING 60
SWIDTH 1000 0
DWIDTH 8 0
BBX 8 8 0 -1
BITMAP
08
10
20
40
20
10
08
00
ENDCHAR
STARTCHAR equal
ENCODING 61
SWIDTH 1000 0
DWIDTH 8 0
BBX 8 8 0 -1
BITMAP
00
00
7E
00
7E
00
00
00
ENDCHAR
STARTCHAR greater
ENCODING 62
SWIDTH 1000 0
DWIDTH 8 0
BBX 8 8 0 -1
BITMAP
10
08
04
02
04
08
10
00
ENDCHAR
STARTCHAR question
ENCODING 63
SWIDTH 1000 0
DWIDTH 8 0
BBX 8 8 0 -1
BITMAP
3C
42
02
0C
10
10
00
10
ENDCHAR
STARTCHAR at
ENCODING 64
SWIDTH 1000 0
DWIDTH 8 0
BBX 8 8 0 -1
BITMAP
1C
22
4E
52
4E
40
3C
00
ENDCHAR
STARTCHAR A
ENCODING 65
SWIDTH 1000 0
DWIDTH 8 0
BBX 8 8 0 -1
BITMAP
18
24
42
42
7E
42
42
00
ENDCHAR
STARTCHAR B
ENCODING 66
SWIDTH 1000 0
DWIDTH 8 0
BBX 8 8 0 -1
BITMAP
7C
22
22
3C
22
22
7C
00
ENDCHAR
STARTCHAR C
ENCODING 67
SWIDTH 1000 0
DWIDTH 8 0
BBX 8 8 0 -1
BITMAP
1C
22
40
40
40
22
1C
00
ENDCHAR
STARTCHAR D
ENCODING 68
SWIDTH 1000 0
DWIDTH 8 0
BBX 8 8 0 -1
BITMAP
78
24
22
22
22
24
78
00
ENDCHAR
STARTCHAR E
ENCODING 69
SWIDTH 1000 0
DWIDTH 8 0
BBX 8 8 0 -1
BITMAP
7E
40
40
78
40
40
7E
00
ENDCHAR
STARTCHAR F
ENCODING 70
SWIDTH 1000 0
DWIDTH 8 0
BBX 8 8 0 -1
BITMAP
7E
40
40
78
40
40
40
00
ENDCHAR
STARTCHAR G
ENCODING 71
SWIDTH 1000 0
DWIDTH 8 0
BBX 8 8 0 -1
BITMAP
1C
22
40
4E
42
22
1C
00
ENDCHAR
STARTCHAR H
ENCODING 72
SWIDTH 1000 0
DWIDTH 8 0
BBX 8 8 0 -1
BITMAP
42
42
42
7E
42
42
42
00
ENDCHAR
STARTCHAR I
ENCODING 73
SWIDTH 1000 0
DWIDTH 8 0
BBX 8 8 0 -1
BITMAP
1C
08
08
08
08
08
1C
00
ENDCHAR
STARTCHAR J
ENCODING 74
SWIDTH 1000 0
DWIDTH 8 0
BBX 8 8 0 -1
BITMAP
1F
04
04
04
04
44
38
00
ENDCHAR
STARTCHAR K
ENCODING 75
SWIDTH 1000 0
DWIDTH 8 0
BBX 8 8 0 -1
BITMAP
42
44
48
70
48
44
42
00
ENDCHAR
STARTCHAR L
ENCODING 76
SWIDTH 1000 0
DWIDTH 8 0
BBX 8 8 0 -1
BITMAP
40
40
40
40
40
40
7E
00
ENDCHAR
STARTCHAR M
ENCODING 77
SWIDTH 1000 0
DWIDTH 8 0
BBX 8 8 0 -1
BITMAP
42
66
5A
5A
42
42
42
00
ENDCHAR
STARTCHAR N
ENCODING 78
SWIDTH 1000 0
DWIDTH 8 0
BBX 8 8 0 -1
BITMAP
42
62
52
4A
46
42
42
00
ENDCHAR
STARTCHAR O
ENCODING 79
SWIDTH 1000 0
DWIDTH 8 0
BBX 8 8 0 -1
BITMAP
3C
42
42
42
42
42
3C
00
ENDCHAR
STARTCHAR P
ENCODING 80
SWIDTH 1000 0
DWIDTH 8 0
BBX 8 8 0 -1
BITMAP
7C
42
42
7C
40
40
40
00
ENDCHAR
STARTCHAR Q
ENCODING 81
SWIDTH 1000 0
DWIDTH 8 0
BBX 8 8 0 -1
BITMAP
3C
42
42
42
4A
44
3A
00
ENDCHAR
STARTCHAR R
ENCODING 82
SWIDTH 1000 0
DWIDTH 8 0
BBX 8 8 0 -1
BITMAP
7C
42
42
7C
48
44
42
00
ENDCHAR
STARTCHAR S
ENCODING 83
SWIDTH 1000 0
DWIDTH 8 0
BBX 8 8 0 -1
BITMAP
3C
42
40
3C
02
42
3C
00
ENDCHAR
STARTCHAR T
ENCODING 84
SWIDTH 1000 0
DWIDTH 8 0
BBX 8 8 0 -1
BITMAP
7F
08
08
08
08
08
08
00
ENDCHAR
STARTCHAR U
ENCODING 85
SWIDTH 1000 0
DWIDTH 8 0
BBX 8 8 0 -1
BITMAP
42
42
42
42
42
42
3C
00
ENDCHAR
STARTCHAR V
ENCODING 86
SWIDTH 1000 0
DWIDTH 8 0
BBX 8 8 0 -1
BITMAP
42
42
42
42
24
24
18
00
ENDCHAR
STARTCHAR W
ENCODING 87
SWIDTH 1000 0
DWIDTH 8 0
BBX 8 8 0 -1
BITMAP
42
42
42
5A
5A
66
42
00
ENDCHAR
STARTCHAR X
ENCODING 88
SWIDTH 1000 0
DWIDTH 8 0
BBX 8 8 0 -1
BITMAP
41
22
14
08
14
22
41
00
ENDCHAR
STARTCHAR Y
ENCODING 89
SWIDTH 1000 0
DWIDTH 8 0
BBX 8 8 0 -1
BITMAP
41
22
14
08
08
08
08
00
ENDCHAR
STARTCHAR Z
ENCODING 90
SWIDTH 1000 0
DWIDTH 8 0
BBX 8 8 0 -1
BITMAP
7E
04
08
10
20
40
7E
00
ENDCHAR
STARTCHAR bracketleft
ENCODING 91
SWIDTH 1000 0
DWIDTH 8 0
BBX 8 8 0 -1
BITMAP
3C
20
20
20
20
20
3C
00
ENDCHAR
STARTCHAR backslash
ENCODING 92
SWIDTH 1000 0
DWIDTH 8 0
BBX 8 8 0 -1
BITMAP
40
20
10
08
04
02
01
00
ENDCHAR
STARTCHAR bracketright
ENCODING 93
SWIDTH 1000 0
DWIDTH 8 0
BBX 8 8 0 -1
BITMAP
1E
02
02
02
02
02
1E
00
ENDCHAR
STARTCHAR asciicircum
ENCODING 94
SWIDTH 1000 0
DWIDTH 8 0
BBX 8 8 0 -1
BITMAP
00
08
14
22
00
00
00
00
ENDCHAR
STARTCHAR underscore
ENCODING 95
SWIDTH 1000 0
DWIDTH 8 0
BBX 8 8 0 -1
BITMAP
00
00
00
00
00
00
7F
00
ENDCHAR
STARTCHAR grave
ENCODING 96
SWIDTH 1000 0
DWIDTH 8 0
BBX 8 8 0 -1
BITMAP
10
08
04
00
00
00
00
00
ENDCHAR
STARTCHAR a
ENCODING 97
SWIDTH 1000 0
DWIDTH 8 0
BBX 8 8 0 -1
BITMAP
00
00
3C
02
3E
42
3D
00
ENDCHAR
STARTCHAR b
ENCODING 98
SWIDTH 1000 0
DWIDTH 8 0
BBX 8 8 0 -1
BITMAP
40
40
5C
62
42
62
5C
00
ENDCHAR
STARTCHAR c
ENCODING 99
SWIDTH 1000 0
DWIDTH 8 0
BBX 8 8 0 -1
BITMAP
00
00
3E
40
40
40
3E
00
ENDCHAR
STARTCHAR d
ENCODING 100
SWIDTH 1000 0
DWIDTH 8 0
BBX 8 8 0 -1
BITMAP
02
02
3A
46
42
46
3A
00
ENDCHAR
STARTCHAR e
ENCODING 101
SWIDTH 1000 0
DWIDTH 8 0
BBX 8 8 0 -1
BITMAP
00
00
3C
42
7C
40
3C
00
ENDCHAR
STARTCHAR f
ENCODING 102
SWIDTH 1000 0
DWIDTH 8 0
BBX 8 8 0 -1
BITMAP
0C
12
10
7C
10
10
10
00
ENDCHAR
STARTCHAR g
ENCODING 103
SWIDTH 1000 0
DWIDTH 8 0
BBX 8 8 0 -1
BITMAP
00
00
3E
42
42
3E
02
7C
ENDCHAR
STARTCHAR h
ENCODING 104
SWIDTH 1000 0
DWIDTH 8 0
BBX 8 8 0 -1
BITMAP
40
40
5C
62
42
42
42
00
ENDCHAR
STARTCHAR i
ENCODING 105
SWIDTH 1000 0
DWIDTH 8 0
BBX 8 8 0 -1
BITMAP
08
00
18
08
08
08
1C
00
ENDCHAR
STARTCHAR j
ENCODING 106
SWIDTH 1000 0
DWIDTH 8 0
BBX 8 8 0 -1
BITMAP
02
00
02
02
02
02
22
1C
ENDCHAR
STARTCHAR k
ENCODING 107
SWIDTH 1000 0
DWIDTH 8 0
BBX 8 8 0 -1
BITMAP
40
40
44
48
58
64
42
00
ENDCHAR
STARTCHAR l
ENCODING 108
SWIDTH 1000 0
DWIDTH 8 0
BBX 8 8 0 -1
BITMAP
08
08
08
08
08
08
08
00
ENDCHAR
STARTCHAR m
ENCODING 109
SWIDTH 1000 0
DWIDTH 8 0
BBX 8 8 0 -1
BITMAP
00
00
76
49
49
41
41
00
ENDCHAR
STARTCHAR n
ENCODING 110
SWIDTH 1000 0
DWIDTH 8 0
BBX 8 8 0 -1
BITMAP
00
00
5C
62
42
42
42
00
ENDCHAR
STARTCHAR o
ENCODING 111
SWIDTH 1000 0
DWIDTH 8 0
BBX 8 8 0 -1
BITMAP
00
00
3C
42
42
42
3C
00
ENDCHAR
STARTCHAR p
ENCODING 112
SWIDTH 1000 0
DWIDTH 8 0
BBX 8 8 0 -1
BITMAP
00
00
7C
42
42
7C
40
40
ENDCHAR
STARTCHAR q
ENCODING 113
SWIDTH 1000 0
DWIDTH 8 0
BBX 8 8 0 -1
BITMAP
00
00
3E
42
42
3E
02
03
ENDCHAR
STARTCHAR r
ENCODING 114
SWIDTH 1000 0
DWIDTH 8 0
BBX 8 8 0 -1
BITMAP
00
00
5C
62
40
40
40
00
ENDCHAR
STARTCHAR s
ENCODING 115
SWIDTH 1000 0
DWIDTH 8 0
BBX 8 8 0 -1
BITMAP
00
00
3E
40
3C
02
7C
00
ENDCHAR
STARTCHAR t
ENCODING 116
SWIDTH 1000 0
DWIDTH 8 0
BBX 8 8 0 -1
BITMAP
10
10
7C
10
10
12
0C
00
ENDCHAR
STARTCHAR u
ENCODING 117
SWIDTH 1000 0
DWIDTH 8 0
BBX 8 8 0 -1
BITMAP
00
00
42
42
42
46
3A
00
ENDCHAR
STARTCHAR v
ENCODING 118
SWIDTH 1000 0
DWIDTH 8 0
BBX 8 8 0 -1
BITMAP
00
00
42
42
24
24
18
00
ENDCHAR
STARTCHAR w
ENCODING 119
SWIDTH 1000 0
DWIDTH 8 0
BBX 8 8 0 -1
BITMAP
00
00
41
41
49
49
36
00
ENDCHAR
STARTCHAR x
ENCODING 120
SWIDTH 1000 0
DWIDTH 8 0
BBX 8 8 0 -1
BITMAP
00
00
42
24
18
24
42
00
ENDCHAR
STARTCHAR y
ENCODING 121
SWIDTH 1000 0
DWIDTH 8 0
BBX 8 8 0 -1
BITMAP
00
00
42
42
42
3E
02
3C
ENDCHAR
STARTCHAR z
ENCODING 122
SWIDTH 1000 0
DWIDTH 8 0
BBX 8 8 0 -1
BITMAP
00
00
7E
04
18
20
7E
00
ENDCHAR
STARTCHAR braceleft
ENCODING 123
SWIDTH 1000 0
DWIDTH 8 0
BBX 8 8 0 -1
BITMAP
0C
10
10
20
10
10
0C
00
ENDCHAR
STARTCHAR bar
ENCODING 124
SWIDTH 1000 0
DWIDTH 8 0
BBX 8 8 0 -1
BITMAP
08
08
08
00
08
08
08
00
ENDCHAR
STARTCHAR braceright
ENCODING 125
SWIDTH 1000 0
DWIDTH 8 0
BBX 8 8 0 -1
BITMAP
18
04
04
02
04
04
18
00
ENDCHAR
STARTCHAR asciitilde
ENCODING 126
SWIDTH 1000 0
DWIDTH 8 0
BBX 8 8 0 -1
BITMAP
00
00
30
49
06
00
00
00
ENDCHAR
STARTCHAR uni007F
ENCODING 127
SWIDTH 1000 0
DWIDTH 8 0
BBX 8 8 0 -1
BITMAP
00
00
08
14
22
22
3E
00
ENDCHAR
STARTCHAR uni00A0
ENCODING 160
SWIDTH 1000 0
DWIDTH 8 0
BBX 8 8 0 -1
BITMAP
00
00
00
00
00
00
00
00
ENDCHAR
STARTCHAR exclamdown
ENCODING 161
SWIDTH 1000 0
DWIDTH 8 0
BBX 8 8 0 -1
BITMAP
08
00
08
08
08
08
08
08
ENDCHAR
STARTCHAR cent
ENCODING 162
SWIDTH 1000 0
DWIDTH 8 0
BBX 8 8 0 -1
BITMAP
00
08
1C
22
20
22
1C
08
ENDCHAR
STARTCHAR sterling
ENCODING 163
SWIDTH 1000 0
DWIDTH 8 0
BBX 8 8 0 -1
BITMAP
3C
42
40
F8
40
40
40
FE
ENDCHAR
STARTCHAR yen
ENCODING 165
SWIDTH 1000 0
DWIDTH 8 0
BBX 8 8 0 -1
BITMAP
44
44
28
10
FE
10
FE
10
ENDCHAR
STARTCHAR section
ENCODING 167
SWIDTH 1000 0
DWIDTH 8 0
BBX 8 8 0 -1
BITMAP
78
84
40
7C
82
82
7C
84
ENDCHAR
STARTCHAR ordfeminine
ENCODING 170
SWIDTH 1000 0
DWIDTH 8 0
BBX 8 8 0 -1
BITMAP
3C
04
3C
44
3E
00
FE
00
ENDCHAR
STARTCHAR guillemotleft
ENCODING 171
SWIDTH 1000 0
DWIDTH 8 0
BBX 8 8 0 -1
BITMAP
00
00
24
48
90
48
24
00
ENDCHAR
STARTCHAR logicalnot
ENCODING 172
SWIDTH 1000 0
DWIDTH 8 0
BBX 8 8 0 -1
BITMAP
00
00
00
00
F0
10
10
10
ENDCHAR
STARTCHAR degree
ENCODING 176
SWIDTH 1000 0
DWIDTH 8 0
BBX 8 8 0 -1
BITMAP
3C
66
66
3C
00
00
00
00
ENDCHAR
STARTCHAR plusminus
ENCODING 177
SWIDTH 1000 0
DWIDTH 8 0
BBX 8 8 0 -1
BITMAP
00
08
08
3E
08
08
00
3E
ENDCHAR
STARTCHAR uni00B2
ENCODING 178
SWIDTH 1000 0
DWIDTH 8 0
BBX 8 8 0 -1
BITMAP
38
48
10
20
7C
00
00
00
ENDCHAR
STARTCHAR mu
ENCODING 181
SWIDTH 1000 0
DWIDTH 8 0
BBX 8 8 0 -1
BITMAP
00
00
44
44
44
78
40
C0
ENDCHAR
STARTCHAR paragraph
ENCODING 182
SWIDTH 1000 0
DWIDTH 8 0
BBX 8 8 0 -1
BITMAP
74
94
94
94
74
14
14
14
ENDCHAR
STARTCHAR periodcentered
ENCODING 183
SWIDTH 1000 0
DWIDTH 8 0
BBX 8 8 0 -1
BITMAP
00
00
00
00
00
00
00
0C
ENDCHAR
STARTCHAR ordmasculine
ENCODING 186
SWIDTH 1000 0
DWIDTH 8 0
BBX 8 8 0 -1
BITMAP
3C
42
42
42
3C
00
FE
00
ENDCHAR
STARTCHAR guillemotright
ENCODING 187
SWIDTH 1000 0
DWIDTH 8 0
BBX 8 8 0 -1
BITMAP
00
00
48
24
12
24
48
00
ENDCHAR
STARTCHAR onequarter
ENCODING 188
SWIDTH 1000 0
DWIDTH 8 0
BBX 8 8 0 -1
BITMAP
42
44
48
10
26
4A
9E
02
ENDCHAR
STARTCHAR onehalf
ENCODING 189
SWIDTH 1000 0
DWIDTH 8 0
BBX 8 8 0 -1
BITMAP
42
44
48
10
2C
42
84
0F
ENDCHAR
STARTCHAR questiondown
ENCODING 191
SWIDTH 1000 0
DWIDTH 8 0
BBX 8 8 0 -1
BITMAP
08
00
08
08
30
40
42
3C
ENDCHAR
STARTCHAR Adieresis
ENCODING 196
SWIDTH 1000 0
DWIDTH 8 0
BBX 8 8 0 -1
BITMAP
44
10
28
44
7C
44
44
44
ENDCHAR
STARTCHAR Aring
ENCODING 197
SWIDTH 1000 0
DWIDTH 8 0
BBX 8 8 0 -1
BITMAP
28
10
28
44
7C
44
44
44
ENDCHAR
STARTCHAR AE
ENCODING 198
SWIDTH 1000 0
DWIDTH 8 0
BBX 8 8 0 -1
BITMAP
7E
90
90
FC
90
90
90
9E
ENDCHAR
STARTCHAR Ccedilla
ENCODING 199
SWIDTH 1000 0
DWIDTH 8 0
BBX 8 8 0 -1
BITMAP
3C
42
40
40
42
3C
08
18
ENDCHAR
STARTCHAR Eacute
ENCODING 201
SWIDTH 1000 0
DWIDTH 8 0
BBX 8 8 0 -1
BITMAP
18
30
00
7C
40
78
40
7C
ENDCHAR
STARTCHAR Ntilde
ENCODING 209
SWIDTH 1000 0
DWIDTH 8 0
BBX 8 8 0 -1
BITMAP
64
98
44
64
54
4C
44
44
ENDCHAR
STARTCHAR Odieresis
ENCODING 214
SWIDTH 1000 0
DWIDTH 8 0
BBX 8 8 0 -1
BITMAP
00
14
00
1C
22
22
22
1C
ENDCHAR
STARTCHAR Udieresis
ENCODING 220
SWIDTH 1000 0
DWIDTH 8 0
BBX 8 8 0 -1
BITMAP
00
28
00
44
44
44
44
3C
ENDCHAR
STARTCHAR germandbls
ENCODING 223
SWIDTH 1000 0
DWIDTH 8 0
BBX 8 8 0 -1
BITMAP
3C
42
42
7C
42
42
7C
40
ENDCHAR
STARTCHAR agrave
ENCODING 224
SWIDTH 1000 0
DWIDTH 8 0
BBX 8 8 0 -1
BITMAP
18
0C
00
3C
04
3C
44
3E
ENDCHAR
STARTCHAR aacute
ENCODING 225
SWIDTH 1000 0
DWIDTH 8 0
BBX 8 8 0 -1
BITMAP
18
30
00
3C
04
3C
44
3E
ENDCHAR
STARTCHAR acircumflex
ENCODING 226
SWIDTH 1000 0
DWIDTH 8 0
BBX 8 8 0 -1
BITMAP
1C
36
00
3C
04
3C
44
3E
ENDCHAR
STARTCHAR adieresis
ENCODING 228
SWIDTH 1000 0
DWIDTH 8 0
BBX 8 8 0 -1
BITMAP
00
14
00
3C
04
3C
44
3E
ENDCHAR
STARTCHAR aring
ENCODING 229
SWIDTH 1000 0
DWIDTH 8 0
BBX 8 8 0 -1
BITMAP
1C
1C
00
3C
04
3C
44
3E
ENDCHAR
STARTCHAR ae
ENCODING 230
SWIDTH 1000 0
DWIDTH 8 0
BBX 8 8 0 -1
BITMAP
00
00
00
6C
12
FE
90
6C
ENDCHAR
STARTCHAR ccedilla
ENCODING 231
SWIDTH 1000 0
DWIDTH 8 0
BBX 8 8 0 -1
BITMAP
00
00
3C
40
40
3C
08
18
ENDCHAR
STARTCHAR egrave
ENCODING 232
SWIDTH 1000 0
DWIDTH 8 0
BBX 8 8 0 -1
BITMAP
30
18
00
3C
42
7C
40
3C
ENDCHAR
STARTCHAR eacute
ENCODING 233
SWIDTH 1000 0
DWIDTH 8 0
BBX 8 8 0 -1
BITMAP
18
30
00
3C
42
7C
40
3C
ENDCHAR
STARTCHAR ecircumflex
ENCODING 234
SWIDTH 1000 0
DWIDTH 8 0
BBX 8 8 0 -1
BITMAP
38
6C
00
3C
42
7C
40
3C
ENDCHAR
STARTCHAR edieresis
ENCODING 235
SWIDTH 1000 0
DWIDTH 8 0
BBX 8 8 0 -1
BITMAP
00
28
00
3C
42
7C
40
3C
ENDCHAR
STARTCHAR igrave
ENCODING 236
SWIDTH 1000 0
DWIDTH 8 0
BBX 8 8 0 -1
BITMAP
30
18
00
10
10
10
10
10
ENDCHAR
STARTCHAR iacute
ENCODING 237
SWIDTH 1000 0
DWIDTH 8 0
BBX 8 8 0 -1
BITMAP
08
10
20
30
30
30
30
30
ENDCHAR
STARTCHAR icircumflex
ENCODING 238
SWIDTH 1000 0
DWIDTH 8 0
BBX 8 8 0 -1
BITMAP
38
6C
00
10
10
10
10
10
ENDCHAR
STARTCHAR idieresis
ENCODING 239
SWIDTH 1000 0
DWIDTH 8 0
BBX 8 8 0 -1
BITMAP
00
28
00
10
10
10
10
10
ENDCHAR
STARTCHAR ntilde
ENCODING 241
SWIDTH 1000 0
DWIDTH 8 0
BBX 8 8 0 -1
BITMAP
68
90
00
F8
44
44
44
44
ENDCHAR
STARTCHAR ograve
ENCODING 242
SWIDTH 1000 0
DWIDTH 8 0
BBX 8 8 0 -1
BITMAP
18
0C
00
1C
22
22
22
1C
ENDCHAR
STARTCHAR oacute
ENCODING 243
SWIDTH 1000 0
DWIDTH 8 0
BBX 8 8 0 -1
BITMAP
0C
18
00
1C
22
22
22
1C
ENDCHAR
STARTCHAR ocircumflex
ENCODING 244
SWIDTH 1000 0
DWIDTH 8 0
BBX 8 8 0 -1
BITMAP
1C
36
00
1C
22
22
22
1C
ENDCHAR
STARTCHAR odieresis
ENCODING 246
SWIDTH 1000 0
DWIDTH 8 0
BBX 8 8 0 -1
BITMAP
00
14
00
1C
22
22
22
1C
ENDCHAR
STARTCHAR divide
ENCODING 247
SWIDTH 1000 0
DWIDTH 8 0
BBX 8 8 0 -1
BITMAP
00
00
18
00
7E
00
18
00
ENDCHAR
STARTCHAR ugrave
ENCODING 249
SWIDTH 1000 0
DWIDTH 8 0
BBX 8 8 0 -1
BITMAP
30
18
00
44
44
44
44
3C
ENDCHAR
STARTCHAR uacute
ENCODING 250
SWIDTH 1000 0
DWIDTH 8 0
BBX 8 8 0 -1
BITMAP
18
30
00
44
44
44
44
3C
ENDCHAR
STARTCHAR ucircumflex
ENCODING 251
SWIDTH 1000 0
DWIDTH 8 0
BBX 8 8 0 -1
BITMAP
38
6C
00
44
44
44
44
3C
ENDCHAR
STARTCHAR udieresis
ENCODING 252
SWIDTH 1000 0
DWIDTH 8 0
BBX 8 8 0 -1
BITMAP
00
28
00
44
44
44
44
3C
ENDCHAR
STARTCHAR ydieresis
ENCODING 255
SWIDTH 1000 0
DWIDTH 8 0
BBX 8 8 0 -1
BITMAP
00
14
00
42
42
3E
02
3C
ENDCHAR
STARTCHAR florin
ENCODING 402
SWIDTH 1000 0
DWIDTH 8 0
BBX 8 8 0 -1
BITMAP
0C
10
10
10
7C
10
10
30
ENDCHAR
STARTCHAR Gamma
ENCODING 915
SWIDTH 1000 0
DWIDTH 8 0
BBX 8 8 0 -1
BITMAP
7E
42
40
40
40
40
40
40
ENDCHAR
STARTCHAR Theta
ENCODING 920
SWIDTH 1000 0
DWIDTH 8 0
BBX 8 8 0 -1
BITMAP
3C
42
42
FF
42
42
42
3C
ENDCHAR
STARTCHAR Sigma
ENCODING 931
SWIDTH 1000 0
DWIDTH 8 0
BBX 8 8 0 -1
BITMAP
FE
82
40
20
40
80
82
FE
ENDCHAR
STARTCHAR Phi
ENCODING 934
SWIDTH 1000 0
DWIDTH 8 0
BBX 8 8 0 -1
BITMAP
3F
0C
1E
33
33
1E
0C
3F
ENDCHAR
STARTCHAR uni03A9
ENCODING 937
SWIDTH 1000 0
DWIDTH 8 0
BBX 8 8 0 -1
BITMAP
1C
22
41
41
22
22
22
63
ENDCHAR
STARTCHAR alpha
ENCODING 945
SWIDTH 1000 0
DWIDTH 8 0
BBX 8 8 0 -1
BITMAP
00
00
32
4C
88
4C
33
00
ENDCHAR
STARTCHAR delta
ENCODING 948
SWIDTH 1000 0
DWIDTH 8 0
BBX 8 8 0 -1
BITMAP
3E
20
10
08
3C
42
42
3C
ENDCHAR
STARTCHAR epsilon
ENCODING 949
SWIDTH 1000 0
DWIDTH 8 0
BBX 8 8 0 -1
BITMAP
00
1E
30
60
7E
60
30
1E
ENDCHAR
STARTCHAR pi
ENCODING 960
SWIDTH 1000 0
DWIDTH 8 0
BBX 8 8 0 -1
BITMAP
00
00
02
7C
A2
22
22
22
ENDCHAR
STARTCHAR sigma
ENCODING 963
SWIDTH 1000 0
DWIDTH 8 0
BBX 8 8 0 -1
BITMAP
00
00
02
3C
44
44
44
38
ENDCHAR
STARTCHAR tau
ENCODING 964
SWIDTH 1000 0
DWIDTH 8 0
BBX 8 8 0 -1
BITMAP
04
38
50
10
10
10
10
10
ENDCHAR
STARTCHAR phi
ENCODING 966
SWIDTH 1000 0
DWIDTH 8 0
BBX 8 8 0 -1
BITMAP
08
10
38
54
54
54
38
10
ENDCHAR
STARTCHAR bullet
ENCODING 8226
SWIDTH 1000 0
DWIDTH 8 0
BBX 8 8 0 -1
BITMAP
00
00
00
38
7C
7C
7C
38
ENDCHAR
STARTCHAR exclamdbl
ENCODING 8252
SWIDTH 1000 0
DWIDTH 8 0
BBX 8 8 0 -1
BITMAP
28
28
28
28
28
28
00
28
ENDCHAR
STARTCHAR uni207F
ENCODING 8319
SWIDTH 1000 0
DWIDTH 8 0
BBX 8 8 0 -1
BITMAP
DC
42
42
42
42
00
00
00
ENDCHAR
STARTCHAR peseta
ENCODING 8359
SWIDTH 1000 0
DWIDTH 8 0
BBX 8 8 0 -1
BITMAP
FC
82
FC
90
B8
90
90
8C
ENDCHAR
STARTCHAR arrowleft
ENCODING 8592
SWIDTH 1000 0
DWIDTH 8 0
BBX 8 8 0 -1
BITMAP
00
10
20
40
FE
40
20
10
ENDCHAR
STARTCHAR arrowup
ENCODING 8593
SWIDTH 1000 0
DWIDTH 8 0
BBX 8 8 0 -1
BITMAP
10
38
54
92
10
10
10
10
ENDCHAR
STARTCHAR arrowright
ENCODING 8594
SWIDTH 1000 0
DWIDTH 8 0
BBX 8 8 0 -1
BITMAP
00
10
08
04
FE
04
08
10
ENDCHAR
STARTCHAR arrowdown
ENCODING 8595
SWIDTH 1000 0
DWIDTH 8 0
BBX 8 8 0 -1
BITMAP
10
10
10
10
10
92
54
38
ENDCHAR
STARTCHAR arrowboth
ENCODING 8596
SWIDTH 1000 0
DWIDTH 8 0
BBX 8 8 0 -1
BITMAP
00
00
6C
C6
FE
C6
6C
00
ENDCHAR
STARTCHAR arrowupdn
ENCODING 8597
SWIDTH 1000 0
DWIDTH 8 0
BBX 8 8 0 -1
BITMAP
10
38
54
92
10
92
54
38
ENDCHAR
STARTCHAR arrowupdnbse
ENCODING 8616
SWIDTH 1000 0
DWIDTH 8 0
BBX 8 8 0 -1
BITMAP
10
38
54
92
10
92
54
38
ENDCHAR
STARTCHAR uni2219
ENCODING 8729
SWIDTH 1000 0
DWIDTH 8 0
BBX 8 8 0 -1
BITMAP
00
00
00
00
00
00
0C
0C
ENDCHAR
STARTCHAR radical
ENCODING 8730
SWIDTH 1000 0
DWIDTH 8 0
BBX 8 8 0 -1
BITMAP
06
04
04
04
04
74
14
0C
ENDCHAR
STARTCHAR infinity
ENCODING 8734
SWIDTH 1000 0
DWIDTH 8 0
BBX 8 8 0 -1
BITMAP
00
00
00
6C
92
92
92
6C
ENDCHAR
STARTCHAR orthogonal
ENCODING 8735
SWIDTH 1000 0
DWIDTH 8 0
BBX 8 8 0 -1
BITMAP
00
00
00
00
40
40
40
7F
ENDCHAR
STARTCHAR intersection
ENCODING 8745
SWIDTH 1000 0
DWIDTH 8 0
BBX 8 8 0 -1
BITMAP
18
24
42
42
42
42
42
42
ENDCHAR
STARTCHAR approxequal
ENCODING 8776
SWIDTH 1000 0
DWIDTH 8 0
BBX 8 8 0 -1
BITMAP
00
32
6C
00
32
6C
00
00
ENDCHAR
STARTCHAR equivalence
ENCODING 8801
SWIDTH 1000 0
DWIDTH 8 0
BBX 8 8 0 -1
BITMAP
00
7F
00
00
7F
00
00
7F
ENDCHAR
STARTCHAR lessequal
ENCODING 8804
SWIDTH 1000 0
DWIDTH 8 0
BBX 8 8 0 -1
BITMAP
0C
18
30
18
0C
00
7F
00
ENDCHAR
STARTCHAR greaterequal
ENCODING 8805
SWIDTH 1000 0
DWIDTH 8 0
BBX 8 8 0 -1
BITMAP
08
04
02
04
08
00
7F
00
ENDCHAR
STARTCHAR house
ENCODING 8962
SWIDTH 1000 0
DWIDTH 8 0
BBX 8 8 0 -1
BITMAP
00
00
08
14
22
22
3E
00
ENDCHAR
STARTCHAR revlogicalnot
ENCODING 8976
SWIDTH 1000 0
DWIDTH 8 0
BBX 8 8 0 -1
BITMAP
00
00
00
00
1F
10
10
10
ENDCHAR
STARTCHAR integraltp
ENCODING 8992
SWIDTH 1000 0
DWIDTH 8 0
BBX 8 8 0 -1
BITMAP
0C
12
10
10
10
10
10
10
ENDCHAR
STARTCHAR integralbt
ENCODING 8993
SWIDTH 1000 0
DWIDTH 8 0
BBX 8 8 0 -1
BITMAP
08
08
08
08
08
08
48
30
ENDCHAR
STARTCHAR SF100000
ENCODING 9472
SWIDTH 1000 0
DWIDTH 8 0
BBX 8 8 0 -1
BITMAP
00
00
00
00
FF
00
00
00
ENDCHAR
STARTCHAR SF110000
ENCODING 9474
SWIDTH 1000 0
DWIDTH 8 0
BBX 8 8 0 -1
BITMAP
18
18
18
18
18
18
18
18
ENDCHAR
STARTCHAR SF010000
ENCODING 9484
SWIDTH 1000 0
DWIDTH 8 0
BBX 8 8 0 -1
BITMAP
00
00
00
00
1F
18
18
18
ENDCHAR
STARTCHAR SF030000
ENCODING 9488
SWIDTH 1000 0
DWIDTH 8 0
BBX 8 8 0 -1
BITMAP
00
00
00
00
F8
18
18
18
ENDCHAR
STARTCHAR SF020000
ENCODING 9492
SWIDTH 1000 0
DWIDTH 8 0
BBX 8 8 0 -1
BITMAP
18
18
18
18
1F
00
00
00
ENDCHAR
STARTCHAR SF040000
ENCODING 9496
SWIDTH 1000 0
DWIDTH 8 0
BBX 8 8 0 -1
BITMAP
18
18
18
18
F8
00
00
00
ENDCHAR
STARTCHAR SF080000
ENCODING 9500
SWIDTH 1000 0
DWIDTH 8 0
BBX 8 8 0 -1
BITMAP
18
18
18
18
1F
18
18
18
ENDCHAR
STARTCHAR SF090000
ENCODING 9508
SWIDTH 1000 0
DWIDTH 8 0
BBX 8 8 0 -1
BITMAP
18
18
18
18
F8
18
18
18
ENDCHAR
STARTCHAR SF060000
ENCODING 9516
SWIDTH 1000 0
DWIDTH 8 0
BBX 8 8 0 -1
BITMAP
00
00
00
00
FF
18
18
18
ENDCHAR
STARTCHAR SF070000
ENCODING 9524
SWIDTH 1000 0
DWIDTH 8 0
BBX 8 8 0 -1
BITMAP
18
18
18
18
FF
00
00
00
ENDCHAR
STARTCHAR SF050000
ENCODING 9532
SWIDTH 1000 0
DWIDTH 8 0
BBX 8 8 0 -1
BITMAP
18
18
18
18
FF
18
18
18
ENDCHAR
STARTCHAR SF430000
ENCODING 9552
SWIDTH 1000 0
DWIDTH 8 0
BBX 8 8 0 -1
BITMAP
00
00
00
FF
00
FF
00
00
ENDCHAR
STARTCHAR SF240000
ENCODING 9553
SWIDTH 1000 0
DWIDTH 8 0
BBX 8 8 0 -1
BITMAP
66
66
66
66
66
66
66
66
ENDCHAR
STARTCHAR SF510000
ENCODING 9554
SWIDTH 1000 0
DWIDTH 8 0
BBX 8 8 0 -1
BITMAP
00
00
00
1F
18
1F
18
18
ENDCHAR
STARTCHAR SF520000
ENCODING 9555
SWIDTH 1000 0
DWIDTH 8 0
BBX 8 8 0 -1
BITMAP
00
00
00
00
7F
66
66
66
ENDCHAR
STARTCHAR SF390000
ENCODING 9556
SWIDTH 1000 0
DWIDTH 8 0
BBX 8 8 0 -1
BITMAP
00
00
00
7F
60
67
66
66
ENDCHAR
STARTCHAR SF220000
ENCODING 9557
SWIDTH 1000 0
DWIDTH 8 0
BBX 8 8 0 -1
BITMAP
00
00
00
F0
10
F0
10
10
ENDCHAR
STARTCHAR SF210000
ENCODING 9558
SWIDTH 1000 0
DWIDTH 8 0
BBX 8 8 0 -1
BITMAP
00
00
00
00
FE
66
66
66
ENDCHAR
STARTCHAR SF250000
ENCODING 9559
SWIDTH 1000 0
DWIDTH 8 0
BBX 8 8 0 -1
BITMAP
00
00
00
FE
06
E6
66
66
ENDCHAR
STARTCHAR SF500000
ENCODING 9560
SWIDTH 1000 0
DWIDTH 8 0
BBX 8 8 0 -1
BITMAP
18
18
18
1F
18
1F
00
00
ENDCHAR
STARTCHAR SF490000
ENCODING 9561
SWIDTH 1000 0
DWIDTH 8 0
BBX 8 8 0 -1
BITMAP
66
66
66
66
7F
00
00
00
ENDCHAR
STARTCHAR SF380000
ENCODING 9562
SWIDTH 1000 0
DWIDTH 8 0
BBX 8 8 0 -1
BITMAP
66
66
66
67
60
7F
00
00
ENDCHAR
STARTCHAR SF280000
ENCODING 9563
SWIDTH 1000 0
DWIDTH 8 0
BBX 8 8 0 -1
BITMAP
18
18
18
F8
18
F8
00
00
ENDCHAR
STARTCHAR SF270000
ENCODING 9564
SWIDTH 1000 0
DWIDTH 8 0
BBX 8 8 0 -1
BITMAP
66
66
66
66
FE
00
00
00
ENDCHAR
STARTCHAR SF260000
ENCODING 9565
SWIDTH 1000 0
DWIDTH 8 0
BBX 8 8 0 -1
BITMAP
66
66
66
E6
06
FE
00
00
ENDCHAR
STARTCHAR SF360000
ENCODING 9566
SWIDTH 1000 0
DWIDTH 8 0
BBX 8 8 0 -1
BITMAP
18
18
18
1F
18
1F
18
18
ENDCHAR
STARTCHAR SF370000
ENCODING 9567
SWIDTH 1000 0
DWIDTH 8 0
BBX 8 8 0 -1
BITMAP
66
66
66
66
67
66
66
66
ENDCHAR
STARTCHAR SF420000
ENCODING 9568
SWIDTH 1000 0
DWIDTH 8 0
BBX 8 8 0 -1
BITMAP
66
66
66
67
60
67
66
66
ENDCHAR
STARTCHAR SF190000
ENCODING 9569
SWIDTH 1000 0
DWIDTH 8 0
BBX 8 8 0 -1
BITMAP
18
18
18
F8
18
F8
18
18
ENDCHAR
STARTCHAR SF200000
ENCODING 9570
SWIDTH 1000 0
DWIDTH 8 0
BBX 8 8 0 -1
BITMAP
66
66
66
66
E6
66
66
66
ENDCHAR
STARTCHAR SF230000
ENCODING 9571
SWIDTH 1000 0
DWIDTH 8 0
BBX 8 8 0 -1
BITMAP
66
66
66
E6
06
E6
66
66
ENDCHAR
STARTCHAR SF470000
ENCODING 9572
SWIDTH 1000 0
DWIDTH 8 0
BBX 8 8 0 -1
BITMAP
00
00
00
FF
00
FF
18
18
ENDCHAR
STARTCHAR SF480000
ENCODING 9573
SWIDTH 1000 0
DWIDTH 8 0
BBX 8 8 0 -1
BITMAP
00
00
00
00
FF
66
66
66
ENDCHAR
STARTCHAR SF410000
ENCODING 9574
SWIDTH 1000 0
DWIDTH 8 0
BBX 8 8 0 -1
BITMAP
00
00
00
FF
00
E7
66
66
ENDCHAR
STARTCHAR SF450000
ENCODING 9575
SWIDTH 1000 0
DWIDTH 8 0
BBX 8 8 0 -1
BITMAP
18
18
18
FF
00
FF
00
00
ENDCHAR
STARTCHAR SF460000
ENCODING 9576
SWIDTH 1000 0
DWIDTH 8 0
BBX 8 8 0 -1
BITMAP
66
66
66
66
FF
00
00
00
ENDCHAR
STARTCHAR SF400000
ENCODING 9577
SWIDTH 1000 0
DWIDTH 8 0
BBX 8 8 0 -1
BITMAP
66
66
66
E7
00
FF
00
00
ENDCHAR
STARTCHAR SF540000
ENCODING 9578
SWIDTH 1000 0
DWIDTH 8 0
BBX 8 8 0 -1
BITMAP
18
18
18
FF
18
FF
18
18
ENDCHAR
STARTCHAR SF530000
ENCODING 9579
SWIDTH 1000 0
DWIDTH 8 0
BBX 8 8 0 -1
BITMAP
66
66
66
66
FF
66
66
66
ENDCHAR
STARTCHAR SF440000
ENCODING 9580
SWIDTH 1000 0
DWIDTH 8 0
BBX 8 8 0 -1
BITMAP
66
66
66
E7
00
E7
66
66
ENDCHAR
STARTCHAR upblock
ENCODING 9600
SWIDTH 1000 0
DWIDTH 8 0
BBX 8 8 0 -1
BITMAP
FF
FF
FF
FF
FF
00
00
00
ENDCHAR
STARTCHAR dnblock
ENCODING 9604
SWIDTH 1000 0
DWIDTH 8 0
BBX 8 8 0 -1
BITMAP
00
00
00
00
00
FF
FF
FF
ENDCHAR
STARTCHAR block
ENCODING 9608
SWIDTH 1000 0
DWIDTH 8 0
BBX 8 8 0 -1
BITMAP
FF
FF
FF
FF
FF
FF
FF
FF
ENDCHAR
STARTCHAR lfblock
ENCODING 9612
SWIDTH 1000 0
DWIDTH 8 0
BBX 8 8 0 -1
BITMAP
F0
F0
F0
F0
F0
F0
F0
F0
ENDCHAR
STARTCHAR rtblock
ENCODING 9616
SWIDTH 1000 0
DWIDTH 8 0
BBX 8 8 0 -1
BITMAP
0F
0F
0F
0F
0F
0F
0F
0F
ENDCHAR
STARTCHAR ltshade
ENCODING 9617
SWIDTH 1000 0
DWIDTH 8 0
BBX 8 8 0 -1
BITMAP
F0
F0
0F
0F
F0
F0
0F
0F
ENDCHAR
STARTCHAR shade
ENCODING 9618
SWIDTH 1000 0
DWIDTH 8 0
BBX 8 8 0 -1
BITMAP
AA
55
AA
55
AA
55
AA
55
ENDCHAR
STARTCHAR dkshade
ENCODING 9619
SWIDTH 1000 0
DWIDTH 8 0
BBX 8 8 0 -1
BITMAP
CC
CC
33
33
CC
CC
33
33
ENDCHAR
STARTCHAR filledbox
ENCODING 9632
SWIDTH 1000 0
DWIDTH 8 0
BBX 8 8 0 -1
BITMAP
00
00
00
00
00
3E
3E
3E
ENDCHAR
STARTCHAR filledrect
ENCODING 9644
SWIDTH 1000 0
DWIDTH 8 0
BBX 8 8 0 -1
BITMAP
00
00
00
00
FF
FF
FF
FF
ENDCHAR
STARTCHAR triagup
ENCODING 9650
SWIDTH 1000 0
DWIDTH 8 0
BBX 8 8 0 -1
BITMAP
10
38
7C
FE
00
00
00
00
ENDCHAR
STARTCHAR triagrt
ENCODING 9658
SWIDTH 1000 0
DWIDTH 8 0
BBX 8 8 0 -1
BITMAP
80
C0
E0
F0
F8
F0
E0
C0
ENDCHAR
STARTCHAR triagdn
ENCODING 9660
SWIDTH 1000 0
DWIDTH 8 0
BBX 8 8 0 -1
BITMAP
00
00
00
00
FE
7C
38
10
ENDCHAR
STARTCHAR triaglf
ENCODING 9668
SWIDTH 1000 0
DWIDTH 8 0
BBX 8 8 0 -1
BITMAP
02
06
0E
1E
3E
1E
0E
06
ENDCHAR
STARTCHAR circle
ENCODING 9675
SWIDTH 1000 0
DWIDTH 8 0
BBX 8 8 0 -1
BITMAP
00
00
00
38
44
44
44
38
ENDCHAR
STARTCHAR invbullet
ENCODING 9688
SWIDTH 1000 0
DWIDTH 8 0
BBX 8 8 0 -1
BITMAP
FE
FE
FE
C6
82
82
82
C6
ENDCHAR
STARTCHAR invcircle
ENCODING 9689
SWIDTH 1000 0
DWIDTH 8 0
BBX 8 8 0 -1
BITMAP
FE
FE
FE
C6
BA
BA
BA
C6
ENDCHAR
STARTCHAR smileface
ENCODING 9786
SWIDTH 1000 0
DWIDTH 8 0
BBX 8 8 0 -1
BITMAP
7C
82
AA
92
82
BA
82
7C
ENDCHAR
STARTCHAR invsmileface
ENCODING 9787
SWIDTH 1000 0
DWIDTH 8 0
BBX 8 8 0 -1
BITMAP
7C
FE
D6
EE
FE
C6
FE
7C
ENDCHAR
STARTCHAR sun
ENCODING 9788
SWIDTH 1000 0
DWIDTH 8 0
BBX 8 8 0 -1
BITMAP
18
7E
18
3C
42
3C
18
7E
ENDCHAR
STARTCHAR female
ENCODING 9792
SWIDTH 1000 0
DWIDTH 8 0
BBX 8 8 0 -1
BITMAP
3E
41
41
3E
08
7F
08
08
ENDCHAR
STARTCHAR male
ENCODING 9794
SWIDTH 1000 0
DWIDTH 8 0
BBX 8 8 0 -1
BITMAP
3E
1E
10
20
7C
82
82
7C
ENDCHAR
STARTCHAR spade
ENCODING 9824
SWIDTH 1000 0
DWIDTH 8 0
BBX 8 8 0 -1
BITMAP
10
38
7C
FE
FE
7C
10
FE
ENDCHAR
STARTCHAR club
ENCODING 9827
SWIDTH 1000 0
DWIDTH 8 0
BBX 8 8 0 -1
BITMAP
38
7C
38
FE
FE
7C
10
7C
ENDCHAR
STARTCHAR heart
ENCODING 9829
SWIDTH 1000 0
DWIDTH 8 0
BBX 8 8 0 -1
BITMAP
6C
FE
FE
FE
7C
38
10
00
ENDCHAR
STARTCHAR diamond
ENCODING 9830
SWIDTH 1000 0
DWIDTH 8 0
BBX 8 8 0 -1
BITMAP
10
38
7C
FE
7C
38
10
00
ENDCHAR
STARTCHAR musicalnote
ENCODING 9834
SWIDTH 1000 0
DWIDTH 8 0
BBX 8 8 0 -1
BITMAP
3E
22
3E
20
20
20
40
00
ENDCHAR
STARTCHAR musicalnotedbl
ENCODING 9835
SWIDTH 1000 0
DWIDTH 8 0
BBX 8 8 0 -1
BITMAP
3E
22
3E
22
22
22
44
00
ENDCHAR
STARTCHAR uni3044
ENCODING 12356
SWIDTH 1000 0
DWIDTH 8 0
BBX 8 8 0 -1
BITMAP
00
00
00
00
00
00
00
00
ENDCHAR
STARTCHAR uni3046
ENCODING 12358
SWIDTH 1000 0
DWIDTH 8 0
BBX 8 8 0 -1
BITMAP
00
00
00
00
00
00
00
00
ENDCHAR
STARTCHAR uni304B
ENCODING 12363
SWIDTH 1000 0
DWIDTH 8 0
BBX 8 8 0 -1
BITMAP
00
00
00
00
00
00
00
00
ENDCHAR
STARTCHAR uni3057
ENCODING 12375
SWIDTH 1000 0
DWIDTH 8 0
BBX 8 8 0 -1
BITMAP
00
00
00
00
00
00
00
00
ENDCHAR
STARTCHAR uni306E
ENCODING 12398
SWIDTH 1000 0
DWIDTH 8 0
BBX 8 8 0 -1
BITMAP
00
00
00
00
00
00
00
00
ENDCHAR
STARTCHAR uni3093
ENCODING 12435
SWIDTH 1000 0
DWIDTH 8 0
BBX 8 8 0 -1
BITMAP
00
00
00
00
00
00
00
00
ENDCHAR
STARTCHAR .notdef
ENCODING -1
SWIDTH 1000 0
DWIDTH 8 0
BBX 7 6 1 0
BITMAP
FE
82
82
82
82
FE
ENDCHAR
ENDFONT
