STARTFONT 2.1
FONT -opf-uw-ttyp0-medium-r-normal--17-170-75-75-p-170-iso10646-1
SIZE 17 75 75
FONTBOUNDINGBOX 9 17 0 -3
STARTPROPERTIES 19
FONTNAME_REGISTRY ""
FOUNDRY "UW"
FAMILY_NAME "Ttyp0"
WEIGHT_NAME "Bold"
SLANT "R"
SETWIDTH_NAME "Normal"
ADD_STYLE_NAME ""
PIXEL_SIZE 17
POINT_SIZE 160
RESOLUTION_X 75
RESOLUTION_Y 75
SPACING "C"
AVERAGE_WIDTH 90
CHARSET_REGISTRY "ISO10646"
CHARSET_ENCODING "1"
DEFAULT_CHAR 0
FONT_DESCENT 3
FONT_ASCENT 14
COPYRIGHT "Copyright (C) 2012-2015 Uwe Waldmann"
ENDPROPERTIES
CHARS 234
STARTCHAR CombLdot
ENCODING 803
SWIDTH 529 0
DWIDTH 9 0
BBX 9 17 0 -3
BITMAP
0000
0000
0000
0000
0000
0000
0000
0000
0000
0000
0000
0000
0000
0000
0000
0C00
0C00
ENDCHAR
STARTCHAR CombLdrss
ENCODING 804
SWIDTH 529 0
DWIDTH 9 0
BBX 9 17 0 -3
BITMAP
0000
0000
0000
0000
0000
0000
0000
0000
0000
0000
0000
0000
0000
0000
0000
3600
3600
ENDCHAR
STARTCHAR CombLvline
ENCODING 809
SWIDTH 529 0
DWIDTH 9 0
BBX 9 17 0 -3
BITMAP
0000
0000
0000
0000
0000
0000
0000
0000
0000
0000
0000
0000
0000
0000
0C00
0C00
0C00
ENDCHAR
STARTCHAR CombLcaron
ENCODING 812
SWIDTH 529 0
DWIDTH 9 0
BBX 9 17 0 -3
BITMAP
0000
0000
0000
0000
0000
0000
0000
0000
0000
0000
0000
0000
0000
0000
2200
1C00
0800
ENDCHAR
STARTCHAR CombLcircum
ENCODING 813
SWIDTH 529 0
DWIDTH 9 0
BBX 9 17 0 -3
BITMAP
0000
0000
0000
0000
0000
0000
0000
0000
0000
0000
0000
0000
0000
0000
0800
1C00
3600
ENDCHAR
STARTCHAR CombLbreve
ENCODING 814
SWIDTH 529 0
DWIDTH 9 0
BBX 9 17 0 -3
BITMAP
0000
0000
0000
0000
0000
0000
0000
0000
0000
0000
0000
0000
0000
0000
0000
3600
1C00
ENDCHAR
STARTCHAR CombLinvbreve
ENCODING 815
SWIDTH 529 0
DWIDTH 9 0
BBX 9 17 0 -3
BITMAP
0000
0000
0000
0000
0000
0000
0000
0000
0000
0000
0000
0000
0000
0000
0000
1C00
3600
ENDCHAR
STARTCHAR CombLtilde
ENCODING 816
SWIDTH 529 0
DWIDTH 9 0
BBX 9 17 0 -3
BITMAP
0000
0000
0000
0000
0000
0000
0000
0000
0000
0000
0000
0000
0000
0000
0000
1B00
2E00
ENDCHAR
STARTCHAR CombLmacron
ENCODING 817
SWIDTH 529 0
DWIDTH 9 0
BBX 9 17 0 -3
BITMAP
0000
0000
0000
0000
0000
0000
0000
0000
0000
0000
0000
0000
0000
0000
0000
3E00
3E00
ENDCHAR
STARTCHAR CombLvline2
ENCODING 840
SWIDTH 529 0
DWIDTH 9 0
BBX 9 17 0 -3
BITMAP
0000
0000
0000
0000
0000
0000
0000
0000
0000
0000
0000
0000
0000
0000
3600
3600
3600
ENDCHAR
STARTCHAR AmSmlEh
ENCODING 1383
SWIDTH 529 0
DWIDTH 9 0
BBX 9 17 0 -3
BITMAP
0000
0000
0000
3000
3000
3000
3000
3F00
3000
3000
3000
3000
3000
1E00
0300
0600
0000
ENDCHAR
STARTCHAR AmSmlYi
ENCODING 1397
SWIDTH 529 0
DWIDTH 9 0
BBX 9 17 0 -3
BITMAP
0000
0000
0000
0000
0000
0000
0000
1C00
0C00
0C00
0C00
0C00
0C00
0C00
0C00
6C00
7800
ENDCHAR
STARTCHAR AmSmlSha
ENCODING 1399
SWIDTH 529 0
DWIDTH 9 0
BBX 9 17 0 -3
BITMAP
0000
0000
0000
0000
0000
0000
0000
1E00
3700
0300
0300
0600
0800
1800
3000
3800
1F00
ENDCHAR
STARTCHAR AmSmlCha
ENCODING 1401
SWIDTH 529 0
DWIDTH 9 0
BBX 9 17 0 -3
BITMAP
0000
0000
0000
0000
0000
0000
0000
0C00
1C00
0E00
0600
0400
0800
1800
3000
3800
1F00
ENDCHAR
STARTCHAR AmSmlJheh
ENCODING 1403
SWIDTH 529 0
DWIDTH 9 0
BBX 9 17 0 -3
BITMAP
0000
0000
0000
0C00
1E00
2700
3300
3300
3B00
1A00
1A00
0C00
0800
1800
3000
3800
1F00
ENDCHAR
STARTCHAR AmSmlCo
ENCODING 1409
SWIDTH 529 0
DWIDTH 9 0
BBX 9 17 0 -3
BITMAP
0000
0000
0000
0000
0000
0000
0000
1B00
3700
3300
3300
3300
3700
1B00
0300
3300
1E00
ENDCHAR
STARTCHAR AmSmlKeh
ENCODING 1412
SWIDTH 529 0
DWIDTH 9 0
BBX 9 17 0 -3
BITMAP
0000
0000
0000
0000
0000
0000
0000
3600
3B00
3300
3300
3300
3B00
3600
3000
7F00
3000
ENDCHAR
STARTCHAR CombHbHatafQamats
ENCODING 1459
SWIDTH 529 0
DWIDTH 9 0
BBX 9 17 0 -3
BITMAP
0000
0000
0000
0000
0000
0000
0000
0000
0000
0000
0000
0000
0000
0000
0600
7000
2600
ENDCHAR
STARTCHAR CombHbSegol
ENCODING 1462
SWIDTH 529 0
DWIDTH 9 0
BBX 9 17 0 -3
BITMAP
0000
0000
0000
0000
0000
0000
0000
0000
0000
0000
0000
0000
0000
0000
0000
6600
1800
ENDCHAR
STARTCHAR CombHbPatah
ENCODING 1463
SWIDTH 529 0
DWIDTH 9 0
BBX 9 17 0 -3
BITMAP
0000
0000
0000
0000
0000
0000
0000
0000
0000
0000
0000
0000
0000
0000
0000
3E00
0000
ENDCHAR
STARTCHAR CombHbQamats
ENCODING 1464
SWIDTH 529 0
DWIDTH 9 0
BBX 9 17 0 -3
BITMAP
0000
0000
0000
0000
0000
0000
0000
0000
0000
0000
0000
0000
0000
0000
0000
7E00
1800
ENDCHAR
STARTCHAR CombHbMeteg
ENCODING 1469
SWIDTH 529 0
DWIDTH 9 0
BBX 9 17 0 -3
BITMAP
0000
0000
0000
0000
0000
0000
0000
0000
0000
0000
0000
0000
0000
0000
0800
0800
0800
ENDCHAR
STARTCHAR ThYoYing
ENCODING 3597
SWIDTH 529 0
DWIDTH 9 0
BBX 9 17 0 -3
BITMAP
0000
0000
0000
0000
0000
0000
3980
6D80
6D80
6D80
6D80
6D80
6D80
6700
0000
0D80
0700
ENDCHAR
STARTCHAR ThDoChada
ENCODING 3598
SWIDTH 529 0
DWIDTH 9 0
BBX 9 17 0 -3
BITMAP
0000
0000
0000
0000
0000
0000
3E00
6300
4300
3300
3300
3300
7300
7300
0300
1300
1E00
ENDCHAR
STARTCHAR ThToPatak
ENCODING 3599
SWIDTH 529 0
DWIDTH 9 0
BBX 9 17 0 -3
BITMAP
0000
0000
0000
0000
0000
0000
3E00
6300
4300
3300
3300
3300
7300
7300
0300
2B00
3E00
ENDCHAR
STARTCHAR ThThoThan
ENCODING 3600
SWIDTH 529 0
DWIDTH 9 0
BBX 9 17 0 -3
BITMAP
0000
0000
0000
0000
0000
0000
7F80
7F80
0200
1B00
1F00
0700
0300
0300
0000
2B00
3E00
ENDCHAR
STARTCHAR ThRu
ENCODING 3620
SWIDTH 529 0
DWIDTH 9 0
BBX 9 17 0 -3
BITMAP
0000
0000
0000
0000
0000
0000
3E00
6300
4300
3300
3300
3300
3B00
3B00
0300
0300
0300
ENDCHAR
STARTCHAR ThLu
ENCODING 3622
SWIDTH 529 0
DWIDTH 9 0
BBX 9 17 0 -3
BITMAP
0000
0000
0000
0000
0000
0000
3E00
6300
4300
3300
3300
3300
7300
7300
0300
0300
0300
ENDCHAR
STARTCHAR ThSaraU
ENCODING 3640
SWIDTH 529 0
DWIDTH 9 0
BBX 9 17 0 -3
BITMAP
0000
0000
0000
0000
0000
0000
0000
0000
0000
0000
0000
0000
0000
0000
0000
0300
0100
ENDCHAR
STARTCHAR ThSaraUu
ENCODING 3641
SWIDTH 529 0
DWIDTH 9 0
BBX 9 17 0 -3
BITMAP
0000
0000
0000
0000
0000
0000
0000
0000
0000
0000
0000
0000
0000
0000
0000
0D00
0700
ENDCHAR
STARTCHAR ThPhinthu
ENCODING 3642
SWIDTH 529 0
DWIDTH 9 0
BBX 9 17 0 -3
BITMAP
0000
0000
0000
0000
0000
0000
0000
0000
0000
0000
0000
0000
0000
0000
0000
0300
0300
ENDCHAR
STARTCHAR ThLakkhangyao
ENCODING 3653
SWIDTH 529 0
DWIDTH 9 0
BBX 9 17 0 -3
BITMAP
0000
0000
0000
0000
0000
0000
1E00
3300
3300
0300
0300
0300
0300
0300
0300
0300
0300
ENDCHAR
STARTCHAR ThMaiyamok
ENCODING 3654
SWIDTH 529 0
DWIDTH 9 0
BBX 9 17 0 -3
BITMAP
0000
0000
0000
0000
0000
0000
3600
7F00
4B00
6300
6300
0300
0300
0300
0300
0700
0600
ENDCHAR
STARTCHAR GeGan
ENCODING 4306
SWIDTH 529 0
DWIDTH 9 0
BBX 9 17 0 -3
BITMAP
0000
0000
0000
0000
0000
0000
0000
3800
6C00
4C00
0C00
3E00
6300
6300
6300
6300
3E00
ENDCHAR
STARTCHAR GeDon
ENCODING 4307
SWIDTH 529 0
DWIDTH 9 0
BBX 9 17 0 -3
BITMAP
0000
0000
0000
0000
0000
0000
0000
3700
6D80
6D80
6D80
6D80
6700
3000
7C00
4700
0180
ENDCHAR
STARTCHAR GeEn
ENCODING 4308
SWIDTH 529 0
DWIDTH 9 0
BBX 9 17 0 -3
BITMAP
0000
0000
0000
0000
0000
0000
0000
1E00
3300
3300
0300
0300
0300
0300
6300
6300
3E00
ENDCHAR
STARTCHAR GeVin
ENCODING 4309
SWIDTH 529 0
DWIDTH 9 0
BBX 9 17 0 -3
BITMAP
0000
0000
0000
0000
0000
0000
0000
1E00
3300
3300
0300
0E00
0600
0300
6300
6300
3E00
ENDCHAR
STARTCHAR GeKan
ENCODING 4313
SWIDTH 529 0
DWIDTH 9 0
BBX 9 17 0 -3
BITMAP
0000
0000
0000
0000
0000
0000
0000
0200
0300
0300
0300
0E00
0600
0300
6300
6300
3E00
ENDCHAR
STARTCHAR GeLas
ENCODING 4314
SWIDTH 529 0
DWIDTH 9 0
BBX 9 17 0 -3
BITMAP
0000
0000
0000
0000
0000
0000
0000
3E00
6300
6300
6300
6300
6200
3000
7800
4E00
0300
ENDCHAR
STARTCHAR GeZhar
ENCODING 4319
SWIDTH 529 0
DWIDTH 9 0
BBX 9 17 0 -3
BITMAP
0000
0000
0000
0000
0000
0000
0000
0300
1F00
4F00
6B00
3B00
0300
0300
6300
6300
3E00
ENDCHAR
STARTCHAR GeTar
ENCODING 4322
SWIDTH 529 0
DWIDTH 9 0
BBX 9 17 0 -3
BITMAP
0000
0000
0000
0000
0000
0C00
1400
1E00
2B00
6D80
6180
6180
6180
6180
6180
3300
1E00
ENDCHAR
STARTCHAR GeUn
ENCODING 4323
SWIDTH 529 0
DWIDTH 9 0
BBX 9 17 0 -3
BITMAP
0000
0000
0000
0000
0000
0000
0000
6F00
7980
1980
1980
0180
0180
0180
3180
3180
1F00
ENDCHAR
STARTCHAR GePhar
ENCODING 4324
SWIDTH 529 0
DWIDTH 9 0
BBX 9 17 0 -3
BITMAP
0000
0000
0000
0000
0000
0000
0000
3600
6D80
6D80
6D80
6D80
3B00
0180
3180
3180
1F00
ENDCHAR
STARTCHAR GeKhar
ENCODING 4325
SWIDTH 529 0
DWIDTH 9 0
BBX 9 17 0 -3
BITMAP
0000
0000
0000
0100
0300
0300
0300
0F00
3F00
2300
0300
0300
0300
0300
6300
6300
3E00
ENDCHAR
STARTCHAR GeGhan
ENCODING 4326
SWIDTH 529 0
DWIDTH 9 0
BBX 9 17 0 -3
BITMAP
0000
0000
0000
0000
0000
0000
0000
3B00
6D80
6D80
6D80
6180
6100
3000
7C00
4700
0180
ENDCHAR
STARTCHAR GeQar
ENCODING 4327
SWIDTH 529 0
DWIDTH 9 0
BBX 9 17 0 -3
BITMAP
0000
0000
0000
0000
0000
0000
0000
2300
6300
6300
6300
2700
1F00
0300
6300
6300
3E00
ENDCHAR
STARTCHAR GeCan
ENCODING 4330
SWIDTH 529 0
DWIDTH 9 0
BBX 9 17 0 -3
BITMAP
0000
0000
0000
0000
0000
0000
0000
3600
6300
6180
6180
6700
6300
6180
6180
3300
1E00
ENDCHAR
STARTCHAR GeCil
ENCODING 4332
SWIDTH 529 0
DWIDTH 9 0
BBX 9 17 0 -3
BITMAP
0000
0000
0000
3B00
6D80
6D80
6000
6000
3F00
3100
3100
1B00
1A00
0E00
0C00
0C00
0400
ENDCHAR
STARTCHAR GeChar
ENCODING 4333
SWIDTH 529 0
DWIDTH 9 0
BBX 9 17 0 -3
BITMAP
0000
0000
0000
1800
1800
0C00
0600
0600
0600
3700
6E00
3700
0600
0600
6600
6600
3C00
ENDCHAR
STARTCHAR GeWe
ENCODING 4339
SWIDTH 529 0
DWIDTH 9 0
BBX 9 17 0 -3
BITMAP
0000
0000
0000
0000
0000
0000
0000
3F00
2300
0600
0C00
1E00
0300
0300
6300
6300
3E00
ENDCHAR
STARTCHAR GeHar
ENCODING 4340
SWIDTH 529 0
DWIDTH 9 0
BBX 9 17 0 -3
BITMAP
0000
0000
0000
0C00
1800
1800
1800
0F00
0300
0600
0C00
1E00
0300
0300
6300
6300
3E00
ENDCHAR
STARTCHAR GeFi
ENCODING 4342
SWIDTH 529 0
DWIDTH 9 0
BBX 9 17 0 -3
BITMAP
0000
0000
0000
0000
0000
0000
0000
3600
7F00
6B00
6B00
6B00
6B00
2E00
0800
1800
3000
ENDCHAR
STARTCHAR GeYn
ENCODING 4343
SWIDTH 529 0
DWIDTH 9 0
BBX 9 17 0 -3
BITMAP
0000
0000
0000
0000
0000
0000
0000
3E00
6300
2300
0300
0E00
3800
6000
6300
6300
3E00
ENDCHAR
STARTCHAR GeElifi
ENCODING 4344
SWIDTH 529 0
DWIDTH 9 0
BBX 9 17 0 -3
BITMAP
0000
0000
0000
0000
0000
0000
0000
6200
6300
6300
6300
7200
7C00
6000
6300
6300
3E00
ENDCHAR
STARTCHAR GeGanTrnd
ENCODING 4345
SWIDTH 529 0
DWIDTH 9 0
BBX 9 17 0 -3
BITMAP
0000
0000
0000
0000
0000
0000
0000
3E00
6300
6300
6300
6300
3E00
1800
1900
1B00
0E00
ENDCHAR
STARTCHAR LtCapALring
ENCODING 7680
SWIDTH 529 0
DWIDTH 9 0
BBX 9 17 0 -3
BITMAP
0000
0000
0000
0800
1800
1C00
1C00
2C00
2600
2600
7E00
4300
4300
C300
1C00
3600
1C00
ENDCHAR
STARTCHAR LtSmlALring
ENCODING 7681
SWIDTH 529 0
DWIDTH 9 0
BBX 9 17 0 -3
BITMAP
0000
0000
0000
0000
0000
0000
3E00
3300
0300
3F00
6300
6300
6700
3B00
1C00
3600
1C00
ENDCHAR
STARTCHAR LtCapBLdot
ENCODING 7684
SWIDTH 529 0
DWIDTH 9 0
BBX 9 17 0 -3
BITMAP
0000
0000
0000
7E00
6300
6300
6300
6200
7E00
6300
6300
6300
6300
7E00
0000
1800
1800
ENDCHAR
STARTCHAR LtSmlBLdot
ENCODING 7685
SWIDTH 529 0
DWIDTH 9 0
BBX 9 17 0 -3
BITMAP
0000
0000
0000
6000
6000
6000
6E00
7300
6300
6300
6300
6300
7300
6E00
0000
1800
1800
ENDCHAR
STARTCHAR LtCapBLmacron
ENCODING 7686
SWIDTH 529 0
DWIDTH 9 0
BBX 9 17 0 -3
BITMAP
0000
0000
0000
7E00
6300
6300
6300
6200
7E00
6300
6300
6300
6300
7E00
0000
3E00
3E00
ENDCHAR
STARTCHAR LtSmlBLmacron
ENCODING 7687
SWIDTH 529 0
DWIDTH 9 0
BBX 9 17 0 -3
BITMAP
0000
0000
0000
6000
6000
6000
6E00
7300
6300
6300
6300
6300
7300
6E00
0000
3E00
3E00
ENDCHAR
STARTCHAR LtCapDLdot
ENCODING 7692
SWIDTH 529 0
DWIDTH 9 0
BBX 9 17 0 -3
BITMAP
0000
0000
0000
7C00
6600
6300
6300
6300
6300
6300
6300
6300
6600
7C00
0000
1800
1800
ENDCHAR
STARTCHAR LtSmlDLdot
ENCODING 7693
SWIDTH 529 0
DWIDTH 9 0
BBX 9 17 0 -3
BITMAP
0000
0000
0000
0300
0300
0300
3B00
6700
6300
6300
6300
6300
6700
3B00
0000
1800
1800
ENDCHAR
STARTCHAR LtCapDLmacron
ENCODING 7694
SWIDTH 529 0
DWIDTH 9 0
BBX 9 17 0 -3
BITMAP
0000
0000
0000
7C00
6600
6300
6300
6300
6300
6300
6300
6300
6600
7C00
0000
3C00
3C00
ENDCHAR
STARTCHAR LtSmlDLmacron
ENCODING 7695
SWIDTH 529 0
DWIDTH 9 0
BBX 9 17 0 -3
BITMAP
0000
0000
0000
0300
0300
0300
3B00
6700
6300
6300
6300
6300
6700
3B00
0000
3E00
3E00
ENDCHAR
STARTCHAR LtCapDLcircum
ENCODING 7698
SWIDTH 529 0
DWIDTH 9 0
BBX 9 17 0 -3
BITMAP
0000
0000
0000
7C00
6600
6300
6300
6300
6300
6300
6300
6300
6600
7C00
1000
3800
6C00
ENDCHAR
STARTCHAR LtSmlDLcircum
ENCODING 7699
SWIDTH 529 0
DWIDTH 9 0
BBX 9 17 0 -3
BITMAP
0000
0000
0000
0300
0300
0300
3B00
6700
6300
6300
6300
6300
6700
3B00
0800
1C00
3600
ENDCHAR
STARTCHAR LtCapELcircum
ENCODING 7704
SWIDTH 529 0
DWIDTH 9 0
BBX 9 17 0 -3
BITMAP
0000
0000
0000
7F00
6300
6100
6000
6400
7C00
6400
6000
6100
6300
7F00
0800
1C00
3600
ENDCHAR
STARTCHAR LtSmlELcircum
ENCODING 7705
SWIDTH 529 0
DWIDTH 9 0
BBX 9 17 0 -3
BITMAP
0000
0000
0000
0000
0000
0000
1E00
3300
6300
7F00
6000
6000
3300
1E00
0800
1C00
3600
ENDCHAR
STARTCHAR LtCapELtilde
ENCODING 7706
SWIDTH 529 0
DWIDTH 9 0
BBX 9 17 0 -3
BITMAP
0000
0000
0000
7F00
6300
6100
6000
6400
7C00
6400
6000
6100
6300
7F00
0000
3600
5C00
ENDCHAR
STARTCHAR LtSmlELtilde
ENCODING 7707
SWIDTH 529 0
DWIDTH 9 0
BBX 9 17 0 -3
BITMAP
0000
0000
0000
0000
0000
0000
1E00
3300
6300
7F00
6000
6000
3300
1E00
0000
1B00
2E00
ENDCHAR
STARTCHAR LtCapHLdot
ENCODING 7716
SWIDTH 529 0
DWIDTH 9 0
BBX 9 17 0 -3
BITMAP
0000
0000
0000
6300
6300
6300
6300
6300
7F00
6300
6300
6300
6300
6300
0000
1800
1800
ENDCHAR
STARTCHAR LtSmlHLdot
ENCODING 7717
SWIDTH 529 0
DWIDTH 9 0
BBX 9 17 0 -3
BITMAP
0000
0000
0000
6000
6000
6000
6E00
7300
6300
6300
6300
6300
6300
6300
0000
1800
1800
ENDCHAR
STARTCHAR LtCapHLbreve
ENCODING 7722
SWIDTH 529 0
DWIDTH 9 0
BBX 9 17 0 -3
BITMAP
0000
0000
0000
6300
6300
6300
6300
6300
7F00
6300
6300
6300
6300
6300
0000
3600
1C00
ENDCHAR
STARTCHAR LtSmlHLbreve
ENCODING 7723
SWIDTH 529 0
DWIDTH 9 0
BBX 9 17 0 -3
BITMAP
0000
0000
0000
6000
6000
6000
6E00
7300
6300
6300
6300
6300
6300
6300
0000
3600
1C00
ENDCHAR
STARTCHAR LtCapILtilde
ENCODING 7724
SWIDTH 529 0
DWIDTH 9 0
BBX 9 17 0 -3
BITMAP
0000
0000
0000
3F00
0C00
0C00
0C00
0C00
0C00
0C00
0C00
0C00
0C00
3F00
0000
1B00
2E00
ENDCHAR
STARTCHAR LtSmlILtilde
ENCODING 7725
SWIDTH 529 0
DWIDTH 9 0
BBX 9 17 0 -3
BITMAP
0000
0000
0C00
0C00
0000
0000
1C00
0C00
0C00
0C00
0C00
0C00
0C00
3F00
0000
1B00
2E00
ENDCHAR
STARTCHAR LtCapKLdot
ENCODING 7730
SWIDTH 529 0
DWIDTH 9 0
BBX 9 17 0 -3
BITMAP
0000
0000
0000
6300
6200
6600
6400
6800
7C00
7C00
6600
6600
6300
6300
0000
1800
1800
ENDCHAR
STARTCHAR LtSmlKLdot
ENCODING 7731
SWIDTH 529 0
DWIDTH 9 0
BBX 9 17 0 -3
BITMAP
0000
0000
0000
6000
6000
6000
6300
6200
6400
6C00
7C00
6600
6300
6300
0000
1800
1800
ENDCHAR
STARTCHAR LtCapKLmacron
ENCODING 7732
SWIDTH 529 0
DWIDTH 9 0
BBX 9 17 0 -3
BITMAP
0000
0000
0000
6300
6200
6600
6400
6800
7C00
7C00
6600
6600
6300
6300
0000
3E00
3E00
ENDCHAR
STARTCHAR LtSmlKLmacron
ENCODING 7733
SWIDTH 529 0
DWIDTH 9 0
BBX 9 17 0 -3
BITMAP
0000
0000
0000
6000
6000
6000
6300
6200
6400
6C00
7C00
6600
6300
6300
0000
3E00
3E00
ENDCHAR
STARTCHAR LtCapLLdot
ENCODING 7734
SWIDTH 529 0
DWIDTH 9 0
BBX 9 17 0 -3
BITMAP
0000
0000
0000
6000
6000
6000
6000
6000
6000
6000
6000
6100
6300
7F00
0000
1800
1800
ENDCHAR
STARTCHAR LtSmlLLdot
ENCODING 7735
SWIDTH 529 0
DWIDTH 9 0
BBX 9 17 0 -3
BITMAP
0000
0000
0000
1C00
0C00
0C00
0C00
0C00
0C00
0C00
0C00
0C00
0C00
3F00
0000
0C00
0C00
ENDCHAR
STARTCHAR LtCapLMacronLdot
ENCODING 7736
SWIDTH 529 0
DWIDTH 9 0
BBX 9 17 0 -3
BITMAP
3E00
3E00
0000
6000
6000
6000
6000
6000
6000
6000
6000
6100
6300
7F00
0000
1800
1800
ENDCHAR
STARTCHAR LtSmlLMacronLdot
ENCODING 7737
SWIDTH 529 0
DWIDTH 9 0
BBX 9 17 0 -3
BITMAP
3E00
3E00
0000
1C00
0C00
0C00
0C00
0C00
0C00
0C00
0C00
0C00
0C00
3F00
0000
0C00
0C00
ENDCHAR
STARTCHAR LtCapLLmacron
ENCODING 7738
SWIDTH 529 0
DWIDTH 9 0
BBX 9 17 0 -3
BITMAP
0000
0000
0000
6000
6000
6000
6000
6000
6000
6000
6000
6100
6300
7F00
0000
3E00
3E00
ENDCHAR
STARTCHAR LtSmlLLmacron
ENCODING 7739
SWIDTH 529 0
DWIDTH 9 0
BBX 9 17 0 -3
BITMAP
0000
0000
0000
1C00
0C00
0C00
0C00
0C00
0C00
0C00
0C00
0C00
0C00
3F00
0000
1E00
1E00
ENDCHAR
STARTCHAR LtCapLLcircum
ENCODING 7740
SWIDTH 529 0
DWIDTH 9 0
BBX 9 17 0 -3
BITMAP
0000
0000
0000
6000
6000
6000
6000
6000
6000
6000
6000
6100
6300
7F00
0800
1C00
3600
ENDCHAR
STARTCHAR LtSmlLLcircum
ENCODING 7741
SWIDTH 529 0
DWIDTH 9 0
BBX 9 17 0 -3
BITMAP
0000
0000
0000
1C00
0C00
0C00
0C00
0C00
0C00
0C00
0C00
0C00
0C00
3F00
0800
1C00
3600
ENDCHAR
STARTCHAR LtCapMLdot
ENCODING 7746
SWIDTH 529 0
DWIDTH 9 0
BBX 9 17 0 -3
BITMAP
0000
0000
0000
6300
6300
7700
7700
7F00
5B00
5B00
4300
4300
4300
4300
0000
1800
1800
ENDCHAR
STARTCHAR LtSmlMLdot
ENCODING 7747
SWIDTH 529 0
DWIDTH 9 0
BBX 9 17 0 -3
BITMAP
0000
0000
0000
0000
0000
0000
5600
7F00
6B00
6B00
6B00
6B00
6B00
6B00
0000
1800
1800
ENDCHAR
STARTCHAR LtCapNLdot
ENCODING 7750
SWIDTH 529 0
DWIDTH 9 0
BBX 9 17 0 -3
BITMAP
0000
0000
0000
6100
7100
7100
5900
5900
4D00
4D00
4700
4700
4300
4100
0000
1800
1800
ENDCHAR
STARTCHAR LtSmlNLdot
ENCODING 7751
SWIDTH 529 0
DWIDTH 9 0
BBX 9 17 0 -3
BITMAP
0000
0000
0000
0000
0000
0000
6E00
7300
6300
6300
6300
6300
6300
6300
0000
1800
1800
ENDCHAR
STARTCHAR LtCapNLmacron
ENCODING 7752
SWIDTH 529 0
DWIDTH 9 0
BBX 9 17 0 -3
BITMAP
0000
0000
0000
6100
7100
7100
5900
5900
4D00
4D00
4700
4700
4300
4100
0000
3E00
3E00
ENDCHAR
STARTCHAR LtSmlNLmacron
ENCODING 7753
SWIDTH 529 0
DWIDTH 9 0
BBX 9 17 0 -3
BITMAP
0000
0000
0000
0000
0000
0000
6E00
7300
6300
6300
6300
6300
6300
6300
0000
3E00
3E00
ENDCHAR
STARTCHAR LtCapNLcircum
ENCODING 7754
SWIDTH 529 0
DWIDTH 9 0
BBX 9 17 0 -3
BITMAP
0000
0000
0000
6100
7100
7100
5900
5900
4D00
4D00
4700
4700
4300
4100
0800
1C00
3600
ENDCHAR
STARTCHAR LtSmlNLcircum
ENCODING 7755
SWIDTH 529 0
DWIDTH 9 0
BBX 9 17 0 -3
BITMAP
0000
0000
0000
0000
0000
0000
6E00
7300
6300
6300
6300
6300
6300
6300
0800
1C00
3600
ENDCHAR
STARTCHAR LtCapRLdot
ENCODING 7770
SWIDTH 529 0
DWIDTH 9 0
BBX 9 17 0 -3
BITMAP
0000
0000
0000
7E00
6300
6300
6300
6300
7E00
6C00
6600
6600
6300
6300
0000
1800
1800
ENDCHAR
STARTCHAR LtSmlRLdot
ENCODING 7771
SWIDTH 529 0
DWIDTH 9 0
BBX 9 17 0 -3
BITMAP
0000
0000
0000
0000
0000
0000
7700
3B00
3100
3000
3000
3000
3000
3000
0000
3000
3000
ENDCHAR
STARTCHAR LtCapRMacronLdot
ENCODING 7772
SWIDTH 529 0
DWIDTH 9 0
BBX 9 17 0 -3
BITMAP
3E00
3E00
0000
7E00
6300
6300
6300
6300
7E00
6C00
6600
6600
6300
6300
0000
1800
1800
ENDCHAR
STARTCHAR LtSmlRMacronLdot
ENCODING 7773
SWIDTH 529 0
DWIDTH 9 0
BBX 9 17 0 -3
BITMAP
0000
0000
0000
3E00
3E00
0000
7700
3B00
3100
3000
3000
3000
3000
3000
0000
3000
3000
ENDCHAR
STARTCHAR LtCapRLmacron
ENCODING 7774
SWIDTH 529 0
DWIDTH 9 0
BBX 9 17 0 -3
BITMAP
0000
0000
0000
7E00
6300
6300
6300
6300
7E00
6C00
6600
6600
6300
6300
0000
3E00
3E00
ENDCHAR
STARTCHAR LtSmlRLmacron
ENCODING 7775
SWIDTH 529 0
DWIDTH 9 0
BBX 9 17 0 -3
BITMAP
0000
0000
0000
0000
0000
0000
7700
3B00
3100
3000
3000
3000
3000
3000
0000
3C00
3C00
ENDCHAR
STARTCHAR LtCapSLdot
ENCODING 7778
SWIDTH 529 0
DWIDTH 9 0
BBX 9 17 0 -3
BITMAP
0000
0000
0000
3F00
6300
6100
6000
3800
1E00
0600
0300
4300
6300
7E00
0000
1800
1800
ENDCHAR
STARTCHAR LtSmlSLdot
ENCODING 7779
SWIDTH 529 0
DWIDTH 9 0
BBX 9 17 0 -3
BITMAP
0000
0000
0000
0000
0000
0000
3E00
6300
7000
3C00
0E00
0300
6300
3E00
0000
1800
1800
ENDCHAR
STARTCHAR LtCapSDotLdot
ENCODING 7784
SWIDTH 529 0
DWIDTH 9 0
BBX 9 17 0 -3
BITMAP
0C00
0C00
0000
3F00
6300
6100
6000
3800
1E00
0600
0300
4300
6300
7E00
0000
1800
1800
ENDCHAR
STARTCHAR LtSmlSDotLdot
ENCODING 7785
SWIDTH 529 0
DWIDTH 9 0
BBX 9 17 0 -3
BITMAP
0000
0000
0C00
0C00
0000
0000
3E00
6300
7000
3C00
0E00
0300
6300
3E00
0000
0C00
0C00
ENDCHAR
STARTCHAR LtCapTLdot
ENCODING 7788
SWIDTH 529 0
DWIDTH 9 0
BBX 9 17 0 -3
BITMAP
0000
0000
0000
7F80
6D80
4C80
0C00
0C00
0C00
0C00
0C00
0C00
0C00
0C00
0000
0C00
0C00
ENDCHAR
STARTCHAR LtSmlTLdot
ENCODING 7789
SWIDTH 529 0
DWIDTH 9 0
BBX 9 17 0 -3
BITMAP
0000
0000
0000
0000
1800
1800
7E00
1800
1800
1800
1800
1800
1B00
0E00
0000
0C00
0C00
ENDCHAR
STARTCHAR LtCapTLmacron
ENCODING 7790
SWIDTH 529 0
DWIDTH 9 0
BBX 9 17 0 -3
BITMAP
0000
0000
0000
7F80
6D80
4C80
0C00
0C00
0C00
0C00
0C00
0C00
0C00
0C00
0000
3E00
3E00
ENDCHAR
STARTCHAR LtSmlTLmacron
ENCODING 7791
SWIDTH 529 0
DWIDTH 9 0
BBX 9 17 0 -3
BITMAP
0000
0000
0000
0000
1800
1800
7E00
1800
1800
1800
1800
1800
1B00
0E00
0000
1E00
1E00
ENDCHAR
STARTCHAR LtCapTLcircum
ENCODING 7792
SWIDTH 529 0
DWIDTH 9 0
BBX 9 17 0 -3
BITMAP
0000
0000
0000
7F80
6D80
4C80
0C00
0C00
0C00
0C00
0C00
0C00
0C00
0C00
0800
1C00
3600
ENDCHAR
STARTCHAR LtSmlTLcircum
ENCODING 7793
SWIDTH 529 0
DWIDTH 9 0
BBX 9 17 0 -3
BITMAP
0000
0000
0000
0000
1800
1800
7E00
1800
1800
1800
1800
1800
1B00
0E00
0400
0E00
1B00
ENDCHAR
STARTCHAR LtCapULdrss
ENCODING 7794
SWIDTH 529 0
DWIDTH 9 0
BBX 9 17 0 -3
BITMAP
0000
0000
0000
6300
6300
6300
6300
6300
6300
6300
6300
6300
6300
3E00
0000
3600
3600
ENDCHAR
STARTCHAR LtSmlULdrss
ENCODING 7795
SWIDTH 529 0
DWIDTH 9 0
BBX 9 17 0 -3
BITMAP
0000
0000
0000
0000
0000
0000
6300
6300
6300
6300
6300
6300
6700
3B00
0000
3600
3600
ENDCHAR
STARTCHAR LtCapULtilde
ENCODING 7796
SWIDTH 529 0
DWIDTH 9 0
BBX 9 17 0 -3
BITMAP
0000
0000
0000
6300
6300
6300
6300
6300
6300
6300
6300
6300
6300
3E00
0000
1B00
2E00
ENDCHAR
STARTCHAR LtSmlULtilde
ENCODING 7797
SWIDTH 529 0
DWIDTH 9 0
BBX 9 17 0 -3
BITMAP
0000
0000
0000
0000
0000
0000
6300
6300
6300
6300
6300
6300
6700
3B00
0000
1B00
2E00
ENDCHAR
STARTCHAR LtCapULcircum
ENCODING 7798
SWIDTH 529 0
DWIDTH 9 0
BBX 9 17 0 -3
BITMAP
0000
0000
0000
6300
6300
6300
6300
6300
6300
6300
6300
6300
6300
3E00
0800
1C00
3600
ENDCHAR
STARTCHAR LtSmlULcircum
ENCODING 7799
SWIDTH 529 0
DWIDTH 9 0
BBX 9 17 0 -3
BITMAP
0000
0000
0000
0000
0000
0000
6300
6300
6300
6300
6300
6300
6700
3B00
0800
1C00
3600
ENDCHAR
STARTCHAR LtCapVLdot
ENCODING 7806
SWIDTH 529 0
DWIDTH 9 0
BBX 9 17 0 -3
BITMAP
0000
0000
0000
6180
6100
6100
3300
3200
3200
1A00
1C00
1C00
0C00
0800
0000
0C00
0C00
ENDCHAR
STARTCHAR LtSmlVLdot
ENCODING 7807
SWIDTH 529 0
DWIDTH 9 0
BBX 9 17 0 -3
BITMAP
0000
0000
0000
0000
0000
0000
6180
6100
3200
3200
1A00
1C00
0C00
0800
0000
0C00
0C00
ENDCHAR
STARTCHAR LtCapWLdot
ENCODING 7816
SWIDTH 529 0
DWIDTH 9 0
BBX 9 17 0 -3
BITMAP
0000
0000
0000
6080
6080
6080
6480
6480
6E80
7F80
3700
3300
3300
3300
0000
0C00
0C00
ENDCHAR
STARTCHAR LtSmlWLdot
ENCODING 7817
SWIDTH 529 0
DWIDTH 9 0
BBX 9 17 0 -3
BITMAP
0000
0000
0000
0000
0000
0000
6080
6080
6480
6480
6E80
3F00
3300
3300
0000
0C00
0C00
ENDCHAR
STARTCHAR LtCapZLdot
ENCODING 7826
SWIDTH 529 0
DWIDTH 9 0
BBX 9 17 0 -3
BITMAP
0000
0000
0000
7F00
6300
4600
0600
0C00
1800
1800
3000
3100
6300
7F00
0000
1800
1800
ENDCHAR
STARTCHAR LtSmlZLdot
ENCODING 7827
SWIDTH 529 0
DWIDTH 9 0
BBX 9 17 0 -3
BITMAP
0000
0000
0000
0000
0000
0000
7F00
6700
4600
0C00
1800
3100
7300
7F00
0000
1800
1800
ENDCHAR
STARTCHAR LtCapZLmacron
ENCODING 7828
SWIDTH 529 0
DWIDTH 9 0
BBX 9 17 0 -3
BITMAP
0000
0000
0000
7F00
6300
4600
0600
0C00
1800
1800
3000
3100
6300
7F00
0000
3E00
3E00
ENDCHAR
STARTCHAR LtSmlZLmacron
ENCODING 7829
SWIDTH 529 0
DWIDTH 9 0
BBX 9 17 0 -3
BITMAP
0000
0000
0000
0000
0000
0000
7F00
6700
4600
0C00
1800
3100
7300
7F00
0000
3E00
3E00
ENDCHAR
STARTCHAR LtSmlHLmacron
ENCODING 7830
SWIDTH 529 0
DWIDTH 9 0
BBX 9 17 0 -3
BITMAP
0000
0000
0000
6000
6000
6000
6E00
7300
6300
6300
6300
6300
6300
6300
0000
3E00
3E00
ENDCHAR
STARTCHAR LtCapALdot
ENCODING 7840
SWIDTH 529 0
DWIDTH 9 0
BBX 9 17 0 -3
BITMAP
0000
0000
0000
0800
1800
1C00
1C00
2C00
2600
2600
7E00
4300
4300
C300
0000
1800
1800
ENDCHAR
STARTCHAR LtSmlALdot
ENCODING 7841
SWIDTH 529 0
DWIDTH 9 0
BBX 9 17 0 -3
BITMAP
0000
0000
0000
0000
0000
0000
3E00
3300
0300
3F00
6300
6300
6700
3B00
0000
1800
1800
ENDCHAR
STARTCHAR LtCapACircumLdot
ENCODING 7852
SWIDTH 529 0
DWIDTH 9 0
BBX 9 17 0 -3
BITMAP
1800
3C00
2400
0000
1800
1C00
1C00
2C00
2600
2600
7E00
4300
4300
C300
0000
1800
1800
ENDCHAR
STARTCHAR LtSmlACircumLdot
ENCODING 7853
SWIDTH 529 0
DWIDTH 9 0
BBX 9 17 0 -3
BITMAP
0000
0000
0C00
1E00
1200
0000
3E00
3300
0300
3F00
6300
6300
6700
3B00
0000
1800
1800
ENDCHAR
STARTCHAR LtCapABreveLdot
ENCODING 7862
SWIDTH 529 0
DWIDTH 9 0
BBX 9 17 0 -3
BITMAP
2200
3600
1C00
0000
1800
1C00
1C00
2C00
2600
2600
7E00
4300
4300
C300
0000
1800
1800
ENDCHAR
STARTCHAR LtSmlABreveLdot
ENCODING 7863
SWIDTH 529 0
DWIDTH 9 0
BBX 9 17 0 -3
BITMAP
0000
0000
2200
3600
1C00
0000
3E00
3300
0300
3F00
6300
6300
6700
3B00
0000
1800
1800
ENDCHAR
STARTCHAR LtCapELdot
ENCODING 7864
SWIDTH 529 0
DWIDTH 9 0
BBX 9 17 0 -3
BITMAP
0000
0000
0000
7F00
6300
6100
6000
6400
7C00
6400
6000
6100
6300
7F00
0000
1800
1800
ENDCHAR
STARTCHAR LtSmlELdot
ENCODING 7865
SWIDTH 529 0
DWIDTH 9 0
BBX 9 17 0 -3
BITMAP
0000
0000
0000
0000
0000
0000
1E00
3300
6300
7F00
6000
6000
3300
1E00
0000
0C00
0C00
ENDCHAR
STARTCHAR LtCapECircumLdot
ENCODING 7878
SWIDTH 529 0
DWIDTH 9 0
BBX 9 17 0 -3
BITMAP
0800
1C00
3600
0000
7F00
6300
6000
6400
7C00
6400
6000
6100
6300
7F00
0000
1800
1800
ENDCHAR
STARTCHAR LtSmlECircumLdot
ENCODING 7879
SWIDTH 529 0
DWIDTH 9 0
BBX 9 17 0 -3
BITMAP
0000
0000
0C00
1E00
1200
0000
1E00
3300
6300
7F00
6000
6000
3300
1E00
0000
0C00
0C00
ENDCHAR
STARTCHAR LtCapILdot
ENCODING 7882
SWIDTH 529 0
DWIDTH 9 0
BBX 9 17 0 -3
BITMAP
0000
0000
0000
3F00
0C00
0C00
0C00
0C00
0C00
0C00
0C00
0C00
0C00
3F00
0000
0C00
0C00
ENDCHAR
STARTCHAR LtSmlILdot
ENCODING 7883
SWIDTH 529 0
DWIDTH 9 0
BBX 9 17 0 -3
BITMAP
0000
0000
0C00
0C00
0000
0000
1C00
0C00
0C00
0C00
0C00
0C00
0C00
3F00
0000
0C00
0C00
ENDCHAR
STARTCHAR LtCapOLdot
ENCODING 7884
SWIDTH 529 0
DWIDTH 9 0
BBX 9 17 0 -3
BITMAP
0000
0000
0000
3E00
6300
6300
6300
6300
6300
6300
6300
6300
6300
3E00
0000
1800
1800
ENDCHAR
STARTCHAR LtSmlOLdot
ENCODING 7885
SWIDTH 529 0
DWIDTH 9 0
BBX 9 17 0 -3
BITMAP
0000
0000
0000
0000
0000
0000
3E00
6300
6300
6300
6300
6300
6300
3E00
0000
1800
1800
ENDCHAR
STARTCHAR LtCapOCircumLdot
ENCODING 7896
SWIDTH 529 0
DWIDTH 9 0
BBX 9 17 0 -3
BITMAP
0800
1C00
3600
0000
3E00
6300
6300
6300
6300
6300
6300
6300
6300
3E00
0000
1800
1800
ENDCHAR
STARTCHAR LtSmlOCircumLdot
ENCODING 7897
SWIDTH 529 0
DWIDTH 9 0
BBX 9 17 0 -3
BITMAP
0000
0000
0800
1C00
3600
0000
3E00
6300
6300
6300
6300
6300
6300
3E00
0000
1800
1800
ENDCHAR
STARTCHAR LtCapOHornLdot
ENCODING 7906
SWIDTH 529 0
DWIDTH 9 0
BBX 9 17 0 -3
BITMAP
0000
0380
0180
3F00
6300
6300
6300
6300
6300
6300
6300
6300
6300
3E00
0000
1800
1800
ENDCHAR
STARTCHAR LtSmlOHornLdot
ENCODING 7907
SWIDTH 529 0
DWIDTH 9 0
BBX 9 17 0 -3
BITMAP
0000
0000
0000
0000
0380
0180
3F00
6300
6300
6300
6300
6300
6300
3E00
0000
1800
1800
ENDCHAR
STARTCHAR LtCapULdot
ENCODING 7908
SWIDTH 529 0
DWIDTH 9 0
BBX 9 17 0 -3
BITMAP
0000
0000
0000
6300
6300
6300
6300
6300
6300
6300
6300
6300
6300
3E00
0000
1800
1800
ENDCHAR
STARTCHAR LtSmlULdot
ENCODING 7909
SWIDTH 529 0
DWIDTH 9 0
BBX 9 17 0 -3
BITMAP
0000
0000
0000
0000
0000
0000
6300
6300
6300
6300
6300
6300
6700
3B00
0000
1800
1800
ENDCHAR
STARTCHAR LtCapUHornLdot
ENCODING 7920
SWIDTH 529 0
DWIDTH 9 0
BBX 9 17 0 -3
BITMAP
0000
0380
0180
6300
6300
6300
6300
6300
6300
6300
6300
6300
6300
3E00
0000
1800
1800
ENDCHAR
STARTCHAR LtSmlUHornLdot
ENCODING 7921
SWIDTH 529 0
DWIDTH 9 0
BBX 9 17 0 -3
BITMAP
0000
0000
0000
0000
0380
0180
6300
6300
6300
6300
6300
6300
6700
3B00
0000
1800
1800
ENDCHAR
STARTCHAR LtCapYLdot
ENCODING 7924
SWIDTH 529 0
DWIDTH 9 0
BBX 9 17 0 -3
BITMAP
0000
0000
0000
6180
6100
3100
3200
1A00
1C00
0C00
0C00
0C00
0C00
0C00
0000
0C00
0C00
ENDCHAR
STARTCHAR LtSmlYLdot
ENCODING 7925
SWIDTH 529 0
DWIDTH 9 0
BBX 9 17 0 -3
BITMAP
0000
0000
0000
0000
0000
0000
6300
6300
3200
3200
1A00
1C00
0C00
0C00
0800
6B00
7300
ENDCHAR
STARTCHAR MArrowU
ENCODING 8593
SWIDTH 529 0
DWIDTH 9 0
BBX 9 17 0 -3
BITMAP
0000
0C00
1E00
3F00
0C00
0C00
0C00
0C00
0C00
0C00
0C00
0C00
0C00
0C00
0C00
0C00
0000
ENDCHAR
STARTCHAR MArrowD
ENCODING 8595
SWIDTH 529 0
DWIDTH 9 0
BBX 9 17 0 -3
BITMAP
0000
0C00
0C00
0C00
0C00
0C00
0C00
0C00
0C00
0C00
0C00
0C00
0C00
3F00
1E00
0C00
0000
ENDCHAR
STARTCHAR MArrowUD
ENCODING 8597
SWIDTH 529 0
DWIDTH 9 0
BBX 9 17 0 -3
BITMAP
0000
0C00
1E00
3F00
0C00
0C00
0C00
0C00
0C00
0C00
0C00
0C00
0C00
3F00
1E00
0C00
0000
ENDCHAR
STARTCHAR MArrowLU
ENCODING 8598
SWIDTH 529 0
DWIDTH 9 0
BBX 9 17 0 -3
BITMAP
0000
6000
7000
7800
7000
5800
1800
0C00
0C00
0600
0600
0300
0300
0180
0180
0080
0000
ENDCHAR
STARTCHAR MArrowRU
ENCODING 8599
SWIDTH 529 0
DWIDTH 9 0
BBX 9 17 0 -3
BITMAP
0000
0180
0380
0780
0380
0680
0600
0C00
0C00
1800
1800
3000
3000
6000
6000
4000
0000
ENDCHAR
STARTCHAR MArrowRD
ENCODING 8600
SWIDTH 529 0
DWIDTH 9 0
BBX 9 17 0 -3
BITMAP
0000
4000
6000
6000
3000
3000
1800
1800
0C00
0C00
0600
0680
0380
0780
0380
0180
0000
ENDCHAR
STARTCHAR MArrowLD
ENCODING 8601
SWIDTH 529 0
DWIDTH 9 0
BBX 9 17 0 -3
BITMAP
0000
0080
0180
0180
0300
0300
0600
0600
0C00
0C00
1800
5800
7000
7800
7000
6000
0000
ENDCHAR
STARTCHAR MArrowUu
ENCODING 8607
SWIDTH 529 0
DWIDTH 9 0
BBX 9 17 0 -3
BITMAP
0000
0C00
1E00
3F00
0C00
1E00
3F00
0C00
0C00
0C00
0C00
0C00
0C00
0C00
0C00
0C00
0000
ENDCHAR
STARTCHAR MArrowDd
ENCODING 8609
SWIDTH 529 0
DWIDTH 9 0
BBX 9 17 0 -3
BITMAP
0000
0C00
0C00
0C00
0C00
0C00
0C00
0C00
0C00
0C00
3F00
1E00
0C00
3F00
1E00
0C00
0000
ENDCHAR
STARTCHAR MArrowBarU
ENCODING 8613
SWIDTH 529 0
DWIDTH 9 0
BBX 9 17 0 -3
BITMAP
0000
0C00
1E00
3F00
0C00
0C00
0C00
0C00
0C00
0C00
0C00
0C00
0C00
0C00
3F00
3F00
0000
ENDCHAR
STARTCHAR MArrowBarD
ENCODING 8615
SWIDTH 529 0
DWIDTH 9 0
BBX 9 17 0 -3
BITMAP
0000
3F00
3F00
0C00
0C00
0C00
0C00
0C00
0C00
0C00
0C00
0C00
0C00
3F00
1E00
0C00
0000
ENDCHAR
STARTCHAR MArrowUDBase
ENCODING 8616
SWIDTH 529 0
DWIDTH 9 0
BBX 9 17 0 -3
BITMAP
0000
0C00
1E00
3F00
0C00
0C00
0C00
0C00
0C00
0C00
0C00
3F00
1E00
0C00
3F00
3F00
0000
ENDCHAR
STARTCHAR MHarpoonUr
ENCODING 8638
SWIDTH 529 0
DWIDTH 9 0
BBX 9 17 0 -3
BITMAP
0000
0C00
0E00
0F00
0C00
0C00
0C00
0C00
0C00
0C00
0C00
0C00
0C00
0C00
0C00
0C00
0000
ENDCHAR
STARTCHAR MHarpoonUl
ENCODING 8639
SWIDTH 529 0
DWIDTH 9 0
BBX 9 17 0 -3
BITMAP
0000
0C00
1C00
3C00
0C00
0C00
0C00
0C00
0C00
0C00
0C00
0C00
0C00
0C00
0C00
0C00
0000
ENDCHAR
STARTCHAR MHarpoonDr
ENCODING 8642
SWIDTH 529 0
DWIDTH 9 0
BBX 9 17 0 -3
BITMAP
0000
0C00
0C00
0C00
0C00
0C00
0C00
0C00
0C00
0C00
0C00
0C00
0C00
0F00
0E00
0C00
0000
ENDCHAR
STARTCHAR MHarpoonDl
ENCODING 8643
SWIDTH 529 0
DWIDTH 9 0
BBX 9 17 0 -3
BITMAP
0000
0C00
0C00
0C00
0C00
0C00
0C00
0C00
0C00
0C00
0C00
0C00
0C00
3C00
1C00
0C00
0000
ENDCHAR
STARTCHAR MArrowULeftD
ENCODING 8645
SWIDTH 529 0
DWIDTH 9 0
BBX 9 17 0 -3
BITMAP
0000
3300
7B00
FF00
3300
3300
3300
3300
3300
3300
3300
3300
3300
3F80
3780
3300
0000
ENDCHAR
STARTCHAR MArrowULeftU
ENCODING 8648
SWIDTH 529 0
DWIDTH 9 0
BBX 9 17 0 -3
BITMAP
0000
3300
7F80
FF80
3300
3300
3300
3300
3300
3300
3300
3300
3300
3300
3300
3300
0000
ENDCHAR
STARTCHAR MArrowDLeftD
ENCODING 8650
SWIDTH 529 0
DWIDTH 9 0
BBX 9 17 0 -3
BITMAP
0000
3300
3300
3300
3300
3300
3300
3300
3300
3300
3300
3300
3300
FF80
7F80
3300
0000
ENDCHAR
STARTCHAR MArrow2U
ENCODING 8657
SWIDTH 529 0
DWIDTH 9 0
BBX 9 17 0 -3
BITMAP
0000
0800
1C00
3E00
7700
3600
3600
3600
3600
3600
3600
3600
3600
3600
3600
3600
0000
ENDCHAR
STARTCHAR MArrow2D
ENCODING 8659
SWIDTH 529 0
DWIDTH 9 0
BBX 9 17 0 -3
BITMAP
0000
3600
3600
3600
3600
3600
3600
3600
3600
3600
3600
3600
7700
3E00
1C00
0800
0000
ENDCHAR
STARTCHAR MArrow2UD
ENCODING 8661
SWIDTH 529 0
DWIDTH 9 0
BBX 9 17 0 -3
BITMAP
0000
0800
1C00
3E00
7700
3600
3600
3600
3600
3600
3600
3600
7700
3E00
1C00
0800
0000
ENDCHAR
STARTCHAR PCurlyBrackLTRB
ENCODING 9136
SWIDTH 529 0
DWIDTH 9 0
BBX 9 17 0 -3
BITMAP
0300
0600
0C00
0C00
0C00
0C00
0C00
0C00
0C00
0C00
0C00
0C00
0C00
0C00
0C00
1800
3000
ENDCHAR
STARTCHAR PCurlyBrackLBRT
ENCODING 9137
SWIDTH 529 0
DWIDTH 9 0
BBX 9 17 0 -3
BITMAP
3000
1800
0C00
0C00
0C00
0C00
0C00
0C00
0C00
0C00
0C00
0C00
0C00
0C00
0C00
0600
0300
ENDCHAR
STARTCHAR MSumT
ENCODING 9138
SWIDTH 529 0
DWIDTH 9 0
BBX 9 17 0 -3
BITMAP
0000
7F80
6180
6080
6000
3000
3000
3000
1800
1800
1800
1800
0C00
0C00
0C00
0600
0600
ENDCHAR
STARTCHAR MRootB
ENCODING 9143
SWIDTH 529 0
DWIDTH 9 0
BBX 9 17 0 -3
BITMAP
0C00
0C00
0C00
0C00
0C00
0C00
0C00
0C00
CC00
EC00
6C00
3C00
3C00
1C00
1C00
0C00
0C00
ENDCHAR
STARTCHAR LtSmlATrndLinvbreve
ENCODING 57350
SWIDTH 529 0
DWIDTH 9 0
BBX 9 17 0 -3
BITMAP
0000
0000
0000
0000
0000
0000
EE00
7300
6300
6300
7E00
6000
6300
3E00
0000
1C00
3600
ENDCHAR
STARTCHAR LtCapCLdot
ENCODING 57356
SWIDTH 529 0
DWIDTH 9 0
BBX 9 17 0 -3
BITMAP
0000
0000
0000
1F00
3300
6100
6000
6000
6000
6000
6000
6000
3300
1E00
0000
0C00
0C00
ENDCHAR
STARTCHAR LtSmlCLdot
ENCODING 57357
SWIDTH 529 0
DWIDTH 9 0
BBX 9 17 0 -3
BITMAP
0000
0000
0000
0000
0000
0000
1E00
3300
6000
6000
6000
6000
3300
1E00
0000
0C00
0C00
ENDCHAR
STARTCHAR LtCapCCaronLdot
ENCODING 57358
SWIDTH 529 0
DWIDTH 9 0
BBX 9 17 0 -3
BITMAP
1200
1E00
0C00
0000
1F00
3300
6100
6000
6000
6000
6000
6000
3300
1E00
0000
0C00
0C00
ENDCHAR
STARTCHAR LtSmlCCaronLdot
ENCODING 57359
SWIDTH 529 0
DWIDTH 9 0
BBX 9 17 0 -3
BITMAP
0000
0000
1200
1E00
0C00
0000
1E00
3300
6000
6000
6000
6000
3300
1E00
0000
0C00
0C00
ENDCHAR
STARTCHAR LtCapELmacron
ENCODING 57370
SWIDTH 529 0
DWIDTH 9 0
BBX 9 17 0 -3
BITMAP
0000
0000
0000
7F00
6300
6100
6000
6400
7C00
6400
6000
6100
6300
7F00
0000
3E00
3E00
ENDCHAR
STARTCHAR LtSmlELmacron
ENCODING 57371
SWIDTH 529 0
DWIDTH 9 0
BBX 9 17 0 -3
BITMAP
0000
0000
0000
0000
0000
0000
1E00
3300
6300
7F00
6000
6000
3300
1E00
0000
3E00
3E00
ENDCHAR
STARTCHAR LtCapEAcuteLdot
ENCODING 57372
SWIDTH 529 0
DWIDTH 9 0
BBX 9 17 0 -3
BITMAP
0E00
1800
0000
7F00
6300
6100
6000
6400
7C00
6400
6000
6100
6300
7F00
0000
1800
1800
ENDCHAR
STARTCHAR LtSmlEAcuteLdot
ENCODING 57373
SWIDTH 529 0
DWIDTH 9 0
BBX 9 17 0 -3
BITMAP
0000
0000
0600
0C00
0800
0000
1E00
3300
6300
7F00
6000
6000
3300
1E00
0000
0C00
0C00
ENDCHAR
STARTCHAR LtCapEGraveLdot
ENCODING 57376
SWIDTH 529 0
DWIDTH 9 0
BBX 9 17 0 -3
BITMAP
3800
0C00
0000
7F00
6300
6100
6000
6400
7C00
6400
6000
6100
6300
7F00
0000
1800
1800
ENDCHAR
STARTCHAR LtSmlEGraveLdot
ENCODING 57377
SWIDTH 529 0
DWIDTH 9 0
BBX 9 17 0 -3
BITMAP
0000
0000
1800
0C00
0400
0000
1E00
3300
6300
7F00
6000
6000
3300
1E00
0000
0C00
0C00
ENDCHAR
STARTCHAR LtCapGHLmacron
ENCODING 57393
SWIDTH 529 0
DWIDTH 9 0
BBX 9 17 0 -3
BITMAP
0000
0000
0000
3A80
6A80
4280
4280
4380
5B80
5A80
4A80
4A80
7A80
3A80
0000
3E00
3E00
ENDCHAR
STARTCHAR LtMixGHLmacron
ENCODING 57394
SWIDTH 529 0
DWIDTH 9 0
BBX 9 17 0 -3
BITMAP
0000
0000
0000
3A00
6A00
4200
4300
4380
5B80
5A80
4A80
4A80
7A80
3A80
0000
3E00
3E00
ENDCHAR
STARTCHAR LtSmlGHLmacron
ENCODING 57395
SWIDTH 529 0
DWIDTH 9 0
BBX 9 17 0 -3
BITMAP
0000
0000
0000
0200
0200
0200
3B00
6B80
6B80
6A80
3280
6280
3A80
3E80
6400
7F00
3F00
ENDCHAR
STARTCHAR LtCapHLmacron
ENCODING 57396
SWIDTH 529 0
DWIDTH 9 0
BBX 9 17 0 -3
BITMAP
0000
0000
0000
6300
6300
6300
6300
6300
7F00
6300
6300
6300
6300
6300
0000
3E00
3E00
ENDCHAR
STARTCHAR LtSmlILinvbreve
ENCODING 57397
SWIDTH 529 0
DWIDTH 9 0
BBX 9 17 0 -3
BITMAP
0000
0000
0C00
0C00
0000
0000
1C00
0C00
0C00
0C00
0C00
0C00
0C00
3F00
0000
1C00
3600
ENDCHAR
STARTCHAR LtCapKHLmacron
ENCODING 57405
SWIDTH 529 0
DWIDTH 9 0
BBX 9 17 0 -3
BITMAP
0000
0000
0000
6A80
6A80
6A80
6A80
7380
7380
7A80
6A80
6A80
6A80
6A80
0000
3E00
3E00
ENDCHAR
STARTCHAR LtMixKHLmacron
ENCODING 57406
SWIDTH 529 0
DWIDTH 9 0
BBX 9 17 0 -3
BITMAP
0000
0000
0000
6A00
6A00
6A00
6B00
7380
7380
7A80
6A80
6A80
6A80
6A80
0000
3E00
3E00
ENDCHAR
STARTCHAR LtSmlKHLmacron
ENCODING 57407
SWIDTH 529 0
DWIDTH 9 0
BBX 9 17 0 -3
BITMAP
0000
0000
0000
6200
6200
6200
6B00
6B80
6B80
7280
7A80
6A80
6A80
6A80
0000
3E00
3E00
ENDCHAR
STARTCHAR LtSmlLLring
ENCODING 57409
SWIDTH 529 0
DWIDTH 9 0
BBX 9 17 0 -3
BITMAP
0000
0000
0000
1C00
0C00
0C00
0C00
0C00
0C00
0C00
0C00
0C00
0C00
3F00
1C00
3600
1C00
ENDCHAR
STARTCHAR LtSmlLMacronLring
ENCODING 57412
SWIDTH 529 0
DWIDTH 9 0
BBX 9 17 0 -3
BITMAP
3E00
3E00
0000
1C00
0C00
0C00
0C00
0C00
0C00
0C00
0C00
0C00
0C00
3F00
1C00
3600
1C00
ENDCHAR
STARTCHAR LtCapOLmacron
ENCODING 57426
SWIDTH 529 0
DWIDTH 9 0
BBX 9 17 0 -3
BITMAP
0000
0000
0000
3E00
6300
6300
6300
6300
6300
6300
6300
6300
6300
3E00
0000
3E00
3E00
ENDCHAR
STARTCHAR LtSmlOLmacron
ENCODING 57427
SWIDTH 529 0
DWIDTH 9 0
BBX 9 17 0 -3
BITMAP
0000
0000
0000
0000
0000
0000
3E00
6300
6300
6300
6300
6300
6300
3E00
0000
3E00
3E00
ENDCHAR
STARTCHAR LtCapOAcuteLdot
ENCODING 57428
SWIDTH 529 0
DWIDTH 9 0
BBX 9 17 0 -3
BITMAP
0700
0C00
0000
3E00
6300
6300
6300
6300
6300
6300
6300
6300
6300
3E00
0000
1800
1800
ENDCHAR
STARTCHAR LtSmlOAcuteLdot
ENCODING 57429
SWIDTH 529 0
DWIDTH 9 0
BBX 9 17 0 -3
BITMAP
0000
0000
0600
0C00
0800
0000
3E00
6300
6300
6300
6300
6300
6300
3E00
0000
1800
1800
ENDCHAR
STARTCHAR LtSmlOLinvbreve
ENCODING 57430
SWIDTH 529 0
DWIDTH 9 0
BBX 9 17 0 -3
BITMAP
0000
0000
0000
0000
0000
0000
3E00
6300
6300
6300
6300
6300
6300
3E00
0000
1C00
3600
ENDCHAR
STARTCHAR LtCapOGraveLdot
ENCODING 57433
SWIDTH 529 0
DWIDTH 9 0
BBX 9 17 0 -3
BITMAP
3800
0C00
0000
3E00
6300
6300
6300
6300
6300
6300
6300
6300
6300
3E00
0000
1800
1800
ENDCHAR
STARTCHAR LtSmlOGraveLdot
ENCODING 57434
SWIDTH 529 0
DWIDTH 9 0
BBX 9 17 0 -3
BITMAP
0000
0000
3000
1800
0800
0000
3E00
6300
6300
6300
6300
6300
6300
3E00
0000
1800
1800
ENDCHAR
STARTCHAR LtCapPLdot
ENCODING 57437
SWIDTH 529 0
DWIDTH 9 0
BBX 9 17 0 -3
BITMAP
0000
0000
0000
7E00
6300
6300
6300
6300
7E00
6000
6000
6000
6000
6000
0000
6000
6000
ENDCHAR
STARTCHAR LtSmlPLdot
ENCODING 57438
SWIDTH 529 0
DWIDTH 9 0
BBX 9 17 0 -3
BITMAP
0000
0000
0000
0000
0000
0000
6E00
7300
6300
6300
6300
6300
7300
6E00
6000
6C00
6C00
ENDCHAR
STARTCHAR LtCapQLdot
ENCODING 57441
SWIDTH 529 0
DWIDTH 9 0
BBX 9 17 0 -3
BITMAP
0000
0000
0000
3E00
6300
6300
6300
6300
6300
6300
6B00
6B00
6F00
3E00
0300
1900
1800
ENDCHAR
STARTCHAR LtSmlQLdot
ENCODING 57442
SWIDTH 529 0
DWIDTH 9 0
BBX 9 17 0 -3
BITMAP
0000
0000
0000
0000
0000
0000
3B00
6700
6300
6300
6300
6300
6700
3B00
0300
1B00
1B00
ENDCHAR
STARTCHAR LtCapRLring
ENCODING 57443
SWIDTH 529 0
DWIDTH 9 0
BBX 9 17 0 -3
BITMAP
0000
0000
0000
7E00
6300
6300
6300
6300
7E00
6C00
6600
6600
6300
6300
1C00
3600
1C00
ENDCHAR
STARTCHAR LtSmlRLring
ENCODING 57444
SWIDTH 529 0
DWIDTH 9 0
BBX 9 17 0 -3
BITMAP
0000
0000
0000
0000
0000
0000
7700
3B00
3100
3000
3000
3000
3000
3000
3800
6C00
3800
ENDCHAR
STARTCHAR LtSmlRLvline
ENCODING 57445
SWIDTH 529 0
DWIDTH 9 0
BBX 9 17 0 -3
BITMAP
0000
0000
0000
0000
0000
0000
7700
3B00
3100
3000
3000
3000
3000
3000
1800
1800
1800
ENDCHAR
STARTCHAR LtCapRAcuteLdot
ENCODING 57446
SWIDTH 529 0
DWIDTH 9 0
BBX 9 17 0 -3
BITMAP
0E00
1800
0000
7E00
6300
6300
6300
6300
7E00
6C00
6600
6600
6300
6300
0000
1800
1800
ENDCHAR
STARTCHAR LtSmlRAcuteLdot
ENCODING 57447
SWIDTH 529 0
DWIDTH 9 0
BBX 9 17 0 -3
BITMAP
0000
0000
0600
0C00
0800
0000
7700
3B00
3100
3000
3000
3000
3000
3000
0000
3000
3000
ENDCHAR
STARTCHAR LtSmlRAcuteLring
ENCODING 57448
SWIDTH 529 0
DWIDTH 9 0
BBX 9 17 0 -3
BITMAP
0000
0000
0600
0C00
0800
0000
7700
3B00
3100
3000
3000
3000
3000
3000
3800
6C00
3800
ENDCHAR
STARTCHAR LtCapRGraveLdot
ENCODING 57449
SWIDTH 529 0
DWIDTH 9 0
BBX 9 17 0 -3
BITMAP
3800
0C00
0000
7E00
6300
6300
6300
6300
7E00
6C00
6600
6600
6300
6300
0000
1800
1800
ENDCHAR
STARTCHAR LtSmlRGraveLdot
ENCODING 57450
SWIDTH 529 0
DWIDTH 9 0
BBX 9 17 0 -3
BITMAP
0000
0000
3000
1800
0800
0000
7700
3B00
3100
3000
3000
3000
3000
3000
0000
3000
3000
ENDCHAR
STARTCHAR LtSmlRGraveLring
ENCODING 57451
SWIDTH 529 0
DWIDTH 9 0
BBX 9 17 0 -3
BITMAP
0000
0000
3000
1800
0800
0000
7700
3B00
3100
3000
3000
3000
3000
3000
3800
6C00
3800
ENDCHAR
STARTCHAR LtSmlRMacronAcuteLdot
ENCODING 57453
SWIDTH 529 0
DWIDTH 9 0
BBX 9 17 0 -3
BITMAP
0E00
1800
0000
3E00
3E00
0000
7700
3B00
3100
3000
3000
3000
3000
3000
0000
3000
3000
ENDCHAR
STARTCHAR LtSmlRMacronLring
ENCODING 57454
SWIDTH 529 0
DWIDTH 9 0
BBX 9 17 0 -3
BITMAP
0000
0000
0000
3E00
3E00
0000
7700
3B00
3100
3000
3000
3000
3000
3000
3800
6C00
3800
ENDCHAR
STARTCHAR LtSmlRMacronAcuteLring
ENCODING 57455
SWIDTH 529 0
DWIDTH 9 0
BBX 9 17 0 -3
BITMAP
0E00
1800
0000
3E00
3E00
0000
7700
3B00
3100
3000
3000
3000
3000
3000
3800
6C00
3800
ENDCHAR
STARTCHAR LtSmlULinvbreve
ENCODING 57456
SWIDTH 529 0
DWIDTH 9 0
BBX 9 17 0 -3
BITMAP
0000
0000
0000
0000
0000
0000
6300
6300
6300
6300
6300
6300
6700
3B00
0000
1C00
3600
ENDCHAR
STARTCHAR GkCapIotTrndLbreve
ENCODING 57483
SWIDTH 529 0
DWIDTH 9 0
BBX 9 17 0 -3
BITMAP
0000
0000
0000
3F00
0C00
0C00
0C00
0C00
0C00
0C00
0C00
0C00
0C00
3F00
0000
3300
1E00
ENDCHAR
STARTCHAR GkSmlIotTrndLbreve
ENCODING 57484
SWIDTH 529 0
DWIDTH 9 0
BBX 9 17 0 -3
BITMAP
0000
0000
0000
0000
0000
0000
3800
6C00
0C00
0C00
0C00
0C00
0E00
0C00
0000
3300
1E00
ENDCHAR
STARTCHAR GkCapUpsTrndLbreve
ENCODING 57486
SWIDTH 529 0
DWIDTH 9 0
BBX 9 17 0 -3
BITMAP
0000
0000
0000
0C00
0C00
0C00
0C00
0C00
0E00
1600
1300
2300
2180
6180
0000
3300
1E00
ENDCHAR
STARTCHAR GkSmlUpsTrndLbreve
ENCODING 57487
SWIDTH 529 0
DWIDTH 9 0
BBX 9 17 0 -3
BITMAP
0000
0000
0000
0000
0000
0000
3C00
6600
4600
4600
4600
6600
6700
2300
0000
6600
3C00
ENDCHAR
STARTCHAR GeEnMacron
ENCODING 57493
SWIDTH 529 0
DWIDTH 9 0
BBX 9 17 0 -3
BITMAP
0000
0000
0000
0000
3E00
3E00
0000
1E00
3300
3300
0300
0300
0300
0300
6300
6300
3E00
ENDCHAR
STARTCHAR GeUnCircum
ENCODING 57497
SWIDTH 529 0
DWIDTH 9 0
BBX 9 17 0 -3
BITMAP
0000
0000
0000
0C00
1E00
1200
0000
6F00
7980
1980
1980
0180
0180
0180
3180
3180
1F00
ENDCHAR
STARTCHAR GeUnMacron
ENCODING 57498
SWIDTH 529 0
DWIDTH 9 0
BBX 9 17 0 -3
BITMAP
0000
0000
0000
0000
1F00
1F00
0000
6F00
7980
1980
1980
0180
0180
0180
3180
3180
1F00
ENDCHAR
STARTCHAR GeUnDrss
ENCODING 57499
SWIDTH 529 0
DWIDTH 9 0
BBX 9 17 0 -3
BITMAP
0000
0000
0000
0000
1B00
1B00
0000
6F00
7980
1980
1980
0180
0180
0180
3180
3180
1F00
ENDCHAR
STARTCHAR GeUo
ENCODING 57500
SWIDTH 529 0
DWIDTH 9 0
BBX 9 17 0 -3
BITMAP
0000
0000
0000
0000
0000
0000
0000
3D80
6780
6600
6600
6000
6000
6000
6300
6300
3E00
ENDCHAR
STARTCHAR HbAlefPatah
ENCODING 64302
SWIDTH 529 0
DWIDTH 9 0
BBX 9 17 0 -3
BITMAP
0000
0000
0000
0000
0000
4600
6700
7300
3B00
3E00
6E00
6700
6300
7100
0000
3E00
0000
ENDCHAR
STARTCHAR HbAlefQamats
ENCODING 64303
SWIDTH 529 0
DWIDTH 9 0
BBX 9 17 0 -3
BITMAP
0000
0000
0000
0000
0000
4600
6700
7300
3B00
3E00
6E00
6700
6300
7100
0000
7E00
1800
ENDCHAR
ENDFONT
