STARTFONT 2.1
FONT -opf-uw-ttyp0-medium-r-normal--15-150-75-75-p-150-iso10646-1
SIZE 15 75 75
FONTBOUNDINGBOX 8 15 0 -3
STARTPROPERTIES 19
FONTNAME_REGISTRY ""
FOUNDRY "UW"
FAMILY_NAME "Ttyp0"
WEIGHT_NAME "Medium"
SLANT "I"
SETWIDTH_NAME "Normal"
ADD_STYLE_NAME ""
PIXEL_SIZE 15
POINT_SIZE 140
RESOLUTION_X 75
RESOLUTION_Y 75
SPACING "C"
AVERAGE_WIDTH 80
CHARSET_REGISTRY "ISO10646"
CHARSET_ENCODING "1"
DEFAULT_CHAR 0
FONT_DESCENT 3
FONT_ASCENT 12
COPYRIGHT "Copyright (C) 2012-2015 Uwe Waldmann"
ENDPROPERTIES
CHARS 234
STARTCHAR CombLdot
ENCODING 803
SWIDTH 533 0
DWIDTH 8 0
BBX 8 15 0 -3
BITMAP
00
00
00
00
00
00
00
00
00
00
00
00
00
20
20
ENDCHAR
STARTCHAR CombLdrss
ENCODING 804
SWIDTH 533 0
DWIDTH 8 0
BBX 8 15 0 -3
BITMAP
00
00
00
00
00
00
00
00
00
00
00
00
00
48
48
ENDCHAR
STARTCHAR CombLvline
ENCODING 809
SWIDTH 533 0
DWIDTH 8 0
BBX 8 15 0 -3
BITMAP
00
00
00
00
00
00
00
00
00
00
00
00
20
20
20
ENDCHAR
STARTCHAR CombLcaron
ENCODING 812
SWIDTH 533 0
DWIDTH 8 0
BBX 8 15 0 -3
BITMAP
00
00
00
00
00
00
00
00
00
00
00
00
00
48
30
ENDCHAR
STARTCHAR CombLcircum
ENCODING 813
SWIDTH 533 0
DWIDTH 8 0
BBX 8 15 0 -3
BITMAP
00
00
00
00
00
00
00
00
00
00
00
00
00
30
48
ENDCHAR
STARTCHAR CombLbreve
ENCODING 814
SWIDTH 533 0
DWIDTH 8 0
BBX 8 15 0 -3
BITMAP
00
00
00
00
00
00
00
00
00
00
00
00
00
48
30
ENDCHAR
STARTCHAR CombLinvbreve
ENCODING 815
SWIDTH 533 0
DWIDTH 8 0
BBX 8 15 0 -3
BITMAP
00
00
00
00
00
00
00
00
00
00
00
00
00
30
48
ENDCHAR
STARTCHAR CombLtilde
ENCODING 816
SWIDTH 533 0
DWIDTH 8 0
BBX 8 15 0 -3
BITMAP
00
00
00
00
00
00
00
00
00
00
00
00
00
48
B0
ENDCHAR
STARTCHAR CombLmacron
ENCODING 817
SWIDTH 533 0
DWIDTH 8 0
BBX 8 15 0 -3
BITMAP
00
00
00
00
00
00
00
00
00
00
00
00
00
00
78
ENDCHAR
STARTCHAR CombLvline2
ENCODING 840
SWIDTH 533 0
DWIDTH 8 0
BBX 8 15 0 -3
BITMAP
00
00
00
00
00
00
00
00
00
00
00
00
48
48
48
ENDCHAR
STARTCHAR AmSmlEh
ENCODING 1383
SWIDTH 533 0
DWIDTH 8 0
BBX 8 15 0 -3
BITMAP
00
00
10
10
10
20
3E
20
20
40
40
38
04
08
00
ENDCHAR
STARTCHAR AmSmlYi
ENCODING 1397
SWIDTH 533 0
DWIDTH 8 0
BBX 8 15 0 -3
BITMAP
00
00
00
00
00
00
1C
08
08
08
10
10
10
20
C0
ENDCHAR
STARTCHAR AmSmlSha
ENCODING 1399
SWIDTH 533 0
DWIDTH 8 0
BBX 8 15 0 -3
BITMAP
00
00
00
00
00
00
1C
22
04
08
10
20
40
80
78
ENDCHAR
STARTCHAR AmSmlCha
ENCODING 1401
SWIDTH 533 0
DWIDTH 8 0
BBX 8 15 0 -3
BITMAP
00
00
00
00
00
00
08
10
08
08
10
20
40
80
78
ENDCHAR
STARTCHAR AmSmlJheh
ENCODING 1403
SWIDTH 533 0
DWIDTH 8 0
BBX 8 15 0 -3
BITMAP
00
00
06
09
09
11
12
12
14
18
10
20
40
80
78
ENDCHAR
STARTCHAR AmSmlCo
ENCODING 1409
SWIDTH 533 0
DWIDTH 8 0
BBX 8 15 0 -3
BITMAP
00
00
00
00
00
00
1E
22
22
44
4C
34
08
88
F0
ENDCHAR
STARTCHAR AmSmlKeh
ENCODING 1412
SWIDTH 533 0
DWIDTH 8 0
BBX 8 15 0 -3
BITMAP
00
00
00
00
00
00
3C
22
22
22
44
78
80
F8
80
ENDCHAR
STARTCHAR CombHbHatafQamats
ENCODING 1459
SWIDTH 533 0
DWIDTH 8 0
BBX 8 15 0 -3
BITMAP
00
00
00
00
00
00
00
00
00
00
00
00
06
70
26
ENDCHAR
STARTCHAR CombHbSegol
ENCODING 1462
SWIDTH 533 0
DWIDTH 8 0
BBX 8 15 0 -3
BITMAP
00
00
00
00
00
00
00
00
00
00
00
00
00
66
18
ENDCHAR
STARTCHAR CombHbPatah
ENCODING 1463
SWIDTH 533 0
DWIDTH 8 0
BBX 8 15 0 -3
BITMAP
00
00
00
00
00
00
00
00
00
00
00
00
00
7C
00
ENDCHAR
STARTCHAR CombHbQamats
ENCODING 1464
SWIDTH 533 0
DWIDTH 8 0
BBX 8 15 0 -3
BITMAP
00
00
00
00
00
00
00
00
00
00
00
00
00
38
10
ENDCHAR
STARTCHAR CombHbMeteg
ENCODING 1469
SWIDTH 533 0
DWIDTH 8 0
BBX 8 15 0 -3
BITMAP
00
00
00
00
00
00
00
00
00
00
00
00
10
10
10
ENDCHAR
STARTCHAR ThYoYing
ENCODING 3597
SWIDTH 533 0
DWIDTH 8 0
BBX 8 15 0 -3
BITMAP
00
00
00
00
00
32
4A
52
54
94
A4
98
00
48
30
ENDCHAR
STARTCHAR ThDoChada
ENCODING 3598
SWIDTH 533 0
DWIDTH 8 0
BBX 8 15 0 -3
BITMAP
00
00
00
00
00
3C
42
62
24
44
C4
C8
08
08
70
ENDCHAR
STARTCHAR ThToPatak
ENCODING 3599
SWIDTH 533 0
DWIDTH 8 0
BBX 8 15 0 -3
BITMAP
00
00
00
00
00
3C
42
62
24
44
C4
C8
08
A8
F0
ENDCHAR
STARTCHAR ThThoThan
ENCODING 3600
SWIDTH 533 0
DWIDTH 8 0
BBX 8 15 0 -3
BITMAP
00
00
00
00
00
7E
08
04
34
3C
08
08
00
A8
F0
ENDCHAR
STARTCHAR ThRu
ENCODING 3620
SWIDTH 533 0
DWIDTH 8 0
BBX 8 15 0 -3
BITMAP
00
00
00
00
00
3C
42
62
22
44
64
64
08
08
08
ENDCHAR
STARTCHAR ThLu
ENCODING 3622
SWIDTH 533 0
DWIDTH 8 0
BBX 8 15 0 -3
BITMAP
00
00
00
00
00
3C
42
62
22
44
C4
C4
08
08
08
ENDCHAR
STARTCHAR ThSaraU
ENCODING 3640
SWIDTH 533 0
DWIDTH 8 0
BBX 8 15 0 -3
BITMAP
00
00
00
00
00
00
00
00
00
00
00
00
00
18
08
ENDCHAR
STARTCHAR ThSaraUu
ENCODING 3641
SWIDTH 533 0
DWIDTH 8 0
BBX 8 15 0 -3
BITMAP
00
00
00
00
00
00
00
00
00
00
00
00
00
68
38
ENDCHAR
STARTCHAR ThPhinthu
ENCODING 3642
SWIDTH 533 0
DWIDTH 8 0
BBX 8 15 0 -3
BITMAP
00
00
00
00
00
00
00
00
00
00
00
00
00
18
18
ENDCHAR
STARTCHAR ThLakkhangyao
ENCODING 3653
SWIDTH 533 0
DWIDTH 8 0
BBX 8 15 0 -3
BITMAP
00
00
00
00
00
18
24
04
04
08
08
08
10
10
10
ENDCHAR
STARTCHAR ThMaiyamok
ENCODING 3654
SWIDTH 533 0
DWIDTH 8 0
BBX 8 15 0 -3
BITMAP
00
00
00
00
00
34
4A
62
62
04
04
04
08
08
10
ENDCHAR
STARTCHAR GeGan
ENCODING 4306
SWIDTH 533 0
DWIDTH 8 0
BBX 8 15 0 -3
BITMAP
00
00
00
00
00
00
38
44
08
38
44
84
84
88
70
ENDCHAR
STARTCHAR GeDon
ENCODING 4307
SWIDTH 533 0
DWIDTH 8 0
BBX 8 15 0 -3
BITMAP
00
00
00
00
00
00
1C
22
42
42
44
38
20
F8
04
ENDCHAR
STARTCHAR GeEn
ENCODING 4308
SWIDTH 533 0
DWIDTH 8 0
BBX 8 15 0 -3
BITMAP
00
00
00
00
00
00
1C
22
22
02
04
04
88
88
F0
ENDCHAR
STARTCHAR GeVin
ENCODING 4309
SWIDTH 533 0
DWIDTH 8 0
BBX 8 15 0 -3
BITMAP
00
00
00
00
00
00
1C
22
22
0C
04
04
88
88
F0
ENDCHAR
STARTCHAR GeKan
ENCODING 4313
SWIDTH 533 0
DWIDTH 8 0
BBX 8 15 0 -3
BITMAP
00
00
00
00
00
00
02
02
04
18
04
04
88
88
F0
ENDCHAR
STARTCHAR GeLas
ENCODING 4314
SWIDTH 533 0
DWIDTH 8 0
BBX 8 15 0 -3
BITMAP
00
00
00
00
00
00
1C
22
42
42
40
20
70
88
04
ENDCHAR
STARTCHAR GeZhar
ENCODING 4319
SWIDTH 533 0
DWIDTH 8 0
BBX 8 15 0 -3
BITMAP
00
00
00
00
00
00
06
6A
4A
54
24
04
88
88
F0
ENDCHAR
STARTCHAR GeTar
ENCODING 4322
SWIDTH 533 0
DWIDTH 8 0
BBX 8 15 0 -3
BITMAP
00
00
00
00
00
0C
14
3C
2A
42
82
82
84
88
78
ENDCHAR
STARTCHAR GeUn
ENCODING 4323
SWIDTH 533 0
DWIDTH 8 0
BBX 8 15 0 -3
BITMAP
00
00
00
00
00
00
4C
72
12
24
04
04
88
88
F0
ENDCHAR
STARTCHAR GePhar
ENCODING 4324
SWIDTH 533 0
DWIDTH 8 0
BBX 8 15 0 -3
BITMAP
00
00
00
00
00
00
36
49
49
52
26
02
42
44
78
ENDCHAR
STARTCHAR GeKhar
ENCODING 4325
SWIDTH 533 0
DWIDTH 8 0
BBX 8 15 0 -3
BITMAP
00
00
01
03
01
02
02
1E
22
04
04
04
88
88
F0
ENDCHAR
STARTCHAR GeGhan
ENCODING 4326
SWIDTH 533 0
DWIDTH 8 0
BBX 8 15 0 -3
BITMAP
00
00
00
00
00
00
36
49
49
92
82
80
60
98
04
ENDCHAR
STARTCHAR GeQar
ENCODING 4327
SWIDTH 533 0
DWIDTH 8 0
BBX 8 15 0 -3
BITMAP
00
00
00
00
00
00
22
22
42
44
3C
04
88
88
F0
ENDCHAR
STARTCHAR GeCan
ENCODING 4330
SWIDTH 533 0
DWIDTH 8 0
BBX 8 15 0 -3
BITMAP
00
00
00
00
00
00
24
26
42
42
8C
84
84
88
70
ENDCHAR
STARTCHAR GeCil
ENCODING 4332
SWIDTH 533 0
DWIDTH 8 0
BBX 8 15 0 -3
BITMAP
00
00
1B
25
29
2A
20
3E
22
24
24
28
30
30
20
ENDCHAR
STARTCHAR GeChar
ENCODING 4333
SWIDTH 533 0
DWIDTH 8 0
BBX 8 15 0 -3
BITMAP
00
00
08
04
02
02
04
36
5C
6A
08
08
90
90
E0
ENDCHAR
STARTCHAR GeWe
ENCODING 4339
SWIDTH 533 0
DWIDTH 8 0
BBX 8 15 0 -3
BITMAP
00
00
00
00
00
00
3E
04
08
10
38
04
84
88
F8
ENDCHAR
STARTCHAR GeHar
ENCODING 4340
SWIDTH 533 0
DWIDTH 8 0
BBX 8 15 0 -3
BITMAP
00
00
04
08
10
10
0E
04
08
10
38
04
84
88
F0
ENDCHAR
STARTCHAR GeFi
ENCODING 4342
SWIDTH 533 0
DWIDTH 8 0
BBX 8 15 0 -3
BITMAP
00
00
00
00
00
00
14
2A
4A
52
54
18
20
20
C0
ENDCHAR
STARTCHAR GeYn
ENCODING 4343
SWIDTH 533 0
DWIDTH 8 0
BBX 8 15 0 -3
BITMAP
00
00
00
00
00
00
1C
22
22
0C
30
40
88
88
70
ENDCHAR
STARTCHAR GeElifi
ENCODING 4344
SWIDTH 533 0
DWIDTH 8 0
BBX 8 15 0 -3
BITMAP
00
00
00
00
00
00
22
22
22
44
78
40
88
88
70
ENDCHAR
STARTCHAR GeGanTrnd
ENCODING 4345
SWIDTH 533 0
DWIDTH 8 0
BBX 8 15 0 -3
BITMAP
00
00
00
00
00
00
1C
22
42
42
44
38
20
44
38
ENDCHAR
STARTCHAR LtCapALring
ENCODING 7680
SWIDTH 533 0
DWIDTH 8 0
BBX 8 15 0 -3
BITMAP
00
00
0C
0C
14
14
24
24
7C
44
84
84
20
50
20
ENDCHAR
STARTCHAR LtSmlALring
ENCODING 7681
SWIDTH 533 0
DWIDTH 8 0
BBX 8 15 0 -3
BITMAP
00
00
00
00
00
1E
22
22
44
44
4C
32
10
28
10
ENDCHAR
STARTCHAR LtCapBLdot
ENCODING 7684
SWIDTH 533 0
DWIDTH 8 0
BBX 8 15 0 -3
BITMAP
00
00
1E
11
11
22
3C
22
22
42
44
78
00
20
20
ENDCHAR
STARTCHAR LtSmlBLdot
ENCODING 7685
SWIDTH 533 0
DWIDTH 8 0
BBX 8 15 0 -3
BITMAP
00
00
30
10
10
2C
32
22
22
44
44
38
00
20
20
ENDCHAR
STARTCHAR LtCapBLmacron
ENCODING 7686
SWIDTH 533 0
DWIDTH 8 0
BBX 8 15 0 -3
BITMAP
00
00
1E
11
11
22
3C
22
22
42
44
78
00
00
78
ENDCHAR
STARTCHAR LtSmlBLmacron
ENCODING 7687
SWIDTH 533 0
DWIDTH 8 0
BBX 8 15 0 -3
BITMAP
00
00
30
10
10
2C
32
22
22
44
44
38
00
00
78
ENDCHAR
STARTCHAR LtCapDLdot
ENCODING 7692
SWIDTH 533 0
DWIDTH 8 0
BBX 8 15 0 -3
BITMAP
00
00
3C
22
22
42
42
42
44
84
88
F0
00
40
40
ENDCHAR
STARTCHAR LtSmlDLdot
ENCODING 7693
SWIDTH 533 0
DWIDTH 8 0
BBX 8 15 0 -3
BITMAP
00
00
01
01
01
1E
22
22
42
44
4C
32
00
10
10
ENDCHAR
STARTCHAR LtCapDLmacron
ENCODING 7694
SWIDTH 533 0
DWIDTH 8 0
BBX 8 15 0 -3
BITMAP
00
00
3C
22
22
42
42
42
44
84
88
F0
00
00
F0
ENDCHAR
STARTCHAR LtSmlDLmacron
ENCODING 7695
SWIDTH 533 0
DWIDTH 8 0
BBX 8 15 0 -3
BITMAP
00
00
01
01
01
1E
22
22
42
44
4C
32
00
00
78
ENDCHAR
STARTCHAR LtCapDLcircum
ENCODING 7698
SWIDTH 533 0
DWIDTH 8 0
BBX 8 15 0 -3
BITMAP
00
00
3C
22
22
42
42
42
44
84
88
F0
00
60
90
ENDCHAR
STARTCHAR LtSmlDLcircum
ENCODING 7699
SWIDTH 533 0
DWIDTH 8 0
BBX 8 15 0 -3
BITMAP
00
00
01
01
01
1E
22
22
42
44
4C
32
00
30
48
ENDCHAR
STARTCHAR LtCapELcircum
ENCODING 7704
SWIDTH 533 0
DWIDTH 8 0
BBX 8 15 0 -3
BITMAP
00
00
1F
10
10
20
3C
20
20
40
40
7C
00
30
48
ENDCHAR
STARTCHAR LtSmlELcircum
ENCODING 7705
SWIDTH 533 0
DWIDTH 8 0
BBX 8 15 0 -3
BITMAP
00
00
00
00
00
1C
22
24
78
40
44
38
00
30
48
ENDCHAR
STARTCHAR LtCapELtilde
ENCODING 7706
SWIDTH 533 0
DWIDTH 8 0
BBX 8 15 0 -3
BITMAP
00
00
1F
10
10
20
3C
20
20
40
40
7C
00
24
58
ENDCHAR
STARTCHAR LtSmlELtilde
ENCODING 7707
SWIDTH 533 0
DWIDTH 8 0
BBX 8 15 0 -3
BITMAP
00
00
00
00
00
1C
22
24
78
40
44
38
00
24
58
ENDCHAR
STARTCHAR LtCapHLdot
ENCODING 7716
SWIDTH 533 0
DWIDTH 8 0
BBX 8 15 0 -3
BITMAP
00
00
21
21
21
42
7E
42
42
84
84
84
00
20
20
ENDCHAR
STARTCHAR LtSmlHLdot
ENCODING 7717
SWIDTH 533 0
DWIDTH 8 0
BBX 8 15 0 -3
BITMAP
00
00
30
10
10
2E
32
22
22
44
44
46
00
10
10
ENDCHAR
STARTCHAR LtCapHLbreve
ENCODING 7722
SWIDTH 533 0
DWIDTH 8 0
BBX 8 15 0 -3
BITMAP
00
00
21
21
21
42
7E
42
42
84
84
84
00
48
30
ENDCHAR
STARTCHAR LtSmlHLbreve
ENCODING 7723
SWIDTH 533 0
DWIDTH 8 0
BBX 8 15 0 -3
BITMAP
00
00
30
10
10
2E
32
22
22
44
44
46
00
48
30
ENDCHAR
STARTCHAR LtCapILtilde
ENCODING 7724
SWIDTH 533 0
DWIDTH 8 0
BBX 8 15 0 -3
BITMAP
00
00
1F
04
04
08
08
08
08
10
10
7C
00
24
58
ENDCHAR
STARTCHAR LtSmlILtilde
ENCODING 7725
SWIDTH 533 0
DWIDTH 8 0
BBX 8 15 0 -3
BITMAP
00
00
04
04
00
0C
18
08
08
10
12
1C
00
24
58
ENDCHAR
STARTCHAR LtCapKLdot
ENCODING 7730
SWIDTH 533 0
DWIDTH 8 0
BBX 8 15 0 -3
BITMAP
00
00
21
22
24
48
70
50
48
88
84
84
00
20
20
ENDCHAR
STARTCHAR LtSmlKLdot
ENCODING 7731
SWIDTH 533 0
DWIDTH 8 0
BBX 8 15 0 -3
BITMAP
00
00
10
10
10
2E
32
22
3C
48
44
42
00
10
10
ENDCHAR
STARTCHAR LtCapKLmacron
ENCODING 7732
SWIDTH 533 0
DWIDTH 8 0
BBX 8 15 0 -3
BITMAP
00
00
21
22
24
48
70
50
48
88
84
84
00
00
F0
ENDCHAR
STARTCHAR LtSmlKLmacron
ENCODING 7733
SWIDTH 533 0
DWIDTH 8 0
BBX 8 15 0 -3
BITMAP
00
00
10
10
10
2E
32
22
3C
48
44
42
00
00
78
ENDCHAR
STARTCHAR LtCapLLdot
ENCODING 7734
SWIDTH 533 0
DWIDTH 8 0
BBX 8 15 0 -3
BITMAP
00
00
10
10
10
20
20
20
20
40
40
7C
00
20
20
ENDCHAR
STARTCHAR LtSmlLLdot
ENCODING 7735
SWIDTH 533 0
DWIDTH 8 0
BBX 8 15 0 -3
BITMAP
00
00
0C
04
04
08
08
08
08
10
14
18
00
10
10
ENDCHAR
STARTCHAR LtCapLMacronLdot
ENCODING 7736
SWIDTH 533 0
DWIDTH 8 0
BBX 8 15 0 -3
BITMAP
0F
00
10
10
10
20
20
20
20
40
40
7C
00
20
20
ENDCHAR
STARTCHAR LtSmlLMacronLdot
ENCODING 7737
SWIDTH 533 0
DWIDTH 8 0
BBX 8 15 0 -3
BITMAP
0F
00
0C
04
04
08
08
08
08
10
14
18
00
10
10
ENDCHAR
STARTCHAR LtCapLLmacron
ENCODING 7738
SWIDTH 533 0
DWIDTH 8 0
BBX 8 15 0 -3
BITMAP
00
00
10
10
10
20
20
20
20
40
40
7C
00
00
F0
ENDCHAR
STARTCHAR LtSmlLLmacron
ENCODING 7739
SWIDTH 533 0
DWIDTH 8 0
BBX 8 15 0 -3
BITMAP
00
00
0C
04
04
08
08
08
08
10
14
18
00
00
78
ENDCHAR
STARTCHAR LtCapLLcircum
ENCODING 7740
SWIDTH 533 0
DWIDTH 8 0
BBX 8 15 0 -3
BITMAP
00
00
10
10
10
20
20
20
20
40
40
7C
00
30
48
ENDCHAR
STARTCHAR LtSmlLLcircum
ENCODING 7741
SWIDTH 533 0
DWIDTH 8 0
BBX 8 15 0 -3
BITMAP
00
00
0C
04
04
08
08
08
08
10
14
18
00
18
24
ENDCHAR
STARTCHAR LtCapMLdot
ENCODING 7746
SWIDTH 533 0
DWIDTH 8 0
BBX 8 15 0 -3
BITMAP
00
00
21
21
33
56
5A
5A
42
84
84
84
00
20
20
ENDCHAR
STARTCHAR LtSmlMLdot
ENCODING 7747
SWIDTH 533 0
DWIDTH 8 0
BBX 8 15 0 -3
BITMAP
00
00
00
00
00
B7
49
49
49
92
92
93
00
20
20
ENDCHAR
STARTCHAR LtCapNLdot
ENCODING 7750
SWIDTH 533 0
DWIDTH 8 0
BBX 8 15 0 -3
BITMAP
00
00
21
21
31
52
52
4A
4A
8C
84
84
00
20
20
ENDCHAR
STARTCHAR LtSmlNLdot
ENCODING 7751
SWIDTH 533 0
DWIDTH 8 0
BBX 8 15 0 -3
BITMAP
00
00
00
00
00
6E
32
22
22
44
44
46
00
10
10
ENDCHAR
STARTCHAR LtCapNLmacron
ENCODING 7752
SWIDTH 533 0
DWIDTH 8 0
BBX 8 15 0 -3
BITMAP
00
00
21
21
31
52
52
4A
4A
8C
84
84
00
00
F0
ENDCHAR
STARTCHAR LtSmlNLmacron
ENCODING 7753
SWIDTH 533 0
DWIDTH 8 0
BBX 8 15 0 -3
BITMAP
00
00
00
00
00
6E
32
22
22
44
44
46
00
00
78
ENDCHAR
STARTCHAR LtCapNLcircum
ENCODING 7754
SWIDTH 533 0
DWIDTH 8 0
BBX 8 15 0 -3
BITMAP
00
00
21
21
31
52
52
4A
4A
8C
84
84
00
30
48
ENDCHAR
STARTCHAR LtSmlNLcircum
ENCODING 7755
SWIDTH 533 0
DWIDTH 8 0
BBX 8 15 0 -3
BITMAP
00
00
00
00
00
6E
32
22
22
44
44
46
00
30
48
ENDCHAR
STARTCHAR LtCapRLdot
ENCODING 7770
SWIDTH 533 0
DWIDTH 8 0
BBX 8 15 0 -3
BITMAP
00
00
1E
11
11
22
3C
30
28
48
44
44
00
20
20
ENDCHAR
STARTCHAR LtSmlRLdot
ENCODING 7771
SWIDTH 533 0
DWIDTH 8 0
BBX 8 15 0 -3
BITMAP
00
00
00
00
00
16
3A
10
10
20
20
20
00
40
40
ENDCHAR
STARTCHAR LtCapRMacronLdot
ENCODING 7772
SWIDTH 533 0
DWIDTH 8 0
BBX 8 15 0 -3
BITMAP
0F
00
1E
11
11
22
3C
30
28
48
44
44
00
20
20
ENDCHAR
STARTCHAR LtSmlRMacronLdot
ENCODING 7773
SWIDTH 533 0
DWIDTH 8 0
BBX 8 15 0 -3
BITMAP
00
00
1E
00
00
16
3A
10
10
20
20
20
00
40
40
ENDCHAR
STARTCHAR LtCapRLmacron
ENCODING 7774
SWIDTH 533 0
DWIDTH 8 0
BBX 8 15 0 -3
BITMAP
00
00
1E
11
11
22
3C
30
28
48
44
44
00
00
F0
ENDCHAR
STARTCHAR LtSmlRLmacron
ENCODING 7775
SWIDTH 533 0
DWIDTH 8 0
BBX 8 15 0 -3
BITMAP
00
00
00
00
00
16
3A
10
10
20
20
20
00
00
F0
ENDCHAR
STARTCHAR LtCapSLdot
ENCODING 7778
SWIDTH 533 0
DWIDTH 8 0
BBX 8 15 0 -3
BITMAP
00
00
1E
21
20
20
10
08
04
04
84
78
00
20
20
ENDCHAR
STARTCHAR LtSmlSLdot
ENCODING 7779
SWIDTH 533 0
DWIDTH 8 0
BBX 8 15 0 -3
BITMAP
00
00
00
00
00
1C
22
20
18
04
44
38
00
20
20
ENDCHAR
STARTCHAR LtCapSDotLdot
ENCODING 7784
SWIDTH 533 0
DWIDTH 8 0
BBX 8 15 0 -3
BITMAP
04
04
00
1E
21
20
20
18
04
04
84
78
00
20
20
ENDCHAR
STARTCHAR LtSmlSDotLdot
ENCODING 7785
SWIDTH 533 0
DWIDTH 8 0
BBX 8 15 0 -3
BITMAP
00
00
08
08
00
1C
22
20
18
04
44
38
00
20
20
ENDCHAR
STARTCHAR LtCapTLdot
ENCODING 7788
SWIDTH 533 0
DWIDTH 8 0
BBX 8 15 0 -3
BITMAP
00
00
7F
08
08
10
10
10
10
20
20
20
00
40
40
ENDCHAR
STARTCHAR LtSmlTLdot
ENCODING 7789
SWIDTH 533 0
DWIDTH 8 0
BBX 8 15 0 -3
BITMAP
00
00
00
08
08
3E
08
10
10
10
24
18
00
10
10
ENDCHAR
STARTCHAR LtCapTLmacron
ENCODING 7790
SWIDTH 533 0
DWIDTH 8 0
BBX 8 15 0 -3
BITMAP
00
00
7F
08
08
10
10
10
10
20
20
20
00
00
F0
ENDCHAR
STARTCHAR LtSmlTLmacron
ENCODING 7791
SWIDTH 533 0
DWIDTH 8 0
BBX 8 15 0 -3
BITMAP
00
00
00
08
08
3E
08
10
10
10
24
18
00
00
3C
ENDCHAR
STARTCHAR LtCapTLcircum
ENCODING 7792
SWIDTH 533 0
DWIDTH 8 0
BBX 8 15 0 -3
BITMAP
00
00
7F
08
08
10
10
10
10
20
20
20
00
60
90
ENDCHAR
STARTCHAR LtSmlTLcircum
ENCODING 7793
SWIDTH 533 0
DWIDTH 8 0
BBX 8 15 0 -3
BITMAP
00
00
00
08
08
3E
08
10
10
10
24
18
00
30
48
ENDCHAR
STARTCHAR LtCapULdrss
ENCODING 7794
SWIDTH 533 0
DWIDTH 8 0
BBX 8 15 0 -3
BITMAP
00
00
21
21
41
42
42
42
82
84
84
78
00
48
48
ENDCHAR
STARTCHAR LtSmlULdrss
ENCODING 7795
SWIDTH 533 0
DWIDTH 8 0
BBX 8 15 0 -3
BITMAP
00
00
00
00
00
62
22
22
42
44
4C
32
00
48
48
ENDCHAR
STARTCHAR LtCapULtilde
ENCODING 7796
SWIDTH 533 0
DWIDTH 8 0
BBX 8 15 0 -3
BITMAP
00
00
21
21
41
42
42
42
82
84
84
78
00
48
B0
ENDCHAR
STARTCHAR LtSmlULtilde
ENCODING 7797
SWIDTH 533 0
DWIDTH 8 0
BBX 8 15 0 -3
BITMAP
00
00
00
00
00
62
22
22
42
44
4C
32
00
24
58
ENDCHAR
STARTCHAR LtCapULcircum
ENCODING 7798
SWIDTH 533 0
DWIDTH 8 0
BBX 8 15 0 -3
BITMAP
00
00
21
21
41
42
42
42
82
84
84
78
00
60
90
ENDCHAR
STARTCHAR LtSmlULcircum
ENCODING 7799
SWIDTH 533 0
DWIDTH 8 0
BBX 8 15 0 -3
BITMAP
00
00
00
00
00
62
22
22
42
44
4C
32
00
30
48
ENDCHAR
STARTCHAR LtCapVLdot
ENCODING 7806
SWIDTH 533 0
DWIDTH 8 0
BBX 8 15 0 -3
BITMAP
00
00
21
21
22
22
24
24
28
28
30
30
00
20
20
ENDCHAR
STARTCHAR LtSmlVLdot
ENCODING 7807
SWIDTH 533 0
DWIDTH 8 0
BBX 8 15 0 -3
BITMAP
00
00
00
00
00
62
22
22
22
24
28
30
00
20
20
ENDCHAR
STARTCHAR LtCapWLdot
ENCODING 7816
SWIDTH 533 0
DWIDTH 8 0
BBX 8 15 0 -3
BITMAP
00
00
21
21
21
22
2A
5A
6A
6C
44
44
00
10
10
ENDCHAR
STARTCHAR LtSmlWLdot
ENCODING 7817
SWIDTH 533 0
DWIDTH 8 0
BBX 8 15 0 -3
BITMAP
00
00
00
00
00
61
21
41
49
5A
66
44
00
10
10
ENDCHAR
STARTCHAR LtCapZLdot
ENCODING 7826
SWIDTH 533 0
DWIDTH 8 0
BBX 8 15 0 -3
BITMAP
00
00
3F
01
02
04
08
10
20
40
80
FC
00
20
20
ENDCHAR
STARTCHAR LtSmlZLdot
ENCODING 7827
SWIDTH 533 0
DWIDTH 8 0
BBX 8 15 0 -3
BITMAP
00
00
00
00
00
1D
22
04
08
10
20
52
0C
20
20
ENDCHAR
STARTCHAR LtCapZLmacron
ENCODING 7828
SWIDTH 533 0
DWIDTH 8 0
BBX 8 15 0 -3
BITMAP
00
00
3F
01
02
04
08
10
20
40
80
FC
00
00
F0
ENDCHAR
STARTCHAR LtSmlZLmacron
ENCODING 7829
SWIDTH 533 0
DWIDTH 8 0
BBX 8 15 0 -3
BITMAP
00
00
00
00
00
1D
22
04
08
10
20
52
0C
00
78
ENDCHAR
STARTCHAR LtSmlHLmacron
ENCODING 7830
SWIDTH 533 0
DWIDTH 8 0
BBX 8 15 0 -3
BITMAP
00
00
30
10
10
2E
32
22
22
44
44
46
00
00
78
ENDCHAR
STARTCHAR LtCapALdot
ENCODING 7840
SWIDTH 533 0
DWIDTH 8 0
BBX 8 15 0 -3
BITMAP
00
00
0C
0C
14
14
24
24
7C
44
84
84
00
20
20
ENDCHAR
STARTCHAR LtSmlALdot
ENCODING 7841
SWIDTH 533 0
DWIDTH 8 0
BBX 8 15 0 -3
BITMAP
00
00
00
00
00
1E
22
22
44
44
4C
32
00
10
10
ENDCHAR
STARTCHAR LtCapACircumLdot
ENCODING 7852
SWIDTH 533 0
DWIDTH 8 0
BBX 8 15 0 -3
BITMAP
0C
12
00
0C
0C
14
14
24
7C
44
84
84
00
20
20
ENDCHAR
STARTCHAR LtSmlACircumLdot
ENCODING 7853
SWIDTH 533 0
DWIDTH 8 0
BBX 8 15 0 -3
BITMAP
00
00
0C
12
00
1E
22
22
44
44
4C
32
00
10
10
ENDCHAR
STARTCHAR LtCapABreveLdot
ENCODING 7862
SWIDTH 533 0
DWIDTH 8 0
BBX 8 15 0 -3
BITMAP
11
0E
00
0C
0C
14
14
24
7C
44
84
84
00
20
20
ENDCHAR
STARTCHAR LtSmlABreveLdot
ENCODING 7863
SWIDTH 533 0
DWIDTH 8 0
BBX 8 15 0 -3
BITMAP
00
00
12
0C
00
1E
22
22
44
44
4C
32
00
10
10
ENDCHAR
STARTCHAR LtCapELdot
ENCODING 7864
SWIDTH 533 0
DWIDTH 8 0
BBX 8 15 0 -3
BITMAP
00
00
1F
10
10
20
3C
20
20
40
40
7C
00
20
20
ENDCHAR
STARTCHAR LtSmlELdot
ENCODING 7865
SWIDTH 533 0
DWIDTH 8 0
BBX 8 15 0 -3
BITMAP
00
00
00
00
00
1C
22
24
78
40
44
38
00
20
20
ENDCHAR
STARTCHAR LtCapECircumLdot
ENCODING 7878
SWIDTH 533 0
DWIDTH 8 0
BBX 8 15 0 -3
BITMAP
06
09
00
1F
10
10
20
3C
20
40
40
7C
00
20
20
ENDCHAR
STARTCHAR LtSmlECircumLdot
ENCODING 7879
SWIDTH 533 0
DWIDTH 8 0
BBX 8 15 0 -3
BITMAP
00
00
0C
12
00
1C
22
24
78
40
44
38
00
20
20
ENDCHAR
STARTCHAR LtCapILdot
ENCODING 7882
SWIDTH 533 0
DWIDTH 8 0
BBX 8 15 0 -3
BITMAP
00
00
1F
04
04
08
08
08
08
10
10
7C
00
20
20
ENDCHAR
STARTCHAR LtSmlILdot
ENCODING 7883
SWIDTH 533 0
DWIDTH 8 0
BBX 8 15 0 -3
BITMAP
00
00
04
04
00
0C
18
08
08
10
12
1C
00
10
10
ENDCHAR
STARTCHAR LtCapOLdot
ENCODING 7884
SWIDTH 533 0
DWIDTH 8 0
BBX 8 15 0 -3
BITMAP
00
00
0E
11
21
21
41
41
42
42
44
38
00
20
20
ENDCHAR
STARTCHAR LtSmlOLdot
ENCODING 7885
SWIDTH 533 0
DWIDTH 8 0
BBX 8 15 0 -3
BITMAP
00
00
00
00
00
1C
22
22
42
44
44
38
00
20
20
ENDCHAR
STARTCHAR LtCapOCircumLdot
ENCODING 7896
SWIDTH 533 0
DWIDTH 8 0
BBX 8 15 0 -3
BITMAP
06
09
00
0E
11
21
21
41
42
42
44
38
00
20
20
ENDCHAR
STARTCHAR LtSmlOCircumLdot
ENCODING 7897
SWIDTH 533 0
DWIDTH 8 0
BBX 8 15 0 -3
BITMAP
00
00
0C
12
00
1C
22
22
42
44
44
38
00
20
20
ENDCHAR
STARTCHAR LtCapOHornLdot
ENCODING 7906
SWIDTH 533 0
DWIDTH 8 0
BBX 8 15 0 -3
BITMAP
03
01
0E
12
22
22
42
42
44
44
48
30
00
20
20
ENDCHAR
STARTCHAR LtSmlOHornLdot
ENCODING 7907
SWIDTH 533 0
DWIDTH 8 0
BBX 8 15 0 -3
BITMAP
00
00
00
03
01
1E
22
22
42
44
44
38
00
20
20
ENDCHAR
STARTCHAR LtCapULdot
ENCODING 7908
SWIDTH 533 0
DWIDTH 8 0
BBX 8 15 0 -3
BITMAP
00
00
21
21
41
42
42
42
82
84
84
78
00
20
20
ENDCHAR
STARTCHAR LtSmlULdot
ENCODING 7909
SWIDTH 533 0
DWIDTH 8 0
BBX 8 15 0 -3
BITMAP
00
00
00
00
00
62
22
22
42
44
4C
32
00
10
10
ENDCHAR
STARTCHAR LtCapUHornLdot
ENCODING 7920
SWIDTH 533 0
DWIDTH 8 0
BBX 8 15 0 -3
BITMAP
03
01
22
22
42
44
44
44
88
88
88
70
00
40
40
ENDCHAR
STARTCHAR LtSmlUHornLdot
ENCODING 7921
SWIDTH 533 0
DWIDTH 8 0
BBX 8 15 0 -3
BITMAP
00
00
00
03
01
62
22
22
42
44
4C
32
00
10
10
ENDCHAR
STARTCHAR LtCapYLdot
ENCODING 7924
SWIDTH 533 0
DWIDTH 8 0
BBX 8 15 0 -3
BITMAP
00
00
21
21
12
12
14
08
08
10
10
10
00
20
20
ENDCHAR
STARTCHAR LtSmlYLdot
ENCODING 7925
SWIDTH 533 0
DWIDTH 8 0
BBX 8 15 0 -3
BITMAP
00
00
00
00
00
62
22
22
44
44
4C
34
08
4A
72
ENDCHAR
STARTCHAR MArrowU
ENCODING 8593
SWIDTH 533 0
DWIDTH 8 0
BBX 8 15 0 -3
BITMAP
00
08
1C
2A
08
08
08
08
08
08
08
08
08
08
00
ENDCHAR
STARTCHAR MArrowD
ENCODING 8595
SWIDTH 533 0
DWIDTH 8 0
BBX 8 15 0 -3
BITMAP
00
08
08
08
08
08
08
08
08
08
08
2A
1C
08
00
ENDCHAR
STARTCHAR MArrowUD
ENCODING 8597
SWIDTH 533 0
DWIDTH 8 0
BBX 8 15 0 -3
BITMAP
00
08
1C
2A
08
08
08
08
08
08
08
2A
1C
08
00
ENDCHAR
STARTCHAR MArrowLU
ENCODING 8598
SWIDTH 533 0
DWIDTH 8 0
BBX 8 15 0 -3
BITMAP
00
40
70
68
50
50
08
08
04
04
02
02
01
01
00
ENDCHAR
STARTCHAR MArrowRU
ENCODING 8599
SWIDTH 533 0
DWIDTH 8 0
BBX 8 15 0 -3
BITMAP
00
01
07
0B
05
05
08
08
10
10
20
20
40
40
00
ENDCHAR
STARTCHAR MArrowRD
ENCODING 8600
SWIDTH 533 0
DWIDTH 8 0
BBX 8 15 0 -3
BITMAP
00
40
40
20
20
10
10
08
08
05
05
0B
07
01
00
ENDCHAR
STARTCHAR MArrowLD
ENCODING 8601
SWIDTH 533 0
DWIDTH 8 0
BBX 8 15 0 -3
BITMAP
00
01
01
02
02
04
04
08
08
50
50
68
70
40
00
ENDCHAR
STARTCHAR MArrowUu
ENCODING 8607
SWIDTH 533 0
DWIDTH 8 0
BBX 8 15 0 -3
BITMAP
00
08
1C
2A
08
1C
2A
08
08
08
08
08
08
08
00
ENDCHAR
STARTCHAR MArrowDd
ENCODING 8609
SWIDTH 533 0
DWIDTH 8 0
BBX 8 15 0 -3
BITMAP
00
08
08
08
08
08
08
08
2A
1C
08
2A
1C
08
00
ENDCHAR
STARTCHAR MArrowBarU
ENCODING 8613
SWIDTH 533 0
DWIDTH 8 0
BBX 8 15 0 -3
BITMAP
00
08
1C
2A
08
08
08
08
08
08
08
08
08
3E
00
ENDCHAR
STARTCHAR MArrowBarD
ENCODING 8615
SWIDTH 533 0
DWIDTH 8 0
BBX 8 15 0 -3
BITMAP
00
3E
08
08
08
08
08
08
08
08
08
2A
1C
08
00
ENDCHAR
STARTCHAR MArrowUDBase
ENCODING 8616
SWIDTH 533 0
DWIDTH 8 0
BBX 8 15 0 -3
BITMAP
00
08
1C
2A
08
08
08
08
08
08
2A
1C
08
3E
00
ENDCHAR
STARTCHAR MHarpoonUr
ENCODING 8638
SWIDTH 533 0
DWIDTH 8 0
BBX 8 15 0 -3
BITMAP
00
08
0C
0A
08
08
08
08
08
08
08
08
08
08
00
ENDCHAR
STARTCHAR MHarpoonUl
ENCODING 8639
SWIDTH 533 0
DWIDTH 8 0
BBX 8 15 0 -3
BITMAP
00
08
18
28
08
08
08
08
08
08
08
08
08
08
00
ENDCHAR
STARTCHAR MHarpoonDr
ENCODING 8642
SWIDTH 533 0
DWIDTH 8 0
BBX 8 15 0 -3
BITMAP
00
08
08
08
08
08
08
08
08
08
08
0A
0C
08
00
ENDCHAR
STARTCHAR MHarpoonDl
ENCODING 8643
SWIDTH 533 0
DWIDTH 8 0
BBX 8 15 0 -3
BITMAP
00
08
08
08
08
08
08
08
08
08
08
28
18
08
00
ENDCHAR
STARTCHAR MArrowULeftD
ENCODING 8645
SWIDTH 533 0
DWIDTH 8 0
BBX 8 15 0 -3
BITMAP
00
24
74
A4
24
24
24
24
24
24
24
25
2E
24
00
ENDCHAR
STARTCHAR MArrowULeftU
ENCODING 8648
SWIDTH 533 0
DWIDTH 8 0
BBX 8 15 0 -3
BITMAP
00
24
7E
A5
24
24
24
24
24
24
24
24
24
24
00
ENDCHAR
STARTCHAR MArrowDLeftD
ENCODING 8650
SWIDTH 533 0
DWIDTH 8 0
BBX 8 15 0 -3
BITMAP
00
24
24
24
24
24
24
24
24
24
24
A5
7E
24
00
ENDCHAR
STARTCHAR MArrow2U
ENCODING 8657
SWIDTH 533 0
DWIDTH 8 0
BBX 8 15 0 -3
BITMAP
00
08
1C
36
55
14
14
14
14
14
14
14
14
14
00
ENDCHAR
STARTCHAR MArrow2D
ENCODING 8659
SWIDTH 533 0
DWIDTH 8 0
BBX 8 15 0 -3
BITMAP
00
14
14
14
14
14
14
14
14
14
55
36
1C
08
00
ENDCHAR
STARTCHAR MArrow2UD
ENCODING 8661
SWIDTH 533 0
DWIDTH 8 0
BBX 8 15 0 -3
BITMAP
00
08
1C
36
55
14
14
14
14
14
55
36
1C
08
00
ENDCHAR
STARTCHAR PCurlyBrackLTRB
ENCODING 9136
SWIDTH 533 0
DWIDTH 8 0
BBX 8 15 0 -3
BITMAP
03
04
08
08
08
08
08
08
08
08
08
08
08
10
60
ENDCHAR
STARTCHAR PCurlyBrackLBRT
ENCODING 9137
SWIDTH 533 0
DWIDTH 8 0
BBX 8 15 0 -3
BITMAP
60
10
08
08
08
08
08
08
08
08
08
08
08
04
03
ENDCHAR
STARTCHAR MSumT
ENCODING 9138
SWIDTH 533 0
DWIDTH 8 0
BBX 8 15 0 -3
BITMAP
00
7F
40
40
20
20
20
10
10
10
08
08
08
04
04
ENDCHAR
STARTCHAR MRootB
ENCODING 9143
SWIDTH 533 0
DWIDTH 8 0
BBX 8 15 0 -3
BITMAP
08
08
08
08
08
08
08
C8
48
28
28
18
18
08
08
ENDCHAR
STARTCHAR LtSmlATrndLinvbreve
ENCODING 57350
SWIDTH 533 0
DWIDTH 8 0
BBX 8 15 0 -3
BITMAP
00
00
00
00
00
6C
32
22
3C
40
48
38
00
30
48
ENDCHAR
STARTCHAR LtCapCLdot
ENCODING 57356
SWIDTH 533 0
DWIDTH 8 0
BBX 8 15 0 -3
BITMAP
00
00
0E
11
20
20
40
40
40
40
44
38
00
20
20
ENDCHAR
STARTCHAR LtSmlCLdot
ENCODING 57357
SWIDTH 533 0
DWIDTH 8 0
BBX 8 15 0 -3
BITMAP
00
00
00
00
00
1C
22
20
40
40
44
38
00
20
20
ENDCHAR
STARTCHAR LtCapCCaronLdot
ENCODING 57358
SWIDTH 533 0
DWIDTH 8 0
BBX 8 15 0 -3
BITMAP
09
06
00
0E
11
20
20
40
40
40
44
38
00
20
20
ENDCHAR
STARTCHAR LtSmlCCaronLdot
ENCODING 57359
SWIDTH 533 0
DWIDTH 8 0
BBX 8 15 0 -3
BITMAP
00
00
12
0C
00
1C
22
20
40
40
44
38
00
20
20
ENDCHAR
STARTCHAR LtCapELmacron
ENCODING 57370
SWIDTH 533 0
DWIDTH 8 0
BBX 8 15 0 -3
BITMAP
00
00
1F
10
10
20
3C
20
20
40
40
7C
00
00
78
ENDCHAR
STARTCHAR LtSmlELmacron
ENCODING 57371
SWIDTH 533 0
DWIDTH 8 0
BBX 8 15 0 -3
BITMAP
00
00
00
00
00
1C
22
24
78
40
44
38
00
00
78
ENDCHAR
STARTCHAR LtCapEAcuteLdot
ENCODING 57372
SWIDTH 533 0
DWIDTH 8 0
BBX 8 15 0 -3
BITMAP
01
06
00
1F
10
10
20
3C
20
40
40
7C
00
20
20
ENDCHAR
STARTCHAR LtSmlEAcuteLdot
ENCODING 57373
SWIDTH 533 0
DWIDTH 8 0
BBX 8 15 0 -3
BITMAP
00
04
04
08
00
1C
22
24
78
40
44
38
00
20
20
ENDCHAR
STARTCHAR LtCapEGraveLdot
ENCODING 57376
SWIDTH 533 0
DWIDTH 8 0
BBX 8 15 0 -3
BITMAP
08
06
00
1F
10
10
20
3C
20
40
40
7C
00
20
20
ENDCHAR
STARTCHAR LtSmlEGraveLdot
ENCODING 57377
SWIDTH 533 0
DWIDTH 8 0
BBX 8 15 0 -3
BITMAP
00
08
08
04
00
1C
22
24
78
40
44
38
00
20
20
ENDCHAR
STARTCHAR LtCapGHLmacron
ENCODING 57393
SWIDTH 533 0
DWIDTH 8 0
BBX 8 15 0 -3
BITMAP
00
00
15
35
45
45
8E
AA
AA
AA
D4
D4
00
00
78
ENDCHAR
STARTCHAR LtMixGHLmacron
ENCODING 57394
SWIDTH 533 0
DWIDTH 8 0
BBX 8 15 0 -3
BITMAP
00
00
0A
1A
22
47
45
B5
95
AA
AA
6B
00
00
78
ENDCHAR
STARTCHAR LtSmlGHLmacron
ENCODING 57395
SWIDTH 533 0
DWIDTH 8 0
BBX 8 15 0 -3
BITMAP
00
00
02
02
02
37
55
55
95
AA
AA
6B
20
A0
FC
ENDCHAR
STARTCHAR LtCapHLmacron
ENCODING 57396
SWIDTH 533 0
DWIDTH 8 0
BBX 8 15 0 -3
BITMAP
00
00
21
21
21
42
7E
42
42
84
84
84
00
00
F0
ENDCHAR
STARTCHAR LtSmlILinvbreve
ENCODING 57397
SWIDTH 533 0
DWIDTH 8 0
BBX 8 15 0 -3
BITMAP
00
00
04
04
00
0C
18
08
08
10
12
1C
00
18
24
ENDCHAR
STARTCHAR LtCapKHLmacron
ENCODING 57405
SWIDTH 533 0
DWIDTH 8 0
BBX 8 15 0 -3
BITMAP
00
00
2D
2D
55
55
6E
6A
6A
AA
B4
B4
00
00
78
ENDCHAR
STARTCHAR LtMixKHLmacron
ENCODING 57406
SWIDTH 533 0
DWIDTH 8 0
BBX 8 15 0 -3
BITMAP
00
00
2A
2A
2A
57
65
65
55
AA
AA
AB
00
00
78
ENDCHAR
STARTCHAR LtSmlKHLmacron
ENCODING 57407
SWIDTH 533 0
DWIDTH 8 0
BBX 8 15 0 -3
BITMAP
00
00
22
22
22
77
55
55
65
AA
AA
AB
00
00
78
ENDCHAR
STARTCHAR LtSmlLLring
ENCODING 57409
SWIDTH 533 0
DWIDTH 8 0
BBX 8 15 0 -3
BITMAP
00
00
0C
04
04
08
08
08
08
10
14
18
10
28
10
ENDCHAR
STARTCHAR LtSmlLMacronLring
ENCODING 57412
SWIDTH 533 0
DWIDTH 8 0
BBX 8 15 0 -3
BITMAP
0F
00
0C
04
04
08
08
08
08
10
14
18
10
28
10
ENDCHAR
STARTCHAR LtCapOLmacron
ENCODING 57426
SWIDTH 533 0
DWIDTH 8 0
BBX 8 15 0 -3
BITMAP
00
00
0E
11
21
21
41
41
42
42
44
38
00
00
78
ENDCHAR
STARTCHAR LtSmlOLmacron
ENCODING 57427
SWIDTH 533 0
DWIDTH 8 0
BBX 8 15 0 -3
BITMAP
00
00
00
00
00
1C
22
22
42
44
44
38
00
00
78
ENDCHAR
STARTCHAR LtCapOAcuteLdot
ENCODING 57428
SWIDTH 533 0
DWIDTH 8 0
BBX 8 15 0 -3
BITMAP
01
06
00
0E
11
21
21
41
42
42
44
38
00
20
20
ENDCHAR
STARTCHAR LtSmlOAcuteLdot
ENCODING 57429
SWIDTH 533 0
DWIDTH 8 0
BBX 8 15 0 -3
BITMAP
00
02
02
04
00
1C
22
22
42
44
44
38
00
20
20
ENDCHAR
STARTCHAR LtSmlOLinvbreve
ENCODING 57430
SWIDTH 533 0
DWIDTH 8 0
BBX 8 15 0 -3
BITMAP
00
00
00
00
00
1C
22
22
42
44
44
38
00
30
48
ENDCHAR
STARTCHAR LtCapOGraveLdot
ENCODING 57433
SWIDTH 533 0
DWIDTH 8 0
BBX 8 15 0 -3
BITMAP
08
06
00
0E
11
21
21
41
42
42
44
38
00
20
20
ENDCHAR
STARTCHAR LtSmlOGraveLdot
ENCODING 57434
SWIDTH 533 0
DWIDTH 8 0
BBX 8 15 0 -3
BITMAP
00
08
08
04
00
1C
22
22
42
44
44
38
00
20
20
ENDCHAR
STARTCHAR LtCapPLdot
ENCODING 57437
SWIDTH 533 0
DWIDTH 8 0
BBX 8 15 0 -3
BITMAP
00
00
1E
11
11
21
22
3C
20
40
40
40
00
80
80
ENDCHAR
STARTCHAR LtSmlPLdot
ENCODING 57438
SWIDTH 533 0
DWIDTH 8 0
BBX 8 15 0 -3
BITMAP
00
00
00
00
00
2C
72
22
22
44
44
78
40
90
90
ENDCHAR
STARTCHAR LtCapQLdot
ENCODING 57441
SWIDTH 533 0
DWIDTH 8 0
BBX 8 15 0 -3
BITMAP
00
00
0E
11
21
21
41
41
42
52
54
38
06
20
20
ENDCHAR
STARTCHAR LtSmlQLdot
ENCODING 57442
SWIDTH 533 0
DWIDTH 8 0
BBX 8 15 0 -3
BITMAP
00
00
00
00
00
1A
26
22
42
44
4C
34
08
28
28
ENDCHAR
STARTCHAR LtCapRLring
ENCODING 57443
SWIDTH 533 0
DWIDTH 8 0
BBX 8 15 0 -3
BITMAP
00
00
1E
11
11
22
3C
30
28
48
44
44
10
28
10
ENDCHAR
STARTCHAR LtSmlRLring
ENCODING 57444
SWIDTH 533 0
DWIDTH 8 0
BBX 8 15 0 -3
BITMAP
00
00
00
00
00
16
3A
10
10
20
20
20
20
50
20
ENDCHAR
STARTCHAR LtSmlRLvline
ENCODING 57445
SWIDTH 533 0
DWIDTH 8 0
BBX 8 15 0 -3
BITMAP
00
00
00
00
00
16
3A
10
10
20
20
20
10
10
10
ENDCHAR
STARTCHAR LtCapRAcuteLdot
ENCODING 57446
SWIDTH 533 0
DWIDTH 8 0
BBX 8 15 0 -3
BITMAP
01
06
00
1E
11
11
22
3C
28
48
44
44
00
20
20
ENDCHAR
STARTCHAR LtSmlRAcuteLdot
ENCODING 57447
SWIDTH 533 0
DWIDTH 8 0
BBX 8 15 0 -3
BITMAP
00
02
02
04
00
16
3A
10
10
20
20
20
00
40
40
ENDCHAR
STARTCHAR LtSmlRAcuteLring
ENCODING 57448
SWIDTH 533 0
DWIDTH 8 0
BBX 8 15 0 -3
BITMAP
00
02
02
04
00
16
3A
10
10
20
20
20
20
50
20
ENDCHAR
STARTCHAR LtCapRGraveLdot
ENCODING 57449
SWIDTH 533 0
DWIDTH 8 0
BBX 8 15 0 -3
BITMAP
08
06
00
1E
11
11
22
3C
28
48
44
44
00
20
20
ENDCHAR
STARTCHAR LtSmlRGraveLdot
ENCODING 57450
SWIDTH 533 0
DWIDTH 8 0
BBX 8 15 0 -3
BITMAP
00
08
08
04
00
16
3A
10
10
20
20
20
00
40
40
ENDCHAR
STARTCHAR LtSmlRGraveLring
ENCODING 57451
SWIDTH 533 0
DWIDTH 8 0
BBX 8 15 0 -3
BITMAP
00
08
08
04
00
16
3A
10
10
20
20
20
20
50
20
ENDCHAR
STARTCHAR LtSmlRMacronAcuteLdot
ENCODING 57453
SWIDTH 533 0
DWIDTH 8 0
BBX 8 15 0 -3
BITMAP
01
06
00
1E
00
16
3A
10
10
20
20
20
00
40
40
ENDCHAR
STARTCHAR LtSmlRMacronLring
ENCODING 57454
SWIDTH 533 0
DWIDTH 8 0
BBX 8 15 0 -3
BITMAP
00
00
1E
00
00
16
3A
10
10
20
20
20
20
50
20
ENDCHAR
STARTCHAR LtSmlRMacronAcuteLring
ENCODING 57455
SWIDTH 533 0
DWIDTH 8 0
BBX 8 15 0 -3
BITMAP
01
06
00
1E
00
16
3A
10
10
20
20
20
20
50
20
ENDCHAR
STARTCHAR LtSmlULinvbreve
ENCODING 57456
SWIDTH 533 0
DWIDTH 8 0
BBX 8 15 0 -3
BITMAP
00
00
00
00
00
62
22
22
42
44
4C
32
00
30
48
ENDCHAR
STARTCHAR GkCapIotTrndLbreve
ENCODING 57483
SWIDTH 533 0
DWIDTH 8 0
BBX 8 15 0 -3
BITMAP
00
00
1F
04
04
08
08
08
08
10
10
7C
00
44
38
ENDCHAR
STARTCHAR GkSmlIotTrndLbreve
ENCODING 57484
SWIDTH 533 0
DWIDTH 8 0
BBX 8 15 0 -3
BITMAP
00
00
00
00
00
18
24
08
08
08
10
18
00
44
38
ENDCHAR
STARTCHAR GkCapUpsTrndLbreve
ENCODING 57486
SWIDTH 533 0
DWIDTH 8 0
BBX 8 15 0 -3
BITMAP
00
00
04
04
04
08
08
14
14
22
42
42
00
44
38
ENDCHAR
STARTCHAR GkSmlUpsTrndLbreve
ENCODING 57487
SWIDTH 533 0
DWIDTH 8 0
BBX 8 15 0 -3
BITMAP
00
00
00
00
00
1C
22
42
42
44
44
22
00
44
38
ENDCHAR
STARTCHAR GeEnMacron
ENCODING 57493
SWIDTH 533 0
DWIDTH 8 0
BBX 8 15 0 -3
BITMAP
00
00
00
1E
00
00
1C
22
22
02
04
04
88
88
F0
ENDCHAR
STARTCHAR GeUnCircum
ENCODING 57497
SWIDTH 533 0
DWIDTH 8 0
BBX 8 15 0 -3
BITMAP
00
00
00
0C
12
00
4C
72
12
24
04
04
88
88
F0
ENDCHAR
STARTCHAR GeUnMacron
ENCODING 57498
SWIDTH 533 0
DWIDTH 8 0
BBX 8 15 0 -3
BITMAP
00
00
00
1E
00
00
4C
72
12
24
04
04
88
88
F0
ENDCHAR
STARTCHAR GeUnDrss
ENCODING 57499
SWIDTH 533 0
DWIDTH 8 0
BBX 8 15 0 -3
BITMAP
00
00
00
12
12
00
4C
72
12
24
04
04
88
88
F0
ENDCHAR
STARTCHAR GeUo
ENCODING 57500
SWIDTH 533 0
DWIDTH 8 0
BBX 8 15 0 -3
BITMAP
00
00
00
00
00
00
19
27
24
48
40
40
88
88
70
ENDCHAR
STARTCHAR HbAlefPatah
ENCODING 64302
SWIDTH 533 0
DWIDTH 8 0
BBX 8 15 0 -3
BITMAP
00
00
00
00
8C
CE
66
78
98
CC
66
E2
00
7C
00
ENDCHAR
STARTCHAR HbAlefQamats
ENCODING 64303
SWIDTH 533 0
DWIDTH 8 0
BBX 8 15 0 -3
BITMAP
00
00
00
00
8C
CE
66
78
98
CC
66
E2
00
38
10
ENDCHAR
ENDFONT
