STARTFONT 2.1
FONT -fbf-uw-ttyp0-medium-r-normal--15-150-75-75-p-150-iso10646-1
SIZE 15 75 75
FONTBOUNDINGBOX 8 15 0 -3
STARTPROPERTIES 19
FONTNAME_REGISTRY ""
FOUNDRY "UW"
FAMILY_NAME "Ttyp0"
WEIGHT_NAME "Bold"
SLANT "R"
SETWIDTH_NAME "Normal"
ADD_STYLE_NAME ""
PIXEL_SIZE 15
POINT_SIZE 140
RESOLUTION_X 75
RESOLUTION_Y 75
SPACING "C"
AVERAGE_WIDTH 80
CHARSET_REGISTRY "ISO10646"
CHARSET_ENCODING "1"
DEFAULT_CHAR 0
FONT_DESCENT 3
FONT_ASCENT 12
COPYRIGHT "Copyright (C) 2012-2015 Uwe Waldmann"
ENDPROPERTIES
CHARS 234
STARTCHAR CombLdot
ENCODING 803
SWIDTH 533 0
DWIDTH 8 0
BBX 8 15 0 -3
BITMAP
00
00
00
00
00
00
00
00
00
00
00
00
00
18
18
ENDCHAR
STARTCHAR CombLdrss
ENCODING 804
SWIDTH 533 0
DWIDTH 8 0
BBX 8 15 0 -3
BITMAP
00
00
00
00
00
00
00
00
00
00
00
00
00
6C
6C
ENDCHAR
STARTCHAR CombLvline
ENCODING 809
SWIDTH 533 0
DWIDTH 8 0
BBX 8 15 0 -3
BITMAP
00
00
00
00
00
00
00
00
00
00
00
00
18
18
18
ENDCHAR
STARTCHAR CombLcaron
ENCODING 812
SWIDTH 533 0
DWIDTH 8 0
BBX 8 15 0 -3
BITMAP
00
00
00
00
00
00
00
00
00
00
00
00
00
6C
38
ENDCHAR
STARTCHAR CombLcircum
ENCODING 813
SWIDTH 533 0
DWIDTH 8 0
BBX 8 15 0 -3
BITMAP
00
00
00
00
00
00
00
00
00
00
00
00
00
38
6C
ENDCHAR
STARTCHAR CombLbreve
ENCODING 814
SWIDTH 533 0
DWIDTH 8 0
BBX 8 15 0 -3
BITMAP
00
00
00
00
00
00
00
00
00
00
00
00
00
66
3C
ENDCHAR
STARTCHAR CombLinvbreve
ENCODING 815
SWIDTH 533 0
DWIDTH 8 0
BBX 8 15 0 -3
BITMAP
00
00
00
00
00
00
00
00
00
00
00
00
00
3C
66
ENDCHAR
STARTCHAR CombLtilde
ENCODING 816
SWIDTH 533 0
DWIDTH 8 0
BBX 8 15 0 -3
BITMAP
00
00
00
00
00
00
00
00
00
00
00
00
00
36
5C
ENDCHAR
STARTCHAR CombLmacron
ENCODING 817
SWIDTH 533 0
DWIDTH 8 0
BBX 8 15 0 -3
BITMAP
00
00
00
00
00
00
00
00
00
00
00
00
00
7C
7C
ENDCHAR
STARTCHAR CombLvline2
ENCODING 840
SWIDTH 533 0
DWIDTH 8 0
BBX 8 15 0 -3
BITMAP
00
00
00
00
00
00
00
00
00
00
00
00
6C
6C
6C
ENDCHAR
STARTCHAR AmSmlEh
ENCODING 1383
SWIDTH 533 0
DWIDTH 8 0
BBX 8 15 0 -3
BITMAP
00
00
C0
C0
C0
C0
FC
C0
C0
C0
C0
78
0C
18
00
ENDCHAR
STARTCHAR AmSmlYi
ENCODING 1397
SWIDTH 533 0
DWIDTH 8 0
BBX 8 15 0 -3
BITMAP
00
00
00
00
00
00
70
30
30
30
30
30
30
B0
E0
ENDCHAR
STARTCHAR AmSmlSha
ENCODING 1399
SWIDTH 533 0
DWIDTH 8 0
BBX 8 15 0 -3
BITMAP
00
00
00
00
00
00
38
4C
0C
18
30
60
C0
E0
7C
ENDCHAR
STARTCHAR AmSmlCha
ENCODING 1401
SWIDTH 533 0
DWIDTH 8 0
BBX 8 15 0 -3
BITMAP
00
00
00
00
00
00
30
70
38
10
20
60
C0
E0
7C
ENDCHAR
STARTCHAR AmSmlJheh
ENCODING 1403
SWIDTH 533 0
DWIDTH 8 0
BBX 8 15 0 -3
BITMAP
00
00
30
78
9C
CC
CC
EC
68
70
20
60
C0
E0
7C
ENDCHAR
STARTCHAR AmSmlCo
ENCODING 1409
SWIDTH 533 0
DWIDTH 8 0
BBX 8 15 0 -3
BITMAP
00
00
00
00
00
00
7C
CC
CC
CC
CC
7C
0C
CC
78
ENDCHAR
STARTCHAR AmSmlKeh
ENCODING 1412
SWIDTH 533 0
DWIDTH 8 0
BBX 8 15 0 -3
BITMAP
00
00
00
00
00
00
F8
CC
CC
CC
CC
F8
C0
FC
C0
ENDCHAR
STARTCHAR CombHbHatafQamats
ENCODING 1459
SWIDTH 533 0
DWIDTH 8 0
BBX 8 15 0 -3
BITMAP
00
00
00
00
00
00
00
00
00
00
00
00
06
F0
66
ENDCHAR
STARTCHAR CombHbSegol
ENCODING 1462
SWIDTH 533 0
DWIDTH 8 0
BBX 8 15 0 -3
BITMAP
00
00
00
00
00
00
00
00
00
00
00
00
00
66
18
ENDCHAR
STARTCHAR CombHbPatah
ENCODING 1463
SWIDTH 533 0
DWIDTH 8 0
BBX 8 15 0 -3
BITMAP
00
00
00
00
00
00
00
00
00
00
00
00
00
7C
00
ENDCHAR
STARTCHAR CombHbQamats
ENCODING 1464
SWIDTH 533 0
DWIDTH 8 0
BBX 8 15 0 -3
BITMAP
00
00
00
00
00
00
00
00
00
00
00
00
00
7E
18
ENDCHAR
STARTCHAR CombHbMeteg
ENCODING 1469
SWIDTH 533 0
DWIDTH 8 0
BBX 8 15 0 -3
BITMAP
00
00
00
00
00
00
00
00
00
00
00
00
10
10
10
ENDCHAR
STARTCHAR ThYoYing
ENCODING 3597
SWIDTH 533 0
DWIDTH 8 0
BBX 8 15 0 -3
BITMAP
00
00
00
00
00
66
F6
D6
D6
D6
DE
CC
00
1A
0C
ENDCHAR
STARTCHAR ThDoChada
ENCODING 3598
SWIDTH 533 0
DWIDTH 8 0
BBX 8 15 0 -3
BITMAP
00
00
00
00
00
7C
C6
86
66
66
E6
E6
06
26
3C
ENDCHAR
STARTCHAR ThToPatak
ENCODING 3599
SWIDTH 533 0
DWIDTH 8 0
BBX 8 15 0 -3
BITMAP
00
00
00
00
00
7C
C6
86
66
66
E6
E6
06
56
7C
ENDCHAR
STARTCHAR ThThoThan
ENCODING 3600
SWIDTH 533 0
DWIDTH 8 0
BBX 8 15 0 -3
BITMAP
00
00
00
00
00
FE
FE
0C
36
36
0E
06
00
56
7C
ENDCHAR
STARTCHAR ThRu
ENCODING 3620
SWIDTH 533 0
DWIDTH 8 0
BBX 8 15 0 -3
BITMAP
00
00
00
00
00
7C
C6
86
66
66
76
76
06
06
06
ENDCHAR
STARTCHAR ThLu
ENCODING 3622
SWIDTH 533 0
DWIDTH 8 0
BBX 8 15 0 -3
BITMAP
00
00
00
00
00
7C
C6
86
66
66
E6
E6
06
06
06
ENDCHAR
STARTCHAR ThSaraU
ENCODING 3640
SWIDTH 533 0
DWIDTH 8 0
BBX 8 15 0 -3
BITMAP
00
00
00
00
00
00
00
00
00
00
00
00
00
06
02
ENDCHAR
STARTCHAR ThSaraUu
ENCODING 3641
SWIDTH 533 0
DWIDTH 8 0
BBX 8 15 0 -3
BITMAP
00
00
00
00
00
00
00
00
00
00
00
00
00
1A
0E
ENDCHAR
STARTCHAR ThPhinthu
ENCODING 3642
SWIDTH 533 0
DWIDTH 8 0
BBX 8 15 0 -3
BITMAP
00
00
00
00
00
00
00
00
00
00
00
00
00
06
06
ENDCHAR
STARTCHAR ThLakkhangyao
ENCODING 3653
SWIDTH 533 0
DWIDTH 8 0
BBX 8 15 0 -3
BITMAP
00
00
00
00
00
3C
66
66
06
06
06
06
06
06
06
ENDCHAR
STARTCHAR ThMaiyamok
ENCODING 3654
SWIDTH 533 0
DWIDTH 8 0
BBX 8 15 0 -3
BITMAP
00
00
00
00
00
6C
FE
96
C6
C6
06
06
06
06
0C
ENDCHAR
STARTCHAR GeGan
ENCODING 4306
SWIDTH 533 0
DWIDTH 8 0
BBX 8 15 0 -3
BITMAP
00
00
00
00
00
00
F0
98
18
7C
C6
C6
C6
C6
7C
ENDCHAR
STARTCHAR GeDon
ENCODING 4307
SWIDTH 533 0
DWIDTH 8 0
BBX 8 15 0 -3
BITMAP
00
00
00
00
00
00
7C
C6
C6
C6
C6
7C
60
FC
86
ENDCHAR
STARTCHAR GeEn
ENCODING 4308
SWIDTH 533 0
DWIDTH 8 0
BBX 8 15 0 -3
BITMAP
00
00
00
00
00
00
3C
66
66
06
06
06
C6
C6
7C
ENDCHAR
STARTCHAR GeVin
ENCODING 4309
SWIDTH 533 0
DWIDTH 8 0
BBX 8 15 0 -3
BITMAP
00
00
00
00
00
00
3C
66
66
0C
1C
06
C6
C6
7C
ENDCHAR
STARTCHAR GeKan
ENCODING 4313
SWIDTH 533 0
DWIDTH 8 0
BBX 8 15 0 -3
BITMAP
00
00
00
00
00
00
04
06
06
1C
0E
06
C6
C6
7C
ENDCHAR
STARTCHAR GeLas
ENCODING 4314
SWIDTH 533 0
DWIDTH 8 0
BBX 8 15 0 -3
BITMAP
00
00
00
00
00
00
7C
C6
C6
C6
C4
60
78
CC
06
ENDCHAR
STARTCHAR GeZhar
ENCODING 4319
SWIDTH 533 0
DWIDTH 8 0
BBX 8 15 0 -3
BITMAP
00
00
00
00
00
00
06
3E
9E
D6
76
06
66
66
3C
ENDCHAR
STARTCHAR GeTar
ENCODING 4322
SWIDTH 533 0
DWIDTH 8 0
BBX 8 15 0 -3
BITMAP
00
00
00
00
00
10
28
38
6C
D6
C6
C6
C6
6C
38
ENDCHAR
STARTCHAR GeUn
ENCODING 4323
SWIDTH 533 0
DWIDTH 8 0
BBX 8 15 0 -3
BITMAP
00
00
00
00
00
00
DC
F6
36
36
06
06
C6
C6
7C
ENDCHAR
STARTCHAR GePhar
ENCODING 4324
SWIDTH 533 0
DWIDTH 8 0
BBX 8 15 0 -3
BITMAP
00
00
00
00
00
00
6C
FE
92
92
F6
6C
06
66
3C
ENDCHAR
STARTCHAR GeKhar
ENCODING 4325
SWIDTH 533 0
DWIDTH 8 0
BBX 8 15 0 -3
BITMAP
00
00
02
06
06
06
06
1E
7E
46
06
06
C6
C6
7C
ENDCHAR
STARTCHAR GeGhan
ENCODING 4326
SWIDTH 533 0
DWIDTH 8 0
BBX 8 15 0 -3
BITMAP
00
00
00
00
00
00
6C
D6
D6
D6
C6
C4
70
CC
06
ENDCHAR
STARTCHAR GeQar
ENCODING 4327
SWIDTH 533 0
DWIDTH 8 0
BBX 8 15 0 -3
BITMAP
00
00
00
00
00
00
46
C6
C6
4E
3E
06
C6
C6
7C
ENDCHAR
STARTCHAR GeCan
ENCODING 4330
SWIDTH 533 0
DWIDTH 8 0
BBX 8 15 0 -3
BITMAP
00
00
00
00
00
00
68
CC
C6
C6
CC
C6
C6
C6
7C
ENDCHAR
STARTCHAR GeCil
ENCODING 4332
SWIDTH 533 0
DWIDTH 8 0
BBX 8 15 0 -3
BITMAP
00
00
6C
D6
D6
C4
C0
7E
66
64
34
34
38
18
18
ENDCHAR
STARTCHAR GeChar
ENCODING 4333
SWIDTH 533 0
DWIDTH 8 0
BBX 8 15 0 -3
BITMAP
00
00
30
30
18
0C
0C
6E
DC
6E
0C
0C
CC
CC
78
ENDCHAR
STARTCHAR GeWe
ENCODING 4339
SWIDTH 533 0
DWIDTH 8 0
BBX 8 15 0 -3
BITMAP
00
00
00
00
00
00
7E
46
0C
18
3C
06
C6
C6
7C
ENDCHAR
STARTCHAR GeHar
ENCODING 4340
SWIDTH 533 0
DWIDTH 8 0
BBX 8 15 0 -3
BITMAP
00
00
18
30
30
30
1E
06
0C
18
3C
06
C6
C6
7C
ENDCHAR
STARTCHAR GeFi
ENCODING 4342
SWIDTH 533 0
DWIDTH 8 0
BBX 8 15 0 -3
BITMAP
00
00
00
00
00
00
6C
FE
D6
D6
D6
5C
10
30
60
ENDCHAR
STARTCHAR GeYn
ENCODING 4343
SWIDTH 533 0
DWIDTH 8 0
BBX 8 15 0 -3
BITMAP
00
00
00
00
00
00
7C
C6
C6
0C
38
60
C6
C6
7C
ENDCHAR
STARTCHAR GeElifi
ENCODING 4344
SWIDTH 533 0
DWIDTH 8 0
BBX 8 15 0 -3
BITMAP
00
00
00
00
00
00
C4
C6
C6
E4
F8
C0
C6
C6
7C
ENDCHAR
STARTCHAR GeGanTrnd
ENCODING 4345
SWIDTH 533 0
DWIDTH 8 0
BBX 8 15 0 -3
BITMAP
00
00
00
00
00
00
7C
C6
C6
C6
C6
7C
30
32
1E
ENDCHAR
STARTCHAR LtCapALring
ENCODING 7680
SWIDTH 533 0
DWIDTH 8 0
BBX 8 15 0 -3
BITMAP
00
00
10
30
38
38
58
4C
7C
CC
86
86
30
68
30
ENDCHAR
STARTCHAR LtSmlALring
ENCODING 7681
SWIDTH 533 0
DWIDTH 8 0
BBX 8 15 0 -3
BITMAP
00
00
00
00
00
7C
66
06
7E
C6
CE
76
18
34
18
ENDCHAR
STARTCHAR LtCapBLdot
ENCODING 7684
SWIDTH 533 0
DWIDTH 8 0
BBX 8 15 0 -3
BITMAP
00
00
FC
C6
C6
C6
FC
C6
C6
C6
C6
FC
00
30
30
ENDCHAR
STARTCHAR LtSmlBLdot
ENCODING 7685
SWIDTH 533 0
DWIDTH 8 0
BBX 8 15 0 -3
BITMAP
00
00
C0
C0
C0
DC
E6
C6
C6
C6
E6
DC
00
18
18
ENDCHAR
STARTCHAR LtCapBLmacron
ENCODING 7686
SWIDTH 533 0
DWIDTH 8 0
BBX 8 15 0 -3
BITMAP
00
00
FC
C6
C6
C6
FC
C6
C6
C6
C6
FC
00
7C
7C
ENDCHAR
STARTCHAR LtSmlBLmacron
ENCODING 7687
SWIDTH 533 0
DWIDTH 8 0
BBX 8 15 0 -3
BITMAP
00
00
C0
C0
C0
DC
E6
C6
C6
C6
E6
DC
00
7C
7C
ENDCHAR
STARTCHAR LtCapDLdot
ENCODING 7692
SWIDTH 533 0
DWIDTH 8 0
BBX 8 15 0 -3
BITMAP
00
00
F8
CC
C6
C6
C6
C6
C6
C6
CC
F8
00
30
30
ENDCHAR
STARTCHAR LtSmlDLdot
ENCODING 7693
SWIDTH 533 0
DWIDTH 8 0
BBX 8 15 0 -3
BITMAP
00
00
06
06
06
76
CE
C6
C6
C6
CE
76
00
30
30
ENDCHAR
STARTCHAR LtCapDLmacron
ENCODING 7694
SWIDTH 533 0
DWIDTH 8 0
BBX 8 15 0 -3
BITMAP
00
00
F8
CC
C6
C6
C6
C6
C6
C6
CC
F8
00
7C
7C
ENDCHAR
STARTCHAR LtSmlDLmacron
ENCODING 7695
SWIDTH 533 0
DWIDTH 8 0
BBX 8 15 0 -3
BITMAP
00
00
06
06
06
76
CE
C6
C6
C6
CE
76
00
7C
7C
ENDCHAR
STARTCHAR LtCapDLcircum
ENCODING 7698
SWIDTH 533 0
DWIDTH 8 0
BBX 8 15 0 -3
BITMAP
00
00
F8
CC
C6
C6
C6
C6
C6
C6
CC
F8
00
38
6C
ENDCHAR
STARTCHAR LtSmlDLcircum
ENCODING 7699
SWIDTH 533 0
DWIDTH 8 0
BBX 8 15 0 -3
BITMAP
00
00
06
06
06
76
CE
C6
C6
C6
CE
76
00
38
6C
ENDCHAR
STARTCHAR LtCapELcircum
ENCODING 7704
SWIDTH 533 0
DWIDTH 8 0
BBX 8 15 0 -3
BITMAP
00
00
FE
C2
C2
C8
F8
C8
C0
C2
C2
FE
00
38
6C
ENDCHAR
STARTCHAR LtSmlELcircum
ENCODING 7705
SWIDTH 533 0
DWIDTH 8 0
BBX 8 15 0 -3
BITMAP
00
00
00
00
00
3C
66
C6
FE
C0
66
3C
00
38
6C
ENDCHAR
STARTCHAR LtCapELtilde
ENCODING 7706
SWIDTH 533 0
DWIDTH 8 0
BBX 8 15 0 -3
BITMAP
00
00
FE
C2
C2
C8
F8
C8
C0
C2
C2
FE
00
36
5C
ENDCHAR
STARTCHAR LtSmlELtilde
ENCODING 7707
SWIDTH 533 0
DWIDTH 8 0
BBX 8 15 0 -3
BITMAP
00
00
00
00
00
3C
66
C6
FE
C0
66
3C
00
36
5C
ENDCHAR
STARTCHAR LtCapHLdot
ENCODING 7716
SWIDTH 533 0
DWIDTH 8 0
BBX 8 15 0 -3
BITMAP
00
00
C6
C6
C6
C6
FE
C6
C6
C6
C6
C6
00
30
30
ENDCHAR
STARTCHAR LtSmlHLdot
ENCODING 7717
SWIDTH 533 0
DWIDTH 8 0
BBX 8 15 0 -3
BITMAP
00
00
C0
C0
C0
DC
E6
C6
C6
C6
C6
C6
00
30
30
ENDCHAR
STARTCHAR LtCapHLbreve
ENCODING 7722
SWIDTH 533 0
DWIDTH 8 0
BBX 8 15 0 -3
BITMAP
00
00
C6
C6
C6
C6
FE
C6
C6
C6
C6
C6
00
66
3C
ENDCHAR
STARTCHAR LtSmlHLbreve
ENCODING 7723
SWIDTH 533 0
DWIDTH 8 0
BBX 8 15 0 -3
BITMAP
00
00
C0
C0
C0
DC
E6
C6
C6
C6
C6
C6
00
66
3C
ENDCHAR
STARTCHAR LtCapILtilde
ENCODING 7724
SWIDTH 533 0
DWIDTH 8 0
BBX 8 15 0 -3
BITMAP
00
00
7E
18
18
18
18
18
18
18
18
7E
00
36
5C
ENDCHAR
STARTCHAR LtSmlILtilde
ENCODING 7725
SWIDTH 533 0
DWIDTH 8 0
BBX 8 15 0 -3
BITMAP
00
00
18
18
00
38
18
18
18
18
18
7E
00
36
5C
ENDCHAR
STARTCHAR LtCapKLdot
ENCODING 7730
SWIDTH 533 0
DWIDTH 8 0
BBX 8 15 0 -3
BITMAP
00
00
C6
C4
CC
C8
D8
F8
CC
CC
C6
C6
00
30
30
ENDCHAR
STARTCHAR LtSmlKLdot
ENCODING 7731
SWIDTH 533 0
DWIDTH 8 0
BBX 8 15 0 -3
BITMAP
00
00
C0
C0
C0
C6
CC
D0
F8
CC
C6
C6
00
30
30
ENDCHAR
STARTCHAR LtCapKLmacron
ENCODING 7732
SWIDTH 533 0
DWIDTH 8 0
BBX 8 15 0 -3
BITMAP
00
00
C6
C4
CC
C8
D8
F8
CC
CC
C6
C6
00
7C
7C
ENDCHAR
STARTCHAR LtSmlKLmacron
ENCODING 7733
SWIDTH 533 0
DWIDTH 8 0
BBX 8 15 0 -3
BITMAP
00
00
C0
C0
C0
C6
CC
D0
F8
CC
C6
C6
00
7C
7C
ENDCHAR
STARTCHAR LtCapLLdot
ENCODING 7734
SWIDTH 533 0
DWIDTH 8 0
BBX 8 15 0 -3
BITMAP
00
00
C0
C0
C0
C0
C0
C0
C0
C2
C2
FE
00
30
30
ENDCHAR
STARTCHAR LtSmlLLdot
ENCODING 7735
SWIDTH 533 0
DWIDTH 8 0
BBX 8 15 0 -3
BITMAP
00
00
38
18
18
18
18
18
18
18
18
7E
00
18
18
ENDCHAR
STARTCHAR LtCapLMacronLdot
ENCODING 7736
SWIDTH 533 0
DWIDTH 8 0
BBX 8 15 0 -3
BITMAP
7C
7C
00
C0
C0
C0
C0
C0
C0
C2
C2
FE
00
30
30
ENDCHAR
STARTCHAR LtSmlLMacronLdot
ENCODING 7737
SWIDTH 533 0
DWIDTH 8 0
BBX 8 15 0 -3
BITMAP
3C
3C
00
38
18
18
18
18
18
18
18
7E
00
18
18
ENDCHAR
STARTCHAR LtCapLLmacron
ENCODING 7738
SWIDTH 533 0
DWIDTH 8 0
BBX 8 15 0 -3
BITMAP
00
00
C0
C0
C0
C0
C0
C0
C0
C2
C2
FE
00
7C
7C
ENDCHAR
STARTCHAR LtSmlLLmacron
ENCODING 7739
SWIDTH 533 0
DWIDTH 8 0
BBX 8 15 0 -3
BITMAP
00
00
38
18
18
18
18
18
18
18
18
7E
00
3C
3C
ENDCHAR
STARTCHAR LtCapLLcircum
ENCODING 7740
SWIDTH 533 0
DWIDTH 8 0
BBX 8 15 0 -3
BITMAP
00
00
C0
C0
C0
C0
C0
C0
C0
C2
C2
FE
00
38
6C
ENDCHAR
STARTCHAR LtSmlLLcircum
ENCODING 7741
SWIDTH 533 0
DWIDTH 8 0
BBX 8 15 0 -3
BITMAP
00
00
38
18
18
18
18
18
18
18
18
7E
00
38
6C
ENDCHAR
STARTCHAR LtCapMLdot
ENCODING 7746
SWIDTH 533 0
DWIDTH 8 0
BBX 8 15 0 -3
BITMAP
00
00
C6
C6
EE
EE
FE
B6
B6
86
86
86
00
30
30
ENDCHAR
STARTCHAR LtSmlMLdot
ENCODING 7747
SWIDTH 533 0
DWIDTH 8 0
BBX 8 15 0 -3
BITMAP
00
00
00
00
00
AC
FE
D6
D6
D6
D6
D6
00
30
30
ENDCHAR
STARTCHAR LtCapNLdot
ENCODING 7750
SWIDTH 533 0
DWIDTH 8 0
BBX 8 15 0 -3
BITMAP
00
00
C2
E2
E2
B2
B2
9A
9A
8E
8E
86
00
30
30
ENDCHAR
STARTCHAR LtSmlNLdot
ENCODING 7751
SWIDTH 533 0
DWIDTH 8 0
BBX 8 15 0 -3
BITMAP
00
00
00
00
00
DC
E6
C6
C6
C6
C6
C6
00
30
30
ENDCHAR
STARTCHAR LtCapNLmacron
ENCODING 7752
SWIDTH 533 0
DWIDTH 8 0
BBX 8 15 0 -3
BITMAP
00
00
C2
E2
E2
B2
B2
9A
9A
8E
8E
86
00
7C
7C
ENDCHAR
STARTCHAR LtSmlNLmacron
ENCODING 7753
SWIDTH 533 0
DWIDTH 8 0
BBX 8 15 0 -3
BITMAP
00
00
00
00
00
DC
E6
C6
C6
C6
C6
C6
00
7C
7C
ENDCHAR
STARTCHAR LtCapNLcircum
ENCODING 7754
SWIDTH 533 0
DWIDTH 8 0
BBX 8 15 0 -3
BITMAP
00
00
C2
E2
E2
B2
B2
9A
9A
8E
8E
86
00
38
6C
ENDCHAR
STARTCHAR LtSmlNLcircum
ENCODING 7755
SWIDTH 533 0
DWIDTH 8 0
BBX 8 15 0 -3
BITMAP
00
00
00
00
00
DC
E6
C6
C6
C6
C6
C6
00
38
6C
ENDCHAR
STARTCHAR LtCapRLdot
ENCODING 7770
SWIDTH 533 0
DWIDTH 8 0
BBX 8 15 0 -3
BITMAP
00
00
FC
C6
C6
C6
FC
D8
CC
CC
C6
C6
00
30
30
ENDCHAR
STARTCHAR LtSmlRLdot
ENCODING 7771
SWIDTH 533 0
DWIDTH 8 0
BBX 8 15 0 -3
BITMAP
00
00
00
00
00
EE
76
60
60
60
60
60
00
60
60
ENDCHAR
STARTCHAR LtCapRMacronLdot
ENCODING 7772
SWIDTH 533 0
DWIDTH 8 0
BBX 8 15 0 -3
BITMAP
7C
7C
00
FC
C6
C6
C6
FC
D8
CC
C6
C6
00
30
30
ENDCHAR
STARTCHAR LtSmlRMacronLdot
ENCODING 7773
SWIDTH 533 0
DWIDTH 8 0
BBX 8 15 0 -3
BITMAP
00
00
7C
7C
00
EE
76
60
60
60
60
60
00
60
60
ENDCHAR
STARTCHAR LtCapRLmacron
ENCODING 7774
SWIDTH 533 0
DWIDTH 8 0
BBX 8 15 0 -3
BITMAP
00
00
FC
C6
C6
C6
FC
D8
CC
CC
C6
C6
00
7C
7C
ENDCHAR
STARTCHAR LtSmlRLmacron
ENCODING 7775
SWIDTH 533 0
DWIDTH 8 0
BBX 8 15 0 -3
BITMAP
00
00
00
00
00
EE
76
60
60
60
60
60
00
78
78
ENDCHAR
STARTCHAR LtCapSLdot
ENCODING 7778
SWIDTH 533 0
DWIDTH 8 0
BBX 8 15 0 -3
BITMAP
00
00
7C
C6
C0
E0
78
1C
06
06
C6
7C
00
30
30
ENDCHAR
STARTCHAR LtSmlSLdot
ENCODING 7779
SWIDTH 533 0
DWIDTH 8 0
BBX 8 15 0 -3
BITMAP
00
00
00
00
00
7C
C6
C0
7C
06
C6
7C
00
30
30
ENDCHAR
STARTCHAR LtCapSDotLdot
ENCODING 7784
SWIDTH 533 0
DWIDTH 8 0
BBX 8 15 0 -3
BITMAP
18
18
00
7C
C6
C0
70
3C
0E
06
C6
7C
00
30
30
ENDCHAR
STARTCHAR LtSmlSDotLdot
ENCODING 7785
SWIDTH 533 0
DWIDTH 8 0
BBX 8 15 0 -3
BITMAP
00
00
18
18
00
7C
C6
C0
7C
06
C6
7C
00
30
30
ENDCHAR
STARTCHAR LtCapTLdot
ENCODING 7788
SWIDTH 533 0
DWIDTH 8 0
BBX 8 15 0 -3
BITMAP
00
00
FF
DB
18
18
18
18
18
18
18
18
00
18
18
ENDCHAR
STARTCHAR LtSmlTLdot
ENCODING 7789
SWIDTH 533 0
DWIDTH 8 0
BBX 8 15 0 -3
BITMAP
00
00
00
30
30
FC
30
30
30
30
36
1C
00
18
18
ENDCHAR
STARTCHAR LtCapTLmacron
ENCODING 7790
SWIDTH 533 0
DWIDTH 8 0
BBX 8 15 0 -3
BITMAP
00
00
FF
DB
18
18
18
18
18
18
18
18
00
3C
3C
ENDCHAR
STARTCHAR LtSmlTLmacron
ENCODING 7791
SWIDTH 533 0
DWIDTH 8 0
BBX 8 15 0 -3
BITMAP
00
00
00
30
30
FC
30
30
30
30
36
1C
00
3C
3C
ENDCHAR
STARTCHAR LtCapTLcircum
ENCODING 7792
SWIDTH 533 0
DWIDTH 8 0
BBX 8 15 0 -3
BITMAP
00
00
FF
DB
18
18
18
18
18
18
18
18
00
1C
36
ENDCHAR
STARTCHAR LtSmlTLcircum
ENCODING 7793
SWIDTH 533 0
DWIDTH 8 0
BBX 8 15 0 -3
BITMAP
00
00
00
30
30
FC
30
30
30
30
36
1C
00
1C
36
ENDCHAR
STARTCHAR LtCapULdrss
ENCODING 7794
SWIDTH 533 0
DWIDTH 8 0
BBX 8 15 0 -3
BITMAP
00
00
C6
C6
C6
C6
C6
C6
C6
C6
C6
7C
00
6C
6C
ENDCHAR
STARTCHAR LtSmlULdrss
ENCODING 7795
SWIDTH 533 0
DWIDTH 8 0
BBX 8 15 0 -3
BITMAP
00
00
00
00
00
C6
C6
C6
C6
C6
CE
76
00
6C
6C
ENDCHAR
STARTCHAR LtCapULtilde
ENCODING 7796
SWIDTH 533 0
DWIDTH 8 0
BBX 8 15 0 -3
BITMAP
00
00
C6
C6
C6
C6
C6
C6
C6
C6
C6
7C
00
36
5C
ENDCHAR
STARTCHAR LtSmlULtilde
ENCODING 7797
SWIDTH 533 0
DWIDTH 8 0
BBX 8 15 0 -3
BITMAP
00
00
00
00
00
C6
C6
C6
C6
C6
CE
76
00
36
5C
ENDCHAR
STARTCHAR LtCapULcircum
ENCODING 7798
SWIDTH 533 0
DWIDTH 8 0
BBX 8 15 0 -3
BITMAP
00
00
C6
C6
C6
C6
C6
C6
C6
C6
C6
7C
00
38
6C
ENDCHAR
STARTCHAR LtSmlULcircum
ENCODING 7799
SWIDTH 533 0
DWIDTH 8 0
BBX 8 15 0 -3
BITMAP
00
00
00
00
00
C6
C6
C6
C6
C6
CE
76
00
38
6C
ENDCHAR
STARTCHAR LtCapVLdot
ENCODING 7806
SWIDTH 533 0
DWIDTH 8 0
BBX 8 15 0 -3
BITMAP
00
00
C2
C2
66
64
64
34
38
38
18
10
00
18
18
ENDCHAR
STARTCHAR LtSmlVLdot
ENCODING 7807
SWIDTH 533 0
DWIDTH 8 0
BBX 8 15 0 -3
BITMAP
00
00
00
00
00
C2
C6
64
64
38
38
10
00
18
18
ENDCHAR
STARTCHAR LtCapWLdot
ENCODING 7816
SWIDTH 533 0
DWIDTH 8 0
BBX 8 15 0 -3
BITMAP
00
00
C2
C2
C2
DA
DA
DA
FE
6C
6C
6C
00
18
18
ENDCHAR
STARTCHAR LtSmlWLdot
ENCODING 7817
SWIDTH 533 0
DWIDTH 8 0
BBX 8 15 0 -3
BITMAP
00
00
00
00
00
C2
DA
DA
DA
7C
6C
6C
00
18
18
ENDCHAR
STARTCHAR LtCapZLdot
ENCODING 7826
SWIDTH 533 0
DWIDTH 8 0
BBX 8 15 0 -3
BITMAP
00
00
FE
86
8C
1C
18
30
70
62
C2
FE
00
30
30
ENDCHAR
STARTCHAR LtSmlZLdot
ENCODING 7827
SWIDTH 533 0
DWIDTH 8 0
BBX 8 15 0 -3
BITMAP
00
00
00
00
00
FE
8E
0C
38
60
E2
FE
00
30
30
ENDCHAR
STARTCHAR LtCapZLmacron
ENCODING 7828
SWIDTH 533 0
DWIDTH 8 0
BBX 8 15 0 -3
BITMAP
00
00
FE
86
8C
1C
18
30
70
62
C2
FE
00
7C
7C
ENDCHAR
STARTCHAR LtSmlZLmacron
ENCODING 7829
SWIDTH 533 0
DWIDTH 8 0
BBX 8 15 0 -3
BITMAP
00
00
00
00
00
FE
8E
0C
38
60
E2
FE
00
7C
7C
ENDCHAR
STARTCHAR LtSmlHLmacron
ENCODING 7830
SWIDTH 533 0
DWIDTH 8 0
BBX 8 15 0 -3
BITMAP
00
00
C0
C0
C0
DC
E6
C6
C6
C6
C6
C6
00
7C
7C
ENDCHAR
STARTCHAR LtCapALdot
ENCODING 7840
SWIDTH 533 0
DWIDTH 8 0
BBX 8 15 0 -3
BITMAP
00
00
10
30
38
38
58
4C
7C
CC
86
86
00
30
30
ENDCHAR
STARTCHAR LtSmlALdot
ENCODING 7841
SWIDTH 533 0
DWIDTH 8 0
BBX 8 15 0 -3
BITMAP
00
00
00
00
00
7C
66
06
7E
C6
CE
76
00
30
30
ENDCHAR
STARTCHAR LtCapACircumLdot
ENCODING 7852
SWIDTH 533 0
DWIDTH 8 0
BBX 8 15 0 -3
BITMAP
38
6C
00
30
38
38
58
4C
7C
CC
86
86
00
30
30
ENDCHAR
STARTCHAR LtSmlACircumLdot
ENCODING 7853
SWIDTH 533 0
DWIDTH 8 0
BBX 8 15 0 -3
BITMAP
00
18
3C
24
00
7C
66
06
7E
C6
CE
76
00
30
30
ENDCHAR
STARTCHAR LtCapABreveLdot
ENCODING 7862
SWIDTH 533 0
DWIDTH 8 0
BBX 8 15 0 -3
BITMAP
CC
78
00
30
38
38
58
4C
7C
CC
86
86
00
30
30
ENDCHAR
STARTCHAR LtSmlABreveLdot
ENCODING 7863
SWIDTH 533 0
DWIDTH 8 0
BBX 8 15 0 -3
BITMAP
00
00
CC
78
00
7C
66
06
7E
C6
CE
76
00
30
30
ENDCHAR
STARTCHAR LtCapELdot
ENCODING 7864
SWIDTH 533 0
DWIDTH 8 0
BBX 8 15 0 -3
BITMAP
00
00
FE
C2
C2
C8
F8
C8
C0
C2
C2
FE
00
30
30
ENDCHAR
STARTCHAR LtSmlELdot
ENCODING 7865
SWIDTH 533 0
DWIDTH 8 0
BBX 8 15 0 -3
BITMAP
00
00
00
00
00
3C
66
C6
FE
C0
66
3C
00
18
18
ENDCHAR
STARTCHAR LtCapECircumLdot
ENCODING 7878
SWIDTH 533 0
DWIDTH 8 0
BBX 8 15 0 -3
BITMAP
38
6C
00
FE
C2
C2
C8
F8
C8
C2
C2
FE
00
30
30
ENDCHAR
STARTCHAR LtSmlECircumLdot
ENCODING 7879
SWIDTH 533 0
DWIDTH 8 0
BBX 8 15 0 -3
BITMAP
00
18
3C
24
00
3C
66
C6
FE
C0
66
3C
00
18
18
ENDCHAR
STARTCHAR LtCapILdot
ENCODING 7882
SWIDTH 533 0
DWIDTH 8 0
BBX 8 15 0 -3
BITMAP
00
00
7E
18
18
18
18
18
18
18
18
7E
00
18
18
ENDCHAR
STARTCHAR LtSmlILdot
ENCODING 7883
SWIDTH 533 0
DWIDTH 8 0
BBX 8 15 0 -3
BITMAP
00
00
18
18
00
38
18
18
18
18
18
7E
00
18
18
ENDCHAR
STARTCHAR LtCapOLdot
ENCODING 7884
SWIDTH 533 0
DWIDTH 8 0
BBX 8 15 0 -3
BITMAP
00
00
7C
C6
C6
C6
C6
C6
C6
C6
C6
7C
00
30
30
ENDCHAR
STARTCHAR LtSmlOLdot
ENCODING 7885
SWIDTH 533 0
DWIDTH 8 0
BBX 8 15 0 -3
BITMAP
00
00
00
00
00
7C
C6
C6
C6
C6
C6
7C
00
30
30
ENDCHAR
STARTCHAR LtCapOCircumLdot
ENCODING 7896
SWIDTH 533 0
DWIDTH 8 0
BBX 8 15 0 -3
BITMAP
38
6C
00
7C
C6
C6
C6
C6
C6
C6
C6
7C
00
30
30
ENDCHAR
STARTCHAR LtSmlOCircumLdot
ENCODING 7897
SWIDTH 533 0
DWIDTH 8 0
BBX 8 15 0 -3
BITMAP
00
10
38
6C
00
7C
C6
C6
C6
C6
C6
7C
00
30
30
ENDCHAR
STARTCHAR LtCapOHornLdot
ENCODING 7906
SWIDTH 533 0
DWIDTH 8 0
BBX 8 15 0 -3
BITMAP
07
03
7E
C6
C6
C6
C6
C6
C6
C6
C6
7C
00
30
30
ENDCHAR
STARTCHAR LtSmlOHornLdot
ENCODING 7907
SWIDTH 533 0
DWIDTH 8 0
BBX 8 15 0 -3
BITMAP
00
00
00
07
03
7E
C6
C6
C6
C6
C6
7C
00
30
30
ENDCHAR
STARTCHAR LtCapULdot
ENCODING 7908
SWIDTH 533 0
DWIDTH 8 0
BBX 8 15 0 -3
BITMAP
00
00
C6
C6
C6
C6
C6
C6
C6
C6
C6
7C
00
30
30
ENDCHAR
STARTCHAR LtSmlULdot
ENCODING 7909
SWIDTH 533 0
DWIDTH 8 0
BBX 8 15 0 -3
BITMAP
00
00
00
00
00
C6
C6
C6
C6
C6
CE
76
00
30
30
ENDCHAR
STARTCHAR LtCapUHornLdot
ENCODING 7920
SWIDTH 533 0
DWIDTH 8 0
BBX 8 15 0 -3
BITMAP
07
03
C6
C6
C6
C6
C6
C6
C6
C6
C6
7C
00
30
30
ENDCHAR
STARTCHAR LtSmlUHornLdot
ENCODING 7921
SWIDTH 533 0
DWIDTH 8 0
BBX 8 15 0 -3
BITMAP
00
00
00
07
03
C6
C6
C6
C6
C6
CE
76
00
30
30
ENDCHAR
STARTCHAR LtCapYLdot
ENCODING 7924
SWIDTH 533 0
DWIDTH 8 0
BBX 8 15 0 -3
BITMAP
00
00
C3
62
64
34
38
18
18
18
18
18
00
18
18
ENDCHAR
STARTCHAR LtSmlYLdot
ENCODING 7925
SWIDTH 533 0
DWIDTH 8 0
BBX 8 15 0 -3
BITMAP
00
00
00
00
00
C2
C6
64
64
3C
38
18
10
D6
E6
ENDCHAR
STARTCHAR MArrowU
ENCODING 8593
SWIDTH 533 0
DWIDTH 8 0
BBX 8 15 0 -3
BITMAP
00
18
3C
7E
18
18
18
18
18
18
18
18
18
18
00
ENDCHAR
STARTCHAR MArrowD
ENCODING 8595
SWIDTH 533 0
DWIDTH 8 0
BBX 8 15 0 -3
BITMAP
00
18
18
18
18
18
18
18
18
18
18
7E
3C
18
00
ENDCHAR
STARTCHAR MArrowUD
ENCODING 8597
SWIDTH 533 0
DWIDTH 8 0
BBX 8 15 0 -3
BITMAP
00
18
3C
7E
18
18
18
18
18
18
18
7E
3C
18
00
ENDCHAR
STARTCHAR MArrowLU
ENCODING 8598
SWIDTH 533 0
DWIDTH 8 0
BBX 8 15 0 -3
BITMAP
00
C0
E0
F0
E0
B0
30
18
18
0C
0C
06
06
02
00
ENDCHAR
STARTCHAR MArrowRU
ENCODING 8599
SWIDTH 533 0
DWIDTH 8 0
BBX 8 15 0 -3
BITMAP
00
06
0E
1E
0E
1A
18
30
30
60
60
C0
C0
80
00
ENDCHAR
STARTCHAR MArrowRD
ENCODING 8600
SWIDTH 533 0
DWIDTH 8 0
BBX 8 15 0 -3
BITMAP
00
80
C0
C0
60
60
30
30
18
1A
0E
1E
0E
06
00
ENDCHAR
STARTCHAR MArrowLD
ENCODING 8601
SWIDTH 533 0
DWIDTH 8 0
BBX 8 15 0 -3
BITMAP
00
02
06
06
0C
0C
18
18
30
B0
E0
F0
E0
C0
00
ENDCHAR
STARTCHAR MArrowUu
ENCODING 8607
SWIDTH 533 0
DWIDTH 8 0
BBX 8 15 0 -3
BITMAP
00
18
3C
7E
18
3C
7E
18
18
18
18
18
18
18
00
ENDCHAR
STARTCHAR MArrowDd
ENCODING 8609
SWIDTH 533 0
DWIDTH 8 0
BBX 8 15 0 -3
BITMAP
00
18
18
18
18
18
18
18
7E
3C
18
7E
3C
18
00
ENDCHAR
STARTCHAR MArrowBarU
ENCODING 8613
SWIDTH 533 0
DWIDTH 8 0
BBX 8 15 0 -3
BITMAP
00
18
3C
7E
18
18
18
18
18
18
18
18
7E
7E
00
ENDCHAR
STARTCHAR MArrowBarD
ENCODING 8615
SWIDTH 533 0
DWIDTH 8 0
BBX 8 15 0 -3
BITMAP
00
7E
7E
18
18
18
18
18
18
18
18
7E
3C
18
00
ENDCHAR
STARTCHAR MArrowUDBase
ENCODING 8616
SWIDTH 533 0
DWIDTH 8 0
BBX 8 15 0 -3
BITMAP
00
18
3C
7E
18
18
18
18
18
7E
3C
18
7E
7E
00
ENDCHAR
STARTCHAR MHarpoonUr
ENCODING 8638
SWIDTH 533 0
DWIDTH 8 0
BBX 8 15 0 -3
BITMAP
00
18
1C
1E
18
18
18
18
18
18
18
18
18
18
00
ENDCHAR
STARTCHAR MHarpoonUl
ENCODING 8639
SWIDTH 533 0
DWIDTH 8 0
BBX 8 15 0 -3
BITMAP
00
18
38
78
18
18
18
18
18
18
18
18
18
18
00
ENDCHAR
STARTCHAR MHarpoonDr
ENCODING 8642
SWIDTH 533 0
DWIDTH 8 0
BBX 8 15 0 -3
BITMAP
00
18
18
18
18
18
18
18
18
18
18
1E
1C
18
00
ENDCHAR
STARTCHAR MHarpoonDl
ENCODING 8643
SWIDTH 533 0
DWIDTH 8 0
BBX 8 15 0 -3
BITMAP
00
18
18
18
18
18
18
18
18
18
18
78
38
18
00
ENDCHAR
STARTCHAR MArrowULeftD
ENCODING 8645
SWIDTH 533 0
DWIDTH 8 0
BBX 8 15 0 -3
BITMAP
00
66
F6
FE
66
66
66
66
66
66
66
7F
6F
66
00
ENDCHAR
STARTCHAR MArrowULeftU
ENCODING 8648
SWIDTH 533 0
DWIDTH 8 0
BBX 8 15 0 -3
BITMAP
00
66
FF
FF
66
66
66
66
66
66
66
66
66
66
00
ENDCHAR
STARTCHAR MArrowDLeftD
ENCODING 8650
SWIDTH 533 0
DWIDTH 8 0
BBX 8 15 0 -3
BITMAP
00
66
66
66
66
66
66
66
66
66
66
FF
FF
66
00
ENDCHAR
STARTCHAR MArrow2U
ENCODING 8657
SWIDTH 533 0
DWIDTH 8 0
BBX 8 15 0 -3
BITMAP
00
10
38
7C
EE
6C
6C
6C
6C
6C
6C
6C
6C
6C
00
ENDCHAR
STARTCHAR MArrow2D
ENCODING 8659
SWIDTH 533 0
DWIDTH 8 0
BBX 8 15 0 -3
BITMAP
00
6C
6C
6C
6C
6C
6C
6C
6C
6C
EE
7C
38
10
00
ENDCHAR
STARTCHAR MArrow2UD
ENCODING 8661
SWIDTH 533 0
DWIDTH 8 0
BBX 8 15 0 -3
BITMAP
00
10
38
7C
EE
6C
6C
6C
6C
6C
EE
7C
38
10
00
ENDCHAR
STARTCHAR PCurlyBrackLTRB
ENCODING 9136
SWIDTH 533 0
DWIDTH 8 0
BBX 8 15 0 -3
BITMAP
06
0C
18
18
18
18
18
18
18
18
18
18
18
30
60
ENDCHAR
STARTCHAR PCurlyBrackLBRT
ENCODING 9137
SWIDTH 533 0
DWIDTH 8 0
BBX 8 15 0 -3
BITMAP
60
30
18
18
18
18
18
18
18
18
18
18
18
0C
06
ENDCHAR
STARTCHAR MSumT
ENCODING 9138
SWIDTH 533 0
DWIDTH 8 0
BBX 8 15 0 -3
BITMAP
00
FE
C2
C2
C0
60
60
60
30
30
30
30
18
18
18
ENDCHAR
STARTCHAR MRootB
ENCODING 9143
SWIDTH 533 0
DWIDTH 8 0
BBX 8 15 0 -3
BITMAP
18
18
18
18
18
18
D8
D8
58
78
38
38
38
18
18
ENDCHAR
STARTCHAR LtSmlATrndLinvbreve
ENCODING 57350
SWIDTH 533 0
DWIDTH 8 0
BBX 8 15 0 -3
BITMAP
00
00
00
00
00
DC
E6
C6
FC
C0
CC
7C
00
3C
66
ENDCHAR
STARTCHAR LtCapCLdot
ENCODING 57356
SWIDTH 533 0
DWIDTH 8 0
BBX 8 15 0 -3
BITMAP
00
00
3C
66
C0
C0
C0
C0
C0
C0
66
3C
00
18
18
ENDCHAR
STARTCHAR LtSmlCLdot
ENCODING 57357
SWIDTH 533 0
DWIDTH 8 0
BBX 8 15 0 -3
BITMAP
00
00
00
00
00
3C
66
C0
C0
C0
66
3C
00
18
18
ENDCHAR
STARTCHAR LtCapCCaronLdot
ENCODING 57358
SWIDTH 533 0
DWIDTH 8 0
BBX 8 15 0 -3
BITMAP
36
1C
00
3C
66
C0
C0
C0
C0
C0
66
3C
00
18
18
ENDCHAR
STARTCHAR LtSmlCCaronLdot
ENCODING 57359
SWIDTH 533 0
DWIDTH 8 0
BBX 8 15 0 -3
BITMAP
00
24
3C
18
00
3C
66
C0
C0
C0
66
3C
00
18
18
ENDCHAR
STARTCHAR LtCapELmacron
ENCODING 57370
SWIDTH 533 0
DWIDTH 8 0
BBX 8 15 0 -3
BITMAP
00
00
FE
C2
C2
C8
F8
C8
C0
C2
C2
FE
00
7C
7C
ENDCHAR
STARTCHAR LtSmlELmacron
ENCODING 57371
SWIDTH 533 0
DWIDTH 8 0
BBX 8 15 0 -3
BITMAP
00
00
00
00
00
3C
66
C6
FE
C0
66
3C
00
7C
7C
ENDCHAR
STARTCHAR LtCapEAcuteLdot
ENCODING 57372
SWIDTH 533 0
DWIDTH 8 0
BBX 8 15 0 -3
BITMAP
0C
18
10
FE
C2
C2
C8
F8
C8
C2
C2
FE
00
30
30
ENDCHAR
STARTCHAR LtSmlEAcuteLdot
ENCODING 57373
SWIDTH 533 0
DWIDTH 8 0
BBX 8 15 0 -3
BITMAP
00
0C
18
10
00
3C
66
C6
FE
C0
66
3C
00
18
18
ENDCHAR
STARTCHAR LtCapEGraveLdot
ENCODING 57376
SWIDTH 533 0
DWIDTH 8 0
BBX 8 15 0 -3
BITMAP
60
30
10
FE
C2
C2
C8
F8
C8
C2
C2
FE
00
30
30
ENDCHAR
STARTCHAR LtSmlEGraveLdot
ENCODING 57377
SWIDTH 533 0
DWIDTH 8 0
BBX 8 15 0 -3
BITMAP
00
30
18
08
00
3C
66
C6
FE
C0
66
3C
00
18
18
ENDCHAR
STARTCHAR LtCapGHLmacron
ENCODING 57393
SWIDTH 533 0
DWIDTH 8 0
BBX 8 15 0 -3
BITMAP
00
00
6A
EA
8A
8A
8E
AA
AA
AA
EA
6A
00
7C
7C
ENDCHAR
STARTCHAR LtMixGHLmacron
ENCODING 57394
SWIDTH 533 0
DWIDTH 8 0
BBX 8 15 0 -3
BITMAP
00
00
68
E8
88
8E
8E
AA
AA
AA
EA
6A
00
7C
7C
ENDCHAR
STARTCHAR LtSmlGHLmacron
ENCODING 57395
SWIDTH 533 0
DWIDTH 8 0
BBX 8 15 0 -3
BITMAP
00
00
08
08
08
6E
AE
AA
AA
6A
CA
6A
D0
FC
7C
ENDCHAR
STARTCHAR LtCapHLmacron
ENCODING 57396
SWIDTH 533 0
DWIDTH 8 0
BBX 8 15 0 -3
BITMAP
00
00
C6
C6
C6
C6
FE
C6
C6
C6
C6
C6
00
7C
7C
ENDCHAR
STARTCHAR LtSmlILinvbreve
ENCODING 57397
SWIDTH 533 0
DWIDTH 8 0
BBX 8 15 0 -3
BITMAP
00
00
18
18
00
38
18
18
18
18
18
7E
00
3C
66
ENDCHAR
STARTCHAR LtCapKHLmacron
ENCODING 57405
SWIDTH 533 0
DWIDTH 8 0
BBX 8 15 0 -3
BITMAP
00
00
AA
AA
AA
EA
CE
EA
EA
AA
AA
AA
00
7C
7C
ENDCHAR
STARTCHAR LtMixKHLmacron
ENCODING 57406
SWIDTH 533 0
DWIDTH 8 0
BBX 8 15 0 -3
BITMAP
00
00
A8
A8
A8
EE
CE
EA
EA
AA
AA
AA
00
7C
7C
ENDCHAR
STARTCHAR LtSmlKHLmacron
ENCODING 57407
SWIDTH 533 0
DWIDTH 8 0
BBX 8 15 0 -3
BITMAP
00
00
88
88
88
AE
AE
CA
EA
EA
AA
AA
00
7C
7C
ENDCHAR
STARTCHAR LtSmlLLring
ENCODING 57409
SWIDTH 533 0
DWIDTH 8 0
BBX 8 15 0 -3
BITMAP
00
00
38
18
18
18
18
18
18
18
18
7E
18
34
18
ENDCHAR
STARTCHAR LtSmlLMacronLring
ENCODING 57412
SWIDTH 533 0
DWIDTH 8 0
BBX 8 15 0 -3
BITMAP
3C
3C
00
38
18
18
18
18
18
18
18
7E
18
34
18
ENDCHAR
STARTCHAR LtCapOLmacron
ENCODING 57426
SWIDTH 533 0
DWIDTH 8 0
BBX 8 15 0 -3
BITMAP
00
00
7C
C6
C6
C6
C6
C6
C6
C6
C6
7C
00
7C
7C
ENDCHAR
STARTCHAR LtSmlOLmacron
ENCODING 57427
SWIDTH 533 0
DWIDTH 8 0
BBX 8 15 0 -3
BITMAP
00
00
00
00
00
7C
C6
C6
C6
C6
C6
7C
00
7C
7C
ENDCHAR
STARTCHAR LtCapOAcuteLdot
ENCODING 57428
SWIDTH 533 0
DWIDTH 8 0
BBX 8 15 0 -3
BITMAP
0C
18
10
7C
C6
C6
C6
C6
C6
C6
C6
7C
00
30
30
ENDCHAR
STARTCHAR LtSmlOAcuteLdot
ENCODING 57429
SWIDTH 533 0
DWIDTH 8 0
BBX 8 15 0 -3
BITMAP
00
0C
18
10
00
7C
C6
C6
C6
C6
C6
7C
00
30
30
ENDCHAR
STARTCHAR LtSmlOLinvbreve
ENCODING 57430
SWIDTH 533 0
DWIDTH 8 0
BBX 8 15 0 -3
BITMAP
00
00
00
00
00
7C
C6
C6
C6
C6
C6
7C
00
3C
66
ENDCHAR
STARTCHAR LtCapOGraveLdot
ENCODING 57433
SWIDTH 533 0
DWIDTH 8 0
BBX 8 15 0 -3
BITMAP
60
30
10
7C
C6
C6
C6
C6
C6
C6
C6
7C
00
30
30
ENDCHAR
STARTCHAR LtSmlOGraveLdot
ENCODING 57434
SWIDTH 533 0
DWIDTH 8 0
BBX 8 15 0 -3
BITMAP
00
60
30
10
00
7C
C6
C6
C6
C6
C6
7C
00
30
30
ENDCHAR
STARTCHAR LtCapPLdot
ENCODING 57437
SWIDTH 533 0
DWIDTH 8 0
BBX 8 15 0 -3
BITMAP
00
00
FC
C6
C6
C6
C6
FC
C0
C0
C0
C0
00
C0
C0
ENDCHAR
STARTCHAR LtSmlPLdot
ENCODING 57438
SWIDTH 533 0
DWIDTH 8 0
BBX 8 15 0 -3
BITMAP
00
00
00
00
00
DC
E6
C6
C6
C6
E6
DC
C0
D8
D8
ENDCHAR
STARTCHAR LtCapQLdot
ENCODING 57441
SWIDTH 533 0
DWIDTH 8 0
BBX 8 15 0 -3
BITMAP
00
00
7C
C6
C6
C6
C6
C6
C6
F6
DE
7C
06
32
30
ENDCHAR
STARTCHAR LtSmlQLdot
ENCODING 57442
SWIDTH 533 0
DWIDTH 8 0
BBX 8 15 0 -3
BITMAP
00
00
00
00
00
76
CE
C6
C6
C6
CE
76
06
36
36
ENDCHAR
STARTCHAR LtCapRLring
ENCODING 57443
SWIDTH 533 0
DWIDTH 8 0
BBX 8 15 0 -3
BITMAP
00
00
FC
C6
C6
C6
FC
D8
CC
CC
C6
C6
30
68
30
ENDCHAR
STARTCHAR LtSmlRLring
ENCODING 57444
SWIDTH 533 0
DWIDTH 8 0
BBX 8 15 0 -3
BITMAP
00
00
00
00
00
EE
76
60
60
60
60
60
60
D0
60
ENDCHAR
STARTCHAR LtSmlRLvline
ENCODING 57445
SWIDTH 533 0
DWIDTH 8 0
BBX 8 15 0 -3
BITMAP
00
00
00
00
00
EE
76
60
60
60
60
60
30
30
30
ENDCHAR
STARTCHAR LtCapRAcuteLdot
ENCODING 57446
SWIDTH 533 0
DWIDTH 8 0
BBX 8 15 0 -3
BITMAP
0C
18
10
FC
C6
C6
C6
FC
D8
CC
C6
C6
00
30
30
ENDCHAR
STARTCHAR LtSmlRAcuteLdot
ENCODING 57447
SWIDTH 533 0
DWIDTH 8 0
BBX 8 15 0 -3
BITMAP
00
0C
18
10
00
EE
76
60
60
60
60
60
00
60
60
ENDCHAR
STARTCHAR LtSmlRAcuteLring
ENCODING 57448
SWIDTH 533 0
DWIDTH 8 0
BBX 8 15 0 -3
BITMAP
00
0C
18
10
00
EE
76
60
60
60
60
60
60
D0
60
ENDCHAR
STARTCHAR LtCapRGraveLdot
ENCODING 57449
SWIDTH 533 0
DWIDTH 8 0
BBX 8 15 0 -3
BITMAP
60
30
10
FC
C6
C6
C6
FC
D8
CC
C6
C6
00
30
30
ENDCHAR
STARTCHAR LtSmlRGraveLdot
ENCODING 57450
SWIDTH 533 0
DWIDTH 8 0
BBX 8 15 0 -3
BITMAP
00
60
30
10
00
EE
76
60
60
60
60
60
00
60
60
ENDCHAR
STARTCHAR LtSmlRGraveLring
ENCODING 57451
SWIDTH 533 0
DWIDTH 8 0
BBX 8 15 0 -3
BITMAP
00
60
30
10
00
EE
76
60
60
60
60
60
60
D0
60
ENDCHAR
STARTCHAR LtSmlRMacronAcuteLdot
ENCODING 57453
SWIDTH 533 0
DWIDTH 8 0
BBX 8 15 0 -3
BITMAP
0C
18
10
7C
00
EE
76
60
60
60
60
60
00
60
60
ENDCHAR
STARTCHAR LtSmlRMacronLring
ENCODING 57454
SWIDTH 533 0
DWIDTH 8 0
BBX 8 15 0 -3
BITMAP
00
00
7C
7C
00
EE
76
60
60
60
60
60
60
D0
60
ENDCHAR
STARTCHAR LtSmlRMacronAcuteLring
ENCODING 57455
SWIDTH 533 0
DWIDTH 8 0
BBX 8 15 0 -3
BITMAP
0C
18
10
7C
00
EE
76
60
60
60
60
60
60
D0
60
ENDCHAR
STARTCHAR LtSmlULinvbreve
ENCODING 57456
SWIDTH 533 0
DWIDTH 8 0
BBX 8 15 0 -3
BITMAP
00
00
00
00
00
C6
C6
C6
C6
C6
CE
76
00
3C
66
ENDCHAR
STARTCHAR GkCapIotTrndLbreve
ENCODING 57483
SWIDTH 533 0
DWIDTH 8 0
BBX 8 15 0 -3
BITMAP
00
00
7E
18
18
18
18
18
18
18
18
7E
00
66
3C
ENDCHAR
STARTCHAR GkSmlIotTrndLbreve
ENCODING 57484
SWIDTH 533 0
DWIDTH 8 0
BBX 8 15 0 -3
BITMAP
00
00
00
00
00
38
6C
0C
0C
0C
0E
0C
00
36
1C
ENDCHAR
STARTCHAR GkCapUpsTrndLbreve
ENCODING 57486
SWIDTH 533 0
DWIDTH 8 0
BBX 8 15 0 -3
BITMAP
00
00
18
18
18
18
18
1C
2C
26
46
C2
00
66
3C
ENDCHAR
STARTCHAR GkSmlUpsTrndLbreve
ENCODING 57487
SWIDTH 533 0
DWIDTH 8 0
BBX 8 15 0 -3
BITMAP
00
00
00
00
00
78
CC
8C
8C
CC
CE
46
00
66
3C
ENDCHAR
STARTCHAR GeEnMacron
ENCODING 57493
SWIDTH 533 0
DWIDTH 8 0
BBX 8 15 0 -3
BITMAP
00
00
00
3C
3C
00
3C
66
66
06
06
06
C6
C6
7C
ENDCHAR
STARTCHAR GeUnCircum
ENCODING 57497
SWIDTH 533 0
DWIDTH 8 0
BBX 8 15 0 -3
BITMAP
00
00
30
78
48
00
DC
F6
36
36
06
06
C6
C6
7C
ENDCHAR
STARTCHAR GeUnMacron
ENCODING 57498
SWIDTH 533 0
DWIDTH 8 0
BBX 8 15 0 -3
BITMAP
00
00
00
3C
3C
00
DC
F6
36
36
06
06
C6
C6
7C
ENDCHAR
STARTCHAR GeUnDrss
ENCODING 57499
SWIDTH 533 0
DWIDTH 8 0
BBX 8 15 0 -3
BITMAP
00
00
00
6C
6C
00
DC
F6
36
36
06
06
C6
C6
7C
ENDCHAR
STARTCHAR GeUo
ENCODING 57500
SWIDTH 533 0
DWIDTH 8 0
BBX 8 15 0 -3
BITMAP
00
00
00
00
00
00
76
DE
D8
D8
C0
C0
C6
C6
7C
ENDCHAR
STARTCHAR HbAlefPatah
ENCODING 64302
SWIDTH 533 0
DWIDTH 8 0
BBX 8 15 0 -3
BITMAP
00
00
00
00
8C
CE
E6
7C
DC
CE
E6
E2
00
7C
00
ENDCHAR
STARTCHAR HbAlefQamats
ENCODING 64303
SWIDTH 533 0
DWIDTH 8 0
BBX 8 15 0 -3
BITMAP
00
00
00
00
8C
CE
E6
7C
DC
CE
E6
E2
00
7E
18
ENDCHAR
ENDFONT
