STARTFONT 2.1
FONT -opf-uw-ttyp0-medium-r-normal--13-130-75-75-p-130-iso10646-1
SIZE 13 75 75
FONTBOUNDINGBOX 7 13 0 -2
STARTPROPERTIES 19
FONTNAME_REGISTRY ""
FOUNDRY "UW"
FAMILY_NAME "Ttyp0"
WEIGHT_NAME "Medium"
SLANT "R"
SETWIDTH_NAME "Normal"
ADD_STYLE_NAME ""
PIXEL_SIZE 13
POINT_SIZE 120
RESOLUTION_X 75
RESOLUTION_Y 75
SPACING "C"
AVERAGE_WIDTH 70
CHARSET_REGISTRY "ISO10646"
CHARSET_ENCODING "1"
DEFAULT_CHAR 0
FONT_DESCENT 2
FONT_ASCENT 11
COPYRIGHT "Copyright (C) 2012-2015 Uwe Waldmann"
ENDPROPERTIES
CHARS 234
STARTCHAR CombLdot
ENCODING 803
SWIDTH 538 0
DWIDTH 7 0
BBX 7 13 0 -2
BITMAP
00
00
00
00
00
00
00
00
00
00
00
00
30
ENDCHAR
STARTCHAR CombLdrss
ENCODING 804
SWIDTH 538 0
DWIDTH 7 0
BBX 7 13 0 -2
BITMAP
00
00
00
00
00
00
00
00
00
00
00
00
6C
ENDCHAR
STARTCHAR CombLvline
ENCODING 809
SWIDTH 538 0
DWIDTH 7 0
BBX 7 13 0 -2
BITMAP
00
00
00
00
00
00
00
00
00
00
00
10
10
ENDCHAR
STARTCHAR CombLcaron
ENCODING 812
SWIDTH 538 0
DWIDTH 7 0
BBX 7 13 0 -2
BITMAP
00
00
00
00
00
00
00
00
00
00
00
28
10
ENDCHAR
STARTCHAR CombLcircum
ENCODING 813
SWIDTH 538 0
DWIDTH 7 0
BBX 7 13 0 -2
BITMAP
00
00
00
00
00
00
00
00
00
00
00
10
28
ENDCHAR
STARTCHAR CombLbreve
ENCODING 814
SWIDTH 538 0
DWIDTH 7 0
BBX 7 13 0 -2
BITMAP
00
00
00
00
00
00
00
00
00
00
00
48
30
ENDCHAR
STARTCHAR CombLinvbreve
ENCODING 815
SWIDTH 538 0
DWIDTH 7 0
BBX 7 13 0 -2
BITMAP
00
00
00
00
00
00
00
00
00
00
00
30
48
ENDCHAR
STARTCHAR CombLtilde
ENCODING 816
SWIDTH 538 0
DWIDTH 7 0
BBX 7 13 0 -2
BITMAP
00
00
00
00
00
00
00
00
00
00
00
24
58
ENDCHAR
STARTCHAR CombLmacron
ENCODING 817
SWIDTH 538 0
DWIDTH 7 0
BBX 7 13 0 -2
BITMAP
00
00
00
00
00
00
00
00
00
00
00
00
7C
ENDCHAR
STARTCHAR CombLvline2
ENCODING 840
SWIDTH 538 0
DWIDTH 7 0
BBX 7 13 0 -2
BITMAP
00
00
00
00
00
00
00
00
00
00
00
48
48
ENDCHAR
STARTCHAR AmSmlEh
ENCODING 1383
SWIDTH 538 0
DWIDTH 7 0
BBX 7 13 0 -2
BITMAP
00
40
40
40
40
7C
40
40
40
40
38
04
08
ENDCHAR
STARTCHAR AmSmlYi
ENCODING 1397
SWIDTH 538 0
DWIDTH 7 0
BBX 7 13 0 -2
BITMAP
00
00
00
00
00
30
10
10
10
10
10
10
E0
ENDCHAR
STARTCHAR AmSmlSha
ENCODING 1399
SWIDTH 538 0
DWIDTH 7 0
BBX 7 13 0 -2
BITMAP
00
00
00
00
00
38
44
04
08
10
20
40
3C
ENDCHAR
STARTCHAR AmSmlCha
ENCODING 1401
SWIDTH 538 0
DWIDTH 7 0
BBX 7 13 0 -2
BITMAP
00
00
00
00
00
10
20
10
08
10
20
40
3C
ENDCHAR
STARTCHAR AmSmlJheh
ENCODING 1403
SWIDTH 538 0
DWIDTH 7 0
BBX 7 13 0 -2
BITMAP
00
38
44
44
44
44
28
28
10
20
40
40
3C
ENDCHAR
STARTCHAR AmSmlCo
ENCODING 1409
SWIDTH 538 0
DWIDTH 7 0
BBX 7 13 0 -2
BITMAP
00
00
00
00
00
3C
44
44
44
3C
04
44
38
ENDCHAR
STARTCHAR AmSmlKeh
ENCODING 1412
SWIDTH 538 0
DWIDTH 7 0
BBX 7 13 0 -2
BITMAP
00
00
00
00
00
78
44
44
44
78
40
F8
40
ENDCHAR
STARTCHAR CombHbHatafQamats
ENCODING 1459
SWIDTH 538 0
DWIDTH 7 0
BBX 7 13 0 -2
BITMAP
00
00
00
00
00
00
00
00
00
00
04
70
24
ENDCHAR
STARTCHAR CombHbSegol
ENCODING 1462
SWIDTH 538 0
DWIDTH 7 0
BBX 7 13 0 -2
BITMAP
00
00
00
00
00
00
00
00
00
00
00
44
10
ENDCHAR
STARTCHAR CombHbPatah
ENCODING 1463
SWIDTH 538 0
DWIDTH 7 0
BBX 7 13 0 -2
BITMAP
00
00
00
00
00
00
00
00
00
00
00
00
78
ENDCHAR
STARTCHAR CombHbQamats
ENCODING 1464
SWIDTH 538 0
DWIDTH 7 0
BBX 7 13 0 -2
BITMAP
00
00
00
00
00
00
00
00
00
00
00
38
10
ENDCHAR
STARTCHAR CombHbMeteg
ENCODING 1469
SWIDTH 538 0
DWIDTH 7 0
BBX 7 13 0 -2
BITMAP
00
00
00
00
00
00
00
00
00
00
10
10
10
ENDCHAR
STARTCHAR ThYoYing
ENCODING 3597
SWIDTH 538 0
DWIDTH 7 0
BBX 7 13 0 -2
BITMAP
00
00
00
00
64
94
94
94
94
94
8C
04
1C
ENDCHAR
STARTCHAR ThDoChada
ENCODING 3598
SWIDTH 538 0
DWIDTH 7 0
BBX 7 13 0 -2
BITMAP
00
00
00
00
38
44
64
24
24
64
64
04
3C
ENDCHAR
STARTCHAR ThToPatak
ENCODING 3599
SWIDTH 538 0
DWIDTH 7 0
BBX 7 13 0 -2
BITMAP
00
00
00
00
38
44
64
24
24
64
44
14
3C
ENDCHAR
STARTCHAR ThThoThan
ENCODING 3600
SWIDTH 538 0
DWIDTH 7 0
BBX 7 13 0 -2
BITMAP
00
00
00
00
7C
08
04
34
34
0C
04
58
7C
ENDCHAR
STARTCHAR ThRu
ENCODING 3620
SWIDTH 538 0
DWIDTH 7 0
BBX 7 13 0 -2
BITMAP
00
00
00
00
38
44
64
24
24
34
34
04
04
ENDCHAR
STARTCHAR ThLu
ENCODING 3622
SWIDTH 538 0
DWIDTH 7 0
BBX 7 13 0 -2
BITMAP
00
00
00
00
38
44
64
24
24
64
64
04
04
ENDCHAR
STARTCHAR ThSaraU
ENCODING 3640
SWIDTH 538 0
DWIDTH 7 0
BBX 7 13 0 -2
BITMAP
00
00
00
00
00
00
00
00
00
00
00
0C
04
ENDCHAR
STARTCHAR ThSaraUu
ENCODING 3641
SWIDTH 538 0
DWIDTH 7 0
BBX 7 13 0 -2
BITMAP
00
00
00
00
00
00
00
00
00
00
00
34
1C
ENDCHAR
STARTCHAR ThPhinthu
ENCODING 3642
SWIDTH 538 0
DWIDTH 7 0
BBX 7 13 0 -2
BITMAP
00
00
00
00
00
00
00
00
00
00
00
00
0C
ENDCHAR
STARTCHAR ThLakkhangyao
ENCODING 3653
SWIDTH 538 0
DWIDTH 7 0
BBX 7 13 0 -2
BITMAP
00
00
00
00
30
48
48
08
08
08
08
08
08
ENDCHAR
STARTCHAR ThMaiyamok
ENCODING 3654
SWIDTH 538 0
DWIDTH 7 0
BBX 7 13 0 -2
BITMAP
00
00
00
00
28
54
44
64
64
04
04
04
08
ENDCHAR
STARTCHAR GeGan
ENCODING 4306
SWIDTH 538 0
DWIDTH 7 0
BBX 7 13 0 -2
BITMAP
00
00
00
00
00
60
50
10
38
44
44
44
38
ENDCHAR
STARTCHAR GeDon
ENCODING 4307
SWIDTH 538 0
DWIDTH 7 0
BBX 7 13 0 -2
BITMAP
00
00
00
00
00
38
44
44
44
38
20
78
04
ENDCHAR
STARTCHAR GeEn
ENCODING 4308
SWIDTH 538 0
DWIDTH 7 0
BBX 7 13 0 -2
BITMAP
00
00
00
00
00
18
24
24
04
04
44
44
38
ENDCHAR
STARTCHAR GeVin
ENCODING 4309
SWIDTH 538 0
DWIDTH 7 0
BBX 7 13 0 -2
BITMAP
00
00
00
00
00
18
24
04
18
04
44
44
38
ENDCHAR
STARTCHAR GeKan
ENCODING 4313
SWIDTH 538 0
DWIDTH 7 0
BBX 7 13 0 -2
BITMAP
00
00
00
00
00
04
04
04
18
04
44
44
38
ENDCHAR
STARTCHAR GeLas
ENCODING 4314
SWIDTH 538 0
DWIDTH 7 0
BBX 7 13 0 -2
BITMAP
00
00
00
00
00
38
44
44
44
44
20
78
04
ENDCHAR
STARTCHAR GeZhar
ENCODING 4319
SWIDTH 538 0
DWIDTH 7 0
BBX 7 13 0 -2
BITMAP
00
00
00
00
00
1C
54
54
24
04
44
44
38
ENDCHAR
STARTCHAR GeTar
ENCODING 4322
SWIDTH 538 0
DWIDTH 7 0
BBX 7 13 0 -2
BITMAP
00
00
00
10
28
38
54
44
82
82
82
44
38
ENDCHAR
STARTCHAR GeUn
ENCODING 4323
SWIDTH 538 0
DWIDTH 7 0
BBX 7 13 0 -2
BITMAP
00
00
00
00
00
58
74
24
24
04
44
44
38
ENDCHAR
STARTCHAR GePhar
ENCODING 4324
SWIDTH 538 0
DWIDTH 7 0
BBX 7 13 0 -2
BITMAP
00
00
00
00
00
6C
92
92
A2
4C
02
22
1C
ENDCHAR
STARTCHAR GeKhar
ENCODING 4325
SWIDTH 538 0
DWIDTH 7 0
BBX 7 13 0 -2
BITMAP
00
00
04
0C
04
04
3C
24
04
04
44
44
38
ENDCHAR
STARTCHAR GeGhan
ENCODING 4326
SWIDTH 538 0
DWIDTH 7 0
BBX 7 13 0 -2
BITMAP
00
00
00
00
00
28
54
54
54
44
20
78
04
ENDCHAR
STARTCHAR GeQar
ENCODING 4327
SWIDTH 538 0
DWIDTH 7 0
BBX 7 13 0 -2
BITMAP
00
00
00
00
00
44
44
44
3C
04
44
44
38
ENDCHAR
STARTCHAR GeCan
ENCODING 4330
SWIDTH 538 0
DWIDTH 7 0
BBX 7 13 0 -2
BITMAP
00
00
00
00
00
28
48
44
44
58
44
44
38
ENDCHAR
STARTCHAR GeCil
ENCODING 4332
SWIDTH 538 0
DWIDTH 7 0
BBX 7 13 0 -2
BITMAP
00
00
28
54
54
40
40
7C
28
28
10
10
10
ENDCHAR
STARTCHAR GeChar
ENCODING 4333
SWIDTH 538 0
DWIDTH 7 0
BBX 7 13 0 -2
BITMAP
00
00
20
10
08
08
2C
58
2C
08
48
48
30
ENDCHAR
STARTCHAR GeWe
ENCODING 4339
SWIDTH 538 0
DWIDTH 7 0
BBX 7 13 0 -2
BITMAP
00
00
00
00
00
3C
04
08
18
04
44
44
38
ENDCHAR
STARTCHAR GeHar
ENCODING 4340
SWIDTH 538 0
DWIDTH 7 0
BBX 7 13 0 -2
BITMAP
00
00
08
10
10
0C
04
08
18
04
44
44
38
ENDCHAR
STARTCHAR GeFi
ENCODING 4342
SWIDTH 538 0
DWIDTH 7 0
BBX 7 13 0 -2
BITMAP
00
00
00
00
00
28
54
54
54
54
18
10
20
ENDCHAR
STARTCHAR GeYn
ENCODING 4343
SWIDTH 538 0
DWIDTH 7 0
BBX 7 13 0 -2
BITMAP
00
00
00
00
00
38
24
04
18
20
44
44
38
ENDCHAR
STARTCHAR GeElifi
ENCODING 4344
SWIDTH 538 0
DWIDTH 7 0
BBX 7 13 0 -2
BITMAP
00
00
00
00
00
44
44
44
78
40
44
44
38
ENDCHAR
STARTCHAR GeGanTrnd
ENCODING 4345
SWIDTH 538 0
DWIDTH 7 0
BBX 7 13 0 -2
BITMAP
00
00
00
00
00
38
44
44
44
38
10
14
0C
ENDCHAR
STARTCHAR LtCapALring
ENCODING 7680
SWIDTH 538 0
DWIDTH 7 0
BBX 7 13 0 -2
BITMAP
00
00
30
30
30
48
48
78
84
84
94
28
10
ENDCHAR
STARTCHAR LtSmlALring
ENCODING 7681
SWIDTH 538 0
DWIDTH 7 0
BBX 7 13 0 -2
BITMAP
00
00
00
00
38
04
04
3C
44
44
3C
28
10
ENDCHAR
STARTCHAR LtCapBLdot
ENCODING 7684
SWIDTH 538 0
DWIDTH 7 0
BBX 7 13 0 -2
BITMAP
00
00
78
44
44
44
78
44
44
44
78
00
30
ENDCHAR
STARTCHAR LtSmlBLdot
ENCODING 7685
SWIDTH 538 0
DWIDTH 7 0
BBX 7 13 0 -2
BITMAP
00
40
40
40
58
64
44
44
44
64
58
00
18
ENDCHAR
STARTCHAR LtCapBLmacron
ENCODING 7686
SWIDTH 538 0
DWIDTH 7 0
BBX 7 13 0 -2
BITMAP
00
00
78
44
44
44
78
44
44
44
78
00
7C
ENDCHAR
STARTCHAR LtSmlBLmacron
ENCODING 7687
SWIDTH 538 0
DWIDTH 7 0
BBX 7 13 0 -2
BITMAP
00
40
40
40
58
64
44
44
44
64
58
00
7C
ENDCHAR
STARTCHAR LtCapDLdot
ENCODING 7692
SWIDTH 538 0
DWIDTH 7 0
BBX 7 13 0 -2
BITMAP
00
00
70
48
44
44
44
44
44
48
70
00
30
ENDCHAR
STARTCHAR LtSmlDLdot
ENCODING 7693
SWIDTH 538 0
DWIDTH 7 0
BBX 7 13 0 -2
BITMAP
00
04
04
04
34
4C
44
44
44
4C
34
00
30
ENDCHAR
STARTCHAR LtCapDLmacron
ENCODING 7694
SWIDTH 538 0
DWIDTH 7 0
BBX 7 13 0 -2
BITMAP
00
00
70
48
44
44
44
44
44
48
70
00
7C
ENDCHAR
STARTCHAR LtSmlDLmacron
ENCODING 7695
SWIDTH 538 0
DWIDTH 7 0
BBX 7 13 0 -2
BITMAP
00
04
04
04
34
4C
44
44
44
4C
34
00
7C
ENDCHAR
STARTCHAR LtCapDLcircum
ENCODING 7698
SWIDTH 538 0
DWIDTH 7 0
BBX 7 13 0 -2
BITMAP
00
00
70
48
44
44
44
44
44
48
70
20
50
ENDCHAR
STARTCHAR LtSmlDLcircum
ENCODING 7699
SWIDTH 538 0
DWIDTH 7 0
BBX 7 13 0 -2
BITMAP
00
04
04
04
34
4C
44
44
44
4C
34
10
28
ENDCHAR
STARTCHAR LtCapELcircum
ENCODING 7704
SWIDTH 538 0
DWIDTH 7 0
BBX 7 13 0 -2
BITMAP
00
00
7C
40
40
40
78
40
40
40
7C
10
28
ENDCHAR
STARTCHAR LtSmlELcircum
ENCODING 7705
SWIDTH 538 0
DWIDTH 7 0
BBX 7 13 0 -2
BITMAP
00
00
00
00
38
44
44
7C
40
40
38
10
28
ENDCHAR
STARTCHAR LtCapELtilde
ENCODING 7706
SWIDTH 538 0
DWIDTH 7 0
BBX 7 13 0 -2
BITMAP
00
00
7C
40
40
40
78
40
40
40
7C
24
58
ENDCHAR
STARTCHAR LtSmlELtilde
ENCODING 7707
SWIDTH 538 0
DWIDTH 7 0
BBX 7 13 0 -2
BITMAP
00
00
00
00
38
44
44
7C
40
40
38
24
58
ENDCHAR
STARTCHAR LtCapHLdot
ENCODING 7716
SWIDTH 538 0
DWIDTH 7 0
BBX 7 13 0 -2
BITMAP
00
00
44
44
44
44
7C
44
44
44
44
00
30
ENDCHAR
STARTCHAR LtSmlHLdot
ENCODING 7717
SWIDTH 538 0
DWIDTH 7 0
BBX 7 13 0 -2
BITMAP
00
40
40
40
58
64
44
44
44
44
44
00
30
ENDCHAR
STARTCHAR LtCapHLbreve
ENCODING 7722
SWIDTH 538 0
DWIDTH 7 0
BBX 7 13 0 -2
BITMAP
00
00
44
44
44
7C
44
44
44
44
00
24
18
ENDCHAR
STARTCHAR LtSmlHLbreve
ENCODING 7723
SWIDTH 538 0
DWIDTH 7 0
BBX 7 13 0 -2
BITMAP
00
40
40
40
58
64
44
44
44
44
00
24
18
ENDCHAR
STARTCHAR LtCapILtilde
ENCODING 7724
SWIDTH 538 0
DWIDTH 7 0
BBX 7 13 0 -2
BITMAP
00
00
7C
10
10
10
10
10
10
10
7C
24
58
ENDCHAR
STARTCHAR LtSmlILtilde
ENCODING 7725
SWIDTH 538 0
DWIDTH 7 0
BBX 7 13 0 -2
BITMAP
00
10
10
00
30
10
10
10
10
10
7C
24
58
ENDCHAR
STARTCHAR LtCapKLdot
ENCODING 7730
SWIDTH 538 0
DWIDTH 7 0
BBX 7 13 0 -2
BITMAP
00
00
44
44
48
50
70
48
48
44
44
00
30
ENDCHAR
STARTCHAR LtSmlKLdot
ENCODING 7731
SWIDTH 538 0
DWIDTH 7 0
BBX 7 13 0 -2
BITMAP
00
40
40
40
44
48
50
60
50
48
44
00
30
ENDCHAR
STARTCHAR LtCapKLmacron
ENCODING 7732
SWIDTH 538 0
DWIDTH 7 0
BBX 7 13 0 -2
BITMAP
00
00
44
44
48
50
70
48
48
44
44
00
7C
ENDCHAR
STARTCHAR LtSmlKLmacron
ENCODING 7733
SWIDTH 538 0
DWIDTH 7 0
BBX 7 13 0 -2
BITMAP
00
40
40
40
44
48
50
60
50
48
44
00
7C
ENDCHAR
STARTCHAR LtCapLLdot
ENCODING 7734
SWIDTH 538 0
DWIDTH 7 0
BBX 7 13 0 -2
BITMAP
00
00
40
40
40
40
40
40
40
40
7C
00
30
ENDCHAR
STARTCHAR LtSmlLLdot
ENCODING 7735
SWIDTH 538 0
DWIDTH 7 0
BBX 7 13 0 -2
BITMAP
00
30
10
10
10
10
10
10
10
10
7C
00
30
ENDCHAR
STARTCHAR LtCapLMacronLdot
ENCODING 7736
SWIDTH 538 0
DWIDTH 7 0
BBX 7 13 0 -2
BITMAP
78
00
40
40
40
40
40
40
40
40
7C
00
30
ENDCHAR
STARTCHAR LtSmlLMacronLdot
ENCODING 7737
SWIDTH 538 0
DWIDTH 7 0
BBX 7 13 0 -2
BITMAP
78
00
30
10
10
10
10
10
10
10
7C
00
30
ENDCHAR
STARTCHAR LtCapLLmacron
ENCODING 7738
SWIDTH 538 0
DWIDTH 7 0
BBX 7 13 0 -2
BITMAP
00
00
40
40
40
40
40
40
40
40
7C
00
7C
ENDCHAR
STARTCHAR LtSmlLLmacron
ENCODING 7739
SWIDTH 538 0
DWIDTH 7 0
BBX 7 13 0 -2
BITMAP
00
30
10
10
10
10
10
10
10
10
7C
00
7C
ENDCHAR
STARTCHAR LtCapLLcircum
ENCODING 7740
SWIDTH 538 0
DWIDTH 7 0
BBX 7 13 0 -2
BITMAP
00
00
40
40
40
40
40
40
40
40
7C
10
28
ENDCHAR
STARTCHAR LtSmlLLcircum
ENCODING 7741
SWIDTH 538 0
DWIDTH 7 0
BBX 7 13 0 -2
BITMAP
00
30
10
10
10
10
10
10
10
10
7C
10
28
ENDCHAR
STARTCHAR LtCapMLdot
ENCODING 7746
SWIDTH 538 0
DWIDTH 7 0
BBX 7 13 0 -2
BITMAP
00
00
84
84
CC
CC
B4
B4
84
84
84
00
30
ENDCHAR
STARTCHAR LtSmlMLdot
ENCODING 7747
SWIDTH 538 0
DWIDTH 7 0
BBX 7 13 0 -2
BITMAP
00
00
00
00
EC
92
92
92
92
92
92
00
30
ENDCHAR
STARTCHAR LtCapNLdot
ENCODING 7750
SWIDTH 538 0
DWIDTH 7 0
BBX 7 13 0 -2
BITMAP
00
00
44
44
64
64
54
4C
4C
44
44
00
30
ENDCHAR
STARTCHAR LtSmlNLdot
ENCODING 7751
SWIDTH 538 0
DWIDTH 7 0
BBX 7 13 0 -2
BITMAP
00
00
00
00
58
64
44
44
44
44
44
00
30
ENDCHAR
STARTCHAR LtCapNLmacron
ENCODING 7752
SWIDTH 538 0
DWIDTH 7 0
BBX 7 13 0 -2
BITMAP
00
00
44
44
64
64
54
4C
4C
44
44
00
7C
ENDCHAR
STARTCHAR LtSmlNLmacron
ENCODING 7753
SWIDTH 538 0
DWIDTH 7 0
BBX 7 13 0 -2
BITMAP
00
00
00
00
58
64
44
44
44
44
44
00
7C
ENDCHAR
STARTCHAR LtCapNLcircum
ENCODING 7754
SWIDTH 538 0
DWIDTH 7 0
BBX 7 13 0 -2
BITMAP
00
00
44
44
64
64
54
4C
4C
44
44
10
28
ENDCHAR
STARTCHAR LtSmlNLcircum
ENCODING 7755
SWIDTH 538 0
DWIDTH 7 0
BBX 7 13 0 -2
BITMAP
00
00
00
00
58
64
44
44
44
44
44
10
28
ENDCHAR
STARTCHAR LtCapRLdot
ENCODING 7770
SWIDTH 538 0
DWIDTH 7 0
BBX 7 13 0 -2
BITMAP
00
00
78
44
44
44
78
50
48
44
44
00
30
ENDCHAR
STARTCHAR LtSmlRLdot
ENCODING 7771
SWIDTH 538 0
DWIDTH 7 0
BBX 7 13 0 -2
BITMAP
00
00
00
00
6C
34
20
20
20
20
20
00
30
ENDCHAR
STARTCHAR LtCapRMacronLdot
ENCODING 7772
SWIDTH 538 0
DWIDTH 7 0
BBX 7 13 0 -2
BITMAP
78
00
78
44
44
44
78
50
48
44
44
00
30
ENDCHAR
STARTCHAR LtSmlRMacronLdot
ENCODING 7773
SWIDTH 538 0
DWIDTH 7 0
BBX 7 13 0 -2
BITMAP
00
00
3C
00
6C
34
20
20
20
20
20
00
30
ENDCHAR
STARTCHAR LtCapRLmacron
ENCODING 7774
SWIDTH 538 0
DWIDTH 7 0
BBX 7 13 0 -2
BITMAP
00
00
78
44
44
44
78
50
48
44
44
00
7C
ENDCHAR
STARTCHAR LtSmlRLmacron
ENCODING 7775
SWIDTH 538 0
DWIDTH 7 0
BBX 7 13 0 -2
BITMAP
00
00
00
00
6C
34
20
20
20
20
20
00
78
ENDCHAR
STARTCHAR LtCapSLdot
ENCODING 7778
SWIDTH 538 0
DWIDTH 7 0
BBX 7 13 0 -2
BITMAP
00
00
38
44
40
40
38
04
04
44
38
00
30
ENDCHAR
STARTCHAR LtSmlSLdot
ENCODING 7779
SWIDTH 538 0
DWIDTH 7 0
BBX 7 13 0 -2
BITMAP
00
00
00
00
38
44
40
38
04
44
38
00
30
ENDCHAR
STARTCHAR LtCapSDotLdot
ENCODING 7784
SWIDTH 538 0
DWIDTH 7 0
BBX 7 13 0 -2
BITMAP
10
10
00
38
44
40
38
04
04
44
38
00
30
ENDCHAR
STARTCHAR LtSmlSDotLdot
ENCODING 7785
SWIDTH 538 0
DWIDTH 7 0
BBX 7 13 0 -2
BITMAP
00
10
10
00
38
44
40
38
04
44
38
00
30
ENDCHAR
STARTCHAR LtCapTLdot
ENCODING 7788
SWIDTH 538 0
DWIDTH 7 0
BBX 7 13 0 -2
BITMAP
00
00
7C
10
10
10
10
10
10
10
10
00
30
ENDCHAR
STARTCHAR LtSmlTLdot
ENCODING 7789
SWIDTH 538 0
DWIDTH 7 0
BBX 7 13 0 -2
BITMAP
00
00
20
20
78
20
20
20
20
24
18
00
18
ENDCHAR
STARTCHAR LtCapTLmacron
ENCODING 7790
SWIDTH 538 0
DWIDTH 7 0
BBX 7 13 0 -2
BITMAP
00
00
7C
10
10
10
10
10
10
10
10
00
78
ENDCHAR
STARTCHAR LtSmlTLmacron
ENCODING 7791
SWIDTH 538 0
DWIDTH 7 0
BBX 7 13 0 -2
BITMAP
00
00
20
20
78
20
20
20
20
24
18
00
3C
ENDCHAR
STARTCHAR LtCapTLcircum
ENCODING 7792
SWIDTH 538 0
DWIDTH 7 0
BBX 7 13 0 -2
BITMAP
00
00
7C
10
10
10
10
10
10
10
10
10
28
ENDCHAR
STARTCHAR LtSmlTLcircum
ENCODING 7793
SWIDTH 538 0
DWIDTH 7 0
BBX 7 13 0 -2
BITMAP
00
00
20
20
78
20
20
20
20
24
18
10
28
ENDCHAR
STARTCHAR LtCapULdrss
ENCODING 7794
SWIDTH 538 0
DWIDTH 7 0
BBX 7 13 0 -2
BITMAP
00
00
44
44
44
44
44
44
44
44
38
00
6C
ENDCHAR
STARTCHAR LtSmlULdrss
ENCODING 7795
SWIDTH 538 0
DWIDTH 7 0
BBX 7 13 0 -2
BITMAP
00
00
00
00
44
44
44
44
44
4C
34
00
6C
ENDCHAR
STARTCHAR LtCapULtilde
ENCODING 7796
SWIDTH 538 0
DWIDTH 7 0
BBX 7 13 0 -2
BITMAP
00
00
44
44
44
44
44
44
44
44
38
24
58
ENDCHAR
STARTCHAR LtSmlULtilde
ENCODING 7797
SWIDTH 538 0
DWIDTH 7 0
BBX 7 13 0 -2
BITMAP
00
00
00
00
44
44
44
44
44
4C
34
24
58
ENDCHAR
STARTCHAR LtCapULcircum
ENCODING 7798
SWIDTH 538 0
DWIDTH 7 0
BBX 7 13 0 -2
BITMAP
00
00
44
44
44
44
44
44
44
44
38
10
28
ENDCHAR
STARTCHAR LtSmlULcircum
ENCODING 7799
SWIDTH 538 0
DWIDTH 7 0
BBX 7 13 0 -2
BITMAP
00
00
00
00
44
44
44
44
44
4C
34
10
28
ENDCHAR
STARTCHAR LtCapVLdot
ENCODING 7806
SWIDTH 538 0
DWIDTH 7 0
BBX 7 13 0 -2
BITMAP
00
00
44
44
44
44
44
28
28
10
10
00
30
ENDCHAR
STARTCHAR LtSmlVLdot
ENCODING 7807
SWIDTH 538 0
DWIDTH 7 0
BBX 7 13 0 -2
BITMAP
00
00
00
00
44
44
44
28
28
10
10
00
30
ENDCHAR
STARTCHAR LtCapWLdot
ENCODING 7816
SWIDTH 538 0
DWIDTH 7 0
BBX 7 13 0 -2
BITMAP
00
00
82
82
92
92
92
6C
6C
44
44
00
30
ENDCHAR
STARTCHAR LtSmlWLdot
ENCODING 7817
SWIDTH 538 0
DWIDTH 7 0
BBX 7 13 0 -2
BITMAP
00
00
00
00
82
92
92
92
6C
44
44
00
30
ENDCHAR
STARTCHAR LtCapZLdot
ENCODING 7826
SWIDTH 538 0
DWIDTH 7 0
BBX 7 13 0 -2
BITMAP
00
00
7C
04
08
08
10
20
20
40
7C
00
30
ENDCHAR
STARTCHAR LtSmlZLdot
ENCODING 7827
SWIDTH 538 0
DWIDTH 7 0
BBX 7 13 0 -2
BITMAP
00
00
00
00
7C
04
08
10
20
40
7C
00
30
ENDCHAR
STARTCHAR LtCapZLmacron
ENCODING 7828
SWIDTH 538 0
DWIDTH 7 0
BBX 7 13 0 -2
BITMAP
00
00
7C
04
08
08
10
20
20
40
7C
00
7C
ENDCHAR
STARTCHAR LtSmlZLmacron
ENCODING 7829
SWIDTH 538 0
DWIDTH 7 0
BBX 7 13 0 -2
BITMAP
00
00
00
00
7C
04
08
10
20
40
7C
00
7C
ENDCHAR
STARTCHAR LtSmlHLmacron
ENCODING 7830
SWIDTH 538 0
DWIDTH 7 0
BBX 7 13 0 -2
BITMAP
00
40
40
40
58
64
44
44
44
44
44
00
7C
ENDCHAR
STARTCHAR LtCapALdot
ENCODING 7840
SWIDTH 538 0
DWIDTH 7 0
BBX 7 13 0 -2
BITMAP
00
00
30
30
30
48
48
78
84
84
84
00
30
ENDCHAR
STARTCHAR LtSmlALdot
ENCODING 7841
SWIDTH 538 0
DWIDTH 7 0
BBX 7 13 0 -2
BITMAP
00
00
00
00
38
04
04
3C
44
44
3C
00
30
ENDCHAR
STARTCHAR LtCapACircumLdot
ENCODING 7852
SWIDTH 538 0
DWIDTH 7 0
BBX 7 13 0 -2
BITMAP
30
48
00
30
30
48
48
78
84
84
84
00
30
ENDCHAR
STARTCHAR LtSmlACircumLdot
ENCODING 7853
SWIDTH 538 0
DWIDTH 7 0
BBX 7 13 0 -2
BITMAP
00
18
24
00
38
04
04
3C
44
44
3C
00
30
ENDCHAR
STARTCHAR LtCapABreveLdot
ENCODING 7862
SWIDTH 538 0
DWIDTH 7 0
BBX 7 13 0 -2
BITMAP
48
30
00
30
30
48
48
78
84
84
84
00
30
ENDCHAR
STARTCHAR LtSmlABreveLdot
ENCODING 7863
SWIDTH 538 0
DWIDTH 7 0
BBX 7 13 0 -2
BITMAP
00
24
18
00
38
04
04
3C
44
44
3C
00
30
ENDCHAR
STARTCHAR LtCapELdot
ENCODING 7864
SWIDTH 538 0
DWIDTH 7 0
BBX 7 13 0 -2
BITMAP
00
00
7C
40
40
40
78
40
40
40
7C
00
30
ENDCHAR
STARTCHAR LtSmlELdot
ENCODING 7865
SWIDTH 538 0
DWIDTH 7 0
BBX 7 13 0 -2
BITMAP
00
00
00
00
38
44
44
7C
40
40
38
00
30
ENDCHAR
STARTCHAR LtCapECircumLdot
ENCODING 7878
SWIDTH 538 0
DWIDTH 7 0
BBX 7 13 0 -2
BITMAP
18
24
00
7C
40
40
78
40
40
40
7C
00
30
ENDCHAR
STARTCHAR LtSmlECircumLdot
ENCODING 7879
SWIDTH 538 0
DWIDTH 7 0
BBX 7 13 0 -2
BITMAP
00
18
24
00
38
44
44
7C
40
40
38
00
30
ENDCHAR
STARTCHAR LtCapILdot
ENCODING 7882
SWIDTH 538 0
DWIDTH 7 0
BBX 7 13 0 -2
BITMAP
00
00
7C
10
10
10
10
10
10
10
7C
00
30
ENDCHAR
STARTCHAR LtSmlILdot
ENCODING 7883
SWIDTH 538 0
DWIDTH 7 0
BBX 7 13 0 -2
BITMAP
00
10
10
00
30
10
10
10
10
10
7C
00
30
ENDCHAR
STARTCHAR LtCapOLdot
ENCODING 7884
SWIDTH 538 0
DWIDTH 7 0
BBX 7 13 0 -2
BITMAP
00
00
38
44
44
44
44
44
44
44
38
00
30
ENDCHAR
STARTCHAR LtSmlOLdot
ENCODING 7885
SWIDTH 538 0
DWIDTH 7 0
BBX 7 13 0 -2
BITMAP
00
00
00
00
38
44
44
44
44
44
38
00
30
ENDCHAR
STARTCHAR LtCapOCircumLdot
ENCODING 7896
SWIDTH 538 0
DWIDTH 7 0
BBX 7 13 0 -2
BITMAP
18
24
00
38
44
44
44
44
44
44
38
00
30
ENDCHAR
STARTCHAR LtSmlOCircumLdot
ENCODING 7897
SWIDTH 538 0
DWIDTH 7 0
BBX 7 13 0 -2
BITMAP
00
18
24
00
38
44
44
44
44
44
38
00
30
ENDCHAR
STARTCHAR LtCapOHornLdot
ENCODING 7906
SWIDTH 538 0
DWIDTH 7 0
BBX 7 13 0 -2
BITMAP
06
02
3C
44
44
44
44
44
44
44
38
00
30
ENDCHAR
STARTCHAR LtSmlOHornLdot
ENCODING 7907
SWIDTH 538 0
DWIDTH 7 0
BBX 7 13 0 -2
BITMAP
00
00
06
02
3C
44
44
44
44
44
38
00
30
ENDCHAR
STARTCHAR LtCapULdot
ENCODING 7908
SWIDTH 538 0
DWIDTH 7 0
BBX 7 13 0 -2
BITMAP
00
00
44
44
44
44
44
44
44
44
38
00
30
ENDCHAR
STARTCHAR LtSmlULdot
ENCODING 7909
SWIDTH 538 0
DWIDTH 7 0
BBX 7 13 0 -2
BITMAP
00
00
00
00
44
44
44
44
44
4C
34
00
30
ENDCHAR
STARTCHAR LtCapUHornLdot
ENCODING 7920
SWIDTH 538 0
DWIDTH 7 0
BBX 7 13 0 -2
BITMAP
06
02
44
44
44
44
44
44
44
44
38
00
30
ENDCHAR
STARTCHAR LtSmlUHornLdot
ENCODING 7921
SWIDTH 538 0
DWIDTH 7 0
BBX 7 13 0 -2
BITMAP
00
00
06
02
44
44
44
44
44
4C
34
00
30
ENDCHAR
STARTCHAR LtCapYLdot
ENCODING 7924
SWIDTH 538 0
DWIDTH 7 0
BBX 7 13 0 -2
BITMAP
00
00
44
44
44
28
28
10
10
10
10
00
30
ENDCHAR
STARTCHAR LtSmlYLdot
ENCODING 7925
SWIDTH 538 0
DWIDTH 7 0
BBX 7 13 0 -2
BITMAP
00
00
00
00
44
44
44
28
28
18
10
14
64
ENDCHAR
STARTCHAR MArrowU
ENCODING 8593
SWIDTH 538 0
DWIDTH 7 0
BBX 7 13 0 -2
BITMAP
10
38
54
10
10
10
10
10
10
10
10
10
00
ENDCHAR
STARTCHAR MArrowD
ENCODING 8595
SWIDTH 538 0
DWIDTH 7 0
BBX 7 13 0 -2
BITMAP
10
10
10
10
10
10
10
10
10
54
38
10
00
ENDCHAR
STARTCHAR MArrowUD
ENCODING 8597
SWIDTH 538 0
DWIDTH 7 0
BBX 7 13 0 -2
BITMAP
10
38
54
10
10
10
10
10
10
54
38
10
00
ENDCHAR
STARTCHAR MArrowLU
ENCODING 8598
SWIDTH 538 0
DWIDTH 7 0
BBX 7 13 0 -2
BITMAP
80
C0
E0
C0
20
20
10
10
08
08
04
04
00
ENDCHAR
STARTCHAR MArrowRU
ENCODING 8599
SWIDTH 538 0
DWIDTH 7 0
BBX 7 13 0 -2
BITMAP
04
0C
1C
0C
10
10
20
20
40
40
80
80
00
ENDCHAR
STARTCHAR MArrowRD
ENCODING 8600
SWIDTH 538 0
DWIDTH 7 0
BBX 7 13 0 -2
BITMAP
80
80
40
40
20
20
10
10
0C
1C
0C
04
00
ENDCHAR
STARTCHAR MArrowLD
ENCODING 8601
SWIDTH 538 0
DWIDTH 7 0
BBX 7 13 0 -2
BITMAP
04
04
08
08
10
10
20
20
C0
E0
C0
80
00
ENDCHAR
STARTCHAR MArrowUu
ENCODING 8607
SWIDTH 538 0
DWIDTH 7 0
BBX 7 13 0 -2
BITMAP
10
38
54
38
54
10
10
10
10
10
10
10
00
ENDCHAR
STARTCHAR MArrowDd
ENCODING 8609
SWIDTH 538 0
DWIDTH 7 0
BBX 7 13 0 -2
BITMAP
10
10
10
10
10
10
10
54
38
54
38
10
00
ENDCHAR
STARTCHAR MArrowBarU
ENCODING 8613
SWIDTH 538 0
DWIDTH 7 0
BBX 7 13 0 -2
BITMAP
10
38
54
10
10
10
10
10
10
10
10
7C
00
ENDCHAR
STARTCHAR MArrowBarD
ENCODING 8615
SWIDTH 538 0
DWIDTH 7 0
BBX 7 13 0 -2
BITMAP
7C
10
10
10
10
10
10
10
10
54
38
10
00
ENDCHAR
STARTCHAR MArrowUDBase
ENCODING 8616
SWIDTH 538 0
DWIDTH 7 0
BBX 7 13 0 -2
BITMAP
10
38
54
10
10
10
10
10
54
38
10
7C
00
ENDCHAR
STARTCHAR MHarpoonUr
ENCODING 8638
SWIDTH 538 0
DWIDTH 7 0
BBX 7 13 0 -2
BITMAP
10
18
14
10
10
10
10
10
10
10
10
10
00
ENDCHAR
STARTCHAR MHarpoonUl
ENCODING 8639
SWIDTH 538 0
DWIDTH 7 0
BBX 7 13 0 -2
BITMAP
10
30
50
10
10
10
10
10
10
10
10
10
00
ENDCHAR
STARTCHAR MHarpoonDr
ENCODING 8642
SWIDTH 538 0
DWIDTH 7 0
BBX 7 13 0 -2
BITMAP
10
10
10
10
10
10
10
10
10
14
18
10
00
ENDCHAR
STARTCHAR MHarpoonDl
ENCODING 8643
SWIDTH 538 0
DWIDTH 7 0
BBX 7 13 0 -2
BITMAP
10
10
10
10
10
10
10
10
10
50
30
10
00
ENDCHAR
STARTCHAR MArrowULeftD
ENCODING 8645
SWIDTH 538 0
DWIDTH 7 0
BBX 7 13 0 -2
BITMAP
44
E4
54
44
44
44
44
44
44
54
4E
44
00
ENDCHAR
STARTCHAR MArrowULeftU
ENCODING 8648
SWIDTH 538 0
DWIDTH 7 0
BBX 7 13 0 -2
BITMAP
44
EE
54
44
44
44
44
44
44
44
44
44
00
ENDCHAR
STARTCHAR MArrowDLeftD
ENCODING 8650
SWIDTH 538 0
DWIDTH 7 0
BBX 7 13 0 -2
BITMAP
44
44
44
44
44
44
44
44
44
54
EE
44
00
ENDCHAR
STARTCHAR MArrow2U
ENCODING 8657
SWIDTH 538 0
DWIDTH 7 0
BBX 7 13 0 -2
BITMAP
10
38
6C
28
28
28
28
28
28
28
28
28
00
ENDCHAR
STARTCHAR MArrow2D
ENCODING 8659
SWIDTH 538 0
DWIDTH 7 0
BBX 7 13 0 -2
BITMAP
28
28
28
28
28
28
28
28
28
6C
38
10
00
ENDCHAR
STARTCHAR MArrow2UD
ENCODING 8661
SWIDTH 538 0
DWIDTH 7 0
BBX 7 13 0 -2
BITMAP
10
38
6C
28
28
28
28
28
28
6C
38
10
00
ENDCHAR
STARTCHAR PCurlyBrackLTRB
ENCODING 9136
SWIDTH 538 0
DWIDTH 7 0
BBX 7 13 0 -2
BITMAP
0C
10
10
10
10
10
10
10
10
10
10
10
60
ENDCHAR
STARTCHAR PCurlyBrackLBRT
ENCODING 9137
SWIDTH 538 0
DWIDTH 7 0
BBX 7 13 0 -2
BITMAP
60
10
10
10
10
10
10
10
10
10
10
10
0C
ENDCHAR
STARTCHAR MSumT
ENCODING 9138
SWIDTH 538 0
DWIDTH 7 0
BBX 7 13 0 -2
BITMAP
00
FC
80
80
40
40
40
20
20
10
10
10
08
ENDCHAR
STARTCHAR MRootB
ENCODING 9143
SWIDTH 538 0
DWIDTH 7 0
BBX 7 13 0 -2
BITMAP
10
10
10
10
10
10
90
50
50
30
30
10
10
ENDCHAR
STARTCHAR LtSmlATrndLinvbreve
ENCODING 57350
SWIDTH 538 0
DWIDTH 7 0
BBX 7 13 0 -2
BITMAP
00
00
00
00
F8
44
44
78
40
38
00
30
48
ENDCHAR
STARTCHAR LtCapCLdot
ENCODING 57356
SWIDTH 538 0
DWIDTH 7 0
BBX 7 13 0 -2
BITMAP
00
00
18
24
40
40
40
40
40
24
18
00
18
ENDCHAR
STARTCHAR LtSmlCLdot
ENCODING 57357
SWIDTH 538 0
DWIDTH 7 0
BBX 7 13 0 -2
BITMAP
00
00
00
00
38
44
40
40
40
44
38
00
30
ENDCHAR
STARTCHAR LtCapCCaronLdot
ENCODING 57358
SWIDTH 538 0
DWIDTH 7 0
BBX 7 13 0 -2
BITMAP
24
18
00
18
24
40
40
40
40
24
18
00
18
ENDCHAR
STARTCHAR LtSmlCCaronLdot
ENCODING 57359
SWIDTH 538 0
DWIDTH 7 0
BBX 7 13 0 -2
BITMAP
00
24
18
00
38
44
40
40
40
44
38
00
30
ENDCHAR
STARTCHAR LtCapELmacron
ENCODING 57370
SWIDTH 538 0
DWIDTH 7 0
BBX 7 13 0 -2
BITMAP
00
00
7C
40
40
40
78
40
40
40
7C
00
7C
ENDCHAR
STARTCHAR LtSmlELmacron
ENCODING 57371
SWIDTH 538 0
DWIDTH 7 0
BBX 7 13 0 -2
BITMAP
00
00
00
00
38
44
44
7C
40
40
38
00
7C
ENDCHAR
STARTCHAR LtCapEAcuteLdot
ENCODING 57372
SWIDTH 538 0
DWIDTH 7 0
BBX 7 13 0 -2
BITMAP
08
30
00
7C
40
40
78
40
40
40
7C
00
30
ENDCHAR
STARTCHAR LtSmlEAcuteLdot
ENCODING 57373
SWIDTH 538 0
DWIDTH 7 0
BBX 7 13 0 -2
BITMAP
08
08
10
00
38
44
44
7C
40
40
38
00
30
ENDCHAR
STARTCHAR LtCapEGraveLdot
ENCODING 57376
SWIDTH 538 0
DWIDTH 7 0
BBX 7 13 0 -2
BITMAP
20
18
00
7C
40
40
78
40
40
40
7C
00
30
ENDCHAR
STARTCHAR LtSmlEGraveLdot
ENCODING 57377
SWIDTH 538 0
DWIDTH 7 0
BBX 7 13 0 -2
BITMAP
20
20
10
00
38
44
44
7C
40
40
38
00
30
ENDCHAR
STARTCHAR LtCapGHLmacron
ENCODING 57393
SWIDTH 538 0
DWIDTH 7 0
BBX 7 13 0 -2
BITMAP
00
00
6A
AA
8A
8A
AE
AA
AA
AA
6A
00
7C
ENDCHAR
STARTCHAR LtMixGHLmacron
ENCODING 57394
SWIDTH 538 0
DWIDTH 7 0
BBX 7 13 0 -2
BITMAP
00
08
68
A8
8E
8A
AA
AA
AA
AA
6A
00
7C
ENDCHAR
STARTCHAR LtSmlGHLmacron
ENCODING 57395
SWIDTH 538 0
DWIDTH 7 0
BBX 7 13 0 -2
BITMAP
00
08
08
08
6E
AA
AA
AA
AA
6A
2A
A0
FC
ENDCHAR
STARTCHAR LtCapHLmacron
ENCODING 57396
SWIDTH 538 0
DWIDTH 7 0
BBX 7 13 0 -2
BITMAP
00
00
44
44
44
44
7C
44
44
44
44
00
7C
ENDCHAR
STARTCHAR LtSmlILinvbreve
ENCODING 57397
SWIDTH 538 0
DWIDTH 7 0
BBX 7 13 0 -2
BITMAP
00
10
10
00
30
10
10
10
10
7C
00
30
48
ENDCHAR
STARTCHAR LtCapKHLmacron
ENCODING 57405
SWIDTH 538 0
DWIDTH 7 0
BBX 7 13 0 -2
BITMAP
00
00
AA
AA
AA
CA
CE
AA
AA
AA
AA
00
7C
ENDCHAR
STARTCHAR LtMixKHLmacron
ENCODING 57406
SWIDTH 538 0
DWIDTH 7 0
BBX 7 13 0 -2
BITMAP
00
08
A8
A8
AE
CA
CA
AA
AA
AA
AA
00
7C
ENDCHAR
STARTCHAR LtSmlKHLmacron
ENCODING 57407
SWIDTH 538 0
DWIDTH 7 0
BBX 7 13 0 -2
BITMAP
00
88
88
88
AE
AA
AA
CA
AA
AA
AA
00
7C
ENDCHAR
STARTCHAR LtSmlLLring
ENCODING 57409
SWIDTH 538 0
DWIDTH 7 0
BBX 7 13 0 -2
BITMAP
00
30
10
10
10
10
10
10
10
10
7C
28
10
ENDCHAR
STARTCHAR LtSmlLMacronLring
ENCODING 57412
SWIDTH 538 0
DWIDTH 7 0
BBX 7 13 0 -2
BITMAP
78
00
30
10
10
10
10
10
10
10
7C
28
10
ENDCHAR
STARTCHAR LtCapOLmacron
ENCODING 57426
SWIDTH 538 0
DWIDTH 7 0
BBX 7 13 0 -2
BITMAP
00
00
38
44
44
44
44
44
44
44
38
00
7C
ENDCHAR
STARTCHAR LtSmlOLmacron
ENCODING 57427
SWIDTH 538 0
DWIDTH 7 0
BBX 7 13 0 -2
BITMAP
00
00
00
00
38
44
44
44
44
44
38
00
7C
ENDCHAR
STARTCHAR LtCapOAcuteLdot
ENCODING 57428
SWIDTH 538 0
DWIDTH 7 0
BBX 7 13 0 -2
BITMAP
08
30
00
38
44
44
44
44
44
44
38
00
30
ENDCHAR
STARTCHAR LtSmlOAcuteLdot
ENCODING 57429
SWIDTH 538 0
DWIDTH 7 0
BBX 7 13 0 -2
BITMAP
08
08
10
00
38
44
44
44
44
44
38
00
30
ENDCHAR
STARTCHAR LtSmlOLinvbreve
ENCODING 57430
SWIDTH 538 0
DWIDTH 7 0
BBX 7 13 0 -2
BITMAP
00
00
00
00
38
44
44
44
44
38
00
30
48
ENDCHAR
STARTCHAR LtCapOGraveLdot
ENCODING 57433
SWIDTH 538 0
DWIDTH 7 0
BBX 7 13 0 -2
BITMAP
20
18
00
38
44
44
44
44
44
44
38
00
30
ENDCHAR
STARTCHAR LtSmlOGraveLdot
ENCODING 57434
SWIDTH 538 0
DWIDTH 7 0
BBX 7 13 0 -2
BITMAP
20
20
10
00
38
44
44
44
44
44
38
00
30
ENDCHAR
STARTCHAR LtCapPLdot
ENCODING 57437
SWIDTH 538 0
DWIDTH 7 0
BBX 7 13 0 -2
BITMAP
00
00
78
44
44
44
78
40
40
40
40
00
60
ENDCHAR
STARTCHAR LtSmlPLdot
ENCODING 57438
SWIDTH 538 0
DWIDTH 7 0
BBX 7 13 0 -2
BITMAP
00
00
00
00
58
64
44
44
44
64
58
40
58
ENDCHAR
STARTCHAR LtCapQLdot
ENCODING 57441
SWIDTH 538 0
DWIDTH 7 0
BBX 7 13 0 -2
BITMAP
00
00
38
44
44
44
44
44
44
54
38
06
30
ENDCHAR
STARTCHAR LtSmlQLdot
ENCODING 57442
SWIDTH 538 0
DWIDTH 7 0
BBX 7 13 0 -2
BITMAP
00
00
00
00
34
4C
44
44
44
4C
34
04
34
ENDCHAR
STARTCHAR LtCapRLring
ENCODING 57443
SWIDTH 538 0
DWIDTH 7 0
BBX 7 13 0 -2
BITMAP
00
00
78
44
44
44
78
50
48
44
54
28
10
ENDCHAR
STARTCHAR LtSmlRLring
ENCODING 57444
SWIDTH 538 0
DWIDTH 7 0
BBX 7 13 0 -2
BITMAP
00
00
00
00
6C
34
20
20
20
20
20
50
20
ENDCHAR
STARTCHAR LtSmlRLvline
ENCODING 57445
SWIDTH 538 0
DWIDTH 7 0
BBX 7 13 0 -2
BITMAP
00
00
00
00
6C
34
20
20
20
20
00
20
20
ENDCHAR
STARTCHAR LtCapRAcuteLdot
ENCODING 57446
SWIDTH 538 0
DWIDTH 7 0
BBX 7 13 0 -2
BITMAP
08
30
00
78
44
44
78
50
48
44
44
00
30
ENDCHAR
STARTCHAR LtSmlRAcuteLdot
ENCODING 57447
SWIDTH 538 0
DWIDTH 7 0
BBX 7 13 0 -2
BITMAP
08
08
10
00
6C
34
20
20
20
20
20
00
30
ENDCHAR
STARTCHAR LtSmlRAcuteLring
ENCODING 57448
SWIDTH 538 0
DWIDTH 7 0
BBX 7 13 0 -2
BITMAP
08
08
10
00
6C
34
20
20
20
20
20
50
20
ENDCHAR
STARTCHAR LtCapRGraveLdot
ENCODING 57449
SWIDTH 538 0
DWIDTH 7 0
BBX 7 13 0 -2
BITMAP
20
18
00
78
44
44
78
50
48
44
44
00
30
ENDCHAR
STARTCHAR LtSmlRGraveLdot
ENCODING 57450
SWIDTH 538 0
DWIDTH 7 0
BBX 7 13 0 -2
BITMAP
20
20
10
00
6C
34
20
20
20
20
20
00
30
ENDCHAR
STARTCHAR LtSmlRGraveLring
ENCODING 57451
SWIDTH 538 0
DWIDTH 7 0
BBX 7 13 0 -2
BITMAP
20
20
10
00
6C
34
20
20
20
20
20
50
20
ENDCHAR
STARTCHAR LtSmlRMacronAcuteLdot
ENCODING 57453
SWIDTH 538 0
DWIDTH 7 0
BBX 7 13 0 -2
BITMAP
08
10
3C
00
6C
34
20
20
20
20
20
00
30
ENDCHAR
STARTCHAR LtSmlRMacronLring
ENCODING 57454
SWIDTH 538 0
DWIDTH 7 0
BBX 7 13 0 -2
BITMAP
00
00
3C
00
6C
34
20
20
20
20
20
50
20
ENDCHAR
STARTCHAR LtSmlRMacronAcuteLring
ENCODING 57455
SWIDTH 538 0
DWIDTH 7 0
BBX 7 13 0 -2
BITMAP
08
10
3C
00
6C
34
20
20
20
20
20
50
20
ENDCHAR
STARTCHAR LtSmlULinvbreve
ENCODING 57456
SWIDTH 538 0
DWIDTH 7 0
BBX 7 13 0 -2
BITMAP
00
00
00
00
44
44
44
44
4C
34
00
30
48
ENDCHAR
STARTCHAR GkCapIotTrndLbreve
ENCODING 57483
SWIDTH 538 0
DWIDTH 7 0
BBX 7 13 0 -2
BITMAP
00
00
7C
10
10
10
10
10
10
7C
00
24
18
ENDCHAR
STARTCHAR GkSmlIotTrndLbreve
ENCODING 57484
SWIDTH 538 0
DWIDTH 7 0
BBX 7 13 0 -2
BITMAP
00
00
00
00
30
48
08
08
08
08
00
24
18
ENDCHAR
STARTCHAR GkCapUpsTrndLbreve
ENCODING 57486
SWIDTH 538 0
DWIDTH 7 0
BBX 7 13 0 -2
BITMAP
00
00
10
10
10
10
28
28
44
44
00
24
18
ENDCHAR
STARTCHAR GkSmlUpsTrndLbreve
ENCODING 57487
SWIDTH 538 0
DWIDTH 7 0
BBX 7 13 0 -2
BITMAP
00
00
00
00
38
44
44
44
44
44
00
24
18
ENDCHAR
STARTCHAR GeEnMacron
ENCODING 57493
SWIDTH 538 0
DWIDTH 7 0
BBX 7 13 0 -2
BITMAP
00
00
00
38
00
18
24
24
04
04
44
44
38
ENDCHAR
STARTCHAR GeUnCircum
ENCODING 57497
SWIDTH 538 0
DWIDTH 7 0
BBX 7 13 0 -2
BITMAP
00
00
18
24
00
58
74
24
24
04
44
44
38
ENDCHAR
STARTCHAR GeUnMacron
ENCODING 57498
SWIDTH 538 0
DWIDTH 7 0
BBX 7 13 0 -2
BITMAP
00
00
00
38
00
58
74
24
24
04
44
44
38
ENDCHAR
STARTCHAR GeUnDrss
ENCODING 57499
SWIDTH 538 0
DWIDTH 7 0
BBX 7 13 0 -2
BITMAP
00
00
24
24
00
58
74
24
24
04
44
44
38
ENDCHAR
STARTCHAR GeUo
ENCODING 57500
SWIDTH 538 0
DWIDTH 7 0
BBX 7 13 0 -2
BITMAP
00
00
00
00
00
34
5C
48
48
40
44
44
38
ENDCHAR
STARTCHAR HbAlefPatah
ENCODING 64302
SWIDTH 538 0
DWIDTH 7 0
BBX 7 13 0 -2
BITMAP
00
00
00
00
48
44
28
38
48
44
64
00
78
ENDCHAR
STARTCHAR HbAlefQamats
ENCODING 64303
SWIDTH 538 0
DWIDTH 7 0
BBX 7 13 0 -2
BITMAP
00
00
00
00
48
44
28
38
48
44
44
38
10
ENDCHAR
ENDFONT
