STARTFONT 2.1
FONT -fbf-uw-ttyp0-medium-r-normal--17-170-75-75-p-170-iso10646-1
SIZE 17 75 75
FONTBOUNDINGBOX 9 17 0 -3
STARTPROPERTIES 19
FONTNAME_REGISTRY ""
FOUNDRY "UW"
FAMILY_NAME "Ttyp0"
WEIGHT_NAME "Medium"
SLANT "R"
SETWIDTH_NAME "Normal"
ADD_STYLE_NAME ""
PIXEL_SIZE 17
POINT_SIZE 160
RESOLUTION_X 75
RESOLUTION_Y 75
SPACING "C"
AVERAGE_WIDTH 90
CHARSET_REGISTRY "ISO10646"
CHARSET_ENCODING "1"
DEFAULT_CHAR 0
FONT_DESCENT 3
FONT_ASCENT 14
COPYRIGHT "Copyright (C) 2012-2015 Uwe Waldmann"
ENDPROPERTIES
CHARS 234
STARTCHAR CombLdot
ENCODING 803
SWIDTH 529 0
DWIDTH 9 0
BBX 9 17 0 -3
BITMAP
0000
0000
0000
0000
0000
0000
0000
0000
0000
0000
0000
0000
0000
0000
0000
0800
0800
ENDCHAR
STARTCHAR CombLdrss
ENCODING 804
SWIDTH 529 0
DWIDTH 9 0
BBX 9 17 0 -3
BITMAP
0000
0000
0000
0000
0000
0000
0000
0000
0000
0000
0000
0000
0000
0000
0000
2400
2400
ENDCHAR
STARTCHAR CombLvline
ENCODING 809
SWIDTH 529 0
DWIDTH 9 0
BBX 9 17 0 -3
BITMAP
0000
0000
0000
0000
0000
0000
0000
0000
0000
0000
0000
0000
0000
0000
0800
0800
0800
ENDCHAR
STARTCHAR CombLcaron
ENCODING 812
SWIDTH 529 0
DWIDTH 9 0
BBX 9 17 0 -3
BITMAP
0000
0000
0000
0000
0000
0000
0000
0000
0000
0000
0000
0000
0000
0000
0000
2400
1800
ENDCHAR
STARTCHAR CombLcircum
ENCODING 813
SWIDTH 529 0
DWIDTH 9 0
BBX 9 17 0 -3
BITMAP
0000
0000
0000
0000
0000
0000
0000
0000
0000
0000
0000
0000
0000
0000
0000
1800
2400
ENDCHAR
STARTCHAR CombLbreve
ENCODING 814
SWIDTH 529 0
DWIDTH 9 0
BBX 9 17 0 -3
BITMAP
0000
0000
0000
0000
0000
0000
0000
0000
0000
0000
0000
0000
0000
0000
0000
2200
1C00
ENDCHAR
STARTCHAR CombLinvbreve
ENCODING 815
SWIDTH 529 0
DWIDTH 9 0
BBX 9 17 0 -3
BITMAP
0000
0000
0000
0000
0000
0000
0000
0000
0000
0000
0000
0000
0000
0000
0000
1C00
2200
ENDCHAR
STARTCHAR CombLtilde
ENCODING 816
SWIDTH 529 0
DWIDTH 9 0
BBX 9 17 0 -3
BITMAP
0000
0000
0000
0000
0000
0000
0000
0000
0000
0000
0000
0000
0000
0000
0000
1200
2C00
ENDCHAR
STARTCHAR CombLmacron
ENCODING 817
SWIDTH 529 0
DWIDTH 9 0
BBX 9 17 0 -3
BITMAP
0000
0000
0000
0000
0000
0000
0000
0000
0000
0000
0000
0000
0000
0000
0000
0000
3C00
ENDCHAR
STARTCHAR CombLvline2
ENCODING 840
SWIDTH 529 0
DWIDTH 9 0
BBX 9 17 0 -3
BITMAP
0000
0000
0000
0000
0000
0000
0000
0000
0000
0000
0000
0000
0000
0000
2400
2400
2400
ENDCHAR
STARTCHAR AmSmlEh
ENCODING 1383
SWIDTH 529 0
DWIDTH 9 0
BBX 9 17 0 -3
BITMAP
0000
0000
0000
2000
2000
2000
2000
3E00
2000
2000
2000
2000
2000
1C00
0200
0400
0000
ENDCHAR
STARTCHAR AmSmlYi
ENCODING 1397
SWIDTH 529 0
DWIDTH 9 0
BBX 9 17 0 -3
BITMAP
0000
0000
0000
0000
0000
0000
0000
1800
0800
0800
0800
0800
0800
0800
0800
0800
7000
ENDCHAR
STARTCHAR AmSmlSha
ENCODING 1399
SWIDTH 529 0
DWIDTH 9 0
BBX 9 17 0 -3
BITMAP
0000
0000
0000
0000
0000
0000
0000
1C00
2200
0200
0400
0800
0800
1000
2000
2000
1E00
ENDCHAR
STARTCHAR AmSmlCha
ENCODING 1401
SWIDTH 529 0
DWIDTH 9 0
BBX 9 17 0 -3
BITMAP
0000
0000
0000
0000
0000
0000
0000
0800
1000
0800
0400
0400
0800
1000
2000
2000
1E00
ENDCHAR
STARTCHAR AmSmlJheh
ENCODING 1403
SWIDTH 529 0
DWIDTH 9 0
BBX 9 17 0 -3
BITMAP
0000
0000
0000
0800
1400
2200
2200
2200
2200
1400
1400
0800
0800
1000
2000
2000
1E00
ENDCHAR
STARTCHAR AmSmlCo
ENCODING 1409
SWIDTH 529 0
DWIDTH 9 0
BBX 9 17 0 -3
BITMAP
0000
0000
0000
0000
0000
0000
0000
1A00
2600
2200
2200
2200
2600
1A00
0200
2200
1C00
ENDCHAR
STARTCHAR AmSmlKeh
ENCODING 1412
SWIDTH 529 0
DWIDTH 9 0
BBX 9 17 0 -3
BITMAP
0000
0000
0000
0000
0000
0000
0000
2C00
3200
2200
2200
2200
3200
2C00
2000
7E00
2000
ENDCHAR
STARTCHAR CombHbHatafQamats
ENCODING 1459
SWIDTH 529 0
DWIDTH 9 0
BBX 9 17 0 -3
BITMAP
0000
0000
0000
0000
0000
0000
0000
0000
0000
0000
0000
0000
0000
0000
0600
7000
2600
ENDCHAR
STARTCHAR CombHbSegol
ENCODING 1462
SWIDTH 529 0
DWIDTH 9 0
BBX 9 17 0 -3
BITMAP
0000
0000
0000
0000
0000
0000
0000
0000
0000
0000
0000
0000
0000
0000
0000
6600
1800
ENDCHAR
STARTCHAR CombHbPatah
ENCODING 1463
SWIDTH 529 0
DWIDTH 9 0
BBX 9 17 0 -3
BITMAP
0000
0000
0000
0000
0000
0000
0000
0000
0000
0000
0000
0000
0000
0000
0000
3E00
0000
ENDCHAR
STARTCHAR CombHbQamats
ENCODING 1464
SWIDTH 529 0
DWIDTH 9 0
BBX 9 17 0 -3
BITMAP
0000
0000
0000
0000
0000
0000
0000
0000
0000
0000
0000
0000
0000
0000
0000
1C00
0800
ENDCHAR
STARTCHAR CombHbMeteg
ENCODING 1469
SWIDTH 529 0
DWIDTH 9 0
BBX 9 17 0 -3
BITMAP
0000
0000
0000
0000
0000
0000
0000
0000
0000
0000
0000
0000
0000
0000
0800
0800
0800
ENDCHAR
STARTCHAR ThYoYing
ENCODING 3597
SWIDTH 529 0
DWIDTH 9 0
BBX 9 17 0 -3
BITMAP
0000
0000
0000
0000
0000
0000
3100
4900
4900
4900
4900
4900
4900
4600
0000
0900
0600
ENDCHAR
STARTCHAR ThDoChada
ENCODING 3598
SWIDTH 529 0
DWIDTH 9 0
BBX 9 17 0 -3
BITMAP
0000
0000
0000
0000
0000
0000
3C00
4200
6200
2200
2200
6200
6200
6200
0200
0200
1C00
ENDCHAR
STARTCHAR ThToPatak
ENCODING 3599
SWIDTH 529 0
DWIDTH 9 0
BBX 9 17 0 -3
BITMAP
0000
0000
0000
0000
0000
0000
3C00
4200
6200
2200
2200
6200
6200
6200
0200
2A00
3C00
ENDCHAR
STARTCHAR ThThoThan
ENCODING 3600
SWIDTH 529 0
DWIDTH 9 0
BBX 9 17 0 -3
BITMAP
0000
0000
0000
0000
0000
0000
7F00
0400
0200
1A00
1A00
0A00
0600
0200
0000
2A00
3C00
ENDCHAR
STARTCHAR ThRu
ENCODING 3620
SWIDTH 529 0
DWIDTH 9 0
BBX 9 17 0 -3
BITMAP
0000
0000
0000
0000
0000
0000
3C00
4200
6200
2200
2200
3200
3200
3200
0200
0200
0200
ENDCHAR
STARTCHAR ThLu
ENCODING 3622
SWIDTH 529 0
DWIDTH 9 0
BBX 9 17 0 -3
BITMAP
0000
0000
0000
0000
0000
0000
3C00
4200
6200
2200
2200
6200
6200
6200
0200
0200
0200
ENDCHAR
STARTCHAR ThSaraU
ENCODING 3640
SWIDTH 529 0
DWIDTH 9 0
BBX 9 17 0 -3
BITMAP
0000
0000
0000
0000
0000
0000
0000
0000
0000
0000
0000
0000
0000
0000
0000
0600
0200
ENDCHAR
STARTCHAR ThSaraUu
ENCODING 3641
SWIDTH 529 0
DWIDTH 9 0
BBX 9 17 0 -3
BITMAP
0000
0000
0000
0000
0000
0000
0000
0000
0000
0000
0000
0000
0000
0000
0000
1A00
0E00
ENDCHAR
STARTCHAR ThPhinthu
ENCODING 3642
SWIDTH 529 0
DWIDTH 9 0
BBX 9 17 0 -3
BITMAP
0000
0000
0000
0000
0000
0000
0000
0000
0000
0000
0000
0000
0000
0000
0000
0600
0600
ENDCHAR
STARTCHAR ThLakkhangyao
ENCODING 3653
SWIDTH 529 0
DWIDTH 9 0
BBX 9 17 0 -3
BITMAP
0000
0000
0000
0000
0000
0000
1C00
2200
2200
0200
0200
0200
0200
0200
0200
0200
0200
ENDCHAR
STARTCHAR ThMaiyamok
ENCODING 3654
SWIDTH 529 0
DWIDTH 9 0
BBX 9 17 0 -3
BITMAP
0000
0000
0000
0000
0000
0000
3400
4A00
6200
6200
0200
0200
0200
0200
0200
0200
0400
ENDCHAR
STARTCHAR GeGan
ENCODING 4306
SWIDTH 529 0
DWIDTH 9 0
BBX 9 17 0 -3
BITMAP
0000
0000
0000
0000
0000
0000
0000
3000
4800
4800
0800
3C00
4200
4200
4200
4200
3C00
ENDCHAR
STARTCHAR GeDon
ENCODING 4307
SWIDTH 529 0
DWIDTH 9 0
BBX 9 17 0 -3
BITMAP
0000
0000
0000
0000
0000
0000
0000
3600
4900
4900
4900
4900
4600
2000
3800
4600
0100
ENDCHAR
STARTCHAR GeEn
ENCODING 4308
SWIDTH 529 0
DWIDTH 9 0
BBX 9 17 0 -3
BITMAP
0000
0000
0000
0000
0000
0000
0000
1C00
2200
2200
0200
0200
0200
0200
4200
4200
3C00
ENDCHAR
STARTCHAR GeVin
ENCODING 4309
SWIDTH 529 0
DWIDTH 9 0
BBX 9 17 0 -3
BITMAP
0000
0000
0000
0000
0000
0000
0000
1C00
2200
2200
0200
0C00
0400
0200
4200
4200
3C00
ENDCHAR
STARTCHAR GeKan
ENCODING 4313
SWIDTH 529 0
DWIDTH 9 0
BBX 9 17 0 -3
BITMAP
0000
0000
0000
0000
0000
0000
0000
0600
0200
0200
0200
0C00
0400
0200
4200
4200
3C00
ENDCHAR
STARTCHAR GeLas
ENCODING 4314
SWIDTH 529 0
DWIDTH 9 0
BBX 9 17 0 -3
BITMAP
0000
0000
0000
0000
0000
0000
0000
3C00
4200
4200
4200
4200
4200
2000
3000
4C00
0200
ENDCHAR
STARTCHAR GeZhar
ENCODING 4319
SWIDTH 529 0
DWIDTH 9 0
BBX 9 17 0 -3
BITMAP
0000
0000
0000
0000
0000
0000
0000
0600
1A00
4A00
4A00
3200
0200
0200
4200
4200
3C00
ENDCHAR
STARTCHAR GeTar
ENCODING 4322
SWIDTH 529 0
DWIDTH 9 0
BBX 9 17 0 -3
BITMAP
0000
0000
0000
0000
0000
0800
1400
1C00
3600
4900
4100
4100
4100
4100
4100
2200
1C00
ENDCHAR
STARTCHAR GeUn
ENCODING 4323
SWIDTH 529 0
DWIDTH 9 0
BBX 9 17 0 -3
BITMAP
0000
0000
0000
0000
0000
0000
0000
5600
6900
0900
0900
0100
0100
0100
2100
2100
1E00
ENDCHAR
STARTCHAR GePhar
ENCODING 4324
SWIDTH 529 0
DWIDTH 9 0
BBX 9 17 0 -3
BITMAP
0000
0000
0000
0000
0000
0000
0000
3600
4900
4900
4900
4900
3200
0100
0100
2100
1E00
ENDCHAR
STARTCHAR GeKhar
ENCODING 4325
SWIDTH 529 0
DWIDTH 9 0
BBX 9 17 0 -3
BITMAP
0000
0000
0000
0200
0600
0200
0200
3E00
2200
2200
0200
0200
0200
0200
4200
4200
3C00
ENDCHAR
STARTCHAR GeGhan
ENCODING 4326
SWIDTH 529 0
DWIDTH 9 0
BBX 9 17 0 -3
BITMAP
0000
0000
0000
0000
0000
0000
0000
3600
4900
4900
4900
4100
4200
2000
3800
4600
0100
ENDCHAR
STARTCHAR GeQar
ENCODING 4327
SWIDTH 529 0
DWIDTH 9 0
BBX 9 17 0 -3
BITMAP
0000
0000
0000
0000
0000
0000
0000
4200
4200
4200
4200
4600
3A00
0200
4200
4200
3C00
ENDCHAR
STARTCHAR GeCan
ENCODING 4330
SWIDTH 529 0
DWIDTH 9 0
BBX 9 17 0 -3
BITMAP
0000
0000
0000
0000
0000
0000
0000
2400
4200
4100
4100
4600
4100
4100
4100
2200
1C00
ENDCHAR
STARTCHAR GeCil
ENCODING 4332
SWIDTH 529 0
DWIDTH 9 0
BBX 9 17 0 -3
BITMAP
0000
0000
0000
3600
4900
4900
4000
4000
3E00
2200
2200
2200
1400
1400
0800
0800
0800
ENDCHAR
STARTCHAR GeChar
ENCODING 4333
SWIDTH 529 0
DWIDTH 9 0
BBX 9 17 0 -3
BITMAP
0000
0000
0000
1000
1000
0800
0400
0400
0400
3600
4C00
3600
0400
0400
4400
4400
3800
ENDCHAR
STARTCHAR GeWe
ENCODING 4339
SWIDTH 529 0
DWIDTH 9 0
BBX 9 17 0 -3
BITMAP
0000
0000
0000
0000
0000
0000
0000
3E00
2200
0400
0800
1C00
0200
0200
4200
4200
3C00
ENDCHAR
STARTCHAR GeHar
ENCODING 4340
SWIDTH 529 0
DWIDTH 9 0
BBX 9 17 0 -3
BITMAP
0000
0000
0000
0800
1000
1000
1000
0E00
0200
0400
0800
1C00
0200
0200
4200
4200
3C00
ENDCHAR
STARTCHAR GeFi
ENCODING 4342
SWIDTH 529 0
DWIDTH 9 0
BBX 9 17 0 -3
BITMAP
0000
0000
0000
0000
0000
0000
0000
3600
4900
4900
4900
4900
4900
2E00
0800
0800
1000
ENDCHAR
STARTCHAR GeYn
ENCODING 4343
SWIDTH 529 0
DWIDTH 9 0
BBX 9 17 0 -3
BITMAP
0000
0000
0000
0000
0000
0000
0000
3C00
4200
4200
0200
0C00
3000
4000
4200
4200
3C00
ENDCHAR
STARTCHAR GeElifi
ENCODING 4344
SWIDTH 529 0
DWIDTH 9 0
BBX 9 17 0 -3
BITMAP
0000
0000
0000
0000
0000
0000
0000
4200
4200
4200
4200
6200
5C00
4000
4200
4200
3C00
ENDCHAR
STARTCHAR GeGanTrnd
ENCODING 4345
SWIDTH 529 0
DWIDTH 9 0
BBX 9 17 0 -3
BITMAP
0000
0000
0000
0000
0000
0000
0000
3C00
4200
4200
4200
4200
3C00
1000
1200
1200
0C00
ENDCHAR
STARTCHAR LtCapALring
ENCODING 7680
SWIDTH 529 0
DWIDTH 9 0
BBX 9 17 0 -3
BITMAP
0000
0000
0000
0800
0800
0800
1400
1400
2200
2200
3E00
4100
4100
4100
1800
2400
1800
ENDCHAR
STARTCHAR LtSmlALring
ENCODING 7681
SWIDTH 529 0
DWIDTH 9 0
BBX 9 17 0 -3
BITMAP
0000
0000
0000
0000
0000
0000
3C00
0200
0200
3E00
4200
4200
4600
3A00
1800
2400
1800
ENDCHAR
STARTCHAR LtCapBLdot
ENCODING 7684
SWIDTH 529 0
DWIDTH 9 0
BBX 9 17 0 -3
BITMAP
0000
0000
0000
7C00
4200
4200
4200
4400
7C00
4200
4200
4200
4200
7C00
0000
1000
1000
ENDCHAR
STARTCHAR LtSmlBLdot
ENCODING 7685
SWIDTH 529 0
DWIDTH 9 0
BBX 9 17 0 -3
BITMAP
0000
0000
0000
4000
4000
4000
5C00
6200
4200
4200
4200
4200
6200
5C00
0000
1000
1000
ENDCHAR
STARTCHAR LtCapBLmacron
ENCODING 7686
SWIDTH 529 0
DWIDTH 9 0
BBX 9 17 0 -3
BITMAP
0000
0000
0000
7C00
4200
4200
4200
4400
7C00
4200
4200
4200
4200
7C00
0000
0000
3C00
ENDCHAR
STARTCHAR LtSmlBLmacron
ENCODING 7687
SWIDTH 529 0
DWIDTH 9 0
BBX 9 17 0 -3
BITMAP
0000
0000
0000
4000
4000
4000
5C00
6200
4200
4200
4200
4200
6200
5C00
0000
0000
3C00
ENDCHAR
STARTCHAR LtCapDLdot
ENCODING 7692
SWIDTH 529 0
DWIDTH 9 0
BBX 9 17 0 -3
BITMAP
0000
0000
0000
7800
4400
4200
4200
4200
4200
4200
4200
4200
4400
7800
0000
1000
1000
ENDCHAR
STARTCHAR LtSmlDLdot
ENCODING 7693
SWIDTH 529 0
DWIDTH 9 0
BBX 9 17 0 -3
BITMAP
0000
0000
0000
0200
0200
0200
3A00
4600
4200
4200
4200
4200
4600
3A00
0000
0800
0800
ENDCHAR
STARTCHAR LtCapDLmacron
ENCODING 7694
SWIDTH 529 0
DWIDTH 9 0
BBX 9 17 0 -3
BITMAP
0000
0000
0000
7800
4400
4200
4200
4200
4200
4200
4200
4200
4400
7800
0000
0000
7C00
ENDCHAR
STARTCHAR LtSmlDLmacron
ENCODING 7695
SWIDTH 529 0
DWIDTH 9 0
BBX 9 17 0 -3
BITMAP
0000
0000
0000
0200
0200
0200
3A00
4600
4200
4200
4200
4200
4600
3A00
0000
0000
3C00
ENDCHAR
STARTCHAR LtCapDLcircum
ENCODING 7698
SWIDTH 529 0
DWIDTH 9 0
BBX 9 17 0 -3
BITMAP
0000
0000
0000
7800
4400
4200
4200
4200
4200
4200
4200
4200
4400
7800
0000
1800
2400
ENDCHAR
STARTCHAR LtSmlDLcircum
ENCODING 7699
SWIDTH 529 0
DWIDTH 9 0
BBX 9 17 0 -3
BITMAP
0000
0000
0000
0200
0200
0200
3A00
4600
4200
4200
4200
4200
4600
3A00
0000
1800
2400
ENDCHAR
STARTCHAR LtCapELcircum
ENCODING 7704
SWIDTH 529 0
DWIDTH 9 0
BBX 9 17 0 -3
BITMAP
0000
0000
0000
7E00
4000
4000
4000
4000
7800
4000
4000
4000
4000
7E00
0000
1800
2400
ENDCHAR
STARTCHAR LtSmlELcircum
ENCODING 7705
SWIDTH 529 0
DWIDTH 9 0
BBX 9 17 0 -3
BITMAP
0000
0000
0000
0000
0000
0000
1C00
2200
4200
7E00
4000
4000
2200
1C00
0000
1800
2400
ENDCHAR
STARTCHAR LtCapELtilde
ENCODING 7706
SWIDTH 529 0
DWIDTH 9 0
BBX 9 17 0 -3
BITMAP
0000
0000
0000
7E00
4000
4000
4000
4000
7800
4000
4000
4000
4000
7E00
0000
3200
4C00
ENDCHAR
STARTCHAR LtSmlELtilde
ENCODING 7707
SWIDTH 529 0
DWIDTH 9 0
BBX 9 17 0 -3
BITMAP
0000
0000
0000
0000
0000
0000
1C00
2200
4200
7E00
4000
4000
2200
1C00
0000
1200
2C00
ENDCHAR
STARTCHAR LtCapHLdot
ENCODING 7716
SWIDTH 529 0
DWIDTH 9 0
BBX 9 17 0 -3
BITMAP
0000
0000
0000
4200
4200
4200
4200
4200
7E00
4200
4200
4200
4200
4200
0000
1000
1000
ENDCHAR
STARTCHAR LtSmlHLdot
ENCODING 7717
SWIDTH 529 0
DWIDTH 9 0
BBX 9 17 0 -3
BITMAP
0000
0000
0000
4000
4000
4000
5C00
6200
4200
4200
4200
4200
4200
4200
0000
1000
1000
ENDCHAR
STARTCHAR LtCapHLbreve
ENCODING 7722
SWIDTH 529 0
DWIDTH 9 0
BBX 9 17 0 -3
BITMAP
0000
0000
0000
4200
4200
4200
4200
4200
7E00
4200
4200
4200
4200
4200
0000
4400
3800
ENDCHAR
STARTCHAR LtSmlHLbreve
ENCODING 7723
SWIDTH 529 0
DWIDTH 9 0
BBX 9 17 0 -3
BITMAP
0000
0000
0000
4000
4000
4000
5C00
6200
4200
4200
4200
4200
4200
4200
0000
4400
3800
ENDCHAR
STARTCHAR LtCapILtilde
ENCODING 7724
SWIDTH 529 0
DWIDTH 9 0
BBX 9 17 0 -3
BITMAP
0000
0000
0000
3E00
0800
0800
0800
0800
0800
0800
0800
0800
0800
3E00
0000
1200
2C00
ENDCHAR
STARTCHAR LtSmlILtilde
ENCODING 7725
SWIDTH 529 0
DWIDTH 9 0
BBX 9 17 0 -3
BITMAP
0000
0000
0800
0800
0000
0000
1800
0800
0800
0800
0800
0800
0800
3E00
0000
1200
2C00
ENDCHAR
STARTCHAR LtCapKLdot
ENCODING 7730
SWIDTH 529 0
DWIDTH 9 0
BBX 9 17 0 -3
BITMAP
0000
0000
0000
4200
4200
4400
4400
4800
5000
6800
4400
4400
4200
4200
0000
1000
1000
ENDCHAR
STARTCHAR LtSmlKLdot
ENCODING 7731
SWIDTH 529 0
DWIDTH 9 0
BBX 9 17 0 -3
BITMAP
0000
0000
0000
4000
4000
4000
4200
4400
4800
5000
7000
4800
4400
4200
0000
1000
1000
ENDCHAR
STARTCHAR LtCapKLmacron
ENCODING 7732
SWIDTH 529 0
DWIDTH 9 0
BBX 9 17 0 -3
BITMAP
0000
0000
0000
4200
4200
4400
4400
4800
5000
6800
4400
4400
4200
4200
0000
0000
3C00
ENDCHAR
STARTCHAR LtSmlKLmacron
ENCODING 7733
SWIDTH 529 0
DWIDTH 9 0
BBX 9 17 0 -3
BITMAP
0000
0000
0000
4000
4000
4000
4200
4400
4800
5000
7000
4800
4400
4200
0000
0000
3C00
ENDCHAR
STARTCHAR LtCapLLdot
ENCODING 7734
SWIDTH 529 0
DWIDTH 9 0
BBX 9 17 0 -3
BITMAP
0000
0000
0000
4000
4000
4000
4000
4000
4000
4000
4000
4000
4000
7E00
0000
1000
1000
ENDCHAR
STARTCHAR LtSmlLLdot
ENCODING 7735
SWIDTH 529 0
DWIDTH 9 0
BBX 9 17 0 -3
BITMAP
0000
0000
0000
1800
0800
0800
0800
0800
0800
0800
0800
0800
0800
3E00
0000
0800
0800
ENDCHAR
STARTCHAR LtCapLMacronLdot
ENCODING 7736
SWIDTH 529 0
DWIDTH 9 0
BBX 9 17 0 -3
BITMAP
3C00
0000
0000
4000
4000
4000
4000
4000
4000
4000
4000
4000
4000
7E00
0000
1000
1000
ENDCHAR
STARTCHAR LtSmlLMacronLdot
ENCODING 7737
SWIDTH 529 0
DWIDTH 9 0
BBX 9 17 0 -3
BITMAP
3E00
0000
0000
1800
0800
0800
0800
0800
0800
0800
0800
0800
0800
3E00
0000
0800
0800
ENDCHAR
STARTCHAR LtCapLLmacron
ENCODING 7738
SWIDTH 529 0
DWIDTH 9 0
BBX 9 17 0 -3
BITMAP
0000
0000
0000
4000
4000
4000
4000
4000
4000
4000
4000
4000
4000
7E00
0000
0000
3C00
ENDCHAR
STARTCHAR LtSmlLLmacron
ENCODING 7739
SWIDTH 529 0
DWIDTH 9 0
BBX 9 17 0 -3
BITMAP
0000
0000
0000
1800
0800
0800
0800
0800
0800
0800
0800
0800
0800
3E00
0000
0000
3E00
ENDCHAR
STARTCHAR LtCapLLcircum
ENCODING 7740
SWIDTH 529 0
DWIDTH 9 0
BBX 9 17 0 -3
BITMAP
0000
0000
0000
4000
4000
4000
4000
4000
4000
4000
4000
4000
4000
7E00
0000
1800
2400
ENDCHAR
STARTCHAR LtSmlLLcircum
ENCODING 7741
SWIDTH 529 0
DWIDTH 9 0
BBX 9 17 0 -3
BITMAP
0000
0000
0000
1800
0800
0800
0800
0800
0800
0800
0800
0800
0800
3E00
0000
1800
2400
ENDCHAR
STARTCHAR LtCapMLdot
ENCODING 7746
SWIDTH 529 0
DWIDTH 9 0
BBX 9 17 0 -3
BITMAP
0000
0000
0000
4100
4100
6300
6300
5500
5500
4900
4900
4100
4100
4100
0000
0800
0800
ENDCHAR
STARTCHAR LtSmlMLdot
ENCODING 7747
SWIDTH 529 0
DWIDTH 9 0
BBX 9 17 0 -3
BITMAP
0000
0000
0000
0000
0000
0000
7600
4900
4900
4900
4900
4900
4900
4900
0000
0800
0800
ENDCHAR
STARTCHAR LtCapNLdot
ENCODING 7750
SWIDTH 529 0
DWIDTH 9 0
BBX 9 17 0 -3
BITMAP
0000
0000
0000
4200
4200
6200
6200
5200
4A00
4A00
4600
4600
4200
4200
0000
1000
1000
ENDCHAR
STARTCHAR LtSmlNLdot
ENCODING 7751
SWIDTH 529 0
DWIDTH 9 0
BBX 9 17 0 -3
BITMAP
0000
0000
0000
0000
0000
0000
5C00
6200
4200
4200
4200
4200
4200
4200
0000
1000
1000
ENDCHAR
STARTCHAR LtCapNLmacron
ENCODING 7752
SWIDTH 529 0
DWIDTH 9 0
BBX 9 17 0 -3
BITMAP
0000
0000
0000
4200
4200
6200
6200
5200
4A00
4A00
4600
4600
4200
4200
0000
0000
3C00
ENDCHAR
STARTCHAR LtSmlNLmacron
ENCODING 7753
SWIDTH 529 0
DWIDTH 9 0
BBX 9 17 0 -3
BITMAP
0000
0000
0000
0000
0000
0000
5C00
6200
4200
4200
4200
4200
4200
4200
0000
0000
3C00
ENDCHAR
STARTCHAR LtCapNLcircum
ENCODING 7754
SWIDTH 529 0
DWIDTH 9 0
BBX 9 17 0 -3
BITMAP
0000
0000
0000
4200
4200
6200
6200
5200
4A00
4A00
4600
4600
4200
4200
0000
1800
2400
ENDCHAR
STARTCHAR LtSmlNLcircum
ENCODING 7755
SWIDTH 529 0
DWIDTH 9 0
BBX 9 17 0 -3
BITMAP
0000
0000
0000
0000
0000
0000
5C00
6200
4200
4200
4200
4200
4200
4200
0000
1800
2400
ENDCHAR
STARTCHAR LtCapRLdot
ENCODING 7770
SWIDTH 529 0
DWIDTH 9 0
BBX 9 17 0 -3
BITMAP
0000
0000
0000
7C00
4200
4200
4200
4200
7C00
4800
4400
4400
4200
4200
0000
1000
1000
ENDCHAR
STARTCHAR LtSmlRLdot
ENCODING 7771
SWIDTH 529 0
DWIDTH 9 0
BBX 9 17 0 -3
BITMAP
0000
0000
0000
0000
0000
0000
6E00
3200
2000
2000
2000
2000
2000
2000
0000
2000
2000
ENDCHAR
STARTCHAR LtCapRMacronLdot
ENCODING 7772
SWIDTH 529 0
DWIDTH 9 0
BBX 9 17 0 -3
BITMAP
3C00
0000
0000
7C00
4200
4200
4200
4200
7C00
4800
4400
4400
4200
4200
0000
1000
1000
ENDCHAR
STARTCHAR LtSmlRMacronLdot
ENCODING 7773
SWIDTH 529 0
DWIDTH 9 0
BBX 9 17 0 -3
BITMAP
0000
0000
0000
3C00
0000
0000
6E00
3200
2000
2000
2000
2000
2000
2000
0000
2000
2000
ENDCHAR
STARTCHAR LtCapRLmacron
ENCODING 7774
SWIDTH 529 0
DWIDTH 9 0
BBX 9 17 0 -3
BITMAP
0000
0000
0000
7C00
4200
4200
4200
4200
7C00
4800
4400
4400
4200
4200
0000
0000
3C00
ENDCHAR
STARTCHAR LtSmlRLmacron
ENCODING 7775
SWIDTH 529 0
DWIDTH 9 0
BBX 9 17 0 -3
BITMAP
0000
0000
0000
0000
0000
0000
6E00
3200
2000
2000
2000
2000
2000
2000
0000
0000
3C00
ENDCHAR
STARTCHAR LtCapSLdot
ENCODING 7778
SWIDTH 529 0
DWIDTH 9 0
BBX 9 17 0 -3
BITMAP
0000
0000
0000
3C00
4200
4000
4000
2000
1800
0400
0200
0200
4200
3C00
0000
1000
1000
ENDCHAR
STARTCHAR LtSmlSLdot
ENCODING 7779
SWIDTH 529 0
DWIDTH 9 0
BBX 9 17 0 -3
BITMAP
0000
0000
0000
0000
0000
0000
3C00
4200
4000
3000
0C00
0200
4200
3C00
0000
1000
1000
ENDCHAR
STARTCHAR LtCapSDotLdot
ENCODING 7784
SWIDTH 529 0
DWIDTH 9 0
BBX 9 17 0 -3
BITMAP
0800
0800
0000
3C00
4200
4000
4000
2000
1800
0400
0200
0200
4200
3C00
0000
1000
1000
ENDCHAR
STARTCHAR LtSmlSDotLdot
ENCODING 7785
SWIDTH 529 0
DWIDTH 9 0
BBX 9 17 0 -3
BITMAP
0000
0000
0800
0800
0000
0000
3C00
4200
4000
3000
0C00
0200
4200
3C00
0000
0800
0800
ENDCHAR
STARTCHAR LtCapTLdot
ENCODING 7788
SWIDTH 529 0
DWIDTH 9 0
BBX 9 17 0 -3
BITMAP
0000
0000
0000
7F00
0800
0800
0800
0800
0800
0800
0800
0800
0800
0800
0000
0800
0800
ENDCHAR
STARTCHAR LtSmlTLdot
ENCODING 7789
SWIDTH 529 0
DWIDTH 9 0
BBX 9 17 0 -3
BITMAP
0000
0000
0000
0000
1000
1000
7C00
1000
1000
1000
1000
1000
1200
0C00
0000
0800
0800
ENDCHAR
STARTCHAR LtCapTLmacron
ENCODING 7790
SWIDTH 529 0
DWIDTH 9 0
BBX 9 17 0 -3
BITMAP
0000
0000
0000
7F00
0800
0800
0800
0800
0800
0800
0800
0800
0800
0800
0000
0000
3E00
ENDCHAR
STARTCHAR LtSmlTLmacron
ENCODING 7791
SWIDTH 529 0
DWIDTH 9 0
BBX 9 17 0 -3
BITMAP
0000
0000
0000
0000
1000
1000
7C00
1000
1000
1000
1000
1000
1200
0C00
0000
0000
1E00
ENDCHAR
STARTCHAR LtCapTLcircum
ENCODING 7792
SWIDTH 529 0
DWIDTH 9 0
BBX 9 17 0 -3
BITMAP
0000
0000
0000
7F00
0800
0800
0800
0800
0800
0800
0800
0800
0800
0800
0000
1800
2400
ENDCHAR
STARTCHAR LtSmlTLcircum
ENCODING 7793
SWIDTH 529 0
DWIDTH 9 0
BBX 9 17 0 -3
BITMAP
0000
0000
0000
0000
1000
1000
7C00
1000
1000
1000
1000
1000
1200
0C00
0000
0C00
1200
ENDCHAR
STARTCHAR LtCapULdrss
ENCODING 7794
SWIDTH 529 0
DWIDTH 9 0
BBX 9 17 0 -3
BITMAP
0000
0000
0000
4200
4200
4200
4200
4200
4200
4200
4200
4200
4200
3C00
0000
2400
2400
ENDCHAR
STARTCHAR LtSmlULdrss
ENCODING 7795
SWIDTH 529 0
DWIDTH 9 0
BBX 9 17 0 -3
BITMAP
0000
0000
0000
0000
0000
0000
4200
4200
4200
4200
4200
4200
4600
3A00
0000
2400
2400
ENDCHAR
STARTCHAR LtCapULtilde
ENCODING 7796
SWIDTH 529 0
DWIDTH 9 0
BBX 9 17 0 -3
BITMAP
0000
0000
0000
4200
4200
4200
4200
4200
4200
4200
4200
4200
4200
3C00
0000
3200
4C00
ENDCHAR
STARTCHAR LtSmlULtilde
ENCODING 7797
SWIDTH 529 0
DWIDTH 9 0
BBX 9 17 0 -3
BITMAP
0000
0000
0000
0000
0000
0000
4200
4200
4200
4200
4200
4200
4600
3A00
0000
3200
4C00
ENDCHAR
STARTCHAR LtCapULcircum
ENCODING 7798
SWIDTH 529 0
DWIDTH 9 0
BBX 9 17 0 -3
BITMAP
0000
0000
0000
4200
4200
4200
4200
4200
4200
4200
4200
4200
4200
3C00
0000
1800
2400
ENDCHAR
STARTCHAR LtSmlULcircum
ENCODING 7799
SWIDTH 529 0
DWIDTH 9 0
BBX 9 17 0 -3
BITMAP
0000
0000
0000
0000
0000
0000
4200
4200
4200
4200
4200
4200
4600
3A00
0000
1800
2400
ENDCHAR
STARTCHAR LtCapVLdot
ENCODING 7806
SWIDTH 529 0
DWIDTH 9 0
BBX 9 17 0 -3
BITMAP
0000
0000
0000
4100
4100
4100
2200
2200
2200
1400
1400
0800
0800
0800
0000
0800
0800
ENDCHAR
STARTCHAR LtSmlVLdot
ENCODING 7807
SWIDTH 529 0
DWIDTH 9 0
BBX 9 17 0 -3
BITMAP
0000
0000
0000
0000
0000
0000
4100
4100
2200
2200
1400
1400
0800
0800
0000
0800
0800
ENDCHAR
STARTCHAR LtCapWLdot
ENCODING 7816
SWIDTH 529 0
DWIDTH 9 0
BBX 9 17 0 -3
BITMAP
0000
0000
0000
4100
4100
4100
4900
4900
4900
5500
5500
2200
2200
2200
0000
0800
0800
ENDCHAR
STARTCHAR LtSmlWLdot
ENCODING 7817
SWIDTH 529 0
DWIDTH 9 0
BBX 9 17 0 -3
BITMAP
0000
0000
0000
0000
0000
0000
4100
4100
4900
4900
4900
3600
2200
2200
0000
0800
0800
ENDCHAR
STARTCHAR LtCapZLdot
ENCODING 7826
SWIDTH 529 0
DWIDTH 9 0
BBX 9 17 0 -3
BITMAP
0000
0000
0000
7E00
0200
0400
0400
0800
1000
1000
2000
4000
4000
7E00
0000
1000
1000
ENDCHAR
STARTCHAR LtSmlZLdot
ENCODING 7827
SWIDTH 529 0
DWIDTH 9 0
BBX 9 17 0 -3
BITMAP
0000
0000
0000
0000
0000
0000
7E00
0200
0400
0800
1000
2000
4000
7E00
0000
1000
1000
ENDCHAR
STARTCHAR LtCapZLmacron
ENCODING 7828
SWIDTH 529 0
DWIDTH 9 0
BBX 9 17 0 -3
BITMAP
0000
0000
0000
7E00
0200
0400
0400
0800
1000
1000
2000
4000
4000
7E00
0000
0000
3C00
ENDCHAR
STARTCHAR LtSmlZLmacron
ENCODING 7829
SWIDTH 529 0
DWIDTH 9 0
BBX 9 17 0 -3
BITMAP
0000
0000
0000
0000
0000
0000
7E00
0200
0400
0800
1000
2000
4000
7E00
0000
0000
3C00
ENDCHAR
STARTCHAR LtSmlHLmacron
ENCODING 7830
SWIDTH 529 0
DWIDTH 9 0
BBX 9 17 0 -3
BITMAP
0000
0000
0000
4000
4000
4000
5C00
6200
4200
4200
4200
4200
4200
4200
0000
0000
3C00
ENDCHAR
STARTCHAR LtCapALdot
ENCODING 7840
SWIDTH 529 0
DWIDTH 9 0
BBX 9 17 0 -3
BITMAP
0000
0000
0000
0800
0800
0800
1400
1400
2200
2200
3E00
4100
4100
4100
0000
0800
0800
ENDCHAR
STARTCHAR LtSmlALdot
ENCODING 7841
SWIDTH 529 0
DWIDTH 9 0
BBX 9 17 0 -3
BITMAP
0000
0000
0000
0000
0000
0000
3C00
0200
0200
3E00
4200
4200
4600
3A00
0000
0800
0800
ENDCHAR
STARTCHAR LtCapACircumLdot
ENCODING 7852
SWIDTH 529 0
DWIDTH 9 0
BBX 9 17 0 -3
BITMAP
0C00
1200
0000
0800
0800
0800
1400
1400
2200
2200
3E00
4100
4100
4100
0000
0800
0800
ENDCHAR
STARTCHAR LtSmlACircumLdot
ENCODING 7853
SWIDTH 529 0
DWIDTH 9 0
BBX 9 17 0 -3
BITMAP
0000
0000
0000
1800
2400
0000
3C00
0200
0200
3E00
4200
4200
4600
3A00
0000
0800
0800
ENDCHAR
STARTCHAR LtCapABreveLdot
ENCODING 7862
SWIDTH 529 0
DWIDTH 9 0
BBX 9 17 0 -3
BITMAP
2200
1C00
0000
0800
0800
0800
1400
1400
2200
2200
3E00
4100
4100
4100
0000
0800
0800
ENDCHAR
STARTCHAR LtSmlABreveLdot
ENCODING 7863
SWIDTH 529 0
DWIDTH 9 0
BBX 9 17 0 -3
BITMAP
0000
0000
0000
2200
1C00
0000
3C00
0200
0200
3E00
4200
4200
4600
3A00
0000
0800
0800
ENDCHAR
STARTCHAR LtCapELdot
ENCODING 7864
SWIDTH 529 0
DWIDTH 9 0
BBX 9 17 0 -3
BITMAP
0000
0000
0000
7E00
4000
4000
4000
4000
7800
4000
4000
4000
4000
7E00
0000
1000
1000
ENDCHAR
STARTCHAR LtSmlELdot
ENCODING 7865
SWIDTH 529 0
DWIDTH 9 0
BBX 9 17 0 -3
BITMAP
0000
0000
0000
0000
0000
0000
1C00
2200
4200
7E00
4000
4000
2200
1C00
0000
0800
0800
ENDCHAR
STARTCHAR LtCapECircumLdot
ENCODING 7878
SWIDTH 529 0
DWIDTH 9 0
BBX 9 17 0 -3
BITMAP
1800
2400
0000
7E00
4000
4000
4000
4000
7800
4000
4000
4000
4000
7E00
0000
1000
1000
ENDCHAR
STARTCHAR LtSmlECircumLdot
ENCODING 7879
SWIDTH 529 0
DWIDTH 9 0
BBX 9 17 0 -3
BITMAP
0000
0000
0000
0C00
1200
0000
1C00
2200
4200
7E00
4000
4000
2200
1C00
0000
0800
0800
ENDCHAR
STARTCHAR LtCapILdot
ENCODING 7882
SWIDTH 529 0
DWIDTH 9 0
BBX 9 17 0 -3
BITMAP
0000
0000
0000
3E00
0800
0800
0800
0800
0800
0800
0800
0800
0800
3E00
0000
0800
0800
ENDCHAR
STARTCHAR LtSmlILdot
ENCODING 7883
SWIDTH 529 0
DWIDTH 9 0
BBX 9 17 0 -3
BITMAP
0000
0000
0800
0800
0000
0000
1800
0800
0800
0800
0800
0800
0800
3E00
0000
0800
0800
ENDCHAR
STARTCHAR LtCapOLdot
ENCODING 7884
SWIDTH 529 0
DWIDTH 9 0
BBX 9 17 0 -3
BITMAP
0000
0000
0000
3C00
4200
4200
4200
4200
4200
4200
4200
4200
4200
3C00
0000
0800
0800
ENDCHAR
STARTCHAR LtSmlOLdot
ENCODING 7885
SWIDTH 529 0
DWIDTH 9 0
BBX 9 17 0 -3
BITMAP
0000
0000
0000
0000
0000
0000
3C00
4200
4200
4200
4200
4200
4200
3C00
0000
0800
0800
ENDCHAR
STARTCHAR LtCapOCircumLdot
ENCODING 7896
SWIDTH 529 0
DWIDTH 9 0
BBX 9 17 0 -3
BITMAP
1800
2400
0000
3C00
4200
4200
4200
4200
4200
4200
4200
4200
4200
3C00
0000
0800
0800
ENDCHAR
STARTCHAR LtSmlOCircumLdot
ENCODING 7897
SWIDTH 529 0
DWIDTH 9 0
BBX 9 17 0 -3
BITMAP
0000
0000
0000
1800
2400
0000
3C00
4200
4200
4200
4200
4200
4200
3C00
0000
0800
0800
ENDCHAR
STARTCHAR LtCapOHornLdot
ENCODING 7906
SWIDTH 529 0
DWIDTH 9 0
BBX 9 17 0 -3
BITMAP
0000
0180
0080
3D00
4200
4200
4200
4200
4200
4200
4200
4200
4200
3C00
0000
0800
0800
ENDCHAR
STARTCHAR LtSmlOHornLdot
ENCODING 7907
SWIDTH 529 0
DWIDTH 9 0
BBX 9 17 0 -3
BITMAP
0000
0000
0000
0000
0300
0100
3E00
4200
4200
4200
4200
4200
4200
3C00
0000
0800
0800
ENDCHAR
STARTCHAR LtCapULdot
ENCODING 7908
SWIDTH 529 0
DWIDTH 9 0
BBX 9 17 0 -3
BITMAP
0000
0000
0000
4200
4200
4200
4200
4200
4200
4200
4200
4200
4200
3C00
0000
0800
0800
ENDCHAR
STARTCHAR LtSmlULdot
ENCODING 7909
SWIDTH 529 0
DWIDTH 9 0
BBX 9 17 0 -3
BITMAP
0000
0000
0000
0000
0000
0000
4200
4200
4200
4200
4200
4200
4600
3A00
0000
0800
0800
ENDCHAR
STARTCHAR LtCapUHornLdot
ENCODING 7920
SWIDTH 529 0
DWIDTH 9 0
BBX 9 17 0 -3
BITMAP
0000
0180
0080
4300
4200
4200
4200
4200
4200
4200
4200
4200
4200
3C00
0000
0800
0800
ENDCHAR
STARTCHAR LtSmlUHornLdot
ENCODING 7921
SWIDTH 529 0
DWIDTH 9 0
BBX 9 17 0 -3
BITMAP
0000
0000
0000
0000
0300
0100
4200
4200
4200
4200
4200
4200
4600
3A00
0000
0800
0800
ENDCHAR
STARTCHAR LtCapYLdot
ENCODING 7924
SWIDTH 529 0
DWIDTH 9 0
BBX 9 17 0 -3
BITMAP
0000
0000
0000
4100
4100
2200
2200
1400
1400
0800
0800
0800
0800
0800
0000
0800
0800
ENDCHAR
STARTCHAR LtSmlYLdot
ENCODING 7925
SWIDTH 529 0
DWIDTH 9 0
BBX 9 17 0 -3
BITMAP
0000
0000
0000
0000
0000
0000
4200
4200
4200
2400
2400
1400
1800
0800
1000
5400
2400
ENDCHAR
STARTCHAR MArrowU
ENCODING 8593
SWIDTH 529 0
DWIDTH 9 0
BBX 9 17 0 -3
BITMAP
0000
0800
1C00
2A00
0800
0800
0800
0800
0800
0800
0800
0800
0800
0800
0800
0800
0000
ENDCHAR
STARTCHAR MArrowD
ENCODING 8595
SWIDTH 529 0
DWIDTH 9 0
BBX 9 17 0 -3
BITMAP
0000
0800
0800
0800
0800
0800
0800
0800
0800
0800
0800
0800
0800
2A00
1C00
0800
0000
ENDCHAR
STARTCHAR MArrowUD
ENCODING 8597
SWIDTH 529 0
DWIDTH 9 0
BBX 9 17 0 -3
BITMAP
0000
0800
1C00
2A00
0800
0800
0800
0800
0800
0800
0800
0800
0800
2A00
1C00
0800
0000
ENDCHAR
STARTCHAR MArrowLU
ENCODING 8598
SWIDTH 529 0
DWIDTH 9 0
BBX 9 17 0 -3
BITMAP
0000
8000
E000
D000
A000
A000
1000
1000
0800
0800
0400
0400
0200
0200
0100
0100
0000
ENDCHAR
STARTCHAR MArrowRU
ENCODING 8599
SWIDTH 529 0
DWIDTH 9 0
BBX 9 17 0 -3
BITMAP
0000
0100
0700
0B00
0500
0500
0800
0800
1000
1000
2000
2000
4000
4000
8000
8000
0000
ENDCHAR
STARTCHAR MArrowRD
ENCODING 8600
SWIDTH 529 0
DWIDTH 9 0
BBX 9 17 0 -3
BITMAP
0000
8000
8000
4000
4000
2000
2000
1000
1000
0800
0800
0500
0500
0B00
0700
0100
0000
ENDCHAR
STARTCHAR MArrowLD
ENCODING 8601
SWIDTH 529 0
DWIDTH 9 0
BBX 9 17 0 -3
BITMAP
0000
0100
0100
0200
0200
0400
0400
0800
0800
1000
1000
A000
A000
D000
E000
8000
0000
ENDCHAR
STARTCHAR MArrowUu
ENCODING 8607
SWIDTH 529 0
DWIDTH 9 0
BBX 9 17 0 -3
BITMAP
0000
0800
1C00
2A00
0800
1C00
2A00
0800
0800
0800
0800
0800
0800
0800
0800
0800
0000
ENDCHAR
STARTCHAR MArrowDd
ENCODING 8609
SWIDTH 529 0
DWIDTH 9 0
BBX 9 17 0 -3
BITMAP
0000
0800
0800
0800
0800
0800
0800
0800
0800
0800
2A00
1C00
0800
2A00
1C00
0800
0000
ENDCHAR
STARTCHAR MArrowBarU
ENCODING 8613
SWIDTH 529 0
DWIDTH 9 0
BBX 9 17 0 -3
BITMAP
0000
0800
1C00
2A00
0800
0800
0800
0800
0800
0800
0800
0800
0800
0800
0800
3E00
0000
ENDCHAR
STARTCHAR MArrowBarD
ENCODING 8615
SWIDTH 529 0
DWIDTH 9 0
BBX 9 17 0 -3
BITMAP
0000
3E00
0800
0800
0800
0800
0800
0800
0800
0800
0800
0800
0800
2A00
1C00
0800
0000
ENDCHAR
STARTCHAR MArrowUDBase
ENCODING 8616
SWIDTH 529 0
DWIDTH 9 0
BBX 9 17 0 -3
BITMAP
0000
0800
1C00
2A00
0800
0800
0800
0800
0800
0800
0800
0800
2A00
1C00
0800
3E00
0000
ENDCHAR
STARTCHAR MHarpoonUr
ENCODING 8638
SWIDTH 529 0
DWIDTH 9 0
BBX 9 17 0 -3
BITMAP
0000
0800
0C00
0A00
0800
0800
0800
0800
0800
0800
0800
0800
0800
0800
0800
0800
0000
ENDCHAR
STARTCHAR MHarpoonUl
ENCODING 8639
SWIDTH 529 0
DWIDTH 9 0
BBX 9 17 0 -3
BITMAP
0000
0800
1800
2800
0800
0800
0800
0800
0800
0800
0800
0800
0800
0800
0800
0800
0000
ENDCHAR
STARTCHAR MHarpoonDr
ENCODING 8642
SWIDTH 529 0
DWIDTH 9 0
BBX 9 17 0 -3
BITMAP
0000
0800
0800
0800
0800
0800
0800
0800
0800
0800
0800
0800
0800
0A00
0C00
0800
0000
ENDCHAR
STARTCHAR MHarpoonDl
ENCODING 8643
SWIDTH 529 0
DWIDTH 9 0
BBX 9 17 0 -3
BITMAP
0000
0800
0800
0800
0800
0800
0800
0800
0800
0800
0800
0800
0800
2800
1800
0800
0000
ENDCHAR
STARTCHAR MArrowULeftD
ENCODING 8645
SWIDTH 529 0
DWIDTH 9 0
BBX 9 17 0 -3
BITMAP
0000
2200
7200
AA00
2200
2200
2200
2200
2200
2200
2200
2200
2200
2A80
2700
2200
0000
ENDCHAR
STARTCHAR MArrowULeftU
ENCODING 8648
SWIDTH 529 0
DWIDTH 9 0
BBX 9 17 0 -3
BITMAP
0000
2200
7700
AA80
2200
2200
2200
2200
2200
2200
2200
2200
2200
2200
2200
2200
0000
ENDCHAR
STARTCHAR MArrowDLeftD
ENCODING 8650
SWIDTH 529 0
DWIDTH 9 0
BBX 9 17 0 -3
BITMAP
0000
2200
2200
2200
2200
2200
2200
2200
2200
2200
2200
2200
2200
AA80
7700
2200
0000
ENDCHAR
STARTCHAR MArrow2U
ENCODING 8657
SWIDTH 529 0
DWIDTH 9 0
BBX 9 17 0 -3
BITMAP
0000
0800
1C00
3600
5500
1400
1400
1400
1400
1400
1400
1400
1400
1400
1400
1400
0000
ENDCHAR
STARTCHAR MArrow2D
ENCODING 8659
SWIDTH 529 0
DWIDTH 9 0
BBX 9 17 0 -3
BITMAP
0000
1400
1400
1400
1400
1400
1400
1400
1400
1400
1400
1400
5500
3600
1C00
0800
0000
ENDCHAR
STARTCHAR MArrow2UD
ENCODING 8661
SWIDTH 529 0
DWIDTH 9 0
BBX 9 17 0 -3
BITMAP
0000
0800
1C00
3600
5500
1400
1400
1400
1400
1400
1400
1400
5500
3600
1C00
0800
0000
ENDCHAR
STARTCHAR PCurlyBrackLTRB
ENCODING 9136
SWIDTH 529 0
DWIDTH 9 0
BBX 9 17 0 -3
BITMAP
0300
0400
0800
0800
0800
0800
0800
0800
0800
0800
0800
0800
0800
0800
0800
1000
6000
ENDCHAR
STARTCHAR PCurlyBrackLBRT
ENCODING 9137
SWIDTH 529 0
DWIDTH 9 0
BBX 9 17 0 -3
BITMAP
6000
1000
0800
0800
0800
0800
0800
0800
0800
0800
0800
0800
0800
0800
0800
0400
0300
ENDCHAR
STARTCHAR MSumT
ENCODING 9138
SWIDTH 529 0
DWIDTH 9 0
BBX 9 17 0 -3
BITMAP
0000
FF00
8000
8000
4000
4000
4000
2000
2000
2000
1000
1000
1000
0800
0800
0800
0400
ENDCHAR
STARTCHAR MRootB
ENCODING 9143
SWIDTH 529 0
DWIDTH 9 0
BBX 9 17 0 -3
BITMAP
0800
0800
0800
0800
0800
0800
0800
0800
0800
C800
4800
2800
2800
1800
1800
0800
0800
ENDCHAR
STARTCHAR LtSmlATrndLinvbreve
ENCODING 57350
SWIDTH 529 0
DWIDTH 9 0
BBX 9 17 0 -3
BITMAP
0000
0000
0000
0000
0000
0000
DC00
6200
4200
4400
7800
4000
4400
3C00
0000
3800
4400
ENDCHAR
STARTCHAR LtCapCLdot
ENCODING 57356
SWIDTH 529 0
DWIDTH 9 0
BBX 9 17 0 -3
BITMAP
0000
0000
0000
1C00
2200
4000
4000
4000
4000
4000
4000
4000
2200
1C00
0000
0800
0800
ENDCHAR
STARTCHAR LtSmlCLdot
ENCODING 57357
SWIDTH 529 0
DWIDTH 9 0
BBX 9 17 0 -3
BITMAP
0000
0000
0000
0000
0000
0000
1C00
2200
4000
4000
4000
4000
2200
1C00
0000
0800
0800
ENDCHAR
STARTCHAR LtCapCCaronLdot
ENCODING 57358
SWIDTH 529 0
DWIDTH 9 0
BBX 9 17 0 -3
BITMAP
1200
0C00
0000
1C00
2200
4000
4000
4000
4000
4000
4000
4000
2200
1C00
0000
0800
0800
ENDCHAR
STARTCHAR LtSmlCCaronLdot
ENCODING 57359
SWIDTH 529 0
DWIDTH 9 0
BBX 9 17 0 -3
BITMAP
0000
0000
0000
1200
0C00
0000
1C00
2200
4000
4000
4000
4000
2200
1C00
0000
0800
0800
ENDCHAR
STARTCHAR LtCapELmacron
ENCODING 57370
SWIDTH 529 0
DWIDTH 9 0
BBX 9 17 0 -3
BITMAP
0000
0000
0000
7E00
4000
4000
4000
4000
7800
4000
4000
4000
4000
7E00
0000
0000
3C00
ENDCHAR
STARTCHAR LtSmlELmacron
ENCODING 57371
SWIDTH 529 0
DWIDTH 9 0
BBX 9 17 0 -3
BITMAP
0000
0000
0000
0000
0000
0000
1C00
2200
4200
7E00
4000
4000
2200
1C00
0000
0000
3C00
ENDCHAR
STARTCHAR LtCapEAcuteLdot
ENCODING 57372
SWIDTH 529 0
DWIDTH 9 0
BBX 9 17 0 -3
BITMAP
0400
1800
0000
7E00
4000
4000
4000
4000
7800
4000
4000
4000
4000
7E00
0000
1000
1000
ENDCHAR
STARTCHAR LtSmlEAcuteLdot
ENCODING 57373
SWIDTH 529 0
DWIDTH 9 0
BBX 9 17 0 -3
BITMAP
0000
0000
0400
0400
0800
0000
1C00
2200
4200
7E00
4000
4000
2200
1C00
0000
0800
0800
ENDCHAR
STARTCHAR LtCapEGraveLdot
ENCODING 57376
SWIDTH 529 0
DWIDTH 9 0
BBX 9 17 0 -3
BITMAP
2000
1800
0000
7E00
4000
4000
4000
4000
7800
4000
4000
4000
4000
7E00
0000
1000
1000
ENDCHAR
STARTCHAR LtSmlEGraveLdot
ENCODING 57377
SWIDTH 529 0
DWIDTH 9 0
BBX 9 17 0 -3
BITMAP
0000
0000
1000
1000
0800
0000
1C00
2200
4200
7E00
4000
4000
2200
1C00
0000
0800
0800
ENDCHAR
STARTCHAR LtCapGHLmacron
ENCODING 57393
SWIDTH 529 0
DWIDTH 9 0
BBX 9 17 0 -3
BITMAP
0000
0000
0000
6480
9480
8480
8480
8480
B780
9480
9480
9480
9480
7480
0000
0000
3E00
ENDCHAR
STARTCHAR LtMixGHLmacron
ENCODING 57394
SWIDTH 529 0
DWIDTH 9 0
BBX 9 17 0 -3
BITMAP
0000
0000
0000
6400
9400
8400
8500
8680
B480
9480
9480
9480
9480
7480
0000
0000
3E00
ENDCHAR
STARTCHAR LtSmlGHLmacron
ENCODING 57395
SWIDTH 529 0
DWIDTH 9 0
BBX 9 17 0 -3
BITMAP
0000
0000
0000
0400
0400
0400
7500
9680
9480
9480
9480
6480
8480
7480
8800
7000
7F00
ENDCHAR
STARTCHAR LtCapHLmacron
ENCODING 57396
SWIDTH 529 0
DWIDTH 9 0
BBX 9 17 0 -3
BITMAP
0000
0000
0000
4200
4200
4200
4200
4200
7E00
4200
4200
4200
4200
4200
0000
0000
3C00
ENDCHAR
STARTCHAR LtSmlILinvbreve
ENCODING 57397
SWIDTH 529 0
DWIDTH 9 0
BBX 9 17 0 -3
BITMAP
0000
0000
0800
0800
0000
0000
1800
0800
0800
0800
0800
0800
0800
3E00
0000
1C00
2200
ENDCHAR
STARTCHAR LtCapKHLmacron
ENCODING 57405
SWIDTH 529 0
DWIDTH 9 0
BBX 9 17 0 -3
BITMAP
0000
0000
0000
9480
9480
9480
9480
A480
A780
E480
9480
9480
9480
9480
0000
0000
3E00
ENDCHAR
STARTCHAR LtMixKHLmacron
ENCODING 57406
SWIDTH 529 0
DWIDTH 9 0
BBX 9 17 0 -3
BITMAP
0000
0000
0000
9400
9400
9400
9500
A680
A480
E480
9480
9480
9480
9480
0000
0000
3E00
ENDCHAR
STARTCHAR LtSmlKHLmacron
ENCODING 57407
SWIDTH 529 0
DWIDTH 9 0
BBX 9 17 0 -3
BITMAP
0000
0000
0000
8400
8400
8400
9500
9680
A480
A480
C480
A480
9480
9480
0000
0000
3E00
ENDCHAR
STARTCHAR LtSmlLLring
ENCODING 57409
SWIDTH 529 0
DWIDTH 9 0
BBX 9 17 0 -3
BITMAP
0000
0000
0000
1800
0800
0800
0800
0800
0800
0800
0800
0800
0800
3E00
1800
2400
1800
ENDCHAR
STARTCHAR LtSmlLMacronLring
ENCODING 57412
SWIDTH 529 0
DWIDTH 9 0
BBX 9 17 0 -3
BITMAP
3E00
0000
0000
1800
0800
0800
0800
0800
0800
0800
0800
0800
0800
3E00
1800
2400
1800
ENDCHAR
STARTCHAR LtCapOLmacron
ENCODING 57426
SWIDTH 529 0
DWIDTH 9 0
BBX 9 17 0 -3
BITMAP
0000
0000
0000
3C00
4200
4200
4200
4200
4200
4200
4200
4200
4200
3C00
0000
0000
3C00
ENDCHAR
STARTCHAR LtSmlOLmacron
ENCODING 57427
SWIDTH 529 0
DWIDTH 9 0
BBX 9 17 0 -3
BITMAP
0000
0000
0000
0000
0000
0000
3C00
4200
4200
4200
4200
4200
4200
3C00
0000
0000
3C00
ENDCHAR
STARTCHAR LtCapOAcuteLdot
ENCODING 57428
SWIDTH 529 0
DWIDTH 9 0
BBX 9 17 0 -3
BITMAP
0400
1800
0000
3C00
4200
4200
4200
4200
4200
4200
4200
4200
4200
3C00
0000
0800
0800
ENDCHAR
STARTCHAR LtSmlOAcuteLdot
ENCODING 57429
SWIDTH 529 0
DWIDTH 9 0
BBX 9 17 0 -3
BITMAP
0000
0000
0800
0800
1000
0000
3C00
4200
4200
4200
4200
4200
4200
3C00
0000
0800
0800
ENDCHAR
STARTCHAR LtSmlOLinvbreve
ENCODING 57430
SWIDTH 529 0
DWIDTH 9 0
BBX 9 17 0 -3
BITMAP
0000
0000
0000
0000
0000
0000
3C00
4200
4200
4200
4200
4200
4200
3C00
0000
3800
4400
ENDCHAR
STARTCHAR LtCapOGraveLdot
ENCODING 57433
SWIDTH 529 0
DWIDTH 9 0
BBX 9 17 0 -3
BITMAP
2000
1800
0000
3C00
4200
4200
4200
4200
4200
4200
4200
4200
4200
3C00
0000
0800
0800
ENDCHAR
STARTCHAR LtSmlOGraveLdot
ENCODING 57434
SWIDTH 529 0
DWIDTH 9 0
BBX 9 17 0 -3
BITMAP
0000
0000
1000
1000
0800
0000
3C00
4200
4200
4200
4200
4200
4200
3C00
0000
0800
0800
ENDCHAR
STARTCHAR LtCapPLdot
ENCODING 57437
SWIDTH 529 0
DWIDTH 9 0
BBX 9 17 0 -3
BITMAP
0000
0000
0000
7C00
4200
4200
4200
4200
7C00
4000
4000
4000
4000
4000
0000
4000
4000
ENDCHAR
STARTCHAR LtSmlPLdot
ENCODING 57438
SWIDTH 529 0
DWIDTH 9 0
BBX 9 17 0 -3
BITMAP
0000
0000
0000
0000
0000
0000
5C00
6200
4200
4200
4200
4200
6200
5C00
4000
4800
4800
ENDCHAR
STARTCHAR LtCapQLdot
ENCODING 57441
SWIDTH 529 0
DWIDTH 9 0
BBX 9 17 0 -3
BITMAP
0000
0000
0000
3C00
4200
4200
4200
4200
4200
4200
4A00
4A00
4600
3E00
0100
0800
0800
ENDCHAR
STARTCHAR LtSmlQLdot
ENCODING 57442
SWIDTH 529 0
DWIDTH 9 0
BBX 9 17 0 -3
BITMAP
0000
0000
0000
0000
0000
0000
3A00
4600
4200
4200
4200
4200
4600
3A00
0200
1200
1200
ENDCHAR
STARTCHAR LtCapRLring
ENCODING 57443
SWIDTH 529 0
DWIDTH 9 0
BBX 9 17 0 -3
BITMAP
0000
0000
0000
7C00
4200
4200
4200
4200
7C00
4800
4400
4400
4200
4200
1800
2400
1800
ENDCHAR
STARTCHAR LtSmlRLring
ENCODING 57444
SWIDTH 529 0
DWIDTH 9 0
BBX 9 17 0 -3
BITMAP
0000
0000
0000
0000
0000
0000
6E00
3200
2000
2000
2000
2000
2000
2000
3000
4800
3000
ENDCHAR
STARTCHAR LtSmlRLvline
ENCODING 57445
SWIDTH 529 0
DWIDTH 9 0
BBX 9 17 0 -3
BITMAP
0000
0000
0000
0000
0000
0000
6E00
3200
2000
2000
2000
2000
2000
2000
1000
1000
1000
ENDCHAR
STARTCHAR LtCapRAcuteLdot
ENCODING 57446
SWIDTH 529 0
DWIDTH 9 0
BBX 9 17 0 -3
BITMAP
0400
1800
0000
7C00
4200
4200
4200
4200
7C00
4800
4400
4400
4200
4200
0000
1000
1000
ENDCHAR
STARTCHAR LtSmlRAcuteLdot
ENCODING 57447
SWIDTH 529 0
DWIDTH 9 0
BBX 9 17 0 -3
BITMAP
0000
0000
0800
0800
1000
0000
6E00
3200
2000
2000
2000
2000
2000
2000
0000
2000
2000
ENDCHAR
STARTCHAR LtSmlRAcuteLring
ENCODING 57448
SWIDTH 529 0
DWIDTH 9 0
BBX 9 17 0 -3
BITMAP
0000
0000
0800
0800
1000
0000
6E00
3200
2000
2000
2000
2000
2000
2000
3000
4800
3000
ENDCHAR
STARTCHAR LtCapRGraveLdot
ENCODING 57449
SWIDTH 529 0
DWIDTH 9 0
BBX 9 17 0 -3
BITMAP
2000
1800
0000
7C00
4200
4200
4200
4200
7C00
4800
4400
4400
4200
4200
0000
1000
1000
ENDCHAR
STARTCHAR LtSmlRGraveLdot
ENCODING 57450
SWIDTH 529 0
DWIDTH 9 0
BBX 9 17 0 -3
BITMAP
0000
0000
1000
1000
0800
0000
6E00
3200
2000
2000
2000
2000
2000
2000
0000
2000
2000
ENDCHAR
STARTCHAR LtSmlRGraveLring
ENCODING 57451
SWIDTH 529 0
DWIDTH 9 0
BBX 9 17 0 -3
BITMAP
0000
0000
1000
1000
0800
0000
6E00
3200
2000
2000
2000
2000
2000
2000
3000
4800
3000
ENDCHAR
STARTCHAR LtSmlRMacronAcuteLdot
ENCODING 57453
SWIDTH 529 0
DWIDTH 9 0
BBX 9 17 0 -3
BITMAP
0800
0800
1000
0000
3C00
0000
6E00
3200
2000
2000
2000
2000
2000
2000
0000
2000
2000
ENDCHAR
STARTCHAR LtSmlRMacronLring
ENCODING 57454
SWIDTH 529 0
DWIDTH 9 0
BBX 9 17 0 -3
BITMAP
0000
0000
0000
3C00
0000
0000
6E00
3200
2000
2000
2000
2000
2000
2000
3000
4800
3000
ENDCHAR
STARTCHAR LtSmlRMacronAcuteLring
ENCODING 57455
SWIDTH 529 0
DWIDTH 9 0
BBX 9 17 0 -3
BITMAP
0800
0800
1000
0000
3C00
0000
6E00
3200
2000
2000
2000
2000
2000
2000
3000
4800
3000
ENDCHAR
STARTCHAR LtSmlULinvbreve
ENCODING 57456
SWIDTH 529 0
DWIDTH 9 0
BBX 9 17 0 -3
BITMAP
0000
0000
0000
0000
0000
0000
4200
4200
4200
4200
4200
4200
4600
3A00
0000
3800
4400
ENDCHAR
STARTCHAR GkCapIotTrndLbreve
ENCODING 57483
SWIDTH 529 0
DWIDTH 9 0
BBX 9 17 0 -3
BITMAP
0000
0000
0000
3E00
0800
0800
0800
0800
0800
0800
0800
0800
0800
3E00
0000
2200
1C00
ENDCHAR
STARTCHAR GkSmlIotTrndLbreve
ENCODING 57484
SWIDTH 529 0
DWIDTH 9 0
BBX 9 17 0 -3
BITMAP
0000
0000
0000
0000
0000
0000
3000
4800
0800
0800
0800
0800
0800
0800
0000
2200
1C00
ENDCHAR
STARTCHAR GkCapUpsTrndLbreve
ENCODING 57486
SWIDTH 529 0
DWIDTH 9 0
BBX 9 17 0 -3
BITMAP
0000
0000
0000
0800
0800
0800
0800
0800
1400
1400
2200
2200
4100
4100
0000
2200
1C00
ENDCHAR
STARTCHAR GkSmlUpsTrndLbreve
ENCODING 57487
SWIDTH 529 0
DWIDTH 9 0
BBX 9 17 0 -3
BITMAP
0000
0000
0000
0000
0000
0000
3C00
4200
4200
4200
4200
4200
4200
4200
0000
2200
1C00
ENDCHAR
STARTCHAR GeEnMacron
ENCODING 57493
SWIDTH 529 0
DWIDTH 9 0
BBX 9 17 0 -3
BITMAP
0000
0000
0000
0000
3C00
0000
0000
1C00
2200
2200
0200
0200
0200
0200
4200
4200
3C00
ENDCHAR
STARTCHAR GeUnCircum
ENCODING 57497
SWIDTH 529 0
DWIDTH 9 0
BBX 9 17 0 -3
BITMAP
0000
0000
0000
0000
0C00
1200
0000
5600
6900
0900
0900
0100
0100
0100
2100
2100
1E00
ENDCHAR
STARTCHAR GeUnMacron
ENCODING 57498
SWIDTH 529 0
DWIDTH 9 0
BBX 9 17 0 -3
BITMAP
0000
0000
0000
0000
3C00
0000
0000
5600
6900
0900
0900
0100
0100
0100
2100
2100
1E00
ENDCHAR
STARTCHAR GeUnDrss
ENCODING 57499
SWIDTH 529 0
DWIDTH 9 0
BBX 9 17 0 -3
BITMAP
0000
0000
0000
0000
1200
1200
0000
5600
6900
0900
0900
0100
0100
0100
2100
2100
1E00
ENDCHAR
STARTCHAR GeUo
ENCODING 57500
SWIDTH 529 0
DWIDTH 9 0
BBX 9 17 0 -3
BITMAP
0000
0000
0000
0000
0000
0000
0000
3500
4B00
4800
4800
4000
4000
4000
4200
4200
3C00
ENDCHAR
STARTCHAR HbAlefPatah
ENCODING 64302
SWIDTH 529 0
DWIDTH 9 0
BBX 9 17 0 -3
BITMAP
0000
0000
0000
0000
0000
4200
4100
2100
1200
2A00
4400
4200
4100
6100
0000
3E00
0000
ENDCHAR
STARTCHAR HbAlefQamats
ENCODING 64303
SWIDTH 529 0
DWIDTH 9 0
BBX 9 17 0 -3
BITMAP
0000
0000
0000
0000
0000
4200
4100
2100
1200
2A00
4400
4200
4100
6100
0000
1C00
0800
ENDCHAR
ENDFONT
