STARTFONT 2.1
FONT -fbf-uw-ttyp0-medium-r-normal--15-150-75-75-p-150-iso10646-1
SIZE 15 75 75
FONTBOUNDINGBOX 8 15 0 -3
STARTPROPERTIES 19
FONTNAME_REGISTRY ""
FOUNDRY "UW"
FAMILY_NAME "Ttyp0"
WEIGHT_NAME "Medium"
SLANT "R"
SETWIDTH_NAME "Normal"
ADD_STYLE_NAME ""
PIXEL_SIZE 15
POINT_SIZE 140
RESOLUTION_X 75
RESOLUTION_Y 75
SPACING "C"
AVERAGE_WIDTH 80
CHARSET_REGISTRY "ISO10646"
CHARSET_ENCODING "1"
DEFAULT_CHAR 0
FONT_DESCENT 3
FONT_ASCENT 12
COPYRIGHT "Copyright (C) 2012-2015 Uwe Waldmann"
ENDPROPERTIES
CHARS 234
STARTCHAR CombLdot
ENCODING 803
SWIDTH 533 0
DWIDTH 8 0
BBX 8 15 0 -3
BITMAP
00
00
00
00
00
00
00
00
00
00
00
00
00
08
08
ENDCHAR
STARTCHAR CombLdrss
ENCODING 804
SWIDTH 533 0
DWIDTH 8 0
BBX 8 15 0 -3
BITMAP
00
00
00
00
00
00
00
00
00
00
00
00
00
24
24
ENDCHAR
STARTCHAR CombLvline
ENCODING 809
SWIDTH 533 0
DWIDTH 8 0
BBX 8 15 0 -3
BITMAP
00
00
00
00
00
00
00
00
00
00
00
00
08
08
08
ENDCHAR
STARTCHAR CombLcaron
ENCODING 812
SWIDTH 533 0
DWIDTH 8 0
BBX 8 15 0 -3
BITMAP
00
00
00
00
00
00
00
00
00
00
00
00
00
24
18
ENDCHAR
STARTCHAR CombLcircum
ENCODING 813
SWIDTH 533 0
DWIDTH 8 0
BBX 8 15 0 -3
BITMAP
00
00
00
00
00
00
00
00
00
00
00
00
00
18
24
ENDCHAR
STARTCHAR CombLbreve
ENCODING 814
SWIDTH 533 0
DWIDTH 8 0
BBX 8 15 0 -3
BITMAP
00
00
00
00
00
00
00
00
00
00
00
00
00
24
18
ENDCHAR
STARTCHAR CombLinvbreve
ENCODING 815
SWIDTH 533 0
DWIDTH 8 0
BBX 8 15 0 -3
BITMAP
00
00
00
00
00
00
00
00
00
00
00
00
00
18
24
ENDCHAR
STARTCHAR CombLtilde
ENCODING 816
SWIDTH 533 0
DWIDTH 8 0
BBX 8 15 0 -3
BITMAP
00
00
00
00
00
00
00
00
00
00
00
00
00
32
4C
ENDCHAR
STARTCHAR CombLmacron
ENCODING 817
SWIDTH 533 0
DWIDTH 8 0
BBX 8 15 0 -3
BITMAP
00
00
00
00
00
00
00
00
00
00
00
00
00
00
3C
ENDCHAR
STARTCHAR CombLvline2
ENCODING 840
SWIDTH 533 0
DWIDTH 8 0
BBX 8 15 0 -3
BITMAP
00
00
00
00
00
00
00
00
00
00
00
00
24
24
24
ENDCHAR
STARTCHAR AmSmlEh
ENCODING 1383
SWIDTH 533 0
DWIDTH 8 0
BBX 8 15 0 -3
BITMAP
00
00
20
20
20
20
3E
20
20
20
20
1C
02
04
00
ENDCHAR
STARTCHAR AmSmlYi
ENCODING 1397
SWIDTH 533 0
DWIDTH 8 0
BBX 8 15 0 -3
BITMAP
00
00
00
00
00
00
18
08
08
08
08
08
08
08
70
ENDCHAR
STARTCHAR AmSmlSha
ENCODING 1399
SWIDTH 533 0
DWIDTH 8 0
BBX 8 15 0 -3
BITMAP
00
00
00
00
00
00
1C
22
02
04
08
10
20
20
1E
ENDCHAR
STARTCHAR AmSmlCha
ENCODING 1401
SWIDTH 533 0
DWIDTH 8 0
BBX 8 15 0 -3
BITMAP
00
00
00
00
00
00
08
10
08
04
08
10
20
20
1E
ENDCHAR
STARTCHAR AmSmlJheh
ENCODING 1403
SWIDTH 533 0
DWIDTH 8 0
BBX 8 15 0 -3
BITMAP
00
00
08
14
22
22
22
22
14
08
08
10
20
20
1E
ENDCHAR
STARTCHAR AmSmlCo
ENCODING 1409
SWIDTH 533 0
DWIDTH 8 0
BBX 8 15 0 -3
BITMAP
00
00
00
00
00
00
1E
22
22
22
22
1E
02
22
1C
ENDCHAR
STARTCHAR AmSmlKeh
ENCODING 1412
SWIDTH 533 0
DWIDTH 8 0
BBX 8 15 0 -3
BITMAP
00
00
00
00
00
00
3C
22
22
22
22
3C
20
7E
20
ENDCHAR
STARTCHAR CombHbHatafQamats
ENCODING 1459
SWIDTH 533 0
DWIDTH 8 0
BBX 8 15 0 -3
BITMAP
00
00
00
00
00
00
00
00
00
00
00
00
06
70
26
ENDCHAR
STARTCHAR CombHbSegol
ENCODING 1462
SWIDTH 533 0
DWIDTH 8 0
BBX 8 15 0 -3
BITMAP
00
00
00
00
00
00
00
00
00
00
00
00
00
66
18
ENDCHAR
STARTCHAR CombHbPatah
ENCODING 1463
SWIDTH 533 0
DWIDTH 8 0
BBX 8 15 0 -3
BITMAP
00
00
00
00
00
00
00
00
00
00
00
00
00
7C
00
ENDCHAR
STARTCHAR CombHbQamats
ENCODING 1464
SWIDTH 533 0
DWIDTH 8 0
BBX 8 15 0 -3
BITMAP
00
00
00
00
00
00
00
00
00
00
00
00
00
38
10
ENDCHAR
STARTCHAR CombHbMeteg
ENCODING 1469
SWIDTH 533 0
DWIDTH 8 0
BBX 8 15 0 -3
BITMAP
00
00
00
00
00
00
00
00
00
00
00
00
10
10
10
ENDCHAR
STARTCHAR ThYoYing
ENCODING 3597
SWIDTH 533 0
DWIDTH 8 0
BBX 8 15 0 -3
BITMAP
00
00
00
00
00
32
4A
4A
4A
4A
4A
44
00
12
0C
ENDCHAR
STARTCHAR ThDoChada
ENCODING 3598
SWIDTH 533 0
DWIDTH 8 0
BBX 8 15 0 -3
BITMAP
00
00
00
00
00
3C
42
62
22
22
62
62
02
02
1C
ENDCHAR
STARTCHAR ThToPatak
ENCODING 3599
SWIDTH 533 0
DWIDTH 8 0
BBX 8 15 0 -3
BITMAP
00
00
00
00
00
3C
42
62
22
22
62
62
02
2A
3C
ENDCHAR
STARTCHAR ThThoThan
ENCODING 3600
SWIDTH 533 0
DWIDTH 8 0
BBX 8 15 0 -3
BITMAP
00
00
00
00
00
7E
04
02
1A
1A
06
02
00
2A
3C
ENDCHAR
STARTCHAR ThRu
ENCODING 3620
SWIDTH 533 0
DWIDTH 8 0
BBX 8 15 0 -3
BITMAP
00
00
00
00
00
3C
42
62
22
22
32
32
02
02
02
ENDCHAR
STARTCHAR ThLu
ENCODING 3622
SWIDTH 533 0
DWIDTH 8 0
BBX 8 15 0 -3
BITMAP
00
00
00
00
00
3C
42
62
22
22
62
62
02
02
02
ENDCHAR
STARTCHAR ThSaraU
ENCODING 3640
SWIDTH 533 0
DWIDTH 8 0
BBX 8 15 0 -3
BITMAP
00
00
00
00
00
00
00
00
00
00
00
00
00
06
02
ENDCHAR
STARTCHAR ThSaraUu
ENCODING 3641
SWIDTH 533 0
DWIDTH 8 0
BBX 8 15 0 -3
BITMAP
00
00
00
00
00
00
00
00
00
00
00
00
00
1A
0E
ENDCHAR
STARTCHAR ThPhinthu
ENCODING 3642
SWIDTH 533 0
DWIDTH 8 0
BBX 8 15 0 -3
BITMAP
00
00
00
00
00
00
00
00
00
00
00
00
00
06
06
ENDCHAR
STARTCHAR ThLakkhangyao
ENCODING 3653
SWIDTH 533 0
DWIDTH 8 0
BBX 8 15 0 -3
BITMAP
00
00
00
00
00
1C
22
22
02
02
02
02
02
02
02
ENDCHAR
STARTCHAR ThMaiyamok
ENCODING 3654
SWIDTH 533 0
DWIDTH 8 0
BBX 8 15 0 -3
BITMAP
00
00
00
00
00
34
4A
62
62
02
02
02
02
02
04
ENDCHAR
STARTCHAR GeGan
ENCODING 4306
SWIDTH 533 0
DWIDTH 8 0
BBX 8 15 0 -3
BITMAP
00
00
00
00
00
00
30
48
08
3C
42
42
42
42
3C
ENDCHAR
STARTCHAR GeDon
ENCODING 4307
SWIDTH 533 0
DWIDTH 8 0
BBX 8 15 0 -3
BITMAP
00
00
00
00
00
00
3C
42
42
42
42
3C
20
78
06
ENDCHAR
STARTCHAR GeEn
ENCODING 4308
SWIDTH 533 0
DWIDTH 8 0
BBX 8 15 0 -3
BITMAP
00
00
00
00
00
00
1C
22
22
02
02
02
42
42
3C
ENDCHAR
STARTCHAR GeVin
ENCODING 4309
SWIDTH 533 0
DWIDTH 8 0
BBX 8 15 0 -3
BITMAP
00
00
00
00
00
00
1C
22
22
02
0C
02
42
42
3C
ENDCHAR
STARTCHAR GeKan
ENCODING 4313
SWIDTH 533 0
DWIDTH 8 0
BBX 8 15 0 -3
BITMAP
00
00
00
00
00
00
02
02
02
1C
02
02
42
42
3C
ENDCHAR
STARTCHAR GeLas
ENCODING 4314
SWIDTH 533 0
DWIDTH 8 0
BBX 8 15 0 -3
BITMAP
00
00
00
00
00
00
3C
42
42
42
42
20
30
4C
02
ENDCHAR
STARTCHAR GeZhar
ENCODING 4319
SWIDTH 533 0
DWIDTH 8 0
BBX 8 15 0 -3
BITMAP
00
00
00
00
00
00
06
1A
4A
4A
32
02
22
22
1C
ENDCHAR
STARTCHAR GeTar
ENCODING 4322
SWIDTH 533 0
DWIDTH 8 0
BBX 8 15 0 -3
BITMAP
00
00
00
00
00
08
14
1C
2A
41
41
41
41
22
1C
ENDCHAR
STARTCHAR GeUn
ENCODING 4323
SWIDTH 533 0
DWIDTH 8 0
BBX 8 15 0 -3
BITMAP
00
00
00
00
00
00
4C
72
12
12
02
02
42
42
3C
ENDCHAR
STARTCHAR GePhar
ENCODING 4324
SWIDTH 533 0
DWIDTH 8 0
BBX 8 15 0 -3
BITMAP
00
00
00
00
00
00
36
49
49
49
49
32
01
11
0E
ENDCHAR
STARTCHAR GeKhar
ENCODING 4325
SWIDTH 533 0
DWIDTH 8 0
BBX 8 15 0 -3
BITMAP
00
00
02
06
02
02
02
1E
22
02
02
02
42
42
3C
ENDCHAR
STARTCHAR GeGhan
ENCODING 4326
SWIDTH 533 0
DWIDTH 8 0
BBX 8 15 0 -3
BITMAP
00
00
00
00
00
00
36
49
49
49
49
41
30
4C
02
ENDCHAR
STARTCHAR GeQar
ENCODING 4327
SWIDTH 533 0
DWIDTH 8 0
BBX 8 15 0 -3
BITMAP
00
00
00
00
00
00
42
42
42
26
1A
02
42
42
3C
ENDCHAR
STARTCHAR GeCan
ENCODING 4330
SWIDTH 533 0
DWIDTH 8 0
BBX 8 15 0 -3
BITMAP
00
00
00
00
00
00
24
42
41
41
46
41
41
22
1C
ENDCHAR
STARTCHAR GeCil
ENCODING 4332
SWIDTH 533 0
DWIDTH 8 0
BBX 8 15 0 -3
BITMAP
00
00
36
49
49
40
40
3E
22
22
14
14
08
08
08
ENDCHAR
STARTCHAR GeChar
ENCODING 4333
SWIDTH 533 0
DWIDTH 8 0
BBX 8 15 0 -3
BITMAP
00
00
10
10
08
04
04
36
4C
36
04
04
44
44
38
ENDCHAR
STARTCHAR GeWe
ENCODING 4339
SWIDTH 533 0
DWIDTH 8 0
BBX 8 15 0 -3
BITMAP
00
00
00
00
00
00
3E
22
04
08
1C
02
42
42
3C
ENDCHAR
STARTCHAR GeHar
ENCODING 4340
SWIDTH 533 0
DWIDTH 8 0
BBX 8 15 0 -3
BITMAP
00
00
08
10
10
10
0E
02
04
08
1C
02
42
42
3C
ENDCHAR
STARTCHAR GeFi
ENCODING 4342
SWIDTH 533 0
DWIDTH 8 0
BBX 8 15 0 -3
BITMAP
00
00
00
00
00
00
36
49
49
49
49
2E
08
08
30
ENDCHAR
STARTCHAR GeYn
ENCODING 4343
SWIDTH 533 0
DWIDTH 8 0
BBX 8 15 0 -3
BITMAP
00
00
00
00
00
00
3C
42
42
0C
30
40
42
42
3C
ENDCHAR
STARTCHAR GeElifi
ENCODING 4344
SWIDTH 533 0
DWIDTH 8 0
BBX 8 15 0 -3
BITMAP
00
00
00
00
00
00
42
42
42
64
58
40
42
42
3C
ENDCHAR
STARTCHAR GeGanTrnd
ENCODING 4345
SWIDTH 533 0
DWIDTH 8 0
BBX 8 15 0 -3
BITMAP
00
00
00
00
00
00
3C
42
42
42
42
3C
10
12
0C
ENDCHAR
STARTCHAR LtCapALring
ENCODING 7680
SWIDTH 533 0
DWIDTH 8 0
BBX 8 15 0 -3
BITMAP
00
00
18
18
24
24
42
42
7E
42
42
42
08
14
08
ENDCHAR
STARTCHAR LtSmlALring
ENCODING 7681
SWIDTH 533 0
DWIDTH 8 0
BBX 8 15 0 -3
BITMAP
00
00
00
00
00
3C
02
02
3E
42
46
3A
08
14
08
ENDCHAR
STARTCHAR LtCapBLdot
ENCODING 7684
SWIDTH 533 0
DWIDTH 8 0
BBX 8 15 0 -3
BITMAP
00
00
7C
42
42
42
7C
42
42
42
42
7C
00
10
10
ENDCHAR
STARTCHAR LtSmlBLdot
ENCODING 7685
SWIDTH 533 0
DWIDTH 8 0
BBX 8 15 0 -3
BITMAP
00
00
40
40
40
5C
62
42
42
42
62
5C
00
08
08
ENDCHAR
STARTCHAR LtCapBLmacron
ENCODING 7686
SWIDTH 533 0
DWIDTH 8 0
BBX 8 15 0 -3
BITMAP
00
00
7C
42
42
42
7C
42
42
42
42
7C
00
00
3C
ENDCHAR
STARTCHAR LtSmlBLmacron
ENCODING 7687
SWIDTH 533 0
DWIDTH 8 0
BBX 8 15 0 -3
BITMAP
00
00
40
40
40
5C
62
42
42
42
62
5C
00
00
3C
ENDCHAR
STARTCHAR LtCapDLdot
ENCODING 7692
SWIDTH 533 0
DWIDTH 8 0
BBX 8 15 0 -3
BITMAP
00
00
78
44
42
42
42
42
42
42
44
78
00
10
10
ENDCHAR
STARTCHAR LtSmlDLdot
ENCODING 7693
SWIDTH 533 0
DWIDTH 8 0
BBX 8 15 0 -3
BITMAP
00
00
02
02
02
3A
46
42
42
42
46
3A
00
10
10
ENDCHAR
STARTCHAR LtCapDLmacron
ENCODING 7694
SWIDTH 533 0
DWIDTH 8 0
BBX 8 15 0 -3
BITMAP
00
00
78
44
42
42
42
42
42
42
44
78
00
00
7C
ENDCHAR
STARTCHAR LtSmlDLmacron
ENCODING 7695
SWIDTH 533 0
DWIDTH 8 0
BBX 8 15 0 -3
BITMAP
00
00
02
02
02
3A
46
42
42
42
46
3A
00
00
3C
ENDCHAR
STARTCHAR LtCapDLcircum
ENCODING 7698
SWIDTH 533 0
DWIDTH 8 0
BBX 8 15 0 -3
BITMAP
00
00
78
44
42
42
42
42
42
42
44
78
00
18
24
ENDCHAR
STARTCHAR LtSmlDLcircum
ENCODING 7699
SWIDTH 533 0
DWIDTH 8 0
BBX 8 15 0 -3
BITMAP
00
00
02
02
02
3A
46
42
42
42
46
3A
00
18
24
ENDCHAR
STARTCHAR LtCapELcircum
ENCODING 7704
SWIDTH 533 0
DWIDTH 8 0
BBX 8 15 0 -3
BITMAP
00
00
7E
40
40
40
78
40
40
40
40
7E
00
18
24
ENDCHAR
STARTCHAR LtSmlELcircum
ENCODING 7705
SWIDTH 533 0
DWIDTH 8 0
BBX 8 15 0 -3
BITMAP
00
00
00
00
00
3C
42
42
7E
40
40
3C
00
18
24
ENDCHAR
STARTCHAR LtCapELtilde
ENCODING 7706
SWIDTH 533 0
DWIDTH 8 0
BBX 8 15 0 -3
BITMAP
00
00
7E
40
40
40
78
40
40
40
40
7E
00
32
4C
ENDCHAR
STARTCHAR LtSmlELtilde
ENCODING 7707
SWIDTH 533 0
DWIDTH 8 0
BBX 8 15 0 -3
BITMAP
00
00
00
00
00
3C
42
42
7E
40
40
3C
00
32
4C
ENDCHAR
STARTCHAR LtCapHLdot
ENCODING 7716
SWIDTH 533 0
DWIDTH 8 0
BBX 8 15 0 -3
BITMAP
00
00
42
42
42
42
7E
42
42
42
42
42
00
10
10
ENDCHAR
STARTCHAR LtSmlHLdot
ENCODING 7717
SWIDTH 533 0
DWIDTH 8 0
BBX 8 15 0 -3
BITMAP
00
00
40
40
40
5C
62
42
42
42
42
42
00
10
10
ENDCHAR
STARTCHAR LtCapHLbreve
ENCODING 7722
SWIDTH 533 0
DWIDTH 8 0
BBX 8 15 0 -3
BITMAP
00
00
42
42
42
42
7E
42
42
42
42
42
00
24
18
ENDCHAR
STARTCHAR LtSmlHLbreve
ENCODING 7723
SWIDTH 533 0
DWIDTH 8 0
BBX 8 15 0 -3
BITMAP
00
00
40
40
40
5C
62
42
42
42
42
42
00
24
18
ENDCHAR
STARTCHAR LtCapILtilde
ENCODING 7724
SWIDTH 533 0
DWIDTH 8 0
BBX 8 15 0 -3
BITMAP
00
00
3E
08
08
08
08
08
08
08
08
3E
00
12
2C
ENDCHAR
STARTCHAR LtSmlILtilde
ENCODING 7725
SWIDTH 533 0
DWIDTH 8 0
BBX 8 15 0 -3
BITMAP
00
00
08
08
00
18
08
08
08
08
08
3E
00
12
2C
ENDCHAR
STARTCHAR LtCapKLdot
ENCODING 7730
SWIDTH 533 0
DWIDTH 8 0
BBX 8 15 0 -3
BITMAP
00
00
42
42
44
48
50
70
48
44
42
42
00
10
10
ENDCHAR
STARTCHAR LtSmlKLdot
ENCODING 7731
SWIDTH 533 0
DWIDTH 8 0
BBX 8 15 0 -3
BITMAP
00
00
40
40
40
42
44
48
70
48
44
42
00
10
10
ENDCHAR
STARTCHAR LtCapKLmacron
ENCODING 7732
SWIDTH 533 0
DWIDTH 8 0
BBX 8 15 0 -3
BITMAP
00
00
42
42
44
48
50
70
48
44
42
42
00
00
3C
ENDCHAR
STARTCHAR LtSmlKLmacron
ENCODING 7733
SWIDTH 533 0
DWIDTH 8 0
BBX 8 15 0 -3
BITMAP
00
00
40
40
40
42
44
48
70
48
44
42
00
00
3C
ENDCHAR
STARTCHAR LtCapLLdot
ENCODING 7734
SWIDTH 533 0
DWIDTH 8 0
BBX 8 15 0 -3
BITMAP
00
00
40
40
40
40
40
40
40
40
40
7E
00
10
10
ENDCHAR
STARTCHAR LtSmlLLdot
ENCODING 7735
SWIDTH 533 0
DWIDTH 8 0
BBX 8 15 0 -3
BITMAP
00
00
18
08
08
08
08
08
08
08
08
3E
00
08
08
ENDCHAR
STARTCHAR LtCapLMacronLdot
ENCODING 7736
SWIDTH 533 0
DWIDTH 8 0
BBX 8 15 0 -3
BITMAP
3C
00
40
40
40
40
40
40
40
40
40
7E
00
10
10
ENDCHAR
STARTCHAR LtSmlLMacronLdot
ENCODING 7737
SWIDTH 533 0
DWIDTH 8 0
BBX 8 15 0 -3
BITMAP
3C
00
18
08
08
08
08
08
08
08
08
3E
00
08
08
ENDCHAR
STARTCHAR LtCapLLmacron
ENCODING 7738
SWIDTH 533 0
DWIDTH 8 0
BBX 8 15 0 -3
BITMAP
00
00
40
40
40
40
40
40
40
40
40
7E
00
00
3C
ENDCHAR
STARTCHAR LtSmlLLmacron
ENCODING 7739
SWIDTH 533 0
DWIDTH 8 0
BBX 8 15 0 -3
BITMAP
00
00
18
08
08
08
08
08
08
08
08
3E
00
00
3C
ENDCHAR
STARTCHAR LtCapLLcircum
ENCODING 7740
SWIDTH 533 0
DWIDTH 8 0
BBX 8 15 0 -3
BITMAP
00
00
40
40
40
40
40
40
40
40
40
7E
00
18
24
ENDCHAR
STARTCHAR LtSmlLLcircum
ENCODING 7741
SWIDTH 533 0
DWIDTH 8 0
BBX 8 15 0 -3
BITMAP
00
00
18
08
08
08
08
08
08
08
08
3E
00
18
24
ENDCHAR
STARTCHAR LtCapMLdot
ENCODING 7746
SWIDTH 533 0
DWIDTH 8 0
BBX 8 15 0 -3
BITMAP
00
00
41
41
63
55
55
49
49
41
41
41
00
08
08
ENDCHAR
STARTCHAR LtSmlMLdot
ENCODING 7747
SWIDTH 533 0
DWIDTH 8 0
BBX 8 15 0 -3
BITMAP
00
00
00
00
00
76
49
49
49
49
49
49
00
08
08
ENDCHAR
STARTCHAR LtCapNLdot
ENCODING 7750
SWIDTH 533 0
DWIDTH 8 0
BBX 8 15 0 -3
BITMAP
00
00
42
42
62
52
52
4A
4A
46
42
42
00
10
10
ENDCHAR
STARTCHAR LtSmlNLdot
ENCODING 7751
SWIDTH 533 0
DWIDTH 8 0
BBX 8 15 0 -3
BITMAP
00
00
00
00
00
5C
62
42
42
42
42
42
00
10
10
ENDCHAR
STARTCHAR LtCapNLmacron
ENCODING 7752
SWIDTH 533 0
DWIDTH 8 0
BBX 8 15 0 -3
BITMAP
00
00
42
42
62
52
52
4A
4A
46
42
42
00
00
3C
ENDCHAR
STARTCHAR LtSmlNLmacron
ENCODING 7753
SWIDTH 533 0
DWIDTH 8 0
BBX 8 15 0 -3
BITMAP
00
00
00
00
00
5C
62
42
42
42
42
42
00
00
3C
ENDCHAR
STARTCHAR LtCapNLcircum
ENCODING 7754
SWIDTH 533 0
DWIDTH 8 0
BBX 8 15 0 -3
BITMAP
00
00
42
42
62
52
52
4A
4A
46
42
42
00
18
24
ENDCHAR
STARTCHAR LtSmlNLcircum
ENCODING 7755
SWIDTH 533 0
DWIDTH 8 0
BBX 8 15 0 -3
BITMAP
00
00
00
00
00
5C
62
42
42
42
42
42
00
18
24
ENDCHAR
STARTCHAR LtCapRLdot
ENCODING 7770
SWIDTH 533 0
DWIDTH 8 0
BBX 8 15 0 -3
BITMAP
00
00
7C
42
42
42
7C
48
44
44
42
42
00
10
10
ENDCHAR
STARTCHAR LtSmlRLdot
ENCODING 7771
SWIDTH 533 0
DWIDTH 8 0
BBX 8 15 0 -3
BITMAP
00
00
00
00
00
6E
32
20
20
20
20
20
00
20
20
ENDCHAR
STARTCHAR LtCapRMacronLdot
ENCODING 7772
SWIDTH 533 0
DWIDTH 8 0
BBX 8 15 0 -3
BITMAP
3C
00
7C
42
42
42
7C
48
44
44
42
42
00
10
10
ENDCHAR
STARTCHAR LtSmlRMacronLdot
ENCODING 7773
SWIDTH 533 0
DWIDTH 8 0
BBX 8 15 0 -3
BITMAP
00
00
3C
00
00
6E
32
20
20
20
20
20
00
20
20
ENDCHAR
STARTCHAR LtCapRLmacron
ENCODING 7774
SWIDTH 533 0
DWIDTH 8 0
BBX 8 15 0 -3
BITMAP
00
00
7C
42
42
42
7C
48
44
44
42
42
00
00
3C
ENDCHAR
STARTCHAR LtSmlRLmacron
ENCODING 7775
SWIDTH 533 0
DWIDTH 8 0
BBX 8 15 0 -3
BITMAP
00
00
00
00
00
6E
32
20
20
20
20
20
00
00
3C
ENDCHAR
STARTCHAR LtCapSLdot
ENCODING 7778
SWIDTH 533 0
DWIDTH 8 0
BBX 8 15 0 -3
BITMAP
00
00
3C
42
40
40
30
0C
02
02
42
3C
00
10
10
ENDCHAR
STARTCHAR LtSmlSLdot
ENCODING 7779
SWIDTH 533 0
DWIDTH 8 0
BBX 8 15 0 -3
BITMAP
00
00
00
00
00
3C
42
40
3C
02
42
3C
00
10
10
ENDCHAR
STARTCHAR LtCapSDotLdot
ENCODING 7784
SWIDTH 533 0
DWIDTH 8 0
BBX 8 15 0 -3
BITMAP
08
08
00
3C
42
40
20
18
04
02
42
3C
00
10
10
ENDCHAR
STARTCHAR LtSmlSDotLdot
ENCODING 7785
SWIDTH 533 0
DWIDTH 8 0
BBX 8 15 0 -3
BITMAP
00
00
08
08
00
3C
42
40
3C
02
42
3C
00
10
10
ENDCHAR
STARTCHAR LtCapTLdot
ENCODING 7788
SWIDTH 533 0
DWIDTH 8 0
BBX 8 15 0 -3
BITMAP
00
00
7F
08
08
08
08
08
08
08
08
08
00
08
08
ENDCHAR
STARTCHAR LtSmlTLdot
ENCODING 7789
SWIDTH 533 0
DWIDTH 8 0
BBX 8 15 0 -3
BITMAP
00
00
00
10
10
7C
10
10
10
10
12
0C
00
08
08
ENDCHAR
STARTCHAR LtCapTLmacron
ENCODING 7790
SWIDTH 533 0
DWIDTH 8 0
BBX 8 15 0 -3
BITMAP
00
00
7F
08
08
08
08
08
08
08
08
08
00
00
3E
ENDCHAR
STARTCHAR LtSmlTLmacron
ENCODING 7791
SWIDTH 533 0
DWIDTH 8 0
BBX 8 15 0 -3
BITMAP
00
00
00
10
10
7C
10
10
10
10
12
0C
00
00
1E
ENDCHAR
STARTCHAR LtCapTLcircum
ENCODING 7792
SWIDTH 533 0
DWIDTH 8 0
BBX 8 15 0 -3
BITMAP
00
00
7F
08
08
08
08
08
08
08
08
08
00
18
24
ENDCHAR
STARTCHAR LtSmlTLcircum
ENCODING 7793
SWIDTH 533 0
DWIDTH 8 0
BBX 8 15 0 -3
BITMAP
00
00
00
10
10
7C
10
10
10
10
12
0C
00
0C
12
ENDCHAR
STARTCHAR LtCapULdrss
ENCODING 7794
SWIDTH 533 0
DWIDTH 8 0
BBX 8 15 0 -3
BITMAP
00
00
42
42
42
42
42
42
42
42
42
3C
00
24
24
ENDCHAR
STARTCHAR LtSmlULdrss
ENCODING 7795
SWIDTH 533 0
DWIDTH 8 0
BBX 8 15 0 -3
BITMAP
00
00
00
00
00
42
42
42
42
42
46
3A
00
24
24
ENDCHAR
STARTCHAR LtCapULtilde
ENCODING 7796
SWIDTH 533 0
DWIDTH 8 0
BBX 8 15 0 -3
BITMAP
00
00
42
42
42
42
42
42
42
42
42
3C
00
32
4C
ENDCHAR
STARTCHAR LtSmlULtilde
ENCODING 7797
SWIDTH 533 0
DWIDTH 8 0
BBX 8 15 0 -3
BITMAP
00
00
00
00
00
42
42
42
42
42
46
3A
00
32
4C
ENDCHAR
STARTCHAR LtCapULcircum
ENCODING 7798
SWIDTH 533 0
DWIDTH 8 0
BBX 8 15 0 -3
BITMAP
00
00
42
42
42
42
42
42
42
42
42
3C
00
18
24
ENDCHAR
STARTCHAR LtSmlULcircum
ENCODING 7799
SWIDTH 533 0
DWIDTH 8 0
BBX 8 15 0 -3
BITMAP
00
00
00
00
00
42
42
42
42
42
46
3A
00
18
24
ENDCHAR
STARTCHAR LtCapVLdot
ENCODING 7806
SWIDTH 533 0
DWIDTH 8 0
BBX 8 15 0 -3
BITMAP
00
00
41
41
42
22
22
24
14
14
18
08
00
08
08
ENDCHAR
STARTCHAR LtSmlVLdot
ENCODING 7807
SWIDTH 533 0
DWIDTH 8 0
BBX 8 15 0 -3
BITMAP
00
00
00
00
00
42
42
42
24
24
18
18
00
08
08
ENDCHAR
STARTCHAR LtCapWLdot
ENCODING 7816
SWIDTH 533 0
DWIDTH 8 0
BBX 8 15 0 -3
BITMAP
00
00
41
41
49
49
49
55
55
22
22
22
00
08
08
ENDCHAR
STARTCHAR LtSmlWLdot
ENCODING 7817
SWIDTH 533 0
DWIDTH 8 0
BBX 8 15 0 -3
BITMAP
00
00
00
00
00
41
49
49
49
36
22
22
00
08
08
ENDCHAR
STARTCHAR LtCapZLdot
ENCODING 7826
SWIDTH 533 0
DWIDTH 8 0
BBX 8 15 0 -3
BITMAP
00
00
7E
02
04
08
08
10
20
20
40
7E
00
10
10
ENDCHAR
STARTCHAR LtSmlZLdot
ENCODING 7827
SWIDTH 533 0
DWIDTH 8 0
BBX 8 15 0 -3
BITMAP
00
00
00
00
00
7E
04
08
10
20
40
7E
00
10
10
ENDCHAR
STARTCHAR LtCapZLmacron
ENCODING 7828
SWIDTH 533 0
DWIDTH 8 0
BBX 8 15 0 -3
BITMAP
00
00
7E
02
04
08
08
10
20
20
40
7E
00
00
3C
ENDCHAR
STARTCHAR LtSmlZLmacron
ENCODING 7829
SWIDTH 533 0
DWIDTH 8 0
BBX 8 15 0 -3
BITMAP
00
00
00
00
00
7E
04
08
10
20
40
7E
00
00
3C
ENDCHAR
STARTCHAR LtSmlHLmacron
ENCODING 7830
SWIDTH 533 0
DWIDTH 8 0
BBX 8 15 0 -3
BITMAP
00
00
40
40
40
5C
62
42
42
42
42
42
00
00
3C
ENDCHAR
STARTCHAR LtCapALdot
ENCODING 7840
SWIDTH 533 0
DWIDTH 8 0
BBX 8 15 0 -3
BITMAP
00
00
18
18
24
24
42
42
7E
42
42
42
00
08
08
ENDCHAR
STARTCHAR LtSmlALdot
ENCODING 7841
SWIDTH 533 0
DWIDTH 8 0
BBX 8 15 0 -3
BITMAP
00
00
00
00
00
3C
02
02
3E
42
46
3A
00
10
10
ENDCHAR
STARTCHAR LtCapACircumLdot
ENCODING 7852
SWIDTH 533 0
DWIDTH 8 0
BBX 8 15 0 -3
BITMAP
18
24
00
18
18
24
24
42
7E
42
42
42
00
08
08
ENDCHAR
STARTCHAR LtSmlACircumLdot
ENCODING 7853
SWIDTH 533 0
DWIDTH 8 0
BBX 8 15 0 -3
BITMAP
00
00
18
24
00
3C
02
02
3E
42
46
3A
00
10
10
ENDCHAR
STARTCHAR LtCapABreveLdot
ENCODING 7862
SWIDTH 533 0
DWIDTH 8 0
BBX 8 15 0 -3
BITMAP
24
18
00
18
18
24
24
42
7E
42
42
42
00
08
08
ENDCHAR
STARTCHAR LtSmlABreveLdot
ENCODING 7863
SWIDTH 533 0
DWIDTH 8 0
BBX 8 15 0 -3
BITMAP
00
00
24
18
00
3C
02
02
3E
42
46
3A
00
10
10
ENDCHAR
STARTCHAR LtCapELdot
ENCODING 7864
SWIDTH 533 0
DWIDTH 8 0
BBX 8 15 0 -3
BITMAP
00
00
7E
40
40
40
78
40
40
40
40
7E
00
10
10
ENDCHAR
STARTCHAR LtSmlELdot
ENCODING 7865
SWIDTH 533 0
DWIDTH 8 0
BBX 8 15 0 -3
BITMAP
00
00
00
00
00
3C
42
42
7E
40
40
3C
00
10
10
ENDCHAR
STARTCHAR LtCapECircumLdot
ENCODING 7878
SWIDTH 533 0
DWIDTH 8 0
BBX 8 15 0 -3
BITMAP
18
24
00
7E
40
40
40
78
40
40
40
7E
00
10
10
ENDCHAR
STARTCHAR LtSmlECircumLdot
ENCODING 7879
SWIDTH 533 0
DWIDTH 8 0
BBX 8 15 0 -3
BITMAP
00
00
18
24
00
3C
42
42
7E
40
40
3C
00
10
10
ENDCHAR
STARTCHAR LtCapILdot
ENCODING 7882
SWIDTH 533 0
DWIDTH 8 0
BBX 8 15 0 -3
BITMAP
00
00
3E
08
08
08
08
08
08
08
08
3E
00
08
08
ENDCHAR
STARTCHAR LtSmlILdot
ENCODING 7883
SWIDTH 533 0
DWIDTH 8 0
BBX 8 15 0 -3
BITMAP
00
00
08
08
00
18
08
08
08
08
08
3E
00
08
08
ENDCHAR
STARTCHAR LtCapOLdot
ENCODING 7884
SWIDTH 533 0
DWIDTH 8 0
BBX 8 15 0 -3
BITMAP
00
00
3C
42
42
42
42
42
42
42
42
3C
00
10
10
ENDCHAR
STARTCHAR LtSmlOLdot
ENCODING 7885
SWIDTH 533 0
DWIDTH 8 0
BBX 8 15 0 -3
BITMAP
00
00
00
00
00
3C
42
42
42
42
42
3C
00
10
10
ENDCHAR
STARTCHAR LtCapOCircumLdot
ENCODING 7896
SWIDTH 533 0
DWIDTH 8 0
BBX 8 15 0 -3
BITMAP
18
24
00
3C
42
42
42
42
42
42
42
3C
00
10
10
ENDCHAR
STARTCHAR LtSmlOCircumLdot
ENCODING 7897
SWIDTH 533 0
DWIDTH 8 0
BBX 8 15 0 -3
BITMAP
00
00
18
24
00
3C
42
42
42
42
42
3C
00
10
10
ENDCHAR
STARTCHAR LtCapOHornLdot
ENCODING 7906
SWIDTH 533 0
DWIDTH 8 0
BBX 8 15 0 -3
BITMAP
03
01
3E
42
42
42
42
42
42
42
42
3C
00
10
10
ENDCHAR
STARTCHAR LtSmlOHornLdot
ENCODING 7907
SWIDTH 533 0
DWIDTH 8 0
BBX 8 15 0 -3
BITMAP
00
00
00
03
01
3E
42
42
42
42
42
3C
00
10
10
ENDCHAR
STARTCHAR LtCapULdot
ENCODING 7908
SWIDTH 533 0
DWIDTH 8 0
BBX 8 15 0 -3
BITMAP
00
00
42
42
42
42
42
42
42
42
42
3C
00
10
10
ENDCHAR
STARTCHAR LtSmlULdot
ENCODING 7909
SWIDTH 533 0
DWIDTH 8 0
BBX 8 15 0 -3
BITMAP
00
00
00
00
00
42
42
42
42
42
46
3A
00
10
10
ENDCHAR
STARTCHAR LtCapUHornLdot
ENCODING 7920
SWIDTH 533 0
DWIDTH 8 0
BBX 8 15 0 -3
BITMAP
03
01
42
42
42
42
42
42
42
42
42
3C
00
10
10
ENDCHAR
STARTCHAR LtSmlUHornLdot
ENCODING 7921
SWIDTH 533 0
DWIDTH 8 0
BBX 8 15 0 -3
BITMAP
00
00
00
03
01
42
42
42
42
42
46
3A
00
10
10
ENDCHAR
STARTCHAR LtCapYLdot
ENCODING 7924
SWIDTH 533 0
DWIDTH 8 0
BBX 8 15 0 -3
BITMAP
00
00
41
22
22
14
14
08
08
08
08
08
00
08
08
ENDCHAR
STARTCHAR LtSmlYLdot
ENCODING 7925
SWIDTH 533 0
DWIDTH 8 0
BBX 8 15 0 -3
BITMAP
00
00
00
00
00
42
42
22
24
14
14
08
08
52
22
ENDCHAR
STARTCHAR MArrowU
ENCODING 8593
SWIDTH 533 0
DWIDTH 8 0
BBX 8 15 0 -3
BITMAP
00
08
1C
2A
08
08
08
08
08
08
08
08
08
08
00
ENDCHAR
STARTCHAR MArrowD
ENCODING 8595
SWIDTH 533 0
DWIDTH 8 0
BBX 8 15 0 -3
BITMAP
00
08
08
08
08
08
08
08
08
08
08
2A
1C
08
00
ENDCHAR
STARTCHAR MArrowUD
ENCODING 8597
SWIDTH 533 0
DWIDTH 8 0
BBX 8 15 0 -3
BITMAP
00
08
1C
2A
08
08
08
08
08
08
08
2A
1C
08
00
ENDCHAR
STARTCHAR MArrowLU
ENCODING 8598
SWIDTH 533 0
DWIDTH 8 0
BBX 8 15 0 -3
BITMAP
00
40
70
68
50
50
08
08
04
04
02
02
01
01
00
ENDCHAR
STARTCHAR MArrowRU
ENCODING 8599
SWIDTH 533 0
DWIDTH 8 0
BBX 8 15 0 -3
BITMAP
00
01
07
0B
05
05
08
08
10
10
20
20
40
40
00
ENDCHAR
STARTCHAR MArrowRD
ENCODING 8600
SWIDTH 533 0
DWIDTH 8 0
BBX 8 15 0 -3
BITMAP
00
40
40
20
20
10
10
08
08
05
05
0B
07
01
00
ENDCHAR
STARTCHAR MArrowLD
ENCODING 8601
SWIDTH 533 0
DWIDTH 8 0
BBX 8 15 0 -3
BITMAP
00
01
01
02
02
04
04
08
08
50
50
68
70
40
00
ENDCHAR
STARTCHAR MArrowUu
ENCODING 8607
SWIDTH 533 0
DWIDTH 8 0
BBX 8 15 0 -3
BITMAP
00
08
1C
2A
08
1C
2A
08
08
08
08
08
08
08
00
ENDCHAR
STARTCHAR MArrowDd
ENCODING 8609
SWIDTH 533 0
DWIDTH 8 0
BBX 8 15 0 -3
BITMAP
00
08
08
08
08
08
08
08
2A
1C
08
2A
1C
08
00
ENDCHAR
STARTCHAR MArrowBarU
ENCODING 8613
SWIDTH 533 0
DWIDTH 8 0
BBX 8 15 0 -3
BITMAP
00
08
1C
2A
08
08
08
08
08
08
08
08
08
3E
00
ENDCHAR
STARTCHAR MArrowBarD
ENCODING 8615
SWIDTH 533 0
DWIDTH 8 0
BBX 8 15 0 -3
BITMAP
00
3E
08
08
08
08
08
08
08
08
08
2A
1C
08
00
ENDCHAR
STARTCHAR MArrowUDBase
ENCODING 8616
SWIDTH 533 0
DWIDTH 8 0
BBX 8 15 0 -3
BITMAP
00
08
1C
2A
08
08
08
08
08
08
2A
1C
08
3E
00
ENDCHAR
STARTCHAR MHarpoonUr
ENCODING 8638
SWIDTH 533 0
DWIDTH 8 0
BBX 8 15 0 -3
BITMAP
00
08
0C
0A
08
08
08
08
08
08
08
08
08
08
00
ENDCHAR
STARTCHAR MHarpoonUl
ENCODING 8639
SWIDTH 533 0
DWIDTH 8 0
BBX 8 15 0 -3
BITMAP
00
08
18
28
08
08
08
08
08
08
08
08
08
08
00
ENDCHAR
STARTCHAR MHarpoonDr
ENCODING 8642
SWIDTH 533 0
DWIDTH 8 0
BBX 8 15 0 -3
BITMAP
00
08
08
08
08
08
08
08
08
08
08
0A
0C
08
00
ENDCHAR
STARTCHAR MHarpoonDl
ENCODING 8643
SWIDTH 533 0
DWIDTH 8 0
BBX 8 15 0 -3
BITMAP
00
08
08
08
08
08
08
08
08
08
08
28
18
08
00
ENDCHAR
STARTCHAR MArrowULeftD
ENCODING 8645
SWIDTH 533 0
DWIDTH 8 0
BBX 8 15 0 -3
BITMAP
00
24
74
A4
24
24
24
24
24
24
24
25
2E
24
00
ENDCHAR
STARTCHAR MArrowULeftU
ENCODING 8648
SWIDTH 533 0
DWIDTH 8 0
BBX 8 15 0 -3
BITMAP
00
24
7E
A5
24
24
24
24
24
24
24
24
24
24
00
ENDCHAR
STARTCHAR MArrowDLeftD
ENCODING 8650
SWIDTH 533 0
DWIDTH 8 0
BBX 8 15 0 -3
BITMAP
00
24
24
24
24
24
24
24
24
24
24
A5
7E
24
00
ENDCHAR
STARTCHAR MArrow2U
ENCODING 8657
SWIDTH 533 0
DWIDTH 8 0
BBX 8 15 0 -3
BITMAP
00
08
1C
36
55
14
14
14
14
14
14
14
14
14
00
ENDCHAR
STARTCHAR MArrow2D
ENCODING 8659
SWIDTH 533 0
DWIDTH 8 0
BBX 8 15 0 -3
BITMAP
00
14
14
14
14
14
14
14
14
14
55
36
1C
08
00
ENDCHAR
STARTCHAR MArrow2UD
ENCODING 8661
SWIDTH 533 0
DWIDTH 8 0
BBX 8 15 0 -3
BITMAP
00
08
1C
36
55
14
14
14
14
14
55
36
1C
08
00
ENDCHAR
STARTCHAR PCurlyBrackLTRB
ENCODING 9136
SWIDTH 533 0
DWIDTH 8 0
BBX 8 15 0 -3
BITMAP
03
04
08
08
08
08
08
08
08
08
08
08
08
10
60
ENDCHAR
STARTCHAR PCurlyBrackLBRT
ENCODING 9137
SWIDTH 533 0
DWIDTH 8 0
BBX 8 15 0 -3
BITMAP
60
10
08
08
08
08
08
08
08
08
08
08
08
04
03
ENDCHAR
STARTCHAR MSumT
ENCODING 9138
SWIDTH 533 0
DWIDTH 8 0
BBX 8 15 0 -3
BITMAP
00
7F
40
40
20
20
20
10
10
10
08
08
08
04
04
ENDCHAR
STARTCHAR MRootB
ENCODING 9143
SWIDTH 533 0
DWIDTH 8 0
BBX 8 15 0 -3
BITMAP
08
08
08
08
08
08
08
C8
48
28
28
18
18
08
08
ENDCHAR
STARTCHAR LtSmlATrndLinvbreve
ENCODING 57350
SWIDTH 533 0
DWIDTH 8 0
BBX 8 15 0 -3
BITMAP
00
00
00
00
00
DC
62
44
78
40
44
3C
00
18
24
ENDCHAR
STARTCHAR LtCapCLdot
ENCODING 57356
SWIDTH 533 0
DWIDTH 8 0
BBX 8 15 0 -3
BITMAP
00
00
1C
22
40
40
40
40
40
40
22
1C
00
08
08
ENDCHAR
STARTCHAR LtSmlCLdot
ENCODING 57357
SWIDTH 533 0
DWIDTH 8 0
BBX 8 15 0 -3
BITMAP
00
00
00
00
00
3C
42
40
40
40
42
3C
00
08
08
ENDCHAR
STARTCHAR LtCapCCaronLdot
ENCODING 57358
SWIDTH 533 0
DWIDTH 8 0
BBX 8 15 0 -3
BITMAP
12
0C
00
1C
22
40
40
40
40
40
22
1C
00
08
08
ENDCHAR
STARTCHAR LtSmlCCaronLdot
ENCODING 57359
SWIDTH 533 0
DWIDTH 8 0
BBX 8 15 0 -3
BITMAP
00
00
24
18
00
3C
42
40
40
40
42
3C
00
08
08
ENDCHAR
STARTCHAR LtCapELmacron
ENCODING 57370
SWIDTH 533 0
DWIDTH 8 0
BBX 8 15 0 -3
BITMAP
00
00
7E
40
40
40
78
40
40
40
40
7E
00
00
3C
ENDCHAR
STARTCHAR LtSmlELmacron
ENCODING 57371
SWIDTH 533 0
DWIDTH 8 0
BBX 8 15 0 -3
BITMAP
00
00
00
00
00
3C
42
42
7E
40
40
3C
00
00
3C
ENDCHAR
STARTCHAR LtCapEAcuteLdot
ENCODING 57372
SWIDTH 533 0
DWIDTH 8 0
BBX 8 15 0 -3
BITMAP
04
18
00
7E
40
40
40
78
40
40
40
7E
00
10
10
ENDCHAR
STARTCHAR LtSmlEAcuteLdot
ENCODING 57373
SWIDTH 533 0
DWIDTH 8 0
BBX 8 15 0 -3
BITMAP
00
08
08
10
00
3C
42
42
7E
40
40
3C
00
10
10
ENDCHAR
STARTCHAR LtCapEGraveLdot
ENCODING 57376
SWIDTH 533 0
DWIDTH 8 0
BBX 8 15 0 -3
BITMAP
20
18
00
7E
40
40
40
78
40
40
40
7E
00
10
10
ENDCHAR
STARTCHAR LtSmlEGraveLdot
ENCODING 57377
SWIDTH 533 0
DWIDTH 8 0
BBX 8 15 0 -3
BITMAP
00
10
10
08
00
3C
42
42
7E
40
40
3C
00
10
10
ENDCHAR
STARTCHAR LtCapGHLmacron
ENCODING 57393
SWIDTH 533 0
DWIDTH 8 0
BBX 8 15 0 -3
BITMAP
00
00
35
45
45
45
47
55
55
55
55
35
00
00
3E
ENDCHAR
STARTCHAR LtMixGHLmacron
ENCODING 57394
SWIDTH 533 0
DWIDTH 8 0
BBX 8 15 0 -3
BITMAP
00
00
34
44
44
47
45
55
55
55
55
35
00
00
3E
ENDCHAR
STARTCHAR LtSmlGHLmacron
ENCODING 57395
SWIDTH 533 0
DWIDTH 8 0
BBX 8 15 0 -3
BITMAP
00
00
04
04
04
27
55
55
55
25
45
35
48
78
3E
ENDCHAR
STARTCHAR LtCapHLmacron
ENCODING 57396
SWIDTH 533 0
DWIDTH 8 0
BBX 8 15 0 -3
BITMAP
00
00
42
42
42
42
7E
42
42
42
42
42
00
00
3C
ENDCHAR
STARTCHAR LtSmlILinvbreve
ENCODING 57397
SWIDTH 533 0
DWIDTH 8 0
BBX 8 15 0 -3
BITMAP
00
00
08
08
00
18
08
08
08
08
08
3E
00
1C
22
ENDCHAR
STARTCHAR LtCapKHLmacron
ENCODING 57405
SWIDTH 533 0
DWIDTH 8 0
BBX 8 15 0 -3
BITMAP
00
00
55
55
55
55
67
65
55
55
55
55
00
00
3E
ENDCHAR
STARTCHAR LtMixKHLmacron
ENCODING 57406
SWIDTH 533 0
DWIDTH 8 0
BBX 8 15 0 -3
BITMAP
00
00
54
54
54
57
65
65
55
55
55
55
00
00
3E
ENDCHAR
STARTCHAR LtSmlKHLmacron
ENCODING 57407
SWIDTH 533 0
DWIDTH 8 0
BBX 8 15 0 -3
BITMAP
00
00
44
44
44
57
55
65
65
55
55
55
00
00
3E
ENDCHAR
STARTCHAR LtSmlLLring
ENCODING 57409
SWIDTH 533 0
DWIDTH 8 0
BBX 8 15 0 -3
BITMAP
00
00
18
08
08
08
08
08
08
08
08
3E
08
14
08
ENDCHAR
STARTCHAR LtSmlLMacronLring
ENCODING 57412
SWIDTH 533 0
DWIDTH 8 0
BBX 8 15 0 -3
BITMAP
3C
00
18
08
08
08
08
08
08
08
08
3E
08
14
08
ENDCHAR
STARTCHAR LtCapOLmacron
ENCODING 57426
SWIDTH 533 0
DWIDTH 8 0
BBX 8 15 0 -3
BITMAP
00
00
3C
42
42
42
42
42
42
42
42
3C
00
00
3C
ENDCHAR
STARTCHAR LtSmlOLmacron
ENCODING 57427
SWIDTH 533 0
DWIDTH 8 0
BBX 8 15 0 -3
BITMAP
00
00
00
00
00
3C
42
42
42
42
42
3C
00
00
3C
ENDCHAR
STARTCHAR LtCapOAcuteLdot
ENCODING 57428
SWIDTH 533 0
DWIDTH 8 0
BBX 8 15 0 -3
BITMAP
04
18
00
3C
42
42
42
42
42
42
42
3C
00
10
10
ENDCHAR
STARTCHAR LtSmlOAcuteLdot
ENCODING 57429
SWIDTH 533 0
DWIDTH 8 0
BBX 8 15 0 -3
BITMAP
00
08
08
10
00
3C
42
42
42
42
42
3C
00
10
10
ENDCHAR
STARTCHAR LtSmlOLinvbreve
ENCODING 57430
SWIDTH 533 0
DWIDTH 8 0
BBX 8 15 0 -3
BITMAP
00
00
00
00
00
3C
42
42
42
42
42
3C
00
18
24
ENDCHAR
STARTCHAR LtCapOGraveLdot
ENCODING 57433
SWIDTH 533 0
DWIDTH 8 0
BBX 8 15 0 -3
BITMAP
20
18
00
3C
42
42
42
42
42
42
42
3C
00
10
10
ENDCHAR
STARTCHAR LtSmlOGraveLdot
ENCODING 57434
SWIDTH 533 0
DWIDTH 8 0
BBX 8 15 0 -3
BITMAP
00
10
10
08
00
3C
42
42
42
42
42
3C
00
10
10
ENDCHAR
STARTCHAR LtCapPLdot
ENCODING 57437
SWIDTH 533 0
DWIDTH 8 0
BBX 8 15 0 -3
BITMAP
00
00
7C
42
42
42
42
7C
40
40
40
40
00
40
40
ENDCHAR
STARTCHAR LtSmlPLdot
ENCODING 57438
SWIDTH 533 0
DWIDTH 8 0
BBX 8 15 0 -3
BITMAP
00
00
00
00
00
5C
62
42
42
42
62
5C
40
48
48
ENDCHAR
STARTCHAR LtCapQLdot
ENCODING 57441
SWIDTH 533 0
DWIDTH 8 0
BBX 8 15 0 -3
BITMAP
00
00
3C
42
42
42
42
42
42
4A
46
3C
03
08
08
ENDCHAR
STARTCHAR LtSmlQLdot
ENCODING 57442
SWIDTH 533 0
DWIDTH 8 0
BBX 8 15 0 -3
BITMAP
00
00
00
00
00
3A
46
42
42
42
46
3A
02
12
12
ENDCHAR
STARTCHAR LtCapRLring
ENCODING 57443
SWIDTH 533 0
DWIDTH 8 0
BBX 8 15 0 -3
BITMAP
00
00
7C
42
42
42
7C
48
44
44
42
42
10
28
10
ENDCHAR
STARTCHAR LtSmlRLring
ENCODING 57444
SWIDTH 533 0
DWIDTH 8 0
BBX 8 15 0 -3
BITMAP
00
00
00
00
00
6E
32
20
20
20
20
20
20
50
20
ENDCHAR
STARTCHAR LtSmlRLvline
ENCODING 57445
SWIDTH 533 0
DWIDTH 8 0
BBX 8 15 0 -3
BITMAP
00
00
00
00
00
6E
32
20
20
20
20
20
10
10
10
ENDCHAR
STARTCHAR LtCapRAcuteLdot
ENCODING 57446
SWIDTH 533 0
DWIDTH 8 0
BBX 8 15 0 -3
BITMAP
04
18
00
7C
42
42
42
7C
48
44
42
42
00
10
10
ENDCHAR
STARTCHAR LtSmlRAcuteLdot
ENCODING 57447
SWIDTH 533 0
DWIDTH 8 0
BBX 8 15 0 -3
BITMAP
00
08
08
10
00
6E
32
20
20
20
20
20
00
20
20
ENDCHAR
STARTCHAR LtSmlRAcuteLring
ENCODING 57448
SWIDTH 533 0
DWIDTH 8 0
BBX 8 15 0 -3
BITMAP
00
08
08
10
00
6E
32
20
20
20
20
20
20
50
20
ENDCHAR
STARTCHAR LtCapRGraveLdot
ENCODING 57449
SWIDTH 533 0
DWIDTH 8 0
BBX 8 15 0 -3
BITMAP
20
18
00
7C
42
42
42
7C
48
44
42
42
00
10
10
ENDCHAR
STARTCHAR LtSmlRGraveLdot
ENCODING 57450
SWIDTH 533 0
DWIDTH 8 0
BBX 8 15 0 -3
BITMAP
00
10
10
08
00
6E
32
20
20
20
20
20
00
20
20
ENDCHAR
STARTCHAR LtSmlRGraveLring
ENCODING 57451
SWIDTH 533 0
DWIDTH 8 0
BBX 8 15 0 -3
BITMAP
00
10
10
08
00
6E
32
20
20
20
20
20
20
50
20
ENDCHAR
STARTCHAR LtSmlRMacronAcuteLdot
ENCODING 57453
SWIDTH 533 0
DWIDTH 8 0
BBX 8 15 0 -3
BITMAP
04
18
00
3C
00
6E
32
20
20
20
20
20
00
20
20
ENDCHAR
STARTCHAR LtSmlRMacronLring
ENCODING 57454
SWIDTH 533 0
DWIDTH 8 0
BBX 8 15 0 -3
BITMAP
00
00
3C
00
00
6E
32
20
20
20
20
20
20
50
20
ENDCHAR
STARTCHAR LtSmlRMacronAcuteLring
ENCODING 57455
SWIDTH 533 0
DWIDTH 8 0
BBX 8 15 0 -3
BITMAP
04
18
00
3C
00
6E
32
20
20
20
20
20
20
50
20
ENDCHAR
STARTCHAR LtSmlULinvbreve
ENCODING 57456
SWIDTH 533 0
DWIDTH 8 0
BBX 8 15 0 -3
BITMAP
00
00
00
00
00
42
42
42
42
42
46
3A
00
18
24
ENDCHAR
STARTCHAR GkCapIotTrndLbreve
ENCODING 57483
SWIDTH 533 0
DWIDTH 8 0
BBX 8 15 0 -3
BITMAP
00
00
3E
08
08
08
08
08
08
08
08
3E
00
22
1C
ENDCHAR
STARTCHAR GkSmlIotTrndLbreve
ENCODING 57484
SWIDTH 533 0
DWIDTH 8 0
BBX 8 15 0 -3
BITMAP
00
00
00
00
00
30
48
08
08
08
08
08
00
22
1C
ENDCHAR
STARTCHAR GkCapUpsTrndLbreve
ENCODING 57486
SWIDTH 533 0
DWIDTH 8 0
BBX 8 15 0 -3
BITMAP
00
00
08
08
08
08
08
14
14
22
22
41
00
22
1C
ENDCHAR
STARTCHAR GkSmlUpsTrndLbreve
ENCODING 57487
SWIDTH 533 0
DWIDTH 8 0
BBX 8 15 0 -3
BITMAP
00
00
00
00
00
3C
42
42
42
42
42
42
00
22
1C
ENDCHAR
STARTCHAR GeEnMacron
ENCODING 57493
SWIDTH 533 0
DWIDTH 8 0
BBX 8 15 0 -3
BITMAP
00
00
00
3C
00
00
1C
22
22
02
02
02
42
42
3C
ENDCHAR
STARTCHAR GeUnCircum
ENCODING 57497
SWIDTH 533 0
DWIDTH 8 0
BBX 8 15 0 -3
BITMAP
00
00
00
18
24
00
4C
72
12
12
02
02
42
42
3C
ENDCHAR
STARTCHAR GeUnMacron
ENCODING 57498
SWIDTH 533 0
DWIDTH 8 0
BBX 8 15 0 -3
BITMAP
00
00
00
3C
00
00
4C
72
12
12
02
02
42
42
3C
ENDCHAR
STARTCHAR GeUnDrss
ENCODING 57499
SWIDTH 533 0
DWIDTH 8 0
BBX 8 15 0 -3
BITMAP
00
00
00
24
24
00
4C
72
12
12
02
02
42
42
3C
ENDCHAR
STARTCHAR GeUo
ENCODING 57500
SWIDTH 533 0
DWIDTH 8 0
BBX 8 15 0 -3
BITMAP
00
00
00
00
00
00
32
4E
48
48
40
40
42
42
3C
ENDCHAR
STARTCHAR HbAlefPatah
ENCODING 64302
SWIDTH 533 0
DWIDTH 8 0
BBX 8 15 0 -3
BITMAP
00
00
00
00
44
42
24
34
48
44
42
62
00
3C
00
ENDCHAR
STARTCHAR HbAlefQamats
ENCODING 64303
SWIDTH 533 0
DWIDTH 8 0
BBX 8 15 0 -3
BITMAP
00
00
00
00
44
42
24
34
48
44
42
62
00
38
10
ENDCHAR
ENDFONT
