STARTFONT 2.1
FONT -fbf-uw-ttyp0-medium-r-normal--11-110-75-75-p-110-iso10646-1
SIZE 11 75 75
FONTBOUNDINGBOX 6 11 0 -2
STARTPROPERTIES 19
FONTNAME_REGISTRY ""
FOUNDRY "UW"
FAMILY_NAME "Ttyp0"
WEIGHT_NAME "Medium"
SLANT "R"
SETWIDTH_NAME "Normal"
ADD_STYLE_NAME ""
PIXEL_SIZE 11
POINT_SIZE 100
RESOLUTION_X 75
RESOLUTION_Y 75
SPACING "C"
AVERAGE_WIDTH 60
CHARSET_REGISTRY "ISO10646"
CHARSET_ENCODING "1"
DEFAULT_CHAR 0
FONT_DESCENT 2
FONT_ASCENT 9
COPYRIGHT "Copyright (C) 2012-2015 Uwe Waldmann"
ENDPROPERTIES
CHARS 234
STARTCHAR CombLdot
ENCODING 803
SWIDTH 545 0
DWIDTH 6 0
BBX 6 11 0 -2
BITMAP
00
00
00
00
00
00
00
00
00
00
30
ENDCHAR
STARTCHAR CombLdrss
ENCODING 804
SWIDTH 545 0
DWIDTH 6 0
BBX 6 11 0 -2
BITMAP
00
00
00
00
00
00
00
00
00
00
6C
ENDCHAR
STARTCHAR CombLvline
ENCODING 809
SWIDTH 545 0
DWIDTH 6 0
BBX 6 11 0 -2
BITMAP
00
00
00
00
00
00
00
00
00
10
10
ENDCHAR
STARTCHAR CombLcaron
ENCODING 812
SWIDTH 545 0
DWIDTH 6 0
BBX 6 11 0 -2
BITMAP
00
00
00
00
00
00
00
00
00
28
10
ENDCHAR
STARTCHAR CombLcircum
ENCODING 813
SWIDTH 545 0
DWIDTH 6 0
BBX 6 11 0 -2
BITMAP
00
00
00
00
00
00
00
00
00
10
28
ENDCHAR
STARTCHAR CombLbreve
ENCODING 814
SWIDTH 545 0
DWIDTH 6 0
BBX 6 11 0 -2
BITMAP
00
00
00
00
00
00
00
00
00
48
30
ENDCHAR
STARTCHAR CombLinvbreve
ENCODING 815
SWIDTH 545 0
DWIDTH 6 0
BBX 6 11 0 -2
BITMAP
00
00
00
00
00
00
00
00
00
30
48
ENDCHAR
STARTCHAR CombLtilde
ENCODING 816
SWIDTH 545 0
DWIDTH 6 0
BBX 6 11 0 -2
BITMAP
00
00
00
00
00
00
00
00
00
28
50
ENDCHAR
STARTCHAR CombLmacron
ENCODING 817
SWIDTH 545 0
DWIDTH 6 0
BBX 6 11 0 -2
BITMAP
00
00
00
00
00
00
00
00
00
00
78
ENDCHAR
STARTCHAR CombLvline2
ENCODING 840
SWIDTH 545 0
DWIDTH 6 0
BBX 6 11 0 -2
BITMAP
00
00
00
00
00
00
00
00
00
28
28
ENDCHAR
STARTCHAR AmSmlEh
ENCODING 1383
SWIDTH 545 0
DWIDTH 6 0
BBX 6 11 0 -2
BITMAP
00
40
40
40
78
40
40
40
30
08
00
ENDCHAR
STARTCHAR AmSmlYi
ENCODING 1397
SWIDTH 545 0
DWIDTH 6 0
BBX 6 11 0 -2
BITMAP
00
00
00
00
30
10
10
10
10
90
60
ENDCHAR
STARTCHAR AmSmlSha
ENCODING 1399
SWIDTH 545 0
DWIDTH 6 0
BBX 6 11 0 -2
BITMAP
00
00
00
00
30
48
08
10
20
40
38
ENDCHAR
STARTCHAR AmSmlCha
ENCODING 1401
SWIDTH 545 0
DWIDTH 6 0
BBX 6 11 0 -2
BITMAP
00
00
00
00
10
20
10
10
20
40
38
ENDCHAR
STARTCHAR AmSmlJheh
ENCODING 1403
SWIDTH 545 0
DWIDTH 6 0
BBX 6 11 0 -2
BITMAP
00
30
48
48
48
50
30
20
40
40
38
ENDCHAR
STARTCHAR AmSmlCo
ENCODING 1409
SWIDTH 545 0
DWIDTH 6 0
BBX 6 11 0 -2
BITMAP
00
00
00
00
38
48
48
38
08
48
30
ENDCHAR
STARTCHAR AmSmlKeh
ENCODING 1412
SWIDTH 545 0
DWIDTH 6 0
BBX 6 11 0 -2
BITMAP
00
00
00
00
70
48
48
70
40
78
40
ENDCHAR
STARTCHAR CombHbHatafQamats
ENCODING 1459
SWIDTH 545 0
DWIDTH 6 0
BBX 6 11 0 -2
BITMAP
00
00
00
00
00
00
00
00
08
E0
48
ENDCHAR
STARTCHAR CombHbSegol
ENCODING 1462
SWIDTH 545 0
DWIDTH 6 0
BBX 6 11 0 -2
BITMAP
00
00
00
00
00
00
00
00
00
88
20
ENDCHAR
STARTCHAR CombHbPatah
ENCODING 1463
SWIDTH 545 0
DWIDTH 6 0
BBX 6 11 0 -2
BITMAP
00
00
00
00
00
00
00
00
00
00
78
ENDCHAR
STARTCHAR CombHbQamats
ENCODING 1464
SWIDTH 545 0
DWIDTH 6 0
BBX 6 11 0 -2
BITMAP
00
00
00
00
00
00
00
00
00
70
20
ENDCHAR
STARTCHAR CombHbMeteg
ENCODING 1469
SWIDTH 545 0
DWIDTH 6 0
BBX 6 11 0 -2
BITMAP
00
00
00
00
00
00
00
00
20
20
20
ENDCHAR
STARTCHAR ThYoYing
ENCODING 3597
SWIDTH 545 0
DWIDTH 6 0
BBX 6 11 0 -2
BITMAP
00
00
00
00
48
A8
A8
A8
98
08
30
ENDCHAR
STARTCHAR ThDoChada
ENCODING 3598
SWIDTH 545 0
DWIDTH 6 0
BBX 6 11 0 -2
BITMAP
00
00
00
00
30
48
68
28
28
08
38
ENDCHAR
STARTCHAR ThToPatak
ENCODING 3599
SWIDTH 545 0
DWIDTH 6 0
BBX 6 11 0 -2
BITMAP
00
00
00
00
30
48
68
28
08
28
78
ENDCHAR
STARTCHAR ThThoThan
ENCODING 3600
SWIDTH 545 0
DWIDTH 6 0
BBX 6 11 0 -2
BITMAP
00
00
00
00
78
10
28
18
08
20
78
ENDCHAR
STARTCHAR ThRu
ENCODING 3620
SWIDTH 545 0
DWIDTH 6 0
BBX 6 11 0 -2
BITMAP
00
00
00
00
70
88
C8
48
68
08
08
ENDCHAR
STARTCHAR ThLu
ENCODING 3622
SWIDTH 545 0
DWIDTH 6 0
BBX 6 11 0 -2
BITMAP
00
00
00
00
30
48
68
28
68
08
08
ENDCHAR
STARTCHAR ThSaraU
ENCODING 3640
SWIDTH 545 0
DWIDTH 6 0
BBX 6 11 0 -2
BITMAP
00
00
00
00
00
00
00
00
00
18
08
ENDCHAR
STARTCHAR ThSaraUu
ENCODING 3641
SWIDTH 545 0
DWIDTH 6 0
BBX 6 11 0 -2
BITMAP
00
00
00
00
00
00
00
00
00
68
38
ENDCHAR
STARTCHAR ThPhinthu
ENCODING 3642
SWIDTH 545 0
DWIDTH 6 0
BBX 6 11 0 -2
BITMAP
00
00
00
00
00
00
00
00
00
00
18
ENDCHAR
STARTCHAR ThLakkhangyao
ENCODING 3653
SWIDTH 545 0
DWIDTH 6 0
BBX 6 11 0 -2
BITMAP
00
00
00
00
30
48
08
08
08
08
08
ENDCHAR
STARTCHAR ThMaiyamok
ENCODING 3654
SWIDTH 545 0
DWIDTH 6 0
BBX 6 11 0 -2
BITMAP
00
00
00
00
50
A8
88
C8
08
08
10
ENDCHAR
STARTCHAR GeGan
ENCODING 4306
SWIDTH 545 0
DWIDTH 6 0
BBX 6 11 0 -2
BITMAP
00
00
00
00
20
50
10
30
48
48
30
ENDCHAR
STARTCHAR GeDon
ENCODING 4307
SWIDTH 545 0
DWIDTH 6 0
BBX 6 11 0 -2
BITMAP
00
00
00
00
30
48
48
30
20
70
08
ENDCHAR
STARTCHAR GeEn
ENCODING 4308
SWIDTH 545 0
DWIDTH 6 0
BBX 6 11 0 -2
BITMAP
00
00
00
00
30
28
08
08
08
48
30
ENDCHAR
STARTCHAR GeVin
ENCODING 4309
SWIDTH 545 0
DWIDTH 6 0
BBX 6 11 0 -2
BITMAP
00
00
00
00
30
28
08
30
08
48
30
ENDCHAR
STARTCHAR GeKan
ENCODING 4313
SWIDTH 545 0
DWIDTH 6 0
BBX 6 11 0 -2
BITMAP
00
00
00
00
08
08
08
30
08
48
30
ENDCHAR
STARTCHAR GeLas
ENCODING 4314
SWIDTH 545 0
DWIDTH 6 0
BBX 6 11 0 -2
BITMAP
00
00
00
00
30
48
48
40
20
70
08
ENDCHAR
STARTCHAR GeZhar
ENCODING 4319
SWIDTH 545 0
DWIDTH 6 0
BBX 6 11 0 -2
BITMAP
00
00
00
00
5C
54
54
24
04
24
18
ENDCHAR
STARTCHAR GeTar
ENCODING 4322
SWIDTH 545 0
DWIDTH 6 0
BBX 6 11 0 -2
BITMAP
00
00
00
10
28
54
44
44
44
44
38
ENDCHAR
STARTCHAR GeUn
ENCODING 4323
SWIDTH 545 0
DWIDTH 6 0
BBX 6 11 0 -2
BITMAP
00
00
00
00
58
74
14
04
44
44
38
ENDCHAR
STARTCHAR GePhar
ENCODING 4324
SWIDTH 545 0
DWIDTH 6 0
BBX 6 11 0 -2
BITMAP
00
00
00
00
3C
54
54
28
04
24
18
ENDCHAR
STARTCHAR GeKhar
ENCODING 4325
SWIDTH 545 0
DWIDTH 6 0
BBX 6 11 0 -2
BITMAP
00
08
08
08
08
38
28
08
08
48
30
ENDCHAR
STARTCHAR GeGhan
ENCODING 4326
SWIDTH 545 0
DWIDTH 6 0
BBX 6 11 0 -2
BITMAP
00
00
00
00
28
54
54
44
20
78
04
ENDCHAR
STARTCHAR GeQar
ENCODING 4327
SWIDTH 545 0
DWIDTH 6 0
BBX 6 11 0 -2
BITMAP
00
00
00
00
48
48
48
38
08
48
30
ENDCHAR
STARTCHAR GeCan
ENCODING 4330
SWIDTH 545 0
DWIDTH 6 0
BBX 6 11 0 -2
BITMAP
00
00
00
00
50
48
48
50
48
48
30
ENDCHAR
STARTCHAR GeCil
ENCODING 4332
SWIDTH 545 0
DWIDTH 6 0
BBX 6 11 0 -2
BITMAP
00
28
54
54
40
38
28
28
10
10
10
ENDCHAR
STARTCHAR GeChar
ENCODING 4333
SWIDTH 545 0
DWIDTH 6 0
BBX 6 11 0 -2
BITMAP
00
20
20
10
08
18
28
18
08
48
30
ENDCHAR
STARTCHAR GeWe
ENCODING 4339
SWIDTH 545 0
DWIDTH 6 0
BBX 6 11 0 -2
BITMAP
00
00
00
00
38
08
10
30
08
48
30
ENDCHAR
STARTCHAR GeHar
ENCODING 4340
SWIDTH 545 0
DWIDTH 6 0
BBX 6 11 0 -2
BITMAP
00
10
20
20
18
08
10
30
08
48
30
ENDCHAR
STARTCHAR GeFi
ENCODING 4342
SWIDTH 545 0
DWIDTH 6 0
BBX 6 11 0 -2
BITMAP
00
00
00
00
28
54
54
54
18
10
20
ENDCHAR
STARTCHAR GeYn
ENCODING 4343
SWIDTH 545 0
DWIDTH 6 0
BBX 6 11 0 -2
BITMAP
00
00
00
00
30
48
08
30
40
48
30
ENDCHAR
STARTCHAR GeElifi
ENCODING 4344
SWIDTH 545 0
DWIDTH 6 0
BBX 6 11 0 -2
BITMAP
00
00
00
00
48
48
48
70
40
48
30
ENDCHAR
STARTCHAR GeGanTrnd
ENCODING 4345
SWIDTH 545 0
DWIDTH 6 0
BBX 6 11 0 -2
BITMAP
00
00
00
00
30
48
48
30
20
28
10
ENDCHAR
STARTCHAR LtCapALring
ENCODING 7680
SWIDTH 545 0
DWIDTH 6 0
BBX 6 11 0 -2
BITMAP
00
30
30
48
48
78
48
48
58
28
10
ENDCHAR
STARTCHAR LtSmlALring
ENCODING 7681
SWIDTH 545 0
DWIDTH 6 0
BBX 6 11 0 -2
BITMAP
00
00
00
30
08
38
48
48
38
28
10
ENDCHAR
STARTCHAR LtCapBLdot
ENCODING 7684
SWIDTH 545 0
DWIDTH 6 0
BBX 6 11 0 -2
BITMAP
00
70
48
48
70
48
48
48
70
00
30
ENDCHAR
STARTCHAR LtSmlBLdot
ENCODING 7685
SWIDTH 545 0
DWIDTH 6 0
BBX 6 11 0 -2
BITMAP
00
40
40
70
48
48
48
48
70
00
30
ENDCHAR
STARTCHAR LtCapBLmacron
ENCODING 7686
SWIDTH 545 0
DWIDTH 6 0
BBX 6 11 0 -2
BITMAP
00
70
48
48
70
48
48
48
70
00
78
ENDCHAR
STARTCHAR LtSmlBLmacron
ENCODING 7687
SWIDTH 545 0
DWIDTH 6 0
BBX 6 11 0 -2
BITMAP
00
40
40
70
48
48
48
48
70
00
78
ENDCHAR
STARTCHAR LtCapDLdot
ENCODING 7692
SWIDTH 545 0
DWIDTH 6 0
BBX 6 11 0 -2
BITMAP
00
60
50
48
48
48
48
50
60
00
60
ENDCHAR
STARTCHAR LtSmlDLdot
ENCODING 7693
SWIDTH 545 0
DWIDTH 6 0
BBX 6 11 0 -2
BITMAP
00
08
08
38
48
48
48
48
38
00
30
ENDCHAR
STARTCHAR LtCapDLmacron
ENCODING 7694
SWIDTH 545 0
DWIDTH 6 0
BBX 6 11 0 -2
BITMAP
00
60
50
48
48
48
48
50
60
00
78
ENDCHAR
STARTCHAR LtSmlDLmacron
ENCODING 7695
SWIDTH 545 0
DWIDTH 6 0
BBX 6 11 0 -2
BITMAP
00
08
08
38
48
48
48
48
38
00
78
ENDCHAR
STARTCHAR LtCapDLcircum
ENCODING 7698
SWIDTH 545 0
DWIDTH 6 0
BBX 6 11 0 -2
BITMAP
00
60
50
48
48
48
48
50
60
20
50
ENDCHAR
STARTCHAR LtSmlDLcircum
ENCODING 7699
SWIDTH 545 0
DWIDTH 6 0
BBX 6 11 0 -2
BITMAP
00
08
08
38
48
48
48
48
38
10
28
ENDCHAR
STARTCHAR LtCapELcircum
ENCODING 7704
SWIDTH 545 0
DWIDTH 6 0
BBX 6 11 0 -2
BITMAP
00
78
40
40
70
40
40
40
78
20
50
ENDCHAR
STARTCHAR LtSmlELcircum
ENCODING 7705
SWIDTH 545 0
DWIDTH 6 0
BBX 6 11 0 -2
BITMAP
00
00
00
30
48
78
40
40
38
10
28
ENDCHAR
STARTCHAR LtCapELtilde
ENCODING 7706
SWIDTH 545 0
DWIDTH 6 0
BBX 6 11 0 -2
BITMAP
00
78
40
40
70
40
40
40
78
28
50
ENDCHAR
STARTCHAR LtSmlELtilde
ENCODING 7707
SWIDTH 545 0
DWIDTH 6 0
BBX 6 11 0 -2
BITMAP
00
00
00
30
48
78
40
40
38
28
50
ENDCHAR
STARTCHAR LtCapHLdot
ENCODING 7716
SWIDTH 545 0
DWIDTH 6 0
BBX 6 11 0 -2
BITMAP
00
48
48
48
78
48
48
48
48
00
30
ENDCHAR
STARTCHAR LtSmlHLdot
ENCODING 7717
SWIDTH 545 0
DWIDTH 6 0
BBX 6 11 0 -2
BITMAP
00
40
40
58
68
48
48
48
48
00
30
ENDCHAR
STARTCHAR LtCapHLbreve
ENCODING 7722
SWIDTH 545 0
DWIDTH 6 0
BBX 6 11 0 -2
BITMAP
00
48
48
48
78
48
48
48
00
48
30
ENDCHAR
STARTCHAR LtSmlHLbreve
ENCODING 7723
SWIDTH 545 0
DWIDTH 6 0
BBX 6 11 0 -2
BITMAP
00
40
40
58
68
48
48
48
00
48
30
ENDCHAR
STARTCHAR LtCapILtilde
ENCODING 7724
SWIDTH 545 0
DWIDTH 6 0
BBX 6 11 0 -2
BITMAP
00
38
10
10
10
10
10
10
38
28
50
ENDCHAR
STARTCHAR LtSmlILtilde
ENCODING 7725
SWIDTH 545 0
DWIDTH 6 0
BBX 6 11 0 -2
BITMAP
10
10
00
30
10
10
10
10
38
28
50
ENDCHAR
STARTCHAR LtCapKLdot
ENCODING 7730
SWIDTH 545 0
DWIDTH 6 0
BBX 6 11 0 -2
BITMAP
00
48
48
50
60
50
50
48
48
00
30
ENDCHAR
STARTCHAR LtSmlKLdot
ENCODING 7731
SWIDTH 545 0
DWIDTH 6 0
BBX 6 11 0 -2
BITMAP
00
40
40
48
50
60
50
48
48
00
30
ENDCHAR
STARTCHAR LtCapKLmacron
ENCODING 7732
SWIDTH 545 0
DWIDTH 6 0
BBX 6 11 0 -2
BITMAP
00
48
48
50
60
50
50
48
48
00
78
ENDCHAR
STARTCHAR LtSmlKLmacron
ENCODING 7733
SWIDTH 545 0
DWIDTH 6 0
BBX 6 11 0 -2
BITMAP
00
40
40
48
50
60
50
48
48
00
78
ENDCHAR
STARTCHAR LtCapLLdot
ENCODING 7734
SWIDTH 545 0
DWIDTH 6 0
BBX 6 11 0 -2
BITMAP
00
40
40
40
40
40
40
40
78
00
30
ENDCHAR
STARTCHAR LtSmlLLdot
ENCODING 7735
SWIDTH 545 0
DWIDTH 6 0
BBX 6 11 0 -2
BITMAP
00
30
10
10
10
10
10
10
38
00
30
ENDCHAR
STARTCHAR LtCapLMacronLdot
ENCODING 7736
SWIDTH 545 0
DWIDTH 6 0
BBX 6 11 0 -2
BITMAP
78
00
40
40
40
40
40
40
78
00
30
ENDCHAR
STARTCHAR LtSmlLMacronLdot
ENCODING 7737
SWIDTH 545 0
DWIDTH 6 0
BBX 6 11 0 -2
BITMAP
38
00
30
10
10
10
10
10
38
00
30
ENDCHAR
STARTCHAR LtCapLLmacron
ENCODING 7738
SWIDTH 545 0
DWIDTH 6 0
BBX 6 11 0 -2
BITMAP
00
40
40
40
40
40
40
40
78
00
78
ENDCHAR
STARTCHAR LtSmlLLmacron
ENCODING 7739
SWIDTH 545 0
DWIDTH 6 0
BBX 6 11 0 -2
BITMAP
00
30
10
10
10
10
10
10
38
00
78
ENDCHAR
STARTCHAR LtCapLLcircum
ENCODING 7740
SWIDTH 545 0
DWIDTH 6 0
BBX 6 11 0 -2
BITMAP
00
40
40
40
40
40
40
40
78
20
50
ENDCHAR
STARTCHAR LtSmlLLcircum
ENCODING 7741
SWIDTH 545 0
DWIDTH 6 0
BBX 6 11 0 -2
BITMAP
00
30
10
10
10
10
10
10
38
10
28
ENDCHAR
STARTCHAR LtCapMLdot
ENCODING 7746
SWIDTH 545 0
DWIDTH 6 0
BBX 6 11 0 -2
BITMAP
00
44
6C
6C
54
54
44
44
44
00
30
ENDCHAR
STARTCHAR LtSmlMLdot
ENCODING 7747
SWIDTH 545 0
DWIDTH 6 0
BBX 6 11 0 -2
BITMAP
00
00
00
7C
54
54
54
54
54
00
30
ENDCHAR
STARTCHAR LtCapNLdot
ENCODING 7750
SWIDTH 545 0
DWIDTH 6 0
BBX 6 11 0 -2
BITMAP
00
48
48
68
68
58
58
48
48
00
30
ENDCHAR
STARTCHAR LtSmlNLdot
ENCODING 7751
SWIDTH 545 0
DWIDTH 6 0
BBX 6 11 0 -2
BITMAP
00
00
00
58
68
48
48
48
48
00
30
ENDCHAR
STARTCHAR LtCapNLmacron
ENCODING 7752
SWIDTH 545 0
DWIDTH 6 0
BBX 6 11 0 -2
BITMAP
00
48
48
68
68
58
58
48
48
00
78
ENDCHAR
STARTCHAR LtSmlNLmacron
ENCODING 7753
SWIDTH 545 0
DWIDTH 6 0
BBX 6 11 0 -2
BITMAP
00
00
00
58
68
48
48
48
48
00
78
ENDCHAR
STARTCHAR LtCapNLcircum
ENCODING 7754
SWIDTH 545 0
DWIDTH 6 0
BBX 6 11 0 -2
BITMAP
00
48
48
68
68
58
58
48
48
20
50
ENDCHAR
STARTCHAR LtSmlNLcircum
ENCODING 7755
SWIDTH 545 0
DWIDTH 6 0
BBX 6 11 0 -2
BITMAP
00
00
00
58
68
48
48
48
48
10
28
ENDCHAR
STARTCHAR LtCapRLdot
ENCODING 7770
SWIDTH 545 0
DWIDTH 6 0
BBX 6 11 0 -2
BITMAP
00
70
48
48
70
50
50
48
48
00
30
ENDCHAR
STARTCHAR LtSmlRLdot
ENCODING 7771
SWIDTH 545 0
DWIDTH 6 0
BBX 6 11 0 -2
BITMAP
00
00
00
78
28
20
20
20
20
00
30
ENDCHAR
STARTCHAR LtCapRMacronLdot
ENCODING 7772
SWIDTH 545 0
DWIDTH 6 0
BBX 6 11 0 -2
BITMAP
78
00
70
48
48
70
50
48
48
00
30
ENDCHAR
STARTCHAR LtSmlRMacronLdot
ENCODING 7773
SWIDTH 545 0
DWIDTH 6 0
BBX 6 11 0 -2
BITMAP
00
38
00
78
28
20
20
20
20
00
30
ENDCHAR
STARTCHAR LtCapRLmacron
ENCODING 7774
SWIDTH 545 0
DWIDTH 6 0
BBX 6 11 0 -2
BITMAP
00
70
48
48
70
50
50
48
48
00
78
ENDCHAR
STARTCHAR LtSmlRLmacron
ENCODING 7775
SWIDTH 545 0
DWIDTH 6 0
BBX 6 11 0 -2
BITMAP
00
00
00
78
28
20
20
20
20
00
78
ENDCHAR
STARTCHAR LtCapSLdot
ENCODING 7778
SWIDTH 545 0
DWIDTH 6 0
BBX 6 11 0 -2
BITMAP
00
30
48
40
20
10
08
48
30
00
30
ENDCHAR
STARTCHAR LtSmlSLdot
ENCODING 7779
SWIDTH 545 0
DWIDTH 6 0
BBX 6 11 0 -2
BITMAP
00
00
00
38
40
60
18
08
70
00
30
ENDCHAR
STARTCHAR LtCapSDotLdot
ENCODING 7784
SWIDTH 545 0
DWIDTH 6 0
BBX 6 11 0 -2
BITMAP
30
00
30
48
40
30
08
48
30
00
30
ENDCHAR
STARTCHAR LtSmlSDotLdot
ENCODING 7785
SWIDTH 545 0
DWIDTH 6 0
BBX 6 11 0 -2
BITMAP
10
10
00
38
40
60
18
08
70
00
30
ENDCHAR
STARTCHAR LtCapTLdot
ENCODING 7788
SWIDTH 545 0
DWIDTH 6 0
BBX 6 11 0 -2
BITMAP
00
7C
10
10
10
10
10
10
10
00
30
ENDCHAR
STARTCHAR LtSmlTLdot
ENCODING 7789
SWIDTH 545 0
DWIDTH 6 0
BBX 6 11 0 -2
BITMAP
00
20
20
78
20
20
20
20
18
00
30
ENDCHAR
STARTCHAR LtCapTLmacron
ENCODING 7790
SWIDTH 545 0
DWIDTH 6 0
BBX 6 11 0 -2
BITMAP
00
7C
10
10
10
10
10
10
10
00
78
ENDCHAR
STARTCHAR LtSmlTLmacron
ENCODING 7791
SWIDTH 545 0
DWIDTH 6 0
BBX 6 11 0 -2
BITMAP
00
20
20
78
20
20
20
20
18
00
78
ENDCHAR
STARTCHAR LtCapTLcircum
ENCODING 7792
SWIDTH 545 0
DWIDTH 6 0
BBX 6 11 0 -2
BITMAP
00
7C
10
10
10
10
10
10
10
10
28
ENDCHAR
STARTCHAR LtSmlTLcircum
ENCODING 7793
SWIDTH 545 0
DWIDTH 6 0
BBX 6 11 0 -2
BITMAP
00
20
20
78
20
20
20
20
18
10
28
ENDCHAR
STARTCHAR LtCapULdrss
ENCODING 7794
SWIDTH 545 0
DWIDTH 6 0
BBX 6 11 0 -2
BITMAP
00
48
48
48
48
48
48
48
30
00
6C
ENDCHAR
STARTCHAR LtSmlULdrss
ENCODING 7795
SWIDTH 545 0
DWIDTH 6 0
BBX 6 11 0 -2
BITMAP
00
00
00
48
48
48
48
48
38
00
6C
ENDCHAR
STARTCHAR LtCapULtilde
ENCODING 7796
SWIDTH 545 0
DWIDTH 6 0
BBX 6 11 0 -2
BITMAP
00
48
48
48
48
48
48
48
30
28
50
ENDCHAR
STARTCHAR LtSmlULtilde
ENCODING 7797
SWIDTH 545 0
DWIDTH 6 0
BBX 6 11 0 -2
BITMAP
00
00
00
48
48
48
48
48
38
28
50
ENDCHAR
STARTCHAR LtCapULcircum
ENCODING 7798
SWIDTH 545 0
DWIDTH 6 0
BBX 6 11 0 -2
BITMAP
00
48
48
48
48
48
48
48
30
10
28
ENDCHAR
STARTCHAR LtSmlULcircum
ENCODING 7799
SWIDTH 545 0
DWIDTH 6 0
BBX 6 11 0 -2
BITMAP
00
00
00
48
48
48
48
48
38
20
50
ENDCHAR
STARTCHAR LtCapVLdot
ENCODING 7806
SWIDTH 545 0
DWIDTH 6 0
BBX 6 11 0 -2
BITMAP
00
44
44
44
44
28
28
10
10
00
30
ENDCHAR
STARTCHAR LtSmlVLdot
ENCODING 7807
SWIDTH 545 0
DWIDTH 6 0
BBX 6 11 0 -2
BITMAP
00
00
00
44
44
28
28
10
10
00
30
ENDCHAR
STARTCHAR LtCapWLdot
ENCODING 7816
SWIDTH 545 0
DWIDTH 6 0
BBX 6 11 0 -2
BITMAP
00
44
44
44
54
54
7C
28
28
00
30
ENDCHAR
STARTCHAR LtSmlWLdot
ENCODING 7817
SWIDTH 545 0
DWIDTH 6 0
BBX 6 11 0 -2
BITMAP
00
00
00
44
44
54
54
38
28
00
30
ENDCHAR
STARTCHAR LtCapZLdot
ENCODING 7826
SWIDTH 545 0
DWIDTH 6 0
BBX 6 11 0 -2
BITMAP
00
78
08
10
10
20
20
40
78
00
30
ENDCHAR
STARTCHAR LtSmlZLdot
ENCODING 7827
SWIDTH 545 0
DWIDTH 6 0
BBX 6 11 0 -2
BITMAP
00
00
00
78
08
10
20
40
78
00
30
ENDCHAR
STARTCHAR LtCapZLmacron
ENCODING 7828
SWIDTH 545 0
DWIDTH 6 0
BBX 6 11 0 -2
BITMAP
00
78
08
10
10
20
20
40
78
00
78
ENDCHAR
STARTCHAR LtSmlZLmacron
ENCODING 7829
SWIDTH 545 0
DWIDTH 6 0
BBX 6 11 0 -2
BITMAP
00
00
00
78
08
10
20
40
78
00
78
ENDCHAR
STARTCHAR LtSmlHLmacron
ENCODING 7830
SWIDTH 545 0
DWIDTH 6 0
BBX 6 11 0 -2
BITMAP
00
40
40
58
68
48
48
48
48
00
78
ENDCHAR
STARTCHAR LtCapALdot
ENCODING 7840
SWIDTH 545 0
DWIDTH 6 0
BBX 6 11 0 -2
BITMAP
00
30
30
48
48
78
48
48
48
00
30
ENDCHAR
STARTCHAR LtSmlALdot
ENCODING 7841
SWIDTH 545 0
DWIDTH 6 0
BBX 6 11 0 -2
BITMAP
00
00
00
30
08
38
48
48
38
00
30
ENDCHAR
STARTCHAR LtCapACircumLdot
ENCODING 7852
SWIDTH 545 0
DWIDTH 6 0
BBX 6 11 0 -2
BITMAP
10
28
30
30
48
78
48
48
48
00
30
ENDCHAR
STARTCHAR LtSmlACircumLdot
ENCODING 7853
SWIDTH 545 0
DWIDTH 6 0
BBX 6 11 0 -2
BITMAP
10
28
00
30
08
38
48
48
38
00
30
ENDCHAR
STARTCHAR LtCapABreveLdot
ENCODING 7862
SWIDTH 545 0
DWIDTH 6 0
BBX 6 11 0 -2
BITMAP
48
30
30
30
48
78
48
48
48
00
30
ENDCHAR
STARTCHAR LtSmlABreveLdot
ENCODING 7863
SWIDTH 545 0
DWIDTH 6 0
BBX 6 11 0 -2
BITMAP
48
30
00
30
08
38
48
48
38
00
30
ENDCHAR
STARTCHAR LtCapELdot
ENCODING 7864
SWIDTH 545 0
DWIDTH 6 0
BBX 6 11 0 -2
BITMAP
00
78
40
40
70
40
40
40
78
00
30
ENDCHAR
STARTCHAR LtSmlELdot
ENCODING 7865
SWIDTH 545 0
DWIDTH 6 0
BBX 6 11 0 -2
BITMAP
00
00
00
30
48
78
40
40
38
00
30
ENDCHAR
STARTCHAR LtCapECircumLdot
ENCODING 7878
SWIDTH 545 0
DWIDTH 6 0
BBX 6 11 0 -2
BITMAP
10
28
78
40
40
70
40
40
78
00
30
ENDCHAR
STARTCHAR LtSmlECircumLdot
ENCODING 7879
SWIDTH 545 0
DWIDTH 6 0
BBX 6 11 0 -2
BITMAP
10
28
00
30
48
78
40
40
38
00
30
ENDCHAR
STARTCHAR LtCapILdot
ENCODING 7882
SWIDTH 545 0
DWIDTH 6 0
BBX 6 11 0 -2
BITMAP
00
38
10
10
10
10
10
10
38
00
30
ENDCHAR
STARTCHAR LtSmlILdot
ENCODING 7883
SWIDTH 545 0
DWIDTH 6 0
BBX 6 11 0 -2
BITMAP
10
10
00
30
10
10
10
10
38
00
30
ENDCHAR
STARTCHAR LtCapOLdot
ENCODING 7884
SWIDTH 545 0
DWIDTH 6 0
BBX 6 11 0 -2
BITMAP
00
30
48
48
48
48
48
48
30
00
30
ENDCHAR
STARTCHAR LtSmlOLdot
ENCODING 7885
SWIDTH 545 0
DWIDTH 6 0
BBX 6 11 0 -2
BITMAP
00
00
00
30
48
48
48
48
30
00
30
ENDCHAR
STARTCHAR LtCapOCircumLdot
ENCODING 7896
SWIDTH 545 0
DWIDTH 6 0
BBX 6 11 0 -2
BITMAP
10
28
30
48
48
48
48
48
30
00
30
ENDCHAR
STARTCHAR LtSmlOCircumLdot
ENCODING 7897
SWIDTH 545 0
DWIDTH 6 0
BBX 6 11 0 -2
BITMAP
10
28
00
30
48
48
48
48
30
00
30
ENDCHAR
STARTCHAR LtCapOHornLdot
ENCODING 7906
SWIDTH 545 0
DWIDTH 6 0
BBX 6 11 0 -2
BITMAP
04
34
48
48
48
48
48
48
30
00
30
ENDCHAR
STARTCHAR LtSmlOHornLdot
ENCODING 7907
SWIDTH 545 0
DWIDTH 6 0
BBX 6 11 0 -2
BITMAP
00
00
04
34
48
48
48
48
30
00
30
ENDCHAR
STARTCHAR LtCapULdot
ENCODING 7908
SWIDTH 545 0
DWIDTH 6 0
BBX 6 11 0 -2
BITMAP
00
48
48
48
48
48
48
48
30
00
30
ENDCHAR
STARTCHAR LtSmlULdot
ENCODING 7909
SWIDTH 545 0
DWIDTH 6 0
BBX 6 11 0 -2
BITMAP
00
00
00
48
48
48
48
48
38
00
30
ENDCHAR
STARTCHAR LtCapUHornLdot
ENCODING 7920
SWIDTH 545 0
DWIDTH 6 0
BBX 6 11 0 -2
BITMAP
04
4C
48
48
48
48
48
48
30
00
30
ENDCHAR
STARTCHAR LtSmlUHornLdot
ENCODING 7921
SWIDTH 545 0
DWIDTH 6 0
BBX 6 11 0 -2
BITMAP
00
00
04
4C
48
48
48
48
38
00
30
ENDCHAR
STARTCHAR LtCapYLdot
ENCODING 7924
SWIDTH 545 0
DWIDTH 6 0
BBX 6 11 0 -2
BITMAP
00
44
44
28
28
10
10
10
10
00
30
ENDCHAR
STARTCHAR LtSmlYLdot
ENCODING 7925
SWIDTH 545 0
DWIDTH 6 0
BBX 6 11 0 -2
BITMAP
00
00
00
48
48
48
30
10
20
48
48
ENDCHAR
STARTCHAR MArrowU
ENCODING 8593
SWIDTH 545 0
DWIDTH 6 0
BBX 6 11 0 -2
BITMAP
10
38
10
10
10
10
10
10
10
10
00
ENDCHAR
STARTCHAR MArrowD
ENCODING 8595
SWIDTH 545 0
DWIDTH 6 0
BBX 6 11 0 -2
BITMAP
10
10
10
10
10
10
10
10
38
10
00
ENDCHAR
STARTCHAR MArrowUD
ENCODING 8597
SWIDTH 545 0
DWIDTH 6 0
BBX 6 11 0 -2
BITMAP
10
38
10
10
10
10
10
10
38
10
00
ENDCHAR
STARTCHAR MArrowLU
ENCODING 8598
SWIDTH 545 0
DWIDTH 6 0
BBX 6 11 0 -2
BITMAP
40
60
60
20
10
10
08
08
04
04
00
ENDCHAR
STARTCHAR MArrowRU
ENCODING 8599
SWIDTH 545 0
DWIDTH 6 0
BBX 6 11 0 -2
BITMAP
04
0C
0C
08
10
10
20
20
40
40
00
ENDCHAR
STARTCHAR MArrowRD
ENCODING 8600
SWIDTH 545 0
DWIDTH 6 0
BBX 6 11 0 -2
BITMAP
40
40
20
20
10
10
08
0C
0C
04
00
ENDCHAR
STARTCHAR MArrowLD
ENCODING 8601
SWIDTH 545 0
DWIDTH 6 0
BBX 6 11 0 -2
BITMAP
04
04
08
08
10
10
20
60
60
40
00
ENDCHAR
STARTCHAR MArrowUu
ENCODING 8607
SWIDTH 545 0
DWIDTH 6 0
BBX 6 11 0 -2
BITMAP
10
38
10
38
10
10
10
10
10
10
00
ENDCHAR
STARTCHAR MArrowDd
ENCODING 8609
SWIDTH 545 0
DWIDTH 6 0
BBX 6 11 0 -2
BITMAP
10
10
10
10
10
10
38
10
38
10
00
ENDCHAR
STARTCHAR MArrowBarU
ENCODING 8613
SWIDTH 545 0
DWIDTH 6 0
BBX 6 11 0 -2
BITMAP
10
38
10
10
10
10
10
10
10
38
00
ENDCHAR
STARTCHAR MArrowBarD
ENCODING 8615
SWIDTH 545 0
DWIDTH 6 0
BBX 6 11 0 -2
BITMAP
38
10
10
10
10
10
10
10
38
10
00
ENDCHAR
STARTCHAR MArrowUDBase
ENCODING 8616
SWIDTH 545 0
DWIDTH 6 0
BBX 6 11 0 -2
BITMAP
10
38
10
10
10
10
10
38
10
38
00
ENDCHAR
STARTCHAR MHarpoonUr
ENCODING 8638
SWIDTH 545 0
DWIDTH 6 0
BBX 6 11 0 -2
BITMAP
10
18
10
10
10
10
10
10
10
10
00
ENDCHAR
STARTCHAR MHarpoonUl
ENCODING 8639
SWIDTH 545 0
DWIDTH 6 0
BBX 6 11 0 -2
BITMAP
10
30
10
10
10
10
10
10
10
10
00
ENDCHAR
STARTCHAR MHarpoonDr
ENCODING 8642
SWIDTH 545 0
DWIDTH 6 0
BBX 6 11 0 -2
BITMAP
10
10
10
10
10
10
10
10
18
10
00
ENDCHAR
STARTCHAR MHarpoonDl
ENCODING 8643
SWIDTH 545 0
DWIDTH 6 0
BBX 6 11 0 -2
BITMAP
10
10
10
10
10
10
10
10
30
10
00
ENDCHAR
STARTCHAR MArrowULeftD
ENCODING 8645
SWIDTH 545 0
DWIDTH 6 0
BBX 6 11 0 -2
BITMAP
48
E8
48
48
48
48
48
48
5C
48
00
ENDCHAR
STARTCHAR MArrowULeftU
ENCODING 8648
SWIDTH 545 0
DWIDTH 6 0
BBX 6 11 0 -2
BITMAP
48
FC
48
48
48
48
48
48
48
48
00
ENDCHAR
STARTCHAR MArrowDLeftD
ENCODING 8650
SWIDTH 545 0
DWIDTH 6 0
BBX 6 11 0 -2
BITMAP
48
48
48
48
48
48
48
48
FC
48
00
ENDCHAR
STARTCHAR MArrow2U
ENCODING 8657
SWIDTH 545 0
DWIDTH 6 0
BBX 6 11 0 -2
BITMAP
10
38
6C
28
28
28
28
28
28
28
00
ENDCHAR
STARTCHAR MArrow2D
ENCODING 8659
SWIDTH 545 0
DWIDTH 6 0
BBX 6 11 0 -2
BITMAP
28
28
28
28
28
28
28
6C
38
10
00
ENDCHAR
STARTCHAR MArrow2UD
ENCODING 8661
SWIDTH 545 0
DWIDTH 6 0
BBX 6 11 0 -2
BITMAP
10
38
6C
28
28
28
28
6C
38
10
00
ENDCHAR
STARTCHAR PCurlyBrackLTRB
ENCODING 9136
SWIDTH 545 0
DWIDTH 6 0
BBX 6 11 0 -2
BITMAP
0C
10
10
10
10
10
10
10
10
10
60
ENDCHAR
STARTCHAR PCurlyBrackLBRT
ENCODING 9137
SWIDTH 545 0
DWIDTH 6 0
BBX 6 11 0 -2
BITMAP
60
10
10
10
10
10
10
10
10
10
0C
ENDCHAR
STARTCHAR MSumT
ENCODING 9138
SWIDTH 545 0
DWIDTH 6 0
BBX 6 11 0 -2
BITMAP
7C
40
40
20
20
20
10
10
10
08
08
ENDCHAR
STARTCHAR MRootB
ENCODING 9143
SWIDTH 545 0
DWIDTH 6 0
BBX 6 11 0 -2
BITMAP
10
10
10
10
10
90
50
50
30
10
10
ENDCHAR
STARTCHAR LtSmlATrndLinvbreve
ENCODING 57350
SWIDTH 545 0
DWIDTH 6 0
BBX 6 11 0 -2
BITMAP
00
00
00
F0
48
70
40
30
00
30
48
ENDCHAR
STARTCHAR LtCapCLdot
ENCODING 57356
SWIDTH 545 0
DWIDTH 6 0
BBX 6 11 0 -2
BITMAP
00
30
48
40
40
40
40
48
30
00
30
ENDCHAR
STARTCHAR LtSmlCLdot
ENCODING 57357
SWIDTH 545 0
DWIDTH 6 0
BBX 6 11 0 -2
BITMAP
00
00
00
30
48
40
40
40
38
00
30
ENDCHAR
STARTCHAR LtCapCCaronLdot
ENCODING 57358
SWIDTH 545 0
DWIDTH 6 0
BBX 6 11 0 -2
BITMAP
28
10
30
48
40
40
40
48
30
00
30
ENDCHAR
STARTCHAR LtSmlCCaronLdot
ENCODING 57359
SWIDTH 545 0
DWIDTH 6 0
BBX 6 11 0 -2
BITMAP
28
10
00
30
48
40
40
40
38
00
30
ENDCHAR
STARTCHAR LtCapELmacron
ENCODING 57370
SWIDTH 545 0
DWIDTH 6 0
BBX 6 11 0 -2
BITMAP
00
78
40
40
70
40
40
40
78
00
78
ENDCHAR
STARTCHAR LtSmlELmacron
ENCODING 57371
SWIDTH 545 0
DWIDTH 6 0
BBX 6 11 0 -2
BITMAP
00
00
00
30
48
78
40
40
38
00
78
ENDCHAR
STARTCHAR LtCapEAcuteLdot
ENCODING 57372
SWIDTH 545 0
DWIDTH 6 0
BBX 6 11 0 -2
BITMAP
10
20
78
40
40
70
40
40
78
00
30
ENDCHAR
STARTCHAR LtSmlEAcuteLdot
ENCODING 57373
SWIDTH 545 0
DWIDTH 6 0
BBX 6 11 0 -2
BITMAP
10
20
00
30
48
78
40
40
38
00
30
ENDCHAR
STARTCHAR LtCapEGraveLdot
ENCODING 57376
SWIDTH 545 0
DWIDTH 6 0
BBX 6 11 0 -2
BITMAP
20
10
78
40
40
70
40
40
78
00
30
ENDCHAR
STARTCHAR LtSmlEGraveLdot
ENCODING 57377
SWIDTH 545 0
DWIDTH 6 0
BBX 6 11 0 -2
BITMAP
20
10
00
30
48
78
40
40
38
00
30
ENDCHAR
STARTCHAR LtCapGHLmacron
ENCODING 57393
SWIDTH 545 0
DWIDTH 6 0
BBX 6 11 0 -2
BITMAP
00
54
B4
94
9C
F4
B4
B4
74
00
78
ENDCHAR
STARTCHAR LtMixGHLmacron
ENCODING 57394
SWIDTH 545 0
DWIDTH 6 0
BBX 6 11 0 -2
BITMAP
00
50
B0
9C
94
F4
B4
B4
74
00
78
ENDCHAR
STARTCHAR LtSmlGHLmacron
ENCODING 57395
SWIDTH 545 0
DWIDTH 6 0
BBX 6 11 0 -2
BITMAP
00
10
10
7C
B4
B4
B4
F4
34
A0
F8
ENDCHAR
STARTCHAR LtCapHLmacron
ENCODING 57396
SWIDTH 545 0
DWIDTH 6 0
BBX 6 11 0 -2
BITMAP
00
48
48
48
78
48
48
48
48
00
78
ENDCHAR
STARTCHAR LtSmlILinvbreve
ENCODING 57397
SWIDTH 545 0
DWIDTH 6 0
BBX 6 11 0 -2
BITMAP
10
10
00
30
10
10
10
38
00
30
48
ENDCHAR
STARTCHAR LtCapKHLmacron
ENCODING 57405
SWIDTH 545 0
DWIDTH 6 0
BBX 6 11 0 -2
BITMAP
00
B4
B4
B4
DC
D4
B4
B4
B4
00
78
ENDCHAR
STARTCHAR LtMixKHLmacron
ENCODING 57406
SWIDTH 545 0
DWIDTH 6 0
BBX 6 11 0 -2
BITMAP
00
B0
B0
BC
D4
D4
B4
B4
B4
00
78
ENDCHAR
STARTCHAR LtSmlKHLmacron
ENCODING 57407
SWIDTH 545 0
DWIDTH 6 0
BBX 6 11 0 -2
BITMAP
00
90
90
BC
B4
D4
F4
B4
B4
00
78
ENDCHAR
STARTCHAR LtSmlLLring
ENCODING 57409
SWIDTH 545 0
DWIDTH 6 0
BBX 6 11 0 -2
BITMAP
00
30
10
10
10
10
10
10
38
28
10
ENDCHAR
STARTCHAR LtSmlLMacronLring
ENCODING 57412
SWIDTH 545 0
DWIDTH 6 0
BBX 6 11 0 -2
BITMAP
38
00
30
10
10
10
10
10
38
28
10
ENDCHAR
STARTCHAR LtCapOLmacron
ENCODING 57426
SWIDTH 545 0
DWIDTH 6 0
BBX 6 11 0 -2
BITMAP
00
30
48
48
48
48
48
48
30
00
78
ENDCHAR
STARTCHAR LtSmlOLmacron
ENCODING 57427
SWIDTH 545 0
DWIDTH 6 0
BBX 6 11 0 -2
BITMAP
00
00
00
30
48
48
48
48
30
00
78
ENDCHAR
STARTCHAR LtCapOAcuteLdot
ENCODING 57428
SWIDTH 545 0
DWIDTH 6 0
BBX 6 11 0 -2
BITMAP
10
20
30
48
48
48
48
48
30
00
30
ENDCHAR
STARTCHAR LtSmlOAcuteLdot
ENCODING 57429
SWIDTH 545 0
DWIDTH 6 0
BBX 6 11 0 -2
BITMAP
10
20
00
30
48
48
48
48
30
00
30
ENDCHAR
STARTCHAR LtSmlOLinvbreve
ENCODING 57430
SWIDTH 545 0
DWIDTH 6 0
BBX 6 11 0 -2
BITMAP
00
00
00
30
48
48
48
30
00
30
48
ENDCHAR
STARTCHAR LtCapOGraveLdot
ENCODING 57433
SWIDTH 545 0
DWIDTH 6 0
BBX 6 11 0 -2
BITMAP
20
10
30
48
48
48
48
48
30
00
30
ENDCHAR
STARTCHAR LtSmlOGraveLdot
ENCODING 57434
SWIDTH 545 0
DWIDTH 6 0
BBX 6 11 0 -2
BITMAP
20
10
00
30
48
48
48
48
30
00
30
ENDCHAR
STARTCHAR LtCapPLdot
ENCODING 57437
SWIDTH 545 0
DWIDTH 6 0
BBX 6 11 0 -2
BITMAP
00
70
48
48
48
70
40
40
40
00
60
ENDCHAR
STARTCHAR LtSmlPLdot
ENCODING 57438
SWIDTH 545 0
DWIDTH 6 0
BBX 6 11 0 -2
BITMAP
00
00
00
70
48
48
48
48
70
40
58
ENDCHAR
STARTCHAR LtCapQLdot
ENCODING 57441
SWIDTH 545 0
DWIDTH 6 0
BBX 6 11 0 -2
BITMAP
00
30
48
48
48
48
68
58
30
08
30
ENDCHAR
STARTCHAR LtSmlQLdot
ENCODING 57442
SWIDTH 545 0
DWIDTH 6 0
BBX 6 11 0 -2
BITMAP
00
00
00
38
48
48
48
48
38
08
68
ENDCHAR
STARTCHAR LtCapRLring
ENCODING 57443
SWIDTH 545 0
DWIDTH 6 0
BBX 6 11 0 -2
BITMAP
00
70
48
48
70
50
50
48
58
28
10
ENDCHAR
STARTCHAR LtSmlRLring
ENCODING 57444
SWIDTH 545 0
DWIDTH 6 0
BBX 6 11 0 -2
BITMAP
00
00
00
78
28
20
20
20
20
50
20
ENDCHAR
STARTCHAR LtSmlRLvline
ENCODING 57445
SWIDTH 545 0
DWIDTH 6 0
BBX 6 11 0 -2
BITMAP
00
00
00
78
28
20
20
20
00
20
20
ENDCHAR
STARTCHAR LtCapRAcuteLdot
ENCODING 57446
SWIDTH 545 0
DWIDTH 6 0
BBX 6 11 0 -2
BITMAP
10
20
70
48
48
70
50
48
48
00
30
ENDCHAR
STARTCHAR LtSmlRAcuteLdot
ENCODING 57447
SWIDTH 545 0
DWIDTH 6 0
BBX 6 11 0 -2
BITMAP
10
20
00
78
28
20
20
20
20
00
30
ENDCHAR
STARTCHAR LtSmlRAcuteLring
ENCODING 57448
SWIDTH 545 0
DWIDTH 6 0
BBX 6 11 0 -2
BITMAP
10
20
00
78
28
20
20
20
20
50
20
ENDCHAR
STARTCHAR LtCapRGraveLdot
ENCODING 57449
SWIDTH 545 0
DWIDTH 6 0
BBX 6 11 0 -2
BITMAP
20
10
70
48
48
70
50
48
48
00
30
ENDCHAR
STARTCHAR LtSmlRGraveLdot
ENCODING 57450
SWIDTH 545 0
DWIDTH 6 0
BBX 6 11 0 -2
BITMAP
20
10
00
78
28
20
20
20
20
00
30
ENDCHAR
STARTCHAR LtSmlRGraveLring
ENCODING 57451
SWIDTH 545 0
DWIDTH 6 0
BBX 6 11 0 -2
BITMAP
20
10
00
78
28
20
20
20
20
50
20
ENDCHAR
STARTCHAR LtSmlRMacronAcuteLdot
ENCODING 57453
SWIDTH 545 0
DWIDTH 6 0
BBX 6 11 0 -2
BITMAP
10
20
78
00
78
28
20
20
20
00
30
ENDCHAR
STARTCHAR LtSmlRMacronLring
ENCODING 57454
SWIDTH 545 0
DWIDTH 6 0
BBX 6 11 0 -2
BITMAP
00
38
00
78
28
20
20
20
20
50
20
ENDCHAR
STARTCHAR LtSmlRMacronAcuteLring
ENCODING 57455
SWIDTH 545 0
DWIDTH 6 0
BBX 6 11 0 -2
BITMAP
10
20
78
00
78
28
20
20
20
50
20
ENDCHAR
STARTCHAR LtSmlULinvbreve
ENCODING 57456
SWIDTH 545 0
DWIDTH 6 0
BBX 6 11 0 -2
BITMAP
00
00
00
48
48
48
48
38
00
30
48
ENDCHAR
STARTCHAR GkCapIotTrndLbreve
ENCODING 57483
SWIDTH 545 0
DWIDTH 6 0
BBX 6 11 0 -2
BITMAP
00
38
10
10
10
10
10
38
00
48
30
ENDCHAR
STARTCHAR GkSmlIotTrndLbreve
ENCODING 57484
SWIDTH 545 0
DWIDTH 6 0
BBX 6 11 0 -2
BITMAP
00
00
00
60
10
10
10
10
00
48
30
ENDCHAR
STARTCHAR GkCapUpsTrndLbreve
ENCODING 57486
SWIDTH 545 0
DWIDTH 6 0
BBX 6 11 0 -2
BITMAP
00
10
10
10
10
28
44
44
00
48
30
ENDCHAR
STARTCHAR GkSmlUpsTrndLbreve
ENCODING 57487
SWIDTH 545 0
DWIDTH 6 0
BBX 6 11 0 -2
BITMAP
00
00
00
30
48
48
48
48
00
48
30
ENDCHAR
STARTCHAR GeEnMacron
ENCODING 57493
SWIDTH 545 0
DWIDTH 6 0
BBX 6 11 0 -2
BITMAP
00
00
38
00
30
28
08
08
08
48
30
ENDCHAR
STARTCHAR GeUnCircum
ENCODING 57497
SWIDTH 545 0
DWIDTH 6 0
BBX 6 11 0 -2
BITMAP
00
30
48
00
58
74
14
04
44
44
38
ENDCHAR
STARTCHAR GeUnMacron
ENCODING 57498
SWIDTH 545 0
DWIDTH 6 0
BBX 6 11 0 -2
BITMAP
00
00
38
00
58
74
14
04
44
44
38
ENDCHAR
STARTCHAR GeUnDrss
ENCODING 57499
SWIDTH 545 0
DWIDTH 6 0
BBX 6 11 0 -2
BITMAP
00
28
28
00
58
74
14
04
44
44
38
ENDCHAR
STARTCHAR GeUo
ENCODING 57500
SWIDTH 545 0
DWIDTH 6 0
BBX 6 11 0 -2
BITMAP
00
00
00
00
34
5C
50
40
44
44
38
ENDCHAR
STARTCHAR HbAlefPatah
ENCODING 64302
SWIDTH 545 0
DWIDTH 6 0
BBX 6 11 0 -2
BITMAP
00
00
00
50
48
30
50
48
68
00
78
ENDCHAR
STARTCHAR HbAlefQamats
ENCODING 64303
SWIDTH 545 0
DWIDTH 6 0
BBX 6 11 0 -2
BITMAP
00
00
00
50
48
30
50
48
68
70
20
ENDCHAR
ENDFONT
