STARTFONT 2.1
FONT -opf-uw-ttyp0-medium-r-normal--11-110-75-75-p-110-iso10646-1
SIZE 11 75 75
FONTBOUNDINGBOX 6 11 0 -2
STARTPROPERTIES 19
FONTNAME_REGISTRY ""
FOUNDRY "UW"
FAMILY_NAME "Ttyp0"
WEIGHT_NAME "Bold"
SLANT "R"
SETWIDTH_NAME "Normal"
ADD_STYLE_NAME ""
PIXEL_SIZE 11
POINT_SIZE 100
RESOLUTION_X 75
RESOLUTION_Y 75
SPACING "C"
AVERAGE_WIDTH 60
CHARSET_REGISTRY "ISO10646"
CHARSET_ENCODING "1"
DEFAULT_CHAR 0
FONT_DESCENT 2
FONT_ASCENT 9
COPYRIGHT "Copyright (C) 2012-2015 Uwe Waldmann"
ENDPROPERTIES
CHARS 234
STARTCHAR CombLdot
ENCODING 803
SWIDTH 545 0
DWIDTH 6 0
BBX 6 11 0 -2
BITMAP
00
00
00
00
00
00
00
00
00
00
30
ENDCHAR
STARTCHAR CombLdrss
ENCODING 804
SWIDTH 545 0
DWIDTH 6 0
BBX 6 11 0 -2
BITMAP
00
00
00
00
00
00
00
00
00
00
D8
ENDCHAR
STARTCHAR CombLvline
ENCODING 809
SWIDTH 545 0
DWIDTH 6 0
BBX 6 11 0 -2
BITMAP
00
00
00
00
00
00
00
00
00
30
30
ENDCHAR
STARTCHAR CombLcaron
ENCODING 812
SWIDTH 545 0
DWIDTH 6 0
BBX 6 11 0 -2
BITMAP
00
00
00
00
00
00
00
00
00
68
30
ENDCHAR
STARTCHAR CombLcircum
ENCODING 813
SWIDTH 545 0
DWIDTH 6 0
BBX 6 11 0 -2
BITMAP
00
00
00
00
00
00
00
00
00
30
58
ENDCHAR
STARTCHAR CombLbreve
ENCODING 814
SWIDTH 545 0
DWIDTH 6 0
BBX 6 11 0 -2
BITMAP
00
00
00
00
00
00
00
00
00
68
30
ENDCHAR
STARTCHAR CombLinvbreve
ENCODING 815
SWIDTH 545 0
DWIDTH 6 0
BBX 6 11 0 -2
BITMAP
00
00
00
00
00
00
00
00
00
30
58
ENDCHAR
STARTCHAR CombLtilde
ENCODING 816
SWIDTH 545 0
DWIDTH 6 0
BBX 6 11 0 -2
BITMAP
00
00
00
00
00
00
00
00
00
48
B0
ENDCHAR
STARTCHAR CombLmacron
ENCODING 817
SWIDTH 545 0
DWIDTH 6 0
BBX 6 11 0 -2
BITMAP
00
00
00
00
00
00
00
00
00
00
F8
ENDCHAR
STARTCHAR CombLvline2
ENCODING 840
SWIDTH 545 0
DWIDTH 6 0
BBX 6 11 0 -2
BITMAP
00
00
00
00
00
00
00
00
00
50
50
ENDCHAR
STARTCHAR AmSmlEh
ENCODING 1383
SWIDTH 545 0
DWIDTH 6 0
BBX 6 11 0 -2
BITMAP
00
C0
C0
C0
F8
C0
C0
C0
70
18
00
ENDCHAR
STARTCHAR AmSmlYi
ENCODING 1397
SWIDTH 545 0
DWIDTH 6 0
BBX 6 11 0 -2
BITMAP
00
00
00
00
70
30
30
30
30
B0
E0
ENDCHAR
STARTCHAR AmSmlSha
ENCODING 1399
SWIDTH 545 0
DWIDTH 6 0
BBX 6 11 0 -2
BITMAP
00
00
00
00
70
98
18
30
60
C0
78
ENDCHAR
STARTCHAR AmSmlCha
ENCODING 1401
SWIDTH 545 0
DWIDTH 6 0
BBX 6 11 0 -2
BITMAP
00
00
00
00
20
70
30
60
C0
C0
78
ENDCHAR
STARTCHAR AmSmlJheh
ENCODING 1403
SWIDTH 545 0
DWIDTH 6 0
BBX 6 11 0 -2
BITMAP
00
70
B8
D8
D8
70
70
60
C0
C0
78
ENDCHAR
STARTCHAR AmSmlCo
ENCODING 1409
SWIDTH 545 0
DWIDTH 6 0
BBX 6 11 0 -2
BITMAP
00
00
00
00
78
D8
D8
78
18
98
F0
ENDCHAR
STARTCHAR AmSmlKeh
ENCODING 1412
SWIDTH 545 0
DWIDTH 6 0
BBX 6 11 0 -2
BITMAP
00
00
00
00
F0
D8
D8
F0
C0
F0
C0
ENDCHAR
STARTCHAR CombHbHatafQamats
ENCODING 1459
SWIDTH 545 0
DWIDTH 6 0
BBX 6 11 0 -2
BITMAP
00
00
00
00
00
00
00
00
08
E0
48
ENDCHAR
STARTCHAR CombHbSegol
ENCODING 1462
SWIDTH 545 0
DWIDTH 6 0
BBX 6 11 0 -2
BITMAP
00
00
00
00
00
00
00
00
00
88
20
ENDCHAR
STARTCHAR CombHbPatah
ENCODING 1463
SWIDTH 545 0
DWIDTH 6 0
BBX 6 11 0 -2
BITMAP
00
00
00
00
00
00
00
00
00
00
F8
ENDCHAR
STARTCHAR CombHbQamats
ENCODING 1464
SWIDTH 545 0
DWIDTH 6 0
BBX 6 11 0 -2
BITMAP
00
00
00
00
00
00
00
00
00
70
20
ENDCHAR
STARTCHAR CombHbMeteg
ENCODING 1469
SWIDTH 545 0
DWIDTH 6 0
BBX 6 11 0 -2
BITMAP
00
00
00
00
00
00
00
00
20
20
20
ENDCHAR
STARTCHAR ThYoYing
ENCODING 3597
SWIDTH 545 0
DWIDTH 6 0
BBX 6 11 0 -2
BITMAP
00
00
00
00
48
E8
A8
B8
98
08
30
ENDCHAR
STARTCHAR ThDoChada
ENCODING 3598
SWIDTH 545 0
DWIDTH 6 0
BBX 6 11 0 -2
BITMAP
00
00
00
00
70
98
D8
58
D8
18
78
ENDCHAR
STARTCHAR ThToPatak
ENCODING 3599
SWIDTH 545 0
DWIDTH 6 0
BBX 6 11 0 -2
BITMAP
00
00
00
00
70
98
D8
58
98
58
F8
ENDCHAR
STARTCHAR ThThoThan
ENCODING 3600
SWIDTH 545 0
DWIDTH 6 0
BBX 6 11 0 -2
BITMAP
00
00
00
00
F8
F8
10
78
18
A0
F8
ENDCHAR
STARTCHAR ThRu
ENCODING 3620
SWIDTH 545 0
DWIDTH 6 0
BBX 6 11 0 -2
BITMAP
00
00
00
00
70
88
C8
C8
E8
08
08
ENDCHAR
STARTCHAR ThLu
ENCODING 3622
SWIDTH 545 0
DWIDTH 6 0
BBX 6 11 0 -2
BITMAP
00
00
00
00
70
C8
E8
68
E8
08
08
ENDCHAR
STARTCHAR ThSaraU
ENCODING 3640
SWIDTH 545 0
DWIDTH 6 0
BBX 6 11 0 -2
BITMAP
00
00
00
00
00
00
00
00
00
18
08
ENDCHAR
STARTCHAR ThSaraUu
ENCODING 3641
SWIDTH 545 0
DWIDTH 6 0
BBX 6 11 0 -2
BITMAP
00
00
00
00
00
00
00
00
00
68
38
ENDCHAR
STARTCHAR ThPhinthu
ENCODING 3642
SWIDTH 545 0
DWIDTH 6 0
BBX 6 11 0 -2
BITMAP
00
00
00
00
00
00
00
00
00
00
18
ENDCHAR
STARTCHAR ThLakkhangyao
ENCODING 3653
SWIDTH 545 0
DWIDTH 6 0
BBX 6 11 0 -2
BITMAP
00
00
00
00
70
D8
18
18
18
18
18
ENDCHAR
STARTCHAR ThMaiyamok
ENCODING 3654
SWIDTH 545 0
DWIDTH 6 0
BBX 6 11 0 -2
BITMAP
00
00
00
00
50
F8
98
D8
18
18
30
ENDCHAR
STARTCHAR GeGan
ENCODING 4306
SWIDTH 545 0
DWIDTH 6 0
BBX 6 11 0 -2
BITMAP
00
00
00
00
C0
E0
20
70
D8
D8
70
ENDCHAR
STARTCHAR GeDon
ENCODING 4307
SWIDTH 545 0
DWIDTH 6 0
BBX 6 11 0 -2
BITMAP
00
00
00
00
70
D8
D8
70
60
F0
18
ENDCHAR
STARTCHAR GeEn
ENCODING 4308
SWIDTH 545 0
DWIDTH 6 0
BBX 6 11 0 -2
BITMAP
00
00
00
00
70
58
18
18
18
98
F0
ENDCHAR
STARTCHAR GeVin
ENCODING 4309
SWIDTH 545 0
DWIDTH 6 0
BBX 6 11 0 -2
BITMAP
00
00
00
00
70
58
18
70
18
98
F0
ENDCHAR
STARTCHAR GeKan
ENCODING 4313
SWIDTH 545 0
DWIDTH 6 0
BBX 6 11 0 -2
BITMAP
00
00
00
00
18
18
18
70
18
98
F0
ENDCHAR
STARTCHAR GeLas
ENCODING 4314
SWIDTH 545 0
DWIDTH 6 0
BBX 6 11 0 -2
BITMAP
00
00
00
00
70
D8
D8
C0
60
F0
18
ENDCHAR
STARTCHAR GeZhar
ENCODING 4319
SWIDTH 545 0
DWIDTH 6 0
BBX 6 11 0 -2
BITMAP
00
00
00
00
B8
A8
E8
48
08
78
30
ENDCHAR
STARTCHAR GeTar
ENCODING 4322
SWIDTH 545 0
DWIDTH 6 0
BBX 6 11 0 -2
BITMAP
00
00
00
20
50
F8
A8
88
88
D8
70
ENDCHAR
STARTCHAR GeUn
ENCODING 4323
SWIDTH 545 0
DWIDTH 6 0
BBX 6 11 0 -2
BITMAP
00
00
00
00
B0
F8
58
18
98
98
F0
ENDCHAR
STARTCHAR GePhar
ENCODING 4324
SWIDTH 545 0
DWIDTH 6 0
BBX 6 11 0 -2
BITMAP
00
00
00
00
70
A8
E8
50
18
58
70
ENDCHAR
STARTCHAR GeKhar
ENCODING 4325
SWIDTH 545 0
DWIDTH 6 0
BBX 6 11 0 -2
BITMAP
00
08
18
18
18
78
58
18
18
98
F0
ENDCHAR
STARTCHAR GeGhan
ENCODING 4326
SWIDTH 545 0
DWIDTH 6 0
BBX 6 11 0 -2
BITMAP
00
00
00
00
50
F8
A8
88
60
F0
18
ENDCHAR
STARTCHAR GeQar
ENCODING 4327
SWIDTH 545 0
DWIDTH 6 0
BBX 6 11 0 -2
BITMAP
00
00
00
00
D8
D8
D8
78
18
98
F0
ENDCHAR
STARTCHAR GeCan
ENCODING 4330
SWIDTH 545 0
DWIDTH 6 0
BBX 6 11 0 -2
BITMAP
00
00
00
00
B0
98
98
B0
98
98
70
ENDCHAR
STARTCHAR GeCil
ENCODING 4332
SWIDTH 545 0
DWIDTH 6 0
BBX 6 11 0 -2
BITMAP
00
50
F8
A8
80
F8
50
50
70
20
20
ENDCHAR
STARTCHAR GeChar
ENCODING 4333
SWIDTH 545 0
DWIDTH 6 0
BBX 6 11 0 -2
BITMAP
00
40
60
30
18
38
58
38
18
98
F0
ENDCHAR
STARTCHAR GeWe
ENCODING 4339
SWIDTH 545 0
DWIDTH 6 0
BBX 6 11 0 -2
BITMAP
00
00
00
00
78
18
30
70
18
98
F0
ENDCHAR
STARTCHAR GeHar
ENCODING 4340
SWIDTH 545 0
DWIDTH 6 0
BBX 6 11 0 -2
BITMAP
00
30
60
60
38
18
30
70
18
98
F0
ENDCHAR
STARTCHAR GeFi
ENCODING 4342
SWIDTH 545 0
DWIDTH 6 0
BBX 6 11 0 -2
BITMAP
00
00
00
50
F8
A8
A8
B8
30
20
60
ENDCHAR
STARTCHAR GeYn
ENCODING 4343
SWIDTH 545 0
DWIDTH 6 0
BBX 6 11 0 -2
BITMAP
00
00
00
00
F0
98
18
70
C0
C8
78
ENDCHAR
STARTCHAR GeElifi
ENCODING 4344
SWIDTH 545 0
DWIDTH 6 0
BBX 6 11 0 -2
BITMAP
00
00
00
00
D8
D8
D8
F0
C0
C8
78
ENDCHAR
STARTCHAR GeGanTrnd
ENCODING 4345
SWIDTH 545 0
DWIDTH 6 0
BBX 6 11 0 -2
BITMAP
00
00
00
00
70
D8
D8
70
20
38
18
ENDCHAR
STARTCHAR LtCapALring
ENCODING 7680
SWIDTH 545 0
DWIDTH 6 0
BBX 6 11 0 -2
BITMAP
00
20
60
70
50
F8
D8
98
A8
50
20
ENDCHAR
STARTCHAR LtSmlALring
ENCODING 7681
SWIDTH 545 0
DWIDTH 6 0
BBX 6 11 0 -2
BITMAP
00
00
00
70
18
78
D8
D8
78
50
20
ENDCHAR
STARTCHAR LtCapBLdot
ENCODING 7684
SWIDTH 545 0
DWIDTH 6 0
BBX 6 11 0 -2
BITMAP
00
F0
D8
D8
F0
D8
D8
D8
F0
00
60
ENDCHAR
STARTCHAR LtSmlBLdot
ENCODING 7685
SWIDTH 545 0
DWIDTH 6 0
BBX 6 11 0 -2
BITMAP
00
C0
C0
F0
D8
D8
D8
D8
F0
00
60
ENDCHAR
STARTCHAR LtCapBLmacron
ENCODING 7686
SWIDTH 545 0
DWIDTH 6 0
BBX 6 11 0 -2
BITMAP
00
F0
D8
D8
F0
D8
D8
D8
F0
00
F8
ENDCHAR
STARTCHAR LtSmlBLmacron
ENCODING 7687
SWIDTH 545 0
DWIDTH 6 0
BBX 6 11 0 -2
BITMAP
00
C0
C0
F0
D8
D8
D8
D8
F0
00
F8
ENDCHAR
STARTCHAR LtCapDLdot
ENCODING 7692
SWIDTH 545 0
DWIDTH 6 0
BBX 6 11 0 -2
BITMAP
00
E0
D0
D8
D8
D8
D8
D0
E0
00
60
ENDCHAR
STARTCHAR LtSmlDLdot
ENCODING 7693
SWIDTH 545 0
DWIDTH 6 0
BBX 6 11 0 -2
BITMAP
00
18
18
78
D8
D8
D8
D8
78
00
30
ENDCHAR
STARTCHAR LtCapDLmacron
ENCODING 7694
SWIDTH 545 0
DWIDTH 6 0
BBX 6 11 0 -2
BITMAP
00
E0
D0
D8
D8
D8
D8
D0
E0
00
F8
ENDCHAR
STARTCHAR LtSmlDLmacron
ENCODING 7695
SWIDTH 545 0
DWIDTH 6 0
BBX 6 11 0 -2
BITMAP
00
18
18
78
D8
D8
D8
D8
78
00
F8
ENDCHAR
STARTCHAR LtCapDLcircum
ENCODING 7698
SWIDTH 545 0
DWIDTH 6 0
BBX 6 11 0 -2
BITMAP
00
E0
D0
D8
D8
D8
D8
D0
E0
60
B0
ENDCHAR
STARTCHAR LtSmlDLcircum
ENCODING 7699
SWIDTH 545 0
DWIDTH 6 0
BBX 6 11 0 -2
BITMAP
00
18
18
78
D8
D8
D8
D8
78
30
58
ENDCHAR
STARTCHAR LtCapELcircum
ENCODING 7704
SWIDTH 545 0
DWIDTH 6 0
BBX 6 11 0 -2
BITMAP
00
F8
C8
C0
F0
C0
C0
C8
F8
30
58
ENDCHAR
STARTCHAR LtSmlELcircum
ENCODING 7705
SWIDTH 545 0
DWIDTH 6 0
BBX 6 11 0 -2
BITMAP
00
00
00
70
D8
F8
C0
C8
78
30
58
ENDCHAR
STARTCHAR LtCapELtilde
ENCODING 7706
SWIDTH 545 0
DWIDTH 6 0
BBX 6 11 0 -2
BITMAP
00
F8
C8
C0
F0
C0
C0
C8
F8
48
B0
ENDCHAR
STARTCHAR LtSmlELtilde
ENCODING 7707
SWIDTH 545 0
DWIDTH 6 0
BBX 6 11 0 -2
BITMAP
00
00
00
70
D8
F8
C0
C8
78
48
B0
ENDCHAR
STARTCHAR LtCapHLdot
ENCODING 7716
SWIDTH 545 0
DWIDTH 6 0
BBX 6 11 0 -2
BITMAP
00
D8
D8
D8
F8
D8
D8
D8
D8
00
60
ENDCHAR
STARTCHAR LtSmlHLdot
ENCODING 7717
SWIDTH 545 0
DWIDTH 6 0
BBX 6 11 0 -2
BITMAP
00
C0
C0
F0
D8
D8
D8
D8
D8
00
60
ENDCHAR
STARTCHAR LtCapHLbreve
ENCODING 7722
SWIDTH 545 0
DWIDTH 6 0
BBX 6 11 0 -2
BITMAP
00
D8
D8
D8
F8
D8
D8
D8
88
D0
60
ENDCHAR
STARTCHAR LtSmlHLbreve
ENCODING 7723
SWIDTH 545 0
DWIDTH 6 0
BBX 6 11 0 -2
BITMAP
00
C0
C0
F0
D8
D8
D8
D8
88
D0
60
ENDCHAR
STARTCHAR LtCapILtilde
ENCODING 7724
SWIDTH 545 0
DWIDTH 6 0
BBX 6 11 0 -2
BITMAP
00
78
30
30
30
30
30
30
78
48
B0
ENDCHAR
STARTCHAR LtSmlILtilde
ENCODING 7725
SWIDTH 545 0
DWIDTH 6 0
BBX 6 11 0 -2
BITMAP
30
30
00
70
30
30
30
30
78
48
B0
ENDCHAR
STARTCHAR LtCapKLdot
ENCODING 7730
SWIDTH 545 0
DWIDTH 6 0
BBX 6 11 0 -2
BITMAP
00
C8
D8
D0
E0
F0
D8
D8
D8
00
60
ENDCHAR
STARTCHAR LtSmlKLdot
ENCODING 7731
SWIDTH 545 0
DWIDTH 6 0
BBX 6 11 0 -2
BITMAP
00
C0
C0
D8
D0
E0
F0
D8
D8
00
60
ENDCHAR
STARTCHAR LtCapKLmacron
ENCODING 7732
SWIDTH 545 0
DWIDTH 6 0
BBX 6 11 0 -2
BITMAP
00
C8
D8
D0
E0
F0
D8
D8
D8
00
F8
ENDCHAR
STARTCHAR LtSmlKLmacron
ENCODING 7733
SWIDTH 545 0
DWIDTH 6 0
BBX 6 11 0 -2
BITMAP
00
C0
C0
D8
D0
E0
F0
D8
D8
00
F8
ENDCHAR
STARTCHAR LtCapLLdot
ENCODING 7734
SWIDTH 545 0
DWIDTH 6 0
BBX 6 11 0 -2
BITMAP
00
C0
C0
C0
C0
C0
C0
C8
F8
00
60
ENDCHAR
STARTCHAR LtSmlLLdot
ENCODING 7735
SWIDTH 545 0
DWIDTH 6 0
BBX 6 11 0 -2
BITMAP
00
70
30
30
30
30
30
30
78
00
30
ENDCHAR
STARTCHAR LtCapLMacronLdot
ENCODING 7736
SWIDTH 545 0
DWIDTH 6 0
BBX 6 11 0 -2
BITMAP
F8
00
C0
C0
C0
C0
C0
C8
F8
00
60
ENDCHAR
STARTCHAR LtSmlLMacronLdot
ENCODING 7737
SWIDTH 545 0
DWIDTH 6 0
BBX 6 11 0 -2
BITMAP
F8
00
70
30
30
30
30
30
78
00
30
ENDCHAR
STARTCHAR LtCapLLmacron
ENCODING 7738
SWIDTH 545 0
DWIDTH 6 0
BBX 6 11 0 -2
BITMAP
00
C0
C0
C0
C0
C0
C0
C8
F8
00
F8
ENDCHAR
STARTCHAR LtSmlLLmacron
ENCODING 7739
SWIDTH 545 0
DWIDTH 6 0
BBX 6 11 0 -2
BITMAP
00
70
30
30
30
30
30
30
78
00
78
ENDCHAR
STARTCHAR LtCapLLcircum
ENCODING 7740
SWIDTH 545 0
DWIDTH 6 0
BBX 6 11 0 -2
BITMAP
00
C0
C0
C0
C0
C0
C0
C8
F8
30
58
ENDCHAR
STARTCHAR LtSmlLLcircum
ENCODING 7741
SWIDTH 545 0
DWIDTH 6 0
BBX 6 11 0 -2
BITMAP
00
70
30
30
30
30
30
30
78
30
58
ENDCHAR
STARTCHAR LtCapMLdot
ENCODING 7746
SWIDTH 545 0
DWIDTH 6 0
BBX 6 11 0 -2
BITMAP
00
88
D8
F8
F8
A8
A8
88
88
00
60
ENDCHAR
STARTCHAR LtSmlMLdot
ENCODING 7747
SWIDTH 545 0
DWIDTH 6 0
BBX 6 11 0 -2
BITMAP
00
00
00
F0
F8
A8
A8
A8
A8
00
60
ENDCHAR
STARTCHAR LtCapNLdot
ENCODING 7750
SWIDTH 545 0
DWIDTH 6 0
BBX 6 11 0 -2
BITMAP
00
C8
C8
E8
E8
B8
B8
98
98
00
60
ENDCHAR
STARTCHAR LtSmlNLdot
ENCODING 7751
SWIDTH 545 0
DWIDTH 6 0
BBX 6 11 0 -2
BITMAP
00
00
00
F0
D8
D8
D8
D8
D8
00
60
ENDCHAR
STARTCHAR LtCapNLmacron
ENCODING 7752
SWIDTH 545 0
DWIDTH 6 0
BBX 6 11 0 -2
BITMAP
00
C8
C8
E8
E8
B8
B8
98
98
00
F8
ENDCHAR
STARTCHAR LtSmlNLmacron
ENCODING 7753
SWIDTH 545 0
DWIDTH 6 0
BBX 6 11 0 -2
BITMAP
00
00
00
F0
D8
D8
D8
D8
D8
00
F8
ENDCHAR
STARTCHAR LtCapNLcircum
ENCODING 7754
SWIDTH 545 0
DWIDTH 6 0
BBX 6 11 0 -2
BITMAP
00
C8
C8
E8
E8
B8
B8
98
98
60
B0
ENDCHAR
STARTCHAR LtSmlNLcircum
ENCODING 7755
SWIDTH 545 0
DWIDTH 6 0
BBX 6 11 0 -2
BITMAP
00
00
00
F0
D8
D8
D8
D8
D8
30
58
ENDCHAR
STARTCHAR LtCapRLdot
ENCODING 7770
SWIDTH 545 0
DWIDTH 6 0
BBX 6 11 0 -2
BITMAP
00
F0
D8
D8
F0
D0
D8
D8
D8
00
60
ENDCHAR
STARTCHAR LtSmlRLdot
ENCODING 7771
SWIDTH 545 0
DWIDTH 6 0
BBX 6 11 0 -2
BITMAP
00
00
00
F8
68
60
60
60
60
00
60
ENDCHAR
STARTCHAR LtCapRMacronLdot
ENCODING 7772
SWIDTH 545 0
DWIDTH 6 0
BBX 6 11 0 -2
BITMAP
F8
00
F0
D8
D8
F0
D0
D8
D8
00
60
ENDCHAR
STARTCHAR LtSmlRMacronLdot
ENCODING 7773
SWIDTH 545 0
DWIDTH 6 0
BBX 6 11 0 -2
BITMAP
00
78
00
F8
68
60
60
60
60
00
60
ENDCHAR
STARTCHAR LtCapRLmacron
ENCODING 7774
SWIDTH 545 0
DWIDTH 6 0
BBX 6 11 0 -2
BITMAP
00
F0
D8
D8
F0
D0
D8
D8
D8
00
F8
ENDCHAR
STARTCHAR LtSmlRLmacron
ENCODING 7775
SWIDTH 545 0
DWIDTH 6 0
BBX 6 11 0 -2
BITMAP
00
00
00
F8
68
60
60
60
60
00
78
ENDCHAR
STARTCHAR LtCapSLdot
ENCODING 7778
SWIDTH 545 0
DWIDTH 6 0
BBX 6 11 0 -2
BITMAP
00
78
C8
C0
F0
78
18
98
F0
00
60
ENDCHAR
STARTCHAR LtSmlSLdot
ENCODING 7779
SWIDTH 545 0
DWIDTH 6 0
BBX 6 11 0 -2
BITMAP
00
00
00
78
C0
F0
78
18
F0
00
60
ENDCHAR
STARTCHAR LtCapSDotLdot
ENCODING 7784
SWIDTH 545 0
DWIDTH 6 0
BBX 6 11 0 -2
BITMAP
30
00
78
C8
E0
70
38
98
F0
00
60
ENDCHAR
STARTCHAR LtSmlSDotLdot
ENCODING 7785
SWIDTH 545 0
DWIDTH 6 0
BBX 6 11 0 -2
BITMAP
30
30
00
78
C0
F0
78
18
F0
00
60
ENDCHAR
STARTCHAR LtCapTLdot
ENCODING 7788
SWIDTH 545 0
DWIDTH 6 0
BBX 6 11 0 -2
BITMAP
00
FC
B0
30
30
30
30
30
30
00
30
ENDCHAR
STARTCHAR LtSmlTLdot
ENCODING 7789
SWIDTH 545 0
DWIDTH 6 0
BBX 6 11 0 -2
BITMAP
00
20
60
F8
60
60
60
68
38
00
30
ENDCHAR
STARTCHAR LtCapTLmacron
ENCODING 7790
SWIDTH 545 0
DWIDTH 6 0
BBX 6 11 0 -2
BITMAP
00
FC
B0
30
30
30
30
30
30
00
F8
ENDCHAR
STARTCHAR LtSmlTLmacron
ENCODING 7791
SWIDTH 545 0
DWIDTH 6 0
BBX 6 11 0 -2
BITMAP
00
20
60
F8
60
60
60
68
38
00
F8
ENDCHAR
STARTCHAR LtCapTLcircum
ENCODING 7792
SWIDTH 545 0
DWIDTH 6 0
BBX 6 11 0 -2
BITMAP
00
FC
B0
30
30
30
30
30
30
30
58
ENDCHAR
STARTCHAR LtSmlTLcircum
ENCODING 7793
SWIDTH 545 0
DWIDTH 6 0
BBX 6 11 0 -2
BITMAP
00
20
60
F8
60
60
60
68
38
30
58
ENDCHAR
STARTCHAR LtCapULdrss
ENCODING 7794
SWIDTH 545 0
DWIDTH 6 0
BBX 6 11 0 -2
BITMAP
00
D8
D8
D8
D8
D8
D8
D8
70
00
D8
ENDCHAR
STARTCHAR LtSmlULdrss
ENCODING 7795
SWIDTH 545 0
DWIDTH 6 0
BBX 6 11 0 -2
BITMAP
00
00
00
D8
D8
D8
D8
D8
78
00
D8
ENDCHAR
STARTCHAR LtCapULtilde
ENCODING 7796
SWIDTH 545 0
DWIDTH 6 0
BBX 6 11 0 -2
BITMAP
00
D8
D8
D8
D8
D8
D8
D8
70
48
B0
ENDCHAR
STARTCHAR LtSmlULtilde
ENCODING 7797
SWIDTH 545 0
DWIDTH 6 0
BBX 6 11 0 -2
BITMAP
00
00
00
D8
D8
D8
D8
D8
78
48
B0
ENDCHAR
STARTCHAR LtCapULcircum
ENCODING 7798
SWIDTH 545 0
DWIDTH 6 0
BBX 6 11 0 -2
BITMAP
00
D8
D8
D8
D8
D8
D8
D8
70
30
58
ENDCHAR
STARTCHAR LtSmlULcircum
ENCODING 7799
SWIDTH 545 0
DWIDTH 6 0
BBX 6 11 0 -2
BITMAP
00
00
00
D8
D8
D8
D8
D8
78
30
58
ENDCHAR
STARTCHAR LtCapVLdot
ENCODING 7806
SWIDTH 545 0
DWIDTH 6 0
BBX 6 11 0 -2
BITMAP
00
C8
C8
C8
D8
58
70
30
20
00
60
ENDCHAR
STARTCHAR LtSmlVLdot
ENCODING 7807
SWIDTH 545 0
DWIDTH 6 0
BBX 6 11 0 -2
BITMAP
00
00
00
C8
C8
70
70
30
20
00
60
ENDCHAR
STARTCHAR LtCapWLdot
ENCODING 7816
SWIDTH 545 0
DWIDTH 6 0
BBX 6 11 0 -2
BITMAP
00
88
88
A8
A8
F8
F8
50
50
00
60
ENDCHAR
STARTCHAR LtSmlWLdot
ENCODING 7817
SWIDTH 545 0
DWIDTH 6 0
BBX 6 11 0 -2
BITMAP
00
00
00
88
A8
A8
F8
70
50
00
60
ENDCHAR
STARTCHAR LtCapZLdot
ENCODING 7826
SWIDTH 545 0
DWIDTH 6 0
BBX 6 11 0 -2
BITMAP
00
F8
98
30
30
60
60
C8
F8
00
60
ENDCHAR
STARTCHAR LtSmlZLdot
ENCODING 7827
SWIDTH 545 0
DWIDTH 6 0
BBX 6 11 0 -2
BITMAP
00
00
00
F8
B8
30
60
E8
F8
00
60
ENDCHAR
STARTCHAR LtCapZLmacron
ENCODING 7828
SWIDTH 545 0
DWIDTH 6 0
BBX 6 11 0 -2
BITMAP
00
F8
98
30
30
60
60
C8
F8
00
F8
ENDCHAR
STARTCHAR LtSmlZLmacron
ENCODING 7829
SWIDTH 545 0
DWIDTH 6 0
BBX 6 11 0 -2
BITMAP
00
00
00
F8
B8
30
60
E8
F8
00
F8
ENDCHAR
STARTCHAR LtSmlHLmacron
ENCODING 7830
SWIDTH 545 0
DWIDTH 6 0
BBX 6 11 0 -2
BITMAP
00
C0
C0
F0
D8
D8
D8
D8
D8
00
F8
ENDCHAR
STARTCHAR LtCapALdot
ENCODING 7840
SWIDTH 545 0
DWIDTH 6 0
BBX 6 11 0 -2
BITMAP
00
20
60
70
50
F8
D8
98
98
00
60
ENDCHAR
STARTCHAR LtSmlALdot
ENCODING 7841
SWIDTH 545 0
DWIDTH 6 0
BBX 6 11 0 -2
BITMAP
00
00
00
70
18
78
D8
D8
78
00
30
ENDCHAR
STARTCHAR LtCapACircumLdot
ENCODING 7852
SWIDTH 545 0
DWIDTH 6 0
BBX 6 11 0 -2
BITMAP
30
58
20
70
50
F8
D8
98
98
00
60
ENDCHAR
STARTCHAR LtSmlACircumLdot
ENCODING 7853
SWIDTH 545 0
DWIDTH 6 0
BBX 6 11 0 -2
BITMAP
30
58
00
70
18
78
D8
D8
78
00
30
ENDCHAR
STARTCHAR LtCapABreveLdot
ENCODING 7862
SWIDTH 545 0
DWIDTH 6 0
BBX 6 11 0 -2
BITMAP
D0
60
20
70
50
F8
D8
98
98
00
60
ENDCHAR
STARTCHAR LtSmlABreveLdot
ENCODING 7863
SWIDTH 545 0
DWIDTH 6 0
BBX 6 11 0 -2
BITMAP
68
30
00
70
18
78
D8
D8
78
00
30
ENDCHAR
STARTCHAR LtCapELdot
ENCODING 7864
SWIDTH 545 0
DWIDTH 6 0
BBX 6 11 0 -2
BITMAP
00
F8
C8
C0
F0
C0
C0
C8
F8
00
60
ENDCHAR
STARTCHAR LtSmlELdot
ENCODING 7865
SWIDTH 545 0
DWIDTH 6 0
BBX 6 11 0 -2
BITMAP
00
00
00
70
D8
F8
C0
C8
78
00
30
ENDCHAR
STARTCHAR LtCapECircumLdot
ENCODING 7878
SWIDTH 545 0
DWIDTH 6 0
BBX 6 11 0 -2
BITMAP
30
58
F8
C8
C0
F0
C0
C8
F8
00
60
ENDCHAR
STARTCHAR LtSmlECircumLdot
ENCODING 7879
SWIDTH 545 0
DWIDTH 6 0
BBX 6 11 0 -2
BITMAP
30
58
00
70
D8
F8
C0
C8
78
00
30
ENDCHAR
STARTCHAR LtCapILdot
ENCODING 7882
SWIDTH 545 0
DWIDTH 6 0
BBX 6 11 0 -2
BITMAP
00
78
30
30
30
30
30
30
78
00
30
ENDCHAR
STARTCHAR LtSmlILdot
ENCODING 7883
SWIDTH 545 0
DWIDTH 6 0
BBX 6 11 0 -2
BITMAP
30
30
00
70
30
30
30
30
78
00
30
ENDCHAR
STARTCHAR LtCapOLdot
ENCODING 7884
SWIDTH 545 0
DWIDTH 6 0
BBX 6 11 0 -2
BITMAP
00
70
D8
D8
D8
D8
D8
D8
70
00
60
ENDCHAR
STARTCHAR LtSmlOLdot
ENCODING 7885
SWIDTH 545 0
DWIDTH 6 0
BBX 6 11 0 -2
BITMAP
00
00
00
70
D8
D8
D8
D8
70
00
60
ENDCHAR
STARTCHAR LtCapOCircumLdot
ENCODING 7896
SWIDTH 545 0
DWIDTH 6 0
BBX 6 11 0 -2
BITMAP
30
58
70
D8
D8
D8
D8
D8
70
00
60
ENDCHAR
STARTCHAR LtSmlOCircumLdot
ENCODING 7897
SWIDTH 545 0
DWIDTH 6 0
BBX 6 11 0 -2
BITMAP
30
58
00
70
D8
D8
D8
D8
70
00
60
ENDCHAR
STARTCHAR LtCapOHornLdot
ENCODING 7906
SWIDTH 545 0
DWIDTH 6 0
BBX 6 11 0 -2
BITMAP
0C
7C
D8
D8
D8
D8
D8
D8
70
00
60
ENDCHAR
STARTCHAR LtSmlOHornLdot
ENCODING 7907
SWIDTH 545 0
DWIDTH 6 0
BBX 6 11 0 -2
BITMAP
00
00
0C
7C
D8
D8
D8
D8
70
00
60
ENDCHAR
STARTCHAR LtCapULdot
ENCODING 7908
SWIDTH 545 0
DWIDTH 6 0
BBX 6 11 0 -2
BITMAP
00
D8
D8
D8
D8
D8
D8
D8
70
00
60
ENDCHAR
STARTCHAR LtSmlULdot
ENCODING 7909
SWIDTH 545 0
DWIDTH 6 0
BBX 6 11 0 -2
BITMAP
00
00
00
D8
D8
D8
D8
D8
78
00
30
ENDCHAR
STARTCHAR LtCapUHornLdot
ENCODING 7920
SWIDTH 545 0
DWIDTH 6 0
BBX 6 11 0 -2
BITMAP
0C
DC
D8
D8
D8
D8
D8
D8
70
00
60
ENDCHAR
STARTCHAR LtSmlUHornLdot
ENCODING 7921
SWIDTH 545 0
DWIDTH 6 0
BBX 6 11 0 -2
BITMAP
00
00
0C
DC
D8
D8
D8
D8
78
00
30
ENDCHAR
STARTCHAR LtCapYLdot
ENCODING 7924
SWIDTH 545 0
DWIDTH 6 0
BBX 6 11 0 -2
BITMAP
00
C4
C8
68
70
30
30
30
30
00
30
ENDCHAR
STARTCHAR LtSmlYLdot
ENCODING 7925
SWIDTH 545 0
DWIDTH 6 0
BBX 6 11 0 -2
BITMAP
00
00
00
C8
C8
68
70
30
10
A8
E8
ENDCHAR
STARTCHAR MArrowU
ENCODING 8593
SWIDTH 545 0
DWIDTH 6 0
BBX 6 11 0 -2
BITMAP
30
78
30
30
30
30
30
30
30
30
00
ENDCHAR
STARTCHAR MArrowD
ENCODING 8595
SWIDTH 545 0
DWIDTH 6 0
BBX 6 11 0 -2
BITMAP
30
30
30
30
30
30
30
30
78
30
00
ENDCHAR
STARTCHAR MArrowUD
ENCODING 8597
SWIDTH 545 0
DWIDTH 6 0
BBX 6 11 0 -2
BITMAP
30
78
30
30
30
30
30
30
78
30
00
ENDCHAR
STARTCHAR MArrowLU
ENCODING 8598
SWIDTH 545 0
DWIDTH 6 0
BBX 6 11 0 -2
BITMAP
80
E0
F0
E0
E0
30
30
18
18
08
00
ENDCHAR
STARTCHAR MArrowRU
ENCODING 8599
SWIDTH 545 0
DWIDTH 6 0
BBX 6 11 0 -2
BITMAP
08
38
78
38
38
60
60
C0
C0
80
00
ENDCHAR
STARTCHAR MArrowRD
ENCODING 8600
SWIDTH 545 0
DWIDTH 6 0
BBX 6 11 0 -2
BITMAP
80
C0
C0
60
60
38
38
78
38
08
00
ENDCHAR
STARTCHAR MArrowLD
ENCODING 8601
SWIDTH 545 0
DWIDTH 6 0
BBX 6 11 0 -2
BITMAP
08
18
18
30
30
E0
E0
F0
E0
80
00
ENDCHAR
STARTCHAR MArrowUu
ENCODING 8607
SWIDTH 545 0
DWIDTH 6 0
BBX 6 11 0 -2
BITMAP
30
78
30
78
30
30
30
30
30
30
00
ENDCHAR
STARTCHAR MArrowDd
ENCODING 8609
SWIDTH 545 0
DWIDTH 6 0
BBX 6 11 0 -2
BITMAP
30
30
30
30
30
30
78
30
78
30
00
ENDCHAR
STARTCHAR MArrowBarU
ENCODING 8613
SWIDTH 545 0
DWIDTH 6 0
BBX 6 11 0 -2
BITMAP
30
78
30
30
30
30
30
30
30
78
00
ENDCHAR
STARTCHAR MArrowBarD
ENCODING 8615
SWIDTH 545 0
DWIDTH 6 0
BBX 6 11 0 -2
BITMAP
78
30
30
30
30
30
30
30
78
30
00
ENDCHAR
STARTCHAR MArrowUDBase
ENCODING 8616
SWIDTH 545 0
DWIDTH 6 0
BBX 6 11 0 -2
BITMAP
30
78
30
30
30
30
30
78
30
78
00
ENDCHAR
STARTCHAR MHarpoonUr
ENCODING 8638
SWIDTH 545 0
DWIDTH 6 0
BBX 6 11 0 -2
BITMAP
30
38
30
30
30
30
30
30
30
30
00
ENDCHAR
STARTCHAR MHarpoonUl
ENCODING 8639
SWIDTH 545 0
DWIDTH 6 0
BBX 6 11 0 -2
BITMAP
30
70
30
30
30
30
30
30
30
30
00
ENDCHAR
STARTCHAR MHarpoonDr
ENCODING 8642
SWIDTH 545 0
DWIDTH 6 0
BBX 6 11 0 -2
BITMAP
30
30
30
30
30
30
30
30
38
30
00
ENDCHAR
STARTCHAR MHarpoonDl
ENCODING 8643
SWIDTH 545 0
DWIDTH 6 0
BBX 6 11 0 -2
BITMAP
30
30
30
30
30
30
30
30
70
30
00
ENDCHAR
STARTCHAR MArrowULeftD
ENCODING 8645
SWIDTH 545 0
DWIDTH 6 0
BBX 6 11 0 -2
BITMAP
D8
F8
D8
D8
D8
D8
D8
D8
FC
D8
00
ENDCHAR
STARTCHAR MArrowULeftU
ENCODING 8648
SWIDTH 545 0
DWIDTH 6 0
BBX 6 11 0 -2
BITMAP
D8
FC
D8
D8
D8
D8
D8
D8
D8
D8
00
ENDCHAR
STARTCHAR MArrowDLeftD
ENCODING 8650
SWIDTH 545 0
DWIDTH 6 0
BBX 6 11 0 -2
BITMAP
D8
D8
D8
D8
D8
D8
D8
D8
FC
D8
00
ENDCHAR
STARTCHAR MArrow2U
ENCODING 8657
SWIDTH 545 0
DWIDTH 6 0
BBX 6 11 0 -2
BITMAP
20
70
F8
50
50
50
50
50
50
50
00
ENDCHAR
STARTCHAR MArrow2D
ENCODING 8659
SWIDTH 545 0
DWIDTH 6 0
BBX 6 11 0 -2
BITMAP
50
50
50
50
50
50
50
F8
70
20
00
ENDCHAR
STARTCHAR MArrow2UD
ENCODING 8661
SWIDTH 545 0
DWIDTH 6 0
BBX 6 11 0 -2
BITMAP
20
70
F8
50
50
50
50
F8
70
20
00
ENDCHAR
STARTCHAR PCurlyBrackLTRB
ENCODING 9136
SWIDTH 545 0
DWIDTH 6 0
BBX 6 11 0 -2
BITMAP
18
30
30
30
30
30
30
30
30
30
60
ENDCHAR
STARTCHAR PCurlyBrackLBRT
ENCODING 9137
SWIDTH 545 0
DWIDTH 6 0
BBX 6 11 0 -2
BITMAP
60
30
30
30
30
30
30
30
30
30
18
ENDCHAR
STARTCHAR MSumT
ENCODING 9138
SWIDTH 545 0
DWIDTH 6 0
BBX 6 11 0 -2
BITMAP
F8
C8
C0
60
60
60
30
30
30
18
18
ENDCHAR
STARTCHAR MRootB
ENCODING 9143
SWIDTH 545 0
DWIDTH 6 0
BBX 6 11 0 -2
BITMAP
30
30
30
30
30
B0
B0
70
70
30
30
ENDCHAR
STARTCHAR LtSmlATrndLinvbreve
ENCODING 57350
SWIDTH 545 0
DWIDTH 6 0
BBX 6 11 0 -2
BITMAP
00
00
00
F0
D8
D8
F0
C0
70
60
B0
ENDCHAR
STARTCHAR LtCapCLdot
ENCODING 57356
SWIDTH 545 0
DWIDTH 6 0
BBX 6 11 0 -2
BITMAP
00
78
C8
C0
C0
C0
C0
C8
78
00
30
ENDCHAR
STARTCHAR LtSmlCLdot
ENCODING 57357
SWIDTH 545 0
DWIDTH 6 0
BBX 6 11 0 -2
BITMAP
00
00
00
78
C8
C0
C0
C8
78
00
30
ENDCHAR
STARTCHAR LtCapCCaronLdot
ENCODING 57358
SWIDTH 545 0
DWIDTH 6 0
BBX 6 11 0 -2
BITMAP
68
30
78
C8
C0
C0
C0
C8
78
00
30
ENDCHAR
STARTCHAR LtSmlCCaronLdot
ENCODING 57359
SWIDTH 545 0
DWIDTH 6 0
BBX 6 11 0 -2
BITMAP
68
30
00
78
C8
C0
C0
C8
78
00
30
ENDCHAR
STARTCHAR LtCapELmacron
ENCODING 57370
SWIDTH 545 0
DWIDTH 6 0
BBX 6 11 0 -2
BITMAP
00
F8
C8
C0
F0
C0
C0
C8
F8
00
F8
ENDCHAR
STARTCHAR LtSmlELmacron
ENCODING 57371
SWIDTH 545 0
DWIDTH 6 0
BBX 6 11 0 -2
BITMAP
00
00
00
70
D8
F8
C0
C8
78
00
F8
ENDCHAR
STARTCHAR LtCapEAcuteLdot
ENCODING 57372
SWIDTH 545 0
DWIDTH 6 0
BBX 6 11 0 -2
BITMAP
30
60
F8
C8
C0
F0
C0
C8
F8
00
60
ENDCHAR
STARTCHAR LtSmlEAcuteLdot
ENCODING 57373
SWIDTH 545 0
DWIDTH 6 0
BBX 6 11 0 -2
BITMAP
18
30
00
70
D8
F8
C0
C8
78
00
30
ENDCHAR
STARTCHAR LtCapEGraveLdot
ENCODING 57376
SWIDTH 545 0
DWIDTH 6 0
BBX 6 11 0 -2
BITMAP
60
30
F8
C8
C0
F0
C0
C8
F8
00
60
ENDCHAR
STARTCHAR LtSmlEGraveLdot
ENCODING 57377
SWIDTH 545 0
DWIDTH 6 0
BBX 6 11 0 -2
BITMAP
60
30
00
70
D8
F8
C0
C8
78
00
30
ENDCHAR
STARTCHAR LtCapGHLmacron
ENCODING 57393
SWIDTH 545 0
DWIDTH 6 0
BBX 6 11 0 -2
BITMAP
00
68
E8
A8
B8
F8
E8
E8
68
00
F8
ENDCHAR
STARTCHAR LtMixGHLmacron
ENCODING 57394
SWIDTH 545 0
DWIDTH 6 0
BBX 6 11 0 -2
BITMAP
00
60
E0
B0
B8
E8
E8
E8
68
00
F8
ENDCHAR
STARTCHAR LtSmlGHLmacron
ENCODING 57395
SWIDTH 545 0
DWIDTH 6 0
BBX 6 11 0 -2
BITMAP
00
20
20
70
F8
A8
A8
E8
68
C0
F8
ENDCHAR
STARTCHAR LtCapHLmacron
ENCODING 57396
SWIDTH 545 0
DWIDTH 6 0
BBX 6 11 0 -2
BITMAP
00
D8
D8
D8
F8
D8
D8
D8
D8
00
F8
ENDCHAR
STARTCHAR LtSmlILinvbreve
ENCODING 57397
SWIDTH 545 0
DWIDTH 6 0
BBX 6 11 0 -2
BITMAP
30
30
00
70
30
30
30
30
78
30
58
ENDCHAR
STARTCHAR LtCapKHLmacron
ENCODING 57405
SWIDTH 545 0
DWIDTH 6 0
BBX 6 11 0 -2
BITMAP
00
A8
E8
E8
B8
F8
E8
E8
A8
00
F8
ENDCHAR
STARTCHAR LtMixKHLmacron
ENCODING 57406
SWIDTH 545 0
DWIDTH 6 0
BBX 6 11 0 -2
BITMAP
00
A0
E0
F0
B8
E8
E8
E8
A8
00
F8
ENDCHAR
STARTCHAR LtSmlKHLmacron
ENCODING 57407
SWIDTH 545 0
DWIDTH 6 0
BBX 6 11 0 -2
BITMAP
00
A0
A0
F0
F8
A8
E8
E8
A8
00
F8
ENDCHAR
STARTCHAR LtSmlLLring
ENCODING 57409
SWIDTH 545 0
DWIDTH 6 0
BBX 6 11 0 -2
BITMAP
00
70
30
30
30
30
30
30
78
50
20
ENDCHAR
STARTCHAR LtSmlLMacronLring
ENCODING 57412
SWIDTH 545 0
DWIDTH 6 0
BBX 6 11 0 -2
BITMAP
F8
00
70
30
30
30
30
30
78
50
20
ENDCHAR
STARTCHAR LtCapOLmacron
ENCODING 57426
SWIDTH 545 0
DWIDTH 6 0
BBX 6 11 0 -2
BITMAP
00
70
D8
D8
D8
D8
D8
D8
70
00
F8
ENDCHAR
STARTCHAR LtSmlOLmacron
ENCODING 57427
SWIDTH 545 0
DWIDTH 6 0
BBX 6 11 0 -2
BITMAP
00
00
00
70
D8
D8
D8
D8
70
00
F8
ENDCHAR
STARTCHAR LtCapOAcuteLdot
ENCODING 57428
SWIDTH 545 0
DWIDTH 6 0
BBX 6 11 0 -2
BITMAP
18
30
70
D8
D8
D8
D8
D8
70
00
60
ENDCHAR
STARTCHAR LtSmlOAcuteLdot
ENCODING 57429
SWIDTH 545 0
DWIDTH 6 0
BBX 6 11 0 -2
BITMAP
18
30
00
70
D8
D8
D8
D8
70
00
60
ENDCHAR
STARTCHAR LtSmlOLinvbreve
ENCODING 57430
SWIDTH 545 0
DWIDTH 6 0
BBX 6 11 0 -2
BITMAP
00
00
00
70
D8
D8
D8
D8
70
30
58
ENDCHAR
STARTCHAR LtCapOGraveLdot
ENCODING 57433
SWIDTH 545 0
DWIDTH 6 0
BBX 6 11 0 -2
BITMAP
60
30
70
D8
D8
D8
D8
D8
70
00
60
ENDCHAR
STARTCHAR LtSmlOGraveLdot
ENCODING 57434
SWIDTH 545 0
DWIDTH 6 0
BBX 6 11 0 -2
BITMAP
C0
60
00
70
D8
D8
D8
D8
70
00
60
ENDCHAR
STARTCHAR LtCapPLdot
ENCODING 57437
SWIDTH 545 0
DWIDTH 6 0
BBX 6 11 0 -2
BITMAP
00
F0
D8
D8
D8
F0
C0
C0
C0
00
C0
ENDCHAR
STARTCHAR LtSmlPLdot
ENCODING 57438
SWIDTH 545 0
DWIDTH 6 0
BBX 6 11 0 -2
BITMAP
00
00
00
F0
D8
D8
D8
D8
F0
C0
D8
ENDCHAR
STARTCHAR LtCapQLdot
ENCODING 57441
SWIDTH 545 0
DWIDTH 6 0
BBX 6 11 0 -2
BITMAP
00
70
D8
D8
D8
D8
D8
D8
70
18
68
ENDCHAR
STARTCHAR LtSmlQLdot
ENCODING 57442
SWIDTH 545 0
DWIDTH 6 0
BBX 6 11 0 -2
BITMAP
00
00
00
78
D8
D8
D8
D8
78
18
D8
ENDCHAR
STARTCHAR LtCapRLring
ENCODING 57443
SWIDTH 545 0
DWIDTH 6 0
BBX 6 11 0 -2
BITMAP
00
F0
D8
D8
F0
D0
D8
D8
A8
50
20
ENDCHAR
STARTCHAR LtSmlRLring
ENCODING 57444
SWIDTH 545 0
DWIDTH 6 0
BBX 6 11 0 -2
BITMAP
00
00
00
F8
68
60
60
60
60
50
20
ENDCHAR
STARTCHAR LtSmlRLvline
ENCODING 57445
SWIDTH 545 0
DWIDTH 6 0
BBX 6 11 0 -2
BITMAP
00
00
00
F8
68
60
60
60
00
60
60
ENDCHAR
STARTCHAR LtCapRAcuteLdot
ENCODING 57446
SWIDTH 545 0
DWIDTH 6 0
BBX 6 11 0 -2
BITMAP
30
60
F0
D8
D8
F0
D0
D8
D8
00
60
ENDCHAR
STARTCHAR LtSmlRAcuteLdot
ENCODING 57447
SWIDTH 545 0
DWIDTH 6 0
BBX 6 11 0 -2
BITMAP
18
30
00
F8
68
60
60
60
60
00
60
ENDCHAR
STARTCHAR LtSmlRAcuteLring
ENCODING 57448
SWIDTH 545 0
DWIDTH 6 0
BBX 6 11 0 -2
BITMAP
18
30
00
F8
68
60
60
60
60
50
20
ENDCHAR
STARTCHAR LtCapRGraveLdot
ENCODING 57449
SWIDTH 545 0
DWIDTH 6 0
BBX 6 11 0 -2
BITMAP
C0
60
F0
D8
D8
F0
D0
D8
D8
00
60
ENDCHAR
STARTCHAR LtSmlRGraveLdot
ENCODING 57450
SWIDTH 545 0
DWIDTH 6 0
BBX 6 11 0 -2
BITMAP
60
30
00
F8
68
60
60
60
60
00
60
ENDCHAR
STARTCHAR LtSmlRGraveLring
ENCODING 57451
SWIDTH 545 0
DWIDTH 6 0
BBX 6 11 0 -2
BITMAP
60
30
00
F8
68
60
60
60
60
50
20
ENDCHAR
STARTCHAR LtSmlRMacronAcuteLdot
ENCODING 57453
SWIDTH 545 0
DWIDTH 6 0
BBX 6 11 0 -2
BITMAP
30
F8
00
F8
68
60
60
60
60
00
60
ENDCHAR
STARTCHAR LtSmlRMacronLring
ENCODING 57454
SWIDTH 545 0
DWIDTH 6 0
BBX 6 11 0 -2
BITMAP
00
78
00
F8
68
60
60
60
60
50
20
ENDCHAR
STARTCHAR LtSmlRMacronAcuteLring
ENCODING 57455
SWIDTH 545 0
DWIDTH 6 0
BBX 6 11 0 -2
BITMAP
30
F8
00
F8
68
60
60
60
60
50
20
ENDCHAR
STARTCHAR LtSmlULinvbreve
ENCODING 57456
SWIDTH 545 0
DWIDTH 6 0
BBX 6 11 0 -2
BITMAP
00
00
00
D8
D8
D8
D8
D8
78
30
58
ENDCHAR
STARTCHAR GkCapIotTrndLbreve
ENCODING 57483
SWIDTH 545 0
DWIDTH 6 0
BBX 6 11 0 -2
BITMAP
00
78
30
30
30
30
30
78
00
48
30
ENDCHAR
STARTCHAR GkSmlIotTrndLbreve
ENCODING 57484
SWIDTH 545 0
DWIDTH 6 0
BBX 6 11 0 -2
BITMAP
00
00
00
E0
30
30
30
30
00
48
30
ENDCHAR
STARTCHAR GkCapUpsTrndLbreve
ENCODING 57486
SWIDTH 545 0
DWIDTH 6 0
BBX 6 11 0 -2
BITMAP
00
30
30
30
30
70
68
C8
84
48
30
ENDCHAR
STARTCHAR GkSmlUpsTrndLbreve
ENCODING 57487
SWIDTH 545 0
DWIDTH 6 0
BBX 6 11 0 -2
BITMAP
00
00
00
70
D8
98
D8
48
00
48
30
ENDCHAR
STARTCHAR GeEnMacron
ENCODING 57493
SWIDTH 545 0
DWIDTH 6 0
BBX 6 11 0 -2
BITMAP
00
00
78
00
70
58
18
18
18
98
F0
ENDCHAR
STARTCHAR GeUnCircum
ENCODING 57497
SWIDTH 545 0
DWIDTH 6 0
BBX 6 11 0 -2
BITMAP
00
60
B0
00
B0
F8
58
18
98
98
F0
ENDCHAR
STARTCHAR GeUnMacron
ENCODING 57498
SWIDTH 545 0
DWIDTH 6 0
BBX 6 11 0 -2
BITMAP
00
00
F0
00
B0
F8
58
18
98
98
F0
ENDCHAR
STARTCHAR GeUnDrss
ENCODING 57499
SWIDTH 545 0
DWIDTH 6 0
BBX 6 11 0 -2
BITMAP
00
50
50
00
B0
F8
58
18
98
98
F0
ENDCHAR
STARTCHAR GeUo
ENCODING 57500
SWIDTH 545 0
DWIDTH 6 0
BBX 6 11 0 -2
BITMAP
00
00
00
00
68
F8
D0
C0
C8
C8
78
ENDCHAR
STARTCHAR HbAlefPatah
ENCODING 64302
SWIDTH 545 0
DWIDTH 6 0
BBX 6 11 0 -2
BITMAP
00
00
00
90
D8
70
B0
98
C8
00
F8
ENDCHAR
STARTCHAR HbAlefQamats
ENCODING 64303
SWIDTH 545 0
DWIDTH 6 0
BBX 6 11 0 -2
BITMAP
00
00
00
90
D8
70
B0
98
C8
70
20
ENDCHAR
ENDFONT
