STARTFONT 2.1
FONT -opf-uw-ttyp0-medium-r-normal--13-130-75-75-p-130-iso10646-1
SIZE 13 75 75
FONTBOUNDINGBOX 7 13 0 -2
STARTPROPERTIES 19
FONTNAME_REGISTRY ""
FOUNDRY "UW"
FAMILY_NAME "Ttyp0"
WEIGHT_NAME "Bold"
SLANT "R"
SETWIDTH_NAME "Normal"
ADD_STYLE_NAME ""
PIXEL_SIZE 13
POINT_SIZE 120
RESOLUTION_X 75
RESOLUTION_Y 75
SPACING "C"
AVERAGE_WIDTH 70
CHARSET_REGISTRY "ISO10646"
CHARSET_ENCODING "1"
DEFAULT_CHAR 0
FONT_DESCENT 2
FONT_ASCENT 11
COPYRIGHT "Copyright (C) 2012-2015 Uwe Waldmann"
ENDPROPERTIES
CHARS 234
STARTCHAR CombLdot
ENCODING 803
SWIDTH 538 0
DWIDTH 7 0
BBX 7 13 0 -2
BITMAP
00
00
00
00
00
00
00
00
00
00
00
00
18
ENDCHAR
STARTCHAR CombLdrss
ENCODING 804
SWIDTH 538 0
DWIDTH 7 0
BBX 7 13 0 -2
BITMAP
00
00
00
00
00
00
00
00
00
00
00
00
6C
ENDCHAR
STARTCHAR CombLvline
ENCODING 809
SWIDTH 538 0
DWIDTH 7 0
BBX 7 13 0 -2
BITMAP
00
00
00
00
00
00
00
00
00
00
00
18
18
ENDCHAR
STARTCHAR CombLcaron
ENCODING 812
SWIDTH 538 0
DWIDTH 7 0
BBX 7 13 0 -2
BITMAP
00
00
00
00
00
00
00
00
00
00
00
2C
18
ENDCHAR
STARTCHAR CombLcircum
ENCODING 813
SWIDTH 538 0
DWIDTH 7 0
BBX 7 13 0 -2
BITMAP
00
00
00
00
00
00
00
00
00
00
00
18
2C
ENDCHAR
STARTCHAR CombLbreve
ENCODING 814
SWIDTH 538 0
DWIDTH 7 0
BBX 7 13 0 -2
BITMAP
00
00
00
00
00
00
00
00
00
00
00
2C
18
ENDCHAR
STARTCHAR CombLinvbreve
ENCODING 815
SWIDTH 538 0
DWIDTH 7 0
BBX 7 13 0 -2
BITMAP
00
00
00
00
00
00
00
00
00
00
00
18
2C
ENDCHAR
STARTCHAR CombLtilde
ENCODING 816
SWIDTH 538 0
DWIDTH 7 0
BBX 7 13 0 -2
BITMAP
00
00
00
00
00
00
00
00
00
00
00
36
5C
ENDCHAR
STARTCHAR CombLmacron
ENCODING 817
SWIDTH 538 0
DWIDTH 7 0
BBX 7 13 0 -2
BITMAP
00
00
00
00
00
00
00
00
00
00
00
00
7E
ENDCHAR
STARTCHAR CombLvline2
ENCODING 840
SWIDTH 538 0
DWIDTH 7 0
BBX 7 13 0 -2
BITMAP
00
00
00
00
00
00
00
00
00
00
00
6C
6C
ENDCHAR
STARTCHAR AmSmlEh
ENCODING 1383
SWIDTH 538 0
DWIDTH 7 0
BBX 7 13 0 -2
BITMAP
00
60
60
60
60
7E
60
60
60
60
3C
06
0C
ENDCHAR
STARTCHAR AmSmlYi
ENCODING 1397
SWIDTH 538 0
DWIDTH 7 0
BBX 7 13 0 -2
BITMAP
00
00
00
00
00
38
18
18
18
18
18
58
70
ENDCHAR
STARTCHAR AmSmlSha
ENCODING 1399
SWIDTH 538 0
DWIDTH 7 0
BBX 7 13 0 -2
BITMAP
00
00
00
00
00
3C
26
06
0C
18
30
70
3E
ENDCHAR
STARTCHAR AmSmlCha
ENCODING 1401
SWIDTH 538 0
DWIDTH 7 0
BBX 7 13 0 -2
BITMAP
00
00
00
00
00
30
38
18
10
20
60
70
3E
ENDCHAR
STARTCHAR AmSmlJheh
ENCODING 1403
SWIDTH 538 0
DWIDTH 7 0
BBX 7 13 0 -2
BITMAP
00
18
3C
4E
66
76
34
18
10
20
60
70
3E
ENDCHAR
STARTCHAR AmSmlCo
ENCODING 1409
SWIDTH 538 0
DWIDTH 7 0
BBX 7 13 0 -2
BITMAP
00
00
00
00
00
3E
66
66
66
3E
06
66
3C
ENDCHAR
STARTCHAR AmSmlKeh
ENCODING 1412
SWIDTH 538 0
DWIDTH 7 0
BBX 7 13 0 -2
BITMAP
00
00
00
00
00
3C
36
36
36
3C
30
7E
30
ENDCHAR
STARTCHAR CombHbHatafQamats
ENCODING 1459
SWIDTH 538 0
DWIDTH 7 0
BBX 7 13 0 -2
BITMAP
00
00
00
00
00
00
00
00
00
00
06
70
26
ENDCHAR
STARTCHAR CombHbSegol
ENCODING 1462
SWIDTH 538 0
DWIDTH 7 0
BBX 7 13 0 -2
BITMAP
00
00
00
00
00
00
00
00
00
00
00
66
18
ENDCHAR
STARTCHAR CombHbPatah
ENCODING 1463
SWIDTH 538 0
DWIDTH 7 0
BBX 7 13 0 -2
BITMAP
00
00
00
00
00
00
00
00
00
00
00
00
3C
ENDCHAR
STARTCHAR CombHbQamats
ENCODING 1464
SWIDTH 538 0
DWIDTH 7 0
BBX 7 13 0 -2
BITMAP
00
00
00
00
00
00
00
00
00
00
00
38
10
ENDCHAR
STARTCHAR CombHbMeteg
ENCODING 1469
SWIDTH 538 0
DWIDTH 7 0
BBX 7 13 0 -2
BITMAP
00
00
00
00
00
00
00
00
00
00
10
10
10
ENDCHAR
STARTCHAR ThYoYing
ENCODING 3597
SWIDTH 538 0
DWIDTH 7 0
BBX 7 13 0 -2
BITMAP
00
00
00
00
32
7A
5A
5A
5A
5E
4A
02
1C
ENDCHAR
STARTCHAR ThDoChada
ENCODING 3598
SWIDTH 538 0
DWIDTH 7 0
BBX 7 13 0 -2
BITMAP
00
00
00
00
3C
66
46
36
36
76
76
06
3C
ENDCHAR
STARTCHAR ThToPatak
ENCODING 3599
SWIDTH 538 0
DWIDTH 7 0
BBX 7 13 0 -2
BITMAP
00
00
00
00
3C
66
46
36
36
76
66
16
3E
ENDCHAR
STARTCHAR ThThoThan
ENCODING 3600
SWIDTH 538 0
DWIDTH 7 0
BBX 7 13 0 -2
BITMAP
00
00
00
00
7E
7E
04
36
36
0E
02
54
7E
ENDCHAR
STARTCHAR ThRu
ENCODING 3620
SWIDTH 538 0
DWIDTH 7 0
BBX 7 13 0 -2
BITMAP
00
00
00
00
3C
46
66
26
26
36
36
06
06
ENDCHAR
STARTCHAR ThLu
ENCODING 3622
SWIDTH 538 0
DWIDTH 7 0
BBX 7 13 0 -2
BITMAP
00
00
00
00
3C
66
46
36
36
76
76
06
06
ENDCHAR
STARTCHAR ThSaraU
ENCODING 3640
SWIDTH 538 0
DWIDTH 7 0
BBX 7 13 0 -2
BITMAP
00
00
00
00
00
00
00
00
00
00
00
06
02
ENDCHAR
STARTCHAR ThSaraUu
ENCODING 3641
SWIDTH 538 0
DWIDTH 7 0
BBX 7 13 0 -2
BITMAP
00
00
00
00
00
00
00
00
00
00
00
1A
0E
ENDCHAR
STARTCHAR ThPhinthu
ENCODING 3642
SWIDTH 538 0
DWIDTH 7 0
BBX 7 13 0 -2
BITMAP
00
00
00
00
00
00
00
00
00
00
00
00
06
ENDCHAR
STARTCHAR ThLakkhangyao
ENCODING 3653
SWIDTH 538 0
DWIDTH 7 0
BBX 7 13 0 -2
BITMAP
00
00
00
00
38
6C
6C
0C
0C
0C
0C
0C
0C
ENDCHAR
STARTCHAR ThMaiyamok
ENCODING 3654
SWIDTH 538 0
DWIDTH 7 0
BBX 7 13 0 -2
BITMAP
00
00
00
00
2C
56
46
66
66
06
06
06
0C
ENDCHAR
STARTCHAR GeGan
ENCODING 4306
SWIDTH 538 0
DWIDTH 7 0
BBX 7 13 0 -2
BITMAP
00
00
00
00
00
70
58
18
3C
66
66
66
3C
ENDCHAR
STARTCHAR GeDon
ENCODING 4307
SWIDTH 538 0
DWIDTH 7 0
BBX 7 13 0 -2
BITMAP
00
00
00
00
00
3C
66
66
66
3C
30
7C
46
ENDCHAR
STARTCHAR GeEn
ENCODING 4308
SWIDTH 538 0
DWIDTH 7 0
BBX 7 13 0 -2
BITMAP
00
00
00
00
00
3C
36
06
06
06
66
66
3C
ENDCHAR
STARTCHAR GeVin
ENCODING 4309
SWIDTH 538 0
DWIDTH 7 0
BBX 7 13 0 -2
BITMAP
00
00
00
00
00
3C
36
06
1C
06
66
66
3C
ENDCHAR
STARTCHAR GeKan
ENCODING 4313
SWIDTH 538 0
DWIDTH 7 0
BBX 7 13 0 -2
BITMAP
00
00
00
00
00
06
06
06
1C
06
66
66
3C
ENDCHAR
STARTCHAR GeLas
ENCODING 4314
SWIDTH 538 0
DWIDTH 7 0
BBX 7 13 0 -2
BITMAP
00
00
00
00
00
3C
66
66
66
64
30
7C
46
ENDCHAR
STARTCHAR GeZhar
ENCODING 4319
SWIDTH 538 0
DWIDTH 7 0
BBX 7 13 0 -2
BITMAP
00
00
00
00
00
1E
5E
76
36
06
66
66
3C
ENDCHAR
STARTCHAR GeTar
ENCODING 4322
SWIDTH 538 0
DWIDTH 7 0
BBX 7 13 0 -2
BITMAP
00
00
00
00
18
34
6E
76
66
66
66
66
3C
ENDCHAR
STARTCHAR GeUn
ENCODING 4323
SWIDTH 538 0
DWIDTH 7 0
BBX 7 13 0 -2
BITMAP
00
00
00
00
00
6C
7E
36
36
06
66
66
3C
ENDCHAR
STARTCHAR GePhar
ENCODING 4324
SWIDTH 538 0
DWIDTH 7 0
BBX 7 13 0 -2
BITMAP
00
00
00
00
00
2C
7E
56
76
2C
06
36
1C
ENDCHAR
STARTCHAR GeKhar
ENCODING 4325
SWIDTH 538 0
DWIDTH 7 0
BBX 7 13 0 -2
BITMAP
00
00
02
06
06
06
1E
36
26
06
66
66
3C
ENDCHAR
STARTCHAR GeGhan
ENCODING 4326
SWIDTH 538 0
DWIDTH 7 0
BBX 7 13 0 -2
BITMAP
00
00
00
00
00
24
7E
5A
4A
62
30
7C
46
ENDCHAR
STARTCHAR GeQar
ENCODING 4327
SWIDTH 538 0
DWIDTH 7 0
BBX 7 13 0 -2
BITMAP
00
00
00
00
00
66
66
66
3E
06
66
66
3C
ENDCHAR
STARTCHAR GeCan
ENCODING 4330
SWIDTH 538 0
DWIDTH 7 0
BBX 7 13 0 -2
BITMAP
00
00
00
00
00
28
6C
66
66
6C
66
66
3C
ENDCHAR
STARTCHAR GeCil
ENCODING 4332
SWIDTH 538 0
DWIDTH 7 0
BBX 7 13 0 -2
BITMAP
00
00
24
7E
5A
5A
40
7E
34
34
18
18
18
ENDCHAR
STARTCHAR GeChar
ENCODING 4333
SWIDTH 538 0
DWIDTH 7 0
BBX 7 13 0 -2
BITMAP
00
00
30
1C
0C
0C
3C
6E
3C
0C
6C
6C
38
ENDCHAR
STARTCHAR GeWe
ENCODING 4339
SWIDTH 538 0
DWIDTH 7 0
BBX 7 13 0 -2
BITMAP
00
00
00
00
00
3E
06
0C
18
06
66
66
3C
ENDCHAR
STARTCHAR GeHar
ENCODING 4340
SWIDTH 538 0
DWIDTH 7 0
BBX 7 13 0 -2
BITMAP
00
00
0C
18
18
0E
06
0C
18
06
66
66
3C
ENDCHAR
STARTCHAR GeFi
ENCODING 4342
SWIDTH 538 0
DWIDTH 7 0
BBX 7 13 0 -2
BITMAP
00
00
00
00
00
34
5E
5A
5A
5A
1C
18
30
ENDCHAR
STARTCHAR GeYn
ENCODING 4343
SWIDTH 538 0
DWIDTH 7 0
BBX 7 13 0 -2
BITMAP
00
00
00
00
00
3C
36
06
1C
30
66
66
3C
ENDCHAR
STARTCHAR GeElifi
ENCODING 4344
SWIDTH 538 0
DWIDTH 7 0
BBX 7 13 0 -2
BITMAP
00
00
00
00
00
66
66
66
7C
60
66
66
3C
ENDCHAR
STARTCHAR GeGanTrnd
ENCODING 4345
SWIDTH 538 0
DWIDTH 7 0
BBX 7 13 0 -2
BITMAP
00
00
00
00
00
3C
66
66
66
3C
18
1A
0E
ENDCHAR
STARTCHAR LtCapALring
ENCODING 7680
SWIDTH 538 0
DWIDTH 7 0
BBX 7 13 0 -2
BITMAP
00
00
18
18
18
3C
2C
2C
7E
46
5E
34
18
ENDCHAR
STARTCHAR LtSmlALring
ENCODING 7681
SWIDTH 538 0
DWIDTH 7 0
BBX 7 13 0 -2
BITMAP
00
00
00
00
3C
36
06
3E
66
66
3E
34
18
ENDCHAR
STARTCHAR LtCapBLdot
ENCODING 7684
SWIDTH 538 0
DWIDTH 7 0
BBX 7 13 0 -2
BITMAP
00
00
7C
66
66
64
7C
66
66
66
7C
00
18
ENDCHAR
STARTCHAR LtSmlBLdot
ENCODING 7685
SWIDTH 538 0
DWIDTH 7 0
BBX 7 13 0 -2
BITMAP
00
60
60
60
6C
76
66
66
66
76
6C
00
18
ENDCHAR
STARTCHAR LtCapBLmacron
ENCODING 7686
SWIDTH 538 0
DWIDTH 7 0
BBX 7 13 0 -2
BITMAP
00
00
7C
66
66
64
7C
66
66
66
7C
00
7C
ENDCHAR
STARTCHAR LtSmlBLmacron
ENCODING 7687
SWIDTH 538 0
DWIDTH 7 0
BBX 7 13 0 -2
BITMAP
00
60
60
60
6C
76
66
66
66
76
6C
00
7E
ENDCHAR
STARTCHAR LtCapDLdot
ENCODING 7692
SWIDTH 538 0
DWIDTH 7 0
BBX 7 13 0 -2
BITMAP
00
00
78
64
66
66
66
66
66
64
78
00
30
ENDCHAR
STARTCHAR LtSmlDLdot
ENCODING 7693
SWIDTH 538 0
DWIDTH 7 0
BBX 7 13 0 -2
BITMAP
00
06
06
06
36
6E
66
66
66
6E
36
00
18
ENDCHAR
STARTCHAR LtCapDLmacron
ENCODING 7694
SWIDTH 538 0
DWIDTH 7 0
BBX 7 13 0 -2
BITMAP
00
00
78
64
66
66
66
66
66
64
78
00
7C
ENDCHAR
STARTCHAR LtSmlDLmacron
ENCODING 7695
SWIDTH 538 0
DWIDTH 7 0
BBX 7 13 0 -2
BITMAP
00
06
06
06
36
6E
66
66
66
6E
36
00
7E
ENDCHAR
STARTCHAR LtCapDLcircum
ENCODING 7698
SWIDTH 538 0
DWIDTH 7 0
BBX 7 13 0 -2
BITMAP
00
00
78
64
66
66
66
66
66
64
78
18
2C
ENDCHAR
STARTCHAR LtSmlDLcircum
ENCODING 7699
SWIDTH 538 0
DWIDTH 7 0
BBX 7 13 0 -2
BITMAP
00
06
06
06
36
6E
66
66
66
6E
36
18
2C
ENDCHAR
STARTCHAR LtCapELcircum
ENCODING 7704
SWIDTH 538 0
DWIDTH 7 0
BBX 7 13 0 -2
BITMAP
00
00
7E
62
60
64
7C
64
60
62
7E
18
2C
ENDCHAR
STARTCHAR LtSmlELcircum
ENCODING 7705
SWIDTH 538 0
DWIDTH 7 0
BBX 7 13 0 -2
BITMAP
00
00
00
00
3C
66
66
7E
60
66
3C
18
2C
ENDCHAR
STARTCHAR LtCapELtilde
ENCODING 7706
SWIDTH 538 0
DWIDTH 7 0
BBX 7 13 0 -2
BITMAP
00
00
7E
62
60
64
7C
64
60
62
7E
36
5C
ENDCHAR
STARTCHAR LtSmlELtilde
ENCODING 7707
SWIDTH 538 0
DWIDTH 7 0
BBX 7 13 0 -2
BITMAP
00
00
00
00
3C
66
66
7E
60
66
3C
36
5C
ENDCHAR
STARTCHAR LtCapHLdot
ENCODING 7716
SWIDTH 538 0
DWIDTH 7 0
BBX 7 13 0 -2
BITMAP
00
00
66
66
66
66
7E
66
66
66
66
00
18
ENDCHAR
STARTCHAR LtSmlHLdot
ENCODING 7717
SWIDTH 538 0
DWIDTH 7 0
BBX 7 13 0 -2
BITMAP
00
60
60
60
6C
76
66
66
66
66
66
00
18
ENDCHAR
STARTCHAR LtCapHLbreve
ENCODING 7722
SWIDTH 538 0
DWIDTH 7 0
BBX 7 13 0 -2
BITMAP
00
00
66
66
66
66
7E
66
66
66
42
2C
18
ENDCHAR
STARTCHAR LtSmlHLbreve
ENCODING 7723
SWIDTH 538 0
DWIDTH 7 0
BBX 7 13 0 -2
BITMAP
00
60
60
60
6C
76
66
66
66
66
42
2C
18
ENDCHAR
STARTCHAR LtCapILtilde
ENCODING 7724
SWIDTH 538 0
DWIDTH 7 0
BBX 7 13 0 -2
BITMAP
00
00
7E
18
18
18
18
18
18
18
7E
36
5C
ENDCHAR
STARTCHAR LtSmlILtilde
ENCODING 7725
SWIDTH 538 0
DWIDTH 7 0
BBX 7 13 0 -2
BITMAP
00
18
18
00
38
18
18
18
18
18
7E
36
5C
ENDCHAR
STARTCHAR LtCapKLdot
ENCODING 7730
SWIDTH 538 0
DWIDTH 7 0
BBX 7 13 0 -2
BITMAP
00
00
66
64
68
78
78
6C
6C
66
66
00
18
ENDCHAR
STARTCHAR LtSmlKLdot
ENCODING 7731
SWIDTH 538 0
DWIDTH 7 0
BBX 7 13 0 -2
BITMAP
00
60
60
60
66
64
68
78
6C
66
66
00
18
ENDCHAR
STARTCHAR LtCapKLmacron
ENCODING 7732
SWIDTH 538 0
DWIDTH 7 0
BBX 7 13 0 -2
BITMAP
00
00
66
64
68
78
78
6C
6C
66
66
00
7E
ENDCHAR
STARTCHAR LtSmlKLmacron
ENCODING 7733
SWIDTH 538 0
DWIDTH 7 0
BBX 7 13 0 -2
BITMAP
00
60
60
60
66
64
68
78
6C
66
66
00
7E
ENDCHAR
STARTCHAR LtCapLLdot
ENCODING 7734
SWIDTH 538 0
DWIDTH 7 0
BBX 7 13 0 -2
BITMAP
00
00
60
60
60
60
60
60
60
62
7E
00
18
ENDCHAR
STARTCHAR LtSmlLLdot
ENCODING 7735
SWIDTH 538 0
DWIDTH 7 0
BBX 7 13 0 -2
BITMAP
00
38
18
18
18
18
18
18
18
18
7E
00
18
ENDCHAR
STARTCHAR LtCapLMacronLdot
ENCODING 7736
SWIDTH 538 0
DWIDTH 7 0
BBX 7 13 0 -2
BITMAP
78
78
00
60
60
60
60
60
60
62
7E
00
18
ENDCHAR
STARTCHAR LtSmlLMacronLdot
ENCODING 7737
SWIDTH 538 0
DWIDTH 7 0
BBX 7 13 0 -2
BITMAP
7C
00
38
18
18
18
18
18
18
18
7E
00
18
ENDCHAR
STARTCHAR LtCapLLmacron
ENCODING 7738
SWIDTH 538 0
DWIDTH 7 0
BBX 7 13 0 -2
BITMAP
00
00
60
60
60
60
60
60
60
62
7E
00
7E
ENDCHAR
STARTCHAR LtSmlLLmacron
ENCODING 7739
SWIDTH 538 0
DWIDTH 7 0
BBX 7 13 0 -2
BITMAP
00
38
18
18
18
18
18
18
18
18
7E
00
7E
ENDCHAR
STARTCHAR LtCapLLcircum
ENCODING 7740
SWIDTH 538 0
DWIDTH 7 0
BBX 7 13 0 -2
BITMAP
00
00
60
60
60
60
60
60
60
62
7E
18
2C
ENDCHAR
STARTCHAR LtSmlLLcircum
ENCODING 7741
SWIDTH 538 0
DWIDTH 7 0
BBX 7 13 0 -2
BITMAP
00
38
18
18
18
18
18
18
18
18
7E
18
2C
ENDCHAR
STARTCHAR LtCapMLdot
ENCODING 7746
SWIDTH 538 0
DWIDTH 7 0
BBX 7 13 0 -2
BITMAP
00
00
42
66
7E
7E
56
56
46
46
46
00
18
ENDCHAR
STARTCHAR LtSmlMLdot
ENCODING 7747
SWIDTH 538 0
DWIDTH 7 0
BBX 7 13 0 -2
BITMAP
00
00
00
00
6C
7E
7E
6A
6A
6A
6A
00
18
ENDCHAR
STARTCHAR LtCapNLdot
ENCODING 7750
SWIDTH 538 0
DWIDTH 7 0
BBX 7 13 0 -2
BITMAP
00
00
62
72
72
5A
5A
4E
4E
46
46
00
18
ENDCHAR
STARTCHAR LtSmlNLdot
ENCODING 7751
SWIDTH 538 0
DWIDTH 7 0
BBX 7 13 0 -2
BITMAP
00
00
00
00
6C
76
66
66
66
66
66
00
18
ENDCHAR
STARTCHAR LtCapNLmacron
ENCODING 7752
SWIDTH 538 0
DWIDTH 7 0
BBX 7 13 0 -2
BITMAP
00
00
62
72
72
5A
5A
4E
4E
46
46
00
7E
ENDCHAR
STARTCHAR LtSmlNLmacron
ENCODING 7753
SWIDTH 538 0
DWIDTH 7 0
BBX 7 13 0 -2
BITMAP
00
00
00
00
6C
76
66
66
66
66
66
00
7E
ENDCHAR
STARTCHAR LtCapNLcircum
ENCODING 7754
SWIDTH 538 0
DWIDTH 7 0
BBX 7 13 0 -2
BITMAP
00
00
62
72
72
5A
5A
4E
4E
46
46
18
2C
ENDCHAR
STARTCHAR LtSmlNLcircum
ENCODING 7755
SWIDTH 538 0
DWIDTH 7 0
BBX 7 13 0 -2
BITMAP
00
00
00
00
6C
76
66
66
66
66
66
18
2C
ENDCHAR
STARTCHAR LtCapRLdot
ENCODING 7770
SWIDTH 538 0
DWIDTH 7 0
BBX 7 13 0 -2
BITMAP
00
00
7C
66
66
66
7C
68
6C
66
66
00
18
ENDCHAR
STARTCHAR LtSmlRLdot
ENCODING 7771
SWIDTH 538 0
DWIDTH 7 0
BBX 7 13 0 -2
BITMAP
00
00
00
00
76
3E
30
30
30
30
30
00
30
ENDCHAR
STARTCHAR LtCapRMacronLdot
ENCODING 7772
SWIDTH 538 0
DWIDTH 7 0
BBX 7 13 0 -2
BITMAP
3C
3C
00
7C
66
66
7C
68
6C
66
66
00
18
ENDCHAR
STARTCHAR LtSmlRMacronLdot
ENCODING 7773
SWIDTH 538 0
DWIDTH 7 0
BBX 7 13 0 -2
BITMAP
00
3C
3C
00
76
3E
30
30
30
30
30
00
30
ENDCHAR
STARTCHAR LtCapRLmacron
ENCODING 7774
SWIDTH 538 0
DWIDTH 7 0
BBX 7 13 0 -2
BITMAP
00
00
7C
66
66
66
7C
68
6C
66
66
00
7E
ENDCHAR
STARTCHAR LtSmlRLmacron
ENCODING 7775
SWIDTH 538 0
DWIDTH 7 0
BBX 7 13 0 -2
BITMAP
00
00
00
00
76
3E
30
30
30
30
30
00
7C
ENDCHAR
STARTCHAR LtCapSLdot
ENCODING 7778
SWIDTH 538 0
DWIDTH 7 0
BBX 7 13 0 -2
BITMAP
00
00
3C
66
60
70
3C
0E
06
66
3C
00
18
ENDCHAR
STARTCHAR LtSmlSLdot
ENCODING 7779
SWIDTH 538 0
DWIDTH 7 0
BBX 7 13 0 -2
BITMAP
00
00
00
00
3C
66
60
3C
06
66
3C
00
18
ENDCHAR
STARTCHAR LtCapSDotLdot
ENCODING 7784
SWIDTH 538 0
DWIDTH 7 0
BBX 7 13 0 -2
BITMAP
18
18
00
3C
66
60
38
1C
06
66
3C
00
18
ENDCHAR
STARTCHAR LtSmlSDotLdot
ENCODING 7785
SWIDTH 538 0
DWIDTH 7 0
BBX 7 13 0 -2
BITMAP
00
18
18
00
3C
66
60
3C
06
66
3C
00
18
ENDCHAR
STARTCHAR LtCapTLdot
ENCODING 7788
SWIDTH 538 0
DWIDTH 7 0
BBX 7 13 0 -2
BITMAP
00
00
7E
5A
18
18
18
18
18
18
18
00
18
ENDCHAR
STARTCHAR LtSmlTLdot
ENCODING 7789
SWIDTH 538 0
DWIDTH 7 0
BBX 7 13 0 -2
BITMAP
00
00
30
30
7C
30
30
30
30
36
1C
00
18
ENDCHAR
STARTCHAR LtCapTLmacron
ENCODING 7790
SWIDTH 538 0
DWIDTH 7 0
BBX 7 13 0 -2
BITMAP
00
00
7E
5A
18
18
18
18
18
18
18
00
7C
ENDCHAR
STARTCHAR LtSmlTLmacron
ENCODING 7791
SWIDTH 538 0
DWIDTH 7 0
BBX 7 13 0 -2
BITMAP
00
00
30
30
7C
30
30
30
30
36
1C
00
3E
ENDCHAR
STARTCHAR LtCapTLcircum
ENCODING 7792
SWIDTH 538 0
DWIDTH 7 0
BBX 7 13 0 -2
BITMAP
00
00
7E
5A
18
18
18
18
18
18
18
18
2C
ENDCHAR
STARTCHAR LtSmlTLcircum
ENCODING 7793
SWIDTH 538 0
DWIDTH 7 0
BBX 7 13 0 -2
BITMAP
00
00
30
30
7C
30
30
30
30
36
1C
18
2C
ENDCHAR
STARTCHAR LtCapULdrss
ENCODING 7794
SWIDTH 538 0
DWIDTH 7 0
BBX 7 13 0 -2
BITMAP
00
00
66
66
66
66
66
66
66
66
3C
00
6C
ENDCHAR
STARTCHAR LtSmlULdrss
ENCODING 7795
SWIDTH 538 0
DWIDTH 7 0
BBX 7 13 0 -2
BITMAP
00
00
00
00
66
66
66
66
66
6E
36
00
6C
ENDCHAR
STARTCHAR LtCapULtilde
ENCODING 7796
SWIDTH 538 0
DWIDTH 7 0
BBX 7 13 0 -2
BITMAP
00
00
66
66
66
66
66
66
66
66
3C
36
5C
ENDCHAR
STARTCHAR LtSmlULtilde
ENCODING 7797
SWIDTH 538 0
DWIDTH 7 0
BBX 7 13 0 -2
BITMAP
00
00
00
00
66
66
66
66
66
6E
36
3A
6C
ENDCHAR
STARTCHAR LtCapULcircum
ENCODING 7798
SWIDTH 538 0
DWIDTH 7 0
BBX 7 13 0 -2
BITMAP
00
00
66
66
66
66
66
66
66
66
3C
18
2C
ENDCHAR
STARTCHAR LtSmlULcircum
ENCODING 7799
SWIDTH 538 0
DWIDTH 7 0
BBX 7 13 0 -2
BITMAP
00
00
00
00
66
66
66
66
66
6E
36
18
2C
ENDCHAR
STARTCHAR LtCapVLdot
ENCODING 7806
SWIDTH 538 0
DWIDTH 7 0
BBX 7 13 0 -2
BITMAP
00
00
62
62
36
34
34
1C
18
18
08
00
18
ENDCHAR
STARTCHAR LtSmlVLdot
ENCODING 7807
SWIDTH 538 0
DWIDTH 7 0
BBX 7 13 0 -2
BITMAP
00
00
00
00
62
62
36
34
1C
18
08
00
18
ENDCHAR
STARTCHAR LtCapWLdot
ENCODING 7816
SWIDTH 538 0
DWIDTH 7 0
BBX 7 13 0 -2
BITMAP
00
00
62
62
62
6A
6A
7E
3C
34
34
00
18
ENDCHAR
STARTCHAR LtSmlWLdot
ENCODING 7817
SWIDTH 538 0
DWIDTH 7 0
BBX 7 13 0 -2
BITMAP
00
00
00
00
62
6A
6A
6A
7E
34
34
00
18
ENDCHAR
STARTCHAR LtCapZLdot
ENCODING 7826
SWIDTH 538 0
DWIDTH 7 0
BBX 7 13 0 -2
BITMAP
00
00
7E
46
0C
0C
18
30
30
62
7E
00
18
ENDCHAR
STARTCHAR LtSmlZLdot
ENCODING 7827
SWIDTH 538 0
DWIDTH 7 0
BBX 7 13 0 -2
BITMAP
00
00
00
00
7E
4E
0C
18
30
72
7E
00
18
ENDCHAR
STARTCHAR LtCapZLmacron
ENCODING 7828
SWIDTH 538 0
DWIDTH 7 0
BBX 7 13 0 -2
BITMAP
00
00
7E
46
0C
0C
18
30
30
62
7E
00
7E
ENDCHAR
STARTCHAR LtSmlZLmacron
ENCODING 7829
SWIDTH 538 0
DWIDTH 7 0
BBX 7 13 0 -2
BITMAP
00
00
00
00
7E
4E
0C
18
30
72
7E
00
7E
ENDCHAR
STARTCHAR LtSmlHLmacron
ENCODING 7830
SWIDTH 538 0
DWIDTH 7 0
BBX 7 13 0 -2
BITMAP
00
60
60
60
6C
76
66
66
66
66
66
00
7E
ENDCHAR
STARTCHAR LtCapALdot
ENCODING 7840
SWIDTH 538 0
DWIDTH 7 0
BBX 7 13 0 -2
BITMAP
00
00
18
18
18
3C
2C
2C
7E
46
46
00
18
ENDCHAR
STARTCHAR LtSmlALdot
ENCODING 7841
SWIDTH 538 0
DWIDTH 7 0
BBX 7 13 0 -2
BITMAP
00
00
00
00
3C
36
06
3E
66
66
3E
00
18
ENDCHAR
STARTCHAR LtCapACircumLdot
ENCODING 7852
SWIDTH 538 0
DWIDTH 7 0
BBX 7 13 0 -2
BITMAP
1C
36
00
18
18
3C
2C
2C
7E
46
46
00
18
ENDCHAR
STARTCHAR LtSmlACircumLdot
ENCODING 7853
SWIDTH 538 0
DWIDTH 7 0
BBX 7 13 0 -2
BITMAP
18
3C
24
00
3C
36
06
3E
66
66
3E
00
18
ENDCHAR
STARTCHAR LtCapABreveLdot
ENCODING 7862
SWIDTH 538 0
DWIDTH 7 0
BBX 7 13 0 -2
BITMAP
36
1C
00
18
18
3C
2C
2C
7E
46
46
00
18
ENDCHAR
STARTCHAR LtSmlABreveLdot
ENCODING 7863
SWIDTH 538 0
DWIDTH 7 0
BBX 7 13 0 -2
BITMAP
00
36
1C
00
3C
36
06
3E
66
66
3E
00
18
ENDCHAR
STARTCHAR LtCapELdot
ENCODING 7864
SWIDTH 538 0
DWIDTH 7 0
BBX 7 13 0 -2
BITMAP
00
00
7E
62
60
64
7C
64
60
62
7E
00
18
ENDCHAR
STARTCHAR LtSmlELdot
ENCODING 7865
SWIDTH 538 0
DWIDTH 7 0
BBX 7 13 0 -2
BITMAP
00
00
00
00
3C
66
66
7E
60
66
3C
00
18
ENDCHAR
STARTCHAR LtCapECircumLdot
ENCODING 7878
SWIDTH 538 0
DWIDTH 7 0
BBX 7 13 0 -2
BITMAP
1C
36
00
7E
62
60
7C
64
60
62
7E
00
18
ENDCHAR
STARTCHAR LtSmlECircumLdot
ENCODING 7879
SWIDTH 538 0
DWIDTH 7 0
BBX 7 13 0 -2
BITMAP
18
3C
24
00
3C
66
66
7E
60
66
3C
00
18
ENDCHAR
STARTCHAR LtCapILdot
ENCODING 7882
SWIDTH 538 0
DWIDTH 7 0
BBX 7 13 0 -2
BITMAP
00
00
7E
18
18
18
18
18
18
18
7E
00
18
ENDCHAR
STARTCHAR LtSmlILdot
ENCODING 7883
SWIDTH 538 0
DWIDTH 7 0
BBX 7 13 0 -2
BITMAP
00
18
18
00
38
18
18
18
18
18
7E
00
18
ENDCHAR
STARTCHAR LtCapOLdot
ENCODING 7884
SWIDTH 538 0
DWIDTH 7 0
BBX 7 13 0 -2
BITMAP
00
00
3C
66
66
66
66
66
66
66
3C
00
18
ENDCHAR
STARTCHAR LtSmlOLdot
ENCODING 7885
SWIDTH 538 0
DWIDTH 7 0
BBX 7 13 0 -2
BITMAP
00
00
00
00
3C
66
66
66
66
66
3C
00
18
ENDCHAR
STARTCHAR LtCapOCircumLdot
ENCODING 7896
SWIDTH 538 0
DWIDTH 7 0
BBX 7 13 0 -2
BITMAP
1C
36
00
3C
66
66
66
66
66
66
3C
00
18
ENDCHAR
STARTCHAR LtSmlOCircumLdot
ENCODING 7897
SWIDTH 538 0
DWIDTH 7 0
BBX 7 13 0 -2
BITMAP
18
3C
24
00
3C
66
66
66
66
66
3C
00
18
ENDCHAR
STARTCHAR LtCapOHornLdot
ENCODING 7906
SWIDTH 538 0
DWIDTH 7 0
BBX 7 13 0 -2
BITMAP
0E
06
3C
66
66
66
66
66
66
66
3C
00
18
ENDCHAR
STARTCHAR LtSmlOHornLdot
ENCODING 7907
SWIDTH 538 0
DWIDTH 7 0
BBX 7 13 0 -2
BITMAP
00
00
0E
06
3C
66
66
66
66
66
3C
00
18
ENDCHAR
STARTCHAR LtCapULdot
ENCODING 7908
SWIDTH 538 0
DWIDTH 7 0
BBX 7 13 0 -2
BITMAP
00
00
66
66
66
66
66
66
66
66
3C
00
18
ENDCHAR
STARTCHAR LtSmlULdot
ENCODING 7909
SWIDTH 538 0
DWIDTH 7 0
BBX 7 13 0 -2
BITMAP
00
00
00
00
66
66
66
66
66
6E
36
00
18
ENDCHAR
STARTCHAR LtCapUHornLdot
ENCODING 7920
SWIDTH 538 0
DWIDTH 7 0
BBX 7 13 0 -2
BITMAP
0E
06
64
66
66
66
66
66
66
66
3C
00
18
ENDCHAR
STARTCHAR LtSmlUHornLdot
ENCODING 7921
SWIDTH 538 0
DWIDTH 7 0
BBX 7 13 0 -2
BITMAP
00
00
0E
06
64
66
66
66
66
6E
36
00
18
ENDCHAR
STARTCHAR LtCapYLdot
ENCODING 7924
SWIDTH 538 0
DWIDTH 7 0
BBX 7 13 0 -2
BITMAP
00
00
66
66
34
38
18
18
18
18
18
00
18
ENDCHAR
STARTCHAR LtSmlYLdot
ENCODING 7925
SWIDTH 538 0
DWIDTH 7 0
BBX 7 13 0 -2
BITMAP
00
00
00
00
62
62
36
34
1C
18
08
50
76
ENDCHAR
STARTCHAR MArrowU
ENCODING 8593
SWIDTH 538 0
DWIDTH 7 0
BBX 7 13 0 -2
BITMAP
18
3C
7E
18
18
18
18
18
18
18
18
18
00
ENDCHAR
STARTCHAR MArrowD
ENCODING 8595
SWIDTH 538 0
DWIDTH 7 0
BBX 7 13 0 -2
BITMAP
18
18
18
18
18
18
18
18
18
7E
3C
18
00
ENDCHAR
STARTCHAR MArrowUD
ENCODING 8597
SWIDTH 538 0
DWIDTH 7 0
BBX 7 13 0 -2
BITMAP
18
3C
7E
18
18
18
18
18
18
7E
3C
18
00
ENDCHAR
STARTCHAR MArrowLU
ENCODING 8598
SWIDTH 538 0
DWIDTH 7 0
BBX 7 13 0 -2
BITMAP
60
70
78
70
58
18
0C
0C
06
06
02
02
00
ENDCHAR
STARTCHAR MArrowRU
ENCODING 8599
SWIDTH 538 0
DWIDTH 7 0
BBX 7 13 0 -2
BITMAP
06
0E
1E
0E
1A
18
30
30
60
60
40
40
00
ENDCHAR
STARTCHAR MArrowRD
ENCODING 8600
SWIDTH 538 0
DWIDTH 7 0
BBX 7 13 0 -2
BITMAP
40
40
60
60
30
30
18
1A
0E
1E
0E
06
00
ENDCHAR
STARTCHAR MArrowLD
ENCODING 8601
SWIDTH 538 0
DWIDTH 7 0
BBX 7 13 0 -2
BITMAP
02
02
06
06
0C
0C
18
58
70
78
70
60
00
ENDCHAR
STARTCHAR MArrowUu
ENCODING 8607
SWIDTH 538 0
DWIDTH 7 0
BBX 7 13 0 -2
BITMAP
18
3C
7E
18
3C
7E
18
18
18
18
18
18
00
ENDCHAR
STARTCHAR MArrowDd
ENCODING 8609
SWIDTH 538 0
DWIDTH 7 0
BBX 7 13 0 -2
BITMAP
18
18
18
18
18
18
7E
3C
18
7E
3C
18
00
ENDCHAR
STARTCHAR MArrowBarU
ENCODING 8613
SWIDTH 538 0
DWIDTH 7 0
BBX 7 13 0 -2
BITMAP
18
3C
7E
18
18
18
18
18
18
18
7E
7E
00
ENDCHAR
STARTCHAR MArrowBarD
ENCODING 8615
SWIDTH 538 0
DWIDTH 7 0
BBX 7 13 0 -2
BITMAP
7E
7E
18
18
18
18
18
18
18
7E
3C
18
00
ENDCHAR
STARTCHAR MArrowUDBase
ENCODING 8616
SWIDTH 538 0
DWIDTH 7 0
BBX 7 13 0 -2
BITMAP
18
3C
7E
18
18
18
18
7E
3C
18
7E
7E
00
ENDCHAR
STARTCHAR MHarpoonUr
ENCODING 8638
SWIDTH 538 0
DWIDTH 7 0
BBX 7 13 0 -2
BITMAP
18
1C
1E
18
18
18
18
18
18
18
18
18
00
ENDCHAR
STARTCHAR MHarpoonUl
ENCODING 8639
SWIDTH 538 0
DWIDTH 7 0
BBX 7 13 0 -2
BITMAP
18
38
78
18
18
18
18
18
18
18
18
18
00
ENDCHAR
STARTCHAR MHarpoonDr
ENCODING 8642
SWIDTH 538 0
DWIDTH 7 0
BBX 7 13 0 -2
BITMAP
18
18
18
18
18
18
18
18
18
1E
1C
18
00
ENDCHAR
STARTCHAR MHarpoonDl
ENCODING 8643
SWIDTH 538 0
DWIDTH 7 0
BBX 7 13 0 -2
BITMAP
18
18
18
18
18
18
18
18
18
78
38
18
00
ENDCHAR
STARTCHAR MArrowULeftD
ENCODING 8645
SWIDTH 538 0
DWIDTH 7 0
BBX 7 13 0 -2
BITMAP
6C
FC
FC
6C
6C
6C
6C
6C
6C
7E
7E
6C
00
ENDCHAR
STARTCHAR MArrowULeftU
ENCODING 8648
SWIDTH 538 0
DWIDTH 7 0
BBX 7 13 0 -2
BITMAP
6C
FE
FE
6C
6C
6C
6C
6C
6C
6C
6C
6C
00
ENDCHAR
STARTCHAR MArrowDLeftD
ENCODING 8650
SWIDTH 538 0
DWIDTH 7 0
BBX 7 13 0 -2
BITMAP
6C
6C
6C
6C
6C
6C
6C
6C
6C
FE
FE
6C
00
ENDCHAR
STARTCHAR MArrow2U
ENCODING 8657
SWIDTH 538 0
DWIDTH 7 0
BBX 7 13 0 -2
BITMAP
38
7C
EE
6C
6C
6C
6C
6C
6C
6C
6C
6C
00
ENDCHAR
STARTCHAR MArrow2D
ENCODING 8659
SWIDTH 538 0
DWIDTH 7 0
BBX 7 13 0 -2
BITMAP
6C
6C
6C
6C
6C
6C
6C
6C
6C
EE
7C
38
00
ENDCHAR
STARTCHAR MArrow2UD
ENCODING 8661
SWIDTH 538 0
DWIDTH 7 0
BBX 7 13 0 -2
BITMAP
38
7C
EE
6C
6C
6C
6C
6C
6C
EE
7C
38
00
ENDCHAR
STARTCHAR PCurlyBrackLTRB
ENCODING 9136
SWIDTH 538 0
DWIDTH 7 0
BBX 7 13 0 -2
BITMAP
0E
18
18
18
18
18
18
18
18
18
18
18
70
ENDCHAR
STARTCHAR PCurlyBrackLBRT
ENCODING 9137
SWIDTH 538 0
DWIDTH 7 0
BBX 7 13 0 -2
BITMAP
70
18
18
18
18
18
18
18
18
18
18
18
0E
ENDCHAR
STARTCHAR MSumT
ENCODING 9138
SWIDTH 538 0
DWIDTH 7 0
BBX 7 13 0 -2
BITMAP
00
7E
62
60
60
30
30
30
18
18
18
0C
0C
ENDCHAR
STARTCHAR MRootB
ENCODING 9143
SWIDTH 538 0
DWIDTH 7 0
BBX 7 13 0 -2
BITMAP
18
18
18
18
18
18
D8
D8
78
38
38
18
18
ENDCHAR
STARTCHAR LtSmlATrndLinvbreve
ENCODING 57350
SWIDTH 538 0
DWIDTH 7 0
BBX 7 13 0 -2
BITMAP
00
00
00
00
6C
76
66
7C
60
6C
3C
18
2C
ENDCHAR
STARTCHAR LtCapCLdot
ENCODING 57356
SWIDTH 538 0
DWIDTH 7 0
BBX 7 13 0 -2
BITMAP
00
00
1C
36
60
60
60
60
60
36
1C
00
18
ENDCHAR
STARTCHAR LtSmlCLdot
ENCODING 57357
SWIDTH 538 0
DWIDTH 7 0
BBX 7 13 0 -2
BITMAP
00
00
00
00
3C
66
60
60
60
66
3C
00
18
ENDCHAR
STARTCHAR LtCapCCaronLdot
ENCODING 57358
SWIDTH 538 0
DWIDTH 7 0
BBX 7 13 0 -2
BITMAP
36
1C
00
1C
36
60
60
60
60
36
1C
00
18
ENDCHAR
STARTCHAR LtSmlCCaronLdot
ENCODING 57359
SWIDTH 538 0
DWIDTH 7 0
BBX 7 13 0 -2
BITMAP
24
3C
18
00
3C
66
60
60
60
66
3C
00
18
ENDCHAR
STARTCHAR LtCapELmacron
ENCODING 57370
SWIDTH 538 0
DWIDTH 7 0
BBX 7 13 0 -2
BITMAP
00
00
7E
62
60
64
7C
64
60
62
7E
00
7E
ENDCHAR
STARTCHAR LtSmlELmacron
ENCODING 57371
SWIDTH 538 0
DWIDTH 7 0
BBX 7 13 0 -2
BITMAP
00
00
00
00
3C
66
66
7E
60
66
3C
00
7E
ENDCHAR
STARTCHAR LtCapEAcuteLdot
ENCODING 57372
SWIDTH 538 0
DWIDTH 7 0
BBX 7 13 0 -2
BITMAP
0E
18
00
7E
62
60
7C
64
60
62
7E
00
18
ENDCHAR
STARTCHAR LtSmlEAcuteLdot
ENCODING 57373
SWIDTH 538 0
DWIDTH 7 0
BBX 7 13 0 -2
BITMAP
06
0C
08
00
3C
66
66
7E
60
66
3C
00
18
ENDCHAR
STARTCHAR LtCapEGraveLdot
ENCODING 57376
SWIDTH 538 0
DWIDTH 7 0
BBX 7 13 0 -2
BITMAP
70
18
00
7E
62
60
7C
64
60
62
7E
00
18
ENDCHAR
STARTCHAR LtSmlEGraveLdot
ENCODING 57377
SWIDTH 538 0
DWIDTH 7 0
BBX 7 13 0 -2
BITMAP
30
18
08
00
3C
66
66
7E
60
66
3C
00
18
ENDCHAR
STARTCHAR LtCapGHLmacron
ENCODING 57393
SWIDTH 538 0
DWIDTH 7 0
BBX 7 13 0 -2
BITMAP
00
00
3A
6A
4A
4A
7E
5A
5A
5A
3A
00
7E
ENDCHAR
STARTCHAR LtMixGHLmacron
ENCODING 57394
SWIDTH 538 0
DWIDTH 7 0
BBX 7 13 0 -2
BITMAP
00
08
38
68
4E
4E
7A
5A
5A
5A
3A
00
7E
ENDCHAR
STARTCHAR LtSmlGHLmacron
ENCODING 57395
SWIDTH 538 0
DWIDTH 7 0
BBX 7 13 0 -2
BITMAP
00
08
08
08
3E
7E
5A
5A
7A
3A
1A
50
7E
ENDCHAR
STARTCHAR LtCapHLmacron
ENCODING 57396
SWIDTH 538 0
DWIDTH 7 0
BBX 7 13 0 -2
BITMAP
00
00
66
66
66
66
7E
66
66
66
66
00
7E
ENDCHAR
STARTCHAR LtSmlILinvbreve
ENCODING 57397
SWIDTH 538 0
DWIDTH 7 0
BBX 7 13 0 -2
BITMAP
00
18
18
00
38
18
18
18
18
18
7E
18
2C
ENDCHAR
STARTCHAR LtCapKHLmacron
ENCODING 57405
SWIDTH 538 0
DWIDTH 7 0
BBX 7 13 0 -2
BITMAP
00
00
5A
5A
6A
6A
6E
6A
5A
5A
5A
00
7E
ENDCHAR
STARTCHAR LtMixKHLmacron
ENCODING 57406
SWIDTH 538 0
DWIDTH 7 0
BBX 7 13 0 -2
BITMAP
00
08
58
58
6E
6E
6A
6A
5A
5A
5A
00
7E
ENDCHAR
STARTCHAR LtSmlKHLmacron
ENCODING 57407
SWIDTH 538 0
DWIDTH 7 0
BBX 7 13 0 -2
BITMAP
00
48
48
48
5E
5E
6A
7A
5A
5A
5A
00
7E
ENDCHAR
STARTCHAR LtSmlLLring
ENCODING 57409
SWIDTH 538 0
DWIDTH 7 0
BBX 7 13 0 -2
BITMAP
00
38
18
18
18
18
18
18
18
18
7E
34
18
ENDCHAR
STARTCHAR LtSmlLMacronLring
ENCODING 57412
SWIDTH 538 0
DWIDTH 7 0
BBX 7 13 0 -2
BITMAP
7C
00
38
18
18
18
18
18
18
18
7E
34
18
ENDCHAR
STARTCHAR LtCapOLmacron
ENCODING 57426
SWIDTH 538 0
DWIDTH 7 0
BBX 7 13 0 -2
BITMAP
00
00
3C
66
66
66
66
66
66
66
3C
00
7E
ENDCHAR
STARTCHAR LtSmlOLmacron
ENCODING 57427
SWIDTH 538 0
DWIDTH 7 0
BBX 7 13 0 -2
BITMAP
00
00
00
00
3C
66
66
66
66
66
3C
00
7E
ENDCHAR
STARTCHAR LtCapOAcuteLdot
ENCODING 57428
SWIDTH 538 0
DWIDTH 7 0
BBX 7 13 0 -2
BITMAP
0E
18
00
3C
66
66
66
66
66
66
3C
00
18
ENDCHAR
STARTCHAR LtSmlOAcuteLdot
ENCODING 57429
SWIDTH 538 0
DWIDTH 7 0
BBX 7 13 0 -2
BITMAP
06
0C
08
00
3C
66
66
66
66
66
3C
00
18
ENDCHAR
STARTCHAR LtSmlOLinvbreve
ENCODING 57430
SWIDTH 538 0
DWIDTH 7 0
BBX 7 13 0 -2
BITMAP
00
00
00
00
3C
66
66
66
66
66
3C
18
2C
ENDCHAR
STARTCHAR LtCapOGraveLdot
ENCODING 57433
SWIDTH 538 0
DWIDTH 7 0
BBX 7 13 0 -2
BITMAP
70
18
00
3C
66
66
66
66
66
66
3C
00
18
ENDCHAR
STARTCHAR LtSmlOGraveLdot
ENCODING 57434
SWIDTH 538 0
DWIDTH 7 0
BBX 7 13 0 -2
BITMAP
30
18
08
00
3C
66
66
66
66
66
3C
00
18
ENDCHAR
STARTCHAR LtCapPLdot
ENCODING 57437
SWIDTH 538 0
DWIDTH 7 0
BBX 7 13 0 -2
BITMAP
00
00
7C
66
66
66
7C
60
60
60
60
00
60
ENDCHAR
STARTCHAR LtSmlPLdot
ENCODING 57438
SWIDTH 538 0
DWIDTH 7 0
BBX 7 13 0 -2
BITMAP
00
00
00
00
6C
76
66
66
66
76
6C
60
6C
ENDCHAR
STARTCHAR LtCapQLdot
ENCODING 57441
SWIDTH 538 0
DWIDTH 7 0
BBX 7 13 0 -2
BITMAP
00
00
3C
66
66
66
66
66
76
6E
3C
06
1A
ENDCHAR
STARTCHAR LtSmlQLdot
ENCODING 57442
SWIDTH 538 0
DWIDTH 7 0
BBX 7 13 0 -2
BITMAP
00
00
00
00
36
6E
66
66
66
6E
36
06
36
ENDCHAR
STARTCHAR LtCapRLring
ENCODING 57443
SWIDTH 538 0
DWIDTH 7 0
BBX 7 13 0 -2
BITMAP
00
00
7C
66
66
66
7C
68
6C
66
5A
34
18
ENDCHAR
STARTCHAR LtSmlRLring
ENCODING 57444
SWIDTH 538 0
DWIDTH 7 0
BBX 7 13 0 -2
BITMAP
00
00
00
00
76
3E
30
30
30
30
30
68
30
ENDCHAR
STARTCHAR LtSmlRLvline
ENCODING 57445
SWIDTH 538 0
DWIDTH 7 0
BBX 7 13 0 -2
BITMAP
00
00
00
00
76
3E
30
30
30
30
30
18
18
ENDCHAR
STARTCHAR LtCapRAcuteLdot
ENCODING 57446
SWIDTH 538 0
DWIDTH 7 0
BBX 7 13 0 -2
BITMAP
0E
18
00
7C
66
66
7C
68
6C
66
66
00
18
ENDCHAR
STARTCHAR LtSmlRAcuteLdot
ENCODING 57447
SWIDTH 538 0
DWIDTH 7 0
BBX 7 13 0 -2
BITMAP
06
0C
08
00
76
3E
30
30
30
30
30
00
30
ENDCHAR
STARTCHAR LtSmlRAcuteLring
ENCODING 57448
SWIDTH 538 0
DWIDTH 7 0
BBX 7 13 0 -2
BITMAP
06
0C
08
00
76
3E
30
30
30
30
30
68
30
ENDCHAR
STARTCHAR LtCapRGraveLdot
ENCODING 57449
SWIDTH 538 0
DWIDTH 7 0
BBX 7 13 0 -2
BITMAP
70
18
00
7C
66
66
7C
68
6C
66
66
00
18
ENDCHAR
STARTCHAR LtSmlRGraveLdot
ENCODING 57450
SWIDTH 538 0
DWIDTH 7 0
BBX 7 13 0 -2
BITMAP
30
18
08
00
76
3E
30
30
30
30
30
00
30
ENDCHAR
STARTCHAR LtSmlRGraveLring
ENCODING 57451
SWIDTH 538 0
DWIDTH 7 0
BBX 7 13 0 -2
BITMAP
30
18
08
00
76
3E
30
30
30
30
30
68
30
ENDCHAR
STARTCHAR LtSmlRMacronAcuteLdot
ENCODING 57453
SWIDTH 538 0
DWIDTH 7 0
BBX 7 13 0 -2
BITMAP
0E
18
3E
00
76
3E
30
30
30
30
30
00
30
ENDCHAR
STARTCHAR LtSmlRMacronLring
ENCODING 57454
SWIDTH 538 0
DWIDTH 7 0
BBX 7 13 0 -2
BITMAP
00
3C
3C
00
76
3E
30
30
30
30
30
68
30
ENDCHAR
STARTCHAR LtSmlRMacronAcuteLring
ENCODING 57455
SWIDTH 538 0
DWIDTH 7 0
BBX 7 13 0 -2
BITMAP
0E
18
3E
00
76
3E
30
30
30
30
30
68
30
ENDCHAR
STARTCHAR LtSmlULinvbreve
ENCODING 57456
SWIDTH 538 0
DWIDTH 7 0
BBX 7 13 0 -2
BITMAP
00
00
00
00
66
66
66
66
66
6E
36
18
2C
ENDCHAR
STARTCHAR GkCapIotTrndLbreve
ENCODING 57483
SWIDTH 538 0
DWIDTH 7 0
BBX 7 13 0 -2
BITMAP
00
00
7E
18
18
18
18
18
18
7E
00
2C
18
ENDCHAR
STARTCHAR GkSmlIotTrndLbreve
ENCODING 57484
SWIDTH 538 0
DWIDTH 7 0
BBX 7 13 0 -2
BITMAP
00
00
00
00
38
6C
0C
0C
0E
0C
00
36
1C
ENDCHAR
STARTCHAR GkCapUpsTrndLbreve
ENCODING 57486
SWIDTH 538 0
DWIDTH 7 0
BBX 7 13 0 -2
BITMAP
00
00
18
18
18
18
18
1C
2C
66
42
2C
18
ENDCHAR
STARTCHAR GkSmlUpsTrndLbreve
ENCODING 57487
SWIDTH 538 0
DWIDTH 7 0
BBX 7 13 0 -2
BITMAP
00
00
00
00
3C
66
66
66
66
32
00
6C
38
ENDCHAR
STARTCHAR GeEnMacron
ENCODING 57493
SWIDTH 538 0
DWIDTH 7 0
BBX 7 13 0 -2
BITMAP
00
00
3C
3C
00
3C
36
06
06
06
66
66
3C
ENDCHAR
STARTCHAR GeUnCircum
ENCODING 57497
SWIDTH 538 0
DWIDTH 7 0
BBX 7 13 0 -2
BITMAP
00
18
3C
24
00
6C
7E
36
36
06
66
66
3C
ENDCHAR
STARTCHAR GeUnMacron
ENCODING 57498
SWIDTH 538 0
DWIDTH 7 0
BBX 7 13 0 -2
BITMAP
00
00
3C
3C
00
6C
7E
36
36
06
66
66
3C
ENDCHAR
STARTCHAR GeUnDrss
ENCODING 57499
SWIDTH 538 0
DWIDTH 7 0
BBX 7 13 0 -2
BITMAP
00
00
6C
6C
00
6C
7E
36
36
06
66
66
3C
ENDCHAR
STARTCHAR GeUo
ENCODING 57500
SWIDTH 538 0
DWIDTH 7 0
BBX 7 13 0 -2
BITMAP
00
00
00
00
00
36
7E
6C
6C
60
66
66
3C
ENDCHAR
STARTCHAR HbAlefPatah
ENCODING 64302
SWIDTH 538 0
DWIDTH 7 0
BBX 7 13 0 -2
BITMAP
00
00
00
00
4C
66
7C
3C
6E
66
72
00
3C
ENDCHAR
STARTCHAR HbAlefQamats
ENCODING 64303
SWIDTH 538 0
DWIDTH 7 0
BBX 7 13 0 -2
BITMAP
00
00
00
00
4C
66
7C
3C
6E
66
62
38
10
ENDCHAR
ENDFONT
