STARTFONT 2.1
FONT ChillMoonMono-16px
SIZE 16 75 75
FONTBOUNDINGBOX 10 19 0 -3
STARTPROPERTIES 3
PIXEL_SIZE 16
FONT_ASCENT 13
FONT_DESCENT 3
ENDPROPERTIES
CHARS 861
STARTCHAR uni0020
ENCODING 32
SWIDTH 562 0
DWIDTH 9 0
BBX 1 1 0 0
BITMAP
00
ENDCHAR
STARTCHAR uni0021
ENCODING 33
SWIDTH 562 0
DWIDTH 9 0
BBX 1 10 3 0
BITMAP
80
80
80
80
80
80
80
00
80
80
ENDCHAR
STARTCHAR uni0022
ENCODING 34
SWIDTH 562 0
DWIDTH 9 0
BBX 5 3 2 7
BITMAP
D8
48
90
ENDCHAR
STARTCHAR uni0023
ENCODING 35
SWIDTH 562 0
DWIDTH 9 0
BBX 7 10 1 0
BITMAP
24
24
FE
48
48
48
FE
48
48
48
ENDCHAR
STARTCHAR uni0024
ENCODING 36
SWIDTH 562 0
DWIDTH 9 0
BBX 7 12 1 -1
BITMAP
10
10
7C
92
90
70
1C
12
92
7C
10
10
ENDCHAR
STARTCHAR uni0025
ENCODING 37
SWIDTH 562 0
DWIDTH 9 0
BBX 7 10 1 0
BITMAP
62
94
94
A8
50
14
2A
52
52
8C
ENDCHAR
STARTCHAR uni0026
ENCODING 38
SWIDTH 562 0
DWIDTH 9 0
BBX 7 10 1 0
BITMAP
1C
22
42
44
28
50
4A
84
8A
72
ENDCHAR
STARTCHAR uni0027
ENCODING 39
SWIDTH 562 0
DWIDTH 9 0
BBX 1 3 4 7
BITMAP
80
80
80
ENDCHAR
STARTCHAR uni0028
ENCODING 40
SWIDTH 562 0
DWIDTH 9 0
BBX 3 10 4 0
BITMAP
20
40
40
80
80
80
80
40
40
20
ENDCHAR
STARTCHAR uni0029
ENCODING 41
SWIDTH 562 0
DWIDTH 9 0
BBX 3 10 2 0
BITMAP
80
40
40
20
20
20
20
40
40
80
ENDCHAR
STARTCHAR uni002A
ENCODING 42
SWIDTH 562 0
DWIDTH 9 0
BBX 5 5 2 6
BITMAP
20
A8
70
A8
20
ENDCHAR
STARTCHAR uni002B
ENCODING 43
SWIDTH 562 0
DWIDTH 9 0
BBX 7 7 1 1
BITMAP
10
10
10
FE
10
10
10
ENDCHAR
STARTCHAR uni002C
ENCODING 44
SWIDTH 562 0
DWIDTH 9 0
BBX 2 2 1 -1
BITMAP
40
80
ENDCHAR
STARTCHAR uni002D
ENCODING 45
SWIDTH 562 0
DWIDTH 9 0
BBX 3 1 3 4
BITMAP
E0
ENDCHAR
STARTCHAR uni002E
ENCODING 46
SWIDTH 562 0
DWIDTH 9 0
BBX 1 1 1 0
BITMAP
80
ENDCHAR
STARTCHAR uni002F
ENCODING 47
SWIDTH 562 0
DWIDTH 9 0
BBX 7 14 1 -2
BITMAP
02
02
04
04
08
08
10
10
20
20
40
40
80
80
ENDCHAR
STARTCHAR uni0030
ENCODING 48
SWIDTH 562 0
DWIDTH 9 0
BBX 7 10 1 0
BITMAP
38
44
82
82
92
92
82
82
44
38
ENDCHAR
STARTCHAR uni0031
ENCODING 49
SWIDTH 562 0
DWIDTH 9 0
BBX 7 10 1 0
BITMAP
10
30
D0
10
10
10
10
10
10
FE
ENDCHAR
STARTCHAR uni0032
ENCODING 50
SWIDTH 562 0
DWIDTH 9 0
BBX 7 10 1 0
BITMAP
38
44
82
82
04
08
10
20
42
FE
ENDCHAR
STARTCHAR uni0033
ENCODING 51
SWIDTH 562 0
DWIDTH 9 0
BBX 7 10 1 0
BITMAP
38
44
82
04
18
24
02
82
44
38
ENDCHAR
STARTCHAR uni0034
ENCODING 52
SWIDTH 562 0
DWIDTH 9 0
BBX 7 10 1 0
BITMAP
04
0C
14
24
44
84
84
FE
04
04
ENDCHAR
STARTCHAR uni0035
ENCODING 53
SWIDTH 562 0
DWIDTH 9 0
BBX 7 10 1 0
BITMAP
7C
42
80
B8
C4
02
02
82
44
38
ENDCHAR
STARTCHAR uni0036
ENCODING 54
SWIDTH 562 0
DWIDTH 9 0
BBX 7 10 1 0
BITMAP
38
44
80
B8
C4
82
82
82
44
38
ENDCHAR
STARTCHAR uni0037
ENCODING 55
SWIDTH 562 0
DWIDTH 9 0
BBX 7 10 1 0
BITMAP
7E
82
02
04
04
08
08
10
10
10
ENDCHAR
STARTCHAR uni0038
ENCODING 56
SWIDTH 562 0
DWIDTH 9 0
BBX 7 10 1 0
BITMAP
38
44
82
44
38
44
82
82
44
38
ENDCHAR
STARTCHAR uni0039
ENCODING 57
SWIDTH 562 0
DWIDTH 9 0
BBX 7 10 1 0
BITMAP
38
44
82
82
82
46
3A
02
44
38
ENDCHAR
STARTCHAR uni003A
ENCODING 58
SWIDTH 562 0
DWIDTH 9 0
BBX 1 4 4 0
BITMAP
80
00
00
80
ENDCHAR
STARTCHAR uni003B
ENCODING 59
SWIDTH 562 0
DWIDTH 9 0
BBX 2 4 3 0
BITMAP
40
00
40
80
ENDCHAR
STARTCHAR uni003C
ENCODING 60
SWIDTH 562 0
DWIDTH 9 0
BBX 7 7 1 1
BITMAP
06
18
60
80
60
18
06
ENDCHAR
STARTCHAR uni003D
ENCODING 61
SWIDTH 562 0
DWIDTH 9 0
BBX 7 5 1 2
BITMAP
FE
00
00
00
FE
ENDCHAR
STARTCHAR uni003E
ENCODING 62
SWIDTH 562 0
DWIDTH 9 0
BBX 7 7 1 1
BITMAP
C0
30
0C
02
0C
30
C0
ENDCHAR
STARTCHAR uni003F
ENCODING 63
SWIDTH 562 0
DWIDTH 9 0
BBX 7 10 1 0
BITMAP
38
44
82
82
04
08
10
10
00
10
ENDCHAR
STARTCHAR uni0040
ENCODING 64
SWIDTH 562 0
DWIDTH 9 0
BBX 7 10 1 0
BITMAP
38
44
92
AA
9A
AA
AA
9C
40
3C
ENDCHAR
STARTCHAR uni0041
ENCODING 65
SWIDTH 562 0
DWIDTH 9 0
BBX 7 10 1 0
BITMAP
10
28
28
44
44
7C
82
82
82
82
ENDCHAR
STARTCHAR uni0042
ENCODING 66
SWIDTH 562 0
DWIDTH 9 0
BBX 7 10 1 0
BITMAP
F8
84
82
84
F8
84
82
82
84
F8
ENDCHAR
STARTCHAR uni0043
ENCODING 67
SWIDTH 562 0
DWIDTH 9 0
BBX 7 10 1 0
BITMAP
38
44
82
80
80
80
80
82
44
38
ENDCHAR
STARTCHAR uni0044
ENCODING 68
SWIDTH 562 0
DWIDTH 9 0
BBX 7 10 1 0
BITMAP
F8
84
82
82
82
82
82
82
84
F8
ENDCHAR
STARTCHAR uni0045
ENCODING 69
SWIDTH 562 0
DWIDTH 9 0
BBX 7 10 1 0
BITMAP
FE
80
80
80
FC
80
80
80
80
FE
ENDCHAR
STARTCHAR uni0046
ENCODING 70
SWIDTH 562 0
DWIDTH 9 0
BBX 7 10 1 0
BITMAP
FE
80
80
80
FC
80
80
80
80
80
ENDCHAR
STARTCHAR uni0047
ENCODING 71
SWIDTH 562 0
DWIDTH 9 0
BBX 7 10 1 0
BITMAP
38
44
82
80
80
9E
82
82
44
38
ENDCHAR
STARTCHAR uni0048
ENCODING 72
SWIDTH 562 0
DWIDTH 9 0
BBX 7 10 1 0
BITMAP
82
82
82
82
FE
82
82
82
82
82
ENDCHAR
STARTCHAR uni0049
ENCODING 73
SWIDTH 562 0
DWIDTH 9 0
BBX 7 10 1 0
BITMAP
FE
10
10
10
10
10
10
10
10
FE
ENDCHAR
STARTCHAR uni004A
ENCODING 74
SWIDTH 562 0
DWIDTH 9 0
BBX 7 10 1 0
BITMAP
7E
04
04
04
04
04
04
04
88
70
ENDCHAR
STARTCHAR uni004B
ENCODING 75
SWIDTH 562 0
DWIDTH 9 0
BBX 7 10 1 0
BITMAP
86
88
90
A0
C0
A0
90
88
84
82
ENDCHAR
STARTCHAR uni004C
ENCODING 76
SWIDTH 562 0
DWIDTH 9 0
BBX 7 10 1 0
BITMAP
C0
40
40
40
40
40
40
40
40
7E
ENDCHAR
STARTCHAR uni004D
ENCODING 77
SWIDTH 562 0
DWIDTH 9 0
BBX 7 10 1 0
BITMAP
82
C6
AA
AA
AA
92
92
82
82
82
ENDCHAR
STARTCHAR uni004E
ENCODING 78
SWIDTH 562 0
DWIDTH 9 0
BBX 7 10 1 0
BITMAP
82
C2
A2
A2
92
92
8A
8A
86
82
ENDCHAR
STARTCHAR uni004F
ENCODING 79
SWIDTH 562 0
DWIDTH 9 0
BBX 7 10 1 0
BITMAP
38
44
82
82
82
82
82
82
44
38
ENDCHAR
STARTCHAR uni0050
ENCODING 80
SWIDTH 562 0
DWIDTH 9 0
BBX 7 10 1 0
BITMAP
F8
84
82
82
84
F8
80
80
80
80
ENDCHAR
STARTCHAR uni0051
ENCODING 81
SWIDTH 562 0
DWIDTH 9 0
BBX 7 10 1 0
BITMAP
38
44
82
82
82
92
92
8A
44
3A
ENDCHAR
STARTCHAR uni0052
ENCODING 82
SWIDTH 562 0
DWIDTH 9 0
BBX 7 10 1 0
BITMAP
F8
84
82
82
84
F8
90
88
84
82
ENDCHAR
STARTCHAR uni0053
ENCODING 83
SWIDTH 562 0
DWIDTH 9 0
BBX 7 10 1 0
BITMAP
38
44
82
80
70
0C
02
82
44
38
ENDCHAR
STARTCHAR uni0054
ENCODING 84
SWIDTH 562 0
DWIDTH 9 0
BBX 7 10 1 0
BITMAP
FE
10
10
10
10
10
10
10
10
10
ENDCHAR
STARTCHAR uni0055
ENCODING 85
SWIDTH 562 0
DWIDTH 9 0
BBX 7 10 1 0
BITMAP
82
82
82
82
82
82
82
82
44
38
ENDCHAR
STARTCHAR uni0056
ENCODING 86
SWIDTH 562 0
DWIDTH 9 0
BBX 7 10 1 0
BITMAP
82
82
82
44
44
44
44
28
28
10
ENDCHAR
STARTCHAR uni0057
ENCODING 87
SWIDTH 562 0
DWIDTH 9 0
BBX 7 10 1 0
BITMAP
82
82
82
92
92
92
92
AA
AA
44
ENDCHAR
STARTCHAR uni0058
ENCODING 88
SWIDTH 562 0
DWIDTH 9 0
BBX 7 10 1 0
BITMAP
82
44
44
28
10
10
28
44
44
82
ENDCHAR
STARTCHAR uni0059
ENCODING 89
SWIDTH 562 0
DWIDTH 9 0
BBX 7 10 1 0
BITMAP
82
82
44
44
28
10
10
10
10
10
ENDCHAR
STARTCHAR uni005A
ENCODING 90
SWIDTH 562 0
DWIDTH 9 0
BBX 7 10 1 0
BITMAP
FE
04
04
08
10
10
20
40
40
FE
ENDCHAR
STARTCHAR uni005B
ENCODING 91
SWIDTH 562 0
DWIDTH 9 0
BBX 3 11 3 -1
BITMAP
60
80
80
80
80
80
80
80
80
80
60
ENDCHAR
STARTCHAR uni005C
ENCODING 92
SWIDTH 562 0
DWIDTH 9 0
BBX 7 14 1 -2
BITMAP
80
80
40
40
20
20
10
10
08
08
04
04
02
02
ENDCHAR
STARTCHAR uni005D
ENCODING 93
SWIDTH 562 0
DWIDTH 9 0
BBX 3 11 3 -1
BITMAP
C0
20
20
20
20
20
20
20
20
20
C0
ENDCHAR
STARTCHAR uni005E
ENCODING 94
SWIDTH 562 0
DWIDTH 9 0
BBX 7 4 1 7
BITMAP
10
28
44
82
ENDCHAR
STARTCHAR uni005F
ENCODING 95
SWIDTH 562 0
DWIDTH 9 0
BBX 7 1 1 0
BITMAP
FE
ENDCHAR
STARTCHAR uni0060
ENCODING 96
SWIDTH 562 0
DWIDTH 9 0
BBX 2 2 3 10
BITMAP
80
40
ENDCHAR
STARTCHAR uni0061
ENCODING 97
SWIDTH 562 0
DWIDTH 9 0
BBX 7 7 1 0
BITMAP
70
88
04
74
8C
84
7A
ENDCHAR
STARTCHAR uni0062
ENCODING 98
SWIDTH 562 0
DWIDTH 9 0
BBX 7 10 1 0
BITMAP
80
80
80
B8
C4
82
82
82
C4
B8
ENDCHAR
STARTCHAR uni0063
ENCODING 99
SWIDTH 562 0
DWIDTH 9 0
BBX 7 7 1 0
BITMAP
3C
42
80
80
80
42
3C
ENDCHAR
STARTCHAR uni0064
ENCODING 100
SWIDTH 562 0
DWIDTH 9 0
BBX 7 11 1 0
BITMAP
02
02
02
02
3A
46
82
82
82
46
3A
ENDCHAR
STARTCHAR uni0065
ENCODING 101
SWIDTH 562 0
DWIDTH 9 0
BBX 7 7 1 0
BITMAP
38
44
82
FC
80
44
38
ENDCHAR
STARTCHAR uni0066
ENCODING 102
SWIDTH 562 0
DWIDTH 9 0
BBX 7 13 1 -2
BITMAP
0C
12
10
10
FE
10
10
10
10
10
10
50
20
ENDCHAR
STARTCHAR uni0067
ENCODING 103
SWIDTH 562 0
DWIDTH 9 0
BBX 7 10 1 -3
BITMAP
3A
44
82
82
82
46
3A
02
44
38
ENDCHAR
STARTCHAR uni0068
ENCODING 104
SWIDTH 562 0
DWIDTH 9 0
BBX 7 10 1 0
BITMAP
40
C0
40
58
64
42
42
42
42
42
ENDCHAR
STARTCHAR uni0069
ENCODING 105
SWIDTH 562 0
DWIDTH 9 0
BBX 7 10 1 0
BITMAP
10
10
00
30
D0
10
10
10
12
0C
ENDCHAR
STARTCHAR uni006A
ENCODING 106
SWIDTH 562 0
DWIDTH 9 0
BBX 7 12 1 -2
BITMAP
02
02
00
3E
02
02
02
02
02
82
44
38
ENDCHAR
STARTCHAR uni006B
ENCODING 107
SWIDTH 562 0
DWIDTH 9 0
BBX 7 10 1 0
BITMAP
80
80
80
8C
90
E0
A0
90
88
86
ENDCHAR
STARTCHAR uni006C
ENCODING 108
SWIDTH 562 0
DWIDTH 9 0
BBX 7 10 1 0
BITMAP
20
E0
20
20
20
20
20
20
12
0C
ENDCHAR
STARTCHAR uni006D
ENCODING 109
SWIDTH 562 0
DWIDTH 9 0
BBX 7 7 1 0
BITMAP
6C
92
92
92
92
92
92
ENDCHAR
STARTCHAR uni006E
ENCODING 110
SWIDTH 562 0
DWIDTH 9 0
BBX 7 7 1 0
BITMAP
98
64
42
42
42
42
42
ENDCHAR
STARTCHAR uni006F
ENCODING 111
SWIDTH 562 0
DWIDTH 9 0
BBX 7 7 1 0
BITMAP
38
44
82
82
82
44
38
ENDCHAR
STARTCHAR uni0070
ENCODING 112
SWIDTH 562 0
DWIDTH 9 0
BBX 7 10 1 -3
BITMAP
B8
C4
82
82
82
C4
B8
80
80
80
ENDCHAR
STARTCHAR uni0071
ENCODING 113
SWIDTH 562 0
DWIDTH 9 0
BBX 7 10 1 -3
BITMAP
3A
46
82
82
82
46
3A
02
02
02
ENDCHAR
STARTCHAR uni0072
ENCODING 114
SWIDTH 562 0
DWIDTH 9 0
BBX 7 7 1 0
BITMAP
98
A4
42
40
40
40
F8
ENDCHAR
STARTCHAR uni0073
ENCODING 115
SWIDTH 562 0
DWIDTH 9 0
BBX 7 7 1 0
BITMAP
3C
42
80
7C
02
84
78
ENDCHAR
STARTCHAR uni0074
ENCODING 116
SWIDTH 562 0
DWIDTH 9 0
BBX 7 10 1 0
BITMAP
10
10
10
FE
10
10
10
12
12
0C
ENDCHAR
STARTCHAR uni0075
ENCODING 117
SWIDTH 562 0
DWIDTH 9 0
BBX 7 7 1 0
BITMAP
42
C2
42
42
42
26
1A
ENDCHAR
STARTCHAR uni0076
ENCODING 118
SWIDTH 562 0
DWIDTH 9 0
BBX 7 7 1 0
BITMAP
82
82
44
44
44
28
10
ENDCHAR
STARTCHAR uni0077
ENCODING 119
SWIDTH 562 0
DWIDTH 9 0
BBX 7 7 1 0
BITMAP
92
92
92
92
92
AA
44
ENDCHAR
STARTCHAR uni0078
ENCODING 120
SWIDTH 562 0
DWIDTH 9 0
BBX 7 7 1 0
BITMAP
82
44
28
10
28
44
82
ENDCHAR
STARTCHAR uni0079
ENCODING 121
SWIDTH 562 0
DWIDTH 9 0
BBX 7 10 1 -3
BITMAP
82
82
44
44
28
28
10
10
A0
40
ENDCHAR
STARTCHAR uni007A
ENCODING 122
SWIDTH 562 0
DWIDTH 9 0
BBX 7 7 1 0
BITMAP
7E
84
08
10
20
42
FC
ENDCHAR
STARTCHAR uni007B
ENCODING 123
SWIDTH 562 0
DWIDTH 9 0
BBX 4 11 3 -1
BITMAP
30
40
40
40
40
80
40
40
40
40
30
ENDCHAR
STARTCHAR uni007C
ENCODING 124
SWIDTH 562 0
DWIDTH 9 0
BBX 1 12 4 -1
BITMAP
80
80
80
80
80
80
80
80
80
80
80
80
ENDCHAR
STARTCHAR uni007D
ENCODING 125
SWIDTH 562 0
DWIDTH 9 0
BBX 4 11 2 -1
BITMAP
C0
20
20
20
20
10
20
20
20
20
C0
ENDCHAR
STARTCHAR uni007E
ENCODING 126
SWIDTH 562 0
DWIDTH 9 0
BBX 7 3 1 4
BITMAP
60
92
0C
ENDCHAR
STARTCHAR uni00A0
ENCODING 160
SWIDTH 562 0
DWIDTH 9 0
BBX 1 1 0 0
BITMAP
00
ENDCHAR
STARTCHAR uni00A1
ENCODING 161
SWIDTH 562 0
DWIDTH 9 0
BBX 1 9 4 -1
BITMAP
80
80
00
80
80
80
80
80
80
ENDCHAR
STARTCHAR uni00A2
ENCODING 162
SWIDTH 562 0
DWIDTH 9 0
BBX 7 12 1 -1
BITMAP
10
10
3C
52
90
90
90
90
52
3C
10
10
ENDCHAR
STARTCHAR uni00A3
ENCODING 163
SWIDTH 562 0
DWIDTH 9 0
BBX 7 10 1 0
BITMAP
1C
22
20
20
FE
20
20
20
40
FE
ENDCHAR
STARTCHAR uni00A4
ENCODING 164
SWIDTH 562 0
DWIDTH 9 0
BBX 7 7 1 1
BITMAP
BA
44
82
82
82
44
BA
ENDCHAR
STARTCHAR uni00A5
ENCODING 165
SWIDTH 562 0
DWIDTH 9 0
BBX 7 10 1 0
BITMAP
82
44
44
28
FE
10
10
FE
10
10
ENDCHAR
STARTCHAR uni00A6
ENCODING 166
SWIDTH 562 0
DWIDTH 9 0
BBX 1 12 4 -1
BITMAP
80
80
80
80
80
00
00
80
80
80
80
80
ENDCHAR
STARTCHAR uni00A7
ENCODING 167
SWIDTH 562 0
DWIDTH 9 0
BBX 7 12 1 -1
BITMAP
7C
82
80
7C
12
62
8C
90
7C
02
82
7C
ENDCHAR
STARTCHAR uni00A8
ENCODING 168
SWIDTH 562 0
DWIDTH 9 0
BBX 3 1 3 10
BITMAP
A0
ENDCHAR
STARTCHAR uni00A9
ENCODING 169
SWIDTH 562 0
DWIDTH 9 0
BBX 7 10 1 0
BITMAP
38
44
92
AA
A2
A2
AA
92
44
38
ENDCHAR
STARTCHAR uni00AA
ENCODING 170
SWIDTH 562 0
DWIDTH 9 0
BBX 7 7 1 0
BITMAP
70
88
04
74
8C
84
7A
ENDCHAR
STARTCHAR uni00AB
ENCODING 171
SWIDTH 562 0
DWIDTH 9 0
BBX 6 7 2 0
BITMAP
24
48
48
90
48
48
24
ENDCHAR
STARTCHAR uni00AC
ENCODING 172
SWIDTH 562 0
DWIDTH 9 0
BBX 6 4 2 0
BITMAP
FC
04
04
04
ENDCHAR
STARTCHAR uni00AD
ENCODING 173
SWIDTH 562 0
DWIDTH 9 0
BBX 3 1 3 4
BITMAP
E0
ENDCHAR
STARTCHAR uni00AE
ENCODING 174
SWIDTH 562 0
DWIDTH 9 0
BBX 7 8 1 4
BITMAP
38
44
B2
AA
B2
AA
44
38
ENDCHAR
STARTCHAR uni00AF
ENCODING 175
SWIDTH 562 0
DWIDTH 9 0
BBX 5 1 2 11
BITMAP
F8
ENDCHAR
STARTCHAR uni00B0
ENCODING 176
SWIDTH 562 0
DWIDTH 9 0
BBX 4 4 2 7
BITMAP
60
90
90
60
ENDCHAR
STARTCHAR uni00B1
ENCODING 177
SWIDTH 562 0
DWIDTH 9 0
BBX 7 7 1 1
BITMAP
10
10
FE
10
10
00
FE
ENDCHAR
STARTCHAR uni00B2
ENCODING 178
SWIDTH 562 0
DWIDTH 9 0
BBX 7 10 1 0
BITMAP
38
44
82
82
04
08
10
20
42
FE
ENDCHAR
STARTCHAR uni00B3
ENCODING 179
SWIDTH 562 0
DWIDTH 9 0
BBX 7 10 1 0
BITMAP
38
44
82
04
18
24
02
82
44
38
ENDCHAR
STARTCHAR uni00B4
ENCODING 180
SWIDTH 562 0
DWIDTH 9 0
BBX 2 2 4 10
BITMAP
40
80
ENDCHAR
STARTCHAR uni00B5
ENCODING 181
SWIDTH 562 0
DWIDTH 9 0
BBX 7 9 1 -2
BITMAP
44
C4
44
44
44
64
5A
40
80
ENDCHAR
STARTCHAR uni00B6
ENCODING 182
SWIDTH 562 0
DWIDTH 9 0
BBX 6 12 2 -1
BITMAP
74
F4
F4
74
14
14
14
14
14
14
14
14
ENDCHAR
STARTCHAR uni00B7
ENCODING 183
SWIDTH 562 0
DWIDTH 9 0
BBX 1 1 4 4
BITMAP
80
ENDCHAR
STARTCHAR uni00B8
ENCODING 184
SWIDTH 562 0
DWIDTH 9 0
BBX 3 3 4 -3
BITMAP
C0
20
C0
ENDCHAR
STARTCHAR uni00B9
ENCODING 185
SWIDTH 562 0
DWIDTH 9 0
BBX 7 10 1 0
BITMAP
10
30
D0
10
10
10
10
10
10
FE
ENDCHAR
STARTCHAR uni00BA
ENCODING 186
SWIDTH 562 0
DWIDTH 9 0
BBX 7 7 1 0
BITMAP
38
44
82
82
82
44
38
ENDCHAR
STARTCHAR uni00BB
ENCODING 187
SWIDTH 562 0
DWIDTH 9 0
BBX 6 7 1 0
BITMAP
90
48
48
24
48
48
90
ENDCHAR
STARTCHAR uni00BC
ENCODING 188
SWIDTH 562 0
DWIDTH 9 0
BBX 7 10 1 0
BITMAP
42
C4
44
48
E8
14
2C
54
5E
84
ENDCHAR
STARTCHAR uni00BD
ENCODING 189
SWIDTH 562 0
DWIDTH 9 0
BBX 7 10 1 0
BITMAP
42
C4
44
48
E8
14
2A
44
48
8E
ENDCHAR
STARTCHAR uni00BE
ENCODING 190
SWIDTH 562 0
DWIDTH 9 0
BBX 7 10 1 0
BITMAP
C2
24
44
28
D0
14
2C
54
5E
84
ENDCHAR
STARTCHAR uni00BF
ENCODING 191
SWIDTH 562 0
DWIDTH 9 0
BBX 7 12 1 -3
BITMAP
10
10
00
10
10
20
40
80
80
82
44
38
ENDCHAR
STARTCHAR uni00C0
ENCODING 192
SWIDTH 562 0
DWIDTH 9 0
BBX 7 13 1 0
BITMAP
20
10
00
10
28
28
44
44
7C
82
82
82
82
ENDCHAR
STARTCHAR uni00C1
ENCODING 193
SWIDTH 562 0
DWIDTH 9 0
BBX 7 13 1 0
BITMAP
08
10
00
10
28
28
44
44
7C
82
82
82
82
ENDCHAR
STARTCHAR uni00C2
ENCODING 194
SWIDTH 562 0
DWIDTH 9 0
BBX 7 13 1 0
BITMAP
10
28
00
10
28
28
44
44
7C
82
82
82
82
ENDCHAR
STARTCHAR uni00C3
ENCODING 195
SWIDTH 562 0
DWIDTH 9 0
BBX 7 13 1 0
BITMAP
20
54
08
10
28
28
44
44
7C
82
82
82
82
ENDCHAR
STARTCHAR uni00C4
ENCODING 196
SWIDTH 562 0
DWIDTH 9 0
BBX 7 12 1 0
BITMAP
28
00
10
28
28
44
44
7C
82
82
82
82
ENDCHAR
STARTCHAR uni00C5
ENCODING 197
SWIDTH 562 0
DWIDTH 9 0
BBX 7 13 1 0
BITMAP
10
28
10
10
28
28
44
44
7C
82
82
82
82
ENDCHAR
STARTCHAR uni00C6
ENCODING 198
SWIDTH 562 0
DWIDTH 9 0
BBX 7 10 1 0
BITMAP
3E
50
50
90
9E
F0
90
90
90
9E
ENDCHAR
STARTCHAR uni00C7
ENCODING 199
SWIDTH 562 0
DWIDTH 9 0
BBX 7 13 1 -3
BITMAP
38
44
82
80
80
80
80
82
44
38
08
24
18
ENDCHAR
STARTCHAR uni00C8
ENCODING 200
SWIDTH 562 0
DWIDTH 9 0
BBX 7 13 1 0
BITMAP
20
10
00
FE
80
80
80
FC
80
80
80
80
FE
ENDCHAR
STARTCHAR uni00C9
ENCODING 201
SWIDTH 562 0
DWIDTH 9 0
BBX 7 13 1 0
BITMAP
08
10
00
FE
80
80
80
FC
80
80
80
80
FE
ENDCHAR
STARTCHAR uni00CA
ENCODING 202
SWIDTH 562 0
DWIDTH 9 0
BBX 7 13 1 0
BITMAP
10
28
00
FE
80
80
80
FC
80
80
80
80
FE
ENDCHAR
STARTCHAR uni00CB
ENCODING 203
SWIDTH 562 0
DWIDTH 9 0
BBX 7 12 1 0
BITMAP
28
00
FE
80
80
80
FC
80
80
80
80
FE
ENDCHAR
STARTCHAR uni00CC
ENCODING 204
SWIDTH 562 0
DWIDTH 9 0
BBX 7 13 1 0
BITMAP
20
10
00
FE
10
10
10
10
10
10
10
10
FE
ENDCHAR
STARTCHAR uni00CD
ENCODING 205
SWIDTH 562 0
DWIDTH 9 0
BBX 7 13 1 0
BITMAP
08
10
00
FE
10
10
10
10
10
10
10
10
FE
ENDCHAR
STARTCHAR uni00CE
ENCODING 206
SWIDTH 562 0
DWIDTH 9 0
BBX 7 13 1 0
BITMAP
10
28
00
FE
10
10
10
10
10
10
10
10
FE
ENDCHAR
STARTCHAR uni00CF
ENCODING 207
SWIDTH 562 0
DWIDTH 9 0
BBX 7 12 1 0
BITMAP
28
00
FE
10
10
10
10
10
10
10
10
FE
ENDCHAR
STARTCHAR uni00D0
ENCODING 208
SWIDTH 562 0
DWIDTH 9 0
BBX 7 10 1 0
BITMAP
F8
84
82
82
E2
82
82
82
84
F8
ENDCHAR
STARTCHAR uni00D1
ENCODING 209
SWIDTH 562 0
DWIDTH 9 0
BBX 7 13 1 0
BITMAP
20
54
08
82
C2
A2
A2
92
92
8A
8A
86
82
ENDCHAR
STARTCHAR uni00D2
ENCODING 210
SWIDTH 562 0
DWIDTH 9 0
BBX 7 13 1 0
BITMAP
20
10
00
38
44
82
82
82
82
82
82
44
38
ENDCHAR
STARTCHAR uni00D3
ENCODING 211
SWIDTH 562 0
DWIDTH 9 0
BBX 7 13 1 0
BITMAP
08
10
00
38
44
82
82
82
82
82
82
44
38
ENDCHAR
STARTCHAR uni00D4
ENCODING 212
SWIDTH 562 0
DWIDTH 9 0
BBX 7 13 1 0
BITMAP
10
28
00
38
44
82
82
82
82
82
82
44
38
ENDCHAR
STARTCHAR uni00D5
ENCODING 213
SWIDTH 562 0
DWIDTH 9 0
BBX 7 13 1 0
BITMAP
20
54
08
38
44
82
82
82
82
82
82
44
38
ENDCHAR
STARTCHAR uni00D6
ENCODING 214
SWIDTH 562 0
DWIDTH 9 0
BBX 7 12 1 0
BITMAP
28
00
38
44
82
82
82
82
82
82
44
38
ENDCHAR
STARTCHAR uni00D7
ENCODING 215
SWIDTH 562 0
DWIDTH 9 0
BBX 7 7 1 1
BITMAP
82
44
28
10
28
44
82
ENDCHAR
STARTCHAR uni00D8
ENCODING 216
SWIDTH 562 0
DWIDTH 9 0
BBX 7 10 1 0
BITMAP
3A
44
8A
8A
92
92
A2
A2
44
B8
ENDCHAR
STARTCHAR uni00D9
ENCODING 217
SWIDTH 562 0
DWIDTH 9 0
BBX 7 13 1 0
BITMAP
20
10
00
82
82
82
82
82
82
82
82
44
38
ENDCHAR
STARTCHAR uni00DA
ENCODING 218
SWIDTH 562 0
DWIDTH 9 0
BBX 7 13 1 0
BITMAP
08
10
00
82
82
82
82
82
82
82
82
44
38
ENDCHAR
STARTCHAR uni00DB
ENCODING 219
SWIDTH 562 0
DWIDTH 9 0
BBX 7 13 1 0
BITMAP
10
28
00
82
82
82
82
82
82
82
82
44
38
ENDCHAR
STARTCHAR uni00DC
ENCODING 220
SWIDTH 562 0
DWIDTH 9 0
BBX 7 12 1 0
BITMAP
28
00
82
82
82
82
82
82
82
82
44
38
ENDCHAR
STARTCHAR uni00DD
ENCODING 221
SWIDTH 562 0
DWIDTH 9 0
BBX 7 13 1 0
BITMAP
08
10
00
82
82
44
44
28
10
10
10
10
10
ENDCHAR
STARTCHAR uni00DE
ENCODING 222
SWIDTH 562 0
DWIDTH 9 0
BBX 7 10 1 0
BITMAP
80
F8
84
82
82
82
84
F8
80
80
ENDCHAR
STARTCHAR uni00DF
ENCODING 223
SWIDTH 562 0
DWIDTH 9 0
BBX 7 10 1 0
BITMAP
38
44
82
82
84
88
84
82
A2
9C
ENDCHAR
STARTCHAR uni00E0
ENCODING 224
SWIDTH 562 0
DWIDTH 9 0
BBX 7 10 1 0
BITMAP
40
20
00
70
88
04
74
8C
84
7A
ENDCHAR
STARTCHAR uni00E1
ENCODING 225
SWIDTH 562 0
DWIDTH 9 0
BBX 7 10 1 0
BITMAP
10
20
00
70
88
04
74
8C
84
7A
ENDCHAR
STARTCHAR uni00E2
ENCODING 226
SWIDTH 562 0
DWIDTH 9 0
BBX 7 10 1 0
BITMAP
20
50
00
70
88
04
74
8C
84
7A
ENDCHAR
STARTCHAR uni00E3
ENCODING 227
SWIDTH 562 0
DWIDTH 9 0
BBX 7 10 1 0
BITMAP
40
A8
10
70
88
04
74
8C
84
7A
ENDCHAR
STARTCHAR uni00E4
ENCODING 228
SWIDTH 562 0
DWIDTH 9 0
BBX 7 9 1 0
BITMAP
50
00
70
88
04
74
8C
84
7A
ENDCHAR
STARTCHAR uni00E5
ENCODING 229
SWIDTH 562 0
DWIDTH 9 0
BBX 7 10 1 0
BITMAP
20
50
20
70
88
04
74
8C
84
7A
ENDCHAR
STARTCHAR uni00E6
ENCODING 230
SWIDTH 562 0
DWIDTH 9 0
BBX 7 7 1 0
BITMAP
6E
90
10
7E
90
90
6E
ENDCHAR
STARTCHAR uni00E7
ENCODING 231
SWIDTH 562 0
DWIDTH 9 0
BBX 7 10 1 -3
BITMAP
3C
42
80
80
80
42
3C
08
24
18
ENDCHAR
STARTCHAR uni00E8
ENCODING 232
SWIDTH 562 0
DWIDTH 9 0
BBX 7 10 1 0
BITMAP
20
10
00
38
44
82
FC
80
44
38
ENDCHAR
STARTCHAR uni00E9
ENCODING 233
SWIDTH 562 0
DWIDTH 9 0
BBX 7 10 1 0
BITMAP
08
10
00
38
44
82
FC
80
44
38
ENDCHAR
STARTCHAR uni00EA
ENCODING 234
SWIDTH 562 0
DWIDTH 9 0
BBX 7 10 1 0
BITMAP
10
28
00
38
44
82
FC
80
44
38
ENDCHAR
STARTCHAR uni00EB
ENCODING 235
SWIDTH 562 0
DWIDTH 9 0
BBX 7 9 1 0
BITMAP
28
00
38
44
82
FC
80
44
38
ENDCHAR
STARTCHAR uni00EC
ENCODING 236
SWIDTH 562 0
DWIDTH 9 0
BBX 7 13 1 0
BITMAP
20
10
00
10
F0
10
10
10
10
10
10
12
0C
ENDCHAR
STARTCHAR uni00ED
ENCODING 237
SWIDTH 562 0
DWIDTH 9 0
BBX 7 13 1 0
BITMAP
08
10
00
10
F0
10
10
10
10
10
10
12
0C
ENDCHAR
STARTCHAR uni00EE
ENCODING 238
SWIDTH 562 0
DWIDTH 9 0
BBX 7 13 1 0
BITMAP
10
28
00
10
F0
10
10
10
10
10
10
12
0C
ENDCHAR
STARTCHAR uni00EF
ENCODING 239
SWIDTH 562 0
DWIDTH 9 0
BBX 7 12 1 0
BITMAP
28
00
10
F0
10
10
10
10
10
10
12
0C
ENDCHAR
STARTCHAR uni00F0
ENCODING 240
SWIDTH 562 0
DWIDTH 9 0
BBX 7 10 1 0
BITMAP
6C
10
68
04
32
4A
86
82
44
38
ENDCHAR
STARTCHAR uni00F1
ENCODING 241
SWIDTH 562 0
DWIDTH 9 0
BBX 7 10 1 0
BITMAP
20
54
08
98
64
42
42
42
42
42
ENDCHAR
STARTCHAR uni00F2
ENCODING 242
SWIDTH 562 0
DWIDTH 9 0
BBX 7 10 1 0
BITMAP
20
10
00
38
44
82
82
82
44
38
ENDCHAR
STARTCHAR uni00F3
ENCODING 243
SWIDTH 562 0
DWIDTH 9 0
BBX 7 10 1 0
BITMAP
08
10
00
38
44
82
82
82
44
38
ENDCHAR
STARTCHAR uni00F4
ENCODING 244
SWIDTH 562 0
DWIDTH 9 0
BBX 7 10 1 0
BITMAP
10
28
00
38
44
82
82
82
44
38
ENDCHAR
STARTCHAR uni00F5
ENCODING 245
SWIDTH 562 0
DWIDTH 9 0
BBX 7 10 1 0
BITMAP
20
54
08
38
44
82
82
82
44
38
ENDCHAR
STARTCHAR uni00F6
ENCODING 246
SWIDTH 562 0
DWIDTH 9 0
BBX 7 9 1 0
BITMAP
28
00
38
44
82
82
82
44
38
ENDCHAR
STARTCHAR uni00F7
ENCODING 247
SWIDTH 562 0
DWIDTH 9 0
BBX 7 7 1 1
BITMAP
10
10
00
FE
00
10
10
ENDCHAR
STARTCHAR uni00F8
ENCODING 248
SWIDTH 562 0
DWIDTH 9 0
BBX 7 7 1 0
BITMAP
3A
44
8A
92
A2
44
B8
ENDCHAR
STARTCHAR uni00F9
ENCODING 249
SWIDTH 562 0
DWIDTH 9 0
BBX 7 10 1 0
BITMAP
20
10
00
42
C2
42
42
42
26
1A
ENDCHAR
STARTCHAR uni00FA
ENCODING 250
SWIDTH 562 0
DWIDTH 9 0
BBX 7 10 1 0
BITMAP
08
10
00
42
C2
42
42
42
26
1A
ENDCHAR
STARTCHAR uni00FB
ENCODING 251
SWIDTH 562 0
DWIDTH 9 0
BBX 7 10 1 0
BITMAP
10
28
00
42
C2
42
42
42
26
1A
ENDCHAR
STARTCHAR uni00FC
ENCODING 252
SWIDTH 562 0
DWIDTH 9 0
BBX 7 9 1 0
BITMAP
28
00
42
C2
42
42
42
26
1A
ENDCHAR
STARTCHAR uni00FD
ENCODING 253
SWIDTH 562 0
DWIDTH 9 0
BBX 7 13 1 -3
BITMAP
08
10
00
82
82
44
44
28
28
10
10
A0
40
ENDCHAR
STARTCHAR uni00FE
ENCODING 254
SWIDTH 562 0
DWIDTH 9 0
BBX 7 13 1 -3
BITMAP
80
80
80
B8
C4
82
82
82
C4
B8
80
80
80
ENDCHAR
STARTCHAR uni00FF
ENCODING 255
SWIDTH 562 0
DWIDTH 9 0
BBX 7 12 1 -3
BITMAP
28
00
82
82
44
44
28
28
10
10
A0
40
ENDCHAR
STARTCHAR uni0100
ENCODING 256
SWIDTH 562 0
DWIDTH 9 0
BBX 7 12 1 0
BITMAP
7C
00
10
28
28
44
44
7C
82
82
82
82
ENDCHAR
STARTCHAR uni0101
ENCODING 257
SWIDTH 562 0
DWIDTH 9 0
BBX 7 9 1 0
BITMAP
F8
00
70
88
04
74
8C
84
7A
ENDCHAR
STARTCHAR uni0102
ENCODING 258
SWIDTH 562 0
DWIDTH 9 0
BBX 7 13 1 0
BITMAP
44
38
00
10
28
28
44
44
7C
82
82
82
82
ENDCHAR
STARTCHAR uni0103
ENCODING 259
SWIDTH 562 0
DWIDTH 9 0
BBX 7 10 1 0
BITMAP
88
70
00
70
88
04
74
8C
84
7A
ENDCHAR
STARTCHAR uni0104
ENCODING 260
SWIDTH 562 0
DWIDTH 9 0
BBX 7 13 1 -3
BITMAP
10
28
28
44
44
7C
82
82
82
82
10
24
18
ENDCHAR
STARTCHAR uni0105
ENCODING 261
SWIDTH 562 0
DWIDTH 9 0
BBX 7 10 1 -3
BITMAP
70
88
04
74
8C
84
7A
10
24
18
ENDCHAR
STARTCHAR uni0106
ENCODING 262
SWIDTH 562 0
DWIDTH 9 0
BBX 7 13 1 0
BITMAP
08
10
00
38
44
82
80
80
80
80
82
44
38
ENDCHAR
STARTCHAR uni0107
ENCODING 263
SWIDTH 562 0
DWIDTH 9 0
BBX 7 10 1 0
BITMAP
08
10
00
3C
42
80
80
80
42
3C
ENDCHAR
STARTCHAR uni0108
ENCODING 264
SWIDTH 562 0
DWIDTH 9 0
BBX 7 13 1 0
BITMAP
10
28
00
38
44
82
80
80
80
80
82
44
38
ENDCHAR
STARTCHAR uni0109
ENCODING 265
SWIDTH 562 0
DWIDTH 9 0
BBX 7 10 1 0
BITMAP
10
28
00
3C
42
80
80
80
42
3C
ENDCHAR
STARTCHAR uni010A
ENCODING 266
SWIDTH 562 0
DWIDTH 9 0
BBX 7 12 1 0
BITMAP
10
00
38
44
82
80
80
80
80
82
44
38
ENDCHAR
STARTCHAR uni010B
ENCODING 267
SWIDTH 562 0
DWIDTH 9 0
BBX 7 9 1 0
BITMAP
10
00
3C
42
80
80
80
42
3C
ENDCHAR
STARTCHAR uni010C
ENCODING 268
SWIDTH 562 0
DWIDTH 9 0
BBX 7 13 1 0
BITMAP
28
10
00
38
44
82
80
80
80
80
82
44
38
ENDCHAR
STARTCHAR uni010D
ENCODING 269
SWIDTH 562 0
DWIDTH 9 0
BBX 7 10 1 0
BITMAP
28
10
00
3C
42
80
80
80
42
3C
ENDCHAR
STARTCHAR uni010E
ENCODING 270
SWIDTH 562 0
DWIDTH 9 0
BBX 7 13 1 0
BITMAP
28
10
00
F8
84
82
82
82
82
82
82
84
F8
ENDCHAR
STARTCHAR uni010F
ENCODING 271
SWIDTH 562 0
DWIDTH 9 0
BBX 9 12 1 0
BITMAP
0880
0300
0200
0200
0200
3A00
4600
8200
8200
8200
4600
3A00
ENDCHAR
STARTCHAR uni0110
ENCODING 272
SWIDTH 562 0
DWIDTH 9 0
BBX 7 10 1 0
BITMAP
F8
84
82
82
E2
82
82
82
84
F8
ENDCHAR
STARTCHAR uni0111
ENCODING 273
SWIDTH 562 0
DWIDTH 9 0
BBX 8 11 1 0
BITMAP
02
02
1F
02
3A
46
82
82
82
46
3A
ENDCHAR
STARTCHAR uni0112
ENCODING 274
SWIDTH 562 0
DWIDTH 9 0
BBX 7 12 1 0
BITMAP
7C
00
FE
80
80
80
FC
80
80
80
80
FE
ENDCHAR
STARTCHAR uni0113
ENCODING 275
SWIDTH 562 0
DWIDTH 9 0
BBX 7 9 1 0
BITMAP
7C
00
38
44
82
FC
80
44
38
ENDCHAR
STARTCHAR uni0116
ENCODING 278
SWIDTH 562 0
DWIDTH 9 0
BBX 7 12 1 0
BITMAP
10
00
FE
80
80
80
FC
80
80
80
80
FE
ENDCHAR
STARTCHAR uni0117
ENCODING 279
SWIDTH 562 0
DWIDTH 9 0
BBX 7 9 1 0
BITMAP
10
00
38
44
82
FC
80
44
38
ENDCHAR
STARTCHAR uni0118
ENCODING 280
SWIDTH 562 0
DWIDTH 9 0
BBX 7 13 1 -3
BITMAP
FE
80
80
80
FC
80
80
80
80
FE
10
24
18
ENDCHAR
STARTCHAR uni0119
ENCODING 281
SWIDTH 562 0
DWIDTH 9 0
BBX 7 10 1 -3
BITMAP
38
44
82
FC
80
44
38
10
24
18
ENDCHAR
STARTCHAR uni011A
ENCODING 282
SWIDTH 562 0
DWIDTH 9 0
BBX 7 13 1 0
BITMAP
28
10
00
FE
80
80
80
FC
80
80
80
80
FE
ENDCHAR
STARTCHAR uni011B
ENCODING 283
SWIDTH 562 0
DWIDTH 9 0
BBX 7 10 1 0
BITMAP
28
10
00
38
44
82
FC
80
44
38
ENDCHAR
STARTCHAR uni011C
ENCODING 284
SWIDTH 562 0
DWIDTH 9 0
BBX 7 13 1 0
BITMAP
10
28
00
38
44
82
80
80
9E
82
82
44
38
ENDCHAR
STARTCHAR uni011D
ENCODING 285
SWIDTH 562 0
DWIDTH 9 0
BBX 7 13 1 -3
BITMAP
10
28
00
3A
44
82
82
82
46
3A
02
44
38
ENDCHAR
STARTCHAR uni011E
ENCODING 286
SWIDTH 562 0
DWIDTH 9 0
BBX 7 13 1 0
BITMAP
44
38
00
38
44
82
80
80
9E
82
82
44
38
ENDCHAR
STARTCHAR uni011F
ENCODING 287
SWIDTH 562 0
DWIDTH 9 0
BBX 7 13 1 -3
BITMAP
44
38
00
3A
44
82
82
82
46
3A
02
44
38
ENDCHAR
STARTCHAR uni0120
ENCODING 288
SWIDTH 562 0
DWIDTH 9 0
BBX 7 12 1 0
BITMAP
10
00
38
44
82
80
80
9E
82
82
44
38
ENDCHAR
STARTCHAR uni0121
ENCODING 289
SWIDTH 562 0
DWIDTH 9 0
BBX 7 12 1 -3
BITMAP
10
00
3A
44
82
82
82
46
3A
02
44
38
ENDCHAR
STARTCHAR uni0122
ENCODING 290
SWIDTH 562 0
DWIDTH 9 0
BBX 7 13 1 -3
BITMAP
38
44
82
80
80
9E
82
82
44
38
00
10
20
ENDCHAR
STARTCHAR uni0123
ENCODING 291
SWIDTH 562 0
DWIDTH 9 0
BBX 7 14 1 -3
BITMAP
08
10
18
00
3A
44
82
82
82
46
3A
02
44
38
ENDCHAR
STARTCHAR uni0124
ENCODING 292
SWIDTH 562 0
DWIDTH 9 0
BBX 7 13 1 0
BITMAP
10
28
00
82
82
82
82
FE
82
82
82
82
82
ENDCHAR
STARTCHAR uni0125
ENCODING 293
SWIDTH 562 0
DWIDTH 9 0
BBX 7 16 1 0
BITMAP
10
28
00
00
00
00
40
C0
40
58
64
42
42
42
42
42
ENDCHAR
STARTCHAR uni0126
ENCODING 294
SWIDTH 562 0
DWIDTH 9 0
BBX 7 10 1 0
BITMAP
44
FE
44
44
44
7C
44
44
44
44
ENDCHAR
STARTCHAR uni0127
ENCODING 295
SWIDTH 562 0
DWIDTH 9 0
BBX 7 10 1 0
BITMAP
40
F8
40
58
64
42
42
42
42
42
ENDCHAR
STARTCHAR uni0128
ENCODING 296
SWIDTH 562 0
DWIDTH 9 0
BBX 7 13 1 0
BITMAP
20
54
08
FE
10
10
10
10
10
10
10
10
FE
ENDCHAR
STARTCHAR uni0129
ENCODING 297
SWIDTH 562 0
DWIDTH 9 0
BBX 7 10 1 0
BITMAP
20
54
08
10
F0
10
10
10
12
0C
ENDCHAR
STARTCHAR uni012A
ENCODING 298
SWIDTH 562 0
DWIDTH 9 0
BBX 7 12 1 0
BITMAP
7C
00
FE
10
10
10
10
10
10
10
10
FE
ENDCHAR
STARTCHAR uni012B
ENCODING 299
SWIDTH 562 0
DWIDTH 9 0
BBX 7 12 1 0
BITMAP
7C
00
10
F0
10
10
10
10
10
10
12
0C
ENDCHAR
STARTCHAR uni012E
ENCODING 302
SWIDTH 562 0
DWIDTH 9 0
BBX 7 13 1 -3
BITMAP
FE
10
10
10
10
10
10
10
10
FE
10
24
18
ENDCHAR
STARTCHAR uni012F
ENCODING 303
SWIDTH 562 0
DWIDTH 9 0
BBX 7 13 1 -3
BITMAP
20
20
00
20
E0
20
20
20
22
1C
10
20
18
ENDCHAR
STARTCHAR uni0130
ENCODING 304
SWIDTH 562 0
DWIDTH 9 0
BBX 7 12 1 0
BITMAP
10
00
FE
10
10
10
10
10
10
10
10
FE
ENDCHAR
STARTCHAR uni0131
ENCODING 305
SWIDTH 562 0
DWIDTH 9 0
BBX 7 10 1 0
BITMAP
10
F0
10
10
10
10
10
10
12
0C
ENDCHAR
STARTCHAR uni0132
ENCODING 306
SWIDTH 562 0
DWIDTH 9 0
BBX 7 10 1 0
BITMAP
EE
42
42
42
42
42
42
42
4A
E4
ENDCHAR
STARTCHAR uni0133
ENCODING 307
SWIDTH 562 0
DWIDTH 9 0
BBX 7 13 1 -3
BITMAP
42
42
00
CE
42
42
42
42
52
22
02
12
0C
ENDCHAR
STARTCHAR uni0134
ENCODING 308
SWIDTH 562 0
DWIDTH 9 0
BBX 7 13 1 0
BITMAP
10
28
00
7E
04
04
04
04
04
04
04
88
70
ENDCHAR
STARTCHAR uni0135
ENCODING 309
SWIDTH 562 0
DWIDTH 9 0
BBX 7 12 1 -2
BITMAP
10
28
00
FE
10
10
10
10
10
10
90
60
ENDCHAR
STARTCHAR uni0136
ENCODING 310
SWIDTH 562 0
DWIDTH 9 0
BBX 7 13 1 -3
BITMAP
86
88
90
A0
C0
A0
90
88
84
82
00
10
20
ENDCHAR
STARTCHAR uni0137
ENCODING 311
SWIDTH 562 0
DWIDTH 9 0
BBX 7 13 1 -3
BITMAP
80
80
80
8C
90
E0
A0
90
88
86
00
10
20
ENDCHAR
STARTCHAR uni0139
ENCODING 313
SWIDTH 562 0
DWIDTH 9 0
BBX 7 13 1 0
BITMAP
08
10
00
C0
40
40
40
40
40
40
40
40
7E
ENDCHAR
STARTCHAR uni013A
ENCODING 314
SWIDTH 562 0
DWIDTH 9 0
BBX 7 13 1 0
BITMAP
10
20
00
20
E0
20
20
20
20
20
20
12
0C
ENDCHAR
STARTCHAR uni013B
ENCODING 315
SWIDTH 562 0
DWIDTH 9 0
BBX 7 13 1 -3
BITMAP
C0
40
40
40
40
40
40
40
40
7E
00
10
20
ENDCHAR
STARTCHAR uni013C
ENCODING 316
SWIDTH 562 0
DWIDTH 9 0
BBX 7 13 1 -3
BITMAP
20
E0
20
20
20
20
20
20
12
0C
00
10
20
ENDCHAR
STARTCHAR uni013D
ENCODING 317
SWIDTH 562 0
DWIDTH 9 0
BBX 7 10 1 0
BITMAP
C0
42
44
40
40
40
40
40
40
7E
ENDCHAR
STARTCHAR uni013E
ENCODING 318
SWIDTH 562 0
DWIDTH 9 0
BBX 9 12 1 0
BITMAP
0080
0100
2000
E000
2000
2000
2000
2000
2000
2000
1200
0C00
ENDCHAR
STARTCHAR uni0141
ENCODING 321
SWIDTH 562 0
DWIDTH 9 0
BBX 7 10 1 0
BITMAP
C0
40
40
4C
70
C0
40
40
40
7E
ENDCHAR
STARTCHAR uni0142
ENCODING 322
SWIDTH 562 0
DWIDTH 9 0
BBX 7 10 1 0
BITMAP
20
E0
20
26
38
E0
20
20
12
0C
ENDCHAR
STARTCHAR uni0143
ENCODING 323
SWIDTH 562 0
DWIDTH 9 0
BBX 7 13 1 0
BITMAP
08
10
00
82
C2
A2
A2
92
92
8A
8A
86
82
ENDCHAR
STARTCHAR uni0144
ENCODING 324
SWIDTH 562 0
DWIDTH 9 0
BBX 7 10 1 0
BITMAP
08
10
00
98
64
42
42
42
42
42
ENDCHAR
STARTCHAR uni0145
ENCODING 325
SWIDTH 562 0
DWIDTH 9 0
BBX 7 13 1 -3
BITMAP
82
C2
A2
A2
92
92
8A
8A
86
82
00
10
20
ENDCHAR
STARTCHAR uni0146
ENCODING 326
SWIDTH 562 0
DWIDTH 9 0
BBX 7 10 1 -3
BITMAP
98
64
42
42
42
42
42
00
10
20
ENDCHAR
STARTCHAR uni0147
ENCODING 327
SWIDTH 562 0
DWIDTH 9 0
BBX 7 13 1 0
BITMAP
28
10
00
82
C2
A2
A2
92
92
8A
8A
86
82
ENDCHAR
STARTCHAR uni0148
ENCODING 328
SWIDTH 562 0
DWIDTH 9 0
BBX 7 10 1 0
BITMAP
28
10
00
98
64
42
42
42
42
42
ENDCHAR
STARTCHAR uni014A
ENCODING 330
SWIDTH 562 0
DWIDTH 9 0
BBX 7 12 1 -2
BITMAP
82
C2
A2
A2
92
92
8A
8A
86
82
02
04
ENDCHAR
STARTCHAR uni014B
ENCODING 331
SWIDTH 562 0
DWIDTH 9 0
BBX 7 9 1 -2
BITMAP
B8
C4
82
82
82
82
82
02
0C
ENDCHAR
STARTCHAR uni014C
ENCODING 332
SWIDTH 562 0
DWIDTH 9 0
BBX 7 12 1 0
BITMAP
7C
00
38
44
82
82
82
82
82
82
44
38
ENDCHAR
STARTCHAR uni014D
ENCODING 333
SWIDTH 562 0
DWIDTH 9 0
BBX 7 9 1 0
BITMAP
7C
00
38
44
82
82
82
44
38
ENDCHAR
STARTCHAR uni0150
ENCODING 336
SWIDTH 562 0
DWIDTH 9 0
BBX 7 13 1 0
BITMAP
24
48
00
38
44
82
82
82
82
82
82
44
38
ENDCHAR
STARTCHAR uni0151
ENCODING 337
SWIDTH 562 0
DWIDTH 9 0
BBX 7 10 1 0
BITMAP
24
48
00
38
44
82
82
82
44
38
ENDCHAR
STARTCHAR uni0152
ENCODING 338
SWIDTH 562 0
DWIDTH 9 0
BBX 7 10 1 0
BITMAP
6E
90
90
90
9E
90
90
90
90
6E
ENDCHAR
STARTCHAR uni0153
ENCODING 339
SWIDTH 562 0
DWIDTH 9 0
BBX 7 7 1 0
BITMAP
6E
90
90
9E
90
90
6E
ENDCHAR
STARTCHAR uni0154
ENCODING 340
SWIDTH 562 0
DWIDTH 9 0
BBX 7 13 1 0
BITMAP
08
10
00
F8
84
82
82
84
F8
90
88
84
82
ENDCHAR
STARTCHAR uni0155
ENCODING 341
SWIDTH 562 0
DWIDTH 9 0
BBX 7 10 1 0
BITMAP
08
10
00
98
A4
42
40
40
40
F8
ENDCHAR
STARTCHAR uni0156
ENCODING 342
SWIDTH 562 0
DWIDTH 9 0
BBX 7 13 1 -3
BITMAP
F8
84
82
82
84
F8
90
88
84
82
00
10
20
ENDCHAR
STARTCHAR uni0157
ENCODING 343
SWIDTH 562 0
DWIDTH 9 0
BBX 7 10 1 -3
BITMAP
98
A4
42
40
40
40
F8
00
10
20
ENDCHAR
STARTCHAR uni0158
ENCODING 344
SWIDTH 562 0
DWIDTH 9 0
BBX 7 13 1 0
BITMAP
28
10
00
F8
84
82
82
84
F8
90
88
84
82
ENDCHAR
STARTCHAR uni0159
ENCODING 345
SWIDTH 562 0
DWIDTH 9 0
BBX 7 10 1 0
BITMAP
28
10
00
98
A4
42
40
40
40
F8
ENDCHAR
STARTCHAR uni015A
ENCODING 346
SWIDTH 562 0
DWIDTH 9 0
BBX 7 13 1 0
BITMAP
08
10
00
38
44
82
80
70
0C
02
82
44
38
ENDCHAR
STARTCHAR uni015B
ENCODING 347
SWIDTH 562 0
DWIDTH 9 0
BBX 7 10 1 0
BITMAP
08
10
00
3C
42
80
7C
02
84
78
ENDCHAR
STARTCHAR uni015C
ENCODING 348
SWIDTH 562 0
DWIDTH 9 0
BBX 7 13 1 0
BITMAP
10
28
00
38
44
82
80
70
0C
02
82
44
38
ENDCHAR
STARTCHAR uni015D
ENCODING 349
SWIDTH 562 0
DWIDTH 9 0
BBX 7 10 1 0
BITMAP
10
28
00
3C
42
80
7C
02
84
78
ENDCHAR
STARTCHAR uni015E
ENCODING 350
SWIDTH 562 0
DWIDTH 9 0
BBX 7 13 1 -3
BITMAP
38
44
82
80
70
0C
02
82
44
38
08
24
18
ENDCHAR
STARTCHAR uni015F
ENCODING 351
SWIDTH 562 0
DWIDTH 9 0
BBX 7 10 1 -3
BITMAP
3C
42
80
7C
02
84
78
08
24
18
ENDCHAR
STARTCHAR uni0160
ENCODING 352
SWIDTH 562 0
DWIDTH 9 0
BBX 7 13 1 0
BITMAP
28
10
00
38
44
82
80
70
0C
02
82
44
38
ENDCHAR
STARTCHAR uni0161
ENCODING 353
SWIDTH 562 0
DWIDTH 9 0
BBX 7 10 1 0
BITMAP
28
10
00
3C
42
80
7C
02
84
78
ENDCHAR
STARTCHAR uni0162
ENCODING 354
SWIDTH 562 0
DWIDTH 9 0
BBX 7 13 1 -3
BITMAP
FE
10
10
10
10
10
10
10
10
10
08
24
18
ENDCHAR
STARTCHAR uni0163
ENCODING 355
SWIDTH 562 0
DWIDTH 9 0
BBX 7 13 1 -3
BITMAP
10
10
10
FE
10
10
10
12
12
0C
08
24
18
ENDCHAR
STARTCHAR uni0164
ENCODING 356
SWIDTH 562 0
DWIDTH 9 0
BBX 7 13 1 0
BITMAP
28
10
00
FE
10
10
10
10
10
10
10
10
10
ENDCHAR
STARTCHAR uni0165
ENCODING 357
SWIDTH 562 0
DWIDTH 9 0
BBX 9 12 1 0
BITMAP
0080
0100
1000
1000
1000
FE00
1000
1000
1000
1200
1200
0C00
ENDCHAR
STARTCHAR uni0166
ENCODING 358
SWIDTH 562 0
DWIDTH 9 0
BBX 7 10 1 0
BITMAP
FE
10
10
10
10
7C
10
10
10
10
ENDCHAR
STARTCHAR uni0167
ENCODING 359
SWIDTH 562 0
DWIDTH 9 0
BBX 7 10 1 0
BITMAP
10
10
10
FE
10
7C
10
12
12
0C
ENDCHAR
STARTCHAR uni0168
ENCODING 360
SWIDTH 562 0
DWIDTH 9 0
BBX 7 13 1 0
BITMAP
20
54
08
82
82
82
82
82
82
82
82
44
38
ENDCHAR
STARTCHAR uni0169
ENCODING 361
SWIDTH 562 0
DWIDTH 9 0
BBX 7 10 1 0
BITMAP
20
54
08
42
C2
42
42
42
26
1A
ENDCHAR
STARTCHAR uni016A
ENCODING 362
SWIDTH 562 0
DWIDTH 9 0
BBX 7 12 1 0
BITMAP
7C
00
82
82
82
82
82
82
82
82
44
38
ENDCHAR
STARTCHAR uni016B
ENCODING 363
SWIDTH 562 0
DWIDTH 9 0
BBX 7 9 1 0
BITMAP
7C
00
42
C2
42
42
42
26
1A
ENDCHAR
STARTCHAR uni016C
ENCODING 364
SWIDTH 562 0
DWIDTH 9 0
BBX 7 13 1 0
BITMAP
44
38
00
82
82
82
82
82
82
82
82
44
38
ENDCHAR
STARTCHAR uni016D
ENCODING 365
SWIDTH 562 0
DWIDTH 9 0
BBX 7 10 1 0
BITMAP
44
38
00
42
C2
42
42
42
26
1A
ENDCHAR
STARTCHAR uni016E
ENCODING 366
SWIDTH 562 0
DWIDTH 9 0
BBX 7 13 1 0
BITMAP
10
28
10
82
82
82
82
82
82
82
82
44
38
ENDCHAR
STARTCHAR uni016F
ENCODING 367
SWIDTH 562 0
DWIDTH 9 0
BBX 7 10 1 0
BITMAP
10
28
10
42
C2
42
42
42
26
1A
ENDCHAR
STARTCHAR uni0170
ENCODING 368
SWIDTH 562 0
DWIDTH 9 0
BBX 7 13 1 0
BITMAP
24
48
00
82
82
82
82
82
82
82
82
44
38
ENDCHAR
STARTCHAR uni0171
ENCODING 369
SWIDTH 562 0
DWIDTH 9 0
BBX 7 10 1 0
BITMAP
24
48
00
42
C2
42
42
42
26
1A
ENDCHAR
STARTCHAR uni0172
ENCODING 370
SWIDTH 562 0
DWIDTH 9 0
BBX 7 13 1 -3
BITMAP
82
82
82
82
82
82
82
82
44
38
10
24
18
ENDCHAR
STARTCHAR uni0173
ENCODING 371
SWIDTH 562 0
DWIDTH 9 0
BBX 7 10 1 -3
BITMAP
42
C2
42
42
42
26
1A
10
24
18
ENDCHAR
STARTCHAR uni0174
ENCODING 372
SWIDTH 562 0
DWIDTH 9 0
BBX 7 13 1 0
BITMAP
10
28
00
82
82
82
92
92
92
92
AA
AA
44
ENDCHAR
STARTCHAR uni0175
ENCODING 373
SWIDTH 562 0
DWIDTH 9 0
BBX 7 10 1 0
BITMAP
10
28
00
92
92
92
92
92
AA
44
ENDCHAR
STARTCHAR uni0176
ENCODING 374
SWIDTH 562 0
DWIDTH 9 0
BBX 7 13 1 0
BITMAP
10
28
00
82
82
44
44
28
10
10
10
10
10
ENDCHAR
STARTCHAR uni0177
ENCODING 375
SWIDTH 562 0
DWIDTH 9 0
BBX 7 13 1 -3
BITMAP
10
28
00
82
82
44
44
28
28
10
10
A0
40
ENDCHAR
STARTCHAR uni0178
ENCODING 376
SWIDTH 562 0
DWIDTH 9 0
BBX 7 12 1 0
BITMAP
28
00
82
82
44
44
28
10
10
10
10
10
ENDCHAR
STARTCHAR uni0179
ENCODING 377
SWIDTH 562 0
DWIDTH 9 0
BBX 7 13 1 0
BITMAP
08
10
00
FE
04
04
08
10
10
20
40
40
FE
ENDCHAR
STARTCHAR uni017A
ENCODING 378
SWIDTH 562 0
DWIDTH 9 0
BBX 7 10 1 0
BITMAP
08
10
00
7E
84
08
10
20
42
FC
ENDCHAR
STARTCHAR uni017B
ENCODING 379
SWIDTH 562 0
DWIDTH 9 0
BBX 7 12 1 0
BITMAP
10
00
FE
04
04
08
10
10
20
40
40
FE
ENDCHAR
STARTCHAR uni017C
ENCODING 380
SWIDTH 562 0
DWIDTH 9 0
BBX 7 9 1 0
BITMAP
10
00
7E
84
08
10
20
42
FC
ENDCHAR
STARTCHAR uni017D
ENCODING 381
SWIDTH 562 0
DWIDTH 9 0
BBX 7 13 1 0
BITMAP
28
10
00
FE
04
04
08
10
10
20
40
40
FE
ENDCHAR
STARTCHAR uni017E
ENCODING 382
SWIDTH 562 0
DWIDTH 9 0
BBX 7 10 1 0
BITMAP
28
10
00
7E
84
08
10
20
42
FC
ENDCHAR
STARTCHAR uni0181
ENCODING 385
SWIDTH 562 0
DWIDTH 9 0
BBX 7 10 1 0
BITMAP
78
84
42
44
78
44
42
42
44
78
ENDCHAR
STARTCHAR uni0186
ENCODING 390
SWIDTH 562 0
DWIDTH 9 0
BBX 7 10 1 0
BITMAP
38
44
82
02
02
02
02
82
44
38
ENDCHAR
STARTCHAR uni0187
ENCODING 391
SWIDTH 562 0
DWIDTH 9 0
BBX 7 11 1 0
BITMAP
02
3A
44
82
80
80
80
80
82
44
38
ENDCHAR
STARTCHAR uni0188
ENCODING 392
SWIDTH 562 0
DWIDTH 9 0
BBX 7 9 1 0
BITMAP
02
04
3C
42
80
80
80
42
3C
ENDCHAR
STARTCHAR uni0189
ENCODING 393
SWIDTH 562 0
DWIDTH 9 0
BBX 7 10 1 0
BITMAP
78
44
42
42
F2
42
42
42
44
78
ENDCHAR
STARTCHAR uni018A
ENCODING 394
SWIDTH 562 0
DWIDTH 9 0
BBX 7 10 1 0
BITMAP
78
84
42
42
42
42
42
42
44
78
ENDCHAR
STARTCHAR uni018E
ENCODING 398
SWIDTH 562 0
DWIDTH 9 0
BBX 7 10 1 0
BITMAP
FE
02
02
02
7E
02
02
02
02
FE
ENDCHAR
STARTCHAR uni018F
ENCODING 399
SWIDTH 562 0
DWIDTH 9 0
BBX 7 10 1 0
BITMAP
38
44
82
02
02
FE
82
82
44
38
ENDCHAR
STARTCHAR uni0190
ENCODING 400
SWIDTH 562 0
DWIDTH 9 0
BBX 7 10 1 0
BITMAP
3C
42
80
40
38
40
80
80
42
3C
ENDCHAR
STARTCHAR uni0191
ENCODING 401
SWIDTH 562 0
DWIDTH 9 0
BBX 7 13 1 -3
BITMAP
7E
40
40
40
7C
40
40
40
40
40
40
40
80
ENDCHAR
STARTCHAR uni0192
ENCODING 402
SWIDTH 562 0
DWIDTH 9 0
BBX 7 14 1 -2
BITMAP
0C
12
10
20
20
FC
20
20
20
40
40
40
40
80
ENDCHAR
STARTCHAR uni0193
ENCODING 403
SWIDTH 562 0
DWIDTH 9 0
BBX 8 11 1 0
BITMAP
01
3A
46
82
80
80
9E
82
82
44
38
ENDCHAR
STARTCHAR uni0194
ENCODING 404
SWIDTH 562 0
DWIDTH 9 0
BBX 7 10 1 0
BITMAP
82
44
28
10
28
44
82
82
44
38
ENDCHAR
STARTCHAR uni0196
ENCODING 406
SWIDTH 562 0
DWIDTH 9 0
BBX 7 11 1 0
BITMAP
10
F0
10
10
10
10
10
10
10
12
0C
ENDCHAR
STARTCHAR uni0197
ENCODING 407
SWIDTH 562 0
DWIDTH 9 0
BBX 7 10 1 0
BITMAP
FE
10
10
10
7C
10
10
10
10
FE
ENDCHAR
STARTCHAR uni0198
ENCODING 408
SWIDTH 562 0
DWIDTH 9 0
BBX 7 10 1 0
BITMAP
84
8A
90
A0
C0
A0
90
88
84
82
ENDCHAR
STARTCHAR uni0199
ENCODING 409
SWIDTH 562 0
DWIDTH 9 0
BBX 7 10 1 0
BITMAP
40
80
84
88
90
E0
A0
90
88
86
ENDCHAR
STARTCHAR uni019D
ENCODING 413
SWIDTH 562 0
DWIDTH 9 0
BBX 7 12 1 -2
BITMAP
42
62
52
52
4A
4A
4A
46
42
42
40
80
ENDCHAR
STARTCHAR uni01A0
ENCODING 416
SWIDTH 562 0
DWIDTH 9 0
BBX 8 12 1 0
BITMAP
02
01
3A
44
82
82
82
82
82
82
44
38
ENDCHAR
STARTCHAR uni01A1
ENCODING 417
SWIDTH 562 0
DWIDTH 9 0
BBX 8 9 1 0
BITMAP
02
01
3A
44
82
82
82
44
38
ENDCHAR
STARTCHAR uni01A4
ENCODING 420
SWIDTH 562 0
DWIDTH 9 0
BBX 7 10 1 0
BITMAP
78
84
42
42
44
78
40
40
40
40
ENDCHAR
STARTCHAR uni01A5
ENCODING 421
SWIDTH 562 0
DWIDTH 9 0
BBX 7 13 1 -2
BITMAP
38
44
80
80
B8
C4
82
82
82
C4
B8
80
80
ENDCHAR
STARTCHAR uni01A9
ENCODING 425
SWIDTH 562 0
DWIDTH 9 0
BBX 7 10 1 0
BITMAP
FE
40
20
10
08
08
10
20
40
FE
ENDCHAR
STARTCHAR uni01AC
ENCODING 428
SWIDTH 562 0
DWIDTH 9 0
BBX 7 10 1 0
BITMAP
7E
90
10
10
10
10
10
10
10
10
ENDCHAR
STARTCHAR uni01AD
ENCODING 429
SWIDTH 562 0
DWIDTH 9 0
BBX 7 11 1 0
BITMAP
0C
12
10
10
FE
10
10
10
10
12
0C
ENDCHAR
STARTCHAR uni01AE
ENCODING 430
SWIDTH 562 0
DWIDTH 9 0
BBX 7 12 1 -2
BITMAP
FE
10
10
10
10
10
10
10
10
10
10
08
ENDCHAR
STARTCHAR uni01AF
ENCODING 431
SWIDTH 562 0
DWIDTH 9 0
BBX 8 12 1 0
BITMAP
02
01
82
82
82
82
82
82
82
82
44
38
ENDCHAR
STARTCHAR uni01B0
ENCODING 432
SWIDTH 562 0
DWIDTH 9 0
BBX 8 9 1 0
BITMAP
02
01
42
C2
42
42
42
26
1A
ENDCHAR
STARTCHAR uni01B1
ENCODING 433
SWIDTH 562 0
DWIDTH 9 0
BBX 7 10 1 0
BITMAP
EE
28
44
44
82
82
82
82
44
38
ENDCHAR
STARTCHAR uni01B2
ENCODING 434
SWIDTH 562 0
DWIDTH 9 0
BBX 7 10 1 0
BITMAP
88
84
82
82
82
82
82
82
44
38
ENDCHAR
STARTCHAR uni01B3
ENCODING 435
SWIDTH 562 0
DWIDTH 9 0
BBX 7 10 1 0
BITMAP
82
84
44
44
28
10
10
10
10
10
ENDCHAR
STARTCHAR uni01B4
ENCODING 436
SWIDTH 562 0
DWIDTH 9 0
BBX 7 12 1 -3
BITMAP
02
04
84
84
44
44
28
28
10
10
A0
40
ENDCHAR
STARTCHAR uni01B7
ENCODING 439
SWIDTH 562 0
DWIDTH 9 0
BBX 7 10 1 0
BITMAP
FE
04
08
10
78
04
02
82
44
38
ENDCHAR
STARTCHAR uni01C0
ENCODING 448
SWIDTH 562 0
DWIDTH 9 0
BBX 1 12 4 -2
BITMAP
80
80
80
80
80
80
80
80
80
80
80
80
ENDCHAR
STARTCHAR uni01C1
ENCODING 449
SWIDTH 562 0
DWIDTH 9 0
BBX 3 12 3 -2
BITMAP
A0
A0
A0
A0
A0
A0
A0
A0
A0
A0
A0
A0
ENDCHAR
STARTCHAR uni01C2
ENCODING 450
SWIDTH 562 0
DWIDTH 9 0
BBX 5 10 2 0
BITMAP
20
20
F8
20
20
F8
20
20
20
20
ENDCHAR
STARTCHAR uni01C3
ENCODING 451
SWIDTH 562 0
DWIDTH 9 0
BBX 1 10 4 0
BITMAP
80
80
80
80
80
80
80
00
80
80
ENDCHAR
STARTCHAR uni01CD
ENCODING 461
SWIDTH 562 0
DWIDTH 9 0
BBX 7 13 1 0
BITMAP
28
10
00
10
28
28
44
44
7C
82
82
82
82
ENDCHAR
STARTCHAR uni01CE
ENCODING 462
SWIDTH 562 0
DWIDTH 9 0
BBX 7 10 1 0
BITMAP
50
20
00
70
88
04
74
8C
84
7A
ENDCHAR
STARTCHAR uni01CF
ENCODING 463
SWIDTH 562 0
DWIDTH 9 0
BBX 7 13 1 0
BITMAP
28
10
00
FE
10
10
10
10
10
10
10
10
FE
ENDCHAR
STARTCHAR uni01D0
ENCODING 464
SWIDTH 562 0
DWIDTH 9 0
BBX 7 13 1 0
BITMAP
28
10
00
10
F0
10
10
10
10
10
10
12
0C
ENDCHAR
STARTCHAR uni01D1
ENCODING 465
SWIDTH 562 0
DWIDTH 9 0
BBX 7 13 1 0
BITMAP
28
10
00
38
44
82
82
82
82
82
82
44
38
ENDCHAR
STARTCHAR uni01D2
ENCODING 466
SWIDTH 562 0
DWIDTH 9 0
BBX 7 10 1 0
BITMAP
28
10
00
38
44
82
82
82
44
38
ENDCHAR
STARTCHAR uni01D3
ENCODING 467
SWIDTH 562 0
DWIDTH 9 0
BBX 7 13 1 0
BITMAP
28
10
00
82
82
82
82
82
82
82
82
44
38
ENDCHAR
STARTCHAR uni01D4
ENCODING 468
SWIDTH 562 0
DWIDTH 9 0
BBX 7 10 1 0
BITMAP
28
10
00
42
C2
42
42
42
26
1A
ENDCHAR
STARTCHAR uni01D5
ENCODING 469
SWIDTH 562 0
DWIDTH 9 0
BBX 7 14 1 0
BITMAP
7C
00
28
00
82
82
82
82
82
82
82
82
44
38
ENDCHAR
STARTCHAR uni01D6
ENCODING 470
SWIDTH 562 0
DWIDTH 9 0
BBX 7 11 1 0
BITMAP
7C
00
28
00
42
C2
42
42
42
26
1A
ENDCHAR
STARTCHAR uni01D7
ENCODING 471
SWIDTH 562 0
DWIDTH 9 0
BBX 7 15 1 0
BITMAP
08
10
00
28
00
82
82
82
82
82
82
82
82
44
38
ENDCHAR
STARTCHAR uni01D8
ENCODING 472
SWIDTH 562 0
DWIDTH 9 0
BBX 7 12 1 0
BITMAP
08
10
00
28
00
42
C2
42
42
42
26
1A
ENDCHAR
STARTCHAR uni01D9
ENCODING 473
SWIDTH 562 0
DWIDTH 9 0
BBX 7 15 1 0
BITMAP
28
10
00
28
00
82
82
82
82
82
82
82
82
44
38
ENDCHAR
STARTCHAR uni01DA
ENCODING 474
SWIDTH 562 0
DWIDTH 9 0
BBX 7 12 1 0
BITMAP
28
10
00
28
00
42
C2
42
42
42
26
1A
ENDCHAR
STARTCHAR uni01DB
ENCODING 475
SWIDTH 562 0
DWIDTH 9 0
BBX 7 15 1 0
BITMAP
20
10
00
28
00
82
82
82
82
82
82
82
82
44
38
ENDCHAR
STARTCHAR uni01DC
ENCODING 476
SWIDTH 562 0
DWIDTH 9 0
BBX 7 12 1 0
BITMAP
20
10
00
28
00
42
C2
42
42
42
26
1A
ENDCHAR
STARTCHAR uni01DD
ENCODING 477
SWIDTH 562 0
DWIDTH 9 0
BBX 7 7 1 0
BITMAP
38
44
02
7E
82
44
38
ENDCHAR
STARTCHAR uni01DE
ENCODING 478
SWIDTH 562 0
DWIDTH 9 0
BBX 7 14 1 0
BITMAP
7C
00
28
00
10
28
28
44
44
7C
82
82
82
82
ENDCHAR
STARTCHAR uni01DF
ENCODING 479
SWIDTH 562 0
DWIDTH 9 0
BBX 7 11 1 0
BITMAP
F8
00
50
00
70
88
04
74
8C
84
7A
ENDCHAR
STARTCHAR uni01E2
ENCODING 482
SWIDTH 562 0
DWIDTH 9 0
BBX 7 12 1 0
BITMAP
7C
00
3E
50
50
90
9E
F0
90
90
90
9E
ENDCHAR
STARTCHAR uni01E3
ENCODING 483
SWIDTH 562 0
DWIDTH 9 0
BBX 7 9 1 0
BITMAP
7C
00
6E
90
10
7E
90
90
6E
ENDCHAR
STARTCHAR uni01E4
ENCODING 484
SWIDTH 562 0
DWIDTH 9 0
BBX 7 10 1 0
BITMAP
38
44
80
80
80
9C
84
9E
44
38
ENDCHAR
STARTCHAR uni01E5
ENCODING 485
SWIDTH 562 0
DWIDTH 9 0
BBX 7 10 1 -3
BITMAP
3A
44
9E
84
4C
34
04
04
48
30
ENDCHAR
STARTCHAR uni01E6
ENCODING 486
SWIDTH 562 0
DWIDTH 9 0
BBX 7 13 1 0
BITMAP
28
10
00
38
44
82
80
80
9E
82
82
44
38
ENDCHAR
STARTCHAR uni01E7
ENCODING 487
SWIDTH 562 0
DWIDTH 9 0
BBX 7 13 1 -3
BITMAP
28
10
00
3A
44
82
82
82
46
3A
02
44
38
ENDCHAR
STARTCHAR uni01E8
ENCODING 488
SWIDTH 562 0
DWIDTH 9 0
BBX 7 13 1 0
BITMAP
28
10
00
86
88
90
A0
C0
A0
90
88
84
82
ENDCHAR
STARTCHAR uni01E9
ENCODING 489
SWIDTH 562 0
DWIDTH 9 0
BBX 7 16 1 0
BITMAP
28
10
00
00
00
00
80
80
80
8C
90
E0
A0
90
88
86
ENDCHAR
STARTCHAR uni01EE
ENCODING 494
SWIDTH 562 0
DWIDTH 9 0
BBX 7 13 1 0
BITMAP
28
10
00
FE
04
08
10
78
04
02
82
44
38
ENDCHAR
STARTCHAR uni01EF
ENCODING 495
SWIDTH 562 0
DWIDTH 9 0
BBX 7 12 1 -2
BITMAP
28
10
FE
04
18
20
78
04
02
82
44
38
ENDCHAR
STARTCHAR uni01FE
ENCODING 510
SWIDTH 562 0
DWIDTH 9 0
BBX 7 13 1 0
BITMAP
08
10
00
3A
44
8A
8A
92
92
A2
A2
44
B8
ENDCHAR
STARTCHAR uni01FF
ENCODING 511
SWIDTH 562 0
DWIDTH 9 0
BBX 7 10 1 0
BITMAP
08
10
00
3A
44
8A
92
A2
44
B8
ENDCHAR
STARTCHAR uni0218
ENCODING 536
SWIDTH 562 0
DWIDTH 9 0
BBX 7 13 1 -3
BITMAP
38
44
82
80
70
0C
02
82
44
38
00
10
20
ENDCHAR
STARTCHAR uni0219
ENCODING 537
SWIDTH 562 0
DWIDTH 9 0
BBX 7 10 1 -3
BITMAP
3C
42
80
7C
02
84
78
00
10
20
ENDCHAR
STARTCHAR uni021A
ENCODING 538
SWIDTH 562 0
DWIDTH 9 0
BBX 7 13 1 -3
BITMAP
FE
10
10
10
10
10
10
10
10
10
00
10
20
ENDCHAR
STARTCHAR uni021B
ENCODING 539
SWIDTH 562 0
DWIDTH 9 0
BBX 7 13 1 -3
BITMAP
10
10
10
FE
10
10
10
12
12
0C
00
10
20
ENDCHAR
STARTCHAR uni0228
ENCODING 552
SWIDTH 562 0
DWIDTH 9 0
BBX 7 13 1 -3
BITMAP
FE
80
80
80
FC
80
80
80
80
FE
08
24
18
ENDCHAR
STARTCHAR uni0229
ENCODING 553
SWIDTH 562 0
DWIDTH 9 0
BBX 7 10 1 -3
BITMAP
38
44
82
FC
80
44
38
08
24
18
ENDCHAR
STARTCHAR uni022A
ENCODING 554
SWIDTH 562 0
DWIDTH 9 0
BBX 7 14 1 0
BITMAP
7C
00
28
00
38
44
82
82
82
82
82
82
44
38
ENDCHAR
STARTCHAR uni022B
ENCODING 555
SWIDTH 562 0
DWIDTH 9 0
BBX 7 11 1 0
BITMAP
7C
00
28
00
38
44
82
82
82
44
38
ENDCHAR
STARTCHAR uni0232
ENCODING 562
SWIDTH 562 0
DWIDTH 9 0
BBX 7 12 1 0
BITMAP
7C
00
82
82
44
44
28
10
10
10
10
10
ENDCHAR
STARTCHAR uni0233
ENCODING 563
SWIDTH 562 0
DWIDTH 9 0
BBX 7 12 1 -3
BITMAP
7C
00
82
82
44
44
28
28
10
10
A0
40
ENDCHAR
STARTCHAR uni0237
ENCODING 567
SWIDTH 562 0
DWIDTH 9 0
BBX 7 9 1 -2
BITMAP
FE
10
10
10
10
10
10
90
60
ENDCHAR
STARTCHAR uni0242
ENCODING 578
SWIDTH 562 0
DWIDTH 9 0
BBX 7 8 1 0
BITMAP
38
44
82
82
04
08
10
10
ENDCHAR
STARTCHAR uni0243
ENCODING 579
SWIDTH 562 0
DWIDTH 9 0
BBX 8 10 0 0
BITMAP
7C
42
41
42
7C
42
F9
41
42
7C
ENDCHAR
STARTCHAR uni0244
ENCODING 580
SWIDTH 562 0
DWIDTH 9 0
BBX 7 10 1 0
BITMAP
44
44
44
44
FE
44
44
44
44
38
ENDCHAR
STARTCHAR uni0245
ENCODING 581
SWIDTH 562 0
DWIDTH 9 0
BBX 7 10 1 0
BITMAP
10
10
28
28
44
44
44
82
82
82
ENDCHAR
STARTCHAR uni024B
ENCODING 587
SWIDTH 562 0
DWIDTH 9 0
BBX 7 10 1 -3
BITMAP
34
4C
84
84
84
4C
34
04
04
02
ENDCHAR
STARTCHAR uni024C
ENCODING 588
SWIDTH 562 0
DWIDTH 9 0
BBX 7 10 1 0
BITMAP
78
44
42
42
44
F8
50
48
44
42
ENDCHAR
STARTCHAR uni0250
ENCODING 592
SWIDTH 562 0
DWIDTH 9 0
BBX 7 7 1 0
BITMAP
BC
42
62
5C
40
22
1C
ENDCHAR
STARTCHAR uni0251
ENCODING 593
SWIDTH 562 0
DWIDTH 9 0
BBX 7 7 1 0
BITMAP
70
88
04
74
8C
84
7A
ENDCHAR
STARTCHAR uni0252
ENCODING 594
SWIDTH 562 0
DWIDTH 9 0
BBX 7 7 1 0
BITMAP
B8
C4
82
82
82
C4
B8
ENDCHAR
STARTCHAR uni0253
ENCODING 595
SWIDTH 562 0
DWIDTH 9 0
BBX 7 10 1 0
BITMAP
40
80
80
B8
C4
82
82
82
C4
B8
ENDCHAR
STARTCHAR uni0254
ENCODING 596
SWIDTH 562 0
DWIDTH 9 0
BBX 7 7 1 0
BITMAP
78
84
02
02
02
84
78
ENDCHAR
STARTCHAR uni0255
ENCODING 597
SWIDTH 562 0
DWIDTH 9 0
BBX 7 9 1 -2
BITMAP
3C
42
80
80
84
4A
3C
08
08
ENDCHAR
STARTCHAR uni0256
ENCODING 598
SWIDTH 562 0
DWIDTH 9 0
BBX 7 12 1 -2
BITMAP
04
04
04
34
4C
84
84
84
4C
34
04
02
ENDCHAR
STARTCHAR uni0257
ENCODING 599
SWIDTH 562 0
DWIDTH 9 0
BBX 7 11 1 0
BITMAP
02
04
04
04
34
4C
84
84
84
4C
34
ENDCHAR
STARTCHAR uni0258
ENCODING 600
SWIDTH 562 0
DWIDTH 9 0
BBX 7 7 1 0
BITMAP
38
44
82
7E
02
44
38
ENDCHAR
STARTCHAR uni0259
ENCODING 601
SWIDTH 562 0
DWIDTH 9 0
BBX 7 7 1 0
BITMAP
38
44
02
7E
82
44
38
ENDCHAR
STARTCHAR uni025A
ENCODING 602
SWIDTH 562 0
DWIDTH 9 0
BBX 8 7 1 0
BITMAP
30
48
04
7E
85
48
30
ENDCHAR
STARTCHAR uni025B
ENCODING 603
SWIDTH 562 0
DWIDTH 9 0
BBX 7 7 1 0
BITMAP
3C
42
80
78
82
44
38
ENDCHAR
STARTCHAR uni025C
ENCODING 604
SWIDTH 562 0
DWIDTH 9 0
BBX 7 7 1 0
BITMAP
78
84
02
3C
82
44
38
ENDCHAR
STARTCHAR uni025D
ENCODING 605
SWIDTH 562 0
DWIDTH 9 0
BBX 7 7 1 0
BITMAP
60
90
08
34
0A
92
60
ENDCHAR
STARTCHAR uni025E
ENCODING 606
SWIDTH 562 0
DWIDTH 9 0
BBX 7 7 1 0
BITMAP
3C
42
82
9C
82
42
3C
ENDCHAR
STARTCHAR uni025F
ENCODING 607
SWIDTH 562 0
DWIDTH 9 0
BBX 7 9 1 -2
BITMAP
10
10
FE
10
10
10
10
10
60
ENDCHAR
STARTCHAR uni0260
ENCODING 608
SWIDTH 562 0
DWIDTH 9 0
BBX 7 12 1 -3
BITMAP
02
02
3A
44
82
82
46
3A
02
02
44
38
ENDCHAR
STARTCHAR uni0261
ENCODING 609
SWIDTH 562 0
DWIDTH 9 0
BBX 7 10 1 -3
BITMAP
3A
44
82
82
82
46
3A
02
44
38
ENDCHAR
STARTCHAR uni0262
ENCODING 610
SWIDTH 562 0
DWIDTH 9 0
BBX 7 7 1 0
BITMAP
3C
42
80
9E
82
42
3C
ENDCHAR
STARTCHAR uni0263
ENCODING 611
SWIDTH 562 0
DWIDTH 9 0
BBX 7 10 1 -2
BITMAP
82
44
28
10
28
44
82
82
44
38
ENDCHAR
STARTCHAR uni0264
ENCODING 612
SWIDTH 562 0
DWIDTH 9 0
BBX 7 7 1 0
BITMAP
44
AA
28
28
10
28
10
ENDCHAR
STARTCHAR uni0265
ENCODING 613
SWIDTH 562 0
DWIDTH 9 0
BBX 7 10 1 -3
BITMAP
84
84
84
84
84
4C
34
04
06
04
ENDCHAR
STARTCHAR uni0266
ENCODING 614
SWIDTH 562 0
DWIDTH 9 0
BBX 7 10 1 0
BITMAP
40
80
80
B8
C4
82
82
82
82
82
ENDCHAR
STARTCHAR uni0267
ENCODING 615
SWIDTH 562 0
DWIDTH 9 0
BBX 7 13 1 -3
BITMAP
40
80
80
B8
C4
82
82
82
82
82
02
02
04
ENDCHAR
STARTCHAR uni0268
ENCODING 616
SWIDTH 562 0
DWIDTH 9 0
BBX 7 12 1 0
BITMAP
10
00
10
F0
10
10
10
7C
10
10
12
0C
ENDCHAR
STARTCHAR uni0269
ENCODING 617
SWIDTH 562 0
DWIDTH 9 0
BBX 7 8 1 0
BITMAP
10
F0
10
10
10
10
12
0C
ENDCHAR
STARTCHAR uni026A
ENCODING 618
SWIDTH 562 0
DWIDTH 9 0
BBX 7 7 1 0
BITMAP
FE
10
10
10
10
10
FE
ENDCHAR
STARTCHAR uni026B
ENCODING 619
SWIDTH 562 0
DWIDTH 9 0
BBX 7 10 1 0
BITMAP
20
E0
20
20
68
B0
20
20
12
0C
ENDCHAR
STARTCHAR uni026C
ENCODING 620
SWIDTH 562 0
DWIDTH 9 0
BBX 7 10 1 0
BITMAP
20
E0
20
60
A0
7C
20
20
12
0C
ENDCHAR
STARTCHAR uni026D
ENCODING 621
SWIDTH 562 0
DWIDTH 9 0
BBX 7 13 1 -3
BITMAP
20
E0
20
20
20
20
20
20
20
20
20
12
0C
ENDCHAR
STARTCHAR uni026E
ENCODING 622
SWIDTH 562 0
DWIDTH 9 0
BBX 7 14 1 -3
BITMAP
80
80
80
80
BE
82
84
88
9C
82
62
02
24
18
ENDCHAR
STARTCHAR uni026F
ENCODING 623
SWIDTH 562 0
DWIDTH 9 0
BBX 7 7 1 0
BITMAP
92
92
92
92
92
92
6C
ENDCHAR
STARTCHAR uni0270
ENCODING 624
SWIDTH 562 0
DWIDTH 9 0
BBX 7 9 1 -2
BITMAP
92
92
92
92
92
92
6E
02
02
ENDCHAR
STARTCHAR uni0271
ENCODING 625
SWIDTH 562 0
DWIDTH 9 0
BBX 7 9 1 -2
BITMAP
6C
92
92
92
92
92
92
02
04
ENDCHAR
STARTCHAR uni0272
ENCODING 626
SWIDTH 562 0
DWIDTH 9 0
BBX 7 9 1 -2
BITMAP
58
64
42
42
42
42
42
40
80
ENDCHAR
STARTCHAR uni0273
ENCODING 627
SWIDTH 562 0
DWIDTH 9 0
BBX 7 9 1 -2
BITMAP
B0
C8
84
84
84
84
84
04
02
ENDCHAR
STARTCHAR uni0274
ENCODING 628
SWIDTH 562 0
DWIDTH 9 0
BBX 7 7 1 0
BITMAP
82
C2
A2
92
8A
86
82
ENDCHAR
STARTCHAR uni0275
ENCODING 629
SWIDTH 562 0
DWIDTH 9 0
BBX 7 7 1 0
BITMAP
38
44
82
FE
82
44
38
ENDCHAR
STARTCHAR uni0276
ENCODING 630
SWIDTH 562 0
DWIDTH 9 0
BBX 7 7 1 0
BITMAP
6E
90
90
9E
90
90
6E
ENDCHAR
STARTCHAR uni0278
ENCODING 632
SWIDTH 562 0
DWIDTH 9 0
BBX 7 11 1 -2
BITMAP
10
10
38
54
92
92
92
54
38
10
10
ENDCHAR
STARTCHAR uni0279
ENCODING 633
SWIDTH 562 0
DWIDTH 9 0
BBX 7 7 1 0
BITMAP
3E
04
04
04
84
4A
32
ENDCHAR
STARTCHAR uni027A
ENCODING 634
SWIDTH 562 0
DWIDTH 9 0
BBX 7 10 1 0
BITMAP
04
04
04
04
04
04
04
84
4A
32
ENDCHAR
STARTCHAR uni027B
ENCODING 635
SWIDTH 562 0
DWIDTH 9 0
BBX 7 10 1 -3
BITMAP
04
04
04
04
04
04
04
84
4A
32
ENDCHAR
STARTCHAR uni027D
ENCODING 637
SWIDTH 562 0
DWIDTH 9 0
BBX 7 10 1 -2
BITMAP
0C
92
A0
40
40
40
40
40
40
30
ENDCHAR
STARTCHAR uni027E
ENCODING 638
SWIDTH 562 0
DWIDTH 9 0
BBX 7 8 1 0
BITMAP
0C
92
A0
40
40
40
40
F8
ENDCHAR
STARTCHAR uni0280
ENCODING 640
SWIDTH 562 0
DWIDTH 9 0
BBX 7 7 1 0
BITMAP
FC
82
82
FC
90
88
86
ENDCHAR
STARTCHAR uni0281
ENCODING 641
SWIDTH 562 0
DWIDTH 9 0
BBX 7 7 1 0
BITMAP
C2
22
12
7E
82
82
7E
ENDCHAR
STARTCHAR uni0282
ENCODING 642
SWIDTH 562 0
DWIDTH 9 0
BBX 7 9 1 -2
BITMAP
3C
42
80
78
04
42
BC
80
40
ENDCHAR
STARTCHAR uni0283
ENCODING 643
SWIDTH 562 0
DWIDTH 9 0
BBX 7 13 1 -2
BITMAP
0C
12
10
10
10
10
10
10
10
10
10
90
60
ENDCHAR
STARTCHAR uni0284
ENCODING 644
SWIDTH 562 0
DWIDTH 9 0
BBX 7 14 1 -2
BITMAP
0C
12
10
10
10
10
10
FE
10
10
10
10
10
60
ENDCHAR
STARTCHAR uni0288
ENCODING 648
SWIDTH 562 0
DWIDTH 9 0
BBX 7 13 1 -3
BITMAP
10
10
10
FE
10
10
10
10
10
10
12
12
0C
ENDCHAR
STARTCHAR uni0289
ENCODING 649
SWIDTH 562 0
DWIDTH 9 0
BBX 7 7 1 0
BITMAP
42
C2
42
FA
42
26
1A
ENDCHAR
STARTCHAR uni028A
ENCODING 650
SWIDTH 562 0
DWIDTH 9 0
BBX 7 7 1 0
BITMAP
C6
28
44
82
82
44
38
ENDCHAR
STARTCHAR uni028B
ENCODING 651
SWIDTH 562 0
DWIDTH 9 0
BBX 7 7 1 0
BITMAP
84
82
82
82
82
44
38
ENDCHAR
STARTCHAR uni028C
ENCODING 652
SWIDTH 562 0
DWIDTH 9 0
BBX 7 7 1 0
BITMAP
10
28
28
44
44
82
82
ENDCHAR
STARTCHAR uni028D
ENCODING 653
SWIDTH 562 0
DWIDTH 9 0
BBX 7 7 1 0
BITMAP
82
C6
AA
92
92
82
82
ENDCHAR
STARTCHAR uni028E
ENCODING 654
SWIDTH 562 0
DWIDTH 9 0
BBX 7 10 1 0
BITMAP
04
0A
10
10
28
28
44
44
82
82
ENDCHAR
STARTCHAR uni028F
ENCODING 655
SWIDTH 562 0
DWIDTH 9 0
BBX 7 7 1 0
BITMAP
82
44
28
10
10
10
10
ENDCHAR
STARTCHAR uni0290
ENCODING 656
SWIDTH 562 0
DWIDTH 9 0
BBX 7 9 1 -2
BITMAP
7E
84
08
10
20
40
FC
04
02
ENDCHAR
STARTCHAR uni0291
ENCODING 657
SWIDTH 562 0
DWIDTH 9 0
BBX 7 8 1 -1
BITMAP
7E
84
08
10
24
4A
FC
08
ENDCHAR
STARTCHAR uni0292
ENCODING 658
SWIDTH 562 0
DWIDTH 9 0
BBX 7 10 1 -2
BITMAP
FE
04
18
20
78
04
02
82
44
38
ENDCHAR
STARTCHAR uni0294
ENCODING 660
SWIDTH 562 0
DWIDTH 9 0
BBX 7 10 1 0
BITMAP
38
44
82
82
04
08
10
10
10
10
ENDCHAR
STARTCHAR uni0295
ENCODING 661
SWIDTH 562 0
DWIDTH 9 0
BBX 7 10 1 0
BITMAP
38
44
82
82
40
20
10
10
10
10
ENDCHAR
STARTCHAR uni0298
ENCODING 664
SWIDTH 562 0
DWIDTH 9 0
BBX 7 10 1 0
BITMAP
38
44
82
82
92
92
82
82
44
38
ENDCHAR
STARTCHAR uni0299
ENCODING 665
SWIDTH 562 0
DWIDTH 9 0
BBX 7 7 1 0
BITMAP
FC
82
82
FC
82
82
FC
ENDCHAR
STARTCHAR uni029B
ENCODING 667
SWIDTH 562 0
DWIDTH 9 0
BBX 7 9 1 0
BITMAP
02
04
38
44
80
9E
82
42
3C
ENDCHAR
STARTCHAR uni029C
ENCODING 668
SWIDTH 562 0
DWIDTH 9 0
BBX 7 7 1 0
BITMAP
82
82
82
FE
82
82
82
ENDCHAR
STARTCHAR uni029D
ENCODING 669
SWIDTH 562 0
DWIDTH 9 0
BBX 6 13 2 -3
BITMAP
10
10
00
70
10
10
10
10
10
7C
90
90
60
ENDCHAR
STARTCHAR uni029E
ENCODING 670
SWIDTH 562 0
DWIDTH 9 0
BBX 7 10 1 -3
BITMAP
C2
22
12
0A
0E
12
62
02
02
02
ENDCHAR
STARTCHAR uni029F
ENCODING 671
SWIDTH 562 0
DWIDTH 9 0
BBX 7 7 1 0
BITMAP
C0
40
40
40
40
40
7E
ENDCHAR
STARTCHAR uni02A0
ENCODING 672
SWIDTH 562 0
DWIDTH 9 0
BBX 7 13 1 -3
BITMAP
02
04
04
34
4C
84
84
84
4C
34
04
04
04
ENDCHAR
STARTCHAR uni02A1
ENCODING 673
SWIDTH 562 0
DWIDTH 9 0
BBX 7 10 1 0
BITMAP
38
44
82
82
04
08
10
7C
10
10
ENDCHAR
STARTCHAR uni02A2
ENCODING 674
SWIDTH 562 0
DWIDTH 9 0
BBX 7 10 1 0
BITMAP
38
44
82
82
40
20
10
7C
10
10
ENDCHAR
STARTCHAR uni02A3
ENCODING 675
SWIDTH 562 0
DWIDTH 9 0
BBX 7 11 1 0
BITMAP
10
10
10
10
5E
B2
92
94
94
B8
5E
ENDCHAR
STARTCHAR uni02A4
ENCODING 676
SWIDTH 562 0
DWIDTH 9 0
BBX 7 14 1 -3
BITMAP
10
10
10
10
50
BE
92
94
98
B4
52
02
14
08
ENDCHAR
STARTCHAR uni02A5
ENCODING 677
SWIDTH 562 0
DWIDTH 9 0
BBX 7 13 1 -2
BITMAP
10
10
10
10
5E
B2
94
98
9C
BA
5C
04
04
ENDCHAR
STARTCHAR uni02A6
ENCODING 678
SWIDTH 562 0
DWIDTH 9 0
BBX 7 10 1 0
BITMAP
4C
52
52
F0
48
44
42
42
52
2C
ENDCHAR
STARTCHAR uni02A7
ENCODING 679
SWIDTH 562 0
DWIDTH 9 0
BBX 7 14 1 -2
BITMAP
04
0A
48
48
48
F8
48
48
48
48
58
28
08
10
ENDCHAR
STARTCHAR uni02A8
ENCODING 680
SWIDTH 562 0
DWIDTH 9 0
BBX 7 12 1 -2
BITMAP
40
40
40
EC
52
50
50
54
5A
2C
08
08
ENDCHAR
STARTCHAR uni02A9
ENCODING 681
SWIDTH 562 0
DWIDTH 9 0
BBX 7 12 1 -1
BITMAP
20
50
40
40
EC
52
52
52
52
52
52
80
ENDCHAR
STARTCHAR uni02AA
ENCODING 682
SWIDTH 562 0
DWIDTH 9 0
BBX 7 11 1 0
BITMAP
80
80
80
80
9C
A2
90
8C
82
A2
5C
ENDCHAR
STARTCHAR uni02AB
ENCODING 683
SWIDTH 562 0
DWIDTH 9 0
BBX 7 11 1 0
BITMAP
80
80
80
80
9E
82
84
84
88
90
5E
ENDCHAR
STARTCHAR uni02AC
ENCODING 684
SWIDTH 562 0
DWIDTH 9 0
BBX 7 10 1 0
BITMAP
82
92
92
AA
44
00
82
92
AA
44
ENDCHAR
STARTCHAR uni02AD
ENCODING 685
SWIDTH 562 0
DWIDTH 9 0
BBX 5 8 2 1
BITMAP
F8
88
88
00
00
F8
88
88
ENDCHAR
STARTCHAR uni02B0
ENCODING 688
SWIDTH 562 0
DWIDTH 9 0
BBX 7 10 1 0
BITMAP
40
C0
40
58
64
42
42
42
42
42
ENDCHAR
STARTCHAR uni02B2
ENCODING 690
SWIDTH 562 0
DWIDTH 9 0
BBX 7 12 1 -2
BITMAP
02
02
00
3E
02
02
02
02
02
82
44
38
ENDCHAR
STARTCHAR uni02B7
ENCODING 695
SWIDTH 562 0
DWIDTH 9 0
BBX 7 7 1 0
BITMAP
92
92
92
92
92
AA
44
ENDCHAR
STARTCHAR uni02B9
ENCODING 697
SWIDTH 562 0
DWIDTH 9 0
BBX 1 3 4 8
BITMAP
80
80
80
ENDCHAR
STARTCHAR uni02BC
ENCODING 700
SWIDTH 562 0
DWIDTH 9 0
BBX 2 3 4 8
BITMAP
40
80
80
ENDCHAR
STARTCHAR uni02BD
ENCODING 701
SWIDTH 562 0
DWIDTH 9 0
BBX 2 3 4 8
BITMAP
C0
80
40
ENDCHAR
STARTCHAR uni02BE
ENCODING 702
SWIDTH 562 0
DWIDTH 9 0
BBX 3 3 3 8
BITMAP
C0
20
C0
ENDCHAR
STARTCHAR uni02BF
ENCODING 703
SWIDTH 562 0
DWIDTH 9 0
BBX 3 3 3 8
BITMAP
60
80
60
ENDCHAR
STARTCHAR uni02C1
ENCODING 705
SWIDTH 562 0
DWIDTH 9 0
BBX 5 4 2 9
BITMAP
70
88
40
20
ENDCHAR
STARTCHAR uni02C6
ENCODING 710
SWIDTH 562 0
DWIDTH 9 0
BBX 3 2 3 11
BITMAP
40
A0
ENDCHAR
STARTCHAR uni02C7
ENCODING 711
SWIDTH 562 0
DWIDTH 9 0
BBX 3 2 3 10
BITMAP
A0
40
ENDCHAR
STARTCHAR uni02C8
ENCODING 712
SWIDTH 562 0
DWIDTH 9 0
BBX 1 3 4 8
BITMAP
80
80
80
ENDCHAR
STARTCHAR uni02CC
ENCODING 716
SWIDTH 562 0
DWIDTH 9 0
BBX 1 3 4 -3
BITMAP
80
80
80
ENDCHAR
STARTCHAR uni02D0
ENCODING 720
SWIDTH 562 0
DWIDTH 9 0
BBX 3 7 3 1
BITMAP
E0
40
00
00
00
40
E0
ENDCHAR
STARTCHAR uni02D1
ENCODING 721
SWIDTH 562 0
DWIDTH 9 0
BBX 3 2 3 6
BITMAP
E0
40
ENDCHAR
STARTCHAR uni02D8
ENCODING 728
SWIDTH 562 0
DWIDTH 9 0
BBX 5 2 2 10
BITMAP
88
70
ENDCHAR
STARTCHAR uni02D9
ENCODING 729
SWIDTH 562 0
DWIDTH 9 0
BBX 1 1 4 10
BITMAP
80
ENDCHAR
STARTCHAR uni02DA
ENCODING 730
SWIDTH 562 0
DWIDTH 9 0
BBX 3 3 3 10
BITMAP
40
A0
40
ENDCHAR
STARTCHAR uni02DB
ENCODING 731
SWIDTH 562 0
DWIDTH 9 0
BBX 3 3 3 -3
BITMAP
40
80
60
ENDCHAR
STARTCHAR uni02DC
ENCODING 732
SWIDTH 562 0
DWIDTH 9 0
BBX 5 2 2 10
BITMAP
48
B0
ENDCHAR
STARTCHAR uni02DD
ENCODING 733
SWIDTH 562 0
DWIDTH 9 0
BBX 5 2 2 10
BITMAP
48
90
ENDCHAR
STARTCHAR uni02DE
ENCODING 734
SWIDTH 562 0
DWIDTH 9 0
BBX 6 3 2 1
BITMAP
E0
10
0C
ENDCHAR
STARTCHAR uni02E0
ENCODING 736
SWIDTH 562 0
DWIDTH 9 0
BBX 7 10 1 -2
BITMAP
82
44
28
10
28
44
82
82
44
38
ENDCHAR
STARTCHAR uni02E1
ENCODING 737
SWIDTH 562 0
DWIDTH 9 0
BBX 7 10 1 0
BITMAP
20
E0
20
20
20
20
20
20
12
0C
ENDCHAR
STARTCHAR uni02E5
ENCODING 741
SWIDTH 562 0
DWIDTH 9 0
BBX 5 10 2 0
BITMAP
F8
08
08
08
08
08
08
08
08
08
ENDCHAR
STARTCHAR uni02E6
ENCODING 742
SWIDTH 562 0
DWIDTH 9 0
BBX 5 10 2 0
BITMAP
08
08
F8
08
08
08
08
08
08
08
ENDCHAR
STARTCHAR uni02E7
ENCODING 743
SWIDTH 562 0
DWIDTH 9 0
BBX 5 10 2 0
BITMAP
08
08
08
08
F8
08
08
08
08
08
ENDCHAR
STARTCHAR uni02E8
ENCODING 744
SWIDTH 562 0
DWIDTH 9 0
BBX 5 10 2 0
BITMAP
08
08
08
08
08
08
08
F8
08
08
ENDCHAR
STARTCHAR uni02E9
ENCODING 745
SWIDTH 562 0
DWIDTH 9 0
BBX 5 10 2 0
BITMAP
08
08
08
08
08
08
08
08
08
F8
ENDCHAR
STARTCHAR uni02EC
ENCODING 748
SWIDTH 562 0
DWIDTH 9 0
BBX 5 4 2 -3
BITMAP
88
50
50
20
ENDCHAR
STARTCHAR uni02ED
ENCODING 749
SWIDTH 562 0
DWIDTH 9 0
BBX 5 3 2 5
BITMAP
F8
00
F8
ENDCHAR
STARTCHAR uni02F3
ENCODING 755
SWIDTH 562 0
DWIDTH 9 0
BBX 3 3 3 -3
BITMAP
40
A0
40
ENDCHAR
STARTCHAR uni0300
ENCODING 768
SWIDTH 0 0
DWIDTH 0 0
BBX 2 2 3 11
BITMAP
80
40
ENDCHAR
STARTCHAR uni0301
ENCODING 769
SWIDTH 0 0
DWIDTH 0 0
BBX 2 2 4 11
BITMAP
40
80
ENDCHAR
STARTCHAR uni0302
ENCODING 770
SWIDTH 0 0
DWIDTH 0 0
BBX 3 2 3 11
BITMAP
40
A0
ENDCHAR
STARTCHAR uni0303
ENCODING 771
SWIDTH 0 0
DWIDTH 0 0
BBX 5 3 2 10
BITMAP
40
A8
10
ENDCHAR
STARTCHAR uni0304
ENCODING 772
SWIDTH 0 0
DWIDTH 0 0
BBX 5 1 2 11
BITMAP
F8
ENDCHAR
STARTCHAR uni0305
ENCODING 773
SWIDTH 0 0
DWIDTH 0 0
BBX 5 1 2 12
BITMAP
F8
ENDCHAR
STARTCHAR uni0306
ENCODING 774
SWIDTH 0 0
DWIDTH 0 0
BBX 5 2 2 11
BITMAP
88
70
ENDCHAR
STARTCHAR uni0307
ENCODING 775
SWIDTH 0 0
DWIDTH 0 0
BBX 1 1 4 11
BITMAP
80
ENDCHAR
STARTCHAR uni0308
ENCODING 776
SWIDTH 0 0
DWIDTH 0 0
BBX 3 1 3 11
BITMAP
A0
ENDCHAR
STARTCHAR uni0309
ENCODING 777
SWIDTH 0 0
DWIDTH 0 0
BBX 3 3 4 10
BITMAP
C0
20
40
ENDCHAR
STARTCHAR uni030A
ENCODING 778
SWIDTH 0 0
DWIDTH 0 0
BBX 3 3 3 10
BITMAP
40
A0
40
ENDCHAR
STARTCHAR uni030B
ENCODING 779
SWIDTH 0 0
DWIDTH 0 0
BBX 5 2 2 11
BITMAP
48
90
ENDCHAR
STARTCHAR uni030C
ENCODING 780
SWIDTH 0 0
DWIDTH 0 0
BBX 3 2 3 11
BITMAP
A0
40
ENDCHAR
STARTCHAR uni030F
ENCODING 783
SWIDTH 0 0
DWIDTH 0 0
BBX 5 2 2 10
BITMAP
90
48
ENDCHAR
STARTCHAR uni0310
ENCODING 784
SWIDTH 0 0
DWIDTH 0 0
BBX 5 3 2 10
BITMAP
20
88
70
ENDCHAR
STARTCHAR uni0312
ENCODING 786
SWIDTH 0 0
DWIDTH 0 0
BBX 2 3 4 11
BITMAP
40
80
C0
ENDCHAR
STARTCHAR uni0318
ENCODING 792
SWIDTH 0 0
DWIDTH 0 0
BBX 3 3 3 -3
BITMAP
20
E0
20
ENDCHAR
STARTCHAR uni0319
ENCODING 793
SWIDTH 0 0
DWIDTH 0 0
BBX 3 3 3 -3
BITMAP
80
E0
80
ENDCHAR
STARTCHAR uni031A
ENCODING 794
SWIDTH 0 0
DWIDTH 0 0
BBX 3 2 3 10
BITMAP
E0
20
ENDCHAR
STARTCHAR uni031B
ENCODING 795
SWIDTH 0 0
DWIDTH 0 0
BBX 2 3 7 9
BITMAP
80
40
80
ENDCHAR
STARTCHAR uni031C
ENCODING 796
SWIDTH 0 0
DWIDTH 0 0
BBX 3 3 3 -3
BITMAP
60
80
60
ENDCHAR
STARTCHAR uni031D
ENCODING 797
SWIDTH 0 0
DWIDTH 0 0
BBX 3 2 3 -3
BITMAP
40
E0
ENDCHAR
STARTCHAR uni031E
ENCODING 798
SWIDTH 0 0
DWIDTH 0 0
BBX 3 2 3 -3
BITMAP
E0
40
ENDCHAR
STARTCHAR uni031F
ENCODING 799
SWIDTH 0 0
DWIDTH 0 0
BBX 3 3 3 -3
BITMAP
40
E0
40
ENDCHAR
STARTCHAR uni0320
ENCODING 800
SWIDTH 0 0
DWIDTH 0 0
BBX 3 1 3 -2
BITMAP
E0
ENDCHAR
STARTCHAR uni0323
ENCODING 803
SWIDTH 0 0
DWIDTH 0 0
BBX 1 1 4 -2
BITMAP
80
ENDCHAR
STARTCHAR uni0324
ENCODING 804
SWIDTH 0 0
DWIDTH 0 0
BBX 3 1 3 -2
BITMAP
A0
ENDCHAR
STARTCHAR uni0325
ENCODING 805
SWIDTH 0 0
DWIDTH 0 0
BBX 4 3 3 -3
BITMAP
60
90
60
ENDCHAR
STARTCHAR uni0326
ENCODING 806
SWIDTH 0 0
DWIDTH 0 0
BBX 2 2 3 -3
BITMAP
40
80
ENDCHAR
STARTCHAR uni0327
ENCODING 807
SWIDTH 0 0
DWIDTH 0 0
BBX 4 3 2 -3
BITMAP
20
90
60
ENDCHAR
STARTCHAR uni0328
ENCODING 808
SWIDTH 0 0
DWIDTH 0 0
BBX 4 3 3 -3
BITMAP
40
90
60
ENDCHAR
STARTCHAR uni0329
ENCODING 809
SWIDTH 0 0
DWIDTH 0 0
BBX 1 2 4 -3
BITMAP
80
80
ENDCHAR
STARTCHAR uni032A
ENCODING 810
SWIDTH 0 0
DWIDTH 0 0
BBX 3 2 3 -3
BITMAP
E0
A0
ENDCHAR
STARTCHAR uni032C
ENCODING 812
SWIDTH 0 0
DWIDTH 0 0
BBX 3 2 3 -3
BITMAP
A0
40
ENDCHAR
STARTCHAR uni032E
ENCODING 814
SWIDTH 0 0
DWIDTH 0 0
BBX 5 2 2 -3
BITMAP
88
70
ENDCHAR
STARTCHAR uni0330
ENCODING 816
SWIDTH 0 0
DWIDTH 0 0
BBX 6 2 2 -3
BITMAP
64
98
ENDCHAR
STARTCHAR uni0331
ENCODING 817
SWIDTH 0 0
DWIDTH 0 0
BBX 3 1 3 -3
BITMAP
E0
ENDCHAR
STARTCHAR uni0332
ENCODING 818
SWIDTH 0 0
DWIDTH 0 0
BBX 5 1 2 -3
BITMAP
F8
ENDCHAR
STARTCHAR uni0334
ENCODING 820
SWIDTH 0 0
DWIDTH 0 0
BBX 7 3 1 4
BITMAP
60
92
0C
ENDCHAR
STARTCHAR uni0335
ENCODING 821
SWIDTH 0 0
DWIDTH 0 0
BBX 5 1 2 4
BITMAP
F8
ENDCHAR
STARTCHAR uni0339
ENCODING 825
SWIDTH 0 0
DWIDTH 0 0
BBX 2 3 4 -3
BITMAP
80
40
80
ENDCHAR
STARTCHAR uni033A
ENCODING 826
SWIDTH 0 0
DWIDTH 0 0
BBX 3 2 3 -3
BITMAP
A0
E0
ENDCHAR
STARTCHAR uni033B
ENCODING 827
SWIDTH 0 0
DWIDTH 0 0
BBX 3 3 3 -3
BITMAP
E0
A0
E0
ENDCHAR
STARTCHAR uni033C
ENCODING 828
SWIDTH 0 0
DWIDTH 0 0
BBX 5 3 2 -3
BITMAP
50
A8
A8
ENDCHAR
STARTCHAR uni033D
ENCODING 829
SWIDTH 0 0
DWIDTH 0 0
BBX 3 3 3 10
BITMAP
A0
40
A0
ENDCHAR
STARTCHAR uni0346
ENCODING 838
SWIDTH 0 0
DWIDTH 0 0
BBX 3 2 3 11
BITMAP
E0
A0
ENDCHAR
STARTCHAR uni0347
ENCODING 839
SWIDTH 0 0
DWIDTH 0 0
BBX 3 3 3 -3
BITMAP
E0
00
E0
ENDCHAR
STARTCHAR uni0348
ENCODING 840
SWIDTH 0 0
DWIDTH 0 0
BBX 3 2 3 -3
BITMAP
A0
A0
ENDCHAR
STARTCHAR uni0349
ENCODING 841
SWIDTH 0 0
DWIDTH 0 0
BBX 3 2 3 -3
BITMAP
E0
20
ENDCHAR
STARTCHAR uni034A
ENCODING 842
SWIDTH 0 0
DWIDTH 0 0
BBX 7 3 1 10
BITMAP
68
92
2C
ENDCHAR
STARTCHAR uni034B
ENCODING 843
SWIDTH 0 0
DWIDTH 0 0
BBX 7 3 1 10
BITMAP
6A
92
AC
ENDCHAR
STARTCHAR uni034C
ENCODING 844
SWIDTH 0 0
DWIDTH 0 0
BBX 6 5 2 8
BITMAP
54
A8
00
54
A8
ENDCHAR
STARTCHAR uni034D
ENCODING 845
SWIDTH 0 0
DWIDTH 0 0
BBX 7 3 1 -3
BITMAP
44
BA
44
ENDCHAR
STARTCHAR uni034E
ENCODING 846
SWIDTH 0 0
DWIDTH 0 0
BBX 5 4 2 -3
BITMAP
20
50
A8
20
ENDCHAR
STARTCHAR uni035C
ENCODING 860
SWIDTH 0 0
DWIDTH 0 0
BBX 7 3 1 -3
BITMAP
82
44
38
ENDCHAR
STARTCHAR uni035F
ENCODING 863
SWIDTH 0 0
DWIDTH 0 0
BBX 5 1 2 -2
BITMAP
F8
ENDCHAR
STARTCHAR uni0361
ENCODING 865
SWIDTH 0 0
DWIDTH 0 0
BBX 7 3 1 10
BITMAP
38
44
82
ENDCHAR
STARTCHAR uni0362
ENCODING 866
SWIDTH 0 0
DWIDTH 0 0
BBX 7 3 1 -3
BITMAP
04
FE
04
ENDCHAR
STARTCHAR uni03A9
ENCODING 937
SWIDTH 562 0
DWIDTH 9 0
BBX 7 10 1 0
BITMAP
38
44
82
82
82
82
82
44
28
C6
ENDCHAR
STARTCHAR uni03B2
ENCODING 946
SWIDTH 562 0
DWIDTH 9 0
BBX 7 12 1 -2
BITMAP
78
84
82
84
F8
84
82
82
C4
B8
80
80
ENDCHAR
STARTCHAR uni03B8
ENCODING 952
SWIDTH 562 0
DWIDTH 9 0
BBX 7 10 1 0
BITMAP
38
44
82
82
FE
82
82
82
44
38
ENDCHAR
STARTCHAR uni03C0
ENCODING 960
SWIDTH 562 0
DWIDTH 9 0
BBX 7 7 1 0
BITMAP
FE
48
48
48
48
4A
44
ENDCHAR
STARTCHAR uni0E3F
ENCODING 3647
SWIDTH 562 0
DWIDTH 9 0
BBX 7 12 1 -1
BITMAP
10
FC
92
92
94
F8
94
92
92
FC
10
10
ENDCHAR
STARTCHAR uni1D6C
ENCODING 7532
SWIDTH 562 0
DWIDTH 9 0
BBX 7 10 1 0
BITMAP
40
D0
60
58
64
42
42
42
64
58
ENDCHAR
STARTCHAR uni1D6D
ENCODING 7533
SWIDTH 562 0
DWIDTH 9 0
BBX 7 11 1 0
BITMAP
04
0C
16
04
34
4C
84
84
84
4C
34
ENDCHAR
STARTCHAR uni1D6E
ENCODING 7534
SWIDTH 562 0
DWIDTH 9 0
BBX 7 11 1 0
BITMAP
0C
12
10
10
FE
10
34
58
10
10
10
ENDCHAR
STARTCHAR uni1D6F
ENCODING 7535
SWIDTH 562 0
DWIDTH 9 0
BBX 7 7 1 0
BITMAP
28
54
54
76
DC
54
54
ENDCHAR
STARTCHAR uni1D70
ENCODING 7536
SWIDTH 562 0
DWIDTH 9 0
BBX 7 7 1 0
BITMAP
98
64
44
6C
D6
44
44
ENDCHAR
STARTCHAR uni1D71
ENCODING 7537
SWIDTH 562 0
DWIDTH 9 0
BBX 7 10 1 -3
BITMAP
58
64
42
42
42
64
58
60
D0
40
ENDCHAR
STARTCHAR uni1D72
ENCODING 7538
SWIDTH 562 0
DWIDTH 9 0
BBX 7 7 1 0
BITMAP
98
A4
42
68
D0
40
F8
ENDCHAR
STARTCHAR uni1D73
ENCODING 7539
SWIDTH 562 0
DWIDTH 9 0
BBX 7 7 1 0
BITMAP
0C
12
10
54
BA
10
10
ENDCHAR
STARTCHAR uni1D74
ENCODING 7540
SWIDTH 562 0
DWIDTH 9 0
BBX 7 7 1 0
BITMAP
3C
42
80
7A
84
42
3C
ENDCHAR
STARTCHAR uni1D75
ENCODING 7541
SWIDTH 562 0
DWIDTH 9 0
BBX 7 10 1 0
BITMAP
10
10
10
FE
10
34
58
12
12
0C
ENDCHAR
STARTCHAR uni1D76
ENCODING 7542
SWIDTH 562 0
DWIDTH 9 0
BBX 7 7 1 0
BITMAP
7E
84
48
B4
28
42
FC
ENDCHAR
STARTCHAR uni1DC4
ENCODING 7620
SWIDTH 0 0
DWIDTH 0 0
BBX 5 2 2 10
BITMAP
08
F0
ENDCHAR
STARTCHAR uni1DC5
ENCODING 7621
SWIDTH 0 0
DWIDTH 0 0
BBX 5 2 2 10
BITMAP
80
78
ENDCHAR
STARTCHAR uni1DC6
ENCODING 7622
SWIDTH 0 0
DWIDTH 0 0
BBX 5 2 2 10
BITMAP
F0
08
ENDCHAR
STARTCHAR uni1DC7
ENCODING 7623
SWIDTH 0 0
DWIDTH 0 0
BBX 5 2 2 10
BITMAP
78
80
ENDCHAR
STARTCHAR uni1DC8
ENCODING 7624
SWIDTH 0 0
DWIDTH 0 0
BBX 4 2 2 10
BITMAP
A0
50
ENDCHAR
STARTCHAR uni1DC9
ENCODING 7625
SWIDTH 0 0
DWIDTH 0 0
BBX 5 2 2 10
BITMAP
50
A8
ENDCHAR
STARTCHAR uni1E04
ENCODING 7684
SWIDTH 562 0
DWIDTH 9 0
BBX 7 12 1 -2
BITMAP
F8
84
82
84
F8
84
82
82
84
F8
00
10
ENDCHAR
STARTCHAR uni1E05
ENCODING 7685
SWIDTH 562 0
DWIDTH 9 0
BBX 7 12 1 -2
BITMAP
80
80
80
B8
C4
82
82
82
C4
B8
00
10
ENDCHAR
STARTCHAR uni1E0C
ENCODING 7692
SWIDTH 562 0
DWIDTH 9 0
BBX 7 12 1 -2
BITMAP
F8
84
82
82
82
82
82
82
84
F8
00
10
ENDCHAR
STARTCHAR uni1E0D
ENCODING 7693
SWIDTH 562 0
DWIDTH 9 0
BBX 7 13 1 -2
BITMAP
02
02
02
02
3A
46
82
82
82
46
3A
00
10
ENDCHAR
STARTCHAR uni1E0E
ENCODING 7694
SWIDTH 562 0
DWIDTH 9 0
BBX 7 13 1 -3
BITMAP
F8
84
82
82
82
82
82
82
84
F8
00
00
38
ENDCHAR
STARTCHAR uni1E0F
ENCODING 7695
SWIDTH 562 0
DWIDTH 9 0
BBX 7 14 1 -3
BITMAP
02
02
02
02
3A
46
82
82
82
46
3A
00
00
38
ENDCHAR
STARTCHAR uni1E12
ENCODING 7698
SWIDTH 562 0
DWIDTH 9 0
BBX 7 13 1 -3
BITMAP
F8
84
82
82
82
82
82
82
84
F8
00
10
28
ENDCHAR
STARTCHAR uni1E13
ENCODING 7699
SWIDTH 562 0
DWIDTH 9 0
BBX 7 14 1 -3
BITMAP
02
02
02
02
3A
46
82
82
82
46
3A
00
10
28
ENDCHAR
STARTCHAR uni1E20
ENCODING 7712
SWIDTH 562 0
DWIDTH 9 0
BBX 7 12 1 0
BITMAP
7C
00
38
44
82
80
80
9E
82
82
44
38
ENDCHAR
STARTCHAR uni1E21
ENCODING 7713
SWIDTH 562 0
DWIDTH 9 0
BBX 7 12 1 -3
BITMAP
7C
00
3A
44
82
82
82
46
3A
02
44
38
ENDCHAR
STARTCHAR uni1E24
ENCODING 7716
SWIDTH 562 0
DWIDTH 9 0
BBX 7 12 1 -2
BITMAP
82
82
82
82
FE
82
82
82
82
82
00
10
ENDCHAR
STARTCHAR uni1E25
ENCODING 7717
SWIDTH 562 0
DWIDTH 9 0
BBX 7 12 1 -2
BITMAP
40
C0
40
58
64
42
42
42
42
42
00
10
ENDCHAR
STARTCHAR uni1E2A
ENCODING 7722
SWIDTH 562 0
DWIDTH 9 0
BBX 7 13 1 -3
BITMAP
82
82
82
82
FE
82
82
82
82
82
00
44
38
ENDCHAR
STARTCHAR uni1E2B
ENCODING 7723
SWIDTH 562 0
DWIDTH 9 0
BBX 7 13 1 -3
BITMAP
40
C0
40
58
64
42
42
42
42
42
00
44
38
ENDCHAR
STARTCHAR uni1E2E
ENCODING 7726
SWIDTH 562 0
DWIDTH 9 0
BBX 7 15 1 0
BITMAP
08
10
00
28
00
FE
10
10
10
10
10
10
10
10
FE
ENDCHAR
STARTCHAR uni1E2F
ENCODING 7727
SWIDTH 562 0
DWIDTH 9 0
BBX 7 15 1 0
BITMAP
08
10
00
28
00
10
F0
10
10
10
10
10
10
12
0C
ENDCHAR
STARTCHAR uni1E34
ENCODING 7732
SWIDTH 562 0
DWIDTH 9 0
BBX 7 13 1 -3
BITMAP
86
88
90
A0
C0
A0
90
88
84
82
00
00
38
ENDCHAR
STARTCHAR uni1E35
ENCODING 7733
SWIDTH 562 0
DWIDTH 9 0
BBX 7 13 1 -3
BITMAP
80
80
80
8C
90
E0
A0
90
88
86
00
00
38
ENDCHAR
STARTCHAR uni1E36
ENCODING 7734
SWIDTH 562 0
DWIDTH 9 0
BBX 7 12 1 -2
BITMAP
C0
40
40
40
40
40
40
40
40
7E
00
10
ENDCHAR
STARTCHAR uni1E37
ENCODING 7735
SWIDTH 562 0
DWIDTH 9 0
BBX 7 12 1 -2
BITMAP
20
E0
20
20
20
20
20
20
12
0C
00
10
ENDCHAR
STARTCHAR uni1E38
ENCODING 7736
SWIDTH 562 0
DWIDTH 9 0
BBX 7 14 1 -2
BITMAP
7C
00
C0
40
40
40
40
40
40
40
40
7E
00
10
ENDCHAR
STARTCHAR uni1E39
ENCODING 7737
SWIDTH 562 0
DWIDTH 9 0
BBX 7 17 1 -2
BITMAP
7C
00
00
00
00
20
E0
20
20
20
20
20
20
12
0C
00
10
ENDCHAR
STARTCHAR uni1E3A
ENCODING 7738
SWIDTH 562 0
DWIDTH 9 0
BBX 7 13 1 -3
BITMAP
C0
40
40
40
40
40
40
40
40
7E
00
00
38
ENDCHAR
STARTCHAR uni1E3B
ENCODING 7739
SWIDTH 562 0
DWIDTH 9 0
BBX 7 13 1 -3
BITMAP
20
E0
20
20
20
20
20
20
12
0C
00
00
38
ENDCHAR
STARTCHAR uni1E3C
ENCODING 7740
SWIDTH 562 0
DWIDTH 9 0
BBX 7 13 1 -3
BITMAP
C0
40
40
40
40
40
40
40
40
7E
00
10
28
ENDCHAR
STARTCHAR uni1E3D
ENCODING 7741
SWIDTH 562 0
DWIDTH 9 0
BBX 7 13 1 -3
BITMAP
10
F0
10
10
10
10
10
10
12
0C
00
10
28
ENDCHAR
STARTCHAR uni1E3E
ENCODING 7742
SWIDTH 562 0
DWIDTH 9 0
BBX 7 13 1 0
BITMAP
08
10
00
82
C6
AA
AA
AA
92
92
82
82
82
ENDCHAR
STARTCHAR uni1E3F
ENCODING 7743
SWIDTH 562 0
DWIDTH 9 0
BBX 7 10 1 0
BITMAP
08
10
00
6C
92
92
92
92
92
92
ENDCHAR
STARTCHAR uni1E40
ENCODING 7744
SWIDTH 562 0
DWIDTH 9 0
BBX 7 12 1 0
BITMAP
10
00
82
C6
AA
AA
AA
92
92
82
82
82
ENDCHAR
STARTCHAR uni1E41
ENCODING 7745
SWIDTH 562 0
DWIDTH 9 0
BBX 7 9 1 0
BITMAP
10
00
6C
92
92
92
92
92
92
ENDCHAR
STARTCHAR uni1E42
ENCODING 7746
SWIDTH 562 0
DWIDTH 9 0
BBX 7 12 1 -2
BITMAP
82
C6
AA
AA
AA
92
92
82
82
82
00
10
ENDCHAR
STARTCHAR uni1E43
ENCODING 7747
SWIDTH 562 0
DWIDTH 9 0
BBX 7 9 1 -2
BITMAP
6C
92
92
92
92
92
92
00
10
ENDCHAR
STARTCHAR uni1E44
ENCODING 7748
SWIDTH 562 0
DWIDTH 9 0
BBX 7 12 1 0
BITMAP
10
00
82
C2
A2
A2
92
92
8A
8A
86
82
ENDCHAR
STARTCHAR uni1E45
ENCODING 7749
SWIDTH 562 0
DWIDTH 9 0
BBX 7 9 1 0
BITMAP
10
00
98
64
42
42
42
42
42
ENDCHAR
STARTCHAR uni1E46
ENCODING 7750
SWIDTH 562 0
DWIDTH 9 0
BBX 7 12 1 -2
BITMAP
82
C2
A2
A2
92
92
8A
8A
86
82
00
10
ENDCHAR
STARTCHAR uni1E47
ENCODING 7751
SWIDTH 562 0
DWIDTH 9 0
BBX 7 9 1 -2
BITMAP
98
64
42
42
42
42
42
00
10
ENDCHAR
STARTCHAR uni1E48
ENCODING 7752
SWIDTH 562 0
DWIDTH 9 0
BBX 7 13 1 -3
BITMAP
82
C2
A2
A2
92
92
8A
8A
86
82
00
00
38
ENDCHAR
STARTCHAR uni1E49
ENCODING 7753
SWIDTH 562 0
DWIDTH 9 0
BBX 7 10 1 -3
BITMAP
98
64
42
42
42
42
42
00
00
38
ENDCHAR
STARTCHAR uni1E4A
ENCODING 7754
SWIDTH 562 0
DWIDTH 9 0
BBX 7 13 1 -3
BITMAP
82
C2
A2
A2
92
92
8A
8A
86
82
00
10
28
ENDCHAR
STARTCHAR uni1E4B
ENCODING 7755
SWIDTH 562 0
DWIDTH 9 0
BBX 7 10 1 -3
BITMAP
98
64
42
42
42
42
42
00
10
28
ENDCHAR
STARTCHAR uni1E4C
ENCODING 7756
SWIDTH 562 0
DWIDTH 9 0
BBX 7 16 1 0
BITMAP
08
10
00
20
54
08
38
44
82
82
82
82
82
82
44
38
ENDCHAR
STARTCHAR uni1E4D
ENCODING 7757
SWIDTH 562 0
DWIDTH 9 0
BBX 7 13 1 0
BITMAP
08
10
00
20
54
08
38
44
82
82
82
44
38
ENDCHAR
STARTCHAR uni1E50
ENCODING 7760
SWIDTH 562 0
DWIDTH 9 0
BBX 7 15 1 0
BITMAP
20
10
00
7C
00
38
44
82
82
82
82
82
82
44
38
ENDCHAR
STARTCHAR uni1E51
ENCODING 7761
SWIDTH 562 0
DWIDTH 9 0
BBX 7 12 1 0
BITMAP
20
10
00
7C
00
38
44
82
82
82
44
38
ENDCHAR
STARTCHAR uni1E52
ENCODING 7762
SWIDTH 562 0
DWIDTH 9 0
BBX 7 15 1 0
BITMAP
08
10
00
7C
00
38
44
82
82
82
82
82
82
44
38
ENDCHAR
STARTCHAR uni1E53
ENCODING 7763
SWIDTH 562 0
DWIDTH 9 0
BBX 7 12 1 0
BITMAP
08
10
00
7C
00
38
44
82
82
82
44
38
ENDCHAR
STARTCHAR uni1E5C
ENCODING 7772
SWIDTH 562 0
DWIDTH 9 0
BBX 7 14 1 -2
BITMAP
7C
00
F8
84
82
82
84
F8
90
88
84
82
00
10
ENDCHAR
STARTCHAR uni1E5D
ENCODING 7773
SWIDTH 562 0
DWIDTH 9 0
BBX 7 11 1 -2
BITMAP
7C
00
98
A4
42
40
40
40
F8
00
10
ENDCHAR
STARTCHAR uni1E5E
ENCODING 7774
SWIDTH 562 0
DWIDTH 9 0
BBX 7 13 1 -3
BITMAP
F8
84
82
82
84
F8
90
88
84
82
00
00
38
ENDCHAR
STARTCHAR uni1E5F
ENCODING 7775
SWIDTH 562 0
DWIDTH 9 0
BBX 7 10 1 -3
BITMAP
98
A4
42
40
40
40
F8
00
00
38
ENDCHAR
STARTCHAR uni1E62
ENCODING 7778
SWIDTH 562 0
DWIDTH 9 0
BBX 7 12 1 -2
BITMAP
38
44
82
80
70
0C
02
82
44
38
00
10
ENDCHAR
STARTCHAR uni1E63
ENCODING 7779
SWIDTH 562 0
DWIDTH 9 0
BBX 7 9 1 -2
BITMAP
3C
42
80
7C
02
84
78
00
10
ENDCHAR
STARTCHAR uni1E6C
ENCODING 7788
SWIDTH 562 0
DWIDTH 9 0
BBX 7 12 1 -2
BITMAP
FE
10
10
10
10
10
10
10
10
10
00
10
ENDCHAR
STARTCHAR uni1E6D
ENCODING 7789
SWIDTH 562 0
DWIDTH 9 0
BBX 7 12 1 -2
BITMAP
10
10
10
FE
10
10
10
12
12
0C
00
10
ENDCHAR
STARTCHAR uni1E6E
ENCODING 7790
SWIDTH 562 0
DWIDTH 9 0
BBX 7 13 1 -3
BITMAP
FE
10
10
10
10
10
10
10
10
10
00
00
38
ENDCHAR
STARTCHAR uni1E6F
ENCODING 7791
SWIDTH 562 0
DWIDTH 9 0
BBX 7 13 1 -3
BITMAP
10
10
10
FE
10
10
10
12
12
0C
00
00
38
ENDCHAR
STARTCHAR uni1E70
ENCODING 7792
SWIDTH 562 0
DWIDTH 9 0
BBX 7 13 1 -3
BITMAP
FE
10
10
10
10
10
10
10
10
10
00
10
28
ENDCHAR
STARTCHAR uni1E71
ENCODING 7793
SWIDTH 562 0
DWIDTH 9 0
BBX 7 13 1 -3
BITMAP
10
10
10
FE
10
10
10
12
12
0C
00
10
28
ENDCHAR
STARTCHAR uni1E80
ENCODING 7808
SWIDTH 562 0
DWIDTH 9 0
BBX 7 13 1 0
BITMAP
20
10
00
82
82
82
92
92
92
92
AA
AA
44
ENDCHAR
STARTCHAR uni1E81
ENCODING 7809
SWIDTH 562 0
DWIDTH 9 0
BBX 7 10 1 0
BITMAP
20
10
00
92
92
92
92
92
AA
44
ENDCHAR
STARTCHAR uni1E82
ENCODING 7810
SWIDTH 562 0
DWIDTH 9 0
BBX 7 13 1 0
BITMAP
08
10
00
82
82
82
92
92
92
92
AA
AA
44
ENDCHAR
STARTCHAR uni1E83
ENCODING 7811
SWIDTH 562 0
DWIDTH 9 0
BBX 7 10 1 0
BITMAP
08
10
00
92
92
92
92
92
AA
44
ENDCHAR
STARTCHAR uni1E84
ENCODING 7812
SWIDTH 562 0
DWIDTH 9 0
BBX 7 12 1 0
BITMAP
28
00
82
82
82
92
92
92
92
AA
AA
44
ENDCHAR
STARTCHAR uni1E85
ENCODING 7813
SWIDTH 562 0
DWIDTH 9 0
BBX 7 9 1 0
BITMAP
28
00
92
92
92
92
92
AA
44
ENDCHAR
STARTCHAR uni1E8E
ENCODING 7822
SWIDTH 562 0
DWIDTH 9 0
BBX 7 12 1 0
BITMAP
10
00
82
82
44
44
28
10
10
10
10
10
ENDCHAR
STARTCHAR uni1E8F
ENCODING 7823
SWIDTH 562 0
DWIDTH 9 0
BBX 7 12 1 -3
BITMAP
10
00
82
82
44
44
28
28
10
10
A0
40
ENDCHAR
STARTCHAR uni1E92
ENCODING 7826
SWIDTH 562 0
DWIDTH 9 0
BBX 7 12 1 -2
BITMAP
FE
04
04
08
10
10
20
40
40
FE
00
10
ENDCHAR
STARTCHAR uni1E93
ENCODING 7827
SWIDTH 562 0
DWIDTH 9 0
BBX 7 9 1 -2
BITMAP
7E
84
08
10
20
42
FC
00
10
ENDCHAR
STARTCHAR uni1E94
ENCODING 7828
SWIDTH 562 0
DWIDTH 9 0
BBX 7 13 1 -3
BITMAP
FE
04
04
08
10
10
20
40
40
FE
00
00
38
ENDCHAR
STARTCHAR uni1E95
ENCODING 7829
SWIDTH 562 0
DWIDTH 9 0
BBX 7 10 1 -3
BITMAP
7E
84
08
10
20
42
FC
00
00
38
ENDCHAR
STARTCHAR uni1E96
ENCODING 7830
SWIDTH 562 0
DWIDTH 9 0
BBX 7 13 1 -3
BITMAP
40
C0
40
58
64
42
42
42
42
42
00
00
38
ENDCHAR
STARTCHAR uni1E97
ENCODING 7831
SWIDTH 562 0
DWIDTH 9 0
BBX 7 10 1 0
BITMAP
10
38
10
FE
10
10
10
12
12
0C
ENDCHAR
STARTCHAR uni1E9E
ENCODING 7838
SWIDTH 562 0
DWIDTH 9 0
BBX 7 10 1 0
BITMAP
7C
82
84
88
90
88
84
82
A2
9C
ENDCHAR
STARTCHAR uni1EA0
ENCODING 7840
SWIDTH 562 0
DWIDTH 9 0
BBX 7 12 1 -2
BITMAP
10
28
28
44
44
7C
82
82
82
82
00
10
ENDCHAR
STARTCHAR uni1EA1
ENCODING 7841
SWIDTH 562 0
DWIDTH 9 0
BBX 7 9 1 -2
BITMAP
70
88
04
74
8C
84
7A
00
10
ENDCHAR
STARTCHAR uni1EA2
ENCODING 7842
SWIDTH 562 0
DWIDTH 9 0
BBX 7 13 1 0
BITMAP
30
08
10
10
28
28
44
44
7C
82
82
82
82
ENDCHAR
STARTCHAR uni1EA3
ENCODING 7843
SWIDTH 562 0
DWIDTH 9 0
BBX 7 10 1 0
BITMAP
60
10
20
70
88
04
74
8C
84
7A
ENDCHAR
STARTCHAR uni1EA4
ENCODING 7844
SWIDTH 562 0
DWIDTH 9 0
BBX 7 16 1 0
BITMAP
08
10
00
10
28
00
10
28
28
44
44
7C
82
82
82
82
ENDCHAR
STARTCHAR uni1EA5
ENCODING 7845
SWIDTH 562 0
DWIDTH 9 0
BBX 7 13 1 0
BITMAP
10
20
00
20
50
00
70
88
04
74
8C
84
7A
ENDCHAR
STARTCHAR uni1EA6
ENCODING 7846
SWIDTH 562 0
DWIDTH 9 0
BBX 7 16 1 0
BITMAP
20
10
00
10
28
00
10
28
28
44
44
7C
82
82
82
82
ENDCHAR
STARTCHAR uni1EA7
ENCODING 7847
SWIDTH 562 0
DWIDTH 9 0
BBX 7 13 1 0
BITMAP
40
20
00
20
50
00
70
88
04
74
8C
84
7A
ENDCHAR
STARTCHAR uni1EA8
ENCODING 7848
SWIDTH 562 0
DWIDTH 9 0
BBX 7 15 1 0
BITMAP
10
08
10
28
00
10
28
28
44
44
7C
82
82
82
82
ENDCHAR
STARTCHAR uni1EA9
ENCODING 7849
SWIDTH 562 0
DWIDTH 9 0
BBX 7 12 1 0
BITMAP
20
10
20
50
00
70
88
04
74
8C
84
7A
ENDCHAR
STARTCHAR uni1EAA
ENCODING 7850
SWIDTH 562 0
DWIDTH 9 0
BBX 7 16 1 0
BITMAP
20
54
08
10
28
00
10
28
28
44
44
7C
82
82
82
82
ENDCHAR
STARTCHAR uni1EAB
ENCODING 7851
SWIDTH 562 0
DWIDTH 9 0
BBX 7 13 1 0
BITMAP
40
A8
10
20
50
00
70
88
04
74
8C
84
7A
ENDCHAR
STARTCHAR uni1EAC
ENCODING 7852
SWIDTH 562 0
DWIDTH 9 0
BBX 7 15 1 -2
BITMAP
10
28
00
10
28
28
44
44
7C
82
82
82
82
00
10
ENDCHAR
STARTCHAR uni1EAD
ENCODING 7853
SWIDTH 562 0
DWIDTH 9 0
BBX 7 12 1 -2
BITMAP
20
50
00
70
88
04
74
8C
84
7A
00
10
ENDCHAR
STARTCHAR uni1EAE
ENCODING 7854
SWIDTH 562 0
DWIDTH 9 0
BBX 7 16 1 0
BITMAP
08
10
00
44
38
00
10
28
28
44
44
7C
82
82
82
82
ENDCHAR
STARTCHAR uni1EAF
ENCODING 7855
SWIDTH 562 0
DWIDTH 9 0
BBX 7 13 1 0
BITMAP
10
20
00
88
70
00
70
88
04
74
8C
84
7A
ENDCHAR
STARTCHAR uni1EB0
ENCODING 7856
SWIDTH 562 0
DWIDTH 9 0
BBX 7 16 1 0
BITMAP
20
10
00
44
38
00
10
28
28
44
44
7C
82
82
82
82
ENDCHAR
STARTCHAR uni1EB1
ENCODING 7857
SWIDTH 562 0
DWIDTH 9 0
BBX 7 13 1 0
BITMAP
40
20
00
88
70
00
70
88
04
74
8C
84
7A
ENDCHAR
STARTCHAR uni1EB2
ENCODING 7858
SWIDTH 562 0
DWIDTH 9 0
BBX 7 16 1 0
BITMAP
30
08
10
44
38
00
10
28
28
44
44
7C
82
82
82
82
ENDCHAR
STARTCHAR uni1EB3
ENCODING 7859
SWIDTH 562 0
DWIDTH 9 0
BBX 7 13 1 0
BITMAP
60
10
20
88
70
00
70
88
04
74
8C
84
7A
ENDCHAR
STARTCHAR uni1EB4
ENCODING 7860
SWIDTH 562 0
DWIDTH 9 0
BBX 7 16 1 0
BITMAP
20
54
08
44
38
00
10
28
28
44
44
7C
82
82
82
82
ENDCHAR
STARTCHAR uni1EB5
ENCODING 7861
SWIDTH 562 0
DWIDTH 9 0
BBX 7 13 1 0
BITMAP
40
A8
10
88
70
00
70
88
04
74
8C
84
7A
ENDCHAR
STARTCHAR uni1EB6
ENCODING 7862
SWIDTH 562 0
DWIDTH 9 0
BBX 7 15 1 -2
BITMAP
44
38
00
10
28
28
44
44
7C
82
82
82
82
00
10
ENDCHAR
STARTCHAR uni1EB7
ENCODING 7863
SWIDTH 562 0
DWIDTH 9 0
BBX 7 12 1 -2
BITMAP
88
70
00
70
88
04
74
8C
84
7A
00
10
ENDCHAR
STARTCHAR uni1EB8
ENCODING 7864
SWIDTH 562 0
DWIDTH 9 0
BBX 7 12 1 -2
BITMAP
FE
80
80
80
FC
80
80
80
80
FE
00
10
ENDCHAR
STARTCHAR uni1EB9
ENCODING 7865
SWIDTH 562 0
DWIDTH 9 0
BBX 7 9 1 -2
BITMAP
38
44
82
FC
80
44
38
00
10
ENDCHAR
STARTCHAR uni1EBA
ENCODING 7866
SWIDTH 562 0
DWIDTH 9 0
BBX 7 13 1 0
BITMAP
30
08
10
FE
80
80
80
FC
80
80
80
80
FE
ENDCHAR
STARTCHAR uni1EBB
ENCODING 7867
SWIDTH 562 0
DWIDTH 9 0
BBX 7 10 1 0
BITMAP
30
08
10
38
44
82
FC
80
44
38
ENDCHAR
STARTCHAR uni1EBC
ENCODING 7868
SWIDTH 562 0
DWIDTH 9 0
BBX 7 13 1 0
BITMAP
20
54
08
FE
80
80
80
FC
80
80
80
80
FE
ENDCHAR
STARTCHAR uni1EBD
ENCODING 7869
SWIDTH 562 0
DWIDTH 9 0
BBX 7 10 1 0
BITMAP
20
54
08
38
44
82
FC
80
44
38
ENDCHAR
STARTCHAR uni1EBE
ENCODING 7870
SWIDTH 562 0
DWIDTH 9 0
BBX 7 16 1 0
BITMAP
08
10
00
10
28
00
FE
80
80
80
FC
80
80
80
80
FE
ENDCHAR
STARTCHAR uni1EBF
ENCODING 7871
SWIDTH 562 0
DWIDTH 9 0
BBX 7 13 1 0
BITMAP
08
10
00
10
28
00
38
44
82
FC
80
44
38
ENDCHAR
STARTCHAR uni1EC0
ENCODING 7872
SWIDTH 562 0
DWIDTH 9 0
BBX 7 16 1 0
BITMAP
20
10
00
10
28
00
FE
80
80
80
FC
80
80
80
80
FE
ENDCHAR
STARTCHAR uni1EC1
ENCODING 7873
SWIDTH 562 0
DWIDTH 9 0
BBX 7 13 1 0
BITMAP
20
10
00
10
28
00
38
44
82
FC
80
44
38
ENDCHAR
STARTCHAR uni1EC2
ENCODING 7874
SWIDTH 562 0
DWIDTH 9 0
BBX 7 15 1 0
BITMAP
10
08
10
28
00
FE
80
80
80
FC
80
80
80
80
FE
ENDCHAR
STARTCHAR uni1EC3
ENCODING 7875
SWIDTH 562 0
DWIDTH 9 0
BBX 7 12 1 0
BITMAP
10
08
10
28
00
38
44
82
FC
80
44
38
ENDCHAR
STARTCHAR uni1EC4
ENCODING 7876
SWIDTH 562 0
DWIDTH 9 0
BBX 7 16 1 0
BITMAP
20
54
08
10
28
00
FE
80
80
80
FC
80
80
80
80
FE
ENDCHAR
STARTCHAR uni1EC5
ENCODING 7877
SWIDTH 562 0
DWIDTH 9 0
BBX 7 13 1 0
BITMAP
20
54
08
10
28
00
38
44
82
FC
80
44
38
ENDCHAR
STARTCHAR uni1EC6
ENCODING 7878
SWIDTH 562 0
DWIDTH 9 0
BBX 7 15 1 -2
BITMAP
10
28
00
FE
80
80
80
FC
80
80
80
80
FE
00
10
ENDCHAR
STARTCHAR uni1EC7
ENCODING 7879
SWIDTH 562 0
DWIDTH 9 0
BBX 7 12 1 -2
BITMAP
10
28
00
38
44
82
FC
80
44
38
00
10
ENDCHAR
STARTCHAR uni1EC8
ENCODING 7880
SWIDTH 562 0
DWIDTH 9 0
BBX 7 13 1 0
BITMAP
30
08
10
FE
10
10
10
10
10
10
10
10
FE
ENDCHAR
STARTCHAR uni1EC9
ENCODING 7881
SWIDTH 562 0
DWIDTH 9 0
BBX 7 13 1 0
BITMAP
18
04
08
10
F0
10
10
10
10
10
10
12
0C
ENDCHAR
STARTCHAR uni1ECA
ENCODING 7882
SWIDTH 562 0
DWIDTH 9 0
BBX 7 12 1 -2
BITMAP
FE
10
10
10
10
10
10
10
10
FE
00
10
ENDCHAR
STARTCHAR uni1ECB
ENCODING 7883
SWIDTH 562 0
DWIDTH 9 0
BBX 7 12 1 -2
BITMAP
10
10
00
30
D0
10
10
10
12
0C
00
10
ENDCHAR
STARTCHAR uni1ECC
ENCODING 7884
SWIDTH 562 0
DWIDTH 9 0
BBX 7 12 1 -2
BITMAP
38
44
82
82
82
82
82
82
44
38
00
10
ENDCHAR
STARTCHAR uni1ECD
ENCODING 7885
SWIDTH 562 0
DWIDTH 9 0
BBX 7 9 1 -2
BITMAP
38
44
82
82
82
44
38
00
10
ENDCHAR
STARTCHAR uni1ECE
ENCODING 7886
SWIDTH 562 0
DWIDTH 9 0
BBX 7 13 1 0
BITMAP
30
08
10
38
44
82
82
82
82
82
82
44
38
ENDCHAR
STARTCHAR uni1ECF
ENCODING 7887
SWIDTH 562 0
DWIDTH 9 0
BBX 7 10 1 0
BITMAP
30
08
10
38
44
82
82
82
44
38
ENDCHAR
STARTCHAR uni1ED0
ENCODING 7888
SWIDTH 562 0
DWIDTH 9 0
BBX 7 16 1 0
BITMAP
08
10
00
10
28
00
38
44
82
82
82
82
82
82
44
38
ENDCHAR
STARTCHAR uni1ED1
ENCODING 7889
SWIDTH 562 0
DWIDTH 9 0
BBX 7 13 1 0
BITMAP
08
10
00
10
28
00
38
44
82
82
82
44
38
ENDCHAR
STARTCHAR uni1ED2
ENCODING 7890
SWIDTH 562 0
DWIDTH 9 0
BBX 7 16 1 0
BITMAP
20
10
00
10
28
00
38
44
82
82
82
82
82
82
44
38
ENDCHAR
STARTCHAR uni1ED3
ENCODING 7891
SWIDTH 562 0
DWIDTH 9 0
BBX 7 13 1 0
BITMAP
20
10
00
10
28
00
38
44
82
82
82
44
38
ENDCHAR
STARTCHAR uni1ED4
ENCODING 7892
SWIDTH 562 0
DWIDTH 9 0
BBX 7 15 1 0
BITMAP
10
08
10
28
00
38
44
82
82
82
82
82
82
44
38
ENDCHAR
STARTCHAR uni1ED5
ENCODING 7893
SWIDTH 562 0
DWIDTH 9 0
BBX 7 12 1 0
BITMAP
10
08
10
28
00
38
44
82
82
82
44
38
ENDCHAR
STARTCHAR uni1ED6
ENCODING 7894
SWIDTH 562 0
DWIDTH 9 0
BBX 7 16 1 0
BITMAP
20
54
08
10
28
00
38
44
82
82
82
82
82
82
44
38
ENDCHAR
STARTCHAR uni1ED7
ENCODING 7895
SWIDTH 562 0
DWIDTH 9 0
BBX 7 13 1 0
BITMAP
20
54
08
10
28
00
38
44
82
82
82
44
38
ENDCHAR
STARTCHAR uni1ED8
ENCODING 7896
SWIDTH 562 0
DWIDTH 9 0
BBX 7 15 1 -2
BITMAP
10
28
00
38
44
82
82
82
82
82
82
44
38
00
10
ENDCHAR
STARTCHAR uni1ED9
ENCODING 7897
SWIDTH 562 0
DWIDTH 9 0
BBX 7 12 1 -2
BITMAP
10
28
00
38
44
82
82
82
44
38
00
10
ENDCHAR
STARTCHAR uni1EDA
ENCODING 7898
SWIDTH 562 0
DWIDTH 9 0
BBX 8 13 1 0
BITMAP
08
12
01
3A
44
82
82
82
82
82
82
44
38
ENDCHAR
STARTCHAR uni1EDB
ENCODING 7899
SWIDTH 562 0
DWIDTH 9 0
BBX 8 10 1 0
BITMAP
08
12
01
3A
44
82
82
82
44
38
ENDCHAR
STARTCHAR uni1EDC
ENCODING 7900
SWIDTH 562 0
DWIDTH 9 0
BBX 8 13 1 0
BITMAP
20
12
01
3A
44
82
82
82
82
82
82
44
38
ENDCHAR
STARTCHAR uni1EDD
ENCODING 7901
SWIDTH 562 0
DWIDTH 9 0
BBX 8 10 1 0
BITMAP
20
12
01
3A
44
82
82
82
44
38
ENDCHAR
STARTCHAR uni1EDE
ENCODING 7902
SWIDTH 562 0
DWIDTH 9 0
BBX 8 13 1 0
BITMAP
30
0A
11
3A
44
82
82
82
82
82
82
44
38
ENDCHAR
STARTCHAR uni1EDF
ENCODING 7903
SWIDTH 562 0
DWIDTH 9 0
BBX 8 10 1 0
BITMAP
30
0A
11
3A
44
82
82
82
44
38
ENDCHAR
STARTCHAR uni1EE0
ENCODING 7904
SWIDTH 562 0
DWIDTH 9 0
BBX 8 13 1 0
BITMAP
20
56
09
3A
44
82
82
82
82
82
82
44
38
ENDCHAR
STARTCHAR uni1EE1
ENCODING 7905
SWIDTH 562 0
DWIDTH 9 0
BBX 8 10 1 0
BITMAP
20
56
09
3A
44
82
82
82
44
38
ENDCHAR
STARTCHAR uni1EE2
ENCODING 7906
SWIDTH 562 0
DWIDTH 9 0
BBX 8 14 1 -2
BITMAP
02
01
3A
44
82
82
82
82
82
82
44
38
00
10
ENDCHAR
STARTCHAR uni1EE3
ENCODING 7907
SWIDTH 562 0
DWIDTH 9 0
BBX 8 11 1 -2
BITMAP
02
01
3A
44
82
82
82
44
38
00
10
ENDCHAR
STARTCHAR uni1EE4
ENCODING 7908
SWIDTH 562 0
DWIDTH 9 0
BBX 7 12 1 -2
BITMAP
82
82
82
82
82
82
82
82
44
38
00
10
ENDCHAR
STARTCHAR uni1EE5
ENCODING 7909
SWIDTH 562 0
DWIDTH 9 0
BBX 7 9 1 -2
BITMAP
42
C2
42
42
42
26
1A
00
10
ENDCHAR
STARTCHAR uni1EE6
ENCODING 7910
SWIDTH 562 0
DWIDTH 9 0
BBX 7 13 1 0
BITMAP
30
08
10
82
82
82
82
82
82
82
82
44
38
ENDCHAR
STARTCHAR uni1EE7
ENCODING 7911
SWIDTH 562 0
DWIDTH 9 0
BBX 7 10 1 0
BITMAP
30
08
10
42
C2
42
42
42
26
1A
ENDCHAR
STARTCHAR uni1EE8
ENCODING 7912
SWIDTH 562 0
DWIDTH 9 0
BBX 8 13 1 0
BITMAP
08
12
01
82
82
82
82
82
82
82
82
44
38
ENDCHAR
STARTCHAR uni1EE9
ENCODING 7913
SWIDTH 562 0
DWIDTH 9 0
BBX 8 10 1 0
BITMAP
08
12
01
42
C2
42
42
42
26
1A
ENDCHAR
STARTCHAR uni1EEA
ENCODING 7914
SWIDTH 562 0
DWIDTH 9 0
BBX 8 13 1 0
BITMAP
20
12
01
82
82
82
82
82
82
82
82
44
38
ENDCHAR
STARTCHAR uni1EEB
ENCODING 7915
SWIDTH 562 0
DWIDTH 9 0
BBX 8 10 1 0
BITMAP
20
12
01
42
C2
42
42
42
26
1A
ENDCHAR
STARTCHAR uni1EEC
ENCODING 7916
SWIDTH 562 0
DWIDTH 9 0
BBX 8 13 1 0
BITMAP
30
0A
11
82
82
82
82
82
82
82
82
44
38
ENDCHAR
STARTCHAR uni1EED
ENCODING 7917
SWIDTH 562 0
DWIDTH 9 0
BBX 8 10 1 0
BITMAP
30
0A
11
42
C2
42
42
42
26
1A
ENDCHAR
STARTCHAR uni1EEE
ENCODING 7918
SWIDTH 562 0
DWIDTH 9 0
BBX 8 13 1 0
BITMAP
20
56
09
82
82
82
82
82
82
82
82
44
38
ENDCHAR
STARTCHAR uni1EEF
ENCODING 7919
SWIDTH 562 0
DWIDTH 9 0
BBX 8 10 1 0
BITMAP
20
56
09
42
C2
42
42
42
26
1A
ENDCHAR
STARTCHAR uni1EF0
ENCODING 7920
SWIDTH 562 0
DWIDTH 9 0
BBX 8 14 1 -2
BITMAP
02
01
82
82
82
82
82
82
82
82
44
38
00
10
ENDCHAR
STARTCHAR uni1EF1
ENCODING 7921
SWIDTH 562 0
DWIDTH 9 0
BBX 8 11 1 -2
BITMAP
02
01
42
C2
42
42
42
26
1A
00
10
ENDCHAR
STARTCHAR uni1EF2
ENCODING 7922
SWIDTH 562 0
DWIDTH 9 0
BBX 7 13 1 0
BITMAP
20
10
00
82
82
44
44
28
10
10
10
10
10
ENDCHAR
STARTCHAR uni1EF3
ENCODING 7923
SWIDTH 562 0
DWIDTH 9 0
BBX 7 13 1 -3
BITMAP
20
10
00
82
82
44
44
28
28
10
10
A0
40
ENDCHAR
STARTCHAR uni1EF4
ENCODING 7924
SWIDTH 562 0
DWIDTH 9 0
BBX 7 12 1 -2
BITMAP
82
82
44
44
28
10
10
10
10
10
00
10
ENDCHAR
STARTCHAR uni1EF5
ENCODING 7925
SWIDTH 562 0
DWIDTH 9 0
BBX 7 10 1 -3
BITMAP
82
82
44
44
28
28
10
10
B0
40
ENDCHAR
STARTCHAR uni1EF6
ENCODING 7926
SWIDTH 562 0
DWIDTH 9 0
BBX 7 13 1 0
BITMAP
30
08
10
82
82
44
44
28
10
10
10
10
10
ENDCHAR
STARTCHAR uni1EF7
ENCODING 7927
SWIDTH 562 0
DWIDTH 9 0
BBX 7 13 1 -3
BITMAP
30
08
10
82
82
44
44
28
28
10
10
A0
40
ENDCHAR
STARTCHAR uni1EF8
ENCODING 7928
SWIDTH 562 0
DWIDTH 9 0
BBX 7 13 1 0
BITMAP
20
54
08
82
82
44
44
28
10
10
10
10
10
ENDCHAR
STARTCHAR uni1EF9
ENCODING 7929
SWIDTH 562 0
DWIDTH 9 0
BBX 7 13 1 -3
BITMAP
20
54
08
82
82
44
44
28
28
10
10
A0
40
ENDCHAR
STARTCHAR uni2002
ENCODING 8194
SWIDTH 562 0
DWIDTH 9 0
BBX 1 1 0 0
BITMAP
00
ENDCHAR
STARTCHAR uni2013
ENCODING 8211
SWIDTH 562 0
DWIDTH 9 0
BBX 5 1 2 4
BITMAP
F8
ENDCHAR
STARTCHAR uni2014
ENCODING 8212
SWIDTH 562 0
DWIDTH 9 0
BBX 7 1 1 4
BITMAP
FE
ENDCHAR
STARTCHAR uni2016
ENCODING 8214
SWIDTH 562 0
DWIDTH 9 0
BBX 3 14 3 -2
BITMAP
A0
A0
A0
A0
A0
A0
A0
A0
A0
A0
A0
A0
A0
A0
ENDCHAR
STARTCHAR uni2018
ENCODING 8216
SWIDTH 562 0
DWIDTH 9 0
BBX 2 3 4 8
BITMAP
40
80
80
ENDCHAR
STARTCHAR uni2019
ENCODING 8217
SWIDTH 562 0
DWIDTH 9 0
BBX 2 3 3 8
BITMAP
40
40
80
ENDCHAR
STARTCHAR uni201A
ENCODING 8218
SWIDTH 562 0
DWIDTH 9 0
BBX 2 2 1 -1
BITMAP
40
80
ENDCHAR
STARTCHAR uni201C
ENCODING 8220
SWIDTH 562 0
DWIDTH 9 0
BBX 5 3 2 8
BITMAP
48
90
90
ENDCHAR
STARTCHAR uni201D
ENCODING 8221
SWIDTH 562 0
DWIDTH 9 0
BBX 5 3 2 8
BITMAP
48
48
90
ENDCHAR
STARTCHAR uni201E
ENCODING 8222
SWIDTH 562 0
DWIDTH 9 0
BBX 2 2 1 -1
BITMAP
40
80
ENDCHAR
STARTCHAR uni2020
ENCODING 8224
SWIDTH 562 0
DWIDTH 9 0
BBX 5 6 2 6
BITMAP
20
20
F8
20
20
20
ENDCHAR
STARTCHAR uni2021
ENCODING 8225
SWIDTH 562 0
DWIDTH 9 0
BBX 5 7 2 5
BITMAP
20
20
F8
20
F8
20
20
ENDCHAR
STARTCHAR uni2022
ENCODING 8226
SWIDTH 562 0
DWIDTH 9 0
BBX 3 3 3 3
BITMAP
E0
E0
E0
ENDCHAR
STARTCHAR uni2026
ENCODING 8230
SWIDTH 562 0
DWIDTH 9 0
BBX 1 1 1 0
BITMAP
80
ENDCHAR
STARTCHAR uni2030
ENCODING 8240
SWIDTH 562 0
DWIDTH 9 0
BBX 7 10 1 0
BITMAP
44
A8
A8
B0
50
34
6A
AA
AA
94
ENDCHAR
STARTCHAR uni2039
ENCODING 8249
SWIDTH 562 0
DWIDTH 9 0
BBX 4 7 3 0
BITMAP
10
20
40
80
40
20
10
ENDCHAR
STARTCHAR uni203A
ENCODING 8250
SWIDTH 562 0
DWIDTH 9 0
BBX 4 7 2 0
BITMAP
80
40
20
10
20
40
80
ENDCHAR
STARTCHAR uni203F
ENCODING 8255
SWIDTH 562 0
DWIDTH 9 0
BBX 5 2 2 -3
BITMAP
88
70
ENDCHAR
STARTCHAR uni2044
ENCODING 8260
SWIDTH 562 0
DWIDTH 9 0
BBX 7 10 1 0
BITMAP
02
04
04
08
10
10
20
40
40
80
ENDCHAR
STARTCHAR uni2070
ENCODING 8304
SWIDTH 562 0
DWIDTH 9 0
BBX 7 10 1 0
BITMAP
38
44
82
82
82
82
82
82
44
38
ENDCHAR
STARTCHAR uni2074
ENCODING 8308
SWIDTH 562 0
DWIDTH 9 0
BBX 7 10 1 0
BITMAP
04
0C
14
24
44
84
84
FE
04
04
ENDCHAR
STARTCHAR uni2075
ENCODING 8309
SWIDTH 562 0
DWIDTH 9 0
BBX 7 10 1 0
BITMAP
7C
42
80
B8
C4
02
02
82
44
38
ENDCHAR
STARTCHAR uni2076
ENCODING 8310
SWIDTH 562 0
DWIDTH 9 0
BBX 7 10 1 0
BITMAP
38
44
80
B8
C4
82
82
82
44
38
ENDCHAR
STARTCHAR uni2077
ENCODING 8311
SWIDTH 562 0
DWIDTH 9 0
BBX 7 10 1 0
BITMAP
7E
82
02
04
04
08
08
10
10
10
ENDCHAR
STARTCHAR uni2078
ENCODING 8312
SWIDTH 562 0
DWIDTH 9 0
BBX 7 10 1 0
BITMAP
38
44
82
44
38
44
82
82
44
38
ENDCHAR
STARTCHAR uni2079
ENCODING 8313
SWIDTH 562 0
DWIDTH 9 0
BBX 7 10 1 0
BITMAP
38
44
82
82
82
46
3A
02
44
38
ENDCHAR
STARTCHAR uni207F
ENCODING 8319
SWIDTH 562 0
DWIDTH 9 0
BBX 7 7 1 0
BITMAP
98
64
42
42
42
42
42
ENDCHAR
STARTCHAR uni2080
ENCODING 8320
SWIDTH 562 0
DWIDTH 9 0
BBX 7 10 1 0
BITMAP
38
44
82
82
82
82
82
82
44
38
ENDCHAR
STARTCHAR uni2081
ENCODING 8321
SWIDTH 562 0
DWIDTH 9 0
BBX 7 10 1 0
BITMAP
10
30
D0
10
10
10
10
10
10
FE
ENDCHAR
STARTCHAR uni2082
ENCODING 8322
SWIDTH 562 0
DWIDTH 9 0
BBX 7 10 1 0
BITMAP
38
44
82
82
04
08
10
20
42
FE
ENDCHAR
STARTCHAR uni2083
ENCODING 8323
SWIDTH 562 0
DWIDTH 9 0
BBX 7 10 1 0
BITMAP
38
44
82
04
18
24
02
82
44
38
ENDCHAR
STARTCHAR uni2084
ENCODING 8324
SWIDTH 562 0
DWIDTH 9 0
BBX 7 10 1 0
BITMAP
04
0C
14
24
44
84
84
FE
04
04
ENDCHAR
STARTCHAR uni2085
ENCODING 8325
SWIDTH 562 0
DWIDTH 9 0
BBX 7 10 1 0
BITMAP
7C
42
80
B8
C4
02
02
82
44
38
ENDCHAR
STARTCHAR uni2086
ENCODING 8326
SWIDTH 562 0
DWIDTH 9 0
BBX 7 10 1 0
BITMAP
38
44
80
B8
C4
82
82
82
44
38
ENDCHAR
STARTCHAR uni2087
ENCODING 8327
SWIDTH 562 0
DWIDTH 9 0
BBX 7 10 1 0
BITMAP
7E
82
02
04
04
08
08
10
10
10
ENDCHAR
STARTCHAR uni2088
ENCODING 8328
SWIDTH 562 0
DWIDTH 9 0
BBX 7 10 1 0
BITMAP
38
44
82
44
38
44
82
82
44
38
ENDCHAR
STARTCHAR uni2089
ENCODING 8329
SWIDTH 562 0
DWIDTH 9 0
BBX 7 10 1 0
BITMAP
38
44
82
82
82
46
3A
02
44
38
ENDCHAR
STARTCHAR uni208D
ENCODING 8333
SWIDTH 562 0
DWIDTH 9 0
BBX 3 10 4 0
BITMAP
20
40
40
80
80
80
80
40
40
20
ENDCHAR
STARTCHAR uni208E
ENCODING 8334
SWIDTH 562 0
DWIDTH 9 0
BBX 3 10 2 0
BITMAP
80
40
40
20
20
20
20
40
40
80
ENDCHAR
STARTCHAR uni20AA
ENCODING 8362
SWIDTH 562 0
DWIDTH 9 0
BBX 7 10 1 0
BITMAP
F2
8A
AA
AA
AA
AA
AA
AA
A2
BC
ENDCHAR
STARTCHAR uni20AC
ENCODING 8364
SWIDTH 562 0
DWIDTH 9 0
BBX 7 10 1 0
BITMAP
1C
22
40
F8
40
40
F8
40
22
1C
ENDCHAR
STARTCHAR uni20B4
ENCODING 8372
SWIDTH 562 0
DWIDTH 9 0
BBX 7 10 1 0
BITMAP
78
84
04
FE
00
00
FE
40
42
3C
ENDCHAR
STARTCHAR uni20B9
ENCODING 8377
SWIDTH 562 0
DWIDTH 9 0
BBX 7 10 1 0
BITMAP
FE
04
FE
04
F8
10
08
08
04
02
ENDCHAR
STARTCHAR uni20BD
ENCODING 8381
SWIDTH 562 0
DWIDTH 9 0
BBX 7 10 1 0
BITMAP
78
44
42
44
F8
40
40
FC
40
40
ENDCHAR
STARTCHAR uni2122
ENCODING 8482
SWIDTH 562 0
DWIDTH 9 0
BBX 4 9 1 1
BITMAP
F0
40
20
40
F0
00
80
F0
80
ENDCHAR
STARTCHAR uni215B
ENCODING 8539
SWIDTH 562 0
DWIDTH 9 0
BBX 7 10 1 0
BITMAP
42
C4
44
48
E8
14
2A
44
4A
84
ENDCHAR
STARTCHAR uni215C
ENCODING 8540
SWIDTH 562 0
DWIDTH 9 0
BBX 7 10 1 0
BITMAP
C2
24
44
28
C8
14
2A
44
4A
84
ENDCHAR
STARTCHAR uni215D
ENCODING 8541
SWIDTH 562 0
DWIDTH 9 0
BBX 7 10 1 0
BITMAP
E2
84
44
28
C8
14
2A
44
4A
84
ENDCHAR
STARTCHAR uni215E
ENCODING 8542
SWIDTH 562 0
DWIDTH 9 0
BBX 7 10 1 0
BITMAP
E2
24
44
48
48
14
2A
44
4A
84
ENDCHAR
STARTCHAR uni2190
ENCODING 8592
SWIDTH 562 0
DWIDTH 9 0
BBX 7 7 1 2
BITMAP
10
20
40
BE
40
20
10
ENDCHAR
STARTCHAR uni2191
ENCODING 8593
SWIDTH 562 0
DWIDTH 9 0
BBX 7 7 1 2
BITMAP
10
28
54
92
10
10
10
ENDCHAR
STARTCHAR uni2192
ENCODING 8594
SWIDTH 562 0
DWIDTH 9 0
BBX 7 7 1 2
BITMAP
10
08
04
FA
04
08
10
ENDCHAR
STARTCHAR uni2193
ENCODING 8595
SWIDTH 562 0
DWIDTH 9 0
BBX 7 7 1 2
BITMAP
10
10
10
92
54
28
10
ENDCHAR
STARTCHAR uni2194
ENCODING 8596
SWIDTH 562 0
DWIDTH 9 0
BBX 7 7 1 2
BITMAP
28
44
82
FE
82
44
28
ENDCHAR
STARTCHAR uni2195
ENCODING 8597
SWIDTH 562 0
DWIDTH 9 0
BBX 7 9 1 1
BITMAP
10
28
54
92
10
92
54
28
10
ENDCHAR
STARTCHAR uni2196
ENCODING 8598
SWIDTH 562 0
DWIDTH 9 0
BBX 7 7 1 2
BITMAP
F8
80
A0
90
88
04
02
ENDCHAR
STARTCHAR uni2197
ENCODING 8599
SWIDTH 562 0
DWIDTH 9 0
BBX 7 7 1 2
BITMAP
3E
02
0A
12
22
40
80
ENDCHAR
STARTCHAR uni2198
ENCODING 8600
SWIDTH 562 0
DWIDTH 9 0
BBX 7 7 1 2
BITMAP
80
40
22
12
0A
02
3E
ENDCHAR
STARTCHAR uni2199
ENCODING 8601
SWIDTH 562 0
DWIDTH 9 0
BBX 7 7 1 2
BITMAP
02
04
88
90
A0
80
F8
ENDCHAR
STARTCHAR uni2202
ENCODING 8706
SWIDTH 562 0
DWIDTH 9 0
BBX 7 10 1 0
BITMAP
20
10
08
38
44
82
82
82
44
38
ENDCHAR
STARTCHAR uni2206
ENCODING 8710
SWIDTH 562 0
DWIDTH 9 0
BBX 7 10 1 0
BITMAP
10
10
28
28
44
44
44
82
82
7C
ENDCHAR
STARTCHAR uni220F
ENCODING 8719
SWIDTH 562 0
DWIDTH 9 0
BBX 7 11 1 0
BITMAP
FE
28
28
28
28
28
28
28
28
28
48
ENDCHAR
STARTCHAR uni2211
ENCODING 8721
SWIDTH 562 0
DWIDTH 9 0
BBX 7 11 1 0
BITMAP
7E
80
40
20
10
08
10
20
40
80
7E
ENDCHAR
STARTCHAR uni2212
ENCODING 8722
SWIDTH 562 0
DWIDTH 9 0
BBX 7 1 1 4
BITMAP
FE
ENDCHAR
STARTCHAR uni221A
ENCODING 8730
SWIDTH 562 0
DWIDTH 9 0
BBX 7 13 1 -3
BITMAP
0E
08
08
08
10
10
10
10
20
20
A0
A0
40
ENDCHAR
STARTCHAR uni221E
ENCODING 8734
SWIDTH 562 0
DWIDTH 9 0
BBX 7 5 1 2
BITMAP
44
AA
92
AA
44
ENDCHAR
STARTCHAR uni222B
ENCODING 8747
SWIDTH 562 0
DWIDTH 9 0
BBX 7 13 1 -2
BITMAP
04
0A
08
10
10
10
20
20
20
40
40
40
80
ENDCHAR
STARTCHAR uni2248
ENCODING 8776
SWIDTH 562 0
DWIDTH 9 0
BBX 7 6 1 2
BITMAP
60
92
0C
60
92
0C
ENDCHAR
STARTCHAR uni2260
ENCODING 8800
SWIDTH 562 0
DWIDTH 9 0
BBX 7 7 1 1
BITMAP
04
FE
08
10
20
FE
40
ENDCHAR
STARTCHAR uni2264
ENCODING 8804
SWIDTH 562 0
DWIDTH 9 0
BBX 7 7 1 1
BITMAP
06
38
C0
38
06
00
FE
ENDCHAR
STARTCHAR uni2265
ENCODING 8805
SWIDTH 562 0
DWIDTH 9 0
BBX 7 7 1 1
BITMAP
C0
38
06
38
C0
00
FE
ENDCHAR
STARTCHAR uni25CA
ENCODING 9674
SWIDTH 562 0
DWIDTH 9 0
BBX 7 10 1 0
BITMAP
10
28
44
82
82
82
82
44
28
10
ENDCHAR
STARTCHAR uni25CC
ENCODING 9676
SWIDTH 562 0
DWIDTH 9 0
BBX 7 9 1 0
BITMAP
10
44
00
82
00
82
00
44
10
ENDCHAR
STARTCHAR uni2669
ENCODING 9833
SWIDTH 562 0
DWIDTH 9 0
BBX 7 12 1 -2
BITMAP
18
16
10
10
10
10
10
10
70
F0
F0
60
ENDCHAR
STARTCHAR uni266A
ENCODING 9834
SWIDTH 562 0
DWIDTH 9 0
BBX 7 12 1 -2
BITMAP
18
14
12
12
14
10
10
10
70
F0
F0
60
ENDCHAR
STARTCHAR uni266B
ENCODING 9835
SWIDTH 562 0
DWIDTH 9 0
BBX 7 12 1 -2
BITMAP
0E
3E
32
22
22
22
22
26
6E
EE
E4
40
ENDCHAR
STARTCHAR uni266C
ENCODING 9836
SWIDTH 562 0
DWIDTH 9 0
BBX 7 12 1 -2
BITMAP
0E
3E
32
22
2E
3E
32
26
6E
EE
E4
40
ENDCHAR
STARTCHAR uni2C64
ENCODING 11364
SWIDTH 562 0
DWIDTH 9 0
BBX 7 12 1 -2
BITMAP
F8
84
82
82
84
F8
90
88
84
82
80
40
ENDCHAR
STARTCHAR uni2C6D
ENCODING 11373
SWIDTH 562 0
DWIDTH 9 0
BBX 7 10 1 0
BITMAP
38
44
84
04
3C
44
84
8C
94
62
ENDCHAR
STARTCHAR uni2C72
ENCODING 11378
SWIDTH 562 0
DWIDTH 9 0
BBX 7 10 1 0
BITMAP
84
82
82
92
92
92
92
AA
AA
44
ENDCHAR
STARTCHAR uni2C73
ENCODING 11379
SWIDTH 562 0
DWIDTH 9 0
BBX 7 7 1 0
BITMAP
94
92
92
92
92
AA
44
ENDCHAR
STARTCHAR uni3000
ENCODING 12288
SWIDTH 562 0
DWIDTH 9 0
BBX 1 1 0 0
BITMAP
00
ENDCHAR
STARTCHAR uni3001
ENCODING 12289
SWIDTH 562 0
DWIDTH 9 0
BBX 3 3 1 -1
BITMAP
80
40
20
ENDCHAR
STARTCHAR uni3002
ENCODING 12290
SWIDTH 562 0
DWIDTH 9 0
BBX 4 4 1 -1
BITMAP
60
90
90
60
ENDCHAR
STARTCHAR uni3003
ENCODING 12291
SWIDTH 562 0
DWIDTH 9 0
BBX 5 3 2 7
BITMAP
48
48
90
ENDCHAR
STARTCHAR uni3008
ENCODING 12296
SWIDTH 562 0
DWIDTH 9 0
BBX 4 10 3 0
BITMAP
10
20
40
40
80
80
40
40
20
10
ENDCHAR
STARTCHAR uni3009
ENCODING 12297
SWIDTH 562 0
DWIDTH 9 0
BBX 4 10 2 0
BITMAP
80
40
20
20
10
10
20
20
40
80
ENDCHAR
STARTCHAR uni300A
ENCODING 12298
SWIDTH 562 0
DWIDTH 9 0
BBX 6 10 2 0
BITMAP
24
24
48
48
90
90
48
48
24
24
ENDCHAR
STARTCHAR uni300B
ENCODING 12299
SWIDTH 562 0
DWIDTH 9 0
BBX 6 10 1 0
BITMAP
90
90
48
48
24
24
48
48
90
90
ENDCHAR
STARTCHAR uni300C
ENCODING 12300
SWIDTH 562 0
DWIDTH 9 0
BBX 3 5 5 6
BITMAP
E0
80
80
80
80
ENDCHAR
STARTCHAR uni300D
ENCODING 12301
SWIDTH 562 0
DWIDTH 9 0
BBX 3 5 1 -1
BITMAP
20
20
20
20
E0
ENDCHAR
STARTCHAR uni300E
ENCODING 12302
SWIDTH 562 0
DWIDTH 9 0
BBX 4 7 4 4
BITMAP
F0
90
B0
A0
A0
A0
E0
ENDCHAR
STARTCHAR uni300F
ENCODING 12303
SWIDTH 562 0
DWIDTH 9 0
BBX 4 7 1 -1
BITMAP
70
50
50
50
D0
90
F0
ENDCHAR
STARTCHAR uni3010
ENCODING 12304
SWIDTH 562 0
DWIDTH 9 0
BBX 4 11 3 -1
BITMAP
F0
E0
C0
C0
80
80
80
C0
C0
E0
F0
ENDCHAR
STARTCHAR uni3011
ENCODING 12305
SWIDTH 562 0
DWIDTH 9 0
BBX 4 11 2 -1
BITMAP
F0
70
30
30
10
10
10
30
30
70
F0
ENDCHAR
STARTCHAR uni3014
ENCODING 12308
SWIDTH 562 0
DWIDTH 9 0
BBX 3 12 4 -1
BITMAP
20
40
80
80
80
80
80
80
80
80
40
20
ENDCHAR
STARTCHAR uni3015
ENCODING 12309
SWIDTH 562 0
DWIDTH 9 0
BBX 3 12 2 -1
BITMAP
80
40
20
20
20
20
20
20
20
20
40
80
ENDCHAR
STARTCHAR uni3016
ENCODING 12310
SWIDTH 562 0
DWIDTH 9 0
BBX 5 10 3 0
BITMAP
F8
90
A0
A0
C0
C0
A0
A0
90
F8
ENDCHAR
STARTCHAR uni3017
ENCODING 12311
SWIDTH 562 0
DWIDTH 9 0
BBX 5 10 1 0
BITMAP
F8
48
28
28
18
18
28
28
48
F8
ENDCHAR
STARTCHAR uni301C
ENCODING 12316
SWIDTH 562 0
DWIDTH 9 0
BBX 7 3 1 3
BITMAP
60
92
0C
ENDCHAR
STARTCHAR uniA71B
ENCODING 42779
SWIDTH 562 0
DWIDTH 9 0
BBX 5 7 2 4
BITMAP
20
70
A8
20
20
20
20
ENDCHAR
STARTCHAR uniA71C
ENCODING 42780
SWIDTH 562 0
DWIDTH 9 0
BBX 5 7 2 4
BITMAP
20
20
20
20
A8
70
20
ENDCHAR
STARTCHAR uniA78B
ENCODING 42891
SWIDTH 562 0
DWIDTH 9 0
BBX 1 3 4 7
BITMAP
80
80
80
ENDCHAR
STARTCHAR uniA78C
ENCODING 42892
SWIDTH 562 0
DWIDTH 9 0
BBX 1 2 4 7
BITMAP
80
80
ENDCHAR
STARTCHAR uniA78D
ENCODING 42893
SWIDTH 562 0
DWIDTH 9 0
BBX 7 10 1 0
BITMAP
82
82
82
82
FE
02
02
02
02
02
ENDCHAR
STARTCHAR uniA7AA
ENCODING 42922
SWIDTH 562 0
DWIDTH 9 0
BBX 7 10 1 0
BITMAP
82
42
42
42
7E
42
42
42
42
42
ENDCHAR
STARTCHAR uniAB53
ENCODING 43859
SWIDTH 562 0
DWIDTH 9 0
BBX 7 10 1 -3
BITMAP
42
A4
24
28
10
10
28
48
4A
84
ENDCHAR
STARTCHAR uniFB01
ENCODING 64257
SWIDTH 562 0
DWIDTH 9 0
BBX 7 13 1 -2
BITMAP
18
24
24
20
FC
24
24
24
24
24
22
A0
40
ENDCHAR
STARTCHAR uniFB02
ENCODING 64258
SWIDTH 562 0
DWIDTH 9 0
BBX 7 13 1 -2
BITMAP
18
24
24
24
FC
24
24
24
24
24
22
A0
40
ENDCHAR
ENDFONT
