STARTFONT 2.1
FONT NanoPlus-13px
SIZE 13 75 75
FONTBOUNDINGBOX 11 14 -2 -3
STARTPROPERTIES 5
PIXEL_SIZE 13
FONT_ASCENT 11
FONT_DESCENT 3
CHARSET_REGISTRY "ISO10646"
CHARSET_ENCODING "1"
ENDPROPERTIES
CHARS 690
STARTCHAR space
ENCODING 32
SWIDTH 385 0
DWIDTH 5 0
BBX 1 1 0 0
BITMAP
00
ENDCHAR
STARTCHAR exclam
ENCODING 33
SWIDTH 231 0
DWIDTH 3 0
BBX 2 8 0 0
BITMAP
C0
C0
C0
C0
C0
00
C0
C0
ENDCHAR
STARTCHAR quotedbl
ENCODING 34
SWIDTH 462 0
DWIDTH 6 0
BBX 5 3 0 5
BITMAP
D8
D8
D8
ENDCHAR
STARTCHAR numbersign
ENCODING 35
SWIDTH 615 0
DWIDTH 8 0
BBX 7 7 0 0
BITMAP
6C
FE
FE
6C
FE
FE
6C
ENDCHAR
STARTCHAR dollar
ENCODING 36
SWIDTH 538 0
DWIDTH 7 0
BBX 6 8 0 0
BITMAP
30
7C
FC
F0
3C
FC
F8
30
ENDCHAR
STARTCHAR percent
ENCODING 37
SWIDTH 538 0
DWIDTH 7 0
BBX 6 8 0 0
BITMAP
CC
CC
18
38
70
E0
CC
CC
ENDCHAR
STARTCHAR ampersand
ENCODING 38
SWIDTH 615 0
DWIDTH 8 0
BBX 7 8 0 0
BITMAP
70
F8
D8
7C
CC
DE
F6
76
ENDCHAR
STARTCHAR quotesingle
ENCODING 39
SWIDTH 231 0
DWIDTH 3 0
BBX 2 3 0 5
BITMAP
C0
C0
C0
ENDCHAR
STARTCHAR parenleft
ENCODING 40
SWIDTH 308 0
DWIDTH 4 0
BBX 3 10 0 -1
BITMAP
60
E0
C0
C0
C0
C0
C0
C0
E0
60
ENDCHAR
STARTCHAR parenright
ENCODING 41
SWIDTH 308 0
DWIDTH 4 0
BBX 3 10 0 -1
BITMAP
C0
E0
60
60
60
60
60
60
E0
C0
ENDCHAR
STARTCHAR asterisk
ENCODING 42
SWIDTH 462 0
DWIDTH 6 0
BBX 5 4 0 5
BITMAP
20
F8
70
D8
ENDCHAR
STARTCHAR plus
ENCODING 43
SWIDTH 538 0
DWIDTH 7 0
BBX 6 6 0 1
BITMAP
30
30
FC
FC
30
30
ENDCHAR
STARTCHAR comma
ENCODING 44
SWIDTH 231 0
DWIDTH 3 0
BBX 2 4 0 -2
BITMAP
C0
C0
C0
80
ENDCHAR
STARTCHAR hyphen
ENCODING 45
SWIDTH 538 0
DWIDTH 7 0
BBX 6 2 0 3
BITMAP
FC
FC
ENDCHAR
STARTCHAR period
ENCODING 46
SWIDTH 231 0
DWIDTH 3 0
BBX 2 2 0 0
BITMAP
C0
C0
ENDCHAR
STARTCHAR slash
ENCODING 47
SWIDTH 462 0
DWIDTH 6 0
BBX 5 8 0 0
BITMAP
18
18
30
30
60
60
C0
C0
ENDCHAR
STARTCHAR zero
ENCODING 48
SWIDTH 538 0
DWIDTH 7 0
BBX 6 8 0 0
BITMAP
38
7C
EC
CC
CC
DC
F8
70
ENDCHAR
STARTCHAR one
ENCODING 49
SWIDTH 538 0
DWIDTH 7 0
BBX 6 8 0 0
BITMAP
30
F0
F0
30
30
30
FC
FC
ENDCHAR
STARTCHAR two
ENCODING 50
SWIDTH 538 0
DWIDTH 7 0
BBX 6 8 0 0
BITMAP
78
FC
CC
1C
78
E0
FC
FC
ENDCHAR
STARTCHAR three
ENCODING 51
SWIDTH 538 0
DWIDTH 7 0
BBX 6 8 0 0
BITMAP
F8
FC
0C
78
78
0C
FC
F8
ENDCHAR
STARTCHAR four
ENCODING 52
SWIDTH 538 0
DWIDTH 7 0
BBX 6 8 0 0
BITMAP
6C
6C
CC
CC
FC
FC
0C
0C
ENDCHAR
STARTCHAR five
ENCODING 53
SWIDTH 538 0
DWIDTH 7 0
BBX 6 8 0 0
BITMAP
FC
FC
C0
F8
7C
0C
FC
F8
ENDCHAR
STARTCHAR six
ENCODING 54
SWIDTH 538 0
DWIDTH 7 0
BBX 6 8 0 0
BITMAP
7C
FC
C0
F8
FC
CC
FC
78
ENDCHAR
STARTCHAR seven
ENCODING 55
SWIDTH 538 0
DWIDTH 7 0
BBX 6 8 0 0
BITMAP
FC
FC
0C
1C
38
30
30
30
ENDCHAR
STARTCHAR eight
ENCODING 56
SWIDTH 538 0
DWIDTH 7 0
BBX 6 8 0 0
BITMAP
78
FC
CC
78
FC
CC
FC
78
ENDCHAR
STARTCHAR nine
ENCODING 57
SWIDTH 538 0
DWIDTH 7 0
BBX 6 8 0 0
BITMAP
78
FC
CC
FC
7C
0C
FC
F8
ENDCHAR
STARTCHAR colon
ENCODING 58
SWIDTH 231 0
DWIDTH 3 0
BBX 2 6 0 0
BITMAP
C0
C0
00
00
C0
C0
ENDCHAR
STARTCHAR semicolon
ENCODING 59
SWIDTH 231 0
DWIDTH 3 0
BBX 2 7 0 -1
BITMAP
C0
C0
00
00
C0
C0
80
ENDCHAR
STARTCHAR less
ENCODING 60
SWIDTH 538 0
DWIDTH 7 0
BBX 6 5 0 1
BITMAP
3C
7C
E0
7C
3C
ENDCHAR
STARTCHAR equal
ENCODING 61
SWIDTH 538 0
DWIDTH 7 0
BBX 6 5 0 1
BITMAP
FC
FC
00
FC
FC
ENDCHAR
STARTCHAR greater
ENCODING 62
SWIDTH 538 0
DWIDTH 7 0
BBX 6 5 0 1
BITMAP
F0
F8
1C
F8
F0
ENDCHAR
STARTCHAR question
ENCODING 63
SWIDTH 538 0
DWIDTH 7 0
BBX 6 8 0 0
BITMAP
F8
FC
0C
3C
38
00
30
30
ENDCHAR
STARTCHAR at
ENCODING 64
SWIDTH 538 0
DWIDTH 7 0
BBX 6 8 0 0
BITMAP
78
FC
CC
DC
DC
C0
FC
7C
ENDCHAR
STARTCHAR A
ENCODING 65
SWIDTH 538 0
DWIDTH 7 0
BBX 6 8 0 0
BITMAP
78
FC
CC
CC
FC
FC
CC
CC
ENDCHAR
STARTCHAR B
ENCODING 66
SWIDTH 538 0
DWIDTH 7 0
BBX 6 8 0 0
BITMAP
FC
FC
CC
F8
F8
CC
FC
FC
ENDCHAR
STARTCHAR C
ENCODING 67
SWIDTH 538 0
DWIDTH 7 0
BBX 6 8 0 0
BITMAP
78
FC
CC
C0
C0
CC
FC
78
ENDCHAR
STARTCHAR D
ENCODING 68
SWIDTH 538 0
DWIDTH 7 0
BBX 6 8 0 0
BITMAP
F0
F8
DC
CC
CC
CC
FC
F8
ENDCHAR
STARTCHAR E
ENCODING 69
SWIDTH 538 0
DWIDTH 7 0
BBX 6 8 0 0
BITMAP
FC
FC
C0
F0
F0
C0
FC
FC
ENDCHAR
STARTCHAR F
ENCODING 70
SWIDTH 538 0
DWIDTH 7 0
BBX 6 8 0 0
BITMAP
FC
FC
C0
C0
F0
F0
C0
C0
ENDCHAR
STARTCHAR G
ENCODING 71
SWIDTH 538 0
DWIDTH 7 0
BBX 6 8 0 0
BITMAP
3C
7C
E0
C0
CC
CC
FC
FC
ENDCHAR
STARTCHAR H
ENCODING 72
SWIDTH 538 0
DWIDTH 7 0
BBX 6 8 0 0
BITMAP
CC
CC
CC
FC
FC
CC
CC
CC
ENDCHAR
STARTCHAR I
ENCODING 73
SWIDTH 538 0
DWIDTH 7 0
BBX 6 8 0 0
BITMAP
FC
FC
30
30
30
30
FC
FC
ENDCHAR
STARTCHAR J
ENCODING 74
SWIDTH 538 0
DWIDTH 7 0
BBX 6 8 0 0
BITMAP
3C
3C
0C
0C
0C
CC
FC
78
ENDCHAR
STARTCHAR K
ENCODING 75
SWIDTH 538 0
DWIDTH 7 0
BBX 6 8 0 0
BITMAP
CC
DC
F8
F8
DC
CC
CC
CC
ENDCHAR
STARTCHAR L
ENCODING 76
SWIDTH 538 0
DWIDTH 7 0
BBX 6 8 0 0
BITMAP
C0
C0
C0
C0
C0
C0
FC
FC
ENDCHAR
STARTCHAR M
ENCODING 77
SWIDTH 538 0
DWIDTH 7 0
BBX 6 8 0 0
BITMAP
CC
FC
FC
FC
CC
CC
CC
CC
ENDCHAR
STARTCHAR N
ENCODING 78
SWIDTH 538 0
DWIDTH 7 0
BBX 6 8 0 0
BITMAP
CC
CC
EC
FC
FC
DC
CC
CC
ENDCHAR
STARTCHAR O
ENCODING 79
SWIDTH 538 0
DWIDTH 7 0
BBX 6 8 0 0
BITMAP
78
FC
CC
CC
CC
CC
FC
78
ENDCHAR
STARTCHAR P
ENCODING 80
SWIDTH 538 0
DWIDTH 7 0
BBX 6 8 0 0
BITMAP
F8
FC
CC
CC
FC
F8
C0
C0
ENDCHAR
STARTCHAR Q
ENCODING 81
SWIDTH 538 0
DWIDTH 7 0
BBX 6 10 0 -2
BITMAP
7C
FC
CC
CC
CC
CC
FC
78
1C
0C
ENDCHAR
STARTCHAR R
ENCODING 82
SWIDTH 538 0
DWIDTH 7 0
BBX 6 8 0 0
BITMAP
7C
FC
CC
CC
F8
F8
CC
CC
ENDCHAR
STARTCHAR S
ENCODING 83
SWIDTH 538 0
DWIDTH 7 0
BBX 6 8 0 0
BITMAP
7C
FC
E0
70
38
1C
FC
F8
ENDCHAR
STARTCHAR T
ENCODING 84
SWIDTH 538 0
DWIDTH 7 0
BBX 6 8 0 0
BITMAP
FC
FC
30
30
30
30
30
30
ENDCHAR
STARTCHAR U
ENCODING 85
SWIDTH 538 0
DWIDTH 7 0
BBX 6 8 0 0
BITMAP
CC
CC
CC
CC
CC
CC
FC
78
ENDCHAR
STARTCHAR V
ENCODING 86
SWIDTH 538 0
DWIDTH 7 0
BBX 6 8 0 0
BITMAP
CC
CC
CC
CC
CC
FC
78
30
ENDCHAR
STARTCHAR W
ENCODING 87
SWIDTH 538 0
DWIDTH 7 0
BBX 6 8 0 0
BITMAP
CC
CC
CC
CC
CC
FC
FC
CC
ENDCHAR
STARTCHAR X
ENCODING 88
SWIDTH 538 0
DWIDTH 7 0
BBX 6 8 0 0
BITMAP
CC
CC
CC
78
78
CC
CC
CC
ENDCHAR
STARTCHAR Y
ENCODING 89
SWIDTH 538 0
DWIDTH 7 0
BBX 6 8 0 0
BITMAP
CC
CC
CC
FC
78
30
30
30
ENDCHAR
STARTCHAR Z
ENCODING 90
SWIDTH 538 0
DWIDTH 7 0
BBX 6 8 0 0
BITMAP
FC
FC
0C
3C
F0
C0
FC
FC
ENDCHAR
STARTCHAR bracketleft
ENCODING 91
SWIDTH 308 0
DWIDTH 4 0
BBX 3 10 0 -1
BITMAP
E0
E0
C0
C0
C0
C0
C0
C0
E0
E0
ENDCHAR
STARTCHAR backslash
ENCODING 92
SWIDTH 462 0
DWIDTH 6 0
BBX 5 8 0 0
BITMAP
C0
C0
60
60
30
30
18
18
ENDCHAR
STARTCHAR bracketright
ENCODING 93
SWIDTH 308 0
DWIDTH 4 0
BBX 3 10 0 -1
BITMAP
E0
E0
60
60
60
60
60
60
E0
E0
ENDCHAR
STARTCHAR asciicircum
ENCODING 94
SWIDTH 538 0
DWIDTH 7 0
BBX 6 4 0 5
BITMAP
30
78
CC
CC
ENDCHAR
STARTCHAR underscore
ENCODING 95
SWIDTH 538 0
DWIDTH 7 0
BBX 6 2 0 -1
BITMAP
FC
FC
ENDCHAR
STARTCHAR grave
ENCODING 96
SWIDTH 308 0
DWIDTH 4 0
BBX 3 3 0 5
BITMAP
C0
E0
60
ENDCHAR
STARTCHAR a
ENCODING 97
SWIDTH 538 0
DWIDTH 7 0
BBX 6 6 0 0
BITMAP
7C
FC
CC
CC
FC
7C
ENDCHAR
STARTCHAR b
ENCODING 98
SWIDTH 538 0
DWIDTH 7 0
BBX 6 8 0 0
BITMAP
C0
C0
F8
FC
CC
CC
FC
F8
ENDCHAR
STARTCHAR c
ENCODING 99
SWIDTH 538 0
DWIDTH 7 0
BBX 6 6 0 0
BITMAP
7C
FC
C0
C0
FC
7C
ENDCHAR
STARTCHAR d
ENCODING 100
SWIDTH 538 0
DWIDTH 7 0
BBX 6 8 0 0
BITMAP
0C
0C
7C
FC
CC
CC
FC
FC
ENDCHAR
STARTCHAR e
ENCODING 101
SWIDTH 538 0
DWIDTH 7 0
BBX 6 6 0 0
BITMAP
78
FC
FC
C0
FC
FC
ENDCHAR
STARTCHAR f
ENCODING 102
SWIDTH 538 0
DWIDTH 7 0
BBX 6 8 0 0
BITMAP
78
FC
CC
C0
F0
F0
C0
C0
ENDCHAR
STARTCHAR g
ENCODING 103
SWIDTH 538 0
DWIDTH 7 0
BBX 6 8 0 -2
BITMAP
7C
FC
CC
FC
7C
0C
FC
F8
ENDCHAR
STARTCHAR h
ENCODING 104
SWIDTH 538 0
DWIDTH 7 0
BBX 6 9 0 0
BITMAP
C0
C0
C0
F8
FC
CC
CC
CC
CC
ENDCHAR
STARTCHAR i
ENCODING 105
SWIDTH 231 0
DWIDTH 3 0
BBX 2 9 0 0
BITMAP
C0
C0
00
C0
C0
C0
C0
C0
C0
ENDCHAR
STARTCHAR j
ENCODING 106
SWIDTH 231 0
DWIDTH 3 0
BBX 4 12 -2 -3
BITMAP
30
30
00
30
30
30
30
30
30
30
F0
E0
ENDCHAR
STARTCHAR k
ENCODING 107
SWIDTH 538 0
DWIDTH 7 0
BBX 6 9 0 0
BITMAP
C0
C0
C0
CC
CC
FC
F8
DC
CC
ENDCHAR
STARTCHAR l
ENCODING 108
SWIDTH 231 0
DWIDTH 3 0
BBX 2 9 0 0
BITMAP
C0
C0
C0
C0
C0
C0
C0
C0
C0
ENDCHAR
STARTCHAR m
ENCODING 109
SWIDTH 692 0
DWIDTH 9 0
BBX 8 6 0 0
BITMAP
FE
FF
DB
DB
DB
DB
ENDCHAR
STARTCHAR n
ENCODING 110
SWIDTH 538 0
DWIDTH 7 0
BBX 6 6 0 0
BITMAP
F8
FC
CC
CC
CC
CC
ENDCHAR
STARTCHAR o
ENCODING 111
SWIDTH 538 0
DWIDTH 7 0
BBX 6 6 0 0
BITMAP
78
FC
CC
CC
FC
78
ENDCHAR
STARTCHAR p
ENCODING 112
SWIDTH 538 0
DWIDTH 7 0
BBX 6 9 0 -3
BITMAP
F8
FC
CC
CC
FC
F8
C0
C0
C0
ENDCHAR
STARTCHAR q
ENCODING 113
SWIDTH 538 0
DWIDTH 7 0
BBX 6 9 0 -3
BITMAP
7C
FC
CC
CC
FC
FC
0C
0C
0C
ENDCHAR
STARTCHAR r
ENCODING 114
SWIDTH 538 0
DWIDTH 7 0
BBX 6 6 0 0
BITMAP
F8
FC
CC
CC
C0
C0
ENDCHAR
STARTCHAR s
ENCODING 115
SWIDTH 538 0
DWIDTH 7 0
BBX 6 6 0 0
BITMAP
7C
FC
70
38
FC
F8
ENDCHAR
STARTCHAR t
ENCODING 116
SWIDTH 538 0
DWIDTH 7 0
BBX 6 8 0 0
BITMAP
C0
C0
F8
F8
C0
CC
FC
78
ENDCHAR
STARTCHAR u
ENCODING 117
SWIDTH 538 0
DWIDTH 7 0
BBX 6 6 0 0
BITMAP
CC
CC
CC
CC
FC
78
ENDCHAR
STARTCHAR v
ENCODING 118
SWIDTH 538 0
DWIDTH 7 0
BBX 6 6 0 0
BITMAP
CC
CC
CC
FC
78
30
ENDCHAR
STARTCHAR w
ENCODING 119
SWIDTH 692 0
DWIDTH 9 0
BBX 8 6 0 0
BITMAP
DB
DB
DB
FF
FF
66
ENDCHAR
STARTCHAR x
ENCODING 120
SWIDTH 538 0
DWIDTH 7 0
BBX 6 6 0 0
BITMAP
CC
FC
78
78
FC
CC
ENDCHAR
STARTCHAR y
ENCODING 121
SWIDTH 538 0
DWIDTH 7 0
BBX 6 9 0 -3
BITMAP
CC
CC
CC
CC
FC
7C
0C
7C
78
ENDCHAR
STARTCHAR z
ENCODING 122
SWIDTH 538 0
DWIDTH 7 0
BBX 6 6 0 0
BITMAP
FC
FC
38
70
FC
FC
ENDCHAR
STARTCHAR braceleft
ENCODING 123
SWIDTH 462 0
DWIDTH 6 0
BBX 5 10 0 -1
BITMAP
38
78
60
30
F0
F0
30
60
78
38
ENDCHAR
STARTCHAR bar
ENCODING 124
SWIDTH 231 0
DWIDTH 3 0
BBX 2 10 0 -1
BITMAP
C0
C0
C0
C0
C0
C0
C0
C0
C0
C0
ENDCHAR
STARTCHAR braceright
ENCODING 125
SWIDTH 462 0
DWIDTH 6 0
BBX 5 10 0 -1
BITMAP
E0
F0
30
60
78
78
60
30
F0
E0
ENDCHAR
STARTCHAR asciitilde
ENCODING 126
SWIDTH 538 0
DWIDTH 7 0
BBX 6 3 0 3
BITMAP
6C
FC
D8
ENDCHAR
STARTCHAR uni00A0
ENCODING 160
SWIDTH 385 0
DWIDTH 5 0
BBX 1 1 0 0
BITMAP
00
ENDCHAR
STARTCHAR exclamdown
ENCODING 161
SWIDTH 231 0
DWIDTH 3 0
BBX 2 8 0 -2
BITMAP
C0
C0
00
C0
C0
C0
C0
C0
ENDCHAR
STARTCHAR cent
ENCODING 162
SWIDTH 538 0
DWIDTH 7 0
BBX 6 8 0 -1
BITMAP
18
7C
FC
D8
D8
FC
7C
18
ENDCHAR
STARTCHAR sterling
ENCODING 163
SWIDTH 538 0
DWIDTH 7 0
BBX 6 8 0 0
BITMAP
3C
7C
60
F8
F8
60
FC
FC
ENDCHAR
STARTCHAR currency
ENCODING 164
SWIDTH 538 0
DWIDTH 7 0
BBX 6 6 0 1
BITMAP
CC
FC
48
48
FC
CC
ENDCHAR
STARTCHAR yen
ENCODING 165
SWIDTH 538 0
DWIDTH 7 0
BBX 6 8 0 0
BITMAP
CC
CC
FC
78
30
FC
FC
30
ENDCHAR
STARTCHAR brokenbar
ENCODING 166
SWIDTH 231 0
DWIDTH 3 0
BBX 2 10 0 -1
BITMAP
C0
C0
C0
C0
00
00
C0
C0
C0
C0
ENDCHAR
STARTCHAR section
ENCODING 167
SWIDTH 538 0
DWIDTH 7 0
BBX 6 9 0 -1
BITMAP
7C
FC
E0
F8
CC
7C
1C
FC
F8
ENDCHAR
STARTCHAR copyright
ENCODING 169
SWIDTH 538 0
DWIDTH 7 0
BBX 6 8 0 0
BITMAP
78
CC
B4
BC
BC
B4
CC
78
ENDCHAR
STARTCHAR ordfeminine
ENCODING 170
SWIDTH 538 0
DWIDTH 7 0
BBX 6 8 0 0
BITMAP
7C
FC
CC
FC
7C
00
FC
FC
ENDCHAR
STARTCHAR guillemotleft
ENCODING 171
SWIDTH 538 0
DWIDTH 7 0
BBX 6 6 0 0
BITMAP
6C
6C
D8
D8
6C
6C
ENDCHAR
STARTCHAR logicalnot
ENCODING 172
SWIDTH 538 0
DWIDTH 7 0
BBX 6 4 0 1
BITMAP
FC
FC
0C
0C
ENDCHAR
STARTCHAR uni00AD
ENCODING 173
SWIDTH 462 0
DWIDTH 6 0
BBX 5 2 0 3
BITMAP
F8
F8
ENDCHAR
STARTCHAR registered
ENCODING 174
SWIDTH 538 0
DWIDTH 7 0
BBX 6 8 0 0
BITMAP
78
8C
B4
B4
8C
B4
B4
78
ENDCHAR
STARTCHAR degree
ENCODING 176
SWIDTH 462 0
DWIDTH 6 0
BBX 5 5 0 3
BITMAP
70
F8
D8
F8
70
ENDCHAR
STARTCHAR plusminus
ENCODING 177
SWIDTH 538 0
DWIDTH 7 0
BBX 6 9 0 -2
BITMAP
30
30
FC
FC
30
30
00
FC
FC
ENDCHAR
STARTCHAR uni00B2
ENCODING 178
SWIDTH 538 0
DWIDTH 7 0
BBX 6 6 0 2
BITMAP
F8
FC
3C
F0
FC
FC
ENDCHAR
STARTCHAR uni00B3
ENCODING 179
SWIDTH 538 0
DWIDTH 7 0
BBX 6 6 0 2
BITMAP
F8
FC
38
0C
FC
F8
ENDCHAR
STARTCHAR mu
ENCODING 181
SWIDTH 538 0
DWIDTH 7 0
BBX 6 8 0 -2
BITMAP
CC
CC
CC
CC
FC
F8
C0
C0
ENDCHAR
STARTCHAR paragraph
ENCODING 182
SWIDTH 538 0
DWIDTH 7 0
BBX 6 10 0 -2
BITMAP
7C
F4
F4
F4
F4
74
14
14
14
14
ENDCHAR
STARTCHAR periodcentered
ENCODING 183
SWIDTH 231 0
DWIDTH 3 0
BBX 2 2 0 3
BITMAP
C0
C0
ENDCHAR
STARTCHAR uni00B9
ENCODING 185
SWIDTH 538 0
DWIDTH 7 0
BBX 6 6 0 2
BITMAP
F0
F0
30
30
FC
FC
ENDCHAR
STARTCHAR ordmasculine
ENCODING 186
SWIDTH 538 0
DWIDTH 7 0
BBX 6 8 0 0
BITMAP
78
FC
CC
FC
78
00
FC
FC
ENDCHAR
STARTCHAR guillemotright
ENCODING 187
SWIDTH 538 0
DWIDTH 7 0
BBX 6 6 0 0
BITMAP
D8
D8
6C
6C
D8
D8
ENDCHAR
STARTCHAR onequarter
ENCODING 188
SWIDTH 538 0
DWIDTH 7 0
BBX 6 8 0 0
BITMAP
C0
4C
5C
30
E0
D4
1C
04
ENDCHAR
STARTCHAR onehalf
ENCODING 189
SWIDTH 538 0
DWIDTH 7 0
BBX 6 8 0 0
BITMAP
C0
4C
5C
30
E0
D8
08
0C
ENDCHAR
STARTCHAR threequarters
ENCODING 190
SWIDTH 538 0
DWIDTH 7 0
BBX 6 8 0 0
BITMAP
C0
4C
DC
30
E0
D4
1C
04
ENDCHAR
STARTCHAR questiondown
ENCODING 191
SWIDTH 538 0
DWIDTH 7 0
BBX 6 8 0 -3
BITMAP
30
30
00
70
F0
C0
FC
7C
ENDCHAR
STARTCHAR Agrave
ENCODING 192
SWIDTH 538 0
DWIDTH 7 0
BBX 6 11 0 0
BITMAP
60
30
00
78
FC
CC
CC
FC
FC
CC
CC
ENDCHAR
STARTCHAR Aacute
ENCODING 193
SWIDTH 538 0
DWIDTH 7 0
BBX 6 11 0 0
BITMAP
18
30
00
78
FC
CC
CC
FC
FC
CC
CC
ENDCHAR
STARTCHAR Acircumflex
ENCODING 194
SWIDTH 538 0
DWIDTH 7 0
BBX 6 11 0 0
BITMAP
78
CC
00
78
FC
CC
CC
FC
FC
CC
CC
ENDCHAR
STARTCHAR Atilde
ENCODING 195
SWIDTH 538 0
DWIDTH 7 0
BBX 6 11 0 0
BITMAP
6C
FC
D8
78
FC
CC
CC
FC
FC
CC
CC
ENDCHAR
STARTCHAR Adieresis
ENCODING 196
SWIDTH 538 0
DWIDTH 7 0
BBX 6 11 0 0
BITMAP
CC
CC
00
78
FC
CC
CC
FC
FC
CC
CC
ENDCHAR
STARTCHAR Aring
ENCODING 197
SWIDTH 538 0
DWIDTH 7 0
BBX 6 11 0 0
BITMAP
78
48
48
78
FC
CC
CC
FC
FC
CC
CC
ENDCHAR
STARTCHAR AE
ENCODING 198
SWIDTH 692 0
DWIDTH 9 0
BBX 8 8 0 0
BITMAP
7F
FF
D8
DE
FE
F8
DF
DF
ENDCHAR
STARTCHAR Ccedilla
ENCODING 199
SWIDTH 538 0
DWIDTH 7 0
BBX 6 11 0 -3
BITMAP
78
FC
CC
C0
C0
CC
FC
78
18
78
70
ENDCHAR
STARTCHAR Egrave
ENCODING 200
SWIDTH 538 0
DWIDTH 7 0
BBX 6 11 0 0
BITMAP
60
30
00
FC
FC
C0
F0
F0
C0
FC
FC
ENDCHAR
STARTCHAR Eacute
ENCODING 201
SWIDTH 538 0
DWIDTH 7 0
BBX 6 11 0 0
BITMAP
18
30
00
FC
FC
C0
F0
F0
C0
FC
FC
ENDCHAR
STARTCHAR Ecircumflex
ENCODING 202
SWIDTH 538 0
DWIDTH 7 0
BBX 6 11 0 0
BITMAP
78
CC
00
FC
FC
C0
F0
F0
C0
FC
FC
ENDCHAR
STARTCHAR Edieresis
ENCODING 203
SWIDTH 538 0
DWIDTH 7 0
BBX 6 11 0 0
BITMAP
CC
CC
00
FC
FC
C0
F0
F0
C0
FC
FC
ENDCHAR
STARTCHAR Igrave
ENCODING 204
SWIDTH 538 0
DWIDTH 7 0
BBX 6 11 0 0
BITMAP
60
30
00
FC
FC
30
30
30
30
FC
FC
ENDCHAR
STARTCHAR Iacute
ENCODING 205
SWIDTH 538 0
DWIDTH 7 0
BBX 6 11 0 0
BITMAP
18
30
00
FC
FC
30
30
30
30
FC
FC
ENDCHAR
STARTCHAR Icircumflex
ENCODING 206
SWIDTH 538 0
DWIDTH 7 0
BBX 6 11 0 0
BITMAP
78
CC
00
FC
FC
30
30
30
30
FC
FC
ENDCHAR
STARTCHAR Idieresis
ENCODING 207
SWIDTH 538 0
DWIDTH 7 0
BBX 6 11 0 0
BITMAP
CC
CC
00
FC
FC
30
30
30
30
FC
FC
ENDCHAR
STARTCHAR Eth
ENCODING 208
SWIDTH 538 0
DWIDTH 7 0
BBX 6 8 0 0
BITMAP
F8
FC
CC
EC
EC
CC
FC
F8
ENDCHAR
STARTCHAR Ntilde
ENCODING 209
SWIDTH 538 0
DWIDTH 7 0
BBX 6 11 0 0
BITMAP
6C
FC
D8
00
F8
FC
CC
CC
CC
CC
CC
ENDCHAR
STARTCHAR Ograve
ENCODING 210
SWIDTH 538 0
DWIDTH 7 0
BBX 6 11 0 0
BITMAP
60
30
00
78
FC
CC
CC
CC
CC
FC
78
ENDCHAR
STARTCHAR Oacute
ENCODING 211
SWIDTH 538 0
DWIDTH 7 0
BBX 6 11 0 0
BITMAP
18
30
00
78
FC
CC
CC
CC
CC
FC
78
ENDCHAR
STARTCHAR Ocircumflex
ENCODING 212
SWIDTH 538 0
DWIDTH 7 0
BBX 6 11 0 0
BITMAP
78
CC
00
78
FC
CC
CC
CC
CC
FC
78
ENDCHAR
STARTCHAR Otilde
ENCODING 213
SWIDTH 538 0
DWIDTH 7 0
BBX 6 11 0 0
BITMAP
6C
FC
D8
78
FC
CC
CC
CC
CC
FC
78
ENDCHAR
STARTCHAR Odieresis
ENCODING 214
SWIDTH 462 0
DWIDTH 6 0
BBX 6 11 0 0
BITMAP
CC
CC
00
78
FC
CC
CC
CC
CC
FC
78
ENDCHAR
STARTCHAR multiply
ENCODING 215
SWIDTH 538 0
DWIDTH 7 0
BBX 6 6 0 1
BITMAP
CC
FC
78
78
FC
CC
ENDCHAR
STARTCHAR Oslash
ENCODING 216
SWIDTH 538 0
DWIDTH 7 0
BBX 6 8 0 0
BITMAP
74
F8
CC
DC
EC
CC
7C
B8
ENDCHAR
STARTCHAR Ugrave
ENCODING 217
SWIDTH 538 0
DWIDTH 7 0
BBX 6 11 0 0
BITMAP
60
30
00
CC
CC
CC
CC
CC
CC
FC
78
ENDCHAR
STARTCHAR Uacute
ENCODING 218
SWIDTH 538 0
DWIDTH 7 0
BBX 6 11 0 0
BITMAP
18
30
00
CC
CC
CC
CC
CC
CC
FC
78
ENDCHAR
STARTCHAR Ucircumflex
ENCODING 219
SWIDTH 538 0
DWIDTH 7 0
BBX 6 11 0 0
BITMAP
78
CC
00
CC
CC
CC
CC
CC
CC
FC
78
ENDCHAR
STARTCHAR Udieresis
ENCODING 220
SWIDTH 538 0
DWIDTH 7 0
BBX 6 11 0 0
BITMAP
CC
CC
00
CC
CC
CC
CC
CC
CC
FC
78
ENDCHAR
STARTCHAR Yacute
ENCODING 221
SWIDTH 538 0
DWIDTH 7 0
BBX 6 11 0 0
BITMAP
18
30
00
CC
CC
CC
FC
78
30
30
30
ENDCHAR
STARTCHAR Thorn
ENCODING 222
SWIDTH 538 0
DWIDTH 7 0
BBX 6 8 0 0
BITMAP
C0
F8
FC
CC
CC
FC
F8
C0
ENDCHAR
STARTCHAR germandbls
ENCODING 223
SWIDTH 538 0
DWIDTH 7 0
BBX 6 8 0 0
BITMAP
78
FC
CC
DC
D8
CC
DC
D8
ENDCHAR
STARTCHAR agrave
ENCODING 224
SWIDTH 538 0
DWIDTH 7 0
BBX 6 9 0 0
BITMAP
60
30
00
7C
FC
CC
CC
FC
7C
ENDCHAR
STARTCHAR aacute
ENCODING 225
SWIDTH 538 0
DWIDTH 7 0
BBX 6 9 0 0
BITMAP
18
30
00
7C
FC
CC
CC
FC
7C
ENDCHAR
STARTCHAR acircumflex
ENCODING 226
SWIDTH 538 0
DWIDTH 7 0
BBX 6 9 0 0
BITMAP
78
CC
00
7C
FC
CC
CC
FC
7C
ENDCHAR
STARTCHAR atilde
ENCODING 227
SWIDTH 538 0
DWIDTH 7 0
BBX 6 10 0 0
BITMAP
6C
FC
D8
00
7C
FC
CC
CC
FC
7C
ENDCHAR
STARTCHAR adieresis
ENCODING 228
SWIDTH 538 0
DWIDTH 7 0
BBX 6 9 0 0
BITMAP
CC
CC
00
7C
FC
CC
CC
FC
7C
ENDCHAR
STARTCHAR aring
ENCODING 229
SWIDTH 538 0
DWIDTH 7 0
BBX 6 9 0 0
BITMAP
78
48
48
7C
FC
CC
CC
FC
7C
ENDCHAR
STARTCHAR ae
ENCODING 230
SWIDTH 692 0
DWIDTH 9 0
BBX 8 6 0 0
BITMAP
7E
FF
DF
D8
FF
FF
ENDCHAR
STARTCHAR ccedilla
ENCODING 231
SWIDTH 538 0
DWIDTH 7 0
BBX 6 9 0 -3
BITMAP
7C
FC
C0
C0
FC
7C
18
78
70
ENDCHAR
STARTCHAR egrave
ENCODING 232
SWIDTH 538 0
DWIDTH 7 0
BBX 6 9 0 0
BITMAP
60
30
00
78
FC
FC
C0
FC
FC
ENDCHAR
STARTCHAR eacute
ENCODING 233
SWIDTH 538 0
DWIDTH 7 0
BBX 6 9 0 0
BITMAP
18
30
00
78
FC
FC
C0
FC
FC
ENDCHAR
STARTCHAR ecircumflex
ENCODING 234
SWIDTH 538 0
DWIDTH 7 0
BBX 6 9 0 0
BITMAP
78
CC
00
78
FC
FC
C0
FC
FC
ENDCHAR
STARTCHAR edieresis
ENCODING 235
SWIDTH 538 0
DWIDTH 7 0
BBX 6 9 0 0
BITMAP
CC
CC
00
78
FC
FC
C0
FC
FC
ENDCHAR
STARTCHAR igrave
ENCODING 236
SWIDTH 308 0
DWIDTH 4 0
BBX 3 9 0 0
BITMAP
C0
60
00
60
60
60
60
60
60
ENDCHAR
STARTCHAR iacute
ENCODING 237
SWIDTH 231 0
DWIDTH 3 0
BBX 3 9 0 0
BITMAP
60
C0
00
C0
C0
C0
C0
C0
C0
ENDCHAR
STARTCHAR icircumflex
ENCODING 238
SWIDTH 538 0
DWIDTH 7 0
BBX 6 9 0 0
BITMAP
78
CC
00
30
30
30
30
30
30
ENDCHAR
STARTCHAR idieresis
ENCODING 239
SWIDTH 538 0
DWIDTH 7 0
BBX 6 9 0 0
BITMAP
CC
CC
00
30
30
30
30
30
30
ENDCHAR
STARTCHAR eth
ENCODING 240
SWIDTH 538 0
DWIDTH 7 0
BBX 6 8 0 0
BITMAP
74
78
1C
7C
FC
CC
FC
78
ENDCHAR
STARTCHAR ntilde
ENCODING 241
SWIDTH 538 0
DWIDTH 7 0
BBX 6 9 0 0
BITMAP
6C
FC
D8
00
F8
FC
CC
CC
CC
ENDCHAR
STARTCHAR ograve
ENCODING 242
SWIDTH 538 0
DWIDTH 7 0
BBX 6 9 0 0
BITMAP
60
30
00
78
FC
CC
CC
FC
78
ENDCHAR
STARTCHAR oacute
ENCODING 243
SWIDTH 538 0
DWIDTH 7 0
BBX 6 9 0 0
BITMAP
18
30
00
78
FC
CC
CC
FC
78
ENDCHAR
STARTCHAR ocircumflex
ENCODING 244
SWIDTH 538 0
DWIDTH 7 0
BBX 6 9 0 0
BITMAP
78
CC
00
78
FC
CC
CC
FC
78
ENDCHAR
STARTCHAR otilde
ENCODING 245
SWIDTH 538 0
DWIDTH 7 0
BBX 6 10 0 0
BITMAP
6C
FC
D8
00
78
FC
CC
CC
FC
78
ENDCHAR
STARTCHAR odieresis
ENCODING 246
SWIDTH 538 0
DWIDTH 7 0
BBX 6 9 0 0
BITMAP
CC
CC
00
78
FC
CC
CC
FC
78
ENDCHAR
STARTCHAR divide
ENCODING 247
SWIDTH 538 0
DWIDTH 7 0
BBX 6 8 0 0
BITMAP
30
30
00
FC
FC
00
30
30
ENDCHAR
STARTCHAR oslash
ENCODING 248
SWIDTH 538 0
DWIDTH 7 0
BBX 6 6 0 0
BITMAP
74
F8
DC
EC
7C
B8
ENDCHAR
STARTCHAR ugrave
ENCODING 249
SWIDTH 538 0
DWIDTH 7 0
BBX 6 9 0 0
BITMAP
60
30
00
CC
CC
CC
CC
FC
78
ENDCHAR
STARTCHAR uacute
ENCODING 250
SWIDTH 538 0
DWIDTH 7 0
BBX 6 9 0 0
BITMAP
18
30
00
CC
CC
CC
CC
FC
78
ENDCHAR
STARTCHAR ucircumflex
ENCODING 251
SWIDTH 538 0
DWIDTH 7 0
BBX 6 9 0 0
BITMAP
78
CC
00
CC
CC
CC
CC
FC
78
ENDCHAR
STARTCHAR udieresis
ENCODING 252
SWIDTH 538 0
DWIDTH 7 0
BBX 6 9 0 0
BITMAP
CC
CC
00
CC
CC
CC
CC
FC
78
ENDCHAR
STARTCHAR yacute
ENCODING 253
SWIDTH 538 0
DWIDTH 7 0
BBX 6 12 0 -3
BITMAP
18
30
00
CC
CC
CC
CC
FC
7C
0C
FC
F8
ENDCHAR
STARTCHAR thorn
ENCODING 254
SWIDTH 538 0
DWIDTH 7 0
BBX 6 10 0 -2
BITMAP
C0
C0
F8
FC
CC
CC
FC
F8
C0
C0
ENDCHAR
STARTCHAR ydieresis
ENCODING 255
SWIDTH 538 0
DWIDTH 7 0
BBX 6 12 0 -3
BITMAP
CC
CC
00
CC
CC
CC
CC
FC
7C
0C
7C
78
ENDCHAR
STARTCHAR Amacron
ENCODING 256
SWIDTH 538 0
DWIDTH 7 0
BBX 6 11 0 0
BITMAP
FC
FC
00
78
FC
CC
CC
FC
FC
CC
CC
ENDCHAR
STARTCHAR amacron
ENCODING 257
SWIDTH 538 0
DWIDTH 7 0
BBX 6 9 0 0
BITMAP
FC
FC
00
7C
FC
CC
CC
FC
7C
ENDCHAR
STARTCHAR Abreve
ENCODING 258
SWIDTH 538 0
DWIDTH 7 0
BBX 6 11 0 0
BITMAP
CC
78
00
78
FC
CC
CC
FC
FC
CC
CC
ENDCHAR
STARTCHAR abreve
ENCODING 259
SWIDTH 538 0
DWIDTH 7 0
BBX 6 9 0 0
BITMAP
CC
78
00
7C
FC
CC
CC
FC
7C
ENDCHAR
STARTCHAR Aogonek
ENCODING 260
SWIDTH 538 0
DWIDTH 7 0
BBX 6 10 0 -2
BITMAP
78
FC
CC
CC
FC
FC
CC
CC
18
1C
ENDCHAR
STARTCHAR aogonek
ENCODING 261
SWIDTH 538 0
DWIDTH 7 0
BBX 6 8 0 -2
BITMAP
7C
FC
CC
CC
FC
7C
18
1C
ENDCHAR
STARTCHAR Cacute
ENCODING 262
SWIDTH 538 0
DWIDTH 7 0
BBX 6 11 0 0
BITMAP
18
30
00
78
FC
CC
C0
C0
CC
FC
78
ENDCHAR
STARTCHAR cacute
ENCODING 263
SWIDTH 538 0
DWIDTH 7 0
BBX 6 9 0 0
BITMAP
18
30
00
7C
FC
C0
C0
FC
7C
ENDCHAR
STARTCHAR Ccircumflex
ENCODING 264
SWIDTH 538 0
DWIDTH 7 0
BBX 6 11 0 0
BITMAP
78
CC
00
78
FC
CC
C0
C0
CC
FC
78
ENDCHAR
STARTCHAR ccircumflex
ENCODING 265
SWIDTH 538 0
DWIDTH 7 0
BBX 6 9 0 0
BITMAP
78
CC
00
7C
FC
C0
C0
FC
7C
ENDCHAR
STARTCHAR Cdotaccent
ENCODING 266
SWIDTH 538 0
DWIDTH 7 0
BBX 6 11 0 0
BITMAP
30
30
00
78
FC
CC
C0
C0
CC
FC
78
ENDCHAR
STARTCHAR cdotaccent
ENCODING 267
SWIDTH 538 0
DWIDTH 7 0
BBX 6 9 0 0
BITMAP
30
30
00
7C
FC
C0
C0
FC
7C
ENDCHAR
STARTCHAR Ccaron
ENCODING 268
SWIDTH 538 0
DWIDTH 7 0
BBX 6 11 0 0
BITMAP
CC
78
00
78
FC
CC
C0
C0
CC
FC
78
ENDCHAR
STARTCHAR ccaron
ENCODING 269
SWIDTH 538 0
DWIDTH 7 0
BBX 6 9 0 0
BITMAP
CC
78
00
7C
FC
C0
C0
FC
7C
ENDCHAR
STARTCHAR Dcaron
ENCODING 270
SWIDTH 538 0
DWIDTH 7 0
BBX 6 11 0 0
BITMAP
CC
78
00
F0
F8
DC
CC
CC
CC
FC
F8
ENDCHAR
STARTCHAR dcaron
ENCODING 271
SWIDTH 538 0
DWIDTH 7 0
BBX 6 11 0 0
BITMAP
CC
78
00
0C
0C
7C
FC
CC
CC
FC
FC
ENDCHAR
STARTCHAR Dcroat
ENCODING 272
SWIDTH 538 0
DWIDTH 7 0
BBX 6 11 0 0
BITMAP
CC
78
00
F0
F8
DC
CC
CC
CC
FC
F8
ENDCHAR
STARTCHAR dcroat
ENCODING 273
SWIDTH 538 0
DWIDTH 7 0
BBX 6 8 0 0
BITMAP
1C
0C
7C
FC
CC
CC
FC
FC
ENDCHAR
STARTCHAR Emacron
ENCODING 274
SWIDTH 538 0
DWIDTH 7 0
BBX 6 11 0 0
BITMAP
FC
FC
00
FC
FC
C0
F0
F0
C0
FC
FC
ENDCHAR
STARTCHAR emacron
ENCODING 275
SWIDTH 538 0
DWIDTH 7 0
BBX 6 9 0 0
BITMAP
FC
FC
00
78
FC
FC
C0
FC
FC
ENDCHAR
STARTCHAR Ebreve
ENCODING 276
SWIDTH 538 0
DWIDTH 7 0
BBX 6 11 0 0
BITMAP
CC
78
00
FC
FC
C0
F0
F0
C0
FC
FC
ENDCHAR
STARTCHAR ebreve
ENCODING 277
SWIDTH 538 0
DWIDTH 7 0
BBX 6 9 0 0
BITMAP
CC
78
00
78
FC
FC
C0
FC
FC
ENDCHAR
STARTCHAR Edotaccent
ENCODING 278
SWIDTH 538 0
DWIDTH 7 0
BBX 6 11 0 0
BITMAP
30
30
00
FC
FC
C0
F0
F0
C0
FC
FC
ENDCHAR
STARTCHAR edotaccent
ENCODING 279
SWIDTH 538 0
DWIDTH 7 0
BBX 6 9 0 0
BITMAP
30
30
00
78
FC
FC
C0
FC
FC
ENDCHAR
STARTCHAR Eogonek
ENCODING 280
SWIDTH 538 0
DWIDTH 7 0
BBX 6 10 0 -2
BITMAP
FC
FC
C0
F0
F0
C0
FC
FC
18
1C
ENDCHAR
STARTCHAR eogonek
ENCODING 281
SWIDTH 538 0
DWIDTH 7 0
BBX 6 8 0 -2
BITMAP
78
FC
FC
C0
FC
FC
18
1C
ENDCHAR
STARTCHAR Ecaron
ENCODING 282
SWIDTH 538 0
DWIDTH 7 0
BBX 6 11 0 0
BITMAP
CC
78
00
FC
FC
C0
F0
F0
C0
FC
FC
ENDCHAR
STARTCHAR ecaron
ENCODING 283
SWIDTH 538 0
DWIDTH 7 0
BBX 6 9 0 0
BITMAP
CC
78
00
78
FC
FC
C0
FC
FC
ENDCHAR
STARTCHAR Gcircumflex
ENCODING 284
SWIDTH 538 0
DWIDTH 7 0
BBX 6 11 0 0
BITMAP
78
CC
00
3C
7C
E0
C0
CC
CC
FC
FC
ENDCHAR
STARTCHAR gcircumflex
ENCODING 285
SWIDTH 538 0
DWIDTH 7 0
BBX 6 11 0 -2
BITMAP
78
CC
00
7C
FC
CC
FC
7C
0C
FC
F8
ENDCHAR
STARTCHAR Gbreve
ENCODING 286
SWIDTH 538 0
DWIDTH 7 0
BBX 6 11 0 0
BITMAP
CC
FC
00
3C
7C
E0
C0
CC
CC
FC
FC
ENDCHAR
STARTCHAR gbreve
ENCODING 287
SWIDTH 538 0
DWIDTH 7 0
BBX 6 11 0 -2
BITMAP
CC
FC
00
7C
FC
CC
FC
7C
0C
FC
F8
ENDCHAR
STARTCHAR Gdotaccent
ENCODING 288
SWIDTH 538 0
DWIDTH 7 0
BBX 6 11 0 0
BITMAP
30
30
00
3C
7C
E0
C0
CC
CC
FC
FC
ENDCHAR
STARTCHAR gdotaccent
ENCODING 289
SWIDTH 538 0
DWIDTH 7 0
BBX 6 11 0 -2
BITMAP
30
30
00
7C
FC
CC
FC
7C
0C
FC
F8
ENDCHAR
STARTCHAR uni0122
ENCODING 290
SWIDTH 538 0
DWIDTH 7 0
BBX 6 11 0 -3
BITMAP
3C
7C
E0
C0
CC
CC
FC
FC
30
F0
E0
ENDCHAR
STARTCHAR uni0123
ENCODING 291
SWIDTH 538 0
DWIDTH 7 0
BBX 6 11 0 -2
BITMAP
1C
3C
30
7C
FC
CC
FC
7C
0C
FC
F8
ENDCHAR
STARTCHAR Hcircumflex
ENCODING 292
SWIDTH 538 0
DWIDTH 7 0
BBX 6 11 0 0
BITMAP
78
CC
00
CC
CC
CC
FC
FC
CC
CC
CC
ENDCHAR
STARTCHAR hcircumflex
ENCODING 293
SWIDTH 462 0
DWIDTH 6 0
BBX 6 11 0 0
BITMAP
78
CC
00
C0
C0
F8
FC
CC
CC
CC
CC
ENDCHAR
STARTCHAR Hbar
ENCODING 294
SWIDTH 538 0
DWIDTH 7 0
BBX 6 8 0 0
BITMAP
CC
FC
CC
FC
FC
CC
CC
CC
ENDCHAR
STARTCHAR hbar
ENCODING 295
SWIDTH 462 0
DWIDTH 6 0
BBX 6 9 0 0
BITMAP
C0
F0
C0
F8
FC
CC
CC
CC
CC
ENDCHAR
STARTCHAR Itilde
ENCODING 296
SWIDTH 538 0
DWIDTH 7 0
BBX 6 11 0 0
BITMAP
6C
FC
D8
00
FC
FC
30
30
30
FC
FC
ENDCHAR
STARTCHAR itilde
ENCODING 297
SWIDTH 538 0
DWIDTH 7 0
BBX 6 10 0 0
BITMAP
6C
FC
D8
00
30
30
30
30
30
30
ENDCHAR
STARTCHAR Imacron
ENCODING 298
SWIDTH 538 0
DWIDTH 7 0
BBX 6 11 0 0
BITMAP
FC
FC
00
FC
FC
30
30
30
30
FC
FC
ENDCHAR
STARTCHAR imacron
ENCODING 299
SWIDTH 385 0
DWIDTH 5 0
BBX 4 9 0 0
BITMAP
F0
F0
00
60
60
60
60
60
60
ENDCHAR
STARTCHAR Ibreve
ENCODING 300
SWIDTH 538 0
DWIDTH 7 0
BBX 6 11 0 0
BITMAP
CC
FC
00
FC
FC
30
30
30
30
FC
FC
ENDCHAR
STARTCHAR ibreve
ENCODING 301
SWIDTH 538 0
DWIDTH 7 0
BBX 6 9 0 0
BITMAP
CC
FC
00
30
30
30
30
30
30
ENDCHAR
STARTCHAR Iogonek
ENCODING 302
SWIDTH 538 0
DWIDTH 7 0
BBX 6 10 0 -2
BITMAP
FC
FC
30
30
30
30
FC
FC
30
3C
ENDCHAR
STARTCHAR iogonek
ENCODING 303
SWIDTH 308 0
DWIDTH 4 0
BBX 3 11 0 -2
BITMAP
60
60
00
60
60
60
60
60
60
C0
E0
ENDCHAR
STARTCHAR Idotaccent
ENCODING 304
SWIDTH 538 0
DWIDTH 7 0
BBX 6 11 0 0
BITMAP
30
30
00
FC
FC
30
30
30
30
FC
FC
ENDCHAR
STARTCHAR dotlessi
ENCODING 305
SWIDTH 231 0
DWIDTH 3 0
BBX 2 6 0 0
BITMAP
C0
C0
C0
C0
C0
C0
ENDCHAR
STARTCHAR Jcircumflex
ENCODING 308
SWIDTH 538 0
DWIDTH 7 0
BBX 6 11 0 0
BITMAP
78
CC
00
3C
3C
0C
0C
0C
CC
FC
78
ENDCHAR
STARTCHAR jcircumflex
ENCODING 309
SWIDTH 538 0
DWIDTH 7 0
BBX 6 12 0 -3
BITMAP
78
CC
00
30
30
30
30
30
30
30
F0
E0
ENDCHAR
STARTCHAR uni0136
ENCODING 310
SWIDTH 538 0
DWIDTH 7 0
BBX 6 11 0 -3
BITMAP
CC
DC
F8
F8
DC
CC
CC
CC
18
78
70
ENDCHAR
STARTCHAR uni0137
ENCODING 311
SWIDTH 538 0
DWIDTH 7 0
BBX 6 12 0 -3
BITMAP
C0
C0
C0
CC
CC
FC
F8
DC
CC
18
78
70
ENDCHAR
STARTCHAR kgreenlandic
ENCODING 312
SWIDTH 538 0
DWIDTH 7 0
BBX 6 6 0 0
BITMAP
CC
CC
F8
FC
CC
CC
ENDCHAR
STARTCHAR Lacute
ENCODING 313
SWIDTH 538 0
DWIDTH 7 0
BBX 6 11 0 0
BITMAP
60
C0
00
C0
C0
C0
C0
C0
C0
FC
FC
ENDCHAR
STARTCHAR lacute
ENCODING 314
SWIDTH 308 0
DWIDTH 4 0
BBX 3 11 0 0
BITMAP
60
C0
00
C0
C0
C0
C0
C0
C0
E0
E0
ENDCHAR
STARTCHAR uni013B
ENCODING 315
SWIDTH 538 0
DWIDTH 7 0
BBX 6 10 0 -2
BITMAP
C0
C0
C0
C0
C0
C0
FC
FC
30
70
ENDCHAR
STARTCHAR uni013C
ENCODING 316
SWIDTH 308 0
DWIDTH 4 0
BBX 3 11 0 -2
BITMAP
C0
C0
C0
C0
C0
C0
C0
C0
C0
60
E0
ENDCHAR
STARTCHAR Lcaron
ENCODING 317
SWIDTH 538 0
DWIDTH 7 0
BBX 6 8 0 0
BITMAP
D8
D8
D0
C0
C0
C0
FC
FC
ENDCHAR
STARTCHAR lcaron
ENCODING 318
SWIDTH 462 0
DWIDTH 6 0
BBX 5 9 0 0
BITMAP
D8
D8
D0
C0
C0
C0
C0
C0
C0
ENDCHAR
STARTCHAR Ldot
ENCODING 319
SWIDTH 538 0
DWIDTH 7 0
BBX 6 8 0 0
BITMAP
C0
C0
C0
D8
D8
C0
FC
FC
ENDCHAR
STARTCHAR ldot
ENCODING 320
SWIDTH 462 0
DWIDTH 6 0
BBX 5 9 0 0
BITMAP
C0
C0
C0
D8
D8
C0
C0
C0
C0
ENDCHAR
STARTCHAR Lslash
ENCODING 321
SWIDTH 615 0
DWIDTH 8 0
BBX 7 8 0 0
BITMAP
60
60
70
F0
E0
60
7E
7E
ENDCHAR
STARTCHAR lslash
ENCODING 322
SWIDTH 385 0
DWIDTH 5 0
BBX 4 9 0 0
BITMAP
60
60
60
70
F0
E0
60
60
60
ENDCHAR
STARTCHAR Nacute
ENCODING 323
SWIDTH 538 0
DWIDTH 7 0
BBX 6 11 0 0
BITMAP
18
30
00
CC
CC
EC
FC
FC
DC
CC
CC
ENDCHAR
STARTCHAR nacute
ENCODING 324
SWIDTH 538 0
DWIDTH 7 0
BBX 6 9 0 0
BITMAP
18
30
00
F8
FC
CC
CC
CC
CC
ENDCHAR
STARTCHAR uni0145
ENCODING 325
SWIDTH 538 0
DWIDTH 7 0
BBX 6 11 0 -3
BITMAP
CC
CC
EC
FC
FC
DC
CC
CC
18
78
70
ENDCHAR
STARTCHAR uni0146
ENCODING 326
SWIDTH 538 0
DWIDTH 7 0
BBX 6 9 0 -3
BITMAP
F8
FC
CC
CC
CC
CC
18
78
70
ENDCHAR
STARTCHAR Ncaron
ENCODING 327
SWIDTH 538 0
DWIDTH 7 0
BBX 6 11 0 0
BITMAP
CC
78
00
CC
CC
EC
FC
FC
DC
CC
CC
ENDCHAR
STARTCHAR ncaron
ENCODING 328
SWIDTH 538 0
DWIDTH 7 0
BBX 6 9 0 0
BITMAP
CC
78
00
F8
FC
CC
CC
CC
CC
ENDCHAR
STARTCHAR Eng
ENCODING 330
SWIDTH 538 0
DWIDTH 7 0
BBX 6 11 0 -3
BITMAP
CC
CC
EC
FC
FC
DC
CC
CC
0C
3C
38
ENDCHAR
STARTCHAR eng
ENCODING 331
SWIDTH 538 0
DWIDTH 7 0
BBX 6 9 0 -3
BITMAP
F8
FC
CC
CC
CC
CC
0C
3C
38
ENDCHAR
STARTCHAR Omacron
ENCODING 332
SWIDTH 538 0
DWIDTH 7 0
BBX 6 11 0 0
BITMAP
FC
FC
00
78
FC
CC
CC
CC
CC
FC
78
ENDCHAR
STARTCHAR omacron
ENCODING 333
SWIDTH 538 0
DWIDTH 7 0
BBX 6 9 0 0
BITMAP
FC
FC
00
78
FC
CC
CC
FC
78
ENDCHAR
STARTCHAR Obreve
ENCODING 334
SWIDTH 538 0
DWIDTH 7 0
BBX 6 11 0 0
BITMAP
CC
FC
00
78
FC
CC
CC
CC
CC
FC
78
ENDCHAR
STARTCHAR obreve
ENCODING 335
SWIDTH 538 0
DWIDTH 7 0
BBX 6 9 0 0
BITMAP
CC
78
00
78
FC
CC
CC
FC
78
ENDCHAR
STARTCHAR Ohungarumlaut
ENCODING 336
SWIDTH 538 0
DWIDTH 7 0
BBX 6 11 0 0
BITMAP
6C
D8
00
78
FC
CC
CC
CC
CC
FC
78
ENDCHAR
STARTCHAR ohungarumlaut
ENCODING 337
SWIDTH 538 0
DWIDTH 7 0
BBX 6 9 0 0
BITMAP
6C
D8
00
78
FC
CC
CC
FC
78
ENDCHAR
STARTCHAR OE
ENCODING 338
SWIDTH 692 0
DWIDTH 9 0
BBX 8 8 0 0
BITMAP
7F
FF
D8
DF
DF
D8
FF
7F
ENDCHAR
STARTCHAR oe
ENCODING 339
SWIDTH 692 0
DWIDTH 9 0
BBX 8 6 0 0
BITMAP
76
FF
DF
DC
FF
77
ENDCHAR
STARTCHAR Racute
ENCODING 340
SWIDTH 538 0
DWIDTH 7 0
BBX 6 11 0 0
BITMAP
18
30
00
7C
FC
CC
CC
F8
F8
CC
CC
ENDCHAR
STARTCHAR racute
ENCODING 341
SWIDTH 538 0
DWIDTH 7 0
BBX 6 9 0 0
BITMAP
18
30
00
F8
FC
CC
CC
C0
C0
ENDCHAR
STARTCHAR uni0156
ENCODING 342
SWIDTH 538 0
DWIDTH 7 0
BBX 6 11 0 -3
BITMAP
7C
FC
CC
CC
F8
F8
CC
CC
18
78
70
ENDCHAR
STARTCHAR uni0157
ENCODING 343
SWIDTH 538 0
DWIDTH 7 0
BBX 6 9 0 -3
BITMAP
F8
FC
CC
CC
C0
C0
60
E0
C0
ENDCHAR
STARTCHAR Rcaron
ENCODING 344
SWIDTH 538 0
DWIDTH 7 0
BBX 6 11 0 0
BITMAP
CC
78
00
7C
FC
CC
CC
F8
F8
CC
CC
ENDCHAR
STARTCHAR rcaron
ENCODING 345
SWIDTH 538 0
DWIDTH 7 0
BBX 6 9 0 0
BITMAP
CC
78
00
F8
FC
CC
CC
C0
C0
ENDCHAR
STARTCHAR Sacute
ENCODING 346
SWIDTH 538 0
DWIDTH 7 0
BBX 6 11 0 0
BITMAP
18
30
00
7C
FC
E0
70
38
1C
FC
F8
ENDCHAR
STARTCHAR sacute
ENCODING 347
SWIDTH 538 0
DWIDTH 7 0
BBX 6 9 0 0
BITMAP
18
30
00
7C
FC
70
38
FC
F8
ENDCHAR
STARTCHAR Scircumflex
ENCODING 348
SWIDTH 538 0
DWIDTH 7 0
BBX 6 11 0 0
BITMAP
78
CC
00
7C
FC
E0
70
38
1C
FC
F8
ENDCHAR
STARTCHAR scircumflex
ENCODING 349
SWIDTH 538 0
DWIDTH 7 0
BBX 6 9 0 0
BITMAP
78
CC
00
7C
FC
70
38
FC
F8
ENDCHAR
STARTCHAR Scedilla
ENCODING 350
SWIDTH 538 0
DWIDTH 7 0
BBX 6 11 0 -3
BITMAP
7C
FC
E0
70
38
1C
FC
F8
18
78
70
ENDCHAR
STARTCHAR scedilla
ENCODING 351
SWIDTH 538 0
DWIDTH 7 0
BBX 6 9 0 -3
BITMAP
7C
FC
70
38
FC
F8
18
78
70
ENDCHAR
STARTCHAR Scaron
ENCODING 352
SWIDTH 538 0
DWIDTH 7 0
BBX 6 11 0 0
BITMAP
CC
78
00
7C
FC
E0
70
38
1C
FC
F8
ENDCHAR
STARTCHAR scaron
ENCODING 353
SWIDTH 538 0
DWIDTH 7 0
BBX 6 9 0 0
BITMAP
CC
78
00
7C
FC
70
38
FC
F8
ENDCHAR
STARTCHAR uni0162
ENCODING 354
SWIDTH 538 0
DWIDTH 7 0
BBX 6 11 0 -3
BITMAP
FC
FC
30
30
30
30
30
30
18
78
70
ENDCHAR
STARTCHAR uni0163
ENCODING 355
SWIDTH 538 0
DWIDTH 7 0
BBX 6 11 0 -3
BITMAP
C0
C0
F8
F8
C0
C0
F8
7C
0C
3C
38
ENDCHAR
STARTCHAR Tcaron
ENCODING 356
SWIDTH 538 0
DWIDTH 7 0
BBX 6 11 0 0
BITMAP
CC
78
00
FC
FC
30
30
30
30
30
30
ENDCHAR
STARTCHAR tcaron
ENCODING 357
SWIDTH 538 0
DWIDTH 7 0
BBX 6 8 0 0
BITMAP
CC
CC
E8
E0
C0
CC
FC
78
ENDCHAR
STARTCHAR Tbar
ENCODING 358
SWIDTH 538 0
DWIDTH 7 0
BBX 6 8 0 0
BITMAP
FC
FC
30
30
78
78
30
30
ENDCHAR
STARTCHAR tbar
ENCODING 359
SWIDTH 462 0
DWIDTH 6 0
BBX 6 8 0 0
BITMAP
F0
C0
F8
F8
C0
CC
FC
78
ENDCHAR
STARTCHAR Utilde
ENCODING 360
SWIDTH 538 0
DWIDTH 7 0
BBX 6 11 0 0
BITMAP
6C
FC
D8
00
CC
CC
CC
CC
CC
FC
78
ENDCHAR
STARTCHAR utilde
ENCODING 361
SWIDTH 538 0
DWIDTH 7 0
BBX 6 10 0 0
BITMAP
6C
FC
D8
00
CC
CC
CC
CC
FC
78
ENDCHAR
STARTCHAR Umacron
ENCODING 362
SWIDTH 538 0
DWIDTH 7 0
BBX 6 11 0 0
BITMAP
FC
FC
00
CC
CC
CC
CC
CC
CC
FC
78
ENDCHAR
STARTCHAR umacron
ENCODING 363
SWIDTH 538 0
DWIDTH 7 0
BBX 6 9 0 0
BITMAP
FC
FC
00
CC
CC
CC
CC
FC
78
ENDCHAR
STARTCHAR Ubreve
ENCODING 364
SWIDTH 538 0
DWIDTH 7 0
BBX 6 11 0 0
BITMAP
CC
FC
00
CC
CC
CC
CC
CC
CC
FC
78
ENDCHAR
STARTCHAR ubreve
ENCODING 365
SWIDTH 538 0
DWIDTH 7 0
BBX 6 9 0 0
BITMAP
CC
FC
00
CC
CC
CC
CC
FC
78
ENDCHAR
STARTCHAR Uring
ENCODING 366
SWIDTH 538 0
DWIDTH 7 0
BBX 6 11 0 0
BITMAP
78
48
48
FC
CC
CC
CC
CC
CC
FC
78
ENDCHAR
STARTCHAR uring
ENCODING 367
SWIDTH 538 0
DWIDTH 7 0
BBX 6 11 0 0
BITMAP
78
48
48
78
00
CC
CC
CC
CC
FC
78
ENDCHAR
STARTCHAR Uhungarumlaut
ENCODING 368
SWIDTH 538 0
DWIDTH 7 0
BBX 6 11 0 0
BITMAP
6C
D8
00
CC
CC
CC
CC
CC
CC
FC
78
ENDCHAR
STARTCHAR uhungarumlaut
ENCODING 369
SWIDTH 538 0
DWIDTH 7 0
BBX 6 9 0 0
BITMAP
6C
D8
00
CC
CC
CC
CC
FC
78
ENDCHAR
STARTCHAR Uogonek
ENCODING 370
SWIDTH 538 0
DWIDTH 7 0
BBX 6 10 0 -2
BITMAP
CC
CC
CC
CC
CC
CC
FC
78
18
1C
ENDCHAR
STARTCHAR uogonek
ENCODING 371
SWIDTH 538 0
DWIDTH 7 0
BBX 6 8 0 -2
BITMAP
CC
CC
CC
CC
FC
78
18
1C
ENDCHAR
STARTCHAR Wcircumflex
ENCODING 372
SWIDTH 538 0
DWIDTH 7 0
BBX 6 11 0 0
BITMAP
78
CC
00
CC
CC
CC
CC
CC
FC
FC
CC
ENDCHAR
STARTCHAR wcircumflex
ENCODING 373
SWIDTH 692 0
DWIDTH 9 0
BBX 8 9 0 0
BITMAP
3C
66
00
DB
DB
DB
FF
FF
66
ENDCHAR
STARTCHAR Ycircumflex
ENCODING 374
SWIDTH 538 0
DWIDTH 7 0
BBX 6 11 0 0
BITMAP
78
CC
00
CC
CC
CC
FC
78
30
30
30
ENDCHAR
STARTCHAR ycircumflex
ENCODING 375
SWIDTH 538 0
DWIDTH 7 0
BBX 6 12 0 -3
BITMAP
78
CC
00
CC
CC
CC
CC
FC
7C
0C
7C
78
ENDCHAR
STARTCHAR Ydieresis
ENCODING 376
SWIDTH 538 0
DWIDTH 7 0
BBX 6 11 0 0
BITMAP
CC
CC
00
CC
CC
CC
FC
78
30
30
30
ENDCHAR
STARTCHAR Zacute
ENCODING 377
SWIDTH 538 0
DWIDTH 7 0
BBX 6 11 0 0
BITMAP
18
30
00
FC
FC
0C
3C
F0
C0
FC
FC
ENDCHAR
STARTCHAR zacute
ENCODING 378
SWIDTH 538 0
DWIDTH 7 0
BBX 6 9 0 0
BITMAP
18
30
00
FC
FC
38
70
FC
FC
ENDCHAR
STARTCHAR Zdotaccent
ENCODING 379
SWIDTH 538 0
DWIDTH 7 0
BBX 6 11 0 0
BITMAP
30
30
00
FC
FC
0C
3C
F0
C0
FC
FC
ENDCHAR
STARTCHAR zdotaccent
ENCODING 380
SWIDTH 538 0
DWIDTH 7 0
BBX 6 9 0 0
BITMAP
30
30
00
FC
FC
38
70
FC
FC
ENDCHAR
STARTCHAR Zcaron
ENCODING 381
SWIDTH 538 0
DWIDTH 7 0
BBX 6 11 0 0
BITMAP
CC
78
00
FC
FC
0C
3C
F0
C0
FC
FC
ENDCHAR
STARTCHAR zcaron
ENCODING 382
SWIDTH 538 0
DWIDTH 7 0
BBX 6 9 0 0
BITMAP
CC
78
00
FC
FC
38
70
FC
FC
ENDCHAR
STARTCHAR longs
ENCODING 383
SWIDTH 385 0
DWIDTH 5 0
BBX 4 8 0 0
BITMAP
70
F0
C0
C0
C0
C0
C0
C0
ENDCHAR
STARTCHAR uni0181
ENCODING 385
SWIDTH 692 0
DWIDTH 9 0
BBX 8 8 0 0
BITMAP
7F
FF
B3
3E
3E
33
3F
3F
ENDCHAR
STARTCHAR uni0186
ENCODING 390
SWIDTH 538 0
DWIDTH 7 0
BBX 6 8 0 0
BITMAP
78
FC
CC
0C
0C
CC
FC
78
ENDCHAR
STARTCHAR uni018F
ENCODING 399
SWIDTH 538 0
DWIDTH 7 0
BBX 6 8 0 0
BITMAP
F8
FC
0C
FC
FC
CC
FC
78
ENDCHAR
STARTCHAR uni0190
ENCODING 400
SWIDTH 538 0
DWIDTH 7 0
BBX 6 8 0 0
BITMAP
7C
FC
C0
F0
70
C0
FC
7C
ENDCHAR
STARTCHAR uni0194
ENCODING 404
SWIDTH 538 0
DWIDTH 7 0
BBX 6 10 0 -2
BITMAP
CC
CC
CC
CC
CC
CC
FC
78
CC
78
ENDCHAR
STARTCHAR uni0195
ENCODING 405
SWIDTH 692 0
DWIDTH 9 0
BBX 8 8 0 0
BITMAP
C0
C0
C0
F3
FB
DB
DF
CE
ENDCHAR
STARTCHAR uni0197
ENCODING 407
SWIDTH 538 0
DWIDTH 7 0
BBX 6 8 0 0
BITMAP
FC
FC
30
78
78
30
FC
FC
ENDCHAR
STARTCHAR Ohorn
ENCODING 416
SWIDTH 692 0
DWIDTH 9 0
BBX 8 8 0 0
BITMAP
7B
FF
CE
CC
CC
CC
FC
78
ENDCHAR
STARTCHAR ohorn
ENCODING 417
SWIDTH 692 0
DWIDTH 9 0
BBX 8 6 0 0
BITMAP
7B
FF
CE
CC
FC
78
ENDCHAR
STARTCHAR uni01A9
ENCODING 425
SWIDTH 538 0
DWIDTH 7 0
BBX 6 8 0 0
BITMAP
FC
FC
60
30
30
60
FC
FC
ENDCHAR
STARTCHAR Uhorn
ENCODING 431
SWIDTH 692 0
DWIDTH 9 0
BBX 8 8 0 0
BITMAP
CD
CF
CE
CC
CC
CC
FC
78
ENDCHAR
STARTCHAR uhorn
ENCODING 432
SWIDTH 692 0
DWIDTH 9 0
BBX 8 6 0 0
BITMAP
CD
CF
CE
CC
FC
78
ENDCHAR
STARTCHAR uni01B1
ENCODING 433
SWIDTH 615 0
DWIDTH 8 0
BBX 7 8 0 0
BITMAP
EE
EE
6C
C6
C6
C6
FE
7C
ENDCHAR
STARTCHAR uni01B2
ENCODING 434
SWIDTH 538 0
DWIDTH 7 0
BBX 6 8 0 0
BITMAP
D8
DC
CC
CC
CC
CC
FC
78
ENDCHAR
STARTCHAR uni01B7
ENCODING 439
SWIDTH 538 0
DWIDTH 7 0
BBX 6 8 0 0
BITMAP
FC
FC
0C
18
1C
CC
FC
78
ENDCHAR
STARTCHAR uni01B8
ENCODING 440
SWIDTH 538 0
DWIDTH 7 0
BBX 6 8 0 0
BITMAP
FC
FC
C0
60
E0
CC
FC
78
ENDCHAR
STARTCHAR uni01B9
ENCODING 441
SWIDTH 538 0
DWIDTH 7 0
BBX 6 8 0 -2
BITMAP
FC
FC
C0
70
F0
C0
FC
7C
ENDCHAR
STARTCHAR uni01BF
ENCODING 447
SWIDTH 538 0
DWIDTH 7 0
BBX 6 8 0 -2
BITMAP
F8
FC
CC
DC
F8
F0
C0
C0
ENDCHAR
STARTCHAR uni01C0
ENCODING 448
SWIDTH 308 0
DWIDTH 4 0
BBX 2 8 0 0
BITMAP
C0
C0
C0
C0
C0
C0
C0
C0
ENDCHAR
STARTCHAR uni01C1
ENCODING 449
SWIDTH 538 0
DWIDTH 7 0
BBX 5 8 0 0
BITMAP
D8
D8
D8
D8
D8
D8
D8
D8
ENDCHAR
STARTCHAR uni01C2
ENCODING 450
SWIDTH 385 0
DWIDTH 5 0
BBX 4 8 0 0
BITMAP
60
60
F0
60
60
F0
60
60
ENDCHAR
STARTCHAR uni01C3
ENCODING 451
SWIDTH 385 0
DWIDTH 5 0
BBX 4 8 0 0
BITMAP
60
F0
F0
60
60
00
60
60
ENDCHAR
STARTCHAR uni01F6
ENCODING 502
SWIDTH 692 0
DWIDTH 9 0
BBX 8 8 0 0
BITMAP
D8
D8
D8
FB
FB
DB
DF
CE
ENDCHAR
STARTCHAR uni01F7
ENCODING 503
SWIDTH 538 0
DWIDTH 7 0
BBX 6 8 0 0
BITMAP
F8
FC
CC
DC
F8
F0
C0
C0
ENDCHAR
STARTCHAR uni021C
ENCODING 540
SWIDTH 538 0
DWIDTH 7 0
BBX 6 11 0 -3
BITMAP
F8
FC
0C
0C
38
3C
0C
0C
7C
F8
C0
ENDCHAR
STARTCHAR uni021D
ENCODING 541
SWIDTH 538 0
DWIDTH 7 0
BBX 6 9 0 -3
BITMAP
F8
FC
0C
3C
38
0C
7C
F8
C0
ENDCHAR
STARTCHAR uni0224
ENCODING 548
SWIDTH 538 0
DWIDTH 7 0
BBX 6 8 0 0
BITMAP
FC
FC
0C
3C
F0
C0
FC
FC
ENDCHAR
STARTCHAR uni0225
ENCODING 549
SWIDTH 538 0
DWIDTH 7 0
BBX 6 6 0 0
BITMAP
FC
FC
38
70
FC
FC
ENDCHAR
STARTCHAR uni0226
ENCODING 550
SWIDTH 538 0
DWIDTH 7 0
BBX 6 11 0 0
BITMAP
30
30
00
78
FC
CC
CC
FC
FC
CC
CC
ENDCHAR
STARTCHAR uni0227
ENCODING 551
SWIDTH 538 0
DWIDTH 7 0
BBX 6 9 0 0
BITMAP
30
30
00
7C
FC
CC
CC
FC
7C
ENDCHAR
STARTCHAR uni022E
ENCODING 558
SWIDTH 538 0
DWIDTH 7 0
BBX 6 11 0 0
BITMAP
30
30
00
78
FC
CC
CC
CC
CC
FC
78
ENDCHAR
STARTCHAR uni022F
ENCODING 559
SWIDTH 538 0
DWIDTH 7 0
BBX 6 9 0 0
BITMAP
30
30
00
78
FC
CC
CC
FC
78
ENDCHAR
STARTCHAR uni0232
ENCODING 562
SWIDTH 538 0
DWIDTH 7 0
BBX 6 11 0 0
BITMAP
FC
FC
00
CC
CC
CC
FC
78
30
30
30
ENDCHAR
STARTCHAR uni0233
ENCODING 563
SWIDTH 538 0
DWIDTH 7 0
BBX 6 12 0 -3
BITMAP
FC
FC
00
CC
CC
CC
CC
FC
7C
0C
7C
78
ENDCHAR
STARTCHAR uni0237
ENCODING 567
SWIDTH 385 0
DWIDTH 5 0
BBX 4 9 0 -3
BITMAP
30
30
30
30
30
30
30
F0
E0
ENDCHAR
STARTCHAR uni0238
ENCODING 568
SWIDTH 692 0
DWIDTH 9 0
BBX 8 9 0 0
BITMAP
18
18
18
7E
FF
DB
DB
FF
7E
ENDCHAR
STARTCHAR uni0239
ENCODING 569
SWIDTH 692 0
DWIDTH 9 0
BBX 8 9 0 -3
BITMAP
7E
FF
DB
DB
FF
7E
18
18
18
ENDCHAR
STARTCHAR uni0241
ENCODING 577
SWIDTH 538 0
DWIDTH 7 0
BBX 6 8 0 0
BITMAP
F8
FC
0C
1C
38
30
30
30
ENDCHAR
STARTCHAR uni0242
ENCODING 578
SWIDTH 538 0
DWIDTH 7 0
BBX 6 6 0 0
BITMAP
F8
FC
0C
3C
38
30
ENDCHAR
STARTCHAR uni0245
ENCODING 581
SWIDTH 538 0
DWIDTH 7 0
BBX 6 8 0 0
BITMAP
30
78
FC
CC
CC
CC
CC
CC
ENDCHAR
STARTCHAR uni0248
ENCODING 584
SWIDTH 615 0
DWIDTH 8 0
BBX 8 8 0 0
BITMAP
0C
0C
3F
3F
0C
CC
FC
78
ENDCHAR
STARTCHAR uni0249
ENCODING 585
SWIDTH 538 0
DWIDTH 7 0
BBX 6 12 0 -3
BITMAP
30
30
00
30
30
FC
FC
30
30
30
F0
E0
ENDCHAR
STARTCHAR uni0250
ENCODING 592
SWIDTH 538 0
DWIDTH 7 0
BBX 6 6 0 0
BITMAP
F8
FC
CC
CC
FC
F8
ENDCHAR
STARTCHAR uni0251
ENCODING 593
SWIDTH 538 0
DWIDTH 7 0
BBX 6 6 0 0
BITMAP
6C
FC
CC
CC
FC
6C
ENDCHAR
STARTCHAR uni0252
ENCODING 594
SWIDTH 538 0
DWIDTH 7 0
BBX 6 6 0 0
BITMAP
D8
FC
CC
CC
FC
D8
ENDCHAR
STARTCHAR uni0253
ENCODING 595
SWIDTH 538 0
DWIDTH 7 0
BBX 6 9 0 0
BITMAP
70
F0
C0
F8
FC
CC
CC
FC
F8
ENDCHAR
STARTCHAR uni0254
ENCODING 596
SWIDTH 538 0
DWIDTH 7 0
BBX 6 6 0 0
BITMAP
F8
FC
0C
0C
FC
F8
ENDCHAR
STARTCHAR uni0255
ENCODING 597
SWIDTH 538 0
DWIDTH 7 0
BBX 6 7 0 -1
BITMAP
7C
FC
C0
DC
F4
7C
10
ENDCHAR
STARTCHAR uni0259
ENCODING 601
SWIDTH 538 0
DWIDTH 7 0
BBX 6 6 0 0
BITMAP
F8
FC
0C
FC
FC
78
ENDCHAR
STARTCHAR uni025B
ENCODING 603
SWIDTH 538 0
DWIDTH 7 0
BBX 6 6 0 0
BITMAP
7C
FC
70
C0
FC
7C
ENDCHAR
STARTCHAR uni025C
ENCODING 604
SWIDTH 538 0
DWIDTH 7 0
BBX 6 6 0 0
BITMAP
F8
FC
38
0C
FC
F8
ENDCHAR
STARTCHAR uni025E
ENCODING 606
SWIDTH 538 0
DWIDTH 7 0
BBX 6 6 0 0
BITMAP
78
CC
D8
DC
CC
78
ENDCHAR
STARTCHAR uni025F
ENCODING 607
SWIDTH 462 0
DWIDTH 6 0
BBX 5 9 0 -3
BITMAP
30
30
78
78
30
30
30
F0
E0
ENDCHAR
STARTCHAR uni0261
ENCODING 609
SWIDTH 538 0
DWIDTH 7 0
BBX 6 8 0 -2
BITMAP
7C
FC
CC
FC
7C
0C
FC
F8
ENDCHAR
STARTCHAR uni0262
ENCODING 610
SWIDTH 538 0
DWIDTH 7 0
BBX 6 6 0 0
BITMAP
7C
FC
C0
CC
FC
7C
ENDCHAR
STARTCHAR uni0263
ENCODING 611
SWIDTH 538 0
DWIDTH 7 0
BBX 6 8 0 -2
BITMAP
CC
CC
CC
CC
78
FC
CC
78
ENDCHAR
STARTCHAR uni0264
ENCODING 612
SWIDTH 538 0
DWIDTH 7 0
BBX 6 6 0 0
BITMAP
CC
FC
78
CC
FC
78
ENDCHAR
STARTCHAR uni0265
ENCODING 613
SWIDTH 538 0
DWIDTH 7 0
BBX 6 9 0 -3
BITMAP
CC
CC
CC
CC
FC
7C
0C
0C
0C
ENDCHAR
STARTCHAR uni0266
ENCODING 614
SWIDTH 538 0
DWIDTH 7 0
BBX 6 9 0 0
BITMAP
70
F0
C0
F8
FC
CC
CC
CC
CC
ENDCHAR
STARTCHAR uni0267
ENCODING 615
SWIDTH 538 0
DWIDTH 7 0
BBX 6 12 0 -3
BITMAP
70
F0
C0
F8
FC
CC
CC
CC
CC
0C
3C
38
ENDCHAR
STARTCHAR uni0268
ENCODING 616
SWIDTH 231 0
DWIDTH 3 0
BBX 2 9 0 0
BITMAP
C0
C0
00
C0
C0
C0
C0
C0
C0
ENDCHAR
STARTCHAR uni0269
ENCODING 617
SWIDTH 385 0
DWIDTH 5 0
BBX 4 6 0 0
BITMAP
C0
C0
C0
C0
F0
70
ENDCHAR
STARTCHAR uni026A
ENCODING 618
SWIDTH 385 0
DWIDTH 5 0
BBX 4 6 0 0
BITMAP
F0
F0
60
60
F0
F0
ENDCHAR
STARTCHAR uni026B
ENCODING 619
SWIDTH 538 0
DWIDTH 7 0
BBX 6 9 0 0
BITMAP
30
30
30
74
FC
B8
30
30
30
ENDCHAR
STARTCHAR uni026C
ENCODING 620
SWIDTH 462 0
DWIDTH 6 0
BBX 5 9 0 0
BITMAP
30
30
30
70
B0
F8
30
30
30
ENDCHAR
STARTCHAR uni026D
ENCODING 621
SWIDTH 308 0
DWIDTH 4 0
BBX 3 11 0 -2
BITMAP
C0
C0
C0
C0
C0
C0
C0
C0
C0
E0
60
ENDCHAR
STARTCHAR uni026E
ENCODING 622
SWIDTH 615 0
DWIDTH 8 0
BBX 7 11 0 -2
BITMAP
C0
C0
C0
FE
FE
C6
DE
DC
C6
3E
3C
ENDCHAR
STARTCHAR uni026F
ENCODING 623
SWIDTH 692 0
DWIDTH 9 0
BBX 8 6 0 0
BITMAP
DB
DB
DB
DB
FF
7F
ENDCHAR
STARTCHAR uni0270
ENCODING 624
SWIDTH 692 0
DWIDTH 9 0
BBX 8 8 0 -2
BITMAP
DB
DB
DB
DB
FF
7F
03
03
ENDCHAR
STARTCHAR uni0271
ENCODING 625
SWIDTH 692 0
DWIDTH 9 0
BBX 8 9 0 -3
BITMAP
FE
FF
DB
DB
DB
DB
03
0F
0E
ENDCHAR
STARTCHAR uni0272
ENCODING 626
SWIDTH 538 0
DWIDTH 7 0
BBX 6 6 0 0
BITMAP
F8
FC
CC
CC
CC
CC
ENDCHAR
STARTCHAR uni0273
ENCODING 627
SWIDTH 538 0
DWIDTH 7 0
BBX 6 6 0 0
BITMAP
F8
FC
CC
CC
CC
CC
ENDCHAR
STARTCHAR uni0274
ENCODING 628
SWIDTH 538 0
DWIDTH 7 0
BBX 6 6 0 0
BITMAP
CC
EC
FC
DC
CC
CC
ENDCHAR
STARTCHAR uni0276
ENCODING 630
SWIDTH 615 0
DWIDTH 8 0
BBX 7 6 0 0
BITMAP
7E
FE
D8
DE
F8
7E
ENDCHAR
STARTCHAR uni0277
ENCODING 631
SWIDTH 692 0
DWIDTH 9 0
BBX 8 6 0 0
BITMAP
7E
FF
C3
DB
FF
66
ENDCHAR
STARTCHAR uni0278
ENCODING 632
SWIDTH 692 0
DWIDTH 9 0
BBX 8 10 0 -2
BITMAP
18
18
7E
FF
DB
DB
FF
7E
18
18
ENDCHAR
STARTCHAR uni0279
ENCODING 633
SWIDTH 538 0
DWIDTH 7 0
BBX 6 6 0 0
BITMAP
0C
0C
CC
CC
FC
7C
ENDCHAR
STARTCHAR uni027A
ENCODING 634
SWIDTH 538 0
DWIDTH 7 0
BBX 6 8 0 0
BITMAP
0C
0C
0C
0C
CC
CC
FC
7C
ENDCHAR
STARTCHAR uni027B
ENCODING 635
SWIDTH 538 0
DWIDTH 7 0
BBX 7 9 0 -3
BITMAP
0C
0C
CC
CC
FC
7C
0C
0E
06
ENDCHAR
STARTCHAR uni027C
ENCODING 636
SWIDTH 538 0
DWIDTH 7 0
BBX 6 6 0 0
BITMAP
F8
FC
CC
CC
C0
C0
ENDCHAR
STARTCHAR uni027D
ENCODING 637
SWIDTH 538 0
DWIDTH 7 0
BBX 6 6 0 0
BITMAP
F8
FC
CC
CC
C0
C0
ENDCHAR
STARTCHAR uni027E
ENCODING 638
SWIDTH 385 0
DWIDTH 5 0
BBX 4 6 0 0
BITMAP
70
F0
C0
C0
C0
C0
ENDCHAR
STARTCHAR uni027F
ENCODING 639
SWIDTH 385 0
DWIDTH 5 0
BBX 4 8 0 -2
BITMAP
E0
F0
30
30
30
30
30
30
ENDCHAR
STARTCHAR uni0280
ENCODING 640
SWIDTH 538 0
DWIDTH 7 0
BBX 6 6 0 0
BITMAP
F8
FC
CC
F8
FC
CC
ENDCHAR
STARTCHAR uni0281
ENCODING 641
SWIDTH 538 0
DWIDTH 7 0
BBX 6 6 0 0
BITMAP
CC
FC
F8
CC
FC
F8
ENDCHAR
STARTCHAR uni0282
ENCODING 642
SWIDTH 538 0
DWIDTH 7 0
BBX 6 6 0 0
BITMAP
7C
FC
70
38
FC
F8
ENDCHAR
STARTCHAR uni0283
ENCODING 643
SWIDTH 308 0
DWIDTH 4 0
BBX 4 11 0 -2
BITMAP
30
70
60
60
60
60
60
60
60
E0
C0
ENDCHAR
STARTCHAR uni0284
ENCODING 644
SWIDTH 385 0
DWIDTH 5 0
BBX 4 11 0 -2
BITMAP
30
70
60
60
60
F0
60
60
60
E0
C0
ENDCHAR
STARTCHAR uni0286
ENCODING 646
SWIDTH 462 0
DWIDTH 6 0
BBX 5 11 0 -2
BITMAP
18
38
30
30
30
30
30
78
B0
F0
60
ENDCHAR
STARTCHAR uni0287
ENCODING 647
SWIDTH 538 0
DWIDTH 7 0
BBX 6 8 0 -2
BITMAP
78
FC
CC
0C
FC
FC
0C
0C
ENDCHAR
STARTCHAR uni0288
ENCODING 648
SWIDTH 308 0
DWIDTH 4 0
BBX 3 10 0 -2
BITMAP
C0
C0
E0
E0
C0
C0
C0
C0
E0
60
ENDCHAR
STARTCHAR uni0289
ENCODING 649
SWIDTH 538 0
DWIDTH 7 0
BBX 6 6 0 0
BITMAP
CC
CC
FC
CC
FC
7C
ENDCHAR
STARTCHAR uni028A
ENCODING 650
SWIDTH 615 0
DWIDTH 8 0
BBX 7 6 0 0
BITMAP
EE
EE
6C
C6
FE
7C
ENDCHAR
STARTCHAR uni028B
ENCODING 651
SWIDTH 538 0
DWIDTH 7 0
BBX 6 6 0 0
BITMAP
D8
DC
CC
CC
FC
78
ENDCHAR
STARTCHAR uni028C
ENCODING 652
SWIDTH 538 0
DWIDTH 7 0
BBX 6 6 0 0
BITMAP
30
78
FC
CC
CC
CC
ENDCHAR
STARTCHAR uni028D
ENCODING 653
SWIDTH 692 0
DWIDTH 9 0
BBX 8 6 0 0
BITMAP
66
FF
FF
DB
DB
DB
ENDCHAR
STARTCHAR uni028E
ENCODING 654
SWIDTH 538 0
DWIDTH 7 0
BBX 6 9 0 0
BITMAP
78
F8
C0
F8
FC
CC
CC
CC
CC
ENDCHAR
STARTCHAR uni028F
ENCODING 655
SWIDTH 538 0
DWIDTH 7 0
BBX 6 6 0 0
BITMAP
CC
CC
FC
78
30
30
ENDCHAR
STARTCHAR uni0290
ENCODING 656
SWIDTH 538 0
DWIDTH 7 0
BBX 6 8 0 -2
BITMAP
FC
FC
38
70
FC
FC
18
0C
ENDCHAR
STARTCHAR uni0291
ENCODING 657
SWIDTH 538 0
DWIDTH 7 0
BBX 6 7 0 -1
BITMAP
FC
FC
38
74
FC
FC
10
ENDCHAR
STARTCHAR uni0292
ENCODING 658
SWIDTH 538 0
DWIDTH 7 0
BBX 6 8 0 -2
BITMAP
FC
FC
0C
3C
38
0C
FC
F8
ENDCHAR
STARTCHAR uni0293
ENCODING 659
SWIDTH 538 0
DWIDTH 7 0
BBX 6 9 0 -3
BITMAP
FC
FC
0C
3C
38
CC
FC
78
04
ENDCHAR
STARTCHAR uni0294
ENCODING 660
SWIDTH 538 0
DWIDTH 7 0
BBX 6 8 0 0
BITMAP
F8
FC
0C
1C
38
30
30
30
ENDCHAR
STARTCHAR uni0295
ENCODING 661
SWIDTH 538 0
DWIDTH 7 0
BBX 6 8 0 0
BITMAP
7C
FC
C0
E0
70
30
30
30
ENDCHAR
STARTCHAR uni0296
ENCODING 662
SWIDTH 538 0
DWIDTH 7 0
BBX 6 8 0 0
BITMAP
30
30
30
38
1C
0C
FC
F8
ENDCHAR
STARTCHAR uni0297
ENCODING 663
SWIDTH 538 0
DWIDTH 7 0
BBX 6 9 0 -3
BITMAP
7C
FC
C0
C0
C0
C0
C0
FC
7C
ENDCHAR
STARTCHAR uni0298
ENCODING 664
SWIDTH 615 0
DWIDTH 8 0
BBX 7 9 0 0
BITMAP
7C
FE
C6
C6
D6
C6
C6
FE
7C
ENDCHAR
STARTCHAR uni0299
ENCODING 665
SWIDTH 538 0
DWIDTH 7 0
BBX 6 6 0 0
BITMAP
F8
CC
F8
CC
FC
F8
ENDCHAR
STARTCHAR uni029A
ENCODING 666
SWIDTH 538 0
DWIDTH 7 0
BBX 6 6 0 0
BITMAP
78
CC
6C
6C
CC
78
ENDCHAR
STARTCHAR uni029C
ENCODING 668
SWIDTH 538 0
DWIDTH 7 0
BBX 6 6 0 0
BITMAP
CC
CC
FC
FC
CC
CC
ENDCHAR
STARTCHAR uni029D
ENCODING 669
SWIDTH 231 0
DWIDTH 3 0
BBX 4 12 -2 -3
BITMAP
30
30
00
30
30
30
30
30
30
30
F0
E0
ENDCHAR
STARTCHAR uni029E
ENCODING 670
SWIDTH 538 0
DWIDTH 7 0
BBX 6 9 0 -3
BITMAP
CC
EC
7C
FC
CC
CC
0C
0C
0C
ENDCHAR
STARTCHAR uni029F
ENCODING 671
SWIDTH 462 0
DWIDTH 6 0
BBX 5 6 0 0
BITMAP
C0
C0
C0
C0
F8
F8
ENDCHAR
STARTCHAR uni02A0
ENCODING 672
SWIDTH 538 0
DWIDTH 7 0
BBX 6 9 0 -3
BITMAP
7C
FC
CC
CC
FC
FC
0C
0C
0C
ENDCHAR
STARTCHAR uni02A1
ENCODING 673
SWIDTH 538 0
DWIDTH 7 0
BBX 6 8 0 0
BITMAP
F8
FC
0C
1C
38
30
78
30
ENDCHAR
STARTCHAR uni02A2
ENCODING 674
SWIDTH 538 0
DWIDTH 7 0
BBX 6 8 0 0
BITMAP
7C
FC
C0
E0
70
30
78
30
ENDCHAR
STARTCHAR uni02AC
ENCODING 684
SWIDTH 692 0
DWIDTH 9 0
BBX 8 8 0 0
BITMAP
DB
FF
66
00
00
DB
FF
66
ENDCHAR
STARTCHAR uni02AD
ENCODING 685
SWIDTH 538 0
DWIDTH 7 0
BBX 6 8 0 0
BITMAP
FC
FC
CC
00
00
FC
FC
CC
ENDCHAR
STARTCHAR uni02B0
ENCODING 688
SWIDTH 462 0
DWIDTH 6 0
BBX 5 5 0 4
BITMAP
C0
C0
F0
F8
D8
ENDCHAR
STARTCHAR uni02B1
ENCODING 689
SWIDTH 462 0
DWIDTH 6 0
BBX 5 5 0 4
BITMAP
60
C0
F0
F8
D8
ENDCHAR
STARTCHAR uni02B2
ENCODING 690
SWIDTH 462 0
DWIDTH 6 0
BBX 5 6 0 3
BITMAP
18
00
18
D8
F8
70
ENDCHAR
STARTCHAR uni02B3
ENCODING 691
SWIDTH 462 0
DWIDTH 6 0
BBX 5 4 0 4
BITMAP
F0
F8
D8
C0
ENDCHAR
STARTCHAR uni02B4
ENCODING 692
SWIDTH 462 0
DWIDTH 6 0
BBX 5 4 0 4
BITMAP
18
D8
F8
78
ENDCHAR
STARTCHAR uni02B5
ENCODING 693
SWIDTH 462 0
DWIDTH 6 0
BBX 5 5 0 3
BITMAP
18
D8
F8
78
18
ENDCHAR
STARTCHAR uni02B6
ENCODING 694
SWIDTH 462 0
DWIDTH 6 0
BBX 5 4 0 4
BITMAP
D8
F0
D8
F0
ENDCHAR
STARTCHAR uni02B7
ENCODING 695
SWIDTH 615 0
DWIDTH 8 0
BBX 7 4 0 4
BITMAP
C6
D6
FE
6C
ENDCHAR
STARTCHAR uni02B8
ENCODING 696
SWIDTH 462 0
DWIDTH 6 0
BBX 5 6 0 2
BITMAP
D8
F8
78
18
F8
F0
ENDCHAR
STARTCHAR uni02BE
ENCODING 702
SWIDTH 385 0
DWIDTH 5 0
BBX 4 5 0 4
BITMAP
E0
F0
30
F0
E0
ENDCHAR
STARTCHAR uni02BF
ENCODING 703
SWIDTH 385 0
DWIDTH 5 0
BBX 4 5 0 4
BITMAP
70
F0
C0
F0
70
ENDCHAR
STARTCHAR uni02C0
ENCODING 704
SWIDTH 462 0
DWIDTH 6 0
BBX 5 5 0 4
BITMAP
F0
F8
18
70
60
ENDCHAR
STARTCHAR uni02C1
ENCODING 705
SWIDTH 462 0
DWIDTH 6 0
BBX 5 5 0 4
BITMAP
78
F8
C0
70
30
ENDCHAR
STARTCHAR uni02D0
ENCODING 720
SWIDTH 385 0
DWIDTH 5 0
BBX 4 6 0 0
BITMAP
F0
60
00
00
60
F0
ENDCHAR
STARTCHAR uni02D1
ENCODING 721
SWIDTH 385 0
DWIDTH 5 0
BBX 4 2 0 4
BITMAP
F0
60
ENDCHAR
STARTCHAR uni02ED
ENCODING 749
SWIDTH 462 0
DWIDTH 6 0
BBX 5 5 0 4
BITMAP
F8
F8
00
F8
F8
ENDCHAR
STARTCHAR uni037B
ENCODING 891
SWIDTH 538 0
DWIDTH 7 0
BBX 6 6 0 0
BITMAP
F8
FC
0C
0C
FC
F8
ENDCHAR
STARTCHAR uni037E
ENCODING 894
SWIDTH 231 0
DWIDTH 3 0
BBX 2 7 0 -1
BITMAP
C0
C0
00
00
C0
C0
80
ENDCHAR
STARTCHAR anoteleia
ENCODING 903
SWIDTH 231 0
DWIDTH 3 0
BBX 2 2 0 3
BITMAP
C0
C0
ENDCHAR
STARTCHAR Alpha
ENCODING 913
SWIDTH 538 0
DWIDTH 7 0
BBX 6 8 0 0
BITMAP
78
FC
CC
CC
FC
FC
CC
CC
ENDCHAR
STARTCHAR Beta
ENCODING 914
SWIDTH 538 0
DWIDTH 7 0
BBX 6 8 0 0
BITMAP
F8
FC
CC
F8
F8
CC
FC
F8
ENDCHAR
STARTCHAR Gamma
ENCODING 915
SWIDTH 538 0
DWIDTH 7 0
BBX 6 8 0 0
BITMAP
FC
FC
C0
C0
C0
C0
C0
C0
ENDCHAR
STARTCHAR uni0394
ENCODING 916
SWIDTH 538 0
DWIDTH 7 0
BBX 6 8 0 0
BITMAP
30
78
FC
CC
CC
CC
FC
FC
ENDCHAR
STARTCHAR Epsilon
ENCODING 917
SWIDTH 538 0
DWIDTH 7 0
BBX 6 8 0 0
BITMAP
FC
FC
C0
F8
F8
C0
FC
FC
ENDCHAR
STARTCHAR Zeta
ENCODING 918
SWIDTH 538 0
DWIDTH 7 0
BBX 6 8 0 0
BITMAP
FC
FC
0C
7C
F8
C0
FC
FC
ENDCHAR
STARTCHAR Eta
ENCODING 919
SWIDTH 538 0
DWIDTH 7 0
BBX 6 8 0 0
BITMAP
CC
CC
CC
FC
FC
CC
CC
CC
ENDCHAR
STARTCHAR Theta
ENCODING 920
SWIDTH 538 0
DWIDTH 7 0
BBX 6 8 0 0
BITMAP
78
FC
CC
FC
FC
CC
FC
78
ENDCHAR
STARTCHAR Iota
ENCODING 921
SWIDTH 538 0
DWIDTH 7 0
BBX 6 8 0 0
BITMAP
FC
FC
30
30
30
30
FC
FC
ENDCHAR
STARTCHAR Kappa
ENCODING 922
SWIDTH 538 0
DWIDTH 7 0
BBX 6 8 0 0
BITMAP
CC
CC
DC
F8
FC
CC
CC
CC
ENDCHAR
STARTCHAR Lambda
ENCODING 923
SWIDTH 538 0
DWIDTH 7 0
BBX 6 8 0 0
BITMAP
30
78
FC
CC
CC
CC
CC
CC
ENDCHAR
STARTCHAR Mu
ENCODING 924
SWIDTH 538 0
DWIDTH 7 0
BBX 6 8 0 0
BITMAP
CC
FC
FC
FC
CC
CC
CC
CC
ENDCHAR
STARTCHAR Nu
ENCODING 925
SWIDTH 538 0
DWIDTH 7 0
BBX 6 8 0 0
BITMAP
CC
CC
EC
FC
FC
DC
CC
CC
ENDCHAR
STARTCHAR Xi
ENCODING 926
SWIDTH 538 0
DWIDTH 7 0
BBX 6 8 0 0
BITMAP
FC
FC
00
78
78
00
FC
FC
ENDCHAR
STARTCHAR Omicron
ENCODING 927
SWIDTH 538 0
DWIDTH 7 0
BBX 6 8 0 0
BITMAP
78
FC
CC
CC
CC
CC
FC
78
ENDCHAR
STARTCHAR Pi
ENCODING 928
SWIDTH 538 0
DWIDTH 7 0
BBX 6 8 0 0
BITMAP
FC
FC
CC
CC
CC
CC
CC
CC
ENDCHAR
STARTCHAR Rho
ENCODING 929
SWIDTH 538 0
DWIDTH 7 0
BBX 6 8 0 0
BITMAP
F8
FC
CC
CC
FC
F8
C0
C0
ENDCHAR
STARTCHAR Sigma
ENCODING 931
SWIDTH 538 0
DWIDTH 7 0
BBX 6 8 0 0
BITMAP
FC
FC
60
30
30
60
FC
FC
ENDCHAR
STARTCHAR Tau
ENCODING 932
SWIDTH 538 0
DWIDTH 7 0
BBX 6 8 0 0
BITMAP
FC
FC
30
30
30
30
30
30
ENDCHAR
STARTCHAR Upsilon
ENCODING 933
SWIDTH 538 0
DWIDTH 7 0
BBX 6 8 0 0
BITMAP
CC
CC
CC
FC
78
30
30
30
ENDCHAR
STARTCHAR Phi
ENCODING 934
SWIDTH 692 0
DWIDTH 9 0
BBX 8 8 0 0
BITMAP
18
7E
FF
DB
DB
FF
7E
18
ENDCHAR
STARTCHAR Chi
ENCODING 935
SWIDTH 538 0
DWIDTH 7 0
BBX 6 8 0 0
BITMAP
CC
CC
CC
78
78
CC
CC
CC
ENDCHAR
STARTCHAR Psi
ENCODING 936
SWIDTH 692 0
DWIDTH 9 0
BBX 8 8 0 0
BITMAP
DB
DB
DB
FF
7E
18
18
18
ENDCHAR
STARTCHAR uni03A9
ENCODING 937
SWIDTH 615 0
DWIDTH 8 0
BBX 7 8 0 0
BITMAP
7C
FE
C6
C6
C6
EE
6C
EE
ENDCHAR
STARTCHAR alpha
ENCODING 945
SWIDTH 538 0
DWIDTH 7 0
BBX 6 6 0 0
BITMAP
7C
FC
CC
CC
FC
7C
ENDCHAR
STARTCHAR beta
ENCODING 946
SWIDTH 538 0
DWIDTH 7 0
BBX 6 10 0 -2
BITMAP
78
FC
CC
D8
D8
CC
DC
D8
C0
C0
ENDCHAR
STARTCHAR gamma
ENCODING 947
SWIDTH 538 0
DWIDTH 7 0
BBX 6 8 0 -2
BITMAP
CC
CC
CC
CC
FC
78
30
30
ENDCHAR
STARTCHAR delta
ENCODING 948
SWIDTH 538 0
DWIDTH 7 0
BBX 6 8 0 0
BITMAP
7C
FC
C0
78
FC
CC
FC
78
ENDCHAR
STARTCHAR epsilon
ENCODING 949
SWIDTH 538 0
DWIDTH 7 0
BBX 6 6 0 0
BITMAP
7C
FC
78
E0
FC
7C
ENDCHAR
STARTCHAR zeta
ENCODING 950
SWIDTH 538 0
DWIDTH 7 0
BBX 6 10 0 -2
BITMAP
FC
FC
1C
78
F0
C0
F8
7C
0C
0C
ENDCHAR
STARTCHAR eta
ENCODING 951
SWIDTH 538 0
DWIDTH 7 0
BBX 6 8 0 -2
BITMAP
F8
FC
CC
CC
CC
CC
0C
0C
ENDCHAR
STARTCHAR theta
ENCODING 952
SWIDTH 538 0
DWIDTH 7 0
BBX 6 9 0 0
BITMAP
78
FC
CC
CC
FC
CC
CC
FC
78
ENDCHAR
STARTCHAR iota
ENCODING 953
SWIDTH 385 0
DWIDTH 5 0
BBX 4 6 0 0
BITMAP
C0
C0
C0
C0
F0
70
ENDCHAR
STARTCHAR kappa
ENCODING 954
SWIDTH 538 0
DWIDTH 7 0
BBX 6 6 0 0
BITMAP
CC
CC
F8
F8
CC
CC
ENDCHAR
STARTCHAR lambda
ENCODING 955
SWIDTH 538 0
DWIDTH 7 0
BBX 6 8 0 0
BITMAP
C0
E0
70
F8
FC
CC
CC
CC
ENDCHAR
STARTCHAR uni03BC
ENCODING 956
SWIDTH 538 0
DWIDTH 7 0
BBX 6 8 0 -2
BITMAP
CC
CC
CC
CC
FC
F8
C0
C0
ENDCHAR
STARTCHAR nu
ENCODING 957
SWIDTH 538 0
DWIDTH 7 0
BBX 6 6 0 0
BITMAP
CC
CC
CC
CC
78
30
ENDCHAR
STARTCHAR xi
ENCODING 958
SWIDTH 538 0
DWIDTH 7 0
BBX 6 10 0 -2
BITMAP
FC
FC
C0
F0
70
C0
F8
7C
0C
0C
ENDCHAR
STARTCHAR omicron
ENCODING 959
SWIDTH 538 0
DWIDTH 7 0
BBX 6 6 0 0
BITMAP
78
FC
CC
CC
FC
78
ENDCHAR
STARTCHAR pi
ENCODING 960
SWIDTH 538 0
DWIDTH 7 0
BBX 6 6 0 0
BITMAP
FC
FC
CC
CC
CC
CC
ENDCHAR
STARTCHAR rho
ENCODING 961
SWIDTH 538 0
DWIDTH 7 0
BBX 6 8 0 -2
BITMAP
78
FC
CC
CC
FC
F8
C0
C0
ENDCHAR
STARTCHAR sigma1
ENCODING 962
SWIDTH 538 0
DWIDTH 7 0
BBX 6 8 0 -2
BITMAP
7C
FC
C0
C0
F8
7C
0C
0C
ENDCHAR
STARTCHAR sigma
ENCODING 963
SWIDTH 538 0
DWIDTH 7 0
BBX 6 6 0 0
BITMAP
7C
FC
D8
D8
F8
70
ENDCHAR
STARTCHAR tau
ENCODING 964
SWIDTH 538 0
DWIDTH 7 0
BBX 6 6 0 0
BITMAP
FC
FC
30
30
3C
1C
ENDCHAR
STARTCHAR upsilon
ENCODING 965
SWIDTH 538 0
DWIDTH 7 0
BBX 6 6 0 0
BITMAP
CC
CC
CC
CC
FC
78
ENDCHAR
STARTCHAR phi
ENCODING 966
SWIDTH 692 0
DWIDTH 9 0
BBX 8 8 0 -2
BITMAP
CE
DF
DB
DB
FF
7E
18
18
ENDCHAR
STARTCHAR chi
ENCODING 967
SWIDTH 538 0
DWIDTH 7 0
BBX 6 8 0 -2
BITMAP
EC
FC
38
30
30
70
FC
DC
ENDCHAR
STARTCHAR psi
ENCODING 968
SWIDTH 692 0
DWIDTH 9 0
BBX 8 10 0 -2
BITMAP
18
18
DB
DB
DB
DB
FF
7E
18
18
ENDCHAR
STARTCHAR omega
ENCODING 969
SWIDTH 615 0
DWIDTH 8 0
BBX 7 6 0 0
BITMAP
6C
EE
C6
D6
FE
6C
ENDCHAR
STARTCHAR uni03CF
ENCODING 975
SWIDTH 538 0
DWIDTH 7 0
BBX 6 10 0 -2
BITMAP
CC
DC
F8
F8
DC
CC
CC
CC
18
18
ENDCHAR
STARTCHAR uni03D0
ENCODING 976
SWIDTH 538 0
DWIDTH 7 0
BBX 6 8 0 0
BITMAP
70
D8
F0
C0
F8
CC
FC
78
ENDCHAR
STARTCHAR theta1
ENCODING 977
SWIDTH 538 0
DWIDTH 7 0
BBX 6 8 0 0
BITMAP
38
6C
3C
0C
EC
6C
7C
38
ENDCHAR
STARTCHAR phi1
ENCODING 981
SWIDTH 692 0
DWIDTH 9 0
BBX 8 10 0 -2
BITMAP
18
18
7E
FF
DB
DB
FF
7E
18
18
ENDCHAR
STARTCHAR omega1
ENCODING 982
SWIDTH 615 0
DWIDTH 8 0
BBX 7 6 0 0
BITMAP
FE
FE
C6
D6
FE
6C
ENDCHAR
STARTCHAR uni03D7
ENCODING 983
SWIDTH 538 0
DWIDTH 7 0
BBX 6 8 0 -2
BITMAP
CC
CC
F8
F8
CC
CC
18
18
ENDCHAR
STARTCHAR uni03D8
ENCODING 984
SWIDTH 538 0
DWIDTH 7 0
BBX 6 8 0 0
BITMAP
78
FC
CC
CC
FC
78
30
30
ENDCHAR
STARTCHAR uni03D9
ENCODING 985
SWIDTH 538 0
DWIDTH 7 0
BBX 6 8 0 -2
BITMAP
78
FC
CC
CC
FC
78
30
30
ENDCHAR
STARTCHAR uni03DA
ENCODING 986
SWIDTH 538 0
DWIDTH 7 0
BBX 6 8 0 0
BITMAP
7C
FC
C0
C0
F8
78
18
18
ENDCHAR
STARTCHAR uni03DB
ENCODING 987
SWIDTH 538 0
DWIDTH 7 0
BBX 6 8 0 -2
BITMAP
7C
FC
C0
C0
FC
7C
0C
0C
ENDCHAR
STARTCHAR uni03DC
ENCODING 988
SWIDTH 538 0
DWIDTH 7 0
BBX 6 8 0 0
BITMAP
FC
FC
C0
FC
FC
CC
C0
C0
ENDCHAR
STARTCHAR uni03DD
ENCODING 989
SWIDTH 538 0
DWIDTH 7 0
BBX 6 8 0 -2
BITMAP
FC
FC
C0
F8
F8
D8
C0
C0
ENDCHAR
STARTCHAR uni03DE
ENCODING 990
SWIDTH 538 0
DWIDTH 7 0
BBX 6 8 0 0
BITMAP
E0
E0
60
FC
FC
18
1C
1C
ENDCHAR
STARTCHAR uni03DF
ENCODING 991
SWIDTH 538 0
DWIDTH 7 0
BBX 6 10 0 -2
BITMAP
E0
E0
60
C0
FC
FC
0C
18
1C
1C
ENDCHAR
STARTCHAR uni03E0
ENCODING 992
SWIDTH 538 0
DWIDTH 7 0
BBX 6 8 0 0
BITMAP
F8
FC
0C
7C
7C
0C
7C
7C
ENDCHAR
STARTCHAR uni03E1
ENCODING 993
SWIDTH 538 0
DWIDTH 7 0
BBX 6 10 0 -2
BITMAP
F8
FC
0C
7C
7C
0C
7C
7C
0C
0C
ENDCHAR
STARTCHAR uni03F0
ENCODING 1008
SWIDTH 538 0
DWIDTH 7 0
BBX 6 6 0 0
BITMAP
CC
CC
F8
FC
CC
CC
ENDCHAR
STARTCHAR uni03F1
ENCODING 1009
SWIDTH 538 0
DWIDTH 7 0
BBX 6 9 0 -3
BITMAP
78
FC
CC
CC
FC
F8
C0
F8
78
ENDCHAR
STARTCHAR uni03F2
ENCODING 1010
SWIDTH 538 0
DWIDTH 7 0
BBX 6 6 0 0
BITMAP
7C
FC
C0
C0
FC
7C
ENDCHAR
STARTCHAR uni03F4
ENCODING 1012
SWIDTH 538 0
DWIDTH 7 0
BBX 6 8 0 0
BITMAP
78
FC
CC
FC
FC
CC
FC
78
ENDCHAR
STARTCHAR uni03F7
ENCODING 1015
SWIDTH 538 0
DWIDTH 7 0
BBX 6 8 0 0
BITMAP
C0
F8
FC
CC
CC
FC
F8
C0
ENDCHAR
STARTCHAR uni03F8
ENCODING 1016
SWIDTH 538 0
DWIDTH 7 0
BBX 6 10 0 -2
BITMAP
C0
C0
F8
FC
CC
CC
FC
F8
C0
C0
ENDCHAR
STARTCHAR uni0409
ENCODING 1033
SWIDTH 769 0
DWIDTH 10 0
BBX 9 8 0 0
BITMAP
7C00
7C00
6F00
6F80
6D80
6D80
EF80
CF00
ENDCHAR
STARTCHAR uni040A
ENCODING 1034
SWIDTH 692 0
DWIDTH 9 0
BBX 8 8 0 0
BITMAP
D8
D8
DE
FF
FB
DB
DF
DE
ENDCHAR
STARTCHAR uni040B
ENCODING 1035
SWIDTH 615 0
DWIDTH 8 0
BBX 7 8 0 0
BITMAP
F8
F8
60
7C
7E
66
66
66
ENDCHAR
STARTCHAR uni040E
ENCODING 1038
SWIDTH 538 0
DWIDTH 7 0
BBX 6 11 0 0
BITMAP
CC
78
00
CC
CC
CC
FC
7C
0C
FC
F8
ENDCHAR
STARTCHAR uni0410
ENCODING 1040
SWIDTH 538 0
DWIDTH 7 0
BBX 6 8 0 0
BITMAP
78
FC
CC
CC
FC
FC
CC
CC
ENDCHAR
STARTCHAR uni0411
ENCODING 1041
SWIDTH 538 0
DWIDTH 7 0
BBX 6 8 0 0
BITMAP
FC
FC
C0
F8
FC
CC
FC
F8
ENDCHAR
STARTCHAR uni0412
ENCODING 1042
SWIDTH 538 0
DWIDTH 7 0
BBX 6 8 0 0
BITMAP
F8
FC
CC
F8
F8
CC
FC
F8
ENDCHAR
STARTCHAR uni0413
ENCODING 1043
SWIDTH 538 0
DWIDTH 7 0
BBX 6 8 0 0
BITMAP
FC
FC
C0
C0
C0
C0
C0
C0
ENDCHAR
STARTCHAR uni0414
ENCODING 1044
SWIDTH 538 0
DWIDTH 7 0
BBX 6 10 0 -2
BITMAP
3C
7C
6C
6C
6C
6C
FC
FC
CC
CC
ENDCHAR
STARTCHAR uni0415
ENCODING 1045
SWIDTH 538 0
DWIDTH 7 0
BBX 6 8 0 0
BITMAP
FC
FC
C0
F0
F0
C0
FC
FC
ENDCHAR
STARTCHAR uni0416
ENCODING 1046
SWIDTH 692 0
DWIDTH 9 0
BBX 8 8 0 0
BITMAP
DB
DB
DB
7E
FF
DB
DB
DB
ENDCHAR
STARTCHAR uni0417
ENCODING 1047
SWIDTH 538 0
DWIDTH 7 0
BBX 6 8 0 0
BITMAP
F8
FC
0C
78
7C
0C
FC
F8
ENDCHAR
STARTCHAR uni0418
ENCODING 1048
SWIDTH 538 0
DWIDTH 7 0
BBX 6 8 0 0
BITMAP
CC
CC
DC
FC
FC
EC
CC
CC
ENDCHAR
STARTCHAR uni0419
ENCODING 1049
SWIDTH 538 0
DWIDTH 7 0
BBX 6 11 0 0
BITMAP
CC
78
00
CC
CC
DC
FC
FC
EC
CC
CC
ENDCHAR
STARTCHAR uni041A
ENCODING 1050
SWIDTH 538 0
DWIDTH 7 0
BBX 6 8 0 0
BITMAP
CC
CC
CC
F8
FC
CC
CC
CC
ENDCHAR
STARTCHAR uni041B
ENCODING 1051
SWIDTH 538 0
DWIDTH 7 0
BBX 6 8 0 0
BITMAP
7C
7C
6C
6C
6C
6C
EC
CC
ENDCHAR
STARTCHAR uni041C
ENCODING 1052
SWIDTH 538 0
DWIDTH 7 0
BBX 6 8 0 0
BITMAP
CC
FC
FC
CC
CC
CC
CC
CC
ENDCHAR
STARTCHAR uni041D
ENCODING 1053
SWIDTH 538 0
DWIDTH 7 0
BBX 6 8 0 0
BITMAP
CC
CC
CC
FC
FC
CC
CC
CC
ENDCHAR
STARTCHAR uni041E
ENCODING 1054
SWIDTH 538 0
DWIDTH 7 0
BBX 6 8 0 0
BITMAP
78
FC
CC
CC
CC
CC
FC
78
ENDCHAR
STARTCHAR uni041F
ENCODING 1055
SWIDTH 538 0
DWIDTH 7 0
BBX 6 8 0 0
BITMAP
FC
FC
CC
CC
CC
CC
CC
CC
ENDCHAR
STARTCHAR uni0420
ENCODING 1056
SWIDTH 538 0
DWIDTH 7 0
BBX 6 8 0 0
BITMAP
F8
FC
CC
CC
FC
F8
C0
C0
ENDCHAR
STARTCHAR uni0421
ENCODING 1057
SWIDTH 538 0
DWIDTH 7 0
BBX 6 8 0 0
BITMAP
7C
FC
C0
C0
C0
C0
FC
7C
ENDCHAR
STARTCHAR uni0422
ENCODING 1058
SWIDTH 538 0
DWIDTH 7 0
BBX 6 8 0 0
BITMAP
FC
FC
30
30
30
30
30
30
ENDCHAR
STARTCHAR uni0423
ENCODING 1059
SWIDTH 538 0
DWIDTH 7 0
BBX 6 8 0 0
BITMAP
CC
CC
CC
FC
7C
0C
FC
F8
ENDCHAR
STARTCHAR uni0424
ENCODING 1060
SWIDTH 692 0
DWIDTH 9 0
BBX 8 8 0 0
BITMAP
18
7E
FF
DB
DB
FF
7E
18
ENDCHAR
STARTCHAR uni0425
ENCODING 1061
SWIDTH 538 0
DWIDTH 7 0
BBX 6 8 0 0
BITMAP
CC
CC
CC
78
FC
CC
CC
CC
ENDCHAR
STARTCHAR uni0426
ENCODING 1062
SWIDTH 538 0
DWIDTH 7 0
BBX 6 10 0 -2
BITMAP
CC
CC
CC
CC
CC
CC
FC
FC
0C
0C
ENDCHAR
STARTCHAR uni0427
ENCODING 1063
SWIDTH 538 0
DWIDTH 7 0
BBX 6 8 0 0
BITMAP
CC
CC
CC
FC
7C
0C
0C
0C
ENDCHAR
STARTCHAR uni0428
ENCODING 1064
SWIDTH 692 0
DWIDTH 9 0
BBX 8 8 0 0
BITMAP
DB
DB
DB
DB
DB
DB
FF
FF
ENDCHAR
STARTCHAR uni0429
ENCODING 1065
SWIDTH 692 0
DWIDTH 9 0
BBX 8 8 0 0
BITMAP
DB
DB
DB
DB
DB
DB
FF
FF
ENDCHAR
STARTCHAR uni042A
ENCODING 1066
SWIDTH 538 0
DWIDTH 7 0
BBX 6 8 0 0
BITMAP
E0
E0
78
7C
6C
6C
7C
78
ENDCHAR
STARTCHAR uni042B
ENCODING 1067
SWIDTH 615 0
DWIDTH 8 0
BBX 7 8 0 0
BITMAP
C6
C6
F6
FE
DE
DE
FE
F6
ENDCHAR
STARTCHAR uni042C
ENCODING 1068
SWIDTH 538 0
DWIDTH 7 0
BBX 6 8 0 0
BITMAP
C0
C0
F8
FC
CC
CC
FC
F8
ENDCHAR
STARTCHAR uni042D
ENCODING 1069
SWIDTH 538 0
DWIDTH 7 0
BBX 6 8 0 0
BITMAP
F8
FC
0C
7C
7C
0C
FC
F8
ENDCHAR
STARTCHAR uni042E
ENCODING 1070
SWIDTH 692 0
DWIDTH 9 0
BBX 8 8 0 0
BITMAP
CE
DF
DB
FB
FB
DB
DF
CE
ENDCHAR
STARTCHAR uni042F
ENCODING 1071
SWIDTH 538 0
DWIDTH 7 0
BBX 6 8 0 0
BITMAP
7C
FC
CC
CC
7C
FC
CC
CC
ENDCHAR
STARTCHAR uni0430
ENCODING 1072
SWIDTH 538 0
DWIDTH 7 0
BBX 6 6 0 0
BITMAP
7C
FC
CC
CC
FC
7C
ENDCHAR
STARTCHAR uni0431
ENCODING 1073
SWIDTH 538 0
DWIDTH 7 0
BBX 6 9 0 0
BITMAP
18
78
F0
C0
F8
FC
CC
FC
78
ENDCHAR
STARTCHAR uni0432
ENCODING 1074
SWIDTH 538 0
DWIDTH 7 0
BBX 6 6 0 0
BITMAP
F8
FC
D8
EC
FC
F8
ENDCHAR
STARTCHAR uni0433
ENCODING 1075
SWIDTH 538 0
DWIDTH 7 0
BBX 6 6 0 0
BITMAP
FC
FC
C0
C0
C0
C0
ENDCHAR
STARTCHAR uni0434
ENCODING 1076
SWIDTH 538 0
DWIDTH 7 0
BBX 6 9 0 -3
BITMAP
78
FC
CC
CC
FC
7C
0C
FC
F8
ENDCHAR
STARTCHAR uni0435
ENCODING 1077
SWIDTH 538 0
DWIDTH 7 0
BBX 6 6 0 0
BITMAP
78
FC
FC
C0
FC
7C
ENDCHAR
STARTCHAR uni0436
ENCODING 1078
SWIDTH 692 0
DWIDTH 9 0
BBX 8 6 0 0
BITMAP
DB
DB
7E
FF
DB
DB
ENDCHAR
STARTCHAR uni0437
ENCODING 1079
SWIDTH 538 0
DWIDTH 7 0
BBX 6 6 0 0
BITMAP
F8
FC
78
18
FC
F8
ENDCHAR
STARTCHAR uni0438
ENCODING 1080
SWIDTH 538 0
DWIDTH 7 0
BBX 6 6 0 0
BITMAP
CC
DC
FC
FC
EC
CC
ENDCHAR
STARTCHAR uni0439
ENCODING 1081
SWIDTH 538 0
DWIDTH 7 0
BBX 6 9 0 0
BITMAP
CC
78
00
CC
DC
FC
FC
EC
CC
ENDCHAR
STARTCHAR uni043A
ENCODING 1082
SWIDTH 538 0
DWIDTH 7 0
BBX 6 6 0 0
BITMAP
CC
CC
F8
FC
CC
CC
ENDCHAR
STARTCHAR uni043B
ENCODING 1083
SWIDTH 538 0
DWIDTH 7 0
BBX 6 6 0 0
BITMAP
7C
7C
6C
6C
EC
CC
ENDCHAR
STARTCHAR uni043C
ENCODING 1084
SWIDTH 538 0
DWIDTH 7 0
BBX 6 6 0 0
BITMAP
CC
FC
FC
CC
CC
CC
ENDCHAR
STARTCHAR uni043D
ENCODING 1085
SWIDTH 538 0
DWIDTH 7 0
BBX 6 6 0 0
BITMAP
CC
CC
FC
FC
CC
CC
ENDCHAR
STARTCHAR uni043E
ENCODING 1086
SWIDTH 538 0
DWIDTH 7 0
BBX 6 6 0 0
BITMAP
78
FC
CC
CC
FC
78
ENDCHAR
STARTCHAR uni043F
ENCODING 1087
SWIDTH 538 0
DWIDTH 7 0
BBX 6 6 0 0
BITMAP
FC
FC
CC
CC
CC
CC
ENDCHAR
STARTCHAR uni0440
ENCODING 1088
SWIDTH 538 0
DWIDTH 7 0
BBX 6 8 0 -2
BITMAP
F8
FC
CC
CC
FC
F8
C0
C0
ENDCHAR
STARTCHAR uni0441
ENCODING 1089
SWIDTH 538 0
DWIDTH 7 0
BBX 6 6 0 0
BITMAP
7C
FC
C0
C0
FC
7C
ENDCHAR
STARTCHAR uni0442
ENCODING 1090
SWIDTH 538 0
DWIDTH 7 0
BBX 6 6 0 0
BITMAP
FC
FC
30
30
30
30
ENDCHAR
STARTCHAR uni0443
ENCODING 1091
SWIDTH 538 0
DWIDTH 7 0
BBX 6 9 0 -3
BITMAP
CC
CC
CC
CC
FC
7C
0C
FC
F8
ENDCHAR
STARTCHAR uni0444
ENCODING 1092
SWIDTH 692 0
DWIDTH 9 0
BBX 8 10 0 -2
BITMAP
18
18
7E
FF
DB
DB
FF
7E
18
18
ENDCHAR
STARTCHAR uni0445
ENCODING 1093
SWIDTH 538 0
DWIDTH 7 0
BBX 6 6 0 0
BITMAP
CC
FC
78
78
FC
CC
ENDCHAR
STARTCHAR uni0446
ENCODING 1094
SWIDTH 538 0
DWIDTH 7 0
BBX 6 7 0 -1
BITMAP
D8
D8
D8
D8
F8
FC
0C
ENDCHAR
STARTCHAR uni0447
ENCODING 1095
SWIDTH 538 0
DWIDTH 7 0
BBX 6 6 0 0
BITMAP
CC
CC
FC
7C
0C
0C
ENDCHAR
STARTCHAR uni0448
ENCODING 1096
SWIDTH 692 0
DWIDTH 9 0
BBX 8 6 0 0
BITMAP
DB
DB
DB
DB
FF
FF
ENDCHAR
STARTCHAR uni0449
ENCODING 1097
SWIDTH 692 0
DWIDTH 9 0
BBX 8 8 0 -2
BITMAP
DB
DB
DB
DB
FF
FF
03
03
ENDCHAR
STARTCHAR uni044A
ENCODING 1098
SWIDTH 538 0
DWIDTH 7 0
BBX 6 6 0 0
BITMAP
E0
F8
7C
6C
7C
78
ENDCHAR
STARTCHAR uni044B
ENCODING 1099
SWIDTH 615 0
DWIDTH 8 0
BBX 7 6 0 0
BITMAP
C6
F6
FE
DE
FE
F6
ENDCHAR
STARTCHAR uni044C
ENCODING 1100
SWIDTH 462 0
DWIDTH 6 0
BBX 5 6 0 0
BITMAP
C0
F0
F8
D8
F8
F0
ENDCHAR
STARTCHAR uni044D
ENCODING 1101
SWIDTH 538 0
DWIDTH 7 0
BBX 6 6 0 0
BITMAP
F8
FC
3C
0C
FC
F8
ENDCHAR
STARTCHAR uni044E
ENCODING 1102
SWIDTH 692 0
DWIDTH 9 0
BBX 8 6 0 0
BITMAP
CE
DF
FB
FB
DF
CE
ENDCHAR
STARTCHAR uni044F
ENCODING 1103
SWIDTH 538 0
DWIDTH 7 0
BBX 6 6 0 0
BITMAP
7C
FC
CC
7C
FC
CC
ENDCHAR
STARTCHAR uni0451
ENCODING 1105
SWIDTH 538 0
DWIDTH 7 0
BBX 6 9 0 0
BITMAP
CC
CC
00
78
FC
FC
C0
FC
7C
ENDCHAR
STARTCHAR uni0454
ENCODING 1108
SWIDTH 538 0
DWIDTH 7 0
BBX 6 6 0 0
BITMAP
7C
C0
FC
FC
C0
7C
ENDCHAR
STARTCHAR uni0455
ENCODING 1109
SWIDTH 538 0
DWIDTH 7 0
BBX 6 6 0 0
BITMAP
7C
FC
70
38
FC
F8
ENDCHAR
STARTCHAR uni0456
ENCODING 1110
SWIDTH 231 0
DWIDTH 3 0
BBX 2 9 0 0
BITMAP
C0
C0
00
C0
C0
C0
C0
C0
C0
ENDCHAR
STARTCHAR uni0457
ENCODING 1111
SWIDTH 538 0
DWIDTH 7 0
BBX 6 9 0 0
BITMAP
CC
CC
00
30
30
30
30
30
30
ENDCHAR
STARTCHAR uni0458
ENCODING 1112
SWIDTH 231 0
DWIDTH 3 0
BBX 4 12 -2 -3
BITMAP
30
30
00
30
30
30
30
30
30
30
E0
E0
ENDCHAR
STARTCHAR uni045F
ENCODING 1119
SWIDTH 538 0
DWIDTH 7 0
BBX 6 8 0 -2
BITMAP
CC
CC
CC
CC
FC
FC
30
30
ENDCHAR
STARTCHAR uni0460
ENCODING 1120
SWIDTH 692 0
DWIDTH 9 0
BBX 8 8 0 0
BITMAP
DB
DB
DB
DB
DB
DB
FF
76
ENDCHAR
STARTCHAR uni0461
ENCODING 1121
SWIDTH 692 0
DWIDTH 9 0
BBX 8 6 0 0
BITMAP
DB
DB
DB
DB
FF
76
ENDCHAR
STARTCHAR uni0462
ENCODING 1122
SWIDTH 538 0
DWIDTH 7 0
BBX 6 8 0 0
BITMAP
F0
60
78
7C
6C
6C
7C
78
ENDCHAR
STARTCHAR uni0463
ENCODING 1123
SWIDTH 615 0
DWIDTH 8 0
BBX 7 8 0 0
BITMAP
60
F0
60
7C
7E
66
7E
7C
ENDCHAR
STARTCHAR uni046E
ENCODING 1134
SWIDTH 538 0
DWIDTH 7 0
BBX 6 12 0 -3
BITMAP
D8
70
F8
FC
0C
38
3C
0C
7C
F8
E0
60
ENDCHAR
STARTCHAR uni046F
ENCODING 1135
SWIDTH 538 0
DWIDTH 7 0
BBX 6 11 0 -3
BITMAP
D8
70
F8
FC
0C
38
0C
7C
F8
E0
60
ENDCHAR
STARTCHAR uni0472
ENCODING 1138
SWIDTH 538 0
DWIDTH 7 0
BBX 6 8 0 0
BITMAP
78
FC
CC
FC
FC
CC
FC
78
ENDCHAR
STARTCHAR uni0473
ENCODING 1139
SWIDTH 538 0
DWIDTH 7 0
BBX 6 6 0 0
BITMAP
78
CC
FC
FC
CC
78
ENDCHAR
STARTCHAR uni0474
ENCODING 1140
SWIDTH 615 0
DWIDTH 8 0
BBX 7 8 0 0
BITMAP
CE
CE
CC
CC
CC
EC
7C
3C
ENDCHAR
STARTCHAR uni0475
ENCODING 1141
SWIDTH 615 0
DWIDTH 8 0
BBX 7 6 0 0
BITMAP
CE
CE
CC
EC
7C
3C
ENDCHAR
STARTCHAR uni0478
ENCODING 1144
SWIDTH 538 0
DWIDTH 7 0
BBX 6 9 0 0
BITMAP
CC
CC
FC
78
FC
CC
CC
FC
78
ENDCHAR
STARTCHAR uni0479
ENCODING 1145
SWIDTH 538 0
DWIDTH 7 0
BBX 6 10 0 0
BITMAP
0C
CC
CC
FC
78
FC
CC
CC
FC
78
ENDCHAR
STARTCHAR uni047A
ENCODING 1146
SWIDTH 538 0
DWIDTH 7 0
BBX 6 8 0 0
BITMAP
78
FC
DC
CC
CC
EC
FC
78
ENDCHAR
STARTCHAR uni047B
ENCODING 1147
SWIDTH 538 0
DWIDTH 7 0
BBX 6 6 0 0
BITMAP
78
FC
DC
EC
FC
78
ENDCHAR
STARTCHAR uni0490
ENCODING 1168
SWIDTH 538 0
DWIDTH 7 0
BBX 6 10 0 0
BITMAP
0C
0C
FC
FC
C0
C0
C0
C0
C0
C0
ENDCHAR
STARTCHAR uni0491
ENCODING 1169
SWIDTH 538 0
DWIDTH 7 0
BBX 6 8 0 0
BITMAP
0C
0C
FC
FC
C0
C0
C0
C0
ENDCHAR
STARTCHAR uni04D4
ENCODING 1236
SWIDTH 615 0
DWIDTH 8 0
BBX 7 8 0 0
BITMAP
7E
FE
D8
DC
FC
F8
DE
DE
ENDCHAR
STARTCHAR uni04D5
ENCODING 1237
SWIDTH 692 0
DWIDTH 9 0
BBX 8 5 0 0
BITMAP
7E
FF
D8
FF
FF
ENDCHAR
STARTCHAR uni04D8
ENCODING 1240
SWIDTH 538 0
DWIDTH 7 0
BBX 6 8 0 0
BITMAP
F8
FC
0C
FC
FC
CC
FC
78
ENDCHAR
STARTCHAR uni04D9
ENCODING 1241
SWIDTH 538 0
DWIDTH 7 0
BBX 6 6 0 0
BITMAP
F8
FC
0C
FC
FC
78
ENDCHAR
STARTCHAR uni05C0
ENCODING 1472
SWIDTH 231 0
DWIDTH 3 0
BBX 2 10 0 -2
BITMAP
C0
C0
C0
C0
C0
C0
C0
C0
C0
C0
ENDCHAR
STARTCHAR uni05C3
ENCODING 1475
SWIDTH 231 0
DWIDTH 3 0
BBX 2 6 0 0
BITMAP
C0
C0
00
00
C0
C0
ENDCHAR
STARTCHAR uni05C6
ENCODING 1478
SWIDTH 385 0
DWIDTH 5 0
BBX 4 6 0 0
BITMAP
70
F0
C0
C0
F0
F0
ENDCHAR
STARTCHAR uni05D0
ENCODING 1488
SWIDTH 538 0
DWIDTH 7 0
BBX 6 6 0 0
BITMAP
CC
EC
7C
F8
DC
CC
ENDCHAR
STARTCHAR uni05D1
ENCODING 1489
SWIDTH 538 0
DWIDTH 7 0
BBX 6 6 0 0
BITMAP
F0
F8
18
18
FC
FC
ENDCHAR
STARTCHAR uni05D2
ENCODING 1490
SWIDTH 462 0
DWIDTH 6 0
BBX 5 6 0 0
BITMAP
E0
F0
30
30
F8
D8
ENDCHAR
STARTCHAR uni05D3
ENCODING 1491
SWIDTH 538 0
DWIDTH 7 0
BBX 6 6 0 0
BITMAP
FC
FC
18
18
18
18
ENDCHAR
STARTCHAR uni05D4
ENCODING 1492
SWIDTH 538 0
DWIDTH 7 0
BBX 6 6 0 0
BITMAP
F8
FC
0C
CC
CC
CC
ENDCHAR
STARTCHAR uni05D5
ENCODING 1493
SWIDTH 231 0
DWIDTH 3 0
BBX 2 6 0 0
BITMAP
C0
C0
C0
C0
C0
C0
ENDCHAR
STARTCHAR uni05D6
ENCODING 1494
SWIDTH 462 0
DWIDTH 6 0
BBX 5 6 0 0
BITMAP
F8
F8
30
60
60
60
ENDCHAR
STARTCHAR uni05D7
ENCODING 1495
SWIDTH 538 0
DWIDTH 7 0
BBX 6 6 0 0
BITMAP
F8
FC
CC
CC
CC
CC
ENDCHAR
STARTCHAR uni05D8
ENCODING 1496
SWIDTH 538 0
DWIDTH 7 0
BBX 6 6 0 0
BITMAP
D8
DC
CC
CC
FC
78
ENDCHAR
STARTCHAR uni05D9
ENCODING 1497
SWIDTH 231 0
DWIDTH 3 0
BBX 2 4 0 2
BITMAP
C0
C0
C0
80
ENDCHAR
STARTCHAR uni05DA
ENCODING 1498
SWIDTH 538 0
DWIDTH 7 0
BBX 6 8 0 -2
BITMAP
F8
FC
0C
0C
0C
0C
0C
0C
ENDCHAR
STARTCHAR uni05DB
ENCODING 1499
SWIDTH 538 0
DWIDTH 7 0
BBX 6 6 0 0
BITMAP
F8
FC
0C
0C
FC
F8
ENDCHAR
STARTCHAR uni05DC
ENCODING 1500
SWIDTH 538 0
DWIDTH 7 0
BBX 6 8 0 0
BITMAP
C0
C0
FC
FC
0C
1C
38
30
ENDCHAR
STARTCHAR uni05DD
ENCODING 1501
SWIDTH 538 0
DWIDTH 7 0
BBX 6 6 0 0
BITMAP
F8
FC
CC
CC
FC
FC
ENDCHAR
STARTCHAR uni05DE
ENCODING 1502
SWIDTH 538 0
DWIDTH 7 0
BBX 6 6 0 0
BITMAP
D8
FC
EC
CC
DC
DC
ENDCHAR
STARTCHAR uni05DF
ENCODING 1503
SWIDTH 385 0
DWIDTH 5 0
BBX 4 8 0 -2
BITMAP
E0
F0
30
30
30
30
30
30
ENDCHAR
STARTCHAR uni05E0
ENCODING 1504
SWIDTH 385 0
DWIDTH 5 0
BBX 4 6 0 0
BITMAP
E0
F0
30
30
F0
F0
ENDCHAR
STARTCHAR uni05E1
ENCODING 1505
SWIDTH 538 0
DWIDTH 7 0
BBX 6 6 0 0
BITMAP
F8
FC
6C
6C
7C
38
ENDCHAR
STARTCHAR uni05E2
ENCODING 1506
SWIDTH 538 0
DWIDTH 7 0
BBX 6 6 0 0
BITMAP
CC
CC
6C
6C
FC
F8
ENDCHAR
STARTCHAR uni05E3
ENCODING 1507
SWIDTH 538 0
DWIDTH 7 0
BBX 6 8 0 -2
BITMAP
F8
FC
CC
EC
6C
0C
0C
0C
ENDCHAR
STARTCHAR uni05E4
ENCODING 1508
SWIDTH 538 0
DWIDTH 7 0
BBX 6 6 0 0
BITMAP
F8
CC
6C
0C
FC
F8
ENDCHAR
STARTCHAR uni05E5
ENCODING 1509
SWIDTH 538 0
DWIDTH 7 0
BBX 6 8 0 -2
BITMAP
CC
EC
7C
38
30
30
30
30
ENDCHAR
STARTCHAR uni05E6
ENCODING 1510
SWIDTH 538 0
DWIDTH 7 0
BBX 6 6 0 0
BITMAP
CC
EC
7C
38
FC
FC
ENDCHAR
STARTCHAR uni05E7
ENCODING 1511
SWIDTH 538 0
DWIDTH 7 0
BBX 6 8 0 -2
BITMAP
FC
FC
0C
CC
D8
D8
C0
C0
ENDCHAR
STARTCHAR uni05E8
ENCODING 1512
SWIDTH 538 0
DWIDTH 7 0
BBX 6 6 0 0
BITMAP
F8
FC
0C
0C
0C
0C
ENDCHAR
STARTCHAR uni05E9
ENCODING 1513
SWIDTH 692 0
DWIDTH 9 0
BBX 8 6 0 0
BITMAP
DB
FB
FB
C3
FF
FE
ENDCHAR
STARTCHAR uni05EA
ENCODING 1514
SWIDTH 538 0
DWIDTH 7 0
BBX 6 6 0 0
BITMAP
F8
FC
6C
6C
EC
CC
ENDCHAR
STARTCHAR uni05F0
ENCODING 1520
SWIDTH 462 0
DWIDTH 6 0
BBX 5 6 0 0
BITMAP
D8
D8
D8
D8
D8
D8
ENDCHAR
STARTCHAR uni05F1
ENCODING 1521
SWIDTH 462 0
DWIDTH 6 0
BBX 5 6 0 0
BITMAP
D8
D8
D8
98
18
18
ENDCHAR
STARTCHAR uni05F2
ENCODING 1522
SWIDTH 462 0
DWIDTH 6 0
BBX 5 4 0 2
BITMAP
D8
D8
D8
90
ENDCHAR
STARTCHAR dagger
ENCODING 8224
SWIDTH 538 0
DWIDTH 7 0
BBX 6 10 0 -1
BITMAP
30
30
30
FC
FC
30
30
30
30
30
ENDCHAR
STARTCHAR daggerdbl
ENCODING 8225
SWIDTH 538 0
DWIDTH 7 0
BBX 6 10 0 -1
BITMAP
30
30
FC
FC
30
30
FC
FC
30
30
ENDCHAR
STARTCHAR bullet
ENCODING 8226
SWIDTH 385 0
DWIDTH 5 0
BBX 4 4 0 2
BITMAP
60
F0
F0
60
ENDCHAR
STARTCHAR ellipsis
ENCODING 8230
SWIDTH 692 0
DWIDTH 9 0
BBX 8 2 0 0
BITMAP
DB
DB
ENDCHAR
STARTCHAR exclamdbl
ENCODING 8252
SWIDTH 462 0
DWIDTH 6 0
BBX 5 8 0 0
BITMAP
D8
D8
D8
D8
D8
00
D8
D8
ENDCHAR
STARTCHAR uni203D
ENCODING 8253
SWIDTH 538 0
DWIDTH 7 0
BBX 6 8 0 0
BITMAP
F8
FC
6C
7C
78
00
60
60
ENDCHAR
STARTCHAR uni203E
ENCODING 8254
SWIDTH 538 0
DWIDTH 7 0
BBX 6 2 0 6
BITMAP
FC
FC
ENDCHAR
STARTCHAR colonmonetary
ENCODING 8353
SWIDTH 538 0
DWIDTH 7 0
BBX 6 10 0 -1
BITMAP
14
7C
FC
D4
D4
D4
D4
FC
7C
14
ENDCHAR
STARTCHAR franc
ENCODING 8355
SWIDTH 615 0
DWIDTH 8 0
BBX 7 8 0 0
BITMAP
7E
7E
60
7C
7C
60
F8
60
ENDCHAR
STARTCHAR lira
ENCODING 8356
SWIDTH 615 0
DWIDTH 8 0
BBX 7 8 0 0
BITMAP
3E
7E
60
F8
60
F8
60
FE
ENDCHAR
STARTCHAR uni20A6
ENCODING 8358
SWIDTH 692 0
DWIDTH 9 0
BBX 8 8 0 0
BITMAP
7C
7E
66
FF
66
FF
66
66
ENDCHAR
STARTCHAR peseta
ENCODING 8359
SWIDTH 462 0
DWIDTH 6 0
BBX 5 8 0 0
BITMAP
C8
A8
B8
A8
C8
88
88
88
ENDCHAR
STARTCHAR uni20A8
ENCODING 8360
SWIDTH 538 0
DWIDTH 7 0
BBX 6 8 0 0
BITMAP
C0
A0
BC
B0
D8
AC
A4
BC
ENDCHAR
STARTCHAR uni20A9
ENCODING 8361
SWIDTH 692 0
DWIDTH 9 0
BBX 8 8 0 0
BITMAP
66
FF
66
FF
66
7E
7E
66
ENDCHAR
STARTCHAR uni20AA
ENCODING 8362
SWIDTH 615 0
DWIDTH 8 0
BBX 7 8 0 0
BITMAP
F2
8A
AA
AA
AA
AA
A2
BC
ENDCHAR
STARTCHAR dong
ENCODING 8363
SWIDTH 538 0
DWIDTH 7 0
BBX 6 11 0 -3
BITMAP
0C
3C
0C
7C
FC
CC
FC
7C
00
FC
FC
ENDCHAR
STARTCHAR Euro
ENCODING 8364
SWIDTH 538 0
DWIDTH 7 0
BBX 6 8 0 0
BITMAP
3C
7C
E0
78
78
E0
7C
3C
ENDCHAR
STARTCHAR uni20AD
ENCODING 8365
SWIDTH 538 0
DWIDTH 7 0
BBX 6 8 0 0
BITMAP
CC
DC
D8
FC
FC
D8
DC
CC
ENDCHAR
STARTCHAR uni20AE
ENCODING 8366
SWIDTH 538 0
DWIDTH 7 0
BBX 6 8 0 0
BITMAP
FC
FC
30
38
70
38
70
30
ENDCHAR
STARTCHAR uni20B1
ENCODING 8369
SWIDTH 538 0
DWIDTH 7 0
BBX 6 8 0 0
BITMAP
78
FC
6C
FC
78
60
60
60
ENDCHAR
STARTCHAR uni20B2
ENCODING 8370
SWIDTH 538 0
DWIDTH 7 0
BBX 6 10 0 -1
BITMAP
30
7C
FC
C0
C0
CC
CC
FC
7C
30
ENDCHAR
STARTCHAR uni20B3
ENCODING 8371
SWIDTH 615 0
DWIDTH 8 0
BBX 7 8 0 0
BITMAP
38
7C
6C
FE
6C
FE
6C
6C
ENDCHAR
STARTCHAR uni20B4
ENCODING 8372
SWIDTH 538 0
DWIDTH 7 0
BBX 6 8 0 0
BITMAP
F0
F8
18
FC
FC
60
7C
3C
ENDCHAR
STARTCHAR uni20B5
ENCODING 8373
SWIDTH 538 0
DWIDTH 7 0
BBX 6 10 0 -1
BITMAP
18
7C
FC
D8
D8
D8
D8
FC
7C
18
ENDCHAR
STARTCHAR uni20B8
ENCODING 8376
SWIDTH 538 0
DWIDTH 7 0
BBX 6 8 0 0
BITMAP
FC
FC
00
FC
FC
30
30
30
ENDCHAR
STARTCHAR uni20B9
ENCODING 8377
SWIDTH 538 0
DWIDTH 7 0
BBX 6 8 0 0
BITMAP
F0
FC
18
FC
F0
18
18
18
ENDCHAR
STARTCHAR uni20BA
ENCODING 8378
SWIDTH 538 0
DWIDTH 7 0
BBX 6 8 0 0
BITMAP
60
70
E0
70
E0
6C
7C
78
ENDCHAR
STARTCHAR uni20BD
ENCODING 8381
SWIDTH 538 0
DWIDTH 7 0
BBX 6 8 0 0
BITMAP
78
7C
6C
FC
F8
60
F8
60
ENDCHAR
STARTCHAR uni20BF
ENCODING 8383
SWIDTH 538 0
DWIDTH 7 0
BBX 6 10 0 -1
BITMAP
48
FC
FC
CC
F8
F8
CC
FC
FC
48
ENDCHAR
STARTCHAR uni20C0
ENCODING 8384
SWIDTH 538 0
DWIDTH 7 0
BBX 6 8 0 0
BITMAP
7C
FC
C0
FC
7C
00
FC
FC
ENDCHAR
STARTCHAR trademark
ENCODING 8482
SWIDTH 538 0
DWIDTH 7 0
BBX 6 3 0 6
BITMAP
FC
5C
54
ENDCHAR
STARTCHAR aleph
ENCODING 8501
SWIDTH 538 0
DWIDTH 7 0
BBX 6 6 0 0
BITMAP
CC
EC
7C
F8
DC
CC
ENDCHAR
STARTCHAR uni2136
ENCODING 8502
SWIDTH 538 0
DWIDTH 7 0
BBX 6 6 0 0
BITMAP
F0
F8
18
18
FC
FC
ENDCHAR
STARTCHAR uni2137
ENCODING 8503
SWIDTH 462 0
DWIDTH 6 0
BBX 5 6 0 0
BITMAP
E0
F0
30
30
F8
D8
ENDCHAR
STARTCHAR uni2138
ENCODING 8504
SWIDTH 538 0
DWIDTH 7 0
BBX 6 6 0 0
BITMAP
FC
FC
18
18
18
18
ENDCHAR
STARTCHAR radical
ENCODING 8730
SWIDTH 538 0
DWIDTH 7 0
BBX 6 9 0 0
BITMAP
0C
0C
0C
0C
0C
CC
EC
7C
3C
ENDCHAR
STARTCHAR block
ENCODING 9608
SWIDTH 538 0
DWIDTH 7 0
BBX 6 8 0 0
BITMAP
FC
FC
FC
FC
FC
FC
FC
FC
ENDCHAR
STARTCHAR invsmileface
ENCODING 9787
SWIDTH 538 0
DWIDTH 7 0
BBX 6 7 0 0
BITMAP
78
FC
B4
FC
B4
CC
78
ENDCHAR
STARTCHAR uni2E18
ENCODING 11800
SWIDTH 615 0
DWIDTH 8 0
BBX 7 8 0 -3
BITMAP
18
18
00
78
F8
D8
FE
7E
ENDCHAR
STARTCHAR uni3000
ENCODING 12288
SWIDTH 1231 0
DWIDTH 16 0
BBX 1 1 0 0
BITMAP
00
ENDCHAR
STARTCHAR .notdef
ENCODING -1
SWIDTH 77 0
DWIDTH 1 0
BBX 1 1 0 0
BITMAP
00
ENDCHAR
STARTCHAR glyph00001
ENCODING -1
SWIDTH 77 0
DWIDTH 1 0
BBX 1 1 0 0
BITMAP
00
ENDCHAR
ENDFONT
