STARTFONT 2.1
FONT Kubasta-10px
SIZE 10 75 75
FONTBOUNDINGBOX 11 18 -3 -5
STARTPROPERTIES 5
PIXEL_SIZE 10
FONT_ASCENT 13
FONT_DESCENT 5
CHARSET_REGISTRY "ISO10646"
CHARSET_ENCODING "1"
ENDPROPERTIES
CHARS 903
STARTCHAR space
ENCODING 32
SWIDTH 600 0
DWIDTH 6 0
BBX 1 1 0 0
BITMAP
00
ENDCHAR
STARTCHAR exclam
ENCODING 33
SWIDTH 600 0
DWIDTH 6 0
BBX 1 7 2 0
BITMAP
80
80
80
80
80
00
80
ENDCHAR
STARTCHAR quotedbl
ENCODING 34
SWIDTH 600 0
DWIDTH 6 0
BBX 3 3 1 5
BITMAP
A0
A0
A0
ENDCHAR
STARTCHAR numbersign
ENCODING 35
SWIDTH 600 0
DWIDTH 6 0
BBX 5 7 0 0
BITMAP
40
50
F8
50
F8
50
10
ENDCHAR
STARTCHAR dollar
ENCODING 36
SWIDTH 600 0
DWIDTH 6 0
BBX 5 7 0 0
BITMAP
20
78
A0
70
28
F0
20
ENDCHAR
STARTCHAR percent
ENCODING 37
SWIDTH 600 0
DWIDTH 6 0
BBX 5 7 0 0
BITMAP
C8
C8
10
20
40
98
98
ENDCHAR
STARTCHAR ampersand
ENCODING 38
SWIDTH 600 0
DWIDTH 6 0
BBX 5 7 0 0
BITMAP
60
90
90
40
A8
90
68
ENDCHAR
STARTCHAR quotesingle
ENCODING 39
SWIDTH 600 0
DWIDTH 6 0
BBX 1 3 2 5
BITMAP
80
80
80
ENDCHAR
STARTCHAR parenleft
ENCODING 40
SWIDTH 600 0
DWIDTH 6 0
BBX 4 9 1 -1
BITMAP
30
40
80
80
80
80
80
40
30
ENDCHAR
STARTCHAR parenright
ENCODING 41
SWIDTH 600 0
DWIDTH 6 0
BBX 4 9 0 -1
BITMAP
C0
20
10
10
10
10
10
20
C0
ENDCHAR
STARTCHAR asterisk
ENCODING 42
SWIDTH 600 0
DWIDTH 6 0
BBX 5 5 0 2
BITMAP
20
A8
70
A8
20
ENDCHAR
STARTCHAR plus
ENCODING 43
SWIDTH 600 0
DWIDTH 6 0
BBX 5 5 0 1
BITMAP
20
20
F8
20
20
ENDCHAR
STARTCHAR comma
ENCODING 44
SWIDTH 600 0
DWIDTH 6 0
BBX 2 4 1 -2
BITMAP
C0
C0
40
80
ENDCHAR
STARTCHAR hyphen
ENCODING 45
SWIDTH 600 0
DWIDTH 6 0
BBX 5 1 0 3
BITMAP
F8
ENDCHAR
STARTCHAR period
ENCODING 46
SWIDTH 600 0
DWIDTH 6 0
BBX 2 2 1 0
BITMAP
C0
C0
ENDCHAR
STARTCHAR slash
ENCODING 47
SWIDTH 600 0
DWIDTH 6 0
BBX 3 7 1 0
BITMAP
20
20
40
40
40
80
80
ENDCHAR
STARTCHAR zero
ENCODING 48
SWIDTH 600 0
DWIDTH 6 0
BBX 5 7 0 0
BITMAP
70
88
98
A8
C8
88
70
ENDCHAR
STARTCHAR one
ENCODING 49
SWIDTH 600 0
DWIDTH 6 0
BBX 5 7 0 0
BITMAP
20
60
A0
20
20
20
F8
ENDCHAR
STARTCHAR two
ENCODING 50
SWIDTH 600 0
DWIDTH 6 0
BBX 5 7 0 0
BITMAP
70
88
08
10
20
40
F8
ENDCHAR
STARTCHAR three
ENCODING 51
SWIDTH 600 0
DWIDTH 6 0
BBX 5 7 0 0
BITMAP
F8
10
20
70
08
88
70
ENDCHAR
STARTCHAR four
ENCODING 52
SWIDTH 600 0
DWIDTH 6 0
BBX 5 7 0 0
BITMAP
10
20
40
90
F8
10
10
ENDCHAR
STARTCHAR five
ENCODING 53
SWIDTH 600 0
DWIDTH 6 0
BBX 5 7 0 0
BITMAP
F8
80
80
F0
08
88
70
ENDCHAR
STARTCHAR six
ENCODING 54
SWIDTH 600 0
DWIDTH 6 0
BBX 5 7 0 0
BITMAP
30
40
80
F0
88
88
70
ENDCHAR
STARTCHAR seven
ENCODING 55
SWIDTH 600 0
DWIDTH 6 0
BBX 5 7 0 0
BITMAP
F8
08
08
10
10
20
20
ENDCHAR
STARTCHAR eight
ENCODING 56
SWIDTH 600 0
DWIDTH 6 0
BBX 5 7 0 0
BITMAP
70
88
88
70
88
88
70
ENDCHAR
STARTCHAR nine
ENCODING 57
SWIDTH 600 0
DWIDTH 6 0
BBX 5 7 0 0
BITMAP
70
88
88
78
08
10
60
ENDCHAR
STARTCHAR colon
ENCODING 58
SWIDTH 600 0
DWIDTH 6 0
BBX 2 5 1 0
BITMAP
C0
C0
00
C0
C0
ENDCHAR
STARTCHAR semicolon
ENCODING 59
SWIDTH 600 0
DWIDTH 6 0
BBX 2 7 1 -2
BITMAP
C0
C0
00
C0
C0
40
80
ENDCHAR
STARTCHAR less
ENCODING 60
SWIDTH 600 0
DWIDTH 6 0
BBX 5 5 0 1
BITMAP
18
60
80
60
18
ENDCHAR
STARTCHAR equal
ENCODING 61
SWIDTH 600 0
DWIDTH 6 0
BBX 3 3 1 2
BITMAP
E0
00
E0
ENDCHAR
STARTCHAR greater
ENCODING 62
SWIDTH 600 0
DWIDTH 6 0
BBX 5 5 0 1
BITMAP
C0
30
08
30
C0
ENDCHAR
STARTCHAR question
ENCODING 63
SWIDTH 600 0
DWIDTH 6 0
BBX 5 7 0 0
BITMAP
70
88
08
10
20
00
20
ENDCHAR
STARTCHAR at
ENCODING 64
SWIDTH 600 0
DWIDTH 6 0
BBX 5 7 0 0
BITMAP
78
88
B8
A8
B8
80
78
ENDCHAR
STARTCHAR A
ENCODING 65
SWIDTH 600 0
DWIDTH 6 0
BBX 5 7 0 0
BITMAP
70
88
88
F8
88
88
88
ENDCHAR
STARTCHAR B
ENCODING 66
SWIDTH 600 0
DWIDTH 6 0
BBX 5 7 0 0
BITMAP
E0
90
90
F0
88
88
F0
ENDCHAR
STARTCHAR C
ENCODING 67
SWIDTH 600 0
DWIDTH 6 0
BBX 5 7 0 0
BITMAP
70
88
80
80
80
80
78
ENDCHAR
STARTCHAR D
ENCODING 68
SWIDTH 600 0
DWIDTH 6 0
BBX 5 7 0 0
BITMAP
E0
90
88
88
88
90
E0
ENDCHAR
STARTCHAR E
ENCODING 69
SWIDTH 600 0
DWIDTH 6 0
BBX 5 7 0 0
BITMAP
F8
80
80
F0
80
80
F8
ENDCHAR
STARTCHAR F
ENCODING 70
SWIDTH 600 0
DWIDTH 6 0
BBX 5 7 0 0
BITMAP
F8
80
80
F0
80
80
80
ENDCHAR
STARTCHAR G
ENCODING 71
SWIDTH 600 0
DWIDTH 6 0
BBX 5 7 0 0
BITMAP
70
88
80
B8
88
88
78
ENDCHAR
STARTCHAR H
ENCODING 72
SWIDTH 600 0
DWIDTH 6 0
BBX 5 7 0 0
BITMAP
88
88
88
F8
88
88
88
ENDCHAR
STARTCHAR I
ENCODING 73
SWIDTH 600 0
DWIDTH 6 0
BBX 5 7 0 0
BITMAP
F8
20
20
20
20
20
F8
ENDCHAR
STARTCHAR J
ENCODING 74
SWIDTH 600 0
DWIDTH 6 0
BBX 5 7 0 0
BITMAP
F8
08
08
08
08
88
70
ENDCHAR
STARTCHAR K
ENCODING 75
SWIDTH 600 0
DWIDTH 6 0
BBX 5 7 0 0
BITMAP
88
90
A0
D0
88
88
88
ENDCHAR
STARTCHAR L
ENCODING 76
SWIDTH 600 0
DWIDTH 6 0
BBX 5 7 0 0
BITMAP
80
80
80
80
80
80
F8
ENDCHAR
STARTCHAR M
ENCODING 77
SWIDTH 600 0
DWIDTH 6 0
BBX 5 7 0 0
BITMAP
88
D8
A8
A8
88
88
88
ENDCHAR
STARTCHAR N
ENCODING 78
SWIDTH 600 0
DWIDTH 6 0
BBX 5 7 0 0
BITMAP
88
88
C8
A8
98
88
88
ENDCHAR
STARTCHAR O
ENCODING 79
SWIDTH 600 0
DWIDTH 6 0
BBX 5 7 0 0
BITMAP
70
88
88
88
88
88
70
ENDCHAR
STARTCHAR P
ENCODING 80
SWIDTH 600 0
DWIDTH 6 0
BBX 5 7 0 0
BITMAP
F0
88
88
F0
80
80
80
ENDCHAR
STARTCHAR Q
ENCODING 81
SWIDTH 600 0
DWIDTH 6 0
BBX 5 7 0 0
BITMAP
70
88
88
88
A8
90
68
ENDCHAR
STARTCHAR R
ENCODING 82
SWIDTH 600 0
DWIDTH 6 0
BBX 5 7 0 0
BITMAP
F0
88
88
F0
90
88
88
ENDCHAR
STARTCHAR S
ENCODING 83
SWIDTH 600 0
DWIDTH 6 0
BBX 5 7 0 0
BITMAP
70
88
80
70
08
88
70
ENDCHAR
STARTCHAR T
ENCODING 84
SWIDTH 600 0
DWIDTH 6 0
BBX 5 7 0 0
BITMAP
F8
20
20
20
20
20
20
ENDCHAR
STARTCHAR U
ENCODING 85
SWIDTH 600 0
DWIDTH 6 0
BBX 5 7 0 0
BITMAP
88
88
88
88
88
98
68
ENDCHAR
STARTCHAR V
ENCODING 86
SWIDTH 600 0
DWIDTH 6 0
BBX 5 7 0 0
BITMAP
88
88
88
50
50
50
20
ENDCHAR
STARTCHAR W
ENCODING 87
SWIDTH 600 0
DWIDTH 6 0
BBX 5 7 0 0
BITMAP
88
88
A8
A8
A8
50
50
ENDCHAR
STARTCHAR X
ENCODING 88
SWIDTH 600 0
DWIDTH 6 0
BBX 5 7 0 0
BITMAP
88
88
50
20
50
88
88
ENDCHAR
STARTCHAR Y
ENCODING 89
SWIDTH 600 0
DWIDTH 6 0
BBX 5 7 0 0
BITMAP
88
88
88
50
20
20
20
ENDCHAR
STARTCHAR Z
ENCODING 90
SWIDTH 600 0
DWIDTH 6 0
BBX 5 7 0 0
BITMAP
F8
08
10
20
40
80
F8
ENDCHAR
STARTCHAR bracketleft
ENCODING 91
SWIDTH 600 0
DWIDTH 6 0
BBX 4 9 1 -1
BITMAP
F0
80
80
80
80
80
80
80
F0
ENDCHAR
STARTCHAR backslash
ENCODING 92
SWIDTH 600 0
DWIDTH 6 0
BBX 3 7 1 0
BITMAP
80
80
40
40
40
20
20
ENDCHAR
STARTCHAR bracketright
ENCODING 93
SWIDTH 600 0
DWIDTH 6 0
BBX 4 9 0 -1
BITMAP
F0
10
10
10
10
10
10
10
F0
ENDCHAR
STARTCHAR asciicircum
ENCODING 94
SWIDTH 600 0
DWIDTH 6 0
BBX 5 3 0 6
BITMAP
20
50
88
ENDCHAR
STARTCHAR underscore
ENCODING 95
SWIDTH 600 0
DWIDTH 6 0
BBX 5 1 0 -1
BITMAP
F8
ENDCHAR
STARTCHAR grave
ENCODING 96
SWIDTH 600 0
DWIDTH 6 0
BBX 3 2 1 8
BITMAP
C0
20
ENDCHAR
STARTCHAR a
ENCODING 97
SWIDTH 600 0
DWIDTH 6 0
BBX 5 5 0 0
BITMAP
78
88
88
98
68
ENDCHAR
STARTCHAR b
ENCODING 98
SWIDTH 600 0
DWIDTH 6 0
BBX 5 7 0 0
BITMAP
80
80
B0
C8
88
88
F0
ENDCHAR
STARTCHAR c
ENCODING 99
SWIDTH 600 0
DWIDTH 6 0
BBX 5 5 0 0
BITMAP
70
88
80
80
78
ENDCHAR
STARTCHAR d
ENCODING 100
SWIDTH 600 0
DWIDTH 6 0
BBX 5 7 0 0
BITMAP
08
08
78
88
88
98
68
ENDCHAR
STARTCHAR e
ENCODING 101
SWIDTH 600 0
DWIDTH 6 0
BBX 5 5 0 0
BITMAP
70
88
F8
80
78
ENDCHAR
STARTCHAR f
ENCODING 102
SWIDTH 600 0
DWIDTH 6 0
BBX 5 7 0 0
BITMAP
30
48
40
F0
40
40
40
ENDCHAR
STARTCHAR g
ENCODING 103
SWIDTH 600 0
DWIDTH 6 0
BBX 5 8 0 -3
BITMAP
78
88
88
98
68
08
88
70
ENDCHAR
STARTCHAR h
ENCODING 104
SWIDTH 600 0
DWIDTH 6 0
BBX 5 7 0 0
BITMAP
80
80
B0
C8
88
88
88
ENDCHAR
STARTCHAR i
ENCODING 105
SWIDTH 600 0
DWIDTH 6 0
BBX 5 7 0 0
BITMAP
20
00
E0
20
20
20
F8
ENDCHAR
STARTCHAR j
ENCODING 106
SWIDTH 600 0
DWIDTH 6 0
BBX 5 10 0 -3
BITMAP
08
00
38
48
08
08
08
08
88
70
ENDCHAR
STARTCHAR k
ENCODING 107
SWIDTH 600 0
DWIDTH 6 0
BBX 5 7 0 0
BITMAP
80
80
98
A0
D0
88
88
ENDCHAR
STARTCHAR l
ENCODING 108
SWIDTH 600 0
DWIDTH 6 0
BBX 5 7 0 0
BITMAP
C0
40
40
40
40
48
30
ENDCHAR
STARTCHAR m
ENCODING 109
SWIDTH 600 0
DWIDTH 6 0
BBX 5 5 0 0
BITMAP
D0
A8
A8
A8
A8
ENDCHAR
STARTCHAR n
ENCODING 110
SWIDTH 600 0
DWIDTH 6 0
BBX 5 5 0 0
BITMAP
B0
C8
88
88
88
ENDCHAR
STARTCHAR o
ENCODING 111
SWIDTH 600 0
DWIDTH 6 0
BBX 5 5 0 0
BITMAP
70
88
88
88
70
ENDCHAR
STARTCHAR p
ENCODING 112
SWIDTH 600 0
DWIDTH 6 0
BBX 5 8 0 -3
BITMAP
B0
C8
88
88
F0
80
80
80
ENDCHAR
STARTCHAR q
ENCODING 113
SWIDTH 600 0
DWIDTH 6 0
BBX 5 8 0 -3
BITMAP
78
88
88
98
68
08
08
08
ENDCHAR
STARTCHAR r
ENCODING 114
SWIDTH 600 0
DWIDTH 6 0
BBX 5 5 0 0
BITMAP
B0
C8
80
80
80
ENDCHAR
STARTCHAR s
ENCODING 115
SWIDTH 600 0
DWIDTH 6 0
BBX 5 5 0 0
BITMAP
78
80
70
08
F0
ENDCHAR
STARTCHAR t
ENCODING 116
SWIDTH 600 0
DWIDTH 6 0
BBX 5 7 0 0
BITMAP
40
40
F0
40
40
48
30
ENDCHAR
STARTCHAR u
ENCODING 117
SWIDTH 600 0
DWIDTH 6 0
BBX 5 5 0 0
BITMAP
88
88
88
98
68
ENDCHAR
STARTCHAR v
ENCODING 118
SWIDTH 600 0
DWIDTH 6 0
BBX 5 5 0 0
BITMAP
88
88
50
50
20
ENDCHAR
STARTCHAR w
ENCODING 119
SWIDTH 600 0
DWIDTH 6 0
BBX 5 5 0 0
BITMAP
88
A8
A8
50
50
ENDCHAR
STARTCHAR x
ENCODING 120
SWIDTH 600 0
DWIDTH 6 0
BBX 5 5 0 0
BITMAP
88
50
20
50
88
ENDCHAR
STARTCHAR y
ENCODING 121
SWIDTH 600 0
DWIDTH 6 0
BBX 5 8 0 -3
BITMAP
88
88
88
98
68
08
88
70
ENDCHAR
STARTCHAR z
ENCODING 122
SWIDTH 600 0
DWIDTH 6 0
BBX 5 5 0 0
BITMAP
F8
10
20
40
F8
ENDCHAR
STARTCHAR braceleft
ENCODING 123
SWIDTH 600 0
DWIDTH 6 0
BBX 4 9 1 -1
BITMAP
30
40
40
40
80
40
40
40
30
ENDCHAR
STARTCHAR bar
ENCODING 124
SWIDTH 600 0
DWIDTH 6 0
BBX 1 9 2 -1
BITMAP
80
80
80
80
80
80
80
80
80
ENDCHAR
STARTCHAR braceright
ENCODING 125
SWIDTH 600 0
DWIDTH 6 0
BBX 4 9 0 -1
BITMAP
C0
20
20
20
10
20
20
20
C0
ENDCHAR
STARTCHAR asciitilde
ENCODING 126
SWIDTH 600 0
DWIDTH 6 0
BBX 5 3 0 2
BITMAP
48
A8
90
ENDCHAR
STARTCHAR exclamdown
ENCODING 161
SWIDTH 600 0
DWIDTH 6 0
BBX 1 7 2 0
BITMAP
80
00
80
80
80
80
80
ENDCHAR
STARTCHAR cent
ENCODING 162
SWIDTH 600 0
DWIDTH 6 0
BBX 5 7 0 0
BITMAP
20
70
A8
A0
A8
70
20
ENDCHAR
STARTCHAR sterling
ENCODING 163
SWIDTH 600 0
DWIDTH 6 0
BBX 5 7 0 0
BITMAP
30
48
40
F0
40
80
F8
ENDCHAR
STARTCHAR currency
ENCODING 164
SWIDTH 600 0
DWIDTH 6 0
BBX 5 5 0 1
BITMAP
88
70
50
70
88
ENDCHAR
STARTCHAR yen
ENCODING 165
SWIDTH 600 0
DWIDTH 6 0
BBX 5 7 0 0
BITMAP
88
50
20
70
20
70
20
ENDCHAR
STARTCHAR brokenbar
ENCODING 166
SWIDTH 600 0
DWIDTH 6 0
BBX 1 9 2 -1
BITMAP
80
80
80
80
00
80
80
80
80
ENDCHAR
STARTCHAR section
ENCODING 167
SWIDTH 600 0
DWIDTH 6 0
BBX 5 9 0 -1
BITMAP
70
88
40
B0
88
68
10
88
70
ENDCHAR
STARTCHAR dieresis
ENCODING 168
SWIDTH 600 0
DWIDTH 6 0
BBX 3 1 1 8
BITMAP
A0
ENDCHAR
STARTCHAR copyright
ENCODING 169
SWIDTH 600 0
DWIDTH 6 0
BBX 7 7 -1 0
BITMAP
38
44
BA
A2
BA
44
38
ENDCHAR
STARTCHAR ordfeminine
ENCODING 170
SWIDTH 600 0
DWIDTH 6 0
BBX 3 4 1 5
BITMAP
40
A0
E0
A0
ENDCHAR
STARTCHAR guillemotleft
ENCODING 171
SWIDTH 600 0
DWIDTH 6 0
BBX 5 5 0 0
BITMAP
28
50
A0
50
28
ENDCHAR
STARTCHAR logicalnot
ENCODING 172
SWIDTH 600 0
DWIDTH 6 0
BBX 5 2 0 2
BITMAP
F8
08
ENDCHAR
STARTCHAR uniAD
ENCODING 173
SWIDTH 600 0
DWIDTH 6 0
BBX 3 1 1 3
BITMAP
E0
ENDCHAR
STARTCHAR registered
ENCODING 174
SWIDTH 600 0
DWIDTH 6 0
BBX 7 7 -1 0
BITMAP
38
44
BA
B2
AA
44
38
ENDCHAR
STARTCHAR macron
ENCODING 175
SWIDTH 600 0
DWIDTH 6 0
BBX 3 1 1 8
BITMAP
E0
ENDCHAR
STARTCHAR degree
ENCODING 176
SWIDTH 600 0
DWIDTH 6 0
BBX 3 3 1 6
BITMAP
40
A0
40
ENDCHAR
STARTCHAR plusminus
ENCODING 177
SWIDTH 600 0
DWIDTH 6 0
BBX 5 5 0 1
BITMAP
20
F8
20
00
F8
ENDCHAR
STARTCHAR uniB2
ENCODING 178
SWIDTH 600 0
DWIDTH 6 0
BBX 3 4 1 5
BITMAP
C0
20
40
E0
ENDCHAR
STARTCHAR uniB3
ENCODING 179
SWIDTH 600 0
DWIDTH 6 0
BBX 3 4 1 5
BITMAP
E0
60
20
E0
ENDCHAR
STARTCHAR acute
ENCODING 180
SWIDTH 600 0
DWIDTH 6 0
BBX 3 2 1 8
BITMAP
60
80
ENDCHAR
STARTCHAR mu
ENCODING 181
SWIDTH 600 0
DWIDTH 6 0
BBX 5 8 0 -3
BITMAP
88
88
88
C8
B0
80
80
80
ENDCHAR
STARTCHAR paragraph
ENCODING 182
SWIDTH 600 0
DWIDTH 6 0
BBX 5 7 0 0
BITMAP
78
E8
E8
68
28
28
28
ENDCHAR
STARTCHAR periodcentered
ENCODING 183
SWIDTH 600 0
DWIDTH 6 0
BBX 1 1 2 3
BITMAP
80
ENDCHAR
STARTCHAR cedilla
ENCODING 184
SWIDTH 600 0
DWIDTH 6 0
BBX 3 3 1 -3
BITMAP
40
20
C0
ENDCHAR
STARTCHAR uniB9
ENCODING 185
SWIDTH 600 0
DWIDTH 6 0
BBX 3 4 1 5
BITMAP
40
C0
40
E0
ENDCHAR
STARTCHAR ordmasculine
ENCODING 186
SWIDTH 600 0
DWIDTH 6 0
BBX 3 3 1 6
BITMAP
E0
A0
E0
ENDCHAR
STARTCHAR guillemotright
ENCODING 187
SWIDTH 600 0
DWIDTH 6 0
BBX 5 5 0 0
BITMAP
A0
50
28
50
A0
ENDCHAR
STARTCHAR onequarter
ENCODING 188
SWIDTH 600 0
DWIDTH 6 0
BBX 9 9 -2 -1
BITMAP
4080
C100
4200
E400
0800
1280
2280
4380
8080
ENDCHAR
STARTCHAR onehalf
ENCODING 189
SWIDTH 600 0
DWIDTH 6 0
BBX 9 9 -2 -1
BITMAP
4080
C100
4200
E400
0800
1380
2080
4100
8380
ENDCHAR
STARTCHAR threequarters
ENCODING 190
SWIDTH 600 0
DWIDTH 6 0
BBX 9 9 -2 -1
BITMAP
E080
6100
2200
E400
0800
1280
2280
4380
8080
ENDCHAR
STARTCHAR questiondown
ENCODING 191
SWIDTH 600 0
DWIDTH 6 0
BBX 5 7 0 0
BITMAP
20
00
20
40
80
88
70
ENDCHAR
STARTCHAR Agrave
ENCODING 192
SWIDTH 600 0
DWIDTH 6 0
BBX 5 10 0 0
BITMAP
60
10
00
70
88
88
F8
88
88
88
ENDCHAR
STARTCHAR Aacute
ENCODING 193
SWIDTH 600 0
DWIDTH 6 0
BBX 5 10 0 0
BITMAP
30
40
00
70
88
88
F8
88
88
88
ENDCHAR
STARTCHAR Acircumflex
ENCODING 194
SWIDTH 600 0
DWIDTH 6 0
BBX 5 10 0 0
BITMAP
20
50
00
70
88
88
F8
88
88
88
ENDCHAR
STARTCHAR Atilde
ENCODING 195
SWIDTH 600 0
DWIDTH 6 0
BBX 5 10 0 0
BITMAP
28
50
00
70
88
88
F8
88
88
88
ENDCHAR
STARTCHAR Adieresis
ENCODING 196
SWIDTH 600 0
DWIDTH 6 0
BBX 5 9 0 0
BITMAP
50
00
70
88
88
F8
88
88
88
ENDCHAR
STARTCHAR Aring
ENCODING 197
SWIDTH 600 0
DWIDTH 6 0
BBX 5 10 0 0
BITMAP
20
50
20
70
88
88
F8
88
88
88
ENDCHAR
STARTCHAR AE
ENCODING 198
SWIDTH 600 0
DWIDTH 6 0
BBX 5 7 0 0
BITMAP
78
A0
A0
F8
A0
A0
B8
ENDCHAR
STARTCHAR Ccedilla
ENCODING 199
SWIDTH 600 0
DWIDTH 6 0
BBX 5 10 0 -3
BITMAP
70
88
80
80
80
80
78
20
10
60
ENDCHAR
STARTCHAR Egrave
ENCODING 200
SWIDTH 600 0
DWIDTH 6 0
BBX 5 10 0 0
BITMAP
60
10
00
F8
80
80
F0
80
80
F8
ENDCHAR
STARTCHAR Eacute
ENCODING 201
SWIDTH 600 0
DWIDTH 6 0
BBX 5 10 0 0
BITMAP
30
40
00
F8
80
80
F0
80
80
F8
ENDCHAR
STARTCHAR Ecircumflex
ENCODING 202
SWIDTH 600 0
DWIDTH 6 0
BBX 5 10 0 0
BITMAP
20
50
00
F8
80
80
F0
80
80
F8
ENDCHAR
STARTCHAR Edieresis
ENCODING 203
SWIDTH 600 0
DWIDTH 6 0
BBX 5 9 0 0
BITMAP
50
00
F8
80
80
F0
80
80
F8
ENDCHAR
STARTCHAR Igrave
ENCODING 204
SWIDTH 600 0
DWIDTH 6 0
BBX 5 10 0 0
BITMAP
60
10
00
F8
20
20
20
20
20
F8
ENDCHAR
STARTCHAR Iacute
ENCODING 205
SWIDTH 600 0
DWIDTH 6 0
BBX 5 10 0 0
BITMAP
30
40
00
F8
20
20
20
20
20
F8
ENDCHAR
STARTCHAR Icircumflex
ENCODING 206
SWIDTH 600 0
DWIDTH 6 0
BBX 5 10 0 0
BITMAP
20
50
00
F8
20
20
20
20
20
F8
ENDCHAR
STARTCHAR Idieresis
ENCODING 207
SWIDTH 600 0
DWIDTH 6 0
BBX 5 9 0 0
BITMAP
50
00
F8
20
20
20
20
20
F8
ENDCHAR
STARTCHAR Eth
ENCODING 208
SWIDTH 600 0
DWIDTH 6 0
BBX 6 7 -1 0
BITMAP
70
48
44
F4
44
48
70
ENDCHAR
STARTCHAR Ntilde
ENCODING 209
SWIDTH 600 0
DWIDTH 6 0
BBX 5 10 0 0
BITMAP
28
50
00
88
88
C8
A8
98
88
88
ENDCHAR
STARTCHAR Ograve
ENCODING 210
SWIDTH 600 0
DWIDTH 6 0
BBX 5 10 0 0
BITMAP
60
10
00
70
88
88
88
88
88
70
ENDCHAR
STARTCHAR Oacute
ENCODING 211
SWIDTH 600 0
DWIDTH 6 0
BBX 5 10 0 0
BITMAP
30
40
00
70
88
88
88
88
88
70
ENDCHAR
STARTCHAR Ocircumflex
ENCODING 212
SWIDTH 600 0
DWIDTH 6 0
BBX 5 10 0 0
BITMAP
20
50
00
70
88
88
88
88
88
70
ENDCHAR
STARTCHAR Otilde
ENCODING 213
SWIDTH 600 0
DWIDTH 6 0
BBX 5 10 0 0
BITMAP
28
50
00
70
88
88
88
88
88
70
ENDCHAR
STARTCHAR Odieresis
ENCODING 214
SWIDTH 600 0
DWIDTH 6 0
BBX 5 9 0 0
BITMAP
50
00
70
88
88
88
88
88
70
ENDCHAR
STARTCHAR multiply
ENCODING 215
SWIDTH 600 0
DWIDTH 6 0
BBX 5 5 0 1
BITMAP
88
50
20
50
88
ENDCHAR
STARTCHAR Oslash
ENCODING 216
SWIDTH 600 0
DWIDTH 6 0
BBX 5 7 0 0
BITMAP
68
90
A8
A8
A8
48
B0
ENDCHAR
STARTCHAR Ugrave
ENCODING 217
SWIDTH 600 0
DWIDTH 6 0
BBX 5 10 0 0
BITMAP
60
10
00
88
88
88
88
88
98
68
ENDCHAR
STARTCHAR Uacute
ENCODING 218
SWIDTH 600 0
DWIDTH 6 0
BBX 5 10 0 0
BITMAP
30
40
00
88
88
88
88
88
98
68
ENDCHAR
STARTCHAR Ucircumflex
ENCODING 219
SWIDTH 600 0
DWIDTH 6 0
BBX 5 10 0 0
BITMAP
20
50
00
88
88
88
88
88
98
68
ENDCHAR
STARTCHAR Udieresis
ENCODING 220
SWIDTH 600 0
DWIDTH 6 0
BBX 5 9 0 0
BITMAP
50
00
88
88
88
88
88
98
68
ENDCHAR
STARTCHAR Yacute
ENCODING 221
SWIDTH 600 0
DWIDTH 6 0
BBX 5 10 0 0
BITMAP
30
40
00
88
88
88
50
20
20
20
ENDCHAR
STARTCHAR Thorn
ENCODING 222
SWIDTH 600 0
DWIDTH 6 0
BBX 5 6 0 1
BITMAP
80
F0
88
88
F0
80
ENDCHAR
STARTCHAR germandbls
ENCODING 223
SWIDTH 600 0
DWIDTH 6 0
BBX 5 8 0 -1
BITMAP
60
90
90
B0
88
88
B0
80
ENDCHAR
STARTCHAR agrave
ENCODING 224
SWIDTH 600 0
DWIDTH 6 0
BBX 5 8 0 0
BITMAP
60
10
00
78
88
88
98
68
ENDCHAR
STARTCHAR aacute
ENCODING 225
SWIDTH 600 0
DWIDTH 6 0
BBX 5 8 0 0
BITMAP
30
40
00
78
88
88
98
68
ENDCHAR
STARTCHAR acircumflex
ENCODING 226
SWIDTH 600 0
DWIDTH 6 0
BBX 5 8 0 0
BITMAP
20
50
00
78
88
88
98
68
ENDCHAR
STARTCHAR atilde
ENCODING 227
SWIDTH 600 0
DWIDTH 6 0
BBX 5 8 0 0
BITMAP
28
50
00
78
88
88
98
68
ENDCHAR
STARTCHAR adieresis
ENCODING 228
SWIDTH 600 0
DWIDTH 6 0
BBX 5 7 0 0
BITMAP
50
00
78
88
88
98
68
ENDCHAR
STARTCHAR aring
ENCODING 229
SWIDTH 600 0
DWIDTH 6 0
BBX 5 9 0 0
BITMAP
20
50
20
00
78
88
88
98
68
ENDCHAR
STARTCHAR ae
ENCODING 230
SWIDTH 600 0
DWIDTH 6 0
BBX 5 5 0 0
BITMAP
F0
28
F8
A0
F8
ENDCHAR
STARTCHAR ccedilla
ENCODING 231
SWIDTH 600 0
DWIDTH 6 0
BBX 5 8 0 -3
BITMAP
70
88
80
80
78
20
10
60
ENDCHAR
STARTCHAR egrave
ENCODING 232
SWIDTH 600 0
DWIDTH 6 0
BBX 5 8 0 0
BITMAP
60
10
00
70
88
F8
80
78
ENDCHAR
STARTCHAR eacute
ENCODING 233
SWIDTH 600 0
DWIDTH 6 0
BBX 5 8 0 0
BITMAP
30
40
00
70
88
F8
80
78
ENDCHAR
STARTCHAR ecircumflex
ENCODING 234
SWIDTH 600 0
DWIDTH 6 0
BBX 5 8 0 0
BITMAP
20
50
00
70
88
F8
80
78
ENDCHAR
STARTCHAR edieresis
ENCODING 235
SWIDTH 600 0
DWIDTH 6 0
BBX 5 7 0 0
BITMAP
50
00
70
88
F8
80
78
ENDCHAR
STARTCHAR igrave
ENCODING 236
SWIDTH 600 0
DWIDTH 6 0
BBX 5 8 0 0
BITMAP
60
10
00
E0
20
20
20
F8
ENDCHAR
STARTCHAR iacute
ENCODING 237
SWIDTH 600 0
DWIDTH 6 0
BBX 5 8 0 0
BITMAP
30
40
00
E0
20
20
20
F8
ENDCHAR
STARTCHAR icircumflex
ENCODING 238
SWIDTH 600 0
DWIDTH 6 0
BBX 5 8 0 0
BITMAP
20
50
00
E0
20
20
20
F8
ENDCHAR
STARTCHAR idieresis
ENCODING 239
SWIDTH 600 0
DWIDTH 6 0
BBX 5 7 0 0
BITMAP
50
00
E0
20
20
20
F8
ENDCHAR
STARTCHAR eth
ENCODING 240
SWIDTH 600 0
DWIDTH 6 0
BBX 5 8 0 0
BITMAP
50
20
50
08
78
88
88
70
ENDCHAR
STARTCHAR ntilde
ENCODING 241
SWIDTH 600 0
DWIDTH 6 0
BBX 5 8 0 0
BITMAP
28
50
00
B0
C8
88
88
88
ENDCHAR
STARTCHAR ograve
ENCODING 242
SWIDTH 600 0
DWIDTH 6 0
BBX 5 8 0 0
BITMAP
60
10
00
70
88
88
88
70
ENDCHAR
STARTCHAR oacute
ENCODING 243
SWIDTH 600 0
DWIDTH 6 0
BBX 5 8 0 0
BITMAP
30
40
00
70
88
88
88
70
ENDCHAR
STARTCHAR ocircumflex
ENCODING 244
SWIDTH 600 0
DWIDTH 6 0
BBX 5 8 0 0
BITMAP
20
50
00
70
88
88
88
70
ENDCHAR
STARTCHAR otilde
ENCODING 245
SWIDTH 600 0
DWIDTH 6 0
BBX 5 8 0 0
BITMAP
28
50
00
70
88
88
88
70
ENDCHAR
STARTCHAR odieresis
ENCODING 246
SWIDTH 600 0
DWIDTH 6 0
BBX 5 7 0 0
BITMAP
50
00
70
88
88
88
70
ENDCHAR
STARTCHAR divide
ENCODING 247
SWIDTH 600 0
DWIDTH 6 0
BBX 5 5 0 1
BITMAP
20
00
F8
00
20
ENDCHAR
STARTCHAR oslash
ENCODING 248
SWIDTH 600 0
DWIDTH 6 0
BBX 5 5 0 0
BITMAP
68
90
A8
48
B0
ENDCHAR
STARTCHAR ugrave
ENCODING 249
SWIDTH 600 0
DWIDTH 6 0
BBX 5 8 0 0
BITMAP
60
10
00
88
88
88
98
68
ENDCHAR
STARTCHAR uacute
ENCODING 250
SWIDTH 600 0
DWIDTH 6 0
BBX 5 8 0 0
BITMAP
30
40
00
88
88
88
98
68
ENDCHAR
STARTCHAR ucircumflex
ENCODING 251
SWIDTH 600 0
DWIDTH 6 0
BBX 5 8 0 0
BITMAP
20
50
00
88
88
88
98
68
ENDCHAR
STARTCHAR udieresis
ENCODING 252
SWIDTH 600 0
DWIDTH 6 0
BBX 5 7 0 0
BITMAP
50
00
88
88
88
98
68
ENDCHAR
STARTCHAR yacute
ENCODING 253
SWIDTH 600 0
DWIDTH 6 0
BBX 5 11 0 -3
BITMAP
30
40
00
88
88
88
98
68
08
88
70
ENDCHAR
STARTCHAR thorn
ENCODING 254
SWIDTH 600 0
DWIDTH 6 0
BBX 5 9 0 -2
BITMAP
80
B0
C8
88
88
88
F0
80
80
ENDCHAR
STARTCHAR ydieresis
ENCODING 255
SWIDTH 600 0
DWIDTH 6 0
BBX 5 10 0 -3
BITMAP
50
00
88
88
88
98
68
08
88
70
ENDCHAR
STARTCHAR Amacron
ENCODING 256
SWIDTH 600 0
DWIDTH 6 0
BBX 5 9 0 0
BITMAP
70
00
70
88
88
F8
88
88
88
ENDCHAR
STARTCHAR amacron
ENCODING 257
SWIDTH 600 0
DWIDTH 6 0
BBX 5 7 0 0
BITMAP
70
00
78
88
88
98
68
ENDCHAR
STARTCHAR Abreve
ENCODING 258
SWIDTH 600 0
DWIDTH 6 0
BBX 5 10 0 0
BITMAP
88
70
00
70
88
88
F8
88
88
88
ENDCHAR
STARTCHAR abreve
ENCODING 259
SWIDTH 600 0
DWIDTH 6 0
BBX 5 8 0 0
BITMAP
88
70
00
78
88
88
98
68
ENDCHAR
STARTCHAR Aogonek
ENCODING 260
SWIDTH 600 0
DWIDTH 6 0
BBX 5 10 0 -3
BITMAP
70
88
88
F8
88
88
88
08
10
08
ENDCHAR
STARTCHAR aogonek
ENCODING 261
SWIDTH 600 0
DWIDTH 6 0
BBX 5 8 0 -3
BITMAP
78
88
88
98
68
08
10
08
ENDCHAR
STARTCHAR Cacute
ENCODING 262
SWIDTH 600 0
DWIDTH 6 0
BBX 5 10 0 0
BITMAP
30
40
00
70
88
80
80
80
80
78
ENDCHAR
STARTCHAR cacute
ENCODING 263
SWIDTH 600 0
DWIDTH 6 0
BBX 5 8 0 0
BITMAP
30
40
00
70
88
80
80
78
ENDCHAR
STARTCHAR Ccircumflex
ENCODING 264
SWIDTH 600 0
DWIDTH 6 0
BBX 5 10 0 0
BITMAP
20
50
00
70
88
80
80
80
80
78
ENDCHAR
STARTCHAR ccircumflex
ENCODING 265
SWIDTH 600 0
DWIDTH 6 0
BBX 5 8 0 0
BITMAP
20
50
00
70
88
80
80
78
ENDCHAR
STARTCHAR Cdotaccent
ENCODING 266
SWIDTH 600 0
DWIDTH 6 0
BBX 5 9 0 0
BITMAP
20
00
70
88
80
80
80
80
78
ENDCHAR
STARTCHAR cdotaccent
ENCODING 267
SWIDTH 600 0
DWIDTH 6 0
BBX 5 7 0 0
BITMAP
20
00
70
88
80
80
78
ENDCHAR
STARTCHAR Ccaron
ENCODING 268
SWIDTH 600 0
DWIDTH 6 0
BBX 5 10 0 0
BITMAP
50
20
00
70
88
80
80
80
80
78
ENDCHAR
STARTCHAR ccaron
ENCODING 269
SWIDTH 600 0
DWIDTH 6 0
BBX 5 8 0 0
BITMAP
50
20
00
70
88
80
80
78
ENDCHAR
STARTCHAR Dcaron
ENCODING 270
SWIDTH 600 0
DWIDTH 6 0
BBX 5 10 0 0
BITMAP
50
20
00
E0
90
88
88
88
90
E0
ENDCHAR
STARTCHAR dcaron
ENCODING 271
SWIDTH 600 0
DWIDTH 6 0
BBX 7 7 0 0
BITMAP
0A
0A
7A
88
88
98
68
ENDCHAR
STARTCHAR Dcroat
ENCODING 272
SWIDTH 600 0
DWIDTH 6 0
BBX 6 7 -1 0
BITMAP
70
48
44
E4
44
48
70
ENDCHAR
STARTCHAR dcroat
ENCODING 273
SWIDTH 600 0
DWIDTH 6 0
BBX 6 7 0 0
BITMAP
08
1C
08
78
88
98
68
ENDCHAR
STARTCHAR Emacron
ENCODING 274
SWIDTH 600 0
DWIDTH 6 0
BBX 5 9 0 0
BITMAP
70
00
F8
80
80
F0
80
80
F8
ENDCHAR
STARTCHAR emacron
ENCODING 275
SWIDTH 600 0
DWIDTH 6 0
BBX 5 7 0 0
BITMAP
70
00
70
88
F8
80
78
ENDCHAR
STARTCHAR Ebreve
ENCODING 276
SWIDTH 600 0
DWIDTH 6 0
BBX 5 10 0 0
BITMAP
88
70
00
F8
80
80
F0
80
80
F8
ENDCHAR
STARTCHAR ebreve
ENCODING 277
SWIDTH 600 0
DWIDTH 6 0
BBX 5 8 0 0
BITMAP
88
70
00
70
88
F8
80
78
ENDCHAR
STARTCHAR Edotaccent
ENCODING 278
SWIDTH 600 0
DWIDTH 6 0
BBX 5 9 0 0
BITMAP
20
00
F8
80
80
F0
80
80
F8
ENDCHAR
STARTCHAR edotaccent
ENCODING 279
SWIDTH 600 0
DWIDTH 6 0
BBX 5 7 0 0
BITMAP
20
00
70
88
F8
80
78
ENDCHAR
STARTCHAR Eogonek
ENCODING 280
SWIDTH 600 0
DWIDTH 6 0
BBX 5 10 0 -3
BITMAP
F8
80
80
F0
80
80
F8
08
10
08
ENDCHAR
STARTCHAR eogonek
ENCODING 281
SWIDTH 600 0
DWIDTH 6 0
BBX 5 8 0 -3
BITMAP
70
88
F8
80
78
10
20
10
ENDCHAR
STARTCHAR Ecaron
ENCODING 282
SWIDTH 600 0
DWIDTH 6 0
BBX 5 10 0 0
BITMAP
50
20
00
F8
80
80
F0
80
80
F8
ENDCHAR
STARTCHAR ecaron
ENCODING 283
SWIDTH 600 0
DWIDTH 6 0
BBX 5 5 0 0
BITMAP
70
88
F8
80
78
ENDCHAR
STARTCHAR Gcircumflex
ENCODING 284
SWIDTH 600 0
DWIDTH 6 0
BBX 5 10 0 0
BITMAP
20
50
00
70
88
80
B8
88
88
78
ENDCHAR
STARTCHAR gcircumflex
ENCODING 285
SWIDTH 600 0
DWIDTH 6 0
BBX 5 11 0 -3
BITMAP
20
50
00
78
88
88
98
68
08
88
70
ENDCHAR
STARTCHAR Gbreve
ENCODING 286
SWIDTH 600 0
DWIDTH 6 0
BBX 5 10 0 0
BITMAP
88
70
00
70
88
80
B8
88
88
78
ENDCHAR
STARTCHAR gbreve
ENCODING 287
SWIDTH 600 0
DWIDTH 6 0
BBX 5 11 0 -3
BITMAP
88
70
00
78
88
88
98
68
08
88
70
ENDCHAR
STARTCHAR Gdotaccent
ENCODING 288
SWIDTH 600 0
DWIDTH 6 0
BBX 5 9 0 0
BITMAP
20
00
70
88
80
B8
88
88
78
ENDCHAR
STARTCHAR gdotaccent
ENCODING 289
SWIDTH 600 0
DWIDTH 6 0
BBX 5 10 0 -3
BITMAP
20
00
78
88
88
98
68
08
88
70
ENDCHAR
STARTCHAR uni122
ENCODING 290
SWIDTH 600 0
DWIDTH 6 0
BBX 5 10 0 -3
BITMAP
70
88
80
B8
88
88
78
20
40
20
ENDCHAR
STARTCHAR uni123
ENCODING 291
SWIDTH 600 0
DWIDTH 6 0
BBX 5 12 0 -3
BITMAP
40
40
20
00
78
88
88
98
68
08
88
70
ENDCHAR
STARTCHAR Hcircumflex
ENCODING 292
SWIDTH 600 0
DWIDTH 6 0
BBX 5 10 0 0
BITMAP
20
50
00
88
88
88
F8
88
88
88
ENDCHAR
STARTCHAR hcircumflex
ENCODING 293
SWIDTH 600 0
DWIDTH 6 0
BBX 6 10 -1 0
BITMAP
40
A0
00
40
40
58
64
44
44
44
ENDCHAR
STARTCHAR Hbar
ENCODING 294
SWIDTH 600 0
DWIDTH 6 0
BBX 7 7 -1 0
BITMAP
44
FE
44
7C
44
44
44
ENDCHAR
STARTCHAR hbar
ENCODING 295
SWIDTH 600 0
DWIDTH 6 0
BBX 6 7 -1 0
BITMAP
40
E0
40
58
64
44
44
ENDCHAR
STARTCHAR Itilde
ENCODING 296
SWIDTH 600 0
DWIDTH 6 0
BBX 5 10 0 0
BITMAP
28
50
00
F8
20
20
20
20
20
F8
ENDCHAR
STARTCHAR itilde
ENCODING 297
SWIDTH 600 0
DWIDTH 6 0
BBX 5 8 0 0
BITMAP
28
50
00
E0
20
20
20
F8
ENDCHAR
STARTCHAR Imacron
ENCODING 298
SWIDTH 600 0
DWIDTH 6 0
BBX 5 9 0 0
BITMAP
70
00
F8
20
20
20
20
20
F8
ENDCHAR
STARTCHAR imacron
ENCODING 299
SWIDTH 600 0
DWIDTH 6 0
BBX 5 7 0 0
BITMAP
70
00
E0
20
20
20
F8
ENDCHAR
STARTCHAR Ibreve
ENCODING 300
SWIDTH 600 0
DWIDTH 6 0
BBX 5 10 0 0
BITMAP
88
70
00
F8
20
20
20
20
20
F8
ENDCHAR
STARTCHAR ibreve
ENCODING 301
SWIDTH 600 0
DWIDTH 6 0
BBX 5 8 0 0
BITMAP
88
70
00
E0
20
20
20
F8
ENDCHAR
STARTCHAR Iogonek
ENCODING 302
SWIDTH 600 0
DWIDTH 6 0
BBX 5 10 0 -3
BITMAP
F8
20
20
20
20
20
F8
20
40
20
ENDCHAR
STARTCHAR iogonek
ENCODING 303
SWIDTH 600 0
DWIDTH 6 0
BBX 5 10 0 -3
BITMAP
20
00
E0
20
20
20
F8
20
40
20
ENDCHAR
STARTCHAR Idotaccent
ENCODING 304
SWIDTH 600 0
DWIDTH 6 0
BBX 5 9 0 0
BITMAP
20
00
F8
20
20
20
20
20
F8
ENDCHAR
STARTCHAR dotlessi
ENCODING 305
SWIDTH 600 0
DWIDTH 6 0
BBX 5 5 0 0
BITMAP
E0
20
20
20
F8
ENDCHAR
STARTCHAR IJ
ENCODING 306
SWIDTH 600 0
DWIDTH 6 0
BBX 5 10 0 -3
BITMAP
D8
48
48
48
48
48
E8
08
48
30
ENDCHAR
STARTCHAR ij
ENCODING 307
SWIDTH 600 0
DWIDTH 6 0
BBX 5 10 0 -3
BITMAP
48
00
D8
48
48
48
E8
08
48
30
ENDCHAR
STARTCHAR Jcircumflex
ENCODING 308
SWIDTH 600 0
DWIDTH 6 0
BBX 5 10 0 0
BITMAP
20
50
00
F8
08
08
08
08
88
70
ENDCHAR
STARTCHAR jcircumflex
ENCODING 309
SWIDTH 600 0
DWIDTH 6 0
BBX 5 11 0 -3
BITMAP
20
50
00
78
08
08
08
08
08
88
70
ENDCHAR
STARTCHAR uni136
ENCODING 310
SWIDTH 600 0
DWIDTH 6 0
BBX 5 10 0 -3
BITMAP
88
90
A0
D0
88
88
88
20
10
60
ENDCHAR
STARTCHAR uni137
ENCODING 311
SWIDTH 600 0
DWIDTH 6 0
BBX 5 10 0 -3
BITMAP
80
80
98
A0
D0
88
88
20
10
60
ENDCHAR
STARTCHAR kgreenlandic
ENCODING 312
SWIDTH 600 0
DWIDTH 6 0
BBX 5 5 0 0
BITMAP
88
90
E0
90
88
ENDCHAR
STARTCHAR Lacute
ENCODING 313
SWIDTH 600 0
DWIDTH 6 0
BBX 5 10 0 0
BITMAP
30
40
00
80
80
80
80
80
80
F8
ENDCHAR
STARTCHAR lacute
ENCODING 314
SWIDTH 600 0
DWIDTH 6 0
BBX 5 10 0 0
BITMAP
30
40
00
C0
40
40
40
40
48
30
ENDCHAR
STARTCHAR uni13B
ENCODING 315
SWIDTH 600 0
DWIDTH 6 0
BBX 5 10 0 -3
BITMAP
80
80
80
80
80
80
F8
20
10
60
ENDCHAR
STARTCHAR uni13C
ENCODING 316
SWIDTH 600 0
DWIDTH 6 0
BBX 5 10 0 -3
BITMAP
C0
40
40
40
40
48
30
20
10
60
ENDCHAR
STARTCHAR Lcaron
ENCODING 317
SWIDTH 600 0
DWIDTH 6 0
BBX 5 7 0 0
BITMAP
90
90
90
80
80
80
F8
ENDCHAR
STARTCHAR lcaron
ENCODING 318
SWIDTH 600 0
DWIDTH 6 0
BBX 5 7 0 0
BITMAP
D0
50
50
40
40
48
30
ENDCHAR
STARTCHAR Ldot
ENCODING 319
SWIDTH 600 0
DWIDTH 6 0
BBX 5 7 0 0
BITMAP
80
80
80
A0
80
80
F8
ENDCHAR
STARTCHAR ldot
ENCODING 320
SWIDTH 600 0
DWIDTH 6 0
BBX 5 7 0 0
BITMAP
C0
40
40
50
40
48
30
ENDCHAR
STARTCHAR Lslash
ENCODING 321
SWIDTH 600 0
DWIDTH 6 0
BBX 6 7 -1 0
BITMAP
40
40
50
60
C0
40
7C
ENDCHAR
STARTCHAR lslash
ENCODING 322
SWIDTH 600 0
DWIDTH 6 0
BBX 5 7 0 0
BITMAP
C0
40
50
60
C0
48
30
ENDCHAR
STARTCHAR Nacute
ENCODING 323
SWIDTH 600 0
DWIDTH 6 0
BBX 5 10 0 0
BITMAP
30
40
00
88
88
C8
A8
98
88
88
ENDCHAR
STARTCHAR nacute
ENCODING 324
SWIDTH 600 0
DWIDTH 6 0
BBX 5 8 0 0
BITMAP
30
40
00
B0
C8
88
88
88
ENDCHAR
STARTCHAR uni145
ENCODING 325
SWIDTH 600 0
DWIDTH 6 0
BBX 5 10 0 -3
BITMAP
88
88
C8
A8
98
88
88
20
10
60
ENDCHAR
STARTCHAR uni146
ENCODING 326
SWIDTH 600 0
DWIDTH 6 0
BBX 5 8 0 -3
BITMAP
B0
C8
88
88
88
20
10
60
ENDCHAR
STARTCHAR Ncaron
ENCODING 327
SWIDTH 600 0
DWIDTH 6 0
BBX 5 10 0 0
BITMAP
50
20
00
88
88
C8
A8
98
88
88
ENDCHAR
STARTCHAR ncaron
ENCODING 328
SWIDTH 600 0
DWIDTH 6 0
BBX 5 8 0 0
BITMAP
50
20
00
B0
C8
88
88
88
ENDCHAR
STARTCHAR napostrophe
ENCODING 329
SWIDTH 600 0
DWIDTH 6 0
BBX 7 8 -2 0
BITMAP
40
40
80
2C
32
22
22
22
ENDCHAR
STARTCHAR Eng
ENCODING 330
SWIDTH 600 0
DWIDTH 6 0
BBX 5 9 0 -2
BITMAP
88
88
C8
A8
98
88
88
08
30
ENDCHAR
STARTCHAR eng
ENCODING 331
SWIDTH 600 0
DWIDTH 6 0
BBX 5 7 0 -2
BITMAP
B0
C8
88
88
88
08
30
ENDCHAR
STARTCHAR Omacron
ENCODING 332
SWIDTH 600 0
DWIDTH 6 0
BBX 5 9 0 0
BITMAP
70
00
70
88
88
88
88
88
70
ENDCHAR
STARTCHAR omacron
ENCODING 333
SWIDTH 600 0
DWIDTH 6 0
BBX 5 7 0 0
BITMAP
70
00
70
88
88
88
70
ENDCHAR
STARTCHAR Obreve
ENCODING 334
SWIDTH 600 0
DWIDTH 6 0
BBX 5 10 0 0
BITMAP
88
70
00
70
88
88
88
88
88
70
ENDCHAR
STARTCHAR obreve
ENCODING 335
SWIDTH 600 0
DWIDTH 6 0
BBX 5 8 0 0
BITMAP
88
70
00
70
88
88
88
70
ENDCHAR
STARTCHAR Ohungarumlaut
ENCODING 336
SWIDTH 600 0
DWIDTH 6 0
BBX 5 10 0 0
BITMAP
48
90
00
70
88
88
88
88
88
70
ENDCHAR
STARTCHAR ohungarumlaut
ENCODING 337
SWIDTH 600 0
DWIDTH 6 0
BBX 5 8 0 0
BITMAP
48
90
00
70
88
88
88
70
ENDCHAR
STARTCHAR OE
ENCODING 338
SWIDTH 600 0
DWIDTH 6 0
BBX 5 7 0 0
BITMAP
78
A0
A0
B8
A0
A0
78
ENDCHAR
STARTCHAR oe
ENCODING 339
SWIDTH 600 0
DWIDTH 6 0
BBX 5 5 0 0
BITMAP
50
A8
B8
A0
58
ENDCHAR
STARTCHAR Racute
ENCODING 340
SWIDTH 600 0
DWIDTH 6 0
BBX 5 10 0 0
BITMAP
30
40
00
F0
88
88
F0
90
88
88
ENDCHAR
STARTCHAR racute
ENCODING 341
SWIDTH 600 0
DWIDTH 6 0
BBX 5 8 0 0
BITMAP
30
40
00
B0
C8
80
80
80
ENDCHAR
STARTCHAR uni156
ENCODING 342
SWIDTH 600 0
DWIDTH 6 0
BBX 5 10 0 -3
BITMAP
F0
88
88
F0
90
88
88
20
10
60
ENDCHAR
STARTCHAR uni157
ENCODING 343
SWIDTH 600 0
DWIDTH 6 0
BBX 5 8 0 -3
BITMAP
B0
C8
80
80
80
20
10
60
ENDCHAR
STARTCHAR Rcaron
ENCODING 344
SWIDTH 600 0
DWIDTH 6 0
BBX 5 10 0 0
BITMAP
50
20
00
F0
88
88
F0
90
88
88
ENDCHAR
STARTCHAR rcaron
ENCODING 345
SWIDTH 600 0
DWIDTH 6 0
BBX 5 8 0 0
BITMAP
50
20
00
B0
C8
80
80
80
ENDCHAR
STARTCHAR Sacute
ENCODING 346
SWIDTH 600 0
DWIDTH 6 0
BBX 5 10 0 0
BITMAP
30
40
00
70
88
80
70
08
88
70
ENDCHAR
STARTCHAR sacute
ENCODING 347
SWIDTH 600 0
DWIDTH 6 0
BBX 5 8 0 0
BITMAP
30
40
00
78
80
70
08
F0
ENDCHAR
STARTCHAR Scircumflex
ENCODING 348
SWIDTH 600 0
DWIDTH 6 0
BBX 5 10 0 0
BITMAP
20
50
00
70
88
80
70
08
88
70
ENDCHAR
STARTCHAR scircumflex
ENCODING 349
SWIDTH 600 0
DWIDTH 6 0
BBX 5 8 0 0
BITMAP
20
50
00
78
80
70
08
F0
ENDCHAR
STARTCHAR Scedilla
ENCODING 350
SWIDTH 600 0
DWIDTH 6 0
BBX 5 10 0 -3
BITMAP
70
88
80
70
08
88
70
20
10
60
ENDCHAR
STARTCHAR scedilla
ENCODING 351
SWIDTH 600 0
DWIDTH 6 0
BBX 5 8 0 -3
BITMAP
78
80
70
08
F0
20
10
60
ENDCHAR
STARTCHAR Scaron
ENCODING 352
SWIDTH 600 0
DWIDTH 6 0
BBX 5 10 0 0
BITMAP
50
20
00
70
88
80
70
08
88
70
ENDCHAR
STARTCHAR scaron
ENCODING 353
SWIDTH 600 0
DWIDTH 6 0
BBX 5 8 0 0
BITMAP
50
20
00
78
80
70
08
F0
ENDCHAR
STARTCHAR uni162
ENCODING 354
SWIDTH 600 0
DWIDTH 6 0
BBX 5 10 0 -3
BITMAP
F8
20
20
20
20
20
20
20
10
60
ENDCHAR
STARTCHAR uni163
ENCODING 355
SWIDTH 600 0
DWIDTH 6 0
BBX 5 10 0 -3
BITMAP
40
40
F0
40
40
48
30
20
10
60
ENDCHAR
STARTCHAR Tcaron
ENCODING 356
SWIDTH 600 0
DWIDTH 6 0
BBX 5 10 0 0
BITMAP
50
20
00
F8
20
20
20
20
20
20
ENDCHAR
STARTCHAR tcaron
ENCODING 357
SWIDTH 600 0
DWIDTH 6 0
BBX 5 8 0 0
BITMAP
08
48
40
F0
40
40
48
30
ENDCHAR
STARTCHAR Tbar
ENCODING 358
SWIDTH 600 0
DWIDTH 6 0
BBX 5 7 0 0
BITMAP
F8
20
20
70
20
20
20
ENDCHAR
STARTCHAR tbar
ENCODING 359
SWIDTH 600 0
DWIDTH 6 0
BBX 5 7 0 0
BITMAP
40
40
F0
40
E0
48
30
ENDCHAR
STARTCHAR Utilde
ENCODING 360
SWIDTH 600 0
DWIDTH 6 0
BBX 5 10 0 0
BITMAP
28
50
00
88
88
88
88
88
98
68
ENDCHAR
STARTCHAR utilde
ENCODING 361
SWIDTH 600 0
DWIDTH 6 0
BBX 5 8 0 0
BITMAP
28
50
00
88
88
88
98
68
ENDCHAR
STARTCHAR Umacron
ENCODING 362
SWIDTH 600 0
DWIDTH 6 0
BBX 5 9 0 0
BITMAP
70
00
88
88
88
88
88
98
68
ENDCHAR
STARTCHAR umacron
ENCODING 363
SWIDTH 600 0
DWIDTH 6 0
BBX 5 7 0 0
BITMAP
70
00
88
88
88
98
68
ENDCHAR
STARTCHAR Ubreve
ENCODING 364
SWIDTH 600 0
DWIDTH 6 0
BBX 5 10 0 0
BITMAP
88
70
00
88
88
88
88
88
98
68
ENDCHAR
STARTCHAR ubreve
ENCODING 365
SWIDTH 600 0
DWIDTH 6 0
BBX 5 8 0 0
BITMAP
88
70
00
88
88
88
98
68
ENDCHAR
STARTCHAR Uring
ENCODING 366
SWIDTH 600 0
DWIDTH 6 0
BBX 5 10 0 0
BITMAP
20
50
20
88
88
88
88
88
98
68
ENDCHAR
STARTCHAR uring
ENCODING 367
SWIDTH 600 0
DWIDTH 6 0
BBX 5 8 0 0
BITMAP
20
50
20
88
88
88
98
68
ENDCHAR
STARTCHAR Uhungarumlaut
ENCODING 368
SWIDTH 600 0
DWIDTH 6 0
BBX 5 10 0 0
BITMAP
48
90
00
88
88
88
88
88
98
68
ENDCHAR
STARTCHAR uhungarumlaut
ENCODING 369
SWIDTH 600 0
DWIDTH 6 0
BBX 5 8 0 0
BITMAP
48
90
00
88
88
88
98
68
ENDCHAR
STARTCHAR Uogonek
ENCODING 370
SWIDTH 600 0
DWIDTH 6 0
BBX 5 10 0 -3
BITMAP
88
88
88
88
88
98
68
20
40
20
ENDCHAR
STARTCHAR uogonek
ENCODING 371
SWIDTH 600 0
DWIDTH 6 0
BBX 5 8 0 -3
BITMAP
88
88
88
98
68
08
10
08
ENDCHAR
STARTCHAR Wcircumflex
ENCODING 372
SWIDTH 600 0
DWIDTH 6 0
BBX 5 10 0 0
BITMAP
20
50
00
88
88
A8
A8
A8
50
50
ENDCHAR
STARTCHAR wcircumflex
ENCODING 373
SWIDTH 600 0
DWIDTH 6 0
BBX 5 8 0 0
BITMAP
20
50
00
88
A8
A8
50
50
ENDCHAR
STARTCHAR Ycircumflex
ENCODING 374
SWIDTH 600 0
DWIDTH 6 0
BBX 5 10 0 0
BITMAP
20
50
00
88
88
88
50
20
20
20
ENDCHAR
STARTCHAR ycircumflex
ENCODING 375
SWIDTH 600 0
DWIDTH 6 0
BBX 5 11 0 -3
BITMAP
20
50
00
88
88
88
98
68
08
88
70
ENDCHAR
STARTCHAR Ydieresis
ENCODING 376
SWIDTH 600 0
DWIDTH 6 0
BBX 5 9 0 0
BITMAP
50
00
88
88
88
50
20
20
20
ENDCHAR
STARTCHAR Zacute
ENCODING 377
SWIDTH 600 0
DWIDTH 6 0
BBX 5 10 0 0
BITMAP
30
40
00
F8
08
10
20
40
80
F8
ENDCHAR
STARTCHAR zacute
ENCODING 378
SWIDTH 600 0
DWIDTH 6 0
BBX 5 8 0 0
BITMAP
30
40
00
F8
10
20
40
F8
ENDCHAR
STARTCHAR Zdotaccent
ENCODING 379
SWIDTH 600 0
DWIDTH 6 0
BBX 5 9 0 0
BITMAP
20
00
F8
08
10
20
40
80
F8
ENDCHAR
STARTCHAR zdotaccent
ENCODING 380
SWIDTH 600 0
DWIDTH 6 0
BBX 5 7 0 0
BITMAP
20
00
F8
10
20
40
F8
ENDCHAR
STARTCHAR Zcaron
ENCODING 381
SWIDTH 600 0
DWIDTH 6 0
BBX 5 10 0 0
BITMAP
50
20
00
F8
08
10
20
40
80
F8
ENDCHAR
STARTCHAR zcaron
ENCODING 382
SWIDTH 600 0
DWIDTH 6 0
BBX 5 8 0 0
BITMAP
50
20
00
F8
10
20
40
F8
ENDCHAR
STARTCHAR longs
ENCODING 383
SWIDTH 600 0
DWIDTH 6 0
BBX 5 7 0 0
BITMAP
30
48
40
C0
40
40
40
ENDCHAR
STARTCHAR uni180
ENCODING 384
SWIDTH 600 0
DWIDTH 6 0
BBX 6 7 -1 0
BITMAP
40
E0
40
58
64
44
78
ENDCHAR
STARTCHAR uni181
ENCODING 385
SWIDTH 600 0
DWIDTH 6 0
BBX 7 7 -2 0
BITMAP
78
A4
24
3C
22
22
3C
ENDCHAR
STARTCHAR uni182
ENCODING 386
SWIDTH 600 0
DWIDTH 6 0
BBX 5 7 0 0
BITMAP
F8
80
80
F0
88
88
F0
ENDCHAR
STARTCHAR uni183
ENCODING 387
SWIDTH 600 0
DWIDTH 6 0
BBX 5 7 0 0
BITMAP
F0
80
80
B0
C8
88
F0
ENDCHAR
STARTCHAR uni184
ENCODING 388
SWIDTH 600 0
DWIDTH 6 0
BBX 7 7 -2 0
BITMAP
E0
20
20
3C
22
22
3C
ENDCHAR
STARTCHAR uni185
ENCODING 389
SWIDTH 600 0
DWIDTH 6 0
BBX 7 5 -2 0
BITMAP
E0
20
3C
22
3C
ENDCHAR
STARTCHAR uni186
ENCODING 390
SWIDTH 600 0
DWIDTH 6 0
BBX 5 7 0 0
BITMAP
70
88
08
08
08
88
70
ENDCHAR
STARTCHAR uni187
ENCODING 391
SWIDTH 600 0
DWIDTH 6 0
BBX 5 10 0 0
BITMAP
08
10
10
70
88
80
80
80
80
78
ENDCHAR
STARTCHAR uni188
ENCODING 392
SWIDTH 600 0
DWIDTH 6 0
BBX 5 8 0 0
BITMAP
08
10
10
70
88
80
80
78
ENDCHAR
STARTCHAR uni189
ENCODING 393
SWIDTH 600 0
DWIDTH 6 0
BBX 6 7 -1 0
BITMAP
70
48
44
F4
44
48
70
ENDCHAR
STARTCHAR uni18A
ENCODING 394
SWIDTH 600 0
DWIDTH 6 0
BBX 8 7 -3 0
BITMAP
7C
92
11
11
11
12
1C
ENDCHAR
STARTCHAR uni18B
ENCODING 395
SWIDTH 600 0
DWIDTH 6 0
BBX 5 7 0 0
BITMAP
F8
08
78
88
88
88
78
ENDCHAR
STARTCHAR uni18C
ENCODING 396
SWIDTH 600 0
DWIDTH 6 0
BBX 5 7 0 0
BITMAP
78
08
08
78
88
98
68
ENDCHAR
STARTCHAR uni18E
ENCODING 398
SWIDTH 600 0
DWIDTH 6 0
BBX 5 7 0 0
BITMAP
F8
08
08
78
08
08
F8
ENDCHAR
STARTCHAR uni18F
ENCODING 399
SWIDTH 600 0
DWIDTH 6 0
BBX 5 7 0 0
BITMAP
70
88
08
F8
88
88
70
ENDCHAR
STARTCHAR uni190
ENCODING 400
SWIDTH 600 0
DWIDTH 6 0
BBX 5 7 0 0
BITMAP
70
88
80
70
80
88
70
ENDCHAR
STARTCHAR uni191
ENCODING 401
SWIDTH 600 0
DWIDTH 6 0
BBX 7 9 -2 -2
BITMAP
3E
20
20
3C
20
20
20
20
C0
ENDCHAR
STARTCHAR uni198
ENCODING 408
SWIDTH 600 0
DWIDTH 6 0
BBX 6 7 0 0
BITMAP
88
94
A0
D0
88
88
88
ENDCHAR
STARTCHAR uni199
ENCODING 409
SWIDTH 600 0
DWIDTH 6 0
BBX 5 8 0 0
BITMAP
40
A0
80
98
A0
D0
88
88
ENDCHAR
STARTCHAR uni19D
ENCODING 413
SWIDTH 600 0
DWIDTH 6 0
BBX 7 8 -2 -1
BITMAP
22
22
32
2A
26
22
A2
40
ENDCHAR
STARTCHAR uni19E
ENCODING 414
SWIDTH 600 0
DWIDTH 6 0
BBX 5 7 0 -2
BITMAP
B0
C8
88
88
88
08
08
ENDCHAR
STARTCHAR uni19F
ENCODING 415
SWIDTH 600 0
DWIDTH 6 0
BBX 5 7 0 0
BITMAP
70
88
88
F8
88
88
70
ENDCHAR
STARTCHAR Ohorn
ENCODING 416
SWIDTH 600 0
DWIDTH 6 0
BBX 6 9 0 0
BITMAP
04
08
70
88
88
88
88
88
70
ENDCHAR
STARTCHAR ohorn
ENCODING 417
SWIDTH 600 0
DWIDTH 6 0
BBX 5 6 0 0
BITMAP
08
70
88
88
88
70
ENDCHAR
STARTCHAR uni1A4
ENCODING 420
SWIDTH 600 0
DWIDTH 6 0
BBX 7 7 -2 0
BITMAP
7C
A2
22
3C
20
20
20
ENDCHAR
STARTCHAR uni1A7
ENCODING 423
SWIDTH 600 0
DWIDTH 6 0
BBX 5 7 0 0
BITMAP
70
88
08
70
80
88
70
ENDCHAR
STARTCHAR uni1A8
ENCODING 424
SWIDTH 600 0
DWIDTH 6 0
BBX 5 5 0 0
BITMAP
F0
08
70
80
78
ENDCHAR
STARTCHAR uni1A9
ENCODING 425
SWIDTH 600 0
DWIDTH 6 0
BBX 5 7 0 0
BITMAP
F8
80
40
20
40
80
F8
ENDCHAR
STARTCHAR Uhorn
ENCODING 431
SWIDTH 600 0
DWIDTH 6 0
BBX 7 9 0 0
BITMAP
02
04
88
88
88
88
88
98
68
ENDCHAR
STARTCHAR uhorn
ENCODING 432
SWIDTH 600 0
DWIDTH 6 0
BBX 6 6 0 0
BITMAP
04
88
88
88
98
68
ENDCHAR
STARTCHAR uni1B1
ENCODING 433
SWIDTH 600 0
DWIDTH 6 0
BBX 5 7 0 0
BITMAP
D8
50
88
88
88
88
70
ENDCHAR
STARTCHAR uni1B2
ENCODING 434
SWIDTH 600 0
DWIDTH 6 0
BBX 5 7 0 0
BITMAP
B0
88
88
50
50
50
20
ENDCHAR
STARTCHAR uni1B3
ENCODING 435
SWIDTH 600 0
DWIDTH 6 0
BBX 7 8 0 0
BITMAP
04
8A
88
88
50
20
20
20
ENDCHAR
STARTCHAR uni1B4
ENCODING 436
SWIDTH 600 0
DWIDTH 6 0
BBX 7 8 0 -3
BITMAP
04
8A
88
88
78
08
88
70
ENDCHAR
STARTCHAR uni1B5
ENCODING 437
SWIDTH 600 0
DWIDTH 6 0
BBX 5 7 0 0
BITMAP
F8
08
10
F8
40
80
F8
ENDCHAR
STARTCHAR uni1B6
ENCODING 438
SWIDTH 600 0
DWIDTH 6 0
BBX 5 5 0 0
BITMAP
F8
10
F8
40
F8
ENDCHAR
STARTCHAR uni1B7
ENCODING 439
SWIDTH 600 0
DWIDTH 6 0
BBX 5 7 0 0
BITMAP
F8
10
20
78
08
88
70
ENDCHAR
STARTCHAR uni1B8
ENCODING 440
SWIDTH 600 0
DWIDTH 6 0
BBX 5 7 0 0
BITMAP
F8
40
20
70
80
88
70
ENDCHAR
STARTCHAR uni1B9
ENCODING 441
SWIDTH 600 0
DWIDTH 6 0
BBX 5 5 0 0
BITMAP
F8
40
70
80
70
ENDCHAR
STARTCHAR uni1BA
ENCODING 442
SWIDTH 600 0
DWIDTH 6 0
BBX 5 7 0 -2
BITMAP
F8
10
70
08
70
80
60
ENDCHAR
STARTCHAR uni1BB
ENCODING 443
SWIDTH 600 0
DWIDTH 6 0
BBX 5 7 0 0
BITMAP
70
88
08
10
F8
40
F8
ENDCHAR
STARTCHAR uni1BC
ENCODING 444
SWIDTH 600 0
DWIDTH 6 0
BBX 5 7 0 0
BITMAP
F8
40
40
F0
08
88
70
ENDCHAR
STARTCHAR uni1BD
ENCODING 445
SWIDTH 600 0
DWIDTH 6 0
BBX 5 5 0 0
BITMAP
F8
40
F0
08
F0
ENDCHAR
STARTCHAR uni1BF
ENCODING 447
SWIDTH 600 0
DWIDTH 6 0
BBX 5 7 0 -2
BITMAP
B0
C8
88
90
E0
80
80
ENDCHAR
STARTCHAR uni1C7
ENCODING 455
SWIDTH 600 0
DWIDTH 6 0
BBX 5 10 0 -3
BITMAP
B8
88
88
88
88
88
E8
08
88
70
ENDCHAR
STARTCHAR uni1C8
ENCODING 456
SWIDTH 600 0
DWIDTH 6 0
BBX 5 10 0 -3
BITMAP
80
80
88
80
88
88
E8
08
88
70
ENDCHAR
STARTCHAR uni1C9
ENCODING 457
SWIDTH 600 0
DWIDTH 6 0
BBX 5 10 0 -3
BITMAP
C0
40
48
40
48
58
68
08
88
70
ENDCHAR
STARTCHAR uni1CD
ENCODING 461
SWIDTH 600 0
DWIDTH 6 0
BBX 5 10 0 0
BITMAP
50
20
00
70
88
88
F8
88
88
88
ENDCHAR
STARTCHAR uni1CE
ENCODING 462
SWIDTH 600 0
DWIDTH 6 0
BBX 5 8 0 0
BITMAP
50
20
00
70
88
88
98
68
ENDCHAR
STARTCHAR uni1CF
ENCODING 463
SWIDTH 600 0
DWIDTH 6 0
BBX 5 10 0 0
BITMAP
50
20
00
F8
20
20
20
20
20
F8
ENDCHAR
STARTCHAR uni1D0
ENCODING 464
SWIDTH 600 0
DWIDTH 6 0
BBX 5 8 0 0
BITMAP
50
20
00
E0
20
20
20
F8
ENDCHAR
STARTCHAR uni1D1
ENCODING 465
SWIDTH 600 0
DWIDTH 6 0
BBX 5 10 0 0
BITMAP
50
20
00
70
88
88
88
88
88
70
ENDCHAR
STARTCHAR uni1D2
ENCODING 466
SWIDTH 600 0
DWIDTH 6 0
BBX 5 8 0 0
BITMAP
50
20
00
70
88
88
88
70
ENDCHAR
STARTCHAR uni1D3
ENCODING 467
SWIDTH 600 0
DWIDTH 6 0
BBX 5 10 0 0
BITMAP
50
20
00
88
88
88
88
88
98
68
ENDCHAR
STARTCHAR uni1D4
ENCODING 468
SWIDTH 600 0
DWIDTH 6 0
BBX 5 8 0 0
BITMAP
50
20
00
88
88
88
98
68
ENDCHAR
STARTCHAR uni1D5
ENCODING 469
SWIDTH 600 0
DWIDTH 6 0
BBX 5 11 0 0
BITMAP
70
00
50
00
88
88
88
88
88
98
68
ENDCHAR
STARTCHAR uni1D6
ENCODING 470
SWIDTH 600 0
DWIDTH 6 0
BBX 5 9 0 0
BITMAP
70
00
50
00
88
88
88
98
68
ENDCHAR
STARTCHAR uni1D7
ENCODING 471
SWIDTH 600 0
DWIDTH 6 0
BBX 5 11 0 0
BITMAP
30
40
50
00
88
88
88
88
88
98
68
ENDCHAR
STARTCHAR uni1D8
ENCODING 472
SWIDTH 600 0
DWIDTH 6 0
BBX 5 9 0 0
BITMAP
30
40
50
00
88
88
88
98
68
ENDCHAR
STARTCHAR uni1D9
ENCODING 473
SWIDTH 600 0
DWIDTH 6 0
BBX 5 12 0 0
BITMAP
50
20
00
50
00
88
88
88
88
88
98
68
ENDCHAR
STARTCHAR uni1DA
ENCODING 474
SWIDTH 600 0
DWIDTH 6 0
BBX 5 10 0 0
BITMAP
50
20
00
50
00
88
88
88
98
68
ENDCHAR
STARTCHAR uni1DB
ENCODING 475
SWIDTH 600 0
DWIDTH 6 0
BBX 5 11 0 0
BITMAP
60
10
50
00
88
88
88
88
88
98
68
ENDCHAR
STARTCHAR uni1DC
ENCODING 476
SWIDTH 600 0
DWIDTH 6 0
BBX 5 9 0 0
BITMAP
60
10
50
00
88
88
88
98
68
ENDCHAR
STARTCHAR uni1DD
ENCODING 477
SWIDTH 600 0
DWIDTH 6 0
BBX 5 5 0 0
BITMAP
F0
08
F8
88
70
ENDCHAR
STARTCHAR uni1DE
ENCODING 478
SWIDTH 600 0
DWIDTH 6 0
BBX 5 11 0 0
BITMAP
70
00
50
00
70
88
88
F8
88
88
88
ENDCHAR
STARTCHAR uni1DF
ENCODING 479
SWIDTH 600 0
DWIDTH 6 0
BBX 5 9 0 0
BITMAP
70
00
50
00
70
88
88
98
68
ENDCHAR
STARTCHAR uni1E0
ENCODING 480
SWIDTH 600 0
DWIDTH 6 0
BBX 5 11 0 0
BITMAP
70
00
20
00
70
88
88
F8
88
88
88
ENDCHAR
STARTCHAR uni1E1
ENCODING 481
SWIDTH 600 0
DWIDTH 6 0
BBX 5 9 0 0
BITMAP
70
00
20
00
70
88
88
98
68
ENDCHAR
STARTCHAR uni1E4
ENCODING 484
SWIDTH 600 0
DWIDTH 6 0
BBX 6 7 0 0
BITMAP
78
80
B8
88
BC
88
78
ENDCHAR
STARTCHAR uni1E5
ENCODING 485
SWIDTH 600 0
DWIDTH 6 0
BBX 6 8 0 -3
BITMAP
78
88
BC
88
78
08
88
70
ENDCHAR
STARTCHAR Gcaron
ENCODING 486
SWIDTH 600 0
DWIDTH 6 0
BBX 5 10 0 0
BITMAP
50
20
00
70
88
80
B8
88
88
78
ENDCHAR
STARTCHAR gcaron
ENCODING 487
SWIDTH 600 0
DWIDTH 6 0
BBX 5 11 0 -3
BITMAP
50
20
00
78
88
88
98
68
08
88
70
ENDCHAR
STARTCHAR uni1E8
ENCODING 488
SWIDTH 600 0
DWIDTH 6 0
BBX 5 10 0 0
BITMAP
50
20
00
88
90
A0
D0
88
88
88
ENDCHAR
STARTCHAR uni1E9
ENCODING 489
SWIDTH 600 0
DWIDTH 6 0
BBX 5 10 0 0
BITMAP
50
20
00
80
80
98
A0
D0
88
88
ENDCHAR
STARTCHAR uni1EA
ENCODING 490
SWIDTH 600 0
DWIDTH 6 0
BBX 5 10 0 -3
BITMAP
70
88
88
88
88
88
70
20
40
20
ENDCHAR
STARTCHAR uni1EB
ENCODING 491
SWIDTH 600 0
DWIDTH 6 0
BBX 5 8 0 -3
BITMAP
70
88
88
88
70
20
40
20
ENDCHAR
STARTCHAR uni1EC
ENCODING 492
SWIDTH 600 0
DWIDTH 6 0
BBX 5 12 0 -3
BITMAP
70
00
70
88
88
88
88
88
70
20
40
20
ENDCHAR
STARTCHAR uni1ED
ENCODING 493
SWIDTH 600 0
DWIDTH 6 0
BBX 5 10 0 -3
BITMAP
70
00
70
88
88
88
70
20
40
20
ENDCHAR
STARTCHAR uni1EE
ENCODING 494
SWIDTH 600 0
DWIDTH 6 0
BBX 5 10 0 0
BITMAP
50
20
00
F8
10
20
78
08
88
70
ENDCHAR
STARTCHAR uni1EF
ENCODING 495
SWIDTH 600 0
DWIDTH 6 0
BBX 5 8 0 0
BITMAP
50
20
00
F8
10
70
08
70
ENDCHAR
STARTCHAR uni1F0
ENCODING 496
SWIDTH 600 0
DWIDTH 6 0
BBX 5 11 0 -3
BITMAP
50
20
00
78
08
08
08
08
08
88
70
ENDCHAR
STARTCHAR uni1F4
ENCODING 500
SWIDTH 600 0
DWIDTH 6 0
BBX 5 10 0 0
BITMAP
30
40
00
70
88
80
B8
88
88
78
ENDCHAR
STARTCHAR uni1F5
ENCODING 501
SWIDTH 600 0
DWIDTH 6 0
BBX 5 11 0 -3
BITMAP
30
40
00
78
88
88
88
78
08
88
70
ENDCHAR
STARTCHAR uni1F7
ENCODING 503
SWIDTH 600 0
DWIDTH 6 0
BBX 5 7 0 0
BITMAP
B0
C8
88
90
E0
80
80
ENDCHAR
STARTCHAR uni1F8
ENCODING 504
SWIDTH 600 0
DWIDTH 6 0
BBX 5 10 0 0
BITMAP
60
10
00
88
88
C8
A8
98
88
88
ENDCHAR
STARTCHAR uni1F9
ENCODING 505
SWIDTH 600 0
DWIDTH 6 0
BBX 5 8 0 0
BITMAP
60
10
00
B0
C8
88
88
88
ENDCHAR
STARTCHAR Aringacute
ENCODING 506
SWIDTH 600 0
DWIDTH 6 0
BBX 5 12 0 0
BITMAP
30
40
20
50
20
70
88
88
F8
88
88
88
ENDCHAR
STARTCHAR aringacute
ENCODING 507
SWIDTH 600 0
DWIDTH 6 0
BBX 5 10 0 0
BITMAP
30
40
20
50
20
78
88
88
98
68
ENDCHAR
STARTCHAR Oslashacute
ENCODING 510
SWIDTH 600 0
DWIDTH 6 0
BBX 5 10 0 0
BITMAP
30
40
00
68
90
A8
A8
A8
48
B0
ENDCHAR
STARTCHAR oslashacute
ENCODING 511
SWIDTH 600 0
DWIDTH 6 0
BBX 5 8 0 0
BITMAP
30
40
00
68
90
A8
48
B0
ENDCHAR
STARTCHAR uni200
ENCODING 512
SWIDTH 600 0
DWIDTH 6 0
BBX 5 10 0 0
BITMAP
90
48
00
70
88
88
F8
88
88
88
ENDCHAR
STARTCHAR uni201
ENCODING 513
SWIDTH 600 0
DWIDTH 6 0
BBX 5 8 0 0
BITMAP
90
48
00
78
88
88
98
68
ENDCHAR
STARTCHAR uni202
ENCODING 514
SWIDTH 600 0
DWIDTH 6 0
BBX 5 10 0 0
BITMAP
70
88
00
70
88
88
F8
88
88
88
ENDCHAR
STARTCHAR uni203
ENCODING 515
SWIDTH 600 0
DWIDTH 6 0
BBX 5 8 0 0
BITMAP
70
88
00
78
88
88
98
68
ENDCHAR
STARTCHAR uni204
ENCODING 516
SWIDTH 600 0
DWIDTH 6 0
BBX 5 10 0 0
BITMAP
90
48
00
F8
80
80
F0
80
80
F8
ENDCHAR
STARTCHAR uni205
ENCODING 517
SWIDTH 600 0
DWIDTH 6 0
BBX 5 8 0 0
BITMAP
90
48
00
70
88
F8
80
78
ENDCHAR
STARTCHAR uni206
ENCODING 518
SWIDTH 600 0
DWIDTH 6 0
BBX 5 10 0 0
BITMAP
70
88
00
F8
80
80
F0
80
80
F8
ENDCHAR
STARTCHAR uni207
ENCODING 519
SWIDTH 600 0
DWIDTH 6 0
BBX 5 8 0 0
BITMAP
70
88
00
70
88
F8
80
78
ENDCHAR
STARTCHAR uni208
ENCODING 520
SWIDTH 600 0
DWIDTH 6 0
BBX 5 10 0 0
BITMAP
90
48
00
F8
20
20
20
20
20
F8
ENDCHAR
STARTCHAR uni209
ENCODING 521
SWIDTH 600 0
DWIDTH 6 0
BBX 5 8 0 0
BITMAP
90
48
00
E0
20
20
20
F8
ENDCHAR
STARTCHAR uni20A
ENCODING 522
SWIDTH 600 0
DWIDTH 6 0
BBX 5 10 0 0
BITMAP
70
88
00
F8
20
20
20
20
20
F8
ENDCHAR
STARTCHAR uni20B
ENCODING 523
SWIDTH 600 0
DWIDTH 6 0
BBX 5 8 0 0
BITMAP
70
88
00
E0
20
20
20
F8
ENDCHAR
STARTCHAR uni20C
ENCODING 524
SWIDTH 600 0
DWIDTH 6 0
BBX 5 10 0 0
BITMAP
90
48
00
70
88
88
88
88
88
70
ENDCHAR
STARTCHAR uni20D
ENCODING 525
SWIDTH 600 0
DWIDTH 6 0
BBX 5 8 0 0
BITMAP
90
48
00
70
88
88
88
70
ENDCHAR
STARTCHAR uni20E
ENCODING 526
SWIDTH 600 0
DWIDTH 6 0
BBX 5 10 0 0
BITMAP
70
88
00
70
88
88
88
88
88
70
ENDCHAR
STARTCHAR uni20F
ENCODING 527
SWIDTH 600 0
DWIDTH 6 0
BBX 5 8 0 0
BITMAP
70
88
00
70
88
88
88
70
ENDCHAR
STARTCHAR uni210
ENCODING 528
SWIDTH 600 0
DWIDTH 6 0
BBX 5 10 0 0
BITMAP
90
48
00
F0
88
88
F0
90
88
88
ENDCHAR
STARTCHAR uni211
ENCODING 529
SWIDTH 600 0
DWIDTH 6 0
BBX 5 8 0 0
BITMAP
90
48
00
B0
C8
80
80
80
ENDCHAR
STARTCHAR uni212
ENCODING 530
SWIDTH 600 0
DWIDTH 6 0
BBX 5 10 0 0
BITMAP
70
88
00
F0
88
88
F0
90
88
88
ENDCHAR
STARTCHAR uni213
ENCODING 531
SWIDTH 600 0
DWIDTH 6 0
BBX 5 8 0 0
BITMAP
70
88
00
B0
C8
80
80
80
ENDCHAR
STARTCHAR uni214
ENCODING 532
SWIDTH 600 0
DWIDTH 6 0
BBX 5 10 0 0
BITMAP
90
48
00
88
88
88
88
88
98
68
ENDCHAR
STARTCHAR uni215
ENCODING 533
SWIDTH 600 0
DWIDTH 6 0
BBX 5 8 0 0
BITMAP
90
48
00
88
88
88
98
68
ENDCHAR
STARTCHAR uni216
ENCODING 534
SWIDTH 600 0
DWIDTH 6 0
BBX 5 10 0 0
BITMAP
70
88
00
88
88
88
88
88
98
68
ENDCHAR
STARTCHAR uni217
ENCODING 535
SWIDTH 600 0
DWIDTH 6 0
BBX 5 8 0 0
BITMAP
70
88
00
88
88
88
98
68
ENDCHAR
STARTCHAR uni218
ENCODING 536
SWIDTH 600 0
DWIDTH 6 0
BBX 5 11 0 -4
BITMAP
70
88
80
70
08
88
70
00
10
10
20
ENDCHAR
STARTCHAR uni219
ENCODING 537
SWIDTH 600 0
DWIDTH 6 0
BBX 5 9 0 -4
BITMAP
78
80
70
08
F0
00
10
10
20
ENDCHAR
STARTCHAR uni21A
ENCODING 538
SWIDTH 600 0
DWIDTH 6 0
BBX 5 11 0 -4
BITMAP
F8
20
20
20
20
20
20
00
10
10
20
ENDCHAR
STARTCHAR uni21B
ENCODING 539
SWIDTH 600 0
DWIDTH 6 0
BBX 5 11 0 -4
BITMAP
40
40
F0
40
40
48
30
00
10
10
20
ENDCHAR
STARTCHAR uni21E
ENCODING 542
SWIDTH 600 0
DWIDTH 6 0
BBX 5 10 0 0
BITMAP
50
20
00
88
88
88
F8
88
88
88
ENDCHAR
STARTCHAR uni21F
ENCODING 543
SWIDTH 600 0
DWIDTH 6 0
BBX 5 10 0 0
BITMAP
50
20
00
80
80
B0
C8
88
88
88
ENDCHAR
STARTCHAR uni226
ENCODING 550
SWIDTH 600 0
DWIDTH 6 0
BBX 5 9 0 0
BITMAP
20
00
70
88
88
F8
88
88
88
ENDCHAR
STARTCHAR uni227
ENCODING 551
SWIDTH 600 0
DWIDTH 6 0
BBX 5 7 0 0
BITMAP
20
00
70
88
88
98
68
ENDCHAR
STARTCHAR uni228
ENCODING 552
SWIDTH 600 0
DWIDTH 6 0
BBX 5 10 0 -3
BITMAP
F8
80
80
F0
80
80
F8
20
10
60
ENDCHAR
STARTCHAR uni229
ENCODING 553
SWIDTH 600 0
DWIDTH 6 0
BBX 5 8 0 -3
BITMAP
70
88
F8
80
78
20
10
60
ENDCHAR
STARTCHAR uni22A
ENCODING 554
SWIDTH 600 0
DWIDTH 6 0
BBX 5 11 0 0
BITMAP
70
00
50
00
70
88
88
88
88
88
70
ENDCHAR
STARTCHAR uni22B
ENCODING 555
SWIDTH 600 0
DWIDTH 6 0
BBX 5 9 0 0
BITMAP
70
00
50
00
70
88
88
88
70
ENDCHAR
STARTCHAR uni22C
ENCODING 556
SWIDTH 600 0
DWIDTH 6 0
BBX 5 12 0 0
BITMAP
28
50
00
70
00
70
88
88
88
88
88
70
ENDCHAR
STARTCHAR uni22D
ENCODING 557
SWIDTH 600 0
DWIDTH 6 0
BBX 5 10 0 0
BITMAP
28
50
00
70
00
70
88
88
88
70
ENDCHAR
STARTCHAR uni22E
ENCODING 558
SWIDTH 600 0
DWIDTH 6 0
BBX 5 9 0 0
BITMAP
20
00
70
88
88
88
88
88
70
ENDCHAR
STARTCHAR uni22F
ENCODING 559
SWIDTH 600 0
DWIDTH 6 0
BBX 5 7 0 0
BITMAP
20
00
70
88
88
88
70
ENDCHAR
STARTCHAR uni230
ENCODING 560
SWIDTH 600 0
DWIDTH 6 0
BBX 5 11 0 0
BITMAP
70
00
20
00
70
88
88
88
88
88
70
ENDCHAR
STARTCHAR uni231
ENCODING 561
SWIDTH 600 0
DWIDTH 6 0
BBX 5 9 0 0
BITMAP
70
00
20
00
70
88
88
88
70
ENDCHAR
STARTCHAR uni232
ENCODING 562
SWIDTH 600 0
DWIDTH 6 0
BBX 5 9 0 0
BITMAP
70
00
88
88
88
50
20
20
20
ENDCHAR
STARTCHAR uni233
ENCODING 563
SWIDTH 600 0
DWIDTH 6 0
BBX 5 10 0 -3
BITMAP
70
00
88
88
88
98
68
08
88
70
ENDCHAR
STARTCHAR uni238
ENCODING 568
SWIDTH 600 0
DWIDTH 6 0
BBX 5 6 0 0
BITMAP
20
20
70
A8
A8
70
ENDCHAR
STARTCHAR uni239
ENCODING 569
SWIDTH 600 0
DWIDTH 6 0
BBX 5 6 0 0
BITMAP
70
A8
A8
70
20
20
ENDCHAR
STARTCHAR uni24C
ENCODING 588
SWIDTH 600 0
DWIDTH 6 0
BBX 6 7 -1 0
BITMAP
78
44
44
F8
48
44
44
ENDCHAR
STARTCHAR uni24D
ENCODING 589
SWIDTH 600 0
DWIDTH 6 0
BBX 6 5 -1 0
BITMAP
58
64
40
E0
40
ENDCHAR
STARTCHAR uni24E
ENCODING 590
SWIDTH 600 0
DWIDTH 6 0
BBX 7 7 -1 0
BITMAP
44
FE
44
28
10
10
10
ENDCHAR
STARTCHAR uni24F
ENCODING 591
SWIDTH 600 0
DWIDTH 6 0
BBX 7 7 -1 -3
BITMAP
44
FE
4C
34
04
44
38
ENDCHAR
STARTCHAR uni250
ENCODING 592
SWIDTH 600 0
DWIDTH 6 0
BBX 5 6 0 0
BITMAP
B8
C8
98
E0
88
70
ENDCHAR
STARTCHAR uni251
ENCODING 593
SWIDTH 600 0
DWIDTH 6 0
BBX 5 5 0 0
BITMAP
68
98
88
98
68
ENDCHAR
STARTCHAR uni252
ENCODING 594
SWIDTH 600 0
DWIDTH 6 0
BBX 5 5 0 0
BITMAP
B0
C8
88
C8
B0
ENDCHAR
STARTCHAR uni253
ENCODING 595
SWIDTH 600 0
DWIDTH 6 0
BBX 5 8 0 0
BITMAP
60
80
80
B0
C8
88
88
F0
ENDCHAR
STARTCHAR uni254
ENCODING 596
SWIDTH 600 0
DWIDTH 6 0
BBX 5 5 0 0
BITMAP
70
88
08
08
F0
ENDCHAR
STARTCHAR uni255
ENCODING 597
SWIDTH 600 0
DWIDTH 6 0
BBX 5 7 0 -1
BITMAP
70
80
B0
C8
88
F0
80
ENDCHAR
STARTCHAR uni256
ENCODING 598
SWIDTH 600 0
DWIDTH 6 0
BBX 6 9 0 -2
BITMAP
08
08
78
88
88
98
68
08
04
ENDCHAR
STARTCHAR uni257
ENCODING 599
SWIDTH 600 0
DWIDTH 6 0
BBX 6 9 0 0
BITMAP
04
08
08
08
78
88
88
98
68
ENDCHAR
STARTCHAR uni258
ENCODING 600
SWIDTH 600 0
DWIDTH 6 0
BBX 5 5 0 0
BITMAP
70
88
F8
08
F0
ENDCHAR
STARTCHAR uni259
ENCODING 601
SWIDTH 600 0
DWIDTH 6 0
BBX 5 5 0 0
BITMAP
F0
08
F8
88
70
ENDCHAR
STARTCHAR uni25A
ENCODING 602
SWIDTH 600 0
DWIDTH 6 0
BBX 7 5 0 0
BITMAP
F0
08
FC
8A
70
ENDCHAR
STARTCHAR uni25B
ENCODING 603
SWIDTH 600 0
DWIDTH 6 0
BBX 5 5 0 0
BITMAP
70
88
60
88
70
ENDCHAR
STARTCHAR uni25C
ENCODING 604
SWIDTH 600 0
DWIDTH 6 0
BBX 5 5 0 0
BITMAP
70
88
30
88
70
ENDCHAR
STARTCHAR uni25D
ENCODING 605
SWIDTH 600 0
DWIDTH 6 0
BBX 7 5 0 0
BITMAP
70
8C
32
88
70
ENDCHAR
STARTCHAR uni25E
ENCODING 606
SWIDTH 600 0
DWIDTH 6 0
BBX 5 5 0 0
BITMAP
70
88
90
88
70
ENDCHAR
STARTCHAR uni25F
ENCODING 607
SWIDTH 600 0
DWIDTH 6 0
BBX 5 7 0 0
BITMAP
10
10
10
78
10
90
60
ENDCHAR
STARTCHAR uni260
ENCODING 608
SWIDTH 600 0
DWIDTH 6 0
BBX 6 10 0 -3
BITMAP
04
08
18
68
88
98
68
08
88
70
ENDCHAR
STARTCHAR uni261
ENCODING 609
SWIDTH 600 0
DWIDTH 6 0
BBX 5 8 0 -3
BITMAP
18
68
88
98
68
08
88
70
ENDCHAR
STARTCHAR uni262
ENCODING 610
SWIDTH 600 0
DWIDTH 6 0
BBX 5 5 0 0
BITMAP
78
80
B8
88
78
ENDCHAR
STARTCHAR uni265
ENCODING 613
SWIDTH 600 0
DWIDTH 6 0
BBX 5 7 0 0
BITMAP
88
88
88
98
68
08
08
ENDCHAR
STARTCHAR uni266
ENCODING 614
SWIDTH 600 0
DWIDTH 6 0
BBX 5 8 0 0
BITMAP
60
80
80
B0
C8
88
88
88
ENDCHAR
STARTCHAR uni267
ENCODING 615
SWIDTH 600 0
DWIDTH 6 0
BBX 5 10 0 -2
BITMAP
60
80
80
B0
C8
88
88
88
08
10
ENDCHAR
STARTCHAR uni268
ENCODING 616
SWIDTH 600 0
DWIDTH 6 0
BBX 5 7 0 0
BITMAP
20
00
20
F8
20
20
20
ENDCHAR
STARTCHAR uni269
ENCODING 617
SWIDTH 600 0
DWIDTH 6 0
BBX 5 5 0 0
BITMAP
C0
40
40
48
30
ENDCHAR
STARTCHAR uni26A
ENCODING 618
SWIDTH 600 0
DWIDTH 6 0
BBX 5 5 0 0
BITMAP
F8
20
20
20
F8
ENDCHAR
STARTCHAR uni26B
ENCODING 619
SWIDTH 600 0
DWIDTH 6 0
BBX 5 7 0 0
BITMAP
C0
40
68
D0
40
48
30
ENDCHAR
STARTCHAR uni26C
ENCODING 620
SWIDTH 600 0
DWIDTH 6 0
BBX 6 7 -1 0
BITMAP
60
20
60
A8
70
24
18
ENDCHAR
STARTCHAR uni26D
ENCODING 621
SWIDTH 600 0
DWIDTH 6 0
BBX 5 9 0 -2
BITMAP
C0
40
40
40
40
40
40
48
30
ENDCHAR
STARTCHAR uni26E
ENCODING 622
SWIDTH 600 0
DWIDTH 6 0
BBX 5 7 0 0
BITMAP
80
F8
90
A0
90
88
B0
ENDCHAR
STARTCHAR uni26F
ENCODING 623
SWIDTH 600 0
DWIDTH 6 0
BBX 5 5 0 0
BITMAP
A8
A8
A8
A8
58
ENDCHAR
STARTCHAR uni270
ENCODING 624
SWIDTH 600 0
DWIDTH 6 0
BBX 5 7 0 -2
BITMAP
A8
A8
A8
A8
58
08
08
ENDCHAR
STARTCHAR uni271
ENCODING 625
SWIDTH 600 0
DWIDTH 6 0
BBX 5 7 0 -2
BITMAP
D0
A8
A8
A8
A8
08
10
ENDCHAR
STARTCHAR uni272
ENCODING 626
SWIDTH 600 0
DWIDTH 6 0
BBX 6 7 -1 -2
BITMAP
58
64
44
44
44
40
80
ENDCHAR
STARTCHAR uni273
ENCODING 627
SWIDTH 600 0
DWIDTH 6 0
BBX 6 7 0 -2
BITMAP
B0
C8
88
88
88
08
04
ENDCHAR
STARTCHAR uni274
ENCODING 628
SWIDTH 600 0
DWIDTH 6 0
BBX 5 5 0 0
BITMAP
88
C8
A8
98
88
ENDCHAR
STARTCHAR uni275
ENCODING 629
SWIDTH 600 0
DWIDTH 6 0
BBX 5 5 0 0
BITMAP
70
88
F8
88
70
ENDCHAR
STARTCHAR uni277
ENCODING 631
SWIDTH 600 0
DWIDTH 6 0
BBX 5 5 0 0
BITMAP
70
88
88
A8
50
ENDCHAR
STARTCHAR uni278
ENCODING 632
SWIDTH 600 0
DWIDTH 6 0
BBX 5 7 0 0
BITMAP
20
70
A8
A8
A8
70
20
ENDCHAR
STARTCHAR uni280
ENCODING 640
SWIDTH 600 0
DWIDTH 6 0
BBX 5 5 0 0
BITMAP
F0
88
F0
90
88
ENDCHAR
STARTCHAR uni281
ENCODING 641
SWIDTH 600 0
DWIDTH 6 0
BBX 5 5 0 0
BITMAP
88
90
F0
88
F0
ENDCHAR
STARTCHAR uni287
ENCODING 647
SWIDTH 600 0
DWIDTH 6 0
BBX 5 7 0 0
BITMAP
60
90
10
10
78
10
10
ENDCHAR
STARTCHAR uni288
ENCODING 648
SWIDTH 600 0
DWIDTH 6 0
BBX 5 9 0 -2
BITMAP
40
40
F0
40
40
40
40
48
30
ENDCHAR
STARTCHAR uni289
ENCODING 649
SWIDTH 600 0
DWIDTH 6 0
BBX 7 5 -1 0
BITMAP
44
FE
44
4C
34
ENDCHAR
STARTCHAR uni28A
ENCODING 650
SWIDTH 600 0
DWIDTH 6 0
BBX 5 6 0 0
BITMAP
88
50
88
88
88
70
ENDCHAR
STARTCHAR uni28B
ENCODING 651
SWIDTH 600 0
DWIDTH 6 0
BBX 5 5 0 0
BITMAP
B0
88
88
90
60
ENDCHAR
STARTCHAR uni28C
ENCODING 652
SWIDTH 600 0
DWIDTH 6 0
BBX 5 5 0 0
BITMAP
20
50
50
88
88
ENDCHAR
STARTCHAR uni28D
ENCODING 653
SWIDTH 600 0
DWIDTH 6 0
BBX 5 5 0 0
BITMAP
50
50
A8
A8
88
ENDCHAR
STARTCHAR uni298
ENCODING 664
SWIDTH 600 0
DWIDTH 6 0
BBX 5 7 0 0
BITMAP
70
88
88
A8
88
88
70
ENDCHAR
STARTCHAR uni299
ENCODING 665
SWIDTH 600 0
DWIDTH 6 0
BBX 5 5 0 0
BITMAP
F0
88
F0
88
F0
ENDCHAR
STARTCHAR uni29A
ENCODING 666
SWIDTH 600 0
DWIDTH 6 0
BBX 5 5 0 0
BITMAP
70
88
48
88
70
ENDCHAR
STARTCHAR uni29B
ENCODING 667
SWIDTH 600 0
DWIDTH 6 0
BBX 6 7 0 0
BITMAP
04
08
78
80
B8
88
78
ENDCHAR
STARTCHAR uni29C
ENCODING 668
SWIDTH 600 0
DWIDTH 6 0
BBX 5 5 0 0
BITMAP
88
88
F8
88
88
ENDCHAR
STARTCHAR uni29E
ENCODING 670
SWIDTH 600 0
DWIDTH 6 0
BBX 5 7 0 0
BITMAP
88
88
58
28
C8
08
08
ENDCHAR
STARTCHAR uni29F
ENCODING 671
SWIDTH 600 0
DWIDTH 6 0
BBX 5 5 0 0
BITMAP
80
80
80
80
F8
ENDCHAR
STARTCHAR uni2AC
ENCODING 684
SWIDTH 600 0
DWIDTH 6 0
BBX 5 7 0 0
BITMAP
A8
A8
50
00
A8
A8
50
ENDCHAR
STARTCHAR circumflex
ENCODING 710
SWIDTH 600 0
DWIDTH 6 0
BBX 3 2 1 6
BITMAP
40
A0
ENDCHAR
STARTCHAR ring
ENCODING 730
SWIDTH 600 0
DWIDTH 6 0
BBX 3 3 1 6
BITMAP
40
A0
40
ENDCHAR
STARTCHAR tilde
ENCODING 732
SWIDTH 600 0
DWIDTH 6 0
BBX 4 2 1 3
BITMAP
50
A0
ENDCHAR
STARTCHAR uni1E00
ENCODING 7680
SWIDTH 600 0
DWIDTH 6 0
BBX 5 10 0 -3
BITMAP
70
88
88
F8
88
88
88
20
50
20
ENDCHAR
STARTCHAR uni1E01
ENCODING 7681
SWIDTH 600 0
DWIDTH 6 0
BBX 5 8 0 -3
BITMAP
70
88
88
98
68
20
50
20
ENDCHAR
STARTCHAR uni1E02
ENCODING 7682
SWIDTH 600 0
DWIDTH 6 0
BBX 5 9 0 0
BITMAP
20
00
E0
90
90
F0
88
88
F0
ENDCHAR
STARTCHAR uni1E03
ENCODING 7683
SWIDTH 600 0
DWIDTH 6 0
BBX 5 7 0 0
BITMAP
A0
80
B0
C8
88
88
F0
ENDCHAR
STARTCHAR uni1E04
ENCODING 7684
SWIDTH 600 0
DWIDTH 6 0
BBX 5 9 0 -2
BITMAP
E0
90
90
F0
88
88
F0
00
20
ENDCHAR
STARTCHAR uni1E05
ENCODING 7685
SWIDTH 600 0
DWIDTH 6 0
BBX 5 9 0 -2
BITMAP
80
80
B0
C8
88
88
F0
00
20
ENDCHAR
STARTCHAR uni1E06
ENCODING 7686
SWIDTH 600 0
DWIDTH 6 0
BBX 5 9 0 -2
BITMAP
E0
90
90
F0
88
88
F0
00
70
ENDCHAR
STARTCHAR uni1E07
ENCODING 7687
SWIDTH 600 0
DWIDTH 6 0
BBX 5 9 0 -2
BITMAP
80
80
B0
C8
88
88
F0
00
70
ENDCHAR
STARTCHAR uni1E08
ENCODING 7688
SWIDTH 600 0
DWIDTH 6 0
BBX 5 13 0 -3
BITMAP
30
40
00
70
88
80
80
80
80
78
20
10
60
ENDCHAR
STARTCHAR uni1E09
ENCODING 7689
SWIDTH 600 0
DWIDTH 6 0
BBX 5 11 0 -3
BITMAP
30
40
00
70
88
80
80
78
20
10
60
ENDCHAR
STARTCHAR uni1E0A
ENCODING 7690
SWIDTH 600 0
DWIDTH 6 0
BBX 5 9 0 0
BITMAP
20
00
E0
90
88
88
88
90
E0
ENDCHAR
STARTCHAR uni1E0B
ENCODING 7691
SWIDTH 600 0
DWIDTH 6 0
BBX 5 7 0 0
BITMAP
28
08
78
88
88
98
68
ENDCHAR
STARTCHAR uni1E0C
ENCODING 7692
SWIDTH 600 0
DWIDTH 6 0
BBX 5 9 0 -2
BITMAP
E0
90
88
88
88
90
E0
00
20
ENDCHAR
STARTCHAR uni1E0D
ENCODING 7693
SWIDTH 600 0
DWIDTH 6 0
BBX 5 9 0 -2
BITMAP
08
08
78
88
88
98
68
00
20
ENDCHAR
STARTCHAR uni1E0E
ENCODING 7694
SWIDTH 600 0
DWIDTH 6 0
BBX 5 9 0 -2
BITMAP
E0
90
88
88
88
90
E0
00
70
ENDCHAR
STARTCHAR uni1E0F
ENCODING 7695
SWIDTH 600 0
DWIDTH 6 0
BBX 5 9 0 -2
BITMAP
08
08
78
88
88
98
68
00
70
ENDCHAR
STARTCHAR uni1E10
ENCODING 7696
SWIDTH 600 0
DWIDTH 6 0
BBX 5 10 0 -3
BITMAP
E0
90
88
88
88
90
E0
20
10
60
ENDCHAR
STARTCHAR uni1E11
ENCODING 7697
SWIDTH 600 0
DWIDTH 6 0
BBX 5 10 0 -3
BITMAP
08
08
78
88
88
98
68
20
10
60
ENDCHAR
STARTCHAR uni1E12
ENCODING 7698
SWIDTH 600 0
DWIDTH 6 0
BBX 5 10 0 -3
BITMAP
E0
90
88
88
88
90
E0
00
20
50
ENDCHAR
STARTCHAR uni1E13
ENCODING 7699
SWIDTH 600 0
DWIDTH 6 0
BBX 5 10 0 -3
BITMAP
08
08
78
88
88
98
68
00
20
50
ENDCHAR
STARTCHAR uni1E14
ENCODING 7700
SWIDTH 600 0
DWIDTH 6 0
BBX 5 11 0 0
BITMAP
40
20
70
00
F8
80
80
F0
80
80
F8
ENDCHAR
STARTCHAR uni1E15
ENCODING 7701
SWIDTH 600 0
DWIDTH 6 0
BBX 5 9 0 0
BITMAP
40
20
70
00
70
88
F8
80
78
ENDCHAR
STARTCHAR uni1E16
ENCODING 7702
SWIDTH 600 0
DWIDTH 6 0
BBX 5 11 0 0
BITMAP
10
20
70
00
F8
80
80
F0
80
80
F8
ENDCHAR
STARTCHAR uni1E17
ENCODING 7703
SWIDTH 600 0
DWIDTH 6 0
BBX 5 9 0 0
BITMAP
10
20
70
00
70
88
F8
80
78
ENDCHAR
STARTCHAR uni1E18
ENCODING 7704
SWIDTH 600 0
DWIDTH 6 0
BBX 5 10 0 -3
BITMAP
F8
80
80
F0
80
80
F8
00
20
50
ENDCHAR
STARTCHAR uni1E19
ENCODING 7705
SWIDTH 600 0
DWIDTH 6 0
BBX 5 8 0 -3
BITMAP
70
88
F8
80
78
00
20
50
ENDCHAR
STARTCHAR uni1E1A
ENCODING 7706
SWIDTH 600 0
DWIDTH 6 0
BBX 5 10 0 -3
BITMAP
F8
80
80
F0
80
80
F8
00
28
50
ENDCHAR
STARTCHAR uni1E1B
ENCODING 7707
SWIDTH 600 0
DWIDTH 6 0
BBX 5 8 0 -3
BITMAP
70
88
F8
80
78
00
28
50
ENDCHAR
STARTCHAR uni1E1C
ENCODING 7708
SWIDTH 600 0
DWIDTH 6 0
BBX 5 13 0 -3
BITMAP
88
70
00
F8
80
80
F0
80
80
F8
20
10
60
ENDCHAR
STARTCHAR uni1E1D
ENCODING 7709
SWIDTH 600 0
DWIDTH 6 0
BBX 5 11 0 -3
BITMAP
88
70
00
70
88
F8
80
78
20
10
60
ENDCHAR
STARTCHAR uni1E1E
ENCODING 7710
SWIDTH 600 0
DWIDTH 6 0
BBX 5 9 0 0
BITMAP
20
00
F8
80
80
F0
80
80
80
ENDCHAR
STARTCHAR uni1E1F
ENCODING 7711
SWIDTH 600 0
DWIDTH 6 0
BBX 5 9 0 0
BITMAP
20
00
30
48
40
F0
40
40
40
ENDCHAR
STARTCHAR uni1E20
ENCODING 7712
SWIDTH 600 0
DWIDTH 6 0
BBX 5 9 0 0
BITMAP
70
00
70
88
80
B8
88
88
78
ENDCHAR
STARTCHAR uni1E21
ENCODING 7713
SWIDTH 600 0
DWIDTH 6 0
BBX 5 10 0 -3
BITMAP
70
00
78
88
88
88
78
08
88
70
ENDCHAR
STARTCHAR uni1E22
ENCODING 7714
SWIDTH 600 0
DWIDTH 6 0
BBX 5 9 0 0
BITMAP
20
00
88
88
88
F8
88
88
88
ENDCHAR
STARTCHAR uni1E23
ENCODING 7715
SWIDTH 600 0
DWIDTH 6 0
BBX 5 7 0 0
BITMAP
A0
80
B0
C8
88
88
88
ENDCHAR
STARTCHAR uni1E24
ENCODING 7716
SWIDTH 600 0
DWIDTH 6 0
BBX 5 9 0 -2
BITMAP
88
88
88
F8
88
88
88
00
20
ENDCHAR
STARTCHAR uni1E25
ENCODING 7717
SWIDTH 600 0
DWIDTH 6 0
BBX 5 8 0 -1
BITMAP
80
80
B0
C8
88
88
88
20
ENDCHAR
STARTCHAR uni1E26
ENCODING 7718
SWIDTH 600 0
DWIDTH 6 0
BBX 5 9 0 0
BITMAP
50
00
88
88
88
F8
88
88
88
ENDCHAR
STARTCHAR uni1E27
ENCODING 7719
SWIDTH 600 0
DWIDTH 6 0
BBX 5 9 0 0
BITMAP
50
00
80
80
B0
C8
88
88
88
ENDCHAR
STARTCHAR uni1E28
ENCODING 7720
SWIDTH 600 0
DWIDTH 6 0
BBX 5 10 0 -3
BITMAP
88
88
88
F8
88
88
88
20
10
60
ENDCHAR
STARTCHAR uni1E29
ENCODING 7721
SWIDTH 600 0
DWIDTH 6 0
BBX 5 10 0 -3
BITMAP
80
80
B0
C8
88
88
88
20
10
60
ENDCHAR
STARTCHAR uni1E2A
ENCODING 7722
SWIDTH 600 0
DWIDTH 6 0
BBX 5 10 0 -3
BITMAP
88
88
88
F8
88
88
88
00
88
70
ENDCHAR
STARTCHAR uni1E2B
ENCODING 7723
SWIDTH 600 0
DWIDTH 6 0
BBX 5 10 0 -3
BITMAP
80
80
B0
C8
88
88
88
00
88
70
ENDCHAR
STARTCHAR uni1E2C
ENCODING 7724
SWIDTH 600 0
DWIDTH 6 0
BBX 5 10 0 -3
BITMAP
F8
20
20
20
20
20
F8
00
28
50
ENDCHAR
STARTCHAR uni1E2D
ENCODING 7725
SWIDTH 600 0
DWIDTH 6 0
BBX 5 10 0 -3
BITMAP
20
00
E0
20
20
20
F8
00
28
50
ENDCHAR
STARTCHAR uni1E2E
ENCODING 7726
SWIDTH 600 0
DWIDTH 6 0
BBX 5 11 0 0
BITMAP
30
40
50
00
F8
20
20
20
20
20
F8
ENDCHAR
STARTCHAR uni1E2F
ENCODING 7727
SWIDTH 600 0
DWIDTH 6 0
BBX 5 9 0 0
BITMAP
30
40
50
00
E0
20
20
20
F8
ENDCHAR
STARTCHAR uni1E30
ENCODING 7728
SWIDTH 600 0
DWIDTH 6 0
BBX 5 10 0 0
BITMAP
30
40
00
88
90
A0
D0
88
88
88
ENDCHAR
STARTCHAR uni1E31
ENCODING 7729
SWIDTH 600 0
DWIDTH 6 0
BBX 5 10 0 0
BITMAP
30
40
00
80
80
98
A0
D0
88
88
ENDCHAR
STARTCHAR uni1E32
ENCODING 7730
SWIDTH 600 0
DWIDTH 6 0
BBX 5 9 0 -2
BITMAP
88
90
A0
D0
88
88
88
00
20
ENDCHAR
STARTCHAR uni1E33
ENCODING 7731
SWIDTH 600 0
DWIDTH 6 0
BBX 5 9 0 -2
BITMAP
80
80
98
A0
D0
88
88
00
20
ENDCHAR
STARTCHAR uni1E34
ENCODING 7732
SWIDTH 600 0
DWIDTH 6 0
BBX 5 9 0 -2
BITMAP
88
90
A0
D0
88
88
88
00
70
ENDCHAR
STARTCHAR uni1E35
ENCODING 7733
SWIDTH 600 0
DWIDTH 6 0
BBX 5 9 0 -2
BITMAP
80
80
98
A0
D0
88
88
00
70
ENDCHAR
STARTCHAR uni1E36
ENCODING 7734
SWIDTH 600 0
DWIDTH 6 0
BBX 5 9 0 -2
BITMAP
80
80
80
80
80
80
F8
00
20
ENDCHAR
STARTCHAR uni1E37
ENCODING 7735
SWIDTH 600 0
DWIDTH 6 0
BBX 5 9 0 -2
BITMAP
C0
40
40
40
40
48
30
00
20
ENDCHAR
STARTCHAR uni1E38
ENCODING 7736
SWIDTH 600 0
DWIDTH 6 0
BBX 5 11 0 -2
BITMAP
70
00
80
80
80
80
80
80
F8
00
20
ENDCHAR
STARTCHAR uni1E39
ENCODING 7737
SWIDTH 600 0
DWIDTH 6 0
BBX 5 11 0 -2
BITMAP
70
00
C0
40
40
40
40
48
30
00
20
ENDCHAR
STARTCHAR uni1E3A
ENCODING 7738
SWIDTH 600 0
DWIDTH 6 0
BBX 5 9 0 -2
BITMAP
80
80
80
80
80
80
F8
00
70
ENDCHAR
STARTCHAR uni1E3B
ENCODING 7739
SWIDTH 600 0
DWIDTH 6 0
BBX 5 9 0 -2
BITMAP
C0
40
40
40
40
48
30
00
70
ENDCHAR
STARTCHAR uni1E3C
ENCODING 7740
SWIDTH 600 0
DWIDTH 6 0
BBX 5 10 0 -3
BITMAP
80
80
80
80
80
80
F8
00
20
50
ENDCHAR
STARTCHAR uni1E3D
ENCODING 7741
SWIDTH 600 0
DWIDTH 6 0
BBX 5 10 0 -3
BITMAP
C0
40
40
40
40
48
30
00
20
50
ENDCHAR
STARTCHAR uni1E3E
ENCODING 7742
SWIDTH 600 0
DWIDTH 6 0
BBX 5 10 0 0
BITMAP
30
40
00
88
D8
A8
A8
88
88
88
ENDCHAR
STARTCHAR uni1E3F
ENCODING 7743
SWIDTH 600 0
DWIDTH 6 0
BBX 5 8 0 0
BITMAP
30
40
00
D0
A8
A8
A8
A8
ENDCHAR
STARTCHAR uni1E40
ENCODING 7744
SWIDTH 600 0
DWIDTH 6 0
BBX 5 9 0 0
BITMAP
20
00
88
D8
A8
A8
88
88
88
ENDCHAR
STARTCHAR uni1E41
ENCODING 7745
SWIDTH 600 0
DWIDTH 6 0
BBX 5 7 0 0
BITMAP
20
00
D0
A8
A8
A8
A8
ENDCHAR
STARTCHAR uni1E42
ENCODING 7746
SWIDTH 600 0
DWIDTH 6 0
BBX 5 9 0 -2
BITMAP
88
D8
A8
A8
88
88
88
00
20
ENDCHAR
STARTCHAR uni1E43
ENCODING 7747
SWIDTH 600 0
DWIDTH 6 0
BBX 5 7 0 -2
BITMAP
D0
A8
A8
A8
A8
00
20
ENDCHAR
STARTCHAR uni1E44
ENCODING 7748
SWIDTH 600 0
DWIDTH 6 0
BBX 5 9 0 0
BITMAP
20
00
88
88
C8
A8
98
88
88
ENDCHAR
STARTCHAR uni1E45
ENCODING 7749
SWIDTH 600 0
DWIDTH 6 0
BBX 5 7 0 0
BITMAP
20
00
B0
C8
88
88
88
ENDCHAR
STARTCHAR uni1E46
ENCODING 7750
SWIDTH 600 0
DWIDTH 6 0
BBX 5 9 0 -2
BITMAP
88
88
C8
A8
98
88
88
00
20
ENDCHAR
STARTCHAR uni1E47
ENCODING 7751
SWIDTH 600 0
DWIDTH 6 0
BBX 5 7 0 -2
BITMAP
B0
C8
88
88
88
00
20
ENDCHAR
STARTCHAR uni1E48
ENCODING 7752
SWIDTH 600 0
DWIDTH 6 0
BBX 5 9 0 -2
BITMAP
88
88
C8
A8
98
88
88
00
70
ENDCHAR
STARTCHAR uni1E49
ENCODING 7753
SWIDTH 600 0
DWIDTH 6 0
BBX 5 7 0 -2
BITMAP
B0
C8
88
88
88
00
70
ENDCHAR
STARTCHAR uni1E4A
ENCODING 7754
SWIDTH 600 0
DWIDTH 6 0
BBX 5 10 0 -3
BITMAP
88
88
C8
A8
98
88
88
00
20
50
ENDCHAR
STARTCHAR uni1E4B
ENCODING 7755
SWIDTH 600 0
DWIDTH 6 0
BBX 5 8 0 -3
BITMAP
B0
C8
88
88
88
00
20
50
ENDCHAR
STARTCHAR uni1E4C
ENCODING 7756
SWIDTH 600 0
DWIDTH 6 0
BBX 5 12 0 0
BITMAP
30
40
28
50
00
70
88
88
88
88
88
70
ENDCHAR
STARTCHAR uni1E4D
ENCODING 7757
SWIDTH 600 0
DWIDTH 6 0
BBX 5 10 0 0
BITMAP
30
40
28
50
00
70
88
88
88
70
ENDCHAR
STARTCHAR uni1E4E
ENCODING 7758
SWIDTH 600 0
DWIDTH 6 0
BBX 5 12 0 0
BITMAP
50
00
28
50
00
70
88
88
88
88
88
70
ENDCHAR
STARTCHAR uni1E4F
ENCODING 7759
SWIDTH 600 0
DWIDTH 6 0
BBX 5 10 0 0
BITMAP
50
00
28
50
00
70
88
88
88
70
ENDCHAR
STARTCHAR uni1E50
ENCODING 7760
SWIDTH 600 0
DWIDTH 6 0
BBX 5 11 0 0
BITMAP
40
20
70
00
70
88
88
88
88
88
70
ENDCHAR
STARTCHAR uni1E51
ENCODING 7761
SWIDTH 600 0
DWIDTH 6 0
BBX 5 9 0 0
BITMAP
40
20
70
00
70
88
88
88
70
ENDCHAR
STARTCHAR uni1E52
ENCODING 7762
SWIDTH 600 0
DWIDTH 6 0
BBX 5 11 0 0
BITMAP
10
20
70
00
70
88
88
88
88
88
70
ENDCHAR
STARTCHAR uni1E53
ENCODING 7763
SWIDTH 600 0
DWIDTH 6 0
BBX 5 9 0 0
BITMAP
10
20
70
00
70
88
88
88
70
ENDCHAR
STARTCHAR uni1E54
ENCODING 7764
SWIDTH 600 0
DWIDTH 6 0
BBX 5 10 0 0
BITMAP
30
40
00
F0
88
88
F0
80
80
80
ENDCHAR
STARTCHAR uni1E55
ENCODING 7765
SWIDTH 600 0
DWIDTH 6 0
BBX 5 11 0 -3
BITMAP
30
40
00
B0
C8
88
88
F0
80
80
80
ENDCHAR
STARTCHAR uni1E56
ENCODING 7766
SWIDTH 600 0
DWIDTH 6 0
BBX 5 9 0 0
BITMAP
20
00
F0
88
88
F0
80
80
80
ENDCHAR
STARTCHAR uni1E57
ENCODING 7767
SWIDTH 600 0
DWIDTH 6 0
BBX 5 10 0 -3
BITMAP
20
00
B0
C8
88
88
F0
80
80
80
ENDCHAR
STARTCHAR uni1E58
ENCODING 7768
SWIDTH 600 0
DWIDTH 6 0
BBX 5 9 0 0
BITMAP
20
00
F0
88
88
F0
90
88
88
ENDCHAR
STARTCHAR uni1E59
ENCODING 7769
SWIDTH 600 0
DWIDTH 6 0
BBX 5 7 0 0
BITMAP
20
00
B0
C8
80
80
80
ENDCHAR
STARTCHAR uni1E5A
ENCODING 7770
SWIDTH 600 0
DWIDTH 6 0
BBX 5 9 0 -2
BITMAP
F0
88
88
F0
90
88
88
00
20
ENDCHAR
STARTCHAR uni1E5B
ENCODING 7771
SWIDTH 600 0
DWIDTH 6 0
BBX 5 7 0 -2
BITMAP
B0
C8
80
80
80
00
20
ENDCHAR
STARTCHAR uni1E5C
ENCODING 7772
SWIDTH 600 0
DWIDTH 6 0
BBX 5 11 0 -2
BITMAP
70
00
F0
88
88
F0
90
88
88
00
20
ENDCHAR
STARTCHAR uni1E5D
ENCODING 7773
SWIDTH 600 0
DWIDTH 6 0
BBX 5 9 0 -2
BITMAP
70
00
B0
C8
80
80
80
00
20
ENDCHAR
STARTCHAR uni1E5E
ENCODING 7774
SWIDTH 600 0
DWIDTH 6 0
BBX 5 9 0 -2
BITMAP
F0
88
88
F0
90
88
88
00
70
ENDCHAR
STARTCHAR uni1E5F
ENCODING 7775
SWIDTH 600 0
DWIDTH 6 0
BBX 5 7 0 -2
BITMAP
B0
C8
80
80
80
00
70
ENDCHAR
STARTCHAR uni1E60
ENCODING 7776
SWIDTH 600 0
DWIDTH 6 0
BBX 5 9 0 0
BITMAP
20
00
70
88
80
70
08
88
70
ENDCHAR
STARTCHAR uni1E61
ENCODING 7777
SWIDTH 600 0
DWIDTH 6 0
BBX 5 7 0 0
BITMAP
20
00
78
80
70
08
F0
ENDCHAR
STARTCHAR uni1E62
ENCODING 7778
SWIDTH 600 0
DWIDTH 6 0
BBX 5 9 0 -2
BITMAP
70
88
80
70
08
88
70
00
20
ENDCHAR
STARTCHAR uni1E63
ENCODING 7779
SWIDTH 600 0
DWIDTH 6 0
BBX 5 7 0 -2
BITMAP
78
80
70
08
F0
00
20
ENDCHAR
STARTCHAR uni1E64
ENCODING 7780
SWIDTH 600 0
DWIDTH 6 0
BBX 5 12 0 0
BITMAP
20
00
30
40
00
70
88
80
70
08
88
70
ENDCHAR
STARTCHAR uni1E65
ENCODING 7781
SWIDTH 600 0
DWIDTH 6 0
BBX 5 10 0 0
BITMAP
20
00
30
40
00
78
80
70
08
F0
ENDCHAR
STARTCHAR uni1E66
ENCODING 7782
SWIDTH 600 0
DWIDTH 6 0
BBX 5 12 0 0
BITMAP
20
00
50
20
00
70
88
80
70
08
88
70
ENDCHAR
STARTCHAR uni1E67
ENCODING 7783
SWIDTH 600 0
DWIDTH 6 0
BBX 5 10 0 0
BITMAP
20
00
50
20
00
78
80
70
08
F0
ENDCHAR
STARTCHAR uni1E68
ENCODING 7784
SWIDTH 600 0
DWIDTH 6 0
BBX 5 11 0 -2
BITMAP
20
00
70
88
80
70
08
88
70
00
20
ENDCHAR
STARTCHAR uni1E69
ENCODING 7785
SWIDTH 600 0
DWIDTH 6 0
BBX 5 9 0 -2
BITMAP
20
00
78
80
70
08
F0
00
20
ENDCHAR
STARTCHAR uni1E6A
ENCODING 7786
SWIDTH 600 0
DWIDTH 6 0
BBX 5 9 0 0
BITMAP
20
00
F8
20
20
20
20
20
20
ENDCHAR
STARTCHAR uni1E6B
ENCODING 7787
SWIDTH 600 0
DWIDTH 6 0
BBX 5 9 0 0
BITMAP
20
00
40
40
F0
40
40
48
30
ENDCHAR
STARTCHAR uni1E6C
ENCODING 7788
SWIDTH 600 0
DWIDTH 6 0
BBX 5 9 0 -2
BITMAP
F8
20
20
20
20
20
20
00
20
ENDCHAR
STARTCHAR uni1E6D
ENCODING 7789
SWIDTH 600 0
DWIDTH 6 0
BBX 5 9 0 -2
BITMAP
40
40
F0
40
40
48
30
00
20
ENDCHAR
STARTCHAR uni1E6E
ENCODING 7790
SWIDTH 600 0
DWIDTH 6 0
BBX 5 9 0 -2
BITMAP
F8
20
20
20
20
20
20
00
70
ENDCHAR
STARTCHAR uni1E6F
ENCODING 7791
SWIDTH 600 0
DWIDTH 6 0
BBX 5 9 0 -2
BITMAP
40
40
F0
40
40
48
30
00
70
ENDCHAR
STARTCHAR uni1E70
ENCODING 7792
SWIDTH 600 0
DWIDTH 6 0
BBX 5 10 0 -3
BITMAP
F8
20
20
20
20
20
20
00
20
50
ENDCHAR
STARTCHAR uni1E71
ENCODING 7793
SWIDTH 600 0
DWIDTH 6 0
BBX 5 10 0 -3
BITMAP
40
40
F0
40
40
48
30
00
20
50
ENDCHAR
STARTCHAR uni1E72
ENCODING 7794
SWIDTH 600 0
DWIDTH 6 0
BBX 5 9 0 -2
BITMAP
88
88
88
88
88
98
68
00
50
ENDCHAR
STARTCHAR uni1E73
ENCODING 7795
SWIDTH 600 0
DWIDTH 6 0
BBX 5 7 0 -2
BITMAP
88
88
88
98
68
00
50
ENDCHAR
STARTCHAR uni1E74
ENCODING 7796
SWIDTH 600 0
DWIDTH 6 0
BBX 5 10 0 -3
BITMAP
88
88
88
88
88
98
68
00
28
50
ENDCHAR
STARTCHAR uni1E75
ENCODING 7797
SWIDTH 600 0
DWIDTH 6 0
BBX 5 8 0 -3
BITMAP
88
88
88
98
68
00
28
50
ENDCHAR
STARTCHAR uni1E76
ENCODING 7798
SWIDTH 600 0
DWIDTH 6 0
BBX 5 10 0 -3
BITMAP
88
88
88
88
88
98
68
00
20
50
ENDCHAR
STARTCHAR uni1E77
ENCODING 7799
SWIDTH 600 0
DWIDTH 6 0
BBX 5 8 0 -3
BITMAP
88
88
88
98
68
00
20
50
ENDCHAR
STARTCHAR uni1E78
ENCODING 7800
SWIDTH 600 0
DWIDTH 6 0
BBX 5 12 0 0
BITMAP
30
40
28
50
00
88
88
88
88
88
98
68
ENDCHAR
STARTCHAR uni1E79
ENCODING 7801
SWIDTH 600 0
DWIDTH 6 0
BBX 5 10 0 0
BITMAP
30
40
28
50
00
88
88
88
98
68
ENDCHAR
STARTCHAR uni1E7A
ENCODING 7802
SWIDTH 600 0
DWIDTH 6 0
BBX 5 11 0 0
BITMAP
50
00
70
00
88
88
88
88
88
98
68
ENDCHAR
STARTCHAR uni1E7B
ENCODING 7803
SWIDTH 600 0
DWIDTH 6 0
BBX 5 9 0 0
BITMAP
50
00
70
00
88
88
88
98
68
ENDCHAR
STARTCHAR uni1E7C
ENCODING 7804
SWIDTH 600 0
DWIDTH 6 0
BBX 5 10 0 0
BITMAP
28
50
00
88
88
88
50
50
50
20
ENDCHAR
STARTCHAR uni1E7D
ENCODING 7805
SWIDTH 600 0
DWIDTH 6 0
BBX 5 8 0 0
BITMAP
28
50
00
88
88
50
50
20
ENDCHAR
STARTCHAR uni1E7E
ENCODING 7806
SWIDTH 600 0
DWIDTH 6 0
BBX 5 9 0 -2
BITMAP
88
88
88
50
50
50
20
00
20
ENDCHAR
STARTCHAR uni1E7F
ENCODING 7807
SWIDTH 600 0
DWIDTH 6 0
BBX 5 7 0 -2
BITMAP
88
88
50
50
20
00
20
ENDCHAR
STARTCHAR Wgrave
ENCODING 7808
SWIDTH 600 0
DWIDTH 6 0
BBX 5 10 0 0
BITMAP
60
10
00
88
88
A8
A8
A8
50
50
ENDCHAR
STARTCHAR wgrave
ENCODING 7809
SWIDTH 600 0
DWIDTH 6 0
BBX 5 8 0 0
BITMAP
60
10
00
88
A8
A8
50
50
ENDCHAR
STARTCHAR Wacute
ENCODING 7810
SWIDTH 600 0
DWIDTH 6 0
BBX 5 10 0 0
BITMAP
30
40
00
88
88
A8
A8
A8
50
50
ENDCHAR
STARTCHAR wacute
ENCODING 7811
SWIDTH 600 0
DWIDTH 6 0
BBX 5 8 0 0
BITMAP
30
40
00
88
A8
A8
50
50
ENDCHAR
STARTCHAR Wdieresis
ENCODING 7812
SWIDTH 600 0
DWIDTH 6 0
BBX 5 9 0 0
BITMAP
50
00
88
88
A8
A8
A8
50
50
ENDCHAR
STARTCHAR wdieresis
ENCODING 7813
SWIDTH 600 0
DWIDTH 6 0
BBX 5 7 0 0
BITMAP
50
00
88
A8
A8
50
50
ENDCHAR
STARTCHAR uni1E86
ENCODING 7814
SWIDTH 600 0
DWIDTH 6 0
BBX 5 9 0 0
BITMAP
20
00
88
88
A8
A8
A8
50
50
ENDCHAR
STARTCHAR uni1E87
ENCODING 7815
SWIDTH 600 0
DWIDTH 6 0
BBX 5 7 0 0
BITMAP
20
00
88
A8
A8
50
50
ENDCHAR
STARTCHAR uni1E88
ENCODING 7816
SWIDTH 600 0
DWIDTH 6 0
BBX 5 9 0 -2
BITMAP
88
88
A8
A8
A8
50
50
00
20
ENDCHAR
STARTCHAR uni1E89
ENCODING 7817
SWIDTH 600 0
DWIDTH 6 0
BBX 5 7 0 -2
BITMAP
88
A8
A8
50
50
00
20
ENDCHAR
STARTCHAR uni1E8A
ENCODING 7818
SWIDTH 600 0
DWIDTH 6 0
BBX 5 9 0 0
BITMAP
20
00
88
88
50
20
50
88
88
ENDCHAR
STARTCHAR uni1E8B
ENCODING 7819
SWIDTH 600 0
DWIDTH 6 0
BBX 5 7 0 0
BITMAP
20
00
88
50
20
50
88
ENDCHAR
STARTCHAR uni1E8C
ENCODING 7820
SWIDTH 600 0
DWIDTH 6 0
BBX 5 9 0 0
BITMAP
50
00
88
88
50
20
50
88
88
ENDCHAR
STARTCHAR uni1E8D
ENCODING 7821
SWIDTH 600 0
DWIDTH 6 0
BBX 5 7 0 0
BITMAP
50
00
88
50
20
50
88
ENDCHAR
STARTCHAR uni1E8E
ENCODING 7822
SWIDTH 600 0
DWIDTH 6 0
BBX 5 9 0 0
BITMAP
20
00
88
88
88
50
20
20
20
ENDCHAR
STARTCHAR uni1E8F
ENCODING 7823
SWIDTH 600 0
DWIDTH 6 0
BBX 5 10 0 -3
BITMAP
20
00
88
88
88
98
68
08
88
70
ENDCHAR
STARTCHAR uni1E90
ENCODING 7824
SWIDTH 600 0
DWIDTH 6 0
BBX 5 10 0 0
BITMAP
20
50
00
F8
08
10
20
40
80
F8
ENDCHAR
STARTCHAR uni1E91
ENCODING 7825
SWIDTH 600 0
DWIDTH 6 0
BBX 5 8 0 0
BITMAP
20
50
00
F8
10
20
40
F8
ENDCHAR
STARTCHAR uni1E92
ENCODING 7826
SWIDTH 600 0
DWIDTH 6 0
BBX 5 9 0 -2
BITMAP
F8
08
10
20
40
80
F8
00
20
ENDCHAR
STARTCHAR uni1E93
ENCODING 7827
SWIDTH 600 0
DWIDTH 6 0
BBX 5 7 0 -2
BITMAP
F8
10
20
40
F8
00
20
ENDCHAR
STARTCHAR uni1E94
ENCODING 7828
SWIDTH 600 0
DWIDTH 6 0
BBX 5 9 0 -2
BITMAP
F8
08
10
20
40
80
F8
00
70
ENDCHAR
STARTCHAR uni1E95
ENCODING 7829
SWIDTH 600 0
DWIDTH 6 0
BBX 5 7 0 -2
BITMAP
F8
10
20
40
F8
00
70
ENDCHAR
STARTCHAR uni1E96
ENCODING 7830
SWIDTH 600 0
DWIDTH 6 0
BBX 5 9 0 -2
BITMAP
80
80
B0
C8
88
88
88
00
70
ENDCHAR
STARTCHAR uni1E97
ENCODING 7831
SWIDTH 600 0
DWIDTH 6 0
BBX 5 9 0 0
BITMAP
50
00
40
40
F0
40
40
48
30
ENDCHAR
STARTCHAR uni1E98
ENCODING 7832
SWIDTH 600 0
DWIDTH 6 0
BBX 5 9 0 0
BITMAP
20
50
20
00
88
A8
A8
50
50
ENDCHAR
STARTCHAR uni1E99
ENCODING 7833
SWIDTH 600 0
DWIDTH 6 0
BBX 5 12 0 -3
BITMAP
20
50
20
00
88
88
88
98
68
08
88
70
ENDCHAR
STARTCHAR uni1E9A
ENCODING 7834
SWIDTH 600 0
DWIDTH 6 0
BBX 5 9 0 0
BITMAP
20
10
20
00
70
88
88
98
68
ENDCHAR
STARTCHAR uni1E9B
ENCODING 7835
SWIDTH 600 0
DWIDTH 6 0
BBX 5 9 0 0
BITMAP
20
00
30
48
40
C0
40
40
40
ENDCHAR
STARTCHAR uni1E9C
ENCODING 7836
SWIDTH 600 0
DWIDTH 6 0
BBX 5 7 0 0
BITMAP
30
48
40
D0
60
C0
40
ENDCHAR
STARTCHAR uni1E9D
ENCODING 7837
SWIDTH 600 0
DWIDTH 6 0
BBX 5 7 0 0
BITMAP
30
48
F0
40
C0
40
40
ENDCHAR
STARTCHAR uni1E9E
ENCODING 7838
SWIDTH 600 0
DWIDTH 6 0
BBX 5 7 0 0
BITMAP
70
88
90
A0
98
88
B0
ENDCHAR
STARTCHAR uni1E9F
ENCODING 7839
SWIDTH 600 0
DWIDTH 6 0
BBX 5 7 0 0
BITMAP
78
80
60
90
88
88
70
ENDCHAR
STARTCHAR uni1EA0
ENCODING 7840
SWIDTH 600 0
DWIDTH 6 0
BBX 5 9 0 -2
BITMAP
70
88
88
F8
88
88
88
00
20
ENDCHAR
STARTCHAR uni1EA1
ENCODING 7841
SWIDTH 600 0
DWIDTH 6 0
BBX 5 5 0 0
BITMAP
70
88
88
98
68
ENDCHAR
STARTCHAR uni1EA2
ENCODING 7842
SWIDTH 600 0
DWIDTH 6 0
BBX 5 11 0 0
BITMAP
60
10
20
00
70
88
88
F8
88
88
88
ENDCHAR
STARTCHAR uni1EA3
ENCODING 7843
SWIDTH 600 0
DWIDTH 6 0
BBX 5 9 0 0
BITMAP
60
10
20
00
70
88
88
98
68
ENDCHAR
STARTCHAR uni1EA4
ENCODING 7844
SWIDTH 600 0
DWIDTH 6 0
BBX 5 11 0 0
BITMAP
18
20
50
00
70
88
88
F8
88
88
88
ENDCHAR
STARTCHAR uni1EA5
ENCODING 7845
SWIDTH 600 0
DWIDTH 6 0
BBX 5 9 0 0
BITMAP
18
20
50
00
70
88
88
98
68
ENDCHAR
STARTCHAR uni1EA6
ENCODING 7846
SWIDTH 600 0
DWIDTH 6 0
BBX 5 11 0 0
BITMAP
C0
20
50
00
70
88
88
F8
88
88
88
ENDCHAR
STARTCHAR uni1EA7
ENCODING 7847
SWIDTH 600 0
DWIDTH 6 0
BBX 5 9 0 0
BITMAP
C0
20
50
00
70
88
88
98
68
ENDCHAR
STARTCHAR uni1EA8
ENCODING 7848
SWIDTH 600 0
DWIDTH 6 0
BBX 5 12 0 0
BITMAP
60
10
20
50
00
70
88
88
F8
88
88
88
ENDCHAR
STARTCHAR uni1EA9
ENCODING 7849
SWIDTH 600 0
DWIDTH 6 0
BBX 5 10 0 0
BITMAP
60
10
20
50
00
70
88
88
98
68
ENDCHAR
STARTCHAR uni1EAA
ENCODING 7850
SWIDTH 600 0
DWIDTH 6 0
BBX 5 12 0 0
BITMAP
28
50
20
50
00
70
88
88
F8
88
88
88
ENDCHAR
STARTCHAR uni1EAB
ENCODING 7851
SWIDTH 600 0
DWIDTH 6 0
BBX 5 10 0 0
BITMAP
28
50
20
50
00
70
88
88
98
68
ENDCHAR
STARTCHAR uni1EAC
ENCODING 7852
SWIDTH 600 0
DWIDTH 6 0
BBX 5 12 0 -2
BITMAP
20
50
00
70
88
88
F8
88
88
88
00
20
ENDCHAR
STARTCHAR uni1EAD
ENCODING 7853
SWIDTH 600 0
DWIDTH 6 0
BBX 5 10 0 -2
BITMAP
20
50
00
70
88
88
98
68
00
20
ENDCHAR
STARTCHAR uni1EAE
ENCODING 7854
SWIDTH 600 0
DWIDTH 6 0
BBX 5 13 0 0
BITMAP
30
40
00
88
70
00
70
88
88
F8
88
88
88
ENDCHAR
STARTCHAR uni1EAF
ENCODING 7855
SWIDTH 600 0
DWIDTH 6 0
BBX 5 11 0 0
BITMAP
30
40
00
88
70
00
70
88
88
98
68
ENDCHAR
STARTCHAR uni1EB0
ENCODING 7856
SWIDTH 600 0
DWIDTH 6 0
BBX 5 13 0 0
BITMAP
60
10
00
88
70
00
70
88
88
F8
88
88
88
ENDCHAR
STARTCHAR uni1EB1
ENCODING 7857
SWIDTH 600 0
DWIDTH 6 0
BBX 5 11 0 0
BITMAP
60
10
00
88
70
00
70
88
88
98
68
ENDCHAR
STARTCHAR uni1EB2
ENCODING 7858
SWIDTH 600 0
DWIDTH 6 0
BBX 5 13 0 0
BITMAP
60
10
20
88
70
00
70
88
88
F8
88
88
88
ENDCHAR
STARTCHAR uni1EB3
ENCODING 7859
SWIDTH 600 0
DWIDTH 6 0
BBX 5 11 0 0
BITMAP
60
10
20
88
70
00
70
88
88
98
68
ENDCHAR
STARTCHAR uni1EB4
ENCODING 7860
SWIDTH 600 0
DWIDTH 6 0
BBX 5 13 0 0
BITMAP
28
50
00
88
70
00
70
88
88
F8
88
88
88
ENDCHAR
STARTCHAR uni1EB5
ENCODING 7861
SWIDTH 600 0
DWIDTH 6 0
BBX 5 11 0 0
BITMAP
28
50
00
88
70
00
70
88
88
98
68
ENDCHAR
STARTCHAR uni1EB6
ENCODING 7862
SWIDTH 600 0
DWIDTH 6 0
BBX 5 12 0 -2
BITMAP
88
70
00
70
88
88
F8
88
88
88
00
20
ENDCHAR
STARTCHAR uni1EB7
ENCODING 7863
SWIDTH 600 0
DWIDTH 6 0
BBX 5 10 0 -2
BITMAP
88
70
00
70
88
88
98
68
00
20
ENDCHAR
STARTCHAR uni1EB8
ENCODING 7864
SWIDTH 600 0
DWIDTH 6 0
BBX 5 9 0 -2
BITMAP
F8
80
80
F0
80
80
F8
00
20
ENDCHAR
STARTCHAR uni1EB9
ENCODING 7865
SWIDTH 600 0
DWIDTH 6 0
BBX 5 7 0 -2
BITMAP
70
88
F8
80
78
00
20
ENDCHAR
STARTCHAR uni1EBA
ENCODING 7866
SWIDTH 600 0
DWIDTH 6 0
BBX 5 10 0 0
BITMAP
60
10
20
F8
80
80
F0
80
80
F8
ENDCHAR
STARTCHAR uni1EBB
ENCODING 7867
SWIDTH 600 0
DWIDTH 6 0
BBX 5 8 0 0
BITMAP
60
10
20
70
88
F8
80
78
ENDCHAR
STARTCHAR uni1EBC
ENCODING 7868
SWIDTH 600 0
DWIDTH 6 0
BBX 5 10 0 0
BITMAP
28
50
00
F8
80
80
F0
80
80
F8
ENDCHAR
STARTCHAR uni1EBD
ENCODING 7869
SWIDTH 600 0
DWIDTH 6 0
BBX 5 8 0 0
BITMAP
28
50
00
70
88
F8
80
78
ENDCHAR
STARTCHAR uni1EBE
ENCODING 7870
SWIDTH 600 0
DWIDTH 6 0
BBX 5 11 0 0
BITMAP
18
20
50
00
F8
80
80
F0
80
80
F8
ENDCHAR
STARTCHAR uni1EBF
ENCODING 7871
SWIDTH 600 0
DWIDTH 6 0
BBX 5 9 0 0
BITMAP
18
20
50
00
70
88
F8
80
78
ENDCHAR
STARTCHAR uni1EC0
ENCODING 7872
SWIDTH 600 0
DWIDTH 6 0
BBX 5 11 0 0
BITMAP
C0
20
50
00
F8
80
80
F0
80
80
F8
ENDCHAR
STARTCHAR uni1EC1
ENCODING 7873
SWIDTH 600 0
DWIDTH 6 0
BBX 5 9 0 0
BITMAP
C0
20
50
00
70
88
F8
80
78
ENDCHAR
STARTCHAR uni1EC2
ENCODING 7874
SWIDTH 600 0
DWIDTH 6 0
BBX 5 12 0 0
BITMAP
60
10
20
50
00
F8
80
80
F0
80
80
F8
ENDCHAR
STARTCHAR uni1EC3
ENCODING 7875
SWIDTH 600 0
DWIDTH 6 0
BBX 5 10 0 0
BITMAP
60
10
20
50
00
70
88
F8
80
78
ENDCHAR
STARTCHAR uni1EC4
ENCODING 7876
SWIDTH 600 0
DWIDTH 6 0
BBX 5 12 0 0
BITMAP
28
50
20
50
00
F8
80
80
F0
80
80
F8
ENDCHAR
STARTCHAR uni1EC5
ENCODING 7877
SWIDTH 600 0
DWIDTH 6 0
BBX 5 10 0 0
BITMAP
28
50
20
50
00
70
88
F8
80
78
ENDCHAR
STARTCHAR uni1EC6
ENCODING 7878
SWIDTH 600 0
DWIDTH 6 0
BBX 5 12 0 -2
BITMAP
20
50
00
F8
80
80
F0
80
80
F8
00
20
ENDCHAR
STARTCHAR uni1EC7
ENCODING 7879
SWIDTH 600 0
DWIDTH 6 0
BBX 5 10 0 -2
BITMAP
20
50
00
70
88
F8
80
78
00
20
ENDCHAR
STARTCHAR uni1EC8
ENCODING 7880
SWIDTH 600 0
DWIDTH 6 0
BBX 5 10 0 0
BITMAP
60
10
20
F8
20
20
20
20
20
F8
ENDCHAR
STARTCHAR uni1EC9
ENCODING 7881
SWIDTH 600 0
DWIDTH 6 0
BBX 5 9 0 0
BITMAP
60
10
20
00
E0
20
20
20
F8
ENDCHAR
STARTCHAR uni1ECA
ENCODING 7882
SWIDTH 600 0
DWIDTH 6 0
BBX 5 9 0 -2
BITMAP
F8
20
20
20
20
20
F8
00
20
ENDCHAR
STARTCHAR uni1ECB
ENCODING 7883
SWIDTH 600 0
DWIDTH 6 0
BBX 5 9 0 -2
BITMAP
20
00
E0
20
20
20
F8
00
20
ENDCHAR
STARTCHAR uni1ECC
ENCODING 7884
SWIDTH 600 0
DWIDTH 6 0
BBX 5 9 0 -2
BITMAP
70
88
88
88
88
88
70
00
20
ENDCHAR
STARTCHAR uni1ECD
ENCODING 7885
SWIDTH 600 0
DWIDTH 6 0
BBX 5 7 0 -2
BITMAP
70
88
88
88
70
00
20
ENDCHAR
STARTCHAR uni1ECE
ENCODING 7886
SWIDTH 600 0
DWIDTH 6 0
BBX 5 10 0 0
BITMAP
60
10
20
70
88
88
88
88
88
70
ENDCHAR
STARTCHAR uni1ECF
ENCODING 7887
SWIDTH 600 0
DWIDTH 6 0
BBX 5 8 0 0
BITMAP
60
10
20
70
88
88
88
70
ENDCHAR
STARTCHAR uni1ED0
ENCODING 7888
SWIDTH 600 0
DWIDTH 6 0
BBX 5 11 0 0
BITMAP
18
20
50
00
70
88
88
88
88
88
70
ENDCHAR
STARTCHAR uni1ED1
ENCODING 7889
SWIDTH 600 0
DWIDTH 6 0
BBX 5 9 0 0
BITMAP
18
20
50
00
70
88
88
88
70
ENDCHAR
STARTCHAR uni1ED2
ENCODING 7890
SWIDTH 600 0
DWIDTH 6 0
BBX 5 11 0 0
BITMAP
C0
20
50
00
70
88
88
88
88
88
70
ENDCHAR
STARTCHAR uni1ED3
ENCODING 7891
SWIDTH 600 0
DWIDTH 6 0
BBX 5 9 0 0
BITMAP
C0
20
50
00
70
88
88
88
70
ENDCHAR
STARTCHAR uni1ED4
ENCODING 7892
SWIDTH 600 0
DWIDTH 6 0
BBX 5 12 0 0
BITMAP
60
10
20
50
00
70
88
88
88
88
88
70
ENDCHAR
STARTCHAR uni1ED5
ENCODING 7893
SWIDTH 600 0
DWIDTH 6 0
BBX 5 10 0 0
BITMAP
60
10
20
50
00
70
88
88
88
70
ENDCHAR
STARTCHAR uni1ED6
ENCODING 7894
SWIDTH 600 0
DWIDTH 6 0
BBX 5 12 0 0
BITMAP
28
50
20
50
00
70
88
88
88
88
88
70
ENDCHAR
STARTCHAR uni1ED7
ENCODING 7895
SWIDTH 600 0
DWIDTH 6 0
BBX 5 10 0 0
BITMAP
28
50
20
50
00
70
88
88
88
70
ENDCHAR
STARTCHAR uni1ED8
ENCODING 7896
SWIDTH 600 0
DWIDTH 6 0
BBX 5 12 0 -2
BITMAP
20
50
00
70
88
88
88
88
88
70
00
20
ENDCHAR
STARTCHAR uni1ED9
ENCODING 7897
SWIDTH 600 0
DWIDTH 6 0
BBX 5 10 0 -2
BITMAP
20
50
00
70
88
88
88
70
00
20
ENDCHAR
STARTCHAR uni1EDA
ENCODING 7898
SWIDTH 600 0
DWIDTH 6 0
BBX 6 10 0 0
BITMAP
30
44
08
70
88
88
88
88
88
70
ENDCHAR
STARTCHAR uni1EDB
ENCODING 7899
SWIDTH 600 0
DWIDTH 6 0
BBX 6 8 0 0
BITMAP
30
44
08
70
88
88
88
70
ENDCHAR
STARTCHAR uni1EDC
ENCODING 7900
SWIDTH 600 0
DWIDTH 6 0
BBX 6 10 0 0
BITMAP
60
14
08
70
88
88
88
88
88
70
ENDCHAR
STARTCHAR uni1EDD
ENCODING 7901
SWIDTH 600 0
DWIDTH 6 0
BBX 6 8 0 0
BITMAP
60
14
08
70
88
88
88
70
ENDCHAR
STARTCHAR uni1EDE
ENCODING 7902
SWIDTH 600 0
DWIDTH 6 0
BBX 6 10 0 0
BITMAP
60
14
28
70
88
88
88
88
88
70
ENDCHAR
STARTCHAR uni1EDF
ENCODING 7903
SWIDTH 600 0
DWIDTH 6 0
BBX 6 8 0 0
BITMAP
60
14
28
70
88
88
88
70
ENDCHAR
STARTCHAR uni1EE0
ENCODING 7904
SWIDTH 600 0
DWIDTH 6 0
BBX 6 10 0 0
BITMAP
28
54
08
70
88
88
88
88
88
70
ENDCHAR
STARTCHAR uni1EE1
ENCODING 7905
SWIDTH 600 0
DWIDTH 6 0
BBX 6 8 0 0
BITMAP
28
54
08
70
88
88
88
70
ENDCHAR
STARTCHAR uni1EE2
ENCODING 7906
SWIDTH 600 0
DWIDTH 6 0
BBX 6 11 0 -2
BITMAP
04
08
70
88
88
88
88
88
70
00
20
ENDCHAR
STARTCHAR uni1EE3
ENCODING 7907
SWIDTH 600 0
DWIDTH 6 0
BBX 6 9 0 -2
BITMAP
04
08
70
88
88
88
70
00
20
ENDCHAR
STARTCHAR uni1EE4
ENCODING 7908
SWIDTH 600 0
DWIDTH 6 0
BBX 5 9 0 -2
BITMAP
88
88
88
88
88
98
68
00
20
ENDCHAR
STARTCHAR uni1EE5
ENCODING 7909
SWIDTH 600 0
DWIDTH 6 0
BBX 5 7 0 -2
BITMAP
88
88
88
98
68
00
20
ENDCHAR
STARTCHAR uni1EE6
ENCODING 7910
SWIDTH 600 0
DWIDTH 6 0
BBX 5 11 0 0
BITMAP
60
10
20
00
88
88
88
88
88
98
68
ENDCHAR
STARTCHAR uni1EE7
ENCODING 7911
SWIDTH 600 0
DWIDTH 6 0
BBX 5 9 0 0
BITMAP
60
10
20
00
88
88
88
98
68
ENDCHAR
STARTCHAR uni1EE8
ENCODING 7912
SWIDTH 600 0
DWIDTH 6 0
BBX 7 10 0 0
BITMAP
30
42
04
88
88
88
88
88
98
68
ENDCHAR
STARTCHAR uni1EE9
ENCODING 7913
SWIDTH 600 0
DWIDTH 6 0
BBX 7 8 0 0
BITMAP
30
42
04
88
88
88
98
68
ENDCHAR
STARTCHAR uni1EEA
ENCODING 7914
SWIDTH 600 0
DWIDTH 6 0
BBX 7 10 0 0
BITMAP
60
12
04
88
88
88
88
88
98
68
ENDCHAR
STARTCHAR uni1EEB
ENCODING 7915
SWIDTH 600 0
DWIDTH 6 0
BBX 7 8 0 0
BITMAP
60
12
04
88
88
88
98
68
ENDCHAR
STARTCHAR uni1EEC
ENCODING 7916
SWIDTH 600 0
DWIDTH 6 0
BBX 7 11 0 0
BITMAP
60
10
22
04
88
88
88
88
88
98
68
ENDCHAR
STARTCHAR uni1EED
ENCODING 7917
SWIDTH 600 0
DWIDTH 6 0
BBX 7 9 0 0
BITMAP
60
10
22
04
88
88
88
98
68
ENDCHAR
STARTCHAR uni1EEE
ENCODING 7918
SWIDTH 600 0
DWIDTH 6 0
BBX 7 10 0 0
BITMAP
28
52
04
88
88
88
88
88
98
68
ENDCHAR
STARTCHAR uni1EEF
ENCODING 7919
SWIDTH 600 0
DWIDTH 6 0
BBX 7 8 0 0
BITMAP
28
52
04
88
88
88
98
68
ENDCHAR
STARTCHAR uni1EF0
ENCODING 7920
SWIDTH 600 0
DWIDTH 6 0
BBX 7 11 0 -2
BITMAP
02
04
88
88
88
88
88
98
68
00
20
ENDCHAR
STARTCHAR uni1EF1
ENCODING 7921
SWIDTH 600 0
DWIDTH 6 0
BBX 7 9 0 -2
BITMAP
02
04
88
88
88
98
68
00
20
ENDCHAR
STARTCHAR Ygrave
ENCODING 7922
SWIDTH 600 0
DWIDTH 6 0
BBX 5 10 0 0
BITMAP
60
10
00
88
88
88
50
20
20
20
ENDCHAR
STARTCHAR ygrave
ENCODING 7923
SWIDTH 600 0
DWIDTH 6 0
BBX 5 11 0 -3
BITMAP
60
10
00
88
88
88
98
68
08
88
70
ENDCHAR
STARTCHAR uni1EF4
ENCODING 7924
SWIDTH 600 0
DWIDTH 6 0
BBX 5 9 0 -2
BITMAP
88
88
88
50
20
20
20
00
20
ENDCHAR
STARTCHAR uni1EF5
ENCODING 7925
SWIDTH 600 0
DWIDTH 6 0
BBX 5 10 0 -5
BITMAP
88
88
88
98
68
08
88
70
00
20
ENDCHAR
STARTCHAR uni1EF6
ENCODING 7926
SWIDTH 600 0
DWIDTH 6 0
BBX 5 11 0 0
BITMAP
60
10
20
00
88
88
88
50
20
20
20
ENDCHAR
STARTCHAR uni1EF7
ENCODING 7927
SWIDTH 600 0
DWIDTH 6 0
BBX 5 12 0 -3
BITMAP
60
10
20
00
88
88
88
98
68
08
88
70
ENDCHAR
STARTCHAR uni1EF8
ENCODING 7928
SWIDTH 600 0
DWIDTH 6 0
BBX 5 10 0 0
BITMAP
28
50
00
88
88
88
50
20
20
20
ENDCHAR
STARTCHAR uni1EF9
ENCODING 7929
SWIDTH 600 0
DWIDTH 6 0
BBX 5 11 0 -3
BITMAP
28
50
00
88
88
88
98
68
08
88
70
ENDCHAR
STARTCHAR uni1EFA
ENCODING 7930
SWIDTH 600 0
DWIDTH 6 0
BBX 5 7 0 0
BITMAP
A0
A0
A0
A0
A0
A0
B8
ENDCHAR
STARTCHAR uni1EFB
ENCODING 7931
SWIDTH 600 0
DWIDTH 6 0
BBX 5 7 0 0
BITMAP
50
F8
50
50
50
50
50
ENDCHAR
STARTCHAR uni1EFC
ENCODING 7932
SWIDTH 600 0
DWIDTH 6 0
BBX 5 7 0 0
BITMAP
40
90
88
88
88
88
70
ENDCHAR
STARTCHAR uni1EFD
ENCODING 7933
SWIDTH 600 0
DWIDTH 6 0
BBX 5 5 0 0
BITMAP
40
90
88
88
70
ENDCHAR
STARTCHAR uni1EFE
ENCODING 7934
SWIDTH 600 0
DWIDTH 6 0
BBX 5 9 0 -2
BITMAP
88
88
88
50
20
20
60
A0
40
ENDCHAR
STARTCHAR uni1EFF
ENCODING 7935
SWIDTH 600 0
DWIDTH 6 0
BBX 5 9 0 -4
BITMAP
88
88
88
98
68
08
48
B0
40
ENDCHAR
STARTCHAR uni2000
ENCODING 8192
SWIDTH 600 0
DWIDTH 6 0
BBX 1 1 1 -4
BITMAP
80
ENDCHAR
STARTCHAR uni2010
ENCODING 8208
SWIDTH 600 0
DWIDTH 6 0
BBX 2 1 2 3
BITMAP
C0
ENDCHAR
STARTCHAR uni2011
ENCODING 8209
SWIDTH 600 0
DWIDTH 6 0
BBX 2 1 2 3
BITMAP
C0
ENDCHAR
STARTCHAR figuredash
ENCODING 8210
SWIDTH 600 0
DWIDTH 6 0
BBX 3 1 1 3
BITMAP
E0
ENDCHAR
STARTCHAR endash
ENCODING 8211
SWIDTH 600 0
DWIDTH 6 0
BBX 3 1 1 3
BITMAP
E0
ENDCHAR
STARTCHAR emdash
ENCODING 8212
SWIDTH 600 0
DWIDTH 6 0
BBX 5 1 0 3
BITMAP
F8
ENDCHAR
STARTCHAR uni2015
ENCODING 8213
SWIDTH 600 0
DWIDTH 6 0
BBX 7 1 -1 3
BITMAP
FE
ENDCHAR
STARTCHAR uni2016
ENCODING 8214
SWIDTH 600 0
DWIDTH 6 0
BBX 3 9 1 -1
BITMAP
A0
A0
A0
A0
A0
A0
A0
A0
A0
ENDCHAR
STARTCHAR underscoredbl
ENCODING 8215
SWIDTH 600 0
DWIDTH 6 0
BBX 5 3 0 -3
BITMAP
F8
00
F8
ENDCHAR
STARTCHAR quoteleft
ENCODING 8216
SWIDTH 600 0
DWIDTH 6 0
BBX 2 3 2 5
BITMAP
40
80
80
ENDCHAR
STARTCHAR quoteright
ENCODING 8217
SWIDTH 600 0
DWIDTH 6 0
BBX 2 3 1 5
BITMAP
40
40
80
ENDCHAR
STARTCHAR quotesinglbase
ENCODING 8218
SWIDTH 600 0
DWIDTH 6 0
BBX 2 3 3 -1
BITMAP
40
40
80
ENDCHAR
STARTCHAR quotereversed
ENCODING 8219
SWIDTH 600 0
DWIDTH 6 0
BBX 2 3 0 5
BITMAP
80
80
40
ENDCHAR
STARTCHAR quotedblleft
ENCODING 8220
SWIDTH 600 0
DWIDTH 6 0
BBX 4 3 0 5
BITMAP
50
A0
A0
ENDCHAR
STARTCHAR quotedblright
ENCODING 8221
SWIDTH 600 0
DWIDTH 6 0
BBX 4 3 0 5
BITMAP
50
50
A0
ENDCHAR
STARTCHAR quotedblbase
ENCODING 8222
SWIDTH 600 0
DWIDTH 6 0
BBX 4 3 1 -1
BITMAP
50
50
A0
ENDCHAR
STARTCHAR uni201F
ENCODING 8223
SWIDTH 600 0
DWIDTH 6 0
BBX 4 3 0 5
BITMAP
A0
A0
50
ENDCHAR
STARTCHAR dagger
ENCODING 8224
SWIDTH 600 0
DWIDTH 6 0
BBX 3 7 1 0
BITMAP
40
40
E0
40
40
40
40
ENDCHAR
STARTCHAR daggerdbl
ENCODING 8225
SWIDTH 600 0
DWIDTH 6 0
BBX 3 7 1 0
BITMAP
40
40
E0
40
E0
40
40
ENDCHAR
STARTCHAR bullet
ENCODING 8226
SWIDTH 600 0
DWIDTH 6 0
BBX 3 3 1 2
BITMAP
E0
E0
E0
ENDCHAR
STARTCHAR uni2023
ENCODING 8227
SWIDTH 600 0
DWIDTH 6 0
BBX 3 5 1 1
BITMAP
80
C0
E0
C0
80
ENDCHAR
STARTCHAR onedotenleader
ENCODING 8228
SWIDTH 600 0
DWIDTH 6 0
BBX 1 1 2 0
BITMAP
80
ENDCHAR
STARTCHAR twodotenleader
ENCODING 8229
SWIDTH 600 0
DWIDTH 6 0
BBX 3 1 1 0
BITMAP
A0
ENDCHAR
STARTCHAR ellipsis
ENCODING 8230
SWIDTH 600 0
DWIDTH 6 0
BBX 5 1 0 0
BITMAP
A8
ENDCHAR
STARTCHAR uni2027
ENCODING 8231
SWIDTH 600 0
DWIDTH 6 0
BBX 1 1 2 2
BITMAP
80
ENDCHAR
STARTCHAR uni2038
ENCODING 8248
SWIDTH 600 0
DWIDTH 6 0
BBX 3 2 1 -2
BITMAP
40
A0
ENDCHAR
STARTCHAR guilsinglleft
ENCODING 8249
SWIDTH 600 0
DWIDTH 6 0
BBX 3 5 1 1
BITMAP
20
40
80
40
20
ENDCHAR
STARTCHAR guilsinglright
ENCODING 8250
SWIDTH 600 0
DWIDTH 6 0
BBX 3 5 1 1
BITMAP
80
40
20
40
80
ENDCHAR
STARTCHAR uni203B
ENCODING 8251
SWIDTH 600 0
DWIDTH 6 0
BBX 7 7 -1 0
BITMAP
10
44
28
92
28
44
10
ENDCHAR
STARTCHAR fraction
ENCODING 8260
SWIDTH 600 0
DWIDTH 6 0
BBX 9 9 -2 -1
BITMAP
0080
0100
0200
0400
0800
1000
2000
4000
8000
ENDCHAR
STARTCHAR uni204B
ENCODING 8267
SWIDTH 600 0
DWIDTH 6 0
BBX 5 7 0 0
BITMAP
F0
B8
B8
B0
A0
A0
A0
ENDCHAR
STARTCHAR uni2074
ENCODING 8308
SWIDTH 600 0
DWIDTH 6 0
BBX 3 4 1 5
BITMAP
A0
A0
E0
20
ENDCHAR
STARTCHAR lira
ENCODING 8356
SWIDTH 600 0
DWIDTH 6 0
BBX 5 7 0 0
BITMAP
30
48
F0
40
F0
80
F8
ENDCHAR
STARTCHAR Euro
ENCODING 8364
SWIDTH 600 0
DWIDTH 6 0
BBX 5 7 0 0
BITMAP
30
48
E0
40
E0
48
30
ENDCHAR
STARTCHAR uni20B3
ENCODING 8371
SWIDTH 600 0
DWIDTH 6 0
BBX 7 7 -1 0
BITMAP
38
44
FE
44
FE
44
44
ENDCHAR
STARTCHAR uni20B5
ENCODING 8373
SWIDTH 600 0
DWIDTH 6 0
BBX 5 9 0 -1
BITMAP
20
70
A8
A0
A0
A0
A8
70
20
ENDCHAR
STARTCHAR uni20BF
ENCODING 8383
SWIDTH 600 0
DWIDTH 6 0
BBX 5 9 0 -1
BITMAP
50
F0
88
88
F0
88
88
F0
50
ENDCHAR
STARTCHAR trademark
ENCODING 8482
SWIDTH 600 0
DWIDTH 6 0
BBX 7 3 -1 6
BITMAP
EE
4E
4A
ENDCHAR
STARTCHAR uni212A
ENCODING 8490
SWIDTH 600 0
DWIDTH 6 0
BBX 5 7 0 0
BITMAP
88
90
A0
C0
A0
90
88
ENDCHAR
STARTCHAR uni2150
ENCODING 8528
SWIDTH 600 0
DWIDTH 6 0
BBX 9 9 -2 -1
BITMAP
4080
C100
4200
E400
0800
1380
2080
4100
8100
ENDCHAR
STARTCHAR uni2151
ENCODING 8529
SWIDTH 600 0
DWIDTH 6 0
BBX 9 9 -2 -1
BITMAP
4080
C100
4200
E400
0800
1380
2380
4080
8380
ENDCHAR
STARTCHAR uni2152
ENCODING 8530
SWIDTH 600 0
DWIDTH 6 0
BBX 10 9 -2 -1
BITMAP
4080
C100
4200
E400
0800
15C0
2540
4540
85C0
ENDCHAR
STARTCHAR onethird
ENCODING 8531
SWIDTH 600 0
DWIDTH 6 0
BBX 9 9 -2 -1
BITMAP
4080
C100
4200
E400
0800
1380
2180
4080
8380
ENDCHAR
STARTCHAR twothirds
ENCODING 8532
SWIDTH 600 0
DWIDTH 6 0
BBX 9 9 -2 -1
BITMAP
E080
2100
4200
E400
0800
1380
2180
4080
8380
ENDCHAR
STARTCHAR uni2155
ENCODING 8533
SWIDTH 600 0
DWIDTH 6 0
BBX 9 9 -2 -1
BITMAP
4080
C100
4200
E400
0800
1380
2200
4100
8380
ENDCHAR
STARTCHAR uni2156
ENCODING 8534
SWIDTH 600 0
DWIDTH 6 0
BBX 9 9 -2 -1
BITMAP
E080
2100
4200
E400
0800
1380
2200
4100
8380
ENDCHAR
STARTCHAR uni2157
ENCODING 8535
SWIDTH 600 0
DWIDTH 6 0
BBX 9 9 -2 -1
BITMAP
E080
6100
2200
E400
0800
1380
2200
4100
8380
ENDCHAR
STARTCHAR uni2158
ENCODING 8536
SWIDTH 600 0
DWIDTH 6 0
BBX 9 9 -2 -1
BITMAP
A080
A100
E200
2400
0800
1380
2200
4100
8380
ENDCHAR
STARTCHAR uni2159
ENCODING 8537
SWIDTH 600 0
DWIDTH 6 0
BBX 9 9 -2 -1
BITMAP
4080
C100
4200
E400
0800
1380
2200
4380
8380
ENDCHAR
STARTCHAR uni215A
ENCODING 8538
SWIDTH 600 0
DWIDTH 6 0
BBX 9 9 -2 -1
BITMAP
E080
8100
4200
E400
0800
1380
2200
4380
8380
ENDCHAR
STARTCHAR oneeighth
ENCODING 8539
SWIDTH 600 0
DWIDTH 6 0
BBX 9 9 -2 -1
BITMAP
4080
C100
4200
E400
0B80
1280
2380
4280
8380
ENDCHAR
STARTCHAR threeeighths
ENCODING 8540
SWIDTH 600 0
DWIDTH 6 0
BBX 9 9 -2 -1
BITMAP
E080
6100
2200
E400
0B80
1280
2380
4280
8380
ENDCHAR
STARTCHAR fiveeighths
ENCODING 8541
SWIDTH 600 0
DWIDTH 6 0
BBX 9 9 -2 -1
BITMAP
E080
8100
4200
E400
0B80
1280
2380
4280
8380
ENDCHAR
STARTCHAR seveneighths
ENCODING 8542
SWIDTH 600 0
DWIDTH 6 0
BBX 9 9 -2 -1
BITMAP
E080
2100
4200
4400
0B80
1280
2380
4280
8380
ENDCHAR
STARTCHAR uni215F
ENCODING 8543
SWIDTH 600 0
DWIDTH 6 0
BBX 9 9 -2 -1
BITMAP
4080
C100
4200
E400
0800
1000
2000
4000
8000
ENDCHAR
STARTCHAR uni2160
ENCODING 8544
SWIDTH 600 0
DWIDTH 6 0
BBX 3 7 1 0
BITMAP
E0
40
40
40
40
40
E0
ENDCHAR
STARTCHAR uni2161
ENCODING 8545
SWIDTH 600 0
DWIDTH 6 0
BBX 5 7 0 0
BITMAP
F8
50
50
50
50
50
F8
ENDCHAR
STARTCHAR uni2162
ENCODING 8546
SWIDTH 600 0
DWIDTH 6 0
BBX 7 7 -1 0
BITMAP
FE
54
54
54
54
54
FE
ENDCHAR
STARTCHAR arrowleft
ENCODING 8592
SWIDTH 600 0
DWIDTH 6 0
BBX 6 5 0 1
BITMAP
20
60
FC
60
20
ENDCHAR
STARTCHAR arrowup
ENCODING 8593
SWIDTH 600 0
DWIDTH 6 0
BBX 5 7 0 0
BITMAP
20
70
F8
20
20
20
20
ENDCHAR
STARTCHAR arrowright
ENCODING 8594
SWIDTH 600 0
DWIDTH 6 0
BBX 6 5 -1 1
BITMAP
10
18
FC
18
10
ENDCHAR
STARTCHAR arrowdown
ENCODING 8595
SWIDTH 600 0
DWIDTH 6 0
BBX 5 7 0 0
BITMAP
20
20
20
20
F8
70
20
ENDCHAR
STARTCHAR arrowupdn
ENCODING 8597
SWIDTH 600 0
DWIDTH 6 0
BBX 5 7 0 0
BITMAP
20
70
F8
20
F8
70
20
ENDCHAR
STARTCHAR uni21B3
ENCODING 8627
SWIDTH 600 0
DWIDTH 6 0
BBX 5 6 0 1
BITMAP
80
A0
B0
F8
30
20
ENDCHAR
STARTCHAR carriagereturn
ENCODING 8629
SWIDTH 600 0
DWIDTH 6 0
BBX 5 6 0 1
BITMAP
08
28
68
F8
60
20
ENDCHAR
STARTCHAR existential
ENCODING 8707
SWIDTH 600 0
DWIDTH 6 0
BBX 5 7 0 0
BITMAP
F8
08
08
F8
08
08
F8
ENDCHAR
STARTCHAR summation
ENCODING 8721
SWIDTH 600 0
DWIDTH 6 0
BBX 5 7 0 0
BITMAP
F8
80
40
20
40
80
F8
ENDCHAR
STARTCHAR minus
ENCODING 8722
SWIDTH 600 0
DWIDTH 6 0
BBX 5 1 0 3
BITMAP
F8
ENDCHAR
STARTCHAR uni2213
ENCODING 8723
SWIDTH 600 0
DWIDTH 6 0
BBX 5 5 0 1
BITMAP
F8
00
20
F8
20
ENDCHAR
STARTCHAR uni2215
ENCODING 8725
SWIDTH 600 0
DWIDTH 6 0
BBX 5 10 0 -1
BITMAP
08
08
10
10
20
20
40
40
80
80
ENDCHAR
STARTCHAR uni2216
ENCODING 8726
SWIDTH 600 0
DWIDTH 6 0
BBX 5 10 0 -1
BITMAP
80
80
40
40
20
20
10
10
08
08
ENDCHAR
STARTCHAR infinity
ENCODING 8734
SWIDTH 600 0
DWIDTH 6 0
BBX 5 4 0 2
BITMAP
50
A8
A8
50
ENDCHAR
STARTCHAR uni2318
ENCODING 8984
SWIDTH 600 0
DWIDTH 6 0
BBX 7 7 -1 0
BITMAP
EE
AA
FE
28
FE
AA
EE
ENDCHAR
STARTCHAR uni23CF
ENCODING 9167
SWIDTH 600 0
DWIDTH 6 0
BBX 5 7 0 0
BITMAP
20
70
F8
F8
00
F8
F8
ENDCHAR
STARTCHAR uni2426
ENCODING 9254
SWIDTH 600 0
DWIDTH 6 0
BBX 5 7 0 0
BITMAP
70
88
80
40
20
00
20
ENDCHAR
STARTCHAR uni2440
ENCODING 9280
SWIDTH 600 0
DWIDTH 6 0
BBX 5 7 0 0
BITMAP
38
28
28
20
A0
A0
E0
ENDCHAR
STARTCHAR uni2441
ENCODING 9281
SWIDTH 600 0
DWIDTH 6 0
BBX 5 7 0 0
BITMAP
08
08
08
F8
88
88
88
ENDCHAR
STARTCHAR uni2442
ENCODING 9282
SWIDTH 600 0
DWIDTH 6 0
BBX 5 7 0 0
BITMAP
88
88
88
F8
20
20
20
ENDCHAR
STARTCHAR uni2443
ENCODING 9283
SWIDTH 600 0
DWIDTH 6 0
BBX 5 7 0 0
BITMAP
20
20
20
F8
88
88
88
ENDCHAR
STARTCHAR uni2444
ENCODING 9284
SWIDTH 600 0
DWIDTH 6 0
BBX 5 7 0 0
BITMAP
F8
A8
A8
20
A8
A8
F8
ENDCHAR
STARTCHAR uni2801
ENCODING 10241
SWIDTH 600 0
DWIDTH 6 0
BBX 1 1 0 0
BITMAP
00
ENDCHAR
STARTCHAR uni2802
ENCODING 10242
SWIDTH 600 0
DWIDTH 6 0
BBX 1 1 0 0
BITMAP
00
ENDCHAR
STARTCHAR uni2803
ENCODING 10243
SWIDTH 600 0
DWIDTH 6 0
BBX 1 1 0 0
BITMAP
00
ENDCHAR
STARTCHAR uni2804
ENCODING 10244
SWIDTH 600 0
DWIDTH 6 0
BBX 1 1 0 0
BITMAP
00
ENDCHAR
STARTCHAR uni2805
ENCODING 10245
SWIDTH 600 0
DWIDTH 6 0
BBX 1 1 0 0
BITMAP
00
ENDCHAR
STARTCHAR uni2806
ENCODING 10246
SWIDTH 600 0
DWIDTH 6 0
BBX 1 1 0 0
BITMAP
00
ENDCHAR
STARTCHAR uni2807
ENCODING 10247
SWIDTH 600 0
DWIDTH 6 0
BBX 1 1 0 0
BITMAP
00
ENDCHAR
STARTCHAR uni2808
ENCODING 10248
SWIDTH 600 0
DWIDTH 6 0
BBX 1 1 0 0
BITMAP
00
ENDCHAR
STARTCHAR uni2809
ENCODING 10249
SWIDTH 600 0
DWIDTH 6 0
BBX 1 1 0 0
BITMAP
00
ENDCHAR
STARTCHAR uni280A
ENCODING 10250
SWIDTH 600 0
DWIDTH 6 0
BBX 1 1 0 0
BITMAP
00
ENDCHAR
STARTCHAR uni280B
ENCODING 10251
SWIDTH 600 0
DWIDTH 6 0
BBX 1 1 0 0
BITMAP
00
ENDCHAR
STARTCHAR uni280C
ENCODING 10252
SWIDTH 600 0
DWIDTH 6 0
BBX 1 1 0 0
BITMAP
00
ENDCHAR
STARTCHAR uni280D
ENCODING 10253
SWIDTH 600 0
DWIDTH 6 0
BBX 1 1 0 0
BITMAP
00
ENDCHAR
STARTCHAR uni280E
ENCODING 10254
SWIDTH 600 0
DWIDTH 6 0
BBX 1 1 0 0
BITMAP
00
ENDCHAR
STARTCHAR uni280F
ENCODING 10255
SWIDTH 600 0
DWIDTH 6 0
BBX 1 1 0 0
BITMAP
00
ENDCHAR
STARTCHAR uni2810
ENCODING 10256
SWIDTH 600 0
DWIDTH 6 0
BBX 1 1 0 0
BITMAP
00
ENDCHAR
STARTCHAR uni2811
ENCODING 10257
SWIDTH 600 0
DWIDTH 6 0
BBX 1 1 0 0
BITMAP
00
ENDCHAR
STARTCHAR uni2812
ENCODING 10258
SWIDTH 600 0
DWIDTH 6 0
BBX 1 1 0 0
BITMAP
00
ENDCHAR
STARTCHAR uni2813
ENCODING 10259
SWIDTH 600 0
DWIDTH 6 0
BBX 1 1 0 0
BITMAP
00
ENDCHAR
STARTCHAR uni287D
ENCODING 10365
SWIDTH 600 0
DWIDTH 6 0
BBX 1 1 0 0
BITMAP
00
ENDCHAR
STARTCHAR uni287E
ENCODING 10366
SWIDTH 600 0
DWIDTH 6 0
BBX 1 1 0 0
BITMAP
00
ENDCHAR
STARTCHAR uni287F
ENCODING 10367
SWIDTH 600 0
DWIDTH 6 0
BBX 1 1 0 0
BITMAP
00
ENDCHAR
STARTCHAR uni2C60
ENCODING 11360
SWIDTH 600 0
DWIDTH 6 0
BBX 6 7 -1 0
BITMAP
40
40
E0
40
E0
40
7C
ENDCHAR
STARTCHAR uni2C61
ENCODING 11361
SWIDTH 600 0
DWIDTH 6 0
BBX 5 7 0 0
BITMAP
C0
40
E0
40
E0
48
30
ENDCHAR
STARTCHAR uni2C62
ENCODING 11362
SWIDTH 600 0
DWIDTH 6 0
BBX 6 7 -1 0
BITMAP
40
40
40
68
D0
40
7C
ENDCHAR
STARTCHAR uni2C63
ENCODING 11363
SWIDTH 600 0
DWIDTH 6 0
BBX 6 7 -1 0
BITMAP
78
44
F4
44
78
40
40
ENDCHAR
STARTCHAR uni2C64
ENCODING 11364
SWIDTH 600 0
DWIDTH 6 0
BBX 5 9 0 -2
BITMAP
F0
88
88
F0
90
88
88
80
40
ENDCHAR
STARTCHAR uni2C65
ENCODING 11365
SWIDTH 600 0
DWIDTH 6 0
BBX 5 7 0 -1
BITMAP
20
78
A8
A8
B8
68
20
ENDCHAR
STARTCHAR uni2C66
ENCODING 11366
SWIDTH 600 0
DWIDTH 6 0
BBX 5 7 0 0
BITMAP
40
40
E8
50
60
48
B0
ENDCHAR
STARTCHAR uni2C67
ENCODING 11367
SWIDTH 600 0
DWIDTH 6 0
BBX 6 9 0 -2
BITMAP
88
88
88
F8
88
88
88
04
04
ENDCHAR
STARTCHAR uni2C68
ENCODING 11368
SWIDTH 600 0
DWIDTH 6 0
BBX 6 9 0 -2
BITMAP
80
80
B0
C8
88
88
88
04
04
ENDCHAR
STARTCHAR uni2C69
ENCODING 11369
SWIDTH 600 0
DWIDTH 6 0
BBX 5 9 0 -2
BITMAP
88
90
A0
D0
88
88
88
08
08
ENDCHAR
STARTCHAR uni2C6A
ENCODING 11370
SWIDTH 600 0
DWIDTH 6 0
BBX 5 9 0 -2
BITMAP
80
80
98
A0
D0
88
88
08
08
ENDCHAR
STARTCHAR uni2C6B
ENCODING 11371
SWIDTH 600 0
DWIDTH 6 0
BBX 5 9 0 -2
BITMAP
F8
08
10
20
40
80
F8
08
08
ENDCHAR
STARTCHAR uni2C6C
ENCODING 11372
SWIDTH 600 0
DWIDTH 6 0
BBX 5 7 0 -2
BITMAP
F8
10
20
40
F8
08
08
ENDCHAR
STARTCHAR uni2C72
ENCODING 11378
SWIDTH 600 0
DWIDTH 6 0
BBX 7 8 0 0
BITMAP
06
88
88
A8
A8
A8
50
50
ENDCHAR
STARTCHAR uni2C73
ENCODING 11379
SWIDTH 600 0
DWIDTH 6 0
BBX 7 6 0 0
BITMAP
06
88
A8
A8
50
50
ENDCHAR
STARTCHAR uni2C74
ENCODING 11380
SWIDTH 600 0
DWIDTH 6 0
BBX 6 6 -1 0
BITMAP
60
54
E4
28
28
10
ENDCHAR
STARTCHAR uni2C75
ENCODING 11381
SWIDTH 600 0
DWIDTH 6 0
BBX 5 7 0 0
BITMAP
80
80
80
F8
80
80
80
ENDCHAR
STARTCHAR uni2C76
ENCODING 11382
SWIDTH 600 0
DWIDTH 6 0
BBX 4 5 0 0
BITMAP
80
80
F0
80
80
ENDCHAR
STARTCHAR uni2C77
ENCODING 11383
SWIDTH 600 0
DWIDTH 6 0
BBX 5 5 0 0
BITMAP
30
A8
A8
A8
70
ENDCHAR
STARTCHAR uni2C78
ENCODING 11384
SWIDTH 600 0
DWIDTH 6 0
BBX 6 7 0 -2
BITMAP
70
88
F8
80
78
08
04
ENDCHAR
STARTCHAR uni2C79
ENCODING 11385
SWIDTH 600 0
DWIDTH 6 0
BBX 5 7 0 0
BITMAP
70
08
08
08
08
18
E8
ENDCHAR
STARTCHAR uni2C7A
ENCODING 11386
SWIDTH 600 0
DWIDTH 6 0
BBX 5 5 0 0
BITMAP
70
88
A8
D8
70
ENDCHAR
STARTCHAR uni2C7B
ENCODING 11387
SWIDTH 600 0
DWIDTH 6 0
BBX 5 5 0 0
BITMAP
F8
08
78
08
F8
ENDCHAR
STARTCHAR uni2C7C
ENCODING 11388
SWIDTH 600 0
DWIDTH 6 0
BBX 5 7 0 -2
BITMAP
08
00
F8
08
08
88
70
ENDCHAR
STARTCHAR uni2C7D
ENCODING 11389
SWIDTH 600 0
DWIDTH 6 0
BBX 5 4 0 3
BITMAP
88
88
50
20
ENDCHAR
STARTCHAR uni2C7E
ENCODING 11390
SWIDTH 600 0
DWIDTH 6 0
BBX 5 10 0 -3
BITMAP
70
88
80
70
08
88
70
40
30
08
ENDCHAR
STARTCHAR uni2C7F
ENCODING 11391
SWIDTH 600 0
DWIDTH 6 0
BBX 5 8 0 -1
BITMAP
F8
08
10
20
40
80
C8
30
ENDCHAR
STARTCHAR uniFFFD
ENCODING 65533
SWIDTH 600 0
DWIDTH 6 0
BBX 7 9 -1 -1
BITMAP
FE
C6
BA
FA
F6
EE
FE
EE
FE
ENDCHAR
STARTCHAR .notdef
ENCODING -1
SWIDTH 600 0
DWIDTH 6 0
BBX 5 7 0 0
BITMAP
F8
98
D8
A8
D8
98
F8
ENDCHAR
ENDFONT
