STARTFONT 2.1
FONT x14y20pxScoreDozer-20px
SIZE 20 75 75
FONTBOUNDINGBOX 17 20 0 -4
STARTPROPERTIES 3
PIXEL_SIZE 20
FONT_ASCENT 16
FONT_DESCENT 4
ENDPROPERTIES
CHARS 414
STARTCHAR uni0020
ENCODING 32
SWIDTH 200 0
DWIDTH 4 0
BBX 1 1 0 0
BITMAP
00
ENDCHAR
STARTCHAR uni0021
ENCODING 33
SWIDTH 300 0
DWIDTH 6 0
BBX 5 14 0 0
BITMAP
F8
F8
F8
F8
F8
F8
F8
F8
F8
F8
00
00
F8
F8
ENDCHAR
STARTCHAR uni0022
ENCODING 34
SWIDTH 400 0
DWIDTH 8 0
BBX 7 5 0 9
BITMAP
EE
EE
EE
EE
EE
ENDCHAR
STARTCHAR uni0023
ENCODING 35
SWIDTH 700 0
DWIDTH 14 0
BBX 13 14 0 0
BITMAP
1EF0
1EF0
1EF0
7FF8
7FF8
3DE0
3DE0
3DE0
3DE0
FFF0
FFF0
7BC0
7BC0
7BC0
ENDCHAR
STARTCHAR uni0024
ENCODING 36
SWIDTH 700 0
DWIDTH 14 0
BBX 13 16 0 -1
BITMAP
0700
7FF0
FFF8
F778
F778
F700
F700
FFF0
7FF8
0778
0778
F778
F778
FFF8
7FF0
0700
ENDCHAR
STARTCHAR uni0025
ENCODING 37
SWIDTH 700 0
DWIDTH 14 0
BBX 13 14 0 0
BITMAP
7C18
FE38
EE78
EEF0
FFE0
7FC0
0780
0F00
1FF0
3FF8
7BB8
F3B8
E3F8
C1F0
ENDCHAR
STARTCHAR uni0026
ENCODING 38
SWIDTH 700 0
DWIDTH 14 0
BBX 13 14 0 0
BITMAP
3F80
7FC0
7BC0
7BC0
7BC0
7BC0
7F80
FF78
FF78
F7F8
F3F0
F3E0
FFF8
7F78
ENDCHAR
STARTCHAR uni0027
ENCODING 39
SWIDTH 200 0
DWIDTH 4 0
BBX 3 5 0 9
BITMAP
E0
E0
E0
E0
E0
ENDCHAR
STARTCHAR uni0028
ENCODING 40
SWIDTH 500 0
DWIDTH 10 0
BBX 7 18 1 -2
BITMAP
1E
3E
78
F0
E0
E0
E0
E0
E0
E0
E0
E0
E0
E0
F0
78
3E
1E
ENDCHAR
STARTCHAR uni0029
ENCODING 41
SWIDTH 500 0
DWIDTH 10 0
BBX 7 18 1 -2
BITMAP
F0
F8
3C
1E
0E
0E
0E
0E
0E
0E
0E
0E
0E
0E
1E
3C
F8
F0
ENDCHAR
STARTCHAR uni002A
ENCODING 42
SWIDTH 500 0
DWIDTH 10 0
BBX 9 8 0 6
BITMAP
1C00
DD80
FF80
7F00
7F00
FF80
DD80
1C00
ENDCHAR
STARTCHAR uni002B
ENCODING 43
SWIDTH 500 0
DWIDTH 10 0
BBX 9 8 0 3
BITMAP
1C00
1C00
1C00
FF80
FF80
1C00
1C00
1C00
ENDCHAR
STARTCHAR uni002C
ENCODING 44
SWIDTH 200 0
DWIDTH 4 0
BBX 3 5 0 -3
BITMAP
E0
E0
60
E0
C0
ENDCHAR
STARTCHAR uni002D
ENCODING 45
SWIDTH 500 0
DWIDTH 10 0
BBX 9 2 0 6
BITMAP
FF80
FF80
ENDCHAR
STARTCHAR uni002E
ENCODING 46
SWIDTH 200 0
DWIDTH 4 0
BBX 3 2 0 0
BITMAP
E0
E0
ENDCHAR
STARTCHAR uni002F
ENCODING 47
SWIDTH 500 0
DWIDTH 10 0
BBX 9 14 0 0
BITMAP
0380
0380
0700
0700
0E00
0E00
1C00
1C00
3800
3800
7000
7000
E000
E000
ENDCHAR
STARTCHAR uni0030
ENCODING 48
SWIDTH 700 0
DWIDTH 14 0
BBX 13 14 0 0
BITMAP
7FF0
FFF8
F8F8
F8F8
F8F8
F9F8
FBF8
FEF8
FCF8
F8F8
F8F8
F8F8
FFF8
7FF0
ENDCHAR
STARTCHAR uni0031
ENCODING 49
SWIDTH 700 0
DWIDTH 14 0
BBX 13 14 0 0
BITMAP
0F80
1F80
FF80
FF80
0F80
0F80
0F80
0F80
0F80
0F80
0F80
0F80
FFF8
FFF8
ENDCHAR
STARTCHAR uni0032
ENCODING 50
SWIDTH 700 0
DWIDTH 14 0
BBX 13 14 0 0
BITMAP
7FF0
FFF8
F8F8
F8F8
F8F8
01F8
03F0
07E0
0FC0
1F80
3F00
7E00
FFF8
FFF8
ENDCHAR
STARTCHAR uni0033
ENCODING 51
SWIDTH 700 0
DWIDTH 14 0
BBX 13 14 0 0
BITMAP
7FF0
FFF8
F8F8
F8F8
01F8
03F0
07E0
07E0
03F0
01F8
F8F8
F8F8
FFF8
7FF0
ENDCHAR
STARTCHAR uni0034
ENCODING 52
SWIDTH 700 0
DWIDTH 14 0
BBX 13 14 0 0
BITMAP
F8F8
F8F8
F8F8
F8F8
F8F8
F8F8
F8F8
F8F8
FFF8
7FF8
00F8
00F8
00F8
00F8
ENDCHAR
STARTCHAR uni0035
ENCODING 53
SWIDTH 700 0
DWIDTH 14 0
BBX 13 14 0 0
BITMAP
FFF8
FFF8
F800
F800
F800
FFF0
FFF8
F8F8
00F8
00F8
F8F8
F8F8
FFF8
7FF0
ENDCHAR
STARTCHAR uni0036
ENCODING 54
SWIDTH 700 0
DWIDTH 14 0
BBX 13 14 0 0
BITMAP
7FF0
FFF8
F8F8
F8F8
F800
F800
FFF0
FFF8
F8F8
F8F8
F8F8
F8F8
FFF8
7FF0
ENDCHAR
STARTCHAR uni0037
ENCODING 55
SWIDTH 700 0
DWIDTH 14 0
BBX 13 14 0 0
BITMAP
FFF8
FFF8
F8F8
F8F8
00F8
01F0
03E0
07C0
0F80
0F80
0F80
0F80
0F80
0F80
ENDCHAR
STARTCHAR uni0038
ENCODING 56
SWIDTH 700 0
DWIDTH 14 0
BBX 13 14 0 0
BITMAP
7FF0
FFF8
F8F8
F8F8
F8F8
F8F8
7FF0
7FF0
F8F8
F8F8
F8F8
F8F8
FFF8
7FF0
ENDCHAR
STARTCHAR uni0039
ENCODING 57
SWIDTH 700 0
DWIDTH 14 0
BBX 13 14 0 0
BITMAP
7FF0
FFF8
F8F8
F8F8
F8F8
F8F8
FFF8
7FF8
00F8
00F8
F8F8
F8F8
FFF8
7FF0
ENDCHAR
STARTCHAR uni003A
ENCODING 58
SWIDTH 200 0
DWIDTH 4 0
BBX 3 10 0 0
BITMAP
E0
E0
00
00
00
00
00
00
E0
E0
ENDCHAR
STARTCHAR uni003B
ENCODING 59
SWIDTH 200 0
DWIDTH 4 0
BBX 3 13 0 -3
BITMAP
E0
E0
00
00
00
00
00
00
E0
E0
60
E0
C0
ENDCHAR
STARTCHAR uni003C
ENCODING 60
SWIDTH 500 0
DWIDTH 10 0
BBX 9 14 0 0
BITMAP
0380
0700
0E00
1C00
3800
7000
E000
E000
7000
3800
1C00
0E00
0700
0380
ENDCHAR
STARTCHAR uni003D
ENCODING 61
SWIDTH 500 0
DWIDTH 10 0
BBX 9 8 0 3
BITMAP
FF80
FF80
0000
0000
0000
0000
FF80
FF80
ENDCHAR
STARTCHAR uni003E
ENCODING 62
SWIDTH 500 0
DWIDTH 10 0
BBX 9 14 0 0
BITMAP
E000
7000
3800
1C00
0E00
0700
0380
0380
0700
0E00
1C00
3800
7000
E000
ENDCHAR
STARTCHAR uni003F
ENCODING 63
SWIDTH 700 0
DWIDTH 14 0
BBX 13 14 0 0
BITMAP
7FF0
FFF8
F8F8
F8F8
F8F8
01F0
03E0
07C0
0F80
0F80
0000
0000
0F80
0F80
ENDCHAR
STARTCHAR uni0040
ENCODING 64
SWIDTH 700 0
DWIDTH 14 0
BBX 13 14 0 0
BITMAP
3FE0
7FF0
E038
CFD8
DFD8
D8D8
D8D8
D8D8
D8D8
DFF8
CF70
E000
7FF8
3FF8
ENDCHAR
STARTCHAR uni0041
ENCODING 65
SWIDTH 700 0
DWIDTH 14 0
BBX 13 14 0 0
BITMAP
7FF0
FFF8
F8F8
F8F8
F8F8
F8F8
FFF8
FFF8
F8F8
F8F8
F8F8
F8F8
F8F8
F8F8
ENDCHAR
STARTCHAR uni0042
ENCODING 66
SWIDTH 700 0
DWIDTH 14 0
BBX 13 14 0 0
BITMAP
FFF0
FFF8
F8F8
F8F8
F8F8
F8F8
FFF0
FFF0
F8F8
F8F8
F8F8
F8F8
FFF8
FFF0
ENDCHAR
STARTCHAR uni0043
ENCODING 67
SWIDTH 700 0
DWIDTH 14 0
BBX 13 14 0 0
BITMAP
7FF0
FFF8
F8F8
F8F8
F8F8
F800
F800
F800
F800
F8F8
F8F8
F8F8
FFF8
7FF0
ENDCHAR
STARTCHAR uni0044
ENCODING 68
SWIDTH 700 0
DWIDTH 14 0
BBX 13 14 0 0
BITMAP
FFF0
FFF8
F8F8
F8F8
F8F8
F8F8
F8F8
F8F8
F8F8
F8F8
F8F8
F8F8
FFF8
FFF0
ENDCHAR
STARTCHAR uni0045
ENCODING 69
SWIDTH 700 0
DWIDTH 14 0
BBX 13 14 0 0
BITMAP
FFF8
FFF8
F800
F800
F800
F800
FFF8
FFF8
F800
F800
F800
F800
FFF8
FFF8
ENDCHAR
STARTCHAR uni0046
ENCODING 70
SWIDTH 700 0
DWIDTH 14 0
BBX 13 14 0 0
BITMAP
FFF8
FFF8
F800
F800
F800
F800
FFF8
FFF8
F800
F800
F800
F800
F800
F800
ENDCHAR
STARTCHAR uni0047
ENCODING 71
SWIDTH 700 0
DWIDTH 14 0
BBX 13 14 0 0
BITMAP
7FF8
FFF8
F800
F800
F800
F800
F9F8
F9F8
F8F8
F8F8
F8F8
F8F8
FFF8
7FF8
ENDCHAR
STARTCHAR uni0048
ENCODING 72
SWIDTH 700 0
DWIDTH 14 0
BBX 13 14 0 0
BITMAP
F8F8
F8F8
F8F8
F8F8
F8F8
F8F8
FFF8
FFF8
F8F8
F8F8
F8F8
F8F8
F8F8
F8F8
ENDCHAR
STARTCHAR uni0049
ENCODING 73
SWIDTH 500 0
DWIDTH 10 0
BBX 9 14 0 0
BITMAP
FF80
FF80
3E00
3E00
3E00
3E00
3E00
3E00
3E00
3E00
3E00
3E00
FF80
FF80
ENDCHAR
STARTCHAR uni004A
ENCODING 74
SWIDTH 700 0
DWIDTH 14 0
BBX 13 14 0 0
BITMAP
00F8
00F8
00F8
00F8
00F8
00F8
00F8
00F8
F8F8
F8F8
F8F8
F8F8
FFF8
7FF0
ENDCHAR
STARTCHAR uni004B
ENCODING 75
SWIDTH 700 0
DWIDTH 14 0
BBX 13 14 0 0
BITMAP
F878
F8F8
F9F0
FBE0
FFC0
FF80
FF00
FF00
FF80
FFC0
FBE0
F9F0
F8F8
F878
ENDCHAR
STARTCHAR uni004C
ENCODING 76
SWIDTH 700 0
DWIDTH 14 0
BBX 13 14 0 0
BITMAP
F800
F800
F800
F800
F800
F800
F800
F800
F800
F800
F800
F800
FFF8
FFF8
ENDCHAR
STARTCHAR uni004D
ENCODING 77
SWIDTH 900 0
DWIDTH 18 0
BBX 17 14 0 0
BITMAP
FC1F80
FC1F80
FE3F80
FE3F80
FF7F80
FF7F80
FFFF80
FFFF80
FFFF80
FBEF80
FBEF80
F9CF80
F9CF80
F80F80
ENDCHAR
STARTCHAR uni004E
ENCODING 78
SWIDTH 700 0
DWIDTH 14 0
BBX 13 14 0 0
BITMAP
F8F8
F8F8
FCF8
FCF8
FEF8
FEF8
FFF8
FFF8
FBF8
FBF8
F9F8
F9F8
F8F8
F8F8
ENDCHAR
STARTCHAR uni004F
ENCODING 79
SWIDTH 700 0
DWIDTH 14 0
BBX 13 14 0 0
BITMAP
7FF0
FFF8
F8F8
F8F8
F8F8
F8F8
F8F8
F8F8
F8F8
F8F8
F8F8
F8F8
FFF8
7FF0
ENDCHAR
STARTCHAR uni0050
ENCODING 80
SWIDTH 700 0
DWIDTH 14 0
BBX 13 14 0 0
BITMAP
FFF0
FFF8
F8F8
F8F8
F8F8
F8F8
FFF8
FFF0
F800
F800
F800
F800
F800
F800
ENDCHAR
STARTCHAR uni0051
ENCODING 81
SWIDTH 700 0
DWIDTH 14 0
BBX 13 14 0 0
BITMAP
7FF0
FFF8
F8F8
F8F8
F8F8
F8F8
F8F8
F8F8
FBF8
FBF8
F9F8
F8F0
FFF8
7FB8
ENDCHAR
STARTCHAR uni0052
ENCODING 82
SWIDTH 700 0
DWIDTH 14 0
BBX 13 14 0 0
BITMAP
FFF0
FFF8
F8F8
F8F8
F8F8
F8F8
FFF8
FFF0
FBE0
FBE0
F9F0
F9F0
F8F8
F8F8
ENDCHAR
STARTCHAR uni0053
ENCODING 83
SWIDTH 700 0
DWIDTH 14 0
BBX 13 14 0 0
BITMAP
7FF0
FFF8
F8F8
F8F8
FC00
FF00
7FC0
1FF0
07F8
01F8
F8F8
F8F8
FFF8
7FF0
ENDCHAR
STARTCHAR uni0054
ENCODING 84
SWIDTH 700 0
DWIDTH 14 0
BBX 13 14 0 0
BITMAP
FFF8
FFF8
0F80
0F80
0F80
0F80
0F80
0F80
0F80
0F80
0F80
0F80
0F80
0F80
ENDCHAR
STARTCHAR uni0055
ENCODING 85
SWIDTH 700 0
DWIDTH 14 0
BBX 13 14 0 0
BITMAP
F8F8
F8F8
F8F8
F8F8
F8F8
F8F8
F8F8
F8F8
F8F8
F8F8
F8F8
F8F8
FFF8
7FF0
ENDCHAR
STARTCHAR uni0056
ENCODING 86
SWIDTH 700 0
DWIDTH 14 0
BBX 13 14 0 0
BITMAP
F8F8
F8F8
F8F8
F8F8
F8F8
F8F8
F8F8
F8F8
F8F8
7DF0
3FE0
1FC0
0F80
0700
ENDCHAR
STARTCHAR uni0057
ENCODING 87
SWIDTH 900 0
DWIDTH 18 0
BBX 17 14 0 0
BITMAP
FBEF80
FBEF80
FBEF80
FBEF80
FBEF80
FBEF80
FBEF80
FBEF80
7FFF00
7FFF00
3F7E00
3F7E00
1E3C00
1E3C00
ENDCHAR
STARTCHAR uni0058
ENCODING 88
SWIDTH 700 0
DWIDTH 14 0
BBX 13 14 0 0
BITMAP
F8F8
F8F8
F8F8
FDF8
7FF0
3FE0
1FC0
1FC0
3FE0
7FF0
FDF8
F8F8
F8F8
F8F8
ENDCHAR
STARTCHAR uni0059
ENCODING 89
SWIDTH 700 0
DWIDTH 14 0
BBX 13 14 0 0
BITMAP
F8F8
F8F8
F8F8
F8F8
FDF8
7FF0
3FE0
1FC0
0F80
0F80
0F80
0F80
0F80
0F80
ENDCHAR
STARTCHAR uni005A
ENCODING 90
SWIDTH 700 0
DWIDTH 14 0
BBX 13 14 0 0
BITMAP
FFF8
FFF8
01F8
01F8
03F0
07E0
0FC0
1F80
3F00
7E00
FC00
FC00
FFF8
FFF8
ENDCHAR
STARTCHAR uni005B
ENCODING 91
SWIDTH 500 0
DWIDTH 10 0
BBX 6 18 2 -2
BITMAP
FC
FC
E0
E0
E0
E0
E0
E0
E0
E0
E0
E0
E0
E0
E0
E0
FC
FC
ENDCHAR
STARTCHAR uni005C
ENCODING 92
SWIDTH 500 0
DWIDTH 10 0
BBX 9 14 0 0
BITMAP
E000
E000
7000
7000
3800
3800
1C00
1C00
0E00
0E00
0700
0700
0380
0380
ENDCHAR
STARTCHAR uni005D
ENCODING 93
SWIDTH 500 0
DWIDTH 10 0
BBX 6 18 1 -2
BITMAP
FC
FC
1C
1C
1C
1C
1C
1C
1C
1C
1C
1C
1C
1C
1C
1C
FC
FC
ENDCHAR
STARTCHAR uni005E
ENCODING 94
SWIDTH 500 0
DWIDTH 10 0
BBX 9 5 0 9
BITMAP
0800
1C00
3E00
7700
E380
ENDCHAR
STARTCHAR uni005F
ENCODING 95
SWIDTH 700 0
DWIDTH 14 0
BBX 13 2 0 -2
BITMAP
FFF8
FFF8
ENDCHAR
STARTCHAR uni0060
ENCODING 96
SWIDTH 400 0
DWIDTH 8 0
BBX 6 3 1 13
BITMAP
F0
78
3C
ENDCHAR
STARTCHAR uni0061
ENCODING 97
SWIDTH 700 0
DWIDTH 14 0
BBX 13 10 0 0
BITMAP
7FF0
FFF8
F8F8
00F8
7FF8
FFF8
F8F8
F8F8
FFF8
7FF8
ENDCHAR
STARTCHAR uni0062
ENCODING 98
SWIDTH 700 0
DWIDTH 14 0
BBX 13 14 0 0
BITMAP
F800
F800
F800
F800
FFF0
FFF8
F8F8
F8F8
F8F8
F8F8
F8F8
F8F8
FFF8
FFF0
ENDCHAR
STARTCHAR uni0063
ENCODING 99
SWIDTH 700 0
DWIDTH 14 0
BBX 13 10 0 0
BITMAP
7FF0
FFF8
F8F8
F8F8
F800
F800
F8F8
F8F8
FFF8
7FF0
ENDCHAR
STARTCHAR uni0064
ENCODING 100
SWIDTH 700 0
DWIDTH 14 0
BBX 13 14 0 0
BITMAP
00F8
00F8
00F8
00F8
7FF8
FFF8
F8F8
F8F8
F8F8
F8F8
F8F8
F8F8
FFF8
7FF8
ENDCHAR
STARTCHAR uni0065
ENCODING 101
SWIDTH 700 0
DWIDTH 14 0
BBX 13 10 0 0
BITMAP
7FF0
FFF8
F8F8
F8F8
FFF8
FFF8
F800
F8F8
FFF8
7FF0
ENDCHAR
STARTCHAR uni0066
ENCODING 102
SWIDTH 500 0
DWIDTH 10 0
BBX 9 14 0 0
BITMAP
1F80
3F80
3E00
3E00
FF80
FF80
3E00
3E00
3E00
3E00
3E00
3E00
3E00
3E00
ENDCHAR
STARTCHAR uni0067
ENCODING 103
SWIDTH 700 0
DWIDTH 14 0
BBX 13 14 0 -4
BITMAP
7FF8
FFF8
F8F8
F8F8
F8F8
F8F8
F8F8
F8F8
FFF8
7FF8
00F8
F8F8
FFF8
7FF0
ENDCHAR
STARTCHAR uni0068
ENCODING 104
SWIDTH 700 0
DWIDTH 14 0
BBX 13 14 0 0
BITMAP
F800
F800
F800
F800
FFF0
FFF8
F8F8
F8F8
F8F8
F8F8
F8F8
F8F8
F8F8
F8F8
ENDCHAR
STARTCHAR uni0069
ENCODING 105
SWIDTH 300 0
DWIDTH 6 0
BBX 5 14 0 0
BITMAP
F8
F8
00
00
F8
F8
F8
F8
F8
F8
F8
F8
F8
F8
ENDCHAR
STARTCHAR uni006A
ENCODING 106
SWIDTH 400 0
DWIDTH 8 0
BBX 7 18 0 -4
BITMAP
3E
3E
00
00
FE
FE
3E
3E
3E
3E
3E
3E
3E
3E
3E
3E
FE
FC
ENDCHAR
STARTCHAR uni006B
ENCODING 107
SWIDTH 700 0
DWIDTH 14 0
BBX 13 14 0 0
BITMAP
F800
F800
F800
F800
F8F8
F9F0
FBE0
FFC0
FF80
FF80
FFC0
FBE0
F9F0
F8F8
ENDCHAR
STARTCHAR uni006C
ENCODING 108
SWIDTH 300 0
DWIDTH 6 0
BBX 5 14 0 0
BITMAP
F8
F8
F8
F8
F8
F8
F8
F8
F8
F8
F8
F8
F8
F8
ENDCHAR
STARTCHAR uni006D
ENCODING 109
SWIDTH 900 0
DWIDTH 18 0
BBX 17 10 0 0
BITMAP
FFFF00
FFFF80
FBEF80
FBEF80
FBEF80
FBEF80
FBEF80
FBEF80
FBEF80
FBEF80
ENDCHAR
STARTCHAR uni006E
ENCODING 110
SWIDTH 700 0
DWIDTH 14 0
BBX 13 10 0 0
BITMAP
FFF0
FFF8
F8F8
F8F8
F8F8
F8F8
F8F8
F8F8
F8F8
F8F8
ENDCHAR
STARTCHAR uni006F
ENCODING 111
SWIDTH 700 0
DWIDTH 14 0
BBX 13 10 0 0
BITMAP
7FF0
FFF8
F8F8
F8F8
F8F8
F8F8
F8F8
F8F8
FFF8
7FF0
ENDCHAR
STARTCHAR uni0070
ENCODING 112
SWIDTH 700 0
DWIDTH 14 0
BBX 13 14 0 -4
BITMAP
FFF0
FFF8
F8F8
F8F8
F8F8
F8F8
F8F8
F8F8
FFF8
FFF0
F800
F800
F800
F800
ENDCHAR
STARTCHAR uni0071
ENCODING 113
SWIDTH 700 0
DWIDTH 14 0
BBX 13 14 0 -4
BITMAP
7FF8
FFF8
F8F8
F8F8
F8F8
F8F8
F8F8
F8F8
FFF8
7FF8
00F8
00F8
00F8
00F8
ENDCHAR
STARTCHAR uni0072
ENCODING 114
SWIDTH 700 0
DWIDTH 14 0
BBX 13 10 0 0
BITMAP
FFF0
FFF8
F8F8
F8F8
F8F8
F800
F800
F800
F800
F800
ENDCHAR
STARTCHAR uni0073
ENCODING 115
SWIDTH 700 0
DWIDTH 14 0
BBX 13 10 0 0
BITMAP
7FF8
FFF8
FC00
FF00
7FC0
1FF0
07F8
01F8
FFF8
FFF0
ENDCHAR
STARTCHAR uni0074
ENCODING 116
SWIDTH 500 0
DWIDTH 10 0
BBX 9 14 0 0
BITMAP
7C00
7C00
7C00
7C00
FF80
FF80
7C00
7C00
7C00
7C00
7C00
7C00
7F80
3F80
ENDCHAR
STARTCHAR uni0075
ENCODING 117
SWIDTH 700 0
DWIDTH 14 0
BBX 13 10 0 0
BITMAP
F8F8
F8F8
F8F8
F8F8
F8F8
F8F8
F8F8
F8F8
FFF8
7FF8
ENDCHAR
STARTCHAR uni0076
ENCODING 118
SWIDTH 700 0
DWIDTH 14 0
BBX 13 10 0 0
BITMAP
F8F8
F8F8
F8F8
F8F8
F8F8
7DF0
3FE0
1FC0
0F80
0700
ENDCHAR
STARTCHAR uni0077
ENCODING 119
SWIDTH 900 0
DWIDTH 18 0
BBX 17 10 0 0
BITMAP
FBEF80
FBEF80
FBEF80
FBEF80
FBEF80
FBEF80
FBEF80
FBEF80
FFFF80
7FFF00
ENDCHAR
STARTCHAR uni0078
ENCODING 120
SWIDTH 700 0
DWIDTH 14 0
BBX 13 10 0 0
BITMAP
F8F8
F8F8
FDF8
7FF0
3FE0
3FE0
7FF0
FDF8
F8F8
F8F8
ENDCHAR
STARTCHAR uni0079
ENCODING 121
SWIDTH 700 0
DWIDTH 14 0
BBX 13 14 0 -4
BITMAP
F8F8
F8F8
F8F8
F8F8
F8F8
F8F8
F8F8
F8F8
FFF8
7FF8
00F8
F8F8
FFF8
7FF0
ENDCHAR
STARTCHAR uni007A
ENCODING 122
SWIDTH 700 0
DWIDTH 14 0
BBX 13 10 0 0
BITMAP
FFF8
FFF8
03F0
07E0
0FC0
1F80
3F00
7E00
FFF8
FFF8
ENDCHAR
STARTCHAR uni007B
ENCODING 123
SWIDTH 500 0
DWIDTH 10 0
BBX 9 18 0 -2
BITMAP
0F80
1F80
1C00
1C00
1C00
1C00
1C00
3800
F000
F000
3800
1C00
1C00
1C00
1C00
1C00
1F80
0F80
ENDCHAR
STARTCHAR uni007C
ENCODING 124
SWIDTH 200 0
DWIDTH 4 0
BBX 3 20 0 -4
BITMAP
E0
E0
E0
E0
E0
E0
E0
E0
E0
E0
E0
E0
E0
E0
E0
E0
E0
E0
E0
E0
ENDCHAR
STARTCHAR uni007D
ENCODING 125
SWIDTH 500 0
DWIDTH 10 0
BBX 9 18 0 -2
BITMAP
F800
FC00
1C00
1C00
1C00
1C00
1C00
0E00
0780
0780
0E00
1C00
1C00
1C00
1C00
1C00
FC00
F800
ENDCHAR
STARTCHAR uni007E
ENCODING 126
SWIDTH 500 0
DWIDTH 10 0
BBX 9 4 0 5
BITMAP
7980
FF80
FF80
CF00
ENDCHAR
STARTCHAR uni00A0
ENCODING 160
SWIDTH 200 0
DWIDTH 4 0
BBX 1 1 0 0
BITMAP
00
ENDCHAR
STARTCHAR uni00A1
ENCODING 161
SWIDTH 300 0
DWIDTH 6 0
BBX 5 14 0 -4
BITMAP
F8
F8
00
00
F8
F8
F8
F8
F8
F8
F8
F8
F8
F8
ENDCHAR
STARTCHAR uni00A2
ENCODING 162
SWIDTH 700 0
DWIDTH 14 0
BBX 13 12 0 -1
BITMAP
0700
7FF0
FFF8
F778
F778
F700
F700
F778
F778
FFF8
7FF0
0700
ENDCHAR
STARTCHAR uni00A3
ENCODING 163
SWIDTH 700 0
DWIDTH 14 0
BBX 13 14 0 0
BITMAP
1FF0
3FF8
3C78
3C78
3C00
3C00
FF80
FF80
3C00
3C00
3C00
7878
FFF8
FFF8
ENDCHAR
STARTCHAR uni00A4
ENCODING 164
SWIDTH 700 0
DWIDTH 14 0
BBX 13 14 0 0
BITMAP
2020
7070
FFF8
FFF8
7FF0
38E0
38E0
38E0
38E0
7FF0
FFF8
FFF8
7070
2020
ENDCHAR
STARTCHAR uni00A5
ENCODING 165
SWIDTH 700 0
DWIDTH 14 0
BBX 13 14 0 0
BITMAP
E038
F078
78F0
3DE0
1FC0
FFF8
FFF8
0F80
FFF8
FFF8
0F80
0F80
0F80
0F80
ENDCHAR
STARTCHAR uni00A6
ENCODING 166
SWIDTH 200 0
DWIDTH 4 0
BBX 3 18 0 -3
BITMAP
E0
E0
E0
E0
E0
E0
E0
E0
00
00
E0
E0
E0
E0
E0
E0
E0
E0
ENDCHAR
STARTCHAR uni00A7
ENCODING 167
SWIDTH 700 0
DWIDTH 14 0
BBX 13 18 0 -4
BITMAP
7FF0
FFF8
F8F8
F800
F800
FFF0
7FF8
78F8
F8F8
F8F8
F8F0
FFF0
7FF8
00F8
00F8
F8F8
FFF8
7FF0
ENDCHAR
STARTCHAR uni00A8
ENCODING 168
SWIDTH 500 0
DWIDTH 10 0
BBX 7 2 1 14
BITMAP
EE
EE
ENDCHAR
STARTCHAR uni00A9
ENCODING 169
SWIDTH 700 0
DWIDTH 14 0
BBX 13 14 0 0
BITMAP
3FE0
7FF0
E038
CF98
DFD8
D8D8
D818
D818
D8D8
DFD8
CF98
E038
7FF0
3FE0
ENDCHAR
STARTCHAR uni00AA
ENCODING 170
SWIDTH 300 0
DWIDTH 6 0
BBX 5 11 0 3
BITMAP
F0
F8
18
78
F8
D8
F8
78
00
F8
F8
ENDCHAR
STARTCHAR uni00AB
ENCODING 171
SWIDTH 500 0
DWIDTH 10 0
BBX 9 8 0 3
BITMAP
1080
3180
7380
E700
E700
7380
3180
1080
ENDCHAR
STARTCHAR uni00AC
ENCODING 172
SWIDTH 700 0
DWIDTH 14 0
BBX 13 5 0 3
BITMAP
FFF8
FFF8
00F8
00F8
00F8
ENDCHAR
STARTCHAR uni00AD
ENCODING 173
SWIDTH 500 0
DWIDTH 10 0
BBX 9 2 0 6
BITMAP
FF80
FF80
ENDCHAR
STARTCHAR uni00AE
ENCODING 174
SWIDTH 700 0
DWIDTH 14 0
BBX 13 14 0 0
BITMAP
3FE0
7FF0
E038
DF98
DFD8
D8D8
DFD8
DF98
D8D8
D8D8
D8D8
E038
7FF0
3FE0
ENDCHAR
STARTCHAR uni00AF
ENCODING 175
SWIDTH 500 0
DWIDTH 10 0
BBX 7 2 1 14
BITMAP
FE
FE
ENDCHAR
STARTCHAR uni00B0
ENCODING 176
SWIDTH 300 0
DWIDTH 6 0
BBX 5 6 0 8
BITMAP
70
F8
D8
D8
F8
70
ENDCHAR
STARTCHAR uni00B1
ENCODING 177
SWIDTH 500 0
DWIDTH 10 0
BBX 9 11 0 0
BITMAP
1C00
1C00
1C00
FF80
FF80
1C00
1C00
1C00
0000
FF80
FF80
ENDCHAR
STARTCHAR uni00B2
ENCODING 178
SWIDTH 300 0
DWIDTH 6 0
BBX 5 8 0 6
BITMAP
F0
F8
18
78
F0
C0
F8
F8
ENDCHAR
STARTCHAR uni00B3
ENCODING 179
SWIDTH 300 0
DWIDTH 6 0
BBX 5 8 0 6
BITMAP
F0
F8
18
78
78
18
F8
F0
ENDCHAR
STARTCHAR uni00B4
ENCODING 180
SWIDTH 500 0
DWIDTH 10 0
BBX 7 3 1 13
BITMAP
3E
7C
F8
ENDCHAR
STARTCHAR uni00B5
ENCODING 181
SWIDTH 700 0
DWIDTH 14 0
BBX 13 14 0 -4
BITMAP
F8F8
F8F8
F8F8
F8F8
F8F8
F8F8
F8F8
F9F8
FFF8
FEF8
F800
F800
F800
F800
ENDCHAR
STARTCHAR uni00B6
ENCODING 182
SWIDTH 700 0
DWIDTH 14 0
BBX 13 18 0 -4
BITMAP
7FF8
FFF8
FE78
FE78
FE78
FE78
7E78
1E78
1E78
1E78
1E78
1E78
1E78
1E78
1E78
1E78
1E78
1E78
ENDCHAR
STARTCHAR uni00B7
ENCODING 183
SWIDTH 300 0
DWIDTH 6 0
BBX 5 4 0 5
BITMAP
70
F8
F8
70
ENDCHAR
STARTCHAR uni00B8
ENCODING 184
SWIDTH 500 0
DWIDTH 10 0
BBX 7 4 1 -4
BITMAP
3C
1E
FE
FC
ENDCHAR
STARTCHAR uni00B9
ENCODING 185
SWIDTH 300 0
DWIDTH 6 0
BBX 4 8 0 6
BITMAP
60
E0
E0
60
60
60
F0
F0
ENDCHAR
STARTCHAR uni00BA
ENCODING 186
SWIDTH 300 0
DWIDTH 6 0
BBX 5 11 0 3
BITMAP
70
F8
D8
D8
D8
D8
F8
70
00
F8
F8
ENDCHAR
STARTCHAR uni00BB
ENCODING 187
SWIDTH 500 0
DWIDTH 10 0
BBX 9 8 0 3
BITMAP
8400
C600
E700
7380
7380
E700
C600
8400
ENDCHAR
STARTCHAR uni00BC
ENCODING 188
SWIDTH 700 0
DWIDTH 14 0
BBX 13 14 0 0
BITMAP
60E0
E0E0
E1C0
61C0
6380
6380
F738
F778
0EF8
0ED8
1CF8
1CF8
3818
3818
ENDCHAR
STARTCHAR uni00BD
ENCODING 189
SWIDTH 700 0
DWIDTH 14 0
BBX 13 14 0 0
BITMAP
60E0
E0E0
E1C0
61C0
6380
6380
F770
F7F8
0ED8
0E38
1C70
1CE0
38F8
38F8
ENDCHAR
STARTCHAR uni00BE
ENCODING 190
SWIDTH 700 0
DWIDTH 14 0
BBX 13 14 0 0
BITMAP
F0E0
F8E0
19C0
79C0
7B80
1B80
FF38
F778
0EF8
0ED8
1CF8
1CF8
3818
3818
ENDCHAR
STARTCHAR uni00BF
ENCODING 191
SWIDTH 700 0
DWIDTH 14 0
BBX 13 14 0 -4
BITMAP
0F80
0F80
0000
0000
0F80
0F80
1F00
3E00
7C00
F8F8
F8F8
F8F8
FFF8
7FF0
ENDCHAR
STARTCHAR uni00D7
ENCODING 215
SWIDTH 500 0
DWIDTH 10 0
BBX 9 8 0 3
BITMAP
E380
7700
3E00
1C00
1C00
3E00
7700
E380
ENDCHAR
STARTCHAR uni00F7
ENCODING 247
SWIDTH 500 0
DWIDTH 10 0
BBX 9 10 0 2
BITMAP
1C00
1C00
0000
0000
FF80
FF80
0000
0000
1C00
1C00
ENDCHAR
STARTCHAR uni2002
ENCODING 8194
SWIDTH 700 0
DWIDTH 14 0
BBX 1 1 0 0
BITMAP
00
ENDCHAR
STARTCHAR uni2003
ENCODING 8195
SWIDTH 900 0
DWIDTH 18 0
BBX 1 1 0 0
BITMAP
00
ENDCHAR
STARTCHAR uni2004
ENCODING 8196
SWIDTH 300 0
DWIDTH 6 0
BBX 1 1 0 0
BITMAP
00
ENDCHAR
STARTCHAR uni2009
ENCODING 8201
SWIDTH 100 0
DWIDTH 2 0
BBX 1 1 0 0
BITMAP
00
ENDCHAR
STARTCHAR uni200A
ENCODING 8202
SWIDTH 50 0
DWIDTH 1 0
BBX 1 1 0 0
BITMAP
00
ENDCHAR
STARTCHAR uni2010
ENCODING 8208
SWIDTH 500 0
DWIDTH 10 0
BBX 9 2 0 4
BITMAP
FF80
FF80
ENDCHAR
STARTCHAR uni2011
ENCODING 8209
SWIDTH 500 0
DWIDTH 10 0
BBX 9 2 0 4
BITMAP
FF80
FF80
ENDCHAR
STARTCHAR uni2012
ENCODING 8210
SWIDTH 700 0
DWIDTH 14 0
BBX 13 2 0 4
BITMAP
FFF8
FFF8
ENDCHAR
STARTCHAR uni2013
ENCODING 8211
SWIDTH 700 0
DWIDTH 14 0
BBX 13 2 0 4
BITMAP
FFF8
FFF8
ENDCHAR
STARTCHAR uni2014
ENCODING 8212
SWIDTH 900 0
DWIDTH 18 0
BBX 17 2 0 4
BITMAP
FFFF80
FFFF80
ENDCHAR
STARTCHAR uni2015
ENCODING 8213
SWIDTH 700 0
DWIDTH 14 0
BBX 14 2 0 6
BITMAP
FFFC
FFFC
ENDCHAR
STARTCHAR uni2016
ENCODING 8214
SWIDTH 300 0
DWIDTH 6 0
BBX 5 20 0 -4
BITMAP
D8
D8
D8
D8
D8
D8
D8
D8
D8
D8
D8
D8
D8
D8
D8
D8
D8
D8
D8
D8
ENDCHAR
STARTCHAR uni2017
ENCODING 8215
SWIDTH 700 0
DWIDTH 14 0
BBX 13 5 0 -4
BITMAP
FFF8
FFF8
0000
FFF8
FFF8
ENDCHAR
STARTCHAR uni2018
ENCODING 8216
SWIDTH 200 0
DWIDTH 4 0
BBX 3 5 0 9
BITMAP
60
E0
C0
E0
E0
ENDCHAR
STARTCHAR uni2019
ENCODING 8217
SWIDTH 200 0
DWIDTH 4 0
BBX 3 5 0 9
BITMAP
E0
E0
60
E0
C0
ENDCHAR
STARTCHAR uni201A
ENCODING 8218
SWIDTH 200 0
DWIDTH 4 0
BBX 3 5 0 -3
BITMAP
E0
E0
60
E0
C0
ENDCHAR
STARTCHAR uni201B
ENCODING 8219
SWIDTH 200 0
DWIDTH 4 0
BBX 3 5 0 9
BITMAP
E0
E0
C0
E0
60
ENDCHAR
STARTCHAR uni201C
ENCODING 8220
SWIDTH 400 0
DWIDTH 8 0
BBX 7 5 0 9
BITMAP
66
EE
CC
EE
EE
ENDCHAR
STARTCHAR uni201D
ENCODING 8221
SWIDTH 400 0
DWIDTH 8 0
BBX 7 5 0 9
BITMAP
EE
EE
66
EE
CC
ENDCHAR
STARTCHAR uni201E
ENCODING 8222
SWIDTH 400 0
DWIDTH 8 0
BBX 7 5 0 -3
BITMAP
EE
EE
66
EE
CC
ENDCHAR
STARTCHAR uni201F
ENCODING 8223
SWIDTH 400 0
DWIDTH 8 0
BBX 7 5 0 9
BITMAP
EE
EE
CC
EE
66
ENDCHAR
STARTCHAR uni2020
ENCODING 8224
SWIDTH 500 0
DWIDTH 10 0
BBX 9 14 0 0
BITMAP
1C00
1C00
1C00
1C00
FF80
FF80
1C00
1C00
1C00
1C00
1C00
1C00
1C00
1C00
ENDCHAR
STARTCHAR uni2021
ENCODING 8225
SWIDTH 500 0
DWIDTH 10 0
BBX 9 18 0 -4
BITMAP
1C00
1C00
1C00
1C00
FF80
FF80
1C00
1C00
1C00
1C00
1C00
1C00
FF80
FF80
1C00
1C00
1C00
1C00
ENDCHAR
STARTCHAR uni2022
ENCODING 8226
SWIDTH 700 0
DWIDTH 14 0
BBX 4 4 5 5
BITMAP
60
F0
F0
60
ENDCHAR
STARTCHAR uni2023
ENCODING 8227
SWIDTH 700 0
DWIDTH 14 0
BBX 3 5 6 4
BITMAP
80
C0
E0
C0
80
ENDCHAR
STARTCHAR uni2024
ENCODING 8228
SWIDTH 200 0
DWIDTH 4 0
BBX 3 2 0 0
BITMAP
E0
E0
ENDCHAR
STARTCHAR uni2025
ENCODING 8229
SWIDTH 400 0
DWIDTH 8 0
BBX 7 2 0 0
BITMAP
EE
EE
ENDCHAR
STARTCHAR uni2026
ENCODING 8230
SWIDTH 600 0
DWIDTH 12 0
BBX 11 2 0 0
BITMAP
EEE0
EEE0
ENDCHAR
STARTCHAR uni2030
ENCODING 8240
SWIDTH 700 0
DWIDTH 14 0
BBX 13 14 0 0
BITMAP
7380
FB80
DF00
DF00
FE00
7E00
1C00
1C00
3F70
3FF8
7DD8
7DD8
EFF8
E770
ENDCHAR
STARTCHAR uni2032
ENCODING 8242
SWIDTH 200 0
DWIDTH 4 0
BBX 3 5 0 9
BITMAP
E0
E0
E0
C0
80
ENDCHAR
STARTCHAR uni2033
ENCODING 8243
SWIDTH 400 0
DWIDTH 8 0
BBX 7 5 0 9
BITMAP
EE
EE
EE
CC
88
ENDCHAR
STARTCHAR uni2034
ENCODING 8244
SWIDTH 600 0
DWIDTH 12 0
BBX 11 5 0 9
BITMAP
EEE0
EEE0
EEE0
CCC0
8880
ENDCHAR
STARTCHAR uni2039
ENCODING 8249
SWIDTH 300 0
DWIDTH 6 0
BBX 5 10 0 3
BITMAP
08
18
38
70
E0
E0
70
38
18
08
ENDCHAR
STARTCHAR uni203A
ENCODING 8250
SWIDTH 300 0
DWIDTH 6 0
BBX 5 10 0 3
BITMAP
80
C0
E0
70
38
38
70
E0
C0
80
ENDCHAR
STARTCHAR uni203B
ENCODING 8251
SWIDTH 700 0
DWIDTH 14 0
BBX 13 14 0 0
BITMAP
0700
6730
7070
38E0
1DC0
0F80
E738
E738
0F80
1DC0
38E0
7070
6730
0700
ENDCHAR
STARTCHAR uni203C
ENCODING 8252
SWIDTH 500 0
DWIDTH 10 0
BBX 9 14 0 0
BITMAP
F780
F780
F780
F780
F780
F780
F780
F780
F780
F780
0000
0000
F780
F780
ENDCHAR
STARTCHAR uni2044
ENCODING 8260
SWIDTH 700 0
DWIDTH 14 0
BBX 13 13 0 0
BITMAP
0018
0038
0070
00E0
01C0
0380
0700
0E00
1C00
3800
7000
E000
C000
ENDCHAR
STARTCHAR uni2047
ENCODING 8263
SWIDTH 700 0
DWIDTH 14 0
BBX 13 14 0 0
BITMAP
F9F0
FDF8
1C38
1C38
1C38
1C38
3C78
78F0
70E0
70E0
0000
0000
70E0
70E0
ENDCHAR
STARTCHAR uni2048
ENCODING 8264
SWIDTH 700 0
DWIDTH 14 0
BBX 13 14 0 0
BITMAP
FE78
FF78
0F78
0F78
0F78
0F78
1F78
3E78
3C78
3C78
0000
0000
3C78
3C78
ENDCHAR
STARTCHAR uni2049
ENCODING 8265
SWIDTH 700 0
DWIDTH 14 0
BBX 13 14 0 0
BITMAP
F7F0
F7F8
F078
F078
F078
F078
F0F8
F1F0
F1E0
F1E0
0000
0000
F1E0
F1E0
ENDCHAR
STARTCHAR uni20AC
ENCODING 8364
SWIDTH 700 0
DWIDTH 14 0
BBX 13 14 0 0
BITMAP
3FF0
7FF8
7878
7878
FF00
FF00
7800
7800
FF00
FF00
7878
7878
7FF8
3FF0
ENDCHAR
STARTCHAR uni20BD
ENCODING 8381
SWIDTH 700 0
DWIDTH 14 0
BBX 13 14 0 0
BITMAP
3FF0
3FF8
3C78
3C78
3C78
3C78
FFF8
FFF0
3C00
3C00
FFE0
FFE0
3C00
3C00
ENDCHAR
STARTCHAR uni2103
ENCODING 8451
SWIDTH 700 0
DWIDTH 14 0
BBX 13 14 0 0
BITMAP
77F0
FFF8
DF78
DF78
DF78
FF00
7F00
0F00
0F00
0F78
0F78
0F78
0FF8
07F0
ENDCHAR
STARTCHAR uni2109
ENCODING 8457
SWIDTH 700 0
DWIDTH 14 0
BBX 13 14 0 0
BITMAP
77F8
FFF8
DF80
DF80
DF80
FF80
77F8
07F8
0780
0780
0780
0780
0780
0780
ENDCHAR
STARTCHAR uni2113
ENCODING 8467
SWIDTH 700 0
DWIDTH 14 0
BBX 13 14 0 0
BITMAP
0FE0
1FF0
1EF0
1EF0
1EF0
1EF0
1FF0
1FE0
1FC0
1F80
3F00
7F00
F7F8
E3F8
ENDCHAR
STARTCHAR uni2116
ENCODING 8470
SWIDTH 900 0
DWIDTH 18 0
BBX 17 14 0 0
BITMAP
E39F00
E3BF80
F3BB80
F3BB80
FBBB80
FBBB80
FFBF80
FF9F00
EF8000
EFBF80
E7BF80
E78000
E38000
E38000
ENDCHAR
STARTCHAR uni2120
ENCODING 8480
SWIDTH 700 0
DWIDTH 14 0
BBX 13 8 0 6
BITMAP
7F18
FFB8
E3F8
73F8
3B58
1F18
FF18
FB18
ENDCHAR
STARTCHAR uni2121
ENCODING 8481
SWIDTH 700 0
DWIDTH 14 0
BBX 14 14 0 0
BITMAP
FC00
FC00
3000
3000
37B0
37B0
3630
3630
37B0
37B0
3630
3630
37BC
37BC
ENDCHAR
STARTCHAR uni2122
ENCODING 8482
SWIDTH 700 0
DWIDTH 14 0
BBX 13 8 0 6
BITMAP
FF18
FFB8
33F8
33F8
3358
3318
3318
3318
ENDCHAR
STARTCHAR uni2126
ENCODING 8486
SWIDTH 700 0
DWIDTH 14 0
BBX 13 14 0 0
BITMAP
3FE0
7FF0
F8F8
F8F8
F8F8
F8F8
F8F8
F8F8
F8F8
78F0
38E0
38E0
FDF8
FDF8
ENDCHAR
STARTCHAR uni212B
ENCODING 8491
SWIDTH 700 0
DWIDTH 14 0
BBX 13 16 0 0
BITMAP
0F80
1FC0
18C0
1FC0
7FF0
FFF8
F8F8
F8F8
F8F8
F8F8
FFF8
FFF8
F8F8
F8F8
F8F8
F8F8
ENDCHAR
STARTCHAR uni2160
ENCODING 8544
SWIDTH 700 0
DWIDTH 14 0
BBX 13 14 0 0
BITMAP
FFF8
FFF8
0F80
0F80
0F80
0F80
0F80
0F80
0F80
0F80
0F80
0F80
FFF8
FFF8
ENDCHAR
STARTCHAR uni2161
ENCODING 8545
SWIDTH 700 0
DWIDTH 14 0
BBX 13 14 0 0
BITMAP
FFF8
FFF8
3DE0
3DE0
3DE0
3DE0
3DE0
3DE0
3DE0
3DE0
3DE0
3DE0
FFF8
FFF8
ENDCHAR
STARTCHAR uni2162
ENCODING 8546
SWIDTH 700 0
DWIDTH 14 0
BBX 13 14 0 0
BITMAP
FFF8
FFF8
7770
7770
7770
7770
7770
7770
7770
7770
7770
7770
FFF8
FFF8
ENDCHAR
STARTCHAR uni2163
ENCODING 8547
SWIDTH 700 0
DWIDTH 14 0
BBX 13 14 0 0
BITMAP
FFF8
FFF8
7770
7770
7770
7770
73E0
73E0
73E0
73E0
71C0
71C0
F9C0
F9C0
ENDCHAR
STARTCHAR uni2164
ENCODING 8548
SWIDTH 700 0
DWIDTH 14 0
BBX 13 14 0 0
BITMAP
FDF8
FDF8
38E0
38E0
38E0
1DC0
1DC0
1DC0
0F80
0F80
0F80
0700
0700
0700
ENDCHAR
STARTCHAR uni2165
ENCODING 8549
SWIDTH 700 0
DWIDTH 14 0
BBX 13 14 0 0
BITMAP
FFF8
FFF8
7770
7770
7770
7770
3E70
3E70
3E70
3E70
1C70
1C70
1CF8
1CF8
ENDCHAR
STARTCHAR uni2166
ENCODING 8550
SWIDTH 700 0
DWIDTH 14 0
BBX 13 14 0 0
BITMAP
FFF8
FFF8
6DB0
6DB0
6DB0
7DB0
7DB0
7DB0
39B0
39B0
39B0
39B0
3BF8
3BF8
ENDCHAR
STARTCHAR uni2167
ENCODING 8551
SWIDTH 700 0
DWIDTH 14 0
BBX 13 14 0 0
BITMAP
DFF8
DFF8
DED8
DED8
FED8
FED8
FED8
FED8
76D8
76D8
76D8
76D8
7FF8
7FF8
ENDCHAR
STARTCHAR uni2168
ENCODING 8552
SWIDTH 700 0
DWIDTH 14 0
BBX 13 14 0 0
BITMAP
FFF8
FFF8
7770
7770
7770
73E0
73E0
73E0
73E0
7770
7770
7770
FFF8
FFF8
ENDCHAR
STARTCHAR uni2169
ENCODING 8553
SWIDTH 700 0
DWIDTH 14 0
BBX 13 14 0 0
BITMAP
FFF8
FFF8
3DE0
3DE0
1FC0
1FC0
0F80
0F80
1FC0
1FC0
3DE0
3DE0
FFF8
FFF8
ENDCHAR
STARTCHAR uni216A
ENCODING 8554
SWIDTH 700 0
DWIDTH 14 0
BBX 13 14 0 0
BITMAP
FFF8
FFF8
7770
7770
7770
3E70
3E70
3E70
3E70
7770
7770
7770
FFF8
FFF8
ENDCHAR
STARTCHAR uni216B
ENCODING 8555
SWIDTH 700 0
DWIDTH 14 0
BBX 13 14 0 0
BITMAP
FFF8
FFF8
6DB0
6DB0
7DB0
39B0
39B0
39B0
39B0
7DB0
6DB0
6DB0
FFF8
FFF8
ENDCHAR
STARTCHAR uni2170
ENCODING 8560
SWIDTH 700 0
DWIDTH 14 0
BBX 13 14 0 0
BITMAP
0F80
0F80
0000
0000
FF80
FF80
0F80
0F80
0F80
0F80
0F80
0F80
FFF8
FFF8
ENDCHAR
STARTCHAR uni2171
ENCODING 8561
SWIDTH 700 0
DWIDTH 14 0
BBX 13 14 0 0
BITMAP
3DE0
3DE0
0000
0000
FFE0
FFE0
3DE0
3DE0
3DE0
3DE0
3DE0
3DE0
FFF8
FFF8
ENDCHAR
STARTCHAR uni2172
ENCODING 8562
SWIDTH 700 0
DWIDTH 14 0
BBX 13 14 0 0
BITMAP
7770
7770
0000
0000
FFF0
FFF0
7770
7770
7770
7770
7770
7770
FFF8
FFF8
ENDCHAR
STARTCHAR uni2173
ENCODING 8563
SWIDTH 700 0
DWIDTH 14 0
BBX 13 14 0 0
BITMAP
7000
7000
0000
0000
FE38
FE38
7770
7770
7770
73E0
73E0
73E0
F9C0
F9C0
ENDCHAR
STARTCHAR uni2174
ENCODING 8564
SWIDTH 700 0
DWIDTH 14 0
BBX 13 10 0 0
BITMAP
F078
F078
78F0
78F0
3DE0
3DE0
1FC0
1FC0
0F80
0F80
ENDCHAR
STARTCHAR uni2175
ENCODING 8565
SWIDTH 700 0
DWIDTH 14 0
BBX 13 14 0 0
BITMAP
0070
0070
0000
0000
E3F0
E3F0
7770
7770
7770
3E70
3E70
3E70
1CF8
1CF8
ENDCHAR
STARTCHAR uni2176
ENCODING 8566
SWIDTH 700 0
DWIDTH 14 0
BBX 13 14 0 0
BITMAP
01B0
01B0
0000
0000
EFF0
EFF0
EFB0
EFB0
7DB0
7DB0
7DB0
39B0
3BF8
3BF8
ENDCHAR
STARTCHAR uni2177
ENCODING 8567
SWIDTH 700 0
DWIDTH 14 0
BBX 13 14 0 0
BITMAP
06D8
06D8
0000
0000
DFF8
DFF8
DED8
DED8
FED8
FED8
76D8
76D8
77F8
77F8
ENDCHAR
STARTCHAR uni2178
ENCODING 8568
SWIDTH 700 0
DWIDTH 14 0
BBX 13 14 0 0
BITMAP
7000
7000
0000
0000
FE38
FE38
7770
7770
73E0
73E0
7770
7770
FE38
FE38
ENDCHAR
STARTCHAR uni2179
ENCODING 8569
SWIDTH 700 0
DWIDTH 14 0
BBX 13 10 0 0
BITMAP
F078
78F0
3DE0
1FC0
0F80
0F80
1FC0
3DE0
78F0
F078
ENDCHAR
STARTCHAR uni217A
ENCODING 8570
SWIDTH 700 0
DWIDTH 14 0
BBX 13 14 0 0
BITMAP
0070
0070
0000
0000
E3F0
E3F0
7770
7770
3E70
3E70
7770
7770
E3F8
E3F8
ENDCHAR
STARTCHAR uni217B
ENCODING 8571
SWIDTH 700 0
DWIDTH 14 0
BBX 13 14 0 0
BITMAP
01B0
01B0
0000
0000
EFF0
EFF0
7DB0
7DB0
39B0
39B0
7DB0
7DB0
EFF8
EFF8
ENDCHAR
STARTCHAR uni2190
ENCODING 8592
SWIDTH 700 0
DWIDTH 14 0
BBX 13 11 0 1
BITMAP
0400
0C00
1C00
3FF8
7FF8
FFF8
7FF8
3FF8
1C00
0C00
0400
ENDCHAR
STARTCHAR uni2191
ENCODING 8593
SWIDTH 700 0
DWIDTH 14 0
BBX 11 13 1 0
BITMAP
0400
0E00
1F00
3F80
7FC0
FFE0
1F00
1F00
1F00
1F00
1F00
1F00
1F00
ENDCHAR
STARTCHAR uni2192
ENCODING 8594
SWIDTH 700 0
DWIDTH 14 0
BBX 13 11 0 1
BITMAP
0100
0180
01C0
FFE0
FFF0
FFF8
FFF0
FFE0
01C0
0180
0100
ENDCHAR
STARTCHAR uni2193
ENCODING 8595
SWIDTH 700 0
DWIDTH 14 0
BBX 11 13 1 0
BITMAP
1F00
1F00
1F00
1F00
1F00
1F00
1F00
FFE0
7FC0
3F80
1F00
0E00
0400
ENDCHAR
STARTCHAR uni2194
ENCODING 8596
SWIDTH 700 0
DWIDTH 14 0
BBX 13 9 0 2
BITMAP
0880
18C0
3FE0
7FF0
FFF8
7FF0
3FE0
18C0
0880
ENDCHAR
STARTCHAR uni2195
ENCODING 8597
SWIDTH 700 0
DWIDTH 14 0
BBX 9 13 2 0
BITMAP
0800
1C00
3E00
7F00
FF80
3E00
3E00
3E00
FF80
7F00
3E00
1C00
0800
ENDCHAR
STARTCHAR uni2196
ENCODING 8598
SWIDTH 700 0
DWIDTH 14 0
BBX 12 12 1 0
BITMAP
FF00
FE00
FC00
FE00
FF00
FF80
DFC0
8FE0
07F0
03E0
01C0
0080
ENDCHAR
STARTCHAR uni2197
ENCODING 8599
SWIDTH 700 0
DWIDTH 14 0
BBX 12 12 0 0
BITMAP
0FF0
07F0
03F0
07F0
0FF0
1FF0
3FB0
7F10
FE00
7C00
3800
1000
ENDCHAR
STARTCHAR uni2198
ENCODING 8600
SWIDTH 700 0
DWIDTH 14 0
BBX 12 12 0 1
BITMAP
1000
3800
7C00
FE00
7F10
3FB0
1FF0
0FF0
07F0
03F0
07F0
0FF0
ENDCHAR
STARTCHAR uni2199
ENCODING 8601
SWIDTH 700 0
DWIDTH 14 0
BBX 12 12 1 1
BITMAP
0080
01C0
03E0
07F0
8FE0
DFC0
FF80
FF00
FE00
FC00
FE00
FF00
ENDCHAR
STARTCHAR uni21D0
ENCODING 8656
SWIDTH 700 0
DWIDTH 14 0
BBX 13 11 0 1
BITMAP
0400
0C00
1400
27F8
4008
8008
4008
27F8
1400
0C00
0400
ENDCHAR
STARTCHAR uni21D1
ENCODING 8657
SWIDTH 700 0
DWIDTH 14 0
BBX 11 13 1 0
BITMAP
0400
0A00
1100
2080
4040
F1E0
1100
1100
1100
1100
1100
1100
1F00
ENDCHAR
STARTCHAR uni21D2
ENCODING 8658
SWIDTH 700 0
DWIDTH 14 0
BBX 13 11 0 1
BITMAP
0100
0180
0140
FF20
8010
8008
8010
FF20
0140
0180
0100
ENDCHAR
STARTCHAR uni21D3
ENCODING 8659
SWIDTH 700 0
DWIDTH 14 0
BBX 11 13 1 0
BITMAP
1F00
1100
1100
1100
1100
1100
1100
F1E0
4040
2080
1100
0A00
0400
ENDCHAR
STARTCHAR uni21D4
ENCODING 8660
SWIDTH 700 0
DWIDTH 14 0
BBX 13 9 0 2
BITMAP
0880
18C0
2FA0
4010
8008
4010
2FA0
18C0
0880
ENDCHAR
STARTCHAR uni21D5
ENCODING 8661
SWIDTH 700 0
DWIDTH 14 0
BBX 9 13 2 0
BITMAP
0800
1400
2200
4100
E380
2200
2200
2200
E380
4100
2200
1400
0800
ENDCHAR
STARTCHAR uni21D6
ENCODING 8662
SWIDTH 700 0
DWIDTH 14 0
BBX 12 12 1 0
BITMAP
FF00
8200
8400
8200
8100
A080
D040
8820
0410
0220
0140
0080
ENDCHAR
STARTCHAR uni21D7
ENCODING 8663
SWIDTH 700 0
DWIDTH 14 0
BBX 12 12 0 0
BITMAP
0FF0
0410
0210
0410
0810
1050
20B0
4110
8200
4400
2800
1000
ENDCHAR
STARTCHAR uni21D8
ENCODING 8664
SWIDTH 700 0
DWIDTH 14 0
BBX 12 12 0 1
BITMAP
1000
2800
4400
8200
4110
20B0
1050
0810
0410
0210
0410
0FF0
ENDCHAR
STARTCHAR uni21D9
ENCODING 8665
SWIDTH 700 0
DWIDTH 14 0
BBX 12 12 1 1
BITMAP
0080
0140
0220
0410
8820
D040
A080
8100
8200
8400
8200
FF00
ENDCHAR
STARTCHAR uni2200
ENCODING 8704
SWIDTH 700 0
DWIDTH 14 0
BBX 13 14 0 0
BITMAP
F8F8
F8F8
F8F8
F8F8
F8F8
FFF8
FFF8
F8F8
F8F8
F8F8
F8F8
FFF8
FFF8
7FF0
ENDCHAR
STARTCHAR uni2202
ENCODING 8706
SWIDTH 700 0
DWIDTH 14 0
BBX 13 14 0 0
BITMAP
3FF0
3FF8
00F8
00F8
00F8
7FF8
FFF8
F8F8
F8F8
F8F8
F8F8
F8F8
FFF8
7FF0
ENDCHAR
STARTCHAR uni2203
ENCODING 8707
SWIDTH 700 0
DWIDTH 14 0
BBX 13 14 0 0
BITMAP
FFF8
FFF8
00F8
00F8
00F8
00F8
FFF8
FFF8
00F8
00F8
00F8
00F8
FFF8
FFF8
ENDCHAR
STARTCHAR uni2206
ENCODING 8710
SWIDTH 700 0
DWIDTH 14 0
BBX 13 14 0 0
BITMAP
0F80
0F80
0F80
1FC0
1FC0
1FC0
3DE0
3DE0
3DE0
78F0
78F0
78F0
FFF8
FFF8
ENDCHAR
STARTCHAR uni2207
ENCODING 8711
SWIDTH 700 0
DWIDTH 14 0
BBX 13 14 0 0
BITMAP
FFF8
FFF8
78F0
78F0
78F0
3DE0
3DE0
3DE0
1FC0
1FC0
1FC0
0F80
0F80
0F80
ENDCHAR
STARTCHAR uni2208
ENCODING 8712
SWIDTH 500 0
DWIDTH 10 0
BBX 9 14 0 0
BITMAP
0F80
3F80
7800
7000
F000
F000
FF80
FF80
F000
F000
7000
7800
3F80
0F80
ENDCHAR
STARTCHAR uni220B
ENCODING 8715
SWIDTH 500 0
DWIDTH 10 0
BBX 9 14 0 0
BITMAP
F800
FE00
0F00
0700
0780
0780
FF80
FF80
0780
0780
0700
0F00
FE00
F800
ENDCHAR
STARTCHAR uni220F
ENCODING 8719
SWIDTH 700 0
DWIDTH 14 0
BBX 13 14 0 0
BITMAP
FFF8
FFF8
78F0
78F0
78F0
78F0
78F0
78F0
78F0
78F0
78F0
78F0
78F0
78F0
ENDCHAR
STARTCHAR uni2211
ENCODING 8721
SWIDTH 700 0
DWIDTH 14 0
BBX 13 14 0 0
BITMAP
FFF8
FFF8
7C78
7C78
3E00
3E00
1F00
1F00
3E00
3E00
7C78
7C78
FFF8
FFF8
ENDCHAR
STARTCHAR uni2212
ENCODING 8722
SWIDTH 500 0
DWIDTH 10 0
BBX 9 2 0 6
BITMAP
FF80
FF80
ENDCHAR
STARTCHAR uni2217
ENCODING 8727
SWIDTH 700 0
DWIDTH 14 0
BBX 9 8 2 3
BITMAP
1C00
DD80
FF80
7F00
7F00
FF80
DD80
1C00
ENDCHAR
STARTCHAR uni2218
ENCODING 8728
SWIDTH 700 0
DWIDTH 14 0
BBX 5 4 4 5
BITMAP
70
88
88
70
ENDCHAR
STARTCHAR uni2219
ENCODING 8729
SWIDTH 700 0
DWIDTH 14 0
BBX 5 4 4 5
BITMAP
70
F8
F8
70
ENDCHAR
STARTCHAR uni221A
ENCODING 8730
SWIDTH 700 0
DWIDTH 14 0
BBX 13 14 0 0
BITMAP
0078
0078
00E0
00E0
01C0
01C0
0380
0380
F700
F700
3E00
3E00
1C00
1C00
ENDCHAR
STARTCHAR uni221D
ENCODING 8733
SWIDTH 700 0
DWIDTH 14 0
BBX 13 8 0 3
BITMAP
78F0
FDF8
CF98
C700
C700
CF98
FDF8
78F0
ENDCHAR
STARTCHAR uni221E
ENCODING 8734
SWIDTH 700 0
DWIDTH 14 0
BBX 13 8 0 3
BITMAP
78F0
FDF8
CF98
C718
C718
CF98
FDF8
78F0
ENDCHAR
STARTCHAR uni221F
ENCODING 8735
SWIDTH 700 0
DWIDTH 14 0
BBX 13 14 0 0
BITMAP
E000
E000
E000
E000
E000
E000
E000
E000
E000
E000
E000
E000
FFF8
FFF8
ENDCHAR
STARTCHAR uni2220
ENCODING 8736
SWIDTH 700 0
DWIDTH 14 0
BBX 13 13 0 0
BITMAP
0008
0018
0038
0070
00E0
01C0
0380
0700
0E00
1C00
3800
7FF8
FFF8
ENDCHAR
STARTCHAR uni2225
ENCODING 8741
SWIDTH 500 0
DWIDTH 10 0
BBX 9 14 0 0
BITMAP
F780
F780
F780
F780
F780
F780
F780
F780
F780
F780
F780
F780
F780
F780
ENDCHAR
STARTCHAR uni2227
ENCODING 8743
SWIDTH 500 0
DWIDTH 10 0
BBX 9 14 0 0
BITMAP
1C00
1C00
1C00
3E00
3E00
3E00
7700
7700
7700
7700
E380
E380
E380
E380
ENDCHAR
STARTCHAR uni2228
ENCODING 8744
SWIDTH 500 0
DWIDTH 10 0
BBX 9 14 0 0
BITMAP
E380
E380
E380
E380
7700
7700
7700
7700
3E00
3E00
3E00
1C00
1C00
1C00
ENDCHAR
STARTCHAR uni2229
ENCODING 8745
SWIDTH 500 0
DWIDTH 10 0
BBX 9 14 0 0
BITMAP
7F00
FF80
E380
E380
E380
E380
E380
E380
E380
E380
E380
E380
E380
E380
ENDCHAR
STARTCHAR uni222A
ENCODING 8746
SWIDTH 500 0
DWIDTH 10 0
BBX 9 14 0 0
BITMAP
E380
E380
E380
E380
E380
E380
E380
E380
E380
E380
E380
E380
FF80
7F00
ENDCHAR
STARTCHAR uni222B
ENCODING 8747
SWIDTH 500 0
DWIDTH 10 0
BBX 9 20 0 -4
BITMAP
0F80
1F80
1C00
1C00
1C00
1C00
1C00
1C00
1C00
1C00
1C00
1C00
1C00
1C00
1C00
1C00
1C00
1C00
FC00
F800
ENDCHAR
STARTCHAR uni222C
ENCODING 8748
SWIDTH 700 0
DWIDTH 14 0
BBX 13 20 0 -4
BITMAP
1E78
3EF8
38E0
38E0
38E0
38E0
38E0
38E0
38E0
38E0
38E0
38E0
38E0
38E0
38E0
38E0
38E0
38E0
FBE0
F3C0
ENDCHAR
STARTCHAR uni222E
ENCODING 8750
SWIDTH 500 0
DWIDTH 10 0
BBX 9 20 0 -4
BITMAP
0F80
1F80
1C00
1C00
1C00
1C00
7F00
FF80
DD80
DD80
DD80
FF80
7F00
1C00
1C00
1C00
1C00
1C00
FC00
F800
ENDCHAR
STARTCHAR uni2234
ENCODING 8756
SWIDTH 500 0
DWIDTH 10 0
BBX 9 8 0 3
BITMAP
1C00
1C00
0000
0000
0000
0000
E380
E380
ENDCHAR
STARTCHAR uni2235
ENCODING 8757
SWIDTH 500 0
DWIDTH 10 0
BBX 9 8 0 3
BITMAP
E380
E380
0000
0000
0000
0000
1C00
1C00
ENDCHAR
STARTCHAR uni2236
ENCODING 8758
SWIDTH 200 0
DWIDTH 4 0
BBX 3 8 0 3
BITMAP
E0
E0
00
00
00
00
E0
E0
ENDCHAR
STARTCHAR uni223D
ENCODING 8765
SWIDTH 700 0
DWIDTH 14 0
BBX 13 8 0 3
BITMAP
78F0
FCF8
FE38
EF38
E7B8
E3F8
F9F8
78F0
ENDCHAR
STARTCHAR uni2248
ENCODING 8776
SWIDTH 500 0
DWIDTH 10 0
BBX 9 8 0 3
BITMAP
7980
FF80
CF00
0000
0000
7980
FF80
CF00
ENDCHAR
STARTCHAR uni2252
ENCODING 8786
SWIDTH 500 0
DWIDTH 10 0
BBX 9 12 0 1
BITMAP
E000
E000
0000
FF80
FF80
0000
0000
FF80
FF80
0000
0380
0380
ENDCHAR
STARTCHAR uni2260
ENCODING 8800
SWIDTH 500 0
DWIDTH 10 0
BBX 9 14 0 0
BITMAP
0380
0380
0700
0700
FF80
FF80
1C00
1C00
FF80
FF80
7000
7000
E000
E000
ENDCHAR
STARTCHAR uni2261
ENCODING 8801
SWIDTH 500 0
DWIDTH 10 0
BBX 9 10 0 2
BITMAP
FF80
FF80
0000
0000
FF80
FF80
0000
0000
FF80
FF80
ENDCHAR
STARTCHAR uni2264
ENCODING 8804
SWIDTH 500 0
DWIDTH 10 0
BBX 9 13 0 0
BITMAP
0080
0380
0F80
3E00
F800
F800
3E00
0F80
0380
0080
0000
FF80
FF80
ENDCHAR
STARTCHAR uni2265
ENCODING 8805
SWIDTH 500 0
DWIDTH 10 0
BBX 9 13 0 0
BITMAP
8000
E000
F800
3E00
0F80
0F80
3E00
F800
E000
8000
0000
FF80
FF80
ENDCHAR
STARTCHAR uni2266
ENCODING 8806
SWIDTH 500 0
DWIDTH 10 0
BBX 9 13 0 0
BITMAP
0080
0380
0F80
3E00
F800
3E00
0F80
0380
0080
0000
FF80
0000
FF80
ENDCHAR
STARTCHAR uni2267
ENCODING 8807
SWIDTH 500 0
DWIDTH 10 0
BBX 9 13 0 0
BITMAP
8000
E000
F800
3E00
0F80
3E00
F800
E000
8000
0000
FF80
0000
FF80
ENDCHAR
STARTCHAR uni226A
ENCODING 8810
SWIDTH 500 0
DWIDTH 10 0
BBX 9 10 0 2
BITMAP
0880
1980
3B80
7700
EE00
EE00
7700
3B80
1980
0880
ENDCHAR
STARTCHAR uni226B
ENCODING 8811
SWIDTH 500 0
DWIDTH 10 0
BBX 9 10 0 2
BITMAP
8800
CC00
EE00
7700
3B80
3B80
7700
EE00
CC00
8800
ENDCHAR
STARTCHAR uni2282
ENCODING 8834
SWIDTH 500 0
DWIDTH 10 0
BBX 9 14 0 0
BITMAP
0F80
3F80
7800
7000
F000
F000
F000
F000
F000
F000
7000
7800
3F80
0F80
ENDCHAR
STARTCHAR uni2283
ENCODING 8835
SWIDTH 500 0
DWIDTH 10 0
BBX 9 14 0 0
BITMAP
F800
FE00
0F00
0700
0780
0780
0780
0780
0780
0780
0700
0F00
FE00
F800
ENDCHAR
STARTCHAR uni2286
ENCODING 8838
SWIDTH 500 0
DWIDTH 10 0
BBX 9 14 0 0
BITMAP
3F80
7F80
F000
E000
E000
E000
E000
E000
F000
7F80
3F80
0000
FF80
FF80
ENDCHAR
STARTCHAR uni2287
ENCODING 8839
SWIDTH 500 0
DWIDTH 10 0
BBX 9 14 0 0
BITMAP
FE00
FF00
0780
0380
0380
0380
0380
0380
0780
FF00
FE00
0000
FF80
FF80
ENDCHAR
STARTCHAR uni22A5
ENCODING 8869
SWIDTH 700 0
DWIDTH 14 0
BBX 13 13 0 0
BITMAP
0700
0700
0700
0700
0700
0700
0700
0700
0700
0700
0700
FFF8
FFF8
ENDCHAR
STARTCHAR uni22BF
ENCODING 8895
SWIDTH 700 0
DWIDTH 14 0
BBX 13 13 0 0
BITMAP
0008
0018
0038
0078
00F8
01D8
0398
0718
0E18
1C18
3818
7FF8
FFF8
ENDCHAR
STARTCHAR uni2460
ENCODING 9312
SWIDTH 700 0
DWIDTH 14 0
BBX 13 14 0 0
BITMAP
3FE0
4010
8708
9F08
9F08
8708
8708
8708
8708
8708
9FC8
9FC8
4010
3FE0
ENDCHAR
STARTCHAR uni2461
ENCODING 9313
SWIDTH 700 0
DWIDTH 14 0
BBX 13 14 0 0
BITMAP
3FE0
4010
8F88
9FC8
9DC8
9DC8
81C8
8388
8708
8E08
9FC8
9FC8
4010
3FE0
ENDCHAR
STARTCHAR uni2462
ENCODING 9314
SWIDTH 700 0
DWIDTH 14 0
BBX 13 14 0 0
BITMAP
3FE0
4010
8F88
9FC8
9DC8
81C8
8388
8388
81C8
9DC8
9FC8
8F88
4010
3FE0
ENDCHAR
STARTCHAR uni2463
ENCODING 9315
SWIDTH 700 0
DWIDTH 14 0
BBX 13 14 0 0
BITMAP
3FE0
4010
9DC8
9DC8
9DC8
9DC8
9DC8
9DC8
9FC8
8FC8
81C8
81C8
4010
3FE0
ENDCHAR
STARTCHAR uni2464
ENCODING 9316
SWIDTH 700 0
DWIDTH 14 0
BBX 13 14 0 0
BITMAP
3FE0
4010
9FC8
9FC8
9C08
9F88
9FC8
9DC8
81C8
9DC8
9FC8
8F88
4010
3FE0
ENDCHAR
STARTCHAR uni2465
ENCODING 9317
SWIDTH 700 0
DWIDTH 14 0
BBX 13 14 0 0
BITMAP
3FE0
4010
8F88
9FC8
9DC8
9C08
9F88
9FC8
9DC8
9DC8
9FC8
8F88
4010
3FE0
ENDCHAR
STARTCHAR uni2466
ENCODING 9318
SWIDTH 700 0
DWIDTH 14 0
BBX 13 14 0 0
BITMAP
3FE0
4010
9FC8
9FC8
81C8
81C8
8388
8708
8708
8708
8708
8708
4010
3FE0
ENDCHAR
STARTCHAR uni2467
ENCODING 9319
SWIDTH 700 0
DWIDTH 14 0
BBX 13 14 0 0
BITMAP
3FE0
4010
8F88
9FC8
9DC8
9DC8
8F88
8F88
9DC8
9DC8
9FC8
8F88
4010
3FE0
ENDCHAR
STARTCHAR uni2468
ENCODING 9320
SWIDTH 700 0
DWIDTH 14 0
BBX 13 14 0 0
BITMAP
3FE0
4010
8F88
9FC8
9DC8
9DC8
9FC8
8FC8
81C8
9DC8
9FC8
8F88
4010
3FE0
ENDCHAR
STARTCHAR uni2469
ENCODING 9321
SWIDTH 700 0
DWIDTH 14 0
BBX 13 14 0 0
BITMAP
3FE0
4010
99C8
BBE8
BB68
9B68
9B68
9B68
9B68
9B68
9BE8
99C8
4010
3FE0
ENDCHAR
STARTCHAR uni246A
ENCODING 9322
SWIDTH 700 0
DWIDTH 14 0
BBX 13 14 0 0
BITMAP
3FE0
4010
98C8
B9C8
B9C8
98C8
98C8
98C8
98C8
98C8
BDE8
BDE8
4010
3FE0
ENDCHAR
STARTCHAR uni246B
ENCODING 9323
SWIDTH 700 0
DWIDTH 14 0
BBX 13 14 0 0
BITMAP
3FE0
4010
99C8
BBE8
BB68
9B68
9868
98E8
99C8
9B88
9BE8
9BE8
4010
3FE0
ENDCHAR
STARTCHAR uni246C
ENCODING 9324
SWIDTH 700 0
DWIDTH 14 0
BBX 13 14 0 0
BITMAP
3FE0
4010
99C8
BBE8
BB68
9868
98C8
98C8
9868
9B68
9BE8
99C8
4010
3FE0
ENDCHAR
STARTCHAR uni246D
ENCODING 9325
SWIDTH 700 0
DWIDTH 14 0
BBX 13 14 0 0
BITMAP
3FE0
4010
9B68
BB68
BB68
9B68
9B68
9B68
9BE8
99E8
9868
9868
4010
3FE0
ENDCHAR
STARTCHAR uni246E
ENCODING 9326
SWIDTH 700 0
DWIDTH 14 0
BBX 13 14 0 0
BITMAP
3FE0
4010
9BE8
BBE8
BB08
9BC8
9BE8
9B68
9868
9B68
9BE8
99C8
4010
3FE0
ENDCHAR
STARTCHAR uni246F
ENCODING 9327
SWIDTH 700 0
DWIDTH 14 0
BBX 13 14 0 0
BITMAP
3FE0
4010
99C8
BBE8
BB68
9B08
9BC8
9BE8
9B68
9B68
9BE8
99C8
4010
3FE0
ENDCHAR
STARTCHAR uni2470
ENCODING 9328
SWIDTH 700 0
DWIDTH 14 0
BBX 13 14 0 0
BITMAP
3FE0
4010
9BE8
BBE8
B868
9868
98E8
99C8
9988
9988
9988
9988
4010
3FE0
ENDCHAR
STARTCHAR uni2471
ENCODING 9329
SWIDTH 700 0
DWIDTH 14 0
BBX 13 14 0 0
BITMAP
3FE0
4010
99C8
BBE8
BB68
9B68
99C8
9BE8
9B68
9B68
9BE8
99C8
4010
3FE0
ENDCHAR
STARTCHAR uni2472
ENCODING 9330
SWIDTH 700 0
DWIDTH 14 0
BBX 13 14 0 0
BITMAP
3FE0
4010
99C8
BBE8
BB68
9B68
9BE8
99E8
9868
9B68
9BE8
99C8
4010
3FE0
ENDCHAR
STARTCHAR uni2473
ENCODING 9331
SWIDTH 700 0
DWIDTH 14 0
BBX 13 14 0 0
BITMAP
3FE0
4010
9DC8
BFE8
B768
8768
8F68
9F68
BB68
B368
BFE8
BDC8
4010
3FE0
ENDCHAR
STARTCHAR uni24EA
ENCODING 9450
SWIDTH 700 0
DWIDTH 14 0
BBX 13 14 0 0
BITMAP
3FE0
4010
8F88
9FC8
9DC8
9DC8
9DC8
9DC8
9DC8
9DC8
9FC8
8F88
4010
3FE0
ENDCHAR
STARTCHAR uni24EB
ENCODING 9451
SWIDTH 700 0
DWIDTH 14 0
BBX 13 14 0 0
BITMAP
3FE0
7FF0
E738
C638
C638
E738
E738
E738
E738
E738
C218
C218
7FF0
3FE0
ENDCHAR
STARTCHAR uni24EC
ENCODING 9452
SWIDTH 700 0
DWIDTH 14 0
BBX 13 14 0 0
BITMAP
3FE0
7FF0
E638
C418
C498
E498
E798
E718
E638
E478
E418
E418
7FF0
3FE0
ENDCHAR
STARTCHAR uni24ED
ENCODING 9453
SWIDTH 700 0
DWIDTH 14 0
BBX 13 14 0 0
BITMAP
3FE0
7FF0
E638
C418
C498
E798
E738
E738
E798
E498
E418
E638
7FF0
3FE0
ENDCHAR
STARTCHAR uni24EE
ENCODING 9454
SWIDTH 700 0
DWIDTH 14 0
BBX 13 14 0 0
BITMAP
3FE0
7FF0
E498
C498
C498
E498
E498
E498
E418
E618
E798
E798
7FF0
3FE0
ENDCHAR
STARTCHAR uni24EF
ENCODING 9455
SWIDTH 700 0
DWIDTH 14 0
BBX 13 14 0 0
BITMAP
3FE0
7FF0
E418
C418
C4F8
E438
E418
E498
E798
E498
E418
E638
7FF0
3FE0
ENDCHAR
STARTCHAR uni24F0
ENCODING 9456
SWIDTH 700 0
DWIDTH 14 0
BBX 13 14 0 0
BITMAP
3FE0
7FF0
E638
C418
C498
E4F8
E438
E418
E498
E498
E418
E638
7FF0
3FE0
ENDCHAR
STARTCHAR uni24F1
ENCODING 9457
SWIDTH 700 0
DWIDTH 14 0
BBX 13 14 0 0
BITMAP
3FE0
7FF0
E418
C418
C798
E798
E718
E638
E678
E678
E678
E678
7FF0
3FE0
ENDCHAR
STARTCHAR uni24F2
ENCODING 9458
SWIDTH 700 0
DWIDTH 14 0
BBX 13 14 0 0
BITMAP
3FE0
7FF0
E638
C418
C498
E498
E638
E418
E498
E498
E418
E638
7FF0
3FE0
ENDCHAR
STARTCHAR uni24F3
ENCODING 9459
SWIDTH 700 0
DWIDTH 14 0
BBX 13 14 0 0
BITMAP
3FE0
7FF0
E638
C418
C498
E498
E418
E618
E798
E498
E418
E638
7FF0
3FE0
ENDCHAR
STARTCHAR uni24F4
ENCODING 9460
SWIDTH 700 0
DWIDTH 14 0
BBX 13 14 0 0
BITMAP
3FE0
7FF0
E238
C018
C898
F898
F098
E098
C498
CC98
C018
C238
7FF0
3FE0
ENDCHAR
STARTCHAR uni24FF
ENCODING 9471
SWIDTH 700 0
DWIDTH 14 0
BBX 13 14 0 0
BITMAP
3FE0
7FF0
F078
E038
E238
E238
E238
E238
E238
E238
E038
F078
7FF0
3FE0
ENDCHAR
STARTCHAR uni2500
ENCODING 9472
SWIDTH 700 0
DWIDTH 14 0
BBX 14 1 0 7
BITMAP
FFFC
ENDCHAR
STARTCHAR uni2501
ENCODING 9473
SWIDTH 700 0
DWIDTH 14 0
BBX 14 10 0 2
BITMAP
FFFC
0000
FC04
F80C
F01C
E03C
C07C
80FC
0000
FFFC
ENDCHAR
STARTCHAR uni2502
ENCODING 9474
SWIDTH 700 0
DWIDTH 14 0
BBX 1 20 6 -4
BITMAP
80
80
80
80
80
80
80
80
80
80
80
80
80
80
80
80
80
80
80
80
ENDCHAR
STARTCHAR uni2503
ENCODING 9475
SWIDTH 700 0
DWIDTH 14 0
BBX 11 20 1 -4
BITMAP
B020
A0A0
81A0
83A0
87A0
8FA0
9F20
BE20
BC20
B820
B020
A0A0
81A0
83A0
87A0
8FA0
9F20
BE20
BC20
B820
ENDCHAR
STARTCHAR uni250C
ENCODING 9484
SWIDTH 700 0
DWIDTH 14 0
BBX 8 12 6 -4
BITMAP
7F
80
80
80
80
80
80
80
80
80
80
80
ENDCHAR
STARTCHAR uni250F
ENCODING 9487
SWIDTH 700 0
DWIDTH 14 0
BBX 13 16 1 -4
BITMAP
7FF8
8000
BF88
9F18
BFB8
BFB8
9F38
BFB8
8000
8398
87A0
8FA0
9F20
BE20
BC20
B820
ENDCHAR
STARTCHAR uni2510
ENCODING 9488
SWIDTH 700 0
DWIDTH 14 0
BBX 7 12 0 -4
BITMAP
FC
02
02
02
02
02
02
02
02
02
02
02
ENDCHAR
STARTCHAR uni2513
ENCODING 9491
SWIDTH 700 0
DWIDTH 14 0
BBX 12 16 0 -4
BITMAP
FFE0
0010
DFD0
CF90
DFD0
DFD0
CF90
9FD0
0010
81D0
43D0
47D0
4F90
5F10
5E10
5C10
ENDCHAR
STARTCHAR uni2514
ENCODING 9492
SWIDTH 700 0
DWIDTH 14 0
BBX 8 9 6 7
BITMAP
80
80
80
80
80
80
80
80
7F
ENDCHAR
STARTCHAR uni2517
ENCODING 9495
SWIDTH 700 0
DWIDTH 14 0
BBX 13 14 1 2
BITMAP
B020
A0A0
81A0
83A0
8798
8000
BF88
9F18
BFB8
BFB8
9F38
BFB8
8000
7FF8
ENDCHAR
STARTCHAR uni2518
ENCODING 9496
SWIDTH 700 0
DWIDTH 14 0
BBX 7 9 0 7
BITMAP
02
02
02
02
02
02
02
02
FC
ENDCHAR
STARTCHAR uni251B
ENCODING 9499
SWIDTH 700 0
DWIDTH 14 0
BBX 12 14 0 2
BITMAP
5810
5050
40D0
41D0
83D0
0010
DFD0
CF90
DFD0
DFD0
CF90
9FD0
0010
FFE0
ENDCHAR
STARTCHAR uni251C
ENCODING 9500
SWIDTH 700 0
DWIDTH 14 0
BBX 8 20 6 -4
BITMAP
80
80
80
80
80
80
80
80
BF
80
80
80
80
80
80
80
80
80
80
80
ENDCHAR
STARTCHAR uni251D
ENCODING 9501
SWIDTH 700 0
DWIDTH 14 0
BBX 8 20 6 -4
BITMAP
80
80
80
80
BF
80
81
83
87
8F
9F
BF
80
BF
80
80
80
80
80
80
ENDCHAR
STARTCHAR uni2520
ENCODING 9504
SWIDTH 700 0
DWIDTH 14 0
BBX 13 20 1 -4
BITMAP
B020
A0A0
81A0
83A0
87A0
8FA0
9F20
BE20
BC28
B820
B020
A0A0
81A0
83A0
87A0
8FA0
9F20
BE20
BC20
B820
ENDCHAR
STARTCHAR uni2523
ENCODING 9507
SWIDTH 700 0
DWIDTH 14 0
BBX 13 20 1 -4
BITMAP
B020
A0A0
81A0
83A0
8798
8000
BF88
9F18
BFB8
BFB8
9F38
BFB8
8000
8398
87A0
8FA0
9F20
BE20
BC20
B820
ENDCHAR
STARTCHAR uni2524
ENCODING 9508
SWIDTH 700 0
DWIDTH 14 0
BBX 7 20 0 -4
BITMAP
02
02
02
02
02
02
02
02
FA
02
02
02
02
02
02
02
02
02
02
02
ENDCHAR
STARTCHAR uni2525
ENCODING 9509
SWIDTH 700 0
DWIDTH 14 0
BBX 7 20 0 -4
BITMAP
02
02
02
02
FA
02
FA
FA
F2
E2
C2
82
02
FA
02
02
02
02
02
02
ENDCHAR
STARTCHAR uni2528
ENCODING 9512
SWIDTH 700 0
DWIDTH 14 0
BBX 11 20 1 -4
BITMAP
B020
A0A0
81A0
83A0
87A0
8FA0
9F20
BE20
BC20
B820
B020
A0A0
81A0
83A0
87A0
8FA0
9F20
BE20
BC20
B820
ENDCHAR
STARTCHAR uni252B
ENCODING 9515
SWIDTH 700 0
DWIDTH 14 0
BBX 12 20 0 -4
BITMAP
5810
5050
40D0
41D0
83D0
0010
DFD0
CF90
DFD0
DFD0
CF90
9FD0
0010
81D0
43D0
47D0
4F90
5F10
5E10
5C10
ENDCHAR
STARTCHAR uni252C
ENCODING 9516
SWIDTH 700 0
DWIDTH 14 0
BBX 14 12 0 -4
BITMAP
FFFC
0000
0200
0200
0200
0200
0200
0200
0200
0200
0200
0200
ENDCHAR
STARTCHAR uni252F
ENCODING 9519
SWIDTH 700 0
DWIDTH 14 0
BBX 14 16 0 -4
BITMAP
FFFC
0000
FC04
F80C
F01C
E03C
C07C
80FC
0000
FFFC
0000
0200
0200
0200
0200
0200
ENDCHAR
STARTCHAR uni2530
ENCODING 9520
SWIDTH 700 0
DWIDTH 14 0
BBX 14 12 0 -4
BITMAP
FFFC
0000
4010
4050
40D0
41D0
43D0
47D0
4F90
5F10
5E10
5C10
ENDCHAR
STARTCHAR uni2533
ENCODING 9523
SWIDTH 700 0
DWIDTH 14 0
BBX 14 16 0 -4
BITMAP
FFFC
0000
DFC4
CF8C
DFDC
DFDC
CF9C
9FDC
0000
81CC
43D0
47D0
4F90
5F10
5E10
5C10
ENDCHAR
STARTCHAR uni2534
ENCODING 9524
SWIDTH 700 0
DWIDTH 14 0
BBX 14 9 0 7
BITMAP
0200
0200
0200
0200
0200
0200
0200
0000
FFFC
ENDCHAR
STARTCHAR uni2537
ENCODING 9527
SWIDTH 700 0
DWIDTH 14 0
BBX 14 14 0 2
BITMAP
0200
0200
0200
0000
FFFC
0000
FC04
F80C
F01C
E03C
C07C
80FC
0000
FFFC
ENDCHAR
STARTCHAR uni2538
ENCODING 9528
SWIDTH 700 0
DWIDTH 14 0
BBX 14 9 0 7
BITMAP
5810
5050
40D0
41D0
43D0
47D0
4FD0
0000
FFFC
ENDCHAR
STARTCHAR uni253B
ENCODING 9531
SWIDTH 700 0
DWIDTH 14 0
BBX 14 14 0 2
BITMAP
5810
5050
40D0
41D0
83CC
0000
DFC4
CF8C
DFDC
DFDC
CF9C
9FDC
0000
FFFC
ENDCHAR
STARTCHAR uni253C
ENCODING 9532
SWIDTH 700 0
DWIDTH 14 0
BBX 14 20 0 -4
BITMAP
0200
0200
0200
0200
0200
0200
0200
0000
FFFC
0000
0200
0200
0200
0200
0200
0200
0200
0200
0200
0200
ENDCHAR
STARTCHAR uni253F
ENCODING 9535
SWIDTH 700 0
DWIDTH 14 0
BBX 14 20 0 -4
BITMAP
0200
0200
0200
0000
FFFC
0000
FC04
F80C
F01C
E03C
C07C
80FC
0000
FFFC
0000
0200
0200
0200
0200
0200
ENDCHAR
STARTCHAR uni2542
ENCODING 9538
SWIDTH 700 0
DWIDTH 14 0
BBX 13 20 1 -4
BITMAP
B020
A0A0
81A0
83A0
87A0
8FA0
9F20
BE20
BC28
B820
B020
A0A0
81A0
83A0
87A0
8FA0
9F20
BE20
BC20
B820
ENDCHAR
STARTCHAR uni254B
ENCODING 9547
SWIDTH 700 0
DWIDTH 14 0
BBX 14 20 0 -4
BITMAP
5810
5050
40D0
41D0
83CC
0000
DFC4
CF8C
DFDC
DFDC
CF9C
9FDC
0000
81CC
43D0
47D0
4F90
5F10
5E10
5C10
ENDCHAR
STARTCHAR uni2580
ENCODING 9600
SWIDTH 700 0
DWIDTH 14 0
BBX 14 8 0 6
BITMAP
FFFC
FFFC
FFFC
FFFC
FFFC
FFFC
FFFC
FFFC
ENDCHAR
STARTCHAR uni2581
ENCODING 9601
SWIDTH 700 0
DWIDTH 14 0
BBX 14 1 0 0
BITMAP
FFFC
ENDCHAR
STARTCHAR uni2582
ENCODING 9602
SWIDTH 700 0
DWIDTH 14 0
BBX 14 2 0 0
BITMAP
FFFC
FFFC
ENDCHAR
STARTCHAR uni2583
ENCODING 9603
SWIDTH 700 0
DWIDTH 14 0
BBX 14 4 0 0
BITMAP
FFFC
FFFC
FFFC
FFFC
ENDCHAR
STARTCHAR uni2584
ENCODING 9604
SWIDTH 700 0
DWIDTH 14 0
BBX 14 6 0 0
BITMAP
FFFC
FFFC
FFFC
FFFC
FFFC
FFFC
ENDCHAR
STARTCHAR uni2585
ENCODING 9605
SWIDTH 700 0
DWIDTH 14 0
BBX 14 8 0 0
BITMAP
FFFC
FFFC
FFFC
FFFC
FFFC
FFFC
FFFC
FFFC
ENDCHAR
STARTCHAR uni2586
ENCODING 9606
SWIDTH 700 0
DWIDTH 14 0
BBX 14 10 0 0
BITMAP
FFFC
FFFC
FFFC
FFFC
FFFC
FFFC
FFFC
FFFC
FFFC
FFFC
ENDCHAR
STARTCHAR uni2587
ENCODING 9607
SWIDTH 700 0
DWIDTH 14 0
BBX 14 12 0 0
BITMAP
FFFC
FFFC
FFFC
FFFC
FFFC
FFFC
FFFC
FFFC
FFFC
FFFC
FFFC
FFFC
ENDCHAR
STARTCHAR uni2588
ENCODING 9608
SWIDTH 700 0
DWIDTH 14 0
BBX 14 14 0 0
BITMAP
FFFC
FFFC
FFFC
FFFC
FFFC
FFFC
FFFC
FFFC
FFFC
FFFC
FFFC
FFFC
FFFC
FFFC
ENDCHAR
STARTCHAR uni2589
ENCODING 9609
SWIDTH 700 0
DWIDTH 14 0
BBX 12 14 0 0
BITMAP
FFF0
FFF0
FFF0
FFF0
FFF0
FFF0
FFF0
FFF0
FFF0
FFF0
FFF0
FFF0
FFF0
FFF0
ENDCHAR
STARTCHAR uni258A
ENCODING 9610
SWIDTH 700 0
DWIDTH 14 0
BBX 10 14 0 0
BITMAP
FFC0
FFC0
FFC0
FFC0
FFC0
FFC0
FFC0
FFC0
FFC0
FFC0
FFC0
FFC0
FFC0
FFC0
ENDCHAR
STARTCHAR uni258B
ENCODING 9611
SWIDTH 700 0
DWIDTH 14 0
BBX 8 14 0 0
BITMAP
FF
FF
FF
FF
FF
FF
FF
FF
FF
FF
FF
FF
FF
FF
ENDCHAR
STARTCHAR uni258C
ENCODING 9612
SWIDTH 700 0
DWIDTH 14 0
BBX 6 14 0 0
BITMAP
FC
FC
FC
FC
FC
FC
FC
FC
FC
FC
FC
FC
FC
FC
ENDCHAR
STARTCHAR uni258D
ENCODING 9613
SWIDTH 700 0
DWIDTH 14 0
BBX 4 14 0 0
BITMAP
F0
F0
F0
F0
F0
F0
F0
F0
F0
F0
F0
F0
F0
F0
ENDCHAR
STARTCHAR uni258E
ENCODING 9614
SWIDTH 700 0
DWIDTH 14 0
BBX 2 14 0 0
BITMAP
C0
C0
C0
C0
C0
C0
C0
C0
C0
C0
C0
C0
C0
C0
ENDCHAR
STARTCHAR uni258F
ENCODING 9615
SWIDTH 700 0
DWIDTH 14 0
BBX 1 14 0 0
BITMAP
80
80
80
80
80
80
80
80
80
80
80
80
80
80
ENDCHAR
STARTCHAR uni2590
ENCODING 9616
SWIDTH 700 0
DWIDTH 14 0
BBX 7 14 7 0
BITMAP
FE
FE
FE
FE
FE
FE
FE
FE
FE
FE
FE
FE
FE
FE
ENDCHAR
STARTCHAR uni25A0
ENCODING 9632
SWIDTH 700 0
DWIDTH 14 0
BBX 13 13 0 0
BITMAP
FFF8
FFF8
FFF8
FFF8
FFF8
FFF8
FFF8
FFF8
FFF8
FFF8
FFF8
FFF8
FFF8
ENDCHAR
STARTCHAR uni25A1
ENCODING 9633
SWIDTH 700 0
DWIDTH 14 0
BBX 13 13 0 0
BITMAP
FFF8
8008
8008
8008
8008
8008
8008
8008
8008
8008
8008
8008
FFF8
ENDCHAR
STARTCHAR uni25B2
ENCODING 9650
SWIDTH 700 0
DWIDTH 14 0
BBX 13 13 0 0
BITMAP
0200
0700
0700
0F80
0F80
1FC0
1FC0
3FE0
3FE0
7FF0
7FF0
FFF8
FFF8
ENDCHAR
STARTCHAR uni25B3
ENCODING 9651
SWIDTH 700 0
DWIDTH 14 0
BBX 13 13 0 0
BITMAP
0200
0500
0500
0880
0880
1040
1040
2020
2020
4010
4010
8008
FFF8
ENDCHAR
STARTCHAR uni25BC
ENCODING 9660
SWIDTH 700 0
DWIDTH 14 0
BBX 13 13 0 0
BITMAP
FFF8
FFF8
7FF0
7FF0
3FE0
3FE0
1FC0
1FC0
0F80
0F80
0700
0700
0200
ENDCHAR
STARTCHAR uni25BD
ENCODING 9661
SWIDTH 700 0
DWIDTH 14 0
BBX 13 13 0 0
BITMAP
FFF8
8008
4010
4010
2020
2020
1040
1040
0880
0880
0500
0500
0200
ENDCHAR
STARTCHAR uni25C6
ENCODING 9670
SWIDTH 700 0
DWIDTH 14 0
BBX 13 13 0 0
BITMAP
0200
0700
0F80
1FC0
3FE0
7FF0
FFF8
7FF0
3FE0
1FC0
0F80
0700
0200
ENDCHAR
STARTCHAR uni25C7
ENCODING 9671
SWIDTH 700 0
DWIDTH 14 0
BBX 13 13 0 0
BITMAP
0200
0500
0880
1040
2020
4010
8008
4010
2020
1040
0880
0500
0200
ENDCHAR
STARTCHAR uni25CB
ENCODING 9675
SWIDTH 700 0
DWIDTH 14 0
BBX 13 13 0 0
BITMAP
0F80
3060
4010
4010
8008
8008
8008
8008
8008
4010
4010
3060
0F80
ENDCHAR
STARTCHAR uni25CE
ENCODING 9678
SWIDTH 700 0
DWIDTH 14 0
BBX 13 13 0 0
BITMAP
0F80
3060
4010
4710
8888
9048
9048
9048
8888
4710
4010
3060
0F80
ENDCHAR
STARTCHAR uni25CF
ENCODING 9679
SWIDTH 700 0
DWIDTH 14 0
BBX 13 13 0 0
BITMAP
0F80
3FE0
7FF0
7FF0
FFF8
FFF8
FFF8
FFF8
FFF8
7FF0
7FF0
3FE0
0F80
ENDCHAR
STARTCHAR uni25EF
ENCODING 9711
SWIDTH 700 0
DWIDTH 14 0
BBX 13 13 0 0
BITMAP
0F80
3FE0
7070
6030
C018
C018
C018
C018
C018
6030
7070
3FE0
0F80
ENDCHAR
STARTCHAR uni2600
ENCODING 9728
SWIDTH 700 0
DWIDTH 14 0
BBX 13 13 0 0
BITMAP
0200
4210
2020
0700
0F80
1FC0
DFD8
1FC0
0F80
0700
2020
4210
0200
ENDCHAR
STARTCHAR uni2601
ENCODING 9729
SWIDTH 700 0
DWIDTH 14 0
BBX 13 8 0 3
BITMAP
0700
0F80
6FB0
FF78
FFF8
FFF8
FFF8
7FF0
ENDCHAR
STARTCHAR uni2602
ENCODING 9730
SWIDTH 700 0
DWIDTH 14 0
BBX 13 13 0 0
BITMAP
0200
0200
1FC0
3FE0
7FF0
7FF0
FFF8
9248
0200
0200
1200
1200
0C00
ENDCHAR
STARTCHAR uni2603
ENCODING 9731
SWIDTH 700 0
DWIDTH 14 0
BBX 11 12 1 0
BITMAP
1F00
3F80
7FC0
7FC0
7FC0
3F80
7FC0
FFE0
FFE0
FFE0
7FC0
3F80
ENDCHAR
STARTCHAR uni2605
ENCODING 9733
SWIDTH 700 0
DWIDTH 14 0
BBX 13 13 0 1
BITMAP
0200
0200
0700
0700
0F80
FFF8
7FF0
3FE0
1FC0
1FC0
3DE0
38E0
6030
ENDCHAR
STARTCHAR uni2606
ENCODING 9734
SWIDTH 700 0
DWIDTH 14 0
BBX 13 13 0 1
BITMAP
0200
0200
0500
0500
0880
F078
4010
2020
1040
1240
2520
38E0
6030
ENDCHAR
STARTCHAR uni2610
ENCODING 9744
SWIDTH 700 0
DWIDTH 14 0
BBX 13 13 0 0
BITMAP
FFF8
FFF8
C018
C018
C018
C018
C018
C018
C018
C018
C018
FFF8
FFF8
ENDCHAR
STARTCHAR uni2611
ENCODING 9745
SWIDTH 700 0
DWIDTH 14 0
BBX 13 13 0 0
BITMAP
FFC8
FF98
C038
C070
C0E0
D1C8
DB98
DF18
CE18
C418
C018
FFF8
FFF8
ENDCHAR
STARTCHAR uni2612
ENCODING 9746
SWIDTH 700 0
DWIDTH 14 0
BBX 13 13 0 0
BITMAP
FFF8
FFF8
C018
D8D8
DDD8
CF98
C718
CF98
DDD8
D8D8
C018
FFF8
FFF8
ENDCHAR
STARTCHAR uni2613
ENCODING 9747
SWIDTH 700 0
DWIDTH 14 0
BBX 13 13 0 0
BITMAP
C018
E038
7070
38E0
1DC0
0F80
0700
0F80
1DC0
38E0
7070
E038
C018
ENDCHAR
STARTCHAR uni261A
ENCODING 9754
SWIDTH 700 0
DWIDTH 14 0
BBX 13 11 0 1
BITMAP
07D8
0FD8
1FD8
3FD8
7FD8
FFD8
7FD8
3FD8
1FD8
0FD8
07D8
ENDCHAR
STARTCHAR uni261B
ENCODING 9755
SWIDTH 700 0
DWIDTH 14 0
BBX 13 11 0 1
BITMAP
DF00
DF80
DFC0
DFE0
DFF0
DFF8
DFF0
DFE0
DFC0
DF80
DF00
ENDCHAR
STARTCHAR uni261C
ENCODING 9756
SWIDTH 700 0
DWIDTH 14 0
BBX 13 11 0 1
BITMAP
07D8
0FD8
1CD8
38D8
70D8
E0D8
70D8
38D8
1CD8
0FD8
07D8
ENDCHAR
STARTCHAR uni261D
ENCODING 9757
SWIDTH 700 0
DWIDTH 14 0
BBX 11 13 1 0
BITMAP
0400
0E00
1F00
3B80
71C0
E0E0
C060
C060
FFE0
FFE0
0000
FFE0
FFE0
ENDCHAR
STARTCHAR uni261E
ENCODING 9758
SWIDTH 700 0
DWIDTH 14 0
BBX 13 11 0 1
BITMAP
DF00
DF80
D9C0
D8E0
D870
D838
D870
D8E0
D9C0
DF80
DF00
ENDCHAR
STARTCHAR uni261F
ENCODING 9759
SWIDTH 700 0
DWIDTH 14 0
BBX 11 13 1 0
BITMAP
FFE0
FFE0
0000
FFE0
FFE0
C060
C060
E0E0
71C0
3B80
1F00
0E00
0400
ENDCHAR
STARTCHAR uni2620
ENCODING 9760
SWIDTH 700 0
DWIDTH 14 0
BBX 11 14 1 0
BITMAP
3F80
7FC0
FFE0
FFE0
FFE0
C460
8420
8A20
71C0
1F00
4A40
2080
3580
1F00
ENDCHAR
STARTCHAR uni2640
ENCODING 9792
SWIDTH 500 0
DWIDTH 10 0
BBX 9 14 0 0
BITMAP
3E00
7F00
E380
C180
C180
E380
7F00
3E00
1C00
FF80
FF80
1C00
1C00
1C00
ENDCHAR
STARTCHAR uni2642
ENCODING 9794
SWIDTH 500 0
DWIDTH 10 0
BBX 9 14 0 0
BITMAP
1C00
3E00
7F00
FF80
DD80
1C00
3E00
7F00
E380
C180
C180
E380
7F00
3E00
ENDCHAR
STARTCHAR uni2660
ENCODING 9824
SWIDTH 700 0
DWIDTH 14 0
BBX 13 14 0 0
BITMAP
0200
0700
0F80
1FC0
3FE0
7FF0
7FF0
FFF8
FFF8
FFF8
FAF8
7270
0700
0F80
ENDCHAR
STARTCHAR uni2661
ENCODING 9825
SWIDTH 700 0
DWIDTH 14 0
BBX 13 12 0 0
BITMAP
7070
8888
8508
8208
8008
4010
4010
2020
1040
0880
0500
0200
ENDCHAR
STARTCHAR uni2662
ENCODING 9826
SWIDTH 700 0
DWIDTH 14 0
BBX 13 13 0 0
BITMAP
0200
0500
0880
1040
2020
4010
8008
4010
2020
1040
0880
0500
0200
ENDCHAR
STARTCHAR uni2663
ENCODING 9827
SWIDTH 700 0
DWIDTH 14 0
BBX 13 13 0 0
BITMAP
0F80
1FC0
1FC0
1FC0
0F80
7770
FFF8
FFF8
FFF8
FAF8
7270
0700
0F80
ENDCHAR
STARTCHAR uni2664
ENCODING 9828
SWIDTH 700 0
DWIDTH 14 0
BBX 13 14 0 0
BITMAP
0200
0500
0880
1040
2020
4010
4010
8008
8008
8708
8A88
7270
0500
0F80
ENDCHAR
STARTCHAR uni2665
ENCODING 9829
SWIDTH 700 0
DWIDTH 14 0
BBX 13 12 0 0
BITMAP
7070
F8F8
FDF8
FFF8
FFF8
7FF0
7FF0
3FE0
1FC0
0F80
0700
0200
ENDCHAR
STARTCHAR uni2666
ENCODING 9830
SWIDTH 700 0
DWIDTH 14 0
BBX 13 13 0 0
BITMAP
0200
0700
0F80
1FC0
3FE0
7FF0
FFF8
7FF0
3FE0
1FC0
0F80
0700
0200
ENDCHAR
STARTCHAR uni2667
ENCODING 9831
SWIDTH 700 0
DWIDTH 14 0
BBX 13 13 0 0
BITMAP
0F80
1040
1040
1040
0880
7570
8D88
8008
8708
8A88
7270
0500
0F80
ENDCHAR
STARTCHAR uni2669
ENCODING 9833
SWIDTH 700 0
DWIDTH 14 0
BBX 8 14 2 0
BITMAP
03
03
03
03
03
03
03
03
03
03
7F
FF
FE
7C
ENDCHAR
STARTCHAR uni266A
ENCODING 9834
SWIDTH 700 0
DWIDTH 14 0
BBX 13 14 0 0
BITMAP
0380
03E0
03F0
03F8
0338
0318
0318
0310
0320
0300
7F00
FF00
FE00
7C00
ENDCHAR
STARTCHAR uni266B
ENCODING 9835
SWIDTH 700 0
DWIDTH 14 0
BBX 13 15 0 -1
BITMAP
0E00
0FC0
0FF8
0DF8
0C38
0C18
0C18
0C18
0C18
7C18
FC18
F8F8
71F8
01F0
00E0
ENDCHAR
STARTCHAR uni266C
ENCODING 9836
SWIDTH 700 0
DWIDTH 14 0
BBX 13 14 0 -1
BITMAP
0FF8
0FF8
0C18
0FF8
0FF8
0C18
0C18
0C18
0C18
0C18
7CF8
FDF8
F9F0
70E0
ENDCHAR
STARTCHAR uni266D
ENCODING 9837
SWIDTH 700 0
DWIDTH 14 0
BBX 7 15 4 -1
BITMAP
C0
C0
C0
C0
C0
C0
DC
FE
E6
C6
CE
DC
F8
F0
E0
ENDCHAR
STARTCHAR uni266E
ENCODING 9838
SWIDTH 700 0
DWIDTH 14 0
BBX 7 15 3 -1
BITMAP
C0
C0
C0
CE
FE
F6
C6
C6
C6
DE
FE
E6
06
06
06
ENDCHAR
STARTCHAR uni266F
ENCODING 9839
SWIDTH 700 0
DWIDTH 14 0
BBX 11 14 1 0
BITMAP
0180
3180
31E0
3FE0
FF80
F180
3180
3180
31E0
3FE0
FF80
F180
3180
3000
ENDCHAR
STARTCHAR uni2680
ENCODING 9856
SWIDTH 700 0
DWIDTH 14 0
BBX 13 13 0 0
BITMAP
FFF8
FFF8
FFF8
FFF8
FFF8
F8F8
F8F8
F8F8
FFF8
FFF8
FFF8
FFF8
FFF8
ENDCHAR
STARTCHAR uni2681
ENCODING 9857
SWIDTH 700 0
DWIDTH 14 0
BBX 13 13 0 0
BITMAP
FFF8
FF88
FF88
FF88
FFF8
FFF8
FFF8
FFF8
FFF8
8FF8
8FF8
8FF8
FFF8
ENDCHAR
STARTCHAR uni2682
ENCODING 9858
SWIDTH 700 0
DWIDTH 14 0
BBX 13 13 0 0
BITMAP
FFF8
FF88
FF88
FF88
FFF8
F8F8
F8F8
F8F8
FFF8
8FF8
8FF8
8FF8
FFF8
ENDCHAR
STARTCHAR uni2683
ENCODING 9859
SWIDTH 700 0
DWIDTH 14 0
BBX 13 13 0 0
BITMAP
FFF8
8F88
8F88
8F88
FFF8
FFF8
FFF8
FFF8
FFF8
8F88
8F88
8F88
FFF8
ENDCHAR
STARTCHAR uni2684
ENCODING 9860
SWIDTH 700 0
DWIDTH 14 0
BBX 13 13 0 0
BITMAP
FFF8
8F88
8F88
8F88
FFF8
F8F8
F8F8
F8F8
FFF8
8F88
8F88
8F88
FFF8
ENDCHAR
STARTCHAR uni2685
ENCODING 9861
SWIDTH 700 0
DWIDTH 14 0
BBX 13 13 0 0
BITMAP
FFF8
8F88
8F88
8F88
FFF8
8F88
8F88
8F88
FFF8
8F88
8F88
8F88
FFF8
ENDCHAR
STARTCHAR uni2776
ENCODING 10102
SWIDTH 700 0
DWIDTH 14 0
BBX 13 14 0 0
BITMAP
3FE0
7FF0
F8F8
E0F8
E0F8
F8F8
F8F8
F8F8
F8F8
F8F8
E038
E038
7FF0
3FE0
ENDCHAR
STARTCHAR uni2777
ENCODING 10103
SWIDTH 700 0
DWIDTH 14 0
BBX 13 14 0 0
BITMAP
3FE0
7FF0
F078
E038
E238
E238
FE38
FC78
F8F8
F1F8
E038
E038
7FF0
3FE0
ENDCHAR
STARTCHAR uni2778
ENCODING 10104
SWIDTH 700 0
DWIDTH 14 0
BBX 13 14 0 0
BITMAP
3FE0
7FF0
F078
E038
E238
FE38
FC78
FC78
FE38
E238
E038
F078
7FF0
3FE0
ENDCHAR
STARTCHAR uni2779
ENCODING 10105
SWIDTH 700 0
DWIDTH 14 0
BBX 13 14 0 0
BITMAP
3FE0
7FF0
E238
E238
E238
E238
E238
E238
E038
F038
FE38
FE38
7FF0
3FE0
ENDCHAR
STARTCHAR uni277A
ENCODING 10106
SWIDTH 700 0
DWIDTH 14 0
BBX 13 14 0 0
BITMAP
3FE0
7FF0
E038
E038
E3F8
E078
E038
E238
FE38
E238
E038
F078
7FF0
3FE0
ENDCHAR
STARTCHAR uni277B
ENCODING 10107
SWIDTH 700 0
DWIDTH 14 0
BBX 13 14 0 0
BITMAP
3FE0
7FF0
F078
E038
E238
E3F8
E078
E038
E238
E238
E038
F078
7FF0
3FE0
ENDCHAR
STARTCHAR uni277C
ENCODING 10108
SWIDTH 700 0
DWIDTH 14 0
BBX 13 14 0 0
BITMAP
3FE0
7FF0
E038
E038
FE38
FE38
FC78
F8F8
F8F8
F8F8
F8F8
F8F8
7FF0
3FE0
ENDCHAR
STARTCHAR uni277D
ENCODING 10109
SWIDTH 700 0
DWIDTH 14 0
BBX 13 14 0 0
BITMAP
3FE0
7FF0
F078
E038
E238
E238
F078
F078
E238
E238
E038
F078
7FF0
3FE0
ENDCHAR
STARTCHAR uni277E
ENCODING 10110
SWIDTH 700 0
DWIDTH 14 0
BBX 13 14 0 0
BITMAP
3FE0
7FF0
F078
E038
E238
E238
E038
F038
FE38
E238
E038
F078
7FF0
3FE0
ENDCHAR
STARTCHAR uni277F
ENCODING 10111
SWIDTH 700 0
DWIDTH 14 0
BBX 13 14 0 0
BITMAP
3FE0
7FF0
E638
C418
C498
E498
E498
E498
E498
E498
E418
E638
7FF0
3FE0
ENDCHAR
STARTCHAR uni3000
ENCODING 12288
SWIDTH 700 0
DWIDTH 14 0
BBX 1 1 0 0
BITMAP
00
ENDCHAR
ENDFONT
