STARTFONT 2.1
FONT Bm437_DOS-V_re_JPN30-32px
SIZE 32 75 75
FONTBOUNDINGBOX 12 30 0 -5
STARTPROPERTIES 3
PIXEL_SIZE 32
FONT_ASCENT 27
FONT_DESCENT 5
ENDPROPERTIES
CHARS 295
STARTCHAR uni0000
ENCODING 0
SWIDTH 375 0
DWIDTH 12 0
BBX 12 30 0 -5
BITMAP
0000
0000
0000
0000
0000
0000
0000
0000
0000
0000
0000
0000
0000
0000
0000
0000
0000
0000
0000
0000
0000
0000
0000
0000
0000
0000
0000
0000
0000
0000
ENDCHAR
STARTCHAR uni0001
ENCODING 1
SWIDTH 375 0
DWIDTH 12 0
BBX 12 30 0 -5
BITMAP
0000
0000
0000
0000
0000
0000
0000
0000
1F80
30C0
6060
4020
59A0
59A0
4020
50A0
59A0
4F20
6060
30C0
1F80
0000
0000
0000
0000
0000
0000
0000
0000
0000
ENDCHAR
STARTCHAR uni0002
ENCODING 2
SWIDTH 375 0
DWIDTH 12 0
BBX 12 30 0 -5
BITMAP
0000
0000
0000
0000
0000
0000
0000
0000
1F80
3FC0
7FE0
7FE0
6660
6660
7FE0
6F60
6660
70E0
7FE0
3FC0
1F80
0000
0000
0000
0000
0000
0000
0000
0000
0000
ENDCHAR
STARTCHAR uni0003
ENCODING 3
SWIDTH 375 0
DWIDTH 12 0
BBX 12 30 0 -5
BITMAP
0000
0000
0000
0000
0000
0000
0000
0000
0000
71C0
FBE0
FFE0
FFE0
FFE0
7FC0
7FC0
3F80
1F00
0E00
0400
0400
0000
0000
0000
0000
0000
0000
0000
0000
0000
ENDCHAR
STARTCHAR uni0004
ENCODING 4
SWIDTH 375 0
DWIDTH 12 0
BBX 12 30 0 -5
BITMAP
0000
0000
0000
0000
0000
0000
0000
0000
0400
0400
0E00
0E00
1F00
1F00
3F80
3F80
1F00
1F00
0E00
0E00
0400
0400
0000
0000
0000
0000
0000
0000
0000
0000
ENDCHAR
STARTCHAR uni0005
ENCODING 5
SWIDTH 375 0
DWIDTH 12 0
BBX 12 30 0 -5
BITMAP
0000
0000
0000
0000
0000
0000
0000
0000
0E00
1F00
1F00
1F00
0E00
75C0
FFE0
FFE0
FFE0
75C0
0400
0E00
1F00
0000
0000
0000
0000
0000
0000
0000
0000
0000
ENDCHAR
STARTCHAR uni0006
ENCODING 6
SWIDTH 375 0
DWIDTH 12 0
BBX 12 30 0 -5
BITMAP
0000
0000
0000
0000
0000
0000
0000
0000
0400
0E00
1F00
3F80
7FC0
7FC0
FFE0
FFE0
FFE0
75C0
0400
0E00
1F00
0000
0000
0000
0000
0000
0000
0000
0000
0000
ENDCHAR
STARTCHAR uni0007
ENCODING 7
SWIDTH 375 0
DWIDTH 12 0
BBX 12 30 0 -5
BITMAP
0000
0000
0000
0000
0000
0000
0000
0000
0000
0000
0000
0F00
1F80
3FC0
3FC0
3FC0
3FC0
1F80
0F00
0000
0000
0000
0000
0000
0000
0000
0000
0000
0000
0000
ENDCHAR
STARTCHAR uni0008
ENCODING 8
SWIDTH 375 0
DWIDTH 12 0
BBX 12 30 0 -5
BITMAP
0000
0000
0000
FFF0
FFF0
FFF0
FFF0
FFF0
FFF0
FFF0
FFF0
F0F0
E070
C030
C030
C030
C030
E070
F0F0
FFF0
FFF0
FFF0
FFF0
FFF0
FFF0
FFF0
FFF0
0000
0000
0000
ENDCHAR
STARTCHAR uni0009
ENCODING 9
SWIDTH 375 0
DWIDTH 12 0
BBX 12 30 0 -5
BITMAP
0000
0000
0000
0000
0000
0000
0000
0000
0000
0000
0000
0F00
1080
2040
2040
2040
2040
1080
0F00
0000
0000
0000
0000
0000
0000
0000
0000
0000
0000
0000
ENDCHAR
STARTCHAR uni000A
ENCODING 10
SWIDTH 375 0
DWIDTH 12 0
BBX 12 30 0 -5
BITMAP
0000
0000
0000
FFF0
FFF0
FFF0
FFF0
FFF0
FFF0
FFF0
FFF0
F0F0
EF70
DFB0
DFB0
DFB0
DFB0
EF70
F0F0
FFF0
FFF0
FFF0
FFF0
FFF0
FFF0
FFF0
FFF0
0000
0000
0000
ENDCHAR
STARTCHAR uni000B
ENCODING 11
SWIDTH 375 0
DWIDTH 12 0
BBX 12 30 0 -5
BITMAP
0000
0000
0000
0000
0000
0000
0000
03E0
00E0
00E0
01A0
01A0
0320
1F00
3300
6180
6180
6180
6180
6180
6180
6180
3300
1E00
0000
0000
0000
0000
0000
0000
ENDCHAR
STARTCHAR uni000C
ENCODING 12
SWIDTH 375 0
DWIDTH 12 0
BBX 12 30 0 -5
BITMAP
0000
0000
0000
0000
0000
0000
0000
0F00
1980
30C0
30C0
6060
6060
6060
30C0
30C0
1980
0F00
0600
0600
1F80
1F80
0600
0600
0000
0000
0000
0000
0000
0000
ENDCHAR
STARTCHAR uni000D
ENCODING 13
SWIDTH 375 0
DWIDTH 12 0
BBX 12 30 0 -5
BITMAP
0000
0000
0000
0000
0000
0400
0400
0600
0600
0700
0780
05C0
04C0
0460
0460
0420
0420
0420
0420
0440
1C00
3800
7800
7000
6000
0000
0000
0000
0000
0000
ENDCHAR
STARTCHAR uni000E
ENCODING 14
SWIDTH 375 0
DWIDTH 12 0
BBX 12 30 0 -5
BITMAP
0000
0000
0000
0000
0000
0C00
0F80
0FE0
0BE0
0860
0820
0820
0820
0820
0820
0820
0820
0820
3820
7020
F0E0
E1C0
C3C0
0380
0300
0000
0000
0000
0000
0000
ENDCHAR
STARTCHAR uni000F
ENCODING 15
SWIDTH 375 0
DWIDTH 12 0
BBX 12 30 0 -5
BITMAP
0000
0000
0000
0000
0000
0000
0000
0000
0000
0400
8420
C460
6EC0
3180
2080
E0E0
2080
3180
6EC0
C460
8420
0400
0000
0000
0000
0000
0000
0000
0000
0000
ENDCHAR
STARTCHAR uni0010
ENCODING 16
SWIDTH 375 0
DWIDTH 12 0
BBX 12 30 0 -5
BITMAP
0000
0000
0000
0000
0000
4000
6000
7000
7800
7C00
7E00
7F00
7F80
7FC0
7FE0
7FC0
7F80
7F00
7E00
7C00
7800
7000
6000
4000
0000
0000
0000
0000
0000
0000
ENDCHAR
STARTCHAR uni0011
ENCODING 17
SWIDTH 375 0
DWIDTH 12 0
BBX 12 30 0 -5
BITMAP
0000
0000
0000
0000
0000
0020
0060
00E0
01E0
03E0
07E0
0FE0
1FE0
3FE0
7FE0
3FE0
1FE0
0FE0
07E0
03E0
01E0
00E0
0060
0020
0000
0000
0000
0000
0000
0000
ENDCHAR
STARTCHAR uni0012
ENCODING 18
SWIDTH 375 0
DWIDTH 12 0
BBX 12 30 0 -5
BITMAP
0000
0000
0000
0000
0000
0000
0600
0F00
1F80
36C0
0600
0600
0600
0600
0600
0600
0600
0600
0600
0600
36C0
1F80
0F00
0600
0000
0000
0000
0000
0000
0000
ENDCHAR
STARTCHAR uni0013
ENCODING 19
SWIDTH 375 0
DWIDTH 12 0
BBX 12 30 0 -5
BITMAP
0000
0000
0000
0000
1080
39C0
39C0
39C0
39C0
39C0
39C0
39C0
39C0
1080
1080
1080
1080
1080
1080
1080
0000
0000
1080
39C0
39C0
1080
0000
0000
0000
0000
ENDCHAR
STARTCHAR uni0014
ENCODING 20
SWIDTH 375 0
DWIDTH 12 0
BBX 12 30 0 -5
BITMAP
0000
0000
0000
0000
0000
1FF0
7CC0
FCC0
FCC0
FCC0
FCC0
FCC0
7CC0
3CC0
0CC0
0CC0
0CC0
0CC0
0CC0
0CC0
0CC0
0CC0
0CC0
0CC0
0CC0
0000
0000
0000
0000
0000
ENDCHAR
STARTCHAR uni0015
ENCODING 21
SWIDTH 375 0
DWIDTH 12 0
BBX 12 30 0 -5
BITMAP
0000
0000
0000
0000
0F00
1880
30C0
30C0
3000
1800
0C00
0E00
1B00
3180
30C0
30C0
18C0
0CC0
0780
0300
0180
00C0
30C0
30C0
1180
0F00
0000
0000
0000
0000
ENDCHAR
STARTCHAR uni0016
ENCODING 22
SWIDTH 375 0
DWIDTH 12 0
BBX 12 30 0 -5
BITMAP
0000
0000
0000
0000
0000
0000
0000
0000
0000
0000
0000
0000
0000
0000
0000
7FE0
7FE0
7FE0
7FE0
7FE0
7FE0
7FE0
0000
0000
0000
0000
0000
0000
0000
0000
ENDCHAR
STARTCHAR uni0017
ENCODING 23
SWIDTH 375 0
DWIDTH 12 0
BBX 12 30 0 -5
BITMAP
0000
0000
0000
0000
0000
0000
0600
0F00
1F80
36C0
0600
0600
0600
0600
0600
0600
0600
0600
36C0
1F80
0F00
0600
0000
3FC0
3FC0
0000
0000
0000
0000
0000
ENDCHAR
STARTCHAR uni0018
ENCODING 24
SWIDTH 375 0
DWIDTH 12 0
BBX 12 30 0 -5
BITMAP
0000
0000
0000
0000
0000
0000
0600
0F00
1F80
36C0
0600
0600
0600
0600
0600
0600
0600
0600
0600
0600
0600
0600
0600
0600
0000
0000
0000
0000
0000
0000
ENDCHAR
STARTCHAR uni0019
ENCODING 25
SWIDTH 375 0
DWIDTH 12 0
BBX 12 30 0 -5
BITMAP
0000
0000
0000
0000
0000
0000
0600
0600
0600
0600
0600
0600
0600
0600
0600
0600
0600
0600
0600
0600
36C0
1F80
0F00
0600
0000
0000
0000
0000
0000
0000
ENDCHAR
STARTCHAR uni001A
ENCODING 26
SWIDTH 375 0
DWIDTH 12 0
BBX 12 30 0 -5
BITMAP
0000
0000
0000
0000
0000
0000
0000
0000
0000
0000
0000
0080
00C0
0060
FFF0
FFF0
0060
00C0
0080
0000
0000
0000
0000
0000
0000
0000
0000
0000
0000
0000
ENDCHAR
STARTCHAR uni001B
ENCODING 27
SWIDTH 375 0
DWIDTH 12 0
BBX 12 30 0 -5
BITMAP
0000
0000
0000
0000
0000
0000
0000
0000
0000
0000
0000
1000
3000
6000
FFF0
FFF0
6000
3000
1000
0000
0000
0000
0000
0000
0000
0000
0000
0000
0000
0000
ENDCHAR
STARTCHAR uni001C
ENCODING 28
SWIDTH 375 0
DWIDTH 12 0
BBX 12 30 0 -5
BITMAP
0000
0000
0000
0000
0000
0000
0000
0000
0000
0000
4000
4000
4000
4000
4000
4000
4000
4000
4000
7FE0
0000
0000
0000
0000
0000
0000
0000
0000
0000
0000
ENDCHAR
STARTCHAR uni001D
ENCODING 29
SWIDTH 375 0
DWIDTH 12 0
BBX 12 30 0 -5
BITMAP
0000
0000
0000
0000
0000
0000
0000
0000
0000
0000
0000
1080
30C0
6060
FFF0
FFF0
6060
30C0
1080
0000
0000
0000
0000
0000
0000
0000
0000
0000
0000
0000
ENDCHAR
STARTCHAR uni001E
ENCODING 30
SWIDTH 375 0
DWIDTH 12 0
BBX 12 30 0 -5
BITMAP
0000
0000
0000
0000
0000
0000
0000
0000
0000
0000
0400
0E00
0E00
1F00
1F00
3F80
3F80
7FC0
7FC0
7FC0
0000
0000
0000
0000
0000
0000
0000
0000
0000
0000
ENDCHAR
STARTCHAR uni001F
ENCODING 31
SWIDTH 375 0
DWIDTH 12 0
BBX 12 30 0 -5
BITMAP
0000
0000
0000
0000
0000
0000
0000
0000
0000
0000
7FC0
7FC0
7FC0
3F80
3F80
1F00
1F00
0E00
0E00
0400
0000
0000
0000
0000
0000
0000
0000
0000
0000
0000
ENDCHAR
STARTCHAR space
ENCODING 32
SWIDTH 375 0
DWIDTH 12 0
BBX 12 30 0 -5
BITMAP
0000
0000
0000
0000
0000
0000
0000
0000
0000
0000
0000
0000
0000
0000
0000
0000
0000
0000
0000
0000
0000
0000
0000
0000
0000
0000
0000
0000
0000
0000
ENDCHAR
STARTCHAR exclam
ENCODING 33
SWIDTH 375 0
DWIDTH 12 0
BBX 12 30 0 -5
BITMAP
0000
0000
0000
0000
0200
0700
0700
0700
0700
0700
0700
0700
0700
0200
0200
0200
0200
0200
0200
0200
0000
0000
0200
0700
0700
0200
0000
0000
0000
0000
ENDCHAR
STARTCHAR quotedbl
ENCODING 34
SWIDTH 375 0
DWIDTH 12 0
BBX 12 30 0 -5
BITMAP
0000
0000
0000
0000
0000
39C0
39C0
39C0
1080
1080
1080
0000
0000
0000
0000
0000
0000
0000
0000
0000
0000
0000
0000
0000
0000
0000
0000
0000
0000
0000
ENDCHAR
STARTCHAR numbersign
ENCODING 35
SWIDTH 375 0
DWIDTH 12 0
BBX 12 30 0 -5
BITMAP
0000
0000
0000
0000
0000
0000
0000
0180
3180
3180
31E0
3F80
F180
3180
3180
3180
31E0
3F80
F180
3180
3180
3180
3180
3000
0000
0000
0000
0000
0000
0000
ENDCHAR
STARTCHAR dollar
ENCODING 36
SWIDTH 375 0
DWIDTH 12 0
BBX 12 30 0 -5
BITMAP
0000
0000
0000
0000
0000
0600
0600
3FC0
6660
C630
C630
C600
C600
6600
3E00
0F80
07C0
0660
0630
C630
C630
C630
6660
3FC0
0600
0600
0000
0000
0000
0000
ENDCHAR
STARTCHAR percent
ENCODING 37
SWIDTH 375 0
DWIDTH 12 0
BBX 12 30 0 -5
BITMAP
0000
0000
0000
0000
0000
3000
4820
CC60
CC40
CCC0
CC80
CD80
4B00
3200
0600
0400
0C00
0980
1A40
3660
2660
6660
4660
C660
8240
0180
0000
0000
0000
0000
ENDCHAR
STARTCHAR ampersand
ENCODING 38
SWIDTH 375 0
DWIDTH 12 0
BBX 12 30 0 -5
BITMAP
0000
0000
0000
0000
0000
1C00
2200
4200
4200
4200
6400
2800
3000
3800
4800
4C00
C400
C670
C320
C320
C1C0
C0C0
C1C0
6760
3C30
0000
0000
0000
0000
0000
ENDCHAR
STARTCHAR quotesingle
ENCODING 39
SWIDTH 375 0
DWIDTH 12 0
BBX 12 30 0 -5
BITMAP
0000
0000
0000
0000
0000
0700
0700
0700
0700
0200
0200
0200
0000
0000
0000
0000
0000
0000
0000
0000
0000
0000
0000
0000
0000
0000
0000
0000
0000
0000
ENDCHAR
STARTCHAR parenleft
ENCODING 40
SWIDTH 375 0
DWIDTH 12 0
BBX 12 30 0 -5
BITMAP
0000
0000
0000
0020
0040
0080
0180
0100
0300
0300
0600
0600
0600
0600
0600
0600
0600
0600
0600
0600
0300
0300
0100
0180
0080
0040
0020
0000
0000
0000
ENDCHAR
STARTCHAR parenright
ENCODING 41
SWIDTH 375 0
DWIDTH 12 0
BBX 12 30 0 -5
BITMAP
0000
0000
0000
4000
2000
1000
1800
0800
0C00
0C00
0600
0600
0600
0600
0600
0600
0600
0600
0600
0600
0C00
0C00
0800
1800
1000
2000
4000
0000
0000
0000
ENDCHAR
STARTCHAR asterisk
ENCODING 42
SWIDTH 375 0
DWIDTH 12 0
BBX 12 30 0 -5
BITMAP
0000
0000
0000
0000
0000
0000
0000
0400
0E00
0E00
C460
E4E0
64C0
1100
0000
0000
1100
64C0
E4E0
C460
0E00
0E00
0400
0000
0000
0000
0000
0000
0000
0000
ENDCHAR
STARTCHAR plus
ENCODING 43
SWIDTH 375 0
DWIDTH 12 0
BBX 12 30 0 -5
BITMAP
0000
0000
0000
0000
0000
0000
0000
0000
0000
0000
0600
0600
0600
0600
7FE0
7FE0
0600
0600
0600
0600
0000
0000
0000
0000
0000
0000
0000
0000
0000
0000
ENDCHAR
STARTCHAR comma
ENCODING 44
SWIDTH 375 0
DWIDTH 12 0
BBX 12 30 0 -5
BITMAP
0000
0000
0000
0000
0000
0000
0000
0000
0000
0000
0000
0000
0000
0000
0000
0000
0000
0000
0000
0000
0C00
1E00
1E00
0E00
0600
0C00
1800
0000
0000
0000
ENDCHAR
STARTCHAR hyphen
ENCODING 45
SWIDTH 375 0
DWIDTH 12 0
BBX 12 30 0 -5
BITMAP
0000
0000
0000
0000
0000
0000
0000
0000
0000
0000
0000
0000
0000
0000
7FE0
7FE0
0000
0000
0000
0000
0000
0000
0000
0000
0000
0000
0000
0000
0000
0000
ENDCHAR
STARTCHAR period
ENCODING 46
SWIDTH 375 0
DWIDTH 12 0
BBX 12 30 0 -5
BITMAP
0000
0000
0000
0000
0000
0000
0000
0000
0000
0000
0000
0000
0000
0000
0000
0000
0000
0000
0000
0000
0000
0C00
1E00
1E00
0C00
0000
0000
0000
0000
0000
ENDCHAR
STARTCHAR slash
ENCODING 47
SWIDTH 375 0
DWIDTH 12 0
BBX 12 30 0 -5
BITMAP
0000
0000
0000
0000
0020
0060
0040
00C0
0080
0180
0100
0300
0200
0600
0400
0C00
0800
1800
1000
3000
2000
6000
4000
C000
8000
0000
0000
0000
0000
0000
ENDCHAR
STARTCHAR zero
ENCODING 48
SWIDTH 375 0
DWIDTH 12 0
BBX 12 30 0 -5
BITMAP
0000
0000
0000
0000
0000
0E00
1B00
3180
3180
60C0
60C0
C060
C060
C060
C060
C060
C060
C060
C060
60C0
60C0
3180
3180
1B00
0E00
0000
0000
0000
0000
0000
ENDCHAR
STARTCHAR one
ENCODING 49
SWIDTH 375 0
DWIDTH 12 0
BBX 12 30 0 -5
BITMAP
0000
0000
0000
0000
0000
0600
1E00
7E00
0600
0600
0600
0600
0600
0600
0600
0600
0600
0600
0600
0600
0600
0600
0600
0600
3FC0
0000
0000
0000
0000
0000
ENDCHAR
STARTCHAR two
ENCODING 50
SWIDTH 375 0
DWIDTH 12 0
BBX 12 30 0 -5
BITMAP
0000
0000
0000
0000
0000
1F00
3180
60C0
E060
E060
6060
0060
00C0
00C0
0180
0300
0600
0C00
1800
3000
7000
6020
E020
FFE0
FFE0
0000
0000
0000
0000
0000
ENDCHAR
STARTCHAR three
ENCODING 51
SWIDTH 375 0
DWIDTH 12 0
BBX 12 30 0 -5
BITMAP
0000
0000
0000
0000
0000
0F00
39C0
70E0
7060
3060
0060
00C0
0180
0300
0E00
0380
00C0
0060
0060
0060
6060
E060
E0E0
71C0
3F00
0000
0000
0000
0000
0000
ENDCHAR
STARTCHAR four
ENCODING 52
SWIDTH 375 0
DWIDTH 12 0
BBX 12 30 0 -5
BITMAP
0000
0000
0000
0000
0000
0180
0380
0380
0780
0580
0D80
0980
1980
1180
3180
2180
6180
4180
C180
FFF0
0180
0180
0180
0180
07E0
0000
0000
0000
0000
0000
ENDCHAR
STARTCHAR five
ENCODING 53
SWIDTH 375 0
DWIDTH 12 0
BBX 12 30 0 -5
BITMAP
0000
0000
0000
0000
0000
7FC0
7FC0
6000
6000
6000
6000
6000
6700
6980
70C0
40C0
0060
0060
0060
0060
6060
E0C0
E0C0
7180
3F00
0000
0000
0000
0000
0000
ENDCHAR
STARTCHAR six
ENCODING 54
SWIDTH 375 0
DWIDTH 12 0
BBX 12 30 0 -5
BITMAP
0000
0000
0000
0000
0000
1F00
3380
61C0
61C0
C180
C000
C000
CF00
D180
E0C0
C0C0
C060
C060
C060
C060
C060
60C0
60C0
3180
1F00
0000
0000
0000
0000
0000
ENDCHAR
STARTCHAR seven
ENCODING 55
SWIDTH 375 0
DWIDTH 12 0
BBX 12 30 0 -5
BITMAP
0000
0000
0000
0000
0000
7FE0
FFE0
C060
8040
80C0
0080
0180
0100
0300
0300
0600
0600
0600
0C00
0C00
0C00
0C00
0C00
0C00
0C00
0000
0000
0000
0000
0000
ENDCHAR
STARTCHAR eight
ENCODING 56
SWIDTH 375 0
DWIDTH 12 0
BBX 12 30 0 -5
BITMAP
0000
0000
0000
0000
0000
1F00
3180
60C0
60C0
60C0
60C0
3180
1B00
0E00
1F00
3180
60C0
C060
C060
C060
C060
C060
60C0
3180
1F00
0000
0000
0000
0000
0000
ENDCHAR
STARTCHAR nine
ENCODING 57
SWIDTH 375 0
DWIDTH 12 0
BBX 12 30 0 -5
BITMAP
0000
0000
0000
0000
0000
1F00
3180
60C0
60C0
C060
C060
C060
C060
C060
6060
60E0
3160
1E60
0060
0060
3060
70C0
70C0
3980
1F00
0000
0000
0000
0000
0000
ENDCHAR
STARTCHAR colon
ENCODING 58
SWIDTH 375 0
DWIDTH 12 0
BBX 12 30 0 -5
BITMAP
0000
0000
0000
0000
0000
0000
0000
0000
0000
0600
0F00
0F00
0600
0000
0000
0000
0000
0600
0F00
0F00
0600
0000
0000
0000
0000
0000
0000
0000
0000
0000
ENDCHAR
STARTCHAR semicolon
ENCODING 59
SWIDTH 375 0
DWIDTH 12 0
BBX 12 30 0 -5
BITMAP
0000
0000
0000
0000
0000
0000
0000
0000
0000
0600
0F00
0F00
0600
0000
0000
0000
0000
0600
0F00
0F00
0700
0300
0600
0C00
0000
0000
0000
0000
0000
0000
ENDCHAR
STARTCHAR less
ENCODING 60
SWIDTH 375 0
DWIDTH 12 0
BBX 12 30 0 -5
BITMAP
0000
0000
0000
0000
0000
0000
0060
00C0
0180
0300
0600
0C00
1800
3000
6000
C000
6000
3000
1800
0C00
0600
0300
0180
00C0
0060
0000
0000
0000
0000
0000
ENDCHAR
STARTCHAR equal
ENCODING 61
SWIDTH 375 0
DWIDTH 12 0
BBX 12 30 0 -5
BITMAP
0000
0000
0000
0000
0000
0000
0000
0000
0000
0000
0000
7FE0
7FE0
0000
0000
0000
0000
7FE0
7FE0
0000
0000
0000
0000
0000
0000
0000
0000
0000
0000
0000
ENDCHAR
STARTCHAR greater
ENCODING 62
SWIDTH 375 0
DWIDTH 12 0
BBX 12 30 0 -5
BITMAP
0000
0000
0000
0000
0000
0000
C000
6000
3000
1800
0C00
0600
0300
0180
00C0
0060
00C0
0180
0300
0600
0C00
1800
3000
6000
C000
0000
0000
0000
0000
0000
ENDCHAR
STARTCHAR question
ENCODING 63
SWIDTH 375 0
DWIDTH 12 0
BBX 12 30 0 -5
BITMAP
0000
0000
0000
0000
0000
0F80
18C0
3060
7060
7060
2060
00C0
00C0
0180
0100
0300
0200
0200
0200
0200
0000
0000
0200
0700
0700
0200
0000
0000
0000
0000
ENDCHAR
STARTCHAR at
ENCODING 64
SWIDTH 375 0
DWIDTH 12 0
BBX 12 30 0 -5
BITMAP
0000
0000
0000
0000
0000
1F00
2080
4040
8020
8F20
99A0
B1A0
B1A0
B1A0
B1A0
B1A0
B1A0
B1A0
BFA0
9CC0
8000
8000
4020
2040
1F80
0000
0000
0000
0000
0000
ENDCHAR
STARTCHAR A
ENCODING 65
SWIDTH 375 0
DWIDTH 12 0
BBX 12 30 0 -5
BITMAP
0000
0000
0000
0000
0000
0600
0600
0B00
0B00
0900
0900
1980
1980
1080
1080
30C0
30C0
3FC0
30C0
2040
6060
6060
6060
6060
F0F0
0000
0000
0000
0000
0000
ENDCHAR
STARTCHAR B
ENCODING 66
SWIDTH 375 0
DWIDTH 12 0
BBX 12 30 0 -5
BITMAP
0000
0000
0000
0000
0000
FE00
6300
6180
60C0
60C0
60C0
60C0
6180
6300
7E00
6380
60C0
60C0
6060
6060
6060
60C0
60C0
6180
FF00
0000
0000
0000
0000
0000
ENDCHAR
STARTCHAR C
ENCODING 67
SWIDTH 375 0
DWIDTH 12 0
BBX 12 30 0 -5
BITMAP
0000
0000
0000
0000
0000
1F20
31E0
60E0
6060
C020
C000
C000
C000
C000
C000
C000
C000
C000
C000
C000
C060
6060
60C0
3180
1F00
0000
0000
0000
0000
0000
ENDCHAR
STARTCHAR D
ENCODING 68
SWIDTH 375 0
DWIDTH 12 0
BBX 12 30 0 -5
BITMAP
0000
0000
0000
0000
0000
FE00
6300
6180
60C0
60C0
6060
6060
6060
6060
6060
6060
6060
6060
6060
6060
60C0
60C0
6180
6300
FE00
0000
0000
0000
0000
0000
ENDCHAR
STARTCHAR E
ENCODING 69
SWIDTH 375 0
DWIDTH 12 0
BBX 12 30 0 -5
BITMAP
0000
0000
0000
0000
0000
FFE0
60E0
6060
6020
6020
6000
6100
6100
6300
7F00
6300
6100
6100
6000
6000
6020
6020
6060
60E0
FFE0
0000
0000
0000
0000
0000
ENDCHAR
STARTCHAR F
ENCODING 70
SWIDTH 375 0
DWIDTH 12 0
BBX 12 30 0 -5
BITMAP
0000
0000
0000
0000
0000
FFE0
60E0
6060
6020
6020
6000
6100
6100
6300
7F00
6300
6100
6100
6000
6000
6000
6000
6000
6000
F000
0000
0000
0000
0000
0000
ENDCHAR
STARTCHAR G
ENCODING 71
SWIDTH 375 0
DWIDTH 12 0
BBX 12 30 0 -5
BITMAP
0000
0000
0000
0000
0000
1E40
33C0
60C0
6040
C040
C000
C000
C000
C000
C1E0
C0C0
C0C0
C0C0
C0C0
C0C0
C0C0
61C0
63C0
36C0
1CC0
0000
0000
0000
0000
0000
ENDCHAR
STARTCHAR H
ENCODING 72
SWIDTH 375 0
DWIDTH 12 0
BBX 12 30 0 -5
BITMAP
0000
0000
0000
0000
0000
F1E0
60C0
60C0
60C0
60C0
60C0
60C0
60C0
60C0
7FC0
60C0
60C0
60C0
60C0
60C0
60C0
60C0
60C0
60C0
F1E0
0000
0000
0000
0000
0000
ENDCHAR
STARTCHAR I
ENCODING 73
SWIDTH 375 0
DWIDTH 12 0
BBX 12 30 0 -5
BITMAP
0000
0000
0000
0000
0000
3FC0
0600
0600
0600
0600
0600
0600
0600
0600
0600
0600
0600
0600
0600
0600
0600
0600
0600
0600
3FC0
0000
0000
0000
0000
0000
ENDCHAR
STARTCHAR J
ENCODING 74
SWIDTH 375 0
DWIDTH 12 0
BBX 12 30 0 -5
BITMAP
0000
0000
0000
0000
0000
07E0
0180
0180
0180
0180
0180
0180
0180
0180
0180
0180
0180
0180
0180
6180
F180
E180
C180
6700
3E00
0000
0000
0000
0000
0000
ENDCHAR
STARTCHAR K
ENCODING 75
SWIDTH 375 0
DWIDTH 12 0
BBX 12 30 0 -5
BITMAP
0000
0000
0000
0000
0000
F3E0
6180
6180
6300
6300
6600
6600
6C00
6C00
7C00
7C00
7600
7600
6300
6300
6180
6180
60C0
60C0
F1F0
0000
0000
0000
0000
0000
ENDCHAR
STARTCHAR L
ENCODING 76
SWIDTH 375 0
DWIDTH 12 0
BBX 12 30 0 -5
BITMAP
0000
0000
0000
0000
0000
F000
6000
6000
6000
6000
6000
6000
6000
6000
6000
6000
6000
6000
6000
6000
6020
6020
6060
60E0
FFE0
0000
0000
0000
0000
0000
ENDCHAR
STARTCHAR M
ENCODING 77
SWIDTH 375 0
DWIDTH 12 0
BBX 12 30 0 -5
BITMAP
0000
0000
0000
0000
0000
E070
6060
6060
6060
70E0
70E0
70E0
70E0
79E0
6960
6960
6F60
6660
6660
6660
6060
6060
6060
6060
F0F0
0000
0000
0000
0000
0000
ENDCHAR
STARTCHAR N
ENCODING 78
SWIDTH 375 0
DWIDTH 12 0
BBX 12 30 0 -5
BITMAP
0000
0000
0000
0000
0000
E1E0
60C0
60C0
70C0
70C0
70C0
78C0
68C0
6CC0
64C0
66C0
62C0
63C0
61C0
61C0
61C0
60C0
60C0
6040
F040
0000
0000
0000
0000
0000
ENDCHAR
STARTCHAR O
ENCODING 79
SWIDTH 375 0
DWIDTH 12 0
BBX 12 30 0 -5
BITMAP
0000
0000
0000
0000
0000
1F00
3180
60C0
C060
C060
C060
C060
C060
C060
C060
C060
C060
C060
C060
C060
C060
C060
60C0
3180
1F00
0000
0000
0000
0000
0000
ENDCHAR
STARTCHAR P
ENCODING 80
SWIDTH 375 0
DWIDTH 12 0
BBX 12 30 0 -5
BITMAP
0000
0000
0000
0000
0000
FE00
6380
60C0
60C0
6060
6060
6060
60C0
60C0
6380
7E00
6000
6000
6000
6000
6000
6000
6000
6000
F000
0000
0000
0000
0000
0000
ENDCHAR
STARTCHAR Q
ENCODING 81
SWIDTH 375 0
DWIDTH 12 0
BBX 12 30 0 -5
BITMAP
0000
0000
0000
0000
0000
1F00
3180
60C0
C060
C060
C060
C060
C060
C060
C060
C060
C060
C060
C060
C060
CC60
C660
6360
31C0
1EC0
0070
0000
0000
0000
0000
ENDCHAR
STARTCHAR R
ENCODING 82
SWIDTH 375 0
DWIDTH 12 0
BBX 12 30 0 -5
BITMAP
0000
0000
0000
0000
0000
FE00
6380
6180
60C0
60C0
60C0
60C0
6180
6380
7E00
6C00
6C00
6600
6600
6300
6300
6180
6180
60C0
F1E0
0000
0000
0000
0000
0000
ENDCHAR
STARTCHAR S
ENCODING 83
SWIDTH 375 0
DWIDTH 12 0
BBX 12 30 0 -5
BITMAP
0000
0000
0000
0000
0000
1E40
73C0
C1C0
C0C0
C040
E000
7000
3800
1C00
0E00
0700
0380
01C0
00E0
8060
C060
E060
F0C0
D980
8F00
0000
0000
0000
0000
0000
ENDCHAR
STARTCHAR T
ENCODING 84
SWIDTH 375 0
DWIDTH 12 0
BBX 12 30 0 -5
BITMAP
0000
0000
0000
0000
0000
FFF0
E670
C630
8610
8610
0600
0600
0600
0600
0600
0600
0600
0600
0600
0600
0600
0600
0600
0600
1F80
0000
0000
0000
0000
0000
ENDCHAR
STARTCHAR U
ENCODING 85
SWIDTH 375 0
DWIDTH 12 0
BBX 12 30 0 -5
BITMAP
0000
0000
0000
0000
0000
F1E0
60C0
60C0
60C0
60C0
60C0
60C0
60C0
60C0
60C0
60C0
60C0
60C0
60C0
60C0
60C0
60C0
60C0
3180
1F00
0000
0000
0000
0000
0000
ENDCHAR
STARTCHAR V
ENCODING 86
SWIDTH 375 0
DWIDTH 12 0
BBX 12 30 0 -5
BITMAP
0000
0000
0000
0000
0000
F1E0
60C0
60C0
60C0
60C0
60C0
3180
3180
3180
3180
3180
3180
1B00
1B00
1B00
1B00
0E00
0E00
0E00
0400
0000
0000
0000
0000
0000
ENDCHAR
STARTCHAR W
ENCODING 87
SWIDTH 375 0
DWIDTH 12 0
BBX 12 30 0 -5
BITMAP
0000
0000
0000
0000
0000
F0F0
6060
6060
6060
6060
6060
6060
6060
2640
2640
2640
2640
2640
36C0
36C0
36C0
1980
1980
1980
1980
0000
0000
0000
0000
0000
ENDCHAR
STARTCHAR X
ENCODING 88
SWIDTH 375 0
DWIDTH 12 0
BBX 12 30 0 -5
BITMAP
0000
0000
0000
0000
0000
F0F0
6060
6060
30C0
30C0
1980
1980
0F00
0F00
0600
0600
0F00
0F00
1980
1980
30C0
30C0
6060
6060
F0F0
0000
0000
0000
0000
0000
ENDCHAR
STARTCHAR Y
ENCODING 89
SWIDTH 375 0
DWIDTH 12 0
BBX 12 30 0 -5
BITMAP
0000
0000
0000
0000
0000
F0F0
6060
6060
30C0
30C0
30C0
1980
1980
1980
0F00
0F00
0600
0600
0600
0600
0600
0600
0600
0600
1F80
0000
0000
0000
0000
0000
ENDCHAR
STARTCHAR Z
ENCODING 90
SWIDTH 375 0
DWIDTH 12 0
BBX 12 30 0 -5
BITMAP
0000
0000
0000
0000
0000
FFC0
E0C0
C1C0
8180
8300
0300
0600
0600
0C00
0C00
1800
1800
3000
3000
6000
6020
C020
C060
C0E0
FFE0
0000
0000
0000
0000
0000
ENDCHAR
STARTCHAR bracketleft
ENCODING 91
SWIDTH 375 0
DWIDTH 12 0
BBX 12 30 0 -5
BITMAP
0000
0000
0000
07E0
0400
0400
0400
0400
0400
0400
0400
0400
0400
0400
0400
0400
0400
0400
0400
0400
0400
0400
0400
0400
0400
0400
07E0
0000
0000
0000
ENDCHAR
STARTCHAR backslash
ENCODING 92
SWIDTH 375 0
DWIDTH 12 0
BBX 12 30 0 -5
BITMAP
0000
0000
0000
0000
8000
8000
C000
4000
6000
2000
3000
1000
1800
0800
0C00
0400
0600
0200
0300
0100
0180
0080
00C0
0040
0060
0030
0000
0000
0000
0000
ENDCHAR
STARTCHAR bracketright
ENCODING 93
SWIDTH 375 0
DWIDTH 12 0
BBX 12 30 0 -5
BITMAP
0000
0000
0000
7E00
0200
0200
0200
0200
0200
0200
0200
0200
0200
0200
0200
0200
0200
0200
0200
0200
0200
0200
0200
0200
0200
0200
7E00
0000
0000
0000
ENDCHAR
STARTCHAR asciicircum
ENCODING 94
SWIDTH 375 0
DWIDTH 12 0
BBX 12 30 0 -5
BITMAP
0000
0000
0000
0000
0600
0F00
1980
30C0
6060
4020
0000
0000
0000
0000
0000
0000
0000
0000
0000
0000
0000
0000
0000
0000
0000
0000
0000
0000
0000
0000
ENDCHAR
STARTCHAR underscore
ENCODING 95
SWIDTH 375 0
DWIDTH 12 0
BBX 12 30 0 -5
BITMAP
0000
0000
0000
0000
0000
0000
0000
0000
0000
0000
0000
0000
0000
0000
0000
0000
0000
0000
0000
0000
0000
0000
0000
0000
0000
0000
FFF0
0000
0000
0000
ENDCHAR
STARTCHAR grave
ENCODING 96
SWIDTH 375 0
DWIDTH 12 0
BBX 12 30 0 -5
BITMAP
0000
0000
0000
1800
3C00
0F00
01C0
0000
0000
0000
0000
0000
0000
0000
0000
0000
0000
0000
0000
0000
0000
0000
0000
0000
0000
0000
0000
0000
0000
0000
ENDCHAR
STARTCHAR a
ENCODING 97
SWIDTH 375 0
DWIDTH 12 0
BBX 12 30 0 -5
BITMAP
0000
0000
0000
0000
0000
0000
0000
0000
0000
0000
0000
0000
3F00
6180
F0C0
60C0
00C0
0FC0
38C0
60C0
C0C0
C0C0
C0C0
E3C0
3E60
0000
0000
0000
0000
0000
ENDCHAR
STARTCHAR b
ENCODING 98
SWIDTH 375 0
DWIDTH 12 0
BBX 12 30 0 -5
BITMAP
0000
0000
0000
0000
0000
E000
6000
6000
6000
6000
6000
6000
6F00
7980
70C0
60C0
6060
6060
6060
6060
6060
60C0
70C0
7980
CF00
0000
0000
0000
0000
0000
ENDCHAR
STARTCHAR c
ENCODING 99
SWIDTH 375 0
DWIDTH 12 0
BBX 12 30 0 -5
BITMAP
0000
0000
0000
0000
0000
0000
0000
0000
0000
0000
0000
0000
1F00
31C0
60E0
61E0
C0C0
C000
C000
C000
C000
6000
6060
30C0
1F80
0000
0000
0000
0000
0000
ENDCHAR
STARTCHAR d
ENCODING 100
SWIDTH 375 0
DWIDTH 12 0
BBX 12 30 0 -5
BITMAP
0000
0000
0000
0000
0000
00E0
0060
0060
0060
0060
0060
0060
1F60
31E0
60E0
6060
C060
C060
C060
C060
C060
6060
60E0
31E0
1F20
0000
0000
0000
0000
0000
ENDCHAR
STARTCHAR e
ENCODING 101
SWIDTH 375 0
DWIDTH 12 0
BBX 12 30 0 -5
BITMAP
0000
0000
0000
0000
0000
0000
0000
0000
0000
0000
0000
0000
1F00
3180
60C0
60C0
C060
C060
FFE0
C000
C000
6000
6060
30C0
1F80
0000
0000
0000
0000
0000
ENDCHAR
STARTCHAR f
ENCODING 102
SWIDTH 375 0
DWIDTH 12 0
BBX 12 30 0 -5
BITMAP
0000
0000
0000
0000
0000
07C0
0CE0
18E0
1840
1800
1800
1800
FF00
1800
1800
1800
1800
1800
1800
1800
1800
1800
1800
1800
7E00
0000
0000
0000
0000
0000
ENDCHAR
STARTCHAR g
ENCODING 103
SWIDTH 375 0
DWIDTH 12 0
BBX 12 30 0 -5
BITMAP
0000
0000
0000
0000
0000
0000
0000
0000
0000
0000
0000
0000
3E60
63E0
C180
C180
C180
6300
3E00
6000
7800
CF80
C1C0
C060
C060
60C0
3F80
0000
0000
0000
ENDCHAR
STARTCHAR h
ENCODING 104
SWIDTH 375 0
DWIDTH 12 0
BBX 12 30 0 -5
BITMAP
0000
0000
0000
0000
0000
E000
6000
6000
6000
6000
6000
6000
6700
6D80
78C0
70C0
60C0
60C0
60C0
60C0
60C0
60C0
60C0
60C0
F1E0
0000
0000
0000
0000
0000
ENDCHAR
STARTCHAR i
ENCODING 105
SWIDTH 375 0
DWIDTH 12 0
BBX 12 30 0 -5
BITMAP
0000
0000
0000
0000
0000
0600
0F00
0F00
0600
0000
0000
0000
1E00
0600
0600
0600
0600
0600
0600
0600
0600
0600
0600
0600
1F80
0000
0000
0000
0000
0000
ENDCHAR
STARTCHAR j
ENCODING 106
SWIDTH 375 0
DWIDTH 12 0
BBX 12 30 0 -5
BITMAP
0000
0000
0000
0000
0000
0300
0780
0780
0300
0000
0000
0000
0780
0180
0180
0180
0180
0180
0180
0180
0180
0180
6180
F180
E180
6300
3E00
0000
0000
0000
ENDCHAR
STARTCHAR k
ENCODING 107
SWIDTH 375 0
DWIDTH 12 0
BBX 12 30 0 -5
BITMAP
0000
0000
0000
0000
0000
E000
6000
6000
6000
6000
6000
6000
63E0
6180
6300
6600
6C00
7E00
7600
6300
6300
6180
6180
60C0
F1E0
0000
0000
0000
0000
0000
ENDCHAR
STARTCHAR l
ENCODING 108
SWIDTH 375 0
DWIDTH 12 0
BBX 12 30 0 -5
BITMAP
0000
0000
0000
0000
0000
1E00
0600
0600
0600
0600
0600
0600
0600
0600
0600
0600
0600
0600
0600
0600
0600
0600
0600
0600
1F80
0000
0000
0000
0000
0000
ENDCHAR
STARTCHAR m
ENCODING 109
SWIDTH 375 0
DWIDTH 12 0
BBX 12 30 0 -5
BITMAP
0000
0000
0000
0000
0000
0000
0000
0000
0000
0000
0000
0000
EDC0
7FE0
6660
6660
6660
6660
6660
6660
6660
6660
6660
6660
F770
0000
0000
0000
0000
0000
ENDCHAR
STARTCHAR n
ENCODING 110
SWIDTH 375 0
DWIDTH 12 0
BBX 12 30 0 -5
BITMAP
0000
0000
0000
0000
0000
0000
0000
0000
0000
0000
0000
0000
E700
6D80
78C0
70C0
60C0
60C0
60C0
60C0
60C0
60C0
60C0
60C0
F1E0
0000
0000
0000
0000
0000
ENDCHAR
STARTCHAR o
ENCODING 111
SWIDTH 375 0
DWIDTH 12 0
BBX 12 30 0 -5
BITMAP
0000
0000
0000
0000
0000
0000
0000
0000
0000
0000
0000
0000
1F00
3180
60C0
60C0
C060
C060
C060
C060
C060
60C0
60C0
3180
1F00
0000
0000
0000
0000
0000
ENDCHAR
STARTCHAR p
ENCODING 112
SWIDTH 375 0
DWIDTH 12 0
BBX 12 30 0 -5
BITMAP
0000
0000
0000
0000
0000
0000
0000
0000
0000
0000
0000
0000
EF00
7980
70C0
60C0
6060
6060
6060
60C0
70C0
7980
6F00
6000
6000
6000
F000
0000
0000
0000
ENDCHAR
STARTCHAR q
ENCODING 113
SWIDTH 375 0
DWIDTH 12 0
BBX 12 30 0 -5
BITMAP
0000
0000
0000
0000
0000
0000
0000
0000
0000
0000
0000
0000
1E40
33C0
61C0
60C0
C0C0
C0C0
C0C0
60C0
61C0
33C0
1EC0
00C0
00C0
00C0
01E0
0000
0000
0000
ENDCHAR
STARTCHAR r
ENCODING 114
SWIDTH 375 0
DWIDTH 12 0
BBX 12 30 0 -5
BITMAP
0000
0000
0000
0000
0000
0000
0000
0000
0000
0000
0000
0000
E780
6CC0
78E0
70C0
6000
6000
6000
6000
6000
6000
6000
6000
F000
0000
0000
0000
0000
0000
ENDCHAR
STARTCHAR s
ENCODING 115
SWIDTH 375 0
DWIDTH 12 0
BBX 12 30 0 -5
BITMAP
0000
0000
0000
0000
0000
0000
0000
0000
0000
0000
0000
0000
3F00
61C0
C0C0
C040
E000
7800
1F00
03C0
00E0
8060
C060
E0C0
3F80
0000
0000
0000
0000
0000
ENDCHAR
STARTCHAR t
ENCODING 116
SWIDTH 375 0
DWIDTH 12 0
BBX 12 30 0 -5
BITMAP
0000
0000
0000
0000
0000
0000
0000
0800
1800
1800
1800
1800
FFC0
1800
1800
1800
1800
1800
1800
1800
1800
1860
1860
0CC0
0780
0000
0000
0000
0000
0000
ENDCHAR
STARTCHAR u
ENCODING 117
SWIDTH 375 0
DWIDTH 12 0
BBX 12 30 0 -5
BITMAP
0000
0000
0000
0000
0000
0000
0000
0000
0000
0000
0000
0000
E1C0
60C0
60C0
60C0
60C0
60C0
60C0
60C0
60C0
61C0
63C0
36C0
1CE0
0000
0000
0000
0000
0000
ENDCHAR
STARTCHAR v
ENCODING 118
SWIDTH 375 0
DWIDTH 12 0
BBX 12 30 0 -5
BITMAP
0000
0000
0000
0000
0000
0000
0000
0000
0000
0000
0000
0000
F1E0
60C0
60C0
3180
3180
3180
1B00
1B00
1B00
0E00
0E00
0E00
0400
0000
0000
0000
0000
0000
ENDCHAR
STARTCHAR w
ENCODING 119
SWIDTH 375 0
DWIDTH 12 0
BBX 12 30 0 -5
BITMAP
0000
0000
0000
0000
0000
0000
0000
0000
0000
0000
0000
0000
F0F0
6060
6060
6660
6660
36C0
36C0
36C0
3FC0
1980
1980
1980
1980
0000
0000
0000
0000
0000
ENDCHAR
STARTCHAR x
ENCODING 120
SWIDTH 375 0
DWIDTH 12 0
BBX 12 30 0 -5
BITMAP
0000
0000
0000
0000
0000
0000
0000
0000
0000
0000
0000
0000
F1E0
60C0
60C0
3180
1B00
0E00
0E00
0E00
1B00
3180
60C0
60C0
F1E0
0000
0000
0000
0000
0000
ENDCHAR
STARTCHAR y
ENCODING 121
SWIDTH 375 0
DWIDTH 12 0
BBX 12 30 0 -5
BITMAP
0000
0000
0000
0000
0000
0000
0000
0000
0000
0000
0000
0000
F1E0
60C0
30C0
3180
1980
1980
0F00
0F00
0700
0600
0600
0600
CC00
CC00
7800
0000
0000
0000
ENDCHAR
STARTCHAR z
ENCODING 122
SWIDTH 375 0
DWIDTH 12 0
BBX 12 30 0 -5
BITMAP
0000
0000
0000
0000
0000
0000
0000
0000
0000
0000
0000
0000
7FE0
4060
40C0
0180
0300
0600
0C00
1800
3000
6020
C020
C060
FFE0
0000
0000
0000
0000
0000
ENDCHAR
STARTCHAR braceleft
ENCODING 123
SWIDTH 375 0
DWIDTH 12 0
BBX 12 30 0 -5
BITMAP
0000
0000
0000
01E0
0300
0600
0600
0600
0600
0600
0600
0600
0600
0C00
1800
1800
0C00
0600
0600
0600
0600
0600
0600
0600
0600
0300
01E0
0000
0000
0000
ENDCHAR
STARTCHAR bar
ENCODING 124
SWIDTH 375 0
DWIDTH 12 0
BBX 12 30 0 -5
BITMAP
0000
0000
0000
0600
0600
0600
0600
0600
0600
0600
0600
0600
0600
0600
0600
0600
0600
0600
0600
0600
0600
0600
0600
0600
0600
0600
0600
0000
0000
0000
ENDCHAR
STARTCHAR braceright
ENCODING 125
SWIDTH 375 0
DWIDTH 12 0
BBX 12 30 0 -5
BITMAP
0000
0000
0000
7800
0C00
0600
0600
0600
0600
0600
0600
0600
0600
0300
0180
0180
0300
0600
0600
0600
0600
0600
0600
0600
0600
0C00
7800
0000
0000
0000
ENDCHAR
STARTCHAR asciitilde
ENCODING 126
SWIDTH 375 0
DWIDTH 12 0
BBX 12 30 0 -5
BITMAP
0000
0000
0000
0000
0000
0000
0000
0000
0000
0000
0000
0000
3000
C800
8800
8C00
0410
0630
0260
0180
0000
0000
0000
0000
0000
0000
0000
0000
0000
0000
ENDCHAR
STARTCHAR uni007F
ENCODING 127
SWIDTH 375 0
DWIDTH 12 0
BBX 12 30 0 -5
BITMAP
0000
0000
0000
0000
0000
0000
0000
0000
0000
0400
0400
0E00
0A00
1B00
1100
3180
2080
60C0
4040
4040
7FC0
0000
0000
0000
0000
0000
0000
0000
0000
0000
ENDCHAR
STARTCHAR uni00A0
ENCODING 160
SWIDTH 375 0
DWIDTH 12 0
BBX 12 30 0 -5
BITMAP
0000
0000
0000
0000
0000
0000
0000
0000
0000
0000
0000
0000
0000
0000
0000
0000
0000
0000
0000
0000
0000
0000
0000
0000
0000
0000
0000
0000
0000
0000
ENDCHAR
STARTCHAR exclamdown
ENCODING 161
SWIDTH 375 0
DWIDTH 12 0
BBX 12 30 0 -5
BITMAP
0000
0000
0000
0000
0200
0700
0700
0200
0000
0000
0200
0200
0200
0200
0200
0200
0200
0700
0700
0700
0700
0700
0700
0700
0700
0200
0000
0000
0000
0000
ENDCHAR
STARTCHAR cent
ENCODING 162
SWIDTH 375 0
DWIDTH 12 0
BBX 12 30 0 -5
BITMAP
0000
0000
0000
0000
0000
0000
0000
0100
0100
1F00
33C0
62E0
62E0
C6C0
C400
C400
C400
CC00
6800
6860
38C0
1F80
1000
1000
0000
0000
0000
0000
0000
0000
ENDCHAR
STARTCHAR sterling
ENCODING 163
SWIDTH 375 0
DWIDTH 12 0
BBX 12 30 0 -5
BITMAP
0000
0000
0000
0000
0000
0F00
1980
10C0
31C0
3180
3000
3000
3000
3000
FF80
1800
1800
1800
1800
1800
7800
CC20
CC60
DFC0
7380
0000
0000
0000
0000
0000
ENDCHAR
STARTCHAR yen
ENCODING 165
SWIDTH 375 0
DWIDTH 12 0
BBX 12 30 0 -5
BITMAP
0000
0000
0000
0000
0000
F0F0
6060
30C0
30C0
30C0
1980
1980
0F00
0F00
FFF0
0600
0600
0600
0600
FFF0
0600
0600
0600
0600
1F80
0000
0000
0000
0000
0000
ENDCHAR
STARTCHAR section
ENCODING 167
SWIDTH 375 0
DWIDTH 12 0
BBX 12 30 0 -5
BITMAP
0000
0000
0000
0000
0F00
1880
30C0
30C0
3000
1800
0C00
0E00
1B00
3180
30C0
30C0
18C0
0CC0
0780
0300
0180
00C0
30C0
30C0
1180
0F00
0000
0000
0000
0000
ENDCHAR
STARTCHAR ordfeminine
ENCODING 170
SWIDTH 375 0
DWIDTH 12 0
BBX 12 30 0 -5
BITMAP
0000
0000
0000
0000
0000
1F00
3180
3180
0780
1980
3180
3180
3380
1EC0
0000
3FC0
0000
0000
0000
0000
0000
0000
0000
0000
0000
0000
0000
0000
0000
0000
ENDCHAR
STARTCHAR guillemotleft
ENCODING 171
SWIDTH 375 0
DWIDTH 12 0
BBX 12 30 0 -5
BITMAP
0000
0000
0000
0000
0000
0000
0000
0000
0000
0000
0420
0840
1080
3180
6300
6300
3180
1080
0840
0420
0000
0000
0000
0000
0000
0000
0000
0000
0000
0000
ENDCHAR
STARTCHAR logicalnot
ENCODING 172
SWIDTH 375 0
DWIDTH 12 0
BBX 12 30 0 -5
BITMAP
0000
0000
0000
0000
0000
0000
0000
0000
0000
0000
0000
0000
7FE0
0020
0020
0020
0020
0020
0020
0020
0000
0000
0000
0000
0000
0000
0000
0000
0000
0000
ENDCHAR
STARTCHAR degree
ENCODING 176
SWIDTH 375 0
DWIDTH 12 0
BBX 12 30 0 -5
BITMAP
0000
0000
0000
1E00
2100
4080
4080
4080
4080
2100
1E00
0000
0000
0000
0000
0000
0000
0000
0000
0000
0000
0000
0000
0000
0000
0000
0000
0000
0000
0000
ENDCHAR
STARTCHAR plusminus
ENCODING 177
SWIDTH 375 0
DWIDTH 12 0
BBX 12 30 0 -5
BITMAP
0000
0000
0000
0000
0000
0000
0000
0000
0600
0600
0600
0600
7FE0
7FE0
0600
0600
0600
0600
0000
0000
7FE0
7FE0
0000
0000
0000
0000
0000
0000
0000
0000
ENDCHAR
STARTCHAR uni00B2
ENCODING 178
SWIDTH 375 0
DWIDTH 12 0
BBX 12 30 0 -5
BITMAP
0000
0000
0000
0000
1E00
2300
6300
6300
0600
0C00
1800
3100
3100
7F00
7F00
0000
0000
0000
0000
0000
0000
0000
0000
0000
0000
0000
0000
0000
0000
0000
ENDCHAR
STARTCHAR mu
ENCODING 181
SWIDTH 375 0
DWIDTH 12 0
BBX 12 30 0 -5
BITMAP
0000
0000
0000
0000
0000
0000
0000
0000
0000
0000
0000
0000
71C0
30C0
30C0
30C0
30C0
30C0
30C0
30C0
30C0
30C0
30C0
39C0
3EE0
3000
7000
0000
0000
0000
ENDCHAR
STARTCHAR paragraph
ENCODING 182
SWIDTH 375 0
DWIDTH 12 0
BBX 12 30 0 -5
BITMAP
0000
0000
0000
0000
0000
1FF0
7CC0
FCC0
FCC0
FCC0
FCC0
FCC0
7CC0
3CC0
0CC0
0CC0
0CC0
0CC0
0CC0
0CC0
0CC0
0CC0
0CC0
0CC0
0CC0
0000
0000
0000
0000
0000
ENDCHAR
STARTCHAR periodcentered
ENCODING 183
SWIDTH 375 0
DWIDTH 12 0
BBX 12 30 0 -5
BITMAP
0000
0000
0000
0000
0000
0000
0000
0000
0000
0000
0000
0000
0000
0600
0F00
0F00
0600
0000
0000
0000
0000
0000
0000
0000
0000
0000
0000
0000
0000
0000
ENDCHAR
STARTCHAR ordmasculine
ENCODING 186
SWIDTH 375 0
DWIDTH 12 0
BBX 12 30 0 -5
BITMAP
0000
0000
0000
0000
0000
0F00
1980
30C0
30C0
30C0
30C0
30C0
1980
0F00
0000
3FC0
0000
0000
0000
0000
0000
0000
0000
0000
0000
0000
0000
0000
0000
0000
ENDCHAR
STARTCHAR guillemotright
ENCODING 187
SWIDTH 375 0
DWIDTH 12 0
BBX 12 30 0 -5
BITMAP
0000
0000
0000
0000
0000
0000
0000
0000
0000
0000
4200
2100
1080
18C0
0C60
0C60
18C0
1080
2100
4200
0000
0000
0000
0000
0000
0000
0000
0000
0000
0000
ENDCHAR
STARTCHAR onequarter
ENCODING 188
SWIDTH 375 0
DWIDTH 12 0
BBX 12 30 0 -5
BITMAP
0000
0000
0000
0000
3020
7060
3040
30C0
3080
3180
3100
3300
7A00
0600
0400
0C00
08C0
19C0
13C0
32C0
26C0
64C0
4FE0
C0C0
80C0
01E0
0000
0000
0000
0000
ENDCHAR
STARTCHAR onehalf
ENCODING 189
SWIDTH 375 0
DWIDTH 12 0
BBX 12 30 0 -5
BITMAP
0000
0000
0000
0000
3020
7060
3040
30C0
3080
3180
3100
3300
7A00
0600
0400
0C00
09C0
1A60
1660
3660
20C0
6180
4300
C320
87E0
07E0
0000
0000
0000
0000
ENDCHAR
STARTCHAR questiondown
ENCODING 191
SWIDTH 375 0
DWIDTH 12 0
BBX 12 30 0 -5
BITMAP
0000
0000
0000
0000
0000
0400
0E00
0E00
0400
0000
0000
0400
0400
0400
0400
0C00
0800
1800
3000
3000
6040
60E0
60E0
60C0
3180
1F00
0000
0000
0000
0000
ENDCHAR
STARTCHAR Adieresis
ENCODING 196
SWIDTH 375 0
DWIDTH 12 0
BBX 12 30 0 -5
BITMAP
0000
0000
0000
1080
39C0
39C0
1080
0000
0600
0600
0600
0F00
0B00
0B00
1B80
1180
1180
31C0
20C0
3FC0
20C0
60E0
4060
4060
E0E0
0000
0000
0000
0000
0000
ENDCHAR
STARTCHAR Aring
ENCODING 197
SWIDTH 375 0
DWIDTH 12 0
BBX 12 30 0 -5
BITMAP
0000
0000
0000
0600
0900
1980
1980
0900
0600
0600
0600
0F00
0B00
0B00
1B80
1180
1180
31C0
20C0
3FC0
20C0
60E0
4060
4060
E0E0
0000
0000
0000
0000
0000
ENDCHAR
STARTCHAR AE
ENCODING 198
SWIDTH 375 0
DWIDTH 12 0
BBX 12 30 0 -5
BITMAP
0000
0000
0000
0000
0000
07F0
0730
0710
0F10
0B00
0B00
1B20
1320
1360
13E0
3360
2320
3F20
2300
2300
6300
4310
4310
4330
E7F0
0000
0000
0000
0000
0000
ENDCHAR
STARTCHAR Ccedilla
ENCODING 199
SWIDTH 375 0
DWIDTH 12 0
BBX 12 30 0 -5
BITMAP
0000
0000
0000
0000
0000
1F20
31E0
60E0
6060
C020
C000
C000
C000
C000
C000
C000
C000
C000
C000
C060
6060
60C0
3180
1F00
0600
0300
0E00
0000
0000
0000
ENDCHAR
STARTCHAR Eacute
ENCODING 201
SWIDTH 375 0
DWIDTH 12 0
BBX 12 30 0 -5
BITMAP
0000
0000
0000
0180
0380
0700
0C00
0000
FFE0
60E0
6060
6020
6020
6100
6100
6300
7F00
6300
6100
6100
6020
6020
6060
60E0
FFE0
0000
0000
0000
0000
0000
ENDCHAR
STARTCHAR Ntilde
ENCODING 209
SWIDTH 375 0
DWIDTH 12 0
BBX 12 30 0 -5
BITMAP
0000
0000
0000
3C40
4E40
4780
0000
0000
E1E0
60C0
70C0
70C0
78C0
68C0
6CC0
64C0
66C0
62C0
63C0
61C0
61C0
60C0
60C0
6040
F040
0000
0000
0000
0000
0000
ENDCHAR
STARTCHAR Odieresis
ENCODING 214
SWIDTH 375 0
DWIDTH 12 0
BBX 12 30 0 -5
BITMAP
0000
0000
0000
2080
71C0
71C0
2080
0000
1F00
3180
60C0
C060
C060
C060
C060
C060
C060
C060
C060
C060
C060
C060
60C0
3180
1F00
0000
0000
0000
0000
0000
ENDCHAR
STARTCHAR Udieresis
ENCODING 220
SWIDTH 375 0
DWIDTH 12 0
BBX 12 30 0 -5
BITMAP
0000
0000
0000
2080
71C0
71C0
2080
0000
F1E0
60C0
60C0
60C0
60C0
60C0
60C0
60C0
60C0
60C0
60C0
60C0
60C0
60C0
60C0
3180
1F00
0000
0000
0000
0000
0000
ENDCHAR
STARTCHAR germandbls
ENCODING 223
SWIDTH 375 0
DWIDTH 12 0
BBX 12 30 0 -5
BITMAP
0000
0000
0000
0000
0000
0E00
1B00
3180
3180
60C0
60C0
60C0
6080
6100
6700
6180
60C0
6060
6060
6060
6060
60C0
6CC0
6D80
F700
0000
0000
0000
0000
0000
ENDCHAR
STARTCHAR agrave
ENCODING 224
SWIDTH 375 0
DWIDTH 12 0
BBX 12 30 0 -5
BITMAP
0000
0000
0000
0000
0000
0000
3000
3800
1C00
0600
0000
0000
3F00
6180
F0C0
60C0
00C0
0FC0
38C0
60C0
C0C0
C0C0
C0C0
E3C0
3E60
0000
0000
0000
0000
0000
ENDCHAR
STARTCHAR aacute
ENCODING 225
SWIDTH 375 0
DWIDTH 12 0
BBX 12 30 0 -5
BITMAP
0000
0000
0000
0000
0000
0000
0180
0380
0700
0C00
0000
0000
3F00
6180
F0C0
60C0
00C0
0FC0
38C0
60C0
C0C0
C0C0
C0C0
E3C0
3E60
0000
0000
0000
0000
0000
ENDCHAR
STARTCHAR acircumflex
ENCODING 226
SWIDTH 375 0
DWIDTH 12 0
BBX 12 30 0 -5
BITMAP
0000
0000
0000
0000
0000
0000
0400
0E00
1B00
3180
0000
0000
3F00
6180
F0C0
60C0
00C0
0FC0
38C0
60C0
C0C0
C0C0
C0C0
E3C0
3E60
0000
0000
0000
0000
0000
ENDCHAR
STARTCHAR adieresis
ENCODING 228
SWIDTH 375 0
DWIDTH 12 0
BBX 12 30 0 -5
BITMAP
0000
0000
0000
0000
0000
0000
2100
7380
7380
2100
0000
0000
3F00
6180
F0C0
60C0
00C0
0FC0
38C0
60C0
C0C0
C0C0
C0C0
E3C0
3E60
0000
0000
0000
0000
0000
ENDCHAR
STARTCHAR aring
ENCODING 229
SWIDTH 375 0
DWIDTH 12 0
BBX 12 30 0 -5
BITMAP
0000
0000
0000
0000
0000
0C00
1200
3300
3300
1200
0C00
0000
3F00
6180
F0C0
60C0
00C0
0FC0
38C0
60C0
C0C0
C0C0
C0C0
E3C0
3E60
0000
0000
0000
0000
0000
ENDCHAR
STARTCHAR ae
ENCODING 230
SWIDTH 375 0
DWIDTH 12 0
BBX 12 30 0 -5
BITMAP
0000
0000
0000
0000
0000
0000
0000
0000
0000
0000
0000
0000
7180
DAC0
CCC0
0C60
0C60
3C60
6FE0
CC00
CC00
CC00
CC60
4E40
3B80
0000
0000
0000
0000
0000
ENDCHAR
STARTCHAR ccedilla
ENCODING 231
SWIDTH 375 0
DWIDTH 12 0
BBX 12 30 0 -5
BITMAP
0000
0000
0000
0000
0000
0000
0000
0000
0000
0000
0000
0000
1F00
31C0
60E0
61E0
C0C0
C000
C000
C000
6000
6060
30C0
1F80
0600
0300
0E00
0000
0000
0000
ENDCHAR
STARTCHAR egrave
ENCODING 232
SWIDTH 375 0
DWIDTH 12 0
BBX 12 30 0 -5
BITMAP
0000
0000
0000
0000
0000
0000
3000
3800
1C00
0600
0000
0000
1F00
3180
60C0
60C0
C060
C060
FFE0
C000
C000
6000
6060
30C0
1F80
0000
0000
0000
0000
0000
ENDCHAR
STARTCHAR eacute
ENCODING 233
SWIDTH 375 0
DWIDTH 12 0
BBX 12 30 0 -5
BITMAP
0000
0000
0000
0000
0000
0000
0180
0380
0700
0C00
0000
0000
1F00
3180
60C0
60C0
C060
C060
FFE0
C000
C000
6000
6060
30C0
1F80
0000
0000
0000
0000
0000
ENDCHAR
STARTCHAR ecircumflex
ENCODING 234
SWIDTH 375 0
DWIDTH 12 0
BBX 12 30 0 -5
BITMAP
0000
0000
0000
0000
0000
0000
0400
0E00
1B00
3180
0000
0000
1F00
3180
60C0
60C0
C060
C060
FFE0
C000
C000
6000
6060
30C0
1F80
0000
0000
0000
0000
0000
ENDCHAR
STARTCHAR edieresis
ENCODING 235
SWIDTH 375 0
DWIDTH 12 0
BBX 12 30 0 -5
BITMAP
0000
0000
0000
0000
0000
0000
1080
39C0
39C0
1080
0000
0000
1F00
3180
60C0
60C0
C060
C060
FFE0
C000
C000
6000
6060
30C0
1F80
0000
0000
0000
0000
0000
ENDCHAR
STARTCHAR igrave
ENCODING 236
SWIDTH 375 0
DWIDTH 12 0
BBX 12 30 0 -5
BITMAP
0000
0000
0000
0000
0000
0000
3000
3800
1C00
0600
0000
0000
1E00
0600
0600
0600
0600
0600
0600
0600
0600
0600
0600
0600
1F80
0000
0000
0000
0000
0000
ENDCHAR
STARTCHAR iacute
ENCODING 237
SWIDTH 375 0
DWIDTH 12 0
BBX 12 30 0 -5
BITMAP
0000
0000
0000
0000
0000
0000
0180
0380
0700
0C00
0000
0000
1E00
0600
0600
0600
0600
0600
0600
0600
0600
0600
0600
0600
1F80
0000
0000
0000
0000
0000
ENDCHAR
STARTCHAR icircumflex
ENCODING 238
SWIDTH 375 0
DWIDTH 12 0
BBX 12 30 0 -5
BITMAP
0000
0000
0000
0000
0000
0000
0400
0E00
1B00
3180
0000
0000
1E00
0600
0600
0600
0600
0600
0600
0600
0600
0600
0600
0600
1F80
0000
0000
0000
0000
0000
ENDCHAR
STARTCHAR idieresis
ENCODING 239
SWIDTH 375 0
DWIDTH 12 0
BBX 12 30 0 -5
BITMAP
0000
0000
0000
0000
0000
0000
1080
39C0
39C0
1080
0000
0000
1E00
0600
0600
0600
0600
0600
0600
0600
0600
0600
0600
0600
1F80
0000
0000
0000
0000
0000
ENDCHAR
STARTCHAR ntilde
ENCODING 241
SWIDTH 375 0
DWIDTH 12 0
BBX 12 30 0 -5
BITMAP
0000
0000
0000
0000
0000
0000
3C40
4E40
4780
0000
0000
0000
E700
6D80
78C0
70C0
60C0
60C0
60C0
60C0
60C0
60C0
60C0
60C0
F1E0
0000
0000
0000
0000
0000
ENDCHAR
STARTCHAR ograve
ENCODING 242
SWIDTH 375 0
DWIDTH 12 0
BBX 12 30 0 -5
BITMAP
0000
0000
0000
0000
0000
0000
3000
3800
1C00
0600
0000
0000
1F00
3180
60C0
60C0
C060
C060
C060
C060
C060
60C0
60C0
3180
1F00
0000
0000
0000
0000
0000
ENDCHAR
STARTCHAR oacute
ENCODING 243
SWIDTH 375 0
DWIDTH 12 0
BBX 12 30 0 -5
BITMAP
0000
0000
0000
0000
0000
0000
0180
0380
0700
0C00
0000
0000
1F00
3180
60C0
60C0
C060
C060
C060
C060
C060
60C0
60C0
3180
1F00
0000
0000
0000
0000
0000
ENDCHAR
STARTCHAR ocircumflex
ENCODING 244
SWIDTH 375 0
DWIDTH 12 0
BBX 12 30 0 -5
BITMAP
0000
0000
0000
0000
0000
0000
0400
0E00
1B00
3180
0000
0000
1F00
3180
60C0
60C0
C060
C060
C060
C060
C060
60C0
60C0
3180
1F00
0000
0000
0000
0000
0000
ENDCHAR
STARTCHAR odieresis
ENCODING 246
SWIDTH 375 0
DWIDTH 12 0
BBX 12 30 0 -5
BITMAP
0000
0000
0000
0000
0000
0000
2100
7380
7380
2100
0000
0000
1F00
3180
60C0
60C0
C060
C060
C060
C060
C060
60C0
60C0
3180
1F00
0000
0000
0000
0000
0000
ENDCHAR
STARTCHAR divide
ENCODING 247
SWIDTH 375 0
DWIDTH 12 0
BBX 12 30 0 -5
BITMAP
0000
0000
0000
0000
0000
0000
0000
0000
0600
0F00
0F00
0600
0000
0000
7FE0
7FE0
0000
0000
0600
0F00
0F00
0600
0000
0000
0000
0000
0000
0000
0000
0000
ENDCHAR
STARTCHAR ugrave
ENCODING 249
SWIDTH 375 0
DWIDTH 12 0
BBX 12 30 0 -5
BITMAP
0000
0000
0000
0000
0000
0000
3000
3800
1C00
0600
0000
0000
E1C0
60C0
60C0
60C0
60C0
60C0
60C0
60C0
60C0
61C0
63C0
36C0
1CE0
0000
0000
0000
0000
0000
ENDCHAR
STARTCHAR uacute
ENCODING 250
SWIDTH 375 0
DWIDTH 12 0
BBX 12 30 0 -5
BITMAP
0000
0000
0000
0000
0000
0000
0180
0380
0700
0C00
0000
0000
E1C0
60C0
60C0
60C0
60C0
60C0
60C0
60C0
60C0
61C0
63C0
36C0
1CE0
0000
0000
0000
0000
0000
ENDCHAR
STARTCHAR ucircumflex
ENCODING 251
SWIDTH 375 0
DWIDTH 12 0
BBX 12 30 0 -5
BITMAP
0000
0000
0000
0000
0000
0000
0400
0E00
1B00
3180
0000
0000
E1C0
60C0
60C0
60C0
60C0
60C0
60C0
60C0
60C0
61C0
63C0
36C0
1CE0
0000
0000
0000
0000
0000
ENDCHAR
STARTCHAR udieresis
ENCODING 252
SWIDTH 375 0
DWIDTH 12 0
BBX 12 30 0 -5
BITMAP
0000
0000
0000
0000
0000
0000
2100
7380
7380
2100
0000
0000
E1C0
60C0
60C0
60C0
60C0
60C0
60C0
60C0
60C0
61C0
63C0
36C0
1CE0
0000
0000
0000
0000
0000
ENDCHAR
STARTCHAR ydieresis
ENCODING 255
SWIDTH 375 0
DWIDTH 12 0
BBX 12 30 0 -5
BITMAP
0000
0000
0000
0000
0000
0000
1080
39C0
39C0
1080
0000
0000
F1E0
60C0
30C0
3180
1980
1980
0F00
0F00
0700
0600
0600
0600
CC00
CC00
7800
0000
0000
0000
ENDCHAR
STARTCHAR florin
ENCODING 402
SWIDTH 375 0
DWIDTH 12 0
BBX 12 30 0 -5
BITMAP
0000
0000
0000
0000
0000
01C0
0360
0660
0600
0600
0600
3FC0
0600
0600
0600
0600
0600
0600
0600
0600
0600
0600
0600
6600
6C00
3800
0000
0000
0000
0000
ENDCHAR
STARTCHAR Gamma
ENCODING 915
SWIDTH 375 0
DWIDTH 12 0
BBX 12 30 0 -5
BITMAP
0000
0000
0000
0000
0000
FFE0
60E0
6060
6020
6020
6000
6000
6000
6000
6000
6000
6000
6000
6000
6000
6000
6000
6000
6000
F000
0000
0000
0000
0000
0000
ENDCHAR
STARTCHAR Theta
ENCODING 920
SWIDTH 375 0
DWIDTH 12 0
BBX 12 30 0 -5
BITMAP
0000
0000
0000
0000
0000
1F00
3180
60C0
C060
C060
C060
C060
C060
D160
DF60
DF60
D160
C060
C060
C060
C060
C060
60C0
3180
1F00
0000
0000
0000
0000
0000
ENDCHAR
STARTCHAR Sigma
ENCODING 931
SWIDTH 375 0
DWIDTH 12 0
BBX 12 30 0 -5
BITMAP
0000
0000
0000
0000
0000
FFE0
C0E0
C060
6020
6020
3000
1800
0C00
0600
0300
0600
0C00
1800
3000
6020
6020
C060
C0E0
FFE0
FFE0
0000
0000
0000
0000
0000
ENDCHAR
STARTCHAR Phi
ENCODING 934
SWIDTH 375 0
DWIDTH 12 0
BBX 12 30 0 -5
BITMAP
0000
0000
0000
0000
0000
3FC0
0600
0600
0600
1F80
36C0
6660
6660
6660
6660
6660
6660
6660
6660
36C0
1F80
0600
0600
0600
3FC0
0000
0000
0000
0000
0000
ENDCHAR
STARTCHAR uni03A9
ENCODING 937
SWIDTH 375 0
DWIDTH 12 0
BBX 12 30 0 -5
BITMAP
0000
0000
0000
0000
0000
1F00
3180
60C0
60C0
C060
C060
C060
C060
C060
C060
C060
C060
60C0
60C0
3180
1100
1100
9120
F1E0
F1E0
0000
0000
0000
0000
0000
ENDCHAR
STARTCHAR alpha
ENCODING 945
SWIDTH 375 0
DWIDTH 12 0
BBX 12 30 0 -5
BITMAP
0000
0000
0000
0000
0000
0000
0000
0000
0000
0000
0000
0000
1C80
3380
6180
6180
C180
C180
C180
C180
C180
6180
6180
33A0
1CC0
0000
0000
0000
0000
0000
ENDCHAR
STARTCHAR delta
ENCODING 948
SWIDTH 375 0
DWIDTH 12 0
BBX 12 30 0 -5
BITMAP
0000
0000
0000
0000
0000
0780
0CC0
18E0
18E0
18C0
0C00
0600
1F00
3180
60C0
60C0
C060
C060
C060
C060
C060
60C0
60C0
3180
1F00
0000
0000
0000
0000
0000
ENDCHAR
STARTCHAR epsilon
ENCODING 949
SWIDTH 375 0
DWIDTH 12 0
BBX 12 30 0 -5
BITMAP
0000
0000
0000
0000
0000
0000
0000
0FE0
3800
6000
C000
C000
C000
C000
FFE0
C000
C000
C000
C000
C000
6000
3800
0FE0
0000
0000
0000
0000
0000
0000
0000
ENDCHAR
STARTCHAR pi
ENCODING 960
SWIDTH 375 0
DWIDTH 12 0
BBX 12 30 0 -5
BITMAP
0000
0000
0000
0000
0000
0000
0000
0000
0000
0000
0000
0020
7FE0
FFE0
9980
1980
1980
1980
1980
1980
1980
1980
D980
D9A0
70E0
0000
0000
0000
0000
0000
ENDCHAR
STARTCHAR sigma
ENCODING 963
SWIDTH 375 0
DWIDTH 12 0
BBX 12 30 0 -5
BITMAP
0000
0000
0000
0000
0000
0000
0000
0000
0000
0000
0000
0020
07E0
1FE0
3300
6180
6180
C0C0
C0C0
C0C0
C0C0
6180
6180
3300
1E00
0000
0000
0000
0000
0000
ENDCHAR
STARTCHAR tau
ENCODING 964
SWIDTH 375 0
DWIDTH 12 0
BBX 12 30 0 -5
BITMAP
0000
0000
0000
0000
0000
0000
0000
0000
0000
0000
0000
0020
7FE0
FFE0
8C00
0C00
0C00
0C00
0C00
0C00
0C00
0C00
0D80
0D80
0700
0000
0000
0000
0000
0000
ENDCHAR
STARTCHAR phi
ENCODING 966
SWIDTH 375 0
DWIDTH 12 0
BBX 12 30 0 -5
BITMAP
0000
0000
0000
0000
0000
0000
0000
0100
0100
1F00
3380
62C0
62C0
C660
C460
C460
C460
CC60
68C0
68C0
3980
1F00
1000
1000
0000
0000
0000
0000
0000
0000
ENDCHAR
STARTCHAR bullet
ENCODING 8226
SWIDTH 375 0
DWIDTH 12 0
BBX 12 30 0 -5
BITMAP
0000
0000
0000
0000
0000
0000
0000
0000
0000
0000
0000
0F00
1F80
3FC0
3FC0
3FC0
3FC0
1F80
0F00
0000
0000
0000
0000
0000
0000
0000
0000
0000
0000
0000
ENDCHAR
STARTCHAR exclamdbl
ENCODING 8252
SWIDTH 375 0
DWIDTH 12 0
BBX 12 30 0 -5
BITMAP
0000
0000
0000
0000
1080
39C0
39C0
39C0
39C0
39C0
39C0
39C0
39C0
1080
1080
1080
1080
1080
1080
1080
0000
0000
1080
39C0
39C0
1080
0000
0000
0000
0000
ENDCHAR
STARTCHAR uni207F
ENCODING 8319
SWIDTH 375 0
DWIDTH 12 0
BBX 12 30 0 -5
BITMAP
0000
0000
0000
0000
7700
3B80
3180
3180
3180
3180
3180
3180
3180
3180
7BC0
0000
0000
0000
0000
0000
0000
0000
0000
0000
0000
0000
0000
0000
0000
0000
ENDCHAR
STARTCHAR peseta
ENCODING 8359
SWIDTH 375 0
DWIDTH 12 0
BBX 12 30 0 -5
BITMAP
0000
0000
0000
0000
0000
FE00
6380
60C0
60C0
6060
6060
6060
60C0
60C0
6380
7E00
6000
6100
6300
6300
6FE0
6300
6300
6360
F360
01C0
0000
0000
0000
0000
ENDCHAR
STARTCHAR arrowleft
ENCODING 8592
SWIDTH 375 0
DWIDTH 12 0
BBX 12 30 0 -5
BITMAP
0000
0000
0000
0000
0000
0000
0000
0000
0000
0000
0000
1000
3000
6000
FFF0
FFF0
6000
3000
1000
0000
0000
0000
0000
0000
0000
0000
0000
0000
0000
0000
ENDCHAR
STARTCHAR arrowup
ENCODING 8593
SWIDTH 375 0
DWIDTH 12 0
BBX 12 30 0 -5
BITMAP
0000
0000
0000
0000
0000
0000
0600
0F00
1F80
36C0
0600
0600
0600
0600
0600
0600
0600
0600
0600
0600
0600
0600
0600
0600
0000
0000
0000
0000
0000
0000
ENDCHAR
STARTCHAR arrowright
ENCODING 8594
SWIDTH 375 0
DWIDTH 12 0
BBX 12 30 0 -5
BITMAP
0000
0000
0000
0000
0000
0000
0000
0000
0000
0000
0000
0080
00C0
0060
FFF0
FFF0
0060
00C0
0080
0000
0000
0000
0000
0000
0000
0000
0000
0000
0000
0000
ENDCHAR
STARTCHAR arrowdown
ENCODING 8595
SWIDTH 375 0
DWIDTH 12 0
BBX 12 30 0 -5
BITMAP
0000
0000
0000
0000
0000
0000
0600
0600
0600
0600
0600
0600
0600
0600
0600
0600
0600
0600
0600
0600
36C0
1F80
0F00
0600
0000
0000
0000
0000
0000
0000
ENDCHAR
STARTCHAR arrowboth
ENCODING 8596
SWIDTH 375 0
DWIDTH 12 0
BBX 12 30 0 -5
BITMAP
0000
0000
0000
0000
0000
0000
0000
0000
0000
0000
0000
1080
30C0
6060
FFF0
FFF0
6060
30C0
1080
0000
0000
0000
0000
0000
0000
0000
0000
0000
0000
0000
ENDCHAR
STARTCHAR arrowupdn
ENCODING 8597
SWIDTH 375 0
DWIDTH 12 0
BBX 12 30 0 -5
BITMAP
0000
0000
0000
0000
0000
0000
0600
0F00
1F80
36C0
0600
0600
0600
0600
0600
0600
0600
0600
0600
0600
36C0
1F80
0F00
0600
0000
0000
0000
0000
0000
0000
ENDCHAR
STARTCHAR arrowupdnbse
ENCODING 8616
SWIDTH 375 0
DWIDTH 12 0
BBX 12 30 0 -5
BITMAP
0000
0000
0000
0000
0000
0000
0600
0F00
1F80
36C0
0600
0600
0600
0600
0600
0600
0600
0600
36C0
1F80
0F00
0600
0000
3FC0
3FC0
0000
0000
0000
0000
0000
ENDCHAR
STARTCHAR uni2219
ENCODING 8729
SWIDTH 375 0
DWIDTH 12 0
BBX 12 30 0 -5
BITMAP
0000
0000
0000
0000
0000
0000
0000
0000
0000
0000
0000
0000
0600
0F00
1F80
1F80
0F00
0600
0000
0000
0000
0000
0000
0000
0000
0000
0000
0000
0000
0000
ENDCHAR
STARTCHAR radical
ENCODING 8730
SWIDTH 375 0
DWIDTH 12 0
BBX 12 30 0 -5
BITMAP
0000
0000
0000
0000
00F0
00C0
00C0
00C0
00C0
0180
0180
0180
0180
0180
2180
6300
F300
B300
3300
1B00
1B00
0B00
0F00
0600
0600
0200
0000
0000
0000
0000
ENDCHAR
STARTCHAR infinity
ENCODING 8734
SWIDTH 375 0
DWIDTH 12 0
BBX 12 30 0 -5
BITMAP
0000
0000
0000
0000
0000
0000
0000
0000
0000
0000
0000
38C0
6D60
C630
C630
C630
C630
C630
6B60
31C0
0000
0000
0000
0000
0000
0000
0000
0000
0000
0000
ENDCHAR
STARTCHAR orthogonal
ENCODING 8735
SWIDTH 375 0
DWIDTH 12 0
BBX 12 30 0 -5
BITMAP
0000
0000
0000
0000
0000
0000
0000
0000
0000
0000
4000
4000
4000
4000
4000
4000
4000
4000
4000
7FE0
0000
0000
0000
0000
0000
0000
0000
0000
0000
0000
ENDCHAR
STARTCHAR intersection
ENCODING 8745
SWIDTH 375 0
DWIDTH 12 0
BBX 12 30 0 -5
BITMAP
0000
0000
0000
0000
0000
0F00
1980
30C0
30C0
6060
6060
6060
6060
6060
6060
6060
6060
6060
6060
6060
6060
6060
6060
6060
6060
0000
0000
0000
0000
0000
ENDCHAR
STARTCHAR approxequal
ENCODING 8776
SWIDTH 375 0
DWIDTH 12 0
BBX 12 30 0 -5
BITMAP
0000
0000
0000
0000
0000
0000
0000
0000
0000
1800
2C00
4620
4620
0340
0180
1800
2C00
4620
4620
0340
0180
0000
0000
0000
0000
0000
0000
0000
0000
0000
ENDCHAR
STARTCHAR equivalence
ENCODING 8801
SWIDTH 375 0
DWIDTH 12 0
BBX 12 30 0 -5
BITMAP
0000
0000
0000
0000
0000
0000
0000
0000
0000
0000
7FE0
7FE0
0000
0000
7FE0
7FE0
0000
0000
7FE0
7FE0
0000
0000
0000
0000
0000
0000
0000
0000
0000
0000
ENDCHAR
STARTCHAR lessequal
ENCODING 8804
SWIDTH 375 0
DWIDTH 12 0
BBX 12 30 0 -5
BITMAP
0000
0000
0000
0000
0000
0000
00C0
0180
0300
0600
0C00
1800
3000
6000
3000
1800
0C00
0600
0300
0180
00C0
0000
0000
7FE0
0000
0000
0000
0000
0000
0000
ENDCHAR
STARTCHAR greaterequal
ENCODING 8805
SWIDTH 375 0
DWIDTH 12 0
BBX 12 30 0 -5
BITMAP
0000
0000
0000
0000
0000
0000
3000
1800
0C00
0600
0300
0180
00C0
0060
00C0
0180
0300
0600
0C00
1800
3000
0000
0000
7FE0
0000
0000
0000
0000
0000
0000
ENDCHAR
STARTCHAR house
ENCODING 8962
SWIDTH 375 0
DWIDTH 12 0
BBX 12 30 0 -5
BITMAP
0000
0000
0000
0000
0000
0000
0000
0000
0000
0400
0400
0E00
0A00
1B00
1100
3180
2080
60C0
4040
4040
7FC0
0000
0000
0000
0000
0000
0000
0000
0000
0000
ENDCHAR
STARTCHAR revlogicalnot
ENCODING 8976
SWIDTH 375 0
DWIDTH 12 0
BBX 12 30 0 -5
BITMAP
0000
0000
0000
0000
0000
0000
0000
0000
0000
0000
0000
0000
7FE0
4000
4000
4000
4000
4000
4000
4000
0000
0000
0000
0000
0000
0000
0000
0000
0000
0000
ENDCHAR
STARTCHAR integraltp
ENCODING 8992
SWIDTH 375 0
DWIDTH 12 0
BBX 12 30 0 -5
BITMAP
0000
0000
0000
01C0
0360
0270
0670
0620
0600
0600
0600
0600
0600
0600
0600
0600
0600
0600
0600
0600
0600
0600
0600
0600
0600
0600
0600
0600
0600
0600
ENDCHAR
STARTCHAR integralbt
ENCODING 8993
SWIDTH 375 0
DWIDTH 12 0
BBX 12 30 0 -5
BITMAP
0600
0600
0600
0600
0600
0600
0600
0600
0600
0600
0600
0600
0600
0600
0600
0600
0600
0600
0600
0600
0600
0600
4600
E600
E400
6C00
3800
0000
0000
0000
ENDCHAR
STARTCHAR SF100000
ENCODING 9472
SWIDTH 375 0
DWIDTH 12 0
BBX 12 30 0 -5
BITMAP
0000
0000
0000
0000
0000
0000
0000
0000
0000
0000
0000
0000
0000
0000
0000
FFF0
0000
0000
0000
0000
0000
0000
0000
0000
0000
0000
0000
0000
0000
0000
ENDCHAR
STARTCHAR SF110000
ENCODING 9474
SWIDTH 375 0
DWIDTH 12 0
BBX 12 30 0 -5
BITMAP
0400
0400
0400
0400
0400
0400
0400
0400
0400
0400
0400
0400
0400
0400
0400
0400
0400
0400
0400
0400
0400
0400
0400
0400
0400
0400
0400
0400
0400
0400
ENDCHAR
STARTCHAR SF010000
ENCODING 9484
SWIDTH 375 0
DWIDTH 12 0
BBX 12 30 0 -5
BITMAP
0000
0000
0000
0000
0000
0000
0000
0000
0000
0000
0000
0000
0000
0000
0000
07F0
0400
0400
0400
0400
0400
0400
0400
0400
0400
0400
0400
0400
0400
0400
ENDCHAR
STARTCHAR SF030000
ENCODING 9488
SWIDTH 375 0
DWIDTH 12 0
BBX 12 30 0 -5
BITMAP
0000
0000
0000
0000
0000
0000
0000
0000
0000
0000
0000
0000
0000
0000
0000
FC00
0400
0400
0400
0400
0400
0400
0400
0400
0400
0400
0400
0400
0400
0400
ENDCHAR
STARTCHAR SF020000
ENCODING 9492
SWIDTH 375 0
DWIDTH 12 0
BBX 12 30 0 -5
BITMAP
0400
0400
0400
0400
0400
0400
0400
0400
0400
0400
0400
0400
0400
0400
0400
07F0
0000
0000
0000
0000
0000
0000
0000
0000
0000
0000
0000
0000
0000
0000
ENDCHAR
STARTCHAR SF040000
ENCODING 9496
SWIDTH 375 0
DWIDTH 12 0
BBX 12 30 0 -5
BITMAP
0400
0400
0400
0400
0400
0400
0400
0400
0400
0400
0400
0400
0400
0400
0400
FC00
0000
0000
0000
0000
0000
0000
0000
0000
0000
0000
0000
0000
0000
0000
ENDCHAR
STARTCHAR SF080000
ENCODING 9500
SWIDTH 375 0
DWIDTH 12 0
BBX 12 30 0 -5
BITMAP
0400
0400
0400
0400
0400
0400
0400
0400
0400
0400
0400
0400
0400
0400
0400
07F0
0400
0400
0400
0400
0400
0400
0400
0400
0400
0400
0400
0400
0400
0400
ENDCHAR
STARTCHAR SF090000
ENCODING 9508
SWIDTH 375 0
DWIDTH 12 0
BBX 12 30 0 -5
BITMAP
0400
0400
0400
0400
0400
0400
0400
0400
0400
0400
0400
0400
0400
0400
0400
FC00
0400
0400
0400
0400
0400
0400
0400
0400
0400
0400
0400
0400
0400
0400
ENDCHAR
STARTCHAR SF060000
ENCODING 9516
SWIDTH 375 0
DWIDTH 12 0
BBX 12 30 0 -5
BITMAP
0000
0000
0000
0000
0000
0000
0000
0000
0000
0000
0000
0000
0000
0000
0000
FFF0
0400
0400
0400
0400
0400
0400
0400
0400
0400
0400
0400
0400
0400
0400
ENDCHAR
STARTCHAR SF070000
ENCODING 9524
SWIDTH 375 0
DWIDTH 12 0
BBX 12 30 0 -5
BITMAP
0400
0400
0400
0400
0400
0400
0400
0400
0400
0400
0400
0400
0400
0400
0400
FFF0
0000
0000
0000
0000
0000
0000
0000
0000
0000
0000
0000
0000
0000
0000
ENDCHAR
STARTCHAR SF050000
ENCODING 9532
SWIDTH 375 0
DWIDTH 12 0
BBX 12 30 0 -5
BITMAP
0400
0400
0400
0400
0400
0400
0400
0400
0400
0400
0400
0400
0400
0400
0400
FFF0
0400
0400
0400
0400
0400
0400
0400
0400
0400
0400
0400
0400
0400
0400
ENDCHAR
STARTCHAR SF430000
ENCODING 9552
SWIDTH 375 0
DWIDTH 12 0
BBX 12 30 0 -5
BITMAP
0000
0000
0000
0000
0000
0000
0000
0000
0000
0000
0000
0000
0000
0000
FFF0
0000
FFF0
0000
0000
0000
0000
0000
0000
0000
0000
0000
0000
0000
0000
0000
ENDCHAR
STARTCHAR SF240000
ENCODING 9553
SWIDTH 375 0
DWIDTH 12 0
BBX 12 30 0 -5
BITMAP
0A00
0A00
0A00
0A00
0A00
0A00
0A00
0A00
0A00
0A00
0A00
0A00
0A00
0A00
0A00
0A00
0A00
0A00
0A00
0A00
0A00
0A00
0A00
0A00
0A00
0A00
0A00
0A00
0A00
0A00
ENDCHAR
STARTCHAR SF510000
ENCODING 9554
SWIDTH 375 0
DWIDTH 12 0
BBX 12 30 0 -5
BITMAP
0000
0000
0000
0000
0000
0000
0000
0000
0000
0000
0000
0000
0000
0000
07F0
0400
07F0
0400
0400
0400
0400
0400
0400
0400
0400
0400
0400
0400
0400
0400
ENDCHAR
STARTCHAR SF520000
ENCODING 9555
SWIDTH 375 0
DWIDTH 12 0
BBX 12 30 0 -5
BITMAP
0000
0000
0000
0000
0000
0000
0000
0000
0000
0000
0000
0000
0000
0000
0000
0FF0
0A00
0A00
0A00
0A00
0A00
0A00
0A00
0A00
0A00
0A00
0A00
0A00
0A00
0A00
ENDCHAR
STARTCHAR SF390000
ENCODING 9556
SWIDTH 375 0
DWIDTH 12 0
BBX 12 30 0 -5
BITMAP
0000
0000
0000
0000
0000
0000
0000
0000
0000
0000
0000
0000
0000
0000
0FF0
0800
0BF0
0A00
0A00
0A00
0A00
0A00
0A00
0A00
0A00
0A00
0A00
0A00
0A00
0A00
ENDCHAR
STARTCHAR SF220000
ENCODING 9557
SWIDTH 375 0
DWIDTH 12 0
BBX 12 30 0 -5
BITMAP
0000
0000
0000
0000
0000
0000
0000
0000
0000
0000
0000
0000
0000
0000
FC00
0400
FC00
0400
0400
0400
0400
0400
0400
0400
0400
0400
0400
0400
0400
0400
ENDCHAR
STARTCHAR SF210000
ENCODING 9558
SWIDTH 375 0
DWIDTH 12 0
BBX 12 30 0 -5
BITMAP
0000
0000
0000
0000
0000
0000
0000
0000
0000
0000
0000
0000
0000
0000
0000
FE00
0A00
0A00
0A00
0A00
0A00
0A00
0A00
0A00
0A00
0A00
0A00
0A00
0A00
0A00
ENDCHAR
STARTCHAR SF250000
ENCODING 9559
SWIDTH 375 0
DWIDTH 12 0
BBX 12 30 0 -5
BITMAP
0000
0000
0000
0000
0000
0000
0000
0000
0000
0000
0000
0000
0000
0000
FE00
0200
FA00
0A00
0A00
0A00
0A00
0A00
0A00
0A00
0A00
0A00
0A00
0A00
0A00
0A00
ENDCHAR
STARTCHAR SF500000
ENCODING 9560
SWIDTH 375 0
DWIDTH 12 0
BBX 12 30 0 -5
BITMAP
0400
0400
0400
0400
0400
0400
0400
0400
0400
0400
0400
0400
0400
0400
07F0
0400
07F0
0000
0000
0000
0000
0000
0000
0000
0000
0000
0000
0000
0000
0000
ENDCHAR
STARTCHAR SF490000
ENCODING 9561
SWIDTH 375 0
DWIDTH 12 0
BBX 12 30 0 -5
BITMAP
0A00
0A00
0A00
0A00
0A00
0A00
0A00
0A00
0A00
0A00
0A00
0A00
0A00
0A00
0A00
0FF0
0000
0000
0000
0000
0000
0000
0000
0000
0000
0000
0000
0000
0000
0000
ENDCHAR
STARTCHAR SF380000
ENCODING 9562
SWIDTH 375 0
DWIDTH 12 0
BBX 12 30 0 -5
BITMAP
0A00
0A00
0A00
0A00
0A00
0A00
0A00
0A00
0A00
0A00
0A00
0A00
0A00
0A00
0BF0
0800
0FF0
0000
0000
0000
0000
0000
0000
0000
0000
0000
0000
0000
0000
0000
ENDCHAR
STARTCHAR SF280000
ENCODING 9563
SWIDTH 375 0
DWIDTH 12 0
BBX 12 30 0 -5
BITMAP
0400
0400
0400
0400
0400
0400
0400
0400
0400
0400
0400
0400
0400
0400
FC00
0400
FC00
0000
0000
0000
0000
0000
0000
0000
0000
0000
0000
0000
0000
0000
ENDCHAR
STARTCHAR SF270000
ENCODING 9564
SWIDTH 375 0
DWIDTH 12 0
BBX 12 30 0 -5
BITMAP
0A00
0A00
0A00
0A00
0A00
0A00
0A00
0A00
0A00
0A00
0A00
0A00
0A00
0A00
0A00
FE00
0000
0000
0000
0000
0000
0000
0000
0000
0000
0000
0000
0000
0000
0000
ENDCHAR
STARTCHAR SF260000
ENCODING 9565
SWIDTH 375 0
DWIDTH 12 0
BBX 12 30 0 -5
BITMAP
0A00
0A00
0A00
0A00
0A00
0A00
0A00
0A00
0A00
0A00
0A00
0A00
0A00
0A00
FA00
0200
FE00
0000
0000
0000
0000
0000
0000
0000
0000
0000
0000
0000
0000
0000
ENDCHAR
STARTCHAR SF360000
ENCODING 9566
SWIDTH 375 0
DWIDTH 12 0
BBX 12 30 0 -5
BITMAP
0400
0400
0400
0400
0400
0400
0400
0400
0400
0400
0400
0400
0400
0400
07F0
0400
07F0
0400
0400
0400
0400
0400
0400
0400
0400
0400
0400
0400
0400
0400
ENDCHAR
STARTCHAR SF370000
ENCODING 9567
SWIDTH 375 0
DWIDTH 12 0
BBX 12 30 0 -5
BITMAP
0A00
0A00
0A00
0A00
0A00
0A00
0A00
0A00
0A00
0A00
0A00
0A00
0A00
0A00
0A00
0BF0
0A00
0A00
0A00
0A00
0A00
0A00
0A00
0A00
0A00
0A00
0A00
0A00
0A00
0A00
ENDCHAR
STARTCHAR SF420000
ENCODING 9568
SWIDTH 375 0
DWIDTH 12 0
BBX 12 30 0 -5
BITMAP
0A00
0A00
0A00
0A00
0A00
0A00
0A00
0A00
0A00
0A00
0A00
0A00
0A00
0A00
0BF0
0800
0BF0
0A00
0A00
0A00
0A00
0A00
0A00
0A00
0A00
0A00
0A00
0A00
0A00
0A00
ENDCHAR
STARTCHAR SF190000
ENCODING 9569
SWIDTH 375 0
DWIDTH 12 0
BBX 12 30 0 -5
BITMAP
0400
0400
0400
0400
0400
0400
0400
0400
0400
0400
0400
0400
0400
0400
FC00
0400
FC00
0400
0400
0400
0400
0400
0400
0400
0400
0400
0400
0400
0400
0400
ENDCHAR
STARTCHAR SF200000
ENCODING 9570
SWIDTH 375 0
DWIDTH 12 0
BBX 12 30 0 -5
BITMAP
0A00
0A00
0A00
0A00
0A00
0A00
0A00
0A00
0A00
0A00
0A00
0A00
0A00
0A00
0A00
FA00
0A00
0A00
0A00
0A00
0A00
0A00
0A00
0A00
0A00
0A00
0A00
0A00
0A00
0A00
ENDCHAR
STARTCHAR SF230000
ENCODING 9571
SWIDTH 375 0
DWIDTH 12 0
BBX 12 30 0 -5
BITMAP
0A00
0A00
0A00
0A00
0A00
0A00
0A00
0A00
0A00
0A00
0A00
0A00
0A00
0A00
FA00
0200
FA00
0A00
0A00
0A00
0A00
0A00
0A00
0A00
0A00
0A00
0A00
0A00
0A00
0A00
ENDCHAR
STARTCHAR SF470000
ENCODING 9572
SWIDTH 375 0
DWIDTH 12 0
BBX 12 30 0 -5
BITMAP
0000
0000
0000
0000
0000
0000
0000
0000
0000
0000
0000
0000
0000
0000
FFF0
0000
FFF0
0400
0400
0400
0400
0400
0400
0400
0400
0400
0400
0400
0400
0400
ENDCHAR
STARTCHAR SF480000
ENCODING 9573
SWIDTH 375 0
DWIDTH 12 0
BBX 12 30 0 -5
BITMAP
0000
0000
0000
0000
0000
0000
0000
0000
0000
0000
0000
0000
0000
0000
0000
FFF0
0A00
0A00
0A00
0A00
0A00
0A00
0A00
0A00
0A00
0A00
0A00
0A00
0A00
0A00
ENDCHAR
STARTCHAR SF410000
ENCODING 9574
SWIDTH 375 0
DWIDTH 12 0
BBX 12 30 0 -5
BITMAP
0000
0000
0000
0000
0000
0000
0000
0000
0000
0000
0000
0000
0000
0000
FFF0
0000
FBF0
0A00
0A00
0A00
0A00
0A00
0A00
0A00
0A00
0A00
0A00
0A00
0A00
0A00
ENDCHAR
STARTCHAR SF450000
ENCODING 9575
SWIDTH 375 0
DWIDTH 12 0
BBX 12 30 0 -5
BITMAP
0400
0400
0400
0400
0400
0400
0400
0400
0400
0400
0400
0400
0400
0400
FFF0
0000
FFF0
0000
0000
0000
0000
0000
0000
0000
0000
0000
0000
0000
0000
0000
ENDCHAR
STARTCHAR SF460000
ENCODING 9576
SWIDTH 375 0
DWIDTH 12 0
BBX 12 30 0 -5
BITMAP
0A00
0A00
0A00
0A00
0A00
0A00
0A00
0A00
0A00
0A00
0A00
0A00
0A00
0A00
0A00
FFF0
0000
0000
0000
0000
0000
0000
0000
0000
0000
0000
0000
0000
0000
0000
ENDCHAR
STARTCHAR SF400000
ENCODING 9577
SWIDTH 375 0
DWIDTH 12 0
BBX 12 30 0 -5
BITMAP
0A00
0A00
0A00
0A00
0A00
0A00
0A00
0A00
0A00
0A00
0A00
0A00
0A00
0A00
FBF0
0000
FFF0
0000
0000
0000
0000
0000
0000
0000
0000
0000
0000
0000
0000
0000
ENDCHAR
STARTCHAR SF540000
ENCODING 9578
SWIDTH 375 0
DWIDTH 12 0
BBX 12 30 0 -5
BITMAP
0400
0400
0400
0400
0400
0400
0400
0400
0400
0400
0400
0400
0400
0400
FFF0
0000
FFF0
0400
0400
0400
0400
0400
0400
0400
0400
0400
0400
0400
0400
0400
ENDCHAR
STARTCHAR SF530000
ENCODING 9579
SWIDTH 375 0
DWIDTH 12 0
BBX 12 30 0 -5
BITMAP
0A00
0A00
0A00
0A00
0A00
0A00
0A00
0A00
0A00
0A00
0A00
0A00
0A00
0A00
0A00
FBF0
0A00
0A00
0A00
0A00
0A00
0A00
0A00
0A00
0A00
0A00
0A00
0A00
0A00
0A00
ENDCHAR
STARTCHAR SF440000
ENCODING 9580
SWIDTH 375 0
DWIDTH 12 0
BBX 12 30 0 -5
BITMAP
0A00
0A00
0A00
0A00
0A00
0A00
0A00
0A00
0A00
0A00
0A00
0A00
0A00
0A00
FBF0
0000
FBF0
0A00
0A00
0A00
0A00
0A00
0A00
0A00
0A00
0A00
0A00
0A00
0A00
0A00
ENDCHAR
STARTCHAR upblock
ENCODING 9600
SWIDTH 375 0
DWIDTH 12 0
BBX 12 30 0 -5
BITMAP
FFF0
FFF0
FFF0
FFF0
FFF0
FFF0
FFF0
FFF0
FFF0
FFF0
FFF0
FFF0
FFF0
FFF0
FFF0
0000
0000
0000
0000
0000
0000
0000
0000
0000
0000
0000
0000
0000
0000
0000
ENDCHAR
STARTCHAR dnblock
ENCODING 9604
SWIDTH 375 0
DWIDTH 12 0
BBX 12 30 0 -5
BITMAP
0000
0000
0000
0000
0000
0000
0000
0000
0000
0000
0000
0000
0000
0000
0000
FFF0
FFF0
FFF0
FFF0
FFF0
FFF0
FFF0
FFF0
FFF0
FFF0
FFF0
FFF0
FFF0
FFF0
FFF0
ENDCHAR
STARTCHAR block
ENCODING 9608
SWIDTH 375 0
DWIDTH 12 0
BBX 12 30 0 -5
BITMAP
FFF0
FFF0
FFF0
FFF0
FFF0
FFF0
FFF0
FFF0
FFF0
FFF0
FFF0
FFF0
FFF0
FFF0
FFF0
FFF0
FFF0
FFF0
FFF0
FFF0
FFF0
FFF0
FFF0
FFF0
FFF0
FFF0
FFF0
FFF0
FFF0
FFF0
ENDCHAR
STARTCHAR lfblock
ENCODING 9612
SWIDTH 375 0
DWIDTH 12 0
BBX 12 30 0 -5
BITMAP
FC00
FC00
FC00
FC00
FC00
FC00
FC00
FC00
FC00
FC00
FC00
FC00
FC00
FC00
FC00
FC00
FC00
FC00
FC00
FC00
FC00
FC00
FC00
FC00
FC00
FC00
FC00
FC00
FC00
FC00
ENDCHAR
STARTCHAR rtblock
ENCODING 9616
SWIDTH 375 0
DWIDTH 12 0
BBX 12 30 0 -5
BITMAP
03F0
03F0
03F0
03F0
03F0
03F0
03F0
03F0
03F0
03F0
03F0
03F0
03F0
03F0
03F0
03F0
03F0
03F0
03F0
03F0
03F0
03F0
03F0
03F0
03F0
03F0
03F0
03F0
03F0
03F0
ENDCHAR
STARTCHAR ltshade
ENCODING 9617
SWIDTH 375 0
DWIDTH 12 0
BBX 12 30 0 -5
BITMAP
2220
1110
8880
4440
2220
1110
8880
4440
2220
1110
8880
4440
2220
1110
8880
4440
2220
1110
8880
4440
2220
1110
8880
4440
2220
1110
8880
4440
2220
1110
ENDCHAR
STARTCHAR shade
ENCODING 9618
SWIDTH 375 0
DWIDTH 12 0
BBX 12 30 0 -5
BITMAP
5550
AAA0
5550
AAA0
5550
AAA0
5550
AAA0
5550
AAA0
5550
AAA0
5550
AAA0
5550
AAA0
5550
AAA0
5550
AAA0
5550
AAA0
5550
AAA0
5550
AAA0
5550
AAA0
5550
AAA0
ENDCHAR
STARTCHAR dkshade
ENCODING 9619
SWIDTH 375 0
DWIDTH 12 0
BBX 12 30 0 -5
BITMAP
EEE0
7770
BBB0
DDD0
EEE0
7770
BBB0
DDD0
EEE0
7770
BBB0
DDD0
EEE0
7770
BBB0
DDD0
EEE0
7770
BBB0
DDD0
EEE0
7770
BBB0
DDD0
EEE0
7770
BBB0
DDD0
EEE0
7770
ENDCHAR
STARTCHAR filledbox
ENCODING 9632
SWIDTH 375 0
DWIDTH 12 0
BBX 12 30 0 -5
BITMAP
0000
0000
0000
0000
0000
0000
0000
0000
0000
0000
3F80
3F80
3F80
3F80
3F80
3F80
3F80
3F80
3F80
3F80
3F80
0000
0000
0000
0000
0000
0000
0000
0000
0000
ENDCHAR
STARTCHAR filledrect
ENCODING 9644
SWIDTH 375 0
DWIDTH 12 0
BBX 12 30 0 -5
BITMAP
0000
0000
0000
0000
0000
0000
0000
0000
0000
0000
0000
0000
0000
0000
0000
7FE0
7FE0
7FE0
7FE0
7FE0
7FE0
7FE0
0000
0000
0000
0000
0000
0000
0000
0000
ENDCHAR
STARTCHAR triagup
ENCODING 9650
SWIDTH 375 0
DWIDTH 12 0
BBX 12 30 0 -5
BITMAP
0000
0000
0000
0000
0000
0000
0000
0000
0000
0000
0400
0E00
0E00
1F00
1F00
3F80
3F80
7FC0
7FC0
7FC0
0000
0000
0000
0000
0000
0000
0000
0000
0000
0000
ENDCHAR
STARTCHAR triagrt
ENCODING 9658
SWIDTH 375 0
DWIDTH 12 0
BBX 12 30 0 -5
BITMAP
0000
0000
0000
0000
0000
4000
6000
7000
7800
7C00
7E00
7F00
7F80
7FC0
7FE0
7FC0
7F80
7F00
7E00
7C00
7800
7000
6000
4000
0000
0000
0000
0000
0000
0000
ENDCHAR
STARTCHAR triagdn
ENCODING 9660
SWIDTH 375 0
DWIDTH 12 0
BBX 12 30 0 -5
BITMAP
0000
0000
0000
0000
0000
0000
0000
0000
0000
0000
7FC0
7FC0
7FC0
3F80
3F80
1F00
1F00
0E00
0E00
0400
0000
0000
0000
0000
0000
0000
0000
0000
0000
0000
ENDCHAR
STARTCHAR triaglf
ENCODING 9668
SWIDTH 375 0
DWIDTH 12 0
BBX 12 30 0 -5
BITMAP
0000
0000
0000
0000
0000
0020
0060
00E0
01E0
03E0
07E0
0FE0
1FE0
3FE0
7FE0
3FE0
1FE0
0FE0
07E0
03E0
01E0
00E0
0060
0020
0000
0000
0000
0000
0000
0000
ENDCHAR
STARTCHAR circle
ENCODING 9675
SWIDTH 375 0
DWIDTH 12 0
BBX 12 30 0 -5
BITMAP
0000
0000
0000
0000
0000
0000
0000
0000
0000
0000
0000
0F00
1080
2040
2040
2040
2040
1080
0F00
0000
0000
0000
0000
0000
0000
0000
0000
0000
0000
0000
ENDCHAR
STARTCHAR invbullet
ENCODING 9688
SWIDTH 375 0
DWIDTH 12 0
BBX 12 30 0 -5
BITMAP
0000
0000
0000
FFF0
FFF0
FFF0
FFF0
FFF0
FFF0
FFF0
FFF0
F0F0
E070
C030
C030
C030
C030
E070
F0F0
FFF0
FFF0
FFF0
FFF0
FFF0
FFF0
FFF0
FFF0
0000
0000
0000
ENDCHAR
STARTCHAR invcircle
ENCODING 9689
SWIDTH 375 0
DWIDTH 12 0
BBX 12 30 0 -5
BITMAP
0000
0000
0000
FFF0
FFF0
FFF0
FFF0
FFF0
FFF0
FFF0
FFF0
F0F0
EF70
DFB0
DFB0
DFB0
DFB0
EF70
F0F0
FFF0
FFF0
FFF0
FFF0
FFF0
FFF0
FFF0
FFF0
0000
0000
0000
ENDCHAR
STARTCHAR smileface
ENCODING 9786
SWIDTH 375 0
DWIDTH 12 0
BBX 12 30 0 -5
BITMAP
0000
0000
0000
0000
0000
0000
0000
0000
1F80
30C0
6060
4020
59A0
59A0
4020
50A0
59A0
4F20
6060
30C0
1F80
0000
0000
0000
0000
0000
0000
0000
0000
0000
ENDCHAR
STARTCHAR invsmileface
ENCODING 9787
SWIDTH 375 0
DWIDTH 12 0
BBX 12 30 0 -5
BITMAP
0000
0000
0000
0000
0000
0000
0000
0000
1F80
3FC0
7FE0
7FE0
6660
6660
7FE0
6F60
6660
70E0
7FE0
3FC0
1F80
0000
0000
0000
0000
0000
0000
0000
0000
0000
ENDCHAR
STARTCHAR sun
ENCODING 9788
SWIDTH 375 0
DWIDTH 12 0
BBX 12 30 0 -5
BITMAP
0000
0000
0000
0000
0000
0000
0000
0000
0000
0400
8420
C460
6EC0
3180
2080
E0E0
2080
3180
6EC0
C460
8420
0400
0000
0000
0000
0000
0000
0000
0000
0000
ENDCHAR
STARTCHAR female
ENCODING 9792
SWIDTH 375 0
DWIDTH 12 0
BBX 12 30 0 -5
BITMAP
0000
0000
0000
0000
0000
0000
0000
0F00
1980
30C0
30C0
6060
6060
6060
30C0
30C0
1980
0F00
0600
0600
1F80
1F80
0600
0600
0000
0000
0000
0000
0000
0000
ENDCHAR
STARTCHAR male
ENCODING 9794
SWIDTH 375 0
DWIDTH 12 0
BBX 12 30 0 -5
BITMAP
0000
0000
0000
0000
0000
0000
0000
03E0
00E0
00E0
01A0
01A0
0320
1F00
3300
6180
6180
6180
6180
6180
6180
6180
3300
1E00
0000
0000
0000
0000
0000
0000
ENDCHAR
STARTCHAR spade
ENCODING 9824
SWIDTH 375 0
DWIDTH 12 0
BBX 12 30 0 -5
BITMAP
0000
0000
0000
0000
0000
0000
0000
0000
0400
0E00
1F00
3F80
7FC0
7FC0
FFE0
FFE0
FFE0
75C0
0400
0E00
1F00
0000
0000
0000
0000
0000
0000
0000
0000
0000
ENDCHAR
STARTCHAR club
ENCODING 9827
SWIDTH 375 0
DWIDTH 12 0
BBX 12 30 0 -5
BITMAP
0000
0000
0000
0000
0000
0000
0000
0000
0E00
1F00
1F00
1F00
0E00
75C0
FFE0
FFE0
FFE0
75C0
0400
0E00
1F00
0000
0000
0000
0000
0000
0000
0000
0000
0000
ENDCHAR
STARTCHAR heart
ENCODING 9829
SWIDTH 375 0
DWIDTH 12 0
BBX 12 30 0 -5
BITMAP
0000
0000
0000
0000
0000
0000
0000
0000
0000
71C0
FBE0
FFE0
FFE0
FFE0
7FC0
7FC0
3F80
1F00
0E00
0400
0400
0000
0000
0000
0000
0000
0000
0000
0000
0000
ENDCHAR
STARTCHAR diamond
ENCODING 9830
SWIDTH 375 0
DWIDTH 12 0
BBX 12 30 0 -5
BITMAP
0000
0000
0000
0000
0000
0000
0000
0000
0400
0400
0E00
0E00
1F00
1F00
3F80
3F80
1F00
1F00
0E00
0E00
0400
0400
0000
0000
0000
0000
0000
0000
0000
0000
ENDCHAR
STARTCHAR musicalnote
ENCODING 9834
SWIDTH 375 0
DWIDTH 12 0
BBX 12 30 0 -5
BITMAP
0000
0000
0000
0000
0000
0400
0400
0600
0600
0700
0780
05C0
04C0
0460
0460
0420
0420
0420
0420
0440
1C00
3800
7800
7000
6000
0000
0000
0000
0000
0000
ENDCHAR
STARTCHAR musicalnotedbl
ENCODING 9835
SWIDTH 375 0
DWIDTH 12 0
BBX 12 30 0 -5
BITMAP
0000
0000
0000
0000
0000
0C00
0F80
0FE0
0BE0
0860
0820
0820
0820
0820
0820
0820
0820
0820
3820
7020
F0E0
E1C0
C3C0
0380
0300
0000
0000
0000
0000
0000
ENDCHAR
STARTCHAR uni3044
ENCODING 12356
SWIDTH 375 0
DWIDTH 12 0
BBX 12 30 0 -5
BITMAP
0000
0000
0000
0000
0000
0000
0000
0000
0000
0000
0000
0000
0000
0000
0000
0000
0000
0000
0000
0000
0000
0000
0000
0000
0000
0000
0000
0000
0000
0000
ENDCHAR
STARTCHAR uni3046
ENCODING 12358
SWIDTH 375 0
DWIDTH 12 0
BBX 12 30 0 -5
BITMAP
0000
0000
0000
0000
0000
0000
0000
0000
0000
0000
0000
0000
0000
0000
0000
0000
0000
0000
0000
0000
0000
0000
0000
0000
0000
0000
0000
0000
0000
0000
ENDCHAR
STARTCHAR uni304B
ENCODING 12363
SWIDTH 375 0
DWIDTH 12 0
BBX 12 30 0 -5
BITMAP
0000
0000
0000
0000
0000
0000
0000
0000
0000
0000
0000
0000
0000
0000
0000
0000
0000
0000
0000
0000
0000
0000
0000
0000
0000
0000
0000
0000
0000
0000
ENDCHAR
STARTCHAR uni3057
ENCODING 12375
SWIDTH 375 0
DWIDTH 12 0
BBX 12 30 0 -5
BITMAP
0000
0000
0000
0000
0000
0000
0000
0000
0000
0000
0000
0000
0000
0000
0000
0000
0000
0000
0000
0000
0000
0000
0000
0000
0000
0000
0000
0000
0000
0000
ENDCHAR
STARTCHAR uni306E
ENCODING 12398
SWIDTH 375 0
DWIDTH 12 0
BBX 12 30 0 -5
BITMAP
0000
0000
0000
0000
0000
0000
0000
0000
0000
0000
0000
0000
0000
0000
0000
0000
0000
0000
0000
0000
0000
0000
0000
0000
0000
0000
0000
0000
0000
0000
ENDCHAR
STARTCHAR uni3093
ENCODING 12435
SWIDTH 375 0
DWIDTH 12 0
BBX 12 30 0 -5
BITMAP
0000
0000
0000
0000
0000
0000
0000
0000
0000
0000
0000
0000
0000
0000
0000
0000
0000
0000
0000
0000
0000
0000
0000
0000
0000
0000
0000
0000
0000
0000
ENDCHAR
STARTCHAR .notdef
ENCODING -1
SWIDTH 375 0
DWIDTH 12 0
BBX 11 22 1 0
BITMAP
FFE0
8020
8020
8020
8020
8020
8020
8020
8020
8020
8020
8020
8020
8020
8020
8020
8020
8020
8020
8020
8020
FFE0
ENDCHAR
ENDFONT
