STARTFONT 2.1
FONT Canyon Racer Notify 8x16 mono-16px
SIZE 16 75 75
FONTBOUNDINGBOX 6 12 0 0
STARTPROPERTIES 5
PIXEL_SIZE 16
FONT_ASCENT 16
FONT_DESCENT 0
CHARSET_REGISTRY "ISO10646"
CHARSET_ENCODING "1"
ENDPROPERTIES
CHARS 73
STARTCHAR space
ENCODING 32
SWIDTH 438 0
DWIDTH 7 0
BBX 1 1 0 0
BITMAP
00
ENDCHAR
STARTCHAR exclam
ENCODING 33
SWIDTH 438 0
DWIDTH 7 0
BBX 2 11 1 1
BITMAP
80
C0
C0
C0
C0
C0
40
00
80
C0
40
ENDCHAR
STARTCHAR hyphen
ENCODING 45
SWIDTH 438 0
DWIDTH 7 0
BBX 4 2 1 5
BITMAP
E0
70
ENDCHAR
STARTCHAR period
ENCODING 46
SWIDTH 438 0
DWIDTH 7 0
BBX 2 3 1 1
BITMAP
80
C0
40
ENDCHAR
STARTCHAR slash
ENCODING 47
SWIDTH 438 0
DWIDTH 7 0
BBX 5 10 1 2
BITMAP
08
08
10
10
20
20
40
40
80
80
ENDCHAR
STARTCHAR zero
ENCODING 48
SWIDTH 438 0
DWIDTH 7 0
BBX 6 11 0 1
BITMAP
E0
D8
CC
CC
CC
EC
DC
CC
CC
6C
1C
ENDCHAR
STARTCHAR one
ENCODING 49
SWIDTH 438 0
DWIDTH 7 0
BBX 6 11 0 1
BITMAP
10
30
70
30
30
30
30
30
30
F0
1C
ENDCHAR
STARTCHAR two
ENCODING 50
SWIDTH 438 0
DWIDTH 7 0
BBX 6 11 0 1
BITMAP
70
D8
0C
0C
18
30
60
C0
C0
E0
1C
ENDCHAR
STARTCHAR three
ENCODING 51
SWIDTH 438 0
DWIDTH 7 0
BBX 6 11 0 1
BITMAP
C0
30
0C
0C
0C
6C
18
0C
CC
3C
0C
ENDCHAR
STARTCHAR four
ENCODING 52
SWIDTH 438 0
DWIDTH 7 0
BBX 6 11 0 1
BITMAP
80
C8
CC
CC
CC
6C
1C
0C
0C
0C
04
ENDCHAR
STARTCHAR five
ENCODING 53
SWIDTH 438 0
DWIDTH 7 0
BBX 6 11 0 1
BITMAP
C0
F0
CC
C0
E0
78
1C
0C
8C
D8
70
ENDCHAR
STARTCHAR six
ENCODING 54
SWIDTH 438 0
DWIDTH 7 0
BBX 6 11 0 1
BITMAP
60
D8
C4
C0
C0
E0
D8
CC
CC
6C
1C
ENDCHAR
STARTCHAR seven
ENCODING 55
SWIDTH 438 0
DWIDTH 7 0
BBX 6 11 0 1
BITMAP
C0
38
0C
0C
0C
18
18
18
18
18
08
ENDCHAR
STARTCHAR eight
ENCODING 56
SWIDTH 438 0
DWIDTH 7 0
BBX 6 11 0 1
BITMAP
E0
D8
CC
CC
6C
D8
CC
CC
6C
1C
0C
ENDCHAR
STARTCHAR nine
ENCODING 57
SWIDTH 438 0
DWIDTH 7 0
BBX 6 11 0 1
BITMAP
E0
D8
CC
CC
6C
1C
0C
0C
0C
0C
04
ENDCHAR
STARTCHAR colon
ENCODING 58
SWIDTH 438 0
DWIDTH 7 0
BBX 2 7 1 3
BITMAP
80
C0
40
00
80
C0
40
ENDCHAR
STARTCHAR question
ENCODING 63
SWIDTH 438 0
DWIDTH 7 0
BBX 6 11 0 1
BITMAP
78
CC
8C
18
30
30
10
00
20
30
10
ENDCHAR
STARTCHAR A
ENCODING 65
SWIDTH 438 0
DWIDTH 7 0
BBX 6 11 0 1
BITMAP
C0
E0
F0
D8
CC
CC
CC
FC
CC
4C
04
ENDCHAR
STARTCHAR B
ENCODING 66
SWIDTH 438 0
DWIDTH 7 0
BBX 6 11 0 1
BITMAP
C0
E0
F0
D8
CC
CC
F8
CC
CC
7C
1C
ENDCHAR
STARTCHAR C
ENCODING 67
SWIDTH 438 0
DWIDTH 7 0
BBX 6 11 0 1
BITMAP
C0
F0
CC
C0
C0
C0
C0
C0
C0
60
1C
ENDCHAR
STARTCHAR D
ENCODING 68
SWIDTH 438 0
DWIDTH 7 0
BBX 6 11 0 1
BITMAP
C0
E0
F0
D8
CC
CC
CC
CC
D8
F0
60
ENDCHAR
STARTCHAR E
ENCODING 69
SWIDTH 438 0
DWIDTH 7 0
BBX 6 11 0 1
BITMAP
C0
C0
F0
CC
C0
C0
F0
C0
C0
E0
1C
ENDCHAR
STARTCHAR F
ENCODING 70
SWIDTH 438 0
DWIDTH 7 0
BBX 6 11 0 1
BITMAP
C0
C0
F0
CC
C0
C0
F0
C0
C0
C0
40
ENDCHAR
STARTCHAR G
ENCODING 71
SWIDTH 438 0
DWIDTH 7 0
BBX 6 12 0 0
BITMAP
E0
D8
CC
C0
C0
D8
CC
CC
6C
0C
0C
04
ENDCHAR
STARTCHAR H
ENCODING 72
SWIDTH 438 0
DWIDTH 7 0
BBX 6 11 0 1
BITMAP
80
C8
CC
CC
CC
CC
FC
CC
CC
4C
04
ENDCHAR
STARTCHAR I
ENCODING 73
SWIDTH 438 0
DWIDTH 7 0
BBX 6 11 0 1
BITMAP
C0
30
3C
30
30
30
30
30
F0
30
0C
ENDCHAR
STARTCHAR J
ENCODING 74
SWIDTH 438 0
DWIDTH 7 0
BBX 6 11 0 1
BITMAP
C0
30
1C
18
18
18
98
98
D8
38
08
ENDCHAR
STARTCHAR K
ENCODING 75
SWIDTH 438 0
DWIDTH 7 0
BBX 6 12 0 0
BITMAP
80
C0
C4
CC
D8
F0
E0
F0
D8
CC
4C
04
ENDCHAR
STARTCHAR L
ENCODING 76
SWIDTH 438 0
DWIDTH 7 0
BBX 6 11 0 1
BITMAP
80
C0
C0
C0
C0
C0
C0
C0
C0
60
1C
ENDCHAR
STARTCHAR M
ENCODING 77
SWIDTH 438 0
DWIDTH 7 0
BBX 6 12 0 0
BITMAP
80
E0
FC
DC
D4
D4
D4
D4
C4
44
04
04
ENDCHAR
STARTCHAR N
ENCODING 78
SWIDTH 438 0
DWIDTH 7 0
BBX 6 11 0 1
BITMAP
80
C8
CC
CC
EC
EC
DC
DC
4C
0C
04
ENDCHAR
STARTCHAR O
ENCODING 79
SWIDTH 438 0
DWIDTH 7 0
BBX 6 10 0 2
BITMAP
E0
D8
CC
CC
CC
CC
CC
CC
6C
1C
ENDCHAR
STARTCHAR P
ENCODING 80
SWIDTH 438 0
DWIDTH 7 0
BBX 6 11 0 1
BITMAP
C0
E0
F0
D8
CC
CC
EC
DC
C0
C0
40
ENDCHAR
STARTCHAR Q
ENCODING 81
SWIDTH 438 0
DWIDTH 7 0
BBX 6 10 0 2
BITMAP
E0
D8
CC
CC
CC
CC
D4
D8
6C
34
ENDCHAR
STARTCHAR R
ENCODING 82
SWIDTH 438 0
DWIDTH 7 0
BBX 6 12 0 0
BITMAP
C0
E0
F0
D8
CC
CC
EC
FC
D8
CC
4C
04
ENDCHAR
STARTCHAR S
ENCODING 83
SWIDTH 438 0
DWIDTH 7 0
BBX 6 11 0 1
BITMAP
C0
E0
DC
C0
E0
70
38
1C
8C
6C
1C
ENDCHAR
STARTCHAR T
ENCODING 84
SWIDTH 438 0
DWIDTH 7 0
BBX 6 11 0 1
BITMAP
C0
30
3C
30
30
30
30
30
30
30
10
ENDCHAR
STARTCHAR U
ENCODING 85
SWIDTH 438 0
DWIDTH 7 0
BBX 6 11 0 1
BITMAP
40
CC
CC
CC
CC
CC
CC
CC
7C
0C
04
ENDCHAR
STARTCHAR V
ENCODING 86
SWIDTH 438 0
DWIDTH 7 0
BBX 6 11 0 1
BITMAP
88
CC
CC
CC
CC
CC
CC
6C
3C
1C
08
ENDCHAR
STARTCHAR W
ENCODING 87
SWIDTH 438 0
DWIDTH 7 0
BBX 6 11 0 1
BITMAP
80
C0
C4
C4
C4
D4
D4
D4
74
3C
0C
ENDCHAR
STARTCHAR X
ENCODING 88
SWIDTH 438 0
DWIDTH 7 0
BBX 6 11 0 1
BITMAP
80
C8
CC
CC
5C
38
70
E8
CC
4C
04
ENDCHAR
STARTCHAR Y
ENCODING 89
SWIDTH 438 0
DWIDTH 7 0
BBX 6 11 0 1
BITMAP
80
C8
CC
CC
CC
EC
7C
1C
CC
7C
1C
ENDCHAR
STARTCHAR Z
ENCODING 90
SWIDTH 438 0
DWIDTH 7 0
BBX 6 10 0 1
BITMAP
CC
3C
0C
1C
38
70
E0
C0
E4
1C
ENDCHAR
STARTCHAR backslash
ENCODING 92
SWIDTH 438 0
DWIDTH 7 0
BBX 5 10 0 2
BITMAP
80
80
40
40
20
20
10
10
08
08
ENDCHAR
STARTCHAR underscore
ENCODING 95
SWIDTH 438 0
DWIDTH 7 0
BBX 6 2 0 1
BITMAP
E0
1C
ENDCHAR
STARTCHAR a
ENCODING 97
SWIDTH 438 0
DWIDTH 7 0
BBX 6 11 0 1
BITMAP
C0
E0
F0
D8
CC
CC
CC
FC
CC
4C
04
ENDCHAR
STARTCHAR b
ENCODING 98
SWIDTH 438 0
DWIDTH 7 0
BBX 6 11 0 1
BITMAP
C0
E0
F0
D8
CC
CC
F8
CC
CC
7C
1C
ENDCHAR
STARTCHAR c
ENCODING 99
SWIDTH 438 0
DWIDTH 7 0
BBX 6 11 0 1
BITMAP
C0
F0
CC
C0
C0
C0
C0
C0
C0
60
1C
ENDCHAR
STARTCHAR d
ENCODING 100
SWIDTH 438 0
DWIDTH 7 0
BBX 6 11 0 1
BITMAP
C0
E0
F0
D8
CC
CC
CC
CC
D8
F0
60
ENDCHAR
STARTCHAR e
ENCODING 101
SWIDTH 438 0
DWIDTH 7 0
BBX 6 11 0 1
BITMAP
C0
C0
F0
CC
C0
C0
F0
C0
C0
E0
1C
ENDCHAR
STARTCHAR f
ENCODING 102
SWIDTH 438 0
DWIDTH 7 0
BBX 6 11 0 1
BITMAP
C0
C0
F0
CC
C0
C0
F0
C0
C0
C0
40
ENDCHAR
STARTCHAR g
ENCODING 103
SWIDTH 438 0
DWIDTH 7 0
BBX 6 12 0 0
BITMAP
E0
D8
CC
C0
C0
D8
CC
CC
6C
0C
0C
04
ENDCHAR
STARTCHAR h
ENCODING 104
SWIDTH 438 0
DWIDTH 7 0
BBX 6 11 0 1
BITMAP
80
C8
CC
CC
CC
CC
FC
CC
CC
4C
04
ENDCHAR
STARTCHAR i
ENCODING 105
SWIDTH 438 0
DWIDTH 7 0
BBX 6 11 0 1
BITMAP
C0
30
3C
30
30
30
30
30
F0
30
0C
ENDCHAR
STARTCHAR j
ENCODING 106
SWIDTH 438 0
DWIDTH 7 0
BBX 6 11 0 1
BITMAP
C0
30
1C
18
18
18
98
98
D8
38
08
ENDCHAR
STARTCHAR k
ENCODING 107
SWIDTH 438 0
DWIDTH 7 0
BBX 6 12 0 0
BITMAP
80
C0
C4
CC
D8
F0
E0
F0
D8
CC
4C
04
ENDCHAR
STARTCHAR l
ENCODING 108
SWIDTH 438 0
DWIDTH 7 0
BBX 6 11 0 1
BITMAP
80
C0
C0
C0
C0
C0
C0
C0
C0
60
1C
ENDCHAR
STARTCHAR m
ENCODING 109
SWIDTH 438 0
DWIDTH 7 0
BBX 6 12 0 0
BITMAP
80
E0
FC
DC
D4
D4
D4
D4
C4
44
04
04
ENDCHAR
STARTCHAR n
ENCODING 110
SWIDTH 438 0
DWIDTH 7 0
BBX 6 11 0 1
BITMAP
80
C8
CC
CC
EC
EC
DC
DC
4C
0C
04
ENDCHAR
STARTCHAR o
ENCODING 111
SWIDTH 438 0
DWIDTH 7 0
BBX 6 10 0 2
BITMAP
E0
D8
CC
CC
CC
CC
CC
CC
6C
1C
ENDCHAR
STARTCHAR p
ENCODING 112
SWIDTH 438 0
DWIDTH 7 0
BBX 6 11 0 1
BITMAP
C0
E0
F0
D8
CC
CC
EC
DC
C0
C0
40
ENDCHAR
STARTCHAR q
ENCODING 113
SWIDTH 438 0
DWIDTH 7 0
BBX 6 10 0 2
BITMAP
E0
D8
CC
CC
CC
CC
D4
D8
6C
34
ENDCHAR
STARTCHAR r
ENCODING 114
SWIDTH 438 0
DWIDTH 7 0
BBX 6 12 0 0
BITMAP
C0
E0
F0
D8
CC
CC
EC
FC
D8
CC
4C
04
ENDCHAR
STARTCHAR s
ENCODING 115
SWIDTH 438 0
DWIDTH 7 0
BBX 6 11 0 1
BITMAP
C0
E0
DC
C0
E0
70
38
1C
8C
6C
1C
ENDCHAR
STARTCHAR t
ENCODING 116
SWIDTH 438 0
DWIDTH 7 0
BBX 6 11 0 1
BITMAP
C0
30
3C
30
30
30
30
30
30
30
10
ENDCHAR
STARTCHAR u
ENCODING 117
SWIDTH 438 0
DWIDTH 7 0
BBX 6 11 0 1
BITMAP
40
CC
CC
CC
CC
CC
CC
CC
7C
0C
04
ENDCHAR
STARTCHAR v
ENCODING 118
SWIDTH 438 0
DWIDTH 7 0
BBX 6 11 0 1
BITMAP
88
CC
CC
CC
CC
CC
CC
6C
3C
1C
08
ENDCHAR
STARTCHAR w
ENCODING 119
SWIDTH 438 0
DWIDTH 7 0
BBX 6 11 0 1
BITMAP
80
C0
C4
C4
C4
D4
D4
D4
74
3C
0C
ENDCHAR
STARTCHAR x
ENCODING 120
SWIDTH 438 0
DWIDTH 7 0
BBX 6 11 0 1
BITMAP
80
C8
CC
CC
5C
38
70
E8
CC
4C
04
ENDCHAR
STARTCHAR y
ENCODING 121
SWIDTH 438 0
DWIDTH 7 0
BBX 6 11 0 1
BITMAP
80
C8
CC
CC
CC
EC
7C
1C
CC
7C
1C
ENDCHAR
STARTCHAR z
ENCODING 122
SWIDTH 438 0
DWIDTH 7 0
BBX 6 10 0 1
BITMAP
CC
3C
0C
1C
38
70
E0
C0
E4
1C
ENDCHAR
STARTCHAR .notdef
ENCODING -1
SWIDTH 438 0
DWIDTH 7 0
BBX 1 1 0 0
BITMAP
00
ENDCHAR
STARTCHAR glyph00001
ENCODING -1
SWIDTH 438 0
DWIDTH 7 0
BBX 1 1 0 0
BITMAP
00
ENDCHAR
ENDFONT
