STARTFONT 2.1
FONT Canyon Racer Notify 9x16 Outline mono-16px
SIZE 16 75 75
FONTBOUNDINGBOX 8 14 0 0
STARTPROPERTIES 5
PIXEL_SIZE 16
FONT_ASCENT 16
FONT_DESCENT 0
CHARSET_REGISTRY "ISO10646"
CHARSET_ENCODING "1"
ENDPROPERTIES
CHARS 73
STARTCHAR space
ENCODING 32
SWIDTH 562 0
DWIDTH 9 0
BBX 1 1 0 0
BITMAP
00
ENDCHAR
STARTCHAR exclam
ENCODING 33
SWIDTH 562 0
DWIDTH 9 0
BBX 4 13 1 1
BITMAP
E0
B0
90
90
90
90
90
D0
F0
B0
90
D0
70
ENDCHAR
STARTCHAR hyphen
ENCODING 45
SWIDTH 562 0
DWIDTH 9 0
BBX 6 4 1 5
BITMAP
F8
8C
C4
7C
ENDCHAR
STARTCHAR period
ENCODING 46
SWIDTH 562 0
DWIDTH 9 0
BBX 4 5 1 1
BITMAP
E0
B0
90
D0
70
ENDCHAR
STARTCHAR slash
ENCODING 47
SWIDTH 562 0
DWIDTH 9 0
BBX 7 12 1 2
BITMAP
0E
0A
1A
16
34
2C
68
58
D0
B0
A0
E0
ENDCHAR
STARTCHAR zero
ENCODING 48
SWIDTH 562 0
DWIDTH 9 0
BBX 8 13 0 1
BITMAP
F8
8E
93
99
99
99
89
91
99
99
C9
71
1F
ENDCHAR
STARTCHAR one
ENCODING 49
SWIDTH 562 0
DWIDTH 9 0
BBX 8 13 0 1
BITMAP
1C
34
64
44
64
24
24
24
24
E4
87
F1
1F
ENDCHAR
STARTCHAR two
ENCODING 50
SWIDTH 562 0
DWIDTH 9 0
BBX 8 13 0 1
BITMAP
7C
C6
93
F9
19
33
66
CC
98
98
8F
F1
1F
ENDCHAR
STARTCHAR three
ENCODING 51
SWIDTH 562 0
DWIDTH 9 0
BBX 8 13 0 1
BITMAP
F0
9C
E7
39
09
79
49
73
F9
99
E1
39
0F
ENDCHAR
STARTCHAR four
ENCODING 52
SWIDTH 562 0
DWIDTH 9 0
BBX 8 13 0 1
BITMAP
E0
BE
9B
99
99
99
C9
71
19
09
09
0D
07
ENDCHAR
STARTCHAR five
ENCODING 53
SWIDTH 562 0
DWIDTH 9 0
BBX 8 13 0 1
BITMAP
F0
9C
87
99
9F
8E
C3
71
F9
B9
93
C6
7C
ENDCHAR
STARTCHAR six
ENCODING 54
SWIDTH 562 0
DWIDTH 9 0
BBX 8 13 0 1
BITMAP
78
CE
93
9D
97
98
8E
93
99
99
C9
71
1F
ENDCHAR
STARTCHAR seven
ENCODING 55
SWIDTH 562 0
DWIDTH 9 0
BBX 8 13 0 1
BITMAP
F0
9E
E3
39
09
19
13
12
12
12
12
1A
0E
ENDCHAR
STARTCHAR eight
ENCODING 56
SWIDTH 562 0
DWIDTH 9 0
BBX 8 13 0 1
BITMAP
F8
8E
93
99
99
C9
93
99
99
C9
71
19
0F
ENDCHAR
STARTCHAR nine
ENCODING 57
SWIDTH 562 0
DWIDTH 9 0
BBX 8 13 0 1
BITMAP
F8
8E
93
99
99
C9
71
19
09
09
09
0D
07
ENDCHAR
STARTCHAR colon
ENCODING 58
SWIDTH 562 0
DWIDTH 9 0
BBX 4 9 1 3
BITMAP
E0
B0
90
D0
F0
B0
90
D0
70
ENDCHAR
STARTCHAR question
ENCODING 63
SWIDTH 562 0
DWIDTH 9 0
BBX 8 13 0 1
BITMAP
7E
C3
99
B9
F3
26
24
34
3C
2C
24
34
1C
ENDCHAR
STARTCHAR A
ENCODING 65
SWIDTH 562 0
DWIDTH 9 0
BBX 8 13 0 1
BITMAP
F0
98
8C
86
93
99
99
99
81
99
D9
7D
07
ENDCHAR
STARTCHAR B
ENCODING 66
SWIDTH 562 0
DWIDTH 9 0
BBX 8 13 0 1
BITMAP
F0
98
8C
86
93
99
99
83
99
99
C1
71
1F
ENDCHAR
STARTCHAR C
ENCODING 67
SWIDTH 562 0
DWIDTH 9 0
BBX 8 13 0 1
BITMAP
F0
9C
87
99
9F
90
90
90
90
98
CF
71
1F
ENDCHAR
STARTCHAR D
ENCODING 68
SWIDTH 562 0
DWIDTH 9 0
BBX 8 13 0 1
BITMAP
F0
98
8C
86
93
99
99
99
99
93
86
CC
78
ENDCHAR
STARTCHAR E
ENCODING 69
SWIDTH 562 0
DWIDTH 9 0
BBX 8 13 0 1
BITMAP
F0
90
9C
87
99
9F
9C
84
9C
98
8F
F1
1F
ENDCHAR
STARTCHAR F
ENCODING 70
SWIDTH 562 0
DWIDTH 9 0
BBX 8 13 0 1
BITMAP
F0
90
9C
87
99
9F
9C
84
9C
90
90
D0
70
ENDCHAR
STARTCHAR G
ENCODING 71
SWIDTH 562 0
DWIDTH 9 0
BBX 8 14 0 0
BITMAP
F8
8E
93
99
9F
9E
93
99
99
C9
79
09
0D
07
ENDCHAR
STARTCHAR H
ENCODING 72
SWIDTH 562 0
DWIDTH 9 0
BBX 8 13 0 1
BITMAP
E0
BE
9B
99
99
99
99
81
99
99
D9
7D
07
ENDCHAR
STARTCHAR I
ENCODING 73
SWIDTH 562 0
DWIDTH 9 0
BBX 8 13 0 1
BITMAP
F0
9C
E7
21
27
24
24
24
E4
84
E7
39
0F
ENDCHAR
STARTCHAR J
ENCODING 74
SWIDTH 562 0
DWIDTH 9 0
BBX 8 13 0 1
BITMAP
F0
9C
E7
31
13
12
F2
B2
B2
92
E2
3A
0E
ENDCHAR
STARTCHAR K
ENCODING 75
SWIDTH 562 0
DWIDTH 9 0
BBX 8 14 0 0
BITMAP
E0
B0
97
9D
99
93
86
8C
86
93
99
D9
7D
07
ENDCHAR
STARTCHAR L
ENCODING 76
SWIDTH 562 0
DWIDTH 9 0
BBX 8 13 0 1
BITMAP
E0
B0
90
90
90
90
90
90
90
98
CF
71
1F
ENDCHAR
STARTCHAR M
ENCODING 77
SWIDTH 562 0
DWIDTH 9 0
BBX 8 14 0 0
BITMAP
E0
B8
8F
81
91
95
95
95
95
9D
D5
75
05
07
ENDCHAR
STARTCHAR N
ENCODING 78
SWIDTH 562 0
DWIDTH 9 0
BBX 8 13 0 1
BITMAP
E0
BE
9B
99
99
89
89
91
91
D9
79
0D
07
ENDCHAR
STARTCHAR O
ENCODING 79
SWIDTH 562 0
DWIDTH 9 0
BBX 8 12 0 2
BITMAP
F8
8E
93
99
99
99
99
99
99
C9
71
1F
ENDCHAR
STARTCHAR P
ENCODING 80
SWIDTH 562 0
DWIDTH 9 0
BBX 8 13 0 1
BITMAP
F0
98
8C
86
93
99
99
89
91
9F
90
D0
70
ENDCHAR
STARTCHAR Q
ENCODING 81
SWIDTH 562 0
DWIDTH 9 0
BBX 8 12 0 2
BITMAP
F8
8E
93
99
99
99
99
95
93
C9
65
3F
ENDCHAR
STARTCHAR R
ENCODING 82
SWIDTH 562 0
DWIDTH 9 0
BBX 8 14 0 0
BITMAP
F0
98
8C
86
93
99
99
89
81
93
99
D9
7D
07
ENDCHAR
STARTCHAR S
ENCODING 83
SWIDTH 562 0
DWIDTH 9 0
BBX 8 13 0 1
BITMAP
F0
98
8F
91
9F
8C
C6
63
F1
B9
C9
71
1F
ENDCHAR
STARTCHAR T
ENCODING 84
SWIDTH 562 0
DWIDTH 9 0
BBX 8 13 0 1
BITMAP
F0
9C
E7
21
27
24
24
24
24
24
24
34
1C
ENDCHAR
STARTCHAR U
ENCODING 85
SWIDTH 562 0
DWIDTH 9 0
BBX 8 13 0 1
BITMAP
70
DF
99
99
99
99
99
99
99
C1
79
0D
07
ENDCHAR
STARTCHAR V
ENCODING 86
SWIDTH 562 0
DWIDTH 9 0
BBX 8 13 0 1
BITMAP
EE
BB
99
99
99
99
99
99
C9
61
31
1B
0E
ENDCHAR
STARTCHAR W
ENCODING 87
SWIDTH 562 0
DWIDTH 9 0
BBX 8 13 0 1
BITMAP
E0
B0
97
95
95
9D
95
95
95
C5
61
39
0F
ENDCHAR
STARTCHAR X
ENCODING 88
SWIDTH 562 0
DWIDTH 9 0
BBX 8 13 0 1
BITMAP
E0
BE
9B
99
99
D1
63
C6
8B
99
D9
7D
07
ENDCHAR
STARTCHAR Y
ENCODING 89
SWIDTH 562 0
DWIDTH 9 0
BBX 8 13 0 1
BITMAP
E0
BE
9B
99
99
99
89
C1
F1
99
C1
71
1F
ENDCHAR
STARTCHAR Z
ENCODING 90
SWIDTH 562 0
DWIDTH 9 0
BBX 8 12 0 1
BITMAP
FF
99
E1
39
31
63
C6
8C
9F
8D
F1
1F
ENDCHAR
STARTCHAR backslash
ENCODING 92
SWIDTH 562 0
DWIDTH 9 0
BBX 7 12 0 2
BITMAP
E0
A0
B0
D0
58
68
2C
34
16
1A
0A
0E
ENDCHAR
STARTCHAR underscore
ENCODING 95
SWIDTH 562 0
DWIDTH 9 0
BBX 8 4 0 1
BITMAP
F8
8F
F1
1F
ENDCHAR
STARTCHAR a
ENCODING 97
SWIDTH 562 0
DWIDTH 9 0
BBX 8 13 0 1
BITMAP
F0
98
8C
86
93
99
99
99
81
99
D9
7D
07
ENDCHAR
STARTCHAR b
ENCODING 98
SWIDTH 562 0
DWIDTH 9 0
BBX 8 13 0 1
BITMAP
F0
98
8C
86
93
99
99
83
99
99
C1
71
1F
ENDCHAR
STARTCHAR c
ENCODING 99
SWIDTH 562 0
DWIDTH 9 0
BBX 8 13 0 1
BITMAP
F0
9C
87
99
9F
90
90
90
90
98
CF
71
1F
ENDCHAR
STARTCHAR d
ENCODING 100
SWIDTH 562 0
DWIDTH 9 0
BBX 8 13 0 1
BITMAP
F0
98
8C
86
93
99
99
99
99
93
86
CC
78
ENDCHAR
STARTCHAR e
ENCODING 101
SWIDTH 562 0
DWIDTH 9 0
BBX 8 13 0 1
BITMAP
F0
90
9C
87
99
9F
9C
84
9C
98
8F
F1
1F
ENDCHAR
STARTCHAR f
ENCODING 102
SWIDTH 562 0
DWIDTH 9 0
BBX 8 13 0 1
BITMAP
F0
90
9C
87
99
9F
9C
84
9C
90
90
D0
70
ENDCHAR
STARTCHAR g
ENCODING 103
SWIDTH 562 0
DWIDTH 9 0
BBX 8 14 0 0
BITMAP
F8
8E
93
99
9F
9E
93
99
99
C9
79
09
0D
07
ENDCHAR
STARTCHAR h
ENCODING 104
SWIDTH 562 0
DWIDTH 9 0
BBX 8 13 0 1
BITMAP
E0
BE
9B
99
99
99
99
81
99
99
D9
7D
07
ENDCHAR
STARTCHAR i
ENCODING 105
SWIDTH 562 0
DWIDTH 9 0
BBX 8 13 0 1
BITMAP
F0
9C
E7
21
27
24
24
24
E4
84
E7
39
0F
ENDCHAR
STARTCHAR j
ENCODING 106
SWIDTH 562 0
DWIDTH 9 0
BBX 8 13 0 1
BITMAP
F0
9C
E7
31
13
12
F2
B2
B2
92
E2
3A
0E
ENDCHAR
STARTCHAR k
ENCODING 107
SWIDTH 562 0
DWIDTH 9 0
BBX 8 14 0 0
BITMAP
E0
B0
97
9D
99
93
86
8C
86
93
99
D9
7D
07
ENDCHAR
STARTCHAR l
ENCODING 108
SWIDTH 562 0
DWIDTH 9 0
BBX 8 13 0 1
BITMAP
E0
B0
90
90
90
90
90
90
90
98
CF
71
1F
ENDCHAR
STARTCHAR m
ENCODING 109
SWIDTH 562 0
DWIDTH 9 0
BBX 8 14 0 0
BITMAP
E0
B8
8F
81
91
95
95
95
95
9D
D5
75
05
07
ENDCHAR
STARTCHAR n
ENCODING 110
SWIDTH 562 0
DWIDTH 9 0
BBX 8 13 0 1
BITMAP
E0
BE
9B
99
99
89
89
91
91
D9
79
0D
07
ENDCHAR
STARTCHAR o
ENCODING 111
SWIDTH 562 0
DWIDTH 9 0
BBX 8 12 0 2
BITMAP
F8
8E
93
99
99
99
99
99
99
C9
71
1F
ENDCHAR
STARTCHAR p
ENCODING 112
SWIDTH 562 0
DWIDTH 9 0
BBX 8 13 0 1
BITMAP
F0
98
8C
86
93
99
99
89
91
9F
90
D0
70
ENDCHAR
STARTCHAR q
ENCODING 113
SWIDTH 562 0
DWIDTH 9 0
BBX 8 12 0 2
BITMAP
F8
8E
93
99
99
99
99
95
93
C9
65
3F
ENDCHAR
STARTCHAR r
ENCODING 114
SWIDTH 562 0
DWIDTH 9 0
BBX 8 14 0 0
BITMAP
F0
98
8C
86
93
99
99
89
81
93
99
D9
7D
07
ENDCHAR
STARTCHAR s
ENCODING 115
SWIDTH 562 0
DWIDTH 9 0
BBX 8 13 0 1
BITMAP
F0
98
8F
91
9F
8C
C6
63
F1
B9
C9
71
1F
ENDCHAR
STARTCHAR t
ENCODING 116
SWIDTH 562 0
DWIDTH 9 0
BBX 8 13 0 1
BITMAP
F0
9C
E7
21
27
24
24
24
24
24
24
34
1C
ENDCHAR
STARTCHAR u
ENCODING 117
SWIDTH 562 0
DWIDTH 9 0
BBX 8 13 0 1
BITMAP
70
DF
99
99
99
99
99
99
99
C1
79
0D
07
ENDCHAR
STARTCHAR v
ENCODING 118
SWIDTH 562 0
DWIDTH 9 0
BBX 8 13 0 1
BITMAP
EE
BB
99
99
99
99
99
99
C9
61
31
1B
0E
ENDCHAR
STARTCHAR w
ENCODING 119
SWIDTH 562 0
DWIDTH 9 0
BBX 8 13 0 1
BITMAP
E0
B0
97
95
95
9D
95
95
95
C5
61
39
0F
ENDCHAR
STARTCHAR x
ENCODING 120
SWIDTH 562 0
DWIDTH 9 0
BBX 8 13 0 1
BITMAP
E0
BE
9B
99
99
D1
63
C6
8B
99
D9
7D
07
ENDCHAR
STARTCHAR y
ENCODING 121
SWIDTH 562 0
DWIDTH 9 0
BBX 8 13 0 1
BITMAP
E0
BE
9B
99
99
99
89
C1
F1
99
C1
71
1F
ENDCHAR
STARTCHAR z
ENCODING 122
SWIDTH 562 0
DWIDTH 9 0
BBX 8 12 0 1
BITMAP
FF
99
E1
39
31
63
C6
8C
9F
8D
F1
1F
ENDCHAR
STARTCHAR .notdef
ENCODING -1
SWIDTH 562 0
DWIDTH 9 0
BBX 1 1 0 0
BITMAP
00
ENDCHAR
STARTCHAR glyph00001
ENCODING -1
SWIDTH 562 0
DWIDTH 9 0
BBX 1 1 0 0
BITMAP
00
ENDCHAR
ENDFONT
