STARTFONT 2.1
FONT Bm437_CL_Stingray_8x19_bold-20px
SIZE 20 75 75
FONTBOUNDINGBOX 8 19 0 -4
STARTPROPERTIES 3
PIXEL_SIZE 20
FONT_ASCENT 16
FONT_DESCENT 4
ENDPROPERTIES
CHARS 295
STARTCHAR uni0000
ENCODING 0
SWIDTH 400 0
DWIDTH 8 0
BBX 8 19 0 -4
BITMAP
00
00
00
00
00
00
00
00
00
00
00
00
00
00
00
00
00
00
00
ENDCHAR
STARTCHAR uni0001
ENCODING 1
SWIDTH 400 0
DWIDTH 8 0
BBX 8 19 0 -4
BITMAP
00
00
00
7E
FF
C3
E7
E7
C3
C3
FF
DB
C3
FF
7E
00
00
00
00
ENDCHAR
STARTCHAR uni0002
ENCODING 2
SWIDTH 400 0
DWIDTH 8 0
BBX 8 19 0 -4
BITMAP
00
00
00
7E
FF
FF
99
99
FF
FF
81
C3
E7
FF
7E
00
00
00
00
ENDCHAR
STARTCHAR uni0003
ENCODING 3
SWIDTH 400 0
DWIDTH 8 0
BBX 8 19 0 -4
BITMAP
00
00
00
00
66
FF
FF
FF
FF
7E
7E
3C
3C
18
18
00
00
00
00
ENDCHAR
STARTCHAR uni0004
ENCODING 4
SWIDTH 400 0
DWIDTH 8 0
BBX 8 19 0 -4
BITMAP
00
00
00
18
18
3C
3C
7E
7E
FF
7E
7E
3C
3C
18
18
00
00
00
ENDCHAR
STARTCHAR uni0005
ENCODING 5
SWIDTH 400 0
DWIDTH 8 0
BBX 8 19 0 -4
BITMAP
00
00
00
00
18
3C
3C
18
66
FF
FF
66
18
3C
7E
00
00
00
00
ENDCHAR
STARTCHAR uni0006
ENCODING 6
SWIDTH 400 0
DWIDTH 8 0
BBX 8 19 0 -4
BITMAP
00
00
00
00
18
18
3C
3C
7E
FF
FF
FF
7E
18
3C
7E
00
00
00
ENDCHAR
STARTCHAR uni0007
ENCODING 7
SWIDTH 400 0
DWIDTH 8 0
BBX 8 19 0 -4
BITMAP
00
00
00
00
00
00
00
18
3C
3C
3C
18
00
00
00
00
00
00
00
ENDCHAR
STARTCHAR uni0008
ENCODING 8
SWIDTH 400 0
DWIDTH 8 0
BBX 8 19 0 -4
BITMAP
FF
FF
FF
FF
FF
FF
E7
C3
C3
C3
E7
FF
FF
FF
FF
FF
FF
FF
FF
ENDCHAR
STARTCHAR uni0009
ENCODING 9
SWIDTH 400 0
DWIDTH 8 0
BBX 8 19 0 -4
BITMAP
00
00
00
00
00
3C
7E
66
66
66
7E
3C
00
00
00
00
00
00
00
ENDCHAR
STARTCHAR uni000A
ENCODING 10
SWIDTH 400 0
DWIDTH 8 0
BBX 8 19 0 -4
BITMAP
FF
FF
FF
FF
FF
C3
99
BD
BD
BD
99
C3
FF
FF
FF
FF
FF
FF
FF
ENDCHAR
STARTCHAR uni000B
ENCODING 11
SWIDTH 400 0
DWIDTH 8 0
BBX 8 19 0 -4
BITMAP
00
00
00
1E
0E
1E
3A
7C
EE
EE
EE
EE
7C
00
00
00
00
00
00
ENDCHAR
STARTCHAR uni000C
ENCODING 12
SWIDTH 400 0
DWIDTH 8 0
BBX 8 19 0 -4
BITMAP
00
00
00
7C
EE
EE
EE
EE
7C
38
FE
FE
38
38
00
00
00
00
00
ENDCHAR
STARTCHAR uni000D
ENCODING 13
SWIDTH 400 0
DWIDTH 8 0
BBX 8 19 0 -4
BITMAP
00
00
00
3F
33
33
3F
30
30
30
70
F0
E0
00
00
00
00
00
00
ENDCHAR
STARTCHAR uni000E
ENCODING 14
SWIDTH 400 0
DWIDTH 8 0
BBX 8 19 0 -4
BITMAP
00
00
00
7F
63
63
7F
63
63
63
67
E7
E6
C0
00
00
00
00
00
ENDCHAR
STARTCHAR uni000F
ENCODING 15
SWIDTH 400 0
DWIDTH 8 0
BBX 8 19 0 -4
BITMAP
00
00
00
18
18
DB
3C
E7
E7
3C
DB
18
18
00
00
00
00
00
00
ENDCHAR
STARTCHAR uni0010
ENCODING 16
SWIDTH 400 0
DWIDTH 8 0
BBX 8 19 0 -4
BITMAP
00
00
00
80
C0
E0
F8
FE
FE
F8
E0
C0
80
00
00
00
00
00
00
ENDCHAR
STARTCHAR uni0011
ENCODING 17
SWIDTH 400 0
DWIDTH 8 0
BBX 8 19 0 -4
BITMAP
00
00
00
02
06
0E
3E
FE
FE
3E
0E
06
02
00
00
00
00
00
00
ENDCHAR
STARTCHAR uni0012
ENCODING 18
SWIDTH 400 0
DWIDTH 8 0
BBX 8 19 0 -4
BITMAP
38
7C
FE
38
38
38
38
38
38
38
38
38
38
38
38
38
FE
7C
38
ENDCHAR
STARTCHAR uni0013
ENCODING 19
SWIDTH 400 0
DWIDTH 8 0
BBX 8 19 0 -4
BITMAP
00
00
00
EE
EE
EE
EE
EE
EE
EE
EE
EE
00
EE
EE
00
00
00
00
ENDCHAR
STARTCHAR uni0014
ENCODING 20
SWIDTH 400 0
DWIDTH 8 0
BBX 8 19 0 -4
BITMAP
00
00
00
7F
DB
DB
DB
DB
DB
7B
1B
1B
1B
1B
1B
00
00
00
00
ENDCHAR
STARTCHAR uni0015
ENCODING 21
SWIDTH 400 0
DWIDTH 8 0
BBX 8 19 0 -4
BITMAP
00
00
00
7C
C6
60
38
6C
C6
C6
6C
38
0C
C6
7C
00
00
00
00
ENDCHAR
STARTCHAR uni0016
ENCODING 22
SWIDTH 400 0
DWIDTH 8 0
BBX 8 19 0 -4
BITMAP
00
00
00
00
00
00
00
00
00
00
FE
FE
FE
FE
FE
00
00
00
00
ENDCHAR
STARTCHAR uni0017
ENCODING 23
SWIDTH 400 0
DWIDTH 8 0
BBX 8 19 0 -4
BITMAP
00
00
00
18
3C
7E
18
18
18
18
18
7E
3C
18
7E
00
00
00
00
ENDCHAR
STARTCHAR uni0018
ENCODING 24
SWIDTH 400 0
DWIDTH 8 0
BBX 8 19 0 -4
BITMAP
38
38
7C
7C
FE
FE
38
38
38
38
38
38
38
38
38
38
38
38
38
ENDCHAR
STARTCHAR uni0019
ENCODING 25
SWIDTH 400 0
DWIDTH 8 0
BBX 8 19 0 -4
BITMAP
38
38
38
38
38
38
38
38
38
38
38
38
FE
FE
FE
7C
7C
38
38
ENDCHAR
STARTCHAR uni001A
ENCODING 26
SWIDTH 400 0
DWIDTH 8 0
BBX 8 19 0 -4
BITMAP
00
00
00
00
00
00
08
0C
0E
FF
FF
0E
0C
08
00
00
00
00
00
ENDCHAR
STARTCHAR uni001B
ENCODING 27
SWIDTH 400 0
DWIDTH 8 0
BBX 8 19 0 -4
BITMAP
00
00
00
00
00
00
10
30
70
FF
FF
70
30
10
00
00
00
00
00
ENDCHAR
STARTCHAR uni001C
ENCODING 28
SWIDTH 400 0
DWIDTH 8 0
BBX 8 19 0 -4
BITMAP
00
00
00
00
00
00
C0
C0
C0
C0
FE
FE
00
00
00
00
00
00
00
ENDCHAR
STARTCHAR uni001D
ENCODING 29
SWIDTH 400 0
DWIDTH 8 0
BBX 8 19 0 -4
BITMAP
00
00
00
00
00
00
00
24
66
FF
FF
66
24
00
00
00
00
00
00
ENDCHAR
STARTCHAR uni001E
ENCODING 30
SWIDTH 400 0
DWIDTH 8 0
BBX 8 19 0 -4
BITMAP
00
00
00
00
10
10
38
38
7C
7C
FE
FE
00
00
00
00
00
00
00
ENDCHAR
STARTCHAR uni001F
ENCODING 31
SWIDTH 400 0
DWIDTH 8 0
BBX 8 19 0 -4
BITMAP
00
00
00
00
FE
FE
7C
7C
38
38
10
10
00
00
00
00
00
00
00
ENDCHAR
STARTCHAR space
ENCODING 32
SWIDTH 400 0
DWIDTH 8 0
BBX 8 19 0 -4
BITMAP
00
00
00
00
00
00
00
00
00
00
00
00
00
00
00
00
00
00
00
ENDCHAR
STARTCHAR exclam
ENCODING 33
SWIDTH 400 0
DWIDTH 8 0
BBX 8 19 0 -4
BITMAP
00
00
00
38
7C
7C
7C
7C
7C
38
38
38
00
38
38
00
00
00
00
ENDCHAR
STARTCHAR quotedbl
ENCODING 34
SWIDTH 400 0
DWIDTH 8 0
BBX 8 19 0 -4
BITMAP
00
00
00
77
77
77
EE
EE
00
00
00
00
00
00
00
00
00
00
00
ENDCHAR
STARTCHAR numbersign
ENCODING 35
SWIDTH 400 0
DWIDTH 8 0
BBX 8 19 0 -4
BITMAP
00
00
6C
6C
6C
FE
FE
6C
6C
6C
FE
FE
6C
6C
6C
00
00
00
00
ENDCHAR
STARTCHAR dollar
ENCODING 36
SWIDTH 400 0
DWIDTH 8 0
BBX 8 19 0 -4
BITMAP
00
00
38
38
7C
FE
E0
E0
F0
7C
1E
0E
0E
FE
7C
38
38
00
00
ENDCHAR
STARTCHAR percent
ENCODING 37
SWIDTH 400 0
DWIDTH 8 0
BBX 8 19 0 -4
BITMAP
00
00
00
EE
EE
EE
1C
1C
1C
70
70
70
EE
EE
EE
00
00
00
00
ENDCHAR
STARTCHAR ampersand
ENCODING 38
SWIDTH 400 0
DWIDTH 8 0
BBX 8 19 0 -4
BITMAP
00
38
38
38
38
7C
7C
70
7C
7C
70
7C
7C
38
38
38
38
00
00
ENDCHAR
STARTCHAR quotesingle
ENCODING 39
SWIDTH 400 0
DWIDTH 8 0
BBX 8 19 0 -4
BITMAP
00
00
00
38
38
38
70
70
00
00
00
00
00
00
00
00
00
00
00
ENDCHAR
STARTCHAR parenleft
ENCODING 40
SWIDTH 400 0
DWIDTH 8 0
BBX 8 19 0 -4
BITMAP
00
00
1C
38
38
70
70
70
70
70
70
70
70
38
38
1C
00
00
00
ENDCHAR
STARTCHAR parenright
ENCODING 41
SWIDTH 400 0
DWIDTH 8 0
BBX 8 19 0 -4
BITMAP
00
00
70
38
38
1C
1C
1C
1C
1C
1C
1C
1C
38
38
70
00
00
00
ENDCHAR
STARTCHAR asterisk
ENCODING 42
SWIDTH 400 0
DWIDTH 8 0
BBX 8 19 0 -4
BITMAP
00
00
00
00
00
00
00
66
66
3C
FF
FF
3C
66
66
00
00
00
00
ENDCHAR
STARTCHAR plus
ENCODING 43
SWIDTH 400 0
DWIDTH 8 0
BBX 8 19 0 -4
BITMAP
00
00
00
00
00
00
00
38
38
FE
FE
FE
38
38
00
00
00
00
00
ENDCHAR
STARTCHAR comma
ENCODING 44
SWIDTH 400 0
DWIDTH 8 0
BBX 8 19 0 -4
BITMAP
00
00
00
00
00
00
00
00
00
00
00
00
38
38
38
70
70
00
00
ENDCHAR
STARTCHAR hyphen
ENCODING 45
SWIDTH 400 0
DWIDTH 8 0
BBX 8 19 0 -4
BITMAP
00
00
00
00
00
00
00
00
00
FE
FE
FE
00
00
00
00
00
00
00
ENDCHAR
STARTCHAR period
ENCODING 46
SWIDTH 400 0
DWIDTH 8 0
BBX 8 19 0 -4
BITMAP
00
00
00
00
00
00
00
00
00
00
00
00
38
38
38
00
00
00
00
ENDCHAR
STARTCHAR slash
ENCODING 47
SWIDTH 400 0
DWIDTH 8 0
BBX 8 19 0 -4
BITMAP
00
00
00
1C
1C
1C
38
38
38
70
70
70
E0
E0
E0
00
00
00
00
ENDCHAR
STARTCHAR zero
ENCODING 48
SWIDTH 400 0
DWIDTH 8 0
BBX 8 19 0 -4
BITMAP
00
00
00
7C
EE
EE
EE
EE
EE
EE
EE
EE
EE
EE
7C
00
00
00
00
ENDCHAR
STARTCHAR one
ENCODING 49
SWIDTH 400 0
DWIDTH 8 0
BBX 8 19 0 -4
BITMAP
00
00
00
1C
3C
7C
1C
1C
1C
1C
1C
1C
1C
1C
1C
00
00
00
00
ENDCHAR
STARTCHAR two
ENCODING 50
SWIDTH 400 0
DWIDTH 8 0
BBX 8 19 0 -4
BITMAP
00
00
00
FC
FE
0E
0E
1C
38
70
E0
E0
E0
FE
FE
00
00
00
00
ENDCHAR
STARTCHAR three
ENCODING 51
SWIDTH 400 0
DWIDTH 8 0
BBX 8 19 0 -4
BITMAP
00
00
00
FE
FE
0E
1C
38
38
1C
0E
0E
0E
FC
F8
00
00
00
00
ENDCHAR
STARTCHAR four
ENCODING 52
SWIDTH 400 0
DWIDTH 8 0
BBX 8 19 0 -4
BITMAP
00
00
00
1E
1E
3E
3E
7E
6E
EE
FE
FE
0E
0E
0E
00
00
00
00
ENDCHAR
STARTCHAR five
ENCODING 53
SWIDTH 400 0
DWIDTH 8 0
BBX 8 19 0 -4
BITMAP
00
00
00
FC
FC
E0
E0
F8
FC
0E
0E
0E
0E
FC
F8
00
00
00
00
ENDCHAR
STARTCHAR six
ENCODING 54
SWIDTH 400 0
DWIDTH 8 0
BBX 8 19 0 -4
BITMAP
00
00
00
3C
7C
E0
E0
FC
FE
EE
EE
EE
EE
FE
7C
00
00
00
00
ENDCHAR
STARTCHAR seven
ENCODING 55
SWIDTH 400 0
DWIDTH 8 0
BBX 8 19 0 -4
BITMAP
00
00
00
FE
FE
0E
0E
1C
1C
38
38
38
38
38
38
00
00
00
00
ENDCHAR
STARTCHAR eight
ENCODING 56
SWIDTH 400 0
DWIDTH 8 0
BBX 8 19 0 -4
BITMAP
00
00
00
7C
EE
EE
EE
EE
7C
7C
EE
EE
EE
EE
7C
00
00
00
00
ENDCHAR
STARTCHAR nine
ENCODING 57
SWIDTH 400 0
DWIDTH 8 0
BBX 8 19 0 -4
BITMAP
00
00
00
7C
FE
EE
EE
EE
EE
FE
7E
0E
0E
7C
78
00
00
00
00
ENDCHAR
STARTCHAR colon
ENCODING 58
SWIDTH 400 0
DWIDTH 8 0
BBX 8 19 0 -4
BITMAP
00
00
00
00
00
00
00
38
38
38
00
00
38
38
38
00
00
00
00
ENDCHAR
STARTCHAR semicolon
ENCODING 59
SWIDTH 400 0
DWIDTH 8 0
BBX 8 19 0 -4
BITMAP
00
00
00
00
00
00
00
38
38
38
00
00
38
38
38
70
70
00
00
ENDCHAR
STARTCHAR less
ENCODING 60
SWIDTH 400 0
DWIDTH 8 0
BBX 8 19 0 -4
BITMAP
00
00
00
00
00
00
0E
1C
38
70
E0
70
38
1C
0E
00
00
00
00
ENDCHAR
STARTCHAR equal
ENCODING 61
SWIDTH 400 0
DWIDTH 8 0
BBX 8 19 0 -4
BITMAP
00
00
00
00
00
00
00
7E
7E
7E
00
7E
7E
7E
00
00
00
00
00
ENDCHAR
STARTCHAR greater
ENCODING 62
SWIDTH 400 0
DWIDTH 8 0
BBX 8 19 0 -4
BITMAP
00
00
00
00
00
00
E0
70
38
1C
0E
1C
38
70
E0
00
00
00
00
ENDCHAR
STARTCHAR question
ENCODING 63
SWIDTH 400 0
DWIDTH 8 0
BBX 8 19 0 -4
BITMAP
00
00
00
7C
FE
EE
EE
0E
1C
1C
38
38
00
38
38
00
00
00
00
ENDCHAR
STARTCHAR at
ENCODING 64
SWIDTH 400 0
DWIDTH 8 0
BBX 8 19 0 -4
BITMAP
00
00
00
00
00
7C
FE
C6
DE
DE
DE
DC
C0
FC
7C
00
00
00
00
ENDCHAR
STARTCHAR A
ENCODING 65
SWIDTH 400 0
DWIDTH 8 0
BBX 8 19 0 -4
BITMAP
00
00
00
10
38
7C
FE
EE
EE
EE
FE
FE
EE
EE
EE
00
00
00
00
ENDCHAR
STARTCHAR B
ENCODING 66
SWIDTH 400 0
DWIDTH 8 0
BBX 8 19 0 -4
BITMAP
00
00
00
FC
FE
EE
EE
EE
FC
FC
EE
EE
EE
FE
FC
00
00
00
00
ENDCHAR
STARTCHAR C
ENCODING 67
SWIDTH 400 0
DWIDTH 8 0
BBX 8 19 0 -4
BITMAP
00
00
00
7C
FE
EE
EE
E0
E0
E0
E0
EE
EE
FE
7C
00
00
00
00
ENDCHAR
STARTCHAR D
ENCODING 68
SWIDTH 400 0
DWIDTH 8 0
BBX 8 19 0 -4
BITMAP
00
00
00
FC
FE
EE
EE
EE
EE
EE
EE
EE
EE
FE
FC
00
00
00
00
ENDCHAR
STARTCHAR E
ENCODING 69
SWIDTH 400 0
DWIDTH 8 0
BBX 8 19 0 -4
BITMAP
00
00
00
FE
FE
E0
E0
E0
F8
F8
E0
E0
E0
FE
FE
00
00
00
00
ENDCHAR
STARTCHAR F
ENCODING 70
SWIDTH 400 0
DWIDTH 8 0
BBX 8 19 0 -4
BITMAP
00
00
00
FE
FE
E0
E0
E0
F8
F8
E0
E0
E0
E0
E0
00
00
00
00
ENDCHAR
STARTCHAR G
ENCODING 71
SWIDTH 400 0
DWIDTH 8 0
BBX 8 19 0 -4
BITMAP
00
00
00
7C
FE
EE
EE
E0
E0
FE
FE
EE
EE
FE
76
00
00
00
00
ENDCHAR
STARTCHAR H
ENCODING 72
SWIDTH 400 0
DWIDTH 8 0
BBX 8 19 0 -4
BITMAP
00
00
00
EE
EE
EE
EE
EE
FE
FE
EE
EE
EE
EE
EE
00
00
00
00
ENDCHAR
STARTCHAR I
ENCODING 73
SWIDTH 400 0
DWIDTH 8 0
BBX 8 19 0 -4
BITMAP
00
00
00
7C
7C
38
38
38
38
38
38
38
38
7C
7C
00
00
00
00
ENDCHAR
STARTCHAR J
ENCODING 74
SWIDTH 400 0
DWIDTH 8 0
BBX 8 19 0 -4
BITMAP
00
00
00
0E
0E
0E
0E
0E
0E
0E
EE
EE
EE
FE
7C
00
00
00
00
ENDCHAR
STARTCHAR K
ENCODING 75
SWIDTH 400 0
DWIDTH 8 0
BBX 8 19 0 -4
BITMAP
00
00
00
EE
EE
EE
EE
EE
FC
FC
EE
EE
EE
EE
EE
00
00
00
00
ENDCHAR
STARTCHAR L
ENCODING 76
SWIDTH 400 0
DWIDTH 8 0
BBX 8 19 0 -4
BITMAP
00
00
00
E0
E0
E0
E0
E0
E0
E0
E0
E0
E0
FE
FE
00
00
00
00
ENDCHAR
STARTCHAR M
ENCODING 77
SWIDTH 400 0
DWIDTH 8 0
BBX 8 19 0 -4
BITMAP
00
00
00
C6
EE
FE
FE
FE
FE
FE
EE
EE
EE
EE
EE
00
00
00
00
ENDCHAR
STARTCHAR N
ENCODING 78
SWIDTH 400 0
DWIDTH 8 0
BBX 8 19 0 -4
BITMAP
00
00
00
CE
CE
EE
EE
FE
FE
FE
FE
EE
EE
E6
E6
00
00
00
00
ENDCHAR
STARTCHAR O
ENCODING 79
SWIDTH 400 0
DWIDTH 8 0
BBX 8 19 0 -4
BITMAP
00
00
00
7C
FE
EE
EE
EE
EE
EE
EE
EE
EE
FE
7C
00
00
00
00
ENDCHAR
STARTCHAR P
ENCODING 80
SWIDTH 400 0
DWIDTH 8 0
BBX 8 19 0 -4
BITMAP
00
00
00
FC
FE
EE
EE
EE
FE
FC
E0
E0
E0
E0
E0
00
00
00
00
ENDCHAR
STARTCHAR Q
ENCODING 81
SWIDTH 400 0
DWIDTH 8 0
BBX 8 19 0 -4
BITMAP
00
00
00
7C
FE
EE
EE
EE
EE
EE
EE
EE
FE
FE
7C
1C
1E
00
00
ENDCHAR
STARTCHAR R
ENCODING 82
SWIDTH 400 0
DWIDTH 8 0
BBX 8 19 0 -4
BITMAP
00
00
00
FC
FE
EE
EE
EE
FC
FC
EE
EE
EE
EE
EE
00
00
00
00
ENDCHAR
STARTCHAR S
ENCODING 83
SWIDTH 400 0
DWIDTH 8 0
BBX 8 19 0 -4
BITMAP
00
00
00
7C
FE
E6
E0
E0
78
3C
0E
0E
CE
FE
7C
00
00
00
00
ENDCHAR
STARTCHAR T
ENCODING 84
SWIDTH 400 0
DWIDTH 8 0
BBX 8 19 0 -4
BITMAP
00
00
00
FE
FE
38
38
38
38
38
38
38
38
38
38
00
00
00
00
ENDCHAR
STARTCHAR U
ENCODING 85
SWIDTH 400 0
DWIDTH 8 0
BBX 8 19 0 -4
BITMAP
00
00
00
EE
EE
EE
EE
EE
EE
EE
EE
EE
EE
FE
7C
00
00
00
00
ENDCHAR
STARTCHAR V
ENCODING 86
SWIDTH 400 0
DWIDTH 8 0
BBX 8 19 0 -4
BITMAP
00
00
00
EE
EE
EE
EE
EE
EE
EE
EE
EE
7C
38
10
00
00
00
00
ENDCHAR
STARTCHAR W
ENCODING 87
SWIDTH 400 0
DWIDTH 8 0
BBX 8 19 0 -4
BITMAP
00
00
00
EE
EE
EE
EE
FE
FE
FE
FE
FE
FE
EE
C6
00
00
00
00
ENDCHAR
STARTCHAR X
ENCODING 88
SWIDTH 400 0
DWIDTH 8 0
BBX 8 19 0 -4
BITMAP
00
00
00
EE
EE
EE
EE
7C
38
38
7C
EE
EE
EE
EE
00
00
00
00
ENDCHAR
STARTCHAR Y
ENCODING 89
SWIDTH 400 0
DWIDTH 8 0
BBX 8 19 0 -4
BITMAP
00
00
00
EE
EE
EE
EE
EE
FE
7C
38
38
38
38
38
00
00
00
00
ENDCHAR
STARTCHAR Z
ENCODING 90
SWIDTH 400 0
DWIDTH 8 0
BBX 8 19 0 -4
BITMAP
00
00
00
FE
FE
0E
1C
1C
38
38
70
70
E0
FE
FE
00
00
00
00
ENDCHAR
STARTCHAR bracketleft
ENCODING 91
SWIDTH 400 0
DWIDTH 8 0
BBX 8 19 0 -4
BITMAP
00
00
00
7C
7C
70
70
70
70
70
70
70
70
7C
7C
00
00
00
00
ENDCHAR
STARTCHAR backslash
ENCODING 92
SWIDTH 400 0
DWIDTH 8 0
BBX 8 19 0 -4
BITMAP
00
00
00
E0
E0
E0
70
70
70
38
38
38
1C
1C
1C
00
00
00
00
ENDCHAR
STARTCHAR bracketright
ENCODING 93
SWIDTH 400 0
DWIDTH 8 0
BBX 8 19 0 -4
BITMAP
00
00
00
3E
3E
0E
0E
0E
0E
0E
0E
0E
0E
3E
3E
00
00
00
00
ENDCHAR
STARTCHAR asciicircum
ENCODING 94
SWIDTH 400 0
DWIDTH 8 0
BBX 8 19 0 -4
BITMAP
00
00
00
10
38
7C
EE
00
00
00
00
00
00
00
00
00
00
00
00
ENDCHAR
STARTCHAR underscore
ENCODING 95
SWIDTH 400 0
DWIDTH 8 0
BBX 8 19 0 -4
BITMAP
00
00
00
00
00
00
00
00
00
00
00
00
00
00
00
FF
FF
00
00
ENDCHAR
STARTCHAR grave
ENCODING 96
SWIDTH 400 0
DWIDTH 8 0
BBX 8 19 0 -4
BITMAP
00
00
00
38
38
1C
1C
00
00
00
00
00
00
00
00
00
00
00
00
ENDCHAR
STARTCHAR a
ENCODING 97
SWIDTH 400 0
DWIDTH 8 0
BBX 8 19 0 -4
BITMAP
00
00
00
00
00
00
00
7C
7E
0E
7E
FE
EE
FE
7E
00
00
00
00
ENDCHAR
STARTCHAR b
ENCODING 98
SWIDTH 400 0
DWIDTH 8 0
BBX 8 19 0 -4
BITMAP
00
00
00
E0
E0
E0
E0
FC
FE
EE
EE
EE
EE
FE
FC
00
00
00
00
ENDCHAR
STARTCHAR c
ENCODING 99
SWIDTH 400 0
DWIDTH 8 0
BBX 8 19 0 -4
BITMAP
00
00
00
00
00
00
00
7C
FE
EE
E0
E0
EE
FE
7C
00
00
00
00
ENDCHAR
STARTCHAR d
ENCODING 100
SWIDTH 400 0
DWIDTH 8 0
BBX 8 19 0 -4
BITMAP
00
00
00
0E
0E
0E
0E
7E
FE
EE
EE
EE
EE
FE
7E
00
00
00
00
ENDCHAR
STARTCHAR e
ENCODING 101
SWIDTH 400 0
DWIDTH 8 0
BBX 8 19 0 -4
BITMAP
00
00
00
00
00
00
00
7C
FE
EE
FE
FE
E0
FC
7C
00
00
00
00
ENDCHAR
STARTCHAR f
ENCODING 102
SWIDTH 400 0
DWIDTH 8 0
BBX 8 19 0 -4
BITMAP
00
00
00
3C
7E
76
70
F8
F8
70
70
70
70
70
70
00
00
00
00
ENDCHAR
STARTCHAR g
ENCODING 103
SWIDTH 400 0
DWIDTH 8 0
BBX 8 19 0 -4
BITMAP
00
00
00
00
00
00
00
7E
FE
EE
EE
EE
EE
EE
7E
0E
7E
7C
00
ENDCHAR
STARTCHAR h
ENCODING 104
SWIDTH 400 0
DWIDTH 8 0
BBX 8 19 0 -4
BITMAP
00
00
00
E0
E0
E0
E0
FC
FE
EE
EE
EE
EE
EE
EE
00
00
00
00
ENDCHAR
STARTCHAR i
ENCODING 105
SWIDTH 400 0
DWIDTH 8 0
BBX 8 19 0 -4
BITMAP
00
00
00
00
38
38
00
38
38
38
38
38
38
38
38
00
00
00
00
ENDCHAR
STARTCHAR j
ENCODING 106
SWIDTH 400 0
DWIDTH 8 0
BBX 8 19 0 -4
BITMAP
00
00
00
00
0E
0E
00
0E
0E
0E
0E
0E
0E
0E
0E
EE
FE
7C
00
ENDCHAR
STARTCHAR k
ENCODING 107
SWIDTH 400 0
DWIDTH 8 0
BBX 8 19 0 -4
BITMAP
00
00
00
E0
E0
E0
E0
EE
EE
EE
FC
FC
EE
EE
EE
00
00
00
00
ENDCHAR
STARTCHAR l
ENCODING 108
SWIDTH 400 0
DWIDTH 8 0
BBX 8 19 0 -4
BITMAP
00
00
00
38
38
38
38
38
38
38
38
38
38
38
38
00
00
00
00
ENDCHAR
STARTCHAR m
ENCODING 109
SWIDTH 400 0
DWIDTH 8 0
BBX 8 19 0 -4
BITMAP
00
00
00
00
00
00
00
C6
EE
FE
FE
FE
EE
EE
EE
00
00
00
00
ENDCHAR
STARTCHAR n
ENCODING 110
SWIDTH 400 0
DWIDTH 8 0
BBX 8 19 0 -4
BITMAP
00
00
00
00
00
00
00
DC
FE
EE
EE
EE
EE
EE
EE
00
00
00
00
ENDCHAR
STARTCHAR o
ENCODING 111
SWIDTH 400 0
DWIDTH 8 0
BBX 8 19 0 -4
BITMAP
00
00
00
00
00
00
00
7C
FE
EE
EE
EE
EE
FE
7C
00
00
00
00
ENDCHAR
STARTCHAR p
ENCODING 112
SWIDTH 400 0
DWIDTH 8 0
BBX 8 19 0 -4
BITMAP
00
00
00
00
00
00
00
FC
FE
EE
EE
EE
EE
FE
FC
E0
E0
E0
00
ENDCHAR
STARTCHAR q
ENCODING 113
SWIDTH 400 0
DWIDTH 8 0
BBX 8 19 0 -4
BITMAP
00
00
00
00
00
00
00
7E
FE
EE
EE
EE
EE
FE
7E
0E
0E
0E
00
ENDCHAR
STARTCHAR r
ENCODING 114
SWIDTH 400 0
DWIDTH 8 0
BBX 8 19 0 -4
BITMAP
00
00
00
00
00
00
00
EE
FE
F0
E0
E0
E0
E0
E0
00
00
00
00
ENDCHAR
STARTCHAR s
ENCODING 115
SWIDTH 400 0
DWIDTH 8 0
BBX 8 19 0 -4
BITMAP
00
00
00
00
00
00
00
7C
FC
E0
78
3C
0E
FE
FC
00
00
00
00
ENDCHAR
STARTCHAR t
ENCODING 116
SWIDTH 400 0
DWIDTH 8 0
BBX 8 19 0 -4
BITMAP
00
00
00
00
70
70
70
F8
F8
70
70
70
76
7E
3C
00
00
00
00
ENDCHAR
STARTCHAR u
ENCODING 117
SWIDTH 400 0
DWIDTH 8 0
BBX 8 19 0 -4
BITMAP
00
00
00
00
00
00
00
EE
EE
EE
EE
EE
EE
FE
76
00
00
00
00
ENDCHAR
STARTCHAR v
ENCODING 118
SWIDTH 400 0
DWIDTH 8 0
BBX 8 19 0 -4
BITMAP
00
00
00
00
00
00
00
EE
EE
EE
EE
EE
7C
38
10
00
00
00
00
ENDCHAR
STARTCHAR w
ENCODING 119
SWIDTH 400 0
DWIDTH 8 0
BBX 8 19 0 -4
BITMAP
00
00
00
00
00
00
00
EE
EE
EE
FE
FE
FE
EE
C6
00
00
00
00
ENDCHAR
STARTCHAR x
ENCODING 120
SWIDTH 400 0
DWIDTH 8 0
BBX 8 19 0 -4
BITMAP
00
00
00
00
00
00
00
EE
EE
7C
38
38
7C
EE
EE
00
00
00
00
ENDCHAR
STARTCHAR y
ENCODING 121
SWIDTH 400 0
DWIDTH 8 0
BBX 8 19 0 -4
BITMAP
00
00
00
00
00
00
00
EE
EE
EE
EE
EE
EE
EE
7E
0E
7C
78
00
ENDCHAR
STARTCHAR z
ENCODING 122
SWIDTH 400 0
DWIDTH 8 0
BBX 8 19 0 -4
BITMAP
00
00
00
00
00
00
00
FC
FC
1C
38
70
E0
FC
FC
00
00
00
00
ENDCHAR
STARTCHAR braceleft
ENCODING 123
SWIDTH 400 0
DWIDTH 8 0
BBX 8 19 0 -4
BITMAP
00
00
00
1E
3E
38
38
38
70
70
38
38
38
3E
1E
00
00
00
00
ENDCHAR
STARTCHAR bar
ENCODING 124
SWIDTH 400 0
DWIDTH 8 0
BBX 8 19 0 -4
BITMAP
00
00
00
38
38
38
38
38
00
00
38
38
38
38
38
00
00
00
00
ENDCHAR
STARTCHAR braceright
ENCODING 125
SWIDTH 400 0
DWIDTH 8 0
BBX 8 19 0 -4
BITMAP
00
00
00
78
7C
1C
1C
1C
0E
0E
1C
1C
1C
7C
78
00
00
00
00
ENDCHAR
STARTCHAR asciitilde
ENCODING 126
SWIDTH 400 0
DWIDTH 8 0
BBX 8 19 0 -4
BITMAP
00
00
00
00
76
FE
FE
DC
00
00
00
00
00
00
00
00
00
00
00
ENDCHAR
STARTCHAR uni007F
ENCODING 127
SWIDTH 400 0
DWIDTH 8 0
BBX 8 19 0 -4
BITMAP
00
00
00
00
00
00
00
10
38
7C
EE
EE
EE
FE
00
00
00
00
00
ENDCHAR
STARTCHAR uni00A0
ENCODING 160
SWIDTH 400 0
DWIDTH 8 0
BBX 8 19 0 -4
BITMAP
00
00
00
00
00
00
00
00
00
00
00
00
00
00
00
00
00
00
00
ENDCHAR
STARTCHAR exclamdown
ENCODING 161
SWIDTH 400 0
DWIDTH 8 0
BBX 8 19 0 -4
BITMAP
00
00
00
38
38
00
38
38
38
7C
7C
7C
7C
7C
38
00
00
00
00
ENDCHAR
STARTCHAR cent
ENCODING 162
SWIDTH 400 0
DWIDTH 8 0
BBX 8 19 0 -4
BITMAP
00
00
00
00
38
38
38
7C
EE
EE
E0
E0
EE
EE
7C
38
38
38
00
ENDCHAR
STARTCHAR sterling
ENCODING 163
SWIDTH 400 0
DWIDTH 8 0
BBX 8 19 0 -4
BITMAP
00
00
00
3C
7E
76
70
F8
F8
70
70
70
78
FE
EE
00
00
00
00
ENDCHAR
STARTCHAR yen
ENCODING 165
SWIDTH 400 0
DWIDTH 8 0
BBX 8 19 0 -4
BITMAP
00
00
00
00
C6
EE
7C
38
FE
FE
38
FE
FE
38
38
38
00
00
00
ENDCHAR
STARTCHAR section
ENCODING 167
SWIDTH 400 0
DWIDTH 8 0
BBX 8 19 0 -4
BITMAP
00
00
00
7C
C6
60
38
6C
C6
C6
6C
38
0C
C6
7C
00
00
00
00
ENDCHAR
STARTCHAR ordfeminine
ENCODING 170
SWIDTH 400 0
DWIDTH 8 0
BBX 8 19 0 -4
BITMAP
00
00
00
3C
6C
6C
6C
3E
00
7E
00
00
00
00
00
00
00
00
00
ENDCHAR
STARTCHAR guillemotleft
ENCODING 171
SWIDTH 400 0
DWIDTH 8 0
BBX 8 19 0 -4
BITMAP
00
00
00
00
00
00
36
6C
D8
6C
36
00
00
00
00
00
00
00
00
ENDCHAR
STARTCHAR logicalnot
ENCODING 172
SWIDTH 400 0
DWIDTH 8 0
BBX 8 19 0 -4
BITMAP
00
00
00
00
00
00
00
00
FE
FE
0E
0E
00
00
00
00
00
00
00
ENDCHAR
STARTCHAR degree
ENCODING 176
SWIDTH 400 0
DWIDTH 8 0
BBX 8 19 0 -4
BITMAP
00
00
00
38
6C
6C
6C
38
00
00
00
00
00
00
00
00
00
00
00
ENDCHAR
STARTCHAR plusminus
ENCODING 177
SWIDTH 400 0
DWIDTH 8 0
BBX 8 19 0 -4
BITMAP
00
00
00
00
00
00
00
18
18
7E
7E
18
18
00
7E
00
00
00
00
ENDCHAR
STARTCHAR uni00B2
ENCODING 178
SWIDTH 400 0
DWIDTH 8 0
BBX 8 19 0 -4
BITMAP
00
00
70
C8
98
30
60
C8
F8
00
00
00
00
00
00
00
00
00
00
ENDCHAR
STARTCHAR mu
ENCODING 181
SWIDTH 400 0
DWIDTH 8 0
BBX 8 19 0 -4
BITMAP
00
00
00
00
00
00
00
EE
EE
EE
EE
EE
EE
FE
FC
E0
E0
C0
00
ENDCHAR
STARTCHAR paragraph
ENCODING 182
SWIDTH 400 0
DWIDTH 8 0
BBX 8 19 0 -4
BITMAP
00
00
00
7F
DB
DB
DB
DB
DB
7B
1B
1B
1B
1B
1B
00
00
00
00
ENDCHAR
STARTCHAR periodcentered
ENCODING 183
SWIDTH 400 0
DWIDTH 8 0
BBX 8 19 0 -4
BITMAP
00
00
00
00
00
00
00
00
00
00
18
00
00
00
00
00
00
00
00
ENDCHAR
STARTCHAR ordmasculine
ENCODING 186
SWIDTH 400 0
DWIDTH 8 0
BBX 8 19 0 -4
BITMAP
00
00
00
38
6C
6C
6C
38
00
7C
00
00
00
00
00
00
00
00
00
ENDCHAR
STARTCHAR guillemotright
ENCODING 187
SWIDTH 400 0
DWIDTH 8 0
BBX 8 19 0 -4
BITMAP
00
00
00
00
00
00
D8
6C
36
6C
D8
00
00
00
00
00
00
00
00
ENDCHAR
STARTCHAR onequarter
ENCODING 188
SWIDTH 400 0
DWIDTH 8 0
BBX 8 19 0 -4
BITMAP
00
00
C0
C0
C2
C6
CC
D8
30
66
CE
96
26
7E
06
06
00
00
00
ENDCHAR
STARTCHAR onehalf
ENCODING 189
SWIDTH 400 0
DWIDTH 8 0
BBX 8 19 0 -4
BITMAP
00
00
C0
C0
C2
C6
CC
D8
30
60
DC
86
0C
18
30
7E
00
00
00
ENDCHAR
STARTCHAR questiondown
ENCODING 191
SWIDTH 400 0
DWIDTH 8 0
BBX 8 19 0 -4
BITMAP
00
00
00
38
38
00
38
38
70
70
E0
EE
EE
FE
7C
00
00
00
00
ENDCHAR
STARTCHAR Adieresis
ENCODING 196
SWIDTH 400 0
DWIDTH 8 0
BBX 8 19 0 -4
BITMAP
EE
EE
00
10
38
7C
FE
EE
EE
EE
FE
FE
EE
EE
EE
00
00
00
00
ENDCHAR
STARTCHAR Aring
ENCODING 197
SWIDTH 400 0
DWIDTH 8 0
BBX 8 19 0 -4
BITMAP
38
6C
38
10
38
7C
FE
EE
EE
EE
FE
FE
EE
EE
EE
00
00
00
00
ENDCHAR
STARTCHAR AE
ENCODING 198
SWIDTH 400 0
DWIDTH 8 0
BBX 8 19 0 -4
BITMAP
00
00
00
3E
6C
CC
CC
CC
CC
FE
CC
CC
CC
CC
CE
00
00
00
00
ENDCHAR
STARTCHAR Ccedilla
ENCODING 199
SWIDTH 400 0
DWIDTH 8 0
BBX 8 19 0 -4
BITMAP
00
00
00
7C
FE
EE
EE
E0
E0
E0
E0
EE
EE
FE
7C
0E
7E
7C
00
ENDCHAR
STARTCHAR Eacute
ENCODING 201
SWIDTH 400 0
DWIDTH 8 0
BBX 8 19 0 -4
BITMAP
1C
38
70
FE
FE
E0
E0
E0
F8
F8
E0
E0
E0
FE
FE
00
00
00
00
ENDCHAR
STARTCHAR Ntilde
ENCODING 209
SWIDTH 400 0
DWIDTH 8 0
BBX 8 19 0 -4
BITMAP
76
DC
00
CE
CE
EE
EE
FE
FE
FE
FE
EE
EE
E6
E6
00
00
00
00
ENDCHAR
STARTCHAR Odieresis
ENCODING 214
SWIDTH 400 0
DWIDTH 8 0
BBX 8 19 0 -4
BITMAP
EE
EE
00
7C
FE
EE
EE
EE
EE
EE
EE
EE
EE
FE
7C
00
00
00
00
ENDCHAR
STARTCHAR Udieresis
ENCODING 220
SWIDTH 400 0
DWIDTH 8 0
BBX 8 19 0 -4
BITMAP
EE
EE
00
EE
EE
EE
EE
EE
EE
EE
EE
EE
EE
FE
7C
00
00
00
00
ENDCHAR
STARTCHAR germandbls
ENCODING 223
SWIDTH 400 0
DWIDTH 8 0
BBX 8 19 0 -4
BITMAP
00
00
00
00
00
00
7C
FE
EE
FC
EE
EE
EE
EE
EC
00
00
00
00
ENDCHAR
STARTCHAR agrave
ENCODING 224
SWIDTH 400 0
DWIDTH 8 0
BBX 8 19 0 -4
BITMAP
00
00
00
70
38
1C
00
7C
7E
0E
7E
FE
EE
FE
7E
00
00
00
00
ENDCHAR
STARTCHAR aacute
ENCODING 225
SWIDTH 400 0
DWIDTH 8 0
BBX 8 19 0 -4
BITMAP
00
00
00
1C
38
70
00
7C
7E
0E
7E
FE
EE
FE
7E
00
00
00
00
ENDCHAR
STARTCHAR acircumflex
ENCODING 226
SWIDTH 400 0
DWIDTH 8 0
BBX 8 19 0 -4
BITMAP
00
00
00
38
7C
EE
00
7C
7E
0E
7E
FE
EE
FE
7E
00
00
00
00
ENDCHAR
STARTCHAR adieresis
ENCODING 228
SWIDTH 400 0
DWIDTH 8 0
BBX 8 19 0 -4
BITMAP
00
00
00
00
EE
EE
00
7C
7E
0E
7E
FE
EE
FE
7E
00
00
00
00
ENDCHAR
STARTCHAR aring
ENCODING 229
SWIDTH 400 0
DWIDTH 8 0
BBX 8 19 0 -4
BITMAP
00
00
00
7C
EE
7C
00
7C
7E
0E
7E
FE
EE
FE
7E
00
00
00
00
ENDCHAR
STARTCHAR ae
ENCODING 230
SWIDTH 400 0
DWIDTH 8 0
BBX 8 19 0 -4
BITMAP
00
00
00
00
00
00
00
CC
76
36
7E
D8
D8
D8
6E
00
00
00
00
ENDCHAR
STARTCHAR ccedilla
ENCODING 231
SWIDTH 400 0
DWIDTH 8 0
BBX 8 19 0 -4
BITMAP
00
00
00
00
00
00
00
7C
FE
EE
E0
E0
EE
FE
7C
0E
3E
3C
00
ENDCHAR
STARTCHAR egrave
ENCODING 232
SWIDTH 400 0
DWIDTH 8 0
BBX 8 19 0 -4
BITMAP
00
00
00
70
38
1C
00
7C
FE
EE
FE
FE
E0
FC
7C
00
00
00
00
ENDCHAR
STARTCHAR eacute
ENCODING 233
SWIDTH 400 0
DWIDTH 8 0
BBX 8 19 0 -4
BITMAP
00
00
00
1C
38
70
00
7C
FE
EE
FE
FE
E0
FC
7C
00
00
00
00
ENDCHAR
STARTCHAR ecircumflex
ENCODING 234
SWIDTH 400 0
DWIDTH 8 0
BBX 8 19 0 -4
BITMAP
00
00
00
38
7C
EE
00
7C
FE
EE
FE
FE
E0
FC
7C
00
00
00
00
ENDCHAR
STARTCHAR edieresis
ENCODING 235
SWIDTH 400 0
DWIDTH 8 0
BBX 8 19 0 -4
BITMAP
00
00
00
00
EE
EE
00
7C
FE
EE
FE
FE
E0
FC
7C
00
00
00
00
ENDCHAR
STARTCHAR igrave
ENCODING 236
SWIDTH 400 0
DWIDTH 8 0
BBX 8 19 0 -4
BITMAP
00
00
00
70
38
1C
00
38
38
38
38
38
38
38
38
00
00
00
00
ENDCHAR
STARTCHAR iacute
ENCODING 237
SWIDTH 400 0
DWIDTH 8 0
BBX 8 19 0 -4
BITMAP
00
00
00
1C
38
70
00
38
38
38
38
38
38
38
38
00
00
00
00
ENDCHAR
STARTCHAR icircumflex
ENCODING 238
SWIDTH 400 0
DWIDTH 8 0
BBX 8 19 0 -4
BITMAP
00
00
00
38
7C
EE
00
38
38
38
38
38
38
38
38
00
00
00
00
ENDCHAR
STARTCHAR idieresis
ENCODING 239
SWIDTH 400 0
DWIDTH 8 0
BBX 8 19 0 -4
BITMAP
00
00
00
00
EE
EE
00
38
38
38
38
38
38
38
38
00
00
00
00
ENDCHAR
STARTCHAR ntilde
ENCODING 241
SWIDTH 400 0
DWIDTH 8 0
BBX 8 19 0 -4
BITMAP
00
00
00
76
DC
00
00
DC
FE
EE
EE
EE
EE
EE
EE
00
00
00
00
ENDCHAR
STARTCHAR ograve
ENCODING 242
SWIDTH 400 0
DWIDTH 8 0
BBX 8 19 0 -4
BITMAP
00
00
00
70
38
1C
00
7C
FE
EE
EE
EE
EE
FE
7C
00
00
00
00
ENDCHAR
STARTCHAR oacute
ENCODING 243
SWIDTH 400 0
DWIDTH 8 0
BBX 8 19 0 -4
BITMAP
00
00
00
1C
38
70
00
7C
FE
EE
EE
EE
EE
FE
7C
00
00
00
00
ENDCHAR
STARTCHAR ocircumflex
ENCODING 244
SWIDTH 400 0
DWIDTH 8 0
BBX 8 19 0 -4
BITMAP
00
00
00
38
7C
EE
00
7C
FE
EE
EE
EE
EE
FE
7C
00
00
00
00
ENDCHAR
STARTCHAR odieresis
ENCODING 246
SWIDTH 400 0
DWIDTH 8 0
BBX 8 19 0 -4
BITMAP
00
00
00
00
EE
EE
00
7C
FE
EE
EE
EE
EE
FE
7C
00
00
00
00
ENDCHAR
STARTCHAR divide
ENCODING 247
SWIDTH 400 0
DWIDTH 8 0
BBX 8 19 0 -4
BITMAP
00
00
00
00
00
00
00
18
18
00
7E
7E
00
18
18
00
00
00
00
ENDCHAR
STARTCHAR ugrave
ENCODING 249
SWIDTH 400 0
DWIDTH 8 0
BBX 8 19 0 -4
BITMAP
00
00
00
70
38
1C
00
EE
EE
EE
EE
EE
EE
FE
76
00
00
00
00
ENDCHAR
STARTCHAR uacute
ENCODING 250
SWIDTH 400 0
DWIDTH 8 0
BBX 8 19 0 -4
BITMAP
00
00
00
1C
38
70
00
EE
EE
EE
EE
EE
EE
FE
76
00
00
00
00
ENDCHAR
STARTCHAR ucircumflex
ENCODING 251
SWIDTH 400 0
DWIDTH 8 0
BBX 8 19 0 -4
BITMAP
00
00
00
30
78
CC
00
EE
EE
EE
EE
EE
EE
FE
76
00
00
00
00
ENDCHAR
STARTCHAR udieresis
ENCODING 252
SWIDTH 400 0
DWIDTH 8 0
BBX 8 19 0 -4
BITMAP
00
00
00
00
EE
EE
00
EE
EE
EE
EE
EE
EE
FE
76
00
00
00
00
ENDCHAR
STARTCHAR ydieresis
ENCODING 255
SWIDTH 400 0
DWIDTH 8 0
BBX 8 19 0 -4
BITMAP
00
00
00
00
EE
EE
00
EE
EE
EE
EE
EE
EE
FE
7E
0E
7C
78
00
ENDCHAR
STARTCHAR florin
ENCODING 402
SWIDTH 400 0
DWIDTH 8 0
BBX 8 19 0 -4
BITMAP
00
00
00
00
1E
3F
3B
38
FE
FE
38
38
38
38
38
38
F8
F0
00
ENDCHAR
STARTCHAR Gamma
ENCODING 915
SWIDTH 400 0
DWIDTH 8 0
BBX 8 19 0 -4
BITMAP
00
00
00
FE
C6
C6
C0
C0
C0
C0
C0
C0
C0
C0
C0
00
00
00
00
ENDCHAR
STARTCHAR Theta
ENCODING 920
SWIDTH 400 0
DWIDTH 8 0
BBX 8 19 0 -4
BITMAP
00
00
00
7C
FE
C6
C6
C6
FE
FE
C6
C6
C6
FE
7C
00
00
00
00
ENDCHAR
STARTCHAR Sigma
ENCODING 931
SWIDTH 400 0
DWIDTH 8 0
BBX 8 19 0 -4
BITMAP
00
00
00
00
FE
FE
E0
70
38
1C
38
70
E0
FE
FE
00
00
00
00
ENDCHAR
STARTCHAR Phi
ENCODING 934
SWIDTH 400 0
DWIDTH 8 0
BBX 8 19 0 -4
BITMAP
00
00
78
30
78
CC
CC
CC
CC
CC
CC
CC
78
30
78
00
00
00
00
ENDCHAR
STARTCHAR uni03A9
ENCODING 937
SWIDTH 400 0
DWIDTH 8 0
BBX 8 19 0 -4
BITMAP
00
00
00
38
6C
C6
C6
C6
C6
C6
C6
C6
44
6C
EE
00
00
00
00
ENDCHAR
STARTCHAR alpha
ENCODING 945
SWIDTH 400 0
DWIDTH 8 0
BBX 8 19 0 -4
BITMAP
00
00
00
00
00
00
00
76
DC
D8
D8
D8
D8
DC
76
00
00
00
00
ENDCHAR
STARTCHAR delta
ENCODING 948
SWIDTH 400 0
DWIDTH 8 0
BBX 8 19 0 -4
BITMAP
00
00
00
3C
60
30
18
7C
CC
CC
CC
CC
CC
CC
78
00
00
00
00
ENDCHAR
STARTCHAR epsilon
ENCODING 949
SWIDTH 400 0
DWIDTH 8 0
BBX 8 19 0 -4
BITMAP
00
00
00
1C
30
30
60
60
7C
7C
60
60
30
30
1C
00
00
00
00
ENDCHAR
STARTCHAR pi
ENCODING 960
SWIDTH 400 0
DWIDTH 8 0
BBX 8 19 0 -4
BITMAP
00
00
00
00
00
00
00
FE
6C
6C
6C
6C
6C
6C
6C
00
00
00
00
ENDCHAR
STARTCHAR sigma
ENCODING 963
SWIDTH 400 0
DWIDTH 8 0
BBX 8 19 0 -4
BITMAP
00
00
00
00
00
00
00
7E
CC
CC
CC
CC
CC
CC
78
00
00
00
00
ENDCHAR
STARTCHAR tau
ENCODING 964
SWIDTH 400 0
DWIDTH 8 0
BBX 8 19 0 -4
BITMAP
00
00
00
00
00
00
00
76
DC
18
18
18
18
18
18
00
00
00
00
ENDCHAR
STARTCHAR phi
ENCODING 966
SWIDTH 400 0
DWIDTH 8 0
BBX 8 19 0 -4
BITMAP
00
00
00
00
00
02
06
7C
CE
CE
D6
D6
E6
E6
7C
C0
80
00
00
ENDCHAR
STARTCHAR bullet
ENCODING 8226
SWIDTH 400 0
DWIDTH 8 0
BBX 8 19 0 -4
BITMAP
00
00
00
00
00
00
00
18
3C
3C
3C
18
00
00
00
00
00
00
00
ENDCHAR
STARTCHAR exclamdbl
ENCODING 8252
SWIDTH 400 0
DWIDTH 8 0
BBX 8 19 0 -4
BITMAP
00
00
00
EE
EE
EE
EE
EE
EE
EE
EE
EE
00
EE
EE
00
00
00
00
ENDCHAR
STARTCHAR uni207F
ENCODING 8319
SWIDTH 400 0
DWIDTH 8 0
BBX 8 19 0 -4
BITMAP
00
00
D8
6C
6C
6C
6C
6C
6C
00
00
00
00
00
00
00
00
00
00
ENDCHAR
STARTCHAR peseta
ENCODING 8359
SWIDTH 400 0
DWIDTH 8 0
BBX 8 19 0 -4
BITMAP
00
00
00
F8
FC
CC
CC
FC
F8
C4
CC
DE
CC
CC
C6
00
00
00
00
ENDCHAR
STARTCHAR arrowleft
ENCODING 8592
SWIDTH 400 0
DWIDTH 8 0
BBX 8 19 0 -4
BITMAP
00
00
00
00
00
00
10
30
70
FF
FF
70
30
10
00
00
00
00
00
ENDCHAR
STARTCHAR arrowup
ENCODING 8593
SWIDTH 400 0
DWIDTH 8 0
BBX 8 19 0 -4
BITMAP
38
38
7C
7C
FE
FE
38
38
38
38
38
38
38
38
38
38
38
38
38
ENDCHAR
STARTCHAR arrowright
ENCODING 8594
SWIDTH 400 0
DWIDTH 8 0
BBX 8 19 0 -4
BITMAP
00
00
00
00
00
00
08
0C
0E
FF
FF
0E
0C
08
00
00
00
00
00
ENDCHAR
STARTCHAR arrowdown
ENCODING 8595
SWIDTH 400 0
DWIDTH 8 0
BBX 8 19 0 -4
BITMAP
38
38
38
38
38
38
38
38
38
38
38
38
FE
FE
FE
7C
7C
38
38
ENDCHAR
STARTCHAR arrowboth
ENCODING 8596
SWIDTH 400 0
DWIDTH 8 0
BBX 8 19 0 -4
BITMAP
00
00
00
00
00
00
00
24
66
FF
FF
66
24
00
00
00
00
00
00
ENDCHAR
STARTCHAR arrowupdn
ENCODING 8597
SWIDTH 400 0
DWIDTH 8 0
BBX 8 19 0 -4
BITMAP
38
7C
FE
38
38
38
38
38
38
38
38
38
38
38
38
38
FE
7C
38
ENDCHAR
STARTCHAR arrowupdnbse
ENCODING 8616
SWIDTH 400 0
DWIDTH 8 0
BBX 8 19 0 -4
BITMAP
00
00
00
18
3C
7E
18
18
18
18
18
7E
3C
18
7E
00
00
00
00
ENDCHAR
STARTCHAR uni2219
ENCODING 8729
SWIDTH 400 0
DWIDTH 8 0
BBX 8 19 0 -4
BITMAP
00
00
00
00
00
00
00
00
00
18
18
00
00
00
00
00
00
00
00
ENDCHAR
STARTCHAR radical
ENCODING 8730
SWIDTH 400 0
DWIDTH 8 0
BBX 8 19 0 -4
BITMAP
00
00
00
0F
0C
0C
0C
0C
0C
0C
0C
EC
6C
3C
1C
00
00
00
00
ENDCHAR
STARTCHAR infinity
ENCODING 8734
SWIDTH 400 0
DWIDTH 8 0
BBX 8 19 0 -4
BITMAP
00
00
00
00
00
00
00
7E
DB
DB
DB
7E
00
00
00
00
00
00
00
ENDCHAR
STARTCHAR orthogonal
ENCODING 8735
SWIDTH 400 0
DWIDTH 8 0
BBX 8 19 0 -4
BITMAP
00
00
00
00
00
00
C0
C0
C0
C0
FE
FE
00
00
00
00
00
00
00
ENDCHAR
STARTCHAR intersection
ENCODING 8745
SWIDTH 400 0
DWIDTH 8 0
BBX 8 19 0 -4
BITMAP
00
00
00
00
7C
C6
C6
C6
C6
C6
C6
C6
C6
C6
C6
00
00
00
00
ENDCHAR
STARTCHAR approxequal
ENCODING 8776
SWIDTH 400 0
DWIDTH 8 0
BBX 8 19 0 -4
BITMAP
00
00
00
00
00
00
00
76
DC
00
76
DC
00
00
00
00
00
00
00
ENDCHAR
STARTCHAR equivalence
ENCODING 8801
SWIDTH 400 0
DWIDTH 8 0
BBX 8 19 0 -4
BITMAP
00
00
00
00
00
00
00
FE
00
00
FE
00
00
FE
00
00
00
00
00
ENDCHAR
STARTCHAR lessequal
ENCODING 8804
SWIDTH 400 0
DWIDTH 8 0
BBX 8 19 0 -4
BITMAP
00
00
00
00
0C
18
30
60
C0
60
30
18
0C
00
7C
00
00
00
00
ENDCHAR
STARTCHAR greaterequal
ENCODING 8805
SWIDTH 400 0
DWIDTH 8 0
BBX 8 19 0 -4
BITMAP
00
00
00
00
60
30
18
0C
06
0C
18
30
60
00
7E
00
00
00
00
ENDCHAR
STARTCHAR house
ENCODING 8962
SWIDTH 400 0
DWIDTH 8 0
BBX 8 19 0 -4
BITMAP
00
00
00
00
00
00
00
10
38
7C
EE
EE
EE
FE
00
00
00
00
00
ENDCHAR
STARTCHAR revlogicalnot
ENCODING 8976
SWIDTH 400 0
DWIDTH 8 0
BBX 8 19 0 -4
BITMAP
00
00
00
00
00
00
00
00
FE
FE
E0
E0
00
00
00
00
00
00
00
ENDCHAR
STARTCHAR integraltp
ENCODING 8992
SWIDTH 400 0
DWIDTH 8 0
BBX 8 19 0 -4
BITMAP
00
00
00
0E
1B
1B
18
18
18
18
18
18
18
18
18
18
18
18
18
ENDCHAR
STARTCHAR integralbt
ENCODING 8993
SWIDTH 400 0
DWIDTH 8 0
BBX 8 19 0 -4
BITMAP
18
18
18
18
18
18
18
18
18
18
18
18
D8
F8
70
00
00
00
00
ENDCHAR
STARTCHAR SF100000
ENCODING 9472
SWIDTH 400 0
DWIDTH 8 0
BBX 8 19 0 -4
BITMAP
00
00
00
00
00
00
00
00
00
FF
FF
00
00
00
00
00
00
00
00
ENDCHAR
STARTCHAR SF110000
ENCODING 9474
SWIDTH 400 0
DWIDTH 8 0
BBX 8 19 0 -4
BITMAP
38
38
38
38
38
38
38
38
38
38
38
38
38
38
38
38
38
38
38
ENDCHAR
STARTCHAR SF010000
ENCODING 9484
SWIDTH 400 0
DWIDTH 8 0
BBX 8 19 0 -4
BITMAP
00
00
00
00
00
00
00
00
00
3F
3F
38
38
38
38
38
38
38
38
ENDCHAR
STARTCHAR SF030000
ENCODING 9488
SWIDTH 400 0
DWIDTH 8 0
BBX 8 19 0 -4
BITMAP
00
00
00
00
00
00
00
00
00
F8
F8
38
38
38
38
38
38
38
38
ENDCHAR
STARTCHAR SF020000
ENCODING 9492
SWIDTH 400 0
DWIDTH 8 0
BBX 8 19 0 -4
BITMAP
38
38
38
38
38
38
38
38
38
3F
3F
00
00
00
00
00
00
00
00
ENDCHAR
STARTCHAR SF040000
ENCODING 9496
SWIDTH 400 0
DWIDTH 8 0
BBX 8 19 0 -4
BITMAP
38
38
38
38
38
38
38
38
38
F8
F8
00
00
00
00
00
00
00
00
ENDCHAR
STARTCHAR SF080000
ENCODING 9500
SWIDTH 400 0
DWIDTH 8 0
BBX 8 19 0 -4
BITMAP
38
38
38
38
38
38
38
38
38
3F
3F
38
38
38
38
38
38
38
38
ENDCHAR
STARTCHAR SF090000
ENCODING 9508
SWIDTH 400 0
DWIDTH 8 0
BBX 8 19 0 -4
BITMAP
38
38
38
38
38
38
38
38
38
F8
F8
38
38
38
38
38
38
38
38
ENDCHAR
STARTCHAR SF060000
ENCODING 9516
SWIDTH 400 0
DWIDTH 8 0
BBX 8 19 0 -4
BITMAP
00
00
00
00
00
00
00
00
00
FF
FF
38
38
38
38
38
38
38
38
ENDCHAR
STARTCHAR SF070000
ENCODING 9524
SWIDTH 400 0
DWIDTH 8 0
BBX 8 19 0 -4
BITMAP
38
38
38
38
38
38
38
38
38
FF
FF
00
00
00
00
00
00
00
00
ENDCHAR
STARTCHAR SF050000
ENCODING 9532
SWIDTH 400 0
DWIDTH 8 0
BBX 8 19 0 -4
BITMAP
38
38
38
38
38
38
38
38
38
FF
FF
38
38
38
38
38
38
38
38
ENDCHAR
STARTCHAR SF430000
ENCODING 9552
SWIDTH 400 0
DWIDTH 8 0
BBX 8 19 0 -4
BITMAP
00
00
00
00
00
00
FF
FF
00
FF
FF
00
00
00
00
00
00
00
00
ENDCHAR
STARTCHAR SF240000
ENCODING 9553
SWIDTH 400 0
DWIDTH 8 0
BBX 8 19 0 -4
BITMAP
77
77
77
77
77
77
77
77
77
77
77
77
77
77
77
77
77
77
77
ENDCHAR
STARTCHAR SF510000
ENCODING 9554
SWIDTH 400 0
DWIDTH 8 0
BBX 8 19 0 -4
BITMAP
00
00
00
00
00
00
3F
3F
38
3F
3F
38
38
38
38
38
38
38
38
ENDCHAR
STARTCHAR SF520000
ENCODING 9555
SWIDTH 400 0
DWIDTH 8 0
BBX 8 19 0 -4
BITMAP
00
00
00
00
00
00
00
00
00
7F
7F
77
77
77
77
77
77
77
77
ENDCHAR
STARTCHAR SF390000
ENCODING 9556
SWIDTH 400 0
DWIDTH 8 0
BBX 8 19 0 -4
BITMAP
00
00
00
00
00
00
7F
7F
70
77
77
77
77
77
77
77
77
77
77
ENDCHAR
STARTCHAR SF220000
ENCODING 9557
SWIDTH 400 0
DWIDTH 8 0
BBX 8 19 0 -4
BITMAP
00
00
00
00
00
00
F8
F8
38
F8
F8
38
38
38
38
38
38
38
38
ENDCHAR
STARTCHAR SF210000
ENCODING 9558
SWIDTH 400 0
DWIDTH 8 0
BBX 8 19 0 -4
BITMAP
00
00
00
00
00
00
00
00
00
FF
FF
77
77
77
77
77
77
77
77
ENDCHAR
STARTCHAR SF250000
ENCODING 9559
SWIDTH 400 0
DWIDTH 8 0
BBX 8 19 0 -4
BITMAP
00
00
00
00
00
00
FF
FF
07
F7
F7
77
77
77
77
77
77
77
77
ENDCHAR
STARTCHAR SF500000
ENCODING 9560
SWIDTH 400 0
DWIDTH 8 0
BBX 8 19 0 -4
BITMAP
38
38
38
38
38
38
3F
3F
38
3F
3F
00
00
00
00
00
00
00
00
ENDCHAR
STARTCHAR SF490000
ENCODING 9561
SWIDTH 400 0
DWIDTH 8 0
BBX 8 19 0 -4
BITMAP
77
77
77
77
77
77
77
77
77
7F
7F
00
00
00
00
00
00
00
00
ENDCHAR
STARTCHAR SF380000
ENCODING 9562
SWIDTH 400 0
DWIDTH 8 0
BBX 8 19 0 -4
BITMAP
77
77
77
77
77
77
77
77
70
7F
7F
00
00
00
00
00
00
00
00
ENDCHAR
STARTCHAR SF280000
ENCODING 9563
SWIDTH 400 0
DWIDTH 8 0
BBX 8 19 0 -4
BITMAP
38
38
38
38
38
38
F8
F8
38
F8
F8
00
00
00
00
00
00
00
00
ENDCHAR
STARTCHAR SF270000
ENCODING 9564
SWIDTH 400 0
DWIDTH 8 0
BBX 8 19 0 -4
BITMAP
77
77
77
77
77
77
77
77
77
FF
FF
00
00
00
00
00
00
00
00
ENDCHAR
STARTCHAR SF260000
ENCODING 9565
SWIDTH 400 0
DWIDTH 8 0
BBX 8 19 0 -4
BITMAP
77
77
77
77
77
77
F7
F7
07
FF
FF
00
00
00
00
00
00
00
00
ENDCHAR
STARTCHAR SF360000
ENCODING 9566
SWIDTH 400 0
DWIDTH 8 0
BBX 8 19 0 -4
BITMAP
38
38
38
38
38
38
3F
3F
38
3F
3F
38
38
38
38
38
38
38
38
ENDCHAR
STARTCHAR SF370000
ENCODING 9567
SWIDTH 400 0
DWIDTH 8 0
BBX 8 19 0 -4
BITMAP
77
77
77
77
77
77
77
77
77
77
77
77
77
77
77
77
77
77
77
ENDCHAR
STARTCHAR SF420000
ENCODING 9568
SWIDTH 400 0
DWIDTH 8 0
BBX 8 19 0 -4
BITMAP
77
77
77
77
77
77
77
77
70
77
77
77
77
77
77
77
77
77
77
ENDCHAR
STARTCHAR SF190000
ENCODING 9569
SWIDTH 400 0
DWIDTH 8 0
BBX 8 19 0 -4
BITMAP
38
38
38
38
38
38
F8
F8
38
F8
F8
38
38
38
38
38
38
38
38
ENDCHAR
STARTCHAR SF200000
ENCODING 9570
SWIDTH 400 0
DWIDTH 8 0
BBX 8 19 0 -4
BITMAP
77
77
77
77
77
77
77
77
77
F7
F7
77
77
77
77
77
77
77
77
ENDCHAR
STARTCHAR SF230000
ENCODING 9571
SWIDTH 400 0
DWIDTH 8 0
BBX 8 19 0 -4
BITMAP
77
77
77
77
77
77
F7
F7
07
F7
F7
77
77
77
77
77
77
77
77
ENDCHAR
STARTCHAR SF470000
ENCODING 9572
SWIDTH 400 0
DWIDTH 8 0
BBX 8 19 0 -4
BITMAP
00
00
00
00
00
00
FF
FF
00
FF
FF
38
38
38
38
38
38
38
38
ENDCHAR
STARTCHAR SF480000
ENCODING 9573
SWIDTH 400 0
DWIDTH 8 0
BBX 8 19 0 -4
BITMAP
00
00
00
00
00
00
00
00
00
FF
FF
77
77
77
77
77
77
77
77
ENDCHAR
STARTCHAR SF410000
ENCODING 9574
SWIDTH 400 0
DWIDTH 8 0
BBX 8 19 0 -4
BITMAP
00
00
00
00
00
00
FF
FF
00
F7
F7
77
77
77
77
77
77
77
77
ENDCHAR
STARTCHAR SF450000
ENCODING 9575
SWIDTH 400 0
DWIDTH 8 0
BBX 8 19 0 -4
BITMAP
38
38
38
38
38
38
FF
FF
00
FF
FF
00
00
00
00
00
00
00
00
ENDCHAR
STARTCHAR SF460000
ENCODING 9576
SWIDTH 400 0
DWIDTH 8 0
BBX 8 19 0 -4
BITMAP
77
77
77
77
77
77
77
77
77
FF
FF
00
00
00
00
00
00
00
00
ENDCHAR
STARTCHAR SF400000
ENCODING 9577
SWIDTH 400 0
DWIDTH 8 0
BBX 8 19 0 -4
BITMAP
77
77
77
77
77
77
F7
F7
00
FF
FF
00
00
00
00
00
00
00
00
ENDCHAR
STARTCHAR SF540000
ENCODING 9578
SWIDTH 400 0
DWIDTH 8 0
BBX 8 19 0 -4
BITMAP
38
38
38
38
38
38
FF
FF
38
FF
FF
38
38
38
38
38
38
38
38
ENDCHAR
STARTCHAR SF530000
ENCODING 9579
SWIDTH 400 0
DWIDTH 8 0
BBX 8 19 0 -4
BITMAP
77
77
77
77
77
77
77
77
77
FF
FF
77
77
77
77
77
77
77
77
ENDCHAR
STARTCHAR SF440000
ENCODING 9580
SWIDTH 400 0
DWIDTH 8 0
BBX 8 19 0 -4
BITMAP
77
77
77
77
77
77
F7
F7
00
F7
F7
77
77
77
77
77
77
77
77
ENDCHAR
STARTCHAR upblock
ENCODING 9600
SWIDTH 400 0
DWIDTH 8 0
BBX 8 19 0 -4
BITMAP
FF
FF
FF
FF
FF
FF
FF
FF
FF
00
00
00
00
00
00
00
00
00
00
ENDCHAR
STARTCHAR dnblock
ENCODING 9604
SWIDTH 400 0
DWIDTH 8 0
BBX 8 19 0 -4
BITMAP
00
00
00
00
00
00
00
00
00
FF
FF
FF
FF
FF
FF
FF
FF
FF
FF
ENDCHAR
STARTCHAR block
ENCODING 9608
SWIDTH 400 0
DWIDTH 8 0
BBX 8 19 0 -4
BITMAP
FF
FF
FF
FF
FF
FF
FF
FF
FF
FF
FF
FF
FF
FF
FF
FF
FF
FF
FF
ENDCHAR
STARTCHAR lfblock
ENCODING 9612
SWIDTH 400 0
DWIDTH 8 0
BBX 8 19 0 -4
BITMAP
F0
F0
F0
F0
F0
F0
F0
F0
F0
F0
F0
F0
F0
F0
F0
F0
F0
F0
F0
ENDCHAR
STARTCHAR rtblock
ENCODING 9616
SWIDTH 400 0
DWIDTH 8 0
BBX 8 19 0 -4
BITMAP
0F
0F
0F
0F
0F
0F
0F
0F
0F
0F
0F
0F
0F
0F
0F
0F
0F
0F
0F
ENDCHAR
STARTCHAR ltshade
ENCODING 9617
SWIDTH 400 0
DWIDTH 8 0
BBX 8 19 0 -4
BITMAP
44
11
44
11
44
11
44
11
44
11
44
11
44
11
44
11
44
11
44
ENDCHAR
STARTCHAR shade
ENCODING 9618
SWIDTH 400 0
DWIDTH 8 0
BBX 8 19 0 -4
BITMAP
AA
55
AA
55
AA
55
AA
55
AA
55
AA
55
AA
55
AA
55
AA
55
AA
ENDCHAR
STARTCHAR dkshade
ENCODING 9619
SWIDTH 400 0
DWIDTH 8 0
BBX 8 19 0 -4
BITMAP
77
DD
77
DD
77
DD
77
DD
77
DD
77
DD
77
DD
77
DD
77
DD
77
ENDCHAR
STARTCHAR filledbox
ENCODING 9632
SWIDTH 400 0
DWIDTH 8 0
BBX 8 19 0 -4
BITMAP
00
00
00
00
00
7C
7C
7C
7C
7C
7C
7C
00
00
00
00
00
00
00
ENDCHAR
STARTCHAR filledrect
ENCODING 9644
SWIDTH 400 0
DWIDTH 8 0
BBX 8 19 0 -4
BITMAP
00
00
00
00
00
00
00
00
00
00
FE
FE
FE
FE
FE
00
00
00
00
ENDCHAR
STARTCHAR triagup
ENCODING 9650
SWIDTH 400 0
DWIDTH 8 0
BBX 8 19 0 -4
BITMAP
00
00
00
00
10
10
38
38
7C
7C
FE
FE
00
00
00
00
00
00
00
ENDCHAR
STARTCHAR triagrt
ENCODING 9658
SWIDTH 400 0
DWIDTH 8 0
BBX 8 19 0 -4
BITMAP
00
00
00
80
C0
E0
F8
FE
FE
F8
E0
C0
80
00
00
00
00
00
00
ENDCHAR
STARTCHAR triagdn
ENCODING 9660
SWIDTH 400 0
DWIDTH 8 0
BBX 8 19 0 -4
BITMAP
00
00
00
00
FE
FE
7C
7C
38
38
10
10
00
00
00
00
00
00
00
ENDCHAR
STARTCHAR triaglf
ENCODING 9668
SWIDTH 400 0
DWIDTH 8 0
BBX 8 19 0 -4
BITMAP
00
00
00
02
06
0E
3E
FE
FE
3E
0E
06
02
00
00
00
00
00
00
ENDCHAR
STARTCHAR circle
ENCODING 9675
SWIDTH 400 0
DWIDTH 8 0
BBX 8 19 0 -4
BITMAP
00
00
00
00
00
3C
7E
66
66
66
7E
3C
00
00
00
00
00
00
00
ENDCHAR
STARTCHAR invbullet
ENCODING 9688
SWIDTH 400 0
DWIDTH 8 0
BBX 8 19 0 -4
BITMAP
FF
FF
FF
FF
FF
FF
E7
C3
C3
C3
E7
FF
FF
FF
FF
FF
FF
FF
FF
ENDCHAR
STARTCHAR invcircle
ENCODING 9689
SWIDTH 400 0
DWIDTH 8 0
BBX 8 19 0 -4
BITMAP
FF
FF
FF
FF
FF
C3
99
BD
BD
BD
99
C3
FF
FF
FF
FF
FF
FF
FF
ENDCHAR
STARTCHAR smileface
ENCODING 9786
SWIDTH 400 0
DWIDTH 8 0
BBX 8 19 0 -4
BITMAP
00
00
00
7E
FF
C3
E7
E7
C3
C3
FF
DB
C3
FF
7E
00
00
00
00
ENDCHAR
STARTCHAR invsmileface
ENCODING 9787
SWIDTH 400 0
DWIDTH 8 0
BBX 8 19 0 -4
BITMAP
00
00
00
7E
FF
FF
99
99
FF
FF
81
C3
E7
FF
7E
00
00
00
00
ENDCHAR
STARTCHAR sun
ENCODING 9788
SWIDTH 400 0
DWIDTH 8 0
BBX 8 19 0 -4
BITMAP
00
00
00
18
18
DB
3C
E7
E7
3C
DB
18
18
00
00
00
00
00
00
ENDCHAR
STARTCHAR female
ENCODING 9792
SWIDTH 400 0
DWIDTH 8 0
BBX 8 19 0 -4
BITMAP
00
00
00
7C
EE
EE
EE
EE
7C
38
FE
FE
38
38
00
00
00
00
00
ENDCHAR
STARTCHAR male
ENCODING 9794
SWIDTH 400 0
DWIDTH 8 0
BBX 8 19 0 -4
BITMAP
00
00
00
1E
0E
1E
3A
7C
EE
EE
EE
EE
7C
00
00
00
00
00
00
ENDCHAR
STARTCHAR spade
ENCODING 9824
SWIDTH 400 0
DWIDTH 8 0
BBX 8 19 0 -4
BITMAP
00
00
00
00
18
18
3C
3C
7E
FF
FF
FF
7E
18
3C
7E
00
00
00
ENDCHAR
STARTCHAR club
ENCODING 9827
SWIDTH 400 0
DWIDTH 8 0
BBX 8 19 0 -4
BITMAP
00
00
00
00
18
3C
3C
18
66
FF
FF
66
18
3C
7E
00
00
00
00
ENDCHAR
STARTCHAR heart
ENCODING 9829
SWIDTH 400 0
DWIDTH 8 0
BBX 8 19 0 -4
BITMAP
00
00
00
00
66
FF
FF
FF
FF
7E
7E
3C
3C
18
18
00
00
00
00
ENDCHAR
STARTCHAR diamond
ENCODING 9830
SWIDTH 400 0
DWIDTH 8 0
BBX 8 19 0 -4
BITMAP
00
00
00
18
18
3C
3C
7E
7E
FF
7E
7E
3C
3C
18
18
00
00
00
ENDCHAR
STARTCHAR musicalnote
ENCODING 9834
SWIDTH 400 0
DWIDTH 8 0
BBX 8 19 0 -4
BITMAP
00
00
00
3F
33
33
3F
30
30
30
70
F0
E0
00
00
00
00
00
00
ENDCHAR
STARTCHAR musicalnotedbl
ENCODING 9835
SWIDTH 400 0
DWIDTH 8 0
BBX 8 19 0 -4
BITMAP
00
00
00
7F
63
63
7F
63
63
63
67
E7
E6
C0
00
00
00
00
00
ENDCHAR
STARTCHAR uni3044
ENCODING 12356
SWIDTH 400 0
DWIDTH 8 0
BBX 8 19 0 -4
BITMAP
00
00
00
00
00
00
00
00
00
00
00
00
00
00
00
00
00
00
00
ENDCHAR
STARTCHAR uni3046
ENCODING 12358
SWIDTH 400 0
DWIDTH 8 0
BBX 8 19 0 -4
BITMAP
00
00
00
00
00
00
00
00
00
00
00
00
00
00
00
00
00
00
00
ENDCHAR
STARTCHAR uni304B
ENCODING 12363
SWIDTH 400 0
DWIDTH 8 0
BBX 8 19 0 -4
BITMAP
00
00
00
00
00
00
00
00
00
00
00
00
00
00
00
00
00
00
00
ENDCHAR
STARTCHAR uni3057
ENCODING 12375
SWIDTH 400 0
DWIDTH 8 0
BBX 8 19 0 -4
BITMAP
00
00
00
00
00
00
00
00
00
00
00
00
00
00
00
00
00
00
00
ENDCHAR
STARTCHAR uni306E
ENCODING 12398
SWIDTH 400 0
DWIDTH 8 0
BBX 8 19 0 -4
BITMAP
00
00
00
00
00
00
00
00
00
00
00
00
00
00
00
00
00
00
00
ENDCHAR
STARTCHAR uni3093
ENCODING 12435
SWIDTH 400 0
DWIDTH 8 0
BBX 8 19 0 -4
BITMAP
00
00
00
00
00
00
00
00
00
00
00
00
00
00
00
00
00
00
00
ENDCHAR
STARTCHAR .notdef
ENCODING -1
SWIDTH 400 0
DWIDTH 8 0
BBX 7 13 1 0
BITMAP
FE
82
82
82
82
82
82
82
82
82
82
82
FE
ENDCHAR
ENDFONT
