STARTFONT 2.1
FONT RetroSans-17px
SIZE 17 75 75
FONTBOUNDINGBOX 11 16 -1 -4
STARTPROPERTIES 5
PIXEL_SIZE 17
FONT_ASCENT 12
FONT_DESCENT 4
CHARSET_REGISTRY "ISO10646"
CHARSET_ENCODING "1"
ENDPROPERTIES
CHARS 876
STARTCHAR space
ENCODING 32
SWIDTH 294 0
DWIDTH 5 0
BBX 1 1 0 0
BITMAP
00
ENDCHAR
STARTCHAR exclam
ENCODING 33
SWIDTH 235 0
DWIDTH 4 0
BBX 3 7 0 0
BITMAP
60
60
60
C0
C0
00
C0
ENDCHAR
STARTCHAR quotedbl
ENCODING 34
SWIDTH 353 0
DWIDTH 6 0
BBX 5 3 0 5
BITMAP
D8
D8
48
ENDCHAR
STARTCHAR numbersign
ENCODING 35
SWIDTH 588 0
DWIDTH 10 0
BBX 10 7 -1 0
BITMAP
1980
1980
7FC0
3300
FF80
6600
6600
ENDCHAR
STARTCHAR dollar
ENCODING 36
SWIDTH 353 0
DWIDTH 6 0
BBX 5 9 0 -1
BITMAP
20
70
D8
C0
70
18
D8
70
20
ENDCHAR
STARTCHAR percent
ENCODING 37
SWIDTH 471 0
DWIDTH 8 0
BBX 7 6 0 0
BITMAP
CC
D8
18
30
36
66
ENDCHAR
STARTCHAR ampersand
ENCODING 38
SWIDTH 471 0
DWIDTH 8 0
BBX 7 7 0 0
BITMAP
78
CC
C0
7E
CC
CC
78
ENDCHAR
STARTCHAR quotesingle
ENCODING 39
SWIDTH 176 0
DWIDTH 3 0
BBX 2 3 0 5
BITMAP
C0
C0
40
ENDCHAR
STARTCHAR parenleft
ENCODING 40
SWIDTH 235 0
DWIDTH 4 0
BBX 3 9 0 -1
BITMAP
60
C0
C0
C0
C0
C0
C0
C0
60
ENDCHAR
STARTCHAR parenright
ENCODING 41
SWIDTH 235 0
DWIDTH 4 0
BBX 3 9 0 -1
BITMAP
C0
60
60
60
60
60
60
60
C0
ENDCHAR
STARTCHAR asterisk
ENCODING 42
SWIDTH 353 0
DWIDTH 6 0
BBX 5 4 0 5
BITMAP
20
F8
70
D8
ENDCHAR
STARTCHAR plus
ENCODING 43
SWIDTH 353 0
DWIDTH 6 0
BBX 5 5 0 1
BITMAP
20
20
F8
20
20
ENDCHAR
STARTCHAR comma
ENCODING 44
SWIDTH 235 0
DWIDTH 4 0
BBX 3 3 0 -2
BITMAP
60
60
C0
ENDCHAR
STARTCHAR hyphen
ENCODING 45
SWIDTH 353 0
DWIDTH 6 0
BBX 5 1 0 3
BITMAP
F8
ENDCHAR
STARTCHAR period
ENCODING 46
SWIDTH 176 0
DWIDTH 3 0
BBX 2 2 0 0
BITMAP
C0
C0
ENDCHAR
STARTCHAR slash
ENCODING 47
SWIDTH 353 0
DWIDTH 6 0
BBX 5 8 0 0
BITMAP
18
18
30
30
60
60
C0
C0
ENDCHAR
STARTCHAR zero
ENCODING 48
SWIDTH 412 0
DWIDTH 7 0
BBX 6 7 0 0
BITMAP
78
CC
DC
FC
EC
CC
78
ENDCHAR
STARTCHAR one
ENCODING 49
SWIDTH 235 0
DWIDTH 4 0
BBX 3 7 0 0
BITMAP
E0
60
60
60
60
60
60
ENDCHAR
STARTCHAR two
ENCODING 50
SWIDTH 412 0
DWIDTH 7 0
BBX 6 7 0 0
BITMAP
78
CC
1C
38
70
E0
FC
ENDCHAR
STARTCHAR three
ENCODING 51
SWIDTH 412 0
DWIDTH 7 0
BBX 6 7 0 0
BITMAP
78
CC
0C
38
0C
CC
78
ENDCHAR
STARTCHAR four
ENCODING 52
SWIDTH 412 0
DWIDTH 7 0
BBX 6 7 0 0
BITMAP
6C
6C
CC
FC
0C
0C
0C
ENDCHAR
STARTCHAR five
ENCODING 53
SWIDTH 353 0
DWIDTH 6 0
BBX 5 7 0 0
BITMAP
F8
C0
C0
F0
18
18
F0
ENDCHAR
STARTCHAR six
ENCODING 54
SWIDTH 412 0
DWIDTH 7 0
BBX 6 7 0 0
BITMAP
78
C0
C0
F8
CC
CC
78
ENDCHAR
STARTCHAR seven
ENCODING 55
SWIDTH 353 0
DWIDTH 6 0
BBX 5 7 0 0
BITMAP
F8
18
18
30
30
60
60
ENDCHAR
STARTCHAR eight
ENCODING 56
SWIDTH 412 0
DWIDTH 7 0
BBX 6 7 0 0
BITMAP
78
CC
CC
78
CC
CC
78
ENDCHAR
STARTCHAR nine
ENCODING 57
SWIDTH 412 0
DWIDTH 7 0
BBX 6 7 0 0
BITMAP
78
CC
CC
7C
0C
CC
78
ENDCHAR
STARTCHAR colon
ENCODING 58
SWIDTH 176 0
DWIDTH 3 0
BBX 2 6 0 0
BITMAP
C0
C0
00
00
C0
C0
ENDCHAR
STARTCHAR semicolon
ENCODING 59
SWIDTH 176 0
DWIDTH 3 0
BBX 3 7 -1 -2
BITMAP
60
60
00
00
60
60
C0
ENDCHAR
STARTCHAR less
ENCODING 60
SWIDTH 294 0
DWIDTH 5 0
BBX 4 5 0 1
BITMAP
30
60
C0
60
30
ENDCHAR
STARTCHAR equal
ENCODING 61
SWIDTH 353 0
DWIDTH 6 0
BBX 5 3 0 2
BITMAP
F8
00
F8
ENDCHAR
STARTCHAR greater
ENCODING 62
SWIDTH 294 0
DWIDTH 5 0
BBX 4 5 0 1
BITMAP
C0
60
30
60
C0
ENDCHAR
STARTCHAR question
ENCODING 63
SWIDTH 353 0
DWIDTH 6 0
BBX 5 8 0 0
BITMAP
F0
18
18
30
60
60
00
60
ENDCHAR
STARTCHAR at
ENCODING 64
SWIDTH 412 0
DWIDTH 7 0
BBX 6 7 0 0
BITMAP
78
CC
DC
DC
D8
C0
78
ENDCHAR
STARTCHAR A
ENCODING 65
SWIDTH 412 0
DWIDTH 7 0
BBX 6 7 0 0
BITMAP
78
CC
CC
FC
CC
CC
CC
ENDCHAR
STARTCHAR B
ENCODING 66
SWIDTH 412 0
DWIDTH 7 0
BBX 6 7 0 0
BITMAP
F8
CC
CC
F8
CC
CC
F8
ENDCHAR
STARTCHAR C
ENCODING 67
SWIDTH 412 0
DWIDTH 7 0
BBX 6 7 0 0
BITMAP
78
CC
C0
C0
C0
CC
78
ENDCHAR
STARTCHAR D
ENCODING 68
SWIDTH 412 0
DWIDTH 7 0
BBX 6 7 0 0
BITMAP
F8
CC
CC
CC
CC
CC
F8
ENDCHAR
STARTCHAR E
ENCODING 69
SWIDTH 412 0
DWIDTH 7 0
BBX 6 7 0 0
BITMAP
FC
C0
C0
F0
C0
C0
FC
ENDCHAR
STARTCHAR F
ENCODING 70
SWIDTH 412 0
DWIDTH 7 0
BBX 6 7 0 0
BITMAP
FC
C0
C0
F0
C0
C0
C0
ENDCHAR
STARTCHAR G
ENCODING 71
SWIDTH 412 0
DWIDTH 7 0
BBX 6 7 0 0
BITMAP
7C
C0
C0
CC
CC
CC
7C
ENDCHAR
STARTCHAR H
ENCODING 72
SWIDTH 412 0
DWIDTH 7 0
BBX 6 7 0 0
BITMAP
CC
CC
CC
FC
CC
CC
CC
ENDCHAR
STARTCHAR I
ENCODING 73
SWIDTH 294 0
DWIDTH 5 0
BBX 4 7 0 0
BITMAP
F0
60
60
60
60
60
F0
ENDCHAR
STARTCHAR J
ENCODING 74
SWIDTH 176 0
DWIDTH 3 0
BBX 3 9 -1 -2
BITMAP
60
60
60
60
60
60
60
60
C0
ENDCHAR
STARTCHAR K
ENCODING 75
SWIDTH 412 0
DWIDTH 7 0
BBX 6 7 0 0
BITMAP
CC
CC
CC
F8
CC
CC
CC
ENDCHAR
STARTCHAR L
ENCODING 76
SWIDTH 353 0
DWIDTH 6 0
BBX 5 7 0 0
BITMAP
C0
C0
C0
C0
C0
C0
F8
ENDCHAR
STARTCHAR M
ENCODING 77
SWIDTH 471 0
DWIDTH 8 0
BBX 7 7 0 0
BITMAP
C6
EE
FE
D6
C6
C6
C6
ENDCHAR
STARTCHAR N
ENCODING 78
SWIDTH 412 0
DWIDTH 7 0
BBX 6 7 0 0
BITMAP
CC
CC
EC
FC
DC
CC
CC
ENDCHAR
STARTCHAR O
ENCODING 79
SWIDTH 412 0
DWIDTH 7 0
BBX 6 7 0 0
BITMAP
78
CC
CC
CC
CC
CC
78
ENDCHAR
STARTCHAR P
ENCODING 80
SWIDTH 412 0
DWIDTH 7 0
BBX 6 7 0 0
BITMAP
F8
CC
CC
D8
F0
C0
C0
ENDCHAR
STARTCHAR Q
ENCODING 81
SWIDTH 412 0
DWIDTH 7 0
BBX 6 9 0 -2
BITMAP
78
CC
CC
CC
CC
CC
78
18
0C
ENDCHAR
STARTCHAR R
ENCODING 82
SWIDTH 412 0
DWIDTH 7 0
BBX 6 7 0 0
BITMAP
F8
CC
CC
F8
CC
CC
CC
ENDCHAR
STARTCHAR S
ENCODING 83
SWIDTH 353 0
DWIDTH 6 0
BBX 5 7 0 0
BITMAP
78
C0
C0
70
18
18
F0
ENDCHAR
STARTCHAR T
ENCODING 84
SWIDTH 412 0
DWIDTH 7 0
BBX 6 7 0 0
BITMAP
FC
30
30
30
30
30
30
ENDCHAR
STARTCHAR U
ENCODING 85
SWIDTH 412 0
DWIDTH 7 0
BBX 6 7 0 0
BITMAP
CC
CC
CC
CC
CC
CC
78
ENDCHAR
STARTCHAR V
ENCODING 86
SWIDTH 412 0
DWIDTH 7 0
BBX 6 7 0 0
BITMAP
CC
CC
CC
CC
78
78
30
ENDCHAR
STARTCHAR W
ENCODING 87
SWIDTH 471 0
DWIDTH 8 0
BBX 7 7 0 0
BITMAP
C6
C6
C6
C6
D6
D6
6C
ENDCHAR
STARTCHAR X
ENCODING 88
SWIDTH 412 0
DWIDTH 7 0
BBX 6 7 0 0
BITMAP
CC
CC
CC
78
CC
CC
CC
ENDCHAR
STARTCHAR Y
ENCODING 89
SWIDTH 412 0
DWIDTH 7 0
BBX 6 7 0 0
BITMAP
CC
CC
CC
78
30
30
30
ENDCHAR
STARTCHAR Z
ENCODING 90
SWIDTH 412 0
DWIDTH 7 0
BBX 6 7 0 0
BITMAP
FC
0C
18
30
60
C0
FC
ENDCHAR
STARTCHAR bracketleft
ENCODING 91
SWIDTH 235 0
DWIDTH 4 0
BBX 3 9 0 -1
BITMAP
E0
C0
C0
C0
C0
C0
C0
C0
E0
ENDCHAR
STARTCHAR backslash
ENCODING 92
SWIDTH 353 0
DWIDTH 6 0
BBX 5 8 0 0
BITMAP
C0
C0
60
60
30
30
18
18
ENDCHAR
STARTCHAR bracketright
ENCODING 93
SWIDTH 235 0
DWIDTH 4 0
BBX 3 9 0 -1
BITMAP
E0
60
60
60
60
60
60
60
E0
ENDCHAR
STARTCHAR asciicircum
ENCODING 94
SWIDTH 353 0
DWIDTH 6 0
BBX 5 3 0 5
BITMAP
20
70
D8
ENDCHAR
STARTCHAR underscore
ENCODING 95
SWIDTH 412 0
DWIDTH 7 0
BBX 6 1 0 0
BITMAP
FC
ENDCHAR
STARTCHAR grave
ENCODING 96
SWIDTH 235 0
DWIDTH 4 0
BBX 3 2 0 6
BITMAP
C0
60
ENDCHAR
STARTCHAR a
ENCODING 97
SWIDTH 412 0
DWIDTH 7 0
BBX 6 5 0 0
BITMAP
78
0C
7C
CC
7C
ENDCHAR
STARTCHAR b
ENCODING 98
SWIDTH 412 0
DWIDTH 7 0
BBX 6 7 0 0
BITMAP
C0
C0
F8
CC
CC
CC
F8
ENDCHAR
STARTCHAR c
ENCODING 99
SWIDTH 353 0
DWIDTH 6 0
BBX 5 5 0 0
BITMAP
78
C0
C0
C0
78
ENDCHAR
STARTCHAR d
ENCODING 100
SWIDTH 412 0
DWIDTH 7 0
BBX 6 7 0 0
BITMAP
0C
0C
7C
CC
CC
CC
7C
ENDCHAR
STARTCHAR e
ENCODING 101
SWIDTH 412 0
DWIDTH 7 0
BBX 6 5 0 0
BITMAP
78
CC
FC
C0
7C
ENDCHAR
STARTCHAR f
ENCODING 102
SWIDTH 294 0
DWIDTH 5 0
BBX 5 8 0 0
BITMAP
38
60
60
F0
60
60
60
60
ENDCHAR
STARTCHAR g
ENCODING 103
SWIDTH 412 0
DWIDTH 7 0
BBX 6 7 0 -2
BITMAP
7C
CC
CC
CC
7C
0C
78
ENDCHAR
STARTCHAR h
ENCODING 104
SWIDTH 412 0
DWIDTH 7 0
BBX 6 8 0 0
BITMAP
C0
C0
C0
F8
CC
CC
CC
CC
ENDCHAR
STARTCHAR i
ENCODING 105
SWIDTH 176 0
DWIDTH 3 0
BBX 2 7 0 0
BITMAP
C0
00
C0
C0
C0
C0
C0
ENDCHAR
STARTCHAR j
ENCODING 106
SWIDTH 176 0
DWIDTH 3 0
BBX 3 9 -1 -2
BITMAP
60
00
60
60
60
60
60
60
C0
ENDCHAR
STARTCHAR k
ENCODING 107
SWIDTH 412 0
DWIDTH 7 0
BBX 6 8 0 0
BITMAP
C0
C0
C0
CC
CC
F8
CC
CC
ENDCHAR
STARTCHAR l
ENCODING 108
SWIDTH 235 0
DWIDTH 4 0
BBX 3 8 0 0
BITMAP
C0
C0
C0
C0
C0
C0
C0
60
ENDCHAR
STARTCHAR m
ENCODING 109
SWIDTH 471 0
DWIDTH 8 0
BBX 7 5 0 0
BITMAP
FC
D6
D6
D6
D6
ENDCHAR
STARTCHAR n
ENCODING 110
SWIDTH 412 0
DWIDTH 7 0
BBX 6 5 0 0
BITMAP
F8
CC
CC
CC
CC
ENDCHAR
STARTCHAR o
ENCODING 111
SWIDTH 412 0
DWIDTH 7 0
BBX 6 5 0 0
BITMAP
78
CC
CC
CC
78
ENDCHAR
STARTCHAR p
ENCODING 112
SWIDTH 412 0
DWIDTH 7 0
BBX 6 7 0 -2
BITMAP
F8
CC
CC
CC
F8
C0
C0
ENDCHAR
STARTCHAR q
ENCODING 113
SWIDTH 412 0
DWIDTH 7 0
BBX 6 7 0 -2
BITMAP
7C
CC
CC
CC
7C
0C
0C
ENDCHAR
STARTCHAR r
ENCODING 114
SWIDTH 353 0
DWIDTH 6 0
BBX 5 5 0 0
BITMAP
D8
E0
C0
C0
C0
ENDCHAR
STARTCHAR s
ENCODING 115
SWIDTH 353 0
DWIDTH 6 0
BBX 5 5 0 0
BITMAP
78
C0
70
18
F0
ENDCHAR
STARTCHAR t
ENCODING 116
SWIDTH 294 0
DWIDTH 5 0
BBX 4 7 0 0
BITMAP
C0
C0
F0
C0
C0
C0
70
ENDCHAR
STARTCHAR u
ENCODING 117
SWIDTH 412 0
DWIDTH 7 0
BBX 6 5 0 0
BITMAP
CC
CC
CC
CC
7C
ENDCHAR
STARTCHAR v
ENCODING 118
SWIDTH 412 0
DWIDTH 7 0
BBX 6 5 0 0
BITMAP
CC
CC
78
78
30
ENDCHAR
STARTCHAR w
ENCODING 119
SWIDTH 471 0
DWIDTH 8 0
BBX 7 5 0 0
BITMAP
C6
C6
D6
D6
6C
ENDCHAR
STARTCHAR x
ENCODING 120
SWIDTH 412 0
DWIDTH 7 0
BBX 6 5 0 0
BITMAP
CC
78
30
78
CC
ENDCHAR
STARTCHAR y
ENCODING 121
SWIDTH 412 0
DWIDTH 7 0
BBX 6 7 0 -2
BITMAP
CC
CC
CC
CC
7C
0C
78
ENDCHAR
STARTCHAR z
ENCODING 122
SWIDTH 412 0
DWIDTH 7 0
BBX 6 5 0 0
BITMAP
FC
18
30
60
FC
ENDCHAR
STARTCHAR braceleft
ENCODING 123
SWIDTH 294 0
DWIDTH 5 0
BBX 4 9 0 -1
BITMAP
30
60
60
60
C0
60
60
60
30
ENDCHAR
STARTCHAR bar
ENCODING 124
SWIDTH 176 0
DWIDTH 3 0
BBX 2 9 0 -1
BITMAP
C0
C0
C0
C0
C0
C0
C0
C0
C0
ENDCHAR
STARTCHAR braceright
ENCODING 125
SWIDTH 294 0
DWIDTH 5 0
BBX 4 9 0 -1
BITMAP
C0
60
60
60
30
60
60
60
C0
ENDCHAR
STARTCHAR asciitilde
ENCODING 126
SWIDTH 353 0
DWIDTH 6 0
BBX 5 2 0 2
BITMAP
68
B0
ENDCHAR
STARTCHAR uni00A0
ENCODING 160
SWIDTH 294 0
DWIDTH 5 0
BBX 1 1 0 0
BITMAP
00
ENDCHAR
STARTCHAR exclamdown
ENCODING 161
SWIDTH 235 0
DWIDTH 4 0
BBX 3 7 0 -1
BITMAP
60
00
60
60
60
C0
C0
ENDCHAR
STARTCHAR cent
ENCODING 162
SWIDTH 412 0
DWIDTH 7 0
BBX 6 7 0 -1
BITMAP
30
78
CC
C0
CC
78
30
ENDCHAR
STARTCHAR sterling
ENCODING 163
SWIDTH 412 0
DWIDTH 7 0
BBX 6 7 0 0
BITMAP
3C
60
60
F8
60
60
FC
ENDCHAR
STARTCHAR currency
ENCODING 164
SWIDTH 353 0
DWIDTH 6 0
BBX 5 5 0 1
BITMAP
88
70
50
70
88
ENDCHAR
STARTCHAR yen
ENCODING 165
SWIDTH 412 0
DWIDTH 7 0
BBX 6 7 0 0
BITMAP
CC
CC
FC
78
30
FC
30
ENDCHAR
STARTCHAR brokenbar
ENCODING 166
SWIDTH 176 0
DWIDTH 3 0
BBX 2 9 0 -1
BITMAP
C0
C0
C0
C0
00
C0
C0
C0
C0
ENDCHAR
STARTCHAR section
ENCODING 167
SWIDTH 412 0
DWIDTH 7 0
BBX 6 9 0 -2
BITMAP
78
CC
C0
78
CC
78
0C
CC
78
ENDCHAR
STARTCHAR copyright
ENCODING 169
SWIDTH 471 0
DWIDTH 8 0
BBX 7 8 0 0
BITMAP
7C
82
BA
A2
A2
BA
82
7C
ENDCHAR
STARTCHAR ordfeminine
ENCODING 170
SWIDTH 412 0
DWIDTH 7 0
BBX 6 4 0 3
BITMAP
7C
CC
CC
7C
ENDCHAR
STARTCHAR guillemotleft
ENCODING 171
SWIDTH 471 0
DWIDTH 8 0
BBX 7 5 0 1
BITMAP
36
6C
D8
6C
36
ENDCHAR
STARTCHAR logicalnot
ENCODING 172
SWIDTH 353 0
DWIDTH 6 0
BBX 5 2 0 2
BITMAP
F8
18
ENDCHAR
STARTCHAR uni00AD
ENCODING 173
SWIDTH 235 0
DWIDTH 4 0
BBX 3 1 0 3
BITMAP
E0
ENDCHAR
STARTCHAR registered
ENCODING 174
SWIDTH 471 0
DWIDTH 8 0
BBX 7 8 0 0
BITMAP
7C
82
BA
AA
B2
AA
82
7C
ENDCHAR
STARTCHAR degree
ENCODING 176
SWIDTH 353 0
DWIDTH 6 0
BBX 5 4 0 3
BITMAP
70
D8
D8
70
ENDCHAR
STARTCHAR plusminus
ENCODING 177
SWIDTH 353 0
DWIDTH 6 0
BBX 5 7 0 -1
BITMAP
20
20
F8
20
20
00
F8
ENDCHAR
STARTCHAR uni00B2
ENCODING 178
SWIDTH 353 0
DWIDTH 6 0
BBX 5 4 0 3
BITMAP
F0
38
E0
F8
ENDCHAR
STARTCHAR uni00B3
ENCODING 179
SWIDTH 353 0
DWIDTH 6 0
BBX 5 4 0 3
BITMAP
F0
38
18
F0
ENDCHAR
STARTCHAR mu
ENCODING 181
SWIDTH 412 0
DWIDTH 7 0
BBX 6 7 0 -2
BITMAP
CC
CC
CC
CC
F8
C0
C0
ENDCHAR
STARTCHAR paragraph
ENCODING 182
SWIDTH 471 0
DWIDTH 8 0
BBX 7 7 0 0
BITMAP
7E
F4
F4
74
14
14
14
ENDCHAR
STARTCHAR periodcentered
ENCODING 183
SWIDTH 176 0
DWIDTH 3 0
BBX 2 2 0 3
BITMAP
C0
C0
ENDCHAR
STARTCHAR uni00B9
ENCODING 185
SWIDTH 294 0
DWIDTH 5 0
BBX 4 4 0 3
BITMAP
E0
60
60
F0
ENDCHAR
STARTCHAR ordmasculine
ENCODING 186
SWIDTH 412 0
DWIDTH 7 0
BBX 6 4 0 3
BITMAP
78
CC
CC
78
ENDCHAR
STARTCHAR guillemotright
ENCODING 187
SWIDTH 471 0
DWIDTH 8 0
BBX 7 5 0 1
BITMAP
D8
6C
36
6C
D8
ENDCHAR
STARTCHAR onequarter
ENCODING 188
SWIDTH 529 0
DWIDTH 9 0
BBX 8 9 0 0
BITMAP
C0
42
46
EC
18
35
65
C7
81
ENDCHAR
STARTCHAR onehalf
ENCODING 189
SWIDTH 529 0
DWIDTH 9 0
BBX 8 9 0 0
BITMAP
C0
42
46
EC
18
37
61
C6
87
ENDCHAR
STARTCHAR threequarters
ENCODING 190
SWIDTH 529 0
DWIDTH 9 0
BBX 8 9 0 0
BITMAP
E0
62
26
EC
18
35
65
C7
81
ENDCHAR
STARTCHAR questiondown
ENCODING 191
SWIDTH 353 0
DWIDTH 6 0
BBX 5 8 0 -2
BITMAP
30
30
00
30
70
C0
C0
78
ENDCHAR
STARTCHAR Agrave
ENCODING 192
SWIDTH 412 0
DWIDTH 7 0
BBX 6 10 0 0
BITMAP
60
30
00
78
CC
CC
FC
CC
CC
CC
ENDCHAR
STARTCHAR Aacute
ENCODING 193
SWIDTH 412 0
DWIDTH 7 0
BBX 6 10 0 0
BITMAP
18
30
00
78
CC
CC
FC
CC
CC
CC
ENDCHAR
STARTCHAR Acircumflex
ENCODING 194
SWIDTH 412 0
DWIDTH 7 0
BBX 6 11 0 0
BITMAP
30
78
CC
00
78
CC
CC
FC
CC
CC
CC
ENDCHAR
STARTCHAR Atilde
ENCODING 195
SWIDTH 412 0
DWIDTH 7 0
BBX 6 10 0 0
BITMAP
74
B8
00
78
CC
CC
FC
CC
CC
CC
ENDCHAR
STARTCHAR Adieresis
ENCODING 196
SWIDTH 412 0
DWIDTH 7 0
BBX 6 10 0 0
BITMAP
CC
CC
00
78
CC
CC
FC
CC
CC
CC
ENDCHAR
STARTCHAR Aring
ENCODING 197
SWIDTH 412 0
DWIDTH 7 0
BBX 6 9 0 0
BITMAP
78
48
78
CC
CC
FC
CC
CC
CC
ENDCHAR
STARTCHAR AE
ENCODING 198
SWIDTH 529 0
DWIDTH 9 0
BBX 8 7 0 0
BITMAP
7F
D8
D8
FE
D8
D8
DF
ENDCHAR
STARTCHAR Ccedilla
ENCODING 199
SWIDTH 412 0
DWIDTH 7 0
BBX 6 10 0 -3
BITMAP
78
CC
C0
C0
C0
CC
78
30
18
70
ENDCHAR
STARTCHAR Egrave
ENCODING 200
SWIDTH 412 0
DWIDTH 7 0
BBX 6 10 0 0
BITMAP
60
30
00
FC
C0
C0
F0
C0
C0
FC
ENDCHAR
STARTCHAR Eacute
ENCODING 201
SWIDTH 412 0
DWIDTH 7 0
BBX 6 10 0 0
BITMAP
18
30
00
FC
C0
C0
F0
C0
C0
FC
ENDCHAR
STARTCHAR Ecircumflex
ENCODING 202
SWIDTH 412 0
DWIDTH 7 0
BBX 6 11 0 0
BITMAP
30
78
CC
00
FC
C0
C0
F0
C0
C0
FC
ENDCHAR
STARTCHAR Edieresis
ENCODING 203
SWIDTH 412 0
DWIDTH 7 0
BBX 6 10 0 0
BITMAP
CC
CC
00
FC
C0
C0
F0
C0
C0
FC
ENDCHAR
STARTCHAR Igrave
ENCODING 204
SWIDTH 294 0
DWIDTH 5 0
BBX 4 10 0 0
BITMAP
C0
60
00
F0
60
60
60
60
60
F0
ENDCHAR
STARTCHAR Iacute
ENCODING 205
SWIDTH 294 0
DWIDTH 5 0
BBX 4 10 0 0
BITMAP
30
60
00
F0
60
60
60
60
60
F0
ENDCHAR
STARTCHAR Icircumflex
ENCODING 206
SWIDTH 412 0
DWIDTH 7 0
BBX 6 11 0 0
BITMAP
30
78
CC
00
78
30
30
30
30
30
78
ENDCHAR
STARTCHAR Idieresis
ENCODING 207
SWIDTH 412 0
DWIDTH 7 0
BBX 6 10 0 0
BITMAP
CC
CC
00
78
30
30
30
30
30
78
ENDCHAR
STARTCHAR Eth
ENCODING 208
SWIDTH 412 0
DWIDTH 7 0
BBX 7 7 -1 0
BITMAP
7C
66
66
F6
66
66
7C
ENDCHAR
STARTCHAR Ntilde
ENCODING 209
SWIDTH 412 0
DWIDTH 7 0
BBX 6 10 0 0
BITMAP
74
B8
00
CC
CC
EC
FC
DC
CC
CC
ENDCHAR
STARTCHAR Ograve
ENCODING 210
SWIDTH 412 0
DWIDTH 7 0
BBX 6 10 0 0
BITMAP
60
30
00
78
CC
CC
CC
CC
CC
78
ENDCHAR
STARTCHAR Oacute
ENCODING 211
SWIDTH 412 0
DWIDTH 7 0
BBX 6 10 0 0
BITMAP
18
30
00
78
CC
CC
CC
CC
CC
78
ENDCHAR
STARTCHAR Ocircumflex
ENCODING 212
SWIDTH 412 0
DWIDTH 7 0
BBX 6 11 0 0
BITMAP
30
78
CC
00
78
CC
CC
CC
CC
CC
78
ENDCHAR
STARTCHAR Otilde
ENCODING 213
SWIDTH 412 0
DWIDTH 7 0
BBX 6 10 0 0
BITMAP
74
B8
00
78
CC
CC
CC
CC
CC
78
ENDCHAR
STARTCHAR Odieresis
ENCODING 214
SWIDTH 412 0
DWIDTH 7 0
BBX 6 10 0 0
BITMAP
CC
CC
00
78
CC
CC
CC
CC
CC
78
ENDCHAR
STARTCHAR multiply
ENCODING 215
SWIDTH 294 0
DWIDTH 5 0
BBX 5 5 0 1
BITMAP
D8
F8
70
F8
D8
ENDCHAR
STARTCHAR Oslash
ENCODING 216
SWIDTH 529 0
DWIDTH 9 0
BBX 8 7 0 0
BITMAP
3D
66
6E
7E
76
66
BC
ENDCHAR
STARTCHAR Ugrave
ENCODING 217
SWIDTH 412 0
DWIDTH 7 0
BBX 6 10 0 0
BITMAP
60
30
00
CC
CC
CC
CC
CC
CC
78
ENDCHAR
STARTCHAR Uacute
ENCODING 218
SWIDTH 412 0
DWIDTH 7 0
BBX 6 10 0 0
BITMAP
18
30
00
CC
CC
CC
CC
CC
CC
78
ENDCHAR
STARTCHAR Ucircumflex
ENCODING 219
SWIDTH 412 0
DWIDTH 7 0
BBX 6 11 0 0
BITMAP
30
78
CC
00
CC
CC
CC
CC
CC
CC
78
ENDCHAR
STARTCHAR Udieresis
ENCODING 220
SWIDTH 412 0
DWIDTH 7 0
BBX 6 10 0 0
BITMAP
CC
CC
00
CC
CC
CC
CC
CC
CC
78
ENDCHAR
STARTCHAR Yacute
ENCODING 221
SWIDTH 412 0
DWIDTH 7 0
BBX 6 10 0 0
BITMAP
18
30
00
CC
CC
CC
78
30
30
30
ENDCHAR
STARTCHAR Thorn
ENCODING 222
SWIDTH 412 0
DWIDTH 7 0
BBX 6 7 0 0
BITMAP
C0
F8
CC
CC
CC
F8
C0
ENDCHAR
STARTCHAR germandbls
ENCODING 223
SWIDTH 412 0
DWIDTH 7 0
BBX 6 7 0 0
BITMAP
78
CC
CC
D8
CC
CC
D8
ENDCHAR
STARTCHAR agrave
ENCODING 224
SWIDTH 412 0
DWIDTH 7 0
BBX 6 8 0 0
BITMAP
60
30
00
78
0C
7C
CC
7C
ENDCHAR
STARTCHAR aacute
ENCODING 225
SWIDTH 412 0
DWIDTH 7 0
BBX 6 8 0 0
BITMAP
18
30
00
78
0C
7C
CC
7C
ENDCHAR
STARTCHAR acircumflex
ENCODING 226
SWIDTH 412 0
DWIDTH 7 0
BBX 6 9 0 0
BITMAP
30
78
CC
00
78
0C
7C
CC
7C
ENDCHAR
STARTCHAR atilde
ENCODING 227
SWIDTH 412 0
DWIDTH 7 0
BBX 6 8 0 0
BITMAP
74
B8
00
78
0C
7C
CC
7C
ENDCHAR
STARTCHAR adieresis
ENCODING 228
SWIDTH 412 0
DWIDTH 7 0
BBX 6 8 0 0
BITMAP
CC
CC
00
78
0C
7C
CC
7C
ENDCHAR
STARTCHAR aring
ENCODING 229
SWIDTH 412 0
DWIDTH 7 0
BBX 6 9 0 0
BITMAP
70
50
70
00
78
0C
7C
CC
7C
ENDCHAR
STARTCHAR ae
ENCODING 230
SWIDTH 529 0
DWIDTH 9 0
BBX 8 5 0 0
BITMAP
7E
1B
7F
D8
7F
ENDCHAR
STARTCHAR ccedilla
ENCODING 231
SWIDTH 412 0
DWIDTH 7 0
BBX 6 8 0 -3
BITMAP
78
CC
C0
CC
78
30
18
70
ENDCHAR
STARTCHAR egrave
ENCODING 232
SWIDTH 412 0
DWIDTH 7 0
BBX 6 8 0 0
BITMAP
60
30
00
78
CC
FC
C0
78
ENDCHAR
STARTCHAR eacute
ENCODING 233
SWIDTH 412 0
DWIDTH 7 0
BBX 6 8 0 0
BITMAP
18
30
00
78
CC
FC
C0
78
ENDCHAR
STARTCHAR ecircumflex
ENCODING 234
SWIDTH 412 0
DWIDTH 7 0
BBX 6 9 0 0
BITMAP
30
78
CC
00
78
CC
FC
C0
78
ENDCHAR
STARTCHAR edieresis
ENCODING 235
SWIDTH 412 0
DWIDTH 7 0
BBX 6 8 0 0
BITMAP
CC
CC
00
78
CC
FC
C0
78
ENDCHAR
STARTCHAR igrave
ENCODING 236
SWIDTH 235 0
DWIDTH 4 0
BBX 3 8 0 0
BITMAP
C0
60
00
60
60
60
60
60
ENDCHAR
STARTCHAR iacute
ENCODING 237
SWIDTH 235 0
DWIDTH 4 0
BBX 3 8 0 0
BITMAP
60
C0
00
C0
C0
C0
C0
C0
ENDCHAR
STARTCHAR icircumflex
ENCODING 238
SWIDTH 412 0
DWIDTH 7 0
BBX 6 9 0 0
BITMAP
30
78
CC
00
30
30
30
30
30
ENDCHAR
STARTCHAR idieresis
ENCODING 239
SWIDTH 412 0
DWIDTH 7 0
BBX 6 8 0 0
BITMAP
CC
CC
00
30
30
30
30
30
ENDCHAR
STARTCHAR eth
ENCODING 240
SWIDTH 412 0
DWIDTH 7 0
BBX 6 8 0 0
BITMAP
30
F8
6C
0C
7C
CC
CC
78
ENDCHAR
STARTCHAR ntilde
ENCODING 241
SWIDTH 412 0
DWIDTH 7 0
BBX 6 8 0 0
BITMAP
74
B8
00
F8
CC
CC
CC
CC
ENDCHAR
STARTCHAR ograve
ENCODING 242
SWIDTH 412 0
DWIDTH 7 0
BBX 6 8 0 0
BITMAP
60
30
00
78
CC
CC
CC
78
ENDCHAR
STARTCHAR oacute
ENCODING 243
SWIDTH 412 0
DWIDTH 7 0
BBX 6 8 0 0
BITMAP
18
30
00
78
CC
CC
CC
78
ENDCHAR
STARTCHAR ocircumflex
ENCODING 244
SWIDTH 412 0
DWIDTH 7 0
BBX 6 9 0 0
BITMAP
30
78
CC
00
78
CC
CC
CC
78
ENDCHAR
STARTCHAR otilde
ENCODING 245
SWIDTH 412 0
DWIDTH 7 0
BBX 6 8 0 0
BITMAP
74
B8
00
78
CC
CC
CC
78
ENDCHAR
STARTCHAR odieresis
ENCODING 246
SWIDTH 412 0
DWIDTH 7 0
BBX 6 8 0 0
BITMAP
CC
CC
00
78
CC
CC
CC
78
ENDCHAR
STARTCHAR divide
ENCODING 247
SWIDTH 353 0
DWIDTH 6 0
BBX 5 5 0 1
BITMAP
20
00
F8
00
20
ENDCHAR
STARTCHAR oslash
ENCODING 248
SWIDTH 529 0
DWIDTH 9 0
BBX 8 5 0 0
BITMAP
3D
66
7E
66
BC
ENDCHAR
STARTCHAR ugrave
ENCODING 249
SWIDTH 412 0
DWIDTH 7 0
BBX 6 8 0 0
BITMAP
60
30
00
CC
CC
CC
CC
7C
ENDCHAR
STARTCHAR uacute
ENCODING 250
SWIDTH 412 0
DWIDTH 7 0
BBX 6 8 0 0
BITMAP
18
30
00
CC
CC
CC
CC
7C
ENDCHAR
STARTCHAR ucircumflex
ENCODING 251
SWIDTH 412 0
DWIDTH 7 0
BBX 6 9 0 0
BITMAP
30
78
CC
00
CC
CC
CC
CC
7C
ENDCHAR
STARTCHAR udieresis
ENCODING 252
SWIDTH 412 0
DWIDTH 7 0
BBX 6 8 0 0
BITMAP
CC
CC
00
CC
CC
CC
CC
7C
ENDCHAR
STARTCHAR yacute
ENCODING 253
SWIDTH 412 0
DWIDTH 7 0
BBX 6 10 0 -2
BITMAP
18
30
00
CC
CC
CC
CC
7C
0C
78
ENDCHAR
STARTCHAR thorn
ENCODING 254
SWIDTH 412 0
DWIDTH 7 0
BBX 6 9 0 -2
BITMAP
C0
C0
F8
CC
CC
CC
F8
C0
C0
ENDCHAR
STARTCHAR ydieresis
ENCODING 255
SWIDTH 412 0
DWIDTH 7 0
BBX 6 10 0 -2
BITMAP
CC
CC
00
CC
CC
CC
CC
7C
0C
78
ENDCHAR
STARTCHAR Amacron
ENCODING 256
SWIDTH 412 0
DWIDTH 7 0
BBX 6 9 0 0
BITMAP
78
00
78
CC
CC
FC
CC
CC
CC
ENDCHAR
STARTCHAR amacron
ENCODING 257
SWIDTH 412 0
DWIDTH 7 0
BBX 6 7 0 0
BITMAP
78
00
78
0C
7C
CC
7C
ENDCHAR
STARTCHAR Abreve
ENCODING 258
SWIDTH 412 0
DWIDTH 7 0
BBX 6 10 0 0
BITMAP
48
78
00
78
CC
CC
FC
CC
CC
CC
ENDCHAR
STARTCHAR abreve
ENCODING 259
SWIDTH 412 0
DWIDTH 7 0
BBX 6 5 0 0
BITMAP
78
0C
7C
CC
7C
ENDCHAR
STARTCHAR Aogonek
ENCODING 260
SWIDTH 412 0
DWIDTH 7 0
BBX 7 9 0 -2
BITMAP
78
CC
CC
FC
CC
CC
CC
18
0E
ENDCHAR
STARTCHAR aogonek
ENCODING 261
SWIDTH 412 0
DWIDTH 7 0
BBX 7 8 0 -3
BITMAP
78
0C
7C
CC
7C
0C
18
0E
ENDCHAR
STARTCHAR Cacute
ENCODING 262
SWIDTH 412 0
DWIDTH 7 0
BBX 6 10 0 0
BITMAP
18
30
00
78
CC
C0
C0
C0
CC
78
ENDCHAR
STARTCHAR cacute
ENCODING 263
SWIDTH 412 0
DWIDTH 7 0
BBX 6 8 0 0
BITMAP
18
30
00
78
CC
C0
CC
78
ENDCHAR
STARTCHAR Ccircumflex
ENCODING 264
SWIDTH 412 0
DWIDTH 7 0
BBX 6 11 0 0
BITMAP
30
78
CC
00
78
CC
C0
C0
C0
CC
78
ENDCHAR
STARTCHAR ccircumflex
ENCODING 265
SWIDTH 412 0
DWIDTH 7 0
BBX 6 9 0 0
BITMAP
30
78
CC
00
78
CC
C0
CC
78
ENDCHAR
STARTCHAR Cdotaccent
ENCODING 266
SWIDTH 412 0
DWIDTH 7 0
BBX 6 10 0 0
BITMAP
30
30
00
78
CC
C0
C0
C0
CC
78
ENDCHAR
STARTCHAR cdotaccent
ENCODING 267
SWIDTH 412 0
DWIDTH 7 0
BBX 6 8 0 0
BITMAP
30
30
00
78
CC
C0
CC
78
ENDCHAR
STARTCHAR Ccaron
ENCODING 268
SWIDTH 412 0
DWIDTH 7 0
BBX 6 11 0 0
BITMAP
CC
78
30
00
78
CC
C0
C0
C0
CC
78
ENDCHAR
STARTCHAR ccaron
ENCODING 269
SWIDTH 412 0
DWIDTH 7 0
BBX 6 9 0 0
BITMAP
CC
78
30
00
78
CC
C0
CC
78
ENDCHAR
STARTCHAR Dcaron
ENCODING 270
SWIDTH 412 0
DWIDTH 7 0
BBX 6 11 0 0
BITMAP
CC
78
30
00
F8
CC
CC
CC
CC
CC
F8
ENDCHAR
STARTCHAR dcaron
ENCODING 271
SWIDTH 588 0
DWIDTH 10 0
BBX 9 8 0 0
BITMAP
0D80
0D80
0D00
7C00
CC00
CC00
CC00
7C00
ENDCHAR
STARTCHAR Dcroat
ENCODING 272
SWIDTH 412 0
DWIDTH 7 0
BBX 7 7 -1 0
BITMAP
7C
66
66
F6
66
66
7C
ENDCHAR
STARTCHAR dcroat
ENCODING 273
SWIDTH 471 0
DWIDTH 8 0
BBX 7 8 0 0
BITMAP
0C
1E
0C
7C
CC
CC
CC
7C
ENDCHAR
STARTCHAR Emacron
ENCODING 274
SWIDTH 412 0
DWIDTH 7 0
BBX 6 9 0 0
BITMAP
78
00
FC
C0
C0
F0
C0
C0
FC
ENDCHAR
STARTCHAR emacron
ENCODING 275
SWIDTH 412 0
DWIDTH 7 0
BBX 6 7 0 0
BITMAP
78
00
78
CC
FC
C0
78
ENDCHAR
STARTCHAR Ebreve
ENCODING 276
SWIDTH 412 0
DWIDTH 7 0
BBX 6 10 0 0
BITMAP
48
78
00
FC
C0
C0
F0
C0
C0
FC
ENDCHAR
STARTCHAR ebreve
ENCODING 277
SWIDTH 412 0
DWIDTH 7 0
BBX 6 8 0 0
BITMAP
48
78
00
78
CC
FC
C0
78
ENDCHAR
STARTCHAR Edotaccent
ENCODING 278
SWIDTH 412 0
DWIDTH 7 0
BBX 6 10 0 0
BITMAP
30
30
00
FC
C0
C0
F0
C0
C0
FC
ENDCHAR
STARTCHAR edotaccent
ENCODING 279
SWIDTH 412 0
DWIDTH 7 0
BBX 6 8 0 0
BITMAP
30
30
00
78
CC
FC
C0
78
ENDCHAR
STARTCHAR Eogonek
ENCODING 280
SWIDTH 412 0
DWIDTH 7 0
BBX 7 10 0 -3
BITMAP
FC
C0
C0
F0
C0
C0
FC
0C
18
0E
ENDCHAR
STARTCHAR eogonek
ENCODING 281
SWIDTH 412 0
DWIDTH 7 0
BBX 6 8 0 -3
BITMAP
78
CC
FC
C0
78
18
30
1C
ENDCHAR
STARTCHAR Ecaron
ENCODING 282
SWIDTH 412 0
DWIDTH 7 0
BBX 6 11 0 0
BITMAP
CC
78
30
00
FC
C0
C0
F0
C0
C0
FC
ENDCHAR
STARTCHAR ecaron
ENCODING 283
SWIDTH 412 0
DWIDTH 7 0
BBX 6 9 0 0
BITMAP
CC
78
30
00
78
CC
FC
C0
78
ENDCHAR
STARTCHAR Gcircumflex
ENCODING 284
SWIDTH 412 0
DWIDTH 7 0
BBX 6 11 0 0
BITMAP
30
78
CC
00
7C
C0
C0
CC
CC
CC
7C
ENDCHAR
STARTCHAR gcircumflex
ENCODING 285
SWIDTH 412 0
DWIDTH 7 0
BBX 6 11 0 -2
BITMAP
30
78
CC
00
7C
CC
CC
CC
7C
0C
78
ENDCHAR
STARTCHAR Gbreve
ENCODING 286
SWIDTH 412 0
DWIDTH 7 0
BBX 6 10 0 0
BITMAP
48
78
00
7C
C0
C0
CC
CC
CC
7C
ENDCHAR
STARTCHAR gbreve
ENCODING 287
SWIDTH 412 0
DWIDTH 7 0
BBX 6 10 0 -2
BITMAP
48
78
00
7C
CC
CC
CC
7C
0C
78
ENDCHAR
STARTCHAR Gdotaccent
ENCODING 288
SWIDTH 412 0
DWIDTH 7 0
BBX 6 10 0 0
BITMAP
30
30
00
7C
C0
C0
CC
CC
CC
7C
ENDCHAR
STARTCHAR gdotaccent
ENCODING 289
SWIDTH 412 0
DWIDTH 7 0
BBX 6 10 0 -2
BITMAP
30
30
00
7C
CC
CC
CC
7C
0C
78
ENDCHAR
STARTCHAR uni0122
ENCODING 290
SWIDTH 412 0
DWIDTH 7 0
BBX 6 10 0 -3
BITMAP
7C
C0
C0
CC
CC
CC
7C
00
30
60
ENDCHAR
STARTCHAR uni0123
ENCODING 291
SWIDTH 412 0
DWIDTH 7 0
BBX 6 10 0 -2
BITMAP
18
30
00
7C
CC
CC
CC
7C
0C
78
ENDCHAR
STARTCHAR Hcircumflex
ENCODING 292
SWIDTH 412 0
DWIDTH 7 0
BBX 6 11 0 0
BITMAP
30
78
CC
00
CC
CC
CC
FC
CC
CC
CC
ENDCHAR
STARTCHAR hcircumflex
ENCODING 293
SWIDTH 412 0
DWIDTH 7 0
BBX 6 11 0 0
BITMAP
30
78
CC
00
C0
C0
F8
CC
CC
CC
CC
ENDCHAR
STARTCHAR Hbar
ENCODING 294
SWIDTH 471 0
DWIDTH 8 0
BBX 8 7 -1 0
BITMAP
66
FF
66
7E
66
66
66
ENDCHAR
STARTCHAR hbar
ENCODING 295
SWIDTH 471 0
DWIDTH 8 0
BBX 7 8 0 0
BITMAP
60
F8
60
7C
66
66
66
66
ENDCHAR
STARTCHAR Itilde
ENCODING 296
SWIDTH 353 0
DWIDTH 6 0
BBX 5 10 0 0
BITMAP
68
B0
00
F0
60
60
60
60
60
F0
ENDCHAR
STARTCHAR itilde
ENCODING 297
SWIDTH 353 0
DWIDTH 6 0
BBX 5 8 0 0
BITMAP
68
B0
00
60
60
60
60
60
ENDCHAR
STARTCHAR Imacron
ENCODING 298
SWIDTH 294 0
DWIDTH 5 0
BBX 4 9 0 0
BITMAP
F0
00
F0
60
60
60
60
60
F0
ENDCHAR
STARTCHAR imacron
ENCODING 299
SWIDTH 294 0
DWIDTH 5 0
BBX 4 7 0 0
BITMAP
F0
00
60
60
60
60
60
ENDCHAR
STARTCHAR Ibreve
ENCODING 300
SWIDTH 294 0
DWIDTH 5 0
BBX 4 10 0 0
BITMAP
90
F0
00
F0
60
60
60
60
60
F0
ENDCHAR
STARTCHAR ibreve
ENCODING 301
SWIDTH 294 0
DWIDTH 5 0
BBX 4 8 0 0
BITMAP
90
F0
00
60
60
60
60
60
ENDCHAR
STARTCHAR Iogonek
ENCODING 302
SWIDTH 294 0
DWIDTH 5 0
BBX 5 10 0 -3
BITMAP
F0
60
60
60
60
60
F0
30
60
38
ENDCHAR
STARTCHAR iogonek
ENCODING 303
SWIDTH 235 0
DWIDTH 4 0
BBX 4 9 -1 -2
BITMAP
60
00
60
60
60
60
60
C0
70
ENDCHAR
STARTCHAR Idotaccent
ENCODING 304
SWIDTH 294 0
DWIDTH 5 0
BBX 4 10 0 0
BITMAP
60
60
00
F0
60
60
60
60
60
F0
ENDCHAR
STARTCHAR dotlessi
ENCODING 305
SWIDTH 176 0
DWIDTH 3 0
BBX 2 5 0 0
BITMAP
C0
C0
C0
C0
C0
ENDCHAR
STARTCHAR Jcircumflex
ENCODING 308
SWIDTH 412 0
DWIDTH 7 0
BBX 6 13 0 -2
BITMAP
30
78
CC
00
30
30
30
30
30
30
30
30
60
ENDCHAR
STARTCHAR jcircumflex
ENCODING 309
SWIDTH 412 0
DWIDTH 7 0
BBX 6 11 0 -2
BITMAP
30
78
CC
00
30
30
30
30
30
30
60
ENDCHAR
STARTCHAR uni0136
ENCODING 310
SWIDTH 412 0
DWIDTH 7 0
BBX 6 10 0 -3
BITMAP
CC
CC
CC
F8
CC
CC
CC
00
30
60
ENDCHAR
STARTCHAR uni0137
ENCODING 311
SWIDTH 412 0
DWIDTH 7 0
BBX 6 11 0 -3
BITMAP
C0
C0
C0
CC
CC
F8
CC
CC
00
30
60
ENDCHAR
STARTCHAR kgreenlandic
ENCODING 312
SWIDTH 412 0
DWIDTH 7 0
BBX 6 5 0 0
BITMAP
CC
CC
F8
CC
CC
ENDCHAR
STARTCHAR Lacute
ENCODING 313
SWIDTH 412 0
DWIDTH 7 0
BBX 6 10 0 0
BITMAP
60
C0
00
C0
C0
C0
C0
C0
C0
FC
ENDCHAR
STARTCHAR lacute
ENCODING 314
SWIDTH 235 0
DWIDTH 4 0
BBX 3 11 0 0
BITMAP
60
C0
00
C0
C0
C0
C0
C0
C0
C0
60
ENDCHAR
STARTCHAR uni013B
ENCODING 315
SWIDTH 412 0
DWIDTH 7 0
BBX 6 10 0 -3
BITMAP
C0
C0
C0
C0
C0
C0
FC
00
30
60
ENDCHAR
STARTCHAR uni013C
ENCODING 316
SWIDTH 235 0
DWIDTH 4 0
BBX 3 10 0 -3
BITMAP
C0
C0
C0
C0
C0
C0
60
00
60
C0
ENDCHAR
STARTCHAR Lcaron
ENCODING 317
SWIDTH 412 0
DWIDTH 7 0
BBX 6 7 0 0
BITMAP
D8
D8
D0
C0
C0
C0
FC
ENDCHAR
STARTCHAR lcaron
ENCODING 318
SWIDTH 353 0
DWIDTH 6 0
BBX 5 7 0 0
BITMAP
D8
D8
D0
C0
C0
C0
60
ENDCHAR
STARTCHAR Ldot
ENCODING 319
SWIDTH 412 0
DWIDTH 7 0
BBX 6 7 0 0
BITMAP
C0
C0
C0
D8
D8
C0
FC
ENDCHAR
STARTCHAR ldot
ENCODING 320
SWIDTH 353 0
DWIDTH 6 0
BBX 5 7 0 0
BITMAP
C0
C0
D8
D8
C0
C0
60
ENDCHAR
STARTCHAR Lslash
ENCODING 321
SWIDTH 471 0
DWIDTH 8 0
BBX 7 7 0 0
BITMAP
60
60
60
70
E0
60
7E
ENDCHAR
STARTCHAR lslash
ENCODING 322
SWIDTH 294 0
DWIDTH 5 0
BBX 4 7 0 0
BITMAP
60
60
70
E0
60
60
30
ENDCHAR
STARTCHAR Nacute
ENCODING 323
SWIDTH 412 0
DWIDTH 7 0
BBX 6 10 0 0
BITMAP
18
30
00
CC
CC
EC
FC
DC
CC
CC
ENDCHAR
STARTCHAR nacute
ENCODING 324
SWIDTH 412 0
DWIDTH 7 0
BBX 6 8 0 0
BITMAP
18
30
00
F8
CC
CC
CC
CC
ENDCHAR
STARTCHAR uni0145
ENCODING 325
SWIDTH 412 0
DWIDTH 7 0
BBX 6 10 0 -3
BITMAP
CC
CC
EC
FC
DC
CC
CC
00
30
60
ENDCHAR
STARTCHAR uni0146
ENCODING 326
SWIDTH 412 0
DWIDTH 7 0
BBX 6 8 0 -3
BITMAP
F8
CC
CC
CC
CC
00
30
60
ENDCHAR
STARTCHAR Ncaron
ENCODING 327
SWIDTH 412 0
DWIDTH 7 0
BBX 6 11 0 0
BITMAP
CC
78
30
00
CC
CC
EC
FC
DC
CC
CC
ENDCHAR
STARTCHAR ncaron
ENCODING 328
SWIDTH 412 0
DWIDTH 7 0
BBX 6 9 0 0
BITMAP
CC
78
30
00
F8
CC
CC
CC
CC
ENDCHAR
STARTCHAR napostrophe
ENCODING 329
SWIDTH 471 0
DWIDTH 8 0
BBX 7 8 0 0
BITMAP
60
C0
00
7C
66
66
66
66
ENDCHAR
STARTCHAR Eng
ENCODING 330
SWIDTH 412 0
DWIDTH 7 0
BBX 6 9 0 -2
BITMAP
CC
CC
EC
FC
DC
CC
CC
0C
38
ENDCHAR
STARTCHAR eng
ENCODING 331
SWIDTH 412 0
DWIDTH 7 0
BBX 6 7 0 -2
BITMAP
F8
CC
CC
CC
CC
0C
38
ENDCHAR
STARTCHAR Omacron
ENCODING 332
SWIDTH 412 0
DWIDTH 7 0
BBX 6 9 0 0
BITMAP
78
00
78
CC
CC
CC
CC
CC
78
ENDCHAR
STARTCHAR omacron
ENCODING 333
SWIDTH 412 0
DWIDTH 7 0
BBX 6 7 0 0
BITMAP
78
00
78
CC
CC
CC
78
ENDCHAR
STARTCHAR Obreve
ENCODING 334
SWIDTH 412 0
DWIDTH 7 0
BBX 6 10 0 0
BITMAP
48
78
00
78
CC
CC
CC
CC
CC
78
ENDCHAR
STARTCHAR obreve
ENCODING 335
SWIDTH 412 0
DWIDTH 7 0
BBX 6 8 0 0
BITMAP
48
78
00
78
CC
CC
CC
78
ENDCHAR
STARTCHAR Ohungarumlaut
ENCODING 336
SWIDTH 412 0
DWIDTH 7 0
BBX 6 10 0 0
BITMAP
6C
D8
00
78
CC
CC
CC
CC
CC
78
ENDCHAR
STARTCHAR ohungarumlaut
ENCODING 337
SWIDTH 412 0
DWIDTH 7 0
BBX 6 8 0 0
BITMAP
6C
D8
00
78
CC
CC
CC
78
ENDCHAR
STARTCHAR OE
ENCODING 338
SWIDTH 529 0
DWIDTH 9 0
BBX 8 7 0 0
BITMAP
7F
D8
D8
DE
D8
D8
7F
ENDCHAR
STARTCHAR oe
ENCODING 339
SWIDTH 529 0
DWIDTH 9 0
BBX 8 5 0 0
BITMAP
7E
DB
DF
D8
7F
ENDCHAR
STARTCHAR Racute
ENCODING 340
SWIDTH 412 0
DWIDTH 7 0
BBX 6 10 0 0
BITMAP
18
30
00
F8
CC
CC
F8
CC
CC
CC
ENDCHAR
STARTCHAR racute
ENCODING 341
SWIDTH 353 0
DWIDTH 6 0
BBX 5 8 0 0
BITMAP
30
60
00
D8
E0
C0
C0
C0
ENDCHAR
STARTCHAR uni0156
ENCODING 342
SWIDTH 412 0
DWIDTH 7 0
BBX 6 10 0 -3
BITMAP
F8
CC
CC
F8
CC
CC
CC
00
30
60
ENDCHAR
STARTCHAR uni0157
ENCODING 343
SWIDTH 353 0
DWIDTH 6 0
BBX 5 8 0 -3
BITMAP
D8
E0
C0
C0
C0
00
60
C0
ENDCHAR
STARTCHAR Rcaron
ENCODING 344
SWIDTH 412 0
DWIDTH 7 0
BBX 6 11 0 0
BITMAP
CC
78
30
00
F8
CC
CC
F8
CC
CC
CC
ENDCHAR
STARTCHAR rcaron
ENCODING 345
SWIDTH 412 0
DWIDTH 7 0
BBX 6 9 0 0
BITMAP
CC
78
30
00
DC
E0
C0
C0
C0
ENDCHAR
STARTCHAR Sacute
ENCODING 346
SWIDTH 412 0
DWIDTH 7 0
BBX 6 10 0 0
BITMAP
18
30
00
78
CC
C0
78
0C
CC
78
ENDCHAR
STARTCHAR sacute
ENCODING 347
SWIDTH 412 0
DWIDTH 7 0
BBX 6 8 0 0
BITMAP
18
30
00
7C
C0
78
0C
F8
ENDCHAR
STARTCHAR Scircumflex
ENCODING 348
SWIDTH 412 0
DWIDTH 7 0
BBX 6 11 0 0
BITMAP
30
78
CC
00
78
CC
C0
78
0C
CC
78
ENDCHAR
STARTCHAR scircumflex
ENCODING 349
SWIDTH 412 0
DWIDTH 7 0
BBX 6 9 0 0
BITMAP
30
78
CC
00
7C
C0
78
0C
F8
ENDCHAR
STARTCHAR Scedilla
ENCODING 350
SWIDTH 412 0
DWIDTH 7 0
BBX 6 10 0 -3
BITMAP
7C
C0
C0
78
0C
0C
F8
30
18
70
ENDCHAR
STARTCHAR scedilla
ENCODING 351
SWIDTH 412 0
DWIDTH 7 0
BBX 6 8 0 -3
BITMAP
7C
C0
78
0C
F8
30
18
70
ENDCHAR
STARTCHAR Scaron
ENCODING 352
SWIDTH 412 0
DWIDTH 7 0
BBX 6 11 0 0
BITMAP
CC
78
30
00
78
CC
C0
78
0C
CC
78
ENDCHAR
STARTCHAR scaron
ENCODING 353
SWIDTH 412 0
DWIDTH 7 0
BBX 6 9 0 0
BITMAP
CC
78
30
00
7C
C0
78
0C
F8
ENDCHAR
STARTCHAR uni0162
ENCODING 354
SWIDTH 412 0
DWIDTH 7 0
BBX 6 10 0 -2
BITMAP
FC
30
30
30
30
30
30
30
18
70
ENDCHAR
STARTCHAR uni0163
ENCODING 355
SWIDTH 294 0
DWIDTH 5 0
BBX 4 10 0 -3
BITMAP
C0
C0
E0
C0
C0
C0
70
60
30
E0
ENDCHAR
STARTCHAR Tcaron
ENCODING 356
SWIDTH 412 0
DWIDTH 7 0
BBX 6 12 0 0
BITMAP
CC
78
30
00
FC
30
30
30
30
30
30
30
ENDCHAR
STARTCHAR tcaron
ENCODING 357
SWIDTH 353 0
DWIDTH 6 0
BBX 5 8 0 0
BITMAP
18
D8
C8
F0
C0
C0
C0
70
ENDCHAR
STARTCHAR Tbar
ENCODING 358
SWIDTH 412 0
DWIDTH 7 0
BBX 6 7 0 0
BITMAP
FC
30
30
78
30
30
30
ENDCHAR
STARTCHAR tbar
ENCODING 359
SWIDTH 294 0
DWIDTH 5 0
BBX 5 7 -1 0
BITMAP
60
60
F0
60
F0
60
38
ENDCHAR
STARTCHAR Utilde
ENCODING 360
SWIDTH 412 0
DWIDTH 7 0
BBX 6 10 0 0
BITMAP
74
B8
00
CC
CC
CC
CC
CC
CC
78
ENDCHAR
STARTCHAR utilde
ENCODING 361
SWIDTH 412 0
DWIDTH 7 0
BBX 6 8 0 0
BITMAP
74
B8
00
CC
CC
CC
CC
7C
ENDCHAR
STARTCHAR Umacron
ENCODING 362
SWIDTH 412 0
DWIDTH 7 0
BBX 6 9 0 0
BITMAP
78
00
CC
CC
CC
CC
CC
CC
78
ENDCHAR
STARTCHAR umacron
ENCODING 363
SWIDTH 412 0
DWIDTH 7 0
BBX 6 7 0 0
BITMAP
78
00
CC
CC
CC
CC
7C
ENDCHAR
STARTCHAR Ubreve
ENCODING 364
SWIDTH 412 0
DWIDTH 7 0
BBX 6 10 0 0
BITMAP
48
78
00
CC
CC
CC
CC
CC
CC
78
ENDCHAR
STARTCHAR ubreve
ENCODING 365
SWIDTH 412 0
DWIDTH 7 0
BBX 6 8 0 0
BITMAP
48
78
00
CC
CC
CC
CC
7C
ENDCHAR
STARTCHAR Uring
ENCODING 366
SWIDTH 412 0
DWIDTH 7 0
BBX 6 11 0 0
BITMAP
78
48
78
00
CC
CC
CC
CC
CC
CC
78
ENDCHAR
STARTCHAR uring
ENCODING 367
SWIDTH 412 0
DWIDTH 7 0
BBX 6 9 0 0
BITMAP
78
48
78
00
CC
CC
CC
CC
7C
ENDCHAR
STARTCHAR Uhungarumlaut
ENCODING 368
SWIDTH 412 0
DWIDTH 7 0
BBX 6 10 0 0
BITMAP
6C
D8
00
CC
CC
CC
CC
CC
CC
78
ENDCHAR
STARTCHAR uhungarumlaut
ENCODING 369
SWIDTH 412 0
DWIDTH 7 0
BBX 6 8 0 0
BITMAP
6C
D8
00
CC
CC
CC
CC
7C
ENDCHAR
STARTCHAR Uogonek
ENCODING 370
SWIDTH 412 0
DWIDTH 7 0
BBX 6 10 0 -3
BITMAP
CC
CC
CC
CC
CC
CC
78
30
60
38
ENDCHAR
STARTCHAR uogonek
ENCODING 371
SWIDTH 412 0
DWIDTH 7 0
BBX 7 8 0 -3
BITMAP
CC
CC
CC
CC
7C
0C
18
0E
ENDCHAR
STARTCHAR Wcircumflex
ENCODING 372
SWIDTH 471 0
DWIDTH 8 0
BBX 7 11 0 0
BITMAP
10
38
6C
00
C6
C6
C6
C6
D6
D6
6C
ENDCHAR
STARTCHAR wcircumflex
ENCODING 373
SWIDTH 471 0
DWIDTH 8 0
BBX 7 9 0 0
BITMAP
10
38
6C
00
C6
C6
D6
D6
6C
ENDCHAR
STARTCHAR Ycircumflex
ENCODING 374
SWIDTH 412 0
DWIDTH 7 0
BBX 6 11 0 0
BITMAP
30
78
CC
00
CC
CC
CC
78
30
30
30
ENDCHAR
STARTCHAR ycircumflex
ENCODING 375
SWIDTH 412 0
DWIDTH 7 0
BBX 6 11 0 -2
BITMAP
30
78
CC
00
CC
CC
CC
CC
7C
0C
78
ENDCHAR
STARTCHAR Ydieresis
ENCODING 376
SWIDTH 412 0
DWIDTH 7 0
BBX 6 10 0 0
BITMAP
CC
CC
00
CC
CC
CC
78
30
30
30
ENDCHAR
STARTCHAR Zacute
ENCODING 377
SWIDTH 412 0
DWIDTH 7 0
BBX 6 10 0 0
BITMAP
18
30
00
FC
0C
18
30
60
C0
FC
ENDCHAR
STARTCHAR zacute
ENCODING 378
SWIDTH 412 0
DWIDTH 7 0
BBX 6 8 0 0
BITMAP
18
30
00
FC
0C
78
C0
FC
ENDCHAR
STARTCHAR Zdotaccent
ENCODING 379
SWIDTH 412 0
DWIDTH 7 0
BBX 6 10 0 0
BITMAP
30
30
00
FC
0C
18
30
60
C0
FC
ENDCHAR
STARTCHAR zdotaccent
ENCODING 380
SWIDTH 412 0
DWIDTH 7 0
BBX 6 8 0 0
BITMAP
30
30
00
FC
0C
78
C0
FC
ENDCHAR
STARTCHAR Zcaron
ENCODING 381
SWIDTH 412 0
DWIDTH 7 0
BBX 6 7 0 0
BITMAP
FC
0C
18
30
60
C0
FC
ENDCHAR
STARTCHAR zcaron
ENCODING 382
SWIDTH 412 0
DWIDTH 7 0
BBX 6 9 0 0
BITMAP
CC
78
30
00
FC
0C
78
C0
FC
ENDCHAR
STARTCHAR longs
ENCODING 383
SWIDTH 294 0
DWIDTH 5 0
BBX 4 8 0 0
BITMAP
70
C0
C0
C0
C0
C0
C0
C0
ENDCHAR
STARTCHAR uni0181
ENCODING 385
SWIDTH 588 0
DWIDTH 10 0
BBX 9 7 0 0
BITMAP
7F00
D980
D980
1F00
1980
1980
1F00
ENDCHAR
STARTCHAR uni0186
ENCODING 390
SWIDTH 412 0
DWIDTH 7 0
BBX 6 7 0 0
BITMAP
78
CC
0C
0C
0C
CC
78
ENDCHAR
STARTCHAR uni018F
ENCODING 399
SWIDTH 412 0
DWIDTH 7 0
BBX 6 7 0 0
BITMAP
78
CC
0C
FC
CC
CC
78
ENDCHAR
STARTCHAR florin
ENCODING 402
SWIDTH 294 0
DWIDTH 5 0
BBX 4 9 0 -2
BITMAP
30
60
60
F0
60
60
60
60
C0
ENDCHAR
STARTCHAR uni0197
ENCODING 407
SWIDTH 294 0
DWIDTH 5 0
BBX 4 7 0 0
BITMAP
F0
60
60
F0
60
60
F0
ENDCHAR
STARTCHAR Ohorn
ENCODING 416
SWIDTH 529 0
DWIDTH 9 0
BBX 8 7 0 0
BITMAP
7B
CF
CE
CC
CC
CC
78
ENDCHAR
STARTCHAR ohorn
ENCODING 417
SWIDTH 529 0
DWIDTH 9 0
BBX 8 5 0 0
BITMAP
7B
CF
CC
CC
78
ENDCHAR
STARTCHAR uni01A9
ENCODING 425
SWIDTH 353 0
DWIDTH 6 0
BBX 5 7 0 0
BITMAP
F8
C0
60
30
60
C0
F8
ENDCHAR
STARTCHAR uni01B1
ENCODING 433
SWIDTH 412 0
DWIDTH 7 0
BBX 6 7 0 0
BITMAP
CC
48
CC
CC
CC
CC
78
ENDCHAR
STARTCHAR uni01C0
ENCODING 448
SWIDTH 235 0
DWIDTH 4 0
BBX 2 7 0 0
BITMAP
C0
C0
C0
C0
C0
C0
C0
ENDCHAR
STARTCHAR uni01C1
ENCODING 449
SWIDTH 412 0
DWIDTH 7 0
BBX 5 7 0 0
BITMAP
D8
D8
D8
D8
D8
D8
D8
ENDCHAR
STARTCHAR uni01C2
ENCODING 450
SWIDTH 412 0
DWIDTH 7 0
BBX 6 7 0 0
BITMAP
30
30
FC
30
FC
30
30
ENDCHAR
STARTCHAR uni01C3
ENCODING 451
SWIDTH 294 0
DWIDTH 5 0
BBX 4 7 0 0
BITMAP
60
F0
F0
60
60
00
60
ENDCHAR
STARTCHAR uni0218
ENCODING 536
SWIDTH 353 0
DWIDTH 6 0
BBX 5 10 0 -3
BITMAP
78
C0
C0
70
18
18
F0
30
30
60
ENDCHAR
STARTCHAR uni0219
ENCODING 537
SWIDTH 353 0
DWIDTH 6 0
BBX 5 8 0 -3
BITMAP
78
C0
70
18
F0
30
30
60
ENDCHAR
STARTCHAR uni021A
ENCODING 538
SWIDTH 412 0
DWIDTH 7 0
BBX 6 10 0 -3
BITMAP
FC
30
30
30
30
30
30
18
18
30
ENDCHAR
STARTCHAR uni021B
ENCODING 539
SWIDTH 294 0
DWIDTH 5 0
BBX 4 10 0 -3
BITMAP
C0
C0
F0
C0
C0
C0
70
60
60
C0
ENDCHAR
STARTCHAR uni021C
ENCODING 540
SWIDTH 412 0
DWIDTH 7 0
BBX 6 6 0 -2
BITMAP
3C
0C
0C
0C
0C
F8
ENDCHAR
STARTCHAR uni021D
ENCODING 541
SWIDTH 412 0
DWIDTH 7 0
BBX 6 7 0 -2
BITMAP
78
CC
0C
38
0C
0C
F8
ENDCHAR
STARTCHAR uni0224
ENCODING 548
SWIDTH 412 0
DWIDTH 7 0
BBX 6 9 0 -2
BITMAP
FC
0C
18
30
60
C0
FC
0C
38
ENDCHAR
STARTCHAR uni0225
ENCODING 549
SWIDTH 412 0
DWIDTH 7 0
BBX 6 7 0 -2
BITMAP
FC
18
30
60
FC
0C
38
ENDCHAR
STARTCHAR uni0226
ENCODING 550
SWIDTH 412 0
DWIDTH 7 0
BBX 5 7 1 0
BITMAP
F0
18
18
18
18
18
18
ENDCHAR
STARTCHAR uni022E
ENCODING 558
SWIDTH 412 0
DWIDTH 7 0
BBX 6 9 0 0
BITMAP
30
00
78
CC
CC
CC
CC
CC
78
ENDCHAR
STARTCHAR uni022F
ENCODING 559
SWIDTH 412 0
DWIDTH 7 0
BBX 6 7 0 0
BITMAP
30
00
78
CC
CC
CC
78
ENDCHAR
STARTCHAR uni0232
ENCODING 562
SWIDTH 412 0
DWIDTH 7 0
BBX 6 9 0 0
BITMAP
78
00
CC
CC
CC
78
30
30
30
ENDCHAR
STARTCHAR uni0233
ENCODING 563
SWIDTH 412 0
DWIDTH 7 0
BBX 6 9 0 -2
BITMAP
78
00
CC
CC
CC
CC
7C
0C
78
ENDCHAR
STARTCHAR uni0237
ENCODING 567
SWIDTH 235 0
DWIDTH 4 0
BBX 3 7 0 -2
BITMAP
60
60
60
60
60
60
C0
ENDCHAR
STARTCHAR uni0238
ENCODING 568
SWIDTH 529 0
DWIDTH 9 0
BBX 8 7 0 0
BITMAP
18
18
7E
DB
DB
DB
7E
ENDCHAR
STARTCHAR uni0239
ENCODING 569
SWIDTH 529 0
DWIDTH 9 0
BBX 8 7 0 -2
BITMAP
7E
DB
DB
DB
7E
18
18
ENDCHAR
STARTCHAR uni0241
ENCODING 577
SWIDTH 412 0
DWIDTH 7 0
BBX 6 7 0 0
BITMAP
78
CC
0C
18
30
30
30
ENDCHAR
STARTCHAR uni0242
ENCODING 578
SWIDTH 412 0
DWIDTH 7 0
BBX 6 5 0 0
BITMAP
78
CC
0C
38
30
ENDCHAR
STARTCHAR uni0244
ENCODING 580
SWIDTH 529 0
DWIDTH 9 0
BBX 8 7 0 0
BITMAP
66
66
FF
66
66
66
3C
ENDCHAR
STARTCHAR uni0245
ENCODING 581
SWIDTH 412 0
DWIDTH 7 0
BBX 6 7 0 0
BITMAP
30
78
78
CC
CC
CC
CC
ENDCHAR
STARTCHAR uni0248
ENCODING 584
SWIDTH 294 0
DWIDTH 5 0
BBX 4 9 0 -2
BITMAP
60
60
60
F0
60
60
60
60
C0
ENDCHAR
STARTCHAR uni0249
ENCODING 585
SWIDTH 294 0
DWIDTH 5 0
BBX 4 9 0 -2
BITMAP
60
00
60
60
F0
60
60
60
C0
ENDCHAR
STARTCHAR uni0250
ENCODING 592
SWIDTH 412 0
DWIDTH 7 0
BBX 6 5 0 0
BITMAP
F8
CC
F8
C0
78
ENDCHAR
STARTCHAR uni0251
ENCODING 593
SWIDTH 412 0
DWIDTH 7 0
BBX 6 5 0 0
BITMAP
7C
CC
CC
CC
7C
ENDCHAR
STARTCHAR uni0252
ENCODING 594
SWIDTH 412 0
DWIDTH 7 0
BBX 6 5 0 0
BITMAP
F8
CC
CC
CC
F8
ENDCHAR
STARTCHAR uni0253
ENCODING 595
SWIDTH 412 0
DWIDTH 7 0
BBX 6 8 0 0
BITMAP
60
C0
C0
F8
CC
CC
CC
F8
ENDCHAR
STARTCHAR uni0254
ENCODING 596
SWIDTH 412 0
DWIDTH 7 0
BBX 6 5 0 0
BITMAP
78
CC
0C
CC
78
ENDCHAR
STARTCHAR uni0255
ENCODING 597
SWIDTH 412 0
DWIDTH 7 0
BBX 6 6 0 -1
BITMAP
78
C0
D8
EC
78
C0
ENDCHAR
STARTCHAR uni0258
ENCODING 600
SWIDTH 412 0
DWIDTH 7 0
BBX 6 5 0 0
BITMAP
78
CC
FC
0C
F8
ENDCHAR
STARTCHAR uni0259
ENCODING 601
SWIDTH 412 0
DWIDTH 7 0
BBX 6 5 0 0
BITMAP
F8
0C
FC
CC
78
ENDCHAR
STARTCHAR uni025A
ENCODING 602
SWIDTH 529 0
DWIDTH 9 0
BBX 8 5 0 0
BITMAP
F0
18
FF
DB
70
ENDCHAR
STARTCHAR uni025B
ENCODING 603
SWIDTH 353 0
DWIDTH 6 0
BBX 5 5 0 0
BITMAP
78
C0
70
C0
78
ENDCHAR
STARTCHAR uni025C
ENCODING 604
SWIDTH 353 0
DWIDTH 6 0
BBX 5 5 0 0
BITMAP
F0
18
70
18
F0
ENDCHAR
STARTCHAR uni025D
ENCODING 605
SWIDTH 529 0
DWIDTH 9 0
BBX 8 5 0 0
BITMAP
F0
1F
73
18
F0
ENDCHAR
STARTCHAR uni025E
ENCODING 606
SWIDTH 412 0
DWIDTH 7 0
BBX 6 5 0 0
BITMAP
78
CC
D8
CC
78
ENDCHAR
STARTCHAR uni025F
ENCODING 607
SWIDTH 294 0
DWIDTH 5 0
BBX 4 7 0 -2
BITMAP
60
60
F0
60
60
60
C0
ENDCHAR
STARTCHAR uni0261
ENCODING 609
SWIDTH 412 0
DWIDTH 7 0
BBX 6 7 0 -2
BITMAP
7C
CC
CC
CC
7C
0C
78
ENDCHAR
STARTCHAR uni0262
ENCODING 610
SWIDTH 412 0
DWIDTH 7 0
BBX 6 5 0 0
BITMAP
7C
C0
DC
CC
7C
ENDCHAR
STARTCHAR uni0263
ENCODING 611
SWIDTH 412 0
DWIDTH 7 0
BBX 6 7 0 -2
BITMAP
CC
CC
CC
CC
78
CC
78
ENDCHAR
STARTCHAR uni0264
ENCODING 612
SWIDTH 471 0
DWIDTH 8 0
BBX 7 5 0 0
BITMAP
C6
EE
7C
28
38
ENDCHAR
STARTCHAR uni0265
ENCODING 613
SWIDTH 412 0
DWIDTH 7 0
BBX 6 7 0 -2
BITMAP
CC
CC
CC
CC
7C
0C
0C
ENDCHAR
STARTCHAR uni0266
ENCODING 614
SWIDTH 412 0
DWIDTH 7 0
BBX 6 8 0 0
BITMAP
60
C0
C0
F8
CC
CC
CC
CC
ENDCHAR
STARTCHAR uni0267
ENCODING 615
SWIDTH 412 0
DWIDTH 7 0
BBX 6 10 0 -2
BITMAP
60
C0
C0
F8
CC
CC
CC
CC
0C
38
ENDCHAR
STARTCHAR uni0268
ENCODING 616
SWIDTH 294 0
DWIDTH 5 0
BBX 4 7 0 0
BITMAP
60
00
60
60
F0
60
60
ENDCHAR
STARTCHAR uni0269
ENCODING 617
SWIDTH 235 0
DWIDTH 4 0
BBX 3 5 0 0
BITMAP
C0
C0
C0
C0
60
ENDCHAR
STARTCHAR uni026A
ENCODING 618
SWIDTH 294 0
DWIDTH 5 0
BBX 4 5 0 0
BITMAP
F0
60
60
60
F0
ENDCHAR
STARTCHAR uni026B
ENCODING 619
SWIDTH 412 0
DWIDTH 7 0
BBX 6 8 0 0
BITMAP
30
30
30
74
B8
30
30
18
ENDCHAR
STARTCHAR uni026C
ENCODING 620
SWIDTH 353 0
DWIDTH 6 0
BBX 5 8 0 0
BITMAP
30
30
F0
B0
F8
30
30
18
ENDCHAR
STARTCHAR uni026D
ENCODING 621
SWIDTH 235 0
DWIDTH 4 0
BBX 3 10 0 -2
BITMAP
C0
C0
C0
C0
C0
C0
C0
C0
C0
60
ENDCHAR
STARTCHAR uni026E
ENCODING 622
SWIDTH 412 0
DWIDTH 7 0
BBX 6 10 0 -2
BITMAP
C0
C0
C0
FC
CC
D8
CC
6C
0C
38
ENDCHAR
STARTCHAR uni026F
ENCODING 623
SWIDTH 471 0
DWIDTH 8 0
BBX 7 5 0 0
BITMAP
D6
D6
D6
D6
7E
ENDCHAR
STARTCHAR uni0270
ENCODING 624
SWIDTH 471 0
DWIDTH 8 0
BBX 7 7 0 -2
BITMAP
D6
D6
D6
D6
7E
06
06
ENDCHAR
STARTCHAR uni0271
ENCODING 625
SWIDTH 471 0
DWIDTH 8 0
BBX 7 7 0 -2
BITMAP
FC
D6
D6
D6
D6
06
0C
ENDCHAR
STARTCHAR uni0272
ENCODING 626
SWIDTH 412 0
DWIDTH 7 0
BBX 7 7 -1 -2
BITMAP
7C
66
66
66
66
40
C0
ENDCHAR
STARTCHAR uni0273
ENCODING 627
SWIDTH 412 0
DWIDTH 7 0
BBX 7 7 0 -2
BITMAP
F8
CC
CC
CC
CC
0C
06
ENDCHAR
STARTCHAR uni0274
ENCODING 628
SWIDTH 412 0
DWIDTH 7 0
BBX 6 5 0 0
BITMAP
CC
EC
FC
DC
CC
ENDCHAR
STARTCHAR uni0275
ENCODING 629
SWIDTH 412 0
DWIDTH 7 0
BBX 6 5 0 0
BITMAP
78
CC
FC
CC
78
ENDCHAR
STARTCHAR uni0276
ENCODING 630
SWIDTH 471 0
DWIDTH 8 0
BBX 7 5 0 0
BITMAP
7E
D8
DE
D8
7E
ENDCHAR
STARTCHAR uni0277
ENCODING 631
SWIDTH 471 0
DWIDTH 8 0
BBX 7 5 0 0
BITMAP
7C
C6
D6
D6
6C
ENDCHAR
STARTCHAR uni0278
ENCODING 632
SWIDTH 471 0
DWIDTH 8 0
BBX 7 9 0 -2
BITMAP
10
10
7C
D6
D6
D6
7C
10
10
ENDCHAR
STARTCHAR uni0279
ENCODING 633
SWIDTH 353 0
DWIDTH 6 0
BBX 5 5 0 0
BITMAP
18
18
18
38
D8
ENDCHAR
STARTCHAR uni027A
ENCODING 634
SWIDTH 353 0
DWIDTH 6 0
BBX 5 7 0 0
BITMAP
18
18
18
18
18
38
D8
ENDCHAR
STARTCHAR uni027B
ENCODING 635
SWIDTH 353 0
DWIDTH 6 0
BBX 6 7 0 -2
BITMAP
18
18
18
38
D8
18
0C
ENDCHAR
STARTCHAR uni027C
ENCODING 636
SWIDTH 353 0
DWIDTH 6 0
BBX 5 7 0 -2
BITMAP
D8
E0
C0
C0
C0
C0
C0
ENDCHAR
STARTCHAR uni027D
ENCODING 637
SWIDTH 353 0
DWIDTH 6 0
BBX 5 8 0 -3
BITMAP
D8
E0
C0
C0
C0
C0
C0
60
ENDCHAR
STARTCHAR uni027E
ENCODING 638
SWIDTH 294 0
DWIDTH 5 0
BBX 4 5 0 0
BITMAP
70
C0
C0
C0
C0
ENDCHAR
STARTCHAR uni027F
ENCODING 639
SWIDTH 294 0
DWIDTH 5 0
BBX 4 7 0 -2
BITMAP
E0
30
30
30
30
30
30
ENDCHAR
STARTCHAR uni0280
ENCODING 640
SWIDTH 412 0
DWIDTH 7 0
BBX 6 5 0 0
BITMAP
F8
CC
F8
CC
CC
ENDCHAR
STARTCHAR uni0281
ENCODING 641
SWIDTH 412 0
DWIDTH 7 0
BBX 6 5 0 0
BITMAP
CC
CC
F8
CC
F8
ENDCHAR
STARTCHAR uni0282
ENCODING 642
SWIDTH 412 0
DWIDTH 7 0
BBX 6 7 0 -2
BITMAP
7C
C0
78
0C
F8
C0
60
ENDCHAR
STARTCHAR uni0283
ENCODING 643
SWIDTH 176 0
DWIDTH 3 0
BBX 4 10 -1 -2
BITMAP
30
60
60
60
60
60
60
60
60
C0
ENDCHAR
STARTCHAR uni0284
ENCODING 644
SWIDTH 294 0
DWIDTH 5 0
BBX 4 10 0 -2
BITMAP
30
60
60
60
F0
60
60
60
60
C0
ENDCHAR
STARTCHAR uni0286
ENCODING 646
SWIDTH 353 0
DWIDTH 6 0
BBX 5 10 0 -2
BITMAP
18
30
30
30
30
30
30
78
B0
60
ENDCHAR
STARTCHAR uni0287
ENCODING 647
SWIDTH 294 0
DWIDTH 5 0
BBX 4 7 0 -2
BITMAP
E0
30
30
30
F0
30
30
ENDCHAR
STARTCHAR uni0288
ENCODING 648
SWIDTH 235 0
DWIDTH 4 0
BBX 3 9 0 -2
BITMAP
C0
C0
C0
C0
C0
C0
C0
C0
60
ENDCHAR
STARTCHAR uni0289
ENCODING 649
SWIDTH 412 0
DWIDTH 7 0
BBX 6 5 0 0
BITMAP
CC
CC
FC
CC
7C
ENDCHAR
STARTCHAR uni028A
ENCODING 650
SWIDTH 471 0
DWIDTH 8 0
BBX 7 5 0 0
BITMAP
EE
6C
C6
C6
7C
ENDCHAR
STARTCHAR uni028B
ENCODING 651
SWIDTH 412 0
DWIDTH 7 0
BBX 6 5 0 0
BITMAP
D8
CC
CC
CC
78
ENDCHAR
STARTCHAR uni028C
ENCODING 652
SWIDTH 412 0
DWIDTH 7 0
BBX 6 5 0 0
BITMAP
30
78
CC
CC
CC
ENDCHAR
STARTCHAR uni028D
ENCODING 653
SWIDTH 471 0
DWIDTH 8 0
BBX 7 5 0 0
BITMAP
6C
D6
D6
C6
C6
ENDCHAR
STARTCHAR uni028E
ENCODING 654
SWIDTH 412 0
DWIDTH 7 0
BBX 6 7 0 0
BITMAP
78
C0
F8
CC
CC
CC
CC
ENDCHAR
STARTCHAR uni028F
ENCODING 655
SWIDTH 412 0
DWIDTH 7 0
BBX 6 5 0 0
BITMAP
CC
CC
78
30
30
ENDCHAR
STARTCHAR uni0290
ENCODING 656
SWIDTH 412 0
DWIDTH 7 0
BBX 7 7 0 -2
BITMAP
FC
18
30
60
FC
0C
06
ENDCHAR
STARTCHAR uni0291
ENCODING 657
SWIDTH 412 0
DWIDTH 7 0
BBX 6 6 0 -1
BITMAP
FC
18
38
64
F8
20
ENDCHAR
STARTCHAR uni0292
ENCODING 658
SWIDTH 412 0
DWIDTH 7 0
BBX 6 7 0 -2
BITMAP
FC
CC
18
3C
0C
CC
78
ENDCHAR
STARTCHAR uni0293
ENCODING 659
SWIDTH 412 0
DWIDTH 7 0
BBX 6 7 0 -2
BITMAP
FC
CC
18
3C
4C
AC
78
ENDCHAR
STARTCHAR uni0294
ENCODING 660
SWIDTH 412 0
DWIDTH 7 0
BBX 6 7 0 0
BITMAP
78
CC
0C
18
30
30
30
ENDCHAR
STARTCHAR uni0295
ENCODING 661
SWIDTH 412 0
DWIDTH 7 0
BBX 6 7 0 0
BITMAP
78
CC
C0
60
30
30
30
ENDCHAR
STARTCHAR uni0296
ENCODING 662
SWIDTH 412 0
DWIDTH 7 0
BBX 6 7 0 0
BITMAP
30
30
30
18
0C
CC
78
ENDCHAR
STARTCHAR uni0297
ENCODING 663
SWIDTH 412 0
DWIDTH 7 0
BBX 6 7 0 -2
BITMAP
78
CC
C0
C0
C0
CC
78
ENDCHAR
STARTCHAR uni0298
ENCODING 664
SWIDTH 471 0
DWIDTH 8 0
BBX 7 7 0 0
BITMAP
7C
C6
C6
D6
C6
C6
7C
ENDCHAR
STARTCHAR uni0299
ENCODING 665
SWIDTH 412 0
DWIDTH 7 0
BBX 6 5 0 0
BITMAP
F8
CC
F8
CC
F8
ENDCHAR
STARTCHAR uni029A
ENCODING 666
SWIDTH 412 0
DWIDTH 7 0
BBX 6 5 0 0
BITMAP
78
CC
6C
CC
78
ENDCHAR
STARTCHAR uni029B
ENCODING 667
SWIDTH 471 0
DWIDTH 8 0
BBX 7 8 0 0
BITMAP
06
0C
0C
7C
C0
DC
CC
7C
ENDCHAR
STARTCHAR uni029C
ENCODING 668
SWIDTH 412 0
DWIDTH 7 0
BBX 6 5 0 0
BITMAP
CC
CC
FC
CC
CC
ENDCHAR
STARTCHAR uni029D
ENCODING 669
SWIDTH 294 0
DWIDTH 5 0
BBX 4 9 0 -2
BITMAP
30
00
30
30
30
30
70
B0
60
ENDCHAR
STARTCHAR uni029E
ENCODING 670
SWIDTH 412 0
DWIDTH 7 0
BBX 6 7 0 -2
BITMAP
CC
CC
7C
CC
CC
0C
0C
ENDCHAR
STARTCHAR uni029F
ENCODING 671
SWIDTH 294 0
DWIDTH 5 0
BBX 4 5 0 0
BITMAP
C0
C0
C0
C0
F0
ENDCHAR
STARTCHAR uni02A1
ENCODING 673
SWIDTH 412 0
DWIDTH 7 0
BBX 6 7 0 0
BITMAP
78
CC
0C
18
30
78
30
ENDCHAR
STARTCHAR uni02A2
ENCODING 674
SWIDTH 412 0
DWIDTH 7 0
BBX 6 7 0 0
BITMAP
78
CC
C0
60
30
78
30
ENDCHAR
STARTCHAR uni02A3
ENCODING 675
SWIDTH 529 0
DWIDTH 9 0
BBX 8 7 0 0
BITMAP
18
18
7F
D9
DA
DC
7F
ENDCHAR
STARTCHAR uni02A4
ENCODING 676
SWIDTH 529 0
DWIDTH 9 0
BBX 8 9 0 -2
BITMAP
18
18
7F
DB
DE
DB
7B
03
0E
ENDCHAR
STARTCHAR uni02A5
ENCODING 677
SWIDTH 529 0
DWIDTH 9 0
BBX 8 8 0 -1
BITMAP
18
18
7F
D9
DA
DD
7F
04
ENDCHAR
STARTCHAR uni02A6
ENCODING 678
SWIDTH 529 0
DWIDTH 9 0
BBX 8 7 0 0
BITMAP
C0
C0
FF
D8
CE
C3
7E
ENDCHAR
STARTCHAR uni02A7
ENCODING 679
SWIDTH 412 0
DWIDTH 7 0
BBX 7 10 0 -2
BITMAP
06
CC
CC
FC
CC
CC
CC
7C
0C
18
ENDCHAR
STARTCHAR uni02A8
ENCODING 680
SWIDTH 588 0
DWIDTH 10 0
BBX 9 7 0 0
BITMAP
C000
C000
EF00
D800
DB00
DD80
6F00
ENDCHAR
STARTCHAR uni02A9
ENCODING 681
SWIDTH 529 0
DWIDTH 9 0
BBX 8 9 0 -2
BITMAP
70
C0
FE
DB
DB
DB
DB
03
06
ENDCHAR
STARTCHAR uni02AA
ENCODING 682
SWIDTH 412 0
DWIDTH 7 0
BBX 6 7 0 0
BITMAP
C0
C0
DC
F0
D8
CC
F8
ENDCHAR
STARTCHAR uni02AB
ENCODING 683
SWIDTH 412 0
DWIDTH 7 0
BBX 6 7 0 0
BITMAP
C0
C0
FC
CC
D8
F0
FC
ENDCHAR
STARTCHAR uni02AC
ENCODING 684
SWIDTH 471 0
DWIDTH 8 0
BBX 7 7 0 0
BITMAP
C6
D6
6C
00
C6
D6
6C
ENDCHAR
STARTCHAR uni02AD
ENCODING 685
SWIDTH 412 0
DWIDTH 7 0
BBX 6 7 0 0
BITMAP
FC
CC
CC
00
FC
CC
CC
ENDCHAR
STARTCHAR uni02B0
ENCODING 688
SWIDTH 412 0
DWIDTH 7 0
BBX 6 4 0 4
BITMAP
C0
F8
CC
CC
ENDCHAR
STARTCHAR uni02B1
ENCODING 689
SWIDTH 412 0
DWIDTH 7 0
BBX 6 5 0 4
BITMAP
60
C0
F8
CC
CC
ENDCHAR
STARTCHAR uni02B2
ENCODING 690
SWIDTH 412 0
DWIDTH 7 0
BBX 6 5 0 4
BITMAP
0C
00
1C
CC
78
ENDCHAR
STARTCHAR uni02B3
ENCODING 691
SWIDTH 353 0
DWIDTH 6 0
BBX 5 3 0 4
BITMAP
D8
E0
C0
ENDCHAR
STARTCHAR uni02B4
ENCODING 692
SWIDTH 353 0
DWIDTH 6 0
BBX 5 3 0 4
BITMAP
18
38
D8
ENDCHAR
STARTCHAR uni02B5
ENCODING 693
SWIDTH 353 0
DWIDTH 6 0
BBX 5 4 0 3
BITMAP
18
38
D8
18
ENDCHAR
STARTCHAR uni02B6
ENCODING 694
SWIDTH 412 0
DWIDTH 7 0
BBX 6 4 0 3
BITMAP
CC
F8
CC
F8
ENDCHAR
STARTCHAR uni02B7
ENCODING 695
SWIDTH 471 0
DWIDTH 8 0
BBX 7 3 0 4
BITMAP
C6
D6
6C
ENDCHAR
STARTCHAR uni02B8
ENCODING 696
SWIDTH 412 0
DWIDTH 7 0
BBX 6 5 0 2
BITMAP
CC
CC
7C
0C
78
ENDCHAR
STARTCHAR uni02BE
ENCODING 702
SWIDTH 235 0
DWIDTH 4 0
BBX 3 4 0 4
BITMAP
C0
60
60
C0
ENDCHAR
STARTCHAR uni02BF
ENCODING 703
SWIDTH 235 0
DWIDTH 4 0
BBX 3 4 0 4
BITMAP
60
C0
C0
60
ENDCHAR
STARTCHAR uni02C0
ENCODING 704
SWIDTH 353 0
DWIDTH 6 0
BBX 5 4 0 3
BITMAP
F0
18
70
60
ENDCHAR
STARTCHAR uni02C1
ENCODING 705
SWIDTH 353 0
DWIDTH 6 0
BBX 5 4 0 3
BITMAP
78
C0
70
30
ENDCHAR
STARTCHAR uni02C8
ENCODING 712
SWIDTH 176 0
DWIDTH 3 0
BBX 2 4 0 4
BITMAP
C0
C0
C0
C0
ENDCHAR
STARTCHAR uni02CC
ENCODING 716
SWIDTH 176 0
DWIDTH 3 0
BBX 2 4 0 -2
BITMAP
C0
C0
C0
C0
ENDCHAR
STARTCHAR uni02D0
ENCODING 720
SWIDTH 294 0
DWIDTH 5 0
BBX 4 5 0 0
BITMAP
F0
60
00
60
F0
ENDCHAR
STARTCHAR uni02D1
ENCODING 721
SWIDTH 294 0
DWIDTH 5 0
BBX 4 2 0 3
BITMAP
F0
60
ENDCHAR
STARTCHAR uni02ED
ENCODING 749
SWIDTH 412 0
DWIDTH 7 0
BBX 6 3 0 4
BITMAP
FC
00
FC
ENDCHAR
STARTCHAR uni0374
ENCODING 884
SWIDTH 235 0
DWIDTH 4 0
BBX 3 2 0 6
BITMAP
60
C0
ENDCHAR
STARTCHAR uni0375
ENCODING 885
SWIDTH 235 0
DWIDTH 4 0
BBX 3 2 0 -1
BITMAP
60
C0
ENDCHAR
STARTCHAR uni037A
ENCODING 890
SWIDTH 235 0
DWIDTH 4 0
BBX 3 3 0 -2
BITMAP
C0
C0
E0
ENDCHAR
STARTCHAR uni037B
ENCODING 891
SWIDTH 412 0
DWIDTH 7 0
BBX 6 5 0 0
BITMAP
F8
0C
0C
0C
F8
ENDCHAR
STARTCHAR uni037C
ENCODING 892
SWIDTH 412 0
DWIDTH 7 0
BBX 6 5 0 0
BITMAP
7C
C0
D0
C0
7C
ENDCHAR
STARTCHAR uni037D
ENCODING 893
SWIDTH 412 0
DWIDTH 7 0
BBX 6 5 0 0
BITMAP
F8
0C
2C
0C
F8
ENDCHAR
STARTCHAR uni037E
ENCODING 894
SWIDTH 176 0
DWIDTH 3 0
BBX 3 7 -1 -2
BITMAP
60
60
00
00
60
60
C0
ENDCHAR
STARTCHAR tonos
ENCODING 900
SWIDTH 235 0
DWIDTH 4 0
BBX 3 2 0 7
BITMAP
60
C0
ENDCHAR
STARTCHAR dieresistonos
ENCODING 901
SWIDTH 412 0
DWIDTH 7 0
BBX 6 3 0 7
BITMAP
18
30
84
ENDCHAR
STARTCHAR Alphatonos
ENCODING 902
SWIDTH 471 0
DWIDTH 8 0
BBX 7 9 0 0
BITMAP
60
C0
3C
66
66
7E
66
66
66
ENDCHAR
STARTCHAR anoteleia
ENCODING 903
SWIDTH 176 0
DWIDTH 3 0
BBX 2 2 0 3
BITMAP
C0
C0
ENDCHAR
STARTCHAR Epsilontonos
ENCODING 904
SWIDTH 529 0
DWIDTH 9 0
BBX 8 9 0 0
BITMAP
60
C0
3F
30
30
3C
30
30
3F
ENDCHAR
STARTCHAR Etatonos
ENCODING 905
SWIDTH 529 0
DWIDTH 9 0
BBX 8 9 0 0
BITMAP
60
C0
33
33
33
3F
33
33
33
ENDCHAR
STARTCHAR Iotatonos
ENCODING 906
SWIDTH 412 0
DWIDTH 7 0
BBX 6 9 0 0
BITMAP
60
C0
3C
18
18
18
18
18
3C
ENDCHAR
STARTCHAR Omicrontonos
ENCODING 908
SWIDTH 471 0
DWIDTH 8 0
BBX 7 9 0 0
BITMAP
60
C0
3C
66
66
66
66
66
3C
ENDCHAR
STARTCHAR Upsilontonos
ENCODING 910
SWIDTH 529 0
DWIDTH 9 0
BBX 8 9 0 0
BITMAP
60
C0
33
33
3F
1E
0C
0C
0C
ENDCHAR
STARTCHAR Omegatonos
ENCODING 911
SWIDTH 529 0
DWIDTH 9 0
BBX 8 9 0 0
BITMAP
60
C0
3E
63
63
63
63
36
77
ENDCHAR
STARTCHAR iotadieresistonos
ENCODING 912
SWIDTH 412 0
DWIDTH 7 0
BBX 6 9 0 0
BITMAP
18
30
84
00
30
30
30
30
18
ENDCHAR
STARTCHAR Alpha
ENCODING 913
SWIDTH 412 0
DWIDTH 7 0
BBX 6 7 0 0
BITMAP
78
CC
CC
FC
CC
CC
CC
ENDCHAR
STARTCHAR Beta
ENCODING 914
SWIDTH 412 0
DWIDTH 7 0
BBX 6 7 0 0
BITMAP
F8
CC
CC
F8
CC
CC
F8
ENDCHAR
STARTCHAR Gamma
ENCODING 915
SWIDTH 412 0
DWIDTH 7 0
BBX 6 7 0 0
BITMAP
FC
C0
C0
C0
C0
C0
C0
ENDCHAR
STARTCHAR uni0394
ENCODING 916
SWIDTH 412 0
DWIDTH 7 0
BBX 6 7 0 0
BITMAP
30
78
78
CC
CC
CC
FC
ENDCHAR
STARTCHAR Epsilon
ENCODING 917
SWIDTH 412 0
DWIDTH 7 0
BBX 6 7 0 0
BITMAP
FC
C0
C0
F0
C0
C0
FC
ENDCHAR
STARTCHAR Zeta
ENCODING 918
SWIDTH 412 0
DWIDTH 7 0
BBX 6 7 0 0
BITMAP
FC
0C
18
30
60
C0
FC
ENDCHAR
STARTCHAR Eta
ENCODING 919
SWIDTH 412 0
DWIDTH 7 0
BBX 6 7 0 0
BITMAP
CC
CC
CC
FC
CC
CC
CC
ENDCHAR
STARTCHAR Theta
ENCODING 920
SWIDTH 412 0
DWIDTH 7 0
BBX 6 7 0 0
BITMAP
78
CC
CC
CC
CC
CC
78
ENDCHAR
STARTCHAR Iota
ENCODING 921
SWIDTH 294 0
DWIDTH 5 0
BBX 4 7 0 0
BITMAP
F0
60
60
60
60
60
F0
ENDCHAR
STARTCHAR Kappa
ENCODING 922
SWIDTH 412 0
DWIDTH 7 0
BBX 6 7 0 0
BITMAP
CC
CC
CC
F8
CC
CC
CC
ENDCHAR
STARTCHAR Lambda
ENCODING 923
SWIDTH 412 0
DWIDTH 7 0
BBX 6 7 0 0
BITMAP
30
78
78
CC
CC
CC
CC
ENDCHAR
STARTCHAR Mu
ENCODING 924
SWIDTH 471 0
DWIDTH 8 0
BBX 7 7 0 0
BITMAP
C6
EE
FE
D6
C6
C6
C6
ENDCHAR
STARTCHAR Nu
ENCODING 925
SWIDTH 412 0
DWIDTH 7 0
BBX 6 7 0 0
BITMAP
CC
CC
EC
FC
DC
CC
CC
ENDCHAR
STARTCHAR Xi
ENCODING 926
SWIDTH 412 0
DWIDTH 7 0
BBX 6 7 0 0
BITMAP
FC
CC
00
30
00
CC
FC
ENDCHAR
STARTCHAR Omicron
ENCODING 927
SWIDTH 412 0
DWIDTH 7 0
BBX 6 7 0 0
BITMAP
78
CC
CC
CC
CC
CC
78
ENDCHAR
STARTCHAR Pi
ENCODING 928
SWIDTH 412 0
DWIDTH 7 0
BBX 6 7 0 0
BITMAP
FC
CC
CC
CC
CC
CC
CC
ENDCHAR
STARTCHAR Rho
ENCODING 929
SWIDTH 412 0
DWIDTH 7 0
BBX 6 7 0 0
BITMAP
F8
CC
CC
D8
F0
C0
C0
ENDCHAR
STARTCHAR Sigma
ENCODING 931
SWIDTH 412 0
DWIDTH 7 0
BBX 6 7 0 0
BITMAP
FC
CC
60
30
60
CC
FC
ENDCHAR
STARTCHAR Tau
ENCODING 932
SWIDTH 412 0
DWIDTH 7 0
BBX 6 7 0 0
BITMAP
FC
30
30
30
30
30
30
ENDCHAR
STARTCHAR Upsilon
ENCODING 933
SWIDTH 412 0
DWIDTH 7 0
BBX 6 7 0 0
BITMAP
CC
CC
FC
78
30
30
30
ENDCHAR
STARTCHAR Phi
ENCODING 934
SWIDTH 471 0
DWIDTH 8 0
BBX 7 7 0 0
BITMAP
10
7C
D6
D6
D6
7C
10
ENDCHAR
STARTCHAR Chi
ENCODING 935
SWIDTH 412 0
DWIDTH 7 0
BBX 6 7 0 0
BITMAP
CC
CC
CC
78
CC
CC
CC
ENDCHAR
STARTCHAR Psi
ENCODING 936
SWIDTH 471 0
DWIDTH 8 0
BBX 7 7 0 0
BITMAP
D6
D6
D6
D6
7C
38
38
ENDCHAR
STARTCHAR uni03A9
ENCODING 937
SWIDTH 471 0
DWIDTH 8 0
BBX 7 7 0 0
BITMAP
7C
C6
C6
C6
C6
6C
EE
ENDCHAR
STARTCHAR Iotadieresis
ENCODING 938
SWIDTH 294 0
DWIDTH 5 0
BBX 4 9 0 0
BITMAP
90
00
F0
60
60
60
60
60
F0
ENDCHAR
STARTCHAR Upsilondieresis
ENCODING 939
SWIDTH 412 0
DWIDTH 7 0
BBX 6 10 0 0
BITMAP
CC
CC
00
CC
CC
FC
78
30
30
30
ENDCHAR
STARTCHAR alphatonos
ENCODING 940
SWIDTH 412 0
DWIDTH 7 0
BBX 6 8 0 0
BITMAP
18
30
00
7C
CC
CC
CC
7C
ENDCHAR
STARTCHAR epsilontonos
ENCODING 941
SWIDTH 412 0
DWIDTH 7 0
BBX 6 5 0 0
BITMAP
78
CC
60
CC
78
ENDCHAR
STARTCHAR etatonos
ENCODING 942
SWIDTH 412 0
DWIDTH 7 0
BBX 6 10 0 -2
BITMAP
18
30
00
F8
CC
CC
CC
CC
0C
0C
ENDCHAR
STARTCHAR iotatonos
ENCODING 943
SWIDTH 235 0
DWIDTH 4 0
BBX 3 8 0 0
BITMAP
60
C0
00
C0
C0
C0
C0
60
ENDCHAR
STARTCHAR upsilondieresistonos
ENCODING 944
SWIDTH 412 0
DWIDTH 7 0
BBX 6 9 0 0
BITMAP
18
30
84
00
CC
CC
CC
CC
78
ENDCHAR
STARTCHAR alpha
ENCODING 945
SWIDTH 412 0
DWIDTH 7 0
BBX 6 5 0 0
BITMAP
7C
CC
CC
CC
7C
ENDCHAR
STARTCHAR beta
ENCODING 946
SWIDTH 412 0
DWIDTH 7 0
BBX 6 9 0 -2
BITMAP
78
CC
CC
D8
CC
CC
F8
C0
C0
ENDCHAR
STARTCHAR gamma
ENCODING 947
SWIDTH 412 0
DWIDTH 7 0
BBX 6 7 0 -2
BITMAP
CC
CC
CC
CC
7C
0C
78
ENDCHAR
STARTCHAR delta
ENCODING 948
SWIDTH 412 0
DWIDTH 7 0
BBX 6 8 0 0
BITMAP
3C
60
30
78
CC
CC
CC
78
ENDCHAR
STARTCHAR epsilon
ENCODING 949
SWIDTH 412 0
DWIDTH 7 0
BBX 6 5 0 0
BITMAP
78
CC
60
CC
78
ENDCHAR
STARTCHAR zeta
ENCODING 950
SWIDTH 412 0
DWIDTH 7 0
BBX 6 9 0 -2
BITMAP
F8
18
30
60
60
60
38
0C
0C
ENDCHAR
STARTCHAR eta
ENCODING 951
SWIDTH 412 0
DWIDTH 7 0
BBX 6 7 0 -2
BITMAP
F8
CC
CC
CC
CC
0C
0C
ENDCHAR
STARTCHAR theta
ENCODING 952
SWIDTH 412 0
DWIDTH 7 0
BBX 6 7 0 0
BITMAP
78
CC
CC
FC
CC
CC
78
ENDCHAR
STARTCHAR iota
ENCODING 953
SWIDTH 235 0
DWIDTH 4 0
BBX 3 5 0 0
BITMAP
C0
C0
C0
C0
60
ENDCHAR
STARTCHAR kappa
ENCODING 954
SWIDTH 412 0
DWIDTH 7 0
BBX 6 5 0 0
BITMAP
CC
CC
F8
CC
CC
ENDCHAR
STARTCHAR lambda
ENCODING 955
SWIDTH 471 0
DWIDTH 8 0
BBX 7 7 0 0
BITMAP
F0
30
78
78
CC
CC
CE
ENDCHAR
STARTCHAR uni03BC
ENCODING 956
SWIDTH 412 0
DWIDTH 7 0
BBX 6 7 0 -2
BITMAP
CC
CC
CC
CC
F8
C0
C0
ENDCHAR
STARTCHAR nu
ENCODING 957
SWIDTH 412 0
DWIDTH 7 0
BBX 6 5 0 0
BITMAP
CC
CC
6C
6C
38
ENDCHAR
STARTCHAR xi
ENCODING 958
SWIDTH 412 0
DWIDTH 7 0
BBX 6 8 0 -1
BITMAP
FC
60
E0
78
C0
C0
7C
0C
ENDCHAR
STARTCHAR omicron
ENCODING 959
SWIDTH 412 0
DWIDTH 7 0
BBX 6 5 0 0
BITMAP
78
CC
CC
CC
78
ENDCHAR
STARTCHAR pi
ENCODING 960
SWIDTH 412 0
DWIDTH 7 0
BBX 6 5 0 0
BITMAP
FC
CC
CC
CC
CC
ENDCHAR
STARTCHAR rho
ENCODING 961
SWIDTH 412 0
DWIDTH 7 0
BBX 6 7 0 -2
BITMAP
78
CC
CC
CC
F8
C0
C0
ENDCHAR
STARTCHAR sigma1
ENCODING 962
SWIDTH 412 0
DWIDTH 7 0
BBX 6 7 0 -2
BITMAP
78
CC
C0
C0
70
18
18
ENDCHAR
STARTCHAR sigma
ENCODING 963
SWIDTH 471 0
DWIDTH 8 0
BBX 7 5 0 0
BITMAP
7E
CC
CC
CC
78
ENDCHAR
STARTCHAR tau
ENCODING 964
SWIDTH 412 0
DWIDTH 7 0
BBX 6 5 0 0
BITMAP
FC
30
30
30
1C
ENDCHAR
STARTCHAR upsilon
ENCODING 965
SWIDTH 412 0
DWIDTH 7 0
BBX 6 5 0 0
BITMAP
CC
CC
CC
CC
78
ENDCHAR
STARTCHAR phi
ENCODING 966
SWIDTH 471 0
DWIDTH 8 0
BBX 7 7 0 -2
BITMAP
DC
D6
D6
D6
7C
10
10
ENDCHAR
STARTCHAR chi
ENCODING 967
SWIDTH 412 0
DWIDTH 7 0
BBX 6 5 0 0
BITMAP
CC
CC
78
CC
CC
ENDCHAR
STARTCHAR psi
ENCODING 968
SWIDTH 471 0
DWIDTH 8 0
BBX 7 9 0 -2
BITMAP
10
10
D6
D6
D6
D6
7C
38
38
ENDCHAR
STARTCHAR omega
ENCODING 969
SWIDTH 471 0
DWIDTH 8 0
BBX 7 5 0 0
BITMAP
6C
C6
D6
D6
7C
ENDCHAR
STARTCHAR iotadieresis
ENCODING 970
SWIDTH 353 0
DWIDTH 6 0
BBX 5 8 0 0
BITMAP
D8
D8
00
60
60
60
60
30
ENDCHAR
STARTCHAR upsilondieresis
ENCODING 971
SWIDTH 412 0
DWIDTH 7 0
BBX 6 8 0 0
BITMAP
CC
CC
00
CC
CC
CC
CC
78
ENDCHAR
STARTCHAR omicrontonos
ENCODING 972
SWIDTH 412 0
DWIDTH 7 0
BBX 6 8 0 0
BITMAP
18
30
00
78
CC
CC
CC
78
ENDCHAR
STARTCHAR upsilontonos
ENCODING 973
SWIDTH 412 0
DWIDTH 7 0
BBX 6 8 0 0
BITMAP
18
30
00
CC
CC
CC
CC
78
ENDCHAR
STARTCHAR omegatonos
ENCODING 974
SWIDTH 471 0
DWIDTH 8 0
BBX 7 8 0 0
BITMAP
18
30
00
6C
C6
D6
D6
7C
ENDCHAR
STARTCHAR uni03CF
ENCODING 975
SWIDTH 412 0
DWIDTH 7 0
BBX 6 9 0 -2
BITMAP
CC
CC
CC
F8
CC
CC
CC
0C
18
ENDCHAR
STARTCHAR uni03D0
ENCODING 976
SWIDTH 412 0
DWIDTH 7 0
BBX 6 7 0 0
BITMAP
70
D0
F0
C0
F8
CC
78
ENDCHAR
STARTCHAR theta1
ENCODING 977
SWIDTH 412 0
DWIDTH 7 0
BBX 7 7 0 0
BITMAP
38
6C
3E
0C
EC
6C
38
ENDCHAR
STARTCHAR Upsilon1
ENCODING 978
SWIDTH 471 0
DWIDTH 8 0
BBX 7 7 0 0
BITMAP
C6
CC
FC
78
30
30
30
ENDCHAR
STARTCHAR uni03D3
ENCODING 979
SWIDTH 588 0
DWIDTH 10 0
BBX 9 9 0 0
BITMAP
6000
C000
3180
3300
3F00
1E00
0C00
0C00
0C00
ENDCHAR
STARTCHAR uni03D4
ENCODING 980
SWIDTH 471 0
DWIDTH 8 0
BBX 7 10 0 0
BITMAP
CC
CC
00
C6
CC
FC
78
30
30
30
ENDCHAR
STARTCHAR phi1
ENCODING 981
SWIDTH 471 0
DWIDTH 8 0
BBX 7 9 0 -2
BITMAP
10
10
7C
D6
D6
D6
7C
10
10
ENDCHAR
STARTCHAR omega1
ENCODING 982
SWIDTH 471 0
DWIDTH 8 0
BBX 7 6 0 0
BITMAP
FE
6C
C6
D6
D6
7C
ENDCHAR
STARTCHAR uni03D7
ENCODING 983
SWIDTH 412 0
DWIDTH 7 0
BBX 6 7 0 -2
BITMAP
CC
CC
F8
CC
CC
0C
38
ENDCHAR
STARTCHAR uni03D8
ENCODING 984
SWIDTH 412 0
DWIDTH 7 0
BBX 6 7 0 0
BITMAP
78
CC
CC
CC
78
30
30
ENDCHAR
STARTCHAR uni03D9
ENCODING 985
SWIDTH 412 0
DWIDTH 7 0
BBX 6 7 0 -2
BITMAP
78
CC
CC
CC
78
30
30
ENDCHAR
STARTCHAR uni03DA
ENCODING 986
SWIDTH 412 0
DWIDTH 7 0
BBX 6 7 0 0
BITMAP
78
CC
C0
C0
70
30
30
ENDCHAR
STARTCHAR uni03DB
ENCODING 987
SWIDTH 412 0
DWIDTH 7 0
BBX 6 7 0 -2
BITMAP
78
CC
C0
C0
70
18
70
ENDCHAR
STARTCHAR uni03DC
ENCODING 988
SWIDTH 412 0
DWIDTH 7 0
BBX 6 7 0 0
BITMAP
FC
C0
C0
F8
D8
C0
C0
ENDCHAR
STARTCHAR uni03DD
ENCODING 989
SWIDTH 412 0
DWIDTH 7 0
BBX 6 7 0 -2
BITMAP
FC
C0
C0
F8
D8
C0
C0
ENDCHAR
STARTCHAR uni03DE
ENCODING 990
SWIDTH 412 0
DWIDTH 7 0
BBX 6 7 0 0
BITMAP
C0
60
C0
FC
0C
18
0C
ENDCHAR
STARTCHAR uni03DF
ENCODING 991
SWIDTH 412 0
DWIDTH 7 0
BBX 6 8 0 -1
BITMAP
C0
60
60
FC
0C
18
18
0C
ENDCHAR
STARTCHAR uni03E0
ENCODING 992
SWIDTH 412 0
DWIDTH 7 0
BBX 6 7 0 0
BITMAP
F0
18
0C
7C
0C
7C
0C
ENDCHAR
STARTCHAR uni03E1
ENCODING 993
SWIDTH 412 0
DWIDTH 7 0
BBX 6 8 0 -1
BITMAP
F0
18
0C
7C
0C
7C
0C
18
ENDCHAR
STARTCHAR uni03E2
ENCODING 994
SWIDTH 471 0
DWIDTH 8 0
BBX 7 9 0 -2
BITMAP
6C
C6
D6
D6
D6
D6
7E
06
3C
ENDCHAR
STARTCHAR uni03E3
ENCODING 995
SWIDTH 471 0
DWIDTH 8 0
BBX 7 7 0 -2
BITMAP
6C
C6
D6
D6
7E
06
1C
ENDCHAR
STARTCHAR uni03E4
ENCODING 996
SWIDTH 412 0
DWIDTH 7 0
BBX 6 7 0 0
BITMAP
6C
CC
CC
CC
7C
0C
0C
ENDCHAR
STARTCHAR uni03E5
ENCODING 997
SWIDTH 412 0
DWIDTH 7 0
BBX 6 7 0 -2
BITMAP
6C
CC
CC
CC
7C
0C
0C
ENDCHAR
STARTCHAR uni03E6
ENCODING 998
SWIDTH 412 0
DWIDTH 7 0
BBX 6 10 0 -3
BITMAP
C0
D8
FC
EC
CC
CC
CC
18
30
30
ENDCHAR
STARTCHAR uni03E7
ENCODING 999
SWIDTH 412 0
DWIDTH 7 0
BBX 6 7 0 -2
BITMAP
C0
F8
CC
CC
CC
18
30
ENDCHAR
STARTCHAR uni03E8
ENCODING 1000
SWIDTH 412 0
DWIDTH 7 0
BBX 6 7 0 0
BITMAP
78
CC
0C
3C
F0
C0
7C
ENDCHAR
STARTCHAR uni03E9
ENCODING 1001
SWIDTH 412 0
DWIDTH 7 0
BBX 6 6 0 -1
BITMAP
78
CC
0C
FC
C0
7C
ENDCHAR
STARTCHAR uni03EA
ENCODING 1002
SWIDTH 471 0
DWIDTH 8 0
BBX 8 8 -1 -1
BITMAP
33
33
33
1E
33
33
B3
7F
ENDCHAR
STARTCHAR uni03EB
ENCODING 1003
SWIDTH 471 0
DWIDTH 8 0
BBX 8 6 -1 -1
BITMAP
33
33
1E
33
B3
7F
ENDCHAR
STARTCHAR uni03EC
ENCODING 1004
SWIDTH 412 0
DWIDTH 7 0
BBX 6 7 0 0
BITMAP
7C
C0
F8
CC
CC
CC
78
ENDCHAR
STARTCHAR uni03ED
ENCODING 1005
SWIDTH 529 0
DWIDTH 9 0
BBX 8 6 0 0
BITMAP
07
7E
CC
CC
CC
78
ENDCHAR
STARTCHAR uni03EE
ENCODING 1006
SWIDTH 412 0
DWIDTH 7 0
BBX 6 7 0 0
BITMAP
30
FC
B4
30
30
30
30
ENDCHAR
STARTCHAR uni03EF
ENCODING 1007
SWIDTH 412 0
DWIDTH 7 0
BBX 6 8 0 -2
BITMAP
30
30
FC
B4
30
30
30
30
ENDCHAR
STARTCHAR uni03F0
ENCODING 1008
SWIDTH 412 0
DWIDTH 7 0
BBX 6 5 0 0
BITMAP
CC
5C
FC
E8
CC
ENDCHAR
STARTCHAR uni03F1
ENCODING 1009
SWIDTH 412 0
DWIDTH 7 0
BBX 6 8 0 -3
BITMAP
78
CC
CC
CC
F8
C0
78
18
ENDCHAR
STARTCHAR uni03F2
ENCODING 1010
SWIDTH 412 0
DWIDTH 7 0
BBX 6 5 0 0
BITMAP
7C
C0
C0
C0
7C
ENDCHAR
STARTCHAR uni03F3
ENCODING 1011
SWIDTH 176 0
DWIDTH 3 0
BBX 3 9 -1 -2
BITMAP
60
00
60
60
60
60
60
60
C0
ENDCHAR
STARTCHAR uni03F4
ENCODING 1012
SWIDTH 412 0
DWIDTH 7 0
BBX 6 7 0 0
BITMAP
78
CC
CC
FC
CC
CC
78
ENDCHAR
STARTCHAR uni03F5
ENCODING 1013
SWIDTH 412 0
DWIDTH 7 0
BBX 6 5 0 0
BITMAP
7C
C0
F8
C0
7C
ENDCHAR
STARTCHAR uni03F6
ENCODING 1014
SWIDTH 412 0
DWIDTH 7 0
BBX 6 5 0 0
BITMAP
F8
0C
7C
0C
F8
ENDCHAR
STARTCHAR uni03F7
ENCODING 1015
SWIDTH 412 0
DWIDTH 7 0
BBX 6 7 0 0
BITMAP
C0
F8
CC
CC
CC
F8
C0
ENDCHAR
STARTCHAR uni03F8
ENCODING 1016
SWIDTH 412 0
DWIDTH 7 0
BBX 6 9 0 -2
BITMAP
C0
C0
F8
CC
CC
CC
F8
C0
C0
ENDCHAR
STARTCHAR uni03F9
ENCODING 1017
SWIDTH 412 0
DWIDTH 7 0
BBX 6 7 0 0
BITMAP
7C
C0
C0
C0
C0
C0
7C
ENDCHAR
STARTCHAR uni03FA
ENCODING 1018
SWIDTH 471 0
DWIDTH 8 0
BBX 7 7 0 0
BITMAP
C6
EE
FE
D6
C6
C6
C6
ENDCHAR
STARTCHAR uni03FB
ENCODING 1019
SWIDTH 471 0
DWIDTH 8 0
BBX 7 7 0 -2
BITMAP
C6
EE
FE
D6
C6
C0
C0
ENDCHAR
STARTCHAR uni03FC
ENCODING 1020
SWIDTH 412 0
DWIDTH 7 0
BBX 7 8 -1 -3
BITMAP
3C
66
66
66
7C
60
F8
60
ENDCHAR
STARTCHAR uni03FD
ENCODING 1021
SWIDTH 412 0
DWIDTH 7 0
BBX 6 7 0 0
BITMAP
F8
0C
0C
0C
0C
0C
F8
ENDCHAR
STARTCHAR uni03FE
ENCODING 1022
SWIDTH 412 0
DWIDTH 7 0
BBX 6 7 0 0
BITMAP
7C
C0
C0
D0
C0
C0
7C
ENDCHAR
STARTCHAR uni03FF
ENCODING 1023
SWIDTH 412 0
DWIDTH 7 0
BBX 6 7 0 0
BITMAP
F8
0C
0C
2C
0C
0C
F8
ENDCHAR
STARTCHAR uni0400
ENCODING 1024
SWIDTH 412 0
DWIDTH 7 0
BBX 6 10 0 0
BITMAP
60
30
00
FC
C0
C0
F0
C0
C0
FC
ENDCHAR
STARTCHAR uni0401
ENCODING 1025
SWIDTH 412 0
DWIDTH 7 0
BBX 6 10 0 0
BITMAP
CC
CC
00
FC
C0
C0
F0
C0
C0
FC
ENDCHAR
STARTCHAR uni0402
ENCODING 1026
SWIDTH 471 0
DWIDTH 8 0
BBX 7 7 0 0
BITMAP
F0
60
7C
66
66
66
6C
ENDCHAR
STARTCHAR uni0403
ENCODING 1027
SWIDTH 412 0
DWIDTH 7 0
BBX 6 1 0 6
BITMAP
FC
ENDCHAR
STARTCHAR uni0404
ENCODING 1028
SWIDTH 412 0
DWIDTH 7 0
BBX 6 7 0 0
BITMAP
7C
C0
C0
F8
C0
C0
7C
ENDCHAR
STARTCHAR uni0405
ENCODING 1029
SWIDTH 412 0
DWIDTH 7 0
BBX 6 7 0 0
BITMAP
78
CC
C0
78
0C
CC
78
ENDCHAR
STARTCHAR uni0406
ENCODING 1030
SWIDTH 294 0
DWIDTH 5 0
BBX 4 7 0 0
BITMAP
F0
60
60
60
60
60
F0
ENDCHAR
STARTCHAR uni0407
ENCODING 1031
SWIDTH 412 0
DWIDTH 7 0
BBX 6 10 0 0
BITMAP
CC
CC
00
78
30
30
30
30
30
78
ENDCHAR
STARTCHAR uni0408
ENCODING 1032
SWIDTH 176 0
DWIDTH 3 0
BBX 3 9 -1 -2
BITMAP
60
60
60
60
60
60
60
60
C0
ENDCHAR
STARTCHAR uni0409
ENCODING 1033
SWIDTH 588 0
DWIDTH 10 0
BBX 9 7 0 0
BITMAP
7C00
6C00
6C00
6F00
6D80
6D80
CF00
ENDCHAR
STARTCHAR uni040A
ENCODING 1034
SWIDTH 588 0
DWIDTH 10 0
BBX 9 7 0 0
BITMAP
CC00
CC00
CC00
FF00
CD80
CD80
CF00
ENDCHAR
STARTCHAR uni040B
ENCODING 1035
SWIDTH 471 0
DWIDTH 8 0
BBX 7 7 0 0
BITMAP
F0
60
60
7C
66
66
66
ENDCHAR
STARTCHAR uni040C
ENCODING 1036
SWIDTH 412 0
DWIDTH 7 0
BBX 6 10 0 0
BITMAP
18
30
00
CC
CC
CC
F8
CC
CC
CC
ENDCHAR
STARTCHAR uni040D
ENCODING 1037
SWIDTH 412 0
DWIDTH 7 0
BBX 6 10 0 0
BITMAP
60
30
00
CC
CC
DC
FC
EC
CC
CC
ENDCHAR
STARTCHAR uni040E
ENCODING 1038
SWIDTH 412 0
DWIDTH 7 0
BBX 6 10 0 0
BITMAP
48
78
00
CC
CC
CC
7C
0C
CC
78
ENDCHAR
STARTCHAR uni040F
ENCODING 1039
SWIDTH 412 0
DWIDTH 7 0
BBX 6 9 0 -2
BITMAP
CC
CC
CC
CC
CC
CC
FC
30
30
ENDCHAR
STARTCHAR uni0410
ENCODING 1040
SWIDTH 412 0
DWIDTH 7 0
BBX 6 7 0 0
BITMAP
78
CC
CC
FC
CC
CC
CC
ENDCHAR
STARTCHAR uni0411
ENCODING 1041
SWIDTH 412 0
DWIDTH 7 0
BBX 6 7 0 0
BITMAP
FC
C0
F8
CC
CC
CC
F8
ENDCHAR
STARTCHAR uni0412
ENCODING 1042
SWIDTH 412 0
DWIDTH 7 0
BBX 6 7 0 0
BITMAP
F8
CC
CC
F8
CC
CC
F8
ENDCHAR
STARTCHAR uni0413
ENCODING 1043
SWIDTH 412 0
DWIDTH 7 0
BBX 6 7 0 0
BITMAP
FC
C0
C0
C0
C0
C0
C0
ENDCHAR
STARTCHAR uni0414
ENCODING 1044
SWIDTH 471 0
DWIDTH 8 0
BBX 7 9 0 -2
BITMAP
7C
6C
6C
6C
6C
6C
6C
FE
C6
ENDCHAR
STARTCHAR uni0415
ENCODING 1045
SWIDTH 412 0
DWIDTH 7 0
BBX 6 7 0 0
BITMAP
FC
C0
C0
F0
C0
C0
FC
ENDCHAR
STARTCHAR uni0416
ENCODING 1046
SWIDTH 471 0
DWIDTH 8 0
BBX 7 7 0 0
BITMAP
D6
D6
D6
7C
D6
D6
D6
ENDCHAR
STARTCHAR uni0417
ENCODING 1047
SWIDTH 412 0
DWIDTH 7 0
BBX 6 7 0 0
BITMAP
78
CC
0C
38
0C
CC
78
ENDCHAR
STARTCHAR uni0418
ENCODING 1048
SWIDTH 412 0
DWIDTH 7 0
BBX 6 7 0 0
BITMAP
CC
CC
DC
FC
EC
CC
CC
ENDCHAR
STARTCHAR uni0419
ENCODING 1049
SWIDTH 412 0
DWIDTH 7 0
BBX 6 10 0 0
BITMAP
48
78
00
CC
CC
DC
FC
EC
CC
CC
ENDCHAR
STARTCHAR uni041A
ENCODING 1050
SWIDTH 412 0
DWIDTH 7 0
BBX 6 7 0 0
BITMAP
CC
CC
CC
F8
CC
CC
CC
ENDCHAR
STARTCHAR uni041B
ENCODING 1051
SWIDTH 412 0
DWIDTH 7 0
BBX 6 7 0 0
BITMAP
7C
6C
6C
6C
6C
6C
CC
ENDCHAR
STARTCHAR uni041C
ENCODING 1052
SWIDTH 471 0
DWIDTH 8 0
BBX 7 7 0 0
BITMAP
C6
EE
FE
D6
C6
C6
C6
ENDCHAR
STARTCHAR uni041D
ENCODING 1053
SWIDTH 412 0
DWIDTH 7 0
BBX 6 7 0 0
BITMAP
CC
CC
CC
FC
CC
CC
CC
ENDCHAR
STARTCHAR uni041E
ENCODING 1054
SWIDTH 412 0
DWIDTH 7 0
BBX 6 7 0 0
BITMAP
78
CC
CC
CC
CC
CC
78
ENDCHAR
STARTCHAR uni041F
ENCODING 1055
SWIDTH 412 0
DWIDTH 7 0
BBX 6 7 0 0
BITMAP
FC
CC
CC
CC
CC
CC
CC
ENDCHAR
STARTCHAR uni0420
ENCODING 1056
SWIDTH 412 0
DWIDTH 7 0
BBX 6 7 0 0
BITMAP
F8
CC
CC
D8
F0
C0
C0
ENDCHAR
STARTCHAR uni0421
ENCODING 1057
SWIDTH 412 0
DWIDTH 7 0
BBX 6 7 0 0
BITMAP
78
CC
C0
C0
C0
CC
78
ENDCHAR
STARTCHAR uni0422
ENCODING 1058
SWIDTH 412 0
DWIDTH 7 0
BBX 6 7 0 0
BITMAP
FC
30
30
30
30
30
30
ENDCHAR
STARTCHAR uni0423
ENCODING 1059
SWIDTH 412 0
DWIDTH 7 0
BBX 6 7 0 0
BITMAP
CC
CC
CC
7C
0C
CC
78
ENDCHAR
STARTCHAR uni0424
ENCODING 1060
SWIDTH 471 0
DWIDTH 8 0
BBX 7 7 0 0
BITMAP
10
7C
D6
D6
D6
7C
10
ENDCHAR
STARTCHAR uni0425
ENCODING 1061
SWIDTH 412 0
DWIDTH 7 0
BBX 6 7 0 0
BITMAP
CC
CC
CC
78
CC
CC
CC
ENDCHAR
STARTCHAR uni0426
ENCODING 1062
SWIDTH 471 0
DWIDTH 8 0
BBX 7 8 0 -1
BITMAP
CC
CC
CC
CC
CC
CC
FE
06
ENDCHAR
STARTCHAR uni0427
ENCODING 1063
SWIDTH 412 0
DWIDTH 7 0
BBX 6 7 0 0
BITMAP
CC
CC
CC
7C
0C
0C
0C
ENDCHAR
STARTCHAR uni0428
ENCODING 1064
SWIDTH 471 0
DWIDTH 8 0
BBX 7 7 0 0
BITMAP
D6
D6
D6
D6
D6
D6
FE
ENDCHAR
STARTCHAR uni0429
ENCODING 1065
SWIDTH 529 0
DWIDTH 9 0
BBX 8 8 0 -1
BITMAP
D6
D6
D6
D6
D6
D6
FF
03
ENDCHAR
STARTCHAR uni042A
ENCODING 1066
SWIDTH 471 0
DWIDTH 8 0
BBX 7 7 0 0
BITMAP
E0
60
7C
66
66
66
7C
ENDCHAR
STARTCHAR uni042B
ENCODING 1067
SWIDTH 529 0
DWIDTH 9 0
BBX 8 7 0 0
BITMAP
C3
C3
F3
DB
DB
DB
F3
ENDCHAR
STARTCHAR uni042C
ENCODING 1068
SWIDTH 412 0
DWIDTH 7 0
BBX 6 7 0 0
BITMAP
C0
C0
F8
CC
CC
CC
F8
ENDCHAR
STARTCHAR uni042D
ENCODING 1069
SWIDTH 412 0
DWIDTH 7 0
BBX 6 7 0 0
BITMAP
F8
0C
0C
7C
0C
0C
F8
ENDCHAR
STARTCHAR uni042E
ENCODING 1070
SWIDTH 529 0
DWIDTH 9 0
BBX 8 7 0 0
BITMAP
CE
DB
DB
FB
DB
DB
CE
ENDCHAR
STARTCHAR uni042F
ENCODING 1071
SWIDTH 412 0
DWIDTH 7 0
BBX 6 7 0 0
BITMAP
7C
CC
CC
7C
CC
CC
CC
ENDCHAR
STARTCHAR uni0430
ENCODING 1072
SWIDTH 412 0
DWIDTH 7 0
BBX 6 5 0 0
BITMAP
78
0C
7C
CC
7C
ENDCHAR
STARTCHAR uni0431
ENCODING 1073
SWIDTH 412 0
DWIDTH 7 0
BBX 6 8 0 0
BITMAP
0C
78
C0
F8
CC
CC
CC
78
ENDCHAR
STARTCHAR uni0432
ENCODING 1074
SWIDTH 412 0
DWIDTH 7 0
BBX 6 5 0 0
BITMAP
F8
CC
F8
CC
F8
ENDCHAR
STARTCHAR uni0433
ENCODING 1075
SWIDTH 412 0
DWIDTH 7 0
BBX 6 5 0 0
BITMAP
FC
C0
C0
C0
C0
ENDCHAR
STARTCHAR uni0434
ENCODING 1076
SWIDTH 471 0
DWIDTH 8 0
BBX 7 7 0 -2
BITMAP
7C
6C
6C
6C
CC
FE
C6
ENDCHAR
STARTCHAR uni0435
ENCODING 1077
SWIDTH 412 0
DWIDTH 7 0
BBX 6 5 0 0
BITMAP
78
CC
FC
C0
78
ENDCHAR
STARTCHAR uni0436
ENCODING 1078
SWIDTH 471 0
DWIDTH 8 0
BBX 7 5 0 0
BITMAP
D6
D6
7C
D6
D6
ENDCHAR
STARTCHAR uni0437
ENCODING 1079
SWIDTH 412 0
DWIDTH 7 0
BBX 6 5 0 0
BITMAP
78
CC
18
CC
78
ENDCHAR
STARTCHAR uni0438
ENCODING 1080
SWIDTH 412 0
DWIDTH 7 0
BBX 6 5 0 0
BITMAP
CC
DC
FC
EC
CC
ENDCHAR
STARTCHAR uni0439
ENCODING 1081
SWIDTH 412 0
DWIDTH 7 0
BBX 6 8 0 0
BITMAP
48
78
00
CC
DC
FC
EC
CC
ENDCHAR
STARTCHAR uni043A
ENCODING 1082
SWIDTH 412 0
DWIDTH 7 0
BBX 6 5 0 0
BITMAP
CC
CC
F8
CC
CC
ENDCHAR
STARTCHAR uni043B
ENCODING 1083
SWIDTH 412 0
DWIDTH 7 0
BBX 6 5 0 0
BITMAP
7C
6C
6C
6C
CC
ENDCHAR
STARTCHAR uni043C
ENCODING 1084
SWIDTH 471 0
DWIDTH 8 0
BBX 7 5 0 0
BITMAP
C6
EE
FE
D6
C6
ENDCHAR
STARTCHAR uni043D
ENCODING 1085
SWIDTH 412 0
DWIDTH 7 0
BBX 6 5 0 0
BITMAP
CC
CC
FC
CC
CC
ENDCHAR
STARTCHAR uni043E
ENCODING 1086
SWIDTH 412 0
DWIDTH 7 0
BBX 6 5 0 0
BITMAP
78
CC
CC
CC
78
ENDCHAR
STARTCHAR uni043F
ENCODING 1087
SWIDTH 412 0
DWIDTH 7 0
BBX 6 5 0 0
BITMAP
FC
CC
CC
CC
CC
ENDCHAR
STARTCHAR uni0440
ENCODING 1088
SWIDTH 412 0
DWIDTH 7 0
BBX 6 7 0 -2
BITMAP
F8
CC
CC
CC
F8
C0
C0
ENDCHAR
STARTCHAR uni0441
ENCODING 1089
SWIDTH 353 0
DWIDTH 6 0
BBX 5 5 0 0
BITMAP
78
C0
C0
C0
78
ENDCHAR
STARTCHAR uni0442
ENCODING 1090
SWIDTH 412 0
DWIDTH 7 0
BBX 6 5 0 0
BITMAP
FC
30
30
30
30
ENDCHAR
STARTCHAR uni0443
ENCODING 1091
SWIDTH 412 0
DWIDTH 7 0
BBX 6 7 0 -2
BITMAP
CC
CC
CC
CC
7C
0C
78
ENDCHAR
STARTCHAR uni0444
ENCODING 1092
SWIDTH 471 0
DWIDTH 8 0
BBX 7 9 0 -2
BITMAP
10
10
7C
D6
D6
D6
7C
10
10
ENDCHAR
STARTCHAR uni0445
ENCODING 1093
SWIDTH 412 0
DWIDTH 7 0
BBX 6 5 0 0
BITMAP
CC
CC
78
CC
CC
ENDCHAR
STARTCHAR uni0446
ENCODING 1094
SWIDTH 471 0
DWIDTH 8 0
BBX 7 6 0 -1
BITMAP
CC
CC
CC
CC
FE
06
ENDCHAR
STARTCHAR uni0447
ENCODING 1095
SWIDTH 412 0
DWIDTH 7 0
BBX 6 5 0 0
BITMAP
CC
CC
7C
0C
0C
ENDCHAR
STARTCHAR uni0448
ENCODING 1096
SWIDTH 471 0
DWIDTH 8 0
BBX 7 5 0 0
BITMAP
D6
D6
D6
D6
FE
ENDCHAR
STARTCHAR uni0449
ENCODING 1097
SWIDTH 529 0
DWIDTH 9 0
BBX 8 6 0 -1
BITMAP
D6
D6
D6
D6
FF
03
ENDCHAR
STARTCHAR uni044A
ENCODING 1098
SWIDTH 412 0
DWIDTH 7 0
BBX 6 5 0 0
BITMAP
E0
60
78
6C
78
ENDCHAR
STARTCHAR uni044B
ENCODING 1099
SWIDTH 529 0
DWIDTH 9 0
BBX 8 5 0 0
BITMAP
C3
C3
F3
DB
F3
ENDCHAR
STARTCHAR uni044C
ENCODING 1100
SWIDTH 412 0
DWIDTH 7 0
BBX 6 5 0 0
BITMAP
C0
C0
F8
CC
F8
ENDCHAR
STARTCHAR uni044D
ENCODING 1101
SWIDTH 412 0
DWIDTH 7 0
BBX 6 5 0 0
BITMAP
F8
0C
7C
0C
F8
ENDCHAR
STARTCHAR uni044E
ENCODING 1102
SWIDTH 529 0
DWIDTH 9 0
BBX 8 5 0 0
BITMAP
CE
DB
FB
DB
CE
ENDCHAR
STARTCHAR uni044F
ENCODING 1103
SWIDTH 412 0
DWIDTH 7 0
BBX 6 5 0 0
BITMAP
7C
CC
7C
CC
CC
ENDCHAR
STARTCHAR uni0450
ENCODING 1104
SWIDTH 412 0
DWIDTH 7 0
BBX 6 8 0 0
BITMAP
60
30
00
78
CC
FC
C0
78
ENDCHAR
STARTCHAR uni0451
ENCODING 1105
SWIDTH 412 0
DWIDTH 7 0
BBX 6 8 0 0
BITMAP
CC
CC
00
78
CC
FC
C0
78
ENDCHAR
STARTCHAR uni0452
ENCODING 1106
SWIDTH 412 0
DWIDTH 7 0
BBX 6 9 0 -1
BITMAP
C0
E0
C0
F8
CC
CC
CC
CC
18
ENDCHAR
STARTCHAR uni0453
ENCODING 1107
SWIDTH 412 0
DWIDTH 7 0
BBX 6 8 0 0
BITMAP
18
30
00
FC
C0
C0
C0
C0
ENDCHAR
STARTCHAR uni0454
ENCODING 1108
SWIDTH 412 0
DWIDTH 7 0
BBX 6 5 0 0
BITMAP
7C
C0
F8
C0
7C
ENDCHAR
STARTCHAR uni0455
ENCODING 1109
SWIDTH 412 0
DWIDTH 7 0
BBX 6 5 0 0
BITMAP
7C
C0
78
0C
F8
ENDCHAR
STARTCHAR uni0456
ENCODING 1110
SWIDTH 176 0
DWIDTH 3 0
BBX 2 7 0 0
BITMAP
C0
00
C0
C0
C0
C0
C0
ENDCHAR
STARTCHAR uni0457
ENCODING 1111
SWIDTH 294 0
DWIDTH 5 0
BBX 4 7 0 0
BITMAP
90
00
60
60
60
60
60
ENDCHAR
STARTCHAR uni0458
ENCODING 1112
SWIDTH 176 0
DWIDTH 3 0
BBX 3 9 -1 -2
BITMAP
60
00
60
60
60
60
60
60
C0
ENDCHAR
STARTCHAR uni0459
ENCODING 1113
SWIDTH 647 0
DWIDTH 11 0
BBX 10 5 0 0
BITMAP
7C00
6C00
6F80
6CC0
CF80
ENDCHAR
STARTCHAR uni045A
ENCODING 1114
SWIDTH 647 0
DWIDTH 11 0
BBX 10 5 0 0
BITMAP
CC00
CC00
FF80
CCC0
CF80
ENDCHAR
STARTCHAR uni045B
ENCODING 1115
SWIDTH 412 0
DWIDTH 7 0
BBX 6 8 0 0
BITMAP
C0
E0
C0
F8
CC
CC
CC
CC
ENDCHAR
STARTCHAR uni045C
ENCODING 1116
SWIDTH 412 0
DWIDTH 7 0
BBX 6 8 0 0
BITMAP
18
30
00
CC
CC
F8
CC
CC
ENDCHAR
STARTCHAR uni045D
ENCODING 1117
SWIDTH 412 0
DWIDTH 7 0
BBX 6 8 0 0
BITMAP
60
30
00
CC
DC
FC
EC
CC
ENDCHAR
STARTCHAR uni045E
ENCODING 1118
SWIDTH 412 0
DWIDTH 7 0
BBX 6 10 0 -2
BITMAP
48
78
00
CC
CC
CC
CC
7C
0C
78
ENDCHAR
STARTCHAR uni045F
ENCODING 1119
SWIDTH 412 0
DWIDTH 7 0
BBX 6 7 0 -2
BITMAP
CC
CC
CC
CC
FC
30
30
ENDCHAR
STARTCHAR uni0460
ENCODING 1120
SWIDTH 471 0
DWIDTH 8 0
BBX 7 7 0 0
BITMAP
C6
D6
D6
D6
D6
D6
6C
ENDCHAR
STARTCHAR uni0461
ENCODING 1121
SWIDTH 471 0
DWIDTH 8 0
BBX 7 5 0 0
BITMAP
C6
D6
D6
D6
6C
ENDCHAR
STARTCHAR uni0462
ENCODING 1122
SWIDTH 471 0
DWIDTH 8 0
BBX 7 7 0 0
BITMAP
60
F0
60
7C
66
66
7C
ENDCHAR
STARTCHAR uni0463
ENCODING 1123
SWIDTH 471 0
DWIDTH 8 0
BBX 7 6 0 0
BITMAP
60
F0
60
7C
66
7C
ENDCHAR
STARTCHAR uni0464
ENCODING 1124
SWIDTH 529 0
DWIDTH 9 0
BBX 8 7 0 0
BITMAP
CF
D8
D8
FE
D8
D8
CF
ENDCHAR
STARTCHAR uni0465
ENCODING 1125
SWIDTH 529 0
DWIDTH 9 0
BBX 8 5 0 0
BITMAP
CF
D8
FF
D8
CF
ENDCHAR
STARTCHAR uni0466
ENCODING 1126
SWIDTH 471 0
DWIDTH 8 0
BBX 7 7 0 0
BITMAP
38
6C
6C
FE
D6
D6
D6
ENDCHAR
STARTCHAR uni0467
ENCODING 1127
SWIDTH 471 0
DWIDTH 8 0
BBX 7 5 0 0
BITMAP
38
6C
FE
D6
D6
ENDCHAR
STARTCHAR uni0468
ENCODING 1128
SWIDTH 647 0
DWIDTH 11 0
BBX 10 7 0 0
BITMAP
C700
CD80
CD80
FFC0
DAC0
DAC0
DAC0
ENDCHAR
STARTCHAR uni0469
ENCODING 1129
SWIDTH 647 0
DWIDTH 11 0
BBX 10 5 0 0
BITMAP
C700
CD80
FFC0
DAC0
DAC0
ENDCHAR
STARTCHAR uni046A
ENCODING 1130
SWIDTH 471 0
DWIDTH 8 0
BBX 7 7 0 0
BITMAP
FE
C6
6C
FE
D6
D6
D6
ENDCHAR
STARTCHAR uni046B
ENCODING 1131
SWIDTH 471 0
DWIDTH 8 0
BBX 7 5 0 0
BITMAP
FE
C6
6C
D6
D6
ENDCHAR
STARTCHAR uni046C
ENCODING 1132
SWIDTH 647 0
DWIDTH 11 0
BBX 10 7 0 0
BITMAP
DFC0
D8C0
CD80
FFC0
DAC0
DAC0
DAC0
ENDCHAR
STARTCHAR uni046D
ENCODING 1133
SWIDTH 647 0
DWIDTH 11 0
BBX 10 5 0 0
BITMAP
DFC0
D8C0
FD80
DAC0
DAC0
ENDCHAR
STARTCHAR uni046E
ENCODING 1134
SWIDTH 412 0
DWIDTH 7 0
BBX 6 11 0 -2
BITMAP
58
20
78
CC
0C
38
0C
0C
78
C0
7C
ENDCHAR
STARTCHAR uni046F
ENCODING 1135
SWIDTH 412 0
DWIDTH 7 0
BBX 6 9 0 -2
BITMAP
58
20
78
CC
18
0C
78
C0
78
ENDCHAR
STARTCHAR uni0470
ENCODING 1136
SWIDTH 471 0
DWIDTH 8 0
BBX 7 7 0 0
BITMAP
D6
D6
D6
D6
7C
38
38
ENDCHAR
STARTCHAR uni0471
ENCODING 1137
SWIDTH 471 0
DWIDTH 8 0
BBX 7 7 0 -2
BITMAP
10
D6
D6
D6
7C
10
10
ENDCHAR
STARTCHAR uni0472
ENCODING 1138
SWIDTH 412 0
DWIDTH 7 0
BBX 6 7 0 0
BITMAP
78
CC
CC
FC
CC
CC
78
ENDCHAR
STARTCHAR uni0473
ENCODING 1139
SWIDTH 412 0
DWIDTH 7 0
BBX 6 5 0 0
BITMAP
78
CC
FC
CC
78
ENDCHAR
STARTCHAR uni0474
ENCODING 1140
SWIDTH 471 0
DWIDTH 8 0
BBX 7 7 0 0
BITMAP
C6
CC
CC
CC
CC
78
30
ENDCHAR
STARTCHAR uni0475
ENCODING 1141
SWIDTH 471 0
DWIDTH 8 0
BBX 7 5 0 0
BITMAP
C6
CC
CC
78
30
ENDCHAR
STARTCHAR uni0478
ENCODING 1144
SWIDTH 412 0
DWIDTH 7 0
BBX 6 7 0 0
BITMAP
CC
CC
CC
78
CC
CC
78
ENDCHAR
STARTCHAR uni0479
ENCODING 1145
SWIDTH 412 0
DWIDTH 7 0
BBX 6 8 0 0
BITMAP
0C
CC
CC
78
CC
CC
CC
78
ENDCHAR
STARTCHAR uni047A
ENCODING 1146
SWIDTH 412 0
DWIDTH 7 0
BBX 6 9 0 -1
BITMAP
18
78
DC
CC
CC
CC
EC
78
60
ENDCHAR
STARTCHAR uni047B
ENCODING 1147
SWIDTH 412 0
DWIDTH 7 0
BBX 6 7 0 -1
BITMAP
18
78
DC
CC
EC
78
60
ENDCHAR
STARTCHAR uni0480
ENCODING 1152
SWIDTH 412 0
DWIDTH 7 0
BBX 6 9 0 -2
BITMAP
78
CC
CC
C0
C0
C0
7C
0C
0C
ENDCHAR
STARTCHAR uni0481
ENCODING 1153
SWIDTH 412 0
DWIDTH 7 0
BBX 6 7 0 -2
BITMAP
78
CC
C0
C0
78
18
18
ENDCHAR
STARTCHAR uni0490
ENCODING 1168
SWIDTH 412 0
DWIDTH 7 0
BBX 6 8 0 0
BITMAP
0C
FC
C0
C0
C0
C0
C0
C0
ENDCHAR
STARTCHAR uni0491
ENCODING 1169
SWIDTH 412 0
DWIDTH 7 0
BBX 6 6 0 0
BITMAP
0C
FC
C0
C0
C0
C0
ENDCHAR
STARTCHAR uni04D4
ENCODING 1236
SWIDTH 529 0
DWIDTH 9 0
BBX 8 7 0 0
BITMAP
7F
D8
D8
FE
D8
D8
DF
ENDCHAR
STARTCHAR uni04D5
ENCODING 1237
SWIDTH 529 0
DWIDTH 9 0
BBX 8 5 0 0
BITMAP
7E
1B
7F
D8
7F
ENDCHAR
STARTCHAR uni04D8
ENCODING 1240
SWIDTH 412 0
DWIDTH 7 0
BBX 6 7 0 0
BITMAP
F8
0C
0C
FC
CC
CC
78
ENDCHAR
STARTCHAR uni04D9
ENCODING 1241
SWIDTH 412 0
DWIDTH 7 0
BBX 6 5 0 0
BITMAP
F8
0C
FC
CC
78
ENDCHAR
STARTCHAR uni05BE
ENCODING 1470
SWIDTH 412 0
DWIDTH 7 0
BBX 6 1 0 4
BITMAP
FC
ENDCHAR
STARTCHAR uni05C0
ENCODING 1472
SWIDTH 176 0
DWIDTH 3 0
BBX 2 9 0 -2
BITMAP
C0
C0
C0
C0
C0
C0
C0
C0
C0
ENDCHAR
STARTCHAR uni05C3
ENCODING 1475
SWIDTH 176 0
DWIDTH 3 0
BBX 2 5 0 0
BITMAP
C0
C0
00
C0
C0
ENDCHAR
STARTCHAR uni05C6
ENCODING 1478
SWIDTH 294 0
DWIDTH 5 0
BBX 4 5 0 0
BITMAP
70
C0
C0
C0
F0
ENDCHAR
STARTCHAR uni05D0
ENCODING 1488
SWIDTH 412 0
DWIDTH 7 0
BBX 6 5 0 0
BITMAP
CC
6C
78
D8
CC
ENDCHAR
STARTCHAR uni05D1
ENCODING 1489
SWIDTH 412 0
DWIDTH 7 0
BBX 6 5 0 0
BITMAP
F0
18
18
18
FC
ENDCHAR
STARTCHAR uni05D2
ENCODING 1490
SWIDTH 294 0
DWIDTH 5 0
BBX 4 5 0 0
BITMAP
E0
30
30
70
D0
ENDCHAR
STARTCHAR uni05D3
ENCODING 1491
SWIDTH 412 0
DWIDTH 7 0
BBX 6 5 0 0
BITMAP
FC
18
18
18
18
ENDCHAR
STARTCHAR uni05D4
ENCODING 1492
SWIDTH 412 0
DWIDTH 7 0
BBX 6 5 0 0
BITMAP
F8
0C
CC
CC
CC
ENDCHAR
STARTCHAR uni05D5
ENCODING 1493
SWIDTH 176 0
DWIDTH 3 0
BBX 2 5 0 0
BITMAP
C0
C0
C0
C0
C0
ENDCHAR
STARTCHAR uni05D6
ENCODING 1494
SWIDTH 294 0
DWIDTH 5 0
BBX 4 5 0 0
BITMAP
F0
30
60
60
60
ENDCHAR
STARTCHAR uni05D7
ENCODING 1495
SWIDTH 412 0
DWIDTH 7 0
BBX 6 5 0 0
BITMAP
F8
CC
CC
CC
CC
ENDCHAR
STARTCHAR uni05D8
ENCODING 1496
SWIDTH 412 0
DWIDTH 7 0
BBX 6 5 0 0
BITMAP
D8
CC
CC
CC
78
ENDCHAR
STARTCHAR uni05D9
ENCODING 1497
SWIDTH 176 0
DWIDTH 3 0
BBX 2 3 0 2
BITMAP
C0
C0
80
ENDCHAR
STARTCHAR uni05DA
ENCODING 1498
SWIDTH 412 0
DWIDTH 7 0
BBX 6 7 0 -2
BITMAP
F8
0C
0C
0C
0C
0C
0C
ENDCHAR
STARTCHAR uni05DB
ENCODING 1499
SWIDTH 412 0
DWIDTH 7 0
BBX 6 5 0 0
BITMAP
F8
0C
0C
0C
F8
ENDCHAR
STARTCHAR uni05DC
ENCODING 1500
SWIDTH 412 0
DWIDTH 7 0
BBX 6 7 0 0
BITMAP
C0
C0
FC
0C
18
30
60
ENDCHAR
STARTCHAR uni05DD
ENCODING 1501
SWIDTH 412 0
DWIDTH 7 0
BBX 6 5 0 0
BITMAP
F8
CC
CC
CC
FC
ENDCHAR
STARTCHAR uni05DE
ENCODING 1502
SWIDTH 412 0
DWIDTH 7 0
BBX 6 5 0 0
BITMAP
D8
EC
CC
CC
DC
ENDCHAR
STARTCHAR uni05DF
ENCODING 1503
SWIDTH 235 0
DWIDTH 4 0
BBX 3 7 0 -2
BITMAP
C0
60
60
60
60
60
60
ENDCHAR
STARTCHAR uni05E0
ENCODING 1504
SWIDTH 294 0
DWIDTH 5 0
BBX 4 5 0 0
BITMAP
E0
30
30
30
F0
ENDCHAR
STARTCHAR uni05E1
ENCODING 1505
SWIDTH 412 0
DWIDTH 7 0
BBX 6 5 0 0
BITMAP
F8
4C
CC
CC
78
ENDCHAR
STARTCHAR uni05E2
ENCODING 1506
SWIDTH 412 0
DWIDTH 7 0
BBX 6 5 0 0
BITMAP
CC
CC
6C
6C
F8
ENDCHAR
STARTCHAR uni05E3
ENCODING 1507
SWIDTH 412 0
DWIDTH 7 0
BBX 6 7 0 -2
BITMAP
F8
CC
6C
0C
0C
0C
0C
ENDCHAR
STARTCHAR uni05E4
ENCODING 1508
SWIDTH 412 0
DWIDTH 7 0
BBX 6 5 0 0
BITMAP
F8
CC
6C
0C
F8
ENDCHAR
STARTCHAR uni05E5
ENCODING 1509
SWIDTH 412 0
DWIDTH 7 0
BBX 6 7 0 -2
BITMAP
CC
CC
6C
78
60
60
60
ENDCHAR
STARTCHAR uni05E6
ENCODING 1510
SWIDTH 412 0
DWIDTH 7 0
BBX 6 5 0 0
BITMAP
CC
6C
3C
18
FC
ENDCHAR
STARTCHAR uni05E7
ENCODING 1511
SWIDTH 412 0
DWIDTH 7 0
BBX 6 7 0 -2
BITMAP
FC
0C
CC
D8
D8
C0
C0
ENDCHAR
STARTCHAR uni05E8
ENCODING 1512
SWIDTH 412 0
DWIDTH 7 0
BBX 6 5 0 0
BITMAP
F8
0C
0C
0C
0C
ENDCHAR
STARTCHAR uni05E9
ENCODING 1513
SWIDTH 412 0
DWIDTH 7 0
BBX 6 5 0 0
BITMAP
AC
AC
EC
8C
F8
ENDCHAR
STARTCHAR uni05EA
ENCODING 1514
SWIDTH 412 0
DWIDTH 7 0
BBX 6 5 0 0
BITMAP
F8
6C
6C
6C
CC
ENDCHAR
STARTCHAR uni05F0
ENCODING 1520
SWIDTH 353 0
DWIDTH 6 0
BBX 5 5 0 0
BITMAP
D8
D8
D8
D8
D8
ENDCHAR
STARTCHAR uni05F1
ENCODING 1521
SWIDTH 353 0
DWIDTH 6 0
BBX 5 5 0 0
BITMAP
D8
D8
98
18
18
ENDCHAR
STARTCHAR uni05F2
ENCODING 1522
SWIDTH 353 0
DWIDTH 6 0
BBX 5 3 0 2
BITMAP
D8
D8
90
ENDCHAR
STARTCHAR uni05F3
ENCODING 1523
SWIDTH 235 0
DWIDTH 4 0
BBX 3 3 0 2
BITMAP
60
60
C0
ENDCHAR
STARTCHAR uni0E3F
ENCODING 3647
SWIDTH 412 0
DWIDTH 7 0
BBX 6 9 0 -1
BITMAP
20
F8
CC
CC
F8
CC
CC
F8
20
ENDCHAR
STARTCHAR uni1E9E
ENCODING 7838
SWIDTH 412 0
DWIDTH 7 0
BBX 6 7 0 0
BITMAP
78
CC
D8
DC
CC
CC
D8
ENDCHAR
STARTCHAR endash
ENCODING 8211
SWIDTH 353 0
DWIDTH 6 0
BBX 5 1 0 3
BITMAP
F8
ENDCHAR
STARTCHAR emdash
ENCODING 8212
SWIDTH 412 0
DWIDTH 7 0
BBX 6 1 0 3
BITMAP
FC
ENDCHAR
STARTCHAR quoteleft
ENCODING 8216
SWIDTH 235 0
DWIDTH 4 0
BBX 3 3 0 5
BITMAP
60
C0
C0
ENDCHAR
STARTCHAR quoteright
ENCODING 8217
SWIDTH 235 0
DWIDTH 4 0
BBX 3 3 0 5
BITMAP
60
60
C0
ENDCHAR
STARTCHAR quotesinglbase
ENCODING 8218
SWIDTH 235 0
DWIDTH 4 0
BBX 3 3 0 -1
BITMAP
60
60
C0
ENDCHAR
STARTCHAR quotereversed
ENCODING 8219
SWIDTH 235 0
DWIDTH 4 0
BBX 3 3 0 7
BITMAP
C0
C0
60
ENDCHAR
STARTCHAR quotedblleft
ENCODING 8220
SWIDTH 412 0
DWIDTH 7 0
BBX 6 3 0 5
BITMAP
6C
D8
D8
ENDCHAR
STARTCHAR quotedblright
ENCODING 8221
SWIDTH 412 0
DWIDTH 7 0
BBX 6 3 0 5
BITMAP
6C
6C
D8
ENDCHAR
STARTCHAR quotedblbase
ENCODING 8222
SWIDTH 412 0
DWIDTH 7 0
BBX 6 3 0 -1
BITMAP
6C
6C
D8
ENDCHAR
STARTCHAR dagger
ENCODING 8224
SWIDTH 412 0
DWIDTH 7 0
BBX 6 8 0 0
BITMAP
30
30
FC
FC
30
30
30
30
ENDCHAR
STARTCHAR daggerdbl
ENCODING 8225
SWIDTH 412 0
DWIDTH 7 0
BBX 6 9 0 -1
BITMAP
30
30
FC
FC
30
FC
FC
30
30
ENDCHAR
STARTCHAR bullet
ENCODING 8226
SWIDTH 235 0
DWIDTH 4 0
BBX 3 3 0 2
BITMAP
E0
E0
E0
ENDCHAR
STARTCHAR ellipsis
ENCODING 8230
SWIDTH 529 0
DWIDTH 9 0
BBX 8 2 0 0
BITMAP
DB
DB
ENDCHAR
STARTCHAR perthousand
ENCODING 8240
SWIDTH 647 0
DWIDTH 11 0
BBX 10 6 0 0
BITMAP
CC00
D800
1800
3000
36C0
66C0
ENDCHAR
STARTCHAR minute
ENCODING 8242
SWIDTH 235 0
DWIDTH 4 0
BBX 3 2 0 4
BITMAP
60
C0
ENDCHAR
STARTCHAR second
ENCODING 8243
SWIDTH 353 0
DWIDTH 6 0
BBX 5 3 0 3
BITMAP
60
D8
30
ENDCHAR
STARTCHAR guilsinglleft
ENCODING 8249
SWIDTH 294 0
DWIDTH 5 0
BBX 4 5 0 1
BITMAP
30
60
C0
60
30
ENDCHAR
STARTCHAR guilsinglright
ENCODING 8250
SWIDTH 294 0
DWIDTH 5 0
BBX 4 5 0 1
BITMAP
C0
60
30
60
C0
ENDCHAR
STARTCHAR exclamdbl
ENCODING 8252
SWIDTH 353 0
DWIDTH 6 0
BBX 5 7 0 0
BITMAP
D8
D8
D8
D8
D8
00
D8
ENDCHAR
STARTCHAR uni203D
ENCODING 8253
SWIDTH 353 0
DWIDTH 6 0
BBX 5 8 0 0
BITMAP
F0
58
58
70
60
60
00
60
ENDCHAR
STARTCHAR uni203E
ENCODING 8254
SWIDTH 353 0
DWIDTH 6 0
BBX 5 1 0 7
BITMAP
F8
ENDCHAR
STARTCHAR fraction
ENCODING 8260
SWIDTH 412 0
DWIDTH 7 0
BBX 6 7 0 0
BITMAP
04
0C
18
30
60
C0
80
ENDCHAR
STARTCHAR uni204A
ENCODING 8266
SWIDTH 412 0
DWIDTH 7 0
BBX 6 5 0 0
BITMAP
FC
0C
18
30
60
ENDCHAR
STARTCHAR uni2070
ENCODING 8304
SWIDTH 353 0
DWIDTH 6 0
BBX 5 4 0 3
BITMAP
78
D8
D8
F0
ENDCHAR
STARTCHAR uni2071
ENCODING 8305
SWIDTH 294 0
DWIDTH 5 0
BBX 4 5 0 3
BITMAP
30
00
F0
30
30
ENDCHAR
STARTCHAR uni2074
ENCODING 8308
SWIDTH 353 0
DWIDTH 6 0
BBX 5 4 0 3
BITMAP
D8
D8
F8
18
ENDCHAR
STARTCHAR uni2075
ENCODING 8309
SWIDTH 353 0
DWIDTH 6 0
BBX 5 4 0 3
BITMAP
F8
C0
38
F0
ENDCHAR
STARTCHAR uni2076
ENCODING 8310
SWIDTH 353 0
DWIDTH 6 0
BBX 5 4 0 3
BITMAP
C0
F8
D8
F8
ENDCHAR
STARTCHAR uni2077
ENCODING 8311
SWIDTH 353 0
DWIDTH 6 0
BBX 5 4 0 3
BITMAP
F8
18
30
30
ENDCHAR
STARTCHAR uni2078
ENCODING 8312
SWIDTH 412 0
DWIDTH 7 0
BBX 6 4 0 3
BITMAP
7C
DC
EC
F8
ENDCHAR
STARTCHAR uni2079
ENCODING 8313
SWIDTH 412 0
DWIDTH 7 0
BBX 6 4 0 3
BITMAP
78
CC
3C
F8
ENDCHAR
STARTCHAR Euro
ENCODING 8364
SWIDTH 412 0
DWIDTH 7 0
BBX 6 7 0 0
BITMAP
3C
60
F8
60
F8
60
3C
ENDCHAR
STARTCHAR uni20BA
ENCODING 8378
SWIDTH 471 0
DWIDTH 8 0
BBX 7 7 0 0
BITMAP
60
70
E0
70
E6
66
7C
ENDCHAR
STARTCHAR uni20BD
ENCODING 8381
SWIDTH 471 0
DWIDTH 8 0
BBX 7 7 0 0
BITMAP
7C
66
66
FC
60
F8
60
ENDCHAR
STARTCHAR uni20BF
ENCODING 8383
SWIDTH 412 0
DWIDTH 7 0
BBX 6 9 0 -1
BITMAP
50
F8
CC
CC
F8
CC
CC
F8
50
ENDCHAR
STARTCHAR uni2117
ENCODING 8471
SWIDTH 471 0
DWIDTH 8 0
BBX 7 7 0 0
BITMAP
7C
82
BA
BA
A2
82
7C
ENDCHAR
STARTCHAR prescription
ENCODING 8478
SWIDTH 588 0
DWIDTH 10 0
BBX 9 7 0 0
BITMAP
F800
CC00
CC00
F800
CD80
C700
CD80
ENDCHAR
STARTCHAR uni2120
ENCODING 8480
SWIDTH 412 0
DWIDTH 7 0
BBX 6 3 0 5
BITMAP
7C
5C
D4
ENDCHAR
STARTCHAR trademark
ENCODING 8482
SWIDTH 412 0
DWIDTH 7 0
BBX 6 3 0 5
BITMAP
FC
5C
54
ENDCHAR
STARTCHAR Omega
ENCODING 8486
SWIDTH 471 0
DWIDTH 8 0
BBX 7 7 0 0
BITMAP
7C
C6
C6
C6
C6
6C
EE
ENDCHAR
STARTCHAR estimated
ENCODING 8494
SWIDTH 471 0
DWIDTH 8 0
BBX 7 5 0 0
BITMAP
7C
C6
FE
C0
7E
ENDCHAR
STARTCHAR aleph
ENCODING 8501
SWIDTH 412 0
DWIDTH 7 0
BBX 6 5 0 0
BITMAP
CC
6C
FC
D8
CC
ENDCHAR
STARTCHAR uni2136
ENCODING 8502
SWIDTH 412 0
DWIDTH 7 0
BBX 6 5 0 0
BITMAP
F0
18
18
18
FC
ENDCHAR
STARTCHAR uni2137
ENCODING 8503
SWIDTH 294 0
DWIDTH 5 0
BBX 4 5 0 0
BITMAP
E0
30
30
70
D0
ENDCHAR
STARTCHAR uni2138
ENCODING 8504
SWIDTH 353 0
DWIDTH 6 0
BBX 5 5 0 0
BITMAP
F8
30
30
30
30
ENDCHAR
STARTCHAR arrowleft
ENCODING 8592
SWIDTH 412 0
DWIDTH 7 0
BBX 6 5 0 2
BITMAP
30
60
FC
60
30
ENDCHAR
STARTCHAR arrowup
ENCODING 8593
SWIDTH 353 0
DWIDTH 6 0
BBX 5 6 0 1
BITMAP
20
70
F8
A8
20
20
ENDCHAR
STARTCHAR arrowright
ENCODING 8594
SWIDTH 412 0
DWIDTH 7 0
BBX 6 5 0 2
BITMAP
30
18
FC
18
30
ENDCHAR
STARTCHAR arrowdown
ENCODING 8595
SWIDTH 353 0
DWIDTH 6 0
BBX 5 6 0 1
BITMAP
20
20
A8
F8
70
20
ENDCHAR
STARTCHAR arrowboth
ENCODING 8596
SWIDTH 588 0
DWIDTH 10 0
BBX 9 5 0 2
BITMAP
3600
6300
FF80
6300
3600
ENDCHAR
STARTCHAR arrowupdn
ENCODING 8597
SWIDTH 353 0
DWIDTH 6 0
BBX 5 9 0 -1
BITMAP
20
70
F8
A8
20
A8
F8
70
20
ENDCHAR
STARTCHAR uni2197
ENCODING 8599
SWIDTH 353 0
DWIDTH 6 0
BBX 5 5 0 1
BITMAP
78
18
28
48
80
ENDCHAR
STARTCHAR uni2198
ENCODING 8600
SWIDTH 353 0
DWIDTH 6 0
BBX 5 5 0 1
BITMAP
80
48
28
18
78
ENDCHAR
STARTCHAR partialdiff
ENCODING 8706
SWIDTH 412 0
DWIDTH 7 0
BBX 6 7 0 0
BITMAP
38
6C
0C
7C
D8
D8
70
ENDCHAR
STARTCHAR existential
ENCODING 8707
SWIDTH 353 0
DWIDTH 6 0
BBX 5 7 0 0
BITMAP
F8
08
08
F8
08
08
F8
ENDCHAR
STARTCHAR emptyset
ENCODING 8709
SWIDTH 412 0
DWIDTH 7 0
BBX 6 6 0 0
BITMAP
74
C8
DC
EC
4C
B8
ENDCHAR
STARTCHAR Delta
ENCODING 8710
SWIDTH 353 0
DWIDTH 6 0
BBX 5 7 0 0
BITMAP
20
20
50
50
88
88
F8
ENDCHAR
STARTCHAR product
ENCODING 8719
SWIDTH 353 0
DWIDTH 6 0
BBX 5 7 0 0
BITMAP
F8
D8
D8
D8
D8
D8
D8
ENDCHAR
STARTCHAR summation
ENCODING 8721
SWIDTH 412 0
DWIDTH 7 0
BBX 6 7 0 0
BITMAP
FC
CC
64
30
64
CC
FC
ENDCHAR
STARTCHAR minus
ENCODING 8722
SWIDTH 412 0
DWIDTH 7 0
BBX 6 1 0 3
BITMAP
FC
ENDCHAR
STARTCHAR uni2215
ENCODING 8725
SWIDTH 412 0
DWIDTH 7 0
BBX 6 7 0 0
BITMAP
04
0C
18
30
60
C0
80
ENDCHAR
STARTCHAR radical
ENCODING 8730
SWIDTH 471 0
DWIDTH 8 0
BBX 7 8 0 -1
BITMAP
0E
0C
0C
0C
EC
6C
6C
38
ENDCHAR
STARTCHAR infinity
ENCODING 8734
SWIDTH 471 0
DWIDTH 8 0
BBX 7 3 0 2
BITMAP
6C
D6
6C
ENDCHAR
STARTCHAR orthogonal
ENCODING 8735
SWIDTH 353 0
DWIDTH 6 0
BBX 5 5 0 0
BITMAP
80
80
E0
A0
F8
ENDCHAR
STARTCHAR angle
ENCODING 8736
SWIDTH 353 0
DWIDTH 6 0
BBX 5 5 0 0
BITMAP
10
20
40
A0
F8
ENDCHAR
STARTCHAR intersection
ENCODING 8745
SWIDTH 353 0
DWIDTH 6 0
BBX 5 7 0 0
BITMAP
70
D8
D8
D8
D8
D8
D8
ENDCHAR
STARTCHAR union
ENCODING 8746
SWIDTH 353 0
DWIDTH 6 0
BBX 5 7 0 0
BITMAP
D8
D8
D8
D8
D8
D8
70
ENDCHAR
STARTCHAR integral
ENCODING 8747
SWIDTH 294 0
DWIDTH 5 0
BBX 4 7 0 0
BITMAP
30
60
60
60
60
60
C0
ENDCHAR
STARTCHAR therefore
ENCODING 8756
SWIDTH 412 0
DWIDTH 7 0
BBX 6 6 0 0
BITMAP
30
30
00
00
CC
CC
ENDCHAR
STARTCHAR uni2235
ENCODING 8757
SWIDTH 412 0
DWIDTH 7 0
BBX 6 6 0 0
BITMAP
CC
CC
00
00
30
30
ENDCHAR
STARTCHAR approxequal
ENCODING 8776
SWIDTH 412 0
DWIDTH 7 0
BBX 6 5 0 1
BITMAP
74
B8
00
74
B8
ENDCHAR
STARTCHAR notequal
ENCODING 8800
SWIDTH 353 0
DWIDTH 6 0
BBX 5 5 0 1
BITMAP
10
F8
20
F8
40
ENDCHAR
STARTCHAR equivalence
ENCODING 8801
SWIDTH 353 0
DWIDTH 6 0
BBX 5 5 0 1
BITMAP
F8
00
F8
00
F8
ENDCHAR
STARTCHAR lessequal
ENCODING 8804
SWIDTH 353 0
DWIDTH 6 0
BBX 5 7 0 0
BITMAP
30
60
C0
60
30
00
F8
ENDCHAR
STARTCHAR greaterequal
ENCODING 8805
SWIDTH 353 0
DWIDTH 6 0
BBX 5 7 0 0
BITMAP
60
30
18
30
60
00
F8
ENDCHAR
STARTCHAR uni226A
ENCODING 8810
SWIDTH 412 0
DWIDTH 7 0
BBX 6 5 0 1
BITMAP
24
48
90
48
24
ENDCHAR
STARTCHAR uni226B
ENCODING 8811
SWIDTH 412 0
DWIDTH 7 0
BBX 6 5 0 1
BITMAP
90
48
24
48
90
ENDCHAR
STARTCHAR circleplus
ENCODING 8853
SWIDTH 353 0
DWIDTH 6 0
BBX 5 5 0 1
BITMAP
70
A8
F8
A8
70
ENDCHAR
STARTCHAR circlemultiply
ENCODING 8855
SWIDTH 353 0
DWIDTH 6 0
BBX 5 5 0 1
BITMAP
70
D8
A8
D8
70
ENDCHAR
STARTCHAR uni22A4
ENCODING 8868
SWIDTH 412 0
DWIDTH 7 0
BBX 6 7 0 0
BITMAP
FC
30
30
30
30
30
30
ENDCHAR
STARTCHAR perpendicular
ENCODING 8869
SWIDTH 412 0
DWIDTH 7 0
BBX 6 7 0 0
BITMAP
30
30
30
30
30
30
FC
ENDCHAR
STARTCHAR upblock
ENCODING 9600
SWIDTH 412 0
DWIDTH 7 0
BBX 7 8 0 4
BITMAP
FE
FE
FE
FE
FE
FE
FE
FE
ENDCHAR
STARTCHAR dnblock
ENCODING 9604
SWIDTH 412 0
DWIDTH 7 0
BBX 7 8 0 -4
BITMAP
FE
FE
FE
FE
FE
FE
FE
FE
ENDCHAR
STARTCHAR block
ENCODING 9608
SWIDTH 412 0
DWIDTH 7 0
BBX 7 16 0 -4
BITMAP
FE
FE
FE
FE
FE
FE
FE
FE
FE
FE
FE
FE
FE
FE
FE
FE
ENDCHAR
STARTCHAR lfblock
ENCODING 9612
SWIDTH 412 0
DWIDTH 7 0
BBX 3 16 0 -4
BITMAP
E0
E0
E0
E0
E0
E0
E0
E0
E0
E0
E0
E0
E0
E0
E0
E0
ENDCHAR
STARTCHAR rtblock
ENCODING 9616
SWIDTH 412 0
DWIDTH 7 0
BBX 4 16 3 -4
BITMAP
F0
F0
F0
F0
F0
F0
F0
F0
F0
F0
F0
F0
F0
F0
F0
F0
ENDCHAR
STARTCHAR ltshade
ENCODING 9617
SWIDTH 471 0
DWIDTH 8 0
BBX 7 15 0 -3
BITMAP
AA
00
AA
00
AA
00
AA
00
AA
00
AA
00
AA
00
AA
ENDCHAR
STARTCHAR shade
ENCODING 9618
SWIDTH 471 0
DWIDTH 8 0
BBX 8 15 0 -3
BITMAP
AA
55
AA
55
AA
55
AA
55
AA
55
AA
55
AA
55
AA
ENDCHAR
STARTCHAR dkshade
ENCODING 9619
SWIDTH 471 0
DWIDTH 8 0
BBX 8 16 0 -4
BITMAP
FF
AA
FF
AA
FF
AA
FF
AA
FF
AA
FF
AA
FF
AA
FF
AA
ENDCHAR
STARTCHAR filledbox
ENCODING 9632
SWIDTH 353 0
DWIDTH 6 0
BBX 5 5 0 0
BITMAP
F8
F8
F8
F8
F8
ENDCHAR
STARTCHAR H22073
ENCODING 9633
SWIDTH 353 0
DWIDTH 6 0
BBX 5 5 0 0
BITMAP
F8
88
88
88
F8
ENDCHAR
STARTCHAR H18543
ENCODING 9642
SWIDTH 294 0
DWIDTH 5 0
BBX 3 3 1 1
BITMAP
E0
E0
E0
ENDCHAR
STARTCHAR H18551
ENCODING 9643
SWIDTH 294 0
DWIDTH 5 0
BBX 3 3 1 1
BITMAP
E0
A0
E0
ENDCHAR
STARTCHAR filledrect
ENCODING 9644
SWIDTH 412 0
DWIDTH 7 0
BBX 6 3 0 0
BITMAP
FC
FC
FC
ENDCHAR
STARTCHAR triagup
ENCODING 9650
SWIDTH 353 0
DWIDTH 6 0
BBX 5 5 0 0
BITMAP
20
70
70
F8
F8
ENDCHAR
STARTCHAR uni25B3
ENCODING 9651
SWIDTH 353 0
DWIDTH 6 0
BBX 5 5 0 0
BITMAP
20
50
50
88
F8
ENDCHAR
STARTCHAR uni25B6
ENCODING 9654
SWIDTH 353 0
DWIDTH 6 0
BBX 5 5 0 0
BITMAP
C0
F0
F8
F0
C0
ENDCHAR
STARTCHAR uni25B7
ENCODING 9655
SWIDTH 353 0
DWIDTH 6 0
BBX 5 5 0 0
BITMAP
C0
B0
88
B0
C0
ENDCHAR
STARTCHAR triagrt
ENCODING 9658
SWIDTH 353 0
DWIDTH 6 0
BBX 5 5 0 0
BITMAP
80
E0
F8
E0
80
ENDCHAR
STARTCHAR triagdn
ENCODING 9660
SWIDTH 353 0
DWIDTH 6 0
BBX 5 5 0 0
BITMAP
F8
F8
70
70
20
ENDCHAR
STARTCHAR uni25BD
ENCODING 9661
SWIDTH 353 0
DWIDTH 6 0
BBX 5 5 0 0
BITMAP
F8
88
50
50
20
ENDCHAR
STARTCHAR uni25C0
ENCODING 9664
SWIDTH 353 0
DWIDTH 6 0
BBX 5 5 0 0
BITMAP
18
78
F8
78
18
ENDCHAR
STARTCHAR uni25C1
ENCODING 9665
SWIDTH 353 0
DWIDTH 6 0
BBX 5 5 0 0
BITMAP
18
68
88
68
18
ENDCHAR
STARTCHAR triaglf
ENCODING 9668
SWIDTH 353 0
DWIDTH 6 0
BBX 5 5 0 0
BITMAP
08
38
F8
38
08
ENDCHAR
STARTCHAR uni25C6
ENCODING 9670
SWIDTH 353 0
DWIDTH 6 0
BBX 5 5 0 0
BITMAP
20
70
F8
70
20
ENDCHAR
STARTCHAR lozenge
ENCODING 9674
SWIDTH 412 0
DWIDTH 7 0
BBX 6 7 0 0
BITMAP
30
78
CC
CC
CC
78
30
ENDCHAR
STARTCHAR circle
ENCODING 9675
SWIDTH 353 0
DWIDTH 6 0
BBX 5 5 0 0
BITMAP
70
88
88
88
70
ENDCHAR
STARTCHAR uni25CC
ENCODING 9676
SWIDTH 412 0
DWIDTH 7 0
BBX 6 5 0 0
BITMAP
48
00
84
00
48
ENDCHAR
STARTCHAR H18533
ENCODING 9679
SWIDTH 353 0
DWIDTH 6 0
BBX 5 5 0 0
BITMAP
70
F8
F8
F8
70
ENDCHAR
STARTCHAR invsmileface
ENCODING 9787
SWIDTH 412 0
DWIDTH 7 0
BBX 6 6 0 0
BITMAP
78
B4
FC
B4
CC
78
ENDCHAR
STARTCHAR female
ENCODING 9792
SWIDTH 353 0
DWIDTH 6 0
BBX 5 7 0 0
BITMAP
70
50
70
20
F8
20
20
ENDCHAR
STARTCHAR male
ENCODING 9794
SWIDTH 353 0
DWIDTH 6 0
BBX 5 5 0 1
BITMAP
78
18
E8
A8
E0
ENDCHAR
STARTCHAR spade
ENCODING 9824
SWIDTH 471 0
DWIDTH 8 0
BBX 7 7 0 0
BITMAP
10
38
7C
FE
D6
38
7C
ENDCHAR
STARTCHAR club
ENCODING 9827
SWIDTH 471 0
DWIDTH 8 0
BBX 7 7 0 0
BITMAP
38
38
FE
FE
FE
10
38
ENDCHAR
STARTCHAR heart
ENCODING 9829
SWIDTH 471 0
DWIDTH 8 0
BBX 7 7 0 0
BITMAP
6C
FE
FE
FE
7C
38
10
ENDCHAR
STARTCHAR diamond
ENCODING 9830
SWIDTH 471 0
DWIDTH 8 0
BBX 7 7 0 0
BITMAP
10
38
7C
FE
7C
38
10
ENDCHAR
STARTCHAR musicalnote
ENCODING 9834
SWIDTH 353 0
DWIDTH 6 0
BBX 5 7 0 0
BITMAP
38
28
28
20
E0
E0
E0
ENDCHAR
STARTCHAR musicalnotedbl
ENCODING 9835
SWIDTH 353 0
DWIDTH 6 0
BBX 5 7 0 -1
BITMAP
18
78
68
48
58
D8
C0
ENDCHAR
STARTCHAR uni266C
ENCODING 9836
SWIDTH 353 0
DWIDTH 6 0
BBX 5 8 0 -1
BITMAP
18
68
58
68
48
58
D8
C0
ENDCHAR
STARTCHAR uni2713
ENCODING 10003
SWIDTH 471 0
DWIDTH 8 0
BBX 7 6 0 1
BITMAP
06
0E
DC
F8
70
20
ENDCHAR
STARTCHAR uni27E8
ENCODING 10216
SWIDTH 294 0
DWIDTH 5 0
BBX 4 9 0 -1
BITMAP
30
30
60
60
C0
60
60
30
30
ENDCHAR
STARTCHAR uni27E9
ENCODING 10217
SWIDTH 294 0
DWIDTH 5 0
BBX 4 9 0 -1
BITMAP
C0
C0
60
60
30
60
60
C0
C0
ENDCHAR
STARTCHAR uni2E18
ENCODING 11800
SWIDTH 353 0
DWIDTH 6 0
BBX 5 9 0 -2
BITMAP
30
30
00
30
30
70
D0
D0
78
ENDCHAR
STARTCHAR uni3000
ENCODING 12288
SWIDTH 941 0
DWIDTH 16 0
BBX 1 1 0 0
BITMAP
00
ENDCHAR
STARTCHAR .notdef
ENCODING -1
SWIDTH 59 0
DWIDTH 1 0
BBX 1 1 0 0
BITMAP
00
ENDCHAR
STARTCHAR glyph00001
ENCODING -1
SWIDTH 59 0
DWIDTH 1 0
BBX 1 1 0 0
BITMAP
00
ENDCHAR
ENDFONT
