STARTFONT 2.1
FONT RuneMono-12px
SIZE 12 75 75
FONTBOUNDINGBOX 10 11 -4 -3
STARTPROPERTIES 5
PIXEL_SIZE 12
FONT_ASCENT 8
FONT_DESCENT 3
CHARSET_REGISTRY "ISO10646"
CHARSET_ENCODING "1"
ENDPROPERTIES
CHARS 644
STARTCHAR space
ENCODING 32
SWIDTH 500 0
DWIDTH 6 0
BBX 1 1 0 0
BITMAP
00
ENDCHAR
STARTCHAR exclam
ENCODING 33
SWIDTH 500 0
DWIDTH 6 0
BBX 1 5 2 0
BITMAP
80
80
80
00
80
ENDCHAR
STARTCHAR quotedbl
ENCODING 34
SWIDTH 500 0
DWIDTH 6 0
BBX 3 2 1 3
BITMAP
A0
A0
ENDCHAR
STARTCHAR numbersign
ENCODING 35
SWIDTH 500 0
DWIDTH 6 0
BBX 5 5 0 0
BITMAP
50
F8
50
F8
50
ENDCHAR
STARTCHAR dollar
ENCODING 36
SWIDTH 500 0
DWIDTH 6 0
BBX 5 7 0 -1
BITMAP
20
F8
A0
F8
28
F8
20
ENDCHAR
STARTCHAR percent
ENCODING 37
SWIDTH 500 0
DWIDTH 6 0
BBX 5 5 0 0
BITMAP
88
10
20
40
88
ENDCHAR
STARTCHAR ampersand
ENCODING 38
SWIDTH 500 0
DWIDTH 6 0
BBX 5 7 0 -1
BITMAP
20
F8
A8
E0
A8
F8
20
ENDCHAR
STARTCHAR quotesingle
ENCODING 39
SWIDTH 500 0
DWIDTH 6 0
BBX 1 2 2 3
BITMAP
80
80
ENDCHAR
STARTCHAR parenleft
ENCODING 40
SWIDTH 500 0
DWIDTH 6 0
BBX 2 5 2 0
BITMAP
40
80
80
80
40
ENDCHAR
STARTCHAR parenright
ENCODING 41
SWIDTH 500 0
DWIDTH 6 0
BBX 2 5 1 0
BITMAP
80
40
40
40
80
ENDCHAR
STARTCHAR asterisk
ENCODING 42
SWIDTH 500 0
DWIDTH 6 0
BBX 3 3 0 2
BITMAP
A0
40
A0
ENDCHAR
STARTCHAR plus
ENCODING 43
SWIDTH 500 0
DWIDTH 6 0
BBX 5 5 0 0
BITMAP
20
20
F8
20
20
ENDCHAR
STARTCHAR comma
ENCODING 44
SWIDTH 500 0
DWIDTH 6 0
BBX 2 3 0 -2
BITMAP
40
40
C0
ENDCHAR
STARTCHAR hyphen
ENCODING 45
SWIDTH 500 0
DWIDTH 6 0
BBX 5 1 0 2
BITMAP
F8
ENDCHAR
STARTCHAR period
ENCODING 46
SWIDTH 500 0
DWIDTH 6 0
BBX 1 1 2 0
BITMAP
80
ENDCHAR
STARTCHAR slash
ENCODING 47
SWIDTH 500 0
DWIDTH 6 0
BBX 2 5 1 0
BITMAP
40
40
C0
80
80
ENDCHAR
STARTCHAR zero
ENCODING 48
SWIDTH 500 0
DWIDTH 6 0
BBX 5 5 0 0
BITMAP
F8
88
A8
88
F8
ENDCHAR
STARTCHAR one
ENCODING 49
SWIDTH 500 0
DWIDTH 6 0
BBX 5 5 0 0
BITMAP
E0
20
20
20
F8
ENDCHAR
STARTCHAR two
ENCODING 50
SWIDTH 500 0
DWIDTH 6 0
BBX 5 5 0 0
BITMAP
F8
08
F8
80
F8
ENDCHAR
STARTCHAR three
ENCODING 51
SWIDTH 500 0
DWIDTH 6 0
BBX 5 5 0 0
BITMAP
F8
08
F8
08
F8
ENDCHAR
STARTCHAR four
ENCODING 52
SWIDTH 500 0
DWIDTH 6 0
BBX 5 5 0 0
BITMAP
88
88
F8
08
08
ENDCHAR
STARTCHAR five
ENCODING 53
SWIDTH 500 0
DWIDTH 6 0
BBX 5 5 0 0
BITMAP
78
40
F8
08
F8
ENDCHAR
STARTCHAR six
ENCODING 54
SWIDTH 500 0
DWIDTH 6 0
BBX 5 5 0 0
BITMAP
78
80
F8
88
F8
ENDCHAR
STARTCHAR seven
ENCODING 55
SWIDTH 500 0
DWIDTH 6 0
BBX 5 5 0 0
BITMAP
F8
08
08
08
08
ENDCHAR
STARTCHAR eight
ENCODING 56
SWIDTH 500 0
DWIDTH 6 0
BBX 5 5 0 0
BITMAP
F8
88
70
88
F8
ENDCHAR
STARTCHAR nine
ENCODING 57
SWIDTH 500 0
DWIDTH 6 0
BBX 5 5 0 0
BITMAP
F8
88
F8
08
F8
ENDCHAR
STARTCHAR colon
ENCODING 58
SWIDTH 500 0
DWIDTH 6 0
BBX 1 4 1 0
BITMAP
80
00
00
80
ENDCHAR
STARTCHAR semicolon
ENCODING 59
SWIDTH 500 0
DWIDTH 6 0
BBX 2 6 0 -2
BITMAP
40
00
00
40
40
C0
ENDCHAR
STARTCHAR less
ENCODING 60
SWIDTH 500 0
DWIDTH 6 0
BBX 3 5 1 0
BITMAP
20
40
80
40
20
ENDCHAR
STARTCHAR equal
ENCODING 61
SWIDTH 500 0
DWIDTH 6 0
BBX 5 3 0 1
BITMAP
F8
00
F8
ENDCHAR
STARTCHAR greater
ENCODING 62
SWIDTH 500 0
DWIDTH 6 0
BBX 3 5 1 0
BITMAP
80
40
20
40
80
ENDCHAR
STARTCHAR question
ENCODING 63
SWIDTH 500 0
DWIDTH 6 0
BBX 5 5 0 0
BITMAP
F8
88
38
00
20
ENDCHAR
STARTCHAR at
ENCODING 64
SWIDTH 500 0
DWIDTH 6 0
BBX 5 5 0 0
BITMAP
F8
80
B8
A8
F8
ENDCHAR
STARTCHAR A
ENCODING 65
SWIDTH 500 0
DWIDTH 6 0
BBX 5 5 0 0
BITMAP
F8
88
F8
88
88
ENDCHAR
STARTCHAR B
ENCODING 66
SWIDTH 500 0
DWIDTH 6 0
BBX 5 5 0 0
BITMAP
F8
88
F0
88
F8
ENDCHAR
STARTCHAR C
ENCODING 67
SWIDTH 500 0
DWIDTH 6 0
BBX 5 5 0 0
BITMAP
F8
88
80
88
F8
ENDCHAR
STARTCHAR D
ENCODING 68
SWIDTH 500 0
DWIDTH 6 0
BBX 5 5 0 0
BITMAP
E0
90
88
88
F8
ENDCHAR
STARTCHAR E
ENCODING 69
SWIDTH 500 0
DWIDTH 6 0
BBX 5 5 0 0
BITMAP
F8
80
F8
80
F8
ENDCHAR
STARTCHAR F
ENCODING 70
SWIDTH 500 0
DWIDTH 6 0
BBX 5 5 0 0
BITMAP
F8
80
F0
80
80
ENDCHAR
STARTCHAR G
ENCODING 71
SWIDTH 500 0
DWIDTH 6 0
BBX 5 5 0 0
BITMAP
F8
80
B8
88
F8
ENDCHAR
STARTCHAR H
ENCODING 72
SWIDTH 500 0
DWIDTH 6 0
BBX 5 5 0 0
BITMAP
88
88
F8
88
88
ENDCHAR
STARTCHAR I
ENCODING 73
SWIDTH 500 0
DWIDTH 6 0
BBX 5 5 0 0
BITMAP
F8
20
20
20
F8
ENDCHAR
STARTCHAR J
ENCODING 74
SWIDTH 500 0
DWIDTH 6 0
BBX 5 5 0 0
BITMAP
38
08
08
88
F8
ENDCHAR
STARTCHAR K
ENCODING 75
SWIDTH 500 0
DWIDTH 6 0
BBX 5 5 0 0
BITMAP
90
90
F8
88
88
ENDCHAR
STARTCHAR L
ENCODING 76
SWIDTH 500 0
DWIDTH 6 0
BBX 5 5 0 0
BITMAP
80
80
80
80
F8
ENDCHAR
STARTCHAR M
ENCODING 77
SWIDTH 500 0
DWIDTH 6 0
BBX 5 5 0 0
BITMAP
F8
A8
A8
A8
A8
ENDCHAR
STARTCHAR N
ENCODING 78
SWIDTH 500 0
DWIDTH 6 0
BBX 5 5 0 0
BITMAP
E8
A8
A8
A8
B8
ENDCHAR
STARTCHAR O
ENCODING 79
SWIDTH 500 0
DWIDTH 6 0
BBX 5 5 0 0
BITMAP
F8
88
88
88
F8
ENDCHAR
STARTCHAR P
ENCODING 80
SWIDTH 500 0
DWIDTH 6 0
BBX 5 5 0 0
BITMAP
F8
88
F8
80
80
ENDCHAR
STARTCHAR Q
ENCODING 81
SWIDTH 500 0
DWIDTH 6 0
BBX 5 7 0 -2
BITMAP
F8
88
A8
A8
F8
20
30
ENDCHAR
STARTCHAR R
ENCODING 82
SWIDTH 500 0
DWIDTH 6 0
BBX 5 5 0 0
BITMAP
F8
88
F8
90
98
ENDCHAR
STARTCHAR S
ENCODING 83
SWIDTH 500 0
DWIDTH 6 0
BBX 5 5 0 0
BITMAP
F8
80
F8
08
F8
ENDCHAR
STARTCHAR T
ENCODING 84
SWIDTH 500 0
DWIDTH 6 0
BBX 5 5 0 0
BITMAP
F8
20
20
20
20
ENDCHAR
STARTCHAR U
ENCODING 85
SWIDTH 500 0
DWIDTH 6 0
BBX 5 5 0 0
BITMAP
88
88
88
88
F8
ENDCHAR
STARTCHAR V
ENCODING 86
SWIDTH 500 0
DWIDTH 6 0
BBX 5 5 0 0
BITMAP
88
88
D8
50
70
ENDCHAR
STARTCHAR W
ENCODING 87
SWIDTH 500 0
DWIDTH 6 0
BBX 5 5 0 0
BITMAP
A8
A8
A8
A8
F8
ENDCHAR
STARTCHAR X
ENCODING 88
SWIDTH 500 0
DWIDTH 6 0
BBX 5 5 0 0
BITMAP
D8
50
70
50
D8
ENDCHAR
STARTCHAR Y
ENCODING 89
SWIDTH 500 0
DWIDTH 6 0
BBX 5 5 0 0
BITMAP
88
88
F8
20
20
ENDCHAR
STARTCHAR Z
ENCODING 90
SWIDTH 500 0
DWIDTH 6 0
BBX 5 5 0 0
BITMAP
F8
10
20
40
F8
ENDCHAR
STARTCHAR bracketleft
ENCODING 91
SWIDTH 500 0
DWIDTH 6 0
BBX 2 5 2 0
BITMAP
C0
80
80
80
C0
ENDCHAR
STARTCHAR backslash
ENCODING 92
SWIDTH 500 0
DWIDTH 6 0
BBX 2 5 1 0
BITMAP
80
80
C0
40
40
ENDCHAR
STARTCHAR bracketright
ENCODING 93
SWIDTH 500 0
DWIDTH 6 0
BBX 2 5 1 0
BITMAP
C0
40
40
40
C0
ENDCHAR
STARTCHAR asciicircum
ENCODING 94
SWIDTH 500 0
DWIDTH 6 0
BBX 3 2 1 3
BITMAP
E0
A0
ENDCHAR
STARTCHAR underscore
ENCODING 95
SWIDTH 500 0
DWIDTH 6 0
BBX 5 1 0 0
BITMAP
F8
ENDCHAR
STARTCHAR grave
ENCODING 96
SWIDTH 500 0
DWIDTH 6 0
BBX 2 2 0 3
BITMAP
C0
40
ENDCHAR
STARTCHAR a
ENCODING 97
SWIDTH 500 0
DWIDTH 6 0
BBX 5 5 0 0
BITMAP
F8
88
F8
88
88
ENDCHAR
STARTCHAR b
ENCODING 98
SWIDTH 500 0
DWIDTH 6 0
BBX 5 5 0 0
BITMAP
F0
90
F8
88
F8
ENDCHAR
STARTCHAR c
ENCODING 99
SWIDTH 500 0
DWIDTH 6 0
BBX 5 5 0 0
BITMAP
F8
88
80
80
F8
ENDCHAR
STARTCHAR d
ENCODING 100
SWIDTH 500 0
DWIDTH 6 0
BBX 5 5 0 0
BITMAP
E0
90
88
88
F8
ENDCHAR
STARTCHAR e
ENCODING 101
SWIDTH 500 0
DWIDTH 6 0
BBX 5 5 0 0
BITMAP
78
40
F8
80
F8
ENDCHAR
STARTCHAR f
ENCODING 102
SWIDTH 500 0
DWIDTH 6 0
BBX 5 5 0 0
BITMAP
F8
80
F0
80
80
ENDCHAR
STARTCHAR g
ENCODING 103
SWIDTH 500 0
DWIDTH 6 0
BBX 5 5 0 0
BITMAP
F8
80
B8
88
F8
ENDCHAR
STARTCHAR h
ENCODING 104
SWIDTH 500 0
DWIDTH 6 0
BBX 5 5 0 0
BITMAP
88
88
F8
88
88
ENDCHAR
STARTCHAR i
ENCODING 105
SWIDTH 500 0
DWIDTH 6 0
BBX 5 5 0 0
BITMAP
F8
20
20
20
F8
ENDCHAR
STARTCHAR j
ENCODING 106
SWIDTH 500 0
DWIDTH 6 0
BBX 5 5 0 0
BITMAP
38
08
08
88
F8
ENDCHAR
STARTCHAR k
ENCODING 107
SWIDTH 500 0
DWIDTH 6 0
BBX 5 5 0 0
BITMAP
90
90
F8
88
88
ENDCHAR
STARTCHAR l
ENCODING 108
SWIDTH 500 0
DWIDTH 6 0
BBX 5 5 0 0
BITMAP
80
80
80
80
F8
ENDCHAR
STARTCHAR m
ENCODING 109
SWIDTH 500 0
DWIDTH 6 0
BBX 5 5 0 0
BITMAP
F8
A8
A8
A8
A8
ENDCHAR
STARTCHAR n
ENCODING 110
SWIDTH 500 0
DWIDTH 6 0
BBX 5 5 0 0
BITMAP
E8
A8
A8
A8
B8
ENDCHAR
STARTCHAR o
ENCODING 111
SWIDTH 500 0
DWIDTH 6 0
BBX 5 5 0 0
BITMAP
F8
88
88
88
F8
ENDCHAR
STARTCHAR p
ENCODING 112
SWIDTH 500 0
DWIDTH 6 0
BBX 5 5 0 0
BITMAP
F8
88
F8
80
80
ENDCHAR
STARTCHAR q
ENCODING 113
SWIDTH 500 0
DWIDTH 6 0
BBX 5 7 0 -2
BITMAP
F8
88
88
88
F8
20
30
ENDCHAR
STARTCHAR r
ENCODING 114
SWIDTH 500 0
DWIDTH 6 0
BBX 5 5 0 0
BITMAP
F8
88
F8
90
98
ENDCHAR
STARTCHAR s
ENCODING 115
SWIDTH 500 0
DWIDTH 6 0
BBX 5 5 0 0
BITMAP
F8
80
F8
08
F8
ENDCHAR
STARTCHAR t
ENCODING 116
SWIDTH 500 0
DWIDTH 6 0
BBX 5 5 0 0
BITMAP
F8
20
20
20
20
ENDCHAR
STARTCHAR u
ENCODING 117
SWIDTH 500 0
DWIDTH 6 0
BBX 5 5 0 0
BITMAP
88
88
88
88
F8
ENDCHAR
STARTCHAR v
ENCODING 118
SWIDTH 500 0
DWIDTH 6 0
BBX 5 5 0 0
BITMAP
88
88
D8
50
70
ENDCHAR
STARTCHAR w
ENCODING 119
SWIDTH 500 0
DWIDTH 6 0
BBX 5 5 0 0
BITMAP
A8
A8
A8
A8
F8
ENDCHAR
STARTCHAR x
ENCODING 120
SWIDTH 500 0
DWIDTH 6 0
BBX 5 5 0 0
BITMAP
D8
50
70
50
D8
ENDCHAR
STARTCHAR y
ENCODING 121
SWIDTH 500 0
DWIDTH 6 0
BBX 5 5 0 0
BITMAP
88
88
F8
08
F8
ENDCHAR
STARTCHAR z
ENCODING 122
SWIDTH 500 0
DWIDTH 6 0
BBX 5 5 0 0
BITMAP
F8
10
20
40
F8
ENDCHAR
STARTCHAR braceleft
ENCODING 123
SWIDTH 500 0
DWIDTH 6 0
BBX 3 5 0 0
BITMAP
60
40
C0
40
60
ENDCHAR
STARTCHAR bar
ENCODING 124
SWIDTH 500 0
DWIDTH 6 0
BBX 1 5 2 0
BITMAP
80
80
80
80
80
ENDCHAR
STARTCHAR braceright
ENCODING 125
SWIDTH 500 0
DWIDTH 6 0
BBX 3 5 2 0
BITMAP
C0
40
60
40
C0
ENDCHAR
STARTCHAR asciitilde
ENCODING 126
SWIDTH 500 0
DWIDTH 6 0
BBX 5 2 0 2
BITMAP
E8
B8
ENDCHAR
STARTCHAR uni00A0
ENCODING 160
SWIDTH 500 0
DWIDTH 6 0
BBX 1 1 0 0
BITMAP
00
ENDCHAR
STARTCHAR exclamdown
ENCODING 161
SWIDTH 500 0
DWIDTH 6 0
BBX 1 5 2 -1
BITMAP
80
00
80
80
80
ENDCHAR
STARTCHAR cent
ENCODING 162
SWIDTH 500 0
DWIDTH 6 0
BBX 5 7 0 -1
BITMAP
20
F8
A8
A0
A8
F8
20
ENDCHAR
STARTCHAR sterling
ENCODING 163
SWIDTH 500 0
DWIDTH 6 0
BBX 5 5 0 0
BITMAP
78
48
E0
40
F8
ENDCHAR
STARTCHAR currency
ENCODING 164
SWIDTH 500 0
DWIDTH 6 0
BBX 5 5 0 0
BITMAP
88
70
50
70
88
ENDCHAR
STARTCHAR yen
ENCODING 165
SWIDTH 500 0
DWIDTH 6 0
BBX 5 5 0 0
BITMAP
88
F8
20
F8
20
ENDCHAR
STARTCHAR brokenbar
ENCODING 166
SWIDTH 500 0
DWIDTH 6 0
BBX 1 5 0 0
BITMAP
80
80
00
80
80
ENDCHAR
STARTCHAR section
ENCODING 167
SWIDTH 500 0
DWIDTH 6 0
BBX 5 7 0 -1
BITMAP
F8
80
F8
88
F8
08
F8
ENDCHAR
STARTCHAR copyright
ENCODING 169
SWIDTH 500 0
DWIDTH 6 0
BBX 5 5 0 0
BITMAP
F8
88
B8
88
F8
ENDCHAR
STARTCHAR ordfeminine
ENCODING 170
SWIDTH 500 0
DWIDTH 6 0
BBX 3 5 1 0
BITMAP
60
A0
E0
00
E0
ENDCHAR
STARTCHAR guillemotleft
ENCODING 171
SWIDTH 500 0
DWIDTH 6 0
BBX 5 3 0 1
BITMAP
48
90
48
ENDCHAR
STARTCHAR logicalnot
ENCODING 172
SWIDTH 500 0
DWIDTH 6 0
BBX 5 2 0 1
BITMAP
F8
08
ENDCHAR
STARTCHAR uni00AD
ENCODING 173
SWIDTH 500 0
DWIDTH 6 0
BBX 3 1 1 2
BITMAP
E0
ENDCHAR
STARTCHAR registered
ENCODING 174
SWIDTH 500 0
DWIDTH 6 0
BBX 5 5 0 0
BITMAP
F8
98
98
A8
F8
ENDCHAR
STARTCHAR degree
ENCODING 176
SWIDTH 500 0
DWIDTH 6 0
BBX 3 3 0 2
BITMAP
E0
A0
E0
ENDCHAR
STARTCHAR plusminus
ENCODING 177
SWIDTH 500 0
DWIDTH 6 0
BBX 5 6 0 -1
BITMAP
20
20
F8
20
20
F8
ENDCHAR
STARTCHAR uni00B2
ENCODING 178
SWIDTH 500 0
DWIDTH 6 0
BBX 8 4 -4 1
BITMAP
07
03
86
07
ENDCHAR
STARTCHAR uni00B3
ENCODING 179
SWIDTH 500 0
DWIDTH 6 0
BBX 3 4 1 1
BITMAP
E0
60
20
E0
ENDCHAR
STARTCHAR mu
ENCODING 181
SWIDTH 500 0
DWIDTH 6 0
BBX 5 5 0 0
BITMAP
88
88
88
F8
80
ENDCHAR
STARTCHAR paragraph
ENCODING 182
SWIDTH 500 0
DWIDTH 6 0
BBX 5 5 0 0
BITMAP
F8
E8
E8
28
28
ENDCHAR
STARTCHAR periodcentered
ENCODING 183
SWIDTH 500 0
DWIDTH 6 0
BBX 1 1 2 2
BITMAP
80
ENDCHAR
STARTCHAR uni00B9
ENCODING 185
SWIDTH 500 0
DWIDTH 6 0
BBX 3 4 1 1
BITMAP
C0
40
40
E0
ENDCHAR
STARTCHAR ordmasculine
ENCODING 186
SWIDTH 500 0
DWIDTH 6 0
BBX 3 5 1 0
BITMAP
E0
A0
E0
00
E0
ENDCHAR
STARTCHAR guillemotright
ENCODING 187
SWIDTH 500 0
DWIDTH 6 0
BBX 5 3 0 1
BITMAP
90
48
90
ENDCHAR
STARTCHAR questiondown
ENCODING 191
SWIDTH 500 0
DWIDTH 6 0
BBX 5 5 0 0
BITMAP
20
00
E0
88
F8
ENDCHAR
STARTCHAR Agrave
ENCODING 192
SWIDTH 500 0
DWIDTH 6 0
BBX 5 8 0 0
BITMAP
40
20
00
F8
88
F8
88
88
ENDCHAR
STARTCHAR Aacute
ENCODING 193
SWIDTH 500 0
DWIDTH 6 0
BBX 5 8 0 0
BITMAP
10
20
00
F8
88
F8
88
88
ENDCHAR
STARTCHAR Acircumflex
ENCODING 194
SWIDTH 500 0
DWIDTH 6 0
BBX 5 8 0 0
BITMAP
20
50
00
F8
88
F8
88
88
ENDCHAR
STARTCHAR Atilde
ENCODING 195
SWIDTH 500 0
DWIDTH 6 0
BBX 5 8 0 0
BITMAP
E8
B8
00
F8
88
F8
88
88
ENDCHAR
STARTCHAR Adieresis
ENCODING 196
SWIDTH 500 0
DWIDTH 6 0
BBX 5 7 0 0
BITMAP
50
00
F8
88
F8
88
88
ENDCHAR
STARTCHAR Aring
ENCODING 197
SWIDTH 500 0
DWIDTH 6 0
BBX 5 7 0 0
BITMAP
70
50
F8
88
F8
88
88
ENDCHAR
STARTCHAR AE
ENCODING 198
SWIDTH 500 0
DWIDTH 6 0
BBX 5 5 0 0
BITMAP
F8
A0
F8
A0
B8
ENDCHAR
STARTCHAR Ccedilla
ENCODING 199
SWIDTH 500 0
DWIDTH 6 0
BBX 5 7 0 -2
BITMAP
F8
88
80
88
F8
10
70
ENDCHAR
STARTCHAR Egrave
ENCODING 200
SWIDTH 500 0
DWIDTH 6 0
BBX 5 8 0 0
BITMAP
40
20
00
F8
80
F8
80
F8
ENDCHAR
STARTCHAR Eacute
ENCODING 201
SWIDTH 500 0
DWIDTH 6 0
BBX 5 8 0 0
BITMAP
10
20
00
F8
80
F8
80
F8
ENDCHAR
STARTCHAR Ecircumflex
ENCODING 202
SWIDTH 500 0
DWIDTH 6 0
BBX 5 8 0 0
BITMAP
20
50
00
F8
80
F8
80
F8
ENDCHAR
STARTCHAR Edieresis
ENCODING 203
SWIDTH 500 0
DWIDTH 6 0
BBX 5 7 0 0
BITMAP
50
00
F8
80
F8
80
F8
ENDCHAR
STARTCHAR Igrave
ENCODING 204
SWIDTH 500 0
DWIDTH 6 0
BBX 5 8 0 0
BITMAP
40
20
00
F8
20
20
20
F8
ENDCHAR
STARTCHAR Iacute
ENCODING 205
SWIDTH 500 0
DWIDTH 6 0
BBX 5 8 0 0
BITMAP
10
20
00
F8
20
20
20
F8
ENDCHAR
STARTCHAR Icircumflex
ENCODING 206
SWIDTH 500 0
DWIDTH 6 0
BBX 5 8 0 0
BITMAP
20
50
00
F8
20
20
20
F8
ENDCHAR
STARTCHAR Idieresis
ENCODING 207
SWIDTH 500 0
DWIDTH 6 0
BBX 5 7 0 0
BITMAP
50
00
F8
20
20
20
F8
ENDCHAR
STARTCHAR Eth
ENCODING 208
SWIDTH 500 0
DWIDTH 6 0
BBX 5 5 0 0
BITMAP
70
48
E8
48
78
ENDCHAR
STARTCHAR Ntilde
ENCODING 209
SWIDTH 500 0
DWIDTH 6 0
BBX 5 8 0 0
BITMAP
E8
B8
00
E8
A8
A8
A8
B8
ENDCHAR
STARTCHAR Ograve
ENCODING 210
SWIDTH 500 0
DWIDTH 6 0
BBX 5 8 0 0
BITMAP
40
20
00
F8
88
88
88
F8
ENDCHAR
STARTCHAR Oacute
ENCODING 211
SWIDTH 500 0
DWIDTH 6 0
BBX 5 8 0 0
BITMAP
10
20
00
F8
88
88
88
F8
ENDCHAR
STARTCHAR Ocircumflex
ENCODING 212
SWIDTH 500 0
DWIDTH 6 0
BBX 5 8 0 0
BITMAP
20
50
00
F8
88
88
88
F8
ENDCHAR
STARTCHAR Otilde
ENCODING 213
SWIDTH 500 0
DWIDTH 6 0
BBX 5 8 0 0
BITMAP
E8
B8
00
F8
88
88
88
F8
ENDCHAR
STARTCHAR Odieresis
ENCODING 214
SWIDTH 500 0
DWIDTH 6 0
BBX 5 7 0 0
BITMAP
50
00
F8
88
88
88
F8
ENDCHAR
STARTCHAR multiply
ENCODING 215
SWIDTH 500 0
DWIDTH 6 0
BBX 3 3 1 1
BITMAP
A0
40
A0
ENDCHAR
STARTCHAR Oslash
ENCODING 216
SWIDTH 500 0
DWIDTH 6 0
BBX 5 5 0 0
BITMAP
E8
90
A8
48
B8
ENDCHAR
STARTCHAR Ugrave
ENCODING 217
SWIDTH 500 0
DWIDTH 6 0
BBX 5 8 0 0
BITMAP
40
20
00
88
88
88
88
F8
ENDCHAR
STARTCHAR Uacute
ENCODING 218
SWIDTH 500 0
DWIDTH 6 0
BBX 5 8 0 0
BITMAP
10
20
00
88
88
88
88
F8
ENDCHAR
STARTCHAR Ucircumflex
ENCODING 219
SWIDTH 500 0
DWIDTH 6 0
BBX 5 8 0 0
BITMAP
20
50
00
88
88
88
88
F8
ENDCHAR
STARTCHAR Udieresis
ENCODING 220
SWIDTH 500 0
DWIDTH 6 0
BBX 5 7 0 0
BITMAP
50
00
88
88
88
88
F8
ENDCHAR
STARTCHAR Yacute
ENCODING 221
SWIDTH 500 0
DWIDTH 6 0
BBX 5 8 0 0
BITMAP
10
20
00
88
88
F8
20
20
ENDCHAR
STARTCHAR Thorn
ENCODING 222
SWIDTH 500 0
DWIDTH 6 0
BBX 5 5 0 0
BITMAP
80
F8
88
F8
80
ENDCHAR
STARTCHAR germandbls
ENCODING 223
SWIDTH 500 0
DWIDTH 6 0
BBX 5 5 0 0
BITMAP
F0
90
B8
88
B8
ENDCHAR
STARTCHAR agrave
ENCODING 224
SWIDTH 500 0
DWIDTH 6 0
BBX 5 8 0 0
BITMAP
40
20
00
F8
88
F8
88
88
ENDCHAR
STARTCHAR aacute
ENCODING 225
SWIDTH 500 0
DWIDTH 6 0
BBX 5 8 0 0
BITMAP
10
20
00
F8
88
F8
88
88
ENDCHAR
STARTCHAR acircumflex
ENCODING 226
SWIDTH 500 0
DWIDTH 6 0
BBX 5 8 0 0
BITMAP
20
50
00
F8
88
F8
88
88
ENDCHAR
STARTCHAR atilde
ENCODING 227
SWIDTH 500 0
DWIDTH 6 0
BBX 5 8 0 0
BITMAP
E8
B8
00
F8
88
F8
88
88
ENDCHAR
STARTCHAR adieresis
ENCODING 228
SWIDTH 500 0
DWIDTH 6 0
BBX 5 7 0 0
BITMAP
50
00
F8
88
F8
88
88
ENDCHAR
STARTCHAR aring
ENCODING 229
SWIDTH 500 0
DWIDTH 6 0
BBX 5 7 0 0
BITMAP
70
50
F8
88
F8
88
88
ENDCHAR
STARTCHAR ae
ENCODING 230
SWIDTH 500 0
DWIDTH 6 0
BBX 5 5 0 0
BITMAP
F8
A0
F8
A0
B8
ENDCHAR
STARTCHAR ccedilla
ENCODING 231
SWIDTH 500 0
DWIDTH 6 0
BBX 5 7 0 -2
BITMAP
F8
80
80
80
F8
10
70
ENDCHAR
STARTCHAR egrave
ENCODING 232
SWIDTH 500 0
DWIDTH 6 0
BBX 5 8 0 0
BITMAP
40
20
00
F8
80
F8
80
F8
ENDCHAR
STARTCHAR eacute
ENCODING 233
SWIDTH 500 0
DWIDTH 6 0
BBX 5 8 0 0
BITMAP
10
20
00
F8
80
F8
80
F8
ENDCHAR
STARTCHAR ecircumflex
ENCODING 234
SWIDTH 500 0
DWIDTH 6 0
BBX 5 8 0 0
BITMAP
20
50
00
F8
80
F8
80
F8
ENDCHAR
STARTCHAR edieresis
ENCODING 235
SWIDTH 500 0
DWIDTH 6 0
BBX 5 7 0 0
BITMAP
50
00
F8
80
F8
80
F8
ENDCHAR
STARTCHAR igrave
ENCODING 236
SWIDTH 500 0
DWIDTH 6 0
BBX 5 8 0 0
BITMAP
40
20
00
F8
20
20
20
F8
ENDCHAR
STARTCHAR iacute
ENCODING 237
SWIDTH 500 0
DWIDTH 6 0
BBX 5 8 0 0
BITMAP
10
20
00
F8
20
20
20
F8
ENDCHAR
STARTCHAR icircumflex
ENCODING 238
SWIDTH 500 0
DWIDTH 6 0
BBX 5 8 0 0
BITMAP
20
50
00
F8
20
20
20
F8
ENDCHAR
STARTCHAR idieresis
ENCODING 239
SWIDTH 500 0
DWIDTH 6 0
BBX 5 7 0 0
BITMAP
50
00
F8
20
20
20
F8
ENDCHAR
STARTCHAR eth
ENCODING 240
SWIDTH 500 0
DWIDTH 6 0
BBX 5 5 0 0
BITMAP
70
48
E8
48
78
ENDCHAR
STARTCHAR ntilde
ENCODING 241
SWIDTH 500 0
DWIDTH 6 0
BBX 5 8 0 0
BITMAP
E8
B8
00
E8
A8
A8
A8
B8
ENDCHAR
STARTCHAR ograve
ENCODING 242
SWIDTH 500 0
DWIDTH 6 0
BBX 5 8 0 0
BITMAP
40
20
00
F8
88
88
88
F8
ENDCHAR
STARTCHAR oacute
ENCODING 243
SWIDTH 500 0
DWIDTH 6 0
BBX 5 8 0 0
BITMAP
10
20
00
F8
88
88
88
F8
ENDCHAR
STARTCHAR ocircumflex
ENCODING 244
SWIDTH 500 0
DWIDTH 6 0
BBX 5 8 0 0
BITMAP
20
50
00
F8
88
88
88
F8
ENDCHAR
STARTCHAR otilde
ENCODING 245
SWIDTH 500 0
DWIDTH 6 0
BBX 5 8 0 0
BITMAP
E8
B8
00
F8
88
88
88
F8
ENDCHAR
STARTCHAR odieresis
ENCODING 246
SWIDTH 500 0
DWIDTH 6 0
BBX 5 7 0 0
BITMAP
50
00
F8
88
88
88
F8
ENDCHAR
STARTCHAR divide
ENCODING 247
SWIDTH 500 0
DWIDTH 6 0
BBX 3 5 0 0
BITMAP
40
00
E0
00
40
ENDCHAR
STARTCHAR oslash
ENCODING 248
SWIDTH 500 0
DWIDTH 6 0
BBX 5 5 0 0
BITMAP
B8
48
A8
90
E8
ENDCHAR
STARTCHAR ugrave
ENCODING 249
SWIDTH 500 0
DWIDTH 6 0
BBX 5 8 0 0
BITMAP
40
20
00
88
88
88
88
F8
ENDCHAR
STARTCHAR uacute
ENCODING 250
SWIDTH 500 0
DWIDTH 6 0
BBX 5 8 0 0
BITMAP
10
20
00
88
88
88
88
F8
ENDCHAR
STARTCHAR ucircumflex
ENCODING 251
SWIDTH 500 0
DWIDTH 6 0
BBX 5 8 0 0
BITMAP
20
50
00
88
88
88
88
F8
ENDCHAR
STARTCHAR udieresis
ENCODING 252
SWIDTH 500 0
DWIDTH 6 0
BBX 5 7 0 0
BITMAP
50
00
88
88
88
88
F8
ENDCHAR
STARTCHAR yacute
ENCODING 253
SWIDTH 500 0
DWIDTH 6 0
BBX 5 8 0 0
BITMAP
10
20
00
88
88
F8
20
20
ENDCHAR
STARTCHAR thorn
ENCODING 254
SWIDTH 500 0
DWIDTH 6 0
BBX 5 5 0 0
BITMAP
80
F8
88
F8
80
ENDCHAR
STARTCHAR ydieresis
ENCODING 255
SWIDTH 500 0
DWIDTH 6 0
BBX 5 7 0 0
BITMAP
50
00
88
88
F8
20
20
ENDCHAR
STARTCHAR Amacron
ENCODING 256
SWIDTH 500 0
DWIDTH 6 0
BBX 5 7 0 0
BITMAP
70
00
F8
88
F8
88
88
ENDCHAR
STARTCHAR amacron
ENCODING 257
SWIDTH 500 0
DWIDTH 6 0
BBX 5 7 0 0
BITMAP
70
00
F8
88
F8
88
88
ENDCHAR
STARTCHAR Abreve
ENCODING 258
SWIDTH 500 0
DWIDTH 6 0
BBX 5 8 0 0
BITMAP
50
70
00
F8
88
F8
88
88
ENDCHAR
STARTCHAR abreve
ENCODING 259
SWIDTH 500 0
DWIDTH 6 0
BBX 5 8 0 0
BITMAP
50
70
00
F8
88
F8
88
88
ENDCHAR
STARTCHAR Emacron
ENCODING 274
SWIDTH 500 0
DWIDTH 6 0
BBX 5 7 0 0
BITMAP
70
00
F8
80
F8
80
F8
ENDCHAR
STARTCHAR emacron
ENCODING 275
SWIDTH 500 0
DWIDTH 6 0
BBX 5 7 0 0
BITMAP
70
00
78
40
F8
80
F8
ENDCHAR
STARTCHAR Imacron
ENCODING 298
SWIDTH 500 0
DWIDTH 6 0
BBX 5 7 0 0
BITMAP
70
00
F8
20
20
20
F8
ENDCHAR
STARTCHAR imacron
ENCODING 299
SWIDTH 500 0
DWIDTH 6 0
BBX 5 7 0 0
BITMAP
70
00
F8
20
20
20
F8
ENDCHAR
STARTCHAR dotlessi
ENCODING 305
SWIDTH 500 0
DWIDTH 6 0
BBX 5 5 0 0
BITMAP
F8
20
20
20
F8
ENDCHAR
STARTCHAR Lslash
ENCODING 321
SWIDTH 500 0
DWIDTH 6 0
BBX 5 5 0 0
BITMAP
40
60
C0
40
78
ENDCHAR
STARTCHAR lslash
ENCODING 322
SWIDTH 500 0
DWIDTH 6 0
BBX 5 5 0 0
BITMAP
40
60
C0
40
78
ENDCHAR
STARTCHAR Eng
ENCODING 330
SWIDTH 500 0
DWIDTH 6 0
BBX 5 5 0 0
BITMAP
C8
A8
98
88
B8
ENDCHAR
STARTCHAR eng
ENCODING 331
SWIDTH 500 0
DWIDTH 6 0
BBX 5 5 0 0
BITMAP
C8
A8
98
88
B8
ENDCHAR
STARTCHAR Omacron
ENCODING 332
SWIDTH 500 0
DWIDTH 6 0
BBX 5 7 0 0
BITMAP
70
00
F8
88
88
88
F8
ENDCHAR
STARTCHAR omacron
ENCODING 333
SWIDTH 500 0
DWIDTH 6 0
BBX 5 7 0 0
BITMAP
70
00
F8
88
88
88
F8
ENDCHAR
STARTCHAR Ohungarumlaut
ENCODING 336
SWIDTH 500 0
DWIDTH 6 0
BBX 5 8 0 0
BITMAP
48
90
00
F8
88
88
88
F8
ENDCHAR
STARTCHAR ohungarumlaut
ENCODING 337
SWIDTH 500 0
DWIDTH 6 0
BBX 5 8 0 0
BITMAP
48
90
00
F8
88
88
88
F8
ENDCHAR
STARTCHAR OE
ENCODING 338
SWIDTH 500 0
DWIDTH 6 0
BBX 5 5 0 0
BITMAP
F8
A0
B8
A0
F8
ENDCHAR
STARTCHAR oe
ENCODING 339
SWIDTH 500 0
DWIDTH 6 0
BBX 5 5 0 0
BITMAP
F8
A0
B8
A0
F8
ENDCHAR
STARTCHAR Scedilla
ENCODING 350
SWIDTH 500 0
DWIDTH 6 0
BBX 5 7 0 -2
BITMAP
F8
80
F8
08
F8
10
70
ENDCHAR
STARTCHAR scedilla
ENCODING 351
SWIDTH 500 0
DWIDTH 6 0
BBX 5 7 0 -2
BITMAP
F8
80
F8
08
F8
10
70
ENDCHAR
STARTCHAR Scaron
ENCODING 352
SWIDTH 500 0
DWIDTH 6 0
BBX 5 8 0 0
BITMAP
50
20
00
F8
80
F8
08
F8
ENDCHAR
STARTCHAR scaron
ENCODING 353
SWIDTH 500 0
DWIDTH 6 0
BBX 5 8 0 0
BITMAP
50
20
00
F8
80
F8
08
F8
ENDCHAR
STARTCHAR Umacron
ENCODING 362
SWIDTH 500 0
DWIDTH 6 0
BBX 5 7 0 0
BITMAP
70
00
88
88
88
88
F8
ENDCHAR
STARTCHAR umacron
ENCODING 363
SWIDTH 500 0
DWIDTH 6 0
BBX 5 7 0 0
BITMAP
70
00
88
88
88
88
F8
ENDCHAR
STARTCHAR Uhungarumlaut
ENCODING 368
SWIDTH 500 0
DWIDTH 6 0
BBX 5 8 0 0
BITMAP
48
90
00
88
88
88
88
F8
ENDCHAR
STARTCHAR uhungarumlaut
ENCODING 369
SWIDTH 500 0
DWIDTH 6 0
BBX 5 8 0 0
BITMAP
48
90
00
88
88
88
88
F8
ENDCHAR
STARTCHAR Ydieresis
ENCODING 376
SWIDTH 500 0
DWIDTH 6 0
BBX 5 7 0 0
BITMAP
50
00
88
88
F8
20
20
ENDCHAR
STARTCHAR Zcaron
ENCODING 381
SWIDTH 500 0
DWIDTH 6 0
BBX 5 8 0 0
BITMAP
50
20
00
F8
10
20
40
F8
ENDCHAR
STARTCHAR zcaron
ENCODING 382
SWIDTH 500 0
DWIDTH 6 0
BBX 5 8 0 0
BITMAP
50
20
00
F8
10
20
40
F8
ENDCHAR
STARTCHAR longs
ENCODING 383
SWIDTH 500 0
DWIDTH 6 0
BBX 3 5 2 0
BITMAP
E0
80
80
80
80
ENDCHAR
STARTCHAR uni0181
ENCODING 385
SWIDTH 500 0
DWIDTH 6 0
BBX 5 5 0 0
BITMAP
F8
A8
B0
28
38
ENDCHAR
STARTCHAR uni018F
ENCODING 399
SWIDTH 500 0
DWIDTH 6 0
BBX 5 5 0 0
BITMAP
F8
08
F8
88
F8
ENDCHAR
STARTCHAR florin
ENCODING 402
SWIDTH 500 0
DWIDTH 6 0
BBX 5 5 0 0
BITMAP
38
20
F8
20
E0
ENDCHAR
STARTCHAR Ohorn
ENCODING 416
SWIDTH 500 0
DWIDTH 6 0
BBX 5 5 0 0
BITMAP
E8
A8
B8
A0
E0
ENDCHAR
STARTCHAR ohorn
ENCODING 417
SWIDTH 500 0
DWIDTH 6 0
BBX 5 5 0 0
BITMAP
E8
A8
B8
A0
E0
ENDCHAR
STARTCHAR uni01A9
ENCODING 425
SWIDTH 500 0
DWIDTH 6 0
BBX 5 5 0 0
BITMAP
F8
48
20
48
F8
ENDCHAR
STARTCHAR Uhorn
ENCODING 431
SWIDTH 500 0
DWIDTH 6 0
BBX 5 5 0 0
BITMAP
A8
A8
B8
A0
E0
ENDCHAR
STARTCHAR uhorn
ENCODING 432
SWIDTH 500 0
DWIDTH 6 0
BBX 5 5 0 0
BITMAP
A8
A8
B8
A0
E0
ENDCHAR
STARTCHAR uni01B7
ENCODING 439
SWIDTH 500 0
DWIDTH 6 0
BBX 5 5 0 0
BITMAP
F8
08
30
88
F8
ENDCHAR
STARTCHAR uni01B8
ENCODING 440
SWIDTH 500 0
DWIDTH 6 0
BBX 5 5 0 0
BITMAP
F8
80
60
88
F8
ENDCHAR
STARTCHAR uni01B9
ENCODING 441
SWIDTH 500 0
DWIDTH 6 0
BBX 5 5 0 0
BITMAP
F8
80
60
88
F8
ENDCHAR
STARTCHAR uni01BF
ENCODING 447
SWIDTH 500 0
DWIDTH 6 0
BBX 5 5 0 0
BITMAP
F8
88
F0
80
80
ENDCHAR
STARTCHAR uni01C0
ENCODING 448
SWIDTH 500 0
DWIDTH 6 0
BBX 1 5 2 0
BITMAP
80
80
80
80
80
ENDCHAR
STARTCHAR uni01C1
ENCODING 449
SWIDTH 500 0
DWIDTH 6 0
BBX 3 5 1 0
BITMAP
A0
A0
A0
A0
A0
ENDCHAR
STARTCHAR uni01C2
ENCODING 450
SWIDTH 500 0
DWIDTH 6 0
BBX 5 5 0 0
BITMAP
20
F8
20
F8
20
ENDCHAR
STARTCHAR uni01C3
ENCODING 451
SWIDTH 500 0
DWIDTH 6 0
BBX 1 5 2 0
BITMAP
80
80
80
00
80
ENDCHAR
STARTCHAR uni01F7
ENCODING 503
SWIDTH 500 0
DWIDTH 6 0
BBX 5 5 0 0
BITMAP
F8
88
F0
80
80
ENDCHAR
STARTCHAR uni021C
ENCODING 540
SWIDTH 500 0
DWIDTH 6 0
BBX 5 6 0 -1
BITMAP
F8
08
38
08
F8
80
ENDCHAR
STARTCHAR uni021D
ENCODING 541
SWIDTH 500 0
DWIDTH 6 0
BBX 5 6 0 -1
BITMAP
F8
08
38
08
F8
80
ENDCHAR
STARTCHAR uni0224
ENCODING 548
SWIDTH 500 0
DWIDTH 6 0
BBX 5 7 0 -2
BITMAP
F8
10
20
40
F8
08
38
ENDCHAR
STARTCHAR uni0225
ENCODING 549
SWIDTH 500 0
DWIDTH 6 0
BBX 5 7 0 -2
BITMAP
F8
10
20
40
F8
08
38
ENDCHAR
STARTCHAR uni0241
ENCODING 577
SWIDTH 500 0
DWIDTH 6 0
BBX 5 5 0 0
BITMAP
F8
08
38
20
20
ENDCHAR
STARTCHAR uni0242
ENCODING 578
SWIDTH 500 0
DWIDTH 6 0
BBX 5 5 0 0
BITMAP
F8
08
38
20
20
ENDCHAR
STARTCHAR uni0259
ENCODING 601
SWIDTH 500 0
DWIDTH 6 0
BBX 5 5 0 0
BITMAP
F8
08
F8
88
F8
ENDCHAR
STARTCHAR uni0283
ENCODING 643
SWIDTH 500 0
DWIDTH 6 0
BBX 5 5 0 0
BITMAP
F8
48
20
48
F8
ENDCHAR
STARTCHAR uni0292
ENCODING 658
SWIDTH 500 0
DWIDTH 6 0
BBX 5 5 0 0
BITMAP
F8
08
30
88
F8
ENDCHAR
STARTCHAR uni0294
ENCODING 660
SWIDTH 500 0
DWIDTH 6 0
BBX 5 5 0 0
BITMAP
F8
08
38
20
20
ENDCHAR
STARTCHAR uni0295
ENCODING 661
SWIDTH 500 0
DWIDTH 6 0
BBX 5 5 0 0
BITMAP
F8
80
E0
20
20
ENDCHAR
STARTCHAR uni0296
ENCODING 662
SWIDTH 500 0
DWIDTH 6 0
BBX 5 5 0 0
BITMAP
20
20
38
08
F8
ENDCHAR
STARTCHAR uni02BE
ENCODING 702
SWIDTH 500 0
DWIDTH 6 0
BBX 3 3 1 2
BITMAP
E0
20
E0
ENDCHAR
STARTCHAR uni02BF
ENCODING 703
SWIDTH 500 0
DWIDTH 6 0
BBX 3 3 1 2
BITMAP
E0
80
E0
ENDCHAR
STARTCHAR uni0374
ENCODING 884
SWIDTH 500 0
DWIDTH 6 0
BBX 2 2 0 5
BITMAP
40
80
ENDCHAR
STARTCHAR uni037B
ENCODING 891
SWIDTH 500 0
DWIDTH 6 0
BBX 5 5 0 0
BITMAP
F8
88
08
88
F8
ENDCHAR
STARTCHAR uni037C
ENCODING 892
SWIDTH 500 0
DWIDTH 6 0
BBX 5 5 0 0
BITMAP
F8
88
A0
88
F8
ENDCHAR
STARTCHAR uni037D
ENCODING 893
SWIDTH 500 0
DWIDTH 6 0
BBX 5 5 0 0
BITMAP
F8
88
28
88
F8
ENDCHAR
STARTCHAR uni037E
ENCODING 894
SWIDTH 500 0
DWIDTH 6 0
BBX 2 6 0 -2
BITMAP
40
00
00
40
40
C0
ENDCHAR
STARTCHAR dieresistonos
ENCODING 901
SWIDTH 500 0
DWIDTH 6 0
BBX 5 2 0 6
BITMAP
20
A8
ENDCHAR
STARTCHAR Alphatonos
ENCODING 902
SWIDTH 500 0
DWIDTH 6 0
BBX 5 8 0 0
BITMAP
80
80
00
F8
88
F8
88
88
ENDCHAR
STARTCHAR anoteleia
ENCODING 903
SWIDTH 500 0
DWIDTH 6 0
BBX 1 1 2 2
BITMAP
80
ENDCHAR
STARTCHAR Epsilontonos
ENCODING 904
SWIDTH 500 0
DWIDTH 6 0
BBX 5 8 0 0
BITMAP
80
80
00
F8
80
F8
80
F8
ENDCHAR
STARTCHAR Etatonos
ENCODING 905
SWIDTH 500 0
DWIDTH 6 0
BBX 5 8 0 0
BITMAP
80
80
00
88
88
F8
88
88
ENDCHAR
STARTCHAR Iotatonos
ENCODING 906
SWIDTH 500 0
DWIDTH 6 0
BBX 5 8 0 0
BITMAP
80
80
00
F8
20
20
20
F8
ENDCHAR
STARTCHAR Omicrontonos
ENCODING 908
SWIDTH 500 0
DWIDTH 6 0
BBX 5 8 0 0
BITMAP
80
80
00
F8
88
88
88
F8
ENDCHAR
STARTCHAR Upsilontonos
ENCODING 910
SWIDTH 500 0
DWIDTH 6 0
BBX 5 8 0 0
BITMAP
80
80
00
88
88
F8
20
20
ENDCHAR
STARTCHAR Omegatonos
ENCODING 911
SWIDTH 500 0
DWIDTH 6 0
BBX 5 8 0 0
BITMAP
80
80
00
F8
88
88
50
D8
ENDCHAR
STARTCHAR iotadieresistonos
ENCODING 912
SWIDTH 500 0
DWIDTH 6 0
BBX 5 8 0 0
BITMAP
20
A8
00
F8
20
20
20
F8
ENDCHAR
STARTCHAR Alpha
ENCODING 913
SWIDTH 500 0
DWIDTH 6 0
BBX 5 5 0 0
BITMAP
F8
88
F8
88
88
ENDCHAR
STARTCHAR Beta
ENCODING 914
SWIDTH 500 0
DWIDTH 6 0
BBX 5 5 0 0
BITMAP
F8
88
F0
88
F8
ENDCHAR
STARTCHAR Gamma
ENCODING 915
SWIDTH 500 0
DWIDTH 6 0
BBX 5 5 0 0
BITMAP
F8
88
80
80
80
ENDCHAR
STARTCHAR uni0394
ENCODING 916
SWIDTH 500 0
DWIDTH 6 0
BBX 5 5 0 0
BITMAP
70
50
D8
88
F8
ENDCHAR
STARTCHAR Epsilon
ENCODING 917
SWIDTH 500 0
DWIDTH 6 0
BBX 5 5 0 0
BITMAP
F8
80
F8
80
F8
ENDCHAR
STARTCHAR Zeta
ENCODING 918
SWIDTH 500 0
DWIDTH 6 0
BBX 5 5 0 0
BITMAP
F8
10
20
40
F8
ENDCHAR
STARTCHAR Eta
ENCODING 919
SWIDTH 500 0
DWIDTH 6 0
BBX 5 5 0 0
BITMAP
88
88
F8
88
88
ENDCHAR
STARTCHAR Theta
ENCODING 920
SWIDTH 500 0
DWIDTH 6 0
BBX 5 5 0 0
BITMAP
70
88
A8
88
70
ENDCHAR
STARTCHAR Iota
ENCODING 921
SWIDTH 500 0
DWIDTH 6 0
BBX 5 5 0 0
BITMAP
F8
20
20
20
F8
ENDCHAR
STARTCHAR Kappa
ENCODING 922
SWIDTH 500 0
DWIDTH 6 0
BBX 5 5 0 0
BITMAP
90
90
F8
88
88
ENDCHAR
STARTCHAR Lambda
ENCODING 923
SWIDTH 500 0
DWIDTH 6 0
BBX 5 5 0 0
BITMAP
70
50
D8
88
88
ENDCHAR
STARTCHAR Mu
ENCODING 924
SWIDTH 500 0
DWIDTH 6 0
BBX 5 5 0 0
BITMAP
F8
A8
A8
A8
A8
ENDCHAR
STARTCHAR Nu
ENCODING 925
SWIDTH 500 0
DWIDTH 6 0
BBX 5 5 0 0
BITMAP
E8
A8
A8
A8
B8
ENDCHAR
STARTCHAR Xi
ENCODING 926
SWIDTH 500 0
DWIDTH 6 0
BBX 5 5 0 0
BITMAP
F8
00
70
00
F8
ENDCHAR
STARTCHAR Omicron
ENCODING 927
SWIDTH 500 0
DWIDTH 6 0
BBX 5 5 0 0
BITMAP
F8
88
88
88
F8
ENDCHAR
STARTCHAR Pi
ENCODING 928
SWIDTH 500 0
DWIDTH 6 0
BBX 5 5 0 0
BITMAP
F8
88
88
88
88
ENDCHAR
STARTCHAR Rho
ENCODING 929
SWIDTH 500 0
DWIDTH 6 0
BBX 5 5 0 0
BITMAP
F8
88
F8
80
80
ENDCHAR
STARTCHAR Sigma
ENCODING 931
SWIDTH 500 0
DWIDTH 6 0
BBX 5 5 0 0
BITMAP
F8
48
20
48
F8
ENDCHAR
STARTCHAR Tau
ENCODING 932
SWIDTH 500 0
DWIDTH 6 0
BBX 5 5 0 0
BITMAP
F8
20
20
20
20
ENDCHAR
STARTCHAR Upsilon
ENCODING 933
SWIDTH 500 0
DWIDTH 6 0
BBX 5 5 0 0
BITMAP
88
88
F8
20
20
ENDCHAR
STARTCHAR Phi
ENCODING 934
SWIDTH 500 0
DWIDTH 6 0
BBX 5 5 0 0
BITMAP
20
F8
A8
F8
20
ENDCHAR
STARTCHAR Chi
ENCODING 935
SWIDTH 500 0
DWIDTH 6 0
BBX 5 5 0 0
BITMAP
D8
50
20
50
D8
ENDCHAR
STARTCHAR Psi
ENCODING 936
SWIDTH 500 0
DWIDTH 6 0
BBX 5 5 0 0
BITMAP
A8
A8
F8
20
20
ENDCHAR
STARTCHAR uni03A9
ENCODING 937
SWIDTH 500 0
DWIDTH 6 0
BBX 5 5 0 0
BITMAP
F8
88
88
50
D8
ENDCHAR
STARTCHAR Iotadieresis
ENCODING 938
SWIDTH 500 0
DWIDTH 6 0
BBX 5 7 0 0
BITMAP
50
00
F8
20
20
20
F8
ENDCHAR
STARTCHAR Upsilondieresis
ENCODING 939
SWIDTH 500 0
DWIDTH 6 0
BBX 5 7 0 0
BITMAP
50
00
88
88
F8
20
20
ENDCHAR
STARTCHAR alphatonos
ENCODING 940
SWIDTH 500 0
DWIDTH 6 0
BBX 5 8 0 0
BITMAP
10
20
00
F8
88
F8
88
88
ENDCHAR
STARTCHAR epsilontonos
ENCODING 941
SWIDTH 500 0
DWIDTH 6 0
BBX 5 8 0 0
BITMAP
10
20
00
78
40
F8
80
F8
ENDCHAR
STARTCHAR etatonos
ENCODING 942
SWIDTH 500 0
DWIDTH 6 0
BBX 5 8 0 0
BITMAP
10
20
00
88
88
F8
88
88
ENDCHAR
STARTCHAR iotatonos
ENCODING 943
SWIDTH 500 0
DWIDTH 6 0
BBX 5 8 0 0
BITMAP
10
20
00
F8
20
20
20
F8
ENDCHAR
STARTCHAR upsilondieresistonos
ENCODING 944
SWIDTH 500 0
DWIDTH 6 0
BBX 5 8 0 0
BITMAP
20
A8
00
88
88
88
88
F8
ENDCHAR
STARTCHAR alpha
ENCODING 945
SWIDTH 500 0
DWIDTH 6 0
BBX 5 5 0 0
BITMAP
F8
88
F8
88
88
ENDCHAR
STARTCHAR beta
ENCODING 946
SWIDTH 500 0
DWIDTH 6 0
BBX 5 5 0 0
BITMAP
F8
88
F0
88
F8
ENDCHAR
STARTCHAR gamma
ENCODING 947
SWIDTH 500 0
DWIDTH 6 0
BBX 5 5 0 0
BITMAP
F8
88
80
80
80
ENDCHAR
STARTCHAR delta
ENCODING 948
SWIDTH 500 0
DWIDTH 6 0
BBX 5 5 0 0
BITMAP
E0
90
88
88
F8
ENDCHAR
STARTCHAR epsilon
ENCODING 949
SWIDTH 500 0
DWIDTH 6 0
BBX 5 5 0 0
BITMAP
78
40
F8
80
F8
ENDCHAR
STARTCHAR zeta
ENCODING 950
SWIDTH 500 0
DWIDTH 6 0
BBX 5 5 0 0
BITMAP
F8
10
20
40
F8
ENDCHAR
STARTCHAR eta
ENCODING 951
SWIDTH 500 0
DWIDTH 6 0
BBX 5 5 0 0
BITMAP
88
88
F8
88
88
ENDCHAR
STARTCHAR theta
ENCODING 952
SWIDTH 500 0
DWIDTH 6 0
BBX 5 5 0 0
BITMAP
70
88
A8
88
70
ENDCHAR
STARTCHAR iota
ENCODING 953
SWIDTH 500 0
DWIDTH 6 0
BBX 5 5 0 0
BITMAP
F8
20
20
20
F8
ENDCHAR
STARTCHAR kappa
ENCODING 954
SWIDTH 500 0
DWIDTH 6 0
BBX 5 5 0 0
BITMAP
88
90
E0
90
88
ENDCHAR
STARTCHAR lambda
ENCODING 955
SWIDTH 500 0
DWIDTH 6 0
BBX 5 5 0 0
BITMAP
20
50
50
88
88
ENDCHAR
STARTCHAR uni03BC
ENCODING 956
SWIDTH 500 0
DWIDTH 6 0
BBX 5 5 0 0
BITMAP
88
88
88
F8
80
ENDCHAR
STARTCHAR nu
ENCODING 957
SWIDTH 500 0
DWIDTH 6 0
BBX 5 5 0 0
BITMAP
E8
A8
A8
A8
B8
ENDCHAR
STARTCHAR xi
ENCODING 958
SWIDTH 500 0
DWIDTH 6 0
BBX 5 5 0 0
BITMAP
F8
00
70
00
F8
ENDCHAR
STARTCHAR omicron
ENCODING 959
SWIDTH 500 0
DWIDTH 6 0
BBX 5 5 0 0
BITMAP
F8
88
88
88
F8
ENDCHAR
STARTCHAR pi
ENCODING 960
SWIDTH 500 0
DWIDTH 6 0
BBX 5 5 0 0
BITMAP
F8
50
50
50
58
ENDCHAR
STARTCHAR rho
ENCODING 961
SWIDTH 500 0
DWIDTH 6 0
BBX 5 5 0 0
BITMAP
F8
88
F8
80
80
ENDCHAR
STARTCHAR sigma1
ENCODING 962
SWIDTH 500 0
DWIDTH 6 0
BBX 5 7 0 -2
BITMAP
F8
80
80
80
F8
08
18
ENDCHAR
STARTCHAR sigma
ENCODING 963
SWIDTH 500 0
DWIDTH 6 0
BBX 5 5 0 0
BITMAP
F8
48
20
48
F8
ENDCHAR
STARTCHAR tau
ENCODING 964
SWIDTH 500 0
DWIDTH 6 0
BBX 5 5 0 0
BITMAP
F8
20
20
20
20
ENDCHAR
STARTCHAR upsilon
ENCODING 965
SWIDTH 500 0
DWIDTH 6 0
BBX 5 5 0 0
BITMAP
88
88
88
88
F8
ENDCHAR
STARTCHAR phi
ENCODING 966
SWIDTH 500 0
DWIDTH 6 0
BBX 5 5 0 0
BITMAP
20
F8
A8
F8
20
ENDCHAR
STARTCHAR chi
ENCODING 967
SWIDTH 500 0
DWIDTH 6 0
BBX 5 5 0 0
BITMAP
D8
50
20
50
D8
ENDCHAR
STARTCHAR psi
ENCODING 968
SWIDTH 500 0
DWIDTH 6 0
BBX 5 5 0 0
BITMAP
A8
A8
F8
20
20
ENDCHAR
STARTCHAR omega
ENCODING 969
SWIDTH 500 0
DWIDTH 6 0
BBX 5 5 0 0
BITMAP
F8
88
88
50
D8
ENDCHAR
STARTCHAR iotadieresis
ENCODING 970
SWIDTH 500 0
DWIDTH 6 0
BBX 5 7 0 0
BITMAP
50
00
F8
20
20
20
F8
ENDCHAR
STARTCHAR upsilondieresis
ENCODING 971
SWIDTH 500 0
DWIDTH 6 0
BBX 5 7 0 0
BITMAP
50
00
88
88
F8
20
20
ENDCHAR
STARTCHAR omicrontonos
ENCODING 972
SWIDTH 500 0
DWIDTH 6 0
BBX 5 8 0 0
BITMAP
20
20
00
F8
88
88
88
F8
ENDCHAR
STARTCHAR upsilontonos
ENCODING 973
SWIDTH 500 0
DWIDTH 6 0
BBX 5 8 0 0
BITMAP
20
20
00
88
88
F8
20
20
ENDCHAR
STARTCHAR omegatonos
ENCODING 974
SWIDTH 500 0
DWIDTH 6 0
BBX 5 8 0 0
BITMAP
20
20
00
F8
88
88
50
D8
ENDCHAR
STARTCHAR uni03D0
ENCODING 976
SWIDTH 500 0
DWIDTH 6 0
BBX 5 5 0 0
BITMAP
F0
90
F8
88
F8
ENDCHAR
STARTCHAR theta1
ENCODING 977
SWIDTH 500 0
DWIDTH 6 0
BBX 5 5 0 0
BITMAP
70
88
A8
88
70
ENDCHAR
STARTCHAR Upsilon1
ENCODING 978
SWIDTH 500 0
DWIDTH 6 0
BBX 5 5 0 0
BITMAP
98
90
F0
40
40
ENDCHAR
STARTCHAR uni03D3
ENCODING 979
SWIDTH 500 0
DWIDTH 6 0
BBX 5 8 0 0
BITMAP
80
80
00
98
90
F0
20
20
ENDCHAR
STARTCHAR uni03D4
ENCODING 980
SWIDTH 500 0
DWIDTH 6 0
BBX 5 7 0 0
BITMAP
50
00
98
90
F0
20
20
ENDCHAR
STARTCHAR phi1
ENCODING 981
SWIDTH 500 0
DWIDTH 6 0
BBX 5 5 0 0
BITMAP
20
F8
A8
F8
20
ENDCHAR
STARTCHAR omega1
ENCODING 982
SWIDTH 500 0
DWIDTH 6 0
BBX 5 5 0 0
BITMAP
F8
50
50
50
58
ENDCHAR
STARTCHAR uni03D7
ENCODING 983
SWIDTH 500 0
DWIDTH 6 0
BBX 5 5 0 0
BITMAP
C8
98
A8
C8
98
ENDCHAR
STARTCHAR uni03D8
ENCODING 984
SWIDTH 500 0
DWIDTH 6 0
BBX 5 5 0 0
BITMAP
F8
88
88
F8
20
ENDCHAR
STARTCHAR uni03D9
ENCODING 985
SWIDTH 500 0
DWIDTH 6 0
BBX 5 5 0 0
BITMAP
F8
88
88
F8
20
ENDCHAR
STARTCHAR uni03DA
ENCODING 986
SWIDTH 500 0
DWIDTH 6 0
BBX 5 5 0 0
BITMAP
F8
80
80
E0
20
ENDCHAR
STARTCHAR uni03DB
ENCODING 987
SWIDTH 500 0
DWIDTH 6 0
BBX 5 5 0 0
BITMAP
F8
80
80
E0
20
ENDCHAR
STARTCHAR uni03DC
ENCODING 988
SWIDTH 500 0
DWIDTH 6 0
BBX 5 5 0 0
BITMAP
F8
80
F0
90
80
ENDCHAR
STARTCHAR uni03DD
ENCODING 989
SWIDTH 500 0
DWIDTH 6 0
BBX 5 5 0 0
BITMAP
F8
80
F0
90
80
ENDCHAR
STARTCHAR uni03DE
ENCODING 990
SWIDTH 500 0
DWIDTH 6 0
BBX 5 5 0 0
BITMAP
C0
40
F8
10
18
ENDCHAR
STARTCHAR uni03DF
ENCODING 991
SWIDTH 500 0
DWIDTH 6 0
BBX 5 5 0 0
BITMAP
C0
40
F8
10
18
ENDCHAR
STARTCHAR uni03E0
ENCODING 992
SWIDTH 500 0
DWIDTH 6 0
BBX 5 5 0 0
BITMAP
F8
08
78
08
18
ENDCHAR
STARTCHAR uni03E1
ENCODING 993
SWIDTH 500 0
DWIDTH 6 0
BBX 5 5 0 0
BITMAP
F8
08
78
08
18
ENDCHAR
STARTCHAR uni03E2
ENCODING 994
SWIDTH 500 0
DWIDTH 6 0
BBX 5 7 0 -2
BITMAP
D8
88
A8
A8
F8
08
78
ENDCHAR
STARTCHAR uni03E3
ENCODING 995
SWIDTH 500 0
DWIDTH 6 0
BBX 5 7 0 -2
BITMAP
D8
88
A8
A8
F8
08
78
ENDCHAR
STARTCHAR uni03E4
ENCODING 996
SWIDTH 500 0
DWIDTH 6 0
BBX 5 5 0 0
BITMAP
C8
88
88
F8
08
ENDCHAR
STARTCHAR uni03E5
ENCODING 997
SWIDTH 500 0
DWIDTH 6 0
BBX 5 5 0 0
BITMAP
C8
88
88
F8
08
ENDCHAR
STARTCHAR uni03E6
ENCODING 998
SWIDTH 500 0
DWIDTH 6 0
BBX 5 6 0 -1
BITMAP
80
F8
88
88
B8
20
ENDCHAR
STARTCHAR uni03E7
ENCODING 999
SWIDTH 500 0
DWIDTH 6 0
BBX 5 6 0 -1
BITMAP
80
F8
88
88
B8
20
ENDCHAR
STARTCHAR uni03E8
ENCODING 1000
SWIDTH 500 0
DWIDTH 6 0
BBX 5 6 0 -1
BITMAP
F8
88
08
78
40
78
ENDCHAR
STARTCHAR uni03E9
ENCODING 1001
SWIDTH 500 0
DWIDTH 6 0
BBX 5 6 0 -1
BITMAP
F8
88
08
78
40
78
ENDCHAR
STARTCHAR uni03EA
ENCODING 1002
SWIDTH 500 0
DWIDTH 6 0
BBX 5 7 0 -2
BITMAP
D8
50
20
50
D8
00
F8
ENDCHAR
STARTCHAR uni03EB
ENCODING 1003
SWIDTH 500 0
DWIDTH 6 0
BBX 5 7 0 -2
BITMAP
D8
50
20
50
D8
00
F8
ENDCHAR
STARTCHAR uni03EC
ENCODING 1004
SWIDTH 500 0
DWIDTH 6 0
BBX 5 6 0 0
BITMAP
08
F8
80
F8
88
78
ENDCHAR
STARTCHAR uni03ED
ENCODING 1005
SWIDTH 500 0
DWIDTH 6 0
BBX 5 6 0 0
BITMAP
08
F8
80
F8
88
78
ENDCHAR
STARTCHAR uni03EE
ENCODING 1006
SWIDTH 500 0
DWIDTH 6 0
BBX 5 5 0 0
BITMAP
20
F8
A8
20
20
ENDCHAR
STARTCHAR uni03EF
ENCODING 1007
SWIDTH 500 0
DWIDTH 6 0
BBX 5 5 0 0
BITMAP
20
F8
A8
20
20
ENDCHAR
STARTCHAR uni03F0
ENCODING 1008
SWIDTH 500 0
DWIDTH 6 0
BBX 5 5 0 0
BITMAP
88
90
E0
90
88
ENDCHAR
STARTCHAR uni03F1
ENCODING 1009
SWIDTH 500 0
DWIDTH 6 0
BBX 5 5 0 0
BITMAP
F8
88
F8
80
80
ENDCHAR
STARTCHAR uni03F2
ENCODING 1010
SWIDTH 500 0
DWIDTH 6 0
BBX 5 5 0 0
BITMAP
F8
88
80
88
F8
ENDCHAR
STARTCHAR uni03F3
ENCODING 1011
SWIDTH 500 0
DWIDTH 6 0
BBX 5 5 0 0
BITMAP
38
08
08
88
F8
ENDCHAR
STARTCHAR uni03F4
ENCODING 1012
SWIDTH 500 0
DWIDTH 6 0
BBX 5 5 0 0
BITMAP
70
88
F8
88
70
ENDCHAR
STARTCHAR uni03F5
ENCODING 1013
SWIDTH 500 0
DWIDTH 6 0
BBX 5 5 0 0
BITMAP
78
80
F8
80
78
ENDCHAR
STARTCHAR uni03F6
ENCODING 1014
SWIDTH 500 0
DWIDTH 6 0
BBX 5 5 0 0
BITMAP
F0
08
F8
08
F0
ENDCHAR
STARTCHAR uni03F7
ENCODING 1015
SWIDTH 500 0
DWIDTH 6 0
BBX 5 5 0 0
BITMAP
80
F8
88
F8
80
ENDCHAR
STARTCHAR uni03F8
ENCODING 1016
SWIDTH 500 0
DWIDTH 6 0
BBX 5 5 0 0
BITMAP
80
F8
88
F8
80
ENDCHAR
STARTCHAR uni03F9
ENCODING 1017
SWIDTH 500 0
DWIDTH 6 0
BBX 5 5 0 0
BITMAP
F8
88
80
88
F8
ENDCHAR
STARTCHAR uni03FA
ENCODING 1018
SWIDTH 500 0
DWIDTH 6 0
BBX 5 5 0 0
BITMAP
88
D8
A8
88
88
ENDCHAR
STARTCHAR uni03FB
ENCODING 1019
SWIDTH 500 0
DWIDTH 6 0
BBX 5 5 0 0
BITMAP
88
D8
A8
88
88
ENDCHAR
STARTCHAR uni03FC
ENCODING 1020
SWIDTH 500 0
DWIDTH 6 0
BBX 5 6 0 -1
BITMAP
78
48
78
40
E0
40
ENDCHAR
STARTCHAR uni03FD
ENCODING 1021
SWIDTH 500 0
DWIDTH 6 0
BBX 5 5 0 0
BITMAP
F8
88
08
88
F8
ENDCHAR
STARTCHAR uni03FE
ENCODING 1022
SWIDTH 500 0
DWIDTH 6 0
BBX 5 5 0 0
BITMAP
F8
88
A0
88
F8
ENDCHAR
STARTCHAR uni03FF
ENCODING 1023
SWIDTH 500 0
DWIDTH 6 0
BBX 5 5 0 0
BITMAP
F8
88
28
88
F8
ENDCHAR
STARTCHAR uni0400
ENCODING 1024
SWIDTH 500 0
DWIDTH 6 0
BBX 5 8 0 0
BITMAP
40
20
00
F8
80
F8
80
F8
ENDCHAR
STARTCHAR uni0401
ENCODING 1025
SWIDTH 500 0
DWIDTH 6 0
BBX 5 7 0 0
BITMAP
50
00
F8
80
F8
80
F8
ENDCHAR
STARTCHAR uni0402
ENCODING 1026
SWIDTH 500 0
DWIDTH 6 0
BBX 5 5 0 0
BITMAP
E0
40
78
48
58
ENDCHAR
STARTCHAR uni0403
ENCODING 1027
SWIDTH 500 0
DWIDTH 6 0
BBX 5 8 0 0
BITMAP
10
20
00
F8
88
80
80
80
ENDCHAR
STARTCHAR uni0404
ENCODING 1028
SWIDTH 500 0
DWIDTH 6 0
BBX 5 5 0 0
BITMAP
78
80
F8
80
78
ENDCHAR
STARTCHAR uni0405
ENCODING 1029
SWIDTH 500 0
DWIDTH 6 0
BBX 5 5 0 0
BITMAP
F8
80
F8
08
F8
ENDCHAR
STARTCHAR uni0406
ENCODING 1030
SWIDTH 500 0
DWIDTH 6 0
BBX 5 5 0 0
BITMAP
F8
20
20
20
F8
ENDCHAR
STARTCHAR uni0407
ENCODING 1031
SWIDTH 500 0
DWIDTH 6 0
BBX 5 7 0 0
BITMAP
50
00
F8
20
20
20
F8
ENDCHAR
STARTCHAR uni0408
ENCODING 1032
SWIDTH 500 0
DWIDTH 6 0
BBX 5 5 0 0
BITMAP
F8
20
20
20
E0
ENDCHAR
STARTCHAR uni0409
ENCODING 1033
SWIDTH 500 0
DWIDTH 6 0
BBX 5 5 0 0
BITMAP
60
A0
B8
A8
B8
ENDCHAR
STARTCHAR uni040A
ENCODING 1034
SWIDTH 500 0
DWIDTH 6 0
BBX 5 5 0 0
BITMAP
A0
A0
F8
A8
B8
ENDCHAR
STARTCHAR uni040B
ENCODING 1035
SWIDTH 500 0
DWIDTH 6 0
BBX 5 5 0 0
BITMAP
E0
40
78
48
48
ENDCHAR
STARTCHAR uni040C
ENCODING 1036
SWIDTH 500 0
DWIDTH 6 0
BBX 5 8 0 0
BITMAP
10
20
00
90
90
F8
88
88
ENDCHAR
STARTCHAR uni040D
ENCODING 1037
SWIDTH 500 0
DWIDTH 6 0
BBX 5 8 0 0
BITMAP
40
20
00
B8
A8
A8
A8
E8
ENDCHAR
STARTCHAR uni040E
ENCODING 1038
SWIDTH 500 0
DWIDTH 6 0
BBX 5 8 0 0
BITMAP
50
70
00
88
88
F8
08
F8
ENDCHAR
STARTCHAR uni040F
ENCODING 1039
SWIDTH 500 0
DWIDTH 6 0
BBX 5 6 0 -1
BITMAP
88
88
88
88
F8
20
ENDCHAR
STARTCHAR uni0410
ENCODING 1040
SWIDTH 500 0
DWIDTH 6 0
BBX 5 5 0 0
BITMAP
F8
88
F8
88
88
ENDCHAR
STARTCHAR uni0411
ENCODING 1041
SWIDTH 500 0
DWIDTH 6 0
BBX 5 5 0 0
BITMAP
F8
80
F8
88
F8
ENDCHAR
STARTCHAR uni0412
ENCODING 1042
SWIDTH 500 0
DWIDTH 6 0
BBX 5 5 0 0
BITMAP
F8
88
F0
88
F8
ENDCHAR
STARTCHAR uni0413
ENCODING 1043
SWIDTH 500 0
DWIDTH 6 0
BBX 5 5 0 0
BITMAP
F8
88
80
80
80
ENDCHAR
STARTCHAR uni0414
ENCODING 1044
SWIDTH 500 0
DWIDTH 6 0
BBX 5 5 0 0
BITMAP
70
50
50
F8
88
ENDCHAR
STARTCHAR uni0415
ENCODING 1045
SWIDTH 500 0
DWIDTH 6 0
BBX 5 5 0 0
BITMAP
F8
80
F8
80
F8
ENDCHAR
STARTCHAR uni0416
ENCODING 1046
SWIDTH 500 0
DWIDTH 6 0
BBX 5 5 0 0
BITMAP
A8
A8
70
A8
A8
ENDCHAR
STARTCHAR uni0417
ENCODING 1047
SWIDTH 500 0
DWIDTH 6 0
BBX 5 5 0 0
BITMAP
F8
88
38
88
F8
ENDCHAR
STARTCHAR uni0418
ENCODING 1048
SWIDTH 500 0
DWIDTH 6 0
BBX 5 5 0 0
BITMAP
B8
A8
A8
A8
E8
ENDCHAR
STARTCHAR uni0419
ENCODING 1049
SWIDTH 500 0
DWIDTH 6 0
BBX 5 8 0 0
BITMAP
50
70
00
B8
A8
A8
A8
E8
ENDCHAR
STARTCHAR uni041A
ENCODING 1050
SWIDTH 500 0
DWIDTH 6 0
BBX 5 5 0 0
BITMAP
90
90
F8
88
88
ENDCHAR
STARTCHAR uni041B
ENCODING 1051
SWIDTH 500 0
DWIDTH 6 0
BBX 5 5 0 0
BITMAP
78
48
48
48
C8
ENDCHAR
STARTCHAR uni041C
ENCODING 1052
SWIDTH 500 0
DWIDTH 6 0
BBX 5 5 0 0
BITMAP
F8
A8
A8
A8
A8
ENDCHAR
STARTCHAR uni041D
ENCODING 1053
SWIDTH 500 0
DWIDTH 6 0
BBX 5 5 0 0
BITMAP
88
88
F8
88
88
ENDCHAR
STARTCHAR uni041E
ENCODING 1054
SWIDTH 500 0
DWIDTH 6 0
BBX 5 5 0 0
BITMAP
F8
88
88
88
F8
ENDCHAR
STARTCHAR uni041F
ENCODING 1055
SWIDTH 500 0
DWIDTH 6 0
BBX 5 5 0 0
BITMAP
F8
88
88
88
88
ENDCHAR
STARTCHAR uni0420
ENCODING 1056
SWIDTH 500 0
DWIDTH 6 0
BBX 5 5 0 0
BITMAP
F8
88
F8
80
80
ENDCHAR
STARTCHAR uni0421
ENCODING 1057
SWIDTH 500 0
DWIDTH 6 0
BBX 5 5 0 0
BITMAP
F8
88
80
88
F8
ENDCHAR
STARTCHAR uni0422
ENCODING 1058
SWIDTH 500 0
DWIDTH 6 0
BBX 5 5 0 0
BITMAP
F8
20
20
20
20
ENDCHAR
STARTCHAR uni0423
ENCODING 1059
SWIDTH 500 0
DWIDTH 6 0
BBX 5 5 0 0
BITMAP
88
88
F8
08
F8
ENDCHAR
STARTCHAR uni0424
ENCODING 1060
SWIDTH 500 0
DWIDTH 6 0
BBX 5 5 0 0
BITMAP
20
F8
A8
F8
20
ENDCHAR
STARTCHAR uni0425
ENCODING 1061
SWIDTH 500 0
DWIDTH 6 0
BBX 5 5 0 0
BITMAP
90
90
F8
88
88
ENDCHAR
STARTCHAR uni0426
ENCODING 1062
SWIDTH 500 0
DWIDTH 6 0
BBX 5 6 0 -1
BITMAP
90
90
90
90
F8
08
ENDCHAR
STARTCHAR uni0427
ENCODING 1063
SWIDTH 500 0
DWIDTH 6 0
BBX 5 5 0 0
BITMAP
88
88
98
E8
08
ENDCHAR
STARTCHAR uni0428
ENCODING 1064
SWIDTH 500 0
DWIDTH 6 0
BBX 5 5 0 0
BITMAP
A8
A8
A8
A8
F8
ENDCHAR
STARTCHAR uni0429
ENCODING 1065
SWIDTH 500 0
DWIDTH 6 0
BBX 5 6 0 -1
BITMAP
A8
A8
A8
A8
F8
08
ENDCHAR
STARTCHAR uni042A
ENCODING 1066
SWIDTH 500 0
DWIDTH 6 0
BBX 5 5 0 0
BITMAP
C0
40
78
48
78
ENDCHAR
STARTCHAR uni042B
ENCODING 1067
SWIDTH 500 0
DWIDTH 6 0
BBX 5 5 0 0
BITMAP
88
88
E8
A8
E8
ENDCHAR
STARTCHAR uni042C
ENCODING 1068
SWIDTH 500 0
DWIDTH 6 0
BBX 5 5 0 0
BITMAP
80
80
F8
88
F8
ENDCHAR
STARTCHAR uni042D
ENCODING 1069
SWIDTH 500 0
DWIDTH 6 0
BBX 5 5 0 0
BITMAP
F8
08
78
08
F8
ENDCHAR
STARTCHAR uni042E
ENCODING 1070
SWIDTH 500 0
DWIDTH 6 0
BBX 5 5 0 0
BITMAP
B8
A8
E8
A8
B8
ENDCHAR
STARTCHAR uni042F
ENCODING 1071
SWIDTH 500 0
DWIDTH 6 0
BBX 5 5 0 0
BITMAP
F8
88
F8
48
C8
ENDCHAR
STARTCHAR uni0430
ENCODING 1072
SWIDTH 500 0
DWIDTH 6 0
BBX 5 5 0 0
BITMAP
F8
88
F8
88
88
ENDCHAR
STARTCHAR uni0431
ENCODING 1073
SWIDTH 500 0
DWIDTH 6 0
BBX 5 5 0 0
BITMAP
F8
80
F8
88
F8
ENDCHAR
STARTCHAR uni0432
ENCODING 1074
SWIDTH 500 0
DWIDTH 6 0
BBX 5 5 0 0
BITMAP
F8
88
F0
88
F8
ENDCHAR
STARTCHAR uni0433
ENCODING 1075
SWIDTH 500 0
DWIDTH 6 0
BBX 5 5 0 0
BITMAP
F8
88
80
80
80
ENDCHAR
STARTCHAR uni0434
ENCODING 1076
SWIDTH 500 0
DWIDTH 6 0
BBX 5 5 0 0
BITMAP
70
50
50
F8
88
ENDCHAR
STARTCHAR uni0435
ENCODING 1077
SWIDTH 500 0
DWIDTH 6 0
BBX 5 5 0 0
BITMAP
F8
80
F8
80
F8
ENDCHAR
STARTCHAR uni0436
ENCODING 1078
SWIDTH 500 0
DWIDTH 6 0
BBX 5 5 0 0
BITMAP
A8
A8
70
A8
A8
ENDCHAR
STARTCHAR uni0437
ENCODING 1079
SWIDTH 500 0
DWIDTH 6 0
BBX 5 5 0 0
BITMAP
F8
08
70
08
F8
ENDCHAR
STARTCHAR uni0438
ENCODING 1080
SWIDTH 500 0
DWIDTH 6 0
BBX 5 5 0 0
BITMAP
B8
A8
A8
A8
E8
ENDCHAR
STARTCHAR uni0439
ENCODING 1081
SWIDTH 500 0
DWIDTH 6 0
BBX 5 8 0 0
BITMAP
50
70
00
B8
A8
A8
A8
E8
ENDCHAR
STARTCHAR uni043A
ENCODING 1082
SWIDTH 500 0
DWIDTH 6 0
BBX 5 5 0 0
BITMAP
88
90
E0
90
88
ENDCHAR
STARTCHAR uni043B
ENCODING 1083
SWIDTH 500 0
DWIDTH 6 0
BBX 5 5 0 0
BITMAP
78
48
48
48
C8
ENDCHAR
STARTCHAR uni043C
ENCODING 1084
SWIDTH 500 0
DWIDTH 6 0
BBX 5 5 0 0
BITMAP
F8
A8
A8
A8
A8
ENDCHAR
STARTCHAR uni043D
ENCODING 1085
SWIDTH 500 0
DWIDTH 6 0
BBX 5 5 0 0
BITMAP
88
88
F8
88
88
ENDCHAR
STARTCHAR uni043E
ENCODING 1086
SWIDTH 500 0
DWIDTH 6 0
BBX 5 5 0 0
BITMAP
F8
88
88
88
F8
ENDCHAR
STARTCHAR uni043F
ENCODING 1087
SWIDTH 500 0
DWIDTH 6 0
BBX 5 5 0 0
BITMAP
F8
88
88
88
88
ENDCHAR
STARTCHAR uni0440
ENCODING 1088
SWIDTH 500 0
DWIDTH 6 0
BBX 5 5 0 0
BITMAP
F8
88
F8
80
80
ENDCHAR
STARTCHAR uni0441
ENCODING 1089
SWIDTH 500 0
DWIDTH 6 0
BBX 5 5 0 0
BITMAP
F8
88
80
80
F8
ENDCHAR
STARTCHAR uni0442
ENCODING 1090
SWIDTH 500 0
DWIDTH 6 0
BBX 5 5 0 0
BITMAP
F8
20
20
20
20
ENDCHAR
STARTCHAR uni0443
ENCODING 1091
SWIDTH 500 0
DWIDTH 6 0
BBX 5 5 0 0
BITMAP
88
88
F8
08
F8
ENDCHAR
STARTCHAR uni0444
ENCODING 1092
SWIDTH 500 0
DWIDTH 6 0
BBX 5 5 0 0
BITMAP
20
F8
A8
F8
20
ENDCHAR
STARTCHAR uni0445
ENCODING 1093
SWIDTH 500 0
DWIDTH 6 0
BBX 5 5 0 0
BITMAP
D8
50
20
50
D8
ENDCHAR
STARTCHAR uni0446
ENCODING 1094
SWIDTH 500 0
DWIDTH 6 0
BBX 5 6 0 -1
BITMAP
90
90
90
90
F8
08
ENDCHAR
STARTCHAR uni0447
ENCODING 1095
SWIDTH 500 0
DWIDTH 6 0
BBX 5 5 0 0
BITMAP
88
88
98
E8
08
ENDCHAR
STARTCHAR uni0448
ENCODING 1096
SWIDTH 500 0
DWIDTH 6 0
BBX 5 5 0 0
BITMAP
A8
A8
A8
A8
F8
ENDCHAR
STARTCHAR uni0449
ENCODING 1097
SWIDTH 500 0
DWIDTH 6 0
BBX 5 6 0 -1
BITMAP
A8
A8
A8
A8
F8
08
ENDCHAR
STARTCHAR uni044A
ENCODING 1098
SWIDTH 500 0
DWIDTH 6 0
BBX 5 5 0 0
BITMAP
C0
40
78
48
78
ENDCHAR
STARTCHAR uni044B
ENCODING 1099
SWIDTH 500 0
DWIDTH 6 0
BBX 5 5 0 0
BITMAP
88
88
E8
A8
E8
ENDCHAR
STARTCHAR uni044C
ENCODING 1100
SWIDTH 500 0
DWIDTH 6 0
BBX 5 5 0 0
BITMAP
80
80
F8
88
F8
ENDCHAR
STARTCHAR uni044D
ENCODING 1101
SWIDTH 500 0
DWIDTH 6 0
BBX 5 5 0 0
BITMAP
F8
08
78
08
F8
ENDCHAR
STARTCHAR uni044E
ENCODING 1102
SWIDTH 500 0
DWIDTH 6 0
BBX 5 5 0 0
BITMAP
B8
A8
E8
A8
B8
ENDCHAR
STARTCHAR uni044F
ENCODING 1103
SWIDTH 500 0
DWIDTH 6 0
BBX 5 5 0 0
BITMAP
F8
88
F8
48
C8
ENDCHAR
STARTCHAR uni0450
ENCODING 1104
SWIDTH 500 0
DWIDTH 6 0
BBX 5 8 0 0
BITMAP
40
20
00
F8
80
F8
80
F8
ENDCHAR
STARTCHAR uni0451
ENCODING 1105
SWIDTH 500 0
DWIDTH 6 0
BBX 5 7 0 0
BITMAP
50
00
F8
80
F8
80
F8
ENDCHAR
STARTCHAR uni0452
ENCODING 1106
SWIDTH 500 0
DWIDTH 6 0
BBX 5 5 0 0
BITMAP
E0
40
78
48
58
ENDCHAR
STARTCHAR uni0453
ENCODING 1107
SWIDTH 500 0
DWIDTH 6 0
BBX 5 8 0 0
BITMAP
10
20
00
F8
80
80
80
80
ENDCHAR
STARTCHAR uni0454
ENCODING 1108
SWIDTH 500 0
DWIDTH 6 0
BBX 5 5 0 0
BITMAP
78
80
F8
80
78
ENDCHAR
STARTCHAR uni0455
ENCODING 1109
SWIDTH 500 0
DWIDTH 6 0
BBX 5 5 0 0
BITMAP
F8
80
F8
08
F8
ENDCHAR
STARTCHAR uni0456
ENCODING 1110
SWIDTH 500 0
DWIDTH 6 0
BBX 5 5 0 0
BITMAP
F8
20
20
20
F8
ENDCHAR
STARTCHAR uni0457
ENCODING 1111
SWIDTH 500 0
DWIDTH 6 0
BBX 5 7 0 0
BITMAP
50
00
F8
20
20
20
F8
ENDCHAR
STARTCHAR uni0458
ENCODING 1112
SWIDTH 500 0
DWIDTH 6 0
BBX 5 5 0 0
BITMAP
F8
20
20
20
E0
ENDCHAR
STARTCHAR uni0459
ENCODING 1113
SWIDTH 500 0
DWIDTH 6 0
BBX 5 5 0 0
BITMAP
60
A0
B8
A8
B8
ENDCHAR
STARTCHAR uni045A
ENCODING 1114
SWIDTH 500 0
DWIDTH 6 0
BBX 5 5 0 0
BITMAP
A0
A0
F8
A8
B8
ENDCHAR
STARTCHAR uni045B
ENCODING 1115
SWIDTH 500 0
DWIDTH 6 0
BBX 5 5 0 0
BITMAP
E0
40
78
48
48
ENDCHAR
STARTCHAR uni045C
ENCODING 1116
SWIDTH 500 0
DWIDTH 6 0
BBX 5 8 0 0
BITMAP
10
20
00
88
90
E0
90
88
ENDCHAR
STARTCHAR uni045D
ENCODING 1117
SWIDTH 500 0
DWIDTH 6 0
BBX 5 8 0 0
BITMAP
40
20
00
B8
A8
A8
A8
E8
ENDCHAR
STARTCHAR uni045E
ENCODING 1118
SWIDTH 500 0
DWIDTH 6 0
BBX 5 8 0 0
BITMAP
50
70
00
88
88
F8
08
F8
ENDCHAR
STARTCHAR uni045F
ENCODING 1119
SWIDTH 500 0
DWIDTH 6 0
BBX 5 6 0 -1
BITMAP
88
88
88
88
F8
20
ENDCHAR
STARTCHAR uni0460
ENCODING 1120
SWIDTH 500 0
DWIDTH 6 0
BBX 5 5 0 0
BITMAP
A8
A8
A8
A8
50
ENDCHAR
STARTCHAR uni0461
ENCODING 1121
SWIDTH 500 0
DWIDTH 6 0
BBX 5 5 0 0
BITMAP
A8
A8
A8
A8
50
ENDCHAR
STARTCHAR uni0462
ENCODING 1122
SWIDTH 500 0
DWIDTH 6 0
BBX 5 5 0 0
BITMAP
E0
40
78
48
78
ENDCHAR
STARTCHAR uni0463
ENCODING 1123
SWIDTH 500 0
DWIDTH 6 0
BBX 5 5 0 0
BITMAP
E0
40
78
48
78
ENDCHAR
STARTCHAR uni0464
ENCODING 1124
SWIDTH 500 0
DWIDTH 6 0
BBX 5 5 0 0
BITMAP
B8
A0
F8
A0
B8
ENDCHAR
STARTCHAR uni0465
ENCODING 1125
SWIDTH 500 0
DWIDTH 6 0
BBX 5 5 0 0
BITMAP
B8
A0
F8
A0
B8
ENDCHAR
STARTCHAR uni0490
ENCODING 1168
SWIDTH 500 0
DWIDTH 6 0
BBX 5 6 0 0
BITMAP
08
F8
80
80
80
80
ENDCHAR
STARTCHAR uni0491
ENCODING 1169
SWIDTH 500 0
DWIDTH 6 0
BBX 5 6 0 0
BITMAP
08
F8
80
80
80
80
ENDCHAR
STARTCHAR uni05BE
ENCODING 1470
SWIDTH 500 0
DWIDTH 6 0
BBX 5 1 0 4
BITMAP
F8
ENDCHAR
STARTCHAR uni05C0
ENCODING 1472
SWIDTH 500 0
DWIDTH 6 0
BBX 1 7 2 -1
BITMAP
80
80
80
80
80
80
80
ENDCHAR
STARTCHAR uni05C3
ENCODING 1475
SWIDTH 500 0
DWIDTH 6 0
BBX 1 3 2 1
BITMAP
80
00
80
ENDCHAR
STARTCHAR uni05C6
ENCODING 1478
SWIDTH 500 0
DWIDTH 6 0
BBX 3 5 1 0
BITMAP
60
C0
80
80
E0
ENDCHAR
STARTCHAR uni05D0
ENCODING 1488
SWIDTH 500 0
DWIDTH 6 0
BBX 5 5 0 0
BITMAP
88
78
20
F0
88
ENDCHAR
STARTCHAR uni05D1
ENCODING 1489
SWIDTH 500 0
DWIDTH 6 0
BBX 5 5 0 0
BITMAP
F0
10
10
10
F8
ENDCHAR
STARTCHAR uni05D2
ENCODING 1490
SWIDTH 500 0
DWIDTH 6 0
BBX 4 5 0 0
BITMAP
E0
20
20
20
D0
ENDCHAR
STARTCHAR uni05D3
ENCODING 1491
SWIDTH 500 0
DWIDTH 6 0
BBX 5 5 0 0
BITMAP
F8
10
10
10
10
ENDCHAR
STARTCHAR uni05D4
ENCODING 1492
SWIDTH 500 0
DWIDTH 6 0
BBX 5 5 0 0
BITMAP
F8
08
88
88
88
ENDCHAR
STARTCHAR uni05D5
ENCODING 1493
SWIDTH 500 0
DWIDTH 6 0
BBX 1 5 2 0
BITMAP
80
80
80
80
80
ENDCHAR
STARTCHAR uni05D6
ENCODING 1494
SWIDTH 500 0
DWIDTH 6 0
BBX 3 5 1 0
BITMAP
E0
20
40
40
40
ENDCHAR
STARTCHAR uni05D7
ENCODING 1495
SWIDTH 500 0
DWIDTH 6 0
BBX 5 5 0 0
BITMAP
F0
88
88
88
88
ENDCHAR
STARTCHAR uni05D8
ENCODING 1496
SWIDTH 500 0
DWIDTH 6 0
BBX 5 5 0 0
BITMAP
B8
88
88
88
F8
ENDCHAR
STARTCHAR uni05D9
ENCODING 1497
SWIDTH 500 0
DWIDTH 6 0
BBX 1 3 2 2
BITMAP
80
80
80
ENDCHAR
STARTCHAR uni05DA
ENCODING 1498
SWIDTH 500 0
DWIDTH 6 0
BBX 5 6 0 -1
BITMAP
F8
08
08
08
08
08
ENDCHAR
STARTCHAR uni05DB
ENCODING 1499
SWIDTH 500 0
DWIDTH 6 0
BBX 5 5 0 0
BITMAP
F8
08
08
08
F8
ENDCHAR
STARTCHAR uni05DC
ENCODING 1500
SWIDTH 500 0
DWIDTH 6 0
BBX 5 5 0 0
BITMAP
80
F8
08
10
20
ENDCHAR
STARTCHAR uni05DD
ENCODING 1501
SWIDTH 500 0
DWIDTH 6 0
BBX 5 5 0 0
BITMAP
F0
98
88
88
F8
ENDCHAR
STARTCHAR uni05DE
ENCODING 1502
SWIDTH 500 0
DWIDTH 6 0
BBX 5 5 0 0
BITMAP
B8
C8
88
88
B8
ENDCHAR
STARTCHAR uni05DF
ENCODING 1503
SWIDTH 500 0
DWIDTH 6 0
BBX 3 6 1 -1
BITMAP
C0
60
20
20
20
20
ENDCHAR
STARTCHAR uni05E0
ENCODING 1504
SWIDTH 500 0
DWIDTH 6 0
BBX 3 5 1 0
BITMAP
C0
60
20
20
E0
ENDCHAR
STARTCHAR uni05E1
ENCODING 1505
SWIDTH 500 0
DWIDTH 6 0
BBX 5 5 0 0
BITMAP
F0
48
88
88
F8
ENDCHAR
STARTCHAR uni05E2
ENCODING 1506
SWIDTH 500 0
DWIDTH 6 0
BBX 5 5 0 0
BITMAP
88
88
48
58
F0
ENDCHAR
STARTCHAR uni05E3
ENCODING 1507
SWIDTH 500 0
DWIDTH 6 0
BBX 5 6 0 -1
BITMAP
F0
88
E8
08
08
08
ENDCHAR
STARTCHAR uni05E4
ENCODING 1508
SWIDTH 500 0
DWIDTH 6 0
BBX 5 5 0 0
BITMAP
F0
88
E8
08
F0
ENDCHAR
STARTCHAR uni05E5
ENCODING 1509
SWIDTH 500 0
DWIDTH 6 0
BBX 5 6 0 -1
BITMAP
88
88
48
70
20
20
ENDCHAR
STARTCHAR uni05E6
ENCODING 1510
SWIDTH 500 0
DWIDTH 6 0
BBX 5 5 0 0
BITMAP
88
48
38
10
F8
ENDCHAR
STARTCHAR uni05E7
ENCODING 1511
SWIDTH 500 0
DWIDTH 6 0
BBX 5 6 0 -1
BITMAP
F8
08
98
B0
80
80
ENDCHAR
STARTCHAR uni05E8
ENCODING 1512
SWIDTH 500 0
DWIDTH 6 0
BBX 5 5 0 0
BITMAP
F8
08
08
08
08
ENDCHAR
STARTCHAR uni05E9
ENCODING 1513
SWIDTH 500 0
DWIDTH 6 0
BBX 5 5 0 0
BITMAP
A8
A8
E8
88
F0
ENDCHAR
STARTCHAR uni05EA
ENCODING 1514
SWIDTH 500 0
DWIDTH 6 0
BBX 5 5 0 0
BITMAP
F0
48
48
48
C8
ENDCHAR
STARTCHAR uni05F0
ENCODING 1520
SWIDTH 500 0
DWIDTH 6 0
BBX 3 5 1 0
BITMAP
A0
A0
A0
A0
A0
ENDCHAR
STARTCHAR uni05F1
ENCODING 1521
SWIDTH 500 0
DWIDTH 6 0
BBX 3 5 1 0
BITMAP
A0
A0
A0
20
20
ENDCHAR
STARTCHAR uni05F2
ENCODING 1522
SWIDTH 500 0
DWIDTH 6 0
BBX 3 3 1 2
BITMAP
A0
A0
A0
ENDCHAR
STARTCHAR uni05F3
ENCODING 1523
SWIDTH 500 0
DWIDTH 6 0
BBX 2 3 1 2
BITMAP
40
40
80
ENDCHAR
STARTCHAR uni1E9E
ENCODING 7838
SWIDTH 500 0
DWIDTH 6 0
BBX 5 5 0 0
BITMAP
F0
90
B8
88
B8
ENDCHAR
STARTCHAR uni2000
ENCODING 8192
SWIDTH 500 0
DWIDTH 6 0
BBX 1 1 0 0
BITMAP
00
ENDCHAR
STARTCHAR uni2001
ENCODING 8193
SWIDTH 500 0
DWIDTH 6 0
BBX 1 1 0 0
BITMAP
00
ENDCHAR
STARTCHAR uni2002
ENCODING 8194
SWIDTH 500 0
DWIDTH 6 0
BBX 1 1 0 0
BITMAP
00
ENDCHAR
STARTCHAR uni2003
ENCODING 8195
SWIDTH 500 0
DWIDTH 6 0
BBX 1 1 0 0
BITMAP
00
ENDCHAR
STARTCHAR uni2004
ENCODING 8196
SWIDTH 500 0
DWIDTH 6 0
BBX 1 1 0 0
BITMAP
00
ENDCHAR
STARTCHAR uni2005
ENCODING 8197
SWIDTH 500 0
DWIDTH 6 0
BBX 1 1 0 0
BITMAP
00
ENDCHAR
STARTCHAR uni2006
ENCODING 8198
SWIDTH 500 0
DWIDTH 6 0
BBX 1 1 0 0
BITMAP
00
ENDCHAR
STARTCHAR uni2007
ENCODING 8199
SWIDTH 500 0
DWIDTH 6 0
BBX 1 1 0 0
BITMAP
00
ENDCHAR
STARTCHAR uni2008
ENCODING 8200
SWIDTH 500 0
DWIDTH 6 0
BBX 1 1 0 0
BITMAP
00
ENDCHAR
STARTCHAR uni2009
ENCODING 8201
SWIDTH 500 0
DWIDTH 6 0
BBX 1 1 0 0
BITMAP
00
ENDCHAR
STARTCHAR uni200A
ENCODING 8202
SWIDTH 500 0
DWIDTH 6 0
BBX 1 1 0 0
BITMAP
00
ENDCHAR
STARTCHAR emdash
ENCODING 8212
SWIDTH 500 0
DWIDTH 6 0
BBX 5 1 0 2
BITMAP
F8
ENDCHAR
STARTCHAR dagger
ENCODING 8224
SWIDTH 500 0
DWIDTH 6 0
BBX 3 5 1 0
BITMAP
40
E0
40
40
40
ENDCHAR
STARTCHAR daggerdbl
ENCODING 8225
SWIDTH 500 0
DWIDTH 6 0
BBX 3 5 1 0
BITMAP
40
E0
40
E0
40
ENDCHAR
STARTCHAR bullet
ENCODING 8226
SWIDTH 500 0
DWIDTH 6 0
BBX 3 3 1 1
BITMAP
E0
E0
E0
ENDCHAR
STARTCHAR ellipsis
ENCODING 8230
SWIDTH 500 0
DWIDTH 6 0
BBX 5 1 0 0
BITMAP
A8
ENDCHAR
STARTCHAR guilsinglleft
ENCODING 8249
SWIDTH 500 0
DWIDTH 6 0
BBX 2 3 2 1
BITMAP
40
80
40
ENDCHAR
STARTCHAR guilsinglright
ENCODING 8250
SWIDTH 500 0
DWIDTH 6 0
BBX 2 3 1 1
BITMAP
80
40
80
ENDCHAR
STARTCHAR exclamdbl
ENCODING 8252
SWIDTH 500 0
DWIDTH 6 0
BBX 3 5 1 0
BITMAP
A0
A0
A0
00
A0
ENDCHAR
STARTCHAR uni203D
ENCODING 8253
SWIDTH 500 0
DWIDTH 6 0
BBX 5 5 0 0
BITMAP
F8
A8
38
00
20
ENDCHAR
STARTCHAR uni2070
ENCODING 8304
SWIDTH 500 0
DWIDTH 6 0
BBX 3 4 1 1
BITMAP
E0
A0
A0
E0
ENDCHAR
STARTCHAR uni2071
ENCODING 8305
SWIDTH 500 0
DWIDTH 6 0
BBX 2 4 1 1
BITMAP
40
00
C0
40
ENDCHAR
STARTCHAR uni2074
ENCODING 8308
SWIDTH 500 0
DWIDTH 6 0
BBX 3 4 1 1
BITMAP
A0
A0
E0
20
ENDCHAR
STARTCHAR uni2075
ENCODING 8309
SWIDTH 500 0
DWIDTH 6 0
BBX 3 4 1 1
BITMAP
E0
80
60
E0
ENDCHAR
STARTCHAR uni2076
ENCODING 8310
SWIDTH 500 0
DWIDTH 6 0
BBX 3 4 1 1
BITMAP
E0
80
E0
E0
ENDCHAR
STARTCHAR uni2077
ENCODING 8311
SWIDTH 500 0
DWIDTH 6 0
BBX 3 4 1 1
BITMAP
E0
20
20
20
ENDCHAR
STARTCHAR uni2078
ENCODING 8312
SWIDTH 500 0
DWIDTH 6 0
BBX 3 4 1 1
BITMAP
E0
E0
A0
E0
ENDCHAR
STARTCHAR uni2079
ENCODING 8313
SWIDTH 500 0
DWIDTH 6 0
BBX 3 4 1 1
BITMAP
E0
E0
20
E0
ENDCHAR
STARTCHAR uni2080
ENCODING 8320
SWIDTH 500 0
DWIDTH 6 0
BBX 3 4 1 -1
BITMAP
E0
A0
A0
E0
ENDCHAR
STARTCHAR uni2081
ENCODING 8321
SWIDTH 500 0
DWIDTH 6 0
BBX 3 4 1 -1
BITMAP
C0
40
40
E0
ENDCHAR
STARTCHAR uni2082
ENCODING 8322
SWIDTH 500 0
DWIDTH 6 0
BBX 3 4 1 -1
BITMAP
E0
20
C0
E0
ENDCHAR
STARTCHAR uni2083
ENCODING 8323
SWIDTH 500 0
DWIDTH 6 0
BBX 3 4 1 -1
BITMAP
E0
60
20
E0
ENDCHAR
STARTCHAR uni2084
ENCODING 8324
SWIDTH 500 0
DWIDTH 6 0
BBX 3 4 1 -1
BITMAP
A0
A0
E0
20
ENDCHAR
STARTCHAR uni2085
ENCODING 8325
SWIDTH 500 0
DWIDTH 6 0
BBX 3 4 1 -1
BITMAP
E0
80
60
E0
ENDCHAR
STARTCHAR uni2086
ENCODING 8326
SWIDTH 500 0
DWIDTH 6 0
BBX 3 4 1 -1
BITMAP
E0
80
E0
E0
ENDCHAR
STARTCHAR uni2087
ENCODING 8327
SWIDTH 500 0
DWIDTH 6 0
BBX 3 4 1 -1
BITMAP
E0
20
20
20
ENDCHAR
STARTCHAR uni2088
ENCODING 8328
SWIDTH 500 0
DWIDTH 6 0
BBX 3 4 1 -1
BITMAP
E0
E0
A0
E0
ENDCHAR
STARTCHAR uni2089
ENCODING 8329
SWIDTH 500 0
DWIDTH 6 0
BBX 3 4 1 -1
BITMAP
E0
E0
20
E0
ENDCHAR
STARTCHAR colonmonetary
ENCODING 8353
SWIDTH 500 0
DWIDTH 6 0
BBX 5 7 0 -1
BITMAP
28
F8
A8
A8
A8
F8
28
ENDCHAR
STARTCHAR franc
ENCODING 8355
SWIDTH 500 0
DWIDTH 6 0
BBX 5 5 0 0
BITMAP
78
40
70
40
E0
ENDCHAR
STARTCHAR lira
ENCODING 8356
SWIDTH 500 0
DWIDTH 6 0
BBX 5 6 0 -1
BITMAP
78
E0
40
E0
40
F8
ENDCHAR
STARTCHAR uni20A6
ENCODING 8358
SWIDTH 500 0
DWIDTH 6 0
BBX 5 5 0 0
BITMAP
60
D8
50
D8
50
ENDCHAR
STARTCHAR uni20A9
ENCODING 8361
SWIDTH 500 0
DWIDTH 6 0
BBX 5 5 0 0
BITMAP
A8
A8
F8
A8
D8
ENDCHAR
STARTCHAR uni20AA
ENCODING 8362
SWIDTH 500 0
DWIDTH 6 0
BBX 5 5 0 0
BITMAP
E8
A8
88
A8
B8
ENDCHAR
STARTCHAR dong
ENCODING 8363
SWIDTH 500 0
DWIDTH 6 0
BBX 5 8 0 -2
BITMAP
10
78
10
F0
90
F0
00
F8
ENDCHAR
STARTCHAR Euro
ENCODING 8364
SWIDTH 500 0
DWIDTH 6 0
BBX 6 5 -1 0
BITMAP
7C
44
F0
44
7C
ENDCHAR
STARTCHAR uni20AD
ENCODING 8365
SWIDTH 500 0
DWIDTH 6 0
BBX 5 5 0 0
BITMAP
48
50
F8
50
48
ENDCHAR
STARTCHAR uni20AE
ENCODING 8366
SWIDTH 500 0
DWIDTH 6 0
BBX 5 5 0 0
BITMAP
F8
30
60
30
60
ENDCHAR
STARTCHAR uni20B0
ENCODING 8368
SWIDTH 500 0
DWIDTH 6 0
BBX 5 6 0 -1
BITMAP
38
28
68
B0
08
78
ENDCHAR
STARTCHAR uni20B1
ENCODING 8369
SWIDTH 500 0
DWIDTH 6 0
BBX 5 5 0 0
BITMAP
78
C8
48
F8
40
ENDCHAR
STARTCHAR uni20B2
ENCODING 8370
SWIDTH 500 0
DWIDTH 6 0
BBX 5 7 0 -1
BITMAP
20
F8
A0
B8
A8
F8
20
ENDCHAR
STARTCHAR uni20B3
ENCODING 8371
SWIDTH 500 0
DWIDTH 6 0
BBX 5 5 0 0
BITMAP
20
F8
50
F8
88
ENDCHAR
STARTCHAR uni20B4
ENCODING 8372
SWIDTH 500 0
DWIDTH 6 0
BBX 5 5 0 0
BITMAP
70
10
F8
40
70
ENDCHAR
STARTCHAR uni20B5
ENCODING 8373
SWIDTH 500 0
DWIDTH 6 0
BBX 5 7 0 -1
BITMAP
20
F8
A8
A0
A8
F8
20
ENDCHAR
STARTCHAR uni20B8
ENCODING 8376
SWIDTH 500 0
DWIDTH 6 0
BBX 5 5 0 0
BITMAP
F8
00
F8
20
20
ENDCHAR
STARTCHAR uni20B9
ENCODING 8377
SWIDTH 500 0
DWIDTH 6 0
BBX 5 5 0 0
BITMAP
F8
10
F8
10
18
ENDCHAR
STARTCHAR uni20BA
ENCODING 8378
SWIDTH 500 0
DWIDTH 6 0
BBX 5 5 0 0
BITMAP
60
C0
68
C8
78
ENDCHAR
STARTCHAR uni20BD
ENCODING 8381
SWIDTH 500 0
DWIDTH 6 0
BBX 5 6 0 -1
BITMAP
78
48
F8
40
E0
40
ENDCHAR
STARTCHAR uni20C0
ENCODING 8384
SWIDTH 500 0
DWIDTH 6 0
BBX 5 5 0 0
BITMAP
F8
80
F8
00
F8
ENDCHAR
STARTCHAR uni2117
ENCODING 8471
SWIDTH 500 0
DWIDTH 6 0
BBX 5 5 0 0
BITMAP
F8
88
88
B8
F8
ENDCHAR
STARTCHAR prescription
ENCODING 8478
SWIDTH 500 0
DWIDTH 6 0
BBX 5 6 0 -1
BITMAP
F8
88
F8
A0
90
28
ENDCHAR
STARTCHAR uni2120
ENCODING 8480
SWIDTH 500 0
DWIDTH 6 0
BBX 5 3 0 2
BITMAP
60
D8
18
ENDCHAR
STARTCHAR trademark
ENCODING 8482
SWIDTH 500 0
DWIDTH 6 0
BBX 5 3 0 2
BITMAP
E0
58
18
ENDCHAR
STARTCHAR aleph
ENCODING 8501
SWIDTH 500 0
DWIDTH 6 0
BBX 5 5 0 0
BITMAP
88
78
20
F0
88
ENDCHAR
STARTCHAR uni2136
ENCODING 8502
SWIDTH 500 0
DWIDTH 6 0
BBX 5 5 0 0
BITMAP
F0
10
10
10
F8
ENDCHAR
STARTCHAR uni2137
ENCODING 8503
SWIDTH 500 0
DWIDTH 6 0
BBX 4 5 0 0
BITMAP
E0
20
20
20
D0
ENDCHAR
STARTCHAR uni2138
ENCODING 8504
SWIDTH 500 0
DWIDTH 6 0
BBX 5 5 0 0
BITMAP
F8
10
10
10
10
ENDCHAR
STARTCHAR arrowleft
ENCODING 8592
SWIDTH 500 0
DWIDTH 6 0
BBX 5 5 0 0
BITMAP
20
40
F8
40
20
ENDCHAR
STARTCHAR arrowup
ENCODING 8593
SWIDTH 500 0
DWIDTH 6 0
BBX 5 5 0 0
BITMAP
20
70
A8
20
20
ENDCHAR
STARTCHAR arrowright
ENCODING 8594
SWIDTH 500 0
DWIDTH 6 0
BBX 5 5 0 0
BITMAP
20
10
F8
10
20
ENDCHAR
STARTCHAR arrowdown
ENCODING 8595
SWIDTH 500 0
DWIDTH 6 0
BBX 5 5 0 0
BITMAP
20
20
A8
70
20
ENDCHAR
STARTCHAR arrowboth
ENCODING 8596
SWIDTH 500 0
DWIDTH 6 0
BBX 5 3 0 1
BITMAP
50
F8
50
ENDCHAR
STARTCHAR arrowupdn
ENCODING 8597
SWIDTH 500 0
DWIDTH 6 0
BBX 3 5 1 0
BITMAP
40
E0
40
E0
40
ENDCHAR
STARTCHAR uni2197
ENCODING 8599
SWIDTH 500 0
DWIDTH 6 0
BBX 5 5 0 0
BITMAP
78
18
28
48
80
ENDCHAR
STARTCHAR uni2198
ENCODING 8600
SWIDTH 500 0
DWIDTH 6 0
BBX 5 5 0 0
BITMAP
80
48
28
18
78
ENDCHAR
STARTCHAR partialdiff
ENCODING 8706
SWIDTH 500 0
DWIDTH 6 0
BBX 5 5 0 0
BITMAP
70
08
78
88
70
ENDCHAR
STARTCHAR element
ENCODING 8712
SWIDTH 500 0
DWIDTH 6 0
BBX 5 5 0 0
BITMAP
78
80
F8
80
78
ENDCHAR
STARTCHAR notelement
ENCODING 8713
SWIDTH 500 0
DWIDTH 6 0
BBX 5 7 0 -1
BITMAP
10
78
90
F8
A0
78
20
ENDCHAR
STARTCHAR suchthat
ENCODING 8715
SWIDTH 500 0
DWIDTH 6 0
BBX 5 5 0 0
BITMAP
F0
08
F8
08
F0
ENDCHAR
STARTCHAR uni220C
ENCODING 8716
SWIDTH 500 0
DWIDTH 6 0
BBX 5 7 0 -1
BITMAP
20
F0
28
F8
48
F0
40
ENDCHAR
STARTCHAR radical
ENCODING 8730
SWIDTH 500 0
DWIDTH 6 0
BBX 5 5 0 0
BITMAP
18
10
20
A0
40
ENDCHAR
STARTCHAR infinity
ENCODING 8734
SWIDTH 500 0
DWIDTH 6 0
BBX 5 3 0 1
BITMAP
D8
A8
D8
ENDCHAR
STARTCHAR orthogonal
ENCODING 8735
SWIDTH 500 0
DWIDTH 6 0
BBX 5 5 0 0
BITMAP
80
80
E0
A0
F8
ENDCHAR
STARTCHAR angle
ENCODING 8736
SWIDTH 500 0
DWIDTH 6 0
BBX 5 5 0 0
BITMAP
08
10
20
40
F8
ENDCHAR
STARTCHAR therefore
ENCODING 8756
SWIDTH 500 0
DWIDTH 6 0
BBX 5 5 0 0
BITMAP
20
00
00
00
88
ENDCHAR
STARTCHAR uni2235
ENCODING 8757
SWIDTH 500 0
DWIDTH 6 0
BBX 5 5 0 0
BITMAP
88
00
00
00
20
ENDCHAR
STARTCHAR approxequal
ENCODING 8776
SWIDTH 500 0
DWIDTH 6 0
BBX 5 5 0 0
BITMAP
E8
B8
00
E8
B8
ENDCHAR
STARTCHAR notequal
ENCODING 8800
SWIDTH 500 0
DWIDTH 6 0
BBX 5 5 0 0
BITMAP
10
F8
20
F8
40
ENDCHAR
STARTCHAR equivalence
ENCODING 8801
SWIDTH 500 0
DWIDTH 6 0
BBX 5 5 0 0
BITMAP
F8
00
F8
00
F8
ENDCHAR
STARTCHAR lessequal
ENCODING 8804
SWIDTH 500 0
DWIDTH 6 0
BBX 5 7 0 -1
BITMAP
10
20
40
20
10
00
F8
ENDCHAR
STARTCHAR greaterequal
ENCODING 8805
SWIDTH 500 0
DWIDTH 6 0
BBX 5 7 0 -1
BITMAP
40
20
10
20
40
00
F8
ENDCHAR
STARTCHAR house
ENCODING 8962
SWIDTH 500 0
DWIDTH 6 0
BBX 5 5 0 0
BITMAP
20
50
88
88
F8
ENDCHAR
STARTCHAR upblock
ENCODING 9600
SWIDTH 500 0
DWIDTH 6 0
BBX 6 6 0 2
BITMAP
FC
FC
FC
FC
FC
FC
ENDCHAR
STARTCHAR dnblock
ENCODING 9604
SWIDTH 500 0
DWIDTH 6 0
BBX 6 6 0 -3
BITMAP
FC
FC
FC
FC
FC
FC
ENDCHAR
STARTCHAR block
ENCODING 9608
SWIDTH 500 0
DWIDTH 6 0
BBX 6 11 0 -3
BITMAP
FC
FC
FC
FC
FC
FC
FC
FC
FC
FC
FC
ENDCHAR
STARTCHAR lfblock
ENCODING 9612
SWIDTH 500 0
DWIDTH 6 0
BBX 3 11 0 -3
BITMAP
E0
E0
E0
E0
E0
E0
E0
E0
E0
E0
E0
ENDCHAR
STARTCHAR rtblock
ENCODING 9616
SWIDTH 500 0
DWIDTH 6 0
BBX 3 11 3 -3
BITMAP
E0
E0
E0
E0
E0
E0
E0
E0
E0
E0
E0
ENDCHAR
STARTCHAR ltshade
ENCODING 9617
SWIDTH 500 0
DWIDTH 6 0
BBX 5 9 0 -1
BITMAP
A8
00
A8
00
A8
00
A8
00
A8
ENDCHAR
STARTCHAR shade
ENCODING 9618
SWIDTH 500 0
DWIDTH 6 0
BBX 6 11 0 -3
BITMAP
A8
54
A8
54
A8
54
A8
54
A8
54
A8
ENDCHAR
STARTCHAR dkshade
ENCODING 9619
SWIDTH 500 0
DWIDTH 6 0
BBX 6 11 0 -3
BITMAP
FC
A8
FC
A8
FC
A8
FC
A8
FC
A8
FC
ENDCHAR
STARTCHAR triagup
ENCODING 9650
SWIDTH 500 0
DWIDTH 6 0
BBX 5 5 0 0
BITMAP
20
70
70
F8
F8
ENDCHAR
STARTCHAR uni25B3
ENCODING 9651
SWIDTH 500 0
DWIDTH 6 0
BBX 5 5 0 0
BITMAP
20
50
50
88
F8
ENDCHAR
STARTCHAR uni25B6
ENCODING 9654
SWIDTH 500 0
DWIDTH 6 0
BBX 5 5 0 0
BITMAP
C0
F0
F8
F0
C0
ENDCHAR
STARTCHAR uni25B7
ENCODING 9655
SWIDTH 500 0
DWIDTH 6 0
BBX 5 5 0 0
BITMAP
C0
B0
88
B0
C0
ENDCHAR
STARTCHAR triagrt
ENCODING 9658
SWIDTH 500 0
DWIDTH 6 0
BBX 5 5 0 0
BITMAP
80
E0
F8
E0
80
ENDCHAR
STARTCHAR triagdn
ENCODING 9660
SWIDTH 500 0
DWIDTH 6 0
BBX 5 5 0 0
BITMAP
F8
F8
70
70
20
ENDCHAR
STARTCHAR uni25BD
ENCODING 9661
SWIDTH 500 0
DWIDTH 6 0
BBX 5 5 0 0
BITMAP
F8
88
50
50
20
ENDCHAR
STARTCHAR uni25C0
ENCODING 9664
SWIDTH 500 0
DWIDTH 6 0
BBX 5 5 0 0
BITMAP
18
78
F8
78
18
ENDCHAR
STARTCHAR uni25C1
ENCODING 9665
SWIDTH 500 0
DWIDTH 6 0
BBX 5 5 0 0
BITMAP
18
68
88
68
18
ENDCHAR
STARTCHAR triaglf
ENCODING 9668
SWIDTH 500 0
DWIDTH 6 0
BBX 5 5 0 0
BITMAP
08
38
F8
38
08
ENDCHAR
STARTCHAR uni25C6
ENCODING 9670
SWIDTH 500 0
DWIDTH 6 0
BBX 5 5 0 0
BITMAP
20
70
F8
70
20
ENDCHAR
STARTCHAR circle
ENCODING 9675
SWIDTH 500 0
DWIDTH 6 0
BBX 5 5 0 0
BITMAP
70
88
88
88
70
ENDCHAR
STARTCHAR invbullet
ENCODING 9688
SWIDTH 500 0
DWIDTH 6 0
BBX 6 11 0 -3
BITMAP
FC
FC
FC
FC
8C
8C
8C
FC
FC
FC
FC
ENDCHAR
STARTCHAR invcircle
ENCODING 9689
SWIDTH 500 0
DWIDTH 6 0
BBX 6 11 0 -3
BITMAP
FC
FC
FC
8C
74
74
74
8C
FC
FC
FC
ENDCHAR
STARTCHAR smileface
ENCODING 9786
SWIDTH 500 0
DWIDTH 6 0
BBX 3 3 1 1
BITMAP
A0
00
E0
ENDCHAR
STARTCHAR invsmileface
ENCODING 9787
SWIDTH 500 0
DWIDTH 6 0
BBX 5 5 0 0
BITMAP
F8
A8
F8
88
F8
ENDCHAR
STARTCHAR sun
ENCODING 9788
SWIDTH 500 0
DWIDTH 6 0
BBX 5 5 0 0
BITMAP
A8
70
D8
70
A8
ENDCHAR
STARTCHAR female
ENCODING 9792
SWIDTH 500 0
DWIDTH 6 0
BBX 5 6 0 -1
BITMAP
70
50
70
20
F8
20
ENDCHAR
STARTCHAR male
ENCODING 9794
SWIDTH 500 0
DWIDTH 6 0
BBX 5 5 0 0
BITMAP
78
18
E8
A8
E0
ENDCHAR
STARTCHAR spade
ENCODING 9824
SWIDTH 500 0
DWIDTH 6 0
BBX 5 5 0 0
BITMAP
20
70
F8
20
70
ENDCHAR
STARTCHAR club
ENCODING 9827
SWIDTH 500 0
DWIDTH 6 0
BBX 5 5 0 0
BITMAP
70
70
F8
F8
20
ENDCHAR
STARTCHAR heart
ENCODING 9829
SWIDTH 500 0
DWIDTH 6 0
BBX 5 5 0 0
BITMAP
D8
F8
F8
70
20
ENDCHAR
STARTCHAR diamond
ENCODING 9830
SWIDTH 500 0
DWIDTH 6 0
BBX 5 5 0 0
BITMAP
20
70
F8
70
20
ENDCHAR
STARTCHAR uni2669
ENCODING 9833
SWIDTH 500 0
DWIDTH 6 0
BBX 3 5 1 0
BITMAP
60
40
40
C0
C0
ENDCHAR
STARTCHAR musicalnote
ENCODING 9834
SWIDTH 500 0
DWIDTH 6 0
BBX 5 5 0 0
BITMAP
38
28
28
E0
E0
ENDCHAR
STARTCHAR musicalnotedbl
ENCODING 9835
SWIDTH 500 0
DWIDTH 6 0
BBX 5 5 0 0
BITMAP
78
48
48
D8
D8
ENDCHAR
STARTCHAR uni266C
ENCODING 9836
SWIDTH 500 0
DWIDTH 6 0
BBX 5 8 0 -1
BITMAP
18
68
58
68
48
58
D8
C0
ENDCHAR
STARTCHAR uni2713
ENCODING 10003
SWIDTH 500 0
DWIDTH 6 0
BBX 5 4 0 1
BITMAP
08
10
A0
40
ENDCHAR
STARTCHAR uni27E9
ENCODING 10217
SWIDTH 500 0
DWIDTH 6 0
BBX 3 7 1 -1
BITMAP
20
20
40
80
40
20
20
ENDCHAR
STARTCHAR uni27EA
ENCODING 10218
SWIDTH 500 0
DWIDTH 6 0
BBX 3 7 1 -1
BITMAP
80
80
40
20
40
80
80
ENDCHAR
STARTCHAR uni2E18
ENCODING 11800
SWIDTH 500 0
DWIDTH 6 0
BBX 5 5 0 -1
BITMAP
20
00
E0
A8
F8
ENDCHAR
STARTCHAR uniFFFD
ENCODING 65533
SWIDTH 500 0
DWIDTH 6 0
BBX 5 7 0 -1
BITMAP
F8
88
E8
C8
F8
D8
F8
ENDCHAR
STARTCHAR .notdef
ENCODING -1
SWIDTH 83 0
DWIDTH 1 0
BBX 1 1 0 0
BITMAP
00
ENDCHAR
STARTCHAR glyph00001
ENCODING -1
SWIDTH 83 0
DWIDTH 1 0
BBX 1 1 0 0
BITMAP
00
ENDCHAR
ENDFONT
