STARTFONT 2.1
FONT Bm437_NEC_MultiSpeed-2x-8px
SIZE 8 75 75
FONTBOUNDINGBOX 16 8 0 -1
STARTPROPERTIES 3
PIXEL_SIZE 8
FONT_ASCENT 7
FONT_DESCENT 1
ENDPROPERTIES
CHARS 295
STARTCHAR uni0000
ENCODING 0
SWIDTH 2000 0
DWIDTH 16 0
BBX 16 8 0 -1
BITMAP
0000
0000
0000
0000
0000
0000
0000
0000
ENDCHAR
STARTCHAR uni0001
ENCODING 1
SWIDTH 2000 0
DWIDTH 16 0
BBX 16 8 0 -1
BITMAP
3FFC
C003
CC33
CC33
C003
CFF3
C003
3FFC
ENDCHAR
STARTCHAR uni0002
ENCODING 2
SWIDTH 2000 0
DWIDTH 16 0
BBX 16 8 0 -1
BITMAP
3FFC
FFFF
F3CF
F3CF
FFFF
FFFF
F00F
3FFC
ENDCHAR
STARTCHAR uni0003
ENCODING 3
SWIDTH 2000 0
DWIDTH 16 0
BBX 16 8 0 -1
BITMAP
0F3C
3FFF
3FFF
3FFF
0FFC
03F0
00C0
0000
ENDCHAR
STARTCHAR uni0004
ENCODING 4
SWIDTH 2000 0
DWIDTH 16 0
BBX 16 8 0 -1
BITMAP
00C0
03F0
0FFC
3FFF
0FFC
03F0
00C0
0000
ENDCHAR
STARTCHAR uni0005
ENCODING 5
SWIDTH 2000 0
DWIDTH 16 0
BBX 16 8 0 -1
BITMAP
03F0
03F0
3FFF
3FFF
3CCF
00C0
0FFC
0000
ENDCHAR
STARTCHAR uni0006
ENCODING 6
SWIDTH 2000 0
DWIDTH 16 0
BBX 16 8 0 -1
BITMAP
00C0
03F0
0FFC
3FFF
3FFF
03F0
0FFC
0000
ENDCHAR
STARTCHAR uni0007
ENCODING 7
SWIDTH 2000 0
DWIDTH 16 0
BBX 16 8 0 -1
BITMAP
0000
0000
03C0
0FF0
0FF0
03C0
0000
0000
ENDCHAR
STARTCHAR uni0008
ENCODING 8
SWIDTH 2000 0
DWIDTH 16 0
BBX 16 8 0 -1
BITMAP
FFFF
FFFF
FC3F
F00F
F00F
FC3F
FFFF
FFFF
ENDCHAR
STARTCHAR uni0009
ENCODING 9
SWIDTH 2000 0
DWIDTH 16 0
BBX 16 8 0 -1
BITMAP
0000
0FF0
300C
300C
300C
300C
0FF0
0000
ENDCHAR
STARTCHAR uni000A
ENCODING 10
SWIDTH 2000 0
DWIDTH 16 0
BBX 16 8 0 -1
BITMAP
FFFF
F00F
CFF3
CFF3
CFF3
CFF3
F00F
FFFF
ENDCHAR
STARTCHAR uni000B
ENCODING 11
SWIDTH 2000 0
DWIDTH 16 0
BBX 16 8 0 -1
BITMAP
003F
000F
0033
0FC0
30C0
30C0
0F00
0000
ENDCHAR
STARTCHAR uni000C
ENCODING 12
SWIDTH 2000 0
DWIDTH 16 0
BBX 16 8 0 -1
BITMAP
03F0
0C0C
0C0C
0C0C
03F0
00C0
0FFC
00C0
ENDCHAR
STARTCHAR uni000D
ENCODING 13
SWIDTH 2000 0
DWIDTH 16 0
BBX 16 8 0 -1
BITMAP
00F0
00FC
00C3
00C3
00C3
03CC
0FC0
0F00
ENDCHAR
STARTCHAR uni000E
ENCODING 14
SWIDTH 2000 0
DWIDTH 16 0
BBX 16 8 0 -1
BITMAP
03FF
0303
03FF
0303
0F03
3F0F
3C3F
003C
ENDCHAR
STARTCHAR uni000F
ENCODING 15
SWIDTH 2000 0
DWIDTH 16 0
BBX 16 8 0 -1
BITMAP
30C3
0CCC
0330
3C0F
0330
0CCC
30C3
0000
ENDCHAR
STARTCHAR uni0010
ENCODING 16
SWIDTH 2000 0
DWIDTH 16 0
BBX 16 8 0 -1
BITMAP
0C00
0F00
0FF0
0FFF
0FF0
0F00
0C00
0000
ENDCHAR
STARTCHAR uni0011
ENCODING 17
SWIDTH 2000 0
DWIDTH 16 0
BBX 16 8 0 -1
BITMAP
0003
000F
00FF
0FFF
00FF
000F
0003
0000
ENDCHAR
STARTCHAR uni0012
ENCODING 18
SWIDTH 2000 0
DWIDTH 16 0
BBX 16 8 0 -1
BITMAP
00C0
03F0
0CCC
00C0
0CCC
03F0
00C0
0000
ENDCHAR
STARTCHAR uni0013
ENCODING 19
SWIDTH 2000 0
DWIDTH 16 0
BBX 16 8 0 -1
BITMAP
0C30
0C30
0C30
0C30
0000
0000
0C30
0000
ENDCHAR
STARTCHAR uni0014
ENCODING 20
SWIDTH 2000 0
DWIDTH 16 0
BBX 16 8 0 -1
BITMAP
0FFF
3330
3330
0F30
0330
0330
0330
0000
ENDCHAR
STARTCHAR uni0015
ENCODING 21
SWIDTH 2000 0
DWIDTH 16 0
BBX 16 8 0 -1
BITMAP
0FF0
300C
3FC0
0C30
0C30
03FC
300C
0FF0
ENDCHAR
STARTCHAR uni0016
ENCODING 22
SWIDTH 2000 0
DWIDTH 16 0
BBX 16 8 0 -1
BITMAP
0000
0000
0000
3FFC
3FFC
0000
0000
0000
ENDCHAR
STARTCHAR uni0017
ENCODING 23
SWIDTH 2000 0
DWIDTH 16 0
BBX 16 8 0 -1
BITMAP
00C0
03F0
0CCC
00C0
0CCC
03F0
00C0
3FFF
ENDCHAR
STARTCHAR uni0018
ENCODING 24
SWIDTH 2000 0
DWIDTH 16 0
BBX 16 8 0 -1
BITMAP
00C0
03F0
0CCC
00C0
00C0
00C0
00C0
0000
ENDCHAR
STARTCHAR uni0019
ENCODING 25
SWIDTH 2000 0
DWIDTH 16 0
BBX 16 8 0 -1
BITMAP
00C0
00C0
00C0
00C0
0CCC
03F0
00C0
0000
ENDCHAR
STARTCHAR uni001A
ENCODING 26
SWIDTH 2000 0
DWIDTH 16 0
BBX 16 8 0 -1
BITMAP
0000
0030
000C
3FFF
000C
0030
0000
0000
ENDCHAR
STARTCHAR uni001B
ENCODING 27
SWIDTH 2000 0
DWIDTH 16 0
BBX 16 8 0 -1
BITMAP
0000
0300
0C00
3FFF
0C00
0300
0000
0000
ENDCHAR
STARTCHAR uni001C
ENCODING 28
SWIDTH 2000 0
DWIDTH 16 0
BBX 16 8 0 -1
BITMAP
0000
0000
0000
3000
3000
3000
3FFC
0000
ENDCHAR
STARTCHAR uni001D
ENCODING 29
SWIDTH 2000 0
DWIDTH 16 0
BBX 16 8 0 -1
BITMAP
0000
0330
0C0C
3FFF
0C0C
0330
0000
0000
ENDCHAR
STARTCHAR uni001E
ENCODING 30
SWIDTH 2000 0
DWIDTH 16 0
BBX 16 8 0 -1
BITMAP
0000
00C0
03F0
0FFC
3FFF
3FFF
0000
0000
ENDCHAR
STARTCHAR uni001F
ENCODING 31
SWIDTH 2000 0
DWIDTH 16 0
BBX 16 8 0 -1
BITMAP
0000
3FFF
3FFF
0FFC
03F0
00C0
0000
0000
ENDCHAR
STARTCHAR space
ENCODING 32
SWIDTH 2000 0
DWIDTH 16 0
BBX 16 8 0 -1
BITMAP
0000
0000
0000
0000
0000
0000
0000
0000
ENDCHAR
STARTCHAR exclam
ENCODING 33
SWIDTH 2000 0
DWIDTH 16 0
BBX 16 8 0 -1
BITMAP
00C0
00C0
00C0
00C0
0000
0000
00C0
0000
ENDCHAR
STARTCHAR quotedbl
ENCODING 34
SWIDTH 2000 0
DWIDTH 16 0
BBX 16 8 0 -1
BITMAP
0C30
0C30
0C30
0000
0000
0000
0000
0000
ENDCHAR
STARTCHAR numbersign
ENCODING 35
SWIDTH 2000 0
DWIDTH 16 0
BBX 16 8 0 -1
BITMAP
0C30
0C30
3FFC
0C30
3FFC
0C30
0C30
0000
ENDCHAR
STARTCHAR dollar
ENCODING 36
SWIDTH 2000 0
DWIDTH 16 0
BBX 16 8 0 -1
BITMAP
00C0
03FC
0CC0
03F0
00CC
0FF0
00C0
0000
ENDCHAR
STARTCHAR percent
ENCODING 37
SWIDTH 2000 0
DWIDTH 16 0
BBX 16 8 0 -1
BITMAP
0000
3C0C
3C30
00C0
0300
0C3C
303C
0000
ENDCHAR
STARTCHAR ampersand
ENCODING 38
SWIDTH 2000 0
DWIDTH 16 0
BBX 16 8 0 -1
BITMAP
0F00
30C0
30C0
0F00
30CC
3030
0FCC
0000
ENDCHAR
STARTCHAR quotesingle
ENCODING 39
SWIDTH 2000 0
DWIDTH 16 0
BBX 16 8 0 -1
BITMAP
0030
00C0
0300
0000
0000
0000
0000
0000
ENDCHAR
STARTCHAR parenleft
ENCODING 40
SWIDTH 2000 0
DWIDTH 16 0
BBX 16 8 0 -1
BITMAP
0030
00C0
0300
0300
0300
00C0
0030
0000
ENDCHAR
STARTCHAR parenright
ENCODING 41
SWIDTH 2000 0
DWIDTH 16 0
BBX 16 8 0 -1
BITMAP
0C00
0300
00C0
00C0
00C0
0300
0C00
0000
ENDCHAR
STARTCHAR asterisk
ENCODING 42
SWIDTH 2000 0
DWIDTH 16 0
BBX 16 8 0 -1
BITMAP
00C0
0CCC
03F0
0FFC
03F0
0CCC
00C0
0000
ENDCHAR
STARTCHAR plus
ENCODING 43
SWIDTH 2000 0
DWIDTH 16 0
BBX 16 8 0 -1
BITMAP
0000
00C0
00C0
0FFC
00C0
00C0
0000
0000
ENDCHAR
STARTCHAR comma
ENCODING 44
SWIDTH 2000 0
DWIDTH 16 0
BBX 16 8 0 -1
BITMAP
0000
0000
0000
0000
0000
00C0
00C0
0300
ENDCHAR
STARTCHAR hyphen
ENCODING 45
SWIDTH 2000 0
DWIDTH 16 0
BBX 16 8 0 -1
BITMAP
0000
0000
0000
3FFC
0000
0000
0000
0000
ENDCHAR
STARTCHAR period
ENCODING 46
SWIDTH 2000 0
DWIDTH 16 0
BBX 16 8 0 -1
BITMAP
0000
0000
0000
0000
0000
03C0
03C0
0000
ENDCHAR
STARTCHAR slash
ENCODING 47
SWIDTH 2000 0
DWIDTH 16 0
BBX 16 8 0 -1
BITMAP
0000
000C
0030
00C0
0300
0C00
3000
0000
ENDCHAR
STARTCHAR zero
ENCODING 48
SWIDTH 2000 0
DWIDTH 16 0
BBX 16 8 0 -1
BITMAP
0FF0
300C
303C
33CC
3C0C
300C
0FF0
0000
ENDCHAR
STARTCHAR one
ENCODING 49
SWIDTH 2000 0
DWIDTH 16 0
BBX 16 8 0 -1
BITMAP
00C0
03C0
0CC0
00C0
00C0
00C0
0FFC
0000
ENDCHAR
STARTCHAR two
ENCODING 50
SWIDTH 2000 0
DWIDTH 16 0
BBX 16 8 0 -1
BITMAP
0FF0
300C
000C
00F0
0F00
3000
3FFC
0000
ENDCHAR
STARTCHAR three
ENCODING 51
SWIDTH 2000 0
DWIDTH 16 0
BBX 16 8 0 -1
BITMAP
0FF0
300C
000C
03F0
000C
300C
0FF0
0000
ENDCHAR
STARTCHAR four
ENCODING 52
SWIDTH 2000 0
DWIDTH 16 0
BBX 16 8 0 -1
BITMAP
0030
00F0
0330
0C30
3FFC
0030
0030
0000
ENDCHAR
STARTCHAR five
ENCODING 53
SWIDTH 2000 0
DWIDTH 16 0
BBX 16 8 0 -1
BITMAP
3FFC
3000
3FC0
0030
000C
3030
0FC0
0000
ENDCHAR
STARTCHAR six
ENCODING 54
SWIDTH 2000 0
DWIDTH 16 0
BBX 16 8 0 -1
BITMAP
03F0
0C00
3000
3FF0
300C
300C
0FF0
0000
ENDCHAR
STARTCHAR seven
ENCODING 55
SWIDTH 2000 0
DWIDTH 16 0
BBX 16 8 0 -1
BITMAP
3FFC
300C
0030
00C0
0300
0300
0300
0000
ENDCHAR
STARTCHAR eight
ENCODING 56
SWIDTH 2000 0
DWIDTH 16 0
BBX 16 8 0 -1
BITMAP
0FF0
300C
300C
0FF0
300C
300C
0FF0
0000
ENDCHAR
STARTCHAR nine
ENCODING 57
SWIDTH 2000 0
DWIDTH 16 0
BBX 16 8 0 -1
BITMAP
0FF0
300C
300C
0FFC
000C
0030
0FC0
0000
ENDCHAR
STARTCHAR colon
ENCODING 58
SWIDTH 2000 0
DWIDTH 16 0
BBX 16 8 0 -1
BITMAP
0000
0000
00C0
0000
0000
00C0
0000
0000
ENDCHAR
STARTCHAR semicolon
ENCODING 59
SWIDTH 2000 0
DWIDTH 16 0
BBX 16 8 0 -1
BITMAP
0000
0000
00C0
0000
0000
00C0
00C0
0300
ENDCHAR
STARTCHAR less
ENCODING 60
SWIDTH 2000 0
DWIDTH 16 0
BBX 16 8 0 -1
BITMAP
00FC
03C0
0F00
3C00
0F00
03C0
00FC
0000
ENDCHAR
STARTCHAR equal
ENCODING 61
SWIDTH 2000 0
DWIDTH 16 0
BBX 16 8 0 -1
BITMAP
0000
0000
3FFC
0000
3FFC
0000
0000
0000
ENDCHAR
STARTCHAR greater
ENCODING 62
SWIDTH 2000 0
DWIDTH 16 0
BBX 16 8 0 -1
BITMAP
3F00
03C0
00F0
003C
00F0
03C0
3F00
0000
ENDCHAR
STARTCHAR question
ENCODING 63
SWIDTH 2000 0
DWIDTH 16 0
BBX 16 8 0 -1
BITMAP
0FF0
300C
000C
00F0
0300
0000
0300
0000
ENDCHAR
STARTCHAR at
ENCODING 64
SWIDTH 2000 0
DWIDTH 16 0
BBX 16 8 0 -1
BITMAP
03F0
0C0C
30CC
333C
30F0
0C00
03FC
0000
ENDCHAR
STARTCHAR A
ENCODING 65
SWIDTH 2000 0
DWIDTH 16 0
BBX 16 8 0 -1
BITMAP
03C0
0C30
300C
3FFC
300C
300C
300C
0000
ENDCHAR
STARTCHAR B
ENCODING 66
SWIDTH 2000 0
DWIDTH 16 0
BBX 16 8 0 -1
BITMAP
3FF0
0C0C
0C0C
0FF0
0C0C
0C0C
3FF0
0000
ENDCHAR
STARTCHAR C
ENCODING 67
SWIDTH 2000 0
DWIDTH 16 0
BBX 16 8 0 -1
BITMAP
03F0
0C0C
3000
3000
3000
0C0C
03F0
0000
ENDCHAR
STARTCHAR D
ENCODING 68
SWIDTH 2000 0
DWIDTH 16 0
BBX 16 8 0 -1
BITMAP
3FC0
0C30
0C0C
0C0C
0C0C
0C30
3FC0
0000
ENDCHAR
STARTCHAR E
ENCODING 69
SWIDTH 2000 0
DWIDTH 16 0
BBX 16 8 0 -1
BITMAP
3FFC
3000
3000
3FC0
3000
3000
3FFC
0000
ENDCHAR
STARTCHAR F
ENCODING 70
SWIDTH 2000 0
DWIDTH 16 0
BBX 16 8 0 -1
BITMAP
3FFC
3000
3000
3FC0
3000
3000
3000
0000
ENDCHAR
STARTCHAR G
ENCODING 71
SWIDTH 2000 0
DWIDTH 16 0
BBX 16 8 0 -1
BITMAP
03F0
0C0C
3000
30FC
300C
0C0C
03F0
0000
ENDCHAR
STARTCHAR H
ENCODING 72
SWIDTH 2000 0
DWIDTH 16 0
BBX 16 8 0 -1
BITMAP
300C
300C
300C
3FFC
300C
300C
300C
0000
ENDCHAR
STARTCHAR I
ENCODING 73
SWIDTH 2000 0
DWIDTH 16 0
BBX 16 8 0 -1
BITMAP
03F0
00C0
00C0
00C0
00C0
00C0
03F0
0000
ENDCHAR
STARTCHAR J
ENCODING 74
SWIDTH 2000 0
DWIDTH 16 0
BBX 16 8 0 -1
BITMAP
00FC
0030
0030
0030
0030
3030
0FC0
0000
ENDCHAR
STARTCHAR K
ENCODING 75
SWIDTH 2000 0
DWIDTH 16 0
BBX 16 8 0 -1
BITMAP
300C
3030
30C0
3F00
30C0
3030
300C
0000
ENDCHAR
STARTCHAR L
ENCODING 76
SWIDTH 2000 0
DWIDTH 16 0
BBX 16 8 0 -1
BITMAP
3000
3000
3000
3000
3000
3000
3FFC
0000
ENDCHAR
STARTCHAR M
ENCODING 77
SWIDTH 2000 0
DWIDTH 16 0
BBX 16 8 0 -1
BITMAP
300C
3C3C
33CC
33CC
300C
300C
300C
0000
ENDCHAR
STARTCHAR N
ENCODING 78
SWIDTH 2000 0
DWIDTH 16 0
BBX 16 8 0 -1
BITMAP
300C
3C0C
330C
30CC
303C
300C
300C
0000
ENDCHAR
STARTCHAR O
ENCODING 79
SWIDTH 2000 0
DWIDTH 16 0
BBX 16 8 0 -1
BITMAP
03C0
0C30
300C
300C
300C
0C30
03C0
0000
ENDCHAR
STARTCHAR P
ENCODING 80
SWIDTH 2000 0
DWIDTH 16 0
BBX 16 8 0 -1
BITMAP
3FF0
300C
300C
3FF0
3000
3000
3000
0000
ENDCHAR
STARTCHAR Q
ENCODING 81
SWIDTH 2000 0
DWIDTH 16 0
BBX 16 8 0 -1
BITMAP
03C0
0C30
300C
300C
30CC
0C30
03CC
0000
ENDCHAR
STARTCHAR R
ENCODING 82
SWIDTH 2000 0
DWIDTH 16 0
BBX 16 8 0 -1
BITMAP
3FF0
300C
300C
3FF0
30C0
3030
300C
0000
ENDCHAR
STARTCHAR S
ENCODING 83
SWIDTH 2000 0
DWIDTH 16 0
BBX 16 8 0 -1
BITMAP
0FF0
300C
3000
0FF0
000C
300C
0FF0
0000
ENDCHAR
STARTCHAR T
ENCODING 84
SWIDTH 2000 0
DWIDTH 16 0
BBX 16 8 0 -1
BITMAP
0FFC
00C0
00C0
00C0
00C0
00C0
00C0
0000
ENDCHAR
STARTCHAR U
ENCODING 85
SWIDTH 2000 0
DWIDTH 16 0
BBX 16 8 0 -1
BITMAP
300C
300C
300C
300C
300C
300C
0FF0
0000
ENDCHAR
STARTCHAR V
ENCODING 86
SWIDTH 2000 0
DWIDTH 16 0
BBX 16 8 0 -1
BITMAP
300C
300C
300C
0C30
0C30
03C0
03C0
0000
ENDCHAR
STARTCHAR W
ENCODING 87
SWIDTH 2000 0
DWIDTH 16 0
BBX 16 8 0 -1
BITMAP
300C
300C
300C
33CC
33CC
3C3C
300C
0000
ENDCHAR
STARTCHAR X
ENCODING 88
SWIDTH 2000 0
DWIDTH 16 0
BBX 16 8 0 -1
BITMAP
300C
300C
0C30
03C0
0C30
300C
300C
0000
ENDCHAR
STARTCHAR Y
ENCODING 89
SWIDTH 2000 0
DWIDTH 16 0
BBX 16 8 0 -1
BITMAP
0C0C
0C0C
0C0C
03F0
00C0
00C0
00C0
0000
ENDCHAR
STARTCHAR Z
ENCODING 90
SWIDTH 2000 0
DWIDTH 16 0
BBX 16 8 0 -1
BITMAP
3FFC
000C
0030
03C0
0C00
3000
3FFC
0000
ENDCHAR
STARTCHAR bracketleft
ENCODING 91
SWIDTH 2000 0
DWIDTH 16 0
BBX 16 8 0 -1
BITMAP
0FF0
0C00
0C00
0C00
0C00
0C00
0FF0
0000
ENDCHAR
STARTCHAR backslash
ENCODING 92
SWIDTH 2000 0
DWIDTH 16 0
BBX 16 8 0 -1
BITMAP
C000
3000
0C00
0300
00C0
0030
000C
0000
ENDCHAR
STARTCHAR bracketright
ENCODING 93
SWIDTH 2000 0
DWIDTH 16 0
BBX 16 8 0 -1
BITMAP
0FF0
0030
0030
0030
0030
0030
0FF0
0000
ENDCHAR
STARTCHAR asciicircum
ENCODING 94
SWIDTH 2000 0
DWIDTH 16 0
BBX 16 8 0 -1
BITMAP
00C0
0330
0C0C
0000
0000
0000
0000
0000
ENDCHAR
STARTCHAR underscore
ENCODING 95
SWIDTH 2000 0
DWIDTH 16 0
BBX 16 8 0 -1
BITMAP
0000
0000
0000
0000
0000
0000
3FFC
0000
ENDCHAR
STARTCHAR grave
ENCODING 96
SWIDTH 2000 0
DWIDTH 16 0
BBX 16 8 0 -1
BITMAP
0C00
0300
00C0
0000
0000
0000
0000
0000
ENDCHAR
STARTCHAR a
ENCODING 97
SWIDTH 2000 0
DWIDTH 16 0
BBX 16 8 0 -1
BITMAP
0000
0000
0FF0
0030
0FF0
3030
0FCC
0000
ENDCHAR
STARTCHAR b
ENCODING 98
SWIDTH 2000 0
DWIDTH 16 0
BBX 16 8 0 -1
BITMAP
3000
3000
33F0
3C0C
300C
3C0C
33F0
0000
ENDCHAR
STARTCHAR c
ENCODING 99
SWIDTH 2000 0
DWIDTH 16 0
BBX 16 8 0 -1
BITMAP
0000
0000
0FF0
300C
3000
300C
0FF0
0000
ENDCHAR
STARTCHAR d
ENCODING 100
SWIDTH 2000 0
DWIDTH 16 0
BBX 16 8 0 -1
BITMAP
000C
000C
0FCC
303C
300C
303C
0FCC
0000
ENDCHAR
STARTCHAR e
ENCODING 101
SWIDTH 2000 0
DWIDTH 16 0
BBX 16 8 0 -1
BITMAP
0000
0000
0FF0
300C
3FFC
3000
0FF0
0000
ENDCHAR
STARTCHAR f
ENCODING 102
SWIDTH 2000 0
DWIDTH 16 0
BBX 16 8 0 -1
BITMAP
00F0
030C
0300
3FF0
0300
0300
0300
0000
ENDCHAR
STARTCHAR g
ENCODING 103
SWIDTH 2000 0
DWIDTH 16 0
BBX 16 8 0 -1
BITMAP
0000
0000
0FCC
303C
303C
0FCC
000C
0FF0
ENDCHAR
STARTCHAR h
ENCODING 104
SWIDTH 2000 0
DWIDTH 16 0
BBX 16 8 0 -1
BITMAP
3000
3000
33F0
3C0C
300C
300C
300C
0000
ENDCHAR
STARTCHAR i
ENCODING 105
SWIDTH 2000 0
DWIDTH 16 0
BBX 16 8 0 -1
BITMAP
00C0
0000
03C0
00C0
00C0
00C0
03F0
0000
ENDCHAR
STARTCHAR j
ENCODING 106
SWIDTH 2000 0
DWIDTH 16 0
BBX 16 8 0 -1
BITMAP
0030
0000
00F0
0030
0030
0030
3030
0FC0
ENDCHAR
STARTCHAR k
ENCODING 107
SWIDTH 2000 0
DWIDTH 16 0
BBX 16 8 0 -1
BITMAP
3000
3000
3030
30C0
3300
3CC0
3030
0000
ENDCHAR
STARTCHAR l
ENCODING 108
SWIDTH 2000 0
DWIDTH 16 0
BBX 16 8 0 -1
BITMAP
03C0
00C0
00C0
00C0
00C0
00C0
03F0
0000
ENDCHAR
STARTCHAR m
ENCODING 109
SWIDTH 2000 0
DWIDTH 16 0
BBX 16 8 0 -1
BITMAP
0000
0000
3F3C
30C3
30C3
30C3
30C3
0000
ENDCHAR
STARTCHAR n
ENCODING 110
SWIDTH 2000 0
DWIDTH 16 0
BBX 16 8 0 -1
BITMAP
0000
0000
33F0
3C0C
300C
300C
300C
0000
ENDCHAR
STARTCHAR o
ENCODING 111
SWIDTH 2000 0
DWIDTH 16 0
BBX 16 8 0 -1
BITMAP
0000
0000
0FF0
300C
300C
300C
0FF0
0000
ENDCHAR
STARTCHAR p
ENCODING 112
SWIDTH 2000 0
DWIDTH 16 0
BBX 16 8 0 -1
BITMAP
0000
0000
33F0
3C0C
3C0C
33F0
3000
3000
ENDCHAR
STARTCHAR q
ENCODING 113
SWIDTH 2000 0
DWIDTH 16 0
BBX 16 8 0 -1
BITMAP
0000
0000
0FCC
303C
303C
0FCC
000C
000C
ENDCHAR
STARTCHAR r
ENCODING 114
SWIDTH 2000 0
DWIDTH 16 0
BBX 16 8 0 -1
BITMAP
0000
0000
33F0
3C0C
3000
3000
3000
0000
ENDCHAR
STARTCHAR s
ENCODING 115
SWIDTH 2000 0
DWIDTH 16 0
BBX 16 8 0 -1
BITMAP
0000
0000
0FFC
3000
0FF0
000C
3FF0
0000
ENDCHAR
STARTCHAR t
ENCODING 116
SWIDTH 2000 0
DWIDTH 16 0
BBX 16 8 0 -1
BITMAP
0300
0300
3FF0
0300
0300
030C
00F0
0000
ENDCHAR
STARTCHAR u
ENCODING 117
SWIDTH 2000 0
DWIDTH 16 0
BBX 16 8 0 -1
BITMAP
0000
0000
300C
300C
300C
303C
0FCC
0000
ENDCHAR
STARTCHAR v
ENCODING 118
SWIDTH 2000 0
DWIDTH 16 0
BBX 16 8 0 -1
BITMAP
0000
0000
300C
300C
300C
0C30
03C0
0000
ENDCHAR
STARTCHAR w
ENCODING 119
SWIDTH 2000 0
DWIDTH 16 0
BBX 16 8 0 -1
BITMAP
0000
0000
3003
30C3
30C3
30C3
0F3C
0000
ENDCHAR
STARTCHAR x
ENCODING 120
SWIDTH 2000 0
DWIDTH 16 0
BBX 16 8 0 -1
BITMAP
0000
0000
300C
0C30
03C0
0C30
300C
0000
ENDCHAR
STARTCHAR y
ENCODING 121
SWIDTH 2000 0
DWIDTH 16 0
BBX 16 8 0 -1
BITMAP
0000
0000
300C
300C
303C
0FCC
000C
0FF0
ENDCHAR
STARTCHAR z
ENCODING 122
SWIDTH 2000 0
DWIDTH 16 0
BBX 16 8 0 -1
BITMAP
0000
0000
3FFC
0030
03C0
0C00
3FFC
0000
ENDCHAR
STARTCHAR braceleft
ENCODING 123
SWIDTH 2000 0
DWIDTH 16 0
BBX 16 8 0 -1
BITMAP
00FC
0300
0300
0C00
0300
0300
00FC
0000
ENDCHAR
STARTCHAR bar
ENCODING 124
SWIDTH 2000 0
DWIDTH 16 0
BBX 16 8 0 -1
BITMAP
00C0
00C0
00C0
0000
00C0
00C0
00C0
0000
ENDCHAR
STARTCHAR braceright
ENCODING 125
SWIDTH 2000 0
DWIDTH 16 0
BBX 16 8 0 -1
BITMAP
3F00
00C0
00C0
0030
00C0
00C0
3F00
0000
ENDCHAR
STARTCHAR asciitilde
ENCODING 126
SWIDTH 2000 0
DWIDTH 16 0
BBX 16 8 0 -1
BITMAP
0000
0F00
30C3
003C
0000
0000
0000
0000
ENDCHAR
STARTCHAR uni007F
ENCODING 127
SWIDTH 2000 0
DWIDTH 16 0
BBX 16 8 0 -1
BITMAP
0000
00C0
03F0
0C0C
3003
3FFF
0000
0000
ENDCHAR
STARTCHAR uni00A0
ENCODING 160
SWIDTH 2000 0
DWIDTH 16 0
BBX 16 8 0 -1
BITMAP
0000
0000
0000
0000
0000
0000
0000
0000
ENDCHAR
STARTCHAR exclamdown
ENCODING 161
SWIDTH 2000 0
DWIDTH 16 0
BBX 16 8 0 -1
BITMAP
00C0
0000
0000
00C0
00C0
00C0
00C0
0000
ENDCHAR
STARTCHAR cent
ENCODING 162
SWIDTH 2000 0
DWIDTH 16 0
BBX 16 8 0 -1
BITMAP
00C0
03F0
0C0C
0C00
0C0C
03F0
00C0
0000
ENDCHAR
STARTCHAR sterling
ENCODING 163
SWIDTH 2000 0
DWIDTH 16 0
BBX 16 8 0 -1
BITMAP
00F0
030C
0FC0
0300
3F00
330C
3CF0
0000
ENDCHAR
STARTCHAR yen
ENCODING 165
SWIDTH 2000 0
DWIDTH 16 0
BBX 16 8 0 -1
BITMAP
0C0C
0330
0FFC
00C0
0FFC
00C0
00C0
0000
ENDCHAR
STARTCHAR section
ENCODING 167
SWIDTH 2000 0
DWIDTH 16 0
BBX 16 8 0 -1
BITMAP
0FF0
300C
3FC0
0C30
0C30
03FC
300C
0FF0
ENDCHAR
STARTCHAR ordfeminine
ENCODING 170
SWIDTH 2000 0
DWIDTH 16 0
BBX 16 8 0 -1
BITMAP
0FF0
0030
0FF0
3030
0FCC
0000
3FFC
0000
ENDCHAR
STARTCHAR guillemotleft
ENCODING 171
SWIDTH 2000 0
DWIDTH 16 0
BBX 16 8 0 -1
BITMAP
0000
030C
0C30
30C0
0C30
030C
0000
0000
ENDCHAR
STARTCHAR logicalnot
ENCODING 172
SWIDTH 2000 0
DWIDTH 16 0
BBX 16 8 0 -1
BITMAP
0000
3FFC
000C
000C
000C
0000
0000
0000
ENDCHAR
STARTCHAR degree
ENCODING 176
SWIDTH 2000 0
DWIDTH 16 0
BBX 16 8 0 -1
BITMAP
0FC0
0CC0
0FC0
0000
0000
0000
0000
0000
ENDCHAR
STARTCHAR plusminus
ENCODING 177
SWIDTH 2000 0
DWIDTH 16 0
BBX 16 8 0 -1
BITMAP
00C0
00C0
3FFF
00C0
00C0
0000
3FFF
0000
ENDCHAR
STARTCHAR uni00B2
ENCODING 178
SWIDTH 2000 0
DWIDTH 16 0
BBX 16 8 0 -1
BITMAP
03F0
0C0C
00F0
0300
0FFC
0000
0000
0000
ENDCHAR
STARTCHAR mu
ENCODING 181
SWIDTH 2000 0
DWIDTH 16 0
BBX 16 8 0 -1
BITMAP
30C0
30C0
30C0
30C0
3F30
3000
3000
0000
ENDCHAR
STARTCHAR paragraph
ENCODING 182
SWIDTH 2000 0
DWIDTH 16 0
BBX 16 8 0 -1
BITMAP
0FFF
3330
3330
0F30
0330
0330
0330
0000
ENDCHAR
STARTCHAR periodcentered
ENCODING 183
SWIDTH 2000 0
DWIDTH 16 0
BBX 16 8 0 -1
BITMAP
0000
0000
0000
03C0
03C0
0000
0000
0000
ENDCHAR
STARTCHAR ordmasculine
ENCODING 186
SWIDTH 2000 0
DWIDTH 16 0
BBX 16 8 0 -1
BITMAP
0FF0
300C
300C
300C
0FF0
0000
3FFC
0000
ENDCHAR
STARTCHAR guillemotright
ENCODING 187
SWIDTH 2000 0
DWIDTH 16 0
BBX 16 8 0 -1
BITMAP
0000
30C0
0C30
030C
0C30
30C0
0000
0000
ENDCHAR
STARTCHAR onequarter
ENCODING 188
SWIDTH 2000 0
DWIDTH 16 0
BBX 16 8 0 -1
BITMAP
0C0C
0C30
0CC0
033C
0CCC
30FF
000C
0000
ENDCHAR
STARTCHAR onehalf
ENCODING 189
SWIDTH 2000 0
DWIDTH 16 0
BBX 16 8 0 -1
BITMAP
0C0C
0C30
0CC0
033C
0CC3
300C
00FF
0000
ENDCHAR
STARTCHAR questiondown
ENCODING 191
SWIDTH 2000 0
DWIDTH 16 0
BBX 16 8 0 -1
BITMAP
00C0
0000
00C0
0F00
3000
300C
0FF0
0000
ENDCHAR
STARTCHAR Adieresis
ENCODING 196
SWIDTH 2000 0
DWIDTH 16 0
BBX 16 8 0 -1
BITMAP
300C
03C0
0C30
300C
3FFC
300C
300C
0000
ENDCHAR
STARTCHAR Aring
ENCODING 197
SWIDTH 2000 0
DWIDTH 16 0
BBX 16 8 0 -1
BITMAP
03C0
03C0
0C30
300C
3FFC
300C
300C
0000
ENDCHAR
STARTCHAR AE
ENCODING 198
SWIDTH 2000 0
DWIDTH 16 0
BBX 16 8 0 -1
BITMAP
00FF
0330
0C30
0FFF
0C30
0C30
0C3F
0000
ENDCHAR
STARTCHAR Ccedilla
ENCODING 199
SWIDTH 2000 0
DWIDTH 16 0
BBX 16 8 0 -1
BITMAP
03F0
0C0C
3000
3000
3000
0C0C
03F0
0F00
ENDCHAR
STARTCHAR Eacute
ENCODING 201
SWIDTH 2000 0
DWIDTH 16 0
BBX 16 8 0 -1
BITMAP
000C
0030
3FFC
3000
3FF0
3000
3FFC
0000
ENDCHAR
STARTCHAR Ntilde
ENCODING 209
SWIDTH 2000 0
DWIDTH 16 0
BBX 16 8 0 -1
BITMAP
0F0C
30F0
3C0C
330C
30CC
303C
300C
0000
ENDCHAR
STARTCHAR Odieresis
ENCODING 214
SWIDTH 2000 0
DWIDTH 16 0
BBX 16 8 0 -1
BITMAP
300C
03C0
0C30
300C
300C
0C30
03C0
0000
ENDCHAR
STARTCHAR Udieresis
ENCODING 220
SWIDTH 2000 0
DWIDTH 16 0
BBX 16 8 0 -1
BITMAP
0C30
0000
300C
300C
300C
300C
0FF0
0000
ENDCHAR
STARTCHAR germandbls
ENCODING 223
SWIDTH 2000 0
DWIDTH 16 0
BBX 16 8 0 -1
BITMAP
03FC
0C03
0C03
0FFC
0C03
0F03
0CFC
3C00
ENDCHAR
STARTCHAR agrave
ENCODING 224
SWIDTH 2000 0
DWIDTH 16 0
BBX 16 8 0 -1
BITMAP
0C00
0300
0FF0
0030
0FF0
3030
0FCC
0000
ENDCHAR
STARTCHAR aacute
ENCODING 225
SWIDTH 2000 0
DWIDTH 16 0
BBX 16 8 0 -1
BITMAP
0030
00C0
0FF0
0030
0FF0
3030
0FCC
0000
ENDCHAR
STARTCHAR acircumflex
ENCODING 226
SWIDTH 2000 0
DWIDTH 16 0
BBX 16 8 0 -1
BITMAP
03C0
0C30
0FF0
0030
0FF0
3030
0FCC
0000
ENDCHAR
STARTCHAR adieresis
ENCODING 228
SWIDTH 2000 0
DWIDTH 16 0
BBX 16 8 0 -1
BITMAP
0C30
0000
0FF0
0030
0FF0
3030
0FCC
0000
ENDCHAR
STARTCHAR aring
ENCODING 229
SWIDTH 2000 0
DWIDTH 16 0
BBX 16 8 0 -1
BITMAP
03C0
0000
0FF0
0030
0FF0
3030
0FCC
0000
ENDCHAR
STARTCHAR ae
ENCODING 230
SWIDTH 2000 0
DWIDTH 16 0
BBX 16 8 0 -1
BITMAP
0000
0000
0FFC
00F3
0FFF
30F0
0FCF
0000
ENDCHAR
STARTCHAR ccedilla
ENCODING 231
SWIDTH 2000 0
DWIDTH 16 0
BBX 16 8 0 -1
BITMAP
0000
0000
0FF0
300C
3000
300C
0FF0
3F00
ENDCHAR
STARTCHAR egrave
ENCODING 232
SWIDTH 2000 0
DWIDTH 16 0
BBX 16 8 0 -1
BITMAP
0C00
0300
0FF0
300C
3FFC
3000
0FF0
0000
ENDCHAR
STARTCHAR eacute
ENCODING 233
SWIDTH 2000 0
DWIDTH 16 0
BBX 16 8 0 -1
BITMAP
0030
00C0
0FF0
300C
3FFC
3000
0FF0
0000
ENDCHAR
STARTCHAR ecircumflex
ENCODING 234
SWIDTH 2000 0
DWIDTH 16 0
BBX 16 8 0 -1
BITMAP
03C0
0C30
0FF0
300C
3FFC
3000
0FF0
0000
ENDCHAR
STARTCHAR edieresis
ENCODING 235
SWIDTH 2000 0
DWIDTH 16 0
BBX 16 8 0 -1
BITMAP
0C30
0000
0FF0
300C
3FFC
3000
0FF0
0000
ENDCHAR
STARTCHAR igrave
ENCODING 236
SWIDTH 2000 0
DWIDTH 16 0
BBX 16 8 0 -1
BITMAP
0300
00C0
03C0
00C0
00C0
00C0
03F0
0000
ENDCHAR
STARTCHAR iacute
ENCODING 237
SWIDTH 2000 0
DWIDTH 16 0
BBX 16 8 0 -1
BITMAP
0030
00C0
03C0
00C0
00C0
00C0
03F0
0000
ENDCHAR
STARTCHAR icircumflex
ENCODING 238
SWIDTH 2000 0
DWIDTH 16 0
BBX 16 8 0 -1
BITMAP
03C0
0C30
03C0
00C0
00C0
00C0
03F0
0000
ENDCHAR
STARTCHAR idieresis
ENCODING 239
SWIDTH 2000 0
DWIDTH 16 0
BBX 16 8 0 -1
BITMAP
0C30
0000
03C0
00C0
00C0
00C0
03F0
0000
ENDCHAR
STARTCHAR ntilde
ENCODING 241
SWIDTH 2000 0
DWIDTH 16 0
BBX 16 8 0 -1
BITMAP
0F0C
30F0
0000
33F0
3C0C
300C
300C
0000
ENDCHAR
STARTCHAR ograve
ENCODING 242
SWIDTH 2000 0
DWIDTH 16 0
BBX 16 8 0 -1
BITMAP
0C00
0300
0FF0
300C
300C
300C
0FF0
0000
ENDCHAR
STARTCHAR oacute
ENCODING 243
SWIDTH 2000 0
DWIDTH 16 0
BBX 16 8 0 -1
BITMAP
0030
00C0
0FF0
300C
300C
300C
0FF0
0000
ENDCHAR
STARTCHAR ocircumflex
ENCODING 244
SWIDTH 2000 0
DWIDTH 16 0
BBX 16 8 0 -1
BITMAP
03C0
0C30
0FF0
300C
300C
300C
0FF0
0000
ENDCHAR
STARTCHAR odieresis
ENCODING 246
SWIDTH 2000 0
DWIDTH 16 0
BBX 16 8 0 -1
BITMAP
0C30
0000
0FF0
300C
300C
300C
0FF0
0000
ENDCHAR
STARTCHAR divide
ENCODING 247
SWIDTH 2000 0
DWIDTH 16 0
BBX 16 8 0 -1
BITMAP
0000
0000
0300
0000
3FF0
0000
0300
0000
ENDCHAR
STARTCHAR ugrave
ENCODING 249
SWIDTH 2000 0
DWIDTH 16 0
BBX 16 8 0 -1
BITMAP
0C00
0300
300C
300C
300C
303C
0FCC
0000
ENDCHAR
STARTCHAR uacute
ENCODING 250
SWIDTH 2000 0
DWIDTH 16 0
BBX 16 8 0 -1
BITMAP
0030
00C0
300C
300C
300C
303C
0FCC
0000
ENDCHAR
STARTCHAR ucircumflex
ENCODING 251
SWIDTH 2000 0
DWIDTH 16 0
BBX 16 8 0 -1
BITMAP
03C0
0C30
0000
300C
300C
303C
0FCC
0000
ENDCHAR
STARTCHAR udieresis
ENCODING 252
SWIDTH 2000 0
DWIDTH 16 0
BBX 16 8 0 -1
BITMAP
0C30
0000
300C
300C
300C
303C
0FCC
0000
ENDCHAR
STARTCHAR ydieresis
ENCODING 255
SWIDTH 2000 0
DWIDTH 16 0
BBX 16 8 0 -1
BITMAP
0C30
0000
300C
300C
303C
0FCC
000C
0FF0
ENDCHAR
STARTCHAR florin
ENCODING 402
SWIDTH 2000 0
DWIDTH 16 0
BBX 16 8 0 -1
BITMAP
0030
00CC
00C0
03F0
00C0
0CC0
0300
0000
ENDCHAR
STARTCHAR Gamma
ENCODING 915
SWIDTH 2000 0
DWIDTH 16 0
BBX 16 8 0 -1
BITMAP
3FFF
3C0C
3C00
3C00
3C00
3C00
3C00
0000
ENDCHAR
STARTCHAR Theta
ENCODING 920
SWIDTH 2000 0
DWIDTH 16 0
BBX 16 8 0 -1
BITMAP
03C0
0C30
300C
3FFC
300C
0C30
03C0
0000
ENDCHAR
STARTCHAR Sigma
ENCODING 931
SWIDTH 2000 0
DWIDTH 16 0
BBX 16 8 0 -1
BITMAP
3FFF
0C0C
0300
00C0
0300
0C0C
3FFF
0000
ENDCHAR
STARTCHAR Phi
ENCODING 934
SWIDTH 2000 0
DWIDTH 16 0
BBX 16 8 0 -1
BITMAP
03F0
00C0
03F0
0C0C
03F0
00C0
03F0
0000
ENDCHAR
STARTCHAR uni03A9
ENCODING 937
SWIDTH 2000 0
DWIDTH 16 0
BBX 16 8 0 -1
BITMAP
03F0
0C0C
3003
3003
3003
0C0C
3C0F
0000
ENDCHAR
STARTCHAR alpha
ENCODING 945
SWIDTH 2000 0
DWIDTH 16 0
BBX 16 8 0 -1
BITMAP
0000
0000
0FCC
3030
3030
3030
0FCC
0000
ENDCHAR
STARTCHAR delta
ENCODING 948
SWIDTH 2000 0
DWIDTH 16 0
BBX 16 8 0 -1
BITMAP
0FC0
3030
3000
0FC0
3030
3030
0FC0
0000
ENDCHAR
STARTCHAR epsilon
ENCODING 949
SWIDTH 2000 0
DWIDTH 16 0
BBX 16 8 0 -1
BITMAP
03F0
0C00
3000
3FF0
3000
0C00
03F0
0000
ENDCHAR
STARTCHAR pi
ENCODING 960
SWIDTH 2000 0
DWIDTH 16 0
BBX 16 8 0 -1
BITMAP
0003
0FFC
3330
0330
0330
0330
030F
0000
ENDCHAR
STARTCHAR sigma
ENCODING 963
SWIDTH 2000 0
DWIDTH 16 0
BBX 16 8 0 -1
BITMAP
0003
03FC
0C30
300C
300C
0C30
03C0
0000
ENDCHAR
STARTCHAR tau
ENCODING 964
SWIDTH 2000 0
DWIDTH 16 0
BBX 16 8 0 -1
BITMAP
3C00
030F
0330
03C0
0300
0F00
0F00
0000
ENDCHAR
STARTCHAR phi
ENCODING 966
SWIDTH 2000 0
DWIDTH 16 0
BBX 16 8 0 -1
BITMAP
0030
0FF0
30CC
330C
0FF0
0C00
0000
0000
ENDCHAR
STARTCHAR bullet
ENCODING 8226
SWIDTH 2000 0
DWIDTH 16 0
BBX 16 8 0 -1
BITMAP
0000
0000
03C0
0FF0
0FF0
03C0
0000
0000
ENDCHAR
STARTCHAR exclamdbl
ENCODING 8252
SWIDTH 2000 0
DWIDTH 16 0
BBX 16 8 0 -1
BITMAP
0C30
0C30
0C30
0C30
0000
0000
0C30
0000
ENDCHAR
STARTCHAR uni207F
ENCODING 8319
SWIDTH 2000 0
DWIDTH 16 0
BBX 16 8 0 -1
BITMAP
3000
3F00
3300
3300
3300
0000
0000
0000
ENDCHAR
STARTCHAR peseta
ENCODING 8359
SWIDTH 2000 0
DWIDTH 16 0
BBX 16 8 0 -1
BITMAP
3F00
30C0
3F00
30C0
33F0
30CC
30F0
0000
ENDCHAR
STARTCHAR arrowleft
ENCODING 8592
SWIDTH 2000 0
DWIDTH 16 0
BBX 16 8 0 -1
BITMAP
0000
0300
0C00
3FFF
0C00
0300
0000
0000
ENDCHAR
STARTCHAR arrowup
ENCODING 8593
SWIDTH 2000 0
DWIDTH 16 0
BBX 16 8 0 -1
BITMAP
00C0
03F0
0CCC
00C0
00C0
00C0
00C0
0000
ENDCHAR
STARTCHAR arrowright
ENCODING 8594
SWIDTH 2000 0
DWIDTH 16 0
BBX 16 8 0 -1
BITMAP
0000
0030
000C
3FFF
000C
0030
0000
0000
ENDCHAR
STARTCHAR arrowdown
ENCODING 8595
SWIDTH 2000 0
DWIDTH 16 0
BBX 16 8 0 -1
BITMAP
00C0
00C0
00C0
00C0
0CCC
03F0
00C0
0000
ENDCHAR
STARTCHAR arrowboth
ENCODING 8596
SWIDTH 2000 0
DWIDTH 16 0
BBX 16 8 0 -1
BITMAP
0000
0330
0C0C
3FFF
0C0C
0330
0000
0000
ENDCHAR
STARTCHAR arrowupdn
ENCODING 8597
SWIDTH 2000 0
DWIDTH 16 0
BBX 16 8 0 -1
BITMAP
00C0
03F0
0CCC
00C0
0CCC
03F0
00C0
0000
ENDCHAR
STARTCHAR arrowupdnbse
ENCODING 8616
SWIDTH 2000 0
DWIDTH 16 0
BBX 16 8 0 -1
BITMAP
00C0
03F0
0CCC
00C0
0CCC
03F0
00C0
3FFF
ENDCHAR
STARTCHAR uni2219
ENCODING 8729
SWIDTH 2000 0
DWIDTH 16 0
BBX 16 8 0 -1
BITMAP
0000
03C0
03C0
0000
0000
0000
0000
0000
ENDCHAR
STARTCHAR radical
ENCODING 8730
SWIDTH 2000 0
DWIDTH 16 0
BBX 16 8 0 -1
BITMAP
0003
0003
0003
0003
00C3
0333
000F
0003
ENDCHAR
STARTCHAR infinity
ENCODING 8734
SWIDTH 2000 0
DWIDTH 16 0
BBX 16 8 0 -1
BITMAP
0000
0C0C
3333
30C3
3333
0C0C
0000
0000
ENDCHAR
STARTCHAR orthogonal
ENCODING 8735
SWIDTH 2000 0
DWIDTH 16 0
BBX 16 8 0 -1
BITMAP
0000
0000
0000
3000
3000
3000
3FFC
0000
ENDCHAR
STARTCHAR intersection
ENCODING 8745
SWIDTH 2000 0
DWIDTH 16 0
BBX 16 8 0 -1
BITMAP
0FF0
300C
300C
300C
300C
300C
300C
0000
ENDCHAR
STARTCHAR approxequal
ENCODING 8776
SWIDTH 2000 0
DWIDTH 16 0
BBX 16 8 0 -1
BITMAP
0000
0F00
30C3
003C
0F00
30C3
003C
0000
ENDCHAR
STARTCHAR equivalence
ENCODING 8801
SWIDTH 2000 0
DWIDTH 16 0
BBX 16 8 0 -1
BITMAP
3FFC
0000
0000
3FFC
0000
0000
3FFC
0000
ENDCHAR
STARTCHAR lessequal
ENCODING 8804
SWIDTH 2000 0
DWIDTH 16 0
BBX 16 8 0 -1
BITMAP
0030
00C0
0300
00C0
0030
0000
03FC
0000
ENDCHAR
STARTCHAR greaterequal
ENCODING 8805
SWIDTH 2000 0
DWIDTH 16 0
BBX 16 8 0 -1
BITMAP
0300
00C0
0030
00C0
0300
0000
0FF0
0000
ENDCHAR
STARTCHAR house
ENCODING 8962
SWIDTH 2000 0
DWIDTH 16 0
BBX 16 8 0 -1
BITMAP
0000
00C0
03F0
0C0C
3003
3FFF
0000
0000
ENDCHAR
STARTCHAR revlogicalnot
ENCODING 8976
SWIDTH 2000 0
DWIDTH 16 0
BBX 16 8 0 -1
BITMAP
0000
3FFC
3000
3000
3000
0000
0000
0000
ENDCHAR
STARTCHAR integraltp
ENCODING 8992
SWIDTH 2000 0
DWIDTH 16 0
BBX 16 8 0 -1
BITMAP
0030
00CC
00CC
00C0
00C0
00C0
00C0
00C0
ENDCHAR
STARTCHAR integralbt
ENCODING 8993
SWIDTH 2000 0
DWIDTH 16 0
BBX 16 8 0 -1
BITMAP
00C0
00C0
00C0
00C0
00C0
0CC0
0CC0
0300
ENDCHAR
STARTCHAR SF100000
ENCODING 9472
SWIDTH 2000 0
DWIDTH 16 0
BBX 16 8 0 -1
BITMAP
0000
0000
0000
0000
FFFF
0000
0000
0000
ENDCHAR
STARTCHAR SF110000
ENCODING 9474
SWIDTH 2000 0
DWIDTH 16 0
BBX 16 8 0 -1
BITMAP
00C0
00C0
00C0
00C0
00C0
00C0
00C0
00C0
ENDCHAR
STARTCHAR SF010000
ENCODING 9484
SWIDTH 2000 0
DWIDTH 16 0
BBX 16 8 0 -1
BITMAP
0000
0000
0000
0000
00FF
00C0
00C0
00C0
ENDCHAR
STARTCHAR SF030000
ENCODING 9488
SWIDTH 2000 0
DWIDTH 16 0
BBX 16 8 0 -1
BITMAP
0000
0000
0000
0000
FFC0
00C0
00C0
00C0
ENDCHAR
STARTCHAR SF020000
ENCODING 9492
SWIDTH 2000 0
DWIDTH 16 0
BBX 16 8 0 -1
BITMAP
00C0
00C0
00C0
00C0
00FF
0000
0000
0000
ENDCHAR
STARTCHAR SF040000
ENCODING 9496
SWIDTH 2000 0
DWIDTH 16 0
BBX 16 8 0 -1
BITMAP
00C0
00C0
00C0
00C0
FFC0
0000
0000
0000
ENDCHAR
STARTCHAR SF080000
ENCODING 9500
SWIDTH 2000 0
DWIDTH 16 0
BBX 16 8 0 -1
BITMAP
00C0
00C0
00C0
00C0
00FF
00C0
00C0
00C0
ENDCHAR
STARTCHAR SF090000
ENCODING 9508
SWIDTH 2000 0
DWIDTH 16 0
BBX 16 8 0 -1
BITMAP
00C0
00C0
00C0
00C0
FFC0
00C0
00C0
00C0
ENDCHAR
STARTCHAR SF060000
ENCODING 9516
SWIDTH 2000 0
DWIDTH 16 0
BBX 16 8 0 -1
BITMAP
0000
0000
0000
0000
FFFF
00C0
00C0
00C0
ENDCHAR
STARTCHAR SF070000
ENCODING 9524
SWIDTH 2000 0
DWIDTH 16 0
BBX 16 8 0 -1
BITMAP
00C0
00C0
00C0
00C0
FFFF
0000
0000
0000
ENDCHAR
STARTCHAR SF050000
ENCODING 9532
SWIDTH 2000 0
DWIDTH 16 0
BBX 16 8 0 -1
BITMAP
00C0
00C0
00C0
00C0
FFFF
00C0
00C0
00C0
ENDCHAR
STARTCHAR SF430000
ENCODING 9552
SWIDTH 2000 0
DWIDTH 16 0
BBX 16 8 0 -1
BITMAP
0000
0000
FFFF
0000
0000
FFFF
0000
0000
ENDCHAR
STARTCHAR SF240000
ENCODING 9553
SWIDTH 2000 0
DWIDTH 16 0
BBX 16 8 0 -1
BITMAP
0C30
0C30
0C30
0C30
0C30
0C30
0C30
0C30
ENDCHAR
STARTCHAR SF510000
ENCODING 9554
SWIDTH 2000 0
DWIDTH 16 0
BBX 16 8 0 -1
BITMAP
0000
0000
00FF
00C0
00C0
00FF
00C0
00C0
ENDCHAR
STARTCHAR SF520000
ENCODING 9555
SWIDTH 2000 0
DWIDTH 16 0
BBX 16 8 0 -1
BITMAP
0000
0000
0000
0000
0FFF
0C30
0C30
0C30
ENDCHAR
STARTCHAR SF390000
ENCODING 9556
SWIDTH 2000 0
DWIDTH 16 0
BBX 16 8 0 -1
BITMAP
0000
0000
0FFF
0C00
0C00
0C3F
0C30
0C30
ENDCHAR
STARTCHAR SF220000
ENCODING 9557
SWIDTH 2000 0
DWIDTH 16 0
BBX 16 8 0 -1
BITMAP
0000
0000
FFC0
00C0
00C0
FFC0
00C0
00C0
ENDCHAR
STARTCHAR SF210000
ENCODING 9558
SWIDTH 2000 0
DWIDTH 16 0
BBX 16 8 0 -1
BITMAP
0000
0000
0000
0000
FFF0
0C30
0C30
0C30
ENDCHAR
STARTCHAR SF250000
ENCODING 9559
SWIDTH 2000 0
DWIDTH 16 0
BBX 16 8 0 -1
BITMAP
0000
0000
FFF0
0030
0030
FC30
0C30
0C30
ENDCHAR
STARTCHAR SF500000
ENCODING 9560
SWIDTH 2000 0
DWIDTH 16 0
BBX 16 8 0 -1
BITMAP
00C0
00C0
00FF
00C0
00C0
00FF
0000
0000
ENDCHAR
STARTCHAR SF490000
ENCODING 9561
SWIDTH 2000 0
DWIDTH 16 0
BBX 16 8 0 -1
BITMAP
0C30
0C30
0C30
0C30
0FFF
0000
0000
0000
ENDCHAR
STARTCHAR SF380000
ENCODING 9562
SWIDTH 2000 0
DWIDTH 16 0
BBX 16 8 0 -1
BITMAP
0C30
0C30
0C3F
0C00
0C00
0FFF
0000
0000
ENDCHAR
STARTCHAR SF280000
ENCODING 9563
SWIDTH 2000 0
DWIDTH 16 0
BBX 16 8 0 -1
BITMAP
00C0
00C0
FFC0
00C0
00C0
FFC0
0000
0000
ENDCHAR
STARTCHAR SF270000
ENCODING 9564
SWIDTH 2000 0
DWIDTH 16 0
BBX 16 8 0 -1
BITMAP
0C30
0C30
0C30
0C30
FFF0
0000
0000
0000
ENDCHAR
STARTCHAR SF260000
ENCODING 9565
SWIDTH 2000 0
DWIDTH 16 0
BBX 16 8 0 -1
BITMAP
0C30
0C30
FC30
0030
0030
FFF0
0000
0000
ENDCHAR
STARTCHAR SF360000
ENCODING 9566
SWIDTH 2000 0
DWIDTH 16 0
BBX 16 8 0 -1
BITMAP
00C0
00C0
00FF
00C0
00C0
00FF
00C0
00C0
ENDCHAR
STARTCHAR SF370000
ENCODING 9567
SWIDTH 2000 0
DWIDTH 16 0
BBX 16 8 0 -1
BITMAP
0C30
0C30
0C30
0C30
0C3F
0C30
0C30
0C30
ENDCHAR
STARTCHAR SF420000
ENCODING 9568
SWIDTH 2000 0
DWIDTH 16 0
BBX 16 8 0 -1
BITMAP
0C30
0C30
0C3F
0C00
0C00
0C3F
0C30
0C30
ENDCHAR
STARTCHAR SF190000
ENCODING 9569
SWIDTH 2000 0
DWIDTH 16 0
BBX 16 8 0 -1
BITMAP
00C0
00C0
FFC0
00C0
00C0
FFC0
00C0
00C0
ENDCHAR
STARTCHAR SF200000
ENCODING 9570
SWIDTH 2000 0
DWIDTH 16 0
BBX 16 8 0 -1
BITMAP
0C30
0C30
0C30
0C30
FC30
0C30
0C30
0C30
ENDCHAR
STARTCHAR SF230000
ENCODING 9571
SWIDTH 2000 0
DWIDTH 16 0
BBX 16 8 0 -1
BITMAP
0C30
0C30
FC30
0030
0030
FC30
0C30
0C30
ENDCHAR
STARTCHAR SF470000
ENCODING 9572
SWIDTH 2000 0
DWIDTH 16 0
BBX 16 8 0 -1
BITMAP
0000
0000
FFFF
0000
0000
FFFF
00C0
00C0
ENDCHAR
STARTCHAR SF480000
ENCODING 9573
SWIDTH 2000 0
DWIDTH 16 0
BBX 16 8 0 -1
BITMAP
0000
0000
0000
0000
FFFF
0C30
0C30
0C30
ENDCHAR
STARTCHAR SF410000
ENCODING 9574
SWIDTH 2000 0
DWIDTH 16 0
BBX 16 8 0 -1
BITMAP
0000
0000
FFFF
0000
0000
FC3F
0C30
0C30
ENDCHAR
STARTCHAR SF450000
ENCODING 9575
SWIDTH 2000 0
DWIDTH 16 0
BBX 16 8 0 -1
BITMAP
00C0
00C0
FFFF
0000
0000
FFFF
0000
0000
ENDCHAR
STARTCHAR SF460000
ENCODING 9576
SWIDTH 2000 0
DWIDTH 16 0
BBX 16 8 0 -1
BITMAP
0C30
0C30
0C30
0C30
FFFF
0000
0000
0000
ENDCHAR
STARTCHAR SF400000
ENCODING 9577
SWIDTH 2000 0
DWIDTH 16 0
BBX 16 8 0 -1
BITMAP
0C30
0C30
FC3F
0000
0000
FFFF
0000
0000
ENDCHAR
STARTCHAR SF540000
ENCODING 9578
SWIDTH 2000 0
DWIDTH 16 0
BBX 16 8 0 -1
BITMAP
00C0
00C0
FFFF
00C0
00C0
FFFF
00C0
00C0
ENDCHAR
STARTCHAR SF530000
ENCODING 9579
SWIDTH 2000 0
DWIDTH 16 0
BBX 16 8 0 -1
BITMAP
0C30
0C30
0C30
0C30
FFFF
0C30
0C30
0C30
ENDCHAR
STARTCHAR SF440000
ENCODING 9580
SWIDTH 2000 0
DWIDTH 16 0
BBX 16 8 0 -1
BITMAP
0C30
0C30
FC3F
0000
0000
FC3F
0C30
0C30
ENDCHAR
STARTCHAR upblock
ENCODING 9600
SWIDTH 2000 0
DWIDTH 16 0
BBX 16 8 0 -1
BITMAP
FFFF
FFFF
FFFF
FFFF
0000
0000
0000
0000
ENDCHAR
STARTCHAR dnblock
ENCODING 9604
SWIDTH 2000 0
DWIDTH 16 0
BBX 16 8 0 -1
BITMAP
0000
0000
0000
0000
FFFF
FFFF
FFFF
FFFF
ENDCHAR
STARTCHAR block
ENCODING 9608
SWIDTH 2000 0
DWIDTH 16 0
BBX 16 8 0 -1
BITMAP
FFFF
FFFF
FFFF
FFFF
FFFF
FFFF
FFFF
FFFF
ENDCHAR
STARTCHAR lfblock
ENCODING 9612
SWIDTH 2000 0
DWIDTH 16 0
BBX 16 8 0 -1
BITMAP
FF00
FF00
FF00
FF00
FF00
FF00
FF00
FF00
ENDCHAR
STARTCHAR rtblock
ENCODING 9616
SWIDTH 2000 0
DWIDTH 16 0
BBX 16 8 0 -1
BITMAP
00FF
00FF
00FF
00FF
00FF
00FF
00FF
00FF
ENDCHAR
STARTCHAR ltshade
ENCODING 9617
SWIDTH 2000 0
DWIDTH 16 0
BBX 16 8 0 -1
BITMAP
3030
0303
3030
0303
3030
0303
3030
0303
ENDCHAR
STARTCHAR shade
ENCODING 9618
SWIDTH 2000 0
DWIDTH 16 0
BBX 16 8 0 -1
BITMAP
CCCC
3333
CCCC
3333
CCCC
3333
CCCC
3333
ENDCHAR
STARTCHAR dkshade
ENCODING 9619
SWIDTH 2000 0
DWIDTH 16 0
BBX 16 8 0 -1
BITMAP
F3CF
FCFC
F3CF
3F3F
F3CF
FCFC
F3CF
3F3F
ENDCHAR
STARTCHAR filledbox
ENCODING 9632
SWIDTH 2000 0
DWIDTH 16 0
BBX 16 8 0 -1
BITMAP
0000
0000
03F0
03F0
03F0
03F0
0000
0000
ENDCHAR
STARTCHAR filledrect
ENCODING 9644
SWIDTH 2000 0
DWIDTH 16 0
BBX 16 8 0 -1
BITMAP
0000
0000
0000
3FFC
3FFC
0000
0000
0000
ENDCHAR
STARTCHAR triagup
ENCODING 9650
SWIDTH 2000 0
DWIDTH 16 0
BBX 16 8 0 -1
BITMAP
0000
00C0
03F0
0FFC
3FFF
3FFF
0000
0000
ENDCHAR
STARTCHAR triagrt
ENCODING 9658
SWIDTH 2000 0
DWIDTH 16 0
BBX 16 8 0 -1
BITMAP
0C00
0F00
0FF0
0FFF
0FF0
0F00
0C00
0000
ENDCHAR
STARTCHAR triagdn
ENCODING 9660
SWIDTH 2000 0
DWIDTH 16 0
BBX 16 8 0 -1
BITMAP
0000
3FFF
3FFF
0FFC
03F0
00C0
0000
0000
ENDCHAR
STARTCHAR triaglf
ENCODING 9668
SWIDTH 2000 0
DWIDTH 16 0
BBX 16 8 0 -1
BITMAP
0003
000F
00FF
0FFF
00FF
000F
0003
0000
ENDCHAR
STARTCHAR circle
ENCODING 9675
SWIDTH 2000 0
DWIDTH 16 0
BBX 16 8 0 -1
BITMAP
0000
0FF0
300C
300C
300C
300C
0FF0
0000
ENDCHAR
STARTCHAR invbullet
ENCODING 9688
SWIDTH 2000 0
DWIDTH 16 0
BBX 16 8 0 -1
BITMAP
FFFF
FFFF
FC3F
F00F
F00F
FC3F
FFFF
FFFF
ENDCHAR
STARTCHAR invcircle
ENCODING 9689
SWIDTH 2000 0
DWIDTH 16 0
BBX 16 8 0 -1
BITMAP
FFFF
F00F
CFF3
CFF3
CFF3
CFF3
F00F
FFFF
ENDCHAR
STARTCHAR smileface
ENCODING 9786
SWIDTH 2000 0
DWIDTH 16 0
BBX 16 8 0 -1
BITMAP
3FFC
C003
CC33
CC33
C003
CFF3
C003
3FFC
ENDCHAR
STARTCHAR invsmileface
ENCODING 9787
SWIDTH 2000 0
DWIDTH 16 0
BBX 16 8 0 -1
BITMAP
3FFC
FFFF
F3CF
F3CF
FFFF
FFFF
F00F
3FFC
ENDCHAR
STARTCHAR sun
ENCODING 9788
SWIDTH 2000 0
DWIDTH 16 0
BBX 16 8 0 -1
BITMAP
30C3
0CCC
0330
3C0F
0330
0CCC
30C3
0000
ENDCHAR
STARTCHAR female
ENCODING 9792
SWIDTH 2000 0
DWIDTH 16 0
BBX 16 8 0 -1
BITMAP
03F0
0C0C
0C0C
0C0C
03F0
00C0
0FFC
00C0
ENDCHAR
STARTCHAR male
ENCODING 9794
SWIDTH 2000 0
DWIDTH 16 0
BBX 16 8 0 -1
BITMAP
003F
000F
0033
0FC0
30C0
30C0
0F00
0000
ENDCHAR
STARTCHAR spade
ENCODING 9824
SWIDTH 2000 0
DWIDTH 16 0
BBX 16 8 0 -1
BITMAP
00C0
03F0
0FFC
3FFF
3FFF
03F0
0FFC
0000
ENDCHAR
STARTCHAR club
ENCODING 9827
SWIDTH 2000 0
DWIDTH 16 0
BBX 16 8 0 -1
BITMAP
03F0
03F0
3FFF
3FFF
3CCF
00C0
0FFC
0000
ENDCHAR
STARTCHAR heart
ENCODING 9829
SWIDTH 2000 0
DWIDTH 16 0
BBX 16 8 0 -1
BITMAP
0F3C
3FFF
3FFF
3FFF
0FFC
03F0
00C0
0000
ENDCHAR
STARTCHAR diamond
ENCODING 9830
SWIDTH 2000 0
DWIDTH 16 0
BBX 16 8 0 -1
BITMAP
00C0
03F0
0FFC
3FFF
0FFC
03F0
00C0
0000
ENDCHAR
STARTCHAR musicalnote
ENCODING 9834
SWIDTH 2000 0
DWIDTH 16 0
BBX 16 8 0 -1
BITMAP
00F0
00FC
00C3
00C3
00C3
03CC
0FC0
0F00
ENDCHAR
STARTCHAR musicalnotedbl
ENCODING 9835
SWIDTH 2000 0
DWIDTH 16 0
BBX 16 8 0 -1
BITMAP
03FF
0303
03FF
0303
0F03
3F0F
3C3F
003C
ENDCHAR
STARTCHAR uni3044
ENCODING 12356
SWIDTH 2000 0
DWIDTH 16 0
BBX 16 8 0 -1
BITMAP
0000
0000
0000
0000
0000
0000
0000
0000
ENDCHAR
STARTCHAR uni3046
ENCODING 12358
SWIDTH 2000 0
DWIDTH 16 0
BBX 16 8 0 -1
BITMAP
0000
0000
0000
0000
0000
0000
0000
0000
ENDCHAR
STARTCHAR uni304B
ENCODING 12363
SWIDTH 2000 0
DWIDTH 16 0
BBX 16 8 0 -1
BITMAP
0000
0000
0000
0000
0000
0000
0000
0000
ENDCHAR
STARTCHAR uni3057
ENCODING 12375
SWIDTH 2000 0
DWIDTH 16 0
BBX 16 8 0 -1
BITMAP
0000
0000
0000
0000
0000
0000
0000
0000
ENDCHAR
STARTCHAR uni306E
ENCODING 12398
SWIDTH 2000 0
DWIDTH 16 0
BBX 16 8 0 -1
BITMAP
0000
0000
0000
0000
0000
0000
0000
0000
ENDCHAR
STARTCHAR uni3093
ENCODING 12435
SWIDTH 2000 0
DWIDTH 16 0
BBX 16 8 0 -1
BITMAP
0000
0000
0000
0000
0000
0000
0000
0000
ENDCHAR
STARTCHAR .notdef
ENCODING -1
SWIDTH 2000 0
DWIDTH 16 0
BBX 15 6 1 0
BITMAP
FFFE
8002
8002
8002
8002
FFFE
ENDCHAR
ENDFONT
