STARTFONT 2.1
FONT c-64-pixel-30px
SIZE 30 75 75
FONTBOUNDINGBOX 35 35 0 0
STARTPROPERTIES 5
PIXEL_SIZE 30
FONT_ASCENT 35
FONT_DESCENT 0
CHARSET_REGISTRY "ISO10646"
CHARSET_ENCODING "1"
ENDPROPERTIES
CHARS 102
STARTCHAR space
ENCODING 32
SWIDTH 500 0
DWIDTH 15 0
BBX 1 1 0 0
BITMAP
00
ENDCHAR
STARTCHAR exclam
ENCODING 33
SWIDTH 500 0
DWIDTH 15 0
BBX 10 35 0 0
BITMAP
FFC0
FFC0
FFC0
FFC0
FFC0
0000
FFC0
FFC0
FFC0
FFC0
FFC0
FFC0
FFC0
FFC0
FFC0
FFC0
FFC0
FFC0
FFC0
FFC0
0000
FFC0
FFC0
FFC0
FFC0
0000
0000
0000
0000
0000
FFC0
FFC0
FFC0
FFC0
FFC0
ENDCHAR
STARTCHAR quotedbl
ENCODING 34
SWIDTH 1000 0
DWIDTH 30 0
BBX 25 10 0 25
BITMAP
FFC1FF80
FFC1FF80
FFC1FF80
FFC1FF80
FFC1FF80
00000000
FFC1FF80
FFC1FF80
FFC1FF80
FFC1FF80
ENDCHAR
STARTCHAR numbersign
ENCODING 35
SWIDTH 1333 0
DWIDTH 40 0
BBX 35 35 0 0
BITMAP
07FC0FF800
07FC0FF800
07FC0FF800
07FC0FF800
07FC0FF800
0000000000
07FC0FF800
07FC0FF800
07FC0FF800
07FC0FF800
FFFDFFFBE0
FFFDFFFBE0
FFFDFFFBE0
FFFDFFFBE0
FFFDFFFBE0
07FC0FF800
07FC0FF800
07FC0FF800
07FC0FF800
07FC0FF800
0000000000
FFFDFFFBE0
FFFDFFFBE0
FFFDFFFBE0
FFFDFFFBE0
07FC0FF800
07FC0FF800
07FC0FF800
07FC0FF800
07FC0FF800
07FC0FF800
07FC0FF800
07FC0FF800
07FC0FF800
07FC0FF800
ENDCHAR
STARTCHAR dollar
ENCODING 36
SWIDTH 1167 0
DWIDTH 35 0
BBX 29 35 0 0
BITMAP
003DF000
003DF000
003DF000
003DF000
003DF000
00000000
07FDFFF8
07FDFFF8
07FDFFF8
07FDFFF8
FFC00000
FFC00000
FFC00000
FFC00000
FFC00000
07FDFF80
07FDFF80
07FDFF80
07FDFF80
07FDFF80
00000000
00000FF8
00000FF8
00000FF8
00000FF8
FFFDFF80
FFFDFF80
FFFDFF80
FFFDFF80
FFFDFF80
003DF000
003DF000
003DF000
003DF000
003DF000
ENDCHAR
STARTCHAR percent
ENCODING 37
SWIDTH 1167 0
DWIDTH 35 0
BBX 29 35 0 0
BITMAP
FFC00078
FFC00078
FFC00078
FFC00078
FFC00078
00000000
FFC00FF8
FFC00FF8
FFC00FF8
FFC00FF8
0001FF80
0001FF80
0001FF80
0001FF80
0001FF80
003DF000
003DF000
003DF000
003DF000
003DF000
00000000
07FC0000
07FC0000
07FC0000
07FC0000
FFC00FF8
FFC00FF8
FFC00FF8
FFC00FF8
FFC00FF8
F8000FF8
F8000FF8
F8000FF8
F8000FF8
F8000FF8
ENDCHAR
STARTCHAR ampersand
ENCODING 38
SWIDTH 1333 0
DWIDTH 40 0
BBX 35 35 0 0
BITMAP
07FDFF8000
07FDFF8000
07FDFF8000
07FDFF8000
07FDFF8000
0000000000
FFC00FF800
FFC00FF800
FFC00FF800
FFC00FF800
07FDFF8000
07FDFF8000
07FDFF8000
07FDFF8000
07FDFF8000
07FDF00000
07FDF00000
07FDF00000
07FDF00000
07FDF00000
0000000000
FFC00FFBE0
FFC00FFBE0
FFC00FFBE0
FFC00FFBE0
FFC00FF800
FFC00FF800
FFC00FF800
FFC00FF800
FFC00FF800
07FDFFFBE0
07FDFFFBE0
07FDFFFBE0
07FDFFFBE0
07FDFFFBE0
ENDCHAR
STARTCHAR quotesingle
ENCODING 39
SWIDTH 500 0
DWIDTH 15 0
BBX 10 10 0 25
BITMAP
FFC0
FFC0
FFC0
FFC0
FFC0
0000
FFC0
FFC0
FFC0
FFC0
ENDCHAR
STARTCHAR parenleft
ENCODING 40
SWIDTH 833 0
DWIDTH 25 0
BBX 20 35 0 0
BITMAP
003DF0
003DF0
003DF0
003DF0
003DF0
000000
07FC00
07FC00
07FC00
07FC00
FFC000
FFC000
FFC000
FFC000
FFC000
FFC000
FFC000
FFC000
FFC000
FFC000
000000
FFC000
FFC000
FFC000
FFC000
07FC00
07FC00
07FC00
07FC00
07FC00
003DF0
003DF0
003DF0
003DF0
003DF0
ENDCHAR
STARTCHAR parenright
ENCODING 41
SWIDTH 833 0
DWIDTH 25 0
BBX 20 35 0 0
BITMAP
FFC000
FFC000
FFC000
FFC000
FFC000
000000
07FC00
07FC00
07FC00
07FC00
003DF0
003DF0
003DF0
003DF0
003DF0
003DF0
003DF0
003DF0
003DF0
003DF0
000000
003DF0
003DF0
003DF0
003DF0
07FC00
07FC00
07FC00
07FC00
07FC00
FFC000
FFC000
FFC000
FFC000
FFC000
ENDCHAR
STARTCHAR asterisk
ENCODING 42
SWIDTH 1167 0
DWIDTH 35 0
BBX 29 24 0 5
BITMAP
FFC00FF8
FFC00FF8
FFC00FF8
FFC00FF8
07FDFF80
07FDFF80
07FDFF80
07FDFF80
07FDFF80
FFFDFFF8
FFFDFFF8
FFFDFFF8
FFFDFFF8
FFFDFFF8
00000000
07FDFF80
07FDFF80
07FDFF80
07FDFF80
FFC00FF8
FFC00FF8
FFC00FF8
FFC00FF8
FFC00FF8
ENDCHAR
STARTCHAR plus
ENCODING 43
SWIDTH 1000 0
DWIDTH 30 0
BBX 25 24 0 5
BITMAP
003C0000
003C0000
003C0000
003C0000
003C0000
003C0000
003C0000
003C0000
003C0000
FFFDFF80
FFFDFF80
FFFDFF80
FFFDFF80
FFFDFF80
00000000
003C0000
003C0000
003C0000
003C0000
003C0000
003C0000
003C0000
003C0000
003C0000
ENDCHAR
STARTCHAR comma
ENCODING 44
SWIDTH 500 0
DWIDTH 15 0
BBX 10 20 0 0
BITMAP
FFC0
FFC0
FFC0
FFC0
FFC0
0000
FFC0
FFC0
FFC0
FFC0
07C0
07C0
07C0
07C0
07C0
F800
F800
F800
F800
F800
ENDCHAR
STARTCHAR hyphen
ENCODING 45
SWIDTH 1000 0
DWIDTH 30 0
BBX 25 5 0 15
BITMAP
FFFDFF80
FFFDFF80
FFFDFF80
FFFDFF80
FFFDFF80
ENDCHAR
STARTCHAR period
ENCODING 46
SWIDTH 500 0
DWIDTH 15 0
BBX 10 10 0 0
BITMAP
FFC0
FFC0
FFC0
FFC0
FFC0
FFC0
FFC0
FFC0
FFC0
FFC0
ENDCHAR
STARTCHAR slash
ENCODING 47
SWIDTH 1167 0
DWIDTH 35 0
BBX 29 35 0 0
BITMAP
00000078
00000078
00000078
00000078
00000078
00000000
00000FF8
00000FF8
00000FF8
00000FF8
0001FF80
0001FF80
0001FF80
0001FF80
0001FF80
003DF000
003DF000
003DF000
003DF000
003DF000
00000000
07FC0000
07FC0000
07FC0000
07FC0000
FFC00000
FFC00000
FFC00000
FFC00000
FFC00000
F8000000
F8000000
F8000000
F8000000
F8000000
ENDCHAR
STARTCHAR zero
ENCODING 48
SWIDTH 1167 0
DWIDTH 35 0
BBX 29 35 0 0
BITMAP
07FDFF80
07FDFF80
07FDFF80
07FDFF80
07FDFF80
00000000
FFC00FF8
FFC00FF8
FFC00FF8
FFC00FF8
FFC1FFF8
FFC1FFF8
FFC1FFF8
FFC1FFF8
FFC1FFF8
FFFC0FF8
FFFC0FF8
FFFC0FF8
FFFC0FF8
FFFC0FF8
00000000
FFC00FF8
FFC00FF8
FFC00FF8
FFC00FF8
FFC00FF8
FFC00FF8
FFC00FF8
FFC00FF8
FFC00FF8
07FDFF80
07FDFF80
07FDFF80
07FDFF80
07FDFF80
ENDCHAR
STARTCHAR one
ENCODING 49
SWIDTH 833 0
DWIDTH 25 0
BBX 20 35 0 0
BITMAP
07FC00
07FC00
07FC00
07FC00
07FC00
000000
FFFC00
FFFC00
FFFC00
FFFC00
07FC00
07FC00
07FC00
07FC00
07FC00
07FC00
07FC00
07FC00
07FC00
07FC00
000000
07FC00
07FC00
07FC00
07FC00
07FC00
07FC00
07FC00
07FC00
07FC00
FFFDF0
FFFDF0
FFFDF0
FFFDF0
FFFDF0
ENDCHAR
STARTCHAR two
ENCODING 50
SWIDTH 1167 0
DWIDTH 35 0
BBX 29 35 0 0
BITMAP
07FDFF80
07FDFF80
07FDFF80
07FDFF80
07FDFF80
00000000
FFC00FF8
FFC00FF8
FFC00FF8
FFC00FF8
00000FF8
00000FF8
00000FF8
00000FF8
00000FF8
0001FF80
0001FF80
0001FF80
0001FF80
0001FF80
00000000
07FC0000
07FC0000
07FC0000
07FC0000
FFC00000
FFC00000
FFC00000
FFC00000
FFC00000
FFFDFFF8
FFFDFFF8
FFFDFFF8
FFFDFFF8
FFFDFFF8
ENDCHAR
STARTCHAR three
ENCODING 51
SWIDTH 1167 0
DWIDTH 35 0
BBX 29 35 0 0
BITMAP
07FDFF80
07FDFF80
07FDFF80
07FDFF80
07FDFF80
00000000
FFC00FF8
FFC00FF8
FFC00FF8
FFC00FF8
00000FF8
00000FF8
00000FF8
00000FF8
00000FF8
003DFF80
003DFF80
003DFF80
003DFF80
003DFF80
00000000
00000FF8
00000FF8
00000FF8
00000FF8
FFC00FF8
FFC00FF8
FFC00FF8
FFC00FF8
FFC00FF8
07FDFF80
07FDFF80
07FDFF80
07FDFF80
07FDFF80
ENDCHAR
STARTCHAR four
ENCODING 52
SWIDTH 1167 0
DWIDTH 35 0
BBX 29 35 0 0
BITMAP
0001FF80
0001FF80
0001FF80
0001FF80
0001FF80
00000000
003DFF80
003DFF80
003DFF80
003DFF80
07FDFF80
07FDFF80
07FDFF80
07FDFF80
07FDFF80
F801FFF8
F801FFF8
F801FFF8
F801FFF8
F801FFF8
00000000
FFFDFFF8
FFFDFFF8
FFFDFFF8
FFFDFFF8
0001FF80
0001FF80
0001FF80
0001FF80
0001FF80
0001FF80
0001FF80
0001FF80
0001FF80
0001FF80
ENDCHAR
STARTCHAR five
ENCODING 53
SWIDTH 1167 0
DWIDTH 35 0
BBX 29 35 0 0
BITMAP
FFFDFFF8
FFFDFFF8
FFFDFFF8
FFFDFFF8
FFFDFFF8
00000000
FFC00000
FFC00000
FFC00000
FFC00000
FFFDFF80
FFFDFF80
FFFDFF80
FFFDFF80
FFFDFF80
00000FF8
00000FF8
00000FF8
00000FF8
00000FF8
00000000
00000FF8
00000FF8
00000FF8
00000FF8
FFC00FF8
FFC00FF8
FFC00FF8
FFC00FF8
FFC00FF8
07FDFF80
07FDFF80
07FDFF80
07FDFF80
07FDFF80
ENDCHAR
STARTCHAR six
ENCODING 54
SWIDTH 1167 0
DWIDTH 35 0
BBX 29 35 0 0
BITMAP
07FDFF80
07FDFF80
07FDFF80
07FDFF80
07FDFF80
00000000
FFC00FF8
FFC00FF8
FFC00FF8
FFC00FF8
FFC00000
FFC00000
FFC00000
FFC00000
FFC00000
FFFDFF80
FFFDFF80
FFFDFF80
FFFDFF80
FFFDFF80
00000000
FFC00FF8
FFC00FF8
FFC00FF8
FFC00FF8
FFC00FF8
FFC00FF8
FFC00FF8
FFC00FF8
FFC00FF8
07FDFF80
07FDFF80
07FDFF80
07FDFF80
07FDFF80
ENDCHAR
STARTCHAR seven
ENCODING 55
SWIDTH 1167 0
DWIDTH 35 0
BBX 29 35 0 0
BITMAP
FFFDFFF8
FFFDFFF8
FFFDFFF8
FFFDFFF8
FFFDFFF8
00000000
FFC00FF8
FFC00FF8
FFC00FF8
FFC00FF8
0001FF80
0001FF80
0001FF80
0001FF80
0001FF80
003DF000
003DF000
003DF000
003DF000
003DF000
00000000
003DF000
003DF000
003DF000
003DF000
003DF000
003DF000
003DF000
003DF000
003DF000
003DF000
003DF000
003DF000
003DF000
003DF000
ENDCHAR
STARTCHAR eight
ENCODING 56
SWIDTH 1167 0
DWIDTH 35 0
BBX 29 35 0 0
BITMAP
07FDFF80
07FDFF80
07FDFF80
07FDFF80
07FDFF80
00000000
FFC00FF8
FFC00FF8
FFC00FF8
FFC00FF8
FFC00FF8
FFC00FF8
FFC00FF8
FFC00FF8
FFC00FF8
07FDFF80
07FDFF80
07FDFF80
07FDFF80
07FDFF80
00000000
FFC00FF8
FFC00FF8
FFC00FF8
FFC00FF8
FFC00FF8
FFC00FF8
FFC00FF8
FFC00FF8
FFC00FF8
07FDFF80
07FDFF80
07FDFF80
07FDFF80
07FDFF80
ENDCHAR
STARTCHAR nine
ENCODING 57
SWIDTH 1167 0
DWIDTH 35 0
BBX 29 35 0 0
BITMAP
07FDFF80
07FDFF80
07FDFF80
07FDFF80
07FDFF80
00000000
FFC00FF8
FFC00FF8
FFC00FF8
FFC00FF8
FFC00FF8
FFC00FF8
FFC00FF8
FFC00FF8
FFC00FF8
07FDFFF8
07FDFFF8
07FDFFF8
07FDFFF8
07FDFFF8
00000000
00000FF8
00000FF8
00000FF8
00000FF8
FFC00FF8
FFC00FF8
FFC00FF8
FFC00FF8
FFC00FF8
07FDFF80
07FDFF80
07FDFF80
07FDFF80
07FDFF80
ENDCHAR
STARTCHAR colon
ENCODING 58
SWIDTH 500 0
DWIDTH 15 0
BBX 10 29 0 0
BITMAP
FFC0
FFC0
FFC0
FFC0
FFC0
FFC0
FFC0
FFC0
FFC0
0000
0000
0000
0000
0000
0000
0000
0000
0000
0000
FFC0
FFC0
FFC0
FFC0
FFC0
FFC0
FFC0
FFC0
FFC0
FFC0
ENDCHAR
STARTCHAR semicolon
ENCODING 59
SWIDTH 500 0
DWIDTH 15 0
BBX 10 29 0 0
BITMAP
FFC0
FFC0
FFC0
FFC0
FFC0
FFC0
FFC0
FFC0
FFC0
0000
0000
0000
0000
0000
0000
FFC0
FFC0
FFC0
FFC0
FFC0
FFC0
FFC0
FFC0
FFC0
07C0
07C0
07C0
07C0
07C0
ENDCHAR
STARTCHAR less
ENCODING 60
SWIDTH 833 0
DWIDTH 25 0
BBX 20 24 0 5
BITMAP
003DF0
003DF0
003DF0
003DF0
07FC00
07FC00
07FC00
07FC00
07FC00
FFC000
FFC000
FFC000
FFC000
FFC000
000000
07FC00
07FC00
07FC00
07FC00
003DF0
003DF0
003DF0
003DF0
003DF0
ENDCHAR
STARTCHAR equal
ENCODING 61
SWIDTH 1000 0
DWIDTH 30 0
BBX 25 15 0 10
BITMAP
FFFDFF80
FFFDFF80
FFFDFF80
FFFDFF80
FFFDFF80
00000000
00000000
00000000
00000000
00000000
00000000
FFFDFF80
FFFDFF80
FFFDFF80
FFFDFF80
ENDCHAR
STARTCHAR greater
ENCODING 62
SWIDTH 833 0
DWIDTH 25 0
BBX 20 24 0 5
BITMAP
FFC000
FFC000
FFC000
FFC000
07FC00
07FC00
07FC00
07FC00
07FC00
003DF0
003DF0
003DF0
003DF0
003DF0
000000
07FC00
07FC00
07FC00
07FC00
FFC000
FFC000
FFC000
FFC000
FFC000
ENDCHAR
STARTCHAR question
ENCODING 63
SWIDTH 1167 0
DWIDTH 35 0
BBX 29 35 0 0
BITMAP
07FDFF80
07FDFF80
07FDFF80
07FDFF80
07FDFF80
00000000
FFC00FF8
FFC00FF8
FFC00FF8
FFC00FF8
00000FF8
00000FF8
00000FF8
00000FF8
00000FF8
0001FF80
0001FF80
0001FF80
0001FF80
0001FF80
00000000
003DF000
003DF000
003DF000
003DF000
00000000
00000000
00000000
00000000
00000000
003DF000
003DF000
003DF000
003DF000
003DF000
ENDCHAR
STARTCHAR at
ENCODING 64
SWIDTH 1167 0
DWIDTH 35 0
BBX 29 35 0 0
BITMAP
07FDFF80
07FDFF80
07FDFF80
07FDFF80
07FDFF80
00000000
FFC00FF8
FFC00FF8
FFC00FF8
FFC00FF8
FFC1FFF8
FFC1FFF8
FFC1FFF8
FFC1FFF8
FFC1FFF8
FFC1FFF8
FFC1FFF8
FFC1FFF8
FFC1FFF8
FFC1FFF8
00000000
FFC00000
FFC00000
FFC00000
FFC00000
FFC00078
FFC00078
FFC00078
FFC00078
FFC00078
07FDFF80
07FDFF80
07FDFF80
07FDFF80
07FDFF80
ENDCHAR
STARTCHAR A
ENCODING 65
SWIDTH 1167 0
DWIDTH 35 0
BBX 29 35 0 0
BITMAP
003DF000
003DF000
003DF000
003DF000
003DF000
00000000
07FDFF80
07FDFF80
07FDFF80
07FDFF80
FFC00FF8
FFC00FF8
FFC00FF8
FFC00FF8
FFC00FF8
FFFDFFF8
FFFDFFF8
FFFDFFF8
FFFDFFF8
FFFDFFF8
00000000
FFC00FF8
FFC00FF8
FFC00FF8
FFC00FF8
FFC00FF8
FFC00FF8
FFC00FF8
FFC00FF8
FFC00FF8
FFC00FF8
FFC00FF8
FFC00FF8
FFC00FF8
FFC00FF8
ENDCHAR
STARTCHAR B
ENCODING 66
SWIDTH 1167 0
DWIDTH 35 0
BBX 29 35 0 0
BITMAP
FFFDFF80
FFFDFF80
FFFDFF80
FFFDFF80
FFFDFF80
00000000
FFC00FF8
FFC00FF8
FFC00FF8
FFC00FF8
FFC00FF8
FFC00FF8
FFC00FF8
FFC00FF8
FFC00FF8
FFFDFF80
FFFDFF80
FFFDFF80
FFFDFF80
FFFDFF80
00000000
FFC00FF8
FFC00FF8
FFC00FF8
FFC00FF8
FFC00FF8
FFC00FF8
FFC00FF8
FFC00FF8
FFC00FF8
FFFDFF80
FFFDFF80
FFFDFF80
FFFDFF80
FFFDFF80
ENDCHAR
STARTCHAR C
ENCODING 67
SWIDTH 1167 0
DWIDTH 35 0
BBX 29 35 0 0
BITMAP
07FDFF80
07FDFF80
07FDFF80
07FDFF80
07FDFF80
00000000
FFC00FF8
FFC00FF8
FFC00FF8
FFC00FF8
FFC00000
FFC00000
FFC00000
FFC00000
FFC00000
FFC00000
FFC00000
FFC00000
FFC00000
FFC00000
00000000
FFC00000
FFC00000
FFC00000
FFC00000
FFC00FF8
FFC00FF8
FFC00FF8
FFC00FF8
FFC00FF8
07FDFF80
07FDFF80
07FDFF80
07FDFF80
07FDFF80
ENDCHAR
STARTCHAR D
ENCODING 68
SWIDTH 1167 0
DWIDTH 35 0
BBX 29 35 0 0
BITMAP
FFFDF000
FFFDF000
FFFDF000
FFFDF000
FFFDF000
00000000
FFC1FF80
FFC1FF80
FFC1FF80
FFC1FF80
FFC00FF8
FFC00FF8
FFC00FF8
FFC00FF8
FFC00FF8
FFC00FF8
FFC00FF8
FFC00FF8
FFC00FF8
FFC00FF8
00000000
FFC00FF8
FFC00FF8
FFC00FF8
FFC00FF8
FFC1FF80
FFC1FF80
FFC1FF80
FFC1FF80
FFC1FF80
FFFDF000
FFFDF000
FFFDF000
FFFDF000
FFFDF000
ENDCHAR
STARTCHAR E
ENCODING 69
SWIDTH 1000 0
DWIDTH 30 0
BBX 25 35 0 0
BITMAP
FFFDFF80
FFFDFF80
FFFDFF80
FFFDFF80
FFFDFF80
00000000
FFC00000
FFC00000
FFC00000
FFC00000
FFC00000
FFC00000
FFC00000
FFC00000
FFC00000
FFFDF000
FFFDF000
FFFDF000
FFFDF000
FFFDF000
00000000
FFC00000
FFC00000
FFC00000
FFC00000
FFC00000
FFC00000
FFC00000
FFC00000
FFC00000
FFFDFF80
FFFDFF80
FFFDFF80
FFFDFF80
FFFDFF80
ENDCHAR
STARTCHAR F
ENCODING 70
SWIDTH 1000 0
DWIDTH 30 0
BBX 25 35 0 0
BITMAP
FFFDFF80
FFFDFF80
FFFDFF80
FFFDFF80
FFFDFF80
00000000
FFC00000
FFC00000
FFC00000
FFC00000
FFC00000
FFC00000
FFC00000
FFC00000
FFC00000
FFFDF000
FFFDF000
FFFDF000
FFFDF000
FFFDF000
00000000
FFC00000
FFC00000
FFC00000
FFC00000
FFC00000
FFC00000
FFC00000
FFC00000
FFC00000
FFC00000
FFC00000
FFC00000
FFC00000
FFC00000
ENDCHAR
STARTCHAR G
ENCODING 71
SWIDTH 1167 0
DWIDTH 35 0
BBX 29 35 0 0
BITMAP
07FDFF80
07FDFF80
07FDFF80
07FDFF80
07FDFF80
00000000
FFC00FF8
FFC00FF8
FFC00FF8
FFC00FF8
FFC00000
FFC00000
FFC00000
FFC00000
FFC00000
FFC1FFF8
FFC1FFF8
FFC1FFF8
FFC1FFF8
FFC1FFF8
00000000
FFC00FF8
FFC00FF8
FFC00FF8
FFC00FF8
FFC00FF8
FFC00FF8
FFC00FF8
FFC00FF8
FFC00FF8
07FDFF80
07FDFF80
07FDFF80
07FDFF80
07FDFF80
ENDCHAR
STARTCHAR H
ENCODING 72
SWIDTH 1167 0
DWIDTH 35 0
BBX 29 35 0 0
BITMAP
FFC00FF8
FFC00FF8
FFC00FF8
FFC00FF8
FFC00FF8
00000000
FFC00FF8
FFC00FF8
FFC00FF8
FFC00FF8
FFC00FF8
FFC00FF8
FFC00FF8
FFC00FF8
FFC00FF8
FFFDFFF8
FFFDFFF8
FFFDFFF8
FFFDFFF8
FFFDFFF8
00000000
FFC00FF8
FFC00FF8
FFC00FF8
FFC00FF8
FFC00FF8
FFC00FF8
FFC00FF8
FFC00FF8
FFC00FF8
FFC00FF8
FFC00FF8
FFC00FF8
FFC00FF8
FFC00FF8
ENDCHAR
STARTCHAR I
ENCODING 73
SWIDTH 1000 0
DWIDTH 30 0
BBX 20 35 5 0
BITMAP
FFBFF0
FFBFF0
FFBFF0
FFBFF0
FFBFF0
000000
07BE00
07BE00
07BE00
07BE00
07BE00
07BE00
07BE00
07BE00
07BE00
07BE00
07BE00
07BE00
07BE00
07BE00
000000
07BE00
07BE00
07BE00
07BE00
07BE00
07BE00
07BE00
07BE00
07BE00
FFBFF0
FFBFF0
FFBFF0
FFBFF0
FFBFF0
ENDCHAR
STARTCHAR J
ENCODING 74
SWIDTH 1167 0
DWIDTH 35 0
BBX 29 35 0 0
BITMAP
003DFFF8
003DFFF8
003DFFF8
003DFFF8
003DFFF8
00000000
0001FF80
0001FF80
0001FF80
0001FF80
0001FF80
0001FF80
0001FF80
0001FF80
0001FF80
0001FF80
0001FF80
0001FF80
0001FF80
0001FF80
00000000
0001FF80
0001FF80
0001FF80
0001FF80
FFC1FF80
FFC1FF80
FFC1FF80
FFC1FF80
FFC1FF80
07FDF000
07FDF000
07FDF000
07FDF000
07FDF000
ENDCHAR
STARTCHAR K
ENCODING 75
SWIDTH 1167 0
DWIDTH 35 0
BBX 29 35 0 0
BITMAP
FFC00FF8
FFC00FF8
FFC00FF8
FFC00FF8
FFC00FF8
00000000
FFC1FF80
FFC1FF80
FFC1FF80
FFC1FF80
FFFDF000
FFFDF000
FFFDF000
FFFDF000
FFFDF000
FFFC0000
FFFC0000
FFFC0000
FFFC0000
FFFC0000
00000000
FFFDF000
FFFDF000
FFFDF000
FFFDF000
FFC1FF80
FFC1FF80
FFC1FF80
FFC1FF80
FFC1FF80
FFC00FF8
FFC00FF8
FFC00FF8
FFC00FF8
FFC00FF8
ENDCHAR
STARTCHAR L
ENCODING 76
SWIDTH 1000 0
DWIDTH 30 0
BBX 25 35 0 0
BITMAP
FFC00000
FFC00000
FFC00000
FFC00000
FFC00000
00000000
FFC00000
FFC00000
FFC00000
FFC00000
FFC00000
FFC00000
FFC00000
FFC00000
FFC00000
FFC00000
FFC00000
FFC00000
FFC00000
FFC00000
00000000
FFC00000
FFC00000
FFC00000
FFC00000
FFC00000
FFC00000
FFC00000
FFC00000
FFC00000
FFFDFF80
FFFDFF80
FFFDFF80
FFFDFF80
FFFDFF80
ENDCHAR
STARTCHAR M
ENCODING 77
SWIDTH 1333 0
DWIDTH 40 0
BBX 35 35 0 0
BITMAP
FFC0007BE0
FFC0007BE0
FFC0007BE0
FFC0007BE0
FFC0007BE0
0000000000
FFFC0FFBE0
FFFC0FFBE0
FFFC0FFBE0
FFFC0FFBE0
FFFDFFFBE0
FFFDFFFBE0
FFFDFFFBE0
FFFDFFFBE0
FFFDFFFBE0
FFC1F07BE0
FFC1F07BE0
FFC1F07BE0
FFC1F07BE0
FFC1F07BE0
0000000000
FFC0007BE0
FFC0007BE0
FFC0007BE0
FFC0007BE0
FFC0007BE0
FFC0007BE0
FFC0007BE0
FFC0007BE0
FFC0007BE0
FFC0007BE0
FFC0007BE0
FFC0007BE0
FFC0007BE0
FFC0007BE0
ENDCHAR
STARTCHAR N
ENCODING 78
SWIDTH 1167 0
DWIDTH 35 0
BBX 29 35 0 0
BITMAP
FFC00FF8
FFC00FF8
FFC00FF8
FFC00FF8
FFC00FF8
00000000
FFFC0FF8
FFFC0FF8
FFFC0FF8
FFFC0FF8
FFFDFFF8
FFFDFFF8
FFFDFFF8
FFFDFFF8
FFFDFFF8
FFFDFFF8
FFFDFFF8
FFFDFFF8
FFFDFFF8
FFFDFFF8
00000000
FFC1FFF8
FFC1FFF8
FFC1FFF8
FFC1FFF8
FFC00FF8
FFC00FF8
FFC00FF8
FFC00FF8
FFC00FF8
FFC00FF8
FFC00FF8
FFC00FF8
FFC00FF8
FFC00FF8
ENDCHAR
STARTCHAR O
ENCODING 79
SWIDTH 1167 0
DWIDTH 35 0
BBX 29 35 0 0
BITMAP
07FDFF80
07FDFF80
07FDFF80
07FDFF80
07FDFF80
00000000
FFC00FF8
FFC00FF8
FFC00FF8
FFC00FF8
FFC00FF8
FFC00FF8
FFC00FF8
FFC00FF8
FFC00FF8
FFC00FF8
FFC00FF8
FFC00FF8
FFC00FF8
FFC00FF8
00000000
FFC00FF8
FFC00FF8
FFC00FF8
FFC00FF8
FFC00FF8
FFC00FF8
FFC00FF8
FFC00FF8
FFC00FF8
07FDFF80
07FDFF80
07FDFF80
07FDFF80
07FDFF80
ENDCHAR
STARTCHAR P
ENCODING 80
SWIDTH 1167 0
DWIDTH 35 0
BBX 29 35 0 0
BITMAP
FFFDFF80
FFFDFF80
FFFDFF80
FFFDFF80
FFFDFF80
00000000
FFC00FF8
FFC00FF8
FFC00FF8
FFC00FF8
FFC00FF8
FFC00FF8
FFC00FF8
FFC00FF8
FFC00FF8
FFFDFF80
FFFDFF80
FFFDFF80
FFFDFF80
FFFDFF80
00000000
FFC00000
FFC00000
FFC00000
FFC00000
FFC00000
FFC00000
FFC00000
FFC00000
FFC00000
FFC00000
FFC00000
FFC00000
FFC00000
FFC00000
ENDCHAR
STARTCHAR Q
ENCODING 81
SWIDTH 1167 0
DWIDTH 35 0
BBX 29 35 0 0
BITMAP
07FDFF80
07FDFF80
07FDFF80
07FDFF80
07FDFF80
00000000
FFC00FF8
FFC00FF8
FFC00FF8
FFC00FF8
FFC00FF8
FFC00FF8
FFC00FF8
FFC00FF8
FFC00FF8
FFC00FF8
FFC00FF8
FFC00FF8
FFC00FF8
FFC00FF8
00000000
FFC00FF8
FFC00FF8
FFC00FF8
FFC00FF8
07FDFF80
07FDFF80
07FDFF80
07FDFF80
07FDFF80
0001FFF8
0001FFF8
0001FFF8
0001FFF8
0001FFF8
ENDCHAR
STARTCHAR R
ENCODING 82
SWIDTH 1167 0
DWIDTH 35 0
BBX 29 35 0 0
BITMAP
FFFDFF80
FFFDFF80
FFFDFF80
FFFDFF80
FFFDFF80
00000000
FFC00FF8
FFC00FF8
FFC00FF8
FFC00FF8
FFC00FF8
FFC00FF8
FFC00FF8
FFC00FF8
FFC00FF8
FFFDFF80
FFFDFF80
FFFDFF80
FFFDFF80
FFFDFF80
00000000
FFFDF000
FFFDF000
FFFDF000
FFFDF000
FFC1FF80
FFC1FF80
FFC1FF80
FFC1FF80
FFC1FF80
FFC00FF8
FFC00FF8
FFC00FF8
FFC00FF8
FFC00FF8
ENDCHAR
STARTCHAR S
ENCODING 83
SWIDTH 1167 0
DWIDTH 35 0
BBX 29 35 0 0
BITMAP
07FDFF80
07FDFF80
07FDFF80
07FDFF80
07FDFF80
00000000
FFC00FF8
FFC00FF8
FFC00FF8
FFC00FF8
FFC00000
FFC00000
FFC00000
FFC00000
FFC00000
07FDFF80
07FDFF80
07FDFF80
07FDFF80
07FDFF80
00000000
00000FF8
00000FF8
00000FF8
00000FF8
FFC00FF8
FFC00FF8
FFC00FF8
FFC00FF8
FFC00FF8
07FDFF80
07FDFF80
07FDFF80
07FDFF80
07FDFF80
ENDCHAR
STARTCHAR T
ENCODING 84
SWIDTH 1167 0
DWIDTH 35 0
BBX 29 35 0 0
BITMAP
FFFDFFF8
FFFDFFF8
FFFDFFF8
FFFDFFF8
FFFDFFF8
00000000
003DF000
003DF000
003DF000
003DF000
003DF000
003DF000
003DF000
003DF000
003DF000
003DF000
003DF000
003DF000
003DF000
003DF000
00000000
003DF000
003DF000
003DF000
003DF000
003DF000
003DF000
003DF000
003DF000
003DF000
003DF000
003DF000
003DF000
003DF000
003DF000
ENDCHAR
STARTCHAR U
ENCODING 85
SWIDTH 1167 0
DWIDTH 35 0
BBX 29 35 0 0
BITMAP
FFC00FF8
FFC00FF8
FFC00FF8
FFC00FF8
FFC00FF8
00000000
FFC00FF8
FFC00FF8
FFC00FF8
FFC00FF8
FFC00FF8
FFC00FF8
FFC00FF8
FFC00FF8
FFC00FF8
FFC00FF8
FFC00FF8
FFC00FF8
FFC00FF8
FFC00FF8
00000000
FFC00FF8
FFC00FF8
FFC00FF8
FFC00FF8
FFC00FF8
FFC00FF8
FFC00FF8
FFC00FF8
FFC00FF8
07FDFF80
07FDFF80
07FDFF80
07FDFF80
07FDFF80
ENDCHAR
STARTCHAR V
ENCODING 86
SWIDTH 1167 0
DWIDTH 35 0
BBX 29 35 0 0
BITMAP
FFC00FF8
FFC00FF8
FFC00FF8
FFC00FF8
FFC00FF8
00000000
FFC00FF8
FFC00FF8
FFC00FF8
FFC00FF8
FFC00FF8
FFC00FF8
FFC00FF8
FFC00FF8
FFC00FF8
FFC00FF8
FFC00FF8
FFC00FF8
FFC00FF8
FFC00FF8
00000000
FFC00FF8
FFC00FF8
FFC00FF8
FFC00FF8
07FDFF80
07FDFF80
07FDFF80
07FDFF80
07FDFF80
003DF000
003DF000
003DF000
003DF000
003DF000
ENDCHAR
STARTCHAR W
ENCODING 87
SWIDTH 1333 0
DWIDTH 40 0
BBX 35 35 0 0
BITMAP
FFC0007BE0
FFC0007BE0
FFC0007BE0
FFC0007BE0
FFC0007BE0
0000000000
FFC0007BE0
FFC0007BE0
FFC0007BE0
FFC0007BE0
FFC0007BE0
FFC0007BE0
FFC0007BE0
FFC0007BE0
FFC0007BE0
FFC1F07BE0
FFC1F07BE0
FFC1F07BE0
FFC1F07BE0
FFC1F07BE0
0000000000
FFFDFFFBE0
FFFDFFFBE0
FFFDFFFBE0
FFFDFFFBE0
FFFC0FFBE0
FFFC0FFBE0
FFFC0FFBE0
FFFC0FFBE0
FFFC0FFBE0
FFC0007BE0
FFC0007BE0
FFC0007BE0
FFC0007BE0
FFC0007BE0
ENDCHAR
STARTCHAR X
ENCODING 88
SWIDTH 1167 0
DWIDTH 35 0
BBX 29 35 0 0
BITMAP
FFC00FF8
FFC00FF8
FFC00FF8
FFC00FF8
FFC00FF8
00000000
FFC00FF8
FFC00FF8
FFC00FF8
FFC00FF8
07FDFF80
07FDFF80
07FDFF80
07FDFF80
07FDFF80
003DF000
003DF000
003DF000
003DF000
003DF000
00000000
07FDFF80
07FDFF80
07FDFF80
07FDFF80
FFC00FF8
FFC00FF8
FFC00FF8
FFC00FF8
FFC00FF8
FFC00FF8
FFC00FF8
FFC00FF8
FFC00FF8
FFC00FF8
ENDCHAR
STARTCHAR Y
ENCODING 89
SWIDTH 1167 0
DWIDTH 35 0
BBX 29 35 0 0
BITMAP
FFC00FF8
FFC00FF8
FFC00FF8
FFC00FF8
FFC00FF8
00000000
FFC00FF8
FFC00FF8
FFC00FF8
FFC00FF8
FFC00FF8
FFC00FF8
FFC00FF8
FFC00FF8
FFC00FF8
07FDFF80
07FDFF80
07FDFF80
07FDFF80
07FDFF80
00000000
003DF000
003DF000
003DF000
003DF000
003DF000
003DF000
003DF000
003DF000
003DF000
003DF000
003DF000
003DF000
003DF000
003DF000
ENDCHAR
STARTCHAR Z
ENCODING 90
SWIDTH 1167 0
DWIDTH 35 0
BBX 29 35 0 0
BITMAP
FFFDFFF8
FFFDFFF8
FFFDFFF8
FFFDFFF8
FFFDFFF8
00000000
00000FF8
00000FF8
00000FF8
00000FF8
0001FF80
0001FF80
0001FF80
0001FF80
0001FF80
003DF000
003DF000
003DF000
003DF000
003DF000
00000000
07FC0000
07FC0000
07FC0000
07FC0000
FFC00000
FFC00000
FFC00000
FFC00000
FFC00000
FFFDFFF8
FFFDFFF8
FFFDFFF8
FFFDFFF8
FFFDFFF8
ENDCHAR
STARTCHAR bracketleft
ENCODING 91
SWIDTH 667 0
DWIDTH 20 0
BBX 14 35 0 0
BITMAP
FFFC
FFFC
FFFC
FFFC
FFFC
0000
FFC0
FFC0
FFC0
FFC0
FFC0
FFC0
FFC0
FFC0
FFC0
FFC0
FFC0
FFC0
FFC0
FFC0
0000
FFC0
FFC0
FFC0
FFC0
FFC0
FFC0
FFC0
FFC0
FFC0
FFFC
FFFC
FFFC
FFFC
FFFC
ENDCHAR
STARTCHAR backslash
ENCODING 92
SWIDTH 1167 0
DWIDTH 35 0
BBX 29 35 0 0
BITMAP
F8000000
F8000000
F8000000
F8000000
F8000000
00000000
FFC00000
FFC00000
FFC00000
FFC00000
07FC0000
07FC0000
07FC0000
07FC0000
07FC0000
003DF000
003DF000
003DF000
003DF000
003DF000
00000000
0001FF80
0001FF80
0001FF80
0001FF80
00000FF8
00000FF8
00000FF8
00000FF8
00000FF8
00000078
00000078
00000078
00000078
00000078
ENDCHAR
STARTCHAR bracketright
ENCODING 93
SWIDTH 667 0
DWIDTH 20 0
BBX 14 35 0 0
BITMAP
FFFC
FFFC
FFFC
FFFC
FFFC
0000
07FC
07FC
07FC
07FC
07FC
07FC
07FC
07FC
07FC
07FC
07FC
07FC
07FC
07FC
0000
07FC
07FC
07FC
07FC
07FC
07FC
07FC
07FC
07FC
FFFC
FFFC
FFFC
FFFC
FFFC
ENDCHAR
STARTCHAR asciicircum
ENCODING 94
SWIDTH 1000 0
DWIDTH 30 0
BBX 25 20 0 15
BITMAP
003C0000
003C0000
003C0000
003C0000
003C0000
00000000
07FDF000
07FDF000
07FDF000
07FDF000
FFC1FF80
FFC1FF80
FFC1FF80
FFC1FF80
FFC1FF80
F8000F80
F8000F80
F8000F80
F8000F80
F8000F80
ENDCHAR
STARTCHAR underscore
ENCODING 95
SWIDTH 1000 0
DWIDTH 30 0
BBX 20 5 5 0
BITMAP
FFBFF0
FFBFF0
FFBFF0
FFBFF0
FFBFF0
ENDCHAR
STARTCHAR grave
ENCODING 96
SWIDTH 667 0
DWIDTH 20 0
BBX 14 20 0 15
BITMAP
F800
F800
F800
F800
F800
0000
FFC0
FFC0
FFC0
FFC0
07FC
07FC
07FC
07FC
07FC
003C
003C
003C
003C
003C
ENDCHAR
STARTCHAR a
ENCODING 97
SWIDTH 1167 0
DWIDTH 35 0
BBX 29 25 0 0
BITMAP
07FDFF80
07FDFF80
07FDFF80
07FDFF80
07FDFF80
00000FF8
00000FF8
00000FF8
00000FF8
00000FF8
00000000
07FDFFF8
07FDFFF8
07FDFFF8
07FDFFF8
FFC00FF8
FFC00FF8
FFC00FF8
FFC00FF8
FFC00FF8
07FDFFF8
07FDFFF8
07FDFFF8
07FDFFF8
07FDFFF8
ENDCHAR
STARTCHAR b
ENCODING 98
SWIDTH 1167 0
DWIDTH 35 0
BBX 29 29 0 0
BITMAP
FFC00000
FFC00000
FFC00000
FFC00000
FFC00000
FFC00000
FFC00000
FFC00000
FFC00000
FFFDFF80
FFFDFF80
FFFDFF80
FFFDFF80
FFFDFF80
00000000
FFC00FF8
FFC00FF8
FFC00FF8
FFC00FF8
FFC00FF8
FFC00FF8
FFC00FF8
FFC00FF8
FFC00FF8
FFFDFF80
FFFDFF80
FFFDFF80
FFFDFF80
FFFDFF80
ENDCHAR
STARTCHAR c
ENCODING 99
SWIDTH 1000 0
DWIDTH 30 0
BBX 25 25 0 0
BITMAP
07FDFF80
07FDFF80
07FDFF80
07FDFF80
07FDFF80
FFC00000
FFC00000
FFC00000
FFC00000
FFC00000
00000000
FFC00000
FFC00000
FFC00000
FFC00000
FFC00000
FFC00000
FFC00000
FFC00000
FFC00000
07FDFF80
07FDFF80
07FDFF80
07FDFF80
07FDFF80
ENDCHAR
STARTCHAR d
ENCODING 100
SWIDTH 1167 0
DWIDTH 35 0
BBX 29 29 0 0
BITMAP
00000FF8
00000FF8
00000FF8
00000FF8
00000FF8
00000FF8
00000FF8
00000FF8
00000FF8
07FDFFF8
07FDFFF8
07FDFFF8
07FDFFF8
07FDFFF8
00000000
FFC00FF8
FFC00FF8
FFC00FF8
FFC00FF8
FFC00FF8
FFC00FF8
FFC00FF8
FFC00FF8
FFC00FF8
07FDFFF8
07FDFFF8
07FDFFF8
07FDFFF8
07FDFFF8
ENDCHAR
STARTCHAR e
ENCODING 101
SWIDTH 1167 0
DWIDTH 35 0
BBX 29 25 0 0
BITMAP
07FDFF80
07FDFF80
07FDFF80
07FDFF80
07FDFF80
FFC00FF8
FFC00FF8
FFC00FF8
FFC00FF8
FFC00FF8
00000000
FFFDFFF8
FFFDFFF8
FFFDFFF8
FFFDFFF8
FFC00000
FFC00000
FFC00000
FFC00000
FFC00000
07FDFF80
07FDFF80
07FDFF80
07FDFF80
07FDFF80
ENDCHAR
STARTCHAR f
ENCODING 102
SWIDTH 1000 0
DWIDTH 30 0
BBX 25 29 0 0
BITMAP
003DFF80
003DFF80
003DFF80
003DFF80
07FC0000
07FC0000
07FC0000
07FC0000
07FC0000
FFFDFF80
FFFDFF80
FFFDFF80
FFFDFF80
FFFDFF80
00000000
07FC0000
07FC0000
07FC0000
07FC0000
07FC0000
07FC0000
07FC0000
07FC0000
07FC0000
07FC0000
07FC0000
07FC0000
07FC0000
07FC0000
ENDCHAR
STARTCHAR g
ENCODING 103
SWIDTH 1167 0
DWIDTH 35 0
BBX 29 29 0 0
BITMAP
07FDFF80
07FDFF80
07FDFF80
07FDFF80
FFC00FF8
FFC00FF8
FFC00FF8
FFC00FF8
FFC00FF8
FFC00FF8
FFC00FF8
FFC00FF8
FFC00FF8
FFC00FF8
00000000
07FDFFF8
07FDFFF8
07FDFFF8
07FDFFF8
00000FF8
00000FF8
00000FF8
00000FF8
00000FF8
FFFDFF80
FFFDFF80
FFFDFF80
FFFDFF80
FFFDFF80
ENDCHAR
STARTCHAR h
ENCODING 104
SWIDTH 1167 0
DWIDTH 35 0
BBX 29 29 0 0
BITMAP
FFC00000
FFC00000
FFC00000
FFC00000
FFC00000
FFC00000
FFC00000
FFC00000
FFC00000
FFFDFF80
FFFDFF80
FFFDFF80
FFFDFF80
FFFDFF80
00000000
FFC00FF8
FFC00FF8
FFC00FF8
FFC00FF8
FFC00FF8
FFC00FF8
FFC00FF8
FFC00FF8
FFC00FF8
FFC00FF8
FFC00FF8
FFC00FF8
FFC00FF8
FFC00FF8
ENDCHAR
STARTCHAR i
ENCODING 105
SWIDTH 833 0
DWIDTH 25 0
BBX 20 35 0 0
BITMAP
07FC00
07FC00
07FC00
07FC00
07FC00
000000
000000
000000
000000
000000
FFFC00
FFFC00
FFFC00
FFFC00
FFFC00
07FC00
07FC00
07FC00
07FC00
07FC00
000000
07FC00
07FC00
07FC00
07FC00
07FC00
07FC00
07FC00
07FC00
07FC00
FFFDF0
FFFDF0
FFFDF0
FFFDF0
FFFDF0
ENDCHAR
STARTCHAR j
ENCODING 106
SWIDTH 833 0
DWIDTH 25 0
BBX 20 35 0 0
BITMAP
003DF0
003DF0
003DF0
003DF0
003DF0
000000
000000
000000
000000
000000
003DF0
003DF0
003DF0
003DF0
003DF0
003DF0
003DF0
003DF0
003DF0
003DF0
000000
003DF0
003DF0
003DF0
003DF0
003DF0
003DF0
003DF0
003DF0
003DF0
FFFC00
FFFC00
FFFC00
FFFC00
FFFC00
ENDCHAR
STARTCHAR k
ENCODING 107
SWIDTH 1167 0
DWIDTH 35 0
BBX 29 29 0 0
BITMAP
FFC00000
FFC00000
FFC00000
FFC00000
FFC00000
FFC00000
FFC00000
FFC00000
FFC00000
FFC1FF80
FFC1FF80
FFC1FF80
FFC1FF80
FFC1FF80
00000000
FFFDF000
FFFDF000
FFFDF000
FFFDF000
FFC1FF80
FFC1FF80
FFC1FF80
FFC1FF80
FFC1FF80
FFC00FF8
FFC00FF8
FFC00FF8
FFC00FF8
FFC00FF8
ENDCHAR
STARTCHAR l
ENCODING 108
SWIDTH 833 0
DWIDTH 25 0
BBX 20 29 0 0
BITMAP
FFFC00
FFFC00
FFFC00
FFFC00
07FC00
07FC00
07FC00
07FC00
07FC00
07FC00
07FC00
07FC00
07FC00
07FC00
000000
07FC00
07FC00
07FC00
07FC00
07FC00
07FC00
07FC00
07FC00
07FC00
FFFDF0
FFFDF0
FFFDF0
FFFDF0
FFFDF0
ENDCHAR
STARTCHAR m
ENCODING 109
SWIDTH 1333 0
DWIDTH 40 0
BBX 35 25 0 0
BITMAP
FFC00FF800
FFC00FF800
FFC00FF800
FFC00FF800
FFC00FF800
FFFDFFFBE0
FFFDFFFBE0
FFFDFFFBE0
FFFDFFFBE0
FFFDFFFBE0
0000000000
FFFDFFFBE0
FFFDFFFBE0
FFFDFFFBE0
FFFDFFFBE0
FFC1F07BE0
FFC1F07BE0
FFC1F07BE0
FFC1F07BE0
FFC1F07BE0
FFC0007BE0
FFC0007BE0
FFC0007BE0
FFC0007BE0
FFC0007BE0
ENDCHAR
STARTCHAR n
ENCODING 110
SWIDTH 1167 0
DWIDTH 35 0
BBX 29 25 0 0
BITMAP
FFFDFF80
FFFDFF80
FFFDFF80
FFFDFF80
FFFDFF80
FFC00FF8
FFC00FF8
FFC00FF8
FFC00FF8
FFC00FF8
00000000
FFC00FF8
FFC00FF8
FFC00FF8
FFC00FF8
FFC00FF8
FFC00FF8
FFC00FF8
FFC00FF8
FFC00FF8
FFC00FF8
FFC00FF8
FFC00FF8
FFC00FF8
FFC00FF8
ENDCHAR
STARTCHAR o
ENCODING 111
SWIDTH 1167 0
DWIDTH 35 0
BBX 29 25 0 0
BITMAP
07FDFF80
07FDFF80
07FDFF80
07FDFF80
07FDFF80
FFC00FF8
FFC00FF8
FFC00FF8
FFC00FF8
FFC00FF8
00000000
FFC00FF8
FFC00FF8
FFC00FF8
FFC00FF8
FFC00FF8
FFC00FF8
FFC00FF8
FFC00FF8
FFC00FF8
07FDFF80
07FDFF80
07FDFF80
07FDFF80
07FDFF80
ENDCHAR
STARTCHAR p
ENCODING 112
SWIDTH 1167 0
DWIDTH 35 0
BBX 29 29 0 0
BITMAP
FFFDFF80
FFFDFF80
FFFDFF80
FFFDFF80
FFC00FF8
FFC00FF8
FFC00FF8
FFC00FF8
FFC00FF8
FFC00FF8
FFC00FF8
FFC00FF8
FFC00FF8
FFC00FF8
00000000
FFFDFF80
FFFDFF80
FFFDFF80
FFFDFF80
FFC00000
FFC00000
FFC00000
FFC00000
FFC00000
FFC00000
FFC00000
FFC00000
FFC00000
FFC00000
ENDCHAR
STARTCHAR q
ENCODING 113
SWIDTH 1167 0
DWIDTH 35 0
BBX 29 29 0 0
BITMAP
07FDFFF8
07FDFFF8
07FDFFF8
07FDFFF8
FFC00FF8
FFC00FF8
FFC00FF8
FFC00FF8
FFC00FF8
FFC00FF8
FFC00FF8
FFC00FF8
FFC00FF8
FFC00FF8
00000000
07FDFFF8
07FDFFF8
07FDFFF8
07FDFFF8
00000FF8
00000FF8
00000FF8
00000FF8
00000FF8
00000FF8
00000FF8
00000FF8
00000FF8
00000FF8
ENDCHAR
STARTCHAR r
ENCODING 114
SWIDTH 1167 0
DWIDTH 35 0
BBX 29 25 0 0
BITMAP
FFFDFF80
FFFDFF80
FFFDFF80
FFFDFF80
FFFDFF80
FFC00FF8
FFC00FF8
FFC00FF8
FFC00FF8
FFC00FF8
00000000
FFC00000
FFC00000
FFC00000
FFC00000
FFC00000
FFC00000
FFC00000
FFC00000
FFC00000
FFC00000
FFC00000
FFC00000
FFC00000
FFC00000
ENDCHAR
STARTCHAR s
ENCODING 115
SWIDTH 1167 0
DWIDTH 35 0
BBX 29 25 0 0
BITMAP
07FDFFF8
07FDFFF8
07FDFFF8
07FDFFF8
07FDFFF8
FFC00000
FFC00000
FFC00000
FFC00000
FFC00000
00000000
07FDFF80
07FDFF80
07FDFF80
07FDFF80
00000FF8
00000FF8
00000FF8
00000FF8
00000FF8
FFFDFF80
FFFDFF80
FFFDFF80
FFFDFF80
FFFDFF80
ENDCHAR
STARTCHAR t
ENCODING 116
SWIDTH 1167 0
DWIDTH 35 0
BBX 29 29 0 0
BITMAP
003DF000
003DF000
003DF000
003DF000
FFFDFFF8
FFFDFFF8
FFFDFFF8
FFFDFFF8
FFFDFFF8
003DF000
003DF000
003DF000
003DF000
003DF000
00000000
003DF000
003DF000
003DF000
003DF000
003DF000
003DF000
003DF000
003DF000
003DF000
0001FFF8
0001FFF8
0001FFF8
0001FFF8
0001FFF8
ENDCHAR
STARTCHAR u
ENCODING 117
SWIDTH 1167 0
DWIDTH 35 0
BBX 29 25 0 0
BITMAP
FFC00FF8
FFC00FF8
FFC00FF8
FFC00FF8
FFC00FF8
FFC00FF8
FFC00FF8
FFC00FF8
FFC00FF8
FFC00FF8
00000000
FFC00FF8
FFC00FF8
FFC00FF8
FFC00FF8
FFC00FF8
FFC00FF8
FFC00FF8
FFC00FF8
FFC00FF8
07FDFFF8
07FDFFF8
07FDFFF8
07FDFFF8
07FDFFF8
ENDCHAR
STARTCHAR v
ENCODING 118
SWIDTH 1167 0
DWIDTH 35 0
BBX 29 25 0 0
BITMAP
FFC00FF8
FFC00FF8
FFC00FF8
FFC00FF8
FFC00FF8
FFC00FF8
FFC00FF8
FFC00FF8
FFC00FF8
FFC00FF8
00000000
FFC00FF8
FFC00FF8
FFC00FF8
FFC00FF8
07FDFF80
07FDFF80
07FDFF80
07FDFF80
07FDFF80
003DF000
003DF000
003DF000
003DF000
003DF000
ENDCHAR
STARTCHAR w
ENCODING 119
SWIDTH 1333 0
DWIDTH 40 0
BBX 35 25 0 0
BITMAP
FFC0007BE0
FFC0007BE0
FFC0007BE0
FFC0007BE0
FFC0007BE0
FFC1F07BE0
FFC1F07BE0
FFC1F07BE0
FFC1F07BE0
FFC1F07BE0
0000000000
FFFDFFFBE0
FFFDFFFBE0
FFFDFFFBE0
FFFDFFFBE0
07FDFFF800
07FDFFF800
07FDFFF800
07FDFFF800
07FDFFF800
07FC0FF800
07FC0FF800
07FC0FF800
07FC0FF800
07FC0FF800
ENDCHAR
STARTCHAR x
ENCODING 120
SWIDTH 1167 0
DWIDTH 35 0
BBX 29 25 0 0
BITMAP
FFC00FF8
FFC00FF8
FFC00FF8
FFC00FF8
FFC00FF8
07FDFF80
07FDFF80
07FDFF80
07FDFF80
07FDFF80
00000000
003DF000
003DF000
003DF000
003DF000
07FDFF80
07FDFF80
07FDFF80
07FDFF80
07FDFF80
FFC00FF8
FFC00FF8
FFC00FF8
FFC00FF8
FFC00FF8
ENDCHAR
STARTCHAR y
ENCODING 121
SWIDTH 1167 0
DWIDTH 35 0
BBX 29 29 0 0
BITMAP
FFC00FF8
FFC00FF8
FFC00FF8
FFC00FF8
FFC00FF8
FFC00FF8
FFC00FF8
FFC00FF8
FFC00FF8
FFC00FF8
FFC00FF8
FFC00FF8
FFC00FF8
FFC00FF8
00000000
07FDFFF8
07FDFFF8
07FDFFF8
07FDFFF8
0001FF80
0001FF80
0001FF80
0001FF80
0001FF80
FFFDF000
FFFDF000
FFFDF000
FFFDF000
FFFDF000
ENDCHAR
STARTCHAR z
ENCODING 122
SWIDTH 1167 0
DWIDTH 35 0
BBX 29 25 0 0
BITMAP
FFFDFFF8
FFFDFFF8
FFFDFFF8
FFFDFFF8
FFFDFFF8
0001FF80
0001FF80
0001FF80
0001FF80
0001FF80
00000000
003DF000
003DF000
003DF000
003DF000
07FC0000
07FC0000
07FC0000
07FC0000
07FC0000
FFFDFFF8
FFFDFFF8
FFFDFFF8
FFFDFFF8
FFFDFFF8
ENDCHAR
STARTCHAR braceleft
ENCODING 123
SWIDTH 833 0
DWIDTH 25 0
BBX 20 35 0 0
BITMAP
003DF0
003DF0
003DF0
003DF0
003DF0
000000
07FC00
07FC00
07FC00
07FC00
07C000
07C000
07C000
07C000
07C000
FFC000
FFC000
FFC000
FFC000
FFC000
000000
07C000
07C000
07C000
07C000
07FC00
07FC00
07FC00
07FC00
07FC00
003DF0
003DF0
003DF0
003DF0
003DF0
ENDCHAR
STARTCHAR bar
ENCODING 124
SWIDTH 500 0
DWIDTH 15 0
BBX 10 35 0 0
BITMAP
FFC0
FFC0
FFC0
FFC0
FFC0
0000
FFC0
FFC0
FFC0
FFC0
FFC0
FFC0
FFC0
FFC0
FFC0
FFC0
FFC0
FFC0
FFC0
FFC0
0000
FFC0
FFC0
FFC0
FFC0
FFC0
FFC0
FFC0
FFC0
FFC0
FFC0
FFC0
FFC0
FFC0
FFC0
ENDCHAR
STARTCHAR braceright
ENCODING 125
SWIDTH 833 0
DWIDTH 25 0
BBX 20 35 0 0
BITMAP
FFC000
FFC000
FFC000
FFC000
FFC000
000000
07FC00
07FC00
07FC00
07FC00
003C00
003C00
003C00
003C00
003C00
003DF0
003DF0
003DF0
003DF0
003DF0
000000
003C00
003C00
003C00
003C00
07FC00
07FC00
07FC00
07FC00
07FC00
FFC000
FFC000
FFC000
FFC000
FFC000
ENDCHAR
STARTCHAR asciitilde
ENCODING 126
SWIDTH 1167 0
DWIDTH 35 0
BBX 29 20 0 5
BITMAP
07C00000
07C00000
07C00000
07C00000
07C00000
FFFC0078
FFFC0078
FFFC0078
FFFC0078
FFFC0078
00000000
F801FFF8
F801FFF8
F801FFF8
F801FFF8
00000F80
00000F80
00000F80
00000F80
00000F80
ENDCHAR
STARTCHAR quoteleft
ENCODING 8216
SWIDTH 500 0
DWIDTH 15 0
BBX 10 20 0 15
BITMAP
07C0
07C0
07C0
07C0
07C0
0000
F800
F800
F800
F800
FFC0
FFC0
FFC0
FFC0
FFC0
FFC0
FFC0
FFC0
FFC0
FFC0
ENDCHAR
STARTCHAR quoteright
ENCODING 8217
SWIDTH 500 0
DWIDTH 15 0
BBX 10 20 0 15
BITMAP
FFC0
FFC0
FFC0
FFC0
FFC0
0000
FFC0
FFC0
FFC0
FFC0
07C0
07C0
07C0
07C0
07C0
F800
F800
F800
F800
F800
ENDCHAR
STARTCHAR quotedblleft
ENCODING 8220
SWIDTH 1000 0
DWIDTH 30 0
BBX 25 20 0 15
BITMAP
07C00F80
07C00F80
07C00F80
07C00F80
07C00F80
00000000
F801F000
F801F000
F801F000
F801F000
FFC1FF80
FFC1FF80
FFC1FF80
FFC1FF80
FFC1FF80
FFC1FF80
FFC1FF80
FFC1FF80
FFC1FF80
FFC1FF80
ENDCHAR
STARTCHAR quotedblright
ENCODING 8221
SWIDTH 1000 0
DWIDTH 30 0
BBX 25 20 0 15
BITMAP
FFC1FF80
FFC1FF80
FFC1FF80
FFC1FF80
FFC1FF80
00000000
FFC1FF80
FFC1FF80
FFC1FF80
FFC1FF80
07C00F80
07C00F80
07C00F80
07C00F80
07C00F80
F801F000
F801F000
F801F000
F801F000
F801F000
ENDCHAR
STARTCHAR .notdef
ENCODING -1
SWIDTH 933 0
DWIDTH 28 0
BBX 23 30 0 0
BITMAP
FFFFFE
C00006
C0000A
A00012
900012
880022
880042
840082
820082
810102
810202
808402
804402
802802
803002
803002
802802
804402
808402
810202
810102
820082
840082
880042
880022
900012
A00012
C0000A
C00006
FFFFFE
ENDCHAR
STARTCHAR glyph00001
ENCODING -1
SWIDTH 167 0
DWIDTH 5 0
BBX 1 1 0 0
BITMAP
00
ENDCHAR
STARTCHAR glyph00002
ENCODING -1
SWIDTH 167 0
DWIDTH 5 0
BBX 1 1 0 0
BITMAP
00
ENDCHAR
ENDFONT
