STARTFONT 2.1
FONT c-64-6px
SIZE 6 75 75
FONTBOUNDINGBOX 8 7 0 0
STARTPROPERTIES 5
PIXEL_SIZE 6
FONT_ASCENT 7
FONT_DESCENT 0
CHARSET_REGISTRY "ISO10646"
CHARSET_ENCODING "1"
ENDPROPERTIES
CHARS 102
STARTCHAR space
ENCODING 32
SWIDTH 500 0
DWIDTH 3 0
BBX 1 1 0 0
BITMAP
00
ENDCHAR
STARTCHAR exclam
ENCODING 33
SWIDTH 500 0
DWIDTH 3 0
BBX 2 7 0 0
BITMAP
C0
C0
C0
C0
C0
00
C0
ENDCHAR
STARTCHAR quotedbl
ENCODING 34
SWIDTH 1000 0
DWIDTH 6 0
BBX 5 2 0 5
BITMAP
D8
D8
ENDCHAR
STARTCHAR numbersign
ENCODING 35
SWIDTH 1333 0
DWIDTH 8 0
BBX 7 7 0 0
BITMAP
6C
6C
FE
6C
FE
6C
6C
ENDCHAR
STARTCHAR dollar
ENCODING 36
SWIDTH 1167 0
DWIDTH 7 0
BBX 6 7 0 0
BITMAP
30
7C
C0
78
0C
F8
30
ENDCHAR
STARTCHAR percent
ENCODING 37
SWIDTH 1167 0
DWIDTH 7 0
BBX 6 7 0 0
BITMAP
C4
CC
18
30
60
CC
8C
ENDCHAR
STARTCHAR ampersand
ENCODING 38
SWIDTH 1333 0
DWIDTH 8 0
BBX 7 7 0 0
BITMAP
78
CC
78
70
CE
CC
7E
ENDCHAR
STARTCHAR quotesingle
ENCODING 39
SWIDTH 500 0
DWIDTH 3 0
BBX 2 2 0 5
BITMAP
C0
C0
ENDCHAR
STARTCHAR parenleft
ENCODING 40
SWIDTH 1000 0
DWIDTH 6 0
BBX 4 7 1 0
BITMAP
30
60
C0
C0
C0
60
30
ENDCHAR
STARTCHAR parenright
ENCODING 41
SWIDTH 833 0
DWIDTH 5 0
BBX 4 7 0 0
BITMAP
C0
60
30
30
30
60
C0
ENDCHAR
STARTCHAR asterisk
ENCODING 42
SWIDTH 1500 0
DWIDTH 9 0
BBX 8 5 0 1
BITMAP
66
3C
FF
3C
66
ENDCHAR
STARTCHAR plus
ENCODING 43
SWIDTH 1000 0
DWIDTH 6 0
BBX 5 5 0 1
BITMAP
20
20
F8
20
20
ENDCHAR
STARTCHAR comma
ENCODING 44
SWIDTH 500 0
DWIDTH 3 0
BBX 2 4 0 0
BITMAP
C0
C0
40
80
ENDCHAR
STARTCHAR hyphen
ENCODING 45
SWIDTH 1000 0
DWIDTH 6 0
BBX 5 1 0 3
BITMAP
F8
ENDCHAR
STARTCHAR period
ENCODING 46
SWIDTH 500 0
DWIDTH 3 0
BBX 2 2 0 0
BITMAP
C0
C0
ENDCHAR
STARTCHAR slash
ENCODING 47
SWIDTH 1167 0
DWIDTH 7 0
BBX 6 7 0 0
BITMAP
04
0C
18
30
60
C0
80
ENDCHAR
STARTCHAR zero
ENCODING 48
SWIDTH 1167 0
DWIDTH 7 0
BBX 6 7 0 0
BITMAP
78
CC
DC
EC
CC
CC
78
ENDCHAR
STARTCHAR one
ENCODING 49
SWIDTH 833 0
DWIDTH 5 0
BBX 4 7 0 0
BITMAP
60
E0
60
60
60
60
F0
ENDCHAR
STARTCHAR two
ENCODING 50
SWIDTH 1167 0
DWIDTH 7 0
BBX 6 7 0 0
BITMAP
78
CC
0C
18
60
C0
FC
ENDCHAR
STARTCHAR three
ENCODING 51
SWIDTH 1167 0
DWIDTH 7 0
BBX 6 7 0 0
BITMAP
78
CC
0C
38
0C
CC
78
ENDCHAR
STARTCHAR four
ENCODING 52
SWIDTH 1167 0
DWIDTH 7 0
BBX 6 7 0 0
BITMAP
18
38
78
9C
FC
18
18
ENDCHAR
STARTCHAR five
ENCODING 53
SWIDTH 1167 0
DWIDTH 7 0
BBX 6 7 0 0
BITMAP
FC
C0
F8
0C
0C
CC
78
ENDCHAR
STARTCHAR six
ENCODING 54
SWIDTH 1167 0
DWIDTH 7 0
BBX 6 7 0 0
BITMAP
78
CC
C0
F8
CC
CC
78
ENDCHAR
STARTCHAR seven
ENCODING 55
SWIDTH 1167 0
DWIDTH 7 0
BBX 6 7 0 0
BITMAP
FC
CC
18
30
30
30
30
ENDCHAR
STARTCHAR eight
ENCODING 56
SWIDTH 1167 0
DWIDTH 7 0
BBX 6 7 0 0
BITMAP
78
CC
CC
78
CC
CC
78
ENDCHAR
STARTCHAR nine
ENCODING 57
SWIDTH 1167 0
DWIDTH 7 0
BBX 6 7 0 0
BITMAP
78
CC
CC
7C
0C
CC
78
ENDCHAR
STARTCHAR colon
ENCODING 58
SWIDTH 500 0
DWIDTH 3 0
BBX 2 6 0 0
BITMAP
C0
C0
00
00
C0
C0
ENDCHAR
STARTCHAR semicolon
ENCODING 59
SWIDTH 500 0
DWIDTH 3 0
BBX 2 6 0 0
BITMAP
C0
C0
00
C0
C0
40
ENDCHAR
STARTCHAR less
ENCODING 60
SWIDTH 833 0
DWIDTH 5 0
BBX 4 5 0 1
BITMAP
30
60
C0
60
30
ENDCHAR
STARTCHAR equal
ENCODING 61
SWIDTH 1000 0
DWIDTH 6 0
BBX 5 3 0 2
BITMAP
F8
00
F8
ENDCHAR
STARTCHAR greater
ENCODING 62
SWIDTH 833 0
DWIDTH 5 0
BBX 4 5 0 1
BITMAP
C0
60
30
60
C0
ENDCHAR
STARTCHAR question
ENCODING 63
SWIDTH 1167 0
DWIDTH 7 0
BBX 6 7 0 0
BITMAP
78
CC
0C
18
30
00
30
ENDCHAR
STARTCHAR at
ENCODING 64
SWIDTH 1167 0
DWIDTH 7 0
BBX 6 7 0 0
BITMAP
78
CC
DC
DC
C0
C4
78
ENDCHAR
STARTCHAR A
ENCODING 65
SWIDTH 1167 0
DWIDTH 7 0
BBX 6 7 0 0
BITMAP
30
78
CC
FC
CC
CC
CC
ENDCHAR
STARTCHAR B
ENCODING 66
SWIDTH 1167 0
DWIDTH 7 0
BBX 6 7 0 0
BITMAP
F8
CC
CC
F8
CC
CC
F8
ENDCHAR
STARTCHAR C
ENCODING 67
SWIDTH 1167 0
DWIDTH 7 0
BBX 6 7 0 0
BITMAP
78
CC
C0
C0
C0
CC
78
ENDCHAR
STARTCHAR D
ENCODING 68
SWIDTH 1167 0
DWIDTH 7 0
BBX 6 7 0 0
BITMAP
F0
D8
CC
CC
CC
D8
F0
ENDCHAR
STARTCHAR E
ENCODING 69
SWIDTH 1000 0
DWIDTH 6 0
BBX 5 7 0 0
BITMAP
F8
C0
C0
F0
C0
C0
F8
ENDCHAR
STARTCHAR F
ENCODING 70
SWIDTH 1000 0
DWIDTH 6 0
BBX 5 7 0 0
BITMAP
F8
C0
C0
F0
C0
C0
C0
ENDCHAR
STARTCHAR G
ENCODING 71
SWIDTH 1167 0
DWIDTH 7 0
BBX 6 7 0 0
BITMAP
78
CC
C0
DC
CC
CC
78
ENDCHAR
STARTCHAR H
ENCODING 72
SWIDTH 1167 0
DWIDTH 7 0
BBX 6 7 0 0
BITMAP
CC
CC
CC
FC
CC
CC
CC
ENDCHAR
STARTCHAR I
ENCODING 73
SWIDTH 1000 0
DWIDTH 6 0
BBX 4 7 1 0
BITMAP
F0
60
60
60
60
60
F0
ENDCHAR
STARTCHAR J
ENCODING 74
SWIDTH 1167 0
DWIDTH 7 0
BBX 6 7 0 0
BITMAP
3C
18
18
18
18
D8
70
ENDCHAR
STARTCHAR K
ENCODING 75
SWIDTH 1167 0
DWIDTH 7 0
BBX 6 7 0 0
BITMAP
CC
D8
F0
E0
F0
D8
CC
ENDCHAR
STARTCHAR L
ENCODING 76
SWIDTH 1000 0
DWIDTH 6 0
BBX 5 7 0 0
BITMAP
C0
C0
C0
C0
C0
C0
F8
ENDCHAR
STARTCHAR M
ENCODING 77
SWIDTH 1333 0
DWIDTH 8 0
BBX 7 7 0 0
BITMAP
C6
EE
FE
D6
C6
C6
C6
ENDCHAR
STARTCHAR N
ENCODING 78
SWIDTH 1167 0
DWIDTH 7 0
BBX 6 7 0 0
BITMAP
CC
EC
FC
FC
DC
CC
CC
ENDCHAR
STARTCHAR O
ENCODING 79
SWIDTH 1167 0
DWIDTH 7 0
BBX 6 7 0 0
BITMAP
78
CC
CC
CC
CC
CC
78
ENDCHAR
STARTCHAR P
ENCODING 80
SWIDTH 1167 0
DWIDTH 7 0
BBX 6 7 0 0
BITMAP
F8
CC
CC
F8
C0
C0
C0
ENDCHAR
STARTCHAR Q
ENCODING 81
SWIDTH 1167 0
DWIDTH 7 0
BBX 6 7 0 0
BITMAP
78
CC
CC
CC
CC
78
1C
ENDCHAR
STARTCHAR R
ENCODING 82
SWIDTH 1167 0
DWIDTH 7 0
BBX 6 7 0 0
BITMAP
F8
CC
CC
F8
F0
D8
CC
ENDCHAR
STARTCHAR S
ENCODING 83
SWIDTH 1167 0
DWIDTH 7 0
BBX 6 7 0 0
BITMAP
78
CC
C0
78
0C
CC
78
ENDCHAR
STARTCHAR T
ENCODING 84
SWIDTH 1167 0
DWIDTH 7 0
BBX 6 7 0 0
BITMAP
FC
30
30
30
30
30
30
ENDCHAR
STARTCHAR U
ENCODING 85
SWIDTH 1167 0
DWIDTH 7 0
BBX 6 7 0 0
BITMAP
CC
CC
CC
CC
CC
CC
78
ENDCHAR
STARTCHAR V
ENCODING 86
SWIDTH 1167 0
DWIDTH 7 0
BBX 6 7 0 0
BITMAP
CC
CC
CC
CC
CC
78
30
ENDCHAR
STARTCHAR W
ENCODING 87
SWIDTH 1333 0
DWIDTH 8 0
BBX 7 7 0 0
BITMAP
C6
C6
C6
D6
FE
EE
C6
ENDCHAR
STARTCHAR X
ENCODING 88
SWIDTH 1167 0
DWIDTH 7 0
BBX 6 7 0 0
BITMAP
CC
CC
78
30
78
CC
CC
ENDCHAR
STARTCHAR Y
ENCODING 89
SWIDTH 1167 0
DWIDTH 7 0
BBX 6 7 0 0
BITMAP
CC
CC
CC
78
30
30
30
ENDCHAR
STARTCHAR Z
ENCODING 90
SWIDTH 1167 0
DWIDTH 7 0
BBX 6 7 0 0
BITMAP
FC
0C
18
30
60
C0
FC
ENDCHAR
STARTCHAR bracketleft
ENCODING 91
SWIDTH 667 0
DWIDTH 4 0
BBX 3 7 0 0
BITMAP
E0
C0
C0
C0
C0
C0
E0
ENDCHAR
STARTCHAR backslash
ENCODING 92
SWIDTH 1167 0
DWIDTH 7 0
BBX 6 7 0 0
BITMAP
80
C0
60
30
18
0C
04
ENDCHAR
STARTCHAR bracketright
ENCODING 93
SWIDTH 667 0
DWIDTH 4 0
BBX 3 7 0 0
BITMAP
E0
60
60
60
60
60
E0
ENDCHAR
STARTCHAR asciicircum
ENCODING 94
SWIDTH 1000 0
DWIDTH 6 0
BBX 5 4 0 3
BITMAP
20
70
D8
88
ENDCHAR
STARTCHAR underscore
ENCODING 95
SWIDTH 1000 0
DWIDTH 6 0
BBX 4 1 1 0
BITMAP
F0
ENDCHAR
STARTCHAR grave
ENCODING 96
SWIDTH 667 0
DWIDTH 4 0
BBX 3 4 0 3
BITMAP
80
C0
60
20
ENDCHAR
STARTCHAR a
ENCODING 97
SWIDTH 1167 0
DWIDTH 7 0
BBX 6 5 0 0
BITMAP
78
0C
7C
CC
7C
ENDCHAR
STARTCHAR b
ENCODING 98
SWIDTH 1167 0
DWIDTH 7 0
BBX 6 6 0 0
BITMAP
C0
C0
F8
CC
CC
F8
ENDCHAR
STARTCHAR c
ENCODING 99
SWIDTH 1000 0
DWIDTH 6 0
BBX 5 5 0 0
BITMAP
78
C0
C0
C0
78
ENDCHAR
STARTCHAR d
ENCODING 100
SWIDTH 1167 0
DWIDTH 7 0
BBX 6 6 0 0
BITMAP
0C
0C
7C
CC
CC
7C
ENDCHAR
STARTCHAR e
ENCODING 101
SWIDTH 1167 0
DWIDTH 7 0
BBX 6 5 0 0
BITMAP
78
CC
FC
C0
78
ENDCHAR
STARTCHAR f
ENCODING 102
SWIDTH 1000 0
DWIDTH 6 0
BBX 5 6 0 0
BITMAP
38
60
F8
60
60
60
ENDCHAR
STARTCHAR g
ENCODING 103
SWIDTH 1167 0
DWIDTH 7 0
BBX 6 6 0 0
BITMAP
78
CC
CC
7C
0C
F8
ENDCHAR
STARTCHAR h
ENCODING 104
SWIDTH 1167 0
DWIDTH 7 0
BBX 6 6 0 0
BITMAP
C0
C0
F8
CC
CC
CC
ENDCHAR
STARTCHAR i
ENCODING 105
SWIDTH 833 0
DWIDTH 5 0
BBX 4 7 0 0
BITMAP
60
00
E0
60
60
60
F0
ENDCHAR
STARTCHAR j
ENCODING 106
SWIDTH 833 0
DWIDTH 5 0
BBX 4 7 0 0
BITMAP
30
00
30
30
30
30
E0
ENDCHAR
STARTCHAR k
ENCODING 107
SWIDTH 1167 0
DWIDTH 7 0
BBX 6 6 0 0
BITMAP
C0
C0
D8
F0
D8
CC
ENDCHAR
STARTCHAR l
ENCODING 108
SWIDTH 833 0
DWIDTH 5 0
BBX 4 6 0 0
BITMAP
E0
60
60
60
60
F0
ENDCHAR
STARTCHAR m
ENCODING 109
SWIDTH 1333 0
DWIDTH 8 0
BBX 7 5 0 0
BITMAP
CC
FE
FE
D6
C6
ENDCHAR
STARTCHAR n
ENCODING 110
SWIDTH 1167 0
DWIDTH 7 0
BBX 6 5 0 0
BITMAP
F8
CC
CC
CC
CC
ENDCHAR
STARTCHAR o
ENCODING 111
SWIDTH 1167 0
DWIDTH 7 0
BBX 6 5 0 0
BITMAP
78
CC
CC
CC
78
ENDCHAR
STARTCHAR p
ENCODING 112
SWIDTH 1167 0
DWIDTH 7 0
BBX 6 6 0 0
BITMAP
F8
CC
CC
F8
C0
C0
ENDCHAR
STARTCHAR q
ENCODING 113
SWIDTH 1167 0
DWIDTH 7 0
BBX 6 6 0 0
BITMAP
7C
CC
CC
7C
0C
0C
ENDCHAR
STARTCHAR r
ENCODING 114
SWIDTH 1167 0
DWIDTH 7 0
BBX 6 5 0 0
BITMAP
F8
CC
C0
C0
C0
ENDCHAR
STARTCHAR s
ENCODING 115
SWIDTH 1167 0
DWIDTH 7 0
BBX 6 5 0 0
BITMAP
7C
C0
78
0C
F8
ENDCHAR
STARTCHAR t
ENCODING 116
SWIDTH 1167 0
DWIDTH 7 0
BBX 6 6 0 0
BITMAP
30
FC
30
30
30
1C
ENDCHAR
STARTCHAR u
ENCODING 117
SWIDTH 1167 0
DWIDTH 7 0
BBX 6 5 0 0
BITMAP
CC
CC
CC
CC
7C
ENDCHAR
STARTCHAR v
ENCODING 118
SWIDTH 1167 0
DWIDTH 7 0
BBX 6 5 0 0
BITMAP
CC
CC
CC
78
30
ENDCHAR
STARTCHAR w
ENCODING 119
SWIDTH 1333 0
DWIDTH 8 0
BBX 7 5 0 0
BITMAP
C6
D6
FE
7C
6C
ENDCHAR
STARTCHAR x
ENCODING 120
SWIDTH 1167 0
DWIDTH 7 0
BBX 6 5 0 0
BITMAP
CC
78
30
78
CC
ENDCHAR
STARTCHAR y
ENCODING 121
SWIDTH 1167 0
DWIDTH 7 0
BBX 6 6 0 0
BITMAP
CC
CC
CC
7C
18
F0
ENDCHAR
STARTCHAR z
ENCODING 122
SWIDTH 1167 0
DWIDTH 7 0
BBX 6 5 0 0
BITMAP
FC
18
30
60
FC
ENDCHAR
STARTCHAR braceleft
ENCODING 123
SWIDTH 833 0
DWIDTH 5 0
BBX 4 7 0 0
BITMAP
30
60
40
C0
40
60
30
ENDCHAR
STARTCHAR bar
ENCODING 124
SWIDTH 500 0
DWIDTH 3 0
BBX 2 7 0 0
BITMAP
C0
C0
C0
C0
C0
C0
C0
ENDCHAR
STARTCHAR braceright
ENCODING 125
SWIDTH 833 0
DWIDTH 5 0
BBX 4 7 0 0
BITMAP
C0
60
20
30
20
60
C0
ENDCHAR
STARTCHAR asciitilde
ENCODING 126
SWIDTH 1167 0
DWIDTH 7 0
BBX 6 4 0 1
BITMAP
40
E4
9C
08
ENDCHAR
STARTCHAR quoteleft
ENCODING 8216
SWIDTH 500 0
DWIDTH 3 0
BBX 2 4 0 3
BITMAP
40
80
C0
C0
ENDCHAR
STARTCHAR quoteright
ENCODING 8217
SWIDTH 500 0
DWIDTH 3 0
BBX 2 4 0 3
BITMAP
C0
C0
40
80
ENDCHAR
STARTCHAR quotedblleft
ENCODING 8220
SWIDTH 1000 0
DWIDTH 6 0
BBX 5 4 0 3
BITMAP
48
90
D8
D8
ENDCHAR
STARTCHAR quotedblright
ENCODING 8221
SWIDTH 1000 0
DWIDTH 6 0
BBX 5 4 0 3
BITMAP
D8
D8
48
90
ENDCHAR
STARTCHAR .notdef
ENCODING -1
SWIDTH 1000 0
DWIDTH 6 0
BBX 5 6 0 0
BITMAP
F8
B8
E8
E8
A8
F8
ENDCHAR
STARTCHAR glyph00001
ENCODING -1
SWIDTH 167 0
DWIDTH 1 0
BBX 1 1 0 0
BITMAP
00
ENDCHAR
STARTCHAR glyph00002
ENCODING -1
SWIDTH 167 0
DWIDTH 1 0
BBX 1 1 0 0
BITMAP
00
ENDCHAR
ENDFONT
