STARTFONT 2.1
FONT Bm437_Rainbow100_re_66-12px
SIZE 12 75 75
FONTBOUNDINGBOX 9 11 0 -2
STARTPROPERTIES 3
PIXEL_SIZE 12
FONT_ASCENT 10
FONT_DESCENT 2
ENDPROPERTIES
CHARS 295
STARTCHAR uni0000
ENCODING 0
SWIDTH 750 0
DWIDTH 9 0
BBX 9 10 0 -2
BITMAP
0000
0000
0000
0000
0000
0000
0000
0000
0000
0000
ENDCHAR
STARTCHAR uni0001
ENCODING 1
SWIDTH 750 0
DWIDTH 9 0
BBX 9 10 0 -2
BITMAP
7E00
C300
E700
C300
FF00
DB00
C300
7E00
0000
0000
ENDCHAR
STARTCHAR uni0002
ENCODING 2
SWIDTH 750 0
DWIDTH 9 0
BBX 9 10 0 -2
BITMAP
7E00
FF00
DB00
FF00
C300
E700
FF00
7E00
0000
0000
ENDCHAR
STARTCHAR uni0003
ENCODING 3
SWIDTH 750 0
DWIDTH 9 0
BBX 9 10 0 -2
BITMAP
0000
6600
FF00
FF00
FF00
7E00
3C00
1800
0000
0000
ENDCHAR
STARTCHAR uni0004
ENCODING 4
SWIDTH 750 0
DWIDTH 9 0
BBX 9 10 0 -2
BITMAP
0000
1800
3C00
7E00
FF00
7E00
3C00
1800
0000
0000
ENDCHAR
STARTCHAR uni0005
ENCODING 5
SWIDTH 750 0
DWIDTH 9 0
BBX 9 10 0 -2
BITMAP
1800
3C00
1800
7E00
FF00
6600
1800
3C00
0000
0000
ENDCHAR
STARTCHAR uni0006
ENCODING 6
SWIDTH 750 0
DWIDTH 9 0
BBX 9 10 0 -2
BITMAP
1800
3C00
7E00
FF00
FF00
6600
1800
3C00
0000
0000
ENDCHAR
STARTCHAR uni0007
ENCODING 7
SWIDTH 750 0
DWIDTH 9 0
BBX 9 10 0 -2
BITMAP
0000
0000
0000
1C00
3E00
3E00
1C00
0000
0000
0000
ENDCHAR
STARTCHAR uni0008
ENCODING 8
SWIDTH 750 0
DWIDTH 9 0
BBX 9 10 0 -2
BITMAP
FF80
FF80
FF80
E380
C180
C180
E380
FF80
FF80
FF80
ENDCHAR
STARTCHAR uni0009
ENCODING 9
SWIDTH 750 0
DWIDTH 9 0
BBX 9 10 0 -2
BITMAP
0000
0000
1C00
3600
3600
3600
3600
1C00
0000
0000
ENDCHAR
STARTCHAR uni000A
ENCODING 10
SWIDTH 750 0
DWIDTH 9 0
BBX 9 10 0 -2
BITMAP
FF80
FF80
E380
C980
C980
C980
C980
E380
FF80
FF80
ENDCHAR
STARTCHAR uni000B
ENCODING 11
SWIDTH 750 0
DWIDTH 9 0
BBX 9 10 0 -2
BITMAP
1F00
0700
0D00
7E00
C300
C300
C300
7E00
0000
0000
ENDCHAR
STARTCHAR uni000C
ENCODING 12
SWIDTH 750 0
DWIDTH 9 0
BBX 9 10 0 -2
BITMAP
7E00
C300
C300
C300
7E00
1800
7E00
1800
0000
0000
ENDCHAR
STARTCHAR uni000D
ENCODING 13
SWIDTH 750 0
DWIDTH 9 0
BBX 9 10 0 -2
BITMAP
3800
3E00
3300
3000
3000
7000
F000
E000
0000
0000
ENDCHAR
STARTCHAR uni000E
ENCODING 14
SWIDTH 750 0
DWIDTH 9 0
BBX 9 10 0 -2
BITMAP
3800
3600
3B00
3700
3300
7300
F700
EF00
0E00
0000
ENDCHAR
STARTCHAR uni000F
ENCODING 15
SWIDTH 750 0
DWIDTH 9 0
BBX 9 10 0 -2
BITMAP
0000
1800
DB00
3C00
E700
3C00
DB00
1800
0000
0000
ENDCHAR
STARTCHAR uni0010
ENCODING 16
SWIDTH 750 0
DWIDTH 9 0
BBX 9 10 0 -2
BITMAP
0000
C000
F000
FC00
FF00
FC00
F000
C000
0000
0000
ENDCHAR
STARTCHAR uni0011
ENCODING 17
SWIDTH 750 0
DWIDTH 9 0
BBX 9 10 0 -2
BITMAP
0000
0300
0F00
3F00
FF00
3F00
0F00
0300
0000
0000
ENDCHAR
STARTCHAR uni0012
ENCODING 18
SWIDTH 750 0
DWIDTH 9 0
BBX 9 10 0 -2
BITMAP
1800
3C00
7E00
1800
1800
7E00
3C00
1800
0000
0000
ENDCHAR
STARTCHAR uni0013
ENCODING 19
SWIDTH 750 0
DWIDTH 9 0
BBX 9 10 0 -2
BITMAP
0000
6600
6600
6600
6600
6600
0000
6600
0000
0000
ENDCHAR
STARTCHAR uni0014
ENCODING 20
SWIDTH 750 0
DWIDTH 9 0
BBX 9 10 0 -2
BITMAP
0000
7F00
FB00
FB00
7F00
1B00
1B00
1B00
0000
0000
ENDCHAR
STARTCHAR uni0015
ENCODING 21
SWIDTH 750 0
DWIDTH 9 0
BBX 9 10 0 -2
BITMAP
0000
3C00
6000
7C00
6C00
6C00
3C00
0C00
7800
0000
ENDCHAR
STARTCHAR uni0016
ENCODING 22
SWIDTH 750 0
DWIDTH 9 0
BBX 9 10 0 -2
BITMAP
0000
0000
0000
0000
0000
FE00
FE00
FE00
0000
0000
ENDCHAR
STARTCHAR uni0017
ENCODING 23
SWIDTH 750 0
DWIDTH 9 0
BBX 9 10 0 -2
BITMAP
1800
3C00
7E00
1800
1800
7E00
3C00
1800
FF00
0000
ENDCHAR
STARTCHAR uni0018
ENCODING 24
SWIDTH 750 0
DWIDTH 9 0
BBX 9 10 0 -2
BITMAP
1800
3C00
7E00
1800
1800
1800
1800
1800
0000
0000
ENDCHAR
STARTCHAR uni0019
ENCODING 25
SWIDTH 750 0
DWIDTH 9 0
BBX 9 10 0 -2
BITMAP
1800
1800
1800
1800
1800
7E00
3C00
1800
0000
0000
ENDCHAR
STARTCHAR uni001A
ENCODING 26
SWIDTH 750 0
DWIDTH 9 0
BBX 9 10 0 -2
BITMAP
0000
0000
0C00
0600
FF00
0600
0C00
0000
0000
0000
ENDCHAR
STARTCHAR uni001B
ENCODING 27
SWIDTH 750 0
DWIDTH 9 0
BBX 9 10 0 -2
BITMAP
0000
0000
3000
6000
FF00
6000
3000
0000
0000
0000
ENDCHAR
STARTCHAR uni001C
ENCODING 28
SWIDTH 750 0
DWIDTH 9 0
BBX 9 10 0 -2
BITMAP
0000
0000
C000
C000
C000
FE00
0000
0000
0000
0000
ENDCHAR
STARTCHAR uni001D
ENCODING 29
SWIDTH 750 0
DWIDTH 9 0
BBX 9 10 0 -2
BITMAP
0000
0000
6600
C300
FF00
C300
6600
0000
0000
0000
ENDCHAR
STARTCHAR uni001E
ENCODING 30
SWIDTH 750 0
DWIDTH 9 0
BBX 9 10 0 -2
BITMAP
0000
1800
3C00
3C00
7E00
7E00
FF00
FF00
0000
0000
ENDCHAR
STARTCHAR uni001F
ENCODING 31
SWIDTH 750 0
DWIDTH 9 0
BBX 9 10 0 -2
BITMAP
0000
FF00
FF00
7E00
7E00
3C00
3C00
1800
0000
0000
ENDCHAR
STARTCHAR space
ENCODING 32
SWIDTH 750 0
DWIDTH 9 0
BBX 9 10 0 -2
BITMAP
0000
0000
0000
0000
0000
0000
0000
0000
0000
0000
ENDCHAR
STARTCHAR exclam
ENCODING 33
SWIDTH 750 0
DWIDTH 9 0
BBX 9 10 0 -2
BITMAP
0000
1800
1800
1800
1800
1800
0000
1800
0000
0000
ENDCHAR
STARTCHAR quotedbl
ENCODING 34
SWIDTH 750 0
DWIDTH 9 0
BBX 9 10 0 -2
BITMAP
0000
3600
3600
3600
0000
0000
0000
0000
0000
0000
ENDCHAR
STARTCHAR numbersign
ENCODING 35
SWIDTH 750 0
DWIDTH 9 0
BBX 9 10 0 -2
BITMAP
0000
6C00
6C00
FE00
6C00
FE00
6C00
6C00
0000
0000
ENDCHAR
STARTCHAR dollar
ENCODING 36
SWIDTH 750 0
DWIDTH 9 0
BBX 9 10 0 -2
BITMAP
0000
1800
7E00
D800
7E00
1B00
7E00
1800
0000
0000
ENDCHAR
STARTCHAR percent
ENCODING 37
SWIDTH 750 0
DWIDTH 9 0
BBX 9 10 0 -2
BITMAP
0000
E300
E600
0C00
1800
3000
6700
C700
0000
0000
ENDCHAR
STARTCHAR ampersand
ENCODING 38
SWIDTH 750 0
DWIDTH 9 0
BBX 9 10 0 -2
BITMAP
0000
7800
CC00
CC00
7800
CF00
C600
7F00
0000
0000
ENDCHAR
STARTCHAR quotesingle
ENCODING 39
SWIDTH 750 0
DWIDTH 9 0
BBX 9 10 0 -2
BITMAP
0000
1C00
1800
3000
0000
0000
0000
0000
0000
0000
ENDCHAR
STARTCHAR parenleft
ENCODING 40
SWIDTH 750 0
DWIDTH 9 0
BBX 9 10 0 -2
BITMAP
0000
0C00
1800
3000
3000
3000
1800
0C00
0000
0000
ENDCHAR
STARTCHAR parenright
ENCODING 41
SWIDTH 750 0
DWIDTH 9 0
BBX 9 10 0 -2
BITMAP
0000
3000
1800
0C00
0C00
0C00
1800
3000
0000
0000
ENDCHAR
STARTCHAR asterisk
ENCODING 42
SWIDTH 750 0
DWIDTH 9 0
BBX 9 10 0 -2
BITMAP
0000
0000
6600
3C00
FF00
3C00
6600
0000
0000
0000
ENDCHAR
STARTCHAR plus
ENCODING 43
SWIDTH 750 0
DWIDTH 9 0
BBX 9 10 0 -2
BITMAP
0000
0000
1800
1800
FF00
1800
1800
0000
0000
0000
ENDCHAR
STARTCHAR comma
ENCODING 44
SWIDTH 750 0
DWIDTH 9 0
BBX 9 10 0 -2
BITMAP
0000
0000
0000
0000
0000
0000
3800
3000
6000
0000
ENDCHAR
STARTCHAR hyphen
ENCODING 45
SWIDTH 750 0
DWIDTH 9 0
BBX 9 10 0 -2
BITMAP
0000
0000
0000
0000
FF00
0000
0000
0000
0000
0000
ENDCHAR
STARTCHAR period
ENCODING 46
SWIDTH 750 0
DWIDTH 9 0
BBX 9 10 0 -2
BITMAP
0000
0000
0000
0000
0000
0000
3800
3800
0000
0000
ENDCHAR
STARTCHAR slash
ENCODING 47
SWIDTH 750 0
DWIDTH 9 0
BBX 9 10 0 -2
BITMAP
0000
0300
0600
0C00
1800
3000
6000
C000
0000
0000
ENDCHAR
STARTCHAR zero
ENCODING 48
SWIDTH 750 0
DWIDTH 9 0
BBX 9 10 0 -2
BITMAP
0000
3C00
6600
C300
C300
C300
6600
3C00
0000
0000
ENDCHAR
STARTCHAR one
ENCODING 49
SWIDTH 750 0
DWIDTH 9 0
BBX 9 10 0 -2
BITMAP
0000
1800
3800
7800
1800
1800
1800
7E00
0000
0000
ENDCHAR
STARTCHAR two
ENCODING 50
SWIDTH 750 0
DWIDTH 9 0
BBX 9 10 0 -2
BITMAP
0000
7C00
C600
0300
1E00
7000
C000
FF00
0000
0000
ENDCHAR
STARTCHAR three
ENCODING 51
SWIDTH 750 0
DWIDTH 9 0
BBX 9 10 0 -2
BITMAP
0000
FF00
0600
0C00
1E00
0300
C300
7E00
0000
0000
ENDCHAR
STARTCHAR four
ENCODING 52
SWIDTH 750 0
DWIDTH 9 0
BBX 9 10 0 -2
BITMAP
0000
0C00
1C00
3C00
6C00
FF00
0C00
0C00
0000
0000
ENDCHAR
STARTCHAR five
ENCODING 53
SWIDTH 750 0
DWIDTH 9 0
BBX 9 10 0 -2
BITMAP
0000
FF00
C000
FE00
E300
0300
C300
7E00
0000
0000
ENDCHAR
STARTCHAR six
ENCODING 54
SWIDTH 750 0
DWIDTH 9 0
BBX 9 10 0 -2
BITMAP
0000
3E00
6300
C000
FE00
E300
6300
3E00
0000
0000
ENDCHAR
STARTCHAR seven
ENCODING 55
SWIDTH 750 0
DWIDTH 9 0
BBX 9 10 0 -2
BITMAP
0000
FF00
0300
0600
0C00
1800
3000
6000
0000
0000
ENDCHAR
STARTCHAR eight
ENCODING 56
SWIDTH 750 0
DWIDTH 9 0
BBX 9 10 0 -2
BITMAP
0000
7E00
C300
C300
7E00
C300
C300
7E00
0000
0000
ENDCHAR
STARTCHAR nine
ENCODING 57
SWIDTH 750 0
DWIDTH 9 0
BBX 9 10 0 -2
BITMAP
0000
7C00
C600
C700
7F00
0300
C600
7C00
0000
0000
ENDCHAR
STARTCHAR colon
ENCODING 58
SWIDTH 750 0
DWIDTH 9 0
BBX 9 10 0 -2
BITMAP
0000
0000
3800
3800
0000
0000
3800
3800
0000
0000
ENDCHAR
STARTCHAR semicolon
ENCODING 59
SWIDTH 750 0
DWIDTH 9 0
BBX 9 10 0 -2
BITMAP
0000
0000
3800
3800
0000
0000
3800
3000
6000
0000
ENDCHAR
STARTCHAR less
ENCODING 60
SWIDTH 750 0
DWIDTH 9 0
BBX 9 10 0 -2
BITMAP
0000
0300
0C00
3000
C000
3000
0C00
0300
0000
0000
ENDCHAR
STARTCHAR equal
ENCODING 61
SWIDTH 750 0
DWIDTH 9 0
BBX 9 10 0 -2
BITMAP
0000
0000
0000
FF00
0000
FF00
0000
0000
0000
0000
ENDCHAR
STARTCHAR greater
ENCODING 62
SWIDTH 750 0
DWIDTH 9 0
BBX 9 10 0 -2
BITMAP
0000
C000
3000
0C00
0300
0C00
3000
C000
0000
0000
ENDCHAR
STARTCHAR question
ENCODING 63
SWIDTH 750 0
DWIDTH 9 0
BBX 9 10 0 -2
BITMAP
0000
7E00
C300
0E00
1800
1800
0000
1800
0000
0000
ENDCHAR
STARTCHAR at
ENCODING 64
SWIDTH 750 0
DWIDTH 9 0
BBX 9 10 0 -2
BITMAP
0000
7E00
C300
CF00
DB00
DE00
C000
7E00
0000
0000
ENDCHAR
STARTCHAR A
ENCODING 65
SWIDTH 750 0
DWIDTH 9 0
BBX 9 10 0 -2
BITMAP
0000
1800
3C00
6600
C300
FF00
C300
C300
0000
0000
ENDCHAR
STARTCHAR B
ENCODING 66
SWIDTH 750 0
DWIDTH 9 0
BBX 9 10 0 -2
BITMAP
0000
FE00
6300
6300
7E00
6300
6300
FE00
0000
0000
ENDCHAR
STARTCHAR C
ENCODING 67
SWIDTH 750 0
DWIDTH 9 0
BBX 9 10 0 -2
BITMAP
0000
3E00
6300
C000
C000
C000
6300
3E00
0000
0000
ENDCHAR
STARTCHAR D
ENCODING 68
SWIDTH 750 0
DWIDTH 9 0
BBX 9 10 0 -2
BITMAP
0000
FC00
6600
6300
6300
6300
6600
FC00
0000
0000
ENDCHAR
STARTCHAR E
ENCODING 69
SWIDTH 750 0
DWIDTH 9 0
BBX 9 10 0 -2
BITMAP
0000
FF00
C000
C000
FC00
C000
C000
FF00
0000
0000
ENDCHAR
STARTCHAR F
ENCODING 70
SWIDTH 750 0
DWIDTH 9 0
BBX 9 10 0 -2
BITMAP
0000
FF00
C000
C000
FC00
C000
C000
C000
0000
0000
ENDCHAR
STARTCHAR G
ENCODING 71
SWIDTH 750 0
DWIDTH 9 0
BBX 9 10 0 -2
BITMAP
0000
3E00
6300
C000
C000
CF00
6300
3E00
0000
0000
ENDCHAR
STARTCHAR H
ENCODING 72
SWIDTH 750 0
DWIDTH 9 0
BBX 9 10 0 -2
BITMAP
0000
C300
C300
C300
FF00
C300
C300
C300
0000
0000
ENDCHAR
STARTCHAR I
ENCODING 73
SWIDTH 750 0
DWIDTH 9 0
BBX 9 10 0 -2
BITMAP
0000
7E00
1800
1800
1800
1800
1800
7E00
0000
0000
ENDCHAR
STARTCHAR J
ENCODING 74
SWIDTH 750 0
DWIDTH 9 0
BBX 9 10 0 -2
BITMAP
0000
0F00
0600
0600
0600
0600
C600
7C00
0000
0000
ENDCHAR
STARTCHAR K
ENCODING 75
SWIDTH 750 0
DWIDTH 9 0
BBX 9 10 0 -2
BITMAP
0000
C300
CE00
F800
E000
F800
CE00
C300
0000
0000
ENDCHAR
STARTCHAR L
ENCODING 76
SWIDTH 750 0
DWIDTH 9 0
BBX 9 10 0 -2
BITMAP
0000
C000
C000
C000
C000
C000
C000
FF00
0000
0000
ENDCHAR
STARTCHAR M
ENCODING 77
SWIDTH 750 0
DWIDTH 9 0
BBX 9 10 0 -2
BITMAP
0000
C300
E700
FF00
DB00
C300
C300
C300
0000
0000
ENDCHAR
STARTCHAR N
ENCODING 78
SWIDTH 750 0
DWIDTH 9 0
BBX 9 10 0 -2
BITMAP
0000
C300
E300
F300
DB00
CF00
C700
C300
0000
0000
ENDCHAR
STARTCHAR O
ENCODING 79
SWIDTH 750 0
DWIDTH 9 0
BBX 9 10 0 -2
BITMAP
0000
7E00
C300
C300
C300
C300
C300
7E00
0000
0000
ENDCHAR
STARTCHAR P
ENCODING 80
SWIDTH 750 0
DWIDTH 9 0
BBX 9 10 0 -2
BITMAP
0000
FE00
C300
C300
FE00
C000
C000
C000
0000
0000
ENDCHAR
STARTCHAR Q
ENCODING 81
SWIDTH 750 0
DWIDTH 9 0
BBX 9 10 0 -2
BITMAP
0000
7E00
C300
C300
C300
CF00
C600
7F00
0000
0000
ENDCHAR
STARTCHAR R
ENCODING 82
SWIDTH 750 0
DWIDTH 9 0
BBX 9 10 0 -2
BITMAP
0000
FE00
C300
C300
FE00
CC00
C600
C300
0000
0000
ENDCHAR
STARTCHAR S
ENCODING 83
SWIDTH 750 0
DWIDTH 9 0
BBX 9 10 0 -2
BITMAP
0000
7E00
C300
C000
7E00
0300
C300
7E00
0000
0000
ENDCHAR
STARTCHAR T
ENCODING 84
SWIDTH 750 0
DWIDTH 9 0
BBX 9 10 0 -2
BITMAP
0000
FF00
1800
1800
1800
1800
1800
1800
0000
0000
ENDCHAR
STARTCHAR U
ENCODING 85
SWIDTH 750 0
DWIDTH 9 0
BBX 9 10 0 -2
BITMAP
0000
C300
C300
C300
C300
C300
C300
7E00
0000
0000
ENDCHAR
STARTCHAR V
ENCODING 86
SWIDTH 750 0
DWIDTH 9 0
BBX 9 10 0 -2
BITMAP
0000
C300
C300
6600
6600
3C00
3C00
1800
0000
0000
ENDCHAR
STARTCHAR W
ENCODING 87
SWIDTH 750 0
DWIDTH 9 0
BBX 9 10 0 -2
BITMAP
0000
C300
C300
C300
DB00
DB00
FF00
6600
0000
0000
ENDCHAR
STARTCHAR X
ENCODING 88
SWIDTH 750 0
DWIDTH 9 0
BBX 9 10 0 -2
BITMAP
0000
C300
6600
3C00
1800
3C00
6600
C300
0000
0000
ENDCHAR
STARTCHAR Y
ENCODING 89
SWIDTH 750 0
DWIDTH 9 0
BBX 9 10 0 -2
BITMAP
0000
C300
6600
3C00
1800
1800
1800
1800
0000
0000
ENDCHAR
STARTCHAR Z
ENCODING 90
SWIDTH 750 0
DWIDTH 9 0
BBX 9 10 0 -2
BITMAP
0000
FF00
0600
0C00
1800
3000
6000
FF00
0000
0000
ENDCHAR
STARTCHAR bracketleft
ENCODING 91
SWIDTH 750 0
DWIDTH 9 0
BBX 9 10 0 -2
BITMAP
0000
3E00
3000
3000
3000
3000
3000
3E00
0000
0000
ENDCHAR
STARTCHAR backslash
ENCODING 92
SWIDTH 750 0
DWIDTH 9 0
BBX 9 10 0 -2
BITMAP
0000
C000
6000
3000
1800
0C00
0600
0300
0000
0000
ENDCHAR
STARTCHAR bracketright
ENCODING 93
SWIDTH 750 0
DWIDTH 9 0
BBX 9 10 0 -2
BITMAP
0000
7C00
0C00
0C00
0C00
0C00
0C00
7C00
0000
0000
ENDCHAR
STARTCHAR asciicircum
ENCODING 94
SWIDTH 750 0
DWIDTH 9 0
BBX 9 10 0 -2
BITMAP
0000
1800
3C00
6600
C300
0000
0000
0000
0000
0000
ENDCHAR
STARTCHAR underscore
ENCODING 95
SWIDTH 750 0
DWIDTH 9 0
BBX 9 10 0 -2
BITMAP
0000
0000
0000
0000
0000
0000
0000
FF00
0000
0000
ENDCHAR
STARTCHAR grave
ENCODING 96
SWIDTH 750 0
DWIDTH 9 0
BBX 9 10 0 -2
BITMAP
0000
3800
1800
0C00
0000
0000
0000
0000
0000
0000
ENDCHAR
STARTCHAR a
ENCODING 97
SWIDTH 750 0
DWIDTH 9 0
BBX 9 10 0 -2
BITMAP
0000
0000
0000
7E00
0300
7F00
C300
7F00
0000
0000
ENDCHAR
STARTCHAR b
ENCODING 98
SWIDTH 750 0
DWIDTH 9 0
BBX 9 10 0 -2
BITMAP
0000
C000
C000
FE00
E300
C300
E300
FE00
0000
0000
ENDCHAR
STARTCHAR c
ENCODING 99
SWIDTH 750 0
DWIDTH 9 0
BBX 9 10 0 -2
BITMAP
0000
0000
0000
3E00
6300
C000
6000
3F00
0000
0000
ENDCHAR
STARTCHAR d
ENCODING 100
SWIDTH 750 0
DWIDTH 9 0
BBX 9 10 0 -2
BITMAP
0000
0300
0300
7F00
C700
C300
C700
7F00
0000
0000
ENDCHAR
STARTCHAR e
ENCODING 101
SWIDTH 750 0
DWIDTH 9 0
BBX 9 10 0 -2
BITMAP
0000
0000
0000
7E00
C300
FF00
C000
7E00
0000
0000
ENDCHAR
STARTCHAR f
ENCODING 102
SWIDTH 750 0
DWIDTH 9 0
BBX 9 10 0 -2
BITMAP
0000
1E00
3300
3000
FC00
3000
3000
3000
0000
0000
ENDCHAR
STARTCHAR g
ENCODING 103
SWIDTH 750 0
DWIDTH 9 0
BBX 9 10 0 -2
BITMAP
0000
0000
0300
7F00
C600
C600
7E00
0600
C600
7C00
ENDCHAR
STARTCHAR h
ENCODING 104
SWIDTH 750 0
DWIDTH 9 0
BBX 9 10 0 -2
BITMAP
0000
C000
C000
FE00
E300
C300
C300
C300
0000
0000
ENDCHAR
STARTCHAR i
ENCODING 105
SWIDTH 750 0
DWIDTH 9 0
BBX 9 10 0 -2
BITMAP
0000
1800
0000
3800
1800
1800
1800
7E00
0000
0000
ENDCHAR
STARTCHAR j
ENCODING 106
SWIDTH 750 0
DWIDTH 9 0
BBX 9 10 0 -2
BITMAP
0000
0600
0000
0600
0600
0600
0600
C600
C600
7C00
ENDCHAR
STARTCHAR k
ENCODING 107
SWIDTH 750 0
DWIDTH 9 0
BBX 9 10 0 -2
BITMAP
0000
C000
C000
CC00
D800
F000
CC00
C300
0000
0000
ENDCHAR
STARTCHAR l
ENCODING 108
SWIDTH 750 0
DWIDTH 9 0
BBX 9 10 0 -2
BITMAP
0000
3800
1800
1800
1800
1800
1800
3C00
0000
0000
ENDCHAR
STARTCHAR m
ENCODING 109
SWIDTH 750 0
DWIDTH 9 0
BBX 9 10 0 -2
BITMAP
0000
0000
0000
E600
FF00
DB00
DB00
C300
0000
0000
ENDCHAR
STARTCHAR n
ENCODING 110
SWIDTH 750 0
DWIDTH 9 0
BBX 9 10 0 -2
BITMAP
0000
0000
0000
FE00
E300
C300
C300
C300
0000
0000
ENDCHAR
STARTCHAR o
ENCODING 111
SWIDTH 750 0
DWIDTH 9 0
BBX 9 10 0 -2
BITMAP
0000
0000
0000
7E00
C300
C300
C300
7E00
0000
0000
ENDCHAR
STARTCHAR p
ENCODING 112
SWIDTH 750 0
DWIDTH 9 0
BBX 9 10 0 -2
BITMAP
0000
0000
0000
FE00
E300
E300
FE00
C000
C000
C000
ENDCHAR
STARTCHAR q
ENCODING 113
SWIDTH 750 0
DWIDTH 9 0
BBX 9 10 0 -2
BITMAP
0000
0000
0000
7F00
C700
C700
7F00
0300
0300
0300
ENDCHAR
STARTCHAR r
ENCODING 114
SWIDTH 750 0
DWIDTH 9 0
BBX 9 10 0 -2
BITMAP
0000
0000
0000
DE00
7300
6000
6000
6000
0000
0000
ENDCHAR
STARTCHAR s
ENCODING 115
SWIDTH 750 0
DWIDTH 9 0
BBX 9 10 0 -2
BITMAP
0000
0000
0000
7E00
C000
7E00
0300
FE00
0000
0000
ENDCHAR
STARTCHAR t
ENCODING 116
SWIDTH 750 0
DWIDTH 9 0
BBX 9 10 0 -2
BITMAP
0000
3000
3000
FC00
3000
3000
3600
1C00
0000
0000
ENDCHAR
STARTCHAR u
ENCODING 117
SWIDTH 750 0
DWIDTH 9 0
BBX 9 10 0 -2
BITMAP
0000
0000
0000
C600
C600
C600
C600
7F00
0000
0000
ENDCHAR
STARTCHAR v
ENCODING 118
SWIDTH 750 0
DWIDTH 9 0
BBX 9 10 0 -2
BITMAP
0000
0000
0000
C300
C300
6600
3C00
1800
0000
0000
ENDCHAR
STARTCHAR w
ENCODING 119
SWIDTH 750 0
DWIDTH 9 0
BBX 9 10 0 -2
BITMAP
0000
0000
0000
C300
C300
DB00
FF00
6600
0000
0000
ENDCHAR
STARTCHAR x
ENCODING 120
SWIDTH 750 0
DWIDTH 9 0
BBX 9 10 0 -2
BITMAP
0000
0000
0000
C600
6C00
3800
6C00
C600
0000
0000
ENDCHAR
STARTCHAR y
ENCODING 121
SWIDTH 750 0
DWIDTH 9 0
BBX 9 10 0 -2
BITMAP
0000
0000
0000
C600
C600
CE00
7E00
0600
C600
7C00
ENDCHAR
STARTCHAR z
ENCODING 122
SWIDTH 750 0
DWIDTH 9 0
BBX 9 10 0 -2
BITMAP
0000
0000
0000
FF00
0600
1C00
3000
FF00
0000
0000
ENDCHAR
STARTCHAR braceleft
ENCODING 123
SWIDTH 750 0
DWIDTH 9 0
BBX 9 10 0 -2
BITMAP
0000
0F00
1800
1800
7000
1800
1800
0F00
0000
0000
ENDCHAR
STARTCHAR bar
ENCODING 124
SWIDTH 750 0
DWIDTH 9 0
BBX 9 10 0 -2
BITMAP
0000
1800
1800
1800
0000
1800
1800
1800
0000
0000
ENDCHAR
STARTCHAR braceright
ENCODING 125
SWIDTH 750 0
DWIDTH 9 0
BBX 9 10 0 -2
BITMAP
0000
F000
1800
1800
0E00
1800
1800
F000
0000
0000
ENDCHAR
STARTCHAR asciitilde
ENCODING 126
SWIDTH 750 0
DWIDTH 9 0
BBX 9 10 0 -2
BITMAP
0000
7300
DB00
CE00
0000
0000
0000
0000
0000
0000
ENDCHAR
STARTCHAR uni007F
ENCODING 127
SWIDTH 750 0
DWIDTH 9 0
BBX 9 10 0 -2
BITMAP
0000
0000
1800
3C00
6600
C300
C300
FF00
0000
0000
ENDCHAR
STARTCHAR uni00A0
ENCODING 160
SWIDTH 750 0
DWIDTH 9 0
BBX 9 10 0 -2
BITMAP
0000
0000
0000
0000
0000
0000
0000
0000
0000
0000
ENDCHAR
STARTCHAR exclamdown
ENCODING 161
SWIDTH 750 0
DWIDTH 9 0
BBX 9 10 0 -2
BITMAP
0000
1800
0000
1800
1800
1800
1800
1800
0000
0000
ENDCHAR
STARTCHAR cent
ENCODING 162
SWIDTH 750 0
DWIDTH 9 0
BBX 9 10 0 -2
BITMAP
0000
0000
1800
3E00
7B00
D800
7800
3F00
1800
0000
ENDCHAR
STARTCHAR sterling
ENCODING 163
SWIDTH 750 0
DWIDTH 9 0
BBX 9 10 0 -2
BITMAP
0000
1E00
3300
3000
FC00
3000
7C00
F700
6000
0000
ENDCHAR
STARTCHAR yen
ENCODING 165
SWIDTH 750 0
DWIDTH 9 0
BBX 9 10 0 -2
BITMAP
0000
C300
6600
3C00
FF00
1800
1800
1800
0000
0000
ENDCHAR
STARTCHAR section
ENCODING 167
SWIDTH 750 0
DWIDTH 9 0
BBX 9 10 0 -2
BITMAP
0000
3C00
6000
7C00
6C00
6C00
3C00
0C00
7800
0000
ENDCHAR
STARTCHAR ordfeminine
ENCODING 170
SWIDTH 750 0
DWIDTH 9 0
BBX 9 10 0 -2
BITMAP
0000
0000
7E00
0300
7F00
C300
7F00
FF00
0000
0000
ENDCHAR
STARTCHAR guillemotleft
ENCODING 171
SWIDTH 750 0
DWIDTH 9 0
BBX 9 10 0 -2
BITMAP
0000
1B00
3600
6C00
D800
6C00
3600
1B00
0000
0000
ENDCHAR
STARTCHAR logicalnot
ENCODING 172
SWIDTH 750 0
DWIDTH 9 0
BBX 9 10 0 -2
BITMAP
0000
0000
0000
FE00
0600
0600
0600
0000
0000
0000
ENDCHAR
STARTCHAR degree
ENCODING 176
SWIDTH 750 0
DWIDTH 9 0
BBX 9 10 0 -2
BITMAP
0000
3C00
6600
6600
3C00
0000
0000
0000
0000
0000
ENDCHAR
STARTCHAR plusminus
ENCODING 177
SWIDTH 750 0
DWIDTH 9 0
BBX 9 10 0 -2
BITMAP
0000
0000
1800
1800
FF00
1800
1800
FF00
0000
0000
ENDCHAR
STARTCHAR uni00B2
ENCODING 178
SWIDTH 750 0
DWIDTH 9 0
BBX 9 10 0 -2
BITMAP
0000
3800
6C00
1800
6000
7C00
0000
0000
0000
0000
ENDCHAR
STARTCHAR mu
ENCODING 181
SWIDTH 750 0
DWIDTH 9 0
BBX 9 10 0 -2
BITMAP
0000
0000
0000
3600
3600
3600
3600
3F00
6000
C000
ENDCHAR
STARTCHAR paragraph
ENCODING 182
SWIDTH 750 0
DWIDTH 9 0
BBX 9 10 0 -2
BITMAP
0000
7F00
FB00
FB00
7F00
1B00
1B00
1B00
0000
0000
ENDCHAR
STARTCHAR periodcentered
ENCODING 183
SWIDTH 750 0
DWIDTH 9 0
BBX 9 10 0 -2
BITMAP
0000
0000
0000
0000
1800
0000
0000
0000
0000
0000
ENDCHAR
STARTCHAR ordmasculine
ENCODING 186
SWIDTH 750 0
DWIDTH 9 0
BBX 9 10 0 -2
BITMAP
0000
0000
7E00
C300
C300
C300
7E00
FF00
0000
0000
ENDCHAR
STARTCHAR guillemotright
ENCODING 187
SWIDTH 750 0
DWIDTH 9 0
BBX 9 10 0 -2
BITMAP
0000
D800
6C00
3600
1B00
3600
6C00
D800
0000
0000
ENDCHAR
STARTCHAR onequarter
ENCODING 188
SWIDTH 750 0
DWIDTH 9 0
BBX 9 10 0 -2
BITMAP
0000
C300
C600
CC00
D800
F600
6E00
DE00
3F00
0600
ENDCHAR
STARTCHAR onehalf
ENCODING 189
SWIDTH 750 0
DWIDTH 9 0
BBX 9 10 0 -2
BITMAP
0000
C300
C600
CC00
D800
F600
6F00
C300
0C00
0F00
ENDCHAR
STARTCHAR questiondown
ENCODING 191
SWIDTH 750 0
DWIDTH 9 0
BBX 9 10 0 -2
BITMAP
0000
1800
0000
1800
1800
7000
C300
7E00
0000
0000
ENDCHAR
STARTCHAR Adieresis
ENCODING 196
SWIDTH 750 0
DWIDTH 9 0
BBX 9 10 0 -2
BITMAP
6600
0000
1800
3C00
6600
FF00
C300
C300
0000
0000
ENDCHAR
STARTCHAR Aring
ENCODING 197
SWIDTH 750 0
DWIDTH 9 0
BBX 9 10 0 -2
BITMAP
3C00
6600
3C00
0000
3C00
6600
FF00
C300
0000
0000
ENDCHAR
STARTCHAR AE
ENCODING 198
SWIDTH 750 0
DWIDTH 9 0
BBX 9 10 0 -2
BITMAP
0000
1F00
3C00
6C00
CF00
FC00
CC00
CF00
0000
0000
ENDCHAR
STARTCHAR Ccedilla
ENCODING 199
SWIDTH 750 0
DWIDTH 9 0
BBX 9 10 0 -2
BITMAP
0000
3E00
6300
C000
C000
C000
6300
3E00
0C00
1800
ENDCHAR
STARTCHAR Eacute
ENCODING 201
SWIDTH 750 0
DWIDTH 9 0
BBX 9 10 0 -2
BITMAP
0E00
3800
0000
FF00
C000
FC00
C000
FF00
0000
0000
ENDCHAR
STARTCHAR Ntilde
ENCODING 209
SWIDTH 750 0
DWIDTH 9 0
BBX 9 10 0 -2
BITMAP
7300
CE00
0000
C300
F300
DB00
CF00
C700
0000
0000
ENDCHAR
STARTCHAR Odieresis
ENCODING 214
SWIDTH 750 0
DWIDTH 9 0
BBX 9 10 0 -2
BITMAP
6600
0000
7E00
C300
C300
C300
C300
7E00
0000
0000
ENDCHAR
STARTCHAR Udieresis
ENCODING 220
SWIDTH 750 0
DWIDTH 9 0
BBX 9 10 0 -2
BITMAP
6600
0000
C300
C300
C300
C300
C300
7E00
0000
0000
ENDCHAR
STARTCHAR germandbls
ENCODING 223
SWIDTH 750 0
DWIDTH 9 0
BBX 9 10 0 -2
BITMAP
0000
3C00
6600
6600
7C00
6600
6600
7C00
6000
0000
ENDCHAR
STARTCHAR agrave
ENCODING 224
SWIDTH 750 0
DWIDTH 9 0
BBX 9 10 0 -2
BITMAP
3800
0E00
0000
7E00
0300
7F00
C300
7F00
0000
0000
ENDCHAR
STARTCHAR aacute
ENCODING 225
SWIDTH 750 0
DWIDTH 9 0
BBX 9 10 0 -2
BITMAP
0E00
3800
0000
7E00
0300
7F00
C300
7F00
0000
0000
ENDCHAR
STARTCHAR acircumflex
ENCODING 226
SWIDTH 750 0
DWIDTH 9 0
BBX 9 10 0 -2
BITMAP
3C00
6600
0000
7E00
0300
7F00
C300
7F00
0000
0000
ENDCHAR
STARTCHAR adieresis
ENCODING 228
SWIDTH 750 0
DWIDTH 9 0
BBX 9 10 0 -2
BITMAP
0000
6600
0000
7E00
0300
7F00
C300
7F00
0000
0000
ENDCHAR
STARTCHAR aring
ENCODING 229
SWIDTH 750 0
DWIDTH 9 0
BBX 9 10 0 -2
BITMAP
3C00
6600
3C00
7E00
0300
7F00
C300
7F00
0000
0000
ENDCHAR
STARTCHAR ae
ENCODING 230
SWIDTH 750 0
DWIDTH 9 0
BBX 9 10 0 -2
BITMAP
0000
0000
0000
6C00
1B00
7F00
D800
7E00
0000
0000
ENDCHAR
STARTCHAR ccedilla
ENCODING 231
SWIDTH 750 0
DWIDTH 9 0
BBX 9 10 0 -2
BITMAP
0000
0000
0000
3E00
6300
C000
6000
3F00
0600
0C00
ENDCHAR
STARTCHAR egrave
ENCODING 232
SWIDTH 750 0
DWIDTH 9 0
BBX 9 10 0 -2
BITMAP
3800
0E00
0000
7E00
C300
FF00
C000
7E00
0000
0000
ENDCHAR
STARTCHAR eacute
ENCODING 233
SWIDTH 750 0
DWIDTH 9 0
BBX 9 10 0 -2
BITMAP
0E00
3800
0000
7E00
C300
FF00
C000
7E00
0000
0000
ENDCHAR
STARTCHAR ecircumflex
ENCODING 234
SWIDTH 750 0
DWIDTH 9 0
BBX 9 10 0 -2
BITMAP
3C00
6600
0000
7E00
C300
FF00
C000
7E00
0000
0000
ENDCHAR
STARTCHAR edieresis
ENCODING 235
SWIDTH 750 0
DWIDTH 9 0
BBX 9 10 0 -2
BITMAP
0000
6600
0000
7E00
C300
FF00
C000
7E00
0000
0000
ENDCHAR
STARTCHAR igrave
ENCODING 236
SWIDTH 750 0
DWIDTH 9 0
BBX 9 10 0 -2
BITMAP
3800
0E00
0000
3800
1800
1800
1800
7E00
0000
0000
ENDCHAR
STARTCHAR iacute
ENCODING 237
SWIDTH 750 0
DWIDTH 9 0
BBX 9 10 0 -2
BITMAP
0E00
3800
0000
3800
1800
1800
1800
7E00
0000
0000
ENDCHAR
STARTCHAR icircumflex
ENCODING 238
SWIDTH 750 0
DWIDTH 9 0
BBX 9 10 0 -2
BITMAP
3C00
6600
0000
3800
1800
1800
1800
7E00
0000
0000
ENDCHAR
STARTCHAR idieresis
ENCODING 239
SWIDTH 750 0
DWIDTH 9 0
BBX 9 10 0 -2
BITMAP
0000
6600
0000
3800
1800
1800
1800
7E00
0000
0000
ENDCHAR
STARTCHAR ntilde
ENCODING 241
SWIDTH 750 0
DWIDTH 9 0
BBX 9 10 0 -2
BITMAP
7300
CE00
0000
FE00
E300
C300
C300
C300
0000
0000
ENDCHAR
STARTCHAR ograve
ENCODING 242
SWIDTH 750 0
DWIDTH 9 0
BBX 9 10 0 -2
BITMAP
3800
0E00
0000
3C00
6600
C300
6600
3C00
0000
0000
ENDCHAR
STARTCHAR oacute
ENCODING 243
SWIDTH 750 0
DWIDTH 9 0
BBX 9 10 0 -2
BITMAP
0E00
3800
0000
3C00
6600
C300
6600
3C00
0000
0000
ENDCHAR
STARTCHAR ocircumflex
ENCODING 244
SWIDTH 750 0
DWIDTH 9 0
BBX 9 10 0 -2
BITMAP
3C00
6600
0000
3C00
6600
C300
6600
3C00
0000
0000
ENDCHAR
STARTCHAR odieresis
ENCODING 246
SWIDTH 750 0
DWIDTH 9 0
BBX 9 10 0 -2
BITMAP
0000
6600
0000
3C00
6600
C300
6600
3C00
0000
0000
ENDCHAR
STARTCHAR divide
ENCODING 247
SWIDTH 750 0
DWIDTH 9 0
BBX 9 10 0 -2
BITMAP
0000
1800
1800
0000
FF00
0000
1800
1800
0000
0000
ENDCHAR
STARTCHAR ugrave
ENCODING 249
SWIDTH 750 0
DWIDTH 9 0
BBX 9 10 0 -2
BITMAP
7000
1C00
0000
C600
C600
C600
C600
7F00
0000
0000
ENDCHAR
STARTCHAR uacute
ENCODING 250
SWIDTH 750 0
DWIDTH 9 0
BBX 9 10 0 -2
BITMAP
1C00
7000
0000
C600
C600
C600
C600
7F00
0000
0000
ENDCHAR
STARTCHAR ucircumflex
ENCODING 251
SWIDTH 750 0
DWIDTH 9 0
BBX 9 10 0 -2
BITMAP
3800
6C00
0000
C600
C600
C600
C600
7F00
0000
0000
ENDCHAR
STARTCHAR udieresis
ENCODING 252
SWIDTH 750 0
DWIDTH 9 0
BBX 9 10 0 -2
BITMAP
0000
6600
0000
C600
C600
C600
C600
7F00
0000
0000
ENDCHAR
STARTCHAR ydieresis
ENCODING 255
SWIDTH 750 0
DWIDTH 9 0
BBX 9 10 0 -2
BITMAP
0000
6600
0000
C600
C600
CE00
7E00
0600
C600
7C00
ENDCHAR
STARTCHAR florin
ENCODING 402
SWIDTH 750 0
DWIDTH 9 0
BBX 9 10 0 -2
BITMAP
0000
0E00
1B00
1800
7E00
1800
1800
D800
7000
0000
ENDCHAR
STARTCHAR Gamma
ENCODING 915
SWIDTH 750 0
DWIDTH 9 0
BBX 9 10 0 -2
BITMAP
0000
FF00
C000
C000
C000
C000
C000
C000
0000
0000
ENDCHAR
STARTCHAR Theta
ENCODING 920
SWIDTH 750 0
DWIDTH 9 0
BBX 9 10 0 -2
BITMAP
0000
7E00
C300
C300
FF00
C300
C300
7E00
0000
0000
ENDCHAR
STARTCHAR Sigma
ENCODING 931
SWIDTH 750 0
DWIDTH 9 0
BBX 9 10 0 -2
BITMAP
0000
FF00
C000
3000
0C00
3000
C000
FF00
0000
0000
ENDCHAR
STARTCHAR Phi
ENCODING 934
SWIDTH 750 0
DWIDTH 9 0
BBX 9 10 0 -2
BITMAP
7E00
1800
7E00
DB00
DB00
7E00
1800
7E00
0000
0000
ENDCHAR
STARTCHAR uni03A9
ENCODING 937
SWIDTH 750 0
DWIDTH 9 0
BBX 9 10 0 -2
BITMAP
0000
3C00
6600
C300
C300
6600
6600
E700
0000
0000
ENDCHAR
STARTCHAR alpha
ENCODING 945
SWIDTH 750 0
DWIDTH 9 0
BBX 9 10 0 -2
BITMAP
0000
0000
0000
7B00
CE00
C600
CE00
7B00
0000
0000
ENDCHAR
STARTCHAR delta
ENCODING 948
SWIDTH 750 0
DWIDTH 9 0
BBX 9 10 0 -2
BITMAP
0000
1F00
3000
0C00
7E00
C300
C300
7E00
0000
0000
ENDCHAR
STARTCHAR epsilon
ENCODING 949
SWIDTH 750 0
DWIDTH 9 0
BBX 9 10 0 -2
BITMAP
0000
1F00
6000
C000
FC00
C000
6000
1F00
0000
0000
ENDCHAR
STARTCHAR pi
ENCODING 960
SWIDTH 750 0
DWIDTH 9 0
BBX 9 10 0 -2
BITMAP
0000
0000
0000
FF00
3600
3600
3600
6600
0000
0000
ENDCHAR
STARTCHAR sigma
ENCODING 963
SWIDTH 750 0
DWIDTH 9 0
BBX 9 10 0 -2
BITMAP
0000
0000
0000
7F00
CC00
CC00
CC00
7800
0000
0000
ENDCHAR
STARTCHAR tau
ENCODING 964
SWIDTH 750 0
DWIDTH 9 0
BBX 9 10 0 -2
BITMAP
0000
0000
0000
FF00
1800
1800
1800
0C00
0000
0000
ENDCHAR
STARTCHAR phi
ENCODING 966
SWIDTH 750 0
DWIDTH 9 0
BBX 9 10 0 -2
BITMAP
0000
0000
0300
7E00
CF00
DB00
F300
7E00
C000
0000
ENDCHAR
STARTCHAR bullet
ENCODING 8226
SWIDTH 750 0
DWIDTH 9 0
BBX 9 10 0 -2
BITMAP
0000
0000
0000
1C00
3E00
3E00
1C00
0000
0000
0000
ENDCHAR
STARTCHAR exclamdbl
ENCODING 8252
SWIDTH 750 0
DWIDTH 9 0
BBX 9 10 0 -2
BITMAP
0000
6600
6600
6600
6600
6600
0000
6600
0000
0000
ENDCHAR
STARTCHAR uni207F
ENCODING 8319
SWIDTH 750 0
DWIDTH 9 0
BBX 9 10 0 -2
BITMAP
0000
7C00
7600
6600
6600
6600
0000
0000
0000
0000
ENDCHAR
STARTCHAR peseta
ENCODING 8359
SWIDTH 750 0
DWIDTH 9 0
BBX 9 10 0 -2
BITMAP
0000
FC00
C600
C600
FC00
C000
C600
CF00
0600
0700
ENDCHAR
STARTCHAR arrowleft
ENCODING 8592
SWIDTH 750 0
DWIDTH 9 0
BBX 9 10 0 -2
BITMAP
0000
0000
3000
6000
FF00
6000
3000
0000
0000
0000
ENDCHAR
STARTCHAR arrowup
ENCODING 8593
SWIDTH 750 0
DWIDTH 9 0
BBX 9 10 0 -2
BITMAP
1800
3C00
7E00
1800
1800
1800
1800
1800
0000
0000
ENDCHAR
STARTCHAR arrowright
ENCODING 8594
SWIDTH 750 0
DWIDTH 9 0
BBX 9 10 0 -2
BITMAP
0000
0000
0C00
0600
FF00
0600
0C00
0000
0000
0000
ENDCHAR
STARTCHAR arrowdown
ENCODING 8595
SWIDTH 750 0
DWIDTH 9 0
BBX 9 10 0 -2
BITMAP
1800
1800
1800
1800
1800
7E00
3C00
1800
0000
0000
ENDCHAR
STARTCHAR arrowboth
ENCODING 8596
SWIDTH 750 0
DWIDTH 9 0
BBX 9 10 0 -2
BITMAP
0000
0000
6600
C300
FF00
C300
6600
0000
0000
0000
ENDCHAR
STARTCHAR arrowupdn
ENCODING 8597
SWIDTH 750 0
DWIDTH 9 0
BBX 9 10 0 -2
BITMAP
1800
3C00
7E00
1800
1800
7E00
3C00
1800
0000
0000
ENDCHAR
STARTCHAR arrowupdnbse
ENCODING 8616
SWIDTH 750 0
DWIDTH 9 0
BBX 9 10 0 -2
BITMAP
1800
3C00
7E00
1800
1800
7E00
3C00
1800
FF00
0000
ENDCHAR
STARTCHAR uni2219
ENCODING 8729
SWIDTH 750 0
DWIDTH 9 0
BBX 9 10 0 -2
BITMAP
0000
0000
0000
0000
3800
3800
0000
0000
0000
0000
ENDCHAR
STARTCHAR radical
ENCODING 8730
SWIDTH 750 0
DWIDTH 9 0
BBX 9 10 0 -2
BITMAP
0F00
0C00
0C00
0C00
CC00
6C00
3C00
1C00
0C00
0000
ENDCHAR
STARTCHAR infinity
ENCODING 8734
SWIDTH 750 0
DWIDTH 9 0
BBX 9 10 0 -2
BITMAP
0000
0000
0000
6E00
DB00
DB00
DB00
7600
0000
0000
ENDCHAR
STARTCHAR orthogonal
ENCODING 8735
SWIDTH 750 0
DWIDTH 9 0
BBX 9 10 0 -2
BITMAP
0000
0000
C000
C000
C000
FE00
0000
0000
0000
0000
ENDCHAR
STARTCHAR intersection
ENCODING 8745
SWIDTH 750 0
DWIDTH 9 0
BBX 9 10 0 -2
BITMAP
0000
7E00
E700
C300
C300
C300
C300
C300
0000
0000
ENDCHAR
STARTCHAR approxequal
ENCODING 8776
SWIDTH 750 0
DWIDTH 9 0
BBX 9 10 0 -2
BITMAP
0000
7300
DB00
CE00
0000
7300
DB00
CE00
0000
0000
ENDCHAR
STARTCHAR equivalence
ENCODING 8801
SWIDTH 750 0
DWIDTH 9 0
BBX 9 10 0 -2
BITMAP
0000
FF00
0000
0000
FF00
0000
0000
FF00
0000
0000
ENDCHAR
STARTCHAR lessequal
ENCODING 8804
SWIDTH 750 0
DWIDTH 9 0
BBX 9 10 0 -2
BITMAP
0000
0300
0C00
3000
C000
3000
0C00
0300
FF00
0000
ENDCHAR
STARTCHAR greaterequal
ENCODING 8805
SWIDTH 750 0
DWIDTH 9 0
BBX 9 10 0 -2
BITMAP
0000
C000
3000
0C00
0300
0C00
3000
C000
FF00
0000
ENDCHAR
STARTCHAR house
ENCODING 8962
SWIDTH 750 0
DWIDTH 9 0
BBX 9 10 0 -2
BITMAP
0000
0000
1800
3C00
6600
C300
C300
FF00
0000
0000
ENDCHAR
STARTCHAR revlogicalnot
ENCODING 8976
SWIDTH 750 0
DWIDTH 9 0
BBX 9 10 0 -2
BITMAP
0000
0000
0000
FE00
C000
C000
C000
0000
0000
0000
ENDCHAR
STARTCHAR integraltp
ENCODING 8992
SWIDTH 750 0
DWIDTH 9 0
BBX 9 10 0 -2
BITMAP
0E00
1B00
1800
1800
1800
1800
1800
1800
1800
1800
ENDCHAR
STARTCHAR integralbt
ENCODING 8993
SWIDTH 750 0
DWIDTH 9 0
BBX 9 10 0 -2
BITMAP
1800
1800
1800
1800
1800
1800
1800
1800
D800
7000
ENDCHAR
STARTCHAR SF100000
ENCODING 9472
SWIDTH 750 0
DWIDTH 9 0
BBX 9 10 0 -2
BITMAP
0000
0000
0000
0000
FF80
0000
0000
0000
0000
0000
ENDCHAR
STARTCHAR SF110000
ENCODING 9474
SWIDTH 750 0
DWIDTH 9 0
BBX 9 10 0 -2
BITMAP
1800
1800
1800
1800
1800
1800
1800
1800
1800
1800
ENDCHAR
STARTCHAR SF010000
ENCODING 9484
SWIDTH 750 0
DWIDTH 9 0
BBX 9 10 0 -2
BITMAP
0000
0000
0000
0000
1F80
1800
1800
1800
1800
1800
ENDCHAR
STARTCHAR SF030000
ENCODING 9488
SWIDTH 750 0
DWIDTH 9 0
BBX 9 10 0 -2
BITMAP
0000
0000
0000
0000
F800
1800
1800
1800
1800
1800
ENDCHAR
STARTCHAR SF020000
ENCODING 9492
SWIDTH 750 0
DWIDTH 9 0
BBX 9 10 0 -2
BITMAP
1800
1800
1800
1800
1F80
0000
0000
0000
0000
0000
ENDCHAR
STARTCHAR SF040000
ENCODING 9496
SWIDTH 750 0
DWIDTH 9 0
BBX 9 10 0 -2
BITMAP
1800
1800
1800
1800
F800
0000
0000
0000
0000
0000
ENDCHAR
STARTCHAR SF080000
ENCODING 9500
SWIDTH 750 0
DWIDTH 9 0
BBX 9 10 0 -2
BITMAP
1800
1800
1800
1800
1F80
1800
1800
1800
1800
1800
ENDCHAR
STARTCHAR SF090000
ENCODING 9508
SWIDTH 750 0
DWIDTH 9 0
BBX 9 10 0 -2
BITMAP
1800
1800
1800
1800
F800
1800
1800
1800
1800
1800
ENDCHAR
STARTCHAR SF060000
ENCODING 9516
SWIDTH 750 0
DWIDTH 9 0
BBX 9 10 0 -2
BITMAP
0000
0000
0000
0000
FF80
1800
1800
1800
1800
1800
ENDCHAR
STARTCHAR SF070000
ENCODING 9524
SWIDTH 750 0
DWIDTH 9 0
BBX 9 10 0 -2
BITMAP
1800
1800
1800
1800
FF80
0000
0000
0000
0000
0000
ENDCHAR
STARTCHAR SF050000
ENCODING 9532
SWIDTH 750 0
DWIDTH 9 0
BBX 9 10 0 -2
BITMAP
1800
1800
1800
1800
FF80
1800
1800
1800
1800
1800
ENDCHAR
STARTCHAR SF430000
ENCODING 9552
SWIDTH 750 0
DWIDTH 9 0
BBX 9 10 0 -2
BITMAP
0000
0000
0000
0000
FF80
0000
FF80
0000
0000
0000
ENDCHAR
STARTCHAR SF240000
ENCODING 9553
SWIDTH 750 0
DWIDTH 9 0
BBX 9 10 0 -2
BITMAP
3600
3600
3600
3600
3600
3600
3600
3600
3600
3600
ENDCHAR
STARTCHAR SF510000
ENCODING 9554
SWIDTH 750 0
DWIDTH 9 0
BBX 9 10 0 -2
BITMAP
0000
0000
0000
0000
1F80
1800
1F80
1800
1800
1800
ENDCHAR
STARTCHAR SF520000
ENCODING 9555
SWIDTH 750 0
DWIDTH 9 0
BBX 9 10 0 -2
BITMAP
0000
0000
0000
0000
3F80
3600
3600
3600
3600
3600
ENDCHAR
STARTCHAR SF390000
ENCODING 9556
SWIDTH 750 0
DWIDTH 9 0
BBX 9 10 0 -2
BITMAP
0000
0000
0000
0000
3F80
3000
3780
3600
3600
3600
ENDCHAR
STARTCHAR SF220000
ENCODING 9557
SWIDTH 750 0
DWIDTH 9 0
BBX 9 10 0 -2
BITMAP
0000
0000
0000
0000
F800
1800
F800
1800
1800
1800
ENDCHAR
STARTCHAR SF210000
ENCODING 9558
SWIDTH 750 0
DWIDTH 9 0
BBX 9 10 0 -2
BITMAP
0000
0000
0000
0000
FE00
3600
3600
3600
3600
3600
ENDCHAR
STARTCHAR SF250000
ENCODING 9559
SWIDTH 750 0
DWIDTH 9 0
BBX 9 10 0 -2
BITMAP
0000
0000
0000
0000
FE00
0600
F600
3600
3600
3600
ENDCHAR
STARTCHAR SF500000
ENCODING 9560
SWIDTH 750 0
DWIDTH 9 0
BBX 9 10 0 -2
BITMAP
1800
1800
1800
1800
1F80
1800
1F80
0000
0000
0000
ENDCHAR
STARTCHAR SF490000
ENCODING 9561
SWIDTH 750 0
DWIDTH 9 0
BBX 9 10 0 -2
BITMAP
3600
3600
3600
3600
3F80
0000
0000
0000
0000
0000
ENDCHAR
STARTCHAR SF380000
ENCODING 9562
SWIDTH 750 0
DWIDTH 9 0
BBX 9 10 0 -2
BITMAP
3600
3600
3600
3600
3780
3000
3F80
0000
0000
0000
ENDCHAR
STARTCHAR SF280000
ENCODING 9563
SWIDTH 750 0
DWIDTH 9 0
BBX 9 10 0 -2
BITMAP
1800
1800
1800
1800
F800
1800
F800
0000
0000
0000
ENDCHAR
STARTCHAR SF270000
ENCODING 9564
SWIDTH 750 0
DWIDTH 9 0
BBX 9 10 0 -2
BITMAP
3600
3600
3600
3600
FE00
0000
0000
0000
0000
0000
ENDCHAR
STARTCHAR SF260000
ENCODING 9565
SWIDTH 750 0
DWIDTH 9 0
BBX 9 10 0 -2
BITMAP
3600
3600
3600
3600
F600
0600
FE00
0000
0000
0000
ENDCHAR
STARTCHAR SF360000
ENCODING 9566
SWIDTH 750 0
DWIDTH 9 0
BBX 9 10 0 -2
BITMAP
1800
1800
1800
1800
1F80
1800
1F80
1800
1800
1800
ENDCHAR
STARTCHAR SF370000
ENCODING 9567
SWIDTH 750 0
DWIDTH 9 0
BBX 9 10 0 -2
BITMAP
3600
3600
3600
3600
3780
3600
3600
3600
3600
3600
ENDCHAR
STARTCHAR SF420000
ENCODING 9568
SWIDTH 750 0
DWIDTH 9 0
BBX 9 10 0 -2
BITMAP
3600
3600
3600
3600
3780
3000
3780
3600
3600
3600
ENDCHAR
STARTCHAR SF190000
ENCODING 9569
SWIDTH 750 0
DWIDTH 9 0
BBX 9 10 0 -2
BITMAP
1800
1800
1800
1800
F800
1800
F800
1800
1800
1800
ENDCHAR
STARTCHAR SF200000
ENCODING 9570
SWIDTH 750 0
DWIDTH 9 0
BBX 9 10 0 -2
BITMAP
3600
3600
3600
3600
F600
3600
3600
3600
3600
3600
ENDCHAR
STARTCHAR SF230000
ENCODING 9571
SWIDTH 750 0
DWIDTH 9 0
BBX 9 10 0 -2
BITMAP
3600
3600
3600
3600
F600
0600
F600
3600
3600
3600
ENDCHAR
STARTCHAR SF470000
ENCODING 9572
SWIDTH 750 0
DWIDTH 9 0
BBX 9 10 0 -2
BITMAP
0000
0000
0000
0000
FF80
0000
FF80
1800
1800
1800
ENDCHAR
STARTCHAR SF480000
ENCODING 9573
SWIDTH 750 0
DWIDTH 9 0
BBX 9 10 0 -2
BITMAP
0000
0000
0000
0000
FF80
3600
3600
3600
3600
3600
ENDCHAR
STARTCHAR SF410000
ENCODING 9574
SWIDTH 750 0
DWIDTH 9 0
BBX 9 10 0 -2
BITMAP
0000
0000
0000
0000
FF80
0000
F780
3600
3600
3600
ENDCHAR
STARTCHAR SF450000
ENCODING 9575
SWIDTH 750 0
DWIDTH 9 0
BBX 9 10 0 -2
BITMAP
1800
1800
1800
1800
FF80
0000
FF80
0000
0000
0000
ENDCHAR
STARTCHAR SF460000
ENCODING 9576
SWIDTH 750 0
DWIDTH 9 0
BBX 9 10 0 -2
BITMAP
3600
3600
3600
3600
FF80
0000
0000
0000
0000
0000
ENDCHAR
STARTCHAR SF400000
ENCODING 9577
SWIDTH 750 0
DWIDTH 9 0
BBX 9 10 0 -2
BITMAP
3600
3600
3600
3600
F780
0000
FF80
0000
0000
0000
ENDCHAR
STARTCHAR SF540000
ENCODING 9578
SWIDTH 750 0
DWIDTH 9 0
BBX 9 10 0 -2
BITMAP
1800
1800
1800
1800
FF80
1800
FF80
1800
1800
1800
ENDCHAR
STARTCHAR SF530000
ENCODING 9579
SWIDTH 750 0
DWIDTH 9 0
BBX 9 10 0 -2
BITMAP
3600
3600
3600
3600
FF80
3600
3600
3600
3600
3600
ENDCHAR
STARTCHAR SF440000
ENCODING 9580
SWIDTH 750 0
DWIDTH 9 0
BBX 9 10 0 -2
BITMAP
3600
3600
3600
3600
F780
0000
F780
3600
3600
3600
ENDCHAR
STARTCHAR upblock
ENCODING 9600
SWIDTH 750 0
DWIDTH 9 0
BBX 9 10 0 -2
BITMAP
FF80
FF80
FF80
FF80
FF80
0000
0000
0000
0000
0000
ENDCHAR
STARTCHAR dnblock
ENCODING 9604
SWIDTH 750 0
DWIDTH 9 0
BBX 9 10 0 -2
BITMAP
0000
0000
0000
0000
0000
FF80
FF80
FF80
FF80
FF80
ENDCHAR
STARTCHAR block
ENCODING 9608
SWIDTH 750 0
DWIDTH 9 0
BBX 9 10 0 -2
BITMAP
FF80
FF80
FF80
FF80
FF80
FF80
FF80
FF80
FF80
FF80
ENDCHAR
STARTCHAR lfblock
ENCODING 9612
SWIDTH 750 0
DWIDTH 9 0
BBX 9 10 0 -2
BITMAP
F800
F800
F800
F800
F800
F800
F800
F800
F800
F800
ENDCHAR
STARTCHAR rtblock
ENCODING 9616
SWIDTH 750 0
DWIDTH 9 0
BBX 9 10 0 -2
BITMAP
0780
0780
0780
0780
0780
0780
0780
0780
0780
0780
ENDCHAR
STARTCHAR ltshade
ENCODING 9617
SWIDTH 750 0
DWIDTH 9 0
BBX 9 10 0 -2
BITMAP
0600
C000
0600
C000
0600
C000
0600
C000
0600
C000
ENDCHAR
STARTCHAR shade
ENCODING 9618
SWIDTH 750 0
DWIDTH 9 0
BBX 9 10 0 -2
BITMAP
1980
6600
1980
6600
1980
6600
1980
6600
1980
6600
ENDCHAR
STARTCHAR dkshade
ENCODING 9619
SWIDTH 750 0
DWIDTH 9 0
BBX 9 10 0 -2
BITMAP
6D80
DB00
6D80
DB00
6D80
DB00
6D80
DB00
6D80
DB00
ENDCHAR
STARTCHAR filledbox
ENCODING 9632
SWIDTH 750 0
DWIDTH 9 0
BBX 9 10 0 -2
BITMAP
0000
0000
0000
7E00
7E00
7E00
7E00
0000
0000
0000
ENDCHAR
STARTCHAR filledrect
ENCODING 9644
SWIDTH 750 0
DWIDTH 9 0
BBX 9 10 0 -2
BITMAP
0000
0000
0000
0000
0000
FE00
FE00
FE00
0000
0000
ENDCHAR
STARTCHAR triagup
ENCODING 9650
SWIDTH 750 0
DWIDTH 9 0
BBX 9 10 0 -2
BITMAP
0000
1800
3C00
3C00
7E00
7E00
FF00
FF00
0000
0000
ENDCHAR
STARTCHAR triagrt
ENCODING 9658
SWIDTH 750 0
DWIDTH 9 0
BBX 9 10 0 -2
BITMAP
0000
C000
F000
FC00
FF00
FC00
F000
C000
0000
0000
ENDCHAR
STARTCHAR triagdn
ENCODING 9660
SWIDTH 750 0
DWIDTH 9 0
BBX 9 10 0 -2
BITMAP
0000
FF00
FF00
7E00
7E00
3C00
3C00
1800
0000
0000
ENDCHAR
STARTCHAR triaglf
ENCODING 9668
SWIDTH 750 0
DWIDTH 9 0
BBX 9 10 0 -2
BITMAP
0000
0300
0F00
3F00
FF00
3F00
0F00
0300
0000
0000
ENDCHAR
STARTCHAR circle
ENCODING 9675
SWIDTH 750 0
DWIDTH 9 0
BBX 9 10 0 -2
BITMAP
0000
0000
1C00
3600
3600
3600
3600
1C00
0000
0000
ENDCHAR
STARTCHAR invbullet
ENCODING 9688
SWIDTH 750 0
DWIDTH 9 0
BBX 9 10 0 -2
BITMAP
FF80
FF80
FF80
E380
C180
C180
E380
FF80
FF80
FF80
ENDCHAR
STARTCHAR invcircle
ENCODING 9689
SWIDTH 750 0
DWIDTH 9 0
BBX 9 10 0 -2
BITMAP
FF80
FF80
E380
C980
C980
C980
C980
E380
FF80
FF80
ENDCHAR
STARTCHAR smileface
ENCODING 9786
SWIDTH 750 0
DWIDTH 9 0
BBX 9 10 0 -2
BITMAP
7E00
C300
E700
C300
FF00
DB00
C300
7E00
0000
0000
ENDCHAR
STARTCHAR invsmileface
ENCODING 9787
SWIDTH 750 0
DWIDTH 9 0
BBX 9 10 0 -2
BITMAP
7E00
FF00
DB00
FF00
C300
E700
FF00
7E00
0000
0000
ENDCHAR
STARTCHAR sun
ENCODING 9788
SWIDTH 750 0
DWIDTH 9 0
BBX 9 10 0 -2
BITMAP
0000
1800
DB00
3C00
E700
3C00
DB00
1800
0000
0000
ENDCHAR
STARTCHAR female
ENCODING 9792
SWIDTH 750 0
DWIDTH 9 0
BBX 9 10 0 -2
BITMAP
7E00
C300
C300
C300
7E00
1800
7E00
1800
0000
0000
ENDCHAR
STARTCHAR male
ENCODING 9794
SWIDTH 750 0
DWIDTH 9 0
BBX 9 10 0 -2
BITMAP
1F00
0700
0D00
7E00
C300
C300
C300
7E00
0000
0000
ENDCHAR
STARTCHAR spade
ENCODING 9824
SWIDTH 750 0
DWIDTH 9 0
BBX 9 10 0 -2
BITMAP
1800
3C00
7E00
FF00
FF00
6600
1800
3C00
0000
0000
ENDCHAR
STARTCHAR club
ENCODING 9827
SWIDTH 750 0
DWIDTH 9 0
BBX 9 10 0 -2
BITMAP
1800
3C00
1800
7E00
FF00
6600
1800
3C00
0000
0000
ENDCHAR
STARTCHAR heart
ENCODING 9829
SWIDTH 750 0
DWIDTH 9 0
BBX 9 10 0 -2
BITMAP
0000
6600
FF00
FF00
FF00
7E00
3C00
1800
0000
0000
ENDCHAR
STARTCHAR diamond
ENCODING 9830
SWIDTH 750 0
DWIDTH 9 0
BBX 9 10 0 -2
BITMAP
0000
1800
3C00
7E00
FF00
7E00
3C00
1800
0000
0000
ENDCHAR
STARTCHAR musicalnote
ENCODING 9834
SWIDTH 750 0
DWIDTH 9 0
BBX 9 10 0 -2
BITMAP
3800
3E00
3300
3000
3000
7000
F000
E000
0000
0000
ENDCHAR
STARTCHAR musicalnotedbl
ENCODING 9835
SWIDTH 750 0
DWIDTH 9 0
BBX 9 10 0 -2
BITMAP
3800
3600
3B00
3700
3300
7300
F700
EF00
0E00
0000
ENDCHAR
STARTCHAR uni3044
ENCODING 12356
SWIDTH 750 0
DWIDTH 9 0
BBX 9 10 0 -2
BITMAP
0000
0000
0000
0000
0000
0000
0000
0000
0000
0000
ENDCHAR
STARTCHAR uni3046
ENCODING 12358
SWIDTH 750 0
DWIDTH 9 0
BBX 9 10 0 -2
BITMAP
0000
0000
0000
0000
0000
0000
0000
0000
0000
0000
ENDCHAR
STARTCHAR uni304B
ENCODING 12363
SWIDTH 750 0
DWIDTH 9 0
BBX 9 10 0 -2
BITMAP
0000
0000
0000
0000
0000
0000
0000
0000
0000
0000
ENDCHAR
STARTCHAR uni3057
ENCODING 12375
SWIDTH 750 0
DWIDTH 9 0
BBX 9 10 0 -2
BITMAP
0000
0000
0000
0000
0000
0000
0000
0000
0000
0000
ENDCHAR
STARTCHAR uni306E
ENCODING 12398
SWIDTH 750 0
DWIDTH 9 0
BBX 9 10 0 -2
BITMAP
0000
0000
0000
0000
0000
0000
0000
0000
0000
0000
ENDCHAR
STARTCHAR uni3093
ENCODING 12435
SWIDTH 750 0
DWIDTH 9 0
BBX 9 10 0 -2
BITMAP
0000
0000
0000
0000
0000
0000
0000
0000
0000
0000
ENDCHAR
STARTCHAR .notdef
ENCODING -1
SWIDTH 750 0
DWIDTH 9 0
BBX 8 9 1 0
BITMAP
FF
81
81
81
81
81
81
81
FF
ENDCHAR
ENDFONT
