STARTFONT 2.1
FONT 3x3-Mono-4px
SIZE 4 75 75
FONTBOUNDINGBOX 3 3 0 0
STARTPROPERTIES 3
PIXEL_SIZE 4
FONT_ASCENT 4
FONT_DESCENT 0
ENDPROPERTIES
CHARS 280
STARTCHAR uni0020
ENCODING 32
SWIDTH 1000 0
DWIDTH 4 0
BBX 1 1 0 0
BITMAP
00
ENDCHAR
STARTCHAR uni0021
ENCODING 33
SWIDTH 1000 0
DWIDTH 4 0
BBX 1 3 1 0
BITMAP
80
80
80
ENDCHAR
STARTCHAR uni0022
ENCODING 34
SWIDTH 1000 0
DWIDTH 4 0
BBX 3 1 0 2
BITMAP
A0
ENDCHAR
STARTCHAR uni0027
ENCODING 39
SWIDTH 1000 0
DWIDTH 4 0
BBX 1 1 1 2
BITMAP
80
ENDCHAR
STARTCHAR uni0028
ENCODING 40
SWIDTH 1000 0
DWIDTH 4 0
BBX 2 3 0 0
BITMAP
40
80
40
ENDCHAR
STARTCHAR uni0029
ENCODING 41
SWIDTH 1000 0
DWIDTH 4 0
BBX 2 3 1 0
BITMAP
80
40
80
ENDCHAR
STARTCHAR uni002A
ENCODING 42
SWIDTH 1000 0
DWIDTH 4 0
BBX 1 1 0 2
BITMAP
80
ENDCHAR
STARTCHAR uni002B
ENCODING 43
SWIDTH 1000 0
DWIDTH 4 0
BBX 3 3 0 0
BITMAP
40
E0
40
ENDCHAR
STARTCHAR uni002C
ENCODING 44
SWIDTH 1000 0
DWIDTH 4 0
BBX 2 2 0 0
BITMAP
40
80
ENDCHAR
STARTCHAR uni002D
ENCODING 45
SWIDTH 1000 0
DWIDTH 4 0
BBX 3 1 0 1
BITMAP
E0
ENDCHAR
STARTCHAR uni002E
ENCODING 46
SWIDTH 1000 0
DWIDTH 4 0
BBX 1 1 1 0
BITMAP
80
ENDCHAR
STARTCHAR uni002F
ENCODING 47
SWIDTH 1000 0
DWIDTH 4 0
BBX 3 3 0 0
BITMAP
20
40
80
ENDCHAR
STARTCHAR uni0030
ENCODING 48
SWIDTH 1000 0
DWIDTH 4 0
BBX 3 3 0 0
BITMAP
E0
A0
E0
ENDCHAR
STARTCHAR uni0031
ENCODING 49
SWIDTH 1000 0
DWIDTH 4 0
BBX 2 3 0 0
BITMAP
C0
40
40
ENDCHAR
STARTCHAR uni0032
ENCODING 50
SWIDTH 1000 0
DWIDTH 4 0
BBX 3 3 0 0
BITMAP
C0
40
60
ENDCHAR
STARTCHAR uni0033
ENCODING 51
SWIDTH 1000 0
DWIDTH 4 0
BBX 3 3 0 0
BITMAP
C0
60
20
ENDCHAR
STARTCHAR uni0034
ENCODING 52
SWIDTH 1000 0
DWIDTH 4 0
BBX 3 3 0 0
BITMAP
A0
E0
20
ENDCHAR
STARTCHAR uni0035
ENCODING 53
SWIDTH 1000 0
DWIDTH 4 0
BBX 3 3 0 0
BITMAP
60
40
C0
ENDCHAR
STARTCHAR uni0036
ENCODING 54
SWIDTH 1000 0
DWIDTH 4 0
BBX 3 3 0 0
BITMAP
80
E0
E0
ENDCHAR
STARTCHAR uni0037
ENCODING 55
SWIDTH 1000 0
DWIDTH 4 0
BBX 3 3 0 0
BITMAP
E0
20
20
ENDCHAR
STARTCHAR uni0038
ENCODING 56
SWIDTH 1000 0
DWIDTH 4 0
BBX 3 3 0 0
BITMAP
40
E0
E0
ENDCHAR
STARTCHAR uni0039
ENCODING 57
SWIDTH 1000 0
DWIDTH 4 0
BBX 3 3 0 0
BITMAP
E0
E0
20
ENDCHAR
STARTCHAR uni003A
ENCODING 58
SWIDTH 1000 0
DWIDTH 4 0
BBX 1 3 1 0
BITMAP
80
00
80
ENDCHAR
STARTCHAR uni003B
ENCODING 59
SWIDTH 1000 0
DWIDTH 4 0
BBX 2 3 0 0
BITMAP
40
00
C0
ENDCHAR
STARTCHAR uni003C
ENCODING 60
SWIDTH 1000 0
DWIDTH 4 0
BBX 3 3 0 0
BITMAP
60
80
60
ENDCHAR
STARTCHAR uni003D
ENCODING 61
SWIDTH 1000 0
DWIDTH 4 0
BBX 3 3 0 0
BITMAP
E0
00
E0
ENDCHAR
STARTCHAR uni003E
ENCODING 62
SWIDTH 1000 0
DWIDTH 4 0
BBX 3 3 0 0
BITMAP
C0
20
C0
ENDCHAR
STARTCHAR uni003F
ENCODING 63
SWIDTH 1000 0
DWIDTH 4 0
BBX 3 3 0 0
BITMAP
E0
60
40
ENDCHAR
STARTCHAR uni0041
ENCODING 65
SWIDTH 1000 0
DWIDTH 4 0
BBX 3 3 0 0
BITMAP
40
A0
A0
ENDCHAR
STARTCHAR uni0042
ENCODING 66
SWIDTH 1000 0
DWIDTH 4 0
BBX 3 3 0 0
BITMAP
C0
E0
C0
ENDCHAR
STARTCHAR uni0043
ENCODING 67
SWIDTH 1000 0
DWIDTH 4 0
BBX 3 3 0 0
BITMAP
60
80
60
ENDCHAR
STARTCHAR uni0044
ENCODING 68
SWIDTH 1000 0
DWIDTH 4 0
BBX 3 3 0 0
BITMAP
C0
A0
C0
ENDCHAR
STARTCHAR uni0045
ENCODING 69
SWIDTH 1000 0
DWIDTH 4 0
BBX 3 3 0 0
BITMAP
80
C0
E0
ENDCHAR
STARTCHAR uni0046
ENCODING 70
SWIDTH 1000 0
DWIDTH 4 0
BBX 3 3 0 0
BITMAP
E0
C0
80
ENDCHAR
STARTCHAR uni0047
ENCODING 71
SWIDTH 1000 0
DWIDTH 4 0
BBX 3 3 0 0
BITMAP
C0
A0
E0
ENDCHAR
STARTCHAR uni0048
ENCODING 72
SWIDTH 1000 0
DWIDTH 4 0
BBX 3 3 0 0
BITMAP
A0
E0
A0
ENDCHAR
STARTCHAR uni0049
ENCODING 73
SWIDTH 1000 0
DWIDTH 4 0
BBX 3 3 0 0
BITMAP
E0
40
E0
ENDCHAR
STARTCHAR uni004A
ENCODING 74
SWIDTH 1000 0
DWIDTH 4 0
BBX 3 3 0 0
BITMAP
20
A0
E0
ENDCHAR
STARTCHAR uni004B
ENCODING 75
SWIDTH 1000 0
DWIDTH 4 0
BBX 3 3 0 0
BITMAP
A0
C0
A0
ENDCHAR
STARTCHAR uni004C
ENCODING 76
SWIDTH 1000 0
DWIDTH 4 0
BBX 3 3 0 0
BITMAP
80
80
E0
ENDCHAR
STARTCHAR uni004D
ENCODING 77
SWIDTH 1000 0
DWIDTH 4 0
BBX 3 3 0 0
BITMAP
E0
E0
A0
ENDCHAR
STARTCHAR uni004E
ENCODING 78
SWIDTH 1000 0
DWIDTH 4 0
BBX 3 3 0 0
BITMAP
C0
A0
A0
ENDCHAR
STARTCHAR uni004F
ENCODING 79
SWIDTH 1000 0
DWIDTH 4 0
BBX 3 3 0 0
BITMAP
40
A0
40
ENDCHAR
STARTCHAR uni0050
ENCODING 80
SWIDTH 1000 0
DWIDTH 4 0
BBX 3 3 0 0
BITMAP
E0
E0
80
ENDCHAR
STARTCHAR uni0051
ENCODING 81
SWIDTH 1000 0
DWIDTH 4 0
BBX 3 3 0 0
BITMAP
40
A0
60
ENDCHAR
STARTCHAR uni0052
ENCODING 82
SWIDTH 1000 0
DWIDTH 4 0
BBX 3 3 0 0
BITMAP
C0
C0
A0
ENDCHAR
STARTCHAR uni0053
ENCODING 83
SWIDTH 1000 0
DWIDTH 4 0
BBX 3 3 0 0
BITMAP
60
40
C0
ENDCHAR
STARTCHAR uni0054
ENCODING 84
SWIDTH 1000 0
DWIDTH 4 0
BBX 3 3 0 0
BITMAP
E0
40
40
ENDCHAR
STARTCHAR uni0055
ENCODING 85
SWIDTH 1000 0
DWIDTH 4 0
BBX 3 3 0 0
BITMAP
A0
A0
E0
ENDCHAR
STARTCHAR uni0056
ENCODING 86
SWIDTH 1000 0
DWIDTH 4 0
BBX 3 3 0 0
BITMAP
A0
A0
40
ENDCHAR
STARTCHAR uni0057
ENCODING 87
SWIDTH 1000 0
DWIDTH 4 0
BBX 3 3 0 0
BITMAP
A0
E0
E0
ENDCHAR
STARTCHAR uni0058
ENCODING 88
SWIDTH 1000 0
DWIDTH 4 0
BBX 3 3 0 0
BITMAP
A0
40
A0
ENDCHAR
STARTCHAR uni0059
ENCODING 89
SWIDTH 1000 0
DWIDTH 4 0
BBX 3 3 0 0
BITMAP
A0
E0
40
ENDCHAR
STARTCHAR uni005A
ENCODING 90
SWIDTH 1000 0
DWIDTH 4 0
BBX 3 3 0 0
BITMAP
C0
40
60
ENDCHAR
STARTCHAR uni005B
ENCODING 91
SWIDTH 1000 0
DWIDTH 4 0
BBX 2 3 0 0
BITMAP
C0
80
C0
ENDCHAR
STARTCHAR uni005C
ENCODING 92
SWIDTH 1000 0
DWIDTH 4 0
BBX 3 3 0 0
BITMAP
80
40
20
ENDCHAR
STARTCHAR uni005D
ENCODING 93
SWIDTH 1000 0
DWIDTH 4 0
BBX 2 3 1 0
BITMAP
C0
40
C0
ENDCHAR
STARTCHAR uni005E
ENCODING 94
SWIDTH 1000 0
DWIDTH 4 0
BBX 3 2 0 1
BITMAP
40
A0
ENDCHAR
STARTCHAR uni005F
ENCODING 95
SWIDTH 1000 0
DWIDTH 4 0
BBX 3 1 0 0
BITMAP
E0
ENDCHAR
STARTCHAR uni0060
ENCODING 96
SWIDTH 1000 0
DWIDTH 4 0
BBX 1 1 1 2
BITMAP
80
ENDCHAR
STARTCHAR uni0061
ENCODING 97
SWIDTH 1000 0
DWIDTH 4 0
BBX 3 3 0 0
BITMAP
40
A0
A0
ENDCHAR
STARTCHAR uni0062
ENCODING 98
SWIDTH 1000 0
DWIDTH 4 0
BBX 3 3 0 0
BITMAP
C0
E0
C0
ENDCHAR
STARTCHAR uni0063
ENCODING 99
SWIDTH 1000 0
DWIDTH 4 0
BBX 3 3 0 0
BITMAP
60
80
60
ENDCHAR
STARTCHAR uni0064
ENCODING 100
SWIDTH 1000 0
DWIDTH 4 0
BBX 3 3 0 0
BITMAP
C0
A0
C0
ENDCHAR
STARTCHAR uni0065
ENCODING 101
SWIDTH 1000 0
DWIDTH 4 0
BBX 3 3 0 0
BITMAP
80
C0
E0
ENDCHAR
STARTCHAR uni0066
ENCODING 102
SWIDTH 1000 0
DWIDTH 4 0
BBX 3 3 0 0
BITMAP
E0
C0
80
ENDCHAR
STARTCHAR uni0067
ENCODING 103
SWIDTH 1000 0
DWIDTH 4 0
BBX 3 3 0 0
BITMAP
C0
A0
E0
ENDCHAR
STARTCHAR uni0068
ENCODING 104
SWIDTH 1000 0
DWIDTH 4 0
BBX 3 3 0 0
BITMAP
A0
E0
A0
ENDCHAR
STARTCHAR uni0069
ENCODING 105
SWIDTH 1000 0
DWIDTH 4 0
BBX 3 3 0 0
BITMAP
E0
40
E0
ENDCHAR
STARTCHAR uni006A
ENCODING 106
SWIDTH 1000 0
DWIDTH 4 0
BBX 3 3 0 0
BITMAP
20
A0
E0
ENDCHAR
STARTCHAR uni006B
ENCODING 107
SWIDTH 1000 0
DWIDTH 4 0
BBX 3 3 0 0
BITMAP
A0
C0
A0
ENDCHAR
STARTCHAR uni006C
ENCODING 108
SWIDTH 1000 0
DWIDTH 4 0
BBX 3 3 0 0
BITMAP
80
80
E0
ENDCHAR
STARTCHAR uni006D
ENCODING 109
SWIDTH 1000 0
DWIDTH 4 0
BBX 3 3 0 0
BITMAP
E0
E0
A0
ENDCHAR
STARTCHAR uni006E
ENCODING 110
SWIDTH 1000 0
DWIDTH 4 0
BBX 3 3 0 0
BITMAP
C0
A0
A0
ENDCHAR
STARTCHAR uni006F
ENCODING 111
SWIDTH 1000 0
DWIDTH 4 0
BBX 3 3 0 0
BITMAP
40
A0
40
ENDCHAR
STARTCHAR uni0070
ENCODING 112
SWIDTH 1000 0
DWIDTH 4 0
BBX 3 3 0 0
BITMAP
E0
E0
80
ENDCHAR
STARTCHAR uni0071
ENCODING 113
SWIDTH 1000 0
DWIDTH 4 0
BBX 3 3 0 0
BITMAP
40
A0
60
ENDCHAR
STARTCHAR uni0072
ENCODING 114
SWIDTH 1000 0
DWIDTH 4 0
BBX 3 3 0 0
BITMAP
C0
C0
A0
ENDCHAR
STARTCHAR uni0073
ENCODING 115
SWIDTH 1000 0
DWIDTH 4 0
BBX 3 3 0 0
BITMAP
60
40
C0
ENDCHAR
STARTCHAR uni0074
ENCODING 116
SWIDTH 1000 0
DWIDTH 4 0
BBX 3 3 0 0
BITMAP
E0
40
40
ENDCHAR
STARTCHAR uni0075
ENCODING 117
SWIDTH 1000 0
DWIDTH 4 0
BBX 3 3 0 0
BITMAP
A0
A0
E0
ENDCHAR
STARTCHAR uni0076
ENCODING 118
SWIDTH 1000 0
DWIDTH 4 0
BBX 3 3 0 0
BITMAP
A0
A0
40
ENDCHAR
STARTCHAR uni0077
ENCODING 119
SWIDTH 1000 0
DWIDTH 4 0
BBX 3 3 0 0
BITMAP
A0
E0
E0
ENDCHAR
STARTCHAR uni0078
ENCODING 120
SWIDTH 1000 0
DWIDTH 4 0
BBX 3 3 0 0
BITMAP
A0
40
A0
ENDCHAR
STARTCHAR uni0079
ENCODING 121
SWIDTH 1000 0
DWIDTH 4 0
BBX 3 3 0 0
BITMAP
A0
E0
40
ENDCHAR
STARTCHAR uni007A
ENCODING 122
SWIDTH 1000 0
DWIDTH 4 0
BBX 3 3 0 0
BITMAP
C0
40
60
ENDCHAR
STARTCHAR uni007B
ENCODING 123
SWIDTH 1000 0
DWIDTH 4 0
BBX 3 3 0 0
BITMAP
60
C0
60
ENDCHAR
STARTCHAR uni007C
ENCODING 124
SWIDTH 1000 0
DWIDTH 4 0
BBX 1 3 1 0
BITMAP
80
80
80
ENDCHAR
STARTCHAR uni007D
ENCODING 125
SWIDTH 1000 0
DWIDTH 4 0
BBX 3 3 0 0
BITMAP
C0
60
C0
ENDCHAR
STARTCHAR uni007E
ENCODING 126
SWIDTH 1000 0
DWIDTH 4 0
BBX 3 2 0 1
BITMAP
C0
60
ENDCHAR
STARTCHAR uni00A0
ENCODING 160
SWIDTH 1000 0
DWIDTH 4 0
BBX 1 1 0 0
BITMAP
00
ENDCHAR
STARTCHAR uni00A1
ENCODING 161
SWIDTH 1000 0
DWIDTH 4 0
BBX 1 3 1 0
BITMAP
80
80
80
ENDCHAR
STARTCHAR uni00A3
ENCODING 163
SWIDTH 1000 0
DWIDTH 4 0
BBX 3 3 0 0
BITMAP
60
40
E0
ENDCHAR
STARTCHAR uni00A8
ENCODING 168
SWIDTH 1000 0
DWIDTH 4 0
BBX 3 1 0 2
BITMAP
A0
ENDCHAR
STARTCHAR uni00AB
ENCODING 171
SWIDTH 1000 0
DWIDTH 4 0
BBX 3 2 0 0
BITMAP
A0
A0
ENDCHAR
STARTCHAR uni00AC
ENCODING 172
SWIDTH 1000 0
DWIDTH 4 0
BBX 3 2 0 0
BITMAP
E0
20
ENDCHAR
STARTCHAR uni00AD
ENCODING 173
SWIDTH 1000 0
DWIDTH 4 0
BBX 3 1 0 1
BITMAP
E0
ENDCHAR
STARTCHAR uni00AF
ENCODING 175
SWIDTH 1000 0
DWIDTH 4 0
BBX 3 1 0 2
BITMAP
E0
ENDCHAR
STARTCHAR uni00B0
ENCODING 176
SWIDTH 1000 0
DWIDTH 4 0
BBX 2 2 0 1
BITMAP
C0
C0
ENDCHAR
STARTCHAR uni00B4
ENCODING 180
SWIDTH 1000 0
DWIDTH 4 0
BBX 1 1 1 2
BITMAP
80
ENDCHAR
STARTCHAR uni00B7
ENCODING 183
SWIDTH 1000 0
DWIDTH 4 0
BBX 1 1 1 1
BITMAP
80
ENDCHAR
STARTCHAR uni00B8
ENCODING 184
SWIDTH 1000 0
DWIDTH 4 0
BBX 2 2 0 0
BITMAP
40
80
ENDCHAR
STARTCHAR uni00BB
ENCODING 187
SWIDTH 1000 0
DWIDTH 4 0
BBX 3 2 0 0
BITMAP
A0
A0
ENDCHAR
STARTCHAR uni00BF
ENCODING 191
SWIDTH 1000 0
DWIDTH 4 0
BBX 3 3 0 0
BITMAP
40
C0
E0
ENDCHAR
STARTCHAR uni00D1
ENCODING 209
SWIDTH 1000 0
DWIDTH 4 0
BBX 3 3 0 0
BITMAP
40
C0
A0
ENDCHAR
STARTCHAR uni00D7
ENCODING 215
SWIDTH 1000 0
DWIDTH 4 0
BBX 3 3 0 0
BITMAP
A0
40
A0
ENDCHAR
STARTCHAR uni00F1
ENCODING 241
SWIDTH 1000 0
DWIDTH 4 0
BBX 3 3 0 0
BITMAP
40
C0
A0
ENDCHAR
STARTCHAR uni013D
ENCODING 317
SWIDTH 1000 0
DWIDTH 4 0
BBX 3 3 0 0
BITMAP
A0
80
E0
ENDCHAR
STARTCHAR uni013E
ENCODING 318
SWIDTH 1000 0
DWIDTH 4 0
BBX 3 3 0 0
BITMAP
A0
80
E0
ENDCHAR
STARTCHAR uni013F
ENCODING 319
SWIDTH 1000 0
DWIDTH 4 0
BBX 3 3 0 0
BITMAP
A0
80
E0
ENDCHAR
STARTCHAR uni0140
ENCODING 320
SWIDTH 1000 0
DWIDTH 4 0
BBX 3 3 0 0
BITMAP
A0
80
E0
ENDCHAR
STARTCHAR uni017F
ENCODING 383
SWIDTH 1000 0
DWIDTH 4 0
BBX 2 3 1 0
BITMAP
C0
80
80
ENDCHAR
STARTCHAR uni0186
ENCODING 390
SWIDTH 1000 0
DWIDTH 4 0
BBX 3 3 0 0
BITMAP
C0
20
C0
ENDCHAR
STARTCHAR uni0190
ENCODING 400
SWIDTH 1000 0
DWIDTH 4 0
BBX 3 3 0 0
BITMAP
80
C0
60
ENDCHAR
STARTCHAR uni01C0
ENCODING 448
SWIDTH 1000 0
DWIDTH 4 0
BBX 1 3 1 0
BITMAP
80
80
80
ENDCHAR
STARTCHAR uni01C1
ENCODING 449
SWIDTH 1000 0
DWIDTH 4 0
BBX 3 3 0 0
BITMAP
A0
A0
A0
ENDCHAR
STARTCHAR uni01C2
ENCODING 450
SWIDTH 1000 0
DWIDTH 4 0
BBX 3 3 0 0
BITMAP
40
E0
40
ENDCHAR
STARTCHAR uni01C3
ENCODING 451
SWIDTH 1000 0
DWIDTH 4 0
BBX 1 3 1 0
BITMAP
80
80
80
ENDCHAR
STARTCHAR uni0241
ENCODING 577
SWIDTH 1000 0
DWIDTH 4 0
BBX 3 3 0 0
BITMAP
E0
60
40
ENDCHAR
STARTCHAR uni0242
ENCODING 578
SWIDTH 1000 0
DWIDTH 4 0
BBX 3 3 0 0
BITMAP
E0
60
40
ENDCHAR
STARTCHAR uni0254
ENCODING 596
SWIDTH 1000 0
DWIDTH 4 0
BBX 3 3 0 0
BITMAP
C0
20
C0
ENDCHAR
STARTCHAR uni025B
ENCODING 603
SWIDTH 1000 0
DWIDTH 4 0
BBX 3 3 0 0
BITMAP
80
C0
60
ENDCHAR
STARTCHAR uni0294
ENCODING 660
SWIDTH 1000 0
DWIDTH 4 0
BBX 3 3 0 0
BITMAP
E0
60
40
ENDCHAR
STARTCHAR uni02B9
ENCODING 697
SWIDTH 1000 0
DWIDTH 4 0
BBX 1 1 1 2
BITMAP
80
ENDCHAR
STARTCHAR uni02BA
ENCODING 698
SWIDTH 1000 0
DWIDTH 4 0
BBX 3 1 0 2
BITMAP
A0
ENDCHAR
STARTCHAR uni02BB
ENCODING 699
SWIDTH 1000 0
DWIDTH 4 0
BBX 1 1 1 2
BITMAP
80
ENDCHAR
STARTCHAR uni02BC
ENCODING 700
SWIDTH 1000 0
DWIDTH 4 0
BBX 1 1 1 2
BITMAP
80
ENDCHAR
STARTCHAR uni02BD
ENCODING 701
SWIDTH 1000 0
DWIDTH 4 0
BBX 1 1 1 2
BITMAP
80
ENDCHAR
STARTCHAR uni02C9
ENCODING 713
SWIDTH 1000 0
DWIDTH 4 0
BBX 3 1 0 2
BITMAP
E0
ENDCHAR
STARTCHAR uni02CD
ENCODING 717
SWIDTH 1000 0
DWIDTH 4 0
BBX 3 1 0 0
BITMAP
E0
ENDCHAR
STARTCHAR uni02D7
ENCODING 727
SWIDTH 1000 0
DWIDTH 4 0
BBX 3 1 0 1
BITMAP
E0
ENDCHAR
STARTCHAR uni02D9
ENCODING 729
SWIDTH 1000 0
DWIDTH 4 0
BBX 1 1 1 2
BITMAP
80
ENDCHAR
STARTCHAR uni02DC
ENCODING 732
SWIDTH 1000 0
DWIDTH 4 0
BBX 3 2 0 1
BITMAP
C0
60
ENDCHAR
STARTCHAR uni0374
ENCODING 884
SWIDTH 1000 0
DWIDTH 4 0
BBX 1 1 1 2
BITMAP
80
ENDCHAR
STARTCHAR uni0375
ENCODING 885
SWIDTH 1000 0
DWIDTH 4 0
BBX 1 1 1 0
BITMAP
80
ENDCHAR
STARTCHAR uni037A
ENCODING 890
SWIDTH 1000 0
DWIDTH 4 0
BBX 1 1 1 0
BITMAP
80
ENDCHAR
STARTCHAR uni037B
ENCODING 891
SWIDTH 1000 0
DWIDTH 4 0
BBX 3 3 0 0
BITMAP
C0
20
C0
ENDCHAR
STARTCHAR uni037E
ENCODING 894
SWIDTH 1000 0
DWIDTH 4 0
BBX 2 3 0 0
BITMAP
40
00
C0
ENDCHAR
STARTCHAR uni0384
ENCODING 900
SWIDTH 1000 0
DWIDTH 4 0
BBX 1 1 1 2
BITMAP
80
ENDCHAR
STARTCHAR uni0387
ENCODING 903
SWIDTH 1000 0
DWIDTH 4 0
BBX 1 1 1 1
BITMAP
80
ENDCHAR
STARTCHAR uni0391
ENCODING 913
SWIDTH 1000 0
DWIDTH 4 0
BBX 3 3 0 0
BITMAP
40
A0
A0
ENDCHAR
STARTCHAR uni0392
ENCODING 914
SWIDTH 1000 0
DWIDTH 4 0
BBX 3 3 0 0
BITMAP
C0
E0
C0
ENDCHAR
STARTCHAR uni0393
ENCODING 915
SWIDTH 1000 0
DWIDTH 4 0
BBX 3 3 0 0
BITMAP
E0
80
80
ENDCHAR
STARTCHAR uni0394
ENCODING 916
SWIDTH 1000 0
DWIDTH 4 0
BBX 3 3 0 0
BITMAP
40
A0
E0
ENDCHAR
STARTCHAR uni0395
ENCODING 917
SWIDTH 1000 0
DWIDTH 4 0
BBX 3 3 0 0
BITMAP
80
C0
E0
ENDCHAR
STARTCHAR uni0396
ENCODING 918
SWIDTH 1000 0
DWIDTH 4 0
BBX 3 3 0 0
BITMAP
C0
40
60
ENDCHAR
STARTCHAR uni0397
ENCODING 919
SWIDTH 1000 0
DWIDTH 4 0
BBX 3 3 0 0
BITMAP
A0
E0
A0
ENDCHAR
STARTCHAR uni0399
ENCODING 921
SWIDTH 1000 0
DWIDTH 4 0
BBX 3 3 0 0
BITMAP
E0
40
E0
ENDCHAR
STARTCHAR uni039A
ENCODING 922
SWIDTH 1000 0
DWIDTH 4 0
BBX 3 3 0 0
BITMAP
A0
C0
A0
ENDCHAR
STARTCHAR uni039B
ENCODING 923
SWIDTH 1000 0
DWIDTH 4 0
BBX 3 3 0 0
BITMAP
80
40
A0
ENDCHAR
STARTCHAR uni039C
ENCODING 924
SWIDTH 1000 0
DWIDTH 4 0
BBX 3 3 0 0
BITMAP
E0
E0
A0
ENDCHAR
STARTCHAR uni039F
ENCODING 927
SWIDTH 1000 0
DWIDTH 4 0
BBX 3 3 0 0
BITMAP
40
A0
40
ENDCHAR
STARTCHAR uni03A0
ENCODING 928
SWIDTH 1000 0
DWIDTH 4 0
BBX 3 3 0 0
BITMAP
E0
A0
A0
ENDCHAR
STARTCHAR uni03A1
ENCODING 929
SWIDTH 1000 0
DWIDTH 4 0
BBX 3 3 0 0
BITMAP
E0
E0
80
ENDCHAR
STARTCHAR uni03A4
ENCODING 932
SWIDTH 1000 0
DWIDTH 4 0
BBX 3 3 0 0
BITMAP
E0
40
40
ENDCHAR
STARTCHAR uni03A5
ENCODING 933
SWIDTH 1000 0
DWIDTH 4 0
BBX 3 3 0 0
BITMAP
A0
E0
40
ENDCHAR
STARTCHAR uni03A6
ENCODING 934
SWIDTH 1000 0
DWIDTH 4 0
BBX 3 3 0 0
BITMAP
E0
E0
40
ENDCHAR
STARTCHAR uni03A7
ENCODING 935
SWIDTH 1000 0
DWIDTH 4 0
BBX 3 3 0 0
BITMAP
A0
40
A0
ENDCHAR
STARTCHAR uni03B1
ENCODING 945
SWIDTH 1000 0
DWIDTH 4 0
BBX 3 3 0 0
BITMAP
40
A0
A0
ENDCHAR
STARTCHAR uni03B2
ENCODING 946
SWIDTH 1000 0
DWIDTH 4 0
BBX 3 3 0 0
BITMAP
C0
E0
C0
ENDCHAR
STARTCHAR uni03B3
ENCODING 947
SWIDTH 1000 0
DWIDTH 4 0
BBX 3 3 0 0
BITMAP
E0
80
80
ENDCHAR
STARTCHAR uni03B4
ENCODING 948
SWIDTH 1000 0
DWIDTH 4 0
BBX 3 3 0 0
BITMAP
40
A0
E0
ENDCHAR
STARTCHAR uni03B5
ENCODING 949
SWIDTH 1000 0
DWIDTH 4 0
BBX 3 3 0 0
BITMAP
80
C0
E0
ENDCHAR
STARTCHAR uni03B6
ENCODING 950
SWIDTH 1000 0
DWIDTH 4 0
BBX 3 3 0 0
BITMAP
C0
40
60
ENDCHAR
STARTCHAR uni03B7
ENCODING 951
SWIDTH 1000 0
DWIDTH 4 0
BBX 3 3 0 0
BITMAP
A0
E0
A0
ENDCHAR
STARTCHAR uni03B9
ENCODING 953
SWIDTH 1000 0
DWIDTH 4 0
BBX 3 3 0 0
BITMAP
E0
40
E0
ENDCHAR
STARTCHAR uni03BA
ENCODING 954
SWIDTH 1000 0
DWIDTH 4 0
BBX 3 3 0 0
BITMAP
A0
C0
A0
ENDCHAR
STARTCHAR uni03BB
ENCODING 955
SWIDTH 1000 0
DWIDTH 4 0
BBX 3 3 0 0
BITMAP
80
40
A0
ENDCHAR
STARTCHAR uni03BC
ENCODING 956
SWIDTH 1000 0
DWIDTH 4 0
BBX 3 3 0 0
BITMAP
E0
E0
A0
ENDCHAR
STARTCHAR uni03BF
ENCODING 959
SWIDTH 1000 0
DWIDTH 4 0
BBX 3 3 0 0
BITMAP
40
A0
40
ENDCHAR
STARTCHAR uni03C0
ENCODING 960
SWIDTH 1000 0
DWIDTH 4 0
BBX 3 3 0 0
BITMAP
E0
A0
A0
ENDCHAR
STARTCHAR uni03C1
ENCODING 961
SWIDTH 1000 0
DWIDTH 4 0
BBX 3 3 0 0
BITMAP
E0
E0
80
ENDCHAR
STARTCHAR uni03C4
ENCODING 964
SWIDTH 1000 0
DWIDTH 4 0
BBX 3 3 0 0
BITMAP
E0
40
40
ENDCHAR
STARTCHAR uni03C5
ENCODING 965
SWIDTH 1000 0
DWIDTH 4 0
BBX 3 3 0 0
BITMAP
A0
E0
40
ENDCHAR
STARTCHAR uni03C6
ENCODING 966
SWIDTH 1000 0
DWIDTH 4 0
BBX 3 3 0 0
BITMAP
E0
E0
40
ENDCHAR
STARTCHAR uni03C7
ENCODING 967
SWIDTH 1000 0
DWIDTH 4 0
BBX 3 3 0 0
BITMAP
A0
40
A0
ENDCHAR
STARTCHAR uni03D5
ENCODING 981
SWIDTH 1000 0
DWIDTH 4 0
BBX 3 3 0 0
BITMAP
E0
E0
40
ENDCHAR
STARTCHAR uni03F2
ENCODING 1010
SWIDTH 1000 0
DWIDTH 4 0
BBX 3 3 0 0
BITMAP
60
80
60
ENDCHAR
STARTCHAR uni03F9
ENCODING 1017
SWIDTH 1000 0
DWIDTH 4 0
BBX 3 3 0 0
BITMAP
60
80
60
ENDCHAR
STARTCHAR uni03FD
ENCODING 1021
SWIDTH 1000 0
DWIDTH 4 0
BBX 3 3 0 0
BITMAP
C0
20
C0
ENDCHAR
STARTCHAR uni0405
ENCODING 1029
SWIDTH 1000 0
DWIDTH 4 0
BBX 3 3 0 0
BITMAP
60
40
C0
ENDCHAR
STARTCHAR uni0406
ENCODING 1030
SWIDTH 1000 0
DWIDTH 4 0
BBX 3 3 0 0
BITMAP
E0
40
E0
ENDCHAR
STARTCHAR uni0408
ENCODING 1032
SWIDTH 1000 0
DWIDTH 4 0
BBX 3 3 0 0
BITMAP
20
A0
E0
ENDCHAR
STARTCHAR uni040F
ENCODING 1039
SWIDTH 1000 0
DWIDTH 4 0
BBX 3 3 0 0
BITMAP
A0
A0
E0
ENDCHAR
STARTCHAR uni0410
ENCODING 1040
SWIDTH 1000 0
DWIDTH 4 0
BBX 3 3 0 0
BITMAP
40
A0
A0
ENDCHAR
STARTCHAR uni0412
ENCODING 1042
SWIDTH 1000 0
DWIDTH 4 0
BBX 3 3 0 0
BITMAP
C0
E0
C0
ENDCHAR
STARTCHAR uni0413
ENCODING 1043
SWIDTH 1000 0
DWIDTH 4 0
BBX 3 3 0 0
BITMAP
E0
80
80
ENDCHAR
STARTCHAR uni0414
ENCODING 1044
SWIDTH 1000 0
DWIDTH 4 0
BBX 3 3 0 0
BITMAP
40
E0
A0
ENDCHAR
STARTCHAR uni0415
ENCODING 1045
SWIDTH 1000 0
DWIDTH 4 0
BBX 3 3 0 0
BITMAP
80
C0
E0
ENDCHAR
STARTCHAR uni0417
ENCODING 1047
SWIDTH 1000 0
DWIDTH 4 0
BBX 3 3 0 0
BITMAP
C0
60
20
ENDCHAR
STARTCHAR uni041A
ENCODING 1050
SWIDTH 1000 0
DWIDTH 4 0
BBX 3 3 0 0
BITMAP
A0
C0
A0
ENDCHAR
STARTCHAR uni041B
ENCODING 1051
SWIDTH 1000 0
DWIDTH 4 0
BBX 3 3 0 0
BITMAP
60
60
E0
ENDCHAR
STARTCHAR uni041C
ENCODING 1052
SWIDTH 1000 0
DWIDTH 4 0
BBX 3 3 0 0
BITMAP
E0
E0
A0
ENDCHAR
STARTCHAR uni041D
ENCODING 1053
SWIDTH 1000 0
DWIDTH 4 0
BBX 3 3 0 0
BITMAP
A0
E0
A0
ENDCHAR
STARTCHAR uni041E
ENCODING 1054
SWIDTH 1000 0
DWIDTH 4 0
BBX 3 3 0 0
BITMAP
40
A0
40
ENDCHAR
STARTCHAR uni041F
ENCODING 1055
SWIDTH 1000 0
DWIDTH 4 0
BBX 3 3 0 0
BITMAP
E0
A0
A0
ENDCHAR
STARTCHAR uni0420
ENCODING 1056
SWIDTH 1000 0
DWIDTH 4 0
BBX 3 3 0 0
BITMAP
E0
E0
80
ENDCHAR
STARTCHAR uni0421
ENCODING 1057
SWIDTH 1000 0
DWIDTH 4 0
BBX 3 3 0 0
BITMAP
60
80
60
ENDCHAR
STARTCHAR uni0422
ENCODING 1058
SWIDTH 1000 0
DWIDTH 4 0
BBX 3 3 0 0
BITMAP
E0
40
40
ENDCHAR
STARTCHAR uni0423
ENCODING 1059
SWIDTH 1000 0
DWIDTH 4 0
BBX 3 3 0 0
BITMAP
A0
E0
40
ENDCHAR
STARTCHAR uni0424
ENCODING 1060
SWIDTH 1000 0
DWIDTH 4 0
BBX 3 3 0 0
BITMAP
E0
E0
40
ENDCHAR
STARTCHAR uni0425
ENCODING 1061
SWIDTH 1000 0
DWIDTH 4 0
BBX 3 3 0 0
BITMAP
A0
40
A0
ENDCHAR
STARTCHAR uni0427
ENCODING 1063
SWIDTH 1000 0
DWIDTH 4 0
BBX 3 3 0 0
BITMAP
A0
E0
20
ENDCHAR
STARTCHAR uni042A
ENCODING 1066
SWIDTH 1000 0
DWIDTH 4 0
BBX 3 3 0 0
BITMAP
C0
60
60
ENDCHAR
STARTCHAR uni042C
ENCODING 1068
SWIDTH 1000 0
DWIDTH 4 0
BBX 3 3 0 0
BITMAP
80
E0
E0
ENDCHAR
STARTCHAR uni042D
ENCODING 1069
SWIDTH 1000 0
DWIDTH 4 0
BBX 3 3 0 0
BITMAP
E0
60
E0
ENDCHAR
STARTCHAR uni042F
ENCODING 1071
SWIDTH 1000 0
DWIDTH 4 0
BBX 3 3 0 0
BITMAP
60
60
A0
ENDCHAR
STARTCHAR uni0430
ENCODING 1072
SWIDTH 1000 0
DWIDTH 4 0
BBX 3 3 0 0
BITMAP
40
A0
A0
ENDCHAR
STARTCHAR uni0432
ENCODING 1074
SWIDTH 1000 0
DWIDTH 4 0
BBX 3 3 0 0
BITMAP
C0
E0
C0
ENDCHAR
STARTCHAR uni0433
ENCODING 1075
SWIDTH 1000 0
DWIDTH 4 0
BBX 3 3 0 0
BITMAP
E0
80
80
ENDCHAR
STARTCHAR uni0434
ENCODING 1076
SWIDTH 1000 0
DWIDTH 4 0
BBX 3 3 0 0
BITMAP
40
E0
A0
ENDCHAR
STARTCHAR uni0435
ENCODING 1077
SWIDTH 1000 0
DWIDTH 4 0
BBX 3 3 0 0
BITMAP
80
C0
E0
ENDCHAR
STARTCHAR uni0437
ENCODING 1079
SWIDTH 1000 0
DWIDTH 4 0
BBX 3 3 0 0
BITMAP
C0
60
20
ENDCHAR
STARTCHAR uni043A
ENCODING 1082
SWIDTH 1000 0
DWIDTH 4 0
BBX 3 3 0 0
BITMAP
A0
C0
A0
ENDCHAR
STARTCHAR uni043B
ENCODING 1083
SWIDTH 1000 0
DWIDTH 4 0
BBX 3 3 0 0
BITMAP
60
60
E0
ENDCHAR
STARTCHAR uni043C
ENCODING 1084
SWIDTH 1000 0
DWIDTH 4 0
BBX 3 3 0 0
BITMAP
E0
E0
A0
ENDCHAR
STARTCHAR uni043D
ENCODING 1085
SWIDTH 1000 0
DWIDTH 4 0
BBX 3 3 0 0
BITMAP
A0
E0
A0
ENDCHAR
STARTCHAR uni043E
ENCODING 1086
SWIDTH 1000 0
DWIDTH 4 0
BBX 3 3 0 0
BITMAP
40
A0
40
ENDCHAR
STARTCHAR uni043F
ENCODING 1087
SWIDTH 1000 0
DWIDTH 4 0
BBX 3 3 0 0
BITMAP
E0
A0
A0
ENDCHAR
STARTCHAR uni0440
ENCODING 1088
SWIDTH 1000 0
DWIDTH 4 0
BBX 3 3 0 0
BITMAP
E0
E0
80
ENDCHAR
STARTCHAR uni0441
ENCODING 1089
SWIDTH 1000 0
DWIDTH 4 0
BBX 3 3 0 0
BITMAP
60
80
60
ENDCHAR
STARTCHAR uni0442
ENCODING 1090
SWIDTH 1000 0
DWIDTH 4 0
BBX 3 3 0 0
BITMAP
E0
40
40
ENDCHAR
STARTCHAR uni0443
ENCODING 1091
SWIDTH 1000 0
DWIDTH 4 0
BBX 3 3 0 0
BITMAP
A0
E0
40
ENDCHAR
STARTCHAR uni0444
ENCODING 1092
SWIDTH 1000 0
DWIDTH 4 0
BBX 3 3 0 0
BITMAP
E0
E0
40
ENDCHAR
STARTCHAR uni0445
ENCODING 1093
SWIDTH 1000 0
DWIDTH 4 0
BBX 3 3 0 0
BITMAP
A0
40
A0
ENDCHAR
STARTCHAR uni0447
ENCODING 1095
SWIDTH 1000 0
DWIDTH 4 0
BBX 3 3 0 0
BITMAP
A0
E0
20
ENDCHAR
STARTCHAR uni044A
ENCODING 1098
SWIDTH 1000 0
DWIDTH 4 0
BBX 3 3 0 0
BITMAP
C0
60
60
ENDCHAR
STARTCHAR uni044C
ENCODING 1100
SWIDTH 1000 0
DWIDTH 4 0
BBX 3 3 0 0
BITMAP
80
E0
E0
ENDCHAR
STARTCHAR uni044D
ENCODING 1101
SWIDTH 1000 0
DWIDTH 4 0
BBX 3 3 0 0
BITMAP
E0
60
E0
ENDCHAR
STARTCHAR uni044F
ENCODING 1103
SWIDTH 1000 0
DWIDTH 4 0
BBX 3 3 0 0
BITMAP
60
60
A0
ENDCHAR
STARTCHAR uni0455
ENCODING 1109
SWIDTH 1000 0
DWIDTH 4 0
BBX 3 3 0 0
BITMAP
60
40
C0
ENDCHAR
STARTCHAR uni0456
ENCODING 1110
SWIDTH 1000 0
DWIDTH 4 0
BBX 3 3 0 0
BITMAP
E0
40
E0
ENDCHAR
STARTCHAR uni0458
ENCODING 1112
SWIDTH 1000 0
DWIDTH 4 0
BBX 3 3 0 0
BITMAP
20
A0
E0
ENDCHAR
STARTCHAR uni045F
ENCODING 1119
SWIDTH 1000 0
DWIDTH 4 0
BBX 3 3 0 0
BITMAP
A0
A0
E0
ENDCHAR
STARTCHAR uni04AE
ENCODING 1198
SWIDTH 1000 0
DWIDTH 4 0
BBX 3 3 0 0
BITMAP
A0
E0
40
ENDCHAR
STARTCHAR uni04AF
ENCODING 1199
SWIDTH 1000 0
DWIDTH 4 0
BBX 3 3 0 0
BITMAP
A0
E0
40
ENDCHAR
STARTCHAR uni04BA
ENCODING 1210
SWIDTH 1000 0
DWIDTH 4 0
BBX 3 3 0 0
BITMAP
80
E0
A0
ENDCHAR
STARTCHAR uni04BB
ENCODING 1211
SWIDTH 1000 0
DWIDTH 4 0
BBX 3 3 0 0
BITMAP
80
E0
A0
ENDCHAR
STARTCHAR uni200B
ENCODING 8203
SWIDTH 0 0
DWIDTH 0 0
BBX 1 1 0 0
BITMAP
00
ENDCHAR
STARTCHAR uni2010
ENCODING 8208
SWIDTH 1000 0
DWIDTH 4 0
BBX 3 1 0 1
BITMAP
E0
ENDCHAR
STARTCHAR uni2011
ENCODING 8209
SWIDTH 1000 0
DWIDTH 4 0
BBX 3 1 0 1
BITMAP
E0
ENDCHAR
STARTCHAR uni2012
ENCODING 8210
SWIDTH 1000 0
DWIDTH 4 0
BBX 3 1 0 1
BITMAP
E0
ENDCHAR
STARTCHAR uni2013
ENCODING 8211
SWIDTH 1000 0
DWIDTH 4 0
BBX 3 1 0 1
BITMAP
E0
ENDCHAR
STARTCHAR uni2014
ENCODING 8212
SWIDTH 1000 0
DWIDTH 4 0
BBX 3 1 0 1
BITMAP
E0
ENDCHAR
STARTCHAR uni2015
ENCODING 8213
SWIDTH 1000 0
DWIDTH 4 0
BBX 3 1 0 1
BITMAP
E0
ENDCHAR
STARTCHAR uni2016
ENCODING 8214
SWIDTH 1000 0
DWIDTH 4 0
BBX 3 3 0 0
BITMAP
A0
A0
A0
ENDCHAR
STARTCHAR uni2017
ENCODING 8215
SWIDTH 1000 0
DWIDTH 4 0
BBX 3 1 0 0
BITMAP
E0
ENDCHAR
STARTCHAR uni2018
ENCODING 8216
SWIDTH 1000 0
DWIDTH 4 0
BBX 1 1 1 2
BITMAP
80
ENDCHAR
STARTCHAR uni2019
ENCODING 8217
SWIDTH 1000 0
DWIDTH 4 0
BBX 1 1 1 2
BITMAP
80
ENDCHAR
STARTCHAR uni201A
ENCODING 8218
SWIDTH 1000 0
DWIDTH 4 0
BBX 1 1 1 0
BITMAP
80
ENDCHAR
STARTCHAR uni201B
ENCODING 8219
SWIDTH 1000 0
DWIDTH 4 0
BBX 1 1 1 2
BITMAP
80
ENDCHAR
STARTCHAR uni201C
ENCODING 8220
SWIDTH 1000 0
DWIDTH 4 0
BBX 3 1 0 2
BITMAP
A0
ENDCHAR
STARTCHAR uni201D
ENCODING 8221
SWIDTH 1000 0
DWIDTH 4 0
BBX 3 1 0 2
BITMAP
A0
ENDCHAR
STARTCHAR uni201E
ENCODING 8222
SWIDTH 1000 0
DWIDTH 4 0
BBX 3 1 0 0
BITMAP
A0
ENDCHAR
STARTCHAR uni201F
ENCODING 8223
SWIDTH 1000 0
DWIDTH 4 0
BBX 3 1 0 2
BITMAP
A0
ENDCHAR
STARTCHAR uni2022
ENCODING 8226
SWIDTH 1000 0
DWIDTH 4 0
BBX 1 1 1 1
BITMAP
80
ENDCHAR
STARTCHAR uni2024
ENCODING 8228
SWIDTH 1000 0
DWIDTH 4 0
BBX 1 1 1 0
BITMAP
80
ENDCHAR
STARTCHAR uni2025
ENCODING 8229
SWIDTH 1000 0
DWIDTH 4 0
BBX 3 1 0 0
BITMAP
A0
ENDCHAR
STARTCHAR uni2026
ENCODING 8230
SWIDTH 1000 0
DWIDTH 4 0
BBX 3 1 0 0
BITMAP
E0
ENDCHAR
STARTCHAR uni2027
ENCODING 8231
SWIDTH 1000 0
DWIDTH 4 0
BBX 1 1 1 1
BITMAP
80
ENDCHAR
STARTCHAR uni202F
ENCODING 8239
SWIDTH 1000 0
DWIDTH 4 0
BBX 1 1 0 0
BITMAP
00
ENDCHAR
STARTCHAR uni2032
ENCODING 8242
SWIDTH 1000 0
DWIDTH 4 0
BBX 1 1 1 2
BITMAP
80
ENDCHAR
STARTCHAR uni2033
ENCODING 8243
SWIDTH 1000 0
DWIDTH 4 0
BBX 3 1 0 2
BITMAP
A0
ENDCHAR
STARTCHAR uni203C
ENCODING 8252
SWIDTH 1000 0
DWIDTH 4 0
BBX 3 3 0 0
BITMAP
A0
A0
A0
ENDCHAR
STARTCHAR uni203E
ENCODING 8254
SWIDTH 1000 0
DWIDTH 4 0
BBX 3 1 0 2
BITMAP
E0
ENDCHAR
STARTCHAR uni2044
ENCODING 8260
SWIDTH 1000 0
DWIDTH 4 0
BBX 3 3 0 0
BITMAP
20
40
80
ENDCHAR
STARTCHAR uni2184
ENCODING 8580
SWIDTH 1000 0
DWIDTH 4 0
BBX 3 3 0 0
BITMAP
C0
20
C0
ENDCHAR
STARTCHAR uni220F
ENCODING 8719
SWIDTH 1000 0
DWIDTH 4 0
BBX 3 3 0 0
BITMAP
E0
A0
A0
ENDCHAR
STARTCHAR uni2212
ENCODING 8722
SWIDTH 1000 0
DWIDTH 4 0
BBX 3 1 0 1
BITMAP
E0
ENDCHAR
STARTCHAR uni2215
ENCODING 8725
SWIDTH 1000 0
DWIDTH 4 0
BBX 3 3 0 0
BITMAP
20
40
80
ENDCHAR
STARTCHAR uni2219
ENCODING 8729
SWIDTH 1000 0
DWIDTH 4 0
BBX 1 1 1 1
BITMAP
80
ENDCHAR
STARTCHAR uni221A
ENCODING 8730
SWIDTH 1000 0
DWIDTH 4 0
BBX 3 3 0 0
BITMAP
20
A0
40
ENDCHAR
STARTCHAR uni221F
ENCODING 8735
SWIDTH 1000 0
DWIDTH 4 0
BBX 2 2 0 0
BITMAP
80
C0
ENDCHAR
STARTCHAR uni2310
ENCODING 8976
SWIDTH 1000 0
DWIDTH 4 0
BBX 3 2 0 0
BITMAP
E0
80
ENDCHAR
STARTCHAR uni2588
ENCODING 9608
SWIDTH 1000 0
DWIDTH 4 0
BBX 3 3 0 0
BITMAP
E0
E0
E0
ENDCHAR
STARTCHAR uni2621
ENCODING 9761
SWIDTH 1000 0
DWIDTH 4 0
BBX 3 3 0 0
BITMAP
40
C0
E0
ENDCHAR
STARTCHAR uni2E2E
ENCODING 11822
SWIDTH 1000 0
DWIDTH 4 0
BBX 3 3 0 0
BITMAP
E0
C0
40
ENDCHAR
STARTCHAR uniA78B
ENCODING 42891
SWIDTH 1000 0
DWIDTH 4 0
BBX 1 2 1 1
BITMAP
80
80
ENDCHAR
STARTCHAR uniA78C
ENCODING 42892
SWIDTH 1000 0
DWIDTH 4 0
BBX 1 2 1 1
BITMAP
80
80
ENDCHAR
STARTCHAR uniFFFD
ENCODING 65533
SWIDTH 1000 0
DWIDTH 4 0
BBX 3 3 0 0
BITMAP
E0
E0
E0
ENDCHAR
ENDFONT
