STARTFONT 2.1
FONT x12y16pxSolidLinker-16px
SIZE 16 75 75
FONTBOUNDINGBOX 14 16 0 0
STARTPROPERTIES 3
PIXEL_SIZE 16
FONT_ASCENT 16
FONT_DESCENT 0
ENDPROPERTIES
CHARS 106
STARTCHAR uni0020
ENCODING 32
SWIDTH 375 0
DWIDTH 6 0
BBX 1 1 0 0
BITMAP
00
ENDCHAR
STARTCHAR uni0021
ENCODING 33
SWIDTH 375 0
DWIDTH 6 0
BBX 8 16 0 0
BITMAP
FF
FF
C3
C3
C3
C3
C3
C3
C3
C3
FF
FF
C3
C3
FF
FF
ENDCHAR
STARTCHAR uni0022
ENCODING 34
SWIDTH 500 0
DWIDTH 8 0
BBX 10 7 0 9
BITMAP
FFC0
FFC0
CCC0
CCC0
CCC0
FFC0
FFC0
ENDCHAR
STARTCHAR uni0023
ENCODING 35
SWIDTH 750 0
DWIDTH 12 0
BBX 14 14 0 0
BITMAP
1FF8
1FF8
799C
799C
600C
600C
F33C
F33C
C018
C018
E678
E678
7FE0
7FE0
ENDCHAR
STARTCHAR uni0024
ENCODING 36
SWIDTH 750 0
DWIDTH 12 0
BBX 14 16 0 0
BITMAP
0FC0
3FFC
7CFC
E00C
C00C
C3FC
C3FC
C01C
E00C
FF0C
FF0C
C00C
C01C
FCF8
FFF0
0FC0
ENDCHAR
STARTCHAR uni0025
ENCODING 37
SWIDTH 750 0
DWIDTH 12 0
BBX 14 14 0 0
BITMAP
3C7C
7EFC
E7CC
C38C
C31C
E638
7C70
38F8
719C
E30C
C70C
CF9C
FDF8
F8F0
ENDCHAR
STARTCHAR uni0026
ENCODING 38
SWIDTH 750 0
DWIDTH 12 0
BBX 14 14 0 0
BITMAP
0FE0
1FE0
3860
3060
31FC
71FC
E08C
C00C
C41C
C61C
C00C
E08C
7FFC
3FFC
ENDCHAR
STARTCHAR uni0027
ENCODING 39
SWIDTH 250 0
DWIDTH 4 0
BBX 6 7 0 9
BITMAP
FC
FC
CC
CC
CC
FC
FC
ENDCHAR
STARTCHAR uni0028
ENCODING 40
SWIDTH 375 0
DWIDTH 6 0
BBX 8 16 0 0
BITMAP
3F
7F
E3
C3
CF
CF
CC
CC
CC
CC
CF
CF
C3
E3
7F
3F
ENDCHAR
STARTCHAR uni0029
ENCODING 41
SWIDTH 375 0
DWIDTH 6 0
BBX 8 16 0 0
BITMAP
FC
FE
C7
C3
F3
F3
33
33
33
33
F3
F3
C3
C7
FE
FC
ENDCHAR
STARTCHAR uni002A
ENCODING 42
SWIDTH 625 0
DWIDTH 10 0
BBX 12 12 0 2
BITMAP
1F80
FFF0
F9F0
C930
C030
E070
E070
C030
C930
F9F0
FFF0
1F80
ENDCHAR
STARTCHAR uni002B
ENCODING 43
SWIDTH 625 0
DWIDTH 10 0
BBX 12 12 0 2
BITMAP
1F80
1F80
1980
F9F0
F9F0
C030
C030
F9F0
F9F0
1980
1F80
1F80
ENDCHAR
STARTCHAR uni002C
ENCODING 44
SWIDTH 250 0
DWIDTH 4 0
BBX 6 7 0 0
BITMAP
FC
FC
CC
CC
DC
F8
F0
ENDCHAR
STARTCHAR uni002D
ENCODING 45
SWIDTH 500 0
DWIDTH 8 0
BBX 10 6 0 5
BITMAP
FFC0
FFC0
C0C0
C0C0
FFC0
FFC0
ENDCHAR
STARTCHAR uni002E
ENCODING 46
SWIDTH 250 0
DWIDTH 4 0
BBX 6 6 0 0
BITMAP
FC
FC
CC
CC
FC
FC
ENDCHAR
STARTCHAR uni002F
ENCODING 47
SWIDTH 500 0
DWIDTH 8 0
BBX 10 14 0 0
BITMAP
07C0
0FC0
0CC0
1CC0
19C0
3980
3380
7300
6700
E600
CE00
CC00
FC00
F800
ENDCHAR
STARTCHAR uni0030
ENCODING 48
SWIDTH 750 0
DWIDTH 12 0
BBX 14 16 0 0
BITMAP
3FF0
7FF8
E01C
C00C
C30C
C30C
C30C
C30C
C30C
C30C
C30C
C30C
C00C
E01C
7FF8
3FF0
ENDCHAR
STARTCHAR uni0031
ENCODING 49
SWIDTH 750 0
DWIDTH 12 0
BBX 14 16 0 0
BITMAP
0FE0
1FE0
F860
F060
C060
C060
F860
F860
1860
1860
F87C
F87C
C00C
C00C
FFFC
FFFC
ENDCHAR
STARTCHAR uni0032
ENCODING 50
SWIDTH 750 0
DWIDTH 12 0
BBX 14 16 0 0
BITMAP
3FF0
7FF8
E01C
C00C
C30C
C30C
FF0C
FE1C
1C38
3870
70FC
E1FC
C00C
C00C
FFFC
FFFC
ENDCHAR
STARTCHAR uni0033
ENCODING 51
SWIDTH 750 0
DWIDTH 12 0
BBX 14 16 0 0
BITMAP
3FF0
7FF8
E01C
C00C
C30C
FF0C
FF0C
0C1C
0C1C
FF0C
FF0C
C30C
C00C
E01C
7FF8
3FF0
ENDCHAR
STARTCHAR uni0034
ENCODING 52
SWIDTH 750 0
DWIDTH 12 0
BBX 14 16 0 0
BITMAP
01FC
03FC
070C
0E0C
1C0C
380C
700C
E10C
C30C
C30C
C00C
C00C
FF0C
FF0C
03FC
03FC
ENDCHAR
STARTCHAR uni0035
ENCODING 53
SWIDTH 750 0
DWIDTH 12 0
BBX 14 16 0 0
BITMAP
FFFC
FFFC
C00C
C00C
C3FC
C3FC
C01C
C00C
C30C
FF0C
FF0C
C30C
C00C
E01C
7FF8
3FF0
ENDCHAR
STARTCHAR uni0036
ENCODING 54
SWIDTH 750 0
DWIDTH 12 0
BBX 14 16 0 0
BITMAP
3FFC
7FFC
E00C
C00C
C3FC
C3FC
C01C
C00C
C30C
C30C
C30C
C30C
C00C
E01C
7FF8
3FF0
ENDCHAR
STARTCHAR uni0037
ENCODING 55
SWIDTH 750 0
DWIDTH 12 0
BBX 14 16 0 0
BITMAP
FFFC
FFFC
C00C
C00C
FF0C
FF0C
070C
0E1C
1C38
1870
1860
1860
1860
1860
1FE0
1FE0
ENDCHAR
STARTCHAR uni0038
ENCODING 56
SWIDTH 750 0
DWIDTH 12 0
BBX 14 16 0 0
BITMAP
3FF0
7FF8
E01C
C00C
C30C
C30C
C30C
E01C
E01C
C30C
C30C
C30C
C00C
E01C
7FF8
3FF0
ENDCHAR
STARTCHAR uni0039
ENCODING 57
SWIDTH 750 0
DWIDTH 12 0
BBX 14 16 0 0
BITMAP
3FF0
7FF8
E01C
C00C
C30C
C30C
C30C
C30C
C00C
E00C
FF0C
FF0C
C00C
C01C
FFF8
FFF0
ENDCHAR
STARTCHAR uni003A
ENCODING 58
SWIDTH 250 0
DWIDTH 4 0
BBX 6 14 0 0
BITMAP
FC
FC
CC
CC
FC
FC
00
00
FC
FC
CC
CC
FC
FC
ENDCHAR
STARTCHAR uni003B
ENCODING 59
SWIDTH 250 0
DWIDTH 4 0
BBX 6 14 0 0
BITMAP
FC
FC
CC
CC
FC
FC
00
FC
FC
CC
CC
DC
F8
F0
ENDCHAR
STARTCHAR uni003C
ENCODING 60
SWIDTH 500 0
DWIDTH 8 0
BBX 10 14 0 1
BITMAP
07C0
0FC0
1CC0
38C0
71C0
E380
C700
C700
E380
71C0
38C0
1CC0
0FC0
07C0
ENDCHAR
STARTCHAR uni003D
ENCODING 61
SWIDTH 500 0
DWIDTH 8 0
BBX 10 10 0 3
BITMAP
FFC0
FFC0
C0C0
C0C0
FFC0
FFC0
C0C0
C0C0
FFC0
FFC0
ENDCHAR
STARTCHAR uni003E
ENCODING 62
SWIDTH 500 0
DWIDTH 8 0
BBX 10 14 0 1
BITMAP
F800
FC00
CE00
C700
E380
71C0
38C0
38C0
71C0
E380
C700
CE00
FC00
F800
ENDCHAR
STARTCHAR uni003F
ENCODING 63
SWIDTH 625 0
DWIDTH 10 0
BBX 12 16 0 0
BITMAP
FFC0
FFE0
C070
C030
FC30
FC30
E030
C070
C3E0
C3C0
FF00
FF00
C300
C300
FF00
FF00
ENDCHAR
STARTCHAR uni0040
ENCODING 64
SWIDTH 750 0
DWIDTH 12 0
BBX 14 14 0 0
BITMAP
3FF0
7FF8
E01C
C00C
CFCC
CFCC
CCCC
CCCC
CFFC
CFFC
C00C
E00C
7FFC
3FFC
ENDCHAR
STARTCHAR uni0041
ENCODING 65
SWIDTH 750 0
DWIDTH 12 0
BBX 14 16 0 0
BITMAP
3FF0
7FF8
E01C
C00C
C30C
C30C
C30C
C30C
C00C
C00C
C30C
C30C
C30C
C30C
FFFC
FFFC
ENDCHAR
STARTCHAR uni0042
ENCODING 66
SWIDTH 750 0
DWIDTH 12 0
BBX 14 16 0 0
BITMAP
FFF0
FFF8
C01C
C00C
C30C
C30C
C30C
C01C
C01C
C30C
C30C
C30C
C00C
C01C
FFF8
FFF0
ENDCHAR
STARTCHAR uni0043
ENCODING 67
SWIDTH 750 0
DWIDTH 12 0
BBX 14 16 0 0
BITMAP
3FF0
7FF8
E01C
C00C
C30C
C30C
C30C
C3FC
C3FC
C30C
C30C
C30C
C00C
E01C
7FF8
3FF0
ENDCHAR
STARTCHAR uni0044
ENCODING 68
SWIDTH 750 0
DWIDTH 12 0
BBX 14 16 0 0
BITMAP
FFF0
FFF8
C01C
C00C
C30C
C30C
C30C
C30C
C30C
C30C
C30C
C30C
C00C
C01C
FFF8
FFF0
ENDCHAR
STARTCHAR uni0045
ENCODING 69
SWIDTH 625 0
DWIDTH 10 0
BBX 12 16 0 0
BITMAP
FFF0
FFF0
C030
C030
C3F0
C3F0
C3F0
C030
C030
C3F0
C3F0
C3F0
C030
C030
FFF0
FFF0
ENDCHAR
STARTCHAR uni0046
ENCODING 70
SWIDTH 625 0
DWIDTH 10 0
BBX 12 16 0 0
BITMAP
FFF0
FFF0
C030
C030
C3F0
C3F0
C3F0
C030
C030
C3F0
C3F0
C300
C300
C300
FF00
FF00
ENDCHAR
STARTCHAR uni0047
ENCODING 71
SWIDTH 750 0
DWIDTH 12 0
BBX 14 16 0 0
BITMAP
3FFC
7FFC
E00C
C00C
C3FC
C3FC
C300
C3FC
C3FC
C30C
C30C
C30C
C00C
E00C
7FFC
3FFC
ENDCHAR
STARTCHAR uni0048
ENCODING 72
SWIDTH 750 0
DWIDTH 12 0
BBX 14 16 0 0
BITMAP
FFFC
FFFC
C30C
C30C
C30C
C30C
C30C
C00C
C00C
C30C
C30C
C30C
C30C
C30C
FFFC
FFFC
ENDCHAR
STARTCHAR uni0049
ENCODING 73
SWIDTH 375 0
DWIDTH 6 0
BBX 8 16 0 0
BITMAP
FF
FF
C3
C3
C3
C3
C3
C3
C3
C3
C3
C3
C3
C3
FF
FF
ENDCHAR
STARTCHAR uni004A
ENCODING 74
SWIDTH 750 0
DWIDTH 12 0
BBX 14 16 0 0
BITMAP
03FC
03FC
030C
030C
030C
030C
FF0C
FF0C
C30C
C30C
C30C
C30C
C00C
E01C
7FF8
3FF0
ENDCHAR
STARTCHAR uni004B
ENCODING 75
SWIDTH 750 0
DWIDTH 12 0
BBX 14 16 0 0
BITMAP
FEFC
FFFC
C38C
C30C
C20C
C01C
C038
C070
C070
C038
C01C
C20C
C30C
C38C
FFFC
FEFC
ENDCHAR
STARTCHAR uni004C
ENCODING 76
SWIDTH 625 0
DWIDTH 10 0
BBX 12 16 0 0
BITMAP
FF00
FF00
C300
C300
C300
C300
C300
C300
C300
C300
C3F0
C3F0
C030
C030
FFF0
FFF0
ENDCHAR
STARTCHAR uni004D
ENCODING 77
SWIDTH 750 0
DWIDTH 12 0
BBX 14 16 0 0
BITMAP
F87C
FCFC
CFCC
C78C
C30C
C00C
C00C
C30C
C30C
C30C
C30C
C30C
C30C
C30C
FFFC
FFFC
ENDCHAR
STARTCHAR uni004E
ENCODING 78
SWIDTH 750 0
DWIDTH 12 0
BBX 14 16 0 0
BITMAP
FDFC
FFFC
C70C
C30C
C10C
C00C
C00C
C00C
C00C
C00C
C00C
C20C
C30C
C38C
FFFC
FEFC
ENDCHAR
STARTCHAR uni004F
ENCODING 79
SWIDTH 750 0
DWIDTH 12 0
BBX 14 16 0 0
BITMAP
3FF0
7FF8
E01C
C00C
C30C
C30C
C30C
C30C
C30C
C30C
C30C
C30C
C00C
E01C
7FF8
3FF0
ENDCHAR
STARTCHAR uni0050
ENCODING 80
SWIDTH 750 0
DWIDTH 12 0
BBX 14 16 0 0
BITMAP
FFF0
FFF8
C01C
C00C
C30C
C30C
C30C
C30C
C00C
C01C
C3F8
C3F0
C300
C300
FF00
FF00
ENDCHAR
STARTCHAR uni0051
ENCODING 81
SWIDTH 750 0
DWIDTH 12 0
BBX 14 16 0 0
BITMAP
3FF0
7FF8
E01C
C00C
C30C
C30C
C30C
C30C
C30C
C30C
C31C
C21C
C00C
E10C
7FFC
3FFC
ENDCHAR
STARTCHAR uni0052
ENCODING 82
SWIDTH 750 0
DWIDTH 12 0
BBX 14 16 0 0
BITMAP
FFF0
FFF8
C01C
C00C
C30C
C30C
C30C
C30C
C01C
C01C
C30C
C30C
C30C
C30C
FFFC
FFFC
ENDCHAR
STARTCHAR uni0053
ENCODING 83
SWIDTH 750 0
DWIDTH 12 0
BBX 14 16 0 0
BITMAP
3FF0
7FF8
E01C
C00C
C30C
C3FC
C3FC
C01C
E00C
FF0C
FF0C
C30C
C00C
E01C
7FF8
3FF0
ENDCHAR
STARTCHAR uni0054
ENCODING 84
SWIDTH 750 0
DWIDTH 12 0
BBX 14 16 0 0
BITMAP
FFFC
FFFC
C00C
C00C
F87C
F87C
1860
1860
1860
1860
1860
1860
1860
1860
1FE0
1FE0
ENDCHAR
STARTCHAR uni0055
ENCODING 85
SWIDTH 750 0
DWIDTH 12 0
BBX 14 16 0 0
BITMAP
FFFC
FFFC
C30C
C30C
C30C
C30C
C30C
C30C
C30C
C30C
C30C
C30C
C00C
E01C
7FF8
3FF0
ENDCHAR
STARTCHAR uni0056
ENCODING 86
SWIDTH 750 0
DWIDTH 12 0
BBX 14 16 0 0
BITMAP
FFFC
FFFC
C30C
C30C
C30C
C30C
C30C
C30C
C30C
C30C
E01C
7038
3870
1CE0
0FC0
0780
ENDCHAR
STARTCHAR uni0057
ENCODING 87
SWIDTH 750 0
DWIDTH 12 0
BBX 14 16 0 0
BITMAP
FFFC
FFFC
C30C
C30C
C30C
C30C
C30C
C30C
C30C
C00C
C00C
C30C
C78C
CFCC
FCFC
F87C
ENDCHAR
STARTCHAR uni0058
ENCODING 88
SWIDTH 750 0
DWIDTH 12 0
BBX 14 16 0 0
BITMAP
FCFC
FFFC
C78C
C30C
C00C
E01C
7038
3870
3870
7038
E01C
C00C
C30C
C78C
FFFC
FCFC
ENDCHAR
STARTCHAR uni0059
ENCODING 89
SWIDTH 750 0
DWIDTH 12 0
BBX 14 16 0 0
BITMAP
FFFC
FFFC
C30C
C30C
C30C
C30C
C30C
E01C
7038
3870
1860
1860
1860
1860
1FE0
1FE0
ENDCHAR
STARTCHAR uni005A
ENCODING 90
SWIDTH 750 0
DWIDTH 12 0
BBX 14 16 0 0
BITMAP
FFFC
FFFC
C00C
C00C
FF0C
FE0C
1C1C
3838
7070
E0E0
C1FC
C3FC
C00C
C00C
FFFC
FFFC
ENDCHAR
STARTCHAR uni005B
ENCODING 91
SWIDTH 375 0
DWIDTH 6 0
BBX 8 16 0 0
BITMAP
FF
FF
C3
C3
CF
CF
CC
CC
CC
CC
CF
CF
C3
C3
FF
FF
ENDCHAR
STARTCHAR uni005C
ENCODING 92
SWIDTH 500 0
DWIDTH 8 0
BBX 10 14 0 0
BITMAP
F800
FC00
CC00
CE00
E600
6700
7300
3380
3980
19C0
1CC0
0CC0
0FC0
07C0
ENDCHAR
STARTCHAR uni005D
ENCODING 93
SWIDTH 375 0
DWIDTH 6 0
BBX 8 16 0 0
BITMAP
FF
FF
C3
C3
F3
F3
33
33
33
33
F3
F3
C3
C3
FF
FF
ENDCHAR
STARTCHAR uni005E
ENCODING 94
SWIDTH 500 0
DWIDTH 8 0
BBX 10 8 0 8
BITMAP
1E00
3F00
7380
E1C0
C0C0
CCC0
FFC0
FFC0
ENDCHAR
STARTCHAR uni005F
ENCODING 95
SWIDTH 750 0
DWIDTH 12 0
BBX 14 6 0 0
BITMAP
FFFC
FFFC
C00C
C00C
FFFC
FFFC
ENDCHAR
STARTCHAR uni0061
ENCODING 97
SWIDTH 750 0
DWIDTH 12 0
BBX 14 14 0 0
BITMAP
FFF0
FFF8
C01C
C00C
FF0C
FF0C
E00C
C00C
C30C
C30C
C00C
E00C
7FFC
3FFC
ENDCHAR
STARTCHAR uni0062
ENCODING 98
SWIDTH 750 0
DWIDTH 12 0
BBX 14 16 0 0
BITMAP
FF00
FF00
C3F0
C3F8
C01C
C00C
C30C
C30C
C30C
C30C
C30C
C30C
C00C
C01C
FFF8
FFF0
ENDCHAR
STARTCHAR uni0063
ENCODING 99
SWIDTH 750 0
DWIDTH 12 0
BBX 14 14 0 0
BITMAP
3FF0
7FF8
E01C
C00C
C30C
C30C
C3FC
C3FC
C30C
C30C
C00C
E01C
7FF8
3FF0
ENDCHAR
STARTCHAR uni0064
ENCODING 100
SWIDTH 750 0
DWIDTH 12 0
BBX 14 16 0 0
BITMAP
03FC
03FC
3F0C
7F0C
E00C
C00C
C30C
C30C
C30C
C30C
C30C
C30C
C00C
E00C
7FFC
3FFC
ENDCHAR
STARTCHAR uni0065
ENCODING 101
SWIDTH 750 0
DWIDTH 12 0
BBX 14 14 0 0
BITMAP
3FF0
7FF8
E01C
C00C
C30C
C30C
C00C
C00C
C3FC
C3FC
C00C
E00C
7FFC
3FFC
ENDCHAR
STARTCHAR uni0066
ENCODING 102
SWIDTH 625 0
DWIDTH 10 0
BBX 12 16 0 0
BITMAP
3FF0
7FF0
E030
C030
C3F0
C3F0
C030
C030
C3F0
C3F0
C300
C300
C300
C300
FF00
FF00
ENDCHAR
STARTCHAR uni0067
ENCODING 103
SWIDTH 750 0
DWIDTH 12 0
BBX 14 14 0 0
BITMAP
3FFC
7FFC
E00C
C00C
C30C
C30C
C00C
E00C
FF0C
FF0C
C00C
C01C
FFF8
FFF0
ENDCHAR
STARTCHAR uni0068
ENCODING 104
SWIDTH 750 0
DWIDTH 12 0
BBX 14 16 0 0
BITMAP
FF00
FF00
C3F0
C3F8
C01C
C00C
C30C
C30C
C30C
C30C
C30C
C30C
C30C
C30C
FFFC
FFFC
ENDCHAR
STARTCHAR uni0069
ENCODING 105
SWIDTH 375 0
DWIDTH 6 0
BBX 8 16 0 0
BITMAP
FF
FF
C3
C3
FF
FF
C3
C3
C3
C3
C3
C3
C3
C3
FF
FF
ENDCHAR
STARTCHAR uni006A
ENCODING 106
SWIDTH 500 0
DWIDTH 8 0
BBX 10 16 0 0
BITMAP
3FC0
3FC0
30C0
30C0
3FC0
3FC0
30C0
30C0
30C0
30C0
F0C0
F0C0
C0C0
C1C0
FF80
FF00
ENDCHAR
STARTCHAR uni006B
ENCODING 107
SWIDTH 750 0
DWIDTH 12 0
BBX 14 16 0 0
BITMAP
FF00
FF00
C3FC
C3FC
C30C
C20C
C01C
C038
C070
C070
C038
C01C
C20C
C30C
FFFC
FFFC
ENDCHAR
STARTCHAR uni006C
ENCODING 108
SWIDTH 375 0
DWIDTH 6 0
BBX 8 16 0 0
BITMAP
FF
FF
C3
C3
C3
C3
C3
C3
C3
C3
C3
C3
C3
C3
FF
FF
ENDCHAR
STARTCHAR uni006D
ENCODING 109
SWIDTH 750 0
DWIDTH 12 0
BBX 14 14 0 0
BITMAP
F87C
FCFC
CFCC
C78C
C30C
C00C
C00C
C30C
C30C
C30C
C30C
C30C
FFFC
FFFC
ENDCHAR
STARTCHAR uni006E
ENCODING 110
SWIDTH 750 0
DWIDTH 12 0
BBX 14 14 0 0
BITMAP
FFF0
FFF8
C01C
C00C
C30C
C30C
C30C
C30C
C30C
C30C
C30C
C30C
FFFC
FFFC
ENDCHAR
STARTCHAR uni006F
ENCODING 111
SWIDTH 750 0
DWIDTH 12 0
BBX 14 14 0 0
BITMAP
3FF0
7FF8
E01C
C00C
C30C
C30C
C30C
C30C
C30C
C30C
C00C
E01C
7FF8
3FF0
ENDCHAR
STARTCHAR uni0070
ENCODING 112
SWIDTH 750 0
DWIDTH 12 0
BBX 14 14 0 0
BITMAP
FFF0
FFF8
C01C
C00C
C30C
C30C
C30C
C30C
C00C
C01C
C3F8
C3F0
FF00
FF00
ENDCHAR
STARTCHAR uni0071
ENCODING 113
SWIDTH 750 0
DWIDTH 12 0
BBX 14 14 0 0
BITMAP
3FFC
7FFC
E00C
C00C
C30C
C30C
C30C
C30C
C00C
E00C
7F0C
3F0C
03FC
03FC
ENDCHAR
STARTCHAR uni0072
ENCODING 114
SWIDTH 625 0
DWIDTH 10 0
BBX 12 14 0 0
BITMAP
3FF0
7FF0
E030
C030
C3F0
C3F0
C300
C300
C300
C300
C300
C300
FF00
FF00
ENDCHAR
STARTCHAR uni0073
ENCODING 115
SWIDTH 750 0
DWIDTH 12 0
BBX 14 14 0 0
BITMAP
3FFC
7FFC
E00C
C00C
C3FC
C3FC
C01C
E00C
FF0C
FF0C
C00C
C01C
FFF8
FFF0
ENDCHAR
STARTCHAR uni0074
ENCODING 116
SWIDTH 625 0
DWIDTH 10 0
BBX 12 16 0 0
BITMAP
FF00
FF00
C3F0
C3F0
C030
C030
C3F0
C3F0
C300
C300
C3F0
C3F0
C030
E030
7FF0
3FF0
ENDCHAR
STARTCHAR uni0075
ENCODING 117
SWIDTH 750 0
DWIDTH 12 0
BBX 14 14 0 0
BITMAP
FFFC
FFFC
C30C
C30C
C30C
C30C
C30C
C30C
C30C
C30C
C00C
E00C
7FFC
3FFC
ENDCHAR
STARTCHAR uni0076
ENCODING 118
SWIDTH 750 0
DWIDTH 12 0
BBX 14 14 0 0
BITMAP
FFFC
FFFC
C30C
C30C
C30C
C30C
C30C
C30C
E01C
7038
3870
1CE0
0FC0
0780
ENDCHAR
STARTCHAR uni0077
ENCODING 119
SWIDTH 750 0
DWIDTH 12 0
BBX 14 14 0 0
BITMAP
FFFC
FFFC
C30C
C30C
C30C
C30C
C30C
C00C
C00C
C30C
C78C
CFCC
FCFC
F87C
ENDCHAR
STARTCHAR uni0078
ENCODING 120
SWIDTH 750 0
DWIDTH 12 0
BBX 14 14 0 0
BITMAP
FCFC
FFFC
C78C
C30C
E01C
7038
3870
3870
7038
E01C
C30C
C78C
FFFC
FCFC
ENDCHAR
STARTCHAR uni0079
ENCODING 121
SWIDTH 750 0
DWIDTH 12 0
BBX 14 14 0 0
BITMAP
FFFC
FFFC
C30C
C30C
C30C
C30C
C00C
E00C
FF0C
FF0C
C00C
C01C
FFF8
FFF0
ENDCHAR
STARTCHAR uni007A
ENCODING 122
SWIDTH 750 0
DWIDTH 12 0
BBX 14 14 0 0
BITMAP
FFFC
FFFC
C00C
C00C
FE0C
FC1C
3838
7070
E0FC
C1FC
C00C
C00C
FFFC
FFFC
ENDCHAR
STARTCHAR uni007B
ENCODING 123
SWIDTH 500 0
DWIDTH 8 0
BBX 10 16 0 0
BITMAP
3FC0
3FC0
30C0
30C0
33C0
73C0
E300
C700
C700
E300
73C0
33C0
30C0
30C0
3FC0
3FC0
ENDCHAR
STARTCHAR uni007C
ENCODING 124
SWIDTH 250 0
DWIDTH 4 0
BBX 6 16 0 0
BITMAP
FC
FC
CC
CC
CC
CC
CC
CC
CC
CC
CC
CC
CC
CC
FC
FC
ENDCHAR
STARTCHAR uni007D
ENCODING 125
SWIDTH 500 0
DWIDTH 8 0
BBX 10 16 0 0
BITMAP
FF00
FF00
C300
C300
F300
F380
31C0
38C0
38C0
31C0
F380
F300
C300
C300
FF00
FF00
ENDCHAR
STARTCHAR uni007E
ENCODING 126
SWIDTH 625 0
DWIDTH 10 0
BBX 12 8 0 4
BITMAP
3E00
7FF0
E3F0
C130
C830
FC70
FFE0
07C0
ENDCHAR
STARTCHAR uni00A0
ENCODING 160
SWIDTH 375 0
DWIDTH 6 0
BBX 1 1 0 0
BITMAP
00
ENDCHAR
STARTCHAR uni00A5
ENCODING 165
SWIDTH 625 0
DWIDTH 10 0
BBX 12 15 0 0
BITMAP
F9F0
FFF0
CF30
C630
E070
F0F0
C030
C030
F9F0
C030
C030
F9F0
F9F0
1F80
1F80
ENDCHAR
STARTCHAR uni00A9
ENCODING 169
SWIDTH 688 0
DWIDTH 11 0
BBX 13 13 0 1
BITMAP
3FE0
7FF0
E038
CF98
DFD8
D8D8
D818
D8D8
DFD8
CF98
E038
7FF0
3FE0
ENDCHAR
STARTCHAR uni00B0
ENCODING 176
SWIDTH 500 0
DWIDTH 8 0
BBX 10 10 0 6
BITMAP
3F00
7F80
E1C0
C0C0
CCC0
CCC0
C0C0
E1C0
7F80
3F00
ENDCHAR
STARTCHAR uni00D7
ENCODING 215
SWIDTH 625 0
DWIDTH 10 0
BBX 12 12 0 2
BITMAP
F9F0
FFF0
CF30
C630
E070
70E0
70E0
E070
C630
CF30
FFF0
F9F0
ENDCHAR
STARTCHAR uni00F7
ENCODING 247
SWIDTH 625 0
DWIDTH 10 0
BBX 12 14 0 1
BITMAP
1F80
1F80
1980
1980
FFF0
FFF0
C030
C030
FFF0
FFF0
1980
1980
1F80
1F80
ENDCHAR
STARTCHAR uni2015
ENCODING 8213
SWIDTH 750 0
DWIDTH 12 0
BBX 14 6 0 5
BITMAP
FFFC
FFFC
C00C
C00C
FFFC
FFFC
ENDCHAR
STARTCHAR uni2018
ENCODING 8216
SWIDTH 250 0
DWIDTH 4 0
BBX 6 7 0 9
BITMAP
3C
7C
EC
CC
CC
FC
FC
ENDCHAR
STARTCHAR uni2019
ENCODING 8217
SWIDTH 250 0
DWIDTH 4 0
BBX 6 7 0 9
BITMAP
FC
FC
CC
CC
DC
F8
F0
ENDCHAR
STARTCHAR uni201C
ENCODING 8220
SWIDTH 500 0
DWIDTH 8 0
BBX 10 7 0 9
BITMAP
3FC0
7FC0
EEC0
CCC0
CCC0
FFC0
FFC0
ENDCHAR
STARTCHAR uni201D
ENCODING 8221
SWIDTH 500 0
DWIDTH 8 0
BBX 10 7 0 9
BITMAP
FFC0
FFC0
CCC0
CCC0
DDC0
FF80
FF00
ENDCHAR
STARTCHAR uni3000
ENCODING 12288
SWIDTH 750 0
DWIDTH 12 0
BBX 1 1 0 0
BITMAP
00
ENDCHAR
ENDFONT
