STARTFONT 2.1
FONT Pixelosopher Italic-16px
SIZE 16 75 75
FONTBOUNDINGBOX 13 14 0 -3
STARTPROPERTIES 5
PIXEL_SIZE 16
FONT_ASCENT 11
FONT_DESCENT 3
CHARSET_REGISTRY "ISO10646"
CHARSET_ENCODING "1"
ENDPROPERTIES
CHARS 87
STARTCHAR uni000D
ENCODING 13
SWIDTH 125 0
DWIDTH 2 0
BBX 1 1 0 0
BITMAP
00
ENDCHAR
STARTCHAR space
ENCODING 32
SWIDTH 188 0
DWIDTH 3 0
BBX 1 1 0 0
BITMAP
00
ENDCHAR
STARTCHAR exclam
ENCODING 33
SWIDTH 312 0
DWIDTH 5 0
BBX 3 11 0 0
BITMAP
20
20
20
40
40
40
40
00
00
80
80
ENDCHAR
STARTCHAR quotedbl
ENCODING 34
SWIDTH 375 0
DWIDTH 6 0
BBX 4 4 0 7
BITMAP
90
90
90
90
ENDCHAR
STARTCHAR numbersign
ENCODING 35
SWIDTH 750 0
DWIDTH 12 0
BBX 10 11 0 0
BITMAP
0480
0480
0900
3FC0
1200
1200
1200
FF00
2400
2400
4800
ENDCHAR
STARTCHAR dollar
ENCODING 36
SWIDTH 625 0
DWIDTH 10 0
BBX 8 13 0 -2
BITMAP
04
1E
29
49
49
28
18
14
92
92
94
78
20
ENDCHAR
STARTCHAR percent
ENCODING 37
SWIDTH 750 0
DWIDTH 12 0
BBX 10 11 0 0
BITMAP
3840
4880
4900
7200
0400
0400
0800
1380
2480
4480
8700
ENDCHAR
STARTCHAR ampersand
ENCODING 38
SWIDTH 688 0
DWIDTH 11 0
BBX 9 11 0 0
BITMAP
0C00
1200
2200
2400
2400
1800
2800
4480
8500
8200
7D00
ENDCHAR
STARTCHAR quotesingle
ENCODING 39
SWIDTH 188 0
DWIDTH 3 0
BBX 1 4 0 7
BITMAP
80
80
80
80
ENDCHAR
STARTCHAR parenleft
ENCODING 40
SWIDTH 500 0
DWIDTH 8 0
BBX 6 14 0 -3
BITMAP
04
08
10
20
40
40
80
80
80
80
80
40
20
10
ENDCHAR
STARTCHAR parenright
ENCODING 41
SWIDTH 500 0
DWIDTH 8 0
BBX 6 14 0 -3
BITMAP
20
10
08
04
04
04
04
04
08
08
10
20
40
80
ENDCHAR
STARTCHAR asterisk
ENCODING 42
SWIDTH 438 0
DWIDTH 7 0
BBX 5 5 0 6
BITMAP
20
A8
70
D8
40
ENDCHAR
STARTCHAR plus
ENCODING 43
SWIDTH 625 0
DWIDTH 10 0
BBX 8 7 0 2
BITMAP
08
08
08
FF
10
10
10
ENDCHAR
STARTCHAR comma
ENCODING 44
SWIDTH 250 0
DWIDTH 4 0
BBX 2 4 0 -3
BITMAP
40
40
40
80
ENDCHAR
STARTCHAR hyphen
ENCODING 45
SWIDTH 375 0
DWIDTH 6 0
BBX 4 1 0 5
BITMAP
F0
ENDCHAR
STARTCHAR period
ENCODING 46
SWIDTH 188 0
DWIDTH 3 0
BBX 1 2 0 0
BITMAP
80
80
ENDCHAR
STARTCHAR slash
ENCODING 47
SWIDTH 625 0
DWIDTH 10 0
BBX 8 11 0 0
BITMAP
01
02
04
04
08
10
10
20
20
40
80
ENDCHAR
STARTCHAR zero
ENCODING 48
SWIDTH 562 0
DWIDTH 9 0
BBX 7 11 0 0
BITMAP
1C
22
42
42
82
82
82
84
84
88
70
ENDCHAR
STARTCHAR one
ENCODING 49
SWIDTH 375 0
DWIDTH 6 0
BBX 4 11 0 0
BITMAP
10
30
50
90
20
20
20
20
40
40
40
ENDCHAR
STARTCHAR two
ENCODING 50
SWIDTH 625 0
DWIDTH 10 0
BBX 8 11 0 0
BITMAP
1E
21
41
01
02
02
04
18
20
42
FE
ENDCHAR
STARTCHAR three
ENCODING 51
SWIDTH 625 0
DWIDTH 10 0
BBX 8 11 0 0
BITMAP
7F
42
04
08
10
3C
02
02
02
84
78
ENDCHAR
STARTCHAR four
ENCODING 52
SWIDTH 562 0
DWIDTH 9 0
BBX 7 11 0 0
BITMAP
02
06
0A
14
24
44
84
FE
08
08
08
ENDCHAR
STARTCHAR five
ENCODING 53
SWIDTH 625 0
DWIDTH 10 0
BBX 8 11 0 0
BITMAP
3F
20
40
40
40
7C
02
02
02
84
78
ENDCHAR
STARTCHAR six
ENCODING 54
SWIDTH 625 0
DWIDTH 10 0
BBX 8 11 0 0
BITMAP
1F
20
40
40
9C
E2
82
82
82
84
78
ENDCHAR
STARTCHAR seven
ENCODING 55
SWIDTH 562 0
DWIDTH 9 0
BBX 7 11 0 0
BITMAP
FE
82
04
04
08
10
10
20
20
40
80
ENDCHAR
STARTCHAR eight
ENCODING 56
SWIDTH 625 0
DWIDTH 10 0
BBX 8 11 0 0
BITMAP
1E
21
41
42
24
18
64
82
82
84
78
ENDCHAR
STARTCHAR nine
ENCODING 57
SWIDTH 625 0
DWIDTH 10 0
BBX 8 11 0 0
BITMAP
1E
21
41
41
41
47
39
02
02
04
F8
ENDCHAR
STARTCHAR colon
ENCODING 58
SWIDTH 250 0
DWIDTH 4 0
BBX 2 8 0 0
BITMAP
40
40
00
00
00
00
80
80
ENDCHAR
STARTCHAR semicolon
ENCODING 59
SWIDTH 312 0
DWIDTH 5 0
BBX 3 10 0 -3
BITMAP
20
20
00
00
00
00
40
40
40
80
ENDCHAR
STARTCHAR less
ENCODING 60
SWIDTH 688 0
DWIDTH 11 0
BBX 9 8 0 1
BITMAP
0080
0700
1800
6000
E000
1800
0600
0100
ENDCHAR
STARTCHAR equal
ENCODING 61
SWIDTH 688 0
DWIDTH 11 0
BBX 9 4 0 3
BITMAP
7F80
0000
0000
FF00
ENDCHAR
STARTCHAR greater
ENCODING 62
SWIDTH 688 0
DWIDTH 11 0
BBX 9 8 0 1
BITMAP
4000
3000
0C00
0300
0380
0C00
7000
8000
ENDCHAR
STARTCHAR question
ENCODING 63
SWIDTH 562 0
DWIDTH 9 0
BBX 7 11 0 0
BITMAP
3C
42
82
02
04
08
10
20
00
40
40
ENDCHAR
STARTCHAR A
ENCODING 65
SWIDTH 750 0
DWIDTH 12 0
BBX 10 11 0 0
BITMAP
0200
0600
0A00
0A00
1200
1100
2100
3F00
4100
4100
80C0
ENDCHAR
STARTCHAR B
ENCODING 66
SWIDTH 625 0
DWIDTH 10 0
BBX 8 11 0 0
BITMAP
FE
21
41
41
42
7C
42
41
81
82
FC
ENDCHAR
STARTCHAR C
ENCODING 67
SWIDTH 688 0
DWIDTH 11 0
BBX 9 11 0 0
BITMAP
0F00
3080
4080
4000
8000
8000
8000
8000
8100
4200
3C00
ENDCHAR
STARTCHAR D
ENCODING 68
SWIDTH 688 0
DWIDTH 11 0
BBX 9 11 0 0
BITMAP
FE00
2100
4080
4080
4080
4080
4080
4100
8100
8600
F800
ENDCHAR
STARTCHAR E
ENCODING 69
SWIDTH 625 0
DWIDTH 10 0
BBX 8 11 0 0
BITMAP
FF
21
40
40
40
7C
40
40
80
82
FC
ENDCHAR
STARTCHAR F
ENCODING 70
SWIDTH 625 0
DWIDTH 10 0
BBX 8 11 0 0
BITMAP
FF
21
40
40
40
7C
40
40
80
80
80
ENDCHAR
STARTCHAR G
ENCODING 71
SWIDTH 750 0
DWIDTH 12 0
BBX 10 11 0 0
BITMAP
1F00
2080
4080
4000
8000
83C0
8100
8100
8100
4300
3C00
ENDCHAR
STARTCHAR H
ENCODING 72
SWIDTH 750 0
DWIDTH 12 0
BBX 10 11 0 0
BITMAP
E040
2080
4080
4080
4080
7F80
4100
4100
8100
8100
8180
ENDCHAR
STARTCHAR I
ENCODING 73
SWIDTH 312 0
DWIDTH 5 0
BBX 3 11 0 0
BITMAP
20
40
40
40
40
40
40
80
80
80
C0
ENDCHAR
STARTCHAR J
ENCODING 74
SWIDTH 438 0
DWIDTH 7 0
BBX 5 13 0 -2
BITMAP
08
10
10
10
10
10
10
20
20
20
20
40
80
ENDCHAR
STARTCHAR K
ENCODING 75
SWIDTH 750 0
DWIDTH 12 0
BBX 10 11 0 0
BITMAP
F040
1080
2300
2400
2800
3000
2800
2400
4200
4100
40C0
ENDCHAR
STARTCHAR L
ENCODING 76
SWIDTH 625 0
DWIDTH 10 0
BBX 8 11 0 0
BITMAP
E0
20
40
40
40
40
40
40
80
80
FF
ENDCHAR
STARTCHAR M
ENCODING 77
SWIDTH 875 0
DWIDTH 14 0
BBX 12 12 0 -1
BITMAP
2010
2010
5030
5050
5090
4890
4920
4A20
8A20
8C20
8820
0030
ENDCHAR
STARTCHAR N
ENCODING 78
SWIDTH 750 0
DWIDTH 12 0
BBX 10 11 0 0
BITMAP
C040
6040
5040
5080
4880
4880
4480
4280
8280
8100
8100
ENDCHAR
STARTCHAR O
ENCODING 79
SWIDTH 688 0
DWIDTH 11 0
BBX 9 11 0 0
BITMAP
1E00
2100
4080
4080
8080
8080
8080
8100
8100
4200
3C00
ENDCHAR
STARTCHAR P
ENCODING 80
SWIDTH 625 0
DWIDTH 10 0
BBX 8 11 0 0
BITMAP
FE
21
41
41
42
7C
40
40
80
80
80
ENDCHAR
STARTCHAR Q
ENCODING 81
SWIDTH 688 0
DWIDTH 11 0
BBX 9 14 0 -3
BITMAP
1E00
2100
4080
4080
8080
8080
8080
8100
8100
4200
3C00
1000
0800
0700
ENDCHAR
STARTCHAR R
ENCODING 82
SWIDTH 625 0
DWIDTH 10 0
BBX 8 11 0 0
BITMAP
FE
21
41
41
42
7C
48
44
84
82
83
ENDCHAR
STARTCHAR S
ENCODING 83
SWIDTH 625 0
DWIDTH 10 0
BBX 8 11 0 0
BITMAP
1E
21
41
41
20
18
04
82
82
84
78
ENDCHAR
STARTCHAR T
ENCODING 84
SWIDTH 625 0
DWIDTH 10 0
BBX 8 11 0 0
BITMAP
FF
88
10
10
10
10
10
10
20
20
20
ENDCHAR
STARTCHAR U
ENCODING 85
SWIDTH 688 0
DWIDTH 11 0
BBX 9 11 0 0
BITMAP
C080
4080
4080
4100
8100
8100
8100
8100
8200
8400
7800
ENDCHAR
STARTCHAR V
ENCODING 86
SWIDTH 750 0
DWIDTH 12 0
BBX 10 11 0 0
BITMAP
8040
4080
4100
4100
6200
2400
2400
2800
3800
3000
2000
ENDCHAR
STARTCHAR W
ENCODING 87
SWIDTH 938 0
DWIDTH 15 0
BBX 13 11 0 0
BITMAP
8408
4210
4210
4220
4640
4A40
2A80
3280
3300
2300
2200
ENDCHAR
STARTCHAR X
ENCODING 88
SWIDTH 750 0
DWIDTH 12 0
BBX 10 11 0 0
BITMAP
6040
1080
1100
0A00
0C00
0400
0C00
1200
2200
4100
8180
ENDCHAR
STARTCHAR Y
ENCODING 89
SWIDTH 750 0
DWIDTH 12 0
BBX 10 11 0 0
BITMAP
C0C0
4100
2100
2200
1400
1800
0800
0800
1000
1000
1000
ENDCHAR
STARTCHAR Z
ENCODING 90
SWIDTH 750 0
DWIDTH 12 0
BBX 10 11 0 0
BITMAP
3FC0
2080
0100
0200
0400
0800
0800
1000
2000
4000
FF00
ENDCHAR
STARTCHAR a
ENCODING 97
SWIDTH 562 0
DWIDTH 9 0
BBX 7 8 0 0
BITMAP
3E
42
42
84
84
84
8C
74
ENDCHAR
STARTCHAR b
ENCODING 98
SWIDTH 562 0
DWIDTH 9 0
BBX 7 11 0 0
BITMAP
C0
40
40
7C
42
42
42
82
84
84
F8
ENDCHAR
STARTCHAR c
ENCODING 99
SWIDTH 500 0
DWIDTH 8 0
BBX 6 8 0 0
BITMAP
3C
44
44
80
80
80
88
70
ENDCHAR
STARTCHAR d
ENCODING 100
SWIDTH 562 0
DWIDTH 9 0
BBX 7 11 0 0
BITMAP
06
02
02
3E
42
42
84
84
84
8C
74
ENDCHAR
STARTCHAR e
ENCODING 101
SWIDTH 500 0
DWIDTH 8 0
BBX 6 8 0 0
BITMAP
3C
44
44
84
F8
80
88
70
ENDCHAR
STARTCHAR f
ENCODING 102
SWIDTH 688 0
DWIDTH 11 0
BBX 9 14 0 -3
BITMAP
0380
0400
0800
1E00
0800
0800
0800
1000
1000
1000
1000
1000
2000
C000
ENDCHAR
STARTCHAR g
ENCODING 103
SWIDTH 562 0
DWIDTH 9 0
BBX 7 11 0 -3
BITMAP
3E
42
42
82
84
84
84
7C
04
88
70
ENDCHAR
STARTCHAR h
ENCODING 104
SWIDTH 562 0
DWIDTH 9 0
BBX 7 11 0 0
BITMAP
E0
20
40
5C
62
42
42
42
84
84
84
ENDCHAR
STARTCHAR i
ENCODING 105
SWIDTH 250 0
DWIDTH 4 0
BBX 2 11 0 0
BITMAP
40
40
00
C0
40
40
40
40
80
80
80
ENDCHAR
STARTCHAR j
ENCODING 106
SWIDTH 375 0
DWIDTH 6 0
BBX 4 14 0 -3
BITMAP
10
10
00
30
10
10
10
20
20
20
20
20
40
80
ENDCHAR
STARTCHAR k
ENCODING 107
SWIDTH 562 0
DWIDTH 9 0
BBX 7 11 0 0
BITMAP
E0
20
40
46
48
50
60
60
A0
90
8C
ENDCHAR
STARTCHAR l
ENCODING 108
SWIDTH 312 0
DWIDTH 5 0
BBX 3 11 0 0
BITMAP
E0
20
40
40
40
40
40
40
80
80
80
ENDCHAR
STARTCHAR m
ENCODING 109
SWIDTH 812 0
DWIDTH 13 0
BBX 11 8 0 0
BITMAP
DDC0
6620
4420
4420
4420
8440
8440
8840
ENDCHAR
STARTCHAR n
ENCODING 110
SWIDTH 562 0
DWIDTH 9 0
BBX 7 8 0 0
BITMAP
DC
62
42
42
42
84
84
84
ENDCHAR
STARTCHAR o
ENCODING 111
SWIDTH 562 0
DWIDTH 9 0
BBX 7 8 0 0
BITMAP
3C
42
42
82
82
84
84
78
ENDCHAR
STARTCHAR p
ENCODING 112
SWIDTH 625 0
DWIDTH 10 0
BBX 8 11 0 -3
BITMAP
6E
31
21
21
41
42
42
7C
40
40
80
ENDCHAR
STARTCHAR q
ENCODING 113
SWIDTH 562 0
DWIDTH 9 0
BBX 7 11 0 -3
BITMAP
3E
42
42
82
84
84
84
7C
04
04
08
ENDCHAR
STARTCHAR r
ENCODING 114
SWIDTH 438 0
DWIDTH 7 0
BBX 5 8 0 0
BITMAP
D8
60
40
40
40
80
80
80
ENDCHAR
STARTCHAR s
ENCODING 115
SWIDTH 500 0
DWIDTH 8 0
BBX 6 8 0 0
BITMAP
3C
44
40
30
08
04
84
F8
ENDCHAR
STARTCHAR t
ENCODING 116
SWIDTH 375 0
DWIDTH 6 0
BBX 4 10 0 0
BITMAP
40
40
F0
40
40
80
80
80
80
70
ENDCHAR
STARTCHAR u
ENCODING 117
SWIDTH 562 0
DWIDTH 9 0
BBX 7 8 0 0
BITMAP
C2
42
42
84
84
84
8C
74
ENDCHAR
STARTCHAR v
ENCODING 118
SWIDTH 562 0
DWIDTH 9 0
BBX 7 8 0 0
BITMAP
82
44
44
48
68
30
20
20
ENDCHAR
STARTCHAR w
ENCODING 119
SWIDTH 812 0
DWIDTH 13 0
BBX 11 8 0 0
BITMAP
8820
4440
4440
4A80
5280
5300
2200
2200
ENDCHAR
STARTCHAR x
ENCODING 120
SWIDTH 562 0
DWIDTH 9 0
BBX 7 8 0 0
BITMAP
62
24
28
10
10
28
48
8C
ENDCHAR
STARTCHAR y
ENCODING 121
SWIDTH 625 0
DWIDTH 10 0
BBX 8 11 0 -3
BITMAP
C1
21
22
22
14
14
18
10
10
20
C0
ENDCHAR
STARTCHAR z
ENCODING 122
SWIDTH 562 0
DWIDTH 9 0
BBX 7 8 0 0
BITMAP
7E
44
08
08
10
20
40
FC
ENDCHAR
STARTCHAR bullet
ENCODING 8226
SWIDTH 375 0
DWIDTH 6 0
BBX 4 4 0 3
BITMAP
70
F0
F0
E0
ENDCHAR
STARTCHAR .notdef
ENCODING -1
SWIDTH 125 0
DWIDTH 2 0
BBX 1 1 0 0
BITMAP
00
ENDCHAR
ENDFONT
