STARTFONT 2.1
FONT Pixelosopher-16px
SIZE 16 75 75
FONTBOUNDINGBOX 12 14 0 -3
STARTPROPERTIES 5
PIXEL_SIZE 16
FONT_ASCENT 11
FONT_DESCENT 3
CHARSET_REGISTRY "ISO10646"
CHARSET_ENCODING "1"
ENDPROPERTIES
CHARS 87
STARTCHAR uni000D
ENCODING 13
SWIDTH 125 0
DWIDTH 2 0
BBX 1 1 0 0
BITMAP
00
ENDCHAR
STARTCHAR space
ENCODING 32
SWIDTH 188 0
DWIDTH 3 0
BBX 1 1 0 0
BITMAP
00
ENDCHAR
STARTCHAR exclam
ENCODING 33
SWIDTH 188 0
DWIDTH 3 0
BBX 1 11 0 0
BITMAP
80
80
80
80
80
80
80
80
00
80
80
ENDCHAR
STARTCHAR quotedbl
ENCODING 34
SWIDTH 375 0
DWIDTH 6 0
BBX 4 4 0 7
BITMAP
90
90
90
90
ENDCHAR
STARTCHAR numbersign
ENCODING 35
SWIDTH 750 0
DWIDTH 12 0
BBX 10 11 0 0
BITMAP
0900
0900
0900
7FC0
1200
1200
1200
FF80
2400
2400
2400
ENDCHAR
STARTCHAR dollar
ENCODING 36
SWIDTH 500 0
DWIDTH 8 0
BBX 6 13 0 -2
BITMAP
20
78
A4
A4
A0
60
30
28
24
A4
A4
78
20
ENDCHAR
STARTCHAR percent
ENCODING 37
SWIDTH 688 0
DWIDTH 11 0
BBX 9 11 0 0
BITMAP
6080
9100
9100
6200
0400
0800
0800
1300
2480
2480
4300
ENDCHAR
STARTCHAR ampersand
ENCODING 38
SWIDTH 688 0
DWIDTH 11 0
BBX 9 11 0 0
BITMAP
3800
4400
4400
4400
2800
3000
4800
8480
8300
4200
3D80
ENDCHAR
STARTCHAR quotesingle
ENCODING 39
SWIDTH 188 0
DWIDTH 3 0
BBX 1 4 0 7
BITMAP
80
80
80
80
ENDCHAR
STARTCHAR parenleft
ENCODING 40
SWIDTH 375 0
DWIDTH 6 0
BBX 4 14 0 -3
BITMAP
10
20
40
40
80
80
80
80
80
80
40
40
20
10
ENDCHAR
STARTCHAR parenright
ENCODING 41
SWIDTH 375 0
DWIDTH 6 0
BBX 4 14 0 -3
BITMAP
80
40
20
20
10
10
10
10
10
10
20
20
40
80
ENDCHAR
STARTCHAR asterisk
ENCODING 42
SWIDTH 438 0
DWIDTH 7 0
BBX 5 5 0 6
BITMAP
20
A8
70
A8
20
ENDCHAR
STARTCHAR plus
ENCODING 43
SWIDTH 562 0
DWIDTH 9 0
BBX 7 7 0 2
BITMAP
10
10
10
FE
10
10
10
ENDCHAR
STARTCHAR comma
ENCODING 44
SWIDTH 188 0
DWIDTH 3 0
BBX 1 4 0 -3
BITMAP
80
80
80
80
ENDCHAR
STARTCHAR hyphen
ENCODING 45
SWIDTH 375 0
DWIDTH 6 0
BBX 4 1 0 5
BITMAP
F0
ENDCHAR
STARTCHAR period
ENCODING 46
SWIDTH 188 0
DWIDTH 3 0
BBX 1 2 0 0
BITMAP
80
80
ENDCHAR
STARTCHAR slash
ENCODING 47
SWIDTH 500 0
DWIDTH 8 0
BBX 6 11 0 0
BITMAP
04
08
08
10
10
30
20
20
40
40
80
ENDCHAR
STARTCHAR zero
ENCODING 48
SWIDTH 562 0
DWIDTH 9 0
BBX 7 11 0 0
BITMAP
38
44
82
82
82
82
82
82
82
44
38
ENDCHAR
STARTCHAR one
ENCODING 49
SWIDTH 312 0
DWIDTH 5 0
BBX 3 11 0 0
BITMAP
20
60
A0
20
20
20
20
20
20
20
20
ENDCHAR
STARTCHAR two
ENCODING 50
SWIDTH 500 0
DWIDTH 8 0
BBX 6 11 0 0
BITMAP
38
44
84
04
04
08
08
10
60
84
FC
ENDCHAR
STARTCHAR three
ENCODING 51
SWIDTH 500 0
DWIDTH 8 0
BBX 6 11 0 0
BITMAP
FC
84
08
10
20
78
04
04
04
84
78
ENDCHAR
STARTCHAR four
ENCODING 52
SWIDTH 562 0
DWIDTH 9 0
BBX 7 11 0 0
BITMAP
04
0C
14
14
24
44
84
FE
04
04
04
ENDCHAR
STARTCHAR five
ENCODING 53
SWIDTH 500 0
DWIDTH 8 0
BBX 6 11 0 0
BITMAP
F8
80
80
80
80
F8
04
04
04
84
78
ENDCHAR
STARTCHAR six
ENCODING 54
SWIDTH 562 0
DWIDTH 9 0
BBX 7 11 0 0
BITMAP
3C
40
80
80
F8
84
82
82
82
44
38
ENDCHAR
STARTCHAR seven
ENCODING 55
SWIDTH 562 0
DWIDTH 9 0
BBX 7 11 0 0
BITMAP
FE
82
04
04
04
08
08
10
10
10
20
ENDCHAR
STARTCHAR eight
ENCODING 56
SWIDTH 500 0
DWIDTH 8 0
BBX 6 11 0 0
BITMAP
78
84
84
84
48
30
48
84
84
84
78
ENDCHAR
STARTCHAR nine
ENCODING 57
SWIDTH 562 0
DWIDTH 9 0
BBX 7 11 0 0
BITMAP
38
44
82
82
82
42
3E
02
02
04
78
ENDCHAR
STARTCHAR colon
ENCODING 58
SWIDTH 188 0
DWIDTH 3 0
BBX 1 8 0 0
BITMAP
80
80
00
00
00
00
80
80
ENDCHAR
STARTCHAR semicolon
ENCODING 59
SWIDTH 188 0
DWIDTH 3 0
BBX 1 9 0 -2
BITMAP
80
80
00
00
00
80
80
80
80
ENDCHAR
STARTCHAR less
ENCODING 60
SWIDTH 688 0
DWIDTH 11 0
BBX 8 8 1 1
BITMAP
01
06
18
60
E0
18
06
01
ENDCHAR
STARTCHAR equal
ENCODING 61
SWIDTH 625 0
DWIDTH 10 0
BBX 8 4 0 3
BITMAP
FF
00
00
FF
ENDCHAR
STARTCHAR greater
ENCODING 62
SWIDTH 625 0
DWIDTH 10 0
BBX 8 8 0 1
BITMAP
80
60
18
06
07
18
60
80
ENDCHAR
STARTCHAR question
ENCODING 63
SWIDTH 500 0
DWIDTH 8 0
BBX 6 11 0 0
BITMAP
70
88
84
04
08
10
20
20
00
20
20
ENDCHAR
STARTCHAR A
ENCODING 65
SWIDTH 750 0
DWIDTH 12 0
BBX 10 11 0 0
BITMAP
0800
0800
1400
1400
1400
2200
2200
3E00
4100
4100
80C0
ENDCHAR
STARTCHAR B
ENCODING 66
SWIDTH 625 0
DWIDTH 10 0
BBX 8 11 0 0
BITMAP
F8
44
42
42
44
7C
42
41
41
42
7C
ENDCHAR
STARTCHAR C
ENCODING 67
SWIDTH 625 0
DWIDTH 10 0
BBX 8 11 0 0
BITMAP
1C
22
41
81
80
80
80
80
41
22
1C
ENDCHAR
STARTCHAR D
ENCODING 68
SWIDTH 688 0
DWIDTH 11 0
BBX 9 11 0 0
BITMAP
FC00
4200
4100
4080
4080
4080
4080
4080
4100
4200
7C00
ENDCHAR
STARTCHAR E
ENCODING 69
SWIDTH 625 0
DWIDTH 10 0
BBX 8 11 0 0
BITMAP
FE
42
40
40
40
7C
40
40
40
41
7E
ENDCHAR
STARTCHAR F
ENCODING 70
SWIDTH 562 0
DWIDTH 9 0
BBX 7 11 0 0
BITMAP
FE
42
40
40
40
7C
40
40
40
40
40
ENDCHAR
STARTCHAR G
ENCODING 71
SWIDTH 750 0
DWIDTH 12 0
BBX 10 11 0 0
BITMAP
1E00
2100
4080
8000
8000
81C0
8080
8080
4080
2080
1F00
ENDCHAR
STARTCHAR H
ENCODING 72
SWIDTH 688 0
DWIDTH 11 0
BBX 9 11 0 0
BITMAP
C100
4100
4100
4100
4100
7F00
4100
4100
4100
4100
4180
ENDCHAR
STARTCHAR I
ENCODING 73
SWIDTH 438 0
DWIDTH 7 0
BBX 3 11 2 0
BITMAP
80
80
80
80
80
80
80
80
80
80
60
ENDCHAR
STARTCHAR J
ENCODING 74
SWIDTH 250 0
DWIDTH 4 0
BBX 2 13 0 -2
BITMAP
40
40
40
40
40
40
40
40
40
40
40
40
80
ENDCHAR
STARTCHAR K
ENCODING 75
SWIDTH 750 0
DWIDTH 12 0
BBX 10 11 0 0
BITMAP
C180
4200
4400
4800
5000
6000
5000
4800
4400
4200
41C0
ENDCHAR
STARTCHAR L
ENCODING 76
SWIDTH 625 0
DWIDTH 10 0
BBX 8 11 0 0
BITMAP
C0
40
40
40
40
40
40
40
40
40
7F
ENDCHAR
STARTCHAR M
ENCODING 77
SWIDTH 875 0
DWIDTH 14 0
BBX 12 12 0 -1
BITMAP
8040
C0C0
C0C0
C140
A140
A240
9240
9440
8C40
8840
8840
0030
ENDCHAR
STARTCHAR N
ENCODING 78
SWIDTH 625 0
DWIDTH 10 0
BBX 8 11 0 0
BITMAP
C1
41
61
51
51
49
45
45
43
41
41
ENDCHAR
STARTCHAR O
ENCODING 79
SWIDTH 688 0
DWIDTH 11 0
BBX 9 11 0 0
BITMAP
1C00
2200
4100
8080
8080
8080
8080
8080
4100
2200
1C00
ENDCHAR
STARTCHAR P
ENCODING 80
SWIDTH 562 0
DWIDTH 9 0
BBX 7 11 0 0
BITMAP
F8
44
42
42
44
78
40
40
40
40
40
ENDCHAR
STARTCHAR Q
ENCODING 81
SWIDTH 688 0
DWIDTH 11 0
BBX 9 14 0 -3
BITMAP
1C00
2200
4100
8080
8080
8080
8080
8080
4100
2200
1C00
0800
0400
0380
ENDCHAR
STARTCHAR R
ENCODING 82
SWIDTH 625 0
DWIDTH 10 0
BBX 8 11 0 0
BITMAP
F8
44
42
42
44
78
48
48
44
44
43
ENDCHAR
STARTCHAR S
ENCODING 83
SWIDTH 562 0
DWIDTH 9 0
BBX 7 11 0 0
BITMAP
38
44
82
82
60
18
04
02
82
84
78
ENDCHAR
STARTCHAR T
ENCODING 84
SWIDTH 688 0
DWIDTH 11 0
BBX 9 11 0 0
BITMAP
FF80
8800
0800
0800
0800
0800
0800
0800
0800
0800
0800
ENDCHAR
STARTCHAR U
ENCODING 85
SWIDTH 625 0
DWIDTH 10 0
BBX 8 11 0 0
BITMAP
C1
41
41
41
41
41
41
41
41
22
1C
ENDCHAR
STARTCHAR V
ENCODING 86
SWIDTH 812 0
DWIDTH 13 0
BBX 11 11 0 0
BITMAP
8060
4080
2080
2100
2100
1200
1200
1400
0C00
0800
0800
ENDCHAR
STARTCHAR W
ENCODING 87
SWIDTH 875 0
DWIDTH 14 0
BBX 12 11 0 0
BITMAP
8810
8410
4210
4220
4620
2540
2940
2940
1980
1080
1080
ENDCHAR
STARTCHAR X
ENCODING 88
SWIDTH 750 0
DWIDTH 12 0
BBX 10 11 0 0
BITMAP
C080
2100
2200
1400
0800
0800
0C00
1400
2200
2100
40C0
ENDCHAR
STARTCHAR Y
ENCODING 89
SWIDTH 750 0
DWIDTH 12 0
BBX 10 11 0 0
BITMAP
C040
2080
2100
1100
0A00
0400
0400
0400
0400
0400
0400
ENDCHAR
STARTCHAR Z
ENCODING 90
SWIDTH 625 0
DWIDTH 10 0
BBX 8 11 0 0
BITMAP
FF
82
02
04
08
18
10
20
60
40
FF
ENDCHAR
STARTCHAR a
ENCODING 97
SWIDTH 500 0
DWIDTH 8 0
BBX 6 8 0 0
BITMAP
78
84
04
3C
44
84
8C
74
ENDCHAR
STARTCHAR b
ENCODING 98
SWIDTH 562 0
DWIDTH 9 0
BBX 7 11 0 0
BITMAP
C0
40
40
78
44
42
42
42
42
44
78
ENDCHAR
STARTCHAR c
ENCODING 99
SWIDTH 500 0
DWIDTH 8 0
BBX 6 8 0 0
BITMAP
38
44
84
80
80
80
44
38
ENDCHAR
STARTCHAR d
ENCODING 100
SWIDTH 500 0
DWIDTH 8 0
BBX 6 11 0 0
BITMAP
18
04
04
3C
44
84
84
84
84
4C
34
ENDCHAR
STARTCHAR e
ENCODING 101
SWIDTH 500 0
DWIDTH 8 0
BBX 6 8 0 0
BITMAP
38
44
84
FC
80
80
44
38
ENDCHAR
STARTCHAR f
ENCODING 102
SWIDTH 438 0
DWIDTH 7 0
BBX 5 11 0 0
BITMAP
38
40
40
F0
40
40
40
40
40
40
40
ENDCHAR
STARTCHAR g
ENCODING 103
SWIDTH 500 0
DWIDTH 8 0
BBX 6 11 0 -3
BITMAP
3C
44
44
44
38
20
38
44
84
84
78
ENDCHAR
STARTCHAR h
ENCODING 104
SWIDTH 562 0
DWIDTH 9 0
BBX 7 11 0 0
BITMAP
C0
40
40
5C
62
42
42
42
42
42
42
ENDCHAR
STARTCHAR i
ENCODING 105
SWIDTH 250 0
DWIDTH 4 0
BBX 2 11 0 0
BITMAP
40
40
00
C0
40
40
40
40
40
40
40
ENDCHAR
STARTCHAR j
ENCODING 106
SWIDTH 250 0
DWIDTH 4 0
BBX 2 14 0 -3
BITMAP
40
40
00
C0
40
40
40
40
40
40
40
40
40
80
ENDCHAR
STARTCHAR k
ENCODING 107
SWIDTH 500 0
DWIDTH 8 0
BBX 6 11 0 0
BITMAP
C0
40
40
44
48
50
60
60
50
48
44
ENDCHAR
STARTCHAR l
ENCODING 108
SWIDTH 250 0
DWIDTH 4 0
BBX 2 11 0 0
BITMAP
C0
40
40
40
40
40
40
40
40
40
40
ENDCHAR
STARTCHAR m
ENCODING 109
SWIDTH 750 0
DWIDTH 12 0
BBX 10 8 0 0
BITMAP
DB80
6440
4440
4440
4440
4440
4440
4440
ENDCHAR
STARTCHAR n
ENCODING 110
SWIDTH 562 0
DWIDTH 9 0
BBX 7 8 0 0
BITMAP
DC
62
42
42
42
42
42
42
ENDCHAR
STARTCHAR o
ENCODING 111
SWIDTH 562 0
DWIDTH 9 0
BBX 7 8 0 0
BITMAP
38
44
82
82
82
82
44
38
ENDCHAR
STARTCHAR p
ENCODING 112
SWIDTH 562 0
DWIDTH 9 0
BBX 7 11 0 -3
BITMAP
F8
44
42
42
42
42
44
78
40
40
40
ENDCHAR
STARTCHAR q
ENCODING 113
SWIDTH 500 0
DWIDTH 8 0
BBX 6 11 0 -3
BITMAP
3C
44
84
84
84
84
44
3C
04
04
04
ENDCHAR
STARTCHAR r
ENCODING 114
SWIDTH 438 0
DWIDTH 7 0
BBX 5 8 0 0
BITMAP
D8
60
40
40
40
40
40
40
ENDCHAR
STARTCHAR s
ENCODING 115
SWIDTH 438 0
DWIDTH 7 0
BBX 5 8 0 0
BITMAP
70
88
80
60
10
08
88
70
ENDCHAR
STARTCHAR t
ENCODING 116
SWIDTH 438 0
DWIDTH 7 0
BBX 5 10 0 0
BITMAP
40
40
F0
40
40
40
40
40
40
38
ENDCHAR
STARTCHAR u
ENCODING 117
SWIDTH 562 0
DWIDTH 9 0
BBX 7 8 0 0
BITMAP
C2
42
42
42
42
42
46
3A
ENDCHAR
STARTCHAR v
ENCODING 118
SWIDTH 562 0
DWIDTH 9 0
BBX 7 8 0 0
BITMAP
82
44
44
28
28
30
10
10
ENDCHAR
STARTCHAR w
ENCODING 119
SWIDTH 812 0
DWIDTH 13 0
BBX 11 8 0 0
BITMAP
8820
4440
4440
2A80
2A80
2A80
1100
1100
ENDCHAR
STARTCHAR x
ENCODING 120
SWIDTH 625 0
DWIDTH 10 0
BBX 8 8 0 0
BITMAP
C2
24
28
10
18
28
24
43
ENDCHAR
STARTCHAR y
ENCODING 121
SWIDTH 625 0
DWIDTH 10 0
BBX 8 11 0 -3
BITMAP
81
42
22
22
14
14
0C
08
08
08
30
ENDCHAR
STARTCHAR z
ENCODING 122
SWIDTH 500 0
DWIDTH 8 0
BBX 6 8 0 0
BITMAP
FC
88
10
10
20
40
40
FC
ENDCHAR
STARTCHAR bullet
ENCODING 8226
SWIDTH 375 0
DWIDTH 6 0
BBX 4 4 0 3
BITMAP
60
F0
F0
60
ENDCHAR
STARTCHAR .notdef
ENCODING -1
SWIDTH 125 0
DWIDTH 2 0
BBX 1 1 0 0
BITMAP
00
ENDCHAR
ENDFONT
