STARTFONT 2.1
FONT Pixelosopher Bold-16px
SIZE 16 75 75
FONTBOUNDINGBOX 14 14 0 -3
STARTPROPERTIES 5
PIXEL_SIZE 16
FONT_ASCENT 11
FONT_DESCENT 3
CHARSET_REGISTRY "ISO10646"
CHARSET_ENCODING "1"
ENDPROPERTIES
CHARS 87
STARTCHAR uni000D
ENCODING 13
SWIDTH 125 0
DWIDTH 2 0
BBX 1 1 0 0
BITMAP
00
ENDCHAR
STARTCHAR space
ENCODING 32
SWIDTH 188 0
DWIDTH 3 0
BBX 1 1 0 0
BITMAP
00
ENDCHAR
STARTCHAR exclam
ENCODING 33
SWIDTH 250 0
DWIDTH 4 0
BBX 2 11 0 0
BITMAP
C0
C0
C0
C0
C0
C0
C0
C0
00
C0
C0
ENDCHAR
STARTCHAR quotedbl
ENCODING 34
SWIDTH 438 0
DWIDTH 7 0
BBX 5 4 0 7
BITMAP
D8
D8
D8
D8
ENDCHAR
STARTCHAR numbersign
ENCODING 35
SWIDTH 812 0
DWIDTH 13 0
BBX 11 11 0 0
BITMAP
1980
1980
1980
7FE0
3300
3300
3300
FFC0
6600
6600
6600
ENDCHAR
STARTCHAR dollar
ENCODING 36
SWIDTH 562 0
DWIDTH 9 0
BBX 7 13 0 -2
BITMAP
10
7C
D6
D2
F2
70
38
1C
96
96
D6
7C
10
ENDCHAR
STARTCHAR percent
ENCODING 37
SWIDTH 875 0
DWIDTH 14 0
BBX 12 11 0 0
BITMAP
70C0
8980
8900
7300
0600
0400
0C00
18E0
1110
3110
60E0
ENDCHAR
STARTCHAR ampersand
ENCODING 38
SWIDTH 750 0
DWIDTH 12 0
BBX 10 11 0 0
BITMAP
3C00
6600
6600
6600
3C00
1800
6C40
C680
C700
E380
7DC0
ENDCHAR
STARTCHAR quotesingle
ENCODING 39
SWIDTH 250 0
DWIDTH 4 0
BBX 2 4 0 7
BITMAP
C0
C0
C0
C0
ENDCHAR
STARTCHAR parenleft
ENCODING 40
SWIDTH 375 0
DWIDTH 6 0
BBX 4 13 0 -2
BITMAP
10
20
60
40
C0
C0
C0
C0
C0
40
60
20
10
ENDCHAR
STARTCHAR parenright
ENCODING 41
SWIDTH 375 0
DWIDTH 6 0
BBX 4 13 0 -2
BITMAP
80
40
60
20
30
30
30
30
30
20
60
40
80
ENDCHAR
STARTCHAR asterisk
ENCODING 42
SWIDTH 500 0
DWIDTH 8 0
BBX 6 5 0 6
BITMAP
B4
FC
30
FC
B4
ENDCHAR
STARTCHAR plus
ENCODING 43
SWIDTH 562 0
DWIDTH 9 0
BBX 7 7 0 2
BITMAP
10
10
10
FE
10
10
10
ENDCHAR
STARTCHAR comma
ENCODING 44
SWIDTH 250 0
DWIDTH 4 0
BBX 2 4 0 -3
BITMAP
C0
C0
40
80
ENDCHAR
STARTCHAR hyphen
ENCODING 45
SWIDTH 375 0
DWIDTH 6 0
BBX 4 2 0 4
BITMAP
F0
F0
ENDCHAR
STARTCHAR period
ENCODING 46
SWIDTH 250 0
DWIDTH 4 0
BBX 2 2 0 0
BITMAP
C0
C0
ENDCHAR
STARTCHAR slash
ENCODING 47
SWIDTH 562 0
DWIDTH 9 0
BBX 7 11 0 0
BITMAP
06
06
0C
0C
18
18
30
30
60
60
C0
ENDCHAR
STARTCHAR zero
ENCODING 48
SWIDTH 625 0
DWIDTH 10 0
BBX 8 11 0 0
BITMAP
3C
66
C3
C3
C3
C3
C3
C3
C3
66
3C
ENDCHAR
STARTCHAR one
ENCODING 49
SWIDTH 375 0
DWIDTH 6 0
BBX 4 11 0 0
BITMAP
30
70
B0
30
30
30
30
30
30
30
30
ENDCHAR
STARTCHAR two
ENCODING 50
SWIDTH 562 0
DWIDTH 9 0
BBX 7 11 0 0
BITMAP
7C
CE
86
86
06
0C
18
30
60
C2
FE
ENDCHAR
STARTCHAR three
ENCODING 51
SWIDTH 562 0
DWIDTH 9 0
BBX 7 11 0 0
BITMAP
FC
88
10
20
7C
0E
06
06
06
8C
78
ENDCHAR
STARTCHAR four
ENCODING 52
SWIDTH 625 0
DWIDTH 10 0
BBX 8 11 0 0
BITMAP
02
06
0E
16
26
46
86
FF
06
06
06
ENDCHAR
STARTCHAR five
ENCODING 53
SWIDTH 562 0
DWIDTH 9 0
BBX 7 11 0 0
BITMAP
FC
C0
C0
C0
F8
0C
06
06
06
8C
78
ENDCHAR
STARTCHAR six
ENCODING 54
SWIDTH 562 0
DWIDTH 9 0
BBX 7 11 0 0
BITMAP
3C
60
C0
C0
FC
C6
C6
C6
C6
44
38
ENDCHAR
STARTCHAR seven
ENCODING 55
SWIDTH 562 0
DWIDTH 9 0
BBX 7 11 0 0
BITMAP
FE
86
0C
0C
0C
18
18
18
30
30
30
ENDCHAR
STARTCHAR eight
ENCODING 56
SWIDTH 562 0
DWIDTH 9 0
BBX 7 11 0 0
BITMAP
7C
C6
C6
C6
6C
38
6C
C6
C6
C6
7C
ENDCHAR
STARTCHAR nine
ENCODING 57
SWIDTH 562 0
DWIDTH 9 0
BBX 7 11 0 0
BITMAP
38
44
C6
C6
C6
C6
7E
06
06
0C
78
ENDCHAR
STARTCHAR colon
ENCODING 58
SWIDTH 250 0
DWIDTH 4 0
BBX 2 8 0 0
BITMAP
C0
C0
00
00
00
00
C0
C0
ENDCHAR
STARTCHAR semicolon
ENCODING 59
SWIDTH 250 0
DWIDTH 4 0
BBX 2 10 0 -2
BITMAP
C0
C0
00
00
00
00
C0
C0
40
80
ENDCHAR
STARTCHAR less
ENCODING 60
SWIDTH 688 0
DWIDTH 11 0
BBX 8 9 1 1
BITMAP
01
06
18
70
C0
70
18
06
01
ENDCHAR
STARTCHAR equal
ENCODING 61
SWIDTH 688 0
DWIDTH 11 0
BBX 9 4 0 3
BITMAP
FF80
0000
0000
FF80
ENDCHAR
STARTCHAR greater
ENCODING 62
SWIDTH 625 0
DWIDTH 10 0
BBX 8 9 0 1
BITMAP
80
60
18
0E
03
0E
18
60
80
ENDCHAR
STARTCHAR question
ENCODING 63
SWIDTH 562 0
DWIDTH 9 0
BBX 7 11 0 0
BITMAP
3C
46
86
86
06
0C
18
10
00
30
30
ENDCHAR
STARTCHAR A
ENCODING 65
SWIDTH 812 0
DWIDTH 13 0
BBX 11 11 0 0
BITMAP
0C00
0C00
0C00
1600
1600
2300
2300
7F80
4180
4180
80E0
ENDCHAR
STARTCHAR B
ENCODING 66
SWIDTH 625 0
DWIDTH 10 0
BBX 8 11 0 0
BITMAP
FE
63
63
63
66
7C
66
63
63
63
7E
ENDCHAR
STARTCHAR C
ENCODING 67
SWIDTH 688 0
DWIDTH 11 0
BBX 9 11 0 0
BITMAP
1E00
2100
6080
C080
C000
C000
C000
C000
6080
3100
1E00
ENDCHAR
STARTCHAR D
ENCODING 68
SWIDTH 750 0
DWIDTH 12 0
BBX 10 11 0 0
BITMAP
FE00
6300
6180
60C0
60C0
60C0
60C0
60C0
6180
6300
7E00
ENDCHAR
STARTCHAR E
ENCODING 69
SWIDTH 688 0
DWIDTH 11 0
BBX 9 11 0 0
BITMAP
FF00
6100
6100
6000
6000
7E00
6000
6000
6080
6080
7F00
ENDCHAR
STARTCHAR F
ENCODING 70
SWIDTH 562 0
DWIDTH 9 0
BBX 7 11 0 0
BITMAP
FE
62
62
60
60
7C
60
60
60
60
60
ENDCHAR
STARTCHAR G
ENCODING 71
SWIDTH 750 0
DWIDTH 12 0
BBX 10 11 0 0
BITMAP
1E00
2100
6080
C080
C000
C3C0
C180
C180
6180
2180
1F00
ENDCHAR
STARTCHAR H
ENCODING 72
SWIDTH 750 0
DWIDTH 12 0
BBX 10 11 0 0
BITMAP
E180
6180
6180
6180
6180
7F80
6180
6180
6180
6180
61C0
ENDCHAR
STARTCHAR I
ENCODING 73
SWIDTH 438 0
DWIDTH 7 0
BBX 3 11 2 0
BITMAP
C0
C0
C0
C0
C0
C0
C0
C0
C0
C0
E0
ENDCHAR
STARTCHAR J
ENCODING 74
SWIDTH 312 0
DWIDTH 5 0
BBX 3 13 0 -2
BITMAP
60
60
60
60
60
60
60
60
60
60
60
60
C0
ENDCHAR
STARTCHAR K
ENCODING 75
SWIDTH 812 0
DWIDTH 13 0
BBX 11 11 0 0
BITMAP
F0C0
3100
3200
3400
3800
3C00
3E00
3700
3380
31C0
30E0
ENDCHAR
STARTCHAR L
ENCODING 76
SWIDTH 625 0
DWIDTH 10 0
BBX 8 11 0 0
BITMAP
E0
60
60
60
60
60
60
60
60
60
7F
ENDCHAR
STARTCHAR M
ENCODING 77
SWIDTH 875 0
DWIDTH 14 0
BBX 12 12 0 -1
BITMAP
C060
E0E0
E0E0
B160
B160
9960
9A60
8A60
8E60
8C60
8460
0030
ENDCHAR
STARTCHAR N
ENCODING 78
SWIDTH 750 0
DWIDTH 12 0
BBX 10 11 0 0
BITMAP
C040
6040
7040
7840
5C40
4E40
4740
43C0
41C0
40C0
4040
ENDCHAR
STARTCHAR O
ENCODING 79
SWIDTH 750 0
DWIDTH 12 0
BBX 10 11 0 0
BITMAP
1E00
3300
6180
C0C0
C0C0
C0C0
C0C0
C0C0
6180
3300
1E00
ENDCHAR
STARTCHAR P
ENCODING 80
SWIDTH 625 0
DWIDTH 10 0
BBX 8 11 0 0
BITMAP
FC
66
63
63
63
66
7C
60
60
60
60
ENDCHAR
STARTCHAR Q
ENCODING 81
SWIDTH 750 0
DWIDTH 12 0
BBX 10 14 0 -3
BITMAP
1E00
3300
6180
C0C0
C0C0
C0C0
C0C0
C0C0
6180
3300
1E00
0C00
0600
03C0
ENDCHAR
STARTCHAR R
ENCODING 82
SWIDTH 688 0
DWIDTH 11 0
BBX 9 11 0 0
BITMAP
FC00
6600
6300
6300
6600
7C00
7800
6C00
6600
6300
6180
ENDCHAR
STARTCHAR S
ENCODING 83
SWIDTH 562 0
DWIDTH 9 0
BBX 7 11 0 0
BITMAP
7C
C6
C2
E2
70
38
1C
8E
86
CE
7C
ENDCHAR
STARTCHAR T
ENCODING 84
SWIDTH 688 0
DWIDTH 11 0
BBX 9 11 0 0
BITMAP
FF80
9800
9800
1800
1800
1800
1800
1800
1800
1800
1800
ENDCHAR
STARTCHAR U
ENCODING 85
SWIDTH 688 0
DWIDTH 11 0
BBX 9 11 0 0
BITMAP
E080
6080
6080
6080
6080
6080
6080
6080
6080
3100
1E00
ENDCHAR
STARTCHAR V
ENCODING 86
SWIDTH 812 0
DWIDTH 13 0
BBX 11 11 0 0
BITMAP
E020
7040
3040
38C0
1880
1C80
0D00
0D00
0600
0600
0200
ENDCHAR
STARTCHAR W
ENCODING 87
SWIDTH 1000 0
DWIDTH 16 0
BBX 14 11 0 0
BITMAP
C404
E208
6108
7188
3390
3A90
1AD0
1CE0
1C60
0C60
0840
ENDCHAR
STARTCHAR X
ENCODING 88
SWIDTH 812 0
DWIDTH 13 0
BBX 11 11 0 0
BITMAP
E060
7080
3100
1A00
1C00
0C00
0E00
1700
2300
21C0
C0E0
ENDCHAR
STARTCHAR Y
ENCODING 89
SWIDTH 750 0
DWIDTH 12 0
BBX 10 11 0 0
BITMAP
C040
E080
7100
3100
1A00
1C00
0C00
0C00
0C00
0C00
0C00
ENDCHAR
STARTCHAR Z
ENCODING 90
SWIDTH 625 0
DWIDTH 10 0
BBX 8 11 0 0
BITMAP
FF
86
8E
0C
18
18
30
30
60
E0
FF
ENDCHAR
STARTCHAR a
ENCODING 97
SWIDTH 500 0
DWIDTH 8 0
BBX 6 8 0 0
BITMAP
38
4C
0C
0C
7C
CC
CC
74
ENDCHAR
STARTCHAR b
ENCODING 98
SWIDTH 625 0
DWIDTH 10 0
BBX 8 11 0 0
BITMAP
E0
60
60
7C
66
63
63
63
63
66
7C
ENDCHAR
STARTCHAR c
ENCODING 99
SWIDTH 500 0
DWIDTH 8 0
BBX 6 8 0 0
BITMAP
38
64
C4
C0
C0
C0
64
38
ENDCHAR
STARTCHAR d
ENCODING 100
SWIDTH 562 0
DWIDTH 9 0
BBX 7 11 0 0
BITMAP
0E
06
06
3E
66
C6
C6
C6
C6
66
3A
ENDCHAR
STARTCHAR e
ENCODING 101
SWIDTH 500 0
DWIDTH 8 0
BBX 6 8 0 0
BITMAP
38
4C
CC
FC
C0
C0
64
38
ENDCHAR
STARTCHAR f
ENCODING 102
SWIDTH 500 0
DWIDTH 8 0
BBX 6 11 0 0
BITMAP
38
64
60
F8
60
60
60
60
60
60
60
ENDCHAR
STARTCHAR g
ENCODING 103
SWIDTH 562 0
DWIDTH 9 0
BBX 7 11 0 -3
BITMAP
3C
66
66
66
3C
20
3C
46
C6
C6
7C
ENDCHAR
STARTCHAR h
ENCODING 104
SWIDTH 625 0
DWIDTH 10 0
BBX 8 11 0 0
BITMAP
E0
60
60
6E
73
63
63
63
63
63
63
ENDCHAR
STARTCHAR i
ENCODING 105
SWIDTH 312 0
DWIDTH 5 0
BBX 3 11 0 0
BITMAP
60
60
00
E0
60
60
60
60
60
60
60
ENDCHAR
STARTCHAR j
ENCODING 106
SWIDTH 312 0
DWIDTH 5 0
BBX 3 14 0 -3
BITMAP
60
60
00
E0
60
60
60
60
60
60
60
60
60
C0
ENDCHAR
STARTCHAR k
ENCODING 107
SWIDTH 625 0
DWIDTH 10 0
BBX 8 11 0 0
BITMAP
E0
60
60
63
64
68
70
78
6C
66
63
ENDCHAR
STARTCHAR l
ENCODING 108
SWIDTH 312 0
DWIDTH 5 0
BBX 3 11 0 0
BITMAP
E0
60
60
60
60
60
60
60
60
60
60
ENDCHAR
STARTCHAR m
ENCODING 109
SWIDTH 938 0
DWIDTH 15 0
BBX 13 8 0 0
BITMAP
DEF0
6318
6318
6318
6318
6318
6318
6318
ENDCHAR
STARTCHAR n
ENCODING 110
SWIDTH 625 0
DWIDTH 10 0
BBX 8 8 0 0
BITMAP
DE
63
63
63
63
63
63
63
ENDCHAR
STARTCHAR o
ENCODING 111
SWIDTH 562 0
DWIDTH 9 0
BBX 7 8 0 0
BITMAP
38
6C
C6
C6
C6
C6
6C
38
ENDCHAR
STARTCHAR p
ENCODING 112
SWIDTH 625 0
DWIDTH 10 0
BBX 8 11 0 -3
BITMAP
DC
66
63
63
63
63
66
7C
60
60
60
ENDCHAR
STARTCHAR q
ENCODING 113
SWIDTH 562 0
DWIDTH 9 0
BBX 7 11 0 -3
BITMAP
3E
66
C6
C6
C6
C6
66
3E
06
06
06
ENDCHAR
STARTCHAR r
ENCODING 114
SWIDTH 500 0
DWIDTH 8 0
BBX 6 8 0 0
BITMAP
EC
70
60
60
60
60
60
60
ENDCHAR
STARTCHAR s
ENCODING 115
SWIDTH 500 0
DWIDTH 8 0
BBX 6 8 0 0
BITMAP
78
CC
C4
70
3C
8C
CC
78
ENDCHAR
STARTCHAR t
ENCODING 116
SWIDTH 438 0
DWIDTH 7 0
BBX 5 10 0 0
BITMAP
60
60
F8
60
60
60
60
60
60
38
ENDCHAR
STARTCHAR u
ENCODING 117
SWIDTH 625 0
DWIDTH 10 0
BBX 8 8 0 0
BITMAP
E3
63
63
63
63
63
63
3D
ENDCHAR
STARTCHAR v
ENCODING 118
SWIDTH 625 0
DWIDTH 10 0
BBX 8 8 0 0
BITMAP
C1
62
62
34
34
1C
18
08
ENDCHAR
STARTCHAR w
ENCODING 119
SWIDTH 875 0
DWIDTH 14 0
BBX 12 8 0 0
BITMAP
C610
6310
6320
33A0
35A0
18C0
18C0
0840
ENDCHAR
STARTCHAR x
ENCODING 120
SWIDTH 688 0
DWIDTH 11 0
BBX 9 8 0 0
BITMAP
E180
7200
3400
1800
1C00
2C00
4600
8700
ENDCHAR
STARTCHAR y
ENCODING 121
SWIDTH 625 0
DWIDTH 10 0
BBX 8 11 0 -3
BITMAP
C1
62
62
34
34
1C
18
08
08
10
60
ENDCHAR
STARTCHAR z
ENCODING 122
SWIDTH 500 0
DWIDTH 8 0
BBX 6 8 0 0
BITMAP
FC
98
18
30
30
60
E0
FC
ENDCHAR
STARTCHAR bullet
ENCODING 8226
SWIDTH 375 0
DWIDTH 6 0
BBX 4 4 0 3
BITMAP
60
F0
F0
60
ENDCHAR
STARTCHAR .notdef
ENCODING -1
SWIDTH 125 0
DWIDTH 2 0
BBX 1 1 0 0
BITMAP
00
ENDCHAR
ENDFONT
