STARTFONT 2.1
FONT Bm437_MBytePC230_8x16-16px
SIZE 16 75 75
FONTBOUNDINGBOX 10 16 0 -5
STARTPROPERTIES 3
PIXEL_SIZE 16
FONT_ASCENT 12
FONT_DESCENT 4
ENDPROPERTIES
CHARS 295
STARTCHAR uni0000
ENCODING 0
SWIDTH 500 0
DWIDTH 8 0
BBX 1 1 0 0
BITMAP
00
ENDCHAR
STARTCHAR uni0001
ENCODING 1
SWIDTH 500 0
DWIDTH 8 0
BBX 8 9 0 0
BITMAP
7E
81
A5
81
81
BD
99
81
7E
ENDCHAR
STARTCHAR uni0002
ENCODING 2
SWIDTH 500 0
DWIDTH 8 0
BBX 8 9 0 0
BITMAP
7E
FF
DB
FF
FF
C3
E7
FF
7E
ENDCHAR
STARTCHAR uni0003
ENCODING 3
SWIDTH 500 0
DWIDTH 8 0
BBX 7 8 1 0
BITMAP
6C
FE
FE
FE
FE
7C
38
10
ENDCHAR
STARTCHAR uni0004
ENCODING 4
SWIDTH 500 0
DWIDTH 8 0
BBX 7 7 1 1
BITMAP
10
38
7C
FE
7C
38
10
ENDCHAR
STARTCHAR uni0005
ENCODING 5
SWIDTH 500 0
DWIDTH 8 0
BBX 7 9 1 0
BITMAP
38
38
10
D6
FE
D6
10
38
38
ENDCHAR
STARTCHAR uni0006
ENCODING 6
SWIDTH 500 0
DWIDTH 8 0
BBX 7 9 1 0
BITMAP
10
38
7C
FE
FE
7C
10
38
7C
ENDCHAR
STARTCHAR uni0007
ENCODING 7
SWIDTH 500 0
DWIDTH 8 0
BBX 4 4 2 2
BITMAP
60
F0
F0
60
ENDCHAR
STARTCHAR uni0008
ENCODING 8
SWIDTH 500 0
DWIDTH 8 0
BBX 8 16 0 -5
BITMAP
FF
FF
FF
FF
FF
E7
C3
C3
E7
FF
FF
FF
FF
FF
FF
FF
ENDCHAR
STARTCHAR uni0009
ENCODING 9
SWIDTH 500 0
DWIDTH 8 0
BBX 6 6 1 1
BITMAP
78
CC
84
84
CC
78
ENDCHAR
STARTCHAR uni000A
ENCODING 10
SWIDTH 500 0
DWIDTH 8 0
BBX 8 16 0 -5
BITMAP
FF
FF
FF
FF
C3
99
BD
BD
99
C3
FF
FF
FF
FF
FF
FF
ENDCHAR
STARTCHAR uni000B
ENCODING 11
SWIDTH 500 0
DWIDTH 8 0
BBX 8 12 0 -2
BITMAP
00
07
03
05
08
3E
41
41
41
3E
00
00
ENDCHAR
STARTCHAR uni000C
ENCODING 12
SWIDTH 500 0
DWIDTH 8 0
BBX 8 12 0 -2
BITMAP
00
3E
41
41
41
3E
08
7F
08
08
00
00
ENDCHAR
STARTCHAR uni000D
ENCODING 13
SWIDTH 500 0
DWIDTH 8 0
BBX 6 9 1 0
BITMAP
30
28
24
24
20
20
60
E0
60
ENDCHAR
STARTCHAR uni000E
ENCODING 14
SWIDTH 500 0
DWIDTH 8 0
BBX 8 12 0 -2
BITMAP
00
1F
11
1F
11
11
11
13
37
72
20
00
ENDCHAR
STARTCHAR uni000F
ENCODING 15
SWIDTH 500 0
DWIDTH 8 0
BBX 8 12 0 -2
BITMAP
00
08
49
2A
14
63
14
2A
49
08
00
00
ENDCHAR
STARTCHAR uni0010
ENCODING 16
SWIDTH 500 0
DWIDTH 8 0
BBX 8 12 0 -2
BITMAP
00
40
60
70
7C
7F
7C
70
60
40
00
00
ENDCHAR
STARTCHAR uni0011
ENCODING 17
SWIDTH 500 0
DWIDTH 8 0
BBX 8 12 0 -2
BITMAP
00
01
03
07
1F
7F
1F
07
03
01
00
00
ENDCHAR
STARTCHAR uni0012
ENCODING 18
SWIDTH 500 0
DWIDTH 8 0
BBX 8 12 0 -2
BITMAP
00
10
38
7C
10
10
10
7C
38
10
00
00
ENDCHAR
STARTCHAR uni0013
ENCODING 19
SWIDTH 500 0
DWIDTH 8 0
BBX 8 12 0 -2
BITMAP
00
24
24
24
24
24
24
00
24
24
00
00
ENDCHAR
STARTCHAR uni0014
ENCODING 20
SWIDTH 500 0
DWIDTH 8 0
BBX 8 12 0 -2
BITMAP
00
3F
7A
7A
7A
3A
0A
0A
0A
0A
00
00
ENDCHAR
STARTCHAR uni0015
ENCODING 21
SWIDTH 500 0
DWIDTH 8 0
BBX 8 12 0 -2
BITMAP
0C
12
10
0C
12
21
21
12
0C
02
12
0C
ENDCHAR
STARTCHAR uni0016
ENCODING 22
SWIDTH 500 0
DWIDTH 8 0
BBX 8 12 0 -2
BITMAP
00
00
00
00
00
00
00
7F
7F
7F
00
00
ENDCHAR
STARTCHAR uni0017
ENCODING 23
SWIDTH 500 0
DWIDTH 8 0
BBX 8 12 0 -2
BITMAP
00
10
38
7C
10
10
10
7C
38
10
7C
00
ENDCHAR
STARTCHAR uni0018
ENCODING 24
SWIDTH 500 0
DWIDTH 8 0
BBX 8 12 0 -2
BITMAP
00
10
38
7C
10
10
10
10
10
10
00
00
ENDCHAR
STARTCHAR uni0019
ENCODING 25
SWIDTH 500 0
DWIDTH 8 0
BBX 8 12 0 -2
BITMAP
00
10
10
10
10
10
10
7C
38
10
00
00
ENDCHAR
STARTCHAR uni001A
ENCODING 26
SWIDTH 500 0
DWIDTH 8 0
BBX 8 12 0 -2
BITMAP
00
00
00
04
06
7F
06
04
00
00
00
00
ENDCHAR
STARTCHAR uni001B
ENCODING 27
SWIDTH 500 0
DWIDTH 8 0
BBX 8 12 0 -2
BITMAP
00
00
00
10
30
7F
30
10
00
00
00
00
ENDCHAR
STARTCHAR uni001C
ENCODING 28
SWIDTH 500 0
DWIDTH 8 0
BBX 8 12 0 -2
BITMAP
00
00
00
00
40
40
40
7F
00
00
00
00
ENDCHAR
STARTCHAR uni001D
ENCODING 29
SWIDTH 500 0
DWIDTH 8 0
BBX 8 12 0 -2
BITMAP
00
00
00
14
36
7F
36
14
00
00
00
00
ENDCHAR
STARTCHAR uni001E
ENCODING 30
SWIDTH 500 0
DWIDTH 8 0
BBX 8 12 0 -2
BITMAP
00
00
08
1C
1C
3E
3E
7F
7F
00
00
00
ENDCHAR
STARTCHAR uni001F
ENCODING 31
SWIDTH 500 0
DWIDTH 8 0
BBX 8 12 0 -2
BITMAP
00
00
7F
7F
3E
3E
1C
1C
08
00
00
00
ENDCHAR
STARTCHAR space
ENCODING 32
SWIDTH 500 0
DWIDTH 8 0
BBX 8 12 0 -2
BITMAP
00
00
00
00
00
00
00
00
00
00
00
00
ENDCHAR
STARTCHAR exclam
ENCODING 33
SWIDTH 500 0
DWIDTH 8 0
BBX 8 12 0 -2
BITMAP
00
08
08
08
08
08
08
00
08
08
00
00
ENDCHAR
STARTCHAR quotedbl
ENCODING 34
SWIDTH 500 0
DWIDTH 8 0
BBX 8 12 0 -2
BITMAP
00
12
12
12
00
00
00
00
00
00
00
00
ENDCHAR
STARTCHAR numbersign
ENCODING 35
SWIDTH 500 0
DWIDTH 8 0
BBX 8 12 0 -2
BITMAP
00
12
12
3F
12
12
3F
12
12
00
00
00
ENDCHAR
STARTCHAR dollar
ENCODING 36
SWIDTH 500 0
DWIDTH 8 0
BBX 8 12 0 -2
BITMAP
08
08
1C
22
20
1C
02
22
1C
08
08
00
ENDCHAR
STARTCHAR percent
ENCODING 37
SWIDTH 500 0
DWIDTH 8 0
BBX 8 12 0 -2
BITMAP
00
30
48
32
04
08
10
26
09
06
00
00
ENDCHAR
STARTCHAR ampersand
ENCODING 38
SWIDTH 500 0
DWIDTH 8 0
BBX 8 12 0 -2
BITMAP
00
18
24
24
18
18
25
42
24
1A
00
00
ENDCHAR
STARTCHAR quotesingle
ENCODING 39
SWIDTH 500 0
DWIDTH 8 0
BBX 8 12 0 -2
BITMAP
00
0C
04
08
00
00
00
00
00
00
00
00
ENDCHAR
STARTCHAR parenleft
ENCODING 40
SWIDTH 500 0
DWIDTH 8 0
BBX 8 12 0 -2
BITMAP
02
04
08
10
10
10
10
10
08
04
02
00
ENDCHAR
STARTCHAR parenright
ENCODING 41
SWIDTH 500 0
DWIDTH 8 0
BBX 8 12 0 -2
BITMAP
10
08
04
02
02
02
02
02
04
08
10
00
ENDCHAR
STARTCHAR asterisk
ENCODING 42
SWIDTH 500 0
DWIDTH 8 0
BBX 8 12 0 -2
BITMAP
00
00
00
12
0C
33
0C
12
00
00
00
00
ENDCHAR
STARTCHAR plus
ENCODING 43
SWIDTH 500 0
DWIDTH 8 0
BBX 8 12 0 -2
BITMAP
00
00
00
08
08
3E
08
08
00
00
00
00
ENDCHAR
STARTCHAR comma
ENCODING 44
SWIDTH 500 0
DWIDTH 8 0
BBX 8 12 0 -2
BITMAP
00
00
00
00
00
00
00
00
0C
0C
04
08
ENDCHAR
STARTCHAR hyphen
ENCODING 45
SWIDTH 500 0
DWIDTH 8 0
BBX 8 12 0 -2
BITMAP
00
00
00
00
00
3F
00
00
00
00
00
00
ENDCHAR
STARTCHAR period
ENCODING 46
SWIDTH 500 0
DWIDTH 8 0
BBX 8 12 0 -2
BITMAP
00
00
00
00
00
00
00
00
0C
0C
00
00
ENDCHAR
STARTCHAR slash
ENCODING 47
SWIDTH 500 0
DWIDTH 8 0
BBX 8 12 0 -2
BITMAP
00
00
01
02
04
08
10
20
40
00
00
00
ENDCHAR
STARTCHAR zero
ENCODING 48
SWIDTH 500 0
DWIDTH 8 0
BBX 8 12 0 -2
BITMAP
00
3E
41
43
45
49
51
61
41
3E
00
00
ENDCHAR
STARTCHAR one
ENCODING 49
SWIDTH 500 0
DWIDTH 8 0
BBX 8 12 0 -2
BITMAP
00
08
18
28
08
08
08
08
08
3E
00
00
ENDCHAR
STARTCHAR two
ENCODING 50
SWIDTH 500 0
DWIDTH 8 0
BBX 8 12 0 -2
BITMAP
00
1E
21
01
01
0E
10
20
20
3F
00
00
ENDCHAR
STARTCHAR three
ENCODING 51
SWIDTH 500 0
DWIDTH 8 0
BBX 8 12 0 -2
BITMAP
00
1E
21
01
01
0E
01
01
21
1E
00
00
ENDCHAR
STARTCHAR four
ENCODING 52
SWIDTH 500 0
DWIDTH 8 0
BBX 8 12 0 -2
BITMAP
00
20
22
22
22
22
3F
02
02
02
00
00
ENDCHAR
STARTCHAR five
ENCODING 53
SWIDTH 500 0
DWIDTH 8 0
BBX 8 12 0 -2
BITMAP
00
3E
20
20
3C
22
01
01
22
1C
00
00
ENDCHAR
STARTCHAR six
ENCODING 54
SWIDTH 500 0
DWIDTH 8 0
BBX 8 12 0 -2
BITMAP
00
1E
20
20
20
3E
21
21
21
1E
00
00
ENDCHAR
STARTCHAR seven
ENCODING 55
SWIDTH 500 0
DWIDTH 8 0
BBX 8 12 0 -2
BITMAP
00
3F
01
02
04
08
08
08
08
08
00
00
ENDCHAR
STARTCHAR eight
ENCODING 56
SWIDTH 500 0
DWIDTH 8 0
BBX 8 12 0 -2
BITMAP
00
1E
21
21
21
1E
21
21
21
1E
00
00
ENDCHAR
STARTCHAR nine
ENCODING 57
SWIDTH 500 0
DWIDTH 8 0
BBX 8 12 0 -2
BITMAP
00
1E
21
21
21
1F
01
01
01
1E
00
00
ENDCHAR
STARTCHAR colon
ENCODING 58
SWIDTH 500 0
DWIDTH 8 0
BBX 8 12 0 -2
BITMAP
00
00
00
00
0C
0C
00
00
0C
0C
00
00
ENDCHAR
STARTCHAR semicolon
ENCODING 59
SWIDTH 500 0
DWIDTH 8 0
BBX 8 12 0 -2
BITMAP
00
00
00
00
0C
0C
00
00
0C
0C
04
08
ENDCHAR
STARTCHAR less
ENCODING 60
SWIDTH 500 0
DWIDTH 8 0
BBX 8 12 0 -2
BITMAP
00
02
04
08
10
20
10
08
04
02
00
00
ENDCHAR
STARTCHAR equal
ENCODING 61
SWIDTH 500 0
DWIDTH 8 0
BBX 8 12 0 -2
BITMAP
00
00
00
00
3F
00
3F
00
00
00
00
00
ENDCHAR
STARTCHAR greater
ENCODING 62
SWIDTH 500 0
DWIDTH 8 0
BBX 8 12 0 -2
BITMAP
00
20
10
08
04
02
04
08
10
20
00
00
ENDCHAR
STARTCHAR question
ENCODING 63
SWIDTH 500 0
DWIDTH 8 0
BBX 8 12 0 -2
BITMAP
00
1E
21
21
02
04
08
00
08
08
00
00
ENDCHAR
STARTCHAR at
ENCODING 64
SWIDTH 500 0
DWIDTH 8 0
BBX 8 12 0 -2
BITMAP
00
1E
21
27
29
29
29
27
20
1E
00
00
ENDCHAR
STARTCHAR A
ENCODING 65
SWIDTH 500 0
DWIDTH 8 0
BBX 8 12 0 -2
BITMAP
00
0C
12
21
21
21
3F
21
21
21
00
00
ENDCHAR
STARTCHAR B
ENCODING 66
SWIDTH 500 0
DWIDTH 8 0
BBX 8 12 0 -2
BITMAP
00
3E
21
21
21
3E
21
21
21
3E
00
00
ENDCHAR
STARTCHAR C
ENCODING 67
SWIDTH 500 0
DWIDTH 8 0
BBX 8 12 0 -2
BITMAP
00
1E
21
20
20
20
20
20
21
1E
00
00
ENDCHAR
STARTCHAR D
ENCODING 68
SWIDTH 500 0
DWIDTH 8 0
BBX 8 12 0 -2
BITMAP
00
3C
22
21
21
21
21
21
22
3C
00
00
ENDCHAR
STARTCHAR E
ENCODING 69
SWIDTH 500 0
DWIDTH 8 0
BBX 8 12 0 -2
BITMAP
00
3F
20
20
20
3E
20
20
20
3F
00
00
ENDCHAR
STARTCHAR F
ENCODING 70
SWIDTH 500 0
DWIDTH 8 0
BBX 8 12 0 -2
BITMAP
00
3F
20
20
20
3E
20
20
20
20
00
00
ENDCHAR
STARTCHAR G
ENCODING 71
SWIDTH 500 0
DWIDTH 8 0
BBX 8 12 0 -2
BITMAP
00
1E
21
20
20
27
21
21
21
1E
00
00
ENDCHAR
STARTCHAR H
ENCODING 72
SWIDTH 500 0
DWIDTH 8 0
BBX 8 12 0 -2
BITMAP
00
21
21
21
21
3F
21
21
21
21
00
00
ENDCHAR
STARTCHAR I
ENCODING 73
SWIDTH 500 0
DWIDTH 8 0
BBX 8 12 0 -2
BITMAP
00
3E
08
08
08
08
08
08
08
3E
00
00
ENDCHAR
STARTCHAR J
ENCODING 74
SWIDTH 500 0
DWIDTH 8 0
BBX 8 12 0 -2
BITMAP
00
01
01
01
01
01
01
21
21
1E
00
00
ENDCHAR
STARTCHAR K
ENCODING 75
SWIDTH 500 0
DWIDTH 8 0
BBX 8 12 0 -2
BITMAP
00
21
22
24
28
30
28
24
22
21
00
00
ENDCHAR
STARTCHAR L
ENCODING 76
SWIDTH 500 0
DWIDTH 8 0
BBX 8 12 0 -2
BITMAP
00
20
20
20
20
20
20
20
20
3F
00
00
ENDCHAR
STARTCHAR M
ENCODING 77
SWIDTH 500 0
DWIDTH 8 0
BBX 8 12 0 -2
BITMAP
00
21
33
2D
21
21
21
21
21
21
00
00
ENDCHAR
STARTCHAR N
ENCODING 78
SWIDTH 500 0
DWIDTH 8 0
BBX 8 12 0 -2
BITMAP
00
21
21
31
29
25
23
21
21
21
00
00
ENDCHAR
STARTCHAR O
ENCODING 79
SWIDTH 500 0
DWIDTH 8 0
BBX 8 12 0 -2
BITMAP
00
1E
21
21
21
21
21
21
21
1E
00
00
ENDCHAR
STARTCHAR P
ENCODING 80
SWIDTH 500 0
DWIDTH 8 0
BBX 8 12 0 -2
BITMAP
00
3E
21
21
21
3E
20
20
20
20
00
00
ENDCHAR
STARTCHAR Q
ENCODING 81
SWIDTH 500 0
DWIDTH 8 0
BBX 8 12 0 -2
BITMAP
00
1E
21
21
21
21
21
25
25
1E
03
00
ENDCHAR
STARTCHAR R
ENCODING 82
SWIDTH 500 0
DWIDTH 8 0
BBX 8 12 0 -2
BITMAP
00
3E
21
21
21
3E
21
21
21
21
00
00
ENDCHAR
STARTCHAR S
ENCODING 83
SWIDTH 500 0
DWIDTH 8 0
BBX 8 12 0 -2
BITMAP
00
1E
21
20
20
1E
01
01
21
1E
00
00
ENDCHAR
STARTCHAR T
ENCODING 84
SWIDTH 500 0
DWIDTH 8 0
BBX 8 12 0 -2
BITMAP
00
7F
08
08
08
08
08
08
08
08
00
00
ENDCHAR
STARTCHAR U
ENCODING 85
SWIDTH 500 0
DWIDTH 8 0
BBX 8 12 0 -2
BITMAP
00
21
21
21
21
21
21
21
21
1E
00
00
ENDCHAR
STARTCHAR V
ENCODING 86
SWIDTH 500 0
DWIDTH 8 0
BBX 8 12 0 -2
BITMAP
00
41
41
41
41
41
41
22
14
08
00
00
ENDCHAR
STARTCHAR W
ENCODING 87
SWIDTH 500 0
DWIDTH 8 0
BBX 9 14 1 -5
BITMAP
8200
8200
8200
8200
9200
9200
AA00
C600
8200
0000
0000
0000
0000
0080
ENDCHAR
STARTCHAR X
ENCODING 88
SWIDTH 500 0
DWIDTH 8 0
BBX 8 14 0 -3
BITMAP
00
00
21
21
21
12
0C
12
21
21
21
00
00
00
ENDCHAR
STARTCHAR Y
ENCODING 89
SWIDTH 500 0
DWIDTH 8 0
BBX 8 14 0 -3
BITMAP
00
00
41
41
41
22
14
08
08
08
08
00
00
00
ENDCHAR
STARTCHAR Z
ENCODING 90
SWIDTH 500 0
DWIDTH 8 0
BBX 8 14 0 -3
BITMAP
00
00
7F
01
02
04
08
10
20
40
7F
00
00
00
ENDCHAR
STARTCHAR bracketleft
ENCODING 91
SWIDTH 500 0
DWIDTH 8 0
BBX 8 14 0 -3
BITMAP
00
1E
10
10
10
10
10
10
10
10
10
1E
00
00
ENDCHAR
STARTCHAR backslash
ENCODING 92
SWIDTH 500 0
DWIDTH 8 0
BBX 8 14 0 -3
BITMAP
00
00
00
40
20
10
08
04
02
01
00
00
00
00
ENDCHAR
STARTCHAR bracketright
ENCODING 93
SWIDTH 500 0
DWIDTH 8 0
BBX 8 14 0 -3
BITMAP
00
1E
02
02
02
02
02
02
02
02
02
1E
00
00
ENDCHAR
STARTCHAR asciicircum
ENCODING 94
SWIDTH 500 0
DWIDTH 8 0
BBX 8 14 0 -3
BITMAP
00
00
08
14
22
00
00
00
00
00
00
00
00
00
ENDCHAR
STARTCHAR underscore
ENCODING 95
SWIDTH 500 0
DWIDTH 8 0
BBX 8 14 0 -3
BITMAP
00
00
00
00
00
00
00
00
00
00
00
00
3F
00
ENDCHAR
STARTCHAR grave
ENCODING 96
SWIDTH 500 0
DWIDTH 8 0
BBX 8 14 0 -3
BITMAP
00
00
18
10
08
00
00
00
00
00
00
00
00
00
ENDCHAR
STARTCHAR a
ENCODING 97
SWIDTH 500 0
DWIDTH 8 0
BBX 8 14 0 -3
BITMAP
00
00
00
00
00
1E
01
1F
21
23
1D
00
00
00
ENDCHAR
STARTCHAR b
ENCODING 98
SWIDTH 500 0
DWIDTH 8 0
BBX 8 14 0 -3
BITMAP
00
00
20
20
20
2E
31
21
21
31
2E
00
00
00
ENDCHAR
STARTCHAR c
ENCODING 99
SWIDTH 500 0
DWIDTH 8 0
BBX 8 14 0 -3
BITMAP
00
00
00
00
00
1E
21
20
20
21
1E
00
00
00
ENDCHAR
STARTCHAR d
ENCODING 100
SWIDTH 500 0
DWIDTH 8 0
BBX 8 14 0 -3
BITMAP
00
00
01
01
01
1D
23
21
21
23
1D
00
00
00
ENDCHAR
STARTCHAR e
ENCODING 101
SWIDTH 500 0
DWIDTH 8 0
BBX 8 14 0 -3
BITMAP
00
00
00
00
00
1E
21
3F
20
21
1E
00
00
00
ENDCHAR
STARTCHAR f
ENCODING 102
SWIDTH 500 0
DWIDTH 8 0
BBX 8 14 0 -3
BITMAP
00
00
06
09
08
3E
08
08
08
08
08
00
00
00
ENDCHAR
STARTCHAR g
ENCODING 103
SWIDTH 500 0
DWIDTH 8 0
BBX 8 14 0 -3
BITMAP
00
00
00
00
00
1D
23
21
21
23
1D
01
1E
00
ENDCHAR
STARTCHAR h
ENCODING 104
SWIDTH 500 0
DWIDTH 8 0
BBX 8 14 0 -3
BITMAP
00
00
20
20
20
2E
31
21
21
21
21
00
00
00
ENDCHAR
STARTCHAR i
ENCODING 105
SWIDTH 500 0
DWIDTH 8 0
BBX 8 14 0 -3
BITMAP
00
00
08
08
00
18
08
08
08
08
3E
00
00
00
ENDCHAR
STARTCHAR j
ENCODING 106
SWIDTH 500 0
DWIDTH 8 0
BBX 8 14 0 -3
BITMAP
00
00
02
02
00
06
02
02
02
02
02
12
0C
00
ENDCHAR
STARTCHAR k
ENCODING 107
SWIDTH 500 0
DWIDTH 8 0
BBX 8 14 0 -3
BITMAP
00
00
20
20
20
22
24
28
34
22
21
00
00
00
ENDCHAR
STARTCHAR l
ENCODING 108
SWIDTH 500 0
DWIDTH 8 0
BBX 8 14 0 -3
BITMAP
00
00
18
08
08
08
08
08
08
08
3E
00
00
00
ENDCHAR
STARTCHAR m
ENCODING 109
SWIDTH 500 0
DWIDTH 8 0
BBX 8 14 0 -3
BITMAP
00
00
00
00
00
7E
49
49
49
49
49
00
00
00
ENDCHAR
STARTCHAR n
ENCODING 110
SWIDTH 500 0
DWIDTH 8 0
BBX 8 14 0 -3
BITMAP
00
00
00
00
00
2E
31
21
21
21
21
00
00
00
ENDCHAR
STARTCHAR o
ENCODING 111
SWIDTH 500 0
DWIDTH 8 0
BBX 8 14 0 -3
BITMAP
00
00
00
00
00
1E
21
21
21
21
1E
00
00
00
ENDCHAR
STARTCHAR p
ENCODING 112
SWIDTH 500 0
DWIDTH 8 0
BBX 8 14 0 -3
BITMAP
00
00
00
00
00
2E
31
21
21
31
2E
20
20
00
ENDCHAR
STARTCHAR q
ENCODING 113
SWIDTH 500 0
DWIDTH 8 0
BBX 8 14 0 -3
BITMAP
00
00
00
00
00
1D
23
21
21
23
1D
01
01
00
ENDCHAR
STARTCHAR r
ENCODING 114
SWIDTH 500 0
DWIDTH 8 0
BBX 8 14 0 -3
BITMAP
00
00
00
00
00
2C
32
20
20
20
20
00
00
00
ENDCHAR
STARTCHAR s
ENCODING 115
SWIDTH 500 0
DWIDTH 8 0
BBX 8 14 0 -3
BITMAP
00
00
00
00
00
1E
21
18
06
21
1E
00
00
00
ENDCHAR
STARTCHAR t
ENCODING 116
SWIDTH 500 0
DWIDTH 8 0
BBX 8 14 0 -3
BITMAP
00
00
08
08
08
3E
08
08
08
09
06
00
00
00
ENDCHAR
STARTCHAR u
ENCODING 117
SWIDTH 500 0
DWIDTH 8 0
BBX 8 14 0 -3
BITMAP
00
00
00
00
00
21
21
21
21
23
1D
00
00
00
ENDCHAR
STARTCHAR v
ENCODING 118
SWIDTH 500 0
DWIDTH 8 0
BBX 8 14 0 -3
BITMAP
00
00
00
00
00
41
41
41
22
14
08
00
00
00
ENDCHAR
STARTCHAR w
ENCODING 119
SWIDTH 500 0
DWIDTH 8 0
BBX 8 14 0 -3
BITMAP
00
00
00
00
00
41
49
49
55
22
22
00
00
00
ENDCHAR
STARTCHAR x
ENCODING 120
SWIDTH 500 0
DWIDTH 8 0
BBX 8 14 0 -3
BITMAP
00
00
00
00
00
21
12
0C
0C
12
21
00
00
00
ENDCHAR
STARTCHAR y
ENCODING 121
SWIDTH 500 0
DWIDTH 8 0
BBX 8 14 0 -3
BITMAP
00
00
00
00
00
21
21
21
21
23
1D
01
1E
00
ENDCHAR
STARTCHAR z
ENCODING 122
SWIDTH 500 0
DWIDTH 8 0
BBX 8 14 0 -3
BITMAP
00
00
00
00
00
3F
02
04
08
10
3F
00
00
00
ENDCHAR
STARTCHAR braceleft
ENCODING 123
SWIDTH 500 0
DWIDTH 8 0
BBX 8 14 0 -3
BITMAP
00
06
08
08
08
08
30
08
08
08
08
06
00
00
ENDCHAR
STARTCHAR bar
ENCODING 124
SWIDTH 500 0
DWIDTH 8 0
BBX 8 14 0 -3
BITMAP
00
00
08
08
08
08
08
08
08
08
08
00
00
00
ENDCHAR
STARTCHAR braceright
ENCODING 125
SWIDTH 500 0
DWIDTH 8 0
BBX 8 14 0 -3
BITMAP
00
30
08
08
08
08
06
08
08
08
08
30
00
00
ENDCHAR
STARTCHAR asciitilde
ENCODING 126
SWIDTH 500 0
DWIDTH 8 0
BBX 8 14 0 -3
BITMAP
00
00
00
00
00
32
4C
00
00
00
00
00
00
00
ENDCHAR
STARTCHAR uni007F
ENCODING 127
SWIDTH 500 0
DWIDTH 8 0
BBX 8 14 0 -3
BITMAP
00
00
00
00
08
08
14
14
22
22
41
41
7F
00
ENDCHAR
STARTCHAR uni00A0
ENCODING 160
SWIDTH 500 0
DWIDTH 8 0
BBX 8 14 0 -3
BITMAP
00
00
00
00
00
00
00
00
00
00
00
00
00
00
ENDCHAR
STARTCHAR exclamdown
ENCODING 161
SWIDTH 500 0
DWIDTH 8 0
BBX 8 14 0 -3
BITMAP
00
00
00
08
08
00
08
08
08
08
08
08
00
00
ENDCHAR
STARTCHAR cent
ENCODING 162
SWIDTH 500 0
DWIDTH 8 0
BBX 8 14 0 -3
BITMAP
00
00
04
04
0E
11
20
20
11
0E
04
04
00
00
ENDCHAR
STARTCHAR sterling
ENCODING 163
SWIDTH 500 0
DWIDTH 8 0
BBX 8 14 0 -3
BITMAP
00
00
0E
10
10
38
10
38
10
11
3E
00
00
00
ENDCHAR
STARTCHAR yen
ENCODING 165
SWIDTH 500 0
DWIDTH 8 0
BBX 8 14 0 -3
BITMAP
00
00
41
22
14
14
7F
08
7F
08
08
00
00
00
ENDCHAR
STARTCHAR section
ENCODING 167
SWIDTH 500 0
DWIDTH 8 0
BBX 8 14 0 -3
BITMAP
00
0C
12
10
0C
12
21
21
12
0C
02
12
0C
00
ENDCHAR
STARTCHAR ordfeminine
ENCODING 170
SWIDTH 500 0
DWIDTH 8 0
BBX 8 14 0 -3
BITMAP
00
00
1E
01
1F
21
23
1D
00
00
3F
00
00
00
ENDCHAR
STARTCHAR guillemotleft
ENCODING 171
SWIDTH 500 0
DWIDTH 8 0
BBX 8 14 0 -3
BITMAP
00
00
00
00
00
12
24
48
24
12
00
00
00
00
ENDCHAR
STARTCHAR logicalnot
ENCODING 172
SWIDTH 500 0
DWIDTH 8 0
BBX 8 14 0 -3
BITMAP
00
00
00
00
00
7F
01
01
01
00
00
00
00
00
ENDCHAR
STARTCHAR degree
ENCODING 176
SWIDTH 500 0
DWIDTH 8 0
BBX 8 14 0 -3
BITMAP
00
1C
22
22
1C
00
00
00
00
00
00
00
00
00
ENDCHAR
STARTCHAR plusminus
ENCODING 177
SWIDTH 500 0
DWIDTH 8 0
BBX 8 14 0 -3
BITMAP
00
00
00
08
08
3E
08
08
00
3E
00
00
00
00
ENDCHAR
STARTCHAR uni00B2
ENCODING 178
SWIDTH 500 0
DWIDTH 8 0
BBX 8 14 0 -3
BITMAP
00
3C
02
02
1C
20
3E
00
00
00
00
00
00
00
ENDCHAR
STARTCHAR mu
ENCODING 181
SWIDTH 500 0
DWIDTH 8 0
BBX 8 14 0 -3
BITMAP
00
00
00
00
22
22
22
22
22
22
3D
20
40
00
ENDCHAR
STARTCHAR paragraph
ENCODING 182
SWIDTH 500 0
DWIDTH 8 0
BBX 8 14 0 -3
BITMAP
00
00
3F
7A
7A
7A
3A
0A
0A
0A
0A
00
00
00
ENDCHAR
STARTCHAR periodcentered
ENCODING 183
SWIDTH 500 0
DWIDTH 8 0
BBX 8 14 0 -3
BITMAP
00
00
00
00
00
00
00
18
00
00
00
00
00
00
ENDCHAR
STARTCHAR ordmasculine
ENCODING 186
SWIDTH 500 0
DWIDTH 8 0
BBX 8 14 0 -3
BITMAP
00
00
1E
21
21
21
21
1E
00
00
3F
00
00
00
ENDCHAR
STARTCHAR guillemotright
ENCODING 187
SWIDTH 500 0
DWIDTH 8 0
BBX 8 14 0 -3
BITMAP
00
00
00
00
00
48
24
12
24
48
00
00
00
00
ENDCHAR
STARTCHAR onequarter
ENCODING 188
SWIDTH 500 0
DWIDTH 8 0
BBX 8 14 0 -3
BITMAP
08
18
08
08
08
00
7F
00
0C
14
24
7E
04
00
ENDCHAR
STARTCHAR onehalf
ENCODING 189
SWIDTH 500 0
DWIDTH 8 0
BBX 8 14 0 -3
BITMAP
04
0C
04
04
04
00
3F
00
0C
12
04
08
1E
00
ENDCHAR
STARTCHAR questiondown
ENCODING 191
SWIDTH 500 0
DWIDTH 8 0
BBX 8 14 0 -3
BITMAP
00
00
00
04
04
00
04
08
10
21
21
1E
00
00
ENDCHAR
STARTCHAR Adieresis
ENCODING 196
SWIDTH 500 0
DWIDTH 8 0
BBX 8 14 0 -3
BITMAP
12
12
00
0C
12
21
21
3F
21
21
21
00
00
00
ENDCHAR
STARTCHAR Aring
ENCODING 197
SWIDTH 500 0
DWIDTH 8 0
BBX 8 14 0 -3
BITMAP
0C
12
0C
00
0C
12
21
3F
21
21
21
00
00
00
ENDCHAR
STARTCHAR AE
ENCODING 198
SWIDTH 500 0
DWIDTH 8 0
BBX 8 14 0 -3
BITMAP
00
00
1F
24
24
24
3F
24
24
24
27
00
00
00
ENDCHAR
STARTCHAR Ccedilla
ENCODING 199
SWIDTH 500 0
DWIDTH 8 0
BBX 8 14 0 -3
BITMAP
00
00
0E
11
20
20
20
20
20
11
0E
04
0C
00
ENDCHAR
STARTCHAR Eacute
ENCODING 201
SWIDTH 500 0
DWIDTH 8 0
BBX 8 14 0 -3
BITMAP
02
04
00
3F
20
20
3E
20
20
20
3F
00
00
00
ENDCHAR
STARTCHAR Ntilde
ENCODING 209
SWIDTH 500 0
DWIDTH 8 0
BBX 8 14 0 -3
BITMAP
19
26
00
21
21
31
29
25
23
21
21
00
00
00
ENDCHAR
STARTCHAR Odieresis
ENCODING 214
SWIDTH 500 0
DWIDTH 8 0
BBX 8 14 0 -3
BITMAP
12
12
00
1E
21
21
21
21
21
21
1E
00
00
00
ENDCHAR
STARTCHAR Udieresis
ENCODING 220
SWIDTH 500 0
DWIDTH 8 0
BBX 8 14 0 -3
BITMAP
12
12
00
21
21
21
21
21
21
21
1E
00
00
00
ENDCHAR
STARTCHAR germandbls
ENCODING 223
SWIDTH 500 0
DWIDTH 8 0
BBX 8 14 0 -3
BITMAP
00
00
1E
21
21
22
24
22
21
21
2E
20
20
00
ENDCHAR
STARTCHAR agrave
ENCODING 224
SWIDTH 500 0
DWIDTH 8 0
BBX 8 14 0 -3
BITMAP
00
00
10
08
00
1E
01
1F
21
23
1D
00
00
00
ENDCHAR
STARTCHAR aacute
ENCODING 225
SWIDTH 500 0
DWIDTH 8 0
BBX 8 14 0 -3
BITMAP
00
00
02
04
00
1E
01
1F
21
23
1D
00
00
00
ENDCHAR
STARTCHAR acircumflex
ENCODING 226
SWIDTH 500 0
DWIDTH 8 0
BBX 8 14 0 -3
BITMAP
00
00
0C
12
00
1E
01
1F
21
23
1D
00
00
00
ENDCHAR
STARTCHAR adieresis
ENCODING 228
SWIDTH 500 0
DWIDTH 8 0
BBX 8 14 0 -3
BITMAP
00
00
12
12
00
1E
01
1F
21
23
1D
00
00
00
ENDCHAR
STARTCHAR aring
ENCODING 229
SWIDTH 500 0
DWIDTH 8 0
BBX 8 14 0 -3
BITMAP
00
00
0C
12
0C
1E
01
1F
21
23
1D
00
00
00
ENDCHAR
STARTCHAR ae
ENCODING 230
SWIDTH 500 0
DWIDTH 8 0
BBX 8 14 0 -3
BITMAP
00
00
00
00
00
3E
05
1F
24
24
1B
00
00
00
ENDCHAR
STARTCHAR ccedilla
ENCODING 231
SWIDTH 500 0
DWIDTH 8 0
BBX 8 14 0 -3
BITMAP
00
00
00
00
00
0E
11
20
20
11
0E
04
0C
00
ENDCHAR
STARTCHAR egrave
ENCODING 232
SWIDTH 500 0
DWIDTH 8 0
BBX 8 14 0 -3
BITMAP
00
00
10
08
00
1E
21
3F
20
21
1E
00
00
00
ENDCHAR
STARTCHAR eacute
ENCODING 233
SWIDTH 500 0
DWIDTH 8 0
BBX 8 14 0 -3
BITMAP
00
00
02
04
00
1E
21
3F
20
21
1E
00
00
00
ENDCHAR
STARTCHAR ecircumflex
ENCODING 234
SWIDTH 500 0
DWIDTH 8 0
BBX 8 14 0 -3
BITMAP
00
00
0C
12
00
1E
21
3F
20
21
1E
00
00
00
ENDCHAR
STARTCHAR edieresis
ENCODING 235
SWIDTH 500 0
DWIDTH 8 0
BBX 8 14 0 -3
BITMAP
00
00
12
12
00
1E
21
3F
20
21
1E
00
00
00
ENDCHAR
STARTCHAR igrave
ENCODING 236
SWIDTH 500 0
DWIDTH 8 0
BBX 8 14 0 -3
BITMAP
00
00
10
08
00
18
08
08
08
08
3E
00
00
00
ENDCHAR
STARTCHAR iacute
ENCODING 237
SWIDTH 500 0
DWIDTH 8 0
BBX 8 14 0 -3
BITMAP
00
00
04
08
00
18
08
08
08
08
3E
00
00
00
ENDCHAR
STARTCHAR icircumflex
ENCODING 238
SWIDTH 500 0
DWIDTH 8 0
BBX 8 14 0 -3
BITMAP
00
00
18
24
00
18
08
08
08
08
3E
00
00
00
ENDCHAR
STARTCHAR idieresis
ENCODING 239
SWIDTH 500 0
DWIDTH 8 0
BBX 8 14 0 -3
BITMAP
00
00
22
22
00
18
08
08
08
08
3E
00
00
00
ENDCHAR
STARTCHAR ntilde
ENCODING 241
SWIDTH 500 0
DWIDTH 8 0
BBX 8 14 0 -3
BITMAP
00
00
19
26
00
2E
31
21
21
21
21
00
00
00
ENDCHAR
STARTCHAR ograve
ENCODING 242
SWIDTH 500 0
DWIDTH 8 0
BBX 8 14 0 -3
BITMAP
00
00
10
08
00
1E
21
21
21
21
1E
00
00
00
ENDCHAR
STARTCHAR oacute
ENCODING 243
SWIDTH 500 0
DWIDTH 8 0
BBX 8 14 0 -3
BITMAP
00
00
02
04
00
1E
21
21
21
21
1E
00
00
00
ENDCHAR
STARTCHAR ocircumflex
ENCODING 244
SWIDTH 500 0
DWIDTH 8 0
BBX 8 14 0 -3
BITMAP
00
00
0C
12
00
1E
21
21
21
21
1E
00
00
00
ENDCHAR
STARTCHAR odieresis
ENCODING 246
SWIDTH 500 0
DWIDTH 8 0
BBX 8 14 0 -3
BITMAP
00
00
12
12
00
1E
21
21
21
21
1E
00
00
00
ENDCHAR
STARTCHAR divide
ENCODING 247
SWIDTH 500 0
DWIDTH 8 0
BBX 8 14 0 -3
BITMAP
00
00
00
18
18
00
7E
00
18
18
00
00
00
00
ENDCHAR
STARTCHAR ugrave
ENCODING 249
SWIDTH 500 0
DWIDTH 8 0
BBX 8 14 0 -3
BITMAP
00
00
10
08
00
21
21
21
21
23
1D
00
00
00
ENDCHAR
STARTCHAR uacute
ENCODING 250
SWIDTH 500 0
DWIDTH 8 0
BBX 8 14 0 -3
BITMAP
00
00
02
04
00
21
21
21
21
23
1D
00
00
00
ENDCHAR
STARTCHAR ucircumflex
ENCODING 251
SWIDTH 500 0
DWIDTH 8 0
BBX 8 14 0 -3
BITMAP
00
00
0C
12
00
21
21
21
21
23
1D
00
00
00
ENDCHAR
STARTCHAR udieresis
ENCODING 252
SWIDTH 500 0
DWIDTH 8 0
BBX 8 14 0 -3
BITMAP
00
00
12
12
00
21
21
21
21
23
1D
00
00
00
ENDCHAR
STARTCHAR ydieresis
ENCODING 255
SWIDTH 500 0
DWIDTH 8 0
BBX 8 14 0 -3
BITMAP
00
00
12
12
00
21
21
21
21
23
1D
01
3E
00
ENDCHAR
STARTCHAR florin
ENCODING 402
SWIDTH 500 0
DWIDTH 8 0
BBX 8 14 0 -3
BITMAP
00
00
07
08
08
08
3E
08
08
08
48
30
00
00
ENDCHAR
STARTCHAR Gamma
ENCODING 915
SWIDTH 500 0
DWIDTH 8 0
BBX 8 14 0 -3
BITMAP
00
00
7F
41
41
40
40
40
40
40
40
00
00
00
ENDCHAR
STARTCHAR Theta
ENCODING 920
SWIDTH 500 0
DWIDTH 8 0
BBX 8 14 0 -3
BITMAP
00
00
1C
22
41
41
7F
41
41
22
1C
00
00
00
ENDCHAR
STARTCHAR Sigma
ENCODING 931
SWIDTH 500 0
DWIDTH 8 0
BBX 8 14 0 -3
BITMAP
00
00
7F
21
10
08
04
08
10
21
7F
00
00
00
ENDCHAR
STARTCHAR Phi
ENCODING 934
SWIDTH 500 0
DWIDTH 8 0
BBX 8 14 0 -3
BITMAP
00
00
3E
08
1C
2A
49
2A
1C
08
3E
00
00
00
ENDCHAR
STARTCHAR uni03A9
ENCODING 937
SWIDTH 500 0
DWIDTH 8 0
BBX 8 14 0 -3
BITMAP
00
00
1C
22
41
41
41
41
22
14
77
00
00
00
ENDCHAR
STARTCHAR alpha
ENCODING 945
SWIDTH 500 0
DWIDTH 8 0
BBX 8 14 0 -3
BITMAP
00
00
00
00
19
25
42
42
42
25
19
00
00
00
ENDCHAR
STARTCHAR delta
ENCODING 948
SWIDTH 500 0
DWIDTH 8 0
BBX 8 14 0 -3
BITMAP
00
00
1C
20
20
10
38
44
42
42
3C
00
00
00
ENDCHAR
STARTCHAR epsilon
ENCODING 949
SWIDTH 500 0
DWIDTH 8 0
BBX 8 14 0 -3
BITMAP
00
00
1F
20
40
40
7F
40
40
20
1F
00
00
00
ENDCHAR
STARTCHAR pi
ENCODING 960
SWIDTH 500 0
DWIDTH 8 0
BBX 8 14 0 -3
BITMAP
00
00
00
00
3F
54
14
14
14
14
22
00
00
00
ENDCHAR
STARTCHAR sigma
ENCODING 963
SWIDTH 500 0
DWIDTH 8 0
BBX 8 14 0 -3
BITMAP
00
00
00
00
1F
24
42
42
42
24
18
00
00
00
ENDCHAR
STARTCHAR tau
ENCODING 964
SWIDTH 500 0
DWIDTH 8 0
BBX 8 14 0 -3
BITMAP
00
00
00
00
3F
48
08
08
08
08
04
00
00
00
ENDCHAR
STARTCHAR phi
ENCODING 966
SWIDTH 500 0
DWIDTH 8 0
BBX 8 14 0 -3
BITMAP
00
00
01
02
3E
45
49
51
3E
20
40
00
00
00
ENDCHAR
STARTCHAR bullet
ENCODING 8226
SWIDTH 500 0
DWIDTH 8 0
BBX 8 14 0 -3
BITMAP
00
00
00
00
00
18
3C
3C
18
00
00
00
00
00
ENDCHAR
STARTCHAR exclamdbl
ENCODING 8252
SWIDTH 500 0
DWIDTH 8 0
BBX 8 14 0 -3
BITMAP
00
00
24
24
24
24
24
24
00
24
24
00
00
00
ENDCHAR
STARTCHAR uni207F
ENCODING 8319
SWIDTH 500 0
DWIDTH 8 0
BBX 8 14 0 -3
BITMAP
00
00
00
00
40
2E
11
11
11
11
11
01
01
00
ENDCHAR
STARTCHAR peseta
ENCODING 8359
SWIDTH 500 0
DWIDTH 8 0
BBX 8 14 0 -3
BITMAP
00
78
44
44
78
44
5F
44
44
45
42
00
00
00
ENDCHAR
STARTCHAR arrowleft
ENCODING 8592
SWIDTH 500 0
DWIDTH 8 0
BBX 8 14 0 -3
BITMAP
00
00
00
00
10
30
7F
30
10
00
00
00
00
00
ENDCHAR
STARTCHAR arrowup
ENCODING 8593
SWIDTH 500 0
DWIDTH 8 0
BBX 8 14 0 -3
BITMAP
00
00
10
38
7C
10
10
10
10
10
10
00
00
00
ENDCHAR
STARTCHAR arrowright
ENCODING 8594
SWIDTH 500 0
DWIDTH 8 0
BBX 8 14 0 -3
BITMAP
00
00
00
00
04
06
7F
06
04
00
00
00
00
00
ENDCHAR
STARTCHAR arrowdown
ENCODING 8595
SWIDTH 500 0
DWIDTH 8 0
BBX 8 14 0 -3
BITMAP
00
00
10
10
10
10
10
10
7C
38
10
00
00
00
ENDCHAR
STARTCHAR arrowboth
ENCODING 8596
SWIDTH 500 0
DWIDTH 8 0
BBX 8 14 0 -3
BITMAP
00
00
00
00
14
36
7F
36
14
00
00
00
00
00
ENDCHAR
STARTCHAR arrowupdn
ENCODING 8597
SWIDTH 500 0
DWIDTH 8 0
BBX 8 14 0 -3
BITMAP
00
00
10
38
7C
10
10
10
7C
38
10
00
00
00
ENDCHAR
STARTCHAR arrowupdnbse
ENCODING 8616
SWIDTH 500 0
DWIDTH 8 0
BBX 8 14 0 -3
BITMAP
00
00
10
38
7C
10
10
10
7C
38
10
7C
00
00
ENDCHAR
STARTCHAR uni2219
ENCODING 8729
SWIDTH 500 0
DWIDTH 8 0
BBX 8 14 0 -3
BITMAP
00
00
00
00
00
00
18
18
00
00
00
00
00
00
ENDCHAR
STARTCHAR radical
ENCODING 8730
SWIDTH 500 0
DWIDTH 8 0
BBX 8 14 0 -3
BITMAP
00
0F
08
08
08
08
08
08
48
28
18
00
00
00
ENDCHAR
STARTCHAR infinity
ENCODING 8734
SWIDTH 500 0
DWIDTH 8 0
BBX 8 14 0 -3
BITMAP
00
00
00
00
00
36
49
49
36
00
00
00
00
00
ENDCHAR
STARTCHAR orthogonal
ENCODING 8735
SWIDTH 500 0
DWIDTH 8 0
BBX 8 14 0 -3
BITMAP
00
00
00
00
00
40
40
40
7F
00
00
00
00
00
ENDCHAR
STARTCHAR intersection
ENCODING 8745
SWIDTH 500 0
DWIDTH 8 0
BBX 8 14 0 -3
BITMAP
00
00
1C
22
41
41
41
41
41
41
41
00
00
00
ENDCHAR
STARTCHAR approxequal
ENCODING 8776
SWIDTH 500 0
DWIDTH 8 0
BBX 8 14 0 -3
BITMAP
00
00
00
10
2A
04
00
10
2A
04
00
00
00
00
ENDCHAR
STARTCHAR equivalence
ENCODING 8801
SWIDTH 500 0
DWIDTH 8 0
BBX 8 14 0 -3
BITMAP
00
00
00
7F
00
00
7F
00
00
7F
00
00
00
00
ENDCHAR
STARTCHAR lessequal
ENCODING 8804
SWIDTH 500 0
DWIDTH 8 0
BBX 8 14 0 -3
BITMAP
00
00
04
08
10
20
10
08
04
00
3C
00
00
00
ENDCHAR
STARTCHAR greaterequal
ENCODING 8805
SWIDTH 500 0
DWIDTH 8 0
BBX 8 14 0 -3
BITMAP
00
00
20
10
08
04
08
10
20
00
3C
00
00
00
ENDCHAR
STARTCHAR house
ENCODING 8962
SWIDTH 500 0
DWIDTH 8 0
BBX 8 14 0 -3
BITMAP
00
00
00
00
08
08
14
14
22
22
41
41
7F
00
ENDCHAR
STARTCHAR revlogicalnot
ENCODING 8976
SWIDTH 500 0
DWIDTH 8 0
BBX 8 14 0 -3
BITMAP
00
00
00
00
00
7F
40
40
40
00
00
00
00
00
ENDCHAR
STARTCHAR integraltp
ENCODING 8992
SWIDTH 500 0
DWIDTH 8 0
BBX 8 14 0 -3
BITMAP
00
00
0E
1B
1B
18
18
18
18
18
18
18
18
18
ENDCHAR
STARTCHAR integralbt
ENCODING 8993
SWIDTH 500 0
DWIDTH 8 0
BBX 8 14 0 -3
BITMAP
18
18
18
18
18
18
18
18
D8
D8
70
00
00
00
ENDCHAR
STARTCHAR SF100000
ENCODING 9472
SWIDTH 500 0
DWIDTH 8 0
BBX 8 14 0 -3
BITMAP
00
00
00
00
00
00
00
FF
00
00
00
00
00
00
ENDCHAR
STARTCHAR SF110000
ENCODING 9474
SWIDTH 500 0
DWIDTH 8 0
BBX 1 16 3 -5
BITMAP
80
80
80
80
80
80
80
80
80
80
80
80
80
80
80
80
ENDCHAR
STARTCHAR SF010000
ENCODING 9484
SWIDTH 500 0
DWIDTH 8 0
BBX 5 9 3 -5
BITMAP
F8
80
80
80
80
80
80
80
80
ENDCHAR
STARTCHAR SF030000
ENCODING 9488
SWIDTH 500 0
DWIDTH 8 0
BBX 4 9 0 -5
BITMAP
F0
10
10
10
10
10
10
10
10
ENDCHAR
STARTCHAR SF020000
ENCODING 9492
SWIDTH 500 0
DWIDTH 8 0
BBX 5 8 3 3
BITMAP
80
80
80
80
80
80
80
F8
ENDCHAR
STARTCHAR SF040000
ENCODING 9496
SWIDTH 500 0
DWIDTH 8 0
BBX 4 8 0 3
BITMAP
10
10
10
10
10
10
10
F0
ENDCHAR
STARTCHAR SF080000
ENCODING 9500
SWIDTH 500 0
DWIDTH 8 0
BBX 5 16 3 -5
BITMAP
80
80
80
80
80
80
80
F8
80
80
80
80
80
80
80
80
ENDCHAR
STARTCHAR SF090000
ENCODING 9508
SWIDTH 500 0
DWIDTH 8 0
BBX 4 16 0 -5
BITMAP
10
10
10
10
10
10
10
F0
10
10
10
10
10
10
10
10
ENDCHAR
STARTCHAR SF060000
ENCODING 9516
SWIDTH 500 0
DWIDTH 8 0
BBX 8 9 0 -5
BITMAP
FF
10
10
10
10
10
10
10
10
ENDCHAR
STARTCHAR SF070000
ENCODING 9524
SWIDTH 500 0
DWIDTH 8 0
BBX 8 8 0 3
BITMAP
10
10
10
10
10
10
10
FF
ENDCHAR
STARTCHAR SF050000
ENCODING 9532
SWIDTH 500 0
DWIDTH 8 0
BBX 8 16 0 -5
BITMAP
10
10
10
10
10
10
10
FF
10
10
10
10
10
10
10
10
ENDCHAR
STARTCHAR SF430000
ENCODING 9552
SWIDTH 500 0
DWIDTH 8 0
BBX 8 4 0 1
BITMAP
FF
00
00
FF
ENDCHAR
STARTCHAR SF240000
ENCODING 9553
SWIDTH 500 0
DWIDTH 8 0
BBX 4 16 2 -5
BITMAP
90
90
90
90
90
90
90
90
90
90
90
90
90
90
90
90
ENDCHAR
STARTCHAR SF510000
ENCODING 9554
SWIDTH 500 0
DWIDTH 8 0
BBX 5 10 3 -5
BITMAP
F8
80
80
F8
80
80
80
80
80
80
ENDCHAR
STARTCHAR SF520000
ENCODING 9555
SWIDTH 500 0
DWIDTH 8 0
BBX 6 9 2 -5
BITMAP
FC
90
90
90
90
90
90
90
90
ENDCHAR
STARTCHAR SF390000
ENCODING 9556
SWIDTH 500 0
DWIDTH 8 0
BBX 6 10 2 -5
BITMAP
FC
80
80
9C
90
90
90
90
90
90
ENDCHAR
STARTCHAR SF220000
ENCODING 9557
SWIDTH 500 0
DWIDTH 8 0
BBX 4 10 0 -5
BITMAP
F0
10
10
F0
10
10
10
10
10
10
ENDCHAR
STARTCHAR SF210000
ENCODING 9558
SWIDTH 500 0
DWIDTH 8 0
BBX 6 9 0 -5
BITMAP
FC
24
24
24
24
24
24
24
24
ENDCHAR
STARTCHAR SF250000
ENCODING 9559
SWIDTH 500 0
DWIDTH 8 0
BBX 6 10 0 -5
BITMAP
FC
04
04
E4
24
24
24
24
24
24
ENDCHAR
STARTCHAR SF500000
ENCODING 9560
SWIDTH 500 0
DWIDTH 8 0
BBX 5 10 3 1
BITMAP
80
80
80
80
80
80
F8
80
80
F8
ENDCHAR
STARTCHAR SF490000
ENCODING 9561
SWIDTH 500 0
DWIDTH 8 0
BBX 6 8 2 3
BITMAP
90
90
90
90
90
90
90
FC
ENDCHAR
STARTCHAR SF380000
ENCODING 9562
SWIDTH 500 0
DWIDTH 8 0
BBX 6 10 2 1
BITMAP
90
90
90
90
90
90
9C
80
80
FC
ENDCHAR
STARTCHAR SF280000
ENCODING 9563
SWIDTH 500 0
DWIDTH 8 0
BBX 4 10 0 1
BITMAP
10
10
10
10
10
10
F0
10
10
F0
ENDCHAR
STARTCHAR SF270000
ENCODING 9564
SWIDTH 500 0
DWIDTH 8 0
BBX 6 8 0 3
BITMAP
24
24
24
24
24
24
24
FC
ENDCHAR
STARTCHAR SF260000
ENCODING 9565
SWIDTH 500 0
DWIDTH 8 0
BBX 6 10 0 1
BITMAP
24
24
24
24
24
24
E4
04
04
FC
ENDCHAR
STARTCHAR SF360000
ENCODING 9566
SWIDTH 500 0
DWIDTH 8 0
BBX 5 16 3 -5
BITMAP
80
80
80
80
80
80
F8
80
80
F8
80
80
80
80
80
80
ENDCHAR
STARTCHAR SF370000
ENCODING 9567
SWIDTH 500 0
DWIDTH 8 0
BBX 6 16 2 -5
BITMAP
90
90
90
90
90
90
90
9C
90
90
90
90
90
90
90
90
ENDCHAR
STARTCHAR SF420000
ENCODING 9568
SWIDTH 500 0
DWIDTH 8 0
BBX 6 16 2 -5
BITMAP
90
90
90
90
90
90
9C
80
80
9C
90
90
90
90
90
90
ENDCHAR
STARTCHAR SF190000
ENCODING 9569
SWIDTH 500 0
DWIDTH 8 0
BBX 4 16 0 -5
BITMAP
10
10
10
10
10
10
F0
10
10
F0
10
10
10
10
10
10
ENDCHAR
STARTCHAR SF200000
ENCODING 9570
SWIDTH 500 0
DWIDTH 8 0
BBX 6 16 0 -5
BITMAP
24
24
24
24
24
24
24
E4
24
24
24
24
24
24
24
24
ENDCHAR
STARTCHAR SF230000
ENCODING 9571
SWIDTH 500 0
DWIDTH 8 0
BBX 6 16 0 -5
BITMAP
24
24
24
24
24
24
E4
04
04
E4
24
24
24
24
24
24
ENDCHAR
STARTCHAR SF470000
ENCODING 9572
SWIDTH 500 0
DWIDTH 8 0
BBX 8 10 0 -5
BITMAP
FF
00
00
FF
10
10
10
10
10
10
ENDCHAR
STARTCHAR SF480000
ENCODING 9573
SWIDTH 500 0
DWIDTH 8 0
BBX 8 9 0 -5
BITMAP
FF
24
24
24
24
24
24
24
24
ENDCHAR
STARTCHAR SF410000
ENCODING 9574
SWIDTH 500 0
DWIDTH 8 0
BBX 8 10 0 -5
BITMAP
FF
00
00
E7
24
24
24
24
24
24
ENDCHAR
STARTCHAR SF450000
ENCODING 9575
SWIDTH 500 0
DWIDTH 8 0
BBX 8 10 0 1
BITMAP
10
10
10
10
10
10
FF
00
00
FF
ENDCHAR
STARTCHAR SF460000
ENCODING 9576
SWIDTH 500 0
DWIDTH 8 0
BBX 8 8 0 3
BITMAP
24
24
24
24
24
24
24
FF
ENDCHAR
STARTCHAR SF400000
ENCODING 9577
SWIDTH 500 0
DWIDTH 8 0
BBX 8 10 0 1
BITMAP
24
24
24
24
24
24
E7
00
00
FF
ENDCHAR
STARTCHAR SF540000
ENCODING 9578
SWIDTH 500 0
DWIDTH 8 0
BBX 8 16 0 -5
BITMAP
10
10
10
10
10
10
FF
00
00
FF
10
10
10
10
10
10
ENDCHAR
STARTCHAR SF530000
ENCODING 9579
SWIDTH 500 0
DWIDTH 8 0
BBX 8 16 0 -5
BITMAP
24
24
24
24
24
24
24
FF
24
24
24
24
24
24
24
24
ENDCHAR
STARTCHAR SF440000
ENCODING 9580
SWIDTH 500 0
DWIDTH 8 0
BBX 8 16 0 -5
BITMAP
24
24
24
24
24
24
E7
00
00
E7
24
24
24
24
24
24
ENDCHAR
STARTCHAR upblock
ENCODING 9600
SWIDTH 500 0
DWIDTH 8 0
BBX 8 7 0 4
BITMAP
FF
FF
FF
FF
FF
FF
FF
ENDCHAR
STARTCHAR dnblock
ENCODING 9604
SWIDTH 500 0
DWIDTH 8 0
BBX 8 9 0 -5
BITMAP
FF
FF
FF
FF
FF
FF
FF
FF
FF
ENDCHAR
STARTCHAR block
ENCODING 9608
SWIDTH 500 0
DWIDTH 8 0
BBX 8 16 0 -5
BITMAP
FF
FF
FF
FF
FF
FF
FF
FF
FF
FF
FF
FF
FF
FF
FF
FF
ENDCHAR
STARTCHAR lfblock
ENCODING 9612
SWIDTH 500 0
DWIDTH 8 0
BBX 4 16 0 -5
BITMAP
F0
F0
F0
F0
F0
F0
F0
F0
F0
F0
F0
F0
F0
F0
F0
F0
ENDCHAR
STARTCHAR rtblock
ENCODING 9616
SWIDTH 500 0
DWIDTH 8 0
BBX 4 16 4 -5
BITMAP
F0
F0
F0
F0
F0
F0
F0
F0
F0
F0
F0
F0
F0
F0
F0
F0
ENDCHAR
STARTCHAR ltshade
ENCODING 9617
SWIDTH 500 0
DWIDTH 8 0
BBX 7 15 0 -4
BITMAP
AA
00
AA
00
AA
00
AA
00
AA
00
AA
00
AA
00
AA
ENDCHAR
STARTCHAR shade
ENCODING 9618
SWIDTH 500 0
DWIDTH 8 0
BBX 8 16 0 -5
BITMAP
AA
55
AA
55
AA
55
AA
55
AA
55
AA
55
AA
55
AA
55
ENDCHAR
STARTCHAR dkshade
ENCODING 9619
SWIDTH 500 0
DWIDTH 8 0
BBX 6 16 1 -5
BITMAP
88
44
88
44
88
44
88
44
88
44
88
44
88
44
88
44
ENDCHAR
STARTCHAR filledbox
ENCODING 9632
SWIDTH 500 0
DWIDTH 8 0
BBX 5 6 2 1
BITMAP
F8
F8
F8
F8
F8
F8
ENDCHAR
STARTCHAR filledrect
ENCODING 9644
SWIDTH 500 0
DWIDTH 8 0
BBX 7 3 1 0
BITMAP
FE
FE
FE
ENDCHAR
STARTCHAR triagup
ENCODING 9650
SWIDTH 500 0
DWIDTH 8 0
BBX 7 7 1 1
BITMAP
10
38
38
7C
7C
FE
FE
ENDCHAR
STARTCHAR triagrt
ENCODING 9658
SWIDTH 500 0
DWIDTH 8 0
BBX 7 9 1 0
BITMAP
80
C0
E0
F8
FE
F8
E0
C0
80
ENDCHAR
STARTCHAR triagdn
ENCODING 9660
SWIDTH 500 0
DWIDTH 8 0
BBX 7 7 1 1
BITMAP
FE
FE
7C
7C
38
38
10
ENDCHAR
STARTCHAR triaglf
ENCODING 9668
SWIDTH 500 0
DWIDTH 8 0
BBX 7 9 1 0
BITMAP
02
06
0E
3E
FE
3E
0E
06
02
ENDCHAR
STARTCHAR circle
ENCODING 9675
SWIDTH 500 0
DWIDTH 8 0
BBX 6 6 1 1
BITMAP
78
CC
84
84
CC
78
ENDCHAR
STARTCHAR invbullet
ENCODING 9688
SWIDTH 500 0
DWIDTH 8 0
BBX 8 16 0 -5
BITMAP
FF
FF
FF
FF
FF
E7
C3
C3
E7
FF
FF
FF
FF
FF
FF
FF
ENDCHAR
STARTCHAR invcircle
ENCODING 9689
SWIDTH 500 0
DWIDTH 8 0
BBX 8 16 0 -5
BITMAP
FF
FF
FF
FF
C3
99
BD
BD
99
C3
FF
FF
FF
FF
FF
FF
ENDCHAR
STARTCHAR smileface
ENCODING 9786
SWIDTH 500 0
DWIDTH 8 0
BBX 8 9 0 0
BITMAP
7E
81
A5
81
81
BD
99
81
7E
ENDCHAR
STARTCHAR invsmileface
ENCODING 9787
SWIDTH 500 0
DWIDTH 8 0
BBX 8 9 0 0
BITMAP
7E
FF
DB
FF
FF
C3
E7
FF
7E
ENDCHAR
STARTCHAR sun
ENCODING 9788
SWIDTH 500 0
DWIDTH 8 0
BBX 7 9 1 0
BITMAP
10
92
54
28
C6
28
54
92
10
ENDCHAR
STARTCHAR female
ENCODING 9792
SWIDTH 500 0
DWIDTH 8 0
BBX 7 9 1 0
BITMAP
7C
82
82
82
7C
10
FE
10
10
ENDCHAR
STARTCHAR male
ENCODING 9794
SWIDTH 500 0
DWIDTH 8 0
BBX 7 9 1 0
BITMAP
0E
06
0A
10
7C
82
82
82
7C
ENDCHAR
STARTCHAR spade
ENCODING 9824
SWIDTH 500 0
DWIDTH 8 0
BBX 7 9 1 0
BITMAP
10
38
7C
FE
FE
7C
10
38
7C
ENDCHAR
STARTCHAR club
ENCODING 9827
SWIDTH 500 0
DWIDTH 8 0
BBX 7 9 1 0
BITMAP
38
38
10
D6
FE
D6
10
38
38
ENDCHAR
STARTCHAR heart
ENCODING 9829
SWIDTH 500 0
DWIDTH 8 0
BBX 7 8 1 0
BITMAP
6C
FE
FE
FE
FE
7C
38
10
ENDCHAR
STARTCHAR diamond
ENCODING 9830
SWIDTH 500 0
DWIDTH 8 0
BBX 7 7 1 1
BITMAP
10
38
7C
FE
7C
38
10
ENDCHAR
STARTCHAR musicalnote
ENCODING 9834
SWIDTH 500 0
DWIDTH 8 0
BBX 6 9 1 0
BITMAP
30
28
24
24
20
20
60
E0
60
ENDCHAR
STARTCHAR musicalnotedbl
ENCODING 9835
SWIDTH 500 0
DWIDTH 8 0
BBX 7 10 1 -1
BITMAP
3E
22
3E
22
22
22
26
6E
E4
40
ENDCHAR
STARTCHAR uni3044
ENCODING 12356
SWIDTH 500 0
DWIDTH 8 0
BBX 1 1 0 0
BITMAP
00
ENDCHAR
STARTCHAR uni3046
ENCODING 12358
SWIDTH 500 0
DWIDTH 8 0
BBX 1 1 0 0
BITMAP
00
ENDCHAR
STARTCHAR uni304B
ENCODING 12363
SWIDTH 500 0
DWIDTH 8 0
BBX 1 1 0 0
BITMAP
00
ENDCHAR
STARTCHAR uni3057
ENCODING 12375
SWIDTH 500 0
DWIDTH 8 0
BBX 1 1 0 0
BITMAP
00
ENDCHAR
STARTCHAR uni306E
ENCODING 12398
SWIDTH 500 0
DWIDTH 8 0
BBX 1 1 0 0
BITMAP
00
ENDCHAR
STARTCHAR uni3093
ENCODING 12435
SWIDTH 500 0
DWIDTH 8 0
BBX 1 1 0 0
BITMAP
00
ENDCHAR
STARTCHAR .notdef
ENCODING -1
SWIDTH 500 0
DWIDTH 8 0
BBX 7 10 1 0
BITMAP
FE
82
82
82
82
82
82
82
82
FE
ENDCHAR
ENDFONT
