STARTFONT 2.1
FONT DyslexicPixel-32px
SIZE 32 75 75
FONTBOUNDINGBOX 16 27 0 -7
STARTPROPERTIES 5
PIXEL_SIZE 32
FONT_ASCENT 28
FONT_DESCENT 11
CHARSET_REGISTRY "ISO10646"
CHARSET_ENCODING "1"
ENDPROPERTIES
CHARS 194
STARTCHAR uni000D
ENCODING 13
SWIDTH 62 0
DWIDTH 2 0
BBX 1 1 0 0
BITMAP
00
ENDCHAR
STARTCHAR space
ENCODING 32
SWIDTH 281 0
DWIDTH 9 0
BBX 1 1 0 0
BITMAP
00
ENDCHAR
STARTCHAR exclam
ENCODING 33
SWIDTH 62 0
DWIDTH 2 0
BBX 1 1 0 0
BITMAP
00
ENDCHAR
STARTCHAR quotedbl
ENCODING 34
SWIDTH 62 0
DWIDTH 2 0
BBX 1 1 0 0
BITMAP
00
ENDCHAR
STARTCHAR quotesingle
ENCODING 39
SWIDTH 62 0
DWIDTH 2 0
BBX 1 1 0 0
BITMAP
00
ENDCHAR
STARTCHAR asterisk
ENCODING 42
SWIDTH 62 0
DWIDTH 2 0
BBX 1 1 0 0
BITMAP
00
ENDCHAR
STARTCHAR plus
ENCODING 43
SWIDTH 62 0
DWIDTH 2 0
BBX 1 1 0 0
BITMAP
00
ENDCHAR
STARTCHAR comma
ENCODING 44
SWIDTH 188 0
DWIDTH 6 0
BBX 4 7 0 -3
BITMAP
60
F0
F0
70
30
60
C0
ENDCHAR
STARTCHAR hyphen
ENCODING 45
SWIDTH 62 0
DWIDTH 2 0
BBX 1 1 0 0
BITMAP
00
ENDCHAR
STARTCHAR period
ENCODING 46
SWIDTH 188 0
DWIDTH 6 0
BBX 4 4 0 0
BITMAP
60
F0
F0
60
ENDCHAR
STARTCHAR zero
ENCODING 48
SWIDTH 62 0
DWIDTH 2 0
BBX 1 1 0 0
BITMAP
00
ENDCHAR
STARTCHAR one
ENCODING 49
SWIDTH 62 0
DWIDTH 2 0
BBX 1 1 0 0
BITMAP
00
ENDCHAR
STARTCHAR two
ENCODING 50
SWIDTH 62 0
DWIDTH 2 0
BBX 1 1 0 0
BITMAP
00
ENDCHAR
STARTCHAR three
ENCODING 51
SWIDTH 62 0
DWIDTH 2 0
BBX 1 1 0 0
BITMAP
00
ENDCHAR
STARTCHAR four
ENCODING 52
SWIDTH 62 0
DWIDTH 2 0
BBX 1 1 0 0
BITMAP
00
ENDCHAR
STARTCHAR five
ENCODING 53
SWIDTH 62 0
DWIDTH 2 0
BBX 1 1 0 0
BITMAP
00
ENDCHAR
STARTCHAR six
ENCODING 54
SWIDTH 62 0
DWIDTH 2 0
BBX 1 1 0 0
BITMAP
00
ENDCHAR
STARTCHAR seven
ENCODING 55
SWIDTH 62 0
DWIDTH 2 0
BBX 1 1 0 0
BITMAP
00
ENDCHAR
STARTCHAR eight
ENCODING 56
SWIDTH 62 0
DWIDTH 2 0
BBX 1 1 0 0
BITMAP
00
ENDCHAR
STARTCHAR nine
ENCODING 57
SWIDTH 62 0
DWIDTH 2 0
BBX 1 1 0 0
BITMAP
00
ENDCHAR
STARTCHAR colon
ENCODING 58
SWIDTH 62 0
DWIDTH 2 0
BBX 1 1 0 0
BITMAP
00
ENDCHAR
STARTCHAR semicolon
ENCODING 59
SWIDTH 62 0
DWIDTH 2 0
BBX 1 1 0 0
BITMAP
00
ENDCHAR
STARTCHAR equal
ENCODING 61
SWIDTH 62 0
DWIDTH 2 0
BBX 1 1 0 0
BITMAP
00
ENDCHAR
STARTCHAR question
ENCODING 63
SWIDTH 62 0
DWIDTH 2 0
BBX 1 1 0 0
BITMAP
00
ENDCHAR
STARTCHAR A
ENCODING 65
SWIDTH 531 0
DWIDTH 17 0
BBX 15 20 0 0
BITMAP
0380
0380
07C0
06C0
0EE0
0C60
0C60
1C70
1830
1830
3838
3FF8
3FF8
783C
783C
701C
701C
F01E
F01E
F01E
ENDCHAR
STARTCHAR B
ENCODING 66
SWIDTH 500 0
DWIDTH 16 0
BBX 14 19 0 0
BITMAP
7F80
FFC0
E060
E020
E030
E030
E070
FFE0
FFC0
E070
E018
E00C
E00C
E00C
E01C
FFFC
FFFC
FFF8
FFF0
ENDCHAR
STARTCHAR C
ENCODING 67
SWIDTH 562 0
DWIDTH 18 0
BBX 16 19 0 0
BITMAP
07F0
1FF8
381C
700E
6006
E000
E000
E000
E000
E000
E000
E000
E007
F00F
F81F
7FFE
7FFE
3FFC
0FF8
ENDCHAR
STARTCHAR D
ENCODING 68
SWIDTH 531 0
DWIDTH 17 0
BBX 15 19 0 0
BITMAP
FFE0
FFF0
E018
E00C
E004
E006
E006
E006
E006
E006
E006
E006
E006
E00E
E01C
FFFC
FFFC
FFF8
FFF0
ENDCHAR
STARTCHAR E
ENCODING 69
SWIDTH 500 0
DWIDTH 16 0
BBX 14 19 0 0
BITMAP
FFF8
FFF8
C000
C000
C000
C000
C000
C000
FFE0
FFE0
FFE0
E000
E000
E000
E000
FFF8
FFFC
FFFC
FFFC
ENDCHAR
STARTCHAR F
ENCODING 70
SWIDTH 500 0
DWIDTH 16 0
BBX 14 19 0 0
BITMAP
FFFC
FFFC
FFFC
C000
C000
C000
C000
C000
FFF0
FFF0
FFE0
E000
E000
E000
E000
E000
E000
E000
E000
ENDCHAR
STARTCHAR G
ENCODING 71
SWIDTH 531 0
DWIDTH 17 0
BBX 15 19 0 0
BITMAP
07F0
1FF8
381C
700E
6006
E000
E000
E000
E000
E000
E0FE
E0FE
E00E
F00E
F81E
7FFE
7FFC
3FF8
0FE0
ENDCHAR
STARTCHAR H
ENCODING 72
SWIDTH 500 0
DWIDTH 16 0
BBX 14 19 0 0
BITMAP
E01C
F01C
F01C
F01C
F01C
F01C
F01C
F01C
F01C
FFFC
FFFC
F01C
F01C
F01C
F01C
F01C
F01C
F01C
F01C
ENDCHAR
STARTCHAR I
ENCODING 73
SWIDTH 219 0
DWIDTH 7 0
BBX 5 19 0 0
BITMAP
F8
F8
70
70
70
70
70
70
70
70
70
70
70
70
70
F8
F8
F8
F8
ENDCHAR
STARTCHAR J
ENCODING 74
SWIDTH 469 0
DWIDTH 15 0
BBX 13 20 0 -1
BITMAP
0018
0038
0038
0038
0038
0038
0038
0038
0038
0038
0038
0038
0038
0038
E038
F078
FFF8
7FF0
3FE0
0F80
ENDCHAR
STARTCHAR K
ENCODING 75
SWIDTH 562 0
DWIDTH 18 0
BBX 16 19 0 0
BITMAP
E03C
E078
E0F0
E1E0
E3C0
E780
EF00
FE00
FC00
FE00
FF00
FF80
FFC0
F7E0
F3F0
F1F8
F0FC
F07E
F03F
ENDCHAR
STARTCHAR L
ENCODING 76
SWIDTH 500 0
DWIDTH 16 0
BBX 14 19 0 0
BITMAP
E000
E000
E000
E000
E000
E000
E000
E000
E000
E000
E000
E000
E000
E000
E000
FFF8
FFFC
FFFC
FFFC
ENDCHAR
STARTCHAR M
ENCODING 77
SWIDTH 562 0
DWIDTH 18 0
BBX 16 19 0 0
BITMAP
E007
E007
F00F
F00F
F81F
F81F
FC3F
FC3F
EE77
EE77
E7E7
E7E7
E3C7
E3C7
E007
E007
E007
E007
E007
ENDCHAR
STARTCHAR N
ENCODING 78
SWIDTH 500 0
DWIDTH 16 0
BBX 14 19 0 0
BITMAP
E00C
F01C
F01C
F81C
F81C
FC1C
FC1C
EE1C
EE1C
E71C
E71C
E39C
E39C
E1DC
E1DC
E0FC
E0FC
E07C
E07C
ENDCHAR
STARTCHAR O
ENCODING 79
SWIDTH 531 0
DWIDTH 17 0
BBX 15 19 0 0
BITMAP
07E0
1FF0
3818
700C
6006
E006
E006
E006
E006
E006
E006
E006
E006
F00E
F81E
7FFC
7FFC
3FF8
0FE0
ENDCHAR
STARTCHAR P
ENCODING 80
SWIDTH 500 0
DWIDTH 16 0
BBX 14 20 0 -1
BITMAP
EF80
FFC0
F060
E030
E018
E00C
E004
E004
F00C
F81C
FC38
FFF0
EFE0
E7C0
E000
E000
E000
E000
E000
E000
ENDCHAR
STARTCHAR Q
ENCODING 81
SWIDTH 562 0
DWIDTH 18 0
BBX 16 19 0 0
BITMAP
07E0
1FF0
3818
700C
6004
E006
E006
E006
E006
E046
E0E6
E1F6
E0FE
F07C
F83E
7FFF
7FFF
3FF7
0FE3
ENDCHAR
STARTCHAR R
ENCODING 82
SWIDTH 531 0
DWIDTH 17 0
BBX 15 19 0 0
BITMAP
FFF0
FFF8
F00C
E006
E006
E006
E006
E006
F00E
F81E
FFFC
FFF8
EFE0
E1F0
E0F0
E0F8
E078
E07C
E03E
ENDCHAR
STARTCHAR S
ENCODING 83
SWIDTH 531 0
DWIDTH 17 0
BBX 15 19 0 0
BITMAP
0FE0
3FF8
783C
F00C
E000
E000
F000
7C70
3FF8
1FBC
0E3E
001E
001E
E01E
F03E
FC7E
FFFE
7FFC
1FF8
ENDCHAR
STARTCHAR T
ENCODING 84
SWIDTH 531 0
DWIDTH 17 0
BBX 15 19 0 0
BITMAP
FFFC
FFFE
7FFE
0380
0380
0380
0380
0380
0380
0380
0380
0380
0380
0380
0380
0380
0380
0380
0380
ENDCHAR
STARTCHAR U
ENCODING 85
SWIDTH 562 0
DWIDTH 18 0
BBX 16 19 0 0
BITMAP
E00E
E00E
E00E
E00E
E00E
E00E
E00E
E00E
E00E
E00E
E00E
E01E
E01E
F03E
F87E
FFFF
7FF7
3FE7
0FC3
ENDCHAR
STARTCHAR V
ENCODING 86
SWIDTH 562 0
DWIDTH 18 0
BBX 16 19 0 0
BITMAP
C003
C003
E007
E007
F00F
700E
781E
381C
3C3C
1C38
1E78
0E70
0FF0
07E0
07E0
03C0
03C0
0180
0180
ENDCHAR
STARTCHAR W
ENCODING 87
SWIDTH 562 0
DWIDTH 18 0
BBX 16 19 0 0
BITMAP
E007
E007
E007
E007
E187
E187
E3C7
E3C7
E7E7
E7E7
EE77
EE77
FC3F
FC3F
F81F
781E
700E
300C
2004
ENDCHAR
STARTCHAR X
ENCODING 88
SWIDTH 531 0
DWIDTH 17 0
BBX 15 19 0 0
BITMAP
F01E
701C
3018
3838
1830
1C70
0C60
0EE0
06C0
07C0
0FE0
0EE0
1EF0
1C70
3C78
3838
783C
F01E
F01E
ENDCHAR
STARTCHAR Y
ENCODING 89
SWIDTH 531 0
DWIDTH 17 0
BBX 15 19 0 0
BITMAP
E00E
701C
701C
3838
3838
1C70
1C70
0EE0
0EE0
07C0
07C0
0380
0380
0380
0380
0380
0380
0380
0380
ENDCHAR
STARTCHAR Z
ENCODING 90
SWIDTH 562 0
DWIDTH 18 0
BBX 16 19 0 0
BITMAP
FFFF
FFFF
7FFF
001E
003C
0078
00F0
01E0
03C0
0780
0F00
1E00
3C00
7800
F000
FFFC
FFFE
FFFF
FFFF
ENDCHAR
STARTCHAR underscore
ENCODING 95
SWIDTH 62 0
DWIDTH 2 0
BBX 1 1 0 0
BITMAP
00
ENDCHAR
STARTCHAR a
ENCODING 97
SWIDTH 375 0
DWIDTH 12 0
BBX 10 12 0 0
BITMAP
1F00
3F80
61C0
00C0
1FC0
30C0
60C0
C0C0
E1C0
FFC0
7FC0
3EC0
ENDCHAR
STARTCHAR b
ENCODING 98
SWIDTH 375 0
DWIDTH 12 0
BBX 10 18 0 0
BITMAP
4000
C000
C000
C000
C000
C000
DC00
FE00
E300
C180
C0C0
C040
C040
E0C0
F1C0
FF80
FF00
DE00
ENDCHAR
STARTCHAR c
ENCODING 99
SWIDTH 375 0
DWIDTH 12 0
BBX 10 12 0 0
BITMAP
1F00
3F80
60C0
C000
C000
C000
C000
C000
E0C0
FFC0
7FC0
3F80
ENDCHAR
STARTCHAR d
ENCODING 100
SWIDTH 438 0
DWIDTH 14 0
BBX 12 18 0 0
BITMAP
0020
0060
0060
0060
0060
0060
1E60
3360
61E0
C0E0
C060
C060
E060
F0E0
79E0
3FF0
1FF0
0F30
ENDCHAR
STARTCHAR e
ENCODING 101
SWIDTH 375 0
DWIDTH 12 0
BBX 10 12 0 0
BITMAP
1F80
30C0
60C0
C1C0
FF80
FE00
C000
C080
E1C0
FFC0
7F80
3F00
ENDCHAR
STARTCHAR f
ENCODING 102
SWIDTH 344 0
DWIDTH 11 0
BBX 9 18 0 0
BITMAP
0F80
1F00
3800
3000
3000
3000
3000
3000
FE00
3000
3000
3000
3000
3000
3000
3000
3000
3000
ENDCHAR
STARTCHAR g
ENCODING 103
SWIDTH 406 0
DWIDTH 13 0
BBX 11 18 0 -6
BITMAP
1F60
31E0
60E0
C060
C060
C060
C060
E0E0
F1E0
7FE0
3FE0
1F60
0060
0060
C060
E0E0
7FC0
3F80
ENDCHAR
STARTCHAR h
ENCODING 104
SWIDTH 375 0
DWIDTH 12 0
BBX 10 18 0 0
BITMAP
4000
C000
C000
C000
C000
C000
CE00
DF00
F980
F0C0
E0C0
E0C0
E0C0
E0C0
E0C0
E0C0
E0C0
E0C0
ENDCHAR
STARTCHAR i
ENCODING 105
SWIDTH 188 0
DWIDTH 6 0
BBX 4 16 0 0
BITMAP
60
60
00
00
60
60
60
60
60
60
60
60
60
E0
F0
F0
ENDCHAR
STARTCHAR j
ENCODING 106
SWIDTH 219 0
DWIDTH 7 0
BBX 5 22 0 -6
BITMAP
18
18
00
00
18
18
18
18
18
18
18
18
18
18
18
18
18
18
18
98
F8
70
ENDCHAR
STARTCHAR k
ENCODING 107
SWIDTH 344 0
DWIDTH 11 0
BBX 9 18 0 0
BITMAP
4000
C000
C000
C000
C000
C000
C300
C600
CC00
D800
F000
E000
C000
F800
DC00
CE00
C700
C380
ENDCHAR
STARTCHAR l
ENCODING 108
SWIDTH 250 0
DWIDTH 8 0
BBX 6 19 0 0
BITMAP
40
C0
C0
C0
C0
C0
C0
C0
C0
C0
C0
C0
C0
C0
C0
C0
C0
F8
FC
ENDCHAR
STARTCHAR m
ENCODING 109
SWIDTH 562 0
DWIDTH 18 0
BBX 16 12 0 0
BITMAP
DE3C
F366
E1C3
E1C3
E1C3
E1C3
E1C3
E1C3
E1C3
E1C3
E1C3
E1C3
ENDCHAR
STARTCHAR n
ENCODING 110
SWIDTH 375 0
DWIDTH 12 0
BBX 10 12 0 0
BITMAP
DF00
F180
E0C0
E0C0
E0C0
E0C0
E0C0
E0C0
E0C0
E0C0
E0C0
E0C0
ENDCHAR
STARTCHAR o
ENCODING 111
SWIDTH 375 0
DWIDTH 12 0
BBX 10 12 0 0
BITMAP
1E00
3F00
6180
C0C0
8040
8040
8040
C0C0
E1C0
FFC0
7F80
3F00
ENDCHAR
STARTCHAR p
ENCODING 112
SWIDTH 375 0
DWIDTH 12 0
BBX 10 18 0 -6
BITMAP
DC00
FE00
E300
C180
C0C0
C040
C040
E0C0
F1C0
FF80
FF00
DE00
C000
C000
C000
C000
C000
C000
ENDCHAR
STARTCHAR q
ENCODING 113
SWIDTH 469 0
DWIDTH 15 0
BBX 13 18 0 -6
BITMAP
1EC0
33C0
61C0
C0C0
C0C0
C0C0
C0C0
E1C0
F3C0
7FC0
3FC0
1EC0
00C0
00C0
00C0
00F8
00F0
00E0
ENDCHAR
STARTCHAR r
ENCODING 114
SWIDTH 344 0
DWIDTH 11 0
BBX 9 12 0 0
BITMAP
DF00
FF80
F180
E000
E000
E000
E000
E000
E000
E000
E000
E000
ENDCHAR
STARTCHAR s
ENCODING 115
SWIDTH 375 0
DWIDTH 12 0
BBX 10 13 0 0
BITMAP
3F00
7F80
E180
C000
C000
E700
7980
00C0
00C0
C1C0
FFC0
7FC0
3F80
ENDCHAR
STARTCHAR t
ENCODING 116
SWIDTH 281 0
DWIDTH 9 0
BBX 7 19 0 -1
BITMAP
20
30
30
30
30
30
FE
30
30
30
30
30
30
30
30
30
30
3C
18
ENDCHAR
STARTCHAR u
ENCODING 117
SWIDTH 375 0
DWIDTH 12 0
BBX 10 12 0 0
BITMAP
C180
C180
C180
C180
C180
C180
C180
C380
E780
FFC0
7FC0
3EC0
ENDCHAR
STARTCHAR v
ENCODING 118
SWIDTH 406 0
DWIDTH 13 0
BBX 11 12 0 0
BITMAP
8020
8020
C060
4040
60C0
3180
3180
1B00
1F00
0E00
0E00
0400
ENDCHAR
STARTCHAR w
ENCODING 119
SWIDTH 500 0
DWIDTH 16 0
BBX 14 12 0 0
BITMAP
8004
8004
C00C
4008
6318
6318
37B0
37B0
3CF0
1CE0
1860
0840
ENDCHAR
STARTCHAR x
ENCODING 120
SWIDTH 406 0
DWIDTH 13 0
BBX 11 12 0 0
BITMAP
E0E0
60C0
3180
1B00
0E00
0400
0E00
1B00
1B00
3180
71C0
E0E0
ENDCHAR
STARTCHAR y
ENCODING 121
SWIDTH 438 0
DWIDTH 14 0
BBX 12 18 0 -6
BITMAP
1010
1010
1830
0820
0C60
06C0
07C0
0380
0380
0300
0700
0600
0E00
0C00
1C00
1800
F800
F000
ENDCHAR
STARTCHAR z
ENCODING 122
SWIDTH 406 0
DWIDTH 13 0
BBX 11 12 0 0
BITMAP
FFC0
FFC0
0180
0300
0600
0C00
1800
3000
6000
FF80
FFC0
7FE0
ENDCHAR
STARTCHAR exclamdown
ENCODING 161
SWIDTH 62 0
DWIDTH 2 0
BBX 1 1 0 0
BITMAP
00
ENDCHAR
STARTCHAR guillemotleft
ENCODING 171
SWIDTH 62 0
DWIDTH 2 0
BBX 1 1 0 0
BITMAP
00
ENDCHAR
STARTCHAR guillemotright
ENCODING 187
SWIDTH 62 0
DWIDTH 2 0
BBX 1 1 0 0
BITMAP
00
ENDCHAR
STARTCHAR questiondown
ENCODING 191
SWIDTH 62 0
DWIDTH 2 0
BBX 1 1 0 0
BITMAP
00
ENDCHAR
STARTCHAR Agrave
ENCODING 192
SWIDTH 62 0
DWIDTH 2 0
BBX 1 1 0 0
BITMAP
00
ENDCHAR
STARTCHAR Aacute
ENCODING 193
SWIDTH 62 0
DWIDTH 2 0
BBX 1 1 0 0
BITMAP
00
ENDCHAR
STARTCHAR Acircumflex
ENCODING 194
SWIDTH 62 0
DWIDTH 2 0
BBX 1 1 0 0
BITMAP
00
ENDCHAR
STARTCHAR Atilde
ENCODING 195
SWIDTH 62 0
DWIDTH 2 0
BBX 1 1 0 0
BITMAP
00
ENDCHAR
STARTCHAR Adieresis
ENCODING 196
SWIDTH 62 0
DWIDTH 2 0
BBX 1 1 0 0
BITMAP
00
ENDCHAR
STARTCHAR Aring
ENCODING 197
SWIDTH 62 0
DWIDTH 2 0
BBX 1 1 0 0
BITMAP
00
ENDCHAR
STARTCHAR AE
ENCODING 198
SWIDTH 62 0
DWIDTH 2 0
BBX 1 1 0 0
BITMAP
00
ENDCHAR
STARTCHAR Ccedilla
ENCODING 199
SWIDTH 62 0
DWIDTH 2 0
BBX 1 1 0 0
BITMAP
00
ENDCHAR
STARTCHAR Egrave
ENCODING 200
SWIDTH 62 0
DWIDTH 2 0
BBX 1 1 0 0
BITMAP
00
ENDCHAR
STARTCHAR Eacute
ENCODING 201
SWIDTH 62 0
DWIDTH 2 0
BBX 1 1 0 0
BITMAP
00
ENDCHAR
STARTCHAR Ecircumflex
ENCODING 202
SWIDTH 62 0
DWIDTH 2 0
BBX 1 1 0 0
BITMAP
00
ENDCHAR
STARTCHAR Edieresis
ENCODING 203
SWIDTH 62 0
DWIDTH 2 0
BBX 1 1 0 0
BITMAP
00
ENDCHAR
STARTCHAR Igrave
ENCODING 204
SWIDTH 62 0
DWIDTH 2 0
BBX 1 1 0 0
BITMAP
00
ENDCHAR
STARTCHAR Iacute
ENCODING 205
SWIDTH 62 0
DWIDTH 2 0
BBX 1 1 0 0
BITMAP
00
ENDCHAR
STARTCHAR Icircumflex
ENCODING 206
SWIDTH 62 0
DWIDTH 2 0
BBX 1 1 0 0
BITMAP
00
ENDCHAR
STARTCHAR Idieresis
ENCODING 207
SWIDTH 62 0
DWIDTH 2 0
BBX 1 1 0 0
BITMAP
00
ENDCHAR
STARTCHAR Eth
ENCODING 208
SWIDTH 62 0
DWIDTH 2 0
BBX 1 1 0 0
BITMAP
00
ENDCHAR
STARTCHAR Ntilde
ENCODING 209
SWIDTH 62 0
DWIDTH 2 0
BBX 1 1 0 0
BITMAP
00
ENDCHAR
STARTCHAR Ograve
ENCODING 210
SWIDTH 62 0
DWIDTH 2 0
BBX 1 1 0 0
BITMAP
00
ENDCHAR
STARTCHAR Oacute
ENCODING 211
SWIDTH 62 0
DWIDTH 2 0
BBX 1 1 0 0
BITMAP
00
ENDCHAR
STARTCHAR Ocircumflex
ENCODING 212
SWIDTH 62 0
DWIDTH 2 0
BBX 1 1 0 0
BITMAP
00
ENDCHAR
STARTCHAR Otilde
ENCODING 213
SWIDTH 62 0
DWIDTH 2 0
BBX 1 1 0 0
BITMAP
00
ENDCHAR
STARTCHAR Odieresis
ENCODING 214
SWIDTH 62 0
DWIDTH 2 0
BBX 1 1 0 0
BITMAP
00
ENDCHAR
STARTCHAR Oslash
ENCODING 216
SWIDTH 62 0
DWIDTH 2 0
BBX 1 1 0 0
BITMAP
00
ENDCHAR
STARTCHAR Ugrave
ENCODING 217
SWIDTH 62 0
DWIDTH 2 0
BBX 1 1 0 0
BITMAP
00
ENDCHAR
STARTCHAR Uacute
ENCODING 218
SWIDTH 62 0
DWIDTH 2 0
BBX 1 1 0 0
BITMAP
00
ENDCHAR
STARTCHAR Ucircumflex
ENCODING 219
SWIDTH 62 0
DWIDTH 2 0
BBX 1 1 0 0
BITMAP
00
ENDCHAR
STARTCHAR Udieresis
ENCODING 220
SWIDTH 62 0
DWIDTH 2 0
BBX 1 1 0 0
BITMAP
00
ENDCHAR
STARTCHAR Yacute
ENCODING 221
SWIDTH 62 0
DWIDTH 2 0
BBX 1 1 0 0
BITMAP
00
ENDCHAR
STARTCHAR agrave
ENCODING 224
SWIDTH 375 0
DWIDTH 12 0
BBX 10 17 0 0
BITMAP
0C00
0600
0300
0000
0000
1F00
3F80
61C0
00C0
1FC0
30C0
60C0
C0C0
E1C0
FFC0
7FC0
3EC0
ENDCHAR
STARTCHAR aacute
ENCODING 225
SWIDTH 375 0
DWIDTH 12 0
BBX 10 17 0 0
BITMAP
0300
0600
0C00
0000
0000
1F00
3F80
61C0
00C0
1FC0
30C0
60C0
C0C0
E1C0
FFC0
7FC0
3EC0
ENDCHAR
STARTCHAR acircumflex
ENCODING 226
SWIDTH 375 0
DWIDTH 12 0
BBX 10 18 0 0
BITMAP
0400
0E00
1B00
1100
0000
0000
1F00
3F80
61C0
00C0
1FC0
30C0
60C0
C0C0
E1C0
FFC0
7FC0
3EC0
ENDCHAR
STARTCHAR atilde
ENCODING 227
SWIDTH 375 0
DWIDTH 12 0
BBX 10 17 0 0
BITMAP
0C80
1F80
1300
0000
0000
1F00
3F80
61C0
00C0
1FC0
30C0
60C0
C0C0
E1C0
FFC0
7FC0
3EC0
ENDCHAR
STARTCHAR adieresis
ENCODING 228
SWIDTH 375 0
DWIDTH 12 0
BBX 10 16 0 0
BITMAP
1980
1980
0000
0000
1F00
3F80
61C0
00C0
1FC0
30C0
60C0
C0C0
E1C0
FFC0
7FC0
3EC0
ENDCHAR
STARTCHAR aring
ENCODING 229
SWIDTH 375 0
DWIDTH 12 0
BBX 10 18 0 0
BITMAP
0600
0900
0900
0600
0000
0000
1F00
3F80
61C0
00C0
1FC0
30C0
60C0
C0C0
E1C0
FFC0
7FC0
3EC0
ENDCHAR
STARTCHAR ae
ENCODING 230
SWIDTH 562 0
DWIDTH 18 0
BBX 16 12 0 0
BITMAP
3C3E
7E63
C7C3
0387
3FFE
63F8
C380
8381
C7C3
FFFF
FF7E
7B3C
ENDCHAR
STARTCHAR ccedilla
ENCODING 231
SWIDTH 375 0
DWIDTH 12 0
BBX 10 19 0 -7
BITMAP
1F00
3F80
60C0
C000
C000
C000
C000
C000
E0C0
FFC0
7FC0
3F80
0800
0C00
0600
0300
1300
1F00
0E00
ENDCHAR
STARTCHAR egrave
ENCODING 232
SWIDTH 375 0
DWIDTH 12 0
BBX 10 17 0 0
BITMAP
0C00
0600
0300
0000
0000
1F80
30C0
60C0
C1C0
FF80
FE00
C000
C080
E1C0
FFC0
7F80
3F00
ENDCHAR
STARTCHAR eacute
ENCODING 233
SWIDTH 375 0
DWIDTH 12 0
BBX 10 17 0 0
BITMAP
0300
0600
0C00
0000
0000
1F80
30C0
60C0
C1C0
FF80
FE00
C000
C080
E1C0
FFC0
7F80
3F00
ENDCHAR
STARTCHAR ecircumflex
ENCODING 234
SWIDTH 375 0
DWIDTH 12 0
BBX 10 18 0 0
BITMAP
0400
0E00
1B00
1100
0000
0000
1F80
30C0
60C0
C1C0
FF80
FE00
C000
C080
E1C0
FFC0
7F80
3F00
ENDCHAR
STARTCHAR edieresis
ENCODING 235
SWIDTH 375 0
DWIDTH 12 0
BBX 10 16 0 0
BITMAP
3300
3300
0000
0000
1F80
30C0
60C0
C1C0
FF80
FE00
C000
C080
E1C0
FFC0
7F80
3F00
ENDCHAR
STARTCHAR igrave
ENCODING 236
SWIDTH 188 0
DWIDTH 6 0
BBX 4 17 0 0
BITMAP
C0
60
30
00
00
60
60
60
60
60
60
60
60
60
E0
F0
F0
ENDCHAR
STARTCHAR iacute
ENCODING 237
SWIDTH 188 0
DWIDTH 6 0
BBX 4 17 0 0
BITMAP
30
60
C0
00
00
60
60
60
60
60
60
60
60
60
E0
F0
F0
ENDCHAR
STARTCHAR icircumflex
ENCODING 238
SWIDTH 219 0
DWIDTH 7 0
BBX 5 17 0 0
BITMAP
20
70
D8
88
00
60
60
60
60
60
60
60
60
60
E0
F0
F0
ENDCHAR
STARTCHAR idieresis
ENCODING 239
SWIDTH 250 0
DWIDTH 8 0
BBX 6 16 0 0
BITMAP
CC
CC
00
00
30
30
30
30
30
30
30
30
30
70
78
78
ENDCHAR
STARTCHAR eth
ENCODING 240
SWIDTH 500 0
DWIDTH 16 0
BBX 14 19 0 0
BITMAP
0064
0068
0070
00E0
0160
0260
0060
1E60
3360
61E0
C0E0
C060
C060
E060
F0E0
79E0
3FF0
1FF0
0F30
ENDCHAR
STARTCHAR ntilde
ENCODING 241
SWIDTH 375 0
DWIDTH 12 0
BBX 10 17 0 0
BITMAP
1900
3F00
2600
0000
0000
DF00
F180
E0C0
E0C0
E0C0
E0C0
E0C0
E0C0
E0C0
E0C0
E0C0
E0C0
ENDCHAR
STARTCHAR ograve
ENCODING 242
SWIDTH 375 0
DWIDTH 12 0
BBX 10 17 0 0
BITMAP
1800
0C00
0600
0000
0000
1E00
3F00
6180
C0C0
8040
8040
8040
C0C0
E1C0
FFC0
7F80
3F00
ENDCHAR
STARTCHAR oacute
ENCODING 243
SWIDTH 375 0
DWIDTH 12 0
BBX 10 17 0 0
BITMAP
0600
0C00
1800
0000
0000
1E00
3F00
6180
C0C0
8040
8040
8040
C0C0
E1C0
FFC0
7F80
3F00
ENDCHAR
STARTCHAR ocircumflex
ENCODING 244
SWIDTH 375 0
DWIDTH 12 0
BBX 10 18 0 0
BITMAP
0800
1C00
3600
2200
0000
0000
1E00
3F00
6180
C0C0
8040
8040
8040
C0C0
E1C0
FFC0
7F80
3F00
ENDCHAR
STARTCHAR otilde
ENCODING 245
SWIDTH 375 0
DWIDTH 12 0
BBX 10 17 0 0
BITMAP
1900
3F00
2600
0000
0000
1E00
3F00
6180
C0C0
8040
8040
8040
C0C0
E1C0
FFC0
7F80
3F00
ENDCHAR
STARTCHAR odieresis
ENCODING 246
SWIDTH 375 0
DWIDTH 12 0
BBX 10 16 0 0
BITMAP
3300
3300
0000
0000
1E00
3F00
6180
C0C0
8040
8040
8040
C0C0
E1C0
FFC0
7F80
3F00
ENDCHAR
STARTCHAR oslash
ENCODING 248
SWIDTH 406 0
DWIDTH 13 0
BBX 11 12 0 0
BITMAP
1F20
3FC0
60C0
C140
8240
8440
8840
D0C0
E1C0
FFC0
7F80
BF00
ENDCHAR
STARTCHAR ugrave
ENCODING 249
SWIDTH 375 0
DWIDTH 12 0
BBX 10 12 0 0
BITMAP
C180
C180
C180
C180
C180
C180
C180
C380
E780
FFC0
7FC0
3EC0
ENDCHAR
STARTCHAR uacute
ENCODING 250
SWIDTH 375 0
DWIDTH 12 0
BBX 10 12 0 0
BITMAP
C180
C180
C180
C180
C180
C180
C180
C380
E780
FFC0
7FC0
3EC0
ENDCHAR
STARTCHAR ucircumflex
ENCODING 251
SWIDTH 375 0
DWIDTH 12 0
BBX 10 12 0 0
BITMAP
C180
C180
C180
C180
C180
C180
C180
C380
E780
FFC0
7FC0
3EC0
ENDCHAR
STARTCHAR udieresis
ENCODING 252
SWIDTH 375 0
DWIDTH 12 0
BBX 10 12 0 0
BITMAP
C180
C180
C180
C180
C180
C180
C180
C380
E780
FFC0
7FC0
3EC0
ENDCHAR
STARTCHAR yacute
ENCODING 253
SWIDTH 438 0
DWIDTH 14 0
BBX 12 18 0 -6
BITMAP
1010
1010
1830
0820
0C60
06C0
07C0
0380
0380
0300
0700
0600
0E00
0C00
1C00
1800
F800
F000
ENDCHAR
STARTCHAR ydieresis
ENCODING 255
SWIDTH 438 0
DWIDTH 14 0
BBX 12 18 0 -6
BITMAP
1010
1010
1830
0820
0C60
06C0
07C0
0380
0380
0300
0700
0600
0E00
0C00
1C00
1800
F800
F000
ENDCHAR
STARTCHAR Aogonek
ENCODING 260
SWIDTH 62 0
DWIDTH 2 0
BBX 1 1 0 0
BITMAP
00
ENDCHAR
STARTCHAR aogonek
ENCODING 261
SWIDTH 375 0
DWIDTH 12 0
BBX 10 19 0 -7
BITMAP
1F00
3F80
61C0
00C0
1FC0
30C0
60C0
C0C0
E1C0
FFC0
7FC0
3EC0
0080
0180
0300
0600
0640
07C0
0380
ENDCHAR
STARTCHAR Cacute
ENCODING 262
SWIDTH 62 0
DWIDTH 2 0
BBX 1 1 0 0
BITMAP
00
ENDCHAR
STARTCHAR cacute
ENCODING 263
SWIDTH 375 0
DWIDTH 12 0
BBX 10 17 0 0
BITMAP
0600
0C00
1800
0000
0000
1F00
3F80
60C0
C000
C000
C000
C000
C000
E0C0
FFC0
7FC0
3F80
ENDCHAR
STARTCHAR Ccaron
ENCODING 268
SWIDTH 62 0
DWIDTH 2 0
BBX 1 1 0 0
BITMAP
00
ENDCHAR
STARTCHAR ccaron
ENCODING 269
SWIDTH 375 0
DWIDTH 12 0
BBX 10 18 0 0
BITMAP
1100
1B00
0E00
0400
0000
0000
1F00
3F80
60C0
C000
C000
C000
C000
C000
E0C0
FFC0
7FC0
3F80
ENDCHAR
STARTCHAR Dcaron
ENCODING 270
SWIDTH 62 0
DWIDTH 2 0
BBX 1 1 0 0
BITMAP
00
ENDCHAR
STARTCHAR dcaron
ENCODING 271
SWIDTH 531 0
DWIDTH 17 0
BBX 15 19 0 0
BITMAP
0064
006E
0066
0062
0064
0060
0060
1E60
3360
61E0
C0E0
C060
C060
E060
F0E0
79E0
3FF0
1FF0
0F30
ENDCHAR
STARTCHAR Eogonek
ENCODING 280
SWIDTH 62 0
DWIDTH 2 0
BBX 1 1 0 0
BITMAP
00
ENDCHAR
STARTCHAR eogonek
ENCODING 281
SWIDTH 375 0
DWIDTH 12 0
BBX 10 19 0 -7
BITMAP
1F80
30C0
60C0
C1C0
FF80
FE00
C000
C080
E1C0
FFC0
7F80
3F00
0400
0C00
1800
3000
3200
3E00
1C00
ENDCHAR
STARTCHAR Ecaron
ENCODING 282
SWIDTH 62 0
DWIDTH 2 0
BBX 1 1 0 0
BITMAP
00
ENDCHAR
STARTCHAR ecaron
ENCODING 283
SWIDTH 375 0
DWIDTH 12 0
BBX 10 18 0 0
BITMAP
1100
1B00
0E00
0400
0000
0000
1F80
30C0
60C0
C1C0
FF80
FE00
C000
C080
E1C0
FFC0
7F80
3F00
ENDCHAR
STARTCHAR Gbreve
ENCODING 286
SWIDTH 62 0
DWIDTH 2 0
BBX 1 1 0 0
BITMAP
00
ENDCHAR
STARTCHAR gbreve
ENCODING 287
SWIDTH 406 0
DWIDTH 13 0
BBX 11 24 0 -6
BITMAP
1100
1B00
0E00
0400
0000
0000
1F60
31E0
60E0
C060
C060
C060
C060
E0E0
F1E0
7FE0
3FE0
1F60
0060
0060
C060
E0E0
7FC0
3F80
ENDCHAR
STARTCHAR Iogonek
ENCODING 302
SWIDTH 62 0
DWIDTH 2 0
BBX 1 1 0 0
BITMAP
00
ENDCHAR
STARTCHAR iogonek
ENCODING 303
SWIDTH 250 0
DWIDTH 8 0
BBX 6 23 0 -7
BITMAP
18
18
00
00
18
18
18
18
18
18
18
18
18
38
3C
3C
10
30
60
C0
C8
F8
70
ENDCHAR
STARTCHAR Idotaccent
ENCODING 304
SWIDTH 62 0
DWIDTH 2 0
BBX 1 1 0 0
BITMAP
00
ENDCHAR
STARTCHAR dotlessi
ENCODING 305
SWIDTH 188 0
DWIDTH 6 0
BBX 4 12 0 0
BITMAP
60
60
60
60
60
60
60
60
60
E0
F0
F0
ENDCHAR
STARTCHAR Lslash
ENCODING 321
SWIDTH 62 0
DWIDTH 2 0
BBX 1 1 0 0
BITMAP
00
ENDCHAR
STARTCHAR lslash
ENCODING 322
SWIDTH 344 0
DWIDTH 11 0
BBX 9 19 0 0
BITMAP
0800
1800
1800
1800
1800
1800
1900
1A00
1C00
3800
5800
9800
1800
1800
1800
1800
1800
1F00
1F80
ENDCHAR
STARTCHAR Nacute
ENCODING 323
SWIDTH 62 0
DWIDTH 2 0
BBX 1 1 0 0
BITMAP
00
ENDCHAR
STARTCHAR nacute
ENCODING 324
SWIDTH 375 0
DWIDTH 12 0
BBX 10 17 0 0
BITMAP
0600
0C00
1800
0000
0000
DF00
F180
E0C0
E0C0
E0C0
E0C0
E0C0
E0C0
E0C0
E0C0
E0C0
E0C0
ENDCHAR
STARTCHAR Ncaron
ENCODING 327
SWIDTH 62 0
DWIDTH 2 0
BBX 1 1 0 0
BITMAP
00
ENDCHAR
STARTCHAR ncaron
ENCODING 328
SWIDTH 375 0
DWIDTH 12 0
BBX 10 18 0 0
BITMAP
1100
1B00
0E00
0400
0000
0000
DF00
F180
E0C0
E0C0
E0C0
E0C0
E0C0
E0C0
E0C0
E0C0
E0C0
E0C0
ENDCHAR
STARTCHAR Ohungarumlaut
ENCODING 336
SWIDTH 62 0
DWIDTH 2 0
BBX 1 1 0 0
BITMAP
00
ENDCHAR
STARTCHAR ohungarumlaut
ENCODING 337
SWIDTH 375 0
DWIDTH 12 0
BBX 10 18 0 0
BITMAP
1100
3B80
3300
2200
0000
0000
1E00
3F00
6180
C0C0
8040
8040
8040
C0C0
E1C0
FFC0
7F80
3F00
ENDCHAR
STARTCHAR OE
ENCODING 338
SWIDTH 62 0
DWIDTH 2 0
BBX 1 1 0 0
BITMAP
00
ENDCHAR
STARTCHAR oe
ENCODING 339
SWIDTH 375 0
DWIDTH 12 0
BBX 10 12 0 0
BITMAP
1E00
3F00
6180
C0C0
8040
8040
8040
C0C0
E1C0
FFC0
7F80
3F00
ENDCHAR
STARTCHAR Rcaron
ENCODING 344
SWIDTH 62 0
DWIDTH 2 0
BBX 1 1 0 0
BITMAP
00
ENDCHAR
STARTCHAR rcaron
ENCODING 345
SWIDTH 344 0
DWIDTH 11 0
BBX 9 12 0 0
BITMAP
DF00
F980
F080
E000
E000
E000
E000
E000
E000
E000
E000
E000
ENDCHAR
STARTCHAR Sacute
ENCODING 346
SWIDTH 62 0
DWIDTH 2 0
BBX 1 1 0 0
BITMAP
00
ENDCHAR
STARTCHAR sacute
ENCODING 347
SWIDTH 375 0
DWIDTH 12 0
BBX 10 13 0 0
BITMAP
3F00
7F80
E180
C000
E000
7F00
1F80
03C0
C1C0
E3C0
FFC0
7F80
3F00
ENDCHAR
STARTCHAR Scedilla
ENCODING 350
SWIDTH 62 0
DWIDTH 2 0
BBX 1 1 0 0
BITMAP
00
ENDCHAR
STARTCHAR scedilla
ENCODING 351
SWIDTH 375 0
DWIDTH 12 0
BBX 10 13 0 0
BITMAP
3F00
7F80
E180
C000
E000
7F00
1F80
03C0
C1C0
E3C0
FFC0
7F80
3F00
ENDCHAR
STARTCHAR Scaron
ENCODING 352
SWIDTH 62 0
DWIDTH 2 0
BBX 1 1 0 0
BITMAP
00
ENDCHAR
STARTCHAR scaron
ENCODING 353
SWIDTH 375 0
DWIDTH 12 0
BBX 10 13 0 0
BITMAP
3F00
7F80
E180
C000
E000
7F00
1F80
03C0
C1C0
E3C0
FFC0
7F80
3F00
ENDCHAR
STARTCHAR Tcaron
ENCODING 356
SWIDTH 62 0
DWIDTH 2 0
BBX 1 1 0 0
BITMAP
00
ENDCHAR
STARTCHAR tcaron
ENCODING 357
SWIDTH 281 0
DWIDTH 9 0
BBX 7 19 0 -1
BITMAP
20
30
30
30
30
30
FE
30
30
30
30
30
30
30
30
30
30
3C
18
ENDCHAR
STARTCHAR Uring
ENCODING 366
SWIDTH 62 0
DWIDTH 2 0
BBX 1 1 0 0
BITMAP
00
ENDCHAR
STARTCHAR uring
ENCODING 367
SWIDTH 375 0
DWIDTH 12 0
BBX 10 12 0 0
BITMAP
C180
C180
C180
C180
C180
C180
C180
C380
E780
FFC0
7FC0
3EC0
ENDCHAR
STARTCHAR Uhungarumlaut
ENCODING 368
SWIDTH 62 0
DWIDTH 2 0
BBX 1 1 0 0
BITMAP
00
ENDCHAR
STARTCHAR uhungarumlaut
ENCODING 369
SWIDTH 375 0
DWIDTH 12 0
BBX 10 12 0 0
BITMAP
C180
C180
C180
C180
C180
C180
C180
C380
E780
FFC0
7FC0
3EC0
ENDCHAR
STARTCHAR Ydieresis
ENCODING 376
SWIDTH 62 0
DWIDTH 2 0
BBX 1 1 0 0
BITMAP
00
ENDCHAR
STARTCHAR Zacute
ENCODING 377
SWIDTH 62 0
DWIDTH 2 0
BBX 1 1 0 0
BITMAP
00
ENDCHAR
STARTCHAR zacute
ENCODING 378
SWIDTH 406 0
DWIDTH 13 0
BBX 11 12 0 0
BITMAP
FFC0
FFC0
0180
0300
0600
0C00
1800
3000
6000
FF80
FFC0
7FE0
ENDCHAR
STARTCHAR Zdotaccent
ENCODING 379
SWIDTH 62 0
DWIDTH 2 0
BBX 1 1 0 0
BITMAP
00
ENDCHAR
STARTCHAR zdotaccent
ENCODING 380
SWIDTH 406 0
DWIDTH 13 0
BBX 11 12 0 0
BITMAP
FFC0
FFC0
0180
0300
0600
0C00
1800
3000
6000
FF80
FFC0
7FE0
ENDCHAR
STARTCHAR Zcaron
ENCODING 381
SWIDTH 62 0
DWIDTH 2 0
BBX 1 1 0 0
BITMAP
00
ENDCHAR
STARTCHAR zcaron
ENCODING 382
SWIDTH 406 0
DWIDTH 13 0
BBX 11 12 0 0
BITMAP
FFC0
FFC0
0180
0300
0600
0C00
1800
3000
6000
FF80
FFC0
7FE0
ENDCHAR
STARTCHAR uni1EBC
ENCODING 7868
SWIDTH 62 0
DWIDTH 2 0
BBX 1 1 0 0
BITMAP
00
ENDCHAR
STARTCHAR uni1EBD
ENCODING 7869
SWIDTH 375 0
DWIDTH 12 0
BBX 10 17 0 0
BITMAP
0C80
1F80
1300
0000
0000
1F80
30C0
60C0
C1C0
FF80
FE00
C000
C080
E1C0
FFC0
7F80
3F00
ENDCHAR
STARTCHAR quotedblleft
ENCODING 8220
SWIDTH 62 0
DWIDTH 2 0
BBX 1 1 0 0
BITMAP
00
ENDCHAR
STARTCHAR quotedblright
ENCODING 8221
SWIDTH 62 0
DWIDTH 2 0
BBX 1 1 0 0
BITMAP
00
ENDCHAR
STARTCHAR .notdef
ENCODING -1
SWIDTH 62 0
DWIDTH 2 0
BBX 1 1 0 0
BITMAP
00
ENDCHAR
ENDFONT
