STARTFONT 2.1
FONT Canyon Racer Game Over 3D mono-16px
SIZE 16 75 75
FONTBOUNDINGBOX 15 14 0 -3
STARTPROPERTIES 5
PIXEL_SIZE 16
FONT_ASCENT 16
FONT_DESCENT 0
CHARSET_REGISTRY "ISO10646"
CHARSET_ENCODING "1"
ENDPROPERTIES
CHARS 73
STARTCHAR space
ENCODING 32
SWIDTH 1000 0
DWIDTH 16 0
BBX 1 1 0 0
BITMAP
00
ENDCHAR
STARTCHAR exclam
ENCODING 33
SWIDTH 1000 0
DWIDTH 16 0
BBX 7 11 0 0
BITMAP
FE
9E
9E
9E
9E
9E
FE
FE
9E
9E
FE
ENDCHAR
STARTCHAR hyphen
ENCODING 45
SWIDTH 1000 0
DWIDTH 16 0
BBX 10 4 0 3
BITMAP
FFC0
83C0
83C0
FFC0
ENDCHAR
STARTCHAR period
ENCODING 46
SWIDTH 1000 0
DWIDTH 16 0
BBX 7 4 0 0
BITMAP
FE
9E
9E
FE
ENDCHAR
STARTCHAR slash
ENCODING 47
SWIDTH 1000 0
DWIDTH 16 0
BBX 10 10 0 0
BITMAP
1FC0
13C0
33C0
27C0
6780
4F80
CF00
9F00
9E00
FE00
ENDCHAR
STARTCHAR zero
ENCODING 48
SWIDTH 1000 0
DWIDTH 16 0
BBX 12 11 0 0
BITMAP
3FF0
60F0
C0F0
9CF0
98F0
9CF0
8CF0
9CF0
81F0
83E0
FFC0
ENDCHAR
STARTCHAR one
ENCODING 49
SWIDTH 1000 0
DWIDTH 16 0
BBX 9 14 0 -3
BITMAP
3F80
6780
C780
8780
E780
2780
2780
2780
2780
2780
2780
2780
3780
1F80
ENDCHAR
STARTCHAR two
ENCODING 50
SWIDTH 1000 0
DWIDTH 16 0
BBX 13 11 0 0
BITMAP
7FE0
C1F0
80F8
FC78
18F8
31F0
63E0
C7F0
80F0
81F0
FFE0
ENDCHAR
STARTCHAR three
ENCODING 51
SWIDTH 1000 0
DWIDTH 16 0
BBX 13 11 0 0
BITMAP
7FF8
C078
80F8
F9F0
23E0
31F0
18F8
7C78
C078
80F8
FFF0
ENDCHAR
STARTCHAR four
ENCODING 52
SWIDTH 1000 0
DWIDTH 16 0
BBX 11 14 0 -3
BITMAP
7FE0
D9E0
99E0
99E0
99E0
89E0
89E0
F9E0
09E0
09E0
09E0
09E0
0DE0
07E0
ENDCHAR
STARTCHAR five
ENCODING 53
SWIDTH 1000 0
DWIDTH 16 0
BBX 12 11 0 0
BITMAP
FFF0
80F0
81F0
9FF0
80F0
80F0
FCF0
78F0
C1F0
83E0
FFC0
ENDCHAR
STARTCHAR six
ENCODING 54
SWIDTH 1000 0
DWIDTH 16 0
BBX 12 11 0 0
BITMAP
3FF0
60F0
C1F0
9FE0
9FE0
91F0
98F0
9CF0
81F0
83E0
FFC0
ENDCHAR
STARTCHAR seven
ENCODING 55
SWIDTH 1000 0
DWIDTH 16 0
BBX 12 14 0 -3
BITMAP
7FF0
C0F0
80F0
F9F0
19E0
13E0
33C0
27C0
2780
2780
2780
2780
3780
1F80
ENDCHAR
STARTCHAR eight
ENCODING 56
SWIDTH 1000 0
DWIDTH 16 0
BBX 12 11 0 0
BITMAP
3FF0
60F0
C0F0
9CF0
9CF0
C1F0
9CF0
9CF0
81F0
83E0
FFC0
ENDCHAR
STARTCHAR nine
ENCODING 57
SWIDTH 1000 0
DWIDTH 16 0
BBX 12 14 0 -3
BITMAP
3FF0
60F0
C0F0
9CF0
9CF0
80F0
80F0
FCF0
04F0
04F0
04F0
04F0
06F0
03F0
ENDCHAR
STARTCHAR colon
ENCODING 58
SWIDTH 1000 0
DWIDTH 16 0
BBX 7 8 0 1
BITMAP
FE
9E
9E
FE
FE
9E
9E
FE
ENDCHAR
STARTCHAR question
ENCODING 63
SWIDTH 1000 0
DWIDTH 16 0
BBX 11 11 0 0
BITMAP
7FE0
C1E0
81E0
B9E0
F9E0
13E0
13C0
1FC0
13C0
13C0
1FC0
ENDCHAR
STARTCHAR A
ENCODING 65
SWIDTH 1000 0
DWIDTH 16 0
BBX 12 14 0 -3
BITMAP
07F0
0CF0
18F0
30F0
60F0
C4F0
8CF0
9CF0
90F0
DCF0
7CF0
04F0
06F0
03F0
ENDCHAR
STARTCHAR B
ENCODING 66
SWIDTH 1000 0
DWIDTH 16 0
BBX 13 14 0 -3
BITMAP
7FF8
C078
8078
FCF8
99F8
9078
9078
9CF8
99F0
83E0
9FC0
9E00
DE00
7E00
ENDCHAR
STARTCHAR C
ENCODING 67
SWIDTH 1000 0
DWIDTH 16 0
BBX 13 11 0 0
BITMAP
3FF8
6078
C0F8
9FF0
9E00
9E00
9E00
9FE0
81E0
83E0
FFC0
ENDCHAR
STARTCHAR D
ENCODING 68
SWIDTH 1000 0
DWIDTH 16 0
BBX 13 11 0 0
BITMAP
3FF8
6078
4078
7E78
3678
2678
2678
6678
C0F8
81F0
FFE0
ENDCHAR
STARTCHAR E
ENCODING 69
SWIDTH 1000 0
DWIDTH 16 0
BBX 12 11 0 0
BITMAP
3FF0
60F0
C1F0
9FE0
9FC0
83C0
87C0
9FF0
80F0
81F0
FFE0
ENDCHAR
STARTCHAR F
ENCODING 70
SWIDTH 1000 0
DWIDTH 16 0
BBX 12 14 0 -3
BITMAP
3FF0
60F0
C1F0
9FE0
9FC0
83C0
87C0
9F80
9E00
9E00
9E00
9E00
DE00
7E00
ENDCHAR
STARTCHAR G
ENCODING 71
SWIDTH 1000 0
DWIDTH 16 0
BBX 12 14 0 -3
BITMAP
3FF0
60F0
C1F0
9FE0
9FF0
90F0
90F0
9CF0
84F0
84F0
FCF0
04F0
06F0
03F0
ENDCHAR
STARTCHAR H
ENCODING 72
SWIDTH 1000 0
DWIDTH 16 0
BBX 12 14 0 -3
BITMAP
FFE0
BDF0
9CF0
9CF0
9CF0
9CF0
80F0
80F0
9CF0
DCF0
7CF0
04F0
06F0
03F0
ENDCHAR
STARTCHAR I
ENCODING 73
SWIDTH 1000 0
DWIDTH 16 0
BBX 7 14 0 -3
BITMAP
FE
9E
9E
9E
9E
9E
9E
9E
9E
9E
9E
9E
DE
7E
ENDCHAR
STARTCHAR J
ENCODING 74
SWIDTH 1000 0
DWIDTH 16 0
BBX 14 11 0 0
BITMAP
3FFC
603C
403C
79FC
09E0
09E0
09E0
79E0
C1E0
83E0
FFC0
ENDCHAR
STARTCHAR K
ENCODING 75
SWIDTH 1000 0
DWIDTH 16 0
BBX 14 13 0 -2
BITMAP
7E00
DFE0
9DE0
99E0
93E0
97C0
93E0
91F0
98F8
9C7C
FE3C
033C
01FC
ENDCHAR
STARTCHAR L
ENCODING 76
SWIDTH 1000 0
DWIDTH 16 0
BBX 12 11 0 0
BITMAP
7E00
DE00
9E00
9E00
9E00
9E00
9E00
9FF0
80F0
81F0
FFE0
ENDCHAR
STARTCHAR M
ENCODING 77
SWIDTH 1000 0
DWIDTH 16 0
BBX 14 14 0 -3
BITMAP
FFFC
9F3C
8E3C
843C
803C
913C
9B3C
9F3C
9F3C
DF3C
7F3C
013C
01BC
00FC
ENDCHAR
STARTCHAR N
ENCODING 78
SWIDTH 1000 0
DWIDTH 16 0
BBX 12 14 0 -3
BITMAP
FFE0
BDF0
9CF0
9CF0
8CF0
84F0
80F0
90F0
98F0
DCF0
7CF0
04F0
06F0
03F0
ENDCHAR
STARTCHAR O
ENCODING 79
SWIDTH 1000 0
DWIDTH 16 0
BBX 12 11 0 0
BITMAP
3FF0
60F0
C0F0
9CF0
9CF0
9CF0
9CF0
9CF0
81F0
83E0
FFC0
ENDCHAR
STARTCHAR P
ENCODING 80
SWIDTH 1000 0
DWIDTH 16 0
BBX 12 14 0 -3
BITMAP
7FF0
C0F0
80F0
FCF0
FCF0
80F0
81F0
9FE0
9E00
9E00
9E00
9E00
DE00
7E00
ENDCHAR
STARTCHAR Q
ENCODING 81
SWIDTH 1000 0
DWIDTH 16 0
BBX 13 12 0 -1
BITMAP
3FF0
60F0
C0F0
9CF0
9CF0
9CF0
9AF0
91F0
88F8
8478
FE78
03F8
ENDCHAR
STARTCHAR R
ENCODING 82
SWIDTH 1000 0
DWIDTH 16 0
BBX 14 14 0 -3
BITMAP
7FF0
C0F0
80F0
FCF0
FCF0
80F0
81F0
98F8
9C7C
9E3C
9F3C
9FFC
DE00
7E00
ENDCHAR
STARTCHAR S
ENCODING 83
SWIDTH 1000 0
DWIDTH 16 0
BBX 13 12 0 -1
BITMAP
7FF0
C0F0
80F0
FFF0
47C0
63E0
31F0
18F8
3C78
6078
40F8
7FF0
ENDCHAR
STARTCHAR T
ENCODING 84
SWIDTH 1000 0
DWIDTH 16 0
BBX 13 14 0 -3
BITMAP
7FF8
C078
8078
FFF8
13C0
13C0
13C0
13C0
13C0
13C0
13C0
13C0
1BC0
0FC0
ENDCHAR
STARTCHAR U
ENCODING 85
SWIDTH 1000 0
DWIDTH 16 0
BBX 12 14 0 -3
BITMAP
7E00
DE00
9E00
9FF0
9CF0
9CF0
9CF0
9CF0
84F0
C4F0
7CF0
04F0
06F0
03F0
ENDCHAR
STARTCHAR V
ENCODING 86
SWIDTH 1000 0
DWIDTH 16 0
BBX 12 14 0 -3
BITMAP
FE00
9E00
9FF0
9EF0
9CF0
98F0
91F0
83E0
87C0
8F80
9F00
9E00
DE00
7E00
ENDCHAR
STARTCHAR W
ENCODING 87
SWIDTH 1000 0
DWIDTH 16 0
BBX 15 13 0 -2
BITMAP
FC00
BE00
9EFC
9EBE
9F9E
9D9E
999E
911E
801E
843E
8C7C
9CF8
FFF0
ENDCHAR
STARTCHAR X
ENCODING 88
SWIDTH 1000 0
DWIDTH 16 0
BBX 15 14 0 -3
BITMAP
FE00
9FF8
8E78
C478
68F8
31F0
62F8
447C
463E
4F1E
4F9E
4FFE
6F00
3F00
ENDCHAR
STARTCHAR Y
ENCODING 89
SWIDTH 1000 0
DWIDTH 16 0
BBX 13 14 0 -3
BITMAP
FFF8
BE78
9E78
8E78
C678
6278
3278
1A78
0E78
0278
0278
0278
0378
01F8
ENDCHAR
STARTCHAR Z
ENCODING 90
SWIDTH 1000 0
DWIDTH 16 0
BBX 14 11 0 0
BITMAP
7FFC
C03C
803C
FE3C
0C7C
18F8
31F0
63F8
C078
80F8
FFF0
ENDCHAR
STARTCHAR backslash
ENCODING 92
SWIDTH 1000 0
DWIDTH 16 0
BBX 10 10 0 0
BITMAP
FE00
9E00
9F00
CF00
4F80
6780
27C0
33C0
13C0
1FC0
ENDCHAR
STARTCHAR underscore
ENCODING 95
SWIDTH 1000 0
DWIDTH 16 0
BBX 12 3 0 -1
BITMAP
FFF0
80F0
FFF0
ENDCHAR
STARTCHAR a
ENCODING 97
SWIDTH 1000 0
DWIDTH 16 0
BBX 12 14 0 -3
BITMAP
07F0
0CF0
18F0
30F0
60F0
C4F0
8CF0
9CF0
90F0
DCF0
7CF0
04F0
06F0
03F0
ENDCHAR
STARTCHAR b
ENCODING 98
SWIDTH 1000 0
DWIDTH 16 0
BBX 13 14 0 -3
BITMAP
7FF8
C078
8078
FCF8
99F8
9078
9078
9CF8
99F0
83E0
9FC0
9E00
DE00
7E00
ENDCHAR
STARTCHAR c
ENCODING 99
SWIDTH 1000 0
DWIDTH 16 0
BBX 13 11 0 0
BITMAP
3FF8
6078
C0F8
9FF0
9E00
9E00
9E00
9FE0
81E0
83E0
FFC0
ENDCHAR
STARTCHAR d
ENCODING 100
SWIDTH 1000 0
DWIDTH 16 0
BBX 13 11 0 0
BITMAP
3FF8
6078
4078
7E78
3678
2678
2678
6678
C0F8
81F0
FFE0
ENDCHAR
STARTCHAR e
ENCODING 101
SWIDTH 1000 0
DWIDTH 16 0
BBX 12 11 0 0
BITMAP
3FF0
60F0
C1F0
9FE0
9FC0
83C0
87C0
9FF0
80F0
81F0
FFE0
ENDCHAR
STARTCHAR f
ENCODING 102
SWIDTH 1000 0
DWIDTH 16 0
BBX 12 14 0 -3
BITMAP
3FF0
60F0
C1F0
9FE0
9FC0
83C0
87C0
9F80
9E00
9E00
9E00
9E00
DE00
7E00
ENDCHAR
STARTCHAR g
ENCODING 103
SWIDTH 1000 0
DWIDTH 16 0
BBX 12 14 0 -3
BITMAP
3FF0
60F0
C1F0
9FE0
9FF0
90F0
90F0
9CF0
84F0
84F0
FCF0
04F0
06F0
03F0
ENDCHAR
STARTCHAR h
ENCODING 104
SWIDTH 1000 0
DWIDTH 16 0
BBX 12 14 0 -3
BITMAP
FFE0
BDF0
9CF0
9CF0
9CF0
9CF0
80F0
80F0
9CF0
DCF0
7CF0
04F0
06F0
03F0
ENDCHAR
STARTCHAR i
ENCODING 105
SWIDTH 1000 0
DWIDTH 16 0
BBX 7 14 0 -3
BITMAP
FE
9E
9E
9E
9E
9E
9E
9E
9E
9E
9E
9E
DE
7E
ENDCHAR
STARTCHAR j
ENCODING 106
SWIDTH 1000 0
DWIDTH 16 0
BBX 14 11 0 0
BITMAP
3FFC
603C
403C
79FC
09E0
09E0
09E0
79E0
C1E0
83E0
FFC0
ENDCHAR
STARTCHAR k
ENCODING 107
SWIDTH 1000 0
DWIDTH 16 0
BBX 14 13 0 -2
BITMAP
7E00
DFE0
9DE0
99E0
93E0
97C0
93E0
91F0
98F8
9C7C
FE3C
033C
01FC
ENDCHAR
STARTCHAR l
ENCODING 108
SWIDTH 1000 0
DWIDTH 16 0
BBX 12 11 0 0
BITMAP
7E00
DE00
9E00
9E00
9E00
9E00
9E00
9FF0
80F0
81F0
FFE0
ENDCHAR
STARTCHAR m
ENCODING 109
SWIDTH 1000 0
DWIDTH 16 0
BBX 14 14 0 -3
BITMAP
FFFC
9F3C
8E3C
843C
803C
913C
9B3C
9F3C
9F3C
DF3C
7F3C
013C
01BC
00FC
ENDCHAR
STARTCHAR n
ENCODING 110
SWIDTH 1000 0
DWIDTH 16 0
BBX 12 14 0 -3
BITMAP
FFE0
BDF0
9CF0
9CF0
8CF0
84F0
80F0
90F0
98F0
DCF0
7CF0
04F0
06F0
03F0
ENDCHAR
STARTCHAR o
ENCODING 111
SWIDTH 1000 0
DWIDTH 16 0
BBX 12 11 0 0
BITMAP
3FF0
60F0
C0F0
9CF0
9CF0
9CF0
9CF0
9CF0
81F0
83E0
FFC0
ENDCHAR
STARTCHAR p
ENCODING 112
SWIDTH 1000 0
DWIDTH 16 0
BBX 12 14 0 -3
BITMAP
7FF0
C0F0
80F0
FCF0
FCF0
80F0
81F0
9FE0
9E00
9E00
9E00
9E00
DE00
7E00
ENDCHAR
STARTCHAR q
ENCODING 113
SWIDTH 1000 0
DWIDTH 16 0
BBX 13 12 0 -1
BITMAP
3FF0
60F0
C0F0
9CF0
9CF0
9CF0
9AF0
91F0
88F8
8478
FE78
03F8
ENDCHAR
STARTCHAR r
ENCODING 114
SWIDTH 1000 0
DWIDTH 16 0
BBX 14 14 0 -3
BITMAP
7FF0
C0F0
80F0
FCF0
FCF0
80F0
81F0
98F8
9C7C
9E3C
9F3C
9FFC
DE00
7E00
ENDCHAR
STARTCHAR s
ENCODING 115
SWIDTH 1000 0
DWIDTH 16 0
BBX 13 12 0 -1
BITMAP
7FF0
C0F0
80F0
FFF0
47C0
63E0
31F0
18F8
3C78
6078
40F8
7FF0
ENDCHAR
STARTCHAR t
ENCODING 116
SWIDTH 1000 0
DWIDTH 16 0
BBX 13 14 0 -3
BITMAP
7FF8
C078
8078
FFF8
13C0
13C0
13C0
13C0
13C0
13C0
13C0
13C0
1BC0
0FC0
ENDCHAR
STARTCHAR u
ENCODING 117
SWIDTH 1000 0
DWIDTH 16 0
BBX 12 14 0 -3
BITMAP
7E00
DE00
9E00
9FF0
9CF0
9CF0
9CF0
9CF0
84F0
C4F0
7CF0
04F0
06F0
03F0
ENDCHAR
STARTCHAR v
ENCODING 118
SWIDTH 1000 0
DWIDTH 16 0
BBX 12 14 0 -3
BITMAP
FE00
9E00
9FF0
9EF0
9CF0
98F0
91F0
83E0
87C0
8F80
9F00
9E00
DE00
7E00
ENDCHAR
STARTCHAR w
ENCODING 119
SWIDTH 1000 0
DWIDTH 16 0
BBX 15 13 0 -2
BITMAP
FC00
BE00
9EFC
9EBE
9F9E
9D9E
999E
911E
801E
843E
8C7C
9CF8
FFF0
ENDCHAR
STARTCHAR x
ENCODING 120
SWIDTH 1000 0
DWIDTH 16 0
BBX 15 14 0 -3
BITMAP
FE00
9FF8
8E78
C478
68F8
31F0
62F8
447C
463E
4F1E
4F9E
4FFE
6F00
3F00
ENDCHAR
STARTCHAR y
ENCODING 121
SWIDTH 1000 0
DWIDTH 16 0
BBX 13 14 0 -3
BITMAP
FFF8
BE78
9E78
8E78
C678
6278
3278
1A78
0E78
0278
0278
0278
0378
01F8
ENDCHAR
STARTCHAR z
ENCODING 122
SWIDTH 1000 0
DWIDTH 16 0
BBX 14 11 0 0
BITMAP
7FFC
C03C
803C
FE3C
0C7C
18F8
31F0
63F8
C078
80F8
FFF0
ENDCHAR
STARTCHAR .notdef
ENCODING -1
SWIDTH 1000 0
DWIDTH 16 0
BBX 1 1 0 0
BITMAP
00
ENDCHAR
STARTCHAR glyph00001
ENCODING -1
SWIDTH 1000 0
DWIDTH 16 0
BBX 1 1 0 0
BITMAP
00
ENDCHAR
ENDFONT
