STARTFONT 2.1
FONT Canyon Racer Game Over 3D bold-16px
SIZE 16 75 75
FONTBOUNDINGBOX 16 14 0 -3
STARTPROPERTIES 5
PIXEL_SIZE 16
FONT_ASCENT 16
FONT_DESCENT 0
CHARSET_REGISTRY "ISO10646"
CHARSET_ENCODING "1"
ENDPROPERTIES
CHARS 73
STARTCHAR space
ENCODING 32
SWIDTH 438 0
DWIDTH 7 0
BBX 1 1 0 0
BITMAP
00
ENDCHAR
STARTCHAR exclam
ENCODING 33
SWIDTH 562 0
DWIDTH 9 0
BBX 8 11 0 0
BITMAP
FF
8F
8F
8F
8F
8F
FF
FF
8F
8F
FF
ENDCHAR
STARTCHAR hyphen
ENCODING 45
SWIDTH 750 0
DWIDTH 12 0
BBX 11 4 0 3
BITMAP
FFE0
81E0
81E0
FFE0
ENDCHAR
STARTCHAR period
ENCODING 46
SWIDTH 562 0
DWIDTH 9 0
BBX 8 4 0 0
BITMAP
FF
8F
8F
FF
ENDCHAR
STARTCHAR slash
ENCODING 47
SWIDTH 750 0
DWIDTH 12 0
BBX 11 10 0 0
BITMAP
1FE0
11E0
31E0
23E0
63C0
47C0
C780
8F80
8F00
FF00
ENDCHAR
STARTCHAR zero
ENCODING 48
SWIDTH 875 0
DWIDTH 14 0
BBX 13 11 0 0
BITMAP
3FF8
6078
C078
8C78
8878
8078
8478
8C78
80F8
81F0
FFE0
ENDCHAR
STARTCHAR one
ENCODING 49
SWIDTH 688 0
DWIDTH 11 0
BBX 10 14 0 -3
BITMAP
3FC0
63C0
C3C0
83C0
E3C0
23C0
23C0
23C0
23C0
23C0
23C0
23C0
33C0
1FC0
ENDCHAR
STARTCHAR two
ENCODING 50
SWIDTH 938 0
DWIDTH 15 0
BBX 14 11 0 0
BITMAP
7FF0
C0F8
807C
FC3C
187C
30F8
61F0
C3F8
8078
80F8
FFF0
ENDCHAR
STARTCHAR three
ENCODING 51
SWIDTH 938 0
DWIDTH 15 0
BBX 14 11 0 0
BITMAP
7FFC
C03C
807C
F8F8
21F0
30F8
187C
7C3C
C03C
807C
FFF8
ENDCHAR
STARTCHAR four
ENCODING 52
SWIDTH 812 0
DWIDTH 13 0
BBX 12 14 0 -3
BITMAP
7FF0
C8F0
88F0
88F0
88F0
80F0
80F0
F8F0
08F0
08F0
08F0
08F0
0CF0
07F0
ENDCHAR
STARTCHAR five
ENCODING 53
SWIDTH 875 0
DWIDTH 14 0
BBX 13 11 0 0
BITMAP
FFF8
8078
80F8
8FF8
8078
8078
FC78
7878
C0F8
81F0
FFE0
ENDCHAR
STARTCHAR six
ENCODING 54
SWIDTH 875 0
DWIDTH 14 0
BBX 13 11 0 0
BITMAP
3FF8
6078
C0F8
8FF0
81F0
80F8
8878
8C78
80F8
81F0
FFE0
ENDCHAR
STARTCHAR seven
ENCODING 55
SWIDTH 875 0
DWIDTH 14 0
BBX 13 14 0 -3
BITMAP
7FF8
C078
8078
F8F8
18F0
11F0
31E0
23E0
23C0
23C0
23C0
23C0
33C0
1FC0
ENDCHAR
STARTCHAR eight
ENCODING 56
SWIDTH 875 0
DWIDTH 14 0
BBX 13 11 0 0
BITMAP
3FF8
6078
C078
8C78
8C78
C0F8
8C78
8C78
80F8
81F0
FFE0
ENDCHAR
STARTCHAR nine
ENCODING 57
SWIDTH 875 0
DWIDTH 14 0
BBX 13 14 0 -3
BITMAP
3FF8
6078
C078
8C78
8C78
8078
8078
FC78
0478
0478
0478
0478
0678
03F8
ENDCHAR
STARTCHAR colon
ENCODING 58
SWIDTH 562 0
DWIDTH 9 0
BBX 8 8 0 1
BITMAP
FF
8F
8F
FF
FF
8F
8F
FF
ENDCHAR
STARTCHAR question
ENCODING 63
SWIDTH 812 0
DWIDTH 13 0
BBX 12 11 0 0
BITMAP
7FF0
C0F0
80F0
98F0
F8F0
11F0
11E0
1FE0
11E0
11E0
1FE0
ENDCHAR
STARTCHAR A
ENCODING 65
SWIDTH 875 0
DWIDTH 14 0
BBX 13 14 0 -3
BITMAP
07F8
0C78
1878
3078
6078
C078
8478
8C78
8078
CC78
7C78
0478
0678
03F8
ENDCHAR
STARTCHAR B
ENCODING 66
SWIDTH 938 0
DWIDTH 15 0
BBX 14 14 0 -3
BITMAP
7FFC
C03C
803C
FC7C
88FC
803C
803C
8C7C
88F8
81F0
8FE0
8F00
CF00
7F00
ENDCHAR
STARTCHAR C
ENCODING 67
SWIDTH 938 0
DWIDTH 15 0
BBX 14 11 0 0
BITMAP
3FFC
603C
C07C
8FF8
8F00
8F00
8F00
8FF0
80F0
81F0
FFE0
ENDCHAR
STARTCHAR D
ENCODING 68
SWIDTH 938 0
DWIDTH 15 0
BBX 14 11 0 0
BITMAP
3FFC
603C
403C
7E3C
323C
223C
223C
623C
C07C
80F8
FFF0
ENDCHAR
STARTCHAR E
ENCODING 69
SWIDTH 875 0
DWIDTH 14 0
BBX 13 11 0 0
BITMAP
3FF8
6078
C0F8
8FF0
8FE0
81E0
83E0
8FF8
8078
80F8
FFF0
ENDCHAR
STARTCHAR F
ENCODING 70
SWIDTH 875 0
DWIDTH 14 0
BBX 13 14 0 -3
BITMAP
3FF8
6078
C0F8
8FF0
8FE0
81E0
83E0
8FC0
8F00
8F00
8F00
8F00
CF00
7F00
ENDCHAR
STARTCHAR G
ENCODING 71
SWIDTH 875 0
DWIDTH 14 0
BBX 13 14 0 -3
BITMAP
3FF8
6078
C0F8
8FF0
8FF8
8878
8878
8C78
8078
8078
FC78
0478
0678
03F8
ENDCHAR
STARTCHAR H
ENCODING 72
SWIDTH 875 0
DWIDTH 14 0
BBX 13 14 0 -3
BITMAP
FFF0
9CF8
8C78
8C78
8C78
8C78
8078
8078
8C78
CC78
7C78
0478
0678
03F8
ENDCHAR
STARTCHAR I
ENCODING 73
SWIDTH 562 0
DWIDTH 9 0
BBX 8 14 0 -3
BITMAP
FF
8F
8F
8F
8F
8F
8F
8F
8F
8F
8F
8F
CF
7F
ENDCHAR
STARTCHAR J
ENCODING 74
SWIDTH 1000 0
DWIDTH 16 0
BBX 15 11 0 0
BITMAP
3FFE
601E
401E
78FE
08F0
08F0
08F0
78F0
C0F0
81F0
FFE0
ENDCHAR
STARTCHAR K
ENCODING 75
SWIDTH 1000 0
DWIDTH 16 0
BBX 15 13 0 -2
BITMAP
7F00
CFF0
8CF0
88F0
81F0
83E0
81F0
80F8
887C
8C3E
FE1E
031E
01FE
ENDCHAR
STARTCHAR L
ENCODING 76
SWIDTH 875 0
DWIDTH 14 0
BBX 13 11 0 0
BITMAP
7F00
CF00
8F00
8F00
8F00
8F00
8F00
8FF8
8078
80F8
FFF0
ENDCHAR
STARTCHAR M
ENCODING 77
SWIDTH 1000 0
DWIDTH 16 0
BBX 15 14 0 -3
BITMAP
FFFE
8F1E
861E
801E
801E
801E
891E
8F1E
8F1E
CF1E
7F1E
011E
019E
00FE
ENDCHAR
STARTCHAR N
ENCODING 78
SWIDTH 875 0
DWIDTH 14 0
BBX 13 14 0 -3
BITMAP
FFF0
9CF8
8C78
8C78
8478
8078
8078
8078
8878
CC78
7C78
0478
0678
03F8
ENDCHAR
STARTCHAR O
ENCODING 79
SWIDTH 875 0
DWIDTH 14 0
BBX 13 11 0 0
BITMAP
3FF8
6078
C078
8C78
8C78
8C78
8C78
8C78
80F8
81F0
FFE0
ENDCHAR
STARTCHAR P
ENCODING 80
SWIDTH 875 0
DWIDTH 14 0
BBX 13 14 0 -3
BITMAP
7FF8
C078
8078
FC78
8078
8078
80F8
8FF0
8F00
8F00
8F00
8F00
CF00
7F00
ENDCHAR
STARTCHAR Q
ENCODING 81
SWIDTH 938 0
DWIDTH 15 0
BBX 14 12 0 -1
BITMAP
3FF8
6078
C078
8C78
8C78
8C78
8878
80F8
807C
843C
FE3C
03FC
ENDCHAR
STARTCHAR R
ENCODING 82
SWIDTH 1000 0
DWIDTH 16 0
BBX 15 14 0 -3
BITMAP
7FF8
C078
8078
FC78
8078
8078
80F8
887C
8C3E
8E1E
8F1E
8FFE
CF00
7F00
ENDCHAR
STARTCHAR S
ENCODING 83
SWIDTH 938 0
DWIDTH 15 0
BBX 14 12 0 -1
BITMAP
7FF8
C078
8078
FFF8
43E0
61F0
30F8
187C
3C3C
603C
407C
7FF8
ENDCHAR
STARTCHAR T
ENCODING 84
SWIDTH 938 0
DWIDTH 15 0
BBX 14 14 0 -3
BITMAP
7FFC
C03C
803C
FFFC
11E0
11E0
11E0
11E0
11E0
11E0
11E0
11E0
19E0
0FE0
ENDCHAR
STARTCHAR U
ENCODING 85
SWIDTH 875 0
DWIDTH 14 0
BBX 13 14 0 -3
BITMAP
7F00
CF00
8F00
8FF8
8C78
8C78
8C78
8C78
8078
C078
7C78
0478
0678
03F8
ENDCHAR
STARTCHAR V
ENCODING 86
SWIDTH 875 0
DWIDTH 14 0
BBX 13 14 0 -3
BITMAP
FF00
8F00
8FF8
8E78
8C78
8878
80F8
81F0
83E0
87C0
8F80
8F00
CF00
7F00
ENDCHAR
STARTCHAR W
ENCODING 87
SWIDTH 1062 0
DWIDTH 17 0
BBX 16 13 0 -2
BITMAP
FE00
9F00
8FFE
8F9F
8F8F
8C8F
888F
800F
800F
801F
843E
8C7C
FFF8
ENDCHAR
STARTCHAR X
ENCODING 88
SWIDTH 1062 0
DWIDTH 17 0
BBX 16 14 0 -3
BITMAP
FF00
8FFC
863C
C03C
607C
30F8
607C
403E
421F
470F
478F
47FF
6780
3F80
ENDCHAR
STARTCHAR Y
ENCODING 89
SWIDTH 938 0
DWIDTH 15 0
BBX 14 14 0 -3
BITMAP
FFFC
9E3C
8E3C
863C
C23C
603C
303C
183C
0E3C
023C
023C
023C
033C
01FC
ENDCHAR
STARTCHAR Z
ENCODING 90
SWIDTH 1000 0
DWIDTH 16 0
BBX 15 11 0 0
BITMAP
7FFE
C01E
801E
FE1E
0C3E
187C
30F8
61FC
C03C
807C
FFF8
ENDCHAR
STARTCHAR backslash
ENCODING 92
SWIDTH 750 0
DWIDTH 12 0
BBX 11 10 0 0
BITMAP
FF00
8F00
8F80
C780
47C0
63C0
23E0
31E0
11E0
1FE0
ENDCHAR
STARTCHAR underscore
ENCODING 95
SWIDTH 875 0
DWIDTH 14 0
BBX 13 3 0 -1
BITMAP
FFF8
8078
FFF8
ENDCHAR
STARTCHAR a
ENCODING 97
SWIDTH 875 0
DWIDTH 14 0
BBX 13 14 0 -3
BITMAP
07F8
0C78
1878
3078
6078
C078
8478
8C78
8078
CC78
7C78
0478
0678
03F8
ENDCHAR
STARTCHAR b
ENCODING 98
SWIDTH 938 0
DWIDTH 15 0
BBX 14 14 0 -3
BITMAP
7FFC
C03C
803C
FC7C
88FC
803C
803C
8C7C
88F8
81F0
8FE0
8F00
CF00
7F00
ENDCHAR
STARTCHAR c
ENCODING 99
SWIDTH 938 0
DWIDTH 15 0
BBX 14 11 0 0
BITMAP
3FFC
603C
C07C
8FF8
8F00
8F00
8F00
8FF0
80F0
81F0
FFE0
ENDCHAR
STARTCHAR d
ENCODING 100
SWIDTH 938 0
DWIDTH 15 0
BBX 14 11 0 0
BITMAP
3FFC
603C
403C
7E3C
323C
223C
223C
623C
C07C
80F8
FFF0
ENDCHAR
STARTCHAR e
ENCODING 101
SWIDTH 875 0
DWIDTH 14 0
BBX 13 11 0 0
BITMAP
3FF8
6078
C0F8
8FF0
8FE0
81E0
83E0
8FF8
8078
80F8
FFF0
ENDCHAR
STARTCHAR f
ENCODING 102
SWIDTH 875 0
DWIDTH 14 0
BBX 13 14 0 -3
BITMAP
3FF8
6078
C0F8
8FF0
8FE0
81E0
83E0
8FC0
8F00
8F00
8F00
8F00
CF00
7F00
ENDCHAR
STARTCHAR g
ENCODING 103
SWIDTH 875 0
DWIDTH 14 0
BBX 13 14 0 -3
BITMAP
3FF8
6078
C0F8
8FF0
8FF8
8878
8878
8C78
8078
8078
FC78
0478
0678
03F8
ENDCHAR
STARTCHAR h
ENCODING 104
SWIDTH 875 0
DWIDTH 14 0
BBX 13 14 0 -3
BITMAP
FFF0
9CF8
8C78
8C78
8C78
8C78
8078
8078
8C78
CC78
7C78
0478
0678
03F8
ENDCHAR
STARTCHAR i
ENCODING 105
SWIDTH 562 0
DWIDTH 9 0
BBX 8 14 0 -3
BITMAP
FF
8F
8F
8F
8F
8F
8F
8F
8F
8F
8F
8F
CF
7F
ENDCHAR
STARTCHAR j
ENCODING 106
SWIDTH 1000 0
DWIDTH 16 0
BBX 15 11 0 0
BITMAP
3FFE
601E
401E
78FE
08F0
08F0
08F0
78F0
C0F0
81F0
FFE0
ENDCHAR
STARTCHAR k
ENCODING 107
SWIDTH 1000 0
DWIDTH 16 0
BBX 15 13 0 -2
BITMAP
7F00
CFF0
8CF0
88F0
81F0
83E0
81F0
80F8
887C
8C3E
FE1E
031E
01FE
ENDCHAR
STARTCHAR l
ENCODING 108
SWIDTH 875 0
DWIDTH 14 0
BBX 13 11 0 0
BITMAP
7F00
CF00
8F00
8F00
8F00
8F00
8F00
8FF8
8078
80F8
FFF0
ENDCHAR
STARTCHAR m
ENCODING 109
SWIDTH 1000 0
DWIDTH 16 0
BBX 15 14 0 -3
BITMAP
FFFE
8F1E
861E
801E
801E
801E
891E
8F1E
8F1E
CF1E
7F1E
011E
019E
00FE
ENDCHAR
STARTCHAR n
ENCODING 110
SWIDTH 875 0
DWIDTH 14 0
BBX 13 14 0 -3
BITMAP
FFF0
9CF8
8C78
8C78
8478
8078
8078
8078
8878
CC78
7C78
0478
0678
03F8
ENDCHAR
STARTCHAR o
ENCODING 111
SWIDTH 875 0
DWIDTH 14 0
BBX 13 11 0 0
BITMAP
3FF8
6078
C078
8C78
8C78
8C78
8C78
8C78
80F8
81F0
FFE0
ENDCHAR
STARTCHAR p
ENCODING 112
SWIDTH 875 0
DWIDTH 14 0
BBX 13 14 0 -3
BITMAP
7FF8
C078
8078
FC78
8078
8078
80F8
8FF0
8F00
8F00
8F00
8F00
CF00
7F00
ENDCHAR
STARTCHAR q
ENCODING 113
SWIDTH 938 0
DWIDTH 15 0
BBX 14 12 0 -1
BITMAP
3FF8
6078
C078
8C78
8C78
8C78
8878
80F8
807C
843C
FE3C
03FC
ENDCHAR
STARTCHAR r
ENCODING 114
SWIDTH 1000 0
DWIDTH 16 0
BBX 15 14 0 -3
BITMAP
7FF8
C078
8078
FC78
8078
8078
80F8
887C
8C3E
8E1E
8F1E
8FFE
CF00
7F00
ENDCHAR
STARTCHAR s
ENCODING 115
SWIDTH 938 0
DWIDTH 15 0
BBX 14 12 0 -1
BITMAP
7FF8
C078
8078
FFF8
43E0
61F0
30F8
187C
3C3C
603C
407C
7FF8
ENDCHAR
STARTCHAR t
ENCODING 116
SWIDTH 938 0
DWIDTH 15 0
BBX 14 14 0 -3
BITMAP
7FFC
C03C
803C
FFFC
11E0
11E0
11E0
11E0
11E0
11E0
11E0
11E0
19E0
0FE0
ENDCHAR
STARTCHAR u
ENCODING 117
SWIDTH 875 0
DWIDTH 14 0
BBX 13 14 0 -3
BITMAP
7F00
CF00
8F00
8FF8
8C78
8C78
8C78
8C78
8078
C078
7C78
0478
0678
03F8
ENDCHAR
STARTCHAR v
ENCODING 118
SWIDTH 875 0
DWIDTH 14 0
BBX 13 14 0 -3
BITMAP
FF00
8F00
8FF8
8E78
8C78
8878
80F8
81F0
83E0
87C0
8F80
8F00
CF00
7F00
ENDCHAR
STARTCHAR w
ENCODING 119
SWIDTH 1062 0
DWIDTH 17 0
BBX 16 13 0 -2
BITMAP
FE00
9F00
8FFE
8F9F
8F8F
8C8F
888F
800F
800F
801F
843E
8C7C
FFF8
ENDCHAR
STARTCHAR x
ENCODING 120
SWIDTH 1062 0
DWIDTH 17 0
BBX 16 14 0 -3
BITMAP
FF00
8FFC
863C
C03C
607C
30F8
607C
403E
421F
470F
478F
47FF
6780
3F80
ENDCHAR
STARTCHAR y
ENCODING 121
SWIDTH 938 0
DWIDTH 15 0
BBX 14 14 0 -3
BITMAP
FFFC
9E3C
8E3C
863C
C23C
603C
303C
183C
0E3C
023C
023C
023C
033C
01FC
ENDCHAR
STARTCHAR z
ENCODING 122
SWIDTH 1000 0
DWIDTH 16 0
BBX 15 11 0 0
BITMAP
7FFE
C01E
801E
FE1E
0C3E
187C
30F8
61FC
C03C
807C
FFF8
ENDCHAR
STARTCHAR .notdef
ENCODING -1
SWIDTH 62 0
DWIDTH 1 0
BBX 1 1 0 0
BITMAP
00
ENDCHAR
STARTCHAR glyph00001
ENCODING -1
SWIDTH 62 0
DWIDTH 1 0
BBX 1 1 0 0
BITMAP
00
ENDCHAR
ENDFONT
