STARTFONT 2.1
FONT Canyon Racer Game Over Bold mono-16px
SIZE 16 75 75
FONTBOUNDINGBOX 11 12 0 -3
STARTPROPERTIES 5
PIXEL_SIZE 16
FONT_ASCENT 16
FONT_DESCENT 0
CHARSET_REGISTRY "ISO10646"
CHARSET_ENCODING "1"
ENDPROPERTIES
CHARS 73
STARTCHAR space
ENCODING 32
SWIDTH 1000 0
DWIDTH 16 0
BBX 1 1 0 0
BITMAP
00
ENDCHAR
STARTCHAR exclam
ENCODING 33
SWIDTH 1000 0
DWIDTH 16 0
BBX 3 9 0 0
BITMAP
E0
E0
E0
E0
E0
00
00
E0
E0
ENDCHAR
STARTCHAR hyphen
ENCODING 45
SWIDTH 1000 0
DWIDTH 16 0
BBX 6 2 0 3
BITMAP
FC
FC
ENDCHAR
STARTCHAR period
ENCODING 46
SWIDTH 1000 0
DWIDTH 16 0
BBX 3 2 0 0
BITMAP
E0
E0
ENDCHAR
STARTCHAR slash
ENCODING 47
SWIDTH 1000 0
DWIDTH 16 0
BBX 6 8 0 0
BITMAP
1C
1C
38
38
70
70
E0
E0
ENDCHAR
STARTCHAR zero
ENCODING 48
SWIDTH 1000 0
DWIDTH 16 0
BBX 8 9 0 0
BITMAP
3F
7F
E7
EF
FF
F7
E7
FE
FC
ENDCHAR
STARTCHAR one
ENCODING 49
SWIDTH 1000 0
DWIDTH 16 0
BBX 5 12 0 -3
BITMAP
38
78
F8
38
38
38
38
38
38
38
38
18
ENDCHAR
STARTCHAR two
ENCODING 50
SWIDTH 1000 0
DWIDTH 16 0
BBX 9 9 0 0
BITMAP
7E00
FF00
0780
0F00
1E00
3C00
7800
FF00
FE00
ENDCHAR
STARTCHAR three
ENCODING 51
SWIDTH 1000 0
DWIDTH 16 0
BBX 9 9 0 0
BITMAP
7F80
FF00
0E00
3C00
1E00
0F00
0780
7F80
FF00
ENDCHAR
STARTCHAR four
ENCODING 52
SWIDTH 1000 0
DWIDTH 16 0
BBX 7 12 0 -3
BITMAP
6E
EE
EE
EE
FE
FE
0E
0E
0E
0E
0E
06
ENDCHAR
STARTCHAR five
ENCODING 53
SWIDTH 1000 0
DWIDTH 16 0
BBX 8 9 0 0
BITMAP
FF
FE
E0
FF
FF
07
0F
7E
FC
ENDCHAR
STARTCHAR six
ENCODING 54
SWIDTH 1000 0
DWIDTH 16 0
BBX 8 9 0 0
BITMAP
3F
7E
E0
FC
FE
EF
E7
FE
FC
ENDCHAR
STARTCHAR seven
ENCODING 55
SWIDTH 1000 0
DWIDTH 16 0
BBX 8 12 0 -3
BITMAP
7F
FF
0E
0E
1C
1C
38
38
38
38
38
18
ENDCHAR
STARTCHAR eight
ENCODING 56
SWIDTH 1000 0
DWIDTH 16 0
BBX 8 9 0 0
BITMAP
3F
7F
E7
E7
7E
E7
E7
FE
FC
ENDCHAR
STARTCHAR nine
ENCODING 57
SWIDTH 1000 0
DWIDTH 16 0
BBX 8 12 0 -3
BITMAP
3F
7F
E7
E7
FF
FF
07
07
07
07
07
03
ENDCHAR
STARTCHAR colon
ENCODING 58
SWIDTH 1000 0
DWIDTH 16 0
BBX 3 6 0 1
BITMAP
E0
E0
00
00
E0
E0
ENDCHAR
STARTCHAR question
ENCODING 63
SWIDTH 1000 0
DWIDTH 16 0
BBX 7 9 0 0
BITMAP
7E
FE
CE
0E
1C
1C
00
1C
1C
ENDCHAR
STARTCHAR A
ENCODING 65
SWIDTH 1000 0
DWIDTH 16 0
BBX 8 12 0 -3
BITMAP
07
0F
1F
3F
7F
F7
E7
FF
67
07
07
03
ENDCHAR
STARTCHAR B
ENCODING 66
SWIDTH 1000 0
DWIDTH 16 0
BBX 9 12 0 -3
BITMAP
7F80
FF80
0700
EE00
FF80
FF80
E700
EE00
FC00
E000
E000
6000
ENDCHAR
STARTCHAR C
ENCODING 67
SWIDTH 1000 0
DWIDTH 16 0
BBX 9 9 0 0
BITMAP
3F80
7F00
E000
E000
E000
E000
E000
FE00
FC00
ENDCHAR
STARTCHAR D
ENCODING 68
SWIDTH 1000 0
DWIDTH 16 0
BBX 9 9 0 0
BITMAP
3F80
7F80
0380
1B80
3B80
3B80
3B80
7F00
FE00
ENDCHAR
STARTCHAR E
ENCODING 69
SWIDTH 1000 0
DWIDTH 16 0
BBX 8 9 0 0
BITMAP
3F
7E
E0
E0
FC
F8
E0
FF
FE
ENDCHAR
STARTCHAR F
ENCODING 70
SWIDTH 1000 0
DWIDTH 16 0
BBX 8 12 0 -3
BITMAP
3F
7E
E0
E0
FC
F8
E0
E0
E0
E0
E0
60
ENDCHAR
STARTCHAR G
ENCODING 71
SWIDTH 1000 0
DWIDTH 16 0
BBX 8 12 0 -3
BITMAP
3F
7E
E0
E0
EF
EF
E7
FF
FF
07
07
03
ENDCHAR
STARTCHAR H
ENCODING 72
SWIDTH 1000 0
DWIDTH 16 0
BBX 8 12 0 -3
BITMAP
C6
E7
E7
E7
E7
FF
FF
E7
67
07
07
03
ENDCHAR
STARTCHAR I
ENCODING 73
SWIDTH 1000 0
DWIDTH 16 0
BBX 3 12 0 -3
BITMAP
E0
E0
E0
E0
E0
E0
E0
E0
E0
E0
E0
60
ENDCHAR
STARTCHAR J
ENCODING 74
SWIDTH 1000 0
DWIDTH 16 0
BBX 10 9 0 0
BITMAP
3FC0
7FC0
0E00
0E00
0E00
0E00
0E00
7E00
FC00
ENDCHAR
STARTCHAR K
ENCODING 75
SWIDTH 1000 0
DWIDTH 16 0
BBX 10 11 0 -2
BITMAP
6000
E600
EE00
FC00
F800
FC00
FE00
EF00
E780
03C0
01C0
ENDCHAR
STARTCHAR L
ENCODING 76
SWIDTH 1000 0
DWIDTH 16 0
BBX 8 9 0 0
BITMAP
60
E0
E0
E0
E0
E0
E0
FF
FE
ENDCHAR
STARTCHAR M
ENCODING 77
SWIDTH 1000 0
DWIDTH 16 0
BBX 10 12 0 -3
BITMAP
E1C0
F3C0
FFC0
FFC0
FFC0
EDC0
E1C0
E1C0
61C0
01C0
01C0
00C0
ENDCHAR
STARTCHAR N
ENCODING 78
SWIDTH 1000 0
DWIDTH 16 0
BBX 8 12 0 -3
BITMAP
C6
E7
E7
F7
FF
FF
FF
EF
67
07
07
03
ENDCHAR
STARTCHAR O
ENCODING 79
SWIDTH 1000 0
DWIDTH 16 0
BBX 8 9 0 0
BITMAP
3F
7F
E7
E7
E7
E7
E7
FE
FC
ENDCHAR
STARTCHAR P
ENCODING 80
SWIDTH 1000 0
DWIDTH 16 0
BBX 8 12 0 -3
BITMAP
7F
FF
07
FF
FF
FE
E0
E0
E0
E0
E0
60
ENDCHAR
STARTCHAR Q
ENCODING 81
SWIDTH 1000 0
DWIDTH 16 0
BBX 9 10 0 -1
BITMAP
3F00
7F00
E700
E700
E700
EF00
FE00
FF00
F780
0380
ENDCHAR
STARTCHAR R
ENCODING 82
SWIDTH 1000 0
DWIDTH 16 0
BBX 10 12 0 -3
BITMAP
7F00
FF00
0700
FF00
FF00
FE00
EF00
E780
E3C0
E1C0
E000
6000
ENDCHAR
STARTCHAR S
ENCODING 83
SWIDTH 1000 0
DWIDTH 16 0
BBX 9 10 0 -1
BITMAP
7F00
FF00
0000
7800
3C00
1E00
0F00
0780
3F80
7F00
ENDCHAR
STARTCHAR T
ENCODING 84
SWIDTH 1000 0
DWIDTH 16 0
BBX 9 12 0 -3
BITMAP
7F80
FF80
0000
1C00
1C00
1C00
1C00
1C00
1C00
1C00
1C00
0C00
ENDCHAR
STARTCHAR U
ENCODING 85
SWIDTH 1000 0
DWIDTH 16 0
BBX 8 12 0 -3
BITMAP
60
E0
E0
E7
E7
E7
E7
FF
7F
07
07
03
ENDCHAR
STARTCHAR V
ENCODING 86
SWIDTH 1000 0
DWIDTH 16 0
BBX 8 12 0 -3
BITMAP
E0
E0
E3
E7
EF
FE
FC
F8
F0
E0
E0
60
ENDCHAR
STARTCHAR W
ENCODING 87
SWIDTH 1000 0
DWIDTH 16 0
BBX 11 11 0 -2
BITMAP
C000
E000
E0C0
E0E0
E6E0
EEE0
FFE0
FFE0
FFC0
F780
E700
ENDCHAR
STARTCHAR X
ENCODING 88
SWIDTH 1000 0
DWIDTH 16 0
BBX 11 12 0 -3
BITMAP
E000
F380
7F80
3F00
1E00
3F00
7F80
7BC0
71E0
70E0
7000
3000
ENDCHAR
STARTCHAR Y
ENCODING 89
SWIDTH 1000 0
DWIDTH 16 0
BBX 9 12 0 -3
BITMAP
C380
E380
F380
7B80
3F80
1F80
0F80
0380
0380
0380
0380
0180
ENDCHAR
STARTCHAR Z
ENCODING 90
SWIDTH 1000 0
DWIDTH 16 0
BBX 10 9 0 0
BITMAP
7FC0
FFC0
03C0
0780
0F00
1E00
3C00
7F80
FF00
ENDCHAR
STARTCHAR backslash
ENCODING 92
SWIDTH 1000 0
DWIDTH 16 0
BBX 6 8 0 0
BITMAP
E0
E0
70
70
38
38
1C
1C
ENDCHAR
STARTCHAR underscore
ENCODING 95
SWIDTH 1000 0
DWIDTH 16 0
BBX 8 1 0 -1
BITMAP
FF
ENDCHAR
STARTCHAR a
ENCODING 97
SWIDTH 1000 0
DWIDTH 16 0
BBX 8 12 0 -3
BITMAP
07
0F
1F
3F
7F
F7
E7
FF
67
07
07
03
ENDCHAR
STARTCHAR b
ENCODING 98
SWIDTH 1000 0
DWIDTH 16 0
BBX 9 12 0 -3
BITMAP
7F80
FF80
0700
EE00
FF80
FF80
E700
EE00
FC00
E000
E000
6000
ENDCHAR
STARTCHAR c
ENCODING 99
SWIDTH 1000 0
DWIDTH 16 0
BBX 9 9 0 0
BITMAP
3F80
7F00
E000
E000
E000
E000
E000
FE00
FC00
ENDCHAR
STARTCHAR d
ENCODING 100
SWIDTH 1000 0
DWIDTH 16 0
BBX 9 9 0 0
BITMAP
3F80
7F80
0380
1B80
3B80
3B80
3B80
7F00
FE00
ENDCHAR
STARTCHAR e
ENCODING 101
SWIDTH 1000 0
DWIDTH 16 0
BBX 8 9 0 0
BITMAP
3F
7E
E0
E0
FC
F8
E0
FF
FE
ENDCHAR
STARTCHAR f
ENCODING 102
SWIDTH 1000 0
DWIDTH 16 0
BBX 8 12 0 -3
BITMAP
3F
7E
E0
E0
FC
F8
E0
E0
E0
E0
E0
60
ENDCHAR
STARTCHAR g
ENCODING 103
SWIDTH 1000 0
DWIDTH 16 0
BBX 8 12 0 -3
BITMAP
3F
7E
E0
E0
EF
EF
E7
FF
FF
07
07
03
ENDCHAR
STARTCHAR h
ENCODING 104
SWIDTH 1000 0
DWIDTH 16 0
BBX 8 12 0 -3
BITMAP
C6
E7
E7
E7
E7
FF
FF
E7
67
07
07
03
ENDCHAR
STARTCHAR i
ENCODING 105
SWIDTH 1000 0
DWIDTH 16 0
BBX 3 12 0 -3
BITMAP
E0
E0
E0
E0
E0
E0
E0
E0
E0
E0
E0
60
ENDCHAR
STARTCHAR j
ENCODING 106
SWIDTH 1000 0
DWIDTH 16 0
BBX 10 9 0 0
BITMAP
3FC0
7FC0
0E00
0E00
0E00
0E00
0E00
7E00
FC00
ENDCHAR
STARTCHAR k
ENCODING 107
SWIDTH 1000 0
DWIDTH 16 0
BBX 10 11 0 -2
BITMAP
6000
E600
EE00
FC00
F800
FC00
FE00
EF00
E780
03C0
01C0
ENDCHAR
STARTCHAR l
ENCODING 108
SWIDTH 1000 0
DWIDTH 16 0
BBX 8 9 0 0
BITMAP
60
E0
E0
E0
E0
E0
E0
FF
FE
ENDCHAR
STARTCHAR m
ENCODING 109
SWIDTH 1000 0
DWIDTH 16 0
BBX 10 12 0 -3
BITMAP
E1C0
F3C0
FFC0
FFC0
FFC0
EDC0
E1C0
E1C0
61C0
01C0
01C0
00C0
ENDCHAR
STARTCHAR n
ENCODING 110
SWIDTH 1000 0
DWIDTH 16 0
BBX 8 12 0 -3
BITMAP
C6
E7
E7
F7
FF
FF
FF
EF
67
07
07
03
ENDCHAR
STARTCHAR o
ENCODING 111
SWIDTH 1000 0
DWIDTH 16 0
BBX 8 9 0 0
BITMAP
3F
7F
E7
E7
E7
E7
E7
FE
FC
ENDCHAR
STARTCHAR p
ENCODING 112
SWIDTH 1000 0
DWIDTH 16 0
BBX 8 12 0 -3
BITMAP
7F
FF
07
FF
FF
FE
E0
E0
E0
E0
E0
60
ENDCHAR
STARTCHAR q
ENCODING 113
SWIDTH 1000 0
DWIDTH 16 0
BBX 9 10 0 -1
BITMAP
3F00
7F00
E700
E700
E700
EF00
FE00
FF00
F780
0380
ENDCHAR
STARTCHAR r
ENCODING 114
SWIDTH 1000 0
DWIDTH 16 0
BBX 10 12 0 -3
BITMAP
7F00
FF00
0700
FF00
FF00
FE00
EF00
E780
E3C0
E1C0
E000
6000
ENDCHAR
STARTCHAR s
ENCODING 115
SWIDTH 1000 0
DWIDTH 16 0
BBX 9 10 0 -1
BITMAP
7F00
FF00
0000
7800
3C00
1E00
0F00
0780
3F80
7F00
ENDCHAR
STARTCHAR t
ENCODING 116
SWIDTH 1000 0
DWIDTH 16 0
BBX 9 12 0 -3
BITMAP
7F80
FF80
0000
1C00
1C00
1C00
1C00
1C00
1C00
1C00
1C00
0C00
ENDCHAR
STARTCHAR u
ENCODING 117
SWIDTH 1000 0
DWIDTH 16 0
BBX 8 12 0 -3
BITMAP
60
E0
E0
E7
E7
E7
E7
FF
7F
07
07
03
ENDCHAR
STARTCHAR v
ENCODING 118
SWIDTH 1000 0
DWIDTH 16 0
BBX 8 12 0 -3
BITMAP
E0
E0
E3
E7
EF
FE
FC
F8
F0
E0
E0
60
ENDCHAR
STARTCHAR w
ENCODING 119
SWIDTH 1000 0
DWIDTH 16 0
BBX 11 11 0 -2
BITMAP
C000
E000
E0C0
E0E0
E6E0
EEE0
FFE0
FFE0
FFC0
F780
E700
ENDCHAR
STARTCHAR x
ENCODING 120
SWIDTH 1000 0
DWIDTH 16 0
BBX 11 12 0 -3
BITMAP
E000
F380
7F80
3F00
1E00
3F00
7F80
7BC0
71E0
70E0
7000
3000
ENDCHAR
STARTCHAR y
ENCODING 121
SWIDTH 1000 0
DWIDTH 16 0
BBX 9 12 0 -3
BITMAP
C380
E380
F380
7B80
3F80
1F80
0F80
0380
0380
0380
0380
0180
ENDCHAR
STARTCHAR z
ENCODING 122
SWIDTH 1000 0
DWIDTH 16 0
BBX 10 9 0 0
BITMAP
7FC0
FFC0
03C0
0780
0F00
1E00
3C00
7F80
FF00
ENDCHAR
STARTCHAR .notdef
ENCODING -1
SWIDTH 1000 0
DWIDTH 16 0
BBX 1 1 0 0
BITMAP
00
ENDCHAR
STARTCHAR glyph00001
ENCODING -1
SWIDTH 1000 0
DWIDTH 16 0
BBX 1 1 0 0
BITMAP
00
ENDCHAR
ENDFONT
