STARTFONT 2.1
FONT Canyon Racer Game Over-16px
SIZE 16 75 75
FONTBOUNDINGBOX 10 12 0 -3
STARTPROPERTIES 5
PIXEL_SIZE 16
FONT_ASCENT 16
FONT_DESCENT 0
CHARSET_REGISTRY "ISO10646"
CHARSET_ENCODING "1"
ENDPROPERTIES
CHARS 73
STARTCHAR space
ENCODING 32
SWIDTH 312 0
DWIDTH 5 0
BBX 1 1 0 0
BITMAP
00
ENDCHAR
STARTCHAR exclam
ENCODING 33
SWIDTH 188 0
DWIDTH 3 0
BBX 2 9 0 0
BITMAP
C0
C0
C0
C0
C0
00
00
C0
C0
ENDCHAR
STARTCHAR hyphen
ENCODING 45
SWIDTH 375 0
DWIDTH 6 0
BBX 5 2 0 3
BITMAP
F8
F8
ENDCHAR
STARTCHAR period
ENCODING 46
SWIDTH 188 0
DWIDTH 3 0
BBX 2 2 0 0
BITMAP
C0
C0
ENDCHAR
STARTCHAR slash
ENCODING 47
SWIDTH 375 0
DWIDTH 6 0
BBX 5 8 0 0
BITMAP
18
18
30
30
60
60
C0
C0
ENDCHAR
STARTCHAR zero
ENCODING 48
SWIDTH 500 0
DWIDTH 8 0
BBX 7 9 0 0
BITMAP
3E
7E
C6
CE
D6
E6
C6
FC
F8
ENDCHAR
STARTCHAR one
ENCODING 49
SWIDTH 312 0
DWIDTH 5 0
BBX 4 12 0 -3
BITMAP
30
70
F0
30
30
30
30
30
30
30
30
10
ENDCHAR
STARTCHAR two
ENCODING 50
SWIDTH 562 0
DWIDTH 9 0
BBX 8 9 0 0
BITMAP
7C
FE
07
0E
1C
38
70
FE
FC
ENDCHAR
STARTCHAR three
ENCODING 51
SWIDTH 562 0
DWIDTH 9 0
BBX 8 9 0 0
BITMAP
7F
FE
0C
38
1C
0E
07
7F
FE
ENDCHAR
STARTCHAR four
ENCODING 52
SWIDTH 438 0
DWIDTH 7 0
BBX 6 12 0 -3
BITMAP
4C
CC
CC
CC
EC
EC
0C
0C
0C
0C
0C
04
ENDCHAR
STARTCHAR five
ENCODING 53
SWIDTH 500 0
DWIDTH 8 0
BBX 7 9 0 0
BITMAP
FE
FC
C0
FE
FE
06
0E
7C
F8
ENDCHAR
STARTCHAR six
ENCODING 54
SWIDTH 500 0
DWIDTH 8 0
BBX 7 9 0 0
BITMAP
3E
7C
C0
C0
DC
CE
C6
FC
F8
ENDCHAR
STARTCHAR seven
ENCODING 55
SWIDTH 500 0
DWIDTH 8 0
BBX 7 12 0 -3
BITMAP
7E
FE
0C
0C
18
18
30
30
30
30
30
10
ENDCHAR
STARTCHAR eight
ENCODING 56
SWIDTH 500 0
DWIDTH 8 0
BBX 7 9 0 0
BITMAP
3E
7E
C6
C6
7C
C6
C6
FC
F8
ENDCHAR
STARTCHAR nine
ENCODING 57
SWIDTH 500 0
DWIDTH 8 0
BBX 7 12 0 -3
BITMAP
3E
7E
C6
C6
FE
FE
06
06
06
06
06
02
ENDCHAR
STARTCHAR colon
ENCODING 58
SWIDTH 188 0
DWIDTH 3 0
BBX 2 6 0 1
BITMAP
C0
C0
00
00
C0
C0
ENDCHAR
STARTCHAR question
ENCODING 63
SWIDTH 438 0
DWIDTH 7 0
BBX 6 9 0 0
BITMAP
7C
FC
8C
0C
18
18
00
18
18
ENDCHAR
STARTCHAR A
ENCODING 65
SWIDTH 500 0
DWIDTH 8 0
BBX 7 12 0 -3
BITMAP
06
0E
1E
3E
76
E6
C6
DE
46
06
06
02
ENDCHAR
STARTCHAR B
ENCODING 66
SWIDTH 562 0
DWIDTH 9 0
BBX 8 12 0 -3
BITMAP
7F
FF
06
CC
DF
DF
C6
CC
F8
C0
C0
40
ENDCHAR
STARTCHAR C
ENCODING 67
SWIDTH 562 0
DWIDTH 9 0
BBX 8 9 0 0
BITMAP
3F
7E
C0
C0
C0
C0
C0
FC
F8
ENDCHAR
STARTCHAR D
ENCODING 68
SWIDTH 562 0
DWIDTH 9 0
BBX 8 9 0 0
BITMAP
3F
7F
03
13
33
33
33
7E
FC
ENDCHAR
STARTCHAR E
ENCODING 69
SWIDTH 500 0
DWIDTH 8 0
BBX 7 9 0 0
BITMAP
3E
7C
C0
C0
F8
F0
C0
FE
FC
ENDCHAR
STARTCHAR F
ENCODING 70
SWIDTH 500 0
DWIDTH 8 0
BBX 7 12 0 -3
BITMAP
3E
7C
C0
C0
F8
F0
C0
C0
C0
C0
C0
40
ENDCHAR
STARTCHAR G
ENCODING 71
SWIDTH 500 0
DWIDTH 8 0
BBX 7 12 0 -3
BITMAP
3E
7C
C0
C0
DE
DE
C6
F6
F6
06
06
02
ENDCHAR
STARTCHAR H
ENCODING 72
SWIDTH 500 0
DWIDTH 8 0
BBX 7 12 0 -3
BITMAP
84
C6
C6
C6
C6
FE
FE
C6
46
06
06
02
ENDCHAR
STARTCHAR I
ENCODING 73
SWIDTH 188 0
DWIDTH 3 0
BBX 2 12 0 -3
BITMAP
C0
C0
C0
C0
C0
C0
C0
C0
C0
C0
C0
40
ENDCHAR
STARTCHAR J
ENCODING 74
SWIDTH 625 0
DWIDTH 10 0
BBX 9 9 0 0
BITMAP
3F80
7F80
0C00
0C00
0C00
0C00
0C00
7C00
F800
ENDCHAR
STARTCHAR K
ENCODING 75
SWIDTH 625 0
DWIDTH 10 0
BBX 9 11 0 -2
BITMAP
4000
C400
CC00
D800
D000
D800
DC00
CE00
C700
0380
0180
ENDCHAR
STARTCHAR L
ENCODING 76
SWIDTH 500 0
DWIDTH 8 0
BBX 7 9 0 0
BITMAP
40
C0
C0
C0
C0
C0
C0
FE
FC
ENDCHAR
STARTCHAR M
ENCODING 77
SWIDTH 625 0
DWIDTH 10 0
BBX 9 12 0 -3
BITMAP
C180
E380
F780
FF80
DD80
C980
C180
C180
4180
0180
0180
0080
ENDCHAR
STARTCHAR N
ENCODING 78
SWIDTH 500 0
DWIDTH 8 0
BBX 7 12 0 -3
BITMAP
84
C6
C6
E6
F6
FE
DE
CE
46
06
06
02
ENDCHAR
STARTCHAR O
ENCODING 79
SWIDTH 500 0
DWIDTH 8 0
BBX 7 9 0 0
BITMAP
3E
7E
C6
C6
C6
C6
C6
FC
F8
ENDCHAR
STARTCHAR P
ENCODING 80
SWIDTH 500 0
DWIDTH 8 0
BBX 7 12 0 -3
BITMAP
7E
FE
06
06
FE
FC
C0
C0
C0
C0
C0
40
ENDCHAR
STARTCHAR Q
ENCODING 81
SWIDTH 562 0
DWIDTH 9 0
BBX 8 10 0 -1
BITMAP
3E
7E
C6
C6
C6
CA
DC
EE
F7
03
ENDCHAR
STARTCHAR R
ENCODING 82
SWIDTH 625 0
DWIDTH 10 0
BBX 9 12 0 -3
BITMAP
7E00
FE00
0600
0600
FE00
FC00
CE00
C700
C380
C180
C000
4000
ENDCHAR
STARTCHAR S
ENCODING 83
SWIDTH 562 0
DWIDTH 9 0
BBX 8 10 0 -1
BITMAP
7E
FE
00
70
38
1C
0E
07
3F
7E
ENDCHAR
STARTCHAR T
ENCODING 84
SWIDTH 562 0
DWIDTH 9 0
BBX 8 12 0 -3
BITMAP
7F
FF
00
18
18
18
18
18
18
18
18
08
ENDCHAR
STARTCHAR U
ENCODING 85
SWIDTH 500 0
DWIDTH 8 0
BBX 7 12 0 -3
BITMAP
40
C0
C0
C6
C6
C6
C6
F6
76
06
06
02
ENDCHAR
STARTCHAR V
ENCODING 86
SWIDTH 500 0
DWIDTH 8 0
BBX 7 12 0 -3
BITMAP
C0
C0
C2
C6
CE
DC
F8
F0
E0
C0
C0
40
ENDCHAR
STARTCHAR W
ENCODING 87
SWIDTH 688 0
DWIDTH 11 0
BBX 10 11 0 -2
BITMAP
8000
C000
C080
C0C0
C4C0
CCC0
DDC0
FFC0
F780
E700
C600
ENDCHAR
STARTCHAR X
ENCODING 88
SWIDTH 688 0
DWIDTH 11 0
BBX 10 12 0 -3
BITMAP
C000
E300
7700
2E00
1C00
3A00
7700
7380
61C0
60C0
6000
2000
ENDCHAR
STARTCHAR Y
ENCODING 89
SWIDTH 562 0
DWIDTH 9 0
BBX 8 12 0 -3
BITMAP
83
C3
E3
73
3B
1B
0B
03
03
03
03
01
ENDCHAR
STARTCHAR Z
ENCODING 90
SWIDTH 625 0
DWIDTH 10 0
BBX 9 9 0 0
BITMAP
7F80
FF80
0380
0700
0E00
1C00
3800
7F00
FE00
ENDCHAR
STARTCHAR backslash
ENCODING 92
SWIDTH 375 0
DWIDTH 6 0
BBX 5 8 0 0
BITMAP
C0
C0
60
60
30
30
18
18
ENDCHAR
STARTCHAR underscore
ENCODING 95
SWIDTH 500 0
DWIDTH 8 0
BBX 7 1 0 -1
BITMAP
FE
ENDCHAR
STARTCHAR a
ENCODING 97
SWIDTH 500 0
DWIDTH 8 0
BBX 7 12 0 -3
BITMAP
06
0E
1E
3E
76
E6
C6
DE
46
06
06
02
ENDCHAR
STARTCHAR b
ENCODING 98
SWIDTH 562 0
DWIDTH 9 0
BBX 8 12 0 -3
BITMAP
7F
FF
06
CC
DF
DF
C6
CC
F8
C0
C0
40
ENDCHAR
STARTCHAR c
ENCODING 99
SWIDTH 562 0
DWIDTH 9 0
BBX 8 9 0 0
BITMAP
3F
7E
C0
C0
C0
C0
C0
FC
F8
ENDCHAR
STARTCHAR d
ENCODING 100
SWIDTH 562 0
DWIDTH 9 0
BBX 8 9 0 0
BITMAP
3F
7F
03
13
33
33
33
7E
FC
ENDCHAR
STARTCHAR e
ENCODING 101
SWIDTH 500 0
DWIDTH 8 0
BBX 7 9 0 0
BITMAP
3E
7C
C0
C0
F8
F0
C0
FE
FC
ENDCHAR
STARTCHAR f
ENCODING 102
SWIDTH 500 0
DWIDTH 8 0
BBX 7 12 0 -3
BITMAP
3E
7C
C0
C0
F8
F0
C0
C0
C0
C0
C0
40
ENDCHAR
STARTCHAR g
ENCODING 103
SWIDTH 500 0
DWIDTH 8 0
BBX 7 12 0 -3
BITMAP
3E
7C
C0
C0
DE
DE
C6
F6
F6
06
06
02
ENDCHAR
STARTCHAR h
ENCODING 104
SWIDTH 500 0
DWIDTH 8 0
BBX 7 12 0 -3
BITMAP
84
C6
C6
C6
C6
FE
FE
C6
46
06
06
02
ENDCHAR
STARTCHAR i
ENCODING 105
SWIDTH 188 0
DWIDTH 3 0
BBX 2 12 0 -3
BITMAP
C0
C0
C0
C0
C0
C0
C0
C0
C0
C0
C0
40
ENDCHAR
STARTCHAR j
ENCODING 106
SWIDTH 625 0
DWIDTH 10 0
BBX 9 9 0 0
BITMAP
3F80
7F80
0C00
0C00
0C00
0C00
0C00
7C00
F800
ENDCHAR
STARTCHAR k
ENCODING 107
SWIDTH 625 0
DWIDTH 10 0
BBX 9 11 0 -2
BITMAP
4000
C400
CC00
D800
D000
D800
DC00
CE00
C700
0380
0180
ENDCHAR
STARTCHAR l
ENCODING 108
SWIDTH 500 0
DWIDTH 8 0
BBX 7 9 0 0
BITMAP
40
C0
C0
C0
C0
C0
C0
FE
FC
ENDCHAR
STARTCHAR m
ENCODING 109
SWIDTH 625 0
DWIDTH 10 0
BBX 9 12 0 -3
BITMAP
C180
E380
F780
FF80
DD80
C980
C180
C180
4180
0180
0180
0080
ENDCHAR
STARTCHAR n
ENCODING 110
SWIDTH 500 0
DWIDTH 8 0
BBX 7 12 0 -3
BITMAP
84
C6
C6
E6
F6
FE
DE
CE
46
06
06
02
ENDCHAR
STARTCHAR o
ENCODING 111
SWIDTH 500 0
DWIDTH 8 0
BBX 7 9 0 0
BITMAP
3E
7E
C6
C6
C6
C6
C6
FC
F8
ENDCHAR
STARTCHAR p
ENCODING 112
SWIDTH 500 0
DWIDTH 8 0
BBX 7 12 0 -3
BITMAP
7E
FE
06
06
FE
FC
C0
C0
C0
C0
C0
40
ENDCHAR
STARTCHAR q
ENCODING 113
SWIDTH 562 0
DWIDTH 9 0
BBX 8 10 0 -1
BITMAP
3E
7E
C6
C6
C6
CA
DC
EE
F7
03
ENDCHAR
STARTCHAR r
ENCODING 114
SWIDTH 625 0
DWIDTH 10 0
BBX 9 12 0 -3
BITMAP
7E00
FE00
0600
0600
FE00
FC00
CE00
C700
C380
C180
C000
4000
ENDCHAR
STARTCHAR s
ENCODING 115
SWIDTH 562 0
DWIDTH 9 0
BBX 8 10 0 -1
BITMAP
7E
FE
00
70
38
1C
0E
07
3F
7E
ENDCHAR
STARTCHAR t
ENCODING 116
SWIDTH 562 0
DWIDTH 9 0
BBX 8 12 0 -3
BITMAP
7F
FF
00
18
18
18
18
18
18
18
18
08
ENDCHAR
STARTCHAR u
ENCODING 117
SWIDTH 500 0
DWIDTH 8 0
BBX 7 12 0 -3
BITMAP
40
C0
C0
C6
C6
C6
C6
F6
76
06
06
02
ENDCHAR
STARTCHAR v
ENCODING 118
SWIDTH 500 0
DWIDTH 8 0
BBX 7 12 0 -3
BITMAP
C0
C0
C2
C6
CE
DC
F8
F0
E0
C0
C0
40
ENDCHAR
STARTCHAR w
ENCODING 119
SWIDTH 688 0
DWIDTH 11 0
BBX 10 11 0 -2
BITMAP
8000
C000
C080
C0C0
C4C0
CCC0
DDC0
FFC0
F780
E700
C600
ENDCHAR
STARTCHAR x
ENCODING 120
SWIDTH 688 0
DWIDTH 11 0
BBX 10 12 0 -3
BITMAP
C000
E300
7700
2E00
1C00
3A00
7700
7380
61C0
60C0
6000
2000
ENDCHAR
STARTCHAR y
ENCODING 121
SWIDTH 562 0
DWIDTH 9 0
BBX 8 12 0 -3
BITMAP
83
C3
E3
73
3B
1B
0B
03
03
03
03
01
ENDCHAR
STARTCHAR z
ENCODING 122
SWIDTH 625 0
DWIDTH 10 0
BBX 9 9 0 0
BITMAP
7F80
FF80
0380
0700
0E00
1C00
3800
7F00
FE00
ENDCHAR
STARTCHAR .notdef
ENCODING -1
SWIDTH 62 0
DWIDTH 1 0
BBX 1 1 0 0
BITMAP
00
ENDCHAR
STARTCHAR glyph00001
ENCODING -1
SWIDTH 62 0
DWIDTH 1 0
BBX 1 1 0 0
BITMAP
00
ENDCHAR
ENDFONT
