STARTFONT 2.1
FONT Cairopixel-16px
SIZE 16 75 75
FONTBOUNDINGBOX 12 15 -1 -3
STARTPROPERTIES 5
PIXEL_SIZE 16
FONT_ASCENT 12
FONT_DESCENT 3
CHARSET_REGISTRY "ISO10646"
CHARSET_ENCODING "1"
ENDPROPERTIES
CHARS 901
STARTCHAR uni0000
ENCODING 0
SWIDTH 0 0
DWIDTH 0 0
BBX 1 1 0 0
BITMAP
00
ENDCHAR
STARTCHAR uni0000.U001D
ENCODING 29
SWIDTH 0 0
DWIDTH 0 0
BBX 1 1 0 0
BITMAP
00
ENDCHAR
STARTCHAR space
ENCODING 32
SWIDTH 250 0
DWIDTH 4 0
BBX 1 1 0 0
BITMAP
00
ENDCHAR
STARTCHAR exclam
ENCODING 33
SWIDTH 125 0
DWIDTH 2 0
BBX 1 7 0 0
BITMAP
80
80
80
80
80
00
80
ENDCHAR
STARTCHAR quotedbl
ENCODING 34
SWIDTH 250 0
DWIDTH 4 0
BBX 3 2 0 5
BITMAP
A0
A0
ENDCHAR
STARTCHAR numbersign
ENCODING 35
SWIDTH 375 0
DWIDTH 6 0
BBX 5 7 0 0
BITMAP
50
50
F8
50
F8
50
50
ENDCHAR
STARTCHAR dollar
ENCODING 36
SWIDTH 438 0
DWIDTH 7 0
BBX 6 9 0 -1
BITMAP
20
74
AC
A0
78
24
A4
78
20
ENDCHAR
STARTCHAR percent
ENCODING 37
SWIDTH 375 0
DWIDTH 6 0
BBX 5 7 0 0
BITMAP
D0
D0
20
20
20
58
58
ENDCHAR
STARTCHAR ampersand
ENCODING 38
SWIDTH 438 0
DWIDTH 7 0
BBX 6 7 0 0
BITMAP
30
48
30
64
94
88
74
ENDCHAR
STARTCHAR quotesingle
ENCODING 39
SWIDTH 125 0
DWIDTH 2 0
BBX 1 2 0 5
BITMAP
80
80
ENDCHAR
STARTCHAR parenleft
ENCODING 40
SWIDTH 250 0
DWIDTH 4 0
BBX 3 8 0 -1
BITMAP
20
40
40
80
80
40
40
20
ENDCHAR
STARTCHAR parenright
ENCODING 41
SWIDTH 250 0
DWIDTH 4 0
BBX 3 8 0 -1
BITMAP
80
40
40
20
20
40
40
80
ENDCHAR
STARTCHAR asterisk
ENCODING 42
SWIDTH 250 0
DWIDTH 4 0
BBX 3 4 0 3
BITMAP
40
E0
40
A0
ENDCHAR
STARTCHAR plus
ENCODING 43
SWIDTH 375 0
DWIDTH 6 0
BBX 5 5 0 1
BITMAP
20
20
F8
20
20
ENDCHAR
STARTCHAR comma
ENCODING 44
SWIDTH 188 0
DWIDTH 3 0
BBX 2 3 0 -2
BITMAP
40
40
80
ENDCHAR
STARTCHAR hyphen
ENCODING 45
SWIDTH 250 0
DWIDTH 4 0
BBX 3 1 0 3
BITMAP
E0
ENDCHAR
STARTCHAR period
ENCODING 46
SWIDTH 125 0
DWIDTH 2 0
BBX 1 1 0 0
BITMAP
80
ENDCHAR
STARTCHAR slash
ENCODING 47
SWIDTH 250 0
DWIDTH 4 0
BBX 3 7 0 0
BITMAP
20
20
40
40
40
80
80
ENDCHAR
STARTCHAR zero
ENCODING 48
SWIDTH 438 0
DWIDTH 7 0
BBX 6 7 0 0
BITMAP
30
48
84
84
84
48
30
ENDCHAR
STARTCHAR one
ENCODING 49
SWIDTH 250 0
DWIDTH 4 0
BBX 3 7 0 0
BITMAP
40
C0
40
40
40
40
E0
ENDCHAR
STARTCHAR two
ENCODING 50
SWIDTH 375 0
DWIDTH 6 0
BBX 5 7 0 0
BITMAP
70
88
08
10
20
48
F8
ENDCHAR
STARTCHAR three
ENCODING 51
SWIDTH 375 0
DWIDTH 6 0
BBX 5 7 0 0
BITMAP
70
88
08
30
08
88
70
ENDCHAR
STARTCHAR four
ENCODING 52
SWIDTH 375 0
DWIDTH 6 0
BBX 5 7 0 0
BITMAP
10
30
50
90
F8
10
38
ENDCHAR
STARTCHAR five
ENCODING 53
SWIDTH 375 0
DWIDTH 6 0
BBX 5 7 0 0
BITMAP
F8
80
B0
C8
08
88
70
ENDCHAR
STARTCHAR six
ENCODING 54
SWIDTH 375 0
DWIDTH 6 0
BBX 5 7 0 0
BITMAP
70
80
B0
C8
88
88
70
ENDCHAR
STARTCHAR seven
ENCODING 55
SWIDTH 375 0
DWIDTH 6 0
BBX 5 7 0 0
BITMAP
F8
88
10
10
20
20
20
ENDCHAR
STARTCHAR eight
ENCODING 56
SWIDTH 438 0
DWIDTH 7 0
BBX 6 7 0 0
BITMAP
30
48
48
78
84
84
78
ENDCHAR
STARTCHAR nine
ENCODING 57
SWIDTH 375 0
DWIDTH 6 0
BBX 5 7 0 0
BITMAP
70
88
88
98
68
08
70
ENDCHAR
STARTCHAR colon
ENCODING 58
SWIDTH 125 0
DWIDTH 2 0
BBX 1 5 0 0
BITMAP
80
00
00
00
80
ENDCHAR
STARTCHAR semicolon
ENCODING 59
SWIDTH 188 0
DWIDTH 3 0
BBX 2 7 0 -2
BITMAP
40
00
00
00
40
40
80
ENDCHAR
STARTCHAR less
ENCODING 60
SWIDTH 375 0
DWIDTH 6 0
BBX 5 5 0 1
BITMAP
18
60
80
60
18
ENDCHAR
STARTCHAR equal
ENCODING 61
SWIDTH 312 0
DWIDTH 5 0
BBX 4 3 0 2
BITMAP
F0
00
F0
ENDCHAR
STARTCHAR greater
ENCODING 62
SWIDTH 375 0
DWIDTH 6 0
BBX 5 5 0 1
BITMAP
C0
30
08
30
C0
ENDCHAR
STARTCHAR question
ENCODING 63
SWIDTH 375 0
DWIDTH 6 0
BBX 5 7 0 0
BITMAP
70
88
88
10
20
00
20
ENDCHAR
STARTCHAR at
ENCODING 64
SWIDTH 562 0
DWIDTH 9 0
BBX 8 8 0 -1
BITMAP
3C
42
99
A5
A5
9A
40
3C
ENDCHAR
STARTCHAR A
ENCODING 65
SWIDTH 500 0
DWIDTH 8 0
BBX 7 7 0 0
BITMAP
10
28
28
28
7C
44
EE
ENDCHAR
STARTCHAR B
ENCODING 66
SWIDTH 438 0
DWIDTH 7 0
BBX 6 7 0 0
BITMAP
F0
48
48
78
44
44
F8
ENDCHAR
STARTCHAR C
ENCODING 67
SWIDTH 500 0
DWIDTH 8 0
BBX 7 7 0 0
BITMAP
3A
46
82
80
80
42
3C
ENDCHAR
STARTCHAR D
ENCODING 68
SWIDTH 500 0
DWIDTH 8 0
BBX 7 7 0 0
BITMAP
F8
44
42
42
42
44
F8
ENDCHAR
STARTCHAR E
ENCODING 69
SWIDTH 438 0
DWIDTH 7 0
BBX 6 7 0 0
BITMAP
FC
44
50
70
50
44
FC
ENDCHAR
STARTCHAR F
ENCODING 70
SWIDTH 438 0
DWIDTH 7 0
BBX 6 7 0 0
BITMAP
FC
44
50
70
50
40
E0
ENDCHAR
STARTCHAR G
ENCODING 71
SWIDTH 500 0
DWIDTH 8 0
BBX 7 7 0 0
BITMAP
3A
46
80
9E
82
46
3A
ENDCHAR
STARTCHAR H
ENCODING 72
SWIDTH 500 0
DWIDTH 8 0
BBX 7 7 0 0
BITMAP
EE
44
44
7C
44
44
EE
ENDCHAR
STARTCHAR I
ENCODING 73
SWIDTH 250 0
DWIDTH 4 0
BBX 3 7 0 0
BITMAP
E0
40
40
40
40
40
E0
ENDCHAR
STARTCHAR J
ENCODING 74
SWIDTH 438 0
DWIDTH 7 0
BBX 6 7 0 0
BITMAP
1C
08
08
08
08
88
70
ENDCHAR
STARTCHAR K
ENCODING 75
SWIDTH 438 0
DWIDTH 7 0
BBX 6 7 0 0
BITMAP
EC
48
50
60
50
48
EC
ENDCHAR
STARTCHAR L
ENCODING 76
SWIDTH 438 0
DWIDTH 7 0
BBX 6 7 0 0
BITMAP
E0
40
40
40
40
44
FC
ENDCHAR
STARTCHAR M
ENCODING 77
SWIDTH 625 0
DWIDTH 10 0
BBX 9 7 0 0
BITMAP
C180
6300
6300
5500
5500
4900
EB80
ENDCHAR
STARTCHAR N
ENCODING 78
SWIDTH 500 0
DWIDTH 8 0
BBX 7 7 0 0
BITMAP
CE
64
64
54
4C
4C
E4
ENDCHAR
STARTCHAR O
ENCODING 79
SWIDTH 500 0
DWIDTH 8 0
BBX 7 7 0 0
BITMAP
38
44
82
82
82
44
38
ENDCHAR
STARTCHAR P
ENCODING 80
SWIDTH 438 0
DWIDTH 7 0
BBX 6 7 0 0
BITMAP
F8
44
44
78
40
40
E0
ENDCHAR
STARTCHAR Q
ENCODING 81
SWIDTH 500 0
DWIDTH 8 0
BBX 7 9 0 -2
BITMAP
38
44
82
82
82
44
38
10
0C
ENDCHAR
STARTCHAR R
ENCODING 82
SWIDTH 500 0
DWIDTH 8 0
BBX 7 7 0 0
BITMAP
F8
44
44
78
48
44
E6
ENDCHAR
STARTCHAR S
ENCODING 83
SWIDTH 438 0
DWIDTH 7 0
BBX 6 7 0 0
BITMAP
74
8C
80
78
04
84
78
ENDCHAR
STARTCHAR T
ENCODING 84
SWIDTH 500 0
DWIDTH 8 0
BBX 7 7 0 0
BITMAP
FE
92
10
10
10
10
38
ENDCHAR
STARTCHAR U
ENCODING 85
SWIDTH 500 0
DWIDTH 8 0
BBX 7 7 0 0
BITMAP
EE
44
44
44
44
44
38
ENDCHAR
STARTCHAR V
ENCODING 86
SWIDTH 500 0
DWIDTH 8 0
BBX 7 7 0 0
BITMAP
EE
44
44
28
28
10
10
ENDCHAR
STARTCHAR W
ENCODING 87
SWIDTH 625 0
DWIDTH 10 0
BBX 9 7 0 0
BITMAP
EB80
4900
5500
5500
5500
2200
2200
ENDCHAR
STARTCHAR X
ENCODING 88
SWIDTH 500 0
DWIDTH 8 0
BBX 7 7 0 0
BITMAP
EE
44
28
10
28
44
EE
ENDCHAR
STARTCHAR Y
ENCODING 89
SWIDTH 500 0
DWIDTH 8 0
BBX 7 7 0 0
BITMAP
EE
44
28
10
10
10
38
ENDCHAR
STARTCHAR Z
ENCODING 90
SWIDTH 375 0
DWIDTH 6 0
BBX 5 7 0 0
BITMAP
F8
88
10
20
40
88
F8
ENDCHAR
STARTCHAR bracketleft
ENCODING 91
SWIDTH 188 0
DWIDTH 3 0
BBX 2 8 0 -1
BITMAP
C0
80
80
80
80
80
80
C0
ENDCHAR
STARTCHAR backslash
ENCODING 92
SWIDTH 250 0
DWIDTH 4 0
BBX 3 7 0 0
BITMAP
80
80
40
40
40
20
20
ENDCHAR
STARTCHAR bracketright
ENCODING 93
SWIDTH 188 0
DWIDTH 3 0
BBX 2 8 0 -1
BITMAP
C0
40
40
40
40
40
40
C0
ENDCHAR
STARTCHAR asciicircum
ENCODING 94
SWIDTH 250 0
DWIDTH 4 0
BBX 3 4 0 3
BITMAP
40
40
A0
A0
ENDCHAR
STARTCHAR underscore
ENCODING 95
SWIDTH 250 0
DWIDTH 4 0
BBX 3 1 0 -1
BITMAP
E0
ENDCHAR
STARTCHAR grave
ENCODING 96
SWIDTH 188 0
DWIDTH 3 0
BBX 2 2 0 6
BITMAP
80
40
ENDCHAR
STARTCHAR a
ENCODING 97
SWIDTH 438 0
DWIDTH 7 0
BBX 6 5 0 0
BITMAP
70
08
78
88
7C
ENDCHAR
STARTCHAR b
ENCODING 98
SWIDTH 438 0
DWIDTH 7 0
BBX 6 7 0 0
BITMAP
C0
40
58
64
44
64
D8
ENDCHAR
STARTCHAR c
ENCODING 99
SWIDTH 375 0
DWIDTH 6 0
BBX 5 5 0 0
BITMAP
70
88
80
80
70
ENDCHAR
STARTCHAR d
ENCODING 100
SWIDTH 438 0
DWIDTH 7 0
BBX 6 7 0 0
BITMAP
18
08
68
98
88
98
6C
ENDCHAR
STARTCHAR e
ENCODING 101
SWIDTH 375 0
DWIDTH 6 0
BBX 5 5 0 0
BITMAP
70
88
F8
80
70
ENDCHAR
STARTCHAR f
ENCODING 102
SWIDTH 312 0
DWIDTH 5 0
BBX 4 7 0 0
BITMAP
30
40
F0
40
40
40
F0
ENDCHAR
STARTCHAR g
ENCODING 103
SWIDTH 438 0
DWIDTH 7 0
BBX 6 7 0 -2
BITMAP
6C
98
88
98
68
88
70
ENDCHAR
STARTCHAR h
ENCODING 104
SWIDTH 438 0
DWIDTH 7 0
BBX 6 7 0 0
BITMAP
C0
40
50
68
48
48
DC
ENDCHAR
STARTCHAR i
ENCODING 105
SWIDTH 250 0
DWIDTH 4 0
BBX 3 7 0 0
BITMAP
40
00
C0
40
40
40
E0
ENDCHAR
STARTCHAR j
ENCODING 106
SWIDTH 188 0
DWIDTH 3 0
BBX 2 9 0 -2
BITMAP
40
00
C0
40
40
40
40
40
80
ENDCHAR
STARTCHAR k
ENCODING 107
SWIDTH 438 0
DWIDTH 7 0
BBX 6 7 0 0
BITMAP
C0
40
4C
50
70
48
EC
ENDCHAR
STARTCHAR l
ENCODING 108
SWIDTH 250 0
DWIDTH 4 0
BBX 3 7 0 0
BITMAP
C0
40
40
40
40
40
E0
ENDCHAR
STARTCHAR m
ENCODING 109
SWIDTH 625 0
DWIDTH 10 0
BBX 9 5 0 0
BITMAP
F600
4900
4900
4900
C980
ENDCHAR
STARTCHAR n
ENCODING 110
SWIDTH 438 0
DWIDTH 7 0
BBX 6 5 0 0
BITMAP
D0
68
48
48
DC
ENDCHAR
STARTCHAR o
ENCODING 111
SWIDTH 375 0
DWIDTH 6 0
BBX 5 5 0 0
BITMAP
70
88
88
88
70
ENDCHAR
STARTCHAR p
ENCODING 112
SWIDTH 438 0
DWIDTH 7 0
BBX 6 7 0 -2
BITMAP
D8
64
44
64
58
40
E0
ENDCHAR
STARTCHAR q
ENCODING 113
SWIDTH 438 0
DWIDTH 7 0
BBX 6 7 0 -2
BITMAP
6C
98
88
98
68
08
1C
ENDCHAR
STARTCHAR r
ENCODING 114
SWIDTH 375 0
DWIDTH 6 0
BBX 5 5 0 0
BITMAP
D8
68
40
40
E0
ENDCHAR
STARTCHAR s
ENCODING 115
SWIDTH 375 0
DWIDTH 6 0
BBX 5 5 0 0
BITMAP
70
80
70
08
F0
ENDCHAR
STARTCHAR t
ENCODING 116
SWIDTH 312 0
DWIDTH 5 0
BBX 4 7 0 0
BITMAP
40
40
F0
40
40
40
30
ENDCHAR
STARTCHAR u
ENCODING 117
SWIDTH 438 0
DWIDTH 7 0
BBX 6 5 0 0
BITMAP
DC
48
48
58
6C
ENDCHAR
STARTCHAR v
ENCODING 118
SWIDTH 375 0
DWIDTH 6 0
BBX 5 5 0 0
BITMAP
D8
50
50
20
20
ENDCHAR
STARTCHAR w
ENCODING 119
SWIDTH 500 0
DWIDTH 8 0
BBX 7 5 0 0
BITMAP
D6
54
54
28
28
ENDCHAR
STARTCHAR x
ENCODING 120
SWIDTH 375 0
DWIDTH 6 0
BBX 5 5 0 0
BITMAP
D8
50
20
50
D8
ENDCHAR
STARTCHAR y
ENCODING 121
SWIDTH 375 0
DWIDTH 6 0
BBX 5 7 0 -2
BITMAP
D8
50
50
50
20
20
C0
ENDCHAR
STARTCHAR z
ENCODING 122
SWIDTH 375 0
DWIDTH 6 0
BBX 5 5 0 0
BITMAP
F8
90
20
48
F8
ENDCHAR
STARTCHAR braceleft
ENCODING 123
SWIDTH 250 0
DWIDTH 4 0
BBX 3 8 0 -1
BITMAP
60
40
40
80
80
40
40
60
ENDCHAR
STARTCHAR bar
ENCODING 124
SWIDTH 125 0
DWIDTH 2 0
BBX 1 8 0 -1
BITMAP
80
80
80
80
80
80
80
80
ENDCHAR
STARTCHAR braceright
ENCODING 125
SWIDTH 250 0
DWIDTH 4 0
BBX 3 8 0 -1
BITMAP
C0
40
40
20
20
40
40
C0
ENDCHAR
STARTCHAR asciitilde
ENCODING 126
SWIDTH 375 0
DWIDTH 6 0
BBX 5 2 0 2
BITMAP
48
B0
ENDCHAR
STARTCHAR uni00A0
ENCODING 160
SWIDTH 250 0
DWIDTH 4 0
BBX 1 1 0 0
BITMAP
00
ENDCHAR
STARTCHAR exclamdown
ENCODING 161
SWIDTH 125 0
DWIDTH 2 0
BBX 1 7 0 -2
BITMAP
80
00
80
80
80
80
80
ENDCHAR
STARTCHAR cent
ENCODING 162
SWIDTH 375 0
DWIDTH 6 0
BBX 5 7 0 -1
BITMAP
20
70
A8
A0
A8
70
20
ENDCHAR
STARTCHAR sterling
ENCODING 163
SWIDTH 375 0
DWIDTH 6 0
BBX 5 7 0 0
BITMAP
30
48
40
F0
40
48
F8
ENDCHAR
STARTCHAR currency
ENCODING 164
SWIDTH 375 0
DWIDTH 6 0
BBX 5 5 0 1
BITMAP
88
70
50
70
88
ENDCHAR
STARTCHAR yen
ENCODING 165
SWIDTH 500 0
DWIDTH 8 0
BBX 7 7 0 0
BITMAP
EE
44
28
10
7C
10
38
ENDCHAR
STARTCHAR brokenbar
ENCODING 166
SWIDTH 125 0
DWIDTH 2 0
BBX 1 9 0 -2
BITMAP
80
80
80
80
00
80
80
80
80
ENDCHAR
STARTCHAR section
ENCODING 167
SWIDTH 312 0
DWIDTH 5 0
BBX 4 8 0 -1
BITMAP
60
90
C0
A0
50
30
90
60
ENDCHAR
STARTCHAR dieresis
ENCODING 168
SWIDTH 250 0
DWIDTH 4 0
BBX 3 1 0 7
BITMAP
A0
ENDCHAR
STARTCHAR copyright
ENCODING 169
SWIDTH 500 0
DWIDTH 8 0
BBX 7 7 0 0
BITMAP
38
44
BA
A2
BA
44
38
ENDCHAR
STARTCHAR ordfeminine
ENCODING 170
SWIDTH 312 0
DWIDTH 5 0
BBX 4 5 0 2
BITMAP
C0
20
60
A0
50
ENDCHAR
STARTCHAR guillemotleft
ENCODING 171
SWIDTH 375 0
DWIDTH 6 0
BBX 5 5 0 0
BITMAP
28
50
A0
50
28
ENDCHAR
STARTCHAR logicalnot
ENCODING 172
SWIDTH 312 0
DWIDTH 5 0
BBX 4 2 0 2
BITMAP
F0
10
ENDCHAR
STARTCHAR uni00AD
ENCODING 173
SWIDTH 250 0
DWIDTH 4 0
BBX 3 1 0 3
BITMAP
E0
ENDCHAR
STARTCHAR registered
ENCODING 174
SWIDTH 500 0
DWIDTH 8 0
BBX 7 7 0 0
BITMAP
38
44
BA
B2
AA
44
38
ENDCHAR
STARTCHAR macron
ENCODING 175
SWIDTH 250 0
DWIDTH 4 0
BBX 3 1 0 7
BITMAP
E0
ENDCHAR
STARTCHAR degree
ENCODING 176
SWIDTH 312 0
DWIDTH 5 0
BBX 4 4 0 3
BITMAP
60
90
90
60
ENDCHAR
STARTCHAR plusminus
ENCODING 177
SWIDTH 375 0
DWIDTH 6 0
BBX 5 6 0 0
BITMAP
20
20
F8
20
00
F8
ENDCHAR
STARTCHAR uni00B2
ENCODING 178
SWIDTH 250 0
DWIDTH 4 0
BBX 3 5 0 2
BITMAP
C0
20
40
80
E0
ENDCHAR
STARTCHAR uni00B3
ENCODING 179
SWIDTH 250 0
DWIDTH 4 0
BBX 3 5 0 2
BITMAP
C0
20
40
20
C0
ENDCHAR
STARTCHAR acute
ENCODING 180
SWIDTH 188 0
DWIDTH 3 0
BBX 2 2 0 6
BITMAP
40
80
ENDCHAR
STARTCHAR mu
ENCODING 181
SWIDTH 438 0
DWIDTH 7 0
BBX 6 7 0 -2
BITMAP
DC
48
48
58
6C
40
40
ENDCHAR
STARTCHAR paragraph
ENCODING 182
SWIDTH 438 0
DWIDTH 7 0
BBX 6 8 0 -1
BITMAP
7C
E8
E8
68
28
28
28
6C
ENDCHAR
STARTCHAR periodcentered
ENCODING 183
SWIDTH 125 0
DWIDTH 2 0
BBX 1 1 0 3
BITMAP
80
ENDCHAR
STARTCHAR cedilla
ENCODING 184
SWIDTH 188 0
DWIDTH 3 0
BBX 2 3 0 -3
BITMAP
80
40
80
ENDCHAR
STARTCHAR uni00B9
ENCODING 185
SWIDTH 250 0
DWIDTH 4 0
BBX 3 5 0 2
BITMAP
40
C0
40
40
E0
ENDCHAR
STARTCHAR ordmasculine
ENCODING 186
SWIDTH 250 0
DWIDTH 4 0
BBX 3 5 0 2
BITMAP
40
A0
A0
A0
40
ENDCHAR
STARTCHAR guillemotright
ENCODING 187
SWIDTH 375 0
DWIDTH 6 0
BBX 5 5 0 0
BITMAP
A0
50
28
50
A0
ENDCHAR
STARTCHAR onequarter
ENCODING 188
SWIDTH 625 0
DWIDTH 10 0
BBX 9 7 0 0
BITMAP
4400
C400
4900
4B00
ED00
1780
1100
ENDCHAR
STARTCHAR onehalf
ENCODING 189
SWIDTH 625 0
DWIDTH 10 0
BBX 9 7 0 0
BITMAP
4400
C400
4B00
4880
E900
1200
1380
ENDCHAR
STARTCHAR threequarters
ENCODING 190
SWIDTH 625 0
DWIDTH 10 0
BBX 9 7 0 0
BITMAP
C400
2400
4900
2B00
CD00
1780
1100
ENDCHAR
STARTCHAR questiondown
ENCODING 191
SWIDTH 375 0
DWIDTH 6 0
BBX 5 7 0 -2
BITMAP
20
00
20
40
88
88
70
ENDCHAR
STARTCHAR Agrave
ENCODING 192
SWIDTH 500 0
DWIDTH 8 0
BBX 7 10 0 0
BITMAP
20
10
00
10
28
28
28
7C
44
EE
ENDCHAR
STARTCHAR Aacute
ENCODING 193
SWIDTH 500 0
DWIDTH 8 0
BBX 7 10 0 0
BITMAP
08
10
00
10
28
28
28
7C
44
EE
ENDCHAR
STARTCHAR Acircumflex
ENCODING 194
SWIDTH 500 0
DWIDTH 8 0
BBX 7 10 0 0
BITMAP
10
28
00
10
28
28
28
7C
44
EE
ENDCHAR
STARTCHAR Atilde
ENCODING 195
SWIDTH 500 0
DWIDTH 8 0
BBX 7 10 0 0
BITMAP
24
58
00
10
28
28
28
7C
44
EE
ENDCHAR
STARTCHAR Adieresis
ENCODING 196
SWIDTH 500 0
DWIDTH 8 0
BBX 7 9 0 0
BITMAP
28
00
10
28
28
28
7C
44
EE
ENDCHAR
STARTCHAR Aring
ENCODING 197
SWIDTH 500 0
DWIDTH 8 0
BBX 7 9 0 0
BITMAP
10
28
10
28
28
28
7C
44
EE
ENDCHAR
STARTCHAR AE
ENCODING 198
SWIDTH 625 0
DWIDTH 10 0
BBX 9 7 0 0
BITMAP
1F80
2880
2A00
2E00
7A00
4880
EF80
ENDCHAR
STARTCHAR Ccedilla
ENCODING 199
SWIDTH 500 0
DWIDTH 8 0
BBX 7 10 0 -3
BITMAP
3A
46
82
80
80
42
3C
10
08
10
ENDCHAR
STARTCHAR Egrave
ENCODING 200
SWIDTH 438 0
DWIDTH 7 0
BBX 6 10 0 0
BITMAP
20
10
00
FC
44
50
70
50
44
FC
ENDCHAR
STARTCHAR Eacute
ENCODING 201
SWIDTH 438 0
DWIDTH 7 0
BBX 6 10 0 0
BITMAP
08
10
00
FC
44
50
70
50
44
FC
ENDCHAR
STARTCHAR Ecircumflex
ENCODING 202
SWIDTH 438 0
DWIDTH 7 0
BBX 6 10 0 0
BITMAP
10
28
00
FC
44
50
70
50
44
FC
ENDCHAR
STARTCHAR Edieresis
ENCODING 203
SWIDTH 438 0
DWIDTH 7 0
BBX 6 9 0 0
BITMAP
28
00
FC
44
50
70
50
44
FC
ENDCHAR
STARTCHAR Igrave
ENCODING 204
SWIDTH 250 0
DWIDTH 4 0
BBX 3 10 0 0
BITMAP
80
40
00
E0
40
40
40
40
40
E0
ENDCHAR
STARTCHAR Iacute
ENCODING 205
SWIDTH 250 0
DWIDTH 4 0
BBX 3 10 0 0
BITMAP
20
40
00
E0
40
40
40
40
40
E0
ENDCHAR
STARTCHAR Icircumflex
ENCODING 206
SWIDTH 250 0
DWIDTH 4 0
BBX 3 10 0 0
BITMAP
40
A0
00
E0
40
40
40
40
40
E0
ENDCHAR
STARTCHAR Idieresis
ENCODING 207
SWIDTH 250 0
DWIDTH 4 0
BBX 3 9 0 0
BITMAP
A0
00
E0
40
40
40
40
40
E0
ENDCHAR
STARTCHAR Eth
ENCODING 208
SWIDTH 500 0
DWIDTH 8 0
BBX 7 7 0 0
BITMAP
F8
44
42
F2
42
44
F8
ENDCHAR
STARTCHAR Ntilde
ENCODING 209
SWIDTH 500 0
DWIDTH 8 0
BBX 7 10 0 0
BITMAP
24
58
00
CE
64
64
54
4C
4C
E4
ENDCHAR
STARTCHAR Ograve
ENCODING 210
SWIDTH 500 0
DWIDTH 8 0
BBX 7 10 0 0
BITMAP
20
10
00
38
44
82
82
82
44
38
ENDCHAR
STARTCHAR Oacute
ENCODING 211
SWIDTH 500 0
DWIDTH 8 0
BBX 7 10 0 0
BITMAP
08
10
00
38
44
82
82
82
44
38
ENDCHAR
STARTCHAR Ocircumflex
ENCODING 212
SWIDTH 500 0
DWIDTH 8 0
BBX 7 10 0 0
BITMAP
10
28
00
38
44
82
82
82
44
38
ENDCHAR
STARTCHAR Otilde
ENCODING 213
SWIDTH 500 0
DWIDTH 8 0
BBX 7 10 0 0
BITMAP
24
58
00
38
44
82
82
82
44
38
ENDCHAR
STARTCHAR Odieresis
ENCODING 214
SWIDTH 500 0
DWIDTH 8 0
BBX 7 9 0 0
BITMAP
28
00
38
44
82
82
82
44
38
ENDCHAR
STARTCHAR multiply
ENCODING 215
SWIDTH 375 0
DWIDTH 6 0
BBX 5 5 0 1
BITMAP
88
50
20
50
88
ENDCHAR
STARTCHAR Oslash
ENCODING 216
SWIDTH 500 0
DWIDTH 8 0
BBX 7 7 0 0
BITMAP
3A
44
8A
92
A2
44
B8
ENDCHAR
STARTCHAR Ugrave
ENCODING 217
SWIDTH 500 0
DWIDTH 8 0
BBX 7 10 0 0
BITMAP
20
10
00
EE
44
44
44
44
44
38
ENDCHAR
STARTCHAR Uacute
ENCODING 218
SWIDTH 500 0
DWIDTH 8 0
BBX 7 10 0 0
BITMAP
08
10
00
EE
44
44
44
44
44
38
ENDCHAR
STARTCHAR Ucircumflex
ENCODING 219
SWIDTH 500 0
DWIDTH 8 0
BBX 7 10 0 0
BITMAP
10
28
00
EE
44
44
44
44
44
38
ENDCHAR
STARTCHAR Udieresis
ENCODING 220
SWIDTH 500 0
DWIDTH 8 0
BBX 7 9 0 0
BITMAP
28
00
EE
44
44
44
44
44
38
ENDCHAR
STARTCHAR Yacute
ENCODING 221
SWIDTH 500 0
DWIDTH 8 0
BBX 7 10 0 0
BITMAP
08
10
00
EE
44
28
10
10
10
38
ENDCHAR
STARTCHAR Thorn
ENCODING 222
SWIDTH 438 0
DWIDTH 7 0
BBX 6 7 0 0
BITMAP
E0
58
64
44
64
58
E0
ENDCHAR
STARTCHAR germandbls
ENCODING 223
SWIDTH 500 0
DWIDTH 8 0
BBX 7 7 0 0
BITMAP
38
44
48
48
44
52
CC
ENDCHAR
STARTCHAR agrave
ENCODING 224
SWIDTH 438 0
DWIDTH 7 0
BBX 6 8 0 0
BITMAP
40
20
00
70
08
78
88
7C
ENDCHAR
STARTCHAR aacute
ENCODING 225
SWIDTH 438 0
DWIDTH 7 0
BBX 6 8 0 0
BITMAP
10
20
00
70
08
78
88
7C
ENDCHAR
STARTCHAR acircumflex
ENCODING 226
SWIDTH 438 0
DWIDTH 7 0
BBX 6 8 0 0
BITMAP
20
50
00
70
08
78
88
7C
ENDCHAR
STARTCHAR atilde
ENCODING 227
SWIDTH 438 0
DWIDTH 7 0
BBX 6 8 0 0
BITMAP
48
B0
00
70
08
78
88
7C
ENDCHAR
STARTCHAR adieresis
ENCODING 228
SWIDTH 438 0
DWIDTH 7 0
BBX 6 7 0 0
BITMAP
50
00
70
08
78
88
7C
ENDCHAR
STARTCHAR aring
ENCODING 229
SWIDTH 438 0
DWIDTH 7 0
BBX 6 9 0 0
BITMAP
20
50
20
00
70
08
78
88
7C
ENDCHAR
STARTCHAR ae
ENCODING 230
SWIDTH 625 0
DWIDTH 10 0
BBX 9 5 0 0
BITMAP
7700
0880
7F80
8800
7700
ENDCHAR
STARTCHAR ccedilla
ENCODING 231
SWIDTH 375 0
DWIDTH 6 0
BBX 5 8 0 -3
BITMAP
70
88
80
80
70
20
10
20
ENDCHAR
STARTCHAR egrave
ENCODING 232
SWIDTH 375 0
DWIDTH 6 0
BBX 5 8 0 0
BITMAP
40
20
00
70
88
F8
80
70
ENDCHAR
STARTCHAR eacute
ENCODING 233
SWIDTH 375 0
DWIDTH 6 0
BBX 5 8 0 0
BITMAP
10
20
00
70
88
F8
80
70
ENDCHAR
STARTCHAR ecircumflex
ENCODING 234
SWIDTH 375 0
DWIDTH 6 0
BBX 5 8 0 0
BITMAP
20
50
00
70
88
F8
80
70
ENDCHAR
STARTCHAR edieresis
ENCODING 235
SWIDTH 375 0
DWIDTH 6 0
BBX 5 7 0 0
BITMAP
50
00
70
88
F8
80
70
ENDCHAR
STARTCHAR igrave
ENCODING 236
SWIDTH 250 0
DWIDTH 4 0
BBX 3 8 0 0
BITMAP
80
40
00
C0
40
40
40
E0
ENDCHAR
STARTCHAR iacute
ENCODING 237
SWIDTH 250 0
DWIDTH 4 0
BBX 3 8 0 0
BITMAP
20
40
00
C0
40
40
40
E0
ENDCHAR
STARTCHAR icircumflex
ENCODING 238
SWIDTH 250 0
DWIDTH 4 0
BBX 3 8 0 0
BITMAP
40
A0
00
C0
40
40
40
E0
ENDCHAR
STARTCHAR idieresis
ENCODING 239
SWIDTH 250 0
DWIDTH 4 0
BBX 3 7 0 0
BITMAP
A0
00
C0
40
40
40
E0
ENDCHAR
STARTCHAR eth
ENCODING 240
SWIDTH 375 0
DWIDTH 6 0
BBX 5 8 0 0
BITMAP
20
78
10
68
98
88
88
70
ENDCHAR
STARTCHAR ntilde
ENCODING 241
SWIDTH 438 0
DWIDTH 7 0
BBX 6 8 0 0
BITMAP
48
B0
00
D0
68
48
48
DC
ENDCHAR
STARTCHAR ograve
ENCODING 242
SWIDTH 375 0
DWIDTH 6 0
BBX 5 8 0 0
BITMAP
40
20
00
70
88
88
88
70
ENDCHAR
STARTCHAR oacute
ENCODING 243
SWIDTH 375 0
DWIDTH 6 0
BBX 5 8 0 0
BITMAP
10
20
00
70
88
88
88
70
ENDCHAR
STARTCHAR ocircumflex
ENCODING 244
SWIDTH 375 0
DWIDTH 6 0
BBX 5 8 0 0
BITMAP
20
50
00
70
88
88
88
70
ENDCHAR
STARTCHAR otilde
ENCODING 245
SWIDTH 375 0
DWIDTH 6 0
BBX 5 8 0 0
BITMAP
48
B0
00
70
88
88
88
70
ENDCHAR
STARTCHAR odieresis
ENCODING 246
SWIDTH 375 0
DWIDTH 6 0
BBX 5 7 0 0
BITMAP
50
00
70
88
88
88
70
ENDCHAR
STARTCHAR divide
ENCODING 247
SWIDTH 375 0
DWIDTH 6 0
BBX 5 5 0 1
BITMAP
20
00
F8
00
20
ENDCHAR
STARTCHAR oslash
ENCODING 248
SWIDTH 375 0
DWIDTH 6 0
BBX 5 5 0 0
BITMAP
68
90
A8
48
B0
ENDCHAR
STARTCHAR ugrave
ENCODING 249
SWIDTH 438 0
DWIDTH 7 0
BBX 6 8 0 0
BITMAP
40
20
00
DC
48
48
58
6C
ENDCHAR
STARTCHAR uacute
ENCODING 250
SWIDTH 438 0
DWIDTH 7 0
BBX 6 8 0 0
BITMAP
10
20
00
DC
48
48
58
6C
ENDCHAR
STARTCHAR ucircumflex
ENCODING 251
SWIDTH 438 0
DWIDTH 7 0
BBX 6 8 0 0
BITMAP
20
50
00
DC
48
48
58
6C
ENDCHAR
STARTCHAR udieresis
ENCODING 252
SWIDTH 438 0
DWIDTH 7 0
BBX 6 7 0 0
BITMAP
50
00
DC
48
48
58
6C
ENDCHAR
STARTCHAR yacute
ENCODING 253
SWIDTH 375 0
DWIDTH 6 0
BBX 5 10 0 -2
BITMAP
10
20
00
D8
50
50
50
20
20
C0
ENDCHAR
STARTCHAR thorn
ENCODING 254
SWIDTH 438 0
DWIDTH 7 0
BBX 6 9 0 -2
BITMAP
C0
40
58
64
44
64
58
40
E0
ENDCHAR
STARTCHAR ydieresis
ENCODING 255
SWIDTH 375 0
DWIDTH 6 0
BBX 5 9 0 -2
BITMAP
50
00
D8
50
50
50
20
20
C0
ENDCHAR
STARTCHAR Amacron
ENCODING 256
SWIDTH 500 0
DWIDTH 8 0
BBX 7 9 0 0
BITMAP
38
00
10
28
28
28
7C
44
EE
ENDCHAR
STARTCHAR amacron
ENCODING 257
SWIDTH 438 0
DWIDTH 7 0
BBX 6 7 0 0
BITMAP
70
00
70
08
78
88
7C
ENDCHAR
STARTCHAR Abreve
ENCODING 258
SWIDTH 500 0
DWIDTH 8 0
BBX 7 10 0 0
BITMAP
44
38
00
10
28
28
28
7C
44
EE
ENDCHAR
STARTCHAR abreve
ENCODING 259
SWIDTH 438 0
DWIDTH 7 0
BBX 6 8 0 0
BITMAP
48
30
00
70
08
78
88
7C
ENDCHAR
STARTCHAR Aogonek
ENCODING 260
SWIDTH 500 0
DWIDTH 8 0
BBX 7 9 0 -2
BITMAP
10
28
28
28
7C
44
EE
04
06
ENDCHAR
STARTCHAR aogonek
ENCODING 261
SWIDTH 438 0
DWIDTH 7 0
BBX 6 7 0 -2
BITMAP
70
08
78
88
7C
08
0C
ENDCHAR
STARTCHAR Cacute
ENCODING 262
SWIDTH 500 0
DWIDTH 8 0
BBX 7 10 0 0
BITMAP
08
10
00
3A
46
82
80
80
42
3C
ENDCHAR
STARTCHAR cacute
ENCODING 263
SWIDTH 375 0
DWIDTH 6 0
BBX 5 8 0 0
BITMAP
10
20
00
70
88
80
80
70
ENDCHAR
STARTCHAR Ccircumflex
ENCODING 264
SWIDTH 500 0
DWIDTH 8 0
BBX 7 10 0 0
BITMAP
10
28
00
3A
46
82
80
80
42
3C
ENDCHAR
STARTCHAR ccircumflex
ENCODING 265
SWIDTH 375 0
DWIDTH 6 0
BBX 5 8 0 0
BITMAP
20
50
00
70
88
80
80
70
ENDCHAR
STARTCHAR Cdotaccent
ENCODING 266
SWIDTH 500 0
DWIDTH 8 0
BBX 7 9 0 0
BITMAP
10
00
3A
46
82
80
80
42
3C
ENDCHAR
STARTCHAR cdotaccent
ENCODING 267
SWIDTH 375 0
DWIDTH 6 0
BBX 5 7 0 0
BITMAP
20
00
70
88
80
80
70
ENDCHAR
STARTCHAR Ccaron
ENCODING 268
SWIDTH 500 0
DWIDTH 8 0
BBX 7 10 0 0
BITMAP
28
10
00
3A
46
82
80
80
42
3C
ENDCHAR
STARTCHAR ccaron
ENCODING 269
SWIDTH 375 0
DWIDTH 6 0
BBX 5 8 0 0
BITMAP
50
20
00
70
88
80
80
70
ENDCHAR
STARTCHAR Dcaron
ENCODING 270
SWIDTH 500 0
DWIDTH 8 0
BBX 7 10 0 0
BITMAP
28
10
00
F8
44
42
42
42
44
F8
ENDCHAR
STARTCHAR dcaron
ENCODING 271
SWIDTH 500 0
DWIDTH 8 0
BBX 7 8 0 0
BITMAP
02
1A
08
68
98
88
98
6C
ENDCHAR
STARTCHAR Dcroat
ENCODING 272
SWIDTH 500 0
DWIDTH 8 0
BBX 7 7 0 0
BITMAP
F8
44
42
F2
42
44
F8
ENDCHAR
STARTCHAR dcroat
ENCODING 273
SWIDTH 438 0
DWIDTH 7 0
BBX 6 7 0 0
BITMAP
08
1C
68
98
88
98
6C
ENDCHAR
STARTCHAR Emacron
ENCODING 274
SWIDTH 438 0
DWIDTH 7 0
BBX 6 9 0 0
BITMAP
38
00
FC
44
50
70
50
44
FC
ENDCHAR
STARTCHAR emacron
ENCODING 275
SWIDTH 375 0
DWIDTH 6 0
BBX 5 7 0 0
BITMAP
70
00
70
88
F8
80
70
ENDCHAR
STARTCHAR Ebreve
ENCODING 276
SWIDTH 438 0
DWIDTH 7 0
BBX 6 10 0 0
BITMAP
48
30
00
FC
44
50
70
50
44
FC
ENDCHAR
STARTCHAR ebreve
ENCODING 277
SWIDTH 375 0
DWIDTH 6 0
BBX 5 8 0 0
BITMAP
48
30
00
70
88
F8
80
70
ENDCHAR
STARTCHAR Edotaccent
ENCODING 278
SWIDTH 438 0
DWIDTH 7 0
BBX 6 9 0 0
BITMAP
10
00
FC
44
50
70
50
44
FC
ENDCHAR
STARTCHAR edotaccent
ENCODING 279
SWIDTH 375 0
DWIDTH 6 0
BBX 5 7 0 0
BITMAP
20
00
70
88
F8
80
70
ENDCHAR
STARTCHAR Eogonek
ENCODING 280
SWIDTH 438 0
DWIDTH 7 0
BBX 6 9 0 -2
BITMAP
FC
44
50
70
50
44
FC
08
0C
ENDCHAR
STARTCHAR eogonek
ENCODING 281
SWIDTH 375 0
DWIDTH 6 0
BBX 5 7 0 -2
BITMAP
70
88
F8
80
70
20
30
ENDCHAR
STARTCHAR Ecaron
ENCODING 282
SWIDTH 438 0
DWIDTH 7 0
BBX 6 10 0 0
BITMAP
28
10
00
FC
44
50
70
50
44
FC
ENDCHAR
STARTCHAR ecaron
ENCODING 283
SWIDTH 375 0
DWIDTH 6 0
BBX 5 8 0 0
BITMAP
50
20
00
70
88
F8
80
70
ENDCHAR
STARTCHAR Gcircumflex
ENCODING 284
SWIDTH 500 0
DWIDTH 8 0
BBX 7 10 0 0
BITMAP
10
28
00
3A
46
80
9E
82
46
3A
ENDCHAR
STARTCHAR gcircumflex
ENCODING 285
SWIDTH 438 0
DWIDTH 7 0
BBX 6 10 0 -2
BITMAP
20
50
00
6C
98
88
98
68
88
70
ENDCHAR
STARTCHAR Gbreve
ENCODING 286
SWIDTH 500 0
DWIDTH 8 0
BBX 7 10 0 0
BITMAP
24
18
00
3A
46
80
9E
82
46
3A
ENDCHAR
STARTCHAR gbreve
ENCODING 287
SWIDTH 438 0
DWIDTH 7 0
BBX 6 10 0 -2
BITMAP
48
30
00
6C
98
88
98
68
88
70
ENDCHAR
STARTCHAR Gdotaccent
ENCODING 288
SWIDTH 500 0
DWIDTH 8 0
BBX 7 9 0 0
BITMAP
10
00
3A
46
80
9E
82
46
3A
ENDCHAR
STARTCHAR gdotaccent
ENCODING 289
SWIDTH 438 0
DWIDTH 7 0
BBX 6 9 0 -2
BITMAP
20
00
6C
98
88
98
68
88
70
ENDCHAR
STARTCHAR uni0122
ENCODING 290
SWIDTH 500 0
DWIDTH 8 0
BBX 7 10 0 -3
BITMAP
3A
46
80
9E
82
46
3A
00
10
20
ENDCHAR
STARTCHAR uni0123
ENCODING 291
SWIDTH 438 0
DWIDTH 7 0
BBX 6 10 0 -2
BITMAP
10
20
00
6C
98
88
98
68
88
70
ENDCHAR
STARTCHAR Hcircumflex
ENCODING 292
SWIDTH 500 0
DWIDTH 8 0
BBX 7 10 0 0
BITMAP
10
28
00
EE
44
44
7C
44
44
EE
ENDCHAR
STARTCHAR hcircumflex
ENCODING 293
SWIDTH 438 0
DWIDTH 7 0
BBX 6 10 0 0
BITMAP
20
50
00
C0
40
50
68
48
48
DC
ENDCHAR
STARTCHAR Hbar
ENCODING 294
SWIDTH 500 0
DWIDTH 8 0
BBX 7 7 0 0
BITMAP
EE
44
FE
7C
44
44
EE
ENDCHAR
STARTCHAR hbar
ENCODING 295
SWIDTH 438 0
DWIDTH 7 0
BBX 6 7 0 0
BITMAP
40
E0
50
68
48
48
DC
ENDCHAR
STARTCHAR Itilde
ENCODING 296
SWIDTH 312 0
DWIDTH 5 0
BBX 4 10 0 0
BITMAP
50
A0
00
E0
40
40
40
40
40
E0
ENDCHAR
STARTCHAR itilde
ENCODING 297
SWIDTH 312 0
DWIDTH 5 0
BBX 4 8 0 0
BITMAP
50
A0
00
C0
40
40
40
E0
ENDCHAR
STARTCHAR Imacron
ENCODING 298
SWIDTH 250 0
DWIDTH 4 0
BBX 3 9 0 0
BITMAP
E0
00
E0
40
40
40
40
40
E0
ENDCHAR
STARTCHAR imacron
ENCODING 299
SWIDTH 250 0
DWIDTH 4 0
BBX 3 7 0 0
BITMAP
E0
00
C0
40
40
40
E0
ENDCHAR
STARTCHAR Ibreve
ENCODING 300
SWIDTH 312 0
DWIDTH 5 0
BBX 4 10 0 0
BITMAP
90
60
00
E0
40
40
40
40
40
E0
ENDCHAR
STARTCHAR ibreve
ENCODING 301
SWIDTH 250 0
DWIDTH 4 0
BBX 4 8 -1 0
BITMAP
90
60
00
60
20
20
20
70
ENDCHAR
STARTCHAR Iogonek
ENCODING 302
SWIDTH 250 0
DWIDTH 4 0
BBX 3 9 0 -2
BITMAP
E0
40
40
40
40
40
E0
40
60
ENDCHAR
STARTCHAR iogonek
ENCODING 303
SWIDTH 250 0
DWIDTH 4 0
BBX 3 9 0 -2
BITMAP
40
00
C0
40
40
40
E0
40
60
ENDCHAR
STARTCHAR Idotaccent
ENCODING 304
SWIDTH 250 0
DWIDTH 4 0
BBX 3 9 0 0
BITMAP
40
00
E0
40
40
40
40
40
E0
ENDCHAR
STARTCHAR dotlessi
ENCODING 305
SWIDTH 250 0
DWIDTH 4 0
BBX 3 5 0 0
BITMAP
C0
40
40
40
E0
ENDCHAR
STARTCHAR IJ
ENCODING 306
SWIDTH 625 0
DWIDTH 10 0
BBX 9 7 0 0
BITMAP
E380
4100
4100
4100
4100
4900
E600
ENDCHAR
STARTCHAR ij
ENCODING 307
SWIDTH 375 0
DWIDTH 6 0
BBX 5 9 0 -2
BITMAP
48
00
D8
48
48
48
E8
08
10
ENDCHAR
STARTCHAR Jcircumflex
ENCODING 308
SWIDTH 438 0
DWIDTH 7 0
BBX 6 10 0 0
BITMAP
08
14
00
1C
08
08
08
08
88
70
ENDCHAR
STARTCHAR jcircumflex
ENCODING 309
SWIDTH 250 0
DWIDTH 4 0
BBX 3 10 0 -2
BITMAP
40
A0
00
C0
40
40
40
40
40
80
ENDCHAR
STARTCHAR uni0136
ENCODING 310
SWIDTH 438 0
DWIDTH 7 0
BBX 6 10 0 -3
BITMAP
EC
48
50
60
50
48
EC
00
10
20
ENDCHAR
STARTCHAR uni0137
ENCODING 311
SWIDTH 438 0
DWIDTH 7 0
BBX 6 10 0 -3
BITMAP
C0
40
4C
50
70
48
EC
00
10
20
ENDCHAR
STARTCHAR kgreenlandic
ENCODING 312
SWIDTH 438 0
DWIDTH 7 0
BBX 6 5 0 0
BITMAP
CC
50
70
48
EC
ENDCHAR
STARTCHAR Lacute
ENCODING 313
SWIDTH 438 0
DWIDTH 7 0
BBX 6 10 0 0
BITMAP
20
40
00
E0
40
40
40
40
44
FC
ENDCHAR
STARTCHAR lacute
ENCODING 314
SWIDTH 250 0
DWIDTH 4 0
BBX 3 10 0 0
BITMAP
20
40
00
C0
40
40
40
40
40
E0
ENDCHAR
STARTCHAR uni013B
ENCODING 315
SWIDTH 438 0
DWIDTH 7 0
BBX 6 10 0 -3
BITMAP
E0
40
40
40
40
44
FC
00
20
40
ENDCHAR
STARTCHAR uni013C
ENCODING 316
SWIDTH 250 0
DWIDTH 4 0
BBX 3 10 0 -3
BITMAP
C0
40
40
40
40
40
E0
00
40
80
ENDCHAR
STARTCHAR Lcaron
ENCODING 317
SWIDTH 438 0
DWIDTH 7 0
BBX 6 7 0 0
BITMAP
E8
48
40
40
40
44
FC
ENDCHAR
STARTCHAR lcaron
ENCODING 318
SWIDTH 312 0
DWIDTH 5 0
BBX 4 8 0 0
BITMAP
10
D0
40
40
40
40
40
E0
ENDCHAR
STARTCHAR Ldot
ENCODING 319
SWIDTH 438 0
DWIDTH 7 0
BBX 6 7 0 0
BITMAP
E0
40
40
50
40
44
FC
ENDCHAR
STARTCHAR ldot
ENCODING 320
SWIDTH 312 0
DWIDTH 5 0
BBX 4 7 0 0
BITMAP
C0
40
40
50
40
40
E0
ENDCHAR
STARTCHAR Lslash
ENCODING 321
SWIDTH 438 0
DWIDTH 7 0
BBX 6 7 0 0
BITMAP
E0
40
50
60
C0
44
FC
ENDCHAR
STARTCHAR lslash
ENCODING 322
SWIDTH 250 0
DWIDTH 4 0
BBX 3 7 0 0
BITMAP
C0
40
40
60
C0
40
E0
ENDCHAR
STARTCHAR Nacute
ENCODING 323
SWIDTH 500 0
DWIDTH 8 0
BBX 7 10 0 0
BITMAP
08
10
00
CE
64
64
54
4C
4C
E4
ENDCHAR
STARTCHAR nacute
ENCODING 324
SWIDTH 438 0
DWIDTH 7 0
BBX 6 8 0 0
BITMAP
10
20
00
D0
68
48
48
DC
ENDCHAR
STARTCHAR uni0145
ENCODING 325
SWIDTH 500 0
DWIDTH 8 0
BBX 7 10 0 -3
BITMAP
CE
64
64
54
4C
4C
E4
00
10
20
ENDCHAR
STARTCHAR uni0146
ENCODING 326
SWIDTH 438 0
DWIDTH 7 0
BBX 6 8 0 -3
BITMAP
D0
68
48
48
DC
00
20
40
ENDCHAR
STARTCHAR Ncaron
ENCODING 327
SWIDTH 500 0
DWIDTH 8 0
BBX 7 10 0 0
BITMAP
28
10
00
CE
64
64
54
4C
4C
E4
ENDCHAR
STARTCHAR ncaron
ENCODING 328
SWIDTH 438 0
DWIDTH 7 0
BBX 6 8 0 0
BITMAP
50
20
00
D0
68
48
48
DC
ENDCHAR
STARTCHAR napostrophe
ENCODING 329
SWIDTH 562 0
DWIDTH 9 0
BBX 8 7 0 0
BITMAP
80
80
34
1A
12
12
37
ENDCHAR
STARTCHAR Eng
ENCODING 330
SWIDTH 438 0
DWIDTH 7 0
BBX 6 7 0 0
BITMAP
D8
64
44
44
44
44
E8
ENDCHAR
STARTCHAR eng
ENCODING 331
SWIDTH 375 0
DWIDTH 6 0
BBX 5 7 0 -2
BITMAP
D0
68
48
48
E8
08
10
ENDCHAR
STARTCHAR Omacron
ENCODING 332
SWIDTH 500 0
DWIDTH 8 0
BBX 7 9 0 0
BITMAP
38
00
38
44
82
82
82
44
38
ENDCHAR
STARTCHAR omacron
ENCODING 333
SWIDTH 375 0
DWIDTH 6 0
BBX 5 7 0 0
BITMAP
70
00
70
88
88
88
70
ENDCHAR
STARTCHAR Obreve
ENCODING 334
SWIDTH 500 0
DWIDTH 8 0
BBX 7 10 0 0
BITMAP
44
38
00
38
44
82
82
82
44
38
ENDCHAR
STARTCHAR obreve
ENCODING 335
SWIDTH 375 0
DWIDTH 6 0
BBX 5 8 0 0
BITMAP
88
70
00
70
88
88
88
70
ENDCHAR
STARTCHAR Ohungarumlaut
ENCODING 336
SWIDTH 500 0
DWIDTH 8 0
BBX 7 10 0 0
BITMAP
12
24
00
38
44
82
82
82
44
38
ENDCHAR
STARTCHAR ohungarumlaut
ENCODING 337
SWIDTH 375 0
DWIDTH 6 0
BBX 5 8 0 0
BITMAP
48
90
00
70
88
88
88
70
ENDCHAR
STARTCHAR OE
ENCODING 338
SWIDTH 625 0
DWIDTH 10 0
BBX 9 7 0 0
BITMAP
3F80
4880
8A00
8E00
8A00
4880
3F80
ENDCHAR
STARTCHAR oe
ENCODING 339
SWIDTH 625 0
DWIDTH 10 0
BBX 9 5 0 0
BITMAP
7700
8880
8F80
8800
7700
ENDCHAR
STARTCHAR Racute
ENCODING 340
SWIDTH 500 0
DWIDTH 8 0
BBX 7 10 0 0
BITMAP
08
10
00
F8
44
44
78
48
44
E6
ENDCHAR
STARTCHAR racute
ENCODING 341
SWIDTH 375 0
DWIDTH 6 0
BBX 5 8 0 0
BITMAP
10
20
00
D8
68
40
40
E0
ENDCHAR
STARTCHAR uni0156
ENCODING 342
SWIDTH 500 0
DWIDTH 8 0
BBX 7 10 0 -3
BITMAP
F8
44
44
78
48
44
E6
00
10
20
ENDCHAR
STARTCHAR uni0157
ENCODING 343
SWIDTH 375 0
DWIDTH 6 0
BBX 5 8 0 -3
BITMAP
D8
68
40
40
E0
00
40
80
ENDCHAR
STARTCHAR Rcaron
ENCODING 344
SWIDTH 500 0
DWIDTH 8 0
BBX 7 10 0 0
BITMAP
28
10
00
F8
44
44
78
48
44
E6
ENDCHAR
STARTCHAR rcaron
ENCODING 345
SWIDTH 375 0
DWIDTH 6 0
BBX 5 8 0 0
BITMAP
50
20
00
D8
68
40
40
E0
ENDCHAR
STARTCHAR Sacute
ENCODING 346
SWIDTH 438 0
DWIDTH 7 0
BBX 6 10 0 0
BITMAP
08
10
00
74
8C
80
78
04
84
78
ENDCHAR
STARTCHAR sacute
ENCODING 347
SWIDTH 375 0
DWIDTH 6 0
BBX 5 8 0 0
BITMAP
10
20
00
70
80
70
08
F0
ENDCHAR
STARTCHAR Scircumflex
ENCODING 348
SWIDTH 438 0
DWIDTH 7 0
BBX 6 10 0 0
BITMAP
10
28
00
74
8C
80
78
04
84
78
ENDCHAR
STARTCHAR scircumflex
ENCODING 349
SWIDTH 375 0
DWIDTH 6 0
BBX 5 8 0 0
BITMAP
20
50
00
70
80
70
08
F0
ENDCHAR
STARTCHAR Scedilla
ENCODING 350
SWIDTH 438 0
DWIDTH 7 0
BBX 6 10 0 -3
BITMAP
74
8C
80
78
04
84
78
10
08
10
ENDCHAR
STARTCHAR scedilla
ENCODING 351
SWIDTH 375 0
DWIDTH 6 0
BBX 5 8 0 -3
BITMAP
70
80
70
08
F0
20
10
20
ENDCHAR
STARTCHAR Scaron
ENCODING 352
SWIDTH 438 0
DWIDTH 7 0
BBX 6 10 0 0
BITMAP
28
10
00
74
8C
80
78
04
84
78
ENDCHAR
STARTCHAR scaron
ENCODING 353
SWIDTH 375 0
DWIDTH 6 0
BBX 5 8 0 0
BITMAP
50
20
00
70
80
70
08
F0
ENDCHAR
STARTCHAR uni0162
ENCODING 354
SWIDTH 500 0
DWIDTH 8 0
BBX 7 10 0 -3
BITMAP
FE
92
10
10
10
10
38
10
08
10
ENDCHAR
STARTCHAR uni0163
ENCODING 355
SWIDTH 312 0
DWIDTH 5 0
BBX 4 10 0 -3
BITMAP
40
40
F0
40
40
40
30
20
10
20
ENDCHAR
STARTCHAR Tcaron
ENCODING 356
SWIDTH 500 0
DWIDTH 8 0
BBX 7 10 0 0
BITMAP
28
10
00
FE
92
10
10
10
10
38
ENDCHAR
STARTCHAR tcaron
ENCODING 357
SWIDTH 312 0
DWIDTH 5 0
BBX 4 8 0 0
BITMAP
10
50
40
F0
40
40
40
30
ENDCHAR
STARTCHAR Tbar
ENCODING 358
SWIDTH 500 0
DWIDTH 8 0
BBX 7 7 0 0
BITMAP
FE
92
10
7C
10
10
38
ENDCHAR
STARTCHAR tbar
ENCODING 359
SWIDTH 312 0
DWIDTH 5 0
BBX 4 7 0 0
BITMAP
40
40
F0
40
E0
40
30
ENDCHAR
STARTCHAR Utilde
ENCODING 360
SWIDTH 500 0
DWIDTH 8 0
BBX 7 10 0 0
BITMAP
24
58
00
EE
44
44
44
44
44
38
ENDCHAR
STARTCHAR utilde
ENCODING 361
SWIDTH 438 0
DWIDTH 7 0
BBX 6 8 0 0
BITMAP
48
B0
00
DC
48
48
58
6C
ENDCHAR
STARTCHAR Umacron
ENCODING 362
SWIDTH 500 0
DWIDTH 8 0
BBX 7 9 0 0
BITMAP
38
00
EE
44
44
44
44
44
38
ENDCHAR
STARTCHAR umacron
ENCODING 363
SWIDTH 438 0
DWIDTH 7 0
BBX 6 7 0 0
BITMAP
70
00
DC
48
48
58
6C
ENDCHAR
STARTCHAR Ubreve
ENCODING 364
SWIDTH 500 0
DWIDTH 8 0
BBX 7 10 0 0
BITMAP
44
38
00
EE
44
44
44
44
44
38
ENDCHAR
STARTCHAR ubreve
ENCODING 365
SWIDTH 438 0
DWIDTH 7 0
BBX 6 8 0 0
BITMAP
48
30
00
DC
48
48
58
6C
ENDCHAR
STARTCHAR Uring
ENCODING 366
SWIDTH 500 0
DWIDTH 8 0
BBX 7 10 0 0
BITMAP
10
28
10
EE
44
44
44
44
44
38
ENDCHAR
STARTCHAR uring
ENCODING 367
SWIDTH 438 0
DWIDTH 7 0
BBX 6 9 0 0
BITMAP
20
50
20
00
DC
48
48
58
6C
ENDCHAR
STARTCHAR Uhungarumlaut
ENCODING 368
SWIDTH 500 0
DWIDTH 8 0
BBX 7 10 0 0
BITMAP
24
48
00
EE
44
44
44
44
44
38
ENDCHAR
STARTCHAR uhungarumlaut
ENCODING 369
SWIDTH 438 0
DWIDTH 7 0
BBX 6 8 0 0
BITMAP
24
48
00
DC
48
48
58
6C
ENDCHAR
STARTCHAR Uogonek
ENCODING 370
SWIDTH 500 0
DWIDTH 8 0
BBX 7 9 0 -2
BITMAP
EE
44
44
44
44
44
38
10
18
ENDCHAR
STARTCHAR uogonek
ENCODING 371
SWIDTH 438 0
DWIDTH 7 0
BBX 6 7 0 -2
BITMAP
DC
48
48
58
6C
08
0C
ENDCHAR
STARTCHAR Wcircumflex
ENCODING 372
SWIDTH 625 0
DWIDTH 10 0
BBX 9 10 0 0
BITMAP
0800
1400
0000
EB80
4900
5500
5500
5500
2200
2200
ENDCHAR
STARTCHAR wcircumflex
ENCODING 373
SWIDTH 500 0
DWIDTH 8 0
BBX 7 8 0 0
BITMAP
10
28
00
D6
54
54
28
28
ENDCHAR
STARTCHAR Ycircumflex
ENCODING 374
SWIDTH 500 0
DWIDTH 8 0
BBX 7 10 0 0
BITMAP
10
28
00
EE
44
28
10
10
10
38
ENDCHAR
STARTCHAR ycircumflex
ENCODING 375
SWIDTH 375 0
DWIDTH 6 0
BBX 5 10 0 -2
BITMAP
20
50
00
D8
50
50
50
20
20
C0
ENDCHAR
STARTCHAR Ydieresis
ENCODING 376
SWIDTH 500 0
DWIDTH 8 0
BBX 7 9 0 0
BITMAP
28
00
EE
44
28
10
10
10
38
ENDCHAR
STARTCHAR Zacute
ENCODING 377
SWIDTH 375 0
DWIDTH 6 0
BBX 5 10 0 0
BITMAP
10
20
00
F8
88
10
20
40
88
F8
ENDCHAR
STARTCHAR zacute
ENCODING 378
SWIDTH 375 0
DWIDTH 6 0
BBX 5 8 0 0
BITMAP
10
20
00
F8
90
20
48
F8
ENDCHAR
STARTCHAR Zdotaccent
ENCODING 379
SWIDTH 375 0
DWIDTH 6 0
BBX 5 9 0 0
BITMAP
20
00
F8
88
10
20
40
88
F8
ENDCHAR
STARTCHAR zdotaccent
ENCODING 380
SWIDTH 375 0
DWIDTH 6 0
BBX 5 7 0 0
BITMAP
20
00
F8
90
20
48
F8
ENDCHAR
STARTCHAR Zcaron
ENCODING 381
SWIDTH 375 0
DWIDTH 6 0
BBX 5 10 0 0
BITMAP
50
20
00
F8
88
10
20
40
88
F8
ENDCHAR
STARTCHAR zcaron
ENCODING 382
SWIDTH 375 0
DWIDTH 6 0
BBX 5 8 0 0
BITMAP
50
20
00
F8
90
20
48
F8
ENDCHAR
STARTCHAR longs
ENCODING 383
SWIDTH 188 0
DWIDTH 3 0
BBX 2 9 0 -2
BITMAP
40
80
80
80
80
80
80
80
80
ENDCHAR
STARTCHAR uni0181
ENCODING 385
SWIDTH 500 0
DWIDTH 8 0
BBX 7 7 0 0
BITMAP
78
A4
A4
3C
22
22
7C
ENDCHAR
STARTCHAR uni0186
ENCODING 390
SWIDTH 500 0
DWIDTH 8 0
BBX 7 7 0 0
BITMAP
78
84
02
02
82
C4
B8
ENDCHAR
STARTCHAR uni0189
ENCODING 393
SWIDTH 500 0
DWIDTH 8 0
BBX 7 7 0 0
BITMAP
F8
44
42
F2
42
44
F8
ENDCHAR
STARTCHAR uni018A
ENCODING 394
SWIDTH 562 0
DWIDTH 9 0
BBX 8 7 0 0
BITMAP
7C
A2
A1
21
21
22
7C
ENDCHAR
STARTCHAR uni018F
ENCODING 399
SWIDTH 500 0
DWIDTH 8 0
BBX 7 7 0 0
BITMAP
B8
C4
02
FE
82
44
38
ENDCHAR
STARTCHAR uni0190
ENCODING 400
SWIDTH 375 0
DWIDTH 6 0
BBX 5 7 0 0
BITMAP
68
98
80
60
80
88
70
ENDCHAR
STARTCHAR uni0191
ENCODING 401
SWIDTH 438 0
DWIDTH 7 0
BBX 6 9 0 -2
BITMAP
FC
44
50
70
50
40
40
40
80
ENDCHAR
STARTCHAR florin
ENCODING 402
SWIDTH 312 0
DWIDTH 5 0
BBX 4 9 0 -2
BITMAP
30
40
F0
40
40
80
80
80
80
ENDCHAR
STARTCHAR uni0193
ENCODING 403
SWIDTH 562 0
DWIDTH 9 0
BBX 8 8 0 0
BITMAP
03
3A
46
80
9E
82
46
3A
ENDCHAR
STARTCHAR uni0194
ENCODING 404
SWIDTH 500 0
DWIDTH 8 0
BBX 7 9 0 -2
BITMAP
EE
44
28
28
10
10
28
28
10
ENDCHAR
STARTCHAR uni0197
ENCODING 407
SWIDTH 250 0
DWIDTH 4 0
BBX 3 7 0 0
BITMAP
E0
40
40
E0
40
40
E0
ENDCHAR
STARTCHAR uni0198
ENCODING 408
SWIDTH 500 0
DWIDTH 8 0
BBX 7 7 0 0
BITMAP
E4
4A
50
60
50
48
EC
ENDCHAR
STARTCHAR uni0199
ENCODING 409
SWIDTH 438 0
DWIDTH 7 0
BBX 6 7 0 0
BITMAP
30
40
4C
50
70
48
EC
ENDCHAR
STARTCHAR uni019D
ENCODING 413
SWIDTH 500 0
DWIDTH 8 0
BBX 7 9 0 -2
BITMAP
CE
64
64
54
4C
4C
44
40
80
ENDCHAR
STARTCHAR Ohorn
ENCODING 416
SWIDTH 562 0
DWIDTH 9 0
BBX 8 8 0 0
BITMAP
01
39
46
82
82
82
44
38
ENDCHAR
STARTCHAR ohorn
ENCODING 417
SWIDTH 500 0
DWIDTH 8 0
BBX 7 6 0 0
BITMAP
02
72
8C
88
88
70
ENDCHAR
STARTCHAR uni01A2
ENCODING 418
SWIDTH 625 0
DWIDTH 10 0
BBX 9 9 0 -2
BITMAP
3600
4900
8500
8500
8500
4900
3100
0100
0380
ENDCHAR
STARTCHAR uni01A3
ENCODING 419
SWIDTH 500 0
DWIDTH 8 0
BBX 7 7 0 -2
BITMAP
6C
94
94
94
64
04
06
ENDCHAR
STARTCHAR Uhorn
ENCODING 431
SWIDTH 562 0
DWIDTH 9 0
BBX 8 8 0 0
BITMAP
01
ED
46
44
44
44
44
38
ENDCHAR
STARTCHAR uhorn
ENCODING 432
SWIDTH 500 0
DWIDTH 8 0
BBX 7 6 0 0
BITMAP
02
DA
4C
48
58
6C
ENDCHAR
STARTCHAR uni01B2
ENCODING 434
SWIDTH 438 0
DWIDTH 7 0
BBX 6 7 0 0
BITMAP
E8
44
44
44
44
44
38
ENDCHAR
STARTCHAR uni01B3
ENCODING 435
SWIDTH 562 0
DWIDTH 9 0
BBX 8 7 0 0
BITMAP
E2
45
28
10
10
10
38
ENDCHAR
STARTCHAR uni01B4
ENCODING 436
SWIDTH 438 0
DWIDTH 7 0
BBX 6 9 0 -2
BITMAP
08
14
D0
50
50
50
20
20
C0
ENDCHAR
STARTCHAR uni01B7
ENCODING 439
SWIDTH 375 0
DWIDTH 6 0
BBX 5 7 0 0
BITMAP
F8
90
20
30
08
88
70
ENDCHAR
STARTCHAR uni01C0
ENCODING 448
SWIDTH 125 0
DWIDTH 2 0
BBX 1 7 0 0
BITMAP
80
80
80
80
80
80
80
ENDCHAR
STARTCHAR uni01C1
ENCODING 449
SWIDTH 250 0
DWIDTH 4 0
BBX 3 7 0 0
BITMAP
A0
A0
A0
A0
A0
A0
A0
ENDCHAR
STARTCHAR uni01C2
ENCODING 450
SWIDTH 375 0
DWIDTH 6 0
BBX 5 7 0 0
BITMAP
20
20
F8
20
F8
20
20
ENDCHAR
STARTCHAR uni01C3
ENCODING 451
SWIDTH 125 0
DWIDTH 2 0
BBX 1 7 0 0
BITMAP
80
80
80
80
80
00
80
ENDCHAR
STARTCHAR uni01CA
ENCODING 458
SWIDTH 688 0
DWIDTH 11 0
BBX 10 7 0 0
BITMAP
DDC0
6880
6880
5880
5880
4A80
E900
ENDCHAR
STARTCHAR uni01CB
ENCODING 459
SWIDTH 562 0
DWIDTH 9 0
BBX 8 9 0 -2
BITMAP
DD
68
6B
59
59
49
E9
01
02
ENDCHAR
STARTCHAR uni01CC
ENCODING 460
SWIDTH 562 0
DWIDTH 9 0
BBX 8 9 0 -2
BITMAP
01
00
D3
69
49
49
DD
01
02
ENDCHAR
STARTCHAR uni01CD
ENCODING 461
SWIDTH 500 0
DWIDTH 8 0
BBX 7 10 0 0
BITMAP
28
10
00
10
28
28
28
7C
44
EE
ENDCHAR
STARTCHAR uni01CE
ENCODING 462
SWIDTH 438 0
DWIDTH 7 0
BBX 6 8 0 0
BITMAP
50
20
00
70
08
78
88
7C
ENDCHAR
STARTCHAR uni01CF
ENCODING 463
SWIDTH 250 0
DWIDTH 4 0
BBX 3 10 0 0
BITMAP
A0
40
00
E0
40
40
40
40
40
E0
ENDCHAR
STARTCHAR uni01D0
ENCODING 464
SWIDTH 250 0
DWIDTH 4 0
BBX 3 8 0 0
BITMAP
A0
40
00
C0
40
40
40
E0
ENDCHAR
STARTCHAR uni01D1
ENCODING 465
SWIDTH 500 0
DWIDTH 8 0
BBX 7 10 0 0
BITMAP
28
10
00
38
44
82
82
82
44
38
ENDCHAR
STARTCHAR uni01D2
ENCODING 466
SWIDTH 375 0
DWIDTH 6 0
BBX 5 8 0 0
BITMAP
50
20
00
70
88
88
88
70
ENDCHAR
STARTCHAR uni01D3
ENCODING 467
SWIDTH 500 0
DWIDTH 8 0
BBX 7 10 0 0
BITMAP
28
10
00
EE
44
44
44
44
44
38
ENDCHAR
STARTCHAR uni01D4
ENCODING 468
SWIDTH 438 0
DWIDTH 7 0
BBX 6 8 0 0
BITMAP
50
20
00
DC
48
48
58
6C
ENDCHAR
STARTCHAR uni01D5
ENCODING 469
SWIDTH 500 0
DWIDTH 8 0
BBX 7 11 0 0
BITMAP
38
00
28
00
EE
44
44
44
44
44
38
ENDCHAR
STARTCHAR uni01D6
ENCODING 470
SWIDTH 438 0
DWIDTH 7 0
BBX 6 9 0 0
BITMAP
70
00
50
00
DC
48
48
58
6C
ENDCHAR
STARTCHAR uni01D7
ENCODING 471
SWIDTH 500 0
DWIDTH 8 0
BBX 7 11 0 0
BITMAP
08
10
44
00
EE
44
44
44
44
44
38
ENDCHAR
STARTCHAR uni01D8
ENCODING 472
SWIDTH 438 0
DWIDTH 7 0
BBX 6 9 0 0
BITMAP
10
20
88
00
DC
48
48
58
6C
ENDCHAR
STARTCHAR uni01D9
ENCODING 473
SWIDTH 500 0
DWIDTH 8 0
BBX 7 11 0 0
BITMAP
28
10
44
00
EE
44
44
44
44
44
38
ENDCHAR
STARTCHAR uni01DA
ENCODING 474
SWIDTH 438 0
DWIDTH 7 0
BBX 6 9 0 0
BITMAP
50
20
88
00
DC
48
48
58
6C
ENDCHAR
STARTCHAR uni01DB
ENCODING 475
SWIDTH 500 0
DWIDTH 8 0
BBX 7 11 0 0
BITMAP
20
10
44
00
EE
44
44
44
44
44
38
ENDCHAR
STARTCHAR uni01DC
ENCODING 476
SWIDTH 438 0
DWIDTH 7 0
BBX 6 9 0 0
BITMAP
40
20
88
00
DC
48
48
58
6C
ENDCHAR
STARTCHAR uni01DE
ENCODING 478
SWIDTH 500 0
DWIDTH 8 0
BBX 7 11 0 0
BITMAP
38
00
28
00
10
28
28
28
7C
44
EE
ENDCHAR
STARTCHAR uni01DF
ENCODING 479
SWIDTH 438 0
DWIDTH 7 0
BBX 6 9 0 0
BITMAP
70
00
50
00
70
08
78
88
7C
ENDCHAR
STARTCHAR uni01E4
ENCODING 484
SWIDTH 562 0
DWIDTH 9 0
BBX 8 7 0 0
BITMAP
1D
23
40
EF
41
23
1D
ENDCHAR
STARTCHAR uni01E5
ENCODING 485
SWIDTH 500 0
DWIDTH 8 0
BBX 7 7 0 -2
BITMAP
36
4C
FE
4C
34
44
38
ENDCHAR
STARTCHAR Gcaron
ENCODING 486
SWIDTH 500 0
DWIDTH 8 0
BBX 7 10 0 0
BITMAP
28
10
00
3A
46
80
9E
82
46
3A
ENDCHAR
STARTCHAR gcaron
ENCODING 487
SWIDTH 438 0
DWIDTH 7 0
BBX 6 10 0 -2
BITMAP
50
20
00
6C
98
88
98
68
88
70
ENDCHAR
STARTCHAR uni01E8
ENCODING 488
SWIDTH 438 0
DWIDTH 7 0
BBX 6 10 0 0
BITMAP
28
10
00
EC
48
50
60
50
48
EC
ENDCHAR
STARTCHAR uni01E9
ENCODING 489
SWIDTH 438 0
DWIDTH 7 0
BBX 6 10 0 0
BITMAP
50
20
00
C0
40
4C
50
70
48
EC
ENDCHAR
STARTCHAR uni01EA
ENCODING 490
SWIDTH 500 0
DWIDTH 8 0
BBX 7 9 0 -2
BITMAP
38
44
82
82
82
44
38
10
18
ENDCHAR
STARTCHAR uni01EB
ENCODING 491
SWIDTH 375 0
DWIDTH 6 0
BBX 5 7 0 -2
BITMAP
70
88
88
88
70
20
30
ENDCHAR
STARTCHAR uni01EE
ENCODING 494
SWIDTH 375 0
DWIDTH 6 0
BBX 5 10 0 0
BITMAP
50
20
00
F8
90
20
30
08
88
70
ENDCHAR
STARTCHAR uni01EF
ENCODING 495
SWIDTH 375 0
DWIDTH 6 0
BBX 5 10 0 -2
BITMAP
50
20
00
F8
90
20
30
08
88
70
ENDCHAR
STARTCHAR uni01F4
ENCODING 500
SWIDTH 500 0
DWIDTH 8 0
BBX 7 10 0 0
BITMAP
08
10
00
3A
46
80
9E
82
46
3A
ENDCHAR
STARTCHAR uni01F5
ENCODING 501
SWIDTH 438 0
DWIDTH 7 0
BBX 6 10 0 -2
BITMAP
10
20
00
6C
98
88
98
68
88
70
ENDCHAR
STARTCHAR uni01F8
ENCODING 504
SWIDTH 500 0
DWIDTH 8 0
BBX 7 10 0 0
BITMAP
20
10
00
CE
64
64
54
4C
4C
E4
ENDCHAR
STARTCHAR uni01F9
ENCODING 505
SWIDTH 438 0
DWIDTH 7 0
BBX 6 8 0 0
BITMAP
40
20
00
D0
68
48
48
DC
ENDCHAR
STARTCHAR uni0218
ENCODING 536
SWIDTH 438 0
DWIDTH 7 0
BBX 6 10 0 -3
BITMAP
74
8C
80
78
04
84
78
00
10
20
ENDCHAR
STARTCHAR uni0219
ENCODING 537
SWIDTH 375 0
DWIDTH 6 0
BBX 5 8 0 -3
BITMAP
70
80
70
08
F0
00
20
40
ENDCHAR
STARTCHAR uni021A
ENCODING 538
SWIDTH 500 0
DWIDTH 8 0
BBX 7 10 0 -3
BITMAP
FE
92
10
10
10
10
38
00
10
20
ENDCHAR
STARTCHAR uni021B
ENCODING 539
SWIDTH 312 0
DWIDTH 5 0
BBX 4 10 0 -3
BITMAP
40
40
F0
40
40
40
30
00
20
40
ENDCHAR
STARTCHAR uni021E
ENCODING 542
SWIDTH 500 0
DWIDTH 8 0
BBX 7 10 0 0
BITMAP
28
10
00
EE
44
44
7C
44
44
EE
ENDCHAR
STARTCHAR uni021F
ENCODING 543
SWIDTH 438 0
DWIDTH 7 0
BBX 6 10 0 0
BITMAP
50
20
00
C0
40
50
68
48
48
DC
ENDCHAR
STARTCHAR uni022C
ENCODING 556
SWIDTH 500 0
DWIDTH 8 0
BBX 7 12 0 0
BITMAP
38
00
24
58
00
38
44
82
82
82
44
38
ENDCHAR
STARTCHAR uni022D
ENCODING 557
SWIDTH 375 0
DWIDTH 6 0
BBX 5 10 0 0
BITMAP
70
00
48
B0
00
70
88
88
88
70
ENDCHAR
STARTCHAR uni022E
ENCODING 558
SWIDTH 500 0
DWIDTH 8 0
BBX 7 9 0 0
BITMAP
10
00
38
44
82
82
82
44
38
ENDCHAR
STARTCHAR uni022F
ENCODING 559
SWIDTH 375 0
DWIDTH 6 0
BBX 5 7 0 0
BITMAP
20
00
70
88
88
88
70
ENDCHAR
STARTCHAR uni0230
ENCODING 560
SWIDTH 500 0
DWIDTH 8 0
BBX 7 11 0 0
BITMAP
38
00
10
00
38
44
82
82
82
44
38
ENDCHAR
STARTCHAR uni0231
ENCODING 561
SWIDTH 375 0
DWIDTH 6 0
BBX 5 9 0 0
BITMAP
70
00
20
00
70
88
88
88
70
ENDCHAR
STARTCHAR uni0232
ENCODING 562
SWIDTH 500 0
DWIDTH 8 0
BBX 7 9 0 0
BITMAP
38
00
EE
44
28
10
10
10
38
ENDCHAR
STARTCHAR uni0233
ENCODING 563
SWIDTH 375 0
DWIDTH 6 0
BBX 5 9 0 -2
BITMAP
70
00
D8
50
50
50
20
20
C0
ENDCHAR
STARTCHAR uni0244
ENCODING 580
SWIDTH 500 0
DWIDTH 8 0
BBX 7 7 0 0
BITMAP
EE
44
44
FE
44
44
38
ENDCHAR
STARTCHAR uni0253
ENCODING 595
SWIDTH 438 0
DWIDTH 7 0
BBX 6 7 0 0
BITMAP
30
40
58
64
44
64
D8
ENDCHAR
STARTCHAR uni0254
ENCODING 596
SWIDTH 375 0
DWIDTH 6 0
BBX 5 5 0 0
BITMAP
70
08
08
88
70
ENDCHAR
STARTCHAR uni0256
ENCODING 598
SWIDTH 438 0
DWIDTH 7 0
BBX 6 9 0 -2
BITMAP
18
08
68
98
88
98
68
08
04
ENDCHAR
STARTCHAR uni0257
ENCODING 599
SWIDTH 500 0
DWIDTH 8 0
BBX 7 7 0 0
BITMAP
04
0A
68
98
88
98
6C
ENDCHAR
STARTCHAR uni0259
ENCODING 601
SWIDTH 375 0
DWIDTH 6 0
BBX 5 5 0 0
BITMAP
70
08
F8
88
70
ENDCHAR
STARTCHAR uni025B
ENCODING 603
SWIDTH 375 0
DWIDTH 6 0
BBX 5 5 0 0
BITMAP
70
88
60
88
70
ENDCHAR
STARTCHAR uni0260
ENCODING 608
SWIDTH 500 0
DWIDTH 8 0
BBX 7 9 0 -2
BITMAP
04
0A
68
98
88
98
68
88
70
ENDCHAR
STARTCHAR uni0263
ENCODING 611
SWIDTH 375 0
DWIDTH 6 0
BBX 5 7 0 -2
BITMAP
D8
50
50
20
50
50
20
ENDCHAR
STARTCHAR uni0268
ENCODING 616
SWIDTH 250 0
DWIDTH 4 0
BBX 3 7 0 0
BITMAP
40
00
C0
40
E0
40
E0
ENDCHAR
STARTCHAR uni0272
ENCODING 626
SWIDTH 438 0
DWIDTH 7 0
BBX 6 7 0 -2
BITMAP
D0
68
48
48
5C
40
80
ENDCHAR
STARTCHAR uni0278
ENCODING 632
SWIDTH 500 0
DWIDTH 8 0
BBX 7 9 0 -2
BITMAP
38
10
7C
92
92
92
7C
10
38
ENDCHAR
STARTCHAR uni0289
ENCODING 649
SWIDTH 438 0
DWIDTH 7 0
BBX 6 5 0 0
BITMAP
DC
48
FC
58
6C
ENDCHAR
STARTCHAR uni028B
ENCODING 651
SWIDTH 375 0
DWIDTH 6 0
BBX 5 5 0 0
BITMAP
D0
48
48
48
30
ENDCHAR
STARTCHAR uni0292
ENCODING 658
SWIDTH 375 0
DWIDTH 6 0
BBX 5 7 0 -2
BITMAP
F8
90
20
30
08
88
70
ENDCHAR
STARTCHAR uni0294
ENCODING 660
SWIDTH 375 0
DWIDTH 6 0
BBX 5 7 0 0
BITMAP
70
88
08
10
20
20
70
ENDCHAR
STARTCHAR uni02B9
ENCODING 697
SWIDTH 125 0
DWIDTH 2 0
BBX 1 2 0 5
BITMAP
80
80
ENDCHAR
STARTCHAR uni02BA
ENCODING 698
SWIDTH 250 0
DWIDTH 4 0
BBX 3 2 0 5
BITMAP
A0
A0
ENDCHAR
STARTCHAR uni02BB
ENCODING 699
SWIDTH 125 0
DWIDTH 2 0
BBX 1 2 0 5
BITMAP
80
80
ENDCHAR
STARTCHAR uni02BC
ENCODING 700
SWIDTH 125 0
DWIDTH 2 0
BBX 1 2 0 5
BITMAP
80
80
ENDCHAR
STARTCHAR uni02BD
ENCODING 701
SWIDTH 125 0
DWIDTH 2 0
BBX 1 2 0 5
BITMAP
80
80
ENDCHAR
STARTCHAR uni02D0
ENCODING 720
SWIDTH 250 0
DWIDTH 4 0
BBX 3 5 0 0
BITMAP
E0
40
00
40
E0
ENDCHAR
STARTCHAR uni02D1
ENCODING 721
SWIDTH 250 0
DWIDTH 4 0
BBX 3 2 0 3
BITMAP
E0
40
ENDCHAR
STARTCHAR uni0370
ENCODING 880
SWIDTH 500 0
DWIDTH 8 0
BBX 6 7 0 0
BITMAP
E0
40
44
7C
44
40
E0
ENDCHAR
STARTCHAR uni0371
ENCODING 881
SWIDTH 438 0
DWIDTH 7 0
BBX 5 5 0 0
BITMAP
E0
40
78
40
40
ENDCHAR
STARTCHAR uni0376
ENCODING 886
SWIDTH 500 0
DWIDTH 8 0
BBX 7 7 0 0
BITMAP
E6
44
4C
54
64
44
CE
ENDCHAR
STARTCHAR uni0377
ENCODING 887
SWIDTH 500 0
DWIDTH 8 0
BBX 7 5 0 0
BITMAP
E6
4C
54
64
CE
ENDCHAR
STARTCHAR uni037B
ENCODING 891
SWIDTH 375 0
DWIDTH 6 0
BBX 5 5 0 0
BITMAP
70
88
08
08
70
ENDCHAR
STARTCHAR uni037C
ENCODING 892
SWIDTH 375 0
DWIDTH 6 0
BBX 5 5 0 0
BITMAP
70
88
A0
80
70
ENDCHAR
STARTCHAR uni037D
ENCODING 893
SWIDTH 375 0
DWIDTH 6 0
BBX 5 5 0 0
BITMAP
70
88
28
08
70
ENDCHAR
STARTCHAR uni037E
ENCODING 894
SWIDTH 188 0
DWIDTH 3 0
BBX 2 7 0 -2
BITMAP
40
00
00
00
40
40
80
ENDCHAR
STARTCHAR uni037F
ENCODING 895
SWIDTH 438 0
DWIDTH 7 0
BBX 6 7 0 0
BITMAP
1C
08
08
08
08
88
70
ENDCHAR
STARTCHAR tonos
ENCODING 900
SWIDTH 125 0
DWIDTH 2 0
BBX 1 2 0 6
BITMAP
80
80
ENDCHAR
STARTCHAR dieresistonos
ENCODING 901
SWIDTH 250 0
DWIDTH 4 0
BBX 3 4 0 6
BITMAP
40
40
00
A0
ENDCHAR
STARTCHAR Alphatonos
ENCODING 902
SWIDTH 500 0
DWIDTH 8 0
BBX 7 8 0 0
BITMAP
80
90
28
28
28
7C
44
EE
ENDCHAR
STARTCHAR anoteleia
ENCODING 903
SWIDTH 125 0
DWIDTH 2 0
BBX 1 1 0 3
BITMAP
80
ENDCHAR
STARTCHAR Epsilontonos
ENCODING 904
SWIDTH 562 0
DWIDTH 9 0
BBX 8 8 0 0
BITMAP
80
BF
11
14
1C
14
11
3F
ENDCHAR
STARTCHAR Etatonos
ENCODING 905
SWIDTH 625 0
DWIDTH 10 0
BBX 9 8 0 0
BITMAP
8000
BB80
1100
1100
1F00
1100
1100
3B80
ENDCHAR
STARTCHAR Iotatonos
ENCODING 906
SWIDTH 375 0
DWIDTH 6 0
BBX 5 8 0 0
BITMAP
80
B8
10
10
10
10
10
38
ENDCHAR
STARTCHAR Omicrontonos
ENCODING 908
SWIDTH 562 0
DWIDTH 9 0
BBX 8 8 0 0
BITMAP
80
9C
22
41
41
41
22
1C
ENDCHAR
STARTCHAR Upsilontonos
ENCODING 910
SWIDTH 625 0
DWIDTH 10 0
BBX 9 8 0 0
BITMAP
8000
BB80
1100
0A00
0400
0400
0400
0E00
ENDCHAR
STARTCHAR Omegatonos
ENCODING 911
SWIDTH 562 0
DWIDTH 9 0
BBX 8 8 0 0
BITMAP
80
9C
22
41
41
22
55
77
ENDCHAR
STARTCHAR iotadieresistonos
ENCODING 912
SWIDTH 188 0
DWIDTH 3 0
BBX 3 10 -1 0
BITMAP
40
40
00
A0
00
40
40
40
40
60
ENDCHAR
STARTCHAR Alpha
ENCODING 913
SWIDTH 500 0
DWIDTH 8 0
BBX 7 7 0 0
BITMAP
10
28
28
28
7C
44
EE
ENDCHAR
STARTCHAR Beta
ENCODING 914
SWIDTH 438 0
DWIDTH 7 0
BBX 6 7 0 0
BITMAP
F0
48
48
78
44
44
F8
ENDCHAR
STARTCHAR Gamma
ENCODING 915
SWIDTH 438 0
DWIDTH 7 0
BBX 6 7 0 0
BITMAP
FC
44
40
40
40
40
E0
ENDCHAR
STARTCHAR uni0394
ENCODING 916
SWIDTH 500 0
DWIDTH 8 0
BBX 7 7 0 0
BITMAP
10
28
28
44
44
82
FE
ENDCHAR
STARTCHAR Epsilon
ENCODING 917
SWIDTH 438 0
DWIDTH 7 0
BBX 6 7 0 0
BITMAP
FC
44
50
70
50
44
FC
ENDCHAR
STARTCHAR Zeta
ENCODING 918
SWIDTH 375 0
DWIDTH 6 0
BBX 5 7 0 0
BITMAP
F8
88
10
20
40
88
F8
ENDCHAR
STARTCHAR Eta
ENCODING 919
SWIDTH 500 0
DWIDTH 8 0
BBX 7 7 0 0
BITMAP
EE
44
44
7C
44
44
EE
ENDCHAR
STARTCHAR Theta
ENCODING 920
SWIDTH 500 0
DWIDTH 8 0
BBX 7 7 0 0
BITMAP
38
44
82
BA
82
44
38
ENDCHAR
STARTCHAR Iota
ENCODING 921
SWIDTH 250 0
DWIDTH 4 0
BBX 3 7 0 0
BITMAP
E0
40
40
40
40
40
E0
ENDCHAR
STARTCHAR Kappa
ENCODING 922
SWIDTH 438 0
DWIDTH 7 0
BBX 6 7 0 0
BITMAP
EC
48
50
60
50
48
EC
ENDCHAR
STARTCHAR Lambda
ENCODING 923
SWIDTH 500 0
DWIDTH 8 0
BBX 7 7 0 0
BITMAP
10
10
28
28
44
44
EE
ENDCHAR
STARTCHAR Mu
ENCODING 924
SWIDTH 625 0
DWIDTH 10 0
BBX 9 7 0 0
BITMAP
C180
6300
6300
5500
5500
4900
EB80
ENDCHAR
STARTCHAR Nu
ENCODING 925
SWIDTH 500 0
DWIDTH 8 0
BBX 7 7 0 0
BITMAP
CE
64
64
54
4C
4C
E4
ENDCHAR
STARTCHAR Xi
ENCODING 926
SWIDTH 438 0
DWIDTH 7 0
BBX 6 7 0 0
BITMAP
FC
84
00
78
00
84
FC
ENDCHAR
STARTCHAR Omicron
ENCODING 927
SWIDTH 500 0
DWIDTH 8 0
BBX 7 7 0 0
BITMAP
38
44
82
82
82
44
38
ENDCHAR
STARTCHAR Pi
ENCODING 928
SWIDTH 500 0
DWIDTH 8 0
BBX 7 7 0 0
BITMAP
FE
44
44
44
44
44
EE
ENDCHAR
STARTCHAR Rho
ENCODING 929
SWIDTH 438 0
DWIDTH 7 0
BBX 6 7 0 0
BITMAP
F8
44
44
78
40
40
E0
ENDCHAR
STARTCHAR Sigma
ENCODING 931
SWIDTH 438 0
DWIDTH 7 0
BBX 6 7 0 0
BITMAP
FC
44
20
10
20
44
FC
ENDCHAR
STARTCHAR Tau
ENCODING 932
SWIDTH 500 0
DWIDTH 8 0
BBX 7 7 0 0
BITMAP
FE
92
10
10
10
10
38
ENDCHAR
STARTCHAR Upsilon
ENCODING 933
SWIDTH 500 0
DWIDTH 8 0
BBX 7 7 0 0
BITMAP
EE
44
28
10
10
10
38
ENDCHAR
STARTCHAR Phi
ENCODING 934
SWIDTH 500 0
DWIDTH 8 0
BBX 7 7 0 0
BITMAP
10
7C
92
92
7C
10
38
ENDCHAR
STARTCHAR Chi
ENCODING 935
SWIDTH 500 0
DWIDTH 8 0
BBX 7 7 0 0
BITMAP
EE
44
28
10
28
44
EE
ENDCHAR
STARTCHAR Psi
ENCODING 936
SWIDTH 625 0
DWIDTH 10 0
BBX 9 7 0 0
BITMAP
DD80
4900
4900
4900
3E00
0800
1C00
ENDCHAR
STARTCHAR uni03A9
ENCODING 937
SWIDTH 500 0
DWIDTH 8 0
BBX 7 7 0 0
BITMAP
38
44
82
82
44
AA
EE
ENDCHAR
STARTCHAR Iotadieresis
ENCODING 938
SWIDTH 250 0
DWIDTH 4 0
BBX 3 9 0 0
BITMAP
A0
00
E0
40
40
40
40
40
E0
ENDCHAR
STARTCHAR Upsilondieresis
ENCODING 939
SWIDTH 500 0
DWIDTH 8 0
BBX 7 9 0 0
BITMAP
28
00
EE
44
28
10
10
10
38
ENDCHAR
STARTCHAR alphatonos
ENCODING 940
SWIDTH 375 0
DWIDTH 6 0
BBX 5 8 0 0
BITMAP
20
20
00
68
90
90
90
68
ENDCHAR
STARTCHAR epsilontonos
ENCODING 941
SWIDTH 375 0
DWIDTH 6 0
BBX 5 8 0 0
BITMAP
20
20
00
70
88
60
88
70
ENDCHAR
STARTCHAR etatonos
ENCODING 942
SWIDTH 375 0
DWIDTH 6 0
BBX 5 10 0 -2
BITMAP
20
20
00
D0
68
48
48
48
08
08
ENDCHAR
STARTCHAR iotatonos
ENCODING 943
SWIDTH 188 0
DWIDTH 3 0
BBX 2 8 0 0
BITMAP
80
80
00
80
80
80
80
C0
ENDCHAR
STARTCHAR upsilondieresistonos
ENCODING 944
SWIDTH 375 0
DWIDTH 6 0
BBX 5 10 0 0
BITMAP
20
20
00
50
00
D0
48
48
48
30
ENDCHAR
STARTCHAR alpha
ENCODING 945
SWIDTH 375 0
DWIDTH 6 0
BBX 5 5 0 0
BITMAP
68
90
90
90
68
ENDCHAR
STARTCHAR beta
ENCODING 946
SWIDTH 375 0
DWIDTH 6 0
BBX 5 9 0 -2
BITMAP
70
88
88
B0
88
C8
B0
80
80
ENDCHAR
STARTCHAR gamma
ENCODING 947
SWIDTH 375 0
DWIDTH 6 0
BBX 5 7 0 -2
BITMAP
C8
48
50
50
20
20
20
ENDCHAR
STARTCHAR delta
ENCODING 948
SWIDTH 375 0
DWIDTH 6 0
BBX 5 7 0 0
BITMAP
30
48
20
50
88
88
70
ENDCHAR
STARTCHAR epsilon
ENCODING 949
SWIDTH 375 0
DWIDTH 6 0
BBX 5 5 0 0
BITMAP
70
88
60
88
70
ENDCHAR
STARTCHAR zeta
ENCODING 950
SWIDTH 312 0
DWIDTH 5 0
BBX 4 9 0 -2
BITMAP
F0
20
40
40
80
80
60
10
20
ENDCHAR
STARTCHAR eta
ENCODING 951
SWIDTH 375 0
DWIDTH 6 0
BBX 5 7 0 -2
BITMAP
D0
68
48
48
48
08
08
ENDCHAR
STARTCHAR theta
ENCODING 952
SWIDTH 375 0
DWIDTH 6 0
BBX 5 7 0 0
BITMAP
70
88
88
F8
88
88
70
ENDCHAR
STARTCHAR iota
ENCODING 953
SWIDTH 188 0
DWIDTH 3 0
BBX 2 5 0 0
BITMAP
80
80
80
80
C0
ENDCHAR
STARTCHAR kappa
ENCODING 954
SWIDTH 438 0
DWIDTH 7 0
BBX 6 5 0 0
BITMAP
CC
50
70
48
4C
ENDCHAR
STARTCHAR lambda
ENCODING 955
SWIDTH 375 0
DWIDTH 6 0
BBX 5 7 0 0
BITMAP
C0
20
20
20
50
50
D8
ENDCHAR
STARTCHAR uni03BC
ENCODING 956
SWIDTH 438 0
DWIDTH 7 0
BBX 6 7 0 -2
BITMAP
C8
48
48
58
6C
40
40
ENDCHAR
STARTCHAR nu
ENCODING 957
SWIDTH 375 0
DWIDTH 6 0
BBX 5 5 0 0
BITMAP
C8
48
50
50
20
ENDCHAR
STARTCHAR xi
ENCODING 958
SWIDTH 312 0
DWIDTH 5 0
BBX 4 9 0 -2
BITMAP
B0
40
30
40
80
80
60
10
20
ENDCHAR
STARTCHAR omicron
ENCODING 959
SWIDTH 375 0
DWIDTH 6 0
BBX 5 5 0 0
BITMAP
70
88
88
88
70
ENDCHAR
STARTCHAR pi
ENCODING 960
SWIDTH 438 0
DWIDTH 7 0
BBX 6 5 0 0
BITMAP
FC
48
48
48
4C
ENDCHAR
STARTCHAR rho
ENCODING 961
SWIDTH 375 0
DWIDTH 6 0
BBX 5 7 0 -2
BITMAP
70
88
88
C8
B0
80
80
ENDCHAR
STARTCHAR sigma1
ENCODING 962
SWIDTH 375 0
DWIDTH 6 0
BBX 5 7 0 -2
BITMAP
68
98
80
80
70
08
10
ENDCHAR
STARTCHAR sigma
ENCODING 963
SWIDTH 438 0
DWIDTH 7 0
BBX 6 5 0 0
BITMAP
7C
90
88
88
70
ENDCHAR
STARTCHAR tau
ENCODING 964
SWIDTH 375 0
DWIDTH 6 0
BBX 5 5 0 0
BITMAP
F8
20
20
20
30
ENDCHAR
STARTCHAR upsilon
ENCODING 965
SWIDTH 375 0
DWIDTH 6 0
BBX 5 5 0 0
BITMAP
D0
48
48
48
30
ENDCHAR
STARTCHAR phi
ENCODING 966
SWIDTH 500 0
DWIDTH 8 0
BBX 7 7 0 -2
BITMAP
5C
92
92
54
38
10
10
ENDCHAR
STARTCHAR chi
ENCODING 967
SWIDTH 375 0
DWIDTH 6 0
BBX 5 7 0 -2
BITMAP
C8
48
50
20
50
90
98
ENDCHAR
STARTCHAR psi
ENCODING 968
SWIDTH 500 0
DWIDTH 8 0
BBX 7 8 0 -2
BITMAP
10
D6
54
54
54
38
10
10
ENDCHAR
STARTCHAR omega
ENCODING 969
SWIDTH 500 0
DWIDTH 8 0
BBX 7 5 0 0
BITMAP
44
82
92
92
6C
ENDCHAR
STARTCHAR iotadieresis
ENCODING 970
SWIDTH 188 0
DWIDTH 3 0
BBX 3 7 -1 0
BITMAP
A0
00
40
40
40
40
60
ENDCHAR
STARTCHAR upsilondieresis
ENCODING 971
SWIDTH 375 0
DWIDTH 6 0
BBX 5 7 0 0
BITMAP
50
00
D0
48
48
48
30
ENDCHAR
STARTCHAR omicrontonos
ENCODING 972
SWIDTH 375 0
DWIDTH 6 0
BBX 5 8 0 0
BITMAP
20
20
00
70
88
88
88
70
ENDCHAR
STARTCHAR upsilontonos
ENCODING 973
SWIDTH 375 0
DWIDTH 6 0
BBX 5 8 0 0
BITMAP
20
20
00
D0
48
48
48
30
ENDCHAR
STARTCHAR omegatonos
ENCODING 974
SWIDTH 500 0
DWIDTH 8 0
BBX 7 8 0 0
BITMAP
10
10
00
44
82
92
92
6C
ENDCHAR
STARTCHAR uni03D0
ENCODING 976
SWIDTH 375 0
DWIDTH 6 0
BBX 5 7 0 0
BITMAP
30
48
88
B0
88
48
30
ENDCHAR
STARTCHAR theta1
ENCODING 977
SWIDTH 438 0
DWIDTH 7 0
BBX 6 7 0 0
BITMAP
30
48
28
1C
C8
48
30
ENDCHAR
STARTCHAR phi1
ENCODING 981
SWIDTH 500 0
DWIDTH 8 0
BBX 7 9 0 -2
BITMAP
30
10
7C
92
92
92
7C
10
38
ENDCHAR
STARTCHAR uni03D8
ENCODING 984
SWIDTH 500 0
DWIDTH 8 0
BBX 7 9 0 -2
BITMAP
38
44
82
82
82
44
38
10
10
ENDCHAR
STARTCHAR uni03D9
ENCODING 985
SWIDTH 375 0
DWIDTH 6 0
BBX 5 7 0 -2
BITMAP
70
88
88
88
70
20
20
ENDCHAR
STARTCHAR uni03DA
ENCODING 986
SWIDTH 438 0
DWIDTH 7 0
BBX 6 9 0 -2
BITMAP
38
44
80
80
80
40
30
08
10
ENDCHAR
STARTCHAR uni03DB
ENCODING 987
SWIDTH 375 0
DWIDTH 6 0
BBX 5 8 0 -2
BITMAP
08
70
80
80
80
70
08
10
ENDCHAR
STARTCHAR uni03F2
ENCODING 1010
SWIDTH 375 0
DWIDTH 6 0
BBX 5 5 0 0
BITMAP
70
88
80
80
70
ENDCHAR
STARTCHAR uni03F3
ENCODING 1011
SWIDTH 188 0
DWIDTH 3 0
BBX 2 9 0 -2
BITMAP
40
00
C0
40
40
40
40
40
80
ENDCHAR
STARTCHAR uni03F4
ENCODING 1012
SWIDTH 500 0
DWIDTH 8 0
BBX 7 7 0 0
BITMAP
38
44
82
FE
82
44
38
ENDCHAR
STARTCHAR uni03F9
ENCODING 1017
SWIDTH 500 0
DWIDTH 8 0
BBX 7 7 0 0
BITMAP
3A
46
82
80
80
42
3C
ENDCHAR
STARTCHAR uni03FD
ENCODING 1021
SWIDTH 500 0
DWIDTH 8 0
BBX 7 7 0 0
BITMAP
B8
C4
82
02
02
84
78
ENDCHAR
STARTCHAR uni03FE
ENCODING 1022
SWIDTH 500 0
DWIDTH 8 0
BBX 7 7 0 0
BITMAP
3A
46
82
90
80
42
3C
ENDCHAR
STARTCHAR uni03FF
ENCODING 1023
SWIDTH 500 0
DWIDTH 8 0
BBX 7 7 0 0
BITMAP
B8
C4
82
12
02
84
78
ENDCHAR
STARTCHAR uni0400
ENCODING 1024
SWIDTH 438 0
DWIDTH 7 0
BBX 6 10 0 0
BITMAP
20
10
00
FC
44
50
70
50
44
FC
ENDCHAR
STARTCHAR uni0401
ENCODING 1025
SWIDTH 438 0
DWIDTH 7 0
BBX 6 9 0 0
BITMAP
28
00
FC
44
50
70
50
44
FC
ENDCHAR
STARTCHAR uni0402
ENCODING 1026
SWIDTH 562 0
DWIDTH 9 0
BBX 8 7 0 0
BITMAP
F8
A0
2E
31
21
21
76
ENDCHAR
STARTCHAR uni0403
ENCODING 1027
SWIDTH 438 0
DWIDTH 7 0
BBX 6 10 0 0
BITMAP
10
20
00
FC
44
40
40
40
40
E0
ENDCHAR
STARTCHAR uni0404
ENCODING 1028
SWIDTH 438 0
DWIDTH 7 0
BBX 6 7 0 0
BITMAP
34
4C
80
F0
80
44
38
ENDCHAR
STARTCHAR uni0405
ENCODING 1029
SWIDTH 438 0
DWIDTH 7 0
BBX 6 7 0 0
BITMAP
74
8C
80
78
04
84
78
ENDCHAR
STARTCHAR uni0406
ENCODING 1030
SWIDTH 250 0
DWIDTH 4 0
BBX 3 7 0 0
BITMAP
E0
40
40
40
40
40
E0
ENDCHAR
STARTCHAR uni0407
ENCODING 1031
SWIDTH 250 0
DWIDTH 4 0
BBX 3 9 0 0
BITMAP
A0
00
E0
40
40
40
40
40
E0
ENDCHAR
STARTCHAR uni0408
ENCODING 1032
SWIDTH 438 0
DWIDTH 7 0
BBX 6 7 0 0
BITMAP
1C
08
08
08
08
88
70
ENDCHAR
STARTCHAR uni0409
ENCODING 1033
SWIDTH 688 0
DWIDTH 11 0
BBX 10 7 0 0
BITMAP
7E00
2400
2400
2780
2440
4440
CF80
ENDCHAR
STARTCHAR uni040A
ENCODING 1034
SWIDTH 688 0
DWIDTH 11 0
BBX 10 7 0 0
BITMAP
EE00
4400
4400
7F80
4440
4440
EF80
ENDCHAR
STARTCHAR uni040B
ENCODING 1035
SWIDTH 562 0
DWIDTH 9 0
BBX 8 7 0 0
BITMAP
F8
A0
2C
32
22
22
77
ENDCHAR
STARTCHAR uni040C
ENCODING 1036
SWIDTH 438 0
DWIDTH 7 0
BBX 6 10 0 0
BITMAP
08
10
00
EC
48
50
60
50
48
EC
ENDCHAR
STARTCHAR uni040D
ENCODING 1037
SWIDTH 500 0
DWIDTH 8 0
BBX 7 10 0 0
BITMAP
20
10
00
EE
44
4C
54
64
44
EE
ENDCHAR
STARTCHAR uni040E
ENCODING 1038
SWIDTH 500 0
DWIDTH 8 0
BBX 7 10 0 0
BITMAP
28
10
00
EE
44
28
28
10
10
60
ENDCHAR
STARTCHAR uni040F
ENCODING 1039
SWIDTH 500 0
DWIDTH 8 0
BBX 7 9 0 -2
BITMAP
EE
44
44
44
44
44
FE
10
10
ENDCHAR
STARTCHAR uni0410
ENCODING 1040
SWIDTH 500 0
DWIDTH 8 0
BBX 7 7 0 0
BITMAP
10
28
28
28
7C
44
EE
ENDCHAR
STARTCHAR uni0411
ENCODING 1041
SWIDTH 438 0
DWIDTH 7 0
BBX 6 7 0 0
BITMAP
F8
48
40
78
44
44
F8
ENDCHAR
STARTCHAR uni0412
ENCODING 1042
SWIDTH 438 0
DWIDTH 7 0
BBX 6 7 0 0
BITMAP
F0
48
48
78
44
44
F8
ENDCHAR
STARTCHAR uni0413
ENCODING 1043
SWIDTH 438 0
DWIDTH 7 0
BBX 6 7 0 0
BITMAP
FC
44
40
40
40
40
E0
ENDCHAR
STARTCHAR uni0414
ENCODING 1044
SWIDTH 500 0
DWIDTH 8 0
BBX 7 9 0 -2
BITMAP
7E
24
24
24
24
44
FE
82
82
ENDCHAR
STARTCHAR uni0415
ENCODING 1045
SWIDTH 438 0
DWIDTH 7 0
BBX 6 7 0 0
BITMAP
FC
44
50
70
50
44
FC
ENDCHAR
STARTCHAR uni0416
ENCODING 1046
SWIDTH 625 0
DWIDTH 10 0
BBX 9 7 0 0
BITMAP
DD80
4900
2A00
1C00
2A00
4900
DD80
ENDCHAR
STARTCHAR uni0417
ENCODING 1047
SWIDTH 375 0
DWIDTH 6 0
BBX 5 7 0 0
BITMAP
B0
C8
08
30
08
88
70
ENDCHAR
STARTCHAR uni0418
ENCODING 1048
SWIDTH 500 0
DWIDTH 8 0
BBX 7 7 0 0
BITMAP
EE
44
4C
54
64
44
EE
ENDCHAR
STARTCHAR uni0419
ENCODING 1049
SWIDTH 500 0
DWIDTH 8 0
BBX 7 10 0 0
BITMAP
28
10
00
EE
44
4C
54
64
44
EE
ENDCHAR
STARTCHAR uni041A
ENCODING 1050
SWIDTH 438 0
DWIDTH 7 0
BBX 6 7 0 0
BITMAP
EC
48
50
60
50
48
EC
ENDCHAR
STARTCHAR uni041B
ENCODING 1051
SWIDTH 500 0
DWIDTH 8 0
BBX 7 7 0 0
BITMAP
7E
24
24
24
24
44
CE
ENDCHAR
STARTCHAR uni041C
ENCODING 1052
SWIDTH 625 0
DWIDTH 10 0
BBX 9 7 0 0
BITMAP
C180
6300
6300
5500
5500
4900
EB80
ENDCHAR
STARTCHAR uni041D
ENCODING 1053
SWIDTH 500 0
DWIDTH 8 0
BBX 7 7 0 0
BITMAP
EE
44
44
7C
44
44
EE
ENDCHAR
STARTCHAR uni041E
ENCODING 1054
SWIDTH 500 0
DWIDTH 8 0
BBX 7 7 0 0
BITMAP
38
44
82
82
82
44
38
ENDCHAR
STARTCHAR uni041F
ENCODING 1055
SWIDTH 500 0
DWIDTH 8 0
BBX 7 7 0 0
BITMAP
FE
44
44
44
44
44
EE
ENDCHAR
STARTCHAR uni0420
ENCODING 1056
SWIDTH 438 0
DWIDTH 7 0
BBX 6 7 0 0
BITMAP
F8
44
44
78
40
40
E0
ENDCHAR
STARTCHAR uni0421
ENCODING 1057
SWIDTH 500 0
DWIDTH 8 0
BBX 7 7 0 0
BITMAP
3A
46
82
80
80
42
3C
ENDCHAR
STARTCHAR uni0422
ENCODING 1058
SWIDTH 500 0
DWIDTH 8 0
BBX 7 7 0 0
BITMAP
FE
92
10
10
10
10
38
ENDCHAR
STARTCHAR uni0423
ENCODING 1059
SWIDTH 500 0
DWIDTH 8 0
BBX 7 7 0 0
BITMAP
EE
44
28
28
10
10
60
ENDCHAR
STARTCHAR uni0424
ENCODING 1060
SWIDTH 500 0
DWIDTH 8 0
BBX 7 8 0 0
BITMAP
10
7C
92
92
92
7C
10
38
ENDCHAR
STARTCHAR uni0425
ENCODING 1061
SWIDTH 500 0
DWIDTH 8 0
BBX 7 7 0 0
BITMAP
EE
44
28
10
28
44
EE
ENDCHAR
STARTCHAR uni0426
ENCODING 1062
SWIDTH 500 0
DWIDTH 8 0
BBX 7 9 0 -2
BITMAP
EE
44
44
44
44
44
FE
02
02
ENDCHAR
STARTCHAR uni0427
ENCODING 1063
SWIDTH 500 0
DWIDTH 8 0
BBX 7 7 0 0
BITMAP
EE
44
44
4C
34
04
0E
ENDCHAR
STARTCHAR uni0428
ENCODING 1064
SWIDTH 750 0
DWIDTH 12 0
BBX 11 7 0 0
BITMAP
EEE0
4440
4440
4440
4440
4440
FFE0
ENDCHAR
STARTCHAR uni0429
ENCODING 1065
SWIDTH 750 0
DWIDTH 12 0
BBX 11 9 0 -2
BITMAP
EEE0
4440
4440
4440
4440
4440
FFE0
0020
0020
ENDCHAR
STARTCHAR uni042A
ENCODING 1066
SWIDTH 562 0
DWIDTH 9 0
BBX 8 7 0 0
BITMAP
F8
90
90
1E
11
11
3E
ENDCHAR
STARTCHAR uni042B
ENCODING 1067
SWIDTH 625 0
DWIDTH 10 0
BBX 9 7 0 0
BITMAP
E380
4100
4100
7100
4900
4900
F380
ENDCHAR
STARTCHAR uni042C
ENCODING 1068
SWIDTH 438 0
DWIDTH 7 0
BBX 6 7 0 0
BITMAP
E0
40
40
78
44
44
F8
ENDCHAR
STARTCHAR uni042D
ENCODING 1069
SWIDTH 438 0
DWIDTH 7 0
BBX 6 7 0 0
BITMAP
B0
C8
04
3C
04
88
70
ENDCHAR
STARTCHAR uni042E
ENCODING 1070
SWIDTH 625 0
DWIDTH 10 0
BBX 9 7 0 0
BITMAP
E700
4880
4880
7880
4880
4880
E700
ENDCHAR
STARTCHAR uni042F
ENCODING 1071
SWIDTH 500 0
DWIDTH 8 0
BBX 7 7 0 0
BITMAP
3E
44
44
3C
24
44
CE
ENDCHAR
STARTCHAR uni0430
ENCODING 1072
SWIDTH 438 0
DWIDTH 7 0
BBX 6 5 0 0
BITMAP
70
08
78
88
7C
ENDCHAR
STARTCHAR uni0431
ENCODING 1073
SWIDTH 375 0
DWIDTH 6 0
BBX 5 8 0 0
BITMAP
08
30
40
B0
C8
88
88
70
ENDCHAR
STARTCHAR uni0432
ENCODING 1074
SWIDTH 438 0
DWIDTH 7 0
BBX 6 5 0 0
BITMAP
F0
48
78
44
F8
ENDCHAR
STARTCHAR uni0433
ENCODING 1075
SWIDTH 375 0
DWIDTH 6 0
BBX 5 5 0 0
BITMAP
F8
48
40
40
E0
ENDCHAR
STARTCHAR uni0434
ENCODING 1076
SWIDTH 438 0
DWIDTH 7 0
BBX 6 7 0 -2
BITMAP
7C
28
28
48
FC
84
84
ENDCHAR
STARTCHAR uni0435
ENCODING 1077
SWIDTH 375 0
DWIDTH 6 0
BBX 5 5 0 0
BITMAP
70
88
F8
80
70
ENDCHAR
STARTCHAR uni0436
ENCODING 1078
SWIDTH 500 0
DWIDTH 8 0
BBX 7 5 0 0
BITMAP
D6
54
38
54
D6
ENDCHAR
STARTCHAR uni0437
ENCODING 1079
SWIDTH 375 0
DWIDTH 6 0
BBX 5 5 0 0
BITMAP
70
08
30
88
70
ENDCHAR
STARTCHAR uni0438
ENCODING 1080
SWIDTH 500 0
DWIDTH 8 0
BBX 7 5 0 0
BITMAP
E6
4C
54
64
CE
ENDCHAR
STARTCHAR uni0439
ENCODING 1081
SWIDTH 500 0
DWIDTH 8 0
BBX 7 8 0 0
BITMAP
28
10
00
E6
4C
54
64
CE
ENDCHAR
STARTCHAR uni043A
ENCODING 1082
SWIDTH 438 0
DWIDTH 7 0
BBX 6 5 0 0
BITMAP
CC
50
70
48
EC
ENDCHAR
STARTCHAR uni043B
ENCODING 1083
SWIDTH 438 0
DWIDTH 7 0
BBX 6 5 0 0
BITMAP
7C
28
28
48
DC
ENDCHAR
STARTCHAR uni043C
ENCODING 1084
SWIDTH 500 0
DWIDTH 8 0
BBX 7 5 0 0
BITMAP
C6
6C
54
44
EE
ENDCHAR
STARTCHAR uni043D
ENCODING 1085
SWIDTH 500 0
DWIDTH 8 0
BBX 7 5 0 0
BITMAP
EE
44
7C
44
EE
ENDCHAR
STARTCHAR uni043E
ENCODING 1086
SWIDTH 375 0
DWIDTH 6 0
BBX 5 5 0 0
BITMAP
70
88
88
88
70
ENDCHAR
STARTCHAR uni043F
ENCODING 1087
SWIDTH 500 0
DWIDTH 8 0
BBX 7 5 0 0
BITMAP
FE
44
44
44
EE
ENDCHAR
STARTCHAR uni0440
ENCODING 1088
SWIDTH 438 0
DWIDTH 7 0
BBX 6 7 0 -2
BITMAP
D8
64
44
64
58
40
E0
ENDCHAR
STARTCHAR uni0441
ENCODING 1089
SWIDTH 375 0
DWIDTH 6 0
BBX 5 5 0 0
BITMAP
70
88
80
80
70
ENDCHAR
STARTCHAR uni0442
ENCODING 1090
SWIDTH 375 0
DWIDTH 6 0
BBX 5 5 0 0
BITMAP
F8
A8
20
20
70
ENDCHAR
STARTCHAR uni0443
ENCODING 1091
SWIDTH 375 0
DWIDTH 6 0
BBX 5 7 0 -2
BITMAP
D8
50
50
50
20
20
C0
ENDCHAR
STARTCHAR uni0444
ENCODING 1092
SWIDTH 500 0
DWIDTH 8 0
BBX 7 9 0 -2
BITMAP
30
10
7C
92
92
92
7C
10
38
ENDCHAR
STARTCHAR uni0445
ENCODING 1093
SWIDTH 375 0
DWIDTH 6 0
BBX 5 5 0 0
BITMAP
D8
50
20
50
D8
ENDCHAR
STARTCHAR uni0446
ENCODING 1094
SWIDTH 500 0
DWIDTH 8 0
BBX 7 7 0 -2
BITMAP
EE
44
44
44
FE
02
02
ENDCHAR
STARTCHAR uni0447
ENCODING 1095
SWIDTH 500 0
DWIDTH 8 0
BBX 7 5 0 0
BITMAP
EE
44
4C
34
06
ENDCHAR
STARTCHAR uni0448
ENCODING 1096
SWIDTH 625 0
DWIDTH 10 0
BBX 9 5 0 0
BITMAP
EB80
4900
4900
4900
FF80
ENDCHAR
STARTCHAR uni0449
ENCODING 1097
SWIDTH 625 0
DWIDTH 10 0
BBX 9 7 0 -2
BITMAP
EB80
4900
4900
4900
FF80
0080
0080
ENDCHAR
STARTCHAR uni044A
ENCODING 1098
SWIDTH 562 0
DWIDTH 9 0
BBX 8 5 0 0
BITMAP
F8
90
1E
11
3E
ENDCHAR
STARTCHAR uni044B
ENCODING 1099
SWIDTH 625 0
DWIDTH 10 0
BBX 9 5 0 0
BITMAP
E380
4100
7100
4900
F380
ENDCHAR
STARTCHAR uni044C
ENCODING 1100
SWIDTH 438 0
DWIDTH 7 0
BBX 6 5 0 0
BITMAP
E0
40
78
44
F8
ENDCHAR
STARTCHAR uni044D
ENCODING 1101
SWIDTH 375 0
DWIDTH 6 0
BBX 5 5 0 0
BITMAP
70
88
38
88
70
ENDCHAR
STARTCHAR uni044E
ENCODING 1102
SWIDTH 625 0
DWIDTH 10 0
BBX 9 5 0 0
BITMAP
E700
4880
7880
4880
E700
ENDCHAR
STARTCHAR uni044F
ENCODING 1103
SWIDTH 438 0
DWIDTH 7 0
BBX 6 5 0 0
BITMAP
3C
48
38
48
DC
ENDCHAR
STARTCHAR uni0450
ENCODING 1104
SWIDTH 375 0
DWIDTH 6 0
BBX 5 8 0 0
BITMAP
40
20
00
70
88
F8
80
70
ENDCHAR
STARTCHAR uni0451
ENCODING 1105
SWIDTH 375 0
DWIDTH 6 0
BBX 5 7 0 0
BITMAP
50
00
70
88
F8
80
70
ENDCHAR
STARTCHAR uni0452
ENCODING 1106
SWIDTH 438 0
DWIDTH 7 0
BBX 6 9 0 -2
BITMAP
40
E0
58
64
44
44
E4
04
08
ENDCHAR
STARTCHAR uni0453
ENCODING 1107
SWIDTH 375 0
DWIDTH 6 0
BBX 5 8 0 0
BITMAP
10
20
00
F8
48
40
40
E0
ENDCHAR
STARTCHAR uni0454
ENCODING 1108
SWIDTH 375 0
DWIDTH 6 0
BBX 5 5 0 0
BITMAP
70
88
E0
88
70
ENDCHAR
STARTCHAR uni0455
ENCODING 1109
SWIDTH 375 0
DWIDTH 6 0
BBX 5 5 0 0
BITMAP
70
80
70
08
F0
ENDCHAR
STARTCHAR uni0456
ENCODING 1110
SWIDTH 250 0
DWIDTH 4 0
BBX 3 7 0 0
BITMAP
40
00
C0
40
40
40
E0
ENDCHAR
STARTCHAR uni0457
ENCODING 1111
SWIDTH 250 0
DWIDTH 4 0
BBX 3 7 0 0
BITMAP
A0
00
C0
40
40
40
E0
ENDCHAR
STARTCHAR uni0458
ENCODING 1112
SWIDTH 188 0
DWIDTH 3 0
BBX 2 9 0 -2
BITMAP
40
00
C0
40
40
40
40
40
80
ENDCHAR
STARTCHAR uni0459
ENCODING 1113
SWIDTH 688 0
DWIDTH 11 0
BBX 10 5 0 0
BITMAP
7E00
2400
2780
4440
CF80
ENDCHAR
STARTCHAR uni045A
ENCODING 1114
SWIDTH 688 0
DWIDTH 11 0
BBX 10 5 0 0
BITMAP
EE00
4400
7F80
4440
EF80
ENDCHAR
STARTCHAR uni045B
ENCODING 1115
SWIDTH 500 0
DWIDTH 8 0
BBX 7 7 0 0
BITMAP
40
E0
58
64
44
44
E6
ENDCHAR
STARTCHAR uni045C
ENCODING 1116
SWIDTH 438 0
DWIDTH 7 0
BBX 6 8 0 0
BITMAP
10
20
00
CC
50
70
48
EC
ENDCHAR
STARTCHAR uni045D
ENCODING 1117
SWIDTH 500 0
DWIDTH 8 0
BBX 7 8 0 0
BITMAP
20
10
00
E6
4C
54
64
CE
ENDCHAR
STARTCHAR uni045E
ENCODING 1118
SWIDTH 375 0
DWIDTH 6 0
BBX 5 10 0 -2
BITMAP
50
20
00
D8
50
50
50
20
20
C0
ENDCHAR
STARTCHAR uni045F
ENCODING 1119
SWIDTH 500 0
DWIDTH 8 0
BBX 7 7 0 -2
BITMAP
EE
44
44
44
FE
10
10
ENDCHAR
STARTCHAR uni0490
ENCODING 1168
SWIDTH 438 0
DWIDTH 7 0
BBX 6 9 0 0
BITMAP
04
04
FC
40
40
40
40
40
E0
ENDCHAR
STARTCHAR uni0491
ENCODING 1169
SWIDTH 375 0
DWIDTH 6 0
BBX 5 7 0 0
BITMAP
08
08
F8
40
40
40
E0
ENDCHAR
STARTCHAR uni0492
ENCODING 1170
SWIDTH 438 0
DWIDTH 7 0
BBX 6 7 0 0
BITMAP
FC
44
40
F0
40
40
E0
ENDCHAR
STARTCHAR uni0493
ENCODING 1171
SWIDTH 375 0
DWIDTH 6 0
BBX 5 5 0 0
BITMAP
F8
48
E0
40
E0
ENDCHAR
STARTCHAR uni0496
ENCODING 1174
SWIDTH 625 0
DWIDTH 10 0
BBX 9 9 0 -2
BITMAP
DD80
4900
2A00
1C00
2A00
4900
DD80
0080
0080
ENDCHAR
STARTCHAR uni0497
ENCODING 1175
SWIDTH 500 0
DWIDTH 8 0
BBX 7 7 0 -2
BITMAP
D6
54
38
54
D6
02
02
ENDCHAR
STARTCHAR uni0498
ENCODING 1176
SWIDTH 375 0
DWIDTH 6 0
BBX 5 9 0 -2
BITMAP
B0
C8
08
30
08
88
70
10
60
ENDCHAR
STARTCHAR uni0499
ENCODING 1177
SWIDTH 375 0
DWIDTH 6 0
BBX 5 7 0 -2
BITMAP
70
08
30
88
70
20
C0
ENDCHAR
STARTCHAR uni049A
ENCODING 1178
SWIDTH 438 0
DWIDTH 7 0
BBX 6 9 0 -2
BITMAP
EC
48
50
60
50
48
EC
04
04
ENDCHAR
STARTCHAR uni049B
ENCODING 1179
SWIDTH 438 0
DWIDTH 7 0
BBX 6 7 0 -2
BITMAP
CC
50
70
48
EC
04
04
ENDCHAR
STARTCHAR uni04A0
ENCODING 1184
SWIDTH 562 0
DWIDTH 9 0
BBX 8 7 0 0
BITMAP
FB
92
94
18
14
12
3B
ENDCHAR
STARTCHAR uni04A1
ENCODING 1185
SWIDTH 562 0
DWIDTH 9 0
BBX 8 5 0 0
BITMAP
F3
94
1C
12
3B
ENDCHAR
STARTCHAR uni04A2
ENCODING 1186
SWIDTH 500 0
DWIDTH 8 0
BBX 7 9 0 -2
BITMAP
EE
44
44
7C
44
44
EE
02
02
ENDCHAR
STARTCHAR uni04A3
ENCODING 1187
SWIDTH 500 0
DWIDTH 8 0
BBX 7 7 0 -2
BITMAP
EE
44
7C
44
EE
02
02
ENDCHAR
STARTCHAR uni04A8
ENCODING 1192
SWIDTH 562 0
DWIDTH 9 0
BBX 8 7 0 0
BITMAP
4C
92
92
92
92
4C
3B
ENDCHAR
STARTCHAR uni04A9
ENCODING 1193
SWIDTH 438 0
DWIDTH 7 0
BBX 6 5 0 0
BITMAP
58
A4
A4
98
74
ENDCHAR
STARTCHAR uni04AA
ENCODING 1194
SWIDTH 500 0
DWIDTH 8 0
BBX 7 9 0 -2
BITMAP
3A
46
82
80
80
42
3C
08
30
ENDCHAR
STARTCHAR uni04AB
ENCODING 1195
SWIDTH 375 0
DWIDTH 6 0
BBX 5 7 0 -2
BITMAP
70
88
80
80
70
10
60
ENDCHAR
STARTCHAR uni04AE
ENCODING 1198
SWIDTH 500 0
DWIDTH 8 0
BBX 7 7 0 0
BITMAP
EE
44
28
10
10
10
38
ENDCHAR
STARTCHAR uni04AF
ENCODING 1199
SWIDTH 500 0
DWIDTH 8 0
BBX 7 7 0 -2
BITMAP
EE
44
28
10
10
10
38
ENDCHAR
STARTCHAR uni04B0
ENCODING 1200
SWIDTH 500 0
DWIDTH 8 0
BBX 7 7 0 0
BITMAP
EE
44
28
FE
10
10
38
ENDCHAR
STARTCHAR uni04B1
ENCODING 1201
SWIDTH 500 0
DWIDTH 8 0
BBX 7 7 0 -2
BITMAP
EE
44
28
10
FE
10
38
ENDCHAR
STARTCHAR uni04B2
ENCODING 1202
SWIDTH 500 0
DWIDTH 8 0
BBX 7 9 0 -2
BITMAP
EE
44
28
10
28
44
EE
02
02
ENDCHAR
STARTCHAR uni04B3
ENCODING 1203
SWIDTH 375 0
DWIDTH 6 0
BBX 5 7 0 -2
BITMAP
D8
50
20
50
D8
08
08
ENDCHAR
STARTCHAR uni04BA
ENCODING 1210
SWIDTH 500 0
DWIDTH 8 0
BBX 7 7 0 0
BITMAP
E0
40
58
64
44
44
EE
ENDCHAR
STARTCHAR uni04BB
ENCODING 1211
SWIDTH 438 0
DWIDTH 7 0
BBX 6 7 0 0
BITMAP
C0
40
50
68
48
48
EC
ENDCHAR
STARTCHAR uni04D0
ENCODING 1232
SWIDTH 500 0
DWIDTH 8 0
BBX 7 10 0 0
BITMAP
44
38
00
10
28
28
28
7C
44
EE
ENDCHAR
STARTCHAR uni04D1
ENCODING 1233
SWIDTH 438 0
DWIDTH 7 0
BBX 6 8 0 0
BITMAP
48
30
00
70
08
78
88
7C
ENDCHAR
STARTCHAR uni04D6
ENCODING 1238
SWIDTH 438 0
DWIDTH 7 0
BBX 6 10 0 0
BITMAP
48
30
00
FC
44
50
70
50
44
FC
ENDCHAR
STARTCHAR uni04D7
ENCODING 1239
SWIDTH 375 0
DWIDTH 6 0
BBX 5 8 0 0
BITMAP
48
30
00
70
88
F8
80
70
ENDCHAR
STARTCHAR uni04D8
ENCODING 1240
SWIDTH 500 0
DWIDTH 8 0
BBX 7 7 0 0
BITMAP
B8
C4
02
FE
82
44
38
ENDCHAR
STARTCHAR uni04D9
ENCODING 1241
SWIDTH 375 0
DWIDTH 6 0
BBX 5 5 0 0
BITMAP
70
08
F8
88
70
ENDCHAR
STARTCHAR uni04E0
ENCODING 1248
SWIDTH 375 0
DWIDTH 6 0
BBX 5 7 0 0
BITMAP
F8
90
20
30
08
88
70
ENDCHAR
STARTCHAR uni04E1
ENCODING 1249
SWIDTH 375 0
DWIDTH 6 0
BBX 5 7 0 -2
BITMAP
F8
90
20
30
08
88
70
ENDCHAR
STARTCHAR uni04E8
ENCODING 1256
SWIDTH 500 0
DWIDTH 8 0
BBX 7 7 0 0
BITMAP
38
44
82
FE
82
44
38
ENDCHAR
STARTCHAR uni04E9
ENCODING 1257
SWIDTH 375 0
DWIDTH 6 0
BBX 5 5 0 0
BITMAP
70
88
F8
88
70
ENDCHAR
STARTCHAR uni04F2
ENCODING 1266
SWIDTH 500 0
DWIDTH 8 0
BBX 7 10 0 0
BITMAP
24
48
00
EE
44
28
28
10
10
60
ENDCHAR
STARTCHAR uni04F3
ENCODING 1267
SWIDTH 375 0
DWIDTH 6 0
BBX 5 10 0 -2
BITMAP
48
90
00
D8
50
50
50
20
20
C0
ENDCHAR
STARTCHAR uni09F3
ENCODING 2547
SWIDTH 438 0
DWIDTH 7 0
BBX 6 7 0 0
BITMAP
C0
20
7C
20
28
24
18
ENDCHAR
STARTCHAR uni0E3F
ENCODING 3647
SWIDTH 438 0
DWIDTH 7 0
BBX 6 9 0 -1
BITMAP
10
F8
54
54
78
54
54
F8
10
ENDCHAR
STARTCHAR uni17DB
ENCODING 6107
SWIDTH 312 0
DWIDTH 5 0
BBX 4 7 0 0
BITMAP
20
40
20
70
20
A0
60
ENDCHAR
STARTCHAR uni1E02
ENCODING 7682
SWIDTH 438 0
DWIDTH 7 0
BBX 6 9 0 0
BITMAP
20
00
F0
48
48
78
44
44
F8
ENDCHAR
STARTCHAR uni1E03
ENCODING 7683
SWIDTH 438 0
DWIDTH 7 0
BBX 6 7 0 0
BITMAP
D0
40
58
64
44
64
D8
ENDCHAR
STARTCHAR uni1E0A
ENCODING 7690
SWIDTH 500 0
DWIDTH 8 0
BBX 7 9 0 0
BITMAP
10
00
F8
44
42
42
42
44
F8
ENDCHAR
STARTCHAR uni1E0B
ENCODING 7691
SWIDTH 438 0
DWIDTH 7 0
BBX 6 7 0 0
BITMAP
58
08
68
98
88
98
6C
ENDCHAR
STARTCHAR uni1E0C
ENCODING 7692
SWIDTH 500 0
DWIDTH 8 0
BBX 7 9 0 -2
BITMAP
F8
44
42
42
42
44
F8
00
10
ENDCHAR
STARTCHAR uni1E0D
ENCODING 7693
SWIDTH 438 0
DWIDTH 7 0
BBX 6 9 0 -2
BITMAP
18
08
68
98
88
98
6C
00
20
ENDCHAR
STARTCHAR uni1E10
ENCODING 7696
SWIDTH 500 0
DWIDTH 8 0
BBX 7 10 0 -3
BITMAP
F8
44
42
42
42
44
F8
00
20
40
ENDCHAR
STARTCHAR uni1E11
ENCODING 7697
SWIDTH 438 0
DWIDTH 7 0
BBX 6 10 0 -3
BITMAP
18
08
68
98
88
98
6C
00
20
40
ENDCHAR
STARTCHAR uni1E1E
ENCODING 7710
SWIDTH 438 0
DWIDTH 7 0
BBX 6 9 0 0
BITMAP
10
00
FC
44
50
70
50
40
E0
ENDCHAR
STARTCHAR uni1E1F
ENCODING 7711
SWIDTH 312 0
DWIDTH 5 0
BBX 4 9 0 0
BITMAP
20
00
30
40
F0
40
40
40
F0
ENDCHAR
STARTCHAR uni1E24
ENCODING 7716
SWIDTH 500 0
DWIDTH 8 0
BBX 7 9 0 -2
BITMAP
EE
44
44
7C
44
44
EE
00
10
ENDCHAR
STARTCHAR uni1E25
ENCODING 7717
SWIDTH 438 0
DWIDTH 7 0
BBX 6 9 0 -2
BITMAP
C0
40
50
68
48
48
DC
00
20
ENDCHAR
STARTCHAR uni1E36
ENCODING 7734
SWIDTH 438 0
DWIDTH 7 0
BBX 6 9 0 -2
BITMAP
E0
40
40
40
40
44
FC
00
20
ENDCHAR
STARTCHAR uni1E37
ENCODING 7735
SWIDTH 250 0
DWIDTH 4 0
BBX 3 9 0 -2
BITMAP
C0
40
40
40
40
40
E0
00
40
ENDCHAR
STARTCHAR uni1E3A
ENCODING 7738
SWIDTH 438 0
DWIDTH 7 0
BBX 6 9 0 -2
BITMAP
E0
40
40
40
40
44
FC
00
78
ENDCHAR
STARTCHAR uni1E3B
ENCODING 7739
SWIDTH 250 0
DWIDTH 4 0
BBX 3 9 0 -2
BITMAP
C0
40
40
40
40
40
E0
00
E0
ENDCHAR
STARTCHAR uni1E3E
ENCODING 7742
SWIDTH 625 0
DWIDTH 10 0
BBX 9 10 0 0
BITMAP
0400
0800
0000
C180
6300
6300
5500
5500
4900
EB80
ENDCHAR
STARTCHAR uni1E3F
ENCODING 7743
SWIDTH 625 0
DWIDTH 10 0
BBX 9 8 0 0
BITMAP
0400
0800
0000
F600
4900
4900
4900
C980
ENDCHAR
STARTCHAR uni1E40
ENCODING 7744
SWIDTH 625 0
DWIDTH 10 0
BBX 9 9 0 0
BITMAP
0800
0000
C180
6300
6300
5500
5500
4900
EB80
ENDCHAR
STARTCHAR uni1E41
ENCODING 7745
SWIDTH 625 0
DWIDTH 10 0
BBX 9 7 0 0
BITMAP
0800
0000
F600
4900
4900
4900
C980
ENDCHAR
STARTCHAR uni1E44
ENCODING 7748
SWIDTH 500 0
DWIDTH 8 0
BBX 7 9 0 -2
BITMAP
CE
64
64
54
4C
4C
E4
00
10
ENDCHAR
STARTCHAR uni1E45
ENCODING 7749
SWIDTH 438 0
DWIDTH 7 0
BBX 6 7 0 -2
BITMAP
D0
68
48
48
DC
00
20
ENDCHAR
STARTCHAR uni1E48
ENCODING 7752
SWIDTH 500 0
DWIDTH 8 0
BBX 7 9 0 -2
BITMAP
CE
64
64
54
4C
4C
E4
00
78
ENDCHAR
STARTCHAR uni1E49
ENCODING 7753
SWIDTH 438 0
DWIDTH 7 0
BBX 6 7 0 -2
BITMAP
D0
68
48
48
DC
00
78
ENDCHAR
STARTCHAR uni1E56
ENCODING 7766
SWIDTH 438 0
DWIDTH 7 0
BBX 6 9 0 0
BITMAP
10
00
F8
44
44
78
40
40
E0
ENDCHAR
STARTCHAR uni1E57
ENCODING 7767
SWIDTH 438 0
DWIDTH 7 0
BBX 6 9 0 -2
BITMAP
10
00
D8
64
44
64
58
40
E0
ENDCHAR
STARTCHAR uni1E5A
ENCODING 7770
SWIDTH 500 0
DWIDTH 8 0
BBX 7 9 0 -2
BITMAP
F8
44
44
78
48
44
E6
00
10
ENDCHAR
STARTCHAR uni1E5B
ENCODING 7771
SWIDTH 375 0
DWIDTH 6 0
BBX 5 7 0 -2
BITMAP
D8
68
40
40
E0
00
40
ENDCHAR
STARTCHAR uni1E60
ENCODING 7776
SWIDTH 438 0
DWIDTH 7 0
BBX 6 9 0 0
BITMAP
10
00
74
8C
80
78
04
84
78
ENDCHAR
STARTCHAR uni1E61
ENCODING 7777
SWIDTH 375 0
DWIDTH 6 0
BBX 5 7 0 0
BITMAP
20
00
70
80
70
08
F0
ENDCHAR
STARTCHAR uni1E62
ENCODING 7778
SWIDTH 438 0
DWIDTH 7 0
BBX 6 9 0 -2
BITMAP
74
8C
80
78
04
84
78
00
10
ENDCHAR
STARTCHAR uni1E63
ENCODING 7779
SWIDTH 375 0
DWIDTH 6 0
BBX 5 7 0 -2
BITMAP
70
80
70
08
F0
00
20
ENDCHAR
STARTCHAR uni1E6A
ENCODING 7786
SWIDTH 500 0
DWIDTH 8 0
BBX 7 9 0 0
BITMAP
10
00
FE
92
10
10
10
10
38
ENDCHAR
STARTCHAR uni1E6B
ENCODING 7787
SWIDTH 312 0
DWIDTH 5 0
BBX 4 9 0 0
BITMAP
40
00
40
40
F0
40
40
40
30
ENDCHAR
STARTCHAR uni1E6C
ENCODING 7788
SWIDTH 500 0
DWIDTH 8 0
BBX 7 9 0 -2
BITMAP
FE
92
10
10
10
10
38
00
10
ENDCHAR
STARTCHAR uni1E6D
ENCODING 7789
SWIDTH 312 0
DWIDTH 5 0
BBX 4 9 0 -2
BITMAP
40
40
F0
40
40
40
30
00
20
ENDCHAR
STARTCHAR uni1E7C
ENCODING 7804
SWIDTH 500 0
DWIDTH 8 0
BBX 7 10 0 0
BITMAP
24
58
00
EE
44
44
28
28
10
10
ENDCHAR
STARTCHAR uni1E7D
ENCODING 7805
SWIDTH 375 0
DWIDTH 6 0
BBX 5 8 0 0
BITMAP
48
B0
00
D8
50
50
20
20
ENDCHAR
STARTCHAR Wgrave
ENCODING 7808
SWIDTH 625 0
DWIDTH 10 0
BBX 9 10 0 0
BITMAP
1000
0800
0000
EB80
4900
5500
5500
5500
2200
2200
ENDCHAR
STARTCHAR wgrave
ENCODING 7809
SWIDTH 500 0
DWIDTH 8 0
BBX 7 8 0 0
BITMAP
20
10
00
D6
54
54
28
28
ENDCHAR
STARTCHAR Wacute
ENCODING 7810
SWIDTH 625 0
DWIDTH 10 0
BBX 9 10 0 0
BITMAP
0400
0800
0000
EB80
4900
5500
5500
5500
2200
2200
ENDCHAR
STARTCHAR wacute
ENCODING 7811
SWIDTH 500 0
DWIDTH 8 0
BBX 7 8 0 0
BITMAP
08
10
00
D6
54
54
28
28
ENDCHAR
STARTCHAR Wdieresis
ENCODING 7812
SWIDTH 625 0
DWIDTH 10 0
BBX 9 9 0 0
BITMAP
1400
0000
EB80
4900
5500
5500
5500
2200
2200
ENDCHAR
STARTCHAR wdieresis
ENCODING 7813
SWIDTH 500 0
DWIDTH 8 0
BBX 7 7 0 0
BITMAP
28
00
D6
54
54
28
28
ENDCHAR
STARTCHAR uni1E92
ENCODING 7826
SWIDTH 375 0
DWIDTH 6 0
BBX 5 9 0 -2
BITMAP
F8
88
10
20
40
88
F8
00
20
ENDCHAR
STARTCHAR uni1E93
ENCODING 7827
SWIDTH 375 0
DWIDTH 6 0
BBX 5 7 0 -2
BITMAP
F8
90
20
48
F8
00
20
ENDCHAR
STARTCHAR uni1E9B
ENCODING 7835
SWIDTH 188 0
DWIDTH 3 0
BBX 2 11 0 -2
BITMAP
40
00
40
80
80
80
80
80
80
80
80
ENDCHAR
STARTCHAR uni1E9C
ENCODING 7836
SWIDTH 250 0
DWIDTH 4 0
BBX 3 9 0 -2
BITMAP
20
40
40
60
C0
40
40
40
40
ENDCHAR
STARTCHAR uni1E9E
ENCODING 7838
SWIDTH 500 0
DWIDTH 8 0
BBX 7 7 0 0
BITMAP
38
44
48
5C
42
42
DC
ENDCHAR
STARTCHAR uni1EA0
ENCODING 7840
SWIDTH 500 0
DWIDTH 8 0
BBX 7 9 0 -2
BITMAP
10
28
28
28
7C
44
EE
00
10
ENDCHAR
STARTCHAR uni1EA1
ENCODING 7841
SWIDTH 438 0
DWIDTH 7 0
BBX 6 7 0 -2
BITMAP
70
08
78
88
7C
00
10
ENDCHAR
STARTCHAR uni1EA2
ENCODING 7842
SWIDTH 500 0
DWIDTH 8 0
BBX 7 11 0 0
BITMAP
30
08
10
00
10
28
28
28
7C
44
EE
ENDCHAR
STARTCHAR uni1EA3
ENCODING 7843
SWIDTH 438 0
DWIDTH 7 0
BBX 6 9 0 0
BITMAP
60
10
20
00
70
08
78
88
7C
ENDCHAR
STARTCHAR uni1EA4
ENCODING 7844
SWIDTH 500 0
DWIDTH 8 0
BBX 8 11 0 0
BITMAP
01
12
28
00
10
28
28
28
7C
44
EE
ENDCHAR
STARTCHAR uni1EA5
ENCODING 7845
SWIDTH 438 0
DWIDTH 7 0
BBX 6 10 0 0
BITMAP
04
08
20
50
00
70
08
78
88
7C
ENDCHAR
STARTCHAR uni1EA6
ENCODING 7846
SWIDTH 500 0
DWIDTH 8 0
BBX 8 11 -1 0
BITMAP
80
48
14
00
08
14
14
14
3E
22
77
ENDCHAR
STARTCHAR uni1EA7
ENCODING 7847
SWIDTH 438 0
DWIDTH 7 0
BBX 7 10 -1 0
BITMAP
80
40
10
28
00
38
04
3C
44
3E
ENDCHAR
STARTCHAR uni1EA8
ENCODING 7848
SWIDTH 500 0
DWIDTH 8 0
BBX 7 11 0 0
BITMAP
06
12
28
00
10
28
28
28
7C
44
EE
ENDCHAR
STARTCHAR uni1EA9
ENCODING 7849
SWIDTH 438 0
DWIDTH 7 0
BBX 6 9 0 0
BITMAP
0C
24
50
00
70
08
78
88
7C
ENDCHAR
STARTCHAR uni1EAA
ENCODING 7850
SWIDTH 500 0
DWIDTH 8 0
BBX 7 12 0 0
BITMAP
24
58
10
28
00
10
28
28
28
7C
44
EE
ENDCHAR
STARTCHAR uni1EAB
ENCODING 7851
SWIDTH 438 0
DWIDTH 7 0
BBX 6 11 0 0
BITMAP
48
B0
00
20
50
00
70
08
78
88
7C
ENDCHAR
STARTCHAR uni1EAC
ENCODING 7852
SWIDTH 500 0
DWIDTH 8 0
BBX 7 12 0 -2
BITMAP
10
28
00
10
28
28
28
7C
44
EE
00
10
ENDCHAR
STARTCHAR uni1EAD
ENCODING 7853
SWIDTH 438 0
DWIDTH 7 0
BBX 6 10 0 -2
BITMAP
20
50
00
70
08
78
88
7C
00
10
ENDCHAR
STARTCHAR uni1EAE
ENCODING 7854
SWIDTH 500 0
DWIDTH 8 0
BBX 7 12 0 0
BITMAP
08
10
44
38
00
10
28
28
28
7C
44
EE
ENDCHAR
STARTCHAR uni1EAF
ENCODING 7855
SWIDTH 438 0
DWIDTH 7 0
BBX 6 10 0 0
BITMAP
10
20
88
70
00
70
08
78
88
7C
ENDCHAR
STARTCHAR uni1EB0
ENCODING 7856
SWIDTH 500 0
DWIDTH 8 0
BBX 7 12 0 0
BITMAP
20
10
44
38
00
10
28
28
28
7C
44
EE
ENDCHAR
STARTCHAR uni1EB1
ENCODING 7857
SWIDTH 438 0
DWIDTH 7 0
BBX 6 10 0 0
BITMAP
40
20
88
70
00
70
08
78
88
7C
ENDCHAR
STARTCHAR uni1EB2
ENCODING 7858
SWIDTH 500 0
DWIDTH 8 0
BBX 7 12 0 0
BITMAP
30
10
44
38
00
10
28
28
28
7C
44
EE
ENDCHAR
STARTCHAR uni1EB3
ENCODING 7859
SWIDTH 438 0
DWIDTH 7 0
BBX 6 10 0 0
BITMAP
60
20
88
70
00
70
08
78
88
7C
ENDCHAR
STARTCHAR uni1EB4
ENCODING 7860
SWIDTH 500 0
DWIDTH 8 0
BBX 7 12 0 0
BITMAP
24
58
00
44
38
10
28
28
28
7C
44
EE
ENDCHAR
STARTCHAR uni1EB5
ENCODING 7861
SWIDTH 438 0
DWIDTH 7 0
BBX 6 11 0 0
BITMAP
48
B0
00
88
70
00
70
08
78
88
7C
ENDCHAR
STARTCHAR uni1EB6
ENCODING 7862
SWIDTH 500 0
DWIDTH 8 0
BBX 7 12 0 -2
BITMAP
44
38
00
10
28
28
28
7C
44
EE
00
10
ENDCHAR
STARTCHAR uni1EB7
ENCODING 7863
SWIDTH 438 0
DWIDTH 7 0
BBX 6 10 0 -2
BITMAP
48
30
00
70
08
78
88
7C
00
10
ENDCHAR
STARTCHAR uni1EB8
ENCODING 7864
SWIDTH 438 0
DWIDTH 7 0
BBX 6 9 0 -2
BITMAP
FC
44
50
70
50
44
FC
00
10
ENDCHAR
STARTCHAR uni1EB9
ENCODING 7865
SWIDTH 375 0
DWIDTH 6 0
BBX 5 7 0 -2
BITMAP
70
88
F8
80
70
00
20
ENDCHAR
STARTCHAR uni1EBA
ENCODING 7866
SWIDTH 438 0
DWIDTH 7 0
BBX 6 11 0 0
BITMAP
30
08
10
00
FC
44
50
70
50
44
FC
ENDCHAR
STARTCHAR uni1EBB
ENCODING 7867
SWIDTH 375 0
DWIDTH 6 0
BBX 5 9 0 0
BITMAP
60
10
20
00
70
88
F8
80
70
ENDCHAR
STARTCHAR uni1EBC
ENCODING 7868
SWIDTH 438 0
DWIDTH 7 0
BBX 6 10 0 0
BITMAP
24
58
00
FC
44
50
70
50
44
FC
ENDCHAR
STARTCHAR uni1EBD
ENCODING 7869
SWIDTH 375 0
DWIDTH 6 0
BBX 5 8 0 0
BITMAP
48
B0
00
70
88
F8
80
70
ENDCHAR
STARTCHAR uni1EBE
ENCODING 7870
SWIDTH 438 0
DWIDTH 7 0
BBX 8 11 0 0
BITMAP
01
12
28
00
FC
44
50
70
50
44
FC
ENDCHAR
STARTCHAR uni1EBF
ENCODING 7871
SWIDTH 375 0
DWIDTH 6 0
BBX 6 10 0 0
BITMAP
04
08
20
50
00
70
88
F8
80
70
ENDCHAR
STARTCHAR uni1EC0
ENCODING 7872
SWIDTH 438 0
DWIDTH 7 0
BBX 7 11 -1 0
BITMAP
80
48
14
00
7E
22
28
38
28
22
7E
ENDCHAR
STARTCHAR uni1EC1
ENCODING 7873
SWIDTH 375 0
DWIDTH 6 0
BBX 6 10 -1 0
BITMAP
80
40
10
28
00
38
44
7C
40
38
ENDCHAR
STARTCHAR uni1EC2
ENCODING 7874
SWIDTH 438 0
DWIDTH 7 0
BBX 7 11 0 0
BITMAP
06
12
28
00
FC
44
50
70
50
44
FC
ENDCHAR
STARTCHAR uni1EC3
ENCODING 7875
SWIDTH 375 0
DWIDTH 6 0
BBX 6 9 0 0
BITMAP
0C
24
50
00
70
88
F8
80
70
ENDCHAR
STARTCHAR uni1EC4
ENCODING 7876
SWIDTH 438 0
DWIDTH 7 0
BBX 6 12 0 0
BITMAP
24
58
10
28
00
FC
44
50
70
50
44
FC
ENDCHAR
STARTCHAR uni1EC5
ENCODING 7877
SWIDTH 375 0
DWIDTH 6 0
BBX 5 11 0 0
BITMAP
48
B0
00
20
50
00
70
88
F8
80
70
ENDCHAR
STARTCHAR uni1EC6
ENCODING 7878
SWIDTH 438 0
DWIDTH 7 0
BBX 6 12 0 -2
BITMAP
10
28
00
FC
44
50
70
50
44
FC
00
10
ENDCHAR
STARTCHAR uni1EC7
ENCODING 7879
SWIDTH 375 0
DWIDTH 6 0
BBX 5 10 0 -2
BITMAP
20
50
00
70
88
F8
80
70
00
20
ENDCHAR
STARTCHAR uni1EC8
ENCODING 7880
SWIDTH 250 0
DWIDTH 4 0
BBX 3 11 0 0
BITMAP
C0
20
40
00
E0
40
40
40
40
40
E0
ENDCHAR
STARTCHAR uni1EC9
ENCODING 7881
SWIDTH 250 0
DWIDTH 4 0
BBX 3 9 0 0
BITMAP
C0
20
40
00
C0
40
40
40
E0
ENDCHAR
STARTCHAR uni1ECA
ENCODING 7882
SWIDTH 250 0
DWIDTH 4 0
BBX 3 9 0 -2
BITMAP
E0
40
40
40
40
40
E0
00
40
ENDCHAR
STARTCHAR uni1ECB
ENCODING 7883
SWIDTH 250 0
DWIDTH 4 0
BBX 3 9 0 -2
BITMAP
40
00
C0
40
40
40
E0
00
40
ENDCHAR
STARTCHAR uni1ECC
ENCODING 7884
SWIDTH 500 0
DWIDTH 8 0
BBX 7 9 0 -2
BITMAP
38
44
82
82
82
44
38
00
10
ENDCHAR
STARTCHAR uni1ECD
ENCODING 7885
SWIDTH 375 0
DWIDTH 6 0
BBX 5 7 0 -2
BITMAP
70
88
88
88
70
00
20
ENDCHAR
STARTCHAR uni1ECE
ENCODING 7886
SWIDTH 500 0
DWIDTH 8 0
BBX 7 11 0 0
BITMAP
30
08
10
00
38
44
82
82
82
44
38
ENDCHAR
STARTCHAR uni1ECF
ENCODING 7887
SWIDTH 375 0
DWIDTH 6 0
BBX 5 9 0 0
BITMAP
60
10
20
00
70
88
88
88
70
ENDCHAR
STARTCHAR uni1ED0
ENCODING 7888
SWIDTH 500 0
DWIDTH 8 0
BBX 8 11 0 0
BITMAP
01
12
28
00
38
44
82
82
82
44
38
ENDCHAR
STARTCHAR uni1ED1
ENCODING 7889
SWIDTH 375 0
DWIDTH 6 0
BBX 6 10 0 0
BITMAP
04
08
20
50
00
70
88
88
88
70
ENDCHAR
STARTCHAR uni1ED2
ENCODING 7890
SWIDTH 500 0
DWIDTH 8 0
BBX 8 11 -1 0
BITMAP
80
48
14
00
1C
22
41
41
41
22
1C
ENDCHAR
STARTCHAR uni1ED3
ENCODING 7891
SWIDTH 375 0
DWIDTH 6 0
BBX 6 10 -1 0
BITMAP
80
40
10
28
00
38
44
44
44
38
ENDCHAR
STARTCHAR uni1ED4
ENCODING 7892
SWIDTH 500 0
DWIDTH 8 0
BBX 7 11 0 0
BITMAP
06
12
28
00
38
44
82
82
82
44
38
ENDCHAR
STARTCHAR uni1ED5
ENCODING 7893
SWIDTH 375 0
DWIDTH 6 0
BBX 6 9 0 0
BITMAP
0C
24
50
00
70
88
88
88
70
ENDCHAR
STARTCHAR uni1ED6
ENCODING 7894
SWIDTH 500 0
DWIDTH 8 0
BBX 7 12 0 0
BITMAP
24
58
10
28
00
38
44
82
82
82
44
38
ENDCHAR
STARTCHAR uni1ED7
ENCODING 7895
SWIDTH 375 0
DWIDTH 6 0
BBX 5 11 0 0
BITMAP
48
B0
00
20
50
00
70
88
88
88
70
ENDCHAR
STARTCHAR uni1ED8
ENCODING 7896
SWIDTH 500 0
DWIDTH 8 0
BBX 7 12 0 -2
BITMAP
10
28
00
38
44
82
82
82
44
38
00
10
ENDCHAR
STARTCHAR uni1ED9
ENCODING 7897
SWIDTH 375 0
DWIDTH 6 0
BBX 5 10 0 -2
BITMAP
20
50
00
70
88
88
88
70
00
20
ENDCHAR
STARTCHAR uni1EDA
ENCODING 7898
SWIDTH 562 0
DWIDTH 9 0
BBX 8 10 0 0
BITMAP
08
10
01
39
46
82
82
82
44
38
ENDCHAR
STARTCHAR uni1EDB
ENCODING 7899
SWIDTH 500 0
DWIDTH 8 0
BBX 7 8 0 0
BITMAP
10
20
02
72
8C
88
88
70
ENDCHAR
STARTCHAR uni1EDC
ENCODING 7900
SWIDTH 562 0
DWIDTH 9 0
BBX 8 10 0 0
BITMAP
20
10
01
39
46
82
82
82
44
38
ENDCHAR
STARTCHAR uni1EDD
ENCODING 7901
SWIDTH 500 0
DWIDTH 8 0
BBX 7 8 0 0
BITMAP
40
20
02
72
8C
88
88
70
ENDCHAR
STARTCHAR uni1EDE
ENCODING 7902
SWIDTH 562 0
DWIDTH 9 0
BBX 8 11 0 0
BITMAP
30
08
10
01
39
46
82
82
82
44
38
ENDCHAR
STARTCHAR uni1EDF
ENCODING 7903
SWIDTH 500 0
DWIDTH 8 0
BBX 7 9 0 0
BITMAP
60
10
20
02
72
8C
88
88
70
ENDCHAR
STARTCHAR uni1EE0
ENCODING 7904
SWIDTH 562 0
DWIDTH 9 0
BBX 8 10 0 0
BITMAP
24
58
01
39
46
82
82
82
44
38
ENDCHAR
STARTCHAR uni1EE1
ENCODING 7905
SWIDTH 500 0
DWIDTH 8 0
BBX 7 8 0 0
BITMAP
48
B0
02
72
8C
88
88
70
ENDCHAR
STARTCHAR uni1EE2
ENCODING 7906
SWIDTH 562 0
DWIDTH 9 0
BBX 8 10 0 -2
BITMAP
01
39
46
82
82
82
44
38
00
10
ENDCHAR
STARTCHAR uni1EE3
ENCODING 7907
SWIDTH 500 0
DWIDTH 8 0
BBX 7 8 0 -2
BITMAP
02
72
8C
88
88
70
00
20
ENDCHAR
STARTCHAR uni1EE4
ENCODING 7908
SWIDTH 500 0
DWIDTH 8 0
BBX 7 9 0 -2
BITMAP
EE
44
44
44
44
44
38
00
10
ENDCHAR
STARTCHAR uni1EE5
ENCODING 7909
SWIDTH 438 0
DWIDTH 7 0
BBX 6 7 0 -2
BITMAP
DC
48
48
58
6C
00
10
ENDCHAR
STARTCHAR uni1EE6
ENCODING 7910
SWIDTH 500 0
DWIDTH 8 0
BBX 7 11 0 0
BITMAP
30
08
10
00
EE
44
44
44
44
44
38
ENDCHAR
STARTCHAR uni1EE7
ENCODING 7911
SWIDTH 438 0
DWIDTH 7 0
BBX 6 9 0 0
BITMAP
60
10
20
00
DC
48
48
58
6C
ENDCHAR
STARTCHAR uni1EE8
ENCODING 7912
SWIDTH 562 0
DWIDTH 9 0
BBX 8 10 0 0
BITMAP
08
10
01
ED
46
44
44
44
44
38
ENDCHAR
STARTCHAR uni1EE9
ENCODING 7913
SWIDTH 500 0
DWIDTH 8 0
BBX 7 8 0 0
BITMAP
10
20
02
DA
4C
48
58
6C
ENDCHAR
STARTCHAR uni1EEA
ENCODING 7914
SWIDTH 562 0
DWIDTH 9 0
BBX 8 10 0 0
BITMAP
20
10
01
ED
46
44
44
44
44
38
ENDCHAR
STARTCHAR uni1EEB
ENCODING 7915
SWIDTH 500 0
DWIDTH 8 0
BBX 7 8 0 0
BITMAP
40
20
02
DA
4C
48
58
6C
ENDCHAR
STARTCHAR uni1EEC
ENCODING 7916
SWIDTH 562 0
DWIDTH 9 0
BBX 8 11 0 0
BITMAP
30
08
10
01
ED
46
44
44
44
44
38
ENDCHAR
STARTCHAR uni1EED
ENCODING 7917
SWIDTH 500 0
DWIDTH 8 0
BBX 7 9 0 0
BITMAP
60
10
20
02
DA
4C
48
58
6C
ENDCHAR
STARTCHAR uni1EEE
ENCODING 7918
SWIDTH 562 0
DWIDTH 9 0
BBX 8 10 0 0
BITMAP
24
58
01
ED
46
44
44
44
44
38
ENDCHAR
STARTCHAR uni1EEF
ENCODING 7919
SWIDTH 500 0
DWIDTH 8 0
BBX 7 8 0 0
BITMAP
48
B0
02
DA
4C
48
58
6C
ENDCHAR
STARTCHAR uni1EF0
ENCODING 7920
SWIDTH 562 0
DWIDTH 9 0
BBX 8 10 0 -2
BITMAP
01
ED
46
44
44
44
44
38
00
10
ENDCHAR
STARTCHAR uni1EF1
ENCODING 7921
SWIDTH 500 0
DWIDTH 8 0
BBX 7 8 0 -2
BITMAP
02
DA
4C
48
58
6C
00
10
ENDCHAR
STARTCHAR Ygrave
ENCODING 7922
SWIDTH 500 0
DWIDTH 8 0
BBX 7 10 0 0
BITMAP
20
10
00
EE
44
28
10
10
10
38
ENDCHAR
STARTCHAR ygrave
ENCODING 7923
SWIDTH 375 0
DWIDTH 6 0
BBX 5 10 0 -2
BITMAP
40
20
00
D8
50
50
50
20
20
C0
ENDCHAR
STARTCHAR uni1EF4
ENCODING 7924
SWIDTH 500 0
DWIDTH 8 0
BBX 7 9 0 -2
BITMAP
EE
44
28
10
10
10
38
00
10
ENDCHAR
STARTCHAR uni1EF5
ENCODING 7925
SWIDTH 375 0
DWIDTH 6 0
BBX 5 7 0 -2
BITMAP
D8
50
50
50
20
20
C8
ENDCHAR
STARTCHAR uni1EF6
ENCODING 7926
SWIDTH 500 0
DWIDTH 8 0
BBX 7 11 0 0
BITMAP
30
08
10
00
EE
44
28
10
10
10
38
ENDCHAR
STARTCHAR uni1EF7
ENCODING 7927
SWIDTH 375 0
DWIDTH 6 0
BBX 5 11 0 -2
BITMAP
60
10
20
00
D8
50
50
50
20
20
C0
ENDCHAR
STARTCHAR uni1EF8
ENCODING 7928
SWIDTH 500 0
DWIDTH 8 0
BBX 7 10 0 0
BITMAP
24
58
00
EE
44
28
10
10
10
38
ENDCHAR
STARTCHAR uni1EF9
ENCODING 7929
SWIDTH 375 0
DWIDTH 6 0
BBX 5 10 0 -2
BITMAP
48
B0
00
D8
50
50
50
20
20
C0
ENDCHAR
STARTCHAR uni1F74
ENCODING 8052
SWIDTH 375 0
DWIDTH 6 0
BBX 5 10 0 -2
BITMAP
40
20
00
D0
68
48
48
48
08
08
ENDCHAR
STARTCHAR uni1F78
ENCODING 8056
SWIDTH 375 0
DWIDTH 6 0
BBX 5 8 0 0
BITMAP
40
20
00
70
88
88
88
70
ENDCHAR
STARTCHAR uni1FC6
ENCODING 8134
SWIDTH 375 0
DWIDTH 6 0
BBX 5 10 0 -2
BITMAP
48
B0
00
D0
68
48
48
48
08
08
ENDCHAR
STARTCHAR uni1FCA
ENCODING 8138
SWIDTH 625 0
DWIDTH 10 0
BBX 10 8 -1 0
BITMAP
8000
5DC0
0880
0880
0F80
0880
0880
1DC0
ENDCHAR
STARTCHAR uni1FF6
ENCODING 8182
SWIDTH 500 0
DWIDTH 8 0
BBX 7 8 0 0
BITMAP
24
58
00
44
82
92
92
6C
ENDCHAR
STARTCHAR uni1FF8
ENCODING 8184
SWIDTH 562 0
DWIDTH 9 0
BBX 9 8 -1 0
BITMAP
8000
4E00
1100
2080
2080
2080
1100
0E00
ENDCHAR
STARTCHAR uni2010
ENCODING 8208
SWIDTH 250 0
DWIDTH 4 0
BBX 3 1 0 3
BITMAP
E0
ENDCHAR
STARTCHAR uni2011
ENCODING 8209
SWIDTH 250 0
DWIDTH 4 0
BBX 3 1 0 3
BITMAP
E0
ENDCHAR
STARTCHAR figuredash
ENCODING 8210
SWIDTH 312 0
DWIDTH 5 0
BBX 4 1 0 3
BITMAP
F0
ENDCHAR
STARTCHAR endash
ENCODING 8211
SWIDTH 312 0
DWIDTH 5 0
BBX 4 1 0 3
BITMAP
F0
ENDCHAR
STARTCHAR emdash
ENCODING 8212
SWIDTH 438 0
DWIDTH 7 0
BBX 6 1 0 3
BITMAP
FC
ENDCHAR
STARTCHAR uni2015
ENCODING 8213
SWIDTH 438 0
DWIDTH 7 0
BBX 6 1 0 3
BITMAP
FC
ENDCHAR
STARTCHAR uni2016
ENCODING 8214
SWIDTH 250 0
DWIDTH 4 0
BBX 3 8 0 -1
BITMAP
A0
A0
A0
A0
A0
A0
A0
A0
ENDCHAR
STARTCHAR underscoredbl
ENCODING 8215
SWIDTH 250 0
DWIDTH 4 0
BBX 3 3 0 -3
BITMAP
E0
00
E0
ENDCHAR
STARTCHAR quoteleft
ENCODING 8216
SWIDTH 125 0
DWIDTH 2 0
BBX 1 2 0 5
BITMAP
80
80
ENDCHAR
STARTCHAR quoteright
ENCODING 8217
SWIDTH 125 0
DWIDTH 2 0
BBX 1 2 0 5
BITMAP
80
80
ENDCHAR
STARTCHAR quotesinglbase
ENCODING 8218
SWIDTH 125 0
DWIDTH 2 0
BBX 1 2 0 -1
BITMAP
80
80
ENDCHAR
STARTCHAR quotereversed
ENCODING 8219
SWIDTH 125 0
DWIDTH 2 0
BBX 1 2 0 5
BITMAP
80
80
ENDCHAR
STARTCHAR quotedblleft
ENCODING 8220
SWIDTH 250 0
DWIDTH 4 0
BBX 3 2 0 5
BITMAP
A0
A0
ENDCHAR
STARTCHAR quotedblright
ENCODING 8221
SWIDTH 250 0
DWIDTH 4 0
BBX 3 2 0 5
BITMAP
A0
A0
ENDCHAR
STARTCHAR quotedblbase
ENCODING 8222
SWIDTH 250 0
DWIDTH 4 0
BBX 3 2 0 -1
BITMAP
A0
A0
ENDCHAR
STARTCHAR uni201F
ENCODING 8223
SWIDTH 250 0
DWIDTH 4 0
BBX 3 2 0 5
BITMAP
A0
A0
ENDCHAR
STARTCHAR dagger
ENCODING 8224
SWIDTH 375 0
DWIDTH 6 0
BBX 5 8 0 -1
BITMAP
20
20
F8
20
20
20
20
20
ENDCHAR
STARTCHAR daggerdbl
ENCODING 8225
SWIDTH 375 0
DWIDTH 6 0
BBX 5 8 0 -1
BITMAP
20
20
F8
20
20
F8
20
20
ENDCHAR
STARTCHAR bullet
ENCODING 8226
SWIDTH 250 0
DWIDTH 4 0
BBX 3 3 0 2
BITMAP
E0
E0
E0
ENDCHAR
STARTCHAR uni2023
ENCODING 8227
SWIDTH 250 0
DWIDTH 4 0
BBX 3 3 0 2
BITMAP
C0
E0
C0
ENDCHAR
STARTCHAR onedotenleader
ENCODING 8228
SWIDTH 125 0
DWIDTH 2 0
BBX 1 1 0 3
BITMAP
80
ENDCHAR
STARTCHAR ellipsis
ENCODING 8230
SWIDTH 375 0
DWIDTH 6 0
BBX 5 1 0 0
BITMAP
A8
ENDCHAR
STARTCHAR perthousand
ENCODING 8240
SWIDTH 562 0
DWIDTH 9 0
BBX 8 7 0 0
BITMAP
D0
D0
20
20
20
5B
5B
ENDCHAR
STARTCHAR minute
ENCODING 8242
SWIDTH 125 0
DWIDTH 2 0
BBX 1 2 0 5
BITMAP
80
80
ENDCHAR
STARTCHAR second
ENCODING 8243
SWIDTH 250 0
DWIDTH 4 0
BBX 3 2 0 5
BITMAP
A0
A0
ENDCHAR
STARTCHAR uni203E
ENCODING 8254
SWIDTH 250 0
DWIDTH 4 0
BBX 3 1 0 7
BITMAP
E0
ENDCHAR
STARTCHAR colonmonetary
ENCODING 8353
SWIDTH 500 0
DWIDTH 8 0
BBX 7 9 0 -1
BITMAP
28
3A
6E
AA
A8
A8
6A
3C
28
ENDCHAR
STARTCHAR uni20A6
ENCODING 8358
SWIDTH 500 0
DWIDTH 8 0
BBX 7 7 0 0
BITMAP
CE
64
FE
54
FE
4C
E4
ENDCHAR
STARTCHAR uni20A9
ENCODING 8361
SWIDTH 625 0
DWIDTH 10 0
BBX 9 7 0 0
BITMAP
EB80
4900
5500
FF80
5500
2200
2200
ENDCHAR
STARTCHAR uni20AA
ENCODING 8362
SWIDTH 500 0
DWIDTH 8 0
BBX 7 6 0 0
BITMAP
F2
8A
AA
AA
A2
BC
ENDCHAR
STARTCHAR dong
ENCODING 8363
SWIDTH 438 0
DWIDTH 7 0
BBX 6 9 0 -2
BITMAP
08
1C
68
98
88
98
6C
00
78
ENDCHAR
STARTCHAR Euro
ENCODING 8364
SWIDTH 438 0
DWIDTH 7 0
BBX 6 7 0 0
BITMAP
38
44
F0
40
F0
44
38
ENDCHAR
STARTCHAR uni20AD
ENCODING 8365
SWIDTH 438 0
DWIDTH 7 0
BBX 6 7 0 0
BITMAP
EC
48
50
FC
50
48
EC
ENDCHAR
STARTCHAR uni20AE
ENCODING 8366
SWIDTH 500 0
DWIDTH 8 0
BBX 7 7 0 0
BITMAP
FE
92
38
10
38
10
38
ENDCHAR
STARTCHAR uni20B1
ENCODING 8369
SWIDTH 438 0
DWIDTH 7 0
BBX 6 7 0 0
BITMAP
F0
48
FC
48
70
40
E0
ENDCHAR
STARTCHAR uni20B2
ENCODING 8370
SWIDTH 500 0
DWIDTH 8 0
BBX 7 9 0 -1
BITMAP
10
3A
56
90
96
92
56
3A
10
ENDCHAR
STARTCHAR uni20B4
ENCODING 8372
SWIDTH 438 0
DWIDTH 7 0
BBX 6 7 0 0
BITMAP
70
08
FC
20
FC
40
38
ENDCHAR
STARTCHAR uni20B5
ENCODING 8373
SWIDTH 500 0
DWIDTH 8 0
BBX 7 9 0 -1
BITMAP
10
3A
56
92
90
90
52
3C
10
ENDCHAR
STARTCHAR uni20B8
ENCODING 8376
SWIDTH 375 0
DWIDTH 6 0
BBX 5 7 0 0
BITMAP
F8
00
F8
A8
20
20
70
ENDCHAR
STARTCHAR uni20B9
ENCODING 8377
SWIDTH 375 0
DWIDTH 6 0
BBX 5 7 0 0
BITMAP
F8
10
F8
20
40
20
10
ENDCHAR
STARTCHAR uni20BA
ENCODING 8378
SWIDTH 438 0
DWIDTH 7 0
BBX 6 7 0 0
BITMAP
60
28
30
68
B4
64
B8
ENDCHAR
STARTCHAR uni20BC
ENCODING 8380
SWIDTH 500 0
DWIDTH 8 0
BBX 7 7 0 0
BITMAP
10
38
54
54
54
54
D6
ENDCHAR
STARTCHAR uni20BD
ENCODING 8381
SWIDTH 438 0
DWIDTH 7 0
BBX 6 7 0 0
BITMAP
F8
44
F8
40
F0
40
E0
ENDCHAR
STARTCHAR uni20BF
ENCODING 8383
SWIDTH 438 0
DWIDTH 7 0
BBX 6 9 0 -1
BITMAP
50
F0
48
48
78
44
44
F8
50
ENDCHAR
STARTCHAR uni20C0
ENCODING 8384
SWIDTH 375 0
DWIDTH 6 0
BBX 5 7 0 0
BITMAP
70
88
80
80
70
00
F8
ENDCHAR
STARTCHAR uni20C1
ENCODING 8385
SWIDTH 500 0
DWIDTH 8 0
BBX 7 8 0 -1
BITMAP
20
28
28
3E
E8
2E
C0
0E
ENDCHAR
STARTCHAR uni2113
ENCODING 8467
SWIDTH 312 0
DWIDTH 5 0
BBX 4 7 0 0
BITMAP
20
50
50
60
C0
50
20
ENDCHAR
STARTCHAR uni2116
ENCODING 8470
SWIDTH 625 0
DWIDTH 10 0
BBX 9 7 0 0
BITMAP
DC00
6800
6900
5A80
5900
4800
EB80
ENDCHAR
STARTCHAR uni2117
ENCODING 8471
SWIDTH 500 0
DWIDTH 8 0
BBX 7 7 0 0
BITMAP
38
44
BA
BA
A2
44
38
ENDCHAR
STARTCHAR trademark
ENCODING 8482
SWIDTH 625 0
DWIDTH 10 0
BBX 9 4 0 3
BITMAP
ED80
4D80
4A80
4A80
ENDCHAR
STARTCHAR estimated
ENCODING 8494
SWIDTH 438 0
DWIDTH 7 0
BBX 6 6 0 0
BITMAP
78
CC
FC
C0
C4
78
ENDCHAR
STARTCHAR emptyset
ENCODING 8709
SWIDTH 500 0
DWIDTH 8 0
BBX 7 7 0 0
BITMAP
3A
44
8A
92
A2
44
B8
ENDCHAR
STARTCHAR minus
ENCODING 8722
SWIDTH 312 0
DWIDTH 5 0
BBX 4 1 0 3
BITMAP
F0
ENDCHAR
STARTCHAR uni2215
ENCODING 8725
SWIDTH 250 0
DWIDTH 4 0
BBX 3 7 0 0
BITMAP
20
20
40
40
40
80
80
ENDCHAR
STARTCHAR notequal
ENCODING 8800
SWIDTH 375 0
DWIDTH 6 0
BBX 5 5 0 1
BITMAP
10
F8
20
F8
40
ENDCHAR
STARTCHAR equivalence
ENCODING 8801
SWIDTH 312 0
DWIDTH 5 0
BBX 4 5 0 1
BITMAP
F0
00
F0
00
F0
ENDCHAR
STARTCHAR uni22B9
ENCODING 8889
SWIDTH 500 0
DWIDTH 8 0
BBX 7 7 0 0
BITMAP
10
10
00
C6
00
10
10
ENDCHAR
STARTCHAR uni2318
ENCODING 8984
SWIDTH 500 0
DWIDTH 8 0
BBX 7 7 0 0
BITMAP
6C
AA
FE
28
FE
AA
6C
ENDCHAR
STARTCHAR triagup
ENCODING 9650
SWIDTH 375 0
DWIDTH 6 0
BBX 5 6 0 1
BITMAP
20
20
70
70
F8
F8
ENDCHAR
STARTCHAR uni25B3
ENCODING 9651
SWIDTH 375 0
DWIDTH 6 0
BBX 5 6 0 1
BITMAP
20
20
50
50
88
F8
ENDCHAR
STARTCHAR uni25B6
ENCODING 9654
SWIDTH 438 0
DWIDTH 7 0
BBX 6 5 0 1
BITMAP
C0
F0
FC
F0
C0
ENDCHAR
STARTCHAR uni25B7
ENCODING 9655
SWIDTH 438 0
DWIDTH 7 0
BBX 6 5 0 1
BITMAP
C0
B0
8C
B0
C0
ENDCHAR
STARTCHAR triagdn
ENCODING 9660
SWIDTH 375 0
DWIDTH 6 0
BBX 5 6 0 1
BITMAP
F8
F8
70
70
20
20
ENDCHAR
STARTCHAR uni25BD
ENCODING 9661
SWIDTH 375 0
DWIDTH 6 0
BBX 5 6 0 1
BITMAP
F8
88
50
50
20
20
ENDCHAR
STARTCHAR uni25C0
ENCODING 9664
SWIDTH 438 0
DWIDTH 7 0
BBX 6 5 0 1
BITMAP
0C
3C
FC
3C
0C
ENDCHAR
STARTCHAR uni25C1
ENCODING 9665
SWIDTH 438 0
DWIDTH 7 0
BBX 6 5 0 1
BITMAP
0C
34
C4
34
0C
ENDCHAR
STARTCHAR uni2610
ENCODING 9744
SWIDTH 500 0
DWIDTH 8 0
BBX 7 7 0 0
BITMAP
FE
82
82
82
82
82
FE
ENDCHAR
STARTCHAR uni2611
ENCODING 9745
SWIDTH 500 0
DWIDTH 8 0
BBX 7 7 0 0
BITMAP
FE
82
8A
AA
92
82
FE
ENDCHAR
STARTCHAR uni2612
ENCODING 9746
SWIDTH 500 0
DWIDTH 8 0
BBX 7 7 0 0
BITMAP
FE
82
AA
92
AA
82
FE
ENDCHAR
STARTCHAR uni2615
ENCODING 9749
SWIDTH 500 0
DWIDTH 8 0
BBX 7 8 0 0
BITMAP
48
24
48
00
FE
FA
FC
70
ENDCHAR
STARTCHAR uni2616
ENCODING 9750
SWIDTH 500 0
DWIDTH 8 0
BBX 7 7 0 0
BITMAP
10
28
44
44
82
82
FE
ENDCHAR
STARTCHAR uni2617
ENCODING 9751
SWIDTH 500 0
DWIDTH 8 0
BBX 7 7 0 0
BITMAP
10
38
7C
7C
FE
FE
FE
ENDCHAR
STARTCHAR uni2621
ENCODING 9761
SWIDTH 500 0
DWIDTH 8 0
BBX 7 7 0 0
BITMAP
18
28
28
28
48
4A
EE
ENDCHAR
STARTCHAR uni262F
ENCODING 9775
SWIDTH 500 0
DWIDTH 8 0
BBX 7 7 0 0
BITMAP
38
6C
FA
E2
D2
44
38
ENDCHAR
STARTCHAR uni26C9
ENCODING 9929
SWIDTH 500 0
DWIDTH 8 0
BBX 7 7 0 0
BITMAP
FE
82
82
44
44
28
10
ENDCHAR
STARTCHAR uni26CA
ENCODING 9930
SWIDTH 500 0
DWIDTH 8 0
BBX 7 7 0 0
BITMAP
FE
FE
FE
7C
7C
38
10
ENDCHAR
STARTCHAR uni26D4
ENCODING 9940
SWIDTH 500 0
DWIDTH 8 0
BBX 7 7 0 0
BITMAP
38
7C
FE
82
FE
7C
38
ENDCHAR
STARTCHAR uni26F6
ENCODING 9974
SWIDTH 500 0
DWIDTH 8 0
BBX 7 7 0 0
BITMAP
C6
82
00
00
00
82
C6
ENDCHAR
STARTCHAR uni2E2E
ENCODING 11822
SWIDTH 375 0
DWIDTH 6 0
BBX 5 7 0 0
BITMAP
70
88
88
40
20
00
20
ENDCHAR
STARTCHAR uni2E38
ENCODING 11832
SWIDTH 375 0
DWIDTH 6 0
BBX 5 8 0 -1
BITMAP
20
20
20
20
20
F8
20
20
ENDCHAR
STARTCHAR uni2E4B
ENCODING 11851
SWIDTH 375 0
DWIDTH 6 0
BBX 5 8 0 -1
BITMAP
20
F8
20
F8
20
F8
20
20
ENDCHAR
STARTCHAR uni3000
ENCODING 12288
SWIDTH 1000 0
DWIDTH 16 0
BBX 1 1 0 0
BITMAP
00
ENDCHAR
STARTCHAR uni3012
ENCODING 12306
SWIDTH 500 0
DWIDTH 8 0
BBX 7 7 0 0
BITMAP
FE
00
FE
92
10
10
38
ENDCHAR
STARTCHAR uni5143
ENCODING 20803
SWIDTH 500 0
DWIDTH 8 0
BBX 7 7 0 0
BITMAP
7C
00
FE
28
28
4A
8E
ENDCHAR
STARTCHAR uni5186
ENCODING 20870
SWIDTH 500 0
DWIDTH 8 0
BBX 7 7 0 0
BITMAP
FE
92
92
92
FE
82
86
ENDCHAR
STARTCHAR uni8336
ENCODING 33590
SWIDTH 500 0
DWIDTH 8 0
BBX 7 8 0 0
BITMAP
44
FE
54
6C
92
7C
10
54
ENDCHAR
STARTCHAR uni9A6C
ENCODING 39532
SWIDTH 500 0
DWIDTH 8 0
BBX 7 7 0 0
BITMAP
FC
04
48
7E
02
F2
06
ENDCHAR
STARTCHAR uni9F99
ENCODING 40857
SWIDTH 500 0
DWIDTH 8 0
BBX 7 8 0 0
BITMAP
04
12
10
FE
28
2C
58
8E
ENDCHAR
STARTCHAR uniA66E
ENCODING 42606
SWIDTH 500 0
DWIDTH 8 0
BBX 7 7 0 0
BITMAP
38
54
FE
AA
FE
54
38
ENDCHAR
STARTCHAR uniA78B
ENCODING 42891
SWIDTH 125 0
DWIDTH 2 0
BBX 1 4 0 3
BITMAP
80
80
80
80
ENDCHAR
STARTCHAR uniA78C
ENCODING 42892
SWIDTH 125 0
DWIDTH 2 0
BBX 1 3 0 4
BITMAP
80
80
80
ENDCHAR
STARTCHAR uniFFFD
ENCODING 65533
SWIDTH 750 0
DWIDTH 12 0
BBX 11 11 0 -2
BITMAP
0400
0E00
1F00
3380
7DC0
FBE0
7FC0
3B80
1F00
0E00
0400
ENDCHAR
STARTCHAR u1D54F
ENCODING 120143
SWIDTH 500 0
DWIDTH 8 0
BBX 7 7 0 0
BITMAP
EE
A4
58
28
34
4A
EE
ENDCHAR
STARTCHAR u1F375
ENCODING 127861
SWIDTH 438 0
DWIDTH 7 0
BBX 6 8 0 0
BITMAP
48
24
48
00
FC
FC
FC
78
ENDCHAR
STARTCHAR u1F47D
ENCODING 128125
SWIDTH 438 0
DWIDTH 7 0
BBX 6 7 0 0
BITMAP
78
FC
B4
B4
FC
78
30
ENDCHAR
STARTCHAR u1F4C4
ENCODING 128196
SWIDTH 438 0
DWIDTH 7 0
BBX 6 7 0 0
BITMAP
F0
A8
A4
BC
84
84
FC
ENDCHAR
STARTCHAR u1F4E4
ENCODING 128228
SWIDTH 500 0
DWIDTH 8 0
BBX 7 7 0 0
BITMAP
10
38
54
10
10
82
FE
ENDCHAR
STARTCHAR u1F4E5
ENCODING 128229
SWIDTH 500 0
DWIDTH 8 0
BBX 7 7 0 0
BITMAP
10
10
54
38
10
82
FE
ENDCHAR
STARTCHAR u1F6AC
ENCODING 128684
SWIDTH 438 0
DWIDTH 7 0
BBX 6 7 0 0
BITMAP
18
70
C0
80
00
BC
BC
ENDCHAR
STARTCHAR u1F916
ENCODING 129302
SWIDTH 625 0
DWIDTH 10 0
BBX 9 8 0 0
BITMAP
1400
0800
3E00
4100
D580
D580
4100
3E00
ENDCHAR
STARTCHAR u1F965
ENCODING 129381
SWIDTH 500 0
DWIDTH 8 0
BBX 7 7 0 0
BITMAP
38
7C
EA
FE
F6
7C
38
ENDCHAR
STARTCHAR .notdef
ENCODING -1
SWIDTH 375 0
DWIDTH 6 0
BBX 5 7 0 0
BITMAP
F8
88
88
88
88
88
F8
ENDCHAR
STARTCHAR uni0009
ENCODING -1
SWIDTH 312 0
DWIDTH 5 0
BBX 1 1 0 0
BITMAP
00
ENDCHAR
ENDFONT
