STARTFONT 2.1
FONT x12y16pxLineLinker-16px
SIZE 16 75 75
FONTBOUNDINGBOX 13 16 0 -3
STARTPROPERTIES 3
PIXEL_SIZE 16
FONT_ASCENT 16
FONT_DESCENT 3
ENDPROPERTIES
CHARS 326
STARTCHAR uni0020
ENCODING 32
SWIDTH 250 0
DWIDTH 4 0
BBX 1 1 0 0
BITMAP
00
ENDCHAR
STARTCHAR uni0021
ENCODING 33
SWIDTH 250 0
DWIDTH 4 0
BBX 5 13 0 0
BITMAP
F8
88
88
88
88
88
88
88
88
F8
88
88
F8
ENDCHAR
STARTCHAR uni0022
ENCODING 34
SWIDTH 250 0
DWIDTH 4 0
BBX 5 4 0 9
BITMAP
F8
A8
A8
F8
ENDCHAR
STARTCHAR uni0023
ENCODING 35
SWIDTH 750 0
DWIDTH 12 0
BBX 11 12 1 0
BITMAP
1FC0
1240
7260
4020
4020
64E0
E4C0
8040
8040
C9C0
4900
7F00
ENDCHAR
STARTCHAR uni0024
ENCODING 36
SWIDTH 750 0
DWIDTH 12 0
BBX 9 12 2 -1
BITMAP
1C00
3780
4080
8080
8F80
8100
4080
F880
8080
8100
F600
1C00
ENDCHAR
STARTCHAR uni0025
ENCODING 37
SWIDTH 750 0
DWIDTH 12 0
BBX 9 10 2 0
BITMAP
7180
8A80
AC80
8900
7200
2700
4880
9A80
A880
C700
ENDCHAR
STARTCHAR uni0026
ENCODING 38
SWIDTH 750 0
DWIDTH 12 0
BBX 13 13 0 0
BITMAP
1C00
2200
4100
4900
4900
2238
4148
8890
9420
9C20
8090
4148
3E38
ENDCHAR
STARTCHAR uni0027
ENCODING 39
SWIDTH 250 0
DWIDTH 4 0
BBX 3 4 0 9
BITMAP
E0
A0
A0
E0
ENDCHAR
STARTCHAR uni0028
ENCODING 40
SWIDTH 500 0
DWIDTH 8 0
BBX 6 13 2 0
BITMAP
1C
24
48
90
A0
A0
A0
A0
A0
90
48
24
1C
ENDCHAR
STARTCHAR uni0029
ENCODING 41
SWIDTH 500 0
DWIDTH 8 0
BBX 6 13 1 0
BITMAP
E0
90
48
24
14
14
14
14
14
24
48
90
E0
ENDCHAR
STARTCHAR uni002A
ENCODING 42
SWIDTH 750 0
DWIDTH 12 0
BBX 9 9 2 2
BITMAP
1C00
D580
B680
9480
4100
9480
B680
D580
1C00
ENDCHAR
STARTCHAR uni002B
ENCODING 43
SWIDTH 750 0
DWIDTH 12 0
BBX 9 9 2 2
BITMAP
1C00
1400
1400
F780
8080
F780
1400
1400
1C00
ENDCHAR
STARTCHAR uni002C
ENCODING 44
SWIDTH 500 0
DWIDTH 8 0
BBX 4 5 2 -2
BITMAP
70
50
50
A0
C0
ENDCHAR
STARTCHAR uni002D
ENCODING 45
SWIDTH 750 0
DWIDTH 12 0
BBX 9 3 2 5
BITMAP
FF80
8080
FF80
ENDCHAR
STARTCHAR uni002E
ENCODING 46
SWIDTH 500 0
DWIDTH 8 0
BBX 3 3 3 0
BITMAP
E0
A0
E0
ENDCHAR
STARTCHAR uni002F
ENCODING 47
SWIDTH 750 0
DWIDTH 12 0
BBX 9 12 2 0
BITMAP
0780
0480
0900
0900
1200
1200
2400
2400
4800
4800
9000
F000
ENDCHAR
STARTCHAR uni0030
ENCODING 48
SWIDTH 750 0
DWIDTH 12 0
BBX 13 13 0 0
BITMAP
3FE0
4010
8008
8F08
8A08
8C08
8888
8188
8288
8788
8008
4010
3FE0
ENDCHAR
STARTCHAR uni0031
ENCODING 49
SWIDTH 750 0
DWIDTH 12 0
BBX 13 13 0 0
BITMAP
0780
0880
F080
8080
8080
F880
0880
0880
0880
F8F8
8008
8008
FFF8
ENDCHAR
STARTCHAR uni0032
ENCODING 50
SWIDTH 750 0
DWIDTH 12 0
BBX 13 13 0 0
BITMAP
3FE0
4010
8008
8F88
8908
F210
0420
0840
1080
21F8
4008
8008
FFF8
ENDCHAR
STARTCHAR uni0033
ENCODING 51
SWIDTH 750 0
DWIDTH 12 0
BBX 13 13 0 0
BITMAP
3FE0
4010
8008
8F88
F888
0110
0220
0110
F888
8F88
8008
4010
3FE0
ENDCHAR
STARTCHAR uni0034
ENCODING 52
SWIDTH 750 0
DWIDTH 12 0
BBX 13 13 0 0
BITMAP
F8F8
8888
8888
8888
8888
8888
8F88
8008
4008
3F88
0088
0088
00F8
ENDCHAR
STARTCHAR uni0035
ENCODING 53
SWIDTH 750 0
DWIDTH 12 0
BBX 13 13 0 0
BITMAP
FFF8
8008
8008
8FF8
8010
8008
FF88
0088
F888
8F88
8008
4010
3FE0
ENDCHAR
STARTCHAR uni0036
ENCODING 54
SWIDTH 750 0
DWIDTH 12 0
BBX 13 13 0 0
BITMAP
3FF8
4008
8008
8FF8
8010
8008
8F88
8888
8888
8F88
8008
4010
3FE0
ENDCHAR
STARTCHAR uni0037
ENCODING 55
SWIDTH 750 0
DWIDTH 12 0
BBX 13 13 0 0
BITMAP
FFF8
8008
8008
FF88
0108
0210
0420
0840
1080
2100
4200
8400
F800
ENDCHAR
STARTCHAR uni0038
ENCODING 56
SWIDTH 750 0
DWIDTH 12 0
BBX 13 13 0 0
BITMAP
3FE0
4010
8008
8F88
8008
4010
8F88
8888
8888
8F88
8008
4010
3FE0
ENDCHAR
STARTCHAR uni0039
ENCODING 57
SWIDTH 750 0
DWIDTH 12 0
BBX 13 13 0 0
BITMAP
3FE0
4010
8008
8F88
8008
4008
3F88
0088
F888
8F88
8008
4010
3FE0
ENDCHAR
STARTCHAR uni003A
ENCODING 58
SWIDTH 500 0
DWIDTH 8 0
BBX 3 10 3 0
BITMAP
E0
A0
E0
00
00
00
00
E0
A0
E0
ENDCHAR
STARTCHAR uni003B
ENCODING 59
SWIDTH 500 0
DWIDTH 8 0
BBX 4 12 2 -2
BITMAP
70
50
70
00
00
00
00
70
50
50
A0
C0
ENDCHAR
STARTCHAR uni003C
ENCODING 60
SWIDTH 500 0
DWIDTH 8 0
BBX 7 9 0 2
BITMAP
0E
12
24
48
90
48
24
12
0E
ENDCHAR
STARTCHAR uni003D
ENCODING 61
SWIDTH 750 0
DWIDTH 12 0
BBX 9 7 2 3
BITMAP
FF80
8080
FF80
0000
FF80
8080
FF80
ENDCHAR
STARTCHAR uni003E
ENCODING 62
SWIDTH 500 0
DWIDTH 8 0
BBX 7 9 2 2
BITMAP
E0
90
48
24
12
24
48
90
E0
ENDCHAR
STARTCHAR uni003F
ENCODING 63
SWIDTH 750 0
DWIDTH 12 0
BBX 13 13 0 0
BITMAP
FFE0
8010
8008
FF88
0408
0810
08E0
0880
0880
0F80
0880
0880
0F80
ENDCHAR
STARTCHAR uni0040
ENCODING 64
SWIDTH 750 0
DWIDTH 12 0
BBX 13 13 0 0
BITMAP
3FE0
4010
8008
8F88
8808
8808
8888
8808
8810
8FF8
8008
4008
3FF8
ENDCHAR
STARTCHAR uni0041
ENCODING 65
SWIDTH 750 0
DWIDTH 12 0
BBX 13 13 0 0
BITMAP
3FE0
4010
8008
8F88
8888
8F88
8008
8008
8F88
8888
8888
8888
F8F8
ENDCHAR
STARTCHAR uni0042
ENCODING 66
SWIDTH 750 0
DWIDTH 12 0
BBX 13 13 0 0
BITMAP
FFE0
8010
8008
8F88
8008
8010
8F88
8888
8888
8F88
8008
8010
FFE0
ENDCHAR
STARTCHAR uni0043
ENCODING 67
SWIDTH 750 0
DWIDTH 12 0
BBX 13 13 0 0
BITMAP
3FE0
4010
8008
8F88
8888
88F8
8800
88F8
8888
8F88
8008
4010
3FE0
ENDCHAR
STARTCHAR uni0044
ENCODING 68
SWIDTH 750 0
DWIDTH 12 0
BBX 13 13 0 0
BITMAP
FFE0
8010
8008
8F88
8888
8888
8888
8888
8888
8F88
8008
8010
FFE0
ENDCHAR
STARTCHAR uni0045
ENCODING 69
SWIDTH 750 0
DWIDTH 12 0
BBX 13 13 0 0
BITMAP
FFF8
8008
8008
8FF8
8008
8008
8FF8
8800
8800
8FF8
8008
8008
FFF8
ENDCHAR
STARTCHAR uni0046
ENCODING 70
SWIDTH 750 0
DWIDTH 12 0
BBX 13 13 0 0
BITMAP
FFF8
8008
8008
8FF8
8008
8008
8FF8
8800
8800
8800
8800
8800
F800
ENDCHAR
STARTCHAR uni0047
ENCODING 71
SWIDTH 750 0
DWIDTH 12 0
BBX 13 13 0 0
BITMAP
3FF8
4008
8008
8FF8
8800
8800
8FF8
8808
8808
8F88
8008
4008
3FF8
ENDCHAR
STARTCHAR uni0048
ENCODING 72
SWIDTH 750 0
DWIDTH 12 0
BBX 13 13 0 0
BITMAP
F8F8
8888
8888
8888
8F88
8008
8008
8F88
8888
8888
8888
8888
F8F8
ENDCHAR
STARTCHAR uni0049
ENCODING 73
SWIDTH 750 0
DWIDTH 12 0
BBX 13 13 0 0
BITMAP
FFF8
8008
8008
F8F8
0880
0880
0880
0880
0880
F8F8
8008
8008
FFF8
ENDCHAR
STARTCHAR uni004A
ENCODING 74
SWIDTH 750 0
DWIDTH 12 0
BBX 13 13 0 0
BITMAP
00F8
0088
0088
0088
0088
0088
F888
8888
8888
8F88
8008
4010
3FE0
ENDCHAR
STARTCHAR uni004B
ENCODING 75
SWIDTH 750 0
DWIDTH 12 0
BBX 13 13 0 0
BITMAP
F8F8
8908
8A10
8C20
8840
8080
8100
8080
8840
8C20
8A10
8908
F8F8
ENDCHAR
STARTCHAR uni004C
ENCODING 76
SWIDTH 750 0
DWIDTH 12 0
BBX 13 13 0 0
BITMAP
F800
8800
8800
8800
8800
8800
8800
8800
8800
8FF8
8008
8008
FFF8
ENDCHAR
STARTCHAR uni004D
ENCODING 77
SWIDTH 750 0
DWIDTH 12 0
BBX 13 13 0 0
BITMAP
F078
8888
8508
8208
8008
8888
8D88
8A88
8888
8888
8888
8888
F8F8
ENDCHAR
STARTCHAR uni004E
ENCODING 78
SWIDTH 750 0
DWIDTH 12 0
BBX 13 13 0 0
BITMAP
FCF8
8488
8288
8288
8188
8988
8888
8C88
8C08
8A08
8A08
8908
F9F8
ENDCHAR
STARTCHAR uni004F
ENCODING 79
SWIDTH 750 0
DWIDTH 12 0
BBX 13 13 0 0
BITMAP
3FE0
4010
8008
8F88
8888
8888
8888
8888
8888
8F88
8008
4010
3FE0
ENDCHAR
STARTCHAR uni0050
ENCODING 80
SWIDTH 750 0
DWIDTH 12 0
BBX 13 13 0 0
BITMAP
FFE0
8010
8008
8F88
8888
8F88
8008
8010
8FE0
8800
8800
8800
F800
ENDCHAR
STARTCHAR uni0051
ENCODING 81
SWIDTH 750 0
DWIDTH 12 0
BBX 13 16 0 -3
BITMAP
3FE0
4010
8008
8F88
8888
8888
8888
8888
8888
8F88
8008
4010
38F8
0808
0408
03F8
ENDCHAR
STARTCHAR uni0052
ENCODING 82
SWIDTH 750 0
DWIDTH 12 0
BBX 13 13 0 0
BITMAP
FFE0
8010
8008
8F88
8888
8F88
8008
8010
8860
8C20
8A10
8908
F8F8
ENDCHAR
STARTCHAR uni0053
ENCODING 83
SWIDTH 750 0
DWIDTH 12 0
BBX 13 13 0 0
BITMAP
3FF8
4008
8008
8FF8
8300
40C0
2020
1810
0608
FF88
8008
8010
FFE0
ENDCHAR
STARTCHAR uni0054
ENCODING 84
SWIDTH 750 0
DWIDTH 12 0
BBX 13 13 0 0
BITMAP
FFF8
8008
8008
F8F8
0880
0880
0880
0880
0880
0880
0880
0880
0F80
ENDCHAR
STARTCHAR uni0055
ENCODING 85
SWIDTH 750 0
DWIDTH 12 0
BBX 13 13 0 0
BITMAP
F8F8
8888
8888
8888
8888
8888
8888
8888
8888
8F88
8008
4010
3FE0
ENDCHAR
STARTCHAR uni0056
ENCODING 86
SWIDTH 750 0
DWIDTH 12 0
BBX 13 13 0 0
BITMAP
F8F8
8888
8888
8888
8888
8888
8888
8508
4210
2020
1040
0880
0700
ENDCHAR
STARTCHAR uni0057
ENCODING 87
SWIDTH 750 0
DWIDTH 12 0
BBX 13 13 0 0
BITMAP
F8F8
8888
8888
8888
8888
8A88
8D88
8888
8008
8208
8508
4890
3060
ENDCHAR
STARTCHAR uni0058
ENCODING 88
SWIDTH 750 0
DWIDTH 12 0
BBX 13 13 0 0
BITMAP
F8F8
8888
8888
8508
4210
2020
1040
2020
4210
8508
8888
8888
F8F8
ENDCHAR
STARTCHAR uni0059
ENCODING 89
SWIDTH 750 0
DWIDTH 12 0
BBX 13 13 0 0
BITMAP
F8F8
8888
8888
8508
4210
2020
1040
0880
0880
0880
0880
0880
0F80
ENDCHAR
STARTCHAR uni005A
ENCODING 90
SWIDTH 750 0
DWIDTH 12 0
BBX 13 13 0 0
BITMAP
FFF8
8008
8008
FE10
0420
0840
1080
2100
4200
87F8
8008
8008
FFF8
ENDCHAR
STARTCHAR uni005B
ENCODING 91
SWIDTH 500 0
DWIDTH 8 0
BBX 5 13 2 0
BITMAP
F8
88
B8
A0
A0
A0
A0
A0
A0
A0
B8
88
F8
ENDCHAR
STARTCHAR uni005C
ENCODING 92
SWIDTH 750 0
DWIDTH 12 0
BBX 9 12 2 0
BITMAP
F000
9000
4800
4800
2400
2400
1200
1200
0900
0900
0480
0780
ENDCHAR
STARTCHAR uni005D
ENCODING 93
SWIDTH 500 0
DWIDTH 8 0
BBX 5 13 2 0
BITMAP
F8
88
E8
28
28
28
28
28
28
28
E8
88
F8
ENDCHAR
STARTCHAR uni005E
ENCODING 94
SWIDTH 750 0
DWIDTH 12 0
BBX 9 6 2 7
BITMAP
0800
1400
2200
4900
9480
E380
ENDCHAR
STARTCHAR uni005F
ENCODING 95
SWIDTH 750 0
DWIDTH 12 0
BBX 13 3 0 0
BITMAP
FFF8
8008
FFF8
ENDCHAR
STARTCHAR uni0060
ENCODING 96
SWIDTH 750 0
DWIDTH 12 0
BBX 6 4 3 9
BITMAP
F0
88
44
3C
ENDCHAR
STARTCHAR uni0061
ENCODING 97
SWIDTH 750 0
DWIDTH 12 0
BBX 13 10 0 0
BITMAP
FFE0
8010
8008
FF88
4008
8008
8F88
8008
4008
3FF8
ENDCHAR
STARTCHAR uni0062
ENCODING 98
SWIDTH 750 0
DWIDTH 12 0
BBX 13 13 0 0
BITMAP
F800
8800
8800
8FE0
8010
8008
8F88
8888
8888
8F88
8008
8010
FFE0
ENDCHAR
STARTCHAR uni0063
ENCODING 99
SWIDTH 750 0
DWIDTH 12 0
BBX 13 10 0 0
BITMAP
3FF8
4008
8008
8FF8
8800
8800
8FF8
8008
4008
3FF8
ENDCHAR
STARTCHAR uni0064
ENCODING 100
SWIDTH 750 0
DWIDTH 12 0
BBX 13 13 0 0
BITMAP
00F8
0088
0088
3F88
4008
8008
8F88
8888
8888
8F88
8008
4008
3FF8
ENDCHAR
STARTCHAR uni0065
ENCODING 101
SWIDTH 750 0
DWIDTH 12 0
BBX 13 10 0 0
BITMAP
3FE0
4010
8008
8F88
8008
8008
8FF8
8008
4008
3FF8
ENDCHAR
STARTCHAR uni0066
ENCODING 102
SWIDTH 500 0
DWIDTH 8 0
BBX 9 13 0 0
BITMAP
3F80
4080
8080
8F80
8080
8080
8F80
8800
8800
8800
8800
8800
F800
ENDCHAR
STARTCHAR uni0067
ENCODING 103
SWIDTH 750 0
DWIDTH 12 0
BBX 13 13 0 -3
BITMAP
3FF8
4008
8008
8F88
8888
8888
8F88
8008
4008
FF88
8008
8010
FFE0
ENDCHAR
STARTCHAR uni0068
ENCODING 104
SWIDTH 750 0
DWIDTH 12 0
BBX 13 13 0 0
BITMAP
F800
8800
8800
8FE0
8010
8008
8F88
8888
8888
8888
8888
8888
F8F8
ENDCHAR
STARTCHAR uni0069
ENCODING 105
SWIDTH 250 0
DWIDTH 4 0
BBX 5 13 0 0
BITMAP
F8
88
88
F8
88
88
88
88
88
88
88
88
F8
ENDCHAR
STARTCHAR uni006A
ENCODING 106
SWIDTH 500 0
DWIDTH 8 0
BBX 9 16 0 -3
BITMAP
0F80
0880
0880
FF80
8080
8080
F880
0880
0880
0880
0880
0880
F880
8080
8100
FE00
ENDCHAR
STARTCHAR uni006B
ENCODING 107
SWIDTH 750 0
DWIDTH 12 0
BBX 13 13 0 0
BITMAP
F800
8800
8800
88F8
8908
8A10
8C20
8040
8040
8C20
8A10
8908
F8F8
ENDCHAR
STARTCHAR uni006C
ENCODING 108
SWIDTH 250 0
DWIDTH 4 0
BBX 5 13 0 0
BITMAP
F8
88
88
88
88
88
88
88
88
88
88
88
F8
ENDCHAR
STARTCHAR uni006D
ENCODING 109
SWIDTH 750 0
DWIDTH 12 0
BBX 13 10 0 0
BITMAP
FFE0
8010
8008
8888
8888
8888
8888
8888
8888
FFF8
ENDCHAR
STARTCHAR uni006E
ENCODING 110
SWIDTH 750 0
DWIDTH 12 0
BBX 13 10 0 0
BITMAP
FFE0
8010
8008
8F88
8888
8888
8888
8888
8888
F8F8
ENDCHAR
STARTCHAR uni006F
ENCODING 111
SWIDTH 750 0
DWIDTH 12 0
BBX 13 10 0 0
BITMAP
3FE0
4010
8008
8F88
8888
8888
8F88
8008
4010
3FE0
ENDCHAR
STARTCHAR uni0070
ENCODING 112
SWIDTH 750 0
DWIDTH 12 0
BBX 13 13 0 -3
BITMAP
FFE0
8010
8008
8F88
8888
8888
8F88
8008
8010
8FE0
8800
8800
F800
ENDCHAR
STARTCHAR uni0071
ENCODING 113
SWIDTH 750 0
DWIDTH 12 0
BBX 13 13 0 -3
BITMAP
3FF8
4008
8008
8F88
8888
8888
8F88
8008
4008
3F88
0088
0088
00F8
ENDCHAR
STARTCHAR uni0072
ENCODING 114
SWIDTH 500 0
DWIDTH 8 0
BBX 9 10 0 0
BITMAP
3F80
4080
8080
8F80
8800
8800
8800
8800
8800
F800
ENDCHAR
STARTCHAR uni0073
ENCODING 115
SWIDTH 750 0
DWIDTH 12 0
BBX 13 10 0 0
BITMAP
3FF8
4008
8008
8FF8
8010
4008
FF88
8008
8010
FFE0
ENDCHAR
STARTCHAR uni0074
ENCODING 116
SWIDTH 500 0
DWIDTH 8 0
BBX 9 13 0 0
BITMAP
F800
8800
8800
8F80
8080
8080
8F80
8800
8800
8F80
8080
4080
3F80
ENDCHAR
STARTCHAR uni0075
ENCODING 117
SWIDTH 750 0
DWIDTH 12 0
BBX 13 10 0 0
BITMAP
F8F8
8888
8888
8888
8888
8888
8F88
8008
4008
3FF8
ENDCHAR
STARTCHAR uni0076
ENCODING 118
SWIDTH 750 0
DWIDTH 12 0
BBX 13 10 0 0
BITMAP
F8F8
8888
8888
8888
8888
8508
4210
2020
1040
0F80
ENDCHAR
STARTCHAR uni0077
ENCODING 119
SWIDTH 750 0
DWIDTH 12 0
BBX 13 10 0 0
BITMAP
F8F8
8888
8888
8A88
8D88
8888
8008
8208
4510
38E0
ENDCHAR
STARTCHAR uni0078
ENCODING 120
SWIDTH 750 0
DWIDTH 12 0
BBX 13 10 0 0
BITMAP
F8F8
8508
4210
2020
1040
1040
2020
4210
8508
F8F8
ENDCHAR
STARTCHAR uni0079
ENCODING 121
SWIDTH 750 0
DWIDTH 12 0
BBX 13 13 0 -3
BITMAP
F8F8
8888
8888
8888
8888
8888
8F88
8008
4008
FF88
8008
8010
FFE0
ENDCHAR
STARTCHAR uni007A
ENCODING 122
SWIDTH 750 0
DWIDTH 12 0
BBX 13 10 0 0
BITMAP
FFF8
8008
8010
FC20
0840
1080
21F8
4008
8008
FFF8
ENDCHAR
STARTCHAR uni007B
ENCODING 123
SWIDTH 500 0
DWIDTH 8 0
BBX 7 13 0 0
BITMAP
1E
22
2E
28
28
48
90
48
28
28
2E
22
1E
ENDCHAR
STARTCHAR uni007C
ENCODING 124
SWIDTH 500 0
DWIDTH 8 0
BBX 3 13 3 0
BITMAP
E0
A0
A0
A0
A0
A0
A0
A0
A0
A0
A0
A0
E0
ENDCHAR
STARTCHAR uni007D
ENCODING 125
SWIDTH 500 0
DWIDTH 8 0
BBX 7 13 2 0
BITMAP
F0
88
E8
28
28
24
12
24
28
28
E8
88
F0
ENDCHAR
STARTCHAR uni007E
ENCODING 126
SWIDTH 750 0
DWIDTH 12 0
BBX 9 5 2 8
BITMAP
3000
4980
B680
C900
0600
ENDCHAR
STARTCHAR uni00A0
ENCODING 160
SWIDTH 250 0
DWIDTH 4 0
BBX 1 1 0 0
BITMAP
00
ENDCHAR
STARTCHAR uni00A1
ENCODING 161
SWIDTH 250 0
DWIDTH 4 0
BBX 5 13 0 -3
BITMAP
F8
88
88
F8
88
88
88
88
88
88
88
88
F8
ENDCHAR
STARTCHAR uni00A2
ENCODING 162
SWIDTH 750 0
DWIDTH 12 0
BBX 9 11 2 -1
BITMAP
1C00
3600
4100
8080
9480
9780
9480
8080
4100
3600
1C00
ENDCHAR
STARTCHAR uni00A3
ENCODING 163
SWIDTH 750 0
DWIDTH 12 0
BBX 9 10 2 0
BITMAP
1E00
2100
4080
4C80
8380
8200
CF80
8080
8080
FF80
ENDCHAR
STARTCHAR uni00A4
ENCODING 164
SWIDTH 750 0
DWIDTH 12 0
BBX 9 9 2 2
BITMAP
6300
9C80
8080
5D00
5500
5D00
8080
9C80
6300
ENDCHAR
STARTCHAR uni00A5
ENCODING 165
SWIDTH 750 0
DWIDTH 12 0
BBX 9 11 2 0
BITMAP
C180
A280
9480
4900
E380
8080
F780
8080
F780
1400
1C00
ENDCHAR
STARTCHAR uni00A6
ENCODING 166
SWIDTH 750 0
DWIDTH 12 0
BBX 3 15 5 -2
BITMAP
E0
A0
A0
A0
A0
A0
E0
00
E0
A0
A0
A0
A0
A0
E0
ENDCHAR
STARTCHAR uni00A7
ENCODING 167
SWIDTH 750 0
DWIDTH 12 0
BBX 13 16 0 -3
BITMAP
1FF8
2008
4008
47F8
4020
2010
1F10
2210
4220
47E0
4020
2010
FF10
8010
8020
FFC0
ENDCHAR
STARTCHAR uni00A8
ENCODING 168
SWIDTH 750 0
DWIDTH 12 0
BBX 7 4 3 9
BITMAP
FE
92
92
FE
ENDCHAR
STARTCHAR uni00A9
ENCODING 169
SWIDTH 750 0
DWIDTH 12 0
BBX 9 9 2 2
BITMAP
3E00
4100
9C80
A280
A080
A280
9C80
4100
3E00
ENDCHAR
STARTCHAR uni00AA
ENCODING 170
SWIDTH 500 0
DWIDTH 8 0
BBX 9 10 0 3
BITMAP
FE00
8100
FC80
4080
9C80
9C80
4080
FF80
8080
FF80
ENDCHAR
STARTCHAR uni00AB
ENCODING 171
SWIDTH 750 0
DWIDTH 12 0
BBX 12 9 0 2
BITMAP
0E70
1290
2520
4A40
9480
4A40
2520
1290
0E70
ENDCHAR
STARTCHAR uni00AC
ENCODING 172
SWIDTH 750 0
DWIDTH 12 0
BBX 9 5 2 3
BITMAP
FF80
8080
FE80
0280
0380
ENDCHAR
STARTCHAR uni00AD
ENCODING 173
SWIDTH 750 0
DWIDTH 12 0
BBX 9 3 2 4
BITMAP
FF80
8080
FF80
ENDCHAR
STARTCHAR uni00AE
ENCODING 174
SWIDTH 750 0
DWIDTH 12 0
BBX 9 9 2 2
BITMAP
3E00
4100
BC80
A280
BC80
A480
A280
4100
3E00
ENDCHAR
STARTCHAR uni00AF
ENCODING 175
SWIDTH 750 0
DWIDTH 12 0
BBX 9 3 2 10
BITMAP
FF80
8080
FF80
ENDCHAR
STARTCHAR uni00B0
ENCODING 176
SWIDTH 500 0
DWIDTH 8 0
BBX 7 7 1 6
BITMAP
38
44
BA
AA
BA
44
38
ENDCHAR
STARTCHAR uni00B1
ENCODING 177
SWIDTH 750 0
DWIDTH 12 0
BBX 9 11 2 0
BITMAP
1C00
1400
1400
F780
8080
F780
1400
1400
FF80
8080
FF80
ENDCHAR
STARTCHAR uni00B2
ENCODING 178
SWIDTH 500 0
DWIDTH 8 0
BBX 8 9 0 4
BITMAP
3C
42
99
99
F2
24
4F
81
FF
ENDCHAR
STARTCHAR uni00B3
ENCODING 179
SWIDTH 500 0
DWIDTH 8 0
BBX 8 9 0 4
BITMAP
3C
42
99
F9
22
F9
99
42
3C
ENDCHAR
STARTCHAR uni00B4
ENCODING 180
SWIDTH 750 0
DWIDTH 12 0
BBX 6 4 4 9
BITMAP
3C
44
88
F0
ENDCHAR
STARTCHAR uni00B5
ENCODING 181
SWIDTH 750 0
DWIDTH 12 0
BBX 10 13 2 -3
BITMAP
F3C0
9240
9240
9240
9240
8C40
8040
9240
9E40
93C0
9000
9000
F000
ENDCHAR
STARTCHAR uni00B6
ENCODING 182
SWIDTH 750 0
DWIDTH 12 0
BBX 11 16 0 -3
BITMAP
3FE0
4020
8020
8120
8120
4120
3920
0920
0920
0920
0920
0920
0920
0920
0920
0FE0
ENDCHAR
STARTCHAR uni00B7
ENCODING 183
SWIDTH 500 0
DWIDTH 8 0
BBX 5 5 2 4
BITMAP
70
88
88
88
70
ENDCHAR
STARTCHAR uni00B8
ENCODING 184
SWIDTH 750 0
DWIDTH 12 0
BBX 7 5 3 -3
BITMAP
78
44
E2
82
FC
ENDCHAR
STARTCHAR uni00B9
ENCODING 185
SWIDTH 500 0
DWIDTH 8 0
BBX 8 9 0 4
BITMAP
1C
E4
84
E4
24
24
E7
81
FF
ENDCHAR
STARTCHAR uni00BA
ENCODING 186
SWIDTH 500 0
DWIDTH 8 0
BBX 9 10 0 3
BITMAP
3E00
4100
9C80
9480
9480
9C80
4100
FF80
8080
FF80
ENDCHAR
STARTCHAR uni00BB
ENCODING 187
SWIDTH 750 0
DWIDTH 12 0
BBX 12 9 1 2
BITMAP
E700
9480
4A40
2520
1290
2520
4A40
9480
E700
ENDCHAR
STARTCHAR uni00BC
ENCODING 188
SWIDTH 750 0
DWIDTH 12 0
BBX 13 13 0 0
BITMAP
3818
4828
6850
28A0
2940
46B0
7D50
0A90
1550
2AD8
5208
A3D8
C070
ENDCHAR
STARTCHAR uni00BD
ENCODING 189
SWIDTH 750 0
DWIDTH 12 0
BBX 13 13 0 0
BITMAP
3818
4828
6850
28A0
2940
46F0
7D08
0B68
15D0
28A0
5178
A108
C1F8
ENDCHAR
STARTCHAR uni00BE
ENCODING 190
SWIDTH 750 0
DWIDTH 12 0
BBX 13 13 0 0
BITMAP
F818
8428
F450
44A0
F540
86B0
FD50
0A90
1550
2AD8
5208
A3D8
C070
ENDCHAR
STARTCHAR uni00BF
ENCODING 191
SWIDTH 750 0
DWIDTH 12 0
BBX 13 13 0 -3
BITMAP
0F80
0880
0880
0F80
0880
0880
3880
4080
8100
8FF8
8008
4008
3FF8
ENDCHAR
STARTCHAR uni00D7
ENCODING 215
SWIDTH 750 0
DWIDTH 12 0
BBX 9 9 2 2
BITMAP
E380
9480
4900
2200
1400
2200
4900
9480
E380
ENDCHAR
STARTCHAR uni00F7
ENCODING 247
SWIDTH 750 0
DWIDTH 12 0
BBX 9 9 2 2
BITMAP
1C00
1400
1C00
FF80
8080
FF80
1C00
1400
1C00
ENDCHAR
STARTCHAR uni2000
ENCODING 8192
SWIDTH 250 0
DWIDTH 4 0
BBX 1 1 0 0
BITMAP
00
ENDCHAR
STARTCHAR uni2001
ENCODING 8193
SWIDTH 250 0
DWIDTH 4 0
BBX 1 1 0 0
BITMAP
00
ENDCHAR
STARTCHAR uni2002
ENCODING 8194
SWIDTH 250 0
DWIDTH 4 0
BBX 1 1 0 0
BITMAP
00
ENDCHAR
STARTCHAR uni2003
ENCODING 8195
SWIDTH 250 0
DWIDTH 4 0
BBX 1 1 0 0
BITMAP
00
ENDCHAR
STARTCHAR uni2004
ENCODING 8196
SWIDTH 250 0
DWIDTH 4 0
BBX 1 1 0 0
BITMAP
00
ENDCHAR
STARTCHAR uni2005
ENCODING 8197
SWIDTH 250 0
DWIDTH 4 0
BBX 1 1 0 0
BITMAP
00
ENDCHAR
STARTCHAR uni2006
ENCODING 8198
SWIDTH 250 0
DWIDTH 4 0
BBX 1 1 0 0
BITMAP
00
ENDCHAR
STARTCHAR uni2007
ENCODING 8199
SWIDTH 250 0
DWIDTH 4 0
BBX 1 1 0 0
BITMAP
00
ENDCHAR
STARTCHAR uni2008
ENCODING 8200
SWIDTH 250 0
DWIDTH 4 0
BBX 1 1 0 0
BITMAP
00
ENDCHAR
STARTCHAR uni2009
ENCODING 8201
SWIDTH 250 0
DWIDTH 4 0
BBX 1 1 0 0
BITMAP
00
ENDCHAR
STARTCHAR uni200A
ENCODING 8202
SWIDTH 250 0
DWIDTH 4 0
BBX 1 1 0 0
BITMAP
00
ENDCHAR
STARTCHAR uni2010
ENCODING 8208
SWIDTH 500 0
DWIDTH 8 0
BBX 9 3 0 4
BITMAP
FF80
8080
FF80
ENDCHAR
STARTCHAR uni2011
ENCODING 8209
SWIDTH 500 0
DWIDTH 8 0
BBX 9 3 0 4
BITMAP
FF80
8080
FF80
ENDCHAR
STARTCHAR uni2012
ENCODING 8210
SWIDTH 500 0
DWIDTH 8 0
BBX 9 3 0 4
BITMAP
FF80
8080
FF80
ENDCHAR
STARTCHAR uni2013
ENCODING 8211
SWIDTH 750 0
DWIDTH 12 0
BBX 13 3 0 4
BITMAP
FFF8
8008
FFF8
ENDCHAR
STARTCHAR uni2014
ENCODING 8212
SWIDTH 750 0
DWIDTH 12 0
BBX 13 3 0 4
BITMAP
FFF8
8008
FFF8
ENDCHAR
STARTCHAR uni2015
ENCODING 8213
SWIDTH 750 0
DWIDTH 12 0
BBX 13 3 0 5
BITMAP
FFF8
8008
FFF8
ENDCHAR
STARTCHAR uni2016
ENCODING 8214
SWIDTH 500 0
DWIDTH 8 0
BBX 5 13 2 0
BITMAP
F8
A8
A8
A8
A8
A8
A8
A8
A8
A8
A8
A8
F8
ENDCHAR
STARTCHAR uni2017
ENCODING 8215
SWIDTH 750 0
DWIDTH 12 0
BBX 13 5 0 -2
BITMAP
FFF8
8008
FFF8
8008
FFF8
ENDCHAR
STARTCHAR uni2018
ENCODING 8216
SWIDTH 250 0
DWIDTH 4 0
BBX 5 5 0 8
BITMAP
38
48
90
88
F8
ENDCHAR
STARTCHAR uni2019
ENCODING 8217
SWIDTH 250 0
DWIDTH 4 0
BBX 5 5 0 8
BITMAP
F8
88
48
90
E0
ENDCHAR
STARTCHAR uni201A
ENCODING 8218
SWIDTH 250 0
DWIDTH 4 0
BBX 5 5 0 -1
BITMAP
F8
88
48
90
E0
ENDCHAR
STARTCHAR uni201B
ENCODING 8219
SWIDTH 250 0
DWIDTH 4 0
BBX 5 5 0 8
BITMAP
F8
88
90
48
38
ENDCHAR
STARTCHAR uni201C
ENCODING 8220
SWIDTH 500 0
DWIDTH 8 0
BBX 9 5 0 8
BITMAP
3B80
4C80
9900
8880
FF80
ENDCHAR
STARTCHAR uni201D
ENCODING 8221
SWIDTH 500 0
DWIDTH 8 0
BBX 9 5 0 8
BITMAP
FF80
8880
4C80
9900
EE00
ENDCHAR
STARTCHAR uni201E
ENCODING 8222
SWIDTH 500 0
DWIDTH 8 0
BBX 9 5 0 -1
BITMAP
FF80
8880
4C80
9900
EE00
ENDCHAR
STARTCHAR uni201F
ENCODING 8223
SWIDTH 500 0
DWIDTH 8 0
BBX 9 5 0 8
BITMAP
FF80
8880
9900
4C80
3B80
ENDCHAR
STARTCHAR uni2020
ENCODING 8224
SWIDTH 750 0
DWIDTH 12 0
BBX 9 13 2 0
BITMAP
1C00
1400
1400
F780
8080
F780
1400
1400
1400
1400
1400
1400
1C00
ENDCHAR
STARTCHAR uni2021
ENCODING 8225
SWIDTH 750 0
DWIDTH 12 0
BBX 9 16 2 -3
BITMAP
1C00
1400
1400
F780
8080
F780
1400
1400
1400
1400
F780
8080
F780
1400
1400
1C00
ENDCHAR
STARTCHAR uni2022
ENCODING 8226
SWIDTH 500 0
DWIDTH 8 0
BBX 5 5 2 4
BITMAP
70
88
88
88
70
ENDCHAR
STARTCHAR uni2023
ENCODING 8227
SWIDTH 500 0
DWIDTH 8 0
BBX 5 7 2 3
BITMAP
C0
A0
90
88
90
A0
C0
ENDCHAR
STARTCHAR uni2024
ENCODING 8228
SWIDTH 500 0
DWIDTH 8 0
BBX 3 3 2 0
BITMAP
E0
A0
E0
ENDCHAR
STARTCHAR uni2025
ENCODING 8229
SWIDTH 750 0
DWIDTH 12 0
BBX 9 3 3 0
BITMAP
E380
A280
E380
ENDCHAR
STARTCHAR uni2026
ENCODING 8230
SWIDTH 750 0
DWIDTH 12 0
BBX 11 3 2 0
BITMAP
EEE0
AAA0
EEE0
ENDCHAR
STARTCHAR uni2030
ENCODING 8240
SWIDTH 750 0
DWIDTH 12 0
BBX 13 10 0 0
BITMAP
7180
8A80
AC80
8900
7200
2770
4888
9AA8
A888
C770
ENDCHAR
STARTCHAR uni2032
ENCODING 8242
SWIDTH 250 0
DWIDTH 4 0
BBX 5 4 0 9
BITMAP
38
48
90
E0
ENDCHAR
STARTCHAR uni2033
ENCODING 8243
SWIDTH 500 0
DWIDTH 8 0
BBX 9 4 0 9
BITMAP
3B80
4C80
9900
EE00
ENDCHAR
STARTCHAR uni2034
ENCODING 8244
SWIDTH 750 0
DWIDTH 12 0
BBX 13 4 0 9
BITMAP
3BB8
4CC8
9990
EEE0
ENDCHAR
STARTCHAR uni2039
ENCODING 8249
SWIDTH 500 0
DWIDTH 8 0
BBX 7 9 0 2
BITMAP
0E
12
24
48
90
48
24
12
0E
ENDCHAR
STARTCHAR uni203A
ENCODING 8250
SWIDTH 500 0
DWIDTH 8 0
BBX 7 9 2 2
BITMAP
E0
90
48
24
12
24
48
90
E0
ENDCHAR
STARTCHAR uni203B
ENCODING 8251
SWIDTH 750 0
DWIDTH 12 0
BBX 13 13 0 0
BITMAP
0700
0500
3260
28A0
1540
CA98
A528
CA98
1540
28A0
3260
0500
0700
ENDCHAR
STARTCHAR uni203C
ENCODING 8252
SWIDTH 500 0
DWIDTH 8 0
BBX 9 13 0 0
BITMAP
FF80
8880
8880
8880
8880
8880
8880
8880
8880
FF80
8880
8880
FF80
ENDCHAR
STARTCHAR uni2044
ENCODING 8260
SWIDTH 750 0
DWIDTH 12 0
BBX 13 13 0 0
BITMAP
0018
0028
0050
00A0
0140
0280
0500
0A00
1400
2800
5000
A000
C000
ENDCHAR
STARTCHAR uni2048
ENCODING 8264
SWIDTH 750 0
DWIDTH 12 0
BBX 13 13 0 0
BITMAP
FEF8
8188
8088
F888
4088
8188
8E88
8888
8888
F8F8
8888
8888
F8F8
ENDCHAR
STARTCHAR uni2049
ENCODING 8265
SWIDTH 750 0
DWIDTH 12 0
BBX 13 13 0 0
BITMAP
FFE0
8810
8808
8F88
8C08
8810
88E0
8880
8880
FF80
8880
8880
FF80
ENDCHAR
STARTCHAR uni20AC
ENCODING 8364
SWIDTH 750 0
DWIDTH 12 0
BBX 9 11 2 0
BITMAP
1E00
2100
4080
CC80
8380
CE00
8380
CC80
4080
2100
1E00
ENDCHAR
STARTCHAR uni20BD
ENCODING 8381
SWIDTH 750 0
DWIDTH 12 0
BBX 9 11 1 0
BITMAP
7E00
4100
4080
4C80
C080
8100
CE00
8200
CE00
4800
7800
ENDCHAR
STARTCHAR uni2103
ENCODING 8451
SWIDTH 750 0
DWIDTH 12 0
BBX 10 10 2 0
BITMAP
77C0
8840
A040
83C0
7200
1200
13C0
1040
0840
07C0
ENDCHAR
STARTCHAR uni2109
ENCODING 8457
SWIDTH 750 0
DWIDTH 12 0
BBX 10 10 2 0
BITMAP
77C0
8840
A040
83C0
7040
1040
13C0
1200
1200
1E00
ENDCHAR
STARTCHAR uni2113
ENCODING 8467
SWIDTH 750 0
DWIDTH 12 0
BBX 9 11 2 0
BITMAP
1C00
2200
2A00
2A00
2A00
2A00
2200
1400
EB80
9480
E380
ENDCHAR
STARTCHAR uni2122
ENCODING 8482
SWIDTH 750 0
DWIDTH 12 0
BBX 11 5 0 8
BITMAP
FA20
2360
22A0
2220
2220
ENDCHAR
STARTCHAR uni2126
ENCODING 8486
SWIDTH 750 0
DWIDTH 12 0
BBX 11 13 1 0
BITMAP
3F80
4040
8E20
9120
9120
9120
9120
9120
4A40
2A80
EAE0
8A20
FBE0
ENDCHAR
STARTCHAR uni2190
ENCODING 8592
SWIDTH 750 0
DWIDTH 12 0
BBX 13 11 0 1
BITMAP
0400
0C00
1400
27F8
4008
8008
4008
27F8
1400
0C00
0400
ENDCHAR
STARTCHAR uni2191
ENCODING 8593
SWIDTH 750 0
DWIDTH 12 0
BBX 11 13 1 0
BITMAP
0400
0A00
1100
2080
4040
F1E0
1100
1100
1100
1100
1100
1100
1F00
ENDCHAR
STARTCHAR uni2192
ENCODING 8594
SWIDTH 750 0
DWIDTH 12 0
BBX 13 11 0 1
BITMAP
0100
0180
0140
FF20
8010
8008
8010
FF20
0140
0180
0100
ENDCHAR
STARTCHAR uni2193
ENCODING 8595
SWIDTH 750 0
DWIDTH 12 0
BBX 11 13 1 0
BITMAP
1F00
1100
1100
1100
1100
1100
1100
F1E0
4040
2080
1100
0A00
0400
ENDCHAR
STARTCHAR uni2194
ENCODING 8596
SWIDTH 750 0
DWIDTH 12 0
BBX 13 9 0 2
BITMAP
0880
18C0
2FA0
4010
8008
4010
2FA0
18C0
0880
ENDCHAR
STARTCHAR uni2195
ENCODING 8597
SWIDTH 750 0
DWIDTH 12 0
BBX 9 13 2 0
BITMAP
0800
1400
2200
4100
E380
2200
2200
2200
E380
4100
2200
1400
0800
ENDCHAR
STARTCHAR uni2196
ENCODING 8598
SWIDTH 750 0
DWIDTH 12 0
BBX 12 12 1 0
BITMAP
FF00
8200
8400
8200
8100
A080
D040
8820
0410
0220
0140
0080
ENDCHAR
STARTCHAR uni2197
ENCODING 8599
SWIDTH 750 0
DWIDTH 12 0
BBX 12 12 0 0
BITMAP
0FF0
0410
0210
0410
0810
1050
20B0
4110
8200
4400
2800
1000
ENDCHAR
STARTCHAR uni2198
ENCODING 8600
SWIDTH 750 0
DWIDTH 12 0
BBX 12 12 0 1
BITMAP
1000
2800
4400
8200
4110
20B0
1050
0810
0410
0210
0410
0FF0
ENDCHAR
STARTCHAR uni2199
ENCODING 8601
SWIDTH 750 0
DWIDTH 12 0
BBX 12 12 1 1
BITMAP
0080
0140
0220
0410
8820
D040
A080
8100
8200
8400
8200
FF00
ENDCHAR
STARTCHAR uni21D0
ENCODING 8656
SWIDTH 750 0
DWIDTH 12 0
BBX 13 11 0 1
BITMAP
0400
0C00
1C00
3FF8
7FF8
FFF8
7FF8
3FF8
1C00
0C00
0400
ENDCHAR
STARTCHAR uni21D1
ENCODING 8657
SWIDTH 750 0
DWIDTH 12 0
BBX 11 13 1 0
BITMAP
0400
0E00
1F00
3F80
7FC0
FFE0
1F00
1F00
1F00
1F00
1F00
1F00
1F00
ENDCHAR
STARTCHAR uni21D2
ENCODING 8658
SWIDTH 750 0
DWIDTH 12 0
BBX 13 11 0 1
BITMAP
0100
0180
01C0
FFE0
FFF0
FFF8
FFF0
FFE0
01C0
0180
0100
ENDCHAR
STARTCHAR uni21D3
ENCODING 8659
SWIDTH 750 0
DWIDTH 12 0
BBX 11 13 1 0
BITMAP
1F00
1F00
1F00
1F00
1F00
1F00
1F00
FFE0
7FC0
3F80
1F00
0E00
0400
ENDCHAR
STARTCHAR uni21D4
ENCODING 8660
SWIDTH 750 0
DWIDTH 12 0
BBX 13 9 0 2
BITMAP
0880
18C0
3FE0
7FF0
FFF8
7FF0
3FE0
18C0
0880
ENDCHAR
STARTCHAR uni21D5
ENCODING 8661
SWIDTH 750 0
DWIDTH 12 0
BBX 9 13 2 0
BITMAP
0800
1C00
3E00
7F00
FF80
3E00
3E00
3E00
FF80
7F00
3E00
1C00
0800
ENDCHAR
STARTCHAR uni21D6
ENCODING 8662
SWIDTH 750 0
DWIDTH 12 0
BBX 12 12 1 0
BITMAP
FF00
FE00
FC00
FE00
FF00
FF80
DFC0
8FE0
07F0
03E0
01C0
0080
ENDCHAR
STARTCHAR uni21D7
ENCODING 8663
SWIDTH 750 0
DWIDTH 12 0
BBX 12 12 0 0
BITMAP
0FF0
07F0
03F0
07F0
0FF0
1FF0
3FB0
7F10
FE00
7C00
3800
1000
ENDCHAR
STARTCHAR uni21D8
ENCODING 8664
SWIDTH 750 0
DWIDTH 12 0
BBX 12 12 0 1
BITMAP
1000
3800
7C00
FE00
7F10
3FB0
1FF0
0FF0
07F0
03F0
07F0
0FF0
ENDCHAR
STARTCHAR uni21D9
ENCODING 8665
SWIDTH 750 0
DWIDTH 12 0
BBX 12 12 1 1
BITMAP
0080
01C0
03E0
07F0
8FE0
DFC0
FF80
FF00
FE00
FC00
FE00
FF00
ENDCHAR
STARTCHAR uni2200
ENCODING 8704
SWIDTH 750 0
DWIDTH 12 0
BBX 13 13 0 0
BITMAP
E038
A028
9048
5FD0
4010
2FA0
2520
1540
1240
0A80
0880
0500
0700
ENDCHAR
STARTCHAR uni2202
ENCODING 8706
SWIDTH 750 0
DWIDTH 12 0
BBX 9 13 2 0
BITMAP
1E00
2100
4C80
9480
E480
1880
2080
4C80
9480
9480
9900
4200
3C00
ENDCHAR
STARTCHAR uni2203
ENCODING 8707
SWIDTH 750 0
DWIDTH 12 0
BBX 9 13 2 0
BITMAP
FF80
8080
FC80
0480
0480
FC80
8080
FC80
0480
0480
FC80
8080
FF80
ENDCHAR
STARTCHAR uni2206
ENCODING 8710
SWIDTH 750 0
DWIDTH 12 0
BBX 13 13 0 0
BITMAP
0700
0500
0880
0A80
1240
1540
2520
28A0
4890
5050
9FC8
8008
FFF8
ENDCHAR
STARTCHAR uni2207
ENCODING 8711
SWIDTH 750 0
DWIDTH 12 0
BBX 13 13 0 0
BITMAP
FFF8
8008
9FC8
5050
4890
28A0
2520
1540
1240
0A80
0880
0500
0700
ENDCHAR
STARTCHAR uni2208
ENCODING 8712
SWIDTH 750 0
DWIDTH 12 0
BBX 9 13 2 0
BITMAP
3F80
4080
8F80
9000
9000
9F80
8080
9F80
9000
9000
8F80
4080
3F80
ENDCHAR
STARTCHAR uni220B
ENCODING 8715
SWIDTH 750 0
DWIDTH 12 0
BBX 9 13 2 0
BITMAP
FE00
8100
F880
0480
0480
FC80
8080
FC80
0480
0480
F880
8100
FE00
ENDCHAR
STARTCHAR uni220F
ENCODING 8719
SWIDTH 750 0
DWIDTH 12 0
BBX 11 13 1 0
BITMAP
FFE0
8020
DF60
5140
5140
5140
5140
5140
5140
5140
DB60
8A20
FBE0
ENDCHAR
STARTCHAR uni2211
ENCODING 8721
SWIDTH 750 0
DWIDTH 12 0
BBX 10 13 1 0
BITMAP
FFC0
8040
9F40
49C0
2400
1200
0900
1200
2400
49C0
9F40
8040
FFC0
ENDCHAR
STARTCHAR uni2212
ENCODING 8722
SWIDTH 750 0
DWIDTH 12 0
BBX 9 3 0 5
BITMAP
FF80
8080
FF80
ENDCHAR
STARTCHAR uni2217
ENCODING 8727
SWIDTH 750 0
DWIDTH 12 0
BBX 9 9 2 2
BITMAP
1C00
D580
B680
9480
4100
9480
B680
D580
1C00
ENDCHAR
STARTCHAR uni2218
ENCODING 8728
SWIDTH 500 0
DWIDTH 8 0
BBX 5 5 2 4
BITMAP
70
88
88
88
70
ENDCHAR
STARTCHAR uni2219
ENCODING 8729
SWIDTH 500 0
DWIDTH 8 0
BBX 5 5 2 4
BITMAP
70
F8
F8
F8
70
ENDCHAR
STARTCHAR uni221A
ENCODING 8730
SWIDTH 750 0
DWIDTH 12 0
BBX 13 13 0 0
BITMAP
03F8
0208
0278
0240
0480
0480
F480
8900
E900
2100
1200
1200
1E00
ENDCHAR
STARTCHAR uni221D
ENCODING 8733
SWIDTH 750 0
DWIDTH 12 0
BBX 13 7 0 3
BITMAP
78F0
8508
B268
A8B8
B268
8508
78F0
ENDCHAR
STARTCHAR uni221E
ENCODING 8734
SWIDTH 750 0
DWIDTH 12 0
BBX 13 7 0 3
BITMAP
78F0
8508
B268
A8A8
B268
8508
78F0
ENDCHAR
STARTCHAR uni221F
ENCODING 8735
SWIDTH 750 0
DWIDTH 12 0
BBX 9 13 2 0
BITMAP
E000
A000
A000
A000
A000
A000
A000
A000
A000
A000
BF80
8080
FF80
ENDCHAR
STARTCHAR uni2220
ENCODING 8736
SWIDTH 750 0
DWIDTH 12 0
BBX 9 13 2 0
BITMAP
0380
0480
0500
0900
0A00
1200
1400
2400
2800
4800
5F80
8080
FF80
ENDCHAR
STARTCHAR uni2225
ENCODING 8741
SWIDTH 500 0
DWIDTH 8 0
BBX 5 13 2 0
BITMAP
F8
A8
A8
A8
A8
A8
A8
A8
A8
A8
A8
A8
F8
ENDCHAR
STARTCHAR uni2227
ENCODING 8743
SWIDTH 750 0
DWIDTH 12 0
BBX 13 13 0 0
BITMAP
0700
0500
0880
0A80
1240
1540
2520
28A0
4890
5050
9048
A028
E038
ENDCHAR
STARTCHAR uni2228
ENCODING 8744
SWIDTH 750 0
DWIDTH 12 0
BBX 13 13 0 0
BITMAP
E038
A028
9048
5050
4890
28A0
2520
1540
1240
0A80
0880
0500
0700
ENDCHAR
STARTCHAR uni2229
ENCODING 8745
SWIDTH 750 0
DWIDTH 12 0
BBX 9 13 2 0
BITMAP
3E00
4100
9C80
A280
A280
A280
A280
A280
A280
A280
A280
A280
E380
ENDCHAR
STARTCHAR uni222A
ENCODING 8746
SWIDTH 750 0
DWIDTH 12 0
BBX 9 13 2 0
BITMAP
E380
A280
A280
A280
A280
A280
A280
A280
A280
A280
9C80
4100
3E00
ENDCHAR
STARTCHAR uni222B
ENCODING 8747
SWIDTH 750 0
DWIDTH 12 0
BBX 9 16 2 -3
BITMAP
0780
0880
1380
1400
1400
1400
1400
1400
1400
1400
1400
1400
1400
E400
8800
F000
ENDCHAR
STARTCHAR uni222C
ENCODING 8748
SWIDTH 750 0
DWIDTH 12 0
BBX 9 16 2 -3
BITMAP
0F80
1480
2B80
2A00
2A00
2A00
2A00
2A00
2A00
2A00
2A00
2A00
2A00
EA00
9400
F800
ENDCHAR
STARTCHAR uni222E
ENCODING 8750
SWIDTH 750 0
DWIDTH 12 0
BBX 9 16 2 -3
BITMAP
0780
0880
1380
1400
1400
1400
2200
5500
5500
2200
1400
1400
1400
E400
8800
F000
ENDCHAR
STARTCHAR uni2234
ENCODING 8756
SWIDTH 750 0
DWIDTH 12 0
BBX 9 9 2 2
BITMAP
1C00
1400
1C00
0000
0000
0000
E380
A280
E380
ENDCHAR
STARTCHAR uni2235
ENCODING 8757
SWIDTH 750 0
DWIDTH 12 0
BBX 9 9 2 2
BITMAP
E380
A280
E380
0000
0000
0000
1C00
1400
1C00
ENDCHAR
STARTCHAR uni2236
ENCODING 8758
SWIDTH 500 0
DWIDTH 8 0
BBX 3 9 3 2
BITMAP
E0
A0
E0
00
00
00
E0
A0
E0
ENDCHAR
STARTCHAR uni223D
ENCODING 8765
SWIDTH 750 0
DWIDTH 12 0
BBX 13 7 0 3
BITMAP
78F0
8488
BAE8
A528
BAE8
8908
78F0
ENDCHAR
STARTCHAR uni2248
ENCODING 8776
SWIDTH 750 0
DWIDTH 12 0
BBX 9 10 2 1
BITMAP
3000
4980
B680
C900
0600
3000
4980
B680
C900
0600
ENDCHAR
STARTCHAR uni2252
ENCODING 8786
SWIDTH 750 0
DWIDTH 12 0
BBX 9 11 2 1
BITMAP
E000
A000
FF80
8080
FF80
0000
FF80
8080
FF80
0280
0380
ENDCHAR
STARTCHAR uni2260
ENCODING 8800
SWIDTH 750 0
DWIDTH 12 0
BBX 9 11 2 1
BITMAP
0180
0280
FD80
8080
FB80
1400
EF80
8080
DF80
A000
C000
ENDCHAR
STARTCHAR uni2261
ENCODING 8801
SWIDTH 750 0
DWIDTH 12 0
BBX 9 7 2 3
BITMAP
FF80
8080
FF80
8080
FF80
8080
FF80
ENDCHAR
STARTCHAR uni2264
ENCODING 8804
SWIDTH 750 0
DWIDTH 12 0
BBX 9 12 2 0
BITMAP
0380
0C80
3180
C600
9800
C600
3180
0C80
0380
FF80
8080
FF80
ENDCHAR
STARTCHAR uni2265
ENCODING 8805
SWIDTH 750 0
DWIDTH 12 0
BBX 9 12 2 0
BITMAP
E000
9800
C600
3180
0C80
3180
C600
9800
E000
FF80
8080
FF80
ENDCHAR
STARTCHAR uni2266
ENCODING 8806
SWIDTH 750 0
DWIDTH 12 0
BBX 9 13 2 0
BITMAP
0380
0C80
3180
C600
9800
C600
3180
0C80
FF80
8080
FF80
8080
FF80
ENDCHAR
STARTCHAR uni2267
ENCODING 8807
SWIDTH 750 0
DWIDTH 12 0
BBX 9 13 2 0
BITMAP
E000
9800
C600
3180
0C80
3180
C600
9800
FF80
8080
FF80
8080
FF80
ENDCHAR
STARTCHAR uni226A
ENCODING 8810
SWIDTH 750 0
DWIDTH 12 0
BBX 12 9 0 2
BITMAP
0E70
1290
2520
4A40
9480
4A40
2520
1290
0E70
ENDCHAR
STARTCHAR uni226B
ENCODING 8811
SWIDTH 750 0
DWIDTH 12 0
BBX 12 9 1 2
BITMAP
E700
9480
4A40
2520
1290
2520
4A40
9480
E700
ENDCHAR
STARTCHAR uni2282
ENCODING 8834
SWIDTH 750 0
DWIDTH 12 0
BBX 9 13 2 0
BITMAP
3F80
4080
8F80
9000
9000
9000
9000
9000
9000
9000
8F80
4080
3F80
ENDCHAR
STARTCHAR uni2283
ENCODING 8835
SWIDTH 750 0
DWIDTH 12 0
BBX 9 13 2 0
BITMAP
FE00
8100
F880
0480
0480
0480
0480
0480
0480
0480
F880
8100
FE00
ENDCHAR
STARTCHAR uni2286
ENCODING 8838
SWIDTH 750 0
DWIDTH 12 0
BBX 9 13 2 0
BITMAP
3F80
4080
8F80
9000
9000
9000
9000
9000
8F80
4080
FF80
8080
FF80
ENDCHAR
STARTCHAR uni2287
ENCODING 8839
SWIDTH 750 0
DWIDTH 12 0
BBX 9 13 2 0
BITMAP
FE00
8100
F880
0480
0480
0480
0480
0480
F880
8100
FF80
8080
FF80
ENDCHAR
STARTCHAR uni22A5
ENCODING 8869
SWIDTH 750 0
DWIDTH 12 0
BBX 9 13 2 0
BITMAP
1C00
1400
1400
1400
1400
1400
1400
1400
1400
1400
F780
8080
FF80
ENDCHAR
STARTCHAR uni22BF
ENCODING 8895
SWIDTH 750 0
DWIDTH 12 0
BBX 9 13 2 0
BITMAP
0380
0480
0480
0880
0A80
1280
1680
2680
2A80
4A80
5E80
8080
FF80
ENDCHAR
STARTCHAR uni2500
ENCODING 9472
SWIDTH 750 0
DWIDTH 12 0
BBX 13 3 0 5
BITMAP
FFF8
0000
FFF8
ENDCHAR
STARTCHAR uni2501
ENCODING 9473
SWIDTH 750 0
DWIDTH 12 0
BBX 13 3 0 5
BITMAP
FFF8
FFF8
FFF8
ENDCHAR
STARTCHAR uni2502
ENCODING 9474
SWIDTH 750 0
DWIDTH 12 0
BBX 3 16 5 -3
BITMAP
A0
A0
A0
A0
A0
A0
A0
A0
A0
A0
A0
A0
A0
A0
A0
A0
ENDCHAR
STARTCHAR uni2503
ENCODING 9475
SWIDTH 750 0
DWIDTH 12 0
BBX 3 16 5 -3
BITMAP
E0
E0
E0
E0
E0
E0
E0
E0
E0
E0
E0
E0
E0
E0
E0
E0
ENDCHAR
STARTCHAR uni250C
ENCODING 9484
SWIDTH 750 0
DWIDTH 12 0
BBX 8 11 5 -3
BITMAP
7F
80
BF
A0
A0
A0
A0
A0
A0
A0
A0
ENDCHAR
STARTCHAR uni250F
ENCODING 9487
SWIDTH 750 0
DWIDTH 12 0
BBX 8 11 5 -3
BITMAP
7F
FF
FF
E0
E0
E0
E0
E0
E0
E0
E0
ENDCHAR
STARTCHAR uni2510
ENCODING 9488
SWIDTH 750 0
DWIDTH 12 0
BBX 8 11 0 -3
BITMAP
FE
01
FD
05
05
05
05
05
05
05
05
ENDCHAR
STARTCHAR uni2513
ENCODING 9491
SWIDTH 750 0
DWIDTH 12 0
BBX 8 11 0 -3
BITMAP
FE
FF
FF
07
07
07
07
07
07
07
07
ENDCHAR
STARTCHAR uni2514
ENCODING 9492
SWIDTH 750 0
DWIDTH 12 0
BBX 8 8 5 5
BITMAP
A0
A0
A0
A0
A0
BF
80
7F
ENDCHAR
STARTCHAR uni2517
ENCODING 9495
SWIDTH 750 0
DWIDTH 12 0
BBX 8 8 5 5
BITMAP
E0
E0
E0
E0
E0
FF
FF
7F
ENDCHAR
STARTCHAR uni2518
ENCODING 9496
SWIDTH 750 0
DWIDTH 12 0
BBX 8 8 0 5
BITMAP
05
05
05
05
05
FD
01
FE
ENDCHAR
STARTCHAR uni251B
ENCODING 9499
SWIDTH 750 0
DWIDTH 12 0
BBX 8 8 0 5
BITMAP
07
07
07
07
07
FF
FF
FE
ENDCHAR
STARTCHAR uni251C
ENCODING 9500
SWIDTH 750 0
DWIDTH 12 0
BBX 8 16 5 -3
BITMAP
A0
A0
A0
A0
A0
BF
80
BF
A0
A0
A0
A0
A0
A0
A0
A0
ENDCHAR
STARTCHAR uni251D
ENCODING 9501
SWIDTH 750 0
DWIDTH 12 0
BBX 8 16 5 -3
BITMAP
A0
A0
A0
A0
A0
BF
BF
BF
A0
A0
A0
A0
A0
A0
A0
A0
ENDCHAR
STARTCHAR uni2520
ENCODING 9504
SWIDTH 750 0
DWIDTH 12 0
BBX 8 16 5 -3
BITMAP
E0
E0
E0
E0
E0
FF
E0
FF
E0
E0
E0
E0
E0
E0
E0
E0
ENDCHAR
STARTCHAR uni2523
ENCODING 9507
SWIDTH 750 0
DWIDTH 12 0
BBX 8 16 5 -3
BITMAP
E0
E0
E0
E0
E0
FF
FF
FF
E0
E0
E0
E0
E0
E0
E0
E0
ENDCHAR
STARTCHAR uni2524
ENCODING 9508
SWIDTH 750 0
DWIDTH 12 0
BBX 8 16 0 -3
BITMAP
05
05
05
05
05
FD
01
FD
05
05
05
05
05
05
05
05
ENDCHAR
STARTCHAR uni2525
ENCODING 9509
SWIDTH 750 0
DWIDTH 12 0
BBX 8 16 0 -3
BITMAP
05
05
05
05
05
FD
FD
FD
05
05
05
05
05
05
05
05
ENDCHAR
STARTCHAR uni2528
ENCODING 9512
SWIDTH 750 0
DWIDTH 12 0
BBX 8 16 0 -3
BITMAP
07
07
07
07
07
FF
07
FF
07
07
07
07
07
07
07
07
ENDCHAR
STARTCHAR uni252B
ENCODING 9515
SWIDTH 750 0
DWIDTH 12 0
BBX 8 16 0 -3
BITMAP
07
07
07
07
07
FF
FF
FF
07
07
07
07
07
07
07
07
ENDCHAR
STARTCHAR uni252C
ENCODING 9516
SWIDTH 750 0
DWIDTH 12 0
BBX 13 11 0 -3
BITMAP
FFF8
0000
FDF8
0500
0500
0500
0500
0500
0500
0500
0500
ENDCHAR
STARTCHAR uni252F
ENCODING 9519
SWIDTH 750 0
DWIDTH 12 0
BBX 13 11 0 -3
BITMAP
FFF8
FFF8
FFF8
0500
0500
0500
0500
0500
0500
0500
0500
ENDCHAR
STARTCHAR uni2530
ENCODING 9520
SWIDTH 750 0
DWIDTH 12 0
BBX 13 11 0 -3
BITMAP
FFF8
0000
FFF8
0700
0700
0700
0700
0700
0700
0700
0700
ENDCHAR
STARTCHAR uni2533
ENCODING 9523
SWIDTH 750 0
DWIDTH 12 0
BBX 13 11 0 -3
BITMAP
FFF8
FFF8
FFF8
0700
0700
0700
0700
0700
0700
0700
0700
ENDCHAR
STARTCHAR uni2534
ENCODING 9524
SWIDTH 750 0
DWIDTH 12 0
BBX 13 8 0 5
BITMAP
0500
0500
0500
0500
0500
FDF8
0000
FFF8
ENDCHAR
STARTCHAR uni2537
ENCODING 9527
SWIDTH 750 0
DWIDTH 12 0
BBX 13 8 0 5
BITMAP
0500
0500
0500
0500
0500
FFF8
FFF8
FFF8
ENDCHAR
STARTCHAR uni2538
ENCODING 9528
SWIDTH 750 0
DWIDTH 12 0
BBX 13 8 0 5
BITMAP
0700
0700
0700
0700
0700
FFF8
0000
FFF8
ENDCHAR
STARTCHAR uni253B
ENCODING 9531
SWIDTH 750 0
DWIDTH 12 0
BBX 13 8 0 5
BITMAP
0700
0700
0700
0700
0700
FFF8
FFF8
FFF8
ENDCHAR
STARTCHAR uni253C
ENCODING 9532
SWIDTH 750 0
DWIDTH 12 0
BBX 13 16 0 -3
BITMAP
0500
0500
0500
0500
0500
FDF8
0000
FDF8
0500
0500
0500
0500
0500
0500
0500
0500
ENDCHAR
STARTCHAR uni253F
ENCODING 9535
SWIDTH 750 0
DWIDTH 12 0
BBX 13 16 0 -3
BITMAP
0500
0500
0500
0500
0500
FFF8
FFF8
FFF8
0500
0500
0500
0500
0500
0500
0500
0500
ENDCHAR
STARTCHAR uni2542
ENCODING 9538
SWIDTH 750 0
DWIDTH 12 0
BBX 13 16 0 -3
BITMAP
0700
0700
0700
0700
0700
FFF8
0700
FFF8
0700
0700
0700
0700
0700
0700
0700
0700
ENDCHAR
STARTCHAR uni254B
ENCODING 9547
SWIDTH 750 0
DWIDTH 12 0
BBX 13 16 0 -3
BITMAP
0700
0700
0700
0700
0700
FFF8
FFF8
FFF8
0700
0700
0700
0700
0700
0700
0700
0700
ENDCHAR
STARTCHAR uni2580
ENCODING 9600
SWIDTH 750 0
DWIDTH 12 0
BBX 13 7 0 6
BITMAP
FFF8
FFF8
FFF8
FFF8
FFF8
FFF8
FFF8
ENDCHAR
STARTCHAR uni2581
ENCODING 9601
SWIDTH 750 0
DWIDTH 12 0
BBX 13 1 0 0
BITMAP
FFF8
ENDCHAR
STARTCHAR uni2582
ENCODING 9602
SWIDTH 750 0
DWIDTH 12 0
BBX 13 2 0 0
BITMAP
FFF8
FFF8
ENDCHAR
STARTCHAR uni2583
ENCODING 9603
SWIDTH 750 0
DWIDTH 12 0
BBX 13 3 0 0
BITMAP
FFF8
FFF8
FFF8
ENDCHAR
STARTCHAR uni2584
ENCODING 9604
SWIDTH 750 0
DWIDTH 12 0
BBX 13 5 0 0
BITMAP
FFF8
FFF8
FFF8
FFF8
FFF8
ENDCHAR
STARTCHAR uni2585
ENCODING 9605
SWIDTH 750 0
DWIDTH 12 0
BBX 13 7 0 0
BITMAP
FFF8
FFF8
FFF8
FFF8
FFF8
FFF8
FFF8
ENDCHAR
STARTCHAR uni2586
ENCODING 9606
SWIDTH 750 0
DWIDTH 12 0
BBX 13 9 0 0
BITMAP
FFF8
FFF8
FFF8
FFF8
FFF8
FFF8
FFF8
FFF8
FFF8
ENDCHAR
STARTCHAR uni2587
ENCODING 9607
SWIDTH 750 0
DWIDTH 12 0
BBX 13 11 0 0
BITMAP
FFF8
FFF8
FFF8
FFF8
FFF8
FFF8
FFF8
FFF8
FFF8
FFF8
FFF8
ENDCHAR
STARTCHAR uni2588
ENCODING 9608
SWIDTH 750 0
DWIDTH 12 0
BBX 13 13 0 0
BITMAP
FFF8
FFF8
FFF8
FFF8
FFF8
FFF8
FFF8
FFF8
FFF8
FFF8
FFF8
FFF8
FFF8
ENDCHAR
STARTCHAR uni2589
ENCODING 9609
SWIDTH 750 0
DWIDTH 12 0
BBX 11 13 0 0
BITMAP
FFE0
FFE0
FFE0
FFE0
FFE0
FFE0
FFE0
FFE0
FFE0
FFE0
FFE0
FFE0
FFE0
ENDCHAR
STARTCHAR uni258A
ENCODING 9610
SWIDTH 750 0
DWIDTH 12 0
BBX 9 13 0 0
BITMAP
FF80
FF80
FF80
FF80
FF80
FF80
FF80
FF80
FF80
FF80
FF80
FF80
FF80
ENDCHAR
STARTCHAR uni258B
ENCODING 9611
SWIDTH 750 0
DWIDTH 12 0
BBX 7 13 0 0
BITMAP
FE
FE
FE
FE
FE
FE
FE
FE
FE
FE
FE
FE
FE
ENDCHAR
STARTCHAR uni258C
ENCODING 9612
SWIDTH 750 0
DWIDTH 12 0
BBX 5 13 0 0
BITMAP
F8
F8
F8
F8
F8
F8
F8
F8
F8
F8
F8
F8
F8
ENDCHAR
STARTCHAR uni258D
ENCODING 9613
SWIDTH 750 0
DWIDTH 12 0
BBX 3 13 0 0
BITMAP
E0
E0
E0
E0
E0
E0
E0
E0
E0
E0
E0
E0
E0
ENDCHAR
STARTCHAR uni258E
ENCODING 9614
SWIDTH 750 0
DWIDTH 12 0
BBX 2 13 0 0
BITMAP
C0
C0
C0
C0
C0
C0
C0
C0
C0
C0
C0
C0
C0
ENDCHAR
STARTCHAR uni258F
ENCODING 9615
SWIDTH 750 0
DWIDTH 12 0
BBX 1 13 0 0
BITMAP
80
80
80
80
80
80
80
80
80
80
80
80
80
ENDCHAR
STARTCHAR uni2590
ENCODING 9616
SWIDTH 750 0
DWIDTH 12 0
BBX 7 13 6 0
BITMAP
FE
FE
FE
FE
FE
FE
FE
FE
FE
FE
FE
FE
FE
ENDCHAR
STARTCHAR uni25A0
ENCODING 9632
SWIDTH 750 0
DWIDTH 12 0
BBX 9 9 2 2
BITMAP
FF80
FF80
FF80
FF80
FF80
FF80
FF80
FF80
FF80
ENDCHAR
STARTCHAR uni25A1
ENCODING 9633
SWIDTH 750 0
DWIDTH 12 0
BBX 9 9 2 2
BITMAP
FF80
8080
8080
8080
8080
8080
8080
8080
FF80
ENDCHAR
STARTCHAR uni25B2
ENCODING 9650
SWIDTH 750 0
DWIDTH 12 0
BBX 9 9 2 2
BITMAP
0800
0800
1C00
1C00
3E00
3E00
7F00
7F00
FF80
ENDCHAR
STARTCHAR uni25B3
ENCODING 9651
SWIDTH 750 0
DWIDTH 12 0
BBX 9 9 2 2
BITMAP
0800
0800
1400
1400
2200
2200
4100
4100
FF80
ENDCHAR
STARTCHAR uni25BC
ENCODING 9660
SWIDTH 750 0
DWIDTH 12 0
BBX 9 9 2 2
BITMAP
FF80
7F00
7F00
3E00
3E00
1C00
1C00
0800
0800
ENDCHAR
STARTCHAR uni25BD
ENCODING 9661
SWIDTH 750 0
DWIDTH 12 0
BBX 9 9 2 2
BITMAP
FF80
4100
4100
2200
2200
1400
1400
0800
0800
ENDCHAR
STARTCHAR uni25C6
ENCODING 9670
SWIDTH 750 0
DWIDTH 12 0
BBX 11 11 1 1
BITMAP
0400
0E00
1F00
3F80
7FC0
FFE0
7FC0
3F80
1F00
0E00
0400
ENDCHAR
STARTCHAR uni25C7
ENCODING 9671
SWIDTH 750 0
DWIDTH 12 0
BBX 11 11 1 1
BITMAP
0400
0A00
1100
2080
4040
8020
4040
2080
1100
0A00
0400
ENDCHAR
STARTCHAR uni25CB
ENCODING 9675
SWIDTH 750 0
DWIDTH 12 0
BBX 9 9 2 2
BITMAP
3E00
4100
8080
8080
8080
8080
8080
4100
3E00
ENDCHAR
STARTCHAR uni25CE
ENCODING 9678
SWIDTH 750 0
DWIDTH 12 0
BBX 9 9 2 2
BITMAP
3E00
4100
9C80
A280
A280
A280
9C80
4100
3E00
ENDCHAR
STARTCHAR uni25CF
ENCODING 9679
SWIDTH 750 0
DWIDTH 12 0
BBX 9 9 2 2
BITMAP
3E00
7F00
FF80
FF80
FF80
FF80
FF80
7F00
3E00
ENDCHAR
STARTCHAR uni2605
ENCODING 9733
SWIDTH 750 0
DWIDTH 12 0
BBX 11 11 1 1
BITMAP
0400
0400
0E00
0E00
FFE0
3F80
1F00
1F00
3B80
3180
4040
ENDCHAR
STARTCHAR uni2606
ENCODING 9734
SWIDTH 750 0
DWIDTH 12 0
BBX 11 11 1 1
BITMAP
0400
0400
0A00
0A00
FBE0
2080
1100
1500
2A80
3180
4040
ENDCHAR
STARTCHAR uni2610
ENCODING 9744
SWIDTH 750 0
DWIDTH 12 0
BBX 9 9 2 2
BITMAP
FF80
8080
8080
8080
8080
8080
8080
8080
FF80
ENDCHAR
STARTCHAR uni2611
ENCODING 9745
SWIDTH 750 0
DWIDTH 12 0
BBX 9 9 2 2
BITMAP
FF80
8080
BE80
BE80
BE80
BE80
BE80
8080
FF80
ENDCHAR
STARTCHAR uni2612
ENCODING 9746
SWIDTH 750 0
DWIDTH 12 0
BBX 9 9 2 2
BITMAP
FF80
8080
A280
9480
8880
9480
A280
8080
FF80
ENDCHAR
STARTCHAR uni2613
ENCODING 9747
SWIDTH 750 0
DWIDTH 12 0
BBX 9 9 2 2
BITMAP
C180
E380
7700
3E00
1C00
3E00
7700
E380
C180
ENDCHAR
STARTCHAR uni2620
ENCODING 9760
SWIDTH 750 0
DWIDTH 12 0
BBX 9 13 2 0
BITMAP
3E00
7F00
FF80
FF80
FF80
C980
8880
8880
7700
1400
4100
2200
1C00
ENDCHAR
STARTCHAR uni2640
ENCODING 9792
SWIDTH 750 0
DWIDTH 12 0
BBX 9 13 2 0
BITMAP
3E00
4100
BE80
A280
A280
BE80
4100
F780
8080
F780
1400
1400
1C00
ENDCHAR
STARTCHAR uni2642
ENCODING 9794
SWIDTH 750 0
DWIDTH 12 0
BBX 9 13 2 0
BITMAP
0800
1400
2200
5500
B680
F780
4100
BE80
A280
A280
BE80
4100
3E00
ENDCHAR
STARTCHAR uni2660
ENCODING 9824
SWIDTH 750 0
DWIDTH 12 0
BBX 11 11 1 1
BITMAP
0400
0E00
1F00
3F80
7FC0
FFE0
FFE0
FFE0
75C0
0E00
1F00
ENDCHAR
STARTCHAR uni2661
ENCODING 9825
SWIDTH 750 0
DWIDTH 12 0
BBX 11 10 1 1
BITMAP
71C0
8A20
8420
8020
8020
4040
2080
1100
0A00
0400
ENDCHAR
STARTCHAR uni2662
ENCODING 9826
SWIDTH 750 0
DWIDTH 12 0
BBX 11 11 1 1
BITMAP
0400
0A00
1100
2080
4040
8020
4040
2080
1100
0A00
0400
ENDCHAR
STARTCHAR uni2663
ENCODING 9827
SWIDTH 750 0
DWIDTH 12 0
BBX 11 11 1 1
BITMAP
0E00
1F00
1F00
1F00
6EC0
FFE0
FFE0
FFE0
75C0
0E00
1F00
ENDCHAR
STARTCHAR uni2664
ENCODING 9828
SWIDTH 750 0
DWIDTH 12 0
BBX 11 11 1 1
BITMAP
0400
0A00
1100
2080
4040
8020
8020
8A20
7BC0
1100
3F80
ENDCHAR
STARTCHAR uni2665
ENCODING 9829
SWIDTH 750 0
DWIDTH 12 0
BBX 11 10 1 1
BITMAP
71C0
FBE0
FFE0
FFE0
FFE0
7FC0
3F80
1F00
0E00
0400
ENDCHAR
STARTCHAR uni2666
ENCODING 9830
SWIDTH 750 0
DWIDTH 12 0
BBX 11 11 1 1
BITMAP
0400
0E00
1F00
3F80
7FC0
FFE0
7FC0
3F80
1F00
0E00
0400
ENDCHAR
STARTCHAR uni2667
ENCODING 9831
SWIDTH 750 0
DWIDTH 12 0
BBX 11 11 1 1
BITMAP
0E00
1100
2080
2080
71C0
8020
8020
8A20
7BC0
1100
3F80
ENDCHAR
STARTCHAR uni266A
ENCODING 9834
SWIDTH 750 0
DWIDTH 12 0
BBX 11 13 0 0
BITMAP
0600
0500
0480
0440
0520
05A0
05A0
0540
3D80
4100
8200
8400
7800
ENDCHAR
STARTCHAR uni3000
ENCODING 12288
SWIDTH 750 0
DWIDTH 12 0
BBX 1 1 0 0
BITMAP
00
ENDCHAR
ENDFONT
