STARTFONT 2.1
FONT Bm437_Wyse700a-2y-32px
SIZE 32 75 75
FONTBOUNDINGBOX 16 32 0 -6
STARTPROPERTIES 3
PIXEL_SIZE 32
FONT_ASCENT 26
FONT_DESCENT 6
ENDPROPERTIES
CHARS 295
STARTCHAR uni0000
ENCODING 0
SWIDTH 500 0
DWIDTH 16 0
BBX 16 32 0 -6
BITMAP
0000
0000
0000
0000
0000
0000
0000
0000
0000
0000
0000
0000
0000
0000
0000
0000
0000
0000
0000
0000
0000
0000
0000
0000
0000
0000
0000
0000
0000
0000
0000
0000
ENDCHAR
STARTCHAR uni0001
ENCODING 1
SWIDTH 500 0
DWIDTH 16 0
BBX 16 32 0 -6
BITMAP
0000
0000
0000
0000
3FFC
3FFC
6006
6006
C003
C003
CC33
CC33
C003
C003
C003
C003
CFF3
CFF3
C3C3
C3C3
C003
C003
6006
6006
3FFC
3FFC
0000
0000
0000
0000
0000
0000
ENDCHAR
STARTCHAR uni0002
ENCODING 2
SWIDTH 500 0
DWIDTH 16 0
BBX 16 32 0 -6
BITMAP
0000
0000
0000
0000
3FFC
3FFC
7FFE
7FFE
FFFF
FFFF
F3CF
F3CF
FFFF
FFFF
FFFF
FFFF
F00F
F00F
FC3F
FC3F
FFFF
FFFF
7FFE
7FFE
3FFC
3FFC
0000
0000
0000
0000
0000
0000
ENDCHAR
STARTCHAR uni0003
ENCODING 3
SWIDTH 500 0
DWIDTH 16 0
BBX 16 32 0 -6
BITMAP
0000
0000
0000
0000
0000
0000
1E78
1E78
3FFC
3FFC
7FFE
7FFE
7FFE
7FFE
7FFE
7FFE
3FFC
3FFC
1FF8
1FF8
07E0
07E0
0180
0180
0000
0000
0000
0000
0000
0000
0000
0000
ENDCHAR
STARTCHAR uni0004
ENCODING 4
SWIDTH 500 0
DWIDTH 16 0
BBX 16 32 0 -6
BITMAP
0000
0000
0000
0000
0000
0000
0180
0180
03C0
03C0
07E0
07E0
0FF0
0FF0
1FF8
1FF8
0FF0
0FF0
07E0
07E0
03C0
03C0
0180
0180
0000
0000
0000
0000
0000
0000
0000
0000
ENDCHAR
STARTCHAR uni0005
ENCODING 5
SWIDTH 500 0
DWIDTH 16 0
BBX 16 32 0 -6
BITMAP
0000
0000
0000
0000
03C0
03C0
07E0
07E0
07E0
07E0
3C3C
3C3C
7C3E
7C3E
7C3E
7C3E
3C3C
3C3C
03C0
03C0
03C0
03C0
03C0
03C0
0FF0
0FF0
0000
0000
0000
0000
0000
0000
ENDCHAR
STARTCHAR uni0006
ENCODING 6
SWIDTH 500 0
DWIDTH 16 0
BBX 16 32 0 -6
BITMAP
0000
0000
0000
0000
03C0
03C0
0FF0
0FF0
3FFC
3FFC
FFFF
FFFF
FFFF
FFFF
FFFF
FFFF
3FFC
3FFC
03C0
03C0
03C0
03C0
03C0
03C0
0FF0
0FF0
0000
0000
0000
0000
0000
0000
ENDCHAR
STARTCHAR uni0007
ENCODING 7
SWIDTH 500 0
DWIDTH 16 0
BBX 16 32 0 -6
BITMAP
0000
0000
0000
0000
0000
0000
0000
0000
0000
0000
0000
0000
03C0
03C0
0FF0
0FF0
0FF0
0FF0
03C0
03C0
0000
0000
0000
0000
0000
0000
0000
0000
0000
0000
0000
0000
ENDCHAR
STARTCHAR uni0008
ENCODING 8
SWIDTH 500 0
DWIDTH 16 0
BBX 16 32 0 -6
BITMAP
FFFF
FFFF
FFFF
FFFF
FFFF
FFFF
FFFF
FFFF
FFFF
FFFF
FFFF
FFFF
FC3F
FC3F
F00F
F00F
F00F
F00F
FC3F
FC3F
FFFF
FFFF
FFFF
FFFF
FFFF
FFFF
FFFF
FFFF
FFFF
FFFF
FFFF
FFFF
ENDCHAR
STARTCHAR uni0009
ENCODING 9
SWIDTH 500 0
DWIDTH 16 0
BBX 16 32 0 -6
BITMAP
0000
0000
0000
0000
0000
0000
0000
0000
0000
0000
0FF0
0FF0
3C3C
3C3C
300C
300C
300C
300C
3C3C
3C3C
0FF0
0FF0
0000
0000
0000
0000
0000
0000
0000
0000
0000
0000
ENDCHAR
STARTCHAR uni000A
ENCODING 10
SWIDTH 500 0
DWIDTH 16 0
BBX 16 32 0 -6
BITMAP
FFFF
FFFF
FFFF
FFFF
FFFF
FFFF
FFFF
FFFF
FFFF
FFFF
F00F
F00F
C3C3
C3C3
CFF3
CFF3
CFF3
CFF3
C3C3
C3C3
F00F
F00F
FFFF
FFFF
FFFF
FFFF
FFFF
FFFF
FFFF
FFFF
FFFF
FFFF
ENDCHAR
STARTCHAR uni000B
ENCODING 11
SWIDTH 500 0
DWIDTH 16 0
BBX 16 32 0 -6
BITMAP
0000
0000
0000
0000
0000
0000
007F
007F
001F
001F
003F
003F
007B
007B
07F0
07F0
1E78
1E78
3C3C
3C3C
3C3C
3C3C
1E78
1E78
07E0
07E0
0000
0000
0000
0000
0000
0000
ENDCHAR
STARTCHAR uni000C
ENCODING 12
SWIDTH 500 0
DWIDTH 16 0
BBX 16 32 0 -6
BITMAP
0000
0000
0000
0000
07E0
07E0
1E78
1E78
3C3C
3C3C
3C3C
3C3C
1E78
1E78
07E0
07E0
03C0
03C0
03C0
03C0
3FFC
3FFC
03C0
03C0
03C0
03C0
0000
0000
0000
0000
0000
0000
ENDCHAR
STARTCHAR uni000D
ENCODING 13
SWIDTH 500 0
DWIDTH 16 0
BBX 16 32 0 -6
BITMAP
0000
0000
0000
0000
0FFF
0FFF
0F0F
0F0F
0FFF
0FFF
0F00
0F00
0F00
0F00
0F00
0F00
0F00
0F00
0F00
0F00
3F00
3F00
7F00
7F00
3E00
3E00
0000
0000
0000
0000
0000
0000
ENDCHAR
STARTCHAR uni000E
ENCODING 14
SWIDTH 500 0
DWIDTH 16 0
BBX 16 32 0 -6
BITMAP
0000
0000
0000
0000
1FFE
1FFE
1E1E
1E1E
1FFE
1FFE
1E1E
1E1E
1E1E
1E1E
1E1E
1E1E
1E1E
1E1E
1E1E
1E1E
1E3E
1E3E
3E7E
3E7E
7E3C
7E3C
3C00
3C00
0000
0000
0000
0000
ENDCHAR
STARTCHAR uni000F
ENCODING 15
SWIDTH 500 0
DWIDTH 16 0
BBX 16 32 0 -6
BITMAP
0000
0000
0000
0000
0000
0000
03C0
03C0
03C0
03C0
F3CF
F3CF
0FF0
0FF0
FC3F
FC3F
0FF0
0FF0
F3CF
F3CF
03C0
03C0
03C0
03C0
0000
0000
0000
0000
0000
0000
0000
0000
ENDCHAR
STARTCHAR uni0010
ENCODING 16
SWIDTH 500 0
DWIDTH 16 0
BBX 16 32 0 -6
BITMAP
0000
0000
0000
0000
3000
3000
3C00
3C00
3F00
3F00
3FC0
3FC0
3FF0
3FF0
3FFC
3FFC
3FF0
3FF0
3FC0
3FC0
3F00
3F00
3C00
3C00
3000
3000
0000
0000
0000
0000
0000
0000
ENDCHAR
STARTCHAR uni0011
ENCODING 17
SWIDTH 500 0
DWIDTH 16 0
BBX 16 32 0 -6
BITMAP
0000
0000
0000
0000
000C
000C
003C
003C
00FC
00FC
03FC
03FC
0FFC
0FFC
3FFC
3FFC
0FFC
0FFC
03FC
03FC
00FC
00FC
003C
003C
000C
000C
0000
0000
0000
0000
0000
0000
ENDCHAR
STARTCHAR uni0012
ENCODING 18
SWIDTH 500 0
DWIDTH 16 0
BBX 16 32 0 -6
BITMAP
0000
0000
0000
0000
03C0
03C0
0FF0
0FF0
3FFC
3FFC
03C0
03C0
03C0
03C0
03C0
03C0
03C0
03C0
03C0
03C0
3FFC
3FFC
0FF0
0FF0
03C0
03C0
0000
0000
0000
0000
0000
0000
ENDCHAR
STARTCHAR uni0013
ENCODING 19
SWIDTH 500 0
DWIDTH 16 0
BBX 16 32 0 -6
BITMAP
0000
0000
0000
0000
0F0F
0F0F
0F0F
0F0F
0F0F
0F0F
0F0F
0F0F
0F0F
0F0F
0F0F
0F0F
0F0F
0F0F
0F0F
0F0F
0000
0000
0F0F
0F0F
0F0F
0F0F
0000
0000
0000
0000
0000
0000
ENDCHAR
STARTCHAR uni0014
ENCODING 20
SWIDTH 500 0
DWIDTH 16 0
BBX 16 32 0 -6
BITMAP
0000
0000
0000
0000
3FFF
3FFF
F3CF
F3CF
F3CF
F3CF
F3CF
F3CF
F3CF
F3CF
3FCF
3FCF
03CF
03CF
03CF
03CF
03CF
03CF
03CF
03CF
03CF
03CF
0000
0000
0000
0000
0000
0000
ENDCHAR
STARTCHAR uni0015
ENCODING 21
SWIDTH 500 0
DWIDTH 16 0
BBX 16 32 0 -6
BITMAP
0000
0000
0FFC
0FFC
3C0F
3C0F
0F00
0F00
03F0
03F0
0F3C
0F3C
3C0F
3C0F
3C0F
3C0F
0F3C
0F3C
03F0
03F0
003C
003C
3C0F
3C0F
0FFC
0FFC
0000
0000
0000
0000
0000
0000
ENDCHAR
STARTCHAR uni0016
ENCODING 22
SWIDTH 500 0
DWIDTH 16 0
BBX 16 32 0 -6
BITMAP
0000
0000
0000
0000
0000
0000
0000
0000
0000
0000
0000
0000
0000
0000
0000
0000
0000
0000
0000
0000
3FFF
3FFF
3FFF
3FFF
3FFF
3FFF
0000
0000
0000
0000
0000
0000
ENDCHAR
STARTCHAR uni0017
ENCODING 23
SWIDTH 500 0
DWIDTH 16 0
BBX 16 32 0 -6
BITMAP
0000
0000
0000
0000
03C0
03C0
0FF0
0FF0
3FFC
3FFC
03C0
03C0
03C0
03C0
03C0
03C0
03C0
03C0
03C0
03C0
3FFC
3FFC
0FF0
0FF0
03C0
03C0
3FFC
3FFC
0000
0000
0000
0000
ENDCHAR
STARTCHAR uni0018
ENCODING 24
SWIDTH 500 0
DWIDTH 16 0
BBX 16 32 0 -6
BITMAP
0000
0000
0000
0000
03C0
03C0
0FF0
0FF0
3FFC
3FFC
03C0
03C0
03C0
03C0
03C0
03C0
03C0
03C0
03C0
03C0
03C0
03C0
03C0
03C0
03C0
03C0
0000
0000
0000
0000
0000
0000
ENDCHAR
STARTCHAR uni0019
ENCODING 25
SWIDTH 500 0
DWIDTH 16 0
BBX 16 32 0 -6
BITMAP
0000
0000
0000
0000
03C0
03C0
03C0
03C0
03C0
03C0
03C0
03C0
03C0
03C0
03C0
03C0
03C0
03C0
03C0
03C0
3FFC
3FFC
0FF0
0FF0
03C0
03C0
0000
0000
0000
0000
0000
0000
ENDCHAR
STARTCHAR uni001A
ENCODING 26
SWIDTH 500 0
DWIDTH 16 0
BBX 16 32 0 -6
BITMAP
0000
0000
0000
0000
0000
0000
0000
0000
0000
0000
00F0
00F0
003C
003C
3FFF
3FFF
003C
003C
00F0
00F0
0000
0000
0000
0000
0000
0000
0000
0000
0000
0000
0000
0000
ENDCHAR
STARTCHAR uni001B
ENCODING 27
SWIDTH 500 0
DWIDTH 16 0
BBX 16 32 0 -6
BITMAP
0000
0000
0000
0000
0000
0000
0000
0000
0000
0000
03C0
03C0
0F00
0F00
3FFF
3FFF
0F00
0F00
03C0
03C0
0000
0000
0000
0000
0000
0000
0000
0000
0000
0000
0000
0000
ENDCHAR
STARTCHAR uni001C
ENCODING 28
SWIDTH 500 0
DWIDTH 16 0
BBX 16 32 0 -6
BITMAP
0000
0000
0000
0000
0000
0000
0000
0000
0000
0000
0000
0000
3C00
3C00
3C00
3C00
3C00
3C00
3FFF
3FFF
0000
0000
0000
0000
0000
0000
0000
0000
0000
0000
0000
0000
ENDCHAR
STARTCHAR uni001D
ENCODING 29
SWIDTH 500 0
DWIDTH 16 0
BBX 16 32 0 -6
BITMAP
0000
0000
0000
0000
0000
0000
0000
0000
0000
0000
0C30
0C30
3C3C
3C3C
FFFF
FFFF
3C3C
3C3C
0C30
0C30
0000
0000
0000
0000
0000
0000
0000
0000
0000
0000
0000
0000
ENDCHAR
STARTCHAR uni001E
ENCODING 30
SWIDTH 500 0
DWIDTH 16 0
BBX 16 32 0 -6
BITMAP
0000
0000
0000
0000
0000
0000
0000
0000
0180
0180
03C0
03C0
07E0
07E0
0FF0
0FF0
1FF8
1FF8
3FFC
3FFC
7FFE
7FFE
0000
0000
0000
0000
0000
0000
0000
0000
0000
0000
ENDCHAR
STARTCHAR uni001F
ENCODING 31
SWIDTH 500 0
DWIDTH 16 0
BBX 16 32 0 -6
BITMAP
0000
0000
0000
0000
0000
0000
0000
0000
7FFE
7FFE
3FFC
3FFC
1FF8
1FF8
0FF0
0FF0
07E0
07E0
03C0
03C0
0180
0180
0000
0000
0000
0000
0000
0000
0000
0000
0000
0000
ENDCHAR
STARTCHAR space
ENCODING 32
SWIDTH 500 0
DWIDTH 16 0
BBX 16 32 0 -6
BITMAP
0000
0000
0000
0000
0000
0000
0000
0000
0000
0000
0000
0000
0000
0000
0000
0000
0000
0000
0000
0000
0000
0000
0000
0000
0000
0000
0000
0000
0000
0000
0000
0000
ENDCHAR
STARTCHAR exclam
ENCODING 33
SWIDTH 500 0
DWIDTH 16 0
BBX 16 32 0 -6
BITMAP
0000
0000
0000
0000
03C0
03C0
07E0
07E0
0FF0
0FF0
0FF0
0FF0
0FF0
0FF0
07E0
07E0
03C0
03C0
03C0
03C0
0000
0000
03C0
03C0
03C0
03C0
0000
0000
0000
0000
0000
0000
ENDCHAR
STARTCHAR quotedbl
ENCODING 34
SWIDTH 500 0
DWIDTH 16 0
BBX 16 32 0 -6
BITMAP
0000
0000
3C3C
3C3C
3C3C
3C3C
1C38
1C38
0C30
0C30
0000
0000
0000
0000
0000
0000
0000
0000
0000
0000
0000
0000
0000
0000
0000
0000
0000
0000
0000
0000
0000
0000
ENDCHAR
STARTCHAR numbersign
ENCODING 35
SWIDTH 500 0
DWIDTH 16 0
BBX 16 32 0 -6
BITMAP
0000
0000
0000
0000
0000
0000
1C38
1C38
1C38
1C38
7FFE
7FFE
1C38
1C38
1C38
1C38
1C38
1C38
1C38
1C38
7FFE
7FFE
1C38
1C38
1C38
1C38
0000
0000
0000
0000
0000
0000
ENDCHAR
STARTCHAR dollar
ENCODING 36
SWIDTH 500 0
DWIDTH 16 0
BBX 16 32 0 -6
BITMAP
03C0
03C0
03C0
03C0
07E0
07E0
1E78
1E78
3C3C
3C3C
3C00
3C00
1E00
1E00
07E0
07E0
0078
0078
003C
003C
3C3C
3C3C
1E78
1E78
07E0
07E0
03C0
03C0
03C0
03C0
0000
0000
ENDCHAR
STARTCHAR percent
ENCODING 37
SWIDTH 500 0
DWIDTH 16 0
BBX 16 32 0 -6
BITMAP
0000
0000
0000
0000
0000
0000
0000
0000
3C3C
3C3C
3C78
3C78
00F0
00F0
01E0
01E0
03C0
03C0
0780
0780
0F00
0F00
1E3C
1E3C
3C3C
3C3C
0000
0000
0000
0000
0000
0000
ENDCHAR
STARTCHAR ampersand
ENCODING 38
SWIDTH 500 0
DWIDTH 16 0
BBX 16 32 0 -6
BITMAP
0000
0000
0000
0000
07C0
07C0
1EF0
1EF0
3C78
3C78
1EF0
1EF0
07C0
07C0
0F9E
0F9E
3FFC
3FFC
78F8
78F8
7878
7878
3CFC
3CFC
0F9E
0F9E
0000
0000
0000
0000
0000
0000
ENDCHAR
STARTCHAR quotesingle
ENCODING 39
SWIDTH 500 0
DWIDTH 16 0
BBX 16 32 0 -6
BITMAP
0000
0000
0F00
0F00
0F00
0F00
0F00
0F00
1E00
1E00
0000
0000
0000
0000
0000
0000
0000
0000
0000
0000
0000
0000
0000
0000
0000
0000
0000
0000
0000
0000
0000
0000
ENDCHAR
STARTCHAR parenleft
ENCODING 40
SWIDTH 500 0
DWIDTH 16 0
BBX 16 32 0 -6
BITMAP
0000
0000
0000
0000
01E0
01E0
03C0
03C0
0780
0780
0F00
0F00
0F00
0F00
0F00
0F00
0F00
0F00
0F00
0F00
0780
0780
03C0
03C0
01E0
01E0
0000
0000
0000
0000
0000
0000
ENDCHAR
STARTCHAR parenright
ENCODING 41
SWIDTH 500 0
DWIDTH 16 0
BBX 16 32 0 -6
BITMAP
0000
0000
0000
0000
01E0
01E0
00F0
00F0
0078
0078
003C
003C
003C
003C
003C
003C
003C
003C
003C
003C
0078
0078
00F0
00F0
01E0
01E0
0000
0000
0000
0000
0000
0000
ENDCHAR
STARTCHAR asterisk
ENCODING 42
SWIDTH 500 0
DWIDTH 16 0
BBX 16 32 0 -6
BITMAP
0000
0000
0000
0000
0000
0000
0000
0000
0000
0000
3C3C
3C3C
0FF0
0FF0
7FFE
7FFE
0FF0
0FF0
3C3C
3C3C
0000
0000
0000
0000
0000
0000
0000
0000
0000
0000
0000
0000
ENDCHAR
STARTCHAR plus
ENCODING 43
SWIDTH 500 0
DWIDTH 16 0
BBX 16 32 0 -6
BITMAP
0000
0000
0000
0000
0000
0000
0000
0000
03C0
03C0
03C0
03C0
03C0
03C0
7FFE
7FFE
03C0
03C0
03C0
03C0
03C0
03C0
0000
0000
0000
0000
0000
0000
0000
0000
0000
0000
ENDCHAR
STARTCHAR comma
ENCODING 44
SWIDTH 500 0
DWIDTH 16 0
BBX 16 32 0 -6
BITMAP
0000
0000
0000
0000
0000
0000
0000
0000
0000
0000
0000
0000
0000
0000
0000
0000
0000
0000
0000
0000
03C0
03C0
03C0
03C0
0380
0380
0700
0700
0000
0000
0000
0000
ENDCHAR
STARTCHAR hyphen
ENCODING 45
SWIDTH 500 0
DWIDTH 16 0
BBX 16 32 0 -6
BITMAP
0000
0000
0000
0000
0000
0000
0000
0000
0000
0000
0000
0000
0000
0000
7FFE
7FFE
0000
0000
0000
0000
0000
0000
0000
0000
0000
0000
0000
0000
0000
0000
0000
0000
ENDCHAR
STARTCHAR period
ENCODING 46
SWIDTH 500 0
DWIDTH 16 0
BBX 16 32 0 -6
BITMAP
0000
0000
0000
0000
0000
0000
0000
0000
0000
0000
0000
0000
0000
0000
0000
0000
0000
0000
0000
0000
0000
0000
03C0
03C0
03C0
03C0
0000
0000
0000
0000
0000
0000
ENDCHAR
STARTCHAR slash
ENCODING 47
SWIDTH 500 0
DWIDTH 16 0
BBX 16 32 0 -6
BITMAP
0000
0000
0000
0000
0000
0000
003C
003C
0078
0078
00F0
00F0
01E0
01E0
03C0
03C0
0780
0780
0F00
0F00
1E00
1E00
3C00
3C00
0000
0000
0000
0000
0000
0000
0000
0000
ENDCHAR
STARTCHAR zero
ENCODING 48
SWIDTH 500 0
DWIDTH 16 0
BBX 16 32 0 -6
BITMAP
0000
0000
0000
0000
07E0
07E0
1E78
1E78
3C3C
3C3C
3C7C
3C7C
3CFC
3CFC
3DBC
3DBC
3F3C
3F3C
3E3C
3E3C
3C3C
3C3C
1E78
1E78
07E0
07E0
0000
0000
0000
0000
0000
0000
ENDCHAR
STARTCHAR one
ENCODING 49
SWIDTH 500 0
DWIDTH 16 0
BBX 16 32 0 -6
BITMAP
0000
0000
0000
0000
03C0
03C0
0FC0
0FC0
3FC0
3FC0
03C0
03C0
03C0
03C0
03C0
03C0
03C0
03C0
03C0
03C0
03C0
03C0
03C0
03C0
3FFC
3FFC
0000
0000
0000
0000
0000
0000
ENDCHAR
STARTCHAR two
ENCODING 50
SWIDTH 500 0
DWIDTH 16 0
BBX 16 32 0 -6
BITMAP
0000
0000
0000
0000
0FE0
0FE0
3C78
3C78
003C
003C
003C
003C
0078
0078
00F0
00F0
03C0
03C0
0F00
0F00
1E00
1E00
3C3C
3C3C
3FFC
3FFC
0000
0000
0000
0000
0000
0000
ENDCHAR
STARTCHAR three
ENCODING 51
SWIDTH 500 0
DWIDTH 16 0
BBX 16 32 0 -6
BITMAP
0000
0000
0000
0000
0FF0
0FF0
3C3C
3C3C
001E
001E
001E
001E
003C
003C
03F0
03F0
003C
003C
001E
001E
001E
001E
3C3C
3C3C
0FF0
0FF0
0000
0000
0000
0000
0000
0000
ENDCHAR
STARTCHAR four
ENCODING 52
SWIDTH 500 0
DWIDTH 16 0
BBX 16 32 0 -6
BITMAP
0000
0000
0000
0000
01F0
01F0
03F0
03F0
07F0
07F0
0FF0
0FF0
1EF0
1EF0
3CF0
3CF0
3FFC
3FFC
00F0
00F0
00F0
00F0
00F0
00F0
03FC
03FC
0000
0000
0000
0000
0000
0000
ENDCHAR
STARTCHAR five
ENCODING 53
SWIDTH 500 0
DWIDTH 16 0
BBX 16 32 0 -6
BITMAP
0000
0000
0000
0000
3FFE
3FFE
3C00
3C00
3C00
3C00
3C00
3C00
3FF0
3FF0
003C
003C
001E
001E
001E
001E
001E
001E
3C3C
3C3C
0FF0
0FF0
0000
0000
0000
0000
0000
0000
ENDCHAR
STARTCHAR six
ENCODING 54
SWIDTH 500 0
DWIDTH 16 0
BBX 16 32 0 -6
BITMAP
0000
0000
0000
0000
07F0
07F0
1E00
1E00
3C00
3C00
3C00
3C00
3C00
3C00
3FF0
3FF0
3C3C
3C3C
3C1E
3C1E
3C1E
3C1E
1E3C
1E3C
07F0
07F0
0000
0000
0000
0000
0000
0000
ENDCHAR
STARTCHAR seven
ENCODING 55
SWIDTH 500 0
DWIDTH 16 0
BBX 16 32 0 -6
BITMAP
0000
0000
0000
0000
3FFC
3FFC
3C3C
3C3C
003C
003C
0078
0078
00F0
00F0
01E0
01E0
03C0
03C0
03C0
03C0
03C0
03C0
03C0
03C0
03C0
03C0
0000
0000
0000
0000
0000
0000
ENDCHAR
STARTCHAR eight
ENCODING 56
SWIDTH 500 0
DWIDTH 16 0
BBX 16 32 0 -6
BITMAP
0000
0000
0000
0000
07F0
07F0
1E3C
1E3C
3C1E
3C1E
3C1E
3C1E
1E3C
1E3C
07F0
07F0
1E3C
1E3C
3C1E
3C1E
3C1E
3C1E
1E3C
1E3C
07F0
07F0
0000
0000
0000
0000
0000
0000
ENDCHAR
STARTCHAR nine
ENCODING 57
SWIDTH 500 0
DWIDTH 16 0
BBX 16 32 0 -6
BITMAP
0000
0000
0000
0000
07F0
07F0
1E3C
1E3C
3C1E
3C1E
3C1E
3C1E
1E1E
1E1E
07FE
07FE
001E
001E
001E
001E
001E
001E
003C
003C
0FF0
0FF0
0000
0000
0000
0000
0000
0000
ENDCHAR
STARTCHAR colon
ENCODING 58
SWIDTH 500 0
DWIDTH 16 0
BBX 16 32 0 -6
BITMAP
0000
0000
0000
0000
0000
0000
0000
0000
03C0
03C0
03C0
03C0
0000
0000
0000
0000
0000
0000
0000
0000
03C0
03C0
03C0
03C0
0000
0000
0000
0000
0000
0000
0000
0000
ENDCHAR
STARTCHAR semicolon
ENCODING 59
SWIDTH 500 0
DWIDTH 16 0
BBX 16 32 0 -6
BITMAP
0000
0000
0000
0000
0000
0000
0000
0000
03C0
03C0
03C0
03C0
0000
0000
0000
0000
0000
0000
0000
0000
03C0
03C0
03C0
03C0
0780
0780
0000
0000
0000
0000
0000
0000
ENDCHAR
STARTCHAR less
ENCODING 60
SWIDTH 500 0
DWIDTH 16 0
BBX 16 32 0 -6
BITMAP
0000
0000
0000
0000
01E0
01E0
03C0
03C0
0780
0780
0F00
0F00
1E00
1E00
3C00
3C00
1E00
1E00
0F00
0F00
0780
0780
03C0
03C0
01E0
01E0
0000
0000
0000
0000
0000
0000
ENDCHAR
STARTCHAR equal
ENCODING 61
SWIDTH 500 0
DWIDTH 16 0
BBX 16 32 0 -6
BITMAP
0000
0000
0000
0000
0000
0000
0000
0000
0000
0000
0000
0000
3FFC
3FFC
0000
0000
0000
0000
3FFC
3FFC
0000
0000
0000
0000
0000
0000
0000
0000
0000
0000
0000
0000
ENDCHAR
STARTCHAR greater
ENCODING 62
SWIDTH 500 0
DWIDTH 16 0
BBX 16 32 0 -6
BITMAP
0000
0000
0000
0000
0780
0780
03C0
03C0
01E0
01E0
00F0
00F0
0078
0078
003C
003C
0078
0078
00F0
00F0
01E0
01E0
03C0
03C0
0780
0780
0000
0000
0000
0000
0000
0000
ENDCHAR
STARTCHAR question
ENCODING 63
SWIDTH 500 0
DWIDTH 16 0
BBX 16 32 0 -6
BITMAP
0000
0000
0000
0000
07E0
07E0
1E78
1E78
3C3C
3C3C
0078
0078
00F0
00F0
01E0
01E0
03C0
03C0
03C0
03C0
0000
0000
03C0
03C0
03C0
03C0
0000
0000
0000
0000
0000
0000
ENDCHAR
STARTCHAR at
ENCODING 64
SWIDTH 500 0
DWIDTH 16 0
BBX 16 32 0 -6
BITMAP
0000
0000
0000
0000
0FFC
0FFC
3C1E
3C1E
781E
781E
79FE
79FE
7B8E
7B8E
7B8E
7B8E
7B8E
7B8E
79FC
79FC
7800
7800
3C00
3C00
0FFC
0FFC
0000
0000
0000
0000
0000
0000
ENDCHAR
STARTCHAR A
ENCODING 65
SWIDTH 500 0
DWIDTH 16 0
BBX 16 32 0 -6
BITMAP
0000
0000
0000
0000
03C0
03C0
07E0
07E0
0FF0
0FF0
1E78
1E78
3C3C
3C3C
3C3C
3C3C
3FFC
3FFC
3C3C
3C3C
3C3C
3C3C
3C3C
3C3C
3C3C
3C3C
0000
0000
0000
0000
0000
0000
ENDCHAR
STARTCHAR B
ENCODING 66
SWIDTH 500 0
DWIDTH 16 0
BBX 16 32 0 -6
BITMAP
0000
0000
0000
0000
7FF0
7FF0
1E3C
1E3C
1E1E
1E1E
1E1E
1E1E
1E3C
1E3C
1FF0
1FF0
1E3C
1E3C
1E1E
1E1E
1E1E
1E1E
1E3C
1E3C
7FF0
7FF0
0000
0000
0000
0000
0000
0000
ENDCHAR
STARTCHAR C
ENCODING 67
SWIDTH 500 0
DWIDTH 16 0
BBX 16 32 0 -6
BITMAP
0000
0000
0000
0000
07F0
07F0
1E3C
1E3C
3C1E
3C1E
3C00
3C00
3C00
3C00
3C00
3C00
3C00
3C00
3C00
3C00
3C1E
3C1E
1E3C
1E3C
07F0
07F0
0000
0000
0000
0000
0000
0000
ENDCHAR
STARTCHAR D
ENCODING 68
SWIDTH 500 0
DWIDTH 16 0
BBX 16 32 0 -6
BITMAP
0000
0000
0000
0000
7FF0
7FF0
1E3C
1E3C
1E1E
1E1E
1E1E
1E1E
1E1E
1E1E
1E1E
1E1E
1E1E
1E1E
1E1E
1E1E
1E1E
1E1E
1E3C
1E3C
7FF0
7FF0
0000
0000
0000
0000
0000
0000
ENDCHAR
STARTCHAR E
ENCODING 69
SWIDTH 500 0
DWIDTH 16 0
BBX 16 32 0 -6
BITMAP
0000
0000
0000
0000
7FFE
7FFE
1E0E
1E0E
1E06
1E06
1E00
1E00
1E60
1E60
1FE0
1FE0
1E60
1E60
1E00
1E00
1E06
1E06
1E0E
1E0E
7FFE
7FFE
0000
0000
0000
0000
0000
0000
ENDCHAR
STARTCHAR F
ENCODING 70
SWIDTH 500 0
DWIDTH 16 0
BBX 16 32 0 -6
BITMAP
0000
0000
0000
0000
7FFE
7FFE
1E0E
1E0E
1E06
1E06
1E00
1E00
1E60
1E60
1FE0
1FE0
1E60
1E60
1E00
1E00
1E00
1E00
1E00
1E00
7F80
7F80
0000
0000
0000
0000
0000
0000
ENDCHAR
STARTCHAR G
ENCODING 71
SWIDTH 500 0
DWIDTH 16 0
BBX 16 32 0 -6
BITMAP
0000
0000
0000
0000
07F0
07F0
1E3C
1E3C
3C1E
3C1E
3C00
3C00
3C00
3C00
3C00
3C00
3C7E
3C7E
3C1E
3C1E
3C1E
3C1E
1E3E
1E3E
07F6
07F6
0000
0000
0000
0000
0000
0000
ENDCHAR
STARTCHAR H
ENCODING 72
SWIDTH 500 0
DWIDTH 16 0
BBX 16 32 0 -6
BITMAP
0000
0000
0000
0000
3C1E
3C1E
3C1E
3C1E
3C1E
3C1E
3C1E
3C1E
3C1E
3C1E
3FFE
3FFE
3C1E
3C1E
3C1E
3C1E
3C1E
3C1E
3C1E
3C1E
3C1E
3C1E
0000
0000
0000
0000
0000
0000
ENDCHAR
STARTCHAR I
ENCODING 73
SWIDTH 500 0
DWIDTH 16 0
BBX 16 32 0 -6
BITMAP
0000
0000
0000
0000
0FF0
0FF0
03C0
03C0
03C0
03C0
03C0
03C0
03C0
03C0
03C0
03C0
03C0
03C0
03C0
03C0
03C0
03C0
03C0
03C0
0FF0
0FF0
0000
0000
0000
0000
0000
0000
ENDCHAR
STARTCHAR J
ENCODING 74
SWIDTH 500 0
DWIDTH 16 0
BBX 16 32 0 -6
BITMAP
0000
0000
0000
0000
03FE
03FE
0078
0078
0078
0078
0078
0078
0078
0078
0078
0078
0078
0078
0078
0078
3C78
3C78
1FF0
1FF0
07C0
07C0
0000
0000
0000
0000
0000
0000
ENDCHAR
STARTCHAR K
ENCODING 75
SWIDTH 500 0
DWIDTH 16 0
BBX 16 32 0 -6
BITMAP
0000
0000
0000
0000
7E3C
7E3C
1E78
1E78
1EF0
1EF0
1FE0
1FE0
1FC0
1FC0
1FC0
1FC0
1FE0
1FE0
1EF0
1EF0
1E78
1E78
1E3C
1E3C
7E1E
7E1E
0000
0000
0000
0000
0000
0000
ENDCHAR
STARTCHAR L
ENCODING 76
SWIDTH 500 0
DWIDTH 16 0
BBX 16 32 0 -6
BITMAP
0000
0000
0000
0000
7F80
7F80
1E00
1E00
1E00
1E00
1E00
1E00
1E00
1E00
1E00
1E00
1E00
1E00
1E00
1E00
1E06
1E06
1E0E
1E0E
7FFE
7FFE
0000
0000
0000
0000
0000
0000
ENDCHAR
STARTCHAR M
ENCODING 77
SWIDTH 500 0
DWIDTH 16 0
BBX 16 32 0 -6
BITMAP
0000
0000
0000
0000
781E
781E
7C3E
7C3E
7E7E
7E7E
7FFE
7FFE
7BDE
7BDE
799E
799E
781E
781E
781E
781E
781E
781E
781E
781E
781E
781E
0000
0000
0000
0000
0000
0000
ENDCHAR
STARTCHAR N
ENCODING 78
SWIDTH 500 0
DWIDTH 16 0
BBX 16 32 0 -6
BITMAP
0000
0000
0000
0000
3C1E
3C1E
3C1E
3C1E
3E1E
3E1E
3F1E
3F1E
3F9E
3F9E
3DDE
3DDE
3CFE
3CFE
3C7E
3C7E
3C3E
3C3E
3C1E
3C1E
3C1E
3C1E
0000
0000
0000
0000
0000
0000
ENDCHAR
STARTCHAR O
ENCODING 79
SWIDTH 500 0
DWIDTH 16 0
BBX 16 32 0 -6
BITMAP
0000
0000
0000
0000
07F0
07F0
1E3C
1E3C
3C1E
3C1E
3C1E
3C1E
3C1E
3C1E
3C1E
3C1E
3C1E
3C1E
3C1E
3C1E
3C1E
3C1E
1E3C
1E3C
07F0
07F0
0000
0000
0000
0000
0000
0000
ENDCHAR
STARTCHAR P
ENCODING 80
SWIDTH 500 0
DWIDTH 16 0
BBX 16 32 0 -6
BITMAP
0000
0000
0000
0000
7FF0
7FF0
1E3C
1E3C
1E1E
1E1E
1E1E
1E1E
1E3C
1E3C
1FF0
1FF0
1E00
1E00
1E00
1E00
1E00
1E00
1E00
1E00
7F80
7F80
0000
0000
0000
0000
0000
0000
ENDCHAR
STARTCHAR Q
ENCODING 81
SWIDTH 500 0
DWIDTH 16 0
BBX 16 32 0 -6
BITMAP
0000
0000
0000
0000
07F0
07F0
1E3C
1E3C
3C1E
3C1E
3C1E
3C1E
3C1E
3C1E
3C1E
3C1E
3C1E
3C1E
3DDE
3DDE
3CFE
3CFE
1E7C
1E7C
07F8
07F8
001C
001C
0000
0000
0000
0000
ENDCHAR
STARTCHAR R
ENCODING 82
SWIDTH 500 0
DWIDTH 16 0
BBX 16 32 0 -6
BITMAP
0000
0000
0000
0000
7FF0
7FF0
1E3C
1E3C
1E1E
1E1E
1E1E
1E1E
1E3C
1E3C
1FF0
1FF0
1FE0
1FE0
1EF0
1EF0
1E78
1E78
1E3C
1E3C
7E1E
7E1E
0000
0000
0000
0000
0000
0000
ENDCHAR
STARTCHAR S
ENCODING 83
SWIDTH 500 0
DWIDTH 16 0
BBX 16 32 0 -6
BITMAP
0000
0000
0000
0000
0FF0
0FF0
3C3C
3C3C
781E
781E
3C00
3C00
0F00
0F00
03C0
03C0
00F0
00F0
003C
003C
781E
781E
3C3C
3C3C
0FF0
0FF0
0000
0000
0000
0000
0000
0000
ENDCHAR
STARTCHAR T
ENCODING 84
SWIDTH 500 0
DWIDTH 16 0
BBX 16 32 0 -6
BITMAP
0000
0000
0000
0000
7FFE
7FFE
73CE
73CE
63C6
63C6
03C0
03C0
03C0
03C0
03C0
03C0
03C0
03C0
03C0
03C0
03C0
03C0
03C0
03C0
0FF0
0FF0
0000
0000
0000
0000
0000
0000
ENDCHAR
STARTCHAR U
ENCODING 85
SWIDTH 500 0
DWIDTH 16 0
BBX 16 32 0 -6
BITMAP
0000
0000
0000
0000
3C1E
3C1E
3C1E
3C1E
3C1E
3C1E
3C1E
3C1E
3C1E
3C1E
3C1E
3C1E
3C1E
3C1E
3C1E
3C1E
3C1E
3C1E
1E3C
1E3C
07F0
07F0
0000
0000
0000
0000
0000
0000
ENDCHAR
STARTCHAR V
ENCODING 86
SWIDTH 500 0
DWIDTH 16 0
BBX 16 32 0 -6
BITMAP
0000
0000
0000
0000
3C3C
3C3C
3C3C
3C3C
3C3C
3C3C
3C3C
3C3C
3C3C
3C3C
3C3C
3C3C
3C3C
3C3C
1E78
1E78
0FF0
0FF0
07E0
07E0
03C0
03C0
0000
0000
0000
0000
0000
0000
ENDCHAR
STARTCHAR W
ENCODING 87
SWIDTH 500 0
DWIDTH 16 0
BBX 16 32 0 -6
BITMAP
0000
0000
0000
0000
781E
781E
781E
781E
781E
781E
781E
781E
781E
781E
781E
781E
799E
799E
7BDE
7BDE
7FFE
7FFE
3E7C
3E7C
1C38
1C38
0000
0000
0000
0000
0000
0000
ENDCHAR
STARTCHAR X
ENCODING 88
SWIDTH 500 0
DWIDTH 16 0
BBX 16 32 0 -6
BITMAP
0000
0000
0000
0000
3C3C
3C3C
3C3C
3C3C
1E78
1E78
0FF0
0FF0
07E0
07E0
03C0
03C0
07E0
07E0
0FF0
0FF0
1E78
1E78
3C3C
3C3C
3C3C
3C3C
0000
0000
0000
0000
0000
0000
ENDCHAR
STARTCHAR Y
ENCODING 89
SWIDTH 500 0
DWIDTH 16 0
BBX 16 32 0 -6
BITMAP
0000
0000
0000
0000
3C3C
3C3C
3C3C
3C3C
3C3C
3C3C
3C3C
3C3C
1E78
1E78
0FF0
0FF0
07E0
07E0
03C0
03C0
03C0
03C0
03C0
03C0
0FF0
0FF0
0000
0000
0000
0000
0000
0000
ENDCHAR
STARTCHAR Z
ENCODING 90
SWIDTH 500 0
DWIDTH 16 0
BBX 16 32 0 -6
BITMAP
0000
0000
0000
0000
3FFC
3FFC
383C
383C
3078
3078
00F0
00F0
01E0
01E0
03C0
03C0
0780
0780
0F00
0F00
1E0C
1E0C
3C1C
3C1C
3FFC
3FFC
0000
0000
0000
0000
0000
0000
ENDCHAR
STARTCHAR bracketleft
ENCODING 91
SWIDTH 500 0
DWIDTH 16 0
BBX 16 32 0 -6
BITMAP
0000
0000
0000
0000
0FF0
0FF0
0F00
0F00
0F00
0F00
0F00
0F00
0F00
0F00
0F00
0F00
0F00
0F00
0F00
0F00
0F00
0F00
0F00
0F00
0FF0
0FF0
0000
0000
0000
0000
0000
0000
ENDCHAR
STARTCHAR backslash
ENCODING 92
SWIDTH 500 0
DWIDTH 16 0
BBX 16 32 0 -6
BITMAP
0000
0000
0000
0000
0000
0000
3C00
3C00
1E00
1E00
0F00
0F00
0780
0780
03C0
03C0
01E0
01E0
00F0
00F0
0078
0078
003C
003C
0000
0000
0000
0000
0000
0000
0000
0000
ENDCHAR
STARTCHAR bracketright
ENCODING 93
SWIDTH 500 0
DWIDTH 16 0
BBX 16 32 0 -6
BITMAP
0000
0000
0000
0000
0FF0
0FF0
00F0
00F0
00F0
00F0
00F0
00F0
00F0
00F0
00F0
00F0
00F0
00F0
00F0
00F0
00F0
00F0
00F0
00F0
0FF0
0FF0
0000
0000
0000
0000
0000
0000
ENDCHAR
STARTCHAR asciicircum
ENCODING 94
SWIDTH 500 0
DWIDTH 16 0
BBX 16 32 0 -6
BITMAP
03C0
03C0
07E0
07E0
0FF0
0FF0
1E78
1E78
3C3C
3C3C
0000
0000
0000
0000
0000
0000
0000
0000
0000
0000
0000
0000
0000
0000
0000
0000
0000
0000
0000
0000
0000
0000
ENDCHAR
STARTCHAR underscore
ENCODING 95
SWIDTH 500 0
DWIDTH 16 0
BBX 16 32 0 -6
BITMAP
0000
0000
0000
0000
0000
0000
0000
0000
0000
0000
0000
0000
0000
0000
0000
0000
0000
0000
0000
0000
0000
0000
0000
0000
0000
0000
0000
0000
7FFF
7FFF
0000
0000
ENDCHAR
STARTCHAR grave
ENCODING 96
SWIDTH 500 0
DWIDTH 16 0
BBX 16 32 0 -6
BITMAP
03C0
03C0
03C0
03C0
01E0
01E0
0000
0000
0000
0000
0000
0000
0000
0000
0000
0000
0000
0000
0000
0000
0000
0000
0000
0000
0000
0000
0000
0000
0000
0000
0000
0000
ENDCHAR
STARTCHAR a
ENCODING 97
SWIDTH 500 0
DWIDTH 16 0
BBX 16 32 0 -6
BITMAP
0000
0000
0000
0000
0000
0000
0000
0000
0000
0000
0000
0000
0FE0
0FE0
0078
0078
0FF8
0FF8
3C78
3C78
3C78
3C78
3C78
3C78
0F9E
0F9E
0000
0000
0000
0000
0000
0000
ENDCHAR
STARTCHAR b
ENCODING 98
SWIDTH 500 0
DWIDTH 16 0
BBX 16 32 0 -6
BITMAP
0000
0000
0000
0000
3F00
3F00
0F00
0F00
0F00
0F00
0F00
0F00
0FF0
0FF0
0F3C
0F3C
0F1E
0F1E
0F1E
0F1E
0F1E
0F1E
0F1E
0F1E
3CF8
3CF8
0000
0000
0000
0000
0000
0000
ENDCHAR
STARTCHAR c
ENCODING 99
SWIDTH 500 0
DWIDTH 16 0
BBX 16 32 0 -6
BITMAP
0000
0000
0000
0000
0000
0000
0000
0000
0000
0000
0000
0000
0FF8
0FF8
3C1E
3C1E
3C00
3C00
3C00
3C00
3C00
3C00
3C1E
3C1E
0FF8
0FF8
0000
0000
0000
0000
0000
0000
ENDCHAR
STARTCHAR d
ENCODING 100
SWIDTH 500 0
DWIDTH 16 0
BBX 16 32 0 -6
BITMAP
0000
0000
0000
0000
01F8
01F8
0078
0078
0078
0078
0078
0078
07F8
07F8
1E78
1E78
3C78
3C78
3C78
3C78
3C78
3C78
3C78
3C78
0F9E
0F9E
0000
0000
0000
0000
0000
0000
ENDCHAR
STARTCHAR e
ENCODING 101
SWIDTH 500 0
DWIDTH 16 0
BBX 16 32 0 -6
BITMAP
0000
0000
0000
0000
0000
0000
0000
0000
0000
0000
0000
0000
0FF8
0FF8
3C1E
3C1E
3C1E
3C1E
3FFE
3FFE
3C00
3C00
3C1E
3C1E
0FF8
0FF8
0000
0000
0000
0000
0000
0000
ENDCHAR
STARTCHAR f
ENCODING 102
SWIDTH 500 0
DWIDTH 16 0
BBX 16 32 0 -6
BITMAP
0000
0000
0000
0000
03F0
03F0
0F3C
0F3C
0F0C
0F0C
0F00
0F00
0F00
0F00
3FF0
3FF0
0F00
0F00
0F00
0F00
0F00
0F00
0F00
0F00
3FC0
3FC0
0000
0000
0000
0000
0000
0000
ENDCHAR
STARTCHAR g
ENCODING 103
SWIDTH 500 0
DWIDTH 16 0
BBX 16 32 0 -6
BITMAP
0000
0000
0000
0000
0000
0000
0000
0000
0000
0000
0000
0000
0F9E
0F9E
3C78
3C78
3C78
3C78
3C78
3C78
3C78
3C78
0FF8
0FF8
0078
0078
3C78
3C78
0FE0
0FE0
0000
0000
ENDCHAR
STARTCHAR h
ENCODING 104
SWIDTH 500 0
DWIDTH 16 0
BBX 16 32 0 -6
BITMAP
0000
0000
0000
0000
3F00
3F00
0F00
0F00
0F00
0F00
0F00
0F00
0F78
0F78
0F9E
0F9E
0F1E
0F1E
0F1E
0F1E
0F1E
0F1E
0F1E
0F1E
3F1E
3F1E
0000
0000
0000
0000
0000
0000
ENDCHAR
STARTCHAR i
ENCODING 105
SWIDTH 500 0
DWIDTH 16 0
BBX 16 32 0 -6
BITMAP
0000
0000
0000
0000
0000
0000
00F0
00F0
00F0
00F0
0000
0000
03F0
03F0
00F0
00F0
00F0
00F0
00F0
00F0
00F0
00F0
00F0
00F0
03FC
03FC
0000
0000
0000
0000
0000
0000
ENDCHAR
STARTCHAR j
ENCODING 106
SWIDTH 500 0
DWIDTH 16 0
BBX 16 32 0 -6
BITMAP
0000
0000
0000
0000
0000
0000
003C
003C
003C
003C
0000
0000
00FC
00FC
003C
003C
003C
003C
003C
003C
003C
003C
003C
003C
3C3C
3C3C
1E78
1E78
07E0
07E0
0000
0000
ENDCHAR
STARTCHAR k
ENCODING 107
SWIDTH 500 0
DWIDTH 16 0
BBX 16 32 0 -6
BITMAP
0000
0000
0000
0000
3F00
3F00
0F00
0F00
0F00
0F00
0F00
0F00
0F1E
0F1E
0F3C
0F3C
0F78
0F78
0FF0
0FF0
0F78
0F78
0F3C
0F3C
3F1E
3F1E
0000
0000
0000
0000
0000
0000
ENDCHAR
STARTCHAR l
ENCODING 108
SWIDTH 500 0
DWIDTH 16 0
BBX 16 32 0 -6
BITMAP
0000
0000
0000
0000
03F0
03F0
00F0
00F0
00F0
00F0
00F0
00F0
00F0
00F0
00F0
00F0
00F0
00F0
00F0
00F0
00F0
00F0
00F0
00F0
03FC
03FC
0000
0000
0000
0000
0000
0000
ENDCHAR
STARTCHAR m
ENCODING 109
SWIDTH 500 0
DWIDTH 16 0
BBX 16 32 0 -6
BITMAP
0000
0000
0000
0000
0000
0000
0000
0000
0000
0000
0000
0000
7E7C
7E7C
7FFE
7FFE
7BDE
7BDE
7BDE
7BDE
7BDE
7BDE
7BDE
7BDE
7BDE
7BDE
0000
0000
0000
0000
0000
0000
ENDCHAR
STARTCHAR n
ENCODING 110
SWIDTH 500 0
DWIDTH 16 0
BBX 16 32 0 -6
BITMAP
0000
0000
0000
0000
0000
0000
0000
0000
0000
0000
0000
0000
3CF8
3CF8
0F3C
0F3C
0F1E
0F1E
0F1E
0F1E
0F1E
0F1E
0F1E
0F1E
0F1E
0F1E
0000
0000
0000
0000
0000
0000
ENDCHAR
STARTCHAR o
ENCODING 111
SWIDTH 500 0
DWIDTH 16 0
BBX 16 32 0 -6
BITMAP
0000
0000
0000
0000
0000
0000
0000
0000
0000
0000
0000
0000
07F0
07F0
1E3C
1E3C
3C1E
3C1E
3C1E
3C1E
3C1E
3C1E
1E3C
1E3C
07F0
07F0
0000
0000
0000
0000
0000
0000
ENDCHAR
STARTCHAR p
ENCODING 112
SWIDTH 500 0
DWIDTH 16 0
BBX 16 32 0 -6
BITMAP
0000
0000
0000
0000
0000
0000
0000
0000
0000
0000
0000
0000
3CF0
3CF0
0F3C
0F3C
0F1E
0F1E
0F1E
0F1E
0F3C
0F3C
0FF0
0FF0
0F00
0F00
0F00
0F00
3FC0
3FC0
0000
0000
ENDCHAR
STARTCHAR q
ENCODING 113
SWIDTH 500 0
DWIDTH 16 0
BBX 16 32 0 -6
BITMAP
0000
0000
0000
0000
0000
0000
0000
0000
0000
0000
0000
0000
079E
079E
1E78
1E78
3C78
3C78
3C78
3C78
1E78
1E78
07F8
07F8
0078
0078
0078
0078
00FE
00FE
0000
0000
ENDCHAR
STARTCHAR r
ENCODING 114
SWIDTH 500 0
DWIDTH 16 0
BBX 16 32 0 -6
BITMAP
0000
0000
0000
0000
0000
0000
0000
0000
0000
0000
0000
0000
3CF8
3CF8
0F9E
0F9E
0F00
0F00
0F00
0F00
0F00
0F00
0F00
0F00
3FC0
3FC0
0000
0000
0000
0000
0000
0000
ENDCHAR
STARTCHAR s
ENCODING 115
SWIDTH 500 0
DWIDTH 16 0
BBX 16 32 0 -6
BITMAP
0000
0000
0000
0000
0000
0000
0000
0000
0000
0000
0000
0000
0FF8
0FF8
3C1E
3C1E
3C00
3C00
0FF8
0FF8
001E
001E
3C1E
3C1E
0FF8
0FF8
0000
0000
0000
0000
0000
0000
ENDCHAR
STARTCHAR t
ENCODING 116
SWIDTH 500 0
DWIDTH 16 0
BBX 16 32 0 -6
BITMAP
0000
0000
0000
0000
0180
0180
0380
0380
0780
0780
0780
0780
7FF8
7FF8
0780
0780
0780
0780
0780
0780
0780
0780
079E
079E
01F8
01F8
0000
0000
0000
0000
0000
0000
ENDCHAR
STARTCHAR u
ENCODING 117
SWIDTH 500 0
DWIDTH 16 0
BBX 16 32 0 -6
BITMAP
0000
0000
0000
0000
0000
0000
0000
0000
0000
0000
0000
0000
3C78
3C78
3C78
3C78
3C78
3C78
3C78
3C78
3C78
3C78
3C78
3C78
0F9E
0F9E
0000
0000
0000
0000
0000
0000
ENDCHAR
STARTCHAR v
ENCODING 118
SWIDTH 500 0
DWIDTH 16 0
BBX 16 32 0 -6
BITMAP
0000
0000
0000
0000
0000
0000
0000
0000
0000
0000
0000
0000
781E
781E
781E
781E
781E
781E
781E
781E
1E78
1E78
07E0
07E0
0180
0180
0000
0000
0000
0000
0000
0000
ENDCHAR
STARTCHAR w
ENCODING 119
SWIDTH 500 0
DWIDTH 16 0
BBX 16 32 0 -6
BITMAP
0000
0000
0000
0000
0000
0000
0000
0000
0000
0000
0000
0000
781E
781E
781E
781E
781E
781E
799E
799E
7BDE
7BDE
3FFC
3FFC
1E78
1E78
0000
0000
0000
0000
0000
0000
ENDCHAR
STARTCHAR x
ENCODING 120
SWIDTH 500 0
DWIDTH 16 0
BBX 16 32 0 -6
BITMAP
0000
0000
0000
0000
0000
0000
0000
0000
0000
0000
0000
0000
3C3C
3C3C
0E70
0E70
07E0
07E0
03C0
03C0
07E0
07E0
0E70
0E70
3C3C
3C3C
0000
0000
0000
0000
0000
0000
ENDCHAR
STARTCHAR y
ENCODING 121
SWIDTH 500 0
DWIDTH 16 0
BBX 16 32 0 -6
BITMAP
0000
0000
0000
0000
0000
0000
0000
0000
0000
0000
0000
0000
3C1E
3C1E
3C1E
3C1E
3C1E
3C1E
3C1E
3C1E
1E1E
1E1E
07FE
07FE
001E
001E
003C
003C
0FF0
0FF0
0000
0000
ENDCHAR
STARTCHAR z
ENCODING 122
SWIDTH 500 0
DWIDTH 16 0
BBX 16 32 0 -6
BITMAP
0000
0000
0000
0000
0000
0000
0000
0000
0000
0000
0000
0000
3FFC
3FFC
3C3C
3C3C
00F0
00F0
03C0
03C0
0F00
0F00
3C3C
3C3C
3FFC
3FFC
0000
0000
0000
0000
0000
0000
ENDCHAR
STARTCHAR braceleft
ENCODING 123
SWIDTH 500 0
DWIDTH 16 0
BBX 16 32 0 -6
BITMAP
0000
0000
0000
0000
00FC
00FC
01E0
01E0
03C0
03C0
03C0
03C0
03C0
03C0
3F80
3F80
03C0
03C0
03C0
03C0
03C0
03C0
01E0
01E0
00FC
00FC
0000
0000
0000
0000
0000
0000
ENDCHAR
STARTCHAR bar
ENCODING 124
SWIDTH 500 0
DWIDTH 16 0
BBX 16 32 0 -6
BITMAP
0000
0000
0000
0000
03C0
03C0
03C0
03C0
03C0
03C0
03C0
03C0
03C0
03C0
0000
0000
03C0
03C0
03C0
03C0
03C0
03C0
03C0
03C0
03C0
03C0
0000
0000
0000
0000
0000
0000
ENDCHAR
STARTCHAR braceright
ENCODING 125
SWIDTH 500 0
DWIDTH 16 0
BBX 16 32 0 -6
BITMAP
0000
0000
0000
0000
3F00
3F00
0780
0780
03C0
03C0
03C0
03C0
03C0
03C0
01FC
01FC
03C0
03C0
03C0
03C0
03C0
03C0
0780
0780
3F00
3F00
0000
0000
0000
0000
0000
0000
ENDCHAR
STARTCHAR asciitilde
ENCODING 126
SWIDTH 500 0
DWIDTH 16 0
BBX 16 32 0 -6
BITMAP
0000
0000
0000
0000
0F9E
0F9E
3CF8
3CF8
0000
0000
0000
0000
0000
0000
0000
0000
0000
0000
0000
0000
0000
0000
0000
0000
0000
0000
0000
0000
0000
0000
0000
0000
ENDCHAR
STARTCHAR uni007F
ENCODING 127
SWIDTH 500 0
DWIDTH 16 0
BBX 16 32 0 -6
BITMAP
0000
0000
0000
0000
0000
0000
0000
0000
00C0
00C0
03F0
03F0
0F3C
0F3C
3C0F
3C0F
3C0F
3C0F
3FFF
3FFF
0000
0000
0000
0000
0000
0000
0000
0000
0000
0000
0000
0000
ENDCHAR
STARTCHAR uni00A0
ENCODING 160
SWIDTH 500 0
DWIDTH 16 0
BBX 16 32 0 -6
BITMAP
0000
0000
0000
0000
0000
0000
0000
0000
0000
0000
0000
0000
0000
0000
0000
0000
0000
0000
0000
0000
0000
0000
0000
0000
0000
0000
0000
0000
0000
0000
0000
0000
ENDCHAR
STARTCHAR exclamdown
ENCODING 161
SWIDTH 500 0
DWIDTH 16 0
BBX 16 32 0 -6
BITMAP
0000
0000
0000
0000
03C0
03C0
03C0
03C0
0000
0000
03C0
03C0
03C0
03C0
07E0
07E0
0FF0
0FF0
0FF0
0FF0
0FF0
0FF0
07E0
07E0
03C0
03C0
0000
0000
0000
0000
0000
0000
ENDCHAR
STARTCHAR cent
ENCODING 162
SWIDTH 500 0
DWIDTH 16 0
BBX 16 32 0 -6
BITMAP
0000
0000
0000
0000
03C0
03C0
03C0
03C0
1FF8
1FF8
781E
781E
7800
7800
7800
7800
7800
7800
781E
781E
1FF8
1FF8
03C0
03C0
03C0
03C0
0000
0000
0000
0000
0000
0000
ENDCHAR
STARTCHAR sterling
ENCODING 163
SWIDTH 500 0
DWIDTH 16 0
BBX 16 32 0 -6
BITMAP
0000
0000
0000
0000
03F0
03F0
0F3C
0F3C
0F0C
0F0C
0F00
0F00
3FC0
3FC0
0F00
0F00
0F00
0F00
0F00
0F00
0F00
0F00
3F0F
3F0F
3FFC
3FFC
0000
0000
0000
0000
0000
0000
ENDCHAR
STARTCHAR yen
ENCODING 165
SWIDTH 500 0
DWIDTH 16 0
BBX 16 32 0 -6
BITMAP
0000
0000
0000
0000
781E
781E
1E78
1E78
07E0
07E0
03C0
03C0
03C0
03C0
7FFE
7FFE
03C0
03C0
7FFE
7FFE
03C0
03C0
03C0
03C0
03C0
03C0
0000
0000
0000
0000
0000
0000
ENDCHAR
STARTCHAR section
ENCODING 167
SWIDTH 500 0
DWIDTH 16 0
BBX 16 32 0 -6
BITMAP
0000
0000
0FFC
0FFC
3C0F
3C0F
0F00
0F00
03F0
03F0
0F3C
0F3C
3C0F
3C0F
3C0F
3C0F
0F3C
0F3C
03F0
03F0
003C
003C
3C0F
3C0F
0FFC
0FFC
0000
0000
0000
0000
0000
0000
ENDCHAR
STARTCHAR ordfeminine
ENCODING 170
SWIDTH 500 0
DWIDTH 16 0
BBX 16 32 0 -6
BITMAP
0000
0000
0000
0000
0FF0
0FF0
3CF0
3CF0
3CF0
3CF0
0FFC
0FFC
0000
0000
3FFC
3FFC
0000
0000
0000
0000
0000
0000
0000
0000
0000
0000
0000
0000
0000
0000
0000
0000
ENDCHAR
STARTCHAR guillemotleft
ENCODING 171
SWIDTH 500 0
DWIDTH 16 0
BBX 16 32 0 -6
BITMAP
0000
0000
0000
0000
0000
0000
0000
0000
0000
0000
03CF
03CF
0F3C
0F3C
3CF0
3CF0
0F3C
0F3C
03CF
03CF
0000
0000
0000
0000
0000
0000
0000
0000
0000
0000
0000
0000
ENDCHAR
STARTCHAR logicalnot
ENCODING 172
SWIDTH 500 0
DWIDTH 16 0
BBX 16 32 0 -6
BITMAP
0000
0000
0000
0000
0000
0000
0000
0000
0000
0000
0000
0000
0000
0000
3FFF
3FFF
000F
000F
000F
000F
000F
000F
0000
0000
0000
0000
0000
0000
0000
0000
0000
0000
ENDCHAR
STARTCHAR degree
ENCODING 176
SWIDTH 500 0
DWIDTH 16 0
BBX 16 32 0 -6
BITMAP
0000
0000
0FC0
0FC0
3CF0
3CF0
3CF0
3CF0
0FC0
0FC0
0000
0000
0000
0000
0000
0000
0000
0000
0000
0000
0000
0000
0000
0000
0000
0000
0000
0000
0000
0000
0000
0000
ENDCHAR
STARTCHAR plusminus
ENCODING 177
SWIDTH 500 0
DWIDTH 16 0
BBX 16 32 0 -6
BITMAP
0000
0000
0000
0000
0000
0000
03C0
03C0
03C0
03C0
03C0
03C0
7FFE
7FFE
03C0
03C0
03C0
03C0
03C0
03C0
0000
0000
7FFE
7FFE
0000
0000
0000
0000
0000
0000
0000
0000
ENDCHAR
STARTCHAR uni00B2
ENCODING 178
SWIDTH 500 0
DWIDTH 16 0
BBX 16 32 0 -6
BITMAP
0000
0000
3F00
3F00
F3C0
F3C0
03C0
03C0
0F00
0F00
3C00
3C00
F0C0
F0C0
FFC0
FFC0
0000
0000
0000
0000
0000
0000
0000
0000
0000
0000
0000
0000
0000
0000
0000
0000
ENDCHAR
STARTCHAR mu
ENCODING 181
SWIDTH 500 0
DWIDTH 16 0
BBX 16 32 0 -6
BITMAP
0000
0000
0000
0000
0000
0000
0000
0000
0000
0000
0F1E
0F1E
0F1E
0F1E
0F1E
0F1E
0F1E
0F1E
0F1E
0F1E
0FF8
0FF8
0F00
0F00
0F00
0F00
3C00
3C00
0000
0000
0000
0000
ENDCHAR
STARTCHAR paragraph
ENCODING 182
SWIDTH 500 0
DWIDTH 16 0
BBX 16 32 0 -6
BITMAP
0000
0000
0000
0000
3FFF
3FFF
F3CF
F3CF
F3CF
F3CF
F3CF
F3CF
F3CF
F3CF
3FCF
3FCF
03CF
03CF
03CF
03CF
03CF
03CF
03CF
03CF
03CF
03CF
0000
0000
0000
0000
0000
0000
ENDCHAR
STARTCHAR periodcentered
ENCODING 183
SWIDTH 500 0
DWIDTH 16 0
BBX 16 32 0 -6
BITMAP
0000
0000
0000
0000
0000
0000
0000
0000
0000
0000
0000
0000
0000
0000
0000
0000
03C0
03C0
0000
0000
0000
0000
0000
0000
0000
0000
0000
0000
0000
0000
0000
0000
ENDCHAR
STARTCHAR ordmasculine
ENCODING 186
SWIDTH 500 0
DWIDTH 16 0
BBX 16 32 0 -6
BITMAP
0000
0000
0000
0000
0FC0
0FC0
3CF0
3CF0
3CF0
3CF0
0FC0
0FC0
0000
0000
3FF0
3FF0
0000
0000
0000
0000
0000
0000
0000
0000
0000
0000
0000
0000
0000
0000
0000
0000
ENDCHAR
STARTCHAR guillemotright
ENCODING 187
SWIDTH 500 0
DWIDTH 16 0
BBX 16 32 0 -6
BITMAP
0000
0000
0000
0000
0000
0000
0000
0000
0000
0000
3CF0
3CF0
0F3C
0F3C
03CF
03CF
0F3C
0F3C
3CF0
3CF0
0000
0000
0000
0000
0000
0000
0000
0000
0000
0000
0000
0000
ENDCHAR
STARTCHAR onequarter
ENCODING 188
SWIDTH 500 0
DWIDTH 16 0
BBX 16 32 0 -6
BITMAP
0000
0000
0000
0000
3C00
3C00
FC00
FC00
3C0F
3C0F
3C3C
3C3C
3CF0
3CF0
03C0
03C0
0F0F
0F0F
3C3F
3C3F
F0E7
F0E7
03FF
03FF
000F
000F
000F
000F
0000
0000
0000
0000
ENDCHAR
STARTCHAR onehalf
ENCODING 189
SWIDTH 500 0
DWIDTH 16 0
BBX 16 32 0 -6
BITMAP
0000
0000
0000
0000
3C00
3C00
FC00
FC00
3C0F
3C0F
3C3C
3C3C
3CF0
3CF0
03C0
03C0
0F00
0F00
3CFC
3CFC
F00F
F00F
003C
003C
00F0
00F0
03FF
03FF
0000
0000
0000
0000
ENDCHAR
STARTCHAR questiondown
ENCODING 191
SWIDTH 500 0
DWIDTH 16 0
BBX 16 32 0 -6
BITMAP
0000
0000
0000
0000
03C0
03C0
03C0
03C0
0000
0000
03C0
03C0
03C0
03C0
03C0
03C0
0780
0780
1E00
1E00
3C1E
3C1E
1E3C
1E3C
07F0
07F0
0000
0000
0000
0000
0000
0000
ENDCHAR
STARTCHAR Adieresis
ENCODING 196
SWIDTH 500 0
DWIDTH 16 0
BBX 16 32 0 -6
BITMAP
0000
0000
3C0F
3C0F
3C0F
3C0F
00C0
00C0
03F0
03F0
0F3C
0F3C
3C0F
3C0F
3C0F
3C0F
3C0F
3C0F
3FFF
3FFF
3C0F
3C0F
3C0F
3C0F
3C0F
3C0F
0000
0000
0000
0000
0000
0000
ENDCHAR
STARTCHAR Aring
ENCODING 197
SWIDTH 500 0
DWIDTH 16 0
BBX 16 32 0 -6
BITMAP
03F0
03F0
0F3C
0F3C
03F0
03F0
0000
0000
03F0
03F0
0F3C
0F3C
3C0F
3C0F
3C0F
3C0F
3C0F
3C0F
3FFF
3FFF
3C0F
3C0F
3C0F
3C0F
3C0F
3C0F
0000
0000
0000
0000
0000
0000
ENDCHAR
STARTCHAR AE
ENCODING 198
SWIDTH 500 0
DWIDTH 16 0
BBX 16 32 0 -6
BITMAP
0000
0000
0000
0000
03FF
03FF
0F3C
0F3C
3C3C
3C3C
3C3C
3C3C
3C3C
3C3C
3FFF
3FFF
3C3C
3C3C
3C3C
3C3C
3C3C
3C3C
3C3C
3C3C
3C3F
3C3F
0000
0000
0000
0000
0000
0000
ENDCHAR
STARTCHAR Ccedilla
ENCODING 199
SWIDTH 500 0
DWIDTH 16 0
BBX 16 32 0 -6
BITMAP
0000
0000
0000
0000
07F8
07F8
1E1E
1E1E
3C06
3C06
3C00
3C00
3C00
3C00
3C00
3C00
3C00
3C00
3C06
3C06
1E1E
1E1E
07F8
07F8
0078
0078
001E
001E
0FF8
0FF8
0000
0000
ENDCHAR
STARTCHAR Eacute
ENCODING 201
SWIDTH 500 0
DWIDTH 16 0
BBX 16 32 0 -6
BITMAP
00F0
00F0
03C0
03C0
0F00
0F00
0000
0000
3FFF
3FFF
0F0F
0F0F
0F00
0F00
0F00
0F00
0FFC
0FFC
0F00
0F00
0F00
0F00
0F0F
0F0F
3FFF
3FFF
0000
0000
0000
0000
0000
0000
ENDCHAR
STARTCHAR Ntilde
ENCODING 209
SWIDTH 500 0
DWIDTH 16 0
BBX 16 32 0 -6
BITMAP
0000
0000
1F9E
1F9E
79F8
79F8
0000
0000
781E
781E
781E
781E
7E1E
7E1E
7F9E
7F9E
7FFE
7FFE
79FE
79FE
787E
787E
781E
781E
781E
781E
0000
0000
0000
0000
0000
0000
ENDCHAR
STARTCHAR Odieresis
ENCODING 214
SWIDTH 500 0
DWIDTH 16 0
BBX 16 32 0 -6
BITMAP
0000
0000
3C1E
3C1E
3C1E
3C1E
0000
0000
07F0
07F0
1E3C
1E3C
3C1E
3C1E
3C1E
3C1E
3C1E
3C1E
3C1E
3C1E
3C1E
3C1E
1E3C
1E3C
07F0
07F0
0000
0000
0000
0000
0000
0000
ENDCHAR
STARTCHAR Udieresis
ENCODING 220
SWIDTH 500 0
DWIDTH 16 0
BBX 16 32 0 -6
BITMAP
0000
0000
3C1E
3C1E
3C1E
3C1E
0000
0000
3C1E
3C1E
3C1E
3C1E
3C1E
3C1E
3C1E
3C1E
3C1E
3C1E
3C1E
3C1E
3C1E
3C1E
1E3C
1E3C
07F0
07F0
0000
0000
0000
0000
0000
0000
ENDCHAR
STARTCHAR germandbls
ENCODING 223
SWIDTH 500 0
DWIDTH 16 0
BBX 16 32 0 -6
BITMAP
0000
0000
0000
0000
0000
0000
0000
0000
0FF8
0FF8
3C1E
3C1E
3C1E
3C1E
3FF8
3FF8
3C1E
3C1E
3C1E
3C1E
3FF8
3FF8
3C00
3C00
3C00
3C00
0C00
0C00
0000
0000
0000
0000
ENDCHAR
STARTCHAR agrave
ENCODING 224
SWIDTH 500 0
DWIDTH 16 0
BBX 16 32 0 -6
BITMAP
0000
0000
0000
0000
0F00
0F00
03C0
03C0
00F0
00F0
0000
0000
0FF0
0FF0
003C
003C
0FFC
0FFC
3C3C
3C3C
3C3C
3C3C
3C3C
3C3C
0FCF
0FCF
0000
0000
0000
0000
0000
0000
ENDCHAR
STARTCHAR aacute
ENCODING 225
SWIDTH 500 0
DWIDTH 16 0
BBX 16 32 0 -6
BITMAP
0000
0000
0000
0000
00F0
00F0
03C0
03C0
0F00
0F00
0000
0000
0FF0
0FF0
003C
003C
0FFC
0FFC
3C3C
3C3C
3C3C
3C3C
3C3C
3C3C
0FCF
0FCF
0000
0000
0000
0000
0000
0000
ENDCHAR
STARTCHAR acircumflex
ENCODING 226
SWIDTH 500 0
DWIDTH 16 0
BBX 16 32 0 -6
BITMAP
0000
0000
0000
0000
00C0
00C0
03F0
03F0
0F3C
0F3C
0000
0000
0FF0
0FF0
003C
003C
0FFC
0FFC
3C3C
3C3C
3C3C
3C3C
3C3C
3C3C
0FCF
0FCF
0000
0000
0000
0000
0000
0000
ENDCHAR
STARTCHAR adieresis
ENCODING 228
SWIDTH 500 0
DWIDTH 16 0
BBX 16 32 0 -6
BITMAP
0000
0000
0000
0000
0000
0000
3C3C
3C3C
3C3C
3C3C
0000
0000
0FF0
0FF0
003C
003C
0FFC
0FFC
3C3C
3C3C
3C3C
3C3C
3C3C
3C3C
0FCF
0FCF
0000
0000
0000
0000
0000
0000
ENDCHAR
STARTCHAR aring
ENCODING 229
SWIDTH 500 0
DWIDTH 16 0
BBX 16 32 0 -6
BITMAP
0000
0000
0000
0000
03F0
03F0
0F3C
0F3C
03F0
03F0
0000
0000
0FF0
0FF0
003C
003C
0FFC
0FFC
3C3C
3C3C
3C3C
3C3C
3C3C
3C3C
0FCF
0FCF
0000
0000
0000
0000
0000
0000
ENDCHAR
STARTCHAR ae
ENCODING 230
SWIDTH 500 0
DWIDTH 16 0
BBX 16 32 0 -6
BITMAP
0000
0000
0000
0000
0000
0000
0000
0000
0000
0000
0000
0000
3FFE
3FFE
03CF
03CF
03CF
03CF
7FFE
7FFE
F3C0
F3C0
F3C0
F3C0
7FFF
7FFF
0000
0000
0000
0000
0000
0000
ENDCHAR
STARTCHAR ccedilla
ENCODING 231
SWIDTH 500 0
DWIDTH 16 0
BBX 16 32 0 -6
BITMAP
0000
0000
0000
0000
0000
0000
0000
0000
0000
0000
0FF0
0FF0
3C3C
3C3C
3C00
3C00
3C00
3C00
3C3C
3C3C
0FF0
0FF0
00F0
00F0
003C
003C
0FF0
0FF0
0000
0000
0000
0000
ENDCHAR
STARTCHAR egrave
ENCODING 232
SWIDTH 500 0
DWIDTH 16 0
BBX 16 32 0 -6
BITMAP
0000
0000
0000
0000
0F00
0F00
03C0
03C0
00F0
00F0
0000
0000
0FFC
0FFC
3C0F
3C0F
3C0F
3C0F
3FFF
3FFF
3C00
3C00
3C0F
3C0F
0FFC
0FFC
0000
0000
0000
0000
0000
0000
ENDCHAR
STARTCHAR eacute
ENCODING 233
SWIDTH 500 0
DWIDTH 16 0
BBX 16 32 0 -6
BITMAP
0000
0000
0000
0000
003C
003C
00F0
00F0
03C0
03C0
0000
0000
0FFC
0FFC
3C0F
3C0F
3C0F
3C0F
3FFF
3FFF
3C00
3C00
3C0F
3C0F
0FFC
0FFC
0000
0000
0000
0000
0000
0000
ENDCHAR
STARTCHAR ecircumflex
ENCODING 234
SWIDTH 500 0
DWIDTH 16 0
BBX 16 32 0 -6
BITMAP
0000
0000
0000
0000
00C0
00C0
03F0
03F0
0F3C
0F3C
0000
0000
0FFC
0FFC
3C0F
3C0F
3C0F
3C0F
3FFF
3FFF
3C00
3C00
3C0F
3C0F
0FFC
0FFC
0000
0000
0000
0000
0000
0000
ENDCHAR
STARTCHAR edieresis
ENCODING 235
SWIDTH 500 0
DWIDTH 16 0
BBX 16 32 0 -6
BITMAP
0000
0000
0000
0000
0000
0000
3C3C
3C3C
3C3C
3C3C
0000
0000
0FFC
0FFC
3C0F
3C0F
3C0F
3C0F
3FFF
3FFF
3C00
3C00
3C0F
3C0F
0FFC
0FFC
0000
0000
0000
0000
0000
0000
ENDCHAR
STARTCHAR igrave
ENCODING 236
SWIDTH 500 0
DWIDTH 16 0
BBX 16 32 0 -6
BITMAP
0000
0000
0000
0000
3C00
3C00
0F00
0F00
03C0
03C0
0000
0000
0FC0
0FC0
03C0
03C0
03C0
03C0
03C0
03C0
03C0
03C0
03C0
03C0
0FF0
0FF0
0000
0000
0000
0000
0000
0000
ENDCHAR
STARTCHAR iacute
ENCODING 237
SWIDTH 500 0
DWIDTH 16 0
BBX 16 32 0 -6
BITMAP
0000
0000
0000
0000
00F0
00F0
03C0
03C0
0F00
0F00
0000
0000
0FC0
0FC0
03C0
03C0
03C0
03C0
03C0
03C0
03C0
03C0
03C0
03C0
0FF0
0FF0
0000
0000
0000
0000
0000
0000
ENDCHAR
STARTCHAR icircumflex
ENCODING 238
SWIDTH 500 0
DWIDTH 16 0
BBX 16 32 0 -6
BITMAP
0000
0000
0000
0000
03C0
03C0
0FF0
0FF0
3C3C
3C3C
0000
0000
0FC0
0FC0
03C0
03C0
03C0
03C0
03C0
03C0
03C0
03C0
03C0
03C0
0FF0
0FF0
0000
0000
0000
0000
0000
0000
ENDCHAR
STARTCHAR idieresis
ENCODING 239
SWIDTH 500 0
DWIDTH 16 0
BBX 16 32 0 -6
BITMAP
0000
0000
0000
0000
0000
0000
3C3C
3C3C
3C3C
3C3C
0000
0000
0FC0
0FC0
03C0
03C0
03C0
03C0
03C0
03C0
03C0
03C0
03C0
03C0
0FF0
0FF0
0000
0000
0000
0000
0000
0000
ENDCHAR
STARTCHAR ntilde
ENCODING 241
SWIDTH 500 0
DWIDTH 16 0
BBX 16 32 0 -6
BITMAP
0000
0000
0000
0000
0000
0000
1F9E
1F9E
79F8
79F8
0000
0000
79F8
79F8
1E3C
1E3C
1E1E
1E1E
1E1E
1E1E
1E1E
1E1E
1E1E
1E1E
1E1E
1E1E
0000
0000
0000
0000
0000
0000
ENDCHAR
STARTCHAR ograve
ENCODING 242
SWIDTH 500 0
DWIDTH 16 0
BBX 16 32 0 -6
BITMAP
0000
0000
0000
0000
0F00
0F00
03C0
03C0
00F0
00F0
0000
0000
07F0
07F0
1E3C
1E3C
3C1E
3C1E
3C1E
3C1E
3C1E
3C1E
1E3C
1E3C
07F0
07F0
0000
0000
0000
0000
0000
0000
ENDCHAR
STARTCHAR oacute
ENCODING 243
SWIDTH 500 0
DWIDTH 16 0
BBX 16 32 0 -6
BITMAP
0000
0000
0000
0000
00F0
00F0
03C0
03C0
0F00
0F00
0000
0000
07F0
07F0
1E3C
1E3C
3C1E
3C1E
3C1E
3C1E
3C1E
3C1E
1E3C
1E3C
07F0
07F0
0000
0000
0000
0000
0000
0000
ENDCHAR
STARTCHAR ocircumflex
ENCODING 244
SWIDTH 500 0
DWIDTH 16 0
BBX 16 32 0 -6
BITMAP
0000
0000
0000
0000
0180
0180
07E0
07E0
1E78
1E78
0000
0000
07F0
07F0
1E3C
1E3C
3C1E
3C1E
3C1E
3C1E
3C1E
3C1E
1E3C
1E3C
07F0
07F0
0000
0000
0000
0000
0000
0000
ENDCHAR
STARTCHAR odieresis
ENCODING 246
SWIDTH 500 0
DWIDTH 16 0
BBX 16 32 0 -6
BITMAP
0000
0000
0000
0000
0000
0000
3C1E
3C1E
3C1E
3C1E
0000
0000
07F0
07F0
1E3C
1E3C
3C1E
3C1E
3C1E
3C1E
3C1E
3C1E
1E3C
1E3C
07F0
07F0
0000
0000
0000
0000
0000
0000
ENDCHAR
STARTCHAR divide
ENCODING 247
SWIDTH 500 0
DWIDTH 16 0
BBX 16 32 0 -6
BITMAP
0000
0000
0000
0000
0000
0000
03C0
03C0
03C0
03C0
0000
0000
0000
0000
7FFE
7FFE
0000
0000
0000
0000
03C0
03C0
03C0
03C0
0000
0000
0000
0000
0000
0000
0000
0000
ENDCHAR
STARTCHAR ugrave
ENCODING 249
SWIDTH 500 0
DWIDTH 16 0
BBX 16 32 0 -6
BITMAP
0000
0000
0000
0000
0F00
0F00
03C0
03C0
00F0
00F0
0000
0000
3C3C
3C3C
3C3C
3C3C
3C3C
3C3C
3C3C
3C3C
3C3C
3C3C
3C3C
3C3C
0FCF
0FCF
0000
0000
0000
0000
0000
0000
ENDCHAR
STARTCHAR uacute
ENCODING 250
SWIDTH 500 0
DWIDTH 16 0
BBX 16 32 0 -6
BITMAP
0000
0000
0000
0000
00F0
00F0
03C0
03C0
0F00
0F00
0000
0000
3C3C
3C3C
3C3C
3C3C
3C3C
3C3C
3C3C
3C3C
3C3C
3C3C
3C3C
3C3C
0FCF
0FCF
0000
0000
0000
0000
0000
0000
ENDCHAR
STARTCHAR ucircumflex
ENCODING 251
SWIDTH 500 0
DWIDTH 16 0
BBX 16 32 0 -6
BITMAP
0000
0000
0000
0000
03C0
03C0
0FF0
0FF0
3C3C
3C3C
0000
0000
3C3C
3C3C
3C3C
3C3C
3C3C
3C3C
3C3C
3C3C
3C3C
3C3C
3C3C
3C3C
0FCF
0FCF
0000
0000
0000
0000
0000
0000
ENDCHAR
STARTCHAR udieresis
ENCODING 252
SWIDTH 500 0
DWIDTH 16 0
BBX 16 32 0 -6
BITMAP
0000
0000
0000
0000
0000
0000
3C3C
3C3C
3C3C
3C3C
0000
0000
3C3C
3C3C
3C3C
3C3C
3C3C
3C3C
3C3C
3C3C
3C3C
3C3C
3C3C
3C3C
0FCF
0FCF
0000
0000
0000
0000
0000
0000
ENDCHAR
STARTCHAR ydieresis
ENCODING 255
SWIDTH 500 0
DWIDTH 16 0
BBX 16 32 0 -6
BITMAP
0000
0000
0000
0000
0000
0000
3C1E
3C1E
3C1E
3C1E
0000
0000
3C1E
3C1E
3C1E
3C1E
3C1E
3C1E
3C1E
3C1E
1E1E
1E1E
07FE
07FE
001E
001E
003C
003C
0FF0
0FF0
0000
0000
ENDCHAR
STARTCHAR florin
ENCODING 402
SWIDTH 500 0
DWIDTH 16 0
BBX 16 32 0 -6
BITMAP
0000
0000
0000
0000
00FC
00FC
03CF
03CF
03C0
03C0
03C0
03C0
03C0
03C0
3FFC
3FFC
03C0
03C0
03C0
03C0
03C0
03C0
03C0
03C0
F3C0
F3C0
3F00
3F00
0000
0000
0000
0000
ENDCHAR
STARTCHAR Gamma
ENCODING 915
SWIDTH 500 0
DWIDTH 16 0
BBX 16 32 0 -6
BITMAP
0000
0000
0000
0000
3FFE
3FFE
3C1E
3C1E
3C1E
3C1E
3C00
3C00
3C00
3C00
3C00
3C00
3C00
3C00
3C00
3C00
3C00
3C00
3C00
3C00
3C00
3C00
0000
0000
0000
0000
0000
0000
ENDCHAR
STARTCHAR Theta
ENCODING 920
SWIDTH 500 0
DWIDTH 16 0
BBX 16 32 0 -6
BITMAP
0000
0000
0000
0000
07F0
07F0
1E3C
1E3C
3C1E
3C1E
3C1E
3C1E
3C1E
3C1E
3FFE
3FFE
3C1E
3C1E
3C1E
3C1E
3C1E
3C1E
1E3C
1E3C
07F0
07F0
0000
0000
0000
0000
0000
0000
ENDCHAR
STARTCHAR Sigma
ENCODING 931
SWIDTH 500 0
DWIDTH 16 0
BBX 16 32 0 -6
BITMAP
0000
0000
0000
0000
3FFE
3FFE
3C1E
3C1E
3C00
3C00
0F00
0F00
03C0
03C0
00F0
00F0
03C0
03C0
0F00
0F00
3C00
3C00
3C1E
3C1E
3FFE
3FFE
0000
0000
0000
0000
0000
0000
ENDCHAR
STARTCHAR Phi
ENCODING 934
SWIDTH 500 0
DWIDTH 16 0
BBX 16 32 0 -6
BITMAP
0000
0000
0000
0000
3FFC
3FFC
03C0
03C0
0FF0
0FF0
3C3C
3C3C
3C3C
3C3C
3C3C
3C3C
3C3C
3C3C
3C3C
3C3C
0FF0
0FF0
03C0
03C0
3FFC
3FFC
0000
0000
0000
0000
0000
0000
ENDCHAR
STARTCHAR uni03A9
ENCODING 937
SWIDTH 500 0
DWIDTH 16 0
BBX 16 32 0 -6
BITMAP
0000
0000
0000
0000
0FF0
0FF0
3C3C
3C3C
781E
781E
781E
781E
781E
781E
781E
781E
3C3C
3C3C
1E78
1E78
1E78
1E78
1E78
1E78
7E7E
7E7E
0000
0000
0000
0000
0000
0000
ENDCHAR
STARTCHAR alpha
ENCODING 945
SWIDTH 500 0
DWIDTH 16 0
BBX 16 32 0 -6
BITMAP
0000
0000
0000
0000
0000
0000
0000
0000
0000
0000
0000
0000
079E
079E
1FFC
1FFC
3CF8
3CF8
3CF0
3CF0
3CF8
3CF8
1FFC
1FFC
079E
079E
0000
0000
0000
0000
0000
0000
ENDCHAR
STARTCHAR delta
ENCODING 948
SWIDTH 500 0
DWIDTH 16 0
BBX 16 32 0 -6
BITMAP
0000
0000
0000
0000
03FC
03FC
0F00
0F00
0F00
0F00
03C0
03C0
00F0
00F0
07FC
07FC
1E3C
1E3C
3C3C
3C3C
3C3C
3C3C
1E78
1E78
07E0
07E0
0000
0000
0000
0000
0000
0000
ENDCHAR
STARTCHAR epsilon
ENCODING 949
SWIDTH 500 0
DWIDTH 16 0
BBX 16 32 0 -6
BITMAP
0000
0000
0000
0000
03F0
03F0
0F00
0F00
3C00
3C00
3C00
3C00
3C00
3C00
3FF0
3FF0
3C00
3C00
3C00
3C00
3C00
3C00
0F00
0F00
03F0
03F0
0000
0000
0000
0000
0000
0000
ENDCHAR
STARTCHAR pi
ENCODING 960
SWIDTH 500 0
DWIDTH 16 0
BBX 16 32 0 -6
BITMAP
0000
0000
0000
0000
0000
0000
0000
0000
0000
0000
7FFE
7FFE
1E78
1E78
1E78
1E78
1E78
1E78
1E78
1E78
1E78
1E78
1E78
1E78
1E78
1E78
0000
0000
0000
0000
0000
0000
ENDCHAR
STARTCHAR sigma
ENCODING 963
SWIDTH 500 0
DWIDTH 16 0
BBX 16 32 0 -6
BITMAP
0000
0000
0000
0000
0000
0000
0000
0000
0000
0000
0000
0000
07FE
07FE
1E78
1E78
3C78
3C78
3C78
3C78
3C78
3C78
1EF0
1EF0
07C0
07C0
0000
0000
0000
0000
0000
0000
ENDCHAR
STARTCHAR tau
ENCODING 964
SWIDTH 500 0
DWIDTH 16 0
BBX 16 32 0 -6
BITMAP
0000
0000
0000
0000
0000
0000
0000
0000
0000
0000
0FCF
0FCF
3CFC
3CFC
00F0
00F0
00F0
00F0
00F0
00F0
00F0
00F0
00F0
00F0
00F0
00F0
0000
0000
0000
0000
0000
0000
ENDCHAR
STARTCHAR phi
ENCODING 966
SWIDTH 500 0
DWIDTH 16 0
BBX 16 32 0 -6
BITMAP
0000
0000
0000
0000
0000
0000
001C
001C
0038
0038
0FF0
0FF0
3CFC
3CFC
79DE
79DE
7B9E
7B9E
3F3C
3F3C
0FF0
0FF0
1C00
1C00
3800
3800
0000
0000
0000
0000
0000
0000
ENDCHAR
STARTCHAR bullet
ENCODING 8226
SWIDTH 500 0
DWIDTH 16 0
BBX 16 32 0 -6
BITMAP
0000
0000
0000
0000
0000
0000
0000
0000
0000
0000
0000
0000
03C0
03C0
0FF0
0FF0
0FF0
0FF0
03C0
03C0
0000
0000
0000
0000
0000
0000
0000
0000
0000
0000
0000
0000
ENDCHAR
STARTCHAR exclamdbl
ENCODING 8252
SWIDTH 500 0
DWIDTH 16 0
BBX 16 32 0 -6
BITMAP
0000
0000
0000
0000
0F0F
0F0F
0F0F
0F0F
0F0F
0F0F
0F0F
0F0F
0F0F
0F0F
0F0F
0F0F
0F0F
0F0F
0F0F
0F0F
0000
0000
0F0F
0F0F
0F0F
0F0F
0000
0000
0000
0000
0000
0000
ENDCHAR
STARTCHAR uni207F
ENCODING 8319
SWIDTH 500 0
DWIDTH 16 0
BBX 16 32 0 -6
BITMAP
0000
0000
F3C0
F3C0
3CF0
3CF0
3CF0
3CF0
3CF0
3CF0
3CF0
3CF0
3CF0
3CF0
3CF0
3CF0
0000
0000
0000
0000
0000
0000
0000
0000
0000
0000
0000
0000
0000
0000
0000
0000
ENDCHAR
STARTCHAR peseta
ENCODING 8359
SWIDTH 500 0
DWIDTH 16 0
BBX 16 32 0 -6
BITMAP
0000
0000
0000
0000
FFF0
FFF0
3C3C
3C3C
3C3C
3C3C
3FF0
3FF0
3C0C
3C0C
3C3C
3C3C
3CFF
3CFF
3C3C
3C3C
3C3C
3C3C
3C3C
3C3C
FF0F
FF0F
0000
0000
0000
0000
0000
0000
ENDCHAR
STARTCHAR arrowleft
ENCODING 8592
SWIDTH 500 0
DWIDTH 16 0
BBX 16 32 0 -6
BITMAP
0000
0000
0000
0000
0000
0000
0000
0000
0000
0000
03C0
03C0
0F00
0F00
3FFF
3FFF
0F00
0F00
03C0
03C0
0000
0000
0000
0000
0000
0000
0000
0000
0000
0000
0000
0000
ENDCHAR
STARTCHAR arrowup
ENCODING 8593
SWIDTH 500 0
DWIDTH 16 0
BBX 16 32 0 -6
BITMAP
0000
0000
0000
0000
03C0
03C0
0FF0
0FF0
3FFC
3FFC
03C0
03C0
03C0
03C0
03C0
03C0
03C0
03C0
03C0
03C0
03C0
03C0
03C0
03C0
03C0
03C0
0000
0000
0000
0000
0000
0000
ENDCHAR
STARTCHAR arrowright
ENCODING 8594
SWIDTH 500 0
DWIDTH 16 0
BBX 16 32 0 -6
BITMAP
0000
0000
0000
0000
0000
0000
0000
0000
0000
0000
00F0
00F0
003C
003C
3FFF
3FFF
003C
003C
00F0
00F0
0000
0000
0000
0000
0000
0000
0000
0000
0000
0000
0000
0000
ENDCHAR
STARTCHAR arrowdown
ENCODING 8595
SWIDTH 500 0
DWIDTH 16 0
BBX 16 32 0 -6
BITMAP
0000
0000
0000
0000
03C0
03C0
03C0
03C0
03C0
03C0
03C0
03C0
03C0
03C0
03C0
03C0
03C0
03C0
03C0
03C0
3FFC
3FFC
0FF0
0FF0
03C0
03C0
0000
0000
0000
0000
0000
0000
ENDCHAR
STARTCHAR arrowboth
ENCODING 8596
SWIDTH 500 0
DWIDTH 16 0
BBX 16 32 0 -6
BITMAP
0000
0000
0000
0000
0000
0000
0000
0000
0000
0000
0C30
0C30
3C3C
3C3C
FFFF
FFFF
3C3C
3C3C
0C30
0C30
0000
0000
0000
0000
0000
0000
0000
0000
0000
0000
0000
0000
ENDCHAR
STARTCHAR arrowupdn
ENCODING 8597
SWIDTH 500 0
DWIDTH 16 0
BBX 16 32 0 -6
BITMAP
0000
0000
0000
0000
03C0
03C0
0FF0
0FF0
3FFC
3FFC
03C0
03C0
03C0
03C0
03C0
03C0
03C0
03C0
03C0
03C0
3FFC
3FFC
0FF0
0FF0
03C0
03C0
0000
0000
0000
0000
0000
0000
ENDCHAR
STARTCHAR arrowupdnbse
ENCODING 8616
SWIDTH 500 0
DWIDTH 16 0
BBX 16 32 0 -6
BITMAP
0000
0000
0000
0000
03C0
03C0
0FF0
0FF0
3FFC
3FFC
03C0
03C0
03C0
03C0
03C0
03C0
03C0
03C0
03C0
03C0
3FFC
3FFC
0FF0
0FF0
03C0
03C0
3FFC
3FFC
0000
0000
0000
0000
ENDCHAR
STARTCHAR uni2219
ENCODING 8729
SWIDTH 500 0
DWIDTH 16 0
BBX 16 32 0 -6
BITMAP
0000
0000
0000
0000
0000
0000
0000
0000
0000
0000
0000
0000
0000
0000
03C0
03C0
03C0
03C0
0000
0000
0000
0000
0000
0000
0000
0000
0000
0000
0000
0000
0000
0000
ENDCHAR
STARTCHAR radical
ENCODING 8730
SWIDTH 500 0
DWIDTH 16 0
BBX 16 32 0 -6
BITMAP
0000
0000
00FF
00FF
00F0
00F0
00F0
00F0
00F0
00F0
00F0
00F0
00F0
00F0
00F0
00F0
FCF0
FCF0
3CF0
3CF0
0FF0
0FF0
03F0
03F0
00F0
00F0
0000
0000
0000
0000
0000
0000
ENDCHAR
STARTCHAR infinity
ENCODING 8734
SWIDTH 500 0
DWIDTH 16 0
BBX 16 32 0 -6
BITMAP
0000
0000
0000
0000
0000
0000
0000
0000
0000
0000
0000
0000
3FFC
3FFC
F3CF
F3CF
F3CF
F3CF
3FFC
3FFC
0000
0000
0000
0000
0000
0000
0000
0000
0000
0000
0000
0000
ENDCHAR
STARTCHAR orthogonal
ENCODING 8735
SWIDTH 500 0
DWIDTH 16 0
BBX 16 32 0 -6
BITMAP
0000
0000
0000
0000
0000
0000
0000
0000
0000
0000
0000
0000
3C00
3C00
3C00
3C00
3C00
3C00
3FFF
3FFF
0000
0000
0000
0000
0000
0000
0000
0000
0000
0000
0000
0000
ENDCHAR
STARTCHAR intersection
ENCODING 8745
SWIDTH 500 0
DWIDTH 16 0
BBX 16 32 0 -6
BITMAP
0000
0000
0000
0000
0000
0000
07F0
07F0
1E3C
1E3C
3C1E
3C1E
3C1E
3C1E
3C1E
3C1E
3C1E
3C1E
3C1E
3C1E
3C1E
3C1E
3C1E
3C1E
3C1E
3C1E
0000
0000
0000
0000
0000
0000
ENDCHAR
STARTCHAR approxequal
ENCODING 8776
SWIDTH 500 0
DWIDTH 16 0
BBX 16 32 0 -6
BITMAP
0000
0000
0000
0000
0000
0000
0000
0000
0000
0000
0FCF
0FCF
3CFC
3CFC
0000
0000
0FCF
0FCF
3CFC
3CFC
0000
0000
0000
0000
0000
0000
0000
0000
0000
0000
0000
0000
ENDCHAR
STARTCHAR equivalence
ENCODING 8801
SWIDTH 500 0
DWIDTH 16 0
BBX 16 32 0 -6
BITMAP
0000
0000
0000
0000
0000
0000
0000
0000
3FFE
3FFE
0000
0000
0000
0000
3FFE
3FFE
0000
0000
0000
0000
3FFE
3FFE
0000
0000
0000
0000
0000
0000
0000
0000
0000
0000
ENDCHAR
STARTCHAR lessequal
ENCODING 8804
SWIDTH 500 0
DWIDTH 16 0
BBX 16 32 0 -6
BITMAP
0000
0000
0000
0000
0000
0000
00F0
00F0
03C0
03C0
0F00
0F00
3C00
3C00
0F00
0F00
03C0
03C0
00F0
00F0
0000
0000
3FFC
3FFC
0000
0000
0000
0000
0000
0000
0000
0000
ENDCHAR
STARTCHAR greaterequal
ENCODING 8805
SWIDTH 500 0
DWIDTH 16 0
BBX 16 32 0 -6
BITMAP
0000
0000
0000
0000
0000
0000
0F00
0F00
03C0
03C0
00F0
00F0
003C
003C
00F0
00F0
03C0
03C0
0F00
0F00
0000
0000
3FFC
3FFC
0000
0000
0000
0000
0000
0000
0000
0000
ENDCHAR
STARTCHAR house
ENCODING 8962
SWIDTH 500 0
DWIDTH 16 0
BBX 16 32 0 -6
BITMAP
0000
0000
0000
0000
0000
0000
0000
0000
00C0
00C0
03F0
03F0
0F3C
0F3C
3C0F
3C0F
3C0F
3C0F
3FFF
3FFF
0000
0000
0000
0000
0000
0000
0000
0000
0000
0000
0000
0000
ENDCHAR
STARTCHAR revlogicalnot
ENCODING 8976
SWIDTH 500 0
DWIDTH 16 0
BBX 16 32 0 -6
BITMAP
0000
0000
0000
0000
0000
0000
0000
0000
0000
0000
0000
0000
0000
0000
3FFF
3FFF
3C00
3C00
3C00
3C00
3C00
3C00
0000
0000
0000
0000
0000
0000
0000
0000
0000
0000
ENDCHAR
STARTCHAR integraltp
ENCODING 8992
SWIDTH 500 0
DWIDTH 16 0
BBX 16 32 0 -6
BITMAP
0000
0000
0000
0000
00FC
00FC
03CF
03CF
03CF
03CF
03C0
03C0
03C0
03C0
03C0
03C0
03C0
03C0
03C0
03C0
03C0
03C0
03C0
03C0
03C0
03C0
03C0
03C0
03C0
03C0
03C0
03C0
ENDCHAR
STARTCHAR integralbt
ENCODING 8993
SWIDTH 500 0
DWIDTH 16 0
BBX 16 32 0 -6
BITMAP
03C0
03C0
03C0
03C0
03C0
03C0
03C0
03C0
03C0
03C0
03C0
03C0
03C0
03C0
03C0
03C0
03C0
03C0
03C0
03C0
F3C0
F3C0
F3C0
F3C0
3F00
3F00
0000
0000
0000
0000
0000
0000
ENDCHAR
STARTCHAR SF100000
ENCODING 9472
SWIDTH 500 0
DWIDTH 16 0
BBX 16 32 0 -6
BITMAP
0000
0000
0000
0000
0000
0000
0000
0000
0000
0000
0000
0000
0000
0000
0000
0000
FFFF
FFFF
0000
0000
0000
0000
0000
0000
0000
0000
0000
0000
0000
0000
0000
0000
ENDCHAR
STARTCHAR SF110000
ENCODING 9474
SWIDTH 500 0
DWIDTH 16 0
BBX 16 32 0 -6
BITMAP
03C0
03C0
03C0
03C0
03C0
03C0
03C0
03C0
03C0
03C0
03C0
03C0
03C0
03C0
03C0
03C0
03C0
03C0
03C0
03C0
03C0
03C0
03C0
03C0
03C0
03C0
03C0
03C0
03C0
03C0
03C0
03C0
ENDCHAR
STARTCHAR SF010000
ENCODING 9484
SWIDTH 500 0
DWIDTH 16 0
BBX 16 32 0 -6
BITMAP
0000
0000
0000
0000
0000
0000
0000
0000
0000
0000
0000
0000
0000
0000
0000
0000
03FF
03FF
03C0
03C0
03C0
03C0
03C0
03C0
03C0
03C0
03C0
03C0
03C0
03C0
03C0
03C0
ENDCHAR
STARTCHAR SF030000
ENCODING 9488
SWIDTH 500 0
DWIDTH 16 0
BBX 16 32 0 -6
BITMAP
0000
0000
0000
0000
0000
0000
0000
0000
0000
0000
0000
0000
0000
0000
0000
0000
FFC0
FFC0
03C0
03C0
03C0
03C0
03C0
03C0
03C0
03C0
03C0
03C0
03C0
03C0
03C0
03C0
ENDCHAR
STARTCHAR SF020000
ENCODING 9492
SWIDTH 500 0
DWIDTH 16 0
BBX 16 32 0 -6
BITMAP
03C0
03C0
03C0
03C0
03C0
03C0
03C0
03C0
03C0
03C0
03C0
03C0
03C0
03C0
03C0
03C0
03FF
03FF
0000
0000
0000
0000
0000
0000
0000
0000
0000
0000
0000
0000
0000
0000
ENDCHAR
STARTCHAR SF040000
ENCODING 9496
SWIDTH 500 0
DWIDTH 16 0
BBX 16 32 0 -6
BITMAP
03C0
03C0
03C0
03C0
03C0
03C0
03C0
03C0
03C0
03C0
03C0
03C0
03C0
03C0
03C0
03C0
FFC0
FFC0
0000
0000
0000
0000
0000
0000
0000
0000
0000
0000
0000
0000
0000
0000
ENDCHAR
STARTCHAR SF080000
ENCODING 9500
SWIDTH 500 0
DWIDTH 16 0
BBX 16 32 0 -6
BITMAP
03C0
03C0
03C0
03C0
03C0
03C0
03C0
03C0
03C0
03C0
03C0
03C0
03C0
03C0
03C0
03C0
03FF
03FF
03C0
03C0
03C0
03C0
03C0
03C0
03C0
03C0
03C0
03C0
03C0
03C0
03C0
03C0
ENDCHAR
STARTCHAR SF090000
ENCODING 9508
SWIDTH 500 0
DWIDTH 16 0
BBX 16 32 0 -6
BITMAP
03C0
03C0
03C0
03C0
03C0
03C0
03C0
03C0
03C0
03C0
03C0
03C0
03C0
03C0
03C0
03C0
FFC0
FFC0
03C0
03C0
03C0
03C0
03C0
03C0
03C0
03C0
03C0
03C0
03C0
03C0
03C0
03C0
ENDCHAR
STARTCHAR SF060000
ENCODING 9516
SWIDTH 500 0
DWIDTH 16 0
BBX 16 32 0 -6
BITMAP
0000
0000
0000
0000
0000
0000
0000
0000
0000
0000
0000
0000
0000
0000
0000
0000
FFFF
FFFF
03C0
03C0
03C0
03C0
03C0
03C0
03C0
03C0
03C0
03C0
03C0
03C0
03C0
03C0
ENDCHAR
STARTCHAR SF070000
ENCODING 9524
SWIDTH 500 0
DWIDTH 16 0
BBX 16 32 0 -6
BITMAP
03C0
03C0
03C0
03C0
03C0
03C0
03C0
03C0
03C0
03C0
03C0
03C0
03C0
03C0
03C0
03C0
FFFF
FFFF
0000
0000
0000
0000
0000
0000
0000
0000
0000
0000
0000
0000
0000
0000
ENDCHAR
STARTCHAR SF050000
ENCODING 9532
SWIDTH 500 0
DWIDTH 16 0
BBX 16 32 0 -6
BITMAP
03C0
03C0
03C0
03C0
03C0
03C0
03C0
03C0
03C0
03C0
03C0
03C0
03C0
03C0
03C0
03C0
FFFF
FFFF
03C0
03C0
03C0
03C0
03C0
03C0
03C0
03C0
03C0
03C0
03C0
03C0
03C0
03C0
ENDCHAR
STARTCHAR SF430000
ENCODING 9552
SWIDTH 500 0
DWIDTH 16 0
BBX 16 32 0 -6
BITMAP
0000
0000
0000
0000
0000
0000
0000
0000
0000
0000
0000
0000
FFFF
FFFF
0000
0000
FFFF
FFFF
0000
0000
0000
0000
0000
0000
0000
0000
0000
0000
0000
0000
0000
0000
ENDCHAR
STARTCHAR SF240000
ENCODING 9553
SWIDTH 500 0
DWIDTH 16 0
BBX 16 32 0 -6
BITMAP
0F3C
0F3C
0F3C
0F3C
0F3C
0F3C
0F3C
0F3C
0F3C
0F3C
0F3C
0F3C
0F3C
0F3C
0F3C
0F3C
0F3C
0F3C
0F3C
0F3C
0F3C
0F3C
0F3C
0F3C
0F3C
0F3C
0F3C
0F3C
0F3C
0F3C
0F3C
0F3C
ENDCHAR
STARTCHAR SF510000
ENCODING 9554
SWIDTH 500 0
DWIDTH 16 0
BBX 16 32 0 -6
BITMAP
0000
0000
0000
0000
0000
0000
0000
0000
0000
0000
0000
0000
03FF
03FF
03C0
03C0
03FF
03FF
03C0
03C0
03C0
03C0
03C0
03C0
03C0
03C0
03C0
03C0
03C0
03C0
03C0
03C0
ENDCHAR
STARTCHAR SF520000
ENCODING 9555
SWIDTH 500 0
DWIDTH 16 0
BBX 16 32 0 -6
BITMAP
0000
0000
0000
0000
0000
0000
0000
0000
0000
0000
0000
0000
0000
0000
0000
0000
0FFF
0FFF
0F3C
0F3C
0F3C
0F3C
0F3C
0F3C
0F3C
0F3C
0F3C
0F3C
0F3C
0F3C
0F3C
0F3C
ENDCHAR
STARTCHAR SF390000
ENCODING 9556
SWIDTH 500 0
DWIDTH 16 0
BBX 16 32 0 -6
BITMAP
0000
0000
0000
0000
0000
0000
0000
0000
0000
0000
0000
0000
0FFF
0FFF
0F00
0F00
0F3F
0F3F
0F3C
0F3C
0F3C
0F3C
0F3C
0F3C
0F3C
0F3C
0F3C
0F3C
0F3C
0F3C
0F3C
0F3C
ENDCHAR
STARTCHAR SF220000
ENCODING 9557
SWIDTH 500 0
DWIDTH 16 0
BBX 16 32 0 -6
BITMAP
0000
0000
0000
0000
0000
0000
0000
0000
0000
0000
0000
0000
FFC0
FFC0
03C0
03C0
FFC0
FFC0
03C0
03C0
03C0
03C0
03C0
03C0
03C0
03C0
03C0
03C0
03C0
03C0
03C0
03C0
ENDCHAR
STARTCHAR SF210000
ENCODING 9558
SWIDTH 500 0
DWIDTH 16 0
BBX 16 32 0 -6
BITMAP
0000
0000
0000
0000
0000
0000
0000
0000
0000
0000
0000
0000
0000
0000
0000
0000
FFFC
FFFC
0F3C
0F3C
0F3C
0F3C
0F3C
0F3C
0F3C
0F3C
0F3C
0F3C
0F3C
0F3C
0F3C
0F3C
ENDCHAR
STARTCHAR SF250000
ENCODING 9559
SWIDTH 500 0
DWIDTH 16 0
BBX 16 32 0 -6
BITMAP
0000
0000
0000
0000
0000
0000
0000
0000
0000
0000
0000
0000
FFFC
FFFC
003C
003C
FF3C
FF3C
0F3C
0F3C
0F3C
0F3C
0F3C
0F3C
0F3C
0F3C
0F3C
0F3C
0F3C
0F3C
0F3C
0F3C
ENDCHAR
STARTCHAR SF500000
ENCODING 9560
SWIDTH 500 0
DWIDTH 16 0
BBX 16 32 0 -6
BITMAP
03C0
03C0
03C0
03C0
03C0
03C0
03C0
03C0
03C0
03C0
03C0
03C0
03FF
03FF
03C0
03C0
03FF
03FF
0000
0000
0000
0000
0000
0000
0000
0000
0000
0000
0000
0000
0000
0000
ENDCHAR
STARTCHAR SF490000
ENCODING 9561
SWIDTH 500 0
DWIDTH 16 0
BBX 16 32 0 -6
BITMAP
0F3C
0F3C
0F3C
0F3C
0F3C
0F3C
0F3C
0F3C
0F3C
0F3C
0F3C
0F3C
0F3C
0F3C
0F3C
0F3C
0FFF
0FFF
0000
0000
0000
0000
0000
0000
0000
0000
0000
0000
0000
0000
0000
0000
ENDCHAR
STARTCHAR SF380000
ENCODING 9562
SWIDTH 500 0
DWIDTH 16 0
BBX 16 32 0 -6
BITMAP
0F3C
0F3C
0F3C
0F3C
0F3C
0F3C
0F3C
0F3C
0F3C
0F3C
0F3C
0F3C
0F3F
0F3F
0F00
0F00
0FFF
0FFF
0000
0000
0000
0000
0000
0000
0000
0000
0000
0000
0000
0000
0000
0000
ENDCHAR
STARTCHAR SF280000
ENCODING 9563
SWIDTH 500 0
DWIDTH 16 0
BBX 16 32 0 -6
BITMAP
03C0
03C0
03C0
03C0
03C0
03C0
03C0
03C0
03C0
03C0
03C0
03C0
FFC0
FFC0
03C0
03C0
FFC0
FFC0
0000
0000
0000
0000
0000
0000
0000
0000
0000
0000
0000
0000
0000
0000
ENDCHAR
STARTCHAR SF270000
ENCODING 9564
SWIDTH 500 0
DWIDTH 16 0
BBX 16 32 0 -6
BITMAP
0F3C
0F3C
0F3C
0F3C
0F3C
0F3C
0F3C
0F3C
0F3C
0F3C
0F3C
0F3C
0F3C
0F3C
0F3C
0F3C
FFFC
FFFC
0000
0000
0000
0000
0000
0000
0000
0000
0000
0000
0000
0000
0000
0000
ENDCHAR
STARTCHAR SF260000
ENCODING 9565
SWIDTH 500 0
DWIDTH 16 0
BBX 16 32 0 -6
BITMAP
0F3C
0F3C
0F3C
0F3C
0F3C
0F3C
0F3C
0F3C
0F3C
0F3C
0F3C
0F3C
FF3C
FF3C
003C
003C
FFFC
FFFC
0000
0000
0000
0000
0000
0000
0000
0000
0000
0000
0000
0000
0000
0000
ENDCHAR
STARTCHAR SF360000
ENCODING 9566
SWIDTH 500 0
DWIDTH 16 0
BBX 16 32 0 -6
BITMAP
03C0
03C0
03C0
03C0
03C0
03C0
03C0
03C0
03C0
03C0
03C0
03C0
03FF
03FF
03C0
03C0
03FF
03FF
03C0
03C0
03C0
03C0
03C0
03C0
03C0
03C0
03C0
03C0
03C0
03C0
03C0
03C0
ENDCHAR
STARTCHAR SF370000
ENCODING 9567
SWIDTH 500 0
DWIDTH 16 0
BBX 16 32 0 -6
BITMAP
0F3C
0F3C
0F3C
0F3C
0F3C
0F3C
0F3C
0F3C
0F3C
0F3C
0F3C
0F3C
0F3C
0F3C
0F3C
0F3C
0F3F
0F3F
0F3C
0F3C
0F3C
0F3C
0F3C
0F3C
0F3C
0F3C
0F3C
0F3C
0F3C
0F3C
0F3C
0F3C
ENDCHAR
STARTCHAR SF420000
ENCODING 9568
SWIDTH 500 0
DWIDTH 16 0
BBX 16 32 0 -6
BITMAP
0F3C
0F3C
0F3C
0F3C
0F3C
0F3C
0F3C
0F3C
0F3C
0F3C
0F3C
0F3C
0F3F
0F3F
0F00
0F00
0F3F
0F3F
0F3C
0F3C
0F3C
0F3C
0F3C
0F3C
0F3C
0F3C
0F3C
0F3C
0F3C
0F3C
0F3C
0F3C
ENDCHAR
STARTCHAR SF190000
ENCODING 9569
SWIDTH 500 0
DWIDTH 16 0
BBX 16 32 0 -6
BITMAP
03C0
03C0
03C0
03C0
03C0
03C0
03C0
03C0
03C0
03C0
03C0
03C0
FFC0
FFC0
03C0
03C0
FFC0
FFC0
03C0
03C0
03C0
03C0
03C0
03C0
03C0
03C0
03C0
03C0
03C0
03C0
03C0
03C0
ENDCHAR
STARTCHAR SF200000
ENCODING 9570
SWIDTH 500 0
DWIDTH 16 0
BBX 16 32 0 -6
BITMAP
0F3C
0F3C
0F3C
0F3C
0F3C
0F3C
0F3C
0F3C
0F3C
0F3C
0F3C
0F3C
0F3C
0F3C
0F3C
0F3C
FF3C
FF3C
0F3C
0F3C
0F3C
0F3C
0F3C
0F3C
0F3C
0F3C
0F3C
0F3C
0F3C
0F3C
0F3C
0F3C
ENDCHAR
STARTCHAR SF230000
ENCODING 9571
SWIDTH 500 0
DWIDTH 16 0
BBX 16 32 0 -6
BITMAP
0F3C
0F3C
0F3C
0F3C
0F3C
0F3C
0F3C
0F3C
0F3C
0F3C
0F3C
0F3C
FF3C
FF3C
003C
003C
FF3C
FF3C
0F3C
0F3C
0F3C
0F3C
0F3C
0F3C
0F3C
0F3C
0F3C
0F3C
0F3C
0F3C
0F3C
0F3C
ENDCHAR
STARTCHAR SF470000
ENCODING 9572
SWIDTH 500 0
DWIDTH 16 0
BBX 16 32 0 -6
BITMAP
0000
0000
0000
0000
0000
0000
0000
0000
0000
0000
0000
0000
FFFF
FFFF
0000
0000
FFFF
FFFF
03C0
03C0
03C0
03C0
03C0
03C0
03C0
03C0
03C0
03C0
03C0
03C0
03C0
03C0
ENDCHAR
STARTCHAR SF480000
ENCODING 9573
SWIDTH 500 0
DWIDTH 16 0
BBX 16 32 0 -6
BITMAP
0000
0000
0000
0000
0000
0000
0000
0000
0000
0000
0000
0000
0000
0000
0000
0000
FFFF
FFFF
0F3C
0F3C
0F3C
0F3C
0F3C
0F3C
0F3C
0F3C
0F3C
0F3C
0F3C
0F3C
0F3C
0F3C
ENDCHAR
STARTCHAR SF410000
ENCODING 9574
SWIDTH 500 0
DWIDTH 16 0
BBX 16 32 0 -6
BITMAP
0000
0000
0000
0000
0000
0000
0000
0000
0000
0000
0000
0000
FFFF
FFFF
0000
0000
FF3F
FF3F
0F3C
0F3C
0F3C
0F3C
0F3C
0F3C
0F3C
0F3C
0F3C
0F3C
0F3C
0F3C
0F3C
0F3C
ENDCHAR
STARTCHAR SF450000
ENCODING 9575
SWIDTH 500 0
DWIDTH 16 0
BBX 16 32 0 -6
BITMAP
03C0
03C0
03C0
03C0
03C0
03C0
03C0
03C0
03C0
03C0
03C0
03C0
FFFF
FFFF
0000
0000
FFFF
FFFF
0000
0000
0000
0000
0000
0000
0000
0000
0000
0000
0000
0000
0000
0000
ENDCHAR
STARTCHAR SF460000
ENCODING 9576
SWIDTH 500 0
DWIDTH 16 0
BBX 16 32 0 -6
BITMAP
0F3C
0F3C
0F3C
0F3C
0F3C
0F3C
0F3C
0F3C
0F3C
0F3C
0F3C
0F3C
0F3C
0F3C
0F3C
0F3C
FFFF
FFFF
0000
0000
0000
0000
0000
0000
0000
0000
0000
0000
0000
0000
0000
0000
ENDCHAR
STARTCHAR SF400000
ENCODING 9577
SWIDTH 500 0
DWIDTH 16 0
BBX 16 32 0 -6
BITMAP
0F3C
0F3C
0F3C
0F3C
0F3C
0F3C
0F3C
0F3C
0F3C
0F3C
0F3C
0F3C
FF3F
FF3F
0000
0000
FFFF
FFFF
0000
0000
0000
0000
0000
0000
0000
0000
0000
0000
0000
0000
0000
0000
ENDCHAR
STARTCHAR SF540000
ENCODING 9578
SWIDTH 500 0
DWIDTH 16 0
BBX 16 32 0 -6
BITMAP
03C0
03C0
03C0
03C0
03C0
03C0
03C0
03C0
03C0
03C0
03C0
03C0
FFFF
FFFF
03C0
03C0
FFFF
FFFF
03C0
03C0
03C0
03C0
03C0
03C0
03C0
03C0
03C0
03C0
03C0
03C0
03C0
03C0
ENDCHAR
STARTCHAR SF530000
ENCODING 9579
SWIDTH 500 0
DWIDTH 16 0
BBX 16 32 0 -6
BITMAP
0F3C
0F3C
0F3C
0F3C
0F3C
0F3C
0F3C
0F3C
0F3C
0F3C
0F3C
0F3C
0F3C
0F3C
0F3C
0F3C
FFFF
FFFF
0F3C
0F3C
0F3C
0F3C
0F3C
0F3C
0F3C
0F3C
0F3C
0F3C
0F3C
0F3C
0F3C
0F3C
ENDCHAR
STARTCHAR SF440000
ENCODING 9580
SWIDTH 500 0
DWIDTH 16 0
BBX 16 32 0 -6
BITMAP
0F3C
0F3C
0F3C
0F3C
0F3C
0F3C
0F3C
0F3C
0F3C
0F3C
0F3C
0F3C
FF3F
FF3F
0000
0000
FF3F
FF3F
0F3C
0F3C
0F3C
0F3C
0F3C
0F3C
0F3C
0F3C
0F3C
0F3C
0F3C
0F3C
0F3C
0F3C
ENDCHAR
STARTCHAR upblock
ENCODING 9600
SWIDTH 500 0
DWIDTH 16 0
BBX 16 32 0 -6
BITMAP
FFFF
FFFF
FFFF
FFFF
FFFF
FFFF
FFFF
FFFF
FFFF
FFFF
FFFF
FFFF
FFFF
FFFF
FFFF
FFFF
0000
0000
0000
0000
0000
0000
0000
0000
0000
0000
0000
0000
0000
0000
0000
0000
ENDCHAR
STARTCHAR dnblock
ENCODING 9604
SWIDTH 500 0
DWIDTH 16 0
BBX 16 32 0 -6
BITMAP
0000
0000
0000
0000
0000
0000
0000
0000
0000
0000
0000
0000
0000
0000
0000
0000
FFFF
FFFF
FFFF
FFFF
FFFF
FFFF
FFFF
FFFF
FFFF
FFFF
FFFF
FFFF
FFFF
FFFF
FFFF
FFFF
ENDCHAR
STARTCHAR block
ENCODING 9608
SWIDTH 500 0
DWIDTH 16 0
BBX 16 32 0 -6
BITMAP
FFFF
FFFF
FFFF
FFFF
FFFF
FFFF
FFFF
FFFF
FFFF
FFFF
FFFF
FFFF
FFFF
FFFF
FFFF
FFFF
FFFF
FFFF
FFFF
FFFF
FFFF
FFFF
FFFF
FFFF
FFFF
FFFF
FFFF
FFFF
FFFF
FFFF
FFFF
FFFF
ENDCHAR
STARTCHAR lfblock
ENCODING 9612
SWIDTH 500 0
DWIDTH 16 0
BBX 16 32 0 -6
BITMAP
FF00
FF00
FF00
FF00
FF00
FF00
FF00
FF00
FF00
FF00
FF00
FF00
FF00
FF00
FF00
FF00
FF00
FF00
FF00
FF00
FF00
FF00
FF00
FF00
FF00
FF00
FF00
FF00
FF00
FF00
FF00
FF00
ENDCHAR
STARTCHAR rtblock
ENCODING 9616
SWIDTH 500 0
DWIDTH 16 0
BBX 16 32 0 -6
BITMAP
00FF
00FF
00FF
00FF
00FF
00FF
00FF
00FF
00FF
00FF
00FF
00FF
00FF
00FF
00FF
00FF
00FF
00FF
00FF
00FF
00FF
00FF
00FF
00FF
00FF
00FF
00FF
00FF
00FF
00FF
00FF
00FF
ENDCHAR
STARTCHAR ltshade
ENCODING 9617
SWIDTH 500 0
DWIDTH 16 0
BBX 16 32 0 -6
BITMAP
0303
0303
3030
3030
0303
0303
3030
3030
0303
0303
3030
3030
0303
0303
3030
3030
0303
0303
3030
3030
0303
0303
3030
3030
0303
0303
3030
3030
0303
0303
3030
3030
ENDCHAR
STARTCHAR shade
ENCODING 9618
SWIDTH 500 0
DWIDTH 16 0
BBX 16 32 0 -6
BITMAP
3333
3333
CCCC
CCCC
3333
3333
CCCC
CCCC
3333
3333
CCCC
CCCC
3333
3333
CCCC
CCCC
3333
3333
CCCC
CCCC
3333
3333
CCCC
CCCC
3333
3333
CCCC
CCCC
3333
3333
CCCC
CCCC
ENDCHAR
STARTCHAR dkshade
ENCODING 9619
SWIDTH 500 0
DWIDTH 16 0
BBX 16 32 0 -6
BITMAP
F3F3
F3F3
3F3F
3F3F
F3F3
F3F3
3F3F
3F3F
F3F3
F3F3
3F3F
3F3F
F3F3
F3F3
3F3F
3F3F
F3F3
F3F3
3F3F
3F3F
F3F3
F3F3
3F3F
3F3F
F3F3
F3F3
3F3F
3F3F
F3F3
F3F3
3F3F
3F3F
ENDCHAR
STARTCHAR filledbox
ENCODING 9632
SWIDTH 500 0
DWIDTH 16 0
BBX 16 32 0 -6
BITMAP
0000
0000
0000
0000
0000
0000
0000
0000
0000
0000
0FFC
0FFC
0FFC
0FFC
0FFC
0FFC
0FFC
0FFC
0FFC
0FFC
0FFC
0FFC
0000
0000
0000
0000
0000
0000
0000
0000
0000
0000
ENDCHAR
STARTCHAR filledrect
ENCODING 9644
SWIDTH 500 0
DWIDTH 16 0
BBX 16 32 0 -6
BITMAP
0000
0000
0000
0000
0000
0000
0000
0000
0000
0000
0000
0000
0000
0000
0000
0000
0000
0000
0000
0000
3FFF
3FFF
3FFF
3FFF
3FFF
3FFF
0000
0000
0000
0000
0000
0000
ENDCHAR
STARTCHAR triagup
ENCODING 9650
SWIDTH 500 0
DWIDTH 16 0
BBX 16 32 0 -6
BITMAP
0000
0000
0000
0000
0000
0000
0000
0000
0180
0180
03C0
03C0
07E0
07E0
0FF0
0FF0
1FF8
1FF8
3FFC
3FFC
7FFE
7FFE
0000
0000
0000
0000
0000
0000
0000
0000
0000
0000
ENDCHAR
STARTCHAR triagrt
ENCODING 9658
SWIDTH 500 0
DWIDTH 16 0
BBX 16 32 0 -6
BITMAP
0000
0000
0000
0000
3000
3000
3C00
3C00
3F00
3F00
3FC0
3FC0
3FF0
3FF0
3FFC
3FFC
3FF0
3FF0
3FC0
3FC0
3F00
3F00
3C00
3C00
3000
3000
0000
0000
0000
0000
0000
0000
ENDCHAR
STARTCHAR triagdn
ENCODING 9660
SWIDTH 500 0
DWIDTH 16 0
BBX 16 32 0 -6
BITMAP
0000
0000
0000
0000
0000
0000
0000
0000
7FFE
7FFE
3FFC
3FFC
1FF8
1FF8
0FF0
0FF0
07E0
07E0
03C0
03C0
0180
0180
0000
0000
0000
0000
0000
0000
0000
0000
0000
0000
ENDCHAR
STARTCHAR triaglf
ENCODING 9668
SWIDTH 500 0
DWIDTH 16 0
BBX 16 32 0 -6
BITMAP
0000
0000
0000
0000
000C
000C
003C
003C
00FC
00FC
03FC
03FC
0FFC
0FFC
3FFC
3FFC
0FFC
0FFC
03FC
03FC
00FC
00FC
003C
003C
000C
000C
0000
0000
0000
0000
0000
0000
ENDCHAR
STARTCHAR circle
ENCODING 9675
SWIDTH 500 0
DWIDTH 16 0
BBX 16 32 0 -6
BITMAP
0000
0000
0000
0000
0000
0000
0000
0000
0000
0000
0FF0
0FF0
3C3C
3C3C
300C
300C
300C
300C
3C3C
3C3C
0FF0
0FF0
0000
0000
0000
0000
0000
0000
0000
0000
0000
0000
ENDCHAR
STARTCHAR invbullet
ENCODING 9688
SWIDTH 500 0
DWIDTH 16 0
BBX 16 32 0 -6
BITMAP
FFFF
FFFF
FFFF
FFFF
FFFF
FFFF
FFFF
FFFF
FFFF
FFFF
FFFF
FFFF
FC3F
FC3F
F00F
F00F
F00F
F00F
FC3F
FC3F
FFFF
FFFF
FFFF
FFFF
FFFF
FFFF
FFFF
FFFF
FFFF
FFFF
FFFF
FFFF
ENDCHAR
STARTCHAR invcircle
ENCODING 9689
SWIDTH 500 0
DWIDTH 16 0
BBX 16 32 0 -6
BITMAP
FFFF
FFFF
FFFF
FFFF
FFFF
FFFF
FFFF
FFFF
FFFF
FFFF
F00F
F00F
C3C3
C3C3
CFF3
CFF3
CFF3
CFF3
C3C3
C3C3
F00F
F00F
FFFF
FFFF
FFFF
FFFF
FFFF
FFFF
FFFF
FFFF
FFFF
FFFF
ENDCHAR
STARTCHAR smileface
ENCODING 9786
SWIDTH 500 0
DWIDTH 16 0
BBX 16 32 0 -6
BITMAP
0000
0000
0000
0000
3FFC
3FFC
6006
6006
C003
C003
CC33
CC33
C003
C003
C003
C003
CFF3
CFF3
C3C3
C3C3
C003
C003
6006
6006
3FFC
3FFC
0000
0000
0000
0000
0000
0000
ENDCHAR
STARTCHAR invsmileface
ENCODING 9787
SWIDTH 500 0
DWIDTH 16 0
BBX 16 32 0 -6
BITMAP
0000
0000
0000
0000
3FFC
3FFC
7FFE
7FFE
FFFF
FFFF
F3CF
F3CF
FFFF
FFFF
FFFF
FFFF
F00F
F00F
FC3F
FC3F
FFFF
FFFF
7FFE
7FFE
3FFC
3FFC
0000
0000
0000
0000
0000
0000
ENDCHAR
STARTCHAR sun
ENCODING 9788
SWIDTH 500 0
DWIDTH 16 0
BBX 16 32 0 -6
BITMAP
0000
0000
0000
0000
0000
0000
03C0
03C0
03C0
03C0
F3CF
F3CF
0FF0
0FF0
FC3F
FC3F
0FF0
0FF0
F3CF
F3CF
03C0
03C0
03C0
03C0
0000
0000
0000
0000
0000
0000
0000
0000
ENDCHAR
STARTCHAR female
ENCODING 9792
SWIDTH 500 0
DWIDTH 16 0
BBX 16 32 0 -6
BITMAP
0000
0000
0000
0000
07E0
07E0
1E78
1E78
3C3C
3C3C
3C3C
3C3C
1E78
1E78
07E0
07E0
03C0
03C0
03C0
03C0
3FFC
3FFC
03C0
03C0
03C0
03C0
0000
0000
0000
0000
0000
0000
ENDCHAR
STARTCHAR male
ENCODING 9794
SWIDTH 500 0
DWIDTH 16 0
BBX 16 32 0 -6
BITMAP
0000
0000
0000
0000
0000
0000
007F
007F
001F
001F
003F
003F
007B
007B
07F0
07F0
1E78
1E78
3C3C
3C3C
3C3C
3C3C
1E78
1E78
07E0
07E0
0000
0000
0000
0000
0000
0000
ENDCHAR
STARTCHAR spade
ENCODING 9824
SWIDTH 500 0
DWIDTH 16 0
BBX 16 32 0 -6
BITMAP
0000
0000
0000
0000
03C0
03C0
0FF0
0FF0
3FFC
3FFC
FFFF
FFFF
FFFF
FFFF
FFFF
FFFF
3FFC
3FFC
03C0
03C0
03C0
03C0
03C0
03C0
0FF0
0FF0
0000
0000
0000
0000
0000
0000
ENDCHAR
STARTCHAR club
ENCODING 9827
SWIDTH 500 0
DWIDTH 16 0
BBX 16 32 0 -6
BITMAP
0000
0000
0000
0000
03C0
03C0
07E0
07E0
07E0
07E0
3C3C
3C3C
7C3E
7C3E
7C3E
7C3E
3C3C
3C3C
03C0
03C0
03C0
03C0
03C0
03C0
0FF0
0FF0
0000
0000
0000
0000
0000
0000
ENDCHAR
STARTCHAR heart
ENCODING 9829
SWIDTH 500 0
DWIDTH 16 0
BBX 16 32 0 -6
BITMAP
0000
0000
0000
0000
0000
0000
1E78
1E78
3FFC
3FFC
7FFE
7FFE
7FFE
7FFE
7FFE
7FFE
3FFC
3FFC
1FF8
1FF8
07E0
07E0
0180
0180
0000
0000
0000
0000
0000
0000
0000
0000
ENDCHAR
STARTCHAR diamond
ENCODING 9830
SWIDTH 500 0
DWIDTH 16 0
BBX 16 32 0 -6
BITMAP
0000
0000
0000
0000
0000
0000
0180
0180
03C0
03C0
07E0
07E0
0FF0
0FF0
1FF8
1FF8
0FF0
0FF0
07E0
07E0
03C0
03C0
0180
0180
0000
0000
0000
0000
0000
0000
0000
0000
ENDCHAR
STARTCHAR musicalnote
ENCODING 9834
SWIDTH 500 0
DWIDTH 16 0
BBX 16 32 0 -6
BITMAP
0000
0000
0000
0000
0FFF
0FFF
0F0F
0F0F
0FFF
0FFF
0F00
0F00
0F00
0F00
0F00
0F00
0F00
0F00
0F00
0F00
3F00
3F00
7F00
7F00
3E00
3E00
0000
0000
0000
0000
0000
0000
ENDCHAR
STARTCHAR musicalnotedbl
ENCODING 9835
SWIDTH 500 0
DWIDTH 16 0
BBX 16 32 0 -6
BITMAP
0000
0000
0000
0000
1FFE
1FFE
1E1E
1E1E
1FFE
1FFE
1E1E
1E1E
1E1E
1E1E
1E1E
1E1E
1E1E
1E1E
1E1E
1E1E
1E3E
1E3E
3E7E
3E7E
7E3C
7E3C
3C00
3C00
0000
0000
0000
0000
ENDCHAR
STARTCHAR uni3044
ENCODING 12356
SWIDTH 500 0
DWIDTH 16 0
BBX 16 32 0 -6
BITMAP
0000
0000
0000
0000
0000
0000
0000
0000
0000
0000
0000
0000
0000
0000
0000
0000
0000
0000
0000
0000
0000
0000
0000
0000
0000
0000
0000
0000
0000
0000
0000
0000
ENDCHAR
STARTCHAR uni3046
ENCODING 12358
SWIDTH 500 0
DWIDTH 16 0
BBX 16 32 0 -6
BITMAP
0000
0000
0000
0000
0000
0000
0000
0000
0000
0000
0000
0000
0000
0000
0000
0000
0000
0000
0000
0000
0000
0000
0000
0000
0000
0000
0000
0000
0000
0000
0000
0000
ENDCHAR
STARTCHAR uni304B
ENCODING 12363
SWIDTH 500 0
DWIDTH 16 0
BBX 16 32 0 -6
BITMAP
0000
0000
0000
0000
0000
0000
0000
0000
0000
0000
0000
0000
0000
0000
0000
0000
0000
0000
0000
0000
0000
0000
0000
0000
0000
0000
0000
0000
0000
0000
0000
0000
ENDCHAR
STARTCHAR uni3057
ENCODING 12375
SWIDTH 500 0
DWIDTH 16 0
BBX 16 32 0 -6
BITMAP
0000
0000
0000
0000
0000
0000
0000
0000
0000
0000
0000
0000
0000
0000
0000
0000
0000
0000
0000
0000
0000
0000
0000
0000
0000
0000
0000
0000
0000
0000
0000
0000
ENDCHAR
STARTCHAR uni306E
ENCODING 12398
SWIDTH 500 0
DWIDTH 16 0
BBX 16 32 0 -6
BITMAP
0000
0000
0000
0000
0000
0000
0000
0000
0000
0000
0000
0000
0000
0000
0000
0000
0000
0000
0000
0000
0000
0000
0000
0000
0000
0000
0000
0000
0000
0000
0000
0000
ENDCHAR
STARTCHAR uni3093
ENCODING 12435
SWIDTH 500 0
DWIDTH 16 0
BBX 16 32 0 -6
BITMAP
0000
0000
0000
0000
0000
0000
0000
0000
0000
0000
0000
0000
0000
0000
0000
0000
0000
0000
0000
0000
0000
0000
0000
0000
0000
0000
0000
0000
0000
0000
0000
0000
ENDCHAR
STARTCHAR .notdef
ENCODING -1
SWIDTH 500 0
DWIDTH 16 0
BBX 15 21 1 0
BITMAP
FFFE
8002
8002
8002
8002
8002
8002
8002
8002
8002
8002
8002
8002
8002
8002
8002
8002
8002
8002
8002
FFFE
ENDCHAR
ENDFONT
