STARTFONT 2.1
FONT Bm437_Wyse700b-16px
SIZE 16 75 75
FONTBOUNDINGBOX 16 16 0 -3
STARTPROPERTIES 3
PIXEL_SIZE 16
FONT_ASCENT 13
FONT_DESCENT 3
ENDPROPERTIES
CHARS 295
STARTCHAR uni0000
ENCODING 0
SWIDTH 1000 0
DWIDTH 16 0
BBX 16 16 0 -3
BITMAP
0000
0000
0000
0000
0000
0000
0000
0000
0000
0000
0000
0000
0000
0000
0000
0000
ENDCHAR
STARTCHAR uni0001
ENCODING 1
SWIDTH 1000 0
DWIDTH 16 0
BBX 16 16 0 -3
BITMAP
0000
0000
3FFC
6006
C003
CC33
C003
C003
CFF3
C3C3
C003
6006
3FFC
0000
0000
0000
ENDCHAR
STARTCHAR uni0002
ENCODING 2
SWIDTH 1000 0
DWIDTH 16 0
BBX 16 16 0 -3
BITMAP
0000
0000
3FFC
7FFE
FFFF
F3CF
FFFF
FFFF
F00F
FC3F
FFFF
7FFE
3FFC
0000
0000
0000
ENDCHAR
STARTCHAR uni0003
ENCODING 3
SWIDTH 1000 0
DWIDTH 16 0
BBX 16 16 0 -3
BITMAP
0000
0000
0000
1E78
3FFC
7FFE
7FFE
7FFE
3FFC
1FF8
07E0
0180
0000
0000
0000
0000
ENDCHAR
STARTCHAR uni0004
ENCODING 4
SWIDTH 1000 0
DWIDTH 16 0
BBX 16 16 0 -3
BITMAP
0000
0000
0000
0180
03C0
07E0
0FF0
1FF8
0FF0
07E0
03C0
0180
0000
0000
0000
0000
ENDCHAR
STARTCHAR uni0005
ENCODING 5
SWIDTH 1000 0
DWIDTH 16 0
BBX 16 16 0 -3
BITMAP
0000
0000
01C0
03E0
03E0
1DDC
3FFE
3FFE
1DDC
01C0
01C0
01C0
07F0
0000
0000
0000
ENDCHAR
STARTCHAR uni0006
ENCODING 6
SWIDTH 1000 0
DWIDTH 16 0
BBX 16 16 0 -3
BITMAP
0000
0000
01C0
07F0
1FFC
7FFF
7FFF
7FFF
1DDC
01C0
01C0
01C0
07F0
0000
0000
0000
ENDCHAR
STARTCHAR uni0007
ENCODING 7
SWIDTH 1000 0
DWIDTH 16 0
BBX 16 16 0 -3
BITMAP
0000
0000
0000
0000
0000
0000
03C0
0FF0
0FF0
03C0
0000
0000
0000
0000
0000
0000
ENDCHAR
STARTCHAR uni0008
ENCODING 8
SWIDTH 1000 0
DWIDTH 16 0
BBX 16 16 0 -3
BITMAP
FFFF
FFFF
FFFF
FFFF
FFFF
FFFF
FC3F
F00F
F00F
FC3F
FFFF
FFFF
FFFF
FFFF
FFFF
FFFF
ENDCHAR
STARTCHAR uni0009
ENCODING 9
SWIDTH 1000 0
DWIDTH 16 0
BBX 16 16 0 -3
BITMAP
0000
0000
0000
0000
0000
0FF0
3C3C
300C
300C
3C3C
0FF0
0000
0000
0000
0000
0000
ENDCHAR
STARTCHAR uni000A
ENCODING 10
SWIDTH 1000 0
DWIDTH 16 0
BBX 16 16 0 -3
BITMAP
FFFF
FFFF
FFFF
FFFF
FFFF
F00F
C3C3
CFF3
CFF3
C3C3
F00F
FFFF
FFFF
FFFF
FFFF
FFFF
ENDCHAR
STARTCHAR uni000B
ENCODING 11
SWIDTH 1000 0
DWIDTH 16 0
BBX 16 16 0 -3
BITMAP
0000
0000
0000
007F
001F
003B
0070
07E0
1C38
381C
381C
1C38
07E0
0000
0000
0000
ENDCHAR
STARTCHAR uni000C
ENCODING 12
SWIDTH 1000 0
DWIDTH 16 0
BBX 16 16 0 -3
BITMAP
0000
0000
03E0
0E38
1C1C
1C1C
0E38
03E0
01C0
01C0
1FFC
01C0
01C0
0000
0000
0000
ENDCHAR
STARTCHAR uni000D
ENCODING 13
SWIDTH 1000 0
DWIDTH 16 0
BBX 16 16 0 -3
BITMAP
0000
0000
0FFF
0E07
0FFF
0E00
0E00
0E00
0E00
0E00
3E00
7E00
3C00
0000
0000
0000
ENDCHAR
STARTCHAR uni000E
ENCODING 14
SWIDTH 1000 0
DWIDTH 16 0
BBX 16 16 0 -3
BITMAP
0000
0000
1FFE
1C0E
1FFE
1C0E
1C0E
1C0E
1C0E
1C0E
1C1E
3C3E
7C1C
3800
0000
0000
ENDCHAR
STARTCHAR uni000F
ENCODING 15
SWIDTH 1000 0
DWIDTH 16 0
BBX 16 16 0 -3
BITMAP
0000
0000
0000
01C0
39CE
1DDC
0FF8
7E3F
0FF8
1DDC
39CE
01C0
0000
0000
0000
0000
ENDCHAR
STARTCHAR uni0010
ENCODING 16
SWIDTH 1000 0
DWIDTH 16 0
BBX 16 16 0 -3
BITMAP
0000
0000
3000
3C00
3F00
3FC0
3FF0
3FFC
3FF0
3FC0
3F00
3C00
3000
0000
0000
0000
ENDCHAR
STARTCHAR uni0011
ENCODING 17
SWIDTH 1000 0
DWIDTH 16 0
BBX 16 16 0 -3
BITMAP
0000
0000
000C
003C
00FC
03FC
0FFC
3FFC
0FFC
03FC
00FC
003C
000C
0000
0000
0000
ENDCHAR
STARTCHAR uni0012
ENCODING 18
SWIDTH 1000 0
DWIDTH 16 0
BBX 16 16 0 -3
BITMAP
0000
0000
01C0
07F0
1DDC
01C0
01C0
01C0
01C0
01C0
1DDC
07F0
01C0
0000
0000
0000
ENDCHAR
STARTCHAR uni0013
ENCODING 19
SWIDTH 1000 0
DWIDTH 16 0
BBX 16 16 0 -3
BITMAP
0000
0000
0E38
0E38
0E38
0E38
0E38
0E38
0E38
0E38
0000
0E38
0E38
0000
0000
0000
ENDCHAR
STARTCHAR uni0014
ENCODING 20
SWIDTH 1000 0
DWIDTH 16 0
BBX 16 16 0 -3
BITMAP
0000
0000
1FFF
71CE
71CE
71CE
71CE
1FCE
01CE
01CE
01CE
01CE
01CE
0000
0000
0000
ENDCHAR
STARTCHAR uni0015
ENCODING 21
SWIDTH 1000 0
DWIDTH 16 0
BBX 16 16 0 -3
BITMAP
0000
0FF8
380E
0E00
03E0
0E38
380E
380E
0E38
03E0
0038
380E
0FF8
0000
0000
0000
ENDCHAR
STARTCHAR uni0016
ENCODING 22
SWIDTH 1000 0
DWIDTH 16 0
BBX 16 16 0 -3
BITMAP
0000
0000
0000
0000
0000
0000
0000
0000
0000
0000
3FFF
3FFF
3FFF
0000
0000
0000
ENDCHAR
STARTCHAR uni0017
ENCODING 23
SWIDTH 1000 0
DWIDTH 16 0
BBX 16 16 0 -3
BITMAP
0000
0000
01C0
07F0
1DDC
01C0
01C0
01C0
01C0
01C0
1DDC
07F0
01C0
3FFE
0000
0000
ENDCHAR
STARTCHAR uni0018
ENCODING 24
SWIDTH 1000 0
DWIDTH 16 0
BBX 16 16 0 -3
BITMAP
0000
0000
01C0
07F0
1DDC
01C0
01C0
01C0
01C0
01C0
01C0
01C0
01C0
0000
0000
0000
ENDCHAR
STARTCHAR uni0019
ENCODING 25
SWIDTH 1000 0
DWIDTH 16 0
BBX 16 16 0 -3
BITMAP
0000
0000
01C0
01C0
01C0
01C0
01C0
01C0
01C0
01C0
1DDC
07F0
01C0
0000
0000
0000
ENDCHAR
STARTCHAR uni001A
ENCODING 26
SWIDTH 1000 0
DWIDTH 16 0
BBX 16 16 0 -3
BITMAP
0000
0000
0000
0000
0000
0070
001C
3FFF
001C
0070
0000
0000
0000
0000
0000
0000
ENDCHAR
STARTCHAR uni001B
ENCODING 27
SWIDTH 1000 0
DWIDTH 16 0
BBX 16 16 0 -3
BITMAP
0000
0000
0000
0000
0000
0380
0E00
3FFF
0E00
0380
0000
0000
0000
0000
0000
0000
ENDCHAR
STARTCHAR uni001C
ENCODING 28
SWIDTH 1000 0
DWIDTH 16 0
BBX 16 16 0 -3
BITMAP
0000
0000
0000
0000
0000
0000
3800
3800
3800
3FFF
0000
0000
0000
0000
0000
0000
ENDCHAR
STARTCHAR uni001D
ENCODING 29
SWIDTH 1000 0
DWIDTH 16 0
BBX 16 16 0 -3
BITMAP
0000
0000
0000
0000
0000
1C38
381C
7FFE
381C
1C38
0000
0000
0000
0000
0000
0000
ENDCHAR
STARTCHAR uni001E
ENCODING 30
SWIDTH 1000 0
DWIDTH 16 0
BBX 16 16 0 -3
BITMAP
0000
0000
0000
0000
0180
03C0
07E0
0FF0
1FF8
3FFC
7FFE
0000
0000
0000
0000
0000
ENDCHAR
STARTCHAR uni001F
ENCODING 31
SWIDTH 1000 0
DWIDTH 16 0
BBX 16 16 0 -3
BITMAP
0000
0000
0000
0000
7FFE
3FFC
1FF8
0FF0
07E0
03C0
0180
0000
0000
0000
0000
0000
ENDCHAR
STARTCHAR space
ENCODING 32
SWIDTH 1000 0
DWIDTH 16 0
BBX 16 16 0 -3
BITMAP
0000
0000
0000
0000
0000
0000
0000
0000
0000
0000
0000
0000
0000
0000
0000
0000
ENDCHAR
STARTCHAR exclam
ENCODING 33
SWIDTH 1000 0
DWIDTH 16 0
BBX 16 16 0 -3
BITMAP
0000
0000
01C0
01C0
01C0
01C0
01C0
01C0
01C0
01C0
0000
01C0
01C0
0000
0000
0000
ENDCHAR
STARTCHAR quotedbl
ENCODING 34
SWIDTH 1000 0
DWIDTH 16 0
BBX 16 16 0 -3
BITMAP
0000
1C38
1C38
1C38
1C38
0000
0000
0000
0000
0000
0000
0000
0000
0000
0000
0000
ENDCHAR
STARTCHAR numbersign
ENCODING 35
SWIDTH 1000 0
DWIDTH 16 0
BBX 16 16 0 -3
BITMAP
0000
0000
0000
1C38
1C38
7FFE
1C38
1C38
1C38
1C38
7FFE
1C38
1C38
0000
0000
0000
ENDCHAR
STARTCHAR dollar
ENCODING 36
SWIDTH 1000 0
DWIDTH 16 0
BBX 16 16 0 -3
BITMAP
0000
0180
0FF0
399C
718E
7180
3980
0FF0
019C
018E
718E
399C
0FF0
0180
0000
0000
ENDCHAR
STARTCHAR percent
ENCODING 37
SWIDTH 1000 0
DWIDTH 16 0
BBX 16 16 0 -3
BITMAP
0000
0000
0000
0000
1E1C
1E38
0070
00E0
01C0
0380
0700
0E3C
1C3C
0000
0000
0000
ENDCHAR
STARTCHAR ampersand
ENCODING 38
SWIDTH 1000 0
DWIDTH 16 0
BBX 16 16 0 -3
BITMAP
0000
0000
07C0
1C70
3838
1C70
07C0
0FCE
38FC
7078
7078
38FC
0FCE
0000
0000
0000
ENDCHAR
STARTCHAR quotesingle
ENCODING 39
SWIDTH 1000 0
DWIDTH 16 0
BBX 16 16 0 -3
BITMAP
0000
00E0
01C0
0380
0700
0000
0000
0000
0000
0000
0000
0000
0000
0000
0000
0000
ENDCHAR
STARTCHAR parenleft
ENCODING 40
SWIDTH 1000 0
DWIDTH 16 0
BBX 16 16 0 -3
BITMAP
0000
0000
00E0
01C0
0380
0700
0700
0700
0700
0700
0380
01C0
00E0
0000
0000
0000
ENDCHAR
STARTCHAR parenright
ENCODING 41
SWIDTH 1000 0
DWIDTH 16 0
BBX 16 16 0 -3
BITMAP
0000
0000
0700
0380
01C0
00E0
00E0
00E0
00E0
00E0
01C0
0380
0700
0000
0000
0000
ENDCHAR
STARTCHAR asterisk
ENCODING 42
SWIDTH 1000 0
DWIDTH 16 0
BBX 16 16 0 -3
BITMAP
0000
0000
0000
0000
0000
0E38
03E0
3FFE
03E0
0E38
0000
0000
0000
0000
0000
0000
ENDCHAR
STARTCHAR plus
ENCODING 43
SWIDTH 1000 0
DWIDTH 16 0
BBX 16 16 0 -3
BITMAP
0000
0000
0000
0000
01C0
01C0
01C0
3FFE
01C0
01C0
01C0
0000
0000
0000
0000
0000
ENDCHAR
STARTCHAR comma
ENCODING 44
SWIDTH 1000 0
DWIDTH 16 0
BBX 16 16 0 -3
BITMAP
0000
0000
0000
0000
0000
0000
0000
0000
0000
0000
0000
03C0
03C0
0380
0700
0000
ENDCHAR
STARTCHAR hyphen
ENCODING 45
SWIDTH 1000 0
DWIDTH 16 0
BBX 16 16 0 -3
BITMAP
0000
0000
0000
0000
0000
0000
0000
3FFE
0000
0000
0000
0000
0000
0000
0000
0000
ENDCHAR
STARTCHAR period
ENCODING 46
SWIDTH 1000 0
DWIDTH 16 0
BBX 16 16 0 -3
BITMAP
0000
0000
0000
0000
0000
0000
0000
0000
0000
0000
0000
03C0
03C0
0000
0000
0000
ENDCHAR
STARTCHAR slash
ENCODING 47
SWIDTH 1000 0
DWIDTH 16 0
BBX 16 16 0 -3
BITMAP
0000
0000
0000
001C
0038
0070
00E0
01C0
0380
0700
0E00
1C00
0000
0000
0000
0000
ENDCHAR
STARTCHAR zero
ENCODING 48
SWIDTH 1000 0
DWIDTH 16 0
BBX 16 16 0 -3
BITMAP
0000
0000
07E0
1C38
383C
387C
38DC
399C
3B1C
3E1C
3C1C
1C38
07E0
0000
0000
0000
ENDCHAR
STARTCHAR one
ENCODING 49
SWIDTH 1000 0
DWIDTH 16 0
BBX 16 16 0 -3
BITMAP
0000
0000
01C0
03C0
0FC0
01C0
01C0
01C0
01C0
01C0
01C0
01C0
01C0
0000
0000
0000
ENDCHAR
STARTCHAR two
ENCODING 50
SWIDTH 1000 0
DWIDTH 16 0
BBX 16 16 0 -3
BITMAP
0000
0000
0FF0
381C
000E
000E
001C
0070
01C0
0700
1C00
3800
3FFE
0000
0000
0000
ENDCHAR
STARTCHAR three
ENCODING 51
SWIDTH 1000 0
DWIDTH 16 0
BBX 16 16 0 -3
BITMAP
0000
0000
0FF0
381C
000E
000E
001C
01F0
001C
000E
000E
381C
0FF0
0000
0000
0000
ENDCHAR
STARTCHAR four
ENCODING 52
SWIDTH 1000 0
DWIDTH 16 0
BBX 16 16 0 -3
BITMAP
0000
0000
01F0
03F0
0770
0E70
1C70
3870
3FFC
0070
0070
0070
0070
0000
0000
0000
ENDCHAR
STARTCHAR five
ENCODING 53
SWIDTH 1000 0
DWIDTH 16 0
BBX 16 16 0 -3
BITMAP
0000
0000
3FFE
3800
3800
3800
3FF0
001C
000E
000E
000E
381C
0FF0
0000
0000
0000
ENDCHAR
STARTCHAR six
ENCODING 54
SWIDTH 1000 0
DWIDTH 16 0
BBX 16 16 0 -3
BITMAP
0000
0000
07F0
1C00
3800
3800
3800
3FF0
381C
380E
380E
1C1C
07F0
0000
0000
0000
ENDCHAR
STARTCHAR seven
ENCODING 55
SWIDTH 1000 0
DWIDTH 16 0
BBX 16 16 0 -3
BITMAP
0000
0000
3FF8
0038
0038
0070
00E0
01C0
0380
0380
0380
0380
0380
0000
0000
0000
ENDCHAR
STARTCHAR eight
ENCODING 56
SWIDTH 1000 0
DWIDTH 16 0
BBX 16 16 0 -3
BITMAP
0000
0000
07F0
1C1C
380E
380E
1C1C
07F0
1C1C
380E
380E
1C1C
07F0
0000
0000
0000
ENDCHAR
STARTCHAR nine
ENCODING 57
SWIDTH 1000 0
DWIDTH 16 0
BBX 16 16 0 -3
BITMAP
0000
0000
07F0
1C1C
380E
380E
1C0E
07FE
000E
000E
000E
001C
0FF0
0000
0000
0000
ENDCHAR
STARTCHAR colon
ENCODING 58
SWIDTH 1000 0
DWIDTH 16 0
BBX 16 16 0 -3
BITMAP
0000
0000
0000
0000
0380
0380
0000
0000
0000
0000
0380
0380
0000
0000
0000
0000
ENDCHAR
STARTCHAR semicolon
ENCODING 59
SWIDTH 1000 0
DWIDTH 16 0
BBX 16 16 0 -3
BITMAP
0000
0000
0000
0000
0380
0380
0000
0000
0000
0000
0380
0380
0700
0000
0000
0000
ENDCHAR
STARTCHAR less
ENCODING 60
SWIDTH 1000 0
DWIDTH 16 0
BBX 16 16 0 -3
BITMAP
0000
0000
00E0
01C0
0380
0700
0E00
1C00
0E00
0700
0380
01C0
00E0
0000
0000
0000
ENDCHAR
STARTCHAR equal
ENCODING 61
SWIDTH 1000 0
DWIDTH 16 0
BBX 16 16 0 -3
BITMAP
0000
0000
0000
0000
0000
0000
3FFC
0000
0000
3FFC
0000
0000
0000
0000
0000
0000
ENDCHAR
STARTCHAR greater
ENCODING 62
SWIDTH 1000 0
DWIDTH 16 0
BBX 16 16 0 -3
BITMAP
0000
0000
0700
0380
01C0
00E0
0070
0038
0070
00E0
01C0
0380
0700
0000
0000
0000
ENDCHAR
STARTCHAR question
ENCODING 63
SWIDTH 1000 0
DWIDTH 16 0
BBX 16 16 0 -3
BITMAP
0000
0000
07E0
1C38
381C
0038
0070
00E0
01C0
01C0
0000
01C0
01C0
0000
0000
0000
ENDCHAR
STARTCHAR at
ENCODING 64
SWIDTH 1000 0
DWIDTH 16 0
BBX 16 16 0 -3
BITMAP
0000
0000
0FF0
381C
700E
71FE
738E
738E
738E
71FC
7000
3800
0FFC
0000
0000
0000
ENDCHAR
STARTCHAR A
ENCODING 65
SWIDTH 1000 0
DWIDTH 16 0
BBX 16 16 0 -3
BITMAP
0000
0000
03C0
07E0
0E70
1C38
381C
381C
3FFC
381C
381C
381C
381C
0000
0000
0000
ENDCHAR
STARTCHAR B
ENCODING 66
SWIDTH 1000 0
DWIDTH 16 0
BBX 16 16 0 -3
BITMAP
0000
0000
3FF0
381C
380E
380E
381C
3FF0
381C
380E
380E
381C
3FF0
0000
0000
0000
ENDCHAR
STARTCHAR C
ENCODING 67
SWIDTH 1000 0
DWIDTH 16 0
BBX 16 16 0 -3
BITMAP
0000
0000
07F0
1C1C
380E
3800
3800
3800
3800
3800
380E
1C1C
07F0
0000
0000
0000
ENDCHAR
STARTCHAR D
ENCODING 68
SWIDTH 1000 0
DWIDTH 16 0
BBX 16 16 0 -3
BITMAP
0000
0000
3FF0
381C
380E
380E
380E
380E
380E
380E
380E
381C
3FF0
0000
0000
0000
ENDCHAR
STARTCHAR E
ENCODING 69
SWIDTH 1000 0
DWIDTH 16 0
BBX 16 16 0 -3
BITMAP
0000
0000
3FFC
3800
3800
3800
3800
3FE0
3800
3800
3800
3800
3FFC
0000
0000
0000
ENDCHAR
STARTCHAR F
ENCODING 70
SWIDTH 1000 0
DWIDTH 16 0
BBX 16 16 0 -3
BITMAP
0000
0000
3FFC
3800
3800
3800
3800
3FE0
3800
3800
3800
3800
3800
0000
0000
0000
ENDCHAR
STARTCHAR G
ENCODING 71
SWIDTH 1000 0
DWIDTH 16 0
BBX 16 16 0 -3
BITMAP
0000
0000
07F0
1C1C
380E
3800
3800
3800
383E
380E
380E
1C1C
07F0
0000
0000
0000
ENDCHAR
STARTCHAR H
ENCODING 72
SWIDTH 1000 0
DWIDTH 16 0
BBX 16 16 0 -3
BITMAP
0000
0000
380E
380E
380E
380E
380E
3FFE
380E
380E
380E
380E
380E
0000
0000
0000
ENDCHAR
STARTCHAR I
ENCODING 73
SWIDTH 1000 0
DWIDTH 16 0
BBX 16 16 0 -3
BITMAP
0000
0000
01C0
01C0
01C0
01C0
01C0
01C0
01C0
01C0
01C0
01C0
01C0
0000
0000
0000
ENDCHAR
STARTCHAR J
ENCODING 74
SWIDTH 1000 0
DWIDTH 16 0
BBX 16 16 0 -3
BITMAP
0000
0000
001C
001C
001C
001C
001C
001C
001C
001C
1C1C
0E38
03E0
0000
0000
0000
ENDCHAR
STARTCHAR K
ENCODING 75
SWIDTH 1000 0
DWIDTH 16 0
BBX 16 16 0 -3
BITMAP
0000
0000
1C38
1C70
1CE0
1DC0
1F80
1F80
1DC0
1CE0
1C70
1C38
1C1C
0000
0000
0000
ENDCHAR
STARTCHAR L
ENCODING 76
SWIDTH 1000 0
DWIDTH 16 0
BBX 16 16 0 -3
BITMAP
0000
0000
3800
3800
3800
3800
3800
3800
3800
3800
3800
3800
3FFC
0000
0000
0000
ENDCHAR
STARTCHAR M
ENCODING 77
SWIDTH 1000 0
DWIDTH 16 0
BBX 16 16 0 -3
BITMAP
0000
0000
781E
7C3E
7E7E
77EE
73CE
718E
700E
700E
700E
700E
700E
0000
0000
0000
ENDCHAR
STARTCHAR N
ENCODING 78
SWIDTH 1000 0
DWIDTH 16 0
BBX 16 16 0 -3
BITMAP
0000
0000
380E
3C0E
3E0E
3F0E
3B8E
39CE
38EE
387E
383E
381E
380E
0000
0000
0000
ENDCHAR
STARTCHAR O
ENCODING 79
SWIDTH 1000 0
DWIDTH 16 0
BBX 16 16 0 -3
BITMAP
0000
0000
07F0
1C1C
380E
380E
380E
380E
380E
380E
380E
1C1C
07F0
0000
0000
0000
ENDCHAR
STARTCHAR P
ENCODING 80
SWIDTH 1000 0
DWIDTH 16 0
BBX 16 16 0 -3
BITMAP
0000
0000
3FF0
381C
380E
380E
381C
3FF0
3800
3800
3800
3800
3800
0000
0000
0000
ENDCHAR
STARTCHAR Q
ENCODING 81
SWIDTH 1000 0
DWIDTH 16 0
BBX 16 16 0 -3
BITMAP
0000
0000
07F0
1C1C
380E
380E
380E
380E
380E
380E
38EE
1C7C
07F8
001C
0000
0000
ENDCHAR
STARTCHAR R
ENCODING 82
SWIDTH 1000 0
DWIDTH 16 0
BBX 16 16 0 -3
BITMAP
0000
0000
3FF0
381C
380E
380E
381C
3FF0
38E0
3870
3838
381C
380E
0000
0000
0000
ENDCHAR
STARTCHAR S
ENCODING 83
SWIDTH 1000 0
DWIDTH 16 0
BBX 16 16 0 -3
BITMAP
0000
0000
0FF0
381C
700E
7000
3800
0FF0
001C
000E
700E
381C
0FF0
0000
0000
0000
ENDCHAR
STARTCHAR T
ENCODING 84
SWIDTH 1000 0
DWIDTH 16 0
BBX 16 16 0 -3
BITMAP
0000
0000
3FFE
01C0
01C0
01C0
01C0
01C0
01C0
01C0
01C0
01C0
01C0
0000
0000
0000
ENDCHAR
STARTCHAR U
ENCODING 85
SWIDTH 1000 0
DWIDTH 16 0
BBX 16 16 0 -3
BITMAP
0000
0000
380E
380E
380E
380E
380E
380E
380E
380E
380E
1C1C
07F0
0000
0000
0000
ENDCHAR
STARTCHAR V
ENCODING 86
SWIDTH 1000 0
DWIDTH 16 0
BBX 16 16 0 -3
BITMAP
0000
0000
381C
381C
381C
381C
381C
381C
381C
1C38
0E70
07E0
03C0
0000
0000
0000
ENDCHAR
STARTCHAR W
ENCODING 87
SWIDTH 1000 0
DWIDTH 16 0
BBX 16 16 0 -3
BITMAP
0000
0000
700E
700E
700E
700E
700E
700E
718E
73CE
77EE
3E7C
1C38
0000
0000
0000
ENDCHAR
STARTCHAR X
ENCODING 88
SWIDTH 1000 0
DWIDTH 16 0
BBX 16 16 0 -3
BITMAP
0000
0000
381C
381C
1C38
0E70
07E0
03C0
07E0
0E70
1C38
381C
381C
0000
0000
0000
ENDCHAR
STARTCHAR Y
ENCODING 89
SWIDTH 1000 0
DWIDTH 16 0
BBX 16 16 0 -3
BITMAP
0000
0000
380E
1C1C
0E38
0770
03E0
01C0
01C0
01C0
01C0
01C0
01C0
0000
0000
0000
ENDCHAR
STARTCHAR Z
ENCODING 90
SWIDTH 1000 0
DWIDTH 16 0
BBX 16 16 0 -3
BITMAP
0000
0000
3FFE
001C
0038
0070
00E0
01C0
0380
0700
0E00
1C00
3FFE
0000
0000
0000
ENDCHAR
STARTCHAR bracketleft
ENCODING 91
SWIDTH 1000 0
DWIDTH 16 0
BBX 16 16 0 -3
BITMAP
0000
0000
07F0
0700
0700
0700
0700
0700
0700
0700
0700
0700
07F0
0000
0000
0000
ENDCHAR
STARTCHAR backslash
ENCODING 92
SWIDTH 1000 0
DWIDTH 16 0
BBX 16 16 0 -3
BITMAP
0000
0000
0000
1C00
0E00
0700
0380
01C0
00E0
0070
0038
001C
0000
0000
0000
0000
ENDCHAR
STARTCHAR bracketright
ENCODING 93
SWIDTH 1000 0
DWIDTH 16 0
BBX 16 16 0 -3
BITMAP
0000
0000
07F0
0070
0070
0070
0070
0070
0070
0070
0070
0070
07F0
0000
0000
0000
ENDCHAR
STARTCHAR asciicircum
ENCODING 94
SWIDTH 1000 0
DWIDTH 16 0
BBX 16 16 0 -3
BITMAP
03C0
07E0
0E70
1C38
381C
0000
0000
0000
0000
0000
0000
0000
0000
0000
0000
0000
ENDCHAR
STARTCHAR underscore
ENCODING 95
SWIDTH 1000 0
DWIDTH 16 0
BBX 16 16 0 -3
BITMAP
0000
0000
0000
0000
0000
0000
0000
0000
0000
0000
0000
0000
0000
0000
FFFF
0000
ENDCHAR
STARTCHAR grave
ENCODING 96
SWIDTH 1000 0
DWIDTH 16 0
BBX 16 16 0 -3
BITMAP
0000
0700
0380
01C0
00E0
0000
0000
0000
0000
0000
0000
0000
0000
0000
0000
0000
ENDCHAR
STARTCHAR a
ENCODING 97
SWIDTH 1000 0
DWIDTH 16 0
BBX 16 16 0 -3
BITMAP
0000
0000
0000
0000
0000
0000
0FF8
000E
0FFE
380E
380E
380E
0FFE
0000
0000
0000
ENDCHAR
STARTCHAR b
ENCODING 98
SWIDTH 1000 0
DWIDTH 16 0
BBX 16 16 0 -3
BITMAP
0000
0000
3800
3800
3800
3800
3FF0
381C
380E
380E
380E
380E
3FF8
0000
0000
0000
ENDCHAR
STARTCHAR c
ENCODING 99
SWIDTH 1000 0
DWIDTH 16 0
BBX 16 16 0 -3
BITMAP
0000
0000
0000
0000
0000
0000
0FF8
380E
3800
3800
3800
380E
0FF8
0000
0000
0000
ENDCHAR
STARTCHAR d
ENCODING 100
SWIDTH 1000 0
DWIDTH 16 0
BBX 16 16 0 -3
BITMAP
0000
0000
000E
000E
000E
000E
07FE
1C0E
380E
380E
380E
380E
0FFE
0000
0000
0000
ENDCHAR
STARTCHAR e
ENCODING 101
SWIDTH 1000 0
DWIDTH 16 0
BBX 16 16 0 -3
BITMAP
0000
0000
0000
0000
0000
0000
0FF8
380E
380E
3FFE
3800
3800
0FFC
0000
0000
0000
ENDCHAR
STARTCHAR f
ENCODING 102
SWIDTH 1000 0
DWIDTH 16 0
BBX 16 16 0 -3
BITMAP
0000
0000
00F8
0380
0380
0380
0380
0FF0
0380
0380
0380
0380
0380
0000
0000
0000
ENDCHAR
STARTCHAR g
ENCODING 103
SWIDTH 1000 0
DWIDTH 16 0
BBX 16 16 0 -3
BITMAP
0000
0000
0000
0000
0000
0000
0FF8
380E
380E
380E
380E
0FFE
000E
000E
1FF8
0000
ENDCHAR
STARTCHAR h
ENCODING 104
SWIDTH 1000 0
DWIDTH 16 0
BBX 16 16 0 -3
BITMAP
0000
0000
3800
3800
3800
3800
3BF8
3C0E
380E
380E
380E
380E
380E
0000
0000
0000
ENDCHAR
STARTCHAR i
ENCODING 105
SWIDTH 1000 0
DWIDTH 16 0
BBX 16 16 0 -3
BITMAP
0000
0000
0000
01C0
01C0
0000
01C0
01C0
01C0
01C0
01C0
01C0
01C0
0000
0000
0000
ENDCHAR
STARTCHAR j
ENCODING 106
SWIDTH 1000 0
DWIDTH 16 0
BBX 16 16 0 -3
BITMAP
0000
0000
0000
0070
0070
0000
0070
0070
0070
0070
0070
0070
0070
00E0
0F80
0000
ENDCHAR
STARTCHAR k
ENCODING 107
SWIDTH 1000 0
DWIDTH 16 0
BBX 16 16 0 -3
BITMAP
0000
0000
0E00
0E00
0E00
0E00
0E38
0E70
0EE0
0FC0
0EE0
0E70
0E38
0000
0000
0000
ENDCHAR
STARTCHAR l
ENCODING 108
SWIDTH 1000 0
DWIDTH 16 0
BBX 16 16 0 -3
BITMAP
0000
0000
01C0
01C0
01C0
01C0
01C0
01C0
01C0
01C0
01C0
01C0
01C0
0000
0000
0000
ENDCHAR
STARTCHAR m
ENCODING 109
SWIDTH 1000 0
DWIDTH 16 0
BBX 16 16 0 -3
BITMAP
0000
0000
0000
0000
0000
0000
3E78
39CE
39CE
39CE
39CE
39CE
39CE
0000
0000
0000
ENDCHAR
STARTCHAR n
ENCODING 110
SWIDTH 1000 0
DWIDTH 16 0
BBX 16 16 0 -3
BITMAP
0000
0000
0000
0000
0000
0000
3FE0
3838
381C
381C
381C
381C
381C
0000
0000
0000
ENDCHAR
STARTCHAR o
ENCODING 111
SWIDTH 1000 0
DWIDTH 16 0
BBX 16 16 0 -3
BITMAP
0000
0000
0000
0000
0000
0000
07F0
1C1C
380E
380E
380E
1C1C
07F0
0000
0000
0000
ENDCHAR
STARTCHAR p
ENCODING 112
SWIDTH 1000 0
DWIDTH 16 0
BBX 16 16 0 -3
BITMAP
0000
0000
0000
0000
0000
0000
3FF0
381C
380E
380E
381C
3FF0
3800
3800
3800
0000
ENDCHAR
STARTCHAR q
ENCODING 113
SWIDTH 1000 0
DWIDTH 16 0
BBX 16 16 0 -3
BITMAP
0000
0000
0000
0000
0000
0000
07FE
1C0E
380E
380E
1C0E
07FE
000E
000E
000E
0000
ENDCHAR
STARTCHAR r
ENCODING 114
SWIDTH 1000 0
DWIDTH 16 0
BBX 16 16 0 -3
BITMAP
0000
0000
0000
0000
0000
0000
3FF0
381C
3800
3800
3800
3800
3800
0000
0000
0000
ENDCHAR
STARTCHAR s
ENCODING 115
SWIDTH 1000 0
DWIDTH 16 0
BBX 16 16 0 -3
BITMAP
0000
0000
0000
0000
0000
0000
0FFC
3800
3800
0FF8
000E
000E
1FF8
0000
0000
0000
ENDCHAR
STARTCHAR t
ENCODING 116
SWIDTH 1000 0
DWIDTH 16 0
BBX 16 16 0 -3
BITMAP
0000
0000
01C0
01C0
01C0
01C0
1FFC
01C0
01C0
01C0
01C0
01C0
01C0
0000
0000
0000
ENDCHAR
STARTCHAR u
ENCODING 117
SWIDTH 1000 0
DWIDTH 16 0
BBX 16 16 0 -3
BITMAP
0000
0000
0000
0000
0000
0000
381C
381C
381C
381C
381C
381C
0FFC
0000
0000
0000
ENDCHAR
STARTCHAR v
ENCODING 118
SWIDTH 1000 0
DWIDTH 16 0
BBX 16 16 0 -3
BITMAP
0000
0000
0000
0000
0000
0000
700E
381C
1C38
0E70
07E0
03C0
0180
0000
0000
0000
ENDCHAR
STARTCHAR w
ENCODING 119
SWIDTH 1000 0
DWIDTH 16 0
BBX 16 16 0 -3
BITMAP
0000
0000
0000
0000
0000
0000
380E
380E
380E
39CE
3BEE
1F7C
0E38
0000
0000
0000
ENDCHAR
STARTCHAR x
ENCODING 120
SWIDTH 1000 0
DWIDTH 16 0
BBX 16 16 0 -3
BITMAP
0000
0000
0000
0000
0000
0000
1C38
0E70
07E0
03C0
07E0
0E70
1C38
0000
0000
0000
ENDCHAR
STARTCHAR y
ENCODING 121
SWIDTH 1000 0
DWIDTH 16 0
BBX 16 16 0 -3
BITMAP
0000
0000
0000
0000
0000
0000
380E
1C1C
0E38
0770
03E0
01C0
0380
0700
0E00
0000
ENDCHAR
STARTCHAR z
ENCODING 122
SWIDTH 1000 0
DWIDTH 16 0
BBX 16 16 0 -3
BITMAP
0000
0000
0000
0000
0000
0000
3FFE
001C
0070
01C0
0700
1C00
3FFE
0000
0000
0000
ENDCHAR
STARTCHAR braceleft
ENCODING 123
SWIDTH 1000 0
DWIDTH 16 0
BBX 16 16 0 -3
BITMAP
0000
0000
00F8
01C0
0380
0380
0380
1E00
0380
0380
0380
01C0
00F8
0000
0000
0000
ENDCHAR
STARTCHAR bar
ENCODING 124
SWIDTH 1000 0
DWIDTH 16 0
BBX 16 16 0 -3
BITMAP
0000
0000
01C0
01C0
01C0
01C0
01C0
0000
01C0
01C0
01C0
01C0
01C0
0000
0000
0000
ENDCHAR
STARTCHAR braceright
ENCODING 125
SWIDTH 1000 0
DWIDTH 16 0
BBX 16 16 0 -3
BITMAP
0000
0000
1F00
0380
01C0
01C0
01C0
0078
01C0
01C0
01C0
0380
1F00
0000
0000
0000
ENDCHAR
STARTCHAR asciitilde
ENCODING 126
SWIDTH 1000 0
DWIDTH 16 0
BBX 16 16 0 -3
BITMAP
0000
0000
079E
3CF0
0000
0000
0000
0000
0000
0000
0000
0000
0000
0000
0000
0000
ENDCHAR
STARTCHAR uni007F
ENCODING 127
SWIDTH 1000 0
DWIDTH 16 0
BBX 16 16 0 -3
BITMAP
0000
0000
0000
0000
01C0
0770
1C1C
7007
7007
7FFF
0000
0000
0000
0000
0000
0000
ENDCHAR
STARTCHAR uni00A0
ENCODING 160
SWIDTH 1000 0
DWIDTH 16 0
BBX 16 16 0 -3
BITMAP
0000
0000
0000
0000
0000
0000
0000
0000
0000
0000
0000
0000
0000
0000
0000
0000
ENDCHAR
STARTCHAR exclamdown
ENCODING 161
SWIDTH 1000 0
DWIDTH 16 0
BBX 16 16 0 -3
BITMAP
0000
0000
01C0
01C0
0000
01C0
01C0
01C0
01C0
01C0
01C0
01C0
01C0
0000
0000
0000
ENDCHAR
STARTCHAR cent
ENCODING 162
SWIDTH 1000 0
DWIDTH 16 0
BBX 16 16 0 -3
BITMAP
0000
0000
01C0
01C0
0FF8
380E
3800
3800
3800
381E
0FF8
01C0
01C0
0000
0000
0000
ENDCHAR
STARTCHAR sterling
ENCODING 163
SWIDTH 1000 0
DWIDTH 16 0
BBX 16 16 0 -3
BITMAP
0000
0000
01F0
071C
0700
0700
1FC0
0700
0700
0700
0700
3F0E
3FF8
0000
0000
0000
ENDCHAR
STARTCHAR yen
ENCODING 165
SWIDTH 1000 0
DWIDTH 16 0
BBX 16 16 0 -3
BITMAP
0000
0000
380E
1C1C
0E38
0770
03E0
3FFE
01C0
3FFE
01C0
01C0
01C0
0000
0000
0000
ENDCHAR
STARTCHAR section
ENCODING 167
SWIDTH 1000 0
DWIDTH 16 0
BBX 16 16 0 -3
BITMAP
0000
0FF8
380E
0E00
03E0
0E38
380E
380E
0E38
03E0
0038
380E
0FF8
0000
0000
0000
ENDCHAR
STARTCHAR ordfeminine
ENCODING 170
SWIDTH 1000 0
DWIDTH 16 0
BBX 16 16 0 -3
BITMAP
0000
0000
0FF0
3870
3870
0FFC
0000
3FFC
0000
0000
0000
0000
0000
0000
0000
0000
ENDCHAR
STARTCHAR guillemotleft
ENCODING 171
SWIDTH 1000 0
DWIDTH 16 0
BBX 16 16 0 -3
BITMAP
0000
0000
0000
0000
0000
038E
0E38
38E0
0E38
038E
0000
0000
0000
0000
0000
0000
ENDCHAR
STARTCHAR logicalnot
ENCODING 172
SWIDTH 1000 0
DWIDTH 16 0
BBX 16 16 0 -3
BITMAP
0000
0000
0000
0000
0000
0000
0000
3FFF
0007
0007
0007
0000
0000
0000
0000
0000
ENDCHAR
STARTCHAR degree
ENCODING 176
SWIDTH 1000 0
DWIDTH 16 0
BBX 16 16 0 -3
BITMAP
0000
0FC0
3870
3870
0FC0
0000
0000
0000
0000
0000
0000
0000
0000
0000
0000
0000
ENDCHAR
STARTCHAR plusminus
ENCODING 177
SWIDTH 1000 0
DWIDTH 16 0
BBX 16 16 0 -3
BITMAP
0000
0000
0000
01C0
01C0
01C0
3FFE
01C0
01C0
01C0
0000
3FFE
0000
0000
0000
0000
ENDCHAR
STARTCHAR uni00B2
ENCODING 178
SWIDTH 1000 0
DWIDTH 16 0
BBX 16 16 0 -3
BITMAP
0000
3F00
E1C0
01C0
0700
1C00
7000
FFC0
0000
0000
0000
0000
0000
0000
0000
0000
ENDCHAR
STARTCHAR mu
ENCODING 181
SWIDTH 1000 0
DWIDTH 16 0
BBX 16 16 0 -3
BITMAP
0000
0000
0000
0000
0000
0E0E
0E0E
0E0E
0E0E
0E1C
0FF0
0E00
0E00
3800
0000
0000
ENDCHAR
STARTCHAR paragraph
ENCODING 182
SWIDTH 1000 0
DWIDTH 16 0
BBX 16 16 0 -3
BITMAP
0000
0000
1FFF
71CE
71CE
71CE
71CE
1FCE
01CE
01CE
01CE
01CE
01CE
0000
0000
0000
ENDCHAR
STARTCHAR periodcentered
ENCODING 183
SWIDTH 1000 0
DWIDTH 16 0
BBX 16 16 0 -3
BITMAP
0000
0000
0000
0000
0000
0000
0000
0000
01C0
0000
0000
0000
0000
0000
0000
0000
ENDCHAR
STARTCHAR ordmasculine
ENCODING 186
SWIDTH 1000 0
DWIDTH 16 0
BBX 16 16 0 -3
BITMAP
0000
0000
0FC0
3870
3870
0FC0
0000
3FF0
0000
0000
0000
0000
0000
0000
0000
0000
ENDCHAR
STARTCHAR guillemotright
ENCODING 187
SWIDTH 1000 0
DWIDTH 16 0
BBX 16 16 0 -3
BITMAP
0000
0000
0000
0000
0000
38E0
0E38
038E
0E38
38E0
0000
0000
0000
0000
0000
0000
ENDCHAR
STARTCHAR onequarter
ENCODING 188
SWIDTH 1000 0
DWIDTH 16 0
BBX 16 16 0 -3
BITMAP
0000
0000
3800
7800
3800
381C
3870
01C0
0700
1C1C
707C
01DC
01FE
001C
0000
0000
ENDCHAR
STARTCHAR onehalf
ENCODING 189
SWIDTH 1000 0
DWIDTH 16 0
BBX 16 16 0 -3
BITMAP
0000
0000
3800
7800
3800
381C
3870
01C0
0700
1C7C
700E
001C
0070
00FE
0000
0000
ENDCHAR
STARTCHAR questiondown
ENCODING 191
SWIDTH 1000 0
DWIDTH 16 0
BBX 16 16 0 -3
BITMAP
0000
0000
0380
0380
0000
0380
0380
0380
0700
1C00
381C
1C38
07E0
0000
0000
0000
ENDCHAR
STARTCHAR Adieresis
ENCODING 196
SWIDTH 1000 0
DWIDTH 16 0
BBX 16 16 0 -3
BITMAP
0000
1C38
1C38
0000
03C0
07E0
0E70
1C38
381C
3FFC
381C
381C
381C
0000
0000
0000
ENDCHAR
STARTCHAR Aring
ENCODING 197
SWIDTH 1000 0
DWIDTH 16 0
BBX 16 16 0 -3
BITMAP
03C0
0E70
03C0
0000
03C0
07E0
0E70
1C38
381C
3FFC
381C
381C
381C
0000
0000
0000
ENDCHAR
STARTCHAR AE
ENCODING 198
SWIDTH 1000 0
DWIDTH 16 0
BBX 16 16 0 -3
BITMAP
0000
0000
07FF
0EE0
1CE0
38E0
70E0
7FFE
70E0
70E0
70E0
70E0
70FF
0000
0000
0000
ENDCHAR
STARTCHAR Ccedilla
ENCODING 199
SWIDTH 1000 0
DWIDTH 16 0
BBX 16 16 0 -3
BITMAP
0000
0000
07F8
1C0E
3806
3800
3800
3800
3800
3806
1C0E
07F8
0038
001C
0FF8
0000
ENDCHAR
STARTCHAR Eacute
ENCODING 201
SWIDTH 1000 0
DWIDTH 16 0
BBX 16 16 0 -3
BITMAP
0070
01C0
0700
0000
3FFC
3800
3800
3800
3FE0
3800
3800
3800
3FFC
0000
0000
0000
ENDCHAR
STARTCHAR Ntilde
ENCODING 209
SWIDTH 1000 0
DWIDTH 16 0
BBX 16 16 0 -3
BITMAP
0000
079E
3CF0
0000
3C0E
3E0E
3F0E
3B8E
39CE
38EE
387E
383E
381E
0000
0000
0000
ENDCHAR
STARTCHAR Odieresis
ENCODING 214
SWIDTH 1000 0
DWIDTH 16 0
BBX 16 16 0 -3
BITMAP
0000
1C1C
1C1C
0000
07F0
1C1C
380E
380E
380E
380E
380E
1C1C
07F0
0000
0000
0000
ENDCHAR
STARTCHAR Udieresis
ENCODING 220
SWIDTH 1000 0
DWIDTH 16 0
BBX 16 16 0 -3
BITMAP
0000
1C1C
1C1C
0000
380E
380E
380E
380E
380E
380E
380E
1C1C
07F0
0000
0000
0000
ENDCHAR
STARTCHAR germandbls
ENCODING 223
SWIDTH 1000 0
DWIDTH 16 0
BBX 16 16 0 -3
BITMAP
0000
0000
0000
0000
0FF8
380E
380E
3FF8
380E
380E
3FF8
3800
3800
1800
0000
0000
ENDCHAR
STARTCHAR agrave
ENCODING 224
SWIDTH 1000 0
DWIDTH 16 0
BBX 16 16 0 -3
BITMAP
0000
0000
0700
01C0
0070
0000
0FF8
000E
0FFE
380E
380E
380E
0FFE
0000
0000
0000
ENDCHAR
STARTCHAR aacute
ENCODING 225
SWIDTH 1000 0
DWIDTH 16 0
BBX 16 16 0 -3
BITMAP
0000
0000
0070
01C0
0700
0000
0FF8
000E
0FFE
380E
380E
380E
0FFE
0000
0000
0000
ENDCHAR
STARTCHAR acircumflex
ENCODING 226
SWIDTH 1000 0
DWIDTH 16 0
BBX 16 16 0 -3
BITMAP
0000
0000
01C0
0770
1C1C
0000
0FF8
000E
0FFE
380E
380E
380E
0FFE
0000
0000
0000
ENDCHAR
STARTCHAR adieresis
ENCODING 228
SWIDTH 1000 0
DWIDTH 16 0
BBX 16 16 0 -3
BITMAP
0000
0000
0000
1C1C
1C1C
0000
0FF8
000E
0FFE
380E
380E
380E
0FFE
0000
0000
0000
ENDCHAR
STARTCHAR aring
ENCODING 229
SWIDTH 1000 0
DWIDTH 16 0
BBX 16 16 0 -3
BITMAP
0000
0000
03E0
0E38
03E0
0000
0FF8
000E
0FFE
380E
380E
380E
0FFE
0000
0000
0000
ENDCHAR
STARTCHAR ae
ENCODING 230
SWIDTH 1000 0
DWIDTH 16 0
BBX 16 16 0 -3
BITMAP
0000
0000
0000
0000
0000
0000
3E7E
03C7
03C7
7FFE
E3C0
E3C0
7FFF
0000
0000
0000
ENDCHAR
STARTCHAR ccedilla
ENCODING 231
SWIDTH 1000 0
DWIDTH 16 0
BBX 16 16 0 -3
BITMAP
0000
0000
0000
0000
0000
0000
0FF0
381C
3800
3800
381C
0FF0
0070
0038
0FF0
0000
ENDCHAR
STARTCHAR egrave
ENCODING 232
SWIDTH 1000 0
DWIDTH 16 0
BBX 16 16 0 -3
BITMAP
0000
0000
0700
01C0
0070
0000
0FF8
380E
380E
3FFE
3800
3800
0FFC
0000
0000
0000
ENDCHAR
STARTCHAR eacute
ENCODING 233
SWIDTH 1000 0
DWIDTH 16 0
BBX 16 16 0 -3
BITMAP
0000
0000
0038
00E0
0380
0000
0FF8
380E
380E
3FFE
3800
3800
0FFC
0000
0000
0000
ENDCHAR
STARTCHAR ecircumflex
ENCODING 234
SWIDTH 1000 0
DWIDTH 16 0
BBX 16 16 0 -3
BITMAP
0000
0000
01C0
0770
1C1C
0000
0FF8
380E
380E
3FFE
3800
3800
0FFC
0000
0000
0000
ENDCHAR
STARTCHAR edieresis
ENCODING 235
SWIDTH 1000 0
DWIDTH 16 0
BBX 16 16 0 -3
BITMAP
0000
0000
0000
1C1C
1C1C
0000
0FF8
380E
380E
3FFE
3800
3800
0FFC
0000
0000
0000
ENDCHAR
STARTCHAR igrave
ENCODING 236
SWIDTH 1000 0
DWIDTH 16 0
BBX 16 16 0 -3
BITMAP
0000
0000
0E00
0380
00E0
0000
01C0
01C0
01C0
01C0
01C0
01C0
01C0
0000
0000
0000
ENDCHAR
STARTCHAR iacute
ENCODING 237
SWIDTH 1000 0
DWIDTH 16 0
BBX 16 16 0 -3
BITMAP
0000
0000
0070
01C0
0700
0000
01C0
01C0
01C0
01C0
01C0
01C0
01C0
0000
0000
0000
ENDCHAR
STARTCHAR icircumflex
ENCODING 238
SWIDTH 1000 0
DWIDTH 16 0
BBX 16 16 0 -3
BITMAP
0000
0000
01C0
0770
1C1C
0000
01C0
01C0
01C0
01C0
01C0
01C0
01C0
0000
0000
0000
ENDCHAR
STARTCHAR idieresis
ENCODING 239
SWIDTH 1000 0
DWIDTH 16 0
BBX 16 16 0 -3
BITMAP
0000
0000
0000
1C1C
1C1C
0000
01C0
01C0
01C0
01C0
01C0
01C0
01C0
0000
0000
0000
ENDCHAR
STARTCHAR ntilde
ENCODING 241
SWIDTH 1000 0
DWIDTH 16 0
BBX 16 16 0 -3
BITMAP
0000
0000
0000
079C
3CF0
0000
3FE0
3838
381C
381C
381C
381C
381C
0000
0000
0000
ENDCHAR
STARTCHAR ograve
ENCODING 242
SWIDTH 1000 0
DWIDTH 16 0
BBX 16 16 0 -3
BITMAP
0000
0000
0700
01C0
0070
0000
07F0
1C1C
380E
380E
380E
1C1C
07F0
0000
0000
0000
ENDCHAR
STARTCHAR oacute
ENCODING 243
SWIDTH 1000 0
DWIDTH 16 0
BBX 16 16 0 -3
BITMAP
0000
0000
0070
01C0
0700
0000
07F0
1C1C
380E
380E
380E
1C1C
07F0
0000
0000
0000
ENDCHAR
STARTCHAR ocircumflex
ENCODING 244
SWIDTH 1000 0
DWIDTH 16 0
BBX 16 16 0 -3
BITMAP
0000
0000
01C0
0770
1C1C
0000
07F0
1C1C
380E
380E
380E
1C1C
07F0
0000
0000
0000
ENDCHAR
STARTCHAR odieresis
ENCODING 246
SWIDTH 1000 0
DWIDTH 16 0
BBX 16 16 0 -3
BITMAP
0000
0000
0000
1C1C
1C1C
0000
07F0
1C1C
380E
380E
380E
1C1C
07F0
0000
0000
0000
ENDCHAR
STARTCHAR divide
ENCODING 247
SWIDTH 1000 0
DWIDTH 16 0
BBX 16 16 0 -3
BITMAP
0000
0000
0000
01C0
01C0
0000
0000
3FFE
0000
0000
01C0
01C0
0000
0000
0000
0000
ENDCHAR
STARTCHAR ugrave
ENCODING 249
SWIDTH 1000 0
DWIDTH 16 0
BBX 16 16 0 -3
BITMAP
0000
0000
0E00
0380
00E0
0000
381C
381C
381C
381C
381C
381C
0FFC
0000
0000
0000
ENDCHAR
STARTCHAR uacute
ENCODING 250
SWIDTH 1000 0
DWIDTH 16 0
BBX 16 16 0 -3
BITMAP
0000
0000
0070
01C0
0700
0000
381C
381C
381C
381C
381C
381C
0FFC
0000
0000
0000
ENDCHAR
STARTCHAR ucircumflex
ENCODING 251
SWIDTH 1000 0
DWIDTH 16 0
BBX 16 16 0 -3
BITMAP
0000
0000
03C0
0E70
381C
0000
381C
381C
381C
381C
381C
381C
0FFC
0000
0000
0000
ENDCHAR
STARTCHAR udieresis
ENCODING 252
SWIDTH 1000 0
DWIDTH 16 0
BBX 16 16 0 -3
BITMAP
0000
0000
0000
1C38
1C38
0000
381C
381C
381C
381C
381C
381C
0FFC
0000
0000
0000
ENDCHAR
STARTCHAR ydieresis
ENCODING 255
SWIDTH 1000 0
DWIDTH 16 0
BBX 16 16 0 -3
BITMAP
0000
0000
0000
1C1C
1C1C
0000
380E
1C1C
0E38
0770
03E0
01C0
0380
0700
0E00
0000
ENDCHAR
STARTCHAR florin
ENCODING 402
SWIDTH 1000 0
DWIDTH 16 0
BBX 16 16 0 -3
BITMAP
0000
0000
0078
01CE
01C0
01C0
01C0
1FFC
01C0
01C0
01C0
01C0
39C0
0F00
0000
0000
ENDCHAR
STARTCHAR Gamma
ENCODING 915
SWIDTH 1000 0
DWIDTH 16 0
BBX 16 16 0 -3
BITMAP
0000
0000
3FFE
380E
380E
3800
3800
3800
3800
3800
3800
3800
3800
0000
0000
0000
ENDCHAR
STARTCHAR Theta
ENCODING 920
SWIDTH 1000 0
DWIDTH 16 0
BBX 16 16 0 -3
BITMAP
0000
0000
07F0
1C1C
380E
380E
380E
3FFE
380E
380E
380E
1C1C
07F0
0000
0000
0000
ENDCHAR
STARTCHAR Sigma
ENCODING 931
SWIDTH 1000 0
DWIDTH 16 0
BBX 16 16 0 -3
BITMAP
0000
0000
3FFE
380E
3800
0E00
0380
00E0
0380
0E00
3800
380E
3FFE
0000
0000
0000
ENDCHAR
STARTCHAR Phi
ENCODING 934
SWIDTH 1000 0
DWIDTH 16 0
BBX 16 16 0 -3
BITMAP
0000
0000
1FFC
01C0
07F0
0E38
1C1C
1C1C
1C1C
0E38
07F0
01C0
1FFC
0000
0000
0000
ENDCHAR
STARTCHAR uni03A9
ENCODING 937
SWIDTH 1000 0
DWIDTH 16 0
BBX 16 16 0 -3
BITMAP
0000
0000
07F0
1C1C
380E
380E
380E
380E
1C1C
0E38
0E38
0E38
3E3E
0000
0000
0000
ENDCHAR
STARTCHAR alpha
ENCODING 945
SWIDTH 1000 0
DWIDTH 16 0
BBX 16 16 0 -3
BITMAP
0000
0000
0000
0000
0000
0000
0F0E
39DC
70F8
70F0
70F8
39DC
0F0E
0000
0000
0000
ENDCHAR
STARTCHAR delta
ENCODING 948
SWIDTH 1000 0
DWIDTH 16 0
BBX 16 16 0 -3
BITMAP
0000
0000
03F0
0E38
0E00
0380
00E0
07F8
1C1C
381C
381C
1C38
07E0
0000
0000
0000
ENDCHAR
STARTCHAR epsilon
ENCODING 949
SWIDTH 1000 0
DWIDTH 16 0
BBX 16 16 0 -3
BITMAP
0000
0000
03F0
0E00
3800
3800
3800
3FF0
3800
3800
3800
0E00
03F0
0000
0000
0000
ENDCHAR
STARTCHAR pi
ENCODING 960
SWIDTH 1000 0
DWIDTH 16 0
BBX 16 16 0 -3
BITMAP
0000
0000
0000
0000
0000
0000
3FFE
0E38
0E38
0E38
0E38
0E38
0E38
0000
0000
0000
ENDCHAR
STARTCHAR sigma
ENCODING 963
SWIDTH 1000 0
DWIDTH 16 0
BBX 16 16 0 -3
BITMAP
0000
0000
0000
0000
0000
0000
07FF
1C38
3838
3838
3838
1C70
07C0
0000
0000
0000
ENDCHAR
STARTCHAR tau
ENCODING 964
SWIDTH 1000 0
DWIDTH 16 0
BBX 16 16 0 -3
BITMAP
0000
0000
0000
0000
0000
0F9E
3CF8
00E0
00E0
00E0
00E0
00E0
00E0
0000
0000
0000
ENDCHAR
STARTCHAR phi
ENCODING 966
SWIDTH 1000 0
DWIDTH 16 0
BBX 16 16 0 -3
BITMAP
0000
0000
0000
001C
0038
0FF0
38FC
71CE
738E
3F1C
0FF0
1C00
3800
0000
0000
0000
ENDCHAR
STARTCHAR bullet
ENCODING 8226
SWIDTH 1000 0
DWIDTH 16 0
BBX 16 16 0 -3
BITMAP
0000
0000
0000
0000
0000
0000
03C0
0FF0
0FF0
03C0
0000
0000
0000
0000
0000
0000
ENDCHAR
STARTCHAR exclamdbl
ENCODING 8252
SWIDTH 1000 0
DWIDTH 16 0
BBX 16 16 0 -3
BITMAP
0000
0000
0E38
0E38
0E38
0E38
0E38
0E38
0E38
0E38
0000
0E38
0E38
0000
0000
0000
ENDCHAR
STARTCHAR uni207F
ENCODING 8319
SWIDTH 1000 0
DWIDTH 16 0
BBX 16 16 0 -3
BITMAP
0000
7F80
70E0
70E0
70E0
70E0
70E0
70E0
0000
0000
0000
0000
0000
0000
0000
0000
ENDCHAR
STARTCHAR peseta
ENCODING 8359
SWIDTH 1000 0
DWIDTH 16 0
BBX 16 16 0 -3
BITMAP
0000
0000
7F80
70E0
7070
70E0
7F9C
701C
707F
701C
701C
701C
701C
0000
0000
0000
ENDCHAR
STARTCHAR arrowleft
ENCODING 8592
SWIDTH 1000 0
DWIDTH 16 0
BBX 16 16 0 -3
BITMAP
0000
0000
0000
0000
0000
0380
0E00
3FFF
0E00
0380
0000
0000
0000
0000
0000
0000
ENDCHAR
STARTCHAR arrowup
ENCODING 8593
SWIDTH 1000 0
DWIDTH 16 0
BBX 16 16 0 -3
BITMAP
0000
0000
01C0
07F0
1DDC
01C0
01C0
01C0
01C0
01C0
01C0
01C0
01C0
0000
0000
0000
ENDCHAR
STARTCHAR arrowright
ENCODING 8594
SWIDTH 1000 0
DWIDTH 16 0
BBX 16 16 0 -3
BITMAP
0000
0000
0000
0000
0000
0070
001C
3FFF
001C
0070
0000
0000
0000
0000
0000
0000
ENDCHAR
STARTCHAR arrowdown
ENCODING 8595
SWIDTH 1000 0
DWIDTH 16 0
BBX 16 16 0 -3
BITMAP
0000
0000
01C0
01C0
01C0
01C0
01C0
01C0
01C0
01C0
1DDC
07F0
01C0
0000
0000
0000
ENDCHAR
STARTCHAR arrowboth
ENCODING 8596
SWIDTH 1000 0
DWIDTH 16 0
BBX 16 16 0 -3
BITMAP
0000
0000
0000
0000
0000
1C38
381C
7FFE
381C
1C38
0000
0000
0000
0000
0000
0000
ENDCHAR
STARTCHAR arrowupdn
ENCODING 8597
SWIDTH 1000 0
DWIDTH 16 0
BBX 16 16 0 -3
BITMAP
0000
0000
01C0
07F0
1DDC
01C0
01C0
01C0
01C0
01C0
1DDC
07F0
01C0
0000
0000
0000
ENDCHAR
STARTCHAR arrowupdnbse
ENCODING 8616
SWIDTH 1000 0
DWIDTH 16 0
BBX 16 16 0 -3
BITMAP
0000
0000
01C0
07F0
1DDC
01C0
01C0
01C0
01C0
01C0
1DDC
07F0
01C0
3FFE
0000
0000
ENDCHAR
STARTCHAR uni2219
ENCODING 8729
SWIDTH 1000 0
DWIDTH 16 0
BBX 16 16 0 -3
BITMAP
0000
0000
0000
0000
0000
0000
0000
03C0
03C0
0000
0000
0000
0000
0000
0000
0000
ENDCHAR
STARTCHAR radical
ENCODING 8730
SWIDTH 1000 0
DWIDTH 16 0
BBX 16 16 0 -3
BITMAP
0000
007F
0070
0070
0070
0070
0070
0070
F870
1C70
0770
01F0
0070
0000
0000
0000
ENDCHAR
STARTCHAR infinity
ENCODING 8734
SWIDTH 1000 0
DWIDTH 16 0
BBX 16 16 0 -3
BITMAP
0000
0000
0000
0000
0000
0000
3E7C
73CE
73CE
73CE
3E7C
0000
0000
0000
0000
0000
ENDCHAR
STARTCHAR orthogonal
ENCODING 8735
SWIDTH 1000 0
DWIDTH 16 0
BBX 16 16 0 -3
BITMAP
0000
0000
0000
0000
0000
0000
3800
3800
3800
3FFF
0000
0000
0000
0000
0000
0000
ENDCHAR
STARTCHAR intersection
ENCODING 8745
SWIDTH 1000 0
DWIDTH 16 0
BBX 16 16 0 -3
BITMAP
0000
0000
0000
07F0
1C1C
380E
380E
380E
380E
380E
380E
380E
380E
0000
0000
0000
ENDCHAR
STARTCHAR approxequal
ENCODING 8776
SWIDTH 1000 0
DWIDTH 16 0
BBX 16 16 0 -3
BITMAP
0000
0000
0000
0000
0000
079E
3CF0
0000
079E
3CF0
0000
0000
0000
0000
0000
0000
ENDCHAR
STARTCHAR equivalence
ENCODING 8801
SWIDTH 1000 0
DWIDTH 16 0
BBX 16 16 0 -3
BITMAP
0000
0000
0000
0000
3FFE
0000
0000
3FFE
0000
0000
3FFE
0000
0000
0000
0000
0000
ENDCHAR
STARTCHAR lessequal
ENCODING 8804
SWIDTH 1000 0
DWIDTH 16 0
BBX 16 16 0 -3
BITMAP
0000
0000
0000
0070
01C0
0700
1C00
0700
01C0
0070
0000
3FFC
0000
0000
0000
0000
ENDCHAR
STARTCHAR greaterequal
ENCODING 8805
SWIDTH 1000 0
DWIDTH 16 0
BBX 16 16 0 -3
BITMAP
0000
0000
0000
0E00
0380
00E0
0038
00E0
0380
0E00
0000
3FFC
0000
0000
0000
0000
ENDCHAR
STARTCHAR house
ENCODING 8962
SWIDTH 1000 0
DWIDTH 16 0
BBX 16 16 0 -3
BITMAP
0000
0000
0000
0000
01C0
0770
1C1C
7007
7007
7FFF
0000
0000
0000
0000
0000
0000
ENDCHAR
STARTCHAR revlogicalnot
ENCODING 8976
SWIDTH 1000 0
DWIDTH 16 0
BBX 16 16 0 -3
BITMAP
0000
0000
0000
0000
0000
0000
0000
3FFF
3800
3800
3800
0000
0000
0000
0000
0000
ENDCHAR
STARTCHAR integraltp
ENCODING 8992
SWIDTH 1000 0
DWIDTH 16 0
BBX 16 16 0 -3
BITMAP
0000
0000
007C
01C7
01C7
01C0
01C0
01C0
01C0
01C0
01C0
01C0
01C0
01C0
01C0
01C0
ENDCHAR
STARTCHAR integralbt
ENCODING 8993
SWIDTH 1000 0
DWIDTH 16 0
BBX 16 16 0 -3
BITMAP
01C0
01C0
01C0
01C0
01C0
01C0
01C0
01C0
01C0
01C0
71C0
71C0
1F00
0000
0000
0000
ENDCHAR
STARTCHAR SF100000
ENCODING 9472
SWIDTH 1000 0
DWIDTH 16 0
BBX 16 16 0 -3
BITMAP
0000
0000
0000
0000
0000
0000
0000
0000
FFFF
0000
0000
0000
0000
0000
0000
0000
ENDCHAR
STARTCHAR SF110000
ENCODING 9474
SWIDTH 1000 0
DWIDTH 16 0
BBX 16 16 0 -3
BITMAP
01C0
01C0
01C0
01C0
01C0
01C0
01C0
01C0
01C0
01C0
01C0
01C0
01C0
01C0
01C0
01C0
ENDCHAR
STARTCHAR SF010000
ENCODING 9484
SWIDTH 1000 0
DWIDTH 16 0
BBX 16 16 0 -3
BITMAP
0000
0000
0000
0000
0000
0000
0000
0000
01FF
01C0
01C0
01C0
01C0
01C0
01C0
01C0
ENDCHAR
STARTCHAR SF030000
ENCODING 9488
SWIDTH 1000 0
DWIDTH 16 0
BBX 16 16 0 -3
BITMAP
0000
0000
0000
0000
0000
0000
0000
0000
FFC0
01C0
01C0
01C0
01C0
01C0
01C0
01C0
ENDCHAR
STARTCHAR SF020000
ENCODING 9492
SWIDTH 1000 0
DWIDTH 16 0
BBX 16 16 0 -3
BITMAP
01C0
01C0
01C0
01C0
01C0
01C0
01C0
01C0
01FF
0000
0000
0000
0000
0000
0000
0000
ENDCHAR
STARTCHAR SF040000
ENCODING 9496
SWIDTH 1000 0
DWIDTH 16 0
BBX 16 16 0 -3
BITMAP
01C0
01C0
01C0
01C0
01C0
01C0
01C0
01C0
FFC0
0000
0000
0000
0000
0000
0000
0000
ENDCHAR
STARTCHAR SF080000
ENCODING 9500
SWIDTH 1000 0
DWIDTH 16 0
BBX 16 16 0 -3
BITMAP
01C0
01C0
01C0
01C0
01C0
01C0
01C0
01C0
01FF
01C0
01C0
01C0
01C0
01C0
01C0
01C0
ENDCHAR
STARTCHAR SF090000
ENCODING 9508
SWIDTH 1000 0
DWIDTH 16 0
BBX 16 16 0 -3
BITMAP
01C0
01C0
01C0
01C0
01C0
01C0
01C0
01C0
FFC0
01C0
01C0
01C0
01C0
01C0
01C0
01C0
ENDCHAR
STARTCHAR SF060000
ENCODING 9516
SWIDTH 1000 0
DWIDTH 16 0
BBX 16 16 0 -3
BITMAP
0000
0000
0000
0000
0000
0000
0000
0000
FFFF
01C0
01C0
01C0
01C0
01C0
01C0
01C0
ENDCHAR
STARTCHAR SF070000
ENCODING 9524
SWIDTH 1000 0
DWIDTH 16 0
BBX 16 16 0 -3
BITMAP
01C0
01C0
01C0
01C0
01C0
01C0
01C0
01C0
FFFF
0000
0000
0000
0000
0000
0000
0000
ENDCHAR
STARTCHAR SF050000
ENCODING 9532
SWIDTH 1000 0
DWIDTH 16 0
BBX 16 16 0 -3
BITMAP
01C0
01C0
01C0
01C0
01C0
01C0
01C0
01C0
FFFF
01C0
01C0
01C0
01C0
01C0
01C0
01C0
ENDCHAR
STARTCHAR SF430000
ENCODING 9552
SWIDTH 1000 0
DWIDTH 16 0
BBX 16 16 0 -3
BITMAP
0000
0000
0000
0000
0000
0000
FFFF
0000
FFFF
0000
0000
0000
0000
0000
0000
0000
ENDCHAR
STARTCHAR SF240000
ENCODING 9553
SWIDTH 1000 0
DWIDTH 16 0
BBX 16 16 0 -3
BITMAP
0738
0738
0738
0738
0738
0738
0738
0738
0738
0738
0738
0738
0738
0738
0738
0738
ENDCHAR
STARTCHAR SF510000
ENCODING 9554
SWIDTH 1000 0
DWIDTH 16 0
BBX 16 16 0 -3
BITMAP
0000
0000
0000
0000
0000
0000
01FF
01C0
01FF
01C0
01C0
01C0
01C0
01C0
01C0
01C0
ENDCHAR
STARTCHAR SF520000
ENCODING 9555
SWIDTH 1000 0
DWIDTH 16 0
BBX 16 16 0 -3
BITMAP
0000
0000
0000
0000
0000
0000
0000
0000
07FF
0738
0738
0738
0738
0738
0738
0738
ENDCHAR
STARTCHAR SF390000
ENCODING 9556
SWIDTH 1000 0
DWIDTH 16 0
BBX 16 16 0 -3
BITMAP
0000
0000
0000
0000
0000
0000
07FF
0700
073F
0738
0738
0738
0738
0738
0738
0738
ENDCHAR
STARTCHAR SF220000
ENCODING 9557
SWIDTH 1000 0
DWIDTH 16 0
BBX 16 16 0 -3
BITMAP
0000
0000
0000
0000
0000
0000
FFC0
01C0
FFC0
01C0
01C0
01C0
01C0
01C0
01C0
01C0
ENDCHAR
STARTCHAR SF210000
ENCODING 9558
SWIDTH 1000 0
DWIDTH 16 0
BBX 16 16 0 -3
BITMAP
0000
0000
0000
0000
0000
0000
0000
0000
FFF8
0738
0738
0738
0738
0738
0738
0738
ENDCHAR
STARTCHAR SF250000
ENCODING 9559
SWIDTH 1000 0
DWIDTH 16 0
BBX 16 16 0 -3
BITMAP
0000
0000
0000
0000
0000
0000
FFF8
0038
FF38
0738
0738
0738
0738
0738
0738
0738
ENDCHAR
STARTCHAR SF500000
ENCODING 9560
SWIDTH 1000 0
DWIDTH 16 0
BBX 16 16 0 -3
BITMAP
01C0
01C0
01C0
01C0
01C0
01C0
01FF
01C0
01FF
0000
0000
0000
0000
0000
0000
0000
ENDCHAR
STARTCHAR SF490000
ENCODING 9561
SWIDTH 1000 0
DWIDTH 16 0
BBX 16 16 0 -3
BITMAP
0738
0738
0738
0738
0738
0738
0738
0738
07FF
0000
0000
0000
0000
0000
0000
0000
ENDCHAR
STARTCHAR SF380000
ENCODING 9562
SWIDTH 1000 0
DWIDTH 16 0
BBX 16 16 0 -3
BITMAP
0738
0738
0738
0738
0738
0738
073F
0700
07FF
0000
0000
0000
0000
0000
0000
0000
ENDCHAR
STARTCHAR SF280000
ENCODING 9563
SWIDTH 1000 0
DWIDTH 16 0
BBX 16 16 0 -3
BITMAP
01C0
01C0
01C0
01C0
01C0
01C0
FFC0
01C0
FFC0
0000
0000
0000
0000
0000
0000
0000
ENDCHAR
STARTCHAR SF270000
ENCODING 9564
SWIDTH 1000 0
DWIDTH 16 0
BBX 16 16 0 -3
BITMAP
0738
0738
0738
0738
0738
0738
0738
0738
FFF8
0000
0000
0000
0000
0000
0000
0000
ENDCHAR
STARTCHAR SF260000
ENCODING 9565
SWIDTH 1000 0
DWIDTH 16 0
BBX 16 16 0 -3
BITMAP
0738
0738
0738
0738
0738
0738
FF38
0038
FFF8
0000
0000
0000
0000
0000
0000
0000
ENDCHAR
STARTCHAR SF360000
ENCODING 9566
SWIDTH 1000 0
DWIDTH 16 0
BBX 16 16 0 -3
BITMAP
01C0
01C0
01C0
01C0
01C0
01C0
01FF
01C0
01FF
01C0
01C0
01C0
01C0
01C0
01C0
01C0
ENDCHAR
STARTCHAR SF370000
ENCODING 9567
SWIDTH 1000 0
DWIDTH 16 0
BBX 16 16 0 -3
BITMAP
0738
0738
0738
0738
0738
0738
0738
0738
073F
0738
0738
0738
0738
0738
0738
0738
ENDCHAR
STARTCHAR SF420000
ENCODING 9568
SWIDTH 1000 0
DWIDTH 16 0
BBX 16 16 0 -3
BITMAP
0738
0738
0738
0738
0738
0738
073F
0700
073F
0738
0738
0738
0738
0738
0738
0738
ENDCHAR
STARTCHAR SF190000
ENCODING 9569
SWIDTH 1000 0
DWIDTH 16 0
BBX 16 16 0 -3
BITMAP
01C0
01C0
01C0
01C0
01C0
01C0
FFC0
01C0
FFC0
01C0
01C0
01C0
01C0
01C0
01C0
01C0
ENDCHAR
STARTCHAR SF200000
ENCODING 9570
SWIDTH 1000 0
DWIDTH 16 0
BBX 16 16 0 -3
BITMAP
0738
0738
0738
0738
0738
0738
0738
0738
FF38
0738
0738
0738
0738
0738
0738
0738
ENDCHAR
STARTCHAR SF230000
ENCODING 9571
SWIDTH 1000 0
DWIDTH 16 0
BBX 16 16 0 -3
BITMAP
0738
0738
0738
0738
0738
0738
FF38
0038
FF38
0738
0738
0738
0738
0738
0738
0738
ENDCHAR
STARTCHAR SF470000
ENCODING 9572
SWIDTH 1000 0
DWIDTH 16 0
BBX 16 16 0 -3
BITMAP
0000
0000
0000
0000
0000
0000
FFFF
0000
FFFF
01C0
01C0
01C0
01C0
01C0
01C0
01C0
ENDCHAR
STARTCHAR SF480000
ENCODING 9573
SWIDTH 1000 0
DWIDTH 16 0
BBX 16 16 0 -3
BITMAP
0000
0000
0000
0000
0000
0000
0000
0000
FFFF
0738
0738
0738
0738
0738
0738
0738
ENDCHAR
STARTCHAR SF410000
ENCODING 9574
SWIDTH 1000 0
DWIDTH 16 0
BBX 16 16 0 -3
BITMAP
0000
0000
0000
0000
0000
0000
FFFF
0000
FF3F
0738
0738
0738
0738
0738
0738
0738
ENDCHAR
STARTCHAR SF450000
ENCODING 9575
SWIDTH 1000 0
DWIDTH 16 0
BBX 16 16 0 -3
BITMAP
01C0
01C0
01C0
01C0
01C0
01C0
FFFF
0000
FFFF
0000
0000
0000
0000
0000
0000
0000
ENDCHAR
STARTCHAR SF460000
ENCODING 9576
SWIDTH 1000 0
DWIDTH 16 0
BBX 16 16 0 -3
BITMAP
0738
0738
0738
0738
0738
0738
0738
0738
FFFF
0000
0000
0000
0000
0000
0000
0000
ENDCHAR
STARTCHAR SF400000
ENCODING 9577
SWIDTH 1000 0
DWIDTH 16 0
BBX 16 16 0 -3
BITMAP
0738
0738
0738
0738
0738
0738
FF3F
0000
FFFF
0000
0000
0000
0000
0000
0000
0000
ENDCHAR
STARTCHAR SF540000
ENCODING 9578
SWIDTH 1000 0
DWIDTH 16 0
BBX 16 16 0 -3
BITMAP
01C0
01C0
01C0
01C0
01C0
01C0
FFFF
01C0
FFFF
01C0
01C0
01C0
01C0
01C0
01C0
01C0
ENDCHAR
STARTCHAR SF530000
ENCODING 9579
SWIDTH 1000 0
DWIDTH 16 0
BBX 16 16 0 -3
BITMAP
0738
0738
0738
0738
0738
0738
0738
0738
FFFF
0738
0738
0738
0738
0738
0738
0738
ENDCHAR
STARTCHAR SF440000
ENCODING 9580
SWIDTH 1000 0
DWIDTH 16 0
BBX 16 16 0 -3
BITMAP
0738
0738
0738
0738
0738
0738
FF3F
0000
FF3F
0738
0738
0738
0738
0738
0738
0738
ENDCHAR
STARTCHAR upblock
ENCODING 9600
SWIDTH 1000 0
DWIDTH 16 0
BBX 16 16 0 -3
BITMAP
FFFF
FFFF
FFFF
FFFF
FFFF
FFFF
FFFF
FFFF
0000
0000
0000
0000
0000
0000
0000
0000
ENDCHAR
STARTCHAR dnblock
ENCODING 9604
SWIDTH 1000 0
DWIDTH 16 0
BBX 16 16 0 -3
BITMAP
0000
0000
0000
0000
0000
0000
0000
0000
FFFF
FFFF
FFFF
FFFF
FFFF
FFFF
FFFF
FFFF
ENDCHAR
STARTCHAR block
ENCODING 9608
SWIDTH 1000 0
DWIDTH 16 0
BBX 16 16 0 -3
BITMAP
FFFF
FFFF
FFFF
FFFF
FFFF
FFFF
FFFF
FFFF
FFFF
FFFF
FFFF
FFFF
FFFF
FFFF
FFFF
FFFF
ENDCHAR
STARTCHAR lfblock
ENCODING 9612
SWIDTH 1000 0
DWIDTH 16 0
BBX 16 16 0 -3
BITMAP
FF00
FF00
FF00
FF00
FF00
FF00
FF00
FF00
FF00
FF00
FF00
FF00
FF00
FF00
FF00
FF00
ENDCHAR
STARTCHAR rtblock
ENCODING 9616
SWIDTH 1000 0
DWIDTH 16 0
BBX 16 16 0 -3
BITMAP
00FF
00FF
00FF
00FF
00FF
00FF
00FF
00FF
00FF
00FF
00FF
00FF
00FF
00FF
00FF
00FF
ENDCHAR
STARTCHAR ltshade
ENCODING 9617
SWIDTH 1000 0
DWIDTH 16 0
BBX 16 16 0 -3
BITMAP
0303
3030
0303
3030
0303
3030
0303
3030
0303
3030
0303
3030
0303
3030
0303
3030
ENDCHAR
STARTCHAR shade
ENCODING 9618
SWIDTH 1000 0
DWIDTH 16 0
BBX 16 16 0 -3
BITMAP
3333
CCCC
3333
CCCC
3333
CCCC
3333
CCCC
3333
CCCC
3333
CCCC
3333
CCCC
3333
CCCC
ENDCHAR
STARTCHAR dkshade
ENCODING 9619
SWIDTH 1000 0
DWIDTH 16 0
BBX 16 16 0 -3
BITMAP
F3F3
3F3F
F3F3
3F3F
F3F3
3F3F
F3F3
3F3F
F3F3
3F3F
F3F3
3F3F
F3F3
3F3F
F3F3
3F3F
ENDCHAR
STARTCHAR filledbox
ENCODING 9632
SWIDTH 1000 0
DWIDTH 16 0
BBX 16 16 0 -3
BITMAP
0000
0000
0000
0000
0000
1FF8
1FF8
1FF8
1FF8
1FF8
1FF8
0000
0000
0000
0000
0000
ENDCHAR
STARTCHAR filledrect
ENCODING 9644
SWIDTH 1000 0
DWIDTH 16 0
BBX 16 16 0 -3
BITMAP
0000
0000
0000
0000
0000
0000
0000
0000
0000
0000
3FFF
3FFF
3FFF
0000
0000
0000
ENDCHAR
STARTCHAR triagup
ENCODING 9650
SWIDTH 1000 0
DWIDTH 16 0
BBX 16 16 0 -3
BITMAP
0000
0000
0000
0000
0180
03C0
07E0
0FF0
1FF8
3FFC
7FFE
0000
0000
0000
0000
0000
ENDCHAR
STARTCHAR triagrt
ENCODING 9658
SWIDTH 1000 0
DWIDTH 16 0
BBX 16 16 0 -3
BITMAP
0000
0000
3000
3C00
3F00
3FC0
3FF0
3FFC
3FF0
3FC0
3F00
3C00
3000
0000
0000
0000
ENDCHAR
STARTCHAR triagdn
ENCODING 9660
SWIDTH 1000 0
DWIDTH 16 0
BBX 16 16 0 -3
BITMAP
0000
0000
0000
0000
7FFE
3FFC
1FF8
0FF0
07E0
03C0
0180
0000
0000
0000
0000
0000
ENDCHAR
STARTCHAR triaglf
ENCODING 9668
SWIDTH 1000 0
DWIDTH 16 0
BBX 16 16 0 -3
BITMAP
0000
0000
000C
003C
00FC
03FC
0FFC
3FFC
0FFC
03FC
00FC
003C
000C
0000
0000
0000
ENDCHAR
STARTCHAR circle
ENCODING 9675
SWIDTH 1000 0
DWIDTH 16 0
BBX 16 16 0 -3
BITMAP
0000
0000
0000
0000
0000
0FF0
3C3C
300C
300C
3C3C
0FF0
0000
0000
0000
0000
0000
ENDCHAR
STARTCHAR invbullet
ENCODING 9688
SWIDTH 1000 0
DWIDTH 16 0
BBX 16 16 0 -3
BITMAP
FFFF
FFFF
FFFF
FFFF
FFFF
FFFF
FC3F
F00F
F00F
FC3F
FFFF
FFFF
FFFF
FFFF
FFFF
FFFF
ENDCHAR
STARTCHAR invcircle
ENCODING 9689
SWIDTH 1000 0
DWIDTH 16 0
BBX 16 16 0 -3
BITMAP
FFFF
FFFF
FFFF
FFFF
FFFF
F00F
C3C3
CFF3
CFF3
C3C3
F00F
FFFF
FFFF
FFFF
FFFF
FFFF
ENDCHAR
STARTCHAR smileface
ENCODING 9786
SWIDTH 1000 0
DWIDTH 16 0
BBX 16 16 0 -3
BITMAP
0000
0000
3FFC
6006
C003
CC33
C003
C003
CFF3
C3C3
C003
6006
3FFC
0000
0000
0000
ENDCHAR
STARTCHAR invsmileface
ENCODING 9787
SWIDTH 1000 0
DWIDTH 16 0
BBX 16 16 0 -3
BITMAP
0000
0000
3FFC
7FFE
FFFF
F3CF
FFFF
FFFF
F00F
FC3F
FFFF
7FFE
3FFC
0000
0000
0000
ENDCHAR
STARTCHAR sun
ENCODING 9788
SWIDTH 1000 0
DWIDTH 16 0
BBX 16 16 0 -3
BITMAP
0000
0000
0000
01C0
39CE
1DDC
0FF8
7E3F
0FF8
1DDC
39CE
01C0
0000
0000
0000
0000
ENDCHAR
STARTCHAR female
ENCODING 9792
SWIDTH 1000 0
DWIDTH 16 0
BBX 16 16 0 -3
BITMAP
0000
0000
03E0
0E38
1C1C
1C1C
0E38
03E0
01C0
01C0
1FFC
01C0
01C0
0000
0000
0000
ENDCHAR
STARTCHAR male
ENCODING 9794
SWIDTH 1000 0
DWIDTH 16 0
BBX 16 16 0 -3
BITMAP
0000
0000
0000
007F
001F
003B
0070
07E0
1C38
381C
381C
1C38
07E0
0000
0000
0000
ENDCHAR
STARTCHAR spade
ENCODING 9824
SWIDTH 1000 0
DWIDTH 16 0
BBX 16 16 0 -3
BITMAP
0000
0000
01C0
07F0
1FFC
7FFF
7FFF
7FFF
1DDC
01C0
01C0
01C0
07F0
0000
0000
0000
ENDCHAR
STARTCHAR club
ENCODING 9827
SWIDTH 1000 0
DWIDTH 16 0
BBX 16 16 0 -3
BITMAP
0000
0000
01C0
03E0
03E0
1DDC
3FFE
3FFE
1DDC
01C0
01C0
01C0
07F0
0000
0000
0000
ENDCHAR
STARTCHAR heart
ENCODING 9829
SWIDTH 1000 0
DWIDTH 16 0
BBX 16 16 0 -3
BITMAP
0000
0000
0000
1E78
3FFC
7FFE
7FFE
7FFE
3FFC
1FF8
07E0
0180
0000
0000
0000
0000
ENDCHAR
STARTCHAR diamond
ENCODING 9830
SWIDTH 1000 0
DWIDTH 16 0
BBX 16 16 0 -3
BITMAP
0000
0000
0000
0180
03C0
07E0
0FF0
1FF8
0FF0
07E0
03C0
0180
0000
0000
0000
0000
ENDCHAR
STARTCHAR musicalnote
ENCODING 9834
SWIDTH 1000 0
DWIDTH 16 0
BBX 16 16 0 -3
BITMAP
0000
0000
0FFF
0E07
0FFF
0E00
0E00
0E00
0E00
0E00
3E00
7E00
3C00
0000
0000
0000
ENDCHAR
STARTCHAR musicalnotedbl
ENCODING 9835
SWIDTH 1000 0
DWIDTH 16 0
BBX 16 16 0 -3
BITMAP
0000
0000
1FFE
1C0E
1FFE
1C0E
1C0E
1C0E
1C0E
1C0E
1C1E
3C3E
7C1C
3800
0000
0000
ENDCHAR
STARTCHAR uni3044
ENCODING 12356
SWIDTH 1000 0
DWIDTH 16 0
BBX 16 16 0 -3
BITMAP
0000
0000
0000
0000
0000
0000
0000
0000
0000
0000
0000
0000
0000
0000
0000
0000
ENDCHAR
STARTCHAR uni3046
ENCODING 12358
SWIDTH 1000 0
DWIDTH 16 0
BBX 16 16 0 -3
BITMAP
0000
0000
0000
0000
0000
0000
0000
0000
0000
0000
0000
0000
0000
0000
0000
0000
ENDCHAR
STARTCHAR uni304B
ENCODING 12363
SWIDTH 1000 0
DWIDTH 16 0
BBX 16 16 0 -3
BITMAP
0000
0000
0000
0000
0000
0000
0000
0000
0000
0000
0000
0000
0000
0000
0000
0000
ENDCHAR
STARTCHAR uni3057
ENCODING 12375
SWIDTH 1000 0
DWIDTH 16 0
BBX 16 16 0 -3
BITMAP
0000
0000
0000
0000
0000
0000
0000
0000
0000
0000
0000
0000
0000
0000
0000
0000
ENDCHAR
STARTCHAR uni306E
ENCODING 12398
SWIDTH 1000 0
DWIDTH 16 0
BBX 16 16 0 -3
BITMAP
0000
0000
0000
0000
0000
0000
0000
0000
0000
0000
0000
0000
0000
0000
0000
0000
ENDCHAR
STARTCHAR uni3093
ENCODING 12435
SWIDTH 1000 0
DWIDTH 16 0
BBX 16 16 0 -3
BITMAP
0000
0000
0000
0000
0000
0000
0000
0000
0000
0000
0000
0000
0000
0000
0000
0000
ENDCHAR
STARTCHAR .notdef
ENCODING -1
SWIDTH 1000 0
DWIDTH 16 0
BBX 15 11 1 0
BITMAP
FFFE
8002
8002
8002
8002
8002
8002
8002
8002
8002
FFFE
ENDCHAR
ENDFONT
