STARTFONT 2.1
FONT x10y12pxDonguriDuel-12px
SIZE 12 75 75
FONTBOUNDINGBOX 16 12 -6 -1
STARTPROPERTIES 3
PIXEL_SIZE 12
FONT_ASCENT 11
FONT_DESCENT 1
ENDPROPERTIES
CHARS 444
STARTCHAR uni0020
ENCODING 32
SWIDTH 333 0
DWIDTH 4 0
BBX 1 1 0 0
BITMAP
00
ENDCHAR
STARTCHAR uni0021
ENCODING 33
SWIDTH 250 0
DWIDTH 3 0
BBX 2 8 0 0
BITMAP
C0
C0
C0
C0
C0
00
C0
C0
ENDCHAR
STARTCHAR uni0022
ENCODING 34
SWIDTH 333 0
DWIDTH 4 0
BBX 3 3 0 5
BITMAP
A0
A0
A0
ENDCHAR
STARTCHAR uni0023
ENCODING 35
SWIDTH 500 0
DWIDTH 6 0
BBX 5 8 0 0
BITMAP
50
F8
F8
50
50
F8
F8
50
ENDCHAR
STARTCHAR uni0024
ENCODING 36
SWIDTH 500 0
DWIDTH 6 0
BBX 5 9 0 -1
BITMAP
20
78
F8
E0
70
38
F8
F0
20
ENDCHAR
STARTCHAR uni0025
ENCODING 37
SWIDTH 667 0
DWIDTH 8 0
BBX 7 7 0 0
BITMAP
C6
CE
1C
38
70
E6
C6
ENDCHAR
STARTCHAR uni0026
ENCODING 38
SWIDTH 667 0
DWIDTH 8 0
BBX 7 8 0 0
BITMAP
38
78
60
76
FE
DC
FE
76
ENDCHAR
STARTCHAR uni0027
ENCODING 39
SWIDTH 250 0
DWIDTH 3 0
BBX 2 3 0 5
BITMAP
C0
C0
C0
ENDCHAR
STARTCHAR uni0028
ENCODING 40
SWIDTH 333 0
DWIDTH 4 0
BBX 3 8 0 0
BITMAP
60
E0
C0
C0
C0
C0
E0
60
ENDCHAR
STARTCHAR uni0029
ENCODING 41
SWIDTH 333 0
DWIDTH 4 0
BBX 3 8 0 0
BITMAP
C0
E0
60
60
60
60
E0
C0
ENDCHAR
STARTCHAR uni002A
ENCODING 42
SWIDTH 583 0
DWIDTH 7 0
BBX 6 6 0 1
BITMAP
30
FC
78
78
FC
30
ENDCHAR
STARTCHAR uni002B
ENCODING 43
SWIDTH 583 0
DWIDTH 7 0
BBX 6 6 0 1
BITMAP
30
30
FC
FC
30
30
ENDCHAR
STARTCHAR uni002C
ENCODING 44
SWIDTH 250 0
DWIDTH 3 0
BBX 2 3 0 -1
BITMAP
C0
C0
80
ENDCHAR
STARTCHAR uni002D
ENCODING 45
SWIDTH 417 0
DWIDTH 5 0
BBX 4 2 0 3
BITMAP
F0
F0
ENDCHAR
STARTCHAR uni002E
ENCODING 46
SWIDTH 250 0
DWIDTH 3 0
BBX 2 2 0 0
BITMAP
C0
C0
ENDCHAR
STARTCHAR uni002F
ENCODING 47
SWIDTH 500 0
DWIDTH 6 0
BBX 5 8 0 0
BITMAP
18
18
30
30
60
60
C0
C0
ENDCHAR
STARTCHAR uni0030
ENCODING 48
SWIDTH 500 0
DWIDTH 6 0
BBX 5 8 0 0
BITMAP
70
F8
D8
D8
D8
D8
F8
70
ENDCHAR
STARTCHAR uni0031
ENCODING 49
SWIDTH 500 0
DWIDTH 6 0
BBX 5 8 0 0
BITMAP
30
F0
F0
30
30
30
F8
F8
ENDCHAR
STARTCHAR uni0032
ENCODING 50
SWIDTH 500 0
DWIDTH 6 0
BBX 5 8 0 0
BITMAP
F0
F8
18
38
70
E0
F8
F8
ENDCHAR
STARTCHAR uni0033
ENCODING 51
SWIDTH 500 0
DWIDTH 6 0
BBX 5 8 0 0
BITMAP
F0
F8
18
70
78
18
F8
F0
ENDCHAR
STARTCHAR uni0034
ENCODING 52
SWIDTH 500 0
DWIDTH 6 0
BBX 5 8 0 0
BITMAP
D8
D8
D8
D8
F8
78
18
18
ENDCHAR
STARTCHAR uni0035
ENCODING 53
SWIDTH 500 0
DWIDTH 6 0
BBX 5 8 0 0
BITMAP
F8
F8
C0
F0
F8
18
F8
F0
ENDCHAR
STARTCHAR uni0036
ENCODING 54
SWIDTH 500 0
DWIDTH 6 0
BBX 5 8 0 0
BITMAP
78
F8
C0
F0
F8
D8
F8
70
ENDCHAR
STARTCHAR uni0037
ENCODING 55
SWIDTH 500 0
DWIDTH 6 0
BBX 5 8 0 0
BITMAP
F8
F8
18
38
70
60
60
60
ENDCHAR
STARTCHAR uni0038
ENCODING 56
SWIDTH 500 0
DWIDTH 6 0
BBX 5 8 0 0
BITMAP
70
F8
D8
70
F8
D8
F8
70
ENDCHAR
STARTCHAR uni0039
ENCODING 57
SWIDTH 500 0
DWIDTH 6 0
BBX 5 8 0 0
BITMAP
70
F8
D8
F8
78
18
78
70
ENDCHAR
STARTCHAR uni003A
ENCODING 58
SWIDTH 250 0
DWIDTH 3 0
BBX 2 7 0 0
BITMAP
C0
C0
00
00
00
C0
C0
ENDCHAR
STARTCHAR uni003B
ENCODING 59
SWIDTH 250 0
DWIDTH 3 0
BBX 2 8 0 -1
BITMAP
C0
C0
00
00
00
C0
C0
80
ENDCHAR
STARTCHAR uni003C
ENCODING 60
SWIDTH 500 0
DWIDTH 6 0
BBX 5 8 0 0
BITMAP
18
38
70
E0
E0
70
38
18
ENDCHAR
STARTCHAR uni003D
ENCODING 61
SWIDTH 417 0
DWIDTH 5 0
BBX 4 5 0 1
BITMAP
F0
F0
00
F0
F0
ENDCHAR
STARTCHAR uni003E
ENCODING 62
SWIDTH 500 0
DWIDTH 6 0
BBX 5 8 0 0
BITMAP
C0
E0
70
38
38
70
E0
C0
ENDCHAR
STARTCHAR uni003F
ENCODING 63
SWIDTH 500 0
DWIDTH 6 0
BBX 5 8 0 0
BITMAP
F0
F8
18
78
70
00
60
60
ENDCHAR
STARTCHAR uni0040
ENCODING 64
SWIDTH 750 0
DWIDTH 9 0
BBX 8 8 0 0
BITMAP
7E
FF
C3
DB
DB
C0
FF
7F
ENDCHAR
STARTCHAR uni0041
ENCODING 65
SWIDTH 500 0
DWIDTH 6 0
BBX 5 8 0 0
BITMAP
70
F8
D8
D8
F8
F8
D8
D8
ENDCHAR
STARTCHAR uni0042
ENCODING 66
SWIDTH 500 0
DWIDTH 6 0
BBX 5 8 0 0
BITMAP
F0
F8
D8
F0
F8
D8
F8
F0
ENDCHAR
STARTCHAR uni0043
ENCODING 67
SWIDTH 417 0
DWIDTH 5 0
BBX 4 8 0 0
BITMAP
70
F0
C0
C0
C0
C0
F0
70
ENDCHAR
STARTCHAR uni0044
ENCODING 68
SWIDTH 500 0
DWIDTH 6 0
BBX 5 8 0 0
BITMAP
F0
F8
D8
D8
D8
D8
F8
F0
ENDCHAR
STARTCHAR uni0045
ENCODING 69
SWIDTH 417 0
DWIDTH 5 0
BBX 4 8 0 0
BITMAP
F0
F0
C0
F0
F0
C0
F0
F0
ENDCHAR
STARTCHAR uni0046
ENCODING 70
SWIDTH 417 0
DWIDTH 5 0
BBX 4 8 0 0
BITMAP
F0
F0
C0
F0
F0
C0
C0
C0
ENDCHAR
STARTCHAR uni0047
ENCODING 71
SWIDTH 500 0
DWIDTH 6 0
BBX 5 8 0 0
BITMAP
78
F8
C0
C0
D8
D8
F8
78
ENDCHAR
STARTCHAR uni0048
ENCODING 72
SWIDTH 500 0
DWIDTH 6 0
BBX 5 8 0 0
BITMAP
D8
D8
D8
F8
F8
D8
D8
D8
ENDCHAR
STARTCHAR uni0049
ENCODING 73
SWIDTH 417 0
DWIDTH 5 0
BBX 4 8 0 0
BITMAP
F0
F0
60
60
60
60
F0
F0
ENDCHAR
STARTCHAR uni004A
ENCODING 74
SWIDTH 417 0
DWIDTH 5 0
BBX 4 8 0 0
BITMAP
30
30
30
30
30
30
F0
E0
ENDCHAR
STARTCHAR uni004B
ENCODING 75
SWIDTH 500 0
DWIDTH 6 0
BBX 5 8 0 0
BITMAP
D8
F8
F0
E0
F0
F8
D8
D8
ENDCHAR
STARTCHAR uni004C
ENCODING 76
SWIDTH 417 0
DWIDTH 5 0
BBX 4 8 0 0
BITMAP
C0
C0
C0
C0
C0
C0
F0
F0
ENDCHAR
STARTCHAR uni004D
ENCODING 77
SWIDTH 667 0
DWIDTH 8 0
BBX 7 8 0 0
BITMAP
C6
EE
FE
FE
D6
C6
C6
C6
ENDCHAR
STARTCHAR uni004E
ENCODING 78
SWIDTH 583 0
DWIDTH 7 0
BBX 6 8 0 0
BITMAP
CC
EC
FC
FC
DC
CC
CC
CC
ENDCHAR
STARTCHAR uni004F
ENCODING 79
SWIDTH 500 0
DWIDTH 6 0
BBX 5 8 0 0
BITMAP
70
F8
D8
D8
D8
D8
F8
70
ENDCHAR
STARTCHAR uni0050
ENCODING 80
SWIDTH 500 0
DWIDTH 6 0
BBX 5 8 0 0
BITMAP
F0
F8
D8
D8
F8
F0
C0
C0
ENDCHAR
STARTCHAR uni0051
ENCODING 81
SWIDTH 500 0
DWIDTH 6 0
BBX 5 9 0 -1
BITMAP
70
F8
D8
D8
D8
D8
F0
78
18
ENDCHAR
STARTCHAR uni0052
ENCODING 82
SWIDTH 500 0
DWIDTH 6 0
BBX 5 8 0 0
BITMAP
F0
F8
D8
D8
F0
F8
D8
D8
ENDCHAR
STARTCHAR uni0053
ENCODING 83
SWIDTH 417 0
DWIDTH 5 0
BBX 4 8 0 0
BITMAP
70
F0
C0
E0
70
30
F0
E0
ENDCHAR
STARTCHAR uni0054
ENCODING 84
SWIDTH 417 0
DWIDTH 5 0
BBX 4 8 0 0
BITMAP
F0
F0
60
60
60
60
60
60
ENDCHAR
STARTCHAR uni0055
ENCODING 85
SWIDTH 500 0
DWIDTH 6 0
BBX 5 8 0 0
BITMAP
D8
D8
D8
D8
D8
D8
F8
70
ENDCHAR
STARTCHAR uni0056
ENCODING 86
SWIDTH 500 0
DWIDTH 6 0
BBX 5 8 0 0
BITMAP
D8
D8
D8
D8
D8
F8
70
20
ENDCHAR
STARTCHAR uni0057
ENCODING 87
SWIDTH 750 0
DWIDTH 9 0
BBX 8 8 0 0
BITMAP
DB
DB
DB
DB
DB
DB
FF
66
ENDCHAR
STARTCHAR uni0058
ENCODING 88
SWIDTH 500 0
DWIDTH 6 0
BBX 5 8 0 0
BITMAP
D8
D8
D8
70
70
D8
D8
D8
ENDCHAR
STARTCHAR uni0059
ENCODING 89
SWIDTH 500 0
DWIDTH 6 0
BBX 5 8 0 0
BITMAP
D8
D8
D8
D8
70
30
30
30
ENDCHAR
STARTCHAR uni005A
ENCODING 90
SWIDTH 500 0
DWIDTH 6 0
BBX 5 8 0 0
BITMAP
F8
F8
18
38
70
E0
F8
F8
ENDCHAR
STARTCHAR uni005B
ENCODING 91
SWIDTH 333 0
DWIDTH 4 0
BBX 3 8 0 0
BITMAP
E0
E0
C0
C0
C0
C0
E0
E0
ENDCHAR
STARTCHAR uni005C
ENCODING 92
SWIDTH 500 0
DWIDTH 6 0
BBX 5 8 0 0
BITMAP
C0
C0
60
60
30
30
18
18
ENDCHAR
STARTCHAR uni005D
ENCODING 93
SWIDTH 333 0
DWIDTH 4 0
BBX 3 8 0 0
BITMAP
E0
E0
60
60
60
60
E0
E0
ENDCHAR
STARTCHAR uni005E
ENCODING 94
SWIDTH 583 0
DWIDTH 7 0
BBX 6 4 0 4
BITMAP
30
78
FC
CC
ENDCHAR
STARTCHAR uni005F
ENCODING 95
SWIDTH 500 0
DWIDTH 6 0
BBX 5 2 0 0
BITMAP
F8
F8
ENDCHAR
STARTCHAR uni0060
ENCODING 96
SWIDTH 333 0
DWIDTH 4 0
BBX 3 2 0 8
BITMAP
C0
60
ENDCHAR
STARTCHAR uni0061
ENCODING 97
SWIDTH 500 0
DWIDTH 6 0
BBX 5 7 0 0
BITMAP
70
78
18
78
D8
F8
78
ENDCHAR
STARTCHAR uni0062
ENCODING 98
SWIDTH 500 0
DWIDTH 6 0
BBX 5 8 0 0
BITMAP
C0
F0
F8
D8
D8
D8
F8
F0
ENDCHAR
STARTCHAR uni0063
ENCODING 99
SWIDTH 417 0
DWIDTH 5 0
BBX 4 7 0 0
BITMAP
70
F0
C0
C0
C0
F0
70
ENDCHAR
STARTCHAR uni0064
ENCODING 100
SWIDTH 500 0
DWIDTH 6 0
BBX 5 8 0 0
BITMAP
18
78
F8
D8
D8
D8
F8
78
ENDCHAR
STARTCHAR uni0065
ENCODING 101
SWIDTH 500 0
DWIDTH 6 0
BBX 5 7 0 0
BITMAP
70
F8
D8
F8
C0
F0
70
ENDCHAR
STARTCHAR uni0066
ENCODING 102
SWIDTH 417 0
DWIDTH 5 0
BBX 4 8 0 0
BITMAP
30
70
60
F0
F0
60
60
60
ENDCHAR
STARTCHAR uni0067
ENCODING 103
SWIDTH 500 0
DWIDTH 6 0
BBX 5 8 0 -1
BITMAP
78
F8
D8
F8
78
18
78
70
ENDCHAR
STARTCHAR uni0068
ENCODING 104
SWIDTH 500 0
DWIDTH 6 0
BBX 5 8 0 0
BITMAP
C0
F0
F8
D8
D8
D8
D8
D8
ENDCHAR
STARTCHAR uni0069
ENCODING 105
SWIDTH 250 0
DWIDTH 3 0
BBX 2 8 0 0
BITMAP
C0
C0
00
C0
C0
C0
C0
C0
ENDCHAR
STARTCHAR uni006A
ENCODING 106
SWIDTH 333 0
DWIDTH 4 0
BBX 3 9 0 -1
BITMAP
60
60
00
60
60
60
60
E0
C0
ENDCHAR
STARTCHAR uni006B
ENCODING 107
SWIDTH 500 0
DWIDTH 6 0
BBX 5 8 0 0
BITMAP
C0
D8
D8
F8
F0
F8
D8
D8
ENDCHAR
STARTCHAR uni006C
ENCODING 108
SWIDTH 250 0
DWIDTH 3 0
BBX 2 8 0 0
BITMAP
C0
C0
C0
C0
C0
C0
C0
C0
ENDCHAR
STARTCHAR uni006D
ENCODING 109
SWIDTH 750 0
DWIDTH 9 0
BBX 8 7 0 0
BITMAP
FE
FF
DB
DB
DB
DB
DB
ENDCHAR
STARTCHAR uni006E
ENCODING 110
SWIDTH 500 0
DWIDTH 6 0
BBX 5 7 0 0
BITMAP
F0
F8
D8
D8
D8
D8
D8
ENDCHAR
STARTCHAR uni006F
ENCODING 111
SWIDTH 500 0
DWIDTH 6 0
BBX 5 7 0 0
BITMAP
70
F8
D8
D8
D8
F8
70
ENDCHAR
STARTCHAR uni0070
ENCODING 112
SWIDTH 500 0
DWIDTH 6 0
BBX 5 8 0 -1
BITMAP
F0
F8
D8
D8
F8
F0
C0
C0
ENDCHAR
STARTCHAR uni0071
ENCODING 113
SWIDTH 500 0
DWIDTH 6 0
BBX 5 8 0 -1
BITMAP
78
F8
D8
D8
F8
78
18
18
ENDCHAR
STARTCHAR uni0072
ENCODING 114
SWIDTH 417 0
DWIDTH 5 0
BBX 4 7 0 0
BITMAP
70
F0
C0
C0
C0
C0
C0
ENDCHAR
STARTCHAR uni0073
ENCODING 115
SWIDTH 417 0
DWIDTH 5 0
BBX 4 7 0 0
BITMAP
70
F0
C0
60
30
F0
E0
ENDCHAR
STARTCHAR uni0074
ENCODING 116
SWIDTH 417 0
DWIDTH 5 0
BBX 4 8 0 0
BITMAP
60
F0
F0
60
60
60
70
30
ENDCHAR
STARTCHAR uni0075
ENCODING 117
SWIDTH 500 0
DWIDTH 6 0
BBX 5 7 0 0
BITMAP
D8
D8
D8
D8
D8
F8
78
ENDCHAR
STARTCHAR uni0076
ENCODING 118
SWIDTH 500 0
DWIDTH 6 0
BBX 5 7 0 0
BITMAP
D8
D8
D8
D8
F8
70
20
ENDCHAR
STARTCHAR uni0077
ENCODING 119
SWIDTH 750 0
DWIDTH 9 0
BBX 8 7 0 0
BITMAP
C3
DB
DB
DB
DB
FF
66
ENDCHAR
STARTCHAR uni0078
ENCODING 120
SWIDTH 500 0
DWIDTH 6 0
BBX 5 7 0 0
BITMAP
D8
D8
F8
70
F8
D8
D8
ENDCHAR
STARTCHAR uni0079
ENCODING 121
SWIDTH 500 0
DWIDTH 6 0
BBX 5 8 0 -1
BITMAP
D8
D8
D8
F8
78
18
78
70
ENDCHAR
STARTCHAR uni007A
ENCODING 122
SWIDTH 500 0
DWIDTH 6 0
BBX 5 7 0 0
BITMAP
F8
F8
38
70
E0
F8
F8
ENDCHAR
STARTCHAR uni007B
ENCODING 123
SWIDTH 417 0
DWIDTH 5 0
BBX 4 8 0 0
BITMAP
70
70
60
E0
E0
60
70
70
ENDCHAR
STARTCHAR uni007C
ENCODING 124
SWIDTH 250 0
DWIDTH 3 0
BBX 2 10 0 -1
BITMAP
C0
C0
C0
C0
C0
C0
C0
C0
C0
C0
ENDCHAR
STARTCHAR uni007D
ENCODING 125
SWIDTH 417 0
DWIDTH 5 0
BBX 4 8 0 0
BITMAP
E0
E0
60
70
70
60
E0
E0
ENDCHAR
STARTCHAR uni007E
ENCODING 126
SWIDTH 667 0
DWIDTH 8 0
BBX 7 3 0 2
BITMAP
76
FE
DC
ENDCHAR
STARTCHAR uni00A0
ENCODING 160
SWIDTH 333 0
DWIDTH 4 0
BBX 1 1 0 0
BITMAP
00
ENDCHAR
STARTCHAR uni00A9
ENCODING 169
SWIDTH 750 0
DWIDTH 9 0
BBX 8 8 0 0
BITMAP
3C
42
9D
A1
A1
9D
42
3C
ENDCHAR
STARTCHAR uni00D7
ENCODING 215
SWIDTH 583 0
DWIDTH 7 0
BBX 6 6 0 1
BITMAP
CC
FC
78
78
FC
CC
ENDCHAR
STARTCHAR uni00F7
ENCODING 247
SWIDTH 583 0
DWIDTH 7 0
BBX 6 8 0 0
BITMAP
30
30
00
FC
FC
00
30
30
ENDCHAR
STARTCHAR uni2010
ENCODING 8208
SWIDTH 417 0
DWIDTH 5 0
BBX 4 2 0 3
BITMAP
F0
F0
ENDCHAR
STARTCHAR uni2011
ENCODING 8209
SWIDTH 417 0
DWIDTH 5 0
BBX 4 2 0 3
BITMAP
F0
F0
ENDCHAR
STARTCHAR uni2012
ENCODING 8210
SWIDTH 500 0
DWIDTH 6 0
BBX 5 2 0 3
BITMAP
F8
F8
ENDCHAR
STARTCHAR uni2013
ENCODING 8211
SWIDTH 500 0
DWIDTH 6 0
BBX 5 2 0 3
BITMAP
F8
F8
ENDCHAR
STARTCHAR uni2014
ENCODING 8212
SWIDTH 750 0
DWIDTH 9 0
BBX 8 2 0 3
BITMAP
FF
FF
ENDCHAR
STARTCHAR uni2015
ENCODING 8213
SWIDTH 833 0
DWIDTH 10 0
BBX 10 2 0 3
BITMAP
FFC0
FFC0
ENDCHAR
STARTCHAR uni2018
ENCODING 8216
SWIDTH 250 0
DWIDTH 3 0
BBX 2 3 0 5
BITMAP
40
C0
C0
ENDCHAR
STARTCHAR uni2019
ENCODING 8217
SWIDTH 250 0
DWIDTH 3 0
BBX 2 3 0 5
BITMAP
C0
C0
80
ENDCHAR
STARTCHAR uni201C
ENCODING 8220
SWIDTH 500 0
DWIDTH 6 0
BBX 5 3 0 5
BITMAP
48
D8
D8
ENDCHAR
STARTCHAR uni201D
ENCODING 8221
SWIDTH 500 0
DWIDTH 6 0
BBX 5 3 0 5
BITMAP
D8
D8
90
ENDCHAR
STARTCHAR uni2026
ENCODING 8230
SWIDTH 750 0
DWIDTH 9 0
BBX 8 2 0 3
BITMAP
DB
DB
ENDCHAR
STARTCHAR uni203B
ENCODING 8251
SWIDTH 750 0
DWIDTH 9 0
BBX 8 8 0 0
BITMAP
99
5A
24
DB
DB
24
5A
99
ENDCHAR
STARTCHAR uni2103
ENCODING 8451
SWIDTH 833 0
DWIDTH 10 0
BBX 9 8 0 0
BITMAP
7700
FF80
DD80
FC00
7C00
0D80
0F80
0700
ENDCHAR
STARTCHAR uni2109
ENCODING 8457
SWIDTH 833 0
DWIDTH 10 0
BBX 9 8 0 0
BITMAP
7780
FF80
DC00
FF80
7F80
0C00
0C00
0C00
ENDCHAR
STARTCHAR uni2190
ENCODING 8592
SWIDTH 750 0
DWIDTH 9 0
BBX 8 8 0 0
BITMAP
10
30
7F
FF
FF
7F
30
10
ENDCHAR
STARTCHAR uni2191
ENCODING 8593
SWIDTH 750 0
DWIDTH 9 0
BBX 8 8 0 0
BITMAP
18
3C
7E
FF
3C
3C
3C
3C
ENDCHAR
STARTCHAR uni2192
ENCODING 8594
SWIDTH 750 0
DWIDTH 9 0
BBX 8 8 0 0
BITMAP
08
0C
FE
FF
FF
FE
0C
08
ENDCHAR
STARTCHAR uni2193
ENCODING 8595
SWIDTH 750 0
DWIDTH 9 0
BBX 8 8 0 0
BITMAP
3C
3C
3C
3C
FF
7E
3C
18
ENDCHAR
STARTCHAR uni2194
ENCODING 8596
SWIDTH 750 0
DWIDTH 9 0
BBX 8 6 0 1
BITMAP
24
66
FF
FF
66
24
ENDCHAR
STARTCHAR uni2195
ENCODING 8597
SWIDTH 583 0
DWIDTH 7 0
BBX 6 8 0 0
BITMAP
30
78
FC
30
30
FC
78
30
ENDCHAR
STARTCHAR uni2196
ENCODING 8598
SWIDTH 750 0
DWIDTH 9 0
BBX 8 8 0 0
BITMAP
FC
F8
FC
FE
FF
BE
1C
08
ENDCHAR
STARTCHAR uni2197
ENCODING 8599
SWIDTH 750 0
DWIDTH 9 0
BBX 8 8 0 0
BITMAP
3F
1F
3F
7F
FF
7D
38
10
ENDCHAR
STARTCHAR uni2198
ENCODING 8600
SWIDTH 750 0
DWIDTH 9 0
BBX 8 8 0 0
BITMAP
10
38
7D
FF
7F
3F
1F
3F
ENDCHAR
STARTCHAR uni2199
ENCODING 8601
SWIDTH 750 0
DWIDTH 9 0
BBX 8 8 0 0
BITMAP
08
1C
BE
FF
FE
FC
F8
FC
ENDCHAR
STARTCHAR uni221E
ENCODING 8734
SWIDTH 833 0
DWIDTH 10 0
BBX 10 8 0 0
BITMAP
7380
FFC0
DEC0
CCC0
CCC0
DEC0
FFC0
7380
ENDCHAR
STARTCHAR uni2460
ENCODING 9312
SWIDTH 833 0
DWIDTH 10 0
BBX 10 10 0 -1
BITMAP
3F00
4080
8C40
9C40
8C40
8C40
8C40
9E40
4080
3F00
ENDCHAR
STARTCHAR uni2461
ENCODING 9313
SWIDTH 833 0
DWIDTH 10 0
BBX 10 10 0 -1
BITMAP
3F00
4080
9E40
B340
8640
8C40
9840
BF40
4080
3F00
ENDCHAR
STARTCHAR uni2462
ENCODING 9314
SWIDTH 833 0
DWIDTH 10 0
BBX 10 10 0 -1
BITMAP
3F00
4080
9E40
B340
8640
8340
B340
9E40
4080
3F00
ENDCHAR
STARTCHAR uni2463
ENCODING 9315
SWIDTH 833 0
DWIDTH 10 0
BBX 10 10 0 -1
BITMAP
3F00
4080
B340
B340
B340
9F40
8340
8340
4080
3F00
ENDCHAR
STARTCHAR uni2464
ENCODING 9316
SWIDTH 833 0
DWIDTH 10 0
BBX 10 10 0 -1
BITMAP
3F00
4080
BF40
B040
BE40
8340
B340
9E40
4080
3F00
ENDCHAR
STARTCHAR uni2465
ENCODING 9317
SWIDTH 833 0
DWIDTH 10 0
BBX 10 10 0 -1
BITMAP
3F00
4080
9E40
B040
BE40
B340
B340
9E40
4080
3F00
ENDCHAR
STARTCHAR uni2466
ENCODING 9318
SWIDTH 833 0
DWIDTH 10 0
BBX 10 10 0 -1
BITMAP
3F00
4080
BF40
8340
8640
8C40
8C40
8C40
4080
3F00
ENDCHAR
STARTCHAR uni2467
ENCODING 9319
SWIDTH 833 0
DWIDTH 10 0
BBX 10 10 0 -1
BITMAP
3F00
4080
9E40
B340
9E40
B340
B340
9E40
4080
3F00
ENDCHAR
STARTCHAR uni2468
ENCODING 9320
SWIDTH 833 0
DWIDTH 10 0
BBX 10 10 0 -1
BITMAP
3F00
4080
9E40
B340
B340
9F40
8340
9E40
4080
3F00
ENDCHAR
STARTCHAR uni24EA
ENCODING 9450
SWIDTH 833 0
DWIDTH 10 0
BBX 10 10 0 -1
BITMAP
3F00
4080
9E40
B340
B340
B340
B340
9E40
4080
3F00
ENDCHAR
STARTCHAR uni25A0
ENCODING 9632
SWIDTH 750 0
DWIDTH 9 0
BBX 8 8 0 0
BITMAP
FF
FF
FF
FF
FF
FF
FF
FF
ENDCHAR
STARTCHAR uni25A1
ENCODING 9633
SWIDTH 750 0
DWIDTH 9 0
BBX 8 8 0 0
BITMAP
FF
FF
C3
C3
C3
C3
FF
FF
ENDCHAR
STARTCHAR uni25B2
ENCODING 9650
SWIDTH 750 0
DWIDTH 9 0
BBX 8 8 0 0
BITMAP
18
18
3C
3C
7E
7E
FF
FF
ENDCHAR
STARTCHAR uni25B3
ENCODING 9651
SWIDTH 750 0
DWIDTH 9 0
BBX 8 8 0 0
BITMAP
18
18
3C
24
66
42
C3
FF
ENDCHAR
STARTCHAR uni25BC
ENCODING 9660
SWIDTH 750 0
DWIDTH 9 0
BBX 8 8 0 0
BITMAP
FF
FF
7E
7E
3C
3C
18
18
ENDCHAR
STARTCHAR uni25BD
ENCODING 9661
SWIDTH 750 0
DWIDTH 9 0
BBX 8 8 0 0
BITMAP
FF
C3
42
66
24
3C
18
18
ENDCHAR
STARTCHAR uni25C6
ENCODING 9670
SWIDTH 750 0
DWIDTH 9 0
BBX 8 8 0 0
BITMAP
18
3C
7E
FF
FF
7E
3C
18
ENDCHAR
STARTCHAR uni25C7
ENCODING 9671
SWIDTH 750 0
DWIDTH 9 0
BBX 8 8 0 0
BITMAP
18
3C
66
C3
C3
66
3C
18
ENDCHAR
STARTCHAR uni25CB
ENCODING 9675
SWIDTH 750 0
DWIDTH 9 0
BBX 8 8 0 0
BITMAP
3C
7E
E7
C3
C3
E7
7E
3C
ENDCHAR
STARTCHAR uni25CE
ENCODING 9678
SWIDTH 750 0
DWIDTH 9 0
BBX 8 8 0 0
BITMAP
3C
42
99
A5
A5
99
42
3C
ENDCHAR
STARTCHAR uni25CF
ENCODING 9679
SWIDTH 750 0
DWIDTH 9 0
BBX 8 8 0 0
BITMAP
3C
7E
FF
FF
FF
FF
7E
3C
ENDCHAR
STARTCHAR uni2605
ENCODING 9733
SWIDTH 750 0
DWIDTH 9 0
BBX 8 8 0 0
BITMAP
18
18
FF
FF
7E
3C
7E
66
ENDCHAR
STARTCHAR uni2606
ENCODING 9734
SWIDTH 750 0
DWIDTH 9 0
BBX 8 8 0 0
BITMAP
18
18
FF
C3
66
3C
7E
66
ENDCHAR
STARTCHAR uni2610
ENCODING 9744
SWIDTH 750 0
DWIDTH 9 0
BBX 8 8 0 0
BITMAP
FF
81
81
81
81
81
81
FF
ENDCHAR
STARTCHAR uni2611
ENCODING 9745
SWIDTH 750 0
DWIDTH 9 0
BBX 8 8 0 0
BITMAP
FF
81
BD
BD
BD
BD
81
FF
ENDCHAR
STARTCHAR uni2661
ENCODING 9825
SWIDTH 750 0
DWIDTH 9 0
BBX 8 7 0 0
BITMAP
66
FF
DB
C3
66
3C
18
ENDCHAR
STARTCHAR uni2665
ENCODING 9829
SWIDTH 750 0
DWIDTH 9 0
BBX 8 6 0 1
BITMAP
66
FF
FF
7E
3C
18
ENDCHAR
STARTCHAR uni266A
ENCODING 9834
SWIDTH 750 0
DWIDTH 9 0
BBX 8 8 0 0
BITMAP
1C
1E
1F
19
79
FA
F8
70
ENDCHAR
STARTCHAR uni3000
ENCODING 12288
SWIDTH 833 0
DWIDTH 10 0
BBX 10 11 0 0
BITMAP
0000
0000
0000
0000
0000
0000
0000
0000
0000
0000
0000
ENDCHAR
STARTCHAR uni3001
ENCODING 12289
SWIDTH 833 0
DWIDTH 10 0
BBX 10 11 0 0
BITMAP
0000
0000
0000
0000
0000
0000
0000
0000
6000
7000
3000
ENDCHAR
STARTCHAR uni3002
ENCODING 12290
SWIDTH 833 0
DWIDTH 10 0
BBX 10 11 0 0
BITMAP
0000
0000
0000
0000
0000
0000
3800
7C00
6C00
7C00
3800
ENDCHAR
STARTCHAR uni300C
ENCODING 12300
SWIDTH 833 0
DWIDTH 10 0
BBX 10 11 0 0
BITMAP
0000
0000
0000
0780
0780
0600
0600
0600
0600
0600
0000
ENDCHAR
STARTCHAR uni300D
ENCODING 12301
SWIDTH 833 0
DWIDTH 10 0
BBX 10 11 0 0
BITMAP
0000
0000
0000
0000
1800
1800
1800
1800
1800
7800
7800
ENDCHAR
STARTCHAR uni300E
ENCODING 12302
SWIDTH 833 0
DWIDTH 10 0
BBX 10 11 0 0
BITMAP
0000
0000
0000
0F80
0880
0B80
0A00
0A00
0A00
0E00
0000
ENDCHAR
STARTCHAR uni300F
ENCODING 12303
SWIDTH 833 0
DWIDTH 10 0
BBX 10 11 0 0
BITMAP
0000
0000
0000
0000
1C00
1400
1400
1400
7400
4400
7C00
ENDCHAR
STARTCHAR uni3010
ENCODING 12304
SWIDTH 833 0
DWIDTH 10 0
BBX 10 11 0 0
BITMAP
0000
0000
0000
0780
0700
0600
0600
0600
0600
0700
0780
ENDCHAR
STARTCHAR uni3011
ENCODING 12305
SWIDTH 833 0
DWIDTH 10 0
BBX 10 11 0 0
BITMAP
0000
0000
0000
7800
3800
1800
1800
1800
1800
3800
7800
ENDCHAR
STARTCHAR uni301C
ENCODING 12316
SWIDTH 833 0
DWIDTH 10 0
BBX 10 11 0 0
BITMAP
0000
0000
0000
0000
0000
3800
7D80
6F80
0700
0000
0000
ENDCHAR
STARTCHAR uni3041
ENCODING 12353
SWIDTH 833 0
DWIDTH 10 0
BBX 10 11 0 0
BITMAP
0000
0000
0000
0000
1800
7F80
7F80
3B00
6F80
7D80
3980
ENDCHAR
STARTCHAR uni3042
ENCODING 12354
SWIDTH 833 0
DWIDTH 10 0
BBX 10 11 0 0
BITMAP
0000
0000
0000
1800
7F80
7F80
3B00
7F00
6F80
7D80
3980
ENDCHAR
STARTCHAR uni3043
ENCODING 12355
SWIDTH 833 0
DWIDTH 10 0
BBX 10 11 0 0
BITMAP
0000
0000
0000
0000
0000
6700
6780
6180
6D80
7D80
3800
ENDCHAR
STARTCHAR uni3044
ENCODING 12356
SWIDTH 833 0
DWIDTH 10 0
BBX 10 11 0 0
BITMAP
0000
0000
0000
6000
6700
6780
6180
6180
6D80
7D80
3800
ENDCHAR
STARTCHAR uni3045
ENCODING 12357
SWIDTH 833 0
DWIDTH 10 0
BBX 10 11 0 0
BITMAP
0000
0000
0000
0000
0C00
3F00
3F80
0180
0380
1F00
1E00
ENDCHAR
STARTCHAR uni3046
ENCODING 12358
SWIDTH 833 0
DWIDTH 10 0
BBX 10 11 0 0
BITMAP
0000
0000
0000
0C00
7F00
7F80
0180
0180
0380
1F00
1E00
ENDCHAR
STARTCHAR uni3047
ENCODING 12359
SWIDTH 833 0
DWIDTH 10 0
BBX 10 11 0 0
BITMAP
0000
0000
0000
0000
0C00
3F00
3F00
0E00
1C00
7F80
7380
ENDCHAR
STARTCHAR uni3048
ENCODING 12360
SWIDTH 833 0
DWIDTH 10 0
BBX 10 11 0 0
BITMAP
0000
0000
0000
0C00
7F00
7F00
0E00
1C00
3E00
7780
6380
ENDCHAR
STARTCHAR uni3049
ENCODING 12361
SWIDTH 833 0
DWIDTH 10 0
BBX 10 11 0 0
BITMAP
0000
0000
0000
0000
0D80
7D80
7C00
3F00
6F80
7D80
3980
ENDCHAR
STARTCHAR uni304A
ENCODING 12362
SWIDTH 833 0
DWIDTH 10 0
BBX 10 11 0 0
BITMAP
0000
0000
0000
7D80
7D80
0C00
3F00
7F80
6D80
7D80
3980
ENDCHAR
STARTCHAR uni304B
ENCODING 12363
SWIDTH 833 0
DWIDTH 10 0
BBX 10 11 0 0
BITMAP
0000
0000
0000
1980
1980
7F00
7F80
3180
3180
6780
6700
ENDCHAR
STARTCHAR uni304C
ENCODING 12364
SWIDTH 833 0
DWIDTH 10 0
BBX 10 11 0 0
BITMAP
0D80
0D80
0000
1980
1980
7F00
7F80
3180
3180
6780
6700
ENDCHAR
STARTCHAR uni304D
ENCODING 12365
SWIDTH 833 0
DWIDTH 10 0
BBX 10 11 0 0
BITMAP
0000
0000
0000
3F00
3F00
0600
1F80
1F80
6300
7C00
3C00
ENDCHAR
STARTCHAR uni304E
ENCODING 12366
SWIDTH 833 0
DWIDTH 10 0
BBX 10 11 0 0
BITMAP
0D80
0D80
0000
3F00
3F00
0600
1F80
1F80
6300
7C00
3C00
ENDCHAR
STARTCHAR uni304F
ENCODING 12367
SWIDTH 833 0
DWIDTH 10 0
BBX 10 11 0 0
BITMAP
0000
0000
0000
0600
0E00
1C00
3800
3000
3C00
1F00
0700
ENDCHAR
STARTCHAR uni3050
ENCODING 12368
SWIDTH 833 0
DWIDTH 10 0
BBX 10 11 0 0
BITMAP
0D80
0D80
0000
0600
0E00
1C00
3800
3000
3C00
1F00
0700
ENDCHAR
STARTCHAR uni3051
ENCODING 12369
SWIDTH 833 0
DWIDTH 10 0
BBX 10 11 0 0
BITMAP
0000
0000
0000
6300
6F80
6F80
6300
6300
6300
6F00
6E00
ENDCHAR
STARTCHAR uni3052
ENCODING 12370
SWIDTH 833 0
DWIDTH 10 0
BBX 10 11 0 0
BITMAP
0D80
0D80
0000
6300
6F80
6F80
6300
6300
6300
6F00
6E00
ENDCHAR
STARTCHAR uni3053
ENCODING 12371
SWIDTH 833 0
DWIDTH 10 0
BBX 10 11 0 0
BITMAP
0000
0000
0000
3E00
3F00
0300
0300
6000
6000
7F80
3F80
ENDCHAR
STARTCHAR uni3054
ENCODING 12372
SWIDTH 833 0
DWIDTH 10 0
BBX 10 11 0 0
BITMAP
0D80
0D80
0000
3E00
3F00
0300
0300
6000
6000
7F80
3F80
ENDCHAR
STARTCHAR uni3055
ENCODING 12373
SWIDTH 833 0
DWIDTH 10 0
BBX 10 11 0 0
BITMAP
0000
0000
0000
0C00
7F80
7F80
0600
0600
3000
3F00
1F00
ENDCHAR
STARTCHAR uni3056
ENCODING 12374
SWIDTH 833 0
DWIDTH 10 0
BBX 10 11 0 0
BITMAP
0D80
0D80
0000
0C00
7F80
7F80
0600
0600
3000
3F00
1F00
ENDCHAR
STARTCHAR uni3057
ENCODING 12375
SWIDTH 833 0
DWIDTH 10 0
BBX 10 11 0 0
BITMAP
0000
0000
0000
3000
3000
3000
3180
3180
3180
3F80
1F00
ENDCHAR
STARTCHAR uni3058
ENCODING 12376
SWIDTH 833 0
DWIDTH 10 0
BBX 10 11 0 0
BITMAP
0D80
0D80
0000
3000
3000
3000
3180
3180
3180
3F80
1F00
ENDCHAR
STARTCHAR uni3059
ENCODING 12377
SWIDTH 833 0
DWIDTH 10 0
BBX 10 11 0 0
BITMAP
0000
0000
0000
0300
7F80
7F80
3300
3300
3F00
1F00
0300
ENDCHAR
STARTCHAR uni305A
ENCODING 12378
SWIDTH 833 0
DWIDTH 10 0
BBX 10 11 0 0
BITMAP
0D80
0D80
0000
0300
7F80
7F80
3300
3300
3F00
1F00
0300
ENDCHAR
STARTCHAR uni305B
ENCODING 12379
SWIDTH 833 0
DWIDTH 10 0
BBX 10 11 0 0
BITMAP
0000
0000
0000
3300
7F80
7F80
3300
3300
3000
3F80
1F80
ENDCHAR
STARTCHAR uni305C
ENCODING 12380
SWIDTH 833 0
DWIDTH 10 0
BBX 10 11 0 0
BITMAP
0D80
0D80
0000
3300
7F80
7F80
3300
3300
3000
3F80
1F80
ENDCHAR
STARTCHAR uni305D
ENCODING 12381
SWIDTH 833 0
DWIDTH 10 0
BBX 10 11 0 0
BITMAP
0000
0000
0000
3300
3700
0E00
7F80
7F80
3000
3F00
1F00
ENDCHAR
STARTCHAR uni305E
ENCODING 12382
SWIDTH 833 0
DWIDTH 10 0
BBX 10 11 0 0
BITMAP
0D80
0D80
0000
3300
3700
0E00
7F80
7F80
3000
3F00
1F00
ENDCHAR
STARTCHAR uni305F
ENCODING 12383
SWIDTH 833 0
DWIDTH 10 0
BBX 10 11 0 0
BITMAP
0000
0000
0000
7F00
7F00
3000
3780
3780
3000
3780
3780
ENDCHAR
STARTCHAR uni3060
ENCODING 12384
SWIDTH 833 0
DWIDTH 10 0
BBX 10 11 0 0
BITMAP
0D80
0D80
0000
7F00
7F00
3000
3780
3780
3000
3780
3780
ENDCHAR
STARTCHAR uni3061
ENCODING 12385
SWIDTH 833 0
DWIDTH 10 0
BBX 10 11 0 0
BITMAP
0000
0000
0000
7F00
7F00
3000
3F00
1F80
0180
0F80
0F00
ENDCHAR
STARTCHAR uni3062
ENCODING 12386
SWIDTH 833 0
DWIDTH 10 0
BBX 10 11 0 0
BITMAP
0D80
0D80
0000
7F00
7F00
3000
3F00
1F80
0180
0F80
0F00
ENDCHAR
STARTCHAR uni3063
ENCODING 12387
SWIDTH 833 0
DWIDTH 10 0
BBX 10 11 0 0
BITMAP
0000
0000
0000
0000
0000
7E00
7F00
0300
0300
1F00
1E00
ENDCHAR
STARTCHAR uni3064
ENCODING 12388
SWIDTH 833 0
DWIDTH 10 0
BBX 10 11 0 0
BITMAP
0000
0000
0000
7E00
7F00
0380
0180
0180
0380
1F00
1E00
ENDCHAR
STARTCHAR uni3065
ENCODING 12389
SWIDTH 833 0
DWIDTH 10 0
BBX 10 11 0 0
BITMAP
0D80
0D80
0000
7E00
7F00
0380
0180
0180
0380
1F00
1E00
ENDCHAR
STARTCHAR uni3066
ENCODING 12390
SWIDTH 833 0
DWIDTH 10 0
BBX 10 11 0 0
BITMAP
0000
0000
0000
7F80
7F80
0700
0E00
1C00
1800
1F00
0F00
ENDCHAR
STARTCHAR uni3067
ENCODING 12391
SWIDTH 833 0
DWIDTH 10 0
BBX 10 11 0 0
BITMAP
0D80
0D80
0000
7F80
7F80
0700
0E00
1C00
1800
1F00
0F00
ENDCHAR
STARTCHAR uni3068
ENCODING 12392
SWIDTH 833 0
DWIDTH 10 0
BBX 10 11 0 0
BITMAP
0000
0000
0000
6300
7700
3E00
1C00
3800
7000
7F80
3F80
ENDCHAR
STARTCHAR uni3069
ENCODING 12393
SWIDTH 833 0
DWIDTH 10 0
BBX 10 11 0 0
BITMAP
0D80
0D80
0000
6300
7700
3E00
1C00
3800
7000
7F80
3F80
ENDCHAR
STARTCHAR uni306A
ENCODING 12394
SWIDTH 833 0
DWIDTH 10 0
BBX 10 11 0 0
BITMAP
0000
0000
0000
7980
7B80
6300
1F80
3F80
3300
3F00
1E00
ENDCHAR
STARTCHAR uni306B
ENCODING 12395
SWIDTH 833 0
DWIDTH 10 0
BBX 10 11 0 0
BITMAP
0000
0000
0000
6F00
6F80
6180
6000
6C00
6C00
6F80
6780
ENDCHAR
STARTCHAR uni306C
ENCODING 12396
SWIDTH 833 0
DWIDTH 10 0
BBX 10 11 0 0
BITMAP
0000
0000
0000
3600
3600
3F00
7F80
6F80
7D80
3F80
0700
ENDCHAR
STARTCHAR uni306D
ENCODING 12397
SWIDTH 833 0
DWIDTH 10 0
BBX 10 11 0 0
BITMAP
0000
0000
0000
3700
7F80
7980
3780
3F80
7D80
7F80
3700
ENDCHAR
STARTCHAR uni306E
ENCODING 12398
SWIDTH 833 0
DWIDTH 10 0
BBX 10 11 0 0
BITMAP
0000
0000
0000
3F00
7F80
6D80
6D80
6D80
6D80
7D80
3800
ENDCHAR
STARTCHAR uni306F
ENCODING 12399
SWIDTH 833 0
DWIDTH 10 0
BBX 10 11 0 0
BITMAP
0000
0000
0000
6F80
6F80
6180
6780
6F80
6D80
6F80
6700
ENDCHAR
STARTCHAR uni3070
ENCODING 12400
SWIDTH 833 0
DWIDTH 10 0
BBX 10 11 0 0
BITMAP
0D80
0D80
0000
6F80
6F80
6180
6780
6F80
6D80
6F80
6700
ENDCHAR
STARTCHAR uni3071
ENCODING 12401
SWIDTH 833 0
DWIDTH 10 0
BBX 10 11 0 0
BITMAP
0380
07C0
06C0
6FC0
6F80
6180
6780
6F80
6D80
6F80
6700
ENDCHAR
STARTCHAR uni3072
ENCODING 12402
SWIDTH 833 0
DWIDTH 10 0
BBX 10 11 0 0
BITMAP
0000
0000
0000
6000
7380
3380
3300
3300
3300
3F00
1E00
ENDCHAR
STARTCHAR uni3073
ENCODING 12403
SWIDTH 833 0
DWIDTH 10 0
BBX 10 11 0 0
BITMAP
0000
0D80
0D80
6000
7380
3380
3300
3300
3300
3F00
1E00
ENDCHAR
STARTCHAR uni3074
ENCODING 12404
SWIDTH 833 0
DWIDTH 10 0
BBX 10 11 0 0
BITMAP
0380
07C0
06C0
67C0
7380
3000
3380
3380
3300
3F00
1E00
ENDCHAR
STARTCHAR uni3075
ENCODING 12405
SWIDTH 833 0
DWIDTH 10 0
BBX 10 11 0 0
BITMAP
0000
0000
0000
3F00
3F00
0600
0C00
6D80
6D80
1D80
1800
ENDCHAR
STARTCHAR uni3076
ENCODING 12406
SWIDTH 833 0
DWIDTH 10 0
BBX 10 11 0 0
BITMAP
0D80
0D80
0000
3F00
3F00
0600
0C00
6D80
6D80
1D80
1800
ENDCHAR
STARTCHAR uni3077
ENCODING 12407
SWIDTH 833 0
DWIDTH 10 0
BBX 10 11 0 0
BITMAP
0380
07C0
06C0
3FC0
3F80
0600
0C00
6D80
6D80
1D80
1800
ENDCHAR
STARTCHAR uni3078
ENCODING 12408
SWIDTH 833 0
DWIDTH 10 0
BBX 10 11 0 0
BITMAP
0000
0000
0000
0000
1800
3C00
7E00
6700
0380
0180
0000
ENDCHAR
STARTCHAR uni3079
ENCODING 12409
SWIDTH 833 0
DWIDTH 10 0
BBX 10 11 0 0
BITMAP
0000
0D80
0D80
0000
1800
3C00
7E00
6700
0380
0180
0000
ENDCHAR
STARTCHAR uni307A
ENCODING 12410
SWIDTH 833 0
DWIDTH 10 0
BBX 10 11 0 0
BITMAP
0380
07C0
06C0
07C0
1B80
3C00
7E00
6700
0380
0180
0000
ENDCHAR
STARTCHAR uni307B
ENCODING 12411
SWIDTH 833 0
DWIDTH 10 0
BBX 10 11 0 0
BITMAP
0000
0000
0000
6F80
6F80
6300
7F80
7F80
6D80
6F80
6700
ENDCHAR
STARTCHAR uni307C
ENCODING 12412
SWIDTH 833 0
DWIDTH 10 0
BBX 10 11 0 0
BITMAP
0D80
0D80
0000
6F80
6F80
6300
7F80
7F80
6D80
6F80
6700
ENDCHAR
STARTCHAR uni307D
ENCODING 12413
SWIDTH 833 0
DWIDTH 10 0
BBX 10 11 0 0
BITMAP
0380
07C0
06C0
6FC0
6F80
6300
7F80
7F80
6D80
6F80
6700
ENDCHAR
STARTCHAR uni307E
ENCODING 12414
SWIDTH 833 0
DWIDTH 10 0
BBX 10 11 0 0
BITMAP
0000
0000
0000
3F80
3F80
0300
7F80
7F80
3300
3F00
1E00
ENDCHAR
STARTCHAR uni307F
ENCODING 12415
SWIDTH 833 0
DWIDTH 10 0
BBX 10 11 0 0
BITMAP
0000
0000
0000
3C00
3D80
0D80
3F80
7F80
6D80
7D80
3800
ENDCHAR
STARTCHAR uni3080
ENCODING 12416
SWIDTH 833 0
DWIDTH 10 0
BBX 10 11 0 0
BITMAP
0000
0000
0000
3D80
3D80
0C00
3D80
7D80
6D80
7F80
3F00
ENDCHAR
STARTCHAR uni3081
ENCODING 12417
SWIDTH 833 0
DWIDTH 10 0
BBX 10 11 0 0
BITMAP
0000
0000
0000
3600
3600
3F00
7F80
6D80
7D80
3B80
0300
ENDCHAR
STARTCHAR uni3082
ENCODING 12418
SWIDTH 833 0
DWIDTH 10 0
BBX 10 11 0 0
BITMAP
0000
0000
0000
3F00
3F00
1800
7E00
7E00
3180
3F80
1F00
ENDCHAR
STARTCHAR uni3083
ENCODING 12419
SWIDTH 833 0
DWIDTH 10 0
BBX 10 11 0 0
BITMAP
0000
0000
0000
0000
0000
3300
7F00
7F80
3180
3780
3700
ENDCHAR
STARTCHAR uni3084
ENCODING 12420
SWIDTH 833 0
DWIDTH 10 0
BBX 10 11 0 0
BITMAP
0000
0000
0000
3300
7F00
7F80
3180
3380
3B00
1800
1800
ENDCHAR
STARTCHAR uni3085
ENCODING 12421
SWIDTH 833 0
DWIDTH 10 0
BBX 10 11 0 0
BITMAP
0000
0000
0000
0000
0000
0C00
6F00
7F80
7D80
6F80
0F00
ENDCHAR
STARTCHAR uni3086
ENCODING 12422
SWIDTH 833 0
DWIDTH 10 0
BBX 10 11 0 0
BITMAP
0000
0000
0000
0C00
6F00
7F80
7D80
6D80
0F80
0F00
0C00
ENDCHAR
STARTCHAR uni3087
ENCODING 12423
SWIDTH 833 0
DWIDTH 10 0
BBX 10 11 0 0
BITMAP
0000
0000
0000
0000
0C00
0F00
3F00
7C00
6F00
7F00
3800
ENDCHAR
STARTCHAR uni3088
ENCODING 12424
SWIDTH 833 0
DWIDTH 10 0
BBX 10 11 0 0
BITMAP
0000
0000
0000
0600
0780
0780
3E00
7E00
6780
7F80
3C00
ENDCHAR
STARTCHAR uni3089
ENCODING 12425
SWIDTH 833 0
DWIDTH 10 0
BBX 10 11 0 0
BITMAP
0000
0000
0000
3700
3700
3000
7F00
7F80
0180
0F80
0F00
ENDCHAR
STARTCHAR uni308A
ENCODING 12426
SWIDTH 833 0
DWIDTH 10 0
BBX 10 11 0 0
BITMAP
0000
0000
0000
3700
3F80
3980
3180
0180
0380
1F00
1E00
ENDCHAR
STARTCHAR uni308B
ENCODING 12427
SWIDTH 833 0
DWIDTH 10 0
BBX 10 11 0 0
BITMAP
0000
0000
0000
3F80
3F80
0700
1E00
3F00
3380
3F80
1E00
ENDCHAR
STARTCHAR uni308C
ENCODING 12428
SWIDTH 833 0
DWIDTH 10 0
BBX 10 11 0 0
BITMAP
0000
0000
0000
3000
7700
7F80
3D80
3B00
7300
7380
3180
ENDCHAR
STARTCHAR uni308D
ENCODING 12429
SWIDTH 833 0
DWIDTH 10 0
BBX 10 11 0 0
BITMAP
0000
0000
0000
3E00
3E00
1C00
7F00
7F80
0180
1F80
1F00
ENDCHAR
STARTCHAR uni308E
ENCODING 12430
SWIDTH 833 0
DWIDTH 10 0
BBX 10 11 0 0
BITMAP
0000
0000
0000
0000
3000
7700
7F80
3D80
7980
7380
3300
ENDCHAR
STARTCHAR uni308F
ENCODING 12431
SWIDTH 833 0
DWIDTH 10 0
BBX 10 11 0 0
BITMAP
0000
0000
0000
3000
7700
7F80
3D80
3980
7180
7780
3700
ENDCHAR
STARTCHAR uni3090
ENCODING 12432
SWIDTH 833 0
DWIDTH 10 0
BBX 10 11 0 0
BITMAP
0000
0000
0000
3C00
3C00
0C00
3F00
7F80
6D80
7F80
3B00
ENDCHAR
STARTCHAR uni3091
ENCODING 12433
SWIDTH 833 0
DWIDTH 10 0
BBX 10 11 0 0
BITMAP
0000
0000
0000
7F00
7F00
1E00
7F00
7300
3F00
7F80
6D80
ENDCHAR
STARTCHAR uni3092
ENCODING 12434
SWIDTH 833 0
DWIDTH 10 0
BBX 10 11 0 0
BITMAP
0000
0000
0000
0C00
7C00
7B00
1F00
3E00
3000
3F80
1F80
ENDCHAR
STARTCHAR uni3093
ENCODING 12435
SWIDTH 833 0
DWIDTH 10 0
BBX 10 11 0 0
BITMAP
0000
0000
0000
1800
1800
3800
3000
3D80
7D80
6F80
6700
ENDCHAR
STARTCHAR uni3094
ENCODING 12436
SWIDTH 833 0
DWIDTH 10 0
BBX 10 11 0 0
BITMAP
0D80
0D80
0000
0C00
7F00
7F80
0180
0180
0380
1F00
1E00
ENDCHAR
STARTCHAR uni3095
ENCODING 12437
SWIDTH 833 0
DWIDTH 10 0
BBX 10 11 0 0
BITMAP
0000
0000
0000
0000
0180
1980
7F00
7F80
3180
6780
6700
ENDCHAR
STARTCHAR uni3096
ENCODING 12438
SWIDTH 833 0
DWIDTH 10 0
BBX 10 11 0 0
BITMAP
0000
0000
0000
0000
0000
6300
6F80
6F80
6300
6F00
6E00
ENDCHAR
STARTCHAR uni3099
ENCODING 12441
SWIDTH 0 0
DWIDTH 0 0
BBX 5 2 -6 9
BITMAP
D8
D8
ENDCHAR
STARTCHAR uni309A
ENCODING 12442
SWIDTH 0 0
DWIDTH 0 0
BBX 5 5 -5 6
BITMAP
70
F8
D8
F8
70
ENDCHAR
STARTCHAR uni309B
ENCODING 12443
SWIDTH 833 0
DWIDTH 10 0
BBX 10 12 0 -1
BITMAP
0000
0000
0000
D800
D800
0000
0000
0000
0000
0000
0000
0000
ENDCHAR
STARTCHAR uni309C
ENCODING 12444
SWIDTH 833 0
DWIDTH 10 0
BBX 10 12 0 -1
BITMAP
0000
0000
7000
F800
D800
F800
7000
0000
0000
0000
0000
0000
ENDCHAR
STARTCHAR uni309D
ENCODING 12445
SWIDTH 833 0
DWIDTH 10 0
BBX 10 12 0 -1
BITMAP
0000
0000
0000
0000
3000
3800
1C00
0E00
0600
1E00
1C00
0000
ENDCHAR
STARTCHAR uni309E
ENCODING 12446
SWIDTH 833 0
DWIDTH 10 0
BBX 10 12 0 -1
BITMAP
0000
0000
0D80
0D80
3000
3800
1C00
0E00
0600
1E00
1C00
0000
ENDCHAR
STARTCHAR uni30A0
ENCODING 12448
SWIDTH 833 0
DWIDTH 10 0
BBX 10 12 0 -1
BITMAP
0000
0000
0000
0000
0000
3F00
3F00
0000
3F00
3F00
0000
0000
ENDCHAR
STARTCHAR uni30A1
ENCODING 12449
SWIDTH 833 0
DWIDTH 10 0
BBX 10 12 0 -1
BITMAP
0000
0000
0000
0000
0000
7F80
7F80
0D80
0F80
3F00
3800
0000
ENDCHAR
STARTCHAR uni30A2
ENCODING 12450
SWIDTH 833 0
DWIDTH 10 0
BBX 10 12 0 -1
BITMAP
0000
0000
0000
7F80
7F80
0180
0D80
0F80
0F00
3C00
3800
0000
ENDCHAR
STARTCHAR uni30A3
ENCODING 12451
SWIDTH 833 0
DWIDTH 10 0
BBX 10 12 0 -1
BITMAP
0000
0000
0000
0000
0000
0380
0780
7E00
7C00
0C00
0C00
0000
ENDCHAR
STARTCHAR uni30A4
ENCODING 12452
SWIDTH 833 0
DWIDTH 10 0
BBX 10 12 0 -1
BITMAP
0000
0000
0000
0180
0380
7F00
7E00
0C00
0C00
0C00
0C00
0000
ENDCHAR
STARTCHAR uni30A5
ENCODING 12453
SWIDTH 833 0
DWIDTH 10 0
BBX 10 12 0 -1
BITMAP
0000
0000
0000
0000
0C00
7F80
7F80
6180
0380
0F00
0E00
0000
ENDCHAR
STARTCHAR uni30A6
ENCODING 12454
SWIDTH 833 0
DWIDTH 10 0
BBX 10 12 0 -1
BITMAP
0000
0000
0000
0C00
7F80
7F80
6180
6180
0380
1F00
1E00
0000
ENDCHAR
STARTCHAR uni30A7
ENCODING 12455
SWIDTH 833 0
DWIDTH 10 0
BBX 10 12 0 -1
BITMAP
0000
0000
0000
0000
0000
3F00
3F00
0C00
0C00
7F80
7F80
0000
ENDCHAR
STARTCHAR uni30A8
ENCODING 12456
SWIDTH 833 0
DWIDTH 10 0
BBX 10 12 0 -1
BITMAP
0000
0000
0000
3F00
3F00
0C00
0C00
0C00
0C00
7F80
7F80
0000
ENDCHAR
STARTCHAR uni30A9
ENCODING 12457
SWIDTH 833 0
DWIDTH 10 0
BBX 10 12 0 -1
BITMAP
0000
0000
0000
0000
0600
7F80
7F80
1E00
3E00
7600
6600
0000
ENDCHAR
STARTCHAR uni30AA
ENCODING 12458
SWIDTH 833 0
DWIDTH 10 0
BBX 10 12 0 -1
BITMAP
0000
0000
0000
0300
7F80
7F80
0F00
1F00
3B00
7300
6300
0000
ENDCHAR
STARTCHAR uni30AB
ENCODING 12459
SWIDTH 833 0
DWIDTH 10 0
BBX 10 12 0 -1
BITMAP
0000
0000
0000
1800
7F80
7F80
3180
3180
6180
6780
6700
0000
ENDCHAR
STARTCHAR uni30AC
ENCODING 12460
SWIDTH 833 0
DWIDTH 10 0
BBX 10 12 0 -1
BITMAP
0000
0D80
0D80
3000
7F80
7F80
3180
3180
6180
6780
6700
0000
ENDCHAR
STARTCHAR uni30AD
ENCODING 12461
SWIDTH 833 0
DWIDTH 10 0
BBX 10 12 0 -1
BITMAP
0000
0000
0000
1800
7F00
7F00
0C00
0C00
3F80
3F80
0600
0000
ENDCHAR
STARTCHAR uni30AE
ENCODING 12462
SWIDTH 833 0
DWIDTH 10 0
BBX 10 12 0 -1
BITMAP
0D80
0D80
0000
1800
7F00
7F00
0C00
0C00
3F80
3F80
0600
0000
ENDCHAR
STARTCHAR uni30AF
ENCODING 12463
SWIDTH 833 0
DWIDTH 10 0
BBX 10 12 0 -1
BITMAP
0000
0000
0000
1F80
3F80
7180
6180
0180
0380
1F00
1E00
0000
ENDCHAR
STARTCHAR uni30B0
ENCODING 12464
SWIDTH 833 0
DWIDTH 10 0
BBX 10 12 0 -1
BITMAP
0D80
0D80
0000
1F80
3F80
7180
6180
0180
0380
1F00
1E00
0000
ENDCHAR
STARTCHAR uni30B1
ENCODING 12465
SWIDTH 833 0
DWIDTH 10 0
BBX 10 12 0 -1
BITMAP
0000
0000
0000
3000
3F80
7F80
6300
0300
0700
1E00
1C00
0000
ENDCHAR
STARTCHAR uni30B2
ENCODING 12466
SWIDTH 833 0
DWIDTH 10 0
BBX 10 12 0 -1
BITMAP
0000
0D80
0D80
3000
3F80
7F80
6300
0300
0700
1E00
1C00
0000
ENDCHAR
STARTCHAR uni30B3
ENCODING 12467
SWIDTH 833 0
DWIDTH 10 0
BBX 10 12 0 -1
BITMAP
0000
0000
0000
7F80
7F80
0180
0180
0180
0180
7F80
7F80
0000
ENDCHAR
STARTCHAR uni30B4
ENCODING 12468
SWIDTH 833 0
DWIDTH 10 0
BBX 10 12 0 -1
BITMAP
0D80
0D80
0000
7F80
7F80
0180
0180
0180
0180
7F80
7F80
0000
ENDCHAR
STARTCHAR uni30B5
ENCODING 12469
SWIDTH 833 0
DWIDTH 10 0
BBX 10 12 0 -1
BITMAP
0000
0000
0000
3300
7F80
7F80
3300
3300
0300
3F00
3E00
0000
ENDCHAR
STARTCHAR uni30B6
ENCODING 12470
SWIDTH 833 0
DWIDTH 10 0
BBX 10 12 0 -1
BITMAP
0D80
0D80
0000
3300
7F80
7F80
3300
3300
0300
3F00
3E00
0000
ENDCHAR
STARTCHAR uni30B7
ENCODING 12471
SWIDTH 833 0
DWIDTH 10 0
BBX 10 12 0 -1
BITMAP
0000
0000
0000
7800
7980
0180
7980
7980
0380
7F00
7E00
0000
ENDCHAR
STARTCHAR uni30B8
ENCODING 12472
SWIDTH 833 0
DWIDTH 10 0
BBX 10 12 0 -1
BITMAP
0D80
0D80
0000
7800
7980
0180
7980
7980
0380
7F00
7E00
0000
ENDCHAR
STARTCHAR uni30B9
ENCODING 12473
SWIDTH 833 0
DWIDTH 10 0
BBX 10 12 0 -1
BITMAP
0000
0000
0000
7F80
7F80
0700
0E00
1E00
3F00
7380
6180
0000
ENDCHAR
STARTCHAR uni30BA
ENCODING 12474
SWIDTH 833 0
DWIDTH 10 0
BBX 10 12 0 -1
BITMAP
0D80
0D80
0000
7F80
7F80
0700
0E00
1E00
3F00
7380
6180
0000
ENDCHAR
STARTCHAR uni30BB
ENCODING 12475
SWIDTH 833 0
DWIDTH 10 0
BBX 10 12 0 -1
BITMAP
0000
0000
0000
3000
7F80
7F80
3380
3300
3000
3F80
1F80
0000
ENDCHAR
STARTCHAR uni30BC
ENCODING 12476
SWIDTH 833 0
DWIDTH 10 0
BBX 10 12 0 -1
BITMAP
0000
0D80
0D80
3000
7F80
7F80
3380
3300
3000
3F80
1F80
0000
ENDCHAR
STARTCHAR uni30BD
ENCODING 12477
SWIDTH 833 0
DWIDTH 10 0
BBX 10 12 0 -1
BITMAP
0000
0000
0000
6180
7180
3980
1980
0380
0700
1E00
1C00
0000
ENDCHAR
STARTCHAR uni30BE
ENCODING 12478
SWIDTH 833 0
DWIDTH 10 0
BBX 10 12 0 -1
BITMAP
0000
0D80
0D80
6000
7180
3980
1980
0380
0700
1E00
1C00
0000
ENDCHAR
STARTCHAR uni30BF
ENCODING 12479
SWIDTH 833 0
DWIDTH 10 0
BBX 10 12 0 -1
BITMAP
0000
0000
0000
1F80
3F80
7180
7980
1F80
0F00
3E00
3C00
0000
ENDCHAR
STARTCHAR uni30C0
ENCODING 12480
SWIDTH 833 0
DWIDTH 10 0
BBX 10 12 0 -1
BITMAP
0D80
0D80
0000
1F80
3F80
7180
7980
1F80
0F00
3E00
3C00
0000
ENDCHAR
STARTCHAR uni30C1
ENCODING 12481
SWIDTH 833 0
DWIDTH 10 0
BBX 10 12 0 -1
BITMAP
0000
0000
0000
3F00
3F00
0600
7F80
7F80
0600
3E00
3C00
0000
ENDCHAR
STARTCHAR uni30C2
ENCODING 12482
SWIDTH 833 0
DWIDTH 10 0
BBX 10 12 0 -1
BITMAP
0D80
0D80
0000
3F00
3F00
0600
7F80
7F80
0600
3E00
3C00
0000
ENDCHAR
STARTCHAR uni30C3
ENCODING 12483
SWIDTH 833 0
DWIDTH 10 0
BBX 10 12 0 -1
BITMAP
0000
0000
0000
0000
0000
0000
6D80
6D80
0180
1F80
1F00
0000
ENDCHAR
STARTCHAR uni30C4
ENCODING 12484
SWIDTH 833 0
DWIDTH 10 0
BBX 10 12 0 -1
BITMAP
0000
0000
0000
6D80
6D80
6D80
6D80
0180
0380
1F00
1E00
0000
ENDCHAR
STARTCHAR uni30C5
ENCODING 12485
SWIDTH 833 0
DWIDTH 10 0
BBX 10 12 0 -1
BITMAP
0D80
0D80
0000
6D80
6D80
6D80
6D80
0180
0380
1F00
1E00
0000
ENDCHAR
STARTCHAR uni30C6
ENCODING 12486
SWIDTH 833 0
DWIDTH 10 0
BBX 10 12 0 -1
BITMAP
0000
0000
0000
3F00
3F00
0000
7F80
7F80
0600
1E00
1C00
0000
ENDCHAR
STARTCHAR uni30C7
ENCODING 12487
SWIDTH 833 0
DWIDTH 10 0
BBX 10 12 0 -1
BITMAP
0D80
0D80
0000
3F00
3F00
0000
7F80
7F80
0600
1E00
1C00
0000
ENDCHAR
STARTCHAR uni30C8
ENCODING 12488
SWIDTH 833 0
DWIDTH 10 0
BBX 10 12 0 -1
BITMAP
0000
0000
0000
3000
3000
3000
3F80
3F80
3000
3000
3000
0000
ENDCHAR
STARTCHAR uni30C9
ENCODING 12489
SWIDTH 833 0
DWIDTH 10 0
BBX 10 12 0 -1
BITMAP
0000
0D80
0D80
3000
3000
3000
3F80
3F80
3000
3000
3000
0000
ENDCHAR
STARTCHAR uni30CA
ENCODING 12490
SWIDTH 833 0
DWIDTH 10 0
BBX 10 12 0 -1
BITMAP
0000
0000
0000
0600
7F80
7F80
0600
0600
0E00
3C00
3800
0000
ENDCHAR
STARTCHAR uni30CB
ENCODING 12491
SWIDTH 833 0
DWIDTH 10 0
BBX 10 12 0 -1
BITMAP
0000
0000
0000
3F00
3F00
0000
0000
0000
0000
7F80
7F80
0000
ENDCHAR
STARTCHAR uni30CC
ENCODING 12492
SWIDTH 833 0
DWIDTH 10 0
BBX 10 12 0 -1
BITMAP
0000
0000
0000
7F80
7F80
0380
3700
3E00
1F00
7B80
7180
0000
ENDCHAR
STARTCHAR uni30CD
ENCODING 12493
SWIDTH 833 0
DWIDTH 10 0
BBX 10 12 0 -1
BITMAP
0000
0000
0000
0C00
7F80
7F80
0700
0E00
7D80
7D80
0C00
0000
ENDCHAR
STARTCHAR uni30CE
ENCODING 12494
SWIDTH 833 0
DWIDTH 10 0
BBX 10 12 0 -1
BITMAP
0000
0000
0000
0180
0180
0380
0300
0700
1E00
7C00
7000
0000
ENDCHAR
STARTCHAR uni30CF
ENCODING 12495
SWIDTH 833 0
DWIDTH 10 0
BBX 10 12 0 -1
BITMAP
0000
0000
0000
3300
3300
3300
3300
3300
3300
7380
6180
0000
ENDCHAR
STARTCHAR uni30D0
ENCODING 12496
SWIDTH 833 0
DWIDTH 10 0
BBX 10 12 0 -1
BITMAP
0D80
0D80
0000
3300
3300
3300
3300
3300
3300
7380
6180
0000
ENDCHAR
STARTCHAR uni30D1
ENCODING 12497
SWIDTH 833 0
DWIDTH 10 0
BBX 10 12 0 -1
BITMAP
0380
07C0
06C0
37C0
3380
3300
3300
3300
3300
7380
6180
0000
ENDCHAR
STARTCHAR uni30D2
ENCODING 12498
SWIDTH 833 0
DWIDTH 10 0
BBX 10 12 0 -1
BITMAP
0000
0000
0000
6000
7F80
7F80
6000
6000
6000
7F80
3F80
0000
ENDCHAR
STARTCHAR uni30D3
ENCODING 12499
SWIDTH 833 0
DWIDTH 10 0
BBX 10 12 0 -1
BITMAP
0000
0D80
0D80
6000
7F80
7F80
6000
6000
6000
7F80
3F80
0000
ENDCHAR
STARTCHAR uni30D4
ENCODING 12500
SWIDTH 833 0
DWIDTH 10 0
BBX 10 12 0 -1
BITMAP
0380
07C0
06C0
67C0
7F80
7F80
6000
6000
6000
7F80
3F80
0000
ENDCHAR
STARTCHAR uni30D5
ENCODING 12501
SWIDTH 833 0
DWIDTH 10 0
BBX 10 12 0 -1
BITMAP
0000
0000
0000
7F80
7F80
0180
0180
0380
0700
3E00
3C00
0000
ENDCHAR
STARTCHAR uni30D6
ENCODING 12502
SWIDTH 833 0
DWIDTH 10 0
BBX 10 12 0 -1
BITMAP
0D80
0D80
0000
7F80
7F80
0180
0180
0380
0700
3E00
3C00
0000
ENDCHAR
STARTCHAR uni30D7
ENCODING 12503
SWIDTH 833 0
DWIDTH 10 0
BBX 10 12 0 -1
BITMAP
0380
07C0
06C0
7FC0
7F80
0180
0180
0380
0700
3E00
3C00
0000
ENDCHAR
STARTCHAR uni30D8
ENCODING 12504
SWIDTH 833 0
DWIDTH 10 0
BBX 10 12 0 -1
BITMAP
0000
0000
0000
0000
1800
3C00
7E00
6700
0380
0180
0000
0000
ENDCHAR
STARTCHAR uni30D9
ENCODING 12505
SWIDTH 833 0
DWIDTH 10 0
BBX 10 12 0 -1
BITMAP
0000
0D80
0D80
0000
1800
3C00
7E00
6700
0380
0180
0000
0000
ENDCHAR
STARTCHAR uni30DA
ENCODING 12506
SWIDTH 833 0
DWIDTH 10 0
BBX 10 12 0 -1
BITMAP
0380
07C0
06C0
07C0
1B80
3C00
7E00
6700
0380
0180
0000
0000
ENDCHAR
STARTCHAR uni30DB
ENCODING 12507
SWIDTH 833 0
DWIDTH 10 0
BBX 10 12 0 -1
BITMAP
0000
0000
0000
0C00
7F80
7F80
0C00
6D80
6D80
6D80
6D80
0000
ENDCHAR
STARTCHAR uni30DC
ENCODING 12508
SWIDTH 833 0
DWIDTH 10 0
BBX 10 12 0 -1
BITMAP
0D80
0D80
0000
0C00
7F80
7F80
0C00
6D80
6D80
6D80
6D80
0000
ENDCHAR
STARTCHAR uni30DD
ENCODING 12509
SWIDTH 833 0
DWIDTH 10 0
BBX 10 12 0 -1
BITMAP
0380
07C0
06C0
0FC0
7F80
7F80
0C00
6D80
6D80
6D80
6D80
0000
ENDCHAR
STARTCHAR uni30DE
ENCODING 12510
SWIDTH 833 0
DWIDTH 10 0
BBX 10 12 0 -1
BITMAP
0000
0000
0000
7F80
7F80
0180
0380
3700
3E00
1C00
0C00
0000
ENDCHAR
STARTCHAR uni30DF
ENCODING 12511
SWIDTH 833 0
DWIDTH 10 0
BBX 10 12 0 -1
BITMAP
0000
0000
0000
3F00
3F00
0000
3F00
3F00
0000
7F80
7F80
0000
ENDCHAR
STARTCHAR uni30E0
ENCODING 12512
SWIDTH 833 0
DWIDTH 10 0
BBX 10 12 0 -1
BITMAP
0000
0000
0000
0C00
1C00
3800
7300
6380
6180
7F80
7F80
0000
ENDCHAR
STARTCHAR uni30E1
ENCODING 12513
SWIDTH 833 0
DWIDTH 10 0
BBX 10 12 0 -1
BITMAP
0000
0000
0000
0180
3180
3B80
1F00
0E00
1F00
7B80
7180
0000
ENDCHAR
STARTCHAR uni30E2
ENCODING 12514
SWIDTH 833 0
DWIDTH 10 0
BBX 10 12 0 -1
BITMAP
0000
0000
0000
7F00
7F00
1800
7F80
7F80
1800
1F00
0F00
0000
ENDCHAR
STARTCHAR uni30E3
ENCODING 12515
SWIDTH 833 0
DWIDTH 10 0
BBX 10 12 0 -1
BITMAP
0000
0000
0000
0000
0000
3000
7F80
7F80
3380
3700
3600
0000
ENDCHAR
STARTCHAR uni30E4
ENCODING 12516
SWIDTH 833 0
DWIDTH 10 0
BBX 10 12 0 -1
BITMAP
0000
0000
0000
3000
7F80
7F80
3180
3380
3700
3600
3000
0000
ENDCHAR
STARTCHAR uni30E5
ENCODING 12517
SWIDTH 833 0
DWIDTH 10 0
BBX 10 12 0 -1
BITMAP
0000
0000
0000
0000
0000
3F00
3F00
0300
0300
7F80
7F80
0000
ENDCHAR
STARTCHAR uni30E6
ENCODING 12518
SWIDTH 833 0
DWIDTH 10 0
BBX 10 12 0 -1
BITMAP
0000
0000
0000
3F00
3F00
0300
0300
0300
0300
7F80
7F80
0000
ENDCHAR
STARTCHAR uni30E7
ENCODING 12519
SWIDTH 833 0
DWIDTH 10 0
BBX 10 12 0 -1
BITMAP
0000
0000
0000
0000
3F00
3F00
0300
3F00
0300
3F00
3F00
0000
ENDCHAR
STARTCHAR uni30E8
ENCODING 12520
SWIDTH 833 0
DWIDTH 10 0
BBX 10 12 0 -1
BITMAP
0000
0000
0000
7F80
7F80
0180
3F80
3F80
0180
7F80
7F80
0000
ENDCHAR
STARTCHAR uni30E9
ENCODING 12521
SWIDTH 833 0
DWIDTH 10 0
BBX 10 12 0 -1
BITMAP
0000
0000
0000
3F00
3F00
0000
7F80
7F80
0380
3F00
3E00
0000
ENDCHAR
STARTCHAR uni30EA
ENCODING 12522
SWIDTH 833 0
DWIDTH 10 0
BBX 10 12 0 -1
BITMAP
0000
0000
0000
3180
3180
3180
3180
0180
0380
1F00
1E00
0000
ENDCHAR
STARTCHAR uni30EB
ENCODING 12523
SWIDTH 833 0
DWIDTH 10 0
BBX 10 12 0 -1
BITMAP
0000
0000
0000
3600
3600
3600
3600
3780
3780
7700
6600
0000
ENDCHAR
STARTCHAR uni30EC
ENCODING 12524
SWIDTH 833 0
DWIDTH 10 0
BBX 10 12 0 -1
BITMAP
0000
0000
0000
3000
3000
3000
3180
3380
3700
3E00
3C00
0000
ENDCHAR
STARTCHAR uni30ED
ENCODING 12525
SWIDTH 833 0
DWIDTH 10 0
BBX 10 12 0 -1
BITMAP
0000
0000
0000
7F80
7F80
6180
6180
6180
6180
7F80
7F80
0000
ENDCHAR
STARTCHAR uni30EE
ENCODING 12526
SWIDTH 833 0
DWIDTH 10 0
BBX 10 12 0 -1
BITMAP
0000
0000
0000
0000
0000
7F80
7F80
6180
6380
0F00
0E00
0000
ENDCHAR
STARTCHAR uni30EF
ENCODING 12527
SWIDTH 833 0
DWIDTH 10 0
BBX 10 12 0 -1
BITMAP
0000
0000
0000
7F80
7F80
6180
6180
0180
0380
1F00
1E00
0000
ENDCHAR
STARTCHAR uni30F0
ENCODING 12528
SWIDTH 833 0
DWIDTH 10 0
BBX 10 12 0 -1
BITMAP
0000
0000
0000
0300
3F80
3F80
3300
3300
7F80
7F80
0300
0000
ENDCHAR
STARTCHAR uni30F1
ENCODING 12529
SWIDTH 833 0
DWIDTH 10 0
BBX 10 12 0 -1
BITMAP
0000
0000
0000
7F80
7F80
0700
0E00
0C00
0C00
7F80
7F80
0000
ENDCHAR
STARTCHAR uni30F2
ENCODING 12530
SWIDTH 833 0
DWIDTH 10 0
BBX 10 12 0 -1
BITMAP
0000
0000
0000
7F80
7F80
0180
3F80
3F80
0380
1F00
1E00
0000
ENDCHAR
STARTCHAR uni30F3
ENCODING 12531
SWIDTH 833 0
DWIDTH 10 0
BBX 10 12 0 -1
BITMAP
0000
0000
0000
7980
7980
0180
0180
0180
0380
3F00
3E00
0000
ENDCHAR
STARTCHAR uni30F4
ENCODING 12532
SWIDTH 833 0
DWIDTH 10 0
BBX 10 12 0 -1
BITMAP
0D80
0D80
0000
0C00
7F80
7F80
6180
6180
0380
1F00
1E00
0000
ENDCHAR
STARTCHAR uni30F5
ENCODING 12533
SWIDTH 833 0
DWIDTH 10 0
BBX 10 12 0 -1
BITMAP
0000
0000
0000
0000
0000
1800
7F80
7F80
3180
6780
6700
0000
ENDCHAR
STARTCHAR uni30F6
ENCODING 12534
SWIDTH 833 0
DWIDTH 10 0
BBX 10 12 0 -1
BITMAP
0000
0000
0000
0000
0000
3000
3F80
7F80
6300
0F00
0E00
0000
ENDCHAR
STARTCHAR uni30F7
ENCODING 12535
SWIDTH 833 0
DWIDTH 10 0
BBX 10 12 0 -1
BITMAP
0D80
0D80
0000
7F80
7F80
6180
6180
0180
0380
1F00
1E00
0000
ENDCHAR
STARTCHAR uni30F8
ENCODING 12536
SWIDTH 833 0
DWIDTH 10 0
BBX 10 12 0 -1
BITMAP
0D80
0D80
0000
0300
3F80
3F80
3300
3300
7F80
7F80
0300
0000
ENDCHAR
STARTCHAR uni30F9
ENCODING 12537
SWIDTH 833 0
DWIDTH 10 0
BBX 10 12 0 -1
BITMAP
0D80
0D80
0000
7F80
7F80
0700
0E00
0C00
0C00
7F80
7F80
0000
ENDCHAR
STARTCHAR uni30FA
ENCODING 12538
SWIDTH 833 0
DWIDTH 10 0
BBX 10 12 0 -1
BITMAP
0D80
0D80
0000
7F80
7F80
0180
3F80
3F80
0380
1F00
1E00
0000
ENDCHAR
STARTCHAR uni30FB
ENCODING 12539
SWIDTH 833 0
DWIDTH 10 0
BBX 10 12 0 -1
BITMAP
0000
0000
0000
0000
0000
0000
0C00
0C00
0000
0000
0000
0000
ENDCHAR
STARTCHAR uni30FC
ENCODING 12540
SWIDTH 833 0
DWIDTH 10 0
BBX 10 12 0 -1
BITMAP
0000
0000
0000
0000
0000
0000
7F80
7F80
0000
0000
0000
0000
ENDCHAR
STARTCHAR uni30FD
ENCODING 12541
SWIDTH 833 0
DWIDTH 10 0
BBX 10 12 0 -1
BITMAP
0000
0000
0000
0000
3000
3800
1C00
0E00
0600
0600
0000
0000
ENDCHAR
STARTCHAR uni30FE
ENCODING 12542
SWIDTH 833 0
DWIDTH 10 0
BBX 10 12 0 -1
BITMAP
0000
0000
0D80
0D80
3000
3800
1C00
0E00
0600
0600
0000
0000
ENDCHAR
STARTCHAR uniFF01
ENCODING 65281
SWIDTH 833 0
DWIDTH 10 0
BBX 10 12 0 -1
BITMAP
0000
0000
0000
0C00
0C00
0C00
0C00
0C00
0000
0C00
0C00
0000
ENDCHAR
STARTCHAR uniFF02
ENCODING 65282
SWIDTH 833 0
DWIDTH 10 0
BBX 10 12 0 -1
BITMAP
0000
0000
0000
3600
3600
3600
0000
0000
0000
0000
0000
0000
ENDCHAR
STARTCHAR uniFF03
ENCODING 65283
SWIDTH 833 0
DWIDTH 10 0
BBX 10 12 0 -1
BITMAP
0000
0000
0000
1B00
7F80
7F80
3600
3600
FF00
FF00
6C00
0000
ENDCHAR
STARTCHAR uniFF04
ENCODING 65284
SWIDTH 833 0
DWIDTH 10 0
BBX 10 12 0 -1
BITMAP
0000
0000
0000
0C00
3F80
7F80
6C00
3F00
0D80
7F80
7F00
0C00
ENDCHAR
STARTCHAR uniFF05
ENCODING 65285
SWIDTH 833 0
DWIDTH 10 0
BBX 10 12 0 -1
BITMAP
0000
0000
0000
0000
6300
6700
0E00
1C00
3800
7300
6300
0000
ENDCHAR
STARTCHAR uniFF06
ENCODING 65286
SWIDTH 833 0
DWIDTH 10 0
BBX 10 12 0 -1
BITMAP
0000
0000
0000
1C00
3C00
3000
3B00
7F00
6E00
7F80
3B80
0000
ENDCHAR
STARTCHAR uniFF07
ENCODING 65287
SWIDTH 833 0
DWIDTH 10 0
BBX 10 12 0 -1
BITMAP
0000
0000
0000
0C00
0C00
0C00
0000
0000
0000
0000
0000
0000
ENDCHAR
STARTCHAR uniFF08
ENCODING 65288
SWIDTH 833 0
DWIDTH 10 0
BBX 10 12 0 -1
BITMAP
0000
0000
0000
0180
0380
0300
0300
0300
0300
0380
0180
0000
ENDCHAR
STARTCHAR uniFF09
ENCODING 65289
SWIDTH 833 0
DWIDTH 10 0
BBX 10 12 0 -1
BITMAP
0000
0000
0000
6000
7000
3000
3000
3000
3000
7000
6000
0000
ENDCHAR
STARTCHAR uniFF0A
ENCODING 65290
SWIDTH 833 0
DWIDTH 10 0
BBX 10 12 0 -1
BITMAP
0000
0000
0000
0C00
6D80
7F80
3F00
3F00
7F80
6D80
0C00
0000
ENDCHAR
STARTCHAR uniFF0B
ENCODING 65291
SWIDTH 833 0
DWIDTH 10 0
BBX 10 12 0 -1
BITMAP
0000
0000
0000
0C00
0C00
0C00
7F80
7F80
0C00
0C00
0C00
0000
ENDCHAR
STARTCHAR uniFF0C
ENCODING 65292
SWIDTH 833 0
DWIDTH 10 0
BBX 10 12 0 -1
BITMAP
0000
0000
0000
0000
0000
0000
0000
0000
0000
0C00
0C00
0800
ENDCHAR
STARTCHAR uniFF0D
ENCODING 65293
SWIDTH 833 0
DWIDTH 10 0
BBX 10 12 0 -1
BITMAP
0000
0000
0000
0000
0000
0000
7F80
7F80
0000
0000
0000
0000
ENDCHAR
STARTCHAR uniFF0E
ENCODING 65294
SWIDTH 833 0
DWIDTH 10 0
BBX 10 12 0 -1
BITMAP
0000
0000
0000
0000
0000
0000
0000
0000
0000
0C00
0C00
0000
ENDCHAR
STARTCHAR uniFF0F
ENCODING 65295
SWIDTH 833 0
DWIDTH 10 0
BBX 10 12 0 -1
BITMAP
0000
0000
0000
0180
0380
0700
0E00
1C00
3800
7000
6000
0000
ENDCHAR
STARTCHAR uniFF10
ENCODING 65296
SWIDTH 833 0
DWIDTH 10 0
BBX 10 12 0 -1
BITMAP
0000
0000
0000
3F00
7F80
6180
6180
6180
6180
7F80
3F00
0000
ENDCHAR
STARTCHAR uniFF11
ENCODING 65297
SWIDTH 833 0
DWIDTH 10 0
BBX 10 12 0 -1
BITMAP
0000
0000
0000
0C00
3C00
3C00
0C00
0C00
0C00
3F00
3F00
0000
ENDCHAR
STARTCHAR uniFF12
ENCODING 65298
SWIDTH 833 0
DWIDTH 10 0
BBX 10 12 0 -1
BITMAP
0000
0000
0000
7F00
7F80
0180
3F80
7F00
6000
7F80
7F80
0000
ENDCHAR
STARTCHAR uniFF13
ENCODING 65299
SWIDTH 833 0
DWIDTH 10 0
BBX 10 12 0 -1
BITMAP
0000
0000
0000
7F00
7F80
0180
1F00
1F80
0180
7F80
7F00
0000
ENDCHAR
STARTCHAR uniFF14
ENCODING 65300
SWIDTH 833 0
DWIDTH 10 0
BBX 10 12 0 -1
BITMAP
0000
0000
0000
6180
6180
6180
6180
7F80
3F80
0180
0180
0000
ENDCHAR
STARTCHAR uniFF15
ENCODING 65301
SWIDTH 833 0
DWIDTH 10 0
BBX 10 12 0 -1
BITMAP
0000
0000
0000
7F80
7F80
6000
7F00
7F80
0180
7F80
7F00
0000
ENDCHAR
STARTCHAR uniFF16
ENCODING 65302
SWIDTH 833 0
DWIDTH 10 0
BBX 10 12 0 -1
BITMAP
0000
0000
0000
3F00
7F00
6000
7F00
7F80
6180
7F80
3F00
0000
ENDCHAR
STARTCHAR uniFF17
ENCODING 65303
SWIDTH 833 0
DWIDTH 10 0
BBX 10 12 0 -1
BITMAP
0000
0000
0000
7F80
7F80
0380
0700
0E00
0C00
0C00
0C00
0000
ENDCHAR
STARTCHAR uniFF18
ENCODING 65304
SWIDTH 833 0
DWIDTH 10 0
BBX 10 12 0 -1
BITMAP
0000
0000
0000
3F00
7F80
6180
3F00
7F80
6180
7F80
3F00
0000
ENDCHAR
STARTCHAR uniFF19
ENCODING 65305
SWIDTH 833 0
DWIDTH 10 0
BBX 10 12 0 -1
BITMAP
0000
0000
0000
3F00
7F80
6180
7F80
3F80
0180
3F80
3F00
0000
ENDCHAR
STARTCHAR uniFF1A
ENCODING 65306
SWIDTH 833 0
DWIDTH 10 0
BBX 10 12 0 -1
BITMAP
0000
0000
0000
0000
0C00
0C00
0000
0000
0000
0C00
0C00
0000
ENDCHAR
STARTCHAR uniFF1B
ENCODING 65307
SWIDTH 833 0
DWIDTH 10 0
BBX 10 12 0 -1
BITMAP
0000
0000
0000
0000
0C00
0C00
0000
0000
0000
0C00
0C00
0800
ENDCHAR
STARTCHAR uniFF1C
ENCODING 65308
SWIDTH 833 0
DWIDTH 10 0
BBX 10 12 0 -1
BITMAP
0000
0000
0000
0180
0380
0700
0E00
0E00
0700
0380
0180
0000
ENDCHAR
STARTCHAR uniFF1D
ENCODING 65309
SWIDTH 833 0
DWIDTH 10 0
BBX 10 12 0 -1
BITMAP
0000
0000
0000
0000
3F00
3F00
0000
0000
3F00
3F00
0000
0000
ENDCHAR
STARTCHAR uniFF1E
ENCODING 65310
SWIDTH 833 0
DWIDTH 10 0
BBX 10 12 0 -1
BITMAP
0000
0000
0000
6000
7000
3800
1C00
1C00
3800
7000
6000
0000
ENDCHAR
STARTCHAR uniFF1F
ENCODING 65311
SWIDTH 833 0
DWIDTH 10 0
BBX 10 12 0 -1
BITMAP
0000
0000
0000
3E00
3F00
0700
0E00
0C00
0000
0C00
0C00
0000
ENDCHAR
STARTCHAR uniFF20
ENCODING 65312
SWIDTH 833 0
DWIDTH 10 0
BBX 10 12 0 -1
BITMAP
0000
0000
0000
7E00
FF00
C300
DB00
DB00
C000
FF00
7F00
0000
ENDCHAR
STARTCHAR uniFF21
ENCODING 65313
SWIDTH 833 0
DWIDTH 10 0
BBX 10 12 0 -1
BITMAP
0000
0000
0000
3F00
7F80
6180
6180
7F80
7F80
6180
6180
0000
ENDCHAR
STARTCHAR uniFF22
ENCODING 65314
SWIDTH 833 0
DWIDTH 10 0
BBX 10 12 0 -1
BITMAP
0000
0000
0000
7F00
7F80
6180
7F00
7F80
6180
7F80
7F00
0000
ENDCHAR
STARTCHAR uniFF23
ENCODING 65315
SWIDTH 833 0
DWIDTH 10 0
BBX 10 12 0 -1
BITMAP
0000
0000
0000
3F80
7F80
6000
6000
6000
6000
7F80
3F80
0000
ENDCHAR
STARTCHAR uniFF24
ENCODING 65316
SWIDTH 833 0
DWIDTH 10 0
BBX 10 12 0 -1
BITMAP
0000
0000
0000
7F00
7F80
6180
6180
6180
6180
7F80
7F00
0000
ENDCHAR
STARTCHAR uniFF25
ENCODING 65317
SWIDTH 833 0
DWIDTH 10 0
BBX 10 12 0 -1
BITMAP
0000
0000
0000
7F80
7F80
6000
7F00
7F00
6000
7F80
7F80
0000
ENDCHAR
STARTCHAR uniFF26
ENCODING 65318
SWIDTH 833 0
DWIDTH 10 0
BBX 10 12 0 -1
BITMAP
0000
0000
0000
7F80
7F80
6000
7F00
7F00
6000
6000
6000
0000
ENDCHAR
STARTCHAR uniFF27
ENCODING 65319
SWIDTH 833 0
DWIDTH 10 0
BBX 10 12 0 -1
BITMAP
0000
0000
0000
3F80
7F80
6000
6780
6780
6180
7F80
3F80
0000
ENDCHAR
STARTCHAR uniFF28
ENCODING 65320
SWIDTH 833 0
DWIDTH 10 0
BBX 10 12 0 -1
BITMAP
0000
0000
0000
6180
6180
6180
7F80
7F80
6180
6180
6180
0000
ENDCHAR
STARTCHAR uniFF29
ENCODING 65321
SWIDTH 833 0
DWIDTH 10 0
BBX 10 12 0 -1
BITMAP
0000
0000
0000
3F00
3F00
0C00
0C00
0C00
0C00
3F00
3F00
0000
ENDCHAR
STARTCHAR uniFF2A
ENCODING 65322
SWIDTH 833 0
DWIDTH 10 0
BBX 10 12 0 -1
BITMAP
0000
0000
0000
0180
0180
0180
0180
6180
6180
7F80
3F00
0000
ENDCHAR
STARTCHAR uniFF2B
ENCODING 65323
SWIDTH 833 0
DWIDTH 10 0
BBX 10 12 0 -1
BITMAP
0000
0000
0000
6180
6380
6700
7E00
7E00
6700
6380
6180
0000
ENDCHAR
STARTCHAR uniFF2C
ENCODING 65324
SWIDTH 833 0
DWIDTH 10 0
BBX 10 12 0 -1
BITMAP
0000
0000
0000
6000
6000
6000
6000
6000
6000
7F80
7F80
0000
ENDCHAR
STARTCHAR uniFF2D
ENCODING 65325
SWIDTH 833 0
DWIDTH 10 0
BBX 10 12 0 -1
BITMAP
0000
0000
0000
6180
7380
7F80
7F80
6D80
6180
6180
6180
0000
ENDCHAR
STARTCHAR uniFF2E
ENCODING 65326
SWIDTH 833 0
DWIDTH 10 0
BBX 10 12 0 -1
BITMAP
0000
0000
0000
6180
7180
7980
7D80
6F80
6780
6380
6180
0000
ENDCHAR
STARTCHAR uniFF2F
ENCODING 65327
SWIDTH 833 0
DWIDTH 10 0
BBX 10 12 0 -1
BITMAP
0000
0000
0000
3F00
7F80
6180
6180
6180
6180
7F80
3F00
0000
ENDCHAR
STARTCHAR uniFF30
ENCODING 65328
SWIDTH 833 0
DWIDTH 10 0
BBX 10 12 0 -1
BITMAP
0000
0000
0000
7F00
7F80
6180
6180
7F80
7F00
6000
6000
0000
ENDCHAR
STARTCHAR uniFF31
ENCODING 65329
SWIDTH 833 0
DWIDTH 10 0
BBX 10 12 0 -1
BITMAP
0000
0000
0000
3F00
7F80
6180
6180
6180
6300
7F80
3D80
0000
ENDCHAR
STARTCHAR uniFF32
ENCODING 65330
SWIDTH 833 0
DWIDTH 10 0
BBX 10 12 0 -1
BITMAP
0000
0000
0000
7F00
7F80
6180
6180
7F00
7F00
6380
6180
0000
ENDCHAR
STARTCHAR uniFF33
ENCODING 65331
SWIDTH 833 0
DWIDTH 10 0
BBX 10 12 0 -1
BITMAP
0000
0000
0000
3F80
7F80
6000
7F00
3F80
0180
7F80
7F00
0000
ENDCHAR
STARTCHAR uniFF34
ENCODING 65332
SWIDTH 833 0
DWIDTH 10 0
BBX 10 12 0 -1
BITMAP
0000
0000
0000
7F80
7F80
0C00
0C00
0C00
0C00
0C00
0C00
0000
ENDCHAR
STARTCHAR uniFF35
ENCODING 65333
SWIDTH 833 0
DWIDTH 10 0
BBX 10 12 0 -1
BITMAP
0000
0000
0000
6180
6180
6180
6180
6180
6180
7F80
3F00
0000
ENDCHAR
STARTCHAR uniFF36
ENCODING 65334
SWIDTH 833 0
DWIDTH 10 0
BBX 10 12 0 -1
BITMAP
0000
0000
0000
6180
6180
6180
6180
7380
3F00
1E00
0C00
0000
ENDCHAR
STARTCHAR uniFF37
ENCODING 65335
SWIDTH 833 0
DWIDTH 10 0
BBX 10 12 0 -1
BITMAP
0000
0000
0000
6D80
6D80
6D80
6D80
6D80
6D80
7F80
3300
0000
ENDCHAR
STARTCHAR uniFF38
ENCODING 65336
SWIDTH 833 0
DWIDTH 10 0
BBX 10 12 0 -1
BITMAP
0000
0000
0000
6180
7380
3F00
1E00
1E00
3F00
7380
6180
0000
ENDCHAR
STARTCHAR uniFF39
ENCODING 65337
SWIDTH 833 0
DWIDTH 10 0
BBX 10 12 0 -1
BITMAP
0000
0000
0000
6180
7380
3F00
1E00
0C00
0C00
0C00
0C00
0000
ENDCHAR
STARTCHAR uniFF3A
ENCODING 65338
SWIDTH 833 0
DWIDTH 10 0
BBX 10 12 0 -1
BITMAP
0000
0000
0000
7F80
7F80
0700
0E00
1C00
3800
7F80
7F80
0000
ENDCHAR
STARTCHAR uniFF3B
ENCODING 65339
SWIDTH 833 0
DWIDTH 10 0
BBX 10 12 0 -1
BITMAP
0000
0000
0000
0780
0780
0600
0600
0600
0600
0780
0780
0000
ENDCHAR
STARTCHAR uniFF3C
ENCODING 65340
SWIDTH 833 0
DWIDTH 10 0
BBX 10 12 0 -1
BITMAP
0000
0000
0000
6000
7000
3800
1C00
0E00
0700
0380
0180
0000
ENDCHAR
STARTCHAR uniFF3D
ENCODING 65341
SWIDTH 833 0
DWIDTH 10 0
BBX 10 12 0 -1
BITMAP
0000
0000
0000
7800
7800
1800
1800
1800
1800
7800
7800
0000
ENDCHAR
STARTCHAR uniFF3E
ENCODING 65342
SWIDTH 833 0
DWIDTH 10 0
BBX 10 12 0 -1
BITMAP
0000
0000
0000
0C00
1E00
3F00
3300
0000
0000
0000
0000
0000
ENDCHAR
STARTCHAR uniFF3F
ENCODING 65343
SWIDTH 833 0
DWIDTH 10 0
BBX 10 12 0 -1
BITMAP
0000
0000
0000
0000
0000
0000
0000
0000
0000
7F80
7F80
0000
ENDCHAR
STARTCHAR uniFF40
ENCODING 65344
SWIDTH 833 0
DWIDTH 10 0
BBX 10 12 0 -1
BITMAP
0000
1800
0C00
0000
0000
0000
0000
0000
0000
0000
0000
0000
ENDCHAR
STARTCHAR uniFF41
ENCODING 65345
SWIDTH 833 0
DWIDTH 10 0
BBX 10 12 0 -1
BITMAP
0000
0000
0000
0000
3F00
3F80
0180
3F80
6180
7F80
3F80
0000
ENDCHAR
STARTCHAR uniFF42
ENCODING 65346
SWIDTH 833 0
DWIDTH 10 0
BBX 10 12 0 -1
BITMAP
0000
0000
0000
6000
7F00
7F80
6180
6180
6180
7F80
7F00
0000
ENDCHAR
STARTCHAR uniFF43
ENCODING 65347
SWIDTH 833 0
DWIDTH 10 0
BBX 10 12 0 -1
BITMAP
0000
0000
0000
0000
3F80
7F80
6000
6000
6000
7F80
3F80
0000
ENDCHAR
STARTCHAR uniFF44
ENCODING 65348
SWIDTH 833 0
DWIDTH 10 0
BBX 10 12 0 -1
BITMAP
0000
0000
0000
0180
3F80
7F80
6180
6180
6180
7F80
3F80
0000
ENDCHAR
STARTCHAR uniFF45
ENCODING 65349
SWIDTH 833 0
DWIDTH 10 0
BBX 10 12 0 -1
BITMAP
0000
0000
0000
0000
3F00
7F80
6180
7F80
6000
7F00
3F00
0000
ENDCHAR
STARTCHAR uniFF46
ENCODING 65350
SWIDTH 833 0
DWIDTH 10 0
BBX 10 12 0 -1
BITMAP
0000
0000
0000
0700
0F00
0C00
3F00
3F00
0C00
0C00
0C00
0000
ENDCHAR
STARTCHAR uniFF47
ENCODING 65351
SWIDTH 833 0
DWIDTH 10 0
BBX 10 12 0 -1
BITMAP
0000
0000
0000
0000
3F80
7F80
6180
7F80
3F80
0180
3F80
3F00
ENDCHAR
STARTCHAR uniFF48
ENCODING 65352
SWIDTH 833 0
DWIDTH 10 0
BBX 10 12 0 -1
BITMAP
0000
0000
0000
6000
7F00
7F80
6180
6180
6180
6180
6180
0000
ENDCHAR
STARTCHAR uniFF49
ENCODING 65353
SWIDTH 833 0
DWIDTH 10 0
BBX 10 12 0 -1
BITMAP
0000
0000
0000
0C00
0C00
0000
0C00
0C00
0C00
0C00
0C00
0000
ENDCHAR
STARTCHAR uniFF4A
ENCODING 65354
SWIDTH 833 0
DWIDTH 10 0
BBX 10 12 0 -1
BITMAP
0000
0000
0000
0300
0300
0000
0300
0300
0300
6300
7F00
3E00
ENDCHAR
STARTCHAR uniFF4B
ENCODING 65355
SWIDTH 833 0
DWIDTH 10 0
BBX 10 12 0 -1
BITMAP
0000
0000
0000
6000
6380
6780
6E00
7C00
7E00
7780
6380
0000
ENDCHAR
STARTCHAR uniFF4C
ENCODING 65356
SWIDTH 833 0
DWIDTH 10 0
BBX 10 12 0 -1
BITMAP
0000
0000
0000
3C00
3C00
0C00
0C00
0C00
0C00
0F00
0700
0000
ENDCHAR
STARTCHAR uniFF4D
ENCODING 65357
SWIDTH 833 0
DWIDTH 10 0
BBX 10 12 0 -1
BITMAP
0000
0000
0000
0000
7F00
7F80
6D80
6D80
6D80
6D80
6D80
0000
ENDCHAR
STARTCHAR uniFF4E
ENCODING 65358
SWIDTH 833 0
DWIDTH 10 0
BBX 10 12 0 -1
BITMAP
0000
0000
0000
0000
7F00
7F80
6180
6180
6180
6180
6180
0000
ENDCHAR
STARTCHAR uniFF4F
ENCODING 65359
SWIDTH 833 0
DWIDTH 10 0
BBX 10 12 0 -1
BITMAP
0000
0000
0000
0000
3F00
7F80
6180
6180
6180
7F80
3F00
0000
ENDCHAR
STARTCHAR uniFF50
ENCODING 65360
SWIDTH 833 0
DWIDTH 10 0
BBX 10 12 0 -1
BITMAP
0000
0000
0000
0000
7F00
7F80
6180
6180
7F80
7F00
6000
6000
ENDCHAR
STARTCHAR uniFF51
ENCODING 65361
SWIDTH 833 0
DWIDTH 10 0
BBX 10 12 0 -1
BITMAP
0000
0000
0000
0000
3F80
7F80
6180
6180
7F80
3F80
0180
0180
ENDCHAR
STARTCHAR uniFF52
ENCODING 65362
SWIDTH 833 0
DWIDTH 10 0
BBX 10 12 0 -1
BITMAP
0000
0000
0000
0000
1F00
3F00
3000
3000
3000
3000
3000
0000
ENDCHAR
STARTCHAR uniFF53
ENCODING 65363
SWIDTH 833 0
DWIDTH 10 0
BBX 10 12 0 -1
BITMAP
0000
0000
0000
0000
3F80
7F80
6000
3F00
0180
7F80
7F00
0000
ENDCHAR
STARTCHAR uniFF54
ENCODING 65364
SWIDTH 833 0
DWIDTH 10 0
BBX 10 12 0 -1
BITMAP
0000
0000
0000
1800
7F80
7F80
1800
1800
1800
1F80
0F80
0000
ENDCHAR
STARTCHAR uniFF55
ENCODING 65365
SWIDTH 833 0
DWIDTH 10 0
BBX 10 12 0 -1
BITMAP
0000
0000
0000
0000
6180
6180
6180
6180
6180
7F80
3F80
0000
ENDCHAR
STARTCHAR uniFF56
ENCODING 65366
SWIDTH 833 0
DWIDTH 10 0
BBX 10 12 0 -1
BITMAP
0000
0000
0000
0000
6180
6180
6180
7380
3F00
1E00
0C00
0000
ENDCHAR
STARTCHAR uniFF57
ENCODING 65367
SWIDTH 833 0
DWIDTH 10 0
BBX 10 12 0 -1
BITMAP
0000
0000
0000
0000
6180
6D80
6D80
6D80
6D80
7F80
3300
0000
ENDCHAR
STARTCHAR uniFF58
ENCODING 65368
SWIDTH 833 0
DWIDTH 10 0
BBX 10 12 0 -1
BITMAP
0000
0000
0000
0000
6180
7380
3F00
1E00
3F00
7380
6180
0000
ENDCHAR
STARTCHAR uniFF59
ENCODING 65369
SWIDTH 833 0
DWIDTH 10 0
BBX 10 12 0 -1
BITMAP
0000
0000
0000
0000
6180
6180
6180
7F80
3F80
0180
3F80
3F00
ENDCHAR
STARTCHAR uniFF5A
ENCODING 65370
SWIDTH 833 0
DWIDTH 10 0
BBX 10 12 0 -1
BITMAP
0000
0000
0000
0000
7F80
7F80
0700
1E00
3800
7F80
7F80
0000
ENDCHAR
STARTCHAR uniFF5B
ENCODING 65371
SWIDTH 833 0
DWIDTH 10 0
BBX 10 12 0 -1
BITMAP
0000
0000
0000
0780
0780
0600
0E00
0E00
0600
0780
0780
0000
ENDCHAR
STARTCHAR uniFF5C
ENCODING 65372
SWIDTH 833 0
DWIDTH 10 0
BBX 10 12 0 -1
BITMAP
0000
0000
0C00
0C00
0C00
0C00
0C00
0C00
0C00
0C00
0C00
0C00
ENDCHAR
STARTCHAR uniFF5D
ENCODING 65373
SWIDTH 833 0
DWIDTH 10 0
BBX 10 12 0 -1
BITMAP
0000
0000
0000
7800
7800
1800
1C00
1C00
1800
7800
7800
0000
ENDCHAR
STARTCHAR uniFF5E
ENCODING 65374
SWIDTH 833 0
DWIDTH 10 0
BBX 10 12 0 -1
BITMAP
0000
0000
0000
0000
0000
3800
7D80
6F80
0700
0000
0000
0000
ENDCHAR
STARTCHAR uniFFE5
ENCODING 65509
SWIDTH 833 0
DWIDTH 10 0
BBX 10 12 0 -1
BITMAP
0000
0000
0000
6180
7380
3F00
1E00
7F80
0C00
7F80
0C00
0000
ENDCHAR
ENDFONT
