STARTFONT 2.1
FONT Bm437_IBM_XGA-AI_12x23-24px
SIZE 24 75 75
FONTBOUNDINGBOX 12 23 0 -7
STARTPROPERTIES 3
PIXEL_SIZE 24
FONT_ASCENT 17
FONT_DESCENT 7
ENDPROPERTIES
CHARS 295
STARTCHAR uni0000
ENCODING 0
SWIDTH 500 0
DWIDTH 12 0
BBX 12 23 0 -7
BITMAP
0000
0000
0000
0000
0000
0000
0000
0000
0000
0000
0000
0000
0000
0000
0000
0000
0000
0000
0000
0000
0000
0000
0000
ENDCHAR
STARTCHAR uni0001
ENCODING 1
SWIDTH 500 0
DWIDTH 12 0
BBX 12 23 0 -7
BITMAP
0000
0000
1F80
2040
4020
59A0
59A0
4020
4620
4620
4620
50A0
4F20
4020
2040
1F80
0000
0000
0000
0000
0000
0000
0000
ENDCHAR
STARTCHAR uni0002
ENCODING 2
SWIDTH 500 0
DWIDTH 12 0
BBX 12 23 0 -7
BITMAP
0000
0000
1F80
3FC0
7FE0
6660
6660
7FE0
79E0
79E0
79E0
6F60
70E0
7FE0
3FC0
1F80
0000
0000
0000
0000
0000
0000
0000
ENDCHAR
STARTCHAR uni0003
ENCODING 3
SWIDTH 500 0
DWIDTH 12 0
BBX 12 23 0 -7
BITMAP
0000
0000
39C0
7FE0
7FE0
7FE0
7FE0
7FE0
3FC0
3FC0
1F80
1F80
0F00
0F00
0600
0600
0000
0000
0000
0000
0000
0000
0000
ENDCHAR
STARTCHAR uni0004
ENCODING 4
SWIDTH 500 0
DWIDTH 12 0
BBX 12 23 0 -7
BITMAP
0000
0000
0600
0600
0F00
0F00
1F80
1F80
7FE0
7FE0
1F80
1F80
0F00
0F00
0600
0600
0000
0000
0000
0000
0000
0000
0000
ENDCHAR
STARTCHAR uni0005
ENCODING 5
SWIDTH 500 0
DWIDTH 12 0
BBX 12 23 0 -7
BITMAP
0000
0000
0F00
1F80
1F80
1F80
0F00
36C0
7FE0
7FE0
7FE0
7FE0
36C0
0600
0600
0F00
0000
0000
0000
0000
0000
0000
0000
ENDCHAR
STARTCHAR uni0006
ENCODING 6
SWIDTH 500 0
DWIDTH 12 0
BBX 12 23 0 -7
BITMAP
0000
0000
0600
0600
0F00
0F00
1F80
1F80
3FC0
3FC0
7FE0
7FE0
7FE0
7FE0
36C0
0F00
0000
0000
0000
0000
0000
0000
0000
ENDCHAR
STARTCHAR uni0007
ENCODING 7
SWIDTH 500 0
DWIDTH 12 0
BBX 12 23 0 -7
BITMAP
0000
0000
0000
0000
0000
0000
0000
0000
0600
0F00
1F80
1F80
0F00
0600
0000
0000
0000
0000
0000
0000
0000
0000
0000
ENDCHAR
STARTCHAR uni0008
ENCODING 8
SWIDTH 500 0
DWIDTH 12 0
BBX 12 23 0 -7
BITMAP
FFF0
FFF0
FFF0
FFF0
FFF0
FFF0
FFF0
FFF0
F9F0
F0F0
E070
E070
F0F0
F9F0
FFF0
FFF0
FFF0
FFF0
FFF0
FFF0
FFF0
FFF0
FFF0
ENDCHAR
STARTCHAR uni0009
ENCODING 9
SWIDTH 500 0
DWIDTH 12 0
BBX 12 23 0 -7
BITMAP
0000
0000
0000
0000
0000
0000
0600
1980
2040
2040
4020
4020
2040
2040
1980
0600
0000
0000
0000
0000
0000
0000
0000
ENDCHAR
STARTCHAR uni000A
ENCODING 10
SWIDTH 500 0
DWIDTH 12 0
BBX 12 23 0 -7
BITMAP
FFF0
FFF0
FFF0
FFF0
FFF0
FFF0
F9F0
E670
DFB0
DFB0
BFD0
BFD0
DFB0
DFB0
E670
F9F0
FFF0
FFF0
FFF0
FFF0
FFF0
FFF0
FFF0
ENDCHAR
STARTCHAR uni000B
ENCODING 11
SWIDTH 500 0
DWIDTH 12 0
BBX 12 23 0 -7
BITMAP
0000
0000
0000
0000
01E0
0060
00A0
1F20
2080
4040
4040
4040
4040
4040
2080
1F00
0000
0000
0000
0000
0000
0000
0000
ENDCHAR
STARTCHAR uni000C
ENCODING 12
SWIDTH 500 0
DWIDTH 12 0
BBX 12 23 0 -7
BITMAP
0000
0000
0000
0000
0000
0000
0F80
1040
2020
2020
2020
2020
2020
1040
0F80
0200
0200
0F80
0200
0200
0000
0000
0000
ENDCHAR
STARTCHAR uni000D
ENCODING 13
SWIDTH 500 0
DWIDTH 12 0
BBX 12 23 0 -7
BITMAP
0000
0000
0600
0780
07E0
0600
0600
0600
0600
0600
0600
0600
0600
1E00
3E00
1C00
0000
0000
0000
0000
0000
0000
0000
ENDCHAR
STARTCHAR uni000E
ENCODING 14
SWIDTH 500 0
DWIDTH 12 0
BBX 12 23 0 -7
BITMAP
0000
0000
0C00
0F00
0CC0
0F20
0CE0
0C60
0C60
0C60
0C60
3C60
7C60
39E0
03E0
01C0
0000
0000
0000
0000
0000
0000
0000
ENDCHAR
STARTCHAR uni000F
ENCODING 15
SWIDTH 500 0
DWIDTH 12 0
BBX 12 23 0 -7
BITMAP
0000
0000
0000
0000
0200
2720
18C0
1040
2020
7030
1020
0840
18C0
2720
0200
0000
0000
0000
0000
0000
0000
0000
0000
ENDCHAR
STARTCHAR uni0010
ENCODING 16
SWIDTH 500 0
DWIDTH 12 0
BBX 12 23 0 -7
BITMAP
0000
0000
2000
3000
3800
3C00
3E00
3F00
3F80
3FC0
3F80
3F00
3E00
3C00
3800
3000
2000
0000
0000
0000
0000
0000
0000
ENDCHAR
STARTCHAR uni0011
ENCODING 17
SWIDTH 500 0
DWIDTH 12 0
BBX 12 23 0 -7
BITMAP
0000
0000
0040
00C0
01C0
03C0
07C0
0FC0
1FC0
3FC0
1FC0
0FC0
07C0
03C0
01C0
00C0
0040
0000
0000
0000
0000
0000
0000
ENDCHAR
STARTCHAR uni0012
ENCODING 18
SWIDTH 500 0
DWIDTH 12 0
BBX 12 23 0 -7
BITMAP
0000
0000
0200
0700
0F80
0200
0200
0200
0200
0200
0200
0200
0200
0F80
0700
0200
0000
0000
0000
0000
0000
0000
0000
ENDCHAR
STARTCHAR uni0013
ENCODING 19
SWIDTH 500 0
DWIDTH 12 0
BBX 12 23 0 -7
BITMAP
0000
0000
1980
1980
1980
1980
1980
1980
1980
1980
1980
1980
0000
1980
1980
1980
0000
0000
0000
0000
0000
0000
0000
ENDCHAR
STARTCHAR uni0014
ENCODING 20
SWIDTH 500 0
DWIDTH 12 0
BBX 12 23 0 -7
BITMAP
0000
0000
0FC0
1FC0
3D80
3D80
3D80
3D80
1D80
0D80
0D80
0D80
0D80
0D80
0D80
0D80
0000
0000
0000
0000
0000
0000
0000
ENDCHAR
STARTCHAR uni0015
ENCODING 21
SWIDTH 500 0
DWIDTH 12 0
BBX 12 23 0 -7
BITMAP
0000
0000
0F80
1FC0
3060
3060
1800
0F80
1FC0
3060
3060
3060
3060
1FC0
0F80
00C0
3060
3060
1FC0
0F80
0000
0000
0000
ENDCHAR
STARTCHAR uni0016
ENCODING 22
SWIDTH 500 0
DWIDTH 12 0
BBX 12 23 0 -7
BITMAP
0000
0000
0000
0000
0000
0000
0000
0000
0000
0000
3FC0
3FC0
3FC0
3FC0
0000
0000
0000
0000
0000
0000
0000
0000
0000
ENDCHAR
STARTCHAR uni0017
ENCODING 23
SWIDTH 500 0
DWIDTH 12 0
BBX 12 23 0 -7
BITMAP
0000
0000
0200
0700
0F80
0200
0200
0200
0200
0200
0200
0200
0200
0F80
0700
0200
0F80
0000
0000
0000
0000
0000
0000
ENDCHAR
STARTCHAR uni0018
ENCODING 24
SWIDTH 500 0
DWIDTH 12 0
BBX 12 23 0 -7
BITMAP
0000
0000
0200
0700
0F80
0200
0200
0200
0200
0200
0200
0200
0200
0200
0200
0200
0000
0000
0000
0000
0000
0000
0000
ENDCHAR
STARTCHAR uni0019
ENCODING 25
SWIDTH 500 0
DWIDTH 12 0
BBX 12 23 0 -7
BITMAP
0000
0000
0200
0200
0200
0200
0200
0200
0200
0200
0200
0200
0200
0F80
0700
0200
0000
0000
0000
0000
0000
0000
0000
ENDCHAR
STARTCHAR uni001A
ENCODING 26
SWIDTH 500 0
DWIDTH 12 0
BBX 12 23 0 -7
BITMAP
0000
0000
0000
0000
0000
0000
0000
0080
00C0
7FE0
00C0
0080
0000
0000
0000
0000
0000
0000
0000
0000
0000
0000
0000
ENDCHAR
STARTCHAR uni001B
ENCODING 27
SWIDTH 500 0
DWIDTH 12 0
BBX 12 23 0 -7
BITMAP
0000
0000
0000
0000
0000
0000
0000
1000
3000
7FE0
3000
1000
0000
0000
0000
0000
0000
0000
0000
0000
0000
0000
0000
ENDCHAR
STARTCHAR uni001C
ENCODING 28
SWIDTH 500 0
DWIDTH 12 0
BBX 12 23 0 -7
BITMAP
0000
0000
0000
0000
0000
0000
0000
3000
3000
3000
3000
3000
3000
3000
3FE0
3FE0
0000
0000
0000
0000
0000
0000
0000
ENDCHAR
STARTCHAR uni001D
ENCODING 29
SWIDTH 500 0
DWIDTH 12 0
BBX 12 23 0 -7
BITMAP
0000
0000
0000
0000
0000
0000
0000
1080
30C0
7FE0
30C0
1080
0000
0000
0000
0000
0000
0000
0000
0000
0000
0000
0000
ENDCHAR
STARTCHAR uni001E
ENCODING 30
SWIDTH 500 0
DWIDTH 12 0
BBX 12 23 0 -7
BITMAP
0000
0000
0600
0600
0600
0F00
0F00
0F00
1F80
1F80
1F80
3FC0
3FC0
3FC0
7FE0
7FE0
0000
0000
0000
0000
0000
0000
0000
ENDCHAR
STARTCHAR uni001F
ENCODING 31
SWIDTH 500 0
DWIDTH 12 0
BBX 12 23 0 -7
BITMAP
0000
0000
7FE0
7FE0
3FC0
3FC0
3FC0
1F80
1F80
1F80
0F00
0F00
0F00
0600
0600
0600
0000
0000
0000
0000
0000
0000
0000
ENDCHAR
STARTCHAR space
ENCODING 32
SWIDTH 500 0
DWIDTH 12 0
BBX 12 23 0 -7
BITMAP
0000
0000
0000
0000
0000
0000
0000
0000
0000
0000
0000
0000
0000
0000
0000
0000
0000
0000
0000
0000
0000
0000
0000
ENDCHAR
STARTCHAR exclam
ENCODING 33
SWIDTH 500 0
DWIDTH 12 0
BBX 12 23 0 -7
BITMAP
0000
0000
0600
0600
0600
0600
0600
0600
0600
0600
0600
0600
0000
0600
0600
0600
0000
0000
0000
0000
0000
0000
0000
ENDCHAR
STARTCHAR quotedbl
ENCODING 34
SWIDTH 500 0
DWIDTH 12 0
BBX 12 23 0 -7
BITMAP
0000
1980
1980
1980
0000
0000
0000
0000
0000
0000
0000
0000
0000
0000
0000
0000
0000
0000
0000
0000
0000
0000
0000
ENDCHAR
STARTCHAR numbersign
ENCODING 35
SWIDTH 500 0
DWIDTH 12 0
BBX 12 23 0 -7
BITMAP
0000
0000
0CC0
0CC0
0CC0
0CC0
7FE0
7FE0
1980
1980
7FE0
7FE0
3300
3300
3300
3300
0000
0000
0000
0000
0000
0000
0000
ENDCHAR
STARTCHAR dollar
ENCODING 36
SWIDTH 500 0
DWIDTH 12 0
BBX 12 23 0 -7
BITMAP
0000
0600
0F00
1F80
36C0
36C0
3600
3600
1F00
0F80
06C0
06C0
36C0
36C0
1F80
0F00
0600
0000
0000
0000
0000
0000
0000
ENDCHAR
STARTCHAR percent
ENCODING 37
SWIDTH 500 0
DWIDTH 12 0
BBX 12 23 0 -7
BITMAP
0000
0000
3840
7C80
6C80
6D00
6D00
7E00
3A00
05C0
07E0
0B60
0B60
1360
13E0
21C0
0000
0000
0000
0000
0000
0000
0000
ENDCHAR
STARTCHAR ampersand
ENCODING 38
SWIDTH 500 0
DWIDTH 12 0
BBX 12 23 0 -7
BITMAP
0000
0000
0C00
1E00
3300
3300
3300
1E00
1C00
3600
66C0
63C0
63C0
6180
3FC0
1E60
0000
0000
0000
0000
0000
0000
0000
ENDCHAR
STARTCHAR quotesingle
ENCODING 39
SWIDTH 500 0
DWIDTH 12 0
BBX 12 23 0 -7
BITMAP
0000
0600
0600
0600
0000
0000
0000
0000
0000
0000
0000
0000
0000
0000
0000
0000
0000
0000
0000
0000
0000
0000
0000
ENDCHAR
STARTCHAR parenleft
ENCODING 40
SWIDTH 500 0
DWIDTH 12 0
BBX 12 23 0 -7
BITMAP
0000
0180
0300
0600
0C00
0C00
0C00
0C00
0C00
0C00
0C00
0C00
0C00
0C00
0600
0300
0180
0000
0000
0000
0000
0000
0000
ENDCHAR
STARTCHAR parenright
ENCODING 41
SWIDTH 500 0
DWIDTH 12 0
BBX 12 23 0 -7
BITMAP
0000
1800
0C00
0600
0300
0300
0300
0300
0300
0300
0300
0300
0300
0300
0600
0C00
1800
0000
0000
0000
0000
0000
0000
ENDCHAR
STARTCHAR asterisk
ENCODING 42
SWIDTH 500 0
DWIDTH 12 0
BBX 12 23 0 -7
BITMAP
0000
0000
0400
2480
1500
0E00
7FC0
0E00
1500
2480
0400
0000
0000
0000
0000
0000
0000
0000
0000
0000
0000
0000
0000
ENDCHAR
STARTCHAR plus
ENCODING 43
SWIDTH 500 0
DWIDTH 12 0
BBX 12 23 0 -7
BITMAP
0000
0000
0000
0000
0000
0600
0600
0600
3FC0
3FC0
0600
0600
0600
0000
0000
0000
0000
0000
0000
0000
0000
0000
0000
ENDCHAR
STARTCHAR comma
ENCODING 44
SWIDTH 500 0
DWIDTH 12 0
BBX 12 23 0 -7
BITMAP
0000
0000
0000
0000
0000
0000
0000
0000
0000
0000
0000
0000
0000
0600
0600
0600
0C00
0000
0000
0000
0000
0000
0000
ENDCHAR
STARTCHAR hyphen
ENCODING 45
SWIDTH 500 0
DWIDTH 12 0
BBX 12 23 0 -7
BITMAP
0000
0000
0000
0000
0000
0000
0000
0000
0000
0000
3FC0
3FC0
0000
0000
0000
0000
0000
0000
0000
0000
0000
0000
0000
ENDCHAR
STARTCHAR period
ENCODING 46
SWIDTH 500 0
DWIDTH 12 0
BBX 12 23 0 -7
BITMAP
0000
0000
0000
0000
0000
0000
0000
0000
0000
0000
0000
0000
0000
0600
0600
0600
0000
0000
0000
0000
0000
0000
0000
ENDCHAR
STARTCHAR slash
ENCODING 47
SWIDTH 500 0
DWIDTH 12 0
BBX 12 23 0 -7
BITMAP
0000
0000
00C0
0180
0180
0300
0300
0600
0600
0C00
0C00
1800
1800
3000
3000
6000
0000
0000
0000
0000
0000
0000
0000
ENDCHAR
STARTCHAR zero
ENCODING 48
SWIDTH 500 0
DWIDTH 12 0
BBX 12 23 0 -7
BITMAP
0000
0000
0F00
1F80
1980
30C0
30C0
30C0
36C0
36C0
30C0
30C0
30C0
1980
1F80
0F00
0000
0000
0000
0000
0000
0000
0000
ENDCHAR
STARTCHAR one
ENCODING 49
SWIDTH 500 0
DWIDTH 12 0
BBX 12 23 0 -7
BITMAP
0000
0000
0600
1E00
1E00
0600
0600
0600
0600
0600
0600
0600
0600
0600
0600
0600
0000
0000
0000
0000
0000
0000
0000
ENDCHAR
STARTCHAR two
ENCODING 50
SWIDTH 500 0
DWIDTH 12 0
BBX 12 23 0 -7
BITMAP
0000
0000
0F00
1F80
30C0
30C0
00C0
00C0
0180
0300
0600
0C00
1800
3000
3FC0
3FC0
0000
0000
0000
0000
0000
0000
0000
ENDCHAR
STARTCHAR three
ENCODING 51
SWIDTH 500 0
DWIDTH 12 0
BBX 12 23 0 -7
BITMAP
0000
0000
0F00
1F80
30C0
30C0
00C0
00C0
0780
0780
00C0
00C0
30C0
30C0
1F80
0F00
0000
0000
0000
0000
0000
0000
0000
ENDCHAR
STARTCHAR four
ENCODING 52
SWIDTH 500 0
DWIDTH 12 0
BBX 12 23 0 -7
BITMAP
0000
0000
0080
0180
0380
0780
0D80
1980
3180
3180
3180
3FC0
3FC0
0180
0180
0180
0000
0000
0000
0000
0000
0000
0000
ENDCHAR
STARTCHAR five
ENCODING 53
SWIDTH 500 0
DWIDTH 12 0
BBX 12 23 0 -7
BITMAP
0000
0000
3FC0
3FC0
3000
3000
3000
3F00
3F80
30C0
00C0
00C0
30C0
30C0
1F80
0F00
0000
0000
0000
0000
0000
0000
0000
ENDCHAR
STARTCHAR six
ENCODING 54
SWIDTH 500 0
DWIDTH 12 0
BBX 12 23 0 -7
BITMAP
0000
0000
0F00
1F80
30C0
3000
3000
3700
3F80
30C0
30C0
30C0
30C0
30C0
1F80
0F00
0000
0000
0000
0000
0000
0000
0000
ENDCHAR
STARTCHAR seven
ENCODING 55
SWIDTH 500 0
DWIDTH 12 0
BBX 12 23 0 -7
BITMAP
0000
0000
3FC0
3FC0
00C0
0180
0180
0300
0300
0600
0600
0C00
0C00
1800
1800
1800
0000
0000
0000
0000
0000
0000
0000
ENDCHAR
STARTCHAR eight
ENCODING 56
SWIDTH 500 0
DWIDTH 12 0
BBX 12 23 0 -7
BITMAP
0000
0000
0F00
1F80
30C0
30C0
30C0
1980
0F00
1980
30C0
30C0
30C0
30C0
1F80
0F00
0000
0000
0000
0000
0000
0000
0000
ENDCHAR
STARTCHAR nine
ENCODING 57
SWIDTH 500 0
DWIDTH 12 0
BBX 12 23 0 -7
BITMAP
0000
0000
0F00
1F80
30C0
30C0
30C0
30C0
30C0
1FC0
0EC0
00C0
00C0
30C0
1F80
0F00
0000
0000
0000
0000
0000
0000
0000
ENDCHAR
STARTCHAR colon
ENCODING 58
SWIDTH 500 0
DWIDTH 12 0
BBX 12 23 0 -7
BITMAP
0000
0000
0000
0000
0000
0000
0600
0600
0600
0000
0000
0000
0000
0600
0600
0600
0000
0000
0000
0000
0000
0000
0000
ENDCHAR
STARTCHAR semicolon
ENCODING 59
SWIDTH 500 0
DWIDTH 12 0
BBX 12 23 0 -7
BITMAP
0000
0000
0000
0000
0000
0000
0600
0600
0600
0000
0000
0000
0000
0600
0600
0600
0C00
0000
0000
0000
0000
0000
0000
ENDCHAR
STARTCHAR less
ENCODING 60
SWIDTH 500 0
DWIDTH 12 0
BBX 12 23 0 -7
BITMAP
0000
0000
0000
00C0
0180
0300
0600
0C00
1800
3000
1800
0C00
0600
0300
0180
00C0
0000
0000
0000
0000
0000
0000
0000
ENDCHAR
STARTCHAR equal
ENCODING 61
SWIDTH 500 0
DWIDTH 12 0
BBX 12 23 0 -7
BITMAP
0000
0000
0000
0000
0000
0000
3FC0
3FC0
0000
0000
3FC0
3FC0
0000
0000
0000
0000
0000
0000
0000
0000
0000
0000
0000
ENDCHAR
STARTCHAR greater
ENCODING 62
SWIDTH 500 0
DWIDTH 12 0
BBX 12 23 0 -7
BITMAP
0000
0000
0000
3000
1800
0C00
0600
0300
0180
00C0
0180
0300
0600
0C00
1800
3000
0000
0000
0000
0000
0000
0000
0000
ENDCHAR
STARTCHAR question
ENCODING 63
SWIDTH 500 0
DWIDTH 12 0
BBX 12 23 0 -7
BITMAP
0000
0000
0F00
1F80
30C0
30C0
30C0
00C0
0180
0300
0600
0600
0000
0600
0600
0600
0000
0000
0000
0000
0000
0000
0000
ENDCHAR
STARTCHAR at
ENCODING 64
SWIDTH 500 0
DWIDTH 12 0
BBX 12 23 0 -7
BITMAP
0000
0000
1F80
2040
4020
4DA0
5FA0
59A0
59A0
59A0
59A0
5FA0
4DA0
40C0
2000
1F80
0000
0000
0000
0000
0000
0000
0000
ENDCHAR
STARTCHAR A
ENCODING 65
SWIDTH 500 0
DWIDTH 12 0
BBX 12 23 0 -7
BITMAP
0000
0000
0200
0700
0700
0700
0D80
0D80
0D80
18C0
18C0
1FC0
3FE0
3060
3060
3060
0000
0000
0000
0000
0000
0000
0000
ENDCHAR
STARTCHAR B
ENCODING 66
SWIDTH 500 0
DWIDTH 12 0
BBX 12 23 0 -7
BITMAP
0000
0000
3F00
3F80
30C0
30C0
30C0
3F80
3F80
30C0
30C0
30C0
30C0
30C0
3F80
3F00
0000
0000
0000
0000
0000
0000
0000
ENDCHAR
STARTCHAR C
ENCODING 67
SWIDTH 500 0
DWIDTH 12 0
BBX 12 23 0 -7
BITMAP
0000
0000
0F80
1FC0
3060
3060
3000
3000
3000
3000
3000
3000
3060
3060
1FC0
0F80
0000
0000
0000
0000
0000
0000
0000
ENDCHAR
STARTCHAR D
ENCODING 68
SWIDTH 500 0
DWIDTH 12 0
BBX 12 23 0 -7
BITMAP
0000
0000
3F00
3F80
30C0
3060
3060
3060
3060
3060
3060
3060
3060
30C0
3F80
3F00
0000
0000
0000
0000
0000
0000
0000
ENDCHAR
STARTCHAR E
ENCODING 69
SWIDTH 500 0
DWIDTH 12 0
BBX 12 23 0 -7
BITMAP
0000
0000
3FE0
3FE0
3000
3000
3000
3000
3FC0
3FC0
3000
3000
3000
3000
3FE0
3FE0
0000
0000
0000
0000
0000
0000
0000
ENDCHAR
STARTCHAR F
ENCODING 70
SWIDTH 500 0
DWIDTH 12 0
BBX 12 23 0 -7
BITMAP
0000
0000
3FE0
3FE0
3000
3000
3000
3000
3FC0
3FC0
3000
3000
3000
3000
3000
3000
0000
0000
0000
0000
0000
0000
0000
ENDCHAR
STARTCHAR G
ENCODING 71
SWIDTH 500 0
DWIDTH 12 0
BBX 12 23 0 -7
BITMAP
0000
0000
0F80
1FC0
3060
3060
3000
3000
3000
31E0
31E0
3060
3060
3060
1FE0
0F60
0000
0000
0000
0000
0000
0000
0000
ENDCHAR
STARTCHAR H
ENCODING 72
SWIDTH 500 0
DWIDTH 12 0
BBX 12 23 0 -7
BITMAP
0000
0000
3060
3060
3060
3060
3060
3060
3FE0
3FE0
3060
3060
3060
3060
3060
3060
0000
0000
0000
0000
0000
0000
0000
ENDCHAR
STARTCHAR I
ENCODING 73
SWIDTH 500 0
DWIDTH 12 0
BBX 12 23 0 -7
BITMAP
0000
0000
1F80
1F80
0600
0600
0600
0600
0600
0600
0600
0600
0600
0600
1F80
1F80
0000
0000
0000
0000
0000
0000
0000
ENDCHAR
STARTCHAR J
ENCODING 74
SWIDTH 500 0
DWIDTH 12 0
BBX 12 23 0 -7
BITMAP
0000
0000
00C0
00C0
00C0
00C0
00C0
00C0
00C0
00C0
00C0
00C0
30C0
30C0
1F80
0F00
0000
0000
0000
0000
0000
0000
0000
ENDCHAR
STARTCHAR K
ENCODING 75
SWIDTH 500 0
DWIDTH 12 0
BBX 12 23 0 -7
BITMAP
0000
0000
3060
30C0
3180
3300
3600
3C00
3800
3C00
3600
3300
3180
30C0
3060
3060
0000
0000
0000
0000
0000
0000
0000
ENDCHAR
STARTCHAR L
ENCODING 76
SWIDTH 500 0
DWIDTH 12 0
BBX 12 23 0 -7
BITMAP
0000
0000
3000
3000
3000
3000
3000
3000
3000
3000
3000
3000
3000
3000
3FE0
3FE0
0000
0000
0000
0000
0000
0000
0000
ENDCHAR
STARTCHAR M
ENCODING 77
SWIDTH 500 0
DWIDTH 12 0
BBX 12 23 0 -7
BITMAP
0000
0000
6060
6060
70E0
70E0
79E0
79E0
79E0
7FE0
6F60
6F60
6660
6660
6060
6060
0000
0000
0000
0000
0000
0000
0000
ENDCHAR
STARTCHAR N
ENCODING 78
SWIDTH 500 0
DWIDTH 12 0
BBX 12 23 0 -7
BITMAP
0000
0000
3060
3860
3860
3C60
3C60
3660
3660
3360
3360
31E0
31E0
30E0
30E0
3060
0000
0000
0000
0000
0000
0000
0000
ENDCHAR
STARTCHAR O
ENCODING 79
SWIDTH 500 0
DWIDTH 12 0
BBX 12 23 0 -7
BITMAP
0000
0000
0F80
1FC0
3060
3060
3060
3060
3060
3060
3060
3060
3060
3060
1FC0
0F80
0000
0000
0000
0000
0000
0000
0000
ENDCHAR
STARTCHAR P
ENCODING 80
SWIDTH 500 0
DWIDTH 12 0
BBX 12 23 0 -7
BITMAP
0000
0000
3F00
3F80
30C0
30C0
30C0
30C0
3F80
3F00
3000
3000
3000
3000
3000
3000
0000
0000
0000
0000
0000
0000
0000
ENDCHAR
STARTCHAR Q
ENCODING 81
SWIDTH 500 0
DWIDTH 12 0
BBX 12 23 0 -7
BITMAP
0000
0000
0F80
1FC0
3060
3060
3060
3060
3060
3060
3060
3060
3660
3360
1FC0
0FC0
0060
0000
0000
0000
0000
0000
0000
ENDCHAR
STARTCHAR R
ENCODING 82
SWIDTH 500 0
DWIDTH 12 0
BBX 12 23 0 -7
BITMAP
0000
0000
3F00
3F80
30C0
30C0
30C0
30C0
3F80
3F00
3180
3180
30C0
30C0
30C0
3060
0000
0000
0000
0000
0000
0000
0000
ENDCHAR
STARTCHAR S
ENCODING 83
SWIDTH 500 0
DWIDTH 12 0
BBX 12 23 0 -7
BITMAP
0000
0000
0F80
1FC0
3060
3060
3000
3000
1F80
0FC0
0060
0060
3060
3060
1FC0
0F80
0000
0000
0000
0000
0000
0000
0000
ENDCHAR
STARTCHAR T
ENCODING 84
SWIDTH 500 0
DWIDTH 12 0
BBX 12 23 0 -7
BITMAP
0000
0000
7FE0
7FE0
0600
0600
0600
0600
0600
0600
0600
0600
0600
0600
0600
0600
0000
0000
0000
0000
0000
0000
0000
ENDCHAR
STARTCHAR U
ENCODING 85
SWIDTH 500 0
DWIDTH 12 0
BBX 12 23 0 -7
BITMAP
0000
0000
3060
3060
3060
3060
3060
3060
3060
3060
3060
3060
3060
3060
1FC0
0F80
0000
0000
0000
0000
0000
0000
0000
ENDCHAR
STARTCHAR V
ENCODING 86
SWIDTH 500 0
DWIDTH 12 0
BBX 12 23 0 -7
BITMAP
0000
0000
30C0
30C0
30C0
30C0
1980
1980
1980
1980
0F00
0F00
0F00
0600
0600
0600
0000
0000
0000
0000
0000
0000
0000
ENDCHAR
STARTCHAR W
ENCODING 87
SWIDTH 500 0
DWIDTH 12 0
BBX 12 23 0 -7
BITMAP
0000
0000
6060
6060
6060
6660
6660
36C0
36C0
36C0
36C0
36C0
1F80
1980
1980
1980
0000
0000
0000
0000
0000
0000
0000
ENDCHAR
STARTCHAR X
ENCODING 88
SWIDTH 500 0
DWIDTH 12 0
BBX 12 23 0 -7
BITMAP
0000
0000
3060
3060
18C0
18C0
18C0
0D80
0700
0700
0D80
18C0
18C0
18C0
3060
3060
0000
0000
0000
0000
0000
0000
0000
ENDCHAR
STARTCHAR Y
ENCODING 89
SWIDTH 500 0
DWIDTH 12 0
BBX 12 23 0 -7
BITMAP
0000
0000
30C0
30C0
30C0
1980
1980
1980
0F00
0600
0600
0600
0600
0600
0600
0600
0000
0000
0000
0000
0000
0000
0000
ENDCHAR
STARTCHAR Z
ENCODING 90
SWIDTH 500 0
DWIDTH 12 0
BBX 12 23 0 -7
BITMAP
0000
0000
3FE0
3FE0
00C0
0180
0180
0300
0300
0600
0600
0C00
0C00
1800
3FE0
3FE0
0000
0000
0000
0000
0000
0000
0000
ENDCHAR
STARTCHAR bracketleft
ENCODING 91
SWIDTH 500 0
DWIDTH 12 0
BBX 12 23 0 -7
BITMAP
0000
0F00
0F00
0C00
0C00
0C00
0C00
0C00
0C00
0C00
0C00
0C00
0C00
0C00
0C00
0F00
0F00
0000
0000
0000
0000
0000
0000
ENDCHAR
STARTCHAR backslash
ENCODING 92
SWIDTH 500 0
DWIDTH 12 0
BBX 12 23 0 -7
BITMAP
0000
0000
6000
3000
3000
1800
1800
0C00
0C00
0600
0600
0300
0300
0180
0180
00C0
0000
0000
0000
0000
0000
0000
0000
ENDCHAR
STARTCHAR bracketright
ENCODING 93
SWIDTH 500 0
DWIDTH 12 0
BBX 12 23 0 -7
BITMAP
0000
0F00
0F00
0300
0300
0300
0300
0300
0300
0300
0300
0300
0300
0300
0300
0F00
0F00
0000
0000
0000
0000
0000
0000
ENDCHAR
STARTCHAR asciicircum
ENCODING 94
SWIDTH 500 0
DWIDTH 12 0
BBX 12 23 0 -7
BITMAP
0600
0F00
1980
0000
0000
0000
0000
0000
0000
0000
0000
0000
0000
0000
0000
0000
0000
0000
0000
0000
0000
0000
0000
ENDCHAR
STARTCHAR underscore
ENCODING 95
SWIDTH 500 0
DWIDTH 12 0
BBX 12 23 0 -7
BITMAP
0000
0000
0000
0000
0000
0000
0000
0000
0000
0000
0000
0000
0000
0000
0000
0000
0000
0000
0000
0000
0000
7FE0
0000
ENDCHAR
STARTCHAR grave
ENCODING 96
SWIDTH 500 0
DWIDTH 12 0
BBX 12 23 0 -7
BITMAP
1800
0C00
0600
0000
0000
0000
0000
0000
0000
0000
0000
0000
0000
0000
0000
0000
0000
0000
0000
0000
0000
0000
0000
ENDCHAR
STARTCHAR a
ENCODING 97
SWIDTH 500 0
DWIDTH 12 0
BBX 12 23 0 -7
BITMAP
0000
0000
0000
0000
0000
0000
0F00
1F80
10C0
01C0
0FC0
1EC0
30C0
30C0
1FC0
0EC0
0000
0000
0000
0000
0000
0000
0000
ENDCHAR
STARTCHAR b
ENCODING 98
SWIDTH 500 0
DWIDTH 12 0
BBX 12 23 0 -7
BITMAP
0000
0000
3000
3000
3000
3000
3700
3F80
30C0
30C0
30C0
30C0
30C0
30C0
3F80
3700
0000
0000
0000
0000
0000
0000
0000
ENDCHAR
STARTCHAR c
ENCODING 99
SWIDTH 500 0
DWIDTH 12 0
BBX 12 23 0 -7
BITMAP
0000
0000
0000
0000
0000
0000
0F00
1F80
30C0
3000
3000
3000
3000
30C0
1F80
0F00
0000
0000
0000
0000
0000
0000
0000
ENDCHAR
STARTCHAR d
ENCODING 100
SWIDTH 500 0
DWIDTH 12 0
BBX 12 23 0 -7
BITMAP
0000
0000
00C0
00C0
00C0
00C0
0EC0
1FC0
30C0
30C0
30C0
30C0
30C0
30C0
1FC0
0EC0
0000
0000
0000
0000
0000
0000
0000
ENDCHAR
STARTCHAR e
ENCODING 101
SWIDTH 500 0
DWIDTH 12 0
BBX 12 23 0 -7
BITMAP
0000
0000
0000
0000
0000
0000
0F00
1F80
30C0
30C0
3FC0
3FC0
3000
30C0
1F80
0F00
0000
0000
0000
0000
0000
0000
0000
ENDCHAR
STARTCHAR f
ENCODING 102
SWIDTH 500 0
DWIDTH 12 0
BBX 12 23 0 -7
BITMAP
0000
0000
0380
0780
0600
0600
1F80
1F80
0600
0600
0600
0600
0600
0600
0600
0600
0000
0000
0000
0000
0000
0000
0000
ENDCHAR
STARTCHAR g
ENCODING 103
SWIDTH 500 0
DWIDTH 12 0
BBX 12 23 0 -7
BITMAP
0000
0000
0000
0000
0000
0000
0EC0
1FC0
30C0
30C0
30C0
30C0
30C0
30C0
1FC0
0EC0
00C0
00C0
1F80
1F00
0000
0000
0000
ENDCHAR
STARTCHAR h
ENCODING 104
SWIDTH 500 0
DWIDTH 12 0
BBX 12 23 0 -7
BITMAP
0000
0000
3000
3000
3000
3000
3700
3F80
30C0
30C0
30C0
30C0
30C0
30C0
30C0
30C0
0000
0000
0000
0000
0000
0000
0000
ENDCHAR
STARTCHAR i
ENCODING 105
SWIDTH 500 0
DWIDTH 12 0
BBX 12 23 0 -7
BITMAP
0000
0000
0600
0600
0600
0000
0600
0600
0600
0600
0600
0600
0600
0600
0700
0300
0000
0000
0000
0000
0000
0000
0000
ENDCHAR
STARTCHAR j
ENCODING 106
SWIDTH 500 0
DWIDTH 12 0
BBX 12 23 0 -7
BITMAP
0000
0000
0300
0300
0300
0000
0300
0300
0300
0300
0300
0300
0300
0300
0300
0300
0300
0300
0E00
0C00
0000
0000
0000
ENDCHAR
STARTCHAR k
ENCODING 107
SWIDTH 500 0
DWIDTH 12 0
BBX 12 23 0 -7
BITMAP
0000
0000
3000
3000
3000
3000
30C0
3180
3300
3600
3C00
3C00
3600
3300
3180
30C0
0000
0000
0000
0000
0000
0000
0000
ENDCHAR
STARTCHAR l
ENCODING 108
SWIDTH 500 0
DWIDTH 12 0
BBX 12 23 0 -7
BITMAP
0000
0000
0600
0600
0600
0600
0600
0600
0600
0600
0600
0600
0600
0600
0700
0300
0000
0000
0000
0000
0000
0000
0000
ENDCHAR
STARTCHAR m
ENCODING 109
SWIDTH 500 0
DWIDTH 12 0
BBX 12 23 0 -7
BITMAP
0000
0000
0000
0000
0000
0000
6D80
7FC0
6660
6660
6660
6660
6660
6660
6660
6660
0000
0000
0000
0000
0000
0000
0000
ENDCHAR
STARTCHAR n
ENCODING 110
SWIDTH 500 0
DWIDTH 12 0
BBX 12 23 0 -7
BITMAP
0000
0000
0000
0000
0000
0000
3700
3F80
30C0
30C0
30C0
30C0
30C0
30C0
30C0
30C0
0000
0000
0000
0000
0000
0000
0000
ENDCHAR
STARTCHAR o
ENCODING 111
SWIDTH 500 0
DWIDTH 12 0
BBX 12 23 0 -7
BITMAP
0000
0000
0000
0000
0000
0000
0F00
1F80
30C0
30C0
30C0
30C0
30C0
30C0
1F80
0F00
0000
0000
0000
0000
0000
0000
0000
ENDCHAR
STARTCHAR p
ENCODING 112
SWIDTH 500 0
DWIDTH 12 0
BBX 12 23 0 -7
BITMAP
0000
0000
0000
0000
0000
0000
3700
3F80
30C0
30C0
30C0
30C0
30C0
30C0
3F80
3700
3000
3000
3000
3000
0000
0000
0000
ENDCHAR
STARTCHAR q
ENCODING 113
SWIDTH 500 0
DWIDTH 12 0
BBX 12 23 0 -7
BITMAP
0000
0000
0000
0000
0000
0000
0EC0
1FC0
30C0
30C0
30C0
30C0
30C0
30C0
1FC0
0EC0
00C0
00C0
00C0
00C0
0000
0000
0000
ENDCHAR
STARTCHAR r
ENCODING 114
SWIDTH 500 0
DWIDTH 12 0
BBX 12 23 0 -7
BITMAP
0000
0000
0000
0000
0000
0000
1B80
1F80
1800
1800
1800
1800
1800
1800
1800
1800
0000
0000
0000
0000
0000
0000
0000
ENDCHAR
STARTCHAR s
ENCODING 115
SWIDTH 500 0
DWIDTH 12 0
BBX 12 23 0 -7
BITMAP
0000
0000
0000
0000
0000
0000
0F00
1F80
30C0
3000
1F00
0F80
00C0
30C0
1F80
0F00
0000
0000
0000
0000
0000
0000
0000
ENDCHAR
STARTCHAR t
ENCODING 116
SWIDTH 500 0
DWIDTH 12 0
BBX 12 23 0 -7
BITMAP
0000
0000
0000
0600
0600
0600
1F80
1F80
0600
0600
0600
0600
0600
0600
0780
0380
0000
0000
0000
0000
0000
0000
0000
ENDCHAR
STARTCHAR u
ENCODING 117
SWIDTH 500 0
DWIDTH 12 0
BBX 12 23 0 -7
BITMAP
0000
0000
0000
0000
0000
0000
30C0
30C0
30C0
30C0
30C0
30C0
30C0
30C0
1FC0
0EC0
0000
0000
0000
0000
0000
0000
0000
ENDCHAR
STARTCHAR v
ENCODING 118
SWIDTH 500 0
DWIDTH 12 0
BBX 12 23 0 -7
BITMAP
0000
0000
0000
0000
0000
0000
30C0
30C0
30C0
30C0
1980
1980
1980
0F00
0600
0600
0000
0000
0000
0000
0000
0000
0000
ENDCHAR
STARTCHAR w
ENCODING 119
SWIDTH 500 0
DWIDTH 12 0
BBX 12 23 0 -7
BITMAP
0000
0000
0000
0000
0000
0000
6060
6060
6060
6660
36C0
36C0
3FC0
1980
1980
1980
0000
0000
0000
0000
0000
0000
0000
ENDCHAR
STARTCHAR x
ENCODING 120
SWIDTH 500 0
DWIDTH 12 0
BBX 12 23 0 -7
BITMAP
0000
0000
0000
0000
0000
0000
30C0
30C0
1980
0F00
0600
0F00
1980
30C0
30C0
30C0
0000
0000
0000
0000
0000
0000
0000
ENDCHAR
STARTCHAR y
ENCODING 121
SWIDTH 500 0
DWIDTH 12 0
BBX 12 23 0 -7
BITMAP
0000
0000
0000
0000
0000
0000
30C0
30C0
30C0
30C0
1980
1980
1980
1980
0F00
0600
0C00
0C00
3800
3000
0000
0000
0000
ENDCHAR
STARTCHAR z
ENCODING 122
SWIDTH 500 0
DWIDTH 12 0
BBX 12 23 0 -7
BITMAP
0000
0000
0000
0000
0000
0000
3FC0
3FC0
0180
0300
0600
0C00
1800
3000
3FC0
3FC0
0000
0000
0000
0000
0000
0000
0000
ENDCHAR
STARTCHAR braceleft
ENCODING 123
SWIDTH 500 0
DWIDTH 12 0
BBX 12 23 0 -7
BITMAP
0000
0380
0780
0600
0600
0600
0600
0600
1C00
1C00
0600
0600
0600
0600
0600
0780
0380
0000
0000
0000
0000
0000
0000
ENDCHAR
STARTCHAR bar
ENCODING 124
SWIDTH 500 0
DWIDTH 12 0
BBX 12 23 0 -7
BITMAP
0000
0600
0600
0600
0600
0600
0600
0600
0600
0600
0600
0600
0600
0600
0600
0600
0600
0600
0600
0600
0600
0600
0000
ENDCHAR
STARTCHAR braceright
ENCODING 125
SWIDTH 500 0
DWIDTH 12 0
BBX 12 23 0 -7
BITMAP
0000
1C00
1E00
0600
0600
0600
0600
0600
0380
0380
0600
0600
0600
0600
0600
1E00
1C00
0000
0000
0000
0000
0000
0000
ENDCHAR
STARTCHAR asciitilde
ENCODING 126
SWIDTH 500 0
DWIDTH 12 0
BBX 12 23 0 -7
BITMAP
0D80
1F80
1B00
0000
0000
0000
0000
0000
0000
0000
0000
0000
0000
0000
0000
0000
0000
0000
0000
0000
0000
0000
0000
ENDCHAR
STARTCHAR uni007F
ENCODING 127
SWIDTH 500 0
DWIDTH 12 0
BBX 12 23 0 -7
BITMAP
0000
0000
0000
0000
0000
0200
0500
0880
1040
2020
2020
2020
2020
2020
2020
3FE0
0000
0000
0000
0000
0000
0000
0000
ENDCHAR
STARTCHAR uni00A0
ENCODING 160
SWIDTH 500 0
DWIDTH 12 0
BBX 12 23 0 -7
BITMAP
0000
0000
0000
0000
0000
0000
0000
0000
0000
0000
0000
0000
0000
0000
0000
0000
0000
0000
0000
0000
0000
0000
0000
ENDCHAR
STARTCHAR exclamdown
ENCODING 161
SWIDTH 500 0
DWIDTH 12 0
BBX 12 23 0 -7
BITMAP
0000
0000
0600
0600
0600
0000
0600
0600
0600
0600
0600
0600
0600
0600
0600
0600
0000
0000
0000
0000
0000
0000
0000
ENDCHAR
STARTCHAR cent
ENCODING 162
SWIDTH 500 0
DWIDTH 12 0
BBX 12 23 0 -7
BITMAP
0000
0000
0000
0000
0600
0600
0F00
1F80
30C0
3000
3000
3000
3000
30C0
1F80
0F00
0600
0600
0000
0000
0000
0000
0000
ENDCHAR
STARTCHAR sterling
ENCODING 163
SWIDTH 500 0
DWIDTH 12 0
BBX 12 23 0 -7
BITMAP
0000
0000
0F00
1F80
30C0
30C0
3000
1800
1800
3E00
3E00
1800
1800
1840
3FC0
3F80
0000
0000
0000
0000
0000
0000
0000
ENDCHAR
STARTCHAR yen
ENCODING 165
SWIDTH 500 0
DWIDTH 12 0
BBX 12 23 0 -7
BITMAP
0000
0000
30C0
30C0
30C0
1980
1980
1980
0F00
0600
3FC0
0600
3FC0
0600
0600
0600
0000
0000
0000
0000
0000
0000
0000
ENDCHAR
STARTCHAR section
ENCODING 167
SWIDTH 500 0
DWIDTH 12 0
BBX 12 23 0 -7
BITMAP
0000
0000
0F80
1FC0
3060
3060
1800
0F80
1FC0
3060
3060
3060
3060
1FC0
0F80
00C0
3060
3060
1FC0
0F80
0000
0000
0000
ENDCHAR
STARTCHAR ordfeminine
ENCODING 170
SWIDTH 500 0
DWIDTH 12 0
BBX 12 23 0 -7
BITMAP
0000
0000
0F00
1F80
10C0
01C0
0FC0
1EC0
30C0
30C0
1FC0
0EC0
0000
3FC0
3FC0
0000
0000
0000
0000
0000
0000
0000
0000
ENDCHAR
STARTCHAR guillemotleft
ENCODING 171
SWIDTH 500 0
DWIDTH 12 0
BBX 12 23 0 -7
BITMAP
0000
0000
0000
0000
0000
0000
0000
0440
0CC0
1980
3300
3300
1980
0CC0
0440
0000
0000
0000
0000
0000
0000
0000
0000
ENDCHAR
STARTCHAR logicalnot
ENCODING 172
SWIDTH 500 0
DWIDTH 12 0
BBX 12 23 0 -7
BITMAP
0000
0000
0000
0000
0000
0000
0000
7FC0
0040
0040
0040
0040
0040
0040
0000
0000
0000
0000
0000
0000
0000
0000
0000
ENDCHAR
STARTCHAR degree
ENCODING 176
SWIDTH 500 0
DWIDTH 12 0
BBX 12 23 0 -7
BITMAP
0000
0600
0900
0900
0600
0000
0000
0000
0000
0000
0000
0000
0000
0000
0000
0000
0000
0000
0000
0000
0000
0000
0000
ENDCHAR
STARTCHAR plusminus
ENCODING 177
SWIDTH 500 0
DWIDTH 12 0
BBX 12 23 0 -7
BITMAP
0000
0000
0000
0600
0600
0600
3FC0
3FC0
0600
0600
0600
0000
0000
3FC0
3FC0
0000
0000
0000
0000
0000
0000
0000
0000
ENDCHAR
STARTCHAR uni00B2
ENCODING 178
SWIDTH 500 0
DWIDTH 12 0
BBX 12 23 0 -7
BITMAP
0000
1C00
3E00
0600
0C00
1800
3E00
3E00
0000
0000
0000
0000
0000
0000
0000
0000
0000
0000
0000
0000
0000
0000
0000
ENDCHAR
STARTCHAR mu
ENCODING 181
SWIDTH 500 0
DWIDTH 12 0
BBX 12 23 0 -7
BITMAP
0000
0000
0000
0000
0000
0000
30C0
30C0
30C0
30C0
30C0
30C0
30C0
30C0
3FC0
3EC0
3000
3000
3000
3000
0000
0000
0000
ENDCHAR
STARTCHAR paragraph
ENCODING 182
SWIDTH 500 0
DWIDTH 12 0
BBX 12 23 0 -7
BITMAP
0000
0000
0FC0
1FC0
3D80
3D80
3D80
3D80
1D80
0D80
0D80
0D80
0D80
0D80
0D80
0D80
0000
0000
0000
0000
0000
0000
0000
ENDCHAR
STARTCHAR periodcentered
ENCODING 183
SWIDTH 500 0
DWIDTH 12 0
BBX 12 23 0 -7
BITMAP
0000
0000
0000
0000
0000
0000
0000
0000
0600
0600
0000
0000
0000
0000
0000
0000
0000
0000
0000
0000
0000
0000
0000
ENDCHAR
STARTCHAR ordmasculine
ENCODING 186
SWIDTH 500 0
DWIDTH 12 0
BBX 12 23 0 -7
BITMAP
0000
0000
0F00
1F80
30C0
30C0
30C0
30C0
30C0
30C0
1F80
0F00
0000
3FC0
3FC0
0000
0000
0000
0000
0000
0000
0000
0000
ENDCHAR
STARTCHAR guillemotright
ENCODING 187
SWIDTH 500 0
DWIDTH 12 0
BBX 12 23 0 -7
BITMAP
0000
0000
0000
0000
0000
0000
0000
2200
3300
1980
0CC0
0CC0
1980
3300
2200
0000
0000
0000
0000
0000
0000
0000
0000
ENDCHAR
STARTCHAR onequarter
ENCODING 188
SWIDTH 500 0
DWIDTH 12 0
BBX 12 23 0 -7
BITMAP
0000
0000
1840
3880
1880
1900
1900
1A00
1A00
04E0
05E0
0B60
0E60
17E0
17E0
2060
0000
0000
0000
0000
0000
0000
0000
ENDCHAR
STARTCHAR onehalf
ENCODING 189
SWIDTH 500 0
DWIDTH 12 0
BBX 12 23 0 -7
BITMAP
0000
0000
1840
3880
1880
1900
1900
1A00
1A00
05C0
07E0
0860
08C0
1180
13E0
23E0
0000
0000
0000
0000
0000
0000
0000
ENDCHAR
STARTCHAR questiondown
ENCODING 191
SWIDTH 500 0
DWIDTH 12 0
BBX 12 23 0 -7
BITMAP
0000
0000
0600
0600
0600
0000
0600
0600
0C00
1800
3000
30C0
30C0
30C0
1F80
0F00
0000
0000
0000
0000
0000
0000
0000
ENDCHAR
STARTCHAR Adieresis
ENCODING 196
SWIDTH 500 0
DWIDTH 12 0
BBX 12 23 0 -7
BITMAP
18C0
18C0
0000
0200
0700
0700
0700
0D80
0D80
0D80
18C0
18C0
1FC0
3FE0
3060
3060
0000
0000
0000
0000
0000
0000
0000
ENDCHAR
STARTCHAR Aring
ENCODING 197
SWIDTH 500 0
DWIDTH 12 0
BBX 12 23 0 -7
BITMAP
0200
0500
0500
0200
0700
0700
0700
0D80
0D80
0D80
18C0
18C0
1FC0
3FE0
3060
3060
0000
0000
0000
0000
0000
0000
0000
ENDCHAR
STARTCHAR AE
ENCODING 198
SWIDTH 500 0
DWIDTH 12 0
BBX 12 23 0 -7
BITMAP
0000
0000
07E0
0FE0
0F00
0F00
1B00
1B00
1BC0
33C0
3300
3F00
7F00
6300
63E0
63E0
0000
0000
0000
0000
0000
0000
0000
ENDCHAR
STARTCHAR Ccedilla
ENCODING 199
SWIDTH 500 0
DWIDTH 12 0
BBX 12 23 0 -7
BITMAP
0000
0000
0F80
1FC0
3060
3060
3000
3000
3000
3000
3000
3000
3060
3060
1FC0
0F80
0200
0900
0600
0000
0000
0000
0000
ENDCHAR
STARTCHAR Eacute
ENCODING 201
SWIDTH 500 0
DWIDTH 12 0
BBX 12 23 0 -7
BITMAP
0180
0300
0000
3FE0
3FE0
3000
3000
3000
3FC0
3FC0
3000
3000
3000
3000
3FE0
3FE0
0000
0000
0000
0000
0000
0000
0000
ENDCHAR
STARTCHAR Ntilde
ENCODING 209
SWIDTH 500 0
DWIDTH 12 0
BBX 12 23 0 -7
BITMAP
0E80
0B80
0000
3060
3060
3060
3860
3C60
3660
3660
3360
3360
31E0
30E0
3060
3060
0000
0000
0000
0000
0000
0000
0000
ENDCHAR
STARTCHAR Odieresis
ENCODING 214
SWIDTH 500 0
DWIDTH 12 0
BBX 12 23 0 -7
BITMAP
18C0
18C0
0000
0F80
1FC0
3060
3060
3060
3060
3060
3060
3060
3060
3060
1FC0
0F80
0000
0000
0000
0000
0000
0000
0000
ENDCHAR
STARTCHAR Udieresis
ENCODING 220
SWIDTH 500 0
DWIDTH 12 0
BBX 12 23 0 -7
BITMAP
18C0
18C0
0000
3060
3060
3060
3060
3060
3060
3060
3060
3060
3060
3060
1FC0
0F80
0000
0000
0000
0000
0000
0000
0000
ENDCHAR
STARTCHAR germandbls
ENCODING 223
SWIDTH 500 0
DWIDTH 12 0
BBX 12 23 0 -7
BITMAP
0000
0000
0F00
1F80
30C0
30C0
30C0
30C0
3380
3380
30C0
30C0
30C0
30C0
3780
3700
0000
0000
0000
0000
0000
0000
0000
ENDCHAR
STARTCHAR agrave
ENCODING 224
SWIDTH 500 0
DWIDTH 12 0
BBX 12 23 0 -7
BITMAP
0000
0000
1800
0C00
0600
0000
0F00
1F80
10C0
01C0
0FC0
1EC0
30C0
30C0
1FC0
0EC0
0000
0000
0000
0000
0000
0000
0000
ENDCHAR
STARTCHAR aacute
ENCODING 225
SWIDTH 500 0
DWIDTH 12 0
BBX 12 23 0 -7
BITMAP
0000
0000
0180
0300
0600
0000
0F00
1F80
10C0
01C0
0FC0
1EC0
30C0
30C0
1FC0
0EC0
0000
0000
0000
0000
0000
0000
0000
ENDCHAR
STARTCHAR acircumflex
ENCODING 226
SWIDTH 500 0
DWIDTH 12 0
BBX 12 23 0 -7
BITMAP
0000
0000
0600
0F00
1980
0000
0F00
1F80
10C0
01C0
0FC0
1EC0
30C0
30C0
1FC0
0EC0
0000
0000
0000
0000
0000
0000
0000
ENDCHAR
STARTCHAR adieresis
ENCODING 228
SWIDTH 500 0
DWIDTH 12 0
BBX 12 23 0 -7
BITMAP
0000
0000
1980
1980
0000
0000
0F00
1F80
10C0
01C0
0FC0
1EC0
30C0
30C0
1FC0
0EC0
0000
0000
0000
0000
0000
0000
0000
ENDCHAR
STARTCHAR aring
ENCODING 229
SWIDTH 500 0
DWIDTH 12 0
BBX 12 23 0 -7
BITMAP
0000
0000
0600
0900
0900
0600
0F00
1F80
10C0
01C0
0FC0
1EC0
30C0
30C0
1FC0
0EC0
0000
0000
0000
0000
0000
0000
0000
ENDCHAR
STARTCHAR ae
ENCODING 230
SWIDTH 500 0
DWIDTH 12 0
BBX 12 23 0 -7
BITMAP
0000
0000
0000
0000
0000
0000
1980
3FC0
2660
0660
1FE0
3FE0
6600
6660
3FC0
1980
0000
0000
0000
0000
0000
0000
0000
ENDCHAR
STARTCHAR ccedilla
ENCODING 231
SWIDTH 500 0
DWIDTH 12 0
BBX 12 23 0 -7
BITMAP
0000
0000
0000
0000
0000
0000
0F00
1F80
30C0
3000
3000
3000
3000
30C0
1F80
0F00
0200
0900
0600
0000
0000
0000
0000
ENDCHAR
STARTCHAR egrave
ENCODING 232
SWIDTH 500 0
DWIDTH 12 0
BBX 12 23 0 -7
BITMAP
0000
0000
1800
0C00
0600
0000
0F00
1F80
30C0
30C0
3FC0
3FC0
3000
30C0
1F80
0F00
0000
0000
0000
0000
0000
0000
0000
ENDCHAR
STARTCHAR eacute
ENCODING 233
SWIDTH 500 0
DWIDTH 12 0
BBX 12 23 0 -7
BITMAP
0000
0000
0180
0300
0600
0000
0F00
1F80
30C0
30C0
3FC0
3FC0
3000
30C0
1F80
0F00
0000
0000
0000
0000
0000
0000
0000
ENDCHAR
STARTCHAR ecircumflex
ENCODING 234
SWIDTH 500 0
DWIDTH 12 0
BBX 12 23 0 -7
BITMAP
0000
0000
0600
0F00
1980
0000
0F00
1F80
30C0
30C0
3FC0
3FC0
3000
30C0
1F80
0F00
0000
0000
0000
0000
0000
0000
0000
ENDCHAR
STARTCHAR edieresis
ENCODING 235
SWIDTH 500 0
DWIDTH 12 0
BBX 12 23 0 -7
BITMAP
0000
0000
1980
1980
0000
0000
0F00
1F80
30C0
30C0
3FC0
3FC0
3000
30C0
1F80
0F00
0000
0000
0000
0000
0000
0000
0000
ENDCHAR
STARTCHAR igrave
ENCODING 236
SWIDTH 500 0
DWIDTH 12 0
BBX 12 23 0 -7
BITMAP
0000
0000
1800
0C00
0600
0000
0600
0600
0600
0600
0600
0600
0600
0600
0700
0300
0000
0000
0000
0000
0000
0000
0000
ENDCHAR
STARTCHAR iacute
ENCODING 237
SWIDTH 500 0
DWIDTH 12 0
BBX 12 23 0 -7
BITMAP
0000
0000
0180
0300
0600
0000
0600
0600
0600
0600
0600
0600
0600
0600
0700
0300
0000
0000
0000
0000
0000
0000
0000
ENDCHAR
STARTCHAR icircumflex
ENCODING 238
SWIDTH 500 0
DWIDTH 12 0
BBX 12 23 0 -7
BITMAP
0000
0000
0600
0F00
1980
0000
0600
0600
0600
0600
0600
0600
0600
0600
0700
0300
0000
0000
0000
0000
0000
0000
0000
ENDCHAR
STARTCHAR idieresis
ENCODING 239
SWIDTH 500 0
DWIDTH 12 0
BBX 12 23 0 -7
BITMAP
0000
0000
1980
1980
0000
0000
0600
0600
0600
0600
0600
0600
0600
0600
0700
0300
0000
0000
0000
0000
0000
0000
0000
ENDCHAR
STARTCHAR ntilde
ENCODING 241
SWIDTH 500 0
DWIDTH 12 0
BBX 12 23 0 -7
BITMAP
0000
0000
0D80
1F80
1B00
0000
3700
3F80
30C0
30C0
30C0
30C0
30C0
30C0
30C0
30C0
0000
0000
0000
0000
0000
0000
0000
ENDCHAR
STARTCHAR ograve
ENCODING 242
SWIDTH 500 0
DWIDTH 12 0
BBX 12 23 0 -7
BITMAP
0000
0000
1800
0C00
0600
0000
0F00
1F80
30C0
30C0
30C0
30C0
30C0
30C0
1F80
0F00
0000
0000
0000
0000
0000
0000
0000
ENDCHAR
STARTCHAR oacute
ENCODING 243
SWIDTH 500 0
DWIDTH 12 0
BBX 12 23 0 -7
BITMAP
0000
0000
0180
0300
0600
0000
0F00
1F80
30C0
30C0
30C0
30C0
30C0
30C0
1F80
0F00
0000
0000
0000
0000
0000
0000
0000
ENDCHAR
STARTCHAR ocircumflex
ENCODING 244
SWIDTH 500 0
DWIDTH 12 0
BBX 12 23 0 -7
BITMAP
0000
0000
0600
0F00
1980
0000
0F00
1F80
30C0
30C0
30C0
30C0
30C0
30C0
1F80
0F00
0000
0000
0000
0000
0000
0000
0000
ENDCHAR
STARTCHAR odieresis
ENCODING 246
SWIDTH 500 0
DWIDTH 12 0
BBX 12 23 0 -7
BITMAP
0000
0000
1980
1980
0000
0000
0F00
1F80
30C0
30C0
30C0
30C0
30C0
30C0
1F80
0F00
0000
0000
0000
0000
0000
0000
0000
ENDCHAR
STARTCHAR divide
ENCODING 247
SWIDTH 500 0
DWIDTH 12 0
BBX 12 23 0 -7
BITMAP
0000
0000
0000
0000
0000
0600
0600
0000
3FC0
3FC0
0000
0600
0600
0000
0000
0000
0000
0000
0000
0000
0000
0000
0000
ENDCHAR
STARTCHAR ugrave
ENCODING 249
SWIDTH 500 0
DWIDTH 12 0
BBX 12 23 0 -7
BITMAP
0000
0000
1800
0C00
0600
0000
30C0
30C0
30C0
30C0
30C0
30C0
30C0
30C0
1FC0
0EC0
0000
0000
0000
0000
0000
0000
0000
ENDCHAR
STARTCHAR uacute
ENCODING 250
SWIDTH 500 0
DWIDTH 12 0
BBX 12 23 0 -7
BITMAP
0000
0000
0180
0300
0600
0000
30C0
30C0
30C0
30C0
30C0
30C0
30C0
30C0
1FC0
0EC0
0000
0000
0000
0000
0000
0000
0000
ENDCHAR
STARTCHAR ucircumflex
ENCODING 251
SWIDTH 500 0
DWIDTH 12 0
BBX 12 23 0 -7
BITMAP
0000
0000
0600
0F00
1980
0000
30C0
30C0
30C0
30C0
30C0
30C0
30C0
30C0
1FC0
0EC0
0000
0000
0000
0000
0000
0000
0000
ENDCHAR
STARTCHAR udieresis
ENCODING 252
SWIDTH 500 0
DWIDTH 12 0
BBX 12 23 0 -7
BITMAP
0000
0000
1980
1980
0000
0000
30C0
30C0
30C0
30C0
30C0
30C0
30C0
30C0
1FC0
0EC0
0000
0000
0000
0000
0000
0000
0000
ENDCHAR
STARTCHAR ydieresis
ENCODING 255
SWIDTH 500 0
DWIDTH 12 0
BBX 12 23 0 -7
BITMAP
0000
0000
1980
1980
0000
0000
30C0
30C0
30C0
30C0
1980
1980
1980
1980
0F00
0600
0C00
0C00
3800
3000
0000
0000
0000
ENDCHAR
STARTCHAR florin
ENCODING 402
SWIDTH 500 0
DWIDTH 12 0
BBX 12 23 0 -7
BITMAP
0000
0000
00C0
01E0
0360
0300
0300
0F80
0F80
0600
0600
0600
0600
0600
0C00
0C00
0C00
6C00
7800
3000
0000
0000
0000
ENDCHAR
STARTCHAR Gamma
ENCODING 915
SWIDTH 500 0
DWIDTH 12 0
BBX 12 23 0 -7
BITMAP
0000
0000
3FC0
3FC0
3000
3000
3000
3000
3000
3000
3000
3000
3000
3000
3000
3000
0000
0000
0000
0000
0000
0000
0000
ENDCHAR
STARTCHAR Theta
ENCODING 920
SWIDTH 500 0
DWIDTH 12 0
BBX 12 23 0 -7
BITMAP
0000
0000
0F80
1FC0
3060
3060
3060
3060
3760
3760
3060
3060
3060
3060
1FC0
0F80
0000
0000
0000
0000
0000
0000
0000
ENDCHAR
STARTCHAR Sigma
ENCODING 931
SWIDTH 500 0
DWIDTH 12 0
BBX 12 23 0 -7
BITMAP
0000
0000
3FE0
3FE0
1800
0C00
0600
0300
0180
0180
0300
0600
0C00
1800
3FE0
3FE0
0000
0000
0000
0000
0000
0000
0000
ENDCHAR
STARTCHAR Phi
ENCODING 934
SWIDTH 500 0
DWIDTH 12 0
BBX 12 23 0 -7
BITMAP
0000
0000
0600
1F80
3FC0
6660
6660
6660
6660
6660
6660
6660
6660
3FC0
1F80
0600
0000
0000
0000
0000
0000
0000
0000
ENDCHAR
STARTCHAR uni03A9
ENCODING 937
SWIDTH 500 0
DWIDTH 12 0
BBX 12 23 0 -7
BITMAP
0000
0000
0F80
1FC0
3060
3060
3060
3060
3060
3060
3060
3060
18C0
0D80
3DE0
3DE0
0000
0000
0000
0000
0000
0000
0000
ENDCHAR
STARTCHAR alpha
ENCODING 945
SWIDTH 500 0
DWIDTH 12 0
BBX 12 23 0 -7
BITMAP
0000
0000
0000
0000
0000
0000
0EC0
1FC0
30C0
30C0
30C0
30C0
30C0
30C0
1FC0
0EC0
0000
0000
0000
0000
0000
0000
0000
ENDCHAR
STARTCHAR delta
ENCODING 948
SWIDTH 500 0
DWIDTH 12 0
BBX 12 23 0 -7
BITMAP
0000
0000
3FC0
1FC0
0C00
0600
0F00
1F80
30C0
30C0
30C0
30C0
30C0
30C0
1F80
0F00
0000
0000
0000
0000
0000
0000
0000
ENDCHAR
STARTCHAR epsilon
ENCODING 949
SWIDTH 500 0
DWIDTH 12 0
BBX 12 23 0 -7
BITMAP
0000
0000
0000
0000
0000
0000
0F00
1F80
30C0
3000
1E00
1E00
3000
30C0
1F80
0F00
0000
0000
0000
0000
0000
0000
0000
ENDCHAR
STARTCHAR pi
ENCODING 960
SWIDTH 500 0
DWIDTH 12 0
BBX 12 23 0 -7
BITMAP
0000
0000
0000
0000
0000
0000
3FC0
3FC0
1980
1980
1980
1980
1980
1980
1980
1980
0000
0000
0000
0000
0000
0000
0000
ENDCHAR
STARTCHAR sigma
ENCODING 963
SWIDTH 500 0
DWIDTH 12 0
BBX 12 23 0 -7
BITMAP
0000
0000
0000
0000
0000
0000
0FE0
1FE0
30C0
30C0
30C0
30C0
30C0
30C0
1F80
0F00
0000
0000
0000
0000
0000
0000
0000
ENDCHAR
STARTCHAR tau
ENCODING 964
SWIDTH 500 0
DWIDTH 12 0
BBX 12 23 0 -7
BITMAP
0000
0000
0000
0000
0000
0000
3FC0
3FC0
0600
0600
0600
0600
0600
0600
0600
0600
0000
0000
0000
0000
0000
0000
0000
ENDCHAR
STARTCHAR phi
ENCODING 966
SWIDTH 500 0
DWIDTH 12 0
BBX 12 23 0 -7
BITMAP
0000
0000
0000
0000
0600
0600
0F00
1F80
36C0
36C0
36C0
36C0
36C0
36C0
1F80
0F00
0600
0600
0600
0600
0000
0000
0000
ENDCHAR
STARTCHAR bullet
ENCODING 8226
SWIDTH 500 0
DWIDTH 12 0
BBX 12 23 0 -7
BITMAP
0000
0000
0000
0000
0000
0000
0000
0000
0600
0F00
1F80
1F80
0F00
0600
0000
0000
0000
0000
0000
0000
0000
0000
0000
ENDCHAR
STARTCHAR exclamdbl
ENCODING 8252
SWIDTH 500 0
DWIDTH 12 0
BBX 12 23 0 -7
BITMAP
0000
0000
1980
1980
1980
1980
1980
1980
1980
1980
1980
1980
0000
1980
1980
1980
0000
0000
0000
0000
0000
0000
0000
ENDCHAR
STARTCHAR uni207F
ENCODING 8319
SWIDTH 500 0
DWIDTH 12 0
BBX 12 23 0 -7
BITMAP
0000
1B00
1F80
18C0
18C0
18C0
18C0
0000
0000
0000
0000
0000
0000
0000
0000
0000
0000
0000
0000
0000
0000
0000
0000
ENDCHAR
STARTCHAR peseta
ENCODING 8359
SWIDTH 500 0
DWIDTH 12 0
BBX 12 23 0 -7
BITMAP
0000
0000
3F00
3F80
30C0
30C0
30C0
30C0
3F80
3F00
3000
3180
3180
37E0
37E0
3180
0180
0180
01E0
00E0
0000
0000
0000
ENDCHAR
STARTCHAR arrowleft
ENCODING 8592
SWIDTH 500 0
DWIDTH 12 0
BBX 12 23 0 -7
BITMAP
0000
0000
0000
0000
0000
0000
0000
1000
3000
7FE0
3000
1000
0000
0000
0000
0000
0000
0000
0000
0000
0000
0000
0000
ENDCHAR
STARTCHAR arrowup
ENCODING 8593
SWIDTH 500 0
DWIDTH 12 0
BBX 12 23 0 -7
BITMAP
0000
0000
0200
0700
0F80
0200
0200
0200
0200
0200
0200
0200
0200
0200
0200
0200
0000
0000
0000
0000
0000
0000
0000
ENDCHAR
STARTCHAR arrowright
ENCODING 8594
SWIDTH 500 0
DWIDTH 12 0
BBX 12 23 0 -7
BITMAP
0000
0000
0000
0000
0000
0000
0000
0080
00C0
7FE0
00C0
0080
0000
0000
0000
0000
0000
0000
0000
0000
0000
0000
0000
ENDCHAR
STARTCHAR arrowdown
ENCODING 8595
SWIDTH 500 0
DWIDTH 12 0
BBX 12 23 0 -7
BITMAP
0000
0000
0200
0200
0200
0200
0200
0200
0200
0200
0200
0200
0200
0F80
0700
0200
0000
0000
0000
0000
0000
0000
0000
ENDCHAR
STARTCHAR arrowboth
ENCODING 8596
SWIDTH 500 0
DWIDTH 12 0
BBX 12 23 0 -7
BITMAP
0000
0000
0000
0000
0000
0000
0000
1080
30C0
7FE0
30C0
1080
0000
0000
0000
0000
0000
0000
0000
0000
0000
0000
0000
ENDCHAR
STARTCHAR arrowupdn
ENCODING 8597
SWIDTH 500 0
DWIDTH 12 0
BBX 12 23 0 -7
BITMAP
0000
0000
0200
0700
0F80
0200
0200
0200
0200
0200
0200
0200
0200
0F80
0700
0200
0000
0000
0000
0000
0000
0000
0000
ENDCHAR
STARTCHAR arrowupdnbse
ENCODING 8616
SWIDTH 500 0
DWIDTH 12 0
BBX 12 23 0 -7
BITMAP
0000
0000
0200
0700
0F80
0200
0200
0200
0200
0200
0200
0200
0200
0F80
0700
0200
0F80
0000
0000
0000
0000
0000
0000
ENDCHAR
STARTCHAR uni2219
ENCODING 8729
SWIDTH 500 0
DWIDTH 12 0
BBX 12 23 0 -7
BITMAP
0000
0000
0000
0000
0000
0000
0000
0600
0F00
0F00
0600
0000
0000
0000
0000
0000
0000
0000
0000
0000
0000
0000
0000
ENDCHAR
STARTCHAR radical
ENCODING 8730
SWIDTH 500 0
DWIDTH 12 0
BBX 12 23 0 -7
BITMAP
0000
0000
0060
0060
0060
00C0
00C0
00C0
0180
0180
3180
7B00
1B00
0F00
0E00
0600
0000
0000
0000
0000
0000
0000
0000
ENDCHAR
STARTCHAR infinity
ENCODING 8734
SWIDTH 500 0
DWIDTH 12 0
BBX 12 23 0 -7
BITMAP
0000
0000
0000
0000
0000
0000
0000
0000
39C0
7FE0
6660
6660
6660
7FE0
39C0
0000
0000
0000
0000
0000
0000
0000
0000
ENDCHAR
STARTCHAR orthogonal
ENCODING 8735
SWIDTH 500 0
DWIDTH 12 0
BBX 12 23 0 -7
BITMAP
0000
0000
0000
0000
0000
0000
0000
3000
3000
3000
3000
3000
3000
3000
3FE0
3FE0
0000
0000
0000
0000
0000
0000
0000
ENDCHAR
STARTCHAR intersection
ENCODING 8745
SWIDTH 500 0
DWIDTH 12 0
BBX 12 23 0 -7
BITMAP
0000
0000
0700
0F80
18C0
3060
3060
3060
3060
3060
3060
3060
3060
3060
3060
3060
0000
0000
0000
0000
0000
0000
0000
ENDCHAR
STARTCHAR approxequal
ENCODING 8776
SWIDTH 500 0
DWIDTH 12 0
BBX 12 23 0 -7
BITMAP
0000
0000
0000
0000
0000
1CC0
3FC0
3380
0000
0000
1CC0
3FC0
3380
0000
0000
0000
0000
0000
0000
0000
0000
0000
0000
ENDCHAR
STARTCHAR equivalence
ENCODING 8801
SWIDTH 500 0
DWIDTH 12 0
BBX 12 23 0 -7
BITMAP
0000
0000
0000
0000
3FC0
3FC0
0000
0000
3FC0
3FC0
0000
0000
3FC0
3FC0
0000
0000
0000
0000
0000
0000
0000
0000
0000
ENDCHAR
STARTCHAR lessequal
ENCODING 8804
SWIDTH 500 0
DWIDTH 12 0
BBX 12 23 0 -7
BITMAP
0000
0000
0000
0040
01C0
0780
1E00
3800
1E00
0780
01C0
0040
0000
3FC0
3FC0
0000
0000
0000
0000
0000
0000
0000
0000
ENDCHAR
STARTCHAR greaterequal
ENCODING 8805
SWIDTH 500 0
DWIDTH 12 0
BBX 12 23 0 -7
BITMAP
0000
0000
0000
2000
3800
1E00
0780
01C0
0780
1E00
3800
2000
0000
3FC0
3FC0
0000
0000
0000
0000
0000
0000
0000
0000
ENDCHAR
STARTCHAR house
ENCODING 8962
SWIDTH 500 0
DWIDTH 12 0
BBX 12 23 0 -7
BITMAP
0000
0000
0000
0000
0000
0200
0500
0880
1040
2020
2020
2020
2020
2020
2020
3FE0
0000
0000
0000
0000
0000
0000
0000
ENDCHAR
STARTCHAR revlogicalnot
ENCODING 8976
SWIDTH 500 0
DWIDTH 12 0
BBX 12 23 0 -7
BITMAP
0000
0000
0000
0000
0000
0000
0000
3FE0
2000
2000
2000
2000
2000
2000
0000
0000
0000
0000
0000
0000
0000
0000
0000
ENDCHAR
STARTCHAR integraltp
ENCODING 8992
SWIDTH 500 0
DWIDTH 12 0
BBX 12 23 0 -7
BITMAP
0000
00C0
01E0
0360
0300
0300
0300
0300
0300
0300
0300
0300
0300
0300
0600
0600
0600
0600
0600
0600
0600
0600
0600
ENDCHAR
STARTCHAR integralbt
ENCODING 8993
SWIDTH 500 0
DWIDTH 12 0
BBX 12 23 0 -7
BITMAP
0600
0600
0600
0600
0600
0600
0600
0C00
0C00
0C00
0C00
0C00
0C00
0C00
0C00
0C00
0C00
6C00
7800
3000
0000
0000
0000
ENDCHAR
STARTCHAR SF100000
ENCODING 9472
SWIDTH 500 0
DWIDTH 12 0
BBX 12 23 0 -7
BITMAP
0000
0000
0000
0000
0000
0000
0000
0000
0000
0000
0000
FFF0
0000
0000
0000
0000
0000
0000
0000
0000
0000
0000
0000
ENDCHAR
STARTCHAR SF110000
ENCODING 9474
SWIDTH 500 0
DWIDTH 12 0
BBX 12 23 0 -7
BITMAP
0400
0400
0400
0400
0400
0400
0400
0400
0400
0400
0400
0400
0400
0400
0400
0400
0400
0400
0400
0400
0400
0400
0400
ENDCHAR
STARTCHAR SF010000
ENCODING 9484
SWIDTH 500 0
DWIDTH 12 0
BBX 12 23 0 -7
BITMAP
0000
0000
0000
0000
0000
0000
0000
0000
0000
0000
0000
07F0
0400
0400
0400
0400
0400
0400
0400
0400
0400
0400
0400
ENDCHAR
STARTCHAR SF030000
ENCODING 9488
SWIDTH 500 0
DWIDTH 12 0
BBX 12 23 0 -7
BITMAP
0000
0000
0000
0000
0000
0000
0000
0000
0000
0000
0000
FC00
0400
0400
0400
0400
0400
0400
0400
0400
0400
0400
0400
ENDCHAR
STARTCHAR SF020000
ENCODING 9492
SWIDTH 500 0
DWIDTH 12 0
BBX 12 23 0 -7
BITMAP
0400
0400
0400
0400
0400
0400
0400
0400
0400
0400
0400
07F0
0000
0000
0000
0000
0000
0000
0000
0000
0000
0000
0000
ENDCHAR
STARTCHAR SF040000
ENCODING 9496
SWIDTH 500 0
DWIDTH 12 0
BBX 12 23 0 -7
BITMAP
0400
0400
0400
0400
0400
0400
0400
0400
0400
0400
0400
FC00
0000
0000
0000
0000
0000
0000
0000
0000
0000
0000
0000
ENDCHAR
STARTCHAR SF080000
ENCODING 9500
SWIDTH 500 0
DWIDTH 12 0
BBX 12 23 0 -7
BITMAP
0400
0400
0400
0400
0400
0400
0400
0400
0400
0400
0400
07F0
0400
0400
0400
0400
0400
0400
0400
0400
0400
0400
0400
ENDCHAR
STARTCHAR SF090000
ENCODING 9508
SWIDTH 500 0
DWIDTH 12 0
BBX 12 23 0 -7
BITMAP
0400
0400
0400
0400
0400
0400
0400
0400
0400
0400
0400
FC00
0400
0400
0400
0400
0400
0400
0400
0400
0400
0400
0400
ENDCHAR
STARTCHAR SF060000
ENCODING 9516
SWIDTH 500 0
DWIDTH 12 0
BBX 12 23 0 -7
BITMAP
0000
0000
0000
0000
0000
0000
0000
0000
0000
0000
0000
FFF0
0400
0400
0400
0400
0400
0400
0400
0400
0400
0400
0400
ENDCHAR
STARTCHAR SF070000
ENCODING 9524
SWIDTH 500 0
DWIDTH 12 0
BBX 12 23 0 -7
BITMAP
0400
0400
0400
0400
0400
0400
0400
0400
0400
0400
0400
FFF0
0000
0000
0000
0000
0000
0000
0000
0000
0000
0000
0000
ENDCHAR
STARTCHAR SF050000
ENCODING 9532
SWIDTH 500 0
DWIDTH 12 0
BBX 12 23 0 -7
BITMAP
0400
0400
0400
0400
0400
0400
0400
0400
0400
0400
0400
FFF0
0400
0400
0400
0400
0400
0400
0400
0400
0400
0400
0400
ENDCHAR
STARTCHAR SF430000
ENCODING 9552
SWIDTH 500 0
DWIDTH 12 0
BBX 12 23 0 -7
BITMAP
0000
0000
0000
0000
0000
0000
0000
0000
0000
FFF0
0000
0000
0000
FFF0
0000
0000
0000
0000
0000
0000
0000
0000
0000
ENDCHAR
STARTCHAR SF240000
ENCODING 9553
SWIDTH 500 0
DWIDTH 12 0
BBX 12 23 0 -7
BITMAP
1100
1100
1100
1100
1100
1100
1100
1100
1100
1100
1100
1100
1100
1100
1100
1100
1100
1100
1100
1100
1100
1100
1100
ENDCHAR
STARTCHAR SF510000
ENCODING 9554
SWIDTH 500 0
DWIDTH 12 0
BBX 12 23 0 -7
BITMAP
0000
0000
0000
0000
0000
0000
0000
0000
0000
07F0
0400
0400
0400
07F0
0400
0400
0400
0400
0400
0400
0400
0400
0400
ENDCHAR
STARTCHAR SF520000
ENCODING 9555
SWIDTH 500 0
DWIDTH 12 0
BBX 12 23 0 -7
BITMAP
0000
0000
0000
0000
0000
0000
0000
0000
0000
0000
0000
1FF0
1100
1100
1100
1100
1100
1100
1100
1100
1100
1100
1100
ENDCHAR
STARTCHAR SF390000
ENCODING 9556
SWIDTH 500 0
DWIDTH 12 0
BBX 12 23 0 -7
BITMAP
0000
0000
0000
0000
0000
0000
0000
0000
0000
1FF0
1000
1000
1000
11F0
1100
1100
1100
1100
1100
1100
1100
1100
1100
ENDCHAR
STARTCHAR SF220000
ENCODING 9557
SWIDTH 500 0
DWIDTH 12 0
BBX 12 23 0 -7
BITMAP
0000
0000
0000
0000
0000
0000
0000
0000
0000
FC00
0400
0400
0400
FC00
0400
0400
0400
0400
0400
0400
0400
0400
0400
ENDCHAR
STARTCHAR SF210000
ENCODING 9558
SWIDTH 500 0
DWIDTH 12 0
BBX 12 23 0 -7
BITMAP
0000
0000
0000
0000
0000
0000
0000
0000
0000
0000
0000
FF00
1100
1100
1100
1100
1100
1100
1100
1100
1100
1100
1100
ENDCHAR
STARTCHAR SF250000
ENCODING 9559
SWIDTH 500 0
DWIDTH 12 0
BBX 12 23 0 -7
BITMAP
0000
0000
0000
0000
0000
0000
0000
0000
0000
FF00
0100
0100
0100
F100
1100
1100
1100
1100
1100
1100
1100
1100
1100
ENDCHAR
STARTCHAR SF500000
ENCODING 9560
SWIDTH 500 0
DWIDTH 12 0
BBX 12 23 0 -7
BITMAP
0400
0400
0400
0400
0400
0400
0400
0400
0400
07F0
0400
0400
0400
07F0
0000
0000
0000
0000
0000
0000
0000
0000
0000
ENDCHAR
STARTCHAR SF490000
ENCODING 9561
SWIDTH 500 0
DWIDTH 12 0
BBX 12 23 0 -7
BITMAP
1100
1100
1100
1100
1100
1100
1100
1100
1100
1100
1100
1FF0
0000
0000
0000
0000
0000
0000
0000
0000
0000
0000
0000
ENDCHAR
STARTCHAR SF380000
ENCODING 9562
SWIDTH 500 0
DWIDTH 12 0
BBX 12 23 0 -7
BITMAP
1100
1100
1100
1100
1100
1100
1100
1100
1100
11F0
1000
1000
1000
1FF0
0000
0000
0000
0000
0000
0000
0000
0000
0000
ENDCHAR
STARTCHAR SF280000
ENCODING 9563
SWIDTH 500 0
DWIDTH 12 0
BBX 12 23 0 -7
BITMAP
0400
0400
0400
0400
0400
0400
0400
0400
0400
FC00
0400
0400
0400
FC00
0000
0000
0000
0000
0000
0000
0000
0000
0000
ENDCHAR
STARTCHAR SF270000
ENCODING 9564
SWIDTH 500 0
DWIDTH 12 0
BBX 12 23 0 -7
BITMAP
1100
1100
1100
1100
1100
1100
1100
1100
1100
1100
1100
FF00
0000
0000
0000
0000
0000
0000
0000
0000
0000
0000
0000
ENDCHAR
STARTCHAR SF260000
ENCODING 9565
SWIDTH 500 0
DWIDTH 12 0
BBX 12 23 0 -7
BITMAP
1100
1100
1100
1100
1100
1100
1100
1100
1100
F100
0100
0100
0100
FF00
0000
0000
0000
0000
0000
0000
0000
0000
0000
ENDCHAR
STARTCHAR SF360000
ENCODING 9566
SWIDTH 500 0
DWIDTH 12 0
BBX 12 23 0 -7
BITMAP
0400
0400
0400
0400
0400
0400
0400
0400
0400
07F0
0400
0400
0400
07F0
0400
0400
0400
0400
0400
0400
0400
0400
0400
ENDCHAR
STARTCHAR SF370000
ENCODING 9567
SWIDTH 500 0
DWIDTH 12 0
BBX 12 23 0 -7
BITMAP
1100
1100
1100
1100
1100
1100
1100
1100
1100
1100
1100
11F0
1100
1100
1100
1100
1100
1100
1100
1100
1100
1100
1100
ENDCHAR
STARTCHAR SF420000
ENCODING 9568
SWIDTH 500 0
DWIDTH 12 0
BBX 12 23 0 -7
BITMAP
1100
1100
1100
1100
1100
1100
1100
1100
1100
11F0
1000
1000
1000
11F0
1100
1100
1100
1100
1100
1100
1100
1100
1100
ENDCHAR
STARTCHAR SF190000
ENCODING 9569
SWIDTH 500 0
DWIDTH 12 0
BBX 12 23 0 -7
BITMAP
0400
0400
0400
0400
0400
0400
0400
0400
0400
FC00
0400
0400
0400
FC00
0400
0400
0400
0400
0400
0400
0400
0400
0400
ENDCHAR
STARTCHAR SF200000
ENCODING 9570
SWIDTH 500 0
DWIDTH 12 0
BBX 12 23 0 -7
BITMAP
1100
1100
1100
1100
1100
1100
1100
1100
1100
1100
1100
F100
1100
1100
1100
1100
1100
1100
1100
1100
1100
1100
1100
ENDCHAR
STARTCHAR SF230000
ENCODING 9571
SWIDTH 500 0
DWIDTH 12 0
BBX 12 23 0 -7
BITMAP
1100
1100
1100
1100
1100
1100
1100
1100
1100
F100
0100
0100
0100
F100
1100
1100
1100
1100
1100
1100
1100
1100
1100
ENDCHAR
STARTCHAR SF470000
ENCODING 9572
SWIDTH 500 0
DWIDTH 12 0
BBX 12 23 0 -7
BITMAP
0000
0000
0000
0000
0000
0000
0000
0000
0000
FFF0
0000
0000
0000
FFF0
0400
0400
0400
0400
0400
0400
0400
0400
0400
ENDCHAR
STARTCHAR SF480000
ENCODING 9573
SWIDTH 500 0
DWIDTH 12 0
BBX 12 23 0 -7
BITMAP
0000
0000
0000
0000
0000
0000
0000
0000
0000
0000
0000
FFF0
1100
1100
1100
1100
1100
1100
1100
1100
1100
1100
1100
ENDCHAR
STARTCHAR SF410000
ENCODING 9574
SWIDTH 500 0
DWIDTH 12 0
BBX 12 23 0 -7
BITMAP
0000
0000
0000
0000
0000
0000
0000
0000
0000
FFF0
0000
0000
0000
F1F0
1100
1100
1100
1100
1100
1100
1100
1100
1100
ENDCHAR
STARTCHAR SF450000
ENCODING 9575
SWIDTH 500 0
DWIDTH 12 0
BBX 12 23 0 -7
BITMAP
0400
0400
0400
0400
0400
0400
0400
0400
0400
FFF0
0000
0000
0000
FFF0
0000
0000
0000
0000
0000
0000
0000
0000
0000
ENDCHAR
STARTCHAR SF460000
ENCODING 9576
SWIDTH 500 0
DWIDTH 12 0
BBX 12 23 0 -7
BITMAP
1100
1100
1100
1100
1100
1100
1100
1100
1100
1100
1100
FFF0
0000
0000
0000
0000
0000
0000
0000
0000
0000
0000
0000
ENDCHAR
STARTCHAR SF400000
ENCODING 9577
SWIDTH 500 0
DWIDTH 12 0
BBX 12 23 0 -7
BITMAP
1100
1100
1100
1100
1100
1100
1100
1100
1100
F1F0
0000
0000
0000
FFF0
0000
0000
0000
0000
0000
0000
0000
0000
0000
ENDCHAR
STARTCHAR SF540000
ENCODING 9578
SWIDTH 500 0
DWIDTH 12 0
BBX 12 23 0 -7
BITMAP
0400
0400
0400
0400
0400
0400
0400
0400
0400
FFF0
0400
0400
0400
FFF0
0400
0400
0400
0400
0400
0400
0400
0400
0400
ENDCHAR
STARTCHAR SF530000
ENCODING 9579
SWIDTH 500 0
DWIDTH 12 0
BBX 12 23 0 -7
BITMAP
1100
1100
1100
1100
1100
1100
1100
1100
1100
1100
1100
FFF0
1100
1100
1100
1100
1100
1100
1100
1100
1100
1100
1100
ENDCHAR
STARTCHAR SF440000
ENCODING 9580
SWIDTH 500 0
DWIDTH 12 0
BBX 12 23 0 -7
BITMAP
1100
1100
1100
1100
1100
1100
1100
1100
1100
F1F0
0000
0000
0000
F1F0
1100
1100
1100
1100
1100
1100
1100
1100
1100
ENDCHAR
STARTCHAR upblock
ENCODING 9600
SWIDTH 500 0
DWIDTH 12 0
BBX 12 23 0 -7
BITMAP
FFF0
FFF0
FFF0
FFF0
FFF0
FFF0
FFF0
FFF0
FFF0
FFF0
FFF0
0000
0000
0000
0000
0000
0000
0000
0000
0000
0000
0000
0000
ENDCHAR
STARTCHAR dnblock
ENCODING 9604
SWIDTH 500 0
DWIDTH 12 0
BBX 12 23 0 -7
BITMAP
0000
0000
0000
0000
0000
0000
0000
0000
0000
0000
0000
FFF0
FFF0
FFF0
FFF0
FFF0
FFF0
FFF0
FFF0
FFF0
FFF0
FFF0
FFF0
ENDCHAR
STARTCHAR block
ENCODING 9608
SWIDTH 500 0
DWIDTH 12 0
BBX 12 23 0 -7
BITMAP
FFF0
FFF0
FFF0
FFF0
FFF0
FFF0
FFF0
FFF0
FFF0
FFF0
FFF0
FFF0
FFF0
FFF0
FFF0
FFF0
FFF0
FFF0
FFF0
FFF0
FFF0
FFF0
FFF0
ENDCHAR
STARTCHAR lfblock
ENCODING 9612
SWIDTH 500 0
DWIDTH 12 0
BBX 12 23 0 -7
BITMAP
FC00
FC00
FC00
FC00
FC00
FC00
FC00
FC00
FC00
FC00
FC00
FC00
FC00
FC00
FC00
FC00
FC00
FC00
FC00
FC00
FC00
FC00
FC00
ENDCHAR
STARTCHAR rtblock
ENCODING 9616
SWIDTH 500 0
DWIDTH 12 0
BBX 12 23 0 -7
BITMAP
03F0
03F0
03F0
03F0
03F0
03F0
03F0
03F0
03F0
03F0
03F0
03F0
03F0
03F0
03F0
03F0
03F0
03F0
03F0
03F0
03F0
03F0
03F0
ENDCHAR
STARTCHAR ltshade
ENCODING 9617
SWIDTH 500 0
DWIDTH 12 0
BBX 12 23 0 -7
BITMAP
5540
AAA0
5550
AAA0
5550
AAA0
5550
AAA0
5550
AAA0
5550
AAA0
5550
AAA0
5550
AAA0
5550
AAA0
5550
AAA0
5550
AAA0
5550
ENDCHAR
STARTCHAR shade
ENCODING 9618
SWIDTH 500 0
DWIDTH 12 0
BBX 12 23 0 -7
BITMAP
FFF0
AAA0
FFF0
5550
FFF0
AAA0
FFF0
5550
FFF0
AAA0
FFF0
5550
FFF0
AAA0
FFF0
5550
FFF0
AAA0
FFF0
5550
FFF0
AAA0
FFF0
ENDCHAR
STARTCHAR dkshade
ENCODING 9619
SWIDTH 500 0
DWIDTH 12 0
BBX 12 23 0 -7
BITMAP
DDD0
FFF0
7770
FFF0
DDD0
FFF0
7770
FFE0
DDD0
FFF0
7770
FFF0
DDD0
FFF0
7770
FFE0
DDD0
FFF0
7770
FFF0
DDD0
FFF0
7FF0
ENDCHAR
STARTCHAR filledbox
ENCODING 9632
SWIDTH 500 0
DWIDTH 12 0
BBX 12 23 0 -7
BITMAP
0000
0000
0000
0000
0000
0000
0000
3FC0
3FC0
3FC0
3FC0
3FC0
3FC0
3FC0
3FC0
3FC0
0000
0000
0000
0000
0000
0000
0000
ENDCHAR
STARTCHAR filledrect
ENCODING 9644
SWIDTH 500 0
DWIDTH 12 0
BBX 12 23 0 -7
BITMAP
0000
0000
0000
0000
0000
0000
0000
0000
0000
0000
3FC0
3FC0
3FC0
3FC0
0000
0000
0000
0000
0000
0000
0000
0000
0000
ENDCHAR
STARTCHAR triagup
ENCODING 9650
SWIDTH 500 0
DWIDTH 12 0
BBX 12 23 0 -7
BITMAP
0000
0000
0600
0600
0600
0F00
0F00
0F00
1F80
1F80
1F80
3FC0
3FC0
3FC0
7FE0
7FE0
0000
0000
0000
0000
0000
0000
0000
ENDCHAR
STARTCHAR triagrt
ENCODING 9658
SWIDTH 500 0
DWIDTH 12 0
BBX 12 23 0 -7
BITMAP
0000
0000
2000
3000
3800
3C00
3E00
3F00
3F80
3FC0
3F80
3F00
3E00
3C00
3800
3000
2000
0000
0000
0000
0000
0000
0000
ENDCHAR
STARTCHAR triagdn
ENCODING 9660
SWIDTH 500 0
DWIDTH 12 0
BBX 12 23 0 -7
BITMAP
0000
0000
7FE0
7FE0
3FC0
3FC0
3FC0
1F80
1F80
1F80
0F00
0F00
0F00
0600
0600
0600
0000
0000
0000
0000
0000
0000
0000
ENDCHAR
STARTCHAR triaglf
ENCODING 9668
SWIDTH 500 0
DWIDTH 12 0
BBX 12 23 0 -7
BITMAP
0000
0000
0040
00C0
01C0
03C0
07C0
0FC0
1FC0
3FC0
1FC0
0FC0
07C0
03C0
01C0
00C0
0040
0000
0000
0000
0000
0000
0000
ENDCHAR
STARTCHAR circle
ENCODING 9675
SWIDTH 500 0
DWIDTH 12 0
BBX 12 23 0 -7
BITMAP
0000
0000
0000
0000
0000
0000
0600
1980
2040
2040
4020
4020
2040
2040
1980
0600
0000
0000
0000
0000
0000
0000
0000
ENDCHAR
STARTCHAR invbullet
ENCODING 9688
SWIDTH 500 0
DWIDTH 12 0
BBX 12 23 0 -7
BITMAP
FFF0
FFF0
FFF0
FFF0
FFF0
FFF0
FFF0
FFF0
F9F0
F0F0
E070
E070
F0F0
F9F0
FFF0
FFF0
FFF0
FFF0
FFF0
FFF0
FFF0
FFF0
FFF0
ENDCHAR
STARTCHAR invcircle
ENCODING 9689
SWIDTH 500 0
DWIDTH 12 0
BBX 12 23 0 -7
BITMAP
FFF0
FFF0
FFF0
FFF0
FFF0
FFF0
F9F0
E670
DFB0
DFB0
BFD0
BFD0
DFB0
DFB0
E670
F9F0
FFF0
FFF0
FFF0
FFF0
FFF0
FFF0
FFF0
ENDCHAR
STARTCHAR smileface
ENCODING 9786
SWIDTH 500 0
DWIDTH 12 0
BBX 12 23 0 -7
BITMAP
0000
0000
1F80
2040
4020
59A0
59A0
4020
4620
4620
4620
50A0
4F20
4020
2040
1F80
0000
0000
0000
0000
0000
0000
0000
ENDCHAR
STARTCHAR invsmileface
ENCODING 9787
SWIDTH 500 0
DWIDTH 12 0
BBX 12 23 0 -7
BITMAP
0000
0000
1F80
3FC0
7FE0
6660
6660
7FE0
79E0
79E0
79E0
6F60
70E0
7FE0
3FC0
1F80
0000
0000
0000
0000
0000
0000
0000
ENDCHAR
STARTCHAR sun
ENCODING 9788
SWIDTH 500 0
DWIDTH 12 0
BBX 12 23 0 -7
BITMAP
0000
0000
0000
0000
0200
2720
18C0
1040
2020
7030
1020
0840
18C0
2720
0200
0000
0000
0000
0000
0000
0000
0000
0000
ENDCHAR
STARTCHAR female
ENCODING 9792
SWIDTH 500 0
DWIDTH 12 0
BBX 12 23 0 -7
BITMAP
0000
0000
0000
0000
0000
0000
0F80
1040
2020
2020
2020
2020
2020
1040
0F80
0200
0200
0F80
0200
0200
0000
0000
0000
ENDCHAR
STARTCHAR male
ENCODING 9794
SWIDTH 500 0
DWIDTH 12 0
BBX 12 23 0 -7
BITMAP
0000
0000
0000
0000
01E0
0060
00A0
1F20
2080
4040
4040
4040
4040
4040
2080
1F00
0000
0000
0000
0000
0000
0000
0000
ENDCHAR
STARTCHAR spade
ENCODING 9824
SWIDTH 500 0
DWIDTH 12 0
BBX 12 23 0 -7
BITMAP
0000
0000
0600
0600
0F00
0F00
1F80
1F80
3FC0
3FC0
7FE0
7FE0
7FE0
7FE0
36C0
0F00
0000
0000
0000
0000
0000
0000
0000
ENDCHAR
STARTCHAR club
ENCODING 9827
SWIDTH 500 0
DWIDTH 12 0
BBX 12 23 0 -7
BITMAP
0000
0000
0F00
1F80
1F80
1F80
0F00
36C0
7FE0
7FE0
7FE0
7FE0
36C0
0600
0600
0F00
0000
0000
0000
0000
0000
0000
0000
ENDCHAR
STARTCHAR heart
ENCODING 9829
SWIDTH 500 0
DWIDTH 12 0
BBX 12 23 0 -7
BITMAP
0000
0000
39C0
7FE0
7FE0
7FE0
7FE0
7FE0
3FC0
3FC0
1F80
1F80
0F00
0F00
0600
0600
0000
0000
0000
0000
0000
0000
0000
ENDCHAR
STARTCHAR diamond
ENCODING 9830
SWIDTH 500 0
DWIDTH 12 0
BBX 12 23 0 -7
BITMAP
0000
0000
0600
0600
0F00
0F00
1F80
1F80
7FE0
7FE0
1F80
1F80
0F00
0F00
0600
0600
0000
0000
0000
0000
0000
0000
0000
ENDCHAR
STARTCHAR musicalnote
ENCODING 9834
SWIDTH 500 0
DWIDTH 12 0
BBX 12 23 0 -7
BITMAP
0000
0000
0600
0780
07E0
0600
0600
0600
0600
0600
0600
0600
0600
1E00
3E00
1C00
0000
0000
0000
0000
0000
0000
0000
ENDCHAR
STARTCHAR musicalnotedbl
ENCODING 9835
SWIDTH 500 0
DWIDTH 12 0
BBX 12 23 0 -7
BITMAP
0000
0000
0C00
0F00
0CC0
0F20
0CE0
0C60
0C60
0C60
0C60
3C60
7C60
39E0
03E0
01C0
0000
0000
0000
0000
0000
0000
0000
ENDCHAR
STARTCHAR uni3044
ENCODING 12356
SWIDTH 500 0
DWIDTH 12 0
BBX 12 23 0 -7
BITMAP
0000
0000
0000
0000
0000
0000
0000
0000
0000
0000
0000
0000
0000
0000
0000
0000
0000
0000
0000
0000
0000
0000
0000
ENDCHAR
STARTCHAR uni3046
ENCODING 12358
SWIDTH 500 0
DWIDTH 12 0
BBX 12 23 0 -7
BITMAP
0000
0000
0000
0000
0000
0000
0000
0000
0000
0000
0000
0000
0000
0000
0000
0000
0000
0000
0000
0000
0000
0000
0000
ENDCHAR
STARTCHAR uni304B
ENCODING 12363
SWIDTH 500 0
DWIDTH 12 0
BBX 12 23 0 -7
BITMAP
0000
0000
0000
0000
0000
0000
0000
0000
0000
0000
0000
0000
0000
0000
0000
0000
0000
0000
0000
0000
0000
0000
0000
ENDCHAR
STARTCHAR uni3057
ENCODING 12375
SWIDTH 500 0
DWIDTH 12 0
BBX 12 23 0 -7
BITMAP
0000
0000
0000
0000
0000
0000
0000
0000
0000
0000
0000
0000
0000
0000
0000
0000
0000
0000
0000
0000
0000
0000
0000
ENDCHAR
STARTCHAR uni306E
ENCODING 12398
SWIDTH 500 0
DWIDTH 12 0
BBX 12 23 0 -7
BITMAP
0000
0000
0000
0000
0000
0000
0000
0000
0000
0000
0000
0000
0000
0000
0000
0000
0000
0000
0000
0000
0000
0000
0000
ENDCHAR
STARTCHAR uni3093
ENCODING 12435
SWIDTH 500 0
DWIDTH 12 0
BBX 12 23 0 -7
BITMAP
0000
0000
0000
0000
0000
0000
0000
0000
0000
0000
0000
0000
0000
0000
0000
0000
0000
0000
0000
0000
0000
0000
0000
ENDCHAR
STARTCHAR .notdef
ENCODING -1
SWIDTH 500 0
DWIDTH 12 0
BBX 11 14 1 0
BITMAP
FFE0
8020
8020
8020
8020
8020
8020
8020
8020
8020
8020
8020
8020
FFE0
ENDCHAR
ENDFONT
