STARTFONT 2.1
FONT Bm437_IBM_XGA-AI_12x20-20px
SIZE 20 75 75
FONTBOUNDINGBOX 12 20 0 -6
STARTPROPERTIES 3
PIXEL_SIZE 20
FONT_ASCENT 14
FONT_DESCENT 6
ENDPROPERTIES
CHARS 295
STARTCHAR uni0000
ENCODING 0
SWIDTH 600 0
DWIDTH 12 0
BBX 12 20 0 -6
BITMAP
0000
0000
0000
0000
0000
0000
0000
0000
0000
0000
0000
0000
0000
0000
0000
0000
0000
0000
0000
0000
ENDCHAR
STARTCHAR uni0001
ENCODING 1
SWIDTH 600 0
DWIDTH 12 0
BBX 12 20 0 -6
BITMAP
0000
0000
0F00
1080
2040
50A0
B9D0
9090
8010
9090
4F20
2040
1080
0F00
0000
0000
0000
0000
0000
0000
ENDCHAR
STARTCHAR uni0002
ENCODING 2
SWIDTH 600 0
DWIDTH 12 0
BBX 12 20 0 -6
BITMAP
0000
0000
0F00
1F80
3FC0
6F60
C630
EF70
FFF0
EF70
70E0
3FC0
1F80
0F00
0000
0000
0000
0000
0000
0000
ENDCHAR
STARTCHAR uni0003
ENCODING 3
SWIDTH 600 0
DWIDTH 12 0
BBX 12 20 0 -6
BITMAP
0000
0000
3180
7BC0
FFE0
FFE0
FFE0
FFE0
7FC0
3F80
1F00
0E00
0400
0400
0000
0000
0000
0000
0000
0000
ENDCHAR
STARTCHAR uni0004
ENCODING 4
SWIDTH 600 0
DWIDTH 12 0
BBX 12 20 0 -6
BITMAP
0000
0000
0400
0E00
1F00
3F80
7FC0
FFE0
FFE0
7FC0
3F80
1F00
0E00
0400
0000
0000
0000
0000
0000
0000
ENDCHAR
STARTCHAR uni0005
ENCODING 5
SWIDTH 600 0
DWIDTH 12 0
BBX 12 20 0 -6
BITMAP
0000
0000
0E00
1F00
1F00
0E00
64C0
F5E0
FFE0
F5E0
64C0
0400
0E00
1F00
0000
0000
0000
0000
0000
0000
ENDCHAR
STARTCHAR uni0006
ENCODING 6
SWIDTH 600 0
DWIDTH 12 0
BBX 12 20 0 -6
BITMAP
0000
0000
0400
0400
0E00
1F00
3F80
7FC0
FFE0
FFE0
FFE0
64C0
0E00
1F00
0000
0000
0000
0000
0000
0000
ENDCHAR
STARTCHAR uni0007
ENCODING 7
SWIDTH 600 0
DWIDTH 12 0
BBX 12 20 0 -6
BITMAP
0000
0000
0000
0000
0000
0600
0F00
1F80
1F80
1F80
0F00
0600
0000
0000
0000
0000
0000
0000
0000
0000
ENDCHAR
STARTCHAR uni0008
ENCODING 8
SWIDTH 600 0
DWIDTH 12 0
BBX 12 20 0 -6
BITMAP
FFF0
FFF0
FFF0
FFF0
FFF0
F9F0
F0F0
E070
E070
E070
F0F0
F9F0
FFF0
FFF0
FFF0
FFF0
FFF0
FFF0
FFF0
FFF0
ENDCHAR
STARTCHAR uni0009
ENCODING 9
SWIDTH 600 0
DWIDTH 12 0
BBX 12 20 0 -6
BITMAP
0000
0000
0F00
1080
2040
4020
4020
4020
4020
4020
4020
2040
1080
0F00
0000
0000
0000
0000
0000
0000
ENDCHAR
STARTCHAR uni000A
ENCODING 10
SWIDTH 600 0
DWIDTH 12 0
BBX 12 20 0 -6
BITMAP
FFF0
FFF0
F0F0
EF70
DFB0
BFD0
BFD0
BFD0
BFD0
BFD0
BFD0
DFB0
EF70
F0F0
FFF0
FFF0
FFF0
FFF0
FFF0
FFF0
ENDCHAR
STARTCHAR uni000B
ENCODING 11
SWIDTH 600 0
DWIDTH 12 0
BBX 12 20 0 -6
BITMAP
0000
0000
03E0
0060
00A0
0120
0220
0400
1F00
2080
4040
4040
4040
4040
2080
1F00
0000
0000
0000
0000
ENDCHAR
STARTCHAR uni000C
ENCODING 12
SWIDTH 600 0
DWIDTH 12 0
BBX 12 20 0 -6
BITMAP
0000
0000
1F00
2080
4040
4040
4040
4040
4040
2080
1F00
0400
0400
0400
1F00
0400
0400
0000
0000
0000
ENDCHAR
STARTCHAR uni000D
ENCODING 13
SWIDTH 600 0
DWIDTH 12 0
BBX 12 20 0 -6
BITMAP
0000
0000
0FE0
0C60
0C60
0FE0
0C00
0C00
0C00
0C00
0C00
3C00
7800
7000
0000
0000
0000
0000
0000
0000
ENDCHAR
STARTCHAR uni000E
ENCODING 14
SWIDTH 600 0
DWIDTH 12 0
BBX 12 20 0 -6
BITMAP
0000
0000
1FF0
1830
1830
1FF0
1830
1830
1830
1830
1830
18F0
79E0
F1C0
E000
0000
0000
0000
0000
0000
ENDCHAR
STARTCHAR uni000F
ENCODING 15
SWIDTH 600 0
DWIDTH 12 0
BBX 12 20 0 -6
BITMAP
0000
0000
0400
0400
4440
2E80
1100
2080
2080
E0E0
2080
2080
1100
2E80
4440
0400
0400
0000
0000
0000
ENDCHAR
STARTCHAR uni0010
ENCODING 16
SWIDTH 600 0
DWIDTH 12 0
BBX 12 20 0 -6
BITMAP
0000
0000
1000
1800
1C00
1E00
1F00
1F80
1FC0
1F80
1F00
1E00
1C00
1800
1000
0000
0000
0000
0000
0000
ENDCHAR
STARTCHAR uni0011
ENCODING 17
SWIDTH 600 0
DWIDTH 12 0
BBX 12 20 0 -6
BITMAP
0000
0000
0080
0180
0380
0780
0F80
1F80
3F80
1F80
0F80
0780
0380
0180
0080
0000
0000
0000
0000
0000
ENDCHAR
STARTCHAR uni0012
ENCODING 18
SWIDTH 600 0
DWIDTH 12 0
BBX 12 20 0 -6
BITMAP
0000
0000
0400
0E00
1F00
0400
0400
0400
0400
0400
0400
0400
0400
1F00
0E00
0400
0000
0000
0000
0000
ENDCHAR
STARTCHAR uni0013
ENCODING 19
SWIDTH 600 0
DWIDTH 12 0
BBX 12 20 0 -6
BITMAP
0000
0000
1080
39C0
39C0
39C0
39C0
1080
1080
1080
1080
0000
1080
39C0
1080
0000
0000
0000
0000
0000
ENDCHAR
STARTCHAR uni0014
ENCODING 20
SWIDTH 600 0
DWIDTH 12 0
BBX 12 20 0 -6
BITMAP
0000
0000
1FE0
3CC0
7CC0
7CC0
7CC0
3CC0
1CC0
0CC0
0CC0
0CC0
0CC0
0CC0
0000
0000
0000
0000
0000
0000
ENDCHAR
STARTCHAR uni0015
ENCODING 21
SWIDTH 600 0
DWIDTH 12 0
BBX 12 20 0 -6
BITMAP
0000
0000
0FA0
1860
3020
3800
1F80
18C0
3060
3060
3060
18C0
0FC0
00E0
2060
30C0
2F80
0000
0000
0000
ENDCHAR
STARTCHAR uni0016
ENCODING 22
SWIDTH 600 0
DWIDTH 12 0
BBX 12 20 0 -6
BITMAP
0000
0000
0000
0000
0000
0000
0000
0000
0000
0000
7FE0
7FE0
7FE0
7FE0
0000
0000
0000
0000
0000
0000
ENDCHAR
STARTCHAR uni0017
ENCODING 23
SWIDTH 600 0
DWIDTH 12 0
BBX 12 20 0 -6
BITMAP
0000
0400
0E00
1F00
0400
0400
0400
0400
0400
0400
0400
0400
1F00
0E00
0400
0000
7FC0
0000
0000
0000
ENDCHAR
STARTCHAR uni0018
ENCODING 24
SWIDTH 600 0
DWIDTH 12 0
BBX 12 20 0 -6
BITMAP
0000
0400
0E00
1F00
0400
0400
0400
0400
0400
0400
0400
0400
0400
0400
0400
0000
0000
0000
0000
0000
ENDCHAR
STARTCHAR uni0019
ENCODING 25
SWIDTH 600 0
DWIDTH 12 0
BBX 12 20 0 -6
BITMAP
0000
0400
0400
0400
0400
0400
0400
0400
0400
0400
0400
0400
1F00
0E00
0400
0000
0000
0000
0000
0000
ENDCHAR
STARTCHAR uni001A
ENCODING 26
SWIDTH 600 0
DWIDTH 12 0
BBX 12 20 0 -6
BITMAP
0000
0000
0000
0000
0000
0000
0080
00C0
7FE0
00C0
0080
0000
0000
0000
0000
0000
0000
0000
0000
0000
ENDCHAR
STARTCHAR uni001B
ENCODING 27
SWIDTH 600 0
DWIDTH 12 0
BBX 12 20 0 -6
BITMAP
0000
0000
0000
0000
0000
0000
1000
3000
7FE0
3000
1000
0000
0000
0000
0000
0000
0000
0000
0000
0000
ENDCHAR
STARTCHAR uni001C
ENCODING 28
SWIDTH 600 0
DWIDTH 12 0
BBX 12 20 0 -6
BITMAP
0000
0000
0000
0000
0000
0000
4000
4000
4000
4000
4000
4000
4000
7FE0
0000
0000
0000
0000
0000
0000
ENDCHAR
STARTCHAR uni001D
ENCODING 29
SWIDTH 600 0
DWIDTH 12 0
BBX 12 20 0 -6
BITMAP
0000
0000
0000
0000
0000
0000
1080
30C0
7FE0
30C0
1080
0000
0000
0000
0000
0000
0000
0000
0000
0000
ENDCHAR
STARTCHAR uni001E
ENCODING 30
SWIDTH 600 0
DWIDTH 12 0
BBX 12 20 0 -6
BITMAP
0000
0000
0400
0400
0E00
0E00
1F00
1F00
3F80
3F80
7FC0
7FC0
FFE0
FFE0
0000
0000
0000
0000
0000
0000
ENDCHAR
STARTCHAR uni001F
ENCODING 31
SWIDTH 600 0
DWIDTH 12 0
BBX 12 20 0 -6
BITMAP
0000
0000
FFE0
FFE0
7FC0
7FC0
3F80
3F80
1F00
1F00
0E00
0E00
0400
0400
0000
0000
0000
0000
0000
0000
ENDCHAR
STARTCHAR space
ENCODING 32
SWIDTH 600 0
DWIDTH 12 0
BBX 12 20 0 -6
BITMAP
0000
0000
0000
0000
0000
0000
0000
0000
0000
0000
0000
0000
0000
0000
0000
0000
0000
0000
0000
0000
ENDCHAR
STARTCHAR exclam
ENCODING 33
SWIDTH 600 0
DWIDTH 12 0
BBX 12 20 0 -6
BITMAP
0000
0000
0200
0700
0700
0700
0700
0200
0200
0200
0200
0000
0200
0700
0200
0000
0000
0000
0000
0000
ENDCHAR
STARTCHAR quotedbl
ENCODING 34
SWIDTH 600 0
DWIDTH 12 0
BBX 12 20 0 -6
BITMAP
0000
0880
1DC0
0880
0880
0880
0000
0000
0000
0000
0000
0000
0000
0000
0000
0000
0000
0000
0000
0000
ENDCHAR
STARTCHAR numbersign
ENCODING 35
SWIDTH 600 0
DWIDTH 12 0
BBX 12 20 0 -6
BITMAP
0000
0000
0880
0880
0880
7FE0
1100
1100
1100
1100
FFC0
2200
2200
2200
0000
0000
0000
0000
0000
0000
ENDCHAR
STARTCHAR dollar
ENCODING 36
SWIDTH 600 0
DWIDTH 12 0
BBX 12 20 0 -6
BITMAP
0200
0200
0FA0
1A60
3220
3200
3E00
1F80
03C0
02E0
0260
4260
62C0
5F80
0200
0200
0000
0000
0000
0000
ENDCHAR
STARTCHAR percent
ENCODING 37
SWIDTH 600 0
DWIDTH 12 0
BBX 12 20 0 -6
BITMAP
0000
0000
3C00
6620
6640
6680
3D00
0200
0400
0BC0
1660
2660
4660
03C0
0000
0000
0000
0000
0000
0000
ENDCHAR
STARTCHAR ampersand
ENCODING 38
SWIDTH 600 0
DWIDTH 12 0
BBX 12 20 0 -6
BITMAP
0000
0000
0E00
1B00
3180
3180
1B00
1C00
6600
C670
C320
C1C0
6190
1EE0
0000
0000
0000
0000
0000
0000
ENDCHAR
STARTCHAR quotesingle
ENCODING 39
SWIDTH 600 0
DWIDTH 12 0
BBX 12 20 0 -6
BITMAP
0000
0000
0400
0E00
0600
0200
0400
0000
0000
0000
0000
0000
0000
0000
0000
0000
0000
0000
0000
0000
ENDCHAR
STARTCHAR parenleft
ENCODING 40
SWIDTH 600 0
DWIDTH 12 0
BBX 12 20 0 -6
BITMAP
0100
0200
0200
0600
0600
0C00
0C00
0C00
0C00
0C00
0C00
0600
0600
0200
0200
0100
0000
0000
0000
0000
ENDCHAR
STARTCHAR parenright
ENCODING 41
SWIDTH 600 0
DWIDTH 12 0
BBX 12 20 0 -6
BITMAP
0800
0400
0400
0600
0600
0300
0300
0300
0300
0300
0300
0600
0600
0400
0400
0800
0000
0000
0000
0000
ENDCHAR
STARTCHAR asterisk
ENCODING 42
SWIDTH 600 0
DWIDTH 12 0
BBX 12 20 0 -6
BITMAP
0000
0000
0000
0000
0400
2480
1500
0E00
7FC0
0E00
1500
2480
0400
0000
0000
0000
0000
0000
0000
0000
ENDCHAR
STARTCHAR plus
ENCODING 43
SWIDTH 600 0
DWIDTH 12 0
BBX 12 20 0 -6
BITMAP
0000
0000
0000
0000
0400
0400
0400
0400
7FC0
0400
0400
0400
0400
0000
0000
0000
0000
0000
0000
0000
ENDCHAR
STARTCHAR comma
ENCODING 44
SWIDTH 600 0
DWIDTH 12 0
BBX 12 20 0 -6
BITMAP
0000
0000
0000
0000
0000
0000
0000
0000
0000
0000
0000
0400
0E00
0600
0200
0400
0000
0000
0000
0000
ENDCHAR
STARTCHAR hyphen
ENCODING 45
SWIDTH 600 0
DWIDTH 12 0
BBX 12 20 0 -6
BITMAP
0000
0000
0000
0000
0000
0000
0000
0000
7FC0
0000
0000
0000
0000
0000
0000
0000
0000
0000
0000
0000
ENDCHAR
STARTCHAR period
ENCODING 46
SWIDTH 600 0
DWIDTH 12 0
BBX 12 20 0 -6
BITMAP
0000
0000
0000
0000
0000
0000
0000
0000
0000
0000
0000
0400
0E00
0400
0000
0000
0000
0000
0000
0000
ENDCHAR
STARTCHAR slash
ENCODING 47
SWIDTH 600 0
DWIDTH 12 0
BBX 12 20 0 -6
BITMAP
0000
0040
0040
0080
0080
0100
0100
0200
0200
0400
0400
0800
0800
1000
1000
2000
2000
0000
0000
0000
ENDCHAR
STARTCHAR zero
ENCODING 48
SWIDTH 600 0
DWIDTH 12 0
BBX 12 20 0 -6
BITMAP
0000
0000
0F00
1080
30C0
6060
6660
6660
6660
6660
6060
30C0
1080
0F00
0000
0000
0000
0000
0000
0000
ENDCHAR
STARTCHAR one
ENCODING 49
SWIDTH 600 0
DWIDTH 12 0
BBX 12 20 0 -6
BITMAP
0000
0000
0200
0600
0E00
1600
0600
0600
0600
0600
0600
0600
0600
0F00
0000
0000
0000
0000
0000
0000
ENDCHAR
STARTCHAR two
ENCODING 50
SWIDTH 600 0
DWIDTH 12 0
BBX 12 20 0 -6
BITMAP
0000
0000
0F00
1F80
20C0
00C0
00C0
0180
0200
0400
0800
1020
3FE0
7FC0
0000
0000
0000
0000
0000
0000
ENDCHAR
STARTCHAR three
ENCODING 51
SWIDTH 600 0
DWIDTH 12 0
BBX 12 20 0 -6
BITMAP
0000
0000
1F80
3FC0
4060
0060
00C0
0780
01C0
0060
0060
6060
7FC0
1F80
0000
0000
0000
0000
0000
0000
ENDCHAR
STARTCHAR four
ENCODING 52
SWIDTH 600 0
DWIDTH 12 0
BBX 12 20 0 -6
BITMAP
0000
0000
0080
0180
0380
0580
0980
1180
2180
4180
7FE0
7FE0
0180
0180
0000
0000
0000
0000
0000
0000
ENDCHAR
STARTCHAR five
ENCODING 53
SWIDTH 600 0
DWIDTH 12 0
BBX 12 20 0 -6
BITMAP
0000
0000
3FE0
3FE0
6000
4000
5F00
7FC0
00E0
0060
0060
6060
70C0
1F80
0000
0000
0000
0000
0000
0000
ENDCHAR
STARTCHAR six
ENCODING 54
SWIDTH 600 0
DWIDTH 12 0
BBX 12 20 0 -6
BITMAP
0000
0000
0F80
1040
3000
6000
6000
6F80
70C0
6060
6060
30C0
1080
0F00
0000
0000
0000
0000
0000
0000
ENDCHAR
STARTCHAR seven
ENCODING 55
SWIDTH 600 0
DWIDTH 12 0
BBX 12 20 0 -6
BITMAP
0000
0000
3FE0
7FE0
4040
0040
0080
0080
0100
0100
0200
0200
0400
0400
0000
0000
0000
0000
0000
0000
ENDCHAR
STARTCHAR eight
ENCODING 56
SWIDTH 600 0
DWIDTH 12 0
BBX 12 20 0 -6
BITMAP
0000
0000
0F00
1080
30C0
30C0
1080
0F00
30C0
6060
6060
6060
30C0
1F80
0000
0000
0000
0000
0000
0000
ENDCHAR
STARTCHAR nine
ENCODING 57
SWIDTH 600 0
DWIDTH 12 0
BBX 12 20 0 -6
BITMAP
0000
0000
0F00
1080
30C0
6060
6060
30E0
1F60
0060
0060
00C0
2080
1F00
0000
0000
0000
0000
0000
0000
ENDCHAR
STARTCHAR colon
ENCODING 58
SWIDTH 600 0
DWIDTH 12 0
BBX 12 20 0 -6
BITMAP
0000
0000
0000
0000
0000
0400
0E00
0400
0000
0000
0000
0400
0E00
0400
0000
0000
0000
0000
0000
0000
ENDCHAR
STARTCHAR semicolon
ENCODING 59
SWIDTH 600 0
DWIDTH 12 0
BBX 12 20 0 -6
BITMAP
0000
0000
0000
0000
0000
0400
0E00
0400
0000
0000
0000
0400
0E00
0600
0200
0400
0000
0000
0000
0000
ENDCHAR
STARTCHAR less
ENCODING 60
SWIDTH 600 0
DWIDTH 12 0
BBX 12 20 0 -6
BITMAP
0000
0000
0080
0100
0200
0400
0800
1000
2000
1000
0800
0400
0200
0100
0080
0000
0000
0000
0000
0000
ENDCHAR
STARTCHAR equal
ENCODING 61
SWIDTH 600 0
DWIDTH 12 0
BBX 12 20 0 -6
BITMAP
0000
0000
0000
0000
0000
0000
7FC0
0000
0000
7FC0
0000
0000
0000
0000
0000
0000
0000
0000
0000
0000
ENDCHAR
STARTCHAR greater
ENCODING 62
SWIDTH 600 0
DWIDTH 12 0
BBX 12 20 0 -6
BITMAP
0000
0000
1000
0800
0400
0200
0100
0080
0040
0080
0100
0200
0400
0800
1000
0000
0000
0000
0000
0000
ENDCHAR
STARTCHAR question
ENCODING 63
SWIDTH 600 0
DWIDTH 12 0
BBX 12 20 0 -6
BITMAP
0000
0000
0F80
10C0
18C0
18C0
0180
0100
0200
0200
0200
0000
0200
0700
0200
0000
0000
0000
0000
0000
ENDCHAR
STARTCHAR at
ENCODING 64
SWIDTH 600 0
DWIDTH 12 0
BBX 12 20 0 -6
BITMAP
0000
0000
0000
0000
0000
1F80
2040
4020
8E90
9990
9990
9990
9990
8E60
4000
2020
1FC0
0000
0000
0000
ENDCHAR
STARTCHAR A
ENCODING 65
SWIDTH 600 0
DWIDTH 12 0
BBX 12 20 0 -6
BITMAP
0000
0000
0200
0700
0700
0B00
0980
0980
1180
1FC0
10C0
20C0
20C0
71E0
0000
0000
0000
0000
0000
0000
ENDCHAR
STARTCHAR B
ENCODING 66
SWIDTH 600 0
DWIDTH 12 0
BBX 12 20 0 -6
BITMAP
0000
0000
7F00
30C0
3060
3060
30C0
3F00
30C0
3060
3060
3060
30C0
7F00
0000
0000
0000
0000
0000
0000
ENDCHAR
STARTCHAR C
ENCODING 67
SWIDTH 600 0
DWIDTH 12 0
BBX 12 20 0 -6
BITMAP
0000
0000
0F80
1060
3020
6000
6000
6000
6000
6000
6000
3020
1040
0F80
0000
0000
0000
0000
0000
0000
ENDCHAR
STARTCHAR D
ENCODING 68
SWIDTH 600 0
DWIDTH 12 0
BBX 12 20 0 -6
BITMAP
0000
0000
7F00
3080
30C0
3060
3060
3060
3060
3060
3060
30C0
3080
7F00
0000
0000
0000
0000
0000
0000
ENDCHAR
STARTCHAR E
ENCODING 69
SWIDTH 600 0
DWIDTH 12 0
BBX 12 20 0 -6
BITMAP
0000
0000
7FE0
3020
3000
3000
3080
3F80
3080
3000
3000
3020
3060
7FE0
0000
0000
0000
0000
0000
0000
ENDCHAR
STARTCHAR F
ENCODING 70
SWIDTH 600 0
DWIDTH 12 0
BBX 12 20 0 -6
BITMAP
0000
0000
7FE0
3020
3000
3000
3080
3F80
3080
3000
3000
3000
3000
7800
0000
0000
0000
0000
0000
0000
ENDCHAR
STARTCHAR G
ENCODING 71
SWIDTH 600 0
DWIDTH 12 0
BBX 12 20 0 -6
BITMAP
0000
0000
0F80
1060
3020
6000
6000
6000
60F0
6060
6060
3060
1060
0FE0
0000
0000
0000
0000
0000
0000
ENDCHAR
STARTCHAR H
ENCODING 72
SWIDTH 600 0
DWIDTH 12 0
BBX 12 20 0 -6
BITMAP
0000
0000
79E0
30C0
30C0
30C0
30C0
3FC0
30C0
30C0
30C0
30C0
30C0
79E0
0000
0000
0000
0000
0000
0000
ENDCHAR
STARTCHAR I
ENCODING 73
SWIDTH 600 0
DWIDTH 12 0
BBX 12 20 0 -6
BITMAP
0000
0000
1F80
0600
0600
0600
0600
0600
0600
0600
0600
0600
0600
1F80
0000
0000
0000
0000
0000
0000
ENDCHAR
STARTCHAR J
ENCODING 74
SWIDTH 600 0
DWIDTH 12 0
BBX 12 20 0 -6
BITMAP
0000
0000
0780
0300
0300
0300
0300
0300
0300
0300
0300
3300
3300
1E00
0000
0000
0000
0000
0000
0000
ENDCHAR
STARTCHAR K
ENCODING 75
SWIDTH 600 0
DWIDTH 12 0
BBX 12 20 0 -6
BITMAP
0000
0000
79E0
3080
3100
3200
3400
3800
3C00
3600
3300
3180
30C0
79E0
0000
0000
0000
0000
0000
0000
ENDCHAR
STARTCHAR L
ENCODING 76
SWIDTH 600 0
DWIDTH 12 0
BBX 12 20 0 -6
BITMAP
0000
0000
7800
3000
3000
3000
3000
3000
3000
3000
3000
3020
3060
7FC0
0000
0000
0000
0000
0000
0000
ENDCHAR
STARTCHAR M
ENCODING 77
SWIDTH 600 0
DWIDTH 12 0
BBX 12 20 0 -6
BITMAP
0000
0000
C030
6060
70E0
70E0
5960
5960
4E60
4E60
4460
4060
4060
E0F0
0000
0000
0000
0000
0000
0000
ENDCHAR
STARTCHAR N
ENCODING 78
SWIDTH 600 0
DWIDTH 12 0
BBX 12 20 0 -6
BITMAP
0000
0000
60E0
2040
3040
3840
3C40
2E40
2740
23C0
21C0
20C0
20C0
70C0
0000
0000
0000
0000
0000
0000
ENDCHAR
STARTCHAR O
ENCODING 79
SWIDTH 600 0
DWIDTH 12 0
BBX 12 20 0 -6
BITMAP
0000
0000
0F00
1080
30C0
6060
6060
6060
6060
6060
6060
30C0
1080
0F00
0000
0000
0000
0000
0000
0000
ENDCHAR
STARTCHAR P
ENCODING 80
SWIDTH 600 0
DWIDTH 12 0
BBX 12 20 0 -6
BITMAP
0000
0000
7F00
30C0
3060
3060
3060
30C0
3F00
3000
3000
3000
3000
7800
0000
0000
0000
0000
0000
0000
ENDCHAR
STARTCHAR Q
ENCODING 81
SWIDTH 600 0
DWIDTH 12 0
BBX 12 20 0 -6
BITMAP
0000
0000
0F00
1080
30C0
6060
6060
6060
6060
6060
6060
30C0
1080
0F00
0300
0180
0040
0000
0000
0000
ENDCHAR
STARTCHAR R
ENCODING 82
SWIDTH 600 0
DWIDTH 12 0
BBX 12 20 0 -6
BITMAP
0000
0000
7F00
30C0
3060
3060
3060
30C0
3F00
3600
3300
3180
30C0
7860
0000
0000
0000
0000
0000
0000
ENDCHAR
STARTCHAR S
ENCODING 83
SWIDTH 600 0
DWIDTH 12 0
BBX 12 20 0 -6
BITMAP
0000
0000
0FA0
1860
3020
3000
3C00
1F80
03C0
00E0
0060
4060
60C0
5F80
0000
0000
0000
0000
0000
0000
ENDCHAR
STARTCHAR T
ENCODING 84
SWIDTH 600 0
DWIDTH 12 0
BBX 12 20 0 -6
BITMAP
0000
0000
7FE0
4620
0600
0600
0600
0600
0600
0600
0600
0600
0600
0F00
0000
0000
0000
0000
0000
0000
ENDCHAR
STARTCHAR U
ENCODING 85
SWIDTH 600 0
DWIDTH 12 0
BBX 12 20 0 -6
BITMAP
0000
0000
78E0
3040
3040
3040
3040
3040
3040
3040
3040
3040
1880
0F00
0000
0000
0000
0000
0000
0000
ENDCHAR
STARTCHAR V
ENCODING 86
SWIDTH 600 0
DWIDTH 12 0
BBX 12 20 0 -6
BITMAP
0000
0000
78E0
3040
3040
38C0
1880
1880
1D80
0D00
0D00
0D00
0600
0200
0000
0000
0000
0000
0000
0000
ENDCHAR
STARTCHAR W
ENCODING 87
SWIDTH 600 0
DWIDTH 12 0
BBX 12 20 0 -6
BITMAP
0000
0000
F070
6020
6020
6220
7260
3240
3340
3FC0
1F80
1B80
1980
0880
0000
0000
0000
0000
0000
0000
ENDCHAR
STARTCHAR X
ENCODING 88
SWIDTH 600 0
DWIDTH 12 0
BBX 12 20 0 -6
BITMAP
0000
0000
78E0
3040
1880
1880
0D00
0D00
0600
0B00
1180
1180
20C0
71E0
0000
0000
0000
0000
0000
0000
ENDCHAR
STARTCHAR Y
ENCODING 89
SWIDTH 600 0
DWIDTH 12 0
BBX 12 20 0 -6
BITMAP
0000
0000
78E0
3040
1880
1880
0D00
0D00
0600
0600
0600
0600
0600
0F00
0000
0000
0000
0000
0000
0000
ENDCHAR
STARTCHAR Z
ENCODING 90
SWIDTH 600 0
DWIDTH 12 0
BBX 12 20 0 -6
BITMAP
0000
0000
3FE0
6060
4060
00C0
0180
0300
0600
0C00
1800
3020
6060
7FC0
0000
0000
0000
0000
0000
0000
ENDCHAR
STARTCHAR bracketleft
ENCODING 91
SWIDTH 600 0
DWIDTH 12 0
BBX 12 20 0 -6
BITMAP
0F80
0C00
0C00
0C00
0C00
0C00
0C00
0C00
0C00
0C00
0C00
0C00
0C00
0C00
0C00
0F80
0000
0000
0000
0000
ENDCHAR
STARTCHAR backslash
ENCODING 92
SWIDTH 600 0
DWIDTH 12 0
BBX 12 20 0 -6
BITMAP
0000
2000
2000
1000
1000
0800
0800
0400
0400
0200
0200
0100
0100
0080
0080
0040
0040
0000
0000
0000
ENDCHAR
STARTCHAR bracketright
ENCODING 93
SWIDTH 600 0
DWIDTH 12 0
BBX 12 20 0 -6
BITMAP
1F00
0300
0300
0300
0300
0300
0300
0300
0300
0300
0300
0300
0300
0300
0300
1F00
0000
0000
0000
0000
ENDCHAR
STARTCHAR asciicircum
ENCODING 94
SWIDTH 600 0
DWIDTH 12 0
BBX 12 20 0 -6
BITMAP
0400
0A00
1100
0000
0000
0000
0000
0000
0000
0000
0000
0000
0000
0000
0000
0000
0000
0000
0000
0000
ENDCHAR
STARTCHAR underscore
ENCODING 95
SWIDTH 600 0
DWIDTH 12 0
BBX 12 20 0 -6
BITMAP
0000
0000
0000
0000
0000
0000
0000
0000
0000
0000
0000
0000
0000
0000
0000
0000
0000
0000
0000
FFF0
ENDCHAR
STARTCHAR grave
ENCODING 96
SWIDTH 600 0
DWIDTH 12 0
BBX 12 20 0 -6
BITMAP
0000
0400
0800
0C00
0E00
0400
0000
0000
0000
0000
0000
0000
0000
0000
0000
0000
0000
0000
0000
0000
ENDCHAR
STARTCHAR a
ENCODING 97
SWIDTH 600 0
DWIDTH 12 0
BBX 12 20 0 -6
BITMAP
0000
0000
0000
0000
0000
1F00
0080
00C0
0FC0
30C0
60C0
60C0
31C0
0EE0
0000
0000
0000
0000
0000
0000
ENDCHAR
STARTCHAR b
ENCODING 98
SWIDTH 600 0
DWIDTH 12 0
BBX 12 20 0 -6
BITMAP
0000
0000
7000
3000
3000
3700
38C0
3060
3060
3060
3060
3060
38C0
7700
0000
0000
0000
0000
0000
0000
ENDCHAR
STARTCHAR c
ENCODING 99
SWIDTH 600 0
DWIDTH 12 0
BBX 12 20 0 -6
BITMAP
0000
0000
0000
0000
0000
1F80
30C0
6020
6000
6000
6000
6020
30C0
1F80
0000
0000
0000
0000
0000
0000
ENDCHAR
STARTCHAR d
ENCODING 100
SWIDTH 600 0
DWIDTH 12 0
BBX 12 20 0 -6
BITMAP
0000
0000
01C0
00C0
00C0
0EC0
31C0
60C0
60C0
60C0
60C0
60C0
21C0
1EE0
0000
0000
0000
0000
0000
0000
ENDCHAR
STARTCHAR e
ENCODING 101
SWIDTH 600 0
DWIDTH 12 0
BBX 12 20 0 -6
BITMAP
0000
0000
0000
0000
0000
0F00
30C0
6060
6060
7FE0
6000
6000
3020
0FC0
0000
0000
0000
0000
0000
0000
ENDCHAR
STARTCHAR f
ENCODING 102
SWIDTH 600 0
DWIDTH 12 0
BBX 12 20 0 -6
BITMAP
0000
0000
0380
04C0
0C00
0C00
3F00
0C00
0C00
0C00
0C00
0C00
0C00
1E00
0000
0000
0000
0000
0000
0000
ENDCHAR
STARTCHAR g
ENCODING 103
SWIDTH 600 0
DWIDTH 12 0
BBX 12 20 0 -6
BITMAP
0000
0000
0000
0000
0000
0EC0
1100
3180
3180
1F00
0800
0F80
00C0
3060
6060
30C0
1F80
0000
0000
0000
ENDCHAR
STARTCHAR h
ENCODING 104
SWIDTH 600 0
DWIDTH 12 0
BBX 12 20 0 -6
BITMAP
0000
0000
7000
3000
3000
3600
3980
30C0
30C0
30C0
30C0
30C0
30C0
79E0
0000
0000
0000
0000
0000
0000
ENDCHAR
STARTCHAR i
ENCODING 105
SWIDTH 600 0
DWIDTH 12 0
BBX 12 20 0 -6
BITMAP
0000
0000
0600
0600
0000
0E00
0600
0600
0600
0600
0600
0600
0600
0300
0000
0000
0000
0000
0000
0000
ENDCHAR
STARTCHAR j
ENCODING 106
SWIDTH 600 0
DWIDTH 12 0
BBX 12 20 0 -6
BITMAP
0000
0000
0180
0180
0000
0380
0180
0180
0180
0180
0180
0180
0180
1980
1980
0F00
0000
0000
0000
0000
ENDCHAR
STARTCHAR k
ENCODING 107
SWIDTH 600 0
DWIDTH 12 0
BBX 12 20 0 -6
BITMAP
0000
0000
7000
3000
3000
31C0
3100
3200
3400
3C00
3600
3300
3180
79E0
0000
0000
0000
0000
0000
0000
ENDCHAR
STARTCHAR l
ENCODING 108
SWIDTH 600 0
DWIDTH 12 0
BBX 12 20 0 -6
BITMAP
0000
0000
0E00
0600
0600
0600
0600
0600
0600
0600
0600
0600
0600
0300
0000
0000
0000
0000
0000
0000
ENDCHAR
STARTCHAR m
ENCODING 109
SWIDTH 600 0
DWIDTH 12 0
BBX 12 20 0 -6
BITMAP
0000
0000
0000
0000
0000
ECC0
7760
6660
6660
6660
6660
6660
6660
F6F0
0000
0000
0000
0000
0000
0000
ENDCHAR
STARTCHAR n
ENCODING 110
SWIDTH 600 0
DWIDTH 12 0
BBX 12 20 0 -6
BITMAP
0000
0000
0000
0000
0000
7700
3980
30C0
30C0
30C0
30C0
30C0
30C0
79E0
0000
0000
0000
0000
0000
0000
ENDCHAR
STARTCHAR o
ENCODING 111
SWIDTH 600 0
DWIDTH 12 0
BBX 12 20 0 -6
BITMAP
0000
0000
0000
0000
0000
0F00
30C0
6060
6060
6060
6060
6060
30C0
0F00
0000
0000
0000
0000
0000
0000
ENDCHAR
STARTCHAR p
ENCODING 112
SWIDTH 600 0
DWIDTH 12 0
BBX 12 20 0 -6
BITMAP
0000
0000
0000
0000
0000
7700
38C0
3060
3060
3060
3060
3060
38C0
3700
3000
3000
7800
0000
0000
0000
ENDCHAR
STARTCHAR q
ENCODING 113
SWIDTH 600 0
DWIDTH 12 0
BBX 12 20 0 -6
BITMAP
0000
0000
0000
0000
0000
0EC0
31C0
60C0
60C0
60C0
60C0
60C0
31C0
0EC0
00C0
00C0
01E0
0000
0000
0000
ENDCHAR
STARTCHAR r
ENCODING 114
SWIDTH 600 0
DWIDTH 12 0
BBX 12 20 0 -6
BITMAP
0000
0000
0000
0000
0000
7380
34C0
3800
3000
3000
3000
3000
3000
7800
0000
0000
0000
0000
0000
0000
ENDCHAR
STARTCHAR s
ENCODING 115
SWIDTH 600 0
DWIDTH 12 0
BBX 12 20 0 -6
BITMAP
0000
0000
0000
0000
0000
1F80
38C0
3000
3800
1F80
00E0
6060
70E0
3FC0
0000
0000
0000
0000
0000
0000
ENDCHAR
STARTCHAR t
ENCODING 116
SWIDTH 600 0
DWIDTH 12 0
BBX 12 20 0 -6
BITMAP
0000
0000
0200
0600
0600
1F80
0600
0600
0600
0600
0600
0600
0640
0380
0000
0000
0000
0000
0000
0000
ENDCHAR
STARTCHAR u
ENCODING 117
SWIDTH 600 0
DWIDTH 12 0
BBX 12 20 0 -6
BITMAP
0000
0000
0000
0000
0000
71C0
30C0
30C0
30C0
30C0
30C0
30C0
19C0
0EE0
0000
0000
0000
0000
0000
0000
ENDCHAR
STARTCHAR v
ENCODING 118
SWIDTH 600 0
DWIDTH 12 0
BBX 12 20 0 -6
BITMAP
0000
0000
0000
0000
0000
78E0
3040
1840
1880
0C80
0D00
0700
0600
0200
0000
0000
0000
0000
0000
0000
ENDCHAR
STARTCHAR w
ENCODING 119
SWIDTH 600 0
DWIDTH 12 0
BBX 12 20 0 -6
BITMAP
0000
0000
0000
0000
0000
F070
6020
6220
3340
3740
3740
1980
1980
1080
0000
0000
0000
0000
0000
0000
ENDCHAR
STARTCHAR x
ENCODING 120
SWIDTH 600 0
DWIDTH 12 0
BBX 12 20 0 -6
BITMAP
0000
0000
0000
0000
0000
78E0
3040
1880
0D00
0600
0700
0980
10C0
71E0
0000
0000
0000
0000
0000
0000
ENDCHAR
STARTCHAR y
ENCODING 121
SWIDTH 600 0
DWIDTH 12 0
BBX 12 20 0 -6
BITMAP
0000
0000
0000
0000
0000
78E0
3040
1840
1880
0C80
0D00
0700
0600
0200
0400
6400
3800
0000
0000
0000
ENDCHAR
STARTCHAR z
ENCODING 122
SWIDTH 600 0
DWIDTH 12 0
BBX 12 20 0 -6
BITMAP
0000
0000
0000
0000
0000
7FE0
40C0
0180
0300
0600
0C00
1800
3020
7FE0
0000
0000
0000
0000
0000
0000
ENDCHAR
STARTCHAR braceleft
ENCODING 123
SWIDTH 600 0
DWIDTH 12 0
BBX 12 20 0 -6
BITMAP
0180
0200
0600
0600
0600
0600
0600
0400
1800
0400
0600
0600
0600
0600
0600
0200
0180
0000
0000
0000
ENDCHAR
STARTCHAR bar
ENCODING 124
SWIDTH 600 0
DWIDTH 12 0
BBX 12 20 0 -6
BITMAP
0000
0400
0400
0400
0400
0400
0400
0400
0400
0400
0400
0400
0400
0400
0400
0400
0400
0000
0000
0000
ENDCHAR
STARTCHAR braceright
ENCODING 125
SWIDTH 600 0
DWIDTH 12 0
BBX 12 20 0 -6
BITMAP
1800
0400
0600
0600
0600
0600
0600
0200
0180
0200
0600
0600
0600
0600
0600
0400
1800
0000
0000
0000
ENDCHAR
STARTCHAR asciitilde
ENCODING 126
SWIDTH 600 0
DWIDTH 12 0
BBX 12 20 0 -6
BITMAP
0C80
1300
0000
0000
0000
0000
0000
0000
0000
0000
0000
0000
0000
0000
0000
0000
0000
0000
0000
0000
ENDCHAR
STARTCHAR uni007F
ENCODING 127
SWIDTH 600 0
DWIDTH 12 0
BBX 12 20 0 -6
BITMAP
0000
0000
0000
0600
0900
1080
2040
4020
4020
4020
4020
4020
4020
7FE0
0000
0000
0000
0000
0000
0000
ENDCHAR
STARTCHAR uni00A0
ENCODING 160
SWIDTH 600 0
DWIDTH 12 0
BBX 12 20 0 -6
BITMAP
0000
0000
0000
0000
0000
0000
0000
0000
0000
0000
0000
0000
0000
0000
0000
0000
0000
0000
0000
0000
ENDCHAR
STARTCHAR exclamdown
ENCODING 161
SWIDTH 600 0
DWIDTH 12 0
BBX 12 20 0 -6
BITMAP
0000
0200
0700
0200
0000
0200
0200
0200
0200
0700
0700
0700
0700
0200
0000
0000
0000
0000
0000
0000
ENDCHAR
STARTCHAR cent
ENCODING 162
SWIDTH 600 0
DWIDTH 12 0
BBX 12 20 0 -6
BITMAP
0000
0000
0000
0600
0600
1F80
30C0
6020
6000
6000
6000
6020
30C0
1F80
0600
0600
0000
0000
0000
0000
ENDCHAR
STARTCHAR sterling
ENCODING 163
SWIDTH 600 0
DWIDTH 12 0
BBX 12 20 0 -6
BITMAP
0000
0000
0780
0CC0
18C0
1800
1800
7E00
7E00
1800
0800
3C20
4BC0
31C0
0000
0000
0000
0000
0000
0000
ENDCHAR
STARTCHAR yen
ENCODING 165
SWIDTH 600 0
DWIDTH 12 0
BBX 12 20 0 -6
BITMAP
0000
0000
78E0
3040
1880
1880
0D00
0D00
3FC0
0600
3FC0
0600
0600
0F00
0000
0000
0000
0000
0000
0000
ENDCHAR
STARTCHAR section
ENCODING 167
SWIDTH 600 0
DWIDTH 12 0
BBX 12 20 0 -6
BITMAP
0000
0000
0FA0
1860
3020
3800
1F80
18C0
3060
3060
3060
18C0
0FC0
00E0
2060
30C0
2F80
0000
0000
0000
ENDCHAR
STARTCHAR ordfeminine
ENCODING 170
SWIDTH 600 0
DWIDTH 12 0
BBX 12 20 0 -6
BITMAP
1F00
0080
00C0
1FC0
30C0
30C0
31C0
1EE0
0000
3FE0
0000
0000
0000
0000
0000
0000
0000
0000
0000
0000
ENDCHAR
STARTCHAR guillemotleft
ENCODING 171
SWIDTH 600 0
DWIDTH 12 0
BBX 12 20 0 -6
BITMAP
0000
0000
0000
0220
0440
0880
1100
2200
4400
2200
1100
0880
0440
0220
0000
0000
0000
0000
0000
0000
ENDCHAR
STARTCHAR logicalnot
ENCODING 172
SWIDTH 600 0
DWIDTH 12 0
BBX 12 20 0 -6
BITMAP
0000
0000
0000
0000
0000
0000
7FE0
0020
0020
0020
0020
0020
0020
0020
0000
0000
0000
0000
0000
0000
ENDCHAR
STARTCHAR degree
ENCODING 176
SWIDTH 600 0
DWIDTH 12 0
BBX 12 20 0 -6
BITMAP
0000
0E00
1100
1100
1100
0E00
0000
0000
0000
0000
0000
0000
0000
0000
0000
0000
0000
0000
0000
0000
ENDCHAR
STARTCHAR plusminus
ENCODING 177
SWIDTH 600 0
DWIDTH 12 0
BBX 12 20 0 -6
BITMAP
0000
0000
0000
0400
0400
0400
7FC0
0400
0400
0400
0000
0000
7FC0
0000
0000
0000
0000
0000
0000
0000
ENDCHAR
STARTCHAR uni00B2
ENCODING 178
SWIDTH 600 0
DWIDTH 12 0
BBX 12 20 0 -6
BITMAP
0E00
1300
0300
0300
0200
0400
0F00
1F00
0000
0000
0000
0000
0000
0000
0000
0000
0000
0000
0000
0000
ENDCHAR
STARTCHAR mu
ENCODING 181
SWIDTH 600 0
DWIDTH 12 0
BBX 12 20 0 -6
BITMAP
0000
0000
0000
0000
0000
71C0
30C0
30C0
30C0
30C0
30C0
30C0
39C0
3EE0
3000
3000
3000
0000
0000
0000
ENDCHAR
STARTCHAR paragraph
ENCODING 182
SWIDTH 600 0
DWIDTH 12 0
BBX 12 20 0 -6
BITMAP
0000
0000
1FE0
3CC0
7CC0
7CC0
7CC0
3CC0
1CC0
0CC0
0CC0
0CC0
0CC0
0CC0
0000
0000
0000
0000
0000
0000
ENDCHAR
STARTCHAR periodcentered
ENCODING 183
SWIDTH 600 0
DWIDTH 12 0
BBX 12 20 0 -6
BITMAP
0000
0000
0000
0000
0000
0000
0000
0400
0E00
0400
0000
0000
0000
0000
0000
0000
0000
0000
0000
0000
ENDCHAR
STARTCHAR ordmasculine
ENCODING 186
SWIDTH 600 0
DWIDTH 12 0
BBX 12 20 0 -6
BITMAP
0700
18C0
3060
3060
3060
3060
18C0
0700
0000
3FE0
0000
0000
0000
0000
0000
0000
0000
0000
0000
0000
ENDCHAR
STARTCHAR guillemotright
ENCODING 187
SWIDTH 600 0
DWIDTH 12 0
BBX 12 20 0 -6
BITMAP
0000
0000
0000
4400
2200
1100
0880
0440
0220
0440
0880
1100
2200
4400
0000
0000
0000
0000
0000
0000
ENDCHAR
STARTCHAR onequarter
ENCODING 188
SWIDTH 600 0
DWIDTH 12 0
BBX 12 20 0 -6
BITMAP
0000
1000
3000
7040
3080
3100
32C0
7DC0
0AC0
14C0
24C0
47E0
00C0
00C0
0000
0000
0000
0000
0000
0000
ENDCHAR
STARTCHAR onehalf
ENCODING 189
SWIDTH 600 0
DWIDTH 12 0
BBX 12 20 0 -6
BITMAP
0000
1000
3000
7040
3080
3100
3200
7DC0
0A60
1060
2040
4080
01E0
03E0
0000
0000
0000
0000
0000
0000
ENDCHAR
STARTCHAR questiondown
ENCODING 191
SWIDTH 600 0
DWIDTH 12 0
BBX 12 20 0 -6
BITMAP
0000
0400
0E00
0400
0000
0400
0400
0400
0800
1800
3180
3180
3080
1F00
0000
0000
0000
0000
0000
0000
ENDCHAR
STARTCHAR Adieresis
ENCODING 196
SWIDTH 600 0
DWIDTH 12 0
BBX 12 20 0 -6
BITMAP
1980
1980
0000
0200
0600
0700
0B00
0980
0980
1180
1FC0
20C0
20C0
71E0
0000
0000
0000
0000
0000
0000
ENDCHAR
STARTCHAR Aring
ENCODING 197
SWIDTH 600 0
DWIDTH 12 0
BBX 12 20 0 -6
BITMAP
0600
0900
0900
0600
0600
0700
0B00
0980
0980
1180
1FC0
20C0
20C0
71E0
0000
0000
0000
0000
0000
0000
ENDCHAR
STARTCHAR AE
ENCODING 198
SWIDTH 600 0
DWIDTH 12 0
BBX 12 20 0 -6
BITMAP
0000
0000
03E0
0720
0B00
1300
3340
33C0
3F40
3300
3300
3300
3320
7BE0
0000
0000
0000
0000
0000
0000
ENDCHAR
STARTCHAR Ccedilla
ENCODING 199
SWIDTH 600 0
DWIDTH 12 0
BBX 12 20 0 -6
BITMAP
0000
0000
0F80
1060
3020
6000
6000
6000
6000
6000
6000
3020
1040
0F80
0200
0100
0700
0000
0000
0000
ENDCHAR
STARTCHAR Eacute
ENCODING 201
SWIDTH 600 0
DWIDTH 12 0
BBX 12 20 0 -6
BITMAP
0100
0300
0400
7FE0
3020
3000
3000
3080
3F80
3080
3000
3020
3060
7FE0
0000
0000
0000
0000
0000
0000
ENDCHAR
STARTCHAR Ntilde
ENCODING 209
SWIDTH 600 0
DWIDTH 12 0
BBX 12 20 0 -6
BITMAP
0C80
1300
0000
60E0
2040
3040
3840
3C40
2E40
2740
23C0
21C0
20C0
70C0
0000
0000
0000
0000
0000
0000
ENDCHAR
STARTCHAR Odieresis
ENCODING 214
SWIDTH 600 0
DWIDTH 12 0
BBX 12 20 0 -6
BITMAP
1980
1980
0000
0F00
1080
30C0
6060
6060
6060
6060
6060
30C0
1080
0F00
0000
0000
0000
0000
0000
0000
ENDCHAR
STARTCHAR Udieresis
ENCODING 220
SWIDTH 600 0
DWIDTH 12 0
BBX 12 20 0 -6
BITMAP
1980
1980
0000
78E0
3040
3040
3040
3040
3040
3040
3040
3040
1080
0F00
0000
0000
0000
0000
0000
0000
ENDCHAR
STARTCHAR germandbls
ENCODING 223
SWIDTH 600 0
DWIDTH 12 0
BBX 12 20 0 -6
BITMAP
0000
0000
0F80
18C0
3060
3060
30C0
3780
30C0
3060
3060
3060
38C0
3780
3000
3000
7800
0000
0000
0000
ENDCHAR
STARTCHAR agrave
ENCODING 224
SWIDTH 600 0
DWIDTH 12 0
BBX 12 20 0 -6
BITMAP
0000
0800
0C00
0200
0000
1F00
0080
00C0
0FC0
30C0
60C0
60C0
31C0
0EE0
0000
0000
0000
0000
0000
0000
ENDCHAR
STARTCHAR aacute
ENCODING 225
SWIDTH 600 0
DWIDTH 12 0
BBX 12 20 0 -6
BITMAP
0000
0100
0300
0400
0000
1F00
0080
00C0
0FC0
30C0
60C0
60C0
31C0
0EE0
0000
0000
0000
0000
0000
0000
ENDCHAR
STARTCHAR acircumflex
ENCODING 226
SWIDTH 600 0
DWIDTH 12 0
BBX 12 20 0 -6
BITMAP
0000
0400
0A00
1100
0000
1F00
0080
00C0
0FC0
30C0
60C0
60C0
31C0
0EE0
0000
0000
0000
0000
0000
0000
ENDCHAR
STARTCHAR adieresis
ENCODING 228
SWIDTH 600 0
DWIDTH 12 0
BBX 12 20 0 -6
BITMAP
0000
0000
1980
1980
0000
1F00
0080
00C0
0FC0
30C0
60C0
60C0
31C0
0EE0
0000
0000
0000
0000
0000
0000
ENDCHAR
STARTCHAR aring
ENCODING 229
SWIDTH 600 0
DWIDTH 12 0
BBX 12 20 0 -6
BITMAP
0600
0900
0900
0600
0000
1F00
0080
00C0
0FC0
30C0
60C0
60C0
31C0
0EE0
0000
0000
0000
0000
0000
0000
ENDCHAR
STARTCHAR ae
ENCODING 230
SWIDTH 600 0
DWIDTH 12 0
BBX 12 20 0 -6
BITMAP
0000
0000
0000
0000
0000
79C0
0660
0660
3E60
67E0
6600
6600
6620
39C0
0000
0000
0000
0000
0000
0000
ENDCHAR
STARTCHAR ccedilla
ENCODING 231
SWIDTH 600 0
DWIDTH 12 0
BBX 12 20 0 -6
BITMAP
0000
0000
0000
0000
0000
1F80
30C0
6020
6000
6000
6000
6020
30C0
1F80
0200
0100
0700
0000
0000
0000
ENDCHAR
STARTCHAR egrave
ENCODING 232
SWIDTH 600 0
DWIDTH 12 0
BBX 12 20 0 -6
BITMAP
0000
0800
0C00
0200
0000
0F00
30C0
6060
6060
7FE0
6000
6000
3020
0FC0
0000
0000
0000
0000
0000
0000
ENDCHAR
STARTCHAR eacute
ENCODING 233
SWIDTH 600 0
DWIDTH 12 0
BBX 12 20 0 -6
BITMAP
0000
0100
0300
0400
0000
0F00
30C0
6060
6060
7FE0
6000
6000
3020
0FC0
0000
0000
0000
0000
0000
0000
ENDCHAR
STARTCHAR ecircumflex
ENCODING 234
SWIDTH 600 0
DWIDTH 12 0
BBX 12 20 0 -6
BITMAP
0000
0400
0A00
1100
0000
0F00
30C0
6060
6060
7FE0
6000
6000
3020
0FC0
0000
0000
0000
0000
0000
0000
ENDCHAR
STARTCHAR edieresis
ENCODING 235
SWIDTH 600 0
DWIDTH 12 0
BBX 12 20 0 -6
BITMAP
0000
0000
1980
1980
0000
0F00
30C0
6060
6060
7FE0
6000
6000
3020
0FC0
0000
0000
0000
0000
0000
0000
ENDCHAR
STARTCHAR igrave
ENCODING 236
SWIDTH 600 0
DWIDTH 12 0
BBX 12 20 0 -6
BITMAP
0000
0800
0C00
0200
0000
0E00
0600
0600
0600
0600
0600
0600
0600
0300
0000
0000
0000
0000
0000
0000
ENDCHAR
STARTCHAR iacute
ENCODING 237
SWIDTH 600 0
DWIDTH 12 0
BBX 12 20 0 -6
BITMAP
0000
0100
0300
0400
0000
0E00
0600
0600
0600
0600
0600
0600
0600
0300
0000
0000
0000
0000
0000
0000
ENDCHAR
STARTCHAR icircumflex
ENCODING 238
SWIDTH 600 0
DWIDTH 12 0
BBX 12 20 0 -6
BITMAP
0000
0400
0A00
1100
0000
0E00
0600
0600
0600
0600
0600
0600
0600
0300
0000
0000
0000
0000
0000
0000
ENDCHAR
STARTCHAR idieresis
ENCODING 239
SWIDTH 600 0
DWIDTH 12 0
BBX 12 20 0 -6
BITMAP
0000
0000
1980
1980
0000
0E00
0600
0600
0600
0600
0600
0600
0600
0300
0000
0000
0000
0000
0000
0000
ENDCHAR
STARTCHAR ntilde
ENCODING 241
SWIDTH 600 0
DWIDTH 12 0
BBX 12 20 0 -6
BITMAP
0000
0C80
1300
0000
0000
7700
3980
30C0
30C0
30C0
30C0
30C0
30C0
79E0
0000
0000
0000
0000
0000
0000
ENDCHAR
STARTCHAR ograve
ENCODING 242
SWIDTH 600 0
DWIDTH 12 0
BBX 12 20 0 -6
BITMAP
0000
0800
0C00
0200
0000
0F00
30C0
6060
6060
6060
6060
6060
30C0
0F00
0000
0000
0000
0000
0000
0000
ENDCHAR
STARTCHAR oacute
ENCODING 243
SWIDTH 600 0
DWIDTH 12 0
BBX 12 20 0 -6
BITMAP
0000
0100
0300
0400
0000
0F00
30C0
6060
6060
6060
6060
6060
30C0
0F00
0000
0000
0000
0000
0000
0000
ENDCHAR
STARTCHAR ocircumflex
ENCODING 244
SWIDTH 600 0
DWIDTH 12 0
BBX 12 20 0 -6
BITMAP
0000
0400
0A00
1100
0000
0F00
30C0
6060
6060
6060
6060
6060
30C0
0F00
0000
0000
0000
0000
0000
0000
ENDCHAR
STARTCHAR odieresis
ENCODING 246
SWIDTH 600 0
DWIDTH 12 0
BBX 12 20 0 -6
BITMAP
0000
0000
1980
1980
0000
0F00
30C0
6060
6060
6060
6060
6060
30C0
0F00
0000
0000
0000
0000
0000
0000
ENDCHAR
STARTCHAR divide
ENCODING 247
SWIDTH 600 0
DWIDTH 12 0
BBX 12 20 0 -6
BITMAP
0000
0000
0000
0000
0400
0E00
0400
0000
7FC0
0000
0400
0E00
0400
0000
0000
0000
0000
0000
0000
0000
ENDCHAR
STARTCHAR ugrave
ENCODING 249
SWIDTH 600 0
DWIDTH 12 0
BBX 12 20 0 -6
BITMAP
0000
0800
0C00
0200
0000
71C0
30C0
30C0
30C0
30C0
30C0
30C0
19C0
0EE0
0000
0000
0000
0000
0000
0000
ENDCHAR
STARTCHAR uacute
ENCODING 250
SWIDTH 600 0
DWIDTH 12 0
BBX 12 20 0 -6
BITMAP
0000
0100
0300
0400
0000
71C0
30C0
30C0
30C0
30C0
30C0
30C0
19C0
0EE0
0000
0000
0000
0000
0000
0000
ENDCHAR
STARTCHAR ucircumflex
ENCODING 251
SWIDTH 600 0
DWIDTH 12 0
BBX 12 20 0 -6
BITMAP
0000
0400
0A00
1100
0000
71C0
30C0
30C0
30C0
30C0
30C0
30C0
19C0
0EE0
0000
0000
0000
0000
0000
0000
ENDCHAR
STARTCHAR udieresis
ENCODING 252
SWIDTH 600 0
DWIDTH 12 0
BBX 12 20 0 -6
BITMAP
0000
0000
1980
1980
0000
71C0
30C0
30C0
30C0
30C0
30C0
30C0
19C0
0EE0
0000
0000
0000
0000
0000
0000
ENDCHAR
STARTCHAR ydieresis
ENCODING 255
SWIDTH 600 0
DWIDTH 12 0
BBX 12 20 0 -6
BITMAP
0000
0000
1980
1980
0000
78E0
3040
1840
1880
0C80
0D00
0700
0600
0200
0400
6400
3800
0000
0000
0000
ENDCHAR
STARTCHAR florin
ENCODING 402
SWIDTH 600 0
DWIDTH 12 0
BBX 12 20 0 -6
BITMAP
0000
0000
01C0
0360
0620
0600
0600
0600
0600
3F80
0C00
0C00
0C00
0C00
8C00
D800
7000
0000
0000
0000
ENDCHAR
STARTCHAR Gamma
ENCODING 915
SWIDTH 600 0
DWIDTH 12 0
BBX 12 20 0 -6
BITMAP
0000
0000
FFC0
6060
6020
6000
6000
6000
6000
6000
6000
6000
6000
F000
0000
0000
0000
0000
0000
0000
ENDCHAR
STARTCHAR Theta
ENCODING 920
SWIDTH 600 0
DWIDTH 12 0
BBX 12 20 0 -6
BITMAP
0000
0000
0F00
1080
30C0
6060
6060
6F60
6F60
6060
6060
30C0
1080
0F00
0000
0000
0000
0000
0000
0000
ENDCHAR
STARTCHAR Sigma
ENCODING 931
SWIDTH 600 0
DWIDTH 12 0
BBX 12 20 0 -6
BITMAP
0000
0000
7FC0
3020
1800
0C00
0600
0300
0200
0400
0800
1020
3FE0
7FC0
0000
0000
0000
0000
0000
0000
ENDCHAR
STARTCHAR Phi
ENCODING 934
SWIDTH 600 0
DWIDTH 12 0
BBX 12 20 0 -6
BITMAP
0000
0000
0F00
0600
0F00
36C0
6660
6660
6660
6660
36C0
0F00
0600
0F00
0000
0000
0000
0000
0000
0000
ENDCHAR
STARTCHAR uni03A9
ENCODING 937
SWIDTH 600 0
DWIDTH 12 0
BBX 12 20 0 -6
BITMAP
0000
0000
0F00
1980
30C0
6060
6060
6060
6060
30C0
1080
4920
79E0
39C0
0000
0000
0000
0000
0000
0000
ENDCHAR
STARTCHAR alpha
ENCODING 945
SWIDTH 600 0
DWIDTH 12 0
BBX 12 20 0 -6
BITMAP
0000
0000
0000
0000
0000
0000
3CE0
6780
C300
C300
C300
6780
3CE0
0000
0000
0000
0000
0000
0000
0000
ENDCHAR
STARTCHAR delta
ENCODING 948
SWIDTH 600 0
DWIDTH 12 0
BBX 12 20 0 -6
BITMAP
0000
0000
0F80
30C0
6000
3000
0F00
30C0
6060
6060
6060
6060
30C0
0F00
0000
0000
0000
0000
0000
0000
ENDCHAR
STARTCHAR epsilon
ENCODING 949
SWIDTH 600 0
DWIDTH 12 0
BBX 12 20 0 -6
BITMAP
0000
0000
0000
0000
0000
0FC0
1800
3000
3000
3FC0
3000
3000
1800
0FC0
0000
0000
0000
0000
0000
0000
ENDCHAR
STARTCHAR pi
ENCODING 960
SWIDTH 600 0
DWIDTH 12 0
BBX 12 20 0 -6
BITMAP
0000
0000
0000
0000
0000
3FE0
7FE0
4880
0880
1980
1980
1980
1980
0880
0000
0000
0000
0000
0000
0000
ENDCHAR
STARTCHAR sigma
ENCODING 963
SWIDTH 600 0
DWIDTH 12 0
BBX 12 20 0 -6
BITMAP
0000
0000
0000
0000
0000
0FE0
3300
6180
6180
6180
6180
6180
3300
0C00
0000
0000
0000
0000
0000
0000
ENDCHAR
STARTCHAR tau
ENCODING 964
SWIDTH 600 0
DWIDTH 12 0
BBX 12 20 0 -6
BITMAP
0000
0000
0000
0000
0000
3FE0
7FE0
4200
0200
0600
0600
0600
0600
0200
0000
0000
0000
0000
0000
0000
ENDCHAR
STARTCHAR phi
ENCODING 966
SWIDTH 600 0
DWIDTH 12 0
BBX 12 20 0 -6
BITMAP
0000
0000
0000
0600
0600
0F00
36C0
6660
6660
6660
6660
6660
36C0
0F00
0600
0600
0000
0000
0000
0000
ENDCHAR
STARTCHAR bullet
ENCODING 8226
SWIDTH 600 0
DWIDTH 12 0
BBX 12 20 0 -6
BITMAP
0000
0000
0000
0000
0000
0600
0F00
1F80
1F80
1F80
0F00
0600
0000
0000
0000
0000
0000
0000
0000
0000
ENDCHAR
STARTCHAR exclamdbl
ENCODING 8252
SWIDTH 600 0
DWIDTH 12 0
BBX 12 20 0 -6
BITMAP
0000
0000
1080
39C0
39C0
39C0
39C0
1080
1080
1080
1080
0000
1080
39C0
1080
0000
0000
0000
0000
0000
ENDCHAR
STARTCHAR uni207F
ENCODING 8319
SWIDTH 600 0
DWIDTH 12 0
BBX 12 20 0 -6
BITMAP
7600
3900
3180
3180
3180
3180
3180
7BC0
0000
0000
0000
0000
0000
0000
0000
0000
0000
0000
0000
0000
ENDCHAR
STARTCHAR peseta
ENCODING 8359
SWIDTH 600 0
DWIDTH 12 0
BBX 12 20 0 -6
BITMAP
0000
0000
7F00
30C0
3060
3060
3060
30C0
3F00
3000
3040
30C0
31E0
78C0
00C0
00C0
0060
0000
0000
0000
ENDCHAR
STARTCHAR arrowleft
ENCODING 8592
SWIDTH 600 0
DWIDTH 12 0
BBX 12 20 0 -6
BITMAP
0000
0000
0000
0000
0000
0000
1000
3000
7FE0
3000
1000
0000
0000
0000
0000
0000
0000
0000
0000
0000
ENDCHAR
STARTCHAR arrowup
ENCODING 8593
SWIDTH 600 0
DWIDTH 12 0
BBX 12 20 0 -6
BITMAP
0000
0400
0E00
1F00
0400
0400
0400
0400
0400
0400
0400
0400
0400
0400
0400
0000
0000
0000
0000
0000
ENDCHAR
STARTCHAR arrowright
ENCODING 8594
SWIDTH 600 0
DWIDTH 12 0
BBX 12 20 0 -6
BITMAP
0000
0000
0000
0000
0000
0000
0080
00C0
7FE0
00C0
0080
0000
0000
0000
0000
0000
0000
0000
0000
0000
ENDCHAR
STARTCHAR arrowdown
ENCODING 8595
SWIDTH 600 0
DWIDTH 12 0
BBX 12 20 0 -6
BITMAP
0000
0400
0400
0400
0400
0400
0400
0400
0400
0400
0400
0400
1F00
0E00
0400
0000
0000
0000
0000
0000
ENDCHAR
STARTCHAR arrowboth
ENCODING 8596
SWIDTH 600 0
DWIDTH 12 0
BBX 12 20 0 -6
BITMAP
0000
0000
0000
0000
0000
0000
1080
30C0
7FE0
30C0
1080
0000
0000
0000
0000
0000
0000
0000
0000
0000
ENDCHAR
STARTCHAR arrowupdn
ENCODING 8597
SWIDTH 600 0
DWIDTH 12 0
BBX 12 20 0 -6
BITMAP
0000
0000
0400
0E00
1F00
0400
0400
0400
0400
0400
0400
0400
0400
1F00
0E00
0400
0000
0000
0000
0000
ENDCHAR
STARTCHAR arrowupdnbse
ENCODING 8616
SWIDTH 600 0
DWIDTH 12 0
BBX 12 20 0 -6
BITMAP
0000
0400
0E00
1F00
0400
0400
0400
0400
0400
0400
0400
0400
1F00
0E00
0400
0000
7FC0
0000
0000
0000
ENDCHAR
STARTCHAR uni2219
ENCODING 8729
SWIDTH 600 0
DWIDTH 12 0
BBX 12 20 0 -6
BITMAP
0000
0000
0000
0000
0000
0000
0E00
1F00
1F00
1F00
0E00
0000
0000
0000
0000
0000
0000
0000
0000
0000
ENDCHAR
STARTCHAR radical
ENCODING 8730
SWIDTH 600 0
DWIDTH 12 0
BBX 12 20 0 -6
BITMAP
0000
0000
0020
0020
0040
0040
0080
0080
7900
1900
1A00
0E00
0C00
0400
0000
0000
0000
0000
0000
0000
ENDCHAR
STARTCHAR infinity
ENCODING 8734
SWIDTH 600 0
DWIDTH 12 0
BBX 12 20 0 -6
BITMAP
0000
0000
0000
0000
0000
0000
3180
6EC0
C460
C460
C460
6EC0
3180
0000
0000
0000
0000
0000
0000
0000
ENDCHAR
STARTCHAR orthogonal
ENCODING 8735
SWIDTH 600 0
DWIDTH 12 0
BBX 12 20 0 -6
BITMAP
0000
0000
0000
0000
0000
0000
4000
4000
4000
4000
4000
4000
4000
7FE0
0000
0000
0000
0000
0000
0000
ENDCHAR
STARTCHAR intersection
ENCODING 8745
SWIDTH 600 0
DWIDTH 12 0
BBX 12 20 0 -6
BITMAP
0000
0000
0000
0000
0F00
1080
2040
4020
4020
4020
4020
4020
4020
4020
0000
0000
0000
0000
0000
0000
ENDCHAR
STARTCHAR approxequal
ENCODING 8776
SWIDTH 600 0
DWIDTH 12 0
BBX 12 20 0 -6
BITMAP
0000
0000
0000
0000
1820
2420
4240
4180
1820
2420
4240
4180
0000
0000
0000
0000
0000
0000
0000
0000
ENDCHAR
STARTCHAR equivalence
ENCODING 8801
SWIDTH 600 0
DWIDTH 12 0
BBX 12 20 0 -6
BITMAP
0000
0000
0000
0000
0000
7FC0
0000
0000
7FC0
0000
0000
7FC0
0000
0000
0000
0000
0000
0000
0000
0000
ENDCHAR
STARTCHAR lessequal
ENCODING 8804
SWIDTH 600 0
DWIDTH 12 0
BBX 12 20 0 -6
BITMAP
0000
0000
0000
01C0
0600
1800
6000
1800
0600
01C0
0000
0000
7FC0
0000
0000
0000
0000
0000
0000
0000
ENDCHAR
STARTCHAR greaterequal
ENCODING 8805
SWIDTH 600 0
DWIDTH 12 0
BBX 12 20 0 -6
BITMAP
0000
0000
0000
7000
0C00
0300
00C0
0300
0C00
7000
0000
0000
7FC0
0000
0000
0000
0000
0000
0000
0000
ENDCHAR
STARTCHAR house
ENCODING 8962
SWIDTH 600 0
DWIDTH 12 0
BBX 12 20 0 -6
BITMAP
0000
0000
0000
0600
0900
1080
2040
4020
4020
4020
4020
4020
4020
7FE0
0000
0000
0000
0000
0000
0000
ENDCHAR
STARTCHAR revlogicalnot
ENCODING 8976
SWIDTH 600 0
DWIDTH 12 0
BBX 12 20 0 -6
BITMAP
0000
0000
0000
0000
0000
0000
7FE0
4000
4000
4000
4000
4000
4000
4000
0000
0000
0000
0000
0000
0000
ENDCHAR
STARTCHAR integraltp
ENCODING 8992
SWIDTH 600 0
DWIDTH 12 0
BBX 12 20 0 -6
BITMAP
0000
0000
01C0
0160
0160
0100
0300
0300
0300
0300
0300
0700
0700
0600
0600
0600
0600
0600
0600
0600
ENDCHAR
STARTCHAR integralbt
ENCODING 8993
SWIDTH 600 0
DWIDTH 12 0
BBX 12 20 0 -6
BITMAP
0C00
0C00
0C00
0C00
0C00
0C00
1C00
1C00
1800
1800
1800
1800
1800
1800
1000
D000
D000
7000
0000
0000
ENDCHAR
STARTCHAR SF100000
ENCODING 9472
SWIDTH 600 0
DWIDTH 12 0
BBX 12 20 0 -6
BITMAP
0000
0000
0000
0000
0000
0000
0000
0000
0000
FFF0
0000
0000
0000
0000
0000
0000
0000
0000
0000
0000
ENDCHAR
STARTCHAR SF110000
ENCODING 9474
SWIDTH 600 0
DWIDTH 12 0
BBX 12 20 0 -6
BITMAP
0200
0200
0200
0200
0200
0200
0200
0200
0200
0200
0200
0200
0200
0200
0200
0200
0200
0200
0200
0200
ENDCHAR
STARTCHAR SF010000
ENCODING 9484
SWIDTH 600 0
DWIDTH 12 0
BBX 12 20 0 -6
BITMAP
0000
0000
0000
0000
0000
0000
0000
0000
0000
03F0
0200
0200
0200
0200
0200
0200
0200
0200
0200
0200
ENDCHAR
STARTCHAR SF030000
ENCODING 9488
SWIDTH 600 0
DWIDTH 12 0
BBX 12 20 0 -6
BITMAP
0000
0000
0000
0000
0000
0000
0000
0000
0000
FE00
0200
0200
0200
0200
0200
0200
0200
0200
0200
0200
ENDCHAR
STARTCHAR SF020000
ENCODING 9492
SWIDTH 600 0
DWIDTH 12 0
BBX 12 20 0 -6
BITMAP
0200
0200
0200
0200
0200
0200
0200
0200
0200
03F0
0000
0000
0000
0000
0000
0000
0000
0000
0000
0000
ENDCHAR
STARTCHAR SF040000
ENCODING 9496
SWIDTH 600 0
DWIDTH 12 0
BBX 12 20 0 -6
BITMAP
0200
0200
0200
0200
0200
0200
0200
0200
0200
FE00
0000
0000
0000
0000
0000
0000
0000
0000
0000
0000
ENDCHAR
STARTCHAR SF080000
ENCODING 9500
SWIDTH 600 0
DWIDTH 12 0
BBX 12 20 0 -6
BITMAP
0200
0200
0200
0200
0200
0200
0200
0200
0200
03F0
0200
0200
0200
0200
0200
0200
0200
0200
0200
0200
ENDCHAR
STARTCHAR SF090000
ENCODING 9508
SWIDTH 600 0
DWIDTH 12 0
BBX 12 20 0 -6
BITMAP
0200
0200
0200
0200
0200
0200
0200
0200
0200
FE00
0200
0200
0200
0200
0200
0200
0200
0200
0200
0200
ENDCHAR
STARTCHAR SF060000
ENCODING 9516
SWIDTH 600 0
DWIDTH 12 0
BBX 12 20 0 -6
BITMAP
0000
0000
0000
0000
0000
0000
0000
0000
0000
FFF0
0200
0200
0200
0200
0200
0200
0200
0200
0200
0200
ENDCHAR
STARTCHAR SF070000
ENCODING 9524
SWIDTH 600 0
DWIDTH 12 0
BBX 12 20 0 -6
BITMAP
0200
0200
0200
0200
0200
0200
0200
0200
0200
FFF0
0000
0000
0000
0000
0000
0000
0000
0000
0000
0000
ENDCHAR
STARTCHAR SF050000
ENCODING 9532
SWIDTH 600 0
DWIDTH 12 0
BBX 12 20 0 -6
BITMAP
0200
0200
0200
0200
0200
0200
0200
0200
0200
FFF0
0200
0200
0200
0200
0200
0200
0200
0200
0200
0200
ENDCHAR
STARTCHAR SF430000
ENCODING 9552
SWIDTH 600 0
DWIDTH 12 0
BBX 12 20 0 -6
BITMAP
0000
0000
0000
0000
0000
0000
0000
FFF0
0000
0000
0000
FFF0
0000
0000
0000
0000
0000
0000
0000
0000
ENDCHAR
STARTCHAR SF240000
ENCODING 9553
SWIDTH 600 0
DWIDTH 12 0
BBX 12 20 0 -6
BITMAP
0880
0880
0880
0880
0880
0880
0880
0880
0880
0880
0880
0880
0880
0880
0880
0880
0880
0880
0880
0880
ENDCHAR
STARTCHAR SF510000
ENCODING 9554
SWIDTH 600 0
DWIDTH 12 0
BBX 12 20 0 -6
BITMAP
0000
0000
0000
0000
0000
0000
0000
03F0
0200
0200
0200
03F0
0200
0200
0200
0200
0200
0200
0200
0200
ENDCHAR
STARTCHAR SF520000
ENCODING 9555
SWIDTH 600 0
DWIDTH 12 0
BBX 12 20 0 -6
BITMAP
0000
0000
0000
0000
0000
0000
0000
0000
0000
0FF0
0880
0880
0880
0880
0880
0880
0880
0880
0880
0880
ENDCHAR
STARTCHAR SF390000
ENCODING 9556
SWIDTH 600 0
DWIDTH 12 0
BBX 12 20 0 -6
BITMAP
0000
0000
0000
0000
0000
0000
0000
0FF0
0800
0800
0800
08F0
0880
0880
0880
0880
0880
0880
0880
0880
ENDCHAR
STARTCHAR SF220000
ENCODING 9557
SWIDTH 600 0
DWIDTH 12 0
BBX 12 20 0 -6
BITMAP
0000
0000
0000
0000
0000
0000
0000
FE00
0200
0200
0200
FE00
0200
0200
0200
0200
0200
0200
0200
0200
ENDCHAR
STARTCHAR SF210000
ENCODING 9558
SWIDTH 600 0
DWIDTH 12 0
BBX 12 20 0 -6
BITMAP
0000
0000
0000
0000
0000
0000
0000
0000
0000
FF80
0880
0880
0880
0880
0880
0880
0880
0880
0880
0880
ENDCHAR
STARTCHAR SF250000
ENCODING 9559
SWIDTH 600 0
DWIDTH 12 0
BBX 12 20 0 -6
BITMAP
0000
0000
0000
0000
0000
0000
0000
FF80
0080
0080
0080
F880
0880
0880
0880
0880
0880
0880
0880
0880
ENDCHAR
STARTCHAR SF500000
ENCODING 9560
SWIDTH 600 0
DWIDTH 12 0
BBX 12 20 0 -6
BITMAP
0200
0200
0200
0200
0200
0200
0200
03F0
0200
0200
0200
03F0
0000
0000
0000
0000
0000
0000
0000
0000
ENDCHAR
STARTCHAR SF490000
ENCODING 9561
SWIDTH 600 0
DWIDTH 12 0
BBX 12 20 0 -6
BITMAP
0880
0880
0880
0880
0880
0880
0880
0880
0880
0FF0
0000
0000
0000
0000
0000
0000
0000
0000
0000
0000
ENDCHAR
STARTCHAR SF380000
ENCODING 9562
SWIDTH 600 0
DWIDTH 12 0
BBX 12 20 0 -6
BITMAP
0880
0880
0880
0880
0880
0880
0880
08F0
0800
0800
0800
0FF0
0000
0000
0000
0000
0000
0000
0000
0000
ENDCHAR
STARTCHAR SF280000
ENCODING 9563
SWIDTH 600 0
DWIDTH 12 0
BBX 12 20 0 -6
BITMAP
0200
0200
0200
0200
0200
0200
0200
FE00
0200
0200
0200
FE00
0000
0000
0000
0000
0000
0000
0000
0000
ENDCHAR
STARTCHAR SF270000
ENCODING 9564
SWIDTH 600 0
DWIDTH 12 0
BBX 12 20 0 -6
BITMAP
0880
0880
0880
0880
0880
0880
0880
0880
0880
FF80
0000
0000
0000
0000
0000
0000
0000
0000
0000
0000
ENDCHAR
STARTCHAR SF260000
ENCODING 9565
SWIDTH 600 0
DWIDTH 12 0
BBX 12 20 0 -6
BITMAP
0880
0880
0880
0880
0880
0880
0880
F880
0080
0080
0080
FF80
0000
0000
0000
0000
0000
0000
0000
0000
ENDCHAR
STARTCHAR SF360000
ENCODING 9566
SWIDTH 600 0
DWIDTH 12 0
BBX 12 20 0 -6
BITMAP
0200
0200
0200
0200
0200
0200
0200
03F0
0200
0200
0200
03F0
0200
0200
0200
0200
0200
0200
0200
0200
ENDCHAR
STARTCHAR SF370000
ENCODING 9567
SWIDTH 600 0
DWIDTH 12 0
BBX 12 20 0 -6
BITMAP
0880
0880
0880
0880
0880
0880
0880
0880
0880
08F0
0880
0880
0880
0880
0880
0880
0880
0880
0880
0880
ENDCHAR
STARTCHAR SF420000
ENCODING 9568
SWIDTH 600 0
DWIDTH 12 0
BBX 12 20 0 -6
BITMAP
0880
0880
0880
0880
0880
0880
0880
08F0
0800
0800
0800
08F0
0880
0880
0880
0880
0880
0880
0880
0880
ENDCHAR
STARTCHAR SF190000
ENCODING 9569
SWIDTH 600 0
DWIDTH 12 0
BBX 12 20 0 -6
BITMAP
0200
0200
0200
0200
0200
0200
0200
FE00
0200
0200
0200
FE00
0200
0200
0200
0200
0200
0200
0200
0200
ENDCHAR
STARTCHAR SF200000
ENCODING 9570
SWIDTH 600 0
DWIDTH 12 0
BBX 12 20 0 -6
BITMAP
0880
0880
0880
0880
0880
0880
0880
0880
0880
F880
0880
0880
0880
0880
0880
0880
0880
0880
0880
0880
ENDCHAR
STARTCHAR SF230000
ENCODING 9571
SWIDTH 600 0
DWIDTH 12 0
BBX 12 20 0 -6
BITMAP
0880
0880
0880
0880
0880
0880
0880
F880
0080
0080
0080
F880
0880
0880
0880
0880
0880
0880
0880
0880
ENDCHAR
STARTCHAR SF470000
ENCODING 9572
SWIDTH 600 0
DWIDTH 12 0
BBX 12 20 0 -6
BITMAP
0000
0000
0000
0000
0000
0000
0000
FFF0
0000
0000
0000
FFF0
0200
0200
0200
0200
0200
0200
0200
0200
ENDCHAR
STARTCHAR SF480000
ENCODING 9573
SWIDTH 600 0
DWIDTH 12 0
BBX 12 20 0 -6
BITMAP
0000
0000
0000
0000
0000
0000
0000
0000
0000
FFF0
0880
0880
0880
0880
0880
0880
0880
0880
0880
0880
ENDCHAR
STARTCHAR SF410000
ENCODING 9574
SWIDTH 600 0
DWIDTH 12 0
BBX 12 20 0 -6
BITMAP
0000
0000
0000
0000
0000
0000
0000
FFF0
0000
0000
0000
F8F0
0880
0880
0880
0880
0880
0880
0880
0880
ENDCHAR
STARTCHAR SF450000
ENCODING 9575
SWIDTH 600 0
DWIDTH 12 0
BBX 12 20 0 -6
BITMAP
0200
0200
0200
0200
0200
0200
0200
FFF0
0000
0000
0000
FFF0
0000
0000
0000
0000
0000
0000
0000
0000
ENDCHAR
STARTCHAR SF460000
ENCODING 9576
SWIDTH 600 0
DWIDTH 12 0
BBX 12 20 0 -6
BITMAP
0880
0880
0880
0880
0880
0880
0880
0880
0880
FFF0
0000
0000
0000
0000
0000
0000
0000
0000
0000
0000
ENDCHAR
STARTCHAR SF400000
ENCODING 9577
SWIDTH 600 0
DWIDTH 12 0
BBX 12 20 0 -6
BITMAP
0880
0880
0880
0880
0880
0880
0880
F8F0
0000
0000
0000
FFF0
0000
0000
0000
0000
0000
0000
0000
0000
ENDCHAR
STARTCHAR SF540000
ENCODING 9578
SWIDTH 600 0
DWIDTH 12 0
BBX 12 20 0 -6
BITMAP
0200
0200
0200
0200
0200
0200
0200
FFF0
0200
0200
0200
FFF0
0200
0200
0200
0200
0200
0200
0200
0200
ENDCHAR
STARTCHAR SF530000
ENCODING 9579
SWIDTH 600 0
DWIDTH 12 0
BBX 12 20 0 -6
BITMAP
0880
0880
0880
0880
0880
0880
0880
0880
0880
FFF0
0880
0880
0880
0880
0880
0880
0880
0880
0880
0880
ENDCHAR
STARTCHAR SF440000
ENCODING 9580
SWIDTH 600 0
DWIDTH 12 0
BBX 12 20 0 -6
BITMAP
0880
0880
0880
0880
0880
0880
0880
F8F0
0000
0000
0000
F8F0
0880
0880
0880
0880
0880
0880
0880
0880
ENDCHAR
STARTCHAR upblock
ENCODING 9600
SWIDTH 600 0
DWIDTH 12 0
BBX 12 20 0 -6
BITMAP
FFF0
FFF0
FFF0
FFF0
FFF0
FFF0
FFF0
FFF0
FFF0
FFF0
0000
0000
0000
0000
0000
0000
0000
0000
0000
0000
ENDCHAR
STARTCHAR dnblock
ENCODING 9604
SWIDTH 600 0
DWIDTH 12 0
BBX 12 20 0 -6
BITMAP
0000
0000
0000
0000
0000
0000
0000
0000
0000
0000
FFF0
FFF0
FFF0
FFF0
FFF0
FFF0
FFF0
FFF0
FFF0
FFF0
ENDCHAR
STARTCHAR block
ENCODING 9608
SWIDTH 600 0
DWIDTH 12 0
BBX 12 20 0 -6
BITMAP
FFF0
FFF0
FFF0
FFF0
FFF0
FFF0
FFF0
FFF0
FFF0
FFF0
FFF0
FFF0
FFF0
FFF0
FFF0
FFF0
FFF0
FFF0
FFF0
FFF0
ENDCHAR
STARTCHAR lfblock
ENCODING 9612
SWIDTH 600 0
DWIDTH 12 0
BBX 12 20 0 -6
BITMAP
FC00
FC00
FC00
FC00
FC00
FC00
FC00
FC00
FC00
FC00
FC00
FC00
FC00
FC00
FC00
FC00
FC00
FC00
FC00
FC00
ENDCHAR
STARTCHAR rtblock
ENCODING 9616
SWIDTH 600 0
DWIDTH 12 0
BBX 12 20 0 -6
BITMAP
03F0
03F0
03F0
03F0
03F0
03F0
03F0
03F0
03F0
03F0
03F0
03F0
03F0
03F0
03F0
03F0
03F0
03F0
03F0
03F0
ENDCHAR
STARTCHAR ltshade
ENCODING 9617
SWIDTH 600 0
DWIDTH 12 0
BBX 12 20 0 -6
BITMAP
5550
AAA0
5550
AAA0
5550
AAA0
5550
AAA0
5550
AAA0
5550
AAA0
5550
AAA0
5550
AAA0
5550
AAA0
5550
AAA0
ENDCHAR
STARTCHAR shade
ENCODING 9618
SWIDTH 600 0
DWIDTH 12 0
BBX 12 20 0 -6
BITMAP
FFF0
5550
FFF0
AAA0
FFF0
5550
FFF0
AAA0
FFF0
5550
FFF0
AAA0
FFF0
5550
FFF0
AAA0
FFF0
5550
FFF0
AAA0
ENDCHAR
STARTCHAR dkshade
ENCODING 9619
SWIDTH 600 0
DWIDTH 12 0
BBX 12 20 0 -6
BITMAP
DDD0
FFF0
7770
FFF0
DDD0
FFF0
7770
FFF0
DDD0
FFF0
7770
FFF0
DDD0
FFF0
7770
FFF0
DDD0
FFF0
7770
FFF0
ENDCHAR
STARTCHAR filledbox
ENCODING 9632
SWIDTH 600 0
DWIDTH 12 0
BBX 12 20 0 -6
BITMAP
0000
0000
0000
0000
0F00
0F00
0F00
0F00
0F00
0F00
0F00
0F00
0F00
0F00
0000
0000
0000
0000
0000
0000
ENDCHAR
STARTCHAR filledrect
ENCODING 9644
SWIDTH 600 0
DWIDTH 12 0
BBX 12 20 0 -6
BITMAP
0000
0000
0000
0000
0000
0000
0000
0000
0000
0000
7FE0
7FE0
7FE0
7FE0
0000
0000
0000
0000
0000
0000
ENDCHAR
STARTCHAR triagup
ENCODING 9650
SWIDTH 600 0
DWIDTH 12 0
BBX 12 20 0 -6
BITMAP
0000
0000
0400
0400
0E00
0E00
1F00
1F00
3F80
3F80
7FC0
7FC0
FFE0
FFE0
0000
0000
0000
0000
0000
0000
ENDCHAR
STARTCHAR triagrt
ENCODING 9658
SWIDTH 600 0
DWIDTH 12 0
BBX 12 20 0 -6
BITMAP
0000
0000
1000
1800
1C00
1E00
1F00
1F80
1FC0
1F80
1F00
1E00
1C00
1800
1000
0000
0000
0000
0000
0000
ENDCHAR
STARTCHAR triagdn
ENCODING 9660
SWIDTH 600 0
DWIDTH 12 0
BBX 12 20 0 -6
BITMAP
0000
0000
FFE0
FFE0
7FC0
7FC0
3F80
3F80
1F00
1F00
0E00
0E00
0400
0400
0000
0000
0000
0000
0000
0000
ENDCHAR
STARTCHAR triaglf
ENCODING 9668
SWIDTH 600 0
DWIDTH 12 0
BBX 12 20 0 -6
BITMAP
0000
0000
0080
0180
0380
0780
0F80
1F80
3F80
1F80
0F80
0780
0380
0180
0080
0000
0000
0000
0000
0000
ENDCHAR
STARTCHAR circle
ENCODING 9675
SWIDTH 600 0
DWIDTH 12 0
BBX 12 20 0 -6
BITMAP
0000
0000
0F00
1080
2040
4020
4020
4020
4020
4020
4020
2040
1080
0F00
0000
0000
0000
0000
0000
0000
ENDCHAR
STARTCHAR invbullet
ENCODING 9688
SWIDTH 600 0
DWIDTH 12 0
BBX 12 20 0 -6
BITMAP
FFF0
FFF0
FFF0
FFF0
FFF0
F9F0
F0F0
E070
E070
E070
F0F0
F9F0
FFF0
FFF0
FFF0
FFF0
FFF0
FFF0
FFF0
FFF0
ENDCHAR
STARTCHAR invcircle
ENCODING 9689
SWIDTH 600 0
DWIDTH 12 0
BBX 12 20 0 -6
BITMAP
FFF0
FFF0
F0F0
EF70
DFB0
BFD0
BFD0
BFD0
BFD0
BFD0
BFD0
DFB0
EF70
F0F0
FFF0
FFF0
FFF0
FFF0
FFF0
FFF0
ENDCHAR
STARTCHAR smileface
ENCODING 9786
SWIDTH 600 0
DWIDTH 12 0
BBX 12 20 0 -6
BITMAP
0000
0000
0F00
1080
2040
50A0
B9D0
9090
8010
9090
4F20
2040
1080
0F00
0000
0000
0000
0000
0000
0000
ENDCHAR
STARTCHAR invsmileface
ENCODING 9787
SWIDTH 600 0
DWIDTH 12 0
BBX 12 20 0 -6
BITMAP
0000
0000
0F00
1F80
3FC0
6F60
C630
EF70
FFF0
EF70
70E0
3FC0
1F80
0F00
0000
0000
0000
0000
0000
0000
ENDCHAR
STARTCHAR sun
ENCODING 9788
SWIDTH 600 0
DWIDTH 12 0
BBX 12 20 0 -6
BITMAP
0000
0000
0400
0400
4440
2E80
1100
2080
2080
E0E0
2080
2080
1100
2E80
4440
0400
0400
0000
0000
0000
ENDCHAR
STARTCHAR female
ENCODING 9792
SWIDTH 600 0
DWIDTH 12 0
BBX 12 20 0 -6
BITMAP
0000
0000
1F00
2080
4040
4040
4040
4040
4040
2080
1F00
0400
0400
0400
1F00
0400
0400
0000
0000
0000
ENDCHAR
STARTCHAR male
ENCODING 9794
SWIDTH 600 0
DWIDTH 12 0
BBX 12 20 0 -6
BITMAP
0000
0000
03E0
0060
00A0
0120
0220
0400
1F00
2080
4040
4040
4040
4040
2080
1F00
0000
0000
0000
0000
ENDCHAR
STARTCHAR spade
ENCODING 9824
SWIDTH 600 0
DWIDTH 12 0
BBX 12 20 0 -6
BITMAP
0000
0000
0400
0400
0E00
1F00
3F80
7FC0
FFE0
FFE0
FFE0
64C0
0E00
1F00
0000
0000
0000
0000
0000
0000
ENDCHAR
STARTCHAR club
ENCODING 9827
SWIDTH 600 0
DWIDTH 12 0
BBX 12 20 0 -6
BITMAP
0000
0000
0E00
1F00
1F00
0E00
64C0
F5E0
FFE0
F5E0
64C0
0400
0E00
1F00
0000
0000
0000
0000
0000
0000
ENDCHAR
STARTCHAR heart
ENCODING 9829
SWIDTH 600 0
DWIDTH 12 0
BBX 12 20 0 -6
BITMAP
0000
0000
3180
7BC0
FFE0
FFE0
FFE0
FFE0
7FC0
3F80
1F00
0E00
0400
0400
0000
0000
0000
0000
0000
0000
ENDCHAR
STARTCHAR diamond
ENCODING 9830
SWIDTH 600 0
DWIDTH 12 0
BBX 12 20 0 -6
BITMAP
0000
0000
0400
0E00
1F00
3F80
7FC0
FFE0
FFE0
7FC0
3F80
1F00
0E00
0400
0000
0000
0000
0000
0000
0000
ENDCHAR
STARTCHAR musicalnote
ENCODING 9834
SWIDTH 600 0
DWIDTH 12 0
BBX 12 20 0 -6
BITMAP
0000
0000
0FE0
0C60
0C60
0FE0
0C00
0C00
0C00
0C00
0C00
3C00
7800
7000
0000
0000
0000
0000
0000
0000
ENDCHAR
STARTCHAR musicalnotedbl
ENCODING 9835
SWIDTH 600 0
DWIDTH 12 0
BBX 12 20 0 -6
BITMAP
0000
0000
1FF0
1830
1830
1FF0
1830
1830
1830
1830
1830
18F0
79E0
F1C0
E000
0000
0000
0000
0000
0000
ENDCHAR
STARTCHAR uni3044
ENCODING 12356
SWIDTH 600 0
DWIDTH 12 0
BBX 12 20 0 -6
BITMAP
0000
0000
0000
0000
0000
0000
0000
0000
0000
0000
0000
0000
0000
0000
0000
0000
0000
0000
0000
0000
ENDCHAR
STARTCHAR uni3046
ENCODING 12358
SWIDTH 600 0
DWIDTH 12 0
BBX 12 20 0 -6
BITMAP
0000
0000
0000
0000
0000
0000
0000
0000
0000
0000
0000
0000
0000
0000
0000
0000
0000
0000
0000
0000
ENDCHAR
STARTCHAR uni304B
ENCODING 12363
SWIDTH 600 0
DWIDTH 12 0
BBX 12 20 0 -6
BITMAP
0000
0000
0000
0000
0000
0000
0000
0000
0000
0000
0000
0000
0000
0000
0000
0000
0000
0000
0000
0000
ENDCHAR
STARTCHAR uni3057
ENCODING 12375
SWIDTH 600 0
DWIDTH 12 0
BBX 12 20 0 -6
BITMAP
0000
0000
0000
0000
0000
0000
0000
0000
0000
0000
0000
0000
0000
0000
0000
0000
0000
0000
0000
0000
ENDCHAR
STARTCHAR uni306E
ENCODING 12398
SWIDTH 600 0
DWIDTH 12 0
BBX 12 20 0 -6
BITMAP
0000
0000
0000
0000
0000
0000
0000
0000
0000
0000
0000
0000
0000
0000
0000
0000
0000
0000
0000
0000
ENDCHAR
STARTCHAR uni3093
ENCODING 12435
SWIDTH 600 0
DWIDTH 12 0
BBX 12 20 0 -6
BITMAP
0000
0000
0000
0000
0000
0000
0000
0000
0000
0000
0000
0000
0000
0000
0000
0000
0000
0000
0000
0000
ENDCHAR
STARTCHAR .notdef
ENCODING -1
SWIDTH 600 0
DWIDTH 12 0
BBX 11 12 1 0
BITMAP
FFE0
8020
8020
8020
8020
8020
8020
8020
8020
8020
8020
FFE0
ENDCHAR
ENDFONT
