STARTFONT 2.1
FONT Pixtile-8px
SIZE 8 75 75
FONTBOUNDINGBOX 11 8 0 0
STARTPROPERTIES 3
PIXEL_SIZE 8
FONT_ASCENT 8
FONT_DESCENT 0
ENDPROPERTIES
CHARS 385
STARTCHAR uni0020
ENCODING 32
SWIDTH 500 0
DWIDTH 4 0
BBX 1 1 0 0
BITMAP
00
ENDCHAR
STARTCHAR uni0021
ENCODING 33
SWIDTH 500 0
DWIDTH 4 0
BBX 3 7 0 0
BITMAP
40
A0
A0
A0
40
00
40
ENDCHAR
STARTCHAR uni0022
ENCODING 34
SWIDTH 500 0
DWIDTH 4 0
BBX 3 5 0 2
BITMAP
A0
40
00
A0
40
ENDCHAR
STARTCHAR uni0023
ENCODING 35
SWIDTH 1000 0
DWIDTH 8 0
BBX 7 7 0 0
BITMAP
AA
44
FE
44
FE
44
AA
ENDCHAR
STARTCHAR uni0024
ENCODING 36
SWIDTH 875 0
DWIDTH 7 0
BBX 6 7 0 0
BITMAP
10
38
50
38
94
78
10
ENDCHAR
STARTCHAR uni0025
ENCODING 37
SWIDTH 1000 0
DWIDTH 8 0
BBX 7 7 0 0
BITMAP
4A
A4
48
10
24
4A
A4
ENDCHAR
STARTCHAR uni0026
ENCODING 38
SWIDTH 875 0
DWIDTH 7 0
BBX 6 7 0 0
BITMAP
60
90
50
20
54
88
74
ENDCHAR
STARTCHAR uni0027
ENCODING 39
SWIDTH 500 0
DWIDTH 4 0
BBX 3 2 0 5
BITMAP
A0
40
ENDCHAR
STARTCHAR uni0028
ENCODING 40
SWIDTH 875 0
DWIDTH 7 0
BBX 4 7 1 0
BITMAP
50
20
40
80
40
20
50
ENDCHAR
STARTCHAR uni0029
ENCODING 41
SWIDTH 875 0
DWIDTH 7 0
BBX 4 7 1 0
BITMAP
A0
40
20
10
20
40
A0
ENDCHAR
STARTCHAR uni002A
ENCODING 42
SWIDTH 500 0
DWIDTH 4 0
BBX 3 3 0 4
BITMAP
A0
40
A0
ENDCHAR
STARTCHAR uni002B
ENCODING 43
SWIDTH 1000 0
DWIDTH 8 0
BBX 7 7 0 0
BITMAP
28
10
92
7C
92
10
28
ENDCHAR
STARTCHAR uni002C
ENCODING 44
SWIDTH 500 0
DWIDTH 4 0
BBX 3 3 0 0
BITMAP
20
40
A0
ENDCHAR
STARTCHAR uni002D
ENCODING 45
SWIDTH 1000 0
DWIDTH 8 0
BBX 7 3 0 2
BITMAP
82
7C
82
ENDCHAR
STARTCHAR uni002E
ENCODING 46
SWIDTH 500 0
DWIDTH 4 0
BBX 3 3 0 0
BITMAP
40
A0
40
ENDCHAR
STARTCHAR uni002F
ENCODING 47
SWIDTH 1000 0
DWIDTH 8 0
BBX 7 7 0 0
BITMAP
0A
04
08
10
20
40
A0
ENDCHAR
STARTCHAR uni0030
ENCODING 48
SWIDTH 750 0
DWIDTH 6 0
BBX 5 7 0 0
BITMAP
70
88
88
88
88
88
70
ENDCHAR
STARTCHAR uni0031
ENCODING 49
SWIDTH 500 0
DWIDTH 4 0
BBX 3 7 0 0
BITMAP
A0
40
40
40
40
40
A0
ENDCHAR
STARTCHAR uni0032
ENCODING 50
SWIDTH 750 0
DWIDTH 6 0
BBX 5 7 0 0
BITMAP
60
90
10
20
40
88
F0
ENDCHAR
STARTCHAR uni0033
ENCODING 51
SWIDTH 750 0
DWIDTH 6 0
BBX 5 7 0 0
BITMAP
30
48
08
10
08
88
70
ENDCHAR
STARTCHAR uni0034
ENCODING 52
SWIDTH 875 0
DWIDTH 7 0
BBX 6 7 0 0
BITMAP
10
30
54
F8
14
10
28
ENDCHAR
STARTCHAR uni0035
ENCODING 53
SWIDTH 1000 0
DWIDTH 8 0
BBX 7 7 0 0
BITMAP
06
08
10
20
10
90
60
ENDCHAR
STARTCHAR uni0036
ENCODING 54
SWIDTH 750 0
DWIDTH 6 0
BBX 5 7 0 0
BITMAP
08
10
20
60
90
90
60
ENDCHAR
STARTCHAR uni0037
ENCODING 55
SWIDTH 875 0
DWIDTH 7 0
BBX 6 7 0 0
BITMAP
7C
04
08
10
20
40
A0
ENDCHAR
STARTCHAR uni0038
ENCODING 56
SWIDTH 625 0
DWIDTH 5 0
BBX 4 7 0 0
BITMAP
60
90
90
60
90
90
60
ENDCHAR
STARTCHAR uni0039
ENCODING 57
SWIDTH 750 0
DWIDTH 6 0
BBX 5 7 0 0
BITMAP
30
48
48
30
20
40
80
ENDCHAR
STARTCHAR uni003A
ENCODING 58
SWIDTH 500 0
DWIDTH 4 0
BBX 3 7 0 0
BITMAP
40
A0
40
00
40
A0
40
ENDCHAR
STARTCHAR uni003B
ENCODING 59
SWIDTH 500 0
DWIDTH 4 0
BBX 3 7 0 0
BITMAP
40
A0
40
00
20
40
A0
ENDCHAR
STARTCHAR uni003C
ENCODING 60
SWIDTH 500 0
DWIDTH 4 0
BBX 3 5 0 1
BITMAP
20
40
80
40
20
ENDCHAR
STARTCHAR uni003D
ENCODING 61
SWIDTH 1000 0
DWIDTH 8 0
BBX 7 5 0 1
BITMAP
82
7C
00
7C
82
ENDCHAR
STARTCHAR uni003E
ENCODING 62
SWIDTH 500 0
DWIDTH 4 0
BBX 3 5 0 1
BITMAP
80
40
20
40
80
ENDCHAR
STARTCHAR uni003F
ENCODING 63
SWIDTH 625 0
DWIDTH 5 0
BBX 4 7 0 0
BITMAP
60
90
10
20
40
00
40
ENDCHAR
STARTCHAR uni0040
ENCODING 64
SWIDTH 1000 0
DWIDTH 8 0
BBX 7 7 0 0
BITMAP
38
44
9A
A4
98
42
3C
ENDCHAR
STARTCHAR uni0041
ENCODING 65
SWIDTH 1000 0
DWIDTH 8 0
BBX 7 7 0 0
BITMAP
10
10
28
28
54
44
AA
ENDCHAR
STARTCHAR uni0042
ENCODING 66
SWIDTH 750 0
DWIDTH 6 0
BBX 5 7 0 0
BITMAP
B0
48
48
B0
48
48
B0
ENDCHAR
STARTCHAR uni0043
ENCODING 67
SWIDTH 875 0
DWIDTH 7 0
BBX 6 7 0 0
BITMAP
30
48
80
80
80
44
38
ENDCHAR
STARTCHAR uni0044
ENCODING 68
SWIDTH 875 0
DWIDTH 7 0
BBX 6 7 0 0
BITMAP
B0
48
44
A4
44
48
B0
ENDCHAR
STARTCHAR uni0045
ENCODING 69
SWIDTH 875 0
DWIDTH 7 0
BBX 6 7 0 0
BITMAP
B8
44
50
A0
50
44
B8
ENDCHAR
STARTCHAR uni0046
ENCODING 70
SWIDTH 875 0
DWIDTH 7 0
BBX 6 7 0 0
BITMAP
B8
44
50
A0
50
40
A0
ENDCHAR
STARTCHAR uni0047
ENCODING 71
SWIDTH 875 0
DWIDTH 7 0
BBX 6 7 0 0
BITMAP
30
48
80
80
94
48
38
ENDCHAR
STARTCHAR uni0048
ENCODING 72
SWIDTH 1000 0
DWIDTH 8 0
BBX 7 7 0 0
BITMAP
AA
44
54
AA
54
44
AA
ENDCHAR
STARTCHAR uni0049
ENCODING 73
SWIDTH 500 0
DWIDTH 4 0
BBX 3 7 0 0
BITMAP
A0
40
40
A0
40
40
A0
ENDCHAR
STARTCHAR uni004A
ENCODING 74
SWIDTH 750 0
DWIDTH 6 0
BBX 5 7 0 0
BITMAP
28
10
10
28
10
90
68
ENDCHAR
STARTCHAR uni004B
ENCODING 75
SWIDTH 875 0
DWIDTH 7 0
BBX 6 7 0 0
BITMAP
A4
48
50
A0
50
48
A4
ENDCHAR
STARTCHAR uni004C
ENCODING 76
SWIDTH 875 0
DWIDTH 7 0
BBX 6 7 0 0
BITMAP
A0
40
40
A0
40
44
B8
ENDCHAR
STARTCHAR uni004D
ENCODING 77
SWIDTH 1500 0
DWIDTH 12 0
BBX 11 7 0 0
BITMAP
A0A0
5140
4A40
A4A0
4040
4040
A0A0
ENDCHAR
STARTCHAR uni004E
ENCODING 78
SWIDTH 1125 0
DWIDTH 9 0
BBX 8 7 0 0
BITMAP
A5
52
4A
A5
42
42
A5
ENDCHAR
STARTCHAR uni004F
ENCODING 79
SWIDTH 875 0
DWIDTH 7 0
BBX 6 7 0 0
BITMAP
30
48
84
84
84
48
30
ENDCHAR
STARTCHAR uni0050
ENCODING 80
SWIDTH 750 0
DWIDTH 6 0
BBX 5 7 0 0
BITMAP
B0
48
48
B0
40
40
A0
ENDCHAR
STARTCHAR uni0051
ENCODING 81
SWIDTH 750 0
DWIDTH 6 0
BBX 5 7 0 0
BITMAP
68
90
90
68
10
10
28
ENDCHAR
STARTCHAR uni0052
ENCODING 82
SWIDTH 1000 0
DWIDTH 8 0
BBX 7 7 0 0
BITMAP
B0
48
48
B0
48
44
AA
ENDCHAR
STARTCHAR uni0053
ENCODING 83
SWIDTH 750 0
DWIDTH 6 0
BBX 5 7 0 0
BITMAP
70
88
80
70
08
88
70
ENDCHAR
STARTCHAR uni0054
ENCODING 84
SWIDTH 1000 0
DWIDTH 8 0
BBX 7 7 0 0
BITMAP
7C
92
10
28
10
10
28
ENDCHAR
STARTCHAR uni0055
ENCODING 85
SWIDTH 1000 0
DWIDTH 8 0
BBX 7 7 0 0
BITMAP
AA
44
44
44
44
44
38
ENDCHAR
STARTCHAR uni0056
ENCODING 86
SWIDTH 1000 0
DWIDTH 8 0
BBX 7 7 0 0
BITMAP
AA
44
44
28
28
10
10
ENDCHAR
STARTCHAR uni0057
ENCODING 87
SWIDTH 1500 0
DWIDTH 12 0
BBX 11 7 0 0
BITMAP
AAA0
4440
4440
2A80
2A80
1100
1100
ENDCHAR
STARTCHAR uni0058
ENCODING 88
SWIDTH 1000 0
DWIDTH 8 0
BBX 7 7 0 0
BITMAP
AA
44
28
10
28
44
AA
ENDCHAR
STARTCHAR uni0059
ENCODING 89
SWIDTH 1000 0
DWIDTH 8 0
BBX 7 7 0 0
BITMAP
AA
44
28
10
10
10
28
ENDCHAR
STARTCHAR uni005A
ENCODING 90
SWIDTH 875 0
DWIDTH 7 0
BBX 6 7 0 0
BITMAP
F8
08
10
20
40
84
F8
ENDCHAR
STARTCHAR uni005B
ENCODING 91
SWIDTH 625 0
DWIDTH 5 0
BBX 2 7 1 0
BITMAP
40
80
80
80
80
80
40
ENDCHAR
STARTCHAR uni005C
ENCODING 92
SWIDTH 1000 0
DWIDTH 8 0
BBX 7 7 0 0
BITMAP
A0
40
20
10
08
04
0A
ENDCHAR
STARTCHAR uni005D
ENCODING 93
SWIDTH 625 0
DWIDTH 5 0
BBX 2 7 1 0
BITMAP
80
40
40
40
40
40
80
ENDCHAR
STARTCHAR uni005E
ENCODING 94
SWIDTH 750 0
DWIDTH 6 0
BBX 5 3 0 4
BITMAP
20
50
88
ENDCHAR
STARTCHAR uni005F
ENCODING 95
SWIDTH 1000 0
DWIDTH 8 0
BBX 7 3 0 0
BITMAP
82
7C
82
ENDCHAR
STARTCHAR uni0060
ENCODING 96
SWIDTH 375 0
DWIDTH 3 0
BBX 2 2 0 5
BITMAP
80
40
ENDCHAR
STARTCHAR uni0061
ENCODING 97
SWIDTH 1000 0
DWIDTH 8 0
BBX 7 7 0 0
BITMAP
10
10
28
28
54
44
AA
ENDCHAR
STARTCHAR uni0062
ENCODING 98
SWIDTH 750 0
DWIDTH 6 0
BBX 5 7 0 0
BITMAP
B0
48
48
B0
48
48
B0
ENDCHAR
STARTCHAR uni0063
ENCODING 99
SWIDTH 875 0
DWIDTH 7 0
BBX 6 7 0 0
BITMAP
30
48
80
80
80
44
38
ENDCHAR
STARTCHAR uni0064
ENCODING 100
SWIDTH 875 0
DWIDTH 7 0
BBX 6 7 0 0
BITMAP
B0
48
44
A4
44
48
B0
ENDCHAR
STARTCHAR uni0065
ENCODING 101
SWIDTH 875 0
DWIDTH 7 0
BBX 6 7 0 0
BITMAP
B8
44
50
A0
50
44
B8
ENDCHAR
STARTCHAR uni0066
ENCODING 102
SWIDTH 875 0
DWIDTH 7 0
BBX 6 7 0 0
BITMAP
B8
44
50
A0
50
40
A0
ENDCHAR
STARTCHAR uni0067
ENCODING 103
SWIDTH 875 0
DWIDTH 7 0
BBX 6 7 0 0
BITMAP
30
48
80
80
94
48
38
ENDCHAR
STARTCHAR uni0068
ENCODING 104
SWIDTH 1000 0
DWIDTH 8 0
BBX 7 7 0 0
BITMAP
AA
44
54
AA
54
44
AA
ENDCHAR
STARTCHAR uni0069
ENCODING 105
SWIDTH 500 0
DWIDTH 4 0
BBX 3 7 0 0
BITMAP
A0
40
40
A0
40
40
A0
ENDCHAR
STARTCHAR uni006A
ENCODING 106
SWIDTH 750 0
DWIDTH 6 0
BBX 5 7 0 0
BITMAP
28
10
10
28
10
90
68
ENDCHAR
STARTCHAR uni006B
ENCODING 107
SWIDTH 875 0
DWIDTH 7 0
BBX 6 7 0 0
BITMAP
A4
48
50
A0
50
48
A4
ENDCHAR
STARTCHAR uni006C
ENCODING 108
SWIDTH 875 0
DWIDTH 7 0
BBX 6 7 0 0
BITMAP
A0
40
40
A0
40
44
B8
ENDCHAR
STARTCHAR uni006D
ENCODING 109
SWIDTH 1500 0
DWIDTH 12 0
BBX 11 7 0 0
BITMAP
A0A0
5140
4A40
A4A0
4040
4040
A0A0
ENDCHAR
STARTCHAR uni006E
ENCODING 110
SWIDTH 1125 0
DWIDTH 9 0
BBX 8 7 0 0
BITMAP
A5
52
4A
A5
42
42
A5
ENDCHAR
STARTCHAR uni006F
ENCODING 111
SWIDTH 875 0
DWIDTH 7 0
BBX 6 7 0 0
BITMAP
30
48
84
84
84
48
30
ENDCHAR
STARTCHAR uni0070
ENCODING 112
SWIDTH 750 0
DWIDTH 6 0
BBX 5 7 0 0
BITMAP
B0
48
48
B0
40
40
A0
ENDCHAR
STARTCHAR uni0071
ENCODING 113
SWIDTH 750 0
DWIDTH 6 0
BBX 5 7 0 0
BITMAP
68
90
90
68
10
10
28
ENDCHAR
STARTCHAR uni0072
ENCODING 114
SWIDTH 1000 0
DWIDTH 8 0
BBX 7 7 0 0
BITMAP
B0
48
48
B0
48
44
AA
ENDCHAR
STARTCHAR uni0073
ENCODING 115
SWIDTH 750 0
DWIDTH 6 0
BBX 5 7 0 0
BITMAP
70
88
80
70
08
88
70
ENDCHAR
STARTCHAR uni0074
ENCODING 116
SWIDTH 1000 0
DWIDTH 8 0
BBX 7 7 0 0
BITMAP
7C
92
10
28
10
10
28
ENDCHAR
STARTCHAR uni0075
ENCODING 117
SWIDTH 1000 0
DWIDTH 8 0
BBX 7 7 0 0
BITMAP
AA
44
44
44
44
44
38
ENDCHAR
STARTCHAR uni0076
ENCODING 118
SWIDTH 1000 0
DWIDTH 8 0
BBX 7 7 0 0
BITMAP
AA
44
44
28
28
10
10
ENDCHAR
STARTCHAR uni0077
ENCODING 119
SWIDTH 1500 0
DWIDTH 12 0
BBX 11 7 0 0
BITMAP
AAA0
4440
4440
2A80
2A80
1100
1100
ENDCHAR
STARTCHAR uni0078
ENCODING 120
SWIDTH 1000 0
DWIDTH 8 0
BBX 7 7 0 0
BITMAP
AA
44
28
10
28
44
AA
ENDCHAR
STARTCHAR uni0079
ENCODING 121
SWIDTH 1000 0
DWIDTH 8 0
BBX 7 7 0 0
BITMAP
AA
44
28
10
10
10
28
ENDCHAR
STARTCHAR uni007A
ENCODING 122
SWIDTH 875 0
DWIDTH 7 0
BBX 6 7 0 0
BITMAP
F8
08
10
20
40
84
F8
ENDCHAR
STARTCHAR uni007B
ENCODING 123
SWIDTH 750 0
DWIDTH 6 0
BBX 3 7 1 0
BITMAP
20
40
40
A0
40
40
20
ENDCHAR
STARTCHAR uni007C
ENCODING 124
SWIDTH 375 0
DWIDTH 3 0
BBX 2 8 0 0
BITMAP
40
80
40
80
40
80
40
80
ENDCHAR
STARTCHAR uni007D
ENCODING 125
SWIDTH 750 0
DWIDTH 6 0
BBX 3 7 1 0
BITMAP
80
40
40
A0
40
40
80
ENDCHAR
STARTCHAR uni007E
ENCODING 126
SWIDTH 1000 0
DWIDTH 8 0
BBX 7 3 0 2
BITMAP
60
92
0C
ENDCHAR
STARTCHAR uni00A0
ENCODING 160
SWIDTH 500 0
DWIDTH 4 0
BBX 1 1 0 0
BITMAP
00
ENDCHAR
STARTCHAR uni00A1
ENCODING 161
SWIDTH 500 0
DWIDTH 4 0
BBX 3 7 0 0
BITMAP
40
00
40
A0
A0
A0
40
ENDCHAR
STARTCHAR uni00A2
ENCODING 162
SWIDTH 875 0
DWIDTH 7 0
BBX 6 7 0 0
BITMAP
20
70
A8
A0
A4
78
20
ENDCHAR
STARTCHAR uni00A3
ENCODING 163
SWIDTH 875 0
DWIDTH 7 0
BBX 6 7 0 0
BITMAP
30
48
40
B0
40
44
B8
ENDCHAR
STARTCHAR uni00A4
ENCODING 164
SWIDTH 750 0
DWIDTH 6 0
BBX 5 5 0 1
BITMAP
A8
50
88
50
A8
ENDCHAR
STARTCHAR uni00A5
ENCODING 165
SWIDTH 1000 0
DWIDTH 8 0
BBX 7 7 0 0
BITMAP
AA
44
28
10
7C
10
28
ENDCHAR
STARTCHAR uni00A6
ENCODING 166
SWIDTH 375 0
DWIDTH 3 0
BBX 2 8 0 0
BITMAP
40
80
40
00
00
80
40
80
ENDCHAR
STARTCHAR uni00A7
ENCODING 167
SWIDTH 875 0
DWIDTH 7 0
BBX 6 7 0 0
BITMAP
38
44
30
48
30
88
70
ENDCHAR
STARTCHAR uni00A9
ENCODING 169
SWIDTH 1000 0
DWIDTH 8 0
BBX 7 7 0 0
BITMAP
38
44
BA
A2
BA
44
38
ENDCHAR
STARTCHAR uni00AB
ENCODING 171
SWIDTH 875 0
DWIDTH 7 0
BBX 6 5 0 0
BITMAP
24
48
90
48
24
ENDCHAR
STARTCHAR uni00AC
ENCODING 172
SWIDTH 1000 0
DWIDTH 8 0
BBX 7 4 0 1
BITMAP
80
7C
84
0A
ENDCHAR
STARTCHAR uni00AD
ENCODING 173
SWIDTH 1000 0
DWIDTH 8 0
BBX 7 3 0 2
BITMAP
82
7C
82
ENDCHAR
STARTCHAR uni00AE
ENCODING 174
SWIDTH 1000 0
DWIDTH 8 0
BBX 7 7 0 0
BITMAP
38
44
B2
BA
AA
44
38
ENDCHAR
STARTCHAR uni00B0
ENCODING 176
SWIDTH 750 0
DWIDTH 6 0
BBX 5 5 0 2
BITMAP
20
50
88
50
20
ENDCHAR
STARTCHAR uni00B4
ENCODING 180
SWIDTH 375 0
DWIDTH 3 0
BBX 2 2 0 5
BITMAP
40
80
ENDCHAR
STARTCHAR uni00B5
ENCODING 181
SWIDTH 1000 0
DWIDTH 8 0
BBX 7 7 0 0
BITMAP
AA
44
44
44
78
40
A0
ENDCHAR
STARTCHAR uni00B6
ENCODING 182
SWIDTH 875 0
DWIDTH 7 0
BBX 6 7 0 0
BITMAP
74
E8
E8
68
28
28
44
ENDCHAR
STARTCHAR uni00B7
ENCODING 183
SWIDTH 500 0
DWIDTH 4 0
BBX 3 3 0 2
BITMAP
40
A0
40
ENDCHAR
STARTCHAR uni00BB
ENCODING 187
SWIDTH 875 0
DWIDTH 7 0
BBX 6 5 0 0
BITMAP
90
48
24
48
90
ENDCHAR
STARTCHAR uni00BF
ENCODING 191
SWIDTH 625 0
DWIDTH 5 0
BBX 4 7 0 0
BITMAP
20
00
20
40
80
90
60
ENDCHAR
STARTCHAR uni00C0
ENCODING 192
SWIDTH 1000 0
DWIDTH 8 0
BBX 7 7 0 0
BITMAP
20
10
10
28
54
44
AA
ENDCHAR
STARTCHAR uni00C1
ENCODING 193
SWIDTH 1000 0
DWIDTH 8 0
BBX 7 7 0 0
BITMAP
08
10
10
28
54
44
AA
ENDCHAR
STARTCHAR uni00C2
ENCODING 194
SWIDTH 1000 0
DWIDTH 8 0
BBX 7 7 0 0
BITMAP
38
44
10
28
54
44
AA
ENDCHAR
STARTCHAR uni00C3
ENCODING 195
SWIDTH 1000 0
DWIDTH 8 0
BBX 7 7 0 0
BITMAP
34
48
10
28
54
44
AA
ENDCHAR
STARTCHAR uni00C4
ENCODING 196
SWIDTH 1000 0
DWIDTH 8 0
BBX 7 7 0 0
BITMAP
54
10
28
28
54
44
AA
ENDCHAR
STARTCHAR uni00C5
ENCODING 197
SWIDTH 1000 0
DWIDTH 8 0
BBX 7 7 0 0
BITMAP
10
28
10
28
54
44
AA
ENDCHAR
STARTCHAR uni00C6
ENCODING 198
SWIDTH 1250 0
DWIDTH 10 0
BBX 9 7 0 0
BITMAP
1700
1880
2A00
2C00
5A00
4880
A700
ENDCHAR
STARTCHAR uni00C7
ENCODING 199
SWIDTH 875 0
DWIDTH 7 0
BBX 6 7 0 0
BITMAP
30
48
80
80
44
38
60
ENDCHAR
STARTCHAR uni00C8
ENCODING 200
SWIDTH 875 0
DWIDTH 7 0
BBX 6 7 0 0
BITMAP
20
10
B8
44
B0
44
B8
ENDCHAR
STARTCHAR uni00C9
ENCODING 201
SWIDTH 875 0
DWIDTH 7 0
BBX 6 7 0 0
BITMAP
08
10
B8
44
B0
44
B8
ENDCHAR
STARTCHAR uni00CA
ENCODING 202
SWIDTH 875 0
DWIDTH 7 0
BBX 6 7 0 0
BITMAP
10
28
B8
44
B0
44
B8
ENDCHAR
STARTCHAR uni00CB
ENCODING 203
SWIDTH 875 0
DWIDTH 7 0
BBX 6 7 0 0
BITMAP
28
00
B8
44
B0
44
B8
ENDCHAR
STARTCHAR uni00CC
ENCODING 204
SWIDTH 500 0
DWIDTH 4 0
BBX 3 7 0 0
BITMAP
80
40
A0
40
40
40
A0
ENDCHAR
STARTCHAR uni00CD
ENCODING 205
SWIDTH 500 0
DWIDTH 4 0
BBX 3 7 0 0
BITMAP
20
40
A0
40
40
40
A0
ENDCHAR
STARTCHAR uni00CE
ENCODING 206
SWIDTH 500 0
DWIDTH 4 0
BBX 3 7 0 0
BITMAP
40
A0
00
A0
40
40
A0
ENDCHAR
STARTCHAR uni00CF
ENCODING 207
SWIDTH 500 0
DWIDTH 4 0
BBX 3 7 0 0
BITMAP
A0
00
A0
40
40
40
A0
ENDCHAR
STARTCHAR uni00D0
ENCODING 208
SWIDTH 875 0
DWIDTH 7 0
BBX 6 7 0 0
BITMAP
B0
48
44
B4
44
48
B0
ENDCHAR
STARTCHAR uni00D1
ENCODING 209
SWIDTH 1125 0
DWIDTH 9 0
BBX 8 7 0 0
BITMAP
14
28
00
A5
52
4A
A5
ENDCHAR
STARTCHAR uni00D2
ENCODING 210
SWIDTH 875 0
DWIDTH 7 0
BBX 6 7 0 0
BITMAP
20
10
30
48
84
48
30
ENDCHAR
STARTCHAR uni00D3
ENCODING 211
SWIDTH 875 0
DWIDTH 7 0
BBX 6 7 0 0
BITMAP
08
10
30
48
84
48
30
ENDCHAR
STARTCHAR uni00D4
ENCODING 212
SWIDTH 875 0
DWIDTH 7 0
BBX 6 7 0 0
BITMAP
30
48
00
78
84
84
78
ENDCHAR
STARTCHAR uni00D5
ENCODING 213
SWIDTH 875 0
DWIDTH 7 0
BBX 6 7 0 0
BITMAP
28
50
30
48
84
48
30
ENDCHAR
STARTCHAR uni00D6
ENCODING 214
SWIDTH 875 0
DWIDTH 7 0
BBX 6 7 0 0
BITMAP
84
30
48
84
84
48
30
ENDCHAR
STARTCHAR uni00D7
ENCODING 215
SWIDTH 750 0
DWIDTH 6 0
BBX 5 5 0 1
BITMAP
88
50
20
50
88
ENDCHAR
STARTCHAR uni00D8
ENCODING 216
SWIDTH 875 0
DWIDTH 7 0
BBX 6 7 0 0
BITMAP
30
48
94
B4
A4
48
30
ENDCHAR
STARTCHAR uni00D9
ENCODING 217
SWIDTH 1000 0
DWIDTH 8 0
BBX 7 7 0 0
BITMAP
20
10
00
AA
44
44
38
ENDCHAR
STARTCHAR uni00DA
ENCODING 218
SWIDTH 1000 0
DWIDTH 8 0
BBX 7 7 0 0
BITMAP
08
10
00
AA
44
44
38
ENDCHAR
STARTCHAR uni00DB
ENCODING 219
SWIDTH 1000 0
DWIDTH 8 0
BBX 7 7 0 0
BITMAP
10
28
00
AA
44
44
38
ENDCHAR
STARTCHAR uni00DC
ENCODING 220
SWIDTH 1000 0
DWIDTH 8 0
BBX 7 7 0 0
BITMAP
28
00
AA
44
44
44
38
ENDCHAR
STARTCHAR uni00DD
ENCODING 221
SWIDTH 1000 0
DWIDTH 8 0
BBX 7 7 0 0
BITMAP
08
92
44
28
10
10
28
ENDCHAR
STARTCHAR uni00DE
ENCODING 222
SWIDTH 750 0
DWIDTH 6 0
BBX 5 7 0 0
BITMAP
A0
40
70
48
70
40
A0
ENDCHAR
STARTCHAR uni00DF
ENCODING 223
SWIDTH 875 0
DWIDTH 7 0
BBX 6 7 0 0
BITMAP
B0
48
48
50
48
44
A8
ENDCHAR
STARTCHAR uni00E0
ENCODING 224
SWIDTH 1000 0
DWIDTH 8 0
BBX 7 7 0 0
BITMAP
20
10
10
28
54
44
AA
ENDCHAR
STARTCHAR uni00E1
ENCODING 225
SWIDTH 1000 0
DWIDTH 8 0
BBX 7 7 0 0
BITMAP
08
10
10
28
54
44
AA
ENDCHAR
STARTCHAR uni00E2
ENCODING 226
SWIDTH 1000 0
DWIDTH 8 0
BBX 7 7 0 0
BITMAP
38
44
10
28
54
44
AA
ENDCHAR
STARTCHAR uni00E3
ENCODING 227
SWIDTH 1000 0
DWIDTH 8 0
BBX 7 7 0 0
BITMAP
34
48
10
28
54
44
AA
ENDCHAR
STARTCHAR uni00E4
ENCODING 228
SWIDTH 1000 0
DWIDTH 8 0
BBX 7 7 0 0
BITMAP
54
10
28
28
54
44
AA
ENDCHAR
STARTCHAR uni00E5
ENCODING 229
SWIDTH 1000 0
DWIDTH 8 0
BBX 7 7 0 0
BITMAP
10
28
10
28
54
44
AA
ENDCHAR
STARTCHAR uni00E6
ENCODING 230
SWIDTH 1250 0
DWIDTH 10 0
BBX 9 7 0 0
BITMAP
1700
1880
2A00
2C00
5A00
4880
A700
ENDCHAR
STARTCHAR uni00E7
ENCODING 231
SWIDTH 875 0
DWIDTH 7 0
BBX 6 7 0 0
BITMAP
30
48
80
80
44
38
60
ENDCHAR
STARTCHAR uni00E8
ENCODING 232
SWIDTH 875 0
DWIDTH 7 0
BBX 6 7 0 0
BITMAP
20
10
B8
44
B0
44
B8
ENDCHAR
STARTCHAR uni00E9
ENCODING 233
SWIDTH 875 0
DWIDTH 7 0
BBX 6 7 0 0
BITMAP
08
10
B8
44
B0
44
B8
ENDCHAR
STARTCHAR uni00EA
ENCODING 234
SWIDTH 875 0
DWIDTH 7 0
BBX 6 7 0 0
BITMAP
10
28
B8
44
B0
44
B8
ENDCHAR
STARTCHAR uni00EB
ENCODING 235
SWIDTH 875 0
DWIDTH 7 0
BBX 6 7 0 0
BITMAP
28
00
B8
44
B0
44
B8
ENDCHAR
STARTCHAR uni00EC
ENCODING 236
SWIDTH 500 0
DWIDTH 4 0
BBX 3 7 0 0
BITMAP
80
40
A0
40
40
40
A0
ENDCHAR
STARTCHAR uni00ED
ENCODING 237
SWIDTH 500 0
DWIDTH 4 0
BBX 3 7 0 0
BITMAP
20
40
A0
40
40
40
A0
ENDCHAR
STARTCHAR uni00EE
ENCODING 238
SWIDTH 500 0
DWIDTH 4 0
BBX 3 7 0 0
BITMAP
40
A0
00
A0
40
40
A0
ENDCHAR
STARTCHAR uni00EF
ENCODING 239
SWIDTH 500 0
DWIDTH 4 0
BBX 3 7 0 0
BITMAP
A0
00
A0
40
40
40
A0
ENDCHAR
STARTCHAR uni00F0
ENCODING 240
SWIDTH 875 0
DWIDTH 7 0
BBX 6 7 0 0
BITMAP
B0
48
44
B4
44
48
B0
ENDCHAR
STARTCHAR uni00F1
ENCODING 241
SWIDTH 1125 0
DWIDTH 9 0
BBX 8 7 0 0
BITMAP
14
28
00
A5
52
4A
A5
ENDCHAR
STARTCHAR uni00F2
ENCODING 242
SWIDTH 875 0
DWIDTH 7 0
BBX 6 7 0 0
BITMAP
20
10
30
48
84
48
30
ENDCHAR
STARTCHAR uni00F3
ENCODING 243
SWIDTH 875 0
DWIDTH 7 0
BBX 6 7 0 0
BITMAP
08
10
30
48
84
48
30
ENDCHAR
STARTCHAR uni00F4
ENCODING 244
SWIDTH 875 0
DWIDTH 7 0
BBX 6 7 0 0
BITMAP
30
48
00
78
84
84
78
ENDCHAR
STARTCHAR uni00F5
ENCODING 245
SWIDTH 875 0
DWIDTH 7 0
BBX 6 7 0 0
BITMAP
28
50
30
48
84
48
30
ENDCHAR
STARTCHAR uni00F6
ENCODING 246
SWIDTH 875 0
DWIDTH 7 0
BBX 6 7 0 0
BITMAP
84
30
48
84
84
48
30
ENDCHAR
STARTCHAR uni00F7
ENCODING 247
SWIDTH 1000 0
DWIDTH 8 0
BBX 7 7 0 0
BITMAP
10
28
92
7C
92
28
10
ENDCHAR
STARTCHAR uni00F8
ENCODING 248
SWIDTH 875 0
DWIDTH 7 0
BBX 6 7 0 0
BITMAP
30
48
94
B4
A4
48
30
ENDCHAR
STARTCHAR uni00F9
ENCODING 249
SWIDTH 1000 0
DWIDTH 8 0
BBX 7 7 0 0
BITMAP
20
10
00
AA
44
44
38
ENDCHAR
STARTCHAR uni00FA
ENCODING 250
SWIDTH 1000 0
DWIDTH 8 0
BBX 7 7 0 0
BITMAP
08
10
00
AA
44
44
38
ENDCHAR
STARTCHAR uni00FB
ENCODING 251
SWIDTH 1000 0
DWIDTH 8 0
BBX 7 7 0 0
BITMAP
10
28
00
AA
44
44
38
ENDCHAR
STARTCHAR uni00FC
ENCODING 252
SWIDTH 1000 0
DWIDTH 8 0
BBX 7 7 0 0
BITMAP
28
00
AA
44
44
44
38
ENDCHAR
STARTCHAR uni00FD
ENCODING 253
SWIDTH 1000 0
DWIDTH 8 0
BBX 7 7 0 0
BITMAP
08
92
44
28
10
10
28
ENDCHAR
STARTCHAR uni00FE
ENCODING 254
SWIDTH 750 0
DWIDTH 6 0
BBX 5 7 0 0
BITMAP
A0
40
70
48
70
40
A0
ENDCHAR
STARTCHAR uni00FF
ENCODING 255
SWIDTH 1000 0
DWIDTH 8 0
BBX 7 7 0 0
BITMAP
28
82
44
28
10
10
28
ENDCHAR
STARTCHAR uni0100
ENCODING 256
SWIDTH 1000 0
DWIDTH 8 0
BBX 7 7 0 0
BITMAP
38
10
28
28
54
44
AA
ENDCHAR
STARTCHAR uni0101
ENCODING 257
SWIDTH 1000 0
DWIDTH 8 0
BBX 7 7 0 0
BITMAP
38
10
28
28
54
44
AA
ENDCHAR
STARTCHAR uni0102
ENCODING 258
SWIDTH 1000 0
DWIDTH 8 0
BBX 7 7 0 0
BITMAP
28
10
10
28
54
44
AA
ENDCHAR
STARTCHAR uni0103
ENCODING 259
SWIDTH 1000 0
DWIDTH 8 0
BBX 7 7 0 0
BITMAP
28
10
10
28
54
44
AA
ENDCHAR
STARTCHAR uni0104
ENCODING 260
SWIDTH 1000 0
DWIDTH 8 0
BBX 7 7 0 0
BITMAP
10
28
28
54
44
AA
08
ENDCHAR
STARTCHAR uni0105
ENCODING 261
SWIDTH 1000 0
DWIDTH 8 0
BBX 7 7 0 0
BITMAP
10
28
28
54
44
AA
08
ENDCHAR
STARTCHAR uni0106
ENCODING 262
SWIDTH 875 0
DWIDTH 7 0
BBX 6 7 0 0
BITMAP
08
10
30
48
80
44
38
ENDCHAR
STARTCHAR uni0107
ENCODING 263
SWIDTH 875 0
DWIDTH 7 0
BBX 6 7 0 0
BITMAP
08
10
30
48
80
44
38
ENDCHAR
STARTCHAR uni010A
ENCODING 266
SWIDTH 875 0
DWIDTH 7 0
BBX 6 7 0 0
BITMAP
10
00
30
48
80
44
38
ENDCHAR
STARTCHAR uni010B
ENCODING 267
SWIDTH 875 0
DWIDTH 7 0
BBX 6 7 0 0
BITMAP
10
00
30
48
80
44
38
ENDCHAR
STARTCHAR uni010C
ENCODING 268
SWIDTH 875 0
DWIDTH 7 0
BBX 6 7 0 0
BITMAP
28
10
30
48
80
44
38
ENDCHAR
STARTCHAR uni010D
ENCODING 269
SWIDTH 875 0
DWIDTH 7 0
BBX 6 7 0 0
BITMAP
28
10
30
48
80
44
38
ENDCHAR
STARTCHAR uni0110
ENCODING 272
SWIDTH 875 0
DWIDTH 7 0
BBX 6 7 0 0
BITMAP
B0
48
44
B4
44
48
B0
ENDCHAR
STARTCHAR uni0111
ENCODING 273
SWIDTH 875 0
DWIDTH 7 0
BBX 6 7 0 0
BITMAP
B0
48
44
B4
44
48
B0
ENDCHAR
STARTCHAR uni0112
ENCODING 274
SWIDTH 875 0
DWIDTH 7 0
BBX 6 7 0 0
BITMAP
38
00
B8
44
B0
44
B8
ENDCHAR
STARTCHAR uni0113
ENCODING 275
SWIDTH 875 0
DWIDTH 7 0
BBX 6 7 0 0
BITMAP
38
00
B8
44
B0
44
B8
ENDCHAR
STARTCHAR uni0114
ENCODING 276
SWIDTH 875 0
DWIDTH 7 0
BBX 6 7 0 0
BITMAP
28
10
B8
44
B0
44
B8
ENDCHAR
STARTCHAR uni0115
ENCODING 277
SWIDTH 875 0
DWIDTH 7 0
BBX 6 7 0 0
BITMAP
28
10
B8
44
B0
44
B8
ENDCHAR
STARTCHAR uni0116
ENCODING 278
SWIDTH 875 0
DWIDTH 7 0
BBX 6 7 0 0
BITMAP
10
00
B8
44
B0
44
B8
ENDCHAR
STARTCHAR uni0117
ENCODING 279
SWIDTH 875 0
DWIDTH 7 0
BBX 6 7 0 0
BITMAP
10
00
B8
44
B0
44
B8
ENDCHAR
STARTCHAR uni0118
ENCODING 280
SWIDTH 875 0
DWIDTH 7 0
BBX 6 7 0 0
BITMAP
B8
44
B0
40
44
B8
0C
ENDCHAR
STARTCHAR uni0119
ENCODING 281
SWIDTH 875 0
DWIDTH 7 0
BBX 6 7 0 0
BITMAP
B8
44
B0
40
44
B8
0C
ENDCHAR
STARTCHAR uni011A
ENCODING 282
SWIDTH 875 0
DWIDTH 7 0
BBX 6 7 0 0
BITMAP
28
10
B8
44
B0
44
B8
ENDCHAR
STARTCHAR uni011B
ENCODING 283
SWIDTH 875 0
DWIDTH 7 0
BBX 6 7 0 0
BITMAP
28
10
B8
44
B0
44
B8
ENDCHAR
STARTCHAR uni011E
ENCODING 286
SWIDTH 875 0
DWIDTH 7 0
BBX 6 7 0 0
BITMAP
28
10
30
48
80
5C
38
ENDCHAR
STARTCHAR uni011F
ENCODING 287
SWIDTH 875 0
DWIDTH 7 0
BBX 6 7 0 0
BITMAP
28
10
30
48
80
5C
38
ENDCHAR
STARTCHAR uni0120
ENCODING 288
SWIDTH 875 0
DWIDTH 7 0
BBX 6 7 0 0
BITMAP
10
00
30
48
80
5C
38
ENDCHAR
STARTCHAR uni0121
ENCODING 289
SWIDTH 875 0
DWIDTH 7 0
BBX 6 7 0 0
BITMAP
10
00
30
48
80
5C
38
ENDCHAR
STARTCHAR uni0122
ENCODING 290
SWIDTH 875 0
DWIDTH 7 0
BBX 6 7 0 0
BITMAP
30
48
80
94
A8
78
20
ENDCHAR
STARTCHAR uni0123
ENCODING 291
SWIDTH 875 0
DWIDTH 7 0
BBX 6 7 0 0
BITMAP
30
48
80
94
A8
78
20
ENDCHAR
STARTCHAR uni0126
ENCODING 294
SWIDTH 1000 0
DWIDTH 8 0
BBX 7 7 0 0
BITMAP
BA
44
54
AA
54
44
AA
ENDCHAR
STARTCHAR uni0127
ENCODING 295
SWIDTH 1000 0
DWIDTH 8 0
BBX 7 7 0 0
BITMAP
BA
44
54
AA
54
44
AA
ENDCHAR
STARTCHAR uni0128
ENCODING 296
SWIDTH 625 0
DWIDTH 5 0
BBX 4 7 0 0
BITMAP
50
A0
00
A0
40
40
A0
ENDCHAR
STARTCHAR uni0129
ENCODING 297
SWIDTH 625 0
DWIDTH 5 0
BBX 4 7 0 0
BITMAP
50
A0
00
A0
40
40
A0
ENDCHAR
STARTCHAR uni012A
ENCODING 298
SWIDTH 500 0
DWIDTH 4 0
BBX 3 7 0 0
BITMAP
E0
00
A0
40
40
40
A0
ENDCHAR
STARTCHAR uni012B
ENCODING 299
SWIDTH 500 0
DWIDTH 4 0
BBX 3 7 0 0
BITMAP
E0
00
A0
40
40
40
A0
ENDCHAR
STARTCHAR uni012C
ENCODING 300
SWIDTH 500 0
DWIDTH 4 0
BBX 3 7 0 0
BITMAP
A0
40
00
A0
40
40
A0
ENDCHAR
STARTCHAR uni012D
ENCODING 301
SWIDTH 500 0
DWIDTH 4 0
BBX 3 7 0 0
BITMAP
A0
40
00
A0
40
40
A0
ENDCHAR
STARTCHAR uni012E
ENCODING 302
SWIDTH 500 0
DWIDTH 4 0
BBX 3 7 0 0
BITMAP
A0
40
A0
40
40
A0
80
ENDCHAR
STARTCHAR uni012F
ENCODING 303
SWIDTH 500 0
DWIDTH 4 0
BBX 3 7 0 0
BITMAP
A0
40
A0
40
40
A0
80
ENDCHAR
STARTCHAR uni0130
ENCODING 304
SWIDTH 500 0
DWIDTH 4 0
BBX 3 7 0 0
BITMAP
40
00
A0
40
40
40
A0
ENDCHAR
STARTCHAR uni0131
ENCODING 305
SWIDTH 500 0
DWIDTH 4 0
BBX 3 7 0 0
BITMAP
40
00
A0
40
40
40
A0
ENDCHAR
STARTCHAR uni0136
ENCODING 310
SWIDTH 1000 0
DWIDTH 8 0
BBX 7 7 0 0
BITMAP
A2
44
48
B0
48
54
92
ENDCHAR
STARTCHAR uni0137
ENCODING 311
SWIDTH 1000 0
DWIDTH 8 0
BBX 7 7 0 0
BITMAP
A2
44
48
B0
48
54
92
ENDCHAR
STARTCHAR uni013B
ENCODING 315
SWIDTH 875 0
DWIDTH 7 0
BBX 6 7 0 0
BITMAP
A0
40
40
A0
54
B8
10
ENDCHAR
STARTCHAR uni013C
ENCODING 316
SWIDTH 875 0
DWIDTH 7 0
BBX 6 7 0 0
BITMAP
A0
40
40
A0
54
B8
10
ENDCHAR
STARTCHAR uni013F
ENCODING 319
SWIDTH 875 0
DWIDTH 7 0
BBX 6 7 0 0
BITMAP
A0
48
54
A8
40
44
B8
ENDCHAR
STARTCHAR uni0140
ENCODING 320
SWIDTH 875 0
DWIDTH 7 0
BBX 6 7 0 0
BITMAP
A0
48
54
A8
40
44
B8
ENDCHAR
STARTCHAR uni0141
ENCODING 321
SWIDTH 875 0
DWIDTH 7 0
BBX 6 7 0 0
BITMAP
A0
48
50
A0
40
44
B8
ENDCHAR
STARTCHAR uni0142
ENCODING 322
SWIDTH 875 0
DWIDTH 7 0
BBX 6 7 0 0
BITMAP
A0
48
50
A0
40
44
B8
ENDCHAR
STARTCHAR uni0143
ENCODING 323
SWIDTH 1125 0
DWIDTH 9 0
BBX 8 7 0 0
BITMAP
04
08
00
A5
52
4A
A5
ENDCHAR
STARTCHAR uni0144
ENCODING 324
SWIDTH 1125 0
DWIDTH 9 0
BBX 8 7 0 0
BITMAP
04
08
00
A5
52
4A
A5
ENDCHAR
STARTCHAR uni0145
ENCODING 325
SWIDTH 1250 0
DWIDTH 10 0
BBX 9 7 0 0
BITMAP
A280
5100
4900
A680
4100
4900
AA80
ENDCHAR
STARTCHAR uni0146
ENCODING 326
SWIDTH 1250 0
DWIDTH 10 0
BBX 9 7 0 0
BITMAP
A280
5100
4900
A680
4100
4900
AA80
ENDCHAR
STARTCHAR uni014A
ENCODING 330
SWIDTH 1125 0
DWIDTH 9 0
BBX 8 7 0 0
BITMAP
A4
4A
52
A5
42
42
A4
ENDCHAR
STARTCHAR uni014B
ENCODING 331
SWIDTH 1125 0
DWIDTH 9 0
BBX 8 7 0 0
BITMAP
A4
4A
52
A5
42
42
A4
ENDCHAR
STARTCHAR uni014C
ENCODING 332
SWIDTH 875 0
DWIDTH 7 0
BBX 6 7 0 0
BITMAP
78
00
30
48
84
48
30
ENDCHAR
STARTCHAR uni014D
ENCODING 333
SWIDTH 875 0
DWIDTH 7 0
BBX 6 7 0 0
BITMAP
78
00
30
48
84
48
30
ENDCHAR
STARTCHAR uni0150
ENCODING 336
SWIDTH 875 0
DWIDTH 7 0
BBX 6 7 0 0
BITMAP
24
48
30
48
84
48
30
ENDCHAR
STARTCHAR uni0151
ENCODING 337
SWIDTH 875 0
DWIDTH 7 0
BBX 6 7 0 0
BITMAP
24
48
30
48
84
48
30
ENDCHAR
STARTCHAR uni0152
ENCODING 338
SWIDTH 1250 0
DWIDTH 10 0
BBX 9 7 0 0
BITMAP
3700
4880
8A00
9400
8A00
4880
3700
ENDCHAR
STARTCHAR uni0153
ENCODING 339
SWIDTH 1250 0
DWIDTH 10 0
BBX 9 7 0 0
BITMAP
3700
4880
8A00
9400
8A00
4880
3700
ENDCHAR
STARTCHAR uni015A
ENCODING 346
SWIDTH 750 0
DWIDTH 6 0
BBX 5 7 0 0
BITMAP
10
20
70
80
70
08
70
ENDCHAR
STARTCHAR uni015B
ENCODING 347
SWIDTH 750 0
DWIDTH 6 0
BBX 5 7 0 0
BITMAP
10
20
70
80
70
08
70
ENDCHAR
STARTCHAR uni015E
ENCODING 350
SWIDTH 750 0
DWIDTH 6 0
BBX 5 7 0 0
BITMAP
70
80
70
08
88
70
C0
ENDCHAR
STARTCHAR uni015F
ENCODING 351
SWIDTH 750 0
DWIDTH 6 0
BBX 5 7 0 0
BITMAP
70
80
70
08
88
70
C0
ENDCHAR
STARTCHAR uni0160
ENCODING 352
SWIDTH 750 0
DWIDTH 6 0
BBX 5 7 0 0
BITMAP
50
20
70
80
70
08
70
ENDCHAR
STARTCHAR uni0161
ENCODING 353
SWIDTH 750 0
DWIDTH 6 0
BBX 5 7 0 0
BITMAP
50
20
70
80
70
08
70
ENDCHAR
STARTCHAR uni0162
ENCODING 354
SWIDTH 1000 0
DWIDTH 8 0
BBX 7 7 0 0
BITMAP
7C
92
28
10
10
28
70
ENDCHAR
STARTCHAR uni0163
ENCODING 355
SWIDTH 1000 0
DWIDTH 8 0
BBX 7 7 0 0
BITMAP
7C
92
28
10
10
28
70
ENDCHAR
STARTCHAR uni0166
ENCODING 358
SWIDTH 1000 0
DWIDTH 8 0
BBX 7 7 0 0
BITMAP
7C
92
10
6C
10
10
28
ENDCHAR
STARTCHAR uni0167
ENCODING 359
SWIDTH 1000 0
DWIDTH 8 0
BBX 7 7 0 0
BITMAP
7C
92
10
6C
10
10
28
ENDCHAR
STARTCHAR uni0168
ENCODING 360
SWIDTH 1000 0
DWIDTH 8 0
BBX 7 7 0 0
BITMAP
14
28
00
AA
44
44
38
ENDCHAR
STARTCHAR uni0169
ENCODING 361
SWIDTH 1000 0
DWIDTH 8 0
BBX 7 7 0 0
BITMAP
14
28
00
AA
44
44
38
ENDCHAR
STARTCHAR uni016A
ENCODING 362
SWIDTH 1000 0
DWIDTH 8 0
BBX 7 7 0 0
BITMAP
38
00
AA
44
44
44
38
ENDCHAR
STARTCHAR uni016B
ENCODING 363
SWIDTH 1000 0
DWIDTH 8 0
BBX 7 7 0 0
BITMAP
38
00
AA
44
44
44
38
ENDCHAR
STARTCHAR uni016E
ENCODING 366
SWIDTH 1000 0
DWIDTH 8 0
BBX 7 7 0 0
BITMAP
10
28
92
44
44
44
38
ENDCHAR
STARTCHAR uni016F
ENCODING 367
SWIDTH 1000 0
DWIDTH 8 0
BBX 7 7 0 0
BITMAP
10
28
92
44
44
44
38
ENDCHAR
STARTCHAR uni0170
ENCODING 368
SWIDTH 1000 0
DWIDTH 8 0
BBX 7 7 0 0
BITMAP
12
24
00
AA
44
44
38
ENDCHAR
STARTCHAR uni0171
ENCODING 369
SWIDTH 1000 0
DWIDTH 8 0
BBX 7 7 0 0
BITMAP
12
24
00
AA
44
44
38
ENDCHAR
STARTCHAR uni0172
ENCODING 370
SWIDTH 1000 0
DWIDTH 8 0
BBX 7 7 0 0
BITMAP
AA
44
44
44
44
38
10
ENDCHAR
STARTCHAR uni0173
ENCODING 371
SWIDTH 1000 0
DWIDTH 8 0
BBX 7 7 0 0
BITMAP
AA
44
44
44
44
38
10
ENDCHAR
STARTCHAR uni0178
ENCODING 376
SWIDTH 1000 0
DWIDTH 8 0
BBX 7 7 0 0
BITMAP
28
82
44
28
10
10
28
ENDCHAR
STARTCHAR uni0179
ENCODING 377
SWIDTH 875 0
DWIDTH 7 0
BBX 6 7 0 0
BITMAP
10
20
F8
08
70
84
F8
ENDCHAR
STARTCHAR uni017A
ENCODING 378
SWIDTH 875 0
DWIDTH 7 0
BBX 6 7 0 0
BITMAP
10
20
F8
08
70
84
F8
ENDCHAR
STARTCHAR uni017B
ENCODING 379
SWIDTH 875 0
DWIDTH 7 0
BBX 6 7 0 0
BITMAP
20
00
F8
08
70
84
F8
ENDCHAR
STARTCHAR uni017C
ENCODING 380
SWIDTH 875 0
DWIDTH 7 0
BBX 6 7 0 0
BITMAP
20
00
F8
08
70
84
F8
ENDCHAR
STARTCHAR uni017D
ENCODING 381
SWIDTH 875 0
DWIDTH 7 0
BBX 6 7 0 0
BITMAP
50
20
F8
08
70
84
F8
ENDCHAR
STARTCHAR uni017E
ENCODING 382
SWIDTH 875 0
DWIDTH 7 0
BBX 6 7 0 0
BITMAP
50
20
F8
08
70
84
F8
ENDCHAR
STARTCHAR uni017F
ENCODING 383
SWIDTH 750 0
DWIDTH 6 0
BBX 5 7 0 0
BITMAP
B0
48
40
40
40
40
A0
ENDCHAR
STARTCHAR uni0186
ENCODING 390
SWIDTH 875 0
DWIDTH 7 0
BBX 6 7 0 0
BITMAP
30
48
04
04
04
88
70
ENDCHAR
STARTCHAR uni0189
ENCODING 393
SWIDTH 875 0
DWIDTH 7 0
BBX 6 7 0 0
BITMAP
B0
48
44
B4
44
48
B0
ENDCHAR
STARTCHAR uni018F
ENCODING 399
SWIDTH 875 0
DWIDTH 7 0
BBX 6 7 0 0
BITMAP
30
48
04
FC
84
48
30
ENDCHAR
STARTCHAR uni0190
ENCODING 400
SWIDTH 750 0
DWIDTH 6 0
BBX 5 7 0 0
BITMAP
60
90
80
40
80
88
70
ENDCHAR
STARTCHAR uni0194
ENCODING 404
SWIDTH 1000 0
DWIDTH 8 0
BBX 7 7 0 0
BITMAP
AA
44
44
28
10
28
10
ENDCHAR
STARTCHAR uni0197
ENCODING 407
SWIDTH 750 0
DWIDTH 6 0
BBX 5 7 0 0
BITMAP
50
20
20
D8
20
20
50
ENDCHAR
STARTCHAR uni019D
ENCODING 413
SWIDTH 1250 0
DWIDTH 10 0
BBX 9 7 0 0
BITMAP
5280
2900
2500
5280
2100
2100
C280
ENDCHAR
STARTCHAR uni01B7
ENCODING 439
SWIDTH 750 0
DWIDTH 6 0
BBX 5 7 0 0
BITMAP
78
08
10
20
10
88
70
ENDCHAR
STARTCHAR uni01C0
ENCODING 448
SWIDTH 500 0
DWIDTH 4 0
BBX 3 7 0 0
BITMAP
A0
40
40
A0
40
40
A0
ENDCHAR
STARTCHAR uni01C1
ENCODING 449
SWIDTH 1000 0
DWIDTH 8 0
BBX 7 7 0 0
BITMAP
AA
44
44
AA
44
44
AA
ENDCHAR
STARTCHAR uni01C2
ENCODING 450
SWIDTH 1000 0
DWIDTH 8 0
BBX 7 7 0 0
BITMAP
28
92
7C
10
7C
92
28
ENDCHAR
STARTCHAR uni01C3
ENCODING 451
SWIDTH 500 0
DWIDTH 4 0
BBX 3 7 0 0
BITMAP
A0
40
40
40
A0
00
40
ENDCHAR
STARTCHAR uni01CD
ENCODING 461
SWIDTH 1000 0
DWIDTH 8 0
BBX 7 7 0 0
BITMAP
28
10
10
28
54
44
AA
ENDCHAR
STARTCHAR uni01CE
ENCODING 462
SWIDTH 1000 0
DWIDTH 8 0
BBX 7 7 0 0
BITMAP
28
10
10
28
54
44
AA
ENDCHAR
STARTCHAR uni01CF
ENCODING 463
SWIDTH 500 0
DWIDTH 4 0
BBX 3 7 0 0
BITMAP
A0
40
00
A0
40
40
A0
ENDCHAR
STARTCHAR uni01D0
ENCODING 464
SWIDTH 500 0
DWIDTH 4 0
BBX 3 7 0 0
BITMAP
A0
40
00
A0
40
40
A0
ENDCHAR
STARTCHAR uni01D1
ENCODING 465
SWIDTH 875 0
DWIDTH 7 0
BBX 6 7 0 0
BITMAP
48
30
00
78
84
84
78
ENDCHAR
STARTCHAR uni01D2
ENCODING 466
SWIDTH 875 0
DWIDTH 7 0
BBX 6 7 0 0
BITMAP
48
30
00
78
84
84
78
ENDCHAR
STARTCHAR uni01D3
ENCODING 467
SWIDTH 1000 0
DWIDTH 8 0
BBX 7 7 0 0
BITMAP
28
10
00
AA
44
44
38
ENDCHAR
STARTCHAR uni01D4
ENCODING 468
SWIDTH 1000 0
DWIDTH 8 0
BBX 7 7 0 0
BITMAP
28
10
00
AA
44
44
38
ENDCHAR
STARTCHAR uni01E6
ENCODING 486
SWIDTH 875 0
DWIDTH 7 0
BBX 6 7 0 0
BITMAP
28
10
30
48
80
5C
38
ENDCHAR
STARTCHAR uni01E7
ENCODING 487
SWIDTH 875 0
DWIDTH 7 0
BBX 6 7 0 0
BITMAP
28
10
30
48
80
5C
38
ENDCHAR
STARTCHAR uni01F4
ENCODING 500
SWIDTH 875 0
DWIDTH 7 0
BBX 6 7 0 0
BITMAP
08
10
30
48
80
5C
38
ENDCHAR
STARTCHAR uni01F5
ENCODING 501
SWIDTH 875 0
DWIDTH 7 0
BBX 6 7 0 0
BITMAP
08
10
30
48
80
5C
38
ENDCHAR
STARTCHAR uni0218
ENCODING 536
SWIDTH 750 0
DWIDTH 6 0
BBX 5 7 0 0
BITMAP
70
80
70
08
88
70
20
ENDCHAR
STARTCHAR uni0219
ENCODING 537
SWIDTH 750 0
DWIDTH 6 0
BBX 5 7 0 0
BITMAP
70
80
70
08
88
70
20
ENDCHAR
STARTCHAR uni021A
ENCODING 538
SWIDTH 1000 0
DWIDTH 8 0
BBX 7 7 0 0
BITMAP
7C
92
28
10
10
28
10
ENDCHAR
STARTCHAR uni021B
ENCODING 539
SWIDTH 1000 0
DWIDTH 8 0
BBX 7 7 0 0
BITMAP
7C
92
28
10
10
28
10
ENDCHAR
STARTCHAR uni0241
ENCODING 577
SWIDTH 625 0
DWIDTH 5 0
BBX 4 7 0 0
BITMAP
60
90
10
20
40
40
A0
ENDCHAR
STARTCHAR uni0242
ENCODING 578
SWIDTH 625 0
DWIDTH 5 0
BBX 4 7 0 0
BITMAP
60
90
10
20
40
40
A0
ENDCHAR
STARTCHAR uni0244
ENCODING 580
SWIDTH 1000 0
DWIDTH 8 0
BBX 7 7 0 0
BITMAP
AA
44
44
FE
44
44
38
ENDCHAR
STARTCHAR uni0254
ENCODING 596
SWIDTH 875 0
DWIDTH 7 0
BBX 6 7 0 0
BITMAP
30
48
04
04
04
88
70
ENDCHAR
STARTCHAR uni0256
ENCODING 598
SWIDTH 875 0
DWIDTH 7 0
BBX 6 7 0 0
BITMAP
B0
48
44
B4
44
48
B0
ENDCHAR
STARTCHAR uni0259
ENCODING 601
SWIDTH 875 0
DWIDTH 7 0
BBX 6 7 0 0
BITMAP
30
48
04
FC
84
48
30
ENDCHAR
STARTCHAR uni025B
ENCODING 603
SWIDTH 750 0
DWIDTH 6 0
BBX 5 7 0 0
BITMAP
60
90
80
40
80
88
70
ENDCHAR
STARTCHAR uni0263
ENCODING 611
SWIDTH 1000 0
DWIDTH 8 0
BBX 7 7 0 0
BITMAP
AA
44
44
28
10
28
10
ENDCHAR
STARTCHAR uni0268
ENCODING 616
SWIDTH 750 0
DWIDTH 6 0
BBX 5 7 0 0
BITMAP
50
20
20
D8
20
20
50
ENDCHAR
STARTCHAR uni0272
ENCODING 626
SWIDTH 1250 0
DWIDTH 10 0
BBX 9 7 0 0
BITMAP
5280
2900
2500
5280
2100
2100
C280
ENDCHAR
STARTCHAR uni0289
ENCODING 649
SWIDTH 1000 0
DWIDTH 8 0
BBX 7 7 0 0
BITMAP
AA
44
44
FE
44
44
38
ENDCHAR
STARTCHAR uni0292
ENCODING 658
SWIDTH 750 0
DWIDTH 6 0
BBX 5 7 0 0
BITMAP
78
08
10
20
10
88
70
ENDCHAR
STARTCHAR uni0294
ENCODING 660
SWIDTH 625 0
DWIDTH 5 0
BBX 4 7 0 0
BITMAP
60
90
10
20
40
40
A0
ENDCHAR
STARTCHAR uni0295
ENCODING 661
SWIDTH 625 0
DWIDTH 5 0
BBX 4 7 0 0
BITMAP
60
90
80
40
20
20
50
ENDCHAR
STARTCHAR uni0296
ENCODING 662
SWIDTH 625 0
DWIDTH 5 0
BBX 4 7 0 0
BITMAP
A0
40
40
20
10
90
60
ENDCHAR
STARTCHAR uni02B9
ENCODING 697
SWIDTH 500 0
DWIDTH 4 0
BBX 3 2 0 5
BITMAP
A0
40
ENDCHAR
STARTCHAR uni02BA
ENCODING 698
SWIDTH 500 0
DWIDTH 4 0
BBX 3 5 0 2
BITMAP
A0
40
00
A0
40
ENDCHAR
STARTCHAR uni02BB
ENCODING 699
SWIDTH 500 0
DWIDTH 4 0
BBX 3 2 0 5
BITMAP
A0
40
ENDCHAR
STARTCHAR uni02BC
ENCODING 700
SWIDTH 500 0
DWIDTH 4 0
BBX 3 2 0 5
BITMAP
A0
40
ENDCHAR
STARTCHAR uni02BD
ENCODING 701
SWIDTH 500 0
DWIDTH 4 0
BBX 3 2 0 5
BITMAP
A0
40
ENDCHAR
STARTCHAR uni02D0
ENCODING 720
SWIDTH 500 0
DWIDTH 4 0
BBX 3 6 0 0
BITMAP
E0
40
00
00
40
E0
ENDCHAR
STARTCHAR uni02D1
ENCODING 721
SWIDTH 500 0
DWIDTH 4 0
BBX 3 2 0 4
BITMAP
E0
40
ENDCHAR
STARTCHAR uni1E9C
ENCODING 7836
SWIDTH 750 0
DWIDTH 6 0
BBX 5 7 0 0
BITMAP
B0
48
40
A0
40
40
A0
ENDCHAR
STARTCHAR uni1E9E
ENCODING 7838
SWIDTH 875 0
DWIDTH 7 0
BBX 6 7 0 0
BITMAP
B0
48
48
50
48
44
A8
ENDCHAR
STARTCHAR uni1EBC
ENCODING 7868
SWIDTH 875 0
DWIDTH 7 0
BBX 6 7 0 0
BITMAP
14
28
B8
44
B0
44
B8
ENDCHAR
STARTCHAR uni1EBD
ENCODING 7869
SWIDTH 875 0
DWIDTH 7 0
BBX 6 7 0 0
BITMAP
14
28
B8
44
B0
44
B8
ENDCHAR
STARTCHAR uni1EF2
ENCODING 7922
SWIDTH 1000 0
DWIDTH 8 0
BBX 7 7 0 0
BITMAP
20
92
44
28
10
10
28
ENDCHAR
STARTCHAR uni1EF3
ENCODING 7923
SWIDTH 1000 0
DWIDTH 8 0
BBX 7 7 0 0
BITMAP
20
92
44
28
10
10
28
ENDCHAR
STARTCHAR uni200B
ENCODING 8203
SWIDTH 0 0
DWIDTH 0 0
BBX 1 1 0 0
BITMAP
00
ENDCHAR
STARTCHAR uni2012
ENCODING 8210
SWIDTH 1000 0
DWIDTH 8 0
BBX 7 3 0 2
BITMAP
82
7C
82
ENDCHAR
STARTCHAR uni2013
ENCODING 8211
SWIDTH 1000 0
DWIDTH 8 0
BBX 7 3 0 2
BITMAP
82
7C
82
ENDCHAR
STARTCHAR uni2014
ENCODING 8212
SWIDTH 1000 0
DWIDTH 8 0
BBX 7 3 0 2
BITMAP
82
7C
82
ENDCHAR
STARTCHAR uni2015
ENCODING 8213
SWIDTH 1000 0
DWIDTH 8 0
BBX 8 2 0 3
BITMAP
AA
55
ENDCHAR
STARTCHAR uni2016
ENCODING 8214
SWIDTH 750 0
DWIDTH 6 0
BBX 5 8 0 0
BITMAP
50
88
50
88
50
88
50
88
ENDCHAR
STARTCHAR uni2018
ENCODING 8216
SWIDTH 500 0
DWIDTH 4 0
BBX 3 2 0 5
BITMAP
A0
40
ENDCHAR
STARTCHAR uni2019
ENCODING 8217
SWIDTH 500 0
DWIDTH 4 0
BBX 3 2 0 5
BITMAP
A0
40
ENDCHAR
STARTCHAR uni201A
ENCODING 8218
SWIDTH 500 0
DWIDTH 4 0
BBX 3 2 0 0
BITMAP
A0
40
ENDCHAR
STARTCHAR uni201B
ENCODING 8219
SWIDTH 500 0
DWIDTH 4 0
BBX 3 2 0 5
BITMAP
A0
40
ENDCHAR
STARTCHAR uni201C
ENCODING 8220
SWIDTH 500 0
DWIDTH 4 0
BBX 3 5 0 2
BITMAP
A0
40
00
A0
40
ENDCHAR
STARTCHAR uni201D
ENCODING 8221
SWIDTH 500 0
DWIDTH 4 0
BBX 3 5 0 2
BITMAP
A0
40
00
A0
40
ENDCHAR
STARTCHAR uni201E
ENCODING 8222
SWIDTH 500 0
DWIDTH 4 0
BBX 3 5 0 0
BITMAP
A0
40
00
A0
40
ENDCHAR
STARTCHAR uni201F
ENCODING 8223
SWIDTH 500 0
DWIDTH 4 0
BBX 3 5 0 2
BITMAP
A0
40
00
A0
40
ENDCHAR
STARTCHAR uni2020
ENCODING 8224
SWIDTH 750 0
DWIDTH 6 0
BBX 5 7 0 0
BITMAP
20
20
D8
20
20
20
20
ENDCHAR
STARTCHAR uni2021
ENCODING 8225
SWIDTH 750 0
DWIDTH 6 0
BBX 5 7 0 0
BITMAP
20
20
D8
20
D8
20
20
ENDCHAR
STARTCHAR uni2022
ENCODING 8226
SWIDTH 750 0
DWIDTH 6 0
BBX 5 5 0 1
BITMAP
20
50
88
50
20
ENDCHAR
STARTCHAR uni2023
ENCODING 8227
SWIDTH 750 0
DWIDTH 6 0
BBX 5 5 0 1
BITMAP
60
90
88
90
60
ENDCHAR
STARTCHAR uni2026
ENCODING 8230
SWIDTH 1000 0
DWIDTH 8 0
BBX 7 3 0 0
BITMAP
54
AA
54
ENDCHAR
STARTCHAR uni202F
ENCODING 8239
SWIDTH 250 0
DWIDTH 2 0
BBX 1 1 0 0
BITMAP
00
ENDCHAR
STARTCHAR uni2030
ENCODING 8240
SWIDTH 1250 0
DWIDTH 10 0
BBX 9 7 0 0
BITMAP
4A00
A400
4800
1000
2500
4A80
A500
ENDCHAR
STARTCHAR uni2032
ENCODING 8242
SWIDTH 500 0
DWIDTH 4 0
BBX 3 2 0 5
BITMAP
A0
40
ENDCHAR
STARTCHAR uni2033
ENCODING 8243
SWIDTH 500 0
DWIDTH 4 0
BBX 3 5 0 2
BITMAP
A0
40
00
A0
40
ENDCHAR
STARTCHAR uni203E
ENCODING 8254
SWIDTH 1000 0
DWIDTH 8 0
BBX 7 3 0 4
BITMAP
82
7C
82
ENDCHAR
STARTCHAR uni2044
ENCODING 8260
SWIDTH 1000 0
DWIDTH 8 0
BBX 7 7 0 0
BITMAP
0A
04
08
10
20
40
A0
ENDCHAR
STARTCHAR uni20AC
ENCODING 8364
SWIDTH 875 0
DWIDTH 7 0
BBX 6 7 0 0
BITMAP
30
48
E0
40
F0
44
38
ENDCHAR
STARTCHAR uni20B8
ENCODING 8376
SWIDTH 1000 0
DWIDTH 8 0
BBX 7 7 0 0
BITMAP
82
7C
00
7C
92
10
28
ENDCHAR
STARTCHAR uni20C0
ENCODING 8384
SWIDTH 875 0
DWIDTH 7 0
BBX 6 7 0 0
BITMAP
30
48
80
44
38
00
FC
ENDCHAR
STARTCHAR uni2105
ENCODING 8453
SWIDTH 1000 0
DWIDTH 8 0
BBX 7 7 0 0
BITMAP
4A
84
48
10
24
4A
A4
ENDCHAR
STARTCHAR uni2117
ENCODING 8471
SWIDTH 1000 0
DWIDTH 8 0
BBX 7 7 0 0
BITMAP
38
44
BA
BA
A2
44
38
ENDCHAR
STARTCHAR uni2122
ENCODING 8482
SWIDTH 1250 0
DWIDTH 10 0
BBX 9 3 0 4
BITMAP
ED80
4A80
4880
ENDCHAR
STARTCHAR uni2212
ENCODING 8722
SWIDTH 1000 0
DWIDTH 8 0
BBX 7 3 0 2
BITMAP
82
7C
82
ENDCHAR
STARTCHAR uni2215
ENCODING 8725
SWIDTH 1000 0
DWIDTH 8 0
BBX 7 7 0 0
BITMAP
0A
04
08
10
20
40
A0
ENDCHAR
STARTCHAR uni2219
ENCODING 8729
SWIDTH 500 0
DWIDTH 4 0
BBX 3 3 0 2
BITMAP
40
A0
40
ENDCHAR
STARTCHAR uni2580
ENCODING 9600
SWIDTH 1000 0
DWIDTH 8 0
BBX 8 4 0 4
BITMAP
FF
FF
FF
FF
ENDCHAR
STARTCHAR uni2584
ENCODING 9604
SWIDTH 1000 0
DWIDTH 8 0
BBX 8 4 0 0
BITMAP
FF
FF
FF
FF
ENDCHAR
STARTCHAR uni2588
ENCODING 9608
SWIDTH 1000 0
DWIDTH 8 0
BBX 8 8 0 0
BITMAP
FF
FF
FF
FF
FF
FF
FF
FF
ENDCHAR
STARTCHAR uni258C
ENCODING 9612
SWIDTH 1000 0
DWIDTH 8 0
BBX 4 8 0 0
BITMAP
F0
F0
F0
F0
F0
F0
F0
F0
ENDCHAR
STARTCHAR uni2590
ENCODING 9616
SWIDTH 1000 0
DWIDTH 8 0
BBX 4 8 4 0
BITMAP
F0
F0
F0
F0
F0
F0
F0
F0
ENDCHAR
STARTCHAR uni2591
ENCODING 9617
SWIDTH 1000 0
DWIDTH 8 0
BBX 8 7 0 1
BITMAP
AA
00
55
00
AA
00
55
ENDCHAR
STARTCHAR uni2592
ENCODING 9618
SWIDTH 1000 0
DWIDTH 8 0
BBX 8 8 0 0
BITMAP
AA
55
AA
55
AA
55
AA
55
ENDCHAR
STARTCHAR uni2593
ENCODING 9619
SWIDTH 1000 0
DWIDTH 8 0
BBX 8 8 0 0
BITMAP
AA
FF
AA
55
AA
FF
AA
55
ENDCHAR
STARTCHAR uni2621
ENCODING 9761
SWIDTH 1125 0
DWIDTH 9 0
BBX 8 7 0 0
BITMAP
10
10
28
28
48
49
A6
ENDCHAR
STARTCHAR uni2E2E
ENCODING 11822
SWIDTH 625 0
DWIDTH 5 0
BBX 4 7 0 0
BITMAP
60
90
80
40
20
00
20
ENDCHAR
STARTCHAR uni2E38
ENCODING 11832
SWIDTH 750 0
DWIDTH 6 0
BBX 5 7 0 0
BITMAP
20
20
20
20
D8
20
20
ENDCHAR
STARTCHAR uni3012
ENCODING 12306
SWIDTH 1000 0
DWIDTH 8 0
BBX 7 7 0 0
BITMAP
82
7C
00
7C
92
10
28
ENDCHAR
STARTCHAR uni5186
ENCODING 20870
SWIDTH 1000 0
DWIDTH 8 0
BBX 7 7 0 0
BITMAP
BA
54
54
BA
44
44
AA
ENDCHAR
STARTCHAR uniA78B
ENCODING 42891
SWIDTH 500 0
DWIDTH 4 0
BBX 3 5 0 2
BITMAP
A0
40
40
40
A0
ENDCHAR
STARTCHAR uniA78C
ENCODING 42892
SWIDTH 500 0
DWIDTH 4 0
BBX 3 5 0 2
BITMAP
A0
40
40
40
A0
ENDCHAR
STARTCHAR uniFFFD
ENCODING 65533
SWIDTH 1000 0
DWIDTH 8 0
BBX 7 7 0 0
BITMAP
38
44
F6
EE
FE
6C
38
ENDCHAR
STARTCHAR uni1D54F
ENCODING 120143
SWIDTH 1000 0
DWIDTH 8 0
BBX 7 7 0 0
BITMAP
4A
A4
54
28
54
4A
A4
ENDCHAR
STARTCHAR uni1F12F
ENCODING 127279
SWIDTH 1000 0
DWIDTH 8 0
BBX 7 7 0 0
BITMAP
38
44
BA
8A
BA
44
38
ENDCHAR
STARTCHAR uni1F451
ENCODING 128081
SWIDTH 1500 0
DWIDTH 12 0
BBX 11 7 0 0
BITMAP
0E00
4440
AAA0
9520
4A40
2080
1F00
ENDCHAR
STARTCHAR uni1F47D
ENCODING 128125
SWIDTH 1000 0
DWIDTH 8 0
BBX 7 7 0 0
BITMAP
38
7C
D6
D6
7C
38
10
ENDCHAR
STARTCHAR uni1F5A4
ENCODING 128420
SWIDTH 1000 0
DWIDTH 8 0
BBX 7 7 0 0
BITMAP
6C
FE
FE
7C
7C
38
10
ENDCHAR
STARTCHAR uni1F6AC
ENCODING 128684
SWIDTH 1000 0
DWIDTH 8 0
BBX 7 7 0 0
BITMAP
08
10
0C
02
00
FA
FA
ENDCHAR
STARTCHAR uni1F90D
ENCODING 129293
SWIDTH 1000 0
DWIDTH 8 0
BBX 7 7 0 0
BITMAP
6C
92
92
44
44
28
10
ENDCHAR
STARTCHAR uni1F965
ENCODING 129381
SWIDTH 1000 0
DWIDTH 8 0
BBX 7 7 0 0
BITMAP
38
7C
F6
FE
EA
7C
38
ENDCHAR
STARTCHAR uni1F99C
ENCODING 129436
SWIDTH 1500 0
DWIDTH 12 0
BBX 11 7 0 0
BITMAP
01C0
07A0
0FE0
1F40
3F00
7580
C600
ENDCHAR
STARTCHAR uni1F99E
ENCODING 129438
SWIDTH 1500 0
DWIDTH 12 0
BBX 11 7 0 0
BITMAP
3400
0A20
DF60
3FE0
DF60
0A20
3400
ENDCHAR
ENDFONT
