STARTFONT 2.1
FONT ChenhaoUwU RP Font Enchant
SIZE 8 75 75
FONTBOUNDINGBOX 3 11 0 -1
STARTPROPERTIES 3
PIXEL_SIZE 8
FONT_ASCENT 7
FONT_DESCENT 1
ENDPROPERTIES
CHARS 261
STARTCHAR uni0020
ENCODING 32
SWIDTH 500 0
DWIDTH 4 0
BBX 0 0 0 0
BITMAP
ENDCHAR
STARTCHAR uni0021
ENCODING 33
SWIDTH 500 0
DWIDTH 4 0
BBX 1 7 1 0
BITMAP
80
80
80
80
80
00
80
ENDCHAR
STARTCHAR uni0022
ENCODING 34
SWIDTH 500 0
DWIDTH 4 0
BBX 3 2 0 5
BITMAP
A0
A0
ENDCHAR
STARTCHAR uni0023
ENCODING 35
SWIDTH 500 0
DWIDTH 4 0
BBX 3 7 0 0
BITMAP
A0
A0
E0
A0
E0
A0
A0
ENDCHAR
STARTCHAR uni0024
ENCODING 36
SWIDTH 500 0
DWIDTH 4 0
BBX 3 7 0 0
BITMAP
40
E0
80
E0
20
E0
40
ENDCHAR
STARTCHAR uni0025
ENCODING 37
SWIDTH 500 0
DWIDTH 4 0
BBX 3 7 0 0
BITMAP
80
80
20
40
80
20
20
ENDCHAR
STARTCHAR uni0026
ENCODING 38
SWIDTH 500 0
DWIDTH 4 0
BBX 3 7 0 0
BITMAP
E0
80
A0
60
A0
A0
E0
ENDCHAR
STARTCHAR uni0027
ENCODING 39
SWIDTH 500 0
DWIDTH 4 0
BBX 1 2 1 5
BITMAP
80
80
ENDCHAR
STARTCHAR uni0028
ENCODING 40
SWIDTH 500 0
DWIDTH 4 0
BBX 2 7 1 0
BITMAP
40
80
80
80
80
80
40
ENDCHAR
STARTCHAR uni0029
ENCODING 41
SWIDTH 500 0
DWIDTH 4 0
BBX 2 7 0 0
BITMAP
80
40
40
40
40
40
80
ENDCHAR
STARTCHAR uni002A
ENCODING 42
SWIDTH 500 0
DWIDTH 4 0
BBX 3 3 0 2
BITMAP
A0
40
A0
ENDCHAR
STARTCHAR uni002B
ENCODING 43
SWIDTH 500 0
DWIDTH 4 0
BBX 3 5 0 1
BITMAP
40
40
E0
40
40
ENDCHAR
STARTCHAR uni002C
ENCODING 44
SWIDTH 500 0
DWIDTH 4 0
BBX 2 3 0 -1
BITMAP
40
40
80
ENDCHAR
STARTCHAR uni002D
ENCODING 45
SWIDTH 500 0
DWIDTH 4 0
BBX 3 1 0 3
BITMAP
E0
ENDCHAR
STARTCHAR uni002E
ENCODING 46
SWIDTH 500 0
DWIDTH 4 0
BBX 1 2 1 0
BITMAP
80
80
ENDCHAR
STARTCHAR uni002F
ENCODING 47
SWIDTH 500 0
DWIDTH 4 0
BBX 3 7 0 0
BITMAP
20
20
40
40
40
80
80
ENDCHAR
STARTCHAR uni0030
ENCODING 48
SWIDTH 500 0
DWIDTH 4 0
BBX 3 6 0 0
BITMAP
E0
A0
A0
A0
A0
E0
ENDCHAR
STARTCHAR uni0031
ENCODING 49
SWIDTH 500 0
DWIDTH 4 0
BBX 3 6 0 0
BITMAP
C0
40
40
40
40
E0
ENDCHAR
STARTCHAR uni0032
ENCODING 50
SWIDTH 500 0
DWIDTH 4 0
BBX 3 6 0 0
BITMAP
E0
20
E0
80
A0
E0
ENDCHAR
STARTCHAR uni0033
ENCODING 51
SWIDTH 500 0
DWIDTH 4 0
BBX 3 7 0 -1
BITMAP
E0
20
E0
20
A0
A0
E0
ENDCHAR
STARTCHAR uni0034
ENCODING 52
SWIDTH 500 0
DWIDTH 4 0
BBX 3 7 0 -1
BITMAP
A0
A0
A0
A0
E0
20
20
ENDCHAR
STARTCHAR uni0035
ENCODING 53
SWIDTH 500 0
DWIDTH 4 0
BBX 3 7 0 -1
BITMAP
E0
80
E0
20
A0
A0
E0
ENDCHAR
STARTCHAR uni0036
ENCODING 54
SWIDTH 500 0
DWIDTH 4 0
BBX 3 7 0 0
BITMAP
E0
A0
80
E0
A0
A0
E0
ENDCHAR
STARTCHAR uni0037
ENCODING 55
SWIDTH 500 0
DWIDTH 4 0
BBX 3 7 0 -1
BITMAP
E0
A0
A0
20
60
20
20
ENDCHAR
STARTCHAR uni0038
ENCODING 56
SWIDTH 500 0
DWIDTH 4 0
BBX 3 7 0 0
BITMAP
E0
A0
A0
E0
A0
A0
E0
ENDCHAR
STARTCHAR uni0039
ENCODING 57
SWIDTH 500 0
DWIDTH 4 0
BBX 3 7 0 -1
BITMAP
E0
A0
E0
20
A0
A0
E0
ENDCHAR
STARTCHAR uni003A
ENCODING 58
SWIDTH 500 0
DWIDTH 4 0
BBX 1 5 1 0
BITMAP
80
80
00
80
80
ENDCHAR
STARTCHAR uni003B
ENCODING 59
SWIDTH 500 0
DWIDTH 4 0
BBX 2 6 0 -1
BITMAP
40
40
00
40
40
80
ENDCHAR
STARTCHAR uni003C
ENCODING 60
SWIDTH 500 0
DWIDTH 4 0
BBX 3 5 0 1
BITMAP
20
40
80
40
20
ENDCHAR
STARTCHAR uni003D
ENCODING 61
SWIDTH 500 0
DWIDTH 4 0
BBX 3 3 0 2
BITMAP
E0
00
E0
ENDCHAR
STARTCHAR uni003E
ENCODING 62
SWIDTH 500 0
DWIDTH 4 0
BBX 3 5 0 1
BITMAP
80
40
20
40
80
ENDCHAR
STARTCHAR uni003F
ENCODING 63
SWIDTH 500 0
DWIDTH 4 0
BBX 3 7 0 0
BITMAP
E0
A0
A0
20
60
00
40
ENDCHAR
STARTCHAR uni0040
ENCODING 64
SWIDTH 500 0
DWIDTH 4 0
BBX 3 7 0 -1
BITMAP
E0
A0
E0
A0
E0
80
E0
ENDCHAR
STARTCHAR uni0041
ENCODING 65
SWIDTH 500 0
DWIDTH 4 0
BBX 3 7 0 0
BITMAP
E0
A0
A0
E0
A0
A0
A0
ENDCHAR
STARTCHAR uni0042
ENCODING 66
SWIDTH 500 0
DWIDTH 4 0
BBX 3 7 0 0
BITMAP
E0
A0
A0
C0
A0
A0
E0
ENDCHAR
STARTCHAR uni0043
ENCODING 67
SWIDTH 500 0
DWIDTH 4 0
BBX 3 7 0 0
BITMAP
E0
A0
A0
80
80
80
E0
ENDCHAR
STARTCHAR uni0044
ENCODING 68
SWIDTH 500 0
DWIDTH 4 0
BBX 3 7 0 0
BITMAP
C0
A0
A0
A0
A0
A0
E0
ENDCHAR
STARTCHAR uni0045
ENCODING 69
SWIDTH 500 0
DWIDTH 4 0
BBX 3 7 0 0
BITMAP
E0
A0
80
C0
80
80
E0
ENDCHAR
STARTCHAR uni0046
ENCODING 70
SWIDTH 500 0
DWIDTH 4 0
BBX 3 7 0 0
BITMAP
E0
A0
80
80
C0
80
80
ENDCHAR
STARTCHAR uni0047
ENCODING 71
SWIDTH 500 0
DWIDTH 4 0
BBX 3 7 0 0
BITMAP
E0
A0
80
A0
A0
A0
E0
ENDCHAR
STARTCHAR uni0048
ENCODING 72
SWIDTH 500 0
DWIDTH 4 0
BBX 3 7 0 0
BITMAP
A0
A0
A0
E0
A0
A0
A0
ENDCHAR
STARTCHAR uni0049
ENCODING 73
SWIDTH 500 0
DWIDTH 4 0
BBX 3 7 0 0
BITMAP
E0
40
40
40
40
40
E0
ENDCHAR
STARTCHAR uni004A
ENCODING 74
SWIDTH 500 0
DWIDTH 4 0
BBX 3 7 0 0
BITMAP
E0
20
20
20
A0
A0
E0
ENDCHAR
STARTCHAR uni004B
ENCODING 75
SWIDTH 500 0
DWIDTH 4 0
BBX 3 7 0 0
BITMAP
A0
A0
A0
C0
A0
A0
A0
ENDCHAR
STARTCHAR uni004C
ENCODING 76
SWIDTH 500 0
DWIDTH 4 0
BBX 3 7 0 0
BITMAP
80
80
80
80
A0
A0
E0
ENDCHAR
STARTCHAR uni004D
ENCODING 77
SWIDTH 500 0
DWIDTH 4 0
BBX 3 7 0 0
BITMAP
A0
E0
E0
A0
A0
A0
A0
ENDCHAR
STARTCHAR uni004E
ENCODING 78
SWIDTH 500 0
DWIDTH 4 0
BBX 3 7 0 0
BITMAP
E0
A0
A0
A0
A0
A0
A0
ENDCHAR
STARTCHAR uni004F
ENCODING 79
SWIDTH 500 0
DWIDTH 4 0
BBX 3 7 0 0
BITMAP
E0
A0
A0
A0
A0
A0
E0
ENDCHAR
STARTCHAR uni0050
ENCODING 80
SWIDTH 500 0
DWIDTH 4 0
BBX 3 7 0 0
BITMAP
E0
A0
A0
A0
E0
80
80
ENDCHAR
STARTCHAR uni0051
ENCODING 81
SWIDTH 500 0
DWIDTH 4 0
BBX 3 8 0 -1
BITMAP
E0
A0
A0
A0
A0
A0
E0
40
ENDCHAR
STARTCHAR uni0052
ENCODING 82
SWIDTH 500 0
DWIDTH 4 0
BBX 3 7 0 0
BITMAP
E0
A0
A0
A0
C0
A0
A0
ENDCHAR
STARTCHAR uni0053
ENCODING 83
SWIDTH 500 0
DWIDTH 4 0
BBX 3 7 0 0
BITMAP
E0
A0
80
E0
20
A0
E0
ENDCHAR
STARTCHAR uni0054
ENCODING 84
SWIDTH 500 0
DWIDTH 4 0
BBX 3 7 0 0
BITMAP
E0
40
40
40
40
40
40
ENDCHAR
STARTCHAR uni0055
ENCODING 85
SWIDTH 500 0
DWIDTH 4 0
BBX 3 7 0 0
BITMAP
A0
A0
A0
A0
A0
A0
E0
ENDCHAR
STARTCHAR uni0056
ENCODING 86
SWIDTH 500 0
DWIDTH 4 0
BBX 3 7 0 0
BITMAP
A0
A0
A0
A0
A0
40
40
ENDCHAR
STARTCHAR uni0057
ENCODING 87
SWIDTH 500 0
DWIDTH 4 0
BBX 3 7 0 0
BITMAP
A0
A0
A0
A0
E0
E0
A0
ENDCHAR
STARTCHAR uni0058
ENCODING 88
SWIDTH 500 0
DWIDTH 4 0
BBX 3 7 0 0
BITMAP
A0
A0
A0
40
A0
A0
A0
ENDCHAR
STARTCHAR uni0059
ENCODING 89
SWIDTH 500 0
DWIDTH 4 0
BBX 3 7 0 0
BITMAP
A0
A0
A0
E0
40
40
40
ENDCHAR
STARTCHAR uni005A
ENCODING 90
SWIDTH 500 0
DWIDTH 4 0
BBX 3 7 0 0
BITMAP
E0
20
20
40
80
A0
E0
ENDCHAR
STARTCHAR uni005B
ENCODING 91
SWIDTH 500 0
DWIDTH 4 0
BBX 2 7 1 0
BITMAP
C0
80
80
80
80
80
C0
ENDCHAR
STARTCHAR uni005C
ENCODING 92
SWIDTH 500 0
DWIDTH 4 0
BBX 3 7 0 0
BITMAP
80
80
40
40
40
20
20
ENDCHAR
STARTCHAR uni005D
ENCODING 93
SWIDTH 500 0
DWIDTH 4 0
BBX 2 7 0 0
BITMAP
C0
40
40
40
40
40
C0
ENDCHAR
STARTCHAR uni005E
ENCODING 94
SWIDTH 500 0
DWIDTH 4 0
BBX 3 2 0 5
BITMAP
40
A0
ENDCHAR
STARTCHAR uni005F
ENCODING 95
SWIDTH 500 0
DWIDTH 4 0
BBX 3 1 0 -1
BITMAP
E0
ENDCHAR
STARTCHAR uni0060
ENCODING 96
SWIDTH 375 0
DWIDTH 3 0
BBX 2 2 0 5
BITMAP
80
40
ENDCHAR
STARTCHAR uni0061
ENCODING 97
SWIDTH 500 0
DWIDTH 4 0
BBX 3 5 0 0
BITMAP
E0
20
E0
A0
E0
ENDCHAR
STARTCHAR uni0062
ENCODING 98
SWIDTH 500 0
DWIDTH 4 0
BBX 3 7 0 0
BITMAP
80
80
E0
A0
A0
A0
E0
ENDCHAR
STARTCHAR uni0063
ENCODING 99
SWIDTH 500 0
DWIDTH 4 0
BBX 3 5 0 0
BITMAP
E0
A0
80
80
E0
ENDCHAR
STARTCHAR uni0064
ENCODING 100
SWIDTH 500 0
DWIDTH 4 0
BBX 3 7 0 0
BITMAP
20
20
E0
A0
A0
A0
E0
ENDCHAR
STARTCHAR uni0065
ENCODING 101
SWIDTH 500 0
DWIDTH 4 0
BBX 3 5 0 0
BITMAP
E0
A0
E0
80
E0
ENDCHAR
STARTCHAR uni0066
ENCODING 102
SWIDTH 500 0
DWIDTH 4 0
BBX 3 7 0 0
BITMAP
60
40
40
E0
40
40
40
ENDCHAR
STARTCHAR uni0067
ENCODING 103
SWIDTH 500 0
DWIDTH 4 0
BBX 3 6 0 -1
BITMAP
E0
A0
C0
20
A0
E0
ENDCHAR
STARTCHAR uni0068
ENCODING 104
SWIDTH 500 0
DWIDTH 4 0
BBX 3 7 0 0
BITMAP
80
80
E0
A0
A0
A0
A0
ENDCHAR
STARTCHAR uni0069
ENCODING 105
SWIDTH 500 0
DWIDTH 4 0
BBX 3 7 0 0
BITMAP
40
00
C0
40
40
40
E0
ENDCHAR
STARTCHAR uni006A
ENCODING 106
SWIDTH 500 0
DWIDTH 4 0
BBX 3 8 0 -1
BITMAP
20
00
E0
20
20
A0
A0
E0
ENDCHAR
STARTCHAR uni006B
ENCODING 107
SWIDTH 500 0
DWIDTH 4 0
BBX 3 7 0 0
BITMAP
80
80
A0
A0
C0
A0
A0
ENDCHAR
STARTCHAR uni006C
ENCODING 108
SWIDTH 500 0
DWIDTH 4 0
BBX 3 7 0 0
BITMAP
C0
40
40
40
40
40
E0
ENDCHAR
STARTCHAR uni006D
ENCODING 109
SWIDTH 500 0
DWIDTH 4 0
BBX 3 5 0 0
BITMAP
A0
E0
E0
A0
A0
ENDCHAR
STARTCHAR uni006E
ENCODING 110
SWIDTH 500 0
DWIDTH 4 0
BBX 3 5 0 0
BITMAP
E0
A0
A0
A0
A0
ENDCHAR
STARTCHAR uni006F
ENCODING 111
SWIDTH 500 0
DWIDTH 4 0
BBX 3 5 0 0
BITMAP
E0
A0
A0
A0
E0
ENDCHAR
STARTCHAR uni0070
ENCODING 112
SWIDTH 500 0
DWIDTH 4 0
BBX 3 6 0 -1
BITMAP
E0
A0
A0
A0
E0
80
ENDCHAR
STARTCHAR uni0071
ENCODING 113
SWIDTH 500 0
DWIDTH 4 0
BBX 3 6 0 -1
BITMAP
E0
A0
A0
A0
E0
20
ENDCHAR
STARTCHAR uni0072
ENCODING 114
SWIDTH 500 0
DWIDTH 4 0
BBX 3 5 0 0
BITMAP
E0
A0
A0
80
80
ENDCHAR
STARTCHAR uni0073
ENCODING 115
SWIDTH 500 0
DWIDTH 4 0
BBX 3 5 0 0
BITMAP
E0
80
E0
20
E0
ENDCHAR
STARTCHAR uni0074
ENCODING 116
SWIDTH 500 0
DWIDTH 4 0
BBX 3 6 0 0
BITMAP
40
E0
40
40
40
60
ENDCHAR
STARTCHAR uni0075
ENCODING 117
SWIDTH 500 0
DWIDTH 4 0
BBX 3 5 0 0
BITMAP
A0
A0
A0
A0
E0
ENDCHAR
STARTCHAR uni0076
ENCODING 118
SWIDTH 500 0
DWIDTH 4 0
BBX 3 5 0 0
BITMAP
A0
A0
A0
40
40
ENDCHAR
STARTCHAR uni0077
ENCODING 119
SWIDTH 500 0
DWIDTH 4 0
BBX 3 5 0 0
BITMAP
A0
A0
E0
E0
A0
ENDCHAR
STARTCHAR uni0078
ENCODING 120
SWIDTH 500 0
DWIDTH 4 0
BBX 3 5 0 0
BITMAP
A0
A0
40
A0
A0
ENDCHAR
STARTCHAR uni0079
ENCODING 121
SWIDTH 500 0
DWIDTH 4 0
BBX 3 6 0 -1
BITMAP
A0
A0
E0
20
A0
E0
ENDCHAR
STARTCHAR uni007A
ENCODING 122
SWIDTH 500 0
DWIDTH 4 0
BBX 3 6 0 -1
BITMAP
E0
20
40
20
A0
E0
ENDCHAR
STARTCHAR uni007B
ENCODING 123
SWIDTH 500 0
DWIDTH 4 0
BBX 3 7 0 0
BITMAP
60
40
40
80
40
40
60
ENDCHAR
STARTCHAR uni007C
ENCODING 124
SWIDTH 500 0
DWIDTH 4 0
BBX 1 7 1 0
BITMAP
80
80
80
80
80
80
80
ENDCHAR
STARTCHAR uni007D
ENCODING 125
SWIDTH 500 0
DWIDTH 4 0
BBX 3 7 0 0
BITMAP
C0
40
40
20
40
40
C0
ENDCHAR
STARTCHAR uni007E
ENCODING 126
SWIDTH 500 0
DWIDTH 4 0
BBX 3 3 0 2
BITMAP
20
E0
80
ENDCHAR
STARTCHAR uni007F
ENCODING 127
SWIDTH 500 0
DWIDTH 4 0
BBX 0 0 0 0
BITMAP
ENDCHAR
STARTCHAR uni0080
ENCODING 128
SWIDTH 500 0
DWIDTH 4 0
BBX 3 7 0 0
BITMAP
E0
A0
C0
80
C0
80
E0
ENDCHAR
STARTCHAR uni0081
ENCODING 129
SWIDTH 500 0
DWIDTH 4 0
BBX 3 7 0 0
BITMAP
40
40
A0
A0
A0
40
40
ENDCHAR
STARTCHAR uni0082
ENCODING 130
SWIDTH 500 0
DWIDTH 4 0
BBX 2 2 0 -1
BITMAP
40
C0
ENDCHAR
STARTCHAR uni0083
ENCODING 131
SWIDTH 500 0
DWIDTH 4 0
BBX 3 8 0 -1
BITMAP
60
40
40
E0
40
40
40
C0
ENDCHAR
STARTCHAR uni0084
ENCODING 132
SWIDTH 500 0
DWIDTH 4 0
BBX 3 2 0 -1
BITMAP
60
E0
ENDCHAR
STARTCHAR uni0085
ENCODING 133
SWIDTH 500 0
DWIDTH 4 0
BBX 3 1 0 0
BITMAP
A0
ENDCHAR
STARTCHAR uni0086
ENCODING 134
SWIDTH 500 0
DWIDTH 4 0
BBX 3 7 0 0
BITMAP
40
E0
40
40
40
40
40
ENDCHAR
STARTCHAR uni0087
ENCODING 135
SWIDTH 500 0
DWIDTH 4 0
BBX 3 7 0 0
BITMAP
40
E0
40
40
40
E0
40
ENDCHAR
STARTCHAR uni0088
ENCODING 136
SWIDTH 500 0
DWIDTH 4 0
BBX 3 2 0 5
BITMAP
40
A0
ENDCHAR
STARTCHAR uni0089
ENCODING 137
SWIDTH 500 0
DWIDTH 4 0
BBX 3 7 0 0
BITMAP
80
A0
40
80
00
A0
A0
ENDCHAR
STARTCHAR uni008A
ENCODING 138
SWIDTH 500 0
DWIDTH 4 0
BBX 3 10 0 0
BITMAP
A0
40
00
E0
A0
80
E0
20
A0
E0
ENDCHAR
STARTCHAR uni008B
ENCODING 139
SWIDTH 500 0
DWIDTH 4 0
BBX 2 3 1 2
BITMAP
40
80
40
ENDCHAR
STARTCHAR uni008C
ENCODING 140
SWIDTH 500 0
DWIDTH 4 0
BBX 3 7 0 0
BITMAP
E0
C0
C0
E0
C0
C0
E0
ENDCHAR
STARTCHAR uni008D
ENCODING 141
SWIDTH 500 0
DWIDTH 4 0
BBX 3 7 0 0
BITMAP
80
A0
C0
80
A0
A0
E0
ENDCHAR
STARTCHAR uni008E
ENCODING 142
SWIDTH 500 0
DWIDTH 4 0
BBX 3 10 0 0
BITMAP
A0
40
00
E0
20
20
40
80
A0
E0
ENDCHAR
STARTCHAR uni008F
ENCODING 143
SWIDTH 500 0
DWIDTH 4 0
BBX 3 5 0 0
BITMAP
C0
40
40
40
E0
ENDCHAR
STARTCHAR uni0090
ENCODING 144
SWIDTH 375 0
DWIDTH 3 0
BBX 3 3 0 1
BITMAP
A0
00
A0
ENDCHAR
STARTCHAR uni0091
ENCODING 145
SWIDTH 500 0
DWIDTH 4 0
BBX 2 2 1 5
BITMAP
C0
80
ENDCHAR
STARTCHAR uni0092
ENCODING 146
SWIDTH 500 0
DWIDTH 4 0
BBX 2 2 0 5
BITMAP
40
C0
ENDCHAR
STARTCHAR uni0093
ENCODING 147
SWIDTH 500 0
DWIDTH 4 0
BBX 3 2 0 5
BITMAP
E0
C0
ENDCHAR
STARTCHAR uni0094
ENCODING 148
SWIDTH 500 0
DWIDTH 4 0
BBX 3 2 0 5
BITMAP
60
E0
ENDCHAR
STARTCHAR uni0095
ENCODING 149
SWIDTH 500 0
DWIDTH 4 0
BBX 1 1 1 3
BITMAP
80
ENDCHAR
STARTCHAR uni0096
ENCODING 150
SWIDTH 500 0
DWIDTH 4 0
BBX 3 1 0 3
BITMAP
E0
ENDCHAR
STARTCHAR uni0097
ENCODING 151
SWIDTH 500 0
DWIDTH 4 0
BBX 3 1 0 3
BITMAP
E0
ENDCHAR
STARTCHAR uni0098
ENCODING 152
SWIDTH 500 0
DWIDTH 4 0
BBX 3 2 0 5
BITMAP
60
C0
ENDCHAR
STARTCHAR uni0099
ENCODING 153
SWIDTH 500 0
DWIDTH 4 0
BBX 3 3 0 4
BITMAP
E0
E0
A0
ENDCHAR
STARTCHAR uni009A
ENCODING 154
SWIDTH 500 0
DWIDTH 4 0
BBX 3 8 0 0
BITMAP
A0
40
00
E0
80
E0
20
E0
ENDCHAR
STARTCHAR uni009B
ENCODING 155
SWIDTH 500 0
DWIDTH 4 0
BBX 2 3 0 2
BITMAP
80
40
80
ENDCHAR
STARTCHAR uni009C
ENCODING 156
SWIDTH 500 0
DWIDTH 4 0
BBX 3 5 0 0
BITMAP
E0
E0
E0
C0
E0
ENDCHAR
STARTCHAR uni009D
ENCODING 157
SWIDTH 500 0
DWIDTH 4 0
BBX 3 7 0 0
BITMAP
C0
40
60
C0
40
40
E0
ENDCHAR
STARTCHAR uni009E
ENCODING 158
SWIDTH 500 0
DWIDTH 4 0
BBX 3 9 0 -1
BITMAP
A0
40
00
E0
20
40
20
A0
E0
ENDCHAR
STARTCHAR uni009F
ENCODING 159
SWIDTH 500 0
DWIDTH 4 0
BBX 3 9 0 0
BITMAP
A0
00
A0
A0
A0
E0
40
40
40
ENDCHAR
STARTCHAR uni00A0
ENCODING 160
SWIDTH 500 0
DWIDTH 4 0
BBX 0 0 0 0
BITMAP
ENDCHAR
STARTCHAR uni00A1
ENCODING 161
SWIDTH 500 0
DWIDTH 4 0
BBX 1 6 1 -1
BITMAP
80
00
80
80
80
80
ENDCHAR
STARTCHAR uni00A2
ENCODING 162
SWIDTH 500 0
DWIDTH 4 0
BBX 3 6 0 0
BITMAP
40
E0
A0
80
E0
40
ENDCHAR
STARTCHAR uni00A3
ENCODING 163
SWIDTH 500 0
DWIDTH 4 0
BBX 3 7 0 0
BITMAP
60
40
40
E0
40
40
E0
ENDCHAR
STARTCHAR uni00A4
ENCODING 164
SWIDTH 500 0
DWIDTH 4 0
BBX 3 7 0 0
BITMAP
A0
40
E0
A0
E0
40
A0
ENDCHAR
STARTCHAR uni00A5
ENCODING 165
SWIDTH 500 0
DWIDTH 4 0
BBX 3 7 0 0
BITMAP
A0
A0
40
E0
40
E0
40
ENDCHAR
STARTCHAR uni00A6
ENCODING 166
SWIDTH 500 0
DWIDTH 4 0
BBX 1 7 1 0
BITMAP
80
80
80
00
80
80
80
ENDCHAR
STARTCHAR uni00A7
ENCODING 167
SWIDTH 500 0
DWIDTH 4 0
BBX 3 7 0 0
BITMAP
E0
80
60
A0
C0
20
E0
ENDCHAR
STARTCHAR uni00A8
ENCODING 168
SWIDTH 500 0
DWIDTH 4 0
BBX 3 1 0 6
BITMAP
A0
ENDCHAR
STARTCHAR uni00A9
ENCODING 169
SWIDTH 500 0
DWIDTH 4 0
BBX 3 7 0 0
BITMAP
E0
00
E0
80
E0
00
E0
ENDCHAR
STARTCHAR uni00AA
ENCODING 170
SWIDTH 500 0
DWIDTH 4 0
BBX 3 7 0 0
BITMAP
E0
20
E0
A0
E0
00
E0
ENDCHAR
STARTCHAR uni00AB
ENCODING 171
SWIDTH 500 0
DWIDTH 4 0
BBX 3 3 0 2
BITMAP
60
C0
60
ENDCHAR
STARTCHAR uni00AC
ENCODING 172
SWIDTH 500 0
DWIDTH 4 0
BBX 3 4 0 0
BITMAP
E0
20
20
20
ENDCHAR
STARTCHAR uni00AD
ENCODING 173
SWIDTH 500 0
DWIDTH 4 0
BBX 3 1 0 3
BITMAP
E0
ENDCHAR
STARTCHAR uni00AE
ENCODING 174
SWIDTH 500 0
DWIDTH 4 0
BBX 3 7 0 0
BITMAP
E0
00
E0
A0
80
00
E0
ENDCHAR
STARTCHAR uni00AF
ENCODING 175
SWIDTH 500 0
DWIDTH 4 0
BBX 3 1 0 6
BITMAP
E0
ENDCHAR
STARTCHAR uni00B0
ENCODING 176
SWIDTH 500 0
DWIDTH 4 0
BBX 3 3 0 4
BITMAP
E0
A0
E0
ENDCHAR
STARTCHAR uni00B1
ENCODING 177
SWIDTH 500 0
DWIDTH 4 0
BBX 3 7 0 0
BITMAP
40
40
E0
40
40
00
E0
ENDCHAR
STARTCHAR uni00B2
ENCODING 178
SWIDTH 500 0
DWIDTH 4 0
BBX 3 5 0 3
BITMAP
E0
20
E0
80
E0
ENDCHAR
STARTCHAR uni00B3
ENCODING 179
SWIDTH 500 0
DWIDTH 4 0
BBX 3 5 0 3
BITMAP
E0
20
E0
20
E0
ENDCHAR
STARTCHAR uni00B4
ENCODING 180
SWIDTH 500 0
DWIDTH 4 0
BBX 2 2 1 5
BITMAP
40
80
ENDCHAR
STARTCHAR uni00B5
ENCODING 181
SWIDTH 500 0
DWIDTH 4 0
BBX 3 6 0 -1
BITMAP
A0
A0
A0
A0
E0
80
ENDCHAR
STARTCHAR uni00B6
ENCODING 182
SWIDTH 500 0
DWIDTH 4 0
BBX 3 8 0 -1
BITMAP
E0
E0
E0
E0
20
20
20
20
ENDCHAR
STARTCHAR uni00B7
ENCODING 183
SWIDTH 500 0
DWIDTH 4 0
BBX 1 1 1 3
BITMAP
80
ENDCHAR
STARTCHAR uni00B8
ENCODING 184
SWIDTH 500 0
DWIDTH 4 0
BBX 1 2 1 -1
BITMAP
80
80
ENDCHAR
STARTCHAR uni00B9
ENCODING 185
SWIDTH 500 0
DWIDTH 4 0
BBX 3 5 0 3
BITMAP
C0
40
40
40
E0
ENDCHAR
STARTCHAR uni00BA
ENCODING 186
SWIDTH 500 0
DWIDTH 4 0
BBX 3 7 0 0
BITMAP
E0
A0
A0
A0
E0
00
E0
ENDCHAR
STARTCHAR uni00BB
ENCODING 187
SWIDTH 500 0
DWIDTH 4 0
BBX 3 3 0 2
BITMAP
C0
60
C0
ENDCHAR
STARTCHAR uni00BC
ENCODING 188
SWIDTH 500 0
DWIDTH 4 0
BBX 3 9 0 -1
BITMAP
C0
40
40
E0
00
A0
A0
E0
20
ENDCHAR
STARTCHAR uni00BD
ENCODING 189
SWIDTH 500 0
DWIDTH 4 0
BBX 3 9 0 -1
BITMAP
C0
40
40
E0
00
E0
20
40
E0
ENDCHAR
STARTCHAR uni00BE
ENCODING 190
SWIDTH 500 0
DWIDTH 4 0
BBX 3 9 0 -1
BITMAP
E0
40
20
E0
00
A0
A0
E0
20
ENDCHAR
STARTCHAR uni00BF
ENCODING 191
SWIDTH 500 0
DWIDTH 4 0
BBX 3 6 0 -1
BITMAP
40
00
C0
80
A0
E0
ENDCHAR
STARTCHAR uni00C0
ENCODING 192
SWIDTH 500 0
DWIDTH 4 0
BBX 3 10 0 0
BITMAP
80
40
00
E0
A0
A0
E0
A0
A0
A0
ENDCHAR
STARTCHAR uni00C1
ENCODING 193
SWIDTH 500 0
DWIDTH 4 0
BBX 3 10 0 0
BITMAP
20
40
00
E0
A0
A0
E0
A0
A0
A0
ENDCHAR
STARTCHAR uni00C2
ENCODING 194
SWIDTH 500 0
DWIDTH 4 0
BBX 3 10 0 0
BITMAP
40
A0
00
E0
A0
A0
E0
A0
A0
A0
ENDCHAR
STARTCHAR uni00C3
ENCODING 195
SWIDTH 500 0
DWIDTH 4 0
BBX 3 10 0 0
BITMAP
60
C0
00
E0
A0
A0
E0
A0
A0
A0
ENDCHAR
STARTCHAR uni00C4
ENCODING 196
SWIDTH 500 0
DWIDTH 4 0
BBX 3 9 0 0
BITMAP
A0
00
E0
A0
A0
E0
A0
A0
A0
ENDCHAR
STARTCHAR uni00C5
ENCODING 197
SWIDTH 500 0
DWIDTH 4 0
BBX 3 10 0 0
BITMAP
40
A0
40
E0
A0
A0
E0
A0
A0
A0
ENDCHAR
STARTCHAR uni00C6
ENCODING 198
SWIDTH 500 0
DWIDTH 4 0
BBX 3 7 0 0
BITMAP
E0
C0
C0
E0
C0
C0
A0
ENDCHAR
STARTCHAR uni00C7
ENCODING 199
SWIDTH 500 0
DWIDTH 4 0
BBX 3 8 0 -1
BITMAP
E0
A0
A0
80
80
80
E0
40
ENDCHAR
STARTCHAR uni00C8
ENCODING 200
SWIDTH 500 0
DWIDTH 4 0
BBX 3 10 0 0
BITMAP
80
40
00
E0
80
80
E0
80
80
E0
ENDCHAR
STARTCHAR uni00C9
ENCODING 201
SWIDTH 500 0
DWIDTH 4 0
BBX 3 10 0 0
BITMAP
20
40
00
E0
80
80
E0
80
80
E0
ENDCHAR
STARTCHAR uni00CA
ENCODING 202
SWIDTH 500 0
DWIDTH 4 0
BBX 3 10 0 0
BITMAP
40
A0
00
E0
80
80
E0
80
80
E0
ENDCHAR
STARTCHAR uni00CB
ENCODING 203
SWIDTH 500 0
DWIDTH 4 0
BBX 3 9 0 0
BITMAP
A0
00
E0
80
80
E0
80
80
E0
ENDCHAR
STARTCHAR uni00CC
ENCODING 204
SWIDTH 500 0
DWIDTH 4 0
BBX 3 10 0 0
BITMAP
80
40
00
E0
40
40
40
40
40
E0
ENDCHAR
STARTCHAR uni00CD
ENCODING 205
SWIDTH 500 0
DWIDTH 4 0
BBX 3 10 0 0
BITMAP
20
40
00
E0
40
40
40
40
40
E0
ENDCHAR
STARTCHAR uni00CE
ENCODING 206
SWIDTH 500 0
DWIDTH 4 0
BBX 3 10 0 0
BITMAP
40
A0
00
E0
40
40
40
40
40
E0
ENDCHAR
STARTCHAR uni00CF
ENCODING 207
SWIDTH 500 0
DWIDTH 4 0
BBX 3 9 0 0
BITMAP
A0
00
E0
40
40
40
40
40
E0
ENDCHAR
STARTCHAR uni00D0
ENCODING 208
SWIDTH 500 0
DWIDTH 4 0
BBX 3 7 0 0
BITMAP
C0
A0
A0
E0
A0
A0
E0
ENDCHAR
STARTCHAR uni00D1
ENCODING 209
SWIDTH 500 0
DWIDTH 4 0
BBX 3 10 0 0
BITMAP
60
C0
00
E0
A0
A0
A0
A0
A0
A0
ENDCHAR
STARTCHAR uni00D2
ENCODING 210
SWIDTH 500 0
DWIDTH 4 0
BBX 3 10 0 0
BITMAP
80
40
00
E0
A0
A0
A0
A0
A0
E0
ENDCHAR
STARTCHAR uni00D3
ENCODING 211
SWIDTH 500 0
DWIDTH 4 0
BBX 3 10 0 0
BITMAP
20
40
00
E0
A0
A0
A0
A0
A0
E0
ENDCHAR
STARTCHAR uni00D4
ENCODING 212
SWIDTH 500 0
DWIDTH 4 0
BBX 3 10 0 0
BITMAP
40
A0
00
E0
A0
A0
A0
A0
A0
E0
ENDCHAR
STARTCHAR uni00D5
ENCODING 213
SWIDTH 500 0
DWIDTH 4 0
BBX 3 10 0 0
BITMAP
60
C0
00
E0
A0
A0
A0
A0
A0
E0
ENDCHAR
STARTCHAR uni00D6
ENCODING 214
SWIDTH 500 0
DWIDTH 4 0
BBX 3 9 0 0
BITMAP
A0
00
E0
A0
A0
A0
A0
A0
E0
ENDCHAR
STARTCHAR uni00D7
ENCODING 215
SWIDTH 500 0
DWIDTH 4 0
BBX 3 5 0 1
BITMAP
A0
A0
40
A0
A0
ENDCHAR
STARTCHAR uni00D8
ENCODING 216
SWIDTH 500 0
DWIDTH 4 0
BBX 3 9 0 -1
BITMAP
20
E0
A0
A0
A0
A0
A0
E0
80
ENDCHAR
STARTCHAR uni00D9
ENCODING 217
SWIDTH 500 0
DWIDTH 4 0
BBX 3 10 0 0
BITMAP
80
40
00
A0
A0
A0
A0
A0
A0
E0
ENDCHAR
STARTCHAR uni00DA
ENCODING 218
SWIDTH 500 0
DWIDTH 4 0
BBX 3 10 0 0
BITMAP
20
40
00
A0
A0
A0
A0
A0
A0
E0
ENDCHAR
STARTCHAR uni00DB
ENCODING 219
SWIDTH 500 0
DWIDTH 4 0
BBX 3 10 0 0
BITMAP
40
A0
00
A0
A0
A0
A0
A0
A0
E0
ENDCHAR
STARTCHAR uni00DC
ENCODING 220
SWIDTH 500 0
DWIDTH 4 0
BBX 3 9 0 0
BITMAP
A0
00
A0
A0
A0
A0
A0
A0
E0
ENDCHAR
STARTCHAR uni00DD
ENCODING 221
SWIDTH 500 0
DWIDTH 4 0
BBX 3 9 0 0
BITMAP
A0
00
A0
A0
A0
E0
40
40
40
ENDCHAR
STARTCHAR uni00DE
ENCODING 222
SWIDTH 500 0
DWIDTH 4 0
BBX 3 7 0 0
BITMAP
80
E0
A0
A0
A0
E0
80
ENDCHAR
STARTCHAR uni00DF
ENCODING 223
SWIDTH 500 0
DWIDTH 4 0
BBX 3 8 0 -1
BITMAP
E0
80
E0
A0
C0
A0
20
E0
ENDCHAR
STARTCHAR uni00E0
ENCODING 224
SWIDTH 500 0
DWIDTH 4 0
BBX 3 8 0 0
BITMAP
80
40
00
E0
20
E0
A0
E0
ENDCHAR
STARTCHAR uni00E1
ENCODING 225
SWIDTH 500 0
DWIDTH 4 0
BBX 3 8 0 0
BITMAP
20
40
00
E0
20
E0
A0
E0
ENDCHAR
STARTCHAR uni00E2
ENCODING 226
SWIDTH 500 0
DWIDTH 4 0
BBX 3 8 0 0
BITMAP
40
A0
00
E0
20
E0
A0
E0
ENDCHAR
STARTCHAR uni00E3
ENCODING 227
SWIDTH 500 0
DWIDTH 4 0
BBX 3 8 0 0
BITMAP
60
C0
00
E0
20
E0
A0
E0
ENDCHAR
STARTCHAR uni00E4
ENCODING 228
SWIDTH 500 0
DWIDTH 4 0
BBX 3 7 0 0
BITMAP
A0
00
E0
20
E0
A0
E0
ENDCHAR
STARTCHAR uni00E5
ENCODING 229
SWIDTH 500 0
DWIDTH 4 0
BBX 3 8 0 0
BITMAP
40
A0
40
E0
20
E0
A0
E0
ENDCHAR
STARTCHAR uni00E6
ENCODING 230
SWIDTH 500 0
DWIDTH 4 0
BBX 3 5 0 0
BITMAP
E0
60
E0
C0
E0
ENDCHAR
STARTCHAR uni00E7
ENCODING 231
SWIDTH 500 0
DWIDTH 4 0
BBX 3 6 0 -1
BITMAP
E0
A0
80
80
E0
40
ENDCHAR
STARTCHAR uni00E8
ENCODING 232
SWIDTH 500 0
DWIDTH 4 0
BBX 3 8 0 0
BITMAP
80
40
00
E0
A0
E0
80
E0
ENDCHAR
STARTCHAR uni00E9
ENCODING 233
SWIDTH 500 0
DWIDTH 4 0
BBX 3 8 0 0
BITMAP
20
40
00
E0
A0
E0
80
E0
ENDCHAR
STARTCHAR uni00EA
ENCODING 234
SWIDTH 500 0
DWIDTH 4 0
BBX 3 8 0 0
BITMAP
40
A0
00
E0
A0
E0
80
E0
ENDCHAR
STARTCHAR uni00EB
ENCODING 235
SWIDTH 500 0
DWIDTH 4 0
BBX 3 7 0 0
BITMAP
A0
00
E0
A0
E0
80
E0
ENDCHAR
STARTCHAR uni00EC
ENCODING 236
SWIDTH 500 0
DWIDTH 4 0
BBX 3 8 0 0
BITMAP
80
40
00
C0
40
40
40
E0
ENDCHAR
STARTCHAR uni00ED
ENCODING 237
SWIDTH 500 0
DWIDTH 4 0
BBX 3 8 0 0
BITMAP
20
40
00
C0
40
40
40
E0
ENDCHAR
STARTCHAR uni00EE
ENCODING 238
SWIDTH 500 0
DWIDTH 4 0
BBX 3 8 0 0
BITMAP
40
A0
00
C0
40
40
40
E0
ENDCHAR
STARTCHAR uni00EF
ENCODING 239
SWIDTH 500 0
DWIDTH 4 0
BBX 3 7 0 0
BITMAP
A0
00
C0
40
40
40
E0
ENDCHAR
STARTCHAR uni00F0
ENCODING 240
SWIDTH 500 0
DWIDTH 4 0
BBX 3 7 0 0
BITMAP
A0
40
20
E0
A0
A0
E0
ENDCHAR
STARTCHAR uni00F1
ENCODING 241
SWIDTH 500 0
DWIDTH 4 0
BBX 3 8 0 0
BITMAP
60
C0
00
E0
A0
A0
A0
A0
ENDCHAR
STARTCHAR uni00F2
ENCODING 242
SWIDTH 500 0
DWIDTH 4 0
BBX 3 8 0 0
BITMAP
80
40
00
E0
A0
A0
A0
E0
ENDCHAR
STARTCHAR uni00F3
ENCODING 243
SWIDTH 500 0
DWIDTH 4 0
BBX 3 8 0 0
BITMAP
20
40
00
E0
A0
A0
A0
E0
ENDCHAR
STARTCHAR uni00F4
ENCODING 244
SWIDTH 500 0
DWIDTH 4 0
BBX 3 8 0 0
BITMAP
40
A0
00
E0
A0
A0
A0
E0
ENDCHAR
STARTCHAR uni00F5
ENCODING 245
SWIDTH 500 0
DWIDTH 4 0
BBX 3 8 0 0
BITMAP
60
C0
00
E0
A0
A0
A0
E0
ENDCHAR
STARTCHAR uni00F6
ENCODING 246
SWIDTH 500 0
DWIDTH 4 0
BBX 3 7 0 0
BITMAP
A0
00
E0
A0
A0
A0
E0
ENDCHAR
STARTCHAR uni00F7
ENCODING 247
SWIDTH 500 0
DWIDTH 4 0
BBX 3 5 0 1
BITMAP
40
00
E0
00
40
ENDCHAR
STARTCHAR uni00F8
ENCODING 248
SWIDTH 500 0
DWIDTH 4 0
BBX 3 7 0 -1
BITMAP
20
E0
A0
A0
A0
E0
80
ENDCHAR
STARTCHAR uni00F9
ENCODING 249
SWIDTH 500 0
DWIDTH 4 0
BBX 3 8 0 0
BITMAP
80
40
00
A0
A0
A0
A0
E0
ENDCHAR
STARTCHAR uni00FA
ENCODING 250
SWIDTH 500 0
DWIDTH 4 0
BBX 3 8 0 0
BITMAP
20
40
00
A0
A0
A0
A0
E0
ENDCHAR
STARTCHAR uni00FB
ENCODING 251
SWIDTH 500 0
DWIDTH 4 0
BBX 3 8 0 0
BITMAP
40
A0
00
A0
A0
A0
A0
E0
ENDCHAR
STARTCHAR uni00FC
ENCODING 252
SWIDTH 500 0
DWIDTH 4 0
BBX 3 7 0 0
BITMAP
A0
00
A0
A0
A0
A0
E0
ENDCHAR
STARTCHAR uni00FD
ENCODING 253
SWIDTH 500 0
DWIDTH 4 0
BBX 3 9 0 -1
BITMAP
20
40
00
A0
A0
E0
20
A0
E0
ENDCHAR
STARTCHAR uni00FE
ENCODING 254
SWIDTH 500 0
DWIDTH 4 0
BBX 3 8 0 -1
BITMAP
80
80
E0
A0
A0
A0
E0
80
ENDCHAR
STARTCHAR uni00FF
ENCODING 255
SWIDTH 500 0
DWIDTH 4 0
BBX 3 8 0 -1
BITMAP
A0
00
A0
A0
E0
20
A0
E0
ENDCHAR
STARTCHAR uni0131
ENCODING 305
SWIDTH 500 0
DWIDTH 4 0
BBX 3 5 0 0
BITMAP
C0
40
40
40
E0
ENDCHAR
STARTCHAR uni0141
ENCODING 321
SWIDTH 500 0
DWIDTH 4 0
BBX 3 7 0 0
BITMAP
80
A0
C0
80
A0
A0
E0
ENDCHAR
STARTCHAR uni0142
ENCODING 322
SWIDTH 500 0
DWIDTH 4 0
BBX 3 7 0 0
BITMAP
C0
40
60
C0
40
40
E0
ENDCHAR
STARTCHAR uni0152
ENCODING 338
SWIDTH 500 0
DWIDTH 4 0
BBX 3 7 0 0
BITMAP
E0
C0
C0
E0
C0
C0
E0
ENDCHAR
STARTCHAR uni0153
ENCODING 339
SWIDTH 500 0
DWIDTH 4 0
BBX 3 5 0 0
BITMAP
E0
E0
E0
C0
E0
ENDCHAR
STARTCHAR uni0160
ENCODING 352
SWIDTH 500 0
DWIDTH 4 0
BBX 3 10 0 0
BITMAP
A0
40
00
E0
A0
80
E0
20
A0
E0
ENDCHAR
STARTCHAR uni0161
ENCODING 353
SWIDTH 500 0
DWIDTH 4 0
BBX 3 8 0 0
BITMAP
A0
40
00
E0
80
E0
20
E0
ENDCHAR
STARTCHAR uni0178
ENCODING 376
SWIDTH 500 0
DWIDTH 4 0
BBX 3 9 0 0
BITMAP
A0
00
A0
A0
A0
E0
40
40
40
ENDCHAR
STARTCHAR uni017D
ENCODING 381
SWIDTH 500 0
DWIDTH 4 0
BBX 3 10 0 0
BITMAP
A0
40
00
E0
20
20
40
80
A0
E0
ENDCHAR
STARTCHAR uni017E
ENCODING 382
SWIDTH 500 0
DWIDTH 4 0
BBX 3 9 0 -1
BITMAP
A0
40
00
E0
20
40
20
A0
E0
ENDCHAR
STARTCHAR uni0192
ENCODING 402
SWIDTH 500 0
DWIDTH 4 0
BBX 3 8 0 -1
BITMAP
60
40
40
E0
40
40
40
C0
ENDCHAR
STARTCHAR uni02C6
ENCODING 710
SWIDTH 500 0
DWIDTH 4 0
BBX 3 2 0 5
BITMAP
40
A0
ENDCHAR
STARTCHAR uni02DC
ENCODING 732
SWIDTH 500 0
DWIDTH 4 0
BBX 3 2 0 5
BITMAP
60
C0
ENDCHAR
STARTCHAR uni2013
ENCODING 8211
SWIDTH 500 0
DWIDTH 4 0
BBX 3 1 0 3
BITMAP
E0
ENDCHAR
STARTCHAR uni2014
ENCODING 8212
SWIDTH 500 0
DWIDTH 4 0
BBX 3 1 0 3
BITMAP
E0
ENDCHAR
STARTCHAR uni2018
ENCODING 8216
SWIDTH 500 0
DWIDTH 4 0
BBX 2 2 1 5
BITMAP
C0
80
ENDCHAR
STARTCHAR uni2019
ENCODING 8217
SWIDTH 500 0
DWIDTH 4 0
BBX 2 2 0 5
BITMAP
40
C0
ENDCHAR
STARTCHAR uni201A
ENCODING 8218
SWIDTH 500 0
DWIDTH 4 0
BBX 2 2 0 -1
BITMAP
40
C0
ENDCHAR
STARTCHAR uni201C
ENCODING 8220
SWIDTH 500 0
DWIDTH 4 0
BBX 3 2 0 5
BITMAP
E0
C0
ENDCHAR
STARTCHAR uni201D
ENCODING 8221
SWIDTH 500 0
DWIDTH 4 0
BBX 3 2 0 5
BITMAP
60
E0
ENDCHAR
STARTCHAR uni201E
ENCODING 8222
SWIDTH 500 0
DWIDTH 4 0
BBX 3 2 0 -1
BITMAP
60
E0
ENDCHAR
STARTCHAR uni2020
ENCODING 8224
SWIDTH 500 0
DWIDTH 4 0
BBX 3 7 0 0
BITMAP
40
E0
40
40
40
40
40
ENDCHAR
STARTCHAR uni2021
ENCODING 8225
SWIDTH 500 0
DWIDTH 4 0
BBX 3 7 0 0
BITMAP
40
E0
40
40
40
E0
40
ENDCHAR
STARTCHAR uni2022
ENCODING 8226
SWIDTH 500 0
DWIDTH 4 0
BBX 1 1 1 3
BITMAP
80
ENDCHAR
STARTCHAR uni2026
ENCODING 8230
SWIDTH 500 0
DWIDTH 4 0
BBX 3 1 0 0
BITMAP
A0
ENDCHAR
STARTCHAR uni2030
ENCODING 8240
SWIDTH 500 0
DWIDTH 4 0
BBX 3 7 0 0
BITMAP
80
A0
40
80
00
A0
A0
ENDCHAR
STARTCHAR uni2039
ENCODING 8249
SWIDTH 500 0
DWIDTH 4 0
BBX 2 3 1 2
BITMAP
40
80
40
ENDCHAR
STARTCHAR uni203A
ENCODING 8250
SWIDTH 500 0
DWIDTH 4 0
BBX 2 3 0 2
BITMAP
80
40
80
ENDCHAR
STARTCHAR uni20AC
ENCODING 8364
SWIDTH 500 0
DWIDTH 4 0
BBX 3 7 0 0
BITMAP
E0
A0
C0
80
C0
80
E0
ENDCHAR
STARTCHAR uni2122
ENCODING 8482
SWIDTH 500 0
DWIDTH 4 0
BBX 3 3 0 4
BITMAP
E0
E0
A0
ENDCHAR
STARTCHAR uni221A
ENCODING 8730
SWIDTH 500 0
DWIDTH 4 0
BBX 3 7 0 0
BITMAP
20
20
20
A0
C0
40
40
ENDCHAR
STARTCHAR uni2248
ENCODING 8776
SWIDTH 500 0
DWIDTH 4 0
BBX 3 5 0 1
BITMAP
60
C0
00
60
C0
ENDCHAR
STARTCHAR uni2260
ENCODING 8800
SWIDTH 500 0
DWIDTH 4 0
BBX 3 5 0 1
BITMAP
20
E0
40
E0
80
ENDCHAR
STARTCHAR uni2264
ENCODING 8804
SWIDTH 500 0
DWIDTH 4 0
BBX 3 7 0 0
BITMAP
20
40
80
40
20
00
E0
ENDCHAR
STARTCHAR uni2265
ENCODING 8805
SWIDTH 500 0
DWIDTH 4 0
BBX 3 7 0 0
BITMAP
80
40
20
40
80
00
E0
ENDCHAR
STARTCHAR uni2318
ENCODING 8984
SWIDTH 375 0
DWIDTH 3 0
BBX 3 3 0 1
BITMAP
A0
00
A0
ENDCHAR
STARTCHAR uni25CA
ENCODING 9674
SWIDTH 500 0
DWIDTH 4 0
BBX 3 7 0 0
BITMAP
40
40
A0
A0
A0
40
40
ENDCHAR
ENDFONT
