STARTFONT 2.1
FONT Yarndings20-Regular-24px
SIZE 24 75 75
FONTBOUNDINGBOX 21 20 0 0
STARTPROPERTIES 3
PIXEL_SIZE 24
FONT_ASCENT 22
FONT_DESCENT 2
ENDPROPERTIES
CHARS 93
STARTCHAR uni0020
ENCODING 32
SWIDTH 208 0
DWIDTH 5 0
BBX 1 1 0 0
BITMAP
00
ENDCHAR
STARTCHAR uni0021
ENCODING 33
SWIDTH 667 0
DWIDTH 16 0
BBX 14 14 1 3
BITMAP
0FC0
3FF0
7FF8
7FF8
FFFC
FFFC
FFFC
FFFC
FFFC
FFFC
7FF8
7FF8
3FF0
0FC0
ENDCHAR
STARTCHAR uni0022
ENCODING 34
SWIDTH 750 0
DWIDTH 18 0
BBX 16 16 1 2
BITMAP
03C0
03C0
03C0
03C0
03C0
03C0
FFFF
FFFF
FFFF
FFFF
03C0
03C0
03C0
03C0
03C0
03C0
ENDCHAR
STARTCHAR uni0023
ENCODING 35
SWIDTH 583 0
DWIDTH 14 0
BBX 12 12 1 4
BITMAP
0010
0030
0070
00F0
01F0
03F0
07F0
0FF0
1FF0
3FF0
7FF0
FFF0
ENDCHAR
STARTCHAR uni0027
ENCODING 39
SWIDTH 833 0
DWIDTH 20 0
BBX 18 18 1 1
BITMAP
03F000
03F000
033000
033000
033000
033000
FF3FC0
FF3FC0
C000C0
C000C0
FF3FC0
FF3FC0
033000
033000
033000
033000
03F000
03F000
ENDCHAR
STARTCHAR uni0028
ENCODING 40
SWIDTH 500 0
DWIDTH 12 0
BBX 10 16 1 2
BITMAP
FFC0
FFC0
FFC0
FFC0
FFC0
FFC0
FFC0
FFC0
FFC0
FFC0
FFC0
FFC0
FFC0
FFC0
FFC0
FFC0
ENDCHAR
STARTCHAR uni0029
ENCODING 41
SWIDTH 500 0
DWIDTH 12 0
BBX 10 16 1 2
BITMAP
FFC0
FFC0
C0C0
C0C0
C0C0
C0C0
C0C0
C0C0
C0C0
C0C0
C0C0
C0C0
C0C0
C0C0
FFC0
FFC0
ENDCHAR
STARTCHAR uni002A
ENCODING 42
SWIDTH 583 0
DWIDTH 14 0
BBX 12 12 1 4
BITMAP
8000
C000
E000
F000
F800
FC00
FE00
FF00
FF80
FFC0
FFE0
FFF0
ENDCHAR
STARTCHAR uni002B
ENCODING 43
SWIDTH 583 0
DWIDTH 14 0
BBX 12 18 1 1
BITMAP
F0F0
F0F0
F0F0
F0F0
0F00
0F00
0F00
0F00
0F00
0F00
0F00
0F00
0F00
0F00
F0F0
F0F0
F0F0
F0F0
ENDCHAR
STARTCHAR uni002C
ENCODING 44
SWIDTH 583 0
DWIDTH 14 0
BBX 12 12 1 4
BITMAP
FFF0
FFF0
FFF0
FFF0
FFF0
FFF0
FFF0
FFF0
FFF0
FFF0
FFF0
FFF0
ENDCHAR
STARTCHAR uni002D
ENCODING 45
SWIDTH 208 0
DWIDTH 5 0
BBX 3 16 1 2
BITMAP
E0
E0
E0
E0
E0
E0
E0
E0
E0
E0
E0
E0
E0
E0
E0
E0
ENDCHAR
STARTCHAR uni002E
ENCODING 46
SWIDTH 417 0
DWIDTH 10 0
BBX 8 8 1 6
BITMAP
3C
7E
FF
FF
FF
FF
7E
3C
ENDCHAR
STARTCHAR uni002F
ENCODING 47
SWIDTH 583 0
DWIDTH 14 0
BBX 12 12 1 4
BITMAP
FFF0
FFE0
FFC0
FF80
FF00
FE00
FC00
F800
F000
E000
C000
8000
ENDCHAR
STARTCHAR uni0030
ENCODING 48
SWIDTH 583 0
DWIDTH 14 0
BBX 12 12 1 4
BITMAP
F0F0
F0F0
F0F0
F0F0
0F00
0F00
0F00
0F00
F0F0
F0F0
F0F0
F0F0
ENDCHAR
STARTCHAR uni0031
ENCODING 49
SWIDTH 583 0
DWIDTH 14 0
BBX 12 12 1 4
BITMAP
0F00
0F00
0F00
0F00
F0F0
F0F0
F0F0
F0F0
0F00
0F00
0F00
0F00
ENDCHAR
STARTCHAR uni0032
ENCODING 50
SWIDTH 583 0
DWIDTH 14 0
BBX 12 12 1 4
BITMAP
0F00
0F00
0F00
0F00
FFF0
FFF0
FFF0
FFF0
0F00
0F00
0F00
0F00
ENDCHAR
STARTCHAR uni0033
ENCODING 51
SWIDTH 708 0
DWIDTH 17 0
BBX 15 15 1 2
BITMAP
1C70
1C70
1C70
FC7E
FC7E
FC7E
0380
0380
0380
FC7E
FC7E
FC7E
1C70
1C70
1C70
ENDCHAR
STARTCHAR uni0034
ENCODING 52
SWIDTH 708 0
DWIDTH 17 0
BBX 15 15 1 2
BITMAP
1FF0
1FF0
1FF0
E38E
E38E
E38E
FC7E
FC7E
FC7E
E38E
E38E
E38E
1FF0
1FF0
1FF0
ENDCHAR
STARTCHAR uni0035
ENCODING 53
SWIDTH 708 0
DWIDTH 17 0
BBX 15 15 1 2
BITMAP
0380
0380
0380
1FF0
1FF0
1FF0
FC7E
FC7E
FC7E
1FFE
1FF0
1FF0
0380
0380
0380
ENDCHAR
STARTCHAR uni0036
ENCODING 54
SWIDTH 833 0
DWIDTH 20 0
BBX 18 18 1 1
BITMAP
FFFFC0
FFFFC0
FFFFC0
FFFFC0
F003C0
F003C0
F0C3C0
F0C3C0
F3F3C0
F3F3C0
F0C3C0
F0C3C0
F003C0
F003C0
FFFFC0
FFFFC0
FFFFC0
FFFFC0
ENDCHAR
STARTCHAR uni0037
ENCODING 55
SWIDTH 833 0
DWIDTH 20 0
BBX 18 18 1 1
BITMAP
073800
073800
073800
073800
073800
FF3FC0
FF3FC0
FF3FC0
000000
000000
FF3FC0
FF3FC0
FF3FC0
073800
073800
073800
073800
073800
ENDCHAR
STARTCHAR uni0038
ENCODING 56
SWIDTH 833 0
DWIDTH 20 0
BBX 18 18 1 1
BITMAP
073800
073800
3F3F00
3F3F00
3F3F00
F807C0
F807C0
F9E7C0
01E000
01E000
F9E7C0
F807C0
F807C0
3F3F00
3F3F00
3F3F00
073800
073800
ENDCHAR
STARTCHAR uni0039
ENCODING 57
SWIDTH 792 0
DWIDTH 19 0
BBX 17 17 1 1
BITMAP
01C000
03E000
07F000
0FF800
11C400
31C600
71C700
FE3F80
FE3F80
FE3F80
71C700
31C600
11C400
0FF800
07F000
03E000
01C000
ENDCHAR
STARTCHAR uni003A
ENCODING 58
SWIDTH 583 0
DWIDTH 14 0
BBX 12 12 1 4
BITMAP
FFF0
FFF0
FFF0
FFF0
F0F0
F0F0
F0F0
F0F0
FFF0
FFF0
FFF0
FFF0
ENDCHAR
STARTCHAR uni003B
ENCODING 59
SWIDTH 583 0
DWIDTH 14 0
BBX 12 12 1 4
BITMAP
FFF0
FFF0
C030
C030
C030
C030
C030
C030
C030
C030
FFF0
FFF0
ENDCHAR
STARTCHAR uni003C
ENCODING 60
SWIDTH 583 0
DWIDTH 14 0
BBX 12 18 1 1
BITMAP
0F00
0F00
0F00
0F00
F0F0
F0F0
F0F0
F0F0
0F00
0F00
F0F0
F0F0
F0F0
F0F0
0F00
0F00
0F00
0F00
ENDCHAR
STARTCHAR uni003D
ENCODING 61
SWIDTH 583 0
DWIDTH 14 0
BBX 12 18 1 1
BITMAP
0F00
0F00
0F00
0F00
F0F0
F0F0
F0F0
F0F0
F0F0
F0F0
F0F0
F0F0
F0F0
F0F0
0F00
0F00
0F00
0F00
ENDCHAR
STARTCHAR uni003E
ENCODING 62
SWIDTH 708 0
DWIDTH 17 0
BBX 15 20 1 0
BITMAP
1C70
1C70
1C70
FC7E
FC7E
FC7E
0380
0380
0380
0380
0380
0380
0380
0380
FC7E
FC7E
FC7E
1C70
1C70
1C70
ENDCHAR
STARTCHAR uni003F
ENCODING 63
SWIDTH 667 0
DWIDTH 16 0
BBX 14 14 1 3
BITMAP
0FC0
3FF0
7038
6018
C00C
C00C
C00C
C00C
C00C
C01C
6018
7038
3FF0
0FC0
ENDCHAR
STARTCHAR uni0041
ENCODING 65
SWIDTH 917 0
DWIDTH 22 0
BBX 20 20 1 0
BITMAP
00F000
00F000
00F000
00F000
00F000
00F000
00F000
00F000
FF0FF0
FF0FF0
FF0FF0
FF0FF0
00F000
00F000
00F000
00F000
00F000
00F000
00F000
00F000
ENDCHAR
STARTCHAR uni0042
ENCODING 66
SWIDTH 917 0
DWIDTH 22 0
BBX 20 20 1 0
BITMAP
01F800
01F800
01F800
01F800
01F800
01F800
01F800
FE07F0
FE07F0
FE07F0
FE07F0
FE07F0
FE07F0
01F800
01F800
01F800
01F800
01F800
01F800
01F800
ENDCHAR
STARTCHAR uni0043
ENCODING 67
SWIDTH 917 0
DWIDTH 22 0
BBX 20 20 1 0
BITMAP
01F800
01F800
006000
006000
006000
006000
006000
C06030
C06030
FFFFF0
FFFFF0
C06030
C06030
006000
006000
006000
006000
006000
01F800
01F800
ENDCHAR
STARTCHAR uni0044
ENCODING 68
SWIDTH 917 0
DWIDTH 22 0
BBX 20 20 1 0
BITMAP
07FE00
03FC00
01F800
01F800
00F000
80F010
C06030
F060F0
FC63F0
FFFFF0
FFFFF0
FC63F0
F060F0
C06030
80F010
00F000
01F800
01F800
03FC00
07FE00
ENDCHAR
STARTCHAR uni0045
ENCODING 69
SWIDTH 917 0
DWIDTH 22 0
BBX 20 20 1 0
BITMAP
00F000
01F800
01F800
01F800
01F800
00F000
00F000
7861E0
FE67F0
FFFFF0
FFFFF0
FE67F0
7861E0
00F000
00F000
01F800
01F800
01F800
01F800
00F000
ENDCHAR
STARTCHAR uni0046
ENCODING 70
SWIDTH 917 0
DWIDTH 22 0
BBX 20 20 1 0
BITMAP
00F000
01F800
03FC00
03FC00
01F800
00F000
3060C0
7861E0
FCF3F0
FFFFF0
FFFFF0
FCF3F0
7861E0
3060C0
00F000
01F800
03FC00
03FC00
01F800
00F000
ENDCHAR
STARTCHAR uni0047
ENCODING 71
SWIDTH 917 0
DWIDTH 22 0
BBX 20 20 1 0
BITMAP
00F000
01F800
03FC00
03FC00
03FC00
01F800
38F1C0
7C63E0
FE67F0
FFFFF0
FFFFF0
FE67F0
7C63E0
38F1C0
01F800
03FC00
03FC00
03FC00
01F800
00F000
ENDCHAR
STARTCHAR uni0048
ENCODING 72
SWIDTH 917 0
DWIDTH 22 0
BBX 20 20 1 0
BITMAP
00F000
01F800
1DFB80
3EF7C0
3E67C0
3E67C0
1F6F80
63FC60
F1F8F0
FFFFF0
FFFFF0
F1F8F0
63FC60
1F6F80
3E67C0
3E67C0
3EF7C0
1DFB80
01F800
00F000
ENDCHAR
STARTCHAR uni0049
ENCODING 73
SWIDTH 917 0
DWIDTH 22 0
BBX 20 20 1 0
BITMAP
00F000
01F800
1DFB80
3EF7C0
3E67C0
3E67C0
1E0780
61F860
F1F8F0
FDFBF0
FDFBF0
F1F8F0
61F860
1E0780
3E67C0
3E67C0
3EF7C0
1DFB80
01F800
00F000
ENDCHAR
STARTCHAR uni004A
ENCODING 74
SWIDTH 875 0
DWIDTH 21 0
BBX 19 19 1 0
BITMAP
01B000
01B000
01B000
01B000
01B000
01B000
01B000
FFBFE0
FFBFE0
000000
FFBFE0
FFBFE0
01B000
01B000
01B000
01B000
01B000
01B000
01B000
ENDCHAR
STARTCHAR uni004B
ENCODING 75
SWIDTH 583 0
DWIDTH 14 0
BBX 12 12 1 4
BITMAP
4020
E070
70E0
39C0
1F80
0F00
0F00
1F80
39C0
70E0
E070
4020
ENDCHAR
STARTCHAR uni004C
ENCODING 76
SWIDTH 833 0
DWIDTH 20 0
BBX 18 18 1 1
BITMAP
C000C0
E001C0
700380
380700
1C0E00
0E1C00
073800
03F000
01E000
01E000
03F000
073800
0E1C00
1C0E00
380700
700380
E001C0
C000C0
ENDCHAR
STARTCHAR uni004D
ENCODING 77
SWIDTH 833 0
DWIDTH 20 0
BBX 18 18 1 1
BITMAP
C000C0
E001C0
700380
380700
1C0E00
0C0C00
021000
01E000
01E000
01E000
01E000
021000
0C0C00
1C0E00
380700
700380
E001C0
C000C0
ENDCHAR
STARTCHAR uni004E
ENCODING 78
SWIDTH 583 0
DWIDTH 14 0
BBX 12 12 1 4
BITMAP
4020
E070
6060
1080
0F00
0F00
0F00
0F00
1080
6060
E070
4020
ENDCHAR
STARTCHAR uni004F
ENCODING 79
SWIDTH 708 0
DWIDTH 17 0
BBX 15 17 1 1
BITMAP
3018
3838
DC76
EEEE
77DC
3BB8
1D70
0EE0
07C0
0EE0
1D70
3BB8
77DC
EEEE
DC76
3838
3018
ENDCHAR
STARTCHAR uni0050
ENCODING 80
SWIDTH 792 0
DWIDTH 19 0
BBX 17 17 1 1
BITMAP
780F00
BC1E80
DE3D80
EF7B80
F77780
7B6F00
3D5E00
1E3C00
000000
1E3C00
3D5E00
7B6F00
F77780
EF7B80
DE3D80
BC1E80
780F00
ENDCHAR
STARTCHAR uni0051
ENCODING 81
SWIDTH 917 0
DWIDTH 22 0
BBX 20 20 1 0
BITMAP
006000
206040
7060E0
3861C0
1C6380
0E6700
076E00
036C00
000000
FF6FF0
FF6FF0
000000
036C00
076E00
0E6700
1C6380
3861C0
7060E0
206040
006000
ENDCHAR
STARTCHAR uni0052
ENCODING 82
SWIDTH 708 0
DWIDTH 17 0
BBX 15 19 1 0
BITMAP
3838
7C7C
EEEE
C6C6
E6CE
711C
3398
67CC
6EEC
1C70
6EEC
67CC
3398
711C
E6CE
C6C6
EEEE
7C7C
3838
ENDCHAR
STARTCHAR uni0053
ENCODING 83
SWIDTH 917 0
DWIDTH 22 0
BBX 20 20 1 0
BITMAP
00F000
21F840
71F8E0
39F9C0
1DFB80
0EF700
07FE00
7B6DE0
FE07F0
FF6FF0
FF6FF0
FE07F0
7B6DE0
07FE00
0EF700
1DFB80
39F9C0
71F8E0
21F840
00F000
ENDCHAR
STARTCHAR uni0054
ENCODING 84
SWIDTH 917 0
DWIDTH 22 0
BBX 20 20 1 0
BITMAP
01F800
01F800
01F800
09F900
1DFB80
0FFF00
07FE00
FF9FF0
FFFFF0
FEF7F0
FEF7F0
FFFFF0
FF9FF0
07FE00
0FFF00
1DFB80
09F900
01F800
01F800
01F800
ENDCHAR
STARTCHAR uni0055
ENCODING 85
SWIDTH 875 0
DWIDTH 21 0
BBX 19 19 1 0
BITMAP
00E000
01F000
3BFB80
3BFB80
3BFB80
05F400
3AEB80
7D17C0
FEEFE0
FEEFE0
FEEFE0
7D17C0
3AEB80
05F400
3BFB80
3BFB80
3BFB80
01F000
00E000
ENDCHAR
STARTCHAR uni0056
ENCODING 86
SWIDTH 917 0
DWIDTH 22 0
BBX 20 20 1 0
BITMAP
00F000
00F000
00F000
00F000
60F060
F8F1F0
FEF7F0
FFFFF0
3FFFC0
0FFF00
0FFF00
3FFFC0
FFFFF0
FEF7F0
F8F1F0
60F060
00F000
00F000
00F000
00F000
ENDCHAR
STARTCHAR uni0057
ENCODING 87
SWIDTH 917 0
DWIDTH 22 0
BBX 20 20 1 0
BITMAP
006000
006000
00F000
00F000
01F800
01F800
01F800
0FFF00
3FFFC0
FFFFF0
FFFFF0
3FFFC0
0FFF00
01F800
01F800
01F800
00F000
00F000
006000
006000
ENDCHAR
STARTCHAR uni0058
ENCODING 88
SWIDTH 917 0
DWIDTH 22 0
BBX 20 20 1 0
BITMAP
006000
006000
00F000
009000
019800
019800
039C00
0F9F00
3F9FC0
E06070
E06070
3F9FC0
0F9F00
039C00
019800
019800
009000
00F000
006000
006000
ENDCHAR
STARTCHAR uni0059
ENCODING 89
SWIDTH 667 0
DWIDTH 16 0
BBX 14 14 1 2
BITMAP
0C00
0E00
0F00
0F00
073C
037C
3CF8
7CF0
FB00
F380
03C0
03C0
01C0
00C0
ENDCHAR
STARTCHAR uni005A
ENCODING 90
SWIDTH 500 0
DWIDTH 12 0
BBX 10 10 1 4
BITMAP
1800
1C00
1C00
0DC0
73C0
F380
EC00
0E00
0E00
0600
ENDCHAR
STARTCHAR uni005B
ENCODING 91
SWIDTH 875 0
DWIDTH 21 0
BBX 19 17 1 1
BITMAP
3C0780
7E0FC0
FE0FE0
FE0FE0
FDF7E0
7FFFC0
3FFF80
18E300
314580
334D80
334D80
38E380
3FBF80
1EFF00
1F1F00
0FFE00
03F800
ENDCHAR
STARTCHAR uni005C
ENCODING 92
SWIDTH 583 0
DWIDTH 14 0
BBX 12 12 1 4
BITMAP
FFF0
7FF0
3FF0
1FF0
0FF0
07F0
03F0
01F0
00F0
0070
0030
0010
ENDCHAR
STARTCHAR uni005D
ENCODING 93
SWIDTH 875 0
DWIDTH 21 0
BBX 19 17 1 1
BITMAP
3C0780
7E0FC0
FE0FE0
FE0FE0
FDF7E0
7FFFC0
3FFF80
18E300
345180
365980
365980
38E380
3FBF80
1FEF00
1F1F00
0FFE00
03F800
ENDCHAR
STARTCHAR uni005F
ENCODING 95
SWIDTH 250 0
DWIDTH 6 0
BBX 4 12 1 4
BITMAP
F0
F0
F0
F0
F0
F0
F0
F0
F0
F0
F0
F0
ENDCHAR
STARTCHAR uni0061
ENCODING 97
SWIDTH 875 0
DWIDTH 21 0
BBX 19 19 1 0
BITMAP
07BC00
0FBE00
0FFE00
0DB200
74A5C0
FE0FE0
E60CE0
F151E0
F8E3E0
21F080
F8E3E0
F151E0
E60CE0
FE0FE0
74A5C0
0DB600
0FFE00
0FBE00
07BC00
ENDCHAR
STARTCHAR uni0062
ENCODING 98
SWIDTH 792 0
DWIDTH 19 0
BBX 17 20 1 0
BITMAP
01C000
03E000
07F000
07F000
07F000
3BEE00
7DDF00
FE3F80
FE3F80
FE3F80
7DDF00
3BEE00
07F000
07F000
07F000
33E600
39CE00
1C9C00
0FF800
07F000
ENDCHAR
STARTCHAR uni0063
ENCODING 99
SWIDTH 792 0
DWIDTH 19 0
BBX 17 20 1 0
BITMAP
063000
0F7800
0F7800
0F7800
777700
FAAF80
FDDF80
7BEF00
07F000
7BEF00
FDDF80
FAAF80
777700
0F7800
0F7800
0F7800
66B300
71C700
3FFE00
1FFC00
ENDCHAR
STARTCHAR uni0064
ENCODING 100
SWIDTH 750 0
DWIDTH 18 0
BBX 16 19 1 0
BITMAP
03C0
07E0
37EC
7BDE
FFFF
FFFF
FFFF
FE7F
7C3E
1C38
7C3E
FE7F
FFFF
FFFF
FFFF
7BDE
37EC
07E0
03C0
ENDCHAR
STARTCHAR uni0065
ENCODING 101
SWIDTH 875 0
DWIDTH 21 0
BBX 19 19 1 0
BITMAP
031800
07BC00
07BC00
07BC00
07BC00
7BBBC0
FDF7E0
FF1FE0
7E0FC0
020800
7E0FC0
FF1FE0
FDF7E0
7BBBC0
07BC00
07BC00
07BC00
07BC00
031800
ENDCHAR
STARTCHAR uni0066
ENCODING 102
SWIDTH 583 0
DWIDTH 14 0
BBX 12 20 1 0
BITMAP
0600
0F00
0F00
39C0
70E0
70E0
39C0
0F00
0F00
0600
0000
8610
C630
E670
F6F0
F6F0
F6F0
76E0
36C0
1680
ENDCHAR
STARTCHAR uni0067
ENCODING 103
SWIDTH 833 0
DWIDTH 20 0
BBX 18 19 1 0
BITMAP
0CCC00
0CCC00
03F000
03F000
0F3C00
0F3C00
03F000
03F000
00C000
F0C3C0
F8C7C0
7CCF80
3CCF00
03F000
03F000
00C000
00C000
0FFC00
0FFC00
ENDCHAR
STARTCHAR uni0068
ENCODING 104
SWIDTH 625 0
DWIDTH 15 0
BBX 13 19 1 0
BITMAP
0200
0700
0F80
1FC0
3DE0
3DE0
7570
7AF0
FDF8
EDB8
F578
FAF8
DDD8
EDB8
7570
3AE0
1DC0
0D80
0500
ENDCHAR
STARTCHAR uni0069
ENCODING 105
SWIDTH 875 0
DWIDTH 21 0
BBX 19 19 1 0
BITMAP
020800
531940
23B880
53B940
0BBA00
05B400
FAABE0
7D17C0
3E4F80
00A000
3E4F80
7D17C0
FAABE0
05B400
0BBA00
53B940
23B880
531940
020800
ENDCHAR
STARTCHAR uni006A
ENCODING 106
SWIDTH 875 0
DWIDTH 21 0
BBX 19 19 1 0
BITMAP
040400
060C00
071C00
07BC00
07BC00
FBBBE0
7DB7C0
3EAF80
1F1F00
004000
1F1F00
3EAF80
7DB7C0
FBBBE0
07BC00
07BC00
071C00
060C00
040400
ENDCHAR
STARTCHAR uni006B
ENCODING 107
SWIDTH 833 0
DWIDTH 20 0
BBX 18 18 1 1
BITMAP
00C000
00C000
03F000
03F000
00C000
00C000
33F300
33F300
FFFFC0
FFFFC0
33F300
33F300
00C000
00C000
03F000
03F000
00C000
00C000
ENDCHAR
STARTCHAR uni006C
ENCODING 108
SWIDTH 875 0
DWIDTH 21 0
BBX 19 19 1 0
BITMAP
004000
40E040
284280
10E100
284280
044400
02E800
015000
26EC80
FBFBE0
26EC80
015000
02E800
044400
284280
10E100
284280
40E040
004000
ENDCHAR
STARTCHAR uni006D
ENCODING 109
SWIDTH 792 0
DWIDTH 19 0
BBX 17 17 1 1
BITMAP
041000
0E3800
1F7C00
2F7A00
777700
FB6F80
7D5F00
3E3E00
008000
3E3E00
7D5F00
FB6F80
777700
2F7A00
1F7C00
0E3800
041000
ENDCHAR
STARTCHAR uni006E
ENCODING 110
SWIDTH 917 0
DWIDTH 22 0
BBX 20 20 1 0
BITMAP
006000
226440
756AE0
38F1C0
1C6380
2E6740
476E20
23FC40
11F880
FFFFF0
FFFFF0
11F880
23FC40
476E20
2E6740
1C6380
38F1C0
756AE0
226440
006000
ENDCHAR
STARTCHAR uni006F
ENCODING 111
SWIDTH 875 0
DWIDTH 21 0
BBX 19 19 1 0
BITMAP
004000
00E000
01F000
03F800
004000
004000
13F900
33F980
73B9C0
FF1FE0
73B9C0
33F980
13F900
004000
004000
03F800
01F000
00E000
004000
ENDCHAR
STARTCHAR uni0070
ENCODING 112
SWIDTH 792 0
DWIDTH 19 0
BBX 17 17 1 1
BITMAP
008000
01C000
036000
06B000
0DD800
1EBC00
377600
6BEB00
DDDD80
6BEB00
377600
1EBC00
0DD800
06B000
036000
01C000
008000
ENDCHAR
STARTCHAR uni0071
ENCODING 113
SWIDTH 875 0
DWIDTH 21 0
BBX 19 19 1 0
BITMAP
040400
060C00
071C00
07BC00
07FC00
F843E0
78E3C0
39F380
1BBB00
0F1E00
1BBB00
39F380
78E3C0
F843E0
07FC00
07BC00
071C00
060C00
040400
ENDCHAR
STARTCHAR uni0072
ENCODING 114
SWIDTH 875 0
DWIDTH 21 0
BBX 19 19 1 0
BITMAP
004000
00E000
01F000
03B800
071C00
0E4E00
1CE700
39F380
73B9C0
E71CE0
73B9C0
39F380
1CE700
0E4E00
071C00
03B800
01F000
00E000
004000
ENDCHAR
STARTCHAR uni0073
ENCODING 115
SWIDTH 708 0
DWIDTH 17 0
BBX 15 15 1 3
BITMAP
8382
47C4
2FE8
17D0
2BA8
755C
FABE
FD7E
FABE
755C
2BA8
17D0
2FE8
47C4
8382
ENDCHAR
STARTCHAR uni0074
ENCODING 116
SWIDTH 708 0
DWIDTH 17 0
BBX 15 15 1 3
BITMAP
0380
07C0
0FE0
17D0
2BA8
755C
FABE
FD7E
FABE
755C
2BA8
17D0
0FE0
07C0
0380
ENDCHAR
STARTCHAR uni0075
ENCODING 117
SWIDTH 708 0
DWIDTH 17 0
BBX 15 14 1 3
BITMAP
0FE0
3FF8
7FFC
7FFC
F39E
F39E
FFFE
FFFE
EFEE
F7DE
783C
7FFC
3FF8
0FE0
ENDCHAR
STARTCHAR uni0076
ENCODING 118
SWIDTH 708 0
DWIDTH 17 0
BBX 15 14 1 3
BITMAP
0FE0
3FF8
7FFC
7FFC
F39E
F39E
FFFE
FFFE
F83E
F7DE
6FEC
7FFC
3FF8
0FE0
ENDCHAR
STARTCHAR uni0077
ENCODING 119
SWIDTH 708 0
DWIDTH 17 0
BBX 15 15 1 2
BITMAP
0FE0
3FF8
7FFC
7FFC
E7CE
E38E
F39E
FFFE
FFFE
7FFC
3C78
1FF0
0FE0
07C0
0380
ENDCHAR
STARTCHAR uni0078
ENCODING 120
SWIDTH 833 0
DWIDTH 20 0
BBX 18 17 1 2
BITMAP
01E000
01E000
00C000
3FFF00
3FFF00
3FFF00
F8C7C0
FAD7C0
FAD7C0
F8C7C0
FFFFC0
3FFF00
3F3F00
3FFF00
3FFF00
01E000
01E000
ENDCHAR
STARTCHAR uni0079
ENCODING 121
SWIDTH 875 0
DWIDTH 21 0
BBX 19 17 1 1
BITMAP
3E0F80
7F1FC0
FFBFE0
FFFFE0
FFFFE0
FFFFE0
FFFFE0
FFFFE0
7FFFC0
3FFF80
1FFF00
0FFE00
07FC00
03F800
01F000
00E000
004000
ENDCHAR
STARTCHAR uni007A
ENCODING 122
SWIDTH 875 0
DWIDTH 21 0
BBX 19 17 1 1
BITMAP
3E0F80
7F1FC0
E3B8E0
C1F060
C0E060
C04060
C00060
E000E0
7001C0
380380
1C0700
0E0E00
071C00
03B800
01F000
00E000
004000
ENDCHAR
STARTCHAR uni007B
ENCODING 123
SWIDTH 708 0
DWIDTH 17 0
BBX 15 17 1 1
BITMAP
8002
C006
E00E
F7DE
FFFE
FFFE
FFFE
E38E
C516
CD36
CD36
E38E
FEFE
7BFC
7C7C
3FF8
0FE0
ENDCHAR
STARTCHAR uni007D
ENCODING 125
SWIDTH 708 0
DWIDTH 17 0
BBX 15 17 1 1
BITMAP
8002
C006
E00E
F7DE
FFFE
FFFE
FFFE
E38E
D146
D966
D966
E38E
FEFE
7FBC
7C7C
3FF8
0FE0
ENDCHAR
STARTCHAR uni00A0
ENCODING 160
SWIDTH 208 0
DWIDTH 5 0
BBX 1 1 0 0
BITMAP
00
ENDCHAR
STARTCHAR uni00B7
ENCODING 183
SWIDTH 583 0
DWIDTH 14 0
BBX 12 12 1 4
BITMAP
0600
0600
0F00
0F00
1F80
1F80
3FC0
3FC0
7FE0
7FE0
FFF0
FFF0
ENDCHAR
STARTCHAR uni200A
ENCODING 8202
SWIDTH 42 0
DWIDTH 1 0
BBX 1 1 0 0
BITMAP
00
ENDCHAR
STARTCHAR uni2013
ENCODING 8211
SWIDTH 625 0
DWIDTH 15 0
BBX 13 13 1 3
BITMAP
0200
0700
0F80
1FC0
3FE0
7FF0
FFF8
7FF0
3FE0
1FC0
0F80
0700
0200
ENDCHAR
STARTCHAR uni2014
ENCODING 8212
SWIDTH 625 0
DWIDTH 15 0
BBX 13 13 1 3
BITMAP
0200
0700
0F80
1FC0
3DE0
78F0
F078
78F0
3DE0
1FC0
0F80
0700
0200
ENDCHAR
STARTCHAR uni2022
ENCODING 8226
SWIDTH 583 0
DWIDTH 14 0
BBX 12 12 1 4
BITMAP
FFF0
FFF0
7FE0
7FE0
3FC0
3FC0
1F80
1F80
0F00
0F00
0600
0600
ENDCHAR
ENDFONT
