STARTFONT 2.1
FONT Capsigrany-16px
SIZE 16 75 75
FONTBOUNDINGBOX 16 16 -1 -2
STARTPROPERTIES 5
PIXEL_SIZE 16
FONT_ASCENT 14
FONT_DESCENT 2
CHARSET_REGISTRY "ISO10646"
CHARSET_ENCODING "1"
ENDPROPERTIES
CHARS 99
STARTCHAR uni0000
ENCODING 0
SWIDTH 1062 0
DWIDTH 17 0
BBX 16 16 -1 -2
BITMAP
FFFF
FFFF
FFFF
FFFF
FFFF
FFFF
FFFF
FFFF
FFFF
FFFF
FFFF
FFFF
FFFF
FFFF
FFFF
FFFF
ENDCHAR
STARTCHAR space
ENCODING 32
SWIDTH 188 0
DWIDTH 3 0
BBX 1 1 0 0
BITMAP
00
ENDCHAR
STARTCHAR exclam
ENCODING 33
SWIDTH 188 0
DWIDTH 3 0
BBX 2 9 -1 0
BITMAP
C0
C0
C0
C0
C0
C0
00
C0
C0
ENDCHAR
STARTCHAR quotedbl
ENCODING 34
SWIDTH 375 0
DWIDTH 6 0
BBX 5 3 -1 6
BITMAP
D8
D8
90
ENDCHAR
STARTCHAR numbersign
ENCODING 35
SWIDTH 625 0
DWIDTH 10 0
BBX 9 9 -1 0
BITMAP
1B00
1B00
7F80
7F80
3600
FF00
FF00
6C00
6C00
ENDCHAR
STARTCHAR dollar
ENCODING 36
SWIDTH 500 0
DWIDTH 8 0
BBX 7 10 -1 -1
BITMAP
10
7E
FE
D0
78
7E
16
FE
FC
10
ENDCHAR
STARTCHAR percent
ENCODING 37
SWIDTH 500 0
DWIDTH 8 0
BBX 7 8 -1 0
BITMAP
EC
AC
F8
18
30
3E
6A
6E
ENDCHAR
STARTCHAR ampersand
ENCODING 38
SWIDTH 500 0
DWIDTH 8 0
BBX 7 9 -1 0
BITMAP
30
78
58
76
FE
D8
DC
FE
76
ENDCHAR
STARTCHAR quotesingle
ENCODING 39
SWIDTH 188 0
DWIDTH 3 0
BBX 2 3 -1 6
BITMAP
C0
C0
80
ENDCHAR
STARTCHAR parenleft
ENCODING 40
SWIDTH 250 0
DWIDTH 4 0
BBX 3 9 -1 0
BITMAP
60
60
C0
C0
C0
C0
C0
60
60
ENDCHAR
STARTCHAR parenright
ENCODING 41
SWIDTH 250 0
DWIDTH 4 0
BBX 3 9 -1 0
BITMAP
C0
C0
60
60
60
60
60
C0
C0
ENDCHAR
STARTCHAR asterisk
ENCODING 42
SWIDTH 375 0
DWIDTH 6 0
BBX 5 4 -1 5
BITMAP
20
F8
20
50
ENDCHAR
STARTCHAR plus
ENCODING 43
SWIDTH 562 0
DWIDTH 9 0
BBX 8 8 -1 0
BITMAP
18
18
18
FF
FF
18
18
18
ENDCHAR
STARTCHAR comma
ENCODING 44
SWIDTH 188 0
DWIDTH 3 0
BBX 2 4 -1 -2
BITMAP
C0
C0
40
80
ENDCHAR
STARTCHAR hyphen
ENCODING 45
SWIDTH 500 0
DWIDTH 8 0
BBX 7 2 -1 4
BITMAP
FE
FE
ENDCHAR
STARTCHAR period
ENCODING 46
SWIDTH 188 0
DWIDTH 3 0
BBX 2 2 -1 0
BITMAP
C0
C0
ENDCHAR
STARTCHAR slash
ENCODING 47
SWIDTH 375 0
DWIDTH 6 0
BBX 5 9 -1 0
BITMAP
18
18
38
30
70
60
E0
C0
C0
ENDCHAR
STARTCHAR zero
ENCODING 48
SWIDTH 438 0
DWIDTH 7 0
BBX 6 8 -1 0
BITMAP
78
FC
CC
CC
CC
CC
FC
78
ENDCHAR
STARTCHAR one
ENCODING 49
SWIDTH 312 0
DWIDTH 5 0
BBX 4 8 -1 0
BITMAP
F0
F0
30
30
30
30
30
30
ENDCHAR
STARTCHAR two
ENCODING 50
SWIDTH 438 0
DWIDTH 7 0
BBX 6 8 -1 0
BITMAP
F8
FC
DC
1C
38
70
FC
FC
ENDCHAR
STARTCHAR three
ENCODING 51
SWIDTH 438 0
DWIDTH 7 0
BBX 6 8 -1 0
BITMAP
F8
FC
1C
78
7C
1C
FC
F8
ENDCHAR
STARTCHAR four
ENCODING 52
SWIDTH 500 0
DWIDTH 8 0
BBX 7 8 -1 0
BITMAP
3C
3C
6C
6C
FE
FE
1C
1C
ENDCHAR
STARTCHAR five
ENCODING 53
SWIDTH 375 0
DWIDTH 6 0
BBX 5 8 -1 0
BITMAP
F8
F8
C0
F0
38
38
F8
F0
ENDCHAR
STARTCHAR six
ENCODING 54
SWIDTH 438 0
DWIDTH 7 0
BBX 6 8 -1 0
BITMAP
7C
FC
E0
FC
EC
EC
FC
78
ENDCHAR
STARTCHAR seven
ENCODING 55
SWIDTH 438 0
DWIDTH 7 0
BBX 6 8 -1 0
BITMAP
FC
FC
18
18
38
30
70
70
ENDCHAR
STARTCHAR eight
ENCODING 56
SWIDTH 500 0
DWIDTH 8 0
BBX 7 8 -1 0
BITMAP
7C
EE
EE
7C
EE
EE
FE
7C
ENDCHAR
STARTCHAR nine
ENCODING 57
SWIDTH 375 0
DWIDTH 6 0
BBX 5 8 -1 0
BITMAP
F8
F8
D8
F8
F8
18
F8
F0
ENDCHAR
STARTCHAR colon
ENCODING 58
SWIDTH 188 0
DWIDTH 3 0
BBX 2 6 -1 0
BITMAP
C0
C0
00
00
C0
C0
ENDCHAR
STARTCHAR semicolon
ENCODING 59
SWIDTH 188 0
DWIDTH 3 0
BBX 2 8 -1 -2
BITMAP
C0
C0
00
00
C0
C0
40
80
ENDCHAR
STARTCHAR less
ENCODING 60
SWIDTH 312 0
DWIDTH 5 0
BBX 4 8 -1 0
BITMAP
30
70
60
C0
C0
60
70
30
ENDCHAR
STARTCHAR equal
ENCODING 61
SWIDTH 375 0
DWIDTH 6 0
BBX 5 5 -1 2
BITMAP
F8
F8
00
F8
F8
ENDCHAR
STARTCHAR greater
ENCODING 62
SWIDTH 312 0
DWIDTH 5 0
BBX 4 8 -1 0
BITMAP
C0
E0
60
30
30
60
E0
C0
ENDCHAR
STARTCHAR question
ENCODING 63
SWIDTH 438 0
DWIDTH 7 0
BBX 6 9 -1 0
BITMAP
78
FC
DC
1C
38
30
00
30
30
ENDCHAR
STARTCHAR at
ENCODING 64
SWIDTH 688 0
DWIDTH 11 0
BBX 10 10 -1 -1
BITMAP
3F00
7F80
E1C0
CEC0
DAC0
DBC0
DF80
E000
7E00
3E00
ENDCHAR
STARTCHAR A
ENCODING 65
SWIDTH 438 0
DWIDTH 7 0
BBX 6 8 -1 0
BITMAP
38
78
78
DC
DC
FC
CC
CC
ENDCHAR
STARTCHAR B
ENCODING 66
SWIDTH 438 0
DWIDTH 7 0
BBX 6 8 -1 0
BITMAP
F0
F8
D8
F8
FC
DC
FC
F8
ENDCHAR
STARTCHAR C
ENCODING 67
SWIDTH 438 0
DWIDTH 7 0
BBX 6 8 -1 0
BITMAP
3C
7C
E0
E0
E0
E0
7C
3C
ENDCHAR
STARTCHAR D
ENCODING 68
SWIDTH 438 0
DWIDTH 7 0
BBX 6 8 -1 0
BITMAP
F0
F8
DC
DC
DC
DC
F8
F0
ENDCHAR
STARTCHAR E
ENCODING 69
SWIDTH 312 0
DWIDTH 5 0
BBX 4 8 -1 0
BITMAP
F0
F0
C0
F0
F0
C0
F0
F0
ENDCHAR
STARTCHAR F
ENCODING 70
SWIDTH 312 0
DWIDTH 5 0
BBX 4 8 -1 0
BITMAP
F0
F0
C0
F0
F0
C0
C0
C0
ENDCHAR
STARTCHAR G
ENCODING 71
SWIDTH 500 0
DWIDTH 8 0
BBX 7 8 -1 0
BITMAP
3C
7C
E0
E0
E6
F6
7E
3E
ENDCHAR
STARTCHAR H
ENCODING 72
SWIDTH 438 0
DWIDTH 7 0
BBX 6 8 -1 0
BITMAP
CC
CC
CC
FC
FC
CC
CC
CC
ENDCHAR
STARTCHAR I
ENCODING 73
SWIDTH 375 0
DWIDTH 6 0
BBX 5 8 -1 0
BITMAP
F8
F8
70
70
70
70
F8
F8
ENDCHAR
STARTCHAR J
ENCODING 74
SWIDTH 438 0
DWIDTH 7 0
BBX 6 8 -1 0
BITMAP
3C
3C
0C
0C
CC
DC
FC
78
ENDCHAR
STARTCHAR K
ENCODING 75
SWIDTH 438 0
DWIDTH 7 0
BBX 6 8 -1 0
BITMAP
DC
DC
D8
F0
F8
D8
DC
DC
ENDCHAR
STARTCHAR L
ENCODING 76
SWIDTH 375 0
DWIDTH 6 0
BBX 5 8 -1 0
BITMAP
E0
E0
E0
E0
E0
E0
F8
78
ENDCHAR
STARTCHAR M
ENCODING 77
SWIDTH 625 0
DWIDTH 10 0
BBX 9 8 -1 0
BITMAP
E380
F780
F780
FF80
DD80
DD80
DD80
C180
ENDCHAR
STARTCHAR N
ENCODING 78
SWIDTH 438 0
DWIDTH 7 0
BBX 6 8 -1 0
BITMAP
CC
EC
EC
FC
FC
DC
DC
CC
ENDCHAR
STARTCHAR O
ENCODING 79
SWIDTH 562 0
DWIDTH 9 0
BBX 8 8 -1 0
BITMAP
3C
7E
E7
E7
E7
E7
7E
3C
ENDCHAR
STARTCHAR P
ENCODING 80
SWIDTH 375 0
DWIDTH 6 0
BBX 5 8 -1 0
BITMAP
F0
F8
D8
F8
F8
C0
C0
C0
ENDCHAR
STARTCHAR Q
ENCODING 81
SWIDTH 562 0
DWIDTH 9 0
BBX 8 10 -1 -2
BITMAP
3C
7E
E7
E7
E7
E7
7E
3C
0E
06
ENDCHAR
STARTCHAR R
ENCODING 82
SWIDTH 375 0
DWIDTH 6 0
BBX 5 8 -1 0
BITMAP
F8
F8
D8
D8
F0
F8
D8
D8
ENDCHAR
STARTCHAR S
ENCODING 83
SWIDTH 375 0
DWIDTH 6 0
BBX 5 8 -1 0
BITMAP
78
F8
E0
F0
78
38
F8
F0
ENDCHAR
STARTCHAR T
ENCODING 84
SWIDTH 438 0
DWIDTH 7 0
BBX 6 8 -1 0
BITMAP
FC
FC
30
30
30
30
30
30
ENDCHAR
STARTCHAR U
ENCODING 85
SWIDTH 438 0
DWIDTH 7 0
BBX 6 8 -1 0
BITMAP
CC
CC
CC
CC
CC
CC
FC
78
ENDCHAR
STARTCHAR V
ENCODING 86
SWIDTH 500 0
DWIDTH 8 0
BBX 7 8 -1 0
BITMAP
C6
C6
C6
6C
6C
6C
38
38
ENDCHAR
STARTCHAR W
ENCODING 87
SWIDTH 625 0
DWIDTH 10 0
BBX 9 8 -1 0
BITMAP
C180
DD80
DD80
DD80
DD80
F780
7700
7700
ENDCHAR
STARTCHAR X
ENCODING 88
SWIDTH 500 0
DWIDTH 8 0
BBX 7 8 -1 0
BITMAP
C6
EE
6C
38
38
6C
EE
C6
ENDCHAR
STARTCHAR Y
ENCODING 89
SWIDTH 500 0
DWIDTH 8 0
BBX 7 8 -1 0
BITMAP
C6
C6
6C
7C
38
38
38
38
ENDCHAR
STARTCHAR Z
ENCODING 90
SWIDTH 438 0
DWIDTH 7 0
BBX 6 8 -1 0
BITMAP
FC
FC
1C
38
70
E0
FC
FC
ENDCHAR
STARTCHAR bracketleft
ENCODING 91
SWIDTH 250 0
DWIDTH 4 0
BBX 3 10 -1 -1
BITMAP
E0
E0
80
80
80
80
80
80
E0
E0
ENDCHAR
STARTCHAR backslash
ENCODING 92
SWIDTH 375 0
DWIDTH 6 0
BBX 5 9 -1 0
BITMAP
C0
C0
E0
60
70
30
38
18
18
ENDCHAR
STARTCHAR bracketright
ENCODING 93
SWIDTH 250 0
DWIDTH 4 0
BBX 3 10 -1 -1
BITMAP
E0
E0
20
20
20
20
20
20
E0
E0
ENDCHAR
STARTCHAR asciicircum
ENCODING 94
SWIDTH 562 0
DWIDTH 9 0
BBX 8 4 -1 4
BITMAP
18
7E
E7
C3
ENDCHAR
STARTCHAR underscore
ENCODING 95
SWIDTH 625 0
DWIDTH 10 0
BBX 9 2 -1 -1
BITMAP
FF80
FF80
ENDCHAR
STARTCHAR grave
ENCODING 96
SWIDTH 250 0
DWIDTH 4 0
BBX 3 3 -1 5
BITMAP
C0
E0
60
ENDCHAR
STARTCHAR a
ENCODING 97
SWIDTH 375 0
DWIDTH 6 0
BBX 6 6 -1 0
BITMAP
78
18
78
D8
DC
7C
ENDCHAR
STARTCHAR b
ENCODING 98
SWIDTH 375 0
DWIDTH 6 0
BBX 5 8 -1 0
BITMAP
C0
C0
F0
F8
D8
D8
F8
F0
ENDCHAR
STARTCHAR c
ENCODING 99
SWIDTH 375 0
DWIDTH 6 0
BBX 5 6 -1 0
BITMAP
78
F8
E0
E0
F8
78
ENDCHAR
STARTCHAR d
ENCODING 100
SWIDTH 438 0
DWIDTH 7 0
BBX 7 8 -1 0
BITMAP
0C
0C
7C
FC
EC
EC
FE
7E
ENDCHAR
STARTCHAR e
ENCODING 101
SWIDTH 438 0
DWIDTH 7 0
BBX 6 6 -1 0
BITMAP
78
CC
FC
C0
FC
7C
ENDCHAR
STARTCHAR f
ENCODING 102
SWIDTH 375 0
DWIDTH 6 0
BBX 5 8 -1 0
BITMAP
38
78
60
F0
F0
60
60
60
ENDCHAR
STARTCHAR g
ENCODING 103
SWIDTH 438 0
DWIDTH 7 0
BBX 6 8 -1 -2
BITMAP
7C
FC
CC
CC
7C
0C
7C
78
ENDCHAR
STARTCHAR h
ENCODING 104
SWIDTH 375 0
DWIDTH 6 0
BBX 5 8 -1 0
BITMAP
C0
C0
F0
F8
D8
D8
D8
D8
ENDCHAR
STARTCHAR i
ENCODING 105
SWIDTH 188 0
DWIDTH 3 0
BBX 2 8 -1 0
BITMAP
C0
C0
00
C0
C0
C0
C0
C0
ENDCHAR
STARTCHAR j
ENCODING 106
SWIDTH 375 0
DWIDTH 6 0
BBX 5 10 -1 -2
BITMAP
18
18
00
18
18
18
18
D8
F8
70
ENDCHAR
STARTCHAR k
ENCODING 107
SWIDTH 375 0
DWIDTH 6 0
BBX 5 8 -1 0
BITMAP
C0
D8
D8
D0
F0
F0
D8
D8
ENDCHAR
STARTCHAR l
ENCODING 108
SWIDTH 188 0
DWIDTH 3 0
BBX 2 8 -1 0
BITMAP
C0
C0
C0
C0
C0
C0
C0
C0
ENDCHAR
STARTCHAR m
ENCODING 109
SWIDTH 625 0
DWIDTH 10 0
BBX 9 6 -1 0
BITMAP
DB00
FF80
6D80
6D80
6D80
6D80
ENDCHAR
STARTCHAR n
ENCODING 110
SWIDTH 438 0
DWIDTH 7 0
BBX 6 6 -1 0
BITMAP
DC
FC
6C
6C
6C
6C
ENDCHAR
STARTCHAR o
ENCODING 111
SWIDTH 438 0
DWIDTH 7 0
BBX 6 6 -1 0
BITMAP
78
FC
CC
CC
FC
78
ENDCHAR
STARTCHAR p
ENCODING 112
SWIDTH 500 0
DWIDTH 8 0
BBX 7 8 -1 -2
BITMAP
DE
FE
66
66
7E
7C
60
60
ENDCHAR
STARTCHAR q
ENCODING 113
SWIDTH 438 0
DWIDTH 7 0
BBX 6 8 -1 -2
BITMAP
7C
FC
CC
CC
FC
7C
0C
0C
ENDCHAR
STARTCHAR r
ENCODING 114
SWIDTH 375 0
DWIDTH 6 0
BBX 6 6 -1 0
BITMAP
DC
FC
60
60
60
60
ENDCHAR
STARTCHAR s
ENCODING 115
SWIDTH 312 0
DWIDTH 5 0
BBX 4 6 -1 0
BITMAP
70
F0
C0
30
F0
E0
ENDCHAR
STARTCHAR t
ENCODING 116
SWIDTH 375 0
DWIDTH 6 0
BBX 5 8 -1 0
BITMAP
60
F8
F8
60
60
60
60
60
ENDCHAR
STARTCHAR u
ENCODING 117
SWIDTH 375 0
DWIDTH 6 0
BBX 5 6 -1 0
BITMAP
D8
D8
D8
D8
F8
70
ENDCHAR
STARTCHAR v
ENCODING 118
SWIDTH 500 0
DWIDTH 8 0
BBX 7 6 -1 0
BITMAP
EE
EE
6C
6C
38
38
ENDCHAR
STARTCHAR w
ENCODING 119
SWIDTH 625 0
DWIDTH 10 0
BBX 9 6 -1 0
BITMAP
C180
DD80
DD80
7700
7700
3600
ENDCHAR
STARTCHAR x
ENCODING 120
SWIDTH 375 0
DWIDTH 6 0
BBX 5 6 -1 0
BITMAP
D8
D8
70
70
D8
D8
ENDCHAR
STARTCHAR y
ENCODING 121
SWIDTH 438 0
DWIDTH 7 0
BBX 6 8 -1 -2
BITMAP
CC
CC
6C
68
38
30
70
70
ENDCHAR
STARTCHAR z
ENCODING 122
SWIDTH 375 0
DWIDTH 6 0
BBX 5 6 -1 0
BITMAP
F8
F8
30
60
F8
F8
ENDCHAR
STARTCHAR braceleft
ENCODING 123
SWIDTH 375 0
DWIDTH 6 0
BBX 5 10 -1 -1
BITMAP
38
78
60
60
C0
C0
60
60
78
38
ENDCHAR
STARTCHAR bar
ENCODING 124
SWIDTH 188 0
DWIDTH 3 0
BBX 2 10 -1 -1
BITMAP
C0
C0
C0
C0
C0
C0
C0
C0
C0
C0
ENDCHAR
STARTCHAR braceright
ENCODING 125
SWIDTH 375 0
DWIDTH 6 0
BBX 5 10 -1 -1
BITMAP
E0
F0
30
30
18
18
30
30
F0
E0
ENDCHAR
STARTCHAR asciitilde
ENCODING 126
SWIDTH 562 0
DWIDTH 9 0
BBX 8 4 -1 2
BITMAP
73
F3
CF
CE
ENDCHAR
STARTCHAR uni00A0
ENCODING 160
SWIDTH 62 0
DWIDTH 1 0
BBX 1 1 0 0
BITMAP
00
ENDCHAR
STARTCHAR .notdef
ENCODING -1
SWIDTH 312 0
DWIDTH 5 0
BBX 4 11 1 0
BITMAP
F0
90
90
90
90
90
90
90
90
90
F0
ENDCHAR
STARTCHAR nonmarkingreturn
ENCODING -1
SWIDTH 312 0
DWIDTH 5 0
BBX 1 1 0 0
BITMAP
00
ENDCHAR
ENDFONT
