STARTFONT 2.1
FONT x5y8pxNegaTape-8px
SIZE 8 75 75
FONTBOUNDINGBOX 10 7 0 0
STARTPROPERTIES 3
PIXEL_SIZE 8
FONT_ASCENT 7
FONT_DESCENT 1
ENDPROPERTIES
CHARS 450
STARTCHAR uni0020
ENCODING 32
SWIDTH 375 0
DWIDTH 3 0
BBX 1 1 0 0
BITMAP
00
ENDCHAR
STARTCHAR uni0021
ENCODING 33
SWIDTH 250 0
DWIDTH 2 0
BBX 3 7 0 0
BITMAP
E0
A0
A0
A0
E0
A0
E0
ENDCHAR
STARTCHAR uni0022
ENCODING 34
SWIDTH 500 0
DWIDTH 4 0
BBX 5 7 0 0
BITMAP
F8
A8
A8
F8
F8
F8
F8
ENDCHAR
STARTCHAR uni0023
ENCODING 35
SWIDTH 750 0
DWIDTH 6 0
BBX 7 7 0 0
BITMAP
FE
D6
82
D6
82
D6
FE
ENDCHAR
STARTCHAR uni0024
ENCODING 36
SWIDTH 625 0
DWIDTH 5 0
BBX 6 7 0 0
BITMAP
FC
EC
C4
DC
EC
8C
DC
ENDCHAR
STARTCHAR uni0025
ENCODING 37
SWIDTH 625 0
DWIDTH 5 0
BBX 6 7 0 0
BITMAP
FC
FC
B4
EC
DC
B4
FC
ENDCHAR
STARTCHAR uni0026
ENCODING 38
SWIDTH 625 0
DWIDTH 5 0
BBX 6 7 0 0
BITMAP
FC
FC
DC
D4
AC
94
FC
ENDCHAR
STARTCHAR uni0027
ENCODING 39
SWIDTH 250 0
DWIDTH 2 0
BBX 3 7 0 0
BITMAP
E0
A0
A0
E0
E0
E0
E0
ENDCHAR
STARTCHAR uni0028
ENCODING 40
SWIDTH 375 0
DWIDTH 3 0
BBX 4 7 0 0
BITMAP
F0
D0
B0
B0
B0
D0
F0
ENDCHAR
STARTCHAR uni0029
ENCODING 41
SWIDTH 375 0
DWIDTH 3 0
BBX 4 7 0 0
BITMAP
F0
B0
D0
D0
D0
B0
F0
ENDCHAR
STARTCHAR uni002A
ENCODING 42
SWIDTH 500 0
DWIDTH 4 0
BBX 5 7 0 0
BITMAP
F8
A8
D8
88
D8
A8
F8
ENDCHAR
STARTCHAR uni002B
ENCODING 43
SWIDTH 500 0
DWIDTH 4 0
BBX 5 7 0 0
BITMAP
F8
F8
D8
88
D8
F8
F8
ENDCHAR
STARTCHAR uni002C
ENCODING 44
SWIDTH 375 0
DWIDTH 3 0
BBX 4 7 0 0
BITMAP
F0
F0
F0
F0
F0
D0
B0
ENDCHAR
STARTCHAR uni002D
ENCODING 45
SWIDTH 500 0
DWIDTH 4 0
BBX 5 7 0 0
BITMAP
F8
F8
F8
88
F8
F8
F8
ENDCHAR
STARTCHAR uni002E
ENCODING 46
SWIDTH 250 0
DWIDTH 2 0
BBX 3 7 0 0
BITMAP
E0
E0
E0
E0
E0
A0
E0
ENDCHAR
STARTCHAR uni002F
ENCODING 47
SWIDTH 625 0
DWIDTH 5 0
BBX 6 7 0 0
BITMAP
FC
FC
F4
EC
DC
BC
FC
ENDCHAR
STARTCHAR uni0030
ENCODING 48
SWIDTH 625 0
DWIDTH 5 0
BBX 6 7 0 0
BITMAP
FC
CC
B4
B4
B4
CC
FC
ENDCHAR
STARTCHAR uni0031
ENCODING 49
SWIDTH 625 0
DWIDTH 5 0
BBX 6 7 0 0
BITMAP
FC
EC
CC
EC
EC
C4
FC
ENDCHAR
STARTCHAR uni0032
ENCODING 50
SWIDTH 625 0
DWIDTH 5 0
BBX 6 7 0 0
BITMAP
FC
CC
B4
EC
DC
84
FC
ENDCHAR
STARTCHAR uni0033
ENCODING 51
SWIDTH 625 0
DWIDTH 5 0
BBX 6 7 0 0
BITMAP
FC
8C
F4
CC
F4
8C
FC
ENDCHAR
STARTCHAR uni0034
ENCODING 52
SWIDTH 625 0
DWIDTH 5 0
BBX 6 7 0 0
BITMAP
FC
E4
D4
B4
84
F4
FC
ENDCHAR
STARTCHAR uni0035
ENCODING 53
SWIDTH 625 0
DWIDTH 5 0
BBX 6 7 0 0
BITMAP
FC
84
BC
8C
F4
8C
FC
ENDCHAR
STARTCHAR uni0036
ENCODING 54
SWIDTH 625 0
DWIDTH 5 0
BBX 6 7 0 0
BITMAP
FC
CC
BC
8C
B4
CC
FC
ENDCHAR
STARTCHAR uni0037
ENCODING 55
SWIDTH 625 0
DWIDTH 5 0
BBX 6 7 0 0
BITMAP
FC
84
F4
EC
DC
DC
FC
ENDCHAR
STARTCHAR uni0038
ENCODING 56
SWIDTH 625 0
DWIDTH 5 0
BBX 6 7 0 0
BITMAP
FC
CC
B4
CC
B4
CC
FC
ENDCHAR
STARTCHAR uni0039
ENCODING 57
SWIDTH 625 0
DWIDTH 5 0
BBX 6 7 0 0
BITMAP
FC
CC
B4
C4
F4
CC
FC
ENDCHAR
STARTCHAR uni003A
ENCODING 58
SWIDTH 250 0
DWIDTH 2 0
BBX 3 7 0 0
BITMAP
E0
E0
A0
E0
E0
A0
E0
ENDCHAR
STARTCHAR uni003B
ENCODING 59
SWIDTH 375 0
DWIDTH 3 0
BBX 4 7 0 0
BITMAP
F0
F0
D0
F0
F0
D0
B0
ENDCHAR
STARTCHAR uni003C
ENCODING 60
SWIDTH 500 0
DWIDTH 4 0
BBX 5 7 0 0
BITMAP
F8
E8
D8
B8
D8
E8
F8
ENDCHAR
STARTCHAR uni003D
ENCODING 61
SWIDTH 500 0
DWIDTH 4 0
BBX 5 7 0 0
BITMAP
F8
F8
88
F8
88
F8
F8
ENDCHAR
STARTCHAR uni003E
ENCODING 62
SWIDTH 500 0
DWIDTH 4 0
BBX 5 7 0 0
BITMAP
F8
B8
D8
E8
D8
B8
F8
ENDCHAR
STARTCHAR uni003F
ENCODING 63
SWIDTH 625 0
DWIDTH 5 0
BBX 6 7 0 0
BITMAP
FC
8C
F4
CC
FC
DC
FC
ENDCHAR
STARTCHAR uni0040
ENCODING 64
SWIDTH 750 0
DWIDTH 6 0
BBX 7 7 0 0
BITMAP
FE
C6
BA
AA
BE
C2
FE
ENDCHAR
STARTCHAR uni0041
ENCODING 65
SWIDTH 625 0
DWIDTH 5 0
BBX 6 7 0 0
BITMAP
FC
CC
B4
84
B4
B4
FC
ENDCHAR
STARTCHAR uni0042
ENCODING 66
SWIDTH 625 0
DWIDTH 5 0
BBX 6 7 0 0
BITMAP
FC
8C
B4
8C
B4
8C
FC
ENDCHAR
STARTCHAR uni0043
ENCODING 67
SWIDTH 625 0
DWIDTH 5 0
BBX 6 7 0 0
BITMAP
FC
C4
BC
BC
BC
C4
FC
ENDCHAR
STARTCHAR uni0044
ENCODING 68
SWIDTH 625 0
DWIDTH 5 0
BBX 6 7 0 0
BITMAP
FC
8C
B4
B4
B4
8C
FC
ENDCHAR
STARTCHAR uni0045
ENCODING 69
SWIDTH 625 0
DWIDTH 5 0
BBX 6 7 0 0
BITMAP
FC
84
BC
8C
BC
84
FC
ENDCHAR
STARTCHAR uni0046
ENCODING 70
SWIDTH 625 0
DWIDTH 5 0
BBX 6 7 0 0
BITMAP
FC
84
BC
8C
BC
BC
FC
ENDCHAR
STARTCHAR uni0047
ENCODING 71
SWIDTH 625 0
DWIDTH 5 0
BBX 6 7 0 0
BITMAP
FC
C4
BC
A4
B4
C4
FC
ENDCHAR
STARTCHAR uni0048
ENCODING 72
SWIDTH 625 0
DWIDTH 5 0
BBX 6 7 0 0
BITMAP
FC
B4
B4
84
B4
B4
FC
ENDCHAR
STARTCHAR uni0049
ENCODING 73
SWIDTH 500 0
DWIDTH 4 0
BBX 5 7 0 0
BITMAP
F8
88
D8
D8
D8
88
F8
ENDCHAR
STARTCHAR uni004A
ENCODING 74
SWIDTH 625 0
DWIDTH 5 0
BBX 6 7 0 0
BITMAP
FC
F4
F4
B4
B4
CC
FC
ENDCHAR
STARTCHAR uni004B
ENCODING 75
SWIDTH 625 0
DWIDTH 5 0
BBX 6 7 0 0
BITMAP
FC
B4
AC
9C
AC
B4
FC
ENDCHAR
STARTCHAR uni004C
ENCODING 76
SWIDTH 500 0
DWIDTH 4 0
BBX 5 7 0 0
BITMAP
F8
B8
B8
B8
B8
88
F8
ENDCHAR
STARTCHAR uni004D
ENCODING 77
SWIDTH 750 0
DWIDTH 6 0
BBX 7 7 0 0
BITMAP
FE
BA
92
AA
BA
BA
FE
ENDCHAR
STARTCHAR uni004E
ENCODING 78
SWIDTH 625 0
DWIDTH 5 0
BBX 6 7 0 0
BITMAP
FC
B4
94
A4
B4
B4
FC
ENDCHAR
STARTCHAR uni004F
ENCODING 79
SWIDTH 625 0
DWIDTH 5 0
BBX 6 7 0 0
BITMAP
FC
CC
B4
B4
B4
CC
FC
ENDCHAR
STARTCHAR uni0050
ENCODING 80
SWIDTH 625 0
DWIDTH 5 0
BBX 6 7 0 0
BITMAP
FC
8C
B4
8C
BC
BC
FC
ENDCHAR
STARTCHAR uni0051
ENCODING 81
SWIDTH 625 0
DWIDTH 5 0
BBX 6 7 0 0
BITMAP
FC
CC
B4
B4
AC
D4
FC
ENDCHAR
STARTCHAR uni0052
ENCODING 82
SWIDTH 625 0
DWIDTH 5 0
BBX 6 7 0 0
BITMAP
FC
8C
B4
8C
AC
B4
FC
ENDCHAR
STARTCHAR uni0053
ENCODING 83
SWIDTH 625 0
DWIDTH 5 0
BBX 6 7 0 0
BITMAP
FC
C4
BC
CC
F4
8C
FC
ENDCHAR
STARTCHAR uni0054
ENCODING 84
SWIDTH 500 0
DWIDTH 4 0
BBX 5 7 0 0
BITMAP
F8
88
D8
D8
D8
D8
F8
ENDCHAR
STARTCHAR uni0055
ENCODING 85
SWIDTH 625 0
DWIDTH 5 0
BBX 6 7 0 0
BITMAP
FC
B4
B4
B4
B4
CC
FC
ENDCHAR
STARTCHAR uni0056
ENCODING 86
SWIDTH 625 0
DWIDTH 5 0
BBX 6 7 0 0
BITMAP
FC
B4
B4
B4
AC
9C
FC
ENDCHAR
STARTCHAR uni0057
ENCODING 87
SWIDTH 750 0
DWIDTH 6 0
BBX 7 7 0 0
BITMAP
FE
BA
BA
AA
92
BA
FE
ENDCHAR
STARTCHAR uni0058
ENCODING 88
SWIDTH 625 0
DWIDTH 5 0
BBX 6 7 0 0
BITMAP
FC
B4
CC
CC
B4
B4
FC
ENDCHAR
STARTCHAR uni0059
ENCODING 89
SWIDTH 625 0
DWIDTH 5 0
BBX 6 7 0 0
BITMAP
FC
B4
B4
CC
EC
EC
FC
ENDCHAR
STARTCHAR uni005A
ENCODING 90
SWIDTH 625 0
DWIDTH 5 0
BBX 6 7 0 0
BITMAP
FC
84
EC
DC
BC
84
FC
ENDCHAR
STARTCHAR uni005B
ENCODING 91
SWIDTH 375 0
DWIDTH 3 0
BBX 4 7 0 0
BITMAP
F0
90
B0
B0
B0
90
F0
ENDCHAR
STARTCHAR uni005C
ENCODING 92
SWIDTH 625 0
DWIDTH 5 0
BBX 6 7 0 0
BITMAP
FC
FC
BC
DC
EC
F4
FC
ENDCHAR
STARTCHAR uni005D
ENCODING 93
SWIDTH 375 0
DWIDTH 3 0
BBX 4 7 0 0
BITMAP
F0
90
D0
D0
D0
90
F0
ENDCHAR
STARTCHAR uni005E
ENCODING 94
SWIDTH 500 0
DWIDTH 4 0
BBX 5 7 0 0
BITMAP
F8
D8
A8
F8
F8
F8
F8
ENDCHAR
STARTCHAR uni005F
ENCODING 95
SWIDTH 625 0
DWIDTH 5 0
BBX 6 7 0 0
BITMAP
FC
FC
FC
FC
FC
84
FC
ENDCHAR
STARTCHAR uni0060
ENCODING 96
SWIDTH 375 0
DWIDTH 3 0
BBX 4 7 0 0
BITMAP
F0
B0
D0
F0
F0
F0
F0
ENDCHAR
STARTCHAR uni0061
ENCODING 97
SWIDTH 625 0
DWIDTH 5 0
BBX 6 7 0 0
BITMAP
FC
FC
C4
B4
B4
D4
FC
ENDCHAR
STARTCHAR uni0062
ENCODING 98
SWIDTH 625 0
DWIDTH 5 0
BBX 6 7 0 0
BITMAP
FC
BC
8C
B4
B4
8C
FC
ENDCHAR
STARTCHAR uni0063
ENCODING 99
SWIDTH 500 0
DWIDTH 4 0
BBX 5 7 0 0
BITMAP
F8
F8
C8
B8
B8
C8
F8
ENDCHAR
STARTCHAR uni0064
ENCODING 100
SWIDTH 625 0
DWIDTH 5 0
BBX 6 7 0 0
BITMAP
FC
F4
C4
B4
B4
C4
FC
ENDCHAR
STARTCHAR uni0065
ENCODING 101
SWIDTH 625 0
DWIDTH 5 0
BBX 6 7 0 0
BITMAP
FC
FC
CC
84
BC
C4
FC
ENDCHAR
STARTCHAR uni0066
ENCODING 102
SWIDTH 625 0
DWIDTH 5 0
BBX 6 7 0 0
BITMAP
FC
E4
DC
84
DC
DC
FC
ENDCHAR
STARTCHAR uni0067
ENCODING 103
SWIDTH 625 0
DWIDTH 5 0
BBX 6 7 0 0
BITMAP
FC
FC
C4
B4
C4
F4
CC
ENDCHAR
STARTCHAR uni0068
ENCODING 104
SWIDTH 625 0
DWIDTH 5 0
BBX 6 7 0 0
BITMAP
FC
BC
8C
B4
B4
B4
FC
ENDCHAR
STARTCHAR uni0069
ENCODING 105
SWIDTH 250 0
DWIDTH 2 0
BBX 3 7 0 0
BITMAP
E0
A0
E0
A0
A0
A0
E0
ENDCHAR
STARTCHAR uni006A
ENCODING 106
SWIDTH 375 0
DWIDTH 3 0
BBX 4 7 0 0
BITMAP
F0
D0
F0
D0
D0
D0
B0
ENDCHAR
STARTCHAR uni006B
ENCODING 107
SWIDTH 625 0
DWIDTH 5 0
BBX 6 7 0 0
BITMAP
FC
BC
B4
AC
8C
B4
FC
ENDCHAR
STARTCHAR uni006C
ENCODING 108
SWIDTH 250 0
DWIDTH 2 0
BBX 3 7 0 0
BITMAP
E0
A0
A0
A0
A0
A0
E0
ENDCHAR
STARTCHAR uni006D
ENCODING 109
SWIDTH 750 0
DWIDTH 6 0
BBX 7 7 0 0
BITMAP
FE
FE
96
AA
AA
AA
FE
ENDCHAR
STARTCHAR uni006E
ENCODING 110
SWIDTH 625 0
DWIDTH 5 0
BBX 6 7 0 0
BITMAP
FC
FC
8C
B4
B4
B4
FC
ENDCHAR
STARTCHAR uni006F
ENCODING 111
SWIDTH 625 0
DWIDTH 5 0
BBX 6 7 0 0
BITMAP
FC
FC
CC
B4
B4
CC
FC
ENDCHAR
STARTCHAR uni0070
ENCODING 112
SWIDTH 625 0
DWIDTH 5 0
BBX 6 7 0 0
BITMAP
FC
FC
8C
B4
B4
8C
BC
ENDCHAR
STARTCHAR uni0071
ENCODING 113
SWIDTH 625 0
DWIDTH 5 0
BBX 6 7 0 0
BITMAP
FC
FC
C4
B4
B4
C4
F4
ENDCHAR
STARTCHAR uni0072
ENCODING 114
SWIDTH 500 0
DWIDTH 4 0
BBX 5 7 0 0
BITMAP
F8
F8
A8
98
B8
B8
F8
ENDCHAR
STARTCHAR uni0073
ENCODING 115
SWIDTH 500 0
DWIDTH 4 0
BBX 5 7 0 0
BITMAP
F8
F8
C8
B8
E8
98
F8
ENDCHAR
STARTCHAR uni0074
ENCODING 116
SWIDTH 500 0
DWIDTH 4 0
BBX 5 7 0 0
BITMAP
F8
B8
88
B8
B8
C8
F8
ENDCHAR
STARTCHAR uni0075
ENCODING 117
SWIDTH 625 0
DWIDTH 5 0
BBX 6 7 0 0
BITMAP
FC
FC
B4
B4
B4
C4
FC
ENDCHAR
STARTCHAR uni0076
ENCODING 118
SWIDTH 625 0
DWIDTH 5 0
BBX 6 7 0 0
BITMAP
FC
FC
B4
B4
AC
9C
FC
ENDCHAR
STARTCHAR uni0077
ENCODING 119
SWIDTH 750 0
DWIDTH 6 0
BBX 7 7 0 0
BITMAP
FE
FE
BA
AA
AA
D6
FE
ENDCHAR
STARTCHAR uni0078
ENCODING 120
SWIDTH 625 0
DWIDTH 5 0
BBX 6 7 0 0
BITMAP
FC
FC
B4
CC
CC
B4
FC
ENDCHAR
STARTCHAR uni0079
ENCODING 121
SWIDTH 625 0
DWIDTH 5 0
BBX 6 7 0 0
BITMAP
FC
FC
B4
B4
C4
F4
CC
ENDCHAR
STARTCHAR uni007A
ENCODING 122
SWIDTH 625 0
DWIDTH 5 0
BBX 6 7 0 0
BITMAP
FC
FC
84
EC
DC
84
FC
ENDCHAR
STARTCHAR uni007B
ENCODING 123
SWIDTH 500 0
DWIDTH 4 0
BBX 5 7 0 0
BITMAP
F8
C8
D8
98
D8
C8
F8
ENDCHAR
STARTCHAR uni007C
ENCODING 124
SWIDTH 250 0
DWIDTH 2 0
BBX 3 7 0 0
BITMAP
A0
A0
A0
A0
A0
A0
A0
ENDCHAR
STARTCHAR uni007D
ENCODING 125
SWIDTH 500 0
DWIDTH 4 0
BBX 5 7 0 0
BITMAP
F8
98
D8
C8
D8
98
F8
ENDCHAR
STARTCHAR uni007E
ENCODING 126
SWIDTH 625 0
DWIDTH 5 0
BBX 6 7 0 0
BITMAP
FC
FC
FC
D4
AC
FC
FC
ENDCHAR
STARTCHAR uni00A0
ENCODING 160
SWIDTH 375 0
DWIDTH 3 0
BBX 4 7 0 0
BITMAP
F0
F0
F0
F0
F0
F0
F0
ENDCHAR
STARTCHAR uni00A5
ENCODING 165
SWIDTH 500 0
DWIDTH 4 0
BBX 5 7 0 0
BITMAP
F8
F8
A8
D8
88
D8
F8
ENDCHAR
STARTCHAR uni00AB
ENCODING 171
SWIDTH 750 0
DWIDTH 6 0
BBX 7 7 0 0
BITMAP
FE
FE
DA
B6
DA
FE
FE
ENDCHAR
STARTCHAR uni00B0
ENCODING 176
SWIDTH 500 0
DWIDTH 4 0
BBX 5 7 0 0
BITMAP
F8
88
A8
88
F8
F8
F8
ENDCHAR
STARTCHAR uni00B1
ENCODING 177
SWIDTH 625 0
DWIDTH 5 0
BBX 5 7 0 0
BITMAP
F8
D8
88
D8
F8
88
F8
ENDCHAR
STARTCHAR uni00BB
ENCODING 187
SWIDTH 750 0
DWIDTH 6 0
BBX 7 7 0 0
BITMAP
FE
FE
B6
DA
B6
FE
FE
ENDCHAR
STARTCHAR uni00D7
ENCODING 215
SWIDTH 500 0
DWIDTH 4 0
BBX 5 7 0 0
BITMAP
F8
F8
A8
D8
A8
F8
F8
ENDCHAR
STARTCHAR uni00F7
ENCODING 247
SWIDTH 500 0
DWIDTH 4 0
BBX 5 7 0 0
BITMAP
F8
D8
F8
88
F8
D8
F8
ENDCHAR
STARTCHAR uni2000
ENCODING 8192
SWIDTH 375 0
DWIDTH 3 0
BBX 1 1 0 0
BITMAP
00
ENDCHAR
STARTCHAR uni2001
ENCODING 8193
SWIDTH 625 0
DWIDTH 5 0
BBX 1 1 0 0
BITMAP
00
ENDCHAR
STARTCHAR uni2002
ENCODING 8194
SWIDTH 375 0
DWIDTH 3 0
BBX 4 7 0 0
BITMAP
F0
F0
F0
F0
F0
F0
F0
ENDCHAR
STARTCHAR uni2003
ENCODING 8195
SWIDTH 625 0
DWIDTH 5 0
BBX 6 7 0 0
BITMAP
FC
FC
FC
FC
FC
FC
FC
ENDCHAR
STARTCHAR uni2004
ENCODING 8196
SWIDTH 375 0
DWIDTH 3 0
BBX 4 7 0 0
BITMAP
F0
F0
F0
F0
F0
F0
F0
ENDCHAR
STARTCHAR uni2005
ENCODING 8197
SWIDTH 250 0
DWIDTH 2 0
BBX 3 7 0 0
BITMAP
E0
E0
E0
E0
E0
E0
E0
ENDCHAR
STARTCHAR uni2006
ENCODING 8198
SWIDTH 125 0
DWIDTH 1 0
BBX 2 7 0 0
BITMAP
C0
C0
C0
C0
C0
C0
C0
ENDCHAR
STARTCHAR uni2007
ENCODING 8199
SWIDTH 625 0
DWIDTH 5 0
BBX 6 7 0 0
BITMAP
FC
FC
FC
FC
FC
FC
FC
ENDCHAR
STARTCHAR uni2008
ENCODING 8200
SWIDTH 250 0
DWIDTH 2 0
BBX 3 7 0 0
BITMAP
E0
E0
E0
E0
E0
E0
E0
ENDCHAR
STARTCHAR uni2009
ENCODING 8201
SWIDTH 250 0
DWIDTH 2 0
BBX 1 1 0 0
BITMAP
00
ENDCHAR
STARTCHAR uni200A
ENCODING 8202
SWIDTH 125 0
DWIDTH 1 0
BBX 1 1 0 0
BITMAP
00
ENDCHAR
STARTCHAR uni200B
ENCODING 8203
SWIDTH 0 0
DWIDTH 0 0
BBX 1 1 0 0
BITMAP
00
ENDCHAR
STARTCHAR uni200C
ENCODING 8204
SWIDTH 0 0
DWIDTH 0 0
BBX 1 1 0 0
BITMAP
00
ENDCHAR
STARTCHAR uni200D
ENCODING 8205
SWIDTH 0 0
DWIDTH 0 0
BBX 1 1 0 0
BITMAP
00
ENDCHAR
STARTCHAR uni2013
ENCODING 8211
SWIDTH 500 0
DWIDTH 4 0
BBX 5 7 0 0
BITMAP
F8
F8
F8
88
F8
F8
F8
ENDCHAR
STARTCHAR uni2014
ENCODING 8212
SWIDTH 625 0
DWIDTH 5 0
BBX 6 7 0 0
BITMAP
FC
FC
FC
84
FC
FC
FC
ENDCHAR
STARTCHAR uni2015
ENCODING 8213
SWIDTH 625 0
DWIDTH 5 0
BBX 6 7 0 0
BITMAP
FC
FC
FC
84
FC
FC
FC
ENDCHAR
STARTCHAR uni2018
ENCODING 8216
SWIDTH 375 0
DWIDTH 3 0
BBX 4 7 0 0
BITMAP
F0
D0
B0
B0
F0
F0
F0
ENDCHAR
STARTCHAR uni2019
ENCODING 8217
SWIDTH 375 0
DWIDTH 3 0
BBX 4 7 0 0
BITMAP
F0
D0
D0
B0
F0
F0
F0
ENDCHAR
STARTCHAR uni201A
ENCODING 8218
SWIDTH 375 0
DWIDTH 3 0
BBX 4 7 0 0
BITMAP
F0
F0
F0
F0
D0
D0
B0
ENDCHAR
STARTCHAR uni201C
ENCODING 8220
SWIDTH 625 0
DWIDTH 5 0
BBX 6 7 0 0
BITMAP
FC
D4
AC
AC
FC
FC
FC
ENDCHAR
STARTCHAR uni201D
ENCODING 8221
SWIDTH 625 0
DWIDTH 5 0
BBX 6 7 0 0
BITMAP
FC
D4
D4
AC
FC
FC
FC
ENDCHAR
STARTCHAR uni201E
ENCODING 8222
SWIDTH 625 0
DWIDTH 5 0
BBX 6 7 0 0
BITMAP
FC
FC
FC
FC
D4
D4
AC
ENDCHAR
STARTCHAR uni2022
ENCODING 8226
SWIDTH 500 0
DWIDTH 4 0
BBX 5 7 0 0
BITMAP
F8
F8
88
88
88
F8
F8
ENDCHAR
STARTCHAR uni2025
ENCODING 8229
SWIDTH 500 0
DWIDTH 4 0
BBX 5 7 0 0
BITMAP
F8
F8
F8
A8
F8
F8
F8
ENDCHAR
STARTCHAR uni2026
ENCODING 8230
SWIDTH 750 0
DWIDTH 6 0
BBX 7 7 0 0
BITMAP
FE
FE
FE
AA
FE
FE
FE
ENDCHAR
STARTCHAR uni2039
ENCODING 8249
SWIDTH 375 0
DWIDTH 3 0
BBX 4 7 0 0
BITMAP
F0
F0
D0
B0
D0
F0
F0
ENDCHAR
STARTCHAR uni203A
ENCODING 8250
SWIDTH 375 0
DWIDTH 3 0
BBX 4 7 0 0
BITMAP
F0
F0
B0
D0
B0
F0
F0
ENDCHAR
STARTCHAR uni2103
ENCODING 8451
SWIDTH 750 0
DWIDTH 6 0
BBX 7 7 0 0
BITMAP
FE
D2
AE
CE
EE
F2
FE
ENDCHAR
STARTCHAR uni2190
ENCODING 8592
SWIDTH 750 0
DWIDTH 6 0
BBX 7 7 0 0
BITMAP
FE
EE
DE
82
DE
EE
FE
ENDCHAR
STARTCHAR uni2191
ENCODING 8593
SWIDTH 750 0
DWIDTH 6 0
BBX 7 7 0 0
BITMAP
FE
EE
C6
AA
EE
EE
FE
ENDCHAR
STARTCHAR uni2192
ENCODING 8594
SWIDTH 750 0
DWIDTH 6 0
BBX 7 7 0 0
BITMAP
FE
EE
F6
82
F6
EE
FE
ENDCHAR
STARTCHAR uni2193
ENCODING 8595
SWIDTH 750 0
DWIDTH 6 0
BBX 7 7 0 0
BITMAP
FE
EE
EE
AA
C6
EE
FE
ENDCHAR
STARTCHAR uni25A0
ENCODING 9632
SWIDTH 750 0
DWIDTH 6 0
BBX 7 7 0 0
BITMAP
FE
82
82
82
82
82
FE
ENDCHAR
STARTCHAR uni25A1
ENCODING 9633
SWIDTH 750 0
DWIDTH 6 0
BBX 7 7 0 0
BITMAP
FE
82
BA
BA
BA
82
FE
ENDCHAR
STARTCHAR uni25B2
ENCODING 9650
SWIDTH 750 0
DWIDTH 6 0
BBX 7 7 0 0
BITMAP
FE
EE
EE
C6
C6
82
FE
ENDCHAR
STARTCHAR uni25B3
ENCODING 9651
SWIDTH 750 0
DWIDTH 6 0
BBX 7 7 0 0
BITMAP
FE
EE
EE
D6
D6
82
FE
ENDCHAR
STARTCHAR uni25BC
ENCODING 9660
SWIDTH 750 0
DWIDTH 6 0
BBX 7 7 0 0
BITMAP
FE
82
C6
C6
EE
EE
FE
ENDCHAR
STARTCHAR uni25BD
ENCODING 9661
SWIDTH 750 0
DWIDTH 6 0
BBX 7 7 0 0
BITMAP
FE
82
D6
D6
EE
EE
FE
ENDCHAR
STARTCHAR uni25C6
ENCODING 9670
SWIDTH 750 0
DWIDTH 6 0
BBX 7 7 0 0
BITMAP
FE
EE
C6
82
C6
EE
FE
ENDCHAR
STARTCHAR uni25C7
ENCODING 9671
SWIDTH 750 0
DWIDTH 6 0
BBX 7 7 0 0
BITMAP
FE
EE
D6
BA
D6
EE
FE
ENDCHAR
STARTCHAR uni25CB
ENCODING 9675
SWIDTH 750 0
DWIDTH 6 0
BBX 7 7 0 0
BITMAP
FE
C6
BA
BA
BA
C6
FE
ENDCHAR
STARTCHAR uni25CE
ENCODING 9678
SWIDTH 750 0
DWIDTH 6 0
BBX 7 7 0 0
BITMAP
FE
C6
BA
AA
BA
C6
FE
ENDCHAR
STARTCHAR uni25CF
ENCODING 9679
SWIDTH 750 0
DWIDTH 6 0
BBX 7 7 0 0
BITMAP
FE
C6
82
82
82
C6
FE
ENDCHAR
STARTCHAR uni2605
ENCODING 9733
SWIDTH 750 0
DWIDTH 6 0
BBX 7 7 0 0
BITMAP
FE
EE
82
C6
D6
BA
FE
ENDCHAR
STARTCHAR uni2606
ENCODING 9734
SWIDTH 750 0
DWIDTH 6 0
BBX 7 7 0 0
BITMAP
FE
EE
82
D6
C6
BA
FE
ENDCHAR
STARTCHAR uni266A
ENCODING 9834
SWIDTH 750 0
DWIDTH 6 0
BBX 7 7 0 0
BITMAP
FE
E6
EA
EA
8E
9E
FE
ENDCHAR
STARTCHAR uni3000
ENCODING 12288
SWIDTH 625 0
DWIDTH 5 0
BBX 6 7 0 0
BITMAP
FC
FC
FC
FC
FC
FC
FC
ENDCHAR
STARTCHAR uni3001
ENCODING 12289
SWIDTH 625 0
DWIDTH 5 0
BBX 6 7 0 0
BITMAP
FC
FC
FC
FC
BC
DC
FC
ENDCHAR
STARTCHAR uni3002
ENCODING 12290
SWIDTH 625 0
DWIDTH 5 0
BBX 6 7 0 0
BITMAP
FC
FC
FC
8C
AC
8C
FC
ENDCHAR
STARTCHAR uni3008
ENCODING 12296
SWIDTH 625 0
DWIDTH 5 0
BBX 6 7 0 0
BITMAP
FC
F4
E4
CC
E4
F4
FC
ENDCHAR
STARTCHAR uni3009
ENCODING 12297
SWIDTH 625 0
DWIDTH 5 0
BBX 6 7 0 0
BITMAP
FC
BC
9C
CC
9C
BC
FC
ENDCHAR
STARTCHAR uni300A
ENCODING 12298
SWIDTH 625 0
DWIDTH 5 0
BBX 6 7 0 0
BITMAP
FC
D4
D4
AC
D4
D4
FC
ENDCHAR
STARTCHAR uni300B
ENCODING 12299
SWIDTH 625 0
DWIDTH 5 0
BBX 6 7 0 0
BITMAP
FC
AC
AC
D4
AC
AC
FC
ENDCHAR
STARTCHAR uni300C
ENCODING 12300
SWIDTH 625 0
DWIDTH 5 0
BBX 6 7 0 0
BITMAP
FC
C4
DC
DC
DC
FC
FC
ENDCHAR
STARTCHAR uni300D
ENCODING 12301
SWIDTH 625 0
DWIDTH 5 0
BBX 6 7 0 0
BITMAP
FC
FC
EC
EC
EC
8C
FC
ENDCHAR
STARTCHAR uni300E
ENCODING 12302
SWIDTH 625 0
DWIDTH 5 0
BBX 6 7 0 0
BITMAP
FC
84
B4
A4
AC
8C
FC
ENDCHAR
STARTCHAR uni300F
ENCODING 12303
SWIDTH 625 0
DWIDTH 5 0
BBX 6 7 0 0
BITMAP
FC
C4
D4
94
B4
84
FC
ENDCHAR
STARTCHAR uni3010
ENCODING 12304
SWIDTH 625 0
DWIDTH 5 0
BBX 6 7 0 0
BITMAP
FC
C4
CC
DC
CC
C4
FC
ENDCHAR
STARTCHAR uni3011
ENCODING 12305
SWIDTH 625 0
DWIDTH 5 0
BBX 6 7 0 0
BITMAP
FC
8C
CC
EC
CC
8C
FC
ENDCHAR
STARTCHAR uni3014
ENCODING 12308
SWIDTH 625 0
DWIDTH 5 0
BBX 6 7 0 0
BITMAP
FC
C4
CC
CC
CC
C4
FC
ENDCHAR
STARTCHAR uni3015
ENCODING 12309
SWIDTH 625 0
DWIDTH 5 0
BBX 6 7 0 0
BITMAP
FC
8C
CC
CC
CC
8C
FC
ENDCHAR
STARTCHAR uni301C
ENCODING 12316
SWIDTH 625 0
DWIDTH 5 0
BBX 6 7 0 0
BITMAP
FC
FC
FC
D4
AC
FC
FC
ENDCHAR
STARTCHAR uni301D
ENCODING 12317
SWIDTH 625 0
DWIDTH 5 0
BBX 6 7 0 0
BITMAP
FC
AC
D4
FC
FC
FC
FC
ENDCHAR
STARTCHAR uni301E
ENCODING 12318
SWIDTH 625 0
DWIDTH 5 0
BBX 6 7 0 0
BITMAP
FC
D4
AC
FC
FC
FC
FC
ENDCHAR
STARTCHAR uni301F
ENCODING 12319
SWIDTH 625 0
DWIDTH 5 0
BBX 6 7 0 0
BITMAP
FC
FC
FC
FC
AC
D4
FC
ENDCHAR
STARTCHAR uni3041
ENCODING 12353
SWIDTH 625 0
DWIDTH 5 0
BBX 6 7 0 0
BITMAP
FC
FC
DC
84
CC
94
FC
ENDCHAR
STARTCHAR uni3042
ENCODING 12354
SWIDTH 625 0
DWIDTH 5 0
BBX 6 7 0 0
BITMAP
FC
DC
84
CC
A4
94
FC
ENDCHAR
STARTCHAR uni3043
ENCODING 12355
SWIDTH 625 0
DWIDTH 5 0
BBX 6 7 0 0
BITMAP
FC
FC
FC
AC
B4
94
FC
ENDCHAR
STARTCHAR uni3044
ENCODING 12356
SWIDTH 625 0
DWIDTH 5 0
BBX 6 7 0 0
BITMAP
FC
AC
B4
B4
B4
DC
FC
ENDCHAR
STARTCHAR uni3045
ENCODING 12357
SWIDTH 625 0
DWIDTH 5 0
BBX 6 7 0 0
BITMAP
FC
FC
CC
8C
F4
CC
FC
ENDCHAR
STARTCHAR uni3046
ENCODING 12358
SWIDTH 625 0
DWIDTH 5 0
BBX 6 7 0 0
BITMAP
FC
CC
8C
F4
F4
CC
FC
ENDCHAR
STARTCHAR uni3047
ENCODING 12359
SWIDTH 625 0
DWIDTH 5 0
BBX 6 7 0 0
BITMAP
FC
FC
DC
84
CC
A4
FC
ENDCHAR
STARTCHAR uni3048
ENCODING 12360
SWIDTH 625 0
DWIDTH 5 0
BBX 6 7 0 0
BITMAP
FC
CC
84
EC
CC
A4
FC
ENDCHAR
STARTCHAR uni3049
ENCODING 12361
SWIDTH 625 0
DWIDTH 5 0
BBX 6 7 0 0
BITMAP
FC
FC
D4
9C
C4
94
FC
ENDCHAR
STARTCHAR uni304A
ENCODING 12362
SWIDTH 625 0
DWIDTH 5 0
BBX 6 7 0 0
BITMAP
FC
D4
9C
C4
94
94
FC
ENDCHAR
STARTCHAR uni304B
ENCODING 12363
SWIDTH 625 0
DWIDTH 5 0
BBX 6 7 0 0
BITMAP
FC
D4
8C
D4
B4
AC
FC
ENDCHAR
STARTCHAR uni304C
ENCODING 12364
SWIDTH 1125 0
DWIDTH 9 0
BBX 10 7 0 0
BITMAP
FFC0
D540
8D40
D7C0
B7C0
AFC0
FFC0
ENDCHAR
STARTCHAR uni304D
ENCODING 12365
SWIDTH 625 0
DWIDTH 5 0
BBX 6 7 0 0
BITMAP
FC
C4
EC
C4
BC
CC
FC
ENDCHAR
STARTCHAR uni304E
ENCODING 12366
SWIDTH 1125 0
DWIDTH 9 0
BBX 10 7 0 0
BITMAP
FFC0
C540
ED40
C7C0
BFC0
CFC0
FFC0
ENDCHAR
STARTCHAR uni304F
ENCODING 12367
SWIDTH 625 0
DWIDTH 5 0
BBX 6 7 0 0
BITMAP
FC
F4
CC
BC
CC
F4
FC
ENDCHAR
STARTCHAR uni3050
ENCODING 12368
SWIDTH 1125 0
DWIDTH 9 0
BBX 10 7 0 0
BITMAP
FFC0
F540
CD40
BFC0
CFC0
F7C0
FFC0
ENDCHAR
STARTCHAR uni3051
ENCODING 12369
SWIDTH 625 0
DWIDTH 5 0
BBX 6 7 0 0
BITMAP
FC
B4
A4
B4
B4
AC
FC
ENDCHAR
STARTCHAR uni3052
ENCODING 12370
SWIDTH 1125 0
DWIDTH 9 0
BBX 10 7 0 0
BITMAP
FFC0
B540
A540
B7C0
B7C0
AFC0
FFC0
ENDCHAR
STARTCHAR uni3053
ENCODING 12371
SWIDTH 625 0
DWIDTH 5 0
BBX 6 7 0 0
BITMAP
FC
CC
F4
FC
BC
C4
FC
ENDCHAR
STARTCHAR uni3054
ENCODING 12372
SWIDTH 1125 0
DWIDTH 9 0
BBX 10 7 0 0
BITMAP
FFC0
CD40
F540
FFC0
BFC0
C7C0
FFC0
ENDCHAR
STARTCHAR uni3055
ENCODING 12373
SWIDTH 625 0
DWIDTH 5 0
BBX 6 7 0 0
BITMAP
FC
DC
84
EC
BC
C4
FC
ENDCHAR
STARTCHAR uni3056
ENCODING 12374
SWIDTH 1125 0
DWIDTH 9 0
BBX 10 7 0 0
BITMAP
FFC0
DD40
8540
EFC0
BFC0
C7C0
FFC0
ENDCHAR
STARTCHAR uni3057
ENCODING 12375
SWIDTH 625 0
DWIDTH 5 0
BBX 6 7 0 0
BITMAP
FC
BC
BC
B4
B4
CC
FC
ENDCHAR
STARTCHAR uni3058
ENCODING 12376
SWIDTH 1125 0
DWIDTH 9 0
BBX 10 7 0 0
BITMAP
FFC0
BD40
BD40
B7C0
B7C0
CFC0
FFC0
ENDCHAR
STARTCHAR uni3059
ENCODING 12377
SWIDTH 625 0
DWIDTH 5 0
BBX 6 7 0 0
BITMAP
FC
EC
84
CC
EC
DC
FC
ENDCHAR
STARTCHAR uni305A
ENCODING 12378
SWIDTH 1125 0
DWIDTH 9 0
BBX 10 7 0 0
BITMAP
FFC0
ED40
8540
CFC0
EFC0
DFC0
FFC0
ENDCHAR
STARTCHAR uni305B
ENCODING 12379
SWIDTH 625 0
DWIDTH 5 0
BBX 6 7 0 0
BITMAP
FC
AC
84
AC
BC
C4
FC
ENDCHAR
STARTCHAR uni305C
ENCODING 12380
SWIDTH 1125 0
DWIDTH 9 0
BBX 10 7 0 0
BITMAP
FFC0
AD40
8540
AFC0
BFC0
C7C0
FFC0
ENDCHAR
STARTCHAR uni305D
ENCODING 12381
SWIDTH 625 0
DWIDTH 5 0
BBX 6 7 0 0
BITMAP
FC
B4
EC
84
DC
EC
FC
ENDCHAR
STARTCHAR uni305E
ENCODING 12382
SWIDTH 1125 0
DWIDTH 9 0
BBX 10 7 0 0
BITMAP
FFC0
B540
ED40
87C0
DFC0
EFC0
FFC0
ENDCHAR
STARTCHAR uni305F
ENCODING 12383
SWIDTH 625 0
DWIDTH 5 0
BBX 6 7 0 0
BITMAP
FC
BC
9C
A4
BC
A4
FC
ENDCHAR
STARTCHAR uni3060
ENCODING 12384
SWIDTH 1125 0
DWIDTH 9 0
BBX 10 7 0 0
BITMAP
FFC0
BD40
9D40
A7C0
BFC0
A7C0
FFC0
ENDCHAR
STARTCHAR uni3061
ENCODING 12385
SWIDTH 625 0
DWIDTH 5 0
BBX 6 7 0 0
BITMAP
FC
DC
84
CC
F4
CC
FC
ENDCHAR
STARTCHAR uni3062
ENCODING 12386
SWIDTH 1125 0
DWIDTH 9 0
BBX 10 7 0 0
BITMAP
FFC0
DD40
8540
CFC0
F7C0
CFC0
FFC0
ENDCHAR
STARTCHAR uni3063
ENCODING 12387
SWIDTH 625 0
DWIDTH 5 0
BBX 6 7 0 0
BITMAP
FC
FC
FC
8C
F4
CC
FC
ENDCHAR
STARTCHAR uni3064
ENCODING 12388
SWIDTH 625 0
DWIDTH 5 0
BBX 6 7 0 0
BITMAP
FC
8C
F4
F4
F4
CC
FC
ENDCHAR
STARTCHAR uni3065
ENCODING 12389
SWIDTH 1125 0
DWIDTH 9 0
BBX 10 7 0 0
BITMAP
FFC0
8D40
F540
F7C0
F7C0
CFC0
FFC0
ENDCHAR
STARTCHAR uni3066
ENCODING 12390
SWIDTH 625 0
DWIDTH 5 0
BBX 6 7 0 0
BITMAP
FC
84
EC
DC
DC
E4
FC
ENDCHAR
STARTCHAR uni3067
ENCODING 12391
SWIDTH 1125 0
DWIDTH 9 0
BBX 10 7 0 0
BITMAP
FFC0
8540
ED40
DFC0
DFC0
E7C0
FFC0
ENDCHAR
STARTCHAR uni3068
ENCODING 12392
SWIDTH 625 0
DWIDTH 5 0
BBX 6 7 0 0
BITMAP
FC
B4
CC
DC
BC
C4
FC
ENDCHAR
STARTCHAR uni3069
ENCODING 12393
SWIDTH 1125 0
DWIDTH 9 0
BBX 10 7 0 0
BITMAP
FFC0
B540
CD40
DFC0
BFC0
C7C0
FFC0
ENDCHAR
STARTCHAR uni306A
ENCODING 12394
SWIDTH 625 0
DWIDTH 5 0
BBX 6 7 0 0
BITMAP
FC
94
B4
CC
A4
DC
FC
ENDCHAR
STARTCHAR uni306B
ENCODING 12395
SWIDTH 625 0
DWIDTH 5 0
BBX 6 7 0 0
BITMAP
FC
A4
BC
BC
AC
B4
FC
ENDCHAR
STARTCHAR uni306C
ENCODING 12396
SWIDTH 625 0
DWIDTH 5 0
BBX 6 7 0 0
BITMAP
FC
AC
CC
A4
94
E4
FC
ENDCHAR
STARTCHAR uni306D
ENCODING 12397
SWIDTH 625 0
DWIDTH 5 0
BBX 6 7 0 0
BITMAP
FC
DC
8C
D4
84
C4
FC
ENDCHAR
STARTCHAR uni306E
ENCODING 12398
SWIDTH 625 0
DWIDTH 5 0
BBX 6 7 0 0
BITMAP
FC
FC
CC
94
94
EC
FC
ENDCHAR
STARTCHAR uni306F
ENCODING 12399
SWIDTH 625 0
DWIDTH 5 0
BBX 6 7 0 0
BITMAP
FC
B4
A4
B4
A4
A4
FC
ENDCHAR
STARTCHAR uni3070
ENCODING 12400
SWIDTH 1125 0
DWIDTH 9 0
BBX 10 7 0 0
BITMAP
FFC0
B540
A540
B7C0
A7C0
A7C0
FFC0
ENDCHAR
STARTCHAR uni3071
ENCODING 12401
SWIDTH 1125 0
DWIDTH 9 0
BBX 10 7 0 0
BITMAP
FFC0
B440
A540
B440
A7C0
A7C0
FFC0
ENDCHAR
STARTCHAR uni3072
ENCODING 12402
SWIDTH 625 0
DWIDTH 5 0
BBX 6 7 0 0
BITMAP
FC
9C
D4
B4
B4
CC
FC
ENDCHAR
STARTCHAR uni3073
ENCODING 12403
SWIDTH 1125 0
DWIDTH 9 0
BBX 10 7 0 0
BITMAP
FFC0
9D40
D540
B7C0
B7C0
CFC0
FFC0
ENDCHAR
STARTCHAR uni3074
ENCODING 12404
SWIDTH 1125 0
DWIDTH 9 0
BBX 10 7 0 0
BITMAP
FFC0
9C40
D540
B440
B7C0
CFC0
FFC0
ENDCHAR
STARTCHAR uni3075
ENCODING 12405
SWIDTH 625 0
DWIDTH 5 0
BBX 6 7 0 0
BITMAP
FC
CC
EC
A4
A4
EC
FC
ENDCHAR
STARTCHAR uni3076
ENCODING 12406
SWIDTH 1125 0
DWIDTH 9 0
BBX 10 7 0 0
BITMAP
FFC0
CD40
ED40
A7C0
A7C0
EFC0
FFC0
ENDCHAR
STARTCHAR uni3077
ENCODING 12407
SWIDTH 1125 0
DWIDTH 9 0
BBX 10 7 0 0
BITMAP
FFC0
CC40
ED40
A440
A7C0
EFC0
FFC0
ENDCHAR
STARTCHAR uni3078
ENCODING 12408
SWIDTH 625 0
DWIDTH 5 0
BBX 6 7 0 0
BITMAP
FC
DC
AC
AC
F4
F4
FC
ENDCHAR
STARTCHAR uni3079
ENCODING 12409
SWIDTH 1125 0
DWIDTH 9 0
BBX 10 7 0 0
BITMAP
FFC0
DD40
AD40
AFC0
F7C0
F7C0
FFC0
ENDCHAR
STARTCHAR uni307A
ENCODING 12410
SWIDTH 1125 0
DWIDTH 9 0
BBX 10 7 0 0
BITMAP
FFC0
DC40
AD40
AC40
F7C0
F7C0
FFC0
ENDCHAR
STARTCHAR uni307B
ENCODING 12411
SWIDTH 625 0
DWIDTH 5 0
BBX 6 7 0 0
BITMAP
FC
A4
A4
B4
A4
A4
FC
ENDCHAR
STARTCHAR uni307C
ENCODING 12412
SWIDTH 1125 0
DWIDTH 9 0
BBX 10 7 0 0
BITMAP
FFC0
A540
A540
B7C0
A7C0
A7C0
FFC0
ENDCHAR
STARTCHAR uni307D
ENCODING 12413
SWIDTH 1125 0
DWIDTH 9 0
BBX 10 7 0 0
BITMAP
FFC0
A440
A540
B440
A7C0
A7C0
FFC0
ENDCHAR
STARTCHAR uni307E
ENCODING 12414
SWIDTH 625 0
DWIDTH 5 0
BBX 6 7 0 0
BITMAP
FC
C4
EC
C4
AC
94
FC
ENDCHAR
STARTCHAR uni307F
ENCODING 12415
SWIDTH 625 0
DWIDTH 5 0
BBX 6 7 0 0
BITMAP
FC
9C
D4
C4
94
94
FC
ENDCHAR
STARTCHAR uni3080
ENCODING 12416
SWIDTH 625 0
DWIDTH 5 0
BBX 6 7 0 0
BITMAP
FC
D4
94
DC
94
84
FC
ENDCHAR
STARTCHAR uni3081
ENCODING 12417
SWIDTH 625 0
DWIDTH 5 0
BBX 6 7 0 0
BITMAP
FC
AC
CC
A4
94
F4
FC
ENDCHAR
STARTCHAR uni3082
ENCODING 12418
SWIDTH 625 0
DWIDTH 5 0
BBX 6 7 0 0
BITMAP
FC
8C
DC
8C
DC
E4
FC
ENDCHAR
STARTCHAR uni3083
ENCODING 12419
SWIDTH 625 0
DWIDTH 5 0
BBX 6 7 0 0
BITMAP
FC
FC
D4
84
D4
DC
FC
ENDCHAR
STARTCHAR uni3084
ENCODING 12420
SWIDTH 625 0
DWIDTH 5 0
BBX 6 7 0 0
BITMAP
FC
EC
A4
94
DC
EC
FC
ENDCHAR
STARTCHAR uni3085
ENCODING 12421
SWIDTH 625 0
DWIDTH 5 0
BBX 6 7 0 0
BITMAP
FC
FC
EC
A4
84
EC
FC
ENDCHAR
STARTCHAR uni3086
ENCODING 12422
SWIDTH 625 0
DWIDTH 5 0
BBX 6 7 0 0
BITMAP
FC
EC
A4
94
A4
EC
FC
ENDCHAR
STARTCHAR uni3087
ENCODING 12423
SWIDTH 625 0
DWIDTH 5 0
BBX 6 7 0 0
BITMAP
FC
FC
EC
E4
8C
94
FC
ENDCHAR
STARTCHAR uni3088
ENCODING 12424
SWIDTH 625 0
DWIDTH 5 0
BBX 6 7 0 0
BITMAP
FC
EC
E4
8C
A4
CC
FC
ENDCHAR
STARTCHAR uni3089
ENCODING 12425
SWIDTH 625 0
DWIDTH 5 0
BBX 6 7 0 0
BITMAP
FC
A4
BC
8C
F4
CC
FC
ENDCHAR
STARTCHAR uni308A
ENCODING 12426
SWIDTH 625 0
DWIDTH 5 0
BBX 6 7 0 0
BITMAP
FC
AC
94
B4
F4
CC
FC
ENDCHAR
STARTCHAR uni308B
ENCODING 12427
SWIDTH 625 0
DWIDTH 5 0
BBX 6 7 0 0
BITMAP
FC
84
EC
F4
94
8C
FC
ENDCHAR
STARTCHAR uni308C
ENCODING 12428
SWIDTH 625 0
DWIDTH 5 0
BBX 6 7 0 0
BITMAP
FC
D4
84
D4
94
D4
FC
ENDCHAR
STARTCHAR uni308D
ENCODING 12429
SWIDTH 625 0
DWIDTH 5 0
BBX 6 7 0 0
BITMAP
FC
8C
DC
8C
F4
8C
FC
ENDCHAR
STARTCHAR uni308E
ENCODING 12430
SWIDTH 625 0
DWIDTH 5 0
BBX 6 7 0 0
BITMAP
FC
FC
DC
8C
94
D4
FC
ENDCHAR
STARTCHAR uni308F
ENCODING 12431
SWIDTH 625 0
DWIDTH 5 0
BBX 6 7 0 0
BITMAP
FC
DC
8C
D4
94
D4
FC
ENDCHAR
STARTCHAR uni3090
ENCODING 12432
SWIDTH 625 0
DWIDTH 5 0
BBX 6 7 0 0
BITMAP
FC
9C
CC
94
94
A4
FC
ENDCHAR
STARTCHAR uni3091
ENCODING 12433
SWIDTH 625 0
DWIDTH 5 0
BBX 6 7 0 0
BITMAP
FC
84
CC
AC
DC
A4
FC
ENDCHAR
STARTCHAR uni3092
ENCODING 12434
SWIDTH 625 0
DWIDTH 5 0
BBX 6 7 0 0
BITMAP
FC
8C
DC
CC
BC
C4
FC
ENDCHAR
STARTCHAR uni3093
ENCODING 12435
SWIDTH 625 0
DWIDTH 5 0
BBX 6 7 0 0
BITMAP
FC
DC
DC
CC
AC
A4
FC
ENDCHAR
STARTCHAR uni3094
ENCODING 12436
SWIDTH 1125 0
DWIDTH 9 0
BBX 10 7 0 0
BITMAP
FFC0
CD40
8D40
F7C0
F7C0
CFC0
FFC0
ENDCHAR
STARTCHAR uni3099
ENCODING 12441
SWIDTH 500 0
DWIDTH 4 0
BBX 5 7 0 0
BITMAP
F8
A8
A8
F8
F8
F8
F8
ENDCHAR
STARTCHAR uni309A
ENCODING 12442
SWIDTH 500 0
DWIDTH 4 0
BBX 5 7 0 0
BITMAP
F8
88
A8
88
F8
F8
F8
ENDCHAR
STARTCHAR uni309B
ENCODING 12443
SWIDTH 500 0
DWIDTH 4 0
BBX 5 7 0 0
BITMAP
F8
A8
A8
F8
F8
F8
F8
ENDCHAR
STARTCHAR uni309C
ENCODING 12444
SWIDTH 500 0
DWIDTH 4 0
BBX 5 7 0 0
BITMAP
F8
88
A8
88
F8
F8
F8
ENDCHAR
STARTCHAR uni309D
ENCODING 12445
SWIDTH 625 0
DWIDTH 5 0
BBX 6 7 0 0
BITMAP
FC
FC
DC
EC
F4
EC
FC
ENDCHAR
STARTCHAR uni309E
ENCODING 12446
SWIDTH 1125 0
DWIDTH 9 0
BBX 10 7 0 0
BITMAP
FFC0
FD40
DD40
EFC0
F7C0
EFC0
FFC0
ENDCHAR
STARTCHAR uni30A0
ENCODING 12448
SWIDTH 500 0
DWIDTH 4 0
BBX 5 7 0 0
BITMAP
F8
F8
88
F8
88
F8
F8
ENDCHAR
STARTCHAR uni30A1
ENCODING 12449
SWIDTH 625 0
DWIDTH 5 0
BBX 6 7 0 0
BITMAP
FC
FC
84
F4
D4
DC
FC
ENDCHAR
STARTCHAR uni30A2
ENCODING 12450
SWIDTH 625 0
DWIDTH 5 0
BBX 6 7 0 0
BITMAP
FC
84
F4
D4
DC
BC
FC
ENDCHAR
STARTCHAR uni30A3
ENCODING 12451
SWIDTH 625 0
DWIDTH 5 0
BBX 6 7 0 0
BITMAP
FC
FC
F4
EC
8C
EC
FC
ENDCHAR
STARTCHAR uni30A4
ENCODING 12452
SWIDTH 625 0
DWIDTH 5 0
BBX 6 7 0 0
BITMAP
FC
F4
EC
8C
EC
EC
FC
ENDCHAR
STARTCHAR uni30A5
ENCODING 12453
SWIDTH 625 0
DWIDTH 5 0
BBX 6 7 0 0
BITMAP
FC
FC
DC
84
B4
EC
FC
ENDCHAR
STARTCHAR uni30A6
ENCODING 12454
SWIDTH 625 0
DWIDTH 5 0
BBX 6 7 0 0
BITMAP
FC
DC
84
B4
F4
CC
FC
ENDCHAR
STARTCHAR uni30A7
ENCODING 12455
SWIDTH 625 0
DWIDTH 5 0
BBX 6 7 0 0
BITMAP
FC
FC
FC
8C
DC
84
FC
ENDCHAR
STARTCHAR uni30A8
ENCODING 12456
SWIDTH 625 0
DWIDTH 5 0
BBX 6 7 0 0
BITMAP
FC
8C
DC
DC
DC
84
FC
ENDCHAR
STARTCHAR uni30A9
ENCODING 12457
SWIDTH 625 0
DWIDTH 5 0
BBX 6 7 0 0
BITMAP
FC
FC
EC
84
CC
AC
FC
ENDCHAR
STARTCHAR uni30AA
ENCODING 12458
SWIDTH 625 0
DWIDTH 5 0
BBX 6 7 0 0
BITMAP
FC
EC
84
EC
CC
AC
FC
ENDCHAR
STARTCHAR uni30AB
ENCODING 12459
SWIDTH 625 0
DWIDTH 5 0
BBX 6 7 0 0
BITMAP
FC
DC
84
D4
B4
A4
FC
ENDCHAR
STARTCHAR uni30AC
ENCODING 12460
SWIDTH 1125 0
DWIDTH 9 0
BBX 10 7 0 0
BITMAP
FFC0
DD40
8540
D7C0
B7C0
A7C0
FFC0
ENDCHAR
STARTCHAR uni30AD
ENCODING 12461
SWIDTH 625 0
DWIDTH 5 0
BBX 6 7 0 0
BITMAP
FC
DC
84
DC
84
EC
FC
ENDCHAR
STARTCHAR uni30AE
ENCODING 12462
SWIDTH 1125 0
DWIDTH 9 0
BBX 10 7 0 0
BITMAP
FFC0
DD40
8540
DFC0
87C0
EFC0
FFC0
ENDCHAR
STARTCHAR uni30AF
ENCODING 12463
SWIDTH 625 0
DWIDTH 5 0
BBX 6 7 0 0
BITMAP
FC
C4
D4
B4
F4
CC
FC
ENDCHAR
STARTCHAR uni30B0
ENCODING 12464
SWIDTH 1125 0
DWIDTH 9 0
BBX 10 7 0 0
BITMAP
FFC0
C540
D540
B7C0
F7C0
CFC0
FFC0
ENDCHAR
STARTCHAR uni30B1
ENCODING 12465
SWIDTH 625 0
DWIDTH 5 0
BBX 6 7 0 0
BITMAP
FC
DC
C4
AC
EC
DC
FC
ENDCHAR
STARTCHAR uni30B2
ENCODING 12466
SWIDTH 1125 0
DWIDTH 9 0
BBX 10 7 0 0
BITMAP
FFC0
DD40
C540
AFC0
EFC0
DFC0
FFC0
ENDCHAR
STARTCHAR uni30B3
ENCODING 12467
SWIDTH 625 0
DWIDTH 5 0
BBX 6 7 0 0
BITMAP
FC
84
F4
F4
F4
84
FC
ENDCHAR
STARTCHAR uni30B4
ENCODING 12468
SWIDTH 1125 0
DWIDTH 9 0
BBX 10 7 0 0
BITMAP
FFC0
8540
F540
F7C0
F7C0
87C0
FFC0
ENDCHAR
STARTCHAR uni30B5
ENCODING 12469
SWIDTH 625 0
DWIDTH 5 0
BBX 6 7 0 0
BITMAP
FC
D4
84
D4
F4
CC
FC
ENDCHAR
STARTCHAR uni30B6
ENCODING 12470
SWIDTH 1125 0
DWIDTH 9 0
BBX 10 7 0 0
BITMAP
FFC0
D540
8540
D7C0
F7C0
CFC0
FFC0
ENDCHAR
STARTCHAR uni30B7
ENCODING 12471
SWIDTH 625 0
DWIDTH 5 0
BBX 6 7 0 0
BITMAP
FC
94
F4
94
F4
8C
FC
ENDCHAR
STARTCHAR uni30B8
ENCODING 12472
SWIDTH 1125 0
DWIDTH 9 0
BBX 10 7 0 0
BITMAP
FFC0
9540
F540
97C0
F7C0
8FC0
FFC0
ENDCHAR
STARTCHAR uni30B9
ENCODING 12473
SWIDTH 625 0
DWIDTH 5 0
BBX 6 7 0 0
BITMAP
FC
84
F4
EC
CC
B4
FC
ENDCHAR
STARTCHAR uni30BA
ENCODING 12474
SWIDTH 1125 0
DWIDTH 9 0
BBX 10 7 0 0
BITMAP
FFC0
8540
F540
EFC0
CFC0
B7C0
FFC0
ENDCHAR
STARTCHAR uni30BB
ENCODING 12475
SWIDTH 625 0
DWIDTH 5 0
BBX 6 7 0 0
BITMAP
FC
DC
84
D4
DC
C4
FC
ENDCHAR
STARTCHAR uni30BC
ENCODING 12476
SWIDTH 1125 0
DWIDTH 9 0
BBX 10 7 0 0
BITMAP
FFC0
DD40
8540
D7C0
DFC0
C7C0
FFC0
ENDCHAR
STARTCHAR uni30BD
ENCODING 12477
SWIDTH 625 0
DWIDTH 5 0
BBX 6 7 0 0
BITMAP
FC
B4
D4
F4
EC
DC
FC
ENDCHAR
STARTCHAR uni30BE
ENCODING 12478
SWIDTH 1125 0
DWIDTH 9 0
BBX 10 7 0 0
BITMAP
FFC0
B540
D540
F7C0
EFC0
DFC0
FFC0
ENDCHAR
STARTCHAR uni30BF
ENCODING 12479
SWIDTH 625 0
DWIDTH 5 0
BBX 6 7 0 0
BITMAP
FC
C4
D4
A4
F4
CC
FC
ENDCHAR
STARTCHAR uni30C0
ENCODING 12480
SWIDTH 1125 0
DWIDTH 9 0
BBX 10 7 0 0
BITMAP
FFC0
C540
D540
A7C0
F7C0
CFC0
FFC0
ENDCHAR
STARTCHAR uni30C1
ENCODING 12481
SWIDTH 625 0
DWIDTH 5 0
BBX 6 7 0 0
BITMAP
FC
C4
EC
84
EC
DC
FC
ENDCHAR
STARTCHAR uni30C2
ENCODING 12482
SWIDTH 1125 0
DWIDTH 9 0
BBX 10 7 0 0
BITMAP
FFC0
C540
ED40
87C0
EFC0
DFC0
FFC0
ENDCHAR
STARTCHAR uni30C3
ENCODING 12483
SWIDTH 625 0
DWIDTH 5 0
BBX 6 7 0 0
BITMAP
FC
FC
94
94
F4
CC
FC
ENDCHAR
STARTCHAR uni30C4
ENCODING 12484
SWIDTH 625 0
DWIDTH 5 0
BBX 6 7 0 0
BITMAP
FC
94
94
F4
EC
DC
FC
ENDCHAR
STARTCHAR uni30C5
ENCODING 12485
SWIDTH 1125 0
DWIDTH 9 0
BBX 10 7 0 0
BITMAP
FFC0
9540
9540
F7C0
EFC0
DFC0
FFC0
ENDCHAR
STARTCHAR uni30C6
ENCODING 12486
SWIDTH 625 0
DWIDTH 5 0
BBX 6 7 0 0
BITMAP
FC
84
FC
84
EC
9C
FC
ENDCHAR
STARTCHAR uni30C7
ENCODING 12487
SWIDTH 1125 0
DWIDTH 9 0
BBX 10 7 0 0
BITMAP
FFC0
8540
FD40
87C0
EFC0
9FC0
FFC0
ENDCHAR
STARTCHAR uni30C8
ENCODING 12488
SWIDTH 625 0
DWIDTH 5 0
BBX 6 7 0 0
BITMAP
FC
BC
BC
84
BC
BC
FC
ENDCHAR
STARTCHAR uni30C9
ENCODING 12489
SWIDTH 1125 0
DWIDTH 9 0
BBX 10 7 0 0
BITMAP
FFC0
BD40
BD40
87C0
BFC0
BFC0
FFC0
ENDCHAR
STARTCHAR uni30CA
ENCODING 12490
SWIDTH 625 0
DWIDTH 5 0
BBX 6 7 0 0
BITMAP
FC
EC
84
EC
EC
9C
FC
ENDCHAR
STARTCHAR uni30CB
ENCODING 12491
SWIDTH 625 0
DWIDTH 5 0
BBX 6 7 0 0
BITMAP
FC
8C
FC
FC
FC
84
FC
ENDCHAR
STARTCHAR uni30CC
ENCODING 12492
SWIDTH 625 0
DWIDTH 5 0
BBX 6 7 0 0
BITMAP
FC
84
F4
D4
EC
94
FC
ENDCHAR
STARTCHAR uni30CD
ENCODING 12493
SWIDTH 625 0
DWIDTH 5 0
BBX 6 7 0 0
BITMAP
FC
DC
8C
EC
94
DC
FC
ENDCHAR
STARTCHAR uni30CE
ENCODING 12494
SWIDTH 625 0
DWIDTH 5 0
BBX 6 7 0 0
BITMAP
FC
F4
F4
F4
EC
9C
FC
ENDCHAR
STARTCHAR uni30CF
ENCODING 12495
SWIDTH 625 0
DWIDTH 5 0
BBX 6 7 0 0
BITMAP
FC
AC
AC
AC
B4
B4
FC
ENDCHAR
STARTCHAR uni30D0
ENCODING 12496
SWIDTH 1125 0
DWIDTH 9 0
BBX 10 7 0 0
BITMAP
FFC0
AD40
AD40
AFC0
B7C0
B7C0
FFC0
ENDCHAR
STARTCHAR uni30D1
ENCODING 12497
SWIDTH 1125 0
DWIDTH 9 0
BBX 10 7 0 0
BITMAP
FFC0
AC40
AD40
AC40
B7C0
B7C0
FFC0
ENDCHAR
STARTCHAR uni30D2
ENCODING 12498
SWIDTH 625 0
DWIDTH 5 0
BBX 6 7 0 0
BITMAP
FC
BC
84
BC
BC
C4
FC
ENDCHAR
STARTCHAR uni30D3
ENCODING 12499
SWIDTH 1125 0
DWIDTH 9 0
BBX 10 7 0 0
BITMAP
FFC0
BD40
8540
BFC0
BFC0
C7C0
FFC0
ENDCHAR
STARTCHAR uni30D4
ENCODING 12500
SWIDTH 1125 0
DWIDTH 9 0
BBX 10 7 0 0
BITMAP
FFC0
BC40
8540
BC40
BFC0
C7C0
FFC0
ENDCHAR
STARTCHAR uni30D5
ENCODING 12501
SWIDTH 625 0
DWIDTH 5 0
BBX 6 7 0 0
BITMAP
FC
84
F4
F4
EC
9C
FC
ENDCHAR
STARTCHAR uni30D6
ENCODING 12502
SWIDTH 1125 0
DWIDTH 9 0
BBX 10 7 0 0
BITMAP
FFC0
8540
F540
F7C0
EFC0
9FC0
FFC0
ENDCHAR
STARTCHAR uni30D7
ENCODING 12503
SWIDTH 1125 0
DWIDTH 9 0
BBX 10 7 0 0
BITMAP
FFC0
8440
F540
F440
EFC0
9FC0
FFC0
ENDCHAR
STARTCHAR uni30D8
ENCODING 12504
SWIDTH 625 0
DWIDTH 5 0
BBX 6 7 0 0
BITMAP
FC
DC
AC
AC
F4
F4
FC
ENDCHAR
STARTCHAR uni30D9
ENCODING 12505
SWIDTH 1125 0
DWIDTH 9 0
BBX 10 7 0 0
BITMAP
FFC0
DD40
AD40
AFC0
F7C0
F7C0
FFC0
ENDCHAR
STARTCHAR uni30DA
ENCODING 12506
SWIDTH 1125 0
DWIDTH 9 0
BBX 10 7 0 0
BITMAP
FFC0
DC40
AD40
AC40
F7C0
F7C0
FFC0
ENDCHAR
STARTCHAR uni30DB
ENCODING 12507
SWIDTH 625 0
DWIDTH 5 0
BBX 6 7 0 0
BITMAP
FC
DC
84
DC
94
94
FC
ENDCHAR
STARTCHAR uni30DC
ENCODING 12508
SWIDTH 1125 0
DWIDTH 9 0
BBX 10 7 0 0
BITMAP
FFC0
DD40
8540
DFC0
97C0
97C0
FFC0
ENDCHAR
STARTCHAR uni30DD
ENCODING 12509
SWIDTH 1125 0
DWIDTH 9 0
BBX 10 7 0 0
BITMAP
FFC0
DC40
8540
DC40
97C0
97C0
FFC0
ENDCHAR
STARTCHAR uni30DE
ENCODING 12510
SWIDTH 625 0
DWIDTH 5 0
BBX 6 7 0 0
BITMAP
FC
84
F4
AC
DC
EC
FC
ENDCHAR
STARTCHAR uni30DF
ENCODING 12511
SWIDTH 625 0
DWIDTH 5 0
BBX 6 7 0 0
BITMAP
FC
8C
FC
8C
FC
84
FC
ENDCHAR
STARTCHAR uni30E0
ENCODING 12512
SWIDTH 625 0
DWIDTH 5 0
BBX 6 7 0 0
BITMAP
FC
EC
DC
BC
B4
84
FC
ENDCHAR
STARTCHAR uni30E1
ENCODING 12513
SWIDTH 625 0
DWIDTH 5 0
BBX 6 7 0 0
BITMAP
FC
F4
D4
EC
D4
B4
FC
ENDCHAR
STARTCHAR uni30E2
ENCODING 12514
SWIDTH 625 0
DWIDTH 5 0
BBX 6 7 0 0
BITMAP
FC
84
DC
84
DC
E4
FC
ENDCHAR
STARTCHAR uni30E3
ENCODING 12515
SWIDTH 625 0
DWIDTH 5 0
BBX 6 7 0 0
BITMAP
FC
FC
DC
84
D4
DC
FC
ENDCHAR
STARTCHAR uni30E4
ENCODING 12516
SWIDTH 625 0
DWIDTH 5 0
BBX 6 7 0 0
BITMAP
FC
DC
84
D4
DC
DC
FC
ENDCHAR
STARTCHAR uni30E5
ENCODING 12517
SWIDTH 625 0
DWIDTH 5 0
BBX 6 7 0 0
BITMAP
FC
FC
FC
8C
EC
84
FC
ENDCHAR
STARTCHAR uni30E6
ENCODING 12518
SWIDTH 625 0
DWIDTH 5 0
BBX 6 7 0 0
BITMAP
FC
8C
EC
EC
EC
84
FC
ENDCHAR
STARTCHAR uni30E7
ENCODING 12519
SWIDTH 625 0
DWIDTH 5 0
BBX 6 7 0 0
BITMAP
FC
FC
84
C4
F4
84
FC
ENDCHAR
STARTCHAR uni30E8
ENCODING 12520
SWIDTH 625 0
DWIDTH 5 0
BBX 6 7 0 0
BITMAP
FC
84
F4
C4
F4
84
FC
ENDCHAR
STARTCHAR uni30E9
ENCODING 12521
SWIDTH 625 0
DWIDTH 5 0
BBX 6 7 0 0
BITMAP
FC
84
FC
84
F4
CC
FC
ENDCHAR
STARTCHAR uni30EA
ENCODING 12522
SWIDTH 625 0
DWIDTH 5 0
BBX 6 7 0 0
BITMAP
FC
B4
B4
B4
F4
CC
FC
ENDCHAR
STARTCHAR uni30EB
ENCODING 12523
SWIDTH 625 0
DWIDTH 5 0
BBX 6 7 0 0
BITMAP
FC
AC
AC
AC
A4
AC
FC
ENDCHAR
STARTCHAR uni30EC
ENCODING 12524
SWIDTH 625 0
DWIDTH 5 0
BBX 6 7 0 0
BITMAP
FC
BC
BC
B4
AC
9C
FC
ENDCHAR
STARTCHAR uni30ED
ENCODING 12525
SWIDTH 625 0
DWIDTH 5 0
BBX 6 7 0 0
BITMAP
FC
84
B4
B4
B4
84
FC
ENDCHAR
STARTCHAR uni30EE
ENCODING 12526
SWIDTH 625 0
DWIDTH 5 0
BBX 6 7 0 0
BITMAP
FC
FC
84
B4
F4
CC
FC
ENDCHAR
STARTCHAR uni30EF
ENCODING 12527
SWIDTH 625 0
DWIDTH 5 0
BBX 6 7 0 0
BITMAP
FC
84
B4
F4
F4
CC
FC
ENDCHAR
STARTCHAR uni30F0
ENCODING 12528
SWIDTH 625 0
DWIDTH 5 0
BBX 6 7 0 0
BITMAP
FC
F4
84
D4
84
F4
FC
ENDCHAR
STARTCHAR uni30F1
ENCODING 12529
SWIDTH 625 0
DWIDTH 5 0
BBX 6 7 0 0
BITMAP
FC
84
F4
CC
DC
84
FC
ENDCHAR
STARTCHAR uni30F2
ENCODING 12530
SWIDTH 625 0
DWIDTH 5 0
BBX 6 7 0 0
BITMAP
FC
84
F4
84
F4
CC
FC
ENDCHAR
STARTCHAR uni30F3
ENCODING 12531
SWIDTH 625 0
DWIDTH 5 0
BBX 6 7 0 0
BITMAP
FC
94
F4
F4
EC
9C
FC
ENDCHAR
STARTCHAR uni30F4
ENCODING 12532
SWIDTH 1125 0
DWIDTH 9 0
BBX 10 7 0 0
BITMAP
FFC0
DD40
8540
B7C0
F7C0
CFC0
FFC0
ENDCHAR
STARTCHAR uni30F5
ENCODING 12533
SWIDTH 625 0
DWIDTH 5 0
BBX 6 7 0 0
BITMAP
FC
FC
DC
84
D4
B4
FC
ENDCHAR
STARTCHAR uni30F6
ENCODING 12534
SWIDTH 625 0
DWIDTH 5 0
BBX 6 7 0 0
BITMAP
FC
FC
DC
C4
AC
EC
FC
ENDCHAR
STARTCHAR uni30F7
ENCODING 12535
SWIDTH 1125 0
DWIDTH 9 0
BBX 10 7 0 0
BITMAP
FFC0
8540
B540
F7C0
F7C0
CFC0
FFC0
ENDCHAR
STARTCHAR uni30F8
ENCODING 12536
SWIDTH 1125 0
DWIDTH 9 0
BBX 10 7 0 0
BITMAP
FFC0
F540
8540
D7C0
87C0
F7C0
FFC0
ENDCHAR
STARTCHAR uni30F9
ENCODING 12537
SWIDTH 1125 0
DWIDTH 9 0
BBX 10 7 0 0
BITMAP
FFC0
8540
F540
CFC0
DFC0
87C0
FFC0
ENDCHAR
STARTCHAR uni30FA
ENCODING 12538
SWIDTH 1125 0
DWIDTH 9 0
BBX 10 7 0 0
BITMAP
FFC0
8540
F540
87C0
F7C0
CFC0
FFC0
ENDCHAR
STARTCHAR uni30FB
ENCODING 12539
SWIDTH 500 0
DWIDTH 4 0
BBX 5 7 0 0
BITMAP
F8
F8
F8
D8
F8
F8
F8
ENDCHAR
STARTCHAR uni30FC
ENCODING 12540
SWIDTH 500 0
DWIDTH 4 0
BBX 5 7 0 0
BITMAP
F8
F8
F8
88
F8
F8
F8
ENDCHAR
STARTCHAR uni30FD
ENCODING 12541
SWIDTH 625 0
DWIDTH 5 0
BBX 6 7 0 0
BITMAP
FC
FC
DC
EC
F4
F4
FC
ENDCHAR
STARTCHAR uni30FE
ENCODING 12542
SWIDTH 1125 0
DWIDTH 9 0
BBX 10 7 0 0
BITMAP
FFC0
FD40
DD40
EFC0
F7C0
F7C0
FFC0
ENDCHAR
STARTCHAR uniFF01
ENCODING 65281
SWIDTH 625 0
DWIDTH 5 0
BBX 6 7 0 0
BITMAP
FC
DC
DC
DC
FC
DC
FC
ENDCHAR
STARTCHAR uniFF02
ENCODING 65282
SWIDTH 625 0
DWIDTH 5 0
BBX 6 7 0 0
BITMAP
FC
AC
AC
FC
FC
FC
FC
ENDCHAR
STARTCHAR uniFF03
ENCODING 65283
SWIDTH 625 0
DWIDTH 5 0
BBX 6 7 0 0
BITMAP
FC
D4
84
D4
84
D4
FC
ENDCHAR
STARTCHAR uniFF04
ENCODING 65284
SWIDTH 625 0
DWIDTH 5 0
BBX 6 7 0 0
BITMAP
FC
EC
C4
DC
EC
8C
DC
ENDCHAR
STARTCHAR uniFF05
ENCODING 65285
SWIDTH 625 0
DWIDTH 5 0
BBX 6 7 0 0
BITMAP
FC
FC
B4
EC
DC
B4
FC
ENDCHAR
STARTCHAR uniFF06
ENCODING 65286
SWIDTH 625 0
DWIDTH 5 0
BBX 6 7 0 0
BITMAP
FC
FC
DC
D4
AC
94
FC
ENDCHAR
STARTCHAR uniFF07
ENCODING 65287
SWIDTH 625 0
DWIDTH 5 0
BBX 6 7 0 0
BITMAP
FC
DC
DC
FC
FC
FC
FC
ENDCHAR
STARTCHAR uniFF08
ENCODING 65288
SWIDTH 625 0
DWIDTH 5 0
BBX 6 7 0 0
BITMAP
FC
F4
EC
EC
EC
F4
FC
ENDCHAR
STARTCHAR uniFF09
ENCODING 65289
SWIDTH 625 0
DWIDTH 5 0
BBX 6 7 0 0
BITMAP
FC
BC
DC
DC
DC
BC
FC
ENDCHAR
STARTCHAR uniFF0A
ENCODING 65290
SWIDTH 625 0
DWIDTH 5 0
BBX 6 7 0 0
BITMAP
FC
B4
CC
84
CC
B4
FC
ENDCHAR
STARTCHAR uniFF0B
ENCODING 65291
SWIDTH 625 0
DWIDTH 5 0
BBX 6 7 0 0
BITMAP
FC
FC
DC
8C
DC
FC
FC
ENDCHAR
STARTCHAR uniFF0C
ENCODING 65292
SWIDTH 625 0
DWIDTH 5 0
BBX 6 7 0 0
BITMAP
FC
FC
FC
FC
FC
EC
DC
ENDCHAR
STARTCHAR uniFF0D
ENCODING 65293
SWIDTH 625 0
DWIDTH 5 0
BBX 6 7 0 0
BITMAP
FC
FC
FC
84
FC
FC
FC
ENDCHAR
STARTCHAR uniFF0E
ENCODING 65294
SWIDTH 625 0
DWIDTH 5 0
BBX 6 7 0 0
BITMAP
FC
FC
FC
FC
FC
DC
FC
ENDCHAR
STARTCHAR uniFF0F
ENCODING 65295
SWIDTH 625 0
DWIDTH 5 0
BBX 6 7 0 0
BITMAP
FC
FC
F4
EC
DC
BC
FC
ENDCHAR
STARTCHAR uniFF10
ENCODING 65296
SWIDTH 625 0
DWIDTH 5 0
BBX 6 7 0 0
BITMAP
FC
CC
B4
B4
B4
CC
FC
ENDCHAR
STARTCHAR uniFF11
ENCODING 65297
SWIDTH 625 0
DWIDTH 5 0
BBX 6 7 0 0
BITMAP
FC
EC
CC
EC
EC
C4
FC
ENDCHAR
STARTCHAR uniFF12
ENCODING 65298
SWIDTH 625 0
DWIDTH 5 0
BBX 6 7 0 0
BITMAP
FC
CC
B4
EC
DC
84
FC
ENDCHAR
STARTCHAR uniFF13
ENCODING 65299
SWIDTH 625 0
DWIDTH 5 0
BBX 6 7 0 0
BITMAP
FC
8C
F4
CC
F4
8C
FC
ENDCHAR
STARTCHAR uniFF14
ENCODING 65300
SWIDTH 625 0
DWIDTH 5 0
BBX 6 7 0 0
BITMAP
FC
E4
D4
B4
84
F4
FC
ENDCHAR
STARTCHAR uniFF15
ENCODING 65301
SWIDTH 625 0
DWIDTH 5 0
BBX 6 7 0 0
BITMAP
FC
84
BC
8C
F4
8C
FC
ENDCHAR
STARTCHAR uniFF16
ENCODING 65302
SWIDTH 625 0
DWIDTH 5 0
BBX 6 7 0 0
BITMAP
FC
CC
BC
8C
B4
CC
FC
ENDCHAR
STARTCHAR uniFF17
ENCODING 65303
SWIDTH 625 0
DWIDTH 5 0
BBX 6 7 0 0
BITMAP
FC
84
F4
EC
DC
DC
FC
ENDCHAR
STARTCHAR uniFF18
ENCODING 65304
SWIDTH 625 0
DWIDTH 5 0
BBX 6 7 0 0
BITMAP
FC
CC
B4
CC
B4
CC
FC
ENDCHAR
STARTCHAR uniFF19
ENCODING 65305
SWIDTH 625 0
DWIDTH 5 0
BBX 6 7 0 0
BITMAP
FC
CC
B4
C4
F4
CC
FC
ENDCHAR
STARTCHAR uniFF1A
ENCODING 65306
SWIDTH 625 0
DWIDTH 5 0
BBX 6 7 0 0
BITMAP
FC
FC
DC
FC
FC
DC
FC
ENDCHAR
STARTCHAR uniFF1B
ENCODING 65307
SWIDTH 625 0
DWIDTH 5 0
BBX 6 7 0 0
BITMAP
FC
FC
EC
FC
FC
EC
DC
ENDCHAR
STARTCHAR uniFF1C
ENCODING 65308
SWIDTH 625 0
DWIDTH 5 0
BBX 6 7 0 0
BITMAP
FC
F4
EC
DC
EC
F4
FC
ENDCHAR
STARTCHAR uniFF1D
ENCODING 65309
SWIDTH 625 0
DWIDTH 5 0
BBX 6 7 0 0
BITMAP
FC
FC
84
FC
84
FC
FC
ENDCHAR
STARTCHAR uniFF1E
ENCODING 65310
SWIDTH 625 0
DWIDTH 5 0
BBX 6 7 0 0
BITMAP
FC
BC
DC
EC
DC
BC
FC
ENDCHAR
STARTCHAR uniFF1F
ENCODING 65311
SWIDTH 625 0
DWIDTH 5 0
BBX 6 7 0 0
BITMAP
FC
8C
F4
CC
FC
DC
FC
ENDCHAR
STARTCHAR uniFF20
ENCODING 65312
SWIDTH 625 0
DWIDTH 5 0
BBX 6 7 0 0
BITMAP
FC
CC
B4
94
BC
C4
FC
ENDCHAR
STARTCHAR uniFF21
ENCODING 65313
SWIDTH 625 0
DWIDTH 5 0
BBX 6 7 0 0
BITMAP
FC
CC
B4
84
B4
B4
FC
ENDCHAR
STARTCHAR uniFF22
ENCODING 65314
SWIDTH 625 0
DWIDTH 5 0
BBX 6 7 0 0
BITMAP
FC
8C
B4
8C
B4
8C
FC
ENDCHAR
STARTCHAR uniFF23
ENCODING 65315
SWIDTH 625 0
DWIDTH 5 0
BBX 6 7 0 0
BITMAP
FC
C4
BC
BC
BC
C4
FC
ENDCHAR
STARTCHAR uniFF24
ENCODING 65316
SWIDTH 625 0
DWIDTH 5 0
BBX 6 7 0 0
BITMAP
FC
8C
B4
B4
B4
8C
FC
ENDCHAR
STARTCHAR uniFF25
ENCODING 65317
SWIDTH 625 0
DWIDTH 5 0
BBX 6 7 0 0
BITMAP
FC
84
BC
8C
BC
84
FC
ENDCHAR
STARTCHAR uniFF26
ENCODING 65318
SWIDTH 625 0
DWIDTH 5 0
BBX 6 7 0 0
BITMAP
FC
84
BC
8C
BC
BC
FC
ENDCHAR
STARTCHAR uniFF27
ENCODING 65319
SWIDTH 625 0
DWIDTH 5 0
BBX 6 7 0 0
BITMAP
FC
C4
BC
A4
B4
C4
FC
ENDCHAR
STARTCHAR uniFF28
ENCODING 65320
SWIDTH 625 0
DWIDTH 5 0
BBX 6 7 0 0
BITMAP
FC
B4
B4
84
B4
B4
FC
ENDCHAR
STARTCHAR uniFF29
ENCODING 65321
SWIDTH 625 0
DWIDTH 5 0
BBX 6 7 0 0
BITMAP
FC
C4
EC
EC
EC
C4
FC
ENDCHAR
STARTCHAR uniFF2A
ENCODING 65322
SWIDTH 625 0
DWIDTH 5 0
BBX 6 7 0 0
BITMAP
FC
F4
F4
B4
B4
CC
FC
ENDCHAR
STARTCHAR uniFF2B
ENCODING 65323
SWIDTH 625 0
DWIDTH 5 0
BBX 6 7 0 0
BITMAP
FC
B4
AC
9C
AC
B4
FC
ENDCHAR
STARTCHAR uniFF2C
ENCODING 65324
SWIDTH 625 0
DWIDTH 5 0
BBX 6 7 0 0
BITMAP
FC
BC
BC
BC
BC
84
FC
ENDCHAR
STARTCHAR uniFF2D
ENCODING 65325
SWIDTH 625 0
DWIDTH 5 0
BBX 6 7 0 0
BITMAP
FC
B4
84
B4
B4
B4
FC
ENDCHAR
STARTCHAR uniFF2E
ENCODING 65326
SWIDTH 625 0
DWIDTH 5 0
BBX 6 7 0 0
BITMAP
FC
B4
94
A4
B4
B4
FC
ENDCHAR
STARTCHAR uniFF2F
ENCODING 65327
SWIDTH 625 0
DWIDTH 5 0
BBX 6 7 0 0
BITMAP
FC
CC
B4
B4
B4
CC
FC
ENDCHAR
STARTCHAR uniFF30
ENCODING 65328
SWIDTH 625 0
DWIDTH 5 0
BBX 6 7 0 0
BITMAP
FC
8C
B4
8C
BC
BC
FC
ENDCHAR
STARTCHAR uniFF31
ENCODING 65329
SWIDTH 625 0
DWIDTH 5 0
BBX 6 7 0 0
BITMAP
FC
CC
B4
B4
AC
D4
FC
ENDCHAR
STARTCHAR uniFF32
ENCODING 65330
SWIDTH 625 0
DWIDTH 5 0
BBX 6 7 0 0
BITMAP
FC
8C
B4
8C
AC
B4
FC
ENDCHAR
STARTCHAR uniFF33
ENCODING 65331
SWIDTH 625 0
DWIDTH 5 0
BBX 6 7 0 0
BITMAP
FC
C4
BC
CC
F4
8C
FC
ENDCHAR
STARTCHAR uniFF34
ENCODING 65332
SWIDTH 625 0
DWIDTH 5 0
BBX 6 7 0 0
BITMAP
FC
84
EC
EC
EC
EC
FC
ENDCHAR
STARTCHAR uniFF35
ENCODING 65333
SWIDTH 625 0
DWIDTH 5 0
BBX 6 7 0 0
BITMAP
FC
B4
B4
B4
B4
CC
FC
ENDCHAR
STARTCHAR uniFF36
ENCODING 65334
SWIDTH 625 0
DWIDTH 5 0
BBX 6 7 0 0
BITMAP
FC
B4
B4
B4
AC
9C
FC
ENDCHAR
STARTCHAR uniFF37
ENCODING 65335
SWIDTH 625 0
DWIDTH 5 0
BBX 6 7 0 0
BITMAP
FC
B4
B4
B4
84
B4
FC
ENDCHAR
STARTCHAR uniFF38
ENCODING 65336
SWIDTH 625 0
DWIDTH 5 0
BBX 6 7 0 0
BITMAP
FC
B4
CC
CC
B4
B4
FC
ENDCHAR
STARTCHAR uniFF39
ENCODING 65337
SWIDTH 625 0
DWIDTH 5 0
BBX 6 7 0 0
BITMAP
FC
B4
B4
CC
EC
EC
FC
ENDCHAR
STARTCHAR uniFF3A
ENCODING 65338
SWIDTH 625 0
DWIDTH 5 0
BBX 6 7 0 0
BITMAP
FC
84
EC
DC
BC
84
FC
ENDCHAR
STARTCHAR uniFF3B
ENCODING 65339
SWIDTH 625 0
DWIDTH 5 0
BBX 6 7 0 0
BITMAP
FC
E4
EC
EC
EC
E4
FC
ENDCHAR
STARTCHAR uniFF3C
ENCODING 65340
SWIDTH 625 0
DWIDTH 5 0
BBX 6 7 0 0
BITMAP
FC
FC
BC
DC
EC
F4
FC
ENDCHAR
STARTCHAR uniFF3D
ENCODING 65341
SWIDTH 625 0
DWIDTH 5 0
BBX 6 7 0 0
BITMAP
FC
9C
DC
DC
DC
9C
FC
ENDCHAR
STARTCHAR uniFF3E
ENCODING 65342
SWIDTH 625 0
DWIDTH 5 0
BBX 6 7 0 0
BITMAP
FC
CC
B4
FC
FC
FC
FC
ENDCHAR
STARTCHAR uniFF3F
ENCODING 65343
SWIDTH 625 0
DWIDTH 5 0
BBX 6 7 0 0
BITMAP
FC
FC
FC
FC
FC
84
FC
ENDCHAR
STARTCHAR uniFF40
ENCODING 65344
SWIDTH 625 0
DWIDTH 5 0
BBX 6 7 0 0
BITMAP
FC
DC
EC
FC
FC
FC
FC
ENDCHAR
STARTCHAR uniFF41
ENCODING 65345
SWIDTH 625 0
DWIDTH 5 0
BBX 6 7 0 0
BITMAP
FC
FC
C4
B4
B4
D4
FC
ENDCHAR
STARTCHAR uniFF42
ENCODING 65346
SWIDTH 625 0
DWIDTH 5 0
BBX 6 7 0 0
BITMAP
FC
BC
8C
B4
B4
8C
FC
ENDCHAR
STARTCHAR uniFF43
ENCODING 65347
SWIDTH 625 0
DWIDTH 5 0
BBX 6 7 0 0
BITMAP
FC
FC
C4
BC
BC
C4
FC
ENDCHAR
STARTCHAR uniFF44
ENCODING 65348
SWIDTH 625 0
DWIDTH 5 0
BBX 6 7 0 0
BITMAP
FC
F4
C4
B4
B4
C4
FC
ENDCHAR
STARTCHAR uniFF45
ENCODING 65349
SWIDTH 625 0
DWIDTH 5 0
BBX 6 7 0 0
BITMAP
FC
FC
CC
84
BC
C4
FC
ENDCHAR
STARTCHAR uniFF46
ENCODING 65350
SWIDTH 625 0
DWIDTH 5 0
BBX 6 7 0 0
BITMAP
FC
E4
DC
84
DC
DC
FC
ENDCHAR
STARTCHAR uniFF47
ENCODING 65351
SWIDTH 625 0
DWIDTH 5 0
BBX 6 7 0 0
BITMAP
FC
FC
C4
B4
C4
F4
CC
ENDCHAR
STARTCHAR uniFF48
ENCODING 65352
SWIDTH 625 0
DWIDTH 5 0
BBX 6 7 0 0
BITMAP
FC
BC
8C
B4
B4
B4
FC
ENDCHAR
STARTCHAR uniFF49
ENCODING 65353
SWIDTH 625 0
DWIDTH 5 0
BBX 6 7 0 0
BITMAP
FC
EC
FC
CC
EC
84
FC
ENDCHAR
STARTCHAR uniFF4A
ENCODING 65354
SWIDTH 625 0
DWIDTH 5 0
BBX 6 7 0 0
BITMAP
FC
EC
FC
CC
EC
EC
9C
ENDCHAR
STARTCHAR uniFF4B
ENCODING 65355
SWIDTH 625 0
DWIDTH 5 0
BBX 6 7 0 0
BITMAP
FC
BC
B4
AC
8C
B4
FC
ENDCHAR
STARTCHAR uniFF4C
ENCODING 65356
SWIDTH 625 0
DWIDTH 5 0
BBX 6 7 0 0
BITMAP
FC
CC
EC
EC
EC
84
FC
ENDCHAR
STARTCHAR uniFF4D
ENCODING 65357
SWIDTH 625 0
DWIDTH 5 0
BBX 6 7 0 0
BITMAP
FC
FC
8C
94
94
B4
FC
ENDCHAR
STARTCHAR uniFF4E
ENCODING 65358
SWIDTH 625 0
DWIDTH 5 0
BBX 6 7 0 0
BITMAP
FC
FC
8C
B4
B4
B4
FC
ENDCHAR
STARTCHAR uniFF4F
ENCODING 65359
SWIDTH 625 0
DWIDTH 5 0
BBX 6 7 0 0
BITMAP
FC
FC
CC
B4
B4
CC
FC
ENDCHAR
STARTCHAR uniFF50
ENCODING 65360
SWIDTH 625 0
DWIDTH 5 0
BBX 6 7 0 0
BITMAP
FC
FC
8C
B4
B4
8C
BC
ENDCHAR
STARTCHAR uniFF51
ENCODING 65361
SWIDTH 625 0
DWIDTH 5 0
BBX 6 7 0 0
BITMAP
FC
FC
C4
B4
B4
C4
F4
ENDCHAR
STARTCHAR uniFF52
ENCODING 65362
SWIDTH 625 0
DWIDTH 5 0
BBX 6 7 0 0
BITMAP
FC
FC
A4
9C
BC
BC
FC
ENDCHAR
STARTCHAR uniFF53
ENCODING 65363
SWIDTH 625 0
DWIDTH 5 0
BBX 6 7 0 0
BITMAP
FC
FC
C4
9C
E4
8C
FC
ENDCHAR
STARTCHAR uniFF54
ENCODING 65364
SWIDTH 625 0
DWIDTH 5 0
BBX 6 7 0 0
BITMAP
FC
DC
84
DC
DC
E4
FC
ENDCHAR
STARTCHAR uniFF55
ENCODING 65365
SWIDTH 625 0
DWIDTH 5 0
BBX 6 7 0 0
BITMAP
FC
FC
B4
B4
B4
C4
FC
ENDCHAR
STARTCHAR uniFF56
ENCODING 65366
SWIDTH 625 0
DWIDTH 5 0
BBX 6 7 0 0
BITMAP
FC
FC
B4
B4
AC
9C
FC
ENDCHAR
STARTCHAR uniFF57
ENCODING 65367
SWIDTH 625 0
DWIDTH 5 0
BBX 6 7 0 0
BITMAP
FC
FC
B4
B4
84
B4
FC
ENDCHAR
STARTCHAR uniFF58
ENCODING 65368
SWIDTH 625 0
DWIDTH 5 0
BBX 6 7 0 0
BITMAP
FC
FC
B4
CC
CC
B4
FC
ENDCHAR
STARTCHAR uniFF59
ENCODING 65369
SWIDTH 625 0
DWIDTH 5 0
BBX 6 7 0 0
BITMAP
FC
FC
B4
B4
C4
F4
CC
ENDCHAR
STARTCHAR uniFF5A
ENCODING 65370
SWIDTH 625 0
DWIDTH 5 0
BBX 6 7 0 0
BITMAP
FC
FC
84
EC
DC
84
FC
ENDCHAR
STARTCHAR uniFF5B
ENCODING 65371
SWIDTH 625 0
DWIDTH 5 0
BBX 6 7 0 0
BITMAP
FC
E4
EC
CC
EC
E4
FC
ENDCHAR
STARTCHAR uniFF5C
ENCODING 65372
SWIDTH 625 0
DWIDTH 5 0
BBX 6 7 0 0
BITMAP
DC
DC
DC
DC
DC
DC
DC
ENDCHAR
STARTCHAR uniFF5D
ENCODING 65373
SWIDTH 625 0
DWIDTH 5 0
BBX 6 7 0 0
BITMAP
FC
9C
DC
CC
DC
9C
FC
ENDCHAR
STARTCHAR uniFF5E
ENCODING 65374
SWIDTH 625 0
DWIDTH 5 0
BBX 6 7 0 0
BITMAP
FC
FC
FC
D4
AC
FC
FC
ENDCHAR
STARTCHAR uniFF5F
ENCODING 65375
SWIDTH 625 0
DWIDTH 5 0
BBX 6 7 0 0
BITMAP
FC
D4
AC
AC
AC
D4
FC
ENDCHAR
STARTCHAR uniFF60
ENCODING 65376
SWIDTH 625 0
DWIDTH 5 0
BBX 6 7 0 0
BITMAP
FC
AC
D4
D4
D4
AC
FC
ENDCHAR
ENDFONT
