STARTFONT 2.1
FONT Bm437_PhoenixEGA_8x8-8px
SIZE 8 75 75
FONTBOUNDINGBOX 8 8 0 -1
STARTPROPERTIES 3
PIXEL_SIZE 8
FONT_ASCENT 7
FONT_DESCENT 1
ENDPROPERTIES
CHARS 295
STARTCHAR uni0000
ENCODING 0
SWIDTH 1000 0
DWIDTH 8 0
BBX 8 8 0 -1
BITMAP
00
00
00
00
00
00
00
00
ENDCHAR
STARTCHAR uni0001
ENCODING 1
SWIDTH 1000 0
DWIDTH 8 0
BBX 8 8 0 -1
BITMAP
3C
42
A5
81
BD
42
3C
00
ENDCHAR
STARTCHAR uni0002
ENCODING 2
SWIDTH 1000 0
DWIDTH 8 0
BBX 8 8 0 -1
BITMAP
3C
7E
DB
FF
C3
7E
3C
00
ENDCHAR
STARTCHAR uni0003
ENCODING 3
SWIDTH 1000 0
DWIDTH 8 0
BBX 8 8 0 -1
BITMAP
00
EE
FE
FE
7C
38
10
00
ENDCHAR
STARTCHAR uni0004
ENCODING 4
SWIDTH 1000 0
DWIDTH 8 0
BBX 8 8 0 -1
BITMAP
10
38
7C
FE
7C
38
10
00
ENDCHAR
STARTCHAR uni0005
ENCODING 5
SWIDTH 1000 0
DWIDTH 8 0
BBX 8 8 0 -1
BITMAP
00
3C
18
FF
FF
08
18
00
ENDCHAR
STARTCHAR uni0006
ENCODING 6
SWIDTH 1000 0
DWIDTH 8 0
BBX 8 8 0 -1
BITMAP
10
38
7C
FE
FE
10
38
00
ENDCHAR
STARTCHAR uni0007
ENCODING 7
SWIDTH 1000 0
DWIDTH 8 0
BBX 8 8 0 -1
BITMAP
00
00
18
3C
18
00
00
00
ENDCHAR
STARTCHAR uni0008
ENCODING 8
SWIDTH 1000 0
DWIDTH 8 0
BBX 8 8 0 -1
BITMAP
FF
FF
E7
C3
E7
FF
FF
FF
ENDCHAR
STARTCHAR uni0009
ENCODING 9
SWIDTH 1000 0
DWIDTH 8 0
BBX 8 8 0 -1
BITMAP
00
3C
42
81
81
42
3C
00
ENDCHAR
STARTCHAR uni000A
ENCODING 10
SWIDTH 1000 0
DWIDTH 8 0
BBX 8 8 0 -1
BITMAP
FF
C3
BD
7E
7E
BD
C3
FF
ENDCHAR
STARTCHAR uni000B
ENCODING 11
SWIDTH 1000 0
DWIDTH 8 0
BBX 8 8 0 -1
BITMAP
1F
07
0D
7C
C6
C6
7C
00
ENDCHAR
STARTCHAR uni000C
ENCODING 12
SWIDTH 1000 0
DWIDTH 8 0
BBX 8 8 0 -1
BITMAP
00
7E
C3
C3
7E
18
7E
18
ENDCHAR
STARTCHAR uni000D
ENCODING 13
SWIDTH 1000 0
DWIDTH 8 0
BBX 8 8 0 -1
BITMAP
04
06
07
04
04
FC
F8
00
ENDCHAR
STARTCHAR uni000E
ENCODING 14
SWIDTH 1000 0
DWIDTH 8 0
BBX 8 8 0 -1
BITMAP
0C
0A
0D
0B
F9
F9
1F
1F
ENDCHAR
STARTCHAR uni000F
ENCODING 15
SWIDTH 1000 0
DWIDTH 8 0
BBX 8 8 0 -1
BITMAP
00
92
7C
44
C6
7C
92
00
ENDCHAR
STARTCHAR uni0010
ENCODING 16
SWIDTH 1000 0
DWIDTH 8 0
BBX 8 8 0 -1
BITMAP
00
00
60
78
7E
78
60
00
ENDCHAR
STARTCHAR uni0011
ENCODING 17
SWIDTH 1000 0
DWIDTH 8 0
BBX 8 8 0 -1
BITMAP
00
00
06
1E
7E
1E
06
00
ENDCHAR
STARTCHAR uni0012
ENCODING 18
SWIDTH 1000 0
DWIDTH 8 0
BBX 8 8 0 -1
BITMAP
18
7E
18
18
18
18
7E
18
ENDCHAR
STARTCHAR uni0013
ENCODING 19
SWIDTH 1000 0
DWIDTH 8 0
BBX 8 8 0 -1
BITMAP
66
66
66
66
66
00
66
00
ENDCHAR
STARTCHAR uni0014
ENCODING 20
SWIDTH 1000 0
DWIDTH 8 0
BBX 8 8 0 -1
BITMAP
FF
B6
76
36
36
36
36
00
ENDCHAR
STARTCHAR uni0015
ENCODING 21
SWIDTH 1000 0
DWIDTH 8 0
BBX 8 8 0 -1
BITMAP
7E
C1
DC
22
22
1F
83
7E
ENDCHAR
STARTCHAR uni0016
ENCODING 22
SWIDTH 1000 0
DWIDTH 8 0
BBX 8 8 0 -1
BITMAP
00
00
00
7E
7E
00
00
00
ENDCHAR
STARTCHAR uni0017
ENCODING 23
SWIDTH 1000 0
DWIDTH 8 0
BBX 8 8 0 -1
BITMAP
18
7E
18
18
7E
18
00
FF
ENDCHAR
STARTCHAR uni0018
ENCODING 24
SWIDTH 1000 0
DWIDTH 8 0
BBX 8 8 0 -1
BITMAP
18
7E
18
18
18
18
18
00
ENDCHAR
STARTCHAR uni0019
ENCODING 25
SWIDTH 1000 0
DWIDTH 8 0
BBX 8 8 0 -1
BITMAP
18
18
18
18
18
7E
18
00
ENDCHAR
STARTCHAR uni001A
ENCODING 26
SWIDTH 1000 0
DWIDTH 8 0
BBX 8 8 0 -1
BITMAP
00
04
06
FF
06
04
00
00
ENDCHAR
STARTCHAR uni001B
ENCODING 27
SWIDTH 1000 0
DWIDTH 8 0
BBX 8 8 0 -1
BITMAP
00
20
60
FF
60
20
00
00
ENDCHAR
STARTCHAR uni001C
ENCODING 28
SWIDTH 1000 0
DWIDTH 8 0
BBX 8 8 0 -1
BITMAP
00
00
00
C0
C0
C0
FF
00
ENDCHAR
STARTCHAR uni001D
ENCODING 29
SWIDTH 1000 0
DWIDTH 8 0
BBX 8 8 0 -1
BITMAP
00
24
66
FF
66
24
00
00
ENDCHAR
STARTCHAR uni001E
ENCODING 30
SWIDTH 1000 0
DWIDTH 8 0
BBX 8 8 0 -1
BITMAP
00
00
10
38
7C
FE
00
00
ENDCHAR
STARTCHAR uni001F
ENCODING 31
SWIDTH 1000 0
DWIDTH 8 0
BBX 8 8 0 -1
BITMAP
00
00
00
FE
7C
38
10
00
ENDCHAR
STARTCHAR space
ENCODING 32
SWIDTH 1000 0
DWIDTH 8 0
BBX 8 8 0 -1
BITMAP
00
00
00
00
00
00
00
00
ENDCHAR
STARTCHAR exclam
ENCODING 33
SWIDTH 1000 0
DWIDTH 8 0
BBX 8 8 0 -1
BITMAP
30
30
30
30
30
00
30
00
ENDCHAR
STARTCHAR quotedbl
ENCODING 34
SWIDTH 1000 0
DWIDTH 8 0
BBX 8 8 0 -1
BITMAP
66
66
00
00
00
00
00
00
ENDCHAR
STARTCHAR numbersign
ENCODING 35
SWIDTH 1000 0
DWIDTH 8 0
BBX 8 8 0 -1
BITMAP
6C
6C
FE
6C
FE
6C
6C
00
ENDCHAR
STARTCHAR dollar
ENCODING 36
SWIDTH 1000 0
DWIDTH 8 0
BBX 8 8 0 -1
BITMAP
10
7C
D2
7C
86
7C
10
00
ENDCHAR
STARTCHAR percent
ENCODING 37
SWIDTH 1000 0
DWIDTH 8 0
BBX 8 8 0 -1
BITMAP
F0
96
FC
18
3E
72
DE
00
ENDCHAR
STARTCHAR ampersand
ENCODING 38
SWIDTH 1000 0
DWIDTH 8 0
BBX 8 8 0 -1
BITMAP
30
48
30
78
CE
CC
78
00
ENDCHAR
STARTCHAR quotesingle
ENCODING 39
SWIDTH 1000 0
DWIDTH 8 0
BBX 8 8 0 -1
BITMAP
0C
0C
18
00
00
00
00
00
ENDCHAR
STARTCHAR parenleft
ENCODING 40
SWIDTH 1000 0
DWIDTH 8 0
BBX 8 8 0 -1
BITMAP
10
60
C0
C0
C0
60
10
00
ENDCHAR
STARTCHAR parenright
ENCODING 41
SWIDTH 1000 0
DWIDTH 8 0
BBX 8 8 0 -1
BITMAP
10
0C
06
06
06
0C
10
00
ENDCHAR
STARTCHAR asterisk
ENCODING 42
SWIDTH 1000 0
DWIDTH 8 0
BBX 8 8 0 -1
BITMAP
00
54
38
FE
38
54
00
00
ENDCHAR
STARTCHAR plus
ENCODING 43
SWIDTH 1000 0
DWIDTH 8 0
BBX 8 8 0 -1
BITMAP
00
18
18
7E
18
18
00
00
ENDCHAR
STARTCHAR comma
ENCODING 44
SWIDTH 1000 0
DWIDTH 8 0
BBX 8 8 0 -1
BITMAP
00
00
00
00
00
00
18
70
ENDCHAR
STARTCHAR hyphen
ENCODING 45
SWIDTH 1000 0
DWIDTH 8 0
BBX 8 8 0 -1
BITMAP
00
00
00
7E
00
00
00
00
ENDCHAR
STARTCHAR period
ENCODING 46
SWIDTH 1000 0
DWIDTH 8 0
BBX 8 8 0 -1
BITMAP
00
00
00
00
00
00
18
00
ENDCHAR
STARTCHAR slash
ENCODING 47
SWIDTH 1000 0
DWIDTH 8 0
BBX 8 8 0 -1
BITMAP
02
06
0C
18
30
60
C0
00
ENDCHAR
STARTCHAR zero
ENCODING 48
SWIDTH 1000 0
DWIDTH 8 0
BBX 8 8 0 -1
BITMAP
7C
CE
DE
F6
E6
E6
7C
00
ENDCHAR
STARTCHAR one
ENCODING 49
SWIDTH 1000 0
DWIDTH 8 0
BBX 8 8 0 -1
BITMAP
18
38
78
18
18
18
3C
00
ENDCHAR
STARTCHAR two
ENCODING 50
SWIDTH 1000 0
DWIDTH 8 0
BBX 8 8 0 -1
BITMAP
7C
C6
06
0C
30
60
FE
00
ENDCHAR
STARTCHAR three
ENCODING 51
SWIDTH 1000 0
DWIDTH 8 0
BBX 8 8 0 -1
BITMAP
7C
C6
06
3C
06
C6
7C
00
ENDCHAR
STARTCHAR four
ENCODING 52
SWIDTH 1000 0
DWIDTH 8 0
BBX 8 8 0 -1
BITMAP
0E
1E
36
66
FE
06
06
00
ENDCHAR
STARTCHAR five
ENCODING 53
SWIDTH 1000 0
DWIDTH 8 0
BBX 8 8 0 -1
BITMAP
FE
C0
C0
FC
06
06
FC
00
ENDCHAR
STARTCHAR six
ENCODING 54
SWIDTH 1000 0
DWIDTH 8 0
BBX 8 8 0 -1
BITMAP
7C
C6
C0
FC
C6
C6
7C
00
ENDCHAR
STARTCHAR seven
ENCODING 55
SWIDTH 1000 0
DWIDTH 8 0
BBX 8 8 0 -1
BITMAP
FE
06
0C
18
30
60
60
00
ENDCHAR
STARTCHAR eight
ENCODING 56
SWIDTH 1000 0
DWIDTH 8 0
BBX 8 8 0 -1
BITMAP
7C
C6
C6
7C
C6
C6
7C
00
ENDCHAR
STARTCHAR nine
ENCODING 57
SWIDTH 1000 0
DWIDTH 8 0
BBX 8 8 0 -1
BITMAP
7C
C6
C6
7E
06
C6
7C
00
ENDCHAR
STARTCHAR colon
ENCODING 58
SWIDTH 1000 0
DWIDTH 8 0
BBX 8 8 0 -1
BITMAP
00
30
00
00
00
30
00
00
ENDCHAR
STARTCHAR semicolon
ENCODING 59
SWIDTH 1000 0
DWIDTH 8 0
BBX 8 8 0 -1
BITMAP
00
30
00
00
00
30
20
00
ENDCHAR
STARTCHAR less
ENCODING 60
SWIDTH 1000 0
DWIDTH 8 0
BBX 8 8 0 -1
BITMAP
00
1C
30
60
30
1C
00
00
ENDCHAR
STARTCHAR equal
ENCODING 61
SWIDTH 1000 0
DWIDTH 8 0
BBX 8 8 0 -1
BITMAP
00
00
7E
00
7E
00
00
00
ENDCHAR
STARTCHAR greater
ENCODING 62
SWIDTH 1000 0
DWIDTH 8 0
BBX 8 8 0 -1
BITMAP
00
70
18
0C
18
70
00
00
ENDCHAR
STARTCHAR question
ENCODING 63
SWIDTH 1000 0
DWIDTH 8 0
BBX 8 8 0 -1
BITMAP
7C
C6
0C
18
30
00
30
00
ENDCHAR
STARTCHAR at
ENCODING 64
SWIDTH 1000 0
DWIDTH 8 0
BBX 8 8 0 -1
BITMAP
7C
82
9A
AA
AA
9E
7C
00
ENDCHAR
STARTCHAR A
ENCODING 65
SWIDTH 1000 0
DWIDTH 8 0
BBX 8 8 0 -1
BITMAP
7C
C6
C6
FE
C6
C6
C6
00
ENDCHAR
STARTCHAR B
ENCODING 66
SWIDTH 1000 0
DWIDTH 8 0
BBX 8 8 0 -1
BITMAP
FC
66
66
7C
66
66
FC
00
ENDCHAR
STARTCHAR C
ENCODING 67
SWIDTH 1000 0
DWIDTH 8 0
BBX 8 8 0 -1
BITMAP
7C
C6
C0
C0
C0
C6
7C
00
ENDCHAR
STARTCHAR D
ENCODING 68
SWIDTH 1000 0
DWIDTH 8 0
BBX 8 8 0 -1
BITMAP
FC
66
66
66
66
66
FC
00
ENDCHAR
STARTCHAR E
ENCODING 69
SWIDTH 1000 0
DWIDTH 8 0
BBX 8 8 0 -1
BITMAP
FE
62
68
78
68
62
FE
00
ENDCHAR
STARTCHAR F
ENCODING 70
SWIDTH 1000 0
DWIDTH 8 0
BBX 8 8 0 -1
BITMAP
FE
62
68
78
68
60
F0
00
ENDCHAR
STARTCHAR G
ENCODING 71
SWIDTH 1000 0
DWIDTH 8 0
BBX 8 8 0 -1
BITMAP
7C
C6
C6
C0
DE
C6
7C
00
ENDCHAR
STARTCHAR H
ENCODING 72
SWIDTH 1000 0
DWIDTH 8 0
BBX 8 8 0 -1
BITMAP
C6
C6
C6
FE
C6
C6
C6
00
ENDCHAR
STARTCHAR I
ENCODING 73
SWIDTH 1000 0
DWIDTH 8 0
BBX 8 8 0 -1
BITMAP
3C
18
18
18
18
18
3C
00
ENDCHAR
STARTCHAR J
ENCODING 74
SWIDTH 1000 0
DWIDTH 8 0
BBX 8 8 0 -1
BITMAP
1E
0C
0C
0C
0C
CC
78
00
ENDCHAR
STARTCHAR K
ENCODING 75
SWIDTH 1000 0
DWIDTH 8 0
BBX 8 8 0 -1
BITMAP
C6
CC
D8
F0
D8
CC
C6
00
ENDCHAR
STARTCHAR L
ENCODING 76
SWIDTH 1000 0
DWIDTH 8 0
BBX 8 8 0 -1
BITMAP
F0
60
60
60
60
62
FE
00
ENDCHAR
STARTCHAR M
ENCODING 77
SWIDTH 1000 0
DWIDTH 8 0
BBX 8 8 0 -1
BITMAP
C6
EE
FE
D6
C6
C6
C6
00
ENDCHAR
STARTCHAR N
ENCODING 78
SWIDTH 1000 0
DWIDTH 8 0
BBX 8 8 0 -1
BITMAP
C6
E6
F6
DE
CE
C6
C6
00
ENDCHAR
STARTCHAR O
ENCODING 79
SWIDTH 1000 0
DWIDTH 8 0
BBX 8 8 0 -1
BITMAP
7C
C6
C6
C6
C6
C6
7C
00
ENDCHAR
STARTCHAR P
ENCODING 80
SWIDTH 1000 0
DWIDTH 8 0
BBX 8 8 0 -1
BITMAP
FC
66
66
7C
60
60
F0
00
ENDCHAR
STARTCHAR Q
ENCODING 81
SWIDTH 1000 0
DWIDTH 8 0
BBX 8 8 0 -1
BITMAP
7C
C6
C6
C6
C6
C6
7C
0C
ENDCHAR
STARTCHAR R
ENCODING 82
SWIDTH 1000 0
DWIDTH 8 0
BBX 8 8 0 -1
BITMAP
FC
66
66
7C
66
66
E6
00
ENDCHAR
STARTCHAR S
ENCODING 83
SWIDTH 1000 0
DWIDTH 8 0
BBX 8 8 0 -1
BITMAP
7C
C6
C0
7C
06
C6
7C
00
ENDCHAR
STARTCHAR T
ENCODING 84
SWIDTH 1000 0
DWIDTH 8 0
BBX 8 8 0 -1
BITMAP
7E
5A
18
18
18
18
3C
00
ENDCHAR
STARTCHAR U
ENCODING 85
SWIDTH 1000 0
DWIDTH 8 0
BBX 8 8 0 -1
BITMAP
C6
C6
C6
C6
C6
C6
7C
00
ENDCHAR
STARTCHAR V
ENCODING 86
SWIDTH 1000 0
DWIDTH 8 0
BBX 8 8 0 -1
BITMAP
C6
C6
C6
C6
C6
6C
38
00
ENDCHAR
STARTCHAR W
ENCODING 87
SWIDTH 1000 0
DWIDTH 8 0
BBX 8 8 0 -1
BITMAP
C6
C6
C6
C6
D6
EE
C6
00
ENDCHAR
STARTCHAR X
ENCODING 88
SWIDTH 1000 0
DWIDTH 8 0
BBX 8 8 0 -1
BITMAP
C6
6C
38
38
38
6C
C6
00
ENDCHAR
STARTCHAR Y
ENCODING 89
SWIDTH 1000 0
DWIDTH 8 0
BBX 8 8 0 -1
BITMAP
66
66
66
3C
18
18
3C
00
ENDCHAR
STARTCHAR Z
ENCODING 90
SWIDTH 1000 0
DWIDTH 8 0
BBX 8 8 0 -1
BITMAP
FE
C6
0C
18
30
66
FE
00
ENDCHAR
STARTCHAR bracketleft
ENCODING 91
SWIDTH 1000 0
DWIDTH 8 0
BBX 8 8 0 -1
BITMAP
1C
18
18
18
18
18
1C
00
ENDCHAR
STARTCHAR backslash
ENCODING 92
SWIDTH 1000 0
DWIDTH 8 0
BBX 8 8 0 -1
BITMAP
C0
60
30
18
0C
06
02
00
ENDCHAR
STARTCHAR bracketright
ENCODING 93
SWIDTH 1000 0
DWIDTH 8 0
BBX 8 8 0 -1
BITMAP
70
30
30
30
30
30
70
00
ENDCHAR
STARTCHAR asciicircum
ENCODING 94
SWIDTH 1000 0
DWIDTH 8 0
BBX 8 8 0 -1
BITMAP
00
00
10
38
6C
C6
00
00
ENDCHAR
STARTCHAR underscore
ENCODING 95
SWIDTH 1000 0
DWIDTH 8 0
BBX 8 8 0 -1
BITMAP
00
00
00
00
00
00
00
FF
ENDCHAR
STARTCHAR grave
ENCODING 96
SWIDTH 1000 0
DWIDTH 8 0
BBX 8 8 0 -1
BITMAP
30
30
18
00
00
00
00
00
ENDCHAR
STARTCHAR a
ENCODING 97
SWIDTH 1000 0
DWIDTH 8 0
BBX 8 8 0 -1
BITMAP
00
00
7C
06
7E
C6
7E
00
ENDCHAR
STARTCHAR b
ENCODING 98
SWIDTH 1000 0
DWIDTH 8 0
BBX 8 8 0 -1
BITMAP
C0
C0
FC
C6
C6
C6
FC
00
ENDCHAR
STARTCHAR c
ENCODING 99
SWIDTH 1000 0
DWIDTH 8 0
BBX 8 8 0 -1
BITMAP
00
00
7C
C6
C0
C6
7C
00
ENDCHAR
STARTCHAR d
ENCODING 100
SWIDTH 1000 0
DWIDTH 8 0
BBX 8 8 0 -1
BITMAP
06
06
7E
C6
C6
C6
7E
00
ENDCHAR
STARTCHAR e
ENCODING 101
SWIDTH 1000 0
DWIDTH 8 0
BBX 8 8 0 -1
BITMAP
00
00
7C
C6
FE
C0
7C
00
ENDCHAR
STARTCHAR f
ENCODING 102
SWIDTH 1000 0
DWIDTH 8 0
BBX 8 8 0 -1
BITMAP
3C
66
60
F0
60
60
60
00
ENDCHAR
STARTCHAR g
ENCODING 103
SWIDTH 1000 0
DWIDTH 8 0
BBX 8 8 0 -1
BITMAP
00
00
7E
C6
C6
7E
06
7C
ENDCHAR
STARTCHAR h
ENCODING 104
SWIDTH 1000 0
DWIDTH 8 0
BBX 8 8 0 -1
BITMAP
C0
C0
FC
C6
C6
C6
C6
00
ENDCHAR
STARTCHAR i
ENCODING 105
SWIDTH 1000 0
DWIDTH 8 0
BBX 8 8 0 -1
BITMAP
18
00
38
18
18
18
3C
00
ENDCHAR
STARTCHAR j
ENCODING 106
SWIDTH 1000 0
DWIDTH 8 0
BBX 8 8 0 -1
BITMAP
00
0C
00
1C
0C
0C
CC
78
ENDCHAR
STARTCHAR k
ENCODING 107
SWIDTH 1000 0
DWIDTH 8 0
BBX 8 8 0 -1
BITMAP
C0
C0
C6
D8
F0
D8
C6
00
ENDCHAR
STARTCHAR l
ENCODING 108
SWIDTH 1000 0
DWIDTH 8 0
BBX 8 8 0 -1
BITMAP
38
18
18
18
18
18
3C
00
ENDCHAR
STARTCHAR m
ENCODING 109
SWIDTH 1000 0
DWIDTH 8 0
BBX 8 8 0 -1
BITMAP
00
00
EE
FE
D6
C6
C6
00
ENDCHAR
STARTCHAR n
ENCODING 110
SWIDTH 1000 0
DWIDTH 8 0
BBX 8 8 0 -1
BITMAP
00
00
FC
C6
C6
C6
C6
00
ENDCHAR
STARTCHAR o
ENCODING 111
SWIDTH 1000 0
DWIDTH 8 0
BBX 8 8 0 -1
BITMAP
00
00
7C
C6
C6
C6
7C
00
ENDCHAR
STARTCHAR p
ENCODING 112
SWIDTH 1000 0
DWIDTH 8 0
BBX 8 8 0 -1
BITMAP
00
00
FC
C6
C6
FC
C0
C0
ENDCHAR
STARTCHAR q
ENCODING 113
SWIDTH 1000 0
DWIDTH 8 0
BBX 8 8 0 -1
BITMAP
00
00
7E
C6
C6
7E
06
06
ENDCHAR
STARTCHAR r
ENCODING 114
SWIDTH 1000 0
DWIDTH 8 0
BBX 8 8 0 -1
BITMAP
00
00
DE
76
60
60
60
00
ENDCHAR
STARTCHAR s
ENCODING 115
SWIDTH 1000 0
DWIDTH 8 0
BBX 8 8 0 -1
BITMAP
00
00
7C
C0
7C
06
7C
00
ENDCHAR
STARTCHAR t
ENCODING 116
SWIDTH 1000 0
DWIDTH 8 0
BBX 8 8 0 -1
BITMAP
18
18
7E
18
18
18
1E
00
ENDCHAR
STARTCHAR u
ENCODING 117
SWIDTH 1000 0
DWIDTH 8 0
BBX 8 8 0 -1
BITMAP
00
00
C6
C6
C6
C6
7E
00
ENDCHAR
STARTCHAR v
ENCODING 118
SWIDTH 1000 0
DWIDTH 8 0
BBX 8 8 0 -1
BITMAP
00
00
C6
C6
C6
6C
38
00
ENDCHAR
STARTCHAR w
ENCODING 119
SWIDTH 1000 0
DWIDTH 8 0
BBX 8 8 0 -1
BITMAP
00
00
C6
C6
D6
FE
C6
00
ENDCHAR
STARTCHAR x
ENCODING 120
SWIDTH 1000 0
DWIDTH 8 0
BBX 8 8 0 -1
BITMAP
00
00
C6
6C
38
6C
C6
00
ENDCHAR
STARTCHAR y
ENCODING 121
SWIDTH 1000 0
DWIDTH 8 0
BBX 8 8 0 -1
BITMAP
00
00
C6
C6
C6
7E
06
7C
ENDCHAR
STARTCHAR z
ENCODING 122
SWIDTH 1000 0
DWIDTH 8 0
BBX 8 8 0 -1
BITMAP
00
00
FE
0C
18
60
FE
00
ENDCHAR
STARTCHAR braceleft
ENCODING 123
SWIDTH 1000 0
DWIDTH 8 0
BBX 8 8 0 -1
BITMAP
0E
18
18
70
18
18
0E
00
ENDCHAR
STARTCHAR bar
ENCODING 124
SWIDTH 1000 0
DWIDTH 8 0
BBX 8 8 0 -1
BITMAP
18
18
18
00
18
18
18
00
ENDCHAR
STARTCHAR braceright
ENCODING 125
SWIDTH 1000 0
DWIDTH 8 0
BBX 8 8 0 -1
BITMAP
E0
30
30
1C
30
30
E0
00
ENDCHAR
STARTCHAR asciitilde
ENCODING 126
SWIDTH 1000 0
DWIDTH 8 0
BBX 8 8 0 -1
BITMAP
00
00
70
9A
0E
00
00
00
ENDCHAR
STARTCHAR uni007F
ENCODING 127
SWIDTH 1000 0
DWIDTH 8 0
BBX 8 8 0 -1
BITMAP
00
00
18
3C
66
FF
00
00
ENDCHAR
STARTCHAR uni00A0
ENCODING 160
SWIDTH 1000 0
DWIDTH 8 0
BBX 8 8 0 -1
BITMAP
00
00
00
00
00
00
00
00
ENDCHAR
STARTCHAR exclamdown
ENCODING 161
SWIDTH 1000 0
DWIDTH 8 0
BBX 8 8 0 -1
BITMAP
30
00
30
30
30
30
30
00
ENDCHAR
STARTCHAR cent
ENCODING 162
SWIDTH 1000 0
DWIDTH 8 0
BBX 8 8 0 -1
BITMAP
18
7C
C6
C0
C6
7C
18
00
ENDCHAR
STARTCHAR sterling
ENCODING 163
SWIDTH 1000 0
DWIDTH 8 0
BBX 8 8 0 -1
BITMAP
1E
32
30
78
30
70
FE
00
ENDCHAR
STARTCHAR yen
ENCODING 165
SWIDTH 1000 0
DWIDTH 8 0
BBX 8 8 0 -1
BITMAP
66
3C
18
7E
18
3C
18
00
ENDCHAR
STARTCHAR section
ENCODING 167
SWIDTH 1000 0
DWIDTH 8 0
BBX 8 8 0 -1
BITMAP
7E
C1
DC
22
22
1F
83
7E
ENDCHAR
STARTCHAR ordfeminine
ENCODING 170
SWIDTH 1000 0
DWIDTH 8 0
BBX 8 8 0 -1
BITMAP
7C
06
7E
C6
7E
00
FE
00
ENDCHAR
STARTCHAR guillemotleft
ENCODING 171
SWIDTH 1000 0
DWIDTH 8 0
BBX 8 8 0 -1
BITMAP
00
36
6C
D8
6C
36
00
00
ENDCHAR
STARTCHAR logicalnot
ENCODING 172
SWIDTH 1000 0
DWIDTH 8 0
BBX 8 8 0 -1
BITMAP
00
00
FE
06
06
06
06
00
ENDCHAR
STARTCHAR degree
ENCODING 176
SWIDTH 1000 0
DWIDTH 8 0
BBX 8 8 0 -1
BITMAP
3C
66
3C
00
00
00
00
00
ENDCHAR
STARTCHAR plusminus
ENCODING 177
SWIDTH 1000 0
DWIDTH 8 0
BBX 8 8 0 -1
BITMAP
18
18
7E
18
18
7E
00
00
ENDCHAR
STARTCHAR uni00B2
ENCODING 178
SWIDTH 1000 0
DWIDTH 8 0
BBX 8 8 0 -1
BITMAP
F0
30
C0
F0
00
00
00
00
ENDCHAR
STARTCHAR mu
ENCODING 181
SWIDTH 1000 0
DWIDTH 8 0
BBX 8 8 0 -1
BITMAP
00
00
33
33
33
3E
30
F0
ENDCHAR
STARTCHAR paragraph
ENCODING 182
SWIDTH 1000 0
DWIDTH 8 0
BBX 8 8 0 -1
BITMAP
FF
B6
76
36
36
36
36
00
ENDCHAR
STARTCHAR periodcentered
ENCODING 183
SWIDTH 1000 0
DWIDTH 8 0
BBX 8 8 0 -1
BITMAP
00
00
00
00
18
00
00
00
ENDCHAR
STARTCHAR ordmasculine
ENCODING 186
SWIDTH 1000 0
DWIDTH 8 0
BBX 8 8 0 -1
BITMAP
7C
C6
C6
C6
7C
00
FE
00
ENDCHAR
STARTCHAR guillemotright
ENCODING 187
SWIDTH 1000 0
DWIDTH 8 0
BBX 8 8 0 -1
BITMAP
00
D8
6C
36
6C
D8
00
00
ENDCHAR
STARTCHAR onequarter
ENCODING 188
SWIDTH 1000 0
DWIDTH 8 0
BBX 8 8 0 -1
BITMAP
C0
C0
C0
CC
1C
3E
0C
00
ENDCHAR
STARTCHAR onehalf
ENCODING 189
SWIDTH 1000 0
DWIDTH 8 0
BBX 8 8 0 -1
BITMAP
C0
C0
C0
DE
06
0C
1E
00
ENDCHAR
STARTCHAR questiondown
ENCODING 191
SWIDTH 1000 0
DWIDTH 8 0
BBX 8 8 0 -1
BITMAP
18
00
18
30
60
C6
7C
00
ENDCHAR
STARTCHAR Adieresis
ENCODING 196
SWIDTH 1000 0
DWIDTH 8 0
BBX 8 8 0 -1
BITMAP
66
00
7C
C6
FE
C6
C6
00
ENDCHAR
STARTCHAR Aring
ENCODING 197
SWIDTH 1000 0
DWIDTH 8 0
BBX 8 8 0 -1
BITMAP
18
00
7C
C6
FE
C6
C6
00
ENDCHAR
STARTCHAR AE
ENCODING 198
SWIDTH 1000 0
DWIDTH 8 0
BBX 8 8 0 -1
BITMAP
7E
D8
D8
DE
F8
D8
DE
00
ENDCHAR
STARTCHAR Ccedilla
ENCODING 199
SWIDTH 1000 0
DWIDTH 8 0
BBX 8 8 0 -1
BITMAP
7C
C6
C0
C0
C6
7C
18
70
ENDCHAR
STARTCHAR Eacute
ENCODING 201
SWIDTH 1000 0
DWIDTH 8 0
BBX 8 8 0 -1
BITMAP
0E
18
FE
60
78
60
FE
00
ENDCHAR
STARTCHAR Ntilde
ENCODING 209
SWIDTH 1000 0
DWIDTH 8 0
BBX 8 8 0 -1
BITMAP
66
98
E6
F6
DE
CE
C6
00
ENDCHAR
STARTCHAR Odieresis
ENCODING 214
SWIDTH 1000 0
DWIDTH 8 0
BBX 8 8 0 -1
BITMAP
66
7C
C6
C6
C6
C6
7C
00
ENDCHAR
STARTCHAR Udieresis
ENCODING 220
SWIDTH 1000 0
DWIDTH 8 0
BBX 8 8 0 -1
BITMAP
C6
00
C6
C6
C6
C6
7C
00
ENDCHAR
STARTCHAR germandbls
ENCODING 223
SWIDTH 1000 0
DWIDTH 8 0
BBX 8 8 0 -1
BITMAP
1C
36
66
FC
C6
C6
FC
C0
ENDCHAR
STARTCHAR agrave
ENCODING 224
SWIDTH 1000 0
DWIDTH 8 0
BBX 8 8 0 -1
BITMAP
38
0C
7C
06
7E
C6
7E
00
ENDCHAR
STARTCHAR aacute
ENCODING 225
SWIDTH 1000 0
DWIDTH 8 0
BBX 8 8 0 -1
BITMAP
0E
18
7C
06
7E
C6
7E
00
ENDCHAR
STARTCHAR acircumflex
ENCODING 226
SWIDTH 1000 0
DWIDTH 8 0
BBX 8 8 0 -1
BITMAP
18
24
7C
06
7E
C6
7E
00
ENDCHAR
STARTCHAR adieresis
ENCODING 228
SWIDTH 1000 0
DWIDTH 8 0
BBX 8 8 0 -1
BITMAP
66
00
7C
06
7E
C6
7E
00
ENDCHAR
STARTCHAR aring
ENCODING 229
SWIDTH 1000 0
DWIDTH 8 0
BBX 8 8 0 -1
BITMAP
18
00
7C
06
7E
C6
7E
00
ENDCHAR
STARTCHAR ae
ENCODING 230
SWIDTH 1000 0
DWIDTH 8 0
BBX 8 8 0 -1
BITMAP
00
00
7C
1A
7E
D8
7E
00
ENDCHAR
STARTCHAR ccedilla
ENCODING 231
SWIDTH 1000 0
DWIDTH 8 0
BBX 8 8 0 -1
BITMAP
00
00
7C
C0
C0
7C
18
70
ENDCHAR
STARTCHAR egrave
ENCODING 232
SWIDTH 1000 0
DWIDTH 8 0
BBX 8 8 0 -1
BITMAP
70
18
7C
C6
FE
C0
7C
00
ENDCHAR
STARTCHAR eacute
ENCODING 233
SWIDTH 1000 0
DWIDTH 8 0
BBX 8 8 0 -1
BITMAP
0E
18
7C
C6
FE
C0
7C
00
ENDCHAR
STARTCHAR ecircumflex
ENCODING 234
SWIDTH 1000 0
DWIDTH 8 0
BBX 8 8 0 -1
BITMAP
18
24
7C
C6
FE
C0
7C
00
ENDCHAR
STARTCHAR edieresis
ENCODING 235
SWIDTH 1000 0
DWIDTH 8 0
BBX 8 8 0 -1
BITMAP
66
00
7C
C6
FE
C0
7C
00
ENDCHAR
STARTCHAR igrave
ENCODING 236
SWIDTH 1000 0
DWIDTH 8 0
BBX 8 8 0 -1
BITMAP
38
0C
38
18
18
18
3C
00
ENDCHAR
STARTCHAR iacute
ENCODING 237
SWIDTH 1000 0
DWIDTH 8 0
BBX 8 8 0 -1
BITMAP
1A
30
38
18
18
18
3C
00
ENDCHAR
STARTCHAR icircumflex
ENCODING 238
SWIDTH 1000 0
DWIDTH 8 0
BBX 8 8 0 -1
BITMAP
18
24
38
18
18
18
3C
00
ENDCHAR
STARTCHAR idieresis
ENCODING 239
SWIDTH 1000 0
DWIDTH 8 0
BBX 8 8 0 -1
BITMAP
66
00
38
18
18
18
3C
00
ENDCHAR
STARTCHAR ntilde
ENCODING 241
SWIDTH 1000 0
DWIDTH 8 0
BBX 8 8 0 -1
BITMAP
66
98
FC
C6
C6
C6
C6
00
ENDCHAR
STARTCHAR ograve
ENCODING 242
SWIDTH 1000 0
DWIDTH 8 0
BBX 8 8 0 -1
BITMAP
38
0C
7C
C6
C6
C6
7C
00
ENDCHAR
STARTCHAR oacute
ENCODING 243
SWIDTH 1000 0
DWIDTH 8 0
BBX 8 8 0 -1
BITMAP
0E
18
7C
C6
C6
C6
7C
00
ENDCHAR
STARTCHAR ocircumflex
ENCODING 244
SWIDTH 1000 0
DWIDTH 8 0
BBX 8 8 0 -1
BITMAP
18
24
7C
C6
C6
C6
7C
00
ENDCHAR
STARTCHAR odieresis
ENCODING 246
SWIDTH 1000 0
DWIDTH 8 0
BBX 8 8 0 -1
BITMAP
66
00
7C
C6
C6
C6
7C
00
ENDCHAR
STARTCHAR divide
ENCODING 247
SWIDTH 1000 0
DWIDTH 8 0
BBX 8 8 0 -1
BITMAP
00
18
00
7E
00
18
00
00
ENDCHAR
STARTCHAR ugrave
ENCODING 249
SWIDTH 1000 0
DWIDTH 8 0
BBX 8 8 0 -1
BITMAP
38
0C
C6
C6
C6
C6
7E
00
ENDCHAR
STARTCHAR uacute
ENCODING 250
SWIDTH 1000 0
DWIDTH 8 0
BBX 8 8 0 -1
BITMAP
0E
18
C6
C6
C6
C6
7E
00
ENDCHAR
STARTCHAR ucircumflex
ENCODING 251
SWIDTH 1000 0
DWIDTH 8 0
BBX 8 8 0 -1
BITMAP
18
24
C6
C6
C6
C6
7E
00
ENDCHAR
STARTCHAR udieresis
ENCODING 252
SWIDTH 1000 0
DWIDTH 8 0
BBX 8 8 0 -1
BITMAP
66
00
C6
C6
C6
C6
7E
00
ENDCHAR
STARTCHAR ydieresis
ENCODING 255
SWIDTH 1000 0
DWIDTH 8 0
BBX 8 8 0 -1
BITMAP
66
00
C6
C6
C6
7E
06
7C
ENDCHAR
STARTCHAR florin
ENCODING 402
SWIDTH 1000 0
DWIDTH 8 0
BBX 8 8 0 -1
BITMAP
00
1C
32
30
FC
30
F0
00
ENDCHAR
STARTCHAR Gamma
ENCODING 915
SWIDTH 1000 0
DWIDTH 8 0
BBX 8 8 0 -1
BITMAP
FE
62
60
60
60
60
60
00
ENDCHAR
STARTCHAR Theta
ENCODING 920
SWIDTH 1000 0
DWIDTH 8 0
BBX 8 8 0 -1
BITMAP
00
7C
C6
FE
C6
7C
00
00
ENDCHAR
STARTCHAR Sigma
ENCODING 931
SWIDTH 1000 0
DWIDTH 8 0
BBX 8 8 0 -1
BITMAP
FE
62
30
18
30
62
FE
00
ENDCHAR
STARTCHAR Phi
ENCODING 934
SWIDTH 1000 0
DWIDTH 8 0
BBX 8 8 0 -1
BITMAP
3C
18
3C
66
66
3C
18
3C
ENDCHAR
STARTCHAR uni03A9
ENCODING 937
SWIDTH 1000 0
DWIDTH 8 0
BBX 8 8 0 -1
BITMAP
00
7E
C3
C3
C3
66
E7
00
ENDCHAR
STARTCHAR alpha
ENCODING 945
SWIDTH 1000 0
DWIDTH 8 0
BBX 8 8 0 -1
BITMAP
00
00
77
98
98
77
00
00
ENDCHAR
STARTCHAR delta
ENCODING 948
SWIDTH 1000 0
DWIDTH 8 0
BBX 8 8 0 -1
BITMAP
1E
19
3C
66
C6
CC
78
00
ENDCHAR
STARTCHAR epsilon
ENCODING 949
SWIDTH 1000 0
DWIDTH 8 0
BBX 8 8 0 -1
BITMAP
00
3E
C0
FE
C0
3E
00
00
ENDCHAR
STARTCHAR pi
ENCODING 960
SWIDTH 1000 0
DWIDTH 8 0
BBX 8 8 0 -1
BITMAP
00
00
FF
66
66
66
66
00
ENDCHAR
STARTCHAR sigma
ENCODING 963
SWIDTH 1000 0
DWIDTH 8 0
BBX 8 8 0 -1
BITMAP
00
00
3F
66
C6
CC
78
00
ENDCHAR
STARTCHAR tau
ENCODING 964
SWIDTH 1000 0
DWIDTH 8 0
BBX 8 8 0 -1
BITMAP
00
00
FF
18
18
18
18
00
ENDCHAR
STARTCHAR phi
ENCODING 966
SWIDTH 1000 0
DWIDTH 8 0
BBX 8 8 0 -1
BITMAP
00
03
7C
CE
E6
7C
C0
00
ENDCHAR
STARTCHAR bullet
ENCODING 8226
SWIDTH 1000 0
DWIDTH 8 0
BBX 8 8 0 -1
BITMAP
00
00
18
3C
18
00
00
00
ENDCHAR
STARTCHAR exclamdbl
ENCODING 8252
SWIDTH 1000 0
DWIDTH 8 0
BBX 8 8 0 -1
BITMAP
66
66
66
66
66
00
66
00
ENDCHAR
STARTCHAR uni207F
ENCODING 8319
SWIDTH 1000 0
DWIDTH 8 0
BBX 8 8 0 -1
BITMAP
D8
EC
CC
CC
00
00
00
00
ENDCHAR
STARTCHAR peseta
ENCODING 8359
SWIDTH 1000 0
DWIDTH 8 0
BBX 8 8 0 -1
BITMAP
FC
C6
FC
C0
CC
DE
CC
0E
ENDCHAR
STARTCHAR arrowleft
ENCODING 8592
SWIDTH 1000 0
DWIDTH 8 0
BBX 8 8 0 -1
BITMAP
00
20
60
FF
60
20
00
00
ENDCHAR
STARTCHAR arrowup
ENCODING 8593
SWIDTH 1000 0
DWIDTH 8 0
BBX 8 8 0 -1
BITMAP
18
7E
18
18
18
18
18
00
ENDCHAR
STARTCHAR arrowright
ENCODING 8594
SWIDTH 1000 0
DWIDTH 8 0
BBX 8 8 0 -1
BITMAP
00
04
06
FF
06
04
00
00
ENDCHAR
STARTCHAR arrowdown
ENCODING 8595
SWIDTH 1000 0
DWIDTH 8 0
BBX 8 8 0 -1
BITMAP
18
18
18
18
18
7E
18
00
ENDCHAR
STARTCHAR arrowboth
ENCODING 8596
SWIDTH 1000 0
DWIDTH 8 0
BBX 8 8 0 -1
BITMAP
00
24
66
FF
66
24
00
00
ENDCHAR
STARTCHAR arrowupdn
ENCODING 8597
SWIDTH 1000 0
DWIDTH 8 0
BBX 8 8 0 -1
BITMAP
18
7E
18
18
18
18
7E
18
ENDCHAR
STARTCHAR arrowupdnbse
ENCODING 8616
SWIDTH 1000 0
DWIDTH 8 0
BBX 8 8 0 -1
BITMAP
18
7E
18
18
7E
18
00
FF
ENDCHAR
STARTCHAR uni2219
ENCODING 8729
SWIDTH 1000 0
DWIDTH 8 0
BBX 8 8 0 -1
BITMAP
00
18
3C
18
00
00
00
00
ENDCHAR
STARTCHAR radical
ENCODING 8730
SWIDTH 1000 0
DWIDTH 8 0
BBX 8 8 0 -1
BITMAP
0F
0C
0C
0C
EC
6C
38
00
ENDCHAR
STARTCHAR infinity
ENCODING 8734
SWIDTH 1000 0
DWIDTH 8 0
BBX 8 8 0 -1
BITMAP
00
00
66
99
99
66
00
00
ENDCHAR
STARTCHAR orthogonal
ENCODING 8735
SWIDTH 1000 0
DWIDTH 8 0
BBX 8 8 0 -1
BITMAP
00
00
00
C0
C0
C0
FF
00
ENDCHAR
STARTCHAR intersection
ENCODING 8745
SWIDTH 1000 0
DWIDTH 8 0
BBX 8 8 0 -1
BITMAP
00
7E
C3
C3
C3
C3
00
00
ENDCHAR
STARTCHAR approxequal
ENCODING 8776
SWIDTH 1000 0
DWIDTH 8 0
BBX 8 8 0 -1
BITMAP
00
76
DC
00
76
DC
00
00
ENDCHAR
STARTCHAR equivalence
ENCODING 8801
SWIDTH 1000 0
DWIDTH 8 0
BBX 8 8 0 -1
BITMAP
00
FE
00
FE
00
FE
00
00
ENDCHAR
STARTCHAR lessequal
ENCODING 8804
SWIDTH 1000 0
DWIDTH 8 0
BBX 8 8 0 -1
BITMAP
1C
30
60
30
1C
00
FE
00
ENDCHAR
STARTCHAR greaterequal
ENCODING 8805
SWIDTH 1000 0
DWIDTH 8 0
BBX 8 8 0 -1
BITMAP
70
18
0C
18
70
00
FE
00
ENDCHAR
STARTCHAR house
ENCODING 8962
SWIDTH 1000 0
DWIDTH 8 0
BBX 8 8 0 -1
BITMAP
00
00
18
3C
66
FF
00
00
ENDCHAR
STARTCHAR revlogicalnot
ENCODING 8976
SWIDTH 1000 0
DWIDTH 8 0
BBX 8 8 0 -1
BITMAP
00
00
FE
C0
C0
C0
C0
00
ENDCHAR
STARTCHAR integraltp
ENCODING 8992
SWIDTH 1000 0
DWIDTH 8 0
BBX 8 8 0 -1
BITMAP
00
0E
1B
18
18
18
18
18
ENDCHAR
STARTCHAR integralbt
ENCODING 8993
SWIDTH 1000 0
DWIDTH 8 0
BBX 8 8 0 -1
BITMAP
18
18
18
18
18
D8
70
00
ENDCHAR
STARTCHAR SF100000
ENCODING 9472
SWIDTH 1000 0
DWIDTH 8 0
BBX 8 8 0 -1
BITMAP
00
00
00
FF
00
00
00
00
ENDCHAR
STARTCHAR SF110000
ENCODING 9474
SWIDTH 1000 0
DWIDTH 8 0
BBX 8 8 0 -1
BITMAP
18
18
18
18
18
18
18
18
ENDCHAR
STARTCHAR SF010000
ENCODING 9484
SWIDTH 1000 0
DWIDTH 8 0
BBX 8 8 0 -1
BITMAP
00
00
00
1F
18
18
18
18
ENDCHAR
STARTCHAR SF030000
ENCODING 9488
SWIDTH 1000 0
DWIDTH 8 0
BBX 8 8 0 -1
BITMAP
00
00
00
F8
18
18
18
18
ENDCHAR
STARTCHAR SF020000
ENCODING 9492
SWIDTH 1000 0
DWIDTH 8 0
BBX 8 8 0 -1
BITMAP
18
18
18
1F
00
00
00
00
ENDCHAR
STARTCHAR SF040000
ENCODING 9496
SWIDTH 1000 0
DWIDTH 8 0
BBX 8 8 0 -1
BITMAP
18
18
18
F8
00
00
00
00
ENDCHAR
STARTCHAR SF080000
ENCODING 9500
SWIDTH 1000 0
DWIDTH 8 0
BBX 8 8 0 -1
BITMAP
18
18
18
1F
18
18
18
18
ENDCHAR
STARTCHAR SF090000
ENCODING 9508
SWIDTH 1000 0
DWIDTH 8 0
BBX 8 8 0 -1
BITMAP
18
18
18
F8
18
18
18
18
ENDCHAR
STARTCHAR SF060000
ENCODING 9516
SWIDTH 1000 0
DWIDTH 8 0
BBX 8 8 0 -1
BITMAP
00
00
00
FF
18
18
18
18
ENDCHAR
STARTCHAR SF070000
ENCODING 9524
SWIDTH 1000 0
DWIDTH 8 0
BBX 8 8 0 -1
BITMAP
18
18
18
FF
00
00
00
00
ENDCHAR
STARTCHAR SF050000
ENCODING 9532
SWIDTH 1000 0
DWIDTH 8 0
BBX 8 8 0 -1
BITMAP
18
18
18
FF
18
18
18
18
ENDCHAR
STARTCHAR SF430000
ENCODING 9552
SWIDTH 1000 0
DWIDTH 8 0
BBX 8 8 0 -1
BITMAP
00
00
00
FF
00
FF
00
00
ENDCHAR
STARTCHAR SF240000
ENCODING 9553
SWIDTH 1000 0
DWIDTH 8 0
BBX 8 8 0 -1
BITMAP
36
36
36
36
36
36
36
36
ENDCHAR
STARTCHAR SF510000
ENCODING 9554
SWIDTH 1000 0
DWIDTH 8 0
BBX 8 8 0 -1
BITMAP
00
00
00
1F
18
1F
18
18
ENDCHAR
STARTCHAR SF520000
ENCODING 9555
SWIDTH 1000 0
DWIDTH 8 0
BBX 8 8 0 -1
BITMAP
00
00
00
3F
36
36
36
36
ENDCHAR
STARTCHAR SF390000
ENCODING 9556
SWIDTH 1000 0
DWIDTH 8 0
BBX 8 8 0 -1
BITMAP
00
00
00
3F
30
37
36
36
ENDCHAR
STARTCHAR SF220000
ENCODING 9557
SWIDTH 1000 0
DWIDTH 8 0
BBX 8 8 0 -1
BITMAP
00
00
00
F8
18
F8
18
18
ENDCHAR
STARTCHAR SF210000
ENCODING 9558
SWIDTH 1000 0
DWIDTH 8 0
BBX 8 8 0 -1
BITMAP
00
00
00
FE
36
36
36
36
ENDCHAR
STARTCHAR SF250000
ENCODING 9559
SWIDTH 1000 0
DWIDTH 8 0
BBX 8 8 0 -1
BITMAP
00
00
00
FE
06
F6
36
36
ENDCHAR
STARTCHAR SF500000
ENCODING 9560
SWIDTH 1000 0
DWIDTH 8 0
BBX 8 8 0 -1
BITMAP
18
18
18
1F
18
1F
00
00
ENDCHAR
STARTCHAR SF490000
ENCODING 9561
SWIDTH 1000 0
DWIDTH 8 0
BBX 8 8 0 -1
BITMAP
36
36
36
3F
00
00
00
00
ENDCHAR
STARTCHAR SF380000
ENCODING 9562
SWIDTH 1000 0
DWIDTH 8 0
BBX 8 8 0 -1
BITMAP
36
36
36
37
30
3F
00
00
ENDCHAR
STARTCHAR SF280000
ENCODING 9563
SWIDTH 1000 0
DWIDTH 8 0
BBX 8 8 0 -1
BITMAP
18
18
18
F8
18
F8
00
00
ENDCHAR
STARTCHAR SF270000
ENCODING 9564
SWIDTH 1000 0
DWIDTH 8 0
BBX 8 8 0 -1
BITMAP
36
36
36
FE
00
00
00
00
ENDCHAR
STARTCHAR SF260000
ENCODING 9565
SWIDTH 1000 0
DWIDTH 8 0
BBX 8 8 0 -1
BITMAP
36
36
36
F6
06
FE
00
00
ENDCHAR
STARTCHAR SF360000
ENCODING 9566
SWIDTH 1000 0
DWIDTH 8 0
BBX 8 8 0 -1
BITMAP
18
18
18
1F
18
1F
18
18
ENDCHAR
STARTCHAR SF370000
ENCODING 9567
SWIDTH 1000 0
DWIDTH 8 0
BBX 8 8 0 -1
BITMAP
36
36
36
37
36
36
36
36
ENDCHAR
STARTCHAR SF420000
ENCODING 9568
SWIDTH 1000 0
DWIDTH 8 0
BBX 8 8 0 -1
BITMAP
36
36
36
37
30
37
36
36
ENDCHAR
STARTCHAR SF190000
ENCODING 9569
SWIDTH 1000 0
DWIDTH 8 0
BBX 8 8 0 -1
BITMAP
18
18
18
F8
18
F8
18
18
ENDCHAR
STARTCHAR SF200000
ENCODING 9570
SWIDTH 1000 0
DWIDTH 8 0
BBX 8 8 0 -1
BITMAP
36
36
36
F6
36
36
36
36
ENDCHAR
STARTCHAR SF230000
ENCODING 9571
SWIDTH 1000 0
DWIDTH 8 0
BBX 8 8 0 -1
BITMAP
36
36
36
F6
06
F6
36
36
ENDCHAR
STARTCHAR SF470000
ENCODING 9572
SWIDTH 1000 0
DWIDTH 8 0
BBX 8 8 0 -1
BITMAP
00
00
00
FF
00
FF
18
18
ENDCHAR
STARTCHAR SF480000
ENCODING 9573
SWIDTH 1000 0
DWIDTH 8 0
BBX 8 8 0 -1
BITMAP
00
00
00
FF
36
36
36
36
ENDCHAR
STARTCHAR SF410000
ENCODING 9574
SWIDTH 1000 0
DWIDTH 8 0
BBX 8 8 0 -1
BITMAP
00
00
00
FF
00
F7
36
36
ENDCHAR
STARTCHAR SF450000
ENCODING 9575
SWIDTH 1000 0
DWIDTH 8 0
BBX 8 8 0 -1
BITMAP
18
18
18
FF
00
FF
00
00
ENDCHAR
STARTCHAR SF460000
ENCODING 9576
SWIDTH 1000 0
DWIDTH 8 0
BBX 8 8 0 -1
BITMAP
36
36
36
FF
00
00
00
00
ENDCHAR
STARTCHAR SF400000
ENCODING 9577
SWIDTH 1000 0
DWIDTH 8 0
BBX 8 8 0 -1
BITMAP
36
36
36
F7
00
FF
00
00
ENDCHAR
STARTCHAR SF540000
ENCODING 9578
SWIDTH 1000 0
DWIDTH 8 0
BBX 8 8 0 -1
BITMAP
18
18
18
FF
18
FF
18
18
ENDCHAR
STARTCHAR SF530000
ENCODING 9579
SWIDTH 1000 0
DWIDTH 8 0
BBX 8 8 0 -1
BITMAP
36
36
36
FF
36
36
36
36
ENDCHAR
STARTCHAR SF440000
ENCODING 9580
SWIDTH 1000 0
DWIDTH 8 0
BBX 8 8 0 -1
BITMAP
36
36
36
F7
00
F7
36
36
ENDCHAR
STARTCHAR upblock
ENCODING 9600
SWIDTH 1000 0
DWIDTH 8 0
BBX 8 8 0 -1
BITMAP
FF
FF
FF
FF
00
00
00
00
ENDCHAR
STARTCHAR dnblock
ENCODING 9604
SWIDTH 1000 0
DWIDTH 8 0
BBX 8 8 0 -1
BITMAP
00
00
00
00
FF
FF
FF
FF
ENDCHAR
STARTCHAR block
ENCODING 9608
SWIDTH 1000 0
DWIDTH 8 0
BBX 8 8 0 -1
BITMAP
FF
FF
FF
FF
FF
FF
FF
FF
ENDCHAR
STARTCHAR lfblock
ENCODING 9612
SWIDTH 1000 0
DWIDTH 8 0
BBX 8 8 0 -1
BITMAP
F0
F0
F0
F0
F0
F0
F0
F0
ENDCHAR
STARTCHAR rtblock
ENCODING 9616
SWIDTH 1000 0
DWIDTH 8 0
BBX 8 8 0 -1
BITMAP
0F
0F
0F
0F
0F
0F
0F
0F
ENDCHAR
STARTCHAR ltshade
ENCODING 9617
SWIDTH 1000 0
DWIDTH 8 0
BBX 8 8 0 -1
BITMAP
AA
AA
AA
AA
AA
AA
AA
AA
ENDCHAR
STARTCHAR shade
ENCODING 9618
SWIDTH 1000 0
DWIDTH 8 0
BBX 8 8 0 -1
BITMAP
AA
55
AA
55
AA
55
AA
55
ENDCHAR
STARTCHAR dkshade
ENCODING 9619
SWIDTH 1000 0
DWIDTH 8 0
BBX 8 8 0 -1
BITMAP
44
22
44
22
44
22
44
22
ENDCHAR
STARTCHAR filledbox
ENCODING 9632
SWIDTH 1000 0
DWIDTH 8 0
BBX 8 8 0 -1
BITMAP
00
00
00
3C
3C
3C
3C
00
ENDCHAR
STARTCHAR filledrect
ENCODING 9644
SWIDTH 1000 0
DWIDTH 8 0
BBX 8 8 0 -1
BITMAP
00
00
00
7E
7E
00
00
00
ENDCHAR
STARTCHAR triagup
ENCODING 9650
SWIDTH 1000 0
DWIDTH 8 0
BBX 8 8 0 -1
BITMAP
00
00
10
38
7C
FE
00
00
ENDCHAR
STARTCHAR triagrt
ENCODING 9658
SWIDTH 1000 0
DWIDTH 8 0
BBX 8 8 0 -1
BITMAP
00
00
60
78
7E
78
60
00
ENDCHAR
STARTCHAR triagdn
ENCODING 9660
SWIDTH 1000 0
DWIDTH 8 0
BBX 8 8 0 -1
BITMAP
00
00
00
FE
7C
38
10
00
ENDCHAR
STARTCHAR triaglf
ENCODING 9668
SWIDTH 1000 0
DWIDTH 8 0
BBX 8 8 0 -1
BITMAP
00
00
06
1E
7E
1E
06
00
ENDCHAR
STARTCHAR circle
ENCODING 9675
SWIDTH 1000 0
DWIDTH 8 0
BBX 8 8 0 -1
BITMAP
00
3C
42
81
81
42
3C
00
ENDCHAR
STARTCHAR invbullet
ENCODING 9688
SWIDTH 1000 0
DWIDTH 8 0
BBX 8 8 0 -1
BITMAP
FF
FF
E7
C3
E7
FF
FF
FF
ENDCHAR
STARTCHAR invcircle
ENCODING 9689
SWIDTH 1000 0
DWIDTH 8 0
BBX 8 8 0 -1
BITMAP
FF
C3
BD
7E
7E
BD
C3
FF
ENDCHAR
STARTCHAR smileface
ENCODING 9786
SWIDTH 1000 0
DWIDTH 8 0
BBX 8 8 0 -1
BITMAP
3C
42
A5
81
BD
42
3C
00
ENDCHAR
STARTCHAR invsmileface
ENCODING 9787
SWIDTH 1000 0
DWIDTH 8 0
BBX 8 8 0 -1
BITMAP
3C
7E
DB
FF
C3
7E
3C
00
ENDCHAR
STARTCHAR sun
ENCODING 9788
SWIDTH 1000 0
DWIDTH 8 0
BBX 8 8 0 -1
BITMAP
00
92
7C
44
C6
7C
92
00
ENDCHAR
STARTCHAR female
ENCODING 9792
SWIDTH 1000 0
DWIDTH 8 0
BBX 8 8 0 -1
BITMAP
00
7E
C3
C3
7E
18
7E
18
ENDCHAR
STARTCHAR male
ENCODING 9794
SWIDTH 1000 0
DWIDTH 8 0
BBX 8 8 0 -1
BITMAP
1F
07
0D
7C
C6
C6
7C
00
ENDCHAR
STARTCHAR spade
ENCODING 9824
SWIDTH 1000 0
DWIDTH 8 0
BBX 8 8 0 -1
BITMAP
10
38
7C
FE
FE
10
38
00
ENDCHAR
STARTCHAR club
ENCODING 9827
SWIDTH 1000 0
DWIDTH 8 0
BBX 8 8 0 -1
BITMAP
00
3C
18
FF
FF
08
18
00
ENDCHAR
STARTCHAR heart
ENCODING 9829
SWIDTH 1000 0
DWIDTH 8 0
BBX 8 8 0 -1
BITMAP
00
EE
FE
FE
7C
38
10
00
ENDCHAR
STARTCHAR diamond
ENCODING 9830
SWIDTH 1000 0
DWIDTH 8 0
BBX 8 8 0 -1
BITMAP
10
38
7C
FE
7C
38
10
00
ENDCHAR
STARTCHAR musicalnote
ENCODING 9834
SWIDTH 1000 0
DWIDTH 8 0
BBX 8 8 0 -1
BITMAP
04
06
07
04
04
FC
F8
00
ENDCHAR
STARTCHAR musicalnotedbl
ENCODING 9835
SWIDTH 1000 0
DWIDTH 8 0
BBX 8 8 0 -1
BITMAP
0C
0A
0D
0B
F9
F9
1F
1F
ENDCHAR
STARTCHAR uni3044
ENCODING 12356
SWIDTH 1000 0
DWIDTH 8 0
BBX 8 8 0 -1
BITMAP
00
00
00
00
00
00
00
00
ENDCHAR
STARTCHAR uni3046
ENCODING 12358
SWIDTH 1000 0
DWIDTH 8 0
BBX 8 8 0 -1
BITMAP
00
00
00
00
00
00
00
00
ENDCHAR
STARTCHAR uni304B
ENCODING 12363
SWIDTH 1000 0
DWIDTH 8 0
BBX 8 8 0 -1
BITMAP
00
00
00
00
00
00
00
00
ENDCHAR
STARTCHAR uni3057
ENCODING 12375
SWIDTH 1000 0
DWIDTH 8 0
BBX 8 8 0 -1
BITMAP
00
00
00
00
00
00
00
00
ENDCHAR
STARTCHAR uni306E
ENCODING 12398
SWIDTH 1000 0
DWIDTH 8 0
BBX 8 8 0 -1
BITMAP
00
00
00
00
00
00
00
00
ENDCHAR
STARTCHAR uni3093
ENCODING 12435
SWIDTH 1000 0
DWIDTH 8 0
BBX 8 8 0 -1
BITMAP
00
00
00
00
00
00
00
00
ENDCHAR
STARTCHAR .notdef
ENCODING -1
SWIDTH 1000 0
DWIDTH 8 0
BBX 7 6 1 0
BITMAP
FE
82
82
82
82
FE
ENDCHAR
ENDFONT
