STARTFONT 2.1
FONT Pix Romana Robotic-16px
SIZE 16 75 75
FONTBOUNDINGBOX 26 22 0 -6
STARTPROPERTIES 5
PIXEL_SIZE 16
FONT_ASCENT 14
FONT_DESCENT 6
CHARSET_REGISTRY "ISO10646"
CHARSET_ENCODING "1"
ENDPROPERTIES
CHARS 87
STARTCHAR uni000D
ENCODING 13
SWIDTH 125 0
DWIDTH 2 0
BBX 1 1 0 0
BITMAP
00
ENDCHAR
STARTCHAR space
ENCODING 32
SWIDTH 250 0
DWIDTH 4 0
BBX 1 1 0 0
BITMAP
00
ENDCHAR
STARTCHAR exclam
ENCODING 33
SWIDTH 312 0
DWIDTH 5 0
BBX 3 14 0 0
BITMAP
E0
E0
E0
E0
E0
60
60
60
40
40
00
40
E0
60
ENDCHAR
STARTCHAR quotedbl
ENCODING 34
SWIDTH 500 0
DWIDTH 8 0
BBX 6 4 0 10
BITMAP
DC
D8
D8
90
ENDCHAR
STARTCHAR numbersign
ENCODING 35
SWIDTH 812 0
DWIDTH 13 0
BBX 11 14 0 0
BITMAP
1980
1980
1980
1980
7FE0
3300
3300
3300
3300
FFC0
6600
6600
6600
6600
ENDCHAR
STARTCHAR dollar
ENCODING 36
SWIDTH 812 0
DWIDTH 13 0
BBX 11 18 0 -2
BITMAP
0400
0400
3FC0
64C0
C440
E400
F800
7E00
1F80
07C0
09E0
88E0
8860
C860
E8C0
7F80
0800
0800
ENDCHAR
STARTCHAR percent
ENCODING 37
SWIDTH 938 0
DWIDTH 15 0
BBX 13 14 0 0
BITMAP
7840
CC40
CC80
CC80
CD00
D900
7200
0270
04D8
0998
0998
1198
1198
20F0
ENDCHAR
STARTCHAR ampersand
ENCODING 38
SWIDTH 1125 0
DWIDTH 18 0
BBX 16 14 0 0
BITMAP
0F80
1CC0
3840
3840
3800
3C00
3E70
7F18
F798
E3D8
E1F8
E0F8
707C
3F9F
ENDCHAR
STARTCHAR quotesingle
ENCODING 39
SWIDTH 250 0
DWIDTH 4 0
BBX 2 4 0 10
BITMAP
C0
C0
C0
80
ENDCHAR
STARTCHAR parenleft
ENCODING 40
SWIDTH 500 0
DWIDTH 8 0
BBX 6 18 0 -2
BITMAP
0C
18
30
70
60
E0
E0
E0
E0
E0
E0
E0
E0
60
70
30
18
0C
ENDCHAR
STARTCHAR parenright
ENCODING 41
SWIDTH 500 0
DWIDTH 8 0
BBX 6 18 0 -2
BITMAP
C0
60
30
38
18
1C
1C
1C
1C
1C
1C
1C
1C
18
38
30
60
C0
ENDCHAR
STARTCHAR asterisk
ENCODING 42
SWIDTH 625 0
DWIDTH 10 0
BBX 8 7 0 8
BITMAP
18
DB
FF
3C
18
7E
66
ENDCHAR
STARTCHAR plus
ENCODING 43
SWIDTH 625 0
DWIDTH 10 0
BBX 8 8 0 3
BITMAP
18
18
18
FF
FF
18
18
18
ENDCHAR
STARTCHAR comma
ENCODING 44
SWIDTH 312 0
DWIDTH 5 0
BBX 3 5 0 -2
BITMAP
C0
E0
E0
60
C0
ENDCHAR
STARTCHAR hyphen
ENCODING 45
SWIDTH 500 0
DWIDTH 8 0
BBX 6 2 0 6
BITMAP
FC
FC
ENDCHAR
STARTCHAR period
ENCODING 46
SWIDTH 250 0
DWIDTH 4 0
BBX 2 3 0 0
BITMAP
C0
C0
C0
ENDCHAR
STARTCHAR slash
ENCODING 47
SWIDTH 625 0
DWIDTH 10 0
BBX 8 14 0 0
BITMAP
01
03
02
06
04
0C
08
18
10
30
20
60
40
C0
ENDCHAR
STARTCHAR zero
ENCODING 48
SWIDTH 812 0
DWIDTH 13 0
BBX 11 14 0 0
BITMAP
1F00
3180
71C0
E0E0
E0E0
E0E0
E0E0
E0E0
E0E0
E0E0
E0E0
71C0
3180
1F00
ENDCHAR
STARTCHAR one
ENCODING 49
SWIDTH 500 0
DWIDTH 8 0
BBX 6 14 0 0
BITMAP
18
F8
38
38
38
38
38
38
38
38
38
38
38
FC
ENDCHAR
STARTCHAR two
ENCODING 50
SWIDTH 812 0
DWIDTH 13 0
BBX 11 14 0 0
BITMAP
7F00
C380
81C0
81C0
01C0
0380
0380
0700
0600
0C00
1820
3FE0
7FC0
FF80
ENDCHAR
STARTCHAR three
ENCODING 51
SWIDTH 688 0
DWIDTH 11 0
BBX 9 15 0 -1
BITMAP
7E00
C700
8380
8380
0700
0F00
3E00
0700
0380
0380
0380
0380
0700
0F00
FC00
ENDCHAR
STARTCHAR four
ENCODING 52
SWIDTH 875 0
DWIDTH 14 0
BBX 12 14 0 0
BITMAP
0040
0080
0180
0380
0780
0B80
1380
2390
7FF0
FFE0
0380
0380
0380
07E0
ENDCHAR
STARTCHAR five
ENCODING 53
SWIDTH 688 0
DWIDTH 11 0
BBX 9 16 0 -1
BITMAP
0080
0F80
3F00
7E00
4000
4000
7C00
FF00
8F80
0780
0380
0380
0700
0F00
1E00
F800
ENDCHAR
STARTCHAR six
ENCODING 54
SWIDTH 812 0
DWIDTH 13 0
BBX 11 16 0 -1
BITMAP
0380
0E00
1800
3800
7000
7000
E700
EFC0
E1C0
E0E0
E0E0
E0E0
70E0
79C0
3F80
0E00
ENDCHAR
STARTCHAR seven
ENCODING 55
SWIDTH 750 0
DWIDTH 12 0
BBX 10 14 0 0
BITMAP
3FC0
7FC0
FF80
8080
0180
0100
0300
0200
0200
0600
0400
0C00
0C00
1800
ENDCHAR
STARTCHAR eight
ENCODING 56
SWIDTH 688 0
DWIDTH 11 0
BBX 9 14 0 0
BITMAP
3E00
7300
6180
6180
7180
3B00
1E00
3F00
6780
C380
C180
C180
6300
3E00
ENDCHAR
STARTCHAR nine
ENCODING 57
SWIDTH 750 0
DWIDTH 12 0
BBX 10 15 0 -1
BITMAP
3F00
7380
E180
E1C0
E1C0
E1C0
F1C0
7DC0
39C0
01C0
0180
0380
0700
0E00
3800
ENDCHAR
STARTCHAR colon
ENCODING 58
SWIDTH 250 0
DWIDTH 4 0
BBX 2 10 0 0
BITMAP
C0
C0
C0
00
00
00
00
C0
C0
C0
ENDCHAR
STARTCHAR semicolon
ENCODING 59
SWIDTH 312 0
DWIDTH 5 0
BBX 3 13 0 -2
BITMAP
C0
C0
C0
00
00
00
00
00
C0
E0
E0
60
C0
ENDCHAR
STARTCHAR less
ENCODING 60
SWIDTH 812 0
DWIDTH 13 0
BBX 11 11 0 1
BITMAP
0020
00E0
03C0
0F00
3C00
E000
3C00
0F00
03C0
00E0
0020
ENDCHAR
STARTCHAR equal
ENCODING 61
SWIDTH 625 0
DWIDTH 10 0
BBX 8 4 0 4
BITMAP
FF
00
00
FF
ENDCHAR
STARTCHAR greater
ENCODING 62
SWIDTH 812 0
DWIDTH 13 0
BBX 11 11 0 1
BITMAP
8000
E000
7800
1E00
0780
00E0
0780
1E00
7800
E000
8000
ENDCHAR
STARTCHAR question
ENCODING 63
SWIDTH 625 0
DWIDTH 10 0
BBX 8 14 0 0
BITMAP
7C
CE
87
87
07
0F
0E
1C
10
10
08
00
18
18
ENDCHAR
STARTCHAR A
ENCODING 65
SWIDTH 1125 0
DWIDTH 18 0
BBX 16 14 0 0
BITMAP
0080
0180
0180
03C0
03C0
06E0
04E0
04F0
0870
0FF8
1838
101C
301C
F83F
ENDCHAR
STARTCHAR B
ENCODING 66
SWIDTH 875 0
DWIDTH 14 0
BBX 12 14 0 0
BITMAP
FF80
01C0
00E0
70E0
71E0
73C0
7780
71C0
70E0
70F0
70F0
70F0
71E0
FFC0
ENDCHAR
STARTCHAR C
ENCODING 67
SWIDTH 1000 0
DWIDTH 16 0
BBX 14 14 0 0
BITMAP
0FF0
3818
7008
7008
E000
E000
E000
E000
E004
E004
7004
700C
3818
0FF0
ENDCHAR
STARTCHAR D
ENCODING 68
SWIDTH 1062 0
DWIDTH 17 0
BBX 15 14 0 0
BITMAP
FFC0
7070
7038
701C
701C
701E
701E
701E
701E
701C
701C
7038
7070
FFC0
ENDCHAR
STARTCHAR E
ENCODING 69
SWIDTH 812 0
DWIDTH 13 0
BBX 11 14 0 0
BITMAP
FFC0
7040
7040
7000
7000
7080
7080
7F80
7080
7000
7020
7020
7060
FFC0
ENDCHAR
STARTCHAR F
ENCODING 70
SWIDTH 750 0
DWIDTH 12 0
BBX 10 14 0 0
BITMAP
FFC0
7040
7040
7000
7000
7080
7080
7F80
7080
7000
7000
7000
7000
FC00
ENDCHAR
STARTCHAR G
ENCODING 71
SWIDTH 1062 0
DWIDTH 17 0
BBX 15 14 0 0
BITMAP
0FF0
3818
7008
7008
E000
E000
E000
E07E
E01C
E01C
701C
701C
3838
1FF0
ENDCHAR
STARTCHAR H
ENCODING 72
SWIDTH 1062 0
DWIDTH 17 0
BBX 15 14 0 0
BITMAP
FC7E
701C
701C
701C
701C
701C
701C
7FFC
701C
701C
701C
701C
701C
FC7E
ENDCHAR
STARTCHAR I
ENCODING 73
SWIDTH 500 0
DWIDTH 8 0
BBX 6 14 0 0
BITMAP
FC
70
70
70
70
70
70
70
70
70
70
70
70
FC
ENDCHAR
STARTCHAR J
ENCODING 74
SWIDTH 562 0
DWIDTH 9 0
BBX 7 18 0 -4
BITMAP
7E
38
38
38
38
38
38
38
38
38
38
38
38
38
38
38
70
E0
ENDCHAR
STARTCHAR K
ENCODING 75
SWIDTH 1062 0
DWIDTH 17 0
BBX 15 14 0 0
BITMAP
FC7C
7030
7060
70C0
7180
7300
7600
7700
7380
73C0
71E0
70F0
7078
FC3E
ENDCHAR
STARTCHAR L
ENCODING 76
SWIDTH 812 0
DWIDTH 13 0
BBX 11 14 0 0
BITMAP
FC00
7000
7000
7000
7000
7000
7000
7000
7000
7000
7020
7020
7060
FFC0
ENDCHAR
STARTCHAR M
ENCODING 77
SWIDTH 1312 0
DWIDTH 21 0
BBX 19 14 0 0
BITMAP
100100
180300
180700
1C0700
1C0F00
1E0F00
161B00
171380
233380
23A380
21E180
21E180
20C180
F0C7E0
ENDCHAR
STARTCHAR N
ENCODING 78
SWIDTH 1125 0
DWIDTH 18 0
BBX 16 14 0 0
BITMAP
403F
601C
701C
781C
7C1C
761C
731C
719C
70DC
707C
703C
701C
700C
FC04
ENDCHAR
STARTCHAR O
ENCODING 79
SWIDTH 1062 0
DWIDTH 17 0
BBX 15 14 0 0
BITMAP
0CE0
3838
701C
701C
E00E
E00E
E00E
E00E
E00E
E00E
701C
701C
3838
0CE0
ENDCHAR
STARTCHAR P
ENCODING 80
SWIDTH 812 0
DWIDTH 13 0
BBX 11 14 0 0
BITMAP
FF80
01C0
00E0
70E0
70E0
70E0
71C0
7780
7000
7000
7000
7000
7000
FC00
ENDCHAR
STARTCHAR Q
ENCODING 81
SWIDTH 1750 0
DWIDTH 28 0
BBX 26 20 0 -6
BITMAP
0CE00000
38380000
701C0000
701C0000
E00E0000
E00E0000
E00E0000
E00E0000
E00E0000
E00E0000
701C0000
701C0000
38380000
0CE00000
00780000
001F0040
0007C0C0
0003FF80
0000FF00
00001C00
ENDCHAR
STARTCHAR R
ENCODING 82
SWIDTH 1062 0
DWIDTH 17 0
BBX 15 14 0 0
BITMAP
FF80
01C0
00E0
70E0
70E0
70C0
7180
7700
7380
71C0
71E0
70F0
7078
FC3E
ENDCHAR
STARTCHAR S
ENCODING 83
SWIDTH 812 0
DWIDTH 13 0
BBX 11 14 0 0
BITMAP
3FC0
60C0
C040
E000
F800
7E00
1F80
07C0
01E0
80E0
8060
C060
E0C0
7F80
ENDCHAR
STARTCHAR T
ENCODING 84
SWIDTH 1000 0
DWIDTH 16 0
BBX 14 14 0 0
BITMAP
FFFC
8004
8004
8784
0780
0780
0780
0780
0780
0780
0780
0780
0780
1FE0
ENDCHAR
STARTCHAR U
ENCODING 85
SWIDTH 1125 0
DWIDTH 18 0
BBX 16 14 0 0
BITMAP
FC1F
7004
7004
7004
7004
7004
7004
7004
7004
7004
7004
380C
1C18
0FF0
ENDCHAR
STARTCHAR V
ENCODING 86
SWIDTH 1125 0
DWIDTH 18 0
BBX 16 14 0 0
BITMAP
FE0F
3C04
1C0C
1E08
0E08
0F10
0710
07A0
03A0
03E0
01C0
01C0
0080
0080
ENDCHAR
STARTCHAR W
ENCODING 87
SWIDTH 1625 0
DWIDTH 26 0
BBX 24 14 0 0
BITMAP
FE040F
3C0404
1C0C0C
1E0E08
0E0E08
0F1F10
071710
07A7A0
03A3A0
03E3E0
01C1C0
01C1C0
008080
008080
ENDCHAR
STARTCHAR X
ENCODING 88
SWIDTH 1062 0
DWIDTH 17 0
BBX 15 14 0 0
BITMAP
FE3E
3C10
1C30
1E60
0F40
0780
0780
03C0
05C0
0DE0
18E0
3070
2078
F0FE
ENDCHAR
STARTCHAR Y
ENCODING 89
SWIDTH 1125 0
DWIDTH 18 0
BBX 16 14 0 0
BITMAP
FE1F
3C08
1E18
0E30
0F20
0760
07C0
0380
0380
0380
0380
0380
0380
07E0
ENDCHAR
STARTCHAR Z
ENCODING 90
SWIDTH 875 0
DWIDTH 14 0
BBX 12 14 0 0
BITMAP
FFE0
81C0
83C0
0380
0780
0700
0E00
1E00
1C00
3C00
3810
7810
7020
FFE0
ENDCHAR
STARTCHAR a
ENCODING 97
SWIDTH 938 0
DWIDTH 15 0
BBX 13 12 0 0
BITMAP
0200
0600
0700
0700
0B80
0B80
11C0
11C0
3FE0
20E0
6070
E0F8
ENDCHAR
STARTCHAR b
ENCODING 98
SWIDTH 750 0
DWIDTH 12 0
BBX 10 12 0 0
BITMAP
FF00
0380
0180
7180
7300
7700
7180
71C0
71C0
71C0
7380
FF00
ENDCHAR
STARTCHAR c
ENCODING 99
SWIDTH 875 0
DWIDTH 14 0
BBX 12 12 0 0
BITMAP
1FC0
3820
7010
E010
E000
E000
E000
E010
E010
7010
3820
1FC0
ENDCHAR
STARTCHAR d
ENCODING 100
SWIDTH 938 0
DWIDTH 15 0
BBX 13 12 0 0
BITMAP
FFC0
70E0
7070
7030
7038
7038
7038
7038
7030
7070
70E0
FFC0
ENDCHAR
STARTCHAR e
ENCODING 101
SWIDTH 750 0
DWIDTH 12 0
BBX 10 12 0 0
BITMAP
FF80
7080
7080
7000
7100
7100
7F00
7100
7040
7040
7080
FF80
ENDCHAR
STARTCHAR f
ENCODING 102
SWIDTH 688 0
DWIDTH 11 0
BBX 9 12 0 0
BITMAP
FF80
7080
7080
7000
7100
7100
7F00
7100
7000
7000
7000
F800
ENDCHAR
STARTCHAR g
ENCODING 103
SWIDTH 938 0
DWIDTH 15 0
BBX 13 12 0 0
BITMAP
1FC0
3820
7020
E000
E000
E000
E1F8
E070
E070
7070
38E0
1FC0
ENDCHAR
STARTCHAR h
ENCODING 104
SWIDTH 938 0
DWIDTH 15 0
BBX 13 12 0 0
BITMAP
F8F8
7070
7070
7070
7070
7070
7FF0
7070
7070
7070
7070
F8F8
ENDCHAR
STARTCHAR i
ENCODING 105
SWIDTH 438 0
DWIDTH 7 0
BBX 5 12 0 0
BITMAP
F8
70
70
70
70
70
70
70
70
70
70
F8
ENDCHAR
STARTCHAR j
ENCODING 106
SWIDTH 500 0
DWIDTH 8 0
BBX 6 16 0 -4
BITMAP
7C
38
38
38
38
38
38
38
38
38
38
38
38
30
60
80
ENDCHAR
STARTCHAR k
ENCODING 107
SWIDTH 938 0
DWIDTH 15 0
BBX 13 12 0 0
BITMAP
F8F0
7040
7080
7100
7200
7400
7600
7300
7380
71C0
70E0
F878
ENDCHAR
STARTCHAR l
ENCODING 108
SWIDTH 750 0
DWIDTH 12 0
BBX 10 12 0 0
BITMAP
F800
7000
7000
7000
7000
7000
7000
7000
7040
7040
7080
FF80
ENDCHAR
STARTCHAR m
ENCODING 109
SWIDTH 1250 0
DWIDTH 20 0
BBX 18 12 0 0
BITMAP
100200
100600
180E00
1C0E00
3C1E00
2E3600
2F2700
276700
27C300
23C300
618300
F18FC0
ENDCHAR
STARTCHAR n
ENCODING 110
SWIDTH 938 0
DWIDTH 15 0
BBX 13 12 0 0
BITMAP
40F8
6070
7070
7870
7C70
7670
7370
71F0
70F0
7070
7030
F810
ENDCHAR
STARTCHAR o
ENCODING 111
SWIDTH 938 0
DWIDTH 15 0
BBX 13 12 0 0
BITMAP
1DC0
38E0
7070
7070
E038
E038
E038
E038
7070
7070
38E0
1DC0
ENDCHAR
STARTCHAR p
ENCODING 112
SWIDTH 750 0
DWIDTH 12 0
BBX 10 12 0 0
BITMAP
FF00
0180
01C0
71C0
71C0
7380
7700
7000
7000
7000
7000
F800
ENDCHAR
STARTCHAR q
ENCODING 113
SWIDTH 1500 0
DWIDTH 24 0
BBX 22 16 0 -4
BITMAP
1CE000
387000
703800
703800
E01C00
E01C00
E01C00
E01C00
703800
703800
387000
1DE000
00E000
003C04
001FFC
0007F8
ENDCHAR
STARTCHAR r
ENCODING 114
SWIDTH 938 0
DWIDTH 15 0
BBX 13 12 0 0
BITMAP
FF00
0380
01C0
71C0
71C0
7380
7700
7380
71C0
71C0
70E0
F878
ENDCHAR
STARTCHAR s
ENCODING 115
SWIDTH 625 0
DWIDTH 10 0
BBX 8 12 0 0
BITMAP
3F
63
C1
E0
F0
7C
1E
0F
83
81
C3
7E
ENDCHAR
STARTCHAR t
ENCODING 116
SWIDTH 812 0
DWIDTH 13 0
BBX 11 12 0 0
BITMAP
FFE0
8020
8020
0E00
0E00
0E00
0E00
0E00
0E00
0E00
0E00
1F00
ENDCHAR
STARTCHAR u
ENCODING 117
SWIDTH 938 0
DWIDTH 15 0
BBX 13 12 0 0
BITMAP
F878
7020
7020
7020
7020
7020
7020
7020
7020
7020
3860
1FC0
ENDCHAR
STARTCHAR v
ENCODING 118
SWIDTH 938 0
DWIDTH 15 0
BBX 13 12 0 0
BITMAP
F878
7020
3820
3860
1C40
1CC0
0E80
0F80
0700
0700
0200
0200
ENDCHAR
STARTCHAR w
ENCODING 119
SWIDTH 1250 0
DWIDTH 20 0
BBX 18 12 0 0
BITMAP
F843C0
706100
38E100
38F200
1DF200
1D7A00
1D3C00
0F3C00
0E1C00
0E1800
060800
040800
ENDCHAR
STARTCHAR x
ENCODING 120
SWIDTH 938 0
DWIDTH 15 0
BBX 13 12 0 0
BITMAP
FC78
3820
1C60
0EC0
0F80
0700
0780
0F80
19C0
30E0
2070
F1F8
ENDCHAR
STARTCHAR y
ENCODING 121
SWIDTH 938 0
DWIDTH 15 0
BBX 13 12 0 0
BITMAP
F878
7020
3860
1C40
0EC0
0F80
0700
0700
0700
0700
0700
0F80
ENDCHAR
STARTCHAR z
ENCODING 122
SWIDTH 812 0
DWIDTH 13 0
BBX 11 12 0 0
BITMAP
FFC0
8380
8700
0700
0E00
1E00
1C00
3C00
3820
7820
7040
FFC0
ENDCHAR
STARTCHAR bullet
ENCODING 8226
SWIDTH 438 0
DWIDTH 7 0
BBX 5 5 0 4
BITMAP
70
F8
F8
F8
70
ENDCHAR
STARTCHAR .notdef
ENCODING -1
SWIDTH 125 0
DWIDTH 2 0
BBX 1 1 0 0
BITMAP
00
ENDCHAR
ENDFONT
