STARTFONT 2.1
FONT Bm437_TelePC-2y-24px
SIZE 24 75 75
FONTBOUNDINGBOX 8 21 0 -4
STARTPROPERTIES 3
PIXEL_SIZE 24
FONT_ASCENT 20
FONT_DESCENT 4
ENDPROPERTIES
CHARS 295
STARTCHAR uni0000
ENCODING 0
SWIDTH 333 0
DWIDTH 8 0
BBX 8 18 0 -4
BITMAP
00
00
00
00
00
00
00
00
00
00
00
00
00
00
00
00
00
00
ENDCHAR
STARTCHAR uni0001
ENCODING 1
SWIDTH 333 0
DWIDTH 8 0
BBX 8 18 0 -4
BITMAP
7E
7E
81
81
A5
A5
81
81
BD
BD
99
99
81
81
7E
7E
00
00
ENDCHAR
STARTCHAR uni0002
ENCODING 2
SWIDTH 333 0
DWIDTH 8 0
BBX 8 18 0 -4
BITMAP
7E
7E
FF
FF
DB
DB
FF
FF
C3
C3
E7
E7
FF
FF
7E
7E
00
00
ENDCHAR
STARTCHAR uni0003
ENCODING 3
SWIDTH 333 0
DWIDTH 8 0
BBX 8 18 0 -4
BITMAP
6C
6C
FE
FE
FE
FE
FE
FE
7C
7C
38
38
10
10
00
00
00
00
ENDCHAR
STARTCHAR uni0004
ENCODING 4
SWIDTH 333 0
DWIDTH 8 0
BBX 8 18 0 -4
BITMAP
10
10
38
38
7C
7C
FE
FE
7C
7C
38
38
10
10
00
00
00
00
ENDCHAR
STARTCHAR uni0005
ENCODING 5
SWIDTH 333 0
DWIDTH 8 0
BBX 8 18 0 -4
BITMAP
38
38
7C
7C
38
38
FE
FE
FE
FE
D6
D6
10
10
38
38
00
00
ENDCHAR
STARTCHAR uni0006
ENCODING 6
SWIDTH 333 0
DWIDTH 8 0
BBX 8 18 0 -4
BITMAP
10
10
10
10
38
38
7C
7C
FE
FE
7C
7C
10
10
38
38
00
00
ENDCHAR
STARTCHAR uni0007
ENCODING 7
SWIDTH 333 0
DWIDTH 8 0
BBX 8 18 0 -4
BITMAP
00
00
00
00
18
18
3C
3C
3C
3C
18
18
00
00
00
00
00
00
ENDCHAR
STARTCHAR uni0008
ENCODING 8
SWIDTH 333 0
DWIDTH 8 0
BBX 8 18 0 -4
BITMAP
FF
FF
FF
FF
E7
E7
C3
C3
C3
C3
E7
E7
FF
FF
FF
FF
FF
FF
ENDCHAR
STARTCHAR uni0009
ENCODING 9
SWIDTH 333 0
DWIDTH 8 0
BBX 8 18 0 -4
BITMAP
00
00
3C
3C
66
66
42
42
42
42
66
66
3C
3C
00
00
00
00
ENDCHAR
STARTCHAR uni000A
ENCODING 10
SWIDTH 333 0
DWIDTH 8 0
BBX 8 18 0 -4
BITMAP
FF
FF
C3
C3
99
99
BD
BD
BD
BD
99
99
C3
C3
FF
FF
FF
FF
ENDCHAR
STARTCHAR uni000B
ENCODING 11
SWIDTH 333 0
DWIDTH 8 0
BBX 8 18 0 -4
BITMAP
0F
0F
03
03
05
05
7D
7D
84
84
84
84
84
84
78
78
00
00
ENDCHAR
STARTCHAR uni000C
ENCODING 12
SWIDTH 333 0
DWIDTH 8 0
BBX 8 18 0 -4
BITMAP
3C
3C
42
42
42
42
42
42
3C
3C
18
18
7E
7E
18
18
00
00
ENDCHAR
STARTCHAR uni000D
ENCODING 13
SWIDTH 333 0
DWIDTH 8 0
BBX 8 18 0 -4
BITMAP
3F
3F
21
21
3F
3F
20
20
20
20
60
60
E0
E0
C0
C0
00
00
ENDCHAR
STARTCHAR uni000E
ENCODING 14
SWIDTH 333 0
DWIDTH 8 0
BBX 8 18 0 -4
BITMAP
3F
3F
21
21
3F
3F
21
21
23
23
67
67
E6
E6
C0
C0
00
00
ENDCHAR
STARTCHAR uni000F
ENCODING 15
SWIDTH 333 0
DWIDTH 8 0
BBX 8 18 0 -4
BITMAP
18
18
DB
DB
3C
3C
E7
E7
E7
E7
3C
3C
DB
DB
18
18
00
00
ENDCHAR
STARTCHAR uni0010
ENCODING 16
SWIDTH 333 0
DWIDTH 8 0
BBX 8 18 0 -4
BITMAP
80
80
E0
E0
F8
F8
FE
FE
F8
F8
E0
E0
80
80
00
00
00
00
ENDCHAR
STARTCHAR uni0011
ENCODING 17
SWIDTH 333 0
DWIDTH 8 0
BBX 8 18 0 -4
BITMAP
02
02
0E
0E
3E
3E
FE
FE
3E
3E
0E
0E
02
02
00
00
00
00
ENDCHAR
STARTCHAR uni0012
ENCODING 18
SWIDTH 333 0
DWIDTH 8 0
BBX 8 18 0 -4
BITMAP
10
10
38
38
7C
7C
10
10
10
10
7C
7C
38
38
10
10
00
00
ENDCHAR
STARTCHAR uni0013
ENCODING 19
SWIDTH 333 0
DWIDTH 8 0
BBX 8 18 0 -4
BITMAP
24
24
24
24
24
24
24
24
24
24
00
00
24
24
00
00
00
00
ENDCHAR
STARTCHAR uni0014
ENCODING 20
SWIDTH 333 0
DWIDTH 8 0
BBX 8 18 0 -4
BITMAP
7F
7F
92
92
92
92
72
72
12
12
12
12
12
12
00
00
00
00
ENDCHAR
STARTCHAR uni0015
ENCODING 21
SWIDTH 333 0
DWIDTH 8 0
BBX 8 18 0 -4
BITMAP
3E
3E
43
43
58
58
24
24
24
24
18
18
C4
C4
78
78
00
00
ENDCHAR
STARTCHAR uni0016
ENCODING 22
SWIDTH 333 0
DWIDTH 8 0
BBX 8 18 0 -4
BITMAP
00
00
00
00
00
00
00
00
7E
7E
7E
7E
7E
7E
00
00
00
00
ENDCHAR
STARTCHAR uni0017
ENCODING 23
SWIDTH 333 0
DWIDTH 8 0
BBX 8 18 0 -4
BITMAP
10
10
38
38
7C
7C
10
10
7C
7C
38
38
10
10
FE
FE
00
00
ENDCHAR
STARTCHAR uni0018
ENCODING 24
SWIDTH 333 0
DWIDTH 8 0
BBX 8 18 0 -4
BITMAP
10
10
38
38
7C
7C
10
10
10
10
10
10
10
10
10
10
00
00
ENDCHAR
STARTCHAR uni0019
ENCODING 25
SWIDTH 333 0
DWIDTH 8 0
BBX 8 18 0 -4
BITMAP
10
10
10
10
10
10
10
10
10
10
7C
7C
38
38
10
10
00
00
ENDCHAR
STARTCHAR uni001A
ENCODING 26
SWIDTH 333 0
DWIDTH 8 0
BBX 8 18 0 -4
BITMAP
00
00
04
04
06
06
FF
FF
06
06
04
04
00
00
00
00
00
00
ENDCHAR
STARTCHAR uni001B
ENCODING 27
SWIDTH 333 0
DWIDTH 8 0
BBX 8 18 0 -4
BITMAP
00
00
20
20
60
60
FF
FF
60
60
20
20
00
00
00
00
00
00
ENDCHAR
STARTCHAR uni001C
ENCODING 28
SWIDTH 333 0
DWIDTH 8 0
BBX 8 18 0 -4
BITMAP
00
00
00
00
40
40
40
40
40
40
7E
7E
00
00
00
00
00
00
ENDCHAR
STARTCHAR uni001D
ENCODING 29
SWIDTH 333 0
DWIDTH 8 0
BBX 8 18 0 -4
BITMAP
00
00
24
24
66
66
FF
FF
66
66
24
24
00
00
00
00
00
00
ENDCHAR
STARTCHAR uni001E
ENCODING 30
SWIDTH 333 0
DWIDTH 8 0
BBX 8 18 0 -4
BITMAP
00
00
10
10
38
38
7C
7C
FE
FE
FE
FE
00
00
00
00
00
00
ENDCHAR
STARTCHAR uni001F
ENCODING 31
SWIDTH 333 0
DWIDTH 8 0
BBX 8 18 0 -4
BITMAP
00
00
FE
FE
FE
FE
7C
7C
38
38
10
10
00
00
00
00
00
00
ENDCHAR
STARTCHAR space
ENCODING 32
SWIDTH 333 0
DWIDTH 8 0
BBX 8 18 0 -4
BITMAP
00
00
00
00
00
00
00
00
00
00
00
00
00
00
00
00
00
00
ENDCHAR
STARTCHAR exclam
ENCODING 33
SWIDTH 333 0
DWIDTH 8 0
BBX 8 18 0 -4
BITMAP
10
10
38
38
38
38
10
10
10
10
00
00
10
10
00
00
00
00
ENDCHAR
STARTCHAR quotedbl
ENCODING 34
SWIDTH 333 0
DWIDTH 8 0
BBX 8 18 0 -4
BITMAP
24
24
24
24
24
24
00
00
00
00
00
00
00
00
00
00
00
00
ENDCHAR
STARTCHAR numbersign
ENCODING 35
SWIDTH 333 0
DWIDTH 8 0
BBX 8 18 0 -4
BITMAP
24
24
24
24
7E
7E
24
24
7E
7E
24
24
24
24
00
00
00
00
ENDCHAR
STARTCHAR dollar
ENCODING 36
SWIDTH 333 0
DWIDTH 8 0
BBX 8 18 0 -4
BITMAP
18
18
3E
3E
40
40
3C
3C
02
02
7C
7C
18
18
00
00
00
00
ENDCHAR
STARTCHAR percent
ENCODING 37
SWIDTH 333 0
DWIDTH 8 0
BBX 8 18 0 -4
BITMAP
00
00
62
62
64
64
08
08
10
10
26
26
46
46
00
00
00
00
ENDCHAR
STARTCHAR ampersand
ENCODING 38
SWIDTH 333 0
DWIDTH 8 0
BBX 8 18 0 -4
BITMAP
18
18
24
24
18
18
2B
2B
44
44
44
44
3B
3B
00
00
00
00
ENDCHAR
STARTCHAR quotesingle
ENCODING 39
SWIDTH 333 0
DWIDTH 8 0
BBX 8 18 0 -4
BITMAP
10
10
10
10
20
20
00
00
00
00
00
00
00
00
00
00
00
00
ENDCHAR
STARTCHAR parenleft
ENCODING 40
SWIDTH 333 0
DWIDTH 8 0
BBX 8 18 0 -4
BITMAP
10
10
20
20
40
40
40
40
40
40
20
20
10
10
00
00
00
00
ENDCHAR
STARTCHAR parenright
ENCODING 41
SWIDTH 333 0
DWIDTH 8 0
BBX 8 18 0 -4
BITMAP
08
08
04
04
02
02
02
02
02
02
04
04
08
08
00
00
00
00
ENDCHAR
STARTCHAR asterisk
ENCODING 42
SWIDTH 333 0
DWIDTH 8 0
BBX 8 18 0 -4
BITMAP
00
00
22
22
1C
1C
7F
7F
1C
1C
22
22
00
00
00
00
00
00
ENDCHAR
STARTCHAR plus
ENCODING 43
SWIDTH 333 0
DWIDTH 8 0
BBX 8 18 0 -4
BITMAP
00
00
10
10
10
10
7C
7C
10
10
10
10
00
00
00
00
00
00
ENDCHAR
STARTCHAR comma
ENCODING 44
SWIDTH 333 0
DWIDTH 8 0
BBX 8 18 0 -4
BITMAP
00
00
00
00
00
00
00
00
00
00
10
10
10
10
20
20
00
00
ENDCHAR
STARTCHAR hyphen
ENCODING 45
SWIDTH 333 0
DWIDTH 8 0
BBX 8 18 0 -4
BITMAP
00
00
00
00
00
00
7E
7E
00
00
00
00
00
00
00
00
00
00
ENDCHAR
STARTCHAR period
ENCODING 46
SWIDTH 333 0
DWIDTH 8 0
BBX 8 18 0 -4
BITMAP
00
00
00
00
00
00
00
00
00
00
10
10
10
10
00
00
00
00
ENDCHAR
STARTCHAR slash
ENCODING 47
SWIDTH 333 0
DWIDTH 8 0
BBX 8 18 0 -4
BITMAP
01
01
02
02
04
04
08
08
10
10
20
20
40
40
00
00
00
00
ENDCHAR
STARTCHAR zero
ENCODING 48
SWIDTH 333 0
DWIDTH 8 0
BBX 8 18 0 -4
BITMAP
3C
3C
42
42
46
46
4A
4A
52
52
62
62
3C
3C
00
00
00
00
ENDCHAR
STARTCHAR one
ENCODING 49
SWIDTH 333 0
DWIDTH 8 0
BBX 8 18 0 -4
BITMAP
10
10
30
30
10
10
10
10
10
10
10
10
7C
7C
00
00
00
00
ENDCHAR
STARTCHAR two
ENCODING 50
SWIDTH 333 0
DWIDTH 8 0
BBX 8 18 0 -4
BITMAP
3C
3C
42
42
02
02
0C
0C
30
30
42
42
7E
7E
00
00
00
00
ENDCHAR
STARTCHAR three
ENCODING 51
SWIDTH 333 0
DWIDTH 8 0
BBX 8 18 0 -4
BITMAP
3C
3C
42
42
02
02
1C
1C
02
02
42
42
3C
3C
00
00
00
00
ENDCHAR
STARTCHAR four
ENCODING 52
SWIDTH 333 0
DWIDTH 8 0
BBX 8 18 0 -4
BITMAP
04
04
0C
0C
14
14
24
24
7F
7F
04
04
0E
0E
00
00
00
00
ENDCHAR
STARTCHAR five
ENCODING 53
SWIDTH 333 0
DWIDTH 8 0
BBX 8 18 0 -4
BITMAP
7E
7E
40
40
7C
7C
02
02
02
02
42
42
3C
3C
00
00
00
00
ENDCHAR
STARTCHAR six
ENCODING 54
SWIDTH 333 0
DWIDTH 8 0
BBX 8 18 0 -4
BITMAP
1C
1C
20
20
40
40
7C
7C
42
42
42
42
3C
3C
00
00
00
00
ENDCHAR
STARTCHAR seven
ENCODING 55
SWIDTH 333 0
DWIDTH 8 0
BBX 8 18 0 -4
BITMAP
7E
7E
42
42
04
04
08
08
10
10
10
10
10
10
00
00
00
00
ENDCHAR
STARTCHAR eight
ENCODING 56
SWIDTH 333 0
DWIDTH 8 0
BBX 8 18 0 -4
BITMAP
3C
3C
42
42
42
42
3C
3C
42
42
42
42
3C
3C
00
00
00
00
ENDCHAR
STARTCHAR nine
ENCODING 57
SWIDTH 333 0
DWIDTH 8 0
BBX 8 18 0 -4
BITMAP
3C
3C
42
42
42
42
3E
3E
02
02
04
04
38
38
00
00
00
00
ENDCHAR
STARTCHAR colon
ENCODING 58
SWIDTH 333 0
DWIDTH 8 0
BBX 8 18 0 -4
BITMAP
00
00
10
10
10
10
00
00
00
00
10
10
10
10
00
00
00
00
ENDCHAR
STARTCHAR semicolon
ENCODING 59
SWIDTH 333 0
DWIDTH 8 0
BBX 8 18 0 -4
BITMAP
00
00
10
10
10
10
00
00
00
00
10
10
10
10
20
20
00
00
ENDCHAR
STARTCHAR less
ENCODING 60
SWIDTH 333 0
DWIDTH 8 0
BBX 8 18 0 -4
BITMAP
08
08
10
10
20
20
40
40
20
20
10
10
08
08
00
00
00
00
ENDCHAR
STARTCHAR equal
ENCODING 61
SWIDTH 333 0
DWIDTH 8 0
BBX 8 18 0 -4
BITMAP
00
00
00
00
7E
7E
00
00
00
00
7E
7E
00
00
00
00
00
00
ENDCHAR
STARTCHAR greater
ENCODING 62
SWIDTH 333 0
DWIDTH 8 0
BBX 8 18 0 -4
BITMAP
10
10
08
08
04
04
02
02
04
04
08
08
10
10
00
00
00
00
ENDCHAR
STARTCHAR question
ENCODING 63
SWIDTH 333 0
DWIDTH 8 0
BBX 8 18 0 -4
BITMAP
3C
3C
42
42
02
02
0C
0C
10
10
10
10
00
00
10
10
00
00
ENDCHAR
STARTCHAR at
ENCODING 64
SWIDTH 333 0
DWIDTH 8 0
BBX 8 18 0 -4
BITMAP
3C
3C
42
42
5E
5E
52
52
5E
5E
40
40
3C
3C
00
00
00
00
ENDCHAR
STARTCHAR A
ENCODING 65
SWIDTH 333 0
DWIDTH 8 0
BBX 8 18 0 -4
BITMAP
18
18
24
24
42
42
42
42
7E
7E
42
42
42
42
00
00
00
00
ENDCHAR
STARTCHAR B
ENCODING 66
SWIDTH 333 0
DWIDTH 8 0
BBX 8 18 0 -4
BITMAP
7C
7C
22
22
22
22
3C
3C
22
22
22
22
7C
7C
00
00
00
00
ENDCHAR
STARTCHAR C
ENCODING 67
SWIDTH 333 0
DWIDTH 8 0
BBX 8 18 0 -4
BITMAP
1C
1C
22
22
40
40
40
40
40
40
22
22
1C
1C
00
00
00
00
ENDCHAR
STARTCHAR D
ENCODING 68
SWIDTH 333 0
DWIDTH 8 0
BBX 8 18 0 -4
BITMAP
78
78
24
24
22
22
22
22
22
22
24
24
78
78
00
00
00
00
ENDCHAR
STARTCHAR E
ENCODING 69
SWIDTH 333 0
DWIDTH 8 0
BBX 8 18 0 -4
BITMAP
7E
7E
22
22
28
28
38
38
28
28
22
22
7E
7E
00
00
00
00
ENDCHAR
STARTCHAR F
ENCODING 70
SWIDTH 333 0
DWIDTH 8 0
BBX 8 18 0 -4
BITMAP
7E
7E
22
22
28
28
38
38
28
28
20
20
70
70
00
00
00
00
ENDCHAR
STARTCHAR G
ENCODING 71
SWIDTH 333 0
DWIDTH 8 0
BBX 8 18 0 -4
BITMAP
1C
1C
22
22
40
40
4E
4E
42
42
22
22
1E
1E
00
00
00
00
ENDCHAR
STARTCHAR H
ENCODING 72
SWIDTH 333 0
DWIDTH 8 0
BBX 8 18 0 -4
BITMAP
42
42
42
42
42
42
7E
7E
42
42
42
42
42
42
00
00
00
00
ENDCHAR
STARTCHAR I
ENCODING 73
SWIDTH 333 0
DWIDTH 8 0
BBX 8 18 0 -4
BITMAP
38
38
10
10
10
10
10
10
10
10
10
10
38
38
00
00
00
00
ENDCHAR
STARTCHAR J
ENCODING 74
SWIDTH 333 0
DWIDTH 8 0
BBX 8 18 0 -4
BITMAP
0E
0E
04
04
04
04
04
04
44
44
44
44
38
38
00
00
00
00
ENDCHAR
STARTCHAR K
ENCODING 75
SWIDTH 333 0
DWIDTH 8 0
BBX 8 18 0 -4
BITMAP
62
62
24
24
28
28
30
30
28
28
24
24
63
63
00
00
00
00
ENDCHAR
STARTCHAR L
ENCODING 76
SWIDTH 333 0
DWIDTH 8 0
BBX 8 18 0 -4
BITMAP
70
70
20
20
20
20
20
20
20
20
22
22
7E
7E
00
00
00
00
ENDCHAR
STARTCHAR M
ENCODING 77
SWIDTH 333 0
DWIDTH 8 0
BBX 8 18 0 -4
BITMAP
63
63
55
55
49
49
49
49
41
41
41
41
41
41
00
00
00
00
ENDCHAR
STARTCHAR N
ENCODING 78
SWIDTH 333 0
DWIDTH 8 0
BBX 8 18 0 -4
BITMAP
62
62
52
52
4A
4A
46
46
42
42
42
42
42
42
00
00
00
00
ENDCHAR
STARTCHAR O
ENCODING 79
SWIDTH 333 0
DWIDTH 8 0
BBX 8 18 0 -4
BITMAP
18
18
24
24
42
42
42
42
42
42
24
24
18
18
00
00
00
00
ENDCHAR
STARTCHAR P
ENCODING 80
SWIDTH 333 0
DWIDTH 8 0
BBX 8 18 0 -4
BITMAP
7C
7C
22
22
22
22
3C
3C
20
20
20
20
70
70
00
00
00
00
ENDCHAR
STARTCHAR Q
ENCODING 81
SWIDTH 333 0
DWIDTH 8 0
BBX 8 18 0 -4
BITMAP
3C
3C
42
42
42
42
42
42
4A
4A
3C
3C
03
03
00
00
00
00
ENDCHAR
STARTCHAR R
ENCODING 82
SWIDTH 333 0
DWIDTH 8 0
BBX 8 18 0 -4
BITMAP
7C
7C
22
22
22
22
3C
3C
28
28
24
24
62
62
00
00
00
00
ENDCHAR
STARTCHAR S
ENCODING 83
SWIDTH 333 0
DWIDTH 8 0
BBX 8 18 0 -4
BITMAP
3C
3C
42
42
40
40
3C
3C
02
02
42
42
3C
3C
00
00
00
00
ENDCHAR
STARTCHAR T
ENCODING 84
SWIDTH 333 0
DWIDTH 8 0
BBX 8 18 0 -4
BITMAP
7F
7F
49
49
08
08
08
08
08
08
08
08
1C
1C
00
00
00
00
ENDCHAR
STARTCHAR U
ENCODING 85
SWIDTH 333 0
DWIDTH 8 0
BBX 8 18 0 -4
BITMAP
42
42
42
42
42
42
42
42
42
42
42
42
3C
3C
00
00
00
00
ENDCHAR
STARTCHAR V
ENCODING 86
SWIDTH 333 0
DWIDTH 8 0
BBX 8 18 0 -4
BITMAP
41
41
41
41
41
41
41
41
22
22
14
14
08
08
00
00
00
00
ENDCHAR
STARTCHAR W
ENCODING 87
SWIDTH 333 0
DWIDTH 8 0
BBX 8 18 0 -4
BITMAP
41
41
41
41
41
41
49
49
49
49
49
49
36
36
00
00
00
00
ENDCHAR
STARTCHAR X
ENCODING 88
SWIDTH 333 0
DWIDTH 8 0
BBX 8 18 0 -4
BITMAP
41
41
22
22
14
14
08
08
14
14
22
22
41
41
00
00
00
00
ENDCHAR
STARTCHAR Y
ENCODING 89
SWIDTH 333 0
DWIDTH 8 0
BBX 8 18 0 -4
BITMAP
41
41
22
22
14
14
08
08
08
08
08
08
1C
1C
00
00
00
00
ENDCHAR
STARTCHAR Z
ENCODING 90
SWIDTH 333 0
DWIDTH 8 0
BBX 8 18 0 -4
BITMAP
7F
7F
42
42
04
04
08
08
10
10
21
21
7F
7F
00
00
00
00
ENDCHAR
STARTCHAR bracketleft
ENCODING 91
SWIDTH 333 0
DWIDTH 8 0
BBX 8 18 0 -4
BITMAP
78
78
40
40
40
40
40
40
40
40
40
40
78
78
00
00
00
00
ENDCHAR
STARTCHAR backslash
ENCODING 92
SWIDTH 333 0
DWIDTH 8 0
BBX 8 18 0 -4
BITMAP
40
40
20
20
10
10
08
08
04
04
02
02
01
01
00
00
00
00
ENDCHAR
STARTCHAR bracketright
ENCODING 93
SWIDTH 333 0
DWIDTH 8 0
BBX 8 18 0 -4
BITMAP
1E
1E
02
02
02
02
02
02
02
02
02
02
1E
1E
00
00
00
00
ENDCHAR
STARTCHAR asciicircum
ENCODING 94
SWIDTH 333 0
DWIDTH 8 0
BBX 8 18 0 -4
BITMAP
08
08
14
14
22
22
41
41
00
00
00
00
00
00
00
00
00
00
ENDCHAR
STARTCHAR underscore
ENCODING 95
SWIDTH 333 0
DWIDTH 8 0
BBX 8 18 0 -4
BITMAP
00
00
00
00
00
00
00
00
00
00
00
00
00
00
FF
FF
00
00
ENDCHAR
STARTCHAR grave
ENCODING 96
SWIDTH 333 0
DWIDTH 8 0
BBX 8 18 0 -4
BITMAP
10
10
10
10
08
08
00
00
00
00
00
00
00
00
00
00
00
00
ENDCHAR
STARTCHAR a
ENCODING 97
SWIDTH 333 0
DWIDTH 8 0
BBX 8 18 0 -4
BITMAP
00
00
00
00
3C
3C
02
02
3E
3E
42
42
3D
3D
00
00
00
00
ENDCHAR
STARTCHAR b
ENCODING 98
SWIDTH 333 0
DWIDTH 8 0
BBX 8 18 0 -4
BITMAP
60
60
20
20
2E
2E
31
31
31
31
31
31
6E
6E
00
00
00
00
ENDCHAR
STARTCHAR c
ENCODING 99
SWIDTH 333 0
DWIDTH 8 0
BBX 8 18 0 -4
BITMAP
00
00
00
00
3C
3C
42
42
40
40
42
42
3C
3C
00
00
00
00
ENDCHAR
STARTCHAR d
ENCODING 100
SWIDTH 333 0
DWIDTH 8 0
BBX 8 18 0 -4
BITMAP
06
06
02
02
3A
3A
46
46
46
46
46
46
3B
3B
00
00
00
00
ENDCHAR
STARTCHAR e
ENCODING 101
SWIDTH 333 0
DWIDTH 8 0
BBX 8 18 0 -4
BITMAP
00
00
00
00
3C
3C
42
42
7E
7E
40
40
3C
3C
00
00
00
00
ENDCHAR
STARTCHAR f
ENCODING 102
SWIDTH 333 0
DWIDTH 8 0
BBX 8 18 0 -4
BITMAP
18
18
24
24
20
20
70
70
20
20
20
20
70
70
00
00
00
00
ENDCHAR
STARTCHAR g
ENCODING 103
SWIDTH 333 0
DWIDTH 8 0
BBX 8 18 0 -4
BITMAP
00
00
00
00
3D
3D
42
42
42
42
3E
3E
02
02
7C
7C
00
00
ENDCHAR
STARTCHAR h
ENCODING 104
SWIDTH 333 0
DWIDTH 8 0
BBX 8 18 0 -4
BITMAP
60
60
20
20
2C
2C
32
32
22
22
22
22
62
62
00
00
00
00
ENDCHAR
STARTCHAR i
ENCODING 105
SWIDTH 333 0
DWIDTH 8 0
BBX 8 18 0 -4
BITMAP
10
10
00
00
30
30
10
10
10
10
10
10
38
38
00
00
00
00
ENDCHAR
STARTCHAR j
ENCODING 106
SWIDTH 333 0
DWIDTH 8 0
BBX 8 18 0 -4
BITMAP
04
04
00
00
0C
0C
04
04
04
04
24
24
24
24
18
18
00
00
ENDCHAR
STARTCHAR k
ENCODING 107
SWIDTH 333 0
DWIDTH 8 0
BBX 8 18 0 -4
BITMAP
60
60
20
20
24
24
28
28
30
30
28
28
66
66
00
00
00
00
ENDCHAR
STARTCHAR l
ENCODING 108
SWIDTH 333 0
DWIDTH 8 0
BBX 8 18 0 -4
BITMAP
30
30
10
10
10
10
10
10
10
10
10
10
38
38
00
00
00
00
ENDCHAR
STARTCHAR m
ENCODING 109
SWIDTH 333 0
DWIDTH 8 0
BBX 8 18 0 -4
BITMAP
00
00
00
00
76
76
49
49
49
49
49
49
49
49
00
00
00
00
ENDCHAR
STARTCHAR n
ENCODING 110
SWIDTH 333 0
DWIDTH 8 0
BBX 8 18 0 -4
BITMAP
00
00
00
00
5C
5C
62
62
42
42
42
42
42
42
00
00
00
00
ENDCHAR
STARTCHAR o
ENCODING 111
SWIDTH 333 0
DWIDTH 8 0
BBX 8 18 0 -4
BITMAP
00
00
00
00
3C
3C
42
42
42
42
42
42
3C
3C
00
00
00
00
ENDCHAR
STARTCHAR p
ENCODING 112
SWIDTH 333 0
DWIDTH 8 0
BBX 8 18 0 -4
BITMAP
00
00
00
00
6E
6E
31
31
31
31
2E
2E
20
20
70
70
00
00
ENDCHAR
STARTCHAR q
ENCODING 113
SWIDTH 333 0
DWIDTH 8 0
BBX 8 18 0 -4
BITMAP
00
00
00
00
3B
3B
46
46
46
46
3A
3A
02
02
07
07
00
00
ENDCHAR
STARTCHAR r
ENCODING 114
SWIDTH 333 0
DWIDTH 8 0
BBX 8 18 0 -4
BITMAP
00
00
00
00
6C
6C
32
32
22
22
20
20
70
70
00
00
00
00
ENDCHAR
STARTCHAR s
ENCODING 115
SWIDTH 333 0
DWIDTH 8 0
BBX 8 18 0 -4
BITMAP
00
00
00
00
3E
3E
40
40
3C
3C
02
02
7C
7C
00
00
00
00
ENDCHAR
STARTCHAR t
ENCODING 116
SWIDTH 333 0
DWIDTH 8 0
BBX 8 18 0 -4
BITMAP
10
10
10
10
7C
7C
10
10
10
10
12
12
0C
0C
00
00
00
00
ENDCHAR
STARTCHAR u
ENCODING 117
SWIDTH 333 0
DWIDTH 8 0
BBX 8 18 0 -4
BITMAP
00
00
00
00
44
44
44
44
44
44
44
44
3A
3A
00
00
00
00
ENDCHAR
STARTCHAR v
ENCODING 118
SWIDTH 333 0
DWIDTH 8 0
BBX 8 18 0 -4
BITMAP
00
00
00
00
41
41
41
41
22
22
14
14
08
08
00
00
00
00
ENDCHAR
STARTCHAR w
ENCODING 119
SWIDTH 333 0
DWIDTH 8 0
BBX 8 18 0 -4
BITMAP
00
00
00
00
41
41
49
49
49
49
49
49
36
36
00
00
00
00
ENDCHAR
STARTCHAR x
ENCODING 120
SWIDTH 333 0
DWIDTH 8 0
BBX 8 18 0 -4
BITMAP
00
00
00
00
44
44
28
28
10
10
28
28
44
44
00
00
00
00
ENDCHAR
STARTCHAR y
ENCODING 121
SWIDTH 333 0
DWIDTH 8 0
BBX 8 18 0 -4
BITMAP
00
00
00
00
42
42
42
42
42
42
3E
3E
02
02
7C
7C
00
00
ENDCHAR
STARTCHAR z
ENCODING 122
SWIDTH 333 0
DWIDTH 8 0
BBX 8 18 0 -4
BITMAP
00
00
00
00
7C
7C
08
08
10
10
20
20
7C
7C
00
00
00
00
ENDCHAR
STARTCHAR braceleft
ENCODING 123
SWIDTH 333 0
DWIDTH 8 0
BBX 8 18 0 -4
BITMAP
0C
0C
10
10
10
10
60
60
10
10
10
10
0C
0C
00
00
00
00
ENDCHAR
STARTCHAR bar
ENCODING 124
SWIDTH 333 0
DWIDTH 8 0
BBX 8 18 0 -4
BITMAP
10
10
10
10
10
10
00
00
10
10
10
10
10
10
00
00
00
00
ENDCHAR
STARTCHAR braceright
ENCODING 125
SWIDTH 333 0
DWIDTH 8 0
BBX 8 18 0 -4
BITMAP
30
30
08
08
08
08
06
06
08
08
08
08
30
30
00
00
00
00
ENDCHAR
STARTCHAR asciitilde
ENCODING 126
SWIDTH 333 0
DWIDTH 8 0
BBX 8 18 0 -4
BITMAP
32
32
4C
4C
00
00
00
00
00
00
00
00
00
00
00
00
00
00
ENDCHAR
STARTCHAR uni007F
ENCODING 127
SWIDTH 333 0
DWIDTH 8 0
BBX 8 18 0 -4
BITMAP
00
00
08
08
14
14
22
22
41
41
41
41
7F
7F
00
00
00
00
ENDCHAR
STARTCHAR uni00A0
ENCODING 160
SWIDTH 333 0
DWIDTH 8 0
BBX 8 18 0 -4
BITMAP
00
00
00
00
00
00
00
00
00
00
00
00
00
00
00
00
00
00
ENDCHAR
STARTCHAR exclamdown
ENCODING 161
SWIDTH 333 0
DWIDTH 8 0
BBX 8 18 0 -4
BITMAP
10
10
00
00
10
10
10
10
38
38
38
38
10
10
00
00
00
00
ENDCHAR
STARTCHAR cent
ENCODING 162
SWIDTH 333 0
DWIDTH 8 0
BBX 8 18 0 -4
BITMAP
08
08
08
08
3E
3E
40
40
40
40
3E
3E
08
08
08
08
00
00
ENDCHAR
STARTCHAR sterling
ENCODING 163
SWIDTH 333 0
DWIDTH 8 0
BBX 8 18 0 -4
BITMAP
18
18
24
24
20
20
70
70
20
20
42
42
7C
7C
00
00
00
00
ENDCHAR
STARTCHAR yen
ENCODING 165
SWIDTH 333 0
DWIDTH 8 0
BBX 8 18 0 -4
BITMAP
44
44
28
28
10
10
7C
7C
10
10
7C
7C
10
10
00
00
00
00
ENDCHAR
STARTCHAR section
ENCODING 167
SWIDTH 333 0
DWIDTH 8 0
BBX 8 18 0 -4
BITMAP
3E
3E
43
43
58
58
24
24
24
24
18
18
C4
C4
78
78
00
00
ENDCHAR
STARTCHAR ordfeminine
ENCODING 170
SWIDTH 333 0
DWIDTH 8 0
BBX 8 18 0 -4
BITMAP
18
18
28
28
28
28
1C
1C
00
00
3C
3C
00
00
00
00
00
00
ENDCHAR
STARTCHAR guillemotleft
ENCODING 171
SWIDTH 333 0
DWIDTH 8 0
BBX 8 18 0 -4
BITMAP
00
00
12
12
24
24
48
48
24
24
12
12
00
00
00
00
00
00
ENDCHAR
STARTCHAR logicalnot
ENCODING 172
SWIDTH 333 0
DWIDTH 8 0
BBX 8 18 0 -4
BITMAP
00
00
00
00
00
00
7E
7E
02
02
02
02
00
00
00
00
00
00
ENDCHAR
STARTCHAR degree
ENCODING 176
SWIDTH 333 0
DWIDTH 8 0
BBX 8 18 0 -4
BITMAP
30
30
48
48
48
48
30
30
00
00
00
00
00
00
00
00
00
00
ENDCHAR
STARTCHAR plusminus
ENCODING 177
SWIDTH 333 0
DWIDTH 8 0
BBX 8 18 0 -4
BITMAP
10
10
10
10
7C
7C
10
10
10
10
00
00
7C
7C
00
00
00
00
ENDCHAR
STARTCHAR uni00B2
ENCODING 178
SWIDTH 333 0
DWIDTH 8 0
BBX 8 18 0 -4
BITMAP
30
30
48
48
10
10
20
20
78
78
00
00
00
00
00
00
00
00
ENDCHAR
STARTCHAR mu
ENCODING 181
SWIDTH 333 0
DWIDTH 8 0
BBX 8 18 0 -4
BITMAP
00
00
44
44
44
44
44
44
7A
7A
40
40
40
40
80
80
00
00
ENDCHAR
STARTCHAR paragraph
ENCODING 182
SWIDTH 333 0
DWIDTH 8 0
BBX 8 18 0 -4
BITMAP
7F
7F
92
92
92
92
72
72
12
12
12
12
12
12
00
00
00
00
ENDCHAR
STARTCHAR periodcentered
ENCODING 183
SWIDTH 333 0
DWIDTH 8 0
BBX 8 18 0 -4
BITMAP
00
00
00
00
00
00
00
00
18
18
00
00
00
00
00
00
00
00
ENDCHAR
STARTCHAR ordmasculine
ENCODING 186
SWIDTH 333 0
DWIDTH 8 0
BBX 8 18 0 -4
BITMAP
18
18
24
24
24
24
18
18
00
00
3C
3C
00
00
00
00
00
00
ENDCHAR
STARTCHAR guillemotright
ENCODING 187
SWIDTH 333 0
DWIDTH 8 0
BBX 8 18 0 -4
BITMAP
00
00
48
48
24
24
12
12
24
24
48
48
00
00
00
00
00
00
ENDCHAR
STARTCHAR onequarter
ENCODING 188
SWIDTH 333 0
DWIDTH 8 0
BBX 8 18 0 -4
BITMAP
42
42
C4
C4
4A
4A
F6
F6
2A
2A
5F
5F
82
82
02
02
00
00
ENDCHAR
STARTCHAR onehalf
ENCODING 189
SWIDTH 333 0
DWIDTH 8 0
BBX 8 18 0 -4
BITMAP
42
42
C4
C4
48
48
F6
F6
29
29
42
42
84
84
0F
0F
00
00
ENDCHAR
STARTCHAR questiondown
ENCODING 191
SWIDTH 333 0
DWIDTH 8 0
BBX 8 18 0 -4
BITMAP
08
08
00
00
08
08
08
08
30
30
40
40
42
42
3C
3C
00
00
ENDCHAR
STARTCHAR Adieresis
ENCODING 196
SWIDTH 333 0
DWIDTH 8 0
BBX 8 18 0 -4
BITMAP
42
42
00
00
18
18
24
24
42
42
7E
7E
42
42
42
42
00
00
ENDCHAR
STARTCHAR Aring
ENCODING 197
SWIDTH 333 0
DWIDTH 8 0
BBX 8 18 0 -4
BITMAP
18
18
00
00
18
18
24
24
42
42
7E
7E
42
42
42
42
00
00
ENDCHAR
STARTCHAR AE
ENCODING 198
SWIDTH 333 0
DWIDTH 8 0
BBX 8 18 0 -4
BITMAP
00
00
1E
1E
28
28
48
48
7E
7E
48
48
48
48
4E
4E
00
00
ENDCHAR
STARTCHAR Ccedilla
ENCODING 199
SWIDTH 333 0
DWIDTH 8 0
BBX 8 18 0 -4
BITMAP
3C
3C
42
42
40
40
42
42
3C
3C
0C
0C
02
02
3C
3C
00
00
ENDCHAR
STARTCHAR Eacute
ENCODING 201
SWIDTH 333 0
DWIDTH 8 0
BBX 8 18 0 -4
BITMAP
0C
0C
30
30
00
00
7C
7C
20
20
38
38
20
20
7C
7C
00
00
ENDCHAR
STARTCHAR Ntilde
ENCODING 209
SWIDTH 333 0
DWIDTH 8 0
BBX 8 18 0 -4
BITMAP
32
32
4C
4C
00
00
62
62
52
52
4A
4A
46
46
42
42
00
00
ENDCHAR
STARTCHAR Odieresis
ENCODING 214
SWIDTH 333 0
DWIDTH 8 0
BBX 8 18 0 -4
BITMAP
42
42
18
18
24
24
42
42
42
42
42
42
24
24
18
18
00
00
ENDCHAR
STARTCHAR Udieresis
ENCODING 220
SWIDTH 333 0
DWIDTH 8 0
BBX 8 18 0 -4
BITMAP
42
42
00
00
42
42
42
42
42
42
42
42
42
42
3C
3C
00
00
ENDCHAR
STARTCHAR germandbls
ENCODING 223
SWIDTH 333 0
DWIDTH 8 0
BBX 8 18 0 -4
BITMAP
00
00
3C
3C
42
42
7C
7C
42
42
7C
7C
40
40
40
40
00
00
ENDCHAR
STARTCHAR agrave
ENCODING 224
SWIDTH 333 0
DWIDTH 8 0
BBX 8 18 0 -4
BITMAP
30
30
0C
0C
00
00
38
38
04
04
3C
3C
44
44
3A
3A
00
00
ENDCHAR
STARTCHAR aacute
ENCODING 225
SWIDTH 333 0
DWIDTH 8 0
BBX 8 18 0 -4
BITMAP
0C
0C
30
30
00
00
38
38
04
04
3C
3C
44
44
3A
3A
00
00
ENDCHAR
STARTCHAR acircumflex
ENCODING 226
SWIDTH 333 0
DWIDTH 8 0
BBX 8 18 0 -4
BITMAP
18
18
24
24
00
00
38
38
04
04
3C
3C
44
44
3A
3A
00
00
ENDCHAR
STARTCHAR adieresis
ENCODING 228
SWIDTH 333 0
DWIDTH 8 0
BBX 8 18 0 -4
BITMAP
00
00
24
24
00
00
38
38
04
04
3C
3C
44
44
3A
3A
00
00
ENDCHAR
STARTCHAR aring
ENCODING 229
SWIDTH 333 0
DWIDTH 8 0
BBX 8 18 0 -4
BITMAP
00
00
18
18
00
00
38
38
04
04
3C
3C
44
44
3A
3A
00
00
ENDCHAR
STARTCHAR ae
ENCODING 230
SWIDTH 333 0
DWIDTH 8 0
BBX 8 18 0 -4
BITMAP
00
00
00
00
00
00
36
36
09
09
7F
7F
4C
4C
3B
3B
00
00
ENDCHAR
STARTCHAR ccedilla
ENCODING 231
SWIDTH 333 0
DWIDTH 8 0
BBX 8 18 0 -4
BITMAP
00
00
00
00
3C
3C
40
40
40
40
3C
3C
08
08
10
10
00
00
ENDCHAR
STARTCHAR egrave
ENCODING 232
SWIDTH 333 0
DWIDTH 8 0
BBX 8 18 0 -4
BITMAP
30
30
0C
0C
00
00
3C
3C
42
42
7E
7E
40
40
3C
3C
00
00
ENDCHAR
STARTCHAR eacute
ENCODING 233
SWIDTH 333 0
DWIDTH 8 0
BBX 8 18 0 -4
BITMAP
0C
0C
30
30
00
00
3C
3C
42
42
7E
7E
40
40
3C
3C
00
00
ENDCHAR
STARTCHAR ecircumflex
ENCODING 234
SWIDTH 333 0
DWIDTH 8 0
BBX 8 18 0 -4
BITMAP
18
18
24
24
00
00
3C
3C
42
42
7E
7E
40
40
3C
3C
00
00
ENDCHAR
STARTCHAR edieresis
ENCODING 235
SWIDTH 333 0
DWIDTH 8 0
BBX 8 18 0 -4
BITMAP
00
00
24
24
00
00
3C
3C
42
42
7E
7E
40
40
3C
3C
00
00
ENDCHAR
STARTCHAR igrave
ENCODING 236
SWIDTH 333 0
DWIDTH 8 0
BBX 8 18 0 -4
BITMAP
30
30
0C
0C
00
00
18
18
08
08
08
08
08
08
1C
1C
00
00
ENDCHAR
STARTCHAR iacute
ENCODING 237
SWIDTH 333 0
DWIDTH 8 0
BBX 8 18 0 -4
BITMAP
0C
0C
30
30
00
00
18
18
08
08
08
08
08
08
1C
1C
00
00
ENDCHAR
STARTCHAR icircumflex
ENCODING 238
SWIDTH 333 0
DWIDTH 8 0
BBX 8 18 0 -4
BITMAP
18
18
24
24
00
00
18
18
08
08
08
08
08
08
1C
1C
00
00
ENDCHAR
STARTCHAR idieresis
ENCODING 239
SWIDTH 333 0
DWIDTH 8 0
BBX 8 18 0 -4
BITMAP
00
00
24
24
00
00
18
18
08
08
08
08
08
08
1C
1C
00
00
ENDCHAR
STARTCHAR ntilde
ENCODING 241
SWIDTH 333 0
DWIDTH 8 0
BBX 8 18 0 -4
BITMAP
00
00
32
32
4C
4C
00
00
7C
7C
42
42
42
42
42
42
00
00
ENDCHAR
STARTCHAR ograve
ENCODING 242
SWIDTH 333 0
DWIDTH 8 0
BBX 8 18 0 -4
BITMAP
30
30
0C
0C
00
00
3C
3C
42
42
42
42
42
42
3C
3C
00
00
ENDCHAR
STARTCHAR oacute
ENCODING 243
SWIDTH 333 0
DWIDTH 8 0
BBX 8 18 0 -4
BITMAP
0C
0C
30
30
00
00
3C
3C
42
42
42
42
42
42
3C
3C
00
00
ENDCHAR
STARTCHAR ocircumflex
ENCODING 244
SWIDTH 333 0
DWIDTH 8 0
BBX 8 18 0 -4
BITMAP
18
18
24
24
00
00
3C
3C
42
42
42
42
42
42
3C
3C
00
00
ENDCHAR
STARTCHAR odieresis
ENCODING 246
SWIDTH 333 0
DWIDTH 8 0
BBX 8 18 0 -4
BITMAP
00
00
42
42
00
00
3C
3C
42
42
42
42
42
42
3C
3C
00
00
ENDCHAR
STARTCHAR divide
ENCODING 247
SWIDTH 333 0
DWIDTH 8 0
BBX 8 18 0 -4
BITMAP
18
18
18
18
00
00
7E
7E
00
00
18
18
18
18
00
00
00
00
ENDCHAR
STARTCHAR ugrave
ENCODING 249
SWIDTH 333 0
DWIDTH 8 0
BBX 8 18 0 -4
BITMAP
30
30
0C
0C
00
00
44
44
44
44
44
44
44
44
3A
3A
00
00
ENDCHAR
STARTCHAR uacute
ENCODING 250
SWIDTH 333 0
DWIDTH 8 0
BBX 8 18 0 -4
BITMAP
0C
0C
30
30
00
00
44
44
44
44
44
44
44
44
3A
3A
00
00
ENDCHAR
STARTCHAR ucircumflex
ENCODING 251
SWIDTH 333 0
DWIDTH 8 0
BBX 8 18 0 -4
BITMAP
18
18
24
24
00
00
44
44
44
44
44
44
44
44
3A
3A
00
00
ENDCHAR
STARTCHAR udieresis
ENCODING 252
SWIDTH 333 0
DWIDTH 8 0
BBX 8 18 0 -4
BITMAP
00
00
44
44
00
00
44
44
44
44
44
44
44
44
3A
3A
00
00
ENDCHAR
STARTCHAR ydieresis
ENCODING 255
SWIDTH 333 0
DWIDTH 8 0
BBX 8 18 0 -4
BITMAP
00
00
42
42
00
00
42
42
42
42
3E
3E
02
02
3C
3C
00
00
ENDCHAR
STARTCHAR florin
ENCODING 402
SWIDTH 333 0
DWIDTH 8 0
BBX 8 18 0 -4
BITMAP
06
06
09
09
08
08
1C
1C
08
08
08
08
48
48
30
30
00
00
ENDCHAR
STARTCHAR Gamma
ENCODING 915
SWIDTH 333 0
DWIDTH 8 0
BBX 8 18 0 -4
BITMAP
00
00
7E
7E
42
42
40
40
40
40
40
40
40
40
00
00
00
00
ENDCHAR
STARTCHAR Theta
ENCODING 920
SWIDTH 333 0
DWIDTH 8 0
BBX 8 18 0 -4
BITMAP
18
18
24
24
42
42
7E
7E
42
42
24
24
18
18
00
00
00
00
ENDCHAR
STARTCHAR Sigma
ENCODING 931
SWIDTH 333 0
DWIDTH 8 0
BBX 8 18 0 -4
BITMAP
7E
7E
42
42
20
20
18
18
20
20
42
42
7E
7E
00
00
00
00
ENDCHAR
STARTCHAR Phi
ENCODING 934
SWIDTH 333 0
DWIDTH 8 0
BBX 8 18 0 -4
BITMAP
7C
7C
10
10
38
38
44
44
44
44
38
38
10
10
7C
7C
00
00
ENDCHAR
STARTCHAR uni03A9
ENCODING 937
SWIDTH 333 0
DWIDTH 8 0
BBX 8 18 0 -4
BITMAP
18
18
24
24
42
42
42
42
24
24
24
24
66
66
00
00
00
00
ENDCHAR
STARTCHAR alpha
ENCODING 945
SWIDTH 333 0
DWIDTH 8 0
BBX 8 18 0 -4
BITMAP
00
00
00
00
31
31
4A
4A
44
44
4A
4A
31
31
00
00
00
00
ENDCHAR
STARTCHAR delta
ENCODING 948
SWIDTH 333 0
DWIDTH 8 0
BBX 8 18 0 -4
BITMAP
1C
1C
20
20
18
18
3C
3C
42
42
42
42
3C
3C
00
00
00
00
ENDCHAR
STARTCHAR epsilon
ENCODING 949
SWIDTH 333 0
DWIDTH 8 0
BBX 8 18 0 -4
BITMAP
0C
0C
10
10
20
20
3C
3C
20
20
10
10
0C
0C
00
00
00
00
ENDCHAR
STARTCHAR pi
ENCODING 960
SWIDTH 333 0
DWIDTH 8 0
BBX 8 18 0 -4
BITMAP
00
00
3F
3F
54
54
14
14
14
14
14
14
14
14
00
00
00
00
ENDCHAR
STARTCHAR sigma
ENCODING 963
SWIDTH 333 0
DWIDTH 8 0
BBX 8 18 0 -4
BITMAP
00
00
00
00
3E
3E
48
48
48
48
48
48
30
30
00
00
00
00
ENDCHAR
STARTCHAR tau
ENCODING 964
SWIDTH 333 0
DWIDTH 8 0
BBX 8 18 0 -4
BITMAP
00
00
33
33
4C
4C
08
08
08
08
08
08
08
08
00
00
00
00
ENDCHAR
STARTCHAR phi
ENCODING 966
SWIDTH 333 0
DWIDTH 8 0
BBX 8 18 0 -4
BITMAP
01
01
02
02
3C
3C
4A
4A
52
52
3C
3C
40
40
80
80
00
00
ENDCHAR
STARTCHAR bullet
ENCODING 8226
SWIDTH 333 0
DWIDTH 8 0
BBX 8 18 0 -4
BITMAP
00
00
00
00
18
18
3C
3C
3C
3C
18
18
00
00
00
00
00
00
ENDCHAR
STARTCHAR exclamdbl
ENCODING 8252
SWIDTH 333 0
DWIDTH 8 0
BBX 8 18 0 -4
BITMAP
24
24
24
24
24
24
24
24
24
24
00
00
24
24
00
00
00
00
ENDCHAR
STARTCHAR uni207F
ENCODING 8319
SWIDTH 333 0
DWIDTH 8 0
BBX 8 18 0 -4
BITMAP
78
78
44
44
44
44
44
44
44
44
00
00
00
00
00
00
00
00
ENDCHAR
STARTCHAR peseta
ENCODING 8359
SWIDTH 333 0
DWIDTH 8 0
BBX 8 18 0 -4
BITMAP
7C
7C
26
26
26
26
3C
3C
22
22
27
27
22
22
73
73
00
00
ENDCHAR
STARTCHAR arrowleft
ENCODING 8592
SWIDTH 333 0
DWIDTH 8 0
BBX 8 18 0 -4
BITMAP
00
00
20
20
60
60
FF
FF
60
60
20
20
00
00
00
00
00
00
ENDCHAR
STARTCHAR arrowup
ENCODING 8593
SWIDTH 333 0
DWIDTH 8 0
BBX 8 18 0 -4
BITMAP
10
10
38
38
7C
7C
10
10
10
10
10
10
10
10
10
10
00
00
ENDCHAR
STARTCHAR arrowright
ENCODING 8594
SWIDTH 333 0
DWIDTH 8 0
BBX 8 18 0 -4
BITMAP
00
00
04
04
06
06
FF
FF
06
06
04
04
00
00
00
00
00
00
ENDCHAR
STARTCHAR arrowdown
ENCODING 8595
SWIDTH 333 0
DWIDTH 8 0
BBX 8 18 0 -4
BITMAP
10
10
10
10
10
10
10
10
10
10
7C
7C
38
38
10
10
00
00
ENDCHAR
STARTCHAR arrowboth
ENCODING 8596
SWIDTH 333 0
DWIDTH 8 0
BBX 8 18 0 -4
BITMAP
00
00
24
24
66
66
FF
FF
66
66
24
24
00
00
00
00
00
00
ENDCHAR
STARTCHAR arrowupdn
ENCODING 8597
SWIDTH 333 0
DWIDTH 8 0
BBX 8 18 0 -4
BITMAP
10
10
38
38
7C
7C
10
10
10
10
7C
7C
38
38
10
10
00
00
ENDCHAR
STARTCHAR arrowupdnbse
ENCODING 8616
SWIDTH 333 0
DWIDTH 8 0
BBX 8 18 0 -4
BITMAP
10
10
38
38
7C
7C
10
10
7C
7C
38
38
10
10
FE
FE
00
00
ENDCHAR
STARTCHAR uni2219
ENCODING 8729
SWIDTH 333 0
DWIDTH 8 0
BBX 8 18 0 -4
BITMAP
00
00
00
00
00
00
18
18
18
18
00
00
00
00
00
00
00
00
ENDCHAR
STARTCHAR radical
ENCODING 8730
SWIDTH 333 0
DWIDTH 8 0
BBX 8 18 0 -4
BITMAP
0F
0F
08
08
08
08
08
08
08
08
C8
C8
28
28
18
18
00
00
ENDCHAR
STARTCHAR infinity
ENCODING 8734
SWIDTH 333 0
DWIDTH 8 0
BBX 8 18 0 -4
BITMAP
00
00
66
66
99
99
99
99
99
99
6E
6E
00
00
00
00
00
00
ENDCHAR
STARTCHAR orthogonal
ENCODING 8735
SWIDTH 333 0
DWIDTH 8 0
BBX 8 18 0 -4
BITMAP
00
00
00
00
40
40
40
40
40
40
7E
7E
00
00
00
00
00
00
ENDCHAR
STARTCHAR intersection
ENCODING 8745
SWIDTH 333 0
DWIDTH 8 0
BBX 8 18 0 -4
BITMAP
3C
3C
42
42
42
42
42
42
42
42
42
42
42
42
00
00
00
00
ENDCHAR
STARTCHAR approxequal
ENCODING 8776
SWIDTH 333 0
DWIDTH 8 0
BBX 8 18 0 -4
BITMAP
00
00
32
32
4C
4C
00
00
32
32
4C
4C
00
00
00
00
00
00
ENDCHAR
STARTCHAR equivalence
ENCODING 8801
SWIDTH 333 0
DWIDTH 8 0
BBX 8 18 0 -4
BITMAP
00
00
7E
7E
00
00
7E
7E
00
00
7E
7E
00
00
00
00
00
00
ENDCHAR
STARTCHAR lessequal
ENCODING 8804
SWIDTH 333 0
DWIDTH 8 0
BBX 8 18 0 -4
BITMAP
08
08
10
10
20
20
10
10
08
08
00
00
7E
7E
00
00
00
00
ENDCHAR
STARTCHAR greaterequal
ENCODING 8805
SWIDTH 333 0
DWIDTH 8 0
BBX 8 18 0 -4
BITMAP
10
10
08
08
04
04
08
08
10
10
00
00
7E
7E
00
00
00
00
ENDCHAR
STARTCHAR house
ENCODING 8962
SWIDTH 333 0
DWIDTH 8 0
BBX 8 18 0 -4
BITMAP
00
00
08
08
14
14
22
22
41
41
41
41
7F
7F
00
00
00
00
ENDCHAR
STARTCHAR revlogicalnot
ENCODING 8976
SWIDTH 333 0
DWIDTH 8 0
BBX 8 18 0 -4
BITMAP
00
00
00
00
00
00
7E
7E
40
40
40
40
00
00
00
00
00
00
ENDCHAR
STARTCHAR integraltp
ENCODING 8992
SWIDTH 333 0
DWIDTH 8 0
BBX 8 18 0 -4
BITMAP
0C
0C
12
12
12
12
10
10
10
10
10
10
10
10
10
10
10
10
ENDCHAR
STARTCHAR integralbt
ENCODING 8993
SWIDTH 333 0
DWIDTH 8 0
BBX 8 18 0 -4
BITMAP
10
10
10
10
10
10
10
10
10
10
90
90
90
90
60
60
00
00
ENDCHAR
STARTCHAR SF100000
ENCODING 9472
SWIDTH 333 0
DWIDTH 8 0
BBX 8 18 0 -4
BITMAP
00
00
00
00
00
00
00
00
FF
FF
00
00
00
00
00
00
00
00
ENDCHAR
STARTCHAR SF110000
ENCODING 9474
SWIDTH 333 0
DWIDTH 8 0
BBX 8 18 0 -4
BITMAP
10
10
10
10
10
10
10
10
10
10
10
10
10
10
10
10
10
10
ENDCHAR
STARTCHAR SF010000
ENCODING 9484
SWIDTH 333 0
DWIDTH 8 0
BBX 8 18 0 -4
BITMAP
00
00
00
00
00
00
00
00
1F
1F
10
10
10
10
10
10
10
10
ENDCHAR
STARTCHAR SF030000
ENCODING 9488
SWIDTH 333 0
DWIDTH 8 0
BBX 8 18 0 -4
BITMAP
00
00
00
00
00
00
00
00
F0
F0
10
10
10
10
10
10
10
10
ENDCHAR
STARTCHAR SF020000
ENCODING 9492
SWIDTH 333 0
DWIDTH 8 0
BBX 8 18 0 -4
BITMAP
10
10
10
10
10
10
10
10
1F
1F
00
00
00
00
00
00
00
00
ENDCHAR
STARTCHAR SF040000
ENCODING 9496
SWIDTH 333 0
DWIDTH 8 0
BBX 8 18 0 -4
BITMAP
10
10
10
10
10
10
10
10
F0
F0
00
00
00
00
00
00
00
00
ENDCHAR
STARTCHAR SF080000
ENCODING 9500
SWIDTH 333 0
DWIDTH 8 0
BBX 8 18 0 -4
BITMAP
10
10
10
10
10
10
10
10
1F
1F
10
10
10
10
10
10
10
10
ENDCHAR
STARTCHAR SF090000
ENCODING 9508
SWIDTH 333 0
DWIDTH 8 0
BBX 8 18 0 -4
BITMAP
10
10
10
10
10
10
10
10
F0
F0
10
10
10
10
10
10
10
10
ENDCHAR
STARTCHAR SF060000
ENCODING 9516
SWIDTH 333 0
DWIDTH 8 0
BBX 8 18 0 -4
BITMAP
00
00
00
00
00
00
00
00
FF
FF
10
10
10
10
10
10
10
10
ENDCHAR
STARTCHAR SF070000
ENCODING 9524
SWIDTH 333 0
DWIDTH 8 0
BBX 8 18 0 -4
BITMAP
10
10
10
10
10
10
10
10
FF
FF
00
00
00
00
00
00
00
00
ENDCHAR
STARTCHAR SF050000
ENCODING 9532
SWIDTH 333 0
DWIDTH 8 0
BBX 8 18 0 -4
BITMAP
10
10
10
10
10
10
10
10
FF
FF
10
10
10
10
10
10
10
10
ENDCHAR
STARTCHAR SF430000
ENCODING 9552
SWIDTH 333 0
DWIDTH 8 0
BBX 8 18 0 -4
BITMAP
00
00
00
00
FF
FF
00
00
FF
FF
00
00
00
00
00
00
00
00
ENDCHAR
STARTCHAR SF240000
ENCODING 9553
SWIDTH 333 0
DWIDTH 8 0
BBX 8 18 0 -4
BITMAP
14
14
14
14
14
14
14
14
14
14
14
14
14
14
14
14
14
14
ENDCHAR
STARTCHAR SF510000
ENCODING 9554
SWIDTH 333 0
DWIDTH 8 0
BBX 8 18 0 -4
BITMAP
00
00
00
00
1F
1F
10
10
1F
1F
10
10
10
10
10
10
10
10
ENDCHAR
STARTCHAR SF520000
ENCODING 9555
SWIDTH 333 0
DWIDTH 8 0
BBX 8 18 0 -4
BITMAP
00
00
00
00
00
00
00
00
1F
1F
14
14
14
14
14
14
14
14
ENDCHAR
STARTCHAR SF390000
ENCODING 9556
SWIDTH 333 0
DWIDTH 8 0
BBX 8 18 0 -4
BITMAP
00
00
00
00
1F
1F
10
10
17
17
14
14
14
14
14
14
14
14
ENDCHAR
STARTCHAR SF220000
ENCODING 9557
SWIDTH 333 0
DWIDTH 8 0
BBX 8 18 0 -4
BITMAP
00
00
00
00
F0
F0
10
10
F0
F0
10
10
10
10
10
10
10
10
ENDCHAR
STARTCHAR SF210000
ENCODING 9558
SWIDTH 333 0
DWIDTH 8 0
BBX 8 18 0 -4
BITMAP
00
00
00
00
00
00
00
00
FC
FC
14
14
14
14
14
14
14
14
ENDCHAR
STARTCHAR SF250000
ENCODING 9559
SWIDTH 333 0
DWIDTH 8 0
BBX 8 18 0 -4
BITMAP
00
00
00
00
FC
FC
04
04
F4
F4
14
14
14
14
14
14
14
14
ENDCHAR
STARTCHAR SF500000
ENCODING 9560
SWIDTH 333 0
DWIDTH 8 0
BBX 8 18 0 -4
BITMAP
10
10
10
10
1F
1F
10
10
1F
1F
00
00
00
00
00
00
00
00
ENDCHAR
STARTCHAR SF490000
ENCODING 9561
SWIDTH 333 0
DWIDTH 8 0
BBX 8 18 0 -4
BITMAP
14
14
14
14
14
14
14
14
1F
1F
00
00
00
00
00
00
00
00
ENDCHAR
STARTCHAR SF380000
ENCODING 9562
SWIDTH 333 0
DWIDTH 8 0
BBX 8 18 0 -4
BITMAP
14
14
14
14
17
17
10
10
1F
1F
00
00
00
00
00
00
00
00
ENDCHAR
STARTCHAR SF280000
ENCODING 9563
SWIDTH 333 0
DWIDTH 8 0
BBX 8 18 0 -4
BITMAP
10
10
10
10
F0
F0
10
10
F0
F0
00
00
00
00
00
00
00
00
ENDCHAR
STARTCHAR SF270000
ENCODING 9564
SWIDTH 333 0
DWIDTH 8 0
BBX 8 18 0 -4
BITMAP
14
14
14
14
14
14
14
14
FC
FC
00
00
00
00
00
00
00
00
ENDCHAR
STARTCHAR SF260000
ENCODING 9565
SWIDTH 333 0
DWIDTH 8 0
BBX 8 18 0 -4
BITMAP
14
14
14
14
F4
F4
04
04
FC
FC
00
00
00
00
00
00
00
00
ENDCHAR
STARTCHAR SF360000
ENCODING 9566
SWIDTH 333 0
DWIDTH 8 0
BBX 8 18 0 -4
BITMAP
10
10
10
10
1F
1F
10
10
1F
1F
10
10
10
10
10
10
10
10
ENDCHAR
STARTCHAR SF370000
ENCODING 9567
SWIDTH 333 0
DWIDTH 8 0
BBX 8 18 0 -4
BITMAP
14
14
14
14
14
14
14
14
17
17
14
14
14
14
14
14
14
14
ENDCHAR
STARTCHAR SF420000
ENCODING 9568
SWIDTH 333 0
DWIDTH 8 0
BBX 8 18 0 -4
BITMAP
14
14
14
14
17
17
10
10
17
17
14
14
14
14
14
14
14
14
ENDCHAR
STARTCHAR SF190000
ENCODING 9569
SWIDTH 333 0
DWIDTH 8 0
BBX 8 18 0 -4
BITMAP
10
10
10
10
F0
F0
10
10
F0
F0
10
10
10
10
10
10
10
10
ENDCHAR
STARTCHAR SF200000
ENCODING 9570
SWIDTH 333 0
DWIDTH 8 0
BBX 8 18 0 -4
BITMAP
14
14
14
14
14
14
14
14
F4
F4
14
14
14
14
14
14
14
14
ENDCHAR
STARTCHAR SF230000
ENCODING 9571
SWIDTH 333 0
DWIDTH 8 0
BBX 8 18 0 -4
BITMAP
14
14
14
14
F4
F4
04
04
F4
F4
14
14
14
14
14
14
14
14
ENDCHAR
STARTCHAR SF470000
ENCODING 9572
SWIDTH 333 0
DWIDTH 8 0
BBX 8 18 0 -4
BITMAP
00
00
00
00
FF
FF
00
00
FF
FF
10
10
10
10
10
10
10
10
ENDCHAR
STARTCHAR SF480000
ENCODING 9573
SWIDTH 333 0
DWIDTH 8 0
BBX 8 18 0 -4
BITMAP
00
00
00
00
00
00
00
00
FF
FF
14
14
14
14
14
14
14
14
ENDCHAR
STARTCHAR SF410000
ENCODING 9574
SWIDTH 333 0
DWIDTH 8 0
BBX 8 18 0 -4
BITMAP
00
00
00
00
FF
FF
00
00
F7
F7
14
14
14
14
14
14
14
14
ENDCHAR
STARTCHAR SF450000
ENCODING 9575
SWIDTH 333 0
DWIDTH 8 0
BBX 8 18 0 -4
BITMAP
10
10
10
10
FF
FF
00
00
FF
FF
00
00
00
00
00
00
00
00
ENDCHAR
STARTCHAR SF460000
ENCODING 9576
SWIDTH 333 0
DWIDTH 8 0
BBX 8 18 0 -4
BITMAP
14
14
14
14
14
14
14
14
FF
FF
00
00
00
00
00
00
00
00
ENDCHAR
STARTCHAR SF400000
ENCODING 9577
SWIDTH 333 0
DWIDTH 8 0
BBX 8 18 0 -4
BITMAP
14
14
14
14
F7
F7
00
00
FF
FF
00
00
00
00
00
00
00
00
ENDCHAR
STARTCHAR SF540000
ENCODING 9578
SWIDTH 333 0
DWIDTH 8 0
BBX 8 18 0 -4
BITMAP
10
10
10
10
FF
FF
10
10
FF
FF
10
10
10
10
10
10
10
10
ENDCHAR
STARTCHAR SF530000
ENCODING 9579
SWIDTH 333 0
DWIDTH 8 0
BBX 8 18 0 -4
BITMAP
14
14
14
14
14
14
14
14
FF
FF
14
14
14
14
14
14
14
14
ENDCHAR
STARTCHAR SF440000
ENCODING 9580
SWIDTH 333 0
DWIDTH 8 0
BBX 8 18 0 -4
BITMAP
14
14
14
14
F7
F7
00
00
F7
F7
14
14
14
14
14
14
14
14
ENDCHAR
STARTCHAR upblock
ENCODING 9600
SWIDTH 333 0
DWIDTH 8 0
BBX 8 18 0 -4
BITMAP
FF
FF
FF
FF
FF
FF
FF
FF
00
00
00
00
00
00
00
00
00
00
ENDCHAR
STARTCHAR dnblock
ENCODING 9604
SWIDTH 333 0
DWIDTH 8 0
BBX 8 18 0 -4
BITMAP
00
00
00
00
00
00
00
00
FF
FF
FF
FF
FF
FF
FF
FF
FF
FF
ENDCHAR
STARTCHAR block
ENCODING 9608
SWIDTH 333 0
DWIDTH 8 0
BBX 8 18 0 -4
BITMAP
FF
FF
FF
FF
FF
FF
FF
FF
FF
FF
FF
FF
FF
FF
FF
FF
FF
FF
ENDCHAR
STARTCHAR lfblock
ENCODING 9612
SWIDTH 333 0
DWIDTH 8 0
BBX 8 18 0 -4
BITMAP
F0
F0
F0
F0
F0
F0
F0
F0
F0
F0
F0
F0
F0
F0
F0
F0
F0
F0
ENDCHAR
STARTCHAR rtblock
ENCODING 9616
SWIDTH 333 0
DWIDTH 8 0
BBX 8 18 0 -4
BITMAP
0F
0F
0F
0F
0F
0F
0F
0F
0F
0F
0F
0F
0F
0F
0F
0F
0F
0F
ENDCHAR
STARTCHAR ltshade
ENCODING 9617
SWIDTH 333 0
DWIDTH 8 0
BBX 8 18 0 -4
BITMAP
22
22
88
88
22
22
88
88
22
22
88
88
22
22
88
88
22
22
ENDCHAR
STARTCHAR shade
ENCODING 9618
SWIDTH 333 0
DWIDTH 8 0
BBX 8 18 0 -4
BITMAP
55
55
AA
AA
55
55
AA
AA
55
55
AA
AA
55
55
AA
AA
55
55
ENDCHAR
STARTCHAR dkshade
ENCODING 9619
SWIDTH 333 0
DWIDTH 8 0
BBX 8 18 0 -4
BITMAP
BB
BB
DD
DD
BB
BB
DD
DD
BB
BB
DD
DD
BB
BB
DD
DD
BB
BB
ENDCHAR
STARTCHAR filledbox
ENCODING 9632
SWIDTH 333 0
DWIDTH 8 0
BBX 8 18 0 -4
BITMAP
00
00
00
00
3C
3C
3C
3C
3C
3C
3C
3C
00
00
00
00
00
00
ENDCHAR
STARTCHAR filledrect
ENCODING 9644
SWIDTH 333 0
DWIDTH 8 0
BBX 8 18 0 -4
BITMAP
00
00
00
00
00
00
00
00
7E
7E
7E
7E
7E
7E
00
00
00
00
ENDCHAR
STARTCHAR triagup
ENCODING 9650
SWIDTH 333 0
DWIDTH 8 0
BBX 8 18 0 -4
BITMAP
00
00
10
10
38
38
7C
7C
FE
FE
FE
FE
00
00
00
00
00
00
ENDCHAR
STARTCHAR triagrt
ENCODING 9658
SWIDTH 333 0
DWIDTH 8 0
BBX 8 18 0 -4
BITMAP
80
80
E0
E0
F8
F8
FE
FE
F8
F8
E0
E0
80
80
00
00
00
00
ENDCHAR
STARTCHAR triagdn
ENCODING 9660
SWIDTH 333 0
DWIDTH 8 0
BBX 8 18 0 -4
BITMAP
00
00
FE
FE
FE
FE
7C
7C
38
38
10
10
00
00
00
00
00
00
ENDCHAR
STARTCHAR triaglf
ENCODING 9668
SWIDTH 333 0
DWIDTH 8 0
BBX 8 18 0 -4
BITMAP
02
02
0E
0E
3E
3E
FE
FE
3E
3E
0E
0E
02
02
00
00
00
00
ENDCHAR
STARTCHAR circle
ENCODING 9675
SWIDTH 333 0
DWIDTH 8 0
BBX 8 18 0 -4
BITMAP
00
00
3C
3C
66
66
42
42
42
42
66
66
3C
3C
00
00
00
00
ENDCHAR
STARTCHAR invbullet
ENCODING 9688
SWIDTH 333 0
DWIDTH 8 0
BBX 8 18 0 -4
BITMAP
FF
FF
FF
FF
E7
E7
C3
C3
C3
C3
E7
E7
FF
FF
FF
FF
FF
FF
ENDCHAR
STARTCHAR invcircle
ENCODING 9689
SWIDTH 333 0
DWIDTH 8 0
BBX 8 18 0 -4
BITMAP
FF
FF
C3
C3
99
99
BD
BD
BD
BD
99
99
C3
C3
FF
FF
FF
FF
ENDCHAR
STARTCHAR smileface
ENCODING 9786
SWIDTH 333 0
DWIDTH 8 0
BBX 8 18 0 -4
BITMAP
7E
7E
81
81
A5
A5
81
81
BD
BD
99
99
81
81
7E
7E
00
00
ENDCHAR
STARTCHAR invsmileface
ENCODING 9787
SWIDTH 333 0
DWIDTH 8 0
BBX 8 18 0 -4
BITMAP
7E
7E
FF
FF
DB
DB
FF
FF
C3
C3
E7
E7
FF
FF
7E
7E
00
00
ENDCHAR
STARTCHAR sun
ENCODING 9788
SWIDTH 333 0
DWIDTH 8 0
BBX 8 18 0 -4
BITMAP
18
18
DB
DB
3C
3C
E7
E7
E7
E7
3C
3C
DB
DB
18
18
00
00
ENDCHAR
STARTCHAR female
ENCODING 9792
SWIDTH 333 0
DWIDTH 8 0
BBX 8 18 0 -4
BITMAP
3C
3C
42
42
42
42
42
42
3C
3C
18
18
7E
7E
18
18
00
00
ENDCHAR
STARTCHAR male
ENCODING 9794
SWIDTH 333 0
DWIDTH 8 0
BBX 8 18 0 -4
BITMAP
0F
0F
03
03
05
05
7D
7D
84
84
84
84
84
84
78
78
00
00
ENDCHAR
STARTCHAR spade
ENCODING 9824
SWIDTH 333 0
DWIDTH 8 0
BBX 8 18 0 -4
BITMAP
10
10
10
10
38
38
7C
7C
FE
FE
7C
7C
10
10
38
38
00
00
ENDCHAR
STARTCHAR club
ENCODING 9827
SWIDTH 333 0
DWIDTH 8 0
BBX 8 18 0 -4
BITMAP
38
38
7C
7C
38
38
FE
FE
FE
FE
D6
D6
10
10
38
38
00
00
ENDCHAR
STARTCHAR heart
ENCODING 9829
SWIDTH 333 0
DWIDTH 8 0
BBX 8 18 0 -4
BITMAP
6C
6C
FE
FE
FE
FE
FE
FE
7C
7C
38
38
10
10
00
00
00
00
ENDCHAR
STARTCHAR diamond
ENCODING 9830
SWIDTH 333 0
DWIDTH 8 0
BBX 8 18 0 -4
BITMAP
10
10
38
38
7C
7C
FE
FE
7C
7C
38
38
10
10
00
00
00
00
ENDCHAR
STARTCHAR musicalnote
ENCODING 9834
SWIDTH 333 0
DWIDTH 8 0
BBX 8 18 0 -4
BITMAP
3F
3F
21
21
3F
3F
20
20
20
20
60
60
E0
E0
C0
C0
00
00
ENDCHAR
STARTCHAR musicalnotedbl
ENCODING 9835
SWIDTH 333 0
DWIDTH 8 0
BBX 8 18 0 -4
BITMAP
3F
3F
21
21
3F
3F
21
21
23
23
67
67
E6
E6
C0
C0
00
00
ENDCHAR
STARTCHAR uni3044
ENCODING 12356
SWIDTH 333 0
DWIDTH 8 0
BBX 8 18 0 -4
BITMAP
00
00
00
00
00
00
00
00
00
00
00
00
00
00
00
00
00
00
ENDCHAR
STARTCHAR uni3046
ENCODING 12358
SWIDTH 333 0
DWIDTH 8 0
BBX 8 18 0 -4
BITMAP
00
00
00
00
00
00
00
00
00
00
00
00
00
00
00
00
00
00
ENDCHAR
STARTCHAR uni304B
ENCODING 12363
SWIDTH 333 0
DWIDTH 8 0
BBX 8 18 0 -4
BITMAP
00
00
00
00
00
00
00
00
00
00
00
00
00
00
00
00
00
00
ENDCHAR
STARTCHAR uni3057
ENCODING 12375
SWIDTH 333 0
DWIDTH 8 0
BBX 8 18 0 -4
BITMAP
00
00
00
00
00
00
00
00
00
00
00
00
00
00
00
00
00
00
ENDCHAR
STARTCHAR uni306E
ENCODING 12398
SWIDTH 333 0
DWIDTH 8 0
BBX 8 18 0 -4
BITMAP
00
00
00
00
00
00
00
00
00
00
00
00
00
00
00
00
00
00
ENDCHAR
STARTCHAR uni3093
ENCODING 12435
SWIDTH 333 0
DWIDTH 8 0
BBX 8 18 0 -4
BITMAP
00
00
00
00
00
00
00
00
00
00
00
00
00
00
00
00
00
00
ENDCHAR
STARTCHAR .notdef
ENCODING -1
SWIDTH 333 0
DWIDTH 8 0
BBX 7 17 1 0
BITMAP
FE
82
82
82
82
82
82
82
82
82
82
82
82
82
82
82
FE
ENDCHAR
ENDFONT
