STARTFONT 2.1
FONT minibyte-italic-4px
SIZE 4 75 75
FONTBOUNDINGBOX 7 9 0 -2
STARTPROPERTIES 5
PIXEL_SIZE 4
FONT_ASCENT 7
FONT_DESCENT 2
CHARSET_REGISTRY "ISO10646"
CHARSET_ENCODING "1"
ENDPROPERTIES
CHARS 524
STARTCHAR space
ENCODING 32
SWIDTH 500 0
DWIDTH 2 0
BBX 1 1 0 0
BITMAP
00
ENDCHAR
STARTCHAR exclam
ENCODING 33
SWIDTH 750 0
DWIDTH 3 0
BBX 2 4 1 0
BITMAP
40
40
00
80
ENDCHAR
STARTCHAR quotedbl
ENCODING 34
SWIDTH 1250 0
DWIDTH 5 0
BBX 4 2 1 3
BITMAP
50
A0
ENDCHAR
STARTCHAR numbersign
ENCODING 35
SWIDTH 1250 0
DWIDTH 5 0
BBX 4 4 1 0
BITMAP
40
C0
30
20
ENDCHAR
STARTCHAR dollar
ENCODING 36
SWIDTH 1000 0
DWIDTH 4 0
BBX 3 6 1 -1
BITMAP
40
E0
80
60
E0
40
ENDCHAR
STARTCHAR percent
ENCODING 37
SWIDTH 1250 0
DWIDTH 5 0
BBX 4 4 1 0
BITMAP
90
20
40
90
ENDCHAR
STARTCHAR ampersand
ENCODING 38
SWIDTH 1250 0
DWIDTH 5 0
BBX 4 4 1 0
BITMAP
C0
D0
A0
D0
ENDCHAR
STARTCHAR quotesingle
ENCODING 39
SWIDTH 750 0
DWIDTH 3 0
BBX 2 2 1 3
BITMAP
40
80
ENDCHAR
STARTCHAR parenleft
ENCODING 40
SWIDTH 1000 0
DWIDTH 4 0
BBX 3 4 1 0
BITMAP
20
40
80
40
ENDCHAR
STARTCHAR parenright
ENCODING 41
SWIDTH 1000 0
DWIDTH 4 0
BBX 3 4 1 0
BITMAP
40
20
40
80
ENDCHAR
STARTCHAR asterisk
ENCODING 42
SWIDTH 1000 0
DWIDTH 4 0
BBX 3 3 1 2
BITMAP
40
A0
40
ENDCHAR
STARTCHAR plus
ENCODING 43
SWIDTH 1000 0
DWIDTH 4 0
BBX 3 3 1 0
BITMAP
40
E0
40
ENDCHAR
STARTCHAR comma
ENCODING 44
SWIDTH 750 0
DWIDTH 3 0
BBX 2 2 1 -1
BITMAP
40
80
ENDCHAR
STARTCHAR hyphen
ENCODING 45
SWIDTH 1000 0
DWIDTH 4 0
BBX 3 1 1 1
BITMAP
E0
ENDCHAR
STARTCHAR period
ENCODING 46
SWIDTH 500 0
DWIDTH 2 0
BBX 1 1 1 0
BITMAP
80
ENDCHAR
STARTCHAR slash
ENCODING 47
SWIDTH 750 0
DWIDTH 3 0
BBX 2 4 1 0
BITMAP
40
40
80
80
ENDCHAR
STARTCHAR zero
ENCODING 48
SWIDTH 1250 0
DWIDTH 5 0
BBX 4 4 1 0
BITMAP
60
50
A0
60
ENDCHAR
STARTCHAR one
ENCODING 49
SWIDTH 750 0
DWIDTH 3 0
BBX 2 4 1 0
BITMAP
40
C0
80
80
ENDCHAR
STARTCHAR two
ENCODING 50
SWIDTH 1250 0
DWIDTH 5 0
BBX 4 4 1 0
BITMAP
60
30
C0
E0
ENDCHAR
STARTCHAR three
ENCODING 51
SWIDTH 1250 0
DWIDTH 5 0
BBX 4 4 1 0
BITMAP
60
10
60
E0
ENDCHAR
STARTCHAR four
ENCODING 52
SWIDTH 1000 0
DWIDTH 4 0
BBX 3 4 1 0
BITMAP
40
60
E0
40
ENDCHAR
STARTCHAR five
ENCODING 53
SWIDTH 1250 0
DWIDTH 5 0
BBX 4 4 1 0
BITMAP
70
60
10
E0
ENDCHAR
STARTCHAR six
ENCODING 54
SWIDTH 1250 0
DWIDTH 5 0
BBX 4 4 1 0
BITMAP
40
70
90
E0
ENDCHAR
STARTCHAR seven
ENCODING 55
SWIDTH 1000 0
DWIDTH 4 0
BBX 3 4 1 0
BITMAP
E0
20
40
80
ENDCHAR
STARTCHAR eight
ENCODING 56
SWIDTH 1000 0
DWIDTH 4 0
BBX 3 4 1 0
BITMAP
E0
A0
C0
C0
ENDCHAR
STARTCHAR nine
ENCODING 57
SWIDTH 1250 0
DWIDTH 5 0
BBX 4 4 1 0
BITMAP
70
90
E0
20
ENDCHAR
STARTCHAR colon
ENCODING 58
SWIDTH 750 0
DWIDTH 3 0
BBX 2 3 1 0
BITMAP
40
00
80
ENDCHAR
STARTCHAR semicolon
ENCODING 59
SWIDTH 750 0
DWIDTH 3 0
BBX 2 4 1 -1
BITMAP
40
00
40
80
ENDCHAR
STARTCHAR less
ENCODING 60
SWIDTH 1000 0
DWIDTH 4 0
BBX 3 4 1 0
BITMAP
20
40
80
60
ENDCHAR
STARTCHAR equal
ENCODING 61
SWIDTH 1000 0
DWIDTH 4 0
BBX 3 3 1 0
BITMAP
E0
00
E0
ENDCHAR
STARTCHAR greater
ENCODING 62
SWIDTH 1000 0
DWIDTH 4 0
BBX 3 4 1 0
BITMAP
80
40
20
C0
ENDCHAR
STARTCHAR question
ENCODING 63
SWIDTH 1000 0
DWIDTH 4 0
BBX 3 4 1 0
BITMAP
E0
20
40
80
ENDCHAR
STARTCHAR at
ENCODING 64
SWIDTH 1250 0
DWIDTH 5 0
BBX 4 4 1 0
BITMAP
C0
20
E0
D0
ENDCHAR
STARTCHAR A
ENCODING 65
SWIDTH 1250 0
DWIDTH 5 0
BBX 4 4 1 0
BITMAP
70
50
E0
A0
ENDCHAR
STARTCHAR B
ENCODING 66
SWIDTH 1000 0
DWIDTH 4 0
BBX 3 4 1 0
BITMAP
60
60
A0
E0
ENDCHAR
STARTCHAR C
ENCODING 67
SWIDTH 1250 0
DWIDTH 5 0
BBX 4 4 1 0
BITMAP
70
40
80
E0
ENDCHAR
STARTCHAR D
ENCODING 68
SWIDTH 1250 0
DWIDTH 5 0
BBX 4 4 1 0
BITMAP
60
50
A0
C0
ENDCHAR
STARTCHAR E
ENCODING 69
SWIDTH 1250 0
DWIDTH 5 0
BBX 4 4 1 0
BITMAP
70
40
E0
E0
ENDCHAR
STARTCHAR F
ENCODING 70
SWIDTH 1250 0
DWIDTH 5 0
BBX 4 4 1 0
BITMAP
70
40
E0
80
ENDCHAR
STARTCHAR G
ENCODING 71
SWIDTH 1250 0
DWIDTH 5 0
BBX 4 4 1 0
BITMAP
70
40
A0
E0
ENDCHAR
STARTCHAR H
ENCODING 72
SWIDTH 1250 0
DWIDTH 5 0
BBX 4 4 1 0
BITMAP
50
50
E0
A0
ENDCHAR
STARTCHAR I
ENCODING 73
SWIDTH 1250 0
DWIDTH 5 0
BBX 4 4 1 0
BITMAP
70
20
40
E0
ENDCHAR
STARTCHAR J
ENCODING 74
SWIDTH 1250 0
DWIDTH 5 0
BBX 4 4 1 0
BITMAP
70
10
A0
E0
ENDCHAR
STARTCHAR K
ENCODING 75
SWIDTH 1250 0
DWIDTH 5 0
BBX 4 4 1 0
BITMAP
50
60
C0
A0
ENDCHAR
STARTCHAR L
ENCODING 76
SWIDTH 1000 0
DWIDTH 4 0
BBX 3 4 1 0
BITMAP
40
40
80
E0
ENDCHAR
STARTCHAR M
ENCODING 77
SWIDTH 1250 0
DWIDTH 5 0
BBX 4 4 1 0
BITMAP
70
70
E0
A0
ENDCHAR
STARTCHAR N
ENCODING 78
SWIDTH 1250 0
DWIDTH 5 0
BBX 4 4 1 0
BITMAP
70
50
A0
A0
ENDCHAR
STARTCHAR O
ENCODING 79
SWIDTH 1250 0
DWIDTH 5 0
BBX 4 4 1 0
BITMAP
70
50
A0
E0
ENDCHAR
STARTCHAR P
ENCODING 80
SWIDTH 1250 0
DWIDTH 5 0
BBX 4 4 1 0
BITMAP
70
50
E0
80
ENDCHAR
STARTCHAR Q
ENCODING 81
SWIDTH 1250 0
DWIDTH 5 0
BBX 4 5 1 -1
BITMAP
70
50
A0
E0
40
ENDCHAR
STARTCHAR R
ENCODING 82
SWIDTH 1250 0
DWIDTH 5 0
BBX 4 4 1 0
BITMAP
70
50
A0
90
ENDCHAR
STARTCHAR S
ENCODING 83
SWIDTH 1250 0
DWIDTH 5 0
BBX 4 4 1 0
BITMAP
70
40
30
E0
ENDCHAR
STARTCHAR T
ENCODING 84
SWIDTH 1000 0
DWIDTH 4 0
BBX 3 4 1 0
BITMAP
E0
40
80
80
ENDCHAR
STARTCHAR U
ENCODING 85
SWIDTH 1250 0
DWIDTH 5 0
BBX 4 4 1 0
BITMAP
50
50
A0
E0
ENDCHAR
STARTCHAR V
ENCODING 86
SWIDTH 1250 0
DWIDTH 5 0
BBX 4 4 1 0
BITMAP
50
50
A0
40
ENDCHAR
STARTCHAR W
ENCODING 87
SWIDTH 1250 0
DWIDTH 5 0
BBX 4 4 1 0
BITMAP
50
70
E0
E0
ENDCHAR
STARTCHAR X
ENCODING 88
SWIDTH 1250 0
DWIDTH 5 0
BBX 4 4 1 0
BITMAP
50
50
60
A0
ENDCHAR
STARTCHAR Y
ENCODING 89
SWIDTH 1000 0
DWIDTH 4 0
BBX 3 4 1 0
BITMAP
A0
C0
80
80
ENDCHAR
STARTCHAR Z
ENCODING 90
SWIDTH 1250 0
DWIDTH 5 0
BBX 4 4 1 0
BITMAP
70
30
C0
E0
ENDCHAR
STARTCHAR bracketleft
ENCODING 91
SWIDTH 1000 0
DWIDTH 4 0
BBX 3 4 1 0
BITMAP
60
40
80
C0
ENDCHAR
STARTCHAR backslash
ENCODING 92
SWIDTH 750 0
DWIDTH 3 0
BBX 2 4 1 0
BITMAP
80
80
40
40
ENDCHAR
STARTCHAR bracketright
ENCODING 93
SWIDTH 1000 0
DWIDTH 4 0
BBX 3 4 1 0
BITMAP
60
20
40
C0
ENDCHAR
STARTCHAR asciicircum
ENCODING 94
SWIDTH 1000 0
DWIDTH 4 0
BBX 3 2 1 2
BITMAP
40
A0
ENDCHAR
STARTCHAR underscore
ENCODING 95
SWIDTH 1000 0
DWIDTH 4 0
BBX 3 1 1 -1
BITMAP
E0
ENDCHAR
STARTCHAR grave
ENCODING 96
SWIDTH 500 0
DWIDTH 2 0
BBX 2 2 0 5
BITMAP
80
40
ENDCHAR
STARTCHAR a
ENCODING 97
SWIDTH 1250 0
DWIDTH 5 0
BBX 4 4 1 0
BITMAP
70
50
E0
A0
ENDCHAR
STARTCHAR b
ENCODING 98
SWIDTH 1000 0
DWIDTH 4 0
BBX 3 4 1 0
BITMAP
60
60
A0
E0
ENDCHAR
STARTCHAR c
ENCODING 99
SWIDTH 1250 0
DWIDTH 5 0
BBX 4 4 1 0
BITMAP
70
40
80
E0
ENDCHAR
STARTCHAR d
ENCODING 100
SWIDTH 1250 0
DWIDTH 5 0
BBX 4 4 1 0
BITMAP
60
50
A0
C0
ENDCHAR
STARTCHAR e
ENCODING 101
SWIDTH 1250 0
DWIDTH 5 0
BBX 4 4 1 0
BITMAP
70
40
E0
E0
ENDCHAR
STARTCHAR f
ENCODING 102
SWIDTH 1250 0
DWIDTH 5 0
BBX 4 4 1 0
BITMAP
70
40
E0
80
ENDCHAR
STARTCHAR g
ENCODING 103
SWIDTH 1250 0
DWIDTH 5 0
BBX 4 4 1 0
BITMAP
70
40
A0
E0
ENDCHAR
STARTCHAR h
ENCODING 104
SWIDTH 1250 0
DWIDTH 5 0
BBX 4 4 1 0
BITMAP
50
50
E0
A0
ENDCHAR
STARTCHAR i
ENCODING 105
SWIDTH 1250 0
DWIDTH 5 0
BBX 4 4 1 0
BITMAP
70
20
40
E0
ENDCHAR
STARTCHAR j
ENCODING 106
SWIDTH 1250 0
DWIDTH 5 0
BBX 4 4 1 0
BITMAP
70
10
A0
E0
ENDCHAR
STARTCHAR k
ENCODING 107
SWIDTH 1250 0
DWIDTH 5 0
BBX 4 4 1 0
BITMAP
50
60
C0
A0
ENDCHAR
STARTCHAR l
ENCODING 108
SWIDTH 1000 0
DWIDTH 4 0
BBX 3 4 1 0
BITMAP
40
40
80
E0
ENDCHAR
STARTCHAR m
ENCODING 109
SWIDTH 1250 0
DWIDTH 5 0
BBX 4 4 1 0
BITMAP
70
70
E0
A0
ENDCHAR
STARTCHAR n
ENCODING 110
SWIDTH 1250 0
DWIDTH 5 0
BBX 4 4 1 0
BITMAP
70
50
A0
A0
ENDCHAR
STARTCHAR o
ENCODING 111
SWIDTH 1250 0
DWIDTH 5 0
BBX 4 4 1 0
BITMAP
70
50
A0
E0
ENDCHAR
STARTCHAR p
ENCODING 112
SWIDTH 1250 0
DWIDTH 5 0
BBX 4 4 1 0
BITMAP
70
50
E0
80
ENDCHAR
STARTCHAR q
ENCODING 113
SWIDTH 1250 0
DWIDTH 5 0
BBX 4 5 1 -1
BITMAP
70
50
A0
E0
40
ENDCHAR
STARTCHAR r
ENCODING 114
SWIDTH 1250 0
DWIDTH 5 0
BBX 4 4 1 0
BITMAP
70
50
A0
90
ENDCHAR
STARTCHAR s
ENCODING 115
SWIDTH 1250 0
DWIDTH 5 0
BBX 4 4 1 0
BITMAP
70
40
30
E0
ENDCHAR
STARTCHAR t
ENCODING 116
SWIDTH 1000 0
DWIDTH 4 0
BBX 3 4 1 0
BITMAP
E0
40
80
80
ENDCHAR
STARTCHAR u
ENCODING 117
SWIDTH 1250 0
DWIDTH 5 0
BBX 4 4 1 0
BITMAP
50
50
A0
E0
ENDCHAR
STARTCHAR v
ENCODING 118
SWIDTH 1250 0
DWIDTH 5 0
BBX 4 4 1 0
BITMAP
50
50
A0
40
ENDCHAR
STARTCHAR w
ENCODING 119
SWIDTH 1250 0
DWIDTH 5 0
BBX 4 4 1 0
BITMAP
50
70
E0
E0
ENDCHAR
STARTCHAR x
ENCODING 120
SWIDTH 1250 0
DWIDTH 5 0
BBX 4 4 1 0
BITMAP
50
50
60
A0
ENDCHAR
STARTCHAR y
ENCODING 121
SWIDTH 1000 0
DWIDTH 4 0
BBX 3 4 1 0
BITMAP
A0
C0
80
80
ENDCHAR
STARTCHAR z
ENCODING 122
SWIDTH 1250 0
DWIDTH 5 0
BBX 4 4 1 0
BITMAP
70
30
C0
E0
ENDCHAR
STARTCHAR braceleft
ENCODING 123
SWIDTH 750 0
DWIDTH 3 0
BBX 2 4 1 0
BITMAP
40
80
40
80
ENDCHAR
STARTCHAR bar
ENCODING 124
SWIDTH 500 0
DWIDTH 2 0
BBX 1 4 1 0
BITMAP
80
80
80
80
ENDCHAR
STARTCHAR braceright
ENCODING 125
SWIDTH 750 0
DWIDTH 3 0
BBX 2 4 1 0
BITMAP
40
80
40
80
ENDCHAR
STARTCHAR asciitilde
ENCODING 126
SWIDTH 1250 0
DWIDTH 5 0
BBX 4 2 1 1
BITMAP
50
A0
ENDCHAR
STARTCHAR uni00A0
ENCODING 160
SWIDTH 500 0
DWIDTH 2 0
BBX 1 1 0 0
BITMAP
00
ENDCHAR
STARTCHAR exclamdown
ENCODING 161
SWIDTH 750 0
DWIDTH 3 0
BBX 2 4 1 0
BITMAP
40
00
80
80
ENDCHAR
STARTCHAR cent
ENCODING 162
SWIDTH 1000 0
DWIDTH 4 0
BBX 3 6 1 -1
BITMAP
40
E0
80
80
E0
40
ENDCHAR
STARTCHAR sterling
ENCODING 163
SWIDTH 1250 0
DWIDTH 5 0
BBX 4 4 1 0
BITMAP
20
50
C0
70
ENDCHAR
STARTCHAR currency
ENCODING 164
SWIDTH 1250 0
DWIDTH 5 0
BBX 4 4 1 0
BITMAP
90
60
60
90
ENDCHAR
STARTCHAR yen
ENCODING 165
SWIDTH 1500 0
DWIDTH 6 0
BBX 5 4 1 0
BITMAP
50
D8
20
20
ENDCHAR
STARTCHAR brokenbar
ENCODING 166
SWIDTH 500 0
DWIDTH 2 0
BBX 1 4 1 0
BITMAP
80
00
00
80
ENDCHAR
STARTCHAR section
ENCODING 167
SWIDTH 1000 0
DWIDTH 4 0
BBX 3 4 1 0
BITMAP
80
E0
E0
20
ENDCHAR
STARTCHAR dieresis
ENCODING 168
SWIDTH 750 0
DWIDTH 3 0
BBX 3 1 0 5
BITMAP
A0
ENDCHAR
STARTCHAR copyright
ENCODING 169
SWIDTH 1000 0
DWIDTH 4 0
BBX 3 3 1 0
BITMAP
E0
80
E0
ENDCHAR
STARTCHAR guillemotleft
ENCODING 171
SWIDTH 1250 0
DWIDTH 5 0
BBX 4 3 1 0
BITMAP
50
A0
50
ENDCHAR
STARTCHAR registered
ENCODING 174
SWIDTH 750 0
DWIDTH 3 0
BBX 2 2 1 2
BITMAP
C0
80
ENDCHAR
STARTCHAR macron
ENCODING 175
SWIDTH 750 0
DWIDTH 3 0
BBX 3 1 0 5
BITMAP
E0
ENDCHAR
STARTCHAR degree
ENCODING 176
SWIDTH 750 0
DWIDTH 3 0
BBX 2 2 1 2
BITMAP
C0
C0
ENDCHAR
STARTCHAR acute
ENCODING 180
SWIDTH 500 0
DWIDTH 2 0
BBX 2 2 0 5
BITMAP
40
80
ENDCHAR
STARTCHAR paragraph
ENCODING 182
SWIDTH 1250 0
DWIDTH 5 0
BBX 4 4 1 0
BITMAP
D0
D0
50
50
ENDCHAR
STARTCHAR periodcentered
ENCODING 183
SWIDTH 500 0
DWIDTH 2 0
BBX 1 1 1 1
BITMAP
80
ENDCHAR
STARTCHAR cedilla
ENCODING 184
SWIDTH 500 0
DWIDTH 2 0
BBX 2 2 0 -2
BITMAP
40
80
ENDCHAR
STARTCHAR guillemotright
ENCODING 187
SWIDTH 1250 0
DWIDTH 5 0
BBX 4 3 1 0
BITMAP
A0
50
A0
ENDCHAR
STARTCHAR questiondown
ENCODING 191
SWIDTH 1000 0
DWIDTH 4 0
BBX 3 4 1 0
BITMAP
20
40
80
E0
ENDCHAR
STARTCHAR Agrave
ENCODING 192
SWIDTH 1250 0
DWIDTH 5 0
BBX 4 7 1 0
BITMAP
40
20
00
70
50
E0
A0
ENDCHAR
STARTCHAR Aacute
ENCODING 193
SWIDTH 1250 0
DWIDTH 5 0
BBX 4 7 1 0
BITMAP
10
20
00
70
50
E0
A0
ENDCHAR
STARTCHAR Acircumflex
ENCODING 194
SWIDTH 1250 0
DWIDTH 5 0
BBX 4 7 1 0
BITMAP
20
50
00
70
50
E0
A0
ENDCHAR
STARTCHAR Atilde
ENCODING 195
SWIDTH 1250 0
DWIDTH 5 0
BBX 4 7 1 0
BITMAP
60
50
00
70
50
E0
A0
ENDCHAR
STARTCHAR Adieresis
ENCODING 196
SWIDTH 1250 0
DWIDTH 5 0
BBX 4 6 1 0
BITMAP
50
00
70
50
E0
A0
ENDCHAR
STARTCHAR Aring
ENCODING 197
SWIDTH 1250 0
DWIDTH 5 0
BBX 4 6 1 0
BITMAP
20
00
70
50
E0
A0
ENDCHAR
STARTCHAR AE
ENCODING 198
SWIDTH 1750 0
DWIDTH 7 0
BBX 6 4 1 0
BITMAP
3C
50
F8
B8
ENDCHAR
STARTCHAR Ccedilla
ENCODING 199
SWIDTH 1250 0
DWIDTH 5 0
BBX 4 6 1 -2
BITMAP
70
40
80
E0
40
80
ENDCHAR
STARTCHAR Egrave
ENCODING 200
SWIDTH 1250 0
DWIDTH 5 0
BBX 4 7 1 0
BITMAP
40
20
00
70
40
E0
E0
ENDCHAR
STARTCHAR Eacute
ENCODING 201
SWIDTH 1250 0
DWIDTH 5 0
BBX 4 7 1 0
BITMAP
10
20
00
70
40
E0
E0
ENDCHAR
STARTCHAR Ecircumflex
ENCODING 202
SWIDTH 1250 0
DWIDTH 5 0
BBX 4 7 1 0
BITMAP
20
50
00
70
40
E0
E0
ENDCHAR
STARTCHAR Edieresis
ENCODING 203
SWIDTH 1250 0
DWIDTH 5 0
BBX 4 6 1 0
BITMAP
50
00
70
40
E0
E0
ENDCHAR
STARTCHAR Igrave
ENCODING 204
SWIDTH 1250 0
DWIDTH 5 0
BBX 4 7 1 0
BITMAP
40
20
00
70
20
40
E0
ENDCHAR
STARTCHAR Iacute
ENCODING 205
SWIDTH 1250 0
DWIDTH 5 0
BBX 4 7 1 0
BITMAP
10
20
00
70
20
40
E0
ENDCHAR
STARTCHAR Icircumflex
ENCODING 206
SWIDTH 1250 0
DWIDTH 5 0
BBX 4 7 1 0
BITMAP
20
50
00
70
20
40
E0
ENDCHAR
STARTCHAR Idieresis
ENCODING 207
SWIDTH 1250 0
DWIDTH 5 0
BBX 4 6 1 0
BITMAP
50
00
70
20
40
E0
ENDCHAR
STARTCHAR Eth
ENCODING 208
SWIDTH 1500 0
DWIDTH 6 0
BBX 5 4 1 0
BITMAP
30
28
D0
60
ENDCHAR
STARTCHAR Ntilde
ENCODING 209
SWIDTH 1250 0
DWIDTH 5 0
BBX 4 7 1 0
BITMAP
60
50
00
70
50
A0
A0
ENDCHAR
STARTCHAR Ograve
ENCODING 210
SWIDTH 1250 0
DWIDTH 5 0
BBX 4 7 1 0
BITMAP
40
20
00
70
50
A0
E0
ENDCHAR
STARTCHAR Oacute
ENCODING 211
SWIDTH 1250 0
DWIDTH 5 0
BBX 4 7 1 0
BITMAP
10
20
00
70
50
A0
E0
ENDCHAR
STARTCHAR Ocircumflex
ENCODING 212
SWIDTH 1250 0
DWIDTH 5 0
BBX 4 7 1 0
BITMAP
20
50
00
70
50
A0
E0
ENDCHAR
STARTCHAR Otilde
ENCODING 213
SWIDTH 1250 0
DWIDTH 5 0
BBX 4 7 1 0
BITMAP
60
50
00
70
50
A0
E0
ENDCHAR
STARTCHAR Odieresis
ENCODING 214
SWIDTH 1250 0
DWIDTH 5 0
BBX 4 6 1 0
BITMAP
50
00
70
50
A0
E0
ENDCHAR
STARTCHAR multiply
ENCODING 215
SWIDTH 1000 0
DWIDTH 4 0
BBX 3 3 1 0
BITMAP
A0
40
A0
ENDCHAR
STARTCHAR Oslash
ENCODING 216
SWIDTH 1250 0
DWIDTH 5 0
BBX 4 4 1 0
BITMAP
70
70
E0
E0
ENDCHAR
STARTCHAR Ugrave
ENCODING 217
SWIDTH 1250 0
DWIDTH 5 0
BBX 4 7 1 0
BITMAP
40
20
00
50
50
A0
E0
ENDCHAR
STARTCHAR Uacute
ENCODING 218
SWIDTH 1250 0
DWIDTH 5 0
BBX 4 7 1 0
BITMAP
10
20
00
50
50
A0
E0
ENDCHAR
STARTCHAR Ucircumflex
ENCODING 219
SWIDTH 1250 0
DWIDTH 5 0
BBX 4 7 1 0
BITMAP
20
50
00
50
50
A0
E0
ENDCHAR
STARTCHAR Udieresis
ENCODING 220
SWIDTH 1250 0
DWIDTH 5 0
BBX 4 6 1 0
BITMAP
50
00
50
50
A0
E0
ENDCHAR
STARTCHAR Yacute
ENCODING 221
SWIDTH 1000 0
DWIDTH 4 0
BBX 3 7 1 0
BITMAP
20
40
00
A0
C0
80
80
ENDCHAR
STARTCHAR Thorn
ENCODING 222
SWIDTH 1250 0
DWIDTH 5 0
BBX 4 4 1 0
BITMAP
40
70
E0
80
ENDCHAR
STARTCHAR germandbls
ENCODING 223
SWIDTH 1250 0
DWIDTH 5 0
BBX 4 4 1 0
BITMAP
60
90
A0
90
ENDCHAR
STARTCHAR agrave
ENCODING 224
SWIDTH 1250 0
DWIDTH 5 0
BBX 4 7 1 0
BITMAP
40
20
00
70
50
E0
A0
ENDCHAR
STARTCHAR aacute
ENCODING 225
SWIDTH 1250 0
DWIDTH 5 0
BBX 4 7 1 0
BITMAP
10
20
00
70
50
E0
A0
ENDCHAR
STARTCHAR acircumflex
ENCODING 226
SWIDTH 1250 0
DWIDTH 5 0
BBX 4 7 1 0
BITMAP
20
50
00
70
50
E0
A0
ENDCHAR
STARTCHAR atilde
ENCODING 227
SWIDTH 1250 0
DWIDTH 5 0
BBX 4 7 1 0
BITMAP
60
50
00
70
50
E0
A0
ENDCHAR
STARTCHAR adieresis
ENCODING 228
SWIDTH 1250 0
DWIDTH 5 0
BBX 4 6 1 0
BITMAP
50
00
70
50
E0
A0
ENDCHAR
STARTCHAR aring
ENCODING 229
SWIDTH 1250 0
DWIDTH 5 0
BBX 4 6 1 0
BITMAP
20
00
70
50
E0
A0
ENDCHAR
STARTCHAR ae
ENCODING 230
SWIDTH 1750 0
DWIDTH 7 0
BBX 6 4 1 0
BITMAP
3C
50
F8
B8
ENDCHAR
STARTCHAR ccedilla
ENCODING 231
SWIDTH 1250 0
DWIDTH 5 0
BBX 4 6 1 -2
BITMAP
70
40
80
E0
40
80
ENDCHAR
STARTCHAR egrave
ENCODING 232
SWIDTH 1250 0
DWIDTH 5 0
BBX 4 7 1 0
BITMAP
40
20
00
70
40
E0
E0
ENDCHAR
STARTCHAR eacute
ENCODING 233
SWIDTH 1250 0
DWIDTH 5 0
BBX 4 7 1 0
BITMAP
10
20
00
70
40
E0
E0
ENDCHAR
STARTCHAR ecircumflex
ENCODING 234
SWIDTH 1250 0
DWIDTH 5 0
BBX 4 7 1 0
BITMAP
20
50
00
70
40
E0
E0
ENDCHAR
STARTCHAR edieresis
ENCODING 235
SWIDTH 1250 0
DWIDTH 5 0
BBX 4 6 1 0
BITMAP
50
00
70
40
E0
E0
ENDCHAR
STARTCHAR igrave
ENCODING 236
SWIDTH 1250 0
DWIDTH 5 0
BBX 4 7 1 0
BITMAP
40
20
00
70
20
40
E0
ENDCHAR
STARTCHAR iacute
ENCODING 237
SWIDTH 1250 0
DWIDTH 5 0
BBX 4 7 1 0
BITMAP
10
20
00
70
20
40
E0
ENDCHAR
STARTCHAR icircumflex
ENCODING 238
SWIDTH 1250 0
DWIDTH 5 0
BBX 4 7 1 0
BITMAP
20
50
00
70
20
40
E0
ENDCHAR
STARTCHAR idieresis
ENCODING 239
SWIDTH 1250 0
DWIDTH 5 0
BBX 4 6 1 0
BITMAP
50
00
70
20
40
E0
ENDCHAR
STARTCHAR eth
ENCODING 240
SWIDTH 1500 0
DWIDTH 6 0
BBX 5 4 1 0
BITMAP
30
28
D0
60
ENDCHAR
STARTCHAR ntilde
ENCODING 241
SWIDTH 1250 0
DWIDTH 5 0
BBX 4 7 1 0
BITMAP
60
50
00
70
50
A0
A0
ENDCHAR
STARTCHAR ograve
ENCODING 242
SWIDTH 1250 0
DWIDTH 5 0
BBX 4 7 1 0
BITMAP
40
20
00
70
50
A0
E0
ENDCHAR
STARTCHAR oacute
ENCODING 243
SWIDTH 1250 0
DWIDTH 5 0
BBX 4 7 1 0
BITMAP
10
20
00
70
50
A0
E0
ENDCHAR
STARTCHAR ocircumflex
ENCODING 244
SWIDTH 1250 0
DWIDTH 5 0
BBX 4 7 1 0
BITMAP
20
50
00
70
50
A0
E0
ENDCHAR
STARTCHAR otilde
ENCODING 245
SWIDTH 1250 0
DWIDTH 5 0
BBX 4 7 1 0
BITMAP
60
50
00
70
50
A0
E0
ENDCHAR
STARTCHAR odieresis
ENCODING 246
SWIDTH 1250 0
DWIDTH 5 0
BBX 4 6 1 0
BITMAP
50
00
70
50
A0
E0
ENDCHAR
STARTCHAR divide
ENCODING 247
SWIDTH 1000 0
DWIDTH 4 0
BBX 3 4 1 0
BITMAP
40
00
E0
40
ENDCHAR
STARTCHAR oslash
ENCODING 248
SWIDTH 1250 0
DWIDTH 5 0
BBX 4 4 1 0
BITMAP
70
70
E0
E0
ENDCHAR
STARTCHAR ugrave
ENCODING 249
SWIDTH 1250 0
DWIDTH 5 0
BBX 4 7 1 0
BITMAP
40
20
00
50
50
A0
E0
ENDCHAR
STARTCHAR uacute
ENCODING 250
SWIDTH 1250 0
DWIDTH 5 0
BBX 4 7 1 0
BITMAP
10
20
00
50
50
A0
E0
ENDCHAR
STARTCHAR ucircumflex
ENCODING 251
SWIDTH 1250 0
DWIDTH 5 0
BBX 4 7 1 0
BITMAP
20
50
00
50
50
A0
E0
ENDCHAR
STARTCHAR udieresis
ENCODING 252
SWIDTH 1250 0
DWIDTH 5 0
BBX 4 6 1 0
BITMAP
50
00
50
50
A0
E0
ENDCHAR
STARTCHAR yacute
ENCODING 253
SWIDTH 1000 0
DWIDTH 4 0
BBX 3 7 1 0
BITMAP
20
40
00
A0
C0
80
80
ENDCHAR
STARTCHAR thorn
ENCODING 254
SWIDTH 1250 0
DWIDTH 5 0
BBX 4 4 1 0
BITMAP
40
70
E0
80
ENDCHAR
STARTCHAR ydieresis
ENCODING 255
SWIDTH 1000 0
DWIDTH 4 0
BBX 3 6 1 0
BITMAP
A0
00
A0
C0
80
80
ENDCHAR
STARTCHAR Amacron
ENCODING 256
SWIDTH 1250 0
DWIDTH 5 0
BBX 4 6 1 0
BITMAP
70
00
70
50
E0
A0
ENDCHAR
STARTCHAR amacron
ENCODING 257
SWIDTH 1250 0
DWIDTH 5 0
BBX 4 6 1 0
BITMAP
70
00
70
50
E0
A0
ENDCHAR
STARTCHAR Abreve
ENCODING 258
SWIDTH 1250 0
DWIDTH 5 0
BBX 5 7 1 0
BITMAP
28
70
00
70
50
E0
A0
ENDCHAR
STARTCHAR abreve
ENCODING 259
SWIDTH 1250 0
DWIDTH 5 0
BBX 5 7 1 0
BITMAP
28
70
00
70
50
E0
A0
ENDCHAR
STARTCHAR Aogonek
ENCODING 260
SWIDTH 1250 0
DWIDTH 5 0
BBX 4 6 1 -2
BITMAP
70
50
E0
A0
20
10
ENDCHAR
STARTCHAR aogonek
ENCODING 261
SWIDTH 1250 0
DWIDTH 5 0
BBX 4 6 1 -2
BITMAP
70
50
E0
A0
20
10
ENDCHAR
STARTCHAR Cacute
ENCODING 262
SWIDTH 1250 0
DWIDTH 5 0
BBX 4 7 1 0
BITMAP
10
20
00
70
40
80
E0
ENDCHAR
STARTCHAR cacute
ENCODING 263
SWIDTH 1250 0
DWIDTH 5 0
BBX 4 7 1 0
BITMAP
10
20
00
70
40
80
E0
ENDCHAR
STARTCHAR Cdotaccent
ENCODING 266
SWIDTH 1250 0
DWIDTH 5 0
BBX 4 6 1 0
BITMAP
20
00
70
40
80
E0
ENDCHAR
STARTCHAR cdotaccent
ENCODING 267
SWIDTH 1250 0
DWIDTH 5 0
BBX 4 6 1 0
BITMAP
20
00
70
40
80
E0
ENDCHAR
STARTCHAR Ccaron
ENCODING 268
SWIDTH 1250 0
DWIDTH 5 0
BBX 4 7 1 0
BITMAP
50
20
00
70
40
80
E0
ENDCHAR
STARTCHAR ccaron
ENCODING 269
SWIDTH 1250 0
DWIDTH 5 0
BBX 4 7 1 0
BITMAP
50
20
00
70
40
80
E0
ENDCHAR
STARTCHAR Dcaron
ENCODING 270
SWIDTH 1250 0
DWIDTH 5 0
BBX 4 7 1 0
BITMAP
50
20
00
60
50
A0
C0
ENDCHAR
STARTCHAR dcaron
ENCODING 271
SWIDTH 1250 0
DWIDTH 5 0
BBX 4 7 1 0
BITMAP
50
20
00
60
50
A0
C0
ENDCHAR
STARTCHAR Dcroat
ENCODING 272
SWIDTH 1500 0
DWIDTH 6 0
BBX 5 4 1 0
BITMAP
30
28
D0
60
ENDCHAR
STARTCHAR dcroat
ENCODING 273
SWIDTH 1500 0
DWIDTH 6 0
BBX 5 4 1 0
BITMAP
30
28
D0
60
ENDCHAR
STARTCHAR Emacron
ENCODING 274
SWIDTH 1250 0
DWIDTH 5 0
BBX 4 6 1 0
BITMAP
70
00
70
40
E0
E0
ENDCHAR
STARTCHAR emacron
ENCODING 275
SWIDTH 1250 0
DWIDTH 5 0
BBX 4 6 1 0
BITMAP
70
00
70
40
E0
E0
ENDCHAR
STARTCHAR Edotaccent
ENCODING 278
SWIDTH 1250 0
DWIDTH 5 0
BBX 4 6 1 0
BITMAP
20
00
70
40
E0
E0
ENDCHAR
STARTCHAR edotaccent
ENCODING 279
SWIDTH 1250 0
DWIDTH 5 0
BBX 4 6 1 0
BITMAP
20
00
70
40
E0
E0
ENDCHAR
STARTCHAR Eogonek
ENCODING 280
SWIDTH 1250 0
DWIDTH 5 0
BBX 4 6 1 -2
BITMAP
70
40
E0
E0
40
20
ENDCHAR
STARTCHAR eogonek
ENCODING 281
SWIDTH 1250 0
DWIDTH 5 0
BBX 4 6 1 -2
BITMAP
70
40
E0
E0
40
20
ENDCHAR
STARTCHAR Ecaron
ENCODING 282
SWIDTH 1250 0
DWIDTH 5 0
BBX 4 7 1 0
BITMAP
50
20
00
70
40
E0
E0
ENDCHAR
STARTCHAR ecaron
ENCODING 283
SWIDTH 1250 0
DWIDTH 5 0
BBX 4 7 1 0
BITMAP
50
20
00
70
40
E0
E0
ENDCHAR
STARTCHAR Gbreve
ENCODING 286
SWIDTH 1250 0
DWIDTH 5 0
BBX 5 7 1 0
BITMAP
28
70
00
70
40
A0
E0
ENDCHAR
STARTCHAR gbreve
ENCODING 287
SWIDTH 1250 0
DWIDTH 5 0
BBX 5 7 1 0
BITMAP
28
70
00
70
40
A0
E0
ENDCHAR
STARTCHAR Gdotaccent
ENCODING 288
SWIDTH 1250 0
DWIDTH 5 0
BBX 4 6 1 0
BITMAP
20
00
70
40
A0
E0
ENDCHAR
STARTCHAR gdotaccent
ENCODING 289
SWIDTH 1250 0
DWIDTH 5 0
BBX 4 6 1 0
BITMAP
20
00
70
40
A0
E0
ENDCHAR
STARTCHAR uni0122
ENCODING 290
SWIDTH 1250 0
DWIDTH 5 0
BBX 4 6 1 -2
BITMAP
70
40
A0
E0
00
40
ENDCHAR
STARTCHAR uni0123
ENCODING 291
SWIDTH 1250 0
DWIDTH 5 0
BBX 4 6 1 -2
BITMAP
70
40
A0
E0
00
40
ENDCHAR
STARTCHAR Hbar
ENCODING 294
SWIDTH 1500 0
DWIDTH 6 0
BBX 5 4 1 0
BITMAP
28
28
F8
50
ENDCHAR
STARTCHAR hbar
ENCODING 295
SWIDTH 1500 0
DWIDTH 6 0
BBX 5 4 1 0
BITMAP
28
28
F8
50
ENDCHAR
STARTCHAR Itilde
ENCODING 296
SWIDTH 1250 0
DWIDTH 5 0
BBX 4 7 1 0
BITMAP
60
50
00
70
20
40
E0
ENDCHAR
STARTCHAR itilde
ENCODING 297
SWIDTH 1250 0
DWIDTH 5 0
BBX 4 7 1 0
BITMAP
60
50
00
70
20
40
E0
ENDCHAR
STARTCHAR Imacron
ENCODING 298
SWIDTH 1250 0
DWIDTH 5 0
BBX 4 6 1 0
BITMAP
70
00
70
20
40
E0
ENDCHAR
STARTCHAR imacron
ENCODING 299
SWIDTH 1250 0
DWIDTH 5 0
BBX 4 6 1 0
BITMAP
70
00
70
20
40
E0
ENDCHAR
STARTCHAR Iogonek
ENCODING 302
SWIDTH 1250 0
DWIDTH 5 0
BBX 4 6 1 -2
BITMAP
70
20
40
E0
40
20
ENDCHAR
STARTCHAR iogonek
ENCODING 303
SWIDTH 1250 0
DWIDTH 5 0
BBX 4 6 1 -2
BITMAP
70
20
40
E0
40
20
ENDCHAR
STARTCHAR Idotaccent
ENCODING 304
SWIDTH 1250 0
DWIDTH 5 0
BBX 4 6 1 0
BITMAP
20
00
70
20
40
E0
ENDCHAR
STARTCHAR dotlessi
ENCODING 305
SWIDTH 1250 0
DWIDTH 5 0
BBX 4 4 1 0
BITMAP
70
20
40
E0
ENDCHAR
STARTCHAR IJ
ENCODING 306
SWIDTH 1750 0
DWIDTH 7 0
BBX 6 4 1 0
BITMAP
5C
44
A8
B8
ENDCHAR
STARTCHAR ij
ENCODING 307
SWIDTH 1750 0
DWIDTH 7 0
BBX 6 4 1 0
BITMAP
5C
44
A8
B8
ENDCHAR
STARTCHAR uni0136
ENCODING 310
SWIDTH 1250 0
DWIDTH 5 0
BBX 4 6 1 -2
BITMAP
50
60
C0
A0
00
40
ENDCHAR
STARTCHAR uni0137
ENCODING 311
SWIDTH 1250 0
DWIDTH 5 0
BBX 4 6 1 -2
BITMAP
50
60
C0
A0
00
40
ENDCHAR
STARTCHAR Lacute
ENCODING 313
SWIDTH 1000 0
DWIDTH 4 0
BBX 3 7 1 0
BITMAP
20
40
00
40
40
80
E0
ENDCHAR
STARTCHAR lacute
ENCODING 314
SWIDTH 1000 0
DWIDTH 4 0
BBX 3 7 1 0
BITMAP
20
40
00
40
40
80
E0
ENDCHAR
STARTCHAR uni013B
ENCODING 315
SWIDTH 1000 0
DWIDTH 4 0
BBX 3 6 1 -2
BITMAP
40
40
80
E0
00
40
ENDCHAR
STARTCHAR uni013C
ENCODING 316
SWIDTH 1000 0
DWIDTH 4 0
BBX 3 6 1 -2
BITMAP
40
40
80
E0
00
40
ENDCHAR
STARTCHAR Lcaron
ENCODING 317
SWIDTH 1000 0
DWIDTH 4 0
BBX 4 5 1 0
BITMAP
10
50
40
80
E0
ENDCHAR
STARTCHAR lcaron
ENCODING 318
SWIDTH 1000 0
DWIDTH 4 0
BBX 4 5 1 0
BITMAP
10
50
40
80
E0
ENDCHAR
STARTCHAR Lslash
ENCODING 321
SWIDTH 1000 0
DWIDTH 4 0
BBX 3 4 1 0
BITMAP
40
60
80
E0
ENDCHAR
STARTCHAR lslash
ENCODING 322
SWIDTH 1000 0
DWIDTH 4 0
BBX 3 4 1 0
BITMAP
40
60
80
E0
ENDCHAR
STARTCHAR Nacute
ENCODING 323
SWIDTH 1250 0
DWIDTH 5 0
BBX 4 7 1 0
BITMAP
10
20
00
70
50
A0
A0
ENDCHAR
STARTCHAR nacute
ENCODING 324
SWIDTH 1250 0
DWIDTH 5 0
BBX 4 7 1 0
BITMAP
10
20
00
70
50
A0
A0
ENDCHAR
STARTCHAR uni0145
ENCODING 325
SWIDTH 1250 0
DWIDTH 5 0
BBX 4 6 1 -2
BITMAP
70
50
A0
A0
00
40
ENDCHAR
STARTCHAR uni0146
ENCODING 326
SWIDTH 1250 0
DWIDTH 5 0
BBX 4 6 1 -2
BITMAP
70
50
A0
A0
00
40
ENDCHAR
STARTCHAR Ncaron
ENCODING 327
SWIDTH 1250 0
DWIDTH 5 0
BBX 4 7 1 0
BITMAP
50
20
00
70
50
A0
A0
ENDCHAR
STARTCHAR ncaron
ENCODING 328
SWIDTH 1250 0
DWIDTH 5 0
BBX 4 7 1 0
BITMAP
50
20
00
70
50
A0
A0
ENDCHAR
STARTCHAR Omacron
ENCODING 332
SWIDTH 1250 0
DWIDTH 5 0
BBX 4 6 1 0
BITMAP
70
00
70
50
A0
E0
ENDCHAR
STARTCHAR omacron
ENCODING 333
SWIDTH 1250 0
DWIDTH 5 0
BBX 4 6 1 0
BITMAP
70
00
70
50
A0
E0
ENDCHAR
STARTCHAR Ohungarumlaut
ENCODING 336
SWIDTH 1250 0
DWIDTH 5 0
BBX 5 7 1 0
BITMAP
28
50
00
70
50
A0
E0
ENDCHAR
STARTCHAR ohungarumlaut
ENCODING 337
SWIDTH 1250 0
DWIDTH 5 0
BBX 5 7 1 0
BITMAP
28
50
00
70
50
A0
E0
ENDCHAR
STARTCHAR OE
ENCODING 338
SWIDTH 1500 0
DWIDTH 6 0
BBX 5 4 1 0
BITMAP
78
50
B0
F8
ENDCHAR
STARTCHAR oe
ENCODING 339
SWIDTH 1500 0
DWIDTH 6 0
BBX 5 4 1 0
BITMAP
78
50
B0
F8
ENDCHAR
STARTCHAR Racute
ENCODING 340
SWIDTH 1250 0
DWIDTH 5 0
BBX 4 7 1 0
BITMAP
10
20
00
70
50
A0
90
ENDCHAR
STARTCHAR racute
ENCODING 341
SWIDTH 1250 0
DWIDTH 5 0
BBX 4 7 1 0
BITMAP
10
20
00
70
50
A0
90
ENDCHAR
STARTCHAR uni0156
ENCODING 342
SWIDTH 1250 0
DWIDTH 5 0
BBX 4 6 1 -2
BITMAP
70
50
A0
90
00
40
ENDCHAR
STARTCHAR uni0157
ENCODING 343
SWIDTH 1250 0
DWIDTH 5 0
BBX 4 6 1 -2
BITMAP
70
50
A0
90
00
40
ENDCHAR
STARTCHAR Rcaron
ENCODING 344
SWIDTH 1250 0
DWIDTH 5 0
BBX 4 7 1 0
BITMAP
50
20
00
70
50
A0
90
ENDCHAR
STARTCHAR rcaron
ENCODING 345
SWIDTH 1250 0
DWIDTH 5 0
BBX 4 7 1 0
BITMAP
50
20
00
70
50
A0
90
ENDCHAR
STARTCHAR Sacute
ENCODING 346
SWIDTH 1250 0
DWIDTH 5 0
BBX 4 7 1 0
BITMAP
10
20
00
70
40
30
E0
ENDCHAR
STARTCHAR sacute
ENCODING 347
SWIDTH 1250 0
DWIDTH 5 0
BBX 4 7 1 0
BITMAP
10
20
00
70
40
30
E0
ENDCHAR
STARTCHAR Scedilla
ENCODING 350
SWIDTH 1250 0
DWIDTH 5 0
BBX 4 6 1 -2
BITMAP
70
40
30
E0
40
80
ENDCHAR
STARTCHAR scedilla
ENCODING 351
SWIDTH 1250 0
DWIDTH 5 0
BBX 4 6 1 -2
BITMAP
70
40
30
E0
40
80
ENDCHAR
STARTCHAR Scaron
ENCODING 352
SWIDTH 1250 0
DWIDTH 5 0
BBX 4 7 1 0
BITMAP
50
20
00
70
40
30
E0
ENDCHAR
STARTCHAR scaron
ENCODING 353
SWIDTH 1250 0
DWIDTH 5 0
BBX 4 7 1 0
BITMAP
50
20
00
70
40
30
E0
ENDCHAR
STARTCHAR uni0162
ENCODING 354
SWIDTH 1000 0
DWIDTH 4 0
BBX 4 6 0 -2
BITMAP
70
20
40
40
40
80
ENDCHAR
STARTCHAR uni0163
ENCODING 355
SWIDTH 1000 0
DWIDTH 4 0
BBX 4 6 0 -2
BITMAP
70
20
40
40
40
80
ENDCHAR
STARTCHAR Tcaron
ENCODING 356
SWIDTH 1000 0
DWIDTH 4 0
BBX 3 7 1 0
BITMAP
A0
40
00
E0
40
80
80
ENDCHAR
STARTCHAR tcaron
ENCODING 357
SWIDTH 1000 0
DWIDTH 4 0
BBX 3 7 1 0
BITMAP
A0
40
00
E0
40
80
80
ENDCHAR
STARTCHAR Utilde
ENCODING 360
SWIDTH 1250 0
DWIDTH 5 0
BBX 4 7 1 0
BITMAP
60
50
00
50
50
A0
E0
ENDCHAR
STARTCHAR utilde
ENCODING 361
SWIDTH 1250 0
DWIDTH 5 0
BBX 4 7 1 0
BITMAP
60
50
00
50
50
A0
E0
ENDCHAR
STARTCHAR Umacron
ENCODING 362
SWIDTH 1250 0
DWIDTH 5 0
BBX 4 6 1 0
BITMAP
70
00
50
50
A0
E0
ENDCHAR
STARTCHAR umacron
ENCODING 363
SWIDTH 1250 0
DWIDTH 5 0
BBX 4 6 1 0
BITMAP
70
00
50
50
A0
E0
ENDCHAR
STARTCHAR Uring
ENCODING 366
SWIDTH 1250 0
DWIDTH 5 0
BBX 4 6 1 0
BITMAP
20
00
50
50
A0
E0
ENDCHAR
STARTCHAR uring
ENCODING 367
SWIDTH 1250 0
DWIDTH 5 0
BBX 4 6 1 0
BITMAP
20
00
50
50
A0
E0
ENDCHAR
STARTCHAR Uhungarumlaut
ENCODING 368
SWIDTH 1250 0
DWIDTH 5 0
BBX 5 7 1 0
BITMAP
28
50
00
50
50
A0
E0
ENDCHAR
STARTCHAR uhungarumlaut
ENCODING 369
SWIDTH 1250 0
DWIDTH 5 0
BBX 5 7 1 0
BITMAP
28
50
00
50
50
A0
E0
ENDCHAR
STARTCHAR Uogonek
ENCODING 370
SWIDTH 1250 0
DWIDTH 5 0
BBX 4 6 1 -2
BITMAP
50
50
A0
E0
40
20
ENDCHAR
STARTCHAR uogonek
ENCODING 371
SWIDTH 1250 0
DWIDTH 5 0
BBX 4 6 1 -2
BITMAP
50
50
A0
E0
40
20
ENDCHAR
STARTCHAR Wcircumflex
ENCODING 372
SWIDTH 1250 0
DWIDTH 5 0
BBX 4 7 1 0
BITMAP
20
50
00
50
70
E0
E0
ENDCHAR
STARTCHAR wcircumflex
ENCODING 373
SWIDTH 1250 0
DWIDTH 5 0
BBX 4 7 1 0
BITMAP
20
50
00
50
70
E0
E0
ENDCHAR
STARTCHAR Ycircumflex
ENCODING 374
SWIDTH 1000 0
DWIDTH 4 0
BBX 3 7 1 0
BITMAP
40
A0
00
A0
C0
80
80
ENDCHAR
STARTCHAR ycircumflex
ENCODING 375
SWIDTH 1000 0
DWIDTH 4 0
BBX 3 7 1 0
BITMAP
40
A0
00
A0
C0
80
80
ENDCHAR
STARTCHAR Ydieresis
ENCODING 376
SWIDTH 1000 0
DWIDTH 4 0
BBX 3 6 1 0
BITMAP
A0
00
A0
C0
80
80
ENDCHAR
STARTCHAR Zacute
ENCODING 377
SWIDTH 1250 0
DWIDTH 5 0
BBX 4 7 1 0
BITMAP
10
20
00
70
30
C0
E0
ENDCHAR
STARTCHAR zacute
ENCODING 378
SWIDTH 1250 0
DWIDTH 5 0
BBX 4 7 1 0
BITMAP
10
20
00
70
30
C0
E0
ENDCHAR
STARTCHAR Zdotaccent
ENCODING 379
SWIDTH 1250 0
DWIDTH 5 0
BBX 4 6 1 0
BITMAP
20
00
70
30
C0
E0
ENDCHAR
STARTCHAR zdotaccent
ENCODING 380
SWIDTH 1250 0
DWIDTH 5 0
BBX 4 6 1 0
BITMAP
20
00
70
30
C0
E0
ENDCHAR
STARTCHAR Zcaron
ENCODING 381
SWIDTH 1250 0
DWIDTH 5 0
BBX 4 7 1 0
BITMAP
50
20
00
70
30
C0
E0
ENDCHAR
STARTCHAR zcaron
ENCODING 382
SWIDTH 1250 0
DWIDTH 5 0
BBX 4 7 1 0
BITMAP
50
20
00
70
30
C0
E0
ENDCHAR
STARTCHAR uni018F
ENCODING 399
SWIDTH 1000 0
DWIDTH 4 0
BBX 3 4 1 0
BITMAP
C0
20
60
C0
ENDCHAR
STARTCHAR uni0218
ENCODING 536
SWIDTH 1250 0
DWIDTH 5 0
BBX 4 6 1 -2
BITMAP
70
40
30
E0
00
40
ENDCHAR
STARTCHAR uni0219
ENCODING 537
SWIDTH 1250 0
DWIDTH 5 0
BBX 4 6 1 -2
BITMAP
70
40
30
E0
00
40
ENDCHAR
STARTCHAR uni021A
ENCODING 538
SWIDTH 1000 0
DWIDTH 4 0
BBX 3 6 1 -2
BITMAP
E0
40
80
80
00
80
ENDCHAR
STARTCHAR uni021B
ENCODING 539
SWIDTH 1000 0
DWIDTH 4 0
BBX 3 6 1 -2
BITMAP
E0
40
80
80
00
80
ENDCHAR
STARTCHAR uni0237
ENCODING 567
SWIDTH 1250 0
DWIDTH 5 0
BBX 4 4 1 0
BITMAP
70
10
A0
E0
ENDCHAR
STARTCHAR uni0259
ENCODING 601
SWIDTH 1000 0
DWIDTH 4 0
BBX 3 4 1 0
BITMAP
C0
20
60
C0
ENDCHAR
STARTCHAR uni02BC
ENCODING 700
SWIDTH 250 0
DWIDTH 1 0
BBX 1 2 0 2
BITMAP
80
80
ENDCHAR
STARTCHAR circumflex
ENCODING 710
SWIDTH 750 0
DWIDTH 3 0
BBX 3 2 0 5
BITMAP
40
A0
ENDCHAR
STARTCHAR caron
ENCODING 711
SWIDTH 750 0
DWIDTH 3 0
BBX 3 2 0 5
BITMAP
A0
40
ENDCHAR
STARTCHAR breve
ENCODING 728
SWIDTH 1000 0
DWIDTH 4 0
BBX 4 2 0 5
BITMAP
50
E0
ENDCHAR
STARTCHAR dotaccent
ENCODING 729
SWIDTH 250 0
DWIDTH 1 0
BBX 1 1 0 5
BITMAP
80
ENDCHAR
STARTCHAR ring
ENCODING 730
SWIDTH 250 0
DWIDTH 1 0
BBX 1 1 0 5
BITMAP
80
ENDCHAR
STARTCHAR ogonek
ENCODING 731
SWIDTH 500 0
DWIDTH 2 0
BBX 2 2 0 -2
BITMAP
80
40
ENDCHAR
STARTCHAR tilde
ENCODING 732
SWIDTH 750 0
DWIDTH 3 0
BBX 3 2 0 5
BITMAP
C0
A0
ENDCHAR
STARTCHAR hungarumlaut
ENCODING 733
SWIDTH 1000 0
DWIDTH 4 0
BBX 4 2 0 5
BITMAP
50
A0
ENDCHAR
STARTCHAR gravecomb
ENCODING 768
SWIDTH 0 0
DWIDTH 0 0
BBX 2 2 0 5
BITMAP
80
40
ENDCHAR
STARTCHAR acutecomb
ENCODING 769
SWIDTH 0 0
DWIDTH 0 0
BBX 2 2 0 5
BITMAP
40
80
ENDCHAR
STARTCHAR uni0302
ENCODING 770
SWIDTH 0 0
DWIDTH 0 0
BBX 3 2 0 5
BITMAP
40
A0
ENDCHAR
STARTCHAR tildecomb
ENCODING 771
SWIDTH 0 0
DWIDTH 0 0
BBX 3 2 0 5
BITMAP
C0
A0
ENDCHAR
STARTCHAR uni0304
ENCODING 772
SWIDTH 0 0
DWIDTH 0 0
BBX 3 1 0 5
BITMAP
E0
ENDCHAR
STARTCHAR uni0306
ENCODING 774
SWIDTH 0 0
DWIDTH 0 0
BBX 4 2 0 5
BITMAP
50
E0
ENDCHAR
STARTCHAR uni0307
ENCODING 775
SWIDTH 0 0
DWIDTH 0 0
BBX 1 1 0 5
BITMAP
80
ENDCHAR
STARTCHAR uni0308
ENCODING 776
SWIDTH 0 0
DWIDTH 0 0
BBX 3 1 0 5
BITMAP
A0
ENDCHAR
STARTCHAR uni030A
ENCODING 778
SWIDTH 0 0
DWIDTH 0 0
BBX 1 1 0 5
BITMAP
80
ENDCHAR
STARTCHAR uni030B
ENCODING 779
SWIDTH 0 0
DWIDTH 0 0
BBX 4 2 0 5
BITMAP
50
A0
ENDCHAR
STARTCHAR uni030C
ENCODING 780
SWIDTH 0 0
DWIDTH 0 0
BBX 3 2 0 5
BITMAP
A0
40
ENDCHAR
STARTCHAR uni0312
ENCODING 786
SWIDTH 0 0
DWIDTH 0 0
BBX 1 2 0 2
BITMAP
80
80
ENDCHAR
STARTCHAR uni0326
ENCODING 806
SWIDTH 0 0
DWIDTH 0 0
BBX 1 1 0 -2
BITMAP
80
ENDCHAR
STARTCHAR uni0327
ENCODING 807
SWIDTH 0 0
DWIDTH 0 0
BBX 2 2 0 -2
BITMAP
40
80
ENDCHAR
STARTCHAR uni0328
ENCODING 808
SWIDTH 0 0
DWIDTH 0 0
BBX 2 2 0 -2
BITMAP
80
40
ENDCHAR
STARTCHAR uni0400
ENCODING 1024
SWIDTH 1250 0
DWIDTH 5 0
BBX 4 7 1 0
BITMAP
10
20
00
70
40
E0
E0
ENDCHAR
STARTCHAR uni0401
ENCODING 1025
SWIDTH 1250 0
DWIDTH 5 0
BBX 4 6 1 0
BITMAP
50
00
70
40
E0
E0
ENDCHAR
STARTCHAR uni0402
ENCODING 1026
SWIDTH 1250 0
DWIDTH 5 0
BBX 4 5 1 -1
BITMAP
E0
40
70
50
10
ENDCHAR
STARTCHAR uni0403
ENCODING 1027
SWIDTH 1250 0
DWIDTH 5 0
BBX 4 7 1 0
BITMAP
10
20
00
70
40
80
80
ENDCHAR
STARTCHAR uni0404
ENCODING 1028
SWIDTH 1000 0
DWIDTH 4 0
BBX 3 4 1 0
BITMAP
60
80
C0
60
ENDCHAR
STARTCHAR uni0405
ENCODING 1029
SWIDTH 1250 0
DWIDTH 5 0
BBX 4 4 1 0
BITMAP
70
40
30
E0
ENDCHAR
STARTCHAR uni0406
ENCODING 1030
SWIDTH 1250 0
DWIDTH 5 0
BBX 4 4 1 0
BITMAP
70
20
40
E0
ENDCHAR
STARTCHAR uni0407
ENCODING 1031
SWIDTH 1250 0
DWIDTH 5 0
BBX 4 6 1 0
BITMAP
50
00
70
20
40
E0
ENDCHAR
STARTCHAR uni0408
ENCODING 1032
SWIDTH 1250 0
DWIDTH 5 0
BBX 4 4 1 0
BITMAP
70
10
A0
E0
ENDCHAR
STARTCHAR uni0409
ENCODING 1033
SWIDTH 1750 0
DWIDTH 7 0
BBX 6 4 1 0
BITMAP
70
5C
A8
38
ENDCHAR
STARTCHAR uni040A
ENCODING 1034
SWIDTH 1750 0
DWIDTH 7 0
BBX 6 4 1 0
BITMAP
B0
FC
A8
B8
ENDCHAR
STARTCHAR uni040B
ENCODING 1035
SWIDTH 1250 0
DWIDTH 5 0
BBX 4 4 1 0
BITMAP
E0
40
70
50
ENDCHAR
STARTCHAR uni040C
ENCODING 1036
SWIDTH 1250 0
DWIDTH 5 0
BBX 4 7 1 0
BITMAP
10
20
00
50
60
C0
A0
ENDCHAR
STARTCHAR uni040D
ENCODING 1037
SWIDTH 1500 0
DWIDTH 6 0
BBX 5 7 1 0
BITMAP
20
10
00
48
48
B0
D0
ENDCHAR
STARTCHAR uni040E
ENCODING 1038
SWIDTH 1000 0
DWIDTH 4 0
BBX 4 7 1 0
BITMAP
50
E0
00
A0
C0
80
80
ENDCHAR
STARTCHAR uni040F
ENCODING 1039
SWIDTH 1250 0
DWIDTH 5 0
BBX 4 5 1 -1
BITMAP
50
50
A0
E0
40
ENDCHAR
STARTCHAR uni0410
ENCODING 1040
SWIDTH 1250 0
DWIDTH 5 0
BBX 4 4 1 0
BITMAP
70
50
E0
A0
ENDCHAR
STARTCHAR uni0411
ENCODING 1041
SWIDTH 1250 0
DWIDTH 5 0
BBX 4 4 1 0
BITMAP
70
60
A0
E0
ENDCHAR
STARTCHAR uni0412
ENCODING 1042
SWIDTH 1000 0
DWIDTH 4 0
BBX 3 4 1 0
BITMAP
60
60
A0
E0
ENDCHAR
STARTCHAR uni0413
ENCODING 1043
SWIDTH 1250 0
DWIDTH 5 0
BBX 4 4 1 0
BITMAP
70
40
80
80
ENDCHAR
STARTCHAR uni0414
ENCODING 1044
SWIDTH 1500 0
DWIDTH 6 0
BBX 5 4 1 0
BITMAP
38
28
70
90
ENDCHAR
STARTCHAR uni0415
ENCODING 1045
SWIDTH 1250 0
DWIDTH 5 0
BBX 4 4 1 0
BITMAP
70
40
E0
E0
ENDCHAR
STARTCHAR uni0416
ENCODING 1046
SWIDTH 1750 0
DWIDTH 7 0
BBX 6 4 1 0
BITMAP
54
58
70
A8
ENDCHAR
STARTCHAR uni0417
ENCODING 1047
SWIDTH 1250 0
DWIDTH 5 0
BBX 4 4 1 0
BITMAP
60
10
60
E0
ENDCHAR
STARTCHAR uni0418
ENCODING 1048
SWIDTH 1500 0
DWIDTH 6 0
BBX 5 4 1 0
BITMAP
48
48
B0
D0
ENDCHAR
STARTCHAR uni0419
ENCODING 1049
SWIDTH 1500 0
DWIDTH 6 0
BBX 6 7 1 0
BITMAP
14
38
00
48
48
B0
D0
ENDCHAR
STARTCHAR uni041A
ENCODING 1050
SWIDTH 1250 0
DWIDTH 5 0
BBX 4 4 1 0
BITMAP
50
60
C0
A0
ENDCHAR
STARTCHAR uni041B
ENCODING 1051
SWIDTH 1250 0
DWIDTH 5 0
BBX 4 4 1 0
BITMAP
70
50
A0
20
ENDCHAR
STARTCHAR uni041C
ENCODING 1052
SWIDTH 1250 0
DWIDTH 5 0
BBX 4 4 1 0
BITMAP
70
70
E0
A0
ENDCHAR
STARTCHAR uni041D
ENCODING 1053
SWIDTH 1250 0
DWIDTH 5 0
BBX 4 4 1 0
BITMAP
50
50
E0
A0
ENDCHAR
STARTCHAR uni041E
ENCODING 1054
SWIDTH 1250 0
DWIDTH 5 0
BBX 4 4 1 0
BITMAP
70
50
A0
E0
ENDCHAR
STARTCHAR uni041F
ENCODING 1055
SWIDTH 1250 0
DWIDTH 5 0
BBX 4 4 1 0
BITMAP
70
50
A0
A0
ENDCHAR
STARTCHAR uni0420
ENCODING 1056
SWIDTH 1250 0
DWIDTH 5 0
BBX 4 4 1 0
BITMAP
70
50
E0
80
ENDCHAR
STARTCHAR uni0421
ENCODING 1057
SWIDTH 1250 0
DWIDTH 5 0
BBX 4 4 1 0
BITMAP
70
40
80
E0
ENDCHAR
STARTCHAR uni0422
ENCODING 1058
SWIDTH 1000 0
DWIDTH 4 0
BBX 3 4 1 0
BITMAP
E0
40
80
80
ENDCHAR
STARTCHAR uni0423
ENCODING 1059
SWIDTH 1000 0
DWIDTH 4 0
BBX 3 4 1 0
BITMAP
A0
C0
80
80
ENDCHAR
STARTCHAR uni0424
ENCODING 1060
SWIDTH 1750 0
DWIDTH 7 0
BBX 6 6 1 -1
BITMAP
10
38
54
A8
70
20
ENDCHAR
STARTCHAR uni0425
ENCODING 1061
SWIDTH 1250 0
DWIDTH 5 0
BBX 4 4 1 0
BITMAP
50
50
60
A0
ENDCHAR
STARTCHAR uni0426
ENCODING 1062
SWIDTH 1250 0
DWIDTH 5 0
BBX 4 5 1 -1
BITMAP
50
50
A0
E0
20
ENDCHAR
STARTCHAR uni0427
ENCODING 1063
SWIDTH 1250 0
DWIDTH 5 0
BBX 4 4 1 0
BITMAP
50
50
E0
20
ENDCHAR
STARTCHAR uni0428
ENCODING 1064
SWIDTH 1750 0
DWIDTH 7 0
BBX 6 4 1 0
BITMAP
54
54
A8
F8
ENDCHAR
STARTCHAR uni0429
ENCODING 1065
SWIDTH 1750 0
DWIDTH 7 0
BBX 6 5 1 -1
BITMAP
54
54
A8
F8
08
ENDCHAR
STARTCHAR uni042A
ENCODING 1066
SWIDTH 1250 0
DWIDTH 5 0
BBX 4 4 1 0
BITMAP
C0
70
A0
E0
ENDCHAR
STARTCHAR uni042B
ENCODING 1067
SWIDTH 1500 0
DWIDTH 6 0
BBX 5 4 1 0
BITMAP
48
78
A8
E8
ENDCHAR
STARTCHAR uni042C
ENCODING 1068
SWIDTH 1250 0
DWIDTH 5 0
BBX 4 4 1 0
BITMAP
40
70
A0
E0
ENDCHAR
STARTCHAR uni042D
ENCODING 1069
SWIDTH 1000 0
DWIDTH 4 0
BBX 3 4 1 0
BITMAP
C0
20
60
C0
ENDCHAR
STARTCHAR uni042E
ENCODING 1070
SWIDTH 1750 0
DWIDTH 7 0
BBX 6 4 1 0
BITMAP
5C
54
E8
B8
ENDCHAR
STARTCHAR uni042F
ENCODING 1071
SWIDTH 1250 0
DWIDTH 5 0
BBX 4 4 1 0
BITMAP
70
50
60
A0
ENDCHAR
STARTCHAR uni0430
ENCODING 1072
SWIDTH 1250 0
DWIDTH 5 0
BBX 4 4 1 0
BITMAP
70
50
E0
A0
ENDCHAR
STARTCHAR uni0431
ENCODING 1073
SWIDTH 1250 0
DWIDTH 5 0
BBX 4 4 1 0
BITMAP
70
60
A0
E0
ENDCHAR
STARTCHAR uni0432
ENCODING 1074
SWIDTH 1000 0
DWIDTH 4 0
BBX 3 4 1 0
BITMAP
60
60
A0
E0
ENDCHAR
STARTCHAR uni0433
ENCODING 1075
SWIDTH 1250 0
DWIDTH 5 0
BBX 4 4 1 0
BITMAP
70
40
80
80
ENDCHAR
STARTCHAR uni0434
ENCODING 1076
SWIDTH 1500 0
DWIDTH 6 0
BBX 5 4 1 0
BITMAP
38
28
70
90
ENDCHAR
STARTCHAR uni0435
ENCODING 1077
SWIDTH 1250 0
DWIDTH 5 0
BBX 4 4 1 0
BITMAP
70
40
E0
E0
ENDCHAR
STARTCHAR uni0436
ENCODING 1078
SWIDTH 1750 0
DWIDTH 7 0
BBX 6 4 1 0
BITMAP
54
58
70
A8
ENDCHAR
STARTCHAR uni0437
ENCODING 1079
SWIDTH 1250 0
DWIDTH 5 0
BBX 4 4 1 0
BITMAP
60
10
60
E0
ENDCHAR
STARTCHAR uni0438
ENCODING 1080
SWIDTH 1500 0
DWIDTH 6 0
BBX 5 4 1 0
BITMAP
48
48
B0
D0
ENDCHAR
STARTCHAR uni0439
ENCODING 1081
SWIDTH 1500 0
DWIDTH 6 0
BBX 6 7 1 0
BITMAP
14
38
00
48
48
B0
D0
ENDCHAR
STARTCHAR uni043A
ENCODING 1082
SWIDTH 1250 0
DWIDTH 5 0
BBX 4 4 1 0
BITMAP
50
60
C0
A0
ENDCHAR
STARTCHAR uni043B
ENCODING 1083
SWIDTH 1250 0
DWIDTH 5 0
BBX 4 4 1 0
BITMAP
70
50
A0
20
ENDCHAR
STARTCHAR uni043C
ENCODING 1084
SWIDTH 1250 0
DWIDTH 5 0
BBX 4 4 1 0
BITMAP
70
70
E0
A0
ENDCHAR
STARTCHAR uni043D
ENCODING 1085
SWIDTH 1250 0
DWIDTH 5 0
BBX 4 4 1 0
BITMAP
50
50
E0
A0
ENDCHAR
STARTCHAR uni043E
ENCODING 1086
SWIDTH 1250 0
DWIDTH 5 0
BBX 4 4 1 0
BITMAP
70
50
A0
E0
ENDCHAR
STARTCHAR uni043F
ENCODING 1087
SWIDTH 1250 0
DWIDTH 5 0
BBX 4 4 1 0
BITMAP
70
50
A0
A0
ENDCHAR
STARTCHAR uni0440
ENCODING 1088
SWIDTH 1250 0
DWIDTH 5 0
BBX 4 4 1 0
BITMAP
70
50
E0
80
ENDCHAR
STARTCHAR uni0441
ENCODING 1089
SWIDTH 1250 0
DWIDTH 5 0
BBX 4 4 1 0
BITMAP
70
40
80
E0
ENDCHAR
STARTCHAR uni0442
ENCODING 1090
SWIDTH 1000 0
DWIDTH 4 0
BBX 3 4 1 0
BITMAP
E0
40
80
80
ENDCHAR
STARTCHAR uni0443
ENCODING 1091
SWIDTH 1000 0
DWIDTH 4 0
BBX 3 4 1 0
BITMAP
A0
C0
80
80
ENDCHAR
STARTCHAR uni0444
ENCODING 1092
SWIDTH 1750 0
DWIDTH 7 0
BBX 6 6 1 -1
BITMAP
10
38
54
A8
70
20
ENDCHAR
STARTCHAR uni0445
ENCODING 1093
SWIDTH 1250 0
DWIDTH 5 0
BBX 4 4 1 0
BITMAP
50
50
60
A0
ENDCHAR
STARTCHAR uni0446
ENCODING 1094
SWIDTH 1250 0
DWIDTH 5 0
BBX 4 5 1 -1
BITMAP
50
50
A0
E0
20
ENDCHAR
STARTCHAR uni0447
ENCODING 1095
SWIDTH 1250 0
DWIDTH 5 0
BBX 4 4 1 0
BITMAP
50
50
E0
20
ENDCHAR
STARTCHAR uni0448
ENCODING 1096
SWIDTH 1750 0
DWIDTH 7 0
BBX 6 4 1 0
BITMAP
54
54
A8
F8
ENDCHAR
STARTCHAR uni0449
ENCODING 1097
SWIDTH 1750 0
DWIDTH 7 0
BBX 6 5 1 -1
BITMAP
54
54
A8
F8
08
ENDCHAR
STARTCHAR uni044A
ENCODING 1098
SWIDTH 1250 0
DWIDTH 5 0
BBX 4 4 1 0
BITMAP
C0
70
A0
E0
ENDCHAR
STARTCHAR uni044B
ENCODING 1099
SWIDTH 1500 0
DWIDTH 6 0
BBX 5 4 1 0
BITMAP
48
78
A8
E8
ENDCHAR
STARTCHAR uni044C
ENCODING 1100
SWIDTH 1250 0
DWIDTH 5 0
BBX 4 4 1 0
BITMAP
40
70
A0
E0
ENDCHAR
STARTCHAR uni044D
ENCODING 1101
SWIDTH 1000 0
DWIDTH 4 0
BBX 3 4 1 0
BITMAP
C0
20
60
C0
ENDCHAR
STARTCHAR uni044E
ENCODING 1102
SWIDTH 1750 0
DWIDTH 7 0
BBX 6 4 1 0
BITMAP
5C
54
E8
B8
ENDCHAR
STARTCHAR uni044F
ENCODING 1103
SWIDTH 1250 0
DWIDTH 5 0
BBX 4 4 1 0
BITMAP
70
50
60
A0
ENDCHAR
STARTCHAR uni0450
ENCODING 1104
SWIDTH 1250 0
DWIDTH 5 0
BBX 4 7 1 0
BITMAP
10
20
00
70
40
E0
E0
ENDCHAR
STARTCHAR uni0451
ENCODING 1105
SWIDTH 1250 0
DWIDTH 5 0
BBX 4 6 1 0
BITMAP
50
00
70
40
E0
E0
ENDCHAR
STARTCHAR uni0452
ENCODING 1106
SWIDTH 1250 0
DWIDTH 5 0
BBX 4 5 1 -1
BITMAP
E0
40
70
50
10
ENDCHAR
STARTCHAR uni0453
ENCODING 1107
SWIDTH 1250 0
DWIDTH 5 0
BBX 4 7 1 0
BITMAP
10
20
00
70
40
80
80
ENDCHAR
STARTCHAR uni0454
ENCODING 1108
SWIDTH 1000 0
DWIDTH 4 0
BBX 3 4 1 0
BITMAP
60
80
C0
60
ENDCHAR
STARTCHAR uni0455
ENCODING 1109
SWIDTH 1250 0
DWIDTH 5 0
BBX 4 4 1 0
BITMAP
70
40
30
E0
ENDCHAR
STARTCHAR uni0456
ENCODING 1110
SWIDTH 1250 0
DWIDTH 5 0
BBX 4 4 1 0
BITMAP
70
20
40
E0
ENDCHAR
STARTCHAR uni0457
ENCODING 1111
SWIDTH 1250 0
DWIDTH 5 0
BBX 4 6 1 0
BITMAP
50
00
70
20
40
E0
ENDCHAR
STARTCHAR uni0458
ENCODING 1112
SWIDTH 1250 0
DWIDTH 5 0
BBX 4 4 1 0
BITMAP
70
10
A0
E0
ENDCHAR
STARTCHAR uni0459
ENCODING 1113
SWIDTH 1750 0
DWIDTH 7 0
BBX 6 4 1 0
BITMAP
70
5C
A8
38
ENDCHAR
STARTCHAR uni045A
ENCODING 1114
SWIDTH 1750 0
DWIDTH 7 0
BBX 6 4 1 0
BITMAP
B0
FC
A8
B8
ENDCHAR
STARTCHAR uni045B
ENCODING 1115
SWIDTH 1250 0
DWIDTH 5 0
BBX 4 4 1 0
BITMAP
E0
40
70
50
ENDCHAR
STARTCHAR uni045C
ENCODING 1116
SWIDTH 1250 0
DWIDTH 5 0
BBX 4 7 1 0
BITMAP
10
20
00
50
60
C0
A0
ENDCHAR
STARTCHAR uni045D
ENCODING 1117
SWIDTH 1500 0
DWIDTH 6 0
BBX 5 7 1 0
BITMAP
20
10
00
48
48
B0
D0
ENDCHAR
STARTCHAR uni045E
ENCODING 1118
SWIDTH 1000 0
DWIDTH 4 0
BBX 4 7 1 0
BITMAP
50
E0
00
A0
C0
80
80
ENDCHAR
STARTCHAR uni045F
ENCODING 1119
SWIDTH 1250 0
DWIDTH 5 0
BBX 4 5 1 -1
BITMAP
50
50
A0
E0
40
ENDCHAR
STARTCHAR uni0490
ENCODING 1168
SWIDTH 1250 0
DWIDTH 5 0
BBX 4 5 1 0
BITMAP
10
70
40
80
80
ENDCHAR
STARTCHAR uni0491
ENCODING 1169
SWIDTH 1250 0
DWIDTH 5 0
BBX 4 5 1 0
BITMAP
10
70
40
80
80
ENDCHAR
STARTCHAR Wgrave
ENCODING 7808
SWIDTH 1250 0
DWIDTH 5 0
BBX 4 7 1 0
BITMAP
40
20
00
50
70
E0
E0
ENDCHAR
STARTCHAR wgrave
ENCODING 7809
SWIDTH 1250 0
DWIDTH 5 0
BBX 4 7 1 0
BITMAP
40
20
00
50
70
E0
E0
ENDCHAR
STARTCHAR Wacute
ENCODING 7810
SWIDTH 1250 0
DWIDTH 5 0
BBX 4 7 1 0
BITMAP
10
20
00
50
70
E0
E0
ENDCHAR
STARTCHAR wacute
ENCODING 7811
SWIDTH 1250 0
DWIDTH 5 0
BBX 4 7 1 0
BITMAP
10
20
00
50
70
E0
E0
ENDCHAR
STARTCHAR Wdieresis
ENCODING 7812
SWIDTH 1250 0
DWIDTH 5 0
BBX 4 6 1 0
BITMAP
50
00
50
70
E0
E0
ENDCHAR
STARTCHAR wdieresis
ENCODING 7813
SWIDTH 1250 0
DWIDTH 5 0
BBX 4 6 1 0
BITMAP
50
00
50
70
E0
E0
ENDCHAR
STARTCHAR uni1E9E
ENCODING 7838
SWIDTH 1250 0
DWIDTH 5 0
BBX 4 4 1 0
BITMAP
60
90
A0
90
ENDCHAR
STARTCHAR uni1EBC
ENCODING 7868
SWIDTH 1250 0
DWIDTH 5 0
BBX 4 7 1 0
BITMAP
60
50
00
70
40
E0
E0
ENDCHAR
STARTCHAR uni1EBD
ENCODING 7869
SWIDTH 1250 0
DWIDTH 5 0
BBX 4 7 1 0
BITMAP
60
50
00
70
40
E0
E0
ENDCHAR
STARTCHAR Ygrave
ENCODING 7922
SWIDTH 1000 0
DWIDTH 4 0
BBX 3 7 1 0
BITMAP
80
40
00
A0
C0
80
80
ENDCHAR
STARTCHAR ygrave
ENCODING 7923
SWIDTH 1000 0
DWIDTH 4 0
BBX 3 7 1 0
BITMAP
80
40
00
A0
C0
80
80
ENDCHAR
STARTCHAR uni1EF8
ENCODING 7928
SWIDTH 1000 0
DWIDTH 4 0
BBX 3 7 1 0
BITMAP
C0
A0
00
A0
C0
80
80
ENDCHAR
STARTCHAR uni1EF9
ENCODING 7929
SWIDTH 1000 0
DWIDTH 4 0
BBX 3 7 1 0
BITMAP
C0
A0
00
A0
C0
80
80
ENDCHAR
STARTCHAR uni2002
ENCODING 8194
SWIDTH 1000 0
DWIDTH 4 0
BBX 1 1 0 0
BITMAP
00
ENDCHAR
STARTCHAR uni2003
ENCODING 8195
SWIDTH 1000 0
DWIDTH 4 0
BBX 1 1 0 0
BITMAP
00
ENDCHAR
STARTCHAR uni200B
ENCODING 8203
SWIDTH 0 0
DWIDTH 0 0
BBX 1 1 0 0
BITMAP
00
ENDCHAR
STARTCHAR endash
ENCODING 8211
SWIDTH 1250 0
DWIDTH 5 0
BBX 4 1 1 1
BITMAP
F0
ENDCHAR
STARTCHAR emdash
ENCODING 8212
SWIDTH 1500 0
DWIDTH 6 0
BBX 5 1 1 1
BITMAP
F8
ENDCHAR
STARTCHAR quoteleft
ENCODING 8216
SWIDTH 750 0
DWIDTH 3 0
BBX 2 2 1 3
BITMAP
40
80
ENDCHAR
STARTCHAR quoteright
ENCODING 8217
SWIDTH 750 0
DWIDTH 3 0
BBX 2 2 1 3
BITMAP
40
80
ENDCHAR
STARTCHAR quotesinglbase
ENCODING 8218
SWIDTH 750 0
DWIDTH 3 0
BBX 2 2 1 -1
BITMAP
40
80
ENDCHAR
STARTCHAR quotedblleft
ENCODING 8220
SWIDTH 1250 0
DWIDTH 5 0
BBX 4 2 1 3
BITMAP
50
A0
ENDCHAR
STARTCHAR quotedblright
ENCODING 8221
SWIDTH 1250 0
DWIDTH 5 0
BBX 4 2 1 3
BITMAP
50
A0
ENDCHAR
STARTCHAR quotedblbase
ENCODING 8222
SWIDTH 1250 0
DWIDTH 5 0
BBX 4 2 1 -1
BITMAP
50
A0
ENDCHAR
STARTCHAR dagger
ENCODING 8224
SWIDTH 1000 0
DWIDTH 4 0
BBX 3 4 1 0
BITMAP
40
E0
40
40
ENDCHAR
STARTCHAR daggerdbl
ENCODING 8225
SWIDTH 1000 0
DWIDTH 4 0
BBX 3 4 1 0
BITMAP
40
E0
E0
40
ENDCHAR
STARTCHAR bullet
ENCODING 8226
SWIDTH 750 0
DWIDTH 3 0
BBX 2 2 1 1
BITMAP
C0
C0
ENDCHAR
STARTCHAR ellipsis
ENCODING 8230
SWIDTH 1500 0
DWIDTH 6 0
BBX 5 1 1 0
BITMAP
A8
ENDCHAR
STARTCHAR uni202F
ENCODING 8239
SWIDTH 250 0
DWIDTH 1 0
BBX 1 1 0 0
BITMAP
00
ENDCHAR
STARTCHAR guilsinglleft
ENCODING 8249
SWIDTH 750 0
DWIDTH 3 0
BBX 2 3 1 0
BITMAP
40
80
40
ENDCHAR
STARTCHAR guilsinglright
ENCODING 8250
SWIDTH 750 0
DWIDTH 3 0
BBX 2 3 1 0
BITMAP
80
40
80
ENDCHAR
STARTCHAR uni20A9
ENCODING 8361
SWIDTH 1500 0
DWIDTH 6 0
BBX 5 4 1 0
BITMAP
50
70
F8
70
ENDCHAR
STARTCHAR uni20AA
ENCODING 8362
SWIDTH 1250 0
DWIDTH 5 0
BBX 4 4 1 0
BITMAP
D0
90
90
B0
ENDCHAR
STARTCHAR Euro
ENCODING 8364
SWIDTH 1250 0
DWIDTH 5 0
BBX 4 4 1 0
BITMAP
30
40
E0
70
ENDCHAR
STARTCHAR uni20B4
ENCODING 8372
SWIDTH 1000 0
DWIDTH 4 0
BBX 3 4 1 0
BITMAP
E0
20
80
E0
ENDCHAR
STARTCHAR trademark
ENCODING 8482
SWIDTH 1500 0
DWIDTH 6 0
BBX 5 2 1 2
BITMAP
F8
58
ENDCHAR
STARTCHAR arrowleft
ENCODING 8592
SWIDTH 1250 0
DWIDTH 5 0
BBX 4 3 1 0
BITMAP
40
F0
40
ENDCHAR
STARTCHAR arrowup
ENCODING 8593
SWIDTH 1000 0
DWIDTH 4 0
BBX 3 4 1 0
BITMAP
40
E0
40
40
ENDCHAR
STARTCHAR arrowright
ENCODING 8594
SWIDTH 1250 0
DWIDTH 5 0
BBX 4 3 1 0
BITMAP
20
F0
20
ENDCHAR
STARTCHAR arrowdown
ENCODING 8595
SWIDTH 1000 0
DWIDTH 4 0
BBX 3 4 1 0
BITMAP
40
40
E0
40
ENDCHAR
STARTCHAR uni2196
ENCODING 8598
SWIDTH 1250 0
DWIDTH 5 0
BBX 4 4 1 0
BITMAP
E0
C0
A0
10
ENDCHAR
STARTCHAR uni2197
ENCODING 8599
SWIDTH 1250 0
DWIDTH 5 0
BBX 4 4 1 0
BITMAP
70
30
50
80
ENDCHAR
STARTCHAR uni2198
ENCODING 8600
SWIDTH 1250 0
DWIDTH 5 0
BBX 4 4 1 0
BITMAP
80
50
30
70
ENDCHAR
STARTCHAR uni2199
ENCODING 8601
SWIDTH 1250 0
DWIDTH 5 0
BBX 4 4 1 0
BITMAP
10
A0
C0
E0
ENDCHAR
STARTCHAR minus
ENCODING 8722
SWIDTH 1000 0
DWIDTH 4 0
BBX 3 1 1 1
BITMAP
E0
ENDCHAR
STARTCHAR infinity
ENCODING 8734
SWIDTH 1500 0
DWIDTH 6 0
BBX 5 3 1 0
BITMAP
D8
A8
D8
ENDCHAR
STARTCHAR approxequal
ENCODING 8776
SWIDTH 1250 0
DWIDTH 5 0
BBX 4 2 1 1
BITMAP
50
A0
ENDCHAR
STARTCHAR uni262F
ENCODING 9775
SWIDTH 1250 0
DWIDTH 5 0
BBX 4 4 1 0
BITMAP
C0
D0
B0
30
ENDCHAR
STARTCHAR female
ENCODING 9792
SWIDTH 1250 0
DWIDTH 5 0
BBX 4 4 1 0
BITMAP
30
B0
40
A0
ENDCHAR
STARTCHAR male
ENCODING 9794
SWIDTH 1250 0
DWIDTH 5 0
BBX 4 4 1 0
BITMAP
70
30
D0
C0
ENDCHAR
STARTCHAR uni2764
ENCODING 10084
SWIDTH 1500 0
DWIDTH 6 0
BBX 5 4 1 0
BITMAP
D8
F8
70
20
ENDCHAR
STARTCHAR uni27A1
ENCODING 10145
SWIDTH 1250 0
DWIDTH 5 0
BBX 4 4 1 0
BITMAP
20
F0
F0
20
ENDCHAR
STARTCHAR uni2B05
ENCODING 11013
SWIDTH 1250 0
DWIDTH 5 0
BBX 4 4 1 0
BITMAP
40
F0
F0
40
ENDCHAR
STARTCHAR uni2B06
ENCODING 11014
SWIDTH 1250 0
DWIDTH 5 0
BBX 4 4 1 0
BITMAP
60
F0
60
60
ENDCHAR
STARTCHAR uni2B07
ENCODING 11015
SWIDTH 1250 0
DWIDTH 5 0
BBX 4 4 1 0
BITMAP
60
60
F0
60
ENDCHAR
STARTCHAR uniA78B
ENCODING 42891
SWIDTH 750 0
DWIDTH 3 0
BBX 2 3 1 1
BITMAP
40
40
80
ENDCHAR
STARTCHAR uniA78C
ENCODING 42892
SWIDTH 750 0
DWIDTH 3 0
BBX 2 3 1 1
BITMAP
40
40
80
ENDCHAR
STARTCHAR u1F432
ENCODING 128050
SWIDTH 1750 0
DWIDTH 7 0
BBX 6 5 1 0
BITMAP
84
48
30
78
48
ENDCHAR
STARTCHAR u1F5A4
ENCODING 128420
SWIDTH 1500 0
DWIDTH 6 0
BBX 5 4 1 0
BITMAP
D8
F8
70
20
ENDCHAR
STARTCHAR u1F62E
ENCODING 128558
SWIDTH 1250 0
DWIDTH 5 0
BBX 4 4 1 0
BITMAP
F0
60
90
90
ENDCHAR
STARTCHAR u1F636
ENCODING 128566
SWIDTH 1250 0
DWIDTH 5 0
BBX 4 4 1 0
BITMAP
F0
60
F0
F0
ENDCHAR
STARTCHAR u1F642
ENCODING 128578
SWIDTH 1250 0
DWIDTH 5 0
BBX 4 4 1 0
BITMAP
F0
60
F0
90
ENDCHAR
STARTCHAR u1F90D
ENCODING 129293
SWIDTH 1500 0
DWIDTH 6 0
BBX 5 4 1 0
BITMAP
D8
A8
50
20
ENDCHAR
STARTCHAR .notdef
ENCODING -1
SWIDTH 1250 0
DWIDTH 5 0
BBX 3 9 1 -2
BITMAP
E0
A0
E0
E0
E0
A0
E0
A0
E0
ENDCHAR
STARTCHAR uni004A0301
ENCODING -1
SWIDTH 1250 0
DWIDTH 5 0
BBX 4 7 1 0
BITMAP
10
20
00
70
10
A0
E0
ENDCHAR
STARTCHAR C.salt1
ENCODING -1
SWIDTH 1000 0
DWIDTH 4 0
BBX 3 4 1 0
BITMAP
60
40
80
C0
ENDCHAR
STARTCHAR I.salt1
ENCODING -1
SWIDTH 750 0
DWIDTH 3 0
BBX 2 4 1 0
BITMAP
40
40
80
80
ENDCHAR
STARTCHAR L.salt1
ENCODING -1
SWIDTH 750 0
DWIDTH 3 0
BBX 2 4 1 0
BITMAP
40
40
80
C0
ENDCHAR
STARTCHAR O.salt1
ENCODING -1
SWIDTH 1250 0
DWIDTH 5 0
BBX 4 4 1 0
BITMAP
30
50
A0
C0
ENDCHAR
STARTCHAR O.salt2
ENCODING -1
SWIDTH 1250 0
DWIDTH 5 0
BBX 4 4 1 0
BITMAP
60
50
A0
60
ENDCHAR
STARTCHAR i.loclTRK
ENCODING -1
SWIDTH 1250 0
DWIDTH 5 0
BBX 4 6 1 0
BITMAP
20
00
70
20
40
E0
ENDCHAR
STARTCHAR uni006A0301
ENCODING -1
SWIDTH 1250 0
DWIDTH 5 0
BBX 4 7 1 0
BITMAP
10
20
00
70
10
A0
E0
ENDCHAR
STARTCHAR c.salt1
ENCODING -1
SWIDTH 1000 0
DWIDTH 4 0
BBX 3 4 1 0
BITMAP
60
40
80
C0
ENDCHAR
STARTCHAR i.salt1
ENCODING -1
SWIDTH 750 0
DWIDTH 3 0
BBX 2 4 1 0
BITMAP
40
40
80
80
ENDCHAR
STARTCHAR l.salt1
ENCODING -1
SWIDTH 750 0
DWIDTH 3 0
BBX 2 4 1 0
BITMAP
40
40
80
C0
ENDCHAR
STARTCHAR o.salt1
ENCODING -1
SWIDTH 1250 0
DWIDTH 5 0
BBX 4 4 1 0
BITMAP
30
50
A0
C0
ENDCHAR
STARTCHAR o.salt2
ENCODING -1
SWIDTH 1250 0
DWIDTH 5 0
BBX 4 4 1 0
BITMAP
60
50
A0
60
ENDCHAR
STARTCHAR uni0414.loclBGR
ENCODING -1
SWIDTH 1500 0
DWIDTH 6 0
BBX 5 4 1 0
BITMAP
38
28
70
90
ENDCHAR
STARTCHAR uni041B.loclBGR
ENCODING -1
SWIDTH 1250 0
DWIDTH 5 0
BBX 4 4 1 0
BITMAP
70
50
A0
20
ENDCHAR
STARTCHAR uni0424.loclBGR
ENCODING -1
SWIDTH 1750 0
DWIDTH 7 0
BBX 6 6 1 -1
BITMAP
10
38
54
A8
70
20
ENDCHAR
STARTCHAR uni0432.loclBGR
ENCODING -1
SWIDTH 1000 0
DWIDTH 4 0
BBX 3 4 1 0
BITMAP
60
60
A0
E0
ENDCHAR
STARTCHAR uni0433.loclBGR
ENCODING -1
SWIDTH 1250 0
DWIDTH 5 0
BBX 4 4 1 0
BITMAP
70
40
80
80
ENDCHAR
STARTCHAR uni0434.loclBGR
ENCODING -1
SWIDTH 1500 0
DWIDTH 6 0
BBX 5 4 1 0
BITMAP
38
28
70
90
ENDCHAR
STARTCHAR uni0436.loclBGR
ENCODING -1
SWIDTH 1750 0
DWIDTH 7 0
BBX 6 4 1 0
BITMAP
54
58
70
A8
ENDCHAR
STARTCHAR uni0437.loclBGR
ENCODING -1
SWIDTH 1250 0
DWIDTH 5 0
BBX 4 4 1 0
BITMAP
60
10
60
E0
ENDCHAR
STARTCHAR uni0438.loclBGR
ENCODING -1
SWIDTH 1500 0
DWIDTH 6 0
BBX 5 4 1 0
BITMAP
48
48
B0
D0
ENDCHAR
STARTCHAR uni0439.loclBGR
ENCODING -1
SWIDTH 1500 0
DWIDTH 6 0
BBX 6 7 1 0
BITMAP
14
38
00
48
48
B0
D0
ENDCHAR
STARTCHAR uni043A.loclBGR
ENCODING -1
SWIDTH 1250 0
DWIDTH 5 0
BBX 4 4 1 0
BITMAP
50
60
C0
A0
ENDCHAR
STARTCHAR uni043B.loclBGR
ENCODING -1
SWIDTH 1250 0
DWIDTH 5 0
BBX 4 4 1 0
BITMAP
70
50
A0
20
ENDCHAR
STARTCHAR uni043F.loclBGR
ENCODING -1
SWIDTH 1250 0
DWIDTH 5 0
BBX 4 4 1 0
BITMAP
70
50
A0
A0
ENDCHAR
STARTCHAR uni0442.loclBGR
ENCODING -1
SWIDTH 1000 0
DWIDTH 4 0
BBX 3 4 1 0
BITMAP
E0
40
80
80
ENDCHAR
STARTCHAR uni0446.loclBGR
ENCODING -1
SWIDTH 1250 0
DWIDTH 5 0
BBX 4 5 1 -1
BITMAP
50
50
A0
E0
20
ENDCHAR
STARTCHAR uni0448.loclBGR
ENCODING -1
SWIDTH 1750 0
DWIDTH 7 0
BBX 6 4 1 0
BITMAP
54
54
A8
F8
ENDCHAR
STARTCHAR uni0449.loclBGR
ENCODING -1
SWIDTH 1750 0
DWIDTH 7 0
BBX 6 5 1 -1
BITMAP
54
54
A8
F8
08
ENDCHAR
STARTCHAR uni044C.loclBGR
ENCODING -1
SWIDTH 1250 0
DWIDTH 5 0
BBX 4 4 1 0
BITMAP
40
70
A0
E0
ENDCHAR
STARTCHAR uni044A.loclBGR
ENCODING -1
SWIDTH 1250 0
DWIDTH 5 0
BBX 4 4 1 0
BITMAP
C0
70
A0
E0
ENDCHAR
STARTCHAR uni044E.loclBGR
ENCODING -1
SWIDTH 1750 0
DWIDTH 7 0
BBX 6 4 1 0
BITMAP
5C
54
E8
B8
ENDCHAR
STARTCHAR uni0453.loclMKD
ENCODING -1
SWIDTH 1250 0
DWIDTH 5 0
BBX 4 7 1 0
BITMAP
10
20
00
70
40
80
80
ENDCHAR
STARTCHAR uni0431.loclSRBMKD
ENCODING -1
SWIDTH 1250 0
DWIDTH 5 0
BBX 4 4 1 0
BITMAP
70
60
A0
E0
ENDCHAR
STARTCHAR uni0433.loclSRBMKD
ENCODING -1
SWIDTH 1250 0
DWIDTH 5 0
BBX 4 4 1 0
BITMAP
70
40
80
80
ENDCHAR
STARTCHAR uni0434.loclSRBMKD
ENCODING -1
SWIDTH 1500 0
DWIDTH 6 0
BBX 5 4 1 0
BITMAP
38
28
70
90
ENDCHAR
STARTCHAR uni043F.loclSRBMKD
ENCODING -1
SWIDTH 1250 0
DWIDTH 5 0
BBX 4 4 1 0
BITMAP
70
50
A0
A0
ENDCHAR
STARTCHAR uni0442.loclSRBMKD
ENCODING -1
SWIDTH 1000 0
DWIDTH 4 0
BBX 3 4 1 0
BITMAP
E0
40
80
80
ENDCHAR
STARTCHAR zero.tf
ENCODING -1
SWIDTH 1250 0
DWIDTH 5 0
BBX 4 4 1 0
BITMAP
F0
90
90
F0
ENDCHAR
STARTCHAR one.tf
ENCODING -1
SWIDTH 1250 0
DWIDTH 5 0
BBX 4 4 1 0
BITMAP
60
A0
20
F0
ENDCHAR
STARTCHAR two.tf
ENCODING -1
SWIDTH 1250 0
DWIDTH 5 0
BBX 4 4 1 0
BITMAP
E0
10
E0
F0
ENDCHAR
STARTCHAR three.tf
ENCODING -1
SWIDTH 1250 0
DWIDTH 5 0
BBX 4 4 1 0
BITMAP
E0
10
30
F0
ENDCHAR
STARTCHAR four.tf
ENCODING -1
SWIDTH 1250 0
DWIDTH 5 0
BBX 4 4 1 0
BITMAP
80
A0
F0
20
ENDCHAR
STARTCHAR five.tf
ENCODING -1
SWIDTH 1250 0
DWIDTH 5 0
BBX 4 4 1 0
BITMAP
F0
E0
10
F0
ENDCHAR
STARTCHAR six.tf
ENCODING -1
SWIDTH 1250 0
DWIDTH 5 0
BBX 4 4 1 0
BITMAP
F0
80
F0
F0
ENDCHAR
STARTCHAR seven.tf
ENCODING -1
SWIDTH 1250 0
DWIDTH 5 0
BBX 4 4 1 0
BITMAP
F0
10
20
40
ENDCHAR
STARTCHAR eight.tf
ENCODING -1
SWIDTH 1250 0
DWIDTH 5 0
BBX 4 4 1 0
BITMAP
F0
90
60
F0
ENDCHAR
STARTCHAR nine.tf
ENCODING -1
SWIDTH 1250 0
DWIDTH 5 0
BBX 4 4 1 0
BITMAP
F0
F0
10
F0
ENDCHAR
STARTCHAR uni0306.cy
ENCODING -1
SWIDTH 0 0
DWIDTH 0 0
BBX 4 2 0 5
BITMAP
50
E0
ENDCHAR
STARTCHAR uni030C.alt
ENCODING -1
SWIDTH 0 0
DWIDTH 0 0
BBX 1 2 0 3
BITMAP
80
80
ENDCHAR
ENDFONT
