STARTFONT 2.1
FONT BmPlus_Tandy1K-II_200L-8px
SIZE 8 75 75
FONTBOUNDINGBOX 8 8 0 -1
STARTPROPERTIES 3
PIXEL_SIZE 8
FONT_ASCENT 7
FONT_DESCENT 1
ENDPROPERTIES
CHARS 788
STARTCHAR uni0000
ENCODING 0
SWIDTH 1000 0
DWIDTH 8 0
BBX 8 8 0 -1
BITMAP
00
00
00
00
00
00
00
00
ENDCHAR
STARTCHAR uni0001
ENCODING 1
SWIDTH 1000 0
DWIDTH 8 0
BBX 8 8 0 -1
BITMAP
7E
81
A5
81
A5
99
81
7E
ENDCHAR
STARTCHAR uni0002
ENCODING 2
SWIDTH 1000 0
DWIDTH 8 0
BBX 8 8 0 -1
BITMAP
7E
FF
DB
FF
DB
E7
FF
7E
ENDCHAR
STARTCHAR uni0003
ENCODING 3
SWIDTH 1000 0
DWIDTH 8 0
BBX 8 8 0 -1
BITMAP
6C
FE
FE
FE
7C
38
10
00
ENDCHAR
STARTCHAR uni0004
ENCODING 4
SWIDTH 1000 0
DWIDTH 8 0
BBX 8 8 0 -1
BITMAP
10
38
7C
FE
7C
38
10
00
ENDCHAR
STARTCHAR uni0005
ENCODING 5
SWIDTH 1000 0
DWIDTH 8 0
BBX 8 8 0 -1
BITMAP
38
7C
38
FE
FE
38
38
7C
ENDCHAR
STARTCHAR uni0006
ENCODING 6
SWIDTH 1000 0
DWIDTH 8 0
BBX 8 8 0 -1
BITMAP
10
38
7C
FE
FE
7C
38
7C
ENDCHAR
STARTCHAR uni0007
ENCODING 7
SWIDTH 1000 0
DWIDTH 8 0
BBX 8 8 0 -1
BITMAP
00
00
18
3C
3C
18
00
00
ENDCHAR
STARTCHAR uni0008
ENCODING 8
SWIDTH 1000 0
DWIDTH 8 0
BBX 8 8 0 -1
BITMAP
FF
FF
E7
C3
C3
E7
FF
FF
ENDCHAR
STARTCHAR uni0009
ENCODING 9
SWIDTH 1000 0
DWIDTH 8 0
BBX 8 8 0 -1
BITMAP
00
3C
66
42
42
66
3C
00
ENDCHAR
STARTCHAR uni000A
ENCODING 10
SWIDTH 1000 0
DWIDTH 8 0
BBX 8 8 0 -1
BITMAP
FF
C3
99
BD
BD
99
C3
FF
ENDCHAR
STARTCHAR uni000B
ENCODING 11
SWIDTH 1000 0
DWIDTH 8 0
BBX 8 8 0 -1
BITMAP
0F
07
0F
7D
CC
CC
CC
78
ENDCHAR
STARTCHAR uni000C
ENCODING 12
SWIDTH 1000 0
DWIDTH 8 0
BBX 8 8 0 -1
BITMAP
3C
66
66
66
3C
18
7E
18
ENDCHAR
STARTCHAR uni000D
ENCODING 13
SWIDTH 1000 0
DWIDTH 8 0
BBX 8 8 0 -1
BITMAP
3F
33
3F
30
30
70
F0
E0
ENDCHAR
STARTCHAR uni000E
ENCODING 14
SWIDTH 1000 0
DWIDTH 8 0
BBX 8 8 0 -1
BITMAP
7F
63
7F
63
63
67
E6
C0
ENDCHAR
STARTCHAR uni000F
ENCODING 15
SWIDTH 1000 0
DWIDTH 8 0
BBX 8 8 0 -1
BITMAP
99
5A
3C
E7
E7
3C
5A
99
ENDCHAR
STARTCHAR uni0010
ENCODING 16
SWIDTH 1000 0
DWIDTH 8 0
BBX 8 8 0 -1
BITMAP
80
E0
F8
FE
F8
E0
80
00
ENDCHAR
STARTCHAR uni0011
ENCODING 17
SWIDTH 1000 0
DWIDTH 8 0
BBX 8 8 0 -1
BITMAP
02
0E
3E
FE
3E
0E
02
00
ENDCHAR
STARTCHAR uni0012
ENCODING 18
SWIDTH 1000 0
DWIDTH 8 0
BBX 8 8 0 -1
BITMAP
18
3C
7E
18
18
7E
3C
18
ENDCHAR
STARTCHAR uni0013
ENCODING 19
SWIDTH 1000 0
DWIDTH 8 0
BBX 8 8 0 -1
BITMAP
66
66
66
66
66
00
66
00
ENDCHAR
STARTCHAR uni0014
ENCODING 20
SWIDTH 1000 0
DWIDTH 8 0
BBX 8 8 0 -1
BITMAP
7F
DB
DB
7B
1B
1B
1B
00
ENDCHAR
STARTCHAR uni0015
ENCODING 21
SWIDTH 1000 0
DWIDTH 8 0
BBX 8 8 0 -1
BITMAP
3E
61
3C
66
66
3C
86
7C
ENDCHAR
STARTCHAR uni0016
ENCODING 22
SWIDTH 1000 0
DWIDTH 8 0
BBX 8 8 0 -1
BITMAP
00
00
00
00
7E
7E
7E
00
ENDCHAR
STARTCHAR uni0017
ENCODING 23
SWIDTH 1000 0
DWIDTH 8 0
BBX 8 8 0 -1
BITMAP
18
3C
7E
18
7E
3C
18
FF
ENDCHAR
STARTCHAR uni0018
ENCODING 24
SWIDTH 1000 0
DWIDTH 8 0
BBX 8 8 0 -1
BITMAP
18
3C
7E
18
18
18
18
00
ENDCHAR
STARTCHAR uni0019
ENCODING 25
SWIDTH 1000 0
DWIDTH 8 0
BBX 8 8 0 -1
BITMAP
18
18
18
18
7E
3C
18
00
ENDCHAR
STARTCHAR uni001A
ENCODING 26
SWIDTH 1000 0
DWIDTH 8 0
BBX 8 8 0 -1
BITMAP
00
18
0C
FE
0C
18
00
00
ENDCHAR
STARTCHAR uni001B
ENCODING 27
SWIDTH 1000 0
DWIDTH 8 0
BBX 8 8 0 -1
BITMAP
00
30
60
FE
60
30
00
00
ENDCHAR
STARTCHAR uni001C
ENCODING 28
SWIDTH 1000 0
DWIDTH 8 0
BBX 8 8 0 -1
BITMAP
00
00
C0
C0
C0
FE
00
00
ENDCHAR
STARTCHAR uni001D
ENCODING 29
SWIDTH 1000 0
DWIDTH 8 0
BBX 8 8 0 -1
BITMAP
00
24
66
FF
66
24
00
00
ENDCHAR
STARTCHAR uni001E
ENCODING 30
SWIDTH 1000 0
DWIDTH 8 0
BBX 8 8 0 -1
BITMAP
00
18
3C
7E
FF
FF
00
00
ENDCHAR
STARTCHAR uni001F
ENCODING 31
SWIDTH 1000 0
DWIDTH 8 0
BBX 8 8 0 -1
BITMAP
00
FF
FF
7E
3C
18
00
00
ENDCHAR
STARTCHAR space
ENCODING 32
SWIDTH 1000 0
DWIDTH 8 0
BBX 8 8 0 -1
BITMAP
00
00
00
00
00
00
00
00
ENDCHAR
STARTCHAR exclam
ENCODING 33
SWIDTH 1000 0
DWIDTH 8 0
BBX 8 8 0 -1
BITMAP
18
3C
3C
18
18
00
18
00
ENDCHAR
STARTCHAR quotedbl
ENCODING 34
SWIDTH 1000 0
DWIDTH 8 0
BBX 8 8 0 -1
BITMAP
66
66
24
00
00
00
00
00
ENDCHAR
STARTCHAR numbersign
ENCODING 35
SWIDTH 1000 0
DWIDTH 8 0
BBX 8 8 0 -1
BITMAP
6C
6C
FE
6C
FE
6C
6C
00
ENDCHAR
STARTCHAR dollar
ENCODING 36
SWIDTH 1000 0
DWIDTH 8 0
BBX 8 8 0 -1
BITMAP
18
3E
60
3C
06
7C
18
00
ENDCHAR
STARTCHAR percent
ENCODING 37
SWIDTH 1000 0
DWIDTH 8 0
BBX 8 8 0 -1
BITMAP
00
C6
CC
18
30
66
C6
00
ENDCHAR
STARTCHAR ampersand
ENCODING 38
SWIDTH 1000 0
DWIDTH 8 0
BBX 8 8 0 -1
BITMAP
38
6C
38
76
DC
CC
76
00
ENDCHAR
STARTCHAR quotesingle
ENCODING 39
SWIDTH 1000 0
DWIDTH 8 0
BBX 8 8 0 -1
BITMAP
18
18
30
00
00
00
00
00
ENDCHAR
STARTCHAR parenleft
ENCODING 40
SWIDTH 1000 0
DWIDTH 8 0
BBX 8 8 0 -1
BITMAP
0C
18
30
30
30
18
0C
00
ENDCHAR
STARTCHAR parenright
ENCODING 41
SWIDTH 1000 0
DWIDTH 8 0
BBX 8 8 0 -1
BITMAP
30
18
0C
0C
0C
18
30
00
ENDCHAR
STARTCHAR asterisk
ENCODING 42
SWIDTH 1000 0
DWIDTH 8 0
BBX 8 8 0 -1
BITMAP
00
66
3C
FF
3C
66
00
00
ENDCHAR
STARTCHAR plus
ENCODING 43
SWIDTH 1000 0
DWIDTH 8 0
BBX 8 8 0 -1
BITMAP
00
18
18
7E
18
18
00
00
ENDCHAR
STARTCHAR comma
ENCODING 44
SWIDTH 1000 0
DWIDTH 8 0
BBX 8 8 0 -1
BITMAP
00
00
00
00
00
18
18
30
ENDCHAR
STARTCHAR hyphen
ENCODING 45
SWIDTH 1000 0
DWIDTH 8 0
BBX 8 8 0 -1
BITMAP
00
00
00
7E
00
00
00
00
ENDCHAR
STARTCHAR period
ENCODING 46
SWIDTH 1000 0
DWIDTH 8 0
BBX 8 8 0 -1
BITMAP
00
00
00
00
00
18
18
00
ENDCHAR
STARTCHAR slash
ENCODING 47
SWIDTH 1000 0
DWIDTH 8 0
BBX 8 8 0 -1
BITMAP
06
0C
18
30
60
C0
80
00
ENDCHAR
STARTCHAR zero
ENCODING 48
SWIDTH 1000 0
DWIDTH 8 0
BBX 8 8 0 -1
BITMAP
38
6C
C6
D6
C6
6C
38
00
ENDCHAR
STARTCHAR one
ENCODING 49
SWIDTH 1000 0
DWIDTH 8 0
BBX 8 8 0 -1
BITMAP
18
38
18
18
18
18
7E
00
ENDCHAR
STARTCHAR two
ENCODING 50
SWIDTH 1000 0
DWIDTH 8 0
BBX 8 8 0 -1
BITMAP
7C
C6
06
1C
30
66
FE
00
ENDCHAR
STARTCHAR three
ENCODING 51
SWIDTH 1000 0
DWIDTH 8 0
BBX 8 8 0 -1
BITMAP
7C
C6
06
3C
06
C6
7C
00
ENDCHAR
STARTCHAR four
ENCODING 52
SWIDTH 1000 0
DWIDTH 8 0
BBX 8 8 0 -1
BITMAP
1C
3C
6C
CC
FE
0C
1E
00
ENDCHAR
STARTCHAR five
ENCODING 53
SWIDTH 1000 0
DWIDTH 8 0
BBX 8 8 0 -1
BITMAP
FE
C0
C0
FC
06
C6
7C
00
ENDCHAR
STARTCHAR six
ENCODING 54
SWIDTH 1000 0
DWIDTH 8 0
BBX 8 8 0 -1
BITMAP
38
60
C0
FC
C6
C6
7C
00
ENDCHAR
STARTCHAR seven
ENCODING 55
SWIDTH 1000 0
DWIDTH 8 0
BBX 8 8 0 -1
BITMAP
FE
C6
0C
18
30
30
30
00
ENDCHAR
STARTCHAR eight
ENCODING 56
SWIDTH 1000 0
DWIDTH 8 0
BBX 8 8 0 -1
BITMAP
7C
C6
C6
7C
C6
C6
7C
00
ENDCHAR
STARTCHAR nine
ENCODING 57
SWIDTH 1000 0
DWIDTH 8 0
BBX 8 8 0 -1
BITMAP
7C
C6
C6
7E
06
0C
78
00
ENDCHAR
STARTCHAR colon
ENCODING 58
SWIDTH 1000 0
DWIDTH 8 0
BBX 8 8 0 -1
BITMAP
00
18
18
00
00
18
18
00
ENDCHAR
STARTCHAR semicolon
ENCODING 59
SWIDTH 1000 0
DWIDTH 8 0
BBX 8 8 0 -1
BITMAP
00
18
18
00
00
18
18
30
ENDCHAR
STARTCHAR less
ENCODING 60
SWIDTH 1000 0
DWIDTH 8 0
BBX 8 8 0 -1
BITMAP
06
0C
18
30
18
0C
06
00
ENDCHAR
STARTCHAR equal
ENCODING 61
SWIDTH 1000 0
DWIDTH 8 0
BBX 8 8 0 -1
BITMAP
00
00
7E
00
00
7E
00
00
ENDCHAR
STARTCHAR greater
ENCODING 62
SWIDTH 1000 0
DWIDTH 8 0
BBX 8 8 0 -1
BITMAP
30
18
0C
06
0C
18
30
00
ENDCHAR
STARTCHAR question
ENCODING 63
SWIDTH 1000 0
DWIDTH 8 0
BBX 8 8 0 -1
BITMAP
7C
C6
0C
18
18
00
18
00
ENDCHAR
STARTCHAR at
ENCODING 64
SWIDTH 1000 0
DWIDTH 8 0
BBX 8 8 0 -1
BITMAP
7C
C6
DE
DE
DE
C0
78
00
ENDCHAR
STARTCHAR A
ENCODING 65
SWIDTH 1000 0
DWIDTH 8 0
BBX 8 8 0 -1
BITMAP
38
6C
C6
FE
C6
C6
C6
00
ENDCHAR
STARTCHAR B
ENCODING 66
SWIDTH 1000 0
DWIDTH 8 0
BBX 8 8 0 -1
BITMAP
FC
66
66
7C
66
66
FC
00
ENDCHAR
STARTCHAR C
ENCODING 67
SWIDTH 1000 0
DWIDTH 8 0
BBX 8 8 0 -1
BITMAP
3C
66
C0
C0
C0
66
3C
00
ENDCHAR
STARTCHAR D
ENCODING 68
SWIDTH 1000 0
DWIDTH 8 0
BBX 8 8 0 -1
BITMAP
F8
6C
66
66
66
6C
F8
00
ENDCHAR
STARTCHAR E
ENCODING 69
SWIDTH 1000 0
DWIDTH 8 0
BBX 8 8 0 -1
BITMAP
FE
62
68
78
68
62
FE
00
ENDCHAR
STARTCHAR F
ENCODING 70
SWIDTH 1000 0
DWIDTH 8 0
BBX 8 8 0 -1
BITMAP
FE
62
68
78
68
60
F0
00
ENDCHAR
STARTCHAR G
ENCODING 71
SWIDTH 1000 0
DWIDTH 8 0
BBX 8 8 0 -1
BITMAP
3C
66
C0
C0
CE
66
3A
00
ENDCHAR
STARTCHAR H
ENCODING 72
SWIDTH 1000 0
DWIDTH 8 0
BBX 8 8 0 -1
BITMAP
C6
C6
C6
FE
C6
C6
C6
00
ENDCHAR
STARTCHAR I
ENCODING 73
SWIDTH 1000 0
DWIDTH 8 0
BBX 8 8 0 -1
BITMAP
3C
18
18
18
18
18
3C
00
ENDCHAR
STARTCHAR J
ENCODING 74
SWIDTH 1000 0
DWIDTH 8 0
BBX 8 8 0 -1
BITMAP
1E
0C
0C
0C
CC
CC
78
00
ENDCHAR
STARTCHAR K
ENCODING 75
SWIDTH 1000 0
DWIDTH 8 0
BBX 8 8 0 -1
BITMAP
E6
66
6C
78
6C
66
E6
00
ENDCHAR
STARTCHAR L
ENCODING 76
SWIDTH 1000 0
DWIDTH 8 0
BBX 8 8 0 -1
BITMAP
F0
60
60
60
62
66
FE
00
ENDCHAR
STARTCHAR M
ENCODING 77
SWIDTH 1000 0
DWIDTH 8 0
BBX 8 8 0 -1
BITMAP
C6
EE
FE
FE
D6
C6
C6
00
ENDCHAR
STARTCHAR N
ENCODING 78
SWIDTH 1000 0
DWIDTH 8 0
BBX 8 8 0 -1
BITMAP
C6
E6
F6
DE
CE
C6
C6
00
ENDCHAR
STARTCHAR O
ENCODING 79
SWIDTH 1000 0
DWIDTH 8 0
BBX 8 8 0 -1
BITMAP
7C
C6
C6
C6
C6
C6
7C
00
ENDCHAR
STARTCHAR P
ENCODING 80
SWIDTH 1000 0
DWIDTH 8 0
BBX 8 8 0 -1
BITMAP
FC
66
66
7C
60
60
F0
00
ENDCHAR
STARTCHAR Q
ENCODING 81
SWIDTH 1000 0
DWIDTH 8 0
BBX 8 8 0 -1
BITMAP
7C
C6
C6
C6
C6
CE
7C
0E
ENDCHAR
STARTCHAR R
ENCODING 82
SWIDTH 1000 0
DWIDTH 8 0
BBX 8 8 0 -1
BITMAP
FC
66
66
78
6C
66
E6
00
ENDCHAR
STARTCHAR S
ENCODING 83
SWIDTH 1000 0
DWIDTH 8 0
BBX 8 8 0 -1
BITMAP
3C
66
30
18
0C
66
3C
00
ENDCHAR
STARTCHAR T
ENCODING 84
SWIDTH 1000 0
DWIDTH 8 0
BBX 8 8 0 -1
BITMAP
7E
5A
18
18
18
18
3C
00
ENDCHAR
STARTCHAR U
ENCODING 85
SWIDTH 1000 0
DWIDTH 8 0
BBX 8 8 0 -1
BITMAP
C6
C6
C6
C6
C6
C6
7C
00
ENDCHAR
STARTCHAR V
ENCODING 86
SWIDTH 1000 0
DWIDTH 8 0
BBX 8 8 0 -1
BITMAP
C6
C6
C6
C6
C6
6C
38
00
ENDCHAR
STARTCHAR W
ENCODING 87
SWIDTH 1000 0
DWIDTH 8 0
BBX 8 8 0 -1
BITMAP
C6
C6
C6
D6
D6
FE
6C
00
ENDCHAR
STARTCHAR X
ENCODING 88
SWIDTH 1000 0
DWIDTH 8 0
BBX 8 8 0 -1
BITMAP
C6
C6
6C
38
6C
C6
C6
00
ENDCHAR
STARTCHAR Y
ENCODING 89
SWIDTH 1000 0
DWIDTH 8 0
BBX 8 8 0 -1
BITMAP
66
66
66
3C
18
18
3C
00
ENDCHAR
STARTCHAR Z
ENCODING 90
SWIDTH 1000 0
DWIDTH 8 0
BBX 8 8 0 -1
BITMAP
FE
C6
8C
18
32
66
FE
00
ENDCHAR
STARTCHAR bracketleft
ENCODING 91
SWIDTH 1000 0
DWIDTH 8 0
BBX 8 8 0 -1
BITMAP
3C
30
30
30
30
30
3C
00
ENDCHAR
STARTCHAR backslash
ENCODING 92
SWIDTH 1000 0
DWIDTH 8 0
BBX 8 8 0 -1
BITMAP
C0
60
30
18
0C
06
02
00
ENDCHAR
STARTCHAR bracketright
ENCODING 93
SWIDTH 1000 0
DWIDTH 8 0
BBX 8 8 0 -1
BITMAP
3C
0C
0C
0C
0C
0C
3C
00
ENDCHAR
STARTCHAR asciicircum
ENCODING 94
SWIDTH 1000 0
DWIDTH 8 0
BBX 8 8 0 -1
BITMAP
10
38
6C
C6
00
00
00
00
ENDCHAR
STARTCHAR underscore
ENCODING 95
SWIDTH 1000 0
DWIDTH 8 0
BBX 8 8 0 -1
BITMAP
00
00
00
00
00
00
00
FF
ENDCHAR
STARTCHAR grave
ENCODING 96
SWIDTH 1000 0
DWIDTH 8 0
BBX 8 8 0 -1
BITMAP
30
18
0C
00
00
00
00
00
ENDCHAR
STARTCHAR a
ENCODING 97
SWIDTH 1000 0
DWIDTH 8 0
BBX 8 8 0 -1
BITMAP
00
00
78
0C
7C
CC
76
00
ENDCHAR
STARTCHAR b
ENCODING 98
SWIDTH 1000 0
DWIDTH 8 0
BBX 8 8 0 -1
BITMAP
E0
60
7C
66
66
66
DC
00
ENDCHAR
STARTCHAR c
ENCODING 99
SWIDTH 1000 0
DWIDTH 8 0
BBX 8 8 0 -1
BITMAP
00
00
7C
C6
C0
C6
7C
00
ENDCHAR
STARTCHAR d
ENCODING 100
SWIDTH 1000 0
DWIDTH 8 0
BBX 8 8 0 -1
BITMAP
1C
0C
7C
CC
CC
CC
76
00
ENDCHAR
STARTCHAR e
ENCODING 101
SWIDTH 1000 0
DWIDTH 8 0
BBX 8 8 0 -1
BITMAP
00
00
7C
C6
FE
C0
7C
00
ENDCHAR
STARTCHAR f
ENCODING 102
SWIDTH 1000 0
DWIDTH 8 0
BBX 8 8 0 -1
BITMAP
3C
66
60
F8
60
60
F0
00
ENDCHAR
STARTCHAR g
ENCODING 103
SWIDTH 1000 0
DWIDTH 8 0
BBX 8 8 0 -1
BITMAP
00
00
76
CC
CC
7C
0C
F8
ENDCHAR
STARTCHAR h
ENCODING 104
SWIDTH 1000 0
DWIDTH 8 0
BBX 8 8 0 -1
BITMAP
E0
60
6C
76
66
66
E6
00
ENDCHAR
STARTCHAR i
ENCODING 105
SWIDTH 1000 0
DWIDTH 8 0
BBX 8 8 0 -1
BITMAP
18
00
38
18
18
18
3C
00
ENDCHAR
STARTCHAR j
ENCODING 106
SWIDTH 1000 0
DWIDTH 8 0
BBX 8 8 0 -1
BITMAP
06
00
06
06
06
66
66
3C
ENDCHAR
STARTCHAR k
ENCODING 107
SWIDTH 1000 0
DWIDTH 8 0
BBX 8 8 0 -1
BITMAP
E0
60
66
6C
78
6C
E6
00
ENDCHAR
STARTCHAR l
ENCODING 108
SWIDTH 1000 0
DWIDTH 8 0
BBX 8 8 0 -1
BITMAP
38
18
18
18
18
18
3C
00
ENDCHAR
STARTCHAR m
ENCODING 109
SWIDTH 1000 0
DWIDTH 8 0
BBX 8 8 0 -1
BITMAP
00
00
EC
FE
D6
D6
D6
00
ENDCHAR
STARTCHAR n
ENCODING 110
SWIDTH 1000 0
DWIDTH 8 0
BBX 8 8 0 -1
BITMAP
00
00
DC
66
66
66
66
00
ENDCHAR
STARTCHAR o
ENCODING 111
SWIDTH 1000 0
DWIDTH 8 0
BBX 8 8 0 -1
BITMAP
00
00
7C
C6
C6
C6
7C
00
ENDCHAR
STARTCHAR p
ENCODING 112
SWIDTH 1000 0
DWIDTH 8 0
BBX 8 8 0 -1
BITMAP
00
00
DC
66
66
7C
60
F0
ENDCHAR
STARTCHAR q
ENCODING 113
SWIDTH 1000 0
DWIDTH 8 0
BBX 8 8 0 -1
BITMAP
00
00
76
CC
CC
7C
0C
1E
ENDCHAR
STARTCHAR r
ENCODING 114
SWIDTH 1000 0
DWIDTH 8 0
BBX 8 8 0 -1
BITMAP
00
00
DC
76
60
60
F0
00
ENDCHAR
STARTCHAR s
ENCODING 115
SWIDTH 1000 0
DWIDTH 8 0
BBX 8 8 0 -1
BITMAP
00
00
7E
C0
7C
06
FC
00
ENDCHAR
STARTCHAR t
ENCODING 116
SWIDTH 1000 0
DWIDTH 8 0
BBX 8 8 0 -1
BITMAP
30
30
FC
30
30
36
1C
00
ENDCHAR
STARTCHAR u
ENCODING 117
SWIDTH 1000 0
DWIDTH 8 0
BBX 8 8 0 -1
BITMAP
00
00
CC
CC
CC
CC
76
00
ENDCHAR
STARTCHAR v
ENCODING 118
SWIDTH 1000 0
DWIDTH 8 0
BBX 8 8 0 -1
BITMAP
00
00
C6
C6
C6
6C
38
00
ENDCHAR
STARTCHAR w
ENCODING 119
SWIDTH 1000 0
DWIDTH 8 0
BBX 8 8 0 -1
BITMAP
00
00
C6
D6
D6
FE
6C
00
ENDCHAR
STARTCHAR x
ENCODING 120
SWIDTH 1000 0
DWIDTH 8 0
BBX 8 8 0 -1
BITMAP
00
00
C6
6C
38
6C
C6
00
ENDCHAR
STARTCHAR y
ENCODING 121
SWIDTH 1000 0
DWIDTH 8 0
BBX 8 8 0 -1
BITMAP
00
00
C6
C6
C6
7E
06
FC
ENDCHAR
STARTCHAR z
ENCODING 122
SWIDTH 1000 0
DWIDTH 8 0
BBX 8 8 0 -1
BITMAP
00
00
7E
4C
18
32
7E
00
ENDCHAR
STARTCHAR braceleft
ENCODING 123
SWIDTH 1000 0
DWIDTH 8 0
BBX 8 8 0 -1
BITMAP
0E
18
18
70
18
18
0E
00
ENDCHAR
STARTCHAR bar
ENCODING 124
SWIDTH 1000 0
DWIDTH 8 0
BBX 8 8 0 -1
BITMAP
18
18
18
18
00
18
18
18
ENDCHAR
STARTCHAR braceright
ENCODING 125
SWIDTH 1000 0
DWIDTH 8 0
BBX 8 8 0 -1
BITMAP
70
18
18
0E
18
18
70
00
ENDCHAR
STARTCHAR asciitilde
ENCODING 126
SWIDTH 1000 0
DWIDTH 8 0
BBX 8 8 0 -1
BITMAP
76
DC
00
00
00
00
00
00
ENDCHAR
STARTCHAR uni007F
ENCODING 127
SWIDTH 1000 0
DWIDTH 8 0
BBX 8 8 0 -1
BITMAP
00
10
38
6C
C6
C6
FE
00
ENDCHAR
STARTCHAR uni00A0
ENCODING 160
SWIDTH 1000 0
DWIDTH 8 0
BBX 8 8 0 -1
BITMAP
00
00
00
00
00
00
00
00
ENDCHAR
STARTCHAR exclamdown
ENCODING 161
SWIDTH 1000 0
DWIDTH 8 0
BBX 8 8 0 -1
BITMAP
18
00
18
18
3C
3C
18
00
ENDCHAR
STARTCHAR cent
ENCODING 162
SWIDTH 1000 0
DWIDTH 8 0
BBX 8 8 0 -1
BITMAP
18
18
7E
C0
C0
7E
18
18
ENDCHAR
STARTCHAR sterling
ENCODING 163
SWIDTH 1000 0
DWIDTH 8 0
BBX 8 8 0 -1
BITMAP
1C
36
32
78
30
73
7E
00
ENDCHAR
STARTCHAR currency
ENCODING 164
SWIDTH 1000 0
DWIDTH 8 0
BBX 8 8 0 -1
BITMAP
00
C6
7C
C6
C6
7C
C6
00
ENDCHAR
STARTCHAR yen
ENCODING 165
SWIDTH 1000 0
DWIDTH 8 0
BBX 8 8 0 -1
BITMAP
66
66
3C
7E
18
7E
18
18
ENDCHAR
STARTCHAR brokenbar
ENCODING 166
SWIDTH 1000 0
DWIDTH 8 0
BBX 8 8 0 -1
BITMAP
18
18
18
18
00
18
18
18
ENDCHAR
STARTCHAR section
ENCODING 167
SWIDTH 1000 0
DWIDTH 8 0
BBX 8 8 0 -1
BITMAP
3E
61
3C
66
66
3C
86
7C
ENDCHAR
STARTCHAR dieresis
ENCODING 168
SWIDTH 1000 0
DWIDTH 8 0
BBX 8 8 0 -1
BITMAP
00
C6
00
00
00
00
00
00
ENDCHAR
STARTCHAR copyright
ENCODING 169
SWIDTH 1000 0
DWIDTH 8 0
BBX 8 8 0 -1
BITMAP
7E
81
9D
A1
A1
9D
81
7E
ENDCHAR
STARTCHAR ordfeminine
ENCODING 170
SWIDTH 1000 0
DWIDTH 8 0
BBX 8 8 0 -1
BITMAP
3C
6C
6C
3E
00
7E
00
00
ENDCHAR
STARTCHAR guillemotleft
ENCODING 171
SWIDTH 1000 0
DWIDTH 8 0
BBX 8 8 0 -1
BITMAP
00
33
66
CC
66
33
00
00
ENDCHAR
STARTCHAR logicalnot
ENCODING 172
SWIDTH 1000 0
DWIDTH 8 0
BBX 8 8 0 -1
BITMAP
00
00
00
7E
06
06
00
00
ENDCHAR
STARTCHAR uni00AD
ENCODING 173
SWIDTH 1000 0
DWIDTH 8 0
BBX 8 8 0 -1
BITMAP
00
00
00
7E
00
00
00
00
ENDCHAR
STARTCHAR registered
ENCODING 174
SWIDTH 1000 0
DWIDTH 8 0
BBX 8 8 0 -1
BITMAP
7E
81
B9
A5
B9
A5
81
7E
ENDCHAR
STARTCHAR macron
ENCODING 175
SWIDTH 1000 0
DWIDTH 8 0
BBX 8 8 0 -1
BITMAP
FF
00
00
00
00
00
00
00
ENDCHAR
STARTCHAR degree
ENCODING 176
SWIDTH 1000 0
DWIDTH 8 0
BBX 8 8 0 -1
BITMAP
38
6C
6C
38
00
00
00
00
ENDCHAR
STARTCHAR plusminus
ENCODING 177
SWIDTH 1000 0
DWIDTH 8 0
BBX 8 8 0 -1
BITMAP
18
18
7E
18
18
00
7E
00
ENDCHAR
STARTCHAR uni00B2
ENCODING 178
SWIDTH 1000 0
DWIDTH 8 0
BBX 8 8 0 -1
BITMAP
78
0C
18
30
7C
00
00
00
ENDCHAR
STARTCHAR uni00B3
ENCODING 179
SWIDTH 1000 0
DWIDTH 8 0
BBX 8 8 0 -1
BITMAP
78
0C
38
0C
78
00
00
00
ENDCHAR
STARTCHAR acute
ENCODING 180
SWIDTH 1000 0
DWIDTH 8 0
BBX 8 8 0 -1
BITMAP
0C
18
30
00
00
00
00
00
ENDCHAR
STARTCHAR mu
ENCODING 181
SWIDTH 1000 0
DWIDTH 8 0
BBX 8 8 0 -1
BITMAP
00
33
33
33
33
3E
30
60
ENDCHAR
STARTCHAR paragraph
ENCODING 182
SWIDTH 1000 0
DWIDTH 8 0
BBX 8 8 0 -1
BITMAP
7F
DB
DB
7B
1B
1B
1B
00
ENDCHAR
STARTCHAR periodcentered
ENCODING 183
SWIDTH 1000 0
DWIDTH 8 0
BBX 8 8 0 -1
BITMAP
00
00
00
00
18
00
00
00
ENDCHAR
STARTCHAR cedilla
ENCODING 184
SWIDTH 1000 0
DWIDTH 8 0
BBX 8 8 0 -1
BITMAP
00
00
00
00
00
18
0C
38
ENDCHAR
STARTCHAR uni00B9
ENCODING 185
SWIDTH 1000 0
DWIDTH 8 0
BBX 8 8 0 -1
BITMAP
18
38
18
18
3C
00
00
00
ENDCHAR
STARTCHAR ordmasculine
ENCODING 186
SWIDTH 1000 0
DWIDTH 8 0
BBX 8 8 0 -1
BITMAP
38
6C
6C
38
00
7C
00
00
ENDCHAR
STARTCHAR guillemotright
ENCODING 187
SWIDTH 1000 0
DWIDTH 8 0
BBX 8 8 0 -1
BITMAP
00
CC
66
33
66
CC
00
00
ENDCHAR
STARTCHAR onequarter
ENCODING 188
SWIDTH 1000 0
DWIDTH 8 0
BBX 8 8 0 -1
BITMAP
63
E6
6C
7A
36
6A
DF
06
ENDCHAR
STARTCHAR onehalf
ENCODING 189
SWIDTH 1000 0
DWIDTH 8 0
BBX 8 8 0 -1
BITMAP
63
E6
6C
7E
33
66
CC
0F
ENDCHAR
STARTCHAR threequarters
ENCODING 190
SWIDTH 1000 0
DWIDTH 8 0
BBX 8 8 0 -1
BITMAP
E1
32
E4
3A
F6
2A
5F
86
ENDCHAR
STARTCHAR questiondown
ENCODING 191
SWIDTH 1000 0
DWIDTH 8 0
BBX 8 8 0 -1
BITMAP
18
00
18
18
30
63
3E
00
ENDCHAR
STARTCHAR Agrave
ENCODING 192
SWIDTH 1000 0
DWIDTH 8 0
BBX 8 8 0 -1
BITMAP
18
0C
38
6C
C6
FE
C6
00
ENDCHAR
STARTCHAR Aacute
ENCODING 193
SWIDTH 1000 0
DWIDTH 8 0
BBX 8 8 0 -1
BITMAP
30
60
38
6C
C6
FE
C6
00
ENDCHAR
STARTCHAR Acircumflex
ENCODING 194
SWIDTH 1000 0
DWIDTH 8 0
BBX 8 8 0 -1
BITMAP
38
44
38
6C
C6
FE
C6
00
ENDCHAR
STARTCHAR Atilde
ENCODING 195
SWIDTH 1000 0
DWIDTH 8 0
BBX 8 8 0 -1
BITMAP
76
DC
38
6C
C6
FE
C6
00
ENDCHAR
STARTCHAR Adieresis
ENCODING 196
SWIDTH 1000 0
DWIDTH 8 0
BBX 8 8 0 -1
BITMAP
C6
38
6C
C6
FE
C6
C6
00
ENDCHAR
STARTCHAR Aring
ENCODING 197
SWIDTH 1000 0
DWIDTH 8 0
BBX 8 8 0 -1
BITMAP
38
38
6C
C6
FE
C6
C6
00
ENDCHAR
STARTCHAR AE
ENCODING 198
SWIDTH 1000 0
DWIDTH 8 0
BBX 8 8 0 -1
BITMAP
3E
6C
CC
FE
CC
CC
CE
00
ENDCHAR
STARTCHAR Ccedilla
ENCODING 199
SWIDTH 1000 0
DWIDTH 8 0
BBX 8 8 0 -1
BITMAP
00
7C
C6
C0
C0
C6
7C
18
ENDCHAR
STARTCHAR Egrave
ENCODING 200
SWIDTH 1000 0
DWIDTH 8 0
BBX 8 8 0 -1
BITMAP
30
18
FE
C0
FC
C0
FE
00
ENDCHAR
STARTCHAR Eacute
ENCODING 201
SWIDTH 1000 0
DWIDTH 8 0
BBX 8 8 0 -1
BITMAP
18
30
FE
C0
F8
C0
FE
00
ENDCHAR
STARTCHAR Ecircumflex
ENCODING 202
SWIDTH 1000 0
DWIDTH 8 0
BBX 8 8 0 -1
BITMAP
38
44
FE
C0
FC
C0
FE
00
ENDCHAR
STARTCHAR Edieresis
ENCODING 203
SWIDTH 1000 0
DWIDTH 8 0
BBX 8 8 0 -1
BITMAP
C6
00
FE
C0
FC
C0
FE
00
ENDCHAR
STARTCHAR Igrave
ENCODING 204
SWIDTH 1000 0
DWIDTH 8 0
BBX 8 8 0 -1
BITMAP
30
18
3C
18
18
18
3C
00
ENDCHAR
STARTCHAR Iacute
ENCODING 205
SWIDTH 1000 0
DWIDTH 8 0
BBX 8 8 0 -1
BITMAP
0C
18
3C
18
18
18
3C
00
ENDCHAR
STARTCHAR Icircumflex
ENCODING 206
SWIDTH 1000 0
DWIDTH 8 0
BBX 8 8 0 -1
BITMAP
3C
42
3C
18
18
18
3C
00
ENDCHAR
STARTCHAR Idieresis
ENCODING 207
SWIDTH 1000 0
DWIDTH 8 0
BBX 8 8 0 -1
BITMAP
66
00
3C
18
18
18
3C
00
ENDCHAR
STARTCHAR Eth
ENCODING 208
SWIDTH 1000 0
DWIDTH 8 0
BBX 8 8 0 -1
BITMAP
F8
6C
66
F6
66
6C
F8
00
ENDCHAR
STARTCHAR Ntilde
ENCODING 209
SWIDTH 1000 0
DWIDTH 8 0
BBX 8 8 0 -1
BITMAP
76
DC
C6
E6
D6
CE
C6
00
ENDCHAR
STARTCHAR Ograve
ENCODING 210
SWIDTH 1000 0
DWIDTH 8 0
BBX 8 8 0 -1
BITMAP
30
18
7C
C6
C6
C6
7C
00
ENDCHAR
STARTCHAR Oacute
ENCODING 211
SWIDTH 1000 0
DWIDTH 8 0
BBX 8 8 0 -1
BITMAP
18
30
7C
C6
C6
C6
7C
00
ENDCHAR
STARTCHAR Ocircumflex
ENCODING 212
SWIDTH 1000 0
DWIDTH 8 0
BBX 8 8 0 -1
BITMAP
38
44
7C
C6
C6
C6
7C
00
ENDCHAR
STARTCHAR Otilde
ENCODING 213
SWIDTH 1000 0
DWIDTH 8 0
BBX 8 8 0 -1
BITMAP
76
DC
7C
C6
C6
C6
7C
00
ENDCHAR
STARTCHAR Odieresis
ENCODING 214
SWIDTH 1000 0
DWIDTH 8 0
BBX 8 8 0 -1
BITMAP
C6
7C
C6
C6
C6
C6
7C
00
ENDCHAR
STARTCHAR multiply
ENCODING 215
SWIDTH 1000 0
DWIDTH 8 0
BBX 8 8 0 -1
BITMAP
00
C6
6C
38
6C
C6
00
00
ENDCHAR
STARTCHAR Oslash
ENCODING 216
SWIDTH 1000 0
DWIDTH 8 0
BBX 8 8 0 -1
BITMAP
3A
6C
CE
D6
E6
6C
B8
00
ENDCHAR
STARTCHAR Ugrave
ENCODING 217
SWIDTH 1000 0
DWIDTH 8 0
BBX 8 8 0 -1
BITMAP
60
30
C6
C6
C6
C6
7C
00
ENDCHAR
STARTCHAR Uacute
ENCODING 218
SWIDTH 1000 0
DWIDTH 8 0
BBX 8 8 0 -1
BITMAP
18
30
C6
C6
C6
C6
7C
00
ENDCHAR
STARTCHAR Ucircumflex
ENCODING 219
SWIDTH 1000 0
DWIDTH 8 0
BBX 8 8 0 -1
BITMAP
38
44
00
C6
C6
C6
7C
00
ENDCHAR
STARTCHAR Udieresis
ENCODING 220
SWIDTH 1000 0
DWIDTH 8 0
BBX 8 8 0 -1
BITMAP
C6
00
C6
C6
C6
C6
7C
00
ENDCHAR
STARTCHAR Yacute
ENCODING 221
SWIDTH 1000 0
DWIDTH 8 0
BBX 8 8 0 -1
BITMAP
0C
18
66
66
3C
18
3C
00
ENDCHAR
STARTCHAR Thorn
ENCODING 222
SWIDTH 1000 0
DWIDTH 8 0
BBX 8 8 0 -1
BITMAP
F0
60
7C
66
7C
60
F0
00
ENDCHAR
STARTCHAR germandbls
ENCODING 223
SWIDTH 1000 0
DWIDTH 8 0
BBX 8 8 0 -1
BITMAP
78
CC
CC
D8
CC
C6
CC
00
ENDCHAR
STARTCHAR agrave
ENCODING 224
SWIDTH 1000 0
DWIDTH 8 0
BBX 8 8 0 -1
BITMAP
30
18
78
0C
7C
CC
76
00
ENDCHAR
STARTCHAR aacute
ENCODING 225
SWIDTH 1000 0
DWIDTH 8 0
BBX 8 8 0 -1
BITMAP
18
30
78
0C
7C
CC
76
00
ENDCHAR
STARTCHAR acircumflex
ENCODING 226
SWIDTH 1000 0
DWIDTH 8 0
BBX 8 8 0 -1
BITMAP
30
48
78
0C
7C
CC
76
00
ENDCHAR
STARTCHAR atilde
ENCODING 227
SWIDTH 1000 0
DWIDTH 8 0
BBX 8 8 0 -1
BITMAP
76
DC
78
0C
7C
CC
76
00
ENDCHAR
STARTCHAR adieresis
ENCODING 228
SWIDTH 1000 0
DWIDTH 8 0
BBX 8 8 0 -1
BITMAP
C6
00
78
0C
7C
CC
76
00
ENDCHAR
STARTCHAR aring
ENCODING 229
SWIDTH 1000 0
DWIDTH 8 0
BBX 8 8 0 -1
BITMAP
30
30
78
0C
7C
CC
76
00
ENDCHAR
STARTCHAR ae
ENCODING 230
SWIDTH 1000 0
DWIDTH 8 0
BBX 8 8 0 -1
BITMAP
00
00
7C
12
7E
90
7E
00
ENDCHAR
STARTCHAR ccedilla
ENCODING 231
SWIDTH 1000 0
DWIDTH 8 0
BBX 8 8 0 -1
BITMAP
00
00
7C
C6
C0
C6
7C
18
ENDCHAR
STARTCHAR egrave
ENCODING 232
SWIDTH 1000 0
DWIDTH 8 0
BBX 8 8 0 -1
BITMAP
30
18
7C
C6
FE
C0
7C
00
ENDCHAR
STARTCHAR eacute
ENCODING 233
SWIDTH 1000 0
DWIDTH 8 0
BBX 8 8 0 -1
BITMAP
0C
18
7C
C6
FE
C0
7C
00
ENDCHAR
STARTCHAR ecircumflex
ENCODING 234
SWIDTH 1000 0
DWIDTH 8 0
BBX 8 8 0 -1
BITMAP
38
44
7C
C6
FE
C0
7C
00
ENDCHAR
STARTCHAR edieresis
ENCODING 235
SWIDTH 1000 0
DWIDTH 8 0
BBX 8 8 0 -1
BITMAP
C6
00
7C
C6
FE
C0
7C
00
ENDCHAR
STARTCHAR igrave
ENCODING 236
SWIDTH 1000 0
DWIDTH 8 0
BBX 8 8 0 -1
BITMAP
18
0C
38
18
18
18
3C
00
ENDCHAR
STARTCHAR iacute
ENCODING 237
SWIDTH 1000 0
DWIDTH 8 0
BBX 8 8 0 -1
BITMAP
18
30
38
18
18
18
3C
00
ENDCHAR
STARTCHAR icircumflex
ENCODING 238
SWIDTH 1000 0
DWIDTH 8 0
BBX 8 8 0 -1
BITMAP
38
44
38
18
18
18
3C
00
ENDCHAR
STARTCHAR idieresis
ENCODING 239
SWIDTH 1000 0
DWIDTH 8 0
BBX 8 8 0 -1
BITMAP
66
00
38
18
18
18
3C
00
ENDCHAR
STARTCHAR eth
ENCODING 240
SWIDTH 1000 0
DWIDTH 8 0
BBX 8 8 0 -1
BITMAP
30
7E
0C
7C
CC
CC
78
00
ENDCHAR
STARTCHAR ntilde
ENCODING 241
SWIDTH 1000 0
DWIDTH 8 0
BBX 8 8 0 -1
BITMAP
76
DC
00
DC
66
66
66
00
ENDCHAR
STARTCHAR ograve
ENCODING 242
SWIDTH 1000 0
DWIDTH 8 0
BBX 8 8 0 -1
BITMAP
30
18
00
7C
C6
C6
7C
00
ENDCHAR
STARTCHAR oacute
ENCODING 243
SWIDTH 1000 0
DWIDTH 8 0
BBX 8 8 0 -1
BITMAP
18
30
00
7C
C6
C6
7C
00
ENDCHAR
STARTCHAR ocircumflex
ENCODING 244
SWIDTH 1000 0
DWIDTH 8 0
BBX 8 8 0 -1
BITMAP
38
44
00
7C
C6
C6
7C
00
ENDCHAR
STARTCHAR otilde
ENCODING 245
SWIDTH 1000 0
DWIDTH 8 0
BBX 8 8 0 -1
BITMAP
76
DC
00
7C
C6
C6
7C
00
ENDCHAR
STARTCHAR odieresis
ENCODING 246
SWIDTH 1000 0
DWIDTH 8 0
BBX 8 8 0 -1
BITMAP
C6
00
00
7C
C6
C6
7C
00
ENDCHAR
STARTCHAR divide
ENCODING 247
SWIDTH 1000 0
DWIDTH 8 0
BBX 8 8 0 -1
BITMAP
00
18
00
7E
00
18
00
00
ENDCHAR
STARTCHAR oslash
ENCODING 248
SWIDTH 1000 0
DWIDTH 8 0
BBX 8 8 0 -1
BITMAP
00
02
7C
CE
D6
E6
7C
80
ENDCHAR
STARTCHAR ugrave
ENCODING 249
SWIDTH 1000 0
DWIDTH 8 0
BBX 8 8 0 -1
BITMAP
60
30
CC
CC
CC
CC
76
00
ENDCHAR
STARTCHAR uacute
ENCODING 250
SWIDTH 1000 0
DWIDTH 8 0
BBX 8 8 0 -1
BITMAP
18
30
CC
CC
CC
CC
76
00
ENDCHAR
STARTCHAR ucircumflex
ENCODING 251
SWIDTH 1000 0
DWIDTH 8 0
BBX 8 8 0 -1
BITMAP
30
48
00
CC
CC
CC
76
00
ENDCHAR
STARTCHAR udieresis
ENCODING 252
SWIDTH 1000 0
DWIDTH 8 0
BBX 8 8 0 -1
BITMAP
CC
00
CC
CC
CC
CC
76
00
ENDCHAR
STARTCHAR yacute
ENCODING 253
SWIDTH 1000 0
DWIDTH 8 0
BBX 8 8 0 -1
BITMAP
18
30
C6
C6
C6
7E
06
FC
ENDCHAR
STARTCHAR thorn
ENCODING 254
SWIDTH 1000 0
DWIDTH 8 0
BBX 8 8 0 -1
BITMAP
E0
60
7C
66
66
7C
60
F0
ENDCHAR
STARTCHAR ydieresis
ENCODING 255
SWIDTH 1000 0
DWIDTH 8 0
BBX 8 8 0 -1
BITMAP
C6
00
C6
C6
C6
7E
06
FC
ENDCHAR
STARTCHAR Amacron
ENCODING 256
SWIDTH 1000 0
DWIDTH 8 0
BBX 8 8 0 -1
BITMAP
FE
00
38
6C
C6
FE
C6
00
ENDCHAR
STARTCHAR amacron
ENCODING 257
SWIDTH 1000 0
DWIDTH 8 0
BBX 8 8 0 -1
BITMAP
7C
00
78
0C
7C
CC
76
00
ENDCHAR
STARTCHAR Abreve
ENCODING 258
SWIDTH 1000 0
DWIDTH 8 0
BBX 8 8 0 -1
BITMAP
C6
7C
38
6C
C6
FE
C6
00
ENDCHAR
STARTCHAR abreve
ENCODING 259
SWIDTH 1000 0
DWIDTH 8 0
BBX 8 8 0 -1
BITMAP
CC
78
78
0C
7C
CC
76
00
ENDCHAR
STARTCHAR Aogonek
ENCODING 260
SWIDTH 1000 0
DWIDTH 8 0
BBX 8 8 0 -1
BITMAP
38
6C
C6
FE
C6
D6
18
0E
ENDCHAR
STARTCHAR aogonek
ENCODING 261
SWIDTH 1000 0
DWIDTH 8 0
BBX 8 8 0 -1
BITMAP
00
00
78
0C
7C
CC
76
0F
ENDCHAR
STARTCHAR Cacute
ENCODING 262
SWIDTH 1000 0
DWIDTH 8 0
BBX 8 8 0 -1
BITMAP
0C
18
7C
C6
C0
C6
7C
00
ENDCHAR
STARTCHAR cacute
ENCODING 263
SWIDTH 1000 0
DWIDTH 8 0
BBX 8 8 0 -1
BITMAP
0C
18
3C
66
60
66
3C
00
ENDCHAR
STARTCHAR Ccircumflex
ENCODING 264
SWIDTH 1000 0
DWIDTH 8 0
BBX 8 8 0 -1
BITMAP
7C
82
7C
C6
C0
C6
7C
00
ENDCHAR
STARTCHAR ccircumflex
ENCODING 265
SWIDTH 1000 0
DWIDTH 8 0
BBX 8 8 0 -1
BITMAP
7E
81
3C
66
60
66
3C
00
ENDCHAR
STARTCHAR Cdotaccent
ENCODING 266
SWIDTH 1000 0
DWIDTH 8 0
BBX 8 8 0 -1
BITMAP
30
00
7C
C6
C0
C6
7C
00
ENDCHAR
STARTCHAR cdotaccent
ENCODING 267
SWIDTH 1000 0
DWIDTH 8 0
BBX 8 8 0 -1
BITMAP
18
00
3C
66
60
66
3C
00
ENDCHAR
STARTCHAR Ccaron
ENCODING 268
SWIDTH 1000 0
DWIDTH 8 0
BBX 8 8 0 -1
BITMAP
44
38
7C
C6
C0
C6
7C
00
ENDCHAR
STARTCHAR ccaron
ENCODING 269
SWIDTH 1000 0
DWIDTH 8 0
BBX 8 8 0 -1
BITMAP
24
18
3C
66
60
66
3C
00
ENDCHAR
STARTCHAR Dcaron
ENCODING 270
SWIDTH 1000 0
DWIDTH 8 0
BBX 8 8 0 -1
BITMAP
48
30
FC
66
66
66
FC
00
ENDCHAR
STARTCHAR dcaron
ENCODING 271
SWIDTH 1000 0
DWIDTH 8 0
BBX 8 7 0 0
BITMAP
1D
0F
7E
CC
CC
CC
7E
ENDCHAR
STARTCHAR Dcroat
ENCODING 272
SWIDTH 1000 0
DWIDTH 8 0
BBX 8 8 0 -1
BITMAP
7C
66
66
F6
66
66
7C
00
ENDCHAR
STARTCHAR dcroat
ENCODING 273
SWIDTH 1000 0
DWIDTH 8 0
BBX 8 8 0 -1
BITMAP
0C
3E
0C
7C
CC
CC
76
00
ENDCHAR
STARTCHAR Emacron
ENCODING 274
SWIDTH 1000 0
DWIDTH 8 0
BBX 8 8 0 -1
BITMAP
FE
00
FE
C0
FC
C0
FE
00
ENDCHAR
STARTCHAR emacron
ENCODING 275
SWIDTH 1000 0
DWIDTH 8 0
BBX 8 8 0 -1
BITMAP
FE
00
7C
C6
FE
C0
7C
00
ENDCHAR
STARTCHAR Ebreve
ENCODING 276
SWIDTH 1000 0
DWIDTH 8 0
BBX 8 8 0 -1
BITMAP
C6
7C
FE
C0
FC
C0
FE
00
ENDCHAR
STARTCHAR ebreve
ENCODING 277
SWIDTH 1000 0
DWIDTH 8 0
BBX 8 8 0 -1
BITMAP
C6
7C
7C
C6
FE
C0
7C
00
ENDCHAR
STARTCHAR Edotaccent
ENCODING 278
SWIDTH 1000 0
DWIDTH 8 0
BBX 8 8 0 -1
BITMAP
18
00
FE
C0
FC
C0
FE
00
ENDCHAR
STARTCHAR edotaccent
ENCODING 279
SWIDTH 1000 0
DWIDTH 8 0
BBX 8 8 0 -1
BITMAP
18
00
7C
C6
FE
C0
7C
00
ENDCHAR
STARTCHAR Eogonek
ENCODING 280
SWIDTH 1000 0
DWIDTH 8 0
BBX 8 8 0 -1
BITMAP
FE
C0
C0
F8
C0
C0
FE
1C
ENDCHAR
STARTCHAR eogonek
ENCODING 281
SWIDTH 1000 0
DWIDTH 8 0
BBX 8 8 0 -1
BITMAP
00
00
7C
C6
FE
C0
7C
0E
ENDCHAR
STARTCHAR Ecaron
ENCODING 282
SWIDTH 1000 0
DWIDTH 8 0
BBX 8 8 0 -1
BITMAP
44
38
FE
C0
F8
C0
FE
00
ENDCHAR
STARTCHAR ecaron
ENCODING 283
SWIDTH 1000 0
DWIDTH 8 0
BBX 8 8 0 -1
BITMAP
44
38
7C
C6
FE
C0
7C
00
ENDCHAR
STARTCHAR Gcircumflex
ENCODING 284
SWIDTH 1000 0
DWIDTH 8 0
BBX 8 8 0 -1
BITMAP
7C
82
7C
C0
CE
C6
7E
00
ENDCHAR
STARTCHAR gcircumflex
ENCODING 285
SWIDTH 1000 0
DWIDTH 8 0
BBX 8 8 0 -1
BITMAP
7E
81
3C
66
66
3E
06
7C
ENDCHAR
STARTCHAR Gbreve
ENCODING 286
SWIDTH 1000 0
DWIDTH 8 0
BBX 8 8 0 -1
BITMAP
44
38
7C
C0
CE
C6
7C
00
ENDCHAR
STARTCHAR gbreve
ENCODING 287
SWIDTH 1000 0
DWIDTH 8 0
BBX 8 8 0 -1
BITMAP
24
18
3C
66
66
3E
06
7C
ENDCHAR
STARTCHAR Gdotaccent
ENCODING 288
SWIDTH 1000 0
DWIDTH 8 0
BBX 8 8 0 -1
BITMAP
30
00
7C
C0
CE
C6
7E
00
ENDCHAR
STARTCHAR gdotaccent
ENCODING 289
SWIDTH 1000 0
DWIDTH 8 0
BBX 8 8 0 -1
BITMAP
30
00
78
CC
CC
7C
0C
F8
ENDCHAR
STARTCHAR uni0122
ENCODING 290
SWIDTH 1000 0
DWIDTH 8 0
BBX 8 8 0 -1
BITMAP
3C
66
C0
CE
66
3A
0C
38
ENDCHAR
STARTCHAR uni0123
ENCODING 291
SWIDTH 1000 0
DWIDTH 8 0
BBX 8 8 0 -1
BITMAP
0E
18
76
CC
CC
7C
0C
F8
ENDCHAR
STARTCHAR Hcircumflex
ENCODING 292
SWIDTH 1000 0
DWIDTH 8 0
BBX 8 8 0 -1
BITMAP
7E
81
66
66
7E
66
66
00
ENDCHAR
STARTCHAR hcircumflex
ENCODING 293
SWIDTH 1000 0
DWIDTH 8 0
BBX 8 8 0 -1
BITMAP
7C
82
60
60
7C
66
66
00
ENDCHAR
STARTCHAR Hbar
ENCODING 294
SWIDTH 1000 0
DWIDTH 8 0
BBX 8 8 0 -1
BITMAP
66
FF
66
7E
66
66
66
00
ENDCHAR
STARTCHAR hbar
ENCODING 295
SWIDTH 1000 0
DWIDTH 8 0
BBX 8 8 0 -1
BITMAP
60
FC
60
6C
76
66
E6
00
ENDCHAR
STARTCHAR Itilde
ENCODING 296
SWIDTH 1000 0
DWIDTH 8 0
BBX 8 8 0 -1
BITMAP
76
DC
00
3C
18
18
3C
00
ENDCHAR
STARTCHAR itilde
ENCODING 297
SWIDTH 1000 0
DWIDTH 8 0
BBX 8 8 0 -1
BITMAP
76
DC
00
38
18
18
3C
00
ENDCHAR
STARTCHAR Imacron
ENCODING 298
SWIDTH 1000 0
DWIDTH 8 0
BBX 8 8 0 -1
BITMAP
7E
00
3C
18
18
18
3C
00
ENDCHAR
STARTCHAR imacron
ENCODING 299
SWIDTH 1000 0
DWIDTH 8 0
BBX 8 8 0 -1
BITMAP
7C
00
38
18
18
18
3C
00
ENDCHAR
STARTCHAR Ibreve
ENCODING 300
SWIDTH 1000 0
DWIDTH 8 0
BBX 8 8 0 -1
BITMAP
66
3C
00
3C
18
18
3C
00
ENDCHAR
STARTCHAR ibreve
ENCODING 301
SWIDTH 1000 0
DWIDTH 8 0
BBX 8 8 0 -1
BITMAP
66
3C
00
38
18
18
3C
00
ENDCHAR
STARTCHAR Iogonek
ENCODING 302
SWIDTH 1000 0
DWIDTH 8 0
BBX 8 8 0 -1
BITMAP
3C
18
18
18
18
18
3C
0E
ENDCHAR
STARTCHAR iogonek
ENCODING 303
SWIDTH 1000 0
DWIDTH 8 0
BBX 8 8 0 -1
BITMAP
18
00
38
18
18
18
3C
0E
ENDCHAR
STARTCHAR Idotaccent
ENCODING 304
SWIDTH 1000 0
DWIDTH 8 0
BBX 8 8 0 -1
BITMAP
18
00
3C
18
18
18
3C
00
ENDCHAR
STARTCHAR dotlessi
ENCODING 305
SWIDTH 1000 0
DWIDTH 8 0
BBX 8 8 0 -1
BITMAP
00
00
38
18
18
18
3C
00
ENDCHAR
STARTCHAR IJ
ENCODING 306
SWIDTH 1000 0
DWIDTH 8 0
BBX 8 8 0 -1
BITMAP
C6
C6
C6
C6
D6
D6
CC
00
ENDCHAR
STARTCHAR ij
ENCODING 307
SWIDTH 1000 0
DWIDTH 8 0
BBX 8 8 0 -1
BITMAP
C6
00
C6
C6
C6
D6
D6
0C
ENDCHAR
STARTCHAR Jcircumflex
ENCODING 308
SWIDTH 1000 0
DWIDTH 8 0
BBX 8 8 0 -1
BITMAP
3E
41
1E
0C
0C
CC
78
00
ENDCHAR
STARTCHAR jcircumflex
ENCODING 309
SWIDTH 1000 0
DWIDTH 8 0
BBX 8 8 0 -1
BITMAP
1E
21
0C
0C
0C
CC
CC
78
ENDCHAR
STARTCHAR uni0136
ENCODING 310
SWIDTH 1000 0
DWIDTH 8 0
BBX 8 8 0 -1
BITMAP
E6
66
6C
78
6C
66
E6
1C
ENDCHAR
STARTCHAR uni0137
ENCODING 311
SWIDTH 1000 0
DWIDTH 8 0
BBX 8 8 0 -1
BITMAP
E0
60
66
6C
78
6C
E6
0C
ENDCHAR
STARTCHAR kgreenlandic
ENCODING 312
SWIDTH 1000 0
DWIDTH 8 0
BBX 8 8 0 -1
BITMAP
00
00
E6
6C
78
6C
66
00
ENDCHAR
STARTCHAR Lacute
ENCODING 313
SWIDTH 1000 0
DWIDTH 8 0
BBX 8 8 0 -1
BITMAP
CC
D8
C0
C0
C0
C0
FE
00
ENDCHAR
STARTCHAR lacute
ENCODING 314
SWIDTH 1000 0
DWIDTH 8 0
BBX 8 8 0 -1
BITMAP
CC
D8
C0
C0
C0
C0
78
00
ENDCHAR
STARTCHAR uni013B
ENCODING 315
SWIDTH 1000 0
DWIDTH 8 0
BBX 8 8 0 -1
BITMAP
F0
60
60
60
62
66
FE
30
ENDCHAR
STARTCHAR uni013C
ENCODING 316
SWIDTH 1000 0
DWIDTH 8 0
BBX 8 8 0 -1
BITMAP
70
30
30
30
30
30
78
60
ENDCHAR
STARTCHAR Lcaron
ENCODING 317
SWIDTH 1000 0
DWIDTH 8 0
BBX 7 7 0 0
BITMAP
CC
CC
D8
C0
C0
C0
FE
ENDCHAR
STARTCHAR lcaron
ENCODING 318
SWIDTH 1000 0
DWIDTH 8 0
BBX 7 7 0 0
BITMAP
E6
66
6C
60
60
60
F0
ENDCHAR
STARTCHAR Ldot
ENCODING 319
SWIDTH 1000 0
DWIDTH 8 0
BBX 7 8 0 -1
BITMAP
F0
60
66
60
62
66
FE
00
ENDCHAR
STARTCHAR ldot
ENCODING 320
SWIDTH 1000 0
DWIDTH 8 0
BBX 7 8 0 -1
BITMAP
70
30
36
30
30
30
78
00
ENDCHAR
STARTCHAR Lslash
ENCODING 321
SWIDTH 1000 0
DWIDTH 8 0
BBX 7 8 0 -1
BITMAP
60
6C
78
70
60
E0
7E
00
ENDCHAR
STARTCHAR lslash
ENCODING 322
SWIDTH 1000 0
DWIDTH 8 0
BBX 7 8 0 -1
BITMAP
30
36
3C
38
30
70
DC
00
ENDCHAR
STARTCHAR Nacute
ENCODING 323
SWIDTH 1000 0
DWIDTH 8 0
BBX 7 8 0 -1
BITMAP
0C
18
E6
F6
DE
CE
C6
00
ENDCHAR
STARTCHAR nacute
ENCODING 324
SWIDTH 1000 0
DWIDTH 8 0
BBX 7 8 0 -1
BITMAP
0C
18
DC
E6
C6
C6
C6
00
ENDCHAR
STARTCHAR uni0145
ENCODING 325
SWIDTH 1000 0
DWIDTH 8 0
BBX 7 8 0 -1
BITMAP
C6
E6
F6
DE
CE
C6
C6
30
ENDCHAR
STARTCHAR uni0146
ENCODING 326
SWIDTH 1000 0
DWIDTH 8 0
BBX 7 8 0 -1
BITMAP
00
00
DC
66
66
66
66
18
ENDCHAR
STARTCHAR Ncaron
ENCODING 327
SWIDTH 1000 0
DWIDTH 8 0
BBX 7 8 0 -1
BITMAP
24
18
E6
F6
DE
CE
C6
00
ENDCHAR
STARTCHAR ncaron
ENCODING 328
SWIDTH 1000 0
DWIDTH 8 0
BBX 7 8 0 -1
BITMAP
44
38
DC
E6
C6
C6
C6
00
ENDCHAR
STARTCHAR napostrophe
ENCODING 329
SWIDTH 1000 0
DWIDTH 8 0
BBX 7 8 0 -1
BITMAP
30
60
00
7C
66
66
66
00
ENDCHAR
STARTCHAR Eng
ENCODING 330
SWIDTH 1000 0
DWIDTH 8 0
BBX 7 8 0 -1
BITMAP
C6
E6
F6
DE
CE
C6
C6
1C
ENDCHAR
STARTCHAR eng
ENCODING 331
SWIDTH 1000 0
DWIDTH 8 0
BBX 7 8 0 -1
BITMAP
00
00
DC
66
66
66
66
0C
ENDCHAR
STARTCHAR Omacron
ENCODING 332
SWIDTH 1000 0
DWIDTH 8 0
BBX 7 8 0 -1
BITMAP
FE
00
7C
C6
C6
C6
7C
00
ENDCHAR
STARTCHAR omacron
ENCODING 333
SWIDTH 1000 0
DWIDTH 8 0
BBX 7 8 0 -1
BITMAP
00
7E
00
3C
66
66
3C
00
ENDCHAR
STARTCHAR Obreve
ENCODING 334
SWIDTH 1000 0
DWIDTH 8 0
BBX 7 8 0 -1
BITMAP
C6
7C
7C
C6
C6
C6
7C
00
ENDCHAR
STARTCHAR obreve
ENCODING 335
SWIDTH 1000 0
DWIDTH 8 0
BBX 7 8 0 -1
BITMAP
66
3C
00
3C
66
66
3C
00
ENDCHAR
STARTCHAR Ohungarumlaut
ENCODING 336
SWIDTH 1000 0
DWIDTH 8 0
BBX 7 8 0 -1
BITMAP
66
CC
7C
C6
C6
C6
7C
00
ENDCHAR
STARTCHAR ohungarumlaut
ENCODING 337
SWIDTH 1000 0
DWIDTH 8 0
BBX 7 8 0 -1
BITMAP
00
66
CC
78
CC
CC
78
00
ENDCHAR
STARTCHAR OE
ENCODING 338
SWIDTH 1000 0
DWIDTH 8 0
BBX 7 8 0 -1
BITMAP
3E
6C
CC
CE
CC
6C
3E
00
ENDCHAR
STARTCHAR oe
ENCODING 339
SWIDTH 1000 0
DWIDTH 8 0
BBX 7 8 0 -1
BITMAP
00
00
7E
D8
DE
D8
7E
00
ENDCHAR
STARTCHAR Racute
ENCODING 340
SWIDTH 1000 0
DWIDTH 8 0
BBX 7 8 0 -1
BITMAP
0C
18
FC
C6
FC
D8
CC
00
ENDCHAR
STARTCHAR racute
ENCODING 341
SWIDTH 1000 0
DWIDTH 8 0
BBX 7 8 0 -1
BITMAP
18
30
CE
F0
E0
C0
C0
00
ENDCHAR
STARTCHAR uni0156
ENCODING 342
SWIDTH 1000 0
DWIDTH 8 0
BBX 7 8 0 -1
BITMAP
FC
66
66
78
6C
66
E6
18
ENDCHAR
STARTCHAR uni0157
ENCODING 343
SWIDTH 1000 0
DWIDTH 8 0
BBX 7 8 0 -1
BITMAP
00
00
DC
76
60
60
F0
60
ENDCHAR
STARTCHAR Rcaron
ENCODING 344
SWIDTH 1000 0
DWIDTH 8 0
BBX 7 8 0 -1
BITMAP
D8
70
FC
C6
FC
D8
CC
00
ENDCHAR
STARTCHAR rcaron
ENCODING 345
SWIDTH 1000 0
DWIDTH 8 0
BBX 7 8 0 -1
BITMAP
D8
70
CE
D8
E0
C0
C0
00
ENDCHAR
STARTCHAR Sacute
ENCODING 346
SWIDTH 1000 0
DWIDTH 8 0
BBX 7 8 0 -1
BITMAP
0C
18
7E
C0
7C
06
FC
00
ENDCHAR
STARTCHAR sacute
ENCODING 347
SWIDTH 1000 0
DWIDTH 8 0
BBX 7 8 0 -1
BITMAP
0C
18
3E
60
3C
06
7C
00
ENDCHAR
STARTCHAR Scircumflex
ENCODING 348
SWIDTH 1000 0
DWIDTH 8 0
BBX 7 8 0 -1
BITMAP
7C
82
7C
C0
7C
06
7C
00
ENDCHAR
STARTCHAR scircumflex
ENCODING 349
SWIDTH 1000 0
DWIDTH 8 0
BBX 7 8 0 -1
BITMAP
78
84
78
C0
78
0C
78
00
ENDCHAR
STARTCHAR Scedilla
ENCODING 350
SWIDTH 1000 0
DWIDTH 8 0
BBX 7 8 0 -1
BITMAP
3C
66
30
18
0C
66
3C
18
ENDCHAR
STARTCHAR scedilla
ENCODING 351
SWIDTH 1000 0
DWIDTH 8 0
BBX 7 8 0 -1
BITMAP
00
00
3E
60
3C
06
7C
1C
ENDCHAR
STARTCHAR Scaron
ENCODING 352
SWIDTH 1000 0
DWIDTH 8 0
BBX 7 8 0 -1
BITMAP
44
38
7E
E0
38
0E
FC
00
ENDCHAR
STARTCHAR scaron
ENCODING 353
SWIDTH 1000 0
DWIDTH 8 0
BBX 7 8 0 -1
BITMAP
24
18
3E
60
3C
06
7C
00
ENDCHAR
STARTCHAR uni0162
ENCODING 354
SWIDTH 1000 0
DWIDTH 8 0
BBX 7 8 0 -1
BITMAP
7E
18
18
18
18
18
20
38
ENDCHAR
STARTCHAR uni0163
ENCODING 355
SWIDTH 1000 0
DWIDTH 8 0
BBX 7 8 0 -1
BITMAP
60
F0
60
60
60
70
30
3C
ENDCHAR
STARTCHAR Tcaron
ENCODING 356
SWIDTH 1000 0
DWIDTH 8 0
BBX 7 8 0 -1
BITMAP
24
18
7E
18
18
18
18
00
ENDCHAR
STARTCHAR tcaron
ENCODING 357
SWIDTH 1000 0
DWIDTH 8 0
BBX 8 7 0 0
BITMAP
63
63
F6
60
60
6C
38
ENDCHAR
STARTCHAR Tbar
ENCODING 358
SWIDTH 1000 0
DWIDTH 8 0
BBX 8 8 0 -1
BITMAP
7E
5A
18
7E
18
18
3C
00
ENDCHAR
STARTCHAR tbar
ENCODING 359
SWIDTH 1000 0
DWIDTH 8 0
BBX 8 8 0 -1
BITMAP
30
30
FC
30
78
32
1C
00
ENDCHAR
STARTCHAR Utilde
ENCODING 360
SWIDTH 1000 0
DWIDTH 8 0
BBX 8 8 0 -1
BITMAP
76
DC
C6
C6
C6
C6
7C
00
ENDCHAR
STARTCHAR utilde
ENCODING 361
SWIDTH 1000 0
DWIDTH 8 0
BBX 8 8 0 -1
BITMAP
76
DC
00
CC
CC
CC
76
00
ENDCHAR
STARTCHAR Umacron
ENCODING 362
SWIDTH 1000 0
DWIDTH 8 0
BBX 8 8 0 -1
BITMAP
FC
00
C6
C6
C6
C6
7C
00
ENDCHAR
STARTCHAR umacron
ENCODING 363
SWIDTH 1000 0
DWIDTH 8 0
BBX 8 8 0 -1
BITMAP
00
FC
00
CC
CC
CC
76
00
ENDCHAR
STARTCHAR Ubreve
ENCODING 364
SWIDTH 1000 0
DWIDTH 8 0
BBX 8 8 0 -1
BITMAP
44
38
00
C6
C6
C6
7C
00
ENDCHAR
STARTCHAR ubreve
ENCODING 365
SWIDTH 1000 0
DWIDTH 8 0
BBX 8 8 0 -1
BITMAP
48
30
00
CC
CC
CC
76
00
ENDCHAR
STARTCHAR Uring
ENCODING 366
SWIDTH 1000 0
DWIDTH 8 0
BBX 8 8 0 -1
BITMAP
10
28
D6
C6
C6
C6
7C
00
ENDCHAR
STARTCHAR uring
ENCODING 367
SWIDTH 1000 0
DWIDTH 8 0
BBX 8 8 0 -1
BITMAP
30
CC
30
CC
CC
CC
76
00
ENDCHAR
STARTCHAR Uhungarumlaut
ENCODING 368
SWIDTH 1000 0
DWIDTH 8 0
BBX 8 8 0 -1
BITMAP
66
CC
C6
C6
C6
C6
7C
00
ENDCHAR
STARTCHAR uhungarumlaut
ENCODING 369
SWIDTH 1000 0
DWIDTH 8 0
BBX 8 8 0 -1
BITMAP
66
CC
00
CC
CC
CC
76
00
ENDCHAR
STARTCHAR Uogonek
ENCODING 370
SWIDTH 1000 0
DWIDTH 8 0
BBX 8 8 0 -1
BITMAP
C6
C6
C6
C6
C6
C6
7C
0E
ENDCHAR
STARTCHAR uogonek
ENCODING 371
SWIDTH 1000 0
DWIDTH 8 0
BBX 8 8 0 -1
BITMAP
00
00
CC
CC
CC
CC
76
0E
ENDCHAR
STARTCHAR Wcircumflex
ENCODING 372
SWIDTH 1000 0
DWIDTH 8 0
BBX 8 8 0 -1
BITMAP
10
28
C6
D6
D6
FE
6C
00
ENDCHAR
STARTCHAR wcircumflex
ENCODING 373
SWIDTH 1000 0
DWIDTH 8 0
BBX 8 8 0 -1
BITMAP
38
44
00
C6
D6
FE
6C
00
ENDCHAR
STARTCHAR Ycircumflex
ENCODING 374
SWIDTH 1000 0
DWIDTH 8 0
BBX 8 8 0 -1
BITMAP
18
24
00
66
3C
18
3C
00
ENDCHAR
STARTCHAR ycircumflex
ENCODING 375
SWIDTH 1000 0
DWIDTH 8 0
BBX 8 8 0 -1
BITMAP
38
44
00
C6
C6
7E
06
FC
ENDCHAR
STARTCHAR Ydieresis
ENCODING 376
SWIDTH 1000 0
DWIDTH 8 0
BBX 8 8 0 -1
BITMAP
66
00
66
66
3C
18
3C
00
ENDCHAR
STARTCHAR Zacute
ENCODING 377
SWIDTH 1000 0
DWIDTH 8 0
BBX 8 8 0 -1
BITMAP
0C
18
FE
0C
30
60
FE
00
ENDCHAR
STARTCHAR zacute
ENCODING 378
SWIDTH 1000 0
DWIDTH 8 0
BBX 8 8 0 -1
BITMAP
18
30
00
FC
18
60
FC
00
ENDCHAR
STARTCHAR Zdotaccent
ENCODING 379
SWIDTH 1000 0
DWIDTH 8 0
BBX 8 8 0 -1
BITMAP
18
FE
C6
0C
30
C6
FE
00
ENDCHAR
STARTCHAR zdotaccent
ENCODING 380
SWIDTH 1000 0
DWIDTH 8 0
BBX 8 8 0 -1
BITMAP
00
18
00
7C
18
30
7C
00
ENDCHAR
STARTCHAR Zcaron
ENCODING 381
SWIDTH 1000 0
DWIDTH 8 0
BBX 8 8 0 -1
BITMAP
44
38
FE
0C
18
60
FE
00
ENDCHAR
STARTCHAR zcaron
ENCODING 382
SWIDTH 1000 0
DWIDTH 8 0
BBX 8 8 0 -1
BITMAP
24
18
00
7E
0C
30
7E
00
ENDCHAR
STARTCHAR longs
ENCODING 383
SWIDTH 1000 0
DWIDTH 8 0
BBX 8 8 0 -1
BITMAP
1C
36
30
30
30
30
78
00
ENDCHAR
STARTCHAR florin
ENCODING 402
SWIDTH 1000 0
DWIDTH 8 0
BBX 8 8 0 -1
BITMAP
0E
1B
18
3C
18
18
D8
70
ENDCHAR
STARTCHAR ohorn
ENCODING 417
SWIDTH 1000 0
DWIDTH 8 0
BBX 8 8 0 -1
BITMAP
00
00
3F
6C
6C
6C
38
00
ENDCHAR
STARTCHAR uni01B7
ENCODING 439
SWIDTH 1000 0
DWIDTH 8 0
BBX 8 8 0 -1
BITMAP
FE
CC
18
3C
06
C6
7C
00
ENDCHAR
STARTCHAR Aringacute
ENCODING 506
SWIDTH 1000 0
DWIDTH 8 0
BBX 8 8 0 -1
BITMAP
3E
38
38
6C
C6
FE
C6
00
ENDCHAR
STARTCHAR aringacute
ENCODING 507
SWIDTH 1000 0
DWIDTH 8 0
BBX 8 8 0 -1
BITMAP
3C
30
78
0C
7C
CC
76
00
ENDCHAR
STARTCHAR AEacute
ENCODING 508
SWIDTH 1000 0
DWIDTH 8 0
BBX 8 8 0 -1
BITMAP
0C
18
3E
6C
FE
CC
CE
00
ENDCHAR
STARTCHAR aeacute
ENCODING 509
SWIDTH 1000 0
DWIDTH 8 0
BBX 8 8 0 -1
BITMAP
18
30
7C
12
7E
90
7E
00
ENDCHAR
STARTCHAR Oslashacute
ENCODING 510
SWIDTH 1000 0
DWIDTH 8 0
BBX 8 8 0 -1
BITMAP
07
3A
6C
D6
D6
6C
B8
00
ENDCHAR
STARTCHAR oslashacute
ENCODING 511
SWIDTH 1000 0
DWIDTH 8 0
BBX 8 8 0 -1
BITMAP
0C
1A
7C
CE
D6
E6
7C
80
ENDCHAR
STARTCHAR uni0218
ENCODING 536
SWIDTH 1000 0
DWIDTH 8 0
BBX 8 8 0 -1
BITMAP
3C
66
30
18
0C
66
3C
18
ENDCHAR
STARTCHAR uni0219
ENCODING 537
SWIDTH 1000 0
DWIDTH 8 0
BBX 8 8 0 -1
BITMAP
00
00
7E
C0
7C
06
FC
30
ENDCHAR
STARTCHAR uni021A
ENCODING 538
SWIDTH 1000 0
DWIDTH 8 0
BBX 8 8 0 -1
BITMAP
7E
5A
18
18
18
18
3C
18
ENDCHAR
STARTCHAR uni021B
ENCODING 539
SWIDTH 1000 0
DWIDTH 8 0
BBX 8 8 0 -1
BITMAP
30
30
FC
30
30
36
1C
30
ENDCHAR
STARTCHAR uni0251
ENCODING 593
SWIDTH 1000 0
DWIDTH 8 0
BBX 8 8 0 -1
BITMAP
00
00
3B
6E
64
6E
3B
00
ENDCHAR
STARTCHAR uni0278
ENCODING 632
SWIDTH 1000 0
DWIDTH 8 0
BBX 8 8 0 -1
BITMAP
7E
18
3C
66
66
3C
18
7E
ENDCHAR
STARTCHAR circumflex
ENCODING 710
SWIDTH 1000 0
DWIDTH 8 0
BBX 8 8 0 -1
BITMAP
10
38
6C
00
00
00
00
00
ENDCHAR
STARTCHAR caron
ENCODING 711
SWIDTH 1000 0
DWIDTH 8 0
BBX 8 8 0 -1
BITMAP
D8
70
00
00
00
00
00
00
ENDCHAR
STARTCHAR uni02C9
ENCODING 713
SWIDTH 1000 0
DWIDTH 8 0
BBX 8 8 0 -1
BITMAP
7C
00
00
00
00
00
00
00
ENDCHAR
STARTCHAR breve
ENCODING 728
SWIDTH 1000 0
DWIDTH 8 0
BBX 8 8 0 -1
BITMAP
C6
7C
00
00
00
00
00
00
ENDCHAR
STARTCHAR dotaccent
ENCODING 729
SWIDTH 1000 0
DWIDTH 8 0
BBX 8 8 0 -1
BITMAP
18
18
00
00
00
00
00
00
ENDCHAR
STARTCHAR ring
ENCODING 730
SWIDTH 1000 0
DWIDTH 8 0
BBX 8 8 0 -1
BITMAP
38
6C
6C
38
00
00
00
00
ENDCHAR
STARTCHAR ogonek
ENCODING 731
SWIDTH 1000 0
DWIDTH 8 0
BBX 8 8 0 -1
BITMAP
00
00
00
00
00
00
10
1C
ENDCHAR
STARTCHAR tilde
ENCODING 732
SWIDTH 1000 0
DWIDTH 8 0
BBX 8 8 0 -1
BITMAP
76
DC
00
00
00
00
00
00
ENDCHAR
STARTCHAR hungarumlaut
ENCODING 733
SWIDTH 1000 0
DWIDTH 8 0
BBX 8 8 0 -1
BITMAP
66
CC
00
00
00
00
00
00
ENDCHAR
STARTCHAR uni037E
ENCODING 894
SWIDTH 1000 0
DWIDTH 8 0
BBX 8 8 0 -1
BITMAP
00
18
18
00
00
18
18
30
ENDCHAR
STARTCHAR tonos
ENCODING 900
SWIDTH 1000 0
DWIDTH 8 0
BBX 8 8 0 -1
BITMAP
0C
18
10
00
00
00
00
00
ENDCHAR
STARTCHAR dieresistonos
ENCODING 901
SWIDTH 1000 0
DWIDTH 8 0
BBX 8 8 0 -1
BITMAP
08
10
C3
00
00
00
00
00
ENDCHAR
STARTCHAR Alphatonos
ENCODING 902
SWIDTH 1000 0
DWIDTH 8 0
BBX 8 8 0 -1
BITMAP
5C
B6
63
7F
63
63
63
00
ENDCHAR
STARTCHAR anoteleia
ENCODING 903
SWIDTH 1000 0
DWIDTH 8 0
BBX 8 8 0 -1
BITMAP
00
00
00
18
18
00
00
00
ENDCHAR
STARTCHAR Epsilontonos
ENCODING 904
SWIDTH 1000 0
DWIDTH 8 0
BBX 8 8 0 -1
BITMAP
5F
98
18
1E
18
18
1F
00
ENDCHAR
STARTCHAR Etatonos
ENCODING 905
SWIDTH 1000 0
DWIDTH 8 0
BBX 8 8 0 -1
BITMAP
B3
B3
33
3F
33
33
33
00
ENDCHAR
STARTCHAR Iotatonos
ENCODING 906
SWIDTH 1000 0
DWIDTH 8 0
BBX 8 8 0 -1
BITMAP
5E
8C
0C
0C
0C
0C
1E
00
ENDCHAR
STARTCHAR Omicrontonos
ENCODING 908
SWIDTH 1000 0
DWIDTH 8 0
BBX 8 8 0 -1
BITMAP
5C
B6
63
63
63
36
1C
00
ENDCHAR
STARTCHAR Upsilontonos
ENCODING 910
SWIDTH 1000 0
DWIDTH 8 0
BBX 8 8 0 -1
BITMAP
B3
B3
33
1E
0C
0C
1E
00
ENDCHAR
STARTCHAR Omegatonos
ENCODING 911
SWIDTH 1000 0
DWIDTH 8 0
BBX 8 8 0 -1
BITMAP
5C
B6
63
63
36
14
77
00
ENDCHAR
STARTCHAR iotadieresistonos
ENCODING 912
SWIDTH 1000 0
DWIDTH 8 0
BBX 8 8 0 -1
BITMAP
08
D3
18
18
18
18
1E
00
ENDCHAR
STARTCHAR Alpha
ENCODING 913
SWIDTH 1000 0
DWIDTH 8 0
BBX 8 8 0 -1
BITMAP
38
6C
C6
FE
C6
C6
C6
00
ENDCHAR
STARTCHAR Beta
ENCODING 914
SWIDTH 1000 0
DWIDTH 8 0
BBX 8 8 0 -1
BITMAP
FC
66
66
7C
66
66
FC
00
ENDCHAR
STARTCHAR Gamma
ENCODING 915
SWIDTH 1000 0
DWIDTH 8 0
BBX 8 8 0 -1
BITMAP
FE
C0
C0
C0
C0
C0
C0
00
ENDCHAR
STARTCHAR uni0394
ENCODING 916
SWIDTH 1000 0
DWIDTH 8 0
BBX 8 8 0 -1
BITMAP
10
38
6C
C6
C6
C6
FE
00
ENDCHAR
STARTCHAR Epsilon
ENCODING 917
SWIDTH 1000 0
DWIDTH 8 0
BBX 8 8 0 -1
BITMAP
FE
C0
C0
FC
C0
C0
FE
00
ENDCHAR
STARTCHAR Zeta
ENCODING 918
SWIDTH 1000 0
DWIDTH 8 0
BBX 8 8 0 -1
BITMAP
FE
06
0C
18
30
60
FE
00
ENDCHAR
STARTCHAR Eta
ENCODING 919
SWIDTH 1000 0
DWIDTH 8 0
BBX 8 8 0 -1
BITMAP
C6
C6
C6
FE
C6
C6
C6
00
ENDCHAR
STARTCHAR Theta
ENCODING 920
SWIDTH 1000 0
DWIDTH 8 0
BBX 8 8 0 -1
BITMAP
7C
C6
C6
FE
C6
C6
7C
00
ENDCHAR
STARTCHAR Iota
ENCODING 921
SWIDTH 1000 0
DWIDTH 8 0
BBX 8 8 0 -1
BITMAP
7E
18
18
18
18
18
7E
00
ENDCHAR
STARTCHAR Kappa
ENCODING 922
SWIDTH 1000 0
DWIDTH 8 0
BBX 8 8 0 -1
BITMAP
C6
CC
D8
F0
D8
CC
C6
00
ENDCHAR
STARTCHAR Lambda
ENCODING 923
SWIDTH 1000 0
DWIDTH 8 0
BBX 8 8 0 -1
BITMAP
10
38
6C
C6
C6
C6
C6
00
ENDCHAR
STARTCHAR Mu
ENCODING 924
SWIDTH 1000 0
DWIDTH 8 0
BBX 8 8 0 -1
BITMAP
C6
EE
FE
D6
C6
C6
C6
00
ENDCHAR
STARTCHAR Nu
ENCODING 925
SWIDTH 1000 0
DWIDTH 8 0
BBX 8 8 0 -1
BITMAP
C6
E6
F6
DE
CE
C6
C6
00
ENDCHAR
STARTCHAR Xi
ENCODING 926
SWIDTH 1000 0
DWIDTH 8 0
BBX 8 8 0 -1
BITMAP
FE
C6
00
38
00
C6
FE
00
ENDCHAR
STARTCHAR Omicron
ENCODING 927
SWIDTH 1000 0
DWIDTH 8 0
BBX 8 8 0 -1
BITMAP
7C
C6
C6
C6
C6
C6
7C
00
ENDCHAR
STARTCHAR Pi
ENCODING 928
SWIDTH 1000 0
DWIDTH 8 0
BBX 8 8 0 -1
BITMAP
FF
66
66
66
66
66
66
00
ENDCHAR
STARTCHAR Rho
ENCODING 929
SWIDTH 1000 0
DWIDTH 8 0
BBX 8 8 0 -1
BITMAP
FC
C6
C6
FC
C0
C0
C0
00
ENDCHAR
STARTCHAR Sigma
ENCODING 931
SWIDTH 1000 0
DWIDTH 8 0
BBX 8 8 0 -1
BITMAP
FE
C0
60
30
60
C0
FE
00
ENDCHAR
STARTCHAR Tau
ENCODING 932
SWIDTH 1000 0
DWIDTH 8 0
BBX 8 8 0 -1
BITMAP
7E
18
18
18
18
18
18
00
ENDCHAR
STARTCHAR Upsilon
ENCODING 933
SWIDTH 1000 0
DWIDTH 8 0
BBX 8 8 0 -1
BITMAP
66
66
66
3C
18
18
18
00
ENDCHAR
STARTCHAR Phi
ENCODING 934
SWIDTH 1000 0
DWIDTH 8 0
BBX 8 8 0 -1
BITMAP
10
7C
D6
D6
7C
10
38
00
ENDCHAR
STARTCHAR Chi
ENCODING 935
SWIDTH 1000 0
DWIDTH 8 0
BBX 8 8 0 -1
BITMAP
C6
C6
6C
38
6C
C6
C6
00
ENDCHAR
STARTCHAR Psi
ENCODING 936
SWIDTH 1000 0
DWIDTH 8 0
BBX 8 8 0 -1
BITMAP
10
D6
D6
D6
7C
10
38
00
ENDCHAR
STARTCHAR uni03A9
ENCODING 937
SWIDTH 1000 0
DWIDTH 8 0
BBX 8 8 0 -1
BITMAP
38
6C
C6
C6
6C
28
EE
00
ENDCHAR
STARTCHAR Iotadieresis
ENCODING 938
SWIDTH 1000 0
DWIDTH 8 0
BBX 8 8 0 -1
BITMAP
C3
3C
18
18
18
18
3C
00
ENDCHAR
STARTCHAR Upsilondieresis
ENCODING 939
SWIDTH 1000 0
DWIDTH 8 0
BBX 8 8 0 -1
BITMAP
66
00
66
66
3C
18
3C
00
ENDCHAR
STARTCHAR alphatonos
ENCODING 940
SWIDTH 1000 0
DWIDTH 8 0
BBX 8 8 0 -1
BITMAP
08
10
76
CC
CC
CC
76
00
ENDCHAR
STARTCHAR epsilontonos
ENCODING 941
SWIDTH 1000 0
DWIDTH 8 0
BBX 8 8 0 -1
BITMAP
08
10
7E
C0
7C
C0
7E
00
ENDCHAR
STARTCHAR etatonos
ENCODING 942
SWIDTH 1000 0
DWIDTH 8 0
BBX 8 8 0 -1
BITMAP
08
10
BC
66
66
66
66
06
ENDCHAR
STARTCHAR iotatonos
ENCODING 943
SWIDTH 1000 0
DWIDTH 8 0
BBX 8 8 0 -1
BITMAP
08
10
30
30
30
30
3C
00
ENDCHAR
STARTCHAR upsilondieresistonos
ENCODING 944
SWIDTH 1000 0
DWIDTH 8 0
BBX 8 8 0 -1
BITMAP
CB
10
E6
66
66
66
3C
00
ENDCHAR
STARTCHAR alpha
ENCODING 945
SWIDTH 1000 0
DWIDTH 8 0
BBX 8 8 0 -1
BITMAP
00
00
7A
CC
CC
CC
7A
00
ENDCHAR
STARTCHAR beta
ENCODING 946
SWIDTH 1000 0
DWIDTH 8 0
BBX 8 8 0 -1
BITMAP
78
CC
D8
FC
C6
C6
FC
80
ENDCHAR
STARTCHAR gamma
ENCODING 947
SWIDTH 1000 0
DWIDTH 8 0
BBX 8 8 0 -1
BITMAP
00
00
C6
6C
38
6C
C6
7C
ENDCHAR
STARTCHAR delta
ENCODING 948
SWIDTH 1000 0
DWIDTH 8 0
BBX 8 8 0 -1
BITMAP
7E
30
18
7C
C6
C6
7C
00
ENDCHAR
STARTCHAR epsilon
ENCODING 949
SWIDTH 1000 0
DWIDTH 8 0
BBX 8 8 0 -1
BITMAP
00
00
7E
C0
7C
C0
7E
00
ENDCHAR
STARTCHAR zeta
ENCODING 950
SWIDTH 1000 0
DWIDTH 8 0
BBX 8 8 0 -1
BITMAP
7E
06
1C
30
60
3E
02
1C
ENDCHAR
STARTCHAR eta
ENCODING 951
SWIDTH 1000 0
DWIDTH 8 0
BBX 8 8 0 -1
BITMAP
00
00
BC
66
66
66
66
06
ENDCHAR
STARTCHAR theta
ENCODING 952
SWIDTH 1000 0
DWIDTH 8 0
BBX 8 8 0 -1
BITMAP
7C
C6
E6
3E
86
C6
7C
00
ENDCHAR
STARTCHAR iota
ENCODING 953
SWIDTH 1000 0
DWIDTH 8 0
BBX 8 8 0 -1
BITMAP
00
00
30
30
30
30
1C
00
ENDCHAR
STARTCHAR kappa
ENCODING 954
SWIDTH 1000 0
DWIDTH 8 0
BBX 8 8 0 -1
BITMAP
00
00
C6
DC
F0
DC
C6
00
ENDCHAR
STARTCHAR lambda
ENCODING 955
SWIDTH 1000 0
DWIDTH 8 0
BBX 8 8 0 -1
BITMAP
7C
C6
06
1E
36
66
C6
00
ENDCHAR
STARTCHAR uni03BC
ENCODING 956
SWIDTH 1000 0
DWIDTH 8 0
BBX 8 8 0 -1
BITMAP
00
00
C6
C6
C6
E6
DD
C0
ENDCHAR
STARTCHAR nu
ENCODING 957
SWIDTH 1000 0
DWIDTH 8 0
BBX 8 8 0 -1
BITMAP
00
00
82
C6
C6
6C
38
00
ENDCHAR
STARTCHAR xi
ENCODING 958
SWIDTH 1000 0
DWIDTH 8 0
BBX 8 8 0 -1
BITMAP
7E
18
30
3C
60
3E
02
1C
ENDCHAR
STARTCHAR omicron
ENCODING 959
SWIDTH 1000 0
DWIDTH 8 0
BBX 8 8 0 -1
BITMAP
00
00
7C
C6
C6
C6
7C
00
ENDCHAR
STARTCHAR pi
ENCODING 960
SWIDTH 1000 0
DWIDTH 8 0
BBX 8 8 0 -1
BITMAP
00
00
FF
66
66
66
66
00
ENDCHAR
STARTCHAR rho
ENCODING 961
SWIDTH 1000 0
DWIDTH 8 0
BBX 8 8 0 -1
BITMAP
00
00
7C
C6
C6
FC
C0
C0
ENDCHAR
STARTCHAR sigma1
ENCODING 962
SWIDTH 1000 0
DWIDTH 8 0
BBX 8 8 0 -1
BITMAP
00
00
7E
C0
C0
7C
06
1C
ENDCHAR
STARTCHAR sigma
ENCODING 963
SWIDTH 1000 0
DWIDTH 8 0
BBX 8 8 0 -1
BITMAP
00
00
7E
D8
CC
CC
78
00
ENDCHAR
STARTCHAR tau
ENCODING 964
SWIDTH 1000 0
DWIDTH 8 0
BBX 8 8 0 -1
BITMAP
00
00
FC
30
30
36
1C
00
ENDCHAR
STARTCHAR upsilon
ENCODING 965
SWIDTH 1000 0
DWIDTH 8 0
BBX 8 8 0 -1
BITMAP
00
00
E6
66
66
66
3C
00
ENDCHAR
STARTCHAR phi
ENCODING 966
SWIDTH 1000 0
DWIDTH 8 0
BBX 8 8 0 -1
BITMAP
00
00
1C
56
D6
D6
7C
10
ENDCHAR
STARTCHAR chi
ENCODING 967
SWIDTH 1000 0
DWIDTH 8 0
BBX 8 8 0 -1
BITMAP
00
00
C2
6C
38
6C
86
00
ENDCHAR
STARTCHAR psi
ENCODING 968
SWIDTH 1000 0
DWIDTH 8 0
BBX 8 8 0 -1
BITMAP
00
00
10
D6
D6
D6
7C
10
ENDCHAR
STARTCHAR omega
ENCODING 969
SWIDTH 1000 0
DWIDTH 8 0
BBX 8 8 0 -1
BITMAP
00
00
44
D6
D6
D6
6C
00
ENDCHAR
STARTCHAR iotadieresis
ENCODING 970
SWIDTH 1000 0
DWIDTH 8 0
BBX 8 8 0 -1
BITMAP
CC
00
30
30
30
30
3C
00
ENDCHAR
STARTCHAR upsilondieresis
ENCODING 971
SWIDTH 1000 0
DWIDTH 8 0
BBX 8 8 0 -1
BITMAP
66
00
E6
66
66
66
3C
00
ENDCHAR
STARTCHAR omicrontonos
ENCODING 972
SWIDTH 1000 0
DWIDTH 8 0
BBX 8 8 0 -1
BITMAP
08
10
7C
C6
C6
C6
7C
00
ENDCHAR
STARTCHAR upsilontonos
ENCODING 973
SWIDTH 1000 0
DWIDTH 8 0
BBX 8 8 0 -1
BITMAP
08
10
E6
66
66
66
3C
00
ENDCHAR
STARTCHAR omegatonos
ENCODING 974
SWIDTH 1000 0
DWIDTH 8 0
BBX 8 8 0 -1
BITMAP
08
10
44
D6
D6
D6
6C
00
ENDCHAR
STARTCHAR uni03D0
ENCODING 976
SWIDTH 1000 0
DWIDTH 8 0
BBX 8 8 0 -1
BITMAP
78
CC
CC
D8
CC
C6
CC
00
ENDCHAR
STARTCHAR uni03F4
ENCODING 1012
SWIDTH 1000 0
DWIDTH 8 0
BBX 8 8 0 -1
BITMAP
1C
36
63
7F
63
36
1C
00
ENDCHAR
STARTCHAR uni0400
ENCODING 1024
SWIDTH 1000 0
DWIDTH 8 0
BBX 8 8 0 -1
BITMAP
60
30
FE
62
78
62
FE
00
ENDCHAR
STARTCHAR uni0401
ENCODING 1025
SWIDTH 1000 0
DWIDTH 8 0
BBX 8 8 0 -1
BITMAP
6C
00
FE
62
78
62
FE
00
ENDCHAR
STARTCHAR uni0402
ENCODING 1026
SWIDTH 1000 0
DWIDTH 8 0
BBX 8 8 0 -1
BITMAP
FC
60
7C
66
66
66
6C
00
ENDCHAR
STARTCHAR uni0403
ENCODING 1027
SWIDTH 1000 0
DWIDTH 8 0
BBX 8 8 0 -1
BITMAP
38
20
FE
C0
C0
C0
C0
00
ENDCHAR
STARTCHAR uni0404
ENCODING 1028
SWIDTH 1000 0
DWIDTH 8 0
BBX 8 8 0 -1
BITMAP
7C
C6
D0
F0
D0
C6
7C
00
ENDCHAR
STARTCHAR uni0405
ENCODING 1029
SWIDTH 1000 0
DWIDTH 8 0
BBX 8 8 0 -1
BITMAP
3C
66
30
18
0C
66
3C
00
ENDCHAR
STARTCHAR uni0406
ENCODING 1030
SWIDTH 1000 0
DWIDTH 8 0
BBX 8 8 0 -1
BITMAP
3C
18
18
18
18
18
3C
00
ENDCHAR
STARTCHAR uni0407
ENCODING 1031
SWIDTH 1000 0
DWIDTH 8 0
BBX 8 8 0 -1
BITMAP
66
00
3C
18
18
18
3C
00
ENDCHAR
STARTCHAR uni0408
ENCODING 1032
SWIDTH 1000 0
DWIDTH 8 0
BBX 8 8 0 -1
BITMAP
1E
0C
0C
0C
CC
CC
78
00
ENDCHAR
STARTCHAR uni0409
ENCODING 1033
SWIDTH 1000 0
DWIDTH 8 0
BBX 8 8 0 -1
BITMAP
F8
58
5C
5A
5A
5A
DC
00
ENDCHAR
STARTCHAR uni040A
ENCODING 1034
SWIDTH 1000 0
DWIDTH 8 0
BBX 8 8 0 -1
BITMAP
D8
D8
D8
FC
DA
DA
DC
00
ENDCHAR
STARTCHAR uni040B
ENCODING 1035
SWIDTH 1000 0
DWIDTH 8 0
BBX 8 8 0 -1
BITMAP
F8
60
7C
66
66
66
66
00
ENDCHAR
STARTCHAR uni040C
ENCODING 1036
SWIDTH 1000 0
DWIDTH 8 0
BBX 8 8 0 -1
BITMAP
18
D6
CC
F8
F8
CC
C6
00
ENDCHAR
STARTCHAR uni040D
ENCODING 1037
SWIDTH 1000 0
DWIDTH 8 0
BBX 8 8 0 -1
BITMAP
70
10
C6
CE
DE
F6
E6
00
ENDCHAR
STARTCHAR uni040E
ENCODING 1038
SWIDTH 1000 0
DWIDTH 8 0
BBX 8 8 0 -1
BITMAP
C6
6C
D6
C6
7E
06
FC
00
ENDCHAR
STARTCHAR uni040F
ENCODING 1039
SWIDTH 1000 0
DWIDTH 8 0
BBX 8 8 0 -1
BITMAP
C6
C6
C6
C6
C6
C6
FE
10
ENDCHAR
STARTCHAR uni0410
ENCODING 1040
SWIDTH 1000 0
DWIDTH 8 0
BBX 8 8 0 -1
BITMAP
3E
66
C6
FE
C6
C6
C6
00
ENDCHAR
STARTCHAR uni0411
ENCODING 1041
SWIDTH 1000 0
DWIDTH 8 0
BBX 8 8 0 -1
BITMAP
FC
64
60
78
6C
6C
F8
00
ENDCHAR
STARTCHAR uni0412
ENCODING 1042
SWIDTH 1000 0
DWIDTH 8 0
BBX 8 8 0 -1
BITMAP
FC
66
66
7C
66
66
FC
00
ENDCHAR
STARTCHAR uni0413
ENCODING 1043
SWIDTH 1000 0
DWIDTH 8 0
BBX 8 8 0 -1
BITMAP
FC
6C
64
60
60
60
F0
00
ENDCHAR
STARTCHAR uni0414
ENCODING 1044
SWIDTH 1000 0
DWIDTH 8 0
BBX 8 8 0 -1
BITMAP
38
6C
6C
7C
6C
C6
C6
00
ENDCHAR
STARTCHAR uni0415
ENCODING 1045
SWIDTH 1000 0
DWIDTH 8 0
BBX 8 8 0 -1
BITMAP
FE
62
68
78
68
62
FE
00
ENDCHAR
STARTCHAR uni0416
ENCODING 1046
SWIDTH 1000 0
DWIDTH 8 0
BBX 8 8 0 -1
BITMAP
D6
D6
54
7C
54
D6
D6
00
ENDCHAR
STARTCHAR uni0417
ENCODING 1047
SWIDTH 1000 0
DWIDTH 8 0
BBX 8 8 0 -1
BITMAP
7C
C6
06
3C
06
C6
7C
00
ENDCHAR
STARTCHAR uni0418
ENCODING 1048
SWIDTH 1000 0
DWIDTH 8 0
BBX 8 8 0 -1
BITMAP
C6
CE
DE
F6
E6
C6
C6
00
ENDCHAR
STARTCHAR uni0419
ENCODING 1049
SWIDTH 1000 0
DWIDTH 8 0
BBX 8 8 0 -1
BITMAP
6C
C6
CE
DE
F6
E6
C6
00
ENDCHAR
STARTCHAR uni041A
ENCODING 1050
SWIDTH 1000 0
DWIDTH 8 0
BBX 8 8 0 -1
BITMAP
E6
66
6C
78
6C
66
E6
00
ENDCHAR
STARTCHAR uni041B
ENCODING 1051
SWIDTH 1000 0
DWIDTH 8 0
BBX 8 8 0 -1
BITMAP
3E
66
C6
C6
C6
C6
C6
00
ENDCHAR
STARTCHAR uni041C
ENCODING 1052
SWIDTH 1000 0
DWIDTH 8 0
BBX 8 8 0 -1
BITMAP
C6
EE
FE
FE
D6
C6
C6
00
ENDCHAR
STARTCHAR uni041D
ENCODING 1053
SWIDTH 1000 0
DWIDTH 8 0
BBX 8 8 0 -1
BITMAP
C6
C6
C6
FE
C6
C6
C6
00
ENDCHAR
STARTCHAR uni041E
ENCODING 1054
SWIDTH 1000 0
DWIDTH 8 0
BBX 8 8 0 -1
BITMAP
7C
C6
C6
C6
C6
C6
7C
00
ENDCHAR
STARTCHAR uni041F
ENCODING 1055
SWIDTH 1000 0
DWIDTH 8 0
BBX 8 8 0 -1
BITMAP
FE
C6
C6
C6
C6
C6
C6
00
ENDCHAR
STARTCHAR uni0420
ENCODING 1056
SWIDTH 1000 0
DWIDTH 8 0
BBX 8 8 0 -1
BITMAP
FC
66
66
7C
60
60
F0
00
ENDCHAR
STARTCHAR uni0421
ENCODING 1057
SWIDTH 1000 0
DWIDTH 8 0
BBX 8 8 0 -1
BITMAP
3C
66
C0
C0
C0
66
3C
00
ENDCHAR
STARTCHAR uni0422
ENCODING 1058
SWIDTH 1000 0
DWIDTH 8 0
BBX 8 8 0 -1
BITMAP
7E
5A
18
18
18
18
3C
00
ENDCHAR
STARTCHAR uni0423
ENCODING 1059
SWIDTH 1000 0
DWIDTH 8 0
BBX 8 8 0 -1
BITMAP
C6
C6
C6
C6
7E
06
FC
00
ENDCHAR
STARTCHAR uni0424
ENCODING 1060
SWIDTH 1000 0
DWIDTH 8 0
BBX 8 8 0 -1
BITMAP
3C
18
3C
5A
5A
3C
18
3C
ENDCHAR
STARTCHAR uni0425
ENCODING 1061
SWIDTH 1000 0
DWIDTH 8 0
BBX 8 8 0 -1
BITMAP
C6
C6
6C
38
6C
C6
C6
00
ENDCHAR
STARTCHAR uni0426
ENCODING 1062
SWIDTH 1000 0
DWIDTH 8 0
BBX 8 8 0 -1
BITMAP
CC
CC
CC
CC
CC
CC
FE
06
ENDCHAR
STARTCHAR uni0427
ENCODING 1063
SWIDTH 1000 0
DWIDTH 8 0
BBX 8 8 0 -1
BITMAP
C6
C6
C6
7E
06
06
06
00
ENDCHAR
STARTCHAR uni0428
ENCODING 1064
SWIDTH 1000 0
DWIDTH 8 0
BBX 8 8 0 -1
BITMAP
D6
D6
D6
D6
D6
D6
FE
00
ENDCHAR
STARTCHAR uni0429
ENCODING 1065
SWIDTH 1000 0
DWIDTH 8 0
BBX 8 8 0 -1
BITMAP
D6
D6
D6
D6
D6
D6
FE
06
ENDCHAR
STARTCHAR uni042A
ENCODING 1066
SWIDTH 1000 0
DWIDTH 8 0
BBX 8 8 0 -1
BITMAP
F8
B0
B0
3C
36
36
7C
00
ENDCHAR
STARTCHAR uni042B
ENCODING 1067
SWIDTH 1000 0
DWIDTH 8 0
BBX 8 8 0 -1
BITMAP
C6
C6
C6
F6
DE
DE
F6
00
ENDCHAR
STARTCHAR uni042C
ENCODING 1068
SWIDTH 1000 0
DWIDTH 8 0
BBX 8 8 0 -1
BITMAP
FC
30
30
3C
36
36
7C
00
ENDCHAR
STARTCHAR uni042D
ENCODING 1069
SWIDTH 1000 0
DWIDTH 8 0
BBX 8 8 0 -1
BITMAP
7C
C6
16
1E
16
C6
7C
00
ENDCHAR
STARTCHAR uni042E
ENCODING 1070
SWIDTH 1000 0
DWIDTH 8 0
BBX 8 8 0 -1
BITMAP
CE
DB
DB
FB
DB
DB
CE
00
ENDCHAR
STARTCHAR uni042F
ENCODING 1071
SWIDTH 1000 0
DWIDTH 8 0
BBX 8 8 0 -1
BITMAP
7E
CC
CC
7C
6C
CC
CE
00
ENDCHAR
STARTCHAR uni0430
ENCODING 1072
SWIDTH 1000 0
DWIDTH 8 0
BBX 8 8 0 -1
BITMAP
00
00
78
0C
7C
CC
76
00
ENDCHAR
STARTCHAR uni0431
ENCODING 1073
SWIDTH 1000 0
DWIDTH 8 0
BBX 8 8 0 -1
BITMAP
0C
38
60
7C
66
66
3C
00
ENDCHAR
STARTCHAR uni0432
ENCODING 1074
SWIDTH 1000 0
DWIDTH 8 0
BBX 8 8 0 -1
BITMAP
00
00
FC
66
7C
66
FC
00
ENDCHAR
STARTCHAR uni0433
ENCODING 1075
SWIDTH 1000 0
DWIDTH 8 0
BBX 8 8 0 -1
BITMAP
00
00
FC
64
60
60
F0
00
ENDCHAR
STARTCHAR uni0434
ENCODING 1076
SWIDTH 1000 0
DWIDTH 8 0
BBX 8 8 0 -1
BITMAP
00
1C
3C
6C
CC
FE
C6
00
ENDCHAR
STARTCHAR uni0435
ENCODING 1077
SWIDTH 1000 0
DWIDTH 8 0
BBX 8 8 0 -1
BITMAP
00
00
7C
C6
FE
C0
7C
00
ENDCHAR
STARTCHAR uni0436
ENCODING 1078
SWIDTH 1000 0
DWIDTH 8 0
BBX 8 8 0 -1
BITMAP
00
00
D6
54
7C
54
D6
00
ENDCHAR
STARTCHAR uni0437
ENCODING 1079
SWIDTH 1000 0
DWIDTH 8 0
BBX 8 8 0 -1
BITMAP
00
00
7C
C6
1C
C6
7C
00
ENDCHAR
STARTCHAR uni0438
ENCODING 1080
SWIDTH 1000 0
DWIDTH 8 0
BBX 8 8 0 -1
BITMAP
00
00
CE
DE
F6
E6
C6
00
ENDCHAR
STARTCHAR uni0439
ENCODING 1081
SWIDTH 1000 0
DWIDTH 8 0
BBX 8 8 0 -1
BITMAP
00
6C
CE
DE
F6
E6
C6
00
ENDCHAR
STARTCHAR uni043A
ENCODING 1082
SWIDTH 1000 0
DWIDTH 8 0
BBX 8 8 0 -1
BITMAP
00
00
E6
6C
78
6C
E6
00
ENDCHAR
STARTCHAR uni043B
ENCODING 1083
SWIDTH 1000 0
DWIDTH 8 0
BBX 8 8 0 -1
BITMAP
00
00
1E
36
66
66
66
00
ENDCHAR
STARTCHAR uni043C
ENCODING 1084
SWIDTH 1000 0
DWIDTH 8 0
BBX 8 8 0 -1
BITMAP
00
00
C6
EE
FE
D6
C6
00
ENDCHAR
STARTCHAR uni043D
ENCODING 1085
SWIDTH 1000 0
DWIDTH 8 0
BBX 8 8 0 -1
BITMAP
00
00
C6
C6
FE
C6
C6
00
ENDCHAR
STARTCHAR uni043E
ENCODING 1086
SWIDTH 1000 0
DWIDTH 8 0
BBX 8 8 0 -1
BITMAP
00
00
7C
C6
C6
C6
7C
00
ENDCHAR
STARTCHAR uni043F
ENCODING 1087
SWIDTH 1000 0
DWIDTH 8 0
BBX 8 8 0 -1
BITMAP
00
00
7E
66
66
66
66
00
ENDCHAR
STARTCHAR uni0440
ENCODING 1088
SWIDTH 1000 0
DWIDTH 8 0
BBX 8 8 0 -1
BITMAP
00
00
DC
66
66
7C
60
F0
ENDCHAR
STARTCHAR uni0441
ENCODING 1089
SWIDTH 1000 0
DWIDTH 8 0
BBX 8 8 0 -1
BITMAP
00
00
7C
C6
C0
C6
7C
00
ENDCHAR
STARTCHAR uni0442
ENCODING 1090
SWIDTH 1000 0
DWIDTH 8 0
BBX 8 8 0 -1
BITMAP
00
00
7E
5A
18
18
3C
00
ENDCHAR
STARTCHAR uni0443
ENCODING 1091
SWIDTH 1000 0
DWIDTH 8 0
BBX 8 8 0 -1
BITMAP
00
00
C6
C6
C6
7E
06
FC
ENDCHAR
STARTCHAR uni0444
ENCODING 1092
SWIDTH 1000 0
DWIDTH 8 0
BBX 8 8 0 -1
BITMAP
18
18
3C
5A
5A
3C
18
18
ENDCHAR
STARTCHAR uni0445
ENCODING 1093
SWIDTH 1000 0
DWIDTH 8 0
BBX 8 8 0 -1
BITMAP
00
00
C6
6C
38
6C
C6
00
ENDCHAR
STARTCHAR uni0446
ENCODING 1094
SWIDTH 1000 0
DWIDTH 8 0
BBX 8 8 0 -1
BITMAP
00
00
CC
CC
CC
CC
FE
06
ENDCHAR
STARTCHAR uni0447
ENCODING 1095
SWIDTH 1000 0
DWIDTH 8 0
BBX 8 8 0 -1
BITMAP
00
00
C6
C6
7E
06
06
00
ENDCHAR
STARTCHAR uni0448
ENCODING 1096
SWIDTH 1000 0
DWIDTH 8 0
BBX 8 8 0 -1
BITMAP
00
00
D6
D6
D6
D6
FE
00
ENDCHAR
STARTCHAR uni0449
ENCODING 1097
SWIDTH 1000 0
DWIDTH 8 0
BBX 8 8 0 -1
BITMAP
00
00
D6
D6
D6
D6
FE
06
ENDCHAR
STARTCHAR uni044A
ENCODING 1098
SWIDTH 1000 0
DWIDTH 8 0
BBX 8 8 0 -1
BITMAP
00
00
F8
B0
3C
36
7C
00
ENDCHAR
STARTCHAR uni044B
ENCODING 1099
SWIDTH 1000 0
DWIDTH 8 0
BBX 8 8 0 -1
BITMAP
00
00
C6
C6
F6
DE
F6
00
ENDCHAR
STARTCHAR uni044C
ENCODING 1100
SWIDTH 1000 0
DWIDTH 8 0
BBX 8 8 0 -1
BITMAP
00
00
FC
30
3C
36
7C
00
ENDCHAR
STARTCHAR uni044D
ENCODING 1101
SWIDTH 1000 0
DWIDTH 8 0
BBX 8 8 0 -1
BITMAP
00
00
7C
C6
1E
C6
7C
00
ENDCHAR
STARTCHAR uni044E
ENCODING 1102
SWIDTH 1000 0
DWIDTH 8 0
BBX 8 8 0 -1
BITMAP
00
00
CE
DB
FB
DB
CE
00
ENDCHAR
STARTCHAR uni044F
ENCODING 1103
SWIDTH 1000 0
DWIDTH 8 0
BBX 8 8 0 -1
BITMAP
00
00
7E
CC
7C
6C
CE
00
ENDCHAR
STARTCHAR uni0450
ENCODING 1104
SWIDTH 1000 0
DWIDTH 8 0
BBX 8 8 0 -1
BITMAP
30
18
7C
C6
FE
C0
7C
00
ENDCHAR
STARTCHAR uni0451
ENCODING 1105
SWIDTH 1000 0
DWIDTH 8 0
BBX 8 8 0 -1
BITMAP
6C
00
7C
C6
FE
C0
7C
00
ENDCHAR
STARTCHAR uni0452
ENCODING 1106
SWIDTH 1000 0
DWIDTH 8 0
BBX 8 8 0 -1
BITMAP
60
F0
60
7C
66
66
66
0C
ENDCHAR
STARTCHAR uni0453
ENCODING 1107
SWIDTH 1000 0
DWIDTH 8 0
BBX 8 8 0 -1
BITMAP
1C
10
00
7E
60
60
60
00
ENDCHAR
STARTCHAR uni0454
ENCODING 1108
SWIDTH 1000 0
DWIDTH 8 0
BBX 8 8 0 -1
BITMAP
00
00
7C
C6
F0
C6
7C
00
ENDCHAR
STARTCHAR uni0455
ENCODING 1109
SWIDTH 1000 0
DWIDTH 8 0
BBX 8 8 0 -1
BITMAP
00
00
7E
C0
7C
06
FC
00
ENDCHAR
STARTCHAR uni0456
ENCODING 1110
SWIDTH 1000 0
DWIDTH 8 0
BBX 8 8 0 -1
BITMAP
18
00
38
18
18
18
3C
00
ENDCHAR
STARTCHAR uni0457
ENCODING 1111
SWIDTH 1000 0
DWIDTH 8 0
BBX 8 8 0 -1
BITMAP
6C
00
38
18
18
18
3C
00
ENDCHAR
STARTCHAR uni0458
ENCODING 1112
SWIDTH 1000 0
DWIDTH 8 0
BBX 8 8 0 -1
BITMAP
06
00
06
06
06
66
66
3C
ENDCHAR
STARTCHAR uni0459
ENCODING 1113
SWIDTH 1000 0
DWIDTH 8 0
BBX 8 8 0 -1
BITMAP
00
00
F8
58
5C
5A
DC
00
ENDCHAR
STARTCHAR uni045A
ENCODING 1114
SWIDTH 1000 0
DWIDTH 8 0
BBX 8 8 0 -1
BITMAP
00
00
D8
D8
FC
DA
DC
00
ENDCHAR
STARTCHAR uni045B
ENCODING 1115
SWIDTH 1000 0
DWIDTH 8 0
BBX 8 8 0 -1
BITMAP
60
F0
60
7C
66
66
66
00
ENDCHAR
STARTCHAR uni045C
ENCODING 1116
SWIDTH 1000 0
DWIDTH 8 0
BBX 8 8 0 -1
BITMAP
1C
10
C6
D8
F8
CC
C6
00
ENDCHAR
STARTCHAR uni045D
ENCODING 1117
SWIDTH 1000 0
DWIDTH 8 0
BBX 8 8 0 -1
BITMAP
38
08
00
66
6E
7E
76
00
ENDCHAR
STARTCHAR uni045E
ENCODING 1118
SWIDTH 1000 0
DWIDTH 8 0
BBX 8 8 0 -1
BITMAP
C6
6C
10
C6
C6
7E
06
FC
ENDCHAR
STARTCHAR uni045F
ENCODING 1119
SWIDTH 1000 0
DWIDTH 8 0
BBX 8 8 0 -1
BITMAP
00
00
C6
C6
C6
C6
FE
10
ENDCHAR
STARTCHAR uni0490
ENCODING 1168
SWIDTH 1000 0
DWIDTH 8 0
BBX 8 8 0 -1
BITMAP
06
FE
60
60
60
60
F0
00
ENDCHAR
STARTCHAR uni0491
ENCODING 1169
SWIDTH 1000 0
DWIDTH 8 0
BBX 8 8 0 -1
BITMAP
00
06
FE
60
60
60
F0
00
ENDCHAR
STARTCHAR uni05BE
ENCODING 1470
SWIDTH 1000 0
DWIDTH 8 0
BBX 8 8 0 -1
BITMAP
00
7E
00
00
00
00
00
00
ENDCHAR
STARTCHAR uni05D0
ENCODING 1488
SWIDTH 1000 0
DWIDTH 8 0
BBX 8 8 0 -1
BITMAP
00
C6
66
76
DC
CC
C6
00
ENDCHAR
STARTCHAR uni05D1
ENCODING 1489
SWIDTH 1000 0
DWIDTH 8 0
BBX 8 8 0 -1
BITMAP
00
F8
0C
0C
0C
0C
FE
00
ENDCHAR
STARTCHAR uni05D2
ENCODING 1490
SWIDTH 1000 0
DWIDTH 8 0
BBX 8 8 0 -1
BITMAP
00
38
0C
0C
1C
34
E6
00
ENDCHAR
STARTCHAR uni05D3
ENCODING 1491
SWIDTH 1000 0
DWIDTH 8 0
BBX 8 8 0 -1
BITMAP
00
FE
0C
0C
0C
0C
0C
00
ENDCHAR
STARTCHAR uni05D4
ENCODING 1492
SWIDTH 1000 0
DWIDTH 8 0
BBX 8 8 0 -1
BITMAP
00
FC
06
06
C6
C6
C6
00
ENDCHAR
STARTCHAR uni05D5
ENCODING 1493
SWIDTH 1000 0
DWIDTH 8 0
BBX 8 8 0 -1
BITMAP
00
70
18
18
18
18
18
00
ENDCHAR
STARTCHAR uni05D6
ENCODING 1494
SWIDTH 1000 0
DWIDTH 8 0
BBX 8 8 0 -1
BITMAP
00
3C
18
18
0C
18
30
00
ENDCHAR
STARTCHAR uni05D7
ENCODING 1495
SWIDTH 1000 0
DWIDTH 8 0
BBX 8 8 0 -1
BITMAP
00
FC
66
C6
C6
C6
C6
00
ENDCHAR
STARTCHAR uni05D8
ENCODING 1496
SWIDTH 1000 0
DWIDTH 8 0
BBX 8 8 0 -1
BITMAP
00
CC
D6
D6
C6
CC
78
00
ENDCHAR
STARTCHAR uni05D9
ENCODING 1497
SWIDTH 1000 0
DWIDTH 8 0
BBX 8 8 0 -1
BITMAP
00
38
0C
0C
18
00
00
00
ENDCHAR
STARTCHAR uni05DA
ENCODING 1498
SWIDTH 1000 0
DWIDTH 8 0
BBX 8 8 0 -1
BITMAP
00
FC
06
06
0C
0C
0C
0E
ENDCHAR
STARTCHAR uni05DB
ENCODING 1499
SWIDTH 1000 0
DWIDTH 8 0
BBX 8 8 0 -1
BITMAP
00
FC
06
06
06
06
FC
00
ENDCHAR
STARTCHAR uni05DC
ENCODING 1500
SWIDTH 1000 0
DWIDTH 8 0
BBX 8 8 0 -1
BITMAP
C0
FC
06
06
0C
18
18
00
ENDCHAR
STARTCHAR uni05DD
ENCODING 1501
SWIDTH 1000 0
DWIDTH 8 0
BBX 8 8 0 -1
BITMAP
00
FC
66
C6
C6
C6
FE
00
ENDCHAR
STARTCHAR uni05DE
ENCODING 1502
SWIDTH 1000 0
DWIDTH 8 0
BBX 8 8 0 -1
BITMAP
00
DC
76
66
C6
C6
DE
00
ENDCHAR
STARTCHAR uni05DF
ENCODING 1503
SWIDTH 1000 0
DWIDTH 8 0
BBX 8 8 0 -1
BITMAP
00
38
0C
18
18
18
18
1C
ENDCHAR
STARTCHAR uni05E0
ENCODING 1504
SWIDTH 1000 0
DWIDTH 8 0
BBX 8 8 0 -1
BITMAP
00
38
0C
0C
0C
0C
7C
00
ENDCHAR
STARTCHAR uni05E1
ENCODING 1505
SWIDTH 1000 0
DWIDTH 8 0
BBX 8 8 0 -1
BITMAP
00
FC
66
C6
C6
CC
78
00
ENDCHAR
STARTCHAR uni05E2
ENCODING 1506
SWIDTH 1000 0
DWIDTH 8 0
BBX 8 8 0 -1
BITMAP
00
66
66
66
66
36
FC
00
ENDCHAR
STARTCHAR uni05E3
ENCODING 1507
SWIDTH 1000 0
DWIDTH 8 0
BBX 8 8 0 -1
BITMAP
00
F8
4C
CC
EC
0C
0C
0E
ENDCHAR
STARTCHAR uni05E4
ENCODING 1508
SWIDTH 1000 0
DWIDTH 8 0
BBX 8 8 0 -1
BITMAP
00
FC
46
C6
E6
06
FE
00
ENDCHAR
STARTCHAR uni05E5
ENCODING 1509
SWIDTH 1000 0
DWIDTH 8 0
BBX 8 8 0 -1
BITMAP
00
66
66
66
7C
60
60
70
ENDCHAR
STARTCHAR uni05E6
ENCODING 1510
SWIDTH 1000 0
DWIDTH 8 0
BBX 8 8 0 -1
BITMAP
00
66
36
1C
0C
06
7E
00
ENDCHAR
STARTCHAR uni05E7
ENCODING 1511
SWIDTH 1000 0
DWIDTH 8 0
BBX 8 8 0 -1
BITMAP
00
FC
06
66
6C
6E
60
60
ENDCHAR
STARTCHAR uni05E8
ENCODING 1512
SWIDTH 1000 0
DWIDTH 8 0
BBX 8 8 0 -1
BITMAP
00
FC
06
06
06
06
06
00
ENDCHAR
STARTCHAR uni05E9
ENCODING 1513
SWIDTH 1000 0
DWIDTH 8 0
BBX 8 8 0 -1
BITMAP
00
D6
D6
D6
F6
C6
7C
00
ENDCHAR
STARTCHAR uni05EA
ENCODING 1514
SWIDTH 1000 0
DWIDTH 8 0
BBX 8 8 0 -1
BITMAP
00
FC
66
66
66
E6
E6
00
ENDCHAR
STARTCHAR uni05F0
ENCODING 1520
SWIDTH 1000 0
DWIDTH 8 0
BBX 8 8 0 -1
BITMAP
00
CC
66
66
66
66
66
00
ENDCHAR
STARTCHAR uni05F1
ENCODING 1521
SWIDTH 1000 0
DWIDTH 8 0
BBX 8 8 0 -1
BITMAP
00
CC
66
66
06
06
06
00
ENDCHAR
STARTCHAR uni05F2
ENCODING 1522
SWIDTH 1000 0
DWIDTH 8 0
BBX 8 8 0 -1
BITMAP
00
CC
66
66
00
00
00
00
ENDCHAR
STARTCHAR uni05F3
ENCODING 1523
SWIDTH 1000 0
DWIDTH 8 0
BBX 8 8 0 -1
BITMAP
18
18
30
00
00
00
00
00
ENDCHAR
STARTCHAR uni05F4
ENCODING 1524
SWIDTH 1000 0
DWIDTH 8 0
BBX 8 8 0 -1
BITMAP
66
66
CC
00
00
00
00
00
ENDCHAR
STARTCHAR uni1D1B
ENCODING 7451
SWIDTH 1000 0
DWIDTH 8 0
BBX 8 8 0 -1
BITMAP
00
3B
6E
0C
0C
0C
0C
00
ENDCHAR
STARTCHAR uni1D26
ENCODING 7462
SWIDTH 1000 0
DWIDTH 8 0
BBX 8 8 0 -1
BITMAP
00
7E
66
60
60
60
60
00
ENDCHAR
STARTCHAR uni1D28
ENCODING 7464
SWIDTH 1000 0
DWIDTH 8 0
BBX 8 8 0 -1
BITMAP
00
7F
36
36
36
36
36
00
ENDCHAR
STARTCHAR Wgrave
ENCODING 7808
SWIDTH 1000 0
DWIDTH 8 0
BBX 8 8 0 -1
BITMAP
60
30
C6
D6
D6
FE
6C
00
ENDCHAR
STARTCHAR wgrave
ENCODING 7809
SWIDTH 1000 0
DWIDTH 8 0
BBX 8 8 0 -1
BITMAP
60
30
00
C6
D6
FE
6C
00
ENDCHAR
STARTCHAR Wacute
ENCODING 7810
SWIDTH 1000 0
DWIDTH 8 0
BBX 8 8 0 -1
BITMAP
0C
18
C6
D6
D6
FE
6C
00
ENDCHAR
STARTCHAR wacute
ENCODING 7811
SWIDTH 1000 0
DWIDTH 8 0
BBX 8 8 0 -1
BITMAP
0C
18
00
C6
D6
FE
6C
00
ENDCHAR
STARTCHAR Wdieresis
ENCODING 7812
SWIDTH 1000 0
DWIDTH 8 0
BBX 8 8 0 -1
BITMAP
C6
00
C6
D6
D6
FE
6C
00
ENDCHAR
STARTCHAR wdieresis
ENCODING 7813
SWIDTH 1000 0
DWIDTH 8 0
BBX 8 8 0 -1
BITMAP
00
C6
00
C6
D6
FE
6C
00
ENDCHAR
STARTCHAR uni1E9F
ENCODING 7839
SWIDTH 1000 0
DWIDTH 8 0
BBX 8 8 0 -1
BITMAP
0E
18
0C
3E
66
66
3C
00
ENDCHAR
STARTCHAR Ygrave
ENCODING 7922
SWIDTH 1000 0
DWIDTH 8 0
BBX 8 8 0 -1
BITMAP
30
18
66
66
3C
18
3C
00
ENDCHAR
STARTCHAR ygrave
ENCODING 7923
SWIDTH 1000 0
DWIDTH 8 0
BBX 8 8 0 -1
BITMAP
60
30
C6
C6
C6
7E
06
FC
ENDCHAR
STARTCHAR uni2010
ENCODING 8208
SWIDTH 1000 0
DWIDTH 8 0
BBX 8 8 0 -1
BITMAP
00
00
00
FC
00
00
00
00
ENDCHAR
STARTCHAR figuredash
ENCODING 8210
SWIDTH 1000 0
DWIDTH 8 0
BBX 8 8 0 -1
BITMAP
00
00
00
7C
00
00
00
00
ENDCHAR
STARTCHAR endash
ENCODING 8211
SWIDTH 1000 0
DWIDTH 8 0
BBX 8 8 0 -1
BITMAP
00
00
00
7C
00
00
00
00
ENDCHAR
STARTCHAR emdash
ENCODING 8212
SWIDTH 1000 0
DWIDTH 8 0
BBX 8 8 0 -1
BITMAP
00
00
00
FF
00
00
00
00
ENDCHAR
STARTCHAR uni2015
ENCODING 8213
SWIDTH 1000 0
DWIDTH 8 0
BBX 8 8 0 -1
BITMAP
00
00
00
FF
00
00
00
00
ENDCHAR
STARTCHAR underscoredbl
ENCODING 8215
SWIDTH 1000 0
DWIDTH 8 0
BBX 8 8 0 -1
BITMAP
00
00
00
00
00
FF
00
FF
ENDCHAR
STARTCHAR quoteleft
ENCODING 8216
SWIDTH 1000 0
DWIDTH 8 0
BBX 8 8 0 -1
BITMAP
18
30
30
00
00
00
00
00
ENDCHAR
STARTCHAR quoteright
ENCODING 8217
SWIDTH 1000 0
DWIDTH 8 0
BBX 8 8 0 -1
BITMAP
30
30
60
00
00
00
00
00
ENDCHAR
STARTCHAR quotesinglbase
ENCODING 8218
SWIDTH 1000 0
DWIDTH 8 0
BBX 8 8 0 -1
BITMAP
00
00
00
00
00
30
30
60
ENDCHAR
STARTCHAR quotereversed
ENCODING 8219
SWIDTH 1000 0
DWIDTH 8 0
BBX 8 8 0 -1
BITMAP
30
30
18
00
00
00
00
00
ENDCHAR
STARTCHAR quotedblleft
ENCODING 8220
SWIDTH 1000 0
DWIDTH 8 0
BBX 8 8 0 -1
BITMAP
66
CC
CC
00
00
00
00
00
ENDCHAR
STARTCHAR quotedblright
ENCODING 8221
SWIDTH 1000 0
DWIDTH 8 0
BBX 8 8 0 -1
BITMAP
66
66
CC
00
00
00
00
00
ENDCHAR
STARTCHAR quotedblbase
ENCODING 8222
SWIDTH 1000 0
DWIDTH 8 0
BBX 8 8 0 -1
BITMAP
00
00
00
00
00
66
66
CC
ENDCHAR
STARTCHAR uni201F
ENCODING 8223
SWIDTH 1000 0
DWIDTH 8 0
BBX 8 8 0 -1
BITMAP
CC
CC
66
00
00
00
00
00
ENDCHAR
STARTCHAR dagger
ENCODING 8224
SWIDTH 1000 0
DWIDTH 8 0
BBX 8 8 0 -1
BITMAP
18
18
7E
18
18
18
18
18
ENDCHAR
STARTCHAR daggerdbl
ENCODING 8225
SWIDTH 1000 0
DWIDTH 8 0
BBX 8 8 0 -1
BITMAP
18
18
7E
18
18
7E
18
18
ENDCHAR
STARTCHAR bullet
ENCODING 8226
SWIDTH 1000 0
DWIDTH 8 0
BBX 8 8 0 -1
BITMAP
00
00
18
3C
3C
18
00
00
ENDCHAR
STARTCHAR ellipsis
ENCODING 8230
SWIDTH 1000 0
DWIDTH 8 0
BBX 8 8 0 -1
BITMAP
00
00
00
00
00
DB
DB
00
ENDCHAR
STARTCHAR uni2027
ENCODING 8231
SWIDTH 1000 0
DWIDTH 8 0
BBX 8 8 0 -1
BITMAP
00
00
00
18
18
00
00
00
ENDCHAR
STARTCHAR perthousand
ENCODING 8240
SWIDTH 1000 0
DWIDTH 8 0
BBX 8 8 0 -1
BITMAP
00
CC
D8
30
60
DB
9B
00
ENDCHAR
STARTCHAR minute
ENCODING 8242
SWIDTH 1000 0
DWIDTH 8 0
BBX 8 8 0 -1
BITMAP
0C
18
30
00
00
00
00
00
ENDCHAR
STARTCHAR second
ENCODING 8243
SWIDTH 1000 0
DWIDTH 8 0
BBX 8 8 0 -1
BITMAP
36
6C
D8
00
00
00
00
00
ENDCHAR
STARTCHAR uni2035
ENCODING 8245
SWIDTH 1000 0
DWIDTH 8 0
BBX 8 8 0 -1
BITMAP
30
18
0C
00
00
00
00
00
ENDCHAR
STARTCHAR guilsinglleft
ENCODING 8249
SWIDTH 1000 0
DWIDTH 8 0
BBX 8 8 0 -1
BITMAP
00
18
30
60
30
18
00
00
ENDCHAR
STARTCHAR guilsinglright
ENCODING 8250
SWIDTH 1000 0
DWIDTH 8 0
BBX 8 8 0 -1
BITMAP
00
60
30
18
30
60
00
00
ENDCHAR
STARTCHAR exclamdbl
ENCODING 8252
SWIDTH 1000 0
DWIDTH 8 0
BBX 8 8 0 -1
BITMAP
66
66
66
66
66
00
66
00
ENDCHAR
STARTCHAR uni203E
ENCODING 8254
SWIDTH 1000 0
DWIDTH 8 0
BBX 8 8 0 -1
BITMAP
FF
00
00
00
00
00
00
00
ENDCHAR
STARTCHAR uni203F
ENCODING 8255
SWIDTH 1000 0
DWIDTH 8 0
BBX 8 8 0 -1
BITMAP
00
00
00
00
00
00
C6
7C
ENDCHAR
STARTCHAR uni2040
ENCODING 8256
SWIDTH 1000 0
DWIDTH 8 0
BBX 8 8 0 -1
BITMAP
7C
C6
00
00
00
00
00
00
ENDCHAR
STARTCHAR fraction
ENCODING 8260
SWIDTH 1000 0
DWIDTH 8 0
BBX 8 8 0 -1
BITMAP
06
0C
18
30
60
C0
80
00
ENDCHAR
STARTCHAR uni2054
ENCODING 8276
SWIDTH 1000 0
DWIDTH 8 0
BBX 8 8 0 -1
BITMAP
00
00
00
00
00
00
7C
C6
ENDCHAR
STARTCHAR uni2074
ENCODING 8308
SWIDTH 1000 0
DWIDTH 8 0
BBX 8 8 0 -1
BITMAP
0C
1C
2C
7C
0C
00
00
00
ENDCHAR
STARTCHAR uni2075
ENCODING 8309
SWIDTH 1000 0
DWIDTH 8 0
BBX 8 8 0 -1
BITMAP
7C
60
78
0C
78
00
00
00
ENDCHAR
STARTCHAR uni2076
ENCODING 8310
SWIDTH 1000 0
DWIDTH 8 0
BBX 8 8 0 -1
BITMAP
3C
60
7C
66
3C
00
00
00
ENDCHAR
STARTCHAR uni2077
ENCODING 8311
SWIDTH 1000 0
DWIDTH 8 0
BBX 8 8 0 -1
BITMAP
7C
0C
18
30
30
00
00
00
ENDCHAR
STARTCHAR uni2078
ENCODING 8312
SWIDTH 1000 0
DWIDTH 8 0
BBX 8 8 0 -1
BITMAP
3C
66
3C
66
3C
00
00
00
ENDCHAR
STARTCHAR uni2079
ENCODING 8313
SWIDTH 1000 0
DWIDTH 8 0
BBX 8 8 0 -1
BITMAP
3C
66
3E
06
3C
00
00
00
ENDCHAR
STARTCHAR uni207A
ENCODING 8314
SWIDTH 1000 0
DWIDTH 8 0
BBX 8 8 0 -1
BITMAP
18
18
7E
18
18
00
00
00
ENDCHAR
STARTCHAR uni207B
ENCODING 8315
SWIDTH 1000 0
DWIDTH 8 0
BBX 8 8 0 -1
BITMAP
00
00
3C
00
00
00
00
00
ENDCHAR
STARTCHAR uni207F
ENCODING 8319
SWIDTH 1000 0
DWIDTH 8 0
BBX 8 8 0 -1
BITMAP
78
6C
6C
6C
6C
00
00
00
ENDCHAR
STARTCHAR uni2081
ENCODING 8321
SWIDTH 1000 0
DWIDTH 8 0
BBX 8 8 0 -1
BITMAP
00
00
00
18
38
18
18
3C
ENDCHAR
STARTCHAR uni2082
ENCODING 8322
SWIDTH 1000 0
DWIDTH 8 0
BBX 8 8 0 -1
BITMAP
00
00
00
78
0C
18
30
7C
ENDCHAR
STARTCHAR uni2083
ENCODING 8323
SWIDTH 1000 0
DWIDTH 8 0
BBX 8 8 0 -1
BITMAP
00
00
00
78
0C
38
0C
78
ENDCHAR
STARTCHAR uni2084
ENCODING 8324
SWIDTH 1000 0
DWIDTH 8 0
BBX 8 8 0 -1
BITMAP
00
00
00
0C
1C
2C
7C
0C
ENDCHAR
STARTCHAR uni2085
ENCODING 8325
SWIDTH 1000 0
DWIDTH 8 0
BBX 8 8 0 -1
BITMAP
00
00
00
7C
60
78
0C
78
ENDCHAR
STARTCHAR uni2086
ENCODING 8326
SWIDTH 1000 0
DWIDTH 8 0
BBX 8 8 0 -1
BITMAP
00
00
00
3C
60
7C
66
3C
ENDCHAR
STARTCHAR uni2087
ENCODING 8327
SWIDTH 1000 0
DWIDTH 8 0
BBX 8 8 0 -1
BITMAP
00
00
00
7C
0C
18
30
30
ENDCHAR
STARTCHAR uni2088
ENCODING 8328
SWIDTH 1000 0
DWIDTH 8 0
BBX 8 8 0 -1
BITMAP
00
00
00
3C
66
3C
66
3C
ENDCHAR
STARTCHAR uni2089
ENCODING 8329
SWIDTH 1000 0
DWIDTH 8 0
BBX 8 8 0 -1
BITMAP
00
00
00
3C
66
3E
06
3C
ENDCHAR
STARTCHAR uni208A
ENCODING 8330
SWIDTH 1000 0
DWIDTH 8 0
BBX 8 8 0 -1
BITMAP
00
00
00
18
18
7E
18
18
ENDCHAR
STARTCHAR uni208B
ENCODING 8331
SWIDTH 1000 0
DWIDTH 8 0
BBX 8 8 0 -1
BITMAP
00
00
00
00
00
3C
00
00
ENDCHAR
STARTCHAR franc
ENCODING 8355
SWIDTH 1000 0
DWIDTH 8 0
BBX 8 8 0 -1
BITMAP
FE
62
68
78
68
60
F0
60
ENDCHAR
STARTCHAR lira
ENCODING 8356
SWIDTH 1000 0
DWIDTH 8 0
BBX 8 8 0 -1
BITMAP
3C
66
F2
60
F0
66
FC
00
ENDCHAR
STARTCHAR peseta
ENCODING 8359
SWIDTH 1000 0
DWIDTH 8 0
BBX 8 8 0 -1
BITMAP
F8
CC
CC
FA
C6
CF
C6
C7
ENDCHAR
STARTCHAR uni20AA
ENCODING 8362
SWIDTH 1000 0
DWIDTH 8 0
BBX 8 8 0 -1
BITMAP
00
FA
8A
AA
AA
A2
BE
00
ENDCHAR
STARTCHAR Euro
ENCODING 8364
SWIDTH 1000 0
DWIDTH 8 0
BBX 8 8 0 -1
BITMAP
3C
62
F8
60
F8
62
3C
00
ENDCHAR
STARTCHAR uni2105
ENCODING 8453
SWIDTH 1000 0
DWIDTH 8 0
BBX 8 8 0 -1
BITMAP
73
C6
CC
78
3E
7B
DB
0E
ENDCHAR
STARTCHAR uni2113
ENCODING 8467
SWIDTH 1000 0
DWIDTH 8 0
BBX 8 8 0 -1
BITMAP
38
6C
6C
78
70
60
BC
00
ENDCHAR
STARTCHAR uni2116
ENCODING 8470
SWIDTH 1000 0
DWIDTH 8 0
BBX 8 8 0 -1
BITMAP
CF
ED
FF
DC
CF
CC
CC
00
ENDCHAR
STARTCHAR trademark
ENCODING 8482
SWIDTH 1000 0
DWIDTH 8 0
BBX 8 8 0 -1
BITMAP
F1
5B
55
51
00
00
00
00
ENDCHAR
STARTCHAR Omega
ENCODING 8486
SWIDTH 1000 0
DWIDTH 8 0
BBX 8 8 0 -1
BITMAP
1C
36
63
63
36
36
77
00
ENDCHAR
STARTCHAR estimated
ENCODING 8494
SWIDTH 1000 0
DWIDTH 8 0
BBX 8 8 0 -1
BITMAP
00
00
7C
C6
FE
C0
7C
00
ENDCHAR
STARTCHAR uni2150
ENCODING 8528
SWIDTH 1000 0
DWIDTH 8 0
BBX 8 8 0 -1
BITMAP
63
E6
6C
78
3F
63
C6
06
ENDCHAR
STARTCHAR uni2151
ENCODING 8529
SWIDTH 1000 0
DWIDTH 8 0
BBX 8 8 0 -1
BITMAP
63
E6
6C
7E
3B
6F
C3
0E
ENDCHAR
STARTCHAR onethird
ENCODING 8531
SWIDTH 1000 0
DWIDTH 8 0
BBX 8 8 0 -1
BITMAP
63
E6
6C
7E
33
66
C3
0E
ENDCHAR
STARTCHAR twothirds
ENCODING 8532
SWIDTH 1000 0
DWIDTH 8 0
BBX 8 8 0 -1
BITMAP
C2
64
C8
FE
23
46
83
0E
ENDCHAR
STARTCHAR uni2155
ENCODING 8533
SWIDTH 1000 0
DWIDTH 8 0
BBX 8 8 0 -1
BITMAP
63
E6
6C
7F
3C
6E
C3
0E
ENDCHAR
STARTCHAR uni2156
ENCODING 8534
SWIDTH 1000 0
DWIDTH 8 0
BBX 8 8 0 -1
BITMAP
C2
64
C8
FF
2C
4E
83
0E
ENDCHAR
STARTCHAR uni2157
ENCODING 8535
SWIDTH 1000 0
DWIDTH 8 0
BBX 8 8 0 -1
BITMAP
E1
32
E4
3F
FC
2E
43
0E
ENDCHAR
STARTCHAR uni2158
ENCODING 8536
SWIDTH 1000 0
DWIDTH 8 0
BBX 8 8 0 -1
BITMAP
31
72
B4
FF
3C
2E
43
0E
ENDCHAR
STARTCHAR uni2159
ENCODING 8537
SWIDTH 1000 0
DWIDTH 8 0
BBX 8 8 0 -1
BITMAP
63
E6
6C
7E
38
7E
DB
0E
ENDCHAR
STARTCHAR uni215A
ENCODING 8538
SWIDTH 1000 0
DWIDTH 8 0
BBX 8 8 0 -1
BITMAP
F1
C2
E4
3E
F8
3E
5B
0E
ENDCHAR
STARTCHAR oneeighth
ENCODING 8539
SWIDTH 1000 0
DWIDTH 8 0
BBX 8 8 0 -1
BITMAP
61
E6
6C
7E
3B
6E
DB
0E
ENDCHAR
STARTCHAR threeeighths
ENCODING 8540
SWIDTH 1000 0
DWIDTH 8 0
BBX 8 8 0 -1
BITMAP
E1
32
E4
3E
FB
2E
5B
0E
ENDCHAR
STARTCHAR fiveeighths
ENCODING 8541
SWIDTH 1000 0
DWIDTH 8 0
BBX 8 8 0 -1
BITMAP
F1
C2
E4
3E
FB
2E
5B
0E
ENDCHAR
STARTCHAR seveneighths
ENCODING 8542
SWIDTH 1000 0
DWIDTH 8 0
BBX 8 8 0 -1
BITMAP
F2
34
68
DE
3B
4E
9B
0E
ENDCHAR
STARTCHAR arrowleft
ENCODING 8592
SWIDTH 1000 0
DWIDTH 8 0
BBX 8 8 0 -1
BITMAP
00
30
60
FE
60
30
00
00
ENDCHAR
STARTCHAR arrowup
ENCODING 8593
SWIDTH 1000 0
DWIDTH 8 0
BBX 8 8 0 -1
BITMAP
18
3C
7E
18
18
18
18
00
ENDCHAR
STARTCHAR arrowright
ENCODING 8594
SWIDTH 1000 0
DWIDTH 8 0
BBX 8 8 0 -1
BITMAP
00
18
0C
FE
0C
18
00
00
ENDCHAR
STARTCHAR arrowdown
ENCODING 8595
SWIDTH 1000 0
DWIDTH 8 0
BBX 8 8 0 -1
BITMAP
18
18
18
18
7E
3C
18
00
ENDCHAR
STARTCHAR arrowboth
ENCODING 8596
SWIDTH 1000 0
DWIDTH 8 0
BBX 8 8 0 -1
BITMAP
00
24
66
FF
66
24
00
00
ENDCHAR
STARTCHAR arrowupdn
ENCODING 8597
SWIDTH 1000 0
DWIDTH 8 0
BBX 8 8 0 -1
BITMAP
18
3C
7E
18
18
7E
3C
18
ENDCHAR
STARTCHAR arrowupdnbse
ENCODING 8616
SWIDTH 1000 0
DWIDTH 8 0
BBX 8 8 0 -1
BITMAP
18
3C
7E
18
7E
3C
18
FF
ENDCHAR
STARTCHAR partialdiff
ENCODING 8706
SWIDTH 1000 0
DWIDTH 8 0
BBX 8 8 0 -1
BITMAP
38
6C
0C
7C
CC
CC
78
00
ENDCHAR
STARTCHAR emptyset
ENCODING 8709
SWIDTH 1000 0
DWIDTH 8 0
BBX 8 8 0 -1
BITMAP
06
0C
7E
DB
DB
7E
60
C0
ENDCHAR
STARTCHAR Delta
ENCODING 8710
SWIDTH 1000 0
DWIDTH 8 0
BBX 8 8 0 -1
BITMAP
10
38
6C
C6
C6
C6
FE
00
ENDCHAR
STARTCHAR element
ENCODING 8712
SWIDTH 1000 0
DWIDTH 8 0
BBX 8 8 0 -1
BITMAP
1C
60
C0
FC
C0
60
1C
00
ENDCHAR
STARTCHAR product
ENCODING 8719
SWIDTH 1000 0
DWIDTH 8 0
BBX 8 8 0 -1
BITMAP
FE
C6
C6
C6
C6
C6
C6
C6
ENDCHAR
STARTCHAR summation
ENCODING 8721
SWIDTH 1000 0
DWIDTH 8 0
BBX 8 8 0 -1
BITMAP
7E
66
30
18
30
66
7E
00
ENDCHAR
STARTCHAR minus
ENCODING 8722
SWIDTH 1000 0
DWIDTH 8 0
BBX 8 8 0 -1
BITMAP
00
00
00
7E
00
00
00
00
ENDCHAR
STARTCHAR uni2215
ENCODING 8725
SWIDTH 1000 0
DWIDTH 8 0
BBX 8 8 0 -1
BITMAP
06
0C
18
30
60
C0
80
00
ENDCHAR
STARTCHAR uni2219
ENCODING 8729
SWIDTH 1000 0
DWIDTH 8 0
BBX 8 8 0 -1
BITMAP
00
00
00
18
18
00
00
00
ENDCHAR
STARTCHAR radical
ENCODING 8730
SWIDTH 1000 0
DWIDTH 8 0
BBX 8 8 0 -1
BITMAP
0F
0C
0C
0C
EC
6C
3C
1C
ENDCHAR
STARTCHAR infinity
ENCODING 8734
SWIDTH 1000 0
DWIDTH 8 0
BBX 8 8 0 -1
BITMAP
00
00
7E
DB
DB
7E
00
00
ENDCHAR
STARTCHAR orthogonal
ENCODING 8735
SWIDTH 1000 0
DWIDTH 8 0
BBX 8 8 0 -1
BITMAP
00
00
C0
C0
C0
FE
00
00
ENDCHAR
STARTCHAR intersection
ENCODING 8745
SWIDTH 1000 0
DWIDTH 8 0
BBX 8 8 0 -1
BITMAP
3C
66
66
66
66
66
66
00
ENDCHAR
STARTCHAR integral
ENCODING 8747
SWIDTH 1000 0
DWIDTH 8 0
BBX 8 8 0 -1
BITMAP
0E
1B
1B
18
18
D8
D8
70
ENDCHAR
STARTCHAR approxequal
ENCODING 8776
SWIDTH 1000 0
DWIDTH 8 0
BBX 8 8 0 -1
BITMAP
00
76
DC
00
76
DC
00
00
ENDCHAR
STARTCHAR notequal
ENCODING 8800
SWIDTH 1000 0
DWIDTH 8 0
BBX 8 8 0 -1
BITMAP
00
0C
FE
18
30
FE
60
00
ENDCHAR
STARTCHAR equivalence
ENCODING 8801
SWIDTH 1000 0
DWIDTH 8 0
BBX 8 8 0 -1
BITMAP
00
FF
00
FF
00
FF
00
00
ENDCHAR
STARTCHAR lessequal
ENCODING 8804
SWIDTH 1000 0
DWIDTH 8 0
BBX 8 8 0 -1
BITMAP
0C
18
30
18
0C
00
7E
00
ENDCHAR
STARTCHAR greaterequal
ENCODING 8805
SWIDTH 1000 0
DWIDTH 8 0
BBX 8 8 0 -1
BITMAP
30
18
0C
18
30
00
7E
00
ENDCHAR
STARTCHAR uni2299
ENCODING 8857
SWIDTH 1000 0
DWIDTH 8 0
BBX 8 8 0 -1
BITMAP
7C
C6
C6
D6
C6
C6
7C
00
ENDCHAR
STARTCHAR uni2300
ENCODING 8960
SWIDTH 1000 0
DWIDTH 8 0
BBX 8 8 0 -1
BITMAP
7C
C6
CE
DE
F6
E6
7C
00
ENDCHAR
STARTCHAR house
ENCODING 8962
SWIDTH 1000 0
DWIDTH 8 0
BBX 8 8 0 -1
BITMAP
00
10
38
6C
C6
C6
FE
00
ENDCHAR
STARTCHAR revlogicalnot
ENCODING 8976
SWIDTH 1000 0
DWIDTH 8 0
BBX 8 8 0 -1
BITMAP
00
00
00
7E
60
60
00
00
ENDCHAR
STARTCHAR integraltp
ENCODING 8992
SWIDTH 1000 0
DWIDTH 8 0
BBX 8 8 0 -1
BITMAP
0E
1B
1B
18
18
18
18
18
ENDCHAR
STARTCHAR integralbt
ENCODING 8993
SWIDTH 1000 0
DWIDTH 8 0
BBX 8 8 0 -1
BITMAP
18
18
18
18
18
D8
D8
70
ENDCHAR
STARTCHAR SF100000
ENCODING 9472
SWIDTH 1000 0
DWIDTH 8 0
BBX 8 8 0 -1
BITMAP
00
00
00
00
FF
00
00
00
ENDCHAR
STARTCHAR SF110000
ENCODING 9474
SWIDTH 1000 0
DWIDTH 8 0
BBX 8 8 0 -1
BITMAP
18
18
18
18
18
18
18
18
ENDCHAR
STARTCHAR SF010000
ENCODING 9484
SWIDTH 1000 0
DWIDTH 8 0
BBX 8 8 0 -1
BITMAP
00
00
00
00
1F
18
18
18
ENDCHAR
STARTCHAR SF030000
ENCODING 9488
SWIDTH 1000 0
DWIDTH 8 0
BBX 8 8 0 -1
BITMAP
00
00
00
00
F8
18
18
18
ENDCHAR
STARTCHAR SF020000
ENCODING 9492
SWIDTH 1000 0
DWIDTH 8 0
BBX 8 8 0 -1
BITMAP
18
18
18
18
1F
00
00
00
ENDCHAR
STARTCHAR SF040000
ENCODING 9496
SWIDTH 1000 0
DWIDTH 8 0
BBX 8 8 0 -1
BITMAP
18
18
18
18
F8
00
00
00
ENDCHAR
STARTCHAR SF080000
ENCODING 9500
SWIDTH 1000 0
DWIDTH 8 0
BBX 8 8 0 -1
BITMAP
18
18
18
18
1F
18
18
18
ENDCHAR
STARTCHAR SF090000
ENCODING 9508
SWIDTH 1000 0
DWIDTH 8 0
BBX 8 8 0 -1
BITMAP
18
18
18
18
F8
18
18
18
ENDCHAR
STARTCHAR SF060000
ENCODING 9516
SWIDTH 1000 0
DWIDTH 8 0
BBX 8 8 0 -1
BITMAP
00
00
00
00
FF
18
18
18
ENDCHAR
STARTCHAR SF070000
ENCODING 9524
SWIDTH 1000 0
DWIDTH 8 0
BBX 8 8 0 -1
BITMAP
18
18
18
18
FF
00
00
00
ENDCHAR
STARTCHAR SF050000
ENCODING 9532
SWIDTH 1000 0
DWIDTH 8 0
BBX 8 8 0 -1
BITMAP
18
18
18
18
FF
18
18
18
ENDCHAR
STARTCHAR SF430000
ENCODING 9552
SWIDTH 1000 0
DWIDTH 8 0
BBX 8 8 0 -1
BITMAP
00
00
FF
00
FF
00
00
00
ENDCHAR
STARTCHAR SF240000
ENCODING 9553
SWIDTH 1000 0
DWIDTH 8 0
BBX 8 8 0 -1
BITMAP
36
36
36
36
36
36
36
36
ENDCHAR
STARTCHAR SF510000
ENCODING 9554
SWIDTH 1000 0
DWIDTH 8 0
BBX 8 8 0 -1
BITMAP
00
00
1F
18
1F
18
18
18
ENDCHAR
STARTCHAR SF520000
ENCODING 9555
SWIDTH 1000 0
DWIDTH 8 0
BBX 8 8 0 -1
BITMAP
00
00
00
00
3F
36
36
36
ENDCHAR
STARTCHAR SF390000
ENCODING 9556
SWIDTH 1000 0
DWIDTH 8 0
BBX 8 8 0 -1
BITMAP
00
00
3F
30
37
36
36
36
ENDCHAR
STARTCHAR SF220000
ENCODING 9557
SWIDTH 1000 0
DWIDTH 8 0
BBX 8 8 0 -1
BITMAP
00
00
F8
18
F8
18
18
18
ENDCHAR
STARTCHAR SF210000
ENCODING 9558
SWIDTH 1000 0
DWIDTH 8 0
BBX 8 8 0 -1
BITMAP
00
00
00
00
FE
36
36
36
ENDCHAR
STARTCHAR SF250000
ENCODING 9559
SWIDTH 1000 0
DWIDTH 8 0
BBX 8 8 0 -1
BITMAP
00
00
FE
06
F6
36
36
36
ENDCHAR
STARTCHAR SF500000
ENCODING 9560
SWIDTH 1000 0
DWIDTH 8 0
BBX 8 8 0 -1
BITMAP
18
18
1F
18
1F
00
00
00
ENDCHAR
STARTCHAR SF490000
ENCODING 9561
SWIDTH 1000 0
DWIDTH 8 0
BBX 8 8 0 -1
BITMAP
36
36
36
36
3F
00
00
00
ENDCHAR
STARTCHAR SF380000
ENCODING 9562
SWIDTH 1000 0
DWIDTH 8 0
BBX 8 8 0 -1
BITMAP
36
36
37
30
3F
00
00
00
ENDCHAR
STARTCHAR SF280000
ENCODING 9563
SWIDTH 1000 0
DWIDTH 8 0
BBX 8 8 0 -1
BITMAP
18
18
F8
18
F8
00
00
00
ENDCHAR
STARTCHAR SF270000
ENCODING 9564
SWIDTH 1000 0
DWIDTH 8 0
BBX 8 8 0 -1
BITMAP
36
36
36
36
FE
00
00
00
ENDCHAR
STARTCHAR SF260000
ENCODING 9565
SWIDTH 1000 0
DWIDTH 8 0
BBX 8 8 0 -1
BITMAP
36
36
F6
06
FE
00
00
00
ENDCHAR
STARTCHAR SF360000
ENCODING 9566
SWIDTH 1000 0
DWIDTH 8 0
BBX 8 8 0 -1
BITMAP
18
18
1F
18
1F
18
18
18
ENDCHAR
STARTCHAR SF370000
ENCODING 9567
SWIDTH 1000 0
DWIDTH 8 0
BBX 8 8 0 -1
BITMAP
36
36
36
36
37
36
36
36
ENDCHAR
STARTCHAR SF420000
ENCODING 9568
SWIDTH 1000 0
DWIDTH 8 0
BBX 8 8 0 -1
BITMAP
36
36
37
30
37
36
36
36
ENDCHAR
STARTCHAR SF190000
ENCODING 9569
SWIDTH 1000 0
DWIDTH 8 0
BBX 8 8 0 -1
BITMAP
18
18
F8
18
F8
18
18
18
ENDCHAR
STARTCHAR SF200000
ENCODING 9570
SWIDTH 1000 0
DWIDTH 8 0
BBX 8 8 0 -1
BITMAP
36
36
36
36
F6
36
36
36
ENDCHAR
STARTCHAR SF230000
ENCODING 9571
SWIDTH 1000 0
DWIDTH 8 0
BBX 8 8 0 -1
BITMAP
36
36
F6
06
F6
36
36
36
ENDCHAR
STARTCHAR SF470000
ENCODING 9572
SWIDTH 1000 0
DWIDTH 8 0
BBX 8 8 0 -1
BITMAP
00
00
FF
00
FF
18
18
18
ENDCHAR
STARTCHAR SF480000
ENCODING 9573
SWIDTH 1000 0
DWIDTH 8 0
BBX 8 8 0 -1
BITMAP
00
00
00
00
FF
36
36
36
ENDCHAR
STARTCHAR SF410000
ENCODING 9574
SWIDTH 1000 0
DWIDTH 8 0
BBX 8 8 0 -1
BITMAP
00
00
FF
00
F7
36
36
36
ENDCHAR
STARTCHAR SF450000
ENCODING 9575
SWIDTH 1000 0
DWIDTH 8 0
BBX 8 8 0 -1
BITMAP
18
18
FF
00
FF
00
00
00
ENDCHAR
STARTCHAR SF460000
ENCODING 9576
SWIDTH 1000 0
DWIDTH 8 0
BBX 8 8 0 -1
BITMAP
36
36
36
36
FF
00
00
00
ENDCHAR
STARTCHAR SF400000
ENCODING 9577
SWIDTH 1000 0
DWIDTH 8 0
BBX 8 8 0 -1
BITMAP
36
36
F7
00
FF
00
00
00
ENDCHAR
STARTCHAR SF540000
ENCODING 9578
SWIDTH 1000 0
DWIDTH 8 0
BBX 8 8 0 -1
BITMAP
18
18
FF
18
FF
18
18
18
ENDCHAR
STARTCHAR SF530000
ENCODING 9579
SWIDTH 1000 0
DWIDTH 8 0
BBX 8 8 0 -1
BITMAP
36
36
36
36
FF
36
36
36
ENDCHAR
STARTCHAR SF440000
ENCODING 9580
SWIDTH 1000 0
DWIDTH 8 0
BBX 8 8 0 -1
BITMAP
36
36
F7
00
F7
36
36
36
ENDCHAR
STARTCHAR upblock
ENCODING 9600
SWIDTH 1000 0
DWIDTH 8 0
BBX 8 8 0 -1
BITMAP
FF
FF
FF
FF
00
00
00
00
ENDCHAR
STARTCHAR uni2581
ENCODING 9601
SWIDTH 1000 0
DWIDTH 8 0
BBX 8 8 0 -1
BITMAP
00
00
00
00
00
00
FF
FF
ENDCHAR
STARTCHAR dnblock
ENCODING 9604
SWIDTH 1000 0
DWIDTH 8 0
BBX 8 8 0 -1
BITMAP
00
00
00
00
FF
FF
FF
FF
ENDCHAR
STARTCHAR block
ENCODING 9608
SWIDTH 1000 0
DWIDTH 8 0
BBX 8 8 0 -1
BITMAP
FF
FF
FF
FF
FF
FF
FF
FF
ENDCHAR
STARTCHAR lfblock
ENCODING 9612
SWIDTH 1000 0
DWIDTH 8 0
BBX 8 8 0 -1
BITMAP
F0
F0
F0
F0
F0
F0
F0
F0
ENDCHAR
STARTCHAR rtblock
ENCODING 9616
SWIDTH 1000 0
DWIDTH 8 0
BBX 8 8 0 -1
BITMAP
0F
0F
0F
0F
0F
0F
0F
0F
ENDCHAR
STARTCHAR ltshade
ENCODING 9617
SWIDTH 1000 0
DWIDTH 8 0
BBX 8 8 0 -1
BITMAP
22
88
22
88
22
88
22
88
ENDCHAR
STARTCHAR shade
ENCODING 9618
SWIDTH 1000 0
DWIDTH 8 0
BBX 8 8 0 -1
BITMAP
55
AA
55
AA
55
AA
55
AA
ENDCHAR
STARTCHAR dkshade
ENCODING 9619
SWIDTH 1000 0
DWIDTH 8 0
BBX 8 8 0 -1
BITMAP
DD
77
DD
77
DD
77
DD
77
ENDCHAR
STARTCHAR filledbox
ENCODING 9632
SWIDTH 1000 0
DWIDTH 8 0
BBX 8 8 0 -1
BITMAP
00
00
3C
3C
3C
3C
00
00
ENDCHAR
STARTCHAR H22073
ENCODING 9633
SWIDTH 1000 0
DWIDTH 8 0
BBX 8 8 0 -1
BITMAP
00
00
7C
6C
6C
7C
00
00
ENDCHAR
STARTCHAR H18543
ENCODING 9642
SWIDTH 1000 0
DWIDTH 8 0
BBX 8 8 0 -1
BITMAP
00
00
00
3C
3C
3C
00
00
ENDCHAR
STARTCHAR H18551
ENCODING 9643
SWIDTH 1000 0
DWIDTH 8 0
BBX 8 8 0 -1
BITMAP
00
00
00
7C
6C
7C
00
00
ENDCHAR
STARTCHAR filledrect
ENCODING 9644
SWIDTH 1000 0
DWIDTH 8 0
BBX 8 8 0 -1
BITMAP
00
00
00
00
7E
7E
7E
00
ENDCHAR
STARTCHAR triagup
ENCODING 9650
SWIDTH 1000 0
DWIDTH 8 0
BBX 8 8 0 -1
BITMAP
00
18
3C
7E
FF
FF
00
00
ENDCHAR
STARTCHAR triagrt
ENCODING 9658
SWIDTH 1000 0
DWIDTH 8 0
BBX 8 8 0 -1
BITMAP
80
E0
F8
FE
F8
E0
80
00
ENDCHAR
STARTCHAR triagdn
ENCODING 9660
SWIDTH 1000 0
DWIDTH 8 0
BBX 8 8 0 -1
BITMAP
00
FF
FF
7E
3C
18
00
00
ENDCHAR
STARTCHAR triaglf
ENCODING 9668
SWIDTH 1000 0
DWIDTH 8 0
BBX 8 8 0 -1
BITMAP
02
0E
3E
FE
3E
0E
02
00
ENDCHAR
STARTCHAR lozenge
ENCODING 9674
SWIDTH 1000 0
DWIDTH 8 0
BBX 8 8 0 -1
BITMAP
10
38
6C
C6
6C
38
10
00
ENDCHAR
STARTCHAR circle
ENCODING 9675
SWIDTH 1000 0
DWIDTH 8 0
BBX 8 8 0 -1
BITMAP
00
3C
66
42
42
66
3C
00
ENDCHAR
STARTCHAR H18533
ENCODING 9679
SWIDTH 1000 0
DWIDTH 8 0
BBX 8 8 0 -1
BITMAP
00
3C
7E
7E
7E
7E
3C
00
ENDCHAR
STARTCHAR invbullet
ENCODING 9688
SWIDTH 1000 0
DWIDTH 8 0
BBX 8 8 0 -1
BITMAP
FF
FF
E7
C3
C3
E7
FF
FF
ENDCHAR
STARTCHAR invcircle
ENCODING 9689
SWIDTH 1000 0
DWIDTH 8 0
BBX 8 8 0 -1
BITMAP
FF
C3
99
BD
BD
99
C3
FF
ENDCHAR
STARTCHAR openbullet
ENCODING 9702
SWIDTH 1000 0
DWIDTH 8 0
BBX 8 8 0 -1
BITMAP
00
00
38
6C
6C
38
00
00
ENDCHAR
STARTCHAR smileface
ENCODING 9786
SWIDTH 1000 0
DWIDTH 8 0
BBX 8 8 0 -1
BITMAP
7E
81
A5
81
A5
99
81
7E
ENDCHAR
STARTCHAR invsmileface
ENCODING 9787
SWIDTH 1000 0
DWIDTH 8 0
BBX 8 8 0 -1
BITMAP
7E
FF
DB
FF
DB
E7
FF
7E
ENDCHAR
STARTCHAR sun
ENCODING 9788
SWIDTH 1000 0
DWIDTH 8 0
BBX 8 8 0 -1
BITMAP
99
5A
3C
E7
E7
3C
5A
99
ENDCHAR
STARTCHAR female
ENCODING 9792
SWIDTH 1000 0
DWIDTH 8 0
BBX 8 8 0 -1
BITMAP
3C
66
66
66
3C
18
7E
18
ENDCHAR
STARTCHAR male
ENCODING 9794
SWIDTH 1000 0
DWIDTH 8 0
BBX 8 8 0 -1
BITMAP
0F
07
0F
7D
CC
CC
CC
78
ENDCHAR
STARTCHAR spade
ENCODING 9824
SWIDTH 1000 0
DWIDTH 8 0
BBX 8 8 0 -1
BITMAP
10
38
7C
FE
FE
7C
38
7C
ENDCHAR
STARTCHAR club
ENCODING 9827
SWIDTH 1000 0
DWIDTH 8 0
BBX 8 8 0 -1
BITMAP
38
7C
38
FE
FE
38
38
7C
ENDCHAR
STARTCHAR heart
ENCODING 9829
SWIDTH 1000 0
DWIDTH 8 0
BBX 8 8 0 -1
BITMAP
6C
FE
FE
FE
7C
38
10
00
ENDCHAR
STARTCHAR diamond
ENCODING 9830
SWIDTH 1000 0
DWIDTH 8 0
BBX 8 8 0 -1
BITMAP
10
38
7C
FE
7C
38
10
00
ENDCHAR
STARTCHAR musicalnote
ENCODING 9834
SWIDTH 1000 0
DWIDTH 8 0
BBX 8 8 0 -1
BITMAP
3F
33
3F
30
30
70
F0
E0
ENDCHAR
STARTCHAR musicalnotedbl
ENCODING 9835
SWIDTH 1000 0
DWIDTH 8 0
BBX 8 8 0 -1
BITMAP
7F
63
7F
63
63
67
E6
C0
ENDCHAR
STARTCHAR uni2713
ENCODING 10003
SWIDTH 1000 0
DWIDTH 8 0
BBX 8 8 0 -1
BITMAP
03
03
06
06
C6
6C
3C
18
ENDCHAR
STARTCHAR uni3044
ENCODING 12356
SWIDTH 1000 0
DWIDTH 8 0
BBX 8 8 0 -1
BITMAP
00
00
00
00
00
00
00
00
ENDCHAR
STARTCHAR uni3046
ENCODING 12358
SWIDTH 1000 0
DWIDTH 8 0
BBX 8 8 0 -1
BITMAP
00
00
00
00
00
00
00
00
ENDCHAR
STARTCHAR uni304B
ENCODING 12363
SWIDTH 1000 0
DWIDTH 8 0
BBX 8 8 0 -1
BITMAP
00
00
00
00
00
00
00
00
ENDCHAR
STARTCHAR uni3057
ENCODING 12375
SWIDTH 1000 0
DWIDTH 8 0
BBX 8 8 0 -1
BITMAP
00
00
00
00
00
00
00
00
ENDCHAR
STARTCHAR uni306E
ENCODING 12398
SWIDTH 1000 0
DWIDTH 8 0
BBX 8 8 0 -1
BITMAP
00
00
00
00
00
00
00
00
ENDCHAR
STARTCHAR uni3093
ENCODING 12435
SWIDTH 1000 0
DWIDTH 8 0
BBX 8 8 0 -1
BITMAP
00
00
00
00
00
00
00
00
ENDCHAR
STARTCHAR uniFB01
ENCODING 64257
SWIDTH 1000 0
DWIDTH 8 0
BBX 8 8 0 -1
BITMAP
3E
6E
60
FE
66
66
F7
00
ENDCHAR
STARTCHAR uniFB02
ENCODING 64258
SWIDTH 1000 0
DWIDTH 8 0
BBX 8 8 0 -1
BITMAP
3E
66
66
F6
66
66
F7
00
ENDCHAR
STARTCHAR uniFFFD
ENCODING 65533
SWIDTH 1000 0
DWIDTH 8 0
BBX 8 8 0 -1
BITMAP
83
39
F3
E7
E7
FF
E7
FF
ENDCHAR
STARTCHAR .notdef
ENCODING -1
SWIDTH 1000 0
DWIDTH 8 0
BBX 8 8 0 -1
BITMAP
83
39
F3
E7
E7
FF
E7
FF
ENDCHAR
ENDFONT
