STARTFONT 2.1
FONT ScrollPixel-11px
SIZE 11 75 75
FONTBOUNDINGBOX 11 12 -2 -3
STARTPROPERTIES 5
PIXEL_SIZE 11
FONT_ASCENT 9
FONT_DESCENT 3
CHARSET_REGISTRY "ISO10646"
CHARSET_ENCODING "1"
ENDPROPERTIES
CHARS 129
STARTCHAR space
ENCODING 32
SWIDTH 455 0
DWIDTH 5 0
BBX 1 1 0 0
BITMAP
00
ENDCHAR
STARTCHAR exclam
ENCODING 33
SWIDTH 273 0
DWIDTH 3 0
BBX 2 9 0 0
BITMAP
80
C0
C0
C0
C0
C0
00
C0
C0
ENDCHAR
STARTCHAR quotedbl
ENCODING 34
SWIDTH 545 0
DWIDTH 6 0
BBX 5 2 0 5
BITMAP
D8
D8
ENDCHAR
STARTCHAR numbersign
ENCODING 35
SWIDTH 636 0
DWIDTH 7 0
BBX 6 6 0 0
BITMAP
28
7C
28
50
F8
50
ENDCHAR
STARTCHAR dollar
ENCODING 36
SWIDTH 455 0
DWIDTH 5 0
BBX 4 8 0 -1
BITMAP
20
60
D0
E0
70
B0
60
40
ENDCHAR
STARTCHAR percent
ENCODING 37
SWIDTH 636 0
DWIDTH 7 0
BBX 7 8 -1 0
BITMAP
CC
CC
D8
18
30
36
66
66
ENDCHAR
STARTCHAR ampersand
ENCODING 38
SWIDTH 636 0
DWIDTH 7 0
BBX 6 7 0 0
BITMAP
60
D0
64
D8
D8
C8
70
ENDCHAR
STARTCHAR quotesingle
ENCODING 39
SWIDTH 273 0
DWIDTH 3 0
BBX 2 4 0 4
BITMAP
C0
C0
40
80
ENDCHAR
STARTCHAR parenleft
ENCODING 40
SWIDTH 364 0
DWIDTH 4 0
BBX 3 7 0 0
BITMAP
60
C0
C0
C0
C0
C0
60
ENDCHAR
STARTCHAR parenright
ENCODING 41
SWIDTH 364 0
DWIDTH 4 0
BBX 3 7 0 0
BITMAP
C0
60
60
60
60
60
C0
ENDCHAR
STARTCHAR asterisk
ENCODING 42
SWIDTH 364 0
DWIDTH 4 0
BBX 3 3 0 5
BITMAP
A0
40
A0
ENDCHAR
STARTCHAR plus
ENCODING 43
SWIDTH 545 0
DWIDTH 6 0
BBX 5 5 0 1
BITMAP
20
20
F8
20
20
ENDCHAR
STARTCHAR comma
ENCODING 44
SWIDTH 273 0
DWIDTH 3 0
BBX 2 4 0 -2
BITMAP
C0
C0
40
80
ENDCHAR
STARTCHAR hyphen
ENCODING 45
SWIDTH 455 0
DWIDTH 5 0
BBX 4 1 0 4
BITMAP
F0
ENDCHAR
STARTCHAR period
ENCODING 46
SWIDTH 273 0
DWIDTH 3 0
BBX 2 2 0 0
BITMAP
C0
C0
ENDCHAR
STARTCHAR slash
ENCODING 47
SWIDTH 545 0
DWIDTH 6 0
BBX 5 8 0 0
BITMAP
18
18
30
30
60
60
C0
C0
ENDCHAR
STARTCHAR zero
ENCODING 48
SWIDTH 545 0
DWIDTH 6 0
BBX 5 7 0 0
BITMAP
70
C8
E8
F8
D8
C8
70
ENDCHAR
STARTCHAR one
ENCODING 49
SWIDTH 364 0
DWIDTH 4 0
BBX 3 7 0 0
BITMAP
60
E0
60
60
60
60
60
ENDCHAR
STARTCHAR two
ENCODING 50
SWIDTH 545 0
DWIDTH 6 0
BBX 5 7 0 0
BITMAP
70
F8
98
30
68
F8
F0
ENDCHAR
STARTCHAR three
ENCODING 51
SWIDTH 545 0
DWIDTH 6 0
BBX 5 7 0 0
BITMAP
70
F8
98
30
98
F8
70
ENDCHAR
STARTCHAR four
ENCODING 52
SWIDTH 545 0
DWIDTH 6 0
BBX 5 7 0 0
BITMAP
68
D8
D8
F8
18
18
30
ENDCHAR
STARTCHAR five
ENCODING 53
SWIDTH 545 0
DWIDTH 6 0
BBX 5 7 0 0
BITMAP
78
68
C0
F0
18
D8
70
ENDCHAR
STARTCHAR six
ENCODING 54
SWIDTH 545 0
DWIDTH 6 0
BBX 5 7 0 0
BITMAP
70
C8
F0
D8
D8
D8
70
ENDCHAR
STARTCHAR seven
ENCODING 55
SWIDTH 545 0
DWIDTH 6 0
BBX 5 7 0 0
BITMAP
F8
D8
18
30
60
60
60
ENDCHAR
STARTCHAR eight
ENCODING 56
SWIDTH 545 0
DWIDTH 6 0
BBX 5 7 0 0
BITMAP
70
D8
D8
70
D8
D8
70
ENDCHAR
STARTCHAR nine
ENCODING 57
SWIDTH 545 0
DWIDTH 6 0
BBX 5 7 0 0
BITMAP
70
D8
D8
58
38
D8
70
ENDCHAR
STARTCHAR colon
ENCODING 58
SWIDTH 273 0
DWIDTH 3 0
BBX 2 6 0 0
BITMAP
C0
C0
00
00
C0
C0
ENDCHAR
STARTCHAR semicolon
ENCODING 59
SWIDTH 273 0
DWIDTH 3 0
BBX 2 8 0 -2
BITMAP
C0
C0
00
00
C0
C0
40
80
ENDCHAR
STARTCHAR less
ENCODING 60
SWIDTH 455 0
DWIDTH 5 0
BBX 4 5 0 1
BITMAP
30
60
C0
60
30
ENDCHAR
STARTCHAR equal
ENCODING 61
SWIDTH 545 0
DWIDTH 6 0
BBX 5 3 0 2
BITMAP
F8
00
F8
ENDCHAR
STARTCHAR greater
ENCODING 62
SWIDTH 455 0
DWIDTH 5 0
BBX 4 5 0 1
BITMAP
C0
60
30
60
C0
ENDCHAR
STARTCHAR question
ENCODING 63
SWIDTH 545 0
DWIDTH 6 0
BBX 5 8 0 0
BITMAP
F0
D8
18
70
60
00
60
60
ENDCHAR
STARTCHAR at
ENCODING 64
SWIDTH 727 0
DWIDTH 8 0
BBX 7 7 0 0
BITMAP
7C
C6
9A
AE
B8
C6
7C
ENDCHAR
STARTCHAR A
ENCODING 65
SWIDTH 455 0
DWIDTH 5 0
BBX 5 8 -1 -2
BITMAP
30
68
68
78
68
68
C8
10
ENDCHAR
STARTCHAR B
ENCODING 66
SWIDTH 455 0
DWIDTH 5 0
BBX 4 6 0 0
BITMAP
E0
D0
E0
D0
D0
E0
ENDCHAR
STARTCHAR C
ENCODING 67
SWIDTH 455 0
DWIDTH 5 0
BBX 4 6 0 0
BITMAP
70
D0
C0
C0
D0
60
ENDCHAR
STARTCHAR D
ENCODING 68
SWIDTH 545 0
DWIDTH 6 0
BBX 5 6 0 0
BITMAP
F0
68
68
68
68
F0
ENDCHAR
STARTCHAR E
ENCODING 69
SWIDTH 545 0
DWIDTH 6 0
BBX 5 6 0 0
BITMAP
70
C0
F0
C0
C8
F0
ENDCHAR
STARTCHAR F
ENCODING 70
SWIDTH 545 0
DWIDTH 6 0
BBX 6 9 -1 -2
BITMAP
04
78
B0
78
30
30
30
20
40
ENDCHAR
STARTCHAR G
ENCODING 71
SWIDTH 545 0
DWIDTH 6 0
BBX 5 6 0 0
BITMAP
70
C8
C0
D8
C8
70
ENDCHAR
STARTCHAR H
ENCODING 72
SWIDTH 727 0
DWIDTH 8 0
BBX 7 6 0 0
BITMAP
C8
CA
FC
C8
C8
C8
ENDCHAR
STARTCHAR I
ENCODING 73
SWIDTH 636 0
DWIDTH 7 0
BBX 6 8 0 -1
BITMAP
04
78
B0
30
30
34
78
80
ENDCHAR
STARTCHAR J
ENCODING 74
SWIDTH 636 0
DWIDTH 7 0
BBX 6 8 0 0
BITMAP
04
78
B0
30
30
30
B0
E0
ENDCHAR
STARTCHAR K
ENCODING 75
SWIDTH 545 0
DWIDTH 6 0
BBX 5 6 0 0
BITMAP
D8
D0
E0
F0
D8
D8
ENDCHAR
STARTCHAR L
ENCODING 76
SWIDTH 545 0
DWIDTH 6 0
BBX 5 6 0 0
BITMAP
C0
C0
C0
C0
C8
F0
ENDCHAR
STARTCHAR M
ENCODING 77
SWIDTH 636 0
DWIDTH 7 0
BBX 6 6 0 0
BITMAP
48
EC
D4
C4
C4
C4
ENDCHAR
STARTCHAR N
ENCODING 78
SWIDTH 636 0
DWIDTH 7 0
BBX 7 7 -1 -1
BITMAP
42
64
74
7C
6C
66
C0
ENDCHAR
STARTCHAR O
ENCODING 79
SWIDTH 455 0
DWIDTH 5 0
BBX 4 6 0 0
BITMAP
60
D0
D0
D0
D0
60
ENDCHAR
STARTCHAR P
ENCODING 80
SWIDTH 455 0
DWIDTH 5 0
BBX 6 8 -2 -2
BITMAP
78
34
34
38
30
30
B0
60
ENDCHAR
STARTCHAR Q
ENCODING 81
SWIDTH 545 0
DWIDTH 6 0
BBX 5 6 0 0
BITMAP
70
C8
C8
C8
D0
60
ENDCHAR
STARTCHAR R
ENCODING 82
SWIDTH 545 0
DWIDTH 6 0
BBX 5 6 0 0
BITMAP
E0
D0
D0
E0
F0
D8
ENDCHAR
STARTCHAR S
ENCODING 83
SWIDTH 545 0
DWIDTH 6 0
BBX 6 8 -1 -2
BITMAP
34
68
70
38
58
B0
80
60
ENDCHAR
STARTCHAR T
ENCODING 84
SWIDTH 455 0
DWIDTH 5 0
BBX 6 8 -2 -1
BITMAP
04
78
B0
30
30
30
30
18
ENDCHAR
STARTCHAR U
ENCODING 85
SWIDTH 545 0
DWIDTH 6 0
BBX 5 6 0 0
BITMAP
C8
C8
C8
C8
C8
70
ENDCHAR
STARTCHAR V
ENCODING 86
SWIDTH 545 0
DWIDTH 6 0
BBX 5 6 0 0
BITMAP
C8
C8
C8
C8
D0
60
ENDCHAR
STARTCHAR W
ENCODING 87
SWIDTH 545 0
DWIDTH 6 0
BBX 5 6 0 0
BITMAP
C8
C8
E8
E8
F8
50
ENDCHAR
STARTCHAR X
ENCODING 88
SWIDTH 545 0
DWIDTH 6 0
BBX 5 6 0 0
BITMAP
D8
D0
70
70
D8
C8
ENDCHAR
STARTCHAR Y
ENCODING 89
SWIDTH 455 0
DWIDTH 5 0
BBX 5 7 -1 -1
BITMAP
68
68
68
30
30
B0
60
ENDCHAR
STARTCHAR Z
ENCODING 90
SWIDTH 545 0
DWIDTH 6 0
BBX 5 6 0 0
BITMAP
F8
18
30
60
F8
F8
ENDCHAR
STARTCHAR bracketleft
ENCODING 91
SWIDTH 364 0
DWIDTH 4 0
BBX 3 7 0 0
BITMAP
E0
C0
C0
C0
C0
C0
E0
ENDCHAR
STARTCHAR backslash
ENCODING 92
SWIDTH 545 0
DWIDTH 6 0
BBX 5 8 0 0
BITMAP
C0
C0
60
60
30
30
18
18
ENDCHAR
STARTCHAR bracketright
ENCODING 93
SWIDTH 364 0
DWIDTH 4 0
BBX 3 7 0 0
BITMAP
E0
60
60
60
60
60
E0
ENDCHAR
STARTCHAR asciicircum
ENCODING 94
SWIDTH 545 0
DWIDTH 6 0
BBX 5 3 0 5
BITMAP
20
70
D8
ENDCHAR
STARTCHAR underscore
ENCODING 95
SWIDTH 545 0
DWIDTH 6 0
BBX 5 1 0 -1
BITMAP
F8
ENDCHAR
STARTCHAR grave
ENCODING 96
SWIDTH 273 0
DWIDTH 3 0
BBX 3 2 -1 5
BITMAP
C0
60
ENDCHAR
STARTCHAR a
ENCODING 97
SWIDTH 545 0
DWIDTH 6 0
BBX 5 4 0 0
BITMAP
70
D0
D0
68
ENDCHAR
STARTCHAR b
ENCODING 98
SWIDTH 545 0
DWIDTH 6 0
BBX 6 7 -1 0
BITMAP
C0
60
60
78
6C
6C
78
ENDCHAR
STARTCHAR c
ENCODING 99
SWIDTH 545 0
DWIDTH 6 0
BBX 5 5 0 0
BITMAP
08
70
C0
C8
70
ENDCHAR
STARTCHAR d
ENCODING 100
SWIDTH 636 0
DWIDTH 7 0
BBX 6 8 0 0
BITMAP
0C
18
18
18
78
D8
D8
78
ENDCHAR
STARTCHAR e
ENCODING 101
SWIDTH 545 0
DWIDTH 6 0
BBX 5 4 0 0
BITMAP
70
D0
E8
70
ENDCHAR
STARTCHAR f
ENCODING 102
SWIDTH 455 0
DWIDTH 5 0
BBX 4 10 0 -1
BITMAP
30
70
60
60
70
60
60
60
40
80
ENDCHAR
STARTCHAR g
ENCODING 103
SWIDTH 545 0
DWIDTH 6 0
BBX 5 8 0 -3
BITMAP
18
70
D8
D8
70
F8
D8
70
ENDCHAR
STARTCHAR h
ENCODING 104
SWIDTH 545 0
DWIDTH 6 0
BBX 6 7 -1 0
BITMAP
C0
60
60
78
6C
6C
6C
ENDCHAR
STARTCHAR i
ENCODING 105
SWIDTH 273 0
DWIDTH 3 0
BBX 2 7 0 0
BITMAP
C0
C0
00
C0
C0
C0
C0
ENDCHAR
STARTCHAR j
ENCODING 106
SWIDTH 455 0
DWIDTH 5 0
BBX 5 9 -1 -2
BITMAP
18
18
00
38
18
18
18
D8
70
ENDCHAR
STARTCHAR k
ENCODING 107
SWIDTH 545 0
DWIDTH 6 0
BBX 5 6 0 0
BITMAP
C0
C8
D8
F0
F0
D8
ENDCHAR
STARTCHAR l
ENCODING 108
SWIDTH 364 0
DWIDTH 4 0
BBX 4 7 -1 0
BITMAP
C0
60
60
60
60
60
30
ENDCHAR
STARTCHAR m
ENCODING 109
SWIDTH 636 0
DWIDTH 7 0
BBX 6 4 0 0
BITMAP
68
D4
D4
C4
ENDCHAR
STARTCHAR n
ENCODING 110
SWIDTH 545 0
DWIDTH 6 0
BBX 5 4 0 0
BITMAP
B0
D8
D8
D8
ENDCHAR
STARTCHAR o
ENCODING 111
SWIDTH 545 0
DWIDTH 6 0
BBX 5 4 0 0
BITMAP
70
D8
D8
70
ENDCHAR
STARTCHAR p
ENCODING 112
SWIDTH 455 0
DWIDTH 5 0
BBX 5 7 -1 -3
BITMAP
70
68
68
70
60
60
C0
ENDCHAR
STARTCHAR q
ENCODING 113
SWIDTH 636 0
DWIDTH 7 0
BBX 6 7 0 -3
BITMAP
78
D8
D8
78
18
18
0C
ENDCHAR
STARTCHAR r
ENCODING 114
SWIDTH 545 0
DWIDTH 6 0
BBX 5 4 0 0
BITMAP
B0
D8
C0
C0
ENDCHAR
STARTCHAR s
ENCODING 115
SWIDTH 364 0
DWIDTH 4 0
BBX 3 4 0 0
BITMAP
60
C0
60
C0
ENDCHAR
STARTCHAR t
ENCODING 116
SWIDTH 364 0
DWIDTH 4 0
BBX 3 7 0 0
BITMAP
C0
C0
E0
C0
C0
C0
60
ENDCHAR
STARTCHAR u
ENCODING 117
SWIDTH 455 0
DWIDTH 5 0
BBX 4 4 0 0
BITMAP
D0
D0
D0
70
ENDCHAR
STARTCHAR v
ENCODING 118
SWIDTH 455 0
DWIDTH 5 0
BBX 4 5 0 0
BITMAP
D0
D0
D0
D0
60
ENDCHAR
STARTCHAR w
ENCODING 119
SWIDTH 636 0
DWIDTH 7 0
BBX 6 4 0 0
BITMAP
D4
D4
D4
E8
ENDCHAR
STARTCHAR x
ENCODING 120
SWIDTH 455 0
DWIDTH 5 0
BBX 4 4 0 0
BITMAP
D0
E0
70
B0
ENDCHAR
STARTCHAR y
ENCODING 121
SWIDTH 455 0
DWIDTH 5 0
BBX 4 7 0 -3
BITMAP
D0
D0
D0
70
10
D0
60
ENDCHAR
STARTCHAR z
ENCODING 122
SWIDTH 455 0
DWIDTH 5 0
BBX 4 4 0 0
BITMAP
F0
20
C0
F0
ENDCHAR
STARTCHAR braceleft
ENCODING 123
SWIDTH 364 0
DWIDTH 4 0
BBX 4 7 -1 0
BITMAP
30
60
60
C0
60
60
30
ENDCHAR
STARTCHAR bar
ENCODING 124
SWIDTH 273 0
DWIDTH 3 0
BBX 2 9 0 -1
BITMAP
C0
C0
C0
C0
C0
C0
C0
C0
C0
ENDCHAR
STARTCHAR braceright
ENCODING 125
SWIDTH 455 0
DWIDTH 5 0
BBX 4 7 0 0
BITMAP
C0
60
60
30
60
60
C0
ENDCHAR
STARTCHAR asciitilde
ENCODING 126
SWIDTH 636 0
DWIDTH 7 0
BBX 6 2 0 2
BITMAP
64
98
ENDCHAR
STARTCHAR uni00A0
ENCODING 160
SWIDTH 455 0
DWIDTH 5 0
BBX 1 1 0 0
BITMAP
00
ENDCHAR
STARTCHAR exclamdown
ENCODING 161
SWIDTH 273 0
DWIDTH 3 0
BBX 2 9 0 -2
BITMAP
C0
C0
00
C0
C0
C0
C0
C0
80
ENDCHAR
STARTCHAR cent
ENCODING 162
SWIDTH 545 0
DWIDTH 6 0
BBX 5 7 0 -1
BITMAP
20
70
D8
C0
D8
70
20
ENDCHAR
STARTCHAR sterling
ENCODING 163
SWIDTH 545 0
DWIDTH 6 0
BBX 6 6 -1 0
BITMAP
38
60
F8
60
60
FC
ENDCHAR
STARTCHAR yen
ENCODING 165
SWIDTH 455 0
DWIDTH 5 0
BBX 4 7 0 0
BITMAP
D0
D0
60
F0
60
F0
60
ENDCHAR
STARTCHAR section
ENCODING 167
SWIDTH 545 0
DWIDTH 6 0
BBX 5 7 0 0
BITMAP
70
C8
70
D8
70
98
70
ENDCHAR
STARTCHAR copyright
ENCODING 169
SWIDTH 727 0
DWIDTH 8 0
BBX 7 7 0 0
BITMAP
7C
C6
BA
A2
BA
C6
7C
ENDCHAR
STARTCHAR ordfeminine
ENCODING 170
SWIDTH 455 0
DWIDTH 5 0
BBX 4 3 0 4
BITMAP
60
A0
D0
ENDCHAR
STARTCHAR guillemotleft
ENCODING 171
SWIDTH 636 0
DWIDTH 7 0
BBX 6 3 0 2
BITMAP
6C
D8
6C
ENDCHAR
STARTCHAR logicalnot
ENCODING 172
SWIDTH 545 0
DWIDTH 6 0
BBX 5 2 0 3
BITMAP
F8
08
ENDCHAR
STARTCHAR macron
ENCODING 175
SWIDTH 545 0
DWIDTH 6 0
BBX 5 1 0 7
BITMAP
F8
ENDCHAR
STARTCHAR degree
ENCODING 176
SWIDTH 364 0
DWIDTH 4 0
BBX 3 3 0 4
BITMAP
E0
A0
E0
ENDCHAR
STARTCHAR plusminus
ENCODING 177
SWIDTH 545 0
DWIDTH 6 0
BBX 5 7 0 0
BITMAP
20
20
F8
20
20
00
F8
ENDCHAR
STARTCHAR acute
ENCODING 180
SWIDTH 364 0
DWIDTH 4 0
BBX 3 2 0 5
BITMAP
60
C0
ENDCHAR
STARTCHAR mu
ENCODING 181
SWIDTH 455 0
DWIDTH 5 0
BBX 4 6 0 -2
BITMAP
D0
D0
D0
E0
C0
C0
ENDCHAR
STARTCHAR paragraph
ENCODING 182
SWIDTH 818 0
DWIDTH 9 0
BBX 8 10 0 -2
BITMAP
7F
FE
F4
F4
74
14
14
14
10
10
ENDCHAR
STARTCHAR periodcentered
ENCODING 183
SWIDTH 273 0
DWIDTH 3 0
BBX 2 2 0 2
BITMAP
C0
C0
ENDCHAR
STARTCHAR cedilla
ENCODING 184
SWIDTH 455 0
DWIDTH 5 0
BBX 5 3 -1 -3
BITMAP
30
98
70
ENDCHAR
STARTCHAR uni00B9
ENCODING 185
SWIDTH 364 0
DWIDTH 4 0
BBX 3 3 0 4
BITMAP
C0
40
E0
ENDCHAR
STARTCHAR guillemotright
ENCODING 187
SWIDTH 636 0
DWIDTH 7 0
BBX 6 3 0 2
BITMAP
D8
6C
D8
ENDCHAR
STARTCHAR questiondown
ENCODING 191
SWIDTH 545 0
DWIDTH 6 0
BBX 5 8 0 -2
BITMAP
30
30
00
30
70
C0
D8
78
ENDCHAR
STARTCHAR AE
ENCODING 198
SWIDTH 818 0
DWIDTH 9 0
BBX 8 6 0 0
BITMAP
6E
D8
DE
F8
D9
DE
ENDCHAR
STARTCHAR multiply
ENCODING 215
SWIDTH 545 0
DWIDTH 6 0
BBX 5 5 0 1
BITMAP
88
50
20
50
88
ENDCHAR
STARTCHAR ae
ENCODING 230
SWIDTH 909 0
DWIDTH 10 0
BBX 9 5 0 0
BITMAP
6000
B700
7D00
DE80
6F00
ENDCHAR
STARTCHAR divide
ENCODING 247
SWIDTH 545 0
DWIDTH 6 0
BBX 5 5 0 1
BITMAP
20
00
F8
00
20
ENDCHAR
STARTCHAR OE
ENCODING 338
SWIDTH 818 0
DWIDTH 9 0
BBX 8 6 0 0
BITMAP
6E
D8
DE
D8
D9
6E
ENDCHAR
STARTCHAR oe
ENCODING 339
SWIDTH 909 0
DWIDTH 10 0
BBX 9 4 0 0
BITMAP
7700
DD00
DE80
7700
ENDCHAR
STARTCHAR Euro
ENCODING 8364
SWIDTH 455 0
DWIDTH 5 0
BBX 5 7 -1 0
BITMAP
38
60
F0
60
F0
60
38
ENDCHAR
STARTCHAR trademark
ENCODING 8482
SWIDTH 727 0
DWIDTH 8 0
BBX 7 3 0 4
BITMAP
EE
56
52
ENDCHAR
STARTCHAR block
ENCODING 9608
SWIDTH 455 0
DWIDTH 5 0
BBX 4 6 0 0
BITMAP
F0
F0
F0
F0
F0
F0
ENDCHAR
STARTCHAR invsmileface
ENCODING 9787
SWIDTH 727 0
DWIDTH 8 0
BBX 7 7 0 0
BITMAP
7C
D6
D6
FE
BA
C6
7C
ENDCHAR
STARTCHAR uni3000
ENCODING 12288
SWIDTH 1455 0
DWIDTH 16 0
BBX 1 1 0 0
BITMAP
00
ENDCHAR
STARTCHAR .notdef
ENCODING -1
SWIDTH 91 0
DWIDTH 1 0
BBX 1 1 0 0
BITMAP
00
ENDCHAR
STARTCHAR glyph00001
ENCODING -1
SWIDTH 91 0
DWIDTH 1 0
BBX 1 1 0 0
BITMAP
00
ENDCHAR
ENDFONT
