STARTFONT 2.1
FONT pirkkala-16px
SIZE 16 75 75
FONTBOUNDINGBOX 14 16 0 -4
STARTPROPERTIES 5
PIXEL_SIZE 16
FONT_ASCENT 12
FONT_DESCENT 4
CHARSET_REGISTRY "ISO10646"
CHARSET_ENCODING "1"
ENDPROPERTIES
CHARS 113
STARTCHAR space
ENCODING 32
SWIDTH 312 0
DWIDTH 5 0
BBX 1 1 0 0
BITMAP
00
ENDCHAR
STARTCHAR exclam
ENCODING 33
SWIDTH 312 0
DWIDTH 5 0
BBX 4 12 0 0
BITMAP
C0
C0
C0
C0
E0
60
60
60
60
00
30
30
ENDCHAR
STARTCHAR quotedbl
ENCODING 34
SWIDTH 375 0
DWIDTH 6 0
BBX 5 3 0 8
BITMAP
D8
D8
D8
ENDCHAR
STARTCHAR numbersign
ENCODING 35
SWIDTH 688 0
DWIDTH 11 0
BBX 10 11 0 -1
BITMAP
0300
3300
33C0
FFC0
FF00
3300
33C0
FFC0
FF00
3300
3000
ENDCHAR
STARTCHAR dollar
ENCODING 36
SWIDTH 562 0
DWIDTH 9 0
BBX 8 14 0 -2
BITMAP
30
30
7C
FC
D8
D8
FE
7F
1B
1B
7F
7E
0C
0C
ENDCHAR
STARTCHAR percent
ENCODING 37
SWIDTH 562 0
DWIDTH 9 0
BBX 8 11 0 0
BITMAP
06
C6
CE
CC
1C
18
38
33
73
63
60
ENDCHAR
STARTCHAR ampersand
ENCODING 38
SWIDTH 625 0
DWIDTH 10 0
BBX 9 11 0 0
BITMAP
7800
FC00
CC00
CC00
FC00
7800
FD80
CF80
C700
FF80
7D80
ENDCHAR
STARTCHAR quotesingle
ENCODING 39
SWIDTH 188 0
DWIDTH 3 0
BBX 2 3 0 8
BITMAP
C0
C0
C0
ENDCHAR
STARTCHAR parenleft
ENCODING 40
SWIDTH 312 0
DWIDTH 5 0
BBX 4 14 0 -2
BITMAP
60
E0
C0
C0
C0
C0
C0
C0
C0
C0
C0
60
70
30
ENDCHAR
STARTCHAR parenright
ENCODING 41
SWIDTH 312 0
DWIDTH 5 0
BBX 4 14 0 -2
BITMAP
C0
E0
60
70
30
30
30
30
30
30
30
30
70
60
ENDCHAR
STARTCHAR asterisk
ENCODING 42
SWIDTH 312 0
DWIDTH 5 0
BBX 4 4 0 7
BITMAP
60
F0
F0
60
ENDCHAR
STARTCHAR plus
ENCODING 43
SWIDTH 438 0
DWIDTH 7 0
BBX 6 6 0 2
BITMAP
30
30
FC
FC
30
30
ENDCHAR
STARTCHAR comma
ENCODING 44
SWIDTH 250 0
DWIDTH 4 0
BBX 3 4 0 -2
BITMAP
60
60
E0
C0
ENDCHAR
STARTCHAR hyphen
ENCODING 45
SWIDTH 312 0
DWIDTH 5 0
BBX 4 2 0 4
BITMAP
F0
F0
ENDCHAR
STARTCHAR period
ENCODING 46
SWIDTH 250 0
DWIDTH 4 0
BBX 2 2 1 0
BITMAP
C0
C0
ENDCHAR
STARTCHAR slash
ENCODING 47
SWIDTH 438 0
DWIDTH 7 0
BBX 6 12 0 -1
BITMAP
0C
0C
1C
18
38
30
30
70
60
E0
C0
C0
ENDCHAR
STARTCHAR zero
ENCODING 48
SWIDTH 438 0
DWIDTH 7 0
BBX 6 11 0 0
BITMAP
70
F8
DC
CC
CC
CC
CC
CC
CC
FC
78
ENDCHAR
STARTCHAR one
ENCODING 49
SWIDTH 250 0
DWIDTH 4 0
BBX 3 11 0 0
BITMAP
60
E0
E0
60
60
60
60
60
60
60
60
ENDCHAR
STARTCHAR two
ENCODING 50
SWIDTH 438 0
DWIDTH 7 0
BBX 6 11 0 0
BITMAP
70
F8
DC
CC
0C
1C
38
70
E0
FC
FC
ENDCHAR
STARTCHAR three
ENCODING 51
SWIDTH 500 0
DWIDTH 8 0
BBX 7 11 0 0
BITMAP
78
FC
CC
0C
1C
38
3C
0E
C6
FE
7C
ENDCHAR
STARTCHAR four
ENCODING 52
SWIDTH 500 0
DWIDTH 8 0
BBX 7 11 0 0
BITMAP
18
D8
DC
CC
CC
CC
FE
7E
0C
0C
0C
ENDCHAR
STARTCHAR five
ENCODING 53
SWIDTH 438 0
DWIDTH 7 0
BBX 6 11 0 0
BITMAP
F8
F8
C0
C0
FC
FC
0C
0C
6C
7C
38
ENDCHAR
STARTCHAR six
ENCODING 54
SWIDTH 438 0
DWIDTH 7 0
BBX 6 11 0 0
BITMAP
70
F8
D8
C0
C0
F8
FC
CC
CC
FC
78
ENDCHAR
STARTCHAR seven
ENCODING 55
SWIDTH 375 0
DWIDTH 6 0
BBX 5 11 0 0
BITMAP
F8
F8
18
18
18
38
30
30
70
60
60
ENDCHAR
STARTCHAR eight
ENCODING 56
SWIDTH 438 0
DWIDTH 7 0
BBX 6 11 0 0
BITMAP
70
F8
DC
CC
FC
78
FC
CC
CC
FC
78
ENDCHAR
STARTCHAR nine
ENCODING 57
SWIDTH 438 0
DWIDTH 7 0
BBX 6 11 0 0
BITMAP
70
F8
DC
CC
CC
FC
7C
0C
6C
7C
38
ENDCHAR
STARTCHAR colon
ENCODING 58
SWIDTH 188 0
DWIDTH 3 0
BBX 2 7 0 0
BITMAP
C0
C0
00
00
00
C0
C0
ENDCHAR
STARTCHAR semicolon
ENCODING 59
SWIDTH 250 0
DWIDTH 4 0
BBX 3 8 0 -2
BITMAP
60
60
00
00
60
60
E0
C0
ENDCHAR
STARTCHAR less
ENCODING 60
SWIDTH 312 0
DWIDTH 5 0
BBX 4 7 0 1
BITMAP
30
70
E0
C0
E0
70
30
ENDCHAR
STARTCHAR equal
ENCODING 61
SWIDTH 312 0
DWIDTH 5 0
BBX 4 5 0 2
BITMAP
F0
F0
00
F0
F0
ENDCHAR
STARTCHAR greater
ENCODING 62
SWIDTH 312 0
DWIDTH 5 0
BBX 4 7 0 1
BITMAP
C0
E0
70
30
70
E0
C0
ENDCHAR
STARTCHAR question
ENCODING 63
SWIDTH 438 0
DWIDTH 7 0
BBX 6 12 0 0
BITMAP
78
FC
CC
CC
0C
1C
38
30
30
00
18
18
ENDCHAR
STARTCHAR at
ENCODING 64
SWIDTH 812 0
DWIDTH 13 0
BBX 12 12 0 -2
BITMAP
3FC0
7FE0
E070
CF30
DFB0
D9B0
D9B0
DFF0
CEE0
E000
7FC0
3FC0
ENDCHAR
STARTCHAR A
ENCODING 65
SWIDTH 500 0
DWIDTH 8 0
BBX 7 9 0 0
BITMAP
78
FC
CE
06
3E
7E
66
7E
3C
ENDCHAR
STARTCHAR B
ENCODING 66
SWIDTH 562 0
DWIDTH 9 0
BBX 8 12 0 0
BITMAP
C0
C0
C0
C0
DE
FF
F3
63
63
67
7E
3C
ENDCHAR
STARTCHAR C
ENCODING 67
SWIDTH 500 0
DWIDTH 8 0
BBX 7 9 0 0
BITMAP
3C
7E
E6
C6
C0
C0
E6
7E
3C
ENDCHAR
STARTCHAR D
ENCODING 68
SWIDTH 500 0
DWIDTH 8 0
BBX 7 12 0 0
BITMAP
18
1C
0C
0E
06
7E
FE
C6
C6
E6
7E
3C
ENDCHAR
STARTCHAR E
ENCODING 69
SWIDTH 500 0
DWIDTH 8 0
BBX 7 10 0 0
BITMAP
38
7C
EC
CC
FC
F8
C0
E6
7E
3C
ENDCHAR
STARTCHAR F
ENCODING 70
SWIDTH 438 0
DWIDTH 7 0
BBX 6 12 0 -1
BITMAP
38
7C
EC
C0
C0
F8
F8
C0
E0
60
70
30
ENDCHAR
STARTCHAR G
ENCODING 71
SWIDTH 562 0
DWIDTH 9 0
BBX 8 13 0 -4
BITMAP
78
FC
CE
C6
C7
EF
7F
3B
03
03
67
7E
3C
ENDCHAR
STARTCHAR H
ENCODING 72
SWIDTH 562 0
DWIDTH 9 0
BBX 8 12 0 0
BITMAP
C0
C0
C0
DC
FE
F6
E7
C3
C3
E3
63
60
ENDCHAR
STARTCHAR I
ENCODING 73
SWIDTH 250 0
DWIDTH 4 0
BBX 3 11 0 0
BITMAP
C0
C0
00
C0
C0
C0
C0
C0
E0
60
60
ENDCHAR
STARTCHAR J
ENCODING 74
SWIDTH 438 0
DWIDTH 7 0
BBX 6 15 0 -4
BITMAP
18
18
00
18
18
18
1C
0C
0C
6C
EC
CC
CC
FC
78
ENDCHAR
STARTCHAR K
ENCODING 75
SWIDTH 500 0
DWIDTH 8 0
BBX 7 12 0 0
BITMAP
C0
C0
C0
C0
C6
CE
DC
F8
FC
6E
66
66
ENDCHAR
STARTCHAR L
ENCODING 76
SWIDTH 250 0
DWIDTH 4 0
BBX 3 12 0 0
BITMAP
C0
C0
C0
C0
C0
C0
C0
C0
C0
E0
60
60
ENDCHAR
STARTCHAR M
ENCODING 77
SWIDTH 812 0
DWIDTH 13 0
BBX 12 9 0 0
BITMAP
CDC0
DFE0
FF60
F660
6670
6630
6730
7330
3330
ENDCHAR
STARTCHAR N
ENCODING 78
SWIDTH 625 0
DWIDTH 10 0
BBX 9 9 0 0
BITMAP
CE00
DF00
FB00
F380
6180
6180
7180
3180
3180
ENDCHAR
STARTCHAR O
ENCODING 79
SWIDTH 500 0
DWIDTH 8 0
BBX 7 9 0 0
BITMAP
38
7C
EE
C6
C6
C6
E6
7E
3C
ENDCHAR
STARTCHAR P
ENCODING 80
SWIDTH 500 0
DWIDTH 8 0
BBX 7 13 0 -4
BITMAP
3C
7E
E6
C6
C6
CE
FC
F8
C0
E0
60
70
30
ENDCHAR
STARTCHAR Q
ENCODING 81
SWIDTH 500 0
DWIDTH 8 0
BBX 7 12 0 -3
BITMAP
78
FC
CE
C6
C6
C6
CE
FC
7C
0C
0E
06
ENDCHAR
STARTCHAR R
ENCODING 82
SWIDTH 500 0
DWIDTH 8 0
BBX 7 9 0 0
BITMAP
DC
FE
F6
C6
C0
E0
60
70
30
ENDCHAR
STARTCHAR S
ENCODING 83
SWIDTH 500 0
DWIDTH 8 0
BBX 7 10 0 0
BITMAP
70
F8
D8
C0
FC
7E
06
C6
FE
7C
ENDCHAR
STARTCHAR T
ENCODING 84
SWIDTH 375 0
DWIDTH 6 0
BBX 5 12 0 0
BITMAP
60
60
78
F8
E0
60
60
60
70
30
38
18
ENDCHAR
STARTCHAR U
ENCODING 85
SWIDTH 625 0
DWIDTH 10 0
BBX 9 9 0 0
BITMAP
0600
C600
C600
C700
C300
E300
6700
7F80
3D80
ENDCHAR
STARTCHAR V
ENCODING 86
SWIDTH 500 0
DWIDTH 8 0
BBX 7 9 0 0
BITMAP
C6
C6
C6
C6
E6
6E
7C
3C
18
ENDCHAR
STARTCHAR W
ENCODING 87
SWIDTH 688 0
DWIDTH 11 0
BBX 10 9 0 0
BITMAP
0180
C180
C180
C1C0
CCC0
ECC0
6EC0
7FC0
3B80
ENDCHAR
STARTCHAR X
ENCODING 88
SWIDTH 562 0
DWIDTH 9 0
BBX 8 10 0 0
BITMAP
C0
C6
E6
6E
7C
38
3C
7E
67
63
ENDCHAR
STARTCHAR Y
ENCODING 89
SWIDTH 562 0
DWIDTH 9 0
BBX 8 12 0 -3
BITMAP
C6
C6
C6
C7
E3
63
7F
3F
03
33
3F
1E
ENDCHAR
STARTCHAR Z
ENCODING 90
SWIDTH 500 0
DWIDTH 8 0
BBX 7 9 0 0
BITMAP
F8
FC
0C
1C
38
70
E0
FE
7E
ENDCHAR
STARTCHAR bracketleft
ENCODING 91
SWIDTH 375 0
DWIDTH 6 0
BBX 5 14 0 -2
BITMAP
F0
F0
C0
C0
C0
C0
E0
60
60
60
60
60
78
78
ENDCHAR
STARTCHAR backslash
ENCODING 92
SWIDTH 438 0
DWIDTH 7 0
BBX 6 12 0 -1
BITMAP
C0
C0
E0
60
60
70
30
38
18
1C
0C
0C
ENDCHAR
STARTCHAR bracketright
ENCODING 93
SWIDTH 375 0
DWIDTH 6 0
BBX 5 14 0 -2
BITMAP
F0
F0
30
30
30
38
18
18
18
18
18
18
78
78
ENDCHAR
STARTCHAR asciicircum
ENCODING 94
SWIDTH 500 0
DWIDTH 8 0
BBX 7 4 0 8
BITMAP
38
7C
EE
C6
ENDCHAR
STARTCHAR underscore
ENCODING 95
SWIDTH 375 0
DWIDTH 6 0
BBX 5 2 0 -1
BITMAP
F8
F8
ENDCHAR
STARTCHAR grave
ENCODING 96
SWIDTH 250 0
DWIDTH 4 0
BBX 3 4 0 8
BITMAP
C0
C0
E0
60
ENDCHAR
STARTCHAR a
ENCODING 97
SWIDTH 500 0
DWIDTH 8 0
BBX 7 9 0 0
BITMAP
78
FC
CE
06
3E
7E
66
7E
3C
ENDCHAR
STARTCHAR b
ENCODING 98
SWIDTH 562 0
DWIDTH 9 0
BBX 8 12 0 0
BITMAP
C0
C0
C0
C0
DE
FF
F3
63
63
67
7E
3C
ENDCHAR
STARTCHAR c
ENCODING 99
SWIDTH 500 0
DWIDTH 8 0
BBX 7 9 0 0
BITMAP
3C
7E
E6
C6
C0
C0
E6
7E
3C
ENDCHAR
STARTCHAR d
ENCODING 100
SWIDTH 500 0
DWIDTH 8 0
BBX 7 12 0 0
BITMAP
18
1C
0C
0E
06
7E
FE
C6
C6
E6
7E
3C
ENDCHAR
STARTCHAR e
ENCODING 101
SWIDTH 500 0
DWIDTH 8 0
BBX 7 10 0 0
BITMAP
38
7C
EC
CC
FC
F8
C0
E6
7E
3C
ENDCHAR
STARTCHAR f
ENCODING 102
SWIDTH 438 0
DWIDTH 7 0
BBX 6 12 0 -1
BITMAP
38
7C
EC
C0
C0
F8
F8
C0
E0
60
70
30
ENDCHAR
STARTCHAR g
ENCODING 103
SWIDTH 562 0
DWIDTH 9 0
BBX 8 13 0 -4
BITMAP
78
FC
CE
C6
C7
EF
7F
3B
03
03
67
7E
3C
ENDCHAR
STARTCHAR h
ENCODING 104
SWIDTH 562 0
DWIDTH 9 0
BBX 8 12 0 0
BITMAP
C0
C0
C0
DC
FE
F6
E7
C3
C3
E3
63
60
ENDCHAR
STARTCHAR i
ENCODING 105
SWIDTH 250 0
DWIDTH 4 0
BBX 3 11 0 0
BITMAP
C0
C0
00
C0
C0
C0
C0
C0
E0
60
60
ENDCHAR
STARTCHAR j
ENCODING 106
SWIDTH 438 0
DWIDTH 7 0
BBX 6 15 0 -4
BITMAP
18
18
00
18
18
18
1C
0C
0C
6C
EC
CC
CC
FC
78
ENDCHAR
STARTCHAR k
ENCODING 107
SWIDTH 500 0
DWIDTH 8 0
BBX 7 12 0 0
BITMAP
C0
C0
C0
C0
C6
CE
DC
F8
FC
6E
66
66
ENDCHAR
STARTCHAR l
ENCODING 108
SWIDTH 250 0
DWIDTH 4 0
BBX 3 12 0 0
BITMAP
C0
C0
C0
C0
C0
C0
C0
C0
C0
E0
60
60
ENDCHAR
STARTCHAR m
ENCODING 109
SWIDTH 812 0
DWIDTH 13 0
BBX 12 9 0 0
BITMAP
CDC0
DFE0
FF60
F660
6670
6630
6730
7330
3330
ENDCHAR
STARTCHAR n
ENCODING 110
SWIDTH 625 0
DWIDTH 10 0
BBX 9 9 0 0
BITMAP
CE00
DF00
FB00
F380
6180
6180
7180
3180
3180
ENDCHAR
STARTCHAR o
ENCODING 111
SWIDTH 500 0
DWIDTH 8 0
BBX 7 9 0 0
BITMAP
38
7C
EE
C6
C6
C6
E6
7E
3C
ENDCHAR
STARTCHAR p
ENCODING 112
SWIDTH 500 0
DWIDTH 8 0
BBX 7 13 0 -4
BITMAP
3C
7E
E6
C6
C6
CE
FC
F8
C0
E0
60
70
30
ENDCHAR
STARTCHAR q
ENCODING 113
SWIDTH 500 0
DWIDTH 8 0
BBX 7 12 0 -3
BITMAP
78
FC
CE
C6
C6
C6
CE
FC
7C
0C
0E
06
ENDCHAR
STARTCHAR r
ENCODING 114
SWIDTH 500 0
DWIDTH 8 0
BBX 7 9 0 0
BITMAP
DC
FE
F6
C6
C0
E0
60
70
30
ENDCHAR
STARTCHAR s
ENCODING 115
SWIDTH 500 0
DWIDTH 8 0
BBX 7 10 0 0
BITMAP
70
F8
D8
C0
FC
7E
06
C6
FE
7C
ENDCHAR
STARTCHAR t
ENCODING 116
SWIDTH 375 0
DWIDTH 6 0
BBX 5 12 0 0
BITMAP
60
60
78
F8
E0
60
60
60
70
30
38
18
ENDCHAR
STARTCHAR u
ENCODING 117
SWIDTH 625 0
DWIDTH 10 0
BBX 9 9 0 0
BITMAP
0600
C600
C600
C700
C300
E300
6700
7F80
3D80
ENDCHAR
STARTCHAR v
ENCODING 118
SWIDTH 500 0
DWIDTH 8 0
BBX 7 9 0 0
BITMAP
C6
C6
C6
C6
E6
6E
7C
3C
18
ENDCHAR
STARTCHAR w
ENCODING 119
SWIDTH 688 0
DWIDTH 11 0
BBX 10 9 0 0
BITMAP
0180
C180
C180
C1C0
CCC0
ECC0
6EC0
7FC0
3B80
ENDCHAR
STARTCHAR x
ENCODING 120
SWIDTH 562 0
DWIDTH 9 0
BBX 8 10 0 0
BITMAP
C0
C6
E6
6E
7C
38
3C
7E
67
63
ENDCHAR
STARTCHAR y
ENCODING 121
SWIDTH 562 0
DWIDTH 9 0
BBX 8 12 0 -3
BITMAP
C6
C6
C6
C7
E3
63
7F
3F
03
33
3F
1E
ENDCHAR
STARTCHAR z
ENCODING 122
SWIDTH 500 0
DWIDTH 8 0
BBX 7 9 0 0
BITMAP
F8
FC
0C
1C
38
70
E0
FE
7E
ENDCHAR
STARTCHAR braceleft
ENCODING 123
SWIDTH 500 0
DWIDTH 8 0
BBX 7 14 0 -2
BITMAP
1C
3C
30
30
30
70
E0
E0
70
30
30
38
1E
0E
ENDCHAR
STARTCHAR bar
ENCODING 124
SWIDTH 250 0
DWIDTH 4 0
BBX 3 14 0 -2
BITMAP
C0
C0
C0
C0
C0
C0
E0
60
60
60
60
60
60
60
ENDCHAR
STARTCHAR braceright
ENCODING 125
SWIDTH 500 0
DWIDTH 8 0
BBX 7 14 0 -2
BITMAP
E0
F0
38
18
18
1C
0E
0E
1C
18
18
18
78
70
ENDCHAR
STARTCHAR asciitilde
ENCODING 126
SWIDTH 500 0
DWIDTH 8 0
BBX 7 3 0 4
BITMAP
76
FE
DC
ENDCHAR
STARTCHAR uni00A0
ENCODING 160
SWIDTH 312 0
DWIDTH 5 0
BBX 1 1 0 0
BITMAP
00
ENDCHAR
STARTCHAR exclamdown
ENCODING 161
SWIDTH 312 0
DWIDTH 5 0
BBX 3 12 1 -3
BITMAP
C0
C0
00
C0
C0
C0
C0
E0
60
60
60
60
ENDCHAR
STARTCHAR copyright
ENCODING 169
SWIDTH 938 0
DWIDTH 15 0
BBX 14 15 0 -3
BITMAP
1FE0
3FF0
7038
E79C
CFCC
DCCC
D8CC
D80C
D80C
DCCC
CFCC
E79C
7038
3FF0
1FE0
ENDCHAR
STARTCHAR macron
ENCODING 175
SWIDTH 500 0
DWIDTH 8 0
BBX 7 11 0 -1
BITMAP
18
18
7E
FE
D8
D8
D8
FE
7E
18
18
ENDCHAR
STARTCHAR Adieresis
ENCODING 196
SWIDTH 500 0
DWIDTH 8 0
BBX 7 12 0 0
BITMAP
D8
D8
00
78
FC
CE
06
3E
7E
66
7E
3C
ENDCHAR
STARTCHAR Aring
ENCODING 197
SWIDTH 500 0
DWIDTH 8 0
BBX 7 12 0 0
BITMAP
38
7C
6C
7C
FC
CE
06
3E
7E
66
7E
3C
ENDCHAR
STARTCHAR Odieresis
ENCODING 214
SWIDTH 500 0
DWIDTH 8 0
BBX 7 11 0 0
BITMAP
D8
D8
00
78
FC
CE
C6
C6
E6
7E
3C
ENDCHAR
STARTCHAR Udieresis
ENCODING 220
SWIDTH 625 0
DWIDTH 10 0
BBX 9 12 0 0
BITMAP
1800
D800
C000
0600
C600
C600
C700
C300
E300
6700
7F80
3D80
ENDCHAR
STARTCHAR germandbls
ENCODING 223
SWIDTH 625 0
DWIDTH 10 0
BBX 9 16 0 -4
BITMAP
3C00
7E00
E600
CE00
DC00
D800
DE00
CF00
C380
E180
6D80
6F80
6700
7000
3000
3000
ENDCHAR
STARTCHAR adieresis
ENCODING 228
SWIDTH 500 0
DWIDTH 8 0
BBX 7 12 0 0
BITMAP
D8
D8
00
78
FC
CE
06
3E
7E
66
7E
3C
ENDCHAR
STARTCHAR aring
ENCODING 229
SWIDTH 500 0
DWIDTH 8 0
BBX 7 12 0 0
BITMAP
38
7C
6C
7C
FC
CE
06
3E
7E
66
7E
3C
ENDCHAR
STARTCHAR odieresis
ENCODING 246
SWIDTH 500 0
DWIDTH 8 0
BBX 7 11 0 0
BITMAP
D8
D8
00
78
FC
CE
C6
C6
E6
7E
3C
ENDCHAR
STARTCHAR udieresis
ENCODING 252
SWIDTH 625 0
DWIDTH 10 0
BBX 9 12 0 0
BITMAP
1800
D800
C000
0600
C600
C600
C700
C300
E300
6700
7F80
3D80
ENDCHAR
STARTCHAR Euro
ENCODING 8364
SWIDTH 562 0
DWIDTH 9 0
BBX 8 10 0 0
BITMAP
3C
7E
66
60
FC
FC
60
73
3F
1E
ENDCHAR
STARTCHAR uni3000
ENCODING 12288
SWIDTH 1000 0
DWIDTH 16 0
BBX 1 1 0 0
BITMAP
00
ENDCHAR
STARTCHAR .notdef
ENCODING -1
SWIDTH 375 0
DWIDTH 6 0
BBX 4 11 1 0
BITMAP
F0
90
90
90
90
90
90
90
90
90
F0
ENDCHAR
STARTCHAR .null
ENCODING -1
SWIDTH 0 0
DWIDTH 0 0
BBX 1 1 0 0
BITMAP
00
ENDCHAR
STARTCHAR nonmarkingreturn
ENCODING -1
SWIDTH 312 0
DWIDTH 5 0
BBX 1 1 0 0
BITMAP
00
ENDCHAR
ENDFONT
