STARTFONT 2.1
FONT Yarndings12-Regular-16px
SIZE 16 75 75
FONTBOUNDINGBOX 15 12 0 0
STARTPROPERTIES 3
PIXEL_SIZE 16
FONT_ASCENT 14
FONT_DESCENT 2
ENDPROPERTIES
CHARS 93
STARTCHAR uni0020
ENCODING 32
SWIDTH 312 0
DWIDTH 5 0
BBX 1 1 0 0
BITMAP
00
ENDCHAR
STARTCHAR uni0021
ENCODING 33
SWIDTH 875 0
DWIDTH 14 0
BBX 12 12 1 0
BITMAP
0F00
3FC0
7FE0
7FE0
FFF0
FFF0
FFF0
FFF0
7FE0
7FE0
3FC0
0F00
ENDCHAR
STARTCHAR uni0022
ENCODING 34
SWIDTH 812 0
DWIDTH 13 0
BBX 11 11 1 0
BITMAP
0E00
0E00
0E00
0E00
FFE0
FFE0
FFE0
0E00
0E00
0E00
0E00
ENDCHAR
STARTCHAR uni0023
ENCODING 35
SWIDTH 562 0
DWIDTH 9 0
BBX 7 7 1 3
BITMAP
02
06
0E
1E
3E
7E
FE
ENDCHAR
STARTCHAR uni0027
ENCODING 39
SWIDTH 812 0
DWIDTH 13 0
BBX 11 11 1 0
BITMAP
0E00
0A00
0A00
0A00
FBE0
8020
FBE0
0A00
0A00
0A00
0E00
ENDCHAR
STARTCHAR uni0028
ENCODING 40
SWIDTH 438 0
DWIDTH 7 0
BBX 5 10 1 1
BITMAP
F8
F8
F8
F8
F8
F8
F8
F8
F8
F8
ENDCHAR
STARTCHAR uni0029
ENCODING 41
SWIDTH 438 0
DWIDTH 7 0
BBX 5 10 1 1
BITMAP
F8
F8
D8
D8
D8
D8
D8
D8
F8
F8
ENDCHAR
STARTCHAR uni002A
ENCODING 42
SWIDTH 562 0
DWIDTH 9 0
BBX 7 7 1 3
BITMAP
80
C0
E0
F0
F8
FC
FE
ENDCHAR
STARTCHAR uni002B
ENCODING 43
SWIDTH 688 0
DWIDTH 11 0
BBX 9 11 1 0
BITMAP
E380
E380
E380
1C00
1C00
1C00
1C00
1C00
E380
E380
E380
ENDCHAR
STARTCHAR uni002C
ENCODING 44
SWIDTH 562 0
DWIDTH 9 0
BBX 7 7 1 3
BITMAP
FE
FE
FE
FE
FE
FE
FE
ENDCHAR
STARTCHAR uni002D
ENCODING 45
SWIDTH 250 0
DWIDTH 4 0
BBX 2 10 1 1
BITMAP
C0
C0
C0
C0
C0
C0
C0
C0
C0
C0
ENDCHAR
STARTCHAR uni002E
ENCODING 46
SWIDTH 438 0
DWIDTH 7 0
BBX 5 5 1 3
BITMAP
70
F8
F8
F8
70
ENDCHAR
STARTCHAR uni002F
ENCODING 47
SWIDTH 562 0
DWIDTH 9 0
BBX 7 7 1 3
BITMAP
FE
FC
F8
F0
E0
C0
80
ENDCHAR
STARTCHAR uni0030
ENCODING 48
SWIDTH 688 0
DWIDTH 11 0
BBX 9 9 1 1
BITMAP
E380
E380
E380
1C00
1C00
1C00
E380
E380
E380
ENDCHAR
STARTCHAR uni0031
ENCODING 49
SWIDTH 688 0
DWIDTH 11 0
BBX 9 9 1 1
BITMAP
1C00
1C00
1C00
E380
E380
E380
1C00
1C00
1C00
ENDCHAR
STARTCHAR uni0032
ENCODING 50
SWIDTH 688 0
DWIDTH 11 0
BBX 9 9 1 1
BITMAP
1C00
1C00
1C00
FF80
FF80
FF80
1C00
1C00
1C00
ENDCHAR
STARTCHAR uni0033
ENCODING 51
SWIDTH 750 0
DWIDTH 12 0
BBX 10 10 1 1
BITMAP
3300
3300
F3C0
F3C0
0C00
0C00
F3C0
F3C0
3300
3300
ENDCHAR
STARTCHAR uni0034
ENCODING 52
SWIDTH 750 0
DWIDTH 12 0
BBX 10 10 1 1
BITMAP
3F00
3F00
CCC0
CCC0
F3C0
F3C0
CCC0
CCC0
3F00
3F00
ENDCHAR
STARTCHAR uni0035
ENCODING 53
SWIDTH 750 0
DWIDTH 12 0
BBX 10 10 1 1
BITMAP
0C00
0C00
3F00
3F00
F3C0
F3C0
3F00
3F00
0C00
0C00
ENDCHAR
STARTCHAR uni0036
ENCODING 54
SWIDTH 688 0
DWIDTH 11 0
BBX 9 9 1 1
BITMAP
FF80
FF80
C180
C980
DD80
C980
C180
FF80
FF80
ENDCHAR
STARTCHAR uni0037
ENCODING 55
SWIDTH 812 0
DWIDTH 13 0
BBX 11 11 1 0
BITMAP
1B00
1B00
1B00
FBE0
FBE0
0000
FBE0
FBE0
1B00
1B00
1B00
ENDCHAR
STARTCHAR uni0038
ENCODING 56
SWIDTH 812 0
DWIDTH 13 0
BBX 11 11 1 0
BITMAP
1B00
7BC0
7BC0
E0E0
EEE0
0E00
EEE0
E0E0
7BC0
7BC0
1B00
ENDCHAR
STARTCHAR uni0039
ENCODING 57
SWIDTH 875 0
DWIDTH 14 0
BBX 12 12 1 0
BITMAP
0600
0F00
1F80
2640
6660
F9F0
F9F0
6660
2640
1F80
0F00
0600
ENDCHAR
STARTCHAR uni003A
ENCODING 58
SWIDTH 562 0
DWIDTH 9 0
BBX 7 7 1 3
BITMAP
FE
FE
C6
C6
C6
FE
FE
ENDCHAR
STARTCHAR uni003B
ENCODING 59
SWIDTH 562 0
DWIDTH 9 0
BBX 7 7 1 3
BITMAP
FE
82
82
82
82
82
FE
ENDCHAR
STARTCHAR uni003C
ENCODING 60
SWIDTH 688 0
DWIDTH 11 0
BBX 9 12 1 0
BITMAP
1C00
1C00
1C00
E380
E380
1C00
1C00
E380
E380
1C00
1C00
1C00
ENDCHAR
STARTCHAR uni003D
ENCODING 61
SWIDTH 688 0
DWIDTH 11 0
BBX 9 11 1 0
BITMAP
1C00
1C00
1C00
E380
E380
E380
E380
E380
1C00
1C00
1C00
ENDCHAR
STARTCHAR uni003E
ENCODING 62
SWIDTH 750 0
DWIDTH 12 0
BBX 10 12 1 0
BITMAP
3300
3300
F3C0
F3C0
0C00
0C00
0C00
0C00
F3C0
F3C0
3300
3300
ENDCHAR
STARTCHAR uni003F
ENCODING 63
SWIDTH 875 0
DWIDTH 14 0
BBX 12 12 1 0
BITMAP
0F00
3FC0
70E0
6060
C030
C030
C030
C030
6060
70E0
3FC0
0F00
ENDCHAR
STARTCHAR uni0041
ENCODING 65
SWIDTH 875 0
DWIDTH 14 0
BBX 12 12 1 0
BITMAP
0600
0600
0600
0600
0600
F9F0
F9F0
0600
0600
0600
0600
0600
ENDCHAR
STARTCHAR uni0042
ENCODING 66
SWIDTH 875 0
DWIDTH 14 0
BBX 12 12 1 0
BITMAP
0F00
0F00
0F00
0F00
F0F0
F0F0
F0F0
F0F0
0F00
0F00
0F00
0F00
ENDCHAR
STARTCHAR uni0043
ENCODING 67
SWIDTH 875 0
DWIDTH 14 0
BBX 12 12 1 0
BITMAP
0F00
0F00
0600
0600
C630
FFF0
FFF0
C630
0600
0600
0F00
0F00
ENDCHAR
STARTCHAR uni0044
ENCODING 68
SWIDTH 875 0
DWIDTH 14 0
BBX 12 12 1 0
BITMAP
3FC0
1F80
8F10
C630
E670
FFF0
FFF0
E670
C630
8F10
1F80
3FC0
ENDCHAR
STARTCHAR uni0045
ENCODING 69
SWIDTH 875 0
DWIDTH 14 0
BBX 12 12 1 0
BITMAP
0600
0F00
0F00
0F00
76E0
FFF0
FFF0
76E0
0F00
0F00
0F00
0600
ENDCHAR
STARTCHAR uni0046
ENCODING 70
SWIDTH 875 0
DWIDTH 14 0
BBX 12 12 1 0
BITMAP
0600
0F00
0F00
0600
6F60
FFF0
FFF0
6F60
0600
0F00
0F00
0600
ENDCHAR
STARTCHAR uni0047
ENCODING 71
SWIDTH 875 0
DWIDTH 14 0
BBX 12 12 1 0
BITMAP
0600
0F00
0F00
0600
6660
FFF0
FFF0
6660
0600
0F00
0F00
0600
ENDCHAR
STARTCHAR uni0048
ENCODING 72
SWIDTH 875 0
DWIDTH 14 0
BBX 12 12 1 0
BITMAP
0600
6F60
6F60
1680
6F60
FFF0
FFF0
6F60
1680
6F60
6F60
0600
ENDCHAR
STARTCHAR uni0049
ENCODING 73
SWIDTH 875 0
DWIDTH 14 0
BBX 12 12 1 0
BITMAP
6660
EF70
EF70
0600
6660
FFF0
FFF0
6660
0600
EF70
EF70
6660
ENDCHAR
STARTCHAR uni004A
ENCODING 74
SWIDTH 812 0
DWIDTH 13 0
BBX 11 11 1 0
BITMAP
1B00
1B00
1B00
FBE0
FBE0
0000
FBE0
FBE0
1B00
1B00
1B00
ENDCHAR
STARTCHAR uni004B
ENCODING 75
SWIDTH 688 0
DWIDTH 11 0
BBX 7 7 2 2
BITMAP
44
EE
7C
38
7C
EE
44
ENDCHAR
STARTCHAR uni004C
ENCODING 76
SWIDTH 812 0
DWIDTH 13 0
BBX 11 11 1 0
BITMAP
4040
E0E0
71C0
3B80
1F00
0E00
1F00
3B80
71C0
E0E0
4040
ENDCHAR
STARTCHAR uni004D
ENCODING 77
SWIDTH 812 0
DWIDTH 13 0
BBX 11 11 1 0
BITMAP
4040
E0E0
60C0
1100
0E00
0E00
0E00
1100
60C0
E0E0
4040
ENDCHAR
STARTCHAR uni004E
ENCODING 78
SWIDTH 688 0
DWIDTH 11 0
BBX 9 9 1 1
BITMAP
4100
C180
2200
1C00
1C00
1C00
2200
C180
4100
ENDCHAR
STARTCHAR uni004F
ENCODING 79
SWIDTH 875 0
DWIDTH 14 0
BBX 11 12 1 0
BITMAP
3180
3B80
DF60
EEE0
75C0
3B80
3B80
75C0
EEE0
DF60
3B80
3180
ENDCHAR
STARTCHAR uni0050
ENCODING 80
SWIDTH 812 0
DWIDTH 13 0
BBX 11 11 1 0
BITMAP
71C0
BBA0
DB60
EAE0
71C0
0000
71C0
EAE0
DB60
BBA0
71C0
ENDCHAR
STARTCHAR uni0051
ENCODING 81
SWIDTH 875 0
DWIDTH 14 0
BBX 12 12 1 0
BITMAP
0600
2640
76E0
36C0
0000
F6F0
F6F0
0000
36C0
76E0
2640
0600
ENDCHAR
STARTCHAR uni0052
ENCODING 82
SWIDTH 812 0
DWIDTH 13 0
BBX 11 11 1 0
BITMAP
3180
4A40
CA60
64C0
0E00
1F00
0E00
64C0
CA60
4A40
3180
ENDCHAR
STARTCHAR uni0053
ENCODING 83
SWIDTH 875 0
DWIDTH 14 0
BBX 12 12 1 0
BITMAP
0600
2F40
76E0
3FC0
59A0
F6F0
F6F0
59A0
3FC0
76E0
2F40
0600
ENDCHAR
STARTCHAR uni0054
ENCODING 84
SWIDTH 812 0
DWIDTH 13 0
BBX 11 11 1 0
BITMAP
4E40
EEE0
75C0
3B80
DF60
EEE0
DF60
3B80
75C0
EEE0
4E40
ENDCHAR
STARTCHAR uni0055
ENCODING 85
SWIDTH 875 0
DWIDTH 14 0
BBX 12 12 1 0
BITMAP
0600
6F60
6F60
1680
6960
F6F0
F6F0
6960
1680
6F60
6F60
0600
ENDCHAR
STARTCHAR uni0056
ENCODING 86
SWIDTH 875 0
DWIDTH 14 0
BBX 12 12 1 0
BITMAP
0600
2640
76E0
3FC0
1F80
FFF0
FFF0
1F80
3FC0
76E0
2640
0600
ENDCHAR
STARTCHAR uni0057
ENCODING 87
SWIDTH 875 0
DWIDTH 14 0
BBX 12 12 1 0
BITMAP
0600
0F00
0F00
1F80
7FE0
FFF0
FFF0
7FE0
1F80
0F00
0F00
0600
ENDCHAR
STARTCHAR uni0058
ENCODING 88
SWIDTH 875 0
DWIDTH 14 0
BBX 12 12 1 0
BITMAP
0600
0F00
0900
1980
79E0
C630
C630
79E0
1980
0900
0F00
0600
ENDCHAR
STARTCHAR uni0059
ENCODING 89
SWIDTH 750 0
DWIDTH 12 0
BBX 10 10 1 1
BITMAP
1800
1C00
1C00
0DC0
73C0
F380
EC00
0E00
0E00
0600
ENDCHAR
STARTCHAR uni005A
ENCODING 90
SWIDTH 750 0
DWIDTH 12 0
BBX 8 8 2 2
BITMAP
30
38
1B
67
E6
D8
1C
0C
ENDCHAR
STARTCHAR uni005B
ENCODING 91
SWIDTH 938 0
DWIDTH 15 0
BBX 13 12 1 0
BITMAP
7070
F8F8
F778
FFF8
7FF0
2720
6F70
6F70
7DF0
77F0
39E0
0F80
ENDCHAR
STARTCHAR uni005C
ENCODING 92
SWIDTH 562 0
DWIDTH 9 0
BBX 7 7 1 3
BITMAP
FE
7E
3E
1E
0E
06
02
ENDCHAR
STARTCHAR uni005D
ENCODING 93
SWIDTH 938 0
DWIDTH 15 0
BBX 13 12 1 0
BITMAP
7070
F8F8
F778
FFF8
7FF0
2720
77B0
77B0
7DF0
7F70
3CE0
0F80
ENDCHAR
STARTCHAR uni005F
ENCODING 95
SWIDTH 312 0
DWIDTH 5 0
BBX 3 6 1 3
BITMAP
E0
E0
E0
E0
E0
E0
ENDCHAR
STARTCHAR uni0061
ENCODING 97
SWIDTH 812 0
DWIDTH 13 0
BBX 11 11 1 0
BITMAP
1B00
6AC0
75C0
A0A0
CA60
2480
CA60
A0A0
75C0
6AC0
1B00
ENDCHAR
STARTCHAR uni0062
ENCODING 98
SWIDTH 750 0
DWIDTH 12 0
BBX 10 12 1 0
BITMAP
0C00
1E00
1E00
6D80
F3C0
F3C0
6D80
1E00
1E00
CCC0
EDC0
7F80
ENDCHAR
STARTCHAR uni0063
ENCODING 99
SWIDTH 750 0
DWIDTH 12 0
BBX 11 12 0 0
BITMAP
1B00
1B00
64C0
6EC0
1F00
6EC0
64C0
1B00
1B00
C460
E4E0
7FC0
ENDCHAR
STARTCHAR uni0064
ENCODING 100
SWIDTH 812 0
DWIDTH 13 0
BBX 11 11 1 0
BITMAP
1B00
1F00
1F00
EEE0
F5E0
7BC0
F5E0
EEE0
1F00
1F00
1B00
ENDCHAR
STARTCHAR uni0065
ENCODING 101
SWIDTH 812 0
DWIDTH 13 0
BBX 11 11 1 0
BITMAP
3B80
3B80
DB60
EEE0
FBE0
1100
FBE0
EEE0
DB60
3B80
3B80
ENDCHAR
STARTCHAR uni0066
ENCODING 102
SWIDTH 750 0
DWIDTH 12 0
BBX 10 12 1 0
BITMAP
0C00
1E00
3300
3300
1E00
0C00
0000
8C40
CCC0
EDC0
6D80
2D00
ENDCHAR
STARTCHAR uni0067
ENCODING 103
SWIDTH 812 0
DWIDTH 13 0
BBX 9 12 2 0
BITMAP
2A00
1C00
3600
1C00
C980
EB80
6B00
1C00
1C00
0800
3E00
3E00
ENDCHAR
STARTCHAR uni0068
ENCODING 104
SWIDTH 812 0
DWIDTH 13 0
BBX 11 12 1 0
BITMAP
0400
0E00
1F00
3F80
7BC0
EAE0
F5E0
DB60
EAE0
75C0
3B80
1B00
ENDCHAR
STARTCHAR uni0069
ENCODING 105
SWIDTH 812 0
DWIDTH 13 0
BBX 11 11 1 0
BITMAP
1100
5B40
2A80
D160
64C0
0A00
64C0
D160
2A80
5B40
1100
ENDCHAR
STARTCHAR uni006A
ENCODING 106
SWIDTH 812 0
DWIDTH 13 0
BBX 11 11 1 0
BITMAP
2080
3180
DB60
6AC0
3180
0400
3180
6AC0
DB60
3180
2080
ENDCHAR
STARTCHAR uni006B
ENCODING 107
SWIDTH 688 0
DWIDTH 11 0
BBX 9 9 1 1
BITMAP
0800
1C00
0800
5D00
FF80
5D00
0800
1C00
0800
ENDCHAR
STARTCHAR uni006C
ENCODING 108
SWIDTH 812 0
DWIDTH 13 0
BBX 11 11 1 0
BITMAP
A4A0
4E40
A4A0
1500
AEA0
FFE0
AEA0
1500
A4A0
4E40
A4A0
ENDCHAR
STARTCHAR uni006D
ENCODING 109
SWIDTH 812 0
DWIDTH 13 0
BBX 11 11 1 0
BITMAP
1100
3B80
5B40
EAE0
71C0
0400
71C0
EAE0
5B40
3B80
1100
ENDCHAR
STARTCHAR uni006E
ENCODING 110
SWIDTH 875 0
DWIDTH 14 0
BBX 11 11 1 0
BITMAP
5540
EEE0
75C0
BFA0
5F40
FFE0
5F40
BFA0
75C0
EEE0
5540
ENDCHAR
STARTCHAR uni006F
ENCODING 111
SWIDTH 812 0
DWIDTH 13 0
BBX 11 11 1 0
BITMAP
0400
0E00
1F00
2480
6EC0
FBE0
6EC0
2480
1F00
0E00
0400
ENDCHAR
STARTCHAR uni0070
ENCODING 112
SWIDTH 812 0
DWIDTH 13 0
BBX 11 11 1 0
BITMAP
0400
0E00
1B00
3580
6AC0
D560
6AC0
3580
1B00
0E00
0400
ENDCHAR
STARTCHAR uni0071
ENCODING 113
SWIDTH 812 0
DWIDTH 13 0
BBX 11 11 1 0
BITMAP
9120
5B40
1F00
E4E0
6EC0
3B80
6EC0
E4E0
1F00
5B40
9120
ENDCHAR
STARTCHAR uni0072
ENCODING 114
SWIDTH 812 0
DWIDTH 13 0
BBX 11 11 1 0
BITMAP
0400
0E00
1B00
3580
6EC0
DB60
6EC0
3580
1B00
0E00
0400
ENDCHAR
STARTCHAR uni0073
ENCODING 115
SWIDTH 812 0
DWIDTH 13 0
BBX 11 11 1 0
BITMAP
8E20
5F40
2E80
5540
EAE0
F5E0
EAE0
5540
2E80
5F40
8E20
ENDCHAR
STARTCHAR uni0074
ENCODING 116
SWIDTH 812 0
DWIDTH 13 0
BBX 11 11 1 0
BITMAP
0E00
1F00
2E80
5540
EAE0
F5E0
EAE0
5540
2E80
1F00
0E00
ENDCHAR
STARTCHAR uni0075
ENCODING 117
SWIDTH 875 0
DWIDTH 14 0
BBX 12 12 1 0
BITMAP
0F00
3FC0
7FE0
6660
E670
FFF0
FFF0
EF70
70E0
7FE0
3FC0
0F00
ENDCHAR
STARTCHAR uni0076
ENCODING 118
SWIDTH 875 0
DWIDTH 14 0
BBX 12 12 1 0
BITMAP
0F00
3FC0
7FE0
6660
E670
FFF0
FFF0
F0F0
6F60
7FE0
3FC0
0F00
ENDCHAR
STARTCHAR uni0077
ENCODING 119
SWIDTH 875 0
DWIDTH 14 0
BBX 12 12 1 0
BITMAP
0F00
3FC0
7FE0
7FE0
CF30
C630
E670
FFF0
7FE0
39C0
1F80
0F00
ENDCHAR
STARTCHAR uni0078
ENCODING 120
SWIDTH 938 0
DWIDTH 15 0
BBX 14 12 1 0
BITMAP
0780
0300
7FF8
7FF8
E31C
EB5C
EB5C
6318
7FF8
7CF8
7FF8
0780
ENDCHAR
STARTCHAR uni0079
ENCODING 121
SWIDTH 938 0
DWIDTH 15 0
BBX 13 11 1 0
BITMAP
38E0
7DF0
FFF8
FFF8
FFF8
7FF0
3FE0
1FC0
0F80
0700
0200
ENDCHAR
STARTCHAR uni007A
ENCODING 122
SWIDTH 938 0
DWIDTH 15 0
BBX 13 11 1 0
BITMAP
38E0
7DF0
EFB8
C718
E238
7070
38E0
1DC0
0F80
0700
0200
ENDCHAR
STARTCHAR uni007B
ENCODING 123
SWIDTH 812 0
DWIDTH 13 0
BBX 11 12 1 0
BITMAP
8020
C060
EEE0
DF60
FFE0
CE60
DEE0
DEE0
FBE0
EFE0
73C0
1F00
ENDCHAR
STARTCHAR uni007D
ENCODING 125
SWIDTH 812 0
DWIDTH 13 0
BBX 11 12 1 0
BITMAP
8020
C060
EEE0
DF60
FFE0
CE60
EF60
EF60
FBE0
FEE0
79C0
1F00
ENDCHAR
STARTCHAR uni00A0
ENCODING 160
SWIDTH 312 0
DWIDTH 5 0
BBX 1 1 0 0
BITMAP
00
ENDCHAR
STARTCHAR uni00B7
ENCODING 183
SWIDTH 688 0
DWIDTH 11 0
BBX 9 10 1 1
BITMAP
0800
0800
1C00
1C00
3E00
3E00
7F00
7F00
FF80
FF80
ENDCHAR
STARTCHAR uni200A
ENCODING 8202
SWIDTH 62 0
DWIDTH 1 0
BBX 1 1 0 0
BITMAP
00
ENDCHAR
STARTCHAR uni2013
ENCODING 8211
SWIDTH 688 0
DWIDTH 11 0
BBX 9 9 1 1
BITMAP
0800
1C00
3E00
7F00
FF80
7F00
3E00
1C00
0800
ENDCHAR
STARTCHAR uni2014
ENCODING 8212
SWIDTH 688 0
DWIDTH 11 0
BBX 9 9 1 1
BITMAP
0800
1C00
3E00
7700
E380
7700
3E00
1C00
0800
ENDCHAR
STARTCHAR uni2022
ENCODING 8226
SWIDTH 688 0
DWIDTH 11 0
BBX 9 10 1 1
BITMAP
FF80
FF80
7F00
7F00
3E00
3E00
1C00
1C00
0800
0800
ENDCHAR
ENDFONT
