STARTFONT 2.1
FONT PixelSans-11px
SIZE 11 75 75
FONTBOUNDINGBOX 10 13 -2 -3
STARTPROPERTIES 5
PIXEL_SIZE 11
FONT_ASCENT 10
FONT_DESCENT 3
CHARSET_REGISTRY "ISO10646"
CHARSET_ENCODING "1"
ENDPROPERTIES
CHARS 133
STARTCHAR space
ENCODING 32
SWIDTH 455 0
DWIDTH 5 0
BBX 1 1 0 0
BITMAP
00
ENDCHAR
STARTCHAR exclam
ENCODING 33
SWIDTH 182 0
DWIDTH 2 0
BBX 1 7 0 0
BITMAP
80
80
80
80
80
00
80
ENDCHAR
STARTCHAR quotedbl
ENCODING 34
SWIDTH 364 0
DWIDTH 4 0
BBX 3 2 0 5
BITMAP
A0
A0
ENDCHAR
STARTCHAR numbersign
ENCODING 35
SWIDTH 545 0
DWIDTH 6 0
BBX 5 5 0 0
BITMAP
50
F8
50
F8
50
ENDCHAR
STARTCHAR dollar
ENCODING 36
SWIDTH 545 0
DWIDTH 6 0
BBX 5 9 0 -1
BITMAP
20
70
A8
A0
70
28
A8
70
20
ENDCHAR
STARTCHAR percent
ENCODING 37
SWIDTH 545 0
DWIDTH 6 0
BBX 5 5 0 0
BITMAP
88
10
20
40
88
ENDCHAR
STARTCHAR ampersand
ENCODING 38
SWIDTH 545 0
DWIDTH 6 0
BBX 5 7 0 0
BITMAP
60
90
A0
40
A0
90
68
ENDCHAR
STARTCHAR quotesingle
ENCODING 39
SWIDTH 273 0
DWIDTH 3 0
BBX 1 2 1 5
BITMAP
80
80
ENDCHAR
STARTCHAR parenleft
ENCODING 40
SWIDTH 273 0
DWIDTH 3 0
BBX 2 9 0 -1
BITMAP
40
80
80
80
80
80
80
80
40
ENDCHAR
STARTCHAR parenright
ENCODING 41
SWIDTH 273 0
DWIDTH 3 0
BBX 2 9 0 -1
BITMAP
80
40
40
40
40
40
40
40
80
ENDCHAR
STARTCHAR asterisk
ENCODING 42
SWIDTH 455 0
DWIDTH 5 0
BBX 3 4 1 6
BITMAP
40
E0
40
A0
ENDCHAR
STARTCHAR plus
ENCODING 43
SWIDTH 636 0
DWIDTH 7 0
BBX 5 5 1 1
BITMAP
20
20
F8
20
20
ENDCHAR
STARTCHAR comma
ENCODING 44
SWIDTH 273 0
DWIDTH 3 0
BBX 2 3 0 -2
BITMAP
C0
40
80
ENDCHAR
STARTCHAR hyphen
ENCODING 45
SWIDTH 636 0
DWIDTH 7 0
BBX 5 1 1 3
BITMAP
F8
ENDCHAR
STARTCHAR period
ENCODING 46
SWIDTH 182 0
DWIDTH 2 0
BBX 1 1 0 0
BITMAP
80
ENDCHAR
STARTCHAR slash
ENCODING 47
SWIDTH 455 0
DWIDTH 5 0
BBX 4 8 0 0
BITMAP
10
10
20
20
40
40
80
80
ENDCHAR
STARTCHAR zero
ENCODING 48
SWIDTH 545 0
DWIDTH 6 0
BBX 5 7 0 0
BITMAP
70
88
98
A8
C8
88
70
ENDCHAR
STARTCHAR one
ENCODING 49
SWIDTH 273 0
DWIDTH 3 0
BBX 2 7 0 0
BITMAP
40
C0
40
40
40
40
40
ENDCHAR
STARTCHAR two
ENCODING 50
SWIDTH 545 0
DWIDTH 6 0
BBX 5 7 0 0
BITMAP
70
88
08
10
20
40
F8
ENDCHAR
STARTCHAR three
ENCODING 51
SWIDTH 545 0
DWIDTH 6 0
BBX 5 7 0 0
BITMAP
70
88
08
10
08
88
70
ENDCHAR
STARTCHAR four
ENCODING 52
SWIDTH 545 0
DWIDTH 6 0
BBX 5 7 0 0
BITMAP
90
90
90
F8
10
10
10
ENDCHAR
STARTCHAR five
ENCODING 53
SWIDTH 545 0
DWIDTH 6 0
BBX 5 7 0 0
BITMAP
F8
80
80
F0
08
08
F0
ENDCHAR
STARTCHAR six
ENCODING 54
SWIDTH 545 0
DWIDTH 6 0
BBX 5 7 0 0
BITMAP
70
80
F0
88
88
88
70
ENDCHAR
STARTCHAR seven
ENCODING 55
SWIDTH 545 0
DWIDTH 6 0
BBX 5 7 0 0
BITMAP
F8
08
08
10
20
40
80
ENDCHAR
STARTCHAR eight
ENCODING 56
SWIDTH 545 0
DWIDTH 6 0
BBX 5 7 0 0
BITMAP
70
88
70
88
88
88
70
ENDCHAR
STARTCHAR nine
ENCODING 57
SWIDTH 545 0
DWIDTH 6 0
BBX 5 7 0 0
BITMAP
70
88
88
88
78
08
70
ENDCHAR
STARTCHAR colon
ENCODING 58
SWIDTH 182 0
DWIDTH 2 0
BBX 1 6 0 0
BITMAP
80
00
00
00
00
80
ENDCHAR
STARTCHAR semicolon
ENCODING 59
SWIDTH 273 0
DWIDTH 3 0
BBX 2 8 0 -2
BITMAP
80
00
00
00
00
C0
40
80
ENDCHAR
STARTCHAR less
ENCODING 60
SWIDTH 455 0
DWIDTH 5 0
BBX 3 5 1 1
BITMAP
20
40
80
40
20
ENDCHAR
STARTCHAR equal
ENCODING 61
SWIDTH 727 0
DWIDTH 8 0
BBX 5 4 2 1
BITMAP
F8
00
00
F8
ENDCHAR
STARTCHAR greater
ENCODING 62
SWIDTH 636 0
DWIDTH 7 0
BBX 3 5 3 1
BITMAP
80
40
20
40
80
ENDCHAR
STARTCHAR question
ENCODING 63
SWIDTH 636 0
DWIDTH 7 0
BBX 5 7 1 0
BITMAP
70
88
08
10
20
00
20
ENDCHAR
STARTCHAR at
ENCODING 64
SWIDTH 727 0
DWIDTH 8 0
BBX 7 7 0 0
BITMAP
38
44
92
AE
98
44
38
ENDCHAR
STARTCHAR A
ENCODING 65
SWIDTH 545 0
DWIDTH 6 0
BBX 5 7 0 0
BITMAP
70
88
88
F8
88
88
88
ENDCHAR
STARTCHAR B
ENCODING 66
SWIDTH 545 0
DWIDTH 6 0
BBX 5 7 0 0
BITMAP
E0
90
90
F8
88
88
F0
ENDCHAR
STARTCHAR C
ENCODING 67
SWIDTH 545 0
DWIDTH 6 0
BBX 5 7 0 0
BITMAP
70
88
80
80
80
88
70
ENDCHAR
STARTCHAR D
ENCODING 68
SWIDTH 545 0
DWIDTH 6 0
BBX 5 7 0 0
BITMAP
F0
88
88
88
88
88
F0
ENDCHAR
STARTCHAR E
ENCODING 69
SWIDTH 545 0
DWIDTH 6 0
BBX 5 7 0 0
BITMAP
F8
80
80
E0
80
80
F8
ENDCHAR
STARTCHAR F
ENCODING 70
SWIDTH 545 0
DWIDTH 6 0
BBX 5 7 0 0
BITMAP
F8
80
80
E0
80
80
80
ENDCHAR
STARTCHAR G
ENCODING 71
SWIDTH 545 0
DWIDTH 6 0
BBX 5 7 0 0
BITMAP
70
88
80
B8
88
88
78
ENDCHAR
STARTCHAR H
ENCODING 72
SWIDTH 545 0
DWIDTH 6 0
BBX 5 7 0 0
BITMAP
88
88
88
F8
88
88
88
ENDCHAR
STARTCHAR I
ENCODING 73
SWIDTH 364 0
DWIDTH 4 0
BBX 3 7 0 0
BITMAP
E0
40
40
40
40
40
E0
ENDCHAR
STARTCHAR J
ENCODING 74
SWIDTH 545 0
DWIDTH 6 0
BBX 5 7 0 0
BITMAP
08
08
08
08
88
88
70
ENDCHAR
STARTCHAR K
ENCODING 75
SWIDTH 545 0
DWIDTH 6 0
BBX 5 7 0 0
BITMAP
88
90
A0
D0
88
88
88
ENDCHAR
STARTCHAR L
ENCODING 76
SWIDTH 545 0
DWIDTH 6 0
BBX 5 7 0 0
BITMAP
80
80
80
80
80
80
F8
ENDCHAR
STARTCHAR M
ENCODING 77
SWIDTH 545 0
DWIDTH 6 0
BBX 5 7 0 0
BITMAP
D8
A8
A8
88
88
88
88
ENDCHAR
STARTCHAR N
ENCODING 78
SWIDTH 545 0
DWIDTH 6 0
BBX 5 7 0 0
BITMAP
C8
A8
A8
98
98
88
88
ENDCHAR
STARTCHAR O
ENCODING 79
SWIDTH 545 0
DWIDTH 6 0
BBX 5 7 0 0
BITMAP
70
88
88
88
88
88
70
ENDCHAR
STARTCHAR P
ENCODING 80
SWIDTH 545 0
DWIDTH 6 0
BBX 5 7 0 0
BITMAP
F0
88
88
88
F0
80
80
ENDCHAR
STARTCHAR Q
ENCODING 81
SWIDTH 545 0
DWIDTH 6 0
BBX 5 8 0 -1
BITMAP
70
88
88
88
88
88
78
08
ENDCHAR
STARTCHAR R
ENCODING 82
SWIDTH 545 0
DWIDTH 6 0
BBX 5 7 0 0
BITMAP
F0
88
88
F0
88
88
88
ENDCHAR
STARTCHAR S
ENCODING 83
SWIDTH 545 0
DWIDTH 6 0
BBX 5 7 0 0
BITMAP
70
88
80
70
08
88
70
ENDCHAR
STARTCHAR T
ENCODING 84
SWIDTH 545 0
DWIDTH 6 0
BBX 5 7 0 0
BITMAP
F8
20
20
20
20
20
20
ENDCHAR
STARTCHAR U
ENCODING 85
SWIDTH 545 0
DWIDTH 6 0
BBX 5 7 0 0
BITMAP
88
88
88
88
88
88
70
ENDCHAR
STARTCHAR V
ENCODING 86
SWIDTH 545 0
DWIDTH 6 0
BBX 5 7 0 0
BITMAP
88
88
88
88
88
50
20
ENDCHAR
STARTCHAR W
ENCODING 87
SWIDTH 545 0
DWIDTH 6 0
BBX 5 7 0 0
BITMAP
88
88
88
88
A8
A8
50
ENDCHAR
STARTCHAR X
ENCODING 88
SWIDTH 545 0
DWIDTH 6 0
BBX 5 7 0 0
BITMAP
88
88
50
20
50
88
88
ENDCHAR
STARTCHAR Y
ENCODING 89
SWIDTH 545 0
DWIDTH 6 0
BBX 5 7 0 0
BITMAP
88
88
50
20
20
20
20
ENDCHAR
STARTCHAR Z
ENCODING 90
SWIDTH 545 0
DWIDTH 6 0
BBX 5 7 0 0
BITMAP
F8
08
10
20
40
80
F8
ENDCHAR
STARTCHAR bracketleft
ENCODING 91
SWIDTH 273 0
DWIDTH 3 0
BBX 2 9 0 -1
BITMAP
C0
80
80
80
80
80
80
80
C0
ENDCHAR
STARTCHAR backslash
ENCODING 92
SWIDTH 455 0
DWIDTH 5 0
BBX 4 8 0 0
BITMAP
80
80
40
40
20
20
10
10
ENDCHAR
STARTCHAR bracketright
ENCODING 93
SWIDTH 273 0
DWIDTH 3 0
BBX 2 9 0 -1
BITMAP
C0
40
40
40
40
40
40
40
C0
ENDCHAR
STARTCHAR asciicircum
ENCODING 94
SWIDTH 545 0
DWIDTH 6 0
BBX 5 3 0 5
BITMAP
20
50
88
ENDCHAR
STARTCHAR underscore
ENCODING 95
SWIDTH 636 0
DWIDTH 7 0
BBX 6 1 0 0
BITMAP
FC
ENDCHAR
STARTCHAR grave
ENCODING 96
SWIDTH 364 0
DWIDTH 4 0
BBX 2 2 1 5
BITMAP
80
40
ENDCHAR
STARTCHAR a
ENCODING 97
SWIDTH 545 0
DWIDTH 6 0
BBX 5 5 0 0
BITMAP
70
08
78
88
78
ENDCHAR
STARTCHAR b
ENCODING 98
SWIDTH 545 0
DWIDTH 6 0
BBX 5 8 0 0
BITMAP
80
80
80
F0
88
88
88
F0
ENDCHAR
STARTCHAR c
ENCODING 99
SWIDTH 545 0
DWIDTH 6 0
BBX 5 5 0 0
BITMAP
70
88
80
88
70
ENDCHAR
STARTCHAR d
ENCODING 100
SWIDTH 545 0
DWIDTH 6 0
BBX 5 8 0 0
BITMAP
08
08
08
78
88
88
88
78
ENDCHAR
STARTCHAR e
ENCODING 101
SWIDTH 545 0
DWIDTH 6 0
BBX 5 5 0 0
BITMAP
70
88
F8
80
78
ENDCHAR
STARTCHAR f
ENCODING 102
SWIDTH 455 0
DWIDTH 5 0
BBX 4 8 0 0
BITMAP
30
40
40
F0
40
40
40
40
ENDCHAR
STARTCHAR g
ENCODING 103
SWIDTH 545 0
DWIDTH 6 0
BBX 5 8 0 -3
BITMAP
70
88
88
88
78
08
88
70
ENDCHAR
STARTCHAR h
ENCODING 104
SWIDTH 545 0
DWIDTH 6 0
BBX 5 8 0 0
BITMAP
80
80
80
F0
88
88
88
88
ENDCHAR
STARTCHAR i
ENCODING 105
SWIDTH 182 0
DWIDTH 2 0
BBX 1 7 0 0
BITMAP
80
00
80
80
80
80
80
ENDCHAR
STARTCHAR j
ENCODING 106
SWIDTH 182 0
DWIDTH 2 0
BBX 3 9 -2 -2
BITMAP
20
00
20
20
20
20
20
20
C0
ENDCHAR
STARTCHAR k
ENCODING 107
SWIDTH 455 0
DWIDTH 5 0
BBX 4 6 0 0
BITMAP
80
90
A0
C0
A0
90
ENDCHAR
STARTCHAR l
ENCODING 108
SWIDTH 273 0
DWIDTH 3 0
BBX 2 8 0 0
BITMAP
80
80
80
80
80
80
80
40
ENDCHAR
STARTCHAR m
ENCODING 109
SWIDTH 545 0
DWIDTH 6 0
BBX 5 5 0 0
BITMAP
D8
A8
A8
88
88
ENDCHAR
STARTCHAR n
ENCODING 110
SWIDTH 545 0
DWIDTH 6 0
BBX 5 5 0 0
BITMAP
F0
88
88
88
88
ENDCHAR
STARTCHAR o
ENCODING 111
SWIDTH 545 0
DWIDTH 6 0
BBX 5 5 0 0
BITMAP
70
88
88
88
70
ENDCHAR
STARTCHAR p
ENCODING 112
SWIDTH 545 0
DWIDTH 6 0
BBX 5 8 0 -3
BITMAP
F0
88
88
88
F0
80
80
80
ENDCHAR
STARTCHAR q
ENCODING 113
SWIDTH 545 0
DWIDTH 6 0
BBX 5 8 0 -3
BITMAP
78
88
88
88
78
08
08
08
ENDCHAR
STARTCHAR r
ENCODING 114
SWIDTH 455 0
DWIDTH 5 0
BBX 4 5 0 0
BITMAP
B0
C0
80
80
80
ENDCHAR
STARTCHAR s
ENCODING 115
SWIDTH 545 0
DWIDTH 6 0
BBX 5 5 0 0
BITMAP
78
80
70
08
F0
ENDCHAR
STARTCHAR t
ENCODING 116
SWIDTH 455 0
DWIDTH 5 0
BBX 4 7 0 0
BITMAP
40
40
F0
40
40
40
30
ENDCHAR
STARTCHAR u
ENCODING 117
SWIDTH 545 0
DWIDTH 6 0
BBX 5 5 0 0
BITMAP
88
88
88
88
78
ENDCHAR
STARTCHAR v
ENCODING 118
SWIDTH 545 0
DWIDTH 6 0
BBX 5 5 0 0
BITMAP
88
88
88
50
20
ENDCHAR
STARTCHAR w
ENCODING 119
SWIDTH 545 0
DWIDTH 6 0
BBX 5 5 0 0
BITMAP
88
88
A8
A8
50
ENDCHAR
STARTCHAR x
ENCODING 120
SWIDTH 545 0
DWIDTH 6 0
BBX 5 5 0 0
BITMAP
88
50
20
50
88
ENDCHAR
STARTCHAR y
ENCODING 121
SWIDTH 545 0
DWIDTH 6 0
BBX 5 8 0 -3
BITMAP
88
88
88
88
78
08
88
70
ENDCHAR
STARTCHAR z
ENCODING 122
SWIDTH 455 0
DWIDTH 5 0
BBX 4 5 0 0
BITMAP
F0
10
20
40
F0
ENDCHAR
STARTCHAR braceleft
ENCODING 123
SWIDTH 364 0
DWIDTH 4 0
BBX 3 9 0 -1
BITMAP
20
40
40
40
80
40
40
40
20
ENDCHAR
STARTCHAR bar
ENCODING 124
SWIDTH 182 0
DWIDTH 2 0
BBX 1 8 0 0
BITMAP
80
80
80
80
80
80
80
80
ENDCHAR
STARTCHAR braceright
ENCODING 125
SWIDTH 364 0
DWIDTH 4 0
BBX 3 9 0 -1
BITMAP
80
40
40
40
20
40
40
40
80
ENDCHAR
STARTCHAR asciitilde
ENCODING 126
SWIDTH 636 0
DWIDTH 7 0
BBX 6 2 0 5
BITMAP
30
CC
ENDCHAR
STARTCHAR uni00A0
ENCODING 160
SWIDTH 455 0
DWIDTH 5 0
BBX 1 1 0 0
BITMAP
00
ENDCHAR
STARTCHAR exclamdown
ENCODING 161
SWIDTH 182 0
DWIDTH 2 0
BBX 1 7 0 0
BITMAP
80
00
80
80
80
80
80
ENDCHAR
STARTCHAR cent
ENCODING 162
SWIDTH 545 0
DWIDTH 6 0
BBX 5 7 0 -1
BITMAP
20
70
A8
A0
A8
70
20
ENDCHAR
STARTCHAR sterling
ENCODING 163
SWIDTH 545 0
DWIDTH 6 0
BBX 6 7 -1 0
BITMAP
38
44
40
F0
40
40
7C
ENDCHAR
STARTCHAR currency
ENCODING 164
SWIDTH 727 0
DWIDTH 8 0
BBX 7 7 0 0
BITMAP
BA
44
82
82
82
44
BA
ENDCHAR
STARTCHAR yen
ENCODING 165
SWIDTH 545 0
DWIDTH 6 0
BBX 5 7 0 0
BITMAP
88
88
50
F8
20
F8
20
ENDCHAR
STARTCHAR brokenbar
ENCODING 166
SWIDTH 182 0
DWIDTH 2 0
BBX 1 8 0 0
BITMAP
80
80
80
00
00
80
80
80
ENDCHAR
STARTCHAR section
ENCODING 167
SWIDTH 545 0
DWIDTH 6 0
BBX 5 9 0 0
BITMAP
70
88
80
70
88
70
08
88
70
ENDCHAR
STARTCHAR dieresis
ENCODING 168
SWIDTH 545 0
DWIDTH 6 0
BBX 5 2 0 5
BITMAP
D8
D8
ENDCHAR
STARTCHAR copyright
ENCODING 169
SWIDTH 818 0
DWIDTH 9 0
BBX 8 8 0 0
BITMAP
3C
42
9D
A1
A1
9D
42
3C
ENDCHAR
STARTCHAR registered
ENCODING 174
SWIDTH 818 0
DWIDTH 9 0
BBX 8 8 0 0
BITMAP
3C
42
BD
A5
B9
A5
42
3C
ENDCHAR
STARTCHAR uni00B2
ENCODING 178
SWIDTH 364 0
DWIDTH 4 0
BBX 3 5 0 4
BITMAP
E0
20
40
80
E0
ENDCHAR
STARTCHAR uni00B3
ENCODING 179
SWIDTH 364 0
DWIDTH 4 0
BBX 3 5 0 4
BITMAP
E0
20
40
20
E0
ENDCHAR
STARTCHAR mu
ENCODING 181
SWIDTH 545 0
DWIDTH 6 0
BBX 5 5 0 0
BITMAP
88
88
88
88
78
ENDCHAR
STARTCHAR paragraph
ENCODING 182
SWIDTH 636 0
DWIDTH 7 0
BBX 6 7 0 0
BITMAP
7C
E8
E8
68
28
28
28
ENDCHAR
STARTCHAR uni00B9
ENCODING 185
SWIDTH 364 0
DWIDTH 4 0
BBX 3 5 0 4
BITMAP
C0
40
40
40
E0
ENDCHAR
STARTCHAR ordmasculine
ENCODING 186
SWIDTH 364 0
DWIDTH 4 0
BBX 3 3 0 6
BITMAP
E0
A0
E0
ENDCHAR
STARTCHAR Agrave
ENCODING 192
SWIDTH 545 0
DWIDTH 6 0
BBX 5 10 0 0
BITMAP
60
30
00
70
88
88
F8
88
88
88
ENDCHAR
STARTCHAR Aacute
ENCODING 193
SWIDTH 545 0
DWIDTH 6 0
BBX 5 10 0 0
BITMAP
30
60
00
70
88
88
F8
88
88
88
ENDCHAR
STARTCHAR Acircumflex
ENCODING 194
SWIDTH 545 0
DWIDTH 6 0
BBX 5 10 0 0
BITMAP
20
50
00
70
88
88
F8
88
88
88
ENDCHAR
STARTCHAR Adieresis
ENCODING 196
SWIDTH 545 0
DWIDTH 6 0
BBX 5 9 0 0
BITMAP
50
00
70
88
88
F8
88
88
88
ENDCHAR
STARTCHAR Aring
ENCODING 197
SWIDTH 545 0
DWIDTH 6 0
BBX 5 9 0 0
BITMAP
70
88
70
88
88
F8
88
88
88
ENDCHAR
STARTCHAR AE
ENCODING 198
SWIDTH 818 0
DWIDTH 9 0
BBX 8 7 0 0
BITMAP
7F
88
88
FE
88
88
8F
ENDCHAR
STARTCHAR agrave
ENCODING 224
SWIDTH 545 0
DWIDTH 6 0
BBX 5 8 0 0
BITMAP
20
10
00
70
08
78
88
78
ENDCHAR
STARTCHAR aacute
ENCODING 225
SWIDTH 545 0
DWIDTH 6 0
BBX 5 8 0 0
BITMAP
10
20
00
70
08
78
88
78
ENDCHAR
STARTCHAR acircumflex
ENCODING 226
SWIDTH 545 0
DWIDTH 6 0
BBX 5 8 0 0
BITMAP
20
50
00
70
08
78
88
78
ENDCHAR
STARTCHAR adieresis
ENCODING 228
SWIDTH 545 0
DWIDTH 6 0
BBX 5 7 0 0
BITMAP
50
00
70
08
78
88
78
ENDCHAR
STARTCHAR aring
ENCODING 229
SWIDTH 545 0
DWIDTH 6 0
BBX 5 8 0 0
BITMAP
30
30
00
70
08
78
88
78
ENDCHAR
STARTCHAR ae
ENCODING 230
SWIDTH 818 0
DWIDTH 9 0
BBX 8 5 0 0
BITMAP
7E
09
7F
88
7F
ENDCHAR
STARTCHAR divide
ENCODING 247
SWIDTH 636 0
DWIDTH 7 0
BBX 5 5 1 1
BITMAP
20
00
F8
00
20
ENDCHAR
STARTCHAR amacron
ENCODING 257
SWIDTH 545 0
DWIDTH 6 0
BBX 5 7 0 0
BITMAP
70
00
70
08
78
88
78
ENDCHAR
STARTCHAR abreve
ENCODING 259
SWIDTH 545 0
DWIDTH 6 0
BBX 5 8 0 0
BITMAP
50
20
00
70
08
78
88
78
ENDCHAR
STARTCHAR OE
ENCODING 338
SWIDTH 818 0
DWIDTH 9 0
BBX 8 7 0 0
BITMAP
7F
88
88
8E
88
88
7F
ENDCHAR
STARTCHAR oe
ENCODING 339
SWIDTH 818 0
DWIDTH 9 0
BBX 8 5 0 0
BITMAP
76
89
8F
88
77
ENDCHAR
STARTCHAR Euro
ENCODING 8364
SWIDTH 636 0
DWIDTH 7 0
BBX 7 7 -1 0
BITMAP
38
44
40
FE
40
44
38
ENDCHAR
STARTCHAR uni3000
ENCODING 12288
SWIDTH 1455 0
DWIDTH 16 0
BBX 1 1 0 0
BITMAP
00
ENDCHAR
STARTCHAR .notdef
ENCODING -1
SWIDTH 91 0
DWIDTH 1 0
BBX 1 1 0 0
BITMAP
00
ENDCHAR
STARTCHAR glyph00001
ENCODING -1
SWIDTH 91 0
DWIDTH 1 0
BBX 1 1 0 0
BITMAP
00
ENDCHAR
ENDFONT
