STARTFONT 2.1
FONT x16y32pxGridGazer-32px
SIZE 32 75 75
FONTBOUNDINGBOX 32 32 0 -6
STARTPROPERTIES 3
PIXEL_SIZE 32
FONT_ASCENT 26
FONT_DESCENT 6
ENDPROPERTIES
CHARS 517
STARTCHAR uni0020
ENCODING 32
SWIDTH 250 0
DWIDTH 8 0
BBX 1 1 0 0
BITMAP
00
ENDCHAR
STARTCHAR uni0021
ENCODING 33
SWIDTH 250 0
DWIDTH 8 0
BBX 4 22 2 0
BITMAP
F0
F0
F0
F0
F0
F0
F0
F0
F0
F0
F0
F0
F0
F0
F0
F0
00
00
F0
F0
F0
F0
ENDCHAR
STARTCHAR uni0022
ENCODING 34
SWIDTH 500 0
DWIDTH 16 0
BBX 10 7 3 15
BITMAP
F3C0
F3C0
F3C0
F3C0
F3C0
F3C0
F3C0
ENDCHAR
STARTCHAR uni0023
ENCODING 35
SWIDTH 500 0
DWIDTH 16 0
BBX 14 22 1 0
BITMAP
1E78
1E78
1E78
1E78
1E78
FFFC
FFFC
FFFC
FFFC
3CF0
3CF0
3CF0
3CF0
FFFC
FFFC
FFFC
FFFC
79E0
79E0
79E0
79E0
79E0
ENDCHAR
STARTCHAR uni0024
ENCODING 36
SWIDTH 500 0
DWIDTH 16 0
BBX 14 22 1 0
BITMAP
0780
0780
3FFC
7FFC
FFFC
FFFC
F000
F000
F000
FFF0
FFF8
7FFC
3FFC
003C
003C
003C
FFFC
FFFC
FFF8
FFF0
0780
0780
ENDCHAR
STARTCHAR uni0025
ENCODING 37
SWIDTH 500 0
DWIDTH 16 0
BBX 14 22 1 0
BITMAP
7C3C
FE3C
FE78
EE78
EEF0
EEF0
EFE0
FFE0
FFC0
7FC0
0780
0780
0FF8
0FFC
1FFC
1FDC
3DDC
3DDC
79DC
79FC
F1FC
F0F8
ENDCHAR
STARTCHAR uni0026
ENCODING 38
SWIDTH 500 0
DWIDTH 16 0
BBX 14 22 1 0
BITMAP
3E00
7F00
FF80
FF80
F780
F780
F780
F780
F78C
FF9C
7F3C
7F7C
FFFC
FFF8
F7F0
F3F0
F1F8
F3FC
FFFC
FFFC
7F9C
3F0C
ENDCHAR
STARTCHAR uni0027
ENCODING 39
SWIDTH 250 0
DWIDTH 8 0
BBX 4 7 2 15
BITMAP
F0
F0
F0
F0
F0
F0
F0
ENDCHAR
STARTCHAR uni0028
ENCODING 40
SWIDTH 500 0
DWIDTH 16 0
BBX 8 30 6 -4
BITMAP
1F
3F
7F
FF
F8
F0
F0
F0
F0
F0
F0
F0
F0
F0
F0
F0
F0
F0
F0
F0
F0
F0
F0
F0
F0
F8
FF
7F
3F
1F
ENDCHAR
STARTCHAR uni0029
ENCODING 41
SWIDTH 500 0
DWIDTH 16 0
BBX 8 30 2 -4
BITMAP
F8
FC
FE
FF
1F
0F
0F
0F
0F
0F
0F
0F
0F
0F
0F
0F
0F
0F
0F
0F
0F
0F
0F
0F
0F
1F
FF
FE
FC
F8
ENDCHAR
STARTCHAR uni002A
ENCODING 42
SWIDTH 500 0
DWIDTH 16 0
BBX 12 16 2 3
BITMAP
0F00
0F00
CF30
EF70
FFF0
FFF0
7FE0
3FC0
3FC0
7FE0
FFF0
FFF0
EF70
CF30
0F00
0F00
ENDCHAR
STARTCHAR uni002B
ENCODING 43
SWIDTH 500 0
DWIDTH 16 0
BBX 14 14 1 4
BITMAP
0780
0780
0780
0780
0780
FFFC
FFFC
FFFC
FFFC
0780
0780
0780
0780
0780
ENDCHAR
STARTCHAR uni002C
ENCODING 44
SWIDTH 250 0
DWIDTH 8 0
BBX 4 8 2 -4
BITMAP
F0
F0
F0
F0
30
70
E0
C0
ENDCHAR
STARTCHAR uni002D
ENCODING 45
SWIDTH 500 0
DWIDTH 16 0
BBX 14 4 1 9
BITMAP
FFFC
FFFC
FFFC
FFFC
ENDCHAR
STARTCHAR uni002E
ENCODING 46
SWIDTH 250 0
DWIDTH 8 0
BBX 4 4 2 0
BITMAP
F0
F0
F0
F0
ENDCHAR
STARTCHAR uni002F
ENCODING 47
SWIDTH 500 0
DWIDTH 16 0
BBX 14 22 1 0
BITMAP
003C
003C
0078
0078
00F0
00F0
01E0
01E0
03C0
03C0
0780
0780
0F00
0F00
1E00
1E00
3C00
3C00
7800
7800
F000
F000
ENDCHAR
STARTCHAR uni0030
ENCODING 48
SWIDTH 500 0
DWIDTH 16 0
BBX 14 22 1 0
BITMAP
3FF0
7FF8
FFFC
FFFC
F03C
F03C
F07C
F0FC
F1FC
F3FC
F7FC
FFBC
FF3C
FE3C
FC3C
F83C
F03C
F03C
FFFC
FFFC
7FF8
3FF0
ENDCHAR
STARTCHAR uni0031
ENCODING 49
SWIDTH 500 0
DWIDTH 16 0
BBX 14 22 1 0
BITMAP
0F80
1F80
3F80
7F80
FF80
FF80
0780
0780
0780
0780
0780
0780
0780
0780
0780
0780
0780
0780
FFFC
FFFC
FFFC
FFFC
ENDCHAR
STARTCHAR uni0032
ENCODING 50
SWIDTH 500 0
DWIDTH 16 0
BBX 14 22 1 0
BITMAP
3FF0
7FF8
FFFC
FFFC
F03C
F03C
003C
003C
007C
00F8
01F0
03E0
07C0
0F80
1F00
3E00
7C00
F800
FFFC
FFFC
FFFC
FFFC
ENDCHAR
STARTCHAR uni0033
ENCODING 51
SWIDTH 500 0
DWIDTH 16 0
BBX 14 22 1 0
BITMAP
3FF0
7FF8
FFFC
FFFC
F03C
F03C
003C
003C
003C
03F8
03F0
03F0
03F8
003C
003C
003C
F03C
F03C
FFFC
FFFC
7FF8
3FF0
ENDCHAR
STARTCHAR uni0034
ENCODING 52
SWIDTH 500 0
DWIDTH 16 0
BBX 14 22 1 0
BITMAP
F03C
F03C
F03C
F03C
F03C
F03C
F03C
F03C
F03C
FFFC
FFFC
7FFC
3FFC
003C
003C
003C
003C
003C
003C
003C
003C
003C
ENDCHAR
STARTCHAR uni0035
ENCODING 53
SWIDTH 500 0
DWIDTH 16 0
BBX 14 22 1 0
BITMAP
FFFC
FFFC
FFFC
FFFC
F000
F000
F000
F000
F000
FFF0
FFF8
FFFC
FFFC
003C
003C
003C
003C
003C
FFFC
FFFC
FFF8
FFF0
ENDCHAR
STARTCHAR uni0036
ENCODING 54
SWIDTH 500 0
DWIDTH 16 0
BBX 14 22 1 0
BITMAP
3FF0
7FF8
FFFC
FFFC
F03C
F03C
F000
F000
F000
FFF0
FFF8
FFFC
FFFC
F03C
F03C
F03C
F03C
F03C
FFFC
FFFC
7FF8
3FF0
ENDCHAR
STARTCHAR uni0037
ENCODING 55
SWIDTH 500 0
DWIDTH 16 0
BBX 14 22 1 0
BITMAP
FFFC
FFFC
FFFC
FFFC
003C
003C
007C
00F8
01F0
03E0
07C0
0780
0780
0780
0780
0780
0780
0780
0780
0780
0780
0780
ENDCHAR
STARTCHAR uni0038
ENCODING 56
SWIDTH 500 0
DWIDTH 16 0
BBX 14 22 1 0
BITMAP
3FF0
7FF8
FFFC
FFFC
F03C
F03C
F03C
F03C
F03C
7FF8
3FF0
3FF0
7FF8
F03C
F03C
F03C
F03C
F03C
FFFC
FFFC
7FF8
3FF0
ENDCHAR
STARTCHAR uni0039
ENCODING 57
SWIDTH 500 0
DWIDTH 16 0
BBX 14 22 1 0
BITMAP
3FF0
7FF8
FFFC
FFFC
F03C
F03C
F03C
F03C
F03C
FFFC
FFFC
7FFC
3FFC
003C
003C
003C
F03C
F03C
FFFC
FFFC
7FF8
3FF0
ENDCHAR
STARTCHAR uni003A
ENCODING 58
SWIDTH 250 0
DWIDTH 8 0
BBX 4 16 2 0
BITMAP
F0
F0
F0
F0
00
00
00
00
00
00
00
00
F0
F0
F0
F0
ENDCHAR
STARTCHAR uni003B
ENCODING 59
SWIDTH 250 0
DWIDTH 8 0
BBX 4 20 2 -4
BITMAP
F0
F0
F0
F0
00
00
00
00
00
00
00
00
F0
F0
F0
F0
30
70
E0
C0
ENDCHAR
STARTCHAR uni003C
ENCODING 60
SWIDTH 500 0
DWIDTH 16 0
BBX 12 18 2 2
BITMAP
00F0
01F0
03E0
07C0
0F80
1F00
3E00
7C00
F800
F800
7C00
3E00
1F00
0F80
07C0
03E0
01F0
00F0
ENDCHAR
STARTCHAR uni003D
ENCODING 61
SWIDTH 500 0
DWIDTH 16 0
BBX 14 12 1 5
BITMAP
FFFC
FFFC
FFFC
FFFC
0000
0000
0000
0000
FFFC
FFFC
FFFC
FFFC
ENDCHAR
STARTCHAR uni003E
ENCODING 62
SWIDTH 500 0
DWIDTH 16 0
BBX 12 18 2 2
BITMAP
F000
F800
7C00
3E00
1F00
0F80
07C0
03E0
01F0
01F0
03E0
07C0
0F80
1F00
3E00
7C00
F800
F000
ENDCHAR
STARTCHAR uni003F
ENCODING 63
SWIDTH 500 0
DWIDTH 16 0
BBX 14 22 1 0
BITMAP
3FF0
7FF8
FFFC
FFFC
F03C
F03C
003C
003C
003C
01FC
03FC
07F8
07F0
0780
0780
0780
0000
0000
0780
0780
0780
0780
ENDCHAR
STARTCHAR uni0040
ENCODING 64
SWIDTH 500 0
DWIDTH 16 0
BBX 14 16 1 0
BITMAP
3FF0
7FF8
E01C
C00C
C7CC
CFCC
CCCC
CCCC
CCCC
CCCC
CFFC
C7F8
C000
E000
7FFC
3FFC
ENDCHAR
STARTCHAR uni0041
ENCODING 65
SWIDTH 500 0
DWIDTH 16 0
BBX 14 22 1 0
BITMAP
3FF0
7FF8
FFFC
FFFC
F03C
F03C
F03C
F03C
F03C
FFFC
FFFC
FFFC
FFFC
F03C
F03C
F03C
F03C
F03C
F03C
F03C
F03C
F03C
ENDCHAR
STARTCHAR uni0042
ENCODING 66
SWIDTH 500 0
DWIDTH 16 0
BBX 14 22 1 0
BITMAP
FFF0
FFF8
FFFC
FFFC
F03C
F03C
F03C
F03C
F03C
FFF8
FFF0
FFF0
FFF8
F03C
F03C
F03C
F03C
F03C
FFFC
FFFC
FFF8
FFF0
ENDCHAR
STARTCHAR uni0043
ENCODING 67
SWIDTH 500 0
DWIDTH 16 0
BBX 14 22 1 0
BITMAP
3FF0
7FF8
FFFC
FFFC
F03C
F03C
F000
F000
F000
F000
F000
F000
F000
F000
F000
F000
F03C
F03C
FFFC
FFFC
7FF8
3FF0
ENDCHAR
STARTCHAR uni0044
ENCODING 68
SWIDTH 500 0
DWIDTH 16 0
BBX 14 22 1 0
BITMAP
FFF0
FFF8
FFFC
FFFC
F03C
F03C
F03C
F03C
F03C
F03C
F03C
F03C
F03C
F03C
F03C
F03C
F03C
F03C
FFFC
FFFC
FFF8
FFF0
ENDCHAR
STARTCHAR uni0045
ENCODING 69
SWIDTH 500 0
DWIDTH 16 0
BBX 14 22 1 0
BITMAP
FFFC
FFFC
FFFC
FFFC
F000
F000
F000
F000
F000
FFFC
FFFC
FFFC
FFFC
F000
F000
F000
F000
F000
FFFC
FFFC
FFFC
FFFC
ENDCHAR
STARTCHAR uni0046
ENCODING 70
SWIDTH 500 0
DWIDTH 16 0
BBX 14 22 1 0
BITMAP
FFFC
FFFC
FFFC
FFFC
F000
F000
F000
F000
F000
FFFC
FFFC
FFFC
FFFC
F000
F000
F000
F000
F000
F000
F000
F000
F000
ENDCHAR
STARTCHAR uni0047
ENCODING 71
SWIDTH 500 0
DWIDTH 16 0
BBX 14 22 1 0
BITMAP
3FFC
7FFC
FFFC
FFFC
F000
F000
F000
F000
F000
F0FC
F0FC
F0FC
F0FC
F03C
F03C
F03C
F03C
F03C
FFFC
FFFC
7FFC
3FFC
ENDCHAR
STARTCHAR uni0048
ENCODING 72
SWIDTH 500 0
DWIDTH 16 0
BBX 14 22 1 0
BITMAP
F03C
F03C
F03C
F03C
F03C
F03C
F03C
F03C
F03C
FFFC
FFFC
FFFC
FFFC
F03C
F03C
F03C
F03C
F03C
F03C
F03C
F03C
F03C
ENDCHAR
STARTCHAR uni0049
ENCODING 73
SWIDTH 500 0
DWIDTH 16 0
BBX 14 22 1 0
BITMAP
FFFC
FFFC
FFFC
FFFC
0780
0780
0780
0780
0780
0780
0780
0780
0780
0780
0780
0780
0780
0780
FFFC
FFFC
FFFC
FFFC
ENDCHAR
STARTCHAR uni004A
ENCODING 74
SWIDTH 500 0
DWIDTH 16 0
BBX 14 22 1 0
BITMAP
003C
003C
003C
003C
003C
003C
003C
003C
003C
003C
003C
003C
003C
003C
003C
003C
F03C
F03C
FFFC
FFFC
7FF8
3FF0
ENDCHAR
STARTCHAR uni004B
ENCODING 75
SWIDTH 500 0
DWIDTH 16 0
BBX 14 22 1 0
BITMAP
F03C
F03C
F03C
F03C
F03C
F03C
F07C
F0F8
F1F0
FFE0
FFC0
FFC0
FFE0
F1F0
F0F8
F07C
F03C
F03C
F03C
F03C
F03C
F03C
ENDCHAR
STARTCHAR uni004C
ENCODING 76
SWIDTH 500 0
DWIDTH 16 0
BBX 14 22 1 0
BITMAP
F000
F000
F000
F000
F000
F000
F000
F000
F000
F000
F000
F000
F000
F000
F000
F000
F000
F000
FFFC
FFFC
FFFC
FFFC
ENDCHAR
STARTCHAR uni004D
ENCODING 77
SWIDTH 500 0
DWIDTH 16 0
BBX 14 22 1 0
BITMAP
C00C
E01C
F03C
F87C
FCFC
FFFC
FFFC
FFFC
F7BC
F33C
F03C
F03C
F03C
F03C
F03C
F03C
F03C
F03C
F03C
F03C
F03C
F03C
ENDCHAR
STARTCHAR uni004E
ENCODING 78
SWIDTH 500 0
DWIDTH 16 0
BBX 14 22 1 0
BITMAP
F03C
F03C
F83C
F83C
FC3C
FC3C
FE3C
FE3C
FF3C
FF3C
F7BC
F7BC
F3FC
F3FC
F1FC
F1FC
F0FC
F0FC
F07C
F07C
F03C
F03C
ENDCHAR
STARTCHAR uni004F
ENCODING 79
SWIDTH 500 0
DWIDTH 16 0
BBX 14 22 1 0
BITMAP
3FF0
7FF8
FFFC
FFFC
F03C
F03C
F03C
F03C
F03C
F03C
F03C
F03C
F03C
F03C
F03C
F03C
F03C
F03C
FFFC
FFFC
7FF8
3FF0
ENDCHAR
STARTCHAR uni0050
ENCODING 80
SWIDTH 500 0
DWIDTH 16 0
BBX 14 22 1 0
BITMAP
FFF0
FFF8
FFFC
FFFC
F03C
F03C
F03C
F03C
F03C
FFFC
FFFC
FFF8
FFF0
F000
F000
F000
F000
F000
F000
F000
F000
F000
ENDCHAR
STARTCHAR uni0051
ENCODING 81
SWIDTH 500 0
DWIDTH 16 0
BBX 14 28 1 -6
BITMAP
3FF0
7FF8
FFFC
FFFC
F03C
F03C
F03C
F03C
F03C
F03C
F03C
F03C
F03C
F03C
F03C
F03C
F03C
F03C
FFFC
FFFC
7FF8
3FF0
0780
0780
07FC
07FC
03FC
01FC
ENDCHAR
STARTCHAR uni0052
ENCODING 82
SWIDTH 500 0
DWIDTH 16 0
BBX 14 22 1 0
BITMAP
FFF0
FFF8
FFFC
FFFC
F03C
F03C
F03C
F03C
F03C
FFF8
FFF0
FFF0
FFF8
F0FC
F07C
F03C
F03C
F03C
F03C
F03C
F03C
F03C
ENDCHAR
STARTCHAR uni0053
ENCODING 83
SWIDTH 500 0
DWIDTH 16 0
BBX 14 22 1 0
BITMAP
3FF0
7FF8
FFFC
FFFC
F03C
F03C
F000
F000
F000
FFF0
FFF8
7FFC
3FFC
003C
003C
003C
F03C
F03C
FFFC
FFFC
7FF8
3FF0
ENDCHAR
STARTCHAR uni0054
ENCODING 84
SWIDTH 500 0
DWIDTH 16 0
BBX 14 22 1 0
BITMAP
FFFC
FFFC
FFFC
FFFC
0780
0780
0780
0780
0780
0780
0780
0780
0780
0780
0780
0780
0780
0780
0780
0780
0780
0780
ENDCHAR
STARTCHAR uni0055
ENCODING 85
SWIDTH 500 0
DWIDTH 16 0
BBX 14 22 1 0
BITMAP
F03C
F03C
F03C
F03C
F03C
F03C
F03C
F03C
F03C
F03C
F03C
F03C
F03C
F03C
F03C
F03C
F03C
F03C
FFFC
FFFC
7FF8
3FF0
ENDCHAR
STARTCHAR uni0056
ENCODING 86
SWIDTH 500 0
DWIDTH 16 0
BBX 14 22 1 0
BITMAP
F03C
F03C
F03C
F03C
F03C
F03C
F03C
F03C
F03C
F03C
F03C
F03C
F03C
F03C
F87C
FCFC
7FF8
3FF0
1FE0
0FC0
0780
0300
ENDCHAR
STARTCHAR uni0057
ENCODING 87
SWIDTH 500 0
DWIDTH 16 0
BBX 14 22 1 0
BITMAP
F03C
F03C
F03C
F03C
F03C
F03C
F03C
F03C
F03C
F03C
F03C
F33C
F7BC
FFFC
FFFC
FFFC
FFFC
FCFC
F87C
F03C
E01C
C00C
ENDCHAR
STARTCHAR uni0058
ENCODING 88
SWIDTH 500 0
DWIDTH 16 0
BBX 14 22 1 0
BITMAP
F03C
F03C
F03C
F03C
F03C
F03C
F87C
7CF8
3FF0
1FE0
0FC0
0FC0
1FE0
3FF0
7CF8
F87C
F03C
F03C
F03C
F03C
F03C
F03C
ENDCHAR
STARTCHAR uni0059
ENCODING 89
SWIDTH 500 0
DWIDTH 16 0
BBX 14 22 1 0
BITMAP
F03C
F03C
F03C
F03C
F03C
F03C
F87C
7CF8
3FF0
1FE0
0FC0
0780
0780
0780
0780
0780
0780
0780
0780
0780
0780
0780
ENDCHAR
STARTCHAR uni005A
ENCODING 90
SWIDTH 500 0
DWIDTH 16 0
BBX 14 22 1 0
BITMAP
FFFC
FFFC
FFFC
FFFC
003C
003C
007C
00F8
01F0
03E0
07C0
0F80
1F00
3E00
7C00
F800
F000
F000
FFFC
FFFC
FFFC
FFFC
ENDCHAR
STARTCHAR uni005B
ENCODING 91
SWIDTH 500 0
DWIDTH 16 0
BBX 8 30 6 -4
BITMAP
FF
FF
FF
FF
F0
F0
F0
F0
F0
F0
F0
F0
F0
F0
F0
F0
F0
F0
F0
F0
F0
F0
F0
F0
F0
F0
FF
FF
FF
FF
ENDCHAR
STARTCHAR uni005C
ENCODING 92
SWIDTH 500 0
DWIDTH 16 0
BBX 14 22 1 0
BITMAP
F000
F000
7800
7800
3C00
3C00
1E00
1E00
0F00
0F00
0780
0780
03C0
03C0
01E0
01E0
00F0
00F0
0078
0078
003C
003C
ENDCHAR
STARTCHAR uni005D
ENCODING 93
SWIDTH 500 0
DWIDTH 16 0
BBX 8 30 2 -4
BITMAP
FF
FF
FF
FF
0F
0F
0F
0F
0F
0F
0F
0F
0F
0F
0F
0F
0F
0F
0F
0F
0F
0F
0F
0F
0F
0F
FF
FF
FF
FF
ENDCHAR
STARTCHAR uni005E
ENCODING 94
SWIDTH 500 0
DWIDTH 16 0
BBX 14 10 1 12
BITMAP
0300
0780
0FC0
1FE0
3FF0
7CF8
F87C
F03C
E01C
C00C
ENDCHAR
STARTCHAR uni005F
ENCODING 95
SWIDTH 500 0
DWIDTH 16 0
BBX 14 4 1 0
BITMAP
FFFC
FFFC
FFFC
FFFC
ENDCHAR
STARTCHAR uni0060
ENCODING 96
SWIDTH 500 0
DWIDTH 16 0
BBX 6 4 5 18
BITMAP
F0
F8
7C
3C
ENDCHAR
STARTCHAR uni0061
ENCODING 97
SWIDTH 500 0
DWIDTH 16 0
BBX 14 16 1 0
BITMAP
FFF0
FFF8
FFFC
FFFC
003C
003C
3FFC
7FFC
FFFC
FFFC
F03C
F03C
FFFC
FFFC
7FFC
3FFC
ENDCHAR
STARTCHAR uni0062
ENCODING 98
SWIDTH 500 0
DWIDTH 16 0
BBX 14 22 1 0
BITMAP
F000
F000
F000
F000
F000
F000
FFF0
FFF8
FFFC
FFFC
F03C
F03C
F03C
F03C
F03C
F03C
F03C
F03C
FFFC
FFFC
FFF8
FFF0
ENDCHAR
STARTCHAR uni0063
ENCODING 99
SWIDTH 500 0
DWIDTH 16 0
BBX 14 16 1 0
BITMAP
3FF0
7FF8
FFFC
FFFC
F03C
F03C
F000
F000
F000
F000
F03C
F03C
FFFC
FFFC
7FF8
3FF0
ENDCHAR
STARTCHAR uni0064
ENCODING 100
SWIDTH 500 0
DWIDTH 16 0
BBX 14 22 1 0
BITMAP
003C
003C
003C
003C
003C
003C
3FFC
7FFC
FFFC
FFFC
F03C
F03C
F03C
F03C
F03C
F03C
F03C
F03C
FFFC
FFFC
7FFC
3FFC
ENDCHAR
STARTCHAR uni0065
ENCODING 101
SWIDTH 500 0
DWIDTH 16 0
BBX 14 16 1 0
BITMAP
3FF0
7FF8
FFFC
FFFC
F03C
F03C
FFFC
FFFC
FFFC
FFFC
F000
F000
FFFC
FFFC
7FFC
3FFC
ENDCHAR
STARTCHAR uni0066
ENCODING 102
SWIDTH 500 0
DWIDTH 16 0
BBX 14 22 1 0
BITMAP
01FC
03FC
07FC
07FC
0780
0780
FFFC
FFFC
FFFC
FFFC
0780
0780
0780
0780
0780
0780
0780
0780
0780
0780
0780
0780
ENDCHAR
STARTCHAR uni0067
ENCODING 103
SWIDTH 500 0
DWIDTH 16 0
BBX 14 22 1 -6
BITMAP
3FFC
7FFC
FFFC
FFFC
F03C
F03C
F03C
F03C
F03C
F03C
F03C
F03C
FFFC
FFFC
7FFC
3FFC
003C
003C
FFFC
FFFC
FFF8
FFF0
ENDCHAR
STARTCHAR uni0068
ENCODING 104
SWIDTH 500 0
DWIDTH 16 0
BBX 14 22 1 0
BITMAP
F000
F000
F000
F000
F000
F000
FFF0
FFF8
FFFC
FFFC
F03C
F03C
F03C
F03C
F03C
F03C
F03C
F03C
F03C
F03C
F03C
F03C
ENDCHAR
STARTCHAR uni0069
ENCODING 105
SWIDTH 500 0
DWIDTH 16 0
BBX 14 22 1 0
BITMAP
0780
0780
0780
0780
0000
0000
FF80
FF80
FF80
FF80
0780
0780
0780
0780
0780
0780
0780
0780
FFFC
FFFC
FFFC
FFFC
ENDCHAR
STARTCHAR uni006A
ENCODING 106
SWIDTH 500 0
DWIDTH 16 0
BBX 12 28 1 -6
BITMAP
00F0
00F0
00F0
00F0
0000
0000
3FF0
3FF0
3FF0
3FF0
00F0
00F0
00F0
00F0
00F0
00F0
00F0
00F0
00F0
00F0
00F0
00F0
00F0
00F0
FFF0
FFF0
FFE0
FFC0
ENDCHAR
STARTCHAR uni006B
ENCODING 107
SWIDTH 500 0
DWIDTH 16 0
BBX 14 22 1 0
BITMAP
F000
F000
F000
F000
F000
F000
F03C
F07C
F0F8
F1F0
F3E0
F7C0
FF80
FF00
FF00
FF80
F7C0
F3E0
F1F0
F0F8
F07C
F03C
ENDCHAR
STARTCHAR uni006C
ENCODING 108
SWIDTH 500 0
DWIDTH 16 0
BBX 14 22 1 0
BITMAP
FF80
FF80
FF80
FF80
0780
0780
0780
0780
0780
0780
0780
0780
0780
0780
0780
0780
0780
0780
07FC
07FC
03FC
01FC
ENDCHAR
STARTCHAR uni006D
ENCODING 109
SWIDTH 500 0
DWIDTH 16 0
BBX 14 16 1 0
BITMAP
FFF0
FFF8
FFFC
FFFC
F7BC
F7BC
F7BC
F7BC
F7BC
F7BC
F7BC
F7BC
F7BC
F7BC
F7BC
F7BC
ENDCHAR
STARTCHAR uni006E
ENCODING 110
SWIDTH 500 0
DWIDTH 16 0
BBX 14 16 1 0
BITMAP
FFF0
FFF8
FFFC
FFFC
F03C
F03C
F03C
F03C
F03C
F03C
F03C
F03C
F03C
F03C
F03C
F03C
ENDCHAR
STARTCHAR uni006F
ENCODING 111
SWIDTH 500 0
DWIDTH 16 0
BBX 14 16 1 0
BITMAP
3FF0
7FF8
FFFC
FFFC
F03C
F03C
F03C
F03C
F03C
F03C
F03C
F03C
FFFC
FFFC
7FF8
3FF0
ENDCHAR
STARTCHAR uni0070
ENCODING 112
SWIDTH 500 0
DWIDTH 16 0
BBX 14 22 1 -6
BITMAP
FFF0
FFF8
FFFC
FFFC
F03C
F03C
F03C
F03C
F03C
F03C
F03C
F03C
FFFC
FFFC
FFF8
FFF0
F000
F000
F000
F000
F000
F000
ENDCHAR
STARTCHAR uni0071
ENCODING 113
SWIDTH 500 0
DWIDTH 16 0
BBX 14 22 1 -6
BITMAP
3FFC
7FFC
FFFC
FFFC
F03C
F03C
F03C
F03C
F03C
F03C
F03C
F03C
FFFC
FFFC
7FFC
3FFC
003C
003C
003C
003C
003C
003C
ENDCHAR
STARTCHAR uni0072
ENCODING 114
SWIDTH 500 0
DWIDTH 16 0
BBX 14 16 1 0
BITMAP
FFF0
FFF8
FFFC
FFFC
F03C
F03C
F000
F000
F000
F000
F000
F000
F000
F000
F000
F000
ENDCHAR
STARTCHAR uni0073
ENCODING 115
SWIDTH 500 0
DWIDTH 16 0
BBX 14 16 1 0
BITMAP
3FFC
7FFC
FFFC
FFFC
F000
F000
FFF0
FFF8
7FFC
3FFC
003C
003C
FFFC
FFFC
FFF8
FFF0
ENDCHAR
STARTCHAR uni0074
ENCODING 116
SWIDTH 500 0
DWIDTH 16 0
BBX 14 22 1 0
BITMAP
0F00
0F00
0F00
0F00
0F00
0F00
FFFC
FFFC
FFFC
FFFC
0F00
0F00
0F00
0F00
0F00
0F00
0F00
0F00
0FFC
0FFC
07FC
03FC
ENDCHAR
STARTCHAR uni0075
ENCODING 117
SWIDTH 500 0
DWIDTH 16 0
BBX 14 16 1 0
BITMAP
F03C
F03C
F03C
F03C
F03C
F03C
F03C
F03C
F03C
F03C
F03C
F03C
FFFC
FFFC
7FFC
3FFC
ENDCHAR
STARTCHAR uni0076
ENCODING 118
SWIDTH 500 0
DWIDTH 16 0
BBX 14 16 1 0
BITMAP
F03C
F03C
F03C
F03C
F03C
F03C
F03C
F03C
F87C
FCFC
7FF8
3FF0
1FE0
0FC0
0780
0300
ENDCHAR
STARTCHAR uni0077
ENCODING 119
SWIDTH 500 0
DWIDTH 16 0
BBX 14 16 1 0
BITMAP
F7BC
F7BC
F7BC
F7BC
F7BC
F7BC
F7BC
F7BC
F7BC
F7BC
F7BC
F7BC
FFFC
FFFC
7FF8
3CF0
ENDCHAR
STARTCHAR uni0078
ENCODING 120
SWIDTH 500 0
DWIDTH 16 0
BBX 14 16 1 0
BITMAP
F03C
F03C
F03C
F87C
7CF8
3FF0
1FE0
0FC0
0FC0
1FE0
3FF0
7CF8
F87C
F03C
F03C
F03C
ENDCHAR
STARTCHAR uni0079
ENCODING 121
SWIDTH 500 0
DWIDTH 16 0
BBX 14 22 1 -6
BITMAP
F03C
F03C
F03C
F03C
F03C
F03C
F03C
F03C
F03C
F03C
F03C
F03C
FFFC
FFFC
7FFC
3FFC
003C
003C
FFFC
FFFC
FFF8
FFF0
ENDCHAR
STARTCHAR uni007A
ENCODING 122
SWIDTH 500 0
DWIDTH 16 0
BBX 14 16 1 0
BITMAP
FFFC
FFFC
FFFC
FFFC
00F8
01F0
03E0
07C0
0F80
1F00
3E00
7C00
FFFC
FFFC
FFFC
FFFC
ENDCHAR
STARTCHAR uni007B
ENCODING 123
SWIDTH 500 0
DWIDTH 16 0
BBX 12 30 2 -4
BITMAP
03F0
07F0
0FF0
0FF0
0F00
0F00
0F00
0F00
0F00
0F00
0F00
0F00
1F00
FE00
FC00
FC00
FE00
1F00
0F00
0F00
0F00
0F00
0F00
0F00
0F00
0F00
0FF0
0FF0
07F0
03F0
ENDCHAR
STARTCHAR uni007C
ENCODING 124
SWIDTH 500 0
DWIDTH 16 0
BBX 4 30 6 -4
BITMAP
F0
F0
F0
F0
F0
F0
F0
F0
F0
F0
F0
F0
F0
F0
F0
F0
F0
F0
F0
F0
F0
F0
F0
F0
F0
F0
F0
F0
F0
F0
ENDCHAR
STARTCHAR uni007D
ENCODING 125
SWIDTH 500 0
DWIDTH 16 0
BBX 12 30 2 -4
BITMAP
FC00
FE00
FF00
FF00
0F00
0F00
0F00
0F00
0F00
0F00
0F00
0F00
0F80
07F0
03F0
03F0
07F0
0F80
0F00
0F00
0F00
0F00
0F00
0F00
0F00
0F00
FF00
FF00
FE00
FC00
ENDCHAR
STARTCHAR uni007E
ENCODING 126
SWIDTH 500 0
DWIDTH 16 0
BBX 14 6 1 16
BITMAP
3E0C
7F1C
FFFC
FFFC
E3F8
C1F0
ENDCHAR
STARTCHAR uni00A0
ENCODING 160
SWIDTH 250 0
DWIDTH 8 0
BBX 1 1 0 0
BITMAP
00
ENDCHAR
STARTCHAR uni00A1
ENCODING 161
SWIDTH 250 0
DWIDTH 8 0
BBX 4 22 2 -6
BITMAP
F0
F0
F0
F0
00
00
F0
F0
F0
F0
F0
F0
F0
F0
F0
F0
F0
F0
F0
F0
F0
F0
ENDCHAR
STARTCHAR uni00A2
ENCODING 162
SWIDTH 500 0
DWIDTH 16 0
BBX 14 20 1 -2
BITMAP
0780
0780
3FF0
7FF8
FFFC
FFFC
F7BC
F7BC
F780
F780
F780
F780
F7BC
F7BC
FFFC
FFFC
7FF8
3FF0
0780
0780
ENDCHAR
STARTCHAR uni00A3
ENCODING 163
SWIDTH 500 0
DWIDTH 16 0
BBX 14 22 1 0
BITMAP
0FF0
1FF8
3FFC
3FFC
3C3C
3C3C
3C00
3C00
3C00
FFC0
FFC0
FFC0
FFC0
3C00
3C00
3C00
3C3C
3C3C
7FFC
FFFC
FFFC
FFFC
ENDCHAR
STARTCHAR uni00A4
ENCODING 164
SWIDTH 500 0
DWIDTH 16 0
BBX 14 14 1 1
BITMAP
3030
7878
FFFC
FFFC
7FF8
3FF0
3CF0
3CF0
3FF0
7FF8
FFFC
FFFC
7878
3030
ENDCHAR
STARTCHAR uni00A5
ENCODING 165
SWIDTH 500 0
DWIDTH 16 0
BBX 14 22 1 0
BITMAP
C00C
E01C
F03C
F87C
7CF8
3FF0
1FE0
0FC0
0780
FFFC
FFFC
FFFC
FFFC
0780
FFFC
FFFC
FFFC
FFFC
0780
0780
0780
0780
ENDCHAR
STARTCHAR uni00A6
ENCODING 166
SWIDTH 500 0
DWIDTH 16 0
BBX 4 28 6 -6
BITMAP
F0
F0
F0
F0
F0
F0
F0
F0
F0
F0
F0
F0
00
00
00
00
F0
F0
F0
F0
F0
F0
F0
F0
F0
F0
F0
F0
ENDCHAR
STARTCHAR uni00A7
ENCODING 167
SWIDTH 500 0
DWIDTH 16 0
BBX 14 28 1 -6
BITMAP
3FF0
7FF8
FFFC
FFFC
F03C
F03C
F000
F000
FFF0
7FF8
7FFC
FFFC
F03C
F03C
F03C
F03C
FFFC
FFF8
7FF8
3FFC
003C
003C
F03C
F03C
FFFC
FFFC
7FF8
3FF0
ENDCHAR
STARTCHAR uni00A8
ENCODING 168
SWIDTH 500 0
DWIDTH 16 0
BBX 10 4 3 18
BITMAP
F3C0
F3C0
F3C0
F3C0
ENDCHAR
STARTCHAR uni00A9
ENCODING 169
SWIDTH 500 0
DWIDTH 16 0
BBX 14 16 1 3
BITMAP
3FF0
7FF8
E01C
C00C
C78C
CFCC
CCCC
CC0C
CC0C
CCCC
CFCC
C78C
C00C
E01C
7FF8
3FF0
ENDCHAR
STARTCHAR uni00AA
ENCODING 170
SWIDTH 250 0
DWIDTH 8 0
BBX 6 11 1 11
BITMAP
F8
FC
0C
7C
FC
CC
FC
7C
00
FC
FC
ENDCHAR
STARTCHAR uni00AB
ENCODING 171
SWIDTH 500 0
DWIDTH 16 0
BBX 14 12 1 5
BITMAP
071C
0F3C
1E78
3CF0
79E0
F3C0
F3C0
79E0
3CF0
1E78
0F3C
071C
ENDCHAR
STARTCHAR uni00AC
ENCODING 172
SWIDTH 500 0
DWIDTH 16 0
BBX 14 6 1 7
BITMAP
FFFC
FFFC
FFFC
FFFC
003C
003C
ENDCHAR
STARTCHAR uni00AD
ENCODING 173
SWIDTH 500 0
DWIDTH 16 0
BBX 14 4 1 9
BITMAP
FFFC
FFFC
FFFC
FFFC
ENDCHAR
STARTCHAR uni00AE
ENCODING 174
SWIDTH 500 0
DWIDTH 16 0
BBX 14 16 1 3
BITMAP
3FF0
7FF8
E01C
C00C
CF8C
CFCC
CCCC
CFCC
CF8C
CCCC
CCCC
CCCC
C00C
E01C
7FF8
3FF0
ENDCHAR
STARTCHAR uni00AF
ENCODING 175
SWIDTH 500 0
DWIDTH 16 0
BBX 10 4 3 18
BITMAP
FFC0
FFC0
FFC0
FFC0
ENDCHAR
STARTCHAR uni00B0
ENCODING 176
SWIDTH 250 0
DWIDTH 8 0
BBX 6 6 1 16
BITMAP
78
FC
CC
CC
FC
78
ENDCHAR
STARTCHAR uni00B1
ENCODING 177
SWIDTH 500 0
DWIDTH 16 0
BBX 12 17 2 0
BITMAP
0F00
0F00
0F00
0F00
FFF0
FFF0
FFF0
FFF0
0F00
0F00
0F00
0F00
0000
FFF0
FFF0
FFF0
FFF0
ENDCHAR
STARTCHAR uni00B2
ENCODING 178
SWIDTH 250 0
DWIDTH 8 0
BBX 6 10 1 12
BITMAP
78
FC
CC
0C
1C
38
70
E0
FC
FC
ENDCHAR
STARTCHAR uni00B3
ENCODING 179
SWIDTH 250 0
DWIDTH 8 0
BBX 6 10 1 12
BITMAP
78
FC
CC
0C
38
38
0C
CC
FC
78
ENDCHAR
STARTCHAR uni00B4
ENCODING 180
SWIDTH 500 0
DWIDTH 16 0
BBX 6 4 5 18
BITMAP
3C
7C
F8
F0
ENDCHAR
STARTCHAR uni00B5
ENCODING 181
SWIDTH 500 0
DWIDTH 16 0
BBX 14 22 1 -6
BITMAP
F03C
F03C
F03C
F03C
F03C
F03C
F03C
F03C
F03C
F03C
F07C
F0FC
FFFC
FFFC
FFBC
FF3C
F000
F000
F000
F000
F000
F000
ENDCHAR
STARTCHAR uni00B6
ENCODING 182
SWIDTH 500 0
DWIDTH 16 0
BBX 10 28 1 -6
BITMAP
3FC0
7FC0
FCC0
FCC0
FCC0
FCC0
7CC0
3CC0
0CC0
0CC0
0CC0
0CC0
0CC0
0CC0
0CC0
0CC0
0CC0
0CC0
0CC0
0CC0
0CC0
0CC0
0CC0
0CC0
0CC0
0CC0
0CC0
0CC0
ENDCHAR
STARTCHAR uni00B7
ENCODING 183
SWIDTH 500 0
DWIDTH 16 0
BBX 4 4 6 9
BITMAP
F0
F0
F0
F0
ENDCHAR
STARTCHAR uni00B8
ENCODING 184
SWIDTH 500 0
DWIDTH 16 0
BBX 7 6 5 -6
BITMAP
30
3C
3E
06
FE
FC
ENDCHAR
STARTCHAR uni00B9
ENCODING 185
SWIDTH 250 0
DWIDTH 8 0
BBX 6 10 1 12
BITMAP
30
F0
F0
30
30
30
30
30
FC
FC
ENDCHAR
STARTCHAR uni00BA
ENCODING 186
SWIDTH 250 0
DWIDTH 8 0
BBX 6 11 1 11
BITMAP
78
FC
CC
CC
CC
CC
FC
78
00
FC
FC
ENDCHAR
STARTCHAR uni00BB
ENCODING 187
SWIDTH 500 0
DWIDTH 16 0
BBX 14 12 1 5
BITMAP
E380
F3C0
79E0
3CF0
1E78
0F3C
0F3C
1E78
3CF0
79E0
F3C0
E380
ENDCHAR
STARTCHAR uni00BC
ENCODING 188
SWIDTH 500 0
DWIDTH 16 0
BBX 14 22 1 0
BITMAP
3000
F000
F000
3000
300C
301C
3038
3070
FCE0
FDC0
0380
0700
0ECC
1CCC
38CC
70CC
E0FC
C07C
000C
000C
000C
000C
ENDCHAR
STARTCHAR uni00BD
ENCODING 189
SWIDTH 500 0
DWIDTH 16 0
BBX 14 22 1 0
BITMAP
3000
F000
F000
3000
300C
301C
3038
3070
FCE0
FDC0
0380
0700
0E78
1CFC
38CC
700C
E01C
C038
0070
00E0
00FC
00FC
ENDCHAR
STARTCHAR uni00BE
ENCODING 190
SWIDTH 500 0
DWIDTH 16 0
BBX 14 22 1 0
BITMAP
7800
FC00
CC00
0C00
380C
381C
0C38
CC70
FCE0
79C0
0380
0700
0ECC
1CCC
38CC
70CC
E0FC
C07C
000C
000C
000C
000C
ENDCHAR
STARTCHAR uni00BF
ENCODING 191
SWIDTH 500 0
DWIDTH 16 0
BBX 14 22 1 -6
BITMAP
0780
0780
0780
0780
0000
0000
0780
0780
0780
3F80
7F80
FF00
FE00
F000
F000
F000
F03C
F03C
FFFC
FFFC
7FF8
3FF0
ENDCHAR
STARTCHAR uni00D7
ENCODING 215
SWIDTH 500 0
DWIDTH 16 0
BBX 14 14 1 4
BITMAP
2010
7038
F87C
7CF8
3FF0
1FE0
0FC0
0FC0
1FE0
3FF0
7CF8
F87C
7038
2010
ENDCHAR
STARTCHAR uni00F7
ENCODING 247
SWIDTH 500 0
DWIDTH 16 0
BBX 14 16 1 3
BITMAP
0780
0780
0780
0780
0000
0000
FFFC
FFFC
FFFC
FFFC
0000
0000
0780
0780
0780
0780
ENDCHAR
STARTCHAR uni0400
ENCODING 1024
SWIDTH 500 0
DWIDTH 16 0
BBX 14 26 1 0
BITMAP
1E00
0F00
0780
0000
FFFC
FFFC
FFFC
FFFC
F000
F000
F000
F000
F000
FFFC
FFFC
FFFC
FFFC
F000
F000
F000
F000
F000
FFFC
FFFC
FFFC
FFFC
ENDCHAR
STARTCHAR uni0401
ENCODING 1025
SWIDTH 500 0
DWIDTH 16 0
BBX 14 26 1 0
BITMAP
1CE0
1CE0
1CE0
0000
FFFC
FFFC
FFFC
FFFC
F000
F000
F000
F000
F000
FFFC
FFFC
FFFC
FFFC
F000
F000
F000
F000
F000
FFFC
FFFC
FFFC
FFFC
ENDCHAR
STARTCHAR uni0402
ENCODING 1026
SWIDTH 500 0
DWIDTH 16 0
BBX 15 22 0 0
BITMAP
FFF0
FFF0
FFF0
FFF0
0F00
0F00
0F00
0F00
0F00
0FF8
0FFC
0FFE
0FFE
0F1E
0F1E
0F1E
0F1E
0F1E
0F3E
0F3E
0F3C
0F38
ENDCHAR
STARTCHAR uni0403
ENCODING 1027
SWIDTH 500 0
DWIDTH 16 0
BBX 14 26 1 0
BITMAP
01E0
03C0
0780
0000
FFFC
FFFC
FFFC
FFFC
F000
F000
F000
F000
F000
F000
F000
F000
F000
F000
F000
F000
F000
F000
F000
F000
F000
F000
ENDCHAR
STARTCHAR uni0404
ENCODING 1028
SWIDTH 500 0
DWIDTH 16 0
BBX 14 22 1 0
BITMAP
3FF0
7FF8
FFFC
FFFC
F03C
F03C
F000
F000
F000
FFC0
FFC0
FFC0
FFC0
F000
F000
F000
F03C
F03C
FFFC
FFFC
7FF8
3FF0
ENDCHAR
STARTCHAR uni0405
ENCODING 1029
SWIDTH 500 0
DWIDTH 16 0
BBX 14 22 1 0
BITMAP
3FF0
7FF8
FFFC
FFFC
F03C
F03C
F000
F000
F000
FFF0
FFF8
7FFC
3FFC
003C
003C
003C
F03C
F03C
FFFC
FFFC
7FF8
3FF0
ENDCHAR
STARTCHAR uni0406
ENCODING 1030
SWIDTH 500 0
DWIDTH 16 0
BBX 14 22 1 0
BITMAP
FFFC
FFFC
FFFC
FFFC
0780
0780
0780
0780
0780
0780
0780
0780
0780
0780
0780
0780
0780
0780
FFFC
FFFC
FFFC
FFFC
ENDCHAR
STARTCHAR uni0407
ENCODING 1031
SWIDTH 500 0
DWIDTH 16 0
BBX 14 26 1 0
BITMAP
1CE0
1CE0
1CE0
0000
FFFC
FFFC
FFFC
FFFC
0780
0780
0780
0780
0780
0780
0780
0780
0780
0780
0780
0780
0780
0780
FFFC
FFFC
FFFC
FFFC
ENDCHAR
STARTCHAR uni0408
ENCODING 1032
SWIDTH 500 0
DWIDTH 16 0
BBX 14 22 1 0
BITMAP
003C
003C
003C
003C
003C
003C
003C
003C
003C
003C
003C
003C
003C
003C
003C
003C
F03C
F03C
FFFC
FFFC
7FF8
3FF0
ENDCHAR
STARTCHAR uni0409
ENCODING 1033
SWIDTH 500 0
DWIDTH 16 0
BBX 15 22 0 0
BITMAP
7FC0
7FC0
7FC0
7FC0
7BC0
7BC0
7BC0
7BC0
7BC0
7BF8
7BFC
7BFE
7BFE
7BDE
7BDE
7BDE
7BDE
7BDE
FBFE
FBFE
F3FC
E3F8
ENDCHAR
STARTCHAR uni040A
ENCODING 1034
SWIDTH 500 0
DWIDTH 16 0
BBX 14 22 1 0
BITMAP
F780
F780
F780
F780
F780
F780
F780
F780
F780
FFF0
FFF8
FFFC
FFFC
F7BC
F7BC
F7BC
F7BC
F7BC
F7FC
F7FC
F7F8
F7F0
ENDCHAR
STARTCHAR uni040B
ENCODING 1035
SWIDTH 500 0
DWIDTH 16 0
BBX 15 22 0 0
BITMAP
FFF0
FFF0
FFF0
FFF0
0F00
0F00
0F00
0F00
0F00
0FF8
0FFC
0FFE
0FFE
0F1E
0F1E
0F1E
0F1E
0F1E
0F1E
0F1E
0F1E
0F1E
ENDCHAR
STARTCHAR uni040C
ENCODING 1036
SWIDTH 500 0
DWIDTH 16 0
BBX 14 26 1 0
BITMAP
01E0
03C0
0780
0000
F07C
F0FC
F0FC
F1FC
F1E0
F3C0
F3C0
F780
F780
FF00
FF80
FF80
FFC0
F3C0
F1E0
F1E0
F0F0
F0F0
F078
F078
F03C
F03C
ENDCHAR
STARTCHAR uni040D
ENCODING 1037
SWIDTH 500 0
DWIDTH 16 0
BBX 14 26 1 0
BITMAP
1E00
0F00
0780
0000
F03C
F03C
F07C
F07C
F0FC
F0FC
F1FC
F1FC
F3FC
F3FC
F7BC
F7BC
FF3C
FF3C
FE3C
FE3C
FC3C
FC3C
F83C
F83C
F03C
F03C
ENDCHAR
STARTCHAR uni040E
ENCODING 1038
SWIDTH 500 0
DWIDTH 16 0
BBX 14 26 1 0
BITMAP
1860
1FE0
0FC0
0000
F03C
F03C
F03C
7878
7878
7878
3CF0
3CF0
3CF0
1FE0
1FE0
1FE0
0FC0
0FC0
0FC0
0780
0780
0F80
FF00
FF00
FE00
FC00
ENDCHAR
STARTCHAR uni040F
ENCODING 1039
SWIDTH 500 0
DWIDTH 16 0
BBX 14 28 1 -6
BITMAP
F03C
F03C
F03C
F03C
F03C
F03C
F03C
F03C
F03C
F03C
F03C
F03C
F03C
F03C
F03C
F03C
F03C
F03C
FFFC
FFFC
FFFC
FFFC
0780
0780
0780
0780
0780
0780
ENDCHAR
STARTCHAR uni0410
ENCODING 1040
SWIDTH 500 0
DWIDTH 16 0
BBX 16 22 0 0
BITMAP
07E0
07E0
07E0
0FF0
0FF0
0FF0
0FF0
1E78
1E78
1E78
1E78
3C3C
3C3C
3FFC
3FFC
7FFE
7FFE
781E
781E
F00F
F00F
F00F
ENDCHAR
STARTCHAR uni0411
ENCODING 1041
SWIDTH 500 0
DWIDTH 16 0
BBX 14 22 1 0
BITMAP
FFFC
FFFC
FFFC
FFFC
F000
F000
F000
F000
F000
FFF0
FFF8
FFFC
FFFC
F03C
F03C
F03C
F03C
F03C
FFFC
FFFC
FFF8
FFF0
ENDCHAR
STARTCHAR uni0412
ENCODING 1042
SWIDTH 500 0
DWIDTH 16 0
BBX 14 22 1 0
BITMAP
FFF0
FFF8
FFFC
FFFC
F03C
F03C
F03C
F03C
F03C
FFF8
FFF0
FFF0
FFF8
F03C
F03C
F03C
F03C
F03C
FFFC
FFFC
FFF8
FFF0
ENDCHAR
STARTCHAR uni0413
ENCODING 1043
SWIDTH 500 0
DWIDTH 16 0
BBX 14 22 1 0
BITMAP
FFFC
FFFC
FFFC
FFFC
F000
F000
F000
F000
F000
F000
F000
F000
F000
F000
F000
F000
F000
F000
F000
F000
F000
F000
ENDCHAR
STARTCHAR uni0414
ENCODING 1044
SWIDTH 500 0
DWIDTH 16 0
BBX 16 26 0 -4
BITMAP
3FFE
3FFE
3FFE
3FFE
3C1E
3C1E
3C1E
3C1E
3C1E
3C1E
3C1E
3C1E
3C1E
3C1E
3C1E
3C1E
3C1E
7C1E
FFFF
FFFF
FFFF
FFFF
F00F
F00F
F00F
F00F
ENDCHAR
STARTCHAR uni0415
ENCODING 1045
SWIDTH 500 0
DWIDTH 16 0
BBX 14 22 1 0
BITMAP
FFFC
FFFC
FFFC
FFFC
F000
F000
F000
F000
F000
FFFC
FFFC
FFFC
FFFC
F000
F000
F000
F000
F000
FFFC
FFFC
FFFC
FFFC
ENDCHAR
STARTCHAR uni0416
ENCODING 1046
SWIDTH 500 0
DWIDTH 16 0
BBX 14 22 1 0
BITMAP
F7BC
F7BC
F7BC
F7BC
F7BC
F7BC
F7BC
FFFC
7FF8
3FF0
1FE0
1FE0
3FF0
7FF8
FFFC
F7BC
F7BC
F7BC
F7BC
F7BC
F7BC
F7BC
ENDCHAR
STARTCHAR uni0417
ENCODING 1047
SWIDTH 500 0
DWIDTH 16 0
BBX 14 22 1 0
BITMAP
3FF0
7FF8
FFFC
FFFC
F03C
F03C
003C
007C
00F8
0FF0
0FE0
0FE0
0FF0
00F8
007C
003C
F03C
F03C
FFFC
FFFC
7FF8
3FF0
ENDCHAR
STARTCHAR uni0418
ENCODING 1048
SWIDTH 500 0
DWIDTH 16 0
BBX 14 22 1 0
BITMAP
F03C
F03C
F07C
F07C
F0FC
F0FC
F1FC
F1FC
F3FC
F3FC
F7BC
F7BC
FF3C
FF3C
FE3C
FE3C
FC3C
FC3C
F83C
F83C
F03C
F03C
ENDCHAR
STARTCHAR uni0419
ENCODING 1049
SWIDTH 500 0
DWIDTH 16 0
BBX 14 26 1 0
BITMAP
1860
1FE0
0FC0
0000
F03C
F03C
F07C
F07C
F0FC
F0FC
F1FC
F1FC
F3FC
F3FC
F7BC
F7BC
FF3C
FF3C
FE3C
FE3C
FC3C
FC3C
F83C
F83C
F03C
F03C
ENDCHAR
STARTCHAR uni041A
ENCODING 1050
SWIDTH 500 0
DWIDTH 16 0
BBX 14 22 1 0
BITMAP
F07C
F0FC
F0FC
F1FC
F1E0
F3C0
F3C0
F780
F780
FF00
FF80
FF80
FFC0
F3C0
F1E0
F1E0
F0F0
F0F0
F078
F078
F03C
F03C
ENDCHAR
STARTCHAR uni041B
ENCODING 1051
SWIDTH 500 0
DWIDTH 16 0
BBX 15 22 0 0
BITMAP
3FFE
3FFE
3FFE
3FFE
3C1E
3C1E
3C1E
3C1E
3C1E
3C1E
3C1E
3C1E
3C1E
3C1E
3C1E
3C1E
3C1E
3C1E
FC1E
FC1E
F81E
F01E
ENDCHAR
STARTCHAR uni041C
ENCODING 1052
SWIDTH 500 0
DWIDTH 16 0
BBX 14 22 1 0
BITMAP
C00C
E01C
F03C
F87C
FCFC
FFFC
FFFC
FFFC
F7BC
F33C
F03C
F03C
F03C
F03C
F03C
F03C
F03C
F03C
F03C
F03C
F03C
F03C
ENDCHAR
STARTCHAR uni041D
ENCODING 1053
SWIDTH 500 0
DWIDTH 16 0
BBX 14 22 1 0
BITMAP
F03C
F03C
F03C
F03C
F03C
F03C
F03C
F03C
F03C
FFFC
FFFC
FFFC
FFFC
F03C
F03C
F03C
F03C
F03C
F03C
F03C
F03C
F03C
ENDCHAR
STARTCHAR uni041E
ENCODING 1054
SWIDTH 500 0
DWIDTH 16 0
BBX 14 22 1 0
BITMAP
3FF0
7FF8
FFFC
FFFC
F03C
F03C
F03C
F03C
F03C
F03C
F03C
F03C
F03C
F03C
F03C
F03C
F03C
F03C
FFFC
FFFC
7FF8
3FF0
ENDCHAR
STARTCHAR uni041F
ENCODING 1055
SWIDTH 500 0
DWIDTH 16 0
BBX 14 22 1 0
BITMAP
FFFC
FFFC
FFFC
FFFC
F03C
F03C
F03C
F03C
F03C
F03C
F03C
F03C
F03C
F03C
F03C
F03C
F03C
F03C
F03C
F03C
F03C
F03C
ENDCHAR
STARTCHAR uni0420
ENCODING 1056
SWIDTH 500 0
DWIDTH 16 0
BBX 14 22 1 0
BITMAP
FFF0
FFF8
FFFC
FFFC
F03C
F03C
F03C
F03C
F03C
FFFC
FFFC
FFF8
FFF0
F000
F000
F000
F000
F000
F000
F000
F000
F000
ENDCHAR
STARTCHAR uni0421
ENCODING 1057
SWIDTH 500 0
DWIDTH 16 0
BBX 14 22 1 0
BITMAP
3FF0
7FF8
FFFC
FFFC
F03C
F03C
F000
F000
F000
F000
F000
F000
F000
F000
F000
F000
F03C
F03C
FFFC
FFFC
7FF8
3FF0
ENDCHAR
STARTCHAR uni0422
ENCODING 1058
SWIDTH 500 0
DWIDTH 16 0
BBX 14 22 1 0
BITMAP
FFFC
FFFC
FFFC
FFFC
0780
0780
0780
0780
0780
0780
0780
0780
0780
0780
0780
0780
0780
0780
0780
0780
0780
0780
ENDCHAR
STARTCHAR uni0423
ENCODING 1059
SWIDTH 500 0
DWIDTH 16 0
BBX 14 22 1 0
BITMAP
F03C
F03C
F03C
7878
7878
7878
3CF0
3CF0
3CF0
1FE0
1FE0
1FE0
0FC0
0FC0
0FC0
0780
0780
0F80
FF00
FF00
FE00
FC00
ENDCHAR
STARTCHAR uni0424
ENCODING 1060
SWIDTH 500 0
DWIDTH 16 0
BBX 14 22 1 0
BITMAP
0780
0780
0780
0780
3FF0
7FF8
FFFC
FFFC
F7BC
F7BC
F7BC
F7BC
F7BC
F7BC
FFFC
FFFC
7FF8
3FF0
0780
0780
0780
0780
ENDCHAR
STARTCHAR uni0425
ENCODING 1061
SWIDTH 500 0
DWIDTH 16 0
BBX 14 22 1 0
BITMAP
F03C
F03C
F03C
F03C
F03C
F03C
F87C
7CF8
3FF0
1FE0
0FC0
0FC0
1FE0
3FF0
7CF8
F87C
F03C
F03C
F03C
F03C
F03C
F03C
ENDCHAR
STARTCHAR uni0426
ENCODING 1062
SWIDTH 500 0
DWIDTH 16 0
BBX 14 26 1 -4
BITMAP
F078
F078
F078
F078
F078
F078
F078
F078
F078
F078
F078
F078
F078
F078
F078
F078
F078
F078
FFFC
FFFC
FFFC
FFFC
003C
003C
003C
003C
ENDCHAR
STARTCHAR uni0427
ENCODING 1063
SWIDTH 500 0
DWIDTH 16 0
BBX 14 22 1 0
BITMAP
F03C
F03C
F03C
F03C
F03C
F03C
F03C
F03C
F03C
FFFC
FFFC
7FFC
3FFC
003C
003C
003C
003C
003C
003C
003C
003C
003C
ENDCHAR
STARTCHAR uni0428
ENCODING 1064
SWIDTH 500 0
DWIDTH 16 0
BBX 14 22 1 0
BITMAP
F7BC
F7BC
F7BC
F7BC
F7BC
F7BC
F7BC
F7BC
F7BC
F7BC
F7BC
F7BC
F7BC
F7BC
F7BC
F7BC
F7BC
F7BC
FFFC
FFFC
FFFC
FFFC
ENDCHAR
STARTCHAR uni0429
ENCODING 1065
SWIDTH 500 0
DWIDTH 16 0
BBX 15 26 1 -4
BITMAP
F7BC
F7BC
F7BC
F7BC
F7BC
F7BC
F7BC
F7BC
F7BC
F7BC
F7BC
F7BC
F7BC
F7BC
F7BC
F7BC
F7BC
F7BC
FFFE
FFFE
FFFE
FFFE
001E
001E
001E
001E
ENDCHAR
STARTCHAR uni042A
ENCODING 1066
SWIDTH 500 0
DWIDTH 16 0
BBX 15 22 0 0
BITMAP
FC00
FC00
FC00
FC00
3C00
3C00
3C00
3C00
3C00
3FF8
3FFC
3FFE
3FFE
3C1E
3C1E
3C1E
3C1E
3C1E
3FFE
3FFE
3FFC
3FF8
ENDCHAR
STARTCHAR uni042B
ENCODING 1067
SWIDTH 500 0
DWIDTH 16 0
BBX 14 22 1 0
BITMAP
F03C
F03C
F03C
F03C
F03C
F03C
F03C
F03C
F03C
FE3C
FF3C
FFBC
FFBC
F7BC
F7BC
F7BC
F7BC
F7BC
FFBC
FFBC
FF3C
FE3C
ENDCHAR
STARTCHAR uni042C
ENCODING 1068
SWIDTH 500 0
DWIDTH 16 0
BBX 14 22 1 0
BITMAP
F000
F000
F000
F000
F000
F000
F000
F000
F000
FFF0
FFF8
FFFC
FFFC
F03C
F03C
F03C
F03C
F03C
FFFC
FFFC
FFF8
FFF0
ENDCHAR
STARTCHAR uni042D
ENCODING 1069
SWIDTH 500 0
DWIDTH 16 0
BBX 14 22 1 0
BITMAP
3FF0
7FF8
FFFC
FFFC
F03C
F03C
003C
003C
003C
0FFC
0FFC
0FFC
0FFC
003C
003C
003C
F03C
F03C
FFFC
FFFC
7FF8
3FF0
ENDCHAR
STARTCHAR uni042E
ENCODING 1070
SWIDTH 500 0
DWIDTH 16 0
BBX 14 22 1 0
BITMAP
F1F0
F3F8
F7FC
F7FC
F7BC
F7BC
F7BC
F7BC
F7BC
FFBC
FFBC
FFBC
FFBC
F7BC
F7BC
F7BC
F7BC
F7BC
F7FC
F7FC
F3F8
F1F0
ENDCHAR
STARTCHAR uni042F
ENCODING 1071
SWIDTH 500 0
DWIDTH 16 0
BBX 14 22 1 0
BITMAP
3FFC
7FFC
FFFC
FFFC
F03C
F03C
F03C
F03C
F03C
7FFC
3FFC
3FFC
7FFC
FC3C
F83C
F03C
F03C
F03C
F03C
F03C
F03C
F03C
ENDCHAR
STARTCHAR uni0430
ENCODING 1072
SWIDTH 500 0
DWIDTH 16 0
BBX 14 16 1 0
BITMAP
FFF0
FFF8
FFFC
FFFC
003C
003C
3FFC
7FFC
FFFC
FFFC
F03C
F03C
FFFC
FFFC
7FFC
3FFC
ENDCHAR
STARTCHAR uni0431
ENCODING 1073
SWIDTH 500 0
DWIDTH 16 0
BBX 14 24 1 0
BITMAP
003C
003C
3FFC
7FFC
FFF8
FFF0
F000
F000
FFF0
FFF8
FFFC
FFFC
F03C
F03C
F03C
F03C
F03C
F03C
F03C
F03C
FFFC
FFFC
7FF8
3FF0
ENDCHAR
STARTCHAR uni0432
ENCODING 1074
SWIDTH 500 0
DWIDTH 16 0
BBX 14 16 1 0
BITMAP
FFF0
FFF8
FFFC
FFFC
F03C
F03C
FFF8
FFF0
FFF0
FFF8
F03C
F03C
FFFC
FFFC
FFF8
FFF0
ENDCHAR
STARTCHAR uni0433
ENCODING 1075
SWIDTH 500 0
DWIDTH 16 0
BBX 14 16 1 0
BITMAP
FFFC
FFFC
FFFC
FFFC
F000
F000
F000
F000
F000
F000
F000
F000
F000
F000
F000
F000
ENDCHAR
STARTCHAR uni0434
ENCODING 1076
SWIDTH 500 0
DWIDTH 16 0
BBX 16 20 0 -4
BITMAP
3FFE
3FFE
3FFE
3FFE
3C1E
3C1E
3C1E
3C1E
3C1E
3C1E
3C1E
7C1E
FFFF
FFFF
FFFF
FFFF
F00F
F00F
F00F
F00F
ENDCHAR
STARTCHAR uni0435
ENCODING 1077
SWIDTH 500 0
DWIDTH 16 0
BBX 14 16 1 0
BITMAP
3FF0
7FF8
FFFC
FFFC
F03C
F03C
FFFC
FFFC
FFFC
FFFC
F000
F000
FFFC
FFFC
7FFC
3FFC
ENDCHAR
STARTCHAR uni0436
ENCODING 1078
SWIDTH 500 0
DWIDTH 16 0
BBX 14 16 1 0
BITMAP
F7BC
F7BC
F7BC
F7BC
FFFC
7FF8
3FF0
1FE0
1FE0
3FF0
7FF8
FFFC
F7BC
F7BC
F7BC
F7BC
ENDCHAR
STARTCHAR uni0437
ENCODING 1079
SWIDTH 500 0
DWIDTH 16 0
BBX 14 16 1 0
BITMAP
3FF0
7FF8
FFFC
FFFC
F03C
F03C
03F8
03F0
03F0
03F8
F03C
F03C
FFFC
FFFC
7FF8
3FF0
ENDCHAR
STARTCHAR uni0438
ENCODING 1080
SWIDTH 500 0
DWIDTH 16 0
BBX 14 16 1 0
BITMAP
F07C
F0FC
F0FC
F1FC
F1FC
F3FC
F3FC
F7BC
F7BC
FF3C
FF3C
FE3C
FE3C
FC3C
FC3C
F83C
ENDCHAR
STARTCHAR uni0439
ENCODING 1081
SWIDTH 500 0
DWIDTH 16 0
BBX 14 20 1 0
BITMAP
1860
1FE0
0FC0
0000
F07C
F0FC
F0FC
F1FC
F1FC
F3FC
F3FC
F7BC
F7BC
FF3C
FF3C
FE3C
FE3C
FC3C
FC3C
F83C
ENDCHAR
STARTCHAR uni043A
ENCODING 1082
SWIDTH 500 0
DWIDTH 16 0
BBX 14 16 1 0
BITMAP
F03C
F07C
F0FC
F1FC
F3E0
F7C0
FF80
FF00
FF00
FF80
F7C0
F3E0
F1F0
F0F8
F07C
F03C
ENDCHAR
STARTCHAR uni043B
ENCODING 1083
SWIDTH 500 0
DWIDTH 16 0
BBX 15 16 0 0
BITMAP
3FFE
3FFE
3FFE
3FFE
3C1E
3C1E
3C1E
3C1E
3C1E
3C1E
3C1E
3C1E
FC1E
FC1E
F81E
F01E
ENDCHAR
STARTCHAR uni043C
ENCODING 1084
SWIDTH 500 0
DWIDTH 16 0
BBX 14 16 1 0
BITMAP
C00C
E01C
F03C
F87C
FCFC
FFFC
FFFC
FFFC
F7BC
F33C
F03C
F03C
F03C
F03C
F03C
F03C
ENDCHAR
STARTCHAR uni043D
ENCODING 1085
SWIDTH 500 0
DWIDTH 16 0
BBX 14 16 1 0
BITMAP
F03C
F03C
F03C
F03C
F03C
F03C
FFFC
FFFC
FFFC
FFFC
F03C
F03C
F03C
F03C
F03C
F03C
ENDCHAR
STARTCHAR uni043E
ENCODING 1086
SWIDTH 500 0
DWIDTH 16 0
BBX 14 16 1 0
BITMAP
3FF0
7FF8
FFFC
FFFC
F03C
F03C
F03C
F03C
F03C
F03C
F03C
F03C
FFFC
FFFC
7FF8
3FF0
ENDCHAR
STARTCHAR uni043F
ENCODING 1087
SWIDTH 500 0
DWIDTH 16 0
BBX 14 16 1 0
BITMAP
FFFC
FFFC
FFFC
FFFC
F03C
F03C
F03C
F03C
F03C
F03C
F03C
F03C
F03C
F03C
F03C
F03C
ENDCHAR
STARTCHAR uni0440
ENCODING 1088
SWIDTH 500 0
DWIDTH 16 0
BBX 14 22 1 -6
BITMAP
FFF0
FFF8
FFFC
FFFC
F03C
F03C
F03C
F03C
F03C
F03C
F03C
F03C
FFFC
FFFC
FFF8
FFF0
F000
F000
F000
F000
F000
F000
ENDCHAR
STARTCHAR uni0441
ENCODING 1089
SWIDTH 500 0
DWIDTH 16 0
BBX 14 16 1 0
BITMAP
3FF0
7FF8
FFFC
FFFC
F03C
F03C
F000
F000
F000
F000
F03C
F03C
FFFC
FFFC
7FF8
3FF0
ENDCHAR
STARTCHAR uni0442
ENCODING 1090
SWIDTH 500 0
DWIDTH 16 0
BBX 14 16 1 0
BITMAP
FFFC
FFFC
FFFC
FFFC
0780
0780
0780
0780
0780
0780
0780
0780
0780
0780
0780
0780
ENDCHAR
STARTCHAR uni0443
ENCODING 1091
SWIDTH 500 0
DWIDTH 16 0
BBX 14 22 1 -6
BITMAP
F03C
F03C
F03C
7878
7878
7878
3CF0
3CF0
3CF0
1FE0
1FE0
1FE0
0FC0
0FC0
0FC0
0780
0780
0F80
FF00
FF00
FE00
FC00
ENDCHAR
STARTCHAR uni0444
ENCODING 1092
SWIDTH 500 0
DWIDTH 16 0
BBX 14 28 1 -6
BITMAP
0780
0780
0780
0780
0780
0780
3FF0
7FF8
FFFC
FFFC
F7BC
F7BC
F7BC
F7BC
F7BC
F7BC
F7BC
F7BC
FFFC
FFFC
7FF8
3FF0
0780
0780
0780
0780
0780
0780
ENDCHAR
STARTCHAR uni0445
ENCODING 1093
SWIDTH 500 0
DWIDTH 16 0
BBX 14 16 1 0
BITMAP
F03C
F03C
F03C
F87C
7CF8
3FF0
1FE0
0FC0
0FC0
1FE0
3FF0
7CF8
F87C
F03C
F03C
F03C
ENDCHAR
STARTCHAR uni0446
ENCODING 1094
SWIDTH 500 0
DWIDTH 16 0
BBX 14 20 1 -4
BITMAP
F078
F078
F078
F078
F078
F078
F078
F078
F078
F078
F078
F078
FFFC
FFFC
FFFC
FFFC
003C
003C
003C
003C
ENDCHAR
STARTCHAR uni0447
ENCODING 1095
SWIDTH 500 0
DWIDTH 16 0
BBX 14 16 1 0
BITMAP
F03C
F03C
F03C
F03C
F03C
F03C
FFFC
FFFC
7FFC
3FFC
003C
003C
003C
003C
003C
003C
ENDCHAR
STARTCHAR uni0448
ENCODING 1096
SWIDTH 500 0
DWIDTH 16 0
BBX 14 16 1 0
BITMAP
F7BC
F7BC
F7BC
F7BC
F7BC
F7BC
F7BC
F7BC
F7BC
F7BC
F7BC
F7BC
FFFC
FFFC
FFFC
FFFC
ENDCHAR
STARTCHAR uni0449
ENCODING 1097
SWIDTH 500 0
DWIDTH 16 0
BBX 15 20 1 -4
BITMAP
F7BC
F7BC
F7BC
F7BC
F7BC
F7BC
F7BC
F7BC
F7BC
F7BC
F7BC
F7BC
FFFE
FFFE
FFFE
FFFE
001E
001E
001E
001E
ENDCHAR
STARTCHAR uni044A
ENCODING 1098
SWIDTH 500 0
DWIDTH 16 0
BBX 15 16 0 0
BITMAP
FC00
FC00
FC00
FC00
3C00
3C00
3FF8
3FFC
3FFE
3FFE
3C1E
3C1E
3FFE
3FFE
3FFC
3FF8
ENDCHAR
STARTCHAR uni044B
ENCODING 1099
SWIDTH 500 0
DWIDTH 16 0
BBX 14 16 1 0
BITMAP
F03C
F03C
F03C
F03C
F03C
F03C
FE3C
FF3C
FFBC
FFBC
F7BC
F7BC
FFBC
FFBC
FF3C
FE3C
ENDCHAR
STARTCHAR uni044C
ENCODING 1100
SWIDTH 500 0
DWIDTH 16 0
BBX 14 16 1 0
BITMAP
F000
F000
F000
F000
F000
F000
FFF0
FFF8
FFFC
FFFC
F03C
F03C
FFFC
FFFC
FFF8
FFF0
ENDCHAR
STARTCHAR uni044D
ENCODING 1101
SWIDTH 500 0
DWIDTH 16 0
BBX 14 16 1 0
BITMAP
3FF0
7FF8
FFFC
FFFC
F03C
F03C
03FC
03FC
03FC
03FC
F03C
F03C
FFFC
FFFC
7FF8
3FF0
ENDCHAR
STARTCHAR uni044E
ENCODING 1102
SWIDTH 500 0
DWIDTH 16 0
BBX 14 16 1 0
BITMAP
F1F0
F3F8
F7FC
F7FC
F7BC
F7BC
FFBC
FFBC
FFBC
FFBC
F7BC
F7BC
F7FC
F7FC
F3F8
F1F0
ENDCHAR
STARTCHAR uni044F
ENCODING 1103
SWIDTH 500 0
DWIDTH 16 0
BBX 14 16 1 0
BITMAP
3FFC
7FFC
FFFC
FFFC
F03C
F03C
FFFC
FFFC
7FFC
3FFC
0FBC
1F3C
3E3C
7C3C
F83C
F03C
ENDCHAR
STARTCHAR uni0450
ENCODING 1104
SWIDTH 500 0
DWIDTH 16 0
BBX 14 20 1 0
BITMAP
1E00
0F00
0780
0000
3FF0
7FF8
FFFC
FFFC
F03C
F03C
FFFC
FFFC
FFFC
FFFC
F000
F000
FFFC
FFFC
7FFC
3FFC
ENDCHAR
STARTCHAR uni0451
ENCODING 1105
SWIDTH 500 0
DWIDTH 16 0
BBX 14 20 1 0
BITMAP
1CE0
1CE0
1CE0
0000
3FF0
7FF8
FFFC
FFFC
F03C
F03C
FFFC
FFFC
FFFC
FFFC
F000
F000
FFFC
FFFC
7FFC
3FFC
ENDCHAR
STARTCHAR uni0452
ENCODING 1106
SWIDTH 500 0
DWIDTH 16 0
BBX 15 30 0 -6
BITMAP
3C00
3C00
FFE0
FFE0
FFE0
FFE0
3C00
3C00
3FF8
3FFC
3FFE
3FFE
3C1E
3C1E
3C1E
3C1E
3C1E
3C1E
3C1E
3C1E
3C1E
3C1E
3C1E
3C1E
001E
001E
007E
007E
007C
0078
ENDCHAR
STARTCHAR uni0453
ENCODING 1107
SWIDTH 500 0
DWIDTH 16 0
BBX 14 20 1 0
BITMAP
01E0
03C0
0780
0000
FFFC
FFFC
FFFC
FFFC
F000
F000
F000
F000
F000
F000
F000
F000
F000
F000
F000
F000
ENDCHAR
STARTCHAR uni0454
ENCODING 1108
SWIDTH 500 0
DWIDTH 16 0
BBX 14 16 1 0
BITMAP
3FF0
7FF8
FFFC
FFFC
F03C
F03C
FF00
FF00
FF00
FF00
F03C
F03C
FFFC
FFFC
7FF8
3FF0
ENDCHAR
STARTCHAR uni0455
ENCODING 1109
SWIDTH 500 0
DWIDTH 16 0
BBX 14 16 1 0
BITMAP
3FFC
7FFC
FFFC
FFFC
F000
F000
FFF0
FFF8
7FFC
3FFC
003C
003C
FFFC
FFFC
FFF8
FFF0
ENDCHAR
STARTCHAR uni0456
ENCODING 1110
SWIDTH 500 0
DWIDTH 16 0
BBX 14 22 1 0
BITMAP
0780
0780
0780
0780
0000
0000
FF80
FF80
FF80
FF80
0780
0780
0780
0780
0780
0780
0780
0780
FFFC
FFFC
FFFC
FFFC
ENDCHAR
STARTCHAR uni0457
ENCODING 1111
SWIDTH 500 0
DWIDTH 16 0
BBX 14 21 1 0
BITMAP
1CE0
1CE0
1CE0
0000
0000
FF80
FF80
FF80
FF80
0780
0780
0780
0780
0780
0780
0780
0780
FFFC
FFFC
FFFC
FFFC
ENDCHAR
STARTCHAR uni0458
ENCODING 1112
SWIDTH 500 0
DWIDTH 16 0
BBX 12 28 1 -6
BITMAP
00F0
00F0
00F0
00F0
0000
0000
3FF0
3FF0
3FF0
3FF0
00F0
00F0
00F0
00F0
00F0
00F0
00F0
00F0
00F0
00F0
00F0
00F0
00F0
00F0
FFF0
FFF0
FFE0
FFC0
ENDCHAR
STARTCHAR uni0459
ENCODING 1113
SWIDTH 500 0
DWIDTH 16 0
BBX 15 16 0 0
BITMAP
7FC0
7FC0
7FC0
7FC0
7BC0
7BC0
7BF8
7BFC
7BFE
7BFE
7BDE
7BDE
FBFE
FBFE
F3FC
E3F8
ENDCHAR
STARTCHAR uni045A
ENCODING 1114
SWIDTH 500 0
DWIDTH 16 0
BBX 14 16 1 0
BITMAP
F780
F780
F780
F780
F780
F780
FFF0
FFF8
FFFC
FFFC
F7BC
F7BC
F7FC
F7FC
F7F8
F7F0
ENDCHAR
STARTCHAR uni045B
ENCODING 1115
SWIDTH 500 0
DWIDTH 16 0
BBX 15 24 0 0
BITMAP
3C00
3C00
FFE0
FFE0
FFE0
FFE0
3C00
3C00
3FF8
3FFC
3FFE
3FFE
3C1E
3C1E
3C1E
3C1E
3C1E
3C1E
3C1E
3C1E
3C1E
3C1E
3C1E
3C1E
ENDCHAR
STARTCHAR uni045C
ENCODING 1116
SWIDTH 500 0
DWIDTH 16 0
BBX 14 20 1 0
BITMAP
01E0
03C0
0780
0000
F03C
F07C
F0FC
F1FC
F3E0
F7C0
FF80
FF00
FF00
FF80
F7C0
F3E0
F1F0
F0F8
F07C
F03C
ENDCHAR
STARTCHAR uni045D
ENCODING 1117
SWIDTH 500 0
DWIDTH 16 0
BBX 14 20 1 0
BITMAP
1E00
0F00
0780
0000
F07C
F0FC
F0FC
F1FC
F1FC
F3FC
F3FC
F7BC
F7BC
FF3C
FF3C
FE3C
FE3C
FC3C
FC3C
F83C
ENDCHAR
STARTCHAR uni045E
ENCODING 1118
SWIDTH 500 0
DWIDTH 16 0
BBX 14 26 1 -6
BITMAP
1860
1FE0
0FC0
0000
F03C
F03C
F03C
7878
7878
7878
3CF0
3CF0
3CF0
1FE0
1FE0
1FE0
0FC0
0FC0
0FC0
0780
0780
0F80
FF00
FF00
FE00
FC00
ENDCHAR
STARTCHAR uni045F
ENCODING 1119
SWIDTH 500 0
DWIDTH 16 0
BBX 14 22 1 -6
BITMAP
F03C
F03C
F03C
F03C
F03C
F03C
F03C
F03C
F03C
F03C
F03C
F03C
FFFC
FFFC
FFFC
FFFC
0780
0780
0780
0780
0780
0780
ENDCHAR
STARTCHAR uni2000
ENCODING 8192
SWIDTH 500 0
DWIDTH 16 0
BBX 1 1 0 0
BITMAP
00
ENDCHAR
STARTCHAR uni2001
ENCODING 8193
SWIDTH 500 0
DWIDTH 16 0
BBX 1 1 0 0
BITMAP
00
ENDCHAR
STARTCHAR uni2002
ENCODING 8194
SWIDTH 500 0
DWIDTH 16 0
BBX 1 1 0 0
BITMAP
00
ENDCHAR
STARTCHAR uni2003
ENCODING 8195
SWIDTH 500 0
DWIDTH 16 0
BBX 1 1 0 0
BITMAP
00
ENDCHAR
STARTCHAR uni2004
ENCODING 8196
SWIDTH 250 0
DWIDTH 8 0
BBX 1 1 0 0
BITMAP
00
ENDCHAR
STARTCHAR uni2005
ENCODING 8197
SWIDTH 250 0
DWIDTH 8 0
BBX 1 1 0 0
BITMAP
00
ENDCHAR
STARTCHAR uni2006
ENCODING 8198
SWIDTH 250 0
DWIDTH 8 0
BBX 1 1 0 0
BITMAP
00
ENDCHAR
STARTCHAR uni2007
ENCODING 8199
SWIDTH 250 0
DWIDTH 8 0
BBX 1 1 0 0
BITMAP
00
ENDCHAR
STARTCHAR uni2008
ENCODING 8200
SWIDTH 250 0
DWIDTH 8 0
BBX 1 1 0 0
BITMAP
00
ENDCHAR
STARTCHAR uni2009
ENCODING 8201
SWIDTH 125 0
DWIDTH 4 0
BBX 1 1 0 0
BITMAP
00
ENDCHAR
STARTCHAR uni200A
ENCODING 8202
SWIDTH 62 0
DWIDTH 2 0
BBX 1 1 0 0
BITMAP
00
ENDCHAR
STARTCHAR uni2010
ENCODING 8208
SWIDTH 500 0
DWIDTH 16 0
BBX 14 4 1 6
BITMAP
FFFC
FFFC
FFFC
FFFC
ENDCHAR
STARTCHAR uni2011
ENCODING 8209
SWIDTH 500 0
DWIDTH 16 0
BBX 14 4 1 6
BITMAP
FFFC
FFFC
FFFC
FFFC
ENDCHAR
STARTCHAR uni2012
ENCODING 8210
SWIDTH 500 0
DWIDTH 16 0
BBX 14 4 1 6
BITMAP
FFFC
FFFC
FFFC
FFFC
ENDCHAR
STARTCHAR uni2013
ENCODING 8211
SWIDTH 500 0
DWIDTH 16 0
BBX 14 4 1 9
BITMAP
FFFC
FFFC
FFFC
FFFC
ENDCHAR
STARTCHAR uni2014
ENCODING 8212
SWIDTH 500 0
DWIDTH 16 0
BBX 14 4 1 9
BITMAP
FFFC
FFFC
FFFC
FFFC
ENDCHAR
STARTCHAR uni2015
ENCODING 8213
SWIDTH 500 0
DWIDTH 16 0
BBX 16 4 0 9
BITMAP
FFFF
FFFF
FFFF
FFFF
ENDCHAR
STARTCHAR uni2016
ENCODING 8214
SWIDTH 500 0
DWIDTH 16 0
BBX 6 22 5 0
BITMAP
CC
CC
CC
CC
CC
CC
CC
CC
CC
CC
CC
CC
CC
CC
CC
CC
CC
CC
CC
CC
CC
CC
ENDCHAR
STARTCHAR uni2017
ENCODING 8215
SWIDTH 500 0
DWIDTH 16 0
BBX 14 6 1 0
BITMAP
FFFC
FFFC
0000
0000
FFFC
FFFC
ENDCHAR
STARTCHAR uni2018
ENCODING 8216
SWIDTH 250 0
DWIDTH 8 0
BBX 4 8 2 14
BITMAP
30
70
E0
C0
F0
F0
F0
F0
ENDCHAR
STARTCHAR uni2019
ENCODING 8217
SWIDTH 250 0
DWIDTH 8 0
BBX 4 8 2 14
BITMAP
F0
F0
F0
F0
30
70
E0
C0
ENDCHAR
STARTCHAR uni201A
ENCODING 8218
SWIDTH 250 0
DWIDTH 8 0
BBX 4 8 2 -4
BITMAP
F0
F0
F0
F0
30
70
E0
C0
ENDCHAR
STARTCHAR uni201B
ENCODING 8219
SWIDTH 250 0
DWIDTH 8 0
BBX 4 8 2 14
BITMAP
F0
F0
F0
F0
C0
E0
70
30
ENDCHAR
STARTCHAR uni201C
ENCODING 8220
SWIDTH 500 0
DWIDTH 16 0
BBX 10 8 3 14
BITMAP
30C0
71C0
E380
C300
F3C0
F3C0
F3C0
F3C0
ENDCHAR
STARTCHAR uni201D
ENCODING 8221
SWIDTH 500 0
DWIDTH 16 0
BBX 10 8 3 14
BITMAP
F3C0
F3C0
F3C0
F3C0
30C0
71C0
E380
C300
ENDCHAR
STARTCHAR uni201E
ENCODING 8222
SWIDTH 500 0
DWIDTH 16 0
BBX 10 8 3 -4
BITMAP
F3C0
F3C0
F3C0
F3C0
30C0
71C0
E380
C300
ENDCHAR
STARTCHAR uni201F
ENCODING 8223
SWIDTH 500 0
DWIDTH 16 0
BBX 10 8 3 14
BITMAP
F3C0
F3C0
F3C0
F3C0
C300
E380
71C0
30C0
ENDCHAR
STARTCHAR uni2020
ENCODING 8224
SWIDTH 500 0
DWIDTH 16 0
BBX 14 22 1 0
BITMAP
0780
0780
0780
0780
FFFC
FFFC
FFFC
FFFC
0780
0780
0780
0780
0780
0780
0780
0780
0780
0780
0780
0780
0780
0780
ENDCHAR
STARTCHAR uni2021
ENCODING 8225
SWIDTH 500 0
DWIDTH 16 0
BBX 14 28 1 -6
BITMAP
0780
0780
0780
0780
FFFC
FFFC
FFFC
FFFC
0780
0780
0780
0780
0780
0780
0780
0780
0780
0780
0780
0780
FFFC
FFFC
FFFC
FFFC
0780
0780
0780
0780
ENDCHAR
STARTCHAR uni2022
ENCODING 8226
SWIDTH 500 0
DWIDTH 16 0
BBX 6 6 5 8
BITMAP
78
FC
FC
FC
FC
78
ENDCHAR
STARTCHAR uni2023
ENCODING 8227
SWIDTH 500 0
DWIDTH 16 0
BBX 4 8 6 7
BITMAP
80
C0
E0
F0
F0
E0
C0
80
ENDCHAR
STARTCHAR uni2024
ENCODING 8228
SWIDTH 500 0
DWIDTH 16 0
BBX 4 4 6 0
BITMAP
F0
F0
F0
F0
ENDCHAR
STARTCHAR uni2025
ENCODING 8229
SWIDTH 500 0
DWIDTH 16 0
BBX 12 4 2 0
BITMAP
F0F0
F0F0
F0F0
F0F0
ENDCHAR
STARTCHAR uni2026
ENCODING 8230
SWIDTH 500 0
DWIDTH 16 0
BBX 14 4 1 0
BITMAP
F7BC
F7BC
F7BC
F7BC
ENDCHAR
STARTCHAR uni202F
ENCODING 8239
SWIDTH 250 0
DWIDTH 8 0
BBX 1 1 0 0
BITMAP
00
ENDCHAR
STARTCHAR uni2030
ENCODING 8240
SWIDTH 500 0
DWIDTH 16 0
BBX 15 22 0 0
BITMAP
3838
7C38
7C70
6C70
6CE0
6CE0
6DC0
7DC0
7F80
3F80
0700
0700
0FDC
0FFE
1FFE
1F76
3B76
3B76
7376
73FE
E3FE
E1DC
ENDCHAR
STARTCHAR uni2032
ENCODING 8242
SWIDTH 250 0
DWIDTH 8 0
BBX 4 6 2 16
BITMAP
F0
F0
F0
F0
E0
C0
ENDCHAR
STARTCHAR uni2033
ENCODING 8243
SWIDTH 500 0
DWIDTH 16 0
BBX 10 6 3 16
BITMAP
F3C0
F3C0
F3C0
F3C0
E380
C300
ENDCHAR
STARTCHAR uni2034
ENCODING 8244
SWIDTH 500 0
DWIDTH 16 0
BBX 14 6 1 16
BITMAP
F7BC
F7BC
F7BC
F7BC
E738
C630
ENDCHAR
STARTCHAR uni2039
ENCODING 8249
SWIDTH 500 0
DWIDTH 16 0
BBX 14 16 1 3
BITMAP
000C
003C
00FC
03FC
0FF0
3FC0
FF00
FC00
FC00
FF00
3FC0
0FF0
03FC
00FC
003C
000C
ENDCHAR
STARTCHAR uni203A
ENCODING 8250
SWIDTH 500 0
DWIDTH 16 0
BBX 14 16 1 3
BITMAP
C000
F000
FC00
FF00
3FC0
0FF0
03FC
00FC
00FC
03FC
0FF0
3FC0
FF00
FC00
F000
C000
ENDCHAR
STARTCHAR uni203B
ENCODING 8251
SWIDTH 500 0
DWIDTH 16 0
BBX 14 14 1 4
BITMAP
C30C
E31C
7038
3870
1CE0
0FC0
C78C
C78C
0FC0
1CE0
3870
7038
E31C
C30C
ENDCHAR
STARTCHAR uni203C
ENCODING 8252
SWIDTH 500 0
DWIDTH 16 0
BBX 10 22 3 0
BITMAP
F3C0
F3C0
F3C0
F3C0
F3C0
F3C0
F3C0
F3C0
F3C0
F3C0
F3C0
F3C0
F3C0
F3C0
F3C0
F3C0
0000
0000
F3C0
F3C0
F3C0
F3C0
ENDCHAR
STARTCHAR uni2044
ENCODING 8260
SWIDTH 500 0
DWIDTH 16 0
BBX 14 14 1 4
BITMAP
000C
001C
0038
0070
00E0
01C0
0380
0700
0E00
1C00
3800
7000
E000
C000
ENDCHAR
STARTCHAR uni2047
ENCODING 8263
SWIDTH 500 0
DWIDTH 16 0
BBX 14 22 1 0
BITMAP
F9F0
FDF8
FFFC
FFFC
1E3C
1E3C
1E3C
1E3C
1E3C
1E3C
3E7C
7CF8
78F0
78F0
78F0
78F0
0000
0000
78F0
78F0
78F0
78F0
ENDCHAR
STARTCHAR uni2048
ENCODING 8264
SWIDTH 500 0
DWIDTH 16 0
BBX 14 22 1 0
BITMAP
FC3C
FE3C
FF3C
FF3C
0F3C
0F3C
0F3C
0F3C
0F3C
0F3C
1F3C
3E3C
3C3C
3C3C
3C3C
3C3C
0000
0000
3C3C
3C3C
3C3C
3C3C
ENDCHAR
STARTCHAR uni2049
ENCODING 8265
SWIDTH 500 0
DWIDTH 16 0
BBX 14 22 1 0
BITMAP
F3F0
F3F8
F3FC
F3FC
F03C
F03C
F03C
F03C
F03C
F03C
F07C
F0F8
F0F0
F0F0
F0F0
F0F0
0000
0000
F0F0
F0F0
F0F0
F0F0
ENDCHAR
STARTCHAR uni20AC
ENCODING 8364
SWIDTH 500 0
DWIDTH 16 0
BBX 14 22 1 0
BITMAP
0FF0
1FF8
3FFC
3FFC
3C3C
3C3C
FFC0
FFC0
FFC0
FFC0
3C00
3C00
FFC0
FFC0
FFC0
FFC0
3C3C
3C3C
3FFC
3FFC
1FF8
0FF0
ENDCHAR
STARTCHAR uni20BD
ENCODING 8381
SWIDTH 500 0
DWIDTH 16 0
BBX 14 22 1 0
BITMAP
3FF0
3FF8
3FFC
3FFC
3C3C
3C3C
3C3C
3C3C
3C3C
FFFC
FFFC
FFF8
FFF0
3C00
3C00
FFC0
FFC0
FFC0
FFC0
3C00
3C00
3C00
ENDCHAR
STARTCHAR uni2103
ENCODING 8451
SWIDTH 500 0
DWIDTH 16 0
BBX 14 22 1 0
BITMAP
79F0
FFF8
CFFC
CFFC
FFBC
7FBC
0780
0780
0780
0780
0780
0780
0780
0780
0780
0780
07BC
07BC
07FC
07FC
03F8
01F0
ENDCHAR
STARTCHAR uni2109
ENCODING 8457
SWIDTH 500 0
DWIDTH 16 0
BBX 14 22 1 0
BITMAP
7FFC
FFFC
CFFC
CFFC
FF80
7F80
0780
0780
0780
07FC
07FC
07FC
07FC
0780
0780
0780
0780
0780
0780
0780
0780
0780
ENDCHAR
STARTCHAR uni2113
ENCODING 8467
SWIDTH 500 0
DWIDTH 16 0
BBX 14 22 1 0
BITMAP
0FC0
1FE0
3FF0
3FF0
3CF0
3CF0
3CF0
3CF0
3CF0
3CF0
3CF0
3CF0
3CF0
3CF0
3CF0
3FF0
1FE0
1FE0
FFFC
FFFC
FCFC
F87C
ENDCHAR
STARTCHAR uni2116
ENCODING 8470
SWIDTH 500 0
DWIDTH 16 0
BBX 14 13 1 0
BITMAP
C678
C6FC
E6CC
E6CC
F6CC
F6CC
FECC
DECC
DEFC
CE78
CE00
C6FC
C6FC
ENDCHAR
STARTCHAR uni2120
ENCODING 8480
SWIDTH 500 0
DWIDTH 16 0
BBX 14 8 1 13
BITMAP
7D8C
FDDC
C1FC
F9FC
7DAC
0D8C
FD8C
F98C
ENDCHAR
STARTCHAR uni2121
ENCODING 8481
SWIDTH 500 0
DWIDTH 16 0
BBX 14 18 1 0
BITMAP
FC00
FC00
3000
3000
3000
37B0
37B0
3630
3630
3630
37B0
37B0
3630
3630
3630
3630
37BC
37BC
ENDCHAR
STARTCHAR uni2122
ENCODING 8482
SWIDTH 500 0
DWIDTH 16 0
BBX 14 8 1 13
BITMAP
FD8C
FDDC
31FC
31FC
31AC
318C
318C
318C
ENDCHAR
STARTCHAR uni2126
ENCODING 8486
SWIDTH 500 0
DWIDTH 16 0
BBX 14 22 1 0
BITMAP
3FF0
7FF8
FFFC
FFFC
F03C
F03C
F03C
F03C
F03C
F03C
F03C
F03C
F03C
FCFC
7CF8
3CF0
3CF0
3CF0
FCFC
FCFC
FCFC
FCFC
ENDCHAR
STARTCHAR uni212B
ENCODING 8491
SWIDTH 500 0
DWIDTH 16 0
BBX 14 26 1 0
BITMAP
0780
0FC0
0CC0
0CC0
3FF0
7FF8
FFFC
FFFC
F03C
F03C
F03C
F03C
F03C
FFFC
FFFC
FFFC
FFFC
F03C
F03C
F03C
F03C
F03C
F03C
F03C
F03C
F03C
ENDCHAR
STARTCHAR uni2160
ENCODING 8544
SWIDTH 500 0
DWIDTH 16 0
BBX 12 22 2 0
BITMAP
FFF0
FFF0
FFF0
FFF0
0F00
0F00
0F00
0F00
0F00
0F00
0F00
0F00
0F00
0F00
0F00
0F00
0F00
0F00
FFF0
FFF0
FFF0
FFF0
ENDCHAR
STARTCHAR uni2161
ENCODING 8545
SWIDTH 500 0
DWIDTH 16 0
BBX 16 22 0 0
BITMAP
FFFF
FFFF
FFFF
FFFF
1E78
1E78
1E78
1E78
1E78
1E78
1E78
1E78
1E78
1E78
1E78
1E78
1E78
1E78
FFFF
FFFF
FFFF
FFFF
ENDCHAR
STARTCHAR uni2162
ENCODING 8546
SWIDTH 500 0
DWIDTH 16 0
BBX 16 22 0 0
BITMAP
FFFF
FFFF
FFFF
FFFF
7BDE
7BDE
7BDE
7BDE
7BDE
7BDE
7BDE
7BDE
7BDE
7BDE
7BDE
7BDE
7BDE
7BDE
FFFF
FFFF
FFFF
FFFF
ENDCHAR
STARTCHAR uni2163
ENCODING 8547
SWIDTH 1000 0
DWIDTH 32 0
BBX 30 22 2 0
BITMAP
FFF3F9FC
FFF3F9FC
FFF3F9FC
FFF3F9FC
0F00F0F0
0F00F0F0
0F00F0F0
0F0079E0
0F0079E0
0F0079E0
0F0079E0
0F003FC0
0F003FC0
0F003FC0
0F003FC0
0F001F80
0F001F80
0F001F80
FFF01F80
FFF00F00
FFF00F00
FFF00F00
ENDCHAR
STARTCHAR uni2164
ENCODING 8548
SWIDTH 500 0
DWIDTH 16 0
BBX 16 22 0 0
BITMAP
FE7F
FE7F
FE7F
FE7F
3C3C
3C3C
3C3C
1E78
1E78
1E78
1E78
0FF0
0FF0
0FF0
0FF0
07E0
07E0
07E0
07E0
03C0
03C0
03C0
ENDCHAR
STARTCHAR uni2165
ENCODING 8549
SWIDTH 1000 0
DWIDTH 32 0
BBX 30 22 0 0
BITMAP
FE7F3FFC
FE7F3FFC
FE7F3FFC
FE7F3FFC
3C3C03C0
3C3C03C0
3C3C03C0
1E7803C0
1E7803C0
1E7803C0
1E7803C0
0FF003C0
0FF003C0
0FF003C0
0FF003C0
07E003C0
07E003C0
07E003C0
07E03FFC
03C03FFC
03C03FFC
03C03FFC
ENDCHAR
STARTCHAR uni2166
ENCODING 8550
SWIDTH 1000 0
DWIDTH 32 0
BBX 32 22 0 0
BITMAP
FE7FFFFF
FE7FFFFF
FE7FFFFF
FE7FFFFF
3C3C1E78
3C3C1E78
3C3C1E78
1E781E78
1E781E78
1E781E78
1E781E78
0FF01E78
0FF01E78
0FF01E78
0FF01E78
07E01E78
07E01E78
07E01E78
07E0FFFF
03C0FFFF
03C0FFFF
03C0FFFF
ENDCHAR
STARTCHAR uni2167
ENCODING 8551
SWIDTH 1000 0
DWIDTH 32 0
BBX 32 22 0 0
BITMAP
FE7FFFFF
FE7FFFFF
FE7FFFFF
FE7FFFFF
3C3C7BDE
3C3C7BDE
3C3C7BDE
1E787BDE
1E787BDE
1E787BDE
1E787BDE
0FF07BDE
0FF07BDE
0FF07BDE
0FF07BDE
07E07BDE
07E07BDE
07E07BDE
07E0FFFF
03C0FFFF
03C0FFFF
03C0FFFF
ENDCHAR
STARTCHAR uni2168
ENCODING 8552
SWIDTH 1000 0
DWIDTH 32 0
BBX 30 22 2 0
BITMAP
FFF3F9FC
FFF3F9FC
FFF3F9FC
FFF3F9FC
0F00F0F0
0F00F0F0
0F0079E0
0F0079E0
0F003FC0
0F003FC0
0F001F80
0F001F80
0F003FC0
0F003FC0
0F0079E0
0F0079E0
0F00F0F0
0F00F0F0
FFF3F9FC
FFF3F9FC
FFF3F9FC
FFF3F9FC
ENDCHAR
STARTCHAR uni2169
ENCODING 8553
SWIDTH 500 0
DWIDTH 16 0
BBX 16 22 0 0
BITMAP
FE7F
FE7F
FE7F
FE7F
3C3C
3C3C
1E78
1E78
0FF0
0FF0
07E0
07E0
0FF0
0FF0
1E78
1E78
3C3C
3C3C
FE7F
FE7F
FE7F
FE7F
ENDCHAR
STARTCHAR uni216A
ENCODING 8554
SWIDTH 1000 0
DWIDTH 32 0
BBX 30 22 0 0
BITMAP
FE7F3FFC
FE7F3FFC
FE7F3FFC
FE7F3FFC
3C3C03C0
3C3C03C0
1E7803C0
1E7803C0
0FF003C0
0FF003C0
07E003C0
07E003C0
0FF003C0
0FF003C0
1E7803C0
1E7803C0
3C3C03C0
3C3C03C0
FE7F3FFC
FE7F3FFC
FE7F3FFC
FE7F3FFC
ENDCHAR
STARTCHAR uni216B
ENCODING 8555
SWIDTH 1000 0
DWIDTH 32 0
BBX 32 22 0 0
BITMAP
FE7FFFFF
FE7FFFFF
FE7FFFFF
FE7FFFFF
3C3C1E78
3C3C1E78
1E781E78
1E781E78
0FF01E78
0FF01E78
07E01E78
07E01E78
0FF01E78
0FF01E78
1E781E78
1E781E78
3C3C1E78
3C3C1E78
FE7FFFFF
FE7FFFFF
FE7FFFFF
FE7FFFFF
ENDCHAR
STARTCHAR uni2170
ENCODING 8560
SWIDTH 500 0
DWIDTH 16 0
BBX 12 22 2 0
BITMAP
0F00
0F00
0F00
0F00
0000
0000
FF00
FF00
FF00
FF00
0F00
0F00
0F00
0F00
0F00
0F00
0F00
0F00
FFF0
FFF0
FFF0
FFF0
ENDCHAR
STARTCHAR uni2171
ENCODING 8561
SWIDTH 500 0
DWIDTH 16 0
BBX 16 22 0 0
BITMAP
1E78
1E78
1E78
1E78
0000
0000
FFF8
FFF8
FFF8
FFF8
1E78
1E78
1E78
1E78
1E78
1E78
1E78
1E78
FFFF
FFFF
FFFF
FFFF
ENDCHAR
STARTCHAR uni2172
ENCODING 8562
SWIDTH 500 0
DWIDTH 16 0
BBX 16 22 0 0
BITMAP
7BDE
7BDE
7BDE
7BDE
0000
0000
FFFE
FFFE
FFFE
FFFE
7BDE
7BDE
7BDE
7BDE
7BDE
7BDE
7BDE
7BDE
FFFF
FFFF
FFFF
FFFF
ENDCHAR
STARTCHAR uni2173
ENCODING 8563
SWIDTH 1000 0
DWIDTH 32 0
BBX 30 22 2 0
BITMAP
0F000000
0F000000
0F000000
0F000000
00000000
00000000
FF03F9FC
FF03F9FC
FF03F9FC
FF03F9FC
0F00F0F0
0F00F0F0
0F00F0F0
0F0079E0
0F0079E0
0F0079E0
0F003FC0
0F003FC0
FFF03FC0
FFF01F80
FFF01F80
FFF01F80
ENDCHAR
STARTCHAR uni2174
ENCODING 8564
SWIDTH 500 0
DWIDTH 16 0
BBX 16 16 0 0
BITMAP
FE7F
FE7F
FE7F
FE7F
3C3C
3C3C
3C3C
1E78
1E78
1E78
0FF0
0FF0
0FF0
07E0
07E0
07E0
ENDCHAR
STARTCHAR uni2175
ENCODING 8565
SWIDTH 1000 0
DWIDTH 32 0
BBX 30 22 0 0
BITMAP
000003C0
000003C0
000003C0
000003C0
00000000
00000000
FE7F3FC0
FE7F3FC0
FE7F3FC0
FE7F3FC0
3C3C03C0
3C3C03C0
3C3C03C0
1E7803C0
1E7803C0
1E7803C0
0FF003C0
0FF003C0
0FF03FFC
07E03FFC
07E03FFC
07E03FFC
ENDCHAR
STARTCHAR uni2176
ENCODING 8566
SWIDTH 1000 0
DWIDTH 32 0
BBX 32 22 0 0
BITMAP
00001E78
00001E78
00001E78
00001E78
00000000
00000000
FE7FFFF8
FE7FFFF8
FE7FFFF8
FE7FFFF8
3C3C1E78
3C3C1E78
3C3C1E78
1E781E78
1E781E78
1E781E78
0FF01E78
0FF01E78
0FF0FFFF
07E0FFFF
07E0FFFF
07E0FFFF
ENDCHAR
STARTCHAR uni2177
ENCODING 8567
SWIDTH 1000 0
DWIDTH 32 0
BBX 32 22 0 0
BITMAP
00007BDE
00007BDE
00007BDE
00007BDE
00000000
00000000
FE7FFFFE
FE7FFFFE
FE7FFFFE
FE7FFFFE
3C3C7BDE
3C3C7BDE
3C3C7BDE
1E787BDE
1E787BDE
1E787BDE
0FF07BDE
0FF07BDE
0FF0FFFF
07E0FFFF
07E0FFFF
07E0FFFF
ENDCHAR
STARTCHAR uni2178
ENCODING 8568
SWIDTH 1000 0
DWIDTH 32 0
BBX 30 22 2 0
BITMAP
0F000000
0F000000
0F000000
0F000000
00000000
00000000
FF03F9FC
FF03F9FC
FF03F9FC
FF03F9FC
0F01F0F8
0F00F9F0
0F007FE0
0F003FC0
0F003FC0
0F007FE0
0F00F9F0
0F01F0F8
FFF3F9FC
FFF3F9FC
FFF3F9FC
FFF3F9FC
ENDCHAR
STARTCHAR uni2179
ENCODING 8569
SWIDTH 500 0
DWIDTH 16 0
BBX 16 16 0 0
BITMAP
FE7F
FE7F
FE7F
FE7F
7C3E
3E7C
1FF8
0FF0
0FF0
1FF8
3E7C
7C3E
FE7F
FE7F
FE7F
FE7F
ENDCHAR
STARTCHAR uni217A
ENCODING 8570
SWIDTH 1000 0
DWIDTH 32 0
BBX 30 22 0 0
BITMAP
000003C0
000003C0
000003C0
000003C0
00000000
00000000
FE7F3FC0
FE7F3FC0
FE7F3FC0
FE7F3FC0
7C3E03C0
3E7C03C0
1FF803C0
0FF003C0
0FF003C0
1FF803C0
3E7C03C0
7C3E03C0
FE7F3FFC
FE7F3FFC
FE7F3FFC
FE7F3FFC
ENDCHAR
STARTCHAR uni217B
ENCODING 8571
SWIDTH 1000 0
DWIDTH 32 0
BBX 32 22 0 0
BITMAP
00001E78
00001E78
00001E78
00001E78
00000000
00000000
FE7FFFF8
FE7FFFF8
FE7FFFF8
FE7FFFF8
7C3E1E78
3E7C1E78
1FF81E78
0FF01E78
0FF01E78
1FF81E78
3E7C1E78
7C3E1E78
FE7FFFFF
FE7FFFFF
FE7FFFFF
FE7FFFFF
ENDCHAR
STARTCHAR uni2190
ENCODING 8592
SWIDTH 500 0
DWIDTH 16 0
BBX 14 12 1 5
BITMAP
0600
0E00
1E00
3E00
7FFC
FFFC
FFFC
7FFC
3E00
1E00
0E00
0600
ENDCHAR
STARTCHAR uni2191
ENCODING 8593
SWIDTH 500 0
DWIDTH 16 0
BBX 12 14 2 5
BITMAP
0600
0F00
1F80
3FC0
7FE0
FFF0
FFF0
0F00
0F00
0F00
0F00
0F00
0F00
0F00
ENDCHAR
STARTCHAR uni2192
ENCODING 8594
SWIDTH 500 0
DWIDTH 16 0
BBX 14 12 1 5
BITMAP
0180
01C0
01E0
01F0
FFF8
FFFC
FFFC
FFF8
01F0
01E0
01C0
0180
ENDCHAR
STARTCHAR uni2193
ENCODING 8595
SWIDTH 500 0
DWIDTH 16 0
BBX 12 14 2 2
BITMAP
0F00
0F00
0F00
0F00
0F00
0F00
0F00
FFF0
FFF0
7FE0
3FC0
1F80
0F00
0600
ENDCHAR
STARTCHAR uni2194
ENCODING 8596
SWIDTH 500 0
DWIDTH 16 0
BBX 14 8 1 7
BITMAP
1860
3870
7FF8
FFFC
FFFC
7FF8
3870
1860
ENDCHAR
STARTCHAR uni2195
ENCODING 8597
SWIDTH 500 0
DWIDTH 16 0
BBX 8 14 4 4
BITMAP
18
3C
7E
FF
FF
3C
3C
3C
3C
FF
FF
7E
3C
18
ENDCHAR
STARTCHAR uni2196
ENCODING 8598
SWIDTH 500 0
DWIDTH 16 0
BBX 12 12 2 5
BITMAP
FF00
FF00
FE00
FC00
FE00
FF00
EF80
C7C0
03E0
01F0
00E0
0040
ENDCHAR
STARTCHAR uni2197
ENCODING 8599
SWIDTH 500 0
DWIDTH 16 0
BBX 12 12 2 5
BITMAP
0FF0
0FF0
07F0
03F0
07F0
0FF0
1F70
3E30
7C00
F800
7000
2000
ENDCHAR
STARTCHAR uni2198
ENCODING 8600
SWIDTH 500 0
DWIDTH 16 0
BBX 12 12 2 5
BITMAP
2000
7000
F800
7C00
3E30
1F70
0FF0
07F0
03F0
07F0
0FF0
0FF0
ENDCHAR
STARTCHAR uni2199
ENCODING 8601
SWIDTH 500 0
DWIDTH 16 0
BBX 12 12 2 5
BITMAP
0040
00E0
01F0
03E0
C7C0
EF80
FF00
FE00
FC00
FE00
FF00
FF00
ENDCHAR
STARTCHAR uni21D0
ENCODING 8656
SWIDTH 500 0
DWIDTH 16 0
BBX 14 12 1 5
BITMAP
0700
0F00
1F00
3BFC
73FC
E00C
E00C
73FC
3BFC
1F00
0F00
0700
ENDCHAR
STARTCHAR uni21D1
ENCODING 8657
SWIDTH 500 0
DWIDTH 16 0
BBX 12 14 2 4
BITMAP
0600
0F00
1F80
39C0
70E0
E070
F9F0
F9F0
1980
1980
1980
1980
1F80
1F80
ENDCHAR
STARTCHAR uni21D2
ENCODING 8658
SWIDTH 500 0
DWIDTH 16 0
BBX 14 12 1 5
BITMAP
0380
03C0
03E0
FF70
FF38
C01C
C01C
FF38
FF70
03E0
03C0
0380
ENDCHAR
STARTCHAR uni21D3
ENCODING 8659
SWIDTH 500 0
DWIDTH 16 0
BBX 12 14 2 4
BITMAP
1F80
1F80
1980
1980
1980
1980
F9F0
F9F0
E070
70E0
39C0
1F80
0F00
0600
ENDCHAR
STARTCHAR uni21D4
ENCODING 8660
SWIDTH 500 0
DWIDTH 16 0
BBX 16 10 0 6
BITMAP
0C30
1C38
3FFC
77EE
E007
E007
77EE
3FFC
1C38
0C30
ENDCHAR
STARTCHAR uni21D5
ENCODING 8661
SWIDTH 500 0
DWIDTH 16 0
BBX 10 16 3 3
BITMAP
0C00
1E00
3F00
7380
E1C0
F3C0
3300
3300
3300
3300
F3C0
E1C0
7380
3F00
1E00
0C00
ENDCHAR
STARTCHAR uni21D6
ENCODING 8662
SWIDTH 500 0
DWIDTH 16 0
BBX 13 13 2 4
BITMAP
FF80
FF80
C300
C700
C380
D1C0
F8E0
FC70
CE38
0738
03F0
01E0
00C0
ENDCHAR
STARTCHAR uni21D7
ENCODING 8663
SWIDTH 500 0
DWIDTH 16 0
BBX 13 13 1 4
BITMAP
0FF8
0FF8
0618
0718
0E18
1C58
38F8
71F8
E398
E700
7E00
3C00
1800
ENDCHAR
STARTCHAR uni21D8
ENCODING 8664
SWIDTH 500 0
DWIDTH 16 0
BBX 13 13 1 5
BITMAP
1800
3C00
7E00
E700
E398
71F8
38F8
1C58
0E18
0718
0618
0FF8
0FF8
ENDCHAR
STARTCHAR uni21D9
ENCODING 8665
SWIDTH 500 0
DWIDTH 16 0
BBX 13 13 2 5
BITMAP
00C0
01E0
03F0
0738
CE38
FC70
F8E0
D1C0
C380
C700
C300
FF80
FF80
ENDCHAR
STARTCHAR uni2200
ENCODING 8704
SWIDTH 500 0
DWIDTH 16 0
BBX 14 22 1 0
BITMAP
F03C
F03C
F03C
F03C
F03C
F03C
F03C
F03C
F03C
FFFC
FFFC
FFFC
FFFC
F03C
F03C
F03C
F03C
F03C
FFFC
FFFC
7FF8
3FF0
ENDCHAR
STARTCHAR uni2202
ENCODING 8706
SWIDTH 500 0
DWIDTH 16 0
BBX 14 22 1 0
BITMAP
0FF0
0FF8
0FFC
0FFC
003C
003C
003C
003C
003C
3FFC
7FFC
FFFC
FFFC
F03C
F03C
F03C
F03C
F03C
FFFC
FFFC
7FF8
3FF0
ENDCHAR
STARTCHAR uni2203
ENCODING 8707
SWIDTH 500 0
DWIDTH 16 0
BBX 14 22 1 0
BITMAP
FFFC
FFFC
FFFC
FFFC
003C
003C
003C
003C
003C
FFFC
FFFC
FFFC
FFFC
003C
003C
003C
003C
003C
FFFC
FFFC
FFFC
FFFC
ENDCHAR
STARTCHAR uni2206
ENCODING 8710
SWIDTH 500 0
DWIDTH 16 0
BBX 14 22 1 0
BITMAP
0300
0300
0300
0780
0780
0780
0FC0
0FC0
0FC0
1FE0
1FE0
1FE0
3CF0
3CF0
3CF0
7878
7878
7878
FFFC
FFFC
FFFC
FFFC
ENDCHAR
STARTCHAR uni2207
ENCODING 8711
SWIDTH 500 0
DWIDTH 16 0
BBX 14 22 1 0
BITMAP
FFFC
FFFC
FFFC
FFFC
7878
7878
7878
3CF0
3CF0
3CF0
1FE0
1FE0
1FE0
0FC0
0FC0
0FC0
0780
0780
0780
0300
0300
0300
ENDCHAR
STARTCHAR uni2208
ENCODING 8712
SWIDTH 500 0
DWIDTH 16 0
BBX 14 22 1 0
BITMAP
07FC
1FFC
3FFC
7FFC
7C00
F800
F000
F000
F000
FFFC
FFFC
FFFC
FFFC
F000
F000
F000
F800
7C00
7FFC
3FFC
1FFC
07FC
ENDCHAR
STARTCHAR uni220B
ENCODING 8715
SWIDTH 500 0
DWIDTH 16 0
BBX 14 22 1 0
BITMAP
FF80
FFE0
FFF0
FFF8
00F8
007C
003C
003C
003C
FFFC
FFFC
FFFC
FFFC
003C
003C
003C
007C
00F8
FFF8
FFF0
FFE0
FF80
ENDCHAR
STARTCHAR uni220F
ENCODING 8719
SWIDTH 500 0
DWIDTH 16 0
BBX 14 22 1 0
BITMAP
FFFC
FFFC
FFFC
FFFC
F03C
F03C
F03C
F03C
F03C
F03C
F03C
F03C
F03C
F03C
F03C
F03C
F03C
F03C
F03C
F03C
F03C
F03C
ENDCHAR
STARTCHAR uni2211
ENCODING 8721
SWIDTH 500 0
DWIDTH 16 0
BBX 14 22 1 0
BITMAP
FFFC
FFFC
FFFC
FFFC
F83C
7C3C
3E00
1F00
0F80
07C0
03E0
03E0
07C0
0F80
1F00
3E00
7C3C
F83C
FFFC
FFFC
FFFC
FFFC
ENDCHAR
STARTCHAR uni2212
ENCODING 8722
SWIDTH 500 0
DWIDTH 16 0
BBX 14 4 1 9
BITMAP
FFFC
FFFC
FFFC
FFFC
ENDCHAR
STARTCHAR uni2217
ENCODING 8727
SWIDTH 500 0
DWIDTH 16 0
BBX 12 16 2 3
BITMAP
0F00
0F00
CF30
EF70
FFF0
FFF0
7FE0
3FC0
3FC0
7FE0
FFF0
FFF0
EF70
CF30
0F00
0F00
ENDCHAR
STARTCHAR uni2218
ENCODING 8728
SWIDTH 500 0
DWIDTH 16 0
BBX 8 8 4 7
BITMAP
3C
7E
E7
C3
C3
E7
7E
3C
ENDCHAR
STARTCHAR uni2219
ENCODING 8729
SWIDTH 500 0
DWIDTH 16 0
BBX 8 8 4 7
BITMAP
3C
7E
FF
FF
FF
FF
7E
3C
ENDCHAR
STARTCHAR uni221A
ENCODING 8730
SWIDTH 500 0
DWIDTH 16 0
BBX 16 22 0 0
BITMAP
000F
000F
001F
001F
003C
003C
0078
0078
00F0
00F0
01E0
01E0
F3C0
F3C0
FF80
FF80
3F00
3F00
1E00
1E00
0C00
0C00
ENDCHAR
STARTCHAR uni221D
ENCODING 8733
SWIDTH 500 0
DWIDTH 16 0
BBX 14 8 1 7
BITMAP
7878
FCFC
CFCC
C780
C780
CFCC
FCFC
7878
ENDCHAR
STARTCHAR uni221E
ENCODING 8734
SWIDTH 500 0
DWIDTH 16 0
BBX 14 8 1 7
BITMAP
7878
FCFC
CFCC
C78C
C78C
CFCC
FCFC
7878
ENDCHAR
STARTCHAR uni221F
ENCODING 8735
SWIDTH 500 0
DWIDTH 16 0
BBX 14 22 1 0
BITMAP
F000
F000
F000
F000
F000
F000
F000
F000
F000
F000
F000
F000
F000
F000
F000
F000
F000
F000
FFFC
FFFC
FFFC
FFFC
ENDCHAR
STARTCHAR uni2220
ENCODING 8736
SWIDTH 500 0
DWIDTH 16 0
BBX 14 22 1 0
BITMAP
003C
003C
0078
0078
00F0
00F0
01E0
01E0
03C0
03C0
0780
0780
0F00
0F00
1E00
1E00
3C00
3C00
7FFC
7FFC
FFFC
FFFC
ENDCHAR
STARTCHAR uni2225
ENCODING 8741
SWIDTH 500 0
DWIDTH 16 0
BBX 10 22 3 0
BITMAP
F3C0
F3C0
F3C0
F3C0
F3C0
F3C0
F3C0
F3C0
F3C0
F3C0
F3C0
F3C0
F3C0
F3C0
F3C0
F3C0
F3C0
F3C0
F3C0
F3C0
F3C0
F3C0
ENDCHAR
STARTCHAR uni2227
ENCODING 8743
SWIDTH 500 0
DWIDTH 16 0
BBX 14 22 1 0
BITMAP
0300
0300
0300
0780
0780
0780
0FC0
0FC0
0FC0
1FE0
1FE0
1FE0
3CF0
3CF0
3CF0
7878
7878
7878
F03C
F03C
F03C
F03C
ENDCHAR
STARTCHAR uni2228
ENCODING 8744
SWIDTH 500 0
DWIDTH 16 0
BBX 14 22 1 0
BITMAP
F03C
F03C
F03C
F03C
7878
7878
7878
3CF0
3CF0
3CF0
1FE0
1FE0
1FE0
0FC0
0FC0
0FC0
0780
0780
0780
0300
0300
0300
ENDCHAR
STARTCHAR uni2229
ENCODING 8745
SWIDTH 500 0
DWIDTH 16 0
BBX 14 22 1 0
BITMAP
3FF0
7FF8
FFFC
FFFC
F03C
F03C
F03C
F03C
F03C
F03C
F03C
F03C
F03C
F03C
F03C
F03C
F03C
F03C
F03C
F03C
F03C
F03C
ENDCHAR
STARTCHAR uni222A
ENCODING 8746
SWIDTH 500 0
DWIDTH 16 0
BBX 14 22 1 0
BITMAP
F03C
F03C
F03C
F03C
F03C
F03C
F03C
F03C
F03C
F03C
F03C
F03C
F03C
F03C
F03C
F03C
F03C
F03C
FFFC
FFFC
7FF8
3FF0
ENDCHAR
STARTCHAR uni222B
ENCODING 8747
SWIDTH 500 0
DWIDTH 16 0
BBX 14 28 1 -6
BITMAP
01FC
03FC
07FC
07FC
0780
0780
0780
0780
0780
0780
0780
0780
0780
0780
0780
0780
0780
0780
0780
0780
0780
0780
0780
0780
FF80
FF80
FF00
FE00
ENDCHAR
STARTCHAR uni222C
ENCODING 8748
SWIDTH 500 0
DWIDTH 16 0
BBX 14 28 1 -6
BITMAP
0E3C
1E7C
3EFC
3EFC
3CF0
3CF0
3CF0
3CF0
3CF0
3CF0
3CF0
3CF0
3CF0
3CF0
3CF0
3CF0
3CF0
3CF0
3CF0
3CF0
3CF0
3CF0
3CF0
3CF0
FDF0
FDF0
F9E0
F1C0
ENDCHAR
STARTCHAR uni222E
ENCODING 8750
SWIDTH 500 0
DWIDTH 16 0
BBX 14 28 1 -6
BITMAP
01FC
03FC
07FC
07FC
0780
0780
0780
0780
3FF0
7FF8
FFFC
FFFC
F7BC
F7BC
F7BC
F7BC
FFFC
FFFC
7FF8
3FF0
0780
0780
0780
0780
FF80
FF80
FF00
FE00
ENDCHAR
STARTCHAR uni2234
ENCODING 8756
SWIDTH 500 0
DWIDTH 16 0
BBX 14 14 1 4
BITMAP
0780
0780
0780
0780
0000
0000
0000
0000
0000
0000
F03C
F03C
F03C
F03C
ENDCHAR
STARTCHAR uni2235
ENCODING 8757
SWIDTH 500 0
DWIDTH 16 0
BBX 14 14 1 4
BITMAP
F03C
F03C
F03C
F03C
0000
0000
0000
0000
0000
0000
0780
0780
0780
0780
ENDCHAR
STARTCHAR uni2236
ENCODING 8758
SWIDTH 250 0
DWIDTH 8 0
BBX 4 14 2 4
BITMAP
F0
F0
F0
F0
00
00
00
00
00
00
F0
F0
F0
F0
ENDCHAR
STARTCHAR uni223D
ENCODING 8765
SWIDTH 500 0
DWIDTH 16 0
BBX 14 8 1 7
BITMAP
7878
FC7C
CE0C
C70C
C38C
C1CC
F8FC
7878
ENDCHAR
STARTCHAR uni2248
ENCODING 8776
SWIDTH 500 0
DWIDTH 16 0
BBX 14 14 1 4
BITMAP
3800
7C00
FF04
FF8C
C7FC
83FC
38F8
7C70
FF04
FF8C
C7FC
83FC
00F8
0070
ENDCHAR
STARTCHAR uni2252
ENCODING 8786
SWIDTH 500 0
DWIDTH 16 0
BBX 14 22 1 0
BITMAP
F000
F000
F000
F000
0000
0000
FFFC
FFFC
FFFC
FFFC
0000
0000
FFFC
FFFC
FFFC
FFFC
0000
0000
003C
003C
003C
003C
ENDCHAR
STARTCHAR uni2260
ENCODING 8800
SWIDTH 500 0
DWIDTH 16 0
BBX 14 22 1 0
BITMAP
003C
003C
0078
0078
00F0
00F0
FFFC
FFFC
FFFC
FFFC
0780
0780
FFFC
FFFC
FFFC
FFFC
3C00
3C00
7800
7800
F000
F000
ENDCHAR
STARTCHAR uni2261
ENCODING 8801
SWIDTH 500 0
DWIDTH 16 0
BBX 14 16 1 3
BITMAP
FFFC
FFFC
FFFC
FFFC
0000
0000
FFFC
FFFC
FFFC
FFFC
0000
0000
FFFC
FFFC
FFFC
FFFC
ENDCHAR
STARTCHAR uni2264
ENCODING 8804
SWIDTH 500 0
DWIDTH 16 0
BBX 14 22 1 0
BITMAP
000C
003C
00FC
03FC
0FF0
3FC0
FF00
FC00
FC00
FF00
3FC0
0FF0
03FC
00FC
003C
000C
0000
0000
FFFC
FFFC
FFFC
FFFC
ENDCHAR
STARTCHAR uni2265
ENCODING 8805
SWIDTH 500 0
DWIDTH 16 0
BBX 14 22 1 0
BITMAP
C000
F000
FC00
FF00
3FC0
0FF0
03FC
00FC
00FC
03FC
0FF0
3FC0
FF00
FC00
F000
C000
0000
0000
FFFC
FFFC
FFFC
FFFC
ENDCHAR
STARTCHAR uni2266
ENCODING 8806
SWIDTH 500 0
DWIDTH 16 0
BBX 14 22 1 0
BITMAP
000C
003C
00FC
03FC
0FF0
3FC0
FF00
FF00
3FC0
0FF0
03FC
00FC
003C
000C
0000
FFFC
FFFC
FFFC
0000
FFFC
FFFC
FFFC
ENDCHAR
STARTCHAR uni2267
ENCODING 8807
SWIDTH 500 0
DWIDTH 16 0
BBX 14 22 1 0
BITMAP
C000
F000
FC00
FF00
3FC0
0FF0
03FC
03FC
0FF0
3FC0
FF00
FC00
F000
C000
0000
FFFC
FFFC
FFFC
0000
FFFC
FFFC
FFFC
ENDCHAR
STARTCHAR uni226A
ENCODING 8810
SWIDTH 500 0
DWIDTH 16 0
BBX 14 16 1 3
BITMAP
0104
030C
071C
0F3C
1E78
3CF0
79E0
F3C0
F3C0
79E0
3CF0
1E78
0F3C
071C
030C
0104
ENDCHAR
STARTCHAR uni226B
ENCODING 8811
SWIDTH 500 0
DWIDTH 16 0
BBX 14 16 1 3
BITMAP
8200
C300
E380
F3C0
79E0
3CF0
1E78
0F3C
0F3C
1E78
3CF0
79E0
F3C0
E380
C300
8200
ENDCHAR
STARTCHAR uni2282
ENCODING 8834
SWIDTH 500 0
DWIDTH 16 0
BBX 14 22 1 0
BITMAP
07FC
1FFC
3FFC
7FFC
7C00
F800
F000
F000
F000
F000
F000
F000
F000
F000
F000
F000
F800
7C00
7FFC
3FFC
1FFC
07FC
ENDCHAR
STARTCHAR uni2283
ENCODING 8835
SWIDTH 500 0
DWIDTH 16 0
BBX 14 22 1 0
BITMAP
FF80
FFE0
FFF0
FFF8
00F8
007C
003C
003C
003C
003C
003C
003C
003C
003C
003C
003C
007C
00F8
FFF8
FFF0
FFE0
FF80
ENDCHAR
STARTCHAR uni2286
ENCODING 8838
SWIDTH 500 0
DWIDTH 16 0
BBX 14 22 1 0
BITMAP
07FC
1FFC
3FFC
7FFC
7C00
F800
F000
F000
F000
F000
F800
7C00
7FFC
3FFC
1FFC
07FC
0000
0000
FFFC
FFFC
FFFC
FFFC
ENDCHAR
STARTCHAR uni2287
ENCODING 8839
SWIDTH 500 0
DWIDTH 16 0
BBX 14 22 1 0
BITMAP
FF80
FFE0
FFF0
FFF8
00F8
007C
003C
003C
003C
003C
007C
00F8
FFF8
FFF0
FFE0
FF80
0000
0000
FFFC
FFFC
FFFC
FFFC
ENDCHAR
STARTCHAR uni22A5
ENCODING 8869
SWIDTH 500 0
DWIDTH 16 0
BBX 14 22 1 0
BITMAP
0780
0780
0780
0780
0780
0780
0780
0780
0780
0780
0780
0780
0780
0780
0780
0780
0780
0780
FFFC
FFFC
FFFC
FFFC
ENDCHAR
STARTCHAR uni22BF
ENCODING 8895
SWIDTH 500 0
DWIDTH 16 0
BBX 14 22 1 0
BITMAP
003C
003C
007C
007C
00FC
00FC
01FC
01FC
03FC
03FC
07BC
07BC
0F3C
0F3C
1E3C
1E3C
3C3C
3C3C
7FFC
7FFC
FFFC
FFFC
ENDCHAR
STARTCHAR uni2460
ENCODING 9312
SWIDTH 500 0
DWIDTH 16 0
BBX 14 22 1 0
BITMAP
FFFC
FFFC
0000
0000
7830
FCF0
CCF0
CC30
CC30
CC30
CC30
CC30
CC30
CC30
CC30
CC30
FCFC
78FC
0000
0000
FFFC
FFFC
ENDCHAR
STARTCHAR uni2461
ENCODING 9313
SWIDTH 500 0
DWIDTH 16 0
BBX 14 22 1 0
BITMAP
FFFC
FFFC
0000
0000
7878
FCFC
CCCC
CCCC
CC0C
CC0C
CC1C
CC38
CC70
CCE0
CCC0
CCC0
FCFC
78FC
0000
0000
FFFC
FFFC
ENDCHAR
STARTCHAR uni2462
ENCODING 9314
SWIDTH 500 0
DWIDTH 16 0
BBX 14 22 1 0
BITMAP
FFFC
FFFC
0000
0000
7878
FCFC
CCCC
CCCC
CC0C
CC0C
CC38
CC38
CC0C
CC0C
CCCC
CCCC
FCFC
7878
0000
0000
FFFC
FFFC
ENDCHAR
STARTCHAR uni2463
ENCODING 9315
SWIDTH 500 0
DWIDTH 16 0
BBX 14 22 1 0
BITMAP
FFFC
FFFC
0000
0000
78CC
FCCC
CCCC
CCCC
CCCC
CCCC
CCFC
CC7C
CC0C
CC0C
CC0C
CC0C
FC0C
780C
0000
0000
FFFC
FFFC
ENDCHAR
STARTCHAR uni2464
ENCODING 9316
SWIDTH 500 0
DWIDTH 16 0
BBX 14 22 1 0
BITMAP
FFFC
FFFC
0000
0000
78FC
FCFC
CCC0
CCC0
CCC0
CCC0
CCF8
CCFC
CC0C
CC0C
CC0C
CC0C
FCFC
78F8
0000
0000
FFFC
FFFC
ENDCHAR
STARTCHAR uni2465
ENCODING 9317
SWIDTH 500 0
DWIDTH 16 0
BBX 14 22 1 0
BITMAP
FFFC
FFFC
0000
0000
7878
FCFC
CCCC
CCCC
CCC0
CCC0
CCF8
CCFC
CCCC
CCCC
CCCC
CCCC
FCFC
7878
0000
0000
FFFC
FFFC
ENDCHAR
STARTCHAR uni2466
ENCODING 9318
SWIDTH 500 0
DWIDTH 16 0
BBX 14 22 1 0
BITMAP
FFFC
FFFC
0000
0000
78FC
FCFC
CC0C
CC0C
CC18
CC18
CC30
CC30
CC30
CC30
CC30
CC30
FC30
7830
0000
0000
FFFC
FFFC
ENDCHAR
STARTCHAR uni2467
ENCODING 9319
SWIDTH 500 0
DWIDTH 16 0
BBX 14 22 1 0
BITMAP
FFFC
FFFC
0000
0000
7878
FCFC
CCCC
CCCC
CCCC
CCCC
CC78
CC78
CCCC
CCCC
CCCC
CCCC
FCFC
7878
0000
0000
FFFC
FFFC
ENDCHAR
STARTCHAR uni2468
ENCODING 9320
SWIDTH 500 0
DWIDTH 16 0
BBX 14 22 1 0
BITMAP
FFFC
FFFC
0000
0000
7878
FCFC
CCCC
CCCC
CCCC
CCCC
CCFC
CC7C
CC0C
CC0C
CCCC
CCCC
FCFC
7878
0000
0000
FFFC
FFFC
ENDCHAR
STARTCHAR uni2469
ENCODING 9321
SWIDTH 500 0
DWIDTH 16 0
BBX 14 22 1 0
BITMAP
FFFC
FFFC
0000
0000
3078
F0FC
F0CC
30CC
30CC
30CC
30CC
30CC
30CC
30CC
30CC
30CC
FCFC
FC78
0000
0000
FFFC
FFFC
ENDCHAR
STARTCHAR uni246A
ENCODING 9322
SWIDTH 500 0
DWIDTH 16 0
BBX 14 22 1 0
BITMAP
FFFC
FFFC
0000
0000
3030
F0F0
F0F0
3030
3030
3030
3030
3030
3030
3030
3030
3030
FCFC
FCFC
0000
0000
FFFC
FFFC
ENDCHAR
STARTCHAR uni246B
ENCODING 9323
SWIDTH 500 0
DWIDTH 16 0
BBX 14 22 1 0
BITMAP
FFFC
FFFC
0000
0000
3078
F0FC
F0CC
30CC
300C
300C
301C
3038
3070
30E0
30C0
30C0
FCFC
FCFC
0000
0000
FFFC
FFFC
ENDCHAR
STARTCHAR uni246C
ENCODING 9324
SWIDTH 500 0
DWIDTH 16 0
BBX 14 22 1 0
BITMAP
FFFC
FFFC
0000
0000
3078
F0FC
F0CC
30CC
300C
300C
3038
3038
300C
300C
30CC
30CC
FCFC
FC78
0000
0000
FFFC
FFFC
ENDCHAR
STARTCHAR uni246D
ENCODING 9325
SWIDTH 500 0
DWIDTH 16 0
BBX 14 22 1 0
BITMAP
FFFC
FFFC
0000
0000
30CC
F0CC
F0CC
30CC
30CC
30CC
30FC
307C
300C
300C
300C
300C
FC0C
FC0C
0000
0000
FFFC
FFFC
ENDCHAR
STARTCHAR uni246E
ENCODING 9326
SWIDTH 500 0
DWIDTH 16 0
BBX 14 22 1 0
BITMAP
FFFC
FFFC
0000
0000
30FC
F0FC
F0C0
30C0
30C0
30C0
30F8
30FC
300C
300C
300C
300C
FCFC
FCF8
0000
0000
FFFC
FFFC
ENDCHAR
STARTCHAR uni246F
ENCODING 9327
SWIDTH 500 0
DWIDTH 16 0
BBX 14 22 1 0
BITMAP
FFFC
FFFC
0000
0000
3078
F0FC
F0CC
30CC
30C0
30C0
30F8
30FC
30CC
30CC
30CC
30CC
FCFC
FC78
0000
0000
FFFC
FFFC
ENDCHAR
STARTCHAR uni2470
ENCODING 9328
SWIDTH 500 0
DWIDTH 16 0
BBX 14 22 1 0
BITMAP
FFFC
FFFC
0000
0000
30FC
F0FC
F00C
300C
3018
3018
3030
3030
3030
3030
3030
3030
FC30
FC30
0000
0000
FFFC
FFFC
ENDCHAR
STARTCHAR uni2471
ENCODING 9329
SWIDTH 500 0
DWIDTH 16 0
BBX 14 22 1 0
BITMAP
FFFC
FFFC
0000
0000
3078
F0FC
F0CC
30CC
30CC
30CC
3078
3078
30CC
30CC
30CC
30CC
FCFC
FC78
0000
0000
FFFC
FFFC
ENDCHAR
STARTCHAR uni2472
ENCODING 9330
SWIDTH 500 0
DWIDTH 16 0
BBX 14 22 1 0
BITMAP
FFFC
FFFC
0000
0000
3078
F0FC
F0CC
30CC
30CC
30CC
30FC
307C
300C
300C
30CC
30CC
FCFC
FC78
0000
0000
FFFC
FFFC
ENDCHAR
STARTCHAR uni2473
ENCODING 9331
SWIDTH 500 0
DWIDTH 16 0
BBX 14 22 1 0
BITMAP
FFFC
FFFC
0000
0000
7878
FCFC
CCCC
CCCC
0CCC
0CCC
1CCC
38CC
70CC
E0CC
C0CC
C0CC
FCFC
FC78
0000
0000
FFFC
FFFC
ENDCHAR
STARTCHAR uni24EA
ENCODING 9450
SWIDTH 500 0
DWIDTH 16 0
BBX 14 22 1 0
BITMAP
FFFC
FFFC
0000
0000
7878
FCFC
CCCC
CCCC
CCCC
CCCC
CCCC
CCCC
CCCC
CCCC
CCCC
CCCC
FCFC
7878
0000
0000
FFFC
FFFC
ENDCHAR
STARTCHAR uni24EB
ENCODING 9451
SWIDTH 500 0
DWIDTH 16 0
BBX 16 22 0 0
BITMAP
3FFC
7FFE
FFFF
FFFF
E7E7
8787
8787
E7E7
E7E7
E7E7
E7E7
E7E7
E7E7
E7E7
E7E7
E7E7
8181
8181
FFFF
FFFF
7FFE
3FFC
ENDCHAR
STARTCHAR uni24EC
ENCODING 9452
SWIDTH 500 0
DWIDTH 16 0
BBX 16 22 0 0
BITMAP
3FFC
7FFE
FFFF
FFFF
E7C3
8781
8799
E799
E7F9
E7F9
E7F1
E7E3
E7C7
E78F
E79F
E79F
8181
8181
FFFF
FFFF
7FFE
3FFC
ENDCHAR
STARTCHAR uni24ED
ENCODING 9453
SWIDTH 500 0
DWIDTH 16 0
BBX 16 22 0 0
BITMAP
3FFC
7FFE
FFFF
FFFF
E7C3
8781
8799
E799
E7F9
E7F9
E7E3
E7E3
E7F9
E7F9
E799
E799
8181
81C3
FFFF
FFFF
7FFE
3FFC
ENDCHAR
STARTCHAR uni24EE
ENCODING 9454
SWIDTH 500 0
DWIDTH 16 0
BBX 16 22 0 0
BITMAP
3FFC
7FFE
FFFF
FFFF
E799
8799
8799
E799
E799
E799
E781
E7C1
E7F9
E7F9
E7F9
E7F9
81F9
81F9
FFFF
FFFF
7FFE
3FFC
ENDCHAR
STARTCHAR uni24EF
ENCODING 9455
SWIDTH 500 0
DWIDTH 16 0
BBX 16 22 0 0
BITMAP
3FFC
7FFE
FFFF
FFFF
E781
8781
879F
E79F
E79F
E79F
E783
E781
E7F9
E7F9
E7F9
E7F9
8181
8183
FFFF
FFFF
7FFE
3FFC
ENDCHAR
STARTCHAR uni24F0
ENCODING 9456
SWIDTH 500 0
DWIDTH 16 0
BBX 16 22 0 0
BITMAP
3FFC
7FFE
FFFF
FFFF
E7C3
8781
8799
E799
E79F
E79F
E783
E781
E799
E799
E799
E799
8181
81C3
FFFF
FFFF
7FFE
3FFC
ENDCHAR
STARTCHAR uni24F1
ENCODING 9457
SWIDTH 500 0
DWIDTH 16 0
BBX 16 22 0 0
BITMAP
3FFC
7FFE
FFFF
FFFF
E781
8781
87F9
E7F9
E7F3
E7F3
E7E7
E7E7
E7E7
E7E7
E7E7
E7E7
81E7
81E7
FFFF
FFFF
7FFE
3FFC
ENDCHAR
STARTCHAR uni24F2
ENCODING 9458
SWIDTH 500 0
DWIDTH 16 0
BBX 16 22 0 0
BITMAP
3FFC
7FFE
FFFF
FFFF
E7C3
8781
8799
E799
E799
E799
E7C3
E7C3
E799
E799
E799
E799
8181
81C3
FFFF
FFFF
7FFE
3FFC
ENDCHAR
STARTCHAR uni24F3
ENCODING 9459
SWIDTH 500 0
DWIDTH 16 0
BBX 16 22 0 0
BITMAP
3FFC
7FFE
FFFF
FFFF
E7C3
8781
8799
E799
E799
E799
E781
E7C1
E7F9
E7F9
E799
E799
8181
81C3
FFFF
FFFF
7FFE
3FFC
ENDCHAR
STARTCHAR uni24F4
ENCODING 9460
SWIDTH 500 0
DWIDTH 16 0
BBX 16 22 0 0
BITMAP
3FFC
7FFE
FFFF
FFFF
C3C3
8181
9999
9999
F999
F999
F199
E399
C799
8F99
9F99
9F99
8181
81C3
FFFF
FFFF
7FFE
3FFC
ENDCHAR
STARTCHAR uni24FF
ENCODING 9471
SWIDTH 500 0
DWIDTH 16 0
BBX 16 22 0 0
BITMAP
3FFC
7FFE
FFFF
FFFF
C3C3
8181
9999
9999
9999
9999
9999
9999
9999
9999
9999
9999
8181
C3C3
FFFF
FFFF
7FFE
3FFC
ENDCHAR
STARTCHAR uni2500
ENCODING 9472
SWIDTH 500 0
DWIDTH 16 0
BBX 16 2 0 10
BITMAP
FFFF
FFFF
ENDCHAR
STARTCHAR uni2501
ENCODING 9473
SWIDTH 500 0
DWIDTH 16 0
BBX 16 4 0 9
BITMAP
FFFF
FFFF
FFFF
FFFF
ENDCHAR
STARTCHAR uni2502
ENCODING 9474
SWIDTH 500 0
DWIDTH 16 0
BBX 2 32 7 -6
BITMAP
C0
C0
C0
C0
C0
C0
C0
C0
C0
C0
C0
C0
C0
C0
C0
C0
C0
C0
C0
C0
C0
C0
C0
C0
C0
C0
C0
C0
C0
C0
C0
C0
ENDCHAR
STARTCHAR uni2503
ENCODING 9475
SWIDTH 500 0
DWIDTH 16 0
BBX 4 32 6 -6
BITMAP
F0
F0
F0
F0
F0
F0
F0
F0
F0
F0
F0
F0
F0
F0
F0
F0
F0
F0
F0
F0
F0
F0
F0
F0
F0
F0
F0
F0
F0
F0
F0
F0
ENDCHAR
STARTCHAR uni250C
ENCODING 9484
SWIDTH 500 0
DWIDTH 16 0
BBX 9 18 7 -6
BITMAP
7F80
FF80
C000
C000
C000
C000
C000
C000
C000
C000
C000
C000
C000
C000
C000
C000
C000
C000
ENDCHAR
STARTCHAR uni250F
ENCODING 9487
SWIDTH 500 0
DWIDTH 16 0
BBX 10 19 6 -6
BITMAP
3FC0
7FC0
FFC0
FFC0
F000
F000
F000
F000
F000
F000
F000
F000
F000
F000
F000
F000
F000
F000
F000
ENDCHAR
STARTCHAR uni2510
ENCODING 9488
SWIDTH 500 0
DWIDTH 16 0
BBX 9 18 0 -6
BITMAP
FF00
FF80
0180
0180
0180
0180
0180
0180
0180
0180
0180
0180
0180
0180
0180
0180
0180
0180
ENDCHAR
STARTCHAR uni2513
ENCODING 9491
SWIDTH 500 0
DWIDTH 16 0
BBX 10 19 0 -6
BITMAP
FF00
FF80
FFC0
FFC0
03C0
03C0
03C0
03C0
03C0
03C0
03C0
03C0
03C0
03C0
03C0
03C0
03C0
03C0
03C0
ENDCHAR
STARTCHAR uni2514
ENCODING 9492
SWIDTH 500 0
DWIDTH 16 0
BBX 9 16 7 10
BITMAP
C000
C000
C000
C000
C000
C000
C000
C000
C000
C000
C000
C000
C000
C000
FF80
7F80
ENDCHAR
STARTCHAR uni2517
ENCODING 9495
SWIDTH 500 0
DWIDTH 16 0
BBX 10 17 6 9
BITMAP
F000
F000
F000
F000
F000
F000
F000
F000
F000
F000
F000
F000
F000
FFC0
FFC0
7FC0
3FC0
ENDCHAR
STARTCHAR uni2518
ENCODING 9496
SWIDTH 500 0
DWIDTH 16 0
BBX 9 16 0 10
BITMAP
0180
0180
0180
0180
0180
0180
0180
0180
0180
0180
0180
0180
0180
0180
FF80
FF00
ENDCHAR
STARTCHAR uni251B
ENCODING 9499
SWIDTH 500 0
DWIDTH 16 0
BBX 10 17 0 9
BITMAP
03C0
03C0
03C0
03C0
03C0
03C0
03C0
03C0
03C0
03C0
03C0
03C0
03C0
FFC0
FFC0
FF80
FF00
ENDCHAR
STARTCHAR uni251C
ENCODING 9500
SWIDTH 500 0
DWIDTH 16 0
BBX 9 32 7 -6
BITMAP
C000
C000
C000
C000
C000
C000
C000
C000
C000
C000
C000
C000
C000
C000
FF80
FF80
C000
C000
C000
C000
C000
C000
C000
C000
C000
C000
C000
C000
C000
C000
C000
C000
ENDCHAR
STARTCHAR uni251D
ENCODING 9501
SWIDTH 500 0
DWIDTH 16 0
BBX 9 32 7 -6
BITMAP
C000
C000
C000
C000
C000
C000
C000
C000
C000
C000
C000
C000
C000
FF80
FF80
FF80
FF80
C000
C000
C000
C000
C000
C000
C000
C000
C000
C000
C000
C000
C000
C000
C000
ENDCHAR
STARTCHAR uni2520
ENCODING 9504
SWIDTH 500 0
DWIDTH 16 0
BBX 10 32 6 -6
BITMAP
F000
F000
F000
F000
F000
F000
F000
F000
F000
F000
F000
F000
F000
F000
FFC0
FFC0
F000
F000
F000
F000
F000
F000
F000
F000
F000
F000
F000
F000
F000
F000
F000
F000
ENDCHAR
STARTCHAR uni2523
ENCODING 9507
SWIDTH 500 0
DWIDTH 16 0
BBX 10 32 6 -6
BITMAP
F000
F000
F000
F000
F000
F000
F000
F000
F000
F000
F000
F000
F000
FFC0
FFC0
FFC0
FFC0
F000
F000
F000
F000
F000
F000
F000
F000
F000
F000
F000
F000
F000
F000
F000
ENDCHAR
STARTCHAR uni2524
ENCODING 9508
SWIDTH 500 0
DWIDTH 16 0
BBX 9 32 0 -6
BITMAP
0180
0180
0180
0180
0180
0180
0180
0180
0180
0180
0180
0180
0180
0180
FF80
FF80
0180
0180
0180
0180
0180
0180
0180
0180
0180
0180
0180
0180
0180
0180
0180
0180
ENDCHAR
STARTCHAR uni2525
ENCODING 9509
SWIDTH 500 0
DWIDTH 16 0
BBX 9 32 0 -6
BITMAP
0180
0180
0180
0180
0180
0180
0180
0180
0180
0180
0180
0180
0180
FF80
FF80
FF80
FF80
0180
0180
0180
0180
0180
0180
0180
0180
0180
0180
0180
0180
0180
0180
0180
ENDCHAR
STARTCHAR uni2528
ENCODING 9512
SWIDTH 500 0
DWIDTH 16 0
BBX 10 32 0 -6
BITMAP
03C0
03C0
03C0
03C0
03C0
03C0
03C0
03C0
03C0
03C0
03C0
03C0
03C0
03C0
FFC0
FFC0
03C0
03C0
03C0
03C0
03C0
03C0
03C0
03C0
03C0
03C0
03C0
03C0
03C0
03C0
03C0
03C0
ENDCHAR
STARTCHAR uni252B
ENCODING 9515
SWIDTH 500 0
DWIDTH 16 0
BBX 10 32 0 -6
BITMAP
03C0
03C0
03C0
03C0
03C0
03C0
03C0
03C0
03C0
03C0
03C0
03C0
03C0
FFC0
FFC0
FFC0
FFC0
03C0
03C0
03C0
03C0
03C0
03C0
03C0
03C0
03C0
03C0
03C0
03C0
03C0
03C0
03C0
ENDCHAR
STARTCHAR uni252C
ENCODING 9516
SWIDTH 500 0
DWIDTH 16 0
BBX 16 18 0 -6
BITMAP
FFFF
FFFF
0180
0180
0180
0180
0180
0180
0180
0180
0180
0180
0180
0180
0180
0180
0180
0180
ENDCHAR
STARTCHAR uni252F
ENCODING 9519
SWIDTH 500 0
DWIDTH 16 0
BBX 16 19 0 -6
BITMAP
FFFF
FFFF
FFFF
FFFF
0180
0180
0180
0180
0180
0180
0180
0180
0180
0180
0180
0180
0180
0180
0180
ENDCHAR
STARTCHAR uni2530
ENCODING 9520
SWIDTH 500 0
DWIDTH 16 0
BBX 16 18 0 -6
BITMAP
FFFF
FFFF
03C0
03C0
03C0
03C0
03C0
03C0
03C0
03C0
03C0
03C0
03C0
03C0
03C0
03C0
03C0
03C0
ENDCHAR
STARTCHAR uni2533
ENCODING 9523
SWIDTH 500 0
DWIDTH 16 0
BBX 16 19 0 -6
BITMAP
FFFF
FFFF
FFFF
FFFF
03C0
03C0
03C0
03C0
03C0
03C0
03C0
03C0
03C0
03C0
03C0
03C0
03C0
03C0
03C0
ENDCHAR
STARTCHAR uni2534
ENCODING 9524
SWIDTH 500 0
DWIDTH 16 0
BBX 16 16 0 10
BITMAP
0180
0180
0180
0180
0180
0180
0180
0180
0180
0180
0180
0180
0180
0180
FFFF
FFFF
ENDCHAR
STARTCHAR uni2537
ENCODING 9527
SWIDTH 500 0
DWIDTH 16 0
BBX 16 17 0 9
BITMAP
0180
0180
0180
0180
0180
0180
0180
0180
0180
0180
0180
0180
0180
FFFF
FFFF
FFFF
FFFF
ENDCHAR
STARTCHAR uni2538
ENCODING 9528
SWIDTH 500 0
DWIDTH 16 0
BBX 16 16 0 10
BITMAP
03C0
03C0
03C0
03C0
03C0
03C0
03C0
03C0
03C0
03C0
03C0
03C0
03C0
03C0
FFFF
FFFF
ENDCHAR
STARTCHAR uni253B
ENCODING 9531
SWIDTH 500 0
DWIDTH 16 0
BBX 16 17 0 9
BITMAP
03C0
03C0
03C0
03C0
03C0
03C0
03C0
03C0
03C0
03C0
03C0
03C0
03C0
FFFF
FFFF
FFFF
FFFF
ENDCHAR
STARTCHAR uni253C
ENCODING 9532
SWIDTH 500 0
DWIDTH 16 0
BBX 16 32 0 -6
BITMAP
0180
0180
0180
0180
0180
0180
0180
0180
0180
0180
0180
0180
0180
0180
FFFF
FFFF
0180
0180
0180
0180
0180
0180
0180
0180
0180
0180
0180
0180
0180
0180
0180
0180
ENDCHAR
STARTCHAR uni253F
ENCODING 9535
SWIDTH 500 0
DWIDTH 16 0
BBX 16 32 0 -6
BITMAP
0180
0180
0180
0180
0180
0180
0180
0180
0180
0180
0180
0180
0180
FFFF
FFFF
FFFF
FFFF
0180
0180
0180
0180
0180
0180
0180
0180
0180
0180
0180
0180
0180
0180
0180
ENDCHAR
STARTCHAR uni2542
ENCODING 9538
SWIDTH 500 0
DWIDTH 16 0
BBX 16 32 0 -6
BITMAP
03C0
03C0
03C0
03C0
03C0
03C0
03C0
03C0
03C0
03C0
03C0
03C0
03C0
03C0
FFFF
FFFF
03C0
03C0
03C0
03C0
03C0
03C0
03C0
03C0
03C0
03C0
03C0
03C0
03C0
03C0
03C0
03C0
ENDCHAR
STARTCHAR uni254B
ENCODING 9547
SWIDTH 500 0
DWIDTH 16 0
BBX 16 32 0 -6
BITMAP
03C0
03C0
03C0
03C0
03C0
03C0
03C0
03C0
03C0
03C0
03C0
03C0
03C0
FFFF
FFFF
FFFF
FFFF
03C0
03C0
03C0
03C0
03C0
03C0
03C0
03C0
03C0
03C0
03C0
03C0
03C0
03C0
03C0
ENDCHAR
STARTCHAR uni2580
ENCODING 9600
SWIDTH 500 0
DWIDTH 16 0
BBX 16 11 0 11
BITMAP
FFFF
FFFF
FFFF
FFFF
FFFF
FFFF
FFFF
FFFF
FFFF
FFFF
FFFF
ENDCHAR
STARTCHAR uni2581
ENCODING 9601
SWIDTH 500 0
DWIDTH 16 0
BBX 16 2 0 0
BITMAP
FFFF
FFFF
ENDCHAR
STARTCHAR uni2582
ENCODING 9602
SWIDTH 500 0
DWIDTH 16 0
BBX 16 5 0 0
BITMAP
FFFF
FFFF
FFFF
FFFF
FFFF
ENDCHAR
STARTCHAR uni2583
ENCODING 9603
SWIDTH 500 0
DWIDTH 16 0
BBX 16 8 0 0
BITMAP
FFFF
FFFF
FFFF
FFFF
FFFF
FFFF
FFFF
FFFF
ENDCHAR
STARTCHAR uni2584
ENCODING 9604
SWIDTH 500 0
DWIDTH 16 0
BBX 16 11 0 0
BITMAP
FFFF
FFFF
FFFF
FFFF
FFFF
FFFF
FFFF
FFFF
FFFF
FFFF
FFFF
ENDCHAR
STARTCHAR uni2585
ENCODING 9605
SWIDTH 500 0
DWIDTH 16 0
BBX 16 14 0 0
BITMAP
FFFF
FFFF
FFFF
FFFF
FFFF
FFFF
FFFF
FFFF
FFFF
FFFF
FFFF
FFFF
FFFF
FFFF
ENDCHAR
STARTCHAR uni2586
ENCODING 9606
SWIDTH 500 0
DWIDTH 16 0
BBX 16 17 0 0
BITMAP
FFFF
FFFF
FFFF
FFFF
FFFF
FFFF
FFFF
FFFF
FFFF
FFFF
FFFF
FFFF
FFFF
FFFF
FFFF
FFFF
FFFF
ENDCHAR
STARTCHAR uni2587
ENCODING 9607
SWIDTH 500 0
DWIDTH 16 0
BBX 16 20 0 0
BITMAP
FFFF
FFFF
FFFF
FFFF
FFFF
FFFF
FFFF
FFFF
FFFF
FFFF
FFFF
FFFF
FFFF
FFFF
FFFF
FFFF
FFFF
FFFF
FFFF
FFFF
ENDCHAR
STARTCHAR uni2588
ENCODING 9608
SWIDTH 500 0
DWIDTH 16 0
BBX 16 22 0 0
BITMAP
FFFF
FFFF
FFFF
FFFF
FFFF
FFFF
FFFF
FFFF
FFFF
FFFF
FFFF
FFFF
FFFF
FFFF
FFFF
FFFF
FFFF
FFFF
FFFF
FFFF
FFFF
FFFF
ENDCHAR
STARTCHAR uni2589
ENCODING 9609
SWIDTH 500 0
DWIDTH 16 0
BBX 14 22 0 0
BITMAP
FFFC
FFFC
FFFC
FFFC
FFFC
FFFC
FFFC
FFFC
FFFC
FFFC
FFFC
FFFC
FFFC
FFFC
FFFC
FFFC
FFFC
FFFC
FFFC
FFFC
FFFC
FFFC
ENDCHAR
STARTCHAR uni258A
ENCODING 9610
SWIDTH 500 0
DWIDTH 16 0
BBX 12 22 0 0
BITMAP
FFF0
FFF0
FFF0
FFF0
FFF0
FFF0
FFF0
FFF0
FFF0
FFF0
FFF0
FFF0
FFF0
FFF0
FFF0
FFF0
FFF0
FFF0
FFF0
FFF0
FFF0
FFF0
ENDCHAR
STARTCHAR uni258B
ENCODING 9611
SWIDTH 500 0
DWIDTH 16 0
BBX 10 22 0 0
BITMAP
FFC0
FFC0
FFC0
FFC0
FFC0
FFC0
FFC0
FFC0
FFC0
FFC0
FFC0
FFC0
FFC0
FFC0
FFC0
FFC0
FFC0
FFC0
FFC0
FFC0
FFC0
FFC0
ENDCHAR
STARTCHAR uni258C
ENCODING 9612
SWIDTH 500 0
DWIDTH 16 0
BBX 8 22 0 0
BITMAP
FF
FF
FF
FF
FF
FF
FF
FF
FF
FF
FF
FF
FF
FF
FF
FF
FF
FF
FF
FF
FF
FF
ENDCHAR
STARTCHAR uni258D
ENCODING 9613
SWIDTH 500 0
DWIDTH 16 0
BBX 6 22 0 0
BITMAP
FC
FC
FC
FC
FC
FC
FC
FC
FC
FC
FC
FC
FC
FC
FC
FC
FC
FC
FC
FC
FC
FC
ENDCHAR
STARTCHAR uni258E
ENCODING 9614
SWIDTH 500 0
DWIDTH 16 0
BBX 4 22 0 0
BITMAP
F0
F0
F0
F0
F0
F0
F0
F0
F0
F0
F0
F0
F0
F0
F0
F0
F0
F0
F0
F0
F0
F0
ENDCHAR
STARTCHAR uni258F
ENCODING 9615
SWIDTH 500 0
DWIDTH 16 0
BBX 2 22 0 0
BITMAP
C0
C0
C0
C0
C0
C0
C0
C0
C0
C0
C0
C0
C0
C0
C0
C0
C0
C0
C0
C0
C0
C0
ENDCHAR
STARTCHAR uni2590
ENCODING 9616
SWIDTH 500 0
DWIDTH 16 0
BBX 8 22 8 0
BITMAP
FF
FF
FF
FF
FF
FF
FF
FF
FF
FF
FF
FF
FF
FF
FF
FF
FF
FF
FF
FF
FF
FF
ENDCHAR
STARTCHAR uni25A0
ENCODING 9632
SWIDTH 500 0
DWIDTH 16 0
BBX 14 14 1 4
BITMAP
FFFC
FFFC
FFFC
FFFC
FFFC
FFFC
FFFC
FFFC
FFFC
FFFC
FFFC
FFFC
FFFC
FFFC
ENDCHAR
STARTCHAR uni25A1
ENCODING 9633
SWIDTH 500 0
DWIDTH 16 0
BBX 14 14 1 4
BITMAP
FFFC
FFFC
C00C
C00C
C00C
C00C
C00C
C00C
C00C
C00C
C00C
C00C
FFFC
FFFC
ENDCHAR
STARTCHAR uni25B2
ENCODING 9650
SWIDTH 500 0
DWIDTH 16 0
BBX 14 14 1 4
BITMAP
0300
0300
0780
0780
0FC0
0FC0
1FE0
1FE0
3FF0
3FF0
7FF8
7FF8
FFFC
FFFC
ENDCHAR
STARTCHAR uni25B3
ENCODING 9651
SWIDTH 500 0
DWIDTH 16 0
BBX 14 14 1 4
BITMAP
0300
0300
0780
0780
0CC0
0CC0
1860
1860
3030
3030
6018
6018
FFFC
FFFC
ENDCHAR
STARTCHAR uni25BC
ENCODING 9660
SWIDTH 500 0
DWIDTH 16 0
BBX 14 14 1 4
BITMAP
FFFC
FFFC
7FF8
7FF8
3FF0
3FF0
1FE0
1FE0
0FC0
0FC0
0780
0780
0300
0300
ENDCHAR
STARTCHAR uni25BD
ENCODING 9661
SWIDTH 500 0
DWIDTH 16 0
BBX 14 14 1 4
BITMAP
FFFC
FFFC
6018
6018
3030
3030
1860
1860
0CC0
0CC0
0780
0780
0300
0300
ENDCHAR
STARTCHAR uni25C6
ENCODING 9670
SWIDTH 500 0
DWIDTH 16 0
BBX 16 16 0 3
BITMAP
0180
03C0
07E0
0FF0
1FF8
3FFC
7FFE
FFFF
FFFF
7FFE
3FFC
1FF8
0FF0
07E0
03C0
0180
ENDCHAR
STARTCHAR uni25C7
ENCODING 9671
SWIDTH 500 0
DWIDTH 16 0
BBX 16 16 0 3
BITMAP
0180
03C0
07E0
0E70
1C38
381C
700E
E007
E007
700E
381C
1C38
0E70
07E0
03C0
0180
ENDCHAR
STARTCHAR uni25CB
ENCODING 9675
SWIDTH 500 0
DWIDTH 16 0
BBX 14 14 1 4
BITMAP
0780
1FE0
3870
6018
6018
C00C
C00C
C00C
C00C
6018
6018
3870
1FE0
0780
ENDCHAR
STARTCHAR uni25CE
ENCODING 9678
SWIDTH 500 0
DWIDTH 16 0
BBX 14 14 1 4
BITMAP
0780
1FE0
3870
6798
6FD8
D86C
D86C
D86C
D86C
6FD8
6798
3870
1FE0
0780
ENDCHAR
STARTCHAR uni25CF
ENCODING 9679
SWIDTH 500 0
DWIDTH 16 0
BBX 14 14 1 4
BITMAP
0780
1FE0
3FF0
7FF8
7FF8
FFFC
FFFC
FFFC
FFFC
7FF8
7FF8
3FF0
1FE0
0780
ENDCHAR
STARTCHAR uni25EF
ENCODING 9711
SWIDTH 500 0
DWIDTH 16 0
BBX 16 16 0 3
BITMAP
07E0
1FF8
3C3C
700E
6006
E007
C003
C003
C003
C003
E007
6006
700E
3C3C
1FF8
07E0
ENDCHAR
STARTCHAR uni2600
ENCODING 9728
SWIDTH 500 0
DWIDTH 16 0
BBX 14 14 1 4
BITMAP
0300
0300
3030
37B0
0FC0
1FE0
DFEC
DFEC
1FE0
0FC0
37B0
3030
0300
0300
ENDCHAR
STARTCHAR uni2601
ENCODING 9729
SWIDTH 500 0
DWIDTH 16 0
BBX 14 11 1 6
BITMAP
1E00
3F00
7F00
7F70
7EF8
7FFC
FFFC
FFFC
FFFC
FFFC
7FF8
ENDCHAR
STARTCHAR uni2602
ENCODING 9730
SWIDTH 500 0
DWIDTH 16 0
BBX 14 16 1 3
BITMAP
0300
0300
0FC0
3FF0
7FF8
7FF8
FFFC
FFFC
9324
0300
0300
0300
0300
1B00
1F00
0E00
ENDCHAR
STARTCHAR uni2603
ENCODING 9731
SWIDTH 500 0
DWIDTH 16 0
BBX 10 15 3 4
BITMAP
1E00
3F00
7F80
7F80
7F80
3F00
1E00
3F00
7F80
FFC0
FFC0
FFC0
FFC0
7F80
3F00
ENDCHAR
STARTCHAR uni2605
ENCODING 9733
SWIDTH 500 0
DWIDTH 16 0
BBX 14 15 1 4
BITMAP
0300
0300
0780
0780
FFFC
FFFC
7FF8
3FF0
1FE0
1FE0
3FF0
3FF0
7CF8
F03C
C00C
ENDCHAR
STARTCHAR uni2606
ENCODING 9734
SWIDTH 500 0
DWIDTH 16 0
BBX 14 15 1 4
BITMAP
0300
0300
0780
0780
FFFC
FCFC
7038
3870
1860
1860
37B0
3FF0
7CF8
F03C
C00C
ENDCHAR
STARTCHAR uni2610
ENCODING 9744
SWIDTH 500 0
DWIDTH 16 0
BBX 14 14 1 4
BITMAP
FFFC
FFFC
C00C
C00C
C00C
C00C
C00C
C00C
C00C
C00C
C00C
C00C
FFFC
FFFC
ENDCHAR
STARTCHAR uni2611
ENCODING 9745
SWIDTH 500 0
DWIDTH 16 0
BBX 14 14 1 4
BITMAP
FFE4
FFCC
C01C
C038
C070
C0E4
D1CC
DB8C
DF0C
CE0C
C40C
C00C
FFFC
FFFC
ENDCHAR
STARTCHAR uni2612
ENCODING 9746
SWIDTH 500 0
DWIDTH 16 0
BBX 14 14 1 4
BITMAP
FFFC
FFFC
C00C
D86C
DCEC
CFCC
C78C
C78C
CFCC
DCEC
D86C
C00C
FFFC
FFFC
ENDCHAR
STARTCHAR uni2613
ENCODING 9747
SWIDTH 500 0
DWIDTH 16 0
BBX 14 14 1 4
BITMAP
C00C
E01C
7038
3870
1CE0
0FC0
0780
0780
0FC0
1CE0
3870
7038
E01C
C00C
ENDCHAR
STARTCHAR uni261A
ENCODING 9754
SWIDTH 500 0
DWIDTH 16 0
BBX 14 10 1 6
BITMAP
00CC
03CC
0FCC
3FCC
FFCC
FFCC
3FCC
0FCC
03CC
00CC
ENDCHAR
STARTCHAR uni261B
ENCODING 9755
SWIDTH 500 0
DWIDTH 16 0
BBX 14 10 1 6
BITMAP
CC00
CF00
CFC0
CFF0
CFFC
CFFC
CFF0
CFC0
CF00
CC00
ENDCHAR
STARTCHAR uni261C
ENCODING 9756
SWIDTH 500 0
DWIDTH 16 0
BBX 14 10 1 6
BITMAP
00CC
03CC
0FCC
3CCC
F0CC
F0CC
3CCC
0FCC
03CC
00CC
ENDCHAR
STARTCHAR uni261D
ENCODING 9757
SWIDTH 500 0
DWIDTH 16 0
BBX 10 14 3 4
BITMAP
0C00
0C00
1E00
1E00
3300
3300
6180
6180
FFC0
FFC0
0000
0000
FFC0
FFC0
ENDCHAR
STARTCHAR uni261E
ENCODING 9758
SWIDTH 500 0
DWIDTH 16 0
BBX 14 10 1 6
BITMAP
CC00
CF00
CFC0
CCF0
CC3C
CC3C
CCF0
CFC0
CF00
CC00
ENDCHAR
STARTCHAR uni261F
ENCODING 9759
SWIDTH 500 0
DWIDTH 16 0
BBX 10 14 3 4
BITMAP
FFC0
FFC0
0000
0000
FFC0
FFC0
6180
6180
3300
3300
1E00
1E00
0C00
0C00
ENDCHAR
STARTCHAR uni2620
ENCODING 9760
SWIDTH 500 0
DWIDTH 16 0
BBX 14 22 1 0
BITMAP
0FC0
3FF0
7FF8
7FF8
FFFC
FFFC
FFFC
FFFC
FFFC
BFF4
A314
4308
4308
4488
3870
5848
4788
2490
3030
14A0
0FC0
0780
ENDCHAR
STARTCHAR uni2640
ENCODING 9792
SWIDTH 500 0
DWIDTH 16 0
BBX 14 22 1 0
BITMAP
0FC0
1FE0
3870
3030
3030
3030
3030
3870
1FE0
0FC0
0300
0300
FFFC
FFFC
0300
0300
0300
0300
0300
0300
0300
0300
ENDCHAR
STARTCHAR uni2642
ENCODING 9794
SWIDTH 500 0
DWIDTH 16 0
BBX 12 22 2 0
BITMAP
0600
0F00
1F80
3FC0
76E0
E670
C630
0600
0600
0600
0600
0600
1F80
3FC0
70E0
6060
6060
6060
6060
70E0
3FC0
1F80
ENDCHAR
STARTCHAR uni2660
ENCODING 9824
SWIDTH 500 0
DWIDTH 16 0
BBX 14 17 1 3
BITMAP
0300
0780
0FC0
1FE0
3FF0
7FF8
7FF8
FFFC
FFFC
FFFC
FFFC
FFFC
FB7C
7338
0780
1FE0
1FE0
ENDCHAR
STARTCHAR uni2661
ENCODING 9825
SWIDTH 500 0
DWIDTH 16 0
BBX 14 14 1 4
BITMAP
7038
F87C
FCFC
CFCC
C78C
C30C
E01C
6018
7038
3870
1CE0
0FC0
0780
0300
ENDCHAR
STARTCHAR uni2662
ENCODING 9826
SWIDTH 500 0
DWIDTH 16 0
BBX 16 16 0 3
BITMAP
0180
03C0
07E0
0E70
1C38
381C
700E
E007
E007
700E
381C
1C38
0E70
07E0
03C0
0180
ENDCHAR
STARTCHAR uni2663
ENCODING 9827
SWIDTH 500 0
DWIDTH 16 0
BBX 14 16 1 3
BITMAP
0780
0FC0
0FC0
0FC0
0FC0
0780
7338
FFFC
FFFC
FFFC
FFFC
FB7C
7338
0780
1FE0
1FE0
ENDCHAR
STARTCHAR uni2664
ENCODING 9828
SWIDTH 500 0
DWIDTH 16 0
BBX 14 17 1 3
BITMAP
0300
0780
0FC0
1CE0
3870
7038
6018
E01C
C30C
C78C
CFCC
FFFC
FB7C
7338
0780
1FE0
1FE0
ENDCHAR
STARTCHAR uni2665
ENCODING 9829
SWIDTH 500 0
DWIDTH 16 0
BBX 14 14 1 4
BITMAP
7038
F87C
FCFC
FFFC
FFFC
FFFC
FFFC
7FF8
7FF8
3FF0
1FE0
0FC0
0780
0300
ENDCHAR
STARTCHAR uni2666
ENCODING 9830
SWIDTH 500 0
DWIDTH 16 0
BBX 16 16 0 3
BITMAP
0180
03C0
07E0
0FF0
1FF8
3FFC
7FFE
FFFF
FFFF
7FFE
3FFC
1FF8
0FF0
07E0
03C0
0180
ENDCHAR
STARTCHAR uni2667
ENCODING 9831
SWIDTH 500 0
DWIDTH 16 0
BBX 14 16 1 3
BITMAP
0780
0FC0
0CC0
0CC0
0CC0
0780
7338
FFFC
CFCC
C78C
CFCC
FB7C
7338
0780
1FE0
1FE0
ENDCHAR
STARTCHAR uni2669
ENCODING 9833
SWIDTH 500 0
DWIDTH 16 0
BBX 6 18 3 2
BITMAP
0C
0C
0C
0C
0C
0C
0C
0C
0C
0C
0C
0C
0C
0C
7C
FC
F8
70
ENDCHAR
STARTCHAR uni266A
ENCODING 9834
SWIDTH 500 0
DWIDTH 16 0
BBX 12 18 3 2
BITMAP
0C00
0E00
0F00
0F80
0FC0
0CE0
0C70
0C30
0C30
0C20
0C40
0C00
0C00
0C00
7C00
FC00
F800
7000
ENDCHAR
STARTCHAR uni266B
ENCODING 9835
SWIDTH 500 0
DWIDTH 16 0
BBX 14 20 1 0
BITMAP
0C00
0F00
0FC0
0FF0
0CFC
0C3C
0C0C
0C0C
0C0C
0C0C
0C0C
0C0C
7C0C
FC0C
F80C
700C
007C
00FC
00F8
0070
ENDCHAR
STARTCHAR uni266C
ENCODING 9836
SWIDTH 500 0
DWIDTH 16 0
BBX 14 18 1 2
BITMAP
0FFC
0FFC
0C0C
0C0C
0FFC
0FFC
0C0C
0C0C
0C0C
0C0C
0C0C
0C0C
0C0C
0C0C
7C7C
FCFC
F8F8
7070
ENDCHAR
STARTCHAR uni266D
ENCODING 9837
SWIDTH 500 0
DWIDTH 16 0
BBX 7 19 5 1
BITMAP
C0
C0
C0
C0
C0
C0
C0
C0
C0
DC
FE
E6
C6
C6
CE
DC
F8
F0
E0
ENDCHAR
STARTCHAR uni266E
ENCODING 9838
SWIDTH 500 0
DWIDTH 16 0
BBX 6 18 5 2
BITMAP
C0
C0
C0
CC
FC
FC
FC
CC
CC
CC
CC
FC
FC
FC
CC
0C
0C
0C
ENDCHAR
STARTCHAR uni266F
ENCODING 9839
SWIDTH 500 0
DWIDTH 16 0
BBX 10 18 3 2
BITMAP
0300
0300
3300
33C0
33C0
3F00
3F00
F300
F300
33C0
33C0
3F00
3F00
F300
F300
3300
3000
3000
ENDCHAR
STARTCHAR uni2680
ENCODING 9856
SWIDTH 500 0
DWIDTH 16 0
BBX 16 16 0 3
BITMAP
7FFE
FFFF
FFFF
FFFF
FFFF
FC3F
F81F
F81F
F81F
F81F
FC3F
FFFF
FFFF
FFFF
FFFF
7FFE
ENDCHAR
STARTCHAR uni2681
ENCODING 9857
SWIDTH 500 0
DWIDTH 16 0
BBX 16 16 0 3
BITMAP
7FFE
FFFF
FFE7
FFC3
FFC3
FFE7
FFFF
FFFF
FFFF
FFFF
E7FF
C3FF
C3FF
E7FF
FFFF
7FFE
ENDCHAR
STARTCHAR uni2682
ENCODING 9858
SWIDTH 500 0
DWIDTH 16 0
BBX 16 16 0 3
BITMAP
7FFE
FFFF
FFE7
FFC3
FFC3
FFE7
FE7F
FC3F
FC3F
FE7F
E7FF
C3FF
C3FF
E7FF
FFFF
7FFE
ENDCHAR
STARTCHAR uni2683
ENCODING 9859
SWIDTH 500 0
DWIDTH 16 0
BBX 16 16 0 3
BITMAP
7FFE
FFFF
E7E7
C3C3
C3C3
E7E7
FFFF
FFFF
FFFF
FFFF
E7E7
C3C3
C3C3
E7E7
FFFF
7FFE
ENDCHAR
STARTCHAR uni2684
ENCODING 9860
SWIDTH 500 0
DWIDTH 16 0
BBX 16 16 0 3
BITMAP
7FFE
FFFF
E7E7
C3C3
C3C3
E7E7
FE7F
FC3F
FC3F
FE7F
E7E7
C3C3
C3C3
E7E7
FFFF
7FFE
ENDCHAR
STARTCHAR uni2685
ENCODING 9861
SWIDTH 500 0
DWIDTH 16 0
BBX 16 16 0 3
BITMAP
7FFE
E7E7
C3C3
C3C3
E7E7
FFFF
E7E7
C3C3
C3C3
E7E7
FFFF
E7E7
C3C3
C3C3
E7E7
7FFE
ENDCHAR
STARTCHAR uni2776
ENCODING 10102
SWIDTH 500 0
DWIDTH 16 0
BBX 16 22 0 0
BITMAP
3FFC
7FFE
FFFF
FFFF
C3E7
8187
9987
99E7
99E7
99E7
99E7
99E7
99E7
99E7
99E7
99E7
8181
C381
FFFF
FFFF
7FFE
3FFC
ENDCHAR
STARTCHAR uni2777
ENCODING 10103
SWIDTH 500 0
DWIDTH 16 0
BBX 16 22 0 0
BITMAP
3FFC
7FFE
FFFF
FFFF
C3C3
8181
9999
9999
99F9
99F9
99F1
99E3
99C7
998F
999F
999F
8181
C381
FFFF
FFFF
7FFE
3FFC
ENDCHAR
STARTCHAR uni2778
ENCODING 10104
SWIDTH 500 0
DWIDTH 16 0
BBX 16 22 0 0
BITMAP
3FFC
7FFE
FFFF
FFFF
C3C3
8181
9999
9999
99F9
99F9
99E3
99E3
99F9
99F9
9999
9999
8181
C3C3
FFFF
FFFF
7FFE
3FFC
ENDCHAR
STARTCHAR uni2779
ENCODING 10105
SWIDTH 500 0
DWIDTH 16 0
BBX 16 22 0 0
BITMAP
3FFC
7FFE
FFFF
FFFF
C399
8199
9999
9999
9999
9999
9981
99C1
99F9
99F9
99F9
99F9
81F9
C3F9
FFFF
FFFF
7FFE
3FFC
ENDCHAR
STARTCHAR uni277A
ENCODING 10106
SWIDTH 500 0
DWIDTH 16 0
BBX 16 22 0 0
BITMAP
3FFC
7FFE
FFFF
FFFF
C381
8181
999F
999F
999F
999F
9983
9981
99F9
99F9
99F9
99F9
8181
C383
FFFF
FFFF
7FFE
3FFC
ENDCHAR
STARTCHAR uni277B
ENCODING 10107
SWIDTH 500 0
DWIDTH 16 0
BBX 16 22 0 0
BITMAP
3FFC
7FFE
FFFF
FFFF
C3C3
8181
9999
9999
999F
999F
9983
9981
9999
9999
9999
9999
8181
C3C3
FFFF
FFFF
7FFE
3FFC
ENDCHAR
STARTCHAR uni277C
ENCODING 10108
SWIDTH 500 0
DWIDTH 16 0
BBX 16 22 0 0
BITMAP
3FFC
7FFE
FFFF
FFFF
C381
8181
99F9
99F9
99F3
99F3
99E7
99E7
99E7
99E7
99E7
99E7
81E7
C3E7
FFFF
FFFF
7FFE
3FFC
ENDCHAR
STARTCHAR uni277D
ENCODING 10109
SWIDTH 500 0
DWIDTH 16 0
BBX 16 22 0 0
BITMAP
3FFC
7FFE
FFFF
FFFF
C3C3
8181
9999
9999
9999
9999
99C3
99C3
9999
9999
9999
9999
8181
C3C3
FFFF
FFFF
7FFE
3FFC
ENDCHAR
STARTCHAR uni277E
ENCODING 10110
SWIDTH 500 0
DWIDTH 16 0
BBX 16 22 0 0
BITMAP
3FFC
7FFE
FFFF
FFFF
C3C3
8181
9999
9999
9999
9999
9981
99C1
99F9
99F9
9999
9999
8181
C3C3
FFFF
FFFF
7FFE
3FFC
ENDCHAR
STARTCHAR uni277F
ENCODING 10111
SWIDTH 500 0
DWIDTH 16 0
BBX 16 22 0 0
BITMAP
3FFC
7FFE
FFFF
FFFF
E7C3
8781
8799
E799
E799
E799
E799
E799
E799
E799
E799
E799
8181
81C3
FFFF
FFFF
7FFE
3FFC
ENDCHAR
STARTCHAR uni3000
ENCODING 12288
SWIDTH 500 0
DWIDTH 16 0
BBX 1 1 0 0
BITMAP
00
ENDCHAR
ENDFONT
