STARTFONT 2.1
FONT Floppy Pixel Stroke-16px
SIZE 16 75 75
FONTBOUNDINGBOX 18 20 -1 -5
STARTPROPERTIES 5
PIXEL_SIZE 16
FONT_ASCENT 13
FONT_DESCENT 4
CHARSET_REGISTRY "ISO10646"
CHARSET_ENCODING "1"
ENDPROPERTIES
CHARS 112
STARTCHAR .null
ENCODING 0
SWIDTH 0 0
DWIDTH 0 0
BBX 1 1 0 0
BITMAP
00
ENDCHAR
STARTCHAR nonmarkingreturn
ENCODING 13
SWIDTH 0 0
DWIDTH 0 0
BBX 1 1 0 0
BITMAP
00
ENDCHAR
STARTCHAR space
ENCODING 32
SWIDTH 250 0
DWIDTH 4 0
BBX 1 1 0 0
BITMAP
00
ENDCHAR
STARTCHAR exclam
ENCODING 33
SWIDTH 250 0
DWIDTH 4 0
BBX 5 15 -1 -1
BITMAP
F8
88
88
88
88
88
88
88
88
88
88
F8
88
88
F8
ENDCHAR
STARTCHAR quotedbl
ENCODING 34
SWIDTH 500 0
DWIDTH 8 0
BBX 9 5 -1 9
BITMAP
FF80
8880
8880
8880
FF80
ENDCHAR
STARTCHAR numbersign
ENCODING 35
SWIDTH 750 0
DWIDTH 12 0
BBX 13 11 -1 -1
BITMAP
3FF0
2310
6318
4008
6318
4210
C630
8010
C630
4620
7FE0
ENDCHAR
STARTCHAR dollar
ENCODING 36
SWIDTH 688 0
DWIDTH 11 0
BBX 12 18 -1 -3
BITMAP
0F00
F9F0
8010
8610
8610
8610
8610
87F0
8010
FE10
8610
8610
8610
8610
8010
F9F0
0900
0F00
ENDCHAR
STARTCHAR percent
ENCODING 37
SWIDTH 938 0
DWIDTH 15 0
BBX 16 16 -1 -2
BITMAP
01F0
FF10
8310
B310
B310
B310
B310
801F
F801
08D9
08D9
08D9
08D9
08C1
08FF
0F80
ENDCHAR
STARTCHAR ampersand
ENCODING 38
SWIDTH 812 0
DWIDTH 13 0
BBX 14 15 -1 -1
BITMAP
7FC0
4040
4640
4640
4640
4640
C640
807C
8CC4
8CCC
8C08
8C1C
8C04
8044
FFFC
ENDCHAR
STARTCHAR quotesingle
ENCODING 39
SWIDTH 250 0
DWIDTH 4 0
BBX 5 5 -1 9
BITMAP
F8
88
88
88
F8
ENDCHAR
STARTCHAR parenleft
ENCODING 40
SWIDTH 438 0
DWIDTH 7 0
BBX 8 19 -1 -4
BITMAP
7F
41
C7
84
84
8C
88
88
88
88
88
88
88
8C
84
84
C7
41
7F
ENDCHAR
STARTCHAR parenright
ENCODING 41
SWIDTH 438 0
DWIDTH 7 0
BBX 8 19 -1 -4
BITMAP
FE
82
E3
21
21
31
11
11
11
11
11
11
11
31
21
21
E3
82
FE
ENDCHAR
STARTCHAR asterisk
ENCODING 42
SWIDTH 500 0
DWIDTH 8 0
BBX 9 10 -1 5
BITMAP
1C00
1400
F780
8080
E380
E380
8080
F780
1400
1C00
ENDCHAR
STARTCHAR plus
ENCODING 43
SWIDTH 750 0
DWIDTH 12 0
BBX 13 12 -1 1
BITMAP
0F80
0880
0880
0880
F8F8
8008
8008
F8F8
0880
0880
0880
0F80
ENDCHAR
STARTCHAR comma
ENCODING 44
SWIDTH 250 0
DWIDTH 4 0
BBX 5 6 -1 -3
BITMAP
F8
88
88
C8
48
78
ENDCHAR
STARTCHAR hyphen
ENCODING 45
SWIDTH 375 0
DWIDTH 6 0
BBX 7 4 -1 3
BITMAP
FE
82
82
FE
ENDCHAR
STARTCHAR period
ENCODING 46
SWIDTH 250 0
DWIDTH 4 0
BBX 5 4 -1 -1
BITMAP
F8
88
88
F8
ENDCHAR
STARTCHAR slash
ENCODING 47
SWIDTH 438 0
DWIDTH 7 0
BBX 8 16 -1 -2
BITMAP
1F
11
11
11
11
11
F1
81
81
8F
88
88
88
88
88
F8
ENDCHAR
STARTCHAR zero
ENCODING 48
SWIDTH 625 0
DWIDTH 10 0
BBX 11 15 -1 -1
BITMAP
FFE0
8020
8C20
8C20
8C20
8C20
8C20
8C20
8C20
8C20
8C20
8C20
8C20
8020
FFE0
ENDCHAR
STARTCHAR one
ENCODING 49
SWIDTH 625 0
DWIDTH 10 0
BBX 11 15 -1 -1
BITMAP
FFE0
8020
9820
9820
F820
0820
0820
0820
0820
0820
0820
0820
F820
8020
FFE0
ENDCHAR
STARTCHAR two
ENCODING 50
SWIDTH 625 0
DWIDTH 10 0
BBX 11 15 -1 -1
BITMAP
FFE0
8020
8C20
8C20
8C20
FC20
FC20
8020
83E0
83E0
8320
8320
8320
8020
FFE0
ENDCHAR
STARTCHAR three
ENCODING 51
SWIDTH 625 0
DWIDTH 10 0
BBX 11 15 -1 -1
BITMAP
FFE0
8020
8C20
8C20
8C20
FC20
1C20
1020
1C20
FC20
8C20
8C20
8C20
8020
FFE0
ENDCHAR
STARTCHAR four
ENCODING 52
SWIDTH 625 0
DWIDTH 10 0
BBX 11 15 -1 -1
BITMAP
FFE0
8620
8620
8620
8620
8620
8620
8620
8620
8020
FE20
0220
0220
0220
03E0
ENDCHAR
STARTCHAR five
ENCODING 53
SWIDTH 625 0
DWIDTH 10 0
BBX 11 15 -1 -1
BITMAP
FFE0
8020
8C20
8C20
8FE0
8FE0
8020
FC20
FC20
8C20
8C20
8C20
8C20
8020
FFE0
ENDCHAR
STARTCHAR six
ENCODING 54
SWIDTH 625 0
DWIDTH 10 0
BBX 11 15 -1 -1
BITMAP
FFE0
8020
8620
8620
87E0
87E0
8020
8620
8620
8620
8620
8620
8620
8020
FFE0
ENDCHAR
STARTCHAR seven
ENCODING 55
SWIDTH 625 0
DWIDTH 10 0
BBX 11 15 -1 -1
BITMAP
FFE0
8020
B020
B020
F020
1020
1020
1020
1020
1020
1020
1020
1020
1020
1FE0
ENDCHAR
STARTCHAR eight
ENCODING 56
SWIDTH 625 0
DWIDTH 10 0
BBX 11 15 -1 -1
BITMAP
FFE0
8020
8C20
8C20
8C20
8C20
8C20
8020
8C20
8C20
8C20
8C20
8C20
8020
FFE0
ENDCHAR
STARTCHAR nine
ENCODING 57
SWIDTH 625 0
DWIDTH 10 0
BBX 11 15 -1 -1
BITMAP
FFE0
8020
8C20
8C20
8C20
8C20
8C20
8C20
8020
FC20
FC20
8C20
8C20
8020
FFE0
ENDCHAR
STARTCHAR colon
ENCODING 58
SWIDTH 250 0
DWIDTH 4 0
BBX 5 13 -1 -3
BITMAP
F8
88
88
F8
00
00
00
F8
88
88
C8
48
78
ENDCHAR
STARTCHAR semicolon
ENCODING 59
SWIDTH 250 0
DWIDTH 4 0
BBX 5 11 -1 -1
BITMAP
F8
88
88
F8
00
00
00
F8
88
88
F8
ENDCHAR
STARTCHAR less
ENCODING 60
SWIDTH 625 0
DWIDTH 10 0
BBX 11 10 -1 1
BITMAP
0FE0
0820
F820
83E0
8200
8200
83E0
F820
0820
0FE0
ENDCHAR
STARTCHAR equal
ENCODING 61
SWIDTH 688 0
DWIDTH 11 0
BBX 12 8 -1 3
BITMAP
FFF0
8010
8010
FFF0
FFF0
8010
8010
FFF0
ENDCHAR
STARTCHAR greater
ENCODING 62
SWIDTH 625 0
DWIDTH 10 0
BBX 11 10 -1 1
BITMAP
FE00
8200
83E0
F820
0820
0820
F820
83E0
8200
FE00
ENDCHAR
STARTCHAR question
ENCODING 63
SWIDTH 688 0
DWIDTH 11 0
BBX 12 15 -1 -1
BITMAP
FFF0
8010
8610
8610
8610
8610
FE10
1010
11F0
1100
1100
1F00
1100
1100
1F00
ENDCHAR
STARTCHAR at
ENCODING 64
SWIDTH 875 0
DWIDTH 14 0
BBX 15 15 -1 -2
BITMAP
FFFE
8002
8FC2
8FC2
8842
8A42
8A42
8A42
8A42
8A02
883E
8FF0
8FD0
8010
FFF0
ENDCHAR
STARTCHAR A
ENCODING 65
SWIDTH 750 0
DWIDTH 12 0
BBX 13 15 -1 -1
BITMAP
FFF8
8008
8608
8608
8608
8608
8608
8608
8608
8008
8608
8608
8608
8608
FFF8
ENDCHAR
STARTCHAR B
ENCODING 66
SWIDTH 750 0
DWIDTH 12 0
BBX 13 15 -1 -1
BITMAP
FFF0
8010
8310
8310
8310
8310
8318
8008
8308
8308
8308
8308
8308
8008
FFF8
ENDCHAR
STARTCHAR C
ENCODING 67
SWIDTH 750 0
DWIDTH 12 0
BBX 13 15 -1 -1
BITMAP
FFF8
8008
8308
8308
8308
8308
8308
83F8
8308
8308
8308
8308
8308
8008
FFF8
ENDCHAR
STARTCHAR D
ENCODING 68
SWIDTH 750 0
DWIDTH 12 0
BBX 13 15 -1 -1
BITMAP
FFF8
8008
8C08
8C08
8C08
8C08
8C08
8C08
8C08
8C08
8C08
8C08
8C08
8008
FFF8
ENDCHAR
STARTCHAR E
ENCODING 69
SWIDTH 750 0
DWIDTH 12 0
BBX 13 15 -1 -1
BITMAP
FFF8
8008
8308
8308
8308
83F8
8380
8080
8380
83F8
8308
8308
8308
8008
FFF8
ENDCHAR
STARTCHAR F
ENCODING 70
SWIDTH 750 0
DWIDTH 12 0
BBX 13 15 -1 -1
BITMAP
FFF8
8008
8308
8308
8308
83F8
8380
8080
8380
8200
8200
8200
8200
8200
FE00
ENDCHAR
STARTCHAR G
ENCODING 71
SWIDTH 750 0
DWIDTH 12 0
BBX 13 15 -1 -1
BITMAP
FFF8
8008
8308
8308
8308
8308
83F8
8208
8308
8308
8308
8308
8308
8008
FFF8
ENDCHAR
STARTCHAR H
ENCODING 72
SWIDTH 750 0
DWIDTH 12 0
BBX 13 15 -1 -1
BITMAP
FFF8
8608
8608
8608
8608
8608
8608
8008
8608
8608
8608
8608
8608
8608
FFF8
ENDCHAR
STARTCHAR I
ENCODING 73
SWIDTH 500 0
DWIDTH 8 0
BBX 9 15 -1 -1
BITMAP
FF80
8080
C180
4100
4100
4100
4100
4100
4100
4100
4100
4100
C180
8080
FF80
ENDCHAR
STARTCHAR J
ENCODING 74
SWIDTH 500 0
DWIDTH 8 0
BBX 9 15 -1 -1
BITMAP
3F80
2080
2080
2080
2080
2080
2080
2080
2080
2080
2080
2080
E080
8080
FF80
ENDCHAR
STARTCHAR K
ENCODING 75
SWIDTH 750 0
DWIDTH 12 0
BBX 13 15 -1 -1
BITMAP
FFF8
8308
8318
8310
8310
8310
8318
8008
8308
8308
8308
8308
8308
8308
FFF8
ENDCHAR
STARTCHAR L
ENCODING 76
SWIDTH 750 0
DWIDTH 12 0
BBX 13 15 -1 -1
BITMAP
FE00
8200
8200
8200
8200
8200
8200
8200
8200
8200
83F8
8308
8308
8008
FFF8
ENDCHAR
STARTCHAR M
ENCODING 77
SWIDTH 1062 0
DWIDTH 17 0
BBX 18 15 -1 -1
BITMAP
FFFFC0
800040
8C3040
8C3040
8C3040
8C3040
8C3040
8C3040
8C3040
8C3040
8C3040
8C3040
8C3040
8C3040
FFFFC0
ENDCHAR
STARTCHAR N
ENCODING 78
SWIDTH 750 0
DWIDTH 12 0
BBX 13 15 -1 -1
BITMAP
FFF8
8008
8608
8608
8608
8608
8608
8608
8608
8608
8608
8608
8608
8608
FFF8
ENDCHAR
STARTCHAR O
ENCODING 79
SWIDTH 750 0
DWIDTH 12 0
BBX 13 15 -1 -1
BITMAP
FFF8
8008
8308
8308
8308
8308
8308
8308
8308
8308
8308
8308
8308
8008
FFF8
ENDCHAR
STARTCHAR P
ENCODING 80
SWIDTH 750 0
DWIDTH 12 0
BBX 13 15 -1 -1
BITMAP
FFF8
8008
8308
8308
8308
8308
8308
8308
8008
83F8
8200
8200
8200
8200
FE00
ENDCHAR
STARTCHAR Q
ENCODING 81
SWIDTH 750 0
DWIDTH 12 0
BBX 13 17 -1 -3
BITMAP
FFF8
8008
8608
8608
8608
8608
8608
8608
8608
8608
8608
8608
8608
8078
F808
0808
0FF8
ENDCHAR
STARTCHAR R
ENCODING 82
SWIDTH 750 0
DWIDTH 12 0
BBX 13 15 -1 -1
BITMAP
FFF0
8010
8310
8310
8310
8310
8318
8008
8308
8308
8308
8308
8308
8308
FFF8
ENDCHAR
STARTCHAR S
ENCODING 83
SWIDTH 750 0
DWIDTH 12 0
BBX 13 15 -1 -1
BITMAP
FFF8
8008
8608
8608
8608
8608
87F8
8008
FE08
8608
8608
8608
8608
8008
FFF8
ENDCHAR
STARTCHAR T
ENCODING 84
SWIDTH 750 0
DWIDTH 12 0
BBX 13 15 -1 -1
BITMAP
FFF8
8008
F078
1040
1040
1040
1040
1040
1040
1040
1040
1040
1040
1040
1FC0
ENDCHAR
STARTCHAR U
ENCODING 85
SWIDTH 750 0
DWIDTH 12 0
BBX 13 15 -1 -1
BITMAP
FFF8
8608
8608
8608
8608
8608
8608
8608
8608
8608
8608
8608
8608
8008
FFF8
ENDCHAR
STARTCHAR V
ENCODING 86
SWIDTH 750 0
DWIDTH 12 0
BBX 13 15 -1 -1
BITMAP
FFF8
8188
C188
4188
4188
4188
4188
4188
4188
4188
4188
4188
4188
4008
7FF8
ENDCHAR
STARTCHAR W
ENCODING 87
SWIDTH 1062 0
DWIDTH 17 0
BBX 18 15 -1 -1
BITMAP
FFFFC0
830C40
830C40
830C40
830C40
830C40
830C40
830C40
830C40
830C40
830C40
830C40
830C40
800040
FFFFC0
ENDCHAR
STARTCHAR X
ENCODING 88
SWIDTH 750 0
DWIDTH 12 0
BBX 13 15 -1 -1
BITMAP
FFF8
8308
8308
8308
8308
8308
8008
FCF8
8008
8308
8308
8308
8308
8308
FFF8
ENDCHAR
STARTCHAR Y
ENCODING 89
SWIDTH 750 0
DWIDTH 12 0
BBX 13 15 -1 -1
BITMAP
FFF8
8608
8608
8608
8608
8608
8608
8008
F078
1040
1040
1040
1040
1040
1FC0
ENDCHAR
STARTCHAR Z
ENCODING 90
SWIDTH 750 0
DWIDTH 12 0
BBX 13 15 -1 -1
BITMAP
FFF8
8008
8308
FF08
0108
0108
FF08
8008
83F8
8200
8200
83F8
8308
8008
FFF8
ENDCHAR
STARTCHAR bracketleft
ENCODING 91
SWIDTH 375 0
DWIDTH 6 0
BBX 7 19 -1 -4
BITMAP
FE
82
8E
88
88
88
88
88
88
88
88
88
88
88
88
88
8E
82
FE
ENDCHAR
STARTCHAR backslash
ENCODING 92
SWIDTH 438 0
DWIDTH 7 0
BBX 8 16 -1 -2
BITMAP
F8
88
88
88
88
88
8F
81
81
F1
11
11
11
11
11
1F
ENDCHAR
STARTCHAR bracketright
ENCODING 93
SWIDTH 375 0
DWIDTH 6 0
BBX 7 19 -1 -4
BITMAP
FE
82
E2
22
22
22
22
22
22
22
22
22
22
22
22
22
E2
82
FE
ENDCHAR
STARTCHAR asciicircum
ENCODING 94
SWIDTH 438 0
DWIDTH 7 0
BBX 8 7 -1 7
BITMAP
3C
24
E7
81
99
99
FF
ENDCHAR
STARTCHAR underscore
ENCODING 95
SWIDTH 750 0
DWIDTH 12 0
BBX 13 4 -1 -4
BITMAP
FFF8
8008
8008
FFF8
ENDCHAR
STARTCHAR grave
ENCODING 96
SWIDTH 312 0
DWIDTH 5 0
BBX 6 6 -1 9
BITMAP
F0
9C
84
84
E4
3C
ENDCHAR
STARTCHAR a
ENCODING 97
SWIDTH 625 0
DWIDTH 10 0
BBX 11 11 -1 -1
BITMAP
FFE0
8020
8C20
8C20
FC20
8020
8C20
8C20
8C20
8020
FFE0
ENDCHAR
STARTCHAR b
ENCODING 98
SWIDTH 625 0
DWIDTH 10 0
BBX 11 15 -1 -1
BITMAP
FC00
8400
8400
8400
87E0
8020
8620
8620
8620
8620
8620
8620
8620
8020
FFE0
ENDCHAR
STARTCHAR c
ENCODING 99
SWIDTH 625 0
DWIDTH 10 0
BBX 11 11 -1 -1
BITMAP
FFE0
8020
8620
8620
8620
87E0
8620
8620
8620
8020
FFE0
ENDCHAR
STARTCHAR d
ENCODING 100
SWIDTH 625 0
DWIDTH 10 0
BBX 11 15 -1 -1
BITMAP
07E0
0420
0420
0420
FC20
8020
8C20
8C20
8C20
8C20
8C20
8C20
8C20
8020
FFE0
ENDCHAR
STARTCHAR e
ENCODING 101
SWIDTH 625 0
DWIDTH 10 0
BBX 11 11 -1 -1
BITMAP
FFE0
8020
8620
8620
8620
8020
87E0
8620
8620
8020
FFE0
ENDCHAR
STARTCHAR f
ENCODING 102
SWIDTH 500 0
DWIDTH 8 0
BBX 9 15 -1 -1
BITMAP
FF80
8080
8680
8780
8600
8200
8600
8400
8400
8400
8400
8400
8400
8400
FC00
ENDCHAR
STARTCHAR g
ENCODING 103
SWIDTH 625 0
DWIDTH 10 0
BBX 11 15 -1 -5
BITMAP
FFE0
8020
8C20
8C20
8C20
8C20
8C20
8C20
8C20
8020
FC20
8C20
8C20
8020
FFE0
ENDCHAR
STARTCHAR h
ENCODING 104
SWIDTH 625 0
DWIDTH 10 0
BBX 11 15 -1 -1
BITMAP
F800
8800
8800
8800
8FE0
8020
8C20
8C20
8C20
8C20
8C20
8C20
8C20
8C20
FFE0
ENDCHAR
STARTCHAR i
ENCODING 105
SWIDTH 312 0
DWIDTH 5 0
BBX 6 13 -1 -1
BITMAP
FC
84
FC
84
84
84
84
84
84
84
84
84
FC
ENDCHAR
STARTCHAR j
ENCODING 106
SWIDTH 438 0
DWIDTH 7 0
BBX 8 17 -1 -5
BITMAP
3F
21
3F
21
21
21
21
21
21
21
21
21
21
21
E1
81
FF
ENDCHAR
STARTCHAR k
ENCODING 107
SWIDTH 625 0
DWIDTH 10 0
BBX 11 15 -1 -1
BITMAP
FC00
8400
8400
8400
87E0
8620
8660
8660
8020
8620
8620
8620
8620
8620
FFE0
ENDCHAR
STARTCHAR l
ENCODING 108
SWIDTH 375 0
DWIDTH 6 0
BBX 7 15 -1 -1
BITMAP
FC
84
84
84
84
84
84
84
84
84
84
84
86
82
FE
ENDCHAR
STARTCHAR m
ENCODING 109
SWIDTH 875 0
DWIDTH 14 0
BBX 15 11 -1 -1
BITMAP
FFFE
8002
98C2
98C2
98C2
98C2
98C2
98C2
98C2
98C2
FFFE
ENDCHAR
STARTCHAR n
ENCODING 110
SWIDTH 625 0
DWIDTH 10 0
BBX 11 11 -1 -1
BITMAP
FFE0
8020
8620
8620
8620
8620
8620
8620
8620
8620
FFE0
ENDCHAR
STARTCHAR o
ENCODING 111
SWIDTH 625 0
DWIDTH 10 0
BBX 11 11 -1 -1
BITMAP
FFE0
8020
8620
8620
8620
8620
8620
8620
8620
8020
FFE0
ENDCHAR
STARTCHAR p
ENCODING 112
SWIDTH 625 0
DWIDTH 10 0
BBX 11 15 -1 -5
BITMAP
FFE0
8020
8620
8620
8620
8620
8620
8620
8620
8020
87E0
8400
8400
8400
FC00
ENDCHAR
STARTCHAR q
ENCODING 113
SWIDTH 625 0
DWIDTH 10 0
BBX 11 15 -1 -5
BITMAP
FFE0
8020
8C20
8C20
8C20
8C20
8C20
8C20
8C20
8020
FC20
0420
0420
0420
07E0
ENDCHAR
STARTCHAR r
ENCODING 114
SWIDTH 375 0
DWIDTH 6 0
BBX 7 11 -1 -1
BITMAP
FE
82
86
84
84
84
84
84
84
84
FC
ENDCHAR
STARTCHAR s
ENCODING 115
SWIDTH 625 0
DWIDTH 10 0
BBX 11 11 -1 -1
BITMAP
FFE0
8020
8C20
8C20
8FE0
8020
FC20
8C20
8C20
8020
FFE0
ENDCHAR
STARTCHAR t
ENCODING 116
SWIDTH 500 0
DWIDTH 8 0
BBX 9 15 -1 -1
BITMAP
FC00
8400
8400
8400
8700
8100
8700
8400
8400
8400
8400
8780
8680
8080
FF80
ENDCHAR
STARTCHAR u
ENCODING 117
SWIDTH 625 0
DWIDTH 10 0
BBX 11 11 -1 -1
BITMAP
FFE0
8C20
8C20
8C20
8C20
8C20
8C20
8C20
8C20
8020
FFE0
ENDCHAR
STARTCHAR v
ENCODING 118
SWIDTH 625 0
DWIDTH 10 0
BBX 11 11 -1 -1
BITMAP
FFE0
8320
C320
4320
4320
4320
4320
4320
4320
4020
7FE0
ENDCHAR
STARTCHAR w
ENCODING 119
SWIDTH 875 0
DWIDTH 14 0
BBX 15 11 -1 -1
BITMAP
FFFE
8632
8632
8632
8632
8632
8632
8632
8632
8002
FFFE
ENDCHAR
STARTCHAR x
ENCODING 120
SWIDTH 625 0
DWIDTH 10 0
BBX 11 11 -1 -1
BITMAP
FFE0
8620
8620
8620
8620
F0E0
8620
8620
8620
8620
FFE0
ENDCHAR
STARTCHAR y
ENCODING 121
SWIDTH 625 0
DWIDTH 10 0
BBX 11 15 -1 -5
BITMAP
FFE0
8C20
8C20
8C20
8C20
8C20
8C20
8C20
8C20
8020
FC20
8C20
8C20
8020
FFE0
ENDCHAR
STARTCHAR z
ENCODING 122
SWIDTH 625 0
DWIDTH 10 0
BBX 11 11 -1 -1
BITMAP
FFE0
8020
8620
FE20
FE20
8020
87E0
87E0
8620
8020
FFE0
ENDCHAR
STARTCHAR braceleft
ENCODING 123
SWIDTH 438 0
DWIDTH 7 0
BBX 8 19 -1 -4
BITMAP
3F
61
47
44
44
44
44
C4
8C
88
8C
C4
44
44
44
44
47
61
3F
ENDCHAR
STARTCHAR bar
ENCODING 124
SWIDTH 250 0
DWIDTH 4 0
BBX 5 19 -1 -4
BITMAP
F8
88
88
88
88
88
88
88
88
88
88
88
88
88
88
88
88
88
F8
ENDCHAR
STARTCHAR braceright
ENCODING 125
SWIDTH 438 0
DWIDTH 7 0
BBX 8 19 -1 -4
BITMAP
FC
86
E2
22
22
22
22
23
31
11
31
23
22
22
22
22
E2
86
FC
ENDCHAR
STARTCHAR asciitilde
ENCODING 126
SWIDTH 812 0
DWIDTH 13 0
BBX 14 5 -1 3
BITMAP
1F7C
F1C4
8004
8E3C
FBE0
ENDCHAR
STARTCHAR exclamdown
ENCODING 161
SWIDTH 250 0
DWIDTH 4 0
BBX 5 15 -1 -1
BITMAP
F8
88
88
F8
88
88
88
88
88
88
88
88
88
88
F8
ENDCHAR
STARTCHAR cent
ENCODING 162
SWIDTH 688 0
DWIDTH 11 0
BBX 12 18 -1 -3
BITMAP
0F00
0900
0900
0900
F9F0
8010
8610
8610
8610
87F0
8610
8610
8610
8010
F9F0
0900
0900
0F00
ENDCHAR
STARTCHAR sterling
ENCODING 163
SWIDTH 688 0
DWIDTH 11 0
BBX 12 15 -1 -1
BITMAP
7FF0
4010
4610
47F0
4400
4400
C700
8100
C700
4400
C7F0
8610
8610
8010
FFF0
ENDCHAR
STARTCHAR yen
ENCODING 165
SWIDTH 688 0
DWIDTH 11 0
BBX 12 15 -1 -1
BITMAP
FFF0
8610
8610
8610
8610
8610
8610
8010
F8F0
2020
38E0
2020
38E0
0880
0F80
ENDCHAR
STARTCHAR copyright
ENCODING 169
SWIDTH 1000 0
DWIDTH 16 0
BBX 17 15 -1 -1
BITMAP
FFFF80
800080
8FF080
881080
889080
889080
889080
88F080
889080
889080
889080
881080
8FF080
800080
FFFF80
ENDCHAR
STARTCHAR registered
ENCODING 174
SWIDTH 1000 0
DWIDTH 16 0
BBX 17 15 -1 -1
BITMAP
FFFF80
800080
8FF080
883080
88B080
88B080
88B080
881080
889080
889080
889080
889080
8FF080
800080
FFFF80
ENDCHAR
STARTCHAR acute
ENCODING 180
SWIDTH 250 0
DWIDTH 4 0
BBX 5 6 -1 9
BITMAP
F8
88
88
88
C8
78
ENDCHAR
STARTCHAR questiondown
ENCODING 191
SWIDTH 688 0
DWIDTH 11 0
BBX 12 15 -1 -1
BITMAP
0F80
0880
0880
0F80
0880
0880
F880
8080
87F0
8610
8610
8610
8610
8010
FFF0
ENDCHAR
STARTCHAR quoteleft
ENCODING 8216
SWIDTH 250 0
DWIDTH 4 0
BBX 5 6 -1 9
BITMAP
F0
98
88
88
88
F8
ENDCHAR
STARTCHAR quoteright
ENCODING 8217
SWIDTH 250 0
DWIDTH 4 0
BBX 5 6 -1 9
BITMAP
F8
88
88
88
C8
78
ENDCHAR
STARTCHAR quotedblleft
ENCODING 8220
SWIDTH 500 0
DWIDTH 8 0
BBX 9 6 -1 9
BITMAP
FF00
9980
8880
8880
8880
FF80
ENDCHAR
STARTCHAR quotedblright
ENCODING 8221
SWIDTH 500 0
DWIDTH 8 0
BBX 9 6 -1 9
BITMAP
FF80
8880
8880
8880
CC80
7F80
ENDCHAR
STARTCHAR uni20ac
ENCODING 8364
SWIDTH 688 0
DWIDTH 11 0
BBX 12 15 -1 -1
BITMAP
7FF0
4010
4310
43F0
4200
C380
8080
C380
8080
C380
4200
43F0
4310
4010
7FF0
ENDCHAR
STARTCHAR uni220e
ENCODING 8718
SWIDTH 750 0
DWIDTH 12 0
BBX 13 15 -1 -1
BITMAP
FFF8
8008
8008
8008
8008
8008
8008
8008
8008
8008
8008
8008
8008
8008
FFF8
ENDCHAR
STARTCHAR .notdef
ENCODING -1
SWIDTH 500 0
DWIDTH 8 0
BBX 6 13 0 1
BITMAP
FC
84
84
84
84
84
84
84
84
84
84
84
FC
ENDCHAR
ENDFONT
