STARTFONT 2.1
FONT Floppy Pixel Soft-Stroke-16px
SIZE 16 75 75
FONTBOUNDINGBOX 18 20 -1 -5
STARTPROPERTIES 5
PIXEL_SIZE 16
FONT_ASCENT 13
FONT_DESCENT 4
CHARSET_REGISTRY "ISO10646"
CHARSET_ENCODING "1"
ENDPROPERTIES
CHARS 112
STARTCHAR .null
ENCODING 0
SWIDTH 0 0
DWIDTH 0 0
BBX 1 1 0 0
BITMAP
00
ENDCHAR
STARTCHAR nonmarkingreturn
ENCODING 13
SWIDTH 0 0
DWIDTH 0 0
BBX 1 1 0 0
BITMAP
00
ENDCHAR
STARTCHAR space
ENCODING 32
SWIDTH 250 0
DWIDTH 4 0
BBX 1 1 0 0
BITMAP
00
ENDCHAR
STARTCHAR exclam
ENCODING 33
SWIDTH 250 0
DWIDTH 4 0
BBX 5 15 -1 -1
BITMAP
70
88
88
88
88
88
88
88
88
88
88
70
88
88
70
ENDCHAR
STARTCHAR quotedbl
ENCODING 34
SWIDTH 500 0
DWIDTH 8 0
BBX 9 5 -1 9
BITMAP
7700
8880
8880
8880
7700
ENDCHAR
STARTCHAR numbersign
ENCODING 35
SWIDTH 750 0
DWIDTH 12 0
BBX 13 11 -1 -1
BITMAP
1CE0
2310
2310
4008
2310
4210
4620
8010
4620
4620
39C0
ENDCHAR
STARTCHAR dollar
ENCODING 36
SWIDTH 688 0
DWIDTH 11 0
BBX 12 18 -1 -3
BITMAP
0600
79E0
8010
8610
8610
8610
8610
87E0
8010
7E10
8610
8610
8610
8610
8010
79E0
0900
0600
ENDCHAR
STARTCHAR percent
ENCODING 37
SWIDTH 938 0
DWIDTH 15 0
BBX 16 16 -1 -2
BITMAP
00E0
7D10
8310
B310
B310
B310
B310
801E
7801
08D9
08D9
08D9
08D9
08C1
08BE
0700
ENDCHAR
STARTCHAR ampersand
ENCODING 38
SWIDTH 812 0
DWIDTH 13 0
BBX 14 15 -1 -1
BITMAP
3F80
4040
4640
4640
4640
4640
4640
8078
8CC4
8CC8
8C08
8C18
8C04
8044
7FB8
ENDCHAR
STARTCHAR quotesingle
ENCODING 39
SWIDTH 250 0
DWIDTH 4 0
BBX 5 5 -1 9
BITMAP
70
88
88
88
70
ENDCHAR
STARTCHAR parenleft
ENCODING 40
SWIDTH 438 0
DWIDTH 7 0
BBX 8 19 -1 -4
BITMAP
3E
41
46
84
84
88
88
88
88
88
88
88
88
88
84
84
46
41
3E
ENDCHAR
STARTCHAR parenright
ENCODING 41
SWIDTH 438 0
DWIDTH 7 0
BBX 8 19 -1 -4
BITMAP
7C
82
62
21
21
11
11
11
11
11
11
11
11
11
21
21
62
82
7C
ENDCHAR
STARTCHAR asterisk
ENCODING 42
SWIDTH 500 0
DWIDTH 8 0
BBX 9 10 -1 5
BITMAP
0800
1400
7700
8080
6300
6300
8080
7700
1400
0800
ENDCHAR
STARTCHAR plus
ENCODING 43
SWIDTH 750 0
DWIDTH 12 0
BBX 13 12 -1 1
BITMAP
0700
0880
0880
0880
78F0
8008
8008
78F0
0880
0880
0880
0700
ENDCHAR
STARTCHAR comma
ENCODING 44
SWIDTH 250 0
DWIDTH 4 0
BBX 5 6 -1 -3
BITMAP
70
88
88
48
48
30
ENDCHAR
STARTCHAR hyphen
ENCODING 45
SWIDTH 375 0
DWIDTH 6 0
BBX 7 4 -1 3
BITMAP
7C
82
82
7C
ENDCHAR
STARTCHAR period
ENCODING 46
SWIDTH 250 0
DWIDTH 4 0
BBX 5 4 -1 -1
BITMAP
70
88
88
70
ENDCHAR
STARTCHAR slash
ENCODING 47
SWIDTH 438 0
DWIDTH 7 0
BBX 8 16 -1 -2
BITMAP
0E
11
11
11
11
11
71
81
81
8E
88
88
88
88
88
70
ENDCHAR
STARTCHAR zero
ENCODING 48
SWIDTH 625 0
DWIDTH 10 0
BBX 11 15 -1 -1
BITMAP
7FC0
8020
8C20
8C20
8C20
8C20
8C20
8C20
8C20
8C20
8C20
8C20
8C20
8020
7FC0
ENDCHAR
STARTCHAR one
ENCODING 49
SWIDTH 625 0
DWIDTH 10 0
BBX 11 15 -1 -1
BITMAP
7FC0
8020
9820
9820
6820
0820
0820
0820
0820
0820
0820
0820
7820
8020
7FC0
ENDCHAR
STARTCHAR two
ENCODING 50
SWIDTH 625 0
DWIDTH 10 0
BBX 11 15 -1 -1
BITMAP
7FC0
8020
8C20
8C20
8C20
7420
7C20
8020
83C0
82C0
8320
8320
8320
8020
7FC0
ENDCHAR
STARTCHAR three
ENCODING 51
SWIDTH 625 0
DWIDTH 10 0
BBX 11 15 -1 -1
BITMAP
7FC0
8020
8C20
8C20
8C20
7420
0C20
1020
0C20
7420
8C20
8C20
8C20
8020
7FC0
ENDCHAR
STARTCHAR four
ENCODING 52
SWIDTH 625 0
DWIDTH 10 0
BBX 11 15 -1 -1
BITMAP
79C0
8620
8620
8620
8620
8620
8620
8620
8620
8020
7E20
0220
0220
0220
01C0
ENDCHAR
STARTCHAR five
ENCODING 53
SWIDTH 625 0
DWIDTH 10 0
BBX 11 15 -1 -1
BITMAP
7FC0
8020
8C20
8C20
8BC0
8FC0
8020
7C20
7420
8C20
8C20
8C20
8C20
8020
7FC0
ENDCHAR
STARTCHAR six
ENCODING 54
SWIDTH 625 0
DWIDTH 10 0
BBX 11 15 -1 -1
BITMAP
7FC0
8020
8620
8620
85C0
87C0
8020
8620
8620
8620
8620
8620
8620
8020
7FC0
ENDCHAR
STARTCHAR seven
ENCODING 55
SWIDTH 625 0
DWIDTH 10 0
BBX 11 15 -1 -1
BITMAP
7FC0
8020
B020
B020
5020
1020
1020
1020
1020
1020
1020
1020
1020
1020
0FC0
ENDCHAR
STARTCHAR eight
ENCODING 56
SWIDTH 625 0
DWIDTH 10 0
BBX 11 15 -1 -1
BITMAP
7FC0
8020
8C20
8C20
8C20
8C20
8C20
8020
8C20
8C20
8C20
8C20
8C20
8020
7FC0
ENDCHAR
STARTCHAR nine
ENCODING 57
SWIDTH 625 0
DWIDTH 10 0
BBX 11 15 -1 -1
BITMAP
7FC0
8020
8C20
8C20
8C20
8C20
8C20
8C20
8020
7C20
7420
8C20
8C20
8020
7FC0
ENDCHAR
STARTCHAR colon
ENCODING 58
SWIDTH 250 0
DWIDTH 4 0
BBX 5 13 -1 -3
BITMAP
70
88
88
70
00
00
00
70
88
88
48
48
30
ENDCHAR
STARTCHAR semicolon
ENCODING 59
SWIDTH 250 0
DWIDTH 4 0
BBX 5 11 -1 -1
BITMAP
70
88
88
70
00
00
00
70
88
88
70
ENDCHAR
STARTCHAR less
ENCODING 60
SWIDTH 625 0
DWIDTH 10 0
BBX 11 10 -1 1
BITMAP
07C0
0820
7820
83C0
8200
8200
83C0
7820
0820
07C0
ENDCHAR
STARTCHAR equal
ENCODING 61
SWIDTH 688 0
DWIDTH 11 0
BBX 12 8 -1 3
BITMAP
7FE0
8010
8010
7FE0
7FE0
8010
8010
7FE0
ENDCHAR
STARTCHAR greater
ENCODING 62
SWIDTH 625 0
DWIDTH 10 0
BBX 11 10 -1 1
BITMAP
7C00
8200
83C0
7820
0820
0820
7820
83C0
8200
7C00
ENDCHAR
STARTCHAR question
ENCODING 63
SWIDTH 688 0
DWIDTH 11 0
BBX 12 15 -1 -1
BITMAP
7FE0
8010
8610
8610
8610
8610
7E10
1010
11E0
1100
1100
0E00
1100
1100
0E00
ENDCHAR
STARTCHAR at
ENCODING 64
SWIDTH 875 0
DWIDTH 14 0
BBX 15 15 -1 -2
BITMAP
7FFC
8002
8FC2
8FC2
8842
8A42
8A42
8A42
8A42
8A02
883C
8FE0
8FD0
8010
7FE0
ENDCHAR
STARTCHAR A
ENCODING 65
SWIDTH 750 0
DWIDTH 12 0
BBX 13 15 -1 -1
BITMAP
7FF0
8008
8608
8608
8608
8608
8608
8608
8608
8008
8608
8608
8608
8608
79F0
ENDCHAR
STARTCHAR B
ENCODING 66
SWIDTH 750 0
DWIDTH 12 0
BBX 13 15 -1 -1
BITMAP
7FE0
8010
8310
8310
8310
8310
8310
8008
8308
8308
8308
8308
8308
8008
7FF0
ENDCHAR
STARTCHAR C
ENCODING 67
SWIDTH 750 0
DWIDTH 12 0
BBX 13 15 -1 -1
BITMAP
7FF0
8008
8308
8308
8308
8308
8308
82F0
8308
8308
8308
8308
8308
8008
7FF0
ENDCHAR
STARTCHAR D
ENCODING 68
SWIDTH 750 0
DWIDTH 12 0
BBX 13 15 -1 -1
BITMAP
7FF0
8008
8C08
8C08
8C08
8C08
8C08
8C08
8C08
8C08
8C08
8C08
8C08
8008
7FF0
ENDCHAR
STARTCHAR E
ENCODING 69
SWIDTH 750 0
DWIDTH 12 0
BBX 13 15 -1 -1
BITMAP
7FF0
8008
8308
8308
8308
82F0
8300
8080
8300
82F0
8308
8308
8308
8008
7FF0
ENDCHAR
STARTCHAR F
ENCODING 70
SWIDTH 750 0
DWIDTH 12 0
BBX 13 15 -1 -1
BITMAP
7FF0
8008
8308
8308
8308
82F0
8300
8080
8300
8200
8200
8200
8200
8200
7C00
ENDCHAR
STARTCHAR G
ENCODING 71
SWIDTH 750 0
DWIDTH 12 0
BBX 13 15 -1 -1
BITMAP
7FF0
8008
8308
8308
8308
8308
83F0
8208
8308
8308
8308
8308
8308
8008
7FF0
ENDCHAR
STARTCHAR H
ENCODING 72
SWIDTH 750 0
DWIDTH 12 0
BBX 13 15 -1 -1
BITMAP
79F0
8608
8608
8608
8608
8608
8608
8008
8608
8608
8608
8608
8608
8608
79F0
ENDCHAR
STARTCHAR I
ENCODING 73
SWIDTH 500 0
DWIDTH 8 0
BBX 9 15 -1 -1
BITMAP
7F00
8080
4100
4100
4100
4100
4100
4100
4100
4100
4100
4100
4100
8080
7F00
ENDCHAR
STARTCHAR J
ENCODING 74
SWIDTH 500 0
DWIDTH 8 0
BBX 9 15 -1 -1
BITMAP
1F00
2080
2080
2080
2080
2080
2080
2080
2080
2080
2080
2080
6080
8080
7F00
ENDCHAR
STARTCHAR K
ENCODING 75
SWIDTH 750 0
DWIDTH 12 0
BBX 13 15 -1 -1
BITMAP
7CF0
8308
8310
8310
8310
8310
8310
8008
8308
8308
8308
8308
8308
8308
7CF0
ENDCHAR
STARTCHAR L
ENCODING 76
SWIDTH 750 0
DWIDTH 12 0
BBX 13 15 -1 -1
BITMAP
7C00
8200
8200
8200
8200
8200
8200
8200
8200
8200
82F0
8308
8308
8008
7FF0
ENDCHAR
STARTCHAR M
ENCODING 77
SWIDTH 1062 0
DWIDTH 17 0
BBX 18 15 -1 -1
BITMAP
7FFF80
800040
8C3040
8C3040
8C3040
8C3040
8C3040
8C3040
8C3040
8C3040
8C3040
8C3040
8C3040
8C3040
73CF80
ENDCHAR
STARTCHAR N
ENCODING 78
SWIDTH 750 0
DWIDTH 12 0
BBX 13 15 -1 -1
BITMAP
7FF0
8008
8608
8608
8608
8608
8608
8608
8608
8608
8608
8608
8608
8608
79F0
ENDCHAR
STARTCHAR O
ENCODING 79
SWIDTH 750 0
DWIDTH 12 0
BBX 13 15 -1 -1
BITMAP
7FF0
8008
8308
8308
8308
8308
8308
8308
8308
8308
8308
8308
8308
8008
7FF0
ENDCHAR
STARTCHAR P
ENCODING 80
SWIDTH 750 0
DWIDTH 12 0
BBX 13 15 -1 -1
BITMAP
7FF0
8008
8308
8308
8308
8308
8308
8308
8008
83F0
8200
8200
8200
8200
7C00
ENDCHAR
STARTCHAR Q
ENCODING 81
SWIDTH 750 0
DWIDTH 12 0
BBX 13 17 -1 -3
BITMAP
7FF0
8008
8608
8608
8608
8608
8608
8608
8608
8608
8608
8608
8608
8070
7808
0808
07F0
ENDCHAR
STARTCHAR R
ENCODING 82
SWIDTH 750 0
DWIDTH 12 0
BBX 13 15 -1 -1
BITMAP
7FE0
8010
8310
8310
8310
8310
8310
8008
8308
8308
8308
8308
8308
8308
7CF0
ENDCHAR
STARTCHAR S
ENCODING 83
SWIDTH 750 0
DWIDTH 12 0
BBX 13 15 -1 -1
BITMAP
7FF0
8008
8608
8608
8608
8608
87F0
8008
7E08
8608
8608
8608
8608
8008
7FF0
ENDCHAR
STARTCHAR T
ENCODING 84
SWIDTH 750 0
DWIDTH 12 0
BBX 13 15 -1 -1
BITMAP
7FF0
8008
7070
1040
1040
1040
1040
1040
1040
1040
1040
1040
1040
1040
0F80
ENDCHAR
STARTCHAR U
ENCODING 85
SWIDTH 750 0
DWIDTH 12 0
BBX 13 15 -1 -1
BITMAP
79F0
8608
8608
8608
8608
8608
8608
8608
8608
8608
8608
8608
8608
8008
7FF0
ENDCHAR
STARTCHAR V
ENCODING 86
SWIDTH 750 0
DWIDTH 12 0
BBX 13 15 -1 -1
BITMAP
7E70
8188
4188
4188
4188
4188
4188
4188
4188
4188
4188
4188
4188
4008
3FF0
ENDCHAR
STARTCHAR W
ENCODING 87
SWIDTH 1062 0
DWIDTH 17 0
BBX 18 15 -1 -1
BITMAP
7CF380
830C40
830C40
830C40
830C40
830C40
830C40
830C40
830C40
830C40
830C40
830C40
830C40
800040
7FFF80
ENDCHAR
STARTCHAR X
ENCODING 88
SWIDTH 750 0
DWIDTH 12 0
BBX 13 15 -1 -1
BITMAP
7CF0
8308
8308
8308
8308
8308
8008
7CF0
8008
8308
8308
8308
8308
8308
7CF0
ENDCHAR
STARTCHAR Y
ENCODING 89
SWIDTH 750 0
DWIDTH 12 0
BBX 13 15 -1 -1
BITMAP
79F0
8608
8608
8608
8608
8608
8608
8008
7070
1040
1040
1040
1040
1040
0F80
ENDCHAR
STARTCHAR Z
ENCODING 90
SWIDTH 750 0
DWIDTH 12 0
BBX 13 15 -1 -1
BITMAP
7FF0
8008
8308
7D08
0108
0108
7F08
8008
83F0
8200
8200
82F0
8308
8008
7FF0
ENDCHAR
STARTCHAR bracketleft
ENCODING 91
SWIDTH 375 0
DWIDTH 6 0
BBX 7 19 -1 -4
BITMAP
7C
82
8C
88
88
88
88
88
88
88
88
88
88
88
88
88
8C
82
7C
ENDCHAR
STARTCHAR backslash
ENCODING 92
SWIDTH 438 0
DWIDTH 7 0
BBX 8 16 -1 -2
BITMAP
70
88
88
88
88
88
8E
81
81
71
11
11
11
11
11
0E
ENDCHAR
STARTCHAR bracketright
ENCODING 93
SWIDTH 375 0
DWIDTH 6 0
BBX 7 19 -1 -4
BITMAP
7C
82
62
22
22
22
22
22
22
22
22
22
22
22
22
22
62
82
7C
ENDCHAR
STARTCHAR asciicircum
ENCODING 94
SWIDTH 438 0
DWIDTH 7 0
BBX 8 7 -1 7
BITMAP
18
24
66
81
99
99
66
ENDCHAR
STARTCHAR underscore
ENCODING 95
SWIDTH 750 0
DWIDTH 12 0
BBX 13 4 -1 -4
BITMAP
7FF0
8008
8008
7FF0
ENDCHAR
STARTCHAR grave
ENCODING 96
SWIDTH 312 0
DWIDTH 5 0
BBX 6 6 -1 9
BITMAP
60
98
84
84
64
18
ENDCHAR
STARTCHAR a
ENCODING 97
SWIDTH 625 0
DWIDTH 10 0
BBX 11 11 -1 -1
BITMAP
7FC0
8020
8C20
8C20
7C20
8020
8C20
8C20
8C20
8020
7FC0
ENDCHAR
STARTCHAR b
ENCODING 98
SWIDTH 625 0
DWIDTH 10 0
BBX 11 15 -1 -1
BITMAP
7800
8400
8400
8400
87C0
8020
8620
8620
8620
8620
8620
8620
8620
8020
7FC0
ENDCHAR
STARTCHAR c
ENCODING 99
SWIDTH 625 0
DWIDTH 10 0
BBX 11 11 -1 -1
BITMAP
7FC0
8020
8620
8620
8620
85C0
8620
8620
8620
8020
7FC0
ENDCHAR
STARTCHAR d
ENCODING 100
SWIDTH 625 0
DWIDTH 10 0
BBX 11 15 -1 -1
BITMAP
03C0
0420
0420
0420
7C20
8020
8C20
8C20
8C20
8C20
8C20
8C20
8C20
8020
7FC0
ENDCHAR
STARTCHAR e
ENCODING 101
SWIDTH 625 0
DWIDTH 10 0
BBX 11 11 -1 -1
BITMAP
7FC0
8020
8620
8620
8620
8020
87C0
8620
8620
8020
7FC0
ENDCHAR
STARTCHAR f
ENCODING 102
SWIDTH 500 0
DWIDTH 8 0
BBX 9 15 -1 -1
BITMAP
7F00
8080
8680
8500
8400
8200
8400
8400
8400
8400
8400
8400
8400
8400
7800
ENDCHAR
STARTCHAR g
ENCODING 103
SWIDTH 625 0
DWIDTH 10 0
BBX 11 15 -1 -5
BITMAP
7FC0
8020
8C20
8C20
8C20
8C20
8C20
8C20
8C20
8020
7C20
8C20
8C20
8020
7FC0
ENDCHAR
STARTCHAR h
ENCODING 104
SWIDTH 625 0
DWIDTH 10 0
BBX 11 15 -1 -1
BITMAP
7000
8800
8800
8800
8FC0
8020
8C20
8C20
8C20
8C20
8C20
8C20
8C20
8C20
73C0
ENDCHAR
STARTCHAR i
ENCODING 105
SWIDTH 312 0
DWIDTH 5 0
BBX 6 13 -1 -1
BITMAP
78
84
78
84
84
84
84
84
84
84
84
84
78
ENDCHAR
STARTCHAR j
ENCODING 106
SWIDTH 438 0
DWIDTH 7 0
BBX 8 17 -1 -5
BITMAP
1E
21
1E
21
21
21
21
21
21
21
21
21
21
21
61
81
7E
ENDCHAR
STARTCHAR k
ENCODING 107
SWIDTH 625 0
DWIDTH 10 0
BBX 11 15 -1 -1
BITMAP
7800
8400
8400
8400
85C0
8620
8640
8640
8020
8620
8620
8620
8620
8620
79C0
ENDCHAR
STARTCHAR l
ENCODING 108
SWIDTH 375 0
DWIDTH 6 0
BBX 7 15 -1 -1
BITMAP
78
84
84
84
84
84
84
84
84
84
84
84
84
82
7C
ENDCHAR
STARTCHAR m
ENCODING 109
SWIDTH 875 0
DWIDTH 14 0
BBX 15 11 -1 -1
BITMAP
7FFC
8002
98C2
98C2
98C2
98C2
98C2
98C2
98C2
98C2
673C
ENDCHAR
STARTCHAR n
ENCODING 110
SWIDTH 625 0
DWIDTH 10 0
BBX 11 11 -1 -1
BITMAP
7FC0
8020
8620
8620
8620
8620
8620
8620
8620
8620
79C0
ENDCHAR
STARTCHAR o
ENCODING 111
SWIDTH 625 0
DWIDTH 10 0
BBX 11 11 -1 -1
BITMAP
7FC0
8020
8620
8620
8620
8620
8620
8620
8620
8020
7FC0
ENDCHAR
STARTCHAR p
ENCODING 112
SWIDTH 625 0
DWIDTH 10 0
BBX 11 15 -1 -5
BITMAP
7FC0
8020
8620
8620
8620
8620
8620
8620
8620
8020
87C0
8400
8400
8400
7800
ENDCHAR
STARTCHAR q
ENCODING 113
SWIDTH 625 0
DWIDTH 10 0
BBX 11 15 -1 -5
BITMAP
7FC0
8020
8C20
8C20
8C20
8C20
8C20
8C20
8C20
8020
7C20
0420
0420
0420
03C0
ENDCHAR
STARTCHAR r
ENCODING 114
SWIDTH 375 0
DWIDTH 6 0
BBX 7 11 -1 -1
BITMAP
7C
82
84
84
84
84
84
84
84
84
78
ENDCHAR
STARTCHAR s
ENCODING 115
SWIDTH 625 0
DWIDTH 10 0
BBX 11 11 -1 -1
BITMAP
7FC0
8020
8C20
8C20
8FC0
8020
7C20
8C20
8C20
8020
7FC0
ENDCHAR
STARTCHAR t
ENCODING 116
SWIDTH 500 0
DWIDTH 8 0
BBX 9 15 -1 -1
BITMAP
7800
8400
8400
8400
8600
8100
8600
8400
8400
8400
8400
8500
8680
8080
7F00
ENDCHAR
STARTCHAR u
ENCODING 117
SWIDTH 625 0
DWIDTH 10 0
BBX 11 11 -1 -1
BITMAP
73C0
8C20
8C20
8C20
8C20
8C20
8C20
8C20
8C20
8020
7FC0
ENDCHAR
STARTCHAR v
ENCODING 118
SWIDTH 625 0
DWIDTH 10 0
BBX 11 11 -1 -1
BITMAP
7CC0
8320
4320
4320
4320
4320
4320
4320
4320
4020
3FC0
ENDCHAR
STARTCHAR w
ENCODING 119
SWIDTH 875 0
DWIDTH 14 0
BBX 15 11 -1 -1
BITMAP
79CC
8632
8632
8632
8632
8632
8632
8632
8632
8002
7FFC
ENDCHAR
STARTCHAR x
ENCODING 120
SWIDTH 625 0
DWIDTH 10 0
BBX 11 11 -1 -1
BITMAP
79C0
8620
8620
8620
8620
70C0
8620
8620
8620
8620
79C0
ENDCHAR
STARTCHAR y
ENCODING 121
SWIDTH 625 0
DWIDTH 10 0
BBX 11 15 -1 -5
BITMAP
73C0
8C20
8C20
8C20
8C20
8C20
8C20
8C20
8C20
8020
7C20
8C20
8C20
8020
7FC0
ENDCHAR
STARTCHAR z
ENCODING 122
SWIDTH 625 0
DWIDTH 10 0
BBX 11 11 -1 -1
BITMAP
7FC0
8020
8620
7A20
7E20
8020
87C0
85C0
8620
8020
7FC0
ENDCHAR
STARTCHAR braceleft
ENCODING 123
SWIDTH 438 0
DWIDTH 7 0
BBX 8 19 -1 -4
BITMAP
1E
21
46
44
44
44
44
44
88
88
88
44
44
44
44
44
46
21
1E
ENDCHAR
STARTCHAR bar
ENCODING 124
SWIDTH 250 0
DWIDTH 4 0
BBX 5 19 -1 -4
BITMAP
70
88
88
88
88
88
88
88
88
88
88
88
88
88
88
88
88
88
70
ENDCHAR
STARTCHAR braceright
ENCODING 125
SWIDTH 438 0
DWIDTH 7 0
BBX 8 19 -1 -4
BITMAP
78
84
62
22
22
22
22
22
11
11
11
22
22
22
22
22
62
84
78
ENDCHAR
STARTCHAR asciitilde
ENCODING 126
SWIDTH 812 0
DWIDTH 13 0
BBX 14 5 -1 3
BITMAP
0E38
71C4
8004
8E38
71C0
ENDCHAR
STARTCHAR exclamdown
ENCODING 161
SWIDTH 250 0
DWIDTH 4 0
BBX 5 15 -1 -1
BITMAP
70
88
88
70
88
88
88
88
88
88
88
88
88
88
70
ENDCHAR
STARTCHAR cent
ENCODING 162
SWIDTH 688 0
DWIDTH 11 0
BBX 12 18 -1 -3
BITMAP
0600
0900
0900
0900
79E0
8010
8610
8610
8610
85E0
8610
8610
8610
8010
79E0
0900
0900
0600
ENDCHAR
STARTCHAR sterling
ENCODING 163
SWIDTH 688 0
DWIDTH 11 0
BBX 12 15 -1 -1
BITMAP
3FE0
4010
4610
45E0
4400
4400
4600
8100
4600
4400
45E0
8610
8610
8010
7FE0
ENDCHAR
STARTCHAR yen
ENCODING 165
SWIDTH 688 0
DWIDTH 11 0
BBX 12 15 -1 -1
BITMAP
79E0
8610
8610
8610
8610
8610
8610
8010
78E0
2020
18C0
2020
18C0
0880
0700
ENDCHAR
STARTCHAR copyright
ENCODING 169
SWIDTH 1000 0
DWIDTH 16 0
BBX 17 15 -1 -1
BITMAP
7FFF00
800080
8FF080
881080
889080
889080
889080
88F080
889080
889080
889080
881080
8FF080
800080
7FFF00
ENDCHAR
STARTCHAR registered
ENCODING 174
SWIDTH 1000 0
DWIDTH 16 0
BBX 17 15 -1 -1
BITMAP
7FFF00
800080
8FF080
883080
88B080
88B080
88B080
881080
889080
889080
889080
889080
8FF080
800080
7FFF00
ENDCHAR
STARTCHAR acute
ENCODING 180
SWIDTH 250 0
DWIDTH 4 0
BBX 5 6 -1 9
BITMAP
70
88
88
88
48
30
ENDCHAR
STARTCHAR questiondown
ENCODING 191
SWIDTH 688 0
DWIDTH 11 0
BBX 12 15 -1 -1
BITMAP
0700
0880
0880
0700
0880
0880
7880
8080
87E0
8610
8610
8610
8610
8010
7FE0
ENDCHAR
STARTCHAR quoteleft
ENCODING 8216
SWIDTH 250 0
DWIDTH 4 0
BBX 5 6 -1 9
BITMAP
60
90
88
88
88
70
ENDCHAR
STARTCHAR quoteright
ENCODING 8217
SWIDTH 250 0
DWIDTH 4 0
BBX 5 6 -1 9
BITMAP
70
88
88
88
48
30
ENDCHAR
STARTCHAR quotedblleft
ENCODING 8220
SWIDTH 500 0
DWIDTH 8 0
BBX 9 6 -1 9
BITMAP
6600
9900
8880
8880
8880
7700
ENDCHAR
STARTCHAR quotedblright
ENCODING 8221
SWIDTH 500 0
DWIDTH 8 0
BBX 9 6 -1 9
BITMAP
7700
8880
8880
8880
4C80
3300
ENDCHAR
STARTCHAR uni20ac
ENCODING 8364
SWIDTH 688 0
DWIDTH 11 0
BBX 12 15 -1 -1
BITMAP
3FE0
4010
4310
42E0
4200
4300
8080
4300
8080
4300
4200
42E0
4310
4010
3FE0
ENDCHAR
STARTCHAR uni220e
ENCODING 8718
SWIDTH 750 0
DWIDTH 12 0
BBX 13 15 -1 -1
BITMAP
7FF0
8008
8008
8008
8008
8008
8008
8008
8008
8008
8008
8008
8008
8008
7FF0
ENDCHAR
STARTCHAR .notdef
ENCODING -1
SWIDTH 500 0
DWIDTH 8 0
BBX 6 13 0 1
BITMAP
FC
84
84
84
84
84
84
84
84
84
84
84
FC
ENDCHAR
ENDFONT
