STARTFONT 2.1
FONT Floppy Pixel Regular-16px
SIZE 16 75 75
FONTBOUNDINGBOX 16 18 0 -4
STARTPROPERTIES 5
PIXEL_SIZE 16
FONT_ASCENT 13
FONT_DESCENT 4
CHARSET_REGISTRY "ISO10646"
CHARSET_ENCODING "1"
ENDPROPERTIES
CHARS 112
STARTCHAR .null
ENCODING 0
SWIDTH 0 0
DWIDTH 0 0
BBX 1 1 0 0
BITMAP
00
ENDCHAR
STARTCHAR nonmarkingreturn
ENCODING 13
SWIDTH 0 0
DWIDTH 0 0
BBX 1 1 0 0
BITMAP
00
ENDCHAR
STARTCHAR space
ENCODING 32
SWIDTH 250 0
DWIDTH 4 0
BBX 1 1 0 0
BITMAP
00
ENDCHAR
STARTCHAR exclam
ENCODING 33
SWIDTH 250 0
DWIDTH 4 0
BBX 3 13 0 0
BITMAP
E0
E0
E0
E0
E0
E0
E0
E0
E0
E0
00
E0
E0
ENDCHAR
STARTCHAR quotedbl
ENCODING 34
SWIDTH 500 0
DWIDTH 8 0
BBX 7 3 0 10
BITMAP
EE
EE
EE
ENDCHAR
STARTCHAR numbersign
ENCODING 35
SWIDTH 750 0
DWIDTH 12 0
BBX 11 9 0 0
BITMAP
39C0
39C0
7FE0
39C0
7BC0
7380
FFC0
7380
7380
ENDCHAR
STARTCHAR dollar
ENCODING 36
SWIDTH 688 0
DWIDTH 11 0
BBX 10 16 0 -2
BITMAP
0C00
FFC0
F3C0
F3C0
F3C0
F3C0
F000
FFC0
03C0
F3C0
F3C0
F3C0
F3C0
FFC0
0C00
0C00
ENDCHAR
STARTCHAR percent
ENCODING 37
SWIDTH 938 0
DWIDTH 15 0
BBX 14 14 0 -1
BITMAP
01C0
F9C0
99C0
99C0
99C0
99C0
FFC0
0FFC
0E4C
0E4C
0E4C
0E4C
0E7C
0E00
ENDCHAR
STARTCHAR ampersand
ENCODING 38
SWIDTH 812 0
DWIDTH 13 0
BBX 12 13 0 0
BITMAP
7F00
7300
7300
7300
7300
7300
FF00
E670
E660
E7E0
E7C0
E7F0
FF70
ENDCHAR
STARTCHAR quotesingle
ENCODING 39
SWIDTH 250 0
DWIDTH 4 0
BBX 3 3 0 10
BITMAP
E0
E0
E0
ENDCHAR
STARTCHAR parenleft
ENCODING 40
SWIDTH 438 0
DWIDTH 7 0
BBX 6 17 0 -3
BITMAP
7C
70
F0
F0
E0
E0
E0
E0
E0
E0
E0
E0
E0
F0
F0
70
7C
ENDCHAR
STARTCHAR parenright
ENCODING 41
SWIDTH 438 0
DWIDTH 7 0
BBX 6 17 0 -3
BITMAP
F8
38
3C
3C
1C
1C
1C
1C
1C
1C
1C
1C
1C
3C
3C
38
F8
ENDCHAR
STARTCHAR asterisk
ENCODING 42
SWIDTH 500 0
DWIDTH 8 0
BBX 7 8 0 6
BITMAP
10
10
FE
38
38
FE
10
10
ENDCHAR
STARTCHAR plus
ENCODING 43
SWIDTH 750 0
DWIDTH 12 0
BBX 11 10 0 2
BITMAP
0E00
0E00
0E00
0E00
FFE0
FFE0
0E00
0E00
0E00
0E00
ENDCHAR
STARTCHAR comma
ENCODING 44
SWIDTH 250 0
DWIDTH 4 0
BBX 3 4 0 -2
BITMAP
E0
E0
60
60
ENDCHAR
STARTCHAR hyphen
ENCODING 45
SWIDTH 375 0
DWIDTH 6 0
BBX 5 2 0 4
BITMAP
F8
F8
ENDCHAR
STARTCHAR period
ENCODING 46
SWIDTH 250 0
DWIDTH 4 0
BBX 3 2 0 0
BITMAP
E0
E0
ENDCHAR
STARTCHAR slash
ENCODING 47
SWIDTH 438 0
DWIDTH 7 0
BBX 6 14 0 -1
BITMAP
1C
1C
1C
1C
1C
1C
FC
FC
E0
E0
E0
E0
E0
E0
ENDCHAR
STARTCHAR zero
ENCODING 48
SWIDTH 625 0
DWIDTH 10 0
BBX 9 13 0 0
BITMAP
FF80
E780
E780
E780
E780
E780
E780
E780
E780
E780
E780
E780
FF80
ENDCHAR
STARTCHAR one
ENCODING 49
SWIDTH 625 0
DWIDTH 10 0
BBX 9 13 0 0
BITMAP
FF80
CF80
CF80
0F80
0F80
0F80
0F80
0F80
0F80
0F80
0F80
0F80
FF80
ENDCHAR
STARTCHAR two
ENCODING 50
SWIDTH 625 0
DWIDTH 10 0
BBX 9 13 0 0
BITMAP
FF80
E780
E780
E780
0780
0780
FF80
F800
F800
F980
F980
F980
FF80
ENDCHAR
STARTCHAR three
ENCODING 51
SWIDTH 625 0
DWIDTH 10 0
BBX 9 13 0 0
BITMAP
FF80
E780
E780
E780
0780
0780
1F80
0780
0780
E780
E780
E780
FF80
ENDCHAR
STARTCHAR four
ENCODING 52
SWIDTH 625 0
DWIDTH 10 0
BBX 9 13 0 0
BITMAP
F380
F380
F380
F380
F380
F380
F380
F380
FF80
0380
0380
0380
0380
ENDCHAR
STARTCHAR five
ENCODING 53
SWIDTH 625 0
DWIDTH 10 0
BBX 9 13 0 0
BITMAP
FF80
E780
E780
E000
E000
FF80
0780
0780
E780
E780
E780
E780
FF80
ENDCHAR
STARTCHAR six
ENCODING 54
SWIDTH 625 0
DWIDTH 10 0
BBX 9 13 0 0
BITMAP
FF80
F380
F380
F000
F000
FF80
F380
F380
F380
F380
F380
F380
FF80
ENDCHAR
STARTCHAR seven
ENCODING 55
SWIDTH 625 0
DWIDTH 10 0
BBX 9 13 0 0
BITMAP
FF80
9F80
9F80
1F80
1F80
1F80
1F80
1F80
1F80
1F80
1F80
1F80
1F80
ENDCHAR
STARTCHAR eight
ENCODING 56
SWIDTH 625 0
DWIDTH 10 0
BBX 9 13 0 0
BITMAP
FF80
E780
E780
E780
E780
E780
FF80
E780
E780
E780
E780
E780
FF80
ENDCHAR
STARTCHAR nine
ENCODING 57
SWIDTH 625 0
DWIDTH 10 0
BBX 9 13 0 0
BITMAP
FF80
E780
E780
E780
E780
E780
E780
FF80
0780
0780
E780
E780
FF80
ENDCHAR
STARTCHAR colon
ENCODING 58
SWIDTH 250 0
DWIDTH 4 0
BBX 3 11 0 -2
BITMAP
E0
E0
00
00
00
00
00
E0
E0
60
60
ENDCHAR
STARTCHAR semicolon
ENCODING 59
SWIDTH 250 0
DWIDTH 4 0
BBX 3 9 0 0
BITMAP
E0
E0
00
00
00
00
00
E0
E0
ENDCHAR
STARTCHAR less
ENCODING 60
SWIDTH 625 0
DWIDTH 10 0
BBX 9 8 0 2
BITMAP
0F80
0F80
F800
F800
F800
F800
0F80
0F80
ENDCHAR
STARTCHAR equal
ENCODING 61
SWIDTH 688 0
DWIDTH 11 0
BBX 10 6 0 4
BITMAP
FFC0
FFC0
0000
0000
FFC0
FFC0
ENDCHAR
STARTCHAR greater
ENCODING 62
SWIDTH 625 0
DWIDTH 10 0
BBX 9 8 0 2
BITMAP
F800
F800
0F80
0F80
0F80
0F80
F800
F800
ENDCHAR
STARTCHAR question
ENCODING 63
SWIDTH 688 0
DWIDTH 11 0
BBX 10 13 0 0
BITMAP
FFC0
F3C0
F3C0
F3C0
F3C0
03C0
1FC0
1C00
1C00
1C00
0000
1C00
1C00
ENDCHAR
STARTCHAR at
ENCODING 64
SWIDTH 875 0
DWIDTH 14 0
BBX 13 13 0 -1
BITMAP
FFF8
E078
E078
EF78
EB78
EB78
EB78
EB78
EBF8
EF80
E000
E040
FFC0
ENDCHAR
STARTCHAR A
ENCODING 65
SWIDTH 750 0
DWIDTH 12 0
BBX 11 13 0 0
BITMAP
FFE0
F3E0
F3E0
F3E0
F3E0
F3E0
F3E0
F3E0
FFE0
F3E0
F3E0
F3E0
F3E0
ENDCHAR
STARTCHAR B
ENCODING 66
SWIDTH 750 0
DWIDTH 12 0
BBX 11 13 0 0
BITMAP
FFC0
F9C0
F9C0
F9C0
F9C0
F9C0
FFE0
F9E0
F9E0
F9E0
F9E0
F9E0
FFE0
ENDCHAR
STARTCHAR C
ENCODING 67
SWIDTH 750 0
DWIDTH 12 0
BBX 11 13 0 0
BITMAP
FFE0
F9E0
F9E0
F9E0
F9E0
F9E0
F800
F9E0
F9E0
F9E0
F9E0
F9E0
FFE0
ENDCHAR
STARTCHAR D
ENCODING 68
SWIDTH 750 0
DWIDTH 12 0
BBX 11 13 0 0
BITMAP
FFE0
E7E0
E7E0
E7E0
E7E0
E7E0
E7E0
E7E0
E7E0
E7E0
E7E0
E7E0
FFE0
ENDCHAR
STARTCHAR E
ENCODING 69
SWIDTH 750 0
DWIDTH 12 0
BBX 11 13 0 0
BITMAP
FFE0
F9E0
F9E0
F9E0
F800
F800
FE00
F800
F800
F9E0
F9E0
F9E0
FFE0
ENDCHAR
STARTCHAR F
ENCODING 70
SWIDTH 750 0
DWIDTH 12 0
BBX 11 13 0 0
BITMAP
FFE0
F9E0
F9E0
F9E0
F800
F800
FE00
F800
F800
F800
F800
F800
F800
ENDCHAR
STARTCHAR G
ENCODING 71
SWIDTH 750 0
DWIDTH 12 0
BBX 11 13 0 0
BITMAP
FFE0
F9E0
F9E0
F9E0
F9E0
F800
FBE0
F9E0
F9E0
F9E0
F9E0
F9E0
FFE0
ENDCHAR
STARTCHAR H
ENCODING 72
SWIDTH 750 0
DWIDTH 12 0
BBX 11 13 0 0
BITMAP
F3E0
F3E0
F3E0
F3E0
F3E0
F3E0
FFE0
F3E0
F3E0
F3E0
F3E0
F3E0
F3E0
ENDCHAR
STARTCHAR I
ENCODING 73
SWIDTH 500 0
DWIDTH 8 0
BBX 7 13 0 0
BITMAP
FE
7C
7C
7C
7C
7C
7C
7C
7C
7C
7C
7C
FE
ENDCHAR
STARTCHAR J
ENCODING 74
SWIDTH 500 0
DWIDTH 8 0
BBX 7 13 0 0
BITMAP
3E
3E
3E
3E
3E
3E
3E
3E
3E
3E
3E
3E
FE
ENDCHAR
STARTCHAR K
ENCODING 75
SWIDTH 750 0
DWIDTH 12 0
BBX 11 13 0 0
BITMAP
F9E0
F9C0
F9C0
F9C0
F9C0
F9C0
FFE0
F9E0
F9E0
F9E0
F9E0
F9E0
F9E0
ENDCHAR
STARTCHAR L
ENCODING 76
SWIDTH 750 0
DWIDTH 12 0
BBX 11 13 0 0
BITMAP
F800
F800
F800
F800
F800
F800
F800
F800
F800
F800
F9E0
F9E0
FFE0
ENDCHAR
STARTCHAR M
ENCODING 77
SWIDTH 1062 0
DWIDTH 17 0
BBX 16 13 0 0
BITMAP
FFFF
E79F
E79F
E79F
E79F
E79F
E79F
E79F
E79F
E79F
E79F
E79F
E79F
ENDCHAR
STARTCHAR N
ENCODING 78
SWIDTH 750 0
DWIDTH 12 0
BBX 11 13 0 0
BITMAP
FFE0
F3E0
F3E0
F3E0
F3E0
F3E0
F3E0
F3E0
F3E0
F3E0
F3E0
F3E0
F3E0
ENDCHAR
STARTCHAR O
ENCODING 79
SWIDTH 750 0
DWIDTH 12 0
BBX 11 13 0 0
BITMAP
FFE0
F9E0
F9E0
F9E0
F9E0
F9E0
F9E0
F9E0
F9E0
F9E0
F9E0
F9E0
FFE0
ENDCHAR
STARTCHAR P
ENCODING 80
SWIDTH 750 0
DWIDTH 12 0
BBX 11 13 0 0
BITMAP
FFE0
F9E0
F9E0
F9E0
F9E0
F9E0
F9E0
FFE0
F800
F800
F800
F800
F800
ENDCHAR
STARTCHAR Q
ENCODING 81
SWIDTH 750 0
DWIDTH 12 0
BBX 11 15 0 -2
BITMAP
FFE0
F3E0
F3E0
F3E0
F3E0
F3E0
F3E0
F3E0
F3E0
F3E0
F3E0
F3E0
FF00
0FE0
0FE0
ENDCHAR
STARTCHAR R
ENCODING 82
SWIDTH 750 0
DWIDTH 12 0
BBX 11 13 0 0
BITMAP
FFC0
F9C0
F9C0
F9C0
F9C0
F9C0
FFE0
F9E0
F9E0
F9E0
F9E0
F9E0
F9E0
ENDCHAR
STARTCHAR S
ENCODING 83
SWIDTH 750 0
DWIDTH 12 0
BBX 11 13 0 0
BITMAP
FFE0
F3E0
F3E0
F3E0
F3E0
F000
FFE0
03E0
F3E0
F3E0
F3E0
F3E0
FFE0
ENDCHAR
STARTCHAR T
ENCODING 84
SWIDTH 750 0
DWIDTH 12 0
BBX 11 13 0 0
BITMAP
FFE0
1F00
1F00
1F00
1F00
1F00
1F00
1F00
1F00
1F00
1F00
1F00
1F00
ENDCHAR
STARTCHAR U
ENCODING 85
SWIDTH 750 0
DWIDTH 12 0
BBX 11 13 0 0
BITMAP
F3E0
F3E0
F3E0
F3E0
F3E0
F3E0
F3E0
F3E0
F3E0
F3E0
F3E0
F3E0
FFE0
ENDCHAR
STARTCHAR V
ENCODING 86
SWIDTH 750 0
DWIDTH 12 0
BBX 11 13 0 0
BITMAP
FCE0
7CE0
7CE0
7CE0
7CE0
7CE0
7CE0
7CE0
7CE0
7CE0
7CE0
7CE0
7FE0
ENDCHAR
STARTCHAR W
ENCODING 87
SWIDTH 1062 0
DWIDTH 17 0
BBX 16 13 0 0
BITMAP
F9E7
F9E7
F9E7
F9E7
F9E7
F9E7
F9E7
F9E7
F9E7
F9E7
F9E7
F9E7
FFFF
ENDCHAR
STARTCHAR X
ENCODING 88
SWIDTH 750 0
DWIDTH 12 0
BBX 11 13 0 0
BITMAP
F9E0
F9E0
F9E0
F9E0
F9E0
FFE0
0600
FFE0
F9E0
F9E0
F9E0
F9E0
F9E0
ENDCHAR
STARTCHAR Y
ENCODING 89
SWIDTH 750 0
DWIDTH 12 0
BBX 11 13 0 0
BITMAP
F3E0
F3E0
F3E0
F3E0
F3E0
F3E0
FFE0
1F00
1F00
1F00
1F00
1F00
1F00
ENDCHAR
STARTCHAR Z
ENCODING 90
SWIDTH 750 0
DWIDTH 12 0
BBX 11 13 0 0
BITMAP
FFE0
F9E0
01E0
01E0
01E0
01E0
FFE0
F800
F800
F800
F800
F9E0
FFE0
ENDCHAR
STARTCHAR bracketleft
ENCODING 91
SWIDTH 375 0
DWIDTH 6 0
BBX 5 17 0 -3
BITMAP
F8
E0
E0
E0
E0
E0
E0
E0
E0
E0
E0
E0
E0
E0
E0
E0
F8
ENDCHAR
STARTCHAR backslash
ENCODING 92
SWIDTH 438 0
DWIDTH 7 0
BBX 6 14 0 -1
BITMAP
E0
E0
E0
E0
E0
E0
FC
FC
1C
1C
1C
1C
1C
1C
ENDCHAR
STARTCHAR bracketright
ENCODING 93
SWIDTH 375 0
DWIDTH 6 0
BBX 5 17 0 -3
BITMAP
F8
38
38
38
38
38
38
38
38
38
38
38
38
38
38
38
F8
ENDCHAR
STARTCHAR asciicircum
ENCODING 94
SWIDTH 438 0
DWIDTH 7 0
BBX 6 5 0 8
BITMAP
30
30
FC
CC
CC
ENDCHAR
STARTCHAR underscore
ENCODING 95
SWIDTH 750 0
DWIDTH 12 0
BBX 11 2 0 -3
BITMAP
FFE0
FFE0
ENDCHAR
STARTCHAR grave
ENCODING 96
SWIDTH 312 0
DWIDTH 5 0
BBX 4 4 0 10
BITMAP
C0
F0
F0
30
ENDCHAR
STARTCHAR a
ENCODING 97
SWIDTH 625 0
DWIDTH 10 0
BBX 9 9 0 0
BITMAP
FF80
E780
E780
0780
FF80
E780
E780
E780
FF80
ENDCHAR
STARTCHAR b
ENCODING 98
SWIDTH 625 0
DWIDTH 10 0
BBX 9 13 0 0
BITMAP
F000
F000
F000
F000
FF80
F380
F380
F380
F380
F380
F380
F380
FF80
ENDCHAR
STARTCHAR c
ENCODING 99
SWIDTH 625 0
DWIDTH 10 0
BBX 9 9 0 0
BITMAP
FF80
F380
F380
F380
F000
F380
F380
F380
FF80
ENDCHAR
STARTCHAR d
ENCODING 100
SWIDTH 625 0
DWIDTH 10 0
BBX 9 13 0 0
BITMAP
0780
0780
0780
0780
FF80
E780
E780
E780
E780
E780
E780
E780
FF80
ENDCHAR
STARTCHAR e
ENCODING 101
SWIDTH 625 0
DWIDTH 10 0
BBX 9 9 0 0
BITMAP
FF80
F380
F380
F380
FF80
F000
F380
F380
FF80
ENDCHAR
STARTCHAR f
ENCODING 102
SWIDTH 500 0
DWIDTH 8 0
BBX 7 13 0 0
BITMAP
FE
F2
F0
F0
F8
F0
F0
F0
F0
F0
F0
F0
F0
ENDCHAR
STARTCHAR g
ENCODING 103
SWIDTH 625 0
DWIDTH 10 0
BBX 9 13 0 -4
BITMAP
FF80
E780
E780
E780
E780
E780
E780
E780
FF80
0780
E780
E780
FF80
ENDCHAR
STARTCHAR h
ENCODING 104
SWIDTH 625 0
DWIDTH 10 0
BBX 9 13 0 0
BITMAP
E000
E000
E000
E000
FF80
E780
E780
E780
E780
E780
E780
E780
E780
ENDCHAR
STARTCHAR i
ENCODING 105
SWIDTH 312 0
DWIDTH 5 0
BBX 4 11 0 0
BITMAP
F0
00
F0
F0
F0
F0
F0
F0
F0
F0
F0
ENDCHAR
STARTCHAR j
ENCODING 106
SWIDTH 438 0
DWIDTH 7 0
BBX 6 15 0 -4
BITMAP
3C
00
3C
3C
3C
3C
3C
3C
3C
3C
3C
3C
3C
3C
FC
ENDCHAR
STARTCHAR k
ENCODING 107
SWIDTH 625 0
DWIDTH 10 0
BBX 9 13 0 0
BITMAP
F000
F000
F000
F000
F380
F300
F300
FF80
F380
F380
F380
F380
F380
ENDCHAR
STARTCHAR l
ENCODING 108
SWIDTH 375 0
DWIDTH 6 0
BBX 5 13 0 0
BITMAP
F0
F0
F0
F0
F0
F0
F0
F0
F0
F0
F0
F0
F8
ENDCHAR
STARTCHAR m
ENCODING 109
SWIDTH 875 0
DWIDTH 14 0
BBX 13 9 0 0
BITMAP
FFF8
CE78
CE78
CE78
CE78
CE78
CE78
CE78
CE78
ENDCHAR
STARTCHAR n
ENCODING 110
SWIDTH 625 0
DWIDTH 10 0
BBX 9 9 0 0
BITMAP
FF80
F380
F380
F380
F380
F380
F380
F380
F380
ENDCHAR
STARTCHAR o
ENCODING 111
SWIDTH 625 0
DWIDTH 10 0
BBX 9 9 0 0
BITMAP
FF80
F380
F380
F380
F380
F380
F380
F380
FF80
ENDCHAR
STARTCHAR p
ENCODING 112
SWIDTH 625 0
DWIDTH 10 0
BBX 9 13 0 -4
BITMAP
FF80
F380
F380
F380
F380
F380
F380
F380
FF80
F000
F000
F000
F000
ENDCHAR
STARTCHAR q
ENCODING 113
SWIDTH 625 0
DWIDTH 10 0
BBX 9 13 0 -4
BITMAP
FF80
E780
E780
E780
E780
E780
E780
E780
FF80
0780
0780
0780
0780
ENDCHAR
STARTCHAR r
ENCODING 114
SWIDTH 375 0
DWIDTH 6 0
BBX 5 9 0 0
BITMAP
F8
F0
F0
F0
F0
F0
F0
F0
F0
ENDCHAR
STARTCHAR s
ENCODING 115
SWIDTH 625 0
DWIDTH 10 0
BBX 9 9 0 0
BITMAP
FF80
E780
E780
E000
FF80
0780
E780
E780
FF80
ENDCHAR
STARTCHAR t
ENCODING 116
SWIDTH 500 0
DWIDTH 8 0
BBX 7 13 0 0
BITMAP
F0
F0
F0
F0
FC
F0
F0
F0
F0
F0
F0
F2
FE
ENDCHAR
STARTCHAR u
ENCODING 117
SWIDTH 625 0
DWIDTH 10 0
BBX 9 9 0 0
BITMAP
E780
E780
E780
E780
E780
E780
E780
E780
FF80
ENDCHAR
STARTCHAR v
ENCODING 118
SWIDTH 625 0
DWIDTH 10 0
BBX 9 9 0 0
BITMAP
F980
7980
7980
7980
7980
7980
7980
7980
7F80
ENDCHAR
STARTCHAR w
ENCODING 119
SWIDTH 875 0
DWIDTH 14 0
BBX 13 9 0 0
BITMAP
F398
F398
F398
F398
F398
F398
F398
F398
FFF8
ENDCHAR
STARTCHAR x
ENCODING 120
SWIDTH 625 0
DWIDTH 10 0
BBX 9 9 0 0
BITMAP
F380
F380
F380
F380
1E00
F380
F380
F380
F380
ENDCHAR
STARTCHAR y
ENCODING 121
SWIDTH 625 0
DWIDTH 10 0
BBX 9 13 0 -4
BITMAP
E780
E780
E780
E780
E780
E780
E780
E780
FF80
0780
E780
E780
FF80
ENDCHAR
STARTCHAR z
ENCODING 122
SWIDTH 625 0
DWIDTH 10 0
BBX 9 9 0 0
BITMAP
FF80
F380
0380
0380
FF80
F000
F000
F380
FF80
ENDCHAR
STARTCHAR braceleft
ENCODING 123
SWIDTH 438 0
DWIDTH 7 0
BBX 6 17 0 -3
BITMAP
3C
70
70
70
70
70
70
E0
E0
E0
70
70
70
70
70
70
3C
ENDCHAR
STARTCHAR bar
ENCODING 124
SWIDTH 250 0
DWIDTH 4 0
BBX 3 17 0 -3
BITMAP
E0
E0
E0
E0
E0
E0
E0
E0
E0
E0
E0
E0
E0
E0
E0
E0
E0
ENDCHAR
STARTCHAR braceright
ENCODING 125
SWIDTH 438 0
DWIDTH 7 0
BBX 6 17 0 -3
BITMAP
F0
38
38
38
38
38
38
1C
1C
1C
38
38
38
38
38
38
F0
ENDCHAR
STARTCHAR asciitilde
ENCODING 126
SWIDTH 812 0
DWIDTH 13 0
BBX 12 3 0 4
BITMAP
1C70
FFF0
E380
ENDCHAR
STARTCHAR exclamdown
ENCODING 161
SWIDTH 250 0
DWIDTH 4 0
BBX 3 13 0 0
BITMAP
E0
E0
00
E0
E0
E0
E0
E0
E0
E0
E0
E0
E0
ENDCHAR
STARTCHAR cent
ENCODING 162
SWIDTH 688 0
DWIDTH 11 0
BBX 10 16 0 -2
BITMAP
0C00
0C00
0C00
0C00
FFC0
F3C0
F3C0
F3C0
F000
F3C0
F3C0
F3C0
FFC0
0C00
0C00
0C00
ENDCHAR
STARTCHAR sterling
ENCODING 163
SWIDTH 688 0
DWIDTH 11 0
BBX 10 13 0 0
BITMAP
7FC0
73C0
7000
7000
7000
7000
FC00
7000
7000
7000
F3C0
F3C0
FFC0
ENDCHAR
STARTCHAR yen
ENCODING 165
SWIDTH 688 0
DWIDTH 11 0
BBX 10 13 0 0
BITMAP
F3C0
F3C0
F3C0
F3C0
F3C0
F3C0
FFC0
0E00
3F80
0E00
3F80
0E00
0E00
ENDCHAR
STARTCHAR copyright
ENCODING 169
SWIDTH 1000 0
DWIDTH 16 0
BBX 15 13 0 0
BITMAP
FFFE
E01E
EFDE
EEDE
EEDE
EEDE
EE1E
EEDE
EEDE
EEDE
EFDE
E01E
FFFE
ENDCHAR
STARTCHAR registered
ENCODING 174
SWIDTH 1000 0
DWIDTH 16 0
BBX 15 13 0 0
BITMAP
FFFE
E01E
EF9E
EE9E
EE9E
EE9E
EFDE
EEDE
EEDE
EEDE
EEDE
E01E
FFFE
ENDCHAR
STARTCHAR acute
ENCODING 180
SWIDTH 250 0
DWIDTH 4 0
BBX 3 4 0 10
BITMAP
E0
E0
E0
60
ENDCHAR
STARTCHAR questiondown
ENCODING 191
SWIDTH 688 0
DWIDTH 11 0
BBX 10 13 0 0
BITMAP
0E00
0E00
0000
0E00
0E00
0E00
FE00
F000
F3C0
F3C0
F3C0
F3C0
FFC0
ENDCHAR
STARTCHAR quoteleft
ENCODING 8216
SWIDTH 250 0
DWIDTH 4 0
BBX 3 4 0 10
BITMAP
C0
E0
E0
E0
ENDCHAR
STARTCHAR quoteright
ENCODING 8217
SWIDTH 250 0
DWIDTH 4 0
BBX 3 4 0 10
BITMAP
E0
E0
E0
60
ENDCHAR
STARTCHAR quotedblleft
ENCODING 8220
SWIDTH 500 0
DWIDTH 8 0
BBX 7 4 0 10
BITMAP
CC
EE
EE
EE
ENDCHAR
STARTCHAR quotedblright
ENCODING 8221
SWIDTH 500 0
DWIDTH 8 0
BBX 7 4 0 10
BITMAP
EE
EE
EE
66
ENDCHAR
STARTCHAR uni20ac
ENCODING 8364
SWIDTH 688 0
DWIDTH 11 0
BBX 10 13 0 0
BITMAP
7FC0
79C0
7800
7800
7800
FE00
7800
FE00
7800
7800
7800
79C0
7FC0
ENDCHAR
STARTCHAR uni220e
ENCODING 8718
SWIDTH 750 0
DWIDTH 12 0
BBX 11 13 0 0
BITMAP
FFE0
FFE0
FFE0
FFE0
FFE0
FFE0
FFE0
FFE0
FFE0
FFE0
FFE0
FFE0
FFE0
ENDCHAR
STARTCHAR .notdef
ENCODING -1
SWIDTH 500 0
DWIDTH 8 0
BBX 6 11 0 1
BITMAP
FC
84
84
84
84
84
84
84
84
84
FC
ENDCHAR
ENDFONT
