STARTFONT 2.1
FONT Bm437_OlivettiThin_9x14-16px
SIZE 16 75 75
FONTBOUNDINGBOX 9 14 0 -2
STARTPROPERTIES 3
PIXEL_SIZE 16
FONT_ASCENT 14
FONT_DESCENT 2
ENDPROPERTIES
CHARS 295
STARTCHAR uni0000
ENCODING 0
SWIDTH 562 0
DWIDTH 9 0
BBX 9 14 0 -2
BITMAP
0000
0000
0000
0000
0000
0000
0000
0000
0000
0000
0000
0000
0000
0000
ENDCHAR
STARTCHAR uni0001
ENCODING 1
SWIDTH 562 0
DWIDTH 9 0
BBX 9 14 0 -2
BITMAP
0000
0000
0000
3C00
4200
8100
A500
8100
A500
9900
4200
3C00
0000
0000
ENDCHAR
STARTCHAR uni0002
ENCODING 2
SWIDTH 562 0
DWIDTH 9 0
BBX 9 14 0 -2
BITMAP
0000
0000
0000
3C00
7E00
FF00
DB00
FF00
DB00
E700
7E00
3C00
0000
0000
ENDCHAR
STARTCHAR uni0003
ENCODING 3
SWIDTH 562 0
DWIDTH 9 0
BBX 9 14 0 -2
BITMAP
0000
0000
0000
6C00
FE00
FE00
FE00
7C00
7C00
3800
3800
1000
0000
0000
ENDCHAR
STARTCHAR uni0004
ENCODING 4
SWIDTH 562 0
DWIDTH 9 0
BBX 9 14 0 -2
BITMAP
0000
0000
0000
0000
1000
3800
7C00
FE00
7C00
3800
1000
0000
0000
0000
ENDCHAR
STARTCHAR uni0005
ENCODING 5
SWIDTH 562 0
DWIDTH 9 0
BBX 9 14 0 -2
BITMAP
0000
0000
0000
1000
3800
3800
5400
FE00
FE00
5400
1000
3800
0000
0000
ENDCHAR
STARTCHAR uni0006
ENCODING 6
SWIDTH 562 0
DWIDTH 9 0
BBX 9 14 0 -2
BITMAP
0000
0000
0000
1000
3800
7C00
FE00
FE00
FE00
5400
1000
3800
0000
0000
ENDCHAR
STARTCHAR uni0007
ENCODING 7
SWIDTH 562 0
DWIDTH 9 0
BBX 9 14 0 -2
BITMAP
0000
0000
0000
0000
3C00
7E00
7E00
7E00
7E00
3C00
0000
0000
0000
0000
ENDCHAR
STARTCHAR uni0008
ENCODING 8
SWIDTH 562 0
DWIDTH 9 0
BBX 9 14 0 -2
BITMAP
FF00
FF00
FF00
FF00
C300
8100
8100
8100
8100
C300
FF00
FF00
FF00
FF00
ENDCHAR
STARTCHAR uni0009
ENCODING 9
SWIDTH 562 0
DWIDTH 9 0
BBX 9 14 0 -2
BITMAP
0000
0000
0000
0000
3C00
4200
4200
4200
4200
3C00
0000
0000
0000
0000
ENDCHAR
STARTCHAR uni000A
ENCODING 10
SWIDTH 562 0
DWIDTH 9 0
BBX 9 14 0 -2
BITMAP
FF00
FF00
FF00
FF00
C300
BD00
BD00
BD00
BD00
C300
FF00
FF00
FF00
FF00
ENDCHAR
STARTCHAR uni000B
ENCODING 11
SWIDTH 562 0
DWIDTH 9 0
BBX 9 14 0 -2
BITMAP
0000
0000
0000
0F00
0300
0500
7900
8800
8800
8800
8800
7000
0000
0000
ENDCHAR
STARTCHAR uni000C
ENCODING 12
SWIDTH 562 0
DWIDTH 9 0
BBX 9 14 0 -2
BITMAP
0000
0000
0000
3800
4400
4400
4400
4400
3800
1000
7C00
1000
0000
0000
ENDCHAR
STARTCHAR uni000D
ENCODING 13
SWIDTH 562 0
DWIDTH 9 0
BBX 9 14 0 -2
BITMAP
1000
1800
1C00
1600
1200
1200
1400
1000
1000
7000
E000
E000
C000
0000
ENDCHAR
STARTCHAR uni000E
ENCODING 14
SWIDTH 562 0
DWIDTH 9 0
BBX 9 14 0 -2
BITMAP
2000
3000
2800
3400
2A00
2600
2200
2200
6200
E200
C200
0600
0E00
0C00
ENDCHAR
STARTCHAR uni000F
ENCODING 15
SWIDTH 562 0
DWIDTH 9 0
BBX 9 14 0 -2
BITMAP
0000
0000
0000
1000
9200
7C00
4400
C600
4400
7C00
9200
1000
0000
0000
ENDCHAR
STARTCHAR uni0010
ENCODING 16
SWIDTH 562 0
DWIDTH 9 0
BBX 9 14 0 -2
BITMAP
0000
0000
0000
4000
6000
7000
7800
7C00
7800
7000
6000
4000
0000
0000
ENDCHAR
STARTCHAR uni0011
ENCODING 17
SWIDTH 562 0
DWIDTH 9 0
BBX 9 14 0 -2
BITMAP
0000
0000
0000
0400
0C00
1C00
3C00
7C00
3C00
1C00
0C00
0400
0000
0000
ENDCHAR
STARTCHAR uni0012
ENCODING 18
SWIDTH 562 0
DWIDTH 9 0
BBX 9 14 0 -2
BITMAP
0000
0000
0000
1000
3800
5400
1000
1000
1000
5400
3800
1000
0000
0000
ENDCHAR
STARTCHAR uni0013
ENCODING 19
SWIDTH 562 0
DWIDTH 9 0
BBX 9 14 0 -2
BITMAP
0000
0000
0000
2400
2400
2400
2400
2400
2400
0000
2400
2400
0000
0000
ENDCHAR
STARTCHAR uni0014
ENCODING 20
SWIDTH 562 0
DWIDTH 9 0
BBX 9 14 0 -2
BITMAP
0000
0000
0000
7E00
9400
9400
9400
7400
1400
1400
1400
1400
0000
0000
ENDCHAR
STARTCHAR uni0015
ENCODING 21
SWIDTH 562 0
DWIDTH 9 0
BBX 9 14 0 -2
BITMAP
0000
0000
1C00
2000
1000
2800
4400
4200
2200
1400
0800
0400
3800
0000
ENDCHAR
STARTCHAR uni0016
ENCODING 22
SWIDTH 562 0
DWIDTH 9 0
BBX 9 14 0 -2
BITMAP
0000
0000
0000
0000
0000
0000
0000
0000
0000
FE00
FE00
FE00
0000
0000
ENDCHAR
STARTCHAR uni0017
ENCODING 23
SWIDTH 562 0
DWIDTH 9 0
BBX 9 14 0 -2
BITMAP
0000
0000
0000
1000
3800
5400
1000
1000
1000
5400
3800
1000
7C00
0000
ENDCHAR
STARTCHAR uni0018
ENCODING 24
SWIDTH 562 0
DWIDTH 9 0
BBX 9 14 0 -2
BITMAP
0000
0000
0000
1000
3800
5400
1000
1000
1000
1000
1000
1000
0000
0000
ENDCHAR
STARTCHAR uni0019
ENCODING 25
SWIDTH 562 0
DWIDTH 9 0
BBX 9 14 0 -2
BITMAP
0000
0000
0000
1000
1000
1000
1000
1000
1000
5400
3800
1000
0000
0000
ENDCHAR
STARTCHAR uni001A
ENCODING 26
SWIDTH 562 0
DWIDTH 9 0
BBX 9 14 0 -2
BITMAP
0000
0000
0000
0000
0000
0800
0400
FE00
0400
0800
0000
0000
0000
0000
ENDCHAR
STARTCHAR uni001B
ENCODING 27
SWIDTH 562 0
DWIDTH 9 0
BBX 9 14 0 -2
BITMAP
0000
0000
0000
0000
0000
2000
4000
FE00
4000
2000
0000
0000
0000
0000
ENDCHAR
STARTCHAR uni001C
ENCODING 28
SWIDTH 562 0
DWIDTH 9 0
BBX 9 14 0 -2
BITMAP
0000
0000
0000
0000
0000
0000
0000
8000
8000
8000
8000
FE00
0000
0000
ENDCHAR
STARTCHAR uni001D
ENCODING 29
SWIDTH 562 0
DWIDTH 9 0
BBX 9 14 0 -2
BITMAP
0000
0000
0000
0000
0000
2800
4400
FE00
4400
2800
0000
0000
0000
0000
ENDCHAR
STARTCHAR uni001E
ENCODING 30
SWIDTH 562 0
DWIDTH 9 0
BBX 9 14 0 -2
BITMAP
0000
0000
0000
0000
0000
1000
3800
7C00
FE00
FE00
0000
0000
0000
0000
ENDCHAR
STARTCHAR uni001F
ENCODING 31
SWIDTH 562 0
DWIDTH 9 0
BBX 9 14 0 -2
BITMAP
0000
0000
0000
0000
0000
FE00
FE00
7C00
3800
1000
0000
0000
0000
0000
ENDCHAR
STARTCHAR space
ENCODING 32
SWIDTH 562 0
DWIDTH 9 0
BBX 9 14 0 -2
BITMAP
0000
0000
0000
0000
0000
0000
0000
0000
0000
0000
0000
0000
0000
0000
ENDCHAR
STARTCHAR exclam
ENCODING 33
SWIDTH 562 0
DWIDTH 9 0
BBX 9 14 0 -2
BITMAP
0000
0000
0000
1000
1000
1000
1000
1000
1000
0000
1000
1000
0000
0000
ENDCHAR
STARTCHAR quotedbl
ENCODING 34
SWIDTH 562 0
DWIDTH 9 0
BBX 9 14 0 -2
BITMAP
0000
0000
0000
4400
4400
4400
4400
0000
0000
0000
0000
0000
0000
0000
ENDCHAR
STARTCHAR numbersign
ENCODING 35
SWIDTH 562 0
DWIDTH 9 0
BBX 9 14 0 -2
BITMAP
0000
0000
0000
4400
4400
FE00
4400
4400
FE00
4400
4400
4400
0000
0000
ENDCHAR
STARTCHAR dollar
ENCODING 36
SWIDTH 562 0
DWIDTH 9 0
BBX 9 14 0 -2
BITMAP
0000
0000
1000
7C00
9000
9000
9000
7C00
1200
1200
1200
FC00
1000
0000
ENDCHAR
STARTCHAR percent
ENCODING 37
SWIDTH 562 0
DWIDTH 9 0
BBX 9 14 0 -2
BITMAP
0000
0000
0000
6000
9200
9400
6800
1000
2C00
5200
9200
0C00
0000
0000
ENDCHAR
STARTCHAR ampersand
ENCODING 38
SWIDTH 562 0
DWIDTH 9 0
BBX 9 14 0 -2
BITMAP
0000
0000
0000
3000
4800
4800
5000
2000
5200
8A00
8400
7A00
0000
0000
ENDCHAR
STARTCHAR quotesingle
ENCODING 39
SWIDTH 562 0
DWIDTH 9 0
BBX 9 14 0 -2
BITMAP
0000
0000
0000
1000
1000
1000
1000
0000
0000
0000
0000
0000
0000
0000
ENDCHAR
STARTCHAR parenleft
ENCODING 40
SWIDTH 562 0
DWIDTH 9 0
BBX 9 14 0 -2
BITMAP
0000
0000
0000
0800
1000
2000
2000
2000
2000
2000
1000
0800
0000
0000
ENDCHAR
STARTCHAR parenright
ENCODING 41
SWIDTH 562 0
DWIDTH 9 0
BBX 9 14 0 -2
BITMAP
0000
0000
0000
2000
1000
0800
0800
0800
0800
0800
1000
2000
0000
0000
ENDCHAR
STARTCHAR asterisk
ENCODING 42
SWIDTH 562 0
DWIDTH 9 0
BBX 9 14 0 -2
BITMAP
0000
0000
0000
1000
5400
3800
3800
5400
1000
0000
0000
0000
0000
0000
ENDCHAR
STARTCHAR plus
ENCODING 43
SWIDTH 562 0
DWIDTH 9 0
BBX 9 14 0 -2
BITMAP
0000
0000
0000
0000
1000
1000
1000
FE00
1000
1000
1000
0000
0000
0000
ENDCHAR
STARTCHAR comma
ENCODING 44
SWIDTH 562 0
DWIDTH 9 0
BBX 9 14 0 -2
BITMAP
0000
0000
0000
0000
0000
0000
0000
0000
0000
0000
1800
1800
0800
1000
ENDCHAR
STARTCHAR hyphen
ENCODING 45
SWIDTH 562 0
DWIDTH 9 0
BBX 9 14 0 -2
BITMAP
0000
0000
0000
0000
0000
0000
0000
FE00
0000
0000
0000
0000
0000
0000
ENDCHAR
STARTCHAR period
ENCODING 46
SWIDTH 562 0
DWIDTH 9 0
BBX 9 14 0 -2
BITMAP
0000
0000
0000
0000
0000
0000
0000
0000
0000
0000
1800
1800
0000
0000
ENDCHAR
STARTCHAR slash
ENCODING 47
SWIDTH 562 0
DWIDTH 9 0
BBX 9 14 0 -2
BITMAP
0000
0000
0000
0000
0200
0400
0800
1000
2000
4000
8000
0000
0000
0000
ENDCHAR
STARTCHAR zero
ENCODING 48
SWIDTH 562 0
DWIDTH 9 0
BBX 9 14 0 -2
BITMAP
0000
0000
0000
7C00
8200
8200
8200
9200
8200
8200
8200
7C00
0000
0000
ENDCHAR
STARTCHAR one
ENCODING 49
SWIDTH 562 0
DWIDTH 9 0
BBX 9 14 0 -2
BITMAP
0000
0000
0000
1000
7000
1000
1000
1000
1000
1000
1000
1000
0000
0000
ENDCHAR
STARTCHAR two
ENCODING 50
SWIDTH 562 0
DWIDTH 9 0
BBX 9 14 0 -2
BITMAP
0000
0000
0000
7C00
8200
8200
0400
1800
2000
4000
8000
FE00
0000
0000
ENDCHAR
STARTCHAR three
ENCODING 51
SWIDTH 562 0
DWIDTH 9 0
BBX 9 14 0 -2
BITMAP
0000
0000
0000
7C00
8200
0200
0200
1C00
0200
0200
8200
7C00
0000
0000
ENDCHAR
STARTCHAR four
ENCODING 52
SWIDTH 562 0
DWIDTH 9 0
BBX 9 14 0 -2
BITMAP
0000
0000
0000
0400
0C00
1400
2400
4400
8400
FE00
0400
0400
0000
0000
ENDCHAR
STARTCHAR five
ENCODING 53
SWIDTH 562 0
DWIDTH 9 0
BBX 9 14 0 -2
BITMAP
0000
0000
0000
FE00
8000
8000
FC00
8200
0200
0200
8200
7C00
0000
0000
ENDCHAR
STARTCHAR six
ENCODING 54
SWIDTH 562 0
DWIDTH 9 0
BBX 9 14 0 -2
BITMAP
0000
0000
0000
3C00
4000
8000
8000
FC00
8200
8200
8200
7C00
0000
0000
ENDCHAR
STARTCHAR seven
ENCODING 55
SWIDTH 562 0
DWIDTH 9 0
BBX 9 14 0 -2
BITMAP
0000
0000
0000
FE00
0200
0200
0400
0800
1000
1000
2000
2000
0000
0000
ENDCHAR
STARTCHAR eight
ENCODING 56
SWIDTH 562 0
DWIDTH 9 0
BBX 9 14 0 -2
BITMAP
0000
0000
0000
7C00
8200
8200
8200
7C00
8200
8200
8200
7C00
0000
0000
ENDCHAR
STARTCHAR nine
ENCODING 57
SWIDTH 562 0
DWIDTH 9 0
BBX 9 14 0 -2
BITMAP
0000
0000
0000
7C00
8200
8200
8200
7E00
0200
0200
0400
7800
0000
0000
ENDCHAR
STARTCHAR colon
ENCODING 58
SWIDTH 562 0
DWIDTH 9 0
BBX 9 14 0 -2
BITMAP
0000
0000
0000
0000
0000
1800
1800
0000
0000
0000
1800
1800
0000
0000
ENDCHAR
STARTCHAR semicolon
ENCODING 59
SWIDTH 562 0
DWIDTH 9 0
BBX 9 14 0 -2
BITMAP
0000
0000
0000
0000
0000
1800
1800
0000
0000
0000
1800
1800
0800
1000
ENDCHAR
STARTCHAR less
ENCODING 60
SWIDTH 562 0
DWIDTH 9 0
BBX 9 14 0 -2
BITMAP
0000
0000
0000
0400
0800
1000
2000
4000
2000
1000
0800
0400
0000
0000
ENDCHAR
STARTCHAR equal
ENCODING 61
SWIDTH 562 0
DWIDTH 9 0
BBX 9 14 0 -2
BITMAP
0000
0000
0000
0000
0000
0000
FE00
0000
0000
FE00
0000
0000
0000
0000
ENDCHAR
STARTCHAR greater
ENCODING 62
SWIDTH 562 0
DWIDTH 9 0
BBX 9 14 0 -2
BITMAP
0000
0000
0000
4000
2000
1000
0800
0400
0800
1000
2000
4000
0000
0000
ENDCHAR
STARTCHAR question
ENCODING 63
SWIDTH 562 0
DWIDTH 9 0
BBX 9 14 0 -2
BITMAP
0000
0000
0000
7C00
8200
0200
0400
0800
1000
0000
1000
1000
0000
0000
ENDCHAR
STARTCHAR at
ENCODING 64
SWIDTH 562 0
DWIDTH 9 0
BBX 9 14 0 -2
BITMAP
0000
0000
0000
3C00
4200
9A00
AA00
AA00
AA00
9400
4000
3C00
0000
0000
ENDCHAR
STARTCHAR A
ENCODING 65
SWIDTH 562 0
DWIDTH 9 0
BBX 9 14 0 -2
BITMAP
0000
0000
0000
3800
4400
8200
8200
8200
FE00
8200
8200
8200
0000
0000
ENDCHAR
STARTCHAR B
ENCODING 66
SWIDTH 562 0
DWIDTH 9 0
BBX 9 14 0 -2
BITMAP
0000
0000
0000
FC00
8200
8200
8200
FC00
8200
8200
8200
FC00
0000
0000
ENDCHAR
STARTCHAR C
ENCODING 67
SWIDTH 562 0
DWIDTH 9 0
BBX 9 14 0 -2
BITMAP
0000
0000
0000
7C00
8200
8200
8000
8000
8000
8200
8200
7C00
0000
0000
ENDCHAR
STARTCHAR D
ENCODING 68
SWIDTH 562 0
DWIDTH 9 0
BBX 9 14 0 -2
BITMAP
0000
0000
0000
F800
8400
8200
8200
8200
8200
8200
8400
F800
0000
0000
ENDCHAR
STARTCHAR E
ENCODING 69
SWIDTH 562 0
DWIDTH 9 0
BBX 9 14 0 -2
BITMAP
0000
0000
0000
FE00
8000
8000
8000
FC00
8000
8000
8000
FE00
0000
0000
ENDCHAR
STARTCHAR F
ENCODING 70
SWIDTH 562 0
DWIDTH 9 0
BBX 9 14 0 -2
BITMAP
0000
0000
0000
FE00
8000
8000
8000
FC00
8000
8000
8000
8000
0000
0000
ENDCHAR
STARTCHAR G
ENCODING 71
SWIDTH 562 0
DWIDTH 9 0
BBX 9 14 0 -2
BITMAP
0000
0000
0000
7C00
8200
8200
8000
8000
8E00
8200
8200
7E00
0000
0000
ENDCHAR
STARTCHAR H
ENCODING 72
SWIDTH 562 0
DWIDTH 9 0
BBX 9 14 0 -2
BITMAP
0000
0000
0000
8200
8200
8200
8200
FE00
8200
8200
8200
8200
0000
0000
ENDCHAR
STARTCHAR I
ENCODING 73
SWIDTH 562 0
DWIDTH 9 0
BBX 9 14 0 -2
BITMAP
0000
0000
0000
7C00
1000
1000
1000
1000
1000
1000
1000
7C00
0000
0000
ENDCHAR
STARTCHAR J
ENCODING 74
SWIDTH 562 0
DWIDTH 9 0
BBX 9 14 0 -2
BITMAP
0000
0000
0000
3C00
0400
0400
0400
0400
0400
8400
8400
7800
0000
0000
ENDCHAR
STARTCHAR K
ENCODING 75
SWIDTH 562 0
DWIDTH 9 0
BBX 9 14 0 -2
BITMAP
0000
0000
0000
8400
8800
9000
A000
E000
9000
8800
8400
8200
0000
0000
ENDCHAR
STARTCHAR L
ENCODING 76
SWIDTH 562 0
DWIDTH 9 0
BBX 9 14 0 -2
BITMAP
0000
0000
0000
8000
8000
8000
8000
8000
8000
8000
8000
FE00
0000
0000
ENDCHAR
STARTCHAR M
ENCODING 77
SWIDTH 562 0
DWIDTH 9 0
BBX 9 14 0 -2
BITMAP
0000
0000
0000
8200
C600
AA00
9200
8200
8200
8200
8200
8200
0000
0000
ENDCHAR
STARTCHAR N
ENCODING 78
SWIDTH 562 0
DWIDTH 9 0
BBX 9 14 0 -2
BITMAP
0000
0000
0000
8200
8200
C200
A200
9200
8A00
8600
8200
8200
0000
0000
ENDCHAR
STARTCHAR O
ENCODING 79
SWIDTH 562 0
DWIDTH 9 0
BBX 9 14 0 -2
BITMAP
0000
0000
0000
7C00
8200
8200
8200
8200
8200
8200
8200
7C00
0000
0000
ENDCHAR
STARTCHAR P
ENCODING 80
SWIDTH 562 0
DWIDTH 9 0
BBX 9 14 0 -2
BITMAP
0000
0000
0000
FC00
8200
8200
8200
FC00
8000
8000
8000
8000
0000
0000
ENDCHAR
STARTCHAR Q
ENCODING 81
SWIDTH 562 0
DWIDTH 9 0
BBX 9 14 0 -2
BITMAP
0000
0000
0000
7C00
8200
8200
8200
8200
9200
8A00
8400
7A00
0000
0000
ENDCHAR
STARTCHAR R
ENCODING 82
SWIDTH 562 0
DWIDTH 9 0
BBX 9 14 0 -2
BITMAP
0000
0000
0000
FC00
8200
8200
8200
FC00
9000
8800
8400
8200
0000
0000
ENDCHAR
STARTCHAR S
ENCODING 83
SWIDTH 562 0
DWIDTH 9 0
BBX 9 14 0 -2
BITMAP
0000
0000
0000
7C00
8000
8000
8000
7C00
0200
0200
0200
FC00
0000
0000
ENDCHAR
STARTCHAR T
ENCODING 84
SWIDTH 562 0
DWIDTH 9 0
BBX 9 14 0 -2
BITMAP
0000
0000
0000
FE00
1000
1000
1000
1000
1000
1000
1000
1000
0000
0000
ENDCHAR
STARTCHAR U
ENCODING 85
SWIDTH 562 0
DWIDTH 9 0
BBX 9 14 0 -2
BITMAP
0000
0000
0000
8200
8200
8200
8200
8200
8200
8200
8200
7C00
0000
0000
ENDCHAR
STARTCHAR V
ENCODING 86
SWIDTH 562 0
DWIDTH 9 0
BBX 9 14 0 -2
BITMAP
0000
0000
0000
8200
8200
8200
4400
4400
2800
2800
1000
1000
0000
0000
ENDCHAR
STARTCHAR W
ENCODING 87
SWIDTH 562 0
DWIDTH 9 0
BBX 9 14 0 -2
BITMAP
0000
0000
0000
8200
8200
8200
9200
9200
AA00
AA00
4400
4400
0000
0000
ENDCHAR
STARTCHAR X
ENCODING 88
SWIDTH 562 0
DWIDTH 9 0
BBX 9 14 0 -2
BITMAP
0000
0000
0000
8200
8200
4400
2800
1000
2800
4400
8200
8200
0000
0000
ENDCHAR
STARTCHAR Y
ENCODING 89
SWIDTH 562 0
DWIDTH 9 0
BBX 9 14 0 -2
BITMAP
0000
0000
0000
8200
8200
8200
4400
2800
1000
1000
1000
1000
0000
0000
ENDCHAR
STARTCHAR Z
ENCODING 90
SWIDTH 562 0
DWIDTH 9 0
BBX 9 14 0 -2
BITMAP
0000
0000
0000
FE00
0200
0400
0800
1000
2000
4000
8000
FE00
0000
0000
ENDCHAR
STARTCHAR bracketleft
ENCODING 91
SWIDTH 562 0
DWIDTH 9 0
BBX 9 14 0 -2
BITMAP
0000
0000
0000
3C00
2000
2000
2000
2000
2000
2000
2000
3C00
0000
0000
ENDCHAR
STARTCHAR backslash
ENCODING 92
SWIDTH 562 0
DWIDTH 9 0
BBX 9 14 0 -2
BITMAP
0000
0000
0000
0000
8000
4000
2000
1000
0800
0400
0200
0000
0000
0000
ENDCHAR
STARTCHAR bracketright
ENCODING 93
SWIDTH 562 0
DWIDTH 9 0
BBX 9 14 0 -2
BITMAP
0000
0000
0000
3C00
0400
0400
0400
0400
0400
0400
0400
3C00
0000
0000
ENDCHAR
STARTCHAR asciicircum
ENCODING 94
SWIDTH 562 0
DWIDTH 9 0
BBX 9 14 0 -2
BITMAP
0000
0000
1000
2800
4400
0000
0000
0000
0000
0000
0000
0000
0000
0000
ENDCHAR
STARTCHAR underscore
ENCODING 95
SWIDTH 562 0
DWIDTH 9 0
BBX 9 14 0 -2
BITMAP
0000
0000
0000
0000
0000
0000
0000
0000
0000
0000
0000
0000
0000
FF00
ENDCHAR
STARTCHAR grave
ENCODING 96
SWIDTH 562 0
DWIDTH 9 0
BBX 9 14 0 -2
BITMAP
0000
0000
2000
1000
0800
0000
0000
0000
0000
0000
0000
0000
0000
0000
ENDCHAR
STARTCHAR a
ENCODING 97
SWIDTH 562 0
DWIDTH 9 0
BBX 9 14 0 -2
BITMAP
0000
0000
0000
0000
0000
0000
7800
0400
7C00
8400
8400
7A00
0000
0000
ENDCHAR
STARTCHAR b
ENCODING 98
SWIDTH 562 0
DWIDTH 9 0
BBX 9 14 0 -2
BITMAP
0000
0000
0000
8000
8000
8000
FC00
8200
8200
8200
8200
FC00
0000
0000
ENDCHAR
STARTCHAR c
ENCODING 99
SWIDTH 562 0
DWIDTH 9 0
BBX 9 14 0 -2
BITMAP
0000
0000
0000
0000
0000
0000
7C00
8200
8000
8000
8200
7C00
0000
0000
ENDCHAR
STARTCHAR d
ENCODING 100
SWIDTH 562 0
DWIDTH 9 0
BBX 9 14 0 -2
BITMAP
0000
0000
0000
0200
0200
0200
7E00
8200
8200
8200
8200
7E00
0000
0000
ENDCHAR
STARTCHAR e
ENCODING 101
SWIDTH 562 0
DWIDTH 9 0
BBX 9 14 0 -2
BITMAP
0000
0000
0000
0000
0000
0000
7C00
8200
8200
FC00
8000
7C00
0000
0000
ENDCHAR
STARTCHAR f
ENCODING 102
SWIDTH 562 0
DWIDTH 9 0
BBX 9 14 0 -2
BITMAP
0000
0000
0000
1E00
2000
2000
FC00
2000
2000
2000
2000
2000
0000
0000
ENDCHAR
STARTCHAR g
ENCODING 103
SWIDTH 562 0
DWIDTH 9 0
BBX 9 14 0 -2
BITMAP
0000
0000
0000
0000
0000
0000
7E00
8200
8200
8200
8200
7E00
0200
7C00
ENDCHAR
STARTCHAR h
ENCODING 104
SWIDTH 562 0
DWIDTH 9 0
BBX 9 14 0 -2
BITMAP
0000
0000
0000
8000
8000
8000
FC00
8200
8200
8200
8200
8200
0000
0000
ENDCHAR
STARTCHAR i
ENCODING 105
SWIDTH 562 0
DWIDTH 9 0
BBX 9 14 0 -2
BITMAP
0000
0000
0000
1000
1000
0000
7000
1000
1000
1000
1000
7C00
0000
0000
ENDCHAR
STARTCHAR j
ENCODING 106
SWIDTH 562 0
DWIDTH 9 0
BBX 9 14 0 -2
BITMAP
0000
0000
0000
0800
0800
0000
7800
0800
0800
0800
0800
0800
8800
7000
ENDCHAR
STARTCHAR k
ENCODING 107
SWIDTH 562 0
DWIDTH 9 0
BBX 9 14 0 -2
BITMAP
0000
0000
0000
8000
8000
8000
8400
8800
B000
C800
8400
8200
0000
0000
ENDCHAR
STARTCHAR l
ENCODING 108
SWIDTH 562 0
DWIDTH 9 0
BBX 9 14 0 -2
BITMAP
0000
0000
0000
7000
1000
1000
1000
1000
1000
1000
1000
7C00
0000
0000
ENDCHAR
STARTCHAR m
ENCODING 109
SWIDTH 562 0
DWIDTH 9 0
BBX 9 14 0 -2
BITMAP
0000
0000
0000
0000
0000
0000
EC00
9200
9200
9200
9200
9200
0000
0000
ENDCHAR
STARTCHAR n
ENCODING 110
SWIDTH 562 0
DWIDTH 9 0
BBX 9 14 0 -2
BITMAP
0000
0000
0000
0000
0000
0000
FC00
8200
8200
8200
8200
8200
0000
0000
ENDCHAR
STARTCHAR o
ENCODING 111
SWIDTH 562 0
DWIDTH 9 0
BBX 9 14 0 -2
BITMAP
0000
0000
0000
0000
0000
0000
7C00
8200
8200
8200
8200
7C00
0000
0000
ENDCHAR
STARTCHAR p
ENCODING 112
SWIDTH 562 0
DWIDTH 9 0
BBX 9 14 0 -2
BITMAP
0000
0000
0000
0000
0000
0000
FC00
8200
8200
8200
8200
FC00
8000
8000
ENDCHAR
STARTCHAR q
ENCODING 113
SWIDTH 562 0
DWIDTH 9 0
BBX 9 14 0 -2
BITMAP
0000
0000
0000
0000
0000
0000
7E00
8200
8200
8200
8200
7E00
0200
0200
ENDCHAR
STARTCHAR r
ENCODING 114
SWIDTH 562 0
DWIDTH 9 0
BBX 9 14 0 -2
BITMAP
0000
0000
0000
0000
0000
0000
DC00
6200
4000
4000
4000
4000
0000
0000
ENDCHAR
STARTCHAR s
ENCODING 115
SWIDTH 562 0
DWIDTH 9 0
BBX 9 14 0 -2
BITMAP
0000
0000
0000
0000
0000
0000
7C00
8000
7C00
0200
0200
FC00
0000
0000
ENDCHAR
STARTCHAR t
ENCODING 116
SWIDTH 562 0
DWIDTH 9 0
BBX 9 14 0 -2
BITMAP
0000
0000
0000
0000
2000
2000
FC00
2000
2000
2000
2000
1E00
0000
0000
ENDCHAR
STARTCHAR u
ENCODING 117
SWIDTH 562 0
DWIDTH 9 0
BBX 9 14 0 -2
BITMAP
0000
0000
0000
0000
0000
0000
8200
8200
8200
8200
8200
7E00
0000
0000
ENDCHAR
STARTCHAR v
ENCODING 118
SWIDTH 562 0
DWIDTH 9 0
BBX 9 14 0 -2
BITMAP
0000
0000
0000
0000
0000
0000
8200
8200
8200
4400
2800
1000
0000
0000
ENDCHAR
STARTCHAR w
ENCODING 119
SWIDTH 562 0
DWIDTH 9 0
BBX 9 14 0 -2
BITMAP
0000
0000
0000
0000
0000
0000
8200
8200
9200
9200
AA00
4400
0000
0000
ENDCHAR
STARTCHAR x
ENCODING 120
SWIDTH 562 0
DWIDTH 9 0
BBX 9 14 0 -2
BITMAP
0000
0000
0000
0000
0000
0000
8400
4800
3000
3000
4800
8400
0000
0000
ENDCHAR
STARTCHAR y
ENCODING 121
SWIDTH 562 0
DWIDTH 9 0
BBX 9 14 0 -2
BITMAP
0000
0000
0000
0000
0000
0000
8200
8200
8200
8200
4600
3A00
0200
7C00
ENDCHAR
STARTCHAR z
ENCODING 122
SWIDTH 562 0
DWIDTH 9 0
BBX 9 14 0 -2
BITMAP
0000
0000
0000
0000
0000
0000
FC00
0800
1000
2000
4000
FC00
0000
0000
ENDCHAR
STARTCHAR braceleft
ENCODING 123
SWIDTH 562 0
DWIDTH 9 0
BBX 9 14 0 -2
BITMAP
0000
0000
0000
0C00
1000
1000
1000
6000
1000
1000
1000
0C00
0000
0000
ENDCHAR
STARTCHAR bar
ENCODING 124
SWIDTH 562 0
DWIDTH 9 0
BBX 9 14 0 -2
BITMAP
0000
0000
0000
1000
1000
1000
1000
0000
1000
1000
1000
1000
0000
0000
ENDCHAR
STARTCHAR braceright
ENCODING 125
SWIDTH 562 0
DWIDTH 9 0
BBX 9 14 0 -2
BITMAP
0000
0000
0000
6000
1000
1000
1000
0C00
1000
1000
1000
6000
0000
0000
ENDCHAR
STARTCHAR asciitilde
ENCODING 126
SWIDTH 562 0
DWIDTH 9 0
BBX 9 14 0 -2
BITMAP
0000
0000
3200
4C00
0000
0000
0000
0000
0000
0000
0000
0000
0000
0000
ENDCHAR
STARTCHAR uni007F
ENCODING 127
SWIDTH 562 0
DWIDTH 9 0
BBX 9 14 0 -2
BITMAP
0000
0000
0000
0000
0000
0000
1000
2800
4400
8200
8200
FE00
0000
0000
ENDCHAR
STARTCHAR uni00A0
ENCODING 160
SWIDTH 562 0
DWIDTH 9 0
BBX 9 14 0 -2
BITMAP
0000
0000
0000
0000
0000
0000
0000
0000
0000
0000
0000
0000
0000
0000
ENDCHAR
STARTCHAR exclamdown
ENCODING 161
SWIDTH 562 0
DWIDTH 9 0
BBX 9 14 0 -2
BITMAP
0000
0000
0000
0000
0000
0000
1000
1000
0000
1000
1000
1000
1000
1000
ENDCHAR
STARTCHAR cent
ENCODING 162
SWIDTH 562 0
DWIDTH 9 0
BBX 9 14 0 -2
BITMAP
0000
0000
0000
0000
0000
1000
7C00
9200
9000
9000
9200
7C00
1000
0000
ENDCHAR
STARTCHAR sterling
ENCODING 163
SWIDTH 562 0
DWIDTH 9 0
BBX 9 14 0 -2
BITMAP
0000
0000
0000
3C00
4000
4000
4000
F000
4000
4000
4200
BC00
0000
0000
ENDCHAR
STARTCHAR yen
ENCODING 165
SWIDTH 562 0
DWIDTH 9 0
BBX 9 14 0 -2
BITMAP
0000
0000
0000
8200
8200
8200
4400
2800
FE00
1000
FE00
1000
0000
0000
ENDCHAR
STARTCHAR section
ENCODING 167
SWIDTH 562 0
DWIDTH 9 0
BBX 9 14 0 -2
BITMAP
0000
0000
1C00
2000
1000
2800
4400
4200
2200
1400
0800
0400
3800
0000
ENDCHAR
STARTCHAR ordfeminine
ENCODING 170
SWIDTH 562 0
DWIDTH 9 0
BBX 9 14 0 -2
BITMAP
0000
0000
0000
7000
0800
7800
8800
7400
0000
FC00
0000
0000
0000
0000
ENDCHAR
STARTCHAR guillemotleft
ENCODING 171
SWIDTH 562 0
DWIDTH 9 0
BBX 9 14 0 -2
BITMAP
0000
0000
0000
0000
1200
2400
4800
9000
4800
2400
1200
0000
0000
0000
ENDCHAR
STARTCHAR logicalnot
ENCODING 172
SWIDTH 562 0
DWIDTH 9 0
BBX 9 14 0 -2
BITMAP
0000
0000
0000
0000
0000
0000
0000
FE00
0200
0200
0200
0000
0000
0000
ENDCHAR
STARTCHAR degree
ENCODING 176
SWIDTH 562 0
DWIDTH 9 0
BBX 9 14 0 -2
BITMAP
0000
0000
0000
3800
4400
4400
3800
0000
0000
0000
0000
0000
0000
0000
ENDCHAR
STARTCHAR plusminus
ENCODING 177
SWIDTH 562 0
DWIDTH 9 0
BBX 9 14 0 -2
BITMAP
0000
0000
0000
1000
1000
1000
FE00
1000
1000
1000
0000
FE00
0000
0000
ENDCHAR
STARTCHAR uni00B2
ENCODING 178
SWIDTH 562 0
DWIDTH 9 0
BBX 9 14 0 -2
BITMAP
0000
0000
0000
7000
8800
1000
2000
4000
F800
0000
0000
0000
0000
0000
ENDCHAR
STARTCHAR mu
ENCODING 181
SWIDTH 562 0
DWIDTH 9 0
BBX 9 14 0 -2
BITMAP
0000
0000
0000
0000
0000
0000
8400
8400
8400
8400
8400
7A00
8000
8000
ENDCHAR
STARTCHAR paragraph
ENCODING 182
SWIDTH 562 0
DWIDTH 9 0
BBX 9 14 0 -2
BITMAP
0000
0000
0000
7E00
9400
9400
9400
7400
1400
1400
1400
1400
0000
0000
ENDCHAR
STARTCHAR periodcentered
ENCODING 183
SWIDTH 562 0
DWIDTH 9 0
BBX 9 14 0 -2
BITMAP
0000
0000
0000
0000
0000
0000
0000
3800
0000
0000
0000
0000
0000
0000
ENDCHAR
STARTCHAR ordmasculine
ENCODING 186
SWIDTH 562 0
DWIDTH 9 0
BBX 9 14 0 -2
BITMAP
0000
0000
0000
7800
8400
8400
8400
7800
0000
FC00
0000
0000
0000
0000
ENDCHAR
STARTCHAR guillemotright
ENCODING 187
SWIDTH 562 0
DWIDTH 9 0
BBX 9 14 0 -2
BITMAP
0000
0000
0000
0000
9000
4800
2400
1200
2400
4800
9000
0000
0000
0000
ENDCHAR
STARTCHAR onequarter
ENCODING 188
SWIDTH 562 0
DWIDTH 9 0
BBX 9 14 0 -2
BITMAP
0000
0000
4000
C000
4000
4400
4800
1000
2600
4A00
9200
3F00
0200
0000
ENDCHAR
STARTCHAR onehalf
ENCODING 189
SWIDTH 562 0
DWIDTH 9 0
BBX 9 14 0 -2
BITMAP
0000
0000
4000
C000
4000
4400
4800
1000
2600
4900
8200
0400
0F00
0000
ENDCHAR
STARTCHAR questiondown
ENCODING 191
SWIDTH 562 0
DWIDTH 9 0
BBX 9 14 0 -2
BITMAP
0000
0000
0000
0000
0000
0000
1000
1000
0000
1000
2000
4000
8200
7C00
ENDCHAR
STARTCHAR Adieresis
ENCODING 196
SWIDTH 562 0
DWIDTH 9 0
BBX 9 14 0 -2
BITMAP
0000
4400
0000
3800
4400
8200
8200
8200
FE00
8200
8200
8200
0000
0000
ENDCHAR
STARTCHAR Aring
ENCODING 197
SWIDTH 562 0
DWIDTH 9 0
BBX 9 14 0 -2
BITMAP
0000
3800
4400
3800
4400
8200
8200
8200
FE00
8200
8200
8200
0000
0000
ENDCHAR
STARTCHAR AE
ENCODING 198
SWIDTH 562 0
DWIDTH 9 0
BBX 9 14 0 -2
BITMAP
0000
0000
0000
3E00
4800
8800
8800
8E00
F800
8800
8800
8E00
0000
0000
ENDCHAR
STARTCHAR Ccedilla
ENCODING 199
SWIDTH 562 0
DWIDTH 9 0
BBX 9 14 0 -2
BITMAP
0000
0000
0000
7C00
8200
8200
8000
8000
8000
8200
8200
7C00
1000
3000
ENDCHAR
STARTCHAR Eacute
ENCODING 201
SWIDTH 562 0
DWIDTH 9 0
BBX 9 14 0 -2
BITMAP
0400
0800
0000
FE00
8000
8000
8000
FC00
8000
8000
8000
FE00
0000
0000
ENDCHAR
STARTCHAR Ntilde
ENCODING 209
SWIDTH 562 0
DWIDTH 9 0
BBX 9 14 0 -2
BITMAP
7200
8C00
0000
8200
8200
C200
A200
9200
8A00
8600
8200
8200
0000
0000
ENDCHAR
STARTCHAR Odieresis
ENCODING 214
SWIDTH 562 0
DWIDTH 9 0
BBX 9 14 0 -2
BITMAP
0000
4400
0000
7C00
8200
8200
8200
8200
8200
8200
8200
7C00
0000
0000
ENDCHAR
STARTCHAR Udieresis
ENCODING 220
SWIDTH 562 0
DWIDTH 9 0
BBX 9 14 0 -2
BITMAP
0000
4400
0000
8200
8200
8200
8200
8200
8200
8200
8200
7C00
0000
0000
ENDCHAR
STARTCHAR germandbls
ENCODING 223
SWIDTH 562 0
DWIDTH 9 0
BBX 9 14 0 -2
BITMAP
0000
0000
0000
7000
8800
8800
8800
B000
8800
8400
A400
9800
0000
0000
ENDCHAR
STARTCHAR agrave
ENCODING 224
SWIDTH 562 0
DWIDTH 9 0
BBX 9 14 0 -2
BITMAP
0000
0000
0000
4000
2000
0000
7800
0400
7C00
8400
8400
7A00
0000
0000
ENDCHAR
STARTCHAR aacute
ENCODING 225
SWIDTH 562 0
DWIDTH 9 0
BBX 9 14 0 -2
BITMAP
0000
0000
0000
0400
0800
0000
7800
0400
7C00
8400
8400
7A00
0000
0000
ENDCHAR
STARTCHAR acircumflex
ENCODING 226
SWIDTH 562 0
DWIDTH 9 0
BBX 9 14 0 -2
BITMAP
0000
0000
0000
3000
4800
0000
7800
0400
7C00
8400
8400
7A00
0000
0000
ENDCHAR
STARTCHAR adieresis
ENCODING 228
SWIDTH 562 0
DWIDTH 9 0
BBX 9 14 0 -2
BITMAP
0000
0000
0000
4800
0000
0000
7800
0400
7C00
8400
8400
7A00
0000
0000
ENDCHAR
STARTCHAR aring
ENCODING 229
SWIDTH 562 0
DWIDTH 9 0
BBX 9 14 0 -2
BITMAP
0000
0000
3000
4800
3000
0000
7800
0400
7C00
8400
8400
7A00
0000
0000
ENDCHAR
STARTCHAR ae
ENCODING 230
SWIDTH 562 0
DWIDTH 9 0
BBX 9 14 0 -2
BITMAP
0000
0000
0000
0000
0000
0000
6C00
1200
7E00
9000
9000
6E00
0000
0000
ENDCHAR
STARTCHAR ccedilla
ENCODING 231
SWIDTH 562 0
DWIDTH 9 0
BBX 9 14 0 -2
BITMAP
0000
0000
0000
0000
0000
0000
7C00
8200
8000
8000
8200
7C00
1000
3000
ENDCHAR
STARTCHAR egrave
ENCODING 232
SWIDTH 562 0
DWIDTH 9 0
BBX 9 14 0 -2
BITMAP
0000
0000
0000
4000
2000
0000
7C00
8200
8200
FC00
8000
7C00
0000
0000
ENDCHAR
STARTCHAR eacute
ENCODING 233
SWIDTH 562 0
DWIDTH 9 0
BBX 9 14 0 -2
BITMAP
0000
0000
0000
0400
0800
0000
7C00
8200
8200
FC00
8000
7C00
0000
0000
ENDCHAR
STARTCHAR ecircumflex
ENCODING 234
SWIDTH 562 0
DWIDTH 9 0
BBX 9 14 0 -2
BITMAP
0000
0000
0000
3800
4400
0000
7C00
8200
8200
FC00
8000
7C00
0000
0000
ENDCHAR
STARTCHAR edieresis
ENCODING 235
SWIDTH 562 0
DWIDTH 9 0
BBX 9 14 0 -2
BITMAP
0000
0000
0000
4400
0000
0000
7C00
8200
8200
FC00
8000
7C00
0000
0000
ENDCHAR
STARTCHAR igrave
ENCODING 236
SWIDTH 562 0
DWIDTH 9 0
BBX 9 14 0 -2
BITMAP
0000
0000
0000
4000
2000
0000
7000
1000
1000
1000
1000
7C00
0000
0000
ENDCHAR
STARTCHAR iacute
ENCODING 237
SWIDTH 562 0
DWIDTH 9 0
BBX 9 14 0 -2
BITMAP
0000
0000
0000
0800
1000
0000
7000
1000
1000
1000
1000
7C00
0000
0000
ENDCHAR
STARTCHAR icircumflex
ENCODING 238
SWIDTH 562 0
DWIDTH 9 0
BBX 9 14 0 -2
BITMAP
0000
0000
0000
3800
4400
0000
7000
1000
1000
1000
1000
7C00
0000
0000
ENDCHAR
STARTCHAR idieresis
ENCODING 239
SWIDTH 562 0
DWIDTH 9 0
BBX 9 14 0 -2
BITMAP
0000
0000
0000
4400
0000
0000
7000
1000
1000
1000
1000
7C00
0000
0000
ENDCHAR
STARTCHAR ntilde
ENCODING 241
SWIDTH 562 0
DWIDTH 9 0
BBX 9 14 0 -2
BITMAP
0000
0000
0000
3200
4C00
0000
FC00
8200
8200
8200
8200
8200
0000
0000
ENDCHAR
STARTCHAR ograve
ENCODING 242
SWIDTH 562 0
DWIDTH 9 0
BBX 9 14 0 -2
BITMAP
0000
0000
0000
4000
2000
0000
7C00
8200
8200
8200
8200
7C00
0000
0000
ENDCHAR
STARTCHAR oacute
ENCODING 243
SWIDTH 562 0
DWIDTH 9 0
BBX 9 14 0 -2
BITMAP
0000
0000
0000
0400
0800
0000
7C00
8200
8200
8200
8200
7C00
0000
0000
ENDCHAR
STARTCHAR ocircumflex
ENCODING 244
SWIDTH 562 0
DWIDTH 9 0
BBX 9 14 0 -2
BITMAP
0000
0000
0000
3800
4400
0000
7C00
8200
8200
8200
8200
7C00
0000
0000
ENDCHAR
STARTCHAR odieresis
ENCODING 246
SWIDTH 562 0
DWIDTH 9 0
BBX 9 14 0 -2
BITMAP
0000
0000
0000
4400
0000
0000
7C00
8200
8200
8200
8200
7C00
0000
0000
ENDCHAR
STARTCHAR divide
ENCODING 247
SWIDTH 562 0
DWIDTH 9 0
BBX 9 14 0 -2
BITMAP
0000
0000
0000
0000
1000
1000
0000
FE00
0000
1000
1000
0000
0000
0000
ENDCHAR
STARTCHAR ugrave
ENCODING 249
SWIDTH 562 0
DWIDTH 9 0
BBX 9 14 0 -2
BITMAP
0000
0000
0000
4000
2000
0000
8200
8200
8200
8200
8200
7E00
0000
0000
ENDCHAR
STARTCHAR uacute
ENCODING 250
SWIDTH 562 0
DWIDTH 9 0
BBX 9 14 0 -2
BITMAP
0000
0000
0000
0400
0800
0000
8200
8200
8200
8200
8200
7E00
0000
0000
ENDCHAR
STARTCHAR ucircumflex
ENCODING 251
SWIDTH 562 0
DWIDTH 9 0
BBX 9 14 0 -2
BITMAP
0000
0000
0000
3800
4400
0000
8200
8200
8200
8200
8200
7E00
0000
0000
ENDCHAR
STARTCHAR udieresis
ENCODING 252
SWIDTH 562 0
DWIDTH 9 0
BBX 9 14 0 -2
BITMAP
0000
0000
0000
4400
0000
0000
8200
8200
8200
8200
8200
7E00
0000
0000
ENDCHAR
STARTCHAR ydieresis
ENCODING 255
SWIDTH 562 0
DWIDTH 9 0
BBX 9 14 0 -2
BITMAP
0000
0000
0000
4400
0000
0000
8200
8200
8200
8200
4600
3A00
0200
7C00
ENDCHAR
STARTCHAR florin
ENCODING 402
SWIDTH 562 0
DWIDTH 9 0
BBX 9 14 0 -2
BITMAP
0000
0000
0000
0E00
1000
1000
7C00
1000
1000
1000
1000
1000
1000
E000
ENDCHAR
STARTCHAR Gamma
ENCODING 915
SWIDTH 562 0
DWIDTH 9 0
BBX 9 14 0 -2
BITMAP
0000
0000
0000
FE00
8000
8000
8000
8000
8000
8000
8000
8000
0000
0000
ENDCHAR
STARTCHAR Theta
ENCODING 920
SWIDTH 562 0
DWIDTH 9 0
BBX 9 14 0 -2
BITMAP
0000
0000
0000
3800
4400
4400
4400
7C00
4400
4400
4400
3800
0000
0000
ENDCHAR
STARTCHAR Sigma
ENCODING 931
SWIDTH 562 0
DWIDTH 9 0
BBX 9 14 0 -2
BITMAP
0000
0000
0000
FE00
4000
2000
1000
0800
1000
2000
4000
FE00
0000
0000
ENDCHAR
STARTCHAR Phi
ENCODING 934
SWIDTH 562 0
DWIDTH 9 0
BBX 9 14 0 -2
BITMAP
0000
0000
0000
7C00
1000
7C00
9200
9200
9200
7C00
1000
7C00
0000
0000
ENDCHAR
STARTCHAR uni03A9
ENCODING 937
SWIDTH 562 0
DWIDTH 9 0
BBX 9 14 0 -2
BITMAP
0000
0000
0000
3800
4400
8200
8200
8200
8200
4400
2800
EE00
0000
0000
ENDCHAR
STARTCHAR alpha
ENCODING 945
SWIDTH 562 0
DWIDTH 9 0
BBX 9 14 0 -2
BITMAP
0000
0000
0000
0000
0000
0000
7400
8800
8800
8800
8800
7400
0000
0000
ENDCHAR
STARTCHAR delta
ENCODING 948
SWIDTH 562 0
DWIDTH 9 0
BBX 9 14 0 -2
BITMAP
0000
0000
0000
7C00
2000
1000
3800
4400
8200
8200
8200
7C00
0000
0000
ENDCHAR
STARTCHAR epsilon
ENCODING 949
SWIDTH 562 0
DWIDTH 9 0
BBX 9 14 0 -2
BITMAP
0000
0000
0000
0000
0000
0000
7C00
8000
7800
8000
8000
7C00
0000
0000
ENDCHAR
STARTCHAR pi
ENCODING 960
SWIDTH 562 0
DWIDTH 9 0
BBX 9 14 0 -2
BITMAP
0000
0000
0000
0000
0000
0000
FE00
4400
4400
4400
4400
4200
0000
0000
ENDCHAR
STARTCHAR sigma
ENCODING 963
SWIDTH 562 0
DWIDTH 9 0
BBX 9 14 0 -2
BITMAP
0000
0000
0000
0000
0000
0000
7E00
8800
8400
8400
8400
7800
0000
0000
ENDCHAR
STARTCHAR tau
ENCODING 964
SWIDTH 562 0
DWIDTH 9 0
BBX 9 14 0 -2
BITMAP
0000
0000
0000
0000
0000
0000
7E00
9000
1000
1000
1000
0C00
0000
0000
ENDCHAR
STARTCHAR phi
ENCODING 966
SWIDTH 562 0
DWIDTH 9 0
BBX 9 14 0 -2
BITMAP
0000
0000
0000
0000
0400
7800
8C00
9400
A400
C400
7800
8000
0000
0000
ENDCHAR
STARTCHAR bullet
ENCODING 8226
SWIDTH 562 0
DWIDTH 9 0
BBX 9 14 0 -2
BITMAP
0000
0000
0000
0000
3C00
7E00
7E00
7E00
7E00
3C00
0000
0000
0000
0000
ENDCHAR
STARTCHAR exclamdbl
ENCODING 8252
SWIDTH 562 0
DWIDTH 9 0
BBX 9 14 0 -2
BITMAP
0000
0000
0000
2400
2400
2400
2400
2400
2400
0000
2400
2400
0000
0000
ENDCHAR
STARTCHAR uni207F
ENCODING 8319
SWIDTH 562 0
DWIDTH 9 0
BBX 9 14 0 -2
BITMAP
0000
0000
0000
B800
4400
4400
4400
4400
4400
0000
0000
0000
0000
0000
ENDCHAR
STARTCHAR peseta
ENCODING 8359
SWIDTH 562 0
DWIDTH 9 0
BBX 9 14 0 -2
BITMAP
0000
0000
0000
F800
8400
8400
F800
8000
8800
8E00
8800
8800
0600
0000
ENDCHAR
STARTCHAR arrowleft
ENCODING 8592
SWIDTH 562 0
DWIDTH 9 0
BBX 9 14 0 -2
BITMAP
0000
0000
0000
0000
0000
2000
4000
FE00
4000
2000
0000
0000
0000
0000
ENDCHAR
STARTCHAR arrowup
ENCODING 8593
SWIDTH 562 0
DWIDTH 9 0
BBX 9 14 0 -2
BITMAP
0000
0000
0000
1000
3800
5400
1000
1000
1000
1000
1000
1000
0000
0000
ENDCHAR
STARTCHAR arrowright
ENCODING 8594
SWIDTH 562 0
DWIDTH 9 0
BBX 9 14 0 -2
BITMAP
0000
0000
0000
0000
0000
0800
0400
FE00
0400
0800
0000
0000
0000
0000
ENDCHAR
STARTCHAR arrowdown
ENCODING 8595
SWIDTH 562 0
DWIDTH 9 0
BBX 9 14 0 -2
BITMAP
0000
0000
0000
1000
1000
1000
1000
1000
1000
5400
3800
1000
0000
0000
ENDCHAR
STARTCHAR arrowboth
ENCODING 8596
SWIDTH 562 0
DWIDTH 9 0
BBX 9 14 0 -2
BITMAP
0000
0000
0000
0000
0000
2800
4400
FE00
4400
2800
0000
0000
0000
0000
ENDCHAR
STARTCHAR arrowupdn
ENCODING 8597
SWIDTH 562 0
DWIDTH 9 0
BBX 9 14 0 -2
BITMAP
0000
0000
0000
1000
3800
5400
1000
1000
1000
5400
3800
1000
0000
0000
ENDCHAR
STARTCHAR arrowupdnbse
ENCODING 8616
SWIDTH 562 0
DWIDTH 9 0
BBX 9 14 0 -2
BITMAP
0000
0000
0000
1000
3800
5400
1000
1000
1000
5400
3800
1000
7C00
0000
ENDCHAR
STARTCHAR uni2219
ENCODING 8729
SWIDTH 562 0
DWIDTH 9 0
BBX 9 14 0 -2
BITMAP
0000
0000
0000
0000
0000
0000
3800
3800
0000
0000
0000
0000
0000
0000
ENDCHAR
STARTCHAR radical
ENCODING 8730
SWIDTH 562 0
DWIDTH 9 0
BBX 9 14 0 -2
BITMAP
0000
0000
0000
0F00
0800
0800
0800
0800
8800
4800
2800
1800
0800
0000
ENDCHAR
STARTCHAR infinity
ENCODING 8734
SWIDTH 562 0
DWIDTH 9 0
BBX 9 14 0 -2
BITMAP
0000
0000
0000
0000
0000
0000
6C00
9200
9200
6C00
0000
0000
0000
0000
ENDCHAR
STARTCHAR orthogonal
ENCODING 8735
SWIDTH 562 0
DWIDTH 9 0
BBX 9 14 0 -2
BITMAP
0000
0000
0000
0000
0000
0000
0000
8000
8000
8000
8000
FE00
0000
0000
ENDCHAR
STARTCHAR intersection
ENCODING 8745
SWIDTH 562 0
DWIDTH 9 0
BBX 9 14 0 -2
BITMAP
0000
0000
0000
7C00
8200
8200
8200
8200
8200
8200
8200
8200
0000
0000
ENDCHAR
STARTCHAR approxequal
ENCODING 8776
SWIDTH 562 0
DWIDTH 9 0
BBX 9 14 0 -2
BITMAP
0000
0000
0000
0000
0000
3200
4C00
0000
3200
4C00
0000
0000
0000
0000
ENDCHAR
STARTCHAR equivalence
ENCODING 8801
SWIDTH 562 0
DWIDTH 9 0
BBX 9 14 0 -2
BITMAP
0000
0000
0000
0000
FE00
0000
0000
FE00
0000
0000
FE00
0000
0000
0000
ENDCHAR
STARTCHAR lessequal
ENCODING 8804
SWIDTH 562 0
DWIDTH 9 0
BBX 9 14 0 -2
BITMAP
0000
0000
0000
0400
0800
1000
2000
1000
0800
0400
0000
7E00
0000
0000
ENDCHAR
STARTCHAR greaterequal
ENCODING 8805
SWIDTH 562 0
DWIDTH 9 0
BBX 9 14 0 -2
BITMAP
0000
0000
0000
2000
1000
0800
0400
0800
1000
2000
0000
7E00
0000
0000
ENDCHAR
STARTCHAR house
ENCODING 8962
SWIDTH 562 0
DWIDTH 9 0
BBX 9 14 0 -2
BITMAP
0000
0000
0000
0000
0000
0000
1000
2800
4400
8200
8200
FE00
0000
0000
ENDCHAR
STARTCHAR revlogicalnot
ENCODING 8976
SWIDTH 562 0
DWIDTH 9 0
BBX 9 14 0 -2
BITMAP
0000
0000
0000
0000
0000
0000
0000
FE00
8000
8000
8000
0000
0000
0000
ENDCHAR
STARTCHAR integraltp
ENCODING 8992
SWIDTH 562 0
DWIDTH 9 0
BBX 9 14 0 -2
BITMAP
0000
0000
0000
0600
0900
0800
0800
0800
0800
0800
0800
0800
0800
0800
ENDCHAR
STARTCHAR integralbt
ENCODING 8993
SWIDTH 562 0
DWIDTH 9 0
BBX 9 14 0 -2
BITMAP
0800
0800
0800
0800
0800
0800
0800
0800
0800
0800
0800
0800
2800
1000
ENDCHAR
STARTCHAR SF100000
ENCODING 9472
SWIDTH 562 0
DWIDTH 9 0
BBX 9 14 0 -2
BITMAP
0000
0000
0000
0000
0000
0000
0000
FF80
0000
0000
0000
0000
0000
0000
ENDCHAR
STARTCHAR SF110000
ENCODING 9474
SWIDTH 562 0
DWIDTH 9 0
BBX 9 14 0 -2
BITMAP
0800
0800
0800
0800
0800
0800
0800
0800
0800
0800
0800
0800
0800
0800
ENDCHAR
STARTCHAR SF010000
ENCODING 9484
SWIDTH 562 0
DWIDTH 9 0
BBX 9 14 0 -2
BITMAP
0000
0000
0000
0000
0000
0000
0000
0F80
0800
0800
0800
0800
0800
0800
ENDCHAR
STARTCHAR SF030000
ENCODING 9488
SWIDTH 562 0
DWIDTH 9 0
BBX 9 14 0 -2
BITMAP
0000
0000
0000
0000
0000
0000
0000
F800
0800
0800
0800
0800
0800
0800
ENDCHAR
STARTCHAR SF020000
ENCODING 9492
SWIDTH 562 0
DWIDTH 9 0
BBX 9 14 0 -2
BITMAP
0800
0800
0800
0800
0800
0800
0800
0F80
0000
0000
0000
0000
0000
0000
ENDCHAR
STARTCHAR SF040000
ENCODING 9496
SWIDTH 562 0
DWIDTH 9 0
BBX 9 14 0 -2
BITMAP
0800
0800
0800
0800
0800
0800
0800
F800
0000
0000
0000
0000
0000
0000
ENDCHAR
STARTCHAR SF080000
ENCODING 9500
SWIDTH 562 0
DWIDTH 9 0
BBX 9 14 0 -2
BITMAP
0800
0800
0800
0800
0800
0800
0800
0F80
0800
0800
0800
0800
0800
0800
ENDCHAR
STARTCHAR SF090000
ENCODING 9508
SWIDTH 562 0
DWIDTH 9 0
BBX 9 14 0 -2
BITMAP
0800
0800
0800
0800
0800
0800
0800
F800
0800
0800
0800
0800
0800
0800
ENDCHAR
STARTCHAR SF060000
ENCODING 9516
SWIDTH 562 0
DWIDTH 9 0
BBX 9 14 0 -2
BITMAP
0000
0000
0000
0000
0000
0000
0000
FF80
0800
0800
0800
0800
0800
0800
ENDCHAR
STARTCHAR SF070000
ENCODING 9524
SWIDTH 562 0
DWIDTH 9 0
BBX 9 14 0 -2
BITMAP
0800
0800
0800
0800
0800
0800
0800
FF80
0000
0000
0000
0000
0000
0000
ENDCHAR
STARTCHAR SF050000
ENCODING 9532
SWIDTH 562 0
DWIDTH 9 0
BBX 9 14 0 -2
BITMAP
0800
0800
0800
0800
0800
0800
0800
FF80
0800
0800
0800
0800
0800
0800
ENDCHAR
STARTCHAR SF430000
ENCODING 9552
SWIDTH 562 0
DWIDTH 9 0
BBX 9 14 0 -2
BITMAP
0000
0000
0000
0000
0000
0000
FF80
0000
FF80
0000
0000
0000
0000
0000
ENDCHAR
STARTCHAR SF240000
ENCODING 9553
SWIDTH 562 0
DWIDTH 9 0
BBX 9 14 0 -2
BITMAP
1400
1400
1400
1400
1400
1400
1400
1400
1400
1400
1400
1400
1400
1400
ENDCHAR
STARTCHAR SF510000
ENCODING 9554
SWIDTH 562 0
DWIDTH 9 0
BBX 9 14 0 -2
BITMAP
0000
0000
0000
0000
0000
0000
0F80
0800
0F80
0800
0800
0800
0800
0800
ENDCHAR
STARTCHAR SF520000
ENCODING 9555
SWIDTH 562 0
DWIDTH 9 0
BBX 9 14 0 -2
BITMAP
0000
0000
0000
0000
0000
0000
0000
1F80
1400
1400
1400
1400
1400
1400
ENDCHAR
STARTCHAR SF390000
ENCODING 9556
SWIDTH 562 0
DWIDTH 9 0
BBX 9 14 0 -2
BITMAP
0000
0000
0000
0000
0000
0000
1F80
1000
1780
1400
1400
1400
1400
1400
ENDCHAR
STARTCHAR SF220000
ENCODING 9557
SWIDTH 562 0
DWIDTH 9 0
BBX 9 14 0 -2
BITMAP
0000
0000
0000
0000
0000
0000
F800
0800
F800
0800
0800
0800
0800
0800
ENDCHAR
STARTCHAR SF210000
ENCODING 9558
SWIDTH 562 0
DWIDTH 9 0
BBX 9 14 0 -2
BITMAP
0000
0000
0000
0000
0000
0000
0000
FC00
1400
1400
1400
1400
1400
1400
ENDCHAR
STARTCHAR SF250000
ENCODING 9559
SWIDTH 562 0
DWIDTH 9 0
BBX 9 14 0 -2
BITMAP
0000
0000
0000
0000
0000
0000
FC00
0400
F400
1400
1400
1400
1400
1400
ENDCHAR
STARTCHAR SF500000
ENCODING 9560
SWIDTH 562 0
DWIDTH 9 0
BBX 9 14 0 -2
BITMAP
0800
0800
0800
0800
0800
0800
0F80
0800
0F80
0000
0000
0000
0000
0000
ENDCHAR
STARTCHAR SF490000
ENCODING 9561
SWIDTH 562 0
DWIDTH 9 0
BBX 9 14 0 -2
BITMAP
1400
1400
1400
1400
1400
1400
1400
1F80
0000
0000
0000
0000
0000
0000
ENDCHAR
STARTCHAR SF380000
ENCODING 9562
SWIDTH 562 0
DWIDTH 9 0
BBX 9 14 0 -2
BITMAP
1400
1400
1400
1400
1400
1400
1780
1000
1F80
0000
0000
0000
0000
0000
ENDCHAR
STARTCHAR SF280000
ENCODING 9563
SWIDTH 562 0
DWIDTH 9 0
BBX 9 14 0 -2
BITMAP
0800
0800
0800
0800
0800
0800
F800
0800
F800
0000
0000
0000
0000
0000
ENDCHAR
STARTCHAR SF270000
ENCODING 9564
SWIDTH 562 0
DWIDTH 9 0
BBX 9 14 0 -2
BITMAP
1400
1400
1400
1400
1400
1400
1400
FC00
0000
0000
0000
0000
0000
0000
ENDCHAR
STARTCHAR SF260000
ENCODING 9565
SWIDTH 562 0
DWIDTH 9 0
BBX 9 14 0 -2
BITMAP
1400
1400
1400
1400
1400
1400
F400
0400
FC00
0000
0000
0000
0000
0000
ENDCHAR
STARTCHAR SF360000
ENCODING 9566
SWIDTH 562 0
DWIDTH 9 0
BBX 9 14 0 -2
BITMAP
0800
0800
0800
0800
0800
0800
0F80
0800
0F80
0800
0800
0800
0800
0800
ENDCHAR
STARTCHAR SF370000
ENCODING 9567
SWIDTH 562 0
DWIDTH 9 0
BBX 9 14 0 -2
BITMAP
1400
1400
1400
1400
1400
1400
1400
1780
1400
1400
1400
1400
1400
1400
ENDCHAR
STARTCHAR SF420000
ENCODING 9568
SWIDTH 562 0
DWIDTH 9 0
BBX 9 14 0 -2
BITMAP
1400
1400
1400
1400
1400
1400
1780
1000
1780
1400
1400
1400
1400
1400
ENDCHAR
STARTCHAR SF190000
ENCODING 9569
SWIDTH 562 0
DWIDTH 9 0
BBX 9 14 0 -2
BITMAP
0800
0800
0800
0800
0800
0800
F800
0800
F800
0800
0800
0800
0800
0800
ENDCHAR
STARTCHAR SF200000
ENCODING 9570
SWIDTH 562 0
DWIDTH 9 0
BBX 9 14 0 -2
BITMAP
1400
1400
1400
1400
1400
1400
1400
F400
1400
1400
1400
1400
1400
1400
ENDCHAR
STARTCHAR SF230000
ENCODING 9571
SWIDTH 562 0
DWIDTH 9 0
BBX 9 14 0 -2
BITMAP
1400
1400
1400
1400
1400
1400
F400
0400
F400
1400
1400
1400
1400
1400
ENDCHAR
STARTCHAR SF470000
ENCODING 9572
SWIDTH 562 0
DWIDTH 9 0
BBX 9 14 0 -2
BITMAP
0000
0000
0000
0000
0000
0000
FF80
0000
FF80
0800
0800
0800
0800
0800
ENDCHAR
STARTCHAR SF480000
ENCODING 9573
SWIDTH 562 0
DWIDTH 9 0
BBX 9 14 0 -2
BITMAP
0000
0000
0000
0000
0000
0000
0000
FF80
1400
1400
1400
1400
1400
1400
ENDCHAR
STARTCHAR SF410000
ENCODING 9574
SWIDTH 562 0
DWIDTH 9 0
BBX 9 14 0 -2
BITMAP
0000
0000
0000
0000
0000
0000
FF80
0000
F780
1400
1400
1400
1400
1400
ENDCHAR
STARTCHAR SF450000
ENCODING 9575
SWIDTH 562 0
DWIDTH 9 0
BBX 9 14 0 -2
BITMAP
0800
0800
0800
0800
0800
0800
FF80
0000
FF80
0000
0000
0000
0000
0000
ENDCHAR
STARTCHAR SF460000
ENCODING 9576
SWIDTH 562 0
DWIDTH 9 0
BBX 9 14 0 -2
BITMAP
1400
1400
1400
1400
1400
1400
1400
FF80
0000
0000
0000
0000
0000
0000
ENDCHAR
STARTCHAR SF400000
ENCODING 9577
SWIDTH 562 0
DWIDTH 9 0
BBX 9 14 0 -2
BITMAP
1400
1400
1400
1400
1400
1400
F780
0000
FF80
0000
0000
0000
0000
0000
ENDCHAR
STARTCHAR SF540000
ENCODING 9578
SWIDTH 562 0
DWIDTH 9 0
BBX 9 14 0 -2
BITMAP
0800
0800
0800
0800
0800
0800
FF80
0800
FF80
0800
0800
0800
0800
0800
ENDCHAR
STARTCHAR SF530000
ENCODING 9579
SWIDTH 562 0
DWIDTH 9 0
BBX 9 14 0 -2
BITMAP
1400
1400
1400
1400
1400
1400
1400
FF80
1400
1400
1400
1400
1400
1400
ENDCHAR
STARTCHAR SF440000
ENCODING 9580
SWIDTH 562 0
DWIDTH 9 0
BBX 9 14 0 -2
BITMAP
1400
1400
1400
1400
1400
1400
F780
0000
F780
1400
1400
1400
1400
1400
ENDCHAR
STARTCHAR upblock
ENCODING 9600
SWIDTH 562 0
DWIDTH 9 0
BBX 9 14 0 -2
BITMAP
FF80
FF80
FF80
FF80
FF80
FF80
FF80
0000
0000
0000
0000
0000
0000
0000
ENDCHAR
STARTCHAR dnblock
ENCODING 9604
SWIDTH 562 0
DWIDTH 9 0
BBX 9 14 0 -2
BITMAP
0000
0000
0000
0000
0000
0000
0000
FF80
FF80
FF80
FF80
FF80
FF80
FF80
ENDCHAR
STARTCHAR block
ENCODING 9608
SWIDTH 562 0
DWIDTH 9 0
BBX 9 14 0 -2
BITMAP
FF80
FF80
FF80
FF80
FF80
FF80
FF80
FF80
FF80
FF80
FF80
FF80
FF80
FF80
ENDCHAR
STARTCHAR lfblock
ENCODING 9612
SWIDTH 562 0
DWIDTH 9 0
BBX 9 14 0 -2
BITMAP
F000
F000
F000
F000
F000
F000
F000
F000
F000
F000
F000
F000
F000
F000
ENDCHAR
STARTCHAR rtblock
ENCODING 9616
SWIDTH 562 0
DWIDTH 9 0
BBX 9 14 0 -2
BITMAP
0F80
0F80
0F80
0F80
0F80
0F80
0F80
0F80
0F80
0F80
0F80
0F80
0F80
0F80
ENDCHAR
STARTCHAR ltshade
ENCODING 9617
SWIDTH 562 0
DWIDTH 9 0
BBX 9 14 0 -2
BITMAP
9200
0000
9200
0000
9200
0000
9200
0000
9200
0000
9200
0000
9200
0000
ENDCHAR
STARTCHAR shade
ENCODING 9618
SWIDTH 562 0
DWIDTH 9 0
BBX 9 14 0 -2
BITMAP
9200
4900
9200
4900
9200
4900
9200
4900
9200
4900
9200
4900
9200
4900
ENDCHAR
STARTCHAR dkshade
ENCODING 9619
SWIDTH 562 0
DWIDTH 9 0
BBX 9 14 0 -2
BITMAP
5500
AA00
5500
AA00
5500
AA00
5500
AA00
5500
AA00
5500
AA00
5500
AA00
ENDCHAR
STARTCHAR filledbox
ENCODING 9632
SWIDTH 562 0
DWIDTH 9 0
BBX 9 14 0 -2
BITMAP
0000
0000
0000
0000
0000
0000
7C00
7C00
7C00
7C00
7C00
7C00
0000
0000
ENDCHAR
STARTCHAR filledrect
ENCODING 9644
SWIDTH 562 0
DWIDTH 9 0
BBX 9 14 0 -2
BITMAP
0000
0000
0000
0000
0000
0000
0000
0000
0000
FE00
FE00
FE00
0000
0000
ENDCHAR
STARTCHAR triagup
ENCODING 9650
SWIDTH 562 0
DWIDTH 9 0
BBX 9 14 0 -2
BITMAP
0000
0000
0000
0000
0000
1000
3800
7C00
FE00
FE00
0000
0000
0000
0000
ENDCHAR
STARTCHAR triagrt
ENCODING 9658
SWIDTH 562 0
DWIDTH 9 0
BBX 9 14 0 -2
BITMAP
0000
0000
0000
4000
6000
7000
7800
7C00
7800
7000
6000
4000
0000
0000
ENDCHAR
STARTCHAR triagdn
ENCODING 9660
SWIDTH 562 0
DWIDTH 9 0
BBX 9 14 0 -2
BITMAP
0000
0000
0000
0000
0000
FE00
FE00
7C00
3800
1000
0000
0000
0000
0000
ENDCHAR
STARTCHAR triaglf
ENCODING 9668
SWIDTH 562 0
DWIDTH 9 0
BBX 9 14 0 -2
BITMAP
0000
0000
0000
0400
0C00
1C00
3C00
7C00
3C00
1C00
0C00
0400
0000
0000
ENDCHAR
STARTCHAR circle
ENCODING 9675
SWIDTH 562 0
DWIDTH 9 0
BBX 9 14 0 -2
BITMAP
0000
0000
0000
0000
3C00
4200
4200
4200
4200
3C00
0000
0000
0000
0000
ENDCHAR
STARTCHAR invbullet
ENCODING 9688
SWIDTH 562 0
DWIDTH 9 0
BBX 9 14 0 -2
BITMAP
FF00
FF00
FF00
FF00
C300
8100
8100
8100
8100
C300
FF00
FF00
FF00
FF00
ENDCHAR
STARTCHAR invcircle
ENCODING 9689
SWIDTH 562 0
DWIDTH 9 0
BBX 9 14 0 -2
BITMAP
FF00
FF00
FF00
FF00
C300
BD00
BD00
BD00
BD00
C300
FF00
FF00
FF00
FF00
ENDCHAR
STARTCHAR smileface
ENCODING 9786
SWIDTH 562 0
DWIDTH 9 0
BBX 9 14 0 -2
BITMAP
0000
0000
0000
3C00
4200
8100
A500
8100
A500
9900
4200
3C00
0000
0000
ENDCHAR
STARTCHAR invsmileface
ENCODING 9787
SWIDTH 562 0
DWIDTH 9 0
BBX 9 14 0 -2
BITMAP
0000
0000
0000
3C00
7E00
FF00
DB00
FF00
DB00
E700
7E00
3C00
0000
0000
ENDCHAR
STARTCHAR sun
ENCODING 9788
SWIDTH 562 0
DWIDTH 9 0
BBX 9 14 0 -2
BITMAP
0000
0000
0000
1000
9200
7C00
4400
C600
4400
7C00
9200
1000
0000
0000
ENDCHAR
STARTCHAR female
ENCODING 9792
SWIDTH 562 0
DWIDTH 9 0
BBX 9 14 0 -2
BITMAP
0000
0000
0000
3800
4400
4400
4400
4400
3800
1000
7C00
1000
0000
0000
ENDCHAR
STARTCHAR male
ENCODING 9794
SWIDTH 562 0
DWIDTH 9 0
BBX 9 14 0 -2
BITMAP
0000
0000
0000
0F00
0300
0500
7900
8800
8800
8800
8800
7000
0000
0000
ENDCHAR
STARTCHAR spade
ENCODING 9824
SWIDTH 562 0
DWIDTH 9 0
BBX 9 14 0 -2
BITMAP
0000
0000
0000
1000
3800
7C00
FE00
FE00
FE00
5400
1000
3800
0000
0000
ENDCHAR
STARTCHAR club
ENCODING 9827
SWIDTH 562 0
DWIDTH 9 0
BBX 9 14 0 -2
BITMAP
0000
0000
0000
1000
3800
3800
5400
FE00
FE00
5400
1000
3800
0000
0000
ENDCHAR
STARTCHAR heart
ENCODING 9829
SWIDTH 562 0
DWIDTH 9 0
BBX 9 14 0 -2
BITMAP
0000
0000
0000
6C00
FE00
FE00
FE00
7C00
7C00
3800
3800
1000
0000
0000
ENDCHAR
STARTCHAR diamond
ENCODING 9830
SWIDTH 562 0
DWIDTH 9 0
BBX 9 14 0 -2
BITMAP
0000
0000
0000
0000
1000
3800
7C00
FE00
7C00
3800
1000
0000
0000
0000
ENDCHAR
STARTCHAR musicalnote
ENCODING 9834
SWIDTH 562 0
DWIDTH 9 0
BBX 9 14 0 -2
BITMAP
1000
1800
1C00
1600
1200
1200
1400
1000
1000
7000
E000
E000
C000
0000
ENDCHAR
STARTCHAR musicalnotedbl
ENCODING 9835
SWIDTH 562 0
DWIDTH 9 0
BBX 9 14 0 -2
BITMAP
2000
3000
2800
3400
2A00
2600
2200
2200
6200
E200
C200
0600
0E00
0C00
ENDCHAR
STARTCHAR uni3044
ENCODING 12356
SWIDTH 562 0
DWIDTH 9 0
BBX 9 14 0 -2
BITMAP
0000
0000
0000
0000
0000
0000
0000
0000
0000
0000
0000
0000
0000
0000
ENDCHAR
STARTCHAR uni3046
ENCODING 12358
SWIDTH 562 0
DWIDTH 9 0
BBX 9 14 0 -2
BITMAP
0000
0000
0000
0000
0000
0000
0000
0000
0000
0000
0000
0000
0000
0000
ENDCHAR
STARTCHAR uni304B
ENCODING 12363
SWIDTH 562 0
DWIDTH 9 0
BBX 9 14 0 -2
BITMAP
0000
0000
0000
0000
0000
0000
0000
0000
0000
0000
0000
0000
0000
0000
ENDCHAR
STARTCHAR uni3057
ENCODING 12375
SWIDTH 562 0
DWIDTH 9 0
BBX 9 14 0 -2
BITMAP
0000
0000
0000
0000
0000
0000
0000
0000
0000
0000
0000
0000
0000
0000
ENDCHAR
STARTCHAR uni306E
ENCODING 12398
SWIDTH 562 0
DWIDTH 9 0
BBX 9 14 0 -2
BITMAP
0000
0000
0000
0000
0000
0000
0000
0000
0000
0000
0000
0000
0000
0000
ENDCHAR
STARTCHAR uni3093
ENCODING 12435
SWIDTH 562 0
DWIDTH 9 0
BBX 9 14 0 -2
BITMAP
0000
0000
0000
0000
0000
0000
0000
0000
0000
0000
0000
0000
0000
0000
ENDCHAR
STARTCHAR .notdef
ENCODING -1
SWIDTH 562 0
DWIDTH 9 0
BBX 8 12 1 0
BITMAP
FF
81
81
81
81
81
81
81
81
81
81
FF
ENDCHAR
ENDFONT
