STARTFONT 2.1
FONT SPLCF-16px
SIZE 16 75 75
FONTBOUNDINGBOX 10 12 0 -1
STARTPROPERTIES 5
PIXEL_SIZE 16
FONT_ASCENT 11
FONT_DESCENT 1
CHARSET_REGISTRY "ISO10646"
CHARSET_ENCODING "1"
ENDPROPERTIES
CHARS 190
STARTCHAR space
ENCODING 32
SWIDTH 312 0
DWIDTH 5 0
BBX 1 1 0 0
BITMAP
00
ENDCHAR
STARTCHAR exclam
ENCODING 33
SWIDTH 188 0
DWIDTH 3 0
BBX 1 7 1 0
BITMAP
80
80
80
80
80
00
80
ENDCHAR
STARTCHAR quotedbl
ENCODING 34
SWIDTH 312 0
DWIDTH 5 0
BBX 3 2 1 6
BITMAP
A0
A0
ENDCHAR
STARTCHAR numbersign
ENCODING 35
SWIDTH 438 0
DWIDTH 7 0
BBX 5 5 1 1
BITMAP
50
F8
50
F8
50
ENDCHAR
STARTCHAR dollar
ENCODING 36
SWIDTH 375 0
DWIDTH 6 0
BBX 5 10 0 -1
BITMAP
20
70
A8
A0
60
30
28
A8
70
20
ENDCHAR
STARTCHAR percent
ENCODING 37
SWIDTH 500 0
DWIDTH 8 0
BBX 6 6 1 0
BITMAP
E4
A8
D0
2C
54
9C
ENDCHAR
STARTCHAR ampersand
ENCODING 38
SWIDTH 375 0
DWIDTH 6 0
BBX 5 6 0 0
BITMAP
70
90
60
68
90
E8
ENDCHAR
STARTCHAR quotesingle
ENCODING 39
SWIDTH 188 0
DWIDTH 3 0
BBX 1 2 1 4
BITMAP
80
80
ENDCHAR
STARTCHAR parenleft
ENCODING 40
SWIDTH 250 0
DWIDTH 4 0
BBX 2 6 1 0
BITMAP
40
80
80
80
80
40
ENDCHAR
STARTCHAR parenright
ENCODING 41
SWIDTH 250 0
DWIDTH 4 0
BBX 2 6 1 0
BITMAP
80
40
40
40
40
80
ENDCHAR
STARTCHAR asterisk
ENCODING 42
SWIDTH 312 0
DWIDTH 5 0
BBX 3 3 1 3
BITMAP
A0
40
A0
ENDCHAR
STARTCHAR plus
ENCODING 43
SWIDTH 438 0
DWIDTH 7 0
BBX 5 5 1 1
BITMAP
20
20
F8
20
20
ENDCHAR
STARTCHAR comma
ENCODING 44
SWIDTH 188 0
DWIDTH 3 0
BBX 1 2 1 -1
BITMAP
80
80
ENDCHAR
STARTCHAR hyphen
ENCODING 45
SWIDTH 312 0
DWIDTH 5 0
BBX 3 1 1 3
BITMAP
E0
ENDCHAR
STARTCHAR period
ENCODING 46
SWIDTH 125 0
DWIDTH 2 0
BBX 1 1 0 0
BITMAP
80
ENDCHAR
STARTCHAR slash
ENCODING 47
SWIDTH 312 0
DWIDTH 5 0
BBX 4 6 0 0
BITMAP
10
20
20
40
40
80
ENDCHAR
STARTCHAR zero
ENCODING 48
SWIDTH 375 0
DWIDTH 6 0
BBX 4 7 1 0
BITMAP
F0
90
90
90
90
90
F0
ENDCHAR
STARTCHAR one
ENCODING 49
SWIDTH 312 0
DWIDTH 5 0
BBX 3 7 1 0
BITMAP
40
C0
40
40
40
40
E0
ENDCHAR
STARTCHAR two
ENCODING 50
SWIDTH 312 0
DWIDTH 5 0
BBX 3 7 1 0
BITMAP
E0
A0
20
20
60
80
E0
ENDCHAR
STARTCHAR three
ENCODING 51
SWIDTH 312 0
DWIDTH 5 0
BBX 3 7 1 0
BITMAP
E0
20
20
E0
20
20
E0
ENDCHAR
STARTCHAR four
ENCODING 52
SWIDTH 312 0
DWIDTH 5 0
BBX 3 7 1 0
BITMAP
A0
A0
A0
A0
E0
20
20
ENDCHAR
STARTCHAR five
ENCODING 53
SWIDTH 312 0
DWIDTH 5 0
BBX 3 7 1 0
BITMAP
E0
80
80
E0
20
20
E0
ENDCHAR
STARTCHAR six
ENCODING 54
SWIDTH 312 0
DWIDTH 5 0
BBX 3 7 1 0
BITMAP
E0
A0
80
80
E0
A0
E0
ENDCHAR
STARTCHAR seven
ENCODING 55
SWIDTH 312 0
DWIDTH 5 0
BBX 3 7 1 0
BITMAP
E0
20
20
60
20
20
20
ENDCHAR
STARTCHAR eight
ENCODING 56
SWIDTH 312 0
DWIDTH 5 0
BBX 3 7 1 0
BITMAP
E0
A0
A0
40
A0
A0
E0
ENDCHAR
STARTCHAR nine
ENCODING 57
SWIDTH 312 0
DWIDTH 5 0
BBX 3 7 1 0
BITMAP
E0
A0
E0
20
20
20
E0
ENDCHAR
STARTCHAR colon
ENCODING 58
SWIDTH 188 0
DWIDTH 3 0
BBX 1 4 1 1
BITMAP
80
00
00
80
ENDCHAR
STARTCHAR semicolon
ENCODING 59
SWIDTH 188 0
DWIDTH 3 0
BBX 1 5 1 0
BITMAP
80
00
00
80
80
ENDCHAR
STARTCHAR less
ENCODING 60
SWIDTH 250 0
DWIDTH 4 0
BBX 3 5 0 0
BITMAP
20
40
80
40
20
ENDCHAR
STARTCHAR equal
ENCODING 61
SWIDTH 312 0
DWIDTH 5 0
BBX 3 3 1 2
BITMAP
E0
00
E0
ENDCHAR
STARTCHAR greater
ENCODING 62
SWIDTH 250 0
DWIDTH 4 0
BBX 3 5 0 0
BITMAP
80
40
20
40
80
ENDCHAR
STARTCHAR question
ENCODING 63
SWIDTH 250 0
DWIDTH 4 0
BBX 3 6 0 0
BITMAP
E0
A0
20
40
00
40
ENDCHAR
STARTCHAR at
ENCODING 64
SWIDTH 500 0
DWIDTH 8 0
BBX 7 7 0 0
BITMAP
7C
82
BA
AA
BE
80
7E
ENDCHAR
STARTCHAR A
ENCODING 65
SWIDTH 375 0
DWIDTH 6 0
BBX 5 7 0 0
BITMAP
20
50
50
50
70
88
88
ENDCHAR
STARTCHAR B
ENCODING 66
SWIDTH 375 0
DWIDTH 6 0
BBX 4 7 1 0
BITMAP
F0
90
90
E0
90
90
F0
ENDCHAR
STARTCHAR C
ENCODING 67
SWIDTH 375 0
DWIDTH 6 0
BBX 4 7 1 0
BITMAP
F0
80
80
80
80
80
F0
ENDCHAR
STARTCHAR D
ENCODING 68
SWIDTH 375 0
DWIDTH 6 0
BBX 4 7 1 0
BITMAP
E0
90
90
90
90
90
E0
ENDCHAR
STARTCHAR E
ENCODING 69
SWIDTH 375 0
DWIDTH 6 0
BBX 4 7 1 0
BITMAP
F0
80
80
F0
80
80
F0
ENDCHAR
STARTCHAR F
ENCODING 70
SWIDTH 375 0
DWIDTH 6 0
BBX 4 7 1 0
BITMAP
F0
80
80
F0
80
80
80
ENDCHAR
STARTCHAR G
ENCODING 71
SWIDTH 438 0
DWIDTH 7 0
BBX 5 7 1 0
BITMAP
F0
90
80
80
B8
90
F0
ENDCHAR
STARTCHAR H
ENCODING 72
SWIDTH 375 0
DWIDTH 6 0
BBX 4 7 1 0
BITMAP
90
90
90
F0
90
90
90
ENDCHAR
STARTCHAR I
ENCODING 73
SWIDTH 188 0
DWIDTH 3 0
BBX 1 7 1 0
BITMAP
80
80
80
80
80
80
80
ENDCHAR
STARTCHAR J
ENCODING 74
SWIDTH 312 0
DWIDTH 5 0
BBX 4 7 0 0
BITMAP
30
10
10
10
90
90
60
ENDCHAR
STARTCHAR K
ENCODING 75
SWIDTH 375 0
DWIDTH 6 0
BBX 4 7 1 0
BITMAP
90
90
A0
C0
A0
90
90
ENDCHAR
STARTCHAR L
ENCODING 76
SWIDTH 375 0
DWIDTH 6 0
BBX 4 7 1 0
BITMAP
80
80
80
80
80
80
F0
ENDCHAR
STARTCHAR M
ENCODING 77
SWIDTH 438 0
DWIDTH 7 0
BBX 5 7 1 0
BITMAP
88
D8
A8
88
88
88
88
ENDCHAR
STARTCHAR N
ENCODING 78
SWIDTH 375 0
DWIDTH 6 0
BBX 4 7 1 0
BITMAP
90
D0
B0
90
90
90
90
ENDCHAR
STARTCHAR O
ENCODING 79
SWIDTH 375 0
DWIDTH 6 0
BBX 4 7 1 0
BITMAP
60
90
90
90
90
90
60
ENDCHAR
STARTCHAR P
ENCODING 80
SWIDTH 375 0
DWIDTH 6 0
BBX 4 7 1 0
BITMAP
F0
90
90
F0
80
80
80
ENDCHAR
STARTCHAR Q
ENCODING 81
SWIDTH 438 0
DWIDTH 7 0
BBX 5 8 1 -1
BITMAP
F0
90
90
90
90
F0
10
08
ENDCHAR
STARTCHAR R
ENCODING 82
SWIDTH 375 0
DWIDTH 6 0
BBX 4 7 1 0
BITMAP
F0
90
90
E0
90
90
90
ENDCHAR
STARTCHAR S
ENCODING 83
SWIDTH 375 0
DWIDTH 6 0
BBX 4 7 1 0
BITMAP
F0
90
80
F0
10
90
F0
ENDCHAR
STARTCHAR T
ENCODING 84
SWIDTH 375 0
DWIDTH 6 0
BBX 5 7 0 0
BITMAP
F8
20
20
20
20
20
20
ENDCHAR
STARTCHAR U
ENCODING 85
SWIDTH 375 0
DWIDTH 6 0
BBX 4 7 1 0
BITMAP
90
90
90
90
90
90
F0
ENDCHAR
STARTCHAR V
ENCODING 86
SWIDTH 438 0
DWIDTH 7 0
BBX 5 7 1 0
BITMAP
88
88
88
88
50
50
20
ENDCHAR
STARTCHAR W
ENCODING 87
SWIDTH 688 0
DWIDTH 11 0
BBX 9 7 1 0
BITMAP
8880
8880
5500
5500
5500
5500
2200
ENDCHAR
STARTCHAR X
ENCODING 88
SWIDTH 438 0
DWIDTH 7 0
BBX 5 7 1 0
BITMAP
88
50
20
20
20
50
88
ENDCHAR
STARTCHAR Y
ENCODING 89
SWIDTH 375 0
DWIDTH 6 0
BBX 5 7 0 0
BITMAP
88
50
50
20
20
20
20
ENDCHAR
STARTCHAR Z
ENCODING 90
SWIDTH 375 0
DWIDTH 6 0
BBX 4 7 1 0
BITMAP
F0
10
20
40
40
80
F0
ENDCHAR
STARTCHAR bracketleft
ENCODING 91
SWIDTH 250 0
DWIDTH 4 0
BBX 2 6 1 0
BITMAP
C0
80
80
80
80
C0
ENDCHAR
STARTCHAR backslash
ENCODING 92
SWIDTH 375 0
DWIDTH 6 0
BBX 4 6 1 0
BITMAP
80
40
40
20
20
10
ENDCHAR
STARTCHAR bracketright
ENCODING 93
SWIDTH 250 0
DWIDTH 4 0
BBX 2 6 1 0
BITMAP
C0
40
40
40
40
C0
ENDCHAR
STARTCHAR asciicircum
ENCODING 94
SWIDTH 312 0
DWIDTH 5 0
BBX 3 2 1 4
BITMAP
40
A0
ENDCHAR
STARTCHAR underscore
ENCODING 95
SWIDTH 375 0
DWIDTH 6 0
BBX 4 1 1 -1
BITMAP
F0
ENDCHAR
STARTCHAR grave
ENCODING 96
SWIDTH 188 0
DWIDTH 3 0
BBX 2 3 0 4
BITMAP
80
40
40
ENDCHAR
STARTCHAR a
ENCODING 97
SWIDTH 312 0
DWIDTH 5 0
BBX 3 6 1 0
BITMAP
E0
A0
20
E0
A0
E0
ENDCHAR
STARTCHAR b
ENCODING 98
SWIDTH 312 0
DWIDTH 5 0
BBX 3 6 1 0
BITMAP
80
80
80
E0
A0
E0
ENDCHAR
STARTCHAR c
ENCODING 99
SWIDTH 312 0
DWIDTH 5 0
BBX 3 6 1 0
BITMAP
E0
80
80
80
80
E0
ENDCHAR
STARTCHAR d
ENCODING 100
SWIDTH 312 0
DWIDTH 5 0
BBX 3 6 1 0
BITMAP
20
20
20
E0
A0
E0
ENDCHAR
STARTCHAR e
ENCODING 101
SWIDTH 312 0
DWIDTH 5 0
BBX 3 6 1 0
BITMAP
E0
A0
E0
80
80
E0
ENDCHAR
STARTCHAR f
ENCODING 102
SWIDTH 250 0
DWIDTH 4 0
BBX 3 6 0 0
BITMAP
60
40
E0
40
40
40
ENDCHAR
STARTCHAR g
ENCODING 103
SWIDTH 312 0
DWIDTH 5 0
BBX 3 6 1 0
BITMAP
E0
A0
E0
20
A0
E0
ENDCHAR
STARTCHAR h
ENCODING 104
SWIDTH 312 0
DWIDTH 5 0
BBX 3 6 1 0
BITMAP
80
80
80
E0
A0
A0
ENDCHAR
STARTCHAR i
ENCODING 105
SWIDTH 188 0
DWIDTH 3 0
BBX 1 6 1 0
BITMAP
80
00
80
80
80
80
ENDCHAR
STARTCHAR j
ENCODING 106
SWIDTH 312 0
DWIDTH 5 0
BBX 3 6 1 0
BITMAP
20
20
20
20
A0
E0
ENDCHAR
STARTCHAR k
ENCODING 107
SWIDTH 312 0
DWIDTH 5 0
BBX 3 6 1 0
BITMAP
A0
A0
C0
A0
A0
A0
ENDCHAR
STARTCHAR l
ENCODING 108
SWIDTH 188 0
DWIDTH 3 0
BBX 1 6 1 0
BITMAP
80
80
80
80
80
80
ENDCHAR
STARTCHAR m
ENCODING 109
SWIDTH 438 0
DWIDTH 7 0
BBX 5 6 1 0
BITMAP
88
D8
A8
88
88
88
ENDCHAR
STARTCHAR n
ENCODING 110
SWIDTH 375 0
DWIDTH 6 0
BBX 4 6 1 0
BITMAP
90
D0
B0
90
90
90
ENDCHAR
STARTCHAR o
ENCODING 111
SWIDTH 312 0
DWIDTH 5 0
BBX 3 6 1 0
BITMAP
E0
A0
A0
A0
A0
E0
ENDCHAR
STARTCHAR p
ENCODING 112
SWIDTH 312 0
DWIDTH 5 0
BBX 3 6 1 0
BITMAP
E0
A0
E0
80
80
80
ENDCHAR
STARTCHAR q
ENCODING 113
SWIDTH 312 0
DWIDTH 5 0
BBX 3 6 1 0
BITMAP
E0
A0
E0
20
20
20
ENDCHAR
STARTCHAR r
ENCODING 114
SWIDTH 375 0
DWIDTH 6 0
BBX 4 6 1 0
BITMAP
A0
D0
80
80
80
80
ENDCHAR
STARTCHAR s
ENCODING 115
SWIDTH 312 0
DWIDTH 5 0
BBX 3 6 1 0
BITMAP
E0
80
80
E0
20
E0
ENDCHAR
STARTCHAR t
ENCODING 116
SWIDTH 250 0
DWIDTH 4 0
BBX 3 6 0 0
BITMAP
40
40
E0
40
40
60
ENDCHAR
STARTCHAR u
ENCODING 117
SWIDTH 375 0
DWIDTH 6 0
BBX 4 6 1 0
BITMAP
90
90
90
90
90
70
ENDCHAR
STARTCHAR v
ENCODING 118
SWIDTH 312 0
DWIDTH 5 0
BBX 3 6 1 0
BITMAP
A0
A0
A0
A0
A0
40
ENDCHAR
STARTCHAR w
ENCODING 119
SWIDTH 500 0
DWIDTH 8 0
BBX 7 6 0 0
BITMAP
92
92
92
AA
6C
44
ENDCHAR
STARTCHAR x
ENCODING 120
SWIDTH 312 0
DWIDTH 5 0
BBX 3 6 1 0
BITMAP
A0
A0
40
40
A0
A0
ENDCHAR
STARTCHAR y
ENCODING 121
SWIDTH 312 0
DWIDTH 5 0
BBX 3 6 1 0
BITMAP
A0
A0
E0
20
20
E0
ENDCHAR
STARTCHAR z
ENCODING 122
SWIDTH 312 0
DWIDTH 5 0
BBX 3 6 1 0
BITMAP
E0
20
40
40
80
E0
ENDCHAR
STARTCHAR braceleft
ENCODING 123
SWIDTH 375 0
DWIDTH 6 0
BBX 4 7 1 0
BITMAP
30
40
40
80
40
40
30
ENDCHAR
STARTCHAR bar
ENCODING 124
SWIDTH 188 0
DWIDTH 3 0
BBX 1 7 1 0
BITMAP
80
80
80
80
80
80
80
ENDCHAR
STARTCHAR braceright
ENCODING 125
SWIDTH 375 0
DWIDTH 6 0
BBX 4 7 1 0
BITMAP
C0
20
20
10
20
20
C0
ENDCHAR
STARTCHAR asciitilde
ENCODING 126
SWIDTH 438 0
DWIDTH 7 0
BBX 5 3 1 2
BITMAP
40
A8
10
ENDCHAR
STARTCHAR uni00A0
ENCODING 160
SWIDTH 312 0
DWIDTH 5 0
BBX 1 1 0 0
BITMAP
00
ENDCHAR
STARTCHAR exclamdown
ENCODING 161
SWIDTH 250 0
DWIDTH 4 0
BBX 1 7 2 -1
BITMAP
80
00
80
80
80
80
80
ENDCHAR
STARTCHAR cent
ENCODING 162
SWIDTH 438 0
DWIDTH 7 0
BBX 5 7 1 0
BITMAP
20
F8
A8
A0
A8
F8
20
ENDCHAR
STARTCHAR sterling
ENCODING 163
SWIDTH 375 0
DWIDTH 6 0
BBX 4 7 1 0
BITMAP
70
50
40
E0
40
90
E0
ENDCHAR
STARTCHAR currency
ENCODING 164
SWIDTH 500 0
DWIDTH 8 0
BBX 6 6 1 1
BITMAP
84
78
48
48
78
84
ENDCHAR
STARTCHAR yen
ENCODING 165
SWIDTH 312 0
DWIDTH 5 0
BBX 3 8 1 -1
BITMAP
A0
A0
40
E0
40
E0
40
40
ENDCHAR
STARTCHAR brokenbar
ENCODING 166
SWIDTH 188 0
DWIDTH 3 0
BBX 1 7 1 0
BITMAP
80
80
80
00
80
80
80
ENDCHAR
STARTCHAR section
ENCODING 167
SWIDTH 312 0
DWIDTH 5 0
BBX 3 7 1 0
BITMAP
E0
80
E0
A0
E0
20
E0
ENDCHAR
STARTCHAR dieresis
ENCODING 168
SWIDTH 312 0
DWIDTH 5 0
BBX 3 1 1 6
BITMAP
A0
ENDCHAR
STARTCHAR copyright
ENCODING 169
SWIDTH 438 0
DWIDTH 7 0
BBX 6 7 0 0
BITMAP
78
84
B4
A4
B4
84
78
ENDCHAR
STARTCHAR guillemotleft
ENCODING 171
SWIDTH 438 0
DWIDTH 7 0
BBX 6 5 0 1
BITMAP
24
48
90
48
24
ENDCHAR
STARTCHAR registered
ENCODING 174
SWIDTH 500 0
DWIDTH 8 0
BBX 7 10 0 0
BITMAP
7C
82
BA
AA
BA
B2
AA
AA
82
7C
ENDCHAR
STARTCHAR plusminus
ENCODING 177
SWIDTH 438 0
DWIDTH 7 0
BBX 5 7 1 0
BITMAP
20
20
F8
20
20
00
F8
ENDCHAR
STARTCHAR acute
ENCODING 180
SWIDTH 250 0
DWIDTH 4 0
BBX 2 3 1 6
BITMAP
40
80
80
ENDCHAR
STARTCHAR uni00B5
ENCODING 181
SWIDTH 375 0
DWIDTH 6 0
BBX 4 6 1 0
BITMAP
A0
A0
A0
E0
90
80
ENDCHAR
STARTCHAR paragraph
ENCODING 182
SWIDTH 438 0
DWIDTH 7 0
BBX 6 6 0 0
BITMAP
FC
A8
E8
28
28
28
ENDCHAR
STARTCHAR periodcentered
ENCODING 183
SWIDTH 250 0
DWIDTH 4 0
BBX 2 2 1 3
BITMAP
C0
C0
ENDCHAR
STARTCHAR guillemotright
ENCODING 187
SWIDTH 438 0
DWIDTH 7 0
BBX 6 5 0 1
BITMAP
90
48
24
48
90
ENDCHAR
STARTCHAR questiondown
ENCODING 191
SWIDTH 312 0
DWIDTH 5 0
BBX 3 7 1 0
BITMAP
40
00
40
C0
80
A0
E0
ENDCHAR
STARTCHAR multiply
ENCODING 215
SWIDTH 500 0
DWIDTH 8 0
BBX 5 5 2 1
BITMAP
88
50
20
50
88
ENDCHAR
STARTCHAR Oslash
ENCODING 216
SWIDTH 500 0
DWIDTH 8 0
BBX 7 7 0 1
BITMAP
02
7C
4C
54
64
7C
80
ENDCHAR
STARTCHAR divide
ENCODING 247
SWIDTH 438 0
DWIDTH 7 0
BBX 5 5 1 2
BITMAP
20
00
F8
00
20
ENDCHAR
STARTCHAR afii10023
ENCODING 1025
SWIDTH 375 0
DWIDTH 6 0
BBX 4 9 1 0
BITMAP
90
00
F0
80
80
F0
80
80
F0
ENDCHAR
STARTCHAR afii10017
ENCODING 1040
SWIDTH 375 0
DWIDTH 6 0
BBX 5 7 0 0
BITMAP
20
50
50
50
70
88
88
ENDCHAR
STARTCHAR afii10018
ENCODING 1041
SWIDTH 375 0
DWIDTH 6 0
BBX 4 7 1 0
BITMAP
F0
80
80
F0
90
90
F0
ENDCHAR
STARTCHAR afii10019
ENCODING 1042
SWIDTH 375 0
DWIDTH 6 0
BBX 4 7 1 0
BITMAP
F0
90
90
E0
90
90
F0
ENDCHAR
STARTCHAR afii10020
ENCODING 1043
SWIDTH 375 0
DWIDTH 6 0
BBX 4 7 1 0
BITMAP
F0
80
80
80
80
80
80
ENDCHAR
STARTCHAR afii10021
ENCODING 1044
SWIDTH 438 0
DWIDTH 7 0
BBX 5 7 1 0
BITMAP
70
50
50
50
50
F8
88
ENDCHAR
STARTCHAR afii10022
ENCODING 1045
SWIDTH 375 0
DWIDTH 6 0
BBX 4 7 1 0
BITMAP
F0
80
80
F0
80
80
F0
ENDCHAR
STARTCHAR afii10024
ENCODING 1046
SWIDTH 562 0
DWIDTH 9 0
BBX 7 7 1 0
BITMAP
92
54
38
10
38
54
92
ENDCHAR
STARTCHAR afii10025
ENCODING 1047
SWIDTH 375 0
DWIDTH 6 0
BBX 4 7 1 0
BITMAP
E0
10
10
E0
10
10
E0
ENDCHAR
STARTCHAR afii10026
ENCODING 1048
SWIDTH 375 0
DWIDTH 6 0
BBX 4 7 1 0
BITMAP
90
90
90
90
B0
D0
90
ENDCHAR
STARTCHAR afii10027
ENCODING 1049
SWIDTH 375 0
DWIDTH 6 0
BBX 4 9 1 0
BITMAP
60
00
90
90
90
90
B0
D0
90
ENDCHAR
STARTCHAR afii10028
ENCODING 1050
SWIDTH 312 0
DWIDTH 5 0
BBX 3 7 1 0
BITMAP
A0
A0
A0
C0
A0
A0
A0
ENDCHAR
STARTCHAR afii10029
ENCODING 1051
SWIDTH 375 0
DWIDTH 6 0
BBX 4 7 1 0
BITMAP
70
50
50
50
50
50
D0
ENDCHAR
STARTCHAR afii10030
ENCODING 1052
SWIDTH 438 0
DWIDTH 7 0
BBX 5 7 1 0
BITMAP
88
D8
A8
88
88
88
88
ENDCHAR
STARTCHAR afii10031
ENCODING 1053
SWIDTH 375 0
DWIDTH 6 0
BBX 4 7 1 0
BITMAP
90
90
90
F0
90
90
90
ENDCHAR
STARTCHAR afii10032
ENCODING 1054
SWIDTH 375 0
DWIDTH 6 0
BBX 4 7 1 0
BITMAP
60
90
90
90
90
90
60
ENDCHAR
STARTCHAR afii10033
ENCODING 1055
SWIDTH 375 0
DWIDTH 6 0
BBX 4 7 1 0
BITMAP
F0
90
90
90
90
90
90
ENDCHAR
STARTCHAR afii10034
ENCODING 1056
SWIDTH 375 0
DWIDTH 6 0
BBX 4 7 1 0
BITMAP
F0
90
90
F0
80
80
80
ENDCHAR
STARTCHAR afii10035
ENCODING 1057
SWIDTH 375 0
DWIDTH 6 0
BBX 4 7 1 0
BITMAP
F0
80
80
80
80
80
F0
ENDCHAR
STARTCHAR afii10036
ENCODING 1058
SWIDTH 375 0
DWIDTH 6 0
BBX 5 7 0 0
BITMAP
F8
20
20
20
20
20
20
ENDCHAR
STARTCHAR afii10037
ENCODING 1059
SWIDTH 375 0
DWIDTH 6 0
BBX 4 7 1 0
BITMAP
90
90
90
90
70
10
F0
ENDCHAR
STARTCHAR afii10038
ENCODING 1060
SWIDTH 375 0
DWIDTH 6 0
BBX 5 7 0 0
BITMAP
F8
A8
A8
F8
20
20
20
ENDCHAR
STARTCHAR afii10039
ENCODING 1061
SWIDTH 438 0
DWIDTH 7 0
BBX 5 7 1 0
BITMAP
88
50
20
20
20
50
88
ENDCHAR
STARTCHAR afii10040
ENCODING 1062
SWIDTH 438 0
DWIDTH 7 0
BBX 5 8 1 -1
BITMAP
90
90
90
90
90
90
F8
08
ENDCHAR
STARTCHAR afii10041
ENCODING 1063
SWIDTH 375 0
DWIDTH 6 0
BBX 4 7 1 0
BITMAP
90
90
90
F0
10
10
10
ENDCHAR
STARTCHAR afii10042
ENCODING 1064
SWIDTH 438 0
DWIDTH 7 0
BBX 5 7 1 0
BITMAP
A8
A8
A8
A8
A8
A8
F8
ENDCHAR
STARTCHAR afii10043
ENCODING 1065
SWIDTH 500 0
DWIDTH 8 0
BBX 6 8 1 -1
BITMAP
A8
A8
A8
A8
A8
A8
FC
04
ENDCHAR
STARTCHAR afii10044
ENCODING 1066
SWIDTH 375 0
DWIDTH 6 0
BBX 5 7 0 0
BITMAP
C0
40
40
78
48
48
78
ENDCHAR
STARTCHAR afii10045
ENCODING 1067
SWIDTH 438 0
DWIDTH 7 0
BBX 5 7 1 0
BITMAP
88
88
88
E8
A8
A8
E8
ENDCHAR
STARTCHAR afii10046
ENCODING 1068
SWIDTH 375 0
DWIDTH 6 0
BBX 4 7 1 0
BITMAP
80
80
80
F0
90
90
F0
ENDCHAR
STARTCHAR afii10047
ENCODING 1069
SWIDTH 375 0
DWIDTH 6 0
BBX 4 7 1 0
BITMAP
F0
90
10
70
10
90
F0
ENDCHAR
STARTCHAR afii10048
ENCODING 1070
SWIDTH 438 0
DWIDTH 7 0
BBX 5 7 1 0
BITMAP
B8
A8
A8
E8
A8
A8
B8
ENDCHAR
STARTCHAR afii10049
ENCODING 1071
SWIDTH 375 0
DWIDTH 6 0
BBX 4 7 1 0
BITMAP
F0
90
90
F0
30
50
90
ENDCHAR
STARTCHAR afii10065
ENCODING 1072
SWIDTH 312 0
DWIDTH 5 0
BBX 3 6 1 0
BITMAP
E0
A0
20
E0
A0
E0
ENDCHAR
STARTCHAR afii10066
ENCODING 1073
SWIDTH 312 0
DWIDTH 5 0
BBX 3 6 1 0
BITMAP
E0
80
80
E0
A0
E0
ENDCHAR
STARTCHAR afii10067
ENCODING 1074
SWIDTH 312 0
DWIDTH 5 0
BBX 3 6 1 0
BITMAP
E0
A0
C0
A0
A0
E0
ENDCHAR
STARTCHAR afii10068
ENCODING 1075
SWIDTH 312 0
DWIDTH 5 0
BBX 3 6 1 0
BITMAP
E0
80
80
80
80
80
ENDCHAR
STARTCHAR afii10069
ENCODING 1076
SWIDTH 500 0
DWIDTH 8 0
BBX 6 6 1 0
BITMAP
78
48
48
48
78
84
ENDCHAR
STARTCHAR afii10070
ENCODING 1077
SWIDTH 312 0
DWIDTH 5 0
BBX 3 6 1 0
BITMAP
E0
A0
A0
E0
80
E0
ENDCHAR
STARTCHAR afii10072
ENCODING 1078
SWIDTH 438 0
DWIDTH 7 0
BBX 5 6 1 0
BITMAP
A8
70
20
20
70
A8
ENDCHAR
STARTCHAR afii10073
ENCODING 1079
SWIDTH 312 0
DWIDTH 5 0
BBX 3 6 1 0
BITMAP
E0
20
C0
20
20
E0
ENDCHAR
STARTCHAR afii10074
ENCODING 1080
SWIDTH 375 0
DWIDTH 6 0
BBX 4 6 1 0
BITMAP
90
90
90
B0
D0
90
ENDCHAR
STARTCHAR afii10075
ENCODING 1081
SWIDTH 375 0
DWIDTH 6 0
BBX 4 8 1 0
BITMAP
60
00
90
90
90
B0
D0
90
ENDCHAR
STARTCHAR afii10076
ENCODING 1082
SWIDTH 312 0
DWIDTH 5 0
BBX 3 6 1 0
BITMAP
A0
A0
C0
A0
A0
A0
ENDCHAR
STARTCHAR afii10077
ENCODING 1083
SWIDTH 312 0
DWIDTH 5 0
BBX 3 6 1 0
BITMAP
60
A0
A0
A0
A0
A0
ENDCHAR
STARTCHAR afii10078
ENCODING 1084
SWIDTH 438 0
DWIDTH 7 0
BBX 5 6 1 0
BITMAP
88
D8
A8
88
88
88
ENDCHAR
STARTCHAR afii10079
ENCODING 1085
SWIDTH 312 0
DWIDTH 5 0
BBX 3 6 1 0
BITMAP
A0
A0
E0
A0
A0
A0
ENDCHAR
STARTCHAR afii10080
ENCODING 1086
SWIDTH 312 0
DWIDTH 5 0
BBX 3 6 1 0
BITMAP
E0
A0
A0
A0
A0
E0
ENDCHAR
STARTCHAR afii10081
ENCODING 1087
SWIDTH 312 0
DWIDTH 5 0
BBX 3 6 1 0
BITMAP
E0
A0
A0
A0
A0
A0
ENDCHAR
STARTCHAR afii10082
ENCODING 1088
SWIDTH 312 0
DWIDTH 5 0
BBX 3 6 1 0
BITMAP
E0
A0
E0
80
80
80
ENDCHAR
STARTCHAR afii10083
ENCODING 1089
SWIDTH 312 0
DWIDTH 5 0
BBX 3 6 1 0
BITMAP
E0
80
80
80
80
E0
ENDCHAR
STARTCHAR afii10084
ENCODING 1090
SWIDTH 312 0
DWIDTH 5 0
BBX 3 6 1 0
BITMAP
E0
40
40
40
40
40
ENDCHAR
STARTCHAR afii10085
ENCODING 1091
SWIDTH 312 0
DWIDTH 5 0
BBX 3 6 1 0
BITMAP
A0
A0
E0
20
20
E0
ENDCHAR
STARTCHAR afii10086
ENCODING 1092
SWIDTH 438 0
DWIDTH 7 0
BBX 5 6 1 0
BITMAP
F8
A8
F8
20
20
20
ENDCHAR
STARTCHAR afii10087
ENCODING 1093
SWIDTH 312 0
DWIDTH 5 0
BBX 3 6 1 0
BITMAP
A0
A0
40
40
A0
A0
ENDCHAR
STARTCHAR afii10088
ENCODING 1094
SWIDTH 375 0
DWIDTH 6 0
BBX 4 7 1 -1
BITMAP
A0
A0
A0
A0
A0
F0
10
ENDCHAR
STARTCHAR afii10089
ENCODING 1095
SWIDTH 312 0
DWIDTH 5 0
BBX 3 6 1 0
BITMAP
A0
A0
A0
E0
20
20
ENDCHAR
STARTCHAR afii10090
ENCODING 1096
SWIDTH 438 0
DWIDTH 7 0
BBX 5 6 1 0
BITMAP
A8
A8
A8
A8
A8
F8
ENDCHAR
STARTCHAR afii10091
ENCODING 1097
SWIDTH 500 0
DWIDTH 8 0
BBX 6 7 1 -1
BITMAP
A8
A8
A8
A8
A8
FC
04
ENDCHAR
STARTCHAR afii10092
ENCODING 1098
SWIDTH 312 0
DWIDTH 5 0
BBX 4 6 0 0
BITMAP
C0
40
40
70
50
70
ENDCHAR
STARTCHAR afii10093
ENCODING 1099
SWIDTH 438 0
DWIDTH 7 0
BBX 5 6 1 0
BITMAP
88
88
88
E8
A8
E8
ENDCHAR
STARTCHAR afii10094
ENCODING 1100
SWIDTH 312 0
DWIDTH 5 0
BBX 3 6 1 0
BITMAP
80
80
80
E0
A0
E0
ENDCHAR
STARTCHAR afii10095
ENCODING 1101
SWIDTH 312 0
DWIDTH 5 0
BBX 3 6 1 0
BITMAP
E0
20
E0
20
20
E0
ENDCHAR
STARTCHAR afii10096
ENCODING 1102
SWIDTH 438 0
DWIDTH 7 0
BBX 5 6 1 0
BITMAP
B8
A8
E8
A8
A8
B8
ENDCHAR
STARTCHAR afii10097
ENCODING 1103
SWIDTH 312 0
DWIDTH 5 0
BBX 3 6 1 0
BITMAP
E0
A0
E0
60
A0
A0
ENDCHAR
STARTCHAR afii10071
ENCODING 1105
SWIDTH 312 0
DWIDTH 5 0
BBX 3 8 1 0
BITMAP
A0
00
E0
A0
A0
E0
80
E0
ENDCHAR
STARTCHAR Euro
ENCODING 8364
SWIDTH 375 0
DWIDTH 6 0
BBX 5 7 0 0
BITMAP
78
48
E0
40
E0
48
78
ENDCHAR
STARTCHAR uni20BD
ENCODING 8381
SWIDTH 312 0
DWIDTH 5 0
BBX 4 7 0 0
BITMAP
70
50
50
70
40
E0
40
ENDCHAR
STARTCHAR heart
ENCODING 9829
SWIDTH 562 0
DWIDTH 9 0
BBX 7 6 1 1
BITMAP
6C
FE
FE
7C
38
10
ENDCHAR
STARTCHAR uni3000
ENCODING 12288
SWIDTH 1000 0
DWIDTH 16 0
BBX 1 1 0 0
BITMAP
00
ENDCHAR
STARTCHAR .notdef
ENCODING -1
SWIDTH 375 0
DWIDTH 6 0
BBX 4 11 1 0
BITMAP
F0
90
90
90
90
90
90
90
90
90
F0
ENDCHAR
STARTCHAR .null
ENCODING -1
SWIDTH 0 0
DWIDTH 0 0
BBX 1 1 0 0
BITMAP
00
ENDCHAR
STARTCHAR nonmarkingreturn
ENCODING -1
SWIDTH 312 0
DWIDTH 5 0
BBX 1 1 0 0
BITMAP
00
ENDCHAR
ENDFONT
