STARTFONT 2.1
FONT Canyon Racer Splash 8x9 mono-16px
SIZE 16 75 75
FONTBOUNDINGBOX 7 8 0 0
STARTPROPERTIES 5
PIXEL_SIZE 16
FONT_ASCENT 16
FONT_DESCENT 0
CHARSET_REGISTRY "ISO10646"
CHARSET_ENCODING "1"
ENDPROPERTIES
CHARS 73
STARTCHAR space
ENCODING 32
SWIDTH 500 0
DWIDTH 8 0
BBX 1 1 0 0
BITMAP
00
ENDCHAR
STARTCHAR exclam
ENCODING 33
SWIDTH 500 0
DWIDTH 8 0
BBX 2 8 2 0
BITMAP
40
C0
C0
C0
C0
80
00
C0
ENDCHAR
STARTCHAR hyphen
ENCODING 45
SWIDTH 500 0
DWIDTH 8 0
BBX 5 2 1 3
BITMAP
78
F0
ENDCHAR
STARTCHAR period
ENCODING 46
SWIDTH 500 0
DWIDTH 8 0
BBX 2 2 2 0
BITMAP
C0
C0
ENDCHAR
STARTCHAR slash
ENCODING 47
SWIDTH 500 0
DWIDTH 8 0
BBX 7 7 0 0
BITMAP
02
06
0C
18
30
60
C0
ENDCHAR
STARTCHAR zero
ENCODING 48
SWIDTH 500 0
DWIDTH 8 0
BBX 7 8 0 0
BITMAP
7C
FE
06
46
C6
C6
FE
7C
ENDCHAR
STARTCHAR one
ENCODING 49
SWIDTH 500 0
DWIDTH 8 0
BBX 7 8 0 0
BITMAP
18
38
78
18
18
18
7E
FC
ENDCHAR
STARTCHAR two
ENCODING 50
SWIDTH 500 0
DWIDTH 8 0
BBX 7 8 0 0
BITMAP
7C
FE
C6
0C
18
30
7E
FC
ENDCHAR
STARTCHAR three
ENCODING 51
SWIDTH 500 0
DWIDTH 8 0
BBX 7 8 0 0
BITMAP
FE
7E
0C
38
1C
0E
7E
FC
ENDCHAR
STARTCHAR four
ENCODING 52
SWIDTH 500 0
DWIDTH 8 0
BBX 7 8 0 0
BITMAP
42
C6
C6
F6
F6
06
06
04
ENDCHAR
STARTCHAR five
ENCODING 53
SWIDTH 500 0
DWIDTH 8 0
BBX 7 8 0 0
BITMAP
FE
FC
C0
FE
7E
0E
7C
F8
ENDCHAR
STARTCHAR six
ENCODING 54
SWIDTH 500 0
DWIDTH 8 0
BBX 7 8 0 0
BITMAP
7E
FC
C0
FC
FE
C6
FC
78
ENDCHAR
STARTCHAR seven
ENCODING 55
SWIDTH 500 0
DWIDTH 8 0
BBX 7 8 0 0
BITMAP
7E
FE
00
0E
1C
38
70
E0
ENDCHAR
STARTCHAR eight
ENCODING 56
SWIDTH 500 0
DWIDTH 8 0
BBX 7 8 0 0
BITMAP
3E
7E
E6
FC
7E
C6
FC
F8
ENDCHAR
STARTCHAR nine
ENCODING 57
SWIDTH 500 0
DWIDTH 8 0
BBX 7 8 0 0
BITMAP
7E
FC
C0
FE
FC
0C
0C
0C
ENDCHAR
STARTCHAR colon
ENCODING 58
SWIDTH 500 0
DWIDTH 8 0
BBX 3 5 2 1
BITMAP
60
C0
00
60
C0
ENDCHAR
STARTCHAR question
ENCODING 63
SWIDTH 500 0
DWIDTH 8 0
BBX 7 8 0 0
BITMAP
7E
FE
C6
0C
18
18
00
18
ENDCHAR
STARTCHAR A
ENCODING 65
SWIDTH 500 0
DWIDTH 8 0
BBX 7 8 0 0
BITMAP
7E
FC
0C
CC
FC
CC
CC
88
ENDCHAR
STARTCHAR B
ENCODING 66
SWIDTH 500 0
DWIDTH 8 0
BBX 7 8 0 0
BITMAP
F8
7C
06
7E
7C
66
7E
7C
ENDCHAR
STARTCHAR C
ENCODING 67
SWIDTH 500 0
DWIDTH 8 0
BBX 7 8 0 0
BITMAP
7E
FC
C0
C0
C0
C0
FE
FC
ENDCHAR
STARTCHAR D
ENCODING 68
SWIDTH 500 0
DWIDTH 8 0
BBX 7 8 0 0
BITMAP
F8
7C
0E
66
66
66
7E
FC
ENDCHAR
STARTCHAR E
ENCODING 69
SWIDTH 500 0
DWIDTH 8 0
BBX 7 8 0 0
BITMAP
7E
FC
C0
F8
F0
C0
FE
FC
ENDCHAR
STARTCHAR F
ENCODING 70
SWIDTH 500 0
DWIDTH 8 0
BBX 7 8 0 0
BITMAP
7E
FC
C0
F8
F0
C0
C0
80
ENDCHAR
STARTCHAR G
ENCODING 71
SWIDTH 500 0
DWIDTH 8 0
BBX 7 8 0 0
BITMAP
7E
FC
C0
C0
CE
C6
F6
74
ENDCHAR
STARTCHAR H
ENCODING 72
SWIDTH 500 0
DWIDTH 8 0
BBX 7 8 0 0
BITMAP
42
C6
C6
FE
FE
C6
C6
84
ENDCHAR
STARTCHAR I
ENCODING 73
SWIDTH 500 0
DWIDTH 8 0
BBX 7 8 0 0
BITMAP
FC
7E
20
20
20
30
FC
7E
ENDCHAR
STARTCHAR J
ENCODING 74
SWIDTH 500 0
DWIDTH 8 0
BBX 7 8 0 0
BITMAP
FC
7E
00
08
08
18
F8
70
ENDCHAR
STARTCHAR K
ENCODING 75
SWIDTH 500 0
DWIDTH 8 0
BBX 7 8 0 0
BITMAP
40
CC
DC
F8
F0
D8
CC
86
ENDCHAR
STARTCHAR L
ENCODING 76
SWIDTH 500 0
DWIDTH 8 0
BBX 7 8 0 0
BITMAP
40
C0
C0
C0
C0
C0
FE
FC
ENDCHAR
STARTCHAR M
ENCODING 77
SWIDTH 500 0
DWIDTH 8 0
BBX 7 8 0 0
BITMAP
42
C6
C6
EE
FE
FE
D6
84
ENDCHAR
STARTCHAR N
ENCODING 78
SWIDTH 500 0
DWIDTH 8 0
BBX 7 8 0 0
BITMAP
42
C6
E6
F6
FE
DE
CE
86
ENDCHAR
STARTCHAR O
ENCODING 79
SWIDTH 500 0
DWIDTH 8 0
BBX 7 8 0 0
BITMAP
F8
7C
0E
C6
C6
EE
7C
38
ENDCHAR
STARTCHAR P
ENCODING 80
SWIDTH 500 0
DWIDTH 8 0
BBX 7 8 0 0
BITMAP
F8
FC
06
FE
FE
C0
C0
80
ENDCHAR
STARTCHAR Q
ENCODING 81
SWIDTH 500 0
DWIDTH 8 0
BBX 7 8 0 0
BITMAP
F8
7C
06
C6
DA
DC
EE
76
ENDCHAR
STARTCHAR R
ENCODING 82
SWIDTH 500 0
DWIDTH 8 0
BBX 7 8 0 0
BITMAP
F8
FC
06
FE
FC
D8
CC
86
ENDCHAR
STARTCHAR S
ENCODING 83
SWIDTH 500 0
DWIDTH 8 0
BBX 7 8 0 0
BITMAP
7E
FC
00
30
18
0C
7E
FC
ENDCHAR
STARTCHAR T
ENCODING 84
SWIDTH 500 0
DWIDTH 8 0
BBX 7 8 0 0
BITMAP
7E
FC
30
30
30
30
30
20
ENDCHAR
STARTCHAR U
ENCODING 85
SWIDTH 500 0
DWIDTH 8 0
BBX 7 8 0 0
BITMAP
42
C6
C6
C6
C6
CE
FC
F8
ENDCHAR
STARTCHAR V
ENCODING 86
SWIDTH 500 0
DWIDTH 8 0
BBX 7 8 0 0
BITMAP
42
C6
CE
DC
F8
F0
E0
C0
ENDCHAR
STARTCHAR W
ENCODING 87
SWIDTH 500 0
DWIDTH 8 0
BBX 7 8 0 0
BITMAP
42
C6
C6
D6
D6
FE
EE
84
ENDCHAR
STARTCHAR X
ENCODING 88
SWIDTH 500 0
DWIDTH 8 0
BBX 7 8 0 0
BITMAP
06
CE
FC
78
70
F8
DC
8E
ENDCHAR
STARTCHAR Y
ENCODING 89
SWIDTH 500 0
DWIDTH 8 0
BBX 6 8 0 0
BITMAP
84
CC
EC
7C
3C
0C
0C
08
ENDCHAR
STARTCHAR Z
ENCODING 90
SWIDTH 500 0
DWIDTH 8 0
BBX 7 8 0 0
BITMAP
7E
FC
00
18
30
60
FE
FC
ENDCHAR
STARTCHAR backslash
ENCODING 92
SWIDTH 500 0
DWIDTH 8 0
BBX 7 7 0 0
BITMAP
80
C0
60
30
18
0C
06
ENDCHAR
STARTCHAR underscore
ENCODING 95
SWIDTH 500 0
DWIDTH 8 0
BBX 7 2 0 0
BITMAP
7E
FC
ENDCHAR
STARTCHAR a
ENCODING 97
SWIDTH 500 0
DWIDTH 8 0
BBX 7 8 0 0
BITMAP
7E
FC
0C
CC
FC
CC
CC
88
ENDCHAR
STARTCHAR b
ENCODING 98
SWIDTH 500 0
DWIDTH 8 0
BBX 7 8 0 0
BITMAP
F8
7C
06
7E
7C
66
7E
7C
ENDCHAR
STARTCHAR c
ENCODING 99
SWIDTH 500 0
DWIDTH 8 0
BBX 7 8 0 0
BITMAP
7E
FC
C0
C0
C0
C0
FE
FC
ENDCHAR
STARTCHAR d
ENCODING 100
SWIDTH 500 0
DWIDTH 8 0
BBX 7 8 0 0
BITMAP
F8
7C
0E
66
66
66
7E
FC
ENDCHAR
STARTCHAR e
ENCODING 101
SWIDTH 500 0
DWIDTH 8 0
BBX 7 8 0 0
BITMAP
7E
FC
C0
F8
F0
C0
FE
FC
ENDCHAR
STARTCHAR f
ENCODING 102
SWIDTH 500 0
DWIDTH 8 0
BBX 7 8 0 0
BITMAP
7E
FC
C0
F8
F0
C0
C0
80
ENDCHAR
STARTCHAR g
ENCODING 103
SWIDTH 500 0
DWIDTH 8 0
BBX 7 8 0 0
BITMAP
7E
FC
C0
C0
CE
C6
F6
74
ENDCHAR
STARTCHAR h
ENCODING 104
SWIDTH 500 0
DWIDTH 8 0
BBX 7 8 0 0
BITMAP
42
C6
C6
FE
FE
C6
C6
84
ENDCHAR
STARTCHAR i
ENCODING 105
SWIDTH 500 0
DWIDTH 8 0
BBX 7 8 0 0
BITMAP
FC
7E
20
20
20
30
FC
7E
ENDCHAR
STARTCHAR j
ENCODING 106
SWIDTH 500 0
DWIDTH 8 0
BBX 7 8 0 0
BITMAP
FC
7E
00
08
08
18
F8
70
ENDCHAR
STARTCHAR k
ENCODING 107
SWIDTH 500 0
DWIDTH 8 0
BBX 7 8 0 0
BITMAP
40
CC
DC
F8
F0
D8
CC
86
ENDCHAR
STARTCHAR l
ENCODING 108
SWIDTH 500 0
DWIDTH 8 0
BBX 7 8 0 0
BITMAP
40
C0
C0
C0
C0
C0
FE
FC
ENDCHAR
STARTCHAR m
ENCODING 109
SWIDTH 500 0
DWIDTH 8 0
BBX 7 8 0 0
BITMAP
42
C6
C6
EE
FE
FE
D6
84
ENDCHAR
STARTCHAR n
ENCODING 110
SWIDTH 500 0
DWIDTH 8 0
BBX 7 8 0 0
BITMAP
42
C6
E6
F6
FE
DE
CE
86
ENDCHAR
STARTCHAR o
ENCODING 111
SWIDTH 500 0
DWIDTH 8 0
BBX 7 8 0 0
BITMAP
F8
7C
0E
C6
C6
EE
7C
38
ENDCHAR
STARTCHAR p
ENCODING 112
SWIDTH 500 0
DWIDTH 8 0
BBX 7 8 0 0
BITMAP
F8
FC
06
FE
FE
C0
C0
80
ENDCHAR
STARTCHAR q
ENCODING 113
SWIDTH 500 0
DWIDTH 8 0
BBX 7 8 0 0
BITMAP
F8
7C
06
C6
DA
DC
EE
76
ENDCHAR
STARTCHAR r
ENCODING 114
SWIDTH 500 0
DWIDTH 8 0
BBX 7 8 0 0
BITMAP
F8
FC
06
FE
FC
D8
CC
86
ENDCHAR
STARTCHAR s
ENCODING 115
SWIDTH 500 0
DWIDTH 8 0
BBX 7 8 0 0
BITMAP
7E
FC
00
30
18
0C
7E
FC
ENDCHAR
STARTCHAR t
ENCODING 116
SWIDTH 500 0
DWIDTH 8 0
BBX 7 8 0 0
BITMAP
7E
FC
30
30
30
30
30
20
ENDCHAR
STARTCHAR u
ENCODING 117
SWIDTH 500 0
DWIDTH 8 0
BBX 7 8 0 0
BITMAP
42
C6
C6
C6
C6
CE
FC
F8
ENDCHAR
STARTCHAR v
ENCODING 118
SWIDTH 500 0
DWIDTH 8 0
BBX 7 8 0 0
BITMAP
42
C6
CE
DC
F8
F0
E0
C0
ENDCHAR
STARTCHAR w
ENCODING 119
SWIDTH 500 0
DWIDTH 8 0
BBX 7 8 0 0
BITMAP
42
C6
C6
D6
D6
FE
EE
84
ENDCHAR
STARTCHAR x
ENCODING 120
SWIDTH 500 0
DWIDTH 8 0
BBX 7 8 0 0
BITMAP
06
CE
FC
78
70
F8
DC
8E
ENDCHAR
STARTCHAR y
ENCODING 121
SWIDTH 500 0
DWIDTH 8 0
BBX 6 8 0 0
BITMAP
84
CC
EC
7C
3C
0C
0C
08
ENDCHAR
STARTCHAR z
ENCODING 122
SWIDTH 500 0
DWIDTH 8 0
BBX 7 8 0 0
BITMAP
7E
FC
00
18
30
60
FE
FC
ENDCHAR
STARTCHAR .notdef
ENCODING -1
SWIDTH 500 0
DWIDTH 8 0
BBX 1 1 0 0
BITMAP
00
ENDCHAR
STARTCHAR glyph00001
ENCODING -1
SWIDTH 500 0
DWIDTH 8 0
BBX 1 1 0 0
BITMAP
00
ENDCHAR
ENDFONT
