STARTFONT 2.1
FONT Bm437_HP_100LX_10x11-12px
SIZE 12 75 75
FONTBOUNDINGBOX 10 11 0 -2
STARTPROPERTIES 3
PIXEL_SIZE 12
FONT_ASCENT 10
FONT_DESCENT 2
ENDPROPERTIES
CHARS 295
STARTCHAR uni0000
ENCODING 0
SWIDTH 833 0
DWIDTH 10 0
BBX 10 11 0 -2
BITMAP
0000
0000
0000
0000
0000
0000
0000
0000
0000
0000
0000
ENDCHAR
STARTCHAR uni0001
ENCODING 1
SWIDTH 833 0
DWIDTH 10 0
BBX 10 11 0 -2
BITMAP
1F00
2080
4A40
4040
5140
71C0
4E40
2080
1F00
0000
0000
ENDCHAR
STARTCHAR uni0002
ENCODING 2
SWIDTH 833 0
DWIDTH 10 0
BBX 10 11 0 -2
BITMAP
1F00
3F80
75C0
7FC0
6EC0
4E40
71C0
3F80
1F00
0000
0000
ENDCHAR
STARTCHAR uni0003
ENCODING 3
SWIDTH 833 0
DWIDTH 10 0
BBX 10 11 0 -2
BITMAP
3B80
7FC0
7FC0
7FC0
7FC0
3F80
1F00
0E00
0400
0000
0000
ENDCHAR
STARTCHAR uni0004
ENCODING 4
SWIDTH 833 0
DWIDTH 10 0
BBX 10 11 0 -2
BITMAP
0400
0E00
1F00
3F80
7FC0
3F80
1F00
0E00
0400
0000
0000
ENDCHAR
STARTCHAR uni0005
ENCODING 5
SWIDTH 833 0
DWIDTH 10 0
BBX 10 11 0 -2
BITMAP
0400
0E00
0E00
0E00
3B80
7FC0
3580
0400
0E00
0000
0000
ENDCHAR
STARTCHAR uni0006
ENCODING 6
SWIDTH 833 0
DWIDTH 10 0
BBX 10 11 0 -2
BITMAP
0400
0E00
1F00
3F80
3F80
3F80
1B00
0400
0E00
0000
0000
ENDCHAR
STARTCHAR uni0007
ENCODING 7
SWIDTH 833 0
DWIDTH 10 0
BBX 10 11 0 -2
BITMAP
0000
0000
1E00
3F00
3F00
3F00
1E00
0000
0000
0000
0000
ENDCHAR
STARTCHAR uni0008
ENCODING 8
SWIDTH 833 0
DWIDTH 10 0
BBX 10 11 0 -2
BITMAP
FFC0
FFC0
E1C0
C0C0
C0C0
C0C0
E1C0
FFC0
FFC0
FFC0
FFC0
ENDCHAR
STARTCHAR uni0009
ENCODING 9
SWIDTH 833 0
DWIDTH 10 0
BBX 10 11 0 -2
BITMAP
0000
1E00
2100
4080
4080
4080
2100
1E00
0000
0000
0000
ENDCHAR
STARTCHAR uni000A
ENCODING 10
SWIDTH 833 0
DWIDTH 10 0
BBX 10 11 0 -2
BITMAP
FFC0
E1C0
DEC0
BF40
BF40
BF40
DEC0
E1C0
FFC0
FFC0
FFC0
ENDCHAR
STARTCHAR uni000B
ENCODING 11
SWIDTH 833 0
DWIDTH 10 0
BBX 10 11 0 -2
BITMAP
07C0
01C0
0340
3E40
6600
4200
4200
6600
3C00
0000
0000
ENDCHAR
STARTCHAR uni000C
ENCODING 12
SWIDTH 833 0
DWIDTH 10 0
BBX 10 11 0 -2
BITMAP
1E00
3300
2100
2100
3300
1E00
0C00
1E00
1E00
0C00
0C00
ENDCHAR
STARTCHAR uni000D
ENCODING 13
SWIDTH 833 0
DWIDTH 10 0
BBX 10 11 0 -2
BITMAP
0000
0800
0C00
0E00
0A00
0A00
0800
3800
3000
0000
0000
ENDCHAR
STARTCHAR uni000E
ENCODING 14
SWIDTH 833 0
DWIDTH 10 0
BBX 10 11 0 -2
BITMAP
0000
1000
1800
1400
1A00
1600
1200
7200
6E00
0C00
0000
ENDCHAR
STARTCHAR uni000F
ENCODING 15
SWIDTH 833 0
DWIDTH 10 0
BBX 10 11 0 -2
BITMAP
0000
0400
2480
1F00
1B00
71C0
1B00
1F00
2480
0400
0000
ENDCHAR
STARTCHAR uni0010
ENCODING 16
SWIDTH 833 0
DWIDTH 10 0
BBX 10 11 0 -2
BITMAP
0000
6000
7800
7E00
7F80
7F80
7E00
7800
6000
0000
0000
ENDCHAR
STARTCHAR uni0011
ENCODING 17
SWIDTH 833 0
DWIDTH 10 0
BBX 10 11 0 -2
BITMAP
0000
0180
0780
1F80
7F80
7F80
1F80
0780
0180
0000
0000
ENDCHAR
STARTCHAR uni0012
ENCODING 18
SWIDTH 833 0
DWIDTH 10 0
BBX 10 11 0 -2
BITMAP
0000
0C00
1E00
3F00
0C00
0C00
0C00
3F00
1E00
0C00
0000
ENDCHAR
STARTCHAR uni0013
ENCODING 19
SWIDTH 833 0
DWIDTH 10 0
BBX 10 11 0 -2
BITMAP
3180
7BC0
7BC0
7BC0
3180
3180
0000
3180
3180
0000
0000
ENDCHAR
STARTCHAR uni0014
ENCODING 20
SWIDTH 833 0
DWIDTH 10 0
BBX 10 11 0 -2
BITMAP
3F80
6D80
6D80
3D80
0D80
0D80
0D80
0D80
0D80
0000
0000
ENDCHAR
STARTCHAR uni0015
ENCODING 21
SWIDTH 833 0
DWIDTH 10 0
BBX 10 11 0 -2
BITMAP
0F00
1880
1800
0F00
1980
1980
1980
0F00
0180
1180
0F00
ENDCHAR
STARTCHAR uni0016
ENCODING 22
SWIDTH 833 0
DWIDTH 10 0
BBX 10 11 0 -2
BITMAP
0000
0000
0000
0000
0000
0000
0000
0000
0000
FFC0
FFC0
ENDCHAR
STARTCHAR uni0017
ENCODING 23
SWIDTH 833 0
DWIDTH 10 0
BBX 10 11 0 -2
BITMAP
0C00
1E00
3F00
0C00
0C00
0C00
0C00
3F00
1E00
0C00
3F00
ENDCHAR
STARTCHAR uni0018
ENCODING 24
SWIDTH 833 0
DWIDTH 10 0
BBX 10 11 0 -2
BITMAP
0C00
1E00
3F00
7F80
0C00
0C00
0C00
0C00
0C00
0C00
0C00
ENDCHAR
STARTCHAR uni0019
ENCODING 25
SWIDTH 833 0
DWIDTH 10 0
BBX 10 11 0 -2
BITMAP
0C00
0C00
0C00
0C00
0C00
0C00
0C00
7F80
3F00
1E00
0C00
ENDCHAR
STARTCHAR uni001A
ENCODING 26
SWIDTH 833 0
DWIDTH 10 0
BBX 10 11 0 -2
BITMAP
0000
0200
0300
0380
FFC0
FFC0
0380
0300
0200
0000
0000
ENDCHAR
STARTCHAR uni001B
ENCODING 27
SWIDTH 833 0
DWIDTH 10 0
BBX 10 11 0 -2
BITMAP
0000
1000
3000
7000
FFC0
FFC0
7000
3000
1000
0000
0000
ENDCHAR
STARTCHAR uni001C
ENCODING 28
SWIDTH 833 0
DWIDTH 10 0
BBX 10 11 0 -2
BITMAP
0000
3000
3000
3000
3FC0
3FC0
0000
0000
0000
0000
0000
ENDCHAR
STARTCHAR uni001D
ENCODING 29
SWIDTH 833 0
DWIDTH 10 0
BBX 10 11 0 -2
BITMAP
0000
0000
2100
6180
FFC0
FFC0
6180
2100
0000
0000
0000
ENDCHAR
STARTCHAR uni001E
ENCODING 30
SWIDTH 833 0
DWIDTH 10 0
BBX 10 11 0 -2
BITMAP
0000
0C00
0C00
1E00
1E00
3F00
3F00
7F80
7F80
0000
0000
ENDCHAR
STARTCHAR uni001F
ENCODING 31
SWIDTH 833 0
DWIDTH 10 0
BBX 10 11 0 -2
BITMAP
0000
7F80
7F80
3F00
3F00
1E00
1E00
0C00
0C00
0000
0000
ENDCHAR
STARTCHAR space
ENCODING 32
SWIDTH 833 0
DWIDTH 10 0
BBX 10 11 0 -2
BITMAP
0000
0000
0000
0000
0000
0000
0000
0000
0000
0000
0000
ENDCHAR
STARTCHAR exclam
ENCODING 33
SWIDTH 833 0
DWIDTH 10 0
BBX 10 11 0 -2
BITMAP
0C00
1E00
1E00
1E00
0C00
0C00
0000
0C00
0C00
0000
0000
ENDCHAR
STARTCHAR quotedbl
ENCODING 34
SWIDTH 833 0
DWIDTH 10 0
BBX 10 11 0 -2
BITMAP
3300
3300
1200
0000
0000
0000
0000
0000
0000
0000
0000
ENDCHAR
STARTCHAR numbersign
ENCODING 35
SWIDTH 833 0
DWIDTH 10 0
BBX 10 11 0 -2
BITMAP
3300
3300
7F80
3300
3300
3300
7F80
3300
3300
0000
0000
ENDCHAR
STARTCHAR dollar
ENCODING 36
SWIDTH 833 0
DWIDTH 10 0
BBX 10 11 0 -2
BITMAP
0C00
3F00
6180
6000
1E00
0180
6180
3F00
0C00
0000
0000
ENDCHAR
STARTCHAR percent
ENCODING 37
SWIDTH 833 0
DWIDTH 10 0
BBX 10 11 0 -2
BITMAP
3840
6CC0
6D80
3B00
0600
0C00
1B80
36C0
66C0
0380
0000
ENDCHAR
STARTCHAR ampersand
ENCODING 38
SWIDTH 833 0
DWIDTH 10 0
BBX 10 11 0 -2
BITMAP
1C00
3600
3600
1C00
3B00
6E00
6600
6600
3B00
0000
0000
ENDCHAR
STARTCHAR quotesingle
ENCODING 39
SWIDTH 833 0
DWIDTH 10 0
BBX 10 11 0 -2
BITMAP
0C00
0C00
0400
0800
0000
0000
0000
0000
0000
0000
0000
ENDCHAR
STARTCHAR parenleft
ENCODING 40
SWIDTH 833 0
DWIDTH 10 0
BBX 10 11 0 -2
BITMAP
0600
0C00
1800
1800
1800
1800
1800
0C00
0600
0000
0000
ENDCHAR
STARTCHAR parenright
ENCODING 41
SWIDTH 833 0
DWIDTH 10 0
BBX 10 11 0 -2
BITMAP
0C00
0600
0300
0300
0300
0300
0300
0600
0C00
0000
0000
ENDCHAR
STARTCHAR asterisk
ENCODING 42
SWIDTH 833 0
DWIDTH 10 0
BBX 10 11 0 -2
BITMAP
0000
0000
1200
0C00
3F00
0C00
1200
0000
0000
0000
0000
ENDCHAR
STARTCHAR plus
ENCODING 43
SWIDTH 833 0
DWIDTH 10 0
BBX 10 11 0 -2
BITMAP
0000
0000
0C00
0C00
3F00
0C00
0C00
0000
0000
0000
0000
ENDCHAR
STARTCHAR comma
ENCODING 44
SWIDTH 833 0
DWIDTH 10 0
BBX 10 11 0 -2
BITMAP
0000
0000
0000
0000
0000
0000
0000
0C00
0C00
1800
0000
ENDCHAR
STARTCHAR hyphen
ENCODING 45
SWIDTH 833 0
DWIDTH 10 0
BBX 10 11 0 -2
BITMAP
0000
0000
0000
0000
3F00
0000
0000
0000
0000
0000
0000
ENDCHAR
STARTCHAR period
ENCODING 46
SWIDTH 833 0
DWIDTH 10 0
BBX 10 11 0 -2
BITMAP
0000
0000
0000
0000
0000
0000
0000
0C00
0C00
0000
0000
ENDCHAR
STARTCHAR slash
ENCODING 47
SWIDTH 833 0
DWIDTH 10 0
BBX 10 11 0 -2
BITMAP
0000
0180
0300
0600
0C00
1800
3000
6000
4000
0000
0000
ENDCHAR
STARTCHAR zero
ENCODING 48
SWIDTH 833 0
DWIDTH 10 0
BBX 10 11 0 -2
BITMAP
3F00
6180
6380
6580
6D80
6980
7180
6180
3F00
0000
0000
ENDCHAR
STARTCHAR one
ENCODING 49
SWIDTH 833 0
DWIDTH 10 0
BBX 10 11 0 -2
BITMAP
0C00
1C00
3C00
0C00
0C00
0C00
0C00
0C00
3F00
0000
0000
ENDCHAR
STARTCHAR two
ENCODING 50
SWIDTH 833 0
DWIDTH 10 0
BBX 10 11 0 -2
BITMAP
3F00
6180
4180
0180
0700
1C00
3000
6180
7F80
0000
0000
ENDCHAR
STARTCHAR three
ENCODING 51
SWIDTH 833 0
DWIDTH 10 0
BBX 10 11 0 -2
BITMAP
3F00
6380
0180
0180
0F00
0180
0180
6380
3F00
0000
0000
ENDCHAR
STARTCHAR four
ENCODING 52
SWIDTH 833 0
DWIDTH 10 0
BBX 10 11 0 -2
BITMAP
0700
0F00
1B00
3300
6300
7F80
0300
0300
0780
0000
0000
ENDCHAR
STARTCHAR five
ENCODING 53
SWIDTH 833 0
DWIDTH 10 0
BBX 10 11 0 -2
BITMAP
7F80
6000
6000
7F00
0180
0180
0180
6180
3F00
0000
0000
ENDCHAR
STARTCHAR six
ENCODING 54
SWIDTH 833 0
DWIDTH 10 0
BBX 10 11 0 -2
BITMAP
3F00
6180
6000
6000
7F00
6180
6180
6180
3F00
0000
0000
ENDCHAR
STARTCHAR seven
ENCODING 55
SWIDTH 833 0
DWIDTH 10 0
BBX 10 11 0 -2
BITMAP
7F80
6180
0180
0180
0300
0600
0C00
0C00
0C00
0000
0000
ENDCHAR
STARTCHAR eight
ENCODING 56
SWIDTH 833 0
DWIDTH 10 0
BBX 10 11 0 -2
BITMAP
3F00
6180
6180
6180
3F00
6180
6180
6180
3F00
0000
0000
ENDCHAR
STARTCHAR nine
ENCODING 57
SWIDTH 833 0
DWIDTH 10 0
BBX 10 11 0 -2
BITMAP
3F00
6180
6180
6180
3F80
0180
0180
6180
3F00
0000
0000
ENDCHAR
STARTCHAR colon
ENCODING 58
SWIDTH 833 0
DWIDTH 10 0
BBX 10 11 0 -2
BITMAP
0000
0000
0000
0C00
0C00
0000
0000
0C00
0C00
0000
0000
ENDCHAR
STARTCHAR semicolon
ENCODING 59
SWIDTH 833 0
DWIDTH 10 0
BBX 10 11 0 -2
BITMAP
0000
0000
0000
0C00
0C00
0000
0000
0C00
0C00
1800
0000
ENDCHAR
STARTCHAR less
ENCODING 60
SWIDTH 833 0
DWIDTH 10 0
BBX 10 11 0 -2
BITMAP
0000
0300
0600
0C00
1800
3000
1800
0C00
0600
0300
0000
ENDCHAR
STARTCHAR equal
ENCODING 61
SWIDTH 833 0
DWIDTH 10 0
BBX 10 11 0 -2
BITMAP
0000
0000
0000
3F00
0000
0000
3F00
0000
0000
0000
0000
ENDCHAR
STARTCHAR greater
ENCODING 62
SWIDTH 833 0
DWIDTH 10 0
BBX 10 11 0 -2
BITMAP
0000
3000
1800
0C00
0600
0300
0600
0C00
1800
3000
0000
ENDCHAR
STARTCHAR question
ENCODING 63
SWIDTH 833 0
DWIDTH 10 0
BBX 10 11 0 -2
BITMAP
3F00
7180
6180
0300
0600
0C00
0000
0C00
0C00
0000
0000
ENDCHAR
STARTCHAR at
ENCODING 64
SWIDTH 833 0
DWIDTH 10 0
BBX 10 11 0 -2
BITMAP
3F00
7380
6180
6780
6D80
6D80
6780
7000
3F00
0000
0000
ENDCHAR
STARTCHAR A
ENCODING 65
SWIDTH 833 0
DWIDTH 10 0
BBX 10 11 0 -2
BITMAP
1E00
3300
3300
6180
6180
7F80
6180
6180
6180
0000
0000
ENDCHAR
STARTCHAR B
ENCODING 66
SWIDTH 833 0
DWIDTH 10 0
BBX 10 11 0 -2
BITMAP
7F00
3180
3180
3180
3F00
3180
3180
3180
7F00
0000
0000
ENDCHAR
STARTCHAR C
ENCODING 67
SWIDTH 833 0
DWIDTH 10 0
BBX 10 11 0 -2
BITMAP
1F00
3180
6000
6000
6000
6000
6000
3180
1F00
0000
0000
ENDCHAR
STARTCHAR D
ENCODING 68
SWIDTH 833 0
DWIDTH 10 0
BBX 10 11 0 -2
BITMAP
7E00
3300
3180
3180
3180
3180
3180
3300
7E00
0000
0000
ENDCHAR
STARTCHAR E
ENCODING 69
SWIDTH 833 0
DWIDTH 10 0
BBX 10 11 0 -2
BITMAP
7F80
3080
3000
3200
3E00
3200
3000
3080
7F80
0000
0000
ENDCHAR
STARTCHAR F
ENCODING 70
SWIDTH 833 0
DWIDTH 10 0
BBX 10 11 0 -2
BITMAP
7F80
3080
3000
3200
3E00
3200
3000
3000
7800
0000
0000
ENDCHAR
STARTCHAR G
ENCODING 71
SWIDTH 833 0
DWIDTH 10 0
BBX 10 11 0 -2
BITMAP
1F00
3180
6000
6000
6000
6780
6180
3180
1F00
0000
0000
ENDCHAR
STARTCHAR H
ENCODING 72
SWIDTH 833 0
DWIDTH 10 0
BBX 10 11 0 -2
BITMAP
6180
6180
6180
6180
7F80
6180
6180
6180
6180
0000
0000
ENDCHAR
STARTCHAR I
ENCODING 73
SWIDTH 833 0
DWIDTH 10 0
BBX 10 11 0 -2
BITMAP
3F00
0C00
0C00
0C00
0C00
0C00
0C00
0C00
3F00
0000
0000
ENDCHAR
STARTCHAR J
ENCODING 74
SWIDTH 833 0
DWIDTH 10 0
BBX 10 11 0 -2
BITMAP
03C0
0180
0180
0180
0180
6180
6180
7380
3F00
0000
0000
ENDCHAR
STARTCHAR K
ENCODING 75
SWIDTH 833 0
DWIDTH 10 0
BBX 10 11 0 -2
BITMAP
78C0
31C0
3180
3300
3E00
3300
3180
3180
79C0
0000
0000
ENDCHAR
STARTCHAR L
ENCODING 76
SWIDTH 833 0
DWIDTH 10 0
BBX 10 11 0 -2
BITMAP
7800
3000
3000
3000
3000
3000
3000
3080
7F80
0000
0000
ENDCHAR
STARTCHAR M
ENCODING 77
SWIDTH 833 0
DWIDTH 10 0
BBX 10 11 0 -2
BITMAP
60C0
71C0
7BC0
6EC0
64C0
60C0
60C0
60C0
60C0
0000
0000
ENDCHAR
STARTCHAR N
ENCODING 78
SWIDTH 833 0
DWIDTH 10 0
BBX 10 11 0 -2
BITMAP
7180
7180
7980
6980
6D80
6580
6780
6380
6380
0000
0000
ENDCHAR
STARTCHAR O
ENCODING 79
SWIDTH 833 0
DWIDTH 10 0
BBX 10 11 0 -2
BITMAP
1F00
3180
60C0
60C0
60C0
60C0
60C0
3180
1F00
0000
0000
ENDCHAR
STARTCHAR P
ENCODING 80
SWIDTH 833 0
DWIDTH 10 0
BBX 10 11 0 -2
BITMAP
7F80
31C0
30C0
31C0
3F80
3000
3000
3000
7800
0000
0000
ENDCHAR
STARTCHAR Q
ENCODING 81
SWIDTH 833 0
DWIDTH 10 0
BBX 10 11 0 -2
BITMAP
1F00
3180
60C0
60C0
60C0
60C0
66C0
3380
1F80
00C0
0000
ENDCHAR
STARTCHAR R
ENCODING 82
SWIDTH 833 0
DWIDTH 10 0
BBX 10 11 0 -2
BITMAP
7F80
31C0
30C0
31C0
3F80
3300
3180
30C0
78C0
0000
0000
ENDCHAR
STARTCHAR S
ENCODING 83
SWIDTH 833 0
DWIDTH 10 0
BBX 10 11 0 -2
BITMAP
3F00
7180
6000
7000
3F00
0380
0180
6380
3F00
0000
0000
ENDCHAR
STARTCHAR T
ENCODING 84
SWIDTH 833 0
DWIDTH 10 0
BBX 10 11 0 -2
BITMAP
7F80
4C80
0C00
0C00
0C00
0C00
0C00
0C00
1E00
0000
0000
ENDCHAR
STARTCHAR U
ENCODING 85
SWIDTH 833 0
DWIDTH 10 0
BBX 10 11 0 -2
BITMAP
6180
6180
6180
6180
6180
6180
6180
7380
3F00
0000
0000
ENDCHAR
STARTCHAR V
ENCODING 86
SWIDTH 833 0
DWIDTH 10 0
BBX 10 11 0 -2
BITMAP
6180
6180
6180
6180
3300
3300
1E00
1E00
0C00
0000
0000
ENDCHAR
STARTCHAR W
ENCODING 87
SWIDTH 833 0
DWIDTH 10 0
BBX 10 11 0 -2
BITMAP
60C0
60C0
60C0
64C0
6EC0
7FC0
3B80
3180
3180
0000
0000
ENDCHAR
STARTCHAR X
ENCODING 88
SWIDTH 833 0
DWIDTH 10 0
BBX 10 11 0 -2
BITMAP
7BC0
3180
1B00
0E00
0E00
0E00
1B00
3180
7BC0
0000
0000
ENDCHAR
STARTCHAR Y
ENCODING 89
SWIDTH 833 0
DWIDTH 10 0
BBX 10 11 0 -2
BITMAP
7380
3300
3300
1E00
1E00
0C00
0C00
0C00
1E00
0000
0000
ENDCHAR
STARTCHAR Z
ENCODING 90
SWIDTH 833 0
DWIDTH 10 0
BBX 10 11 0 -2
BITMAP
7F80
6180
4300
0600
0C00
1800
3080
6180
7F80
0000
0000
ENDCHAR
STARTCHAR bracketleft
ENCODING 91
SWIDTH 833 0
DWIDTH 10 0
BBX 10 11 0 -2
BITMAP
0F00
0C00
0C00
0C00
0C00
0C00
0C00
0C00
0F00
0000
0000
ENDCHAR
STARTCHAR backslash
ENCODING 92
SWIDTH 833 0
DWIDTH 10 0
BBX 10 11 0 -2
BITMAP
0000
6000
3000
1800
0C00
0600
0300
0180
0080
0000
0000
ENDCHAR
STARTCHAR bracketright
ENCODING 93
SWIDTH 833 0
DWIDTH 10 0
BBX 10 11 0 -2
BITMAP
3C00
0C00
0C00
0C00
0C00
0C00
0C00
0C00
3C00
0000
0000
ENDCHAR
STARTCHAR asciicircum
ENCODING 94
SWIDTH 833 0
DWIDTH 10 0
BBX 10 11 0 -2
BITMAP
0C00
1E00
3300
0000
0000
0000
0000
0000
0000
0000
0000
ENDCHAR
STARTCHAR underscore
ENCODING 95
SWIDTH 833 0
DWIDTH 10 0
BBX 10 11 0 -2
BITMAP
0000
0000
0000
0000
0000
0000
0000
0000
0000
0000
FFC0
ENDCHAR
STARTCHAR grave
ENCODING 96
SWIDTH 833 0
DWIDTH 10 0
BBX 10 11 0 -2
BITMAP
0E00
0300
0000
0000
0000
0000
0000
0000
0000
0000
0000
ENDCHAR
STARTCHAR a
ENCODING 97
SWIDTH 833 0
DWIDTH 10 0
BBX 10 11 0 -2
BITMAP
0000
0000
0000
1F00
0180
3D80
6380
6380
3DC0
0000
0000
ENDCHAR
STARTCHAR b
ENCODING 98
SWIDTH 833 0
DWIDTH 10 0
BBX 10 11 0 -2
BITMAP
E000
6000
6000
6F00
7380
6180
6180
7380
6F00
0000
0000
ENDCHAR
STARTCHAR c
ENCODING 99
SWIDTH 833 0
DWIDTH 10 0
BBX 10 11 0 -2
BITMAP
0000
0000
0000
3F00
7180
6000
6000
7180
3F00
0000
0000
ENDCHAR
STARTCHAR d
ENCODING 100
SWIDTH 833 0
DWIDTH 10 0
BBX 10 11 0 -2
BITMAP
0380
0180
0180
3D80
7380
6180
6180
7380
3DC0
0000
0000
ENDCHAR
STARTCHAR e
ENCODING 101
SWIDTH 833 0
DWIDTH 10 0
BBX 10 11 0 -2
BITMAP
0000
0000
0000
3F00
6180
6180
7F80
6000
3F00
0000
0000
ENDCHAR
STARTCHAR f
ENCODING 102
SWIDTH 833 0
DWIDTH 10 0
BBX 10 11 0 -2
BITMAP
0F80
18C0
1800
7E00
1800
1800
1800
1800
7E00
0000
0000
ENDCHAR
STARTCHAR g
ENCODING 103
SWIDTH 833 0
DWIDTH 10 0
BBX 10 11 0 -2
BITMAP
0000
0000
0000
3EC0
7380
6180
7380
3D80
0180
3F00
0000
ENDCHAR
STARTCHAR h
ENCODING 104
SWIDTH 833 0
DWIDTH 10 0
BBX 10 11 0 -2
BITMAP
E000
6000
6000
6F00
7380
6180
6180
6180
6180
0000
0000
ENDCHAR
STARTCHAR i
ENCODING 105
SWIDTH 833 0
DWIDTH 10 0
BBX 10 11 0 -2
BITMAP
0C00
0C00
0000
3C00
0C00
0C00
0C00
0C00
3F00
0000
0000
ENDCHAR
STARTCHAR j
ENCODING 106
SWIDTH 833 0
DWIDTH 10 0
BBX 10 11 0 -2
BITMAP
0600
0600
0000
0E00
0600
0600
0600
C600
6C00
3800
0000
ENDCHAR
STARTCHAR k
ENCODING 107
SWIDTH 833 0
DWIDTH 10 0
BBX 10 11 0 -2
BITMAP
E000
6000
6300
6600
6C00
7C00
7600
6300
F180
0000
0000
ENDCHAR
STARTCHAR l
ENCODING 108
SWIDTH 833 0
DWIDTH 10 0
BBX 10 11 0 -2
BITMAP
3C00
0C00
0C00
0C00
0C00
0C00
0C00
0C00
3F00
0000
0000
ENDCHAR
STARTCHAR m
ENCODING 109
SWIDTH 833 0
DWIDTH 10 0
BBX 10 11 0 -2
BITMAP
0000
0000
0000
DB00
7F80
6D80
6D80
6180
6180
0000
0000
ENDCHAR
STARTCHAR n
ENCODING 110
SWIDTH 833 0
DWIDTH 10 0
BBX 10 11 0 -2
BITMAP
0000
0000
0000
EF00
7380
6180
6180
6180
6180
0000
0000
ENDCHAR
STARTCHAR o
ENCODING 111
SWIDTH 833 0
DWIDTH 10 0
BBX 10 11 0 -2
BITMAP
0000
0000
0000
3F00
7380
6180
6180
7380
3F00
0000
0000
ENDCHAR
STARTCHAR p
ENCODING 112
SWIDTH 833 0
DWIDTH 10 0
BBX 10 11 0 -2
BITMAP
0000
0000
0000
DF00
6380
6180
6380
7F00
6000
F000
0000
ENDCHAR
STARTCHAR q
ENCODING 113
SWIDTH 833 0
DWIDTH 10 0
BBX 10 11 0 -2
BITMAP
0000
0000
0000
3EC0
7180
6180
7180
3F80
0180
03C0
0000
ENDCHAR
STARTCHAR r
ENCODING 114
SWIDTH 833 0
DWIDTH 10 0
BBX 10 11 0 -2
BITMAP
0000
0000
0000
6F00
3980
3000
3000
3000
7800
0000
0000
ENDCHAR
STARTCHAR s
ENCODING 115
SWIDTH 833 0
DWIDTH 10 0
BBX 10 11 0 -2
BITMAP
0000
0000
0000
3F00
7080
3F00
0180
6180
3F00
0000
0000
ENDCHAR
STARTCHAR t
ENCODING 116
SWIDTH 833 0
DWIDTH 10 0
BBX 10 11 0 -2
BITMAP
1000
3000
3000
7C00
3000
3000
3000
3980
1F00
0000
0000
ENDCHAR
STARTCHAR u
ENCODING 117
SWIDTH 833 0
DWIDTH 10 0
BBX 10 11 0 -2
BITMAP
0000
0000
0000
6180
6180
6180
6180
7380
3DC0
0000
0000
ENDCHAR
STARTCHAR v
ENCODING 118
SWIDTH 833 0
DWIDTH 10 0
BBX 10 11 0 -2
BITMAP
0000
0000
0000
6180
6180
6180
3300
1E00
0C00
0000
0000
ENDCHAR
STARTCHAR w
ENCODING 119
SWIDTH 833 0
DWIDTH 10 0
BBX 10 11 0 -2
BITMAP
0000
0000
0000
6180
6180
6D80
6D80
3F00
3300
0000
0000
ENDCHAR
STARTCHAR x
ENCODING 120
SWIDTH 833 0
DWIDTH 10 0
BBX 10 11 0 -2
BITMAP
0000
0000
0000
6180
3300
1E00
1E00
3300
6180
0000
0000
ENDCHAR
STARTCHAR y
ENCODING 121
SWIDTH 833 0
DWIDTH 10 0
BBX 10 11 0 -2
BITMAP
0000
0000
0000
6180
6180
6180
7380
3F80
0180
3F00
0000
ENDCHAR
STARTCHAR z
ENCODING 122
SWIDTH 833 0
DWIDTH 10 0
BBX 10 11 0 -2
BITMAP
0000
0000
0000
7F80
6380
0600
1800
7180
7F80
0000
0000
ENDCHAR
STARTCHAR braceleft
ENCODING 123
SWIDTH 833 0
DWIDTH 10 0
BBX 10 11 0 -2
BITMAP
0700
0C00
0C00
0C00
1800
0C00
0C00
0C00
0700
0000
0000
ENDCHAR
STARTCHAR bar
ENCODING 124
SWIDTH 833 0
DWIDTH 10 0
BBX 10 11 0 -2
BITMAP
0C00
0C00
0C00
0C00
0C00
0C00
0C00
0C00
0C00
0000
0000
ENDCHAR
STARTCHAR braceright
ENCODING 125
SWIDTH 833 0
DWIDTH 10 0
BBX 10 11 0 -2
BITMAP
3800
0C00
0C00
0C00
0600
0C00
0C00
0C00
3800
0000
0000
ENDCHAR
STARTCHAR asciitilde
ENCODING 126
SWIDTH 833 0
DWIDTH 10 0
BBX 10 11 0 -2
BITMAP
3800
6D80
0700
0000
0000
0000
0000
0000
0000
0000
0000
ENDCHAR
STARTCHAR uni007F
ENCODING 127
SWIDTH 833 0
DWIDTH 10 0
BBX 10 11 0 -2
BITMAP
0000
0C00
1E00
3300
6180
6180
6180
6180
7F80
0000
0000
ENDCHAR
STARTCHAR uni00A0
ENCODING 160
SWIDTH 833 0
DWIDTH 10 0
BBX 10 11 0 -2
BITMAP
0000
0000
0000
0000
0000
0000
0000
0000
0000
0000
0000
ENDCHAR
STARTCHAR exclamdown
ENCODING 161
SWIDTH 833 0
DWIDTH 10 0
BBX 10 11 0 -2
BITMAP
0C00
0C00
0000
0C00
0C00
1E00
1E00
1E00
0C00
0000
0000
ENDCHAR
STARTCHAR cent
ENCODING 162
SWIDTH 833 0
DWIDTH 10 0
BBX 10 11 0 -2
BITMAP
0000
0000
0C00
3F00
7180
6000
6000
7180
3F00
0C00
0000
ENDCHAR
STARTCHAR sterling
ENCODING 163
SWIDTH 833 0
DWIDTH 10 0
BBX 10 11 0 -2
BITMAP
0E00
1B00
3000
3000
7C00
3000
3000
7100
7E00
0000
0000
ENDCHAR
STARTCHAR yen
ENCODING 165
SWIDTH 833 0
DWIDTH 10 0
BBX 10 11 0 -2
BITMAP
6180
3300
1E00
0C00
7F80
0C00
7F80
0C00
0C00
0000
0000
ENDCHAR
STARTCHAR section
ENCODING 167
SWIDTH 833 0
DWIDTH 10 0
BBX 10 11 0 -2
BITMAP
0F00
1880
1800
0F00
1980
1980
1980
0F00
0180
1180
0F00
ENDCHAR
STARTCHAR ordfeminine
ENCODING 170
SWIDTH 833 0
DWIDTH 10 0
BBX 10 11 0 -2
BITMAP
3800
6C00
6C00
3600
0000
7C00
0000
0000
0000
0000
0000
ENDCHAR
STARTCHAR guillemotleft
ENCODING 171
SWIDTH 833 0
DWIDTH 10 0
BBX 10 11 0 -2
BITMAP
0000
0000
1980
3300
6600
3300
1980
0000
0000
0000
0000
ENDCHAR
STARTCHAR logicalnot
ENCODING 172
SWIDTH 833 0
DWIDTH 10 0
BBX 10 11 0 -2
BITMAP
0000
0000
0000
0000
FF00
FF00
0300
0300
0300
0000
0000
ENDCHAR
STARTCHAR degree
ENCODING 176
SWIDTH 833 0
DWIDTH 10 0
BBX 10 11 0 -2
BITMAP
1C00
3600
3600
1C00
0000
0000
0000
0000
0000
0000
0000
ENDCHAR
STARTCHAR plusminus
ENCODING 177
SWIDTH 833 0
DWIDTH 10 0
BBX 10 11 0 -2
BITMAP
0000
0000
0C00
0C00
3F00
0C00
0C00
3F00
0000
0000
0000
ENDCHAR
STARTCHAR uni00B2
ENCODING 178
SWIDTH 833 0
DWIDTH 10 0
BBX 10 11 0 -2
BITMAP
1C00
2600
0C00
1800
3E00
0000
0000
0000
0000
0000
0000
ENDCHAR
STARTCHAR mu
ENCODING 181
SWIDTH 833 0
DWIDTH 10 0
BBX 10 11 0 -2
BITMAP
0000
0000
0000
6180
6180
6180
6180
7180
7EC0
6000
6000
ENDCHAR
STARTCHAR paragraph
ENCODING 182
SWIDTH 833 0
DWIDTH 10 0
BBX 10 11 0 -2
BITMAP
3F80
6D80
6D80
3D80
0D80
0D80
0D80
0D80
0D80
0000
0000
ENDCHAR
STARTCHAR periodcentered
ENCODING 183
SWIDTH 833 0
DWIDTH 10 0
BBX 10 11 0 -2
BITMAP
0000
0000
0000
0000
0C00
0000
0000
0000
0000
0000
0000
ENDCHAR
STARTCHAR ordmasculine
ENCODING 186
SWIDTH 833 0
DWIDTH 10 0
BBX 10 11 0 -2
BITMAP
3800
6C00
6C00
3800
0000
7C00
0000
0000
0000
0000
0000
ENDCHAR
STARTCHAR guillemotright
ENCODING 187
SWIDTH 833 0
DWIDTH 10 0
BBX 10 11 0 -2
BITMAP
0000
0000
6600
3300
1980
3300
6600
0000
0000
0000
0000
ENDCHAR
STARTCHAR onequarter
ENCODING 188
SWIDTH 833 0
DWIDTH 10 0
BBX 10 11 0 -2
BITMAP
3040
70C0
3180
7B00
06C0
0DC0
1AC0
33C0
60C0
4000
0000
ENDCHAR
STARTCHAR onehalf
ENCODING 189
SWIDTH 833 0
DWIDTH 10 0
BBX 10 11 0 -2
BITMAP
3040
70C0
3180
7B00
0600
0DC0
1AC0
3180
63C0
4000
0000
ENDCHAR
STARTCHAR questiondown
ENCODING 191
SWIDTH 833 0
DWIDTH 10 0
BBX 10 11 0 -2
BITMAP
0C00
0C00
0000
0C00
1800
3000
6180
6380
3F00
0000
0000
ENDCHAR
STARTCHAR Adieresis
ENCODING 196
SWIDTH 833 0
DWIDTH 10 0
BBX 10 11 0 -2
BITMAP
6180
1E00
3F00
6180
6180
7F80
6180
6180
6180
0000
0000
ENDCHAR
STARTCHAR Aring
ENCODING 197
SWIDTH 833 0
DWIDTH 10 0
BBX 10 11 0 -2
BITMAP
1E00
1200
3F00
6180
6180
7F80
6180
6180
6180
0000
0000
ENDCHAR
STARTCHAR AE
ENCODING 198
SWIDTH 833 0
DWIDTH 10 0
BBX 10 11 0 -2
BITMAP
1FC0
2600
6600
6600
7F80
6600
6600
6600
67C0
0000
0000
ENDCHAR
STARTCHAR Ccedilla
ENCODING 199
SWIDTH 833 0
DWIDTH 10 0
BBX 10 11 0 -2
BITMAP
1F00
3180
6000
6000
6000
6000
6000
3180
1F00
0C00
1800
ENDCHAR
STARTCHAR Eacute
ENCODING 201
SWIDTH 833 0
DWIDTH 10 0
BBX 10 11 0 -2
BITMAP
0700
7F80
3080
3200
3E00
3200
3000
3080
7F80
0000
0000
ENDCHAR
STARTCHAR Ntilde
ENCODING 209
SWIDTH 833 0
DWIDTH 10 0
BBX 10 11 0 -2
BITMAP
3B00
6E80
7180
7980
6D80
6780
6380
6180
6180
0000
0000
ENDCHAR
STARTCHAR Odieresis
ENCODING 214
SWIDTH 833 0
DWIDTH 10 0
BBX 10 11 0 -2
BITMAP
3180
1F00
3180
60C0
60C0
60C0
60C0
3180
1F00
0000
0000
ENDCHAR
STARTCHAR Udieresis
ENCODING 220
SWIDTH 833 0
DWIDTH 10 0
BBX 10 11 0 -2
BITMAP
3300
4080
6180
6180
6180
6180
6180
7380
3F00
0000
0000
ENDCHAR
STARTCHAR germandbls
ENCODING 223
SWIDTH 833 0
DWIDTH 10 0
BBX 10 11 0 -2
BITMAP
0000
1F00
3180
3180
3700
3180
3180
3180
7700
0000
0000
ENDCHAR
STARTCHAR agrave
ENCODING 224
SWIDTH 833 0
DWIDTH 10 0
BBX 10 11 0 -2
BITMAP
1C00
0600
0000
1F00
0180
3D80
6380
6380
3DC0
0000
0000
ENDCHAR
STARTCHAR aacute
ENCODING 225
SWIDTH 833 0
DWIDTH 10 0
BBX 10 11 0 -2
BITMAP
0700
0C00
0000
1F00
0180
3D80
6380
6380
3DC0
0000
0000
ENDCHAR
STARTCHAR acircumflex
ENCODING 226
SWIDTH 833 0
DWIDTH 10 0
BBX 10 11 0 -2
BITMAP
1E00
3300
0000
1F00
0180
3D80
6380
6380
3DC0
0000
0000
ENDCHAR
STARTCHAR adieresis
ENCODING 228
SWIDTH 833 0
DWIDTH 10 0
BBX 10 11 0 -2
BITMAP
1B00
1B00
0000
1F00
0180
3D80
6380
6380
3DC0
0000
0000
ENDCHAR
STARTCHAR aring
ENCODING 229
SWIDTH 833 0
DWIDTH 10 0
BBX 10 11 0 -2
BITMAP
0E00
0A00
0E00
1F00
0180
3D80
6380
6380
3DC0
0000
0000
ENDCHAR
STARTCHAR ae
ENCODING 230
SWIDTH 833 0
DWIDTH 10 0
BBX 10 11 0 -2
BITMAP
0000
0000
0000
3B80
0640
3FC0
6600
6600
3F80
0000
0000
ENDCHAR
STARTCHAR ccedilla
ENCODING 231
SWIDTH 833 0
DWIDTH 10 0
BBX 10 11 0 -2
BITMAP
0000
0000
0000
3F00
7180
6000
6000
7180
3F00
0C00
1800
ENDCHAR
STARTCHAR egrave
ENCODING 232
SWIDTH 833 0
DWIDTH 10 0
BBX 10 11 0 -2
BITMAP
1C00
0600
0000
3F00
6180
6180
7F80
6000
3F00
0000
0000
ENDCHAR
STARTCHAR eacute
ENCODING 233
SWIDTH 833 0
DWIDTH 10 0
BBX 10 11 0 -2
BITMAP
0700
0C00
0000
3F00
6180
6180
7F80
6000
3F00
0000
0000
ENDCHAR
STARTCHAR ecircumflex
ENCODING 234
SWIDTH 833 0
DWIDTH 10 0
BBX 10 11 0 -2
BITMAP
1E00
3300
0000
3F00
6180
6180
7F80
6000
3F00
0000
0000
ENDCHAR
STARTCHAR edieresis
ENCODING 235
SWIDTH 833 0
DWIDTH 10 0
BBX 10 11 0 -2
BITMAP
3300
3300
0000
3F00
6180
6180
7F80
6000
3F00
0000
0000
ENDCHAR
STARTCHAR igrave
ENCODING 236
SWIDTH 833 0
DWIDTH 10 0
BBX 10 11 0 -2
BITMAP
3800
0C00
0000
3C00
0C00
0C00
0C00
0C00
3F00
0000
0000
ENDCHAR
STARTCHAR iacute
ENCODING 237
SWIDTH 833 0
DWIDTH 10 0
BBX 10 11 0 -2
BITMAP
0700
0C00
0000
3C00
0C00
0C00
0C00
0C00
3F00
0000
0000
ENDCHAR
STARTCHAR icircumflex
ENCODING 238
SWIDTH 833 0
DWIDTH 10 0
BBX 10 11 0 -2
BITMAP
1E00
3300
0000
3C00
0C00
0C00
0C00
0C00
3F00
0000
0000
ENDCHAR
STARTCHAR idieresis
ENCODING 239
SWIDTH 833 0
DWIDTH 10 0
BBX 10 11 0 -2
BITMAP
3300
3300
0000
3C00
0C00
0C00
0C00
0C00
3F00
0000
0000
ENDCHAR
STARTCHAR ntilde
ENCODING 241
SWIDTH 833 0
DWIDTH 10 0
BBX 10 11 0 -2
BITMAP
3B00
6E00
0000
EF00
7380
6180
6180
6180
6180
0000
0000
ENDCHAR
STARTCHAR ograve
ENCODING 242
SWIDTH 833 0
DWIDTH 10 0
BBX 10 11 0 -2
BITMAP
3800
0C00
0000
3F00
7380
6180
6180
7380
3F00
0000
0000
ENDCHAR
STARTCHAR oacute
ENCODING 243
SWIDTH 833 0
DWIDTH 10 0
BBX 10 11 0 -2
BITMAP
0700
0C00
0000
3F00
7380
6180
6180
7380
3F00
0000
0000
ENDCHAR
STARTCHAR ocircumflex
ENCODING 244
SWIDTH 833 0
DWIDTH 10 0
BBX 10 11 0 -2
BITMAP
1E00
3300
0000
3F00
7380
6180
6180
7380
3F00
0000
0000
ENDCHAR
STARTCHAR odieresis
ENCODING 246
SWIDTH 833 0
DWIDTH 10 0
BBX 10 11 0 -2
BITMAP
3300
3300
0000
3F00
7380
6180
6180
7380
3F00
0000
0000
ENDCHAR
STARTCHAR divide
ENCODING 247
SWIDTH 833 0
DWIDTH 10 0
BBX 10 11 0 -2
BITMAP
0000
0C00
0C00
0000
3F00
0000
0C00
0C00
0000
0000
0000
ENDCHAR
STARTCHAR ugrave
ENCODING 249
SWIDTH 833 0
DWIDTH 10 0
BBX 10 11 0 -2
BITMAP
3800
0C00
0000
6180
6180
6180
6180
7380
3DC0
0000
0000
ENDCHAR
STARTCHAR uacute
ENCODING 250
SWIDTH 833 0
DWIDTH 10 0
BBX 10 11 0 -2
BITMAP
0700
0C00
0000
6180
6180
6180
6180
7380
3DC0
0000
0000
ENDCHAR
STARTCHAR ucircumflex
ENCODING 251
SWIDTH 833 0
DWIDTH 10 0
BBX 10 11 0 -2
BITMAP
1E00
3300
0000
6180
6180
6180
6180
7380
3DC0
0000
0000
ENDCHAR
STARTCHAR udieresis
ENCODING 252
SWIDTH 833 0
DWIDTH 10 0
BBX 10 11 0 -2
BITMAP
3300
3300
0000
6180
6180
6180
6180
7380
3DC0
0000
0000
ENDCHAR
STARTCHAR ydieresis
ENCODING 255
SWIDTH 833 0
DWIDTH 10 0
BBX 10 11 0 -2
BITMAP
3300
3300
0000
6180
6180
6180
7380
3F80
0180
3F00
0000
ENDCHAR
STARTCHAR florin
ENCODING 402
SWIDTH 833 0
DWIDTH 10 0
BBX 10 11 0 -2
BITMAP
0700
0C80
0C00
0C00
1E00
0C00
0C00
0C00
0C00
6C00
3800
ENDCHAR
STARTCHAR Gamma
ENCODING 915
SWIDTH 833 0
DWIDTH 10 0
BBX 10 11 0 -2
BITMAP
7F80
3080
3000
3000
3000
3000
3000
3000
7800
0000
0000
ENDCHAR
STARTCHAR Theta
ENCODING 920
SWIDTH 833 0
DWIDTH 10 0
BBX 10 11 0 -2
BITMAP
1F00
3180
60C0
60C0
7FC0
60C0
60C0
3180
1F00
0000
0000
ENDCHAR
STARTCHAR Sigma
ENCODING 931
SWIDTH 833 0
DWIDTH 10 0
BBX 10 11 0 -2
BITMAP
7F80
6080
3000
1800
0C00
1800
3000
6080
7F80
0000
0000
ENDCHAR
STARTCHAR Phi
ENCODING 934
SWIDTH 833 0
DWIDTH 10 0
BBX 10 11 0 -2
BITMAP
1E00
0C00
3F00
6D80
6D80
6D80
3F00
0C00
1E00
0000
0000
ENDCHAR
STARTCHAR uni03A9
ENCODING 937
SWIDTH 833 0
DWIDTH 10 0
BBX 10 11 0 -2
BITMAP
1F00
3180
60C0
60C0
60C0
60C0
3180
3B80
7BC0
0000
0000
ENDCHAR
STARTCHAR alpha
ENCODING 945
SWIDTH 833 0
DWIDTH 10 0
BBX 10 11 0 -2
BITMAP
0000
0000
0000
3DC0
6780
6300
6300
6780
3DC0
0000
0000
ENDCHAR
STARTCHAR delta
ENCODING 948
SWIDTH 833 0
DWIDTH 10 0
BBX 10 11 0 -2
BITMAP
0F00
1C80
0E00
3F00
7380
6180
6180
7380
3F00
0000
0000
ENDCHAR
STARTCHAR epsilon
ENCODING 949
SWIDTH 833 0
DWIDTH 10 0
BBX 10 11 0 -2
BITMAP
0E00
1800
3000
3000
3C00
3000
3000
1800
0E00
0000
0000
ENDCHAR
STARTCHAR pi
ENCODING 960
SWIDTH 833 0
DWIDTH 10 0
BBX 10 11 0 -2
BITMAP
0000
0000
0000
7FC0
3180
3180
3180
3180
3180
0000
0000
ENDCHAR
STARTCHAR sigma
ENCODING 963
SWIDTH 833 0
DWIDTH 10 0
BBX 10 11 0 -2
BITMAP
0000
0000
0000
3F80
7300
6180
6180
7380
3F00
0000
0000
ENDCHAR
STARTCHAR tau
ENCODING 964
SWIDTH 833 0
DWIDTH 10 0
BBX 10 11 0 -2
BITMAP
0000
0000
0000
1D00
2E00
0C00
0C00
0C00
0C00
0000
0000
ENDCHAR
STARTCHAR phi
ENCODING 966
SWIDTH 833 0
DWIDTH 10 0
BBX 10 11 0 -2
BITMAP
0100
0200
3F00
7780
6580
6980
7B80
3F00
1000
2000
0000
ENDCHAR
STARTCHAR bullet
ENCODING 8226
SWIDTH 833 0
DWIDTH 10 0
BBX 10 11 0 -2
BITMAP
0000
0000
1E00
3F00
3F00
3F00
1E00
0000
0000
0000
0000
ENDCHAR
STARTCHAR exclamdbl
ENCODING 8252
SWIDTH 833 0
DWIDTH 10 0
BBX 10 11 0 -2
BITMAP
3180
7BC0
7BC0
7BC0
3180
3180
0000
3180
3180
0000
0000
ENDCHAR
STARTCHAR uni207F
ENCODING 8319
SWIDTH 833 0
DWIDTH 10 0
BBX 10 11 0 -2
BITMAP
3700
3980
3180
3180
3180
0000
0000
0000
0000
0000
0000
ENDCHAR
STARTCHAR peseta
ENCODING 8359
SWIDTH 833 0
DWIDTH 10 0
BBX 10 11 0 -2
BITMAP
FC00
6600
6600
6600
7C00
6600
6F00
6600
F680
0300
0000
ENDCHAR
STARTCHAR arrowleft
ENCODING 8592
SWIDTH 833 0
DWIDTH 10 0
BBX 10 11 0 -2
BITMAP
0000
1000
3000
7000
FFC0
FFC0
7000
3000
1000
0000
0000
ENDCHAR
STARTCHAR arrowup
ENCODING 8593
SWIDTH 833 0
DWIDTH 10 0
BBX 10 11 0 -2
BITMAP
0C00
1E00
3F00
7F80
0C00
0C00
0C00
0C00
0C00
0C00
0C00
ENDCHAR
STARTCHAR arrowright
ENCODING 8594
SWIDTH 833 0
DWIDTH 10 0
BBX 10 11 0 -2
BITMAP
0000
0200
0300
0380
FFC0
FFC0
0380
0300
0200
0000
0000
ENDCHAR
STARTCHAR arrowdown
ENCODING 8595
SWIDTH 833 0
DWIDTH 10 0
BBX 10 11 0 -2
BITMAP
0C00
0C00
0C00
0C00
0C00
0C00
0C00
7F80
3F00
1E00
0C00
ENDCHAR
STARTCHAR arrowboth
ENCODING 8596
SWIDTH 833 0
DWIDTH 10 0
BBX 10 11 0 -2
BITMAP
0000
0000
2100
6180
FFC0
FFC0
6180
2100
0000
0000
0000
ENDCHAR
STARTCHAR arrowupdn
ENCODING 8597
SWIDTH 833 0
DWIDTH 10 0
BBX 10 11 0 -2
BITMAP
0000
0C00
1E00
3F00
0C00
0C00
0C00
3F00
1E00
0C00
0000
ENDCHAR
STARTCHAR arrowupdnbse
ENCODING 8616
SWIDTH 833 0
DWIDTH 10 0
BBX 10 11 0 -2
BITMAP
0C00
1E00
3F00
0C00
0C00
0C00
0C00
3F00
1E00
0C00
3F00
ENDCHAR
STARTCHAR uni2219
ENCODING 8729
SWIDTH 833 0
DWIDTH 10 0
BBX 10 11 0 -2
BITMAP
0000
0000
0000
0000
0C00
0C00
0000
0000
0000
0000
0000
ENDCHAR
STARTCHAR radical
ENCODING 8730
SWIDTH 833 0
DWIDTH 10 0
BBX 10 11 0 -2
BITMAP
07C0
0600
0600
0600
0600
0600
2600
1600
0E00
0600
0200
ENDCHAR
STARTCHAR infinity
ENCODING 8734
SWIDTH 833 0
DWIDTH 10 0
BBX 10 11 0 -2
BITMAP
0000
0000
0000
3B80
6EC0
4440
4440
6EC0
3B80
0000
0000
ENDCHAR
STARTCHAR orthogonal
ENCODING 8735
SWIDTH 833 0
DWIDTH 10 0
BBX 10 11 0 -2
BITMAP
0000
3000
3000
3000
3FC0
3FC0
0000
0000
0000
0000
0000
ENDCHAR
STARTCHAR intersection
ENCODING 8745
SWIDTH 833 0
DWIDTH 10 0
BBX 10 11 0 -2
BITMAP
1E00
3300
6180
6180
6180
6180
6180
6180
6180
0000
0000
ENDCHAR
STARTCHAR approxequal
ENCODING 8776
SWIDTH 833 0
DWIDTH 10 0
BBX 10 11 0 -2
BITMAP
0000
0000
1800
2D00
0600
1800
2D00
0600
0000
0000
0000
ENDCHAR
STARTCHAR equivalence
ENCODING 8801
SWIDTH 833 0
DWIDTH 10 0
BBX 10 11 0 -2
BITMAP
0000
0000
7F80
0000
7F80
0000
7F80
0000
0000
0000
0000
ENDCHAR
STARTCHAR lessequal
ENCODING 8804
SWIDTH 833 0
DWIDTH 10 0
BBX 10 11 0 -2
BITMAP
0000
0300
0600
0C00
1800
3000
1800
0C00
0600
0300
3F00
ENDCHAR
STARTCHAR greaterequal
ENCODING 8805
SWIDTH 833 0
DWIDTH 10 0
BBX 10 11 0 -2
BITMAP
0000
3000
1800
0C00
0600
0300
0600
0C00
1800
3000
3E00
ENDCHAR
STARTCHAR house
ENCODING 8962
SWIDTH 833 0
DWIDTH 10 0
BBX 10 11 0 -2
BITMAP
0000
0C00
1E00
3300
6180
6180
6180
6180
7F80
0000
0000
ENDCHAR
STARTCHAR revlogicalnot
ENCODING 8976
SWIDTH 833 0
DWIDTH 10 0
BBX 10 11 0 -2
BITMAP
0000
0000
0000
0000
3FC0
3FC0
3000
3000
3000
0000
0000
ENDCHAR
STARTCHAR integraltp
ENCODING 8992
SWIDTH 833 0
DWIDTH 10 0
BBX 10 11 0 -2
BITMAP
0000
0600
0F00
0D00
0C00
0C00
0C00
0C00
0C00
0C00
0C00
ENDCHAR
STARTCHAR integralbt
ENCODING 8993
SWIDTH 833 0
DWIDTH 10 0
BBX 10 11 0 -2
BITMAP
0C00
0C00
0C00
0C00
0C00
0C00
0C00
2C00
3C00
1800
0000
ENDCHAR
STARTCHAR SF100000
ENCODING 9472
SWIDTH 833 0
DWIDTH 10 0
BBX 10 11 0 -2
BITMAP
0000
0000
0000
0000
FFC0
FFC0
0000
0000
0000
0000
0000
ENDCHAR
STARTCHAR SF110000
ENCODING 9474
SWIDTH 833 0
DWIDTH 10 0
BBX 10 11 0 -2
BITMAP
0C00
0C00
0C00
0C00
0C00
0C00
0C00
0C00
0C00
0C00
0C00
ENDCHAR
STARTCHAR SF010000
ENCODING 9484
SWIDTH 833 0
DWIDTH 10 0
BBX 10 11 0 -2
BITMAP
0000
0000
0000
0000
0FC0
0FC0
0C00
0C00
0C00
0C00
0C00
ENDCHAR
STARTCHAR SF030000
ENCODING 9488
SWIDTH 833 0
DWIDTH 10 0
BBX 10 11 0 -2
BITMAP
0000
0000
0000
0000
FC00
FC00
0C00
0C00
0C00
0C00
0C00
ENDCHAR
STARTCHAR SF020000
ENCODING 9492
SWIDTH 833 0
DWIDTH 10 0
BBX 10 11 0 -2
BITMAP
0C00
0C00
0C00
0C00
0FC0
0FC0
0000
0000
0000
0000
0000
ENDCHAR
STARTCHAR SF040000
ENCODING 9496
SWIDTH 833 0
DWIDTH 10 0
BBX 10 11 0 -2
BITMAP
0C00
0C00
0C00
0C00
FC00
FC00
0000
0000
0000
0000
0000
ENDCHAR
STARTCHAR SF080000
ENCODING 9500
SWIDTH 833 0
DWIDTH 10 0
BBX 10 11 0 -2
BITMAP
0C00
0C00
0C00
0C00
0FC0
0FC0
0C00
0C00
0C00
0C00
0C00
ENDCHAR
STARTCHAR SF090000
ENCODING 9508
SWIDTH 833 0
DWIDTH 10 0
BBX 10 11 0 -2
BITMAP
0C00
0C00
0C00
0C00
FC00
FC00
0C00
0C00
0C00
0C00
0C00
ENDCHAR
STARTCHAR SF060000
ENCODING 9516
SWIDTH 833 0
DWIDTH 10 0
BBX 10 11 0 -2
BITMAP
0000
0000
0000
0000
FFC0
FFC0
0C00
0C00
0C00
0C00
0C00
ENDCHAR
STARTCHAR SF070000
ENCODING 9524
SWIDTH 833 0
DWIDTH 10 0
BBX 10 11 0 -2
BITMAP
0C00
0C00
0C00
0C00
FFC0
FFC0
0000
0000
0000
0000
0000
ENDCHAR
STARTCHAR SF050000
ENCODING 9532
SWIDTH 833 0
DWIDTH 10 0
BBX 10 11 0 -2
BITMAP
0C00
0C00
0C00
0C00
FFC0
FFC0
0C00
0C00
0C00
0C00
0C00
ENDCHAR
STARTCHAR SF430000
ENCODING 9552
SWIDTH 833 0
DWIDTH 10 0
BBX 10 11 0 -2
BITMAP
0000
0000
FFC0
FFC0
0000
0000
FFC0
FFC0
0000
0000
0000
ENDCHAR
STARTCHAR SF240000
ENCODING 9553
SWIDTH 833 0
DWIDTH 10 0
BBX 10 11 0 -2
BITMAP
3300
3300
3300
3300
3300
3300
3300
3300
3300
3300
3300
ENDCHAR
STARTCHAR SF510000
ENCODING 9554
SWIDTH 833 0
DWIDTH 10 0
BBX 10 11 0 -2
BITMAP
0000
0000
0FC0
0FC0
0C00
0C00
0FC0
0FC0
0C00
0C00
0C00
ENDCHAR
STARTCHAR SF520000
ENCODING 9555
SWIDTH 833 0
DWIDTH 10 0
BBX 10 11 0 -2
BITMAP
0000
0000
0000
0000
3FC0
3FC0
3300
3300
3300
3300
3300
ENDCHAR
STARTCHAR SF390000
ENCODING 9556
SWIDTH 833 0
DWIDTH 10 0
BBX 10 11 0 -2
BITMAP
0000
0000
3FC0
3FC0
3000
3000
33C0
33C0
3300
3300
3300
ENDCHAR
STARTCHAR SF220000
ENCODING 9557
SWIDTH 833 0
DWIDTH 10 0
BBX 10 11 0 -2
BITMAP
0000
0000
FC00
FC00
0C00
0C00
FC00
FC00
0C00
0C00
0C00
ENDCHAR
STARTCHAR SF210000
ENCODING 9558
SWIDTH 833 0
DWIDTH 10 0
BBX 10 11 0 -2
BITMAP
0000
0000
0000
0000
FF00
FF00
3300
3300
3300
3300
3300
ENDCHAR
STARTCHAR SF250000
ENCODING 9559
SWIDTH 833 0
DWIDTH 10 0
BBX 10 11 0 -2
BITMAP
0000
0000
FF00
FF00
0300
0300
F300
F300
3300
3300
3300
ENDCHAR
STARTCHAR SF500000
ENCODING 9560
SWIDTH 833 0
DWIDTH 10 0
BBX 10 11 0 -2
BITMAP
0C00
0C00
0FC0
0FC0
0C00
0C00
0FC0
0FC0
0000
0000
0000
ENDCHAR
STARTCHAR SF490000
ENCODING 9561
SWIDTH 833 0
DWIDTH 10 0
BBX 10 11 0 -2
BITMAP
3300
3300
3300
3300
3FC0
3FC0
0000
0000
0000
0000
0000
ENDCHAR
STARTCHAR SF380000
ENCODING 9562
SWIDTH 833 0
DWIDTH 10 0
BBX 10 11 0 -2
BITMAP
3300
3300
33C0
33C0
3000
3000
3FC0
3FC0
0000
0000
0000
ENDCHAR
STARTCHAR SF280000
ENCODING 9563
SWIDTH 833 0
DWIDTH 10 0
BBX 10 11 0 -2
BITMAP
0C00
0C00
FC00
FC00
0C00
0C00
FC00
FC00
0000
0000
0000
ENDCHAR
STARTCHAR SF270000
ENCODING 9564
SWIDTH 833 0
DWIDTH 10 0
BBX 10 11 0 -2
BITMAP
3300
3300
3300
3300
FF00
FF00
0000
0000
0000
0000
0000
ENDCHAR
STARTCHAR SF260000
ENCODING 9565
SWIDTH 833 0
DWIDTH 10 0
BBX 10 11 0 -2
BITMAP
3300
3300
F300
F300
0300
0300
FF00
FF00
0000
0000
0000
ENDCHAR
STARTCHAR SF360000
ENCODING 9566
SWIDTH 833 0
DWIDTH 10 0
BBX 10 11 0 -2
BITMAP
0C00
0C00
0FC0
0FC0
0C00
0C00
0FC0
0FC0
0C00
0C00
0C00
ENDCHAR
STARTCHAR SF370000
ENCODING 9567
SWIDTH 833 0
DWIDTH 10 0
BBX 10 11 0 -2
BITMAP
3300
3300
3300
3300
33C0
33C0
3300
3300
3300
3300
3300
ENDCHAR
STARTCHAR SF420000
ENCODING 9568
SWIDTH 833 0
DWIDTH 10 0
BBX 10 11 0 -2
BITMAP
3300
3300
33C0
33C0
3000
3000
33C0
33C0
3300
3300
3300
ENDCHAR
STARTCHAR SF190000
ENCODING 9569
SWIDTH 833 0
DWIDTH 10 0
BBX 10 11 0 -2
BITMAP
0C00
0C00
FC00
FC00
0C00
0C00
FC00
FC00
0C00
0C00
0C00
ENDCHAR
STARTCHAR SF200000
ENCODING 9570
SWIDTH 833 0
DWIDTH 10 0
BBX 10 11 0 -2
BITMAP
3300
3300
3300
3300
F300
F300
3300
3300
3300
3300
3300
ENDCHAR
STARTCHAR SF230000
ENCODING 9571
SWIDTH 833 0
DWIDTH 10 0
BBX 10 11 0 -2
BITMAP
3300
3300
F300
F300
0300
0300
F300
F300
3300
3300
3300
ENDCHAR
STARTCHAR SF470000
ENCODING 9572
SWIDTH 833 0
DWIDTH 10 0
BBX 10 11 0 -2
BITMAP
0000
0000
FFC0
FFC0
0000
0000
FFC0
FFC0
0C00
0C00
0C00
ENDCHAR
STARTCHAR SF480000
ENCODING 9573
SWIDTH 833 0
DWIDTH 10 0
BBX 10 11 0 -2
BITMAP
0000
0000
0000
0000
FFC0
FFC0
3300
3300
3300
3300
3300
ENDCHAR
STARTCHAR SF410000
ENCODING 9574
SWIDTH 833 0
DWIDTH 10 0
BBX 10 11 0 -2
BITMAP
0000
0000
FFC0
FFC0
0000
0000
F3C0
F3C0
3300
3300
3300
ENDCHAR
STARTCHAR SF450000
ENCODING 9575
SWIDTH 833 0
DWIDTH 10 0
BBX 10 11 0 -2
BITMAP
0C00
0C00
FFC0
FFC0
0000
0000
FFC0
FFC0
0000
0000
0000
ENDCHAR
STARTCHAR SF460000
ENCODING 9576
SWIDTH 833 0
DWIDTH 10 0
BBX 10 11 0 -2
BITMAP
3300
3300
3300
3300
FFC0
FFC0
0000
0000
0000
0000
0000
ENDCHAR
STARTCHAR SF400000
ENCODING 9577
SWIDTH 833 0
DWIDTH 10 0
BBX 10 11 0 -2
BITMAP
3300
3300
F3C0
F3C0
0000
0000
FFC0
FFC0
0000
0000
0000
ENDCHAR
STARTCHAR SF540000
ENCODING 9578
SWIDTH 833 0
DWIDTH 10 0
BBX 10 11 0 -2
BITMAP
0C00
0C00
FFC0
FFC0
0C00
0C00
FFC0
FFC0
0C00
0C00
0C00
ENDCHAR
STARTCHAR SF530000
ENCODING 9579
SWIDTH 833 0
DWIDTH 10 0
BBX 10 11 0 -2
BITMAP
3300
3300
3300
3300
FFC0
FFC0
3300
3300
3300
3300
3300
ENDCHAR
STARTCHAR SF440000
ENCODING 9580
SWIDTH 833 0
DWIDTH 10 0
BBX 10 11 0 -2
BITMAP
3300
3300
F3C0
F3C0
0000
0000
F3C0
F3C0
3300
3300
3300
ENDCHAR
STARTCHAR upblock
ENCODING 9600
SWIDTH 833 0
DWIDTH 10 0
BBX 10 11 0 -2
BITMAP
FFC0
FFC0
FFC0
FFC0
FFC0
0000
0000
0000
0000
0000
0000
ENDCHAR
STARTCHAR dnblock
ENCODING 9604
SWIDTH 833 0
DWIDTH 10 0
BBX 10 11 0 -2
BITMAP
0000
0000
0000
0000
0000
FFC0
FFC0
FFC0
FFC0
FFC0
FFC0
ENDCHAR
STARTCHAR block
ENCODING 9608
SWIDTH 833 0
DWIDTH 10 0
BBX 10 11 0 -2
BITMAP
FFC0
FFC0
FFC0
FFC0
FFC0
FFC0
FFC0
FFC0
FFC0
FFC0
FFC0
ENDCHAR
STARTCHAR lfblock
ENCODING 9612
SWIDTH 833 0
DWIDTH 10 0
BBX 10 11 0 -2
BITMAP
F800
F800
F800
F800
F800
F800
F800
F800
F800
F800
F800
ENDCHAR
STARTCHAR rtblock
ENCODING 9616
SWIDTH 833 0
DWIDTH 10 0
BBX 10 11 0 -2
BITMAP
07C0
07C0
07C0
07C0
07C0
07C0
07C0
07C0
07C0
07C0
07C0
ENDCHAR
STARTCHAR ltshade
ENCODING 9617
SWIDTH 833 0
DWIDTH 10 0
BBX 10 11 0 -2
BITMAP
8400
2100
0000
8400
1080
8400
2100
0000
8400
1080
0000
ENDCHAR
STARTCHAR shade
ENCODING 9618
SWIDTH 833 0
DWIDTH 10 0
BBX 10 11 0 -2
BITMAP
AA80
5540
5540
AA80
5540
AA80
5540
5540
AA80
5540
5540
ENDCHAR
STARTCHAR dkshade
ENCODING 9619
SWIDTH 833 0
DWIDTH 10 0
BBX 10 11 0 -2
BITMAP
7BC0
DEC0
FFC0
7BC0
EF40
7BC0
DEC0
FFC0
7BC0
EF40
FFC0
ENDCHAR
STARTCHAR filledbox
ENCODING 9632
SWIDTH 833 0
DWIDTH 10 0
BBX 10 11 0 -2
BITMAP
0000
3F00
3F00
3F00
3F00
3F00
3F00
3F00
0000
0000
0000
ENDCHAR
STARTCHAR filledrect
ENCODING 9644
SWIDTH 833 0
DWIDTH 10 0
BBX 10 11 0 -2
BITMAP
0000
0000
0000
0000
0000
0000
0000
0000
0000
FFC0
FFC0
ENDCHAR
STARTCHAR triagup
ENCODING 9650
SWIDTH 833 0
DWIDTH 10 0
BBX 10 11 0 -2
BITMAP
0000
0C00
0C00
1E00
1E00
3F00
3F00
7F80
7F80
0000
0000
ENDCHAR
STARTCHAR triagrt
ENCODING 9658
SWIDTH 833 0
DWIDTH 10 0
BBX 10 11 0 -2
BITMAP
0000
6000
7800
7E00
7F80
7F80
7E00
7800
6000
0000
0000
ENDCHAR
STARTCHAR triagdn
ENCODING 9660
SWIDTH 833 0
DWIDTH 10 0
BBX 10 11 0 -2
BITMAP
0000
7F80
7F80
3F00
3F00
1E00
1E00
0C00
0C00
0000
0000
ENDCHAR
STARTCHAR triaglf
ENCODING 9668
SWIDTH 833 0
DWIDTH 10 0
BBX 10 11 0 -2
BITMAP
0000
0180
0780
1F80
7F80
7F80
1F80
0780
0180
0000
0000
ENDCHAR
STARTCHAR circle
ENCODING 9675
SWIDTH 833 0
DWIDTH 10 0
BBX 10 11 0 -2
BITMAP
0000
1E00
2100
4080
4080
4080
2100
1E00
0000
0000
0000
ENDCHAR
STARTCHAR invbullet
ENCODING 9688
SWIDTH 833 0
DWIDTH 10 0
BBX 10 11 0 -2
BITMAP
FFC0
FFC0
E1C0
C0C0
C0C0
C0C0
E1C0
FFC0
FFC0
FFC0
FFC0
ENDCHAR
STARTCHAR invcircle
ENCODING 9689
SWIDTH 833 0
DWIDTH 10 0
BBX 10 11 0 -2
BITMAP
FFC0
E1C0
DEC0
BF40
BF40
BF40
DEC0
E1C0
FFC0
FFC0
FFC0
ENDCHAR
STARTCHAR smileface
ENCODING 9786
SWIDTH 833 0
DWIDTH 10 0
BBX 10 11 0 -2
BITMAP
1F00
2080
4A40
4040
5140
71C0
4E40
2080
1F00
0000
0000
ENDCHAR
STARTCHAR invsmileface
ENCODING 9787
SWIDTH 833 0
DWIDTH 10 0
BBX 10 11 0 -2
BITMAP
1F00
3F80
75C0
7FC0
6EC0
4E40
71C0
3F80
1F00
0000
0000
ENDCHAR
STARTCHAR sun
ENCODING 9788
SWIDTH 833 0
DWIDTH 10 0
BBX 10 11 0 -2
BITMAP
0000
0400
2480
1F00
1B00
71C0
1B00
1F00
2480
0400
0000
ENDCHAR
STARTCHAR female
ENCODING 9792
SWIDTH 833 0
DWIDTH 10 0
BBX 10 11 0 -2
BITMAP
1E00
3300
2100
2100
3300
1E00
0C00
1E00
1E00
0C00
0C00
ENDCHAR
STARTCHAR male
ENCODING 9794
SWIDTH 833 0
DWIDTH 10 0
BBX 10 11 0 -2
BITMAP
07C0
01C0
0340
3E40
6600
4200
4200
6600
3C00
0000
0000
ENDCHAR
STARTCHAR spade
ENCODING 9824
SWIDTH 833 0
DWIDTH 10 0
BBX 10 11 0 -2
BITMAP
0400
0E00
1F00
3F80
3F80
3F80
1B00
0400
0E00
0000
0000
ENDCHAR
STARTCHAR club
ENCODING 9827
SWIDTH 833 0
DWIDTH 10 0
BBX 10 11 0 -2
BITMAP
0400
0E00
0E00
0E00
3B80
7FC0
3580
0400
0E00
0000
0000
ENDCHAR
STARTCHAR heart
ENCODING 9829
SWIDTH 833 0
DWIDTH 10 0
BBX 10 11 0 -2
BITMAP
3B80
7FC0
7FC0
7FC0
7FC0
3F80
1F00
0E00
0400
0000
0000
ENDCHAR
STARTCHAR diamond
ENCODING 9830
SWIDTH 833 0
DWIDTH 10 0
BBX 10 11 0 -2
BITMAP
0400
0E00
1F00
3F80
7FC0
3F80
1F00
0E00
0400
0000
0000
ENDCHAR
STARTCHAR musicalnote
ENCODING 9834
SWIDTH 833 0
DWIDTH 10 0
BBX 10 11 0 -2
BITMAP
0000
0800
0C00
0E00
0A00
0A00
0800
3800
3000
0000
0000
ENDCHAR
STARTCHAR musicalnotedbl
ENCODING 9835
SWIDTH 833 0
DWIDTH 10 0
BBX 10 11 0 -2
BITMAP
0000
1000
1800
1400
1A00
1600
1200
7200
6E00
0C00
0000
ENDCHAR
STARTCHAR uni3044
ENCODING 12356
SWIDTH 833 0
DWIDTH 10 0
BBX 10 11 0 -2
BITMAP
0000
0000
0000
0000
0000
0000
0000
0000
0000
0000
0000
ENDCHAR
STARTCHAR uni3046
ENCODING 12358
SWIDTH 833 0
DWIDTH 10 0
BBX 10 11 0 -2
BITMAP
0000
0000
0000
0000
0000
0000
0000
0000
0000
0000
0000
ENDCHAR
STARTCHAR uni304B
ENCODING 12363
SWIDTH 833 0
DWIDTH 10 0
BBX 10 11 0 -2
BITMAP
0000
0000
0000
0000
0000
0000
0000
0000
0000
0000
0000
ENDCHAR
STARTCHAR uni3057
ENCODING 12375
SWIDTH 833 0
DWIDTH 10 0
BBX 10 11 0 -2
BITMAP
0000
0000
0000
0000
0000
0000
0000
0000
0000
0000
0000
ENDCHAR
STARTCHAR uni306E
ENCODING 12398
SWIDTH 833 0
DWIDTH 10 0
BBX 10 11 0 -2
BITMAP
0000
0000
0000
0000
0000
0000
0000
0000
0000
0000
0000
ENDCHAR
STARTCHAR uni3093
ENCODING 12435
SWIDTH 833 0
DWIDTH 10 0
BBX 10 11 0 -2
BITMAP
0000
0000
0000
0000
0000
0000
0000
0000
0000
0000
0000
ENDCHAR
STARTCHAR .notdef
ENCODING -1
SWIDTH 833 0
DWIDTH 10 0
BBX 9 9 1 0
BITMAP
FF80
8080
8080
8080
8080
8080
8080
8080
FF80
ENDCHAR
ENDFONT
