STARTFONT 2.1
FONT Bm437_HP_100LX_16x12-12px
SIZE 12 75 75
FONTBOUNDINGBOX 16 12 0 -2
STARTPROPERTIES 3
PIXEL_SIZE 12
FONT_ASCENT 10
FONT_DESCENT 2
ENDPROPERTIES
CHARS 295
STARTCHAR uni0000
ENCODING 0
SWIDTH 1333 0
DWIDTH 16 0
BBX 16 12 0 -2
BITMAP
0000
0000
0000
0000
0000
0000
0000
0000
0000
0000
0000
0000
ENDCHAR
STARTCHAR uni0001
ENCODING 1
SWIDTH 1333 0
DWIDTH 16 0
BBX 16 12 0 -2
BITMAP
07F8
0FFC
1806
3333
3003
3213
361B
11E3
1866
0FFC
07F8
0000
ENDCHAR
STARTCHAR uni0002
ENCODING 2
SWIDTH 1333 0
DWIDTH 16 0
BBX 16 12 0 -2
BITMAP
07F8
0FFC
1FFE
3CCF
3FFF
3DEF
39E7
3E1F
1F9E
0FFC
07F8
0000
ENDCHAR
STARTCHAR uni0003
ENCODING 3
SWIDTH 1333 0
DWIDTH 16 0
BBX 16 12 0 -2
BITMAP
0E38
1F7C
3FFE
3FFE
3FFE
3FFE
1FFC
0FF8
03E0
01C0
0080
0000
ENDCHAR
STARTCHAR uni0004
ENCODING 4
SWIDTH 1333 0
DWIDTH 16 0
BBX 16 12 0 -2
BITMAP
0080
01C0
03E0
07F0
0FF8
1FFC
0FF8
07F0
03E0
01C0
0080
0000
ENDCHAR
STARTCHAR uni0005
ENCODING 5
SWIDTH 1333 0
DWIDTH 16 0
BBX 16 12 0 -2
BITMAP
01E0
03F0
01E0
1DEE
3EDF
3FFF
3EDF
1CCE
01E0
07F8
07F8
0000
ENDCHAR
STARTCHAR uni0006
ENCODING 6
SWIDTH 1333 0
DWIDTH 16 0
BBX 16 12 0 -2
BITMAP
00C0
01E0
07F8
0FFC
1FFE
1FFE
1FFE
1F3E
0FFC
00C0
03F0
0000
ENDCHAR
STARTCHAR uni0007
ENCODING 7
SWIDTH 1333 0
DWIDTH 16 0
BBX 16 12 0 -2
BITMAP
0000
0000
0000
03C0
07E0
07E0
07E0
07E0
03C0
0000
0000
0000
ENDCHAR
STARTCHAR uni0008
ENCODING 8
SWIDTH 1333 0
DWIDTH 16 0
BBX 16 12 0 -2
BITMAP
FFFF
FFFF
FFFF
FC3F
F81F
F81F
F81F
F81F
FC3F
FFFF
FFFF
FFFF
ENDCHAR
STARTCHAR uni0009
ENCODING 9
SWIDTH 1333 0
DWIDTH 16 0
BBX 16 12 0 -2
BITMAP
0000
03C0
0FF0
0C30
1818
1818
1818
1818
0C30
0FF0
03C0
0000
ENDCHAR
STARTCHAR uni000A
ENCODING 10
SWIDTH 1333 0
DWIDTH 16 0
BBX 16 12 0 -2
BITMAP
FFFF
FC3F
F00F
F3CF
E7E7
E7E7
E7E7
E7E7
F3CF
F00F
FC3F
FFFF
ENDCHAR
STARTCHAR uni000B
ENCODING 11
SWIDTH 1333 0
DWIDTH 16 0
BBX 16 12 0 -2
BITMAP
00FC
003C
0074
00E4
0FC0
1FE0
3870
3030
3870
1FE0
0FC0
0000
ENDCHAR
STARTCHAR uni000C
ENCODING 12
SWIDTH 1333 0
DWIDTH 16 0
BBX 16 12 0 -2
BITMAP
07E0
0FF0
1C38
1818
1818
1C38
0FF0
07E0
0180
07E0
07E0
0180
ENDCHAR
STARTCHAR uni000D
ENCODING 13
SWIDTH 1333 0
DWIDTH 16 0
BBX 16 12 0 -2
BITMAP
00C0
00E0
00F0
00D8
00CC
00CC
00C0
03C0
07C0
07C0
0380
0000
ENDCHAR
STARTCHAR uni000E
ENCODING 14
SWIDTH 1333 0
DWIDTH 16 0
BBX 16 12 0 -2
BITMAP
0780
0678
0618
0798
0678
0618
0618
1E18
3E78
3EF8
1CF8
0070
ENDCHAR
STARTCHAR uni000F
ENCODING 15
SWIDTH 1333 0
DWIDTH 16 0
BBX 16 12 0 -2
BITMAP
00C0
18C6
0CCC
0738
0210
3C0F
3C0F
0210
0738
0CCC
18C6
00C0
ENDCHAR
STARTCHAR uni0010
ENCODING 16
SWIDTH 1333 0
DWIDTH 16 0
BBX 16 12 0 -2
BITMAP
6000
7800
7F00
7FE0
7FFC
7FFC
7FE0
7F00
7800
6000
0000
0000
ENDCHAR
STARTCHAR uni0011
ENCODING 17
SWIDTH 1333 0
DWIDTH 16 0
BBX 16 12 0 -2
BITMAP
000C
003C
01FC
0FFC
7FFC
7FFC
0FFC
01FC
003C
000C
0000
0000
ENDCHAR
STARTCHAR uni0012
ENCODING 18
SWIDTH 1333 0
DWIDTH 16 0
BBX 16 12 0 -2
BITMAP
0180
03C0
07E0
0FF0
0180
0180
0180
0FF0
07E0
03C0
0180
0000
ENDCHAR
STARTCHAR uni0013
ENCODING 19
SWIDTH 1333 0
DWIDTH 16 0
BBX 16 12 0 -2
BITMAP
0C18
1E3C
1E3C
1E3C
1E3C
0C18
0C18
0000
0C18
0C18
0000
0000
ENDCHAR
STARTCHAR uni0014
ENCODING 20
SWIDTH 1333 0
DWIDTH 16 0
BBX 16 12 0 -2
BITMAP
1FF8
3FF8
3198
3198
3F98
1F98
0198
0198
0198
0198
0000
0000
ENDCHAR
STARTCHAR uni0015
ENCODING 21
SWIDTH 1333 0
DWIDTH 16 0
BBX 16 12 0 -2
BITMAP
03F0
07F8
0318
07C0
0E60
0C30
0670
03E0
18C0
1FE0
0FC0
0000
ENDCHAR
STARTCHAR uni0016
ENCODING 22
SWIDTH 1333 0
DWIDTH 16 0
BBX 16 12 0 -2
BITMAP
0000
0000
0000
0000
0000
0000
0000
0000
0000
FFFF
FFFF
FFFF
ENDCHAR
STARTCHAR uni0017
ENCODING 23
SWIDTH 1333 0
DWIDTH 16 0
BBX 16 12 0 -2
BITMAP
0180
03C0
07E0
0FF0
0180
0180
0180
0FF0
07E0
03C0
0180
0FF0
ENDCHAR
STARTCHAR uni0018
ENCODING 24
SWIDTH 1333 0
DWIDTH 16 0
BBX 16 12 0 -2
BITMAP
0100
0380
07C0
0FE0
1FF0
3FF8
0380
0380
0380
0380
0380
0380
ENDCHAR
STARTCHAR uni0019
ENCODING 25
SWIDTH 1333 0
DWIDTH 16 0
BBX 16 12 0 -2
BITMAP
0380
0380
0380
0380
0380
0380
3FF8
1FF0
0FE0
07C0
0380
0100
ENDCHAR
STARTCHAR uni001A
ENCODING 26
SWIDTH 1333 0
DWIDTH 16 0
BBX 16 12 0 -2
BITMAP
0020
0030
0038
003C
FFFE
FFFF
FFFE
003C
0038
0030
0020
0000
ENDCHAR
STARTCHAR uni001B
ENCODING 27
SWIDTH 1333 0
DWIDTH 16 0
BBX 16 12 0 -2
BITMAP
0400
0C00
1C00
3C00
7FFF
FFFF
7FFF
3C00
1C00
0C00
0400
0000
ENDCHAR
STARTCHAR uni001C
ENCODING 28
SWIDTH 1333 0
DWIDTH 16 0
BBX 16 12 0 -2
BITMAP
0000
0E00
0E00
0E00
0FFF
0FFF
0FFF
0000
0000
0000
0000
0000
ENDCHAR
STARTCHAR uni001D
ENCODING 29
SWIDTH 1333 0
DWIDTH 16 0
BBX 16 12 0 -2
BITMAP
0000
0000
1008
300C
700E
FFFF
FFFF
700E
300C
1008
0000
0000
ENDCHAR
STARTCHAR uni001E
ENCODING 30
SWIDTH 1333 0
DWIDTH 16 0
BBX 16 12 0 -2
BITMAP
0000
0100
0380
0380
07C0
07C0
0FE0
0FE0
1FF0
1FF0
0000
0000
ENDCHAR
STARTCHAR uni001F
ENCODING 31
SWIDTH 1333 0
DWIDTH 16 0
BBX 16 12 0 -2
BITMAP
0000
1FF0
1FF0
0FE0
0FE0
07C0
07C0
0380
0380
0100
0000
0000
ENDCHAR
STARTCHAR space
ENCODING 32
SWIDTH 1333 0
DWIDTH 16 0
BBX 16 12 0 -2
BITMAP
0000
0000
0000
0000
0000
0000
0000
0000
0000
0000
0000
0000
ENDCHAR
STARTCHAR exclam
ENCODING 33
SWIDTH 1333 0
DWIDTH 16 0
BBX 16 12 0 -2
BITMAP
0300
0780
0780
0780
0300
0300
0300
0000
0300
0300
0000
0000
ENDCHAR
STARTCHAR quotedbl
ENCODING 34
SWIDTH 1333 0
DWIDTH 16 0
BBX 16 12 0 -2
BITMAP
1C38
1C38
0C30
0C30
0420
0000
0000
0000
0000
0000
0000
0000
ENDCHAR
STARTCHAR numbersign
ENCODING 35
SWIDTH 1333 0
DWIDTH 16 0
BBX 16 12 0 -2
BITMAP
00C6
018C
0FFF
0FFF
0630
0C60
7FF8
7FF8
3180
6300
0000
0000
ENDCHAR
STARTCHAR dollar
ENCODING 36
SWIDTH 1333 0
DWIDTH 16 0
BBX 16 12 0 -2
BITMAP
01C0
0FFC
1FFE
3806
1FF0
07FC
300E
3FFC
1FF8
01C0
0000
0000
ENDCHAR
STARTCHAR percent
ENCODING 37
SWIDTH 1333 0
DWIDTH 16 0
BBX 16 12 0 -2
BITMAP
1E0C
3318
3330
3360
1EC0
01BC
0366
0666
0C66
183C
0000
0000
ENDCHAR
STARTCHAR ampersand
ENCODING 38
SWIDTH 1333 0
DWIDTH 16 0
BBX 16 12 0 -2
BITMAP
01C0
0360
0630
0360
01C0
07CE
0EFC
1C70
0EF8
078C
0000
0000
ENDCHAR
STARTCHAR quotesingle
ENCODING 39
SWIDTH 1333 0
DWIDTH 16 0
BBX 16 12 0 -2
BITMAP
0180
03C0
03C0
00C0
0180
0300
0000
0000
0000
0000
0000
0000
ENDCHAR
STARTCHAR parenleft
ENCODING 40
SWIDTH 1333 0
DWIDTH 16 0
BBX 16 12 0 -2
BITMAP
00F0
0380
0700
0600
0E00
0E00
0600
0700
0380
00F0
0000
0000
ENDCHAR
STARTCHAR parenright
ENCODING 41
SWIDTH 1333 0
DWIDTH 16 0
BBX 16 12 0 -2
BITMAP
0F00
01C0
00E0
0060
0070
0070
0060
00E0
01C0
0F00
0000
0000
ENDCHAR
STARTCHAR asterisk
ENCODING 42
SWIDTH 1333 0
DWIDTH 16 0
BBX 16 12 0 -2
BITMAP
0410
0E38
0770
03E0
1FFC
1FFC
03E0
0770
0E38
0410
0000
0000
ENDCHAR
STARTCHAR plus
ENCODING 43
SWIDTH 1333 0
DWIDTH 16 0
BBX 16 12 0 -2
BITMAP
0000
0180
0180
0180
1FF8
1FF8
0180
0180
0180
0000
0000
0000
ENDCHAR
STARTCHAR comma
ENCODING 44
SWIDTH 1333 0
DWIDTH 16 0
BBX 16 12 0 -2
BITMAP
0000
0000
0000
0000
0000
0000
0000
0300
0780
0300
0600
0400
ENDCHAR
STARTCHAR hyphen
ENCODING 45
SWIDTH 1333 0
DWIDTH 16 0
BBX 16 12 0 -2
BITMAP
0000
0000
0000
0000
1FF8
1FF8
0000
0000
0000
0000
0000
0000
ENDCHAR
STARTCHAR period
ENCODING 46
SWIDTH 1333 0
DWIDTH 16 0
BBX 16 12 0 -2
BITMAP
0000
0000
0000
0000
0000
0000
0000
0300
0780
0300
0000
0000
ENDCHAR
STARTCHAR slash
ENCODING 47
SWIDTH 1333 0
DWIDTH 16 0
BBX 16 12 0 -2
BITMAP
0018
0038
0070
00E0
01C0
0380
0700
0E00
1C00
3800
3000
0000
ENDCHAR
STARTCHAR zero
ENCODING 48
SWIDTH 1333 0
DWIDTH 16 0
BBX 16 12 0 -2
BITMAP
0FF0
1FF8
387C
30CC
318C
330C
360C
3C1C
1FF8
0FF0
0000
0000
ENDCHAR
STARTCHAR one
ENCODING 49
SWIDTH 1333 0
DWIDTH 16 0
BBX 16 12 0 -2
BITMAP
0380
0780
0D80
1980
0180
0180
0180
0180
1FF8
1FF8
0000
0000
ENDCHAR
STARTCHAR two
ENCODING 50
SWIDTH 1333 0
DWIDTH 16 0
BBX 16 12 0 -2
BITMAP
0FF0
1FF8
381C
300C
003C
01F8
0780
1C0C
3FFC
3FFC
0000
0000
ENDCHAR
STARTCHAR three
ENCODING 51
SWIDTH 1333 0
DWIDTH 16 0
BBX 16 12 0 -2
BITMAP
0FF0
1FF8
381C
000C
00FC
00F8
000C
381C
1FF8
0FF0
0000
0000
ENDCHAR
STARTCHAR four
ENCODING 52
SWIDTH 1333 0
DWIDTH 16 0
BBX 16 12 0 -2
BITMAP
01F0
03F0
0630
0C30
1830
3FFC
3FFC
0030
00FC
00FC
0000
0000
ENDCHAR
STARTCHAR five
ENCODING 53
SWIDTH 1333 0
DWIDTH 16 0
BBX 16 12 0 -2
BITMAP
1FF8
1FF8
1800
3800
3FF0
1FF8
001C
301C
3FF8
0FF0
0000
0000
ENDCHAR
STARTCHAR six
ENCODING 54
SWIDTH 1333 0
DWIDTH 16 0
BBX 16 12 0 -2
BITMAP
07E0
0FF0
1C00
1800
3FF0
3FF8
381C
181C
1FF8
0FF0
0000
0000
ENDCHAR
STARTCHAR seven
ENCODING 55
SWIDTH 1333 0
DWIDTH 16 0
BBX 16 12 0 -2
BITMAP
3FFC
3FFC
3018
0030
0060
00C0
01C0
0180
0180
0180
0000
0000
ENDCHAR
STARTCHAR eight
ENCODING 56
SWIDTH 1333 0
DWIDTH 16 0
BBX 16 12 0 -2
BITMAP
0FF0
1FF8
381C
381C
1FF8
3FFC
300C
381C
1FF8
0FF0
0000
0000
ENDCHAR
STARTCHAR nine
ENCODING 57
SWIDTH 1333 0
DWIDTH 16 0
BBX 16 12 0 -2
BITMAP
0FF0
1FF8
381C
381C
1FFC
0FFC
001C
0038
1FF0
0FE0
0000
0000
ENDCHAR
STARTCHAR colon
ENCODING 58
SWIDTH 1333 0
DWIDTH 16 0
BBX 16 12 0 -2
BITMAP
0000
0000
0300
0780
0300
0000
0000
0300
0780
0300
0000
0000
ENDCHAR
STARTCHAR semicolon
ENCODING 59
SWIDTH 1333 0
DWIDTH 16 0
BBX 16 12 0 -2
BITMAP
0000
0000
0300
0780
0300
0000
0000
0300
0780
0300
0600
0400
ENDCHAR
STARTCHAR less
ENCODING 60
SWIDTH 1333 0
DWIDTH 16 0
BBX 16 12 0 -2
BITMAP
0060
00C0
0180
0300
0600
0C00
0600
0300
0180
00C0
0060
0000
ENDCHAR
STARTCHAR equal
ENCODING 61
SWIDTH 1333 0
DWIDTH 16 0
BBX 16 12 0 -2
BITMAP
0000
0000
1FFC
1FFC
0000
0000
1FFC
1FFC
0000
0000
0000
0000
ENDCHAR
STARTCHAR greater
ENCODING 62
SWIDTH 1333 0
DWIDTH 16 0
BBX 16 12 0 -2
BITMAP
0C00
0600
0300
0180
00C0
0060
00C0
0180
0300
0600
0C00
0000
ENDCHAR
STARTCHAR question
ENCODING 63
SWIDTH 1333 0
DWIDTH 16 0
BBX 16 12 0 -2
BITMAP
0FF0
1FF8
381C
301C
0078
01C0
0380
0000
0380
0380
0000
0000
ENDCHAR
STARTCHAR at
ENCODING 64
SWIDTH 1333 0
DWIDTH 16 0
BBX 16 12 0 -2
BITMAP
0FFC
1FFE
3807
31E3
3333
333F
31FF
3800
3FFE
1FFC
0000
0000
ENDCHAR
STARTCHAR A
ENCODING 65
SWIDTH 1333 0
DWIDTH 16 0
BBX 16 12 0 -2
BITMAP
0FF0
1FF8
381C
300C
3FFC
3FFC
300C
300C
300C
300C
0000
0000
ENDCHAR
STARTCHAR B
ENCODING 66
SWIDTH 1333 0
DWIDTH 16 0
BBX 16 12 0 -2
BITMAP
3FF8
1FFC
0C0E
0C0E
0FFE
0FFC
0C0E
0C06
1FFE
3FFC
0000
0000
ENDCHAR
STARTCHAR C
ENCODING 67
SWIDTH 1333 0
DWIDTH 16 0
BBX 16 12 0 -2
BITMAP
0FF8
1FFC
380E
3000
3000
3000
3000
380E
1FFC
0FF8
0000
0000
ENDCHAR
STARTCHAR D
ENCODING 68
SWIDTH 1333 0
DWIDTH 16 0
BBX 16 12 0 -2
BITMAP
3FF8
1FFC
0C0E
0C06
0C06
0C06
0C06
0C0E
1FFC
3FF8
0000
0000
ENDCHAR
STARTCHAR E
ENCODING 69
SWIDTH 1333 0
DWIDTH 16 0
BBX 16 12 0 -2
BITMAP
3FFE
1FFE
0C06
0C22
0FE0
0FE0
0C22
0C06
1FFE
3FFE
0000
0000
ENDCHAR
STARTCHAR F
ENCODING 70
SWIDTH 1333 0
DWIDTH 16 0
BBX 16 12 0 -2
BITMAP
3FFC
1FFC
0C0C
0C24
0FE0
0FE0
0C20
0C00
1E00
3F00
0000
0000
ENDCHAR
STARTCHAR G
ENCODING 71
SWIDTH 1333 0
DWIDTH 16 0
BBX 16 12 0 -2
BITMAP
0FF8
1FFC
380E
3000
3000
303E
301C
380C
1FFC
0FF8
0000
0000
ENDCHAR
STARTCHAR H
ENCODING 72
SWIDTH 1333 0
DWIDTH 16 0
BBX 16 12 0 -2
BITMAP
300C
300C
300C
300C
3FFC
3FFC
300C
300C
300C
300C
0000
0000
ENDCHAR
STARTCHAR I
ENCODING 73
SWIDTH 1333 0
DWIDTH 16 0
BBX 16 12 0 -2
BITMAP
0FF0
03C0
0180
0180
0180
0180
0180
0180
03C0
0FF0
0000
0000
ENDCHAR
STARTCHAR J
ENCODING 74
SWIDTH 1333 0
DWIDTH 16 0
BBX 16 12 0 -2
BITMAP
007E
003C
0018
0018
0018
3018
3818
1838
1FF0
0FE0
0000
0000
ENDCHAR
STARTCHAR K
ENCODING 75
SWIDTH 1333 0
DWIDTH 16 0
BBX 16 12 0 -2
BITMAP
3F1E
1E1C
0C38
0C70
0FE0
0FE0
0C70
0C38
1E1C
3F1E
0000
0000
ENDCHAR
STARTCHAR L
ENCODING 76
SWIDTH 1333 0
DWIDTH 16 0
BBX 16 12 0 -2
BITMAP
3F00
1E00
0C00
0C00
0C00
0C00
0C02
0C06
1FFE
3FFE
0000
0000
ENDCHAR
STARTCHAR M
ENCODING 77
SWIDTH 1333 0
DWIDTH 16 0
BBX 16 12 0 -2
BITMAP
3006
380E
3C1E
3E3E
3776
33E6
31C6
3086
3006
3006
0000
0000
ENDCHAR
STARTCHAR N
ENCODING 78
SWIDTH 1333 0
DWIDTH 16 0
BBX 16 12 0 -2
BITMAP
380C
3C0C
3E0C
370C
338C
31CC
30EC
307C
303C
301C
0000
0000
ENDCHAR
STARTCHAR O
ENCODING 79
SWIDTH 1333 0
DWIDTH 16 0
BBX 16 12 0 -2
BITMAP
0FF8
1FFC
380E
3006
3006
3006
3006
380E
1FFC
0FF8
0000
0000
ENDCHAR
STARTCHAR P
ENCODING 80
SWIDTH 1333 0
DWIDTH 16 0
BBX 16 12 0 -2
BITMAP
3FFC
1FFE
0C06
0C06
0FFE
0FFC
0C00
0C00
1F00
3F80
0000
0000
ENDCHAR
STARTCHAR Q
ENCODING 81
SWIDTH 1333 0
DWIDTH 16 0
BBX 16 12 0 -2
BITMAP
0FF8
1FFC
380E
3006
3006
3006
3006
38EE
1FFC
0FF8
003C
0000
ENDCHAR
STARTCHAR R
ENCODING 82
SWIDTH 1333 0
DWIDTH 16 0
BBX 16 12 0 -2
BITMAP
3FFC
1FFE
0C06
0C06
0FFE
0FFC
0C18
0C0C
1F06
3F86
0000
0000
ENDCHAR
STARTCHAR S
ENCODING 83
SWIDTH 1333 0
DWIDTH 16 0
BBX 16 12 0 -2
BITMAP
0FF8
1FFC
380C
1E00
0FE0
03F8
003C
301C
1FF8
0FF0
0000
0000
ENDCHAR
STARTCHAR T
ENCODING 84
SWIDTH 1333 0
DWIDTH 16 0
BBX 16 12 0 -2
BITMAP
3FFC
3FFC
318C
2184
0180
0180
0180
0180
03C0
07E0
0000
0000
ENDCHAR
STARTCHAR U
ENCODING 85
SWIDTH 1333 0
DWIDTH 16 0
BBX 16 12 0 -2
BITMAP
300C
300C
300C
300C
300C
300C
300C
381C
1FF8
0FF0
0000
0000
ENDCHAR
STARTCHAR V
ENCODING 86
SWIDTH 1333 0
DWIDTH 16 0
BBX 16 12 0 -2
BITMAP
300C
300C
300C
300C
300C
381C
1C38
0E70
07E0
03C0
0000
0000
ENDCHAR
STARTCHAR W
ENCODING 87
SWIDTH 1333 0
DWIDTH 16 0
BBX 16 12 0 -2
BITMAP
3006
3006
3006
3006
388E
39CE
1B6C
1E3C
1C1C
180C
0000
0000
ENDCHAR
STARTCHAR X
ENCODING 88
SWIDTH 1333 0
DWIDTH 16 0
BBX 16 12 0 -2
BITMAP
3018
3838
1C70
0EE0
07C0
07C0
0EE0
1C70
3838
3018
0000
0000
ENDCHAR
STARTCHAR Y
ENCODING 89
SWIDTH 1333 0
DWIDTH 16 0
BBX 16 12 0 -2
BITMAP
3030
3030
3870
1CE0
0FC0
0300
0300
0300
0780
0FC0
0000
0000
ENDCHAR
STARTCHAR Z
ENCODING 90
SWIDTH 1333 0
DWIDTH 16 0
BBX 16 12 0 -2
BITMAP
3FFC
3FF8
3030
2060
00C0
0180
0304
0E0C
3FFC
3FFC
0000
0000
ENDCHAR
STARTCHAR bracketleft
ENCODING 91
SWIDTH 1333 0
DWIDTH 16 0
BBX 16 12 0 -2
BITMAP
0FF0
0FF0
0C00
0C00
0C00
0C00
0C00
0C00
0FF0
0FF0
0000
0000
ENDCHAR
STARTCHAR backslash
ENCODING 92
SWIDTH 1333 0
DWIDTH 16 0
BBX 16 12 0 -2
BITMAP
1800
1C00
0E00
0700
0380
01C0
00E0
0070
0038
0018
0000
0000
ENDCHAR
STARTCHAR bracketright
ENCODING 93
SWIDTH 1333 0
DWIDTH 16 0
BBX 16 12 0 -2
BITMAP
0FF0
0FF0
0030
0030
0030
0030
0030
0030
0FF0
0FF0
0000
0000
ENDCHAR
STARTCHAR asciicircum
ENCODING 94
SWIDTH 1333 0
DWIDTH 16 0
BBX 16 12 0 -2
BITMAP
0180
03C0
0660
0C30
1818
300C
0000
0000
0000
0000
0000
0000
ENDCHAR
STARTCHAR underscore
ENCODING 95
SWIDTH 1333 0
DWIDTH 16 0
BBX 16 12 0 -2
BITMAP
0000
0000
0000
0000
0000
0000
0000
0000
0000
0000
0000
FFFF
ENDCHAR
STARTCHAR grave
ENCODING 96
SWIDTH 1333 0
DWIDTH 16 0
BBX 16 12 0 -2
BITMAP
0780
01E0
0000
0000
0000
0000
0000
0000
0000
0000
0000
0000
ENDCHAR
STARTCHAR a
ENCODING 97
SWIDTH 1333 0
DWIDTH 16 0
BBX 16 12 0 -2
BITMAP
0000
0000
07E0
0FF0
0038
1FD8
3FF8
3038
3FFC
1FCC
0000
0000
ENDCHAR
STARTCHAR b
ENCODING 98
SWIDTH 1333 0
DWIDTH 16 0
BBX 16 12 0 -2
BITMAP
3800
3800
1BF0
1FF8
181C
180C
180C
181C
3FF8
39F0
0000
0000
ENDCHAR
STARTCHAR c
ENCODING 99
SWIDTH 1333 0
DWIDTH 16 0
BBX 16 12 0 -2
BITMAP
0000
0000
0FF8
1FFC
380C
3000
3000
380C
1FFC
0FF8
0000
0000
ENDCHAR
STARTCHAR d
ENCODING 100
SWIDTH 1333 0
DWIDTH 16 0
BBX 16 12 0 -2
BITMAP
0078
0018
0FD8
1FF8
3818
3018
3018
3818
1FFC
0FCC
0000
0000
ENDCHAR
STARTCHAR e
ENCODING 101
SWIDTH 1333 0
DWIDTH 16 0
BBX 16 12 0 -2
BITMAP
0000
0000
0FF0
1FF8
381C
3FFC
3FF8
3800
1FF8
0FF0
0000
0000
ENDCHAR
STARTCHAR f
ENCODING 102
SWIDTH 1333 0
DWIDTH 16 0
BBX 16 12 0 -2
BITMAP
03F8
07FC
060C
1F80
1F80
0600
0600
0600
1F80
1F80
0000
0000
ENDCHAR
STARTCHAR g
ENCODING 103
SWIDTH 1333 0
DWIDTH 16 0
BBX 16 12 0 -2
BITMAP
0000
0000
0FF6
1FFE
300C
300C
3FFC
1FFC
000C
1FF8
0FF0
0000
ENDCHAR
STARTCHAR h
ENCODING 104
SWIDTH 1333 0
DWIDTH 16 0
BBX 16 12 0 -2
BITMAP
3800
3800
1BE0
1FF8
1818
180C
180C
180C
380C
380C
0000
0000
ENDCHAR
STARTCHAR i
ENCODING 105
SWIDTH 1333 0
DWIDTH 16 0
BBX 16 12 0 -2
BITMAP
0180
0180
0000
0780
0780
0180
0180
0180
0FF0
0FF0
0000
0000
ENDCHAR
STARTCHAR j
ENCODING 106
SWIDTH 1333 0
DWIDTH 16 0
BBX 16 12 0 -2
BITMAP
0018
0018
0000
0078
0078
0018
0018
1818
1C38
0FF0
07E0
0000
ENDCHAR
STARTCHAR k
ENCODING 107
SWIDTH 1333 0
DWIDTH 16 0
BBX 16 12 0 -2
BITMAP
3800
3800
1838
1870
18E0
1FC0
1FE0
1870
3C38
3C1C
0000
0000
ENDCHAR
STARTCHAR l
ENCODING 108
SWIDTH 1333 0
DWIDTH 16 0
BBX 16 12 0 -2
BITMAP
0780
0780
0180
0180
0180
0180
0180
0180
0FF0
0FF0
0000
0000
ENDCHAR
STARTCHAR m
ENCODING 109
SWIDTH 1333 0
DWIDTH 16 0
BBX 16 12 0 -2
BITMAP
0000
0000
6E70
7FF8
318C
318C
318C
318C
318C
318C
0000
0000
ENDCHAR
STARTCHAR n
ENCODING 110
SWIDTH 1333 0
DWIDTH 16 0
BBX 16 12 0 -2
BITMAP
0000
0000
39F0
3FF8
1E1C
180C
180C
180C
180C
180C
0000
0000
ENDCHAR
STARTCHAR o
ENCODING 111
SWIDTH 1333 0
DWIDTH 16 0
BBX 16 12 0 -2
BITMAP
0000
0000
0FF0
1FF8
381C
300C
300C
381C
1FF8
0FF0
0000
0000
ENDCHAR
STARTCHAR p
ENCODING 112
SWIDTH 1333 0
DWIDTH 16 0
BBX 16 12 0 -2
BITMAP
0000
0000
33F0
3FFC
180C
180C
180C
1FF8
1BF0
3C00
3C00
0000
ENDCHAR
STARTCHAR q
ENCODING 113
SWIDTH 1333 0
DWIDTH 16 0
BBX 16 12 0 -2
BITMAP
0000
0000
0F9C
3FFC
3018
3018
3018
1FF8
0FD8
003C
003C
0000
ENDCHAR
STARTCHAR r
ENCODING 114
SWIDTH 1333 0
DWIDTH 16 0
BBX 16 12 0 -2
BITMAP
0000
0000
19F0
1FF8
0E1C
0C00
0C00
0C00
1E00
1E00
0000
0000
ENDCHAR
STARTCHAR s
ENCODING 115
SWIDTH 1333 0
DWIDTH 16 0
BBX 16 12 0 -2
BITMAP
0000
0000
0FF8
1FFC
3000
3FF8
1FFC
000C
3FFC
1FF8
0000
0000
ENDCHAR
STARTCHAR t
ENCODING 116
SWIDTH 1333 0
DWIDTH 16 0
BBX 16 12 0 -2
BITMAP
0400
0C00
0C00
3F80
3F80
0C00
0C00
0E1C
07F8
03F0
0000
0000
ENDCHAR
STARTCHAR u
ENCODING 117
SWIDTH 1333 0
DWIDTH 16 0
BBX 16 12 0 -2
BITMAP
0000
0000
3018
3018
3018
3018
3018
3838
1FFC
0FCC
0000
0000
ENDCHAR
STARTCHAR v
ENCODING 118
SWIDTH 1333 0
DWIDTH 16 0
BBX 16 12 0 -2
BITMAP
0000
0000
300C
300C
381C
1818
1C38
0E70
07E0
03C0
0000
0000
ENDCHAR
STARTCHAR w
ENCODING 119
SWIDTH 1333 0
DWIDTH 16 0
BBX 16 12 0 -2
BITMAP
0000
0000
6006
6006
6006
6186
73CE
3FFC
1E78
0C30
0000
0000
ENDCHAR
STARTCHAR x
ENCODING 120
SWIDTH 1333 0
DWIDTH 16 0
BBX 16 12 0 -2
BITMAP
0000
0000
3838
1C70
0EE0
07C0
07C0
0EE0
1C70
3838
0000
0000
ENDCHAR
STARTCHAR y
ENCODING 121
SWIDTH 1333 0
DWIDTH 16 0
BBX 16 12 0 -2
BITMAP
0000
0000
300C
300C
300C
380C
3FFC
0FFC
000C
1FF8
0FF0
0000
ENDCHAR
STARTCHAR z
ENCODING 122
SWIDTH 1333 0
DWIDTH 16 0
BBX 16 12 0 -2
BITMAP
0000
0000
3FFC
3FFC
3070
01C0
0700
1C0C
3FFC
3FFC
0000
0000
ENDCHAR
STARTCHAR braceleft
ENCODING 123
SWIDTH 1333 0
DWIDTH 16 0
BBX 16 12 0 -2
BITMAP
01E0
0380
0300
0700
0600
0C00
0600
0700
0300
0380
01E0
0000
ENDCHAR
STARTCHAR bar
ENCODING 124
SWIDTH 1333 0
DWIDTH 16 0
BBX 16 12 0 -2
BITMAP
0180
0180
0180
0180
0180
0180
0180
0180
0180
0180
0180
0000
ENDCHAR
STARTCHAR braceright
ENCODING 125
SWIDTH 1333 0
DWIDTH 16 0
BBX 16 12 0 -2
BITMAP
0780
01C0
00C0
00E0
0060
0030
0060
00E0
00C0
01C0
0780
0000
ENDCHAR
STARTCHAR asciitilde
ENCODING 126
SWIDTH 1333 0
DWIDTH 16 0
BBX 16 12 0 -2
BITMAP
0F00
1BB0
01E0
0000
0000
0000
0000
0000
0000
0000
0000
0000
ENDCHAR
STARTCHAR uni007F
ENCODING 127
SWIDTH 1333 0
DWIDTH 16 0
BBX 16 12 0 -2
BITMAP
0180
03C0
0660
0C30
1818
300C
300C
300C
300C
3FFC
3FFC
0000
ENDCHAR
STARTCHAR uni00A0
ENCODING 160
SWIDTH 1333 0
DWIDTH 16 0
BBX 16 12 0 -2
BITMAP
0000
0000
0000
0000
0000
0000
0000
0000
0000
0000
0000
0000
ENDCHAR
STARTCHAR exclamdown
ENCODING 161
SWIDTH 1333 0
DWIDTH 16 0
BBX 16 12 0 -2
BITMAP
0300
0300
0000
0300
0300
0300
0780
0780
0780
0300
0000
0000
ENDCHAR
STARTCHAR cent
ENCODING 162
SWIDTH 1333 0
DWIDTH 16 0
BBX 16 12 0 -2
BITMAP
0000
01C0
0FF8
1FFC
380C
3000
3000
380C
1FFC
0FF8
01C0
0000
ENDCHAR
STARTCHAR sterling
ENCODING 163
SWIDTH 1333 0
DWIDTH 16 0
BBX 16 12 0 -2
BITMAP
03F0
07F8
0E1C
0C0C
3F8C
3F80
0C00
0C00
3C0E
3FFC
3FF8
0000
ENDCHAR
STARTCHAR yen
ENCODING 165
SWIDTH 1333 0
DWIDTH 16 0
BBX 16 12 0 -2
BITMAP
1818
0C30
0660
03C0
0180
0180
0FF0
0180
0FF0
0180
0180
0000
ENDCHAR
STARTCHAR section
ENCODING 167
SWIDTH 1333 0
DWIDTH 16 0
BBX 16 12 0 -2
BITMAP
03F0
07F8
0318
07C0
0E60
0C30
0670
03E0
18C0
1FE0
0FC0
0000
ENDCHAR
STARTCHAR ordfeminine
ENCODING 170
SWIDTH 1333 0
DWIDTH 16 0
BBX 16 12 0 -2
BITMAP
07C0
0CC0
0CC0
0CC0
0760
0000
0FE0
0000
0000
0000
0000
0000
ENDCHAR
STARTCHAR guillemotleft
ENCODING 171
SWIDTH 1333 0
DWIDTH 16 0
BBX 16 12 0 -2
BITMAP
0000
030C
0618
0C30
1860
30C0
1860
0C30
0618
030C
0000
0000
ENDCHAR
STARTCHAR logicalnot
ENCODING 172
SWIDTH 1333 0
DWIDTH 16 0
BBX 16 12 0 -2
BITMAP
0000
0000
0000
0000
FFF0
FFF0
FFF0
0070
0070
0070
0000
0000
ENDCHAR
STARTCHAR degree
ENCODING 176
SWIDTH 1333 0
DWIDTH 16 0
BBX 16 12 0 -2
BITMAP
0780
0CC0
0CC0
0CC0
0780
0000
0000
0000
0000
0000
0000
0000
ENDCHAR
STARTCHAR plusminus
ENCODING 177
SWIDTH 1333 0
DWIDTH 16 0
BBX 16 12 0 -2
BITMAP
0000
0180
0180
0180
1FF8
1FF8
0180
0180
0180
1FF8
1FF8
0000
ENDCHAR
STARTCHAR uni00B2
ENCODING 178
SWIDTH 1333 0
DWIDTH 16 0
BBX 16 12 0 -2
BITMAP
0780
0CC0
0180
0700
0E40
0FC0
0000
0000
0000
0000
0000
0000
ENDCHAR
STARTCHAR mu
ENCODING 181
SWIDTH 1333 0
DWIDTH 16 0
BBX 16 12 0 -2
BITMAP
0000
0000
3018
3018
3018
3018
3018
3818
3FFC
37EC
3000
0000
ENDCHAR
STARTCHAR paragraph
ENCODING 182
SWIDTH 1333 0
DWIDTH 16 0
BBX 16 12 0 -2
BITMAP
1FF8
3FF8
3198
3198
3F98
1F98
0198
0198
0198
0198
0000
0000
ENDCHAR
STARTCHAR periodcentered
ENCODING 183
SWIDTH 1333 0
DWIDTH 16 0
BBX 16 12 0 -2
BITMAP
0000
0000
0000
0000
0000
0300
0000
0000
0000
0000
0000
0000
ENDCHAR
STARTCHAR ordmasculine
ENCODING 186
SWIDTH 1333 0
DWIDTH 16 0
BBX 16 12 0 -2
BITMAP
0780
0CC0
0CC0
0CC0
0780
0000
0FC0
0000
0000
0000
0000
0000
ENDCHAR
STARTCHAR guillemotright
ENCODING 187
SWIDTH 1333 0
DWIDTH 16 0
BBX 16 12 0 -2
BITMAP
0000
30C0
1860
0C30
0618
030C
0618
0C30
1860
30C0
0000
0000
ENDCHAR
STARTCHAR onequarter
ENCODING 188
SWIDTH 1333 0
DWIDTH 16 0
BBX 16 12 0 -2
BITMAP
0C0C
3C18
0C30
0C60
3ECE
019E
0336
0666
0C7F
1806
0000
0000
ENDCHAR
STARTCHAR onehalf
ENCODING 189
SWIDTH 1333 0
DWIDTH 16 0
BBX 16 12 0 -2
BITMAP
0C0C
3C18
0C30
0C60
3EDC
01B6
0326
061C
0C30
183E
0000
0000
ENDCHAR
STARTCHAR questiondown
ENCODING 191
SWIDTH 1333 0
DWIDTH 16 0
BBX 16 12 0 -2
BITMAP
0180
0180
0000
0180
0780
1E00
380C
381C
1FF8
0FF0
0000
0000
ENDCHAR
STARTCHAR Adieresis
ENCODING 196
SWIDTH 1333 0
DWIDTH 16 0
BBX 16 12 0 -2
BITMAP
1C38
0FF0
1FF8
381C
300C
3FFC
3FFC
300C
300C
300C
0000
0000
ENDCHAR
STARTCHAR Aring
ENCODING 197
SWIDTH 1333 0
DWIDTH 16 0
BBX 16 12 0 -2
BITMAP
03C0
0E70
1E78
3FFC
381C
300C
3FFC
3FFC
300C
300C
0000
0000
ENDCHAR
STARTCHAR AE
ENCODING 198
SWIDTH 1333 0
DWIDTH 16 0
BBX 16 12 0 -2
BITMAP
0FFF
1FFF
38C1
30C4
3FFC
3FFC
30C4
30C1
30FF
30FF
0000
0000
ENDCHAR
STARTCHAR Ccedilla
ENCODING 199
SWIDTH 1333 0
DWIDTH 16 0
BBX 16 12 0 -2
BITMAP
0FF8
1FFC
380E
3000
3000
3000
3000
380E
1FFC
0FF8
3F80
0000
ENDCHAR
STARTCHAR Eacute
ENCODING 201
SWIDTH 1333 0
DWIDTH 16 0
BBX 16 12 0 -2
BITMAP
003C
3FFE
1FFE
0C06
0FE2
0FE0
0C22
0C06
1FFE
3FFE
0000
0000
ENDCHAR
STARTCHAR Ntilde
ENCODING 209
SWIDTH 1333 0
DWIDTH 16 0
BBX 16 12 0 -2
BITMAP
33AC
3AEC
3C0C
360C
330C
318C
30CC
306C
303C
301C
0000
0000
ENDCHAR
STARTCHAR Odieresis
ENCODING 214
SWIDTH 1333 0
DWIDTH 16 0
BBX 16 12 0 -2
BITMAP
0C18
0FF8
1FFC
380E
3006
3006
3006
380E
1FFC
0FF8
0000
0000
ENDCHAR
STARTCHAR Udieresis
ENCODING 220
SWIDTH 1333 0
DWIDTH 16 0
BBX 16 12 0 -2
BITMAP
366C
366C
300C
300C
300C
300C
300C
381C
1FF8
0FF0
0000
0000
ENDCHAR
STARTCHAR germandbls
ENCODING 223
SWIDTH 1333 0
DWIDTH 16 0
BBX 16 12 0 -2
BITMAP
03F8
07FC
0E0E
0C0E
0CFC
0CFE
0C06
0C06
0CFE
3CFC
0000
0000
ENDCHAR
STARTCHAR agrave
ENCODING 224
SWIDTH 1333 0
DWIDTH 16 0
BBX 16 12 0 -2
BITMAP
0780
01E0
07E0
0FF0
0038
1FD8
3FF8
3038
3FFC
1FCC
0000
0000
ENDCHAR
STARTCHAR aacute
ENCODING 225
SWIDTH 1333 0
DWIDTH 16 0
BBX 16 12 0 -2
BITMAP
01E0
0780
07E0
0FF0
0038
1FD8
3FF8
3038
3FFC
1FCC
0000
0000
ENDCHAR
STARTCHAR acircumflex
ENCODING 226
SWIDTH 1333 0
DWIDTH 16 0
BBX 16 12 0 -2
BITMAP
07C0
0EE0
07E0
0FF0
0038
1FD8
3FF8
3038
3FFC
1FCC
0000
0000
ENDCHAR
STARTCHAR adieresis
ENCODING 228
SWIDTH 1333 0
DWIDTH 16 0
BBX 16 12 0 -2
BITMAP
0660
0660
07E0
0FF0
0038
1FD8
3FF8
3038
3FFC
1FCC
0000
0000
ENDCHAR
STARTCHAR aring
ENCODING 229
SWIDTH 1333 0
DWIDTH 16 0
BBX 16 12 0 -2
BITMAP
0380
0280
07E0
0FF0
0038
1FD8
3FF8
3038
3FFC
1FCC
0000
0000
ENDCHAR
STARTCHAR ae
ENCODING 230
SWIDTH 1333 0
DWIDTH 16 0
BBX 16 12 0 -2
BITMAP
0000
0000
0F3E
1FFF
01E7
3FC3
71FF
61C0
7FFE
3F3C
0000
0000
ENDCHAR
STARTCHAR ccedilla
ENCODING 231
SWIDTH 1333 0
DWIDTH 16 0
BBX 16 12 0 -2
BITMAP
0000
0000
0FF8
1FFC
380C
3000
3000
380C
1FFC
0FF8
3F00
0000
ENDCHAR
STARTCHAR egrave
ENCODING 232
SWIDTH 1333 0
DWIDTH 16 0
BBX 16 12 0 -2
BITMAP
0780
01E0
0FF0
1FF8
381C
3FFC
3FF8
3800
1FF8
0FF0
0000
0000
ENDCHAR
STARTCHAR eacute
ENCODING 233
SWIDTH 1333 0
DWIDTH 16 0
BBX 16 12 0 -2
BITMAP
00F0
03C0
0FF0
1FF8
381C
3FFC
3FF8
3800
1FF8
0FF0
0000
0000
ENDCHAR
STARTCHAR ecircumflex
ENCODING 234
SWIDTH 1333 0
DWIDTH 16 0
BBX 16 12 0 -2
BITMAP
07E0
0E70
0FF0
1FF8
381C
3FFC
3FF8
3800
1FF8
0FF0
0000
0000
ENDCHAR
STARTCHAR edieresis
ENCODING 235
SWIDTH 1333 0
DWIDTH 16 0
BBX 16 12 0 -2
BITMAP
0660
0660
0FF0
1FF8
381C
3FFC
3FF8
3800
1FF8
0FF0
0000
0000
ENDCHAR
STARTCHAR igrave
ENCODING 236
SWIDTH 1333 0
DWIDTH 16 0
BBX 16 12 0 -2
BITMAP
0F00
03C0
0000
0780
0780
0180
0180
0180
0FF0
0FF0
0000
0000
ENDCHAR
STARTCHAR iacute
ENCODING 237
SWIDTH 1333 0
DWIDTH 16 0
BBX 16 12 0 -2
BITMAP
00F0
03C0
0000
0780
0780
0180
0180
0180
0FF0
0FF0
0000
0000
ENDCHAR
STARTCHAR icircumflex
ENCODING 238
SWIDTH 1333 0
DWIDTH 16 0
BBX 16 12 0 -2
BITMAP
07C0
0EE0
0000
0780
0780
0180
0180
0180
0FF0
0FF0
0000
0000
ENDCHAR
STARTCHAR idieresis
ENCODING 239
SWIDTH 1333 0
DWIDTH 16 0
BBX 16 12 0 -2
BITMAP
0C60
0C60
0000
0780
0780
0180
0180
0180
0FF0
0FF0
0000
0000
ENDCHAR
STARTCHAR ntilde
ENCODING 241
SWIDTH 1333 0
DWIDTH 16 0
BBX 16 12 0 -2
BITMAP
07D8
06F0
39F0
3FF8
1E1C
180C
180C
180C
180C
180C
0000
0000
ENDCHAR
STARTCHAR ograve
ENCODING 242
SWIDTH 1333 0
DWIDTH 16 0
BBX 16 12 0 -2
BITMAP
0F00
03C0
0FF0
1FF8
381C
300C
300C
381C
1FF8
0FF0
0000
0000
ENDCHAR
STARTCHAR oacute
ENCODING 243
SWIDTH 1333 0
DWIDTH 16 0
BBX 16 12 0 -2
BITMAP
00F0
03C0
0FF0
1FF8
381C
300C
300C
381C
1FF8
0FF0
0000
0000
ENDCHAR
STARTCHAR ocircumflex
ENCODING 244
SWIDTH 1333 0
DWIDTH 16 0
BBX 16 12 0 -2
BITMAP
03C0
0E70
0FF0
1FF8
381C
300C
300C
381C
1FF8
0FF0
0000
0000
ENDCHAR
STARTCHAR odieresis
ENCODING 246
SWIDTH 1333 0
DWIDTH 16 0
BBX 16 12 0 -2
BITMAP
0660
0660
0FF0
1FF8
381C
300C
300C
381C
1FF8
0FF0
0000
0000
ENDCHAR
STARTCHAR divide
ENCODING 247
SWIDTH 1333 0
DWIDTH 16 0
BBX 16 12 0 -2
BITMAP
0000
0180
0180
0000
1FF8
1FF8
0000
0180
0180
0000
0000
0000
ENDCHAR
STARTCHAR ugrave
ENCODING 249
SWIDTH 1333 0
DWIDTH 16 0
BBX 16 12 0 -2
BITMAP
0F00
03C0
3018
3018
3018
3018
3018
3838
1FFC
0FCC
0000
0000
ENDCHAR
STARTCHAR uacute
ENCODING 250
SWIDTH 1333 0
DWIDTH 16 0
BBX 16 12 0 -2
BITMAP
01E0
0780
3018
3018
3018
3018
3018
3838
1FFC
0FCC
0000
0000
ENDCHAR
STARTCHAR ucircumflex
ENCODING 251
SWIDTH 1333 0
DWIDTH 16 0
BBX 16 12 0 -2
BITMAP
07C0
0EE0
3018
3018
3018
3018
3018
3838
1FFC
0FCC
0000
0000
ENDCHAR
STARTCHAR udieresis
ENCODING 252
SWIDTH 1333 0
DWIDTH 16 0
BBX 16 12 0 -2
BITMAP
0C60
0C60
3018
3018
3018
3018
3018
3838
1FFC
0FCC
0000
0000
ENDCHAR
STARTCHAR ydieresis
ENCODING 255
SWIDTH 1333 0
DWIDTH 16 0
BBX 16 12 0 -2
BITMAP
0660
0660
300C
300C
300C
380C
3FFC
0FFC
000C
1FF8
0FF0
0000
ENDCHAR
STARTCHAR florin
ENCODING 402
SWIDTH 1333 0
DWIDTH 16 0
BBX 16 12 0 -2
BITMAP
0070
00F8
01CC
0180
07E0
07E0
0180
0180
1980
1F80
0F00
0000
ENDCHAR
STARTCHAR Gamma
ENCODING 915
SWIDTH 1333 0
DWIDTH 16 0
BBX 16 12 0 -2
BITMAP
3FFE
1FFE
0C06
0C02
0C00
0C00
0C00
0C00
1E00
3F00
0000
0000
ENDCHAR
STARTCHAR Theta
ENCODING 920
SWIDTH 1333 0
DWIDTH 16 0
BBX 16 12 0 -2
BITMAP
0FF8
1FFC
380E
3006
3FFE
3FFE
3006
380E
1FFC
0FF8
0000
0000
ENDCHAR
STARTCHAR Sigma
ENCODING 931
SWIDTH 1333 0
DWIDTH 16 0
BBX 16 12 0 -2
BITMAP
3FFC
1FFC
0C0C
0604
0300
0600
0C04
180C
3FFC
3FFC
0000
0000
ENDCHAR
STARTCHAR Phi
ENCODING 934
SWIDTH 1333 0
DWIDTH 16 0
BBX 16 12 0 -2
BITMAP
03C0
0180
1FF8
399C
318C
318C
399C
1FF8
0180
03C0
0000
0000
ENDCHAR
STARTCHAR uni03A9
ENCODING 937
SWIDTH 1333 0
DWIDTH 16 0
BBX 16 12 0 -2
BITMAP
0FF8
1FFC
380E
3006
3006
3006
180C
0C18
1E3C
3E3E
0000
0000
ENDCHAR
STARTCHAR alpha
ENCODING 945
SWIDTH 1333 0
DWIDTH 16 0
BBX 16 12 0 -2
BITMAP
0000
0000
0F18
1FB8
39F8
30F0
30E0
39F0
1FB8
0F18
0000
0000
ENDCHAR
STARTCHAR delta
ENCODING 948
SWIDTH 1333 0
DWIDTH 16 0
BBX 16 12 0 -2
BITMAP
00F8
01FC
00E4
07F0
0FF8
1C1C
180C
1C1C
0FF8
07F0
0000
0000
ENDCHAR
STARTCHAR epsilon
ENCODING 949
SWIDTH 1333 0
DWIDTH 16 0
BBX 16 12 0 -2
BITMAP
03E0
0FE0
0E00
1C00
1FE0
1FE0
1C00
0E00
0FE0
03E0
0000
0000
ENDCHAR
STARTCHAR pi
ENCODING 960
SWIDTH 1333 0
DWIDTH 16 0
BBX 16 12 0 -2
BITMAP
0000
0000
7FFF
7FFF
180C
180C
180C
180C
180C
180C
0000
0000
ENDCHAR
STARTCHAR sigma
ENCODING 963
SWIDTH 1333 0
DWIDTH 16 0
BBX 16 12 0 -2
BITMAP
0000
0000
0FFE
1FFE
3818
300C
300C
381C
1FF8
0FF0
0000
0000
ENDCHAR
STARTCHAR tau
ENCODING 964
SWIDTH 1333 0
DWIDTH 16 0
BBX 16 12 0 -2
BITMAP
0000
0000
0F30
3FF0
33C0
0300
0300
0300
0300
0300
0000
0000
ENDCHAR
STARTCHAR phi
ENCODING 966
SWIDTH 1333 0
DWIDTH 16 0
BBX 16 12 0 -2
BITMAP
0000
0030
0060
1FF8
38DC
318C
318C
3B1C
1FF8
0600
0C00
0000
ENDCHAR
STARTCHAR bullet
ENCODING 8226
SWIDTH 1333 0
DWIDTH 16 0
BBX 16 12 0 -2
BITMAP
0000
0000
0000
03C0
07E0
07E0
07E0
07E0
03C0
0000
0000
0000
ENDCHAR
STARTCHAR exclamdbl
ENCODING 8252
SWIDTH 1333 0
DWIDTH 16 0
BBX 16 12 0 -2
BITMAP
0C18
1E3C
1E3C
1E3C
1E3C
0C18
0C18
0000
0C18
0C18
0000
0000
ENDCHAR
STARTCHAR uni207F
ENCODING 8319
SWIDTH 1333 0
DWIDTH 16 0
BBX 16 12 0 -2
BITMAP
1BC0
0EE0
0C60
0C60
0C60
0C60
0000
0000
0000
0000
0000
0000
ENDCHAR
STARTCHAR peseta
ENCODING 8359
SWIDTH 1333 0
DWIDTH 16 0
BBX 16 12 0 -2
BITMAP
7FC0
3FE0
3060
3060
3FE8
3FD8
303E
303E
3018
781D
000E
0000
ENDCHAR
STARTCHAR arrowleft
ENCODING 8592
SWIDTH 1333 0
DWIDTH 16 0
BBX 16 12 0 -2
BITMAP
0400
0C00
1C00
3C00
7FFF
FFFF
7FFF
3C00
1C00
0C00
0400
0000
ENDCHAR
STARTCHAR arrowup
ENCODING 8593
SWIDTH 1333 0
DWIDTH 16 0
BBX 16 12 0 -2
BITMAP
0100
0380
07C0
0FE0
1FF0
3FF8
0380
0380
0380
0380
0380
0380
ENDCHAR
STARTCHAR arrowright
ENCODING 8594
SWIDTH 1333 0
DWIDTH 16 0
BBX 16 12 0 -2
BITMAP
0020
0030
0038
003C
FFFE
FFFF
FFFE
003C
0038
0030
0020
0000
ENDCHAR
STARTCHAR arrowdown
ENCODING 8595
SWIDTH 1333 0
DWIDTH 16 0
BBX 16 12 0 -2
BITMAP
0380
0380
0380
0380
0380
0380
3FF8
1FF0
0FE0
07C0
0380
0100
ENDCHAR
STARTCHAR arrowboth
ENCODING 8596
SWIDTH 1333 0
DWIDTH 16 0
BBX 16 12 0 -2
BITMAP
0000
0000
1008
300C
700E
FFFF
FFFF
700E
300C
1008
0000
0000
ENDCHAR
STARTCHAR arrowupdn
ENCODING 8597
SWIDTH 1333 0
DWIDTH 16 0
BBX 16 12 0 -2
BITMAP
0180
03C0
07E0
0FF0
0180
0180
0180
0FF0
07E0
03C0
0180
0000
ENDCHAR
STARTCHAR arrowupdnbse
ENCODING 8616
SWIDTH 1333 0
DWIDTH 16 0
BBX 16 12 0 -2
BITMAP
0180
03C0
07E0
0FF0
0180
0180
0180
0FF0
07E0
03C0
0180
0FF0
ENDCHAR
STARTCHAR uni2219
ENCODING 8729
SWIDTH 1333 0
DWIDTH 16 0
BBX 16 12 0 -2
BITMAP
0000
0000
0000
0000
0380
0380
0380
0000
0000
0000
0000
0000
ENDCHAR
STARTCHAR radical
ENCODING 8730
SWIDTH 1333 0
DWIDTH 16 0
BBX 16 12 0 -2
BITMAP
007F
007F
0060
0060
0060
0060
1C60
0660
0360
01E0
00E0
0060
ENDCHAR
STARTCHAR infinity
ENCODING 8734
SWIDTH 1333 0
DWIDTH 16 0
BBX 16 12 0 -2
BITMAP
0000
0000
1F3C
3FFE
71E7
60C3
60C3
71E7
3FFE
1F3C
0000
0000
ENDCHAR
STARTCHAR orthogonal
ENCODING 8735
SWIDTH 1333 0
DWIDTH 16 0
BBX 16 12 0 -2
BITMAP
0000
0E00
0E00
0E00
0FFF
0FFF
0FFF
0000
0000
0000
0000
0000
ENDCHAR
STARTCHAR intersection
ENCODING 8745
SWIDTH 1333 0
DWIDTH 16 0
BBX 16 12 0 -2
BITMAP
0FF0
1FF8
1818
300C
300C
300C
300C
300C
300C
300C
0000
0000
ENDCHAR
STARTCHAR approxequal
ENCODING 8776
SWIDTH 1333 0
DWIDTH 16 0
BBX 16 12 0 -2
BITMAP
0000
0700
1FCC
18FC
0030
0700
1FCC
18FC
0030
0000
0000
0000
ENDCHAR
STARTCHAR equivalence
ENCODING 8801
SWIDTH 1333 0
DWIDTH 16 0
BBX 16 12 0 -2
BITMAP
0000
3FFC
3FFC
0000
3FFC
3FFC
0000
3FFC
3FFC
0000
0000
0000
ENDCHAR
STARTCHAR lessequal
ENCODING 8804
SWIDTH 1333 0
DWIDTH 16 0
BBX 16 12 0 -2
BITMAP
0060
00C0
0180
0300
0600
0300
0180
00C0
0060
0FF0
0FF0
0000
ENDCHAR
STARTCHAR greaterequal
ENCODING 8805
SWIDTH 1333 0
DWIDTH 16 0
BBX 16 12 0 -2
BITMAP
0600
0300
0180
00C0
0060
00C0
0180
0300
0600
0FF0
0FF0
0000
ENDCHAR
STARTCHAR house
ENCODING 8962
SWIDTH 1333 0
DWIDTH 16 0
BBX 16 12 0 -2
BITMAP
0180
03C0
0660
0C30
1818
300C
300C
300C
300C
3FFC
3FFC
0000
ENDCHAR
STARTCHAR revlogicalnot
ENCODING 8976
SWIDTH 1333 0
DWIDTH 16 0
BBX 16 12 0 -2
BITMAP
0000
0000
0000
0000
0FFF
0FFF
0FFF
0E00
0E00
0E00
0000
0000
ENDCHAR
STARTCHAR integraltp
ENCODING 8992
SWIDTH 1333 0
DWIDTH 16 0
BBX 16 12 0 -2
BITMAP
0000
0000
01F8
038C
030C
0300
0300
0300
0300
0300
0300
0300
ENDCHAR
STARTCHAR integralbt
ENCODING 8993
SWIDTH 1333 0
DWIDTH 16 0
BBX 16 12 0 -2
BITMAP
0300
0300
0300
0300
0300
0300
0300
0300
3300
3700
1E00
0000
ENDCHAR
STARTCHAR SF100000
ENCODING 9472
SWIDTH 1333 0
DWIDTH 16 0
BBX 16 12 0 -2
BITMAP
0000
0000
0000
0000
FFFF
FFFF
FFFF
0000
0000
0000
0000
0000
ENDCHAR
STARTCHAR SF110000
ENCODING 9474
SWIDTH 1333 0
DWIDTH 16 0
BBX 16 12 0 -2
BITMAP
0380
0380
0380
0380
0380
0380
0380
0380
0380
0380
0380
0380
ENDCHAR
STARTCHAR SF010000
ENCODING 9484
SWIDTH 1333 0
DWIDTH 16 0
BBX 16 12 0 -2
BITMAP
0000
0000
0000
0000
03FF
03FF
03FF
0380
0380
0380
0380
0380
ENDCHAR
STARTCHAR SF030000
ENCODING 9488
SWIDTH 1333 0
DWIDTH 16 0
BBX 16 12 0 -2
BITMAP
0000
0000
0000
0000
FF80
FF80
FF80
0380
0380
0380
0380
0380
ENDCHAR
STARTCHAR SF020000
ENCODING 9492
SWIDTH 1333 0
DWIDTH 16 0
BBX 16 12 0 -2
BITMAP
0380
0380
0380
0380
03FF
03FF
03FF
0000
0000
0000
0000
0000
ENDCHAR
STARTCHAR SF040000
ENCODING 9496
SWIDTH 1333 0
DWIDTH 16 0
BBX 16 12 0 -2
BITMAP
0380
0380
0380
0380
FF80
FF80
FF80
0000
0000
0000
0000
0000
ENDCHAR
STARTCHAR SF080000
ENCODING 9500
SWIDTH 1333 0
DWIDTH 16 0
BBX 16 12 0 -2
BITMAP
0380
0380
0380
0380
03FF
03FF
03FF
0380
0380
0380
0380
0380
ENDCHAR
STARTCHAR SF090000
ENCODING 9508
SWIDTH 1333 0
DWIDTH 16 0
BBX 16 12 0 -2
BITMAP
0380
0380
0380
0380
FF80
FF80
FF80
0380
0380
0380
0380
0380
ENDCHAR
STARTCHAR SF060000
ENCODING 9516
SWIDTH 1333 0
DWIDTH 16 0
BBX 16 12 0 -2
BITMAP
0000
0000
0000
0000
FFFF
FFFF
FFFF
0380
0380
0380
0380
0380
ENDCHAR
STARTCHAR SF070000
ENCODING 9524
SWIDTH 1333 0
DWIDTH 16 0
BBX 16 12 0 -2
BITMAP
0380
0380
0380
0380
FFFF
FFFF
FFFF
0000
0000
0000
0000
0000
ENDCHAR
STARTCHAR SF050000
ENCODING 9532
SWIDTH 1333 0
DWIDTH 16 0
BBX 16 12 0 -2
BITMAP
0380
0380
0380
0380
FFFF
FFFF
FFFF
0380
0380
0380
0380
0380
ENDCHAR
STARTCHAR SF430000
ENCODING 9552
SWIDTH 1333 0
DWIDTH 16 0
BBX 16 12 0 -2
BITMAP
0000
FFFF
FFFF
FFFF
0000
0000
0000
FFFF
FFFF
FFFF
0000
0000
ENDCHAR
STARTCHAR SF240000
ENCODING 9553
SWIDTH 1333 0
DWIDTH 16 0
BBX 16 12 0 -2
BITMAP
1C70
1C70
1C70
1C70
1C70
1C70
1C70
1C70
1C70
1C70
1C70
1C70
ENDCHAR
STARTCHAR SF510000
ENCODING 9554
SWIDTH 1333 0
DWIDTH 16 0
BBX 16 12 0 -2
BITMAP
0000
03FF
03FF
03FF
0380
0380
0380
03FF
03FF
03FF
0380
0380
ENDCHAR
STARTCHAR SF520000
ENCODING 9555
SWIDTH 1333 0
DWIDTH 16 0
BBX 16 12 0 -2
BITMAP
0000
0000
0000
0000
1FFF
1FFF
1FFF
1C70
1C70
1C70
1C70
1C70
ENDCHAR
STARTCHAR SF390000
ENCODING 9556
SWIDTH 1333 0
DWIDTH 16 0
BBX 16 12 0 -2
BITMAP
0000
1FFF
1FFF
1FFF
1C00
1C00
1C00
1C7F
1C7F
1C7F
1C70
1C70
ENDCHAR
STARTCHAR SF220000
ENCODING 9557
SWIDTH 1333 0
DWIDTH 16 0
BBX 16 12 0 -2
BITMAP
0000
FF80
FF80
FF80
0380
0380
0380
FF80
FF80
FF80
0380
0380
ENDCHAR
STARTCHAR SF210000
ENCODING 9558
SWIDTH 1333 0
DWIDTH 16 0
BBX 16 12 0 -2
BITMAP
0000
0000
0000
0000
FFF0
FFF0
FFF0
1C70
1C70
1C70
1C70
1C70
ENDCHAR
STARTCHAR SF250000
ENCODING 9559
SWIDTH 1333 0
DWIDTH 16 0
BBX 16 12 0 -2
BITMAP
0000
FFF0
FFF0
FFF0
0070
0070
0070
FC70
FC70
FC70
1C70
1C70
ENDCHAR
STARTCHAR SF500000
ENCODING 9560
SWIDTH 1333 0
DWIDTH 16 0
BBX 16 12 0 -2
BITMAP
0380
03FF
03FF
03FF
0380
0380
0380
03FF
03FF
03FF
0000
0000
ENDCHAR
STARTCHAR SF490000
ENCODING 9561
SWIDTH 1333 0
DWIDTH 16 0
BBX 16 12 0 -2
BITMAP
1C70
1C70
1C70
1C70
1FFF
1FFF
1FFF
0000
0000
0000
0000
0000
ENDCHAR
STARTCHAR SF380000
ENCODING 9562
SWIDTH 1333 0
DWIDTH 16 0
BBX 16 12 0 -2
BITMAP
1C70
1C7F
1C7F
1C7F
1C00
1C00
1C00
1FFF
1FFF
1FFF
0000
0000
ENDCHAR
STARTCHAR SF280000
ENCODING 9563
SWIDTH 1333 0
DWIDTH 16 0
BBX 16 12 0 -2
BITMAP
0380
FF80
FF80
FF80
0380
0380
0380
FF80
FF80
FF80
0000
0000
ENDCHAR
STARTCHAR SF270000
ENCODING 9564
SWIDTH 1333 0
DWIDTH 16 0
BBX 16 12 0 -2
BITMAP
1C70
1C70
1C70
1C70
FFF0
FFF0
FFF0
0000
0000
0000
0000
0000
ENDCHAR
STARTCHAR SF260000
ENCODING 9565
SWIDTH 1333 0
DWIDTH 16 0
BBX 16 12 0 -2
BITMAP
1C70
FC70
FC70
FC70
0070
0070
0070
FFF0
FFF0
FFF0
0000
0000
ENDCHAR
STARTCHAR SF360000
ENCODING 9566
SWIDTH 1333 0
DWIDTH 16 0
BBX 16 12 0 -2
BITMAP
0380
03FF
03FF
03FF
0380
0380
0380
03FF
03FF
03FF
0380
0380
ENDCHAR
STARTCHAR SF370000
ENCODING 9567
SWIDTH 1333 0
DWIDTH 16 0
BBX 16 12 0 -2
BITMAP
1C70
1C70
1C70
1C70
1C7F
1C7F
1C7F
1C70
1C70
1C70
1C70
1C70
ENDCHAR
STARTCHAR SF420000
ENCODING 9568
SWIDTH 1333 0
DWIDTH 16 0
BBX 16 12 0 -2
BITMAP
1C70
1C7F
1C7F
1C7F
1C00
1C00
1C00
1C7F
1C7F
1C7F
1C70
1C70
ENDCHAR
STARTCHAR SF190000
ENCODING 9569
SWIDTH 1333 0
DWIDTH 16 0
BBX 16 12 0 -2
BITMAP
0380
FF80
FF80
FF80
0380
0380
0380
FF80
FF80
FF80
0380
0380
ENDCHAR
STARTCHAR SF200000
ENCODING 9570
SWIDTH 1333 0
DWIDTH 16 0
BBX 16 12 0 -2
BITMAP
1C70
1C70
1C70
1C70
FC70
FC70
FC70
1C70
1C70
1C70
1C70
1C70
ENDCHAR
STARTCHAR SF230000
ENCODING 9571
SWIDTH 1333 0
DWIDTH 16 0
BBX 16 12 0 -2
BITMAP
1C70
FC70
FC70
FC70
0070
0070
0070
FC70
FC70
FC70
1C70
1C70
ENDCHAR
STARTCHAR SF470000
ENCODING 9572
SWIDTH 1333 0
DWIDTH 16 0
BBX 16 12 0 -2
BITMAP
0000
FFFF
FFFF
FFFF
0000
0000
0000
FFFF
FFFF
FFFF
0380
0380
ENDCHAR
STARTCHAR SF480000
ENCODING 9573
SWIDTH 1333 0
DWIDTH 16 0
BBX 16 12 0 -2
BITMAP
0000
0000
0000
0000
FFFF
FFFF
FFFF
1C70
1C70
1C70
1C70
1C70
ENDCHAR
STARTCHAR SF410000
ENCODING 9574
SWIDTH 1333 0
DWIDTH 16 0
BBX 16 12 0 -2
BITMAP
0000
FFFF
FFFF
FFFF
0000
0000
0000
FC7F
FC7F
FC7F
1C70
1C70
ENDCHAR
STARTCHAR SF450000
ENCODING 9575
SWIDTH 1333 0
DWIDTH 16 0
BBX 16 12 0 -2
BITMAP
0380
FFFF
FFFF
FFFF
0000
0000
0000
FFFF
FFFF
FFFF
0000
0000
ENDCHAR
STARTCHAR SF460000
ENCODING 9576
SWIDTH 1333 0
DWIDTH 16 0
BBX 16 12 0 -2
BITMAP
1C70
1C70
1C70
1C70
FFFF
FFFF
FFFF
0000
0000
0000
0000
0000
ENDCHAR
STARTCHAR SF400000
ENCODING 9577
SWIDTH 1333 0
DWIDTH 16 0
BBX 16 12 0 -2
BITMAP
1C70
FC7F
FC7F
FC7F
0000
0000
0000
FFFF
FFFF
FFFF
0000
0000
ENDCHAR
STARTCHAR SF540000
ENCODING 9578
SWIDTH 1333 0
DWIDTH 16 0
BBX 16 12 0 -2
BITMAP
0380
FFFF
FFFF
FFFF
0380
0380
0380
FFFF
FFFF
FFFF
0380
0380
ENDCHAR
STARTCHAR SF530000
ENCODING 9579
SWIDTH 1333 0
DWIDTH 16 0
BBX 16 12 0 -2
BITMAP
1C70
1C70
1C70
1C70
FFFF
FFFF
FFFF
1C70
1C70
1C70
1C70
1C70
ENDCHAR
STARTCHAR SF440000
ENCODING 9580
SWIDTH 1333 0
DWIDTH 16 0
BBX 16 12 0 -2
BITMAP
1C70
FC7F
FC7F
FC7F
0000
0000
0000
FC7F
FC7F
FC7F
1C70
1C70
ENDCHAR
STARTCHAR upblock
ENCODING 9600
SWIDTH 1333 0
DWIDTH 16 0
BBX 16 12 0 -2
BITMAP
FFFF
FFFF
FFFF
FFFF
FFFF
FFFF
0000
0000
0000
0000
0000
0000
ENDCHAR
STARTCHAR dnblock
ENCODING 9604
SWIDTH 1333 0
DWIDTH 16 0
BBX 16 12 0 -2
BITMAP
0000
0000
0000
0000
0000
0000
FFFF
FFFF
FFFF
FFFF
FFFF
FFFF
ENDCHAR
STARTCHAR block
ENCODING 9608
SWIDTH 1333 0
DWIDTH 16 0
BBX 16 12 0 -2
BITMAP
FFFF
FFFF
FFFF
FFFF
FFFF
FFFF
FFFF
FFFF
FFFF
FFFF
FFFF
FFFF
ENDCHAR
STARTCHAR lfblock
ENCODING 9612
SWIDTH 1333 0
DWIDTH 16 0
BBX 16 12 0 -2
BITMAP
FF00
FF00
FF00
FF00
FF00
FF00
FF00
FF00
FF00
FF00
FF00
FF00
ENDCHAR
STARTCHAR rtblock
ENCODING 9616
SWIDTH 1333 0
DWIDTH 16 0
BBX 16 12 0 -2
BITMAP
00FF
00FF
00FF
00FF
00FF
00FF
00FF
00FF
00FF
00FF
00FF
00FF
ENDCHAR
STARTCHAR ltshade
ENCODING 9617
SWIDTH 1333 0
DWIDTH 16 0
BBX 16 12 0 -2
BITMAP
8888
0000
2222
0000
8888
0000
2222
0000
8888
0000
2222
0000
ENDCHAR
STARTCHAR shade
ENCODING 9618
SWIDTH 1333 0
DWIDTH 16 0
BBX 16 12 0 -2
BITMAP
AAAA
5555
AAAA
5555
AAAA
5555
AAAA
5555
AAAA
5555
AAAA
5555
ENDCHAR
STARTCHAR dkshade
ENCODING 9619
SWIDTH 1333 0
DWIDTH 16 0
BBX 16 12 0 -2
BITMAP
7777
FFFF
DDDD
FFFF
7777
FFFF
DDDD
FFFF
7777
FFFF
DDDD
FFFF
ENDCHAR
STARTCHAR filledbox
ENCODING 9632
SWIDTH 1333 0
DWIDTH 16 0
BBX 16 12 0 -2
BITMAP
0000
0000
1FF8
1FF8
1FF8
1FF8
1FF8
1FF8
1FF8
1FF8
1FF8
0000
ENDCHAR
STARTCHAR filledrect
ENCODING 9644
SWIDTH 1333 0
DWIDTH 16 0
BBX 16 12 0 -2
BITMAP
0000
0000
0000
0000
0000
0000
0000
0000
0000
FFFF
FFFF
FFFF
ENDCHAR
STARTCHAR triagup
ENCODING 9650
SWIDTH 1333 0
DWIDTH 16 0
BBX 16 12 0 -2
BITMAP
0000
0100
0380
0380
07C0
07C0
0FE0
0FE0
1FF0
1FF0
0000
0000
ENDCHAR
STARTCHAR triagrt
ENCODING 9658
SWIDTH 1333 0
DWIDTH 16 0
BBX 16 12 0 -2
BITMAP
6000
7800
7F00
7FE0
7FFC
7FFC
7FE0
7F00
7800
6000
0000
0000
ENDCHAR
STARTCHAR triagdn
ENCODING 9660
SWIDTH 1333 0
DWIDTH 16 0
BBX 16 12 0 -2
BITMAP
0000
1FF0
1FF0
0FE0
0FE0
07C0
07C0
0380
0380
0100
0000
0000
ENDCHAR
STARTCHAR triaglf
ENCODING 9668
SWIDTH 1333 0
DWIDTH 16 0
BBX 16 12 0 -2
BITMAP
000C
003C
01FC
0FFC
7FFC
7FFC
0FFC
01FC
003C
000C
0000
0000
ENDCHAR
STARTCHAR circle
ENCODING 9675
SWIDTH 1333 0
DWIDTH 16 0
BBX 16 12 0 -2
BITMAP
0000
03C0
0FF0
0C30
1818
1818
1818
1818
0C30
0FF0
03C0
0000
ENDCHAR
STARTCHAR invbullet
ENCODING 9688
SWIDTH 1333 0
DWIDTH 16 0
BBX 16 12 0 -2
BITMAP
FFFF
FFFF
FFFF
FC3F
F81F
F81F
F81F
F81F
FC3F
FFFF
FFFF
FFFF
ENDCHAR
STARTCHAR invcircle
ENCODING 9689
SWIDTH 1333 0
DWIDTH 16 0
BBX 16 12 0 -2
BITMAP
FFFF
FC3F
F00F
F3CF
E7E7
E7E7
E7E7
E7E7
F3CF
F00F
FC3F
FFFF
ENDCHAR
STARTCHAR smileface
ENCODING 9786
SWIDTH 1333 0
DWIDTH 16 0
BBX 16 12 0 -2
BITMAP
07F8
0FFC
1806
3333
3003
3213
361B
11E3
1866
0FFC
07F8
0000
ENDCHAR
STARTCHAR invsmileface
ENCODING 9787
SWIDTH 1333 0
DWIDTH 16 0
BBX 16 12 0 -2
BITMAP
07F8
0FFC
1FFE
3CCF
3FFF
3DEF
39E7
3E1F
1F9E
0FFC
07F8
0000
ENDCHAR
STARTCHAR sun
ENCODING 9788
SWIDTH 1333 0
DWIDTH 16 0
BBX 16 12 0 -2
BITMAP
00C0
18C6
0CCC
0738
0210
3C0F
3C0F
0210
0738
0CCC
18C6
00C0
ENDCHAR
STARTCHAR female
ENCODING 9792
SWIDTH 1333 0
DWIDTH 16 0
BBX 16 12 0 -2
BITMAP
07E0
0FF0
1C38
1818
1818
1C38
0FF0
07E0
0180
07E0
07E0
0180
ENDCHAR
STARTCHAR male
ENCODING 9794
SWIDTH 1333 0
DWIDTH 16 0
BBX 16 12 0 -2
BITMAP
00FC
003C
0074
00E4
0FC0
1FE0
3870
3030
3870
1FE0
0FC0
0000
ENDCHAR
STARTCHAR spade
ENCODING 9824
SWIDTH 1333 0
DWIDTH 16 0
BBX 16 12 0 -2
BITMAP
00C0
01E0
07F8
0FFC
1FFE
1FFE
1FFE
1F3E
0FFC
00C0
03F0
0000
ENDCHAR
STARTCHAR club
ENCODING 9827
SWIDTH 1333 0
DWIDTH 16 0
BBX 16 12 0 -2
BITMAP
01E0
03F0
01E0
1DEE
3EDF
3FFF
3EDF
1CCE
01E0
07F8
07F8
0000
ENDCHAR
STARTCHAR heart
ENCODING 9829
SWIDTH 1333 0
DWIDTH 16 0
BBX 16 12 0 -2
BITMAP
0E38
1F7C
3FFE
3FFE
3FFE
3FFE
1FFC
0FF8
03E0
01C0
0080
0000
ENDCHAR
STARTCHAR diamond
ENCODING 9830
SWIDTH 1333 0
DWIDTH 16 0
BBX 16 12 0 -2
BITMAP
0080
01C0
03E0
07F0
0FF8
1FFC
0FF8
07F0
03E0
01C0
0080
0000
ENDCHAR
STARTCHAR musicalnote
ENCODING 9834
SWIDTH 1333 0
DWIDTH 16 0
BBX 16 12 0 -2
BITMAP
00C0
00E0
00F0
00D8
00CC
00CC
00C0
03C0
07C0
07C0
0380
0000
ENDCHAR
STARTCHAR musicalnotedbl
ENCODING 9835
SWIDTH 1333 0
DWIDTH 16 0
BBX 16 12 0 -2
BITMAP
0780
0678
0618
0798
0678
0618
0618
1E18
3E78
3EF8
1CF8
0070
ENDCHAR
STARTCHAR uni3044
ENCODING 12356
SWIDTH 1333 0
DWIDTH 16 0
BBX 16 12 0 -2
BITMAP
0000
0000
0000
0000
0000
0000
0000
0000
0000
0000
0000
0000
ENDCHAR
STARTCHAR uni3046
ENCODING 12358
SWIDTH 1333 0
DWIDTH 16 0
BBX 16 12 0 -2
BITMAP
0000
0000
0000
0000
0000
0000
0000
0000
0000
0000
0000
0000
ENDCHAR
STARTCHAR uni304B
ENCODING 12363
SWIDTH 1333 0
DWIDTH 16 0
BBX 16 12 0 -2
BITMAP
0000
0000
0000
0000
0000
0000
0000
0000
0000
0000
0000
0000
ENDCHAR
STARTCHAR uni3057
ENCODING 12375
SWIDTH 1333 0
DWIDTH 16 0
BBX 16 12 0 -2
BITMAP
0000
0000
0000
0000
0000
0000
0000
0000
0000
0000
0000
0000
ENDCHAR
STARTCHAR uni306E
ENCODING 12398
SWIDTH 1333 0
DWIDTH 16 0
BBX 16 12 0 -2
BITMAP
0000
0000
0000
0000
0000
0000
0000
0000
0000
0000
0000
0000
ENDCHAR
STARTCHAR uni3093
ENCODING 12435
SWIDTH 1333 0
DWIDTH 16 0
BBX 16 12 0 -2
BITMAP
0000
0000
0000
0000
0000
0000
0000
0000
0000
0000
0000
0000
ENDCHAR
STARTCHAR .notdef
ENCODING -1
SWIDTH 1333 0
DWIDTH 16 0
BBX 15 9 1 0
BITMAP
FFFE
8002
8002
8002
8002
8002
8002
8002
FFFE
ENDCHAR
ENDFONT
