STARTFONT 2.1
FONT Bm437_HP_100LX_6x8-8px
SIZE 8 75 75
FONTBOUNDINGBOX 6 8 0 -1
STARTPROPERTIES 3
PIXEL_SIZE 8
FONT_ASCENT 7
FONT_DESCENT 1
ENDPROPERTIES
CHARS 295
STARTCHAR uni0000
ENCODING 0
SWIDTH 750 0
DWIDTH 6 0
BBX 6 8 0 -1
BITMAP
00
00
00
00
00
00
00
00
ENDCHAR
STARTCHAR uni0001
ENCODING 1
SWIDTH 750 0
DWIDTH 6 0
BBX 6 8 0 -1
BITMAP
38
44
6C
44
54
44
38
00
ENDCHAR
STARTCHAR uni0002
ENCODING 2
SWIDTH 750 0
DWIDTH 6 0
BBX 6 8 0 -1
BITMAP
38
7C
54
7C
6C
7C
38
00
ENDCHAR
STARTCHAR uni0003
ENCODING 3
SWIDTH 750 0
DWIDTH 6 0
BBX 6 8 0 -1
BITMAP
00
28
7C
7C
7C
38
10
00
ENDCHAR
STARTCHAR uni0004
ENCODING 4
SWIDTH 750 0
DWIDTH 6 0
BBX 6 8 0 -1
BITMAP
00
10
38
7C
7C
38
10
00
ENDCHAR
STARTCHAR uni0005
ENCODING 5
SWIDTH 750 0
DWIDTH 6 0
BBX 6 8 0 -1
BITMAP
00
38
38
7C
6C
10
38
00
ENDCHAR
STARTCHAR uni0006
ENCODING 6
SWIDTH 750 0
DWIDTH 6 0
BBX 6 8 0 -1
BITMAP
00
10
38
7C
6C
10
38
00
ENDCHAR
STARTCHAR uni0007
ENCODING 7
SWIDTH 750 0
DWIDTH 6 0
BBX 6 8 0 -1
BITMAP
00
00
00
30
30
00
00
00
ENDCHAR
STARTCHAR uni0008
ENCODING 8
SWIDTH 750 0
DWIDTH 6 0
BBX 6 8 0 -1
BITMAP
FC
FC
FC
CC
CC
FC
FC
FC
ENDCHAR
STARTCHAR uni0009
ENCODING 9
SWIDTH 750 0
DWIDTH 6 0
BBX 6 8 0 -1
BITMAP
00
00
30
48
48
30
00
00
ENDCHAR
STARTCHAR uni000A
ENCODING 10
SWIDTH 750 0
DWIDTH 6 0
BBX 6 8 0 -1
BITMAP
FC
FC
CC
B4
B4
CC
FC
FC
ENDCHAR
STARTCHAR uni000B
ENCODING 11
SWIDTH 750 0
DWIDTH 6 0
BBX 6 8 0 -1
BITMAP
1C
0C
14
70
88
88
88
70
ENDCHAR
STARTCHAR uni000C
ENCODING 12
SWIDTH 750 0
DWIDTH 6 0
BBX 6 8 0 -1
BITMAP
38
44
44
44
38
10
38
10
ENDCHAR
STARTCHAR uni000D
ENCODING 13
SWIDTH 750 0
DWIDTH 6 0
BBX 6 8 0 -1
BITMAP
10
18
14
10
10
70
60
00
ENDCHAR
STARTCHAR uni000E
ENCODING 14
SWIDTH 750 0
DWIDTH 6 0
BBX 6 8 0 -1
BITMAP
30
28
34
2C
24
E4
DC
18
ENDCHAR
STARTCHAR uni000F
ENCODING 15
SWIDTH 750 0
DWIDTH 6 0
BBX 6 8 0 -1
BITMAP
00
54
38
6C
38
54
00
00
ENDCHAR
STARTCHAR uni0010
ENCODING 16
SWIDTH 750 0
DWIDTH 6 0
BBX 6 8 0 -1
BITMAP
00
60
78
7C
78
60
00
00
ENDCHAR
STARTCHAR uni0011
ENCODING 17
SWIDTH 750 0
DWIDTH 6 0
BBX 6 8 0 -1
BITMAP
00
0C
3C
7C
3C
0C
00
00
ENDCHAR
STARTCHAR uni0012
ENCODING 18
SWIDTH 750 0
DWIDTH 6 0
BBX 6 8 0 -1
BITMAP
10
38
7C
10
7C
38
10
00
ENDCHAR
STARTCHAR uni0013
ENCODING 19
SWIDTH 750 0
DWIDTH 6 0
BBX 6 8 0 -1
BITMAP
28
28
28
28
28
00
28
00
ENDCHAR
STARTCHAR uni0014
ENCODING 20
SWIDTH 750 0
DWIDTH 6 0
BBX 6 8 0 -1
BITMAP
3C
54
54
34
14
14
14
00
ENDCHAR
STARTCHAR uni0015
ENCODING 21
SWIDTH 750 0
DWIDTH 6 0
BBX 6 8 0 -1
BITMAP
38
44
30
48
48
30
88
70
ENDCHAR
STARTCHAR uni0016
ENCODING 22
SWIDTH 750 0
DWIDTH 6 0
BBX 6 8 0 -1
BITMAP
00
00
00
00
00
7C
7C
7C
ENDCHAR
STARTCHAR uni0017
ENCODING 23
SWIDTH 750 0
DWIDTH 6 0
BBX 6 8 0 -1
BITMAP
10
38
7C
10
7C
38
10
7C
ENDCHAR
STARTCHAR uni0018
ENCODING 24
SWIDTH 750 0
DWIDTH 6 0
BBX 6 8 0 -1
BITMAP
00
10
38
7C
10
10
10
10
ENDCHAR
STARTCHAR uni0019
ENCODING 25
SWIDTH 750 0
DWIDTH 6 0
BBX 6 8 0 -1
BITMAP
10
10
10
10
7C
38
10
00
ENDCHAR
STARTCHAR uni001A
ENCODING 26
SWIDTH 750 0
DWIDTH 6 0
BBX 6 8 0 -1
BITMAP
00
10
18
FC
18
10
00
00
ENDCHAR
STARTCHAR uni001B
ENCODING 27
SWIDTH 750 0
DWIDTH 6 0
BBX 6 8 0 -1
BITMAP
00
20
60
FC
60
20
00
00
ENDCHAR
STARTCHAR uni001C
ENCODING 28
SWIDTH 750 0
DWIDTH 6 0
BBX 6 8 0 -1
BITMAP
40
40
40
7C
00
00
00
00
ENDCHAR
STARTCHAR uni001D
ENCODING 29
SWIDTH 750 0
DWIDTH 6 0
BBX 6 8 0 -1
BITMAP
00
00
48
FC
48
00
00
00
ENDCHAR
STARTCHAR uni001E
ENCODING 30
SWIDTH 750 0
DWIDTH 6 0
BBX 6 8 0 -1
BITMAP
00
10
10
38
38
7C
7C
00
ENDCHAR
STARTCHAR uni001F
ENCODING 31
SWIDTH 750 0
DWIDTH 6 0
BBX 6 8 0 -1
BITMAP
00
7C
7C
38
38
10
10
00
ENDCHAR
STARTCHAR space
ENCODING 32
SWIDTH 750 0
DWIDTH 6 0
BBX 6 8 0 -1
BITMAP
00
00
00
00
00
00
00
00
ENDCHAR
STARTCHAR exclam
ENCODING 33
SWIDTH 750 0
DWIDTH 6 0
BBX 6 8 0 -1
BITMAP
10
10
10
10
10
00
10
00
ENDCHAR
STARTCHAR quotedbl
ENCODING 34
SWIDTH 750 0
DWIDTH 6 0
BBX 6 8 0 -1
BITMAP
28
28
28
00
00
00
00
00
ENDCHAR
STARTCHAR numbersign
ENCODING 35
SWIDTH 750 0
DWIDTH 6 0
BBX 6 8 0 -1
BITMAP
28
28
7C
28
7C
28
28
00
ENDCHAR
STARTCHAR dollar
ENCODING 36
SWIDTH 750 0
DWIDTH 6 0
BBX 6 8 0 -1
BITMAP
10
3C
40
38
04
78
10
00
ENDCHAR
STARTCHAR percent
ENCODING 37
SWIDTH 750 0
DWIDTH 6 0
BBX 6 8 0 -1
BITMAP
20
54
28
10
28
54
08
00
ENDCHAR
STARTCHAR ampersand
ENCODING 38
SWIDTH 750 0
DWIDTH 6 0
BBX 6 8 0 -1
BITMAP
20
50
50
20
54
48
34
00
ENDCHAR
STARTCHAR quotesingle
ENCODING 39
SWIDTH 750 0
DWIDTH 6 0
BBX 6 8 0 -1
BITMAP
30
30
10
20
00
00
00
00
ENDCHAR
STARTCHAR parenleft
ENCODING 40
SWIDTH 750 0
DWIDTH 6 0
BBX 6 8 0 -1
BITMAP
10
20
20
20
20
20
10
00
ENDCHAR
STARTCHAR parenright
ENCODING 41
SWIDTH 750 0
DWIDTH 6 0
BBX 6 8 0 -1
BITMAP
10
08
08
08
08
08
10
00
ENDCHAR
STARTCHAR asterisk
ENCODING 42
SWIDTH 750 0
DWIDTH 6 0
BBX 6 8 0 -1
BITMAP
00
28
10
7C
10
28
00
00
ENDCHAR
STARTCHAR plus
ENCODING 43
SWIDTH 750 0
DWIDTH 6 0
BBX 6 8 0 -1
BITMAP
00
10
10
7C
10
10
00
00
ENDCHAR
STARTCHAR comma
ENCODING 44
SWIDTH 750 0
DWIDTH 6 0
BBX 6 8 0 -1
BITMAP
00
00
00
00
00
30
10
20
ENDCHAR
STARTCHAR hyphen
ENCODING 45
SWIDTH 750 0
DWIDTH 6 0
BBX 6 8 0 -1
BITMAP
00
00
00
7C
00
00
00
00
ENDCHAR
STARTCHAR period
ENCODING 46
SWIDTH 750 0
DWIDTH 6 0
BBX 6 8 0 -1
BITMAP
00
00
00
00
00
30
30
00
ENDCHAR
STARTCHAR slash
ENCODING 47
SWIDTH 750 0
DWIDTH 6 0
BBX 6 8 0 -1
BITMAP
00
04
0C
18
30
60
40
00
ENDCHAR
STARTCHAR zero
ENCODING 48
SWIDTH 750 0
DWIDTH 6 0
BBX 6 8 0 -1
BITMAP
38
44
4C
54
64
44
38
00
ENDCHAR
STARTCHAR one
ENCODING 49
SWIDTH 750 0
DWIDTH 6 0
BBX 6 8 0 -1
BITMAP
10
30
10
10
10
10
38
00
ENDCHAR
STARTCHAR two
ENCODING 50
SWIDTH 750 0
DWIDTH 6 0
BBX 6 8 0 -1
BITMAP
38
44
04
18
20
40
7C
00
ENDCHAR
STARTCHAR three
ENCODING 51
SWIDTH 750 0
DWIDTH 6 0
BBX 6 8 0 -1
BITMAP
38
44
04
38
04
44
38
00
ENDCHAR
STARTCHAR four
ENCODING 52
SWIDTH 750 0
DWIDTH 6 0
BBX 6 8 0 -1
BITMAP
08
18
28
48
7C
08
1C
00
ENDCHAR
STARTCHAR five
ENCODING 53
SWIDTH 750 0
DWIDTH 6 0
BBX 6 8 0 -1
BITMAP
7C
40
78
04
04
44
38
00
ENDCHAR
STARTCHAR six
ENCODING 54
SWIDTH 750 0
DWIDTH 6 0
BBX 6 8 0 -1
BITMAP
18
20
40
78
44
44
38
00
ENDCHAR
STARTCHAR seven
ENCODING 55
SWIDTH 750 0
DWIDTH 6 0
BBX 6 8 0 -1
BITMAP
7C
04
08
10
10
10
10
00
ENDCHAR
STARTCHAR eight
ENCODING 56
SWIDTH 750 0
DWIDTH 6 0
BBX 6 8 0 -1
BITMAP
38
44
44
38
44
44
38
00
ENDCHAR
STARTCHAR nine
ENCODING 57
SWIDTH 750 0
DWIDTH 6 0
BBX 6 8 0 -1
BITMAP
38
44
44
3C
04
08
30
00
ENDCHAR
STARTCHAR colon
ENCODING 58
SWIDTH 750 0
DWIDTH 6 0
BBX 6 8 0 -1
BITMAP
00
00
30
30
00
30
30
00
ENDCHAR
STARTCHAR semicolon
ENCODING 59
SWIDTH 750 0
DWIDTH 6 0
BBX 6 8 0 -1
BITMAP
00
00
30
30
00
30
10
20
ENDCHAR
STARTCHAR less
ENCODING 60
SWIDTH 750 0
DWIDTH 6 0
BBX 6 8 0 -1
BITMAP
08
10
20
40
20
10
08
00
ENDCHAR
STARTCHAR equal
ENCODING 61
SWIDTH 750 0
DWIDTH 6 0
BBX 6 8 0 -1
BITMAP
00
00
7C
00
7C
00
00
00
ENDCHAR
STARTCHAR greater
ENCODING 62
SWIDTH 750 0
DWIDTH 6 0
BBX 6 8 0 -1
BITMAP
20
10
08
04
08
10
20
00
ENDCHAR
STARTCHAR question
ENCODING 63
SWIDTH 750 0
DWIDTH 6 0
BBX 6 8 0 -1
BITMAP
38
44
44
08
10
00
10
00
ENDCHAR
STARTCHAR at
ENCODING 64
SWIDTH 750 0
DWIDTH 6 0
BBX 6 8 0 -1
BITMAP
38
44
5C
54
5C
40
3C
00
ENDCHAR
STARTCHAR A
ENCODING 65
SWIDTH 750 0
DWIDTH 6 0
BBX 6 8 0 -1
BITMAP
38
44
44
44
7C
44
44
00
ENDCHAR
STARTCHAR B
ENCODING 66
SWIDTH 750 0
DWIDTH 6 0
BBX 6 8 0 -1
BITMAP
78
44
44
78
44
44
78
00
ENDCHAR
STARTCHAR C
ENCODING 67
SWIDTH 750 0
DWIDTH 6 0
BBX 6 8 0 -1
BITMAP
38
44
40
40
40
44
38
00
ENDCHAR
STARTCHAR D
ENCODING 68
SWIDTH 750 0
DWIDTH 6 0
BBX 6 8 0 -1
BITMAP
70
48
44
44
44
48
70
00
ENDCHAR
STARTCHAR E
ENCODING 69
SWIDTH 750 0
DWIDTH 6 0
BBX 6 8 0 -1
BITMAP
7C
40
40
78
40
40
7C
00
ENDCHAR
STARTCHAR F
ENCODING 70
SWIDTH 750 0
DWIDTH 6 0
BBX 6 8 0 -1
BITMAP
7C
40
40
78
40
40
40
00
ENDCHAR
STARTCHAR G
ENCODING 71
SWIDTH 750 0
DWIDTH 6 0
BBX 6 8 0 -1
BITMAP
38
44
40
40
4C
44
3C
00
ENDCHAR
STARTCHAR H
ENCODING 72
SWIDTH 750 0
DWIDTH 6 0
BBX 6 8 0 -1
BITMAP
44
44
44
7C
44
44
44
00
ENDCHAR
STARTCHAR I
ENCODING 73
SWIDTH 750 0
DWIDTH 6 0
BBX 6 8 0 -1
BITMAP
38
10
10
10
10
10
38
00
ENDCHAR
STARTCHAR J
ENCODING 74
SWIDTH 750 0
DWIDTH 6 0
BBX 6 8 0 -1
BITMAP
04
04
04
04
44
44
38
00
ENDCHAR
STARTCHAR K
ENCODING 75
SWIDTH 750 0
DWIDTH 6 0
BBX 6 8 0 -1
BITMAP
44
48
50
60
50
48
44
00
ENDCHAR
STARTCHAR L
ENCODING 76
SWIDTH 750 0
DWIDTH 6 0
BBX 6 8 0 -1
BITMAP
40
40
40
40
40
40
7C
00
ENDCHAR
STARTCHAR M
ENCODING 77
SWIDTH 750 0
DWIDTH 6 0
BBX 6 8 0 -1
BITMAP
44
6C
6C
54
54
44
44
00
ENDCHAR
STARTCHAR N
ENCODING 78
SWIDTH 750 0
DWIDTH 6 0
BBX 6 8 0 -1
BITMAP
44
64
64
54
4C
4C
44
00
ENDCHAR
STARTCHAR O
ENCODING 79
SWIDTH 750 0
DWIDTH 6 0
BBX 6 8 0 -1
BITMAP
38
44
44
44
44
44
38
00
ENDCHAR
STARTCHAR P
ENCODING 80
SWIDTH 750 0
DWIDTH 6 0
BBX 6 8 0 -1
BITMAP
78
44
44
78
40
40
40
00
ENDCHAR
STARTCHAR Q
ENCODING 81
SWIDTH 750 0
DWIDTH 6 0
BBX 6 8 0 -1
BITMAP
38
44
44
44
54
48
34
00
ENDCHAR
STARTCHAR R
ENCODING 82
SWIDTH 750 0
DWIDTH 6 0
BBX 6 8 0 -1
BITMAP
78
44
44
78
48
44
44
00
ENDCHAR
STARTCHAR S
ENCODING 83
SWIDTH 750 0
DWIDTH 6 0
BBX 6 8 0 -1
BITMAP
38
44
40
38
04
44
38
00
ENDCHAR
STARTCHAR T
ENCODING 84
SWIDTH 750 0
DWIDTH 6 0
BBX 6 8 0 -1
BITMAP
7C
10
10
10
10
10
10
00
ENDCHAR
STARTCHAR U
ENCODING 85
SWIDTH 750 0
DWIDTH 6 0
BBX 6 8 0 -1
BITMAP
44
44
44
44
44
44
38
00
ENDCHAR
STARTCHAR V
ENCODING 86
SWIDTH 750 0
DWIDTH 6 0
BBX 6 8 0 -1
BITMAP
44
44
44
28
28
10
10
00
ENDCHAR
STARTCHAR W
ENCODING 87
SWIDTH 750 0
DWIDTH 6 0
BBX 6 8 0 -1
BITMAP
44
44
44
54
54
6C
44
00
ENDCHAR
STARTCHAR X
ENCODING 88
SWIDTH 750 0
DWIDTH 6 0
BBX 6 8 0 -1
BITMAP
44
44
28
10
28
44
44
00
ENDCHAR
STARTCHAR Y
ENCODING 89
SWIDTH 750 0
DWIDTH 6 0
BBX 6 8 0 -1
BITMAP
44
44
28
38
10
10
10
00
ENDCHAR
STARTCHAR Z
ENCODING 90
SWIDTH 750 0
DWIDTH 6 0
BBX 6 8 0 -1
BITMAP
7C
04
08
10
20
40
7C
00
ENDCHAR
STARTCHAR bracketleft
ENCODING 91
SWIDTH 750 0
DWIDTH 6 0
BBX 6 8 0 -1
BITMAP
38
20
20
20
20
20
38
00
ENDCHAR
STARTCHAR backslash
ENCODING 92
SWIDTH 750 0
DWIDTH 6 0
BBX 6 8 0 -1
BITMAP
00
40
60
30
18
0C
04
00
ENDCHAR
STARTCHAR bracketright
ENCODING 93
SWIDTH 750 0
DWIDTH 6 0
BBX 6 8 0 -1
BITMAP
38
08
08
08
08
08
38
00
ENDCHAR
STARTCHAR asciicircum
ENCODING 94
SWIDTH 750 0
DWIDTH 6 0
BBX 6 8 0 -1
BITMAP
10
28
44
00
00
00
00
00
ENDCHAR
STARTCHAR underscore
ENCODING 95
SWIDTH 750 0
DWIDTH 6 0
BBX 6 8 0 -1
BITMAP
00
00
00
00
00
00
00
FC
ENDCHAR
STARTCHAR grave
ENCODING 96
SWIDTH 750 0
DWIDTH 6 0
BBX 6 8 0 -1
BITMAP
10
08
00
00
00
00
00
00
ENDCHAR
STARTCHAR a
ENCODING 97
SWIDTH 750 0
DWIDTH 6 0
BBX 6 8 0 -1
BITMAP
00
00
38
04
3C
44
3C
00
ENDCHAR
STARTCHAR b
ENCODING 98
SWIDTH 750 0
DWIDTH 6 0
BBX 6 8 0 -1
BITMAP
40
40
58
64
44
64
58
00
ENDCHAR
STARTCHAR c
ENCODING 99
SWIDTH 750 0
DWIDTH 6 0
BBX 6 8 0 -1
BITMAP
00
00
38
44
40
44
38
00
ENDCHAR
STARTCHAR d
ENCODING 100
SWIDTH 750 0
DWIDTH 6 0
BBX 6 8 0 -1
BITMAP
04
04
34
4C
44
4C
34
00
ENDCHAR
STARTCHAR e
ENCODING 101
SWIDTH 750 0
DWIDTH 6 0
BBX 6 8 0 -1
BITMAP
00
00
38
44
7C
40
38
00
ENDCHAR
STARTCHAR f
ENCODING 102
SWIDTH 750 0
DWIDTH 6 0
BBX 6 8 0 -1
BITMAP
18
24
20
70
20
20
20
00
ENDCHAR
STARTCHAR g
ENCODING 103
SWIDTH 750 0
DWIDTH 6 0
BBX 6 8 0 -1
BITMAP
00
00
34
4C
44
3C
04
38
ENDCHAR
STARTCHAR h
ENCODING 104
SWIDTH 750 0
DWIDTH 6 0
BBX 6 8 0 -1
BITMAP
40
40
58
64
44
44
44
00
ENDCHAR
STARTCHAR i
ENCODING 105
SWIDTH 750 0
DWIDTH 6 0
BBX 6 8 0 -1
BITMAP
10
00
30
10
10
10
38
00
ENDCHAR
STARTCHAR j
ENCODING 106
SWIDTH 750 0
DWIDTH 6 0
BBX 6 8 0 -1
BITMAP
08
00
18
08
08
08
48
30
ENDCHAR
STARTCHAR k
ENCODING 107
SWIDTH 750 0
DWIDTH 6 0
BBX 6 8 0 -1
BITMAP
40
40
48
50
60
50
48
00
ENDCHAR
STARTCHAR l
ENCODING 108
SWIDTH 750 0
DWIDTH 6 0
BBX 6 8 0 -1
BITMAP
30
10
10
10
10
10
38
00
ENDCHAR
STARTCHAR m
ENCODING 109
SWIDTH 750 0
DWIDTH 6 0
BBX 6 8 0 -1
BITMAP
00
00
68
54
54
54
54
00
ENDCHAR
STARTCHAR n
ENCODING 110
SWIDTH 750 0
DWIDTH 6 0
BBX 6 8 0 -1
BITMAP
00
00
58
64
44
44
44
00
ENDCHAR
STARTCHAR o
ENCODING 111
SWIDTH 750 0
DWIDTH 6 0
BBX 6 8 0 -1
BITMAP
00
00
38
44
44
44
38
00
ENDCHAR
STARTCHAR p
ENCODING 112
SWIDTH 750 0
DWIDTH 6 0
BBX 6 8 0 -1
BITMAP
00
00
58
64
44
64
58
40
ENDCHAR
STARTCHAR q
ENCODING 113
SWIDTH 750 0
DWIDTH 6 0
BBX 6 8 0 -1
BITMAP
00
00
34
4C
44
4C
34
04
ENDCHAR
STARTCHAR r
ENCODING 114
SWIDTH 750 0
DWIDTH 6 0
BBX 6 8 0 -1
BITMAP
00
00
58
24
20
20
70
00
ENDCHAR
STARTCHAR s
ENCODING 115
SWIDTH 750 0
DWIDTH 6 0
BBX 6 8 0 -1
BITMAP
00
00
3C
40
38
04
78
00
ENDCHAR
STARTCHAR t
ENCODING 116
SWIDTH 750 0
DWIDTH 6 0
BBX 6 8 0 -1
BITMAP
20
20
70
20
20
24
18
00
ENDCHAR
STARTCHAR u
ENCODING 117
SWIDTH 750 0
DWIDTH 6 0
BBX 6 8 0 -1
BITMAP
00
00
44
44
44
4C
34
00
ENDCHAR
STARTCHAR v
ENCODING 118
SWIDTH 750 0
DWIDTH 6 0
BBX 6 8 0 -1
BITMAP
00
00
44
44
44
28
10
00
ENDCHAR
STARTCHAR w
ENCODING 119
SWIDTH 750 0
DWIDTH 6 0
BBX 6 8 0 -1
BITMAP
00
00
44
44
54
54
28
00
ENDCHAR
STARTCHAR x
ENCODING 120
SWIDTH 750 0
DWIDTH 6 0
BBX 6 8 0 -1
BITMAP
00
00
44
28
10
28
44
00
ENDCHAR
STARTCHAR y
ENCODING 121
SWIDTH 750 0
DWIDTH 6 0
BBX 6 8 0 -1
BITMAP
00
00
44
44
44
3C
04
38
ENDCHAR
STARTCHAR z
ENCODING 122
SWIDTH 750 0
DWIDTH 6 0
BBX 6 8 0 -1
BITMAP
00
00
7C
08
10
20
7C
00
ENDCHAR
STARTCHAR braceleft
ENCODING 123
SWIDTH 750 0
DWIDTH 6 0
BBX 6 8 0 -1
BITMAP
18
20
20
40
20
20
18
00
ENDCHAR
STARTCHAR bar
ENCODING 124
SWIDTH 750 0
DWIDTH 6 0
BBX 6 8 0 -1
BITMAP
10
10
10
10
10
10
10
00
ENDCHAR
STARTCHAR braceright
ENCODING 125
SWIDTH 750 0
DWIDTH 6 0
BBX 6 8 0 -1
BITMAP
30
08
08
04
08
08
30
00
ENDCHAR
STARTCHAR asciitilde
ENCODING 126
SWIDTH 750 0
DWIDTH 6 0
BBX 6 8 0 -1
BITMAP
20
54
08
00
00
00
00
00
ENDCHAR
STARTCHAR uni007F
ENCODING 127
SWIDTH 750 0
DWIDTH 6 0
BBX 6 8 0 -1
BITMAP
00
10
28
44
44
44
7C
00
ENDCHAR
STARTCHAR uni00A0
ENCODING 160
SWIDTH 750 0
DWIDTH 6 0
BBX 6 8 0 -1
BITMAP
00
00
00
00
00
00
00
00
ENDCHAR
STARTCHAR exclamdown
ENCODING 161
SWIDTH 750 0
DWIDTH 6 0
BBX 6 8 0 -1
BITMAP
10
00
10
10
10
10
10
00
ENDCHAR
STARTCHAR cent
ENCODING 162
SWIDTH 750 0
DWIDTH 6 0
BBX 6 8 0 -1
BITMAP
00
10
38
44
40
44
38
10
ENDCHAR
STARTCHAR sterling
ENCODING 163
SWIDTH 750 0
DWIDTH 6 0
BBX 6 8 0 -1
BITMAP
18
24
20
78
20
20
7C
00
ENDCHAR
STARTCHAR yen
ENCODING 165
SWIDTH 750 0
DWIDTH 6 0
BBX 6 8 0 -1
BITMAP
44
28
10
7C
10
7C
10
10
ENDCHAR
STARTCHAR section
ENCODING 167
SWIDTH 750 0
DWIDTH 6 0
BBX 6 8 0 -1
BITMAP
38
44
30
48
48
30
88
70
ENDCHAR
STARTCHAR ordfeminine
ENCODING 170
SWIDTH 750 0
DWIDTH 6 0
BBX 6 8 0 -1
BITMAP
38
48
48
34
00
7C
00
00
ENDCHAR
STARTCHAR guillemotleft
ENCODING 171
SWIDTH 750 0
DWIDTH 6 0
BBX 6 8 0 -1
BITMAP
00
24
48
90
48
24
00
00
ENDCHAR
STARTCHAR logicalnot
ENCODING 172
SWIDTH 750 0
DWIDTH 6 0
BBX 6 8 0 -1
BITMAP
00
00
00
F8
08
08
08
00
ENDCHAR
STARTCHAR degree
ENCODING 176
SWIDTH 750 0
DWIDTH 6 0
BBX 6 8 0 -1
BITMAP
30
48
48
30
00
00
00
00
ENDCHAR
STARTCHAR plusminus
ENCODING 177
SWIDTH 750 0
DWIDTH 6 0
BBX 6 8 0 -1
BITMAP
00
10
10
7C
10
10
7C
00
ENDCHAR
STARTCHAR uni00B2
ENCODING 178
SWIDTH 750 0
DWIDTH 6 0
BBX 6 8 0 -1
BITMAP
30
08
10
38
00
00
00
00
ENDCHAR
STARTCHAR mu
ENCODING 181
SWIDTH 750 0
DWIDTH 6 0
BBX 6 8 0 -1
BITMAP
00
00
44
44
44
44
7C
40
ENDCHAR
STARTCHAR paragraph
ENCODING 182
SWIDTH 750 0
DWIDTH 6 0
BBX 6 8 0 -1
BITMAP
3C
54
54
34
14
14
14
00
ENDCHAR
STARTCHAR periodcentered
ENCODING 183
SWIDTH 750 0
DWIDTH 6 0
BBX 6 8 0 -1
BITMAP
00
00
00
20
00
00
00
00
ENDCHAR
STARTCHAR ordmasculine
ENCODING 186
SWIDTH 750 0
DWIDTH 6 0
BBX 6 8 0 -1
BITMAP
30
48
48
30
00
78
00
00
ENDCHAR
STARTCHAR guillemotright
ENCODING 187
SWIDTH 750 0
DWIDTH 6 0
BBX 6 8 0 -1
BITMAP
00
90
48
24
48
90
00
00
ENDCHAR
STARTCHAR onequarter
ENCODING 188
SWIDTH 750 0
DWIDTH 6 0
BBX 6 8 0 -1
BITMAP
40
48
50
20
54
1C
04
00
ENDCHAR
STARTCHAR onehalf
ENCODING 189
SWIDTH 750 0
DWIDTH 6 0
BBX 6 8 0 -1
BITMAP
40
48
50
2C
44
08
0C
00
ENDCHAR
STARTCHAR questiondown
ENCODING 191
SWIDTH 750 0
DWIDTH 6 0
BBX 6 8 0 -1
BITMAP
10
00
10
20
44
44
38
00
ENDCHAR
STARTCHAR Adieresis
ENCODING 196
SWIDTH 750 0
DWIDTH 6 0
BBX 6 8 0 -1
BITMAP
28
38
44
44
7C
44
44
00
ENDCHAR
STARTCHAR Aring
ENCODING 197
SWIDTH 750 0
DWIDTH 6 0
BBX 6 8 0 -1
BITMAP
10
38
44
44
7C
44
44
00
ENDCHAR
STARTCHAR AE
ENCODING 198
SWIDTH 750 0
DWIDTH 6 0
BBX 6 8 0 -1
BITMAP
2C
50
50
7C
50
50
5C
00
ENDCHAR
STARTCHAR Ccedilla
ENCODING 199
SWIDTH 750 0
DWIDTH 6 0
BBX 6 8 0 -1
BITMAP
38
44
40
40
40
44
38
70
ENDCHAR
STARTCHAR Eacute
ENCODING 201
SWIDTH 750 0
DWIDTH 6 0
BBX 6 8 0 -1
BITMAP
1C
7C
40
78
40
40
7C
00
ENDCHAR
STARTCHAR Ntilde
ENCODING 209
SWIDTH 750 0
DWIDTH 6 0
BBX 6 8 0 -1
BITMAP
38
44
64
74
5C
4C
44
00
ENDCHAR
STARTCHAR Odieresis
ENCODING 214
SWIDTH 750 0
DWIDTH 6 0
BBX 6 8 0 -1
BITMAP
28
38
44
44
44
44
38
00
ENDCHAR
STARTCHAR Udieresis
ENCODING 220
SWIDTH 750 0
DWIDTH 6 0
BBX 6 8 0 -1
BITMAP
28
44
44
44
44
44
38
00
ENDCHAR
STARTCHAR germandbls
ENCODING 223
SWIDTH 750 0
DWIDTH 6 0
BBX 6 8 0 -1
BITMAP
00
38
44
58
44
44
D8
00
ENDCHAR
STARTCHAR agrave
ENCODING 224
SWIDTH 750 0
DWIDTH 6 0
BBX 6 8 0 -1
BITMAP
20
10
38
04
3C
44
3C
00
ENDCHAR
STARTCHAR aacute
ENCODING 225
SWIDTH 750 0
DWIDTH 6 0
BBX 6 8 0 -1
BITMAP
08
10
38
04
3C
44
3C
00
ENDCHAR
STARTCHAR acircumflex
ENCODING 226
SWIDTH 750 0
DWIDTH 6 0
BBX 6 8 0 -1
BITMAP
10
28
38
04
3C
44
3C
00
ENDCHAR
STARTCHAR adieresis
ENCODING 228
SWIDTH 750 0
DWIDTH 6 0
BBX 6 8 0 -1
BITMAP
28
00
38
04
3C
44
3C
00
ENDCHAR
STARTCHAR aring
ENCODING 229
SWIDTH 750 0
DWIDTH 6 0
BBX 6 8 0 -1
BITMAP
10
00
38
04
3C
44
3C
00
ENDCHAR
STARTCHAR ae
ENCODING 230
SWIDTH 750 0
DWIDTH 6 0
BBX 6 8 0 -1
BITMAP
00
00
6C
14
7C
50
7C
00
ENDCHAR
STARTCHAR ccedilla
ENCODING 231
SWIDTH 750 0
DWIDTH 6 0
BBX 6 8 0 -1
BITMAP
00
00
38
44
40
44
38
70
ENDCHAR
STARTCHAR egrave
ENCODING 232
SWIDTH 750 0
DWIDTH 6 0
BBX 6 8 0 -1
BITMAP
20
10
38
44
7C
40
38
00
ENDCHAR
STARTCHAR eacute
ENCODING 233
SWIDTH 750 0
DWIDTH 6 0
BBX 6 8 0 -1
BITMAP
08
10
38
44
7C
40
38
00
ENDCHAR
STARTCHAR ecircumflex
ENCODING 234
SWIDTH 750 0
DWIDTH 6 0
BBX 6 8 0 -1
BITMAP
10
28
38
44
7C
40
38
00
ENDCHAR
STARTCHAR edieresis
ENCODING 235
SWIDTH 750 0
DWIDTH 6 0
BBX 6 8 0 -1
BITMAP
28
00
38
44
7C
40
38
00
ENDCHAR
STARTCHAR igrave
ENCODING 236
SWIDTH 750 0
DWIDTH 6 0
BBX 6 8 0 -1
BITMAP
20
10
30
10
10
10
38
00
ENDCHAR
STARTCHAR iacute
ENCODING 237
SWIDTH 750 0
DWIDTH 6 0
BBX 6 8 0 -1
BITMAP
08
10
30
10
10
10
38
00
ENDCHAR
STARTCHAR icircumflex
ENCODING 238
SWIDTH 750 0
DWIDTH 6 0
BBX 6 8 0 -1
BITMAP
10
28
30
10
10
10
38
00
ENDCHAR
STARTCHAR idieresis
ENCODING 239
SWIDTH 750 0
DWIDTH 6 0
BBX 6 8 0 -1
BITMAP
28
00
30
10
10
10
38
00
ENDCHAR
STARTCHAR ntilde
ENCODING 241
SWIDTH 750 0
DWIDTH 6 0
BBX 6 8 0 -1
BITMAP
38
00
58
64
44
44
44
00
ENDCHAR
STARTCHAR ograve
ENCODING 242
SWIDTH 750 0
DWIDTH 6 0
BBX 6 8 0 -1
BITMAP
20
10
38
44
44
44
38
00
ENDCHAR
STARTCHAR oacute
ENCODING 243
SWIDTH 750 0
DWIDTH 6 0
BBX 6 8 0 -1
BITMAP
08
10
38
44
44
44
38
00
ENDCHAR
STARTCHAR ocircumflex
ENCODING 244
SWIDTH 750 0
DWIDTH 6 0
BBX 6 8 0 -1
BITMAP
10
28
38
44
44
44
38
00
ENDCHAR
STARTCHAR odieresis
ENCODING 246
SWIDTH 750 0
DWIDTH 6 0
BBX 6 8 0 -1
BITMAP
28
00
38
44
44
44
38
00
ENDCHAR
STARTCHAR divide
ENCODING 247
SWIDTH 750 0
DWIDTH 6 0
BBX 6 8 0 -1
BITMAP
00
10
00
7C
00
10
00
00
ENDCHAR
STARTCHAR ugrave
ENCODING 249
SWIDTH 750 0
DWIDTH 6 0
BBX 6 8 0 -1
BITMAP
20
10
44
44
44
4C
34
00
ENDCHAR
STARTCHAR uacute
ENCODING 250
SWIDTH 750 0
DWIDTH 6 0
BBX 6 8 0 -1
BITMAP
08
10
44
44
44
4C
34
00
ENDCHAR
STARTCHAR ucircumflex
ENCODING 251
SWIDTH 750 0
DWIDTH 6 0
BBX 6 8 0 -1
BITMAP
10
28
44
44
44
4C
34
00
ENDCHAR
STARTCHAR udieresis
ENCODING 252
SWIDTH 750 0
DWIDTH 6 0
BBX 6 8 0 -1
BITMAP
28
00
44
44
44
4C
34
00
ENDCHAR
STARTCHAR ydieresis
ENCODING 255
SWIDTH 750 0
DWIDTH 6 0
BBX 6 8 0 -1
BITMAP
28
00
44
44
44
3C
04
38
ENDCHAR
STARTCHAR florin
ENCODING 402
SWIDTH 750 0
DWIDTH 6 0
BBX 6 8 0 -1
BITMAP
08
14
10
38
10
10
50
20
ENDCHAR
STARTCHAR Gamma
ENCODING 915
SWIDTH 750 0
DWIDTH 6 0
BBX 6 8 0 -1
BITMAP
7C
40
40
40
40
40
40
00
ENDCHAR
STARTCHAR Theta
ENCODING 920
SWIDTH 750 0
DWIDTH 6 0
BBX 6 8 0 -1
BITMAP
38
44
44
7C
44
44
38
00
ENDCHAR
STARTCHAR Sigma
ENCODING 931
SWIDTH 750 0
DWIDTH 6 0
BBX 6 8 0 -1
BITMAP
7C
40
20
10
20
40
7C
00
ENDCHAR
STARTCHAR Phi
ENCODING 934
SWIDTH 750 0
DWIDTH 6 0
BBX 6 8 0 -1
BITMAP
38
38
54
54
54
38
38
00
ENDCHAR
STARTCHAR uni03A9
ENCODING 937
SWIDTH 750 0
DWIDTH 6 0
BBX 6 8 0 -1
BITMAP
38
44
44
44
44
28
6C
00
ENDCHAR
STARTCHAR alpha
ENCODING 945
SWIDTH 750 0
DWIDTH 6 0
BBX 6 8 0 -1
BITMAP
00
00
34
48
48
48
34
00
ENDCHAR
STARTCHAR delta
ENCODING 948
SWIDTH 750 0
DWIDTH 6 0
BBX 6 8 0 -1
BITMAP
18
24
38
44
44
44
38
00
ENDCHAR
STARTCHAR epsilon
ENCODING 949
SWIDTH 750 0
DWIDTH 6 0
BBX 6 8 0 -1
BITMAP
18
20
40
78
40
20
18
00
ENDCHAR
STARTCHAR pi
ENCODING 960
SWIDTH 750 0
DWIDTH 6 0
BBX 6 8 0 -1
BITMAP
00
00
FC
48
48
48
48
00
ENDCHAR
STARTCHAR sigma
ENCODING 963
SWIDTH 750 0
DWIDTH 6 0
BBX 6 8 0 -1
BITMAP
00
00
3C
48
44
44
38
00
ENDCHAR
STARTCHAR tau
ENCODING 964
SWIDTH 750 0
DWIDTH 6 0
BBX 6 8 0 -1
BITMAP
00
00
34
58
10
10
10
00
ENDCHAR
STARTCHAR phi
ENCODING 966
SWIDTH 750 0
DWIDTH 6 0
BBX 6 8 0 -1
BITMAP
00
08
38
54
54
54
38
20
ENDCHAR
STARTCHAR bullet
ENCODING 8226
SWIDTH 750 0
DWIDTH 6 0
BBX 6 8 0 -1
BITMAP
00
00
00
30
30
00
00
00
ENDCHAR
STARTCHAR exclamdbl
ENCODING 8252
SWIDTH 750 0
DWIDTH 6 0
BBX 6 8 0 -1
BITMAP
28
28
28
28
28
00
28
00
ENDCHAR
STARTCHAR uni207F
ENCODING 8319
SWIDTH 750 0
DWIDTH 6 0
BBX 6 8 0 -1
BITMAP
28
34
24
24
00
00
00
00
ENDCHAR
STARTCHAR peseta
ENCODING 8359
SWIDTH 750 0
DWIDTH 6 0
BBX 6 8 0 -1
BITMAP
70
48
48
70
48
5C
48
0C
ENDCHAR
STARTCHAR arrowleft
ENCODING 8592
SWIDTH 750 0
DWIDTH 6 0
BBX 6 8 0 -1
BITMAP
00
20
60
FC
60
20
00
00
ENDCHAR
STARTCHAR arrowup
ENCODING 8593
SWIDTH 750 0
DWIDTH 6 0
BBX 6 8 0 -1
BITMAP
00
10
38
7C
10
10
10
10
ENDCHAR
STARTCHAR arrowright
ENCODING 8594
SWIDTH 750 0
DWIDTH 6 0
BBX 6 8 0 -1
BITMAP
00
10
18
FC
18
10
00
00
ENDCHAR
STARTCHAR arrowdown
ENCODING 8595
SWIDTH 750 0
DWIDTH 6 0
BBX 6 8 0 -1
BITMAP
10
10
10
10
7C
38
10
00
ENDCHAR
STARTCHAR arrowboth
ENCODING 8596
SWIDTH 750 0
DWIDTH 6 0
BBX 6 8 0 -1
BITMAP
00
00
48
FC
48
00
00
00
ENDCHAR
STARTCHAR arrowupdn
ENCODING 8597
SWIDTH 750 0
DWIDTH 6 0
BBX 6 8 0 -1
BITMAP
10
38
7C
10
7C
38
10
00
ENDCHAR
STARTCHAR arrowupdnbse
ENCODING 8616
SWIDTH 750 0
DWIDTH 6 0
BBX 6 8 0 -1
BITMAP
10
38
7C
10
7C
38
10
7C
ENDCHAR
STARTCHAR uni2219
ENCODING 8729
SWIDTH 750 0
DWIDTH 6 0
BBX 6 8 0 -1
BITMAP
00
00
00
30
30
00
00
00
ENDCHAR
STARTCHAR radical
ENCODING 8730
SWIDTH 750 0
DWIDTH 6 0
BBX 6 8 0 -1
BITMAP
1C
10
10
10
90
50
30
10
ENDCHAR
STARTCHAR infinity
ENCODING 8734
SWIDTH 750 0
DWIDTH 6 0
BBX 6 8 0 -1
BITMAP
00
00
68
94
94
94
68
00
ENDCHAR
STARTCHAR orthogonal
ENCODING 8735
SWIDTH 750 0
DWIDTH 6 0
BBX 6 8 0 -1
BITMAP
40
40
40
7C
00
00
00
00
ENDCHAR
STARTCHAR intersection
ENCODING 8745
SWIDTH 750 0
DWIDTH 6 0
BBX 6 8 0 -1
BITMAP
38
44
44
44
44
44
44
00
ENDCHAR
STARTCHAR approxequal
ENCODING 8776
SWIDTH 750 0
DWIDTH 6 0
BBX 6 8 0 -1
BITMAP
00
20
54
08
20
54
08
00
ENDCHAR
STARTCHAR equivalence
ENCODING 8801
SWIDTH 750 0
DWIDTH 6 0
BBX 6 8 0 -1
BITMAP
00
7C
00
7C
00
7C
00
00
ENDCHAR
STARTCHAR lessequal
ENCODING 8804
SWIDTH 750 0
DWIDTH 6 0
BBX 6 8 0 -1
BITMAP
08
10
20
40
20
10
08
78
ENDCHAR
STARTCHAR greaterequal
ENCODING 8805
SWIDTH 750 0
DWIDTH 6 0
BBX 6 8 0 -1
BITMAP
20
10
08
04
08
10
20
3C
ENDCHAR
STARTCHAR house
ENCODING 8962
SWIDTH 750 0
DWIDTH 6 0
BBX 6 8 0 -1
BITMAP
00
10
28
44
44
44
7C
00
ENDCHAR
STARTCHAR revlogicalnot
ENCODING 8976
SWIDTH 750 0
DWIDTH 6 0
BBX 6 8 0 -1
BITMAP
00
00
00
7C
40
40
40
00
ENDCHAR
STARTCHAR integraltp
ENCODING 8992
SWIDTH 750 0
DWIDTH 6 0
BBX 6 8 0 -1
BITMAP
00
08
14
14
10
10
10
10
ENDCHAR
STARTCHAR integralbt
ENCODING 8993
SWIDTH 750 0
DWIDTH 6 0
BBX 6 8 0 -1
BITMAP
10
10
10
10
50
50
20
00
ENDCHAR
STARTCHAR SF100000
ENCODING 9472
SWIDTH 750 0
DWIDTH 6 0
BBX 6 8 0 -1
BITMAP
00
00
00
FC
00
00
00
00
ENDCHAR
STARTCHAR SF110000
ENCODING 9474
SWIDTH 750 0
DWIDTH 6 0
BBX 6 8 0 -1
BITMAP
10
10
10
10
10
10
10
10
ENDCHAR
STARTCHAR SF010000
ENCODING 9484
SWIDTH 750 0
DWIDTH 6 0
BBX 6 8 0 -1
BITMAP
00
00
00
1C
10
10
10
10
ENDCHAR
STARTCHAR SF030000
ENCODING 9488
SWIDTH 750 0
DWIDTH 6 0
BBX 6 8 0 -1
BITMAP
00
00
00
F0
10
10
10
10
ENDCHAR
STARTCHAR SF020000
ENCODING 9492
SWIDTH 750 0
DWIDTH 6 0
BBX 6 8 0 -1
BITMAP
10
10
10
1C
00
00
00
00
ENDCHAR
STARTCHAR SF040000
ENCODING 9496
SWIDTH 750 0
DWIDTH 6 0
BBX 6 8 0 -1
BITMAP
10
10
10
F0
00
00
00
00
ENDCHAR
STARTCHAR SF080000
ENCODING 9500
SWIDTH 750 0
DWIDTH 6 0
BBX 6 8 0 -1
BITMAP
10
10
10
1C
10
10
10
10
ENDCHAR
STARTCHAR SF090000
ENCODING 9508
SWIDTH 750 0
DWIDTH 6 0
BBX 6 8 0 -1
BITMAP
10
10
10
F0
10
10
10
10
ENDCHAR
STARTCHAR SF060000
ENCODING 9516
SWIDTH 750 0
DWIDTH 6 0
BBX 6 8 0 -1
BITMAP
00
00
00
FC
10
10
10
10
ENDCHAR
STARTCHAR SF070000
ENCODING 9524
SWIDTH 750 0
DWIDTH 6 0
BBX 6 8 0 -1
BITMAP
10
10
10
FC
00
00
00
00
ENDCHAR
STARTCHAR SF050000
ENCODING 9532
SWIDTH 750 0
DWIDTH 6 0
BBX 6 8 0 -1
BITMAP
10
10
10
FC
10
10
10
10
ENDCHAR
STARTCHAR SF430000
ENCODING 9552
SWIDTH 750 0
DWIDTH 6 0
BBX 6 8 0 -1
BITMAP
00
00
FC
00
FC
00
00
00
ENDCHAR
STARTCHAR SF240000
ENCODING 9553
SWIDTH 750 0
DWIDTH 6 0
BBX 6 8 0 -1
BITMAP
28
28
28
28
28
28
28
28
ENDCHAR
STARTCHAR SF510000
ENCODING 9554
SWIDTH 750 0
DWIDTH 6 0
BBX 6 8 0 -1
BITMAP
00
00
1C
10
1C
10
10
10
ENDCHAR
STARTCHAR SF520000
ENCODING 9555
SWIDTH 750 0
DWIDTH 6 0
BBX 6 8 0 -1
BITMAP
00
00
00
3C
28
28
28
28
ENDCHAR
STARTCHAR SF390000
ENCODING 9556
SWIDTH 750 0
DWIDTH 6 0
BBX 6 8 0 -1
BITMAP
00
00
3C
20
2C
28
28
28
ENDCHAR
STARTCHAR SF220000
ENCODING 9557
SWIDTH 750 0
DWIDTH 6 0
BBX 6 8 0 -1
BITMAP
00
00
F0
10
F0
10
10
10
ENDCHAR
STARTCHAR SF210000
ENCODING 9558
SWIDTH 750 0
DWIDTH 6 0
BBX 6 8 0 -1
BITMAP
00
00
00
F8
28
28
28
28
ENDCHAR
STARTCHAR SF250000
ENCODING 9559
SWIDTH 750 0
DWIDTH 6 0
BBX 6 8 0 -1
BITMAP
00
00
F8
08
E8
28
28
28
ENDCHAR
STARTCHAR SF500000
ENCODING 9560
SWIDTH 750 0
DWIDTH 6 0
BBX 6 8 0 -1
BITMAP
10
10
1C
10
1C
00
00
00
ENDCHAR
STARTCHAR SF490000
ENCODING 9561
SWIDTH 750 0
DWIDTH 6 0
BBX 6 8 0 -1
BITMAP
28
28
28
3C
00
00
00
00
ENDCHAR
STARTCHAR SF380000
ENCODING 9562
SWIDTH 750 0
DWIDTH 6 0
BBX 6 8 0 -1
BITMAP
28
28
2C
20
3C
00
00
00
ENDCHAR
STARTCHAR SF280000
ENCODING 9563
SWIDTH 750 0
DWIDTH 6 0
BBX 6 8 0 -1
BITMAP
10
10
F0
10
F0
00
00
00
ENDCHAR
STARTCHAR SF270000
ENCODING 9564
SWIDTH 750 0
DWIDTH 6 0
BBX 6 8 0 -1
BITMAP
28
28
28
F8
00
00
00
00
ENDCHAR
STARTCHAR SF260000
ENCODING 9565
SWIDTH 750 0
DWIDTH 6 0
BBX 6 8 0 -1
BITMAP
28
28
E8
08
F8
00
00
00
ENDCHAR
STARTCHAR SF360000
ENCODING 9566
SWIDTH 750 0
DWIDTH 6 0
BBX 6 8 0 -1
BITMAP
10
10
1C
10
1C
10
10
10
ENDCHAR
STARTCHAR SF370000
ENCODING 9567
SWIDTH 750 0
DWIDTH 6 0
BBX 6 8 0 -1
BITMAP
28
28
28
2C
28
28
28
28
ENDCHAR
STARTCHAR SF420000
ENCODING 9568
SWIDTH 750 0
DWIDTH 6 0
BBX 6 8 0 -1
BITMAP
28
28
2C
20
2C
28
28
28
ENDCHAR
STARTCHAR SF190000
ENCODING 9569
SWIDTH 750 0
DWIDTH 6 0
BBX 6 8 0 -1
BITMAP
10
10
F0
10
F0
10
10
10
ENDCHAR
STARTCHAR SF200000
ENCODING 9570
SWIDTH 750 0
DWIDTH 6 0
BBX 6 8 0 -1
BITMAP
28
28
28
E8
28
28
28
28
ENDCHAR
STARTCHAR SF230000
ENCODING 9571
SWIDTH 750 0
DWIDTH 6 0
BBX 6 8 0 -1
BITMAP
28
28
E8
08
E8
28
28
28
ENDCHAR
STARTCHAR SF470000
ENCODING 9572
SWIDTH 750 0
DWIDTH 6 0
BBX 6 8 0 -1
BITMAP
00
00
FC
00
FC
10
10
10
ENDCHAR
STARTCHAR SF480000
ENCODING 9573
SWIDTH 750 0
DWIDTH 6 0
BBX 6 8 0 -1
BITMAP
00
00
00
FC
28
28
28
28
ENDCHAR
STARTCHAR SF410000
ENCODING 9574
SWIDTH 750 0
DWIDTH 6 0
BBX 6 8 0 -1
BITMAP
00
00
FC
00
EC
28
28
28
ENDCHAR
STARTCHAR SF450000
ENCODING 9575
SWIDTH 750 0
DWIDTH 6 0
BBX 6 8 0 -1
BITMAP
10
10
FC
00
FC
00
00
00
ENDCHAR
STARTCHAR SF460000
ENCODING 9576
SWIDTH 750 0
DWIDTH 6 0
BBX 6 8 0 -1
BITMAP
28
28
28
FC
00
00
00
00
ENDCHAR
STARTCHAR SF400000
ENCODING 9577
SWIDTH 750 0
DWIDTH 6 0
BBX 6 8 0 -1
BITMAP
28
28
EC
00
FC
00
00
00
ENDCHAR
STARTCHAR SF540000
ENCODING 9578
SWIDTH 750 0
DWIDTH 6 0
BBX 6 8 0 -1
BITMAP
10
10
FC
10
FC
10
10
10
ENDCHAR
STARTCHAR SF530000
ENCODING 9579
SWIDTH 750 0
DWIDTH 6 0
BBX 6 8 0 -1
BITMAP
28
28
28
FC
28
28
28
28
ENDCHAR
STARTCHAR SF440000
ENCODING 9580
SWIDTH 750 0
DWIDTH 6 0
BBX 6 8 0 -1
BITMAP
28
28
EC
00
EC
28
28
28
ENDCHAR
STARTCHAR upblock
ENCODING 9600
SWIDTH 750 0
DWIDTH 6 0
BBX 6 8 0 -1
BITMAP
FC
FC
FC
FC
00
00
00
00
ENDCHAR
STARTCHAR dnblock
ENCODING 9604
SWIDTH 750 0
DWIDTH 6 0
BBX 6 8 0 -1
BITMAP
00
00
00
00
FC
FC
FC
FC
ENDCHAR
STARTCHAR block
ENCODING 9608
SWIDTH 750 0
DWIDTH 6 0
BBX 6 8 0 -1
BITMAP
FC
FC
FC
FC
FC
FC
FC
FC
ENDCHAR
STARTCHAR lfblock
ENCODING 9612
SWIDTH 750 0
DWIDTH 6 0
BBX 6 8 0 -1
BITMAP
E0
E0
E0
E0
E0
E0
E0
E0
ENDCHAR
STARTCHAR rtblock
ENCODING 9616
SWIDTH 750 0
DWIDTH 6 0
BBX 6 8 0 -1
BITMAP
1C
1C
1C
1C
1C
1C
1C
1C
ENDCHAR
STARTCHAR ltshade
ENCODING 9617
SWIDTH 750 0
DWIDTH 6 0
BBX 6 8 0 -1
BITMAP
A8
00
54
00
A8
00
54
00
ENDCHAR
STARTCHAR shade
ENCODING 9618
SWIDTH 750 0
DWIDTH 6 0
BBX 6 8 0 -1
BITMAP
A8
54
A8
54
A8
54
A8
54
ENDCHAR
STARTCHAR dkshade
ENCODING 9619
SWIDTH 750 0
DWIDTH 6 0
BBX 6 8 0 -1
BITMAP
54
FC
A8
FC
54
FC
A8
FC
ENDCHAR
STARTCHAR filledbox
ENCODING 9632
SWIDTH 750 0
DWIDTH 6 0
BBX 6 8 0 -1
BITMAP
00
00
78
78
78
78
00
00
ENDCHAR
STARTCHAR filledrect
ENCODING 9644
SWIDTH 750 0
DWIDTH 6 0
BBX 6 8 0 -1
BITMAP
00
00
00
00
00
7C
7C
7C
ENDCHAR
STARTCHAR triagup
ENCODING 9650
SWIDTH 750 0
DWIDTH 6 0
BBX 6 8 0 -1
BITMAP
00
10
10
38
38
7C
7C
00
ENDCHAR
STARTCHAR triagrt
ENCODING 9658
SWIDTH 750 0
DWIDTH 6 0
BBX 6 8 0 -1
BITMAP
00
60
78
7C
78
60
00
00
ENDCHAR
STARTCHAR triagdn
ENCODING 9660
SWIDTH 750 0
DWIDTH 6 0
BBX 6 8 0 -1
BITMAP
00
7C
7C
38
38
10
10
00
ENDCHAR
STARTCHAR triaglf
ENCODING 9668
SWIDTH 750 0
DWIDTH 6 0
BBX 6 8 0 -1
BITMAP
00
0C
3C
7C
3C
0C
00
00
ENDCHAR
STARTCHAR circle
ENCODING 9675
SWIDTH 750 0
DWIDTH 6 0
BBX 6 8 0 -1
BITMAP
00
00
30
48
48
30
00
00
ENDCHAR
STARTCHAR invbullet
ENCODING 9688
SWIDTH 750 0
DWIDTH 6 0
BBX 6 8 0 -1
BITMAP
FC
FC
FC
CC
CC
FC
FC
FC
ENDCHAR
STARTCHAR invcircle
ENCODING 9689
SWIDTH 750 0
DWIDTH 6 0
BBX 6 8 0 -1
BITMAP
FC
FC
CC
B4
B4
CC
FC
FC
ENDCHAR
STARTCHAR smileface
ENCODING 9786
SWIDTH 750 0
DWIDTH 6 0
BBX 6 8 0 -1
BITMAP
38
44
6C
44
54
44
38
00
ENDCHAR
STARTCHAR invsmileface
ENCODING 9787
SWIDTH 750 0
DWIDTH 6 0
BBX 6 8 0 -1
BITMAP
38
7C
54
7C
6C
7C
38
00
ENDCHAR
STARTCHAR sun
ENCODING 9788
SWIDTH 750 0
DWIDTH 6 0
BBX 6 8 0 -1
BITMAP
00
54
38
6C
38
54
00
00
ENDCHAR
STARTCHAR female
ENCODING 9792
SWIDTH 750 0
DWIDTH 6 0
BBX 6 8 0 -1
BITMAP
38
44
44
44
38
10
38
10
ENDCHAR
STARTCHAR male
ENCODING 9794
SWIDTH 750 0
DWIDTH 6 0
BBX 6 8 0 -1
BITMAP
1C
0C
14
70
88
88
88
70
ENDCHAR
STARTCHAR spade
ENCODING 9824
SWIDTH 750 0
DWIDTH 6 0
BBX 6 8 0 -1
BITMAP
00
10
38
7C
6C
10
38
00
ENDCHAR
STARTCHAR club
ENCODING 9827
SWIDTH 750 0
DWIDTH 6 0
BBX 6 8 0 -1
BITMAP
00
38
38
7C
6C
10
38
00
ENDCHAR
STARTCHAR heart
ENCODING 9829
SWIDTH 750 0
DWIDTH 6 0
BBX 6 8 0 -1
BITMAP
00
28
7C
7C
7C
38
10
00
ENDCHAR
STARTCHAR diamond
ENCODING 9830
SWIDTH 750 0
DWIDTH 6 0
BBX 6 8 0 -1
BITMAP
00
10
38
7C
7C
38
10
00
ENDCHAR
STARTCHAR musicalnote
ENCODING 9834
SWIDTH 750 0
DWIDTH 6 0
BBX 6 8 0 -1
BITMAP
10
18
14
10
10
70
60
00
ENDCHAR
STARTCHAR musicalnotedbl
ENCODING 9835
SWIDTH 750 0
DWIDTH 6 0
BBX 6 8 0 -1
BITMAP
30
28
34
2C
24
E4
DC
18
ENDCHAR
STARTCHAR uni3044
ENCODING 12356
SWIDTH 750 0
DWIDTH 6 0
BBX 6 8 0 -1
BITMAP
00
00
00
00
00
00
00
00
ENDCHAR
STARTCHAR uni3046
ENCODING 12358
SWIDTH 750 0
DWIDTH 6 0
BBX 6 8 0 -1
BITMAP
00
00
00
00
00
00
00
00
ENDCHAR
STARTCHAR uni304B
ENCODING 12363
SWIDTH 750 0
DWIDTH 6 0
BBX 6 8 0 -1
BITMAP
00
00
00
00
00
00
00
00
ENDCHAR
STARTCHAR uni3057
ENCODING 12375
SWIDTH 750 0
DWIDTH 6 0
BBX 6 8 0 -1
BITMAP
00
00
00
00
00
00
00
00
ENDCHAR
STARTCHAR uni306E
ENCODING 12398
SWIDTH 750 0
DWIDTH 6 0
BBX 6 8 0 -1
BITMAP
00
00
00
00
00
00
00
00
ENDCHAR
STARTCHAR uni3093
ENCODING 12435
SWIDTH 750 0
DWIDTH 6 0
BBX 6 8 0 -1
BITMAP
00
00
00
00
00
00
00
00
ENDCHAR
STARTCHAR .notdef
ENCODING -1
SWIDTH 750 0
DWIDTH 6 0
BBX 5 6 1 0
BITMAP
F8
88
88
88
88
F8
ENDCHAR
ENDFONT
