STARTFONT 2.1
FONT Bm437_HP_100LX_6x8-2x-8px
SIZE 8 75 75
FONTBOUNDINGBOX 12 8 0 -1
STARTPROPERTIES 3
PIXEL_SIZE 8
FONT_ASCENT 7
FONT_DESCENT 1
ENDPROPERTIES
CHARS 295
STARTCHAR uni0000
ENCODING 0
SWIDTH 1500 0
DWIDTH 12 0
BBX 12 8 0 -1
BITMAP
0000
0000
0000
0000
0000
0000
0000
0000
ENDCHAR
STARTCHAR uni0001
ENCODING 1
SWIDTH 1500 0
DWIDTH 12 0
BBX 12 8 0 -1
BITMAP
0FC0
3030
3CF0
3030
3330
3030
0FC0
0000
ENDCHAR
STARTCHAR uni0002
ENCODING 2
SWIDTH 1500 0
DWIDTH 12 0
BBX 12 8 0 -1
BITMAP
0FC0
3FF0
3330
3FF0
3CF0
3FF0
0FC0
0000
ENDCHAR
STARTCHAR uni0003
ENCODING 3
SWIDTH 1500 0
DWIDTH 12 0
BBX 12 8 0 -1
BITMAP
0000
0CC0
3FF0
3FF0
3FF0
0FC0
0300
0000
ENDCHAR
STARTCHAR uni0004
ENCODING 4
SWIDTH 1500 0
DWIDTH 12 0
BBX 12 8 0 -1
BITMAP
0000
0300
0FC0
3FF0
3FF0
0FC0
0300
0000
ENDCHAR
STARTCHAR uni0005
ENCODING 5
SWIDTH 1500 0
DWIDTH 12 0
BBX 12 8 0 -1
BITMAP
0000
0FC0
0FC0
3FF0
3CF0
0300
0FC0
0000
ENDCHAR
STARTCHAR uni0006
ENCODING 6
SWIDTH 1500 0
DWIDTH 12 0
BBX 12 8 0 -1
BITMAP
0000
0300
0FC0
3FF0
3CF0
0300
0FC0
0000
ENDCHAR
STARTCHAR uni0007
ENCODING 7
SWIDTH 1500 0
DWIDTH 12 0
BBX 12 8 0 -1
BITMAP
0000
0000
0000
0F00
0F00
0000
0000
0000
ENDCHAR
STARTCHAR uni0008
ENCODING 8
SWIDTH 1500 0
DWIDTH 12 0
BBX 12 8 0 -1
BITMAP
FFF0
FFF0
FFF0
F0F0
F0F0
FFF0
FFF0
FFF0
ENDCHAR
STARTCHAR uni0009
ENCODING 9
SWIDTH 1500 0
DWIDTH 12 0
BBX 12 8 0 -1
BITMAP
0000
0000
0F00
30C0
30C0
0F00
0000
0000
ENDCHAR
STARTCHAR uni000A
ENCODING 10
SWIDTH 1500 0
DWIDTH 12 0
BBX 12 8 0 -1
BITMAP
FFF0
FFF0
F0F0
CF30
CF30
F0F0
FFF0
FFF0
ENDCHAR
STARTCHAR uni000B
ENCODING 11
SWIDTH 1500 0
DWIDTH 12 0
BBX 12 8 0 -1
BITMAP
03F0
00F0
0330
3F00
C0C0
C0C0
C0C0
3F00
ENDCHAR
STARTCHAR uni000C
ENCODING 12
SWIDTH 1500 0
DWIDTH 12 0
BBX 12 8 0 -1
BITMAP
0FC0
3030
3030
3030
0FC0
0300
0FC0
0300
ENDCHAR
STARTCHAR uni000D
ENCODING 13
SWIDTH 1500 0
DWIDTH 12 0
BBX 12 8 0 -1
BITMAP
0300
03C0
0330
0300
0300
3F00
3C00
0000
ENDCHAR
STARTCHAR uni000E
ENCODING 14
SWIDTH 1500 0
DWIDTH 12 0
BBX 12 8 0 -1
BITMAP
0F00
0CC0
0F30
0CF0
0C30
FC30
F3F0
03C0
ENDCHAR
STARTCHAR uni000F
ENCODING 15
SWIDTH 1500 0
DWIDTH 12 0
BBX 12 8 0 -1
BITMAP
0000
3330
0FC0
3CF0
0FC0
3330
0000
0000
ENDCHAR
STARTCHAR uni0010
ENCODING 16
SWIDTH 1500 0
DWIDTH 12 0
BBX 12 8 0 -1
BITMAP
0000
3C00
3FC0
3FF0
3FC0
3C00
0000
0000
ENDCHAR
STARTCHAR uni0011
ENCODING 17
SWIDTH 1500 0
DWIDTH 12 0
BBX 12 8 0 -1
BITMAP
0000
00F0
0FF0
3FF0
0FF0
00F0
0000
0000
ENDCHAR
STARTCHAR uni0012
ENCODING 18
SWIDTH 1500 0
DWIDTH 12 0
BBX 12 8 0 -1
BITMAP
0300
0FC0
3FF0
0300
3FF0
0FC0
0300
0000
ENDCHAR
STARTCHAR uni0013
ENCODING 19
SWIDTH 1500 0
DWIDTH 12 0
BBX 12 8 0 -1
BITMAP
0CC0
0CC0
0CC0
0CC0
0CC0
0000
0CC0
0000
ENDCHAR
STARTCHAR uni0014
ENCODING 20
SWIDTH 1500 0
DWIDTH 12 0
BBX 12 8 0 -1
BITMAP
0FF0
3330
3330
0F30
0330
0330
0330
0000
ENDCHAR
STARTCHAR uni0015
ENCODING 21
SWIDTH 1500 0
DWIDTH 12 0
BBX 12 8 0 -1
BITMAP
0FC0
3030
0F00
30C0
30C0
0F00
C0C0
3F00
ENDCHAR
STARTCHAR uni0016
ENCODING 22
SWIDTH 1500 0
DWIDTH 12 0
BBX 12 8 0 -1
BITMAP
0000
0000
0000
0000
0000
3FF0
3FF0
3FF0
ENDCHAR
STARTCHAR uni0017
ENCODING 23
SWIDTH 1500 0
DWIDTH 12 0
BBX 12 8 0 -1
BITMAP
0300
0FC0
3FF0
0300
3FF0
0FC0
0300
3FF0
ENDCHAR
STARTCHAR uni0018
ENCODING 24
SWIDTH 1500 0
DWIDTH 12 0
BBX 12 8 0 -1
BITMAP
0000
0300
0FC0
3FF0
0300
0300
0300
0300
ENDCHAR
STARTCHAR uni0019
ENCODING 25
SWIDTH 1500 0
DWIDTH 12 0
BBX 12 8 0 -1
BITMAP
0300
0300
0300
0300
3FF0
0FC0
0300
0000
ENDCHAR
STARTCHAR uni001A
ENCODING 26
SWIDTH 1500 0
DWIDTH 12 0
BBX 12 8 0 -1
BITMAP
0000
0300
03C0
FFF0
03C0
0300
0000
0000
ENDCHAR
STARTCHAR uni001B
ENCODING 27
SWIDTH 1500 0
DWIDTH 12 0
BBX 12 8 0 -1
BITMAP
0000
0C00
3C00
FFF0
3C00
0C00
0000
0000
ENDCHAR
STARTCHAR uni001C
ENCODING 28
SWIDTH 1500 0
DWIDTH 12 0
BBX 12 8 0 -1
BITMAP
3000
3000
3000
3FF0
0000
0000
0000
0000
ENDCHAR
STARTCHAR uni001D
ENCODING 29
SWIDTH 1500 0
DWIDTH 12 0
BBX 12 8 0 -1
BITMAP
0000
0000
30C0
FFF0
30C0
0000
0000
0000
ENDCHAR
STARTCHAR uni001E
ENCODING 30
SWIDTH 1500 0
DWIDTH 12 0
BBX 12 8 0 -1
BITMAP
0000
0300
0300
0FC0
0FC0
3FF0
3FF0
0000
ENDCHAR
STARTCHAR uni001F
ENCODING 31
SWIDTH 1500 0
DWIDTH 12 0
BBX 12 8 0 -1
BITMAP
0000
3FF0
3FF0
0FC0
0FC0
0300
0300
0000
ENDCHAR
STARTCHAR space
ENCODING 32
SWIDTH 1500 0
DWIDTH 12 0
BBX 12 8 0 -1
BITMAP
0000
0000
0000
0000
0000
0000
0000
0000
ENDCHAR
STARTCHAR exclam
ENCODING 33
SWIDTH 1500 0
DWIDTH 12 0
BBX 12 8 0 -1
BITMAP
0300
0300
0300
0300
0300
0000
0300
0000
ENDCHAR
STARTCHAR quotedbl
ENCODING 34
SWIDTH 1500 0
DWIDTH 12 0
BBX 12 8 0 -1
BITMAP
0CC0
0CC0
0CC0
0000
0000
0000
0000
0000
ENDCHAR
STARTCHAR numbersign
ENCODING 35
SWIDTH 1500 0
DWIDTH 12 0
BBX 12 8 0 -1
BITMAP
0CC0
0CC0
3FF0
0CC0
3FF0
0CC0
0CC0
0000
ENDCHAR
STARTCHAR dollar
ENCODING 36
SWIDTH 1500 0
DWIDTH 12 0
BBX 12 8 0 -1
BITMAP
0300
0FF0
3000
0FC0
0030
3FC0
0300
0000
ENDCHAR
STARTCHAR percent
ENCODING 37
SWIDTH 1500 0
DWIDTH 12 0
BBX 12 8 0 -1
BITMAP
0C00
3330
0CC0
0300
0CC0
3330
00C0
0000
ENDCHAR
STARTCHAR ampersand
ENCODING 38
SWIDTH 1500 0
DWIDTH 12 0
BBX 12 8 0 -1
BITMAP
0C00
3300
3300
0C00
3330
30C0
0F30
0000
ENDCHAR
STARTCHAR quotesingle
ENCODING 39
SWIDTH 1500 0
DWIDTH 12 0
BBX 12 8 0 -1
BITMAP
0F00
0F00
0300
0C00
0000
0000
0000
0000
ENDCHAR
STARTCHAR parenleft
ENCODING 40
SWIDTH 1500 0
DWIDTH 12 0
BBX 12 8 0 -1
BITMAP
0300
0C00
0C00
0C00
0C00
0C00
0300
0000
ENDCHAR
STARTCHAR parenright
ENCODING 41
SWIDTH 1500 0
DWIDTH 12 0
BBX 12 8 0 -1
BITMAP
0300
00C0
00C0
00C0
00C0
00C0
0300
0000
ENDCHAR
STARTCHAR asterisk
ENCODING 42
SWIDTH 1500 0
DWIDTH 12 0
BBX 12 8 0 -1
BITMAP
0000
0CC0
0300
3FF0
0300
0CC0
0000
0000
ENDCHAR
STARTCHAR plus
ENCODING 43
SWIDTH 1500 0
DWIDTH 12 0
BBX 12 8 0 -1
BITMAP
0000
0300
0300
3FF0
0300
0300
0000
0000
ENDCHAR
STARTCHAR comma
ENCODING 44
SWIDTH 1500 0
DWIDTH 12 0
BBX 12 8 0 -1
BITMAP
0000
0000
0000
0000
0000
0F00
0300
0C00
ENDCHAR
STARTCHAR hyphen
ENCODING 45
SWIDTH 1500 0
DWIDTH 12 0
BBX 12 8 0 -1
BITMAP
0000
0000
0000
3FF0
0000
0000
0000
0000
ENDCHAR
STARTCHAR period
ENCODING 46
SWIDTH 1500 0
DWIDTH 12 0
BBX 12 8 0 -1
BITMAP
0000
0000
0000
0000
0000
0F00
0F00
0000
ENDCHAR
STARTCHAR slash
ENCODING 47
SWIDTH 1500 0
DWIDTH 12 0
BBX 12 8 0 -1
BITMAP
0000
0030
00F0
03C0
0F00
3C00
3000
0000
ENDCHAR
STARTCHAR zero
ENCODING 48
SWIDTH 1500 0
DWIDTH 12 0
BBX 12 8 0 -1
BITMAP
0FC0
3030
30F0
3330
3C30
3030
0FC0
0000
ENDCHAR
STARTCHAR one
ENCODING 49
SWIDTH 1500 0
DWIDTH 12 0
BBX 12 8 0 -1
BITMAP
0300
0F00
0300
0300
0300
0300
0FC0
0000
ENDCHAR
STARTCHAR two
ENCODING 50
SWIDTH 1500 0
DWIDTH 12 0
BBX 12 8 0 -1
BITMAP
0FC0
3030
0030
03C0
0C00
3000
3FF0
0000
ENDCHAR
STARTCHAR three
ENCODING 51
SWIDTH 1500 0
DWIDTH 12 0
BBX 12 8 0 -1
BITMAP
0FC0
3030
0030
0FC0
0030
3030
0FC0
0000
ENDCHAR
STARTCHAR four
ENCODING 52
SWIDTH 1500 0
DWIDTH 12 0
BBX 12 8 0 -1
BITMAP
00C0
03C0
0CC0
30C0
3FF0
00C0
03F0
0000
ENDCHAR
STARTCHAR five
ENCODING 53
SWIDTH 1500 0
DWIDTH 12 0
BBX 12 8 0 -1
BITMAP
3FF0
3000
3FC0
0030
0030
3030
0FC0
0000
ENDCHAR
STARTCHAR six
ENCODING 54
SWIDTH 1500 0
DWIDTH 12 0
BBX 12 8 0 -1
BITMAP
03C0
0C00
3000
3FC0
3030
3030
0FC0
0000
ENDCHAR
STARTCHAR seven
ENCODING 55
SWIDTH 1500 0
DWIDTH 12 0
BBX 12 8 0 -1
BITMAP
3FF0
0030
00C0
0300
0300
0300
0300
0000
ENDCHAR
STARTCHAR eight
ENCODING 56
SWIDTH 1500 0
DWIDTH 12 0
BBX 12 8 0 -1
BITMAP
0FC0
3030
3030
0FC0
3030
3030
0FC0
0000
ENDCHAR
STARTCHAR nine
ENCODING 57
SWIDTH 1500 0
DWIDTH 12 0
BBX 12 8 0 -1
BITMAP
0FC0
3030
3030
0FF0
0030
00C0
0F00
0000
ENDCHAR
STARTCHAR colon
ENCODING 58
SWIDTH 1500 0
DWIDTH 12 0
BBX 12 8 0 -1
BITMAP
0000
0000
0F00
0F00
0000
0F00
0F00
0000
ENDCHAR
STARTCHAR semicolon
ENCODING 59
SWIDTH 1500 0
DWIDTH 12 0
BBX 12 8 0 -1
BITMAP
0000
0000
0F00
0F00
0000
0F00
0300
0C00
ENDCHAR
STARTCHAR less
ENCODING 60
SWIDTH 1500 0
DWIDTH 12 0
BBX 12 8 0 -1
BITMAP
00C0
0300
0C00
3000
0C00
0300
00C0
0000
ENDCHAR
STARTCHAR equal
ENCODING 61
SWIDTH 1500 0
DWIDTH 12 0
BBX 12 8 0 -1
BITMAP
0000
0000
3FF0
0000
3FF0
0000
0000
0000
ENDCHAR
STARTCHAR greater
ENCODING 62
SWIDTH 1500 0
DWIDTH 12 0
BBX 12 8 0 -1
BITMAP
0C00
0300
00C0
0030
00C0
0300
0C00
0000
ENDCHAR
STARTCHAR question
ENCODING 63
SWIDTH 1500 0
DWIDTH 12 0
BBX 12 8 0 -1
BITMAP
0FC0
3030
3030
00C0
0300
0000
0300
0000
ENDCHAR
STARTCHAR at
ENCODING 64
SWIDTH 1500 0
DWIDTH 12 0
BBX 12 8 0 -1
BITMAP
0FC0
3030
33F0
3330
33F0
3000
0FF0
0000
ENDCHAR
STARTCHAR A
ENCODING 65
SWIDTH 1500 0
DWIDTH 12 0
BBX 12 8 0 -1
BITMAP
0FC0
3030
3030
3030
3FF0
3030
3030
0000
ENDCHAR
STARTCHAR B
ENCODING 66
SWIDTH 1500 0
DWIDTH 12 0
BBX 12 8 0 -1
BITMAP
3FC0
3030
3030
3FC0
3030
3030
3FC0
0000
ENDCHAR
STARTCHAR C
ENCODING 67
SWIDTH 1500 0
DWIDTH 12 0
BBX 12 8 0 -1
BITMAP
0FC0
3030
3000
3000
3000
3030
0FC0
0000
ENDCHAR
STARTCHAR D
ENCODING 68
SWIDTH 1500 0
DWIDTH 12 0
BBX 12 8 0 -1
BITMAP
3F00
30C0
3030
3030
3030
30C0
3F00
0000
ENDCHAR
STARTCHAR E
ENCODING 69
SWIDTH 1500 0
DWIDTH 12 0
BBX 12 8 0 -1
BITMAP
3FF0
3000
3000
3FC0
3000
3000
3FF0
0000
ENDCHAR
STARTCHAR F
ENCODING 70
SWIDTH 1500 0
DWIDTH 12 0
BBX 12 8 0 -1
BITMAP
3FF0
3000
3000
3FC0
3000
3000
3000
0000
ENDCHAR
STARTCHAR G
ENCODING 71
SWIDTH 1500 0
DWIDTH 12 0
BBX 12 8 0 -1
BITMAP
0FC0
3030
3000
3000
30F0
3030
0FF0
0000
ENDCHAR
STARTCHAR H
ENCODING 72
SWIDTH 1500 0
DWIDTH 12 0
BBX 12 8 0 -1
BITMAP
3030
3030
3030
3FF0
3030
3030
3030
0000
ENDCHAR
STARTCHAR I
ENCODING 73
SWIDTH 1500 0
DWIDTH 12 0
BBX 12 8 0 -1
BITMAP
0FC0
0300
0300
0300
0300
0300
0FC0
0000
ENDCHAR
STARTCHAR J
ENCODING 74
SWIDTH 1500 0
DWIDTH 12 0
BBX 12 8 0 -1
BITMAP
0030
0030
0030
0030
3030
3030
0FC0
0000
ENDCHAR
STARTCHAR K
ENCODING 75
SWIDTH 1500 0
DWIDTH 12 0
BBX 12 8 0 -1
BITMAP
3030
30C0
3300
3C00
3300
30C0
3030
0000
ENDCHAR
STARTCHAR L
ENCODING 76
SWIDTH 1500 0
DWIDTH 12 0
BBX 12 8 0 -1
BITMAP
3000
3000
3000
3000
3000
3000
3FF0
0000
ENDCHAR
STARTCHAR M
ENCODING 77
SWIDTH 1500 0
DWIDTH 12 0
BBX 12 8 0 -1
BITMAP
3030
3CF0
3CF0
3330
3330
3030
3030
0000
ENDCHAR
STARTCHAR N
ENCODING 78
SWIDTH 1500 0
DWIDTH 12 0
BBX 12 8 0 -1
BITMAP
3030
3C30
3C30
3330
30F0
30F0
3030
0000
ENDCHAR
STARTCHAR O
ENCODING 79
SWIDTH 1500 0
DWIDTH 12 0
BBX 12 8 0 -1
BITMAP
0FC0
3030
3030
3030
3030
3030
0FC0
0000
ENDCHAR
STARTCHAR P
ENCODING 80
SWIDTH 1500 0
DWIDTH 12 0
BBX 12 8 0 -1
BITMAP
3FC0
3030
3030
3FC0
3000
3000
3000
0000
ENDCHAR
STARTCHAR Q
ENCODING 81
SWIDTH 1500 0
DWIDTH 12 0
BBX 12 8 0 -1
BITMAP
0FC0
3030
3030
3030
3330
30C0
0F30
0000
ENDCHAR
STARTCHAR R
ENCODING 82
SWIDTH 1500 0
DWIDTH 12 0
BBX 12 8 0 -1
BITMAP
3FC0
3030
3030
3FC0
30C0
3030
3030
0000
ENDCHAR
STARTCHAR S
ENCODING 83
SWIDTH 1500 0
DWIDTH 12 0
BBX 12 8 0 -1
BITMAP
0FC0
3030
3000
0FC0
0030
3030
0FC0
0000
ENDCHAR
STARTCHAR T
ENCODING 84
SWIDTH 1500 0
DWIDTH 12 0
BBX 12 8 0 -1
BITMAP
3FF0
0300
0300
0300
0300
0300
0300
0000
ENDCHAR
STARTCHAR U
ENCODING 85
SWIDTH 1500 0
DWIDTH 12 0
BBX 12 8 0 -1
BITMAP
3030
3030
3030
3030
3030
3030
0FC0
0000
ENDCHAR
STARTCHAR V
ENCODING 86
SWIDTH 1500 0
DWIDTH 12 0
BBX 12 8 0 -1
BITMAP
3030
3030
3030
0CC0
0CC0
0300
0300
0000
ENDCHAR
STARTCHAR W
ENCODING 87
SWIDTH 1500 0
DWIDTH 12 0
BBX 12 8 0 -1
BITMAP
3030
3030
3030
3330
3330
3CF0
3030
0000
ENDCHAR
STARTCHAR X
ENCODING 88
SWIDTH 1500 0
DWIDTH 12 0
BBX 12 8 0 -1
BITMAP
3030
3030
0CC0
0300
0CC0
3030
3030
0000
ENDCHAR
STARTCHAR Y
ENCODING 89
SWIDTH 1500 0
DWIDTH 12 0
BBX 12 8 0 -1
BITMAP
3030
3030
0CC0
0FC0
0300
0300
0300
0000
ENDCHAR
STARTCHAR Z
ENCODING 90
SWIDTH 1500 0
DWIDTH 12 0
BBX 12 8 0 -1
BITMAP
3FF0
0030
00C0
0300
0C00
3000
3FF0
0000
ENDCHAR
STARTCHAR bracketleft
ENCODING 91
SWIDTH 1500 0
DWIDTH 12 0
BBX 12 8 0 -1
BITMAP
0FC0
0C00
0C00
0C00
0C00
0C00
0FC0
0000
ENDCHAR
STARTCHAR backslash
ENCODING 92
SWIDTH 1500 0
DWIDTH 12 0
BBX 12 8 0 -1
BITMAP
0000
3000
3C00
0F00
03C0
00F0
0030
0000
ENDCHAR
STARTCHAR bracketright
ENCODING 93
SWIDTH 1500 0
DWIDTH 12 0
BBX 12 8 0 -1
BITMAP
0FC0
00C0
00C0
00C0
00C0
00C0
0FC0
0000
ENDCHAR
STARTCHAR asciicircum
ENCODING 94
SWIDTH 1500 0
DWIDTH 12 0
BBX 12 8 0 -1
BITMAP
0300
0CC0
3030
0000
0000
0000
0000
0000
ENDCHAR
STARTCHAR underscore
ENCODING 95
SWIDTH 1500 0
DWIDTH 12 0
BBX 12 8 0 -1
BITMAP
0000
0000
0000
0000
0000
0000
0000
FFF0
ENDCHAR
STARTCHAR grave
ENCODING 96
SWIDTH 1500 0
DWIDTH 12 0
BBX 12 8 0 -1
BITMAP
0300
00C0
0000
0000
0000
0000
0000
0000
ENDCHAR
STARTCHAR a
ENCODING 97
SWIDTH 1500 0
DWIDTH 12 0
BBX 12 8 0 -1
BITMAP
0000
0000
0FC0
0030
0FF0
3030
0FF0
0000
ENDCHAR
STARTCHAR b
ENCODING 98
SWIDTH 1500 0
DWIDTH 12 0
BBX 12 8 0 -1
BITMAP
3000
3000
33C0
3C30
3030
3C30
33C0
0000
ENDCHAR
STARTCHAR c
ENCODING 99
SWIDTH 1500 0
DWIDTH 12 0
BBX 12 8 0 -1
BITMAP
0000
0000
0FC0
3030
3000
3030
0FC0
0000
ENDCHAR
STARTCHAR d
ENCODING 100
SWIDTH 1500 0
DWIDTH 12 0
BBX 12 8 0 -1
BITMAP
0030
0030
0F30
30F0
3030
30F0
0F30
0000
ENDCHAR
STARTCHAR e
ENCODING 101
SWIDTH 1500 0
DWIDTH 12 0
BBX 12 8 0 -1
BITMAP
0000
0000
0FC0
3030
3FF0
3000
0FC0
0000
ENDCHAR
STARTCHAR f
ENCODING 102
SWIDTH 1500 0
DWIDTH 12 0
BBX 12 8 0 -1
BITMAP
03C0
0C30
0C00
3F00
0C00
0C00
0C00
0000
ENDCHAR
STARTCHAR g
ENCODING 103
SWIDTH 1500 0
DWIDTH 12 0
BBX 12 8 0 -1
BITMAP
0000
0000
0F30
30F0
3030
0FF0
0030
0FC0
ENDCHAR
STARTCHAR h
ENCODING 104
SWIDTH 1500 0
DWIDTH 12 0
BBX 12 8 0 -1
BITMAP
3000
3000
33C0
3C30
3030
3030
3030
0000
ENDCHAR
STARTCHAR i
ENCODING 105
SWIDTH 1500 0
DWIDTH 12 0
BBX 12 8 0 -1
BITMAP
0300
0000
0F00
0300
0300
0300
0FC0
0000
ENDCHAR
STARTCHAR j
ENCODING 106
SWIDTH 1500 0
DWIDTH 12 0
BBX 12 8 0 -1
BITMAP
00C0
0000
03C0
00C0
00C0
00C0
30C0
0F00
ENDCHAR
STARTCHAR k
ENCODING 107
SWIDTH 1500 0
DWIDTH 12 0
BBX 12 8 0 -1
BITMAP
3000
3000
30C0
3300
3C00
3300
30C0
0000
ENDCHAR
STARTCHAR l
ENCODING 108
SWIDTH 1500 0
DWIDTH 12 0
BBX 12 8 0 -1
BITMAP
0F00
0300
0300
0300
0300
0300
0FC0
0000
ENDCHAR
STARTCHAR m
ENCODING 109
SWIDTH 1500 0
DWIDTH 12 0
BBX 12 8 0 -1
BITMAP
0000
0000
3CC0
3330
3330
3330
3330
0000
ENDCHAR
STARTCHAR n
ENCODING 110
SWIDTH 1500 0
DWIDTH 12 0
BBX 12 8 0 -1
BITMAP
0000
0000
33C0
3C30
3030
3030
3030
0000
ENDCHAR
STARTCHAR o
ENCODING 111
SWIDTH 1500 0
DWIDTH 12 0
BBX 12 8 0 -1
BITMAP
0000
0000
0FC0
3030
3030
3030
0FC0
0000
ENDCHAR
STARTCHAR p
ENCODING 112
SWIDTH 1500 0
DWIDTH 12 0
BBX 12 8 0 -1
BITMAP
0000
0000
33C0
3C30
3030
3C30
33C0
3000
ENDCHAR
STARTCHAR q
ENCODING 113
SWIDTH 1500 0
DWIDTH 12 0
BBX 12 8 0 -1
BITMAP
0000
0000
0F30
30F0
3030
30F0
0F30
0030
ENDCHAR
STARTCHAR r
ENCODING 114
SWIDTH 1500 0
DWIDTH 12 0
BBX 12 8 0 -1
BITMAP
0000
0000
33C0
0C30
0C00
0C00
3F00
0000
ENDCHAR
STARTCHAR s
ENCODING 115
SWIDTH 1500 0
DWIDTH 12 0
BBX 12 8 0 -1
BITMAP
0000
0000
0FF0
3000
0FC0
0030
3FC0
0000
ENDCHAR
STARTCHAR t
ENCODING 116
SWIDTH 1500 0
DWIDTH 12 0
BBX 12 8 0 -1
BITMAP
0C00
0C00
3F00
0C00
0C00
0C30
03C0
0000
ENDCHAR
STARTCHAR u
ENCODING 117
SWIDTH 1500 0
DWIDTH 12 0
BBX 12 8 0 -1
BITMAP
0000
0000
3030
3030
3030
30F0
0F30
0000
ENDCHAR
STARTCHAR v
ENCODING 118
SWIDTH 1500 0
DWIDTH 12 0
BBX 12 8 0 -1
BITMAP
0000
0000
3030
3030
3030
0CC0
0300
0000
ENDCHAR
STARTCHAR w
ENCODING 119
SWIDTH 1500 0
DWIDTH 12 0
BBX 12 8 0 -1
BITMAP
0000
0000
3030
3030
3330
3330
0CC0
0000
ENDCHAR
STARTCHAR x
ENCODING 120
SWIDTH 1500 0
DWIDTH 12 0
BBX 12 8 0 -1
BITMAP
0000
0000
3030
0CC0
0300
0CC0
3030
0000
ENDCHAR
STARTCHAR y
ENCODING 121
SWIDTH 1500 0
DWIDTH 12 0
BBX 12 8 0 -1
BITMAP
0000
0000
3030
3030
3030
0FF0
0030
0FC0
ENDCHAR
STARTCHAR z
ENCODING 122
SWIDTH 1500 0
DWIDTH 12 0
BBX 12 8 0 -1
BITMAP
0000
0000
3FF0
00C0
0300
0C00
3FF0
0000
ENDCHAR
STARTCHAR braceleft
ENCODING 123
SWIDTH 1500 0
DWIDTH 12 0
BBX 12 8 0 -1
BITMAP
03C0
0C00
0C00
3000
0C00
0C00
03C0
0000
ENDCHAR
STARTCHAR bar
ENCODING 124
SWIDTH 1500 0
DWIDTH 12 0
BBX 12 8 0 -1
BITMAP
0300
0300
0300
0300
0300
0300
0300
0000
ENDCHAR
STARTCHAR braceright
ENCODING 125
SWIDTH 1500 0
DWIDTH 12 0
BBX 12 8 0 -1
BITMAP
0F00
00C0
00C0
0030
00C0
00C0
0F00
0000
ENDCHAR
STARTCHAR asciitilde
ENCODING 126
SWIDTH 1500 0
DWIDTH 12 0
BBX 12 8 0 -1
BITMAP
0C00
3330
00C0
0000
0000
0000
0000
0000
ENDCHAR
STARTCHAR uni007F
ENCODING 127
SWIDTH 1500 0
DWIDTH 12 0
BBX 12 8 0 -1
BITMAP
0000
0300
0CC0
3030
3030
3030
3FF0
0000
ENDCHAR
STARTCHAR uni00A0
ENCODING 160
SWIDTH 1500 0
DWIDTH 12 0
BBX 12 8 0 -1
BITMAP
0000
0000
0000
0000
0000
0000
0000
0000
ENDCHAR
STARTCHAR exclamdown
ENCODING 161
SWIDTH 1500 0
DWIDTH 12 0
BBX 12 8 0 -1
BITMAP
0300
0000
0300
0300
0300
0300
0300
0000
ENDCHAR
STARTCHAR cent
ENCODING 162
SWIDTH 1500 0
DWIDTH 12 0
BBX 12 8 0 -1
BITMAP
0000
0300
0FC0
3030
3000
3030
0FC0
0300
ENDCHAR
STARTCHAR sterling
ENCODING 163
SWIDTH 1500 0
DWIDTH 12 0
BBX 12 8 0 -1
BITMAP
03C0
0C30
0C00
3FC0
0C00
0C00
3FF0
0000
ENDCHAR
STARTCHAR yen
ENCODING 165
SWIDTH 1500 0
DWIDTH 12 0
BBX 12 8 0 -1
BITMAP
3030
0CC0
0300
3FF0
0300
3FF0
0300
0300
ENDCHAR
STARTCHAR section
ENCODING 167
SWIDTH 1500 0
DWIDTH 12 0
BBX 12 8 0 -1
BITMAP
0FC0
3030
0F00
30C0
30C0
0F00
C0C0
3F00
ENDCHAR
STARTCHAR ordfeminine
ENCODING 170
SWIDTH 1500 0
DWIDTH 12 0
BBX 12 8 0 -1
BITMAP
0FC0
30C0
30C0
0F30
0000
3FF0
0000
0000
ENDCHAR
STARTCHAR guillemotleft
ENCODING 171
SWIDTH 1500 0
DWIDTH 12 0
BBX 12 8 0 -1
BITMAP
0000
0C30
30C0
C300
30C0
0C30
0000
0000
ENDCHAR
STARTCHAR logicalnot
ENCODING 172
SWIDTH 1500 0
DWIDTH 12 0
BBX 12 8 0 -1
BITMAP
0000
0000
0000
FFC0
00C0
00C0
00C0
0000
ENDCHAR
STARTCHAR degree
ENCODING 176
SWIDTH 1500 0
DWIDTH 12 0
BBX 12 8 0 -1
BITMAP
0F00
30C0
30C0
0F00
0000
0000
0000
0000
ENDCHAR
STARTCHAR plusminus
ENCODING 177
SWIDTH 1500 0
DWIDTH 12 0
BBX 12 8 0 -1
BITMAP
0000
0300
0300
3FF0
0300
0300
3FF0
0000
ENDCHAR
STARTCHAR uni00B2
ENCODING 178
SWIDTH 1500 0
DWIDTH 12 0
BBX 12 8 0 -1
BITMAP
0F00
00C0
0300
0FC0
0000
0000
0000
0000
ENDCHAR
STARTCHAR mu
ENCODING 181
SWIDTH 1500 0
DWIDTH 12 0
BBX 12 8 0 -1
BITMAP
0000
0000
3030
3030
3030
3030
3FF0
3000
ENDCHAR
STARTCHAR paragraph
ENCODING 182
SWIDTH 1500 0
DWIDTH 12 0
BBX 12 8 0 -1
BITMAP
0FF0
3330
3330
0F30
0330
0330
0330
0000
ENDCHAR
STARTCHAR periodcentered
ENCODING 183
SWIDTH 1500 0
DWIDTH 12 0
BBX 12 8 0 -1
BITMAP
0000
0000
0000
0C00
0000
0000
0000
0000
ENDCHAR
STARTCHAR ordmasculine
ENCODING 186
SWIDTH 1500 0
DWIDTH 12 0
BBX 12 8 0 -1
BITMAP
0F00
30C0
30C0
0F00
0000
3FC0
0000
0000
ENDCHAR
STARTCHAR guillemotright
ENCODING 187
SWIDTH 1500 0
DWIDTH 12 0
BBX 12 8 0 -1
BITMAP
0000
C300
30C0
0C30
30C0
C300
0000
0000
ENDCHAR
STARTCHAR onequarter
ENCODING 188
SWIDTH 1500 0
DWIDTH 12 0
BBX 12 8 0 -1
BITMAP
3000
30C0
3300
0C00
3330
03F0
0030
0000
ENDCHAR
STARTCHAR onehalf
ENCODING 189
SWIDTH 1500 0
DWIDTH 12 0
BBX 12 8 0 -1
BITMAP
3000
30C0
3300
0CF0
3030
00C0
00F0
0000
ENDCHAR
STARTCHAR questiondown
ENCODING 191
SWIDTH 1500 0
DWIDTH 12 0
BBX 12 8 0 -1
BITMAP
0300
0000
0300
0C00
3030
3030
0FC0
0000
ENDCHAR
STARTCHAR Adieresis
ENCODING 196
SWIDTH 1500 0
DWIDTH 12 0
BBX 12 8 0 -1
BITMAP
0CC0
0FC0
3030
3030
3FF0
3030
3030
0000
ENDCHAR
STARTCHAR Aring
ENCODING 197
SWIDTH 1500 0
DWIDTH 12 0
BBX 12 8 0 -1
BITMAP
0300
0FC0
3030
3030
3FF0
3030
3030
0000
ENDCHAR
STARTCHAR AE
ENCODING 198
SWIDTH 1500 0
DWIDTH 12 0
BBX 12 8 0 -1
BITMAP
0CF0
3300
3300
3FF0
3300
3300
33F0
0000
ENDCHAR
STARTCHAR Ccedilla
ENCODING 199
SWIDTH 1500 0
DWIDTH 12 0
BBX 12 8 0 -1
BITMAP
0FC0
3030
3000
3000
3000
3030
0FC0
3F00
ENDCHAR
STARTCHAR Eacute
ENCODING 201
SWIDTH 1500 0
DWIDTH 12 0
BBX 12 8 0 -1
BITMAP
03F0
3FF0
3000
3FC0
3000
3000
3FF0
0000
ENDCHAR
STARTCHAR Ntilde
ENCODING 209
SWIDTH 1500 0
DWIDTH 12 0
BBX 12 8 0 -1
BITMAP
0FC0
3030
3C30
3F30
33F0
30F0
3030
0000
ENDCHAR
STARTCHAR Odieresis
ENCODING 214
SWIDTH 1500 0
DWIDTH 12 0
BBX 12 8 0 -1
BITMAP
0CC0
0FC0
3030
3030
3030
3030
0FC0
0000
ENDCHAR
STARTCHAR Udieresis
ENCODING 220
SWIDTH 1500 0
DWIDTH 12 0
BBX 12 8 0 -1
BITMAP
0CC0
3030
3030
3030
3030
3030
0FC0
0000
ENDCHAR
STARTCHAR germandbls
ENCODING 223
SWIDTH 1500 0
DWIDTH 12 0
BBX 12 8 0 -1
BITMAP
0000
0FC0
3030
33C0
3030
3030
F3C0
0000
ENDCHAR
STARTCHAR agrave
ENCODING 224
SWIDTH 1500 0
DWIDTH 12 0
BBX 12 8 0 -1
BITMAP
0C00
0300
0FC0
0030
0FF0
3030
0FF0
0000
ENDCHAR
STARTCHAR aacute
ENCODING 225
SWIDTH 1500 0
DWIDTH 12 0
BBX 12 8 0 -1
BITMAP
00C0
0300
0FC0
0030
0FF0
3030
0FF0
0000
ENDCHAR
STARTCHAR acircumflex
ENCODING 226
SWIDTH 1500 0
DWIDTH 12 0
BBX 12 8 0 -1
BITMAP
0300
0CC0
0FC0
0030
0FF0
3030
0FF0
0000
ENDCHAR
STARTCHAR adieresis
ENCODING 228
SWIDTH 1500 0
DWIDTH 12 0
BBX 12 8 0 -1
BITMAP
0CC0
0000
0FC0
0030
0FF0
3030
0FF0
0000
ENDCHAR
STARTCHAR aring
ENCODING 229
SWIDTH 1500 0
DWIDTH 12 0
BBX 12 8 0 -1
BITMAP
0300
0000
0FC0
0030
0FF0
3030
0FF0
0000
ENDCHAR
STARTCHAR ae
ENCODING 230
SWIDTH 1500 0
DWIDTH 12 0
BBX 12 8 0 -1
BITMAP
0000
0000
3CF0
0330
3FF0
3300
3FF0
0000
ENDCHAR
STARTCHAR ccedilla
ENCODING 231
SWIDTH 1500 0
DWIDTH 12 0
BBX 12 8 0 -1
BITMAP
0000
0000
0FC0
3030
3000
3030
0FC0
3F00
ENDCHAR
STARTCHAR egrave
ENCODING 232
SWIDTH 1500 0
DWIDTH 12 0
BBX 12 8 0 -1
BITMAP
0C00
0300
0FC0
3030
3FF0
3000
0FC0
0000
ENDCHAR
STARTCHAR eacute
ENCODING 233
SWIDTH 1500 0
DWIDTH 12 0
BBX 12 8 0 -1
BITMAP
00C0
0300
0FC0
3030
3FF0
3000
0FC0
0000
ENDCHAR
STARTCHAR ecircumflex
ENCODING 234
SWIDTH 1500 0
DWIDTH 12 0
BBX 12 8 0 -1
BITMAP
0300
0CC0
0FC0
3030
3FF0
3000
0FC0
0000
ENDCHAR
STARTCHAR edieresis
ENCODING 235
SWIDTH 1500 0
DWIDTH 12 0
BBX 12 8 0 -1
BITMAP
0CC0
0000
0FC0
3030
3FF0
3000
0FC0
0000
ENDCHAR
STARTCHAR igrave
ENCODING 236
SWIDTH 1500 0
DWIDTH 12 0
BBX 12 8 0 -1
BITMAP
0C00
0300
0F00
0300
0300
0300
0FC0
0000
ENDCHAR
STARTCHAR iacute
ENCODING 237
SWIDTH 1500 0
DWIDTH 12 0
BBX 12 8 0 -1
BITMAP
00C0
0300
0F00
0300
0300
0300
0FC0
0000
ENDCHAR
STARTCHAR icircumflex
ENCODING 238
SWIDTH 1500 0
DWIDTH 12 0
BBX 12 8 0 -1
BITMAP
0300
0CC0
0F00
0300
0300
0300
0FC0
0000
ENDCHAR
STARTCHAR idieresis
ENCODING 239
SWIDTH 1500 0
DWIDTH 12 0
BBX 12 8 0 -1
BITMAP
0CC0
0000
0F00
0300
0300
0300
0FC0
0000
ENDCHAR
STARTCHAR ntilde
ENCODING 241
SWIDTH 1500 0
DWIDTH 12 0
BBX 12 8 0 -1
BITMAP
0FC0
0000
33C0
3C30
3030
3030
3030
0000
ENDCHAR
STARTCHAR ograve
ENCODING 242
SWIDTH 1500 0
DWIDTH 12 0
BBX 12 8 0 -1
BITMAP
0C00
0300
0FC0
3030
3030
3030
0FC0
0000
ENDCHAR
STARTCHAR oacute
ENCODING 243
SWIDTH 1500 0
DWIDTH 12 0
BBX 12 8 0 -1
BITMAP
00C0
0300
0FC0
3030
3030
3030
0FC0
0000
ENDCHAR
STARTCHAR ocircumflex
ENCODING 244
SWIDTH 1500 0
DWIDTH 12 0
BBX 12 8 0 -1
BITMAP
0300
0CC0
0FC0
3030
3030
3030
0FC0
0000
ENDCHAR
STARTCHAR odieresis
ENCODING 246
SWIDTH 1500 0
DWIDTH 12 0
BBX 12 8 0 -1
BITMAP
0CC0
0000
0FC0
3030
3030
3030
0FC0
0000
ENDCHAR
STARTCHAR divide
ENCODING 247
SWIDTH 1500 0
DWIDTH 12 0
BBX 12 8 0 -1
BITMAP
0000
0300
0000
3FF0
0000
0300
0000
0000
ENDCHAR
STARTCHAR ugrave
ENCODING 249
SWIDTH 1500 0
DWIDTH 12 0
BBX 12 8 0 -1
BITMAP
0C00
0300
3030
3030
3030
30F0
0F30
0000
ENDCHAR
STARTCHAR uacute
ENCODING 250
SWIDTH 1500 0
DWIDTH 12 0
BBX 12 8 0 -1
BITMAP
00C0
0300
3030
3030
3030
30F0
0F30
0000
ENDCHAR
STARTCHAR ucircumflex
ENCODING 251
SWIDTH 1500 0
DWIDTH 12 0
BBX 12 8 0 -1
BITMAP
0300
0CC0
3030
3030
3030
30F0
0F30
0000
ENDCHAR
STARTCHAR udieresis
ENCODING 252
SWIDTH 1500 0
DWIDTH 12 0
BBX 12 8 0 -1
BITMAP
0CC0
0000
3030
3030
3030
30F0
0F30
0000
ENDCHAR
STARTCHAR ydieresis
ENCODING 255
SWIDTH 1500 0
DWIDTH 12 0
BBX 12 8 0 -1
BITMAP
0CC0
0000
3030
3030
3030
0FF0
0030
0FC0
ENDCHAR
STARTCHAR florin
ENCODING 402
SWIDTH 1500 0
DWIDTH 12 0
BBX 12 8 0 -1
BITMAP
00C0
0330
0300
0FC0
0300
0300
3300
0C00
ENDCHAR
STARTCHAR Gamma
ENCODING 915
SWIDTH 1500 0
DWIDTH 12 0
BBX 12 8 0 -1
BITMAP
3FF0
3000
3000
3000
3000
3000
3000
0000
ENDCHAR
STARTCHAR Theta
ENCODING 920
SWIDTH 1500 0
DWIDTH 12 0
BBX 12 8 0 -1
BITMAP
0FC0
3030
3030
3FF0
3030
3030
0FC0
0000
ENDCHAR
STARTCHAR Sigma
ENCODING 931
SWIDTH 1500 0
DWIDTH 12 0
BBX 12 8 0 -1
BITMAP
3FF0
3000
0C00
0300
0C00
3000
3FF0
0000
ENDCHAR
STARTCHAR Phi
ENCODING 934
SWIDTH 1500 0
DWIDTH 12 0
BBX 12 8 0 -1
BITMAP
0FC0
0FC0
3330
3330
3330
0FC0
0FC0
0000
ENDCHAR
STARTCHAR uni03A9
ENCODING 937
SWIDTH 1500 0
DWIDTH 12 0
BBX 12 8 0 -1
BITMAP
0FC0
3030
3030
3030
3030
0CC0
3CF0
0000
ENDCHAR
STARTCHAR alpha
ENCODING 945
SWIDTH 1500 0
DWIDTH 12 0
BBX 12 8 0 -1
BITMAP
0000
0000
0F30
30C0
30C0
30C0
0F30
0000
ENDCHAR
STARTCHAR delta
ENCODING 948
SWIDTH 1500 0
DWIDTH 12 0
BBX 12 8 0 -1
BITMAP
03C0
0C30
0FC0
3030
3030
3030
0FC0
0000
ENDCHAR
STARTCHAR epsilon
ENCODING 949
SWIDTH 1500 0
DWIDTH 12 0
BBX 12 8 0 -1
BITMAP
03C0
0C00
3000
3FC0
3000
0C00
03C0
0000
ENDCHAR
STARTCHAR pi
ENCODING 960
SWIDTH 1500 0
DWIDTH 12 0
BBX 12 8 0 -1
BITMAP
0000
0000
FFF0
30C0
30C0
30C0
30C0
0000
ENDCHAR
STARTCHAR sigma
ENCODING 963
SWIDTH 1500 0
DWIDTH 12 0
BBX 12 8 0 -1
BITMAP
0000
0000
0FF0
30C0
3030
3030
0FC0
0000
ENDCHAR
STARTCHAR tau
ENCODING 964
SWIDTH 1500 0
DWIDTH 12 0
BBX 12 8 0 -1
BITMAP
0000
0000
0F30
33C0
0300
0300
0300
0000
ENDCHAR
STARTCHAR phi
ENCODING 966
SWIDTH 1500 0
DWIDTH 12 0
BBX 12 8 0 -1
BITMAP
0000
00C0
0FC0
3330
3330
3330
0FC0
0C00
ENDCHAR
STARTCHAR bullet
ENCODING 8226
SWIDTH 1500 0
DWIDTH 12 0
BBX 12 8 0 -1
BITMAP
0000
0000
0000
0F00
0F00
0000
0000
0000
ENDCHAR
STARTCHAR exclamdbl
ENCODING 8252
SWIDTH 1500 0
DWIDTH 12 0
BBX 12 8 0 -1
BITMAP
0CC0
0CC0
0CC0
0CC0
0CC0
0000
0CC0
0000
ENDCHAR
STARTCHAR uni207F
ENCODING 8319
SWIDTH 1500 0
DWIDTH 12 0
BBX 12 8 0 -1
BITMAP
0CC0
0F30
0C30
0C30
0000
0000
0000
0000
ENDCHAR
STARTCHAR peseta
ENCODING 8359
SWIDTH 1500 0
DWIDTH 12 0
BBX 12 8 0 -1
BITMAP
3F00
30C0
30C0
3F00
30C0
33F0
30C0
00F0
ENDCHAR
STARTCHAR arrowleft
ENCODING 8592
SWIDTH 1500 0
DWIDTH 12 0
BBX 12 8 0 -1
BITMAP
0000
0C00
3C00
FFF0
3C00
0C00
0000
0000
ENDCHAR
STARTCHAR arrowup
ENCODING 8593
SWIDTH 1500 0
DWIDTH 12 0
BBX 12 8 0 -1
BITMAP
0000
0300
0FC0
3FF0
0300
0300
0300
0300
ENDCHAR
STARTCHAR arrowright
ENCODING 8594
SWIDTH 1500 0
DWIDTH 12 0
BBX 12 8 0 -1
BITMAP
0000
0300
03C0
FFF0
03C0
0300
0000
0000
ENDCHAR
STARTCHAR arrowdown
ENCODING 8595
SWIDTH 1500 0
DWIDTH 12 0
BBX 12 8 0 -1
BITMAP
0300
0300
0300
0300
3FF0
0FC0
0300
0000
ENDCHAR
STARTCHAR arrowboth
ENCODING 8596
SWIDTH 1500 0
DWIDTH 12 0
BBX 12 8 0 -1
BITMAP
0000
0000
30C0
FFF0
30C0
0000
0000
0000
ENDCHAR
STARTCHAR arrowupdn
ENCODING 8597
SWIDTH 1500 0
DWIDTH 12 0
BBX 12 8 0 -1
BITMAP
0300
0FC0
3FF0
0300
3FF0
0FC0
0300
0000
ENDCHAR
STARTCHAR arrowupdnbse
ENCODING 8616
SWIDTH 1500 0
DWIDTH 12 0
BBX 12 8 0 -1
BITMAP
0300
0FC0
3FF0
0300
3FF0
0FC0
0300
3FF0
ENDCHAR
STARTCHAR uni2219
ENCODING 8729
SWIDTH 1500 0
DWIDTH 12 0
BBX 12 8 0 -1
BITMAP
0000
0000
0000
0F00
0F00
0000
0000
0000
ENDCHAR
STARTCHAR radical
ENCODING 8730
SWIDTH 1500 0
DWIDTH 12 0
BBX 12 8 0 -1
BITMAP
03F0
0300
0300
0300
C300
3300
0F00
0300
ENDCHAR
STARTCHAR infinity
ENCODING 8734
SWIDTH 1500 0
DWIDTH 12 0
BBX 12 8 0 -1
BITMAP
0000
0000
3CC0
C330
C330
C330
3CC0
0000
ENDCHAR
STARTCHAR orthogonal
ENCODING 8735
SWIDTH 1500 0
DWIDTH 12 0
BBX 12 8 0 -1
BITMAP
3000
3000
3000
3FF0
0000
0000
0000
0000
ENDCHAR
STARTCHAR intersection
ENCODING 8745
SWIDTH 1500 0
DWIDTH 12 0
BBX 12 8 0 -1
BITMAP
0FC0
3030
3030
3030
3030
3030
3030
0000
ENDCHAR
STARTCHAR approxequal
ENCODING 8776
SWIDTH 1500 0
DWIDTH 12 0
BBX 12 8 0 -1
BITMAP
0000
0C00
3330
00C0
0C00
3330
00C0
0000
ENDCHAR
STARTCHAR equivalence
ENCODING 8801
SWIDTH 1500 0
DWIDTH 12 0
BBX 12 8 0 -1
BITMAP
0000
3FF0
0000
3FF0
0000
3FF0
0000
0000
ENDCHAR
STARTCHAR lessequal
ENCODING 8804
SWIDTH 1500 0
DWIDTH 12 0
BBX 12 8 0 -1
BITMAP
00C0
0300
0C00
3000
0C00
0300
00C0
3FC0
ENDCHAR
STARTCHAR greaterequal
ENCODING 8805
SWIDTH 1500 0
DWIDTH 12 0
BBX 12 8 0 -1
BITMAP
0C00
0300
00C0
0030
00C0
0300
0C00
0FF0
ENDCHAR
STARTCHAR house
ENCODING 8962
SWIDTH 1500 0
DWIDTH 12 0
BBX 12 8 0 -1
BITMAP
0000
0300
0CC0
3030
3030
3030
3FF0
0000
ENDCHAR
STARTCHAR revlogicalnot
ENCODING 8976
SWIDTH 1500 0
DWIDTH 12 0
BBX 12 8 0 -1
BITMAP
0000
0000
0000
3FF0
3000
3000
3000
0000
ENDCHAR
STARTCHAR integraltp
ENCODING 8992
SWIDTH 1500 0
DWIDTH 12 0
BBX 12 8 0 -1
BITMAP
0000
00C0
0330
0330
0300
0300
0300
0300
ENDCHAR
STARTCHAR integralbt
ENCODING 8993
SWIDTH 1500 0
DWIDTH 12 0
BBX 12 8 0 -1
BITMAP
0300
0300
0300
0300
3300
3300
0C00
0000
ENDCHAR
STARTCHAR SF100000
ENCODING 9472
SWIDTH 1500 0
DWIDTH 12 0
BBX 12 8 0 -1
BITMAP
0000
0000
0000
FFF0
0000
0000
0000
0000
ENDCHAR
STARTCHAR SF110000
ENCODING 9474
SWIDTH 1500 0
DWIDTH 12 0
BBX 12 8 0 -1
BITMAP
0300
0300
0300
0300
0300
0300
0300
0300
ENDCHAR
STARTCHAR SF010000
ENCODING 9484
SWIDTH 1500 0
DWIDTH 12 0
BBX 12 8 0 -1
BITMAP
0000
0000
0000
03F0
0300
0300
0300
0300
ENDCHAR
STARTCHAR SF030000
ENCODING 9488
SWIDTH 1500 0
DWIDTH 12 0
BBX 12 8 0 -1
BITMAP
0000
0000
0000
FF00
0300
0300
0300
0300
ENDCHAR
STARTCHAR SF020000
ENCODING 9492
SWIDTH 1500 0
DWIDTH 12 0
BBX 12 8 0 -1
BITMAP
0300
0300
0300
03F0
0000
0000
0000
0000
ENDCHAR
STARTCHAR SF040000
ENCODING 9496
SWIDTH 1500 0
DWIDTH 12 0
BBX 12 8 0 -1
BITMAP
0300
0300
0300
FF00
0000
0000
0000
0000
ENDCHAR
STARTCHAR SF080000
ENCODING 9500
SWIDTH 1500 0
DWIDTH 12 0
BBX 12 8 0 -1
BITMAP
0300
0300
0300
03F0
0300
0300
0300
0300
ENDCHAR
STARTCHAR SF090000
ENCODING 9508
SWIDTH 1500 0
DWIDTH 12 0
BBX 12 8 0 -1
BITMAP
0300
0300
0300
FF00
0300
0300
0300
0300
ENDCHAR
STARTCHAR SF060000
ENCODING 9516
SWIDTH 1500 0
DWIDTH 12 0
BBX 12 8 0 -1
BITMAP
0000
0000
0000
FFF0
0300
0300
0300
0300
ENDCHAR
STARTCHAR SF070000
ENCODING 9524
SWIDTH 1500 0
DWIDTH 12 0
BBX 12 8 0 -1
BITMAP
0300
0300
0300
FFF0
0000
0000
0000
0000
ENDCHAR
STARTCHAR SF050000
ENCODING 9532
SWIDTH 1500 0
DWIDTH 12 0
BBX 12 8 0 -1
BITMAP
0300
0300
0300
FFF0
0300
0300
0300
0300
ENDCHAR
STARTCHAR SF430000
ENCODING 9552
SWIDTH 1500 0
DWIDTH 12 0
BBX 12 8 0 -1
BITMAP
0000
0000
FFF0
0000
FFF0
0000
0000
0000
ENDCHAR
STARTCHAR SF240000
ENCODING 9553
SWIDTH 1500 0
DWIDTH 12 0
BBX 12 8 0 -1
BITMAP
0CC0
0CC0
0CC0
0CC0
0CC0
0CC0
0CC0
0CC0
ENDCHAR
STARTCHAR SF510000
ENCODING 9554
SWIDTH 1500 0
DWIDTH 12 0
BBX 12 8 0 -1
BITMAP
0000
0000
03F0
0300
03F0
0300
0300
0300
ENDCHAR
STARTCHAR SF520000
ENCODING 9555
SWIDTH 1500 0
DWIDTH 12 0
BBX 12 8 0 -1
BITMAP
0000
0000
0000
0FF0
0CC0
0CC0
0CC0
0CC0
ENDCHAR
STARTCHAR SF390000
ENCODING 9556
SWIDTH 1500 0
DWIDTH 12 0
BBX 12 8 0 -1
BITMAP
0000
0000
0FF0
0C00
0CF0
0CC0
0CC0
0CC0
ENDCHAR
STARTCHAR SF220000
ENCODING 9557
SWIDTH 1500 0
DWIDTH 12 0
BBX 12 8 0 -1
BITMAP
0000
0000
FF00
0300
FF00
0300
0300
0300
ENDCHAR
STARTCHAR SF210000
ENCODING 9558
SWIDTH 1500 0
DWIDTH 12 0
BBX 12 8 0 -1
BITMAP
0000
0000
0000
FFC0
0CC0
0CC0
0CC0
0CC0
ENDCHAR
STARTCHAR SF250000
ENCODING 9559
SWIDTH 1500 0
DWIDTH 12 0
BBX 12 8 0 -1
BITMAP
0000
0000
FFC0
00C0
FCC0
0CC0
0CC0
0CC0
ENDCHAR
STARTCHAR SF500000
ENCODING 9560
SWIDTH 1500 0
DWIDTH 12 0
BBX 12 8 0 -1
BITMAP
0300
0300
03F0
0300
03F0
0000
0000
0000
ENDCHAR
STARTCHAR SF490000
ENCODING 9561
SWIDTH 1500 0
DWIDTH 12 0
BBX 12 8 0 -1
BITMAP
0CC0
0CC0
0CC0
0FF0
0000
0000
0000
0000
ENDCHAR
STARTCHAR SF380000
ENCODING 9562
SWIDTH 1500 0
DWIDTH 12 0
BBX 12 8 0 -1
BITMAP
0CC0
0CC0
0CF0
0C00
0FF0
0000
0000
0000
ENDCHAR
STARTCHAR SF280000
ENCODING 9563
SWIDTH 1500 0
DWIDTH 12 0
BBX 12 8 0 -1
BITMAP
0300
0300
FF00
0300
FF00
0000
0000
0000
ENDCHAR
STARTCHAR SF270000
ENCODING 9564
SWIDTH 1500 0
DWIDTH 12 0
BBX 12 8 0 -1
BITMAP
0CC0
0CC0
0CC0
FFC0
0000
0000
0000
0000
ENDCHAR
STARTCHAR SF260000
ENCODING 9565
SWIDTH 1500 0
DWIDTH 12 0
BBX 12 8 0 -1
BITMAP
0CC0
0CC0
FCC0
00C0
FFC0
0000
0000
0000
ENDCHAR
STARTCHAR SF360000
ENCODING 9566
SWIDTH 1500 0
DWIDTH 12 0
BBX 12 8 0 -1
BITMAP
0300
0300
03F0
0300
03F0
0300
0300
0300
ENDCHAR
STARTCHAR SF370000
ENCODING 9567
SWIDTH 1500 0
DWIDTH 12 0
BBX 12 8 0 -1
BITMAP
0CC0
0CC0
0CC0
0CF0
0CC0
0CC0
0CC0
0CC0
ENDCHAR
STARTCHAR SF420000
ENCODING 9568
SWIDTH 1500 0
DWIDTH 12 0
BBX 12 8 0 -1
BITMAP
0CC0
0CC0
0CF0
0C00
0CF0
0CC0
0CC0
0CC0
ENDCHAR
STARTCHAR SF190000
ENCODING 9569
SWIDTH 1500 0
DWIDTH 12 0
BBX 12 8 0 -1
BITMAP
0300
0300
FF00
0300
FF00
0300
0300
0300
ENDCHAR
STARTCHAR SF200000
ENCODING 9570
SWIDTH 1500 0
DWIDTH 12 0
BBX 12 8 0 -1
BITMAP
0CC0
0CC0
0CC0
FCC0
0CC0
0CC0
0CC0
0CC0
ENDCHAR
STARTCHAR SF230000
ENCODING 9571
SWIDTH 1500 0
DWIDTH 12 0
BBX 12 8 0 -1
BITMAP
0CC0
0CC0
FCC0
00C0
FCC0
0CC0
0CC0
0CC0
ENDCHAR
STARTCHAR SF470000
ENCODING 9572
SWIDTH 1500 0
DWIDTH 12 0
BBX 12 8 0 -1
BITMAP
0000
0000
FFF0
0000
FFF0
0300
0300
0300
ENDCHAR
STARTCHAR SF480000
ENCODING 9573
SWIDTH 1500 0
DWIDTH 12 0
BBX 12 8 0 -1
BITMAP
0000
0000
0000
FFF0
0CC0
0CC0
0CC0
0CC0
ENDCHAR
STARTCHAR SF410000
ENCODING 9574
SWIDTH 1500 0
DWIDTH 12 0
BBX 12 8 0 -1
BITMAP
0000
0000
FFF0
0000
FCF0
0CC0
0CC0
0CC0
ENDCHAR
STARTCHAR SF450000
ENCODING 9575
SWIDTH 1500 0
DWIDTH 12 0
BBX 12 8 0 -1
BITMAP
0300
0300
FFF0
0000
FFF0
0000
0000
0000
ENDCHAR
STARTCHAR SF460000
ENCODING 9576
SWIDTH 1500 0
DWIDTH 12 0
BBX 12 8 0 -1
BITMAP
0CC0
0CC0
0CC0
FFF0
0000
0000
0000
0000
ENDCHAR
STARTCHAR SF400000
ENCODING 9577
SWIDTH 1500 0
DWIDTH 12 0
BBX 12 8 0 -1
BITMAP
0CC0
0CC0
FCF0
0000
FFF0
0000
0000
0000
ENDCHAR
STARTCHAR SF540000
ENCODING 9578
SWIDTH 1500 0
DWIDTH 12 0
BBX 12 8 0 -1
BITMAP
0300
0300
FFF0
0300
FFF0
0300
0300
0300
ENDCHAR
STARTCHAR SF530000
ENCODING 9579
SWIDTH 1500 0
DWIDTH 12 0
BBX 12 8 0 -1
BITMAP
0CC0
0CC0
0CC0
FFF0
0CC0
0CC0
0CC0
0CC0
ENDCHAR
STARTCHAR SF440000
ENCODING 9580
SWIDTH 1500 0
DWIDTH 12 0
BBX 12 8 0 -1
BITMAP
0CC0
0CC0
FCF0
0000
FCF0
0CC0
0CC0
0CC0
ENDCHAR
STARTCHAR upblock
ENCODING 9600
SWIDTH 1500 0
DWIDTH 12 0
BBX 12 8 0 -1
BITMAP
FFF0
FFF0
FFF0
FFF0
0000
0000
0000
0000
ENDCHAR
STARTCHAR dnblock
ENCODING 9604
SWIDTH 1500 0
DWIDTH 12 0
BBX 12 8 0 -1
BITMAP
0000
0000
0000
0000
FFF0
FFF0
FFF0
FFF0
ENDCHAR
STARTCHAR block
ENCODING 9608
SWIDTH 1500 0
DWIDTH 12 0
BBX 12 8 0 -1
BITMAP
FFF0
FFF0
FFF0
FFF0
FFF0
FFF0
FFF0
FFF0
ENDCHAR
STARTCHAR lfblock
ENCODING 9612
SWIDTH 1500 0
DWIDTH 12 0
BBX 12 8 0 -1
BITMAP
FC00
FC00
FC00
FC00
FC00
FC00
FC00
FC00
ENDCHAR
STARTCHAR rtblock
ENCODING 9616
SWIDTH 1500 0
DWIDTH 12 0
BBX 12 8 0 -1
BITMAP
03F0
03F0
03F0
03F0
03F0
03F0
03F0
03F0
ENDCHAR
STARTCHAR ltshade
ENCODING 9617
SWIDTH 1500 0
DWIDTH 12 0
BBX 12 8 0 -1
BITMAP
CCC0
0000
3330
0000
CCC0
0000
3330
0000
ENDCHAR
STARTCHAR shade
ENCODING 9618
SWIDTH 1500 0
DWIDTH 12 0
BBX 12 8 0 -1
BITMAP
CCC0
3330
CCC0
3330
CCC0
3330
CCC0
3330
ENDCHAR
STARTCHAR dkshade
ENCODING 9619
SWIDTH 1500 0
DWIDTH 12 0
BBX 12 8 0 -1
BITMAP
3330
FFF0
CCC0
FFF0
3330
FFF0
CCC0
FFF0
ENDCHAR
STARTCHAR filledbox
ENCODING 9632
SWIDTH 1500 0
DWIDTH 12 0
BBX 12 8 0 -1
BITMAP
0000
0000
3FC0
3FC0
3FC0
3FC0
0000
0000
ENDCHAR
STARTCHAR filledrect
ENCODING 9644
SWIDTH 1500 0
DWIDTH 12 0
BBX 12 8 0 -1
BITMAP
0000
0000
0000
0000
0000
3FF0
3FF0
3FF0
ENDCHAR
STARTCHAR triagup
ENCODING 9650
SWIDTH 1500 0
DWIDTH 12 0
BBX 12 8 0 -1
BITMAP
0000
0300
0300
0FC0
0FC0
3FF0
3FF0
0000
ENDCHAR
STARTCHAR triagrt
ENCODING 9658
SWIDTH 1500 0
DWIDTH 12 0
BBX 12 8 0 -1
BITMAP
0000
3C00
3FC0
3FF0
3FC0
3C00
0000
0000
ENDCHAR
STARTCHAR triagdn
ENCODING 9660
SWIDTH 1500 0
DWIDTH 12 0
BBX 12 8 0 -1
BITMAP
0000
3FF0
3FF0
0FC0
0FC0
0300
0300
0000
ENDCHAR
STARTCHAR triaglf
ENCODING 9668
SWIDTH 1500 0
DWIDTH 12 0
BBX 12 8 0 -1
BITMAP
0000
00F0
0FF0
3FF0
0FF0
00F0
0000
0000
ENDCHAR
STARTCHAR circle
ENCODING 9675
SWIDTH 1500 0
DWIDTH 12 0
BBX 12 8 0 -1
BITMAP
0000
0000
0F00
30C0
30C0
0F00
0000
0000
ENDCHAR
STARTCHAR invbullet
ENCODING 9688
SWIDTH 1500 0
DWIDTH 12 0
BBX 12 8 0 -1
BITMAP
FFF0
FFF0
FFF0
F0F0
F0F0
FFF0
FFF0
FFF0
ENDCHAR
STARTCHAR invcircle
ENCODING 9689
SWIDTH 1500 0
DWIDTH 12 0
BBX 12 8 0 -1
BITMAP
FFF0
FFF0
F0F0
CF30
CF30
F0F0
FFF0
FFF0
ENDCHAR
STARTCHAR smileface
ENCODING 9786
SWIDTH 1500 0
DWIDTH 12 0
BBX 12 8 0 -1
BITMAP
0FC0
3030
3CF0
3030
3330
3030
0FC0
0000
ENDCHAR
STARTCHAR invsmileface
ENCODING 9787
SWIDTH 1500 0
DWIDTH 12 0
BBX 12 8 0 -1
BITMAP
0FC0
3FF0
3330
3FF0
3CF0
3FF0
0FC0
0000
ENDCHAR
STARTCHAR sun
ENCODING 9788
SWIDTH 1500 0
DWIDTH 12 0
BBX 12 8 0 -1
BITMAP
0000
3330
0FC0
3CF0
0FC0
3330
0000
0000
ENDCHAR
STARTCHAR female
ENCODING 9792
SWIDTH 1500 0
DWIDTH 12 0
BBX 12 8 0 -1
BITMAP
0FC0
3030
3030
3030
0FC0
0300
0FC0
0300
ENDCHAR
STARTCHAR male
ENCODING 9794
SWIDTH 1500 0
DWIDTH 12 0
BBX 12 8 0 -1
BITMAP
03F0
00F0
0330
3F00
C0C0
C0C0
C0C0
3F00
ENDCHAR
STARTCHAR spade
ENCODING 9824
SWIDTH 1500 0
DWIDTH 12 0
BBX 12 8 0 -1
BITMAP
0000
0300
0FC0
3FF0
3CF0
0300
0FC0
0000
ENDCHAR
STARTCHAR club
ENCODING 9827
SWIDTH 1500 0
DWIDTH 12 0
BBX 12 8 0 -1
BITMAP
0000
0FC0
0FC0
3FF0
3CF0
0300
0FC0
0000
ENDCHAR
STARTCHAR heart
ENCODING 9829
SWIDTH 1500 0
DWIDTH 12 0
BBX 12 8 0 -1
BITMAP
0000
0CC0
3FF0
3FF0
3FF0
0FC0
0300
0000
ENDCHAR
STARTCHAR diamond
ENCODING 9830
SWIDTH 1500 0
DWIDTH 12 0
BBX 12 8 0 -1
BITMAP
0000
0300
0FC0
3FF0
3FF0
0FC0
0300
0000
ENDCHAR
STARTCHAR musicalnote
ENCODING 9834
SWIDTH 1500 0
DWIDTH 12 0
BBX 12 8 0 -1
BITMAP
0300
03C0
0330
0300
0300
3F00
3C00
0000
ENDCHAR
STARTCHAR musicalnotedbl
ENCODING 9835
SWIDTH 1500 0
DWIDTH 12 0
BBX 12 8 0 -1
BITMAP
0F00
0CC0
0F30
0CF0
0C30
FC30
F3F0
03C0
ENDCHAR
STARTCHAR uni3044
ENCODING 12356
SWIDTH 1500 0
DWIDTH 12 0
BBX 12 8 0 -1
BITMAP
0000
0000
0000
0000
0000
0000
0000
0000
ENDCHAR
STARTCHAR uni3046
ENCODING 12358
SWIDTH 1500 0
DWIDTH 12 0
BBX 12 8 0 -1
BITMAP
0000
0000
0000
0000
0000
0000
0000
0000
ENDCHAR
STARTCHAR uni304B
ENCODING 12363
SWIDTH 1500 0
DWIDTH 12 0
BBX 12 8 0 -1
BITMAP
0000
0000
0000
0000
0000
0000
0000
0000
ENDCHAR
STARTCHAR uni3057
ENCODING 12375
SWIDTH 1500 0
DWIDTH 12 0
BBX 12 8 0 -1
BITMAP
0000
0000
0000
0000
0000
0000
0000
0000
ENDCHAR
STARTCHAR uni306E
ENCODING 12398
SWIDTH 1500 0
DWIDTH 12 0
BBX 12 8 0 -1
BITMAP
0000
0000
0000
0000
0000
0000
0000
0000
ENDCHAR
STARTCHAR uni3093
ENCODING 12435
SWIDTH 1500 0
DWIDTH 12 0
BBX 12 8 0 -1
BITMAP
0000
0000
0000
0000
0000
0000
0000
0000
ENDCHAR
STARTCHAR .notdef
ENCODING -1
SWIDTH 1500 0
DWIDTH 12 0
BBX 11 6 1 0
BITMAP
FFE0
8020
8020
8020
8020
FFE0
ENDCHAR
ENDFONT
