STARTFONT 2.1
FONT BmPlus_HP_100LX_6x8-8px
SIZE 8 75 75
FONTBOUNDINGBOX 6 8 0 -1
STARTPROPERTIES 3
PIXEL_SIZE 8
FONT_ASCENT 7
FONT_DESCENT 1
ENDPROPERTIES
CHARS 788
STARTCHAR uni0000
ENCODING 0
SWIDTH 750 0
DWIDTH 6 0
BBX 6 8 0 -1
BITMAP
00
00
00
00
00
00
00
00
ENDCHAR
STARTCHAR uni0001
ENCODING 1
SWIDTH 750 0
DWIDTH 6 0
BBX 6 8 0 -1
BITMAP
38
44
6C
44
54
44
38
00
ENDCHAR
STARTCHAR uni0002
ENCODING 2
SWIDTH 750 0
DWIDTH 6 0
BBX 6 8 0 -1
BITMAP
38
7C
54
7C
6C
7C
38
00
ENDCHAR
STARTCHAR uni0003
ENCODING 3
SWIDTH 750 0
DWIDTH 6 0
BBX 6 8 0 -1
BITMAP
00
28
7C
7C
7C
38
10
00
ENDCHAR
STARTCHAR uni0004
ENCODING 4
SWIDTH 750 0
DWIDTH 6 0
BBX 6 8 0 -1
BITMAP
00
10
38
7C
7C
38
10
00
ENDCHAR
STARTCHAR uni0005
ENCODING 5
SWIDTH 750 0
DWIDTH 6 0
BBX 6 8 0 -1
BITMAP
00
38
38
7C
6C
10
38
00
ENDCHAR
STARTCHAR uni0006
ENCODING 6
SWIDTH 750 0
DWIDTH 6 0
BBX 6 8 0 -1
BITMAP
00
10
38
7C
6C
10
38
00
ENDCHAR
STARTCHAR uni0007
ENCODING 7
SWIDTH 750 0
DWIDTH 6 0
BBX 6 8 0 -1
BITMAP
00
00
00
30
30
00
00
00
ENDCHAR
STARTCHAR uni0008
ENCODING 8
SWIDTH 750 0
DWIDTH 6 0
BBX 6 8 0 -1
BITMAP
FC
FC
FC
CC
CC
FC
FC
FC
ENDCHAR
STARTCHAR uni0009
ENCODING 9
SWIDTH 750 0
DWIDTH 6 0
BBX 6 8 0 -1
BITMAP
00
00
30
48
48
30
00
00
ENDCHAR
STARTCHAR uni000A
ENCODING 10
SWIDTH 750 0
DWIDTH 6 0
BBX 6 8 0 -1
BITMAP
FC
FC
CC
B4
B4
CC
FC
FC
ENDCHAR
STARTCHAR uni000B
ENCODING 11
SWIDTH 750 0
DWIDTH 6 0
BBX 6 8 0 -1
BITMAP
1C
0C
14
70
88
88
88
70
ENDCHAR
STARTCHAR uni000C
ENCODING 12
SWIDTH 750 0
DWIDTH 6 0
BBX 6 8 0 -1
BITMAP
38
44
44
44
38
10
38
10
ENDCHAR
STARTCHAR uni000D
ENCODING 13
SWIDTH 750 0
DWIDTH 6 0
BBX 6 8 0 -1
BITMAP
10
18
14
10
10
70
60
00
ENDCHAR
STARTCHAR uni000E
ENCODING 14
SWIDTH 750 0
DWIDTH 6 0
BBX 6 8 0 -1
BITMAP
30
28
34
2C
24
E4
DC
18
ENDCHAR
STARTCHAR uni000F
ENCODING 15
SWIDTH 750 0
DWIDTH 6 0
BBX 6 8 0 -1
BITMAP
00
54
38
6C
38
54
00
00
ENDCHAR
STARTCHAR uni0010
ENCODING 16
SWIDTH 750 0
DWIDTH 6 0
BBX 6 8 0 -1
BITMAP
00
60
78
7C
78
60
00
00
ENDCHAR
STARTCHAR uni0011
ENCODING 17
SWIDTH 750 0
DWIDTH 6 0
BBX 6 8 0 -1
BITMAP
00
0C
3C
7C
3C
0C
00
00
ENDCHAR
STARTCHAR uni0012
ENCODING 18
SWIDTH 750 0
DWIDTH 6 0
BBX 6 8 0 -1
BITMAP
10
38
7C
10
7C
38
10
00
ENDCHAR
STARTCHAR uni0013
ENCODING 19
SWIDTH 750 0
DWIDTH 6 0
BBX 6 8 0 -1
BITMAP
28
28
28
28
28
00
28
00
ENDCHAR
STARTCHAR uni0014
ENCODING 20
SWIDTH 750 0
DWIDTH 6 0
BBX 6 8 0 -1
BITMAP
3C
54
54
34
14
14
14
00
ENDCHAR
STARTCHAR uni0015
ENCODING 21
SWIDTH 750 0
DWIDTH 6 0
BBX 6 8 0 -1
BITMAP
38
44
30
48
48
30
88
70
ENDCHAR
STARTCHAR uni0016
ENCODING 22
SWIDTH 750 0
DWIDTH 6 0
BBX 6 8 0 -1
BITMAP
00
00
00
00
00
7C
7C
7C
ENDCHAR
STARTCHAR uni0017
ENCODING 23
SWIDTH 750 0
DWIDTH 6 0
BBX 6 8 0 -1
BITMAP
10
38
7C
10
7C
38
10
7C
ENDCHAR
STARTCHAR uni0018
ENCODING 24
SWIDTH 750 0
DWIDTH 6 0
BBX 6 8 0 -1
BITMAP
00
10
38
7C
10
10
10
10
ENDCHAR
STARTCHAR uni0019
ENCODING 25
SWIDTH 750 0
DWIDTH 6 0
BBX 6 8 0 -1
BITMAP
10
10
10
10
7C
38
10
00
ENDCHAR
STARTCHAR uni001A
ENCODING 26
SWIDTH 750 0
DWIDTH 6 0
BBX 6 8 0 -1
BITMAP
00
10
18
FC
18
10
00
00
ENDCHAR
STARTCHAR uni001B
ENCODING 27
SWIDTH 750 0
DWIDTH 6 0
BBX 6 8 0 -1
BITMAP
00
20
60
FC
60
20
00
00
ENDCHAR
STARTCHAR uni001C
ENCODING 28
SWIDTH 750 0
DWIDTH 6 0
BBX 6 8 0 -1
BITMAP
40
40
40
7C
00
00
00
00
ENDCHAR
STARTCHAR uni001D
ENCODING 29
SWIDTH 750 0
DWIDTH 6 0
BBX 6 8 0 -1
BITMAP
00
00
48
FC
48
00
00
00
ENDCHAR
STARTCHAR uni001E
ENCODING 30
SWIDTH 750 0
DWIDTH 6 0
BBX 6 8 0 -1
BITMAP
00
10
10
38
38
7C
7C
00
ENDCHAR
STARTCHAR uni001F
ENCODING 31
SWIDTH 750 0
DWIDTH 6 0
BBX 6 8 0 -1
BITMAP
00
7C
7C
38
38
10
10
00
ENDCHAR
STARTCHAR space
ENCODING 32
SWIDTH 750 0
DWIDTH 6 0
BBX 6 8 0 -1
BITMAP
00
00
00
00
00
00
00
00
ENDCHAR
STARTCHAR exclam
ENCODING 33
SWIDTH 750 0
DWIDTH 6 0
BBX 6 8 0 -1
BITMAP
10
10
10
10
10
00
10
00
ENDCHAR
STARTCHAR quotedbl
ENCODING 34
SWIDTH 750 0
DWIDTH 6 0
BBX 6 8 0 -1
BITMAP
28
28
28
00
00
00
00
00
ENDCHAR
STARTCHAR numbersign
ENCODING 35
SWIDTH 750 0
DWIDTH 6 0
BBX 6 8 0 -1
BITMAP
28
28
7C
28
7C
28
28
00
ENDCHAR
STARTCHAR dollar
ENCODING 36
SWIDTH 750 0
DWIDTH 6 0
BBX 6 8 0 -1
BITMAP
10
3C
40
38
04
78
10
00
ENDCHAR
STARTCHAR percent
ENCODING 37
SWIDTH 750 0
DWIDTH 6 0
BBX 6 8 0 -1
BITMAP
20
54
28
10
28
54
08
00
ENDCHAR
STARTCHAR ampersand
ENCODING 38
SWIDTH 750 0
DWIDTH 6 0
BBX 6 8 0 -1
BITMAP
20
50
50
20
54
48
34
00
ENDCHAR
STARTCHAR quotesingle
ENCODING 39
SWIDTH 750 0
DWIDTH 6 0
BBX 6 8 0 -1
BITMAP
30
30
10
20
00
00
00
00
ENDCHAR
STARTCHAR parenleft
ENCODING 40
SWIDTH 750 0
DWIDTH 6 0
BBX 6 8 0 -1
BITMAP
10
20
20
20
20
20
10
00
ENDCHAR
STARTCHAR parenright
ENCODING 41
SWIDTH 750 0
DWIDTH 6 0
BBX 6 8 0 -1
BITMAP
10
08
08
08
08
08
10
00
ENDCHAR
STARTCHAR asterisk
ENCODING 42
SWIDTH 750 0
DWIDTH 6 0
BBX 6 8 0 -1
BITMAP
00
28
10
7C
10
28
00
00
ENDCHAR
STARTCHAR plus
ENCODING 43
SWIDTH 750 0
DWIDTH 6 0
BBX 6 8 0 -1
BITMAP
00
10
10
7C
10
10
00
00
ENDCHAR
STARTCHAR comma
ENCODING 44
SWIDTH 750 0
DWIDTH 6 0
BBX 6 8 0 -1
BITMAP
00
00
00
00
00
30
10
20
ENDCHAR
STARTCHAR hyphen
ENCODING 45
SWIDTH 750 0
DWIDTH 6 0
BBX 6 8 0 -1
BITMAP
00
00
00
7C
00
00
00
00
ENDCHAR
STARTCHAR period
ENCODING 46
SWIDTH 750 0
DWIDTH 6 0
BBX 6 8 0 -1
BITMAP
00
00
00
00
00
30
30
00
ENDCHAR
STARTCHAR slash
ENCODING 47
SWIDTH 750 0
DWIDTH 6 0
BBX 6 8 0 -1
BITMAP
00
04
0C
18
30
60
40
00
ENDCHAR
STARTCHAR zero
ENCODING 48
SWIDTH 750 0
DWIDTH 6 0
BBX 6 8 0 -1
BITMAP
38
44
4C
54
64
44
38
00
ENDCHAR
STARTCHAR one
ENCODING 49
SWIDTH 750 0
DWIDTH 6 0
BBX 6 8 0 -1
BITMAP
10
30
10
10
10
10
38
00
ENDCHAR
STARTCHAR two
ENCODING 50
SWIDTH 750 0
DWIDTH 6 0
BBX 6 8 0 -1
BITMAP
38
44
04
18
20
40
7C
00
ENDCHAR
STARTCHAR three
ENCODING 51
SWIDTH 750 0
DWIDTH 6 0
BBX 6 8 0 -1
BITMAP
38
44
04
38
04
44
38
00
ENDCHAR
STARTCHAR four
ENCODING 52
SWIDTH 750 0
DWIDTH 6 0
BBX 6 8 0 -1
BITMAP
08
18
28
48
7C
08
1C
00
ENDCHAR
STARTCHAR five
ENCODING 53
SWIDTH 750 0
DWIDTH 6 0
BBX 6 8 0 -1
BITMAP
7C
40
78
04
04
44
38
00
ENDCHAR
STARTCHAR six
ENCODING 54
SWIDTH 750 0
DWIDTH 6 0
BBX 6 8 0 -1
BITMAP
18
20
40
78
44
44
38
00
ENDCHAR
STARTCHAR seven
ENCODING 55
SWIDTH 750 0
DWIDTH 6 0
BBX 6 8 0 -1
BITMAP
7C
04
08
10
10
10
10
00
ENDCHAR
STARTCHAR eight
ENCODING 56
SWIDTH 750 0
DWIDTH 6 0
BBX 6 8 0 -1
BITMAP
38
44
44
38
44
44
38
00
ENDCHAR
STARTCHAR nine
ENCODING 57
SWIDTH 750 0
DWIDTH 6 0
BBX 6 8 0 -1
BITMAP
38
44
44
3C
04
08
30
00
ENDCHAR
STARTCHAR colon
ENCODING 58
SWIDTH 750 0
DWIDTH 6 0
BBX 6 8 0 -1
BITMAP
00
00
30
30
00
30
30
00
ENDCHAR
STARTCHAR semicolon
ENCODING 59
SWIDTH 750 0
DWIDTH 6 0
BBX 6 8 0 -1
BITMAP
00
00
30
30
00
30
10
20
ENDCHAR
STARTCHAR less
ENCODING 60
SWIDTH 750 0
DWIDTH 6 0
BBX 6 8 0 -1
BITMAP
08
10
20
40
20
10
08
00
ENDCHAR
STARTCHAR equal
ENCODING 61
SWIDTH 750 0
DWIDTH 6 0
BBX 6 8 0 -1
BITMAP
00
00
7C
00
7C
00
00
00
ENDCHAR
STARTCHAR greater
ENCODING 62
SWIDTH 750 0
DWIDTH 6 0
BBX 6 8 0 -1
BITMAP
20
10
08
04
08
10
20
00
ENDCHAR
STARTCHAR question
ENCODING 63
SWIDTH 750 0
DWIDTH 6 0
BBX 6 8 0 -1
BITMAP
38
44
44
08
10
00
10
00
ENDCHAR
STARTCHAR at
ENCODING 64
SWIDTH 750 0
DWIDTH 6 0
BBX 6 8 0 -1
BITMAP
38
44
5C
54
5C
40
3C
00
ENDCHAR
STARTCHAR A
ENCODING 65
SWIDTH 750 0
DWIDTH 6 0
BBX 6 8 0 -1
BITMAP
38
44
44
44
7C
44
44
00
ENDCHAR
STARTCHAR B
ENCODING 66
SWIDTH 750 0
DWIDTH 6 0
BBX 6 8 0 -1
BITMAP
78
44
44
78
44
44
78
00
ENDCHAR
STARTCHAR C
ENCODING 67
SWIDTH 750 0
DWIDTH 6 0
BBX 6 8 0 -1
BITMAP
38
44
40
40
40
44
38
00
ENDCHAR
STARTCHAR D
ENCODING 68
SWIDTH 750 0
DWIDTH 6 0
BBX 6 8 0 -1
BITMAP
70
48
44
44
44
48
70
00
ENDCHAR
STARTCHAR E
ENCODING 69
SWIDTH 750 0
DWIDTH 6 0
BBX 6 8 0 -1
BITMAP
7C
40
40
78
40
40
7C
00
ENDCHAR
STARTCHAR F
ENCODING 70
SWIDTH 750 0
DWIDTH 6 0
BBX 6 8 0 -1
BITMAP
7C
40
40
78
40
40
40
00
ENDCHAR
STARTCHAR G
ENCODING 71
SWIDTH 750 0
DWIDTH 6 0
BBX 6 8 0 -1
BITMAP
38
44
40
40
4C
44
3C
00
ENDCHAR
STARTCHAR H
ENCODING 72
SWIDTH 750 0
DWIDTH 6 0
BBX 6 8 0 -1
BITMAP
44
44
44
7C
44
44
44
00
ENDCHAR
STARTCHAR I
ENCODING 73
SWIDTH 750 0
DWIDTH 6 0
BBX 6 8 0 -1
BITMAP
38
10
10
10
10
10
38
00
ENDCHAR
STARTCHAR J
ENCODING 74
SWIDTH 750 0
DWIDTH 6 0
BBX 6 8 0 -1
BITMAP
04
04
04
04
44
44
38
00
ENDCHAR
STARTCHAR K
ENCODING 75
SWIDTH 750 0
DWIDTH 6 0
BBX 6 8 0 -1
BITMAP
44
48
50
60
50
48
44
00
ENDCHAR
STARTCHAR L
ENCODING 76
SWIDTH 750 0
DWIDTH 6 0
BBX 6 8 0 -1
BITMAP
40
40
40
40
40
40
7C
00
ENDCHAR
STARTCHAR M
ENCODING 77
SWIDTH 750 0
DWIDTH 6 0
BBX 6 8 0 -1
BITMAP
44
6C
6C
54
54
44
44
00
ENDCHAR
STARTCHAR N
ENCODING 78
SWIDTH 750 0
DWIDTH 6 0
BBX 6 8 0 -1
BITMAP
44
64
64
54
4C
4C
44
00
ENDCHAR
STARTCHAR O
ENCODING 79
SWIDTH 750 0
DWIDTH 6 0
BBX 6 8 0 -1
BITMAP
38
44
44
44
44
44
38
00
ENDCHAR
STARTCHAR P
ENCODING 80
SWIDTH 750 0
DWIDTH 6 0
BBX 6 8 0 -1
BITMAP
78
44
44
78
40
40
40
00
ENDCHAR
STARTCHAR Q
ENCODING 81
SWIDTH 750 0
DWIDTH 6 0
BBX 6 8 0 -1
BITMAP
38
44
44
44
54
48
34
00
ENDCHAR
STARTCHAR R
ENCODING 82
SWIDTH 750 0
DWIDTH 6 0
BBX 6 8 0 -1
BITMAP
78
44
44
78
48
44
44
00
ENDCHAR
STARTCHAR S
ENCODING 83
SWIDTH 750 0
DWIDTH 6 0
BBX 6 8 0 -1
BITMAP
38
44
40
38
04
44
38
00
ENDCHAR
STARTCHAR T
ENCODING 84
SWIDTH 750 0
DWIDTH 6 0
BBX 6 8 0 -1
BITMAP
7C
10
10
10
10
10
10
00
ENDCHAR
STARTCHAR U
ENCODING 85
SWIDTH 750 0
DWIDTH 6 0
BBX 6 8 0 -1
BITMAP
44
44
44
44
44
44
38
00
ENDCHAR
STARTCHAR V
ENCODING 86
SWIDTH 750 0
DWIDTH 6 0
BBX 6 8 0 -1
BITMAP
44
44
44
28
28
10
10
00
ENDCHAR
STARTCHAR W
ENCODING 87
SWIDTH 750 0
DWIDTH 6 0
BBX 6 8 0 -1
BITMAP
44
44
44
54
54
6C
44
00
ENDCHAR
STARTCHAR X
ENCODING 88
SWIDTH 750 0
DWIDTH 6 0
BBX 6 8 0 -1
BITMAP
44
44
28
10
28
44
44
00
ENDCHAR
STARTCHAR Y
ENCODING 89
SWIDTH 750 0
DWIDTH 6 0
BBX 6 8 0 -1
BITMAP
44
44
28
38
10
10
10
00
ENDCHAR
STARTCHAR Z
ENCODING 90
SWIDTH 750 0
DWIDTH 6 0
BBX 6 8 0 -1
BITMAP
7C
04
08
10
20
40
7C
00
ENDCHAR
STARTCHAR bracketleft
ENCODING 91
SWIDTH 750 0
DWIDTH 6 0
BBX 6 8 0 -1
BITMAP
38
20
20
20
20
20
38
00
ENDCHAR
STARTCHAR backslash
ENCODING 92
SWIDTH 750 0
DWIDTH 6 0
BBX 6 8 0 -1
BITMAP
00
40
60
30
18
0C
04
00
ENDCHAR
STARTCHAR bracketright
ENCODING 93
SWIDTH 750 0
DWIDTH 6 0
BBX 6 8 0 -1
BITMAP
38
08
08
08
08
08
38
00
ENDCHAR
STARTCHAR asciicircum
ENCODING 94
SWIDTH 750 0
DWIDTH 6 0
BBX 6 8 0 -1
BITMAP
10
28
44
00
00
00
00
00
ENDCHAR
STARTCHAR underscore
ENCODING 95
SWIDTH 750 0
DWIDTH 6 0
BBX 6 8 0 -1
BITMAP
00
00
00
00
00
00
00
FC
ENDCHAR
STARTCHAR grave
ENCODING 96
SWIDTH 750 0
DWIDTH 6 0
BBX 6 8 0 -1
BITMAP
10
08
00
00
00
00
00
00
ENDCHAR
STARTCHAR a
ENCODING 97
SWIDTH 750 0
DWIDTH 6 0
BBX 6 8 0 -1
BITMAP
00
00
38
04
3C
44
3C
00
ENDCHAR
STARTCHAR b
ENCODING 98
SWIDTH 750 0
DWIDTH 6 0
BBX 6 8 0 -1
BITMAP
40
40
58
64
44
64
58
00
ENDCHAR
STARTCHAR c
ENCODING 99
SWIDTH 750 0
DWIDTH 6 0
BBX 6 8 0 -1
BITMAP
00
00
38
44
40
44
38
00
ENDCHAR
STARTCHAR d
ENCODING 100
SWIDTH 750 0
DWIDTH 6 0
BBX 6 8 0 -1
BITMAP
04
04
34
4C
44
4C
34
00
ENDCHAR
STARTCHAR e
ENCODING 101
SWIDTH 750 0
DWIDTH 6 0
BBX 6 8 0 -1
BITMAP
00
00
38
44
7C
40
38
00
ENDCHAR
STARTCHAR f
ENCODING 102
SWIDTH 750 0
DWIDTH 6 0
BBX 6 8 0 -1
BITMAP
18
24
20
70
20
20
20
00
ENDCHAR
STARTCHAR g
ENCODING 103
SWIDTH 750 0
DWIDTH 6 0
BBX 6 8 0 -1
BITMAP
00
00
34
4C
44
3C
04
38
ENDCHAR
STARTCHAR h
ENCODING 104
SWIDTH 750 0
DWIDTH 6 0
BBX 6 8 0 -1
BITMAP
40
40
58
64
44
44
44
00
ENDCHAR
STARTCHAR i
ENCODING 105
SWIDTH 750 0
DWIDTH 6 0
BBX 6 8 0 -1
BITMAP
10
00
30
10
10
10
38
00
ENDCHAR
STARTCHAR j
ENCODING 106
SWIDTH 750 0
DWIDTH 6 0
BBX 6 8 0 -1
BITMAP
08
00
18
08
08
08
48
30
ENDCHAR
STARTCHAR k
ENCODING 107
SWIDTH 750 0
DWIDTH 6 0
BBX 6 8 0 -1
BITMAP
40
40
48
50
60
50
48
00
ENDCHAR
STARTCHAR l
ENCODING 108
SWIDTH 750 0
DWIDTH 6 0
BBX 6 8 0 -1
BITMAP
30
10
10
10
10
10
38
00
ENDCHAR
STARTCHAR m
ENCODING 109
SWIDTH 750 0
DWIDTH 6 0
BBX 6 8 0 -1
BITMAP
00
00
68
54
54
54
54
00
ENDCHAR
STARTCHAR n
ENCODING 110
SWIDTH 750 0
DWIDTH 6 0
BBX 6 8 0 -1
BITMAP
00
00
58
64
44
44
44
00
ENDCHAR
STARTCHAR o
ENCODING 111
SWIDTH 750 0
DWIDTH 6 0
BBX 6 8 0 -1
BITMAP
00
00
38
44
44
44
38
00
ENDCHAR
STARTCHAR p
ENCODING 112
SWIDTH 750 0
DWIDTH 6 0
BBX 6 8 0 -1
BITMAP
00
00
58
64
44
64
58
40
ENDCHAR
STARTCHAR q
ENCODING 113
SWIDTH 750 0
DWIDTH 6 0
BBX 6 8 0 -1
BITMAP
00
00
34
4C
44
4C
34
04
ENDCHAR
STARTCHAR r
ENCODING 114
SWIDTH 750 0
DWIDTH 6 0
BBX 6 8 0 -1
BITMAP
00
00
58
24
20
20
70
00
ENDCHAR
STARTCHAR s
ENCODING 115
SWIDTH 750 0
DWIDTH 6 0
BBX 6 8 0 -1
BITMAP
00
00
3C
40
38
04
78
00
ENDCHAR
STARTCHAR t
ENCODING 116
SWIDTH 750 0
DWIDTH 6 0
BBX 6 8 0 -1
BITMAP
20
20
70
20
20
24
18
00
ENDCHAR
STARTCHAR u
ENCODING 117
SWIDTH 750 0
DWIDTH 6 0
BBX 6 8 0 -1
BITMAP
00
00
44
44
44
4C
34
00
ENDCHAR
STARTCHAR v
ENCODING 118
SWIDTH 750 0
DWIDTH 6 0
BBX 6 8 0 -1
BITMAP
00
00
44
44
44
28
10
00
ENDCHAR
STARTCHAR w
ENCODING 119
SWIDTH 750 0
DWIDTH 6 0
BBX 6 8 0 -1
BITMAP
00
00
44
44
54
54
28
00
ENDCHAR
STARTCHAR x
ENCODING 120
SWIDTH 750 0
DWIDTH 6 0
BBX 6 8 0 -1
BITMAP
00
00
44
28
10
28
44
00
ENDCHAR
STARTCHAR y
ENCODING 121
SWIDTH 750 0
DWIDTH 6 0
BBX 6 8 0 -1
BITMAP
00
00
44
44
44
3C
04
38
ENDCHAR
STARTCHAR z
ENCODING 122
SWIDTH 750 0
DWIDTH 6 0
BBX 6 8 0 -1
BITMAP
00
00
7C
08
10
20
7C
00
ENDCHAR
STARTCHAR braceleft
ENCODING 123
SWIDTH 750 0
DWIDTH 6 0
BBX 6 8 0 -1
BITMAP
18
20
20
40
20
20
18
00
ENDCHAR
STARTCHAR bar
ENCODING 124
SWIDTH 750 0
DWIDTH 6 0
BBX 6 8 0 -1
BITMAP
10
10
10
10
10
10
10
00
ENDCHAR
STARTCHAR braceright
ENCODING 125
SWIDTH 750 0
DWIDTH 6 0
BBX 6 8 0 -1
BITMAP
30
08
08
04
08
08
30
00
ENDCHAR
STARTCHAR asciitilde
ENCODING 126
SWIDTH 750 0
DWIDTH 6 0
BBX 6 8 0 -1
BITMAP
20
54
08
00
00
00
00
00
ENDCHAR
STARTCHAR uni007F
ENCODING 127
SWIDTH 750 0
DWIDTH 6 0
BBX 6 8 0 -1
BITMAP
00
10
28
44
44
44
7C
00
ENDCHAR
STARTCHAR uni00A0
ENCODING 160
SWIDTH 750 0
DWIDTH 6 0
BBX 6 8 0 -1
BITMAP
00
00
00
00
00
00
00
00
ENDCHAR
STARTCHAR exclamdown
ENCODING 161
SWIDTH 750 0
DWIDTH 6 0
BBX 6 8 0 -1
BITMAP
10
00
10
10
10
10
10
00
ENDCHAR
STARTCHAR cent
ENCODING 162
SWIDTH 750 0
DWIDTH 6 0
BBX 6 8 0 -1
BITMAP
00
10
38
44
40
44
38
10
ENDCHAR
STARTCHAR sterling
ENCODING 163
SWIDTH 750 0
DWIDTH 6 0
BBX 6 8 0 -1
BITMAP
18
24
20
78
20
20
7C
00
ENDCHAR
STARTCHAR currency
ENCODING 164
SWIDTH 750 0
DWIDTH 6 0
BBX 6 8 0 -1
BITMAP
00
84
78
48
48
78
84
00
ENDCHAR
STARTCHAR yen
ENCODING 165
SWIDTH 750 0
DWIDTH 6 0
BBX 6 8 0 -1
BITMAP
44
28
10
7C
10
7C
10
10
ENDCHAR
STARTCHAR brokenbar
ENCODING 166
SWIDTH 750 0
DWIDTH 6 0
BBX 6 8 0 -1
BITMAP
10
10
10
00
10
10
10
00
ENDCHAR
STARTCHAR section
ENCODING 167
SWIDTH 750 0
DWIDTH 6 0
BBX 6 8 0 -1
BITMAP
38
44
30
48
48
30
88
70
ENDCHAR
STARTCHAR dieresis
ENCODING 168
SWIDTH 750 0
DWIDTH 6 0
BBX 6 8 0 -1
BITMAP
28
00
00
00
00
00
00
00
ENDCHAR
STARTCHAR copyright
ENCODING 169
SWIDTH 750 0
DWIDTH 6 0
BBX 6 8 0 -1
BITMAP
78
84
B4
A4
A4
B4
84
78
ENDCHAR
STARTCHAR ordfeminine
ENCODING 170
SWIDTH 750 0
DWIDTH 6 0
BBX 6 8 0 -1
BITMAP
38
48
48
34
00
7C
00
00
ENDCHAR
STARTCHAR guillemotleft
ENCODING 171
SWIDTH 750 0
DWIDTH 6 0
BBX 6 8 0 -1
BITMAP
00
24
48
90
48
24
00
00
ENDCHAR
STARTCHAR logicalnot
ENCODING 172
SWIDTH 750 0
DWIDTH 6 0
BBX 6 8 0 -1
BITMAP
00
00
00
F8
08
08
08
00
ENDCHAR
STARTCHAR uni00AD
ENCODING 173
SWIDTH 750 0
DWIDTH 6 0
BBX 6 8 0 -1
BITMAP
00
00
00
7C
00
00
00
00
ENDCHAR
STARTCHAR registered
ENCODING 174
SWIDTH 750 0
DWIDTH 6 0
BBX 6 8 0 -1
BITMAP
78
84
B4
AC
B4
AC
84
78
ENDCHAR
STARTCHAR macron
ENCODING 175
SWIDTH 750 0
DWIDTH 6 0
BBX 6 8 0 -1
BITMAP
FC
00
00
00
00
00
00
00
ENDCHAR
STARTCHAR degree
ENCODING 176
SWIDTH 750 0
DWIDTH 6 0
BBX 6 8 0 -1
BITMAP
30
48
48
30
00
00
00
00
ENDCHAR
STARTCHAR plusminus
ENCODING 177
SWIDTH 750 0
DWIDTH 6 0
BBX 6 8 0 -1
BITMAP
00
10
10
7C
10
10
7C
00
ENDCHAR
STARTCHAR uni00B2
ENCODING 178
SWIDTH 750 0
DWIDTH 6 0
BBX 6 8 0 -1
BITMAP
30
08
10
38
00
00
00
00
ENDCHAR
STARTCHAR uni00B3
ENCODING 179
SWIDTH 750 0
DWIDTH 6 0
BBX 6 8 0 -1
BITMAP
38
18
08
38
00
00
00
00
ENDCHAR
STARTCHAR acute
ENCODING 180
SWIDTH 750 0
DWIDTH 6 0
BBX 6 8 0 -1
BITMAP
08
10
00
00
00
00
00
00
ENDCHAR
STARTCHAR mu
ENCODING 181
SWIDTH 750 0
DWIDTH 6 0
BBX 6 8 0 -1
BITMAP
00
00
44
44
44
44
7C
40
ENDCHAR
STARTCHAR paragraph
ENCODING 182
SWIDTH 750 0
DWIDTH 6 0
BBX 6 8 0 -1
BITMAP
3C
54
54
34
14
14
14
00
ENDCHAR
STARTCHAR periodcentered
ENCODING 183
SWIDTH 750 0
DWIDTH 6 0
BBX 6 8 0 -1
BITMAP
00
00
00
20
00
00
00
00
ENDCHAR
STARTCHAR cedilla
ENCODING 184
SWIDTH 750 0
DWIDTH 6 0
BBX 6 8 0 -1
BITMAP
00
00
00
00
00
00
00
70
ENDCHAR
STARTCHAR uni00B9
ENCODING 185
SWIDTH 750 0
DWIDTH 6 0
BBX 6 8 0 -1
BITMAP
10
30
10
38
00
00
00
00
ENDCHAR
STARTCHAR ordmasculine
ENCODING 186
SWIDTH 750 0
DWIDTH 6 0
BBX 6 8 0 -1
BITMAP
30
48
48
30
00
78
00
00
ENDCHAR
STARTCHAR guillemotright
ENCODING 187
SWIDTH 750 0
DWIDTH 6 0
BBX 6 8 0 -1
BITMAP
00
90
48
24
48
90
00
00
ENDCHAR
STARTCHAR onequarter
ENCODING 188
SWIDTH 750 0
DWIDTH 6 0
BBX 6 8 0 -1
BITMAP
40
48
50
20
54
1C
04
00
ENDCHAR
STARTCHAR onehalf
ENCODING 189
SWIDTH 750 0
DWIDTH 6 0
BBX 6 8 0 -1
BITMAP
40
48
50
2C
44
08
0C
00
ENDCHAR
STARTCHAR threequarters
ENCODING 190
SWIDTH 750 0
DWIDTH 6 0
BBX 6 8 0 -1
BITMAP
C0
68
D0
20
54
1C
04
00
ENDCHAR
STARTCHAR questiondown
ENCODING 191
SWIDTH 750 0
DWIDTH 6 0
BBX 6 8 0 -1
BITMAP
10
00
10
20
44
44
38
00
ENDCHAR
STARTCHAR Agrave
ENCODING 192
SWIDTH 750 0
DWIDTH 6 0
BBX 6 8 0 -1
BITMAP
60
38
44
44
7C
44
44
00
ENDCHAR
STARTCHAR Aacute
ENCODING 193
SWIDTH 750 0
DWIDTH 6 0
BBX 6 8 0 -1
BITMAP
0C
38
44
44
7C
44
44
00
ENDCHAR
STARTCHAR Acircumflex
ENCODING 194
SWIDTH 750 0
DWIDTH 6 0
BBX 6 8 0 -1
BITMAP
38
38
44
44
7C
44
44
00
ENDCHAR
STARTCHAR Atilde
ENCODING 195
SWIDTH 750 0
DWIDTH 6 0
BBX 6 8 0 -1
BITMAP
64
BC
44
44
7C
44
44
00
ENDCHAR
STARTCHAR Adieresis
ENCODING 196
SWIDTH 750 0
DWIDTH 6 0
BBX 6 8 0 -1
BITMAP
28
38
44
44
7C
44
44
00
ENDCHAR
STARTCHAR Aring
ENCODING 197
SWIDTH 750 0
DWIDTH 6 0
BBX 6 8 0 -1
BITMAP
10
38
44
44
7C
44
44
00
ENDCHAR
STARTCHAR AE
ENCODING 198
SWIDTH 750 0
DWIDTH 6 0
BBX 6 8 0 -1
BITMAP
2C
50
50
7C
50
50
5C
00
ENDCHAR
STARTCHAR Ccedilla
ENCODING 199
SWIDTH 750 0
DWIDTH 6 0
BBX 6 8 0 -1
BITMAP
38
44
40
40
40
44
38
70
ENDCHAR
STARTCHAR Egrave
ENCODING 200
SWIDTH 750 0
DWIDTH 6 0
BBX 6 8 0 -1
BITMAP
70
7C
40
78
40
40
7C
00
ENDCHAR
STARTCHAR Eacute
ENCODING 201
SWIDTH 750 0
DWIDTH 6 0
BBX 6 8 0 -1
BITMAP
1C
7C
40
78
40
40
7C
00
ENDCHAR
STARTCHAR Ecircumflex
ENCODING 202
SWIDTH 750 0
DWIDTH 6 0
BBX 6 8 0 -1
BITMAP
38
7C
40
78
40
40
7C
00
ENDCHAR
STARTCHAR Edieresis
ENCODING 203
SWIDTH 750 0
DWIDTH 6 0
BBX 6 8 0 -1
BITMAP
28
7C
40
78
40
40
7C
00
ENDCHAR
STARTCHAR Igrave
ENCODING 204
SWIDTH 750 0
DWIDTH 6 0
BBX 6 8 0 -1
BITMAP
30
38
10
10
10
10
38
00
ENDCHAR
STARTCHAR Iacute
ENCODING 205
SWIDTH 750 0
DWIDTH 6 0
BBX 6 8 0 -1
BITMAP
18
38
10
10
10
10
38
00
ENDCHAR
STARTCHAR Icircumflex
ENCODING 206
SWIDTH 750 0
DWIDTH 6 0
BBX 6 8 0 -1
BITMAP
38
38
10
10
10
10
38
00
ENDCHAR
STARTCHAR Idieresis
ENCODING 207
SWIDTH 750 0
DWIDTH 6 0
BBX 6 8 0 -1
BITMAP
28
38
10
10
10
10
38
00
ENDCHAR
STARTCHAR Eth
ENCODING 208
SWIDTH 750 0
DWIDTH 6 0
BBX 6 8 0 -1
BITMAP
70
48
44
E4
44
48
70
00
ENDCHAR
STARTCHAR Ntilde
ENCODING 209
SWIDTH 750 0
DWIDTH 6 0
BBX 6 8 0 -1
BITMAP
38
44
64
74
5C
4C
44
00
ENDCHAR
STARTCHAR Ograve
ENCODING 210
SWIDTH 750 0
DWIDTH 6 0
BBX 6 8 0 -1
BITMAP
60
38
44
44
44
44
38
00
ENDCHAR
STARTCHAR Oacute
ENCODING 211
SWIDTH 750 0
DWIDTH 6 0
BBX 6 8 0 -1
BITMAP
0C
38
44
44
44
44
38
00
ENDCHAR
STARTCHAR Ocircumflex
ENCODING 212
SWIDTH 750 0
DWIDTH 6 0
BBX 6 8 0 -1
BITMAP
7C
38
44
44
44
44
38
00
ENDCHAR
STARTCHAR Otilde
ENCODING 213
SWIDTH 750 0
DWIDTH 6 0
BBX 6 8 0 -1
BITMAP
64
B8
44
44
44
44
38
00
ENDCHAR
STARTCHAR Odieresis
ENCODING 214
SWIDTH 750 0
DWIDTH 6 0
BBX 6 8 0 -1
BITMAP
28
38
44
44
44
44
38
00
ENDCHAR
STARTCHAR multiply
ENCODING 215
SWIDTH 750 0
DWIDTH 6 0
BBX 6 8 0 -1
BITMAP
00
44
28
10
28
44
00
00
ENDCHAR
STARTCHAR Oslash
ENCODING 216
SWIDTH 750 0
DWIDTH 6 0
BBX 6 8 0 -1
BITMAP
38
44
4C
54
64
44
B8
00
ENDCHAR
STARTCHAR Ugrave
ENCODING 217
SWIDTH 750 0
DWIDTH 6 0
BBX 6 8 0 -1
BITMAP
20
54
44
44
44
44
38
00
ENDCHAR
STARTCHAR Uacute
ENCODING 218
SWIDTH 750 0
DWIDTH 6 0
BBX 6 8 0 -1
BITMAP
08
54
44
44
44
44
38
00
ENDCHAR
STARTCHAR Ucircumflex
ENCODING 219
SWIDTH 750 0
DWIDTH 6 0
BBX 6 8 0 -1
BITMAP
10
6C
44
44
44
44
38
00
ENDCHAR
STARTCHAR Udieresis
ENCODING 220
SWIDTH 750 0
DWIDTH 6 0
BBX 6 8 0 -1
BITMAP
28
44
44
44
44
44
38
00
ENDCHAR
STARTCHAR Yacute
ENCODING 221
SWIDTH 750 0
DWIDTH 6 0
BBX 6 8 0 -1
BITMAP
18
44
28
38
10
10
10
00
ENDCHAR
STARTCHAR Thorn
ENCODING 222
SWIDTH 750 0
DWIDTH 6 0
BBX 6 8 0 -1
BITMAP
40
78
44
44
78
40
40
00
ENDCHAR
STARTCHAR germandbls
ENCODING 223
SWIDTH 750 0
DWIDTH 6 0
BBX 6 8 0 -1
BITMAP
00
38
44
58
44
44
D8
00
ENDCHAR
STARTCHAR agrave
ENCODING 224
SWIDTH 750 0
DWIDTH 6 0
BBX 6 8 0 -1
BITMAP
20
10
38
04
3C
44
3C
00
ENDCHAR
STARTCHAR aacute
ENCODING 225
SWIDTH 750 0
DWIDTH 6 0
BBX 6 8 0 -1
BITMAP
08
10
38
04
3C
44
3C
00
ENDCHAR
STARTCHAR acircumflex
ENCODING 226
SWIDTH 750 0
DWIDTH 6 0
BBX 6 8 0 -1
BITMAP
10
28
38
04
3C
44
3C
00
ENDCHAR
STARTCHAR atilde
ENCODING 227
SWIDTH 750 0
DWIDTH 6 0
BBX 6 8 0 -1
BITMAP
38
00
38
04
3C
44
3C
00
ENDCHAR
STARTCHAR adieresis
ENCODING 228
SWIDTH 750 0
DWIDTH 6 0
BBX 6 8 0 -1
BITMAP
28
00
38
04
3C
44
3C
00
ENDCHAR
STARTCHAR aring
ENCODING 229
SWIDTH 750 0
DWIDTH 6 0
BBX 6 8 0 -1
BITMAP
10
00
38
04
3C
44
3C
00
ENDCHAR
STARTCHAR ae
ENCODING 230
SWIDTH 750 0
DWIDTH 6 0
BBX 6 8 0 -1
BITMAP
00
00
6C
14
7C
50
7C
00
ENDCHAR
STARTCHAR ccedilla
ENCODING 231
SWIDTH 750 0
DWIDTH 6 0
BBX 6 8 0 -1
BITMAP
00
00
38
44
40
44
38
70
ENDCHAR
STARTCHAR egrave
ENCODING 232
SWIDTH 750 0
DWIDTH 6 0
BBX 6 8 0 -1
BITMAP
20
10
38
44
7C
40
38
00
ENDCHAR
STARTCHAR eacute
ENCODING 233
SWIDTH 750 0
DWIDTH 6 0
BBX 6 8 0 -1
BITMAP
08
10
38
44
7C
40
38
00
ENDCHAR
STARTCHAR ecircumflex
ENCODING 234
SWIDTH 750 0
DWIDTH 6 0
BBX 6 8 0 -1
BITMAP
10
28
38
44
7C
40
38
00
ENDCHAR
STARTCHAR edieresis
ENCODING 235
SWIDTH 750 0
DWIDTH 6 0
BBX 6 8 0 -1
BITMAP
28
00
38
44
7C
40
38
00
ENDCHAR
STARTCHAR igrave
ENCODING 236
SWIDTH 750 0
DWIDTH 6 0
BBX 6 8 0 -1
BITMAP
20
10
30
10
10
10
38
00
ENDCHAR
STARTCHAR iacute
ENCODING 237
SWIDTH 750 0
DWIDTH 6 0
BBX 6 8 0 -1
BITMAP
08
10
30
10
10
10
38
00
ENDCHAR
STARTCHAR icircumflex
ENCODING 238
SWIDTH 750 0
DWIDTH 6 0
BBX 6 8 0 -1
BITMAP
10
28
30
10
10
10
38
00
ENDCHAR
STARTCHAR idieresis
ENCODING 239
SWIDTH 750 0
DWIDTH 6 0
BBX 6 8 0 -1
BITMAP
28
00
30
10
10
10
38
00
ENDCHAR
STARTCHAR eth
ENCODING 240
SWIDTH 750 0
DWIDTH 6 0
BBX 6 8 0 -1
BITMAP
50
30
48
3C
44
44
38
00
ENDCHAR
STARTCHAR ntilde
ENCODING 241
SWIDTH 750 0
DWIDTH 6 0
BBX 6 8 0 -1
BITMAP
38
00
58
64
44
44
44
00
ENDCHAR
STARTCHAR ograve
ENCODING 242
SWIDTH 750 0
DWIDTH 6 0
BBX 6 8 0 -1
BITMAP
20
10
38
44
44
44
38
00
ENDCHAR
STARTCHAR oacute
ENCODING 243
SWIDTH 750 0
DWIDTH 6 0
BBX 6 8 0 -1
BITMAP
08
10
38
44
44
44
38
00
ENDCHAR
STARTCHAR ocircumflex
ENCODING 244
SWIDTH 750 0
DWIDTH 6 0
BBX 6 8 0 -1
BITMAP
10
28
38
44
44
44
38
00
ENDCHAR
STARTCHAR otilde
ENCODING 245
SWIDTH 750 0
DWIDTH 6 0
BBX 6 8 0 -1
BITMAP
38
00
38
44
44
44
38
00
ENDCHAR
STARTCHAR odieresis
ENCODING 246
SWIDTH 750 0
DWIDTH 6 0
BBX 6 8 0 -1
BITMAP
28
00
38
44
44
44
38
00
ENDCHAR
STARTCHAR divide
ENCODING 247
SWIDTH 750 0
DWIDTH 6 0
BBX 6 8 0 -1
BITMAP
00
10
00
7C
00
10
00
00
ENDCHAR
STARTCHAR oslash
ENCODING 248
SWIDTH 750 0
DWIDTH 6 0
BBX 6 8 0 -1
BITMAP
00
00
3C
4C
54
64
78
00
ENDCHAR
STARTCHAR ugrave
ENCODING 249
SWIDTH 750 0
DWIDTH 6 0
BBX 6 8 0 -1
BITMAP
20
10
44
44
44
4C
34
00
ENDCHAR
STARTCHAR uacute
ENCODING 250
SWIDTH 750 0
DWIDTH 6 0
BBX 6 8 0 -1
BITMAP
08
10
44
44
44
4C
34
00
ENDCHAR
STARTCHAR ucircumflex
ENCODING 251
SWIDTH 750 0
DWIDTH 6 0
BBX 6 8 0 -1
BITMAP
10
28
44
44
44
4C
34
00
ENDCHAR
STARTCHAR udieresis
ENCODING 252
SWIDTH 750 0
DWIDTH 6 0
BBX 6 8 0 -1
BITMAP
28
00
44
44
44
4C
34
00
ENDCHAR
STARTCHAR yacute
ENCODING 253
SWIDTH 750 0
DWIDTH 6 0
BBX 6 8 0 -1
BITMAP
08
10
44
44
44
3C
04
38
ENDCHAR
STARTCHAR thorn
ENCODING 254
SWIDTH 750 0
DWIDTH 6 0
BBX 6 8 0 -1
BITMAP
40
40
58
64
44
64
58
40
ENDCHAR
STARTCHAR ydieresis
ENCODING 255
SWIDTH 750 0
DWIDTH 6 0
BBX 6 8 0 -1
BITMAP
28
00
44
44
44
3C
04
38
ENDCHAR
STARTCHAR Amacron
ENCODING 256
SWIDTH 750 0
DWIDTH 6 0
BBX 6 8 0 -1
BITMAP
7C
38
44
44
7C
44
44
00
ENDCHAR
STARTCHAR amacron
ENCODING 257
SWIDTH 750 0
DWIDTH 6 0
BBX 6 8 0 -1
BITMAP
38
00
38
04
3C
44
3C
00
ENDCHAR
STARTCHAR Abreve
ENCODING 258
SWIDTH 750 0
DWIDTH 6 0
BBX 6 8 0 -1
BITMAP
28
38
44
44
7C
44
44
00
ENDCHAR
STARTCHAR abreve
ENCODING 259
SWIDTH 750 0
DWIDTH 6 0
BBX 6 8 0 -1
BITMAP
28
10
38
04
3C
44
3C
00
ENDCHAR
STARTCHAR Aogonek
ENCODING 260
SWIDTH 750 0
DWIDTH 6 0
BBX 6 8 0 -1
BITMAP
38
44
44
44
7C
44
48
04
ENDCHAR
STARTCHAR aogonek
ENCODING 261
SWIDTH 750 0
DWIDTH 6 0
BBX 6 8 0 -1
BITMAP
00
00
38
04
3C
44
38
0C
ENDCHAR
STARTCHAR Cacute
ENCODING 262
SWIDTH 750 0
DWIDTH 6 0
BBX 6 8 0 -1
BITMAP
0C
38
44
40
40
44
38
00
ENDCHAR
STARTCHAR cacute
ENCODING 263
SWIDTH 750 0
DWIDTH 6 0
BBX 6 8 0 -1
BITMAP
08
10
38
44
40
44
38
00
ENDCHAR
STARTCHAR Ccircumflex
ENCODING 264
SWIDTH 750 0
DWIDTH 6 0
BBX 6 8 0 -1
BITMAP
38
38
44
40
40
44
38
00
ENDCHAR
STARTCHAR ccircumflex
ENCODING 265
SWIDTH 750 0
DWIDTH 6 0
BBX 6 8 0 -1
BITMAP
10
28
38
44
40
44
38
00
ENDCHAR
STARTCHAR Cdotaccent
ENCODING 266
SWIDTH 750 0
DWIDTH 6 0
BBX 6 8 0 -1
BITMAP
10
38
44
40
40
44
38
00
ENDCHAR
STARTCHAR cdotaccent
ENCODING 267
SWIDTH 750 0
DWIDTH 6 0
BBX 6 8 0 -1
BITMAP
10
00
38
44
40
44
38
00
ENDCHAR
STARTCHAR Ccaron
ENCODING 268
SWIDTH 750 0
DWIDTH 6 0
BBX 6 8 0 -1
BITMAP
7C
38
44
40
40
44
38
00
ENDCHAR
STARTCHAR ccaron
ENCODING 269
SWIDTH 750 0
DWIDTH 6 0
BBX 6 8 0 -1
BITMAP
28
10
38
44
40
44
38
00
ENDCHAR
STARTCHAR Dcaron
ENCODING 270
SWIDTH 750 0
DWIDTH 6 0
BBX 6 8 0 -1
BITMAP
78
70
48
44
44
48
70
00
ENDCHAR
STARTCHAR dcaron
ENCODING 271
SWIDTH 750 0
DWIDTH 6 0
BBX 6 8 0 -1
BITMAP
0C
0C
38
48
48
48
38
00
ENDCHAR
STARTCHAR Dcroat
ENCODING 272
SWIDTH 750 0
DWIDTH 6 0
BBX 6 8 0 -1
BITMAP
70
48
44
E4
44
48
70
00
ENDCHAR
STARTCHAR dcroat
ENCODING 273
SWIDTH 750 0
DWIDTH 6 0
BBX 6 8 0 -1
BITMAP
04
0C
34
4C
44
4C
34
00
ENDCHAR
STARTCHAR Emacron
ENCODING 274
SWIDTH 750 0
DWIDTH 6 0
BBX 6 8 0 -1
BITMAP
7C
7C
40
78
40
40
7C
00
ENDCHAR
STARTCHAR emacron
ENCODING 275
SWIDTH 750 0
DWIDTH 6 0
BBX 6 8 0 -1
BITMAP
38
00
38
44
7C
40
38
00
ENDCHAR
STARTCHAR Ebreve
ENCODING 276
SWIDTH 750 0
DWIDTH 6 0
BBX 6 8 0 -1
BITMAP
6C
7C
40
78
40
40
7C
00
ENDCHAR
STARTCHAR ebreve
ENCODING 277
SWIDTH 750 0
DWIDTH 6 0
BBX 6 8 0 -1
BITMAP
28
10
38
44
7C
40
38
00
ENDCHAR
STARTCHAR Edotaccent
ENCODING 278
SWIDTH 750 0
DWIDTH 6 0
BBX 6 8 0 -1
BITMAP
10
7C
40
78
40
40
7C
00
ENDCHAR
STARTCHAR edotaccent
ENCODING 279
SWIDTH 750 0
DWIDTH 6 0
BBX 6 8 0 -1
BITMAP
10
00
38
44
7C
40
38
00
ENDCHAR
STARTCHAR Eogonek
ENCODING 280
SWIDTH 750 0
DWIDTH 6 0
BBX 6 8 0 -1
BITMAP
7C
40
40
78
40
40
7C
0C
ENDCHAR
STARTCHAR eogonek
ENCODING 281
SWIDTH 750 0
DWIDTH 6 0
BBX 6 8 0 -1
BITMAP
00
00
38
44
7C
40
38
0C
ENDCHAR
STARTCHAR Ecaron
ENCODING 282
SWIDTH 750 0
DWIDTH 6 0
BBX 6 8 0 -1
BITMAP
38
7C
40
78
40
40
7C
00
ENDCHAR
STARTCHAR ecaron
ENCODING 283
SWIDTH 750 0
DWIDTH 6 0
BBX 6 8 0 -1
BITMAP
28
10
38
44
7C
40
38
00
ENDCHAR
STARTCHAR Gcircumflex
ENCODING 284
SWIDTH 750 0
DWIDTH 6 0
BBX 6 8 0 -1
BITMAP
38
38
44
40
4C
44
3C
00
ENDCHAR
STARTCHAR gcircumflex
ENCODING 285
SWIDTH 750 0
DWIDTH 6 0
BBX 6 8 0 -1
BITMAP
10
28
3C
44
44
3C
04
38
ENDCHAR
STARTCHAR Gbreve
ENCODING 286
SWIDTH 750 0
DWIDTH 6 0
BBX 6 8 0 -1
BITMAP
28
38
44
40
4C
44
3C
00
ENDCHAR
STARTCHAR gbreve
ENCODING 287
SWIDTH 750 0
DWIDTH 6 0
BBX 6 8 0 -1
BITMAP
38
00
3C
44
44
3C
04
38
ENDCHAR
STARTCHAR Gdotaccent
ENCODING 288
SWIDTH 750 0
DWIDTH 6 0
BBX 6 8 0 -1
BITMAP
10
38
44
40
4C
44
3C
00
ENDCHAR
STARTCHAR gdotaccent
ENCODING 289
SWIDTH 750 0
DWIDTH 6 0
BBX 6 8 0 -1
BITMAP
10
00
3C
44
44
3C
04
38
ENDCHAR
STARTCHAR uni0122
ENCODING 290
SWIDTH 750 0
DWIDTH 6 0
BBX 6 8 0 -1
BITMAP
38
44
40
40
4C
44
3C
70
ENDCHAR
STARTCHAR uni0123
ENCODING 291
SWIDTH 750 0
DWIDTH 6 0
BBX 6 8 0 -1
BITMAP
30
10
3C
44
44
3C
04
38
ENDCHAR
STARTCHAR Hcircumflex
ENCODING 292
SWIDTH 750 0
DWIDTH 6 0
BBX 6 8 0 -1
BITMAP
38
00
44
44
7C
44
44
00
ENDCHAR
STARTCHAR hcircumflex
ENCODING 293
SWIDTH 750 0
DWIDTH 6 0
BBX 6 8 0 -1
BITMAP
48
54
40
58
64
44
44
00
ENDCHAR
STARTCHAR Hbar
ENCODING 294
SWIDTH 750 0
DWIDTH 6 0
BBX 6 8 0 -1
BITMAP
44
7C
44
7C
44
44
44
00
ENDCHAR
STARTCHAR hbar
ENCODING 295
SWIDTH 750 0
DWIDTH 6 0
BBX 6 8 0 -1
BITMAP
40
F0
58
64
44
44
44
00
ENDCHAR
STARTCHAR Itilde
ENCODING 296
SWIDTH 750 0
DWIDTH 6 0
BBX 6 8 0 -1
BITMAP
74
B8
10
10
10
10
38
00
ENDCHAR
STARTCHAR itilde
ENCODING 297
SWIDTH 750 0
DWIDTH 6 0
BBX 6 8 0 -1
BITMAP
34
58
30
10
10
10
38
00
ENDCHAR
STARTCHAR Imacron
ENCODING 298
SWIDTH 750 0
DWIDTH 6 0
BBX 6 8 0 -1
BITMAP
7C
38
10
10
10
10
38
00
ENDCHAR
STARTCHAR imacron
ENCODING 299
SWIDTH 750 0
DWIDTH 6 0
BBX 6 8 0 -1
BITMAP
38
00
30
10
10
10
38
00
ENDCHAR
STARTCHAR Ibreve
ENCODING 300
SWIDTH 750 0
DWIDTH 6 0
BBX 6 8 0 -1
BITMAP
6C
38
10
10
10
10
38
00
ENDCHAR
STARTCHAR ibreve
ENCODING 301
SWIDTH 750 0
DWIDTH 6 0
BBX 6 8 0 -1
BITMAP
28
10
30
10
10
10
38
00
ENDCHAR
STARTCHAR Iogonek
ENCODING 302
SWIDTH 750 0
DWIDTH 6 0
BBX 6 8 0 -1
BITMAP
00
38
10
10
10
10
38
0C
ENDCHAR
STARTCHAR iogonek
ENCODING 303
SWIDTH 750 0
DWIDTH 6 0
BBX 6 8 0 -1
BITMAP
10
00
30
10
10
10
38
0C
ENDCHAR
STARTCHAR Idotaccent
ENCODING 304
SWIDTH 750 0
DWIDTH 6 0
BBX 6 8 0 -1
BITMAP
10
38
10
10
10
10
38
00
ENDCHAR
STARTCHAR dotlessi
ENCODING 305
SWIDTH 750 0
DWIDTH 6 0
BBX 6 8 0 -1
BITMAP
00
00
30
10
10
10
38
00
ENDCHAR
STARTCHAR IJ
ENCODING 306
SWIDTH 750 0
DWIDTH 6 0
BBX 6 8 0 -1
BITMAP
44
44
44
44
54
54
58
00
ENDCHAR
STARTCHAR ij
ENCODING 307
SWIDTH 750 0
DWIDTH 6 0
BBX 6 8 0 -1
BITMAP
44
00
4C
44
44
44
54
18
ENDCHAR
STARTCHAR Jcircumflex
ENCODING 308
SWIDTH 750 0
DWIDTH 6 0
BBX 6 8 0 -1
BITMAP
24
54
04
04
44
44
38
00
ENDCHAR
STARTCHAR jcircumflex
ENCODING 309
SWIDTH 750 0
DWIDTH 6 0
BBX 6 8 0 -1
BITMAP
08
14
18
08
08
08
48
30
ENDCHAR
STARTCHAR uni0136
ENCODING 310
SWIDTH 750 0
DWIDTH 6 0
BBX 6 8 0 -1
BITMAP
44
48
50
60
50
48
54
30
ENDCHAR
STARTCHAR uni0137
ENCODING 311
SWIDTH 750 0
DWIDTH 6 0
BBX 6 8 0 -1
BITMAP
20
20
24
28
30
28
24
60
ENDCHAR
STARTCHAR kgreenlandic
ENCODING 312
SWIDTH 750 0
DWIDTH 6 0
BBX 6 8 0 -1
BITMAP
00
00
64
28
30
28
64
00
ENDCHAR
STARTCHAR Lacute
ENCODING 313
SWIDTH 750 0
DWIDTH 6 0
BBX 6 8 0 -1
BITMAP
20
40
40
40
40
40
7C
00
ENDCHAR
STARTCHAR lacute
ENCODING 314
SWIDTH 750 0
DWIDTH 6 0
BBX 6 8 0 -1
BITMAP
08
30
10
10
10
10
38
00
ENDCHAR
STARTCHAR uni013B
ENCODING 315
SWIDTH 750 0
DWIDTH 6 0
BBX 6 8 0 -1
BITMAP
40
40
40
40
40
40
7C
30
ENDCHAR
STARTCHAR uni013C
ENCODING 316
SWIDTH 750 0
DWIDTH 6 0
BBX 6 8 0 -1
BITMAP
30
10
10
10
10
10
38
60
ENDCHAR
STARTCHAR Lcaron
ENCODING 317
SWIDTH 750 0
DWIDTH 6 0
BBX 6 8 0 -1
BITMAP
50
50
40
40
40
40
7C
00
ENDCHAR
STARTCHAR lcaron
ENCODING 318
SWIDTH 750 0
DWIDTH 6 0
BBX 6 8 0 -1
BITMAP
34
14
10
10
10
10
38
00
ENDCHAR
STARTCHAR Ldot
ENCODING 319
SWIDTH 750 0
DWIDTH 6 0
BBX 6 8 0 -1
BITMAP
40
40
40
48
40
40
7C
00
ENDCHAR
STARTCHAR ldot
ENCODING 320
SWIDTH 750 0
DWIDTH 6 0
BBX 6 8 0 -1
BITMAP
30
10
10
14
10
10
38
00
ENDCHAR
STARTCHAR Lslash
ENCODING 321
SWIDTH 750 0
DWIDTH 6 0
BBX 6 8 0 -1
BITMAP
40
40
60
40
C0
40
7C
00
ENDCHAR
STARTCHAR lslash
ENCODING 322
SWIDTH 750 0
DWIDTH 6 0
BBX 6 8 0 -1
BITMAP
30
10
18
10
30
10
38
00
ENDCHAR
STARTCHAR Nacute
ENCODING 323
SWIDTH 750 0
DWIDTH 6 0
BBX 6 8 0 -1
BITMAP
08
54
64
74
5C
4C
44
00
ENDCHAR
STARTCHAR nacute
ENCODING 324
SWIDTH 750 0
DWIDTH 6 0
BBX 6 8 0 -1
BITMAP
08
10
58
64
44
44
44
00
ENDCHAR
STARTCHAR uni0145
ENCODING 325
SWIDTH 750 0
DWIDTH 6 0
BBX 6 8 0 -1
BITMAP
44
64
64
54
4C
4C
54
30
ENDCHAR
STARTCHAR uni0146
ENCODING 326
SWIDTH 750 0
DWIDTH 6 0
BBX 6 8 0 -1
BITMAP
00
00
58
64
44
44
54
30
ENDCHAR
STARTCHAR Ncaron
ENCODING 327
SWIDTH 750 0
DWIDTH 6 0
BBX 6 8 0 -1
BITMAP
28
54
64
74
5C
4C
44
00
ENDCHAR
STARTCHAR ncaron
ENCODING 328
SWIDTH 750 0
DWIDTH 6 0
BBX 6 8 0 -1
BITMAP
28
10
58
64
44
44
44
00
ENDCHAR
STARTCHAR napostrophe
ENCODING 329
SWIDTH 750 0
DWIDTH 6 0
BBX 6 8 0 -1
BITMAP
40
80
58
64
44
44
44
00
ENDCHAR
STARTCHAR Eng
ENCODING 330
SWIDTH 750 0
DWIDTH 6 0
BBX 6 8 0 -1
BITMAP
44
64
64
54
4C
4C
44
18
ENDCHAR
STARTCHAR eng
ENCODING 331
SWIDTH 750 0
DWIDTH 6 0
BBX 6 8 0 -1
BITMAP
00
00
58
64
44
44
44
18
ENDCHAR
STARTCHAR Omacron
ENCODING 332
SWIDTH 750 0
DWIDTH 6 0
BBX 6 8 0 -1
BITMAP
7C
38
44
44
44
44
38
00
ENDCHAR
STARTCHAR omacron
ENCODING 333
SWIDTH 750 0
DWIDTH 6 0
BBX 6 8 0 -1
BITMAP
38
00
38
44
44
44
38
00
ENDCHAR
STARTCHAR Obreve
ENCODING 334
SWIDTH 750 0
DWIDTH 6 0
BBX 6 8 0 -1
BITMAP
6C
38
44
44
44
44
38
00
ENDCHAR
STARTCHAR obreve
ENCODING 335
SWIDTH 750 0
DWIDTH 6 0
BBX 6 8 0 -1
BITMAP
28
10
38
44
44
44
38
00
ENDCHAR
STARTCHAR Ohungarumlaut
ENCODING 336
SWIDTH 750 0
DWIDTH 6 0
BBX 6 8 0 -1
BITMAP
44
B8
44
44
44
44
38
00
ENDCHAR
STARTCHAR ohungarumlaut
ENCODING 337
SWIDTH 750 0
DWIDTH 6 0
BBX 6 8 0 -1
BITMAP
24
48
38
44
44
44
38
00
ENDCHAR
STARTCHAR OE
ENCODING 338
SWIDTH 750 0
DWIDTH 6 0
BBX 6 8 0 -1
BITMAP
2C
50
50
5C
50
50
2C
00
ENDCHAR
STARTCHAR oe
ENCODING 339
SWIDTH 750 0
DWIDTH 6 0
BBX 6 8 0 -1
BITMAP
00
00
2C
54
5C
50
2C
00
ENDCHAR
STARTCHAR Racute
ENCODING 340
SWIDTH 750 0
DWIDTH 6 0
BBX 6 8 0 -1
BITMAP
0C
78
44
44
78
48
44
00
ENDCHAR
STARTCHAR racute
ENCODING 341
SWIDTH 750 0
DWIDTH 6 0
BBX 6 8 0 -1
BITMAP
08
10
58
24
20
20
70
00
ENDCHAR
STARTCHAR uni0156
ENCODING 342
SWIDTH 750 0
DWIDTH 6 0
BBX 6 8 0 -1
BITMAP
78
44
44
78
48
44
54
30
ENDCHAR
STARTCHAR uni0157
ENCODING 343
SWIDTH 750 0
DWIDTH 6 0
BBX 6 8 0 -1
BITMAP
00
00
58
24
20
20
70
C0
ENDCHAR
STARTCHAR Rcaron
ENCODING 344
SWIDTH 750 0
DWIDTH 6 0
BBX 6 8 0 -1
BITMAP
38
78
44
44
78
48
44
00
ENDCHAR
STARTCHAR rcaron
ENCODING 345
SWIDTH 750 0
DWIDTH 6 0
BBX 6 8 0 -1
BITMAP
28
10
58
24
20
20
70
00
ENDCHAR
STARTCHAR Sacute
ENCODING 346
SWIDTH 750 0
DWIDTH 6 0
BBX 6 8 0 -1
BITMAP
0C
38
44
30
0C
44
38
00
ENDCHAR
STARTCHAR sacute
ENCODING 347
SWIDTH 750 0
DWIDTH 6 0
BBX 6 8 0 -1
BITMAP
08
10
3C
40
38
04
78
00
ENDCHAR
STARTCHAR Scircumflex
ENCODING 348
SWIDTH 750 0
DWIDTH 6 0
BBX 6 8 0 -1
BITMAP
38
38
44
30
0C
44
38
00
ENDCHAR
STARTCHAR scircumflex
ENCODING 349
SWIDTH 750 0
DWIDTH 6 0
BBX 6 8 0 -1
BITMAP
10
28
3C
40
38
04
78
00
ENDCHAR
STARTCHAR Scedilla
ENCODING 350
SWIDTH 750 0
DWIDTH 6 0
BBX 6 8 0 -1
BITMAP
38
44
40
38
04
44
38
70
ENDCHAR
STARTCHAR scedilla
ENCODING 351
SWIDTH 750 0
DWIDTH 6 0
BBX 6 8 0 -1
BITMAP
00
00
3C
40
38
04
78
E0
ENDCHAR
STARTCHAR Scaron
ENCODING 352
SWIDTH 750 0
DWIDTH 6 0
BBX 6 8 0 -1
BITMAP
38
38
44
30
0C
44
38
00
ENDCHAR
STARTCHAR scaron
ENCODING 353
SWIDTH 750 0
DWIDTH 6 0
BBX 6 8 0 -1
BITMAP
28
10
3C
40
38
04
78
00
ENDCHAR
STARTCHAR uni0162
ENCODING 354
SWIDTH 750 0
DWIDTH 6 0
BBX 6 8 0 -1
BITMAP
7C
10
10
10
10
10
10
60
ENDCHAR
STARTCHAR uni0163
ENCODING 355
SWIDTH 750 0
DWIDTH 6 0
BBX 6 8 0 -1
BITMAP
20
20
70
20
20
24
18
70
ENDCHAR
STARTCHAR Tcaron
ENCODING 356
SWIDTH 750 0
DWIDTH 6 0
BBX 6 8 0 -1
BITMAP
38
7C
10
10
10
10
10
00
ENDCHAR
STARTCHAR tcaron
ENCODING 357
SWIDTH 750 0
DWIDTH 6 0
BBX 6 8 0 -1
BITMAP
24
24
70
20
20
24
18
00
ENDCHAR
STARTCHAR Tbar
ENCODING 358
SWIDTH 750 0
DWIDTH 6 0
BBX 6 8 0 -1
BITMAP
7C
10
10
38
10
10
10
00
ENDCHAR
STARTCHAR tbar
ENCODING 359
SWIDTH 750 0
DWIDTH 6 0
BBX 6 8 0 -1
BITMAP
20
20
70
20
70
24
18
00
ENDCHAR
STARTCHAR Utilde
ENCODING 360
SWIDTH 750 0
DWIDTH 6 0
BBX 6 8 0 -1
BITMAP
68
B4
44
44
44
44
38
00
ENDCHAR
STARTCHAR utilde
ENCODING 361
SWIDTH 750 0
DWIDTH 6 0
BBX 6 8 0 -1
BITMAP
34
28
44
44
44
4C
34
00
ENDCHAR
STARTCHAR Umacron
ENCODING 362
SWIDTH 750 0
DWIDTH 6 0
BBX 6 8 0 -1
BITMAP
7C
00
44
44
44
44
38
00
ENDCHAR
STARTCHAR umacron
ENCODING 363
SWIDTH 750 0
DWIDTH 6 0
BBX 6 8 0 -1
BITMAP
38
00
44
44
44
4C
34
00
ENDCHAR
STARTCHAR Ubreve
ENCODING 364
SWIDTH 750 0
DWIDTH 6 0
BBX 6 8 0 -1
BITMAP
28
54
44
44
44
44
38
00
ENDCHAR
STARTCHAR ubreve
ENCODING 365
SWIDTH 750 0
DWIDTH 6 0
BBX 6 8 0 -1
BITMAP
28
10
44
44
44
4C
34
00
ENDCHAR
STARTCHAR Uring
ENCODING 366
SWIDTH 750 0
DWIDTH 6 0
BBX 6 8 0 -1
BITMAP
54
44
44
44
44
44
38
00
ENDCHAR
STARTCHAR uring
ENCODING 367
SWIDTH 750 0
DWIDTH 6 0
BBX 6 8 0 -1
BITMAP
10
00
44
44
44
4C
34
00
ENDCHAR
STARTCHAR Uhungarumlaut
ENCODING 368
SWIDTH 750 0
DWIDTH 6 0
BBX 6 8 0 -1
BITMAP
44
88
44
44
44
44
38
00
ENDCHAR
STARTCHAR uhungarumlaut
ENCODING 369
SWIDTH 750 0
DWIDTH 6 0
BBX 6 8 0 -1
BITMAP
14
28
44
44
44
4C
34
00
ENDCHAR
STARTCHAR Uogonek
ENCODING 370
SWIDTH 750 0
DWIDTH 6 0
BBX 6 8 0 -1
BITMAP
44
44
44
44
44
44
38
0C
ENDCHAR
STARTCHAR uogonek
ENCODING 371
SWIDTH 750 0
DWIDTH 6 0
BBX 6 8 0 -1
BITMAP
00
00
44
44
44
44
38
0C
ENDCHAR
STARTCHAR Wcircumflex
ENCODING 372
SWIDTH 750 0
DWIDTH 6 0
BBX 6 8 0 -1
BITMAP
54
6C
44
54
54
6C
44
00
ENDCHAR
STARTCHAR wcircumflex
ENCODING 373
SWIDTH 750 0
DWIDTH 6 0
BBX 6 8 0 -1
BITMAP
10
28
44
44
54
54
28
00
ENDCHAR
STARTCHAR Ycircumflex
ENCODING 374
SWIDTH 750 0
DWIDTH 6 0
BBX 6 8 0 -1
BITMAP
38
44
28
38
10
10
10
00
ENDCHAR
STARTCHAR ycircumflex
ENCODING 375
SWIDTH 750 0
DWIDTH 6 0
BBX 6 8 0 -1
BITMAP
10
28
44
44
44
3C
04
38
ENDCHAR
STARTCHAR Ydieresis
ENCODING 376
SWIDTH 750 0
DWIDTH 6 0
BBX 6 8 0 -1
BITMAP
28
44
28
38
10
10
10
00
ENDCHAR
STARTCHAR Zacute
ENCODING 377
SWIDTH 750 0
DWIDTH 6 0
BBX 6 8 0 -1
BITMAP
0C
7C
08
10
20
40
7C
00
ENDCHAR
STARTCHAR zacute
ENCODING 378
SWIDTH 750 0
DWIDTH 6 0
BBX 6 8 0 -1
BITMAP
08
10
78
08
10
20
78
00
ENDCHAR
STARTCHAR Zdotaccent
ENCODING 379
SWIDTH 750 0
DWIDTH 6 0
BBX 6 8 0 -1
BITMAP
20
F8
10
20
40
80
F8
00
ENDCHAR
STARTCHAR zdotaccent
ENCODING 380
SWIDTH 750 0
DWIDTH 6 0
BBX 6 8 0 -1
BITMAP
20
00
F8
10
20
40
F8
00
ENDCHAR
STARTCHAR Zcaron
ENCODING 381
SWIDTH 750 0
DWIDTH 6 0
BBX 6 8 0 -1
BITMAP
38
7C
08
10
20
40
7C
00
ENDCHAR
STARTCHAR zcaron
ENCODING 382
SWIDTH 750 0
DWIDTH 6 0
BBX 6 8 0 -1
BITMAP
28
10
7C
08
10
20
7C
00
ENDCHAR
STARTCHAR longs
ENCODING 383
SWIDTH 750 0
DWIDTH 6 0
BBX 6 8 0 -1
BITMAP
18
24
20
20
20
20
20
00
ENDCHAR
STARTCHAR florin
ENCODING 402
SWIDTH 750 0
DWIDTH 6 0
BBX 6 8 0 -1
BITMAP
08
14
10
38
10
10
50
20
ENDCHAR
STARTCHAR ohorn
ENCODING 417
SWIDTH 750 0
DWIDTH 6 0
BBX 6 8 0 -1
BITMAP
00
00
3C
48
44
44
38
00
ENDCHAR
STARTCHAR uni01B7
ENCODING 439
SWIDTH 750 0
DWIDTH 6 0
BBX 6 8 0 -1
BITMAP
7C
44
08
18
04
44
38
00
ENDCHAR
STARTCHAR Aringacute
ENCODING 506
SWIDTH 750 0
DWIDTH 6 0
BBX 6 8 0 -1
BITMAP
1C
28
54
44
7C
44
44
00
ENDCHAR
STARTCHAR aringacute
ENCODING 507
SWIDTH 750 0
DWIDTH 6 0
BBX 6 8 0 -1
BITMAP
3C
30
38
04
3C
44
3C
00
ENDCHAR
STARTCHAR AEacute
ENCODING 508
SWIDTH 750 0
DWIDTH 6 0
BBX 6 8 0 -1
BITMAP
0C
3C
50
7C
50
50
5C
00
ENDCHAR
STARTCHAR aeacute
ENCODING 509
SWIDTH 750 0
DWIDTH 6 0
BBX 6 8 0 -1
BITMAP
08
10
6C
14
7C
50
7C
00
ENDCHAR
STARTCHAR Oslashacute
ENCODING 510
SWIDTH 750 0
DWIDTH 6 0
BBX 6 8 0 -1
BITMAP
1C
38
4C
54
64
44
B8
00
ENDCHAR
STARTCHAR oslashacute
ENCODING 511
SWIDTH 750 0
DWIDTH 6 0
BBX 6 8 0 -1
BITMAP
08
10
3C
4C
54
64
78
00
ENDCHAR
STARTCHAR uni0218
ENCODING 536
SWIDTH 750 0
DWIDTH 6 0
BBX 6 8 0 -1
BITMAP
38
44
40
38
04
44
38
10
ENDCHAR
STARTCHAR uni0219
ENCODING 537
SWIDTH 750 0
DWIDTH 6 0
BBX 6 8 0 -1
BITMAP
00
00
3C
40
38
04
78
10
ENDCHAR
STARTCHAR uni021A
ENCODING 538
SWIDTH 750 0
DWIDTH 6 0
BBX 6 8 0 -1
BITMAP
7C
10
10
10
10
10
10
20
ENDCHAR
STARTCHAR uni021B
ENCODING 539
SWIDTH 750 0
DWIDTH 6 0
BBX 6 8 0 -1
BITMAP
20
20
70
20
20
24
18
20
ENDCHAR
STARTCHAR uni0251
ENCODING 593
SWIDTH 750 0
DWIDTH 6 0
BBX 6 8 0 -1
BITMAP
00
00
34
48
48
48
34
00
ENDCHAR
STARTCHAR uni0278
ENCODING 632
SWIDTH 750 0
DWIDTH 6 0
BBX 6 8 0 -1
BITMAP
38
38
54
54
54
38
38
00
ENDCHAR
STARTCHAR circumflex
ENCODING 710
SWIDTH 750 0
DWIDTH 6 0
BBX 6 8 0 -1
BITMAP
10
28
00
00
00
00
00
00
ENDCHAR
STARTCHAR caron
ENCODING 711
SWIDTH 750 0
DWIDTH 6 0
BBX 6 8 0 -1
BITMAP
50
20
00
00
00
00
00
00
ENDCHAR
STARTCHAR uni02C9
ENCODING 713
SWIDTH 750 0
DWIDTH 6 0
BBX 6 8 0 -1
BITMAP
7C
00
00
00
00
00
00
00
ENDCHAR
STARTCHAR breve
ENCODING 728
SWIDTH 750 0
DWIDTH 6 0
BBX 6 8 0 -1
BITMAP
38
00
00
00
00
00
00
00
ENDCHAR
STARTCHAR dotaccent
ENCODING 729
SWIDTH 750 0
DWIDTH 6 0
BBX 6 8 0 -1
BITMAP
00
10
00
00
00
00
00
00
ENDCHAR
STARTCHAR ring
ENCODING 730
SWIDTH 750 0
DWIDTH 6 0
BBX 6 8 0 -1
BITMAP
10
00
00
00
00
00
00
00
ENDCHAR
STARTCHAR ogonek
ENCODING 731
SWIDTH 750 0
DWIDTH 6 0
BBX 6 8 0 -1
BITMAP
00
00
00
00
00
00
00
0C
ENDCHAR
STARTCHAR tilde
ENCODING 732
SWIDTH 750 0
DWIDTH 6 0
BBX 6 8 0 -1
BITMAP
34
58
00
00
00
00
00
00
ENDCHAR
STARTCHAR hungarumlaut
ENCODING 733
SWIDTH 750 0
DWIDTH 6 0
BBX 6 8 0 -1
BITMAP
24
48
00
00
00
00
00
00
ENDCHAR
STARTCHAR uni037E
ENCODING 894
SWIDTH 750 0
DWIDTH 6 0
BBX 6 8 0 -1
BITMAP
00
00
30
30
00
30
10
20
ENDCHAR
STARTCHAR tonos
ENCODING 900
SWIDTH 750 0
DWIDTH 6 0
BBX 6 8 0 -1
BITMAP
08
10
00
00
00
00
00
00
ENDCHAR
STARTCHAR dieresistonos
ENCODING 901
SWIDTH 750 0
DWIDTH 6 0
BBX 6 8 0 -1
BITMAP
10
54
00
00
00
00
00
00
ENDCHAR
STARTCHAR Alphatonos
ENCODING 902
SWIDTH 750 0
DWIDTH 6 0
BBX 6 8 0 -1
BITMAP
60
38
44
44
7C
44
44
00
ENDCHAR
STARTCHAR anoteleia
ENCODING 903
SWIDTH 750 0
DWIDTH 6 0
BBX 6 8 0 -1
BITMAP
00
00
00
20
00
00
00
00
ENDCHAR
STARTCHAR Epsilontonos
ENCODING 904
SWIDTH 750 0
DWIDTH 6 0
BBX 6 8 0 -1
BITMAP
60
7C
40
78
40
40
7C
00
ENDCHAR
STARTCHAR Etatonos
ENCODING 905
SWIDTH 750 0
DWIDTH 6 0
BBX 6 8 0 -1
BITMAP
60
64
44
7C
44
44
44
00
ENDCHAR
STARTCHAR Iotatonos
ENCODING 906
SWIDTH 750 0
DWIDTH 6 0
BBX 6 8 0 -1
BITMAP
60
78
10
10
10
10
38
00
ENDCHAR
STARTCHAR Omicrontonos
ENCODING 908
SWIDTH 750 0
DWIDTH 6 0
BBX 6 8 0 -1
BITMAP
60
38
44
44
44
44
38
00
ENDCHAR
STARTCHAR Upsilontonos
ENCODING 910
SWIDTH 750 0
DWIDTH 6 0
BBX 6 8 0 -1
BITMAP
60
44
28
38
10
10
10
00
ENDCHAR
STARTCHAR Omegatonos
ENCODING 911
SWIDTH 750 0
DWIDTH 6 0
BBX 6 8 0 -1
BITMAP
60
38
44
44
44
28
6C
00
ENDCHAR
STARTCHAR iotadieresistonos
ENCODING 912
SWIDTH 750 0
DWIDTH 6 0
BBX 6 8 0 -1
BITMAP
54
10
30
10
10
10
08
00
ENDCHAR
STARTCHAR Alpha
ENCODING 913
SWIDTH 750 0
DWIDTH 6 0
BBX 6 8 0 -1
BITMAP
38
44
44
44
7C
44
44
00
ENDCHAR
STARTCHAR Beta
ENCODING 914
SWIDTH 750 0
DWIDTH 6 0
BBX 6 8 0 -1
BITMAP
78
44
44
78
44
44
78
00
ENDCHAR
STARTCHAR Gamma
ENCODING 915
SWIDTH 750 0
DWIDTH 6 0
BBX 6 8 0 -1
BITMAP
7C
40
40
40
40
40
40
00
ENDCHAR
STARTCHAR uni0394
ENCODING 916
SWIDTH 750 0
DWIDTH 6 0
BBX 6 8 0 -1
BITMAP
10
28
28
44
44
44
7C
00
ENDCHAR
STARTCHAR Epsilon
ENCODING 917
SWIDTH 750 0
DWIDTH 6 0
BBX 6 8 0 -1
BITMAP
7C
40
40
78
40
40
7C
00
ENDCHAR
STARTCHAR Zeta
ENCODING 918
SWIDTH 750 0
DWIDTH 6 0
BBX 6 8 0 -1
BITMAP
7C
04
08
10
20
40
7C
00
ENDCHAR
STARTCHAR Eta
ENCODING 919
SWIDTH 750 0
DWIDTH 6 0
BBX 6 8 0 -1
BITMAP
44
44
44
7C
44
44
44
00
ENDCHAR
STARTCHAR Theta
ENCODING 920
SWIDTH 750 0
DWIDTH 6 0
BBX 6 8 0 -1
BITMAP
38
44
44
7C
44
44
38
00
ENDCHAR
STARTCHAR Iota
ENCODING 921
SWIDTH 750 0
DWIDTH 6 0
BBX 6 8 0 -1
BITMAP
38
10
10
10
10
10
38
00
ENDCHAR
STARTCHAR Kappa
ENCODING 922
SWIDTH 750 0
DWIDTH 6 0
BBX 6 8 0 -1
BITMAP
44
48
50
60
50
48
44
00
ENDCHAR
STARTCHAR Lambda
ENCODING 923
SWIDTH 750 0
DWIDTH 6 0
BBX 6 8 0 -1
BITMAP
10
28
28
44
44
44
44
00
ENDCHAR
STARTCHAR Mu
ENCODING 924
SWIDTH 750 0
DWIDTH 6 0
BBX 6 8 0 -1
BITMAP
44
6C
6C
54
54
44
44
00
ENDCHAR
STARTCHAR Nu
ENCODING 925
SWIDTH 750 0
DWIDTH 6 0
BBX 6 8 0 -1
BITMAP
44
64
64
54
4C
4C
44
00
ENDCHAR
STARTCHAR Xi
ENCODING 926
SWIDTH 750 0
DWIDTH 6 0
BBX 6 8 0 -1
BITMAP
7C
44
00
38
00
44
7C
00
ENDCHAR
STARTCHAR Omicron
ENCODING 927
SWIDTH 750 0
DWIDTH 6 0
BBX 6 8 0 -1
BITMAP
38
44
44
44
44
44
38
00
ENDCHAR
STARTCHAR Pi
ENCODING 928
SWIDTH 750 0
DWIDTH 6 0
BBX 6 8 0 -1
BITMAP
FC
48
48
48
48
48
48
00
ENDCHAR
STARTCHAR Rho
ENCODING 929
SWIDTH 750 0
DWIDTH 6 0
BBX 6 8 0 -1
BITMAP
78
44
44
78
40
40
40
00
ENDCHAR
STARTCHAR Sigma
ENCODING 931
SWIDTH 750 0
DWIDTH 6 0
BBX 6 8 0 -1
BITMAP
7C
40
20
10
20
40
7C
00
ENDCHAR
STARTCHAR Tau
ENCODING 932
SWIDTH 750 0
DWIDTH 6 0
BBX 6 8 0 -1
BITMAP
7C
10
10
10
10
10
10
00
ENDCHAR
STARTCHAR Upsilon
ENCODING 933
SWIDTH 750 0
DWIDTH 6 0
BBX 6 8 0 -1
BITMAP
44
44
28
38
10
10
10
00
ENDCHAR
STARTCHAR Phi
ENCODING 934
SWIDTH 750 0
DWIDTH 6 0
BBX 6 8 0 -1
BITMAP
38
38
54
54
54
38
38
00
ENDCHAR
STARTCHAR Chi
ENCODING 935
SWIDTH 750 0
DWIDTH 6 0
BBX 6 8 0 -1
BITMAP
44
44
28
10
28
44
44
00
ENDCHAR
STARTCHAR Psi
ENCODING 936
SWIDTH 750 0
DWIDTH 6 0
BBX 6 8 0 -1
BITMAP
54
54
54
38
10
10
10
00
ENDCHAR
STARTCHAR uni03A9
ENCODING 937
SWIDTH 750 0
DWIDTH 6 0
BBX 6 8 0 -1
BITMAP
38
44
44
44
44
28
6C
00
ENDCHAR
STARTCHAR Iotadieresis
ENCODING 938
SWIDTH 750 0
DWIDTH 6 0
BBX 6 8 0 -1
BITMAP
28
38
10
10
10
10
38
00
ENDCHAR
STARTCHAR Upsilondieresis
ENCODING 939
SWIDTH 750 0
DWIDTH 6 0
BBX 6 8 0 -1
BITMAP
28
44
28
38
10
10
10
00
ENDCHAR
STARTCHAR alphatonos
ENCODING 940
SWIDTH 750 0
DWIDTH 6 0
BBX 6 8 0 -1
BITMAP
08
10
34
48
48
48
34
00
ENDCHAR
STARTCHAR epsilontonos
ENCODING 941
SWIDTH 750 0
DWIDTH 6 0
BBX 6 8 0 -1
BITMAP
08
10
3C
40
38
40
3C
00
ENDCHAR
STARTCHAR etatonos
ENCODING 942
SWIDTH 750 0
DWIDTH 6 0
BBX 6 8 0 -1
BITMAP
08
10
58
64
44
44
44
04
ENDCHAR
STARTCHAR iotatonos
ENCODING 943
SWIDTH 750 0
DWIDTH 6 0
BBX 6 8 0 -1
BITMAP
08
10
30
10
10
10
08
00
ENDCHAR
STARTCHAR upsilondieresistonos
ENCODING 944
SWIDTH 750 0
DWIDTH 6 0
BBX 6 8 0 -1
BITMAP
54
10
44
44
44
44
38
00
ENDCHAR
STARTCHAR alpha
ENCODING 945
SWIDTH 750 0
DWIDTH 6 0
BBX 6 8 0 -1
BITMAP
00
00
34
48
48
48
34
00
ENDCHAR
STARTCHAR beta
ENCODING 946
SWIDTH 750 0
DWIDTH 6 0
BBX 6 8 0 -1
BITMAP
00
38
44
58
44
44
D8
00
ENDCHAR
STARTCHAR gamma
ENCODING 947
SWIDTH 750 0
DWIDTH 6 0
BBX 6 8 0 -1
BITMAP
00
00
44
44
28
28
10
10
ENDCHAR
STARTCHAR delta
ENCODING 948
SWIDTH 750 0
DWIDTH 6 0
BBX 6 8 0 -1
BITMAP
18
24
38
44
44
44
38
00
ENDCHAR
STARTCHAR epsilon
ENCODING 949
SWIDTH 750 0
DWIDTH 6 0
BBX 6 8 0 -1
BITMAP
00
00
3C
40
38
40
3C
00
ENDCHAR
STARTCHAR zeta
ENCODING 950
SWIDTH 750 0
DWIDTH 6 0
BBX 6 8 0 -1
BITMAP
7C
10
20
40
40
3C
04
08
ENDCHAR
STARTCHAR eta
ENCODING 951
SWIDTH 750 0
DWIDTH 6 0
BBX 6 8 0 -1
BITMAP
00
00
58
64
44
44
44
04
ENDCHAR
STARTCHAR theta
ENCODING 952
SWIDTH 750 0
DWIDTH 6 0
BBX 6 8 0 -1
BITMAP
30
48
48
78
48
48
30
00
ENDCHAR
STARTCHAR iota
ENCODING 953
SWIDTH 750 0
DWIDTH 6 0
BBX 6 8 0 -1
BITMAP
00
00
30
10
10
10
08
00
ENDCHAR
STARTCHAR kappa
ENCODING 954
SWIDTH 750 0
DWIDTH 6 0
BBX 6 8 0 -1
BITMAP
00
00
48
50
60
50
4C
00
ENDCHAR
STARTCHAR lambda
ENCODING 955
SWIDTH 750 0
DWIDTH 6 0
BBX 6 8 0 -1
BITMAP
20
10
10
18
28
24
44
00
ENDCHAR
STARTCHAR uni03BC
ENCODING 956
SWIDTH 750 0
DWIDTH 6 0
BBX 6 8 0 -1
BITMAP
00
00
44
44
44
44
7C
40
ENDCHAR
STARTCHAR nu
ENCODING 957
SWIDTH 750 0
DWIDTH 6 0
BBX 6 8 0 -1
BITMAP
00
00
44
44
44
28
10
00
ENDCHAR
STARTCHAR xi
ENCODING 958
SWIDTH 750 0
DWIDTH 6 0
BBX 6 8 0 -1
BITMAP
7C
20
40
38
40
3C
04
08
ENDCHAR
STARTCHAR omicron
ENCODING 959
SWIDTH 750 0
DWIDTH 6 0
BBX 6 8 0 -1
BITMAP
00
00
38
44
44
44
38
00
ENDCHAR
STARTCHAR pi
ENCODING 960
SWIDTH 750 0
DWIDTH 6 0
BBX 6 8 0 -1
BITMAP
00
00
FC
48
48
48
48
00
ENDCHAR
STARTCHAR rho
ENCODING 961
SWIDTH 750 0
DWIDTH 6 0
BBX 6 8 0 -1
BITMAP
00
00
38
44
44
78
40
40
ENDCHAR
STARTCHAR sigma1
ENCODING 962
SWIDTH 750 0
DWIDTH 6 0
BBX 6 8 0 -1
BITMAP
00
00
38
44
40
3C
04
08
ENDCHAR
STARTCHAR sigma
ENCODING 963
SWIDTH 750 0
DWIDTH 6 0
BBX 6 8 0 -1
BITMAP
00
00
3C
48
44
44
38
00
ENDCHAR
STARTCHAR tau
ENCODING 964
SWIDTH 750 0
DWIDTH 6 0
BBX 6 8 0 -1
BITMAP
00
00
34
58
10
10
10
00
ENDCHAR
STARTCHAR upsilon
ENCODING 965
SWIDTH 750 0
DWIDTH 6 0
BBX 6 8 0 -1
BITMAP
00
00
44
44
44
44
38
00
ENDCHAR
STARTCHAR phi
ENCODING 966
SWIDTH 750 0
DWIDTH 6 0
BBX 6 8 0 -1
BITMAP
00
00
58
54
54
38
10
10
ENDCHAR
STARTCHAR chi
ENCODING 967
SWIDTH 750 0
DWIDTH 6 0
BBX 6 8 0 -1
BITMAP
00
00
44
28
10
28
44
00
ENDCHAR
STARTCHAR psi
ENCODING 968
SWIDTH 750 0
DWIDTH 6 0
BBX 6 8 0 -1
BITMAP
00
00
54
54
54
38
10
10
ENDCHAR
STARTCHAR omega
ENCODING 969
SWIDTH 750 0
DWIDTH 6 0
BBX 6 8 0 -1
BITMAP
00
00
44
54
54
54
28
00
ENDCHAR
STARTCHAR iotadieresis
ENCODING 970
SWIDTH 750 0
DWIDTH 6 0
BBX 6 8 0 -1
BITMAP
28
00
30
10
10
10
08
00
ENDCHAR
STARTCHAR upsilondieresis
ENCODING 971
SWIDTH 750 0
DWIDTH 6 0
BBX 6 8 0 -1
BITMAP
28
00
44
44
44
44
38
00
ENDCHAR
STARTCHAR omicrontonos
ENCODING 972
SWIDTH 750 0
DWIDTH 6 0
BBX 6 8 0 -1
BITMAP
08
10
38
44
44
44
38
00
ENDCHAR
STARTCHAR upsilontonos
ENCODING 973
SWIDTH 750 0
DWIDTH 6 0
BBX 6 8 0 -1
BITMAP
08
10
44
44
44
44
38
00
ENDCHAR
STARTCHAR omegatonos
ENCODING 974
SWIDTH 750 0
DWIDTH 6 0
BBX 6 8 0 -1
BITMAP
08
10
44
54
54
54
28
00
ENDCHAR
STARTCHAR uni03D0
ENCODING 976
SWIDTH 750 0
DWIDTH 6 0
BBX 6 8 0 -1
BITMAP
00
38
44
58
44
44
D8
00
ENDCHAR
STARTCHAR uni03F4
ENCODING 1012
SWIDTH 750 0
DWIDTH 6 0
BBX 6 8 0 -1
BITMAP
38
44
44
7C
44
44
38
00
ENDCHAR
STARTCHAR uni0400
ENCODING 1024
SWIDTH 750 0
DWIDTH 6 0
BBX 6 8 0 -1
BITMAP
70
7C
40
78
40
40
7C
00
ENDCHAR
STARTCHAR uni0401
ENCODING 1025
SWIDTH 750 0
DWIDTH 6 0
BBX 6 8 0 -1
BITMAP
28
7C
40
78
40
40
7C
00
ENDCHAR
STARTCHAR uni0402
ENCODING 1026
SWIDTH 750 0
DWIDTH 6 0
BBX 6 8 0 -1
BITMAP
F0
40
58
64
44
44
58
00
ENDCHAR
STARTCHAR uni0403
ENCODING 1027
SWIDTH 750 0
DWIDTH 6 0
BBX 6 8 0 -1
BITMAP
18
7C
40
40
40
40
40
00
ENDCHAR
STARTCHAR uni0404
ENCODING 1028
SWIDTH 750 0
DWIDTH 6 0
BBX 6 8 0 -1
BITMAP
38
44
40
78
40
44
38
00
ENDCHAR
STARTCHAR uni0405
ENCODING 1029
SWIDTH 750 0
DWIDTH 6 0
BBX 6 8 0 -1
BITMAP
38
44
40
38
04
44
38
00
ENDCHAR
STARTCHAR uni0406
ENCODING 1030
SWIDTH 750 0
DWIDTH 6 0
BBX 6 8 0 -1
BITMAP
38
10
10
10
10
10
38
00
ENDCHAR
STARTCHAR uni0407
ENCODING 1031
SWIDTH 750 0
DWIDTH 6 0
BBX 6 8 0 -1
BITMAP
28
38
10
10
10
10
38
00
ENDCHAR
STARTCHAR uni0408
ENCODING 1032
SWIDTH 750 0
DWIDTH 6 0
BBX 6 8 0 -1
BITMAP
04
04
04
04
44
44
38
00
ENDCHAR
STARTCHAR uni0409
ENCODING 1033
SWIDTH 750 0
DWIDTH 6 0
BBX 6 8 0 -1
BITMAP
70
50
50
58
54
54
98
00
ENDCHAR
STARTCHAR uni040A
ENCODING 1034
SWIDTH 750 0
DWIDTH 6 0
BBX 6 8 0 -1
BITMAP
50
50
50
78
54
54
58
00
ENDCHAR
STARTCHAR uni040B
ENCODING 1035
SWIDTH 750 0
DWIDTH 6 0
BBX 6 8 0 -1
BITMAP
F0
40
58
64
44
44
44
00
ENDCHAR
STARTCHAR uni040C
ENCODING 1036
SWIDTH 750 0
DWIDTH 6 0
BBX 6 8 0 -1
BITMAP
20
54
44
48
70
48
44
00
ENDCHAR
STARTCHAR uni040D
ENCODING 1037
SWIDTH 750 0
DWIDTH 6 0
BBX 6 8 0 -1
BITMAP
20
54
4C
5C
74
64
44
00
ENDCHAR
STARTCHAR uni040E
ENCODING 1038
SWIDTH 750 0
DWIDTH 6 0
BBX 6 8 0 -1
BITMAP
28
54
44
44
3C
04
78
00
ENDCHAR
STARTCHAR uni040F
ENCODING 1039
SWIDTH 750 0
DWIDTH 6 0
BBX 6 8 0 -1
BITMAP
44
44
44
44
44
44
7C
10
ENDCHAR
STARTCHAR uni0410
ENCODING 1040
SWIDTH 750 0
DWIDTH 6 0
BBX 6 8 0 -1
BITMAP
38
44
44
44
7C
44
44
00
ENDCHAR
STARTCHAR uni0411
ENCODING 1041
SWIDTH 750 0
DWIDTH 6 0
BBX 6 8 0 -1
BITMAP
7C
40
40
78
44
44
78
00
ENDCHAR
STARTCHAR uni0412
ENCODING 1042
SWIDTH 750 0
DWIDTH 6 0
BBX 6 8 0 -1
BITMAP
78
44
44
78
44
44
78
00
ENDCHAR
STARTCHAR uni0413
ENCODING 1043
SWIDTH 750 0
DWIDTH 6 0
BBX 6 8 0 -1
BITMAP
7C
40
40
40
40
40
40
00
ENDCHAR
STARTCHAR uni0414
ENCODING 1044
SWIDTH 750 0
DWIDTH 6 0
BBX 6 8 0 -1
BITMAP
18
28
28
48
48
48
FC
84
ENDCHAR
STARTCHAR uni0415
ENCODING 1045
SWIDTH 750 0
DWIDTH 6 0
BBX 6 8 0 -1
BITMAP
7C
40
40
78
40
40
7C
00
ENDCHAR
STARTCHAR uni0416
ENCODING 1046
SWIDTH 750 0
DWIDTH 6 0
BBX 6 8 0 -1
BITMAP
54
54
54
38
54
54
54
00
ENDCHAR
STARTCHAR uni0417
ENCODING 1047
SWIDTH 750 0
DWIDTH 6 0
BBX 6 8 0 -1
BITMAP
78
44
04
18
04
44
38
00
ENDCHAR
STARTCHAR uni0418
ENCODING 1048
SWIDTH 750 0
DWIDTH 6 0
BBX 6 8 0 -1
BITMAP
44
4C
4C
54
64
64
44
00
ENDCHAR
STARTCHAR uni0419
ENCODING 1049
SWIDTH 750 0
DWIDTH 6 0
BBX 6 8 0 -1
BITMAP
28
54
4C
5C
74
64
44
00
ENDCHAR
STARTCHAR uni041A
ENCODING 1050
SWIDTH 750 0
DWIDTH 6 0
BBX 6 8 0 -1
BITMAP
44
48
50
60
50
48
44
00
ENDCHAR
STARTCHAR uni041B
ENCODING 1051
SWIDTH 750 0
DWIDTH 6 0
BBX 6 8 0 -1
BITMAP
3C
24
24
24
24
24
44
00
ENDCHAR
STARTCHAR uni041C
ENCODING 1052
SWIDTH 750 0
DWIDTH 6 0
BBX 6 8 0 -1
BITMAP
44
6C
6C
54
54
44
44
00
ENDCHAR
STARTCHAR uni041D
ENCODING 1053
SWIDTH 750 0
DWIDTH 6 0
BBX 6 8 0 -1
BITMAP
44
44
44
7C
44
44
44
00
ENDCHAR
STARTCHAR uni041E
ENCODING 1054
SWIDTH 750 0
DWIDTH 6 0
BBX 6 8 0 -1
BITMAP
38
44
44
44
44
44
38
00
ENDCHAR
STARTCHAR uni041F
ENCODING 1055
SWIDTH 750 0
DWIDTH 6 0
BBX 6 8 0 -1
BITMAP
FC
48
48
48
48
48
48
00
ENDCHAR
STARTCHAR uni0420
ENCODING 1056
SWIDTH 750 0
DWIDTH 6 0
BBX 6 8 0 -1
BITMAP
78
44
44
78
40
40
40
00
ENDCHAR
STARTCHAR uni0421
ENCODING 1057
SWIDTH 750 0
DWIDTH 6 0
BBX 6 8 0 -1
BITMAP
38
44
40
40
40
44
38
00
ENDCHAR
STARTCHAR uni0422
ENCODING 1058
SWIDTH 750 0
DWIDTH 6 0
BBX 6 8 0 -1
BITMAP
7C
10
10
10
10
10
10
00
ENDCHAR
STARTCHAR uni0423
ENCODING 1059
SWIDTH 750 0
DWIDTH 6 0
BBX 6 8 0 -1
BITMAP
44
44
44
3C
04
44
38
00
ENDCHAR
STARTCHAR uni0424
ENCODING 1060
SWIDTH 750 0
DWIDTH 6 0
BBX 6 8 0 -1
BITMAP
10
38
54
54
54
38
10
00
ENDCHAR
STARTCHAR uni0425
ENCODING 1061
SWIDTH 750 0
DWIDTH 6 0
BBX 6 8 0 -1
BITMAP
44
44
28
10
28
44
44
00
ENDCHAR
STARTCHAR uni0426
ENCODING 1062
SWIDTH 750 0
DWIDTH 6 0
BBX 6 8 0 -1
BITMAP
48
48
48
48
48
48
7C
04
ENDCHAR
STARTCHAR uni0427
ENCODING 1063
SWIDTH 750 0
DWIDTH 6 0
BBX 6 8 0 -1
BITMAP
44
44
44
3C
04
04
04
00
ENDCHAR
STARTCHAR uni0428
ENCODING 1064
SWIDTH 750 0
DWIDTH 6 0
BBX 6 8 0 -1
BITMAP
54
54
54
54
54
54
7C
00
ENDCHAR
STARTCHAR uni0429
ENCODING 1065
SWIDTH 750 0
DWIDTH 6 0
BBX 6 8 0 -1
BITMAP
54
54
54
54
54
54
7C
0C
ENDCHAR
STARTCHAR uni042A
ENCODING 1066
SWIDTH 750 0
DWIDTH 6 0
BBX 6 8 0 -1
BITMAP
E0
20
20
38
24
24
38
00
ENDCHAR
STARTCHAR uni042B
ENCODING 1067
SWIDTH 750 0
DWIDTH 6 0
BBX 6 8 0 -1
BITMAP
44
44
44
64
54
54
64
00
ENDCHAR
STARTCHAR uni042C
ENCODING 1068
SWIDTH 750 0
DWIDTH 6 0
BBX 6 8 0 -1
BITMAP
40
40
40
78
44
44
78
00
ENDCHAR
STARTCHAR uni042D
ENCODING 1069
SWIDTH 750 0
DWIDTH 6 0
BBX 6 8 0 -1
BITMAP
38
44
04
3C
04
44
38
00
ENDCHAR
STARTCHAR uni042E
ENCODING 1070
SWIDTH 750 0
DWIDTH 6 0
BBX 6 8 0 -1
BITMAP
48
54
54
74
54
54
48
00
ENDCHAR
STARTCHAR uni042F
ENCODING 1071
SWIDTH 750 0
DWIDTH 6 0
BBX 6 8 0 -1
BITMAP
3C
44
44
3C
24
44
44
00
ENDCHAR
STARTCHAR uni0430
ENCODING 1072
SWIDTH 750 0
DWIDTH 6 0
BBX 6 8 0 -1
BITMAP
00
00
38
04
3C
44
3C
00
ENDCHAR
STARTCHAR uni0431
ENCODING 1073
SWIDTH 750 0
DWIDTH 6 0
BBX 6 8 0 -1
BITMAP
38
40
58
64
44
44
38
00
ENDCHAR
STARTCHAR uni0432
ENCODING 1074
SWIDTH 750 0
DWIDTH 6 0
BBX 6 8 0 -1
BITMAP
00
00
78
24
38
24
78
00
ENDCHAR
STARTCHAR uni0433
ENCODING 1075
SWIDTH 750 0
DWIDTH 6 0
BBX 6 8 0 -1
BITMAP
00
00
7C
24
20
20
70
00
ENDCHAR
STARTCHAR uni0434
ENCODING 1076
SWIDTH 750 0
DWIDTH 6 0
BBX 6 8 0 -1
BITMAP
00
00
18
28
28
48
FC
84
ENDCHAR
STARTCHAR uni0435
ENCODING 1077
SWIDTH 750 0
DWIDTH 6 0
BBX 6 8 0 -1
BITMAP
00
00
38
44
7C
40
38
00
ENDCHAR
STARTCHAR uni0436
ENCODING 1078
SWIDTH 750 0
DWIDTH 6 0
BBX 6 8 0 -1
BITMAP
00
00
54
54
38
54
54
00
ENDCHAR
STARTCHAR uni0437
ENCODING 1079
SWIDTH 750 0
DWIDTH 6 0
BBX 6 8 0 -1
BITMAP
00
00
78
44
18
44
38
00
ENDCHAR
STARTCHAR uni0438
ENCODING 1080
SWIDTH 750 0
DWIDTH 6 0
BBX 6 8 0 -1
BITMAP
00
00
44
4C
54
64
44
00
ENDCHAR
STARTCHAR uni0439
ENCODING 1081
SWIDTH 750 0
DWIDTH 6 0
BBX 6 8 0 -1
BITMAP
28
10
44
4C
54
64
44
00
ENDCHAR
STARTCHAR uni043A
ENCODING 1082
SWIDTH 750 0
DWIDTH 6 0
BBX 6 8 0 -1
BITMAP
00
00
64
28
30
28
64
00
ENDCHAR
STARTCHAR uni043B
ENCODING 1083
SWIDTH 750 0
DWIDTH 6 0
BBX 6 8 0 -1
BITMAP
00
00
3C
24
24
24
44
00
ENDCHAR
STARTCHAR uni043C
ENCODING 1084
SWIDTH 750 0
DWIDTH 6 0
BBX 6 8 0 -1
BITMAP
00
00
44
6C
54
54
44
00
ENDCHAR
STARTCHAR uni043D
ENCODING 1085
SWIDTH 750 0
DWIDTH 6 0
BBX 6 8 0 -1
BITMAP
00
00
44
44
7C
44
44
00
ENDCHAR
STARTCHAR uni043E
ENCODING 1086
SWIDTH 750 0
DWIDTH 6 0
BBX 6 8 0 -1
BITMAP
00
00
38
44
44
44
38
00
ENDCHAR
STARTCHAR uni043F
ENCODING 1087
SWIDTH 750 0
DWIDTH 6 0
BBX 6 8 0 -1
BITMAP
00
00
FC
48
48
48
48
00
ENDCHAR
STARTCHAR uni0440
ENCODING 1088
SWIDTH 750 0
DWIDTH 6 0
BBX 6 8 0 -1
BITMAP
00
00
58
64
44
64
58
40
ENDCHAR
STARTCHAR uni0441
ENCODING 1089
SWIDTH 750 0
DWIDTH 6 0
BBX 6 8 0 -1
BITMAP
00
00
38
44
40
44
38
00
ENDCHAR
STARTCHAR uni0442
ENCODING 1090
SWIDTH 750 0
DWIDTH 6 0
BBX 6 8 0 -1
BITMAP
00
00
7C
10
10
10
10
00
ENDCHAR
STARTCHAR uni0443
ENCODING 1091
SWIDTH 750 0
DWIDTH 6 0
BBX 6 8 0 -1
BITMAP
00
00
44
44
44
3C
04
38
ENDCHAR
STARTCHAR uni0444
ENCODING 1092
SWIDTH 750 0
DWIDTH 6 0
BBX 6 8 0 -1
BITMAP
00
10
38
54
54
54
38
10
ENDCHAR
STARTCHAR uni0445
ENCODING 1093
SWIDTH 750 0
DWIDTH 6 0
BBX 6 8 0 -1
BITMAP
00
00
44
28
10
28
44
00
ENDCHAR
STARTCHAR uni0446
ENCODING 1094
SWIDTH 750 0
DWIDTH 6 0
BBX 6 8 0 -1
BITMAP
00
00
48
48
48
48
7C
04
ENDCHAR
STARTCHAR uni0447
ENCODING 1095
SWIDTH 750 0
DWIDTH 6 0
BBX 6 8 0 -1
BITMAP
00
00
4C
48
38
08
1C
00
ENDCHAR
STARTCHAR uni0448
ENCODING 1096
SWIDTH 750 0
DWIDTH 6 0
BBX 6 8 0 -1
BITMAP
00
00
54
54
54
54
7C
00
ENDCHAR
STARTCHAR uni0449
ENCODING 1097
SWIDTH 750 0
DWIDTH 6 0
BBX 6 8 0 -1
BITMAP
00
00
54
54
54
54
7C
0C
ENDCHAR
STARTCHAR uni044A
ENCODING 1098
SWIDTH 750 0
DWIDTH 6 0
BBX 6 8 0 -1
BITMAP
00
00
E0
38
24
24
38
00
ENDCHAR
STARTCHAR uni044B
ENCODING 1099
SWIDTH 750 0
DWIDTH 6 0
BBX 6 8 0 -1
BITMAP
00
00
44
74
54
54
64
00
ENDCHAR
STARTCHAR uni044C
ENCODING 1100
SWIDTH 750 0
DWIDTH 6 0
BBX 6 8 0 -1
BITMAP
00
00
40
78
44
44
78
00
ENDCHAR
STARTCHAR uni044D
ENCODING 1101
SWIDTH 750 0
DWIDTH 6 0
BBX 6 8 0 -1
BITMAP
00
00
38
44
1C
44
38
00
ENDCHAR
STARTCHAR uni044E
ENCODING 1102
SWIDTH 750 0
DWIDTH 6 0
BBX 6 8 0 -1
BITMAP
00
00
58
54
74
54
58
00
ENDCHAR
STARTCHAR uni044F
ENCODING 1103
SWIDTH 750 0
DWIDTH 6 0
BBX 6 8 0 -1
BITMAP
00
00
3C
48
38
28
4C
00
ENDCHAR
STARTCHAR uni0450
ENCODING 1104
SWIDTH 750 0
DWIDTH 6 0
BBX 6 8 0 -1
BITMAP
20
10
38
44
7C
40
38
00
ENDCHAR
STARTCHAR uni0451
ENCODING 1105
SWIDTH 750 0
DWIDTH 6 0
BBX 6 8 0 -1
BITMAP
28
00
38
44
7C
40
38
00
ENDCHAR
STARTCHAR uni0452
ENCODING 1106
SWIDTH 750 0
DWIDTH 6 0
BBX 6 8 0 -1
BITMAP
40
F0
58
64
44
44
58
00
ENDCHAR
STARTCHAR uni0453
ENCODING 1107
SWIDTH 750 0
DWIDTH 6 0
BBX 6 8 0 -1
BITMAP
08
10
7C
24
20
20
70
00
ENDCHAR
STARTCHAR uni0454
ENCODING 1108
SWIDTH 750 0
DWIDTH 6 0
BBX 6 8 0 -1
BITMAP
00
00
38
44
70
44
38
00
ENDCHAR
STARTCHAR uni0455
ENCODING 1109
SWIDTH 750 0
DWIDTH 6 0
BBX 6 8 0 -1
BITMAP
00
00
3C
40
38
04
78
00
ENDCHAR
STARTCHAR uni0456
ENCODING 1110
SWIDTH 750 0
DWIDTH 6 0
BBX 6 8 0 -1
BITMAP
10
00
30
10
10
10
38
00
ENDCHAR
STARTCHAR uni0457
ENCODING 1111
SWIDTH 750 0
DWIDTH 6 0
BBX 6 8 0 -1
BITMAP
28
00
30
10
10
10
38
00
ENDCHAR
STARTCHAR uni0458
ENCODING 1112
SWIDTH 750 0
DWIDTH 6 0
BBX 6 8 0 -1
BITMAP
08
00
18
08
08
08
48
30
ENDCHAR
STARTCHAR uni0459
ENCODING 1113
SWIDTH 750 0
DWIDTH 6 0
BBX 6 8 0 -1
BITMAP
00
00
70
58
54
54
98
00
ENDCHAR
STARTCHAR uni045A
ENCODING 1114
SWIDTH 750 0
DWIDTH 6 0
BBX 6 8 0 -1
BITMAP
00
00
50
50
7C
54
58
00
ENDCHAR
STARTCHAR uni045B
ENCODING 1115
SWIDTH 750 0
DWIDTH 6 0
BBX 6 8 0 -1
BITMAP
40
F0
58
64
44
44
44
00
ENDCHAR
STARTCHAR uni045C
ENCODING 1116
SWIDTH 750 0
DWIDTH 6 0
BBX 6 8 0 -1
BITMAP
08
10
64
28
30
28
64
00
ENDCHAR
STARTCHAR uni045D
ENCODING 1117
SWIDTH 750 0
DWIDTH 6 0
BBX 6 8 0 -1
BITMAP
20
10
44
4C
54
64
44
00
ENDCHAR
STARTCHAR uni045E
ENCODING 1118
SWIDTH 750 0
DWIDTH 6 0
BBX 6 8 0 -1
BITMAP
28
10
44
44
44
3C
04
38
ENDCHAR
STARTCHAR uni045F
ENCODING 1119
SWIDTH 750 0
DWIDTH 6 0
BBX 6 8 0 -1
BITMAP
00
00
44
44
44
44
7C
10
ENDCHAR
STARTCHAR uni0490
ENCODING 1168
SWIDTH 750 0
DWIDTH 6 0
BBX 6 8 0 -1
BITMAP
04
7C
40
40
40
40
40
00
ENDCHAR
STARTCHAR uni0491
ENCODING 1169
SWIDTH 750 0
DWIDTH 6 0
BBX 6 8 0 -1
BITMAP
00
04
7C
20
20
20
70
00
ENDCHAR
STARTCHAR uni05BE
ENCODING 1470
SWIDTH 750 0
DWIDTH 6 0
BBX 6 8 0 -1
BITMAP
78
00
00
00
00
00
00
00
ENDCHAR
STARTCHAR uni05D0
ENCODING 1488
SWIDTH 750 0
DWIDTH 6 0
BBX 6 8 0 -1
BITMAP
44
44
24
54
48
44
44
00
ENDCHAR
STARTCHAR uni05D1
ENCODING 1489
SWIDTH 750 0
DWIDTH 6 0
BBX 6 8 0 -1
BITMAP
70
08
08
08
08
08
7C
00
ENDCHAR
STARTCHAR uni05D2
ENCODING 1490
SWIDTH 750 0
DWIDTH 6 0
BBX 6 8 0 -1
BITMAP
30
08
08
08
0C
14
64
00
ENDCHAR
STARTCHAR uni05D3
ENCODING 1491
SWIDTH 750 0
DWIDTH 6 0
BBX 6 8 0 -1
BITMAP
7C
08
08
08
08
08
08
00
ENDCHAR
STARTCHAR uni05D4
ENCODING 1492
SWIDTH 750 0
DWIDTH 6 0
BBX 6 8 0 -1
BITMAP
78
04
04
04
44
44
44
00
ENDCHAR
STARTCHAR uni05D5
ENCODING 1493
SWIDTH 750 0
DWIDTH 6 0
BBX 6 8 0 -1
BITMAP
20
10
10
10
10
10
10
00
ENDCHAR
STARTCHAR uni05D6
ENCODING 1494
SWIDTH 750 0
DWIDTH 6 0
BBX 6 8 0 -1
BITMAP
38
10
10
08
08
10
10
00
ENDCHAR
STARTCHAR uni05D7
ENCODING 1495
SWIDTH 750 0
DWIDTH 6 0
BBX 6 8 0 -1
BITMAP
78
44
44
44
44
44
44
00
ENDCHAR
STARTCHAR uni05D8
ENCODING 1496
SWIDTH 750 0
DWIDTH 6 0
BBX 6 8 0 -1
BITMAP
58
54
54
44
44
44
78
00
ENDCHAR
STARTCHAR uni05D9
ENCODING 1497
SWIDTH 750 0
DWIDTH 6 0
BBX 6 8 0 -1
BITMAP
30
08
08
10
00
00
00
00
ENDCHAR
STARTCHAR uni05DA
ENCODING 1498
SWIDTH 750 0
DWIDTH 6 0
BBX 6 8 0 -1
BITMAP
78
04
04
08
08
08
08
0C
ENDCHAR
STARTCHAR uni05DB
ENCODING 1499
SWIDTH 750 0
DWIDTH 6 0
BBX 6 8 0 -1
BITMAP
78
04
04
04
04
04
78
00
ENDCHAR
STARTCHAR uni05DC
ENCODING 1500
SWIDTH 750 0
DWIDTH 6 0
BBX 6 8 0 -1
BITMAP
40
78
04
04
08
10
20
00
ENDCHAR
STARTCHAR uni05DD
ENCODING 1501
SWIDTH 750 0
DWIDTH 6 0
BBX 6 8 0 -1
BITMAP
78
44
44
44
44
44
7C
00
ENDCHAR
STARTCHAR uni05DE
ENCODING 1502
SWIDTH 750 0
DWIDTH 6 0
BBX 6 8 0 -1
BITMAP
48
54
64
24
44
44
5C
00
ENDCHAR
STARTCHAR uni05DF
ENCODING 1503
SWIDTH 750 0
DWIDTH 6 0
BBX 6 8 0 -1
BITMAP
30
08
08
10
10
10
10
18
ENDCHAR
STARTCHAR uni05E0
ENCODING 1504
SWIDTH 750 0
DWIDTH 6 0
BBX 6 8 0 -1
BITMAP
10
08
08
08
08
08
78
00
ENDCHAR
STARTCHAR uni05E1
ENCODING 1505
SWIDTH 750 0
DWIDTH 6 0
BBX 6 8 0 -1
BITMAP
78
44
44
44
44
44
38
00
ENDCHAR
STARTCHAR uni05E2
ENCODING 1506
SWIDTH 750 0
DWIDTH 6 0
BBX 6 8 0 -1
BITMAP
24
24
24
24
24
24
78
00
ENDCHAR
STARTCHAR uni05E3
ENCODING 1507
SWIDTH 750 0
DWIDTH 6 0
BBX 6 8 0 -1
BITMAP
78
44
44
64
04
04
04
04
ENDCHAR
STARTCHAR uni05E4
ENCODING 1508
SWIDTH 750 0
DWIDTH 6 0
BBX 6 8 0 -1
BITMAP
78
44
44
64
04
04
7C
00
ENDCHAR
STARTCHAR uni05E5
ENCODING 1509
SWIDTH 750 0
DWIDTH 6 0
BBX 6 8 0 -1
BITMAP
44
44
48
30
20
20
20
30
ENDCHAR
STARTCHAR uni05E6
ENCODING 1510
SWIDTH 750 0
DWIDTH 6 0
BBX 6 8 0 -1
BITMAP
44
44
24
18
08
04
7C
00
ENDCHAR
STARTCHAR uni05E7
ENCODING 1511
SWIDTH 750 0
DWIDTH 6 0
BBX 6 8 0 -1
BITMAP
78
04
04
44
48
50
40
40
ENDCHAR
STARTCHAR uni05E8
ENCODING 1512
SWIDTH 750 0
DWIDTH 6 0
BBX 6 8 0 -1
BITMAP
78
04
04
04
04
04
04
00
ENDCHAR
STARTCHAR uni05E9
ENCODING 1513
SWIDTH 750 0
DWIDTH 6 0
BBX 6 8 0 -1
BITMAP
54
54
54
54
74
44
38
00
ENDCHAR
STARTCHAR uni05EA
ENCODING 1514
SWIDTH 750 0
DWIDTH 6 0
BBX 6 8 0 -1
BITMAP
38
24
24
24
24
24
64
00
ENDCHAR
STARTCHAR uni05F0
ENCODING 1520
SWIDTH 750 0
DWIDTH 6 0
BBX 6 8 0 -1
BITMAP
48
24
24
24
24
24
24
00
ENDCHAR
STARTCHAR uni05F1
ENCODING 1521
SWIDTH 750 0
DWIDTH 6 0
BBX 6 8 0 -1
BITMAP
68
24
24
44
04
04
04
00
ENDCHAR
STARTCHAR uni05F2
ENCODING 1522
SWIDTH 750 0
DWIDTH 6 0
BBX 6 8 0 -1
BITMAP
6C
24
24
48
00
00
00
00
ENDCHAR
STARTCHAR uni05F3
ENCODING 1523
SWIDTH 750 0
DWIDTH 6 0
BBX 6 8 0 -1
BITMAP
10
10
20
00
00
00
00
00
ENDCHAR
STARTCHAR uni05F4
ENCODING 1524
SWIDTH 750 0
DWIDTH 6 0
BBX 6 8 0 -1
BITMAP
24
24
48
00
00
00
00
00
ENDCHAR
STARTCHAR uni1D1B
ENCODING 7451
SWIDTH 750 0
DWIDTH 6 0
BBX 6 8 0 -1
BITMAP
00
00
34
58
10
10
10
00
ENDCHAR
STARTCHAR uni1D26
ENCODING 7462
SWIDTH 750 0
DWIDTH 6 0
BBX 6 8 0 -1
BITMAP
7C
40
40
40
40
40
40
00
ENDCHAR
STARTCHAR uni1D28
ENCODING 7464
SWIDTH 750 0
DWIDTH 6 0
BBX 6 8 0 -1
BITMAP
00
00
FC
48
48
48
48
00
ENDCHAR
STARTCHAR Wgrave
ENCODING 7808
SWIDTH 750 0
DWIDTH 6 0
BBX 6 8 0 -1
BITMAP
30
44
44
54
54
6C
44
00
ENDCHAR
STARTCHAR wgrave
ENCODING 7809
SWIDTH 750 0
DWIDTH 6 0
BBX 6 8 0 -1
BITMAP
20
10
44
44
54
54
28
00
ENDCHAR
STARTCHAR Wacute
ENCODING 7810
SWIDTH 750 0
DWIDTH 6 0
BBX 6 8 0 -1
BITMAP
18
44
44
54
54
6C
44
00
ENDCHAR
STARTCHAR wacute
ENCODING 7811
SWIDTH 750 0
DWIDTH 6 0
BBX 6 8 0 -1
BITMAP
08
10
44
44
54
54
28
00
ENDCHAR
STARTCHAR Wdieresis
ENCODING 7812
SWIDTH 750 0
DWIDTH 6 0
BBX 6 8 0 -1
BITMAP
28
44
44
54
54
6C
44
00
ENDCHAR
STARTCHAR wdieresis
ENCODING 7813
SWIDTH 750 0
DWIDTH 6 0
BBX 6 8 0 -1
BITMAP
28
00
44
44
54
54
28
00
ENDCHAR
STARTCHAR uni1E9F
ENCODING 7839
SWIDTH 750 0
DWIDTH 6 0
BBX 6 8 0 -1
BITMAP
18
24
38
44
44
44
38
00
ENDCHAR
STARTCHAR Ygrave
ENCODING 7922
SWIDTH 750 0
DWIDTH 6 0
BBX 6 8 0 -1
BITMAP
30
44
28
38
10
10
10
00
ENDCHAR
STARTCHAR ygrave
ENCODING 7923
SWIDTH 750 0
DWIDTH 6 0
BBX 6 8 0 -1
BITMAP
20
10
44
44
44
3C
04
38
ENDCHAR
STARTCHAR uni2010
ENCODING 8208
SWIDTH 750 0
DWIDTH 6 0
BBX 6 8 0 -1
BITMAP
00
00
00
38
00
00
00
00
ENDCHAR
STARTCHAR figuredash
ENCODING 8210
SWIDTH 750 0
DWIDTH 6 0
BBX 6 8 0 -1
BITMAP
00
00
00
78
00
00
00
00
ENDCHAR
STARTCHAR endash
ENCODING 8211
SWIDTH 750 0
DWIDTH 6 0
BBX 6 8 0 -1
BITMAP
00
00
00
78
00
00
00
00
ENDCHAR
STARTCHAR emdash
ENCODING 8212
SWIDTH 750 0
DWIDTH 6 0
BBX 6 8 0 -1
BITMAP
00
00
00
7C
00
00
00
00
ENDCHAR
STARTCHAR uni2015
ENCODING 8213
SWIDTH 750 0
DWIDTH 6 0
BBX 6 8 0 -1
BITMAP
00
00
00
7C
00
00
00
00
ENDCHAR
STARTCHAR underscoredbl
ENCODING 8215
SWIDTH 750 0
DWIDTH 6 0
BBX 6 8 0 -1
BITMAP
00
00
00
00
00
00
FC
FC
ENDCHAR
STARTCHAR quoteleft
ENCODING 8216
SWIDTH 750 0
DWIDTH 6 0
BBX 6 8 0 -1
BITMAP
10
20
30
30
00
00
00
00
ENDCHAR
STARTCHAR quoteright
ENCODING 8217
SWIDTH 750 0
DWIDTH 6 0
BBX 6 8 0 -1
BITMAP
30
30
10
20
00
00
00
00
ENDCHAR
STARTCHAR quotesinglbase
ENCODING 8218
SWIDTH 750 0
DWIDTH 6 0
BBX 6 8 0 -1
BITMAP
00
00
00
00
30
30
10
20
ENDCHAR
STARTCHAR quotereversed
ENCODING 8219
SWIDTH 750 0
DWIDTH 6 0
BBX 6 8 0 -1
BITMAP
30
30
20
10
00
00
00
00
ENDCHAR
STARTCHAR quotedblleft
ENCODING 8220
SWIDTH 750 0
DWIDTH 6 0
BBX 6 8 0 -1
BITMAP
24
48
6C
6C
00
00
00
00
ENDCHAR
STARTCHAR quotedblright
ENCODING 8221
SWIDTH 750 0
DWIDTH 6 0
BBX 6 8 0 -1
BITMAP
6C
6C
24
48
00
00
00
00
ENDCHAR
STARTCHAR quotedblbase
ENCODING 8222
SWIDTH 750 0
DWIDTH 6 0
BBX 6 8 0 -1
BITMAP
00
00
00
00
6C
6C
24
48
ENDCHAR
STARTCHAR uni201F
ENCODING 8223
SWIDTH 750 0
DWIDTH 6 0
BBX 6 8 0 -1
BITMAP
6C
6C
48
24
00
00
00
00
ENDCHAR
STARTCHAR dagger
ENCODING 8224
SWIDTH 750 0
DWIDTH 6 0
BBX 6 8 0 -1
BITMAP
10
10
7C
10
10
10
10
00
ENDCHAR
STARTCHAR daggerdbl
ENCODING 8225
SWIDTH 750 0
DWIDTH 6 0
BBX 6 8 0 -1
BITMAP
10
10
7C
10
7C
10
10
00
ENDCHAR
STARTCHAR bullet
ENCODING 8226
SWIDTH 750 0
DWIDTH 6 0
BBX 6 8 0 -1
BITMAP
00
00
00
30
30
00
00
00
ENDCHAR
STARTCHAR ellipsis
ENCODING 8230
SWIDTH 750 0
DWIDTH 6 0
BBX 6 8 0 -1
BITMAP
00
00
00
00
00
00
54
00
ENDCHAR
STARTCHAR uni2027
ENCODING 8231
SWIDTH 750 0
DWIDTH 6 0
BBX 6 8 0 -1
BITMAP
00
00
00
30
30
00
00
00
ENDCHAR
STARTCHAR perthousand
ENCODING 8240
SWIDTH 750 0
DWIDTH 6 0
BBX 6 8 0 -1
BITMAP
20
54
28
10
38
54
28
00
ENDCHAR
STARTCHAR minute
ENCODING 8242
SWIDTH 750 0
DWIDTH 6 0
BBX 6 8 0 -1
BITMAP
10
20
00
00
00
00
00
00
ENDCHAR
STARTCHAR second
ENCODING 8243
SWIDTH 750 0
DWIDTH 6 0
BBX 6 8 0 -1
BITMAP
24
48
00
00
00
00
00
00
ENDCHAR
STARTCHAR uni2035
ENCODING 8245
SWIDTH 750 0
DWIDTH 6 0
BBX 6 8 0 -1
BITMAP
20
10
00
00
00
00
00
00
ENDCHAR
STARTCHAR guilsinglleft
ENCODING 8249
SWIDTH 750 0
DWIDTH 6 0
BBX 6 8 0 -1
BITMAP
00
08
10
20
10
08
00
00
ENDCHAR
STARTCHAR guilsinglright
ENCODING 8250
SWIDTH 750 0
DWIDTH 6 0
BBX 6 8 0 -1
BITMAP
00
20
10
08
10
20
00
00
ENDCHAR
STARTCHAR exclamdbl
ENCODING 8252
SWIDTH 750 0
DWIDTH 6 0
BBX 6 8 0 -1
BITMAP
28
28
28
28
28
00
28
00
ENDCHAR
STARTCHAR uni203E
ENCODING 8254
SWIDTH 750 0
DWIDTH 6 0
BBX 6 8 0 -1
BITMAP
7C
00
00
00
00
00
00
00
ENDCHAR
STARTCHAR uni203F
ENCODING 8255
SWIDTH 750 0
DWIDTH 6 0
BBX 6 8 0 -1
BITMAP
00
00
00
00
00
44
38
00
ENDCHAR
STARTCHAR uni2040
ENCODING 8256
SWIDTH 750 0
DWIDTH 6 0
BBX 6 8 0 -1
BITMAP
38
44
00
00
00
00
00
00
ENDCHAR
STARTCHAR fraction
ENCODING 8260
SWIDTH 750 0
DWIDTH 6 0
BBX 6 8 0 -1
BITMAP
00
04
0C
18
30
60
40
00
ENDCHAR
STARTCHAR uni2054
ENCODING 8276
SWIDTH 750 0
DWIDTH 6 0
BBX 6 8 0 -1
BITMAP
00
00
00
00
00
38
44
00
ENDCHAR
STARTCHAR uni2074
ENCODING 8308
SWIDTH 750 0
DWIDTH 6 0
BBX 6 8 0 -1
BITMAP
30
50
78
10
00
00
00
00
ENDCHAR
STARTCHAR uni2075
ENCODING 8309
SWIDTH 750 0
DWIDTH 6 0
BBX 6 8 0 -1
BITMAP
38
30
08
30
00
00
00
00
ENDCHAR
STARTCHAR uni2076
ENCODING 8310
SWIDTH 750 0
DWIDTH 6 0
BBX 6 8 0 -1
BITMAP
18
30
28
18
00
00
00
00
ENDCHAR
STARTCHAR uni2077
ENCODING 8311
SWIDTH 750 0
DWIDTH 6 0
BBX 6 8 0 -1
BITMAP
38
08
10
10
00
00
00
00
ENDCHAR
STARTCHAR uni2078
ENCODING 8312
SWIDTH 750 0
DWIDTH 6 0
BBX 6 8 0 -1
BITMAP
38
10
28
38
00
00
00
00
ENDCHAR
STARTCHAR uni2079
ENCODING 8313
SWIDTH 750 0
DWIDTH 6 0
BBX 6 8 0 -1
BITMAP
30
28
18
30
00
00
00
00
ENDCHAR
STARTCHAR uni207A
ENCODING 8314
SWIDTH 750 0
DWIDTH 6 0
BBX 6 8 0 -1
BITMAP
10
38
10
00
00
00
00
00
ENDCHAR
STARTCHAR uni207B
ENCODING 8315
SWIDTH 750 0
DWIDTH 6 0
BBX 6 8 0 -1
BITMAP
00
38
00
00
00
00
00
00
ENDCHAR
STARTCHAR uni207F
ENCODING 8319
SWIDTH 750 0
DWIDTH 6 0
BBX 6 8 0 -1
BITMAP
28
34
24
24
00
00
00
00
ENDCHAR
STARTCHAR uni2081
ENCODING 8321
SWIDTH 750 0
DWIDTH 6 0
BBX 6 8 0 -1
BITMAP
00
00
00
10
30
10
38
00
ENDCHAR
STARTCHAR uni2082
ENCODING 8322
SWIDTH 750 0
DWIDTH 6 0
BBX 6 8 0 -1
BITMAP
00
00
00
30
08
10
38
00
ENDCHAR
STARTCHAR uni2083
ENCODING 8323
SWIDTH 750 0
DWIDTH 6 0
BBX 6 8 0 -1
BITMAP
00
00
00
38
18
08
38
00
ENDCHAR
STARTCHAR uni2084
ENCODING 8324
SWIDTH 750 0
DWIDTH 6 0
BBX 6 8 0 -1
BITMAP
00
00
00
30
50
78
10
00
ENDCHAR
STARTCHAR uni2085
ENCODING 8325
SWIDTH 750 0
DWIDTH 6 0
BBX 6 8 0 -1
BITMAP
00
00
00
38
30
08
30
00
ENDCHAR
STARTCHAR uni2086
ENCODING 8326
SWIDTH 750 0
DWIDTH 6 0
BBX 6 8 0 -1
BITMAP
00
00
00
18
30
28
18
00
ENDCHAR
STARTCHAR uni2087
ENCODING 8327
SWIDTH 750 0
DWIDTH 6 0
BBX 6 8 0 -1
BITMAP
00
00
00
38
08
10
10
00
ENDCHAR
STARTCHAR uni2088
ENCODING 8328
SWIDTH 750 0
DWIDTH 6 0
BBX 6 8 0 -1
BITMAP
00
00
00
38
10
28
38
00
ENDCHAR
STARTCHAR uni2089
ENCODING 8329
SWIDTH 750 0
DWIDTH 6 0
BBX 6 8 0 -1
BITMAP
00
00
00
30
28
18
30
00
ENDCHAR
STARTCHAR uni208A
ENCODING 8330
SWIDTH 750 0
DWIDTH 6 0
BBX 6 8 0 -1
BITMAP
00
00
00
10
38
10
00
00
ENDCHAR
STARTCHAR uni208B
ENCODING 8331
SWIDTH 750 0
DWIDTH 6 0
BBX 6 8 0 -1
BITMAP
00
00
00
00
38
00
00
00
ENDCHAR
STARTCHAR franc
ENCODING 8355
SWIDTH 750 0
DWIDTH 6 0
BBX 6 8 0 -1
BITMAP
7C
40
40
78
40
E0
40
00
ENDCHAR
STARTCHAR lira
ENCODING 8356
SWIDTH 750 0
DWIDTH 6 0
BBX 6 8 0 -1
BITMAP
18
24
70
20
70
20
7C
00
ENDCHAR
STARTCHAR peseta
ENCODING 8359
SWIDTH 750 0
DWIDTH 6 0
BBX 6 8 0 -1
BITMAP
70
48
48
70
48
5C
48
0C
ENDCHAR
STARTCHAR uni20AA
ENCODING 8362
SWIDTH 750 0
DWIDTH 6 0
BBX 6 8 0 -1
BITMAP
74
54
54
44
54
54
5C
00
ENDCHAR
STARTCHAR Euro
ENCODING 8364
SWIDTH 750 0
DWIDTH 6 0
BBX 6 8 0 -1
BITMAP
18
24
70
20
70
24
18
00
ENDCHAR
STARTCHAR uni2105
ENCODING 8453
SWIDTH 750 0
DWIDTH 6 0
BBX 6 8 0 -1
BITMAP
60
44
68
10
2C
54
18
00
ENDCHAR
STARTCHAR uni2113
ENCODING 8467
SWIDTH 750 0
DWIDTH 6 0
BBX 6 8 0 -1
BITMAP
08
14
14
14
18
30
4C
00
ENDCHAR
STARTCHAR uni2116
ENCODING 8470
SWIDTH 750 0
DWIDTH 6 0
BBX 6 8 0 -1
BITMAP
48
6C
6C
58
5C
58
48
00
ENDCHAR
STARTCHAR trademark
ENCODING 8482
SWIDTH 750 0
DWIDTH 6 0
BBX 6 8 0 -1
BITMAP
FC
5C
54
00
00
00
00
00
ENDCHAR
STARTCHAR Omega
ENCODING 8486
SWIDTH 750 0
DWIDTH 6 0
BBX 6 8 0 -1
BITMAP
38
44
44
44
44
28
6C
00
ENDCHAR
STARTCHAR estimated
ENCODING 8494
SWIDTH 750 0
DWIDTH 6 0
BBX 6 8 0 -1
BITMAP
00
00
38
44
7C
40
38
00
ENDCHAR
STARTCHAR uni2150
ENCODING 8528
SWIDTH 750 0
DWIDTH 6 0
BBX 6 8 0 -1
BITMAP
40
48
50
20
5C
04
08
00
ENDCHAR
STARTCHAR uni2151
ENCODING 8529
SWIDTH 750 0
DWIDTH 6 0
BBX 6 8 0 -1
BITMAP
40
48
50
28
54
0C
18
00
ENDCHAR
STARTCHAR onethird
ENCODING 8531
SWIDTH 750 0
DWIDTH 6 0
BBX 6 8 0 -1
BITMAP
40
48
50
38
4C
04
18
00
ENDCHAR
STARTCHAR twothirds
ENCODING 8532
SWIDTH 750 0
DWIDTH 6 0
BBX 6 8 0 -1
BITMAP
C0
48
90
F8
4C
04
18
00
ENDCHAR
STARTCHAR uni2155
ENCODING 8533
SWIDTH 750 0
DWIDTH 6 0
BBX 6 8 0 -1
BITMAP
40
48
50
2C
48
04
0C
00
ENDCHAR
STARTCHAR uni2156
ENCODING 8534
SWIDTH 750 0
DWIDTH 6 0
BBX 6 8 0 -1
BITMAP
C0
48
90
EC
48
04
0C
00
ENDCHAR
STARTCHAR uni2157
ENCODING 8535
SWIDTH 750 0
DWIDTH 6 0
BBX 6 8 0 -1
BITMAP
C0
68
D0
2C
48
04
0C
00
ENDCHAR
STARTCHAR uni2158
ENCODING 8536
SWIDTH 750 0
DWIDTH 6 0
BBX 6 8 0 -1
BITMAP
A0
E8
30
2C
48
04
0C
00
ENDCHAR
STARTCHAR uni2159
ENCODING 8537
SWIDTH 750 0
DWIDTH 6 0
BBX 6 8 0 -1
BITMAP
40
48
50
2C
58
14
0C
00
ENDCHAR
STARTCHAR uni215A
ENCODING 8538
SWIDTH 750 0
DWIDTH 6 0
BBX 6 8 0 -1
BITMAP
C0
88
50
AC
58
14
0C
00
ENDCHAR
STARTCHAR oneeighth
ENCODING 8539
SWIDTH 750 0
DWIDTH 6 0
BBX 6 8 0 -1
BITMAP
40
48
50
3C
48
14
1C
00
ENDCHAR
STARTCHAR threeeighths
ENCODING 8540
SWIDTH 750 0
DWIDTH 6 0
BBX 6 8 0 -1
BITMAP
C0
68
D0
3C
48
14
1C
00
ENDCHAR
STARTCHAR fiveeighths
ENCODING 8541
SWIDTH 750 0
DWIDTH 6 0
BBX 6 8 0 -1
BITMAP
C0
88
50
BC
48
14
1C
00
ENDCHAR
STARTCHAR seveneighths
ENCODING 8542
SWIDTH 750 0
DWIDTH 6 0
BBX 6 8 0 -1
BITMAP
E0
28
50
3C
48
14
1C
00
ENDCHAR
STARTCHAR arrowleft
ENCODING 8592
SWIDTH 750 0
DWIDTH 6 0
BBX 6 8 0 -1
BITMAP
00
20
60
FC
60
20
00
00
ENDCHAR
STARTCHAR arrowup
ENCODING 8593
SWIDTH 750 0
DWIDTH 6 0
BBX 6 8 0 -1
BITMAP
00
10
38
7C
10
10
10
10
ENDCHAR
STARTCHAR arrowright
ENCODING 8594
SWIDTH 750 0
DWIDTH 6 0
BBX 6 8 0 -1
BITMAP
00
10
18
FC
18
10
00
00
ENDCHAR
STARTCHAR arrowdown
ENCODING 8595
SWIDTH 750 0
DWIDTH 6 0
BBX 6 8 0 -1
BITMAP
10
10
10
10
7C
38
10
00
ENDCHAR
STARTCHAR arrowboth
ENCODING 8596
SWIDTH 750 0
DWIDTH 6 0
BBX 6 8 0 -1
BITMAP
00
00
48
FC
48
00
00
00
ENDCHAR
STARTCHAR arrowupdn
ENCODING 8597
SWIDTH 750 0
DWIDTH 6 0
BBX 6 8 0 -1
BITMAP
10
38
7C
10
7C
38
10
00
ENDCHAR
STARTCHAR arrowupdnbse
ENCODING 8616
SWIDTH 750 0
DWIDTH 6 0
BBX 6 8 0 -1
BITMAP
10
38
7C
10
7C
38
10
7C
ENDCHAR
STARTCHAR partialdiff
ENCODING 8706
SWIDTH 750 0
DWIDTH 6 0
BBX 6 8 0 -1
BITMAP
18
04
1C
24
44
48
30
00
ENDCHAR
STARTCHAR emptyset
ENCODING 8709
SWIDTH 750 0
DWIDTH 6 0
BBX 6 8 0 -1
BITMAP
00
08
38
54
54
54
38
20
ENDCHAR
STARTCHAR Delta
ENCODING 8710
SWIDTH 750 0
DWIDTH 6 0
BBX 6 8 0 -1
BITMAP
00
10
28
44
44
44
7C
00
ENDCHAR
STARTCHAR element
ENCODING 8712
SWIDTH 750 0
DWIDTH 6 0
BBX 6 8 0 -1
BITMAP
18
20
40
78
40
20
18
00
ENDCHAR
STARTCHAR product
ENCODING 8719
SWIDTH 750 0
DWIDTH 6 0
BBX 6 8 0 -1
BITMAP
FC
48
48
48
48
48
48
00
ENDCHAR
STARTCHAR summation
ENCODING 8721
SWIDTH 750 0
DWIDTH 6 0
BBX 6 8 0 -1
BITMAP
7C
40
20
10
20
40
7C
00
ENDCHAR
STARTCHAR minus
ENCODING 8722
SWIDTH 750 0
DWIDTH 6 0
BBX 6 8 0 -1
BITMAP
00
00
00
7C
00
00
00
00
ENDCHAR
STARTCHAR uni2215
ENCODING 8725
SWIDTH 750 0
DWIDTH 6 0
BBX 6 8 0 -1
BITMAP
00
04
0C
18
30
60
40
00
ENDCHAR
STARTCHAR uni2219
ENCODING 8729
SWIDTH 750 0
DWIDTH 6 0
BBX 6 8 0 -1
BITMAP
00
00
00
20
00
00
00
00
ENDCHAR
STARTCHAR radical
ENCODING 8730
SWIDTH 750 0
DWIDTH 6 0
BBX 6 8 0 -1
BITMAP
1C
10
10
10
90
50
30
10
ENDCHAR
STARTCHAR infinity
ENCODING 8734
SWIDTH 750 0
DWIDTH 6 0
BBX 6 8 0 -1
BITMAP
00
00
68
94
94
94
68
00
ENDCHAR
STARTCHAR orthogonal
ENCODING 8735
SWIDTH 750 0
DWIDTH 6 0
BBX 6 8 0 -1
BITMAP
40
40
40
7C
00
00
00
00
ENDCHAR
STARTCHAR intersection
ENCODING 8745
SWIDTH 750 0
DWIDTH 6 0
BBX 6 8 0 -1
BITMAP
38
44
44
44
44
44
44
00
ENDCHAR
STARTCHAR integral
ENCODING 8747
SWIDTH 750 0
DWIDTH 6 0
BBX 6 8 0 -1
BITMAP
08
14
14
10
10
50
50
20
ENDCHAR
STARTCHAR approxequal
ENCODING 8776
SWIDTH 750 0
DWIDTH 6 0
BBX 6 8 0 -1
BITMAP
00
20
54
08
20
54
08
00
ENDCHAR
STARTCHAR notequal
ENCODING 8800
SWIDTH 750 0
DWIDTH 6 0
BBX 6 8 0 -1
BITMAP
04
08
7C
10
7C
20
40
00
ENDCHAR
STARTCHAR equivalence
ENCODING 8801
SWIDTH 750 0
DWIDTH 6 0
BBX 6 8 0 -1
BITMAP
00
7C
00
7C
00
7C
00
00
ENDCHAR
STARTCHAR lessequal
ENCODING 8804
SWIDTH 750 0
DWIDTH 6 0
BBX 6 8 0 -1
BITMAP
08
10
20
40
20
10
08
78
ENDCHAR
STARTCHAR greaterequal
ENCODING 8805
SWIDTH 750 0
DWIDTH 6 0
BBX 6 8 0 -1
BITMAP
20
10
08
04
08
10
20
3C
ENDCHAR
STARTCHAR uni2299
ENCODING 8857
SWIDTH 750 0
DWIDTH 6 0
BBX 6 8 0 -1
BITMAP
38
44
44
54
44
44
38
00
ENDCHAR
STARTCHAR uni2300
ENCODING 8960
SWIDTH 750 0
DWIDTH 6 0
BBX 6 8 0 -1
BITMAP
38
44
4C
54
64
44
38
00
ENDCHAR
STARTCHAR house
ENCODING 8962
SWIDTH 750 0
DWIDTH 6 0
BBX 6 8 0 -1
BITMAP
00
10
28
44
44
44
7C
00
ENDCHAR
STARTCHAR revlogicalnot
ENCODING 8976
SWIDTH 750 0
DWIDTH 6 0
BBX 6 8 0 -1
BITMAP
00
00
00
7C
40
40
40
00
ENDCHAR
STARTCHAR integraltp
ENCODING 8992
SWIDTH 750 0
DWIDTH 6 0
BBX 6 8 0 -1
BITMAP
00
08
14
14
10
10
10
10
ENDCHAR
STARTCHAR integralbt
ENCODING 8993
SWIDTH 750 0
DWIDTH 6 0
BBX 6 8 0 -1
BITMAP
10
10
10
10
50
50
20
00
ENDCHAR
STARTCHAR SF100000
ENCODING 9472
SWIDTH 750 0
DWIDTH 6 0
BBX 6 8 0 -1
BITMAP
00
00
00
FC
00
00
00
00
ENDCHAR
STARTCHAR SF110000
ENCODING 9474
SWIDTH 750 0
DWIDTH 6 0
BBX 6 8 0 -1
BITMAP
10
10
10
10
10
10
10
10
ENDCHAR
STARTCHAR SF010000
ENCODING 9484
SWIDTH 750 0
DWIDTH 6 0
BBX 6 8 0 -1
BITMAP
00
00
00
1C
10
10
10
10
ENDCHAR
STARTCHAR SF030000
ENCODING 9488
SWIDTH 750 0
DWIDTH 6 0
BBX 6 8 0 -1
BITMAP
00
00
00
F0
10
10
10
10
ENDCHAR
STARTCHAR SF020000
ENCODING 9492
SWIDTH 750 0
DWIDTH 6 0
BBX 6 8 0 -1
BITMAP
10
10
10
1C
00
00
00
00
ENDCHAR
STARTCHAR SF040000
ENCODING 9496
SWIDTH 750 0
DWIDTH 6 0
BBX 6 8 0 -1
BITMAP
10
10
10
F0
00
00
00
00
ENDCHAR
STARTCHAR SF080000
ENCODING 9500
SWIDTH 750 0
DWIDTH 6 0
BBX 6 8 0 -1
BITMAP
10
10
10
1C
10
10
10
10
ENDCHAR
STARTCHAR SF090000
ENCODING 9508
SWIDTH 750 0
DWIDTH 6 0
BBX 6 8 0 -1
BITMAP
10
10
10
F0
10
10
10
10
ENDCHAR
STARTCHAR SF060000
ENCODING 9516
SWIDTH 750 0
DWIDTH 6 0
BBX 6 8 0 -1
BITMAP
00
00
00
FC
10
10
10
10
ENDCHAR
STARTCHAR SF070000
ENCODING 9524
SWIDTH 750 0
DWIDTH 6 0
BBX 6 8 0 -1
BITMAP
10
10
10
FC
00
00
00
00
ENDCHAR
STARTCHAR SF050000
ENCODING 9532
SWIDTH 750 0
DWIDTH 6 0
BBX 6 8 0 -1
BITMAP
10
10
10
FC
10
10
10
10
ENDCHAR
STARTCHAR SF430000
ENCODING 9552
SWIDTH 750 0
DWIDTH 6 0
BBX 6 8 0 -1
BITMAP
00
00
FC
00
FC
00
00
00
ENDCHAR
STARTCHAR SF240000
ENCODING 9553
SWIDTH 750 0
DWIDTH 6 0
BBX 6 8 0 -1
BITMAP
28
28
28
28
28
28
28
28
ENDCHAR
STARTCHAR SF510000
ENCODING 9554
SWIDTH 750 0
DWIDTH 6 0
BBX 6 8 0 -1
BITMAP
00
00
1C
10
1C
10
10
10
ENDCHAR
STARTCHAR SF520000
ENCODING 9555
SWIDTH 750 0
DWIDTH 6 0
BBX 6 8 0 -1
BITMAP
00
00
00
3C
28
28
28
28
ENDCHAR
STARTCHAR SF390000
ENCODING 9556
SWIDTH 750 0
DWIDTH 6 0
BBX 6 8 0 -1
BITMAP
00
00
3C
20
2C
28
28
28
ENDCHAR
STARTCHAR SF220000
ENCODING 9557
SWIDTH 750 0
DWIDTH 6 0
BBX 6 8 0 -1
BITMAP
00
00
F0
10
F0
10
10
10
ENDCHAR
STARTCHAR SF210000
ENCODING 9558
SWIDTH 750 0
DWIDTH 6 0
BBX 6 8 0 -1
BITMAP
00
00
00
F8
28
28
28
28
ENDCHAR
STARTCHAR SF250000
ENCODING 9559
SWIDTH 750 0
DWIDTH 6 0
BBX 6 8 0 -1
BITMAP
00
00
F8
08
E8
28
28
28
ENDCHAR
STARTCHAR SF500000
ENCODING 9560
SWIDTH 750 0
DWIDTH 6 0
BBX 6 8 0 -1
BITMAP
10
10
1C
10
1C
00
00
00
ENDCHAR
STARTCHAR SF490000
ENCODING 9561
SWIDTH 750 0
DWIDTH 6 0
BBX 6 8 0 -1
BITMAP
14
14
14
1C
00
00
00
00
ENDCHAR
STARTCHAR SF380000
ENCODING 9562
SWIDTH 750 0
DWIDTH 6 0
BBX 6 8 0 -1
BITMAP
28
28
2C
20
3C
00
00
00
ENDCHAR
STARTCHAR SF280000
ENCODING 9563
SWIDTH 750 0
DWIDTH 6 0
BBX 6 8 0 -1
BITMAP
10
10
F0
10
F0
00
00
00
ENDCHAR
STARTCHAR SF270000
ENCODING 9564
SWIDTH 750 0
DWIDTH 6 0
BBX 6 8 0 -1
BITMAP
28
28
28
F8
00
00
00
00
ENDCHAR
STARTCHAR SF260000
ENCODING 9565
SWIDTH 750 0
DWIDTH 6 0
BBX 6 8 0 -1
BITMAP
28
28
E8
08
F8
00
00
00
ENDCHAR
STARTCHAR SF360000
ENCODING 9566
SWIDTH 750 0
DWIDTH 6 0
BBX 6 8 0 -1
BITMAP
10
10
1C
10
1C
10
10
10
ENDCHAR
STARTCHAR SF370000
ENCODING 9567
SWIDTH 750 0
DWIDTH 6 0
BBX 6 8 0 -1
BITMAP
28
28
28
2C
28
28
28
28
ENDCHAR
STARTCHAR SF420000
ENCODING 9568
SWIDTH 750 0
DWIDTH 6 0
BBX 6 8 0 -1
BITMAP
28
28
2C
20
2C
28
28
28
ENDCHAR
STARTCHAR SF190000
ENCODING 9569
SWIDTH 750 0
DWIDTH 6 0
BBX 6 8 0 -1
BITMAP
10
10
F0
10
F0
10
10
10
ENDCHAR
STARTCHAR SF200000
ENCODING 9570
SWIDTH 750 0
DWIDTH 6 0
BBX 6 8 0 -1
BITMAP
28
28
28
E8
28
28
28
28
ENDCHAR
STARTCHAR SF230000
ENCODING 9571
SWIDTH 750 0
DWIDTH 6 0
BBX 6 8 0 -1
BITMAP
28
28
E8
08
E8
28
28
28
ENDCHAR
STARTCHAR SF470000
ENCODING 9572
SWIDTH 750 0
DWIDTH 6 0
BBX 6 8 0 -1
BITMAP
00
00
FC
00
FC
10
10
10
ENDCHAR
STARTCHAR SF480000
ENCODING 9573
SWIDTH 750 0
DWIDTH 6 0
BBX 6 8 0 -1
BITMAP
00
00
00
FC
28
28
28
28
ENDCHAR
STARTCHAR SF410000
ENCODING 9574
SWIDTH 750 0
DWIDTH 6 0
BBX 6 8 0 -1
BITMAP
00
00
FC
00
EC
28
28
28
ENDCHAR
STARTCHAR SF450000
ENCODING 9575
SWIDTH 750 0
DWIDTH 6 0
BBX 6 8 0 -1
BITMAP
10
10
FC
00
FC
00
00
00
ENDCHAR
STARTCHAR SF460000
ENCODING 9576
SWIDTH 750 0
DWIDTH 6 0
BBX 6 8 0 -1
BITMAP
28
28
28
FC
00
00
00
00
ENDCHAR
STARTCHAR SF400000
ENCODING 9577
SWIDTH 750 0
DWIDTH 6 0
BBX 6 8 0 -1
BITMAP
28
28
EC
00
FC
00
00
00
ENDCHAR
STARTCHAR SF540000
ENCODING 9578
SWIDTH 750 0
DWIDTH 6 0
BBX 6 8 0 -1
BITMAP
10
10
FC
10
FC
10
10
10
ENDCHAR
STARTCHAR SF530000
ENCODING 9579
SWIDTH 750 0
DWIDTH 6 0
BBX 6 8 0 -1
BITMAP
28
28
28
FC
28
28
28
28
ENDCHAR
STARTCHAR SF440000
ENCODING 9580
SWIDTH 750 0
DWIDTH 6 0
BBX 6 8 0 -1
BITMAP
28
28
EC
00
EC
28
28
28
ENDCHAR
STARTCHAR upblock
ENCODING 9600
SWIDTH 750 0
DWIDTH 6 0
BBX 6 8 0 -1
BITMAP
FC
FC
FC
FC
00
00
00
00
ENDCHAR
STARTCHAR uni2581
ENCODING 9601
SWIDTH 750 0
DWIDTH 6 0
BBX 6 8 0 -1
BITMAP
00
00
00
00
00
00
FC
FC
ENDCHAR
STARTCHAR dnblock
ENCODING 9604
SWIDTH 750 0
DWIDTH 6 0
BBX 6 8 0 -1
BITMAP
00
00
00
00
FC
FC
FC
FC
ENDCHAR
STARTCHAR block
ENCODING 9608
SWIDTH 750 0
DWIDTH 6 0
BBX 6 8 0 -1
BITMAP
FC
FC
FC
FC
FC
FC
FC
FC
ENDCHAR
STARTCHAR lfblock
ENCODING 9612
SWIDTH 750 0
DWIDTH 6 0
BBX 6 8 0 -1
BITMAP
E0
E0
E0
E0
E0
E0
E0
E0
ENDCHAR
STARTCHAR rtblock
ENCODING 9616
SWIDTH 750 0
DWIDTH 6 0
BBX 6 8 0 -1
BITMAP
1C
1C
1C
1C
1C
1C
1C
1C
ENDCHAR
STARTCHAR ltshade
ENCODING 9617
SWIDTH 750 0
DWIDTH 6 0
BBX 6 8 0 -1
BITMAP
A8
00
54
00
A8
00
54
00
ENDCHAR
STARTCHAR shade
ENCODING 9618
SWIDTH 750 0
DWIDTH 6 0
BBX 6 8 0 -1
BITMAP
A8
54
A8
54
A8
54
A8
54
ENDCHAR
STARTCHAR dkshade
ENCODING 9619
SWIDTH 750 0
DWIDTH 6 0
BBX 6 8 0 -1
BITMAP
54
FC
A8
FC
54
FC
A8
FC
ENDCHAR
STARTCHAR filledbox
ENCODING 9632
SWIDTH 750 0
DWIDTH 6 0
BBX 6 8 0 -1
BITMAP
00
00
78
78
78
78
00
00
ENDCHAR
STARTCHAR H22073
ENCODING 9633
SWIDTH 750 0
DWIDTH 6 0
BBX 6 8 0 -1
BITMAP
00
00
78
48
48
78
00
00
ENDCHAR
STARTCHAR H18543
ENCODING 9642
SWIDTH 750 0
DWIDTH 6 0
BBX 6 8 0 -1
BITMAP
00
00
38
38
38
00
00
00
ENDCHAR
STARTCHAR H18551
ENCODING 9643
SWIDTH 750 0
DWIDTH 6 0
BBX 6 8 0 -1
BITMAP
00
00
38
28
38
00
00
00
ENDCHAR
STARTCHAR filledrect
ENCODING 9644
SWIDTH 750 0
DWIDTH 6 0
BBX 6 8 0 -1
BITMAP
00
00
00
00
00
7C
7C
7C
ENDCHAR
STARTCHAR triagup
ENCODING 9650
SWIDTH 750 0
DWIDTH 6 0
BBX 6 8 0 -1
BITMAP
00
10
10
38
38
7C
7C
00
ENDCHAR
STARTCHAR triagrt
ENCODING 9658
SWIDTH 750 0
DWIDTH 6 0
BBX 6 8 0 -1
BITMAP
00
60
78
7C
78
60
00
00
ENDCHAR
STARTCHAR triagdn
ENCODING 9660
SWIDTH 750 0
DWIDTH 6 0
BBX 6 8 0 -1
BITMAP
00
7C
7C
38
38
10
10
00
ENDCHAR
STARTCHAR triaglf
ENCODING 9668
SWIDTH 750 0
DWIDTH 6 0
BBX 6 8 0 -1
BITMAP
00
0C
3C
7C
3C
0C
00
00
ENDCHAR
STARTCHAR lozenge
ENCODING 9674
SWIDTH 750 0
DWIDTH 6 0
BBX 6 8 0 -1
BITMAP
00
10
28
44
44
28
10
00
ENDCHAR
STARTCHAR circle
ENCODING 9675
SWIDTH 750 0
DWIDTH 6 0
BBX 6 8 0 -1
BITMAP
00
00
30
48
48
30
00
00
ENDCHAR
STARTCHAR H18533
ENCODING 9679
SWIDTH 750 0
DWIDTH 6 0
BBX 6 8 0 -1
BITMAP
00
00
30
78
78
30
00
00
ENDCHAR
STARTCHAR invbullet
ENCODING 9688
SWIDTH 750 0
DWIDTH 6 0
BBX 6 8 0 -1
BITMAP
FC
FC
FC
CC
CC
FC
FC
FC
ENDCHAR
STARTCHAR invcircle
ENCODING 9689
SWIDTH 750 0
DWIDTH 6 0
BBX 6 8 0 -1
BITMAP
FC
FC
CC
B4
B4
CC
FC
FC
ENDCHAR
STARTCHAR openbullet
ENCODING 9702
SWIDTH 750 0
DWIDTH 6 0
BBX 6 8 0 -1
BITMAP
00
00
10
28
10
00
00
00
ENDCHAR
STARTCHAR smileface
ENCODING 9786
SWIDTH 750 0
DWIDTH 6 0
BBX 6 8 0 -1
BITMAP
38
44
6C
44
54
44
38
00
ENDCHAR
STARTCHAR invsmileface
ENCODING 9787
SWIDTH 750 0
DWIDTH 6 0
BBX 6 8 0 -1
BITMAP
38
7C
54
7C
6C
7C
38
00
ENDCHAR
STARTCHAR sun
ENCODING 9788
SWIDTH 750 0
DWIDTH 6 0
BBX 6 8 0 -1
BITMAP
00
54
38
6C
38
54
00
00
ENDCHAR
STARTCHAR female
ENCODING 9792
SWIDTH 750 0
DWIDTH 6 0
BBX 6 8 0 -1
BITMAP
38
44
44
44
38
10
38
10
ENDCHAR
STARTCHAR male
ENCODING 9794
SWIDTH 750 0
DWIDTH 6 0
BBX 6 8 0 -1
BITMAP
1C
0C
14
70
88
88
88
70
ENDCHAR
STARTCHAR spade
ENCODING 9824
SWIDTH 750 0
DWIDTH 6 0
BBX 6 8 0 -1
BITMAP
00
10
38
7C
6C
10
38
00
ENDCHAR
STARTCHAR club
ENCODING 9827
SWIDTH 750 0
DWIDTH 6 0
BBX 6 8 0 -1
BITMAP
00
38
38
7C
6C
10
38
00
ENDCHAR
STARTCHAR heart
ENCODING 9829
SWIDTH 750 0
DWIDTH 6 0
BBX 6 8 0 -1
BITMAP
00
28
7C
7C
7C
38
10
00
ENDCHAR
STARTCHAR diamond
ENCODING 9830
SWIDTH 750 0
DWIDTH 6 0
BBX 6 8 0 -1
BITMAP
00
10
38
7C
7C
38
10
00
ENDCHAR
STARTCHAR musicalnote
ENCODING 9834
SWIDTH 750 0
DWIDTH 6 0
BBX 6 8 0 -1
BITMAP
10
18
14
10
10
70
60
00
ENDCHAR
STARTCHAR musicalnotedbl
ENCODING 9835
SWIDTH 750 0
DWIDTH 6 0
BBX 6 8 0 -1
BITMAP
30
28
34
2C
24
E4
DC
18
ENDCHAR
STARTCHAR uni2713
ENCODING 10003
SWIDTH 750 0
DWIDTH 6 0
BBX 6 8 0 -1
BITMAP
04
04
08
08
50
50
60
00
ENDCHAR
STARTCHAR uni3044
ENCODING 12356
SWIDTH 750 0
DWIDTH 6 0
BBX 6 8 0 -1
BITMAP
00
00
00
00
00
00
00
00
ENDCHAR
STARTCHAR uni3046
ENCODING 12358
SWIDTH 750 0
DWIDTH 6 0
BBX 6 8 0 -1
BITMAP
00
00
00
00
00
00
00
00
ENDCHAR
STARTCHAR uni304B
ENCODING 12363
SWIDTH 750 0
DWIDTH 6 0
BBX 6 8 0 -1
BITMAP
00
00
00
00
00
00
00
00
ENDCHAR
STARTCHAR uni3057
ENCODING 12375
SWIDTH 750 0
DWIDTH 6 0
BBX 6 8 0 -1
BITMAP
00
00
00
00
00
00
00
00
ENDCHAR
STARTCHAR uni306E
ENCODING 12398
SWIDTH 750 0
DWIDTH 6 0
BBX 6 8 0 -1
BITMAP
00
00
00
00
00
00
00
00
ENDCHAR
STARTCHAR uni3093
ENCODING 12435
SWIDTH 750 0
DWIDTH 6 0
BBX 6 8 0 -1
BITMAP
00
00
00
00
00
00
00
00
ENDCHAR
STARTCHAR uniFB01
ENCODING 64257
SWIDTH 750 0
DWIDTH 6 0
BBX 6 8 0 -1
BITMAP
18
24
20
74
24
24
24
00
ENDCHAR
STARTCHAR uniFB02
ENCODING 64258
SWIDTH 750 0
DWIDTH 6 0
BBX 6 8 0 -1
BITMAP
1C
24
24
74
24
24
24
00
ENDCHAR
STARTCHAR uniFFFD
ENCODING 65533
SWIDTH 750 0
DWIDTH 6 0
BBX 6 8 0 -1
BITMAP
C4
B8
B8
F4
EC
FC
EC
FC
ENDCHAR
STARTCHAR .notdef
ENCODING -1
SWIDTH 750 0
DWIDTH 6 0
BBX 6 8 0 -1
BITMAP
C4
B8
B8
F4
EC
FC
EC
FC
ENDCHAR
ENDFONT
