STARTFONT 2.1
FONT Bm437_DOS-V_re_JPN12-12px
SIZE 12 75 75
FONTBOUNDINGBOX 6 12 0 -1
STARTPROPERTIES 3
PIXEL_SIZE 12
FONT_ASCENT 11
FONT_DESCENT 1
ENDPROPERTIES
CHARS 295
STARTCHAR uni0000
ENCODING 0
SWIDTH 500 0
DWIDTH 6 0
BBX 6 12 0 -1
BITMAP
00
00
00
00
00
00
00
00
00
00
00
00
ENDCHAR
STARTCHAR uni0001
ENCODING 1
SWIDTH 500 0
DWIDTH 6 0
BBX 6 12 0 -1
BITMAP
00
38
44
44
6C
44
44
7C
54
44
38
00
ENDCHAR
STARTCHAR uni0002
ENCODING 2
SWIDTH 500 0
DWIDTH 6 0
BBX 6 12 0 -1
BITMAP
00
38
7C
7C
54
7C
7C
44
6C
7C
38
00
ENDCHAR
STARTCHAR uni0003
ENCODING 3
SWIDTH 500 0
DWIDTH 6 0
BBX 6 12 0 -1
BITMAP
00
00
28
7C
7C
7C
38
38
10
10
00
00
ENDCHAR
STARTCHAR uni0004
ENCODING 4
SWIDTH 500 0
DWIDTH 6 0
BBX 6 12 0 -1
BITMAP
00
10
10
38
38
7C
7C
38
38
10
10
00
ENDCHAR
STARTCHAR uni0005
ENCODING 5
SWIDTH 500 0
DWIDTH 6 0
BBX 6 12 0 -1
BITMAP
00
00
10
38
38
10
7C
7C
54
10
38
00
ENDCHAR
STARTCHAR uni0006
ENCODING 6
SWIDTH 500 0
DWIDTH 6 0
BBX 6 12 0 -1
BITMAP
00
00
10
10
38
38
7C
7C
54
10
38
00
ENDCHAR
STARTCHAR uni0007
ENCODING 7
SWIDTH 500 0
DWIDTH 6 0
BBX 6 12 0 -1
BITMAP
00
00
00
00
30
78
78
30
00
00
00
00
ENDCHAR
STARTCHAR uni0008
ENCODING 8
SWIDTH 500 0
DWIDTH 6 0
BBX 6 12 0 -1
BITMAP
FC
FC
FC
FC
CC
84
84
CC
FC
FC
FC
FC
ENDCHAR
STARTCHAR uni0009
ENCODING 9
SWIDTH 500 0
DWIDTH 6 0
BBX 6 12 0 -1
BITMAP
00
00
00
00
30
48
48
30
00
00
00
00
ENDCHAR
STARTCHAR uni000A
ENCODING 10
SWIDTH 500 0
DWIDTH 6 0
BBX 6 12 0 -1
BITMAP
FC
FC
FC
FC
CC
B4
B4
CC
FC
FC
FC
FC
ENDCHAR
STARTCHAR uni000B
ENCODING 11
SWIDTH 500 0
DWIDTH 6 0
BBX 6 12 0 -1
BITMAP
00
1C
0C
14
10
38
44
44
44
44
38
00
ENDCHAR
STARTCHAR uni000C
ENCODING 12
SWIDTH 500 0
DWIDTH 6 0
BBX 6 12 0 -1
BITMAP
00
38
44
44
44
44
38
10
7C
10
10
00
ENDCHAR
STARTCHAR uni000D
ENCODING 13
SWIDTH 500 0
DWIDTH 6 0
BBX 6 12 0 -1
BITMAP
00
10
18
18
14
14
10
10
30
70
60
00
ENDCHAR
STARTCHAR uni000E
ENCODING 14
SWIDTH 500 0
DWIDTH 6 0
BBX 6 12 0 -1
BITMAP
00
30
2C
34
2C
24
24
E4
C4
1C
18
00
ENDCHAR
STARTCHAR uni000F
ENCODING 15
SWIDTH 500 0
DWIDTH 6 0
BBX 6 12 0 -1
BITMAP
00
10
54
38
38
6C
38
38
54
10
00
00
ENDCHAR
STARTCHAR uni0010
ENCODING 16
SWIDTH 500 0
DWIDTH 6 0
BBX 6 12 0 -1
BITMAP
00
00
40
60
70
78
7C
78
70
60
40
00
ENDCHAR
STARTCHAR uni0011
ENCODING 17
SWIDTH 500 0
DWIDTH 6 0
BBX 6 12 0 -1
BITMAP
00
00
04
0C
1C
3C
7C
3C
1C
0C
04
00
ENDCHAR
STARTCHAR uni0012
ENCODING 18
SWIDTH 500 0
DWIDTH 6 0
BBX 6 12 0 -1
BITMAP
00
10
38
54
10
10
10
10
54
38
10
00
ENDCHAR
STARTCHAR uni0013
ENCODING 19
SWIDTH 500 0
DWIDTH 6 0
BBX 6 12 0 -1
BITMAP
00
48
48
48
48
48
48
48
00
48
48
00
ENDCHAR
STARTCHAR uni0014
ENCODING 20
SWIDTH 500 0
DWIDTH 6 0
BBX 6 12 0 -1
BITMAP
00
3C
74
74
74
34
14
14
14
14
14
00
ENDCHAR
STARTCHAR uni0015
ENCODING 21
SWIDTH 500 0
DWIDTH 6 0
BBX 6 12 0 -1
BITMAP
00
38
44
40
38
44
44
38
04
44
38
00
ENDCHAR
STARTCHAR uni0016
ENCODING 22
SWIDTH 500 0
DWIDTH 6 0
BBX 6 12 0 -1
BITMAP
00
00
00
00
00
00
00
00
00
7C
7C
7C
ENDCHAR
STARTCHAR uni0017
ENCODING 23
SWIDTH 500 0
DWIDTH 6 0
BBX 6 12 0 -1
BITMAP
00
10
38
54
10
10
10
10
54
38
10
7C
ENDCHAR
STARTCHAR uni0018
ENCODING 24
SWIDTH 500 0
DWIDTH 6 0
BBX 6 12 0 -1
BITMAP
00
10
38
54
10
10
10
10
10
10
10
00
ENDCHAR
STARTCHAR uni0019
ENCODING 25
SWIDTH 500 0
DWIDTH 6 0
BBX 6 12 0 -1
BITMAP
00
10
10
10
10
10
10
10
54
38
10
00
ENDCHAR
STARTCHAR uni001A
ENCODING 26
SWIDTH 500 0
DWIDTH 6 0
BBX 6 12 0 -1
BITMAP
00
00
00
00
10
08
FC
08
10
00
00
00
ENDCHAR
STARTCHAR uni001B
ENCODING 27
SWIDTH 500 0
DWIDTH 6 0
BBX 6 12 0 -1
BITMAP
00
00
00
00
20
40
FC
40
20
00
00
00
ENDCHAR
STARTCHAR uni001C
ENCODING 28
SWIDTH 500 0
DWIDTH 6 0
BBX 6 12 0 -1
BITMAP
00
00
00
00
40
40
40
40
7C
00
00
00
ENDCHAR
STARTCHAR uni001D
ENCODING 29
SWIDTH 500 0
DWIDTH 6 0
BBX 6 12 0 -1
BITMAP
00
00
00
00
48
84
FC
84
48
00
00
00
ENDCHAR
STARTCHAR uni001E
ENCODING 30
SWIDTH 500 0
DWIDTH 6 0
BBX 6 12 0 -1
BITMAP
00
00
00
10
10
38
38
7C
7C
00
00
00
ENDCHAR
STARTCHAR uni001F
ENCODING 31
SWIDTH 500 0
DWIDTH 6 0
BBX 6 12 0 -1
BITMAP
00
00
00
7C
7C
38
38
10
10
00
00
00
ENDCHAR
STARTCHAR space
ENCODING 32
SWIDTH 500 0
DWIDTH 6 0
BBX 6 12 0 -1
BITMAP
00
00
00
00
00
00
00
00
00
00
00
00
ENDCHAR
STARTCHAR exclam
ENCODING 33
SWIDTH 500 0
DWIDTH 6 0
BBX 6 12 0 -1
BITMAP
00
10
10
10
10
10
10
10
00
10
10
00
ENDCHAR
STARTCHAR quotedbl
ENCODING 34
SWIDTH 500 0
DWIDTH 6 0
BBX 6 12 0 -1
BITMAP
28
28
28
00
00
00
00
00
00
00
00
00
ENDCHAR
STARTCHAR numbersign
ENCODING 35
SWIDTH 500 0
DWIDTH 6 0
BBX 6 12 0 -1
BITMAP
00
08
28
2C
38
68
2C
38
68
28
20
00
ENDCHAR
STARTCHAR dollar
ENCODING 36
SWIDTH 500 0
DWIDTH 6 0
BBX 6 12 0 -1
BITMAP
10
10
38
54
50
30
18
14
54
38
10
10
ENDCHAR
STARTCHAR percent
ENCODING 37
SWIDTH 500 0
DWIDTH 6 0
BBX 6 12 0 -1
BITMAP
00
70
50
74
08
10
10
20
5C
14
1C
00
ENDCHAR
STARTCHAR ampersand
ENCODING 38
SWIDTH 500 0
DWIDTH 6 0
BBX 6 12 0 -1
BITMAP
00
30
48
48
30
30
54
48
48
4C
34
00
ENDCHAR
STARTCHAR quotesingle
ENCODING 39
SWIDTH 500 0
DWIDTH 6 0
BBX 6 12 0 -1
BITMAP
00
30
30
10
20
00
00
00
00
00
00
00
ENDCHAR
STARTCHAR parenleft
ENCODING 40
SWIDTH 500 0
DWIDTH 6 0
BBX 6 12 0 -1
BITMAP
00
10
20
20
40
40
40
40
20
20
10
00
ENDCHAR
STARTCHAR parenright
ENCODING 41
SWIDTH 500 0
DWIDTH 6 0
BBX 6 12 0 -1
BITMAP
00
20
10
10
08
08
08
08
10
10
20
00
ENDCHAR
STARTCHAR asterisk
ENCODING 42
SWIDTH 500 0
DWIDTH 6 0
BBX 6 12 0 -1
BITMAP
00
00
00
10
54
38
10
38
54
10
00
00
ENDCHAR
STARTCHAR plus
ENCODING 43
SWIDTH 500 0
DWIDTH 6 0
BBX 6 12 0 -1
BITMAP
00
00
00
10
10
7C
10
10
00
00
00
00
ENDCHAR
STARTCHAR comma
ENCODING 44
SWIDTH 500 0
DWIDTH 6 0
BBX 6 12 0 -1
BITMAP
00
00
00
00
00
00
00
00
30
30
10
20
ENDCHAR
STARTCHAR hyphen
ENCODING 45
SWIDTH 500 0
DWIDTH 6 0
BBX 6 12 0 -1
BITMAP
00
00
00
00
00
78
00
00
00
00
00
00
ENDCHAR
STARTCHAR period
ENCODING 46
SWIDTH 500 0
DWIDTH 6 0
BBX 6 12 0 -1
BITMAP
00
00
00
00
00
00
00
00
00
30
30
00
ENDCHAR
STARTCHAR slash
ENCODING 47
SWIDTH 500 0
DWIDTH 6 0
BBX 6 12 0 -1
BITMAP
00
04
04
08
08
10
10
20
20
40
40
00
ENDCHAR
STARTCHAR zero
ENCODING 48
SWIDTH 500 0
DWIDTH 6 0
BBX 6 12 0 -1
BITMAP
00
38
44
44
44
54
54
44
44
44
38
00
ENDCHAR
STARTCHAR one
ENCODING 49
SWIDTH 500 0
DWIDTH 6 0
BBX 6 12 0 -1
BITMAP
00
10
30
10
10
10
10
10
10
10
38
00
ENDCHAR
STARTCHAR two
ENCODING 50
SWIDTH 500 0
DWIDTH 6 0
BBX 6 12 0 -1
BITMAP
00
38
44
44
04
08
10
20
40
40
7C
00
ENDCHAR
STARTCHAR three
ENCODING 51
SWIDTH 500 0
DWIDTH 6 0
BBX 6 12 0 -1
BITMAP
00
38
44
04
04
38
04
04
04
44
38
00
ENDCHAR
STARTCHAR four
ENCODING 52
SWIDTH 500 0
DWIDTH 6 0
BBX 6 12 0 -1
BITMAP
00
18
18
28
28
28
48
48
7C
08
08
00
ENDCHAR
STARTCHAR five
ENCODING 53
SWIDTH 500 0
DWIDTH 6 0
BBX 6 12 0 -1
BITMAP
00
7C
40
40
40
78
04
04
04
44
38
00
ENDCHAR
STARTCHAR six
ENCODING 54
SWIDTH 500 0
DWIDTH 6 0
BBX 6 12 0 -1
BITMAP
00
38
44
40
40
78
44
44
44
44
38
00
ENDCHAR
STARTCHAR seven
ENCODING 55
SWIDTH 500 0
DWIDTH 6 0
BBX 6 12 0 -1
BITMAP
00
7C
04
04
08
08
08
10
10
20
20
00
ENDCHAR
STARTCHAR eight
ENCODING 56
SWIDTH 500 0
DWIDTH 6 0
BBX 6 12 0 -1
BITMAP
00
38
44
44
44
38
44
44
44
44
38
00
ENDCHAR
STARTCHAR nine
ENCODING 57
SWIDTH 500 0
DWIDTH 6 0
BBX 6 12 0 -1
BITMAP
00
38
44
44
44
44
3C
04
04
44
38
00
ENDCHAR
STARTCHAR colon
ENCODING 58
SWIDTH 500 0
DWIDTH 6 0
BBX 6 12 0 -1
BITMAP
00
00
00
30
30
00
00
30
30
00
00
00
ENDCHAR
STARTCHAR semicolon
ENCODING 59
SWIDTH 500 0
DWIDTH 6 0
BBX 6 12 0 -1
BITMAP
00
00
00
30
30
00
00
30
30
10
20
00
ENDCHAR
STARTCHAR less
ENCODING 60
SWIDTH 500 0
DWIDTH 6 0
BBX 6 12 0 -1
BITMAP
00
00
04
08
10
20
40
20
10
08
04
00
ENDCHAR
STARTCHAR equal
ENCODING 61
SWIDTH 500 0
DWIDTH 6 0
BBX 6 12 0 -1
BITMAP
00
00
00
00
78
00
00
78
00
00
00
00
ENDCHAR
STARTCHAR greater
ENCODING 62
SWIDTH 500 0
DWIDTH 6 0
BBX 6 12 0 -1
BITMAP
00
00
40
20
10
08
04
08
10
20
40
00
ENDCHAR
STARTCHAR question
ENCODING 63
SWIDTH 500 0
DWIDTH 6 0
BBX 6 12 0 -1
BITMAP
00
38
44
44
08
10
10
10
00
10
10
00
ENDCHAR
STARTCHAR at
ENCODING 64
SWIDTH 500 0
DWIDTH 6 0
BBX 6 12 0 -1
BITMAP
00
38
44
44
5C
54
54
54
5C
40
3C
00
ENDCHAR
STARTCHAR A
ENCODING 65
SWIDTH 500 0
DWIDTH 6 0
BBX 6 12 0 -1
BITMAP
00
10
28
44
44
44
44
7C
44
44
44
00
ENDCHAR
STARTCHAR B
ENCODING 66
SWIDTH 500 0
DWIDTH 6 0
BBX 6 12 0 -1
BITMAP
00
78
44
44
44
78
44
44
44
44
78
00
ENDCHAR
STARTCHAR C
ENCODING 67
SWIDTH 500 0
DWIDTH 6 0
BBX 6 12 0 -1
BITMAP
00
38
44
44
40
40
40
40
44
44
38
00
ENDCHAR
STARTCHAR D
ENCODING 68
SWIDTH 500 0
DWIDTH 6 0
BBX 6 12 0 -1
BITMAP
00
70
48
44
44
44
44
44
44
48
70
00
ENDCHAR
STARTCHAR E
ENCODING 69
SWIDTH 500 0
DWIDTH 6 0
BBX 6 12 0 -1
BITMAP
00
7C
40
40
40
78
40
40
40
40
7C
00
ENDCHAR
STARTCHAR F
ENCODING 70
SWIDTH 500 0
DWIDTH 6 0
BBX 6 12 0 -1
BITMAP
00
7C
40
40
40
78
40
40
40
40
40
00
ENDCHAR
STARTCHAR G
ENCODING 71
SWIDTH 500 0
DWIDTH 6 0
BBX 6 12 0 -1
BITMAP
00
38
44
44
40
40
5C
44
44
44
3C
00
ENDCHAR
STARTCHAR H
ENCODING 72
SWIDTH 500 0
DWIDTH 6 0
BBX 6 12 0 -1
BITMAP
00
44
44
44
44
7C
44
44
44
44
44
00
ENDCHAR
STARTCHAR I
ENCODING 73
SWIDTH 500 0
DWIDTH 6 0
BBX 6 12 0 -1
BITMAP
00
38
10
10
10
10
10
10
10
10
38
00
ENDCHAR
STARTCHAR J
ENCODING 74
SWIDTH 500 0
DWIDTH 6 0
BBX 6 12 0 -1
BITMAP
00
08
08
08
08
08
08
08
08
48
30
00
ENDCHAR
STARTCHAR K
ENCODING 75
SWIDTH 500 0
DWIDTH 6 0
BBX 6 12 0 -1
BITMAP
00
44
48
48
50
60
50
50
48
48
44
00
ENDCHAR
STARTCHAR L
ENCODING 76
SWIDTH 500 0
DWIDTH 6 0
BBX 6 12 0 -1
BITMAP
00
40
40
40
40
40
40
40
40
40
7C
00
ENDCHAR
STARTCHAR M
ENCODING 77
SWIDTH 500 0
DWIDTH 6 0
BBX 6 12 0 -1
BITMAP
00
44
44
6C
6C
54
54
44
44
44
44
00
ENDCHAR
STARTCHAR N
ENCODING 78
SWIDTH 500 0
DWIDTH 6 0
BBX 6 12 0 -1
BITMAP
00
44
44
64
64
54
54
4C
4C
44
44
00
ENDCHAR
STARTCHAR O
ENCODING 79
SWIDTH 500 0
DWIDTH 6 0
BBX 6 12 0 -1
BITMAP
00
38
44
44
44
44
44
44
44
44
38
00
ENDCHAR
STARTCHAR P
ENCODING 80
SWIDTH 500 0
DWIDTH 6 0
BBX 6 12 0 -1
BITMAP
00
78
44
44
44
44
78
40
40
40
40
00
ENDCHAR
STARTCHAR Q
ENCODING 81
SWIDTH 500 0
DWIDTH 6 0
BBX 6 12 0 -1
BITMAP
00
38
44
44
44
44
44
44
54
4C
3C
00
ENDCHAR
STARTCHAR R
ENCODING 82
SWIDTH 500 0
DWIDTH 6 0
BBX 6 12 0 -1
BITMAP
00
78
44
44
44
78
50
48
48
44
44
00
ENDCHAR
STARTCHAR S
ENCODING 83
SWIDTH 500 0
DWIDTH 6 0
BBX 6 12 0 -1
BITMAP
00
38
44
44
40
30
08
04
44
44
38
00
ENDCHAR
STARTCHAR T
ENCODING 84
SWIDTH 500 0
DWIDTH 6 0
BBX 6 12 0 -1
BITMAP
00
7C
10
10
10
10
10
10
10
10
10
00
ENDCHAR
STARTCHAR U
ENCODING 85
SWIDTH 500 0
DWIDTH 6 0
BBX 6 12 0 -1
BITMAP
00
44
44
44
44
44
44
44
44
44
38
00
ENDCHAR
STARTCHAR V
ENCODING 86
SWIDTH 500 0
DWIDTH 6 0
BBX 6 12 0 -1
BITMAP
00
44
44
44
44
28
28
28
28
10
10
00
ENDCHAR
STARTCHAR W
ENCODING 87
SWIDTH 500 0
DWIDTH 6 0
BBX 6 12 0 -1
BITMAP
00
44
44
54
54
54
54
54
28
28
28
00
ENDCHAR
STARTCHAR X
ENCODING 88
SWIDTH 500 0
DWIDTH 6 0
BBX 6 12 0 -1
BITMAP
00
44
44
28
28
10
10
28
28
44
44
00
ENDCHAR
STARTCHAR Y
ENCODING 89
SWIDTH 500 0
DWIDTH 6 0
BBX 6 12 0 -1
BITMAP
00
44
44
44
28
28
10
10
10
10
10
00
ENDCHAR
STARTCHAR Z
ENCODING 90
SWIDTH 500 0
DWIDTH 6 0
BBX 6 12 0 -1
BITMAP
00
7C
04
08
08
10
10
20
20
40
7C
00
ENDCHAR
STARTCHAR bracketleft
ENCODING 91
SWIDTH 500 0
DWIDTH 6 0
BBX 6 12 0 -1
BITMAP
00
38
20
20
20
20
20
20
20
20
38
00
ENDCHAR
STARTCHAR backslash
ENCODING 92
SWIDTH 500 0
DWIDTH 6 0
BBX 6 12 0 -1
BITMAP
00
40
40
20
20
10
10
08
08
04
04
00
ENDCHAR
STARTCHAR bracketright
ENCODING 93
SWIDTH 500 0
DWIDTH 6 0
BBX 6 12 0 -1
BITMAP
00
70
10
10
10
10
10
10
10
10
70
00
ENDCHAR
STARTCHAR asciicircum
ENCODING 94
SWIDTH 500 0
DWIDTH 6 0
BBX 6 12 0 -1
BITMAP
00
10
28
44
00
00
00
00
00
00
00
00
ENDCHAR
STARTCHAR underscore
ENCODING 95
SWIDTH 500 0
DWIDTH 6 0
BBX 6 12 0 -1
BITMAP
00
00
00
00
00
00
00
00
00
00
00
7C
ENDCHAR
STARTCHAR grave
ENCODING 96
SWIDTH 500 0
DWIDTH 6 0
BBX 6 12 0 -1
BITMAP
00
20
10
00
00
00
00
00
00
00
00
00
ENDCHAR
STARTCHAR a
ENCODING 97
SWIDTH 500 0
DWIDTH 6 0
BBX 6 12 0 -1
BITMAP
00
00
00
00
78
04
3C
44
44
44
3C
00
ENDCHAR
STARTCHAR b
ENCODING 98
SWIDTH 500 0
DWIDTH 6 0
BBX 6 12 0 -1
BITMAP
00
00
40
40
40
78
44
44
44
44
78
00
ENDCHAR
STARTCHAR c
ENCODING 99
SWIDTH 500 0
DWIDTH 6 0
BBX 6 12 0 -1
BITMAP
00
00
00
00
38
44
40
40
40
44
38
00
ENDCHAR
STARTCHAR d
ENCODING 100
SWIDTH 500 0
DWIDTH 6 0
BBX 6 12 0 -1
BITMAP
00
04
04
04
3C
44
44
44
44
44
3C
00
ENDCHAR
STARTCHAR e
ENCODING 101
SWIDTH 500 0
DWIDTH 6 0
BBX 6 12 0 -1
BITMAP
00
00
00
00
38
44
44
7C
40
44
38
00
ENDCHAR
STARTCHAR f
ENCODING 102
SWIDTH 500 0
DWIDTH 6 0
BBX 6 12 0 -1
BITMAP
00
0C
10
10
7C
10
10
10
10
10
10
00
ENDCHAR
STARTCHAR g
ENCODING 103
SWIDTH 500 0
DWIDTH 6 0
BBX 6 12 0 -1
BITMAP
00
00
00
00
3C
44
44
44
3C
04
44
38
ENDCHAR
STARTCHAR h
ENCODING 104
SWIDTH 500 0
DWIDTH 6 0
BBX 6 12 0 -1
BITMAP
00
40
40
40
78
44
44
44
44
44
44
00
ENDCHAR
STARTCHAR i
ENCODING 105
SWIDTH 500 0
DWIDTH 6 0
BBX 6 12 0 -1
BITMAP
00
10
10
00
10
10
10
10
10
10
10
00
ENDCHAR
STARTCHAR j
ENCODING 106
SWIDTH 500 0
DWIDTH 6 0
BBX 6 12 0 -1
BITMAP
00
08
08
00
08
08
08
08
08
08
48
30
ENDCHAR
STARTCHAR k
ENCODING 107
SWIDTH 500 0
DWIDTH 6 0
BBX 6 12 0 -1
BITMAP
00
40
40
40
44
48
50
70
48
48
44
00
ENDCHAR
STARTCHAR l
ENCODING 108
SWIDTH 500 0
DWIDTH 6 0
BBX 6 12 0 -1
BITMAP
00
10
10
10
10
10
10
10
10
10
18
00
ENDCHAR
STARTCHAR m
ENCODING 109
SWIDTH 500 0
DWIDTH 6 0
BBX 6 12 0 -1
BITMAP
00
00
00
00
78
54
54
54
54
54
54
00
ENDCHAR
STARTCHAR n
ENCODING 110
SWIDTH 500 0
DWIDTH 6 0
BBX 6 12 0 -1
BITMAP
00
00
00
00
78
44
44
44
44
44
44
00
ENDCHAR
STARTCHAR o
ENCODING 111
SWIDTH 500 0
DWIDTH 6 0
BBX 6 12 0 -1
BITMAP
00
00
00
00
38
44
44
44
44
44
38
00
ENDCHAR
STARTCHAR p
ENCODING 112
SWIDTH 500 0
DWIDTH 6 0
BBX 6 12 0 -1
BITMAP
00
00
00
00
78
44
44
44
44
78
40
40
ENDCHAR
STARTCHAR q
ENCODING 113
SWIDTH 500 0
DWIDTH 6 0
BBX 6 12 0 -1
BITMAP
00
00
00
00
3C
44
44
44
44
3C
04
04
ENDCHAR
STARTCHAR r
ENCODING 114
SWIDTH 500 0
DWIDTH 6 0
BBX 6 12 0 -1
BITMAP
00
00
00
00
5C
60
40
40
40
40
40
00
ENDCHAR
STARTCHAR s
ENCODING 115
SWIDTH 500 0
DWIDTH 6 0
BBX 6 12 0 -1
BITMAP
00
00
00
00
38
44
40
38
04
44
38
00
ENDCHAR
STARTCHAR t
ENCODING 116
SWIDTH 500 0
DWIDTH 6 0
BBX 6 12 0 -1
BITMAP
00
10
10
10
7C
10
10
10
10
10
0C
00
ENDCHAR
STARTCHAR u
ENCODING 117
SWIDTH 500 0
DWIDTH 6 0
BBX 6 12 0 -1
BITMAP
00
00
00
00
44
44
44
44
44
44
3C
00
ENDCHAR
STARTCHAR v
ENCODING 118
SWIDTH 500 0
DWIDTH 6 0
BBX 6 12 0 -1
BITMAP
00
00
00
00
44
44
44
28
28
28
10
00
ENDCHAR
STARTCHAR w
ENCODING 119
SWIDTH 500 0
DWIDTH 6 0
BBX 6 12 0 -1
BITMAP
00
00
00
00
54
54
54
54
54
28
28
00
ENDCHAR
STARTCHAR x
ENCODING 120
SWIDTH 500 0
DWIDTH 6 0
BBX 6 12 0 -1
BITMAP
00
00
00
00
44
44
28
10
28
44
44
00
ENDCHAR
STARTCHAR y
ENCODING 121
SWIDTH 500 0
DWIDTH 6 0
BBX 6 12 0 -1
BITMAP
00
00
00
00
44
44
28
28
10
10
20
20
ENDCHAR
STARTCHAR z
ENCODING 122
SWIDTH 500 0
DWIDTH 6 0
BBX 6 12 0 -1
BITMAP
00
00
00
00
7C
04
08
10
20
40
7C
00
ENDCHAR
STARTCHAR braceleft
ENCODING 123
SWIDTH 500 0
DWIDTH 6 0
BBX 6 12 0 -1
BITMAP
00
08
10
10
10
10
20
10
10
10
10
08
ENDCHAR
STARTCHAR bar
ENCODING 124
SWIDTH 500 0
DWIDTH 6 0
BBX 6 12 0 -1
BITMAP
10
10
10
10
10
10
10
10
10
10
10
10
ENDCHAR
STARTCHAR braceright
ENCODING 125
SWIDTH 500 0
DWIDTH 6 0
BBX 6 12 0 -1
BITMAP
00
40
20
20
20
20
10
20
20
20
20
40
ENDCHAR
STARTCHAR asciitilde
ENCODING 126
SWIDTH 500 0
DWIDTH 6 0
BBX 6 12 0 -1
BITMAP
00
00
00
00
20
54
08
00
00
00
00
00
ENDCHAR
STARTCHAR uni007F
ENCODING 127
SWIDTH 500 0
DWIDTH 6 0
BBX 6 12 0 -1
BITMAP
00
00
00
10
10
28
28
44
44
7C
00
00
ENDCHAR
STARTCHAR uni00A0
ENCODING 160
SWIDTH 500 0
DWIDTH 6 0
BBX 6 12 0 -1
BITMAP
00
00
00
00
00
00
00
00
00
00
00
00
ENDCHAR
STARTCHAR exclamdown
ENCODING 161
SWIDTH 500 0
DWIDTH 6 0
BBX 6 12 0 -1
BITMAP
00
00
10
10
00
10
10
10
10
10
10
10
ENDCHAR
STARTCHAR cent
ENCODING 162
SWIDTH 500 0
DWIDTH 6 0
BBX 6 12 0 -1
BITMAP
00
10
10
38
54
50
50
54
38
10
10
00
ENDCHAR
STARTCHAR sterling
ENCODING 163
SWIDTH 500 0
DWIDTH 6 0
BBX 6 12 0 -1
BITMAP
00
08
14
10
10
38
10
10
30
54
3C
00
ENDCHAR
STARTCHAR yen
ENCODING 165
SWIDTH 500 0
DWIDTH 6 0
BBX 6 12 0 -1
BITMAP
00
44
44
28
10
7C
10
7C
10
10
10
00
ENDCHAR
STARTCHAR section
ENCODING 167
SWIDTH 500 0
DWIDTH 6 0
BBX 6 12 0 -1
BITMAP
00
38
44
40
38
44
44
38
04
44
38
00
ENDCHAR
STARTCHAR ordfeminine
ENCODING 170
SWIDTH 500 0
DWIDTH 6 0
BBX 6 12 0 -1
BITMAP
00
78
04
3C
44
3C
00
7C
00
00
00
00
ENDCHAR
STARTCHAR guillemotleft
ENCODING 171
SWIDTH 500 0
DWIDTH 6 0
BBX 6 12 0 -1
BITMAP
00
00
00
00
14
28
50
28
14
00
00
00
ENDCHAR
STARTCHAR logicalnot
ENCODING 172
SWIDTH 500 0
DWIDTH 6 0
BBX 6 12 0 -1
BITMAP
00
00
00
00
00
7C
04
04
00
00
00
00
ENDCHAR
STARTCHAR degree
ENCODING 176
SWIDTH 500 0
DWIDTH 6 0
BBX 6 12 0 -1
BITMAP
20
50
50
20
00
00
00
00
00
00
00
00
ENDCHAR
STARTCHAR plusminus
ENCODING 177
SWIDTH 500 0
DWIDTH 6 0
BBX 6 12 0 -1
BITMAP
00
00
00
10
10
7C
10
10
00
7C
00
00
ENDCHAR
STARTCHAR uni00B2
ENCODING 178
SWIDTH 500 0
DWIDTH 6 0
BBX 6 12 0 -1
BITMAP
00
70
08
30
40
78
00
00
00
00
00
00
ENDCHAR
STARTCHAR mu
ENCODING 181
SWIDTH 500 0
DWIDTH 6 0
BBX 6 12 0 -1
BITMAP
00
00
00
00
48
48
48
48
48
48
74
C0
ENDCHAR
STARTCHAR paragraph
ENCODING 182
SWIDTH 500 0
DWIDTH 6 0
BBX 6 12 0 -1
BITMAP
00
3C
74
74
74
34
14
14
14
14
14
00
ENDCHAR
STARTCHAR periodcentered
ENCODING 183
SWIDTH 500 0
DWIDTH 6 0
BBX 6 12 0 -1
BITMAP
00
00
00
00
00
10
10
00
00
00
00
00
ENDCHAR
STARTCHAR ordmasculine
ENCODING 186
SWIDTH 500 0
DWIDTH 6 0
BBX 6 12 0 -1
BITMAP
00
38
44
44
44
38
00
7C
00
00
00
00
ENDCHAR
STARTCHAR guillemotright
ENCODING 187
SWIDTH 500 0
DWIDTH 6 0
BBX 6 12 0 -1
BITMAP
00
00
00
00
50
28
14
28
50
00
00
00
ENDCHAR
STARTCHAR onequarter
ENCODING 188
SWIDTH 500 0
DWIDTH 6 0
BBX 6 12 0 -1
BITMAP
00
20
20
24
28
10
24
4C
14
1C
04
00
ENDCHAR
STARTCHAR onehalf
ENCODING 189
SWIDTH 500 0
DWIDTH 6 0
BBX 6 12 0 -1
BITMAP
00
20
20
24
28
10
38
44
08
10
1C
00
ENDCHAR
STARTCHAR questiondown
ENCODING 191
SWIDTH 500 0
DWIDTH 6 0
BBX 6 12 0 -1
BITMAP
00
10
10
00
10
10
10
20
44
44
38
00
ENDCHAR
STARTCHAR Adieresis
ENCODING 196
SWIDTH 500 0
DWIDTH 6 0
BBX 6 12 0 -1
BITMAP
44
44
10
28
44
44
44
7C
44
44
44
00
ENDCHAR
STARTCHAR Aring
ENCODING 197
SWIDTH 500 0
DWIDTH 6 0
BBX 6 12 0 -1
BITMAP
10
28
10
28
44
44
44
7C
44
44
44
00
ENDCHAR
STARTCHAR AE
ENCODING 198
SWIDTH 500 0
DWIDTH 6 0
BBX 6 12 0 -1
BITMAP
00
1C
30
50
50
5C
50
70
50
50
5C
00
ENDCHAR
STARTCHAR Ccedilla
ENCODING 199
SWIDTH 500 0
DWIDTH 6 0
BBX 6 12 0 -1
BITMAP
00
38
44
44
40
40
40
40
44
44
38
70
ENDCHAR
STARTCHAR Eacute
ENCODING 201
SWIDTH 500 0
DWIDTH 6 0
BBX 6 12 0 -1
BITMAP
08
10
7C
40
40
40
78
40
40
40
7C
00
ENDCHAR
STARTCHAR Ntilde
ENCODING 209
SWIDTH 500 0
DWIDTH 6 0
BBX 6 12 0 -1
BITMAP
34
58
00
44
64
64
54
54
4C
4C
44
00
ENDCHAR
STARTCHAR Odieresis
ENCODING 214
SWIDTH 500 0
DWIDTH 6 0
BBX 6 12 0 -1
BITMAP
44
44
00
38
44
44
44
44
44
44
38
00
ENDCHAR
STARTCHAR Udieresis
ENCODING 220
SWIDTH 500 0
DWIDTH 6 0
BBX 6 12 0 -1
BITMAP
44
44
00
44
44
44
44
44
44
44
38
00
ENDCHAR
STARTCHAR germandbls
ENCODING 223
SWIDTH 500 0
DWIDTH 6 0
BBX 6 12 0 -1
BITMAP
00
30
48
48
48
50
48
44
44
54
58
00
ENDCHAR
STARTCHAR agrave
ENCODING 224
SWIDTH 500 0
DWIDTH 6 0
BBX 6 12 0 -1
BITMAP
00
20
10
00
78
04
3C
44
44
44
3C
00
ENDCHAR
STARTCHAR aacute
ENCODING 225
SWIDTH 500 0
DWIDTH 6 0
BBX 6 12 0 -1
BITMAP
00
08
10
00
78
04
3C
44
44
44
3C
00
ENDCHAR
STARTCHAR acircumflex
ENCODING 226
SWIDTH 500 0
DWIDTH 6 0
BBX 6 12 0 -1
BITMAP
00
10
28
00
78
04
3C
44
44
44
3C
00
ENDCHAR
STARTCHAR adieresis
ENCODING 228
SWIDTH 500 0
DWIDTH 6 0
BBX 6 12 0 -1
BITMAP
00
48
48
00
78
04
3C
44
44
44
3C
00
ENDCHAR
STARTCHAR aring
ENCODING 229
SWIDTH 500 0
DWIDTH 6 0
BBX 6 12 0 -1
BITMAP
10
28
10
00
78
04
3C
44
44
44
3C
00
ENDCHAR
STARTCHAR ae
ENCODING 230
SWIDTH 500 0
DWIDTH 6 0
BBX 6 12 0 -1
BITMAP
00
00
00
00
68
14
34
5C
50
50
2C
00
ENDCHAR
STARTCHAR ccedilla
ENCODING 231
SWIDTH 500 0
DWIDTH 6 0
BBX 6 12 0 -1
BITMAP
00
00
00
00
38
44
40
40
40
44
38
70
ENDCHAR
STARTCHAR egrave
ENCODING 232
SWIDTH 500 0
DWIDTH 6 0
BBX 6 12 0 -1
BITMAP
00
20
10
00
38
44
44
7C
40
44
38
00
ENDCHAR
STARTCHAR eacute
ENCODING 233
SWIDTH 500 0
DWIDTH 6 0
BBX 6 12 0 -1
BITMAP
00
08
10
00
38
44
44
7C
40
44
38
00
ENDCHAR
STARTCHAR ecircumflex
ENCODING 234
SWIDTH 500 0
DWIDTH 6 0
BBX 6 12 0 -1
BITMAP
00
10
28
00
38
44
44
7C
40
44
38
00
ENDCHAR
STARTCHAR edieresis
ENCODING 235
SWIDTH 500 0
DWIDTH 6 0
BBX 6 12 0 -1
BITMAP
00
44
44
00
38
44
44
7C
40
44
38
00
ENDCHAR
STARTCHAR igrave
ENCODING 236
SWIDTH 500 0
DWIDTH 6 0
BBX 6 12 0 -1
BITMAP
00
10
08
00
10
10
10
10
10
10
10
00
ENDCHAR
STARTCHAR iacute
ENCODING 237
SWIDTH 500 0
DWIDTH 6 0
BBX 6 12 0 -1
BITMAP
00
10
20
00
10
10
10
10
10
10
10
00
ENDCHAR
STARTCHAR icircumflex
ENCODING 238
SWIDTH 500 0
DWIDTH 6 0
BBX 6 12 0 -1
BITMAP
00
10
28
00
10
10
10
10
10
10
10
00
ENDCHAR
STARTCHAR idieresis
ENCODING 239
SWIDTH 500 0
DWIDTH 6 0
BBX 6 12 0 -1
BITMAP
00
24
24
00
10
10
10
10
10
10
10
00
ENDCHAR
STARTCHAR ntilde
ENCODING 241
SWIDTH 500 0
DWIDTH 6 0
BBX 6 12 0 -1
BITMAP
00
34
58
00
78
44
44
44
44
44
44
00
ENDCHAR
STARTCHAR ograve
ENCODING 242
SWIDTH 500 0
DWIDTH 6 0
BBX 6 12 0 -1
BITMAP
00
20
10
00
38
44
44
44
44
44
38
00
ENDCHAR
STARTCHAR oacute
ENCODING 243
SWIDTH 500 0
DWIDTH 6 0
BBX 6 12 0 -1
BITMAP
00
08
10
00
38
44
44
44
44
44
38
00
ENDCHAR
STARTCHAR ocircumflex
ENCODING 244
SWIDTH 500 0
DWIDTH 6 0
BBX 6 12 0 -1
BITMAP
00
10
28
00
38
44
44
44
44
44
38
00
ENDCHAR
STARTCHAR odieresis
ENCODING 246
SWIDTH 500 0
DWIDTH 6 0
BBX 6 12 0 -1
BITMAP
00
44
44
00
38
44
44
44
44
44
38
00
ENDCHAR
STARTCHAR divide
ENCODING 247
SWIDTH 500 0
DWIDTH 6 0
BBX 6 12 0 -1
BITMAP
00
00
00
10
10
00
7C
00
10
10
00
00
ENDCHAR
STARTCHAR ugrave
ENCODING 249
SWIDTH 500 0
DWIDTH 6 0
BBX 6 12 0 -1
BITMAP
00
20
10
00
44
44
44
44
44
44
3C
00
ENDCHAR
STARTCHAR uacute
ENCODING 250
SWIDTH 500 0
DWIDTH 6 0
BBX 6 12 0 -1
BITMAP
00
08
10
00
44
44
44
44
44
44
3C
00
ENDCHAR
STARTCHAR ucircumflex
ENCODING 251
SWIDTH 500 0
DWIDTH 6 0
BBX 6 12 0 -1
BITMAP
00
10
28
00
44
44
44
44
44
44
3C
00
ENDCHAR
STARTCHAR udieresis
ENCODING 252
SWIDTH 500 0
DWIDTH 6 0
BBX 6 12 0 -1
BITMAP
00
44
44
00
44
44
44
44
44
44
3C
00
ENDCHAR
STARTCHAR ydieresis
ENCODING 255
SWIDTH 500 0
DWIDTH 6 0
BBX 6 12 0 -1
BITMAP
00
44
44
00
44
44
28
28
10
10
20
20
ENDCHAR
STARTCHAR florin
ENCODING 402
SWIDTH 500 0
DWIDTH 6 0
BBX 6 12 0 -1
BITMAP
00
08
14
10
10
7C
10
10
10
50
20
00
ENDCHAR
STARTCHAR Gamma
ENCODING 915
SWIDTH 500 0
DWIDTH 6 0
BBX 6 12 0 -1
BITMAP
00
7C
40
40
40
40
40
40
40
40
40
00
ENDCHAR
STARTCHAR Theta
ENCODING 920
SWIDTH 500 0
DWIDTH 6 0
BBX 6 12 0 -1
BITMAP
00
38
44
44
44
7C
44
44
44
44
38
00
ENDCHAR
STARTCHAR Sigma
ENCODING 931
SWIDTH 500 0
DWIDTH 6 0
BBX 6 12 0 -1
BITMAP
00
7C
40
20
10
08
10
20
40
40
7C
00
ENDCHAR
STARTCHAR Phi
ENCODING 934
SWIDTH 500 0
DWIDTH 6 0
BBX 6 12 0 -1
BITMAP
00
7C
10
38
54
54
54
54
38
10
7C
00
ENDCHAR
STARTCHAR uni03A9
ENCODING 937
SWIDTH 500 0
DWIDTH 6 0
BBX 6 12 0 -1
BITMAP
00
38
44
44
44
44
44
44
28
28
6C
00
ENDCHAR
STARTCHAR alpha
ENCODING 945
SWIDTH 500 0
DWIDTH 6 0
BBX 6 12 0 -1
BITMAP
00
00
00
00
34
48
48
48
48
48
34
00
ENDCHAR
STARTCHAR delta
ENCODING 948
SWIDTH 500 0
DWIDTH 6 0
BBX 6 12 0 -1
BITMAP
00
1C
20
10
38
44
44
44
44
44
38
00
ENDCHAR
STARTCHAR epsilon
ENCODING 949
SWIDTH 500 0
DWIDTH 6 0
BBX 6 12 0 -1
BITMAP
00
1C
20
40
40
78
40
40
40
20
1C
00
ENDCHAR
STARTCHAR pi
ENCODING 960
SWIDTH 500 0
DWIDTH 6 0
BBX 6 12 0 -1
BITMAP
00
00
00
00
7C
28
28
28
28
28
28
00
ENDCHAR
STARTCHAR sigma
ENCODING 963
SWIDTH 500 0
DWIDTH 6 0
BBX 6 12 0 -1
BITMAP
00
00
00
04
3C
48
48
48
48
48
30
00
ENDCHAR
STARTCHAR tau
ENCODING 964
SWIDTH 500 0
DWIDTH 6 0
BBX 6 12 0 -1
BITMAP
00
00
00
00
34
58
10
10
10
10
10
00
ENDCHAR
STARTCHAR phi
ENCODING 966
SWIDTH 500 0
DWIDTH 6 0
BBX 6 12 0 -1
BITMAP
00
04
04
38
4C
54
54
64
38
40
40
00
ENDCHAR
STARTCHAR bullet
ENCODING 8226
SWIDTH 500 0
DWIDTH 6 0
BBX 6 12 0 -1
BITMAP
00
00
00
00
30
78
78
30
00
00
00
00
ENDCHAR
STARTCHAR exclamdbl
ENCODING 8252
SWIDTH 500 0
DWIDTH 6 0
BBX 6 12 0 -1
BITMAP
00
48
48
48
48
48
48
48
00
48
48
00
ENDCHAR
STARTCHAR uni207F
ENCODING 8319
SWIDTH 500 0
DWIDTH 6 0
BBX 6 12 0 -1
BITMAP
00
70
48
48
48
48
00
00
00
00
00
00
ENDCHAR
STARTCHAR peseta
ENCODING 8359
SWIDTH 500 0
DWIDTH 6 0
BBX 6 12 0 -1
BITMAP
00
78
44
44
44
78
40
48
5C
48
48
04
ENDCHAR
STARTCHAR arrowleft
ENCODING 8592
SWIDTH 500 0
DWIDTH 6 0
BBX 6 12 0 -1
BITMAP
00
00
00
00
20
40
FC
40
20
00
00
00
ENDCHAR
STARTCHAR arrowup
ENCODING 8593
SWIDTH 500 0
DWIDTH 6 0
BBX 6 12 0 -1
BITMAP
00
10
38
54
10
10
10
10
10
10
10
00
ENDCHAR
STARTCHAR arrowright
ENCODING 8594
SWIDTH 500 0
DWIDTH 6 0
BBX 6 12 0 -1
BITMAP
00
00
00
00
10
08
FC
08
10
00
00
00
ENDCHAR
STARTCHAR arrowdown
ENCODING 8595
SWIDTH 500 0
DWIDTH 6 0
BBX 6 12 0 -1
BITMAP
00
10
10
10
10
10
10
10
54
38
10
00
ENDCHAR
STARTCHAR arrowboth
ENCODING 8596
SWIDTH 500 0
DWIDTH 6 0
BBX 6 12 0 -1
BITMAP
00
00
00
00
48
84
FC
84
48
00
00
00
ENDCHAR
STARTCHAR arrowupdn
ENCODING 8597
SWIDTH 500 0
DWIDTH 6 0
BBX 6 12 0 -1
BITMAP
00
10
38
54
10
10
10
10
54
38
10
00
ENDCHAR
STARTCHAR arrowupdnbse
ENCODING 8616
SWIDTH 500 0
DWIDTH 6 0
BBX 6 12 0 -1
BITMAP
00
10
38
54
10
10
10
10
54
38
10
7C
ENDCHAR
STARTCHAR uni2219
ENCODING 8729
SWIDTH 500 0
DWIDTH 6 0
BBX 6 12 0 -1
BITMAP
00
00
00
00
00
30
30
00
00
00
00
00
ENDCHAR
STARTCHAR radical
ENCODING 8730
SWIDTH 500 0
DWIDTH 6 0
BBX 6 12 0 -1
BITMAP
00
1C
10
10
10
10
50
50
30
30
10
00
ENDCHAR
STARTCHAR infinity
ENCODING 8734
SWIDTH 500 0
DWIDTH 6 0
BBX 6 12 0 -1
BITMAP
00
00
00
00
28
54
54
54
28
00
00
00
ENDCHAR
STARTCHAR orthogonal
ENCODING 8735
SWIDTH 500 0
DWIDTH 6 0
BBX 6 12 0 -1
BITMAP
00
00
00
00
40
40
40
40
7C
00
00
00
ENDCHAR
STARTCHAR intersection
ENCODING 8745
SWIDTH 500 0
DWIDTH 6 0
BBX 6 12 0 -1
BITMAP
00
38
44
44
44
44
44
44
44
44
44
00
ENDCHAR
STARTCHAR approxequal
ENCODING 8776
SWIDTH 500 0
DWIDTH 6 0
BBX 6 12 0 -1
BITMAP
00
00
00
20
54
08
20
54
08
00
00
00
ENDCHAR
STARTCHAR equivalence
ENCODING 8801
SWIDTH 500 0
DWIDTH 6 0
BBX 6 12 0 -1
BITMAP
00
00
00
7C
00
00
7C
00
00
7C
00
00
ENDCHAR
STARTCHAR lessequal
ENCODING 8804
SWIDTH 500 0
DWIDTH 6 0
BBX 6 12 0 -1
BITMAP
00
00
20
10
08
04
08
10
20
00
7C
00
ENDCHAR
STARTCHAR greaterequal
ENCODING 8805
SWIDTH 500 0
DWIDTH 6 0
BBX 6 12 0 -1
BITMAP
00
00
08
10
20
40
20
10
08
00
7C
00
ENDCHAR
STARTCHAR house
ENCODING 8962
SWIDTH 500 0
DWIDTH 6 0
BBX 6 12 0 -1
BITMAP
00
00
00
10
10
28
28
44
44
7C
00
00
ENDCHAR
STARTCHAR revlogicalnot
ENCODING 8976
SWIDTH 500 0
DWIDTH 6 0
BBX 6 12 0 -1
BITMAP
00
00
00
00
00
7C
40
40
00
00
00
00
ENDCHAR
STARTCHAR integraltp
ENCODING 8992
SWIDTH 500 0
DWIDTH 6 0
BBX 6 12 0 -1
BITMAP
00
08
14
14
10
10
10
10
10
10
10
10
ENDCHAR
STARTCHAR integralbt
ENCODING 8993
SWIDTH 500 0
DWIDTH 6 0
BBX 6 12 0 -1
BITMAP
10
10
10
10
10
10
10
10
50
50
20
00
ENDCHAR
STARTCHAR SF100000
ENCODING 9472
SWIDTH 500 0
DWIDTH 6 0
BBX 6 12 0 -1
BITMAP
00
00
00
00
00
FC
00
00
00
00
00
00
ENDCHAR
STARTCHAR SF110000
ENCODING 9474
SWIDTH 500 0
DWIDTH 6 0
BBX 6 12 0 -1
BITMAP
10
10
10
10
10
10
10
10
10
10
10
10
ENDCHAR
STARTCHAR SF010000
ENCODING 9484
SWIDTH 500 0
DWIDTH 6 0
BBX 6 12 0 -1
BITMAP
00
00
00
00
00
1C
10
10
10
10
10
10
ENDCHAR
STARTCHAR SF030000
ENCODING 9488
SWIDTH 500 0
DWIDTH 6 0
BBX 6 12 0 -1
BITMAP
00
00
00
00
00
F0
10
10
10
10
10
10
ENDCHAR
STARTCHAR SF020000
ENCODING 9492
SWIDTH 500 0
DWIDTH 6 0
BBX 6 12 0 -1
BITMAP
10
10
10
10
10
1C
00
00
00
00
00
00
ENDCHAR
STARTCHAR SF040000
ENCODING 9496
SWIDTH 500 0
DWIDTH 6 0
BBX 6 12 0 -1
BITMAP
10
10
10
10
10
F0
00
00
00
00
00
00
ENDCHAR
STARTCHAR SF080000
ENCODING 9500
SWIDTH 500 0
DWIDTH 6 0
BBX 6 12 0 -1
BITMAP
10
10
10
10
10
1C
10
10
10
10
10
10
ENDCHAR
STARTCHAR SF090000
ENCODING 9508
SWIDTH 500 0
DWIDTH 6 0
BBX 6 12 0 -1
BITMAP
10
10
10
10
10
F0
10
10
10
10
10
10
ENDCHAR
STARTCHAR SF060000
ENCODING 9516
SWIDTH 500 0
DWIDTH 6 0
BBX 6 12 0 -1
BITMAP
00
00
00
00
00
FC
10
10
10
10
10
10
ENDCHAR
STARTCHAR SF070000
ENCODING 9524
SWIDTH 500 0
DWIDTH 6 0
BBX 6 12 0 -1
BITMAP
10
10
10
10
10
FC
00
00
00
00
00
00
ENDCHAR
STARTCHAR SF050000
ENCODING 9532
SWIDTH 500 0
DWIDTH 6 0
BBX 6 12 0 -1
BITMAP
10
10
10
10
10
FC
10
10
10
10
10
10
ENDCHAR
STARTCHAR SF430000
ENCODING 9552
SWIDTH 500 0
DWIDTH 6 0
BBX 6 12 0 -1
BITMAP
00
00
00
00
FC
00
FC
00
00
00
00
00
ENDCHAR
STARTCHAR SF240000
ENCODING 9553
SWIDTH 500 0
DWIDTH 6 0
BBX 6 12 0 -1
BITMAP
28
28
28
28
28
28
28
28
28
28
28
28
ENDCHAR
STARTCHAR SF510000
ENCODING 9554
SWIDTH 500 0
DWIDTH 6 0
BBX 6 12 0 -1
BITMAP
00
00
00
00
1C
10
1C
10
10
10
10
10
ENDCHAR
STARTCHAR SF520000
ENCODING 9555
SWIDTH 500 0
DWIDTH 6 0
BBX 6 12 0 -1
BITMAP
00
00
00
00
00
3C
28
28
28
28
28
28
ENDCHAR
STARTCHAR SF390000
ENCODING 9556
SWIDTH 500 0
DWIDTH 6 0
BBX 6 12 0 -1
BITMAP
00
00
00
00
3C
20
2C
28
28
28
28
28
ENDCHAR
STARTCHAR SF220000
ENCODING 9557
SWIDTH 500 0
DWIDTH 6 0
BBX 6 12 0 -1
BITMAP
00
00
00
00
F0
10
F0
10
10
10
10
10
ENDCHAR
STARTCHAR SF210000
ENCODING 9558
SWIDTH 500 0
DWIDTH 6 0
BBX 6 12 0 -1
BITMAP
00
00
00
00
00
F8
28
28
28
28
28
28
ENDCHAR
STARTCHAR SF250000
ENCODING 9559
SWIDTH 500 0
DWIDTH 6 0
BBX 6 12 0 -1
BITMAP
00
00
00
00
F8
08
E8
28
28
28
28
28
ENDCHAR
STARTCHAR SF500000
ENCODING 9560
SWIDTH 500 0
DWIDTH 6 0
BBX 6 12 0 -1
BITMAP
10
10
10
10
1C
10
1C
00
00
00
00
00
ENDCHAR
STARTCHAR SF490000
ENCODING 9561
SWIDTH 500 0
DWIDTH 6 0
BBX 6 12 0 -1
BITMAP
28
28
28
28
28
3C
00
00
00
00
00
00
ENDCHAR
STARTCHAR SF380000
ENCODING 9562
SWIDTH 500 0
DWIDTH 6 0
BBX 6 12 0 -1
BITMAP
28
28
28
28
2C
20
3C
00
00
00
00
00
ENDCHAR
STARTCHAR SF280000
ENCODING 9563
SWIDTH 500 0
DWIDTH 6 0
BBX 6 12 0 -1
BITMAP
10
10
10
10
F0
10
F0
00
00
00
00
00
ENDCHAR
STARTCHAR SF270000
ENCODING 9564
SWIDTH 500 0
DWIDTH 6 0
BBX 6 12 0 -1
BITMAP
28
28
28
28
28
F8
00
00
00
00
00
00
ENDCHAR
STARTCHAR SF260000
ENCODING 9565
SWIDTH 500 0
DWIDTH 6 0
BBX 6 12 0 -1
BITMAP
28
28
28
28
E8
08
F8
00
00
00
00
00
ENDCHAR
STARTCHAR SF360000
ENCODING 9566
SWIDTH 500 0
DWIDTH 6 0
BBX 6 12 0 -1
BITMAP
10
10
10
10
1C
10
1C
10
10
10
10
10
ENDCHAR
STARTCHAR SF370000
ENCODING 9567
SWIDTH 500 0
DWIDTH 6 0
BBX 6 12 0 -1
BITMAP
28
28
28
28
28
2C
28
28
28
28
28
28
ENDCHAR
STARTCHAR SF420000
ENCODING 9568
SWIDTH 500 0
DWIDTH 6 0
BBX 6 12 0 -1
BITMAP
28
28
28
28
2C
20
2C
28
28
28
28
28
ENDCHAR
STARTCHAR SF190000
ENCODING 9569
SWIDTH 500 0
DWIDTH 6 0
BBX 6 12 0 -1
BITMAP
10
10
10
10
F0
10
F0
10
10
10
10
10
ENDCHAR
STARTCHAR SF200000
ENCODING 9570
SWIDTH 500 0
DWIDTH 6 0
BBX 6 12 0 -1
BITMAP
28
28
28
28
28
E8
28
28
28
28
28
28
ENDCHAR
STARTCHAR SF230000
ENCODING 9571
SWIDTH 500 0
DWIDTH 6 0
BBX 6 12 0 -1
BITMAP
28
28
28
28
E8
08
E8
28
28
28
28
28
ENDCHAR
STARTCHAR SF470000
ENCODING 9572
SWIDTH 500 0
DWIDTH 6 0
BBX 6 12 0 -1
BITMAP
00
00
00
00
FC
00
FC
10
10
10
10
10
ENDCHAR
STARTCHAR SF480000
ENCODING 9573
SWIDTH 500 0
DWIDTH 6 0
BBX 6 12 0 -1
BITMAP
00
00
00
00
00
FC
28
28
28
28
28
28
ENDCHAR
STARTCHAR SF410000
ENCODING 9574
SWIDTH 500 0
DWIDTH 6 0
BBX 6 12 0 -1
BITMAP
00
00
00
00
FC
00
EC
28
28
28
28
28
ENDCHAR
STARTCHAR SF450000
ENCODING 9575
SWIDTH 500 0
DWIDTH 6 0
BBX 6 12 0 -1
BITMAP
10
10
10
10
FC
00
FC
00
00
00
00
00
ENDCHAR
STARTCHAR SF460000
ENCODING 9576
SWIDTH 500 0
DWIDTH 6 0
BBX 6 12 0 -1
BITMAP
28
28
28
28
28
FC
00
00
00
00
00
00
ENDCHAR
STARTCHAR SF400000
ENCODING 9577
SWIDTH 500 0
DWIDTH 6 0
BBX 6 12 0 -1
BITMAP
28
28
28
28
EC
00
FC
00
00
00
00
00
ENDCHAR
STARTCHAR SF540000
ENCODING 9578
SWIDTH 500 0
DWIDTH 6 0
BBX 6 12 0 -1
BITMAP
10
10
10
10
FC
00
FC
10
10
10
10
10
ENDCHAR
STARTCHAR SF530000
ENCODING 9579
SWIDTH 500 0
DWIDTH 6 0
BBX 6 12 0 -1
BITMAP
28
28
28
28
28
EC
28
28
28
28
28
28
ENDCHAR
STARTCHAR SF440000
ENCODING 9580
SWIDTH 500 0
DWIDTH 6 0
BBX 6 12 0 -1
BITMAP
28
28
28
28
EC
00
EC
28
28
28
28
28
ENDCHAR
STARTCHAR upblock
ENCODING 9600
SWIDTH 500 0
DWIDTH 6 0
BBX 6 12 0 -1
BITMAP
FC
FC
FC
FC
FC
FC
00
00
00
00
00
00
ENDCHAR
STARTCHAR dnblock
ENCODING 9604
SWIDTH 500 0
DWIDTH 6 0
BBX 6 12 0 -1
BITMAP
00
00
00
00
00
00
FC
FC
FC
FC
FC
FC
ENDCHAR
STARTCHAR block
ENCODING 9608
SWIDTH 500 0
DWIDTH 6 0
BBX 6 12 0 -1
BITMAP
FC
FC
FC
FC
FC
FC
FC
FC
FC
FC
FC
FC
ENDCHAR
STARTCHAR lfblock
ENCODING 9612
SWIDTH 500 0
DWIDTH 6 0
BBX 6 12 0 -1
BITMAP
E0
E0
E0
E0
E0
E0
E0
E0
E0
E0
E0
E0
ENDCHAR
STARTCHAR rtblock
ENCODING 9616
SWIDTH 500 0
DWIDTH 6 0
BBX 6 12 0 -1
BITMAP
1C
1C
1C
1C
1C
1C
1C
1C
1C
1C
1C
1C
ENDCHAR
STARTCHAR ltshade
ENCODING 9617
SWIDTH 500 0
DWIDTH 6 0
BBX 6 12 0 -1
BITMAP
24
90
48
24
90
48
24
90
48
24
90
48
ENDCHAR
STARTCHAR shade
ENCODING 9618
SWIDTH 500 0
DWIDTH 6 0
BBX 6 12 0 -1
BITMAP
A8
54
A8
54
A8
54
A8
54
A8
54
A8
54
ENDCHAR
STARTCHAR dkshade
ENCODING 9619
SWIDTH 500 0
DWIDTH 6 0
BBX 6 12 0 -1
BITMAP
D8
6C
B4
D8
6C
B4
D8
6C
B4
D8
6C
B4
ENDCHAR
STARTCHAR filledbox
ENCODING 9632
SWIDTH 500 0
DWIDTH 6 0
BBX 6 12 0 -1
BITMAP
00
00
00
00
78
78
78
78
00
00
00
00
ENDCHAR
STARTCHAR filledrect
ENCODING 9644
SWIDTH 500 0
DWIDTH 6 0
BBX 6 12 0 -1
BITMAP
00
00
00
00
00
00
00
00
00
7C
7C
7C
ENDCHAR
STARTCHAR triagup
ENCODING 9650
SWIDTH 500 0
DWIDTH 6 0
BBX 6 12 0 -1
BITMAP
00
00
00
10
10
38
38
7C
7C
00
00
00
ENDCHAR
STARTCHAR triagrt
ENCODING 9658
SWIDTH 500 0
DWIDTH 6 0
BBX 6 12 0 -1
BITMAP
00
00
40
60
70
78
7C
78
70
60
40
00
ENDCHAR
STARTCHAR triagdn
ENCODING 9660
SWIDTH 500 0
DWIDTH 6 0
BBX 6 12 0 -1
BITMAP
00
00
00
7C
7C
38
38
10
10
00
00
00
ENDCHAR
STARTCHAR triaglf
ENCODING 9668
SWIDTH 500 0
DWIDTH 6 0
BBX 6 12 0 -1
BITMAP
00
00
04
0C
1C
3C
7C
3C
1C
0C
04
00
ENDCHAR
STARTCHAR circle
ENCODING 9675
SWIDTH 500 0
DWIDTH 6 0
BBX 6 12 0 -1
BITMAP
00
00
00
00
30
48
48
30
00
00
00
00
ENDCHAR
STARTCHAR invbullet
ENCODING 9688
SWIDTH 500 0
DWIDTH 6 0
BBX 6 12 0 -1
BITMAP
FC
FC
FC
FC
CC
84
84
CC
FC
FC
FC
FC
ENDCHAR
STARTCHAR invcircle
ENCODING 9689
SWIDTH 500 0
DWIDTH 6 0
BBX 6 12 0 -1
BITMAP
FC
FC
FC
FC
CC
B4
B4
CC
FC
FC
FC
FC
ENDCHAR
STARTCHAR smileface
ENCODING 9786
SWIDTH 500 0
DWIDTH 6 0
BBX 6 12 0 -1
BITMAP
00
38
44
44
6C
44
44
7C
54
44
38
00
ENDCHAR
STARTCHAR invsmileface
ENCODING 9787
SWIDTH 500 0
DWIDTH 6 0
BBX 6 12 0 -1
BITMAP
00
38
7C
7C
54
7C
7C
44
6C
7C
38
00
ENDCHAR
STARTCHAR sun
ENCODING 9788
SWIDTH 500 0
DWIDTH 6 0
BBX 6 12 0 -1
BITMAP
00
10
54
38
38
6C
38
38
54
10
00
00
ENDCHAR
STARTCHAR female
ENCODING 9792
SWIDTH 500 0
DWIDTH 6 0
BBX 6 12 0 -1
BITMAP
00
38
44
44
44
44
38
10
7C
10
10
00
ENDCHAR
STARTCHAR male
ENCODING 9794
SWIDTH 500 0
DWIDTH 6 0
BBX 6 12 0 -1
BITMAP
00
1C
0C
14
10
38
44
44
44
44
38
00
ENDCHAR
STARTCHAR spade
ENCODING 9824
SWIDTH 500 0
DWIDTH 6 0
BBX 6 12 0 -1
BITMAP
00
00
10
10
38
38
7C
7C
54
10
38
00
ENDCHAR
STARTCHAR club
ENCODING 9827
SWIDTH 500 0
DWIDTH 6 0
BBX 6 12 0 -1
BITMAP
00
00
10
38
38
10
7C
7C
54
10
38
00
ENDCHAR
STARTCHAR heart
ENCODING 9829
SWIDTH 500 0
DWIDTH 6 0
BBX 6 12 0 -1
BITMAP
00
00
28
7C
7C
7C
38
38
10
10
00
00
ENDCHAR
STARTCHAR diamond
ENCODING 9830
SWIDTH 500 0
DWIDTH 6 0
BBX 6 12 0 -1
BITMAP
00
10
10
38
38
7C
7C
38
38
10
10
00
ENDCHAR
STARTCHAR musicalnote
ENCODING 9834
SWIDTH 500 0
DWIDTH 6 0
BBX 6 12 0 -1
BITMAP
00
10
18
18
14
14
10
10
30
70
60
00
ENDCHAR
STARTCHAR musicalnotedbl
ENCODING 9835
SWIDTH 500 0
DWIDTH 6 0
BBX 6 12 0 -1
BITMAP
00
30
2C
34
2C
24
24
E4
C4
1C
18
00
ENDCHAR
STARTCHAR uni3044
ENCODING 12356
SWIDTH 500 0
DWIDTH 6 0
BBX 6 12 0 -1
BITMAP
00
00
00
00
00
00
00
00
00
00
00
00
ENDCHAR
STARTCHAR uni3046
ENCODING 12358
SWIDTH 500 0
DWIDTH 6 0
BBX 6 12 0 -1
BITMAP
00
00
00
00
00
00
00
00
00
00
00
00
ENDCHAR
STARTCHAR uni304B
ENCODING 12363
SWIDTH 500 0
DWIDTH 6 0
BBX 6 12 0 -1
BITMAP
00
00
00
00
00
00
00
00
00
00
00
00
ENDCHAR
STARTCHAR uni3057
ENCODING 12375
SWIDTH 500 0
DWIDTH 6 0
BBX 6 12 0 -1
BITMAP
00
00
00
00
00
00
00
00
00
00
00
00
ENDCHAR
STARTCHAR uni306E
ENCODING 12398
SWIDTH 500 0
DWIDTH 6 0
BBX 6 12 0 -1
BITMAP
00
00
00
00
00
00
00
00
00
00
00
00
ENDCHAR
STARTCHAR uni3093
ENCODING 12435
SWIDTH 500 0
DWIDTH 6 0
BBX 6 12 0 -1
BITMAP
00
00
00
00
00
00
00
00
00
00
00
00
ENDCHAR
STARTCHAR .notdef
ENCODING -1
SWIDTH 500 0
DWIDTH 6 0
BBX 5 9 1 0
BITMAP
F8
88
88
88
88
88
88
88
F8
ENDCHAR
ENDFONT
