STARTFONT 2.1
FONT Bm437_DOS-V_re_ANK24-24px
SIZE 24 75 75
FONTBOUNDINGBOX 12 24 0 -4
STARTPROPERTIES 3
PIXEL_SIZE 24
FONT_ASCENT 20
FONT_DESCENT 4
ENDPROPERTIES
CHARS 295
STARTCHAR uni0000
ENCODING 0
SWIDTH 500 0
DWIDTH 12 0
BBX 12 24 0 -4
BITMAP
0000
0000
0000
0000
0000
0000
0000
0000
0000
0000
0000
0000
0000
0000
0000
0000
0000
0000
0000
0000
0000
0000
0000
0000
ENDCHAR
STARTCHAR uni0001
ENCODING 1
SWIDTH 500 0
DWIDTH 12 0
BBX 12 24 0 -4
BITMAP
0000
0000
0000
0000
0FC0
1860
3030
2010
2CD0
2CD0
2010
2010
2010
2850
2FD0
2790
3030
1860
0FC0
0000
0000
0000
0000
0000
ENDCHAR
STARTCHAR uni0002
ENCODING 2
SWIDTH 500 0
DWIDTH 12 0
BBX 12 24 0 -4
BITMAP
0000
0000
0000
0000
0FC0
1FE0
3FF0
3FF0
3330
3330
3FF0
3FF0
3FF0
37B0
3030
3870
3FF0
1FE0
0FC0
0000
0000
0000
0000
0000
ENDCHAR
STARTCHAR uni0003
ENCODING 3
SWIDTH 500 0
DWIDTH 12 0
BBX 12 24 0 -4
BITMAP
0000
0000
0000
0000
0000
38E0
7DF0
7FF0
7FF0
7FF0
3FE0
3FE0
1FC0
0F80
0700
0200
0200
0000
0000
0000
0000
0000
0000
0000
ENDCHAR
STARTCHAR uni0004
ENCODING 4
SWIDTH 500 0
DWIDTH 12 0
BBX 12 24 0 -4
BITMAP
0000
0000
0000
0000
0200
0200
0700
0700
0F80
0F80
1FC0
1FC0
0F80
0F80
0700
0700
0200
0200
0000
0000
0000
0000
0000
0000
ENDCHAR
STARTCHAR uni0005
ENCODING 5
SWIDTH 500 0
DWIDTH 12 0
BBX 12 24 0 -4
BITMAP
0000
0000
0000
0000
0700
0F80
0F80
0F80
0700
3AE0
7FF0
7FF0
7FF0
3AE0
0200
0200
0700
1FC0
0000
0000
0000
0000
0000
0000
ENDCHAR
STARTCHAR uni0006
ENCODING 6
SWIDTH 500 0
DWIDTH 12 0
BBX 12 24 0 -4
BITMAP
0000
0000
0000
0000
0200
0700
0F80
1FC0
3FE0
3FE0
7FF0
7FF0
7FF0
3AE0
0200
0200
0700
1FC0
0000
0000
0000
0000
0000
0000
ENDCHAR
STARTCHAR uni0007
ENCODING 7
SWIDTH 500 0
DWIDTH 12 0
BBX 12 24 0 -4
BITMAP
0000
0000
0000
0000
0000
0000
0000
0000
0600
1F80
1F80
3FC0
3FC0
1F80
1F80
0600
0000
0000
0000
0000
0000
0000
0000
0000
ENDCHAR
STARTCHAR uni0008
ENCODING 8
SWIDTH 500 0
DWIDTH 12 0
BBX 12 24 0 -4
BITMAP
FFF0
FFF0
FFF0
FFF0
FFF0
FFF0
FFF0
FFF0
F9F0
E070
E070
C030
C030
E070
E070
F9F0
FFF0
FFF0
FFF0
FFF0
FFF0
FFF0
FFF0
FFF0
ENDCHAR
STARTCHAR uni0009
ENCODING 9
SWIDTH 500 0
DWIDTH 12 0
BBX 12 24 0 -4
BITMAP
0000
0000
0000
0000
0000
0000
0000
0F00
39C0
2040
6060
4020
4020
6060
2040
39C0
0F00
0000
0000
0000
0000
0000
0000
0000
ENDCHAR
STARTCHAR uni000A
ENCODING 10
SWIDTH 500 0
DWIDTH 12 0
BBX 12 24 0 -4
BITMAP
FFF0
FFF0
FFF0
FFF0
FFF0
FFF0
FFF0
F0F0
C630
DFB0
9F90
BFD0
BFD0
9F90
DFB0
C630
F0F0
FFF0
FFF0
FFF0
FFF0
FFF0
FFF0
FFF0
ENDCHAR
STARTCHAR uni000B
ENCODING 11
SWIDTH 500 0
DWIDTH 12 0
BBX 12 24 0 -4
BITMAP
0000
03F0
0070
00F0
00D0
0190
0190
0F00
1980
30C0
30C0
6060
6060
6060
6060
6060
30C0
30C0
1980
0F00
0000
0000
0000
0000
ENDCHAR
STARTCHAR uni000C
ENCODING 12
SWIDTH 500 0
DWIDTH 12 0
BBX 12 24 0 -4
BITMAP
0000
0780
0CC0
1860
1860
3030
3030
3030
3030
3030
1860
1860
0CC0
0780
0300
0300
3FF0
0300
0300
0300
0000
0000
0000
0000
ENDCHAR
STARTCHAR uni000D
ENCODING 13
SWIDTH 500 0
DWIDTH 12 0
BBX 12 24 0 -4
BITMAP
0000
0400
0400
0600
0600
0700
0780
05C0
04C0
0460
0460
0420
0420
0420
0460
0440
0480
1C00
3C00
7C00
7800
3000
0000
0000
ENDCHAR
STARTCHAR uni000E
ENCODING 14
SWIDTH 500 0
DWIDTH 12 0
BBX 12 24 0 -4
BITMAP
0000
0C00
0F80
09E0
0C60
0F20
0BE0
08E0
0820
0820
0820
0820
0820
0820
0820
3820
7820
F8E0
F1E0
63E0
03C0
0180
0000
0000
ENDCHAR
STARTCHAR uni000F
ENCODING 15
SWIDTH 500 0
DWIDTH 12 0
BBX 12 24 0 -4
BITMAP
0000
0000
0000
2640
6660
36C0
36C0
1F80
1F80
1980
1980
F9F0
F9F0
1980
1980
1980
1F80
36C0
36C0
6660
2640
0000
0000
0000
ENDCHAR
STARTCHAR uni0010
ENCODING 16
SWIDTH 500 0
DWIDTH 12 0
BBX 12 24 0 -4
BITMAP
0000
0000
0000
4000
6000
7000
7800
7C00
7E00
7F00
7FC0
7FF0
7FC0
7F00
7E00
7C00
7800
7000
6000
4000
0000
0000
0000
0000
ENDCHAR
STARTCHAR uni0011
ENCODING 17
SWIDTH 500 0
DWIDTH 12 0
BBX 12 24 0 -4
BITMAP
0000
0000
0000
0010
0030
0070
00F0
01F0
03F0
07F0
1FF0
7FF0
1FF0
07F0
03F0
01F0
00F0
0070
0030
0010
0000
0000
0000
0000
ENDCHAR
STARTCHAR uni0012
ENCODING 18
SWIDTH 500 0
DWIDTH 12 0
BBX 12 24 0 -4
BITMAP
0000
0000
0600
0F00
1F80
36C0
2640
0600
0600
0600
0600
0600
0600
0600
0600
0600
0600
2640
36C0
1F80
0F00
0600
0000
0000
ENDCHAR
STARTCHAR uni0013
ENCODING 19
SWIDTH 500 0
DWIDTH 12 0
BBX 12 24 0 -4
BITMAP
0000
1040
38E0
38E0
38E0
38E0
38E0
38E0
38E0
1040
1040
1040
1040
1040
1040
0000
0000
0000
18C0
3DE0
3DE0
18C0
0000
0000
ENDCHAR
STARTCHAR uni0014
ENCODING 20
SWIDTH 500 0
DWIDTH 12 0
BBX 12 24 0 -4
BITMAP
0000
0FF0
3E40
7E40
7E40
7E40
7E40
7E40
3E40
1E40
0240
0240
0240
0240
0240
0240
0240
0240
0240
0240
0000
0000
0000
0000
ENDCHAR
STARTCHAR uni0015
ENCODING 21
SWIDTH 500 0
DWIDTH 12 0
BBX 12 24 0 -4
BITMAP
0000
0F80
18C0
3060
30E0
30E0
1840
0C00
1F00
3180
30C0
3060
1860
0C60
07C0
0180
10C0
3860
3860
3060
18C0
0F80
0000
0000
ENDCHAR
STARTCHAR uni0016
ENCODING 22
SWIDTH 500 0
DWIDTH 12 0
BBX 12 24 0 -4
BITMAP
0000
0000
0000
0000
0000
0000
0000
0000
0000
0000
0000
0000
0000
3FF0
3FF0
3FF0
3FF0
3FF0
3FF0
0000
0000
0000
0000
0000
ENDCHAR
STARTCHAR uni0017
ENCODING 23
SWIDTH 500 0
DWIDTH 12 0
BBX 12 24 0 -4
BITMAP
0000
0000
0600
0F00
1F80
36C0
2640
0600
0600
0600
0600
0600
0600
0600
0600
0600
2640
36C0
1F80
0F00
0600
3FC0
0000
0000
ENDCHAR
STARTCHAR uni0018
ENCODING 24
SWIDTH 500 0
DWIDTH 12 0
BBX 12 24 0 -4
BITMAP
0000
0000
0600
0F00
1F80
36C0
0600
0600
0600
0600
0600
0600
0600
0600
0600
0600
0600
0600
0600
0600
0600
0600
0000
0000
ENDCHAR
STARTCHAR uni0019
ENCODING 25
SWIDTH 500 0
DWIDTH 12 0
BBX 12 24 0 -4
BITMAP
0000
0000
0600
0600
0600
0600
0600
0600
0600
0600
0600
0600
0600
0600
0600
0600
0600
0600
36C0
1F80
0F00
0600
0000
0000
ENDCHAR
STARTCHAR uni001A
ENCODING 26
SWIDTH 500 0
DWIDTH 12 0
BBX 12 24 0 -4
BITMAP
0000
0000
0000
0000
0000
0000
0000
0000
0080
00C0
0060
FFF0
FFF0
0060
00C0
0080
0000
0000
0000
0000
0000
0000
0000
0000
ENDCHAR
STARTCHAR uni001B
ENCODING 27
SWIDTH 500 0
DWIDTH 12 0
BBX 12 24 0 -4
BITMAP
0000
0000
0000
0000
0000
0000
0000
0000
1000
3000
6000
FFF0
FFF0
6000
3000
1000
0000
0000
0000
0000
0000
0000
0000
0000
ENDCHAR
STARTCHAR uni001C
ENCODING 28
SWIDTH 500 0
DWIDTH 12 0
BBX 12 24 0 -4
BITMAP
0000
0000
0000
0000
0000
0000
0000
2000
2000
2000
2000
2000
2000
2000
2000
3FF0
0000
0000
0000
0000
0000
0000
0000
0000
ENDCHAR
STARTCHAR uni001D
ENCODING 29
SWIDTH 500 0
DWIDTH 12 0
BBX 12 24 0 -4
BITMAP
0000
0000
0000
0000
0000
0000
0000
0000
1080
30C0
6060
FFF0
FFF0
6060
30C0
1080
0000
0000
0000
0000
0000
0000
0000
0000
ENDCHAR
STARTCHAR uni001E
ENCODING 30
SWIDTH 500 0
DWIDTH 12 0
BBX 12 24 0 -4
BITMAP
0000
0000
0000
0000
0000
0000
0200
0200
0700
0700
0F80
0F80
1FC0
1FC0
1FC0
3FE0
3FE0
3FE0
0000
0000
0000
0000
0000
0000
ENDCHAR
STARTCHAR uni001F
ENCODING 31
SWIDTH 500 0
DWIDTH 12 0
BBX 12 24 0 -4
BITMAP
0000
0000
0000
0000
0000
0000
3FE0
3FE0
3FE0
1FC0
1FC0
1FC0
0F80
0F80
0700
0700
0200
0200
0000
0000
0000
0000
0000
0000
ENDCHAR
STARTCHAR space
ENCODING 32
SWIDTH 500 0
DWIDTH 12 0
BBX 12 24 0 -4
BITMAP
0000
0000
0000
0000
0000
0000
0000
0000
0000
0000
0000
0000
0000
0000
0000
0000
0000
0000
0000
0000
0000
0000
0000
0000
ENDCHAR
STARTCHAR exclam
ENCODING 33
SWIDTH 500 0
DWIDTH 12 0
BBX 12 24 0 -4
BITMAP
0000
0200
0700
0700
0700
0700
0700
0700
0700
0200
0200
0200
0200
0200
0200
0000
0000
0000
0300
0780
0780
0300
0000
0000
ENDCHAR
STARTCHAR quotedbl
ENCODING 34
SWIDTH 500 0
DWIDTH 12 0
BBX 12 24 0 -4
BITMAP
0C60
0E70
1CE0
18C0
3180
2100
0000
0000
0000
0000
0000
0000
0000
0000
0000
0000
0000
0000
0000
0000
0000
0000
0000
0000
ENDCHAR
STARTCHAR numbersign
ENCODING 35
SWIDTH 500 0
DWIDTH 12 0
BBX 12 24 0 -4
BITMAP
0000
0440
0440
0440
0440
3FF0
3FF0
0880
0880
0880
0880
0880
0880
0880
7FE0
7FE0
1100
1100
1100
1100
1100
0000
0000
0000
ENDCHAR
STARTCHAR dollar
ENCODING 36
SWIDTH 500 0
DWIDTH 12 0
BBX 12 24 0 -4
BITMAP
0200
0200
0F80
1AC0
3260
3260
3260
3200
1A00
1E00
0F80
03E0
0260
0230
3230
3230
3230
3230
1A60
0FC0
0200
0200
0000
0000
ENDCHAR
STARTCHAR percent
ENCODING 37
SWIDTH 500 0
DWIDTH 12 0
BBX 12 24 0 -4
BITMAP
0020
3C20
6660
6640
66C0
6680
6680
6580
3900
0300
0200
0600
04E0
0530
0F30
0B30
1B30
1330
3330
21E0
2000
0000
0000
0000
ENDCHAR
STARTCHAR ampersand
ENCODING 38
SWIDTH 500 0
DWIDTH 12 0
BBX 12 24 0 -4
BITMAP
0000
0F00
1980
1980
1980
1980
1980
1900
0B00
0E00
1CE0
3440
3440
6640
62C0
6380
6380
6190
33F0
1E60
0000
0000
0000
0000
ENDCHAR
STARTCHAR quotesingle
ENCODING 39
SWIDTH 500 0
DWIDTH 12 0
BBX 12 24 0 -4
BITMAP
0300
0780
0780
0380
0180
0300
0600
0000
0000
0000
0000
0000
0000
0000
0000
0000
0000
0000
0000
0000
0000
0000
0000
0000
ENDCHAR
STARTCHAR parenleft
ENCODING 40
SWIDTH 500 0
DWIDTH 12 0
BBX 12 24 0 -4
BITMAP
0040
00C0
0180
0300
0300
0600
0600
0600
0C00
0C00
0C00
0C00
0C00
0C00
0C00
0600
0600
0600
0300
0300
0180
00C0
0040
0000
ENDCHAR
STARTCHAR parenright
ENCODING 41
SWIDTH 500 0
DWIDTH 12 0
BBX 12 24 0 -4
BITMAP
1000
1800
0C00
0600
0600
0300
0300
0300
0180
0180
0180
0180
0180
0180
0180
0300
0300
0300
0600
0600
0C00
1800
1000
0000
ENDCHAR
STARTCHAR asterisk
ENCODING 42
SWIDTH 500 0
DWIDTH 12 0
BBX 12 24 0 -4
BITMAP
0000
0000
0000
0000
0200
0700
2720
7270
3AE0
0F80
0200
0F80
3AE0
7270
2720
0700
0200
0000
0000
0000
0000
0000
0000
0000
ENDCHAR
STARTCHAR plus
ENCODING 43
SWIDTH 500 0
DWIDTH 12 0
BBX 12 24 0 -4
BITMAP
0000
0000
0000
0000
0000
0000
0200
0200
0200
0200
3FE0
0200
0200
0200
0200
0200
0000
0000
0000
0000
0000
0000
0000
0000
ENDCHAR
STARTCHAR comma
ENCODING 44
SWIDTH 500 0
DWIDTH 12 0
BBX 12 24 0 -4
BITMAP
0000
0000
0000
0000
0000
0000
0000
0000
0000
0000
0000
0000
0000
0000
0000
0000
0300
0780
0780
0380
0180
0300
0600
0000
ENDCHAR
STARTCHAR hyphen
ENCODING 45
SWIDTH 500 0
DWIDTH 12 0
BBX 12 24 0 -4
BITMAP
0000
0000
0000
0000
0000
0000
0000
0000
0000
0000
3FE0
0000
0000
0000
0000
0000
0000
0000
0000
0000
0000
0000
0000
0000
ENDCHAR
STARTCHAR period
ENCODING 46
SWIDTH 500 0
DWIDTH 12 0
BBX 12 24 0 -4
BITMAP
0000
0000
0000
0000
0000
0000
0000
0000
0000
0000
0000
0000
0000
0000
0000
0000
0300
0780
0780
0300
0000
0000
0000
0000
ENDCHAR
STARTCHAR slash
ENCODING 47
SWIDTH 500 0
DWIDTH 12 0
BBX 12 24 0 -4
BITMAP
0010
0010
0030
0020
0060
0040
00C0
0080
0180
0100
0300
0200
0600
0400
0C00
0800
1800
1000
3000
2000
6000
4000
0000
0000
ENDCHAR
STARTCHAR zero
ENCODING 48
SWIDTH 500 0
DWIDTH 12 0
BBX 12 24 0 -4
BITMAP
0000
0780
0CC0
1860
1860
3030
3030
3030
3030
3030
3030
3030
3030
3030
3030
3030
1860
1860
0CC0
0780
0000
0000
0000
0000
ENDCHAR
STARTCHAR one
ENCODING 49
SWIDTH 500 0
DWIDTH 12 0
BBX 12 24 0 -4
BITMAP
0000
0100
0700
1F00
0300
0300
0300
0300
0300
0300
0300
0300
0300
0300
0300
0300
0300
0300
0300
1FE0
0000
0000
0000
0000
ENDCHAR
STARTCHAR two
ENCODING 50
SWIDTH 500 0
DWIDTH 12 0
BBX 12 24 0 -4
BITMAP
0000
0F80
18C0
3060
3860
3860
1060
00C0
00C0
0180
0100
0300
0600
0400
0C00
0800
1820
1060
3FC0
3FC0
0000
0000
0000
0000
ENDCHAR
STARTCHAR three
ENCODING 51
SWIDTH 500 0
DWIDTH 12 0
BBX 12 24 0 -4
BITMAP
0000
0F80
18C0
3060
3860
3860
1060
0060
00C0
0180
0780
00C0
0060
0060
1060
3860
3860
3060
18C0
0F80
0000
0000
0000
0000
ENDCHAR
STARTCHAR four
ENCODING 52
SWIDTH 500 0
DWIDTH 12 0
BBX 12 24 0 -4
BITMAP
0000
00C0
01C0
01C0
03C0
02C0
06C0
04C0
0CC0
08C0
18C0
10C0
30C0
20C0
7FF0
00C0
00C0
00C0
00C0
07F0
0000
0000
0000
0000
ENDCHAR
STARTCHAR five
ENCODING 53
SWIDTH 500 0
DWIDTH 12 0
BBX 12 24 0 -4
BITMAP
0000
1FF0
1FE0
1000
1000
1000
1000
1000
1780
1CE0
1060
0030
0030
0030
1030
3830
3830
3060
18E0
0F80
0000
0000
0000
0000
ENDCHAR
STARTCHAR six
ENCODING 54
SWIDTH 500 0
DWIDTH 12 0
BBX 12 24 0 -4
BITMAP
0000
07C0
0C60
1870
1830
3000
3000
3000
37C0
3C60
3860
3030
3030
3030
3030
3030
3030
1860
1CE0
0780
0000
0000
0000
0000
ENDCHAR
STARTCHAR seven
ENCODING 55
SWIDTH 500 0
DWIDTH 12 0
BBX 12 24 0 -4
BITMAP
0000
1FF0
1FF0
3020
2060
2040
00C0
0080
0080
0180
0180
0180
0300
0300
0300
0300
0700
0700
0700
0200
0000
0000
0000
0000
ENDCHAR
STARTCHAR eight
ENCODING 56
SWIDTH 500 0
DWIDTH 12 0
BBX 12 24 0 -4
BITMAP
0000
0780
0CC0
1860
1860
1860
1860
0C40
0EC0
0780
0DC0
18E0
1860
3030
3030
3030
3030
1860
1CE0
0780
0000
0000
0000
0000
ENDCHAR
STARTCHAR nine
ENCODING 57
SWIDTH 500 0
DWIDTH 12 0
BBX 12 24 0 -4
BITMAP
0000
0780
1CE0
1860
3030
3030
3030
3030
3030
3070
18F0
0FB0
0030
0030
1030
3830
3860
3060
18C0
0F80
0000
0000
0000
0000
ENDCHAR
STARTCHAR colon
ENCODING 58
SWIDTH 500 0
DWIDTH 12 0
BBX 12 24 0 -4
BITMAP
0000
0000
0000
0000
0300
0780
0780
0300
0000
0000
0000
0000
0000
0300
0780
0780
0300
0000
0000
0000
0000
0000
0000
0000
ENDCHAR
STARTCHAR semicolon
ENCODING 59
SWIDTH 500 0
DWIDTH 12 0
BBX 12 24 0 -4
BITMAP
0000
0000
0000
0000
0300
0780
0780
0300
0000
0000
0000
0000
0000
0300
0780
0780
0380
0180
0300
0600
0000
0000
0000
0000
ENDCHAR
STARTCHAR less
ENCODING 60
SWIDTH 500 0
DWIDTH 12 0
BBX 12 24 0 -4
BITMAP
0000
0000
0000
0060
00C0
0180
0300
0600
0C00
1800
3000
1800
0C00
0600
0300
0180
00C0
0060
0000
0000
0000
0000
0000
0000
ENDCHAR
STARTCHAR equal
ENCODING 61
SWIDTH 500 0
DWIDTH 12 0
BBX 12 24 0 -4
BITMAP
0000
0000
0000
0000
0000
0000
0000
0000
3FF0
0000
0000
0000
0000
3FF0
0000
0000
0000
0000
0000
0000
0000
0000
0000
0000
ENDCHAR
STARTCHAR greater
ENCODING 62
SWIDTH 500 0
DWIDTH 12 0
BBX 12 24 0 -4
BITMAP
0000
0000
0000
3000
1800
0C00
0600
0300
0180
00C0
0060
00C0
0180
0300
0600
0C00
1800
3000
0000
0000
0000
0000
0000
0000
ENDCHAR
STARTCHAR question
ENCODING 63
SWIDTH 500 0
DWIDTH 12 0
BBX 12 24 0 -4
BITMAP
0000
0FC0
1860
3030
3030
3830
3870
1060
00C0
0180
0100
0300
0200
0200
0200
0000
0000
0000
0300
0780
0780
0300
0000
0000
ENDCHAR
STARTCHAR at
ENCODING 64
SWIDTH 500 0
DWIDTH 12 0
BBX 12 24 0 -4
BITMAP
0000
0000
0780
1CE0
3020
3030
6010
6790
6CD0
6CD0
6CD0
6CD0
6CD0
6CD0
6DF0
6760
6000
6010
3030
3860
0FC0
0000
0000
0000
ENDCHAR
STARTCHAR A
ENCODING 65
SWIDTH 500 0
DWIDTH 12 0
BBX 12 24 0 -4
BITMAP
0000
0300
0300
0700
0580
0580
0580
0D80
0980
08C0
08C0
18C0
1FC0
10C0
10C0
3060
2060
2060
2060
78F0
0000
0000
0000
0000
ENDCHAR
STARTCHAR B
ENCODING 66
SWIDTH 500 0
DWIDTH 12 0
BBX 12 24 0 -4
BITMAP
0000
7F80
30C0
3060
3060
3060
3060
3060
3060
30C0
3F80
30E0
3070
3030
3030
3030
3030
3030
3060
7FC0
0000
0000
0000
0000
ENDCHAR
STARTCHAR C
ENCODING 67
SWIDTH 500 0
DWIDTH 12 0
BBX 12 24 0 -4
BITMAP
0000
07A0
1CE0
3060
3020
6020
6000
6000
6000
6000
6000
6000
6000
6000
6000
6010
3030
3020
1CE0
0780
0000
0000
0000
0000
ENDCHAR
STARTCHAR D
ENCODING 68
SWIDTH 500 0
DWIDTH 12 0
BBX 12 24 0 -4
BITMAP
0000
7F00
31C0
3060
3060
3030
3030
3030
3030
3030
3030
3030
3030
3030
3030
3030
3060
3060
31C0
7F00
0000
0000
0000
0000
ENDCHAR
STARTCHAR E
ENCODING 69
SWIDTH 500 0
DWIDTH 12 0
BBX 12 24 0 -4
BITMAP
0000
7FF0
1830
1810
1810
1800
1800
1840
1840
18C0
1FC0
18C0
1840
1840
1800
1800
1810
1810
1830
7FF0
0000
0000
0000
0000
ENDCHAR
STARTCHAR F
ENCODING 70
SWIDTH 500 0
DWIDTH 12 0
BBX 12 24 0 -4
BITMAP
0000
7FF0
1830
1810
1810
1800
1800
1840
1840
18C0
1FC0
18C0
1840
1840
1800
1800
1800
1800
1800
7E00
0000
0000
0000
0000
ENDCHAR
STARTCHAR G
ENCODING 71
SWIDTH 500 0
DWIDTH 12 0
BBX 12 24 0 -4
BITMAP
0000
07A0
1CE0
3060
3020
6020
6000
6000
6000
6000
6000
6000
61F0
6060
6060
6060
3060
3060
1CE0
0780
0000
0000
0000
0000
ENDCHAR
STARTCHAR H
ENCODING 72
SWIDTH 500 0
DWIDTH 12 0
BBX 12 24 0 -4
BITMAP
0000
78F0
3060
3060
3060
3060
3060
3060
3060
3060
3FE0
3060
3060
3060
3060
3060
3060
3060
3060
78F0
0000
0000
0000
0000
ENDCHAR
STARTCHAR I
ENCODING 73
SWIDTH 500 0
DWIDTH 12 0
BBX 12 24 0 -4
BITMAP
0000
1FE0
0300
0300
0300
0300
0300
0300
0300
0300
0300
0300
0300
0300
0300
0300
0300
0300
0300
1FE0
0000
0000
0000
0000
ENDCHAR
STARTCHAR J
ENCODING 74
SWIDTH 500 0
DWIDTH 12 0
BBX 12 24 0 -4
BITMAP
0000
0FF0
0180
0180
0180
0180
0180
0180
0180
0180
0180
0180
0180
0180
0180
0180
0180
2180
7180
7180
3300
1E00
0000
0000
ENDCHAR
STARTCHAR K
ENCODING 75
SWIDTH 500 0
DWIDTH 12 0
BBX 12 24 0 -4
BITMAP
0000
79F0
3060
3040
30C0
3180
3100
3300
3600
3600
3E00
3B00
3300
3180
3180
30C0
30C0
3060
3060
78F0
0000
0000
0000
0000
ENDCHAR
STARTCHAR L
ENCODING 76
SWIDTH 500 0
DWIDTH 12 0
BBX 12 24 0 -4
BITMAP
0000
7E00
1800
1800
1800
1800
1800
1800
1800
1800
1800
1800
1800
1800
1800
1800
1810
1810
1830
7FF0
0000
0000
0000
0000
ENDCHAR
STARTCHAR M
ENCODING 77
SWIDTH 500 0
DWIDTH 12 0
BBX 12 24 0 -4
BITMAP
0000
7070
3060
3060
38E0
38E0
38E0
38E0
2D60
2D60
2D60
2D60
2760
2760
2660
2660
2260
2260
2260
72F0
0000
0000
0000
0000
ENDCHAR
STARTCHAR N
ENCODING 78
SWIDTH 500 0
DWIDTH 12 0
BBX 12 24 0 -4
BITMAP
0000
7070
3020
3820
3820
2C20
2C20
2620
2620
2620
2320
2320
21A0
21A0
20E0
20E0
2060
2060
2060
7020
0000
0000
0000
0000
ENDCHAR
STARTCHAR O
ENCODING 79
SWIDTH 500 0
DWIDTH 12 0
BBX 12 24 0 -4
BITMAP
0000
0F80
18C0
3060
3060
6030
6030
6030
6030
6030
6030
6030
6030
6030
6030
6030
3060
3060
18C0
0F80
0000
0000
0000
0000
ENDCHAR
STARTCHAR P
ENCODING 80
SWIDTH 500 0
DWIDTH 12 0
BBX 12 24 0 -4
BITMAP
0000
7F80
30E0
3060
3030
3030
3030
3030
3060
30E0
3F80
3000
3000
3000
3000
3000
3000
3000
3000
7800
0000
0000
0000
0000
ENDCHAR
STARTCHAR Q
ENCODING 81
SWIDTH 500 0
DWIDTH 12 0
BBX 12 24 0 -4
BITMAP
0000
0F80
18C0
3060
3060
6030
6030
6030
6030
6030
6030
6030
6030
6030
6F30
79B0
30E0
30E0
1840
0FD0
00F0
0060
0000
0000
ENDCHAR
STARTCHAR R
ENCODING 82
SWIDTH 500 0
DWIDTH 12 0
BBX 12 24 0 -4
BITMAP
0000
7F80
30E0
3060
3030
3030
3030
3030
3060
30E0
3F80
3300
3180
3180
30C0
30C0
30C0
3060
3060
7870
0000
0000
0000
0000
ENDCHAR
STARTCHAR S
ENCODING 83
SWIDTH 500 0
DWIDTH 12 0
BBX 12 24 0 -4
BITMAP
0000
0FA0
18E0
3060
3020
3020
3000
1800
1E00
0F80
03C0
00E0
0060
0030
2030
2030
3030
3830
2C60
27C0
0000
0000
0000
0000
ENDCHAR
STARTCHAR T
ENCODING 84
SWIDTH 500 0
DWIDTH 12 0
BBX 12 24 0 -4
BITMAP
0000
3FF0
3330
2310
2310
0300
0300
0300
0300
0300
0300
0300
0300
0300
0300
0300
0300
0300
0300
0FC0
0000
0000
0000
0000
ENDCHAR
STARTCHAR U
ENCODING 85
SWIDTH 500 0
DWIDTH 12 0
BBX 12 24 0 -4
BITMAP
0000
7870
3020
3020
3020
3020
3020
3020
3020
3020
3020
3020
3020
3020
3020
3020
3060
1840
1CC0
0780
0000
0000
0000
0000
ENDCHAR
STARTCHAR V
ENCODING 86
SWIDTH 500 0
DWIDTH 12 0
BBX 12 24 0 -4
BITMAP
0000
7870
3020
3020
3060
1840
1840
1840
1840
18C0
0C80
0C80
0C80
0D80
0500
0700
0700
0700
0200
0200
0000
0000
0000
0000
ENDCHAR
STARTCHAR W
ENCODING 87
SWIDTH 500 0
DWIDTH 12 0
BBX 12 24 0 -4
BITMAP
0000
7770
3320
3320
3320
3320
3320
3320
3320
3320
3760
1540
1DC0
1DC0
1DC0
1DC0
0880
0880
0880
0880
0000
0000
0000
0000
ENDCHAR
STARTCHAR X
ENCODING 88
SWIDTH 500 0
DWIDTH 12 0
BBX 12 24 0 -4
BITMAP
0000
78F0
3060
3040
18C0
1880
0C80
0D80
0700
0700
0200
0700
0500
0D80
0980
08C0
18C0
1060
3060
78F0
0000
0000
0000
0000
ENDCHAR
STARTCHAR Y
ENCODING 89
SWIDTH 500 0
DWIDTH 12 0
BBX 12 24 0 -4
BITMAP
0000
7870
3020
3020
1860
1840
0C40
0CC0
0C80
0680
0780
0300
0300
0300
0300
0300
0300
0300
0300
0FC0
0000
0000
0000
0000
ENDCHAR
STARTCHAR Z
ENCODING 90
SWIDTH 500 0
DWIDTH 12 0
BBX 12 24 0 -4
BITMAP
0000
3FF0
3030
2060
2060
00C0
00C0
0180
0180
0300
0300
0600
0600
0C00
0C00
1800
1810
3010
3010
7FF0
0000
0000
0000
0000
ENDCHAR
STARTCHAR bracketleft
ENCODING 91
SWIDTH 500 0
DWIDTH 12 0
BBX 12 24 0 -4
BITMAP
1FC0
1000
1000
1000
1000
1000
1000
1000
1000
1000
1000
1000
1000
1000
1000
1000
1000
1000
1000
1000
1000
1000
1FC0
0000
ENDCHAR
STARTCHAR backslash
ENCODING 92
SWIDTH 500 0
DWIDTH 12 0
BBX 12 24 0 -4
BITMAP
4000
4000
6000
2000
3000
1000
1800
0800
0C00
0400
0600
0200
0300
0100
0180
0080
00C0
0040
0060
0020
0030
0010
0000
0000
ENDCHAR
STARTCHAR bracketright
ENCODING 93
SWIDTH 500 0
DWIDTH 12 0
BBX 12 24 0 -4
BITMAP
3F80
0080
0080
0080
0080
0080
0080
0080
0080
0080
0080
0080
0080
0080
0080
0080
0080
0080
0080
0080
0080
0080
3F80
0000
ENDCHAR
STARTCHAR asciicircum
ENCODING 94
SWIDTH 500 0
DWIDTH 12 0
BBX 12 24 0 -4
BITMAP
0700
0F80
18C0
0000
0000
0000
0000
0000
0000
0000
0000
0000
0000
0000
0000
0000
0000
0000
0000
0000
0000
0000
0000
0000
ENDCHAR
STARTCHAR underscore
ENCODING 95
SWIDTH 500 0
DWIDTH 12 0
BBX 12 24 0 -4
BITMAP
0000
0000
0000
0000
0000
0000
0000
0000
0000
0000
0000
0000
0000
0000
0000
0000
0000
0000
0000
0000
0000
0000
0000
FFF0
ENDCHAR
STARTCHAR grave
ENCODING 96
SWIDTH 500 0
DWIDTH 12 0
BBX 12 24 0 -4
BITMAP
1C00
0E00
0300
0080
0000
0000
0000
0000
0000
0000
0000
0000
0000
0000
0000
0000
0000
0000
0000
0000
0000
0000
0000
0000
ENDCHAR
STARTCHAR a
ENCODING 97
SWIDTH 500 0
DWIDTH 12 0
BBX 12 24 0 -4
BITMAP
0000
0000
0000
0000
0000
0000
0000
0000
1F00
3180
30C0
00C0
00C0
1FC0
30C0
60C0
60C0
60D0
31F0
1F60
0000
0000
0000
0000
ENDCHAR
STARTCHAR b
ENCODING 98
SWIDTH 500 0
DWIDTH 12 0
BBX 12 24 0 -4
BITMAP
0000
7000
3000
3000
3000
3000
3000
3000
3780
3CC0
3060
3060
3030
3030
3030
3030
3030
3060
3CE0
2780
0000
0000
0000
0000
ENDCHAR
STARTCHAR c
ENCODING 99
SWIDTH 500 0
DWIDTH 12 0
BBX 12 24 0 -4
BITMAP
0000
0000
0000
0000
0000
0000
0000
0000
07C0
1C60
1830
3030
3000
3000
3000
3000
3010
1830
1C60
07C0
0000
0000
0000
0000
ENDCHAR
STARTCHAR d
ENCODING 100
SWIDTH 500 0
DWIDTH 12 0
BBX 12 24 0 -4
BITMAP
0000
01E0
0060
0060
0060
0060
0060
0060
0F60
19E0
3060
3060
6060
6060
6060
6060
6060
3060
39E0
0F70
0000
0000
0000
0000
ENDCHAR
STARTCHAR e
ENCODING 101
SWIDTH 500 0
DWIDTH 12 0
BBX 12 24 0 -4
BITMAP
0000
0000
0000
0000
0000
0000
0000
0000
0780
1CE0
1020
3030
3030
3FF0
3000
3000
3010
1830
1C60
07C0
0000
0000
0000
0000
ENDCHAR
STARTCHAR f
ENCODING 102
SWIDTH 500 0
DWIDTH 12 0
BBX 12 24 0 -4
BITMAP
0000
01E0
0330
0230
0600
0600
0600
0600
7FE0
0600
0600
0600
0600
0600
0600
0600
0600
0600
0600
3FC0
0000
0000
0000
0000
ENDCHAR
STARTCHAR g
ENCODING 103
SWIDTH 500 0
DWIDTH 12 0
BBX 12 24 0 -4
BITMAP
0000
0000
0000
0000
0000
0000
0000
0F30
19F0
30C0
30C0
30C0
30C0
1980
3F00
3000
1F00
3FE0
70F0
6030
6030
3060
1FC0
0000
ENDCHAR
STARTCHAR h
ENCODING 104
SWIDTH 500 0
DWIDTH 12 0
BBX 12 24 0 -4
BITMAP
0000
7000
3000
3000
3000
3000
3000
3000
3780
3CC0
3860
3060
3060
3060
3060
3060
3060
3060
3060
78F0
0000
0000
0000
0000
ENDCHAR
STARTCHAR i
ENCODING 105
SWIDTH 500 0
DWIDTH 12 0
BBX 12 24 0 -4
BITMAP
0000
0300
0780
0300
0000
0000
0000
0000
0F00
0300
0300
0300
0300
0300
0300
0300
0300
0300
0300
1FE0
0000
0000
0000
0000
ENDCHAR
STARTCHAR j
ENCODING 106
SWIDTH 500 0
DWIDTH 12 0
BBX 12 24 0 -4
BITMAP
0000
0180
03C0
0180
0000
0000
0000
0000
0780
0180
0180
0180
0180
0180
0180
0180
0180
0180
0180
3180
3100
3300
1E00
0000
ENDCHAR
STARTCHAR k
ENCODING 107
SWIDTH 500 0
DWIDTH 12 0
BBX 12 24 0 -4
BITMAP
0000
7000
3000
3000
3000
3000
3000
3000
31E0
30C0
3180
3300
3700
3F00
3980
3180
30C0
30C0
3060
78F0
0000
0000
0000
0000
ENDCHAR
STARTCHAR l
ENCODING 108
SWIDTH 500 0
DWIDTH 12 0
BBX 12 24 0 -4
BITMAP
0000
1F00
0300
0300
0300
0300
0300
0300
0300
0300
0300
0300
0300
0300
0300
0300
0300
0300
0300
1FE0
0000
0000
0000
0000
ENDCHAR
STARTCHAR m
ENCODING 109
SWIDTH 500 0
DWIDTH 12 0
BBX 12 24 0 -4
BITMAP
0000
0000
0000
0000
0000
0000
0000
0000
7760
3BB0
3330
3330
3330
3330
3330
3330
3330
3330
3330
7770
0000
0000
0000
0000
ENDCHAR
STARTCHAR n
ENCODING 110
SWIDTH 500 0
DWIDTH 12 0
BBX 12 24 0 -4
BITMAP
0000
0000
0000
0000
0000
0000
0000
0000
7780
3CC0
3060
3060
3060
3060
3060
3060
3060
3060
3060
78F0
0000
0000
0000
0000
ENDCHAR
STARTCHAR o
ENCODING 111
SWIDTH 500 0
DWIDTH 12 0
BBX 12 24 0 -4
BITMAP
0000
0000
0000
0000
0000
0000
0000
0000
0700
1DC0
3060
3060
6030
6030
6030
6030
3060
3060
1DC0
0700
0000
0000
0000
0000
ENDCHAR
STARTCHAR p
ENCODING 112
SWIDTH 500 0
DWIDTH 12 0
BBX 12 24 0 -4
BITMAP
0000
0000
0000
0000
0000
0000
0000
0000
7780
3CE0
3060
3030
3030
3030
3030
3030
3030
3060
3CE0
3780
3000
3000
7800
0000
ENDCHAR
STARTCHAR q
ENCODING 113
SWIDTH 500 0
DWIDTH 12 0
BBX 12 24 0 -4
BITMAP
0000
0000
0000
0000
0000
0000
0000
0000
0F20
39E0
3060
6060
6060
6060
6060
6060
6060
3060
39E0
0F60
0060
0060
00F0
0000
ENDCHAR
STARTCHAR r
ENCODING 114
SWIDTH 500 0
DWIDTH 12 0
BBX 12 24 0 -4
BITMAP
0000
0000
0000
0000
0000
0000
0000
0000
3CE0
0DB0
0E30
0C00
0C00
0C00
0C00
0C00
0C00
0C00
0C00
3F00
0000
0000
0000
0000
ENDCHAR
STARTCHAR s
ENCODING 115
SWIDTH 500 0
DWIDTH 12 0
BBX 12 24 0 -4
BITMAP
0000
0000
0000
0000
0000
0000
0000
0000
0FA0
18E0
3060
3020
3800
1F00
07E0
00F0
2030
3030
3860
2FC0
0000
0000
0000
0000
ENDCHAR
STARTCHAR t
ENCODING 116
SWIDTH 500 0
DWIDTH 12 0
BBX 12 24 0 -4
BITMAP
0000
0000
0000
0000
0200
0200
0600
0E00
3FE0
0600
0600
0600
0600
0600
0600
0600
0600
0610
0330
01E0
0000
0000
0000
0000
ENDCHAR
STARTCHAR u
ENCODING 117
SWIDTH 500 0
DWIDTH 12 0
BBX 12 24 0 -4
BITMAP
0000
0000
0000
0000
0000
0000
0000
0000
70E0
3060
3060
3060
3060
3060
3060
3060
3060
3060
19E0
0F70
0000
0000
0000
0000
ENDCHAR
STARTCHAR v
ENCODING 118
SWIDTH 500 0
DWIDTH 12 0
BBX 12 24 0 -4
BITMAP
0000
0000
0000
0000
0000
0000
0000
0000
7C70
3020
3020
1860
1840
0C40
0CC0
0C80
0680
0780
0300
0300
0000
0000
0000
0000
ENDCHAR
STARTCHAR w
ENCODING 119
SWIDTH 500 0
DWIDTH 12 0
BBX 12 24 0 -4
BITMAP
0000
0000
0000
0000
0000
0000
0000
0000
7770
3320
3320
3320
3320
3320
3760
1540
1DC0
1DC0
0880
0880
0000
0000
0000
0000
ENDCHAR
STARTCHAR x
ENCODING 120
SWIDTH 500 0
DWIDTH 12 0
BBX 12 24 0 -4
BITMAP
0000
0000
0000
0000
0000
0000
0000
0000
7CF0
3060
18C0
1C80
0D80
0700
0700
0D80
09C0
18C0
3060
78F0
0000
0000
0000
0000
ENDCHAR
STARTCHAR y
ENCODING 121
SWIDTH 500 0
DWIDTH 12 0
BBX 12 24 0 -4
BITMAP
0000
0000
0000
0000
0000
0000
0000
0000
7870
3020
3020
1860
1840
1840
0CC0
0C80
0680
0780
0700
0300
6200
6600
3C00
0000
ENDCHAR
STARTCHAR z
ENCODING 122
SWIDTH 500 0
DWIDTH 12 0
BBX 12 24 0 -4
BITMAP
0000
0000
0000
0000
0000
0000
0000
0000
3FE0
3060
20C0
21C0
0380
0300
0600
0E00
1C20
1820
3060
3FE0
0000
0000
0000
0000
ENDCHAR
STARTCHAR braceleft
ENCODING 123
SWIDTH 500 0
DWIDTH 12 0
BBX 12 24 0 -4
BITMAP
00C0
0180
0180
0300
0300
0300
0300
0300
0300
0200
0600
0C00
0600
0200
0300
0300
0300
0300
0300
0300
0180
0180
00C0
0000
ENDCHAR
STARTCHAR bar
ENCODING 124
SWIDTH 500 0
DWIDTH 12 0
BBX 12 24 0 -4
BITMAP
0200
0200
0200
0200
0200
0200
0200
0200
0200
0200
0200
0200
0200
0200
0200
0200
0200
0200
0200
0200
0200
0200
0200
0200
ENDCHAR
STARTCHAR braceright
ENCODING 125
SWIDTH 500 0
DWIDTH 12 0
BBX 12 24 0 -4
BITMAP
1800
0C00
0C00
0600
0600
0600
0600
0600
0600
0200
0300
0180
0300
0200
0600
0600
0600
0600
0600
0600
0C00
0C00
1800
0000
ENDCHAR
STARTCHAR asciitilde
ENCODING 126
SWIDTH 500 0
DWIDTH 12 0
BBX 12 24 0 -4
BITMAP
1820
3E60
67C0
4180
0000
0000
0000
0000
0000
0000
0000
0000
0000
0000
0000
0000
0000
0000
0000
0000
0000
0000
0000
0000
ENDCHAR
STARTCHAR uni007F
ENCODING 127
SWIDTH 500 0
DWIDTH 12 0
BBX 12 24 0 -4
BITMAP
0000
0000
0000
0000
0000
0200
0200
0700
0500
0D80
0880
18C0
1040
3060
2020
2020
2020
3FE0
0000
0000
0000
0000
0000
0000
ENDCHAR
STARTCHAR uni00A0
ENCODING 160
SWIDTH 500 0
DWIDTH 12 0
BBX 12 24 0 -4
BITMAP
0000
0000
0000
0000
0000
0000
0000
0000
0000
0000
0000
0000
0000
0000
0000
0000
0000
0000
0000
0000
0000
0000
0000
0000
ENDCHAR
STARTCHAR exclamdown
ENCODING 161
SWIDTH 500 0
DWIDTH 12 0
BBX 12 24 0 -4
BITMAP
0000
0300
0780
0780
0300
0000
0000
0000
0200
0200
0200
0200
0200
0200
0700
0700
0700
0700
0700
0700
0700
0200
0000
0000
ENDCHAR
STARTCHAR cent
ENCODING 162
SWIDTH 500 0
DWIDTH 12 0
BBX 12 24 0 -4
BITMAP
0000
0000
0000
0000
0000
0100
0100
0100
07C0
1D60
1930
3130
3100
3100
3100
3100
3110
1930
1D60
07C0
0100
0100
0100
0000
ENDCHAR
STARTCHAR sterling
ENCODING 163
SWIDTH 500 0
DWIDTH 12 0
BBX 12 24 0 -4
BITMAP
0000
01C0
0360
0230
0670
0660
0600
0600
0600
3FC0
0C00
0C00
0C00
0C00
0C00
3C00
6600
6610
6F30
39E0
0000
0000
0000
0000
ENDCHAR
STARTCHAR yen
ENCODING 165
SWIDTH 500 0
DWIDTH 12 0
BBX 12 24 0 -4
BITMAP
0000
7870
3020
3020
1860
1840
0C40
0CC0
0C80
7EF0
0780
0300
0300
7FF0
0300
0300
0300
0300
0300
0FC0
0000
0000
0000
0000
ENDCHAR
STARTCHAR section
ENCODING 167
SWIDTH 500 0
DWIDTH 12 0
BBX 12 24 0 -4
BITMAP
0000
0F80
18C0
3060
30E0
30E0
1840
0C00
1F00
3180
30C0
3060
1860
0C60
07C0
0180
10C0
3860
3860
3060
18C0
0F80
0000
0000
ENDCHAR
STARTCHAR ordfeminine
ENCODING 170
SWIDTH 500 0
DWIDTH 12 0
BBX 12 24 0 -4
BITMAP
0000
0F00
1980
18C0
00C0
0FC0
18C0
30C0
30C0
31C0
1F60
0000
3FE0
0000
0000
0000
0000
0000
0000
0000
0000
0000
0000
0000
ENDCHAR
STARTCHAR guillemotleft
ENCODING 171
SWIDTH 500 0
DWIDTH 12 0
BBX 12 24 0 -4
BITMAP
0000
0000
0000
0000
0000
0000
0000
0000
0630
0C60
18C0
3180
6300
3180
18C0
0C60
0630
0000
0000
0000
0000
0000
0000
0000
ENDCHAR
STARTCHAR logicalnot
ENCODING 172
SWIDTH 500 0
DWIDTH 12 0
BBX 12 24 0 -4
BITMAP
0000
0000
0000
0000
0000
0000
0000
0000
3FF0
0010
0010
0010
0010
0010
0010
0010
0010
0000
0000
0000
0000
0000
0000
0000
ENDCHAR
STARTCHAR degree
ENCODING 176
SWIDTH 500 0
DWIDTH 12 0
BBX 12 24 0 -4
BITMAP
0F00
1980
1080
1080
1980
0F00
0000
0000
0000
0000
0000
0000
0000
0000
0000
0000
0000
0000
0000
0000
0000
0000
0000
0000
ENDCHAR
STARTCHAR plusminus
ENCODING 177
SWIDTH 500 0
DWIDTH 12 0
BBX 12 24 0 -4
BITMAP
0000
0000
0000
0000
0000
0000
0200
0200
0200
0200
3FE0
0200
0200
0200
0200
0000
0000
3FE0
0000
0000
0000
0000
0000
0000
ENDCHAR
STARTCHAR uni00B2
ENCODING 178
SWIDTH 500 0
DWIDTH 12 0
BBX 12 24 0 -4
BITMAP
0000
0F00
1980
3180
3300
0300
0600
0C00
1800
1080
3F80
3F00
0000
0000
0000
0000
0000
0000
0000
0000
0000
0000
0000
0000
ENDCHAR
STARTCHAR mu
ENCODING 181
SWIDTH 500 0
DWIDTH 12 0
BBX 12 24 0 -4
BITMAP
0000
0000
0000
0000
0000
0000
0000
0000
38E0
1860
1860
1860
1860
1860
1860
1860
1860
18E0
1DE0
1F70
1800
1800
3000
0000
ENDCHAR
STARTCHAR paragraph
ENCODING 182
SWIDTH 500 0
DWIDTH 12 0
BBX 12 24 0 -4
BITMAP
0000
0FF0
3E40
7E40
7E40
7E40
7E40
7E40
3E40
1E40
0240
0240
0240
0240
0240
0240
0240
0240
0240
0240
0000
0000
0000
0000
ENDCHAR
STARTCHAR periodcentered
ENCODING 183
SWIDTH 500 0
DWIDTH 12 0
BBX 12 24 0 -4
BITMAP
0000
0000
0000
0000
0000
0000
0000
0000
0000
0000
0600
0F00
0F00
0600
0000
0000
0000
0000
0000
0000
0000
0000
0000
0000
ENDCHAR
STARTCHAR ordmasculine
ENCODING 186
SWIDTH 500 0
DWIDTH 12 0
BBX 12 24 0 -4
BITMAP
0000
0F80
18C0
3060
3060
3060
3060
3060
3060
18C0
0F80
0000
3FE0
0000
0000
0000
0000
0000
0000
0000
0000
0000
0000
0000
ENDCHAR
STARTCHAR guillemotright
ENCODING 187
SWIDTH 500 0
DWIDTH 12 0
BBX 12 24 0 -4
BITMAP
0000
0000
0000
0000
0000
0000
0000
0000
6300
3180
18C0
0C60
0630
0C60
18C0
3180
6300
0000
0000
0000
0000
0000
0000
0000
ENDCHAR
STARTCHAR onequarter
ENCODING 188
SWIDTH 500 0
DWIDTH 12 0
BBX 12 24 0 -4
BITMAP
0810
3810
1830
1820
1860
1840
18C0
1880
1980
3D00
0300
0200
0660
04E0
0DE0
0960
1B60
1260
37F0
2060
6060
40F0
0000
0000
ENDCHAR
STARTCHAR onehalf
ENCODING 189
SWIDTH 500 0
DWIDTH 12 0
BBX 12 24 0 -4
BITMAP
0810
3810
1830
1820
1860
1840
18C0
1880
1980
3D00
0300
0200
06E0
05B0
0DB0
0830
1860
1040
30C0
2090
61F0
41E0
0000
0000
ENDCHAR
STARTCHAR questiondown
ENCODING 191
SWIDTH 500 0
DWIDTH 12 0
BBX 12 24 0 -4
BITMAP
0000
0300
0780
0780
0300
0000
0000
0000
0100
0100
0100
0300
0200
0600
0C00
1820
3870
3070
3030
3030
1860
0FC0
0000
0000
ENDCHAR
STARTCHAR Adieresis
ENCODING 196
SWIDTH 500 0
DWIDTH 12 0
BBX 12 24 0 -4
BITMAP
1860
3CF0
1860
0000
0300
0300
0700
0580
0580
0D80
0980
08C0
18C0
1FC0
10C0
10C0
3060
2060
2060
78F0
0000
0000
0000
0000
ENDCHAR
STARTCHAR Aring
ENCODING 197
SWIDTH 500 0
DWIDTH 12 0
BBX 12 24 0 -4
BITMAP
0700
0D80
0880
0D80
0700
0300
0700
0580
0580
0D80
0980
08C0
18C0
1FC0
10C0
10C0
3060
2060
2060
78F0
0000
0000
0000
0000
ENDCHAR
STARTCHAR AE
ENCODING 198
SWIDTH 500 0
DWIDTH 12 0
BBX 12 24 0 -4
BITMAP
0000
03F0
0330
0710
0710
0700
0700
0F20
0B20
0B60
0BE0
1B60
1F20
1320
1300
3300
2310
2310
2330
73F0
0000
0000
0000
0000
ENDCHAR
STARTCHAR Ccedilla
ENCODING 199
SWIDTH 500 0
DWIDTH 12 0
BBX 12 24 0 -4
BITMAP
0000
07A0
1CE0
3060
3020
6020
6000
6000
6000
6000
6000
6000
6000
6000
6000
6010
3030
3020
1CE0
0780
01C0
10C0
0F80
0000
ENDCHAR
STARTCHAR Eacute
ENCODING 201
SWIDTH 500 0
DWIDTH 12 0
BBX 12 24 0 -4
BITMAP
00E0
01C0
0300
0000
7FF0
1810
1810
1800
1840
1840
18C0
1FC0
18C0
1840
1840
1800
1810
1810
1830
7FF0
0000
0000
0000
0000
ENDCHAR
STARTCHAR Ntilde
ENCODING 209
SWIDTH 500 0
DWIDTH 12 0
BBX 12 24 0 -4
BITMAP
1820
3E60
67C0
4180
0000
7070
3820
3820
2C20
2C20
2620
2620
2320
2320
21A0
21A0
20E0
20E0
2060
7020
0000
0000
0000
0000
ENDCHAR
STARTCHAR Odieresis
ENCODING 214
SWIDTH 500 0
DWIDTH 12 0
BBX 12 24 0 -4
BITMAP
3060
78F0
3060
0000
0F80
18C0
3060
3060
6030
6030
6030
6030
6030
6030
6030
6030
3060
3060
18C0
0F80
0000
0000
0000
0000
ENDCHAR
STARTCHAR Udieresis
ENCODING 220
SWIDTH 500 0
DWIDTH 12 0
BBX 12 24 0 -4
BITMAP
3060
78F0
3060
0000
7870
3020
3020
3020
3020
3020
3020
3020
3020
3020
3020
3020
3060
1840
1CC0
0780
0000
0000
0000
0000
ENDCHAR
STARTCHAR germandbls
ENCODING 223
SWIDTH 500 0
DWIDTH 12 0
BBX 12 24 0 -4
BITMAP
0000
0E00
1B00
3180
3180
30C0
30C0
30C0
3180
3180
30C0
3060
3030
3030
3030
3030
3060
3460
36C0
3380
3000
3000
3000
0000
ENDCHAR
STARTCHAR agrave
ENCODING 224
SWIDTH 500 0
DWIDTH 12 0
BBX 12 24 0 -4
BITMAP
0000
0000
3800
1C00
0600
0100
0000
0000
1F00
3180
30C0
00C0
00C0
1FC0
30C0
60C0
60C0
60D0
31F0
1F60
0000
0000
0000
0000
ENDCHAR
STARTCHAR aacute
ENCODING 225
SWIDTH 500 0
DWIDTH 12 0
BBX 12 24 0 -4
BITMAP
0000
0180
01C0
0380
0300
0600
0400
0000
1F00
3180
30C0
00C0
00C0
1FC0
30C0
60C0
60C0
60D0
31F0
1F60
0000
0000
0000
0000
ENDCHAR
STARTCHAR acircumflex
ENCODING 226
SWIDTH 500 0
DWIDTH 12 0
BBX 12 24 0 -4
BITMAP
0000
0000
0700
0F80
18C0
0000
0000
0000
1F00
3180
30C0
00C0
00C0
1FC0
30C0
60C0
60C0
60D0
31F0
1F60
0000
0000
0000
0000
ENDCHAR
STARTCHAR adieresis
ENCODING 228
SWIDTH 500 0
DWIDTH 12 0
BBX 12 24 0 -4
BITMAP
0000
0000
30C0
79E0
30C0
0000
0000
0000
1F00
3180
30C0
00C0
00C0
1FC0
30C0
60C0
60C0
60D0
31F0
1F60
0000
0000
0000
0000
ENDCHAR
STARTCHAR aring
ENCODING 229
SWIDTH 500 0
DWIDTH 12 0
BBX 12 24 0 -4
BITMAP
0000
0000
0700
0D80
0880
0D80
0700
0000
1F00
3180
30C0
00C0
00C0
1FC0
30C0
60C0
60C0
60D0
31F0
1F60
0000
0000
0000
0000
ENDCHAR
STARTCHAR ae
ENCODING 230
SWIDTH 500 0
DWIDTH 12 0
BBX 12 24 0 -4
BITMAP
0000
0000
0000
0000
0000
0000
0000
0000
1DC0
3760
3330
0330
0330
1FF0
3300
6300
6300
6310
37B0
1CE0
0000
0000
0000
0000
ENDCHAR
STARTCHAR ccedilla
ENCODING 231
SWIDTH 500 0
DWIDTH 12 0
BBX 12 24 0 -4
BITMAP
0000
0000
0000
0000
0000
0000
0000
0000
07C0
1C60
1830
3030
3000
3000
3000
3000
3010
1830
1C60
07C0
0180
08C0
0780
0000
ENDCHAR
STARTCHAR egrave
ENCODING 232
SWIDTH 500 0
DWIDTH 12 0
BBX 12 24 0 -4
BITMAP
0000
0000
3800
1C00
0600
0100
0000
0000
0780
1CE0
1020
3030
3030
3FF0
3000
3000
3010
1830
1C60
07C0
0000
0000
0000
0000
ENDCHAR
STARTCHAR eacute
ENCODING 233
SWIDTH 500 0
DWIDTH 12 0
BBX 12 24 0 -4
BITMAP
0000
00C0
00E0
01C0
0180
0300
0200
0000
0780
1CE0
1020
3030
3030
3FF0
3000
3000
3010
1830
1C60
07C0
0000
0000
0000
0000
ENDCHAR
STARTCHAR ecircumflex
ENCODING 234
SWIDTH 500 0
DWIDTH 12 0
BBX 12 24 0 -4
BITMAP
0000
0000
0380
07C0
0C60
0000
0000
0000
0780
1CE0
1020
3030
3030
3FF0
3000
3000
3010
1830
1C60
07C0
0000
0000
0000
0000
ENDCHAR
STARTCHAR edieresis
ENCODING 235
SWIDTH 500 0
DWIDTH 12 0
BBX 12 24 0 -4
BITMAP
0000
0000
1860
3CF0
1860
0000
0000
0000
0780
1CE0
1020
3030
3030
3FF0
3000
3000
3010
1830
1C60
07C0
0000
0000
0000
0000
ENDCHAR
STARTCHAR igrave
ENCODING 236
SWIDTH 500 0
DWIDTH 12 0
BBX 12 24 0 -4
BITMAP
0000
0000
3800
1C00
0600
0100
0000
0000
0F00
0300
0300
0300
0300
0300
0300
0300
0300
0300
0300
1FE0
0000
0000
0000
0000
ENDCHAR
STARTCHAR iacute
ENCODING 237
SWIDTH 500 0
DWIDTH 12 0
BBX 12 24 0 -4
BITMAP
0000
0180
01C0
0380
0300
0600
0400
0000
0F00
0300
0300
0300
0300
0300
0300
0300
0300
0300
0300
1FE0
0000
0000
0000
0000
ENDCHAR
STARTCHAR icircumflex
ENCODING 238
SWIDTH 500 0
DWIDTH 12 0
BBX 12 24 0 -4
BITMAP
0000
0000
0700
0F80
18C0
0000
0000
0000
0F00
0300
0300
0300
0300
0300
0300
0300
0300
0300
0300
1FE0
0000
0000
0000
0000
ENDCHAR
STARTCHAR idieresis
ENCODING 239
SWIDTH 500 0
DWIDTH 12 0
BBX 12 24 0 -4
BITMAP
0000
0000
1860
3CF0
1860
0000
0000
0000
0F00
0300
0300
0300
0300
0300
0300
0300
0300
0300
0300
1FE0
0000
0000
0000
0000
ENDCHAR
STARTCHAR ntilde
ENCODING 241
SWIDTH 500 0
DWIDTH 12 0
BBX 12 24 0 -4
BITMAP
0000
0000
1820
3E60
67C0
4180
0000
0000
7780
3CC0
3060
3060
3060
3060
3060
3060
3060
3060
3060
78F0
0000
0000
0000
0000
ENDCHAR
STARTCHAR ograve
ENCODING 242
SWIDTH 500 0
DWIDTH 12 0
BBX 12 24 0 -4
BITMAP
0000
0000
3800
1C00
0600
0100
0000
0000
0700
1DC0
3060
3060
6030
6030
6030
6030
3060
3060
1DC0
0700
0000
0000
0000
0000
ENDCHAR
STARTCHAR oacute
ENCODING 243
SWIDTH 500 0
DWIDTH 12 0
BBX 12 24 0 -4
BITMAP
0000
0180
01C0
0380
0300
0600
0400
0000
0700
1DC0
3060
3060
6030
6030
6030
6030
3060
3060
1DC0
0700
0000
0000
0000
0000
ENDCHAR
STARTCHAR ocircumflex
ENCODING 244
SWIDTH 500 0
DWIDTH 12 0
BBX 12 24 0 -4
BITMAP
0000
0000
0700
0F80
18C0
0000
0000
0000
0700
1DC0
3060
3060
6030
6030
6030
6030
3060
3060
1DC0
0700
0000
0000
0000
0000
ENDCHAR
STARTCHAR odieresis
ENCODING 246
SWIDTH 500 0
DWIDTH 12 0
BBX 12 24 0 -4
BITMAP
0000
0000
1860
3CF0
1860
0000
0000
0000
0700
1DC0
3060
3060
6030
6030
6030
6030
3060
3060
1DC0
0700
0000
0000
0000
0000
ENDCHAR
STARTCHAR divide
ENCODING 247
SWIDTH 500 0
DWIDTH 12 0
BBX 12 24 0 -4
BITMAP
0000
0000
0000
0000
0000
0300
0780
0780
0300
0000
0000
3FF0
0000
0000
0300
0780
0780
0300
0000
0000
0000
0000
0000
0000
ENDCHAR
STARTCHAR ugrave
ENCODING 249
SWIDTH 500 0
DWIDTH 12 0
BBX 12 24 0 -4
BITMAP
0000
0000
3800
1C00
0600
0100
0000
0000
70E0
3060
3060
3060
3060
3060
3060
3060
3060
3060
19E0
0F70
0000
0000
0000
0000
ENDCHAR
STARTCHAR uacute
ENCODING 250
SWIDTH 500 0
DWIDTH 12 0
BBX 12 24 0 -4
BITMAP
0000
0180
01C0
0380
0300
0600
0400
0000
70E0
3060
3060
3060
3060
3060
3060
3060
3060
3060
19E0
0F70
0000
0000
0000
0000
ENDCHAR
STARTCHAR ucircumflex
ENCODING 251
SWIDTH 500 0
DWIDTH 12 0
BBX 12 24 0 -4
BITMAP
0000
0000
0700
0F80
18C0
0000
0000
0000
70E0
3060
3060
3060
3060
3060
3060
3060
3060
3060
19E0
0F70
0000
0000
0000
0000
ENDCHAR
STARTCHAR udieresis
ENCODING 252
SWIDTH 500 0
DWIDTH 12 0
BBX 12 24 0 -4
BITMAP
0000
0000
30C0
79E0
30C0
0000
0000
0000
70E0
3060
3060
3060
3060
3060
3060
3060
3060
3060
19E0
0F70
0000
0000
0000
0000
ENDCHAR
STARTCHAR ydieresis
ENCODING 255
SWIDTH 500 0
DWIDTH 12 0
BBX 12 24 0 -4
BITMAP
0000
0000
1860
3CF0
1860
0000
0000
0000
7870
3020
3020
1860
1840
1840
0CC0
0C80
0680
0780
0700
0300
6200
6600
3C00
0000
ENDCHAR
STARTCHAR florin
ENCODING 402
SWIDTH 500 0
DWIDTH 12 0
BBX 12 24 0 -4
BITMAP
0000
00E0
01B0
0130
0300
0300
0300
0300
0300
3FE0
0600
0600
0600
0600
0600
0600
0600
6400
6C00
3800
0000
0000
0000
0000
ENDCHAR
STARTCHAR Gamma
ENCODING 915
SWIDTH 500 0
DWIDTH 12 0
BBX 12 24 0 -4
BITMAP
0000
7FF0
1830
1810
1810
1800
1800
1800
1800
1800
1800
1800
1800
1800
1800
1800
1800
1800
1800
7E00
0000
0000
0000
0000
ENDCHAR
STARTCHAR Theta
ENCODING 920
SWIDTH 500 0
DWIDTH 12 0
BBX 12 24 0 -4
BITMAP
0000
0780
0CC0
1860
1860
3030
3030
3030
3030
3030
3FF0
3030
3030
3030
3030
3030
1860
1860
0CC0
0780
0000
0000
0000
0000
ENDCHAR
STARTCHAR Sigma
ENCODING 931
SWIDTH 500 0
DWIDTH 12 0
BBX 12 24 0 -4
BITMAP
0000
3FF0
3030
3810
1810
1C00
0C00
0E00
0600
0700
0300
0200
0600
0400
0C00
0810
1810
1030
3FF0
3FF0
0000
0000
0000
0000
ENDCHAR
STARTCHAR Phi
ENCODING 934
SWIDTH 500 0
DWIDTH 12 0
BBX 12 24 0 -4
BITMAP
0000
1FE0
0300
0300
0780
0FC0
1B60
1B60
3330
3330
3330
3330
3330
1B60
1B60
0FC0
0780
0300
0300
1FE0
0000
0000
0000
0000
ENDCHAR
STARTCHAR uni03A9
ENCODING 937
SWIDTH 500 0
DWIDTH 12 0
BBX 12 24 0 -4
BITMAP
0000
0F80
18C0
3060
3060
6030
6030
6030
6030
6030
6030
6030
3060
3060
18C0
0880
0880
4890
78F0
78F0
0000
0000
0000
0000
ENDCHAR
STARTCHAR alpha
ENCODING 945
SWIDTH 500 0
DWIDTH 12 0
BBX 12 24 0 -4
BITMAP
0000
0000
0000
0000
0000
0000
0000
0000
0E30
1960
30C0
30C0
60C0
60C0
60C0
60C0
30C0
30C0
1960
0E30
0000
0000
0000
0000
ENDCHAR
STARTCHAR delta
ENCODING 948
SWIDTH 500 0
DWIDTH 12 0
BBX 12 24 0 -4
BITMAP
0000
03C0
0660
0C70
0C30
0C00
0600
0300
0780
1CC0
3060
3060
6030
6030
6030
6030
3060
3060
1DC0
0700
0000
0000
0000
0000
ENDCHAR
STARTCHAR epsilon
ENCODING 949
SWIDTH 500 0
DWIDTH 12 0
BBX 12 24 0 -4
BITMAP
0000
0000
0000
0000
0000
0000
0000
0000
03E0
0E00
1800
1800
3000
3FE0
3000
3000
1800
1800
0E00
03E0
0000
0000
0000
0000
ENDCHAR
STARTCHAR pi
ENCODING 960
SWIDTH 500 0
DWIDTH 12 0
BBX 12 24 0 -4
BITMAP
0000
0000
0000
0000
0000
0000
0000
0010
1FF0
7FF0
4840
0840
0840
18C0
18C0
18C0
18C0
18C0
18C0
18C0
0000
0000
0000
0000
ENDCHAR
STARTCHAR sigma
ENCODING 963
SWIDTH 500 0
DWIDTH 12 0
BBX 12 24 0 -4
BITMAP
0000
0000
0000
0000
0000
0000
0000
0010
07F0
1FF0
31C0
3060
6030
6030
6030
6030
3060
3060
1DC0
0700
0000
0000
0000
0000
ENDCHAR
STARTCHAR tau
ENCODING 964
SWIDTH 500 0
DWIDTH 12 0
BBX 12 24 0 -4
BITMAP
0000
0000
0000
0000
0000
0000
0000
0010
0FF0
3FF0
2100
0100
0100
0300
0300
0300
0300
0300
0300
0300
0000
0000
0000
0000
ENDCHAR
STARTCHAR phi
ENCODING 966
SWIDTH 500 0
DWIDTH 12 0
BBX 12 24 0 -4
BITMAP
0000
0000
0000
0000
0000
0020
0020
0060
0740
1DC0
31E0
3160
6330
6230
6630
6430
3C60
3860
1DC0
1700
3000
2000
2000
0000
ENDCHAR
STARTCHAR bullet
ENCODING 8226
SWIDTH 500 0
DWIDTH 12 0
BBX 12 24 0 -4
BITMAP
0000
0000
0000
0000
0000
0000
0000
0000
0600
1F80
1F80
3FC0
3FC0
1F80
1F80
0600
0000
0000
0000
0000
0000
0000
0000
0000
ENDCHAR
STARTCHAR exclamdbl
ENCODING 8252
SWIDTH 500 0
DWIDTH 12 0
BBX 12 24 0 -4
BITMAP
0000
1040
38E0
38E0
38E0
38E0
38E0
38E0
38E0
1040
1040
1040
1040
1040
1040
0000
0000
0000
18C0
3DE0
3DE0
18C0
0000
0000
ENDCHAR
STARTCHAR uni207F
ENCODING 8319
SWIDTH 500 0
DWIDTH 12 0
BBX 12 24 0 -4
BITMAP
0000
3B80
1EC0
1860
1860
1860
1860
1860
1860
1860
1860
3CF0
0000
0000
0000
0000
0000
0000
0000
0000
0000
0000
0000
0000
ENDCHAR
STARTCHAR peseta
ENCODING 8359
SWIDTH 500 0
DWIDTH 12 0
BBX 12 24 0 -4
BITMAP
0000
7F80
30E0
3060
3030
3030
3030
3030
3060
30E0
3F80
3000
3080
3180
37F0
3180
3180
3180
3180
7990
01B0
00E0
0000
0000
ENDCHAR
STARTCHAR arrowleft
ENCODING 8592
SWIDTH 500 0
DWIDTH 12 0
BBX 12 24 0 -4
BITMAP
0000
0000
0000
0000
0000
0000
0000
0000
1000
3000
6000
FFF0
FFF0
6000
3000
1000
0000
0000
0000
0000
0000
0000
0000
0000
ENDCHAR
STARTCHAR arrowup
ENCODING 8593
SWIDTH 500 0
DWIDTH 12 0
BBX 12 24 0 -4
BITMAP
0000
0000
0600
0F00
1F80
36C0
0600
0600
0600
0600
0600
0600
0600
0600
0600
0600
0600
0600
0600
0600
0600
0600
0000
0000
ENDCHAR
STARTCHAR arrowright
ENCODING 8594
SWIDTH 500 0
DWIDTH 12 0
BBX 12 24 0 -4
BITMAP
0000
0000
0000
0000
0000
0000
0000
0000
0080
00C0
0060
FFF0
FFF0
0060
00C0
0080
0000
0000
0000
0000
0000
0000
0000
0000
ENDCHAR
STARTCHAR arrowdown
ENCODING 8595
SWIDTH 500 0
DWIDTH 12 0
BBX 12 24 0 -4
BITMAP
0000
0000
0600
0600
0600
0600
0600
0600
0600
0600
0600
0600
0600
0600
0600
0600
0600
0600
36C0
1F80
0F00
0600
0000
0000
ENDCHAR
STARTCHAR arrowboth
ENCODING 8596
SWIDTH 500 0
DWIDTH 12 0
BBX 12 24 0 -4
BITMAP
0000
0000
0000
0000
0000
0000
0000
0000
1080
30C0
6060
FFF0
FFF0
6060
30C0
1080
0000
0000
0000
0000
0000
0000
0000
0000
ENDCHAR
STARTCHAR arrowupdn
ENCODING 8597
SWIDTH 500 0
DWIDTH 12 0
BBX 12 24 0 -4
BITMAP
0000
0000
0600
0F00
1F80
36C0
2640
0600
0600
0600
0600
0600
0600
0600
0600
0600
0600
2640
36C0
1F80
0F00
0600
0000
0000
ENDCHAR
STARTCHAR arrowupdnbse
ENCODING 8616
SWIDTH 500 0
DWIDTH 12 0
BBX 12 24 0 -4
BITMAP
0000
0000
0600
0F00
1F80
36C0
2640
0600
0600
0600
0600
0600
0600
0600
0600
0600
2640
36C0
1F80
0F00
0600
3FC0
0000
0000
ENDCHAR
STARTCHAR uni2219
ENCODING 8729
SWIDTH 500 0
DWIDTH 12 0
BBX 12 24 0 -4
BITMAP
0000
0000
0000
0000
0000
0000
0000
0000
0000
0700
0F80
0F80
0F80
0700
0000
0000
0000
0000
0000
0000
0000
0000
0000
0000
ENDCHAR
STARTCHAR radical
ENCODING 8730
SWIDTH 500 0
DWIDTH 12 0
BBX 12 24 0 -4
BITMAP
0000
00F0
00C0
00C0
00C0
0180
0180
0180
0180
0300
0300
7300
3300
3600
3600
3600
3E00
1C00
1C00
1800
1800
0000
0000
0000
ENDCHAR
STARTCHAR infinity
ENCODING 8734
SWIDTH 500 0
DWIDTH 12 0
BBX 12 24 0 -4
BITMAP
0000
0000
0000
0000
0000
0000
0000
0000
18C0
3D60
6E30
6630
6630
6330
63B0
35E0
18C0
0000
0000
0000
0000
0000
0000
0000
ENDCHAR
STARTCHAR orthogonal
ENCODING 8735
SWIDTH 500 0
DWIDTH 12 0
BBX 12 24 0 -4
BITMAP
0000
0000
0000
0000
0000
0000
0000
2000
2000
2000
2000
2000
2000
2000
2000
3FF0
0000
0000
0000
0000
0000
0000
0000
0000
ENDCHAR
STARTCHAR intersection
ENCODING 8745
SWIDTH 500 0
DWIDTH 12 0
BBX 12 24 0 -4
BITMAP
0000
0780
0CC0
1860
1860
3030
3030
3030
3030
3030
3030
3030
3030
3030
3030
3030
3030
3030
3030
3030
0000
0000
0000
0000
ENDCHAR
STARTCHAR approxequal
ENCODING 8776
SWIDTH 500 0
DWIDTH 12 0
BBX 12 24 0 -4
BITMAP
0000
0000
0000
0000
0000
0000
0000
0C10
1F30
33E0
20C0
0000
0C10
1F30
33E0
20C0
0000
0000
0000
0000
0000
0000
0000
0000
ENDCHAR
STARTCHAR equivalence
ENCODING 8801
SWIDTH 500 0
DWIDTH 12 0
BBX 12 24 0 -4
BITMAP
0000
0000
0000
0000
0000
0000
0000
3FF0
0000
0000
0000
0000
3FF0
0000
0000
0000
0000
3FF0
0000
0000
0000
0000
0000
0000
ENDCHAR
STARTCHAR lessequal
ENCODING 8804
SWIDTH 500 0
DWIDTH 12 0
BBX 12 24 0 -4
BITMAP
0000
0000
0000
0000
0000
0000
0070
01C0
0700
1C00
7000
1C00
0700
01C0
0070
0000
0000
7FF0
0000
0000
0000
0000
0000
0000
ENDCHAR
STARTCHAR greaterequal
ENCODING 8805
SWIDTH 500 0
DWIDTH 12 0
BBX 12 24 0 -4
BITMAP
0000
0000
0000
0000
0000
0000
7000
1C00
0700
01C0
0070
01C0
0700
1C00
7000
0000
0000
7FF0
0000
0000
0000
0000
0000
0000
ENDCHAR
STARTCHAR house
ENCODING 8962
SWIDTH 500 0
DWIDTH 12 0
BBX 12 24 0 -4
BITMAP
0000
0000
0000
0000
0000
0200
0200
0700
0500
0D80
0880
18C0
1040
3060
2020
2020
2020
3FE0
0000
0000
0000
0000
0000
0000
ENDCHAR
STARTCHAR revlogicalnot
ENCODING 8976
SWIDTH 500 0
DWIDTH 12 0
BBX 12 24 0 -4
BITMAP
0000
0000
0000
0000
0000
0000
0000
0000
3FF0
2000
2000
2000
2000
2000
2000
2000
2000
0000
0000
0000
0000
0000
0000
0000
ENDCHAR
STARTCHAR integraltp
ENCODING 8992
SWIDTH 500 0
DWIDTH 12 0
BBX 12 24 0 -4
BITMAP
0000
01E0
0330
0230
0600
0600
0600
0600
0600
0600
0600
0600
0600
0600
0600
0600
0600
0600
0600
0600
0600
0600
0600
0600
ENDCHAR
STARTCHAR integralbt
ENCODING 8993
SWIDTH 500 0
DWIDTH 12 0
BBX 12 24 0 -4
BITMAP
0600
0600
0600
0600
0600
0600
0600
0600
0600
0600
0600
0600
0600
0600
0600
0600
0600
0600
0600
0600
C400
CC00
7800
0000
ENDCHAR
STARTCHAR SF100000
ENCODING 9472
SWIDTH 500 0
DWIDTH 12 0
BBX 12 24 0 -4
BITMAP
0000
0000
0000
0000
0000
0000
0000
0000
0000
0000
0000
FFF0
FFF0
0000
0000
0000
0000
0000
0000
0000
0000
0000
0000
0000
ENDCHAR
STARTCHAR SF110000
ENCODING 9474
SWIDTH 500 0
DWIDTH 12 0
BBX 12 24 0 -4
BITMAP
0600
0600
0600
0600
0600
0600
0600
0600
0600
0600
0600
0600
0600
0600
0600
0600
0600
0600
0600
0600
0600
0600
0600
0600
ENDCHAR
STARTCHAR SF010000
ENCODING 9484
SWIDTH 500 0
DWIDTH 12 0
BBX 12 24 0 -4
BITMAP
0000
0000
0000
0000
0000
0000
0000
0000
0000
0000
0000
07F0
07F0
0600
0600
0600
0600
0600
0600
0600
0600
0600
0600
0600
ENDCHAR
STARTCHAR SF030000
ENCODING 9488
SWIDTH 500 0
DWIDTH 12 0
BBX 12 24 0 -4
BITMAP
0000
0000
0000
0000
0000
0000
0000
0000
0000
0000
0000
FE00
FE00
0600
0600
0600
0600
0600
0600
0600
0600
0600
0600
0600
ENDCHAR
STARTCHAR SF020000
ENCODING 9492
SWIDTH 500 0
DWIDTH 12 0
BBX 12 24 0 -4
BITMAP
0600
0600
0600
0600
0600
0600
0600
0600
0600
0600
0600
07F0
07F0
0000
0000
0000
0000
0000
0000
0000
0000
0000
0000
0000
ENDCHAR
STARTCHAR SF040000
ENCODING 9496
SWIDTH 500 0
DWIDTH 12 0
BBX 12 24 0 -4
BITMAP
0600
0600
0600
0600
0600
0600
0600
0600
0600
0600
0600
FE00
FE00
0000
0000
0000
0000
0000
0000
0000
0000
0000
0000
0000
ENDCHAR
STARTCHAR SF080000
ENCODING 9500
SWIDTH 500 0
DWIDTH 12 0
BBX 12 24 0 -4
BITMAP
0600
0600
0600
0600
0600
0600
0600
0600
0600
0600
0600
07F0
07F0
0600
0600
0600
0600
0600
0600
0600
0600
0600
0600
0600
ENDCHAR
STARTCHAR SF090000
ENCODING 9508
SWIDTH 500 0
DWIDTH 12 0
BBX 12 24 0 -4
BITMAP
0600
0600
0600
0600
0600
0600
0600
0600
0600
0600
0600
FE00
FE00
0600
0600
0600
0600
0600
0600
0600
0600
0600
0600
0600
ENDCHAR
STARTCHAR SF060000
ENCODING 9516
SWIDTH 500 0
DWIDTH 12 0
BBX 12 24 0 -4
BITMAP
0000
0000
0000
0000
0000
0000
0000
0000
0000
0000
0000
FFF0
FFF0
0600
0600
0600
0600
0600
0600
0600
0600
0600
0600
0600
ENDCHAR
STARTCHAR SF070000
ENCODING 9524
SWIDTH 500 0
DWIDTH 12 0
BBX 12 24 0 -4
BITMAP
0600
0600
0600
0600
0600
0600
0600
0600
0600
0600
0600
FFF0
FFF0
0000
0000
0000
0000
0000
0000
0000
0000
0000
0000
0000
ENDCHAR
STARTCHAR SF050000
ENCODING 9532
SWIDTH 500 0
DWIDTH 12 0
BBX 12 24 0 -4
BITMAP
0600
0600
0600
0600
0600
0600
0600
0600
0600
0600
0600
FFF0
FFF0
0600
0600
0600
0600
0600
0600
0600
0600
0600
0600
0600
ENDCHAR
STARTCHAR SF430000
ENCODING 9552
SWIDTH 500 0
DWIDTH 12 0
BBX 12 24 0 -4
BITMAP
0000
0000
0000
0000
0000
0000
0000
0000
0000
FFF0
FFF0
0000
0000
FFF0
FFF0
0000
0000
0000
0000
0000
0000
0000
0000
0000
ENDCHAR
STARTCHAR SF240000
ENCODING 9553
SWIDTH 500 0
DWIDTH 12 0
BBX 12 24 0 -4
BITMAP
1980
1980
1980
1980
1980
1980
1980
1980
1980
1980
1980
1980
1980
1980
1980
1980
1980
1980
1980
1980
1980
1980
1980
1980
ENDCHAR
STARTCHAR SF510000
ENCODING 9554
SWIDTH 500 0
DWIDTH 12 0
BBX 12 24 0 -4
BITMAP
0000
0000
0000
0000
0000
0000
0000
0000
0000
07F0
07F0
0600
0600
07F0
07F0
0600
0600
0600
0600
0600
0600
0600
0600
0600
ENDCHAR
STARTCHAR SF520000
ENCODING 9555
SWIDTH 500 0
DWIDTH 12 0
BBX 12 24 0 -4
BITMAP
0000
0000
0000
0000
0000
0000
0000
0000
0000
0000
0000
1FF0
1FF0
1980
1980
1980
1980
1980
1980
1980
1980
1980
1980
1980
ENDCHAR
STARTCHAR SF390000
ENCODING 9556
SWIDTH 500 0
DWIDTH 12 0
BBX 12 24 0 -4
BITMAP
0000
0000
0000
0000
0000
0000
0000
0000
0000
1FF0
1FF0
1800
1800
19F0
19F0
1980
1980
1980
1980
1980
1980
1980
1980
1980
ENDCHAR
STARTCHAR SF220000
ENCODING 9557
SWIDTH 500 0
DWIDTH 12 0
BBX 12 24 0 -4
BITMAP
0000
0000
0000
0000
0000
0000
0000
0000
0000
FE00
FE00
0600
0600
FE00
FE00
0600
0600
0600
0600
0600
0600
0600
0600
0600
ENDCHAR
STARTCHAR SF210000
ENCODING 9558
SWIDTH 500 0
DWIDTH 12 0
BBX 12 24 0 -4
BITMAP
0000
0000
0000
0000
0000
0000
0000
0000
0000
0000
0000
FF80
FF80
1980
1980
1980
1980
1980
1980
1980
1980
1980
1980
1980
ENDCHAR
STARTCHAR SF250000
ENCODING 9559
SWIDTH 500 0
DWIDTH 12 0
BBX 12 24 0 -4
BITMAP
0000
0000
0000
0000
0000
0000
0000
0000
0000
FF80
FF80
0180
0180
F980
F980
1980
1980
1980
1980
1980
1980
1980
1980
1980
ENDCHAR
STARTCHAR SF500000
ENCODING 9560
SWIDTH 500 0
DWIDTH 12 0
BBX 12 24 0 -4
BITMAP
0600
0600
0600
0600
0600
0600
0600
0600
0600
07F0
07F0
0600
0600
07F0
07F0
0000
0000
0000
0000
0000
0000
0000
0000
0000
ENDCHAR
STARTCHAR SF490000
ENCODING 9561
SWIDTH 500 0
DWIDTH 12 0
BBX 12 24 0 -4
BITMAP
1980
1980
1980
1980
1980
1980
1980
1980
1980
1980
1980
1FF0
1FF0
0000
0000
0000
0000
0000
0000
0000
0000
0000
0000
0000
ENDCHAR
STARTCHAR SF380000
ENCODING 9562
SWIDTH 500 0
DWIDTH 12 0
BBX 12 24 0 -4
BITMAP
1980
1980
1980
1980
1980
1980
1980
1980
1980
19F0
19F0
1800
1800
1FF0
1FF0
0000
0000
0000
0000
0000
0000
0000
0000
0000
ENDCHAR
STARTCHAR SF280000
ENCODING 9563
SWIDTH 500 0
DWIDTH 12 0
BBX 12 24 0 -4
BITMAP
0600
0600
0600
0600
0600
0600
0600
0600
0600
FE00
FE00
0600
0600
FE00
FE00
0000
0000
0000
0000
0000
0000
0000
0000
0000
ENDCHAR
STARTCHAR SF270000
ENCODING 9564
SWIDTH 500 0
DWIDTH 12 0
BBX 12 24 0 -4
BITMAP
1980
1980
1980
1980
1980
1980
1980
1980
1980
1980
1980
FF80
FF80
0000
0000
0000
0000
0000
0000
0000
0000
0000
0000
0000
ENDCHAR
STARTCHAR SF260000
ENCODING 9565
SWIDTH 500 0
DWIDTH 12 0
BBX 12 24 0 -4
BITMAP
1980
1980
1980
1980
1980
1980
1980
1980
1980
F980
F980
0180
0180
FF80
FF80
0000
0000
0000
0000
0000
0000
0000
0000
0000
ENDCHAR
STARTCHAR SF360000
ENCODING 9566
SWIDTH 500 0
DWIDTH 12 0
BBX 12 24 0 -4
BITMAP
0600
0600
0600
0600
0600
0600
0600
0600
0600
07F0
07F0
0600
0600
07F0
07F0
0600
0600
0600
0600
0600
0600
0600
0600
0600
ENDCHAR
STARTCHAR SF370000
ENCODING 9567
SWIDTH 500 0
DWIDTH 12 0
BBX 12 24 0 -4
BITMAP
1980
1980
1980
1980
1980
1980
1980
1980
1980
1980
1980
19F0
19F0
1980
1980
1980
1980
1980
1980
1980
1980
1980
1980
1980
ENDCHAR
STARTCHAR SF420000
ENCODING 9568
SWIDTH 500 0
DWIDTH 12 0
BBX 12 24 0 -4
BITMAP
1980
1980
1980
1980
1980
1980
1980
1980
1980
19F0
19F0
1800
1800
19F0
19F0
1980
1980
1980
1980
1980
1980
1980
1980
1980
ENDCHAR
STARTCHAR SF190000
ENCODING 9569
SWIDTH 500 0
DWIDTH 12 0
BBX 12 24 0 -4
BITMAP
0600
0600
0600
0600
0600
0600
0600
0600
0600
FE00
FE00
0600
0600
FE00
FE00
0600
0600
0600
0600
0600
0600
0600
0600
0600
ENDCHAR
STARTCHAR SF200000
ENCODING 9570
SWIDTH 500 0
DWIDTH 12 0
BBX 12 24 0 -4
BITMAP
1980
1980
1980
1980
1980
1980
1980
1980
1980
1980
1980
F980
F980
1980
1980
1980
1980
1980
1980
1980
1980
1980
1980
1980
ENDCHAR
STARTCHAR SF230000
ENCODING 9571
SWIDTH 500 0
DWIDTH 12 0
BBX 12 24 0 -4
BITMAP
1980
1980
1980
1980
1980
1980
1980
1980
1980
F980
F980
0180
0180
F980
F980
1980
1980
1980
1980
1980
1980
1980
1980
1980
ENDCHAR
STARTCHAR SF470000
ENCODING 9572
SWIDTH 500 0
DWIDTH 12 0
BBX 12 24 0 -4
BITMAP
0000
0000
0000
0000
0000
0000
0000
0000
0000
FFF0
FFF0
0000
0000
FFF0
FFF0
0600
0600
0600
0600
0600
0600
0600
0600
0600
ENDCHAR
STARTCHAR SF480000
ENCODING 9573
SWIDTH 500 0
DWIDTH 12 0
BBX 12 24 0 -4
BITMAP
0000
0000
0000
0000
0000
0000
0000
0000
0000
0000
0000
FFF0
FFF0
1980
1980
1980
1980
1980
1980
1980
1980
1980
1980
1980
ENDCHAR
STARTCHAR SF410000
ENCODING 9574
SWIDTH 500 0
DWIDTH 12 0
BBX 12 24 0 -4
BITMAP
0000
0000
0000
0000
0000
0000
0000
0000
0000
FFF0
FFF0
0000
0000
F9F0
F9F0
1980
1980
1980
1980
1980
1980
1980
1980
1980
ENDCHAR
STARTCHAR SF450000
ENCODING 9575
SWIDTH 500 0
DWIDTH 12 0
BBX 12 24 0 -4
BITMAP
0600
0600
0600
0600
0600
0600
0600
0600
0600
FFF0
FFF0
0000
0000
FFF0
FFF0
0000
0000
0000
0000
0000
0000
0000
0000
0000
ENDCHAR
STARTCHAR SF460000
ENCODING 9576
SWIDTH 500 0
DWIDTH 12 0
BBX 12 24 0 -4
BITMAP
1980
1980
1980
1980
1980
1980
1980
1980
1980
1980
1980
FFF0
FFF0
0000
0000
0000
0000
0000
0000
0000
0000
0000
0000
0000
ENDCHAR
STARTCHAR SF400000
ENCODING 9577
SWIDTH 500 0
DWIDTH 12 0
BBX 12 24 0 -4
BITMAP
1980
1980
1980
1980
1980
1980
1980
1980
1980
F9F0
F9F0
0000
0000
FFF0
FFF0
0000
0000
0000
0000
0000
0000
0000
0000
0000
ENDCHAR
STARTCHAR SF540000
ENCODING 9578
SWIDTH 500 0
DWIDTH 12 0
BBX 12 24 0 -4
BITMAP
0600
0600
0600
0600
0600
0600
0600
0600
0600
FFF0
FFF0
0000
0000
FFF0
FFF0
0600
0600
0600
0600
0600
0600
0600
0600
0600
ENDCHAR
STARTCHAR SF530000
ENCODING 9579
SWIDTH 500 0
DWIDTH 12 0
BBX 12 24 0 -4
BITMAP
1980
1980
1980
1980
1980
1980
1980
1980
1980
1980
1980
F9F0
F9F0
1980
1980
1980
1980
1980
1980
1980
1980
1980
1980
1980
ENDCHAR
STARTCHAR SF440000
ENCODING 9580
SWIDTH 500 0
DWIDTH 12 0
BBX 12 24 0 -4
BITMAP
1980
1980
1980
1980
1980
1980
1980
1980
1980
F9F0
F9F0
0000
0000
F9F0
F9F0
1980
1980
1980
1980
1980
1980
1980
1980
1980
ENDCHAR
STARTCHAR upblock
ENCODING 9600
SWIDTH 500 0
DWIDTH 12 0
BBX 12 24 0 -4
BITMAP
FFF0
FFF0
FFF0
FFF0
FFF0
FFF0
FFF0
FFF0
FFF0
FFF0
FFF0
0000
0000
0000
0000
0000
0000
0000
0000
0000
0000
0000
0000
0000
ENDCHAR
STARTCHAR dnblock
ENCODING 9604
SWIDTH 500 0
DWIDTH 12 0
BBX 12 24 0 -4
BITMAP
0000
0000
0000
0000
0000
0000
0000
0000
0000
0000
0000
FFF0
FFF0
FFF0
FFF0
FFF0
FFF0
FFF0
FFF0
FFF0
FFF0
FFF0
FFF0
FFF0
ENDCHAR
STARTCHAR block
ENCODING 9608
SWIDTH 500 0
DWIDTH 12 0
BBX 12 24 0 -4
BITMAP
FFF0
FFF0
FFF0
FFF0
FFF0
FFF0
FFF0
FFF0
FFF0
FFF0
FFF0
FFF0
FFF0
FFF0
FFF0
FFF0
FFF0
FFF0
FFF0
FFF0
FFF0
FFF0
FFF0
FFF0
ENDCHAR
STARTCHAR lfblock
ENCODING 9612
SWIDTH 500 0
DWIDTH 12 0
BBX 12 24 0 -4
BITMAP
FC00
FC00
FC00
FC00
FC00
FC00
FC00
FC00
FC00
FC00
FC00
FC00
FC00
FC00
FC00
FC00
FC00
FC00
FC00
FC00
FC00
FC00
FC00
FC00
ENDCHAR
STARTCHAR rtblock
ENCODING 9616
SWIDTH 500 0
DWIDTH 12 0
BBX 12 24 0 -4
BITMAP
03F0
03F0
03F0
03F0
03F0
03F0
03F0
03F0
03F0
03F0
03F0
03F0
03F0
03F0
03F0
03F0
03F0
03F0
03F0
03F0
03F0
03F0
03F0
03F0
ENDCHAR
STARTCHAR ltshade
ENCODING 9617
SWIDTH 500 0
DWIDTH 12 0
BBX 12 24 0 -4
BITMAP
9240
4920
2490
9240
4920
2490
9240
4920
2490
9240
4920
2490
9240
4920
2490
9240
4920
2490
9240
4920
2490
9240
4920
2490
ENDCHAR
STARTCHAR shade
ENCODING 9618
SWIDTH 500 0
DWIDTH 12 0
BBX 12 24 0 -4
BITMAP
AAA0
5550
AAA0
5550
AAA0
5550
AAA0
5550
AAA0
5550
AAA0
5550
AAA0
5550
AAA0
5550
AAA0
5550
AAA0
5550
AAA0
5550
AAA0
5550
ENDCHAR
STARTCHAR dkshade
ENCODING 9619
SWIDTH 500 0
DWIDTH 12 0
BBX 12 24 0 -4
BITMAP
6DB0
B6D0
DB60
6DB0
B6D0
DB60
6DB0
B6D0
DB60
6DB0
B6D0
DB60
6DB0
B6D0
DB60
6DB0
B6D0
DB60
6DB0
B6D0
DB60
6DB0
B6D0
DB60
ENDCHAR
STARTCHAR filledbox
ENCODING 9632
SWIDTH 500 0
DWIDTH 12 0
BBX 12 24 0 -4
BITMAP
0000
0000
0000
0000
0000
0000
0000
1F80
1F80
1F80
1F80
1F80
1F80
1F80
1F80
1F80
1F80
0000
0000
0000
0000
0000
0000
0000
ENDCHAR
STARTCHAR filledrect
ENCODING 9644
SWIDTH 500 0
DWIDTH 12 0
BBX 12 24 0 -4
BITMAP
0000
0000
0000
0000
0000
0000
0000
0000
0000
0000
0000
0000
0000
3FF0
3FF0
3FF0
3FF0
3FF0
3FF0
0000
0000
0000
0000
0000
ENDCHAR
STARTCHAR triagup
ENCODING 9650
SWIDTH 500 0
DWIDTH 12 0
BBX 12 24 0 -4
BITMAP
0000
0000
0000
0000
0000
0000
0200
0200
0700
0700
0F80
0F80
1FC0
1FC0
1FC0
3FE0
3FE0
3FE0
0000
0000
0000
0000
0000
0000
ENDCHAR
STARTCHAR triagrt
ENCODING 9658
SWIDTH 500 0
DWIDTH 12 0
BBX 12 24 0 -4
BITMAP
0000
0000
0000
4000
6000
7000
7800
7C00
7E00
7F00
7FC0
7FF0
7FC0
7F00
7E00
7C00
7800
7000
6000
4000
0000
0000
0000
0000
ENDCHAR
STARTCHAR triagdn
ENCODING 9660
SWIDTH 500 0
DWIDTH 12 0
BBX 12 24 0 -4
BITMAP
0000
0000
0000
0000
0000
0000
3FE0
3FE0
3FE0
1FC0
1FC0
1FC0
0F80
0F80
0700
0700
0200
0200
0000
0000
0000
0000
0000
0000
ENDCHAR
STARTCHAR triaglf
ENCODING 9668
SWIDTH 500 0
DWIDTH 12 0
BBX 12 24 0 -4
BITMAP
0000
0000
0000
0010
0030
0070
00F0
01F0
03F0
07F0
1FF0
7FF0
1FF0
07F0
03F0
01F0
00F0
0070
0030
0010
0000
0000
0000
0000
ENDCHAR
STARTCHAR circle
ENCODING 9675
SWIDTH 500 0
DWIDTH 12 0
BBX 12 24 0 -4
BITMAP
0000
0000
0000
0000
0000
0000
0000
0F00
39C0
2040
6060
4020
4020
6060
2040
39C0
0F00
0000
0000
0000
0000
0000
0000
0000
ENDCHAR
STARTCHAR invbullet
ENCODING 9688
SWIDTH 500 0
DWIDTH 12 0
BBX 12 24 0 -4
BITMAP
FFF0
FFF0
FFF0
FFF0
FFF0
FFF0
FFF0
FFF0
F9F0
E070
E070
C030
C030
E070
E070
F9F0
FFF0
FFF0
FFF0
FFF0
FFF0
FFF0
FFF0
FFF0
ENDCHAR
STARTCHAR invcircle
ENCODING 9689
SWIDTH 500 0
DWIDTH 12 0
BBX 12 24 0 -4
BITMAP
FFF0
FFF0
FFF0
FFF0
FFF0
FFF0
FFF0
F0F0
C630
DFB0
9F90
BFD0
BFD0
9F90
DFB0
C630
F0F0
FFF0
FFF0
FFF0
FFF0
FFF0
FFF0
FFF0
ENDCHAR
STARTCHAR smileface
ENCODING 9786
SWIDTH 500 0
DWIDTH 12 0
BBX 12 24 0 -4
BITMAP
0000
0000
0000
0000
0FC0
1860
3030
2010
2CD0
2CD0
2010
2010
2010
2850
2FD0
2790
3030
1860
0FC0
0000
0000
0000
0000
0000
ENDCHAR
STARTCHAR invsmileface
ENCODING 9787
SWIDTH 500 0
DWIDTH 12 0
BBX 12 24 0 -4
BITMAP
0000
0000
0000
0000
0FC0
1FE0
3FF0
3FF0
3330
3330
3FF0
3FF0
3FF0
37B0
3030
3870
3FF0
1FE0
0FC0
0000
0000
0000
0000
0000
ENDCHAR
STARTCHAR sun
ENCODING 9788
SWIDTH 500 0
DWIDTH 12 0
BBX 12 24 0 -4
BITMAP
0000
0000
0000
2640
6660
36C0
36C0
1F80
1F80
1980
1980
F9F0
F9F0
1980
1980
1980
1F80
36C0
36C0
6660
2640
0000
0000
0000
ENDCHAR
STARTCHAR female
ENCODING 9792
SWIDTH 500 0
DWIDTH 12 0
BBX 12 24 0 -4
BITMAP
0000
0780
0CC0
1860
1860
3030
3030
3030
3030
3030
1860
1860
0CC0
0780
0300
0300
3FF0
0300
0300
0300
0000
0000
0000
0000
ENDCHAR
STARTCHAR male
ENCODING 9794
SWIDTH 500 0
DWIDTH 12 0
BBX 12 24 0 -4
BITMAP
0000
03F0
0070
00F0
00D0
0190
0190
0F00
1980
30C0
30C0
6060
6060
6060
6060
6060
30C0
30C0
1980
0F00
0000
0000
0000
0000
ENDCHAR
STARTCHAR spade
ENCODING 9824
SWIDTH 500 0
DWIDTH 12 0
BBX 12 24 0 -4
BITMAP
0000
0000
0000
0000
0200
0700
0F80
1FC0
3FE0
3FE0
7FF0
7FF0
7FF0
3AE0
0200
0200
0700
1FC0
0000
0000
0000
0000
0000
0000
ENDCHAR
STARTCHAR club
ENCODING 9827
SWIDTH 500 0
DWIDTH 12 0
BBX 12 24 0 -4
BITMAP
0000
0000
0000
0000
0700
0F80
0F80
0F80
0700
3AE0
7FF0
7FF0
7FF0
3AE0
0200
0200
0700
1FC0
0000
0000
0000
0000
0000
0000
ENDCHAR
STARTCHAR heart
ENCODING 9829
SWIDTH 500 0
DWIDTH 12 0
BBX 12 24 0 -4
BITMAP
0000
0000
0000
0000
0000
38E0
7DF0
7FF0
7FF0
7FF0
3FE0
3FE0
1FC0
0F80
0700
0200
0200
0000
0000
0000
0000
0000
0000
0000
ENDCHAR
STARTCHAR diamond
ENCODING 9830
SWIDTH 500 0
DWIDTH 12 0
BBX 12 24 0 -4
BITMAP
0000
0000
0000
0000
0200
0200
0700
0700
0F80
0F80
1FC0
1FC0
0F80
0F80
0700
0700
0200
0200
0000
0000
0000
0000
0000
0000
ENDCHAR
STARTCHAR musicalnote
ENCODING 9834
SWIDTH 500 0
DWIDTH 12 0
BBX 12 24 0 -4
BITMAP
0000
0400
0400
0600
0600
0700
0780
05C0
04C0
0460
0460
0420
0420
0420
0460
0440
0480
1C00
3C00
7C00
7800
3000
0000
0000
ENDCHAR
STARTCHAR musicalnotedbl
ENCODING 9835
SWIDTH 500 0
DWIDTH 12 0
BBX 12 24 0 -4
BITMAP
0000
0C00
0F80
09E0
0C60
0F20
0BE0
08E0
0820
0820
0820
0820
0820
0820
0820
3820
7820
F8E0
F1E0
63E0
03C0
0180
0000
0000
ENDCHAR
STARTCHAR uni3044
ENCODING 12356
SWIDTH 500 0
DWIDTH 12 0
BBX 12 24 0 -4
BITMAP
0000
0000
0000
0000
0000
0000
0000
0000
0000
0000
0000
0000
0000
0000
0000
0000
0000
0000
0000
0000
0000
0000
0000
0000
ENDCHAR
STARTCHAR uni3046
ENCODING 12358
SWIDTH 500 0
DWIDTH 12 0
BBX 12 24 0 -4
BITMAP
0000
0000
0000
0000
0000
0000
0000
0000
0000
0000
0000
0000
0000
0000
0000
0000
0000
0000
0000
0000
0000
0000
0000
0000
ENDCHAR
STARTCHAR uni304B
ENCODING 12363
SWIDTH 500 0
DWIDTH 12 0
BBX 12 24 0 -4
BITMAP
0000
0000
0000
0000
0000
0000
0000
0000
0000
0000
0000
0000
0000
0000
0000
0000
0000
0000
0000
0000
0000
0000
0000
0000
ENDCHAR
STARTCHAR uni3057
ENCODING 12375
SWIDTH 500 0
DWIDTH 12 0
BBX 12 24 0 -4
BITMAP
0000
0000
0000
0000
0000
0000
0000
0000
0000
0000
0000
0000
0000
0000
0000
0000
0000
0000
0000
0000
0000
0000
0000
0000
ENDCHAR
STARTCHAR uni306E
ENCODING 12398
SWIDTH 500 0
DWIDTH 12 0
BBX 12 24 0 -4
BITMAP
0000
0000
0000
0000
0000
0000
0000
0000
0000
0000
0000
0000
0000
0000
0000
0000
0000
0000
0000
0000
0000
0000
0000
0000
ENDCHAR
STARTCHAR uni3093
ENCODING 12435
SWIDTH 500 0
DWIDTH 12 0
BBX 12 24 0 -4
BITMAP
0000
0000
0000
0000
0000
0000
0000
0000
0000
0000
0000
0000
0000
0000
0000
0000
0000
0000
0000
0000
0000
0000
0000
0000
ENDCHAR
STARTCHAR .notdef
ENCODING -1
SWIDTH 500 0
DWIDTH 12 0
BBX 11 17 1 0
BITMAP
FFE0
8020
8020
8020
8020
8020
8020
8020
8020
8020
8020
8020
8020
8020
8020
8020
FFE0
ENDCHAR
ENDFONT
