STARTFONT 2.1
FONT Lief-14px
SIZE 14 75 75
FONTBOUNDINGBOX 9 14 0 -3
STARTPROPERTIES 5
PIXEL_SIZE 14
FONT_ASCENT 9
FONT_DESCENT 3
CHARSET_REGISTRY "ISO10646"
CHARSET_ENCODING "1"
ENDPROPERTIES
CHARS 105
STARTCHAR uni000D
ENCODING 13
SWIDTH 71 0
DWIDTH 1 0
BBX 1 1 0 0
BITMAP
00
ENDCHAR
STARTCHAR space
ENCODING 32
SWIDTH 214 0
DWIDTH 3 0
BBX 1 1 0 0
BITMAP
00
ENDCHAR
STARTCHAR exclam
ENCODING 33
SWIDTH 214 0
DWIDTH 3 0
BBX 2 9 0 0
BITMAP
40
40
40
40
80
80
80
00
80
ENDCHAR
STARTCHAR quotedbl
ENCODING 34
SWIDTH 286 0
DWIDTH 4 0
BBX 3 3 0 6
BITMAP
A0
A0
A0
ENDCHAR
STARTCHAR dollar
ENCODING 36
SWIDTH 571 0
DWIDTH 8 0
BBX 7 11 0 -1
BITMAP
10
3C
52
90
90
7C
12
12
92
7C
10
ENDCHAR
STARTCHAR percent
ENCODING 37
SWIDTH 571 0
DWIDTH 8 0
BBX 7 7 0 1
BITMAP
08
48
B0
50
14
2A
24
ENDCHAR
STARTCHAR ampersand
ENCODING 38
SWIDTH 643 0
DWIDTH 9 0
BBX 8 9 0 0
BITMAP
20
50
50
26
52
8A
84
86
7B
ENDCHAR
STARTCHAR quotesingle
ENCODING 39
SWIDTH 143 0
DWIDTH 2 0
BBX 1 3 0 6
BITMAP
80
80
80
ENDCHAR
STARTCHAR parenleft
ENCODING 40
SWIDTH 286 0
DWIDTH 4 0
BBX 3 11 0 -1
BITMAP
20
40
40
80
80
80
80
80
40
40
20
ENDCHAR
STARTCHAR parenright
ENCODING 41
SWIDTH 286 0
DWIDTH 4 0
BBX 3 11 0 -1
BITMAP
80
40
40
20
20
20
20
20
40
40
80
ENDCHAR
STARTCHAR asterisk
ENCODING 42
SWIDTH 286 0
DWIDTH 4 0
BBX 3 4 0 5
BITMAP
40
E0
40
A0
ENDCHAR
STARTCHAR plus
ENCODING 43
SWIDTH 286 0
DWIDTH 4 0
BBX 3 3 0 3
BITMAP
40
E0
40
ENDCHAR
STARTCHAR comma
ENCODING 44
SWIDTH 214 0
DWIDTH 3 0
BBX 2 3 0 -2
BITMAP
40
40
80
ENDCHAR
STARTCHAR hyphen
ENCODING 45
SWIDTH 286 0
DWIDTH 4 0
BBX 3 1 0 4
BITMAP
E0
ENDCHAR
STARTCHAR period
ENCODING 46
SWIDTH 143 0
DWIDTH 2 0
BBX 1 1 0 0
BITMAP
80
ENDCHAR
STARTCHAR zero
ENCODING 48
SWIDTH 500 0
DWIDTH 7 0
BBX 6 9 0 0
BITMAP
78
84
84
8C
94
A4
C4
84
78
ENDCHAR
STARTCHAR one
ENCODING 49
SWIDTH 429 0
DWIDTH 6 0
BBX 5 9 0 0
BITMAP
20
60
A0
20
20
20
20
20
F8
ENDCHAR
STARTCHAR two
ENCODING 50
SWIDTH 500 0
DWIDTH 7 0
BBX 6 9 0 0
BITMAP
78
84
04
04
18
60
80
84
FC
ENDCHAR
STARTCHAR three
ENCODING 51
SWIDTH 500 0
DWIDTH 7 0
BBX 6 9 0 0
BITMAP
78
84
04
04
38
04
04
84
78
ENDCHAR
STARTCHAR four
ENCODING 52
SWIDTH 500 0
DWIDTH 7 0
BBX 6 9 0 0
BITMAP
88
88
88
88
FC
08
08
08
08
ENDCHAR
STARTCHAR five
ENCODING 53
SWIDTH 500 0
DWIDTH 7 0
BBX 6 9 0 0
BITMAP
F8
80
80
F8
04
04
84
84
78
ENDCHAR
STARTCHAR six
ENCODING 54
SWIDTH 500 0
DWIDTH 7 0
BBX 6 9 0 0
BITMAP
78
84
84
80
B8
C4
84
84
78
ENDCHAR
STARTCHAR seven
ENCODING 55
SWIDTH 500 0
DWIDTH 7 0
BBX 6 9 0 0
BITMAP
FC
84
84
08
10
10
20
20
20
ENDCHAR
STARTCHAR eight
ENCODING 56
SWIDTH 500 0
DWIDTH 7 0
BBX 6 9 0 0
BITMAP
78
84
84
78
84
84
84
84
78
ENDCHAR
STARTCHAR nine
ENCODING 57
SWIDTH 500 0
DWIDTH 7 0
BBX 6 9 0 0
BITMAP
78
84
84
84
8C
74
04
04
04
ENDCHAR
STARTCHAR colon
ENCODING 58
SWIDTH 143 0
DWIDTH 2 0
BBX 1 5 0 0
BITMAP
80
00
00
00
80
ENDCHAR
STARTCHAR semicolon
ENCODING 59
SWIDTH 214 0
DWIDTH 3 0
BBX 2 7 0 -2
BITMAP
40
00
00
00
40
40
80
ENDCHAR
STARTCHAR equal
ENCODING 61
SWIDTH 286 0
DWIDTH 4 0
BBX 3 3 0 3
BITMAP
E0
00
E0
ENDCHAR
STARTCHAR question
ENCODING 63
SWIDTH 500 0
DWIDTH 7 0
BBX 6 10 0 0
BITMAP
70
88
04
04
84
C8
B0
80
00
80
ENDCHAR
STARTCHAR A
ENCODING 65
SWIDTH 571 0
DWIDTH 8 0
BBX 7 9 0 0
BITMAP
10
28
28
44
44
7C
44
44
C6
ENDCHAR
STARTCHAR B
ENCODING 66
SWIDTH 571 0
DWIDTH 8 0
BBX 7 9 0 0
BITMAP
F8
44
44
58
64
42
42
42
FC
ENDCHAR
STARTCHAR C
ENCODING 67
SWIDTH 571 0
DWIDTH 8 0
BBX 7 9 0 0
BITMAP
3E
42
80
80
80
80
80
42
3C
ENDCHAR
STARTCHAR D
ENCODING 68
SWIDTH 571 0
DWIDTH 8 0
BBX 7 9 0 0
BITMAP
F8
44
42
42
42
42
42
44
F8
ENDCHAR
STARTCHAR E
ENCODING 69
SWIDTH 571 0
DWIDTH 8 0
BBX 7 9 0 0
BITMAP
FE
42
40
48
78
48
40
42
FE
ENDCHAR
STARTCHAR F
ENCODING 70
SWIDTH 571 0
DWIDTH 8 0
BBX 7 9 0 0
BITMAP
FE
42
40
48
78
48
40
40
E0
ENDCHAR
STARTCHAR G
ENCODING 71
SWIDTH 571 0
DWIDTH 8 0
BBX 7 9 0 0
BITMAP
3E
42
80
80
80
8E
82
42
3C
ENDCHAR
STARTCHAR H
ENCODING 72
SWIDTH 643 0
DWIDTH 9 0
BBX 8 9 0 0
BITMAP
C3
42
42
42
7E
42
42
42
C3
ENDCHAR
STARTCHAR I
ENCODING 73
SWIDTH 429 0
DWIDTH 6 0
BBX 5 9 0 0
BITMAP
F8
20
20
20
20
20
20
20
F8
ENDCHAR
STARTCHAR J
ENCODING 74
SWIDTH 571 0
DWIDTH 8 0
BBX 7 9 0 0
BITMAP
7E
08
08
08
08
C8
88
88
70
ENDCHAR
STARTCHAR K
ENCODING 75
SWIDTH 571 0
DWIDTH 8 0
BBX 7 9 0 0
BITMAP
E6
44
48
50
60
70
48
44
E6
ENDCHAR
STARTCHAR L
ENCODING 76
SWIDTH 571 0
DWIDTH 8 0
BBX 7 9 0 0
BITMAP
E0
40
40
40
40
40
40
42
FE
ENDCHAR
STARTCHAR M
ENCODING 77
SWIDTH 714 0
DWIDTH 10 0
BBX 9 9 0 0
BITMAP
C180
6300
6300
5500
5D00
4900
4100
4100
E380
ENDCHAR
STARTCHAR N
ENCODING 78
SWIDTH 643 0
DWIDTH 9 0
BBX 8 9 0 0
BITMAP
E3
62
52
52
4A
4A
46
46
C2
ENDCHAR
STARTCHAR O
ENCODING 79
SWIDTH 571 0
DWIDTH 8 0
BBX 7 9 0 0
BITMAP
7C
82
82
82
82
82
82
82
7C
ENDCHAR
STARTCHAR P
ENCODING 80
SWIDTH 571 0
DWIDTH 8 0
BBX 7 9 0 0
BITMAP
FC
42
42
42
7C
40
40
40
E0
ENDCHAR
STARTCHAR Q
ENCODING 81
SWIDTH 643 0
DWIDTH 9 0
BBX 8 9 0 0
BITMAP
7C
82
82
82
82
82
8A
84
7B
ENDCHAR
STARTCHAR R
ENCODING 82
SWIDTH 571 0
DWIDTH 8 0
BBX 7 9 0 0
BITMAP
FC
42
42
42
7C
50
48
44
E6
ENDCHAR
STARTCHAR S
ENCODING 83
SWIDTH 571 0
DWIDTH 8 0
BBX 7 9 0 0
BITMAP
3C
42
80
80
7C
02
02
82
7C
ENDCHAR
STARTCHAR T
ENCODING 84
SWIDTH 571 0
DWIDTH 8 0
BBX 7 9 0 0
BITMAP
FE
92
10
10
10
10
10
10
38
ENDCHAR
STARTCHAR U
ENCODING 85
SWIDTH 643 0
DWIDTH 9 0
BBX 8 9 0 0
BITMAP
C3
42
42
42
42
42
42
42
3D
ENDCHAR
STARTCHAR V
ENCODING 86
SWIDTH 714 0
DWIDTH 10 0
BBX 9 9 0 0
BITMAP
C180
4100
2200
2200
1400
1400
1400
0800
0800
ENDCHAR
STARTCHAR W
ENCODING 87
SWIDTH 714 0
DWIDTH 10 0
BBX 9 9 0 0
BITMAP
C180
4900
4900
4900
4900
4900
4900
3600
2400
ENDCHAR
STARTCHAR X
ENCODING 88
SWIDTH 571 0
DWIDTH 8 0
BBX 7 9 0 0
BITMAP
C6
44
28
28
10
28
28
44
C6
ENDCHAR
STARTCHAR Y
ENCODING 89
SWIDTH 643 0
DWIDTH 9 0
BBX 8 10 0 -1
BITMAP
C3
42
42
42
42
42
3E
82
82
7C
ENDCHAR
STARTCHAR Z
ENCODING 90
SWIDTH 643 0
DWIDTH 9 0
BBX 8 9 0 0
BITMAP
FF
82
84
08
7C
20
41
81
FF
ENDCHAR
STARTCHAR underscore
ENCODING 95
SWIDTH 571 0
DWIDTH 8 0
BBX 7 1 0 0
BITMAP
FE
ENDCHAR
STARTCHAR a
ENCODING 97
SWIDTH 500 0
DWIDTH 7 0
BBX 6 6 0 0
BITMAP
70
88
78
88
98
6C
ENDCHAR
STARTCHAR b
ENCODING 98
SWIDTH 500 0
DWIDTH 7 0
BBX 6 9 0 0
BITMAP
C0
40
40
40
78
44
44
44
F8
ENDCHAR
STARTCHAR c
ENCODING 99
SWIDTH 429 0
DWIDTH 6 0
BBX 5 6 0 0
BITMAP
78
88
80
80
88
70
ENDCHAR
STARTCHAR d
ENCODING 100
SWIDTH 500 0
DWIDTH 7 0
BBX 6 9 0 0
BITMAP
0C
08
08
08
78
88
88
88
7C
ENDCHAR
STARTCHAR e
ENCODING 101
SWIDTH 429 0
DWIDTH 6 0
BBX 5 6 0 0
BITMAP
70
88
F8
80
88
70
ENDCHAR
STARTCHAR f
ENCODING 102
SWIDTH 357 0
DWIDTH 5 0
BBX 4 9 0 0
BITMAP
30
40
40
E0
40
40
40
40
E0
ENDCHAR
STARTCHAR g
ENCODING 103
SWIDTH 500 0
DWIDTH 7 0
BBX 6 9 0 -3
BITMAP
38
44
44
44
44
3C
84
84
78
ENDCHAR
STARTCHAR h
ENCODING 104
SWIDTH 571 0
DWIDTH 8 0
BBX 7 9 0 0
BITMAP
C0
40
40
40
78
44
44
44
E6
ENDCHAR
STARTCHAR i
ENCODING 105
SWIDTH 286 0
DWIDTH 4 0
BBX 3 8 0 0
BITMAP
40
00
C0
40
40
40
40
E0
ENDCHAR
STARTCHAR j
ENCODING 106
SWIDTH 357 0
DWIDTH 5 0
BBX 4 11 0 -3
BITMAP
10
00
30
10
10
10
10
10
10
90
60
ENDCHAR
STARTCHAR k
ENCODING 107
SWIDTH 500 0
DWIDTH 7 0
BBX 6 9 0 0
BITMAP
C0
40
40
4C
48
70
48
48
EC
ENDCHAR
STARTCHAR l
ENCODING 108
SWIDTH 286 0
DWIDTH 4 0
BBX 3 9 0 0
BITMAP
C0
40
40
40
40
40
40
40
E0
ENDCHAR
STARTCHAR m
ENCODING 109
SWIDTH 714 0
DWIDTH 10 0
BBX 9 6 0 0
BITMAP
DB00
6D00
4900
4900
4900
DB80
ENDCHAR
STARTCHAR n
ENCODING 110
SWIDTH 571 0
DWIDTH 8 0
BBX 7 6 0 0
BITMAP
D8
64
44
44
44
EE
ENDCHAR
STARTCHAR o
ENCODING 111
SWIDTH 429 0
DWIDTH 6 0
BBX 5 6 0 0
BITMAP
70
88
88
88
88
70
ENDCHAR
STARTCHAR p
ENCODING 112
SWIDTH 500 0
DWIDTH 7 0
BBX 6 9 0 -3
BITMAP
D8
64
44
44
44
78
40
40
E0
ENDCHAR
STARTCHAR q
ENCODING 113
SWIDTH 500 0
DWIDTH 7 0
BBX 6 9 0 -3
BITMAP
7C
88
88
88
88
78
08
08
0C
ENDCHAR
STARTCHAR r
ENCODING 114
SWIDTH 500 0
DWIDTH 7 0
BBX 6 6 0 0
BITMAP
D8
64
40
40
40
E0
ENDCHAR
STARTCHAR s
ENCODING 115
SWIDTH 429 0
DWIDTH 6 0
BBX 5 6 0 0
BITMAP
78
88
E0
18
88
F0
ENDCHAR
STARTCHAR t
ENCODING 116
SWIDTH 357 0
DWIDTH 5 0
BBX 4 9 0 0
BITMAP
40
40
40
F0
40
40
40
40
30
ENDCHAR
STARTCHAR u
ENCODING 117
SWIDTH 571 0
DWIDTH 8 0
BBX 7 6 0 0
BITMAP
C4
44
44
44
44
3A
ENDCHAR
STARTCHAR v
ENCODING 118
SWIDTH 571 0
DWIDTH 8 0
BBX 7 6 0 0
BITMAP
C6
44
28
28
10
10
ENDCHAR
STARTCHAR w
ENCODING 119
SWIDTH 714 0
DWIDTH 10 0
BBX 9 6 0 0
BITMAP
DD80
4900
4900
4900
3600
2400
ENDCHAR
STARTCHAR x
ENCODING 120
SWIDTH 429 0
DWIDTH 6 0
BBX 5 6 0 0
BITMAP
D8
50
20
20
50
D8
ENDCHAR
STARTCHAR y
ENCODING 121
SWIDTH 500 0
DWIDTH 7 0
BBX 6 9 0 -3
BITMAP
C4
44
44
44
44
3C
84
84
78
ENDCHAR
STARTCHAR z
ENCODING 122
SWIDTH 429 0
DWIDTH 6 0
BBX 5 6 0 0
BITMAP
F8
88
10
20
48
F8
ENDCHAR
STARTCHAR exclamdown
ENCODING 161
SWIDTH 214 0
DWIDTH 3 0
BBX 2 10 0 -1
BITMAP
40
00
40
40
40
40
80
80
80
80
ENDCHAR
STARTCHAR sterling
ENCODING 163
SWIDTH 571 0
DWIDTH 8 0
BBX 7 10 0 0
BITMAP
38
44
40
40
20
78
20
20
42
BE
ENDCHAR
STARTCHAR yen
ENCODING 165
SWIDTH 571 0
DWIDTH 8 0
BBX 7 9 0 0
BITMAP
C6
44
28
10
7C
10
7C
10
10
ENDCHAR
STARTCHAR guillemotleft
ENCODING 171
SWIDTH 500 0
DWIDTH 7 0
BBX 6 5 0 2
BITMAP
24
48
90
48
24
ENDCHAR
STARTCHAR guillemotright
ENCODING 187
SWIDTH 500 0
DWIDTH 7 0
BBX 6 5 0 2
BITMAP
90
48
24
48
90
ENDCHAR
STARTCHAR questiondown
ENCODING 191
SWIDTH 571 0
DWIDTH 8 0
BBX 7 12 0 -2
BITMAP
20
00
20
20
40
78
C4
82
02
02
84
78
ENDCHAR
STARTCHAR Aacute
ENCODING 193
SWIDTH 571 0
DWIDTH 8 0
BBX 7 11 0 0
BITMAP
04
08
10
28
28
44
44
7C
44
44
C6
ENDCHAR
STARTCHAR Eacute
ENCODING 201
SWIDTH 571 0
DWIDTH 8 0
BBX 7 11 0 0
BITMAP
08
10
FE
42
40
48
78
48
40
42
FE
ENDCHAR
STARTCHAR Iacute
ENCODING 205
SWIDTH 429 0
DWIDTH 6 0
BBX 5 11 0 0
BITMAP
10
20
F8
20
20
20
20
20
20
20
F8
ENDCHAR
STARTCHAR Ntilde
ENCODING 209
SWIDTH 643 0
DWIDTH 9 0
BBX 8 11 0 0
BITMAP
0A
14
E3
62
52
52
4A
4A
46
46
C2
ENDCHAR
STARTCHAR Oacute
ENCODING 211
SWIDTH 571 0
DWIDTH 8 0
BBX 7 11 0 0
BITMAP
08
10
7C
82
82
82
82
82
82
82
7C
ENDCHAR
STARTCHAR Uacute
ENCODING 218
SWIDTH 643 0
DWIDTH 9 0
BBX 8 11 0 0
BITMAP
08
10
C3
42
42
42
42
42
42
42
3D
ENDCHAR
STARTCHAR Udieresis
ENCODING 220
SWIDTH 643 0
DWIDTH 9 0
BBX 8 11 0 0
BITMAP
24
00
C3
42
42
42
42
42
42
42
3D
ENDCHAR
STARTCHAR aacute
ENCODING 225
SWIDTH 500 0
DWIDTH 7 0
BBX 6 9 0 0
BITMAP
20
40
00
70
88
78
88
98
6C
ENDCHAR
STARTCHAR eacute
ENCODING 233
SWIDTH 429 0
DWIDTH 6 0
BBX 5 9 0 0
BITMAP
20
40
00
70
88
F8
80
88
70
ENDCHAR
STARTCHAR iacute
ENCODING 237
SWIDTH 286 0
DWIDTH 4 0
BBX 3 9 0 0
BITMAP
40
80
00
C0
40
40
40
40
E0
ENDCHAR
STARTCHAR ntilde
ENCODING 241
SWIDTH 571 0
DWIDTH 8 0
BBX 7 9 0 0
BITMAP
14
28
00
D8
64
44
44
44
EE
ENDCHAR
STARTCHAR oacute
ENCODING 243
SWIDTH 429 0
DWIDTH 6 0
BBX 5 9 0 0
BITMAP
20
40
00
70
88
88
88
88
70
ENDCHAR
STARTCHAR uacute
ENCODING 250
SWIDTH 571 0
DWIDTH 8 0
BBX 7 9 0 0
BITMAP
10
20
00
C4
44
44
44
44
3A
ENDCHAR
STARTCHAR udieresis
ENCODING 252
SWIDTH 571 0
DWIDTH 8 0
BBX 7 8 0 0
BITMAP
28
00
C4
44
44
44
44
3A
ENDCHAR
STARTCHAR emdash
ENCODING 8212
SWIDTH 571 0
DWIDTH 8 0
BBX 7 1 0 4
BITMAP
FE
ENDCHAR
STARTCHAR Euro
ENCODING 8364
SWIDTH 571 0
DWIDTH 8 0
BBX 7 9 0 0
BITMAP
1C
22
40
F8
40
F8
40
22
1C
ENDCHAR
STARTCHAR .notdef
ENCODING -1
SWIDTH 71 0
DWIDTH 1 0
BBX 1 1 0 0
BITMAP
00
ENDCHAR
ENDFONT
